0
SECTION
2
TABLES
0
TABLE
2
LAYER
70
0
0
LAYER
2
LAYER_NAME
70
0
62
1
6
CONTINUOUS
0
ENDTAB
0
ENDSEC
 0
SECTION
 2
ENTITIES
 0
LINE
 8
TOOL_0
 5
1
 10
103.465
 20
1339.542
 30
0
 11
133.465
 21
1339.542
 31
0
 0
ARC
 8
TOOL_0
 5
2
 10
113.465
 20
1339.542
 30
0
 40
20.0
 50
0
 51
180.0
210
0
220
0
230
1.0
 0
ARC
 8
TOOL_0
 5
3
 10
113.465
 20
1339.542
 30
0
 40
20.0
 50
180.0
 51
0
210
0
220
0
230
1.0
 0
LINE
 8
TOOL_0
 5
4
 10
133.465
 20
1339.542
 30
0
 11
129.929
 21
1343.078
 31
0
 0
LINE
 8
TOOL_0
 5
5
 10
129.929
 20
1343.078
 30
0
 11
100.24
 21
1273.28
 31
0
 0
LINE
 8
TOOL_0
 5
6
 10
100.24
 20
1273.28
 30
0
 11
130.24
 21
1273.28
 31
0
 0
ARC
 8
TOOL_0
 5
7
 10
111.24
 20
1273.28
 30
0
 40
19.0
 50
0
 51
180.0
210
0
220
0
230
1.0
 0
ARC
 8
TOOL_0
 5
8
 10
111.24
 20
1273.28
 30
0
 40
19.0
 50
180.0
 51
0
210
0
220
0
230
1.0
 0
LINE
 8
TOOL_0
 5
9
 10
130.24
 20
1273.28
 30
0
 11
126.704
 21
1276.816
 31
0
 0
LINE
 8
TOOL_0
 5
A
 10
126.704
 20
1276.816
 30
0
 11
103.465
 21
1207.018
 31
0
 0
LINE
 8
TOOL_0
 5
B
 10
103.465
 20
1207.018
 30
0
 11
133.465
 21
1207.018
 31
0
 0
ARC
 8
TOOL_0
 5
C
 10
113.465
 20
1207.018
 30
0
 40
20.0
 50
0
 51
180.0
210
0
220
0
230
1.0
 0
ARC
 8
TOOL_0
 5
D
 10
113.465
 20
1207.018
 30
0
 40
20.0
 50
180.0
 51
0
210
0
220
0
230
1.0
 0
LINE
 8
TOOL_0
 5
E
 10
133.465
 20
1207.018
 30
0
 11
129.929
 21
1210.554
 31
0
 0
LINE
 8
TOOL_0
 5
F
 10
129.929
 20
1210.554
 30
0
 11
171.249
 21
1137.281
 31
0
 0
LINE
 8
TOOL_0
 5
10
 10
171.249
 20
1137.281
 30
0
 11
140.22
 21
1137.281
 31
0
 0
LINE
 8
TOOL_0
 5
11
 10
140.22
 20
1137.281
 30
0
 11
44.24
 21
1137.281
 31
0
 0
ARC
 8
TOOL_0
 5
12
 10
44.24
 20
1162.281
 30
0
 40
25.0
 50
180.0
 51
270.0
210
0
220
0
230
1.0
 0
LINE
 8
TOOL_0
 5
13
 10
19.24
 20
1162.281
 30
0
 11
19.24
 21
1384.281
 31
0
 0
ARC
 8
TOOL_0
 5
14
 10
44.24
 20
1384.281
 30
0
 40
25.0
 50
90.0
 51
180.0
210
0
220
0
230
1.0
 0
LINE
 8
TOOL_0
 5
15
 10
44.24
 20
1409.281
 30
0
 11
140.22
 21
1409.281
 31
0
 0
ARC
 8
TOOL_0
 5
16
 10
140.22
 20
1384.281
 30
0
 40
25.0
 50
26.764919364668
 51
90.0
210
0
220
0
230
1.0
 0
LINE
 8
TOOL_0
 5
17
 10
162.541
 20
1395.539
 30
0
 11
168.64
 21
1383.447
 31
0
 0
LINE
 8
TOOL_0
 5
18
 10
168.64
 20
1383.447
 30
0
 11
168.64
 21
1320.28
 31
0
 0
LINE
 8
TOOL_0
 5
19
 10
168.64
 20
1320.28
 30
0
 11
165.64
 21
1320.28
 31
0
 0
LINE
 8
TOOL_0
 5
1A
 10
165.64
 20
1320.28
 30
0
 11
165.64
 21
1286.28
 31
0
 0
LINE
 8
TOOL_0
 5
1B
 10
165.64
 20
1286.28
 30
0
 11
168.64
 21
1286.28
 31
0
 0
LINE
 8
TOOL_0
 5
1C
 10
168.64
 20
1286.28
 30
0
 11
168.64
 21
1163.113
 31
0
 0
LINE
 8
TOOL_0
 5
1D
 10
168.64
 20
1163.113
 30
0
 11
162.541
 21
1151.021
 31
0
 0
ARC
 8
TOOL_0
 5
1E
 10
140.22
 20
1162.28
 30
0
 40
24.999842439504
 50
269.99770816882
 51
333.233034334126
210
0
220
0
230
1.0
 0
LINE
 8
TOOL_0
 5
1F
 10
140.219
 20
1137.28
 30
0
 11
135.818
 21
1134.296
 31
0
 0
LINE
 8
TOOL_0
 5
20
 10
135.818
 20
1134.296
 30
0
 11
307.416
 21
1339.861
 31
0
 0
LINE
 8
TOOL_0
 5
21
 10
307.416
 20
1339.861
 30
0
 11
337.416
 21
1339.861
 31
0
 0
ARC
 8
TOOL_0
 5
22
 10
317.416
 20
1339.861
 30
0
 40
20.0
 50
0
 51
180.0
210
0
220
0
230
1.0
 0
ARC
 8
TOOL_0
 5
23
 10
317.416
 20
1339.861
 30
0
 40
20.0
 50
180.0
 51
0
210
0
220
0
230
1.0
 0
LINE
 8
TOOL_0
 5
24
 10
337.416
 20
1339.861
 30
0
 11
333.88
 21
1343.397
 31
0
 0
LINE
 8
TOOL_0
 5
25
 10
333.88
 20
1343.397
 30
0
 11
304.19
 21
1273.599
 31
0
 0
LINE
 8
TOOL_0
 5
26
 10
304.19
 20
1273.599
 30
0
 11
334.19
 21
1273.599
 31
0
 0
ARC
 8
TOOL_0
 5
27
 10
315.19
 20
1273.599
 30
0
 40
19.0
 50
0
 51
180.0
210
0
220
0
230
1.0
 0
ARC
 8
TOOL_0
 5
28
 10
315.19
 20
1273.599
 30
0
 40
19.0
 50
180.0
 51
0
210
0
220
0
230
1.0
 0
LINE
 8
TOOL_0
 5
29
 10
334.19
 20
1273.599
 30
0
 11
330.654
 21
1277.135
 31
0
 0
LINE
 8
TOOL_0
 5
2A
 10
330.654
 20
1277.135
 30
0
 11
307.414
 21
1207.337
 31
0
 0
LINE
 8
TOOL_0
 5
2B
 10
307.414
 20
1207.337
 30
0
 11
337.414
 21
1207.337
 31
0
 0
ARC
 8
TOOL_0
 5
2C
 10
317.414
 20
1207.337
 30
0
 40
20.0
 50
0
 51
180.0
210
0
220
0
230
1.0
 0
ARC
 8
TOOL_0
 5
2D
 10
317.414
 20
1207.337
 30
0
 40
20.0
 50
180.0
 51
0
210
0
220
0
230
1.0
 0
LINE
 8
TOOL_0
 5
2E
 10
337.414
 20
1207.337
 30
0
 11
333.878
 21
1210.873
 31
0
 0
LINE
 8
TOOL_0
 5
2F
 10
333.878
 20
1210.873
 30
0
 11
375.198
 21
1137.601
 31
0
 0
LINE
 8
TOOL_0
 5
30
 10
375.198
 20
1137.601
 30
0
 11
344.168
 21
1137.601
 31
0
 0
LINE
 8
TOOL_0
 5
31
 10
344.168
 20
1137.601
 30
0
 11
248.188
 21
1137.601
 31
0
 0
ARC
 8
TOOL_0
 5
32
 10
248.188
 20
1162.601
 30
0
 40
25.0
 50
180.0
 51
270.0
210
0
220
0
230
1.0
 0
LINE
 8
TOOL_0
 5
33
 10
223.188
 20
1162.601
 30
0
 11
223.188
 21
1384.601
 31
0
 0
ARC
 8
TOOL_0
 5
34
 10
248.188
 20
1384.601
 30
0
 40
25.0
 50
90.0
 51
180.0
210
0
220
0
230
1.0
 0
LINE
 8
TOOL_0
 5
35
 10
248.188
 20
1409.601
 30
0
 11
344.168
 21
1409.601
 31
0
 0
ARC
 8
TOOL_0
 5
36
 10
344.168
 20
1384.601
 30
0
 40
25.0
 50
26.764919364668
 51
90.0
210
0
220
0
230
1.0
 0
LINE
 8
TOOL_0
 5
37
 10
366.489
 20
1395.859
 30
0
 11
372.588
 21
1383.767
 31
0
 0
LINE
 8
TOOL_0
 5
38
 10
372.588
 20
1383.767
 30
0
 11
372.588
 21
1320.6
 31
0
 0
LINE
 8
TOOL_0
 5
39
 10
372.588
 20
1320.6
 30
0
 11
369.588
 21
1320.6
 31
0
 0
LINE
 8
TOOL_0
 5
3A
 10
369.588
 20
1320.6
 30
0
 11
369.588
 21
1286.6
 31
0
 0
LINE
 8
TOOL_0
 5
3B
 10
369.588
 20
1286.6
 30
0
 11
372.588
 21
1286.6
 31
0
 0
LINE
 8
TOOL_0
 5
3C
 10
372.588
 20
1286.6
 30
0
 11
372.588
 21
1163.433
 31
0
 0
LINE
 8
TOOL_0
 5
3D
 10
372.588
 20
1163.433
 30
0
 11
366.489
 21
1151.341
 31
0
 0
ARC
 8
TOOL_0
 5
3E
 10
344.168
 20
1162.6
 30
0
 40
24.999842439504
 50
269.997708168821
 51
333.233034334126
210
0
220
0
230
1.0
 0
LINE
 8
TOOL_0
 5
3F
 10
344.167
 20
1137.6
 30
0
 11
339.766
 21
1134.616
 31
0
 0
LINE
 8
TOOL_0
 5
40
 10
339.766
 20
1134.616
 30
0
 11
339.766
 21
0.002
 31
0
 0
LINE
 8
TOOL_0
 5
41
 10
339.766
 20
0.002
 30
0
 11
103.461
 21
1929.416
 31
0
 0
LINE
 8
TOOL_0
 5
42
 10
103.461
 20
1929.416
 30
0
 11
133.461
 21
1929.416
 31
0
 0
ARC
 8
TOOL_0
 5
43
 10
113.461
 20
1929.416
 30
0
 40
20.0
 50
0
 51
180.0
210
0
220
0
230
1.0
 0
ARC
 8
TOOL_0
 5
44
 10
113.461
 20
1929.416
 30
0
 40
20.0
 50
180.0
 51
0
210
0
220
0
230
1.0
 0
LINE
 8
TOOL_0
 5
45
 10
133.461
 20
1929.416
 30
0
 11
129.925
 21
1932.952
 31
0
 0
LINE
 8
TOOL_0
 5
46
 10
129.925
 20
1932.952
 30
0
 11
100.236
 21
1863.154
 31
0
 0
LINE
 8
TOOL_0
 5
47
 10
100.236
 20
1863.154
 30
0
 11
130.236
 21
1863.154
 31
0
 0
ARC
 8
TOOL_0
 5
48
 10
111.236
 20
1863.154
 30
0
 40
19.0
 50
0
 51
180.0
210
0
220
0
230
1.0
 0
ARC
 8
TOOL_0
 5
49
 10
111.236
 20
1863.154
 30
0
 40
19.0
 50
180.0
 51
0
210
0
220
0
230
1.0
 0
LINE
 8
TOOL_0
 5
4A
 10
130.236
 20
1863.154
 30
0
 11
126.7
 21
1866.69
 31
0
 0
LINE
 8
TOOL_0
 5
4B
 10
126.7
 20
1866.69
 30
0
 11
103.461
 21
1796.892
 31
0
 0
LINE
 8
TOOL_0
 5
4C
 10
103.461
 20
1796.892
 30
0
 11
133.461
 21
1796.892
 31
0
 0
ARC
 8
TOOL_0
 5
4D
 10
113.461
 20
1796.892
 30
0
 40
20.0
 50
0
 51
180.0
210
0
220
0
230
1.0
 0
ARC
 8
TOOL_0
 5
4E
 10
113.461
 20
1796.892
 30
0
 40
20.0
 50
180.0
 51
0
210
0
220
0
230
1.0
 0
LINE
 8
TOOL_0
 5
4F
 10
133.461
 20
1796.892
 30
0
 11
129.925
 21
1800.428
 31
0
 0
LINE
 8
TOOL_0
 5
50
 10
129.925
 20
1800.428
 30
0
 11
171.245
 21
1727.155
 31
0
 0
LINE
 8
TOOL_0
 5
51
 10
171.245
 20
1727.155
 30
0
 11
140.216
 21
1727.155
 31
0
 0
LINE
 8
TOOL_0
 5
52
 10
140.216
 20
1727.155
 30
0
 11
44.236
 21
1727.155
 31
0
 0
ARC
 8
TOOL_0
 5
53
 10
44.236
 20
1752.155
 30
0
 40
25.0
 50
180.0
 51
270.0
210
0
220
0
230
1.0
 0
LINE
 8
TOOL_0
 5
54
 10
19.236
 20
1752.155
 30
0
 11
19.236
 21
1974.155
 31
0
 0
ARC
 8
TOOL_0
 5
55
 10
44.236
 20
1974.155
 30
0
 40
25.0
 50
90.0
 51
180.0
210
0
220
0
230
1.0
 0
LINE
 8
TOOL_0
 5
56
 10
44.236
 20
1999.155
 30
0
 11
140.216
 21
1999.155
 31
0
 0
ARC
 8
TOOL_0
 5
57
 10
140.216
 20
1974.155
 30
0
 40
25.0
 50
26.764919364668
 51
90.0
210
0
220
0
230
1.0
 0
LINE
 8
TOOL_0
 5
58
 10
162.537
 20
1985.413
 30
0
 11
168.636
 21
1973.321
 31
0
 0
LINE
 8
TOOL_0
 5
59
 10
168.636
 20
1973.321
 30
0
 11
168.636
 21
1910.154
 31
0
 0
LINE
 8
TOOL_0
 5
5A
 10
168.636
 20
1910.154
 30
0
 11
165.636
 21
1910.154
 31
0
 0
LINE
 8
TOOL_0
 5
5B
 10
165.636
 20
1910.154
 30
0
 11
165.636
 21
1876.154
 31
0
 0
LINE
 8
TOOL_0
 5
5C
 10
165.636
 20
1876.154
 30
0
 11
168.636
 21
1876.154
 31
0
 0
LINE
 8
TOOL_0
 5
5D
 10
168.636
 20
1876.154
 30
0
 11
168.636
 21
1752.987
 31
0
 0
LINE
 8
TOOL_0
 5
5E
 10
168.636
 20
1752.987
 30
0
 11
162.537
 21
1740.895
 31
0
 0
ARC
 8
TOOL_0
 5
5F
 10
140.216
 20
1752.154
 30
0
 40
24.999842439504
 50
269.99770816882
 51
333.233034334126
210
0
220
0
230
1.0
 0
LINE
 8
TOOL_0
 5
60
 10
140.215
 20
1727.154
 30
0
 11
135.814
 21
1724.17
 31
0
 0
LINE
 8
TOOL_0
 5
61
 10
135.814
 20
1724.17
 30
0
 11
414.546
 21
2305.289
 31
0
 0
LINE
 8
TOOL_0
 5
62
 10
414.546
 20
2305.289
 30
0
 11
414.546
 21
2304.289
 31
0
 0
LINE
 8
TOOL_0
 5
63
 10
414.546
 20
2304.289
 30
0
 11
414.546
 21
2305.289
 31
0
 0
LINE
 8
TOOL_0
 5
64
 10
414.546
 20
2305.289
 30
0
 11
414.546
 21
2304.289
 31
0
 0
LINE
 8
TOOL_0
 5
65
 10
414.546
 20
2304.289
 30
0
 11
414.546
 21
1119.213
 31
0
 0
LINE
 8
TOOL_0
 5
66
 10
414.546
 20
1119.213
 30
0
 11
414.546
 21
1118.213
 31
0
 0
ENDSEC
 0
EOF

