0
SECTION
2
TABLES
0
TABLE
2
LAYER
70
0
0
LAYER
2
LAYER_NAME
70
0
62
1
6
CONTINUOUS
0
ENDTAB
0
ENDSEC
 0
SECTION
 2
ENTITIES
 0
LINE
 8
TOOL_0
 5
1
 10
1022.415
 20
137.62
 30
0
 11
1004.737
 21
119.943
 31
0
 0
LINE
 8
TOOL_0
 5
2
 10
1004.737
 20
119.943
 30
0
 11
1002.032
 21
118.642
 31
0
 0
ARC
 8
TOOL_0
 5
3
 10
997.257
 20
120.125
 30
0
 40
4.999991399993
 50
270.0
 51
342.746464189754
210
0
220
0
230
1.0
 0
LINE
 8
TOOL_0
 5
4
 10
997.257
 20
115.125
 30
0
 11
637.473
 21
115.125
 31
0
 0
ARC
 8
TOOL_0
 5
5
 10
637.473
 20
85.625
 30
0
 40
29.5
 50
90.0
 51
105.999553963965
210
0
220
0
230
1.0
 0
LINE
 8
TOOL_0
 5
6
 10
629.342
 20
113.982
 30
0
 11
491.126
 21
74.349
 31
0
 0
ARC
 8
TOOL_0
 5
7
 10
499.336
 20
45.933
 30
0
 40
29.578254782864
 50
106.115155158087
 51
179.885714645253
210
0
220
0
230
1.0
 0
LINE
 8
TOOL_0
 5
8
 10
469.757
 20
45.992
 30
0
 11
469.757
 21
22.625
 31
0
 0
ARC
 8
TOOL_0
 5
9
 10
454.257
 20
22.625
 30
0
 40
15.5
 50
270.0
 51
0
210
0
220
0
230
1.0
 0
LINE
 8
TOOL_0
 5
A
 10
454.257
 20
7.125
 30
0
 11
67.078
 21
7.125
 31
0
 0
ARC
 8
TOOL_0
 5
B
 10
67.09
 20
12.138
 30
0
 40
5.013014362637
 50
184.140989165551
 51
269.862846989646
210
0
220
0
230
1.0
 0
LINE
 8
TOOL_0
 5
C
 10
62.09
 20
11.776
 30
0
 11
58.873
 21
57.777
 31
0
 0
ARC
 8
TOOL_0
 5
D
 10
34.854
 20
56.069
 30
0
 40
24.079651679374
 50
4.067477372201
 51
42.733060840556
210
0
220
0
230
1.0
 0
LINE
 8
TOOL_0
 5
E
 10
52.541
 20
72.409
 30
0
 11
27.162
 21
99.816
 31
0
 0
ARC
 8
TOOL_0
 5
F
 10
79.282
 20
148.056
 30
0
 40
71.018251175314
 50
183.614329952714
 51
222.786000740381
210
0
220
0
230
1.0
 0
ARC
 8
TOOL_0
 5
10
 10
388.493
 20
156.485
 30
0
 40
380.307050394809
 50
178.823891949184
 51
181.944747893435
210
0
220
0
230
1.0
 0
ARC
 8
TOOL_0
 5
11
 10
79.451
 20
163.113
 30
0
 40
71.194746358141
 50
137.261452095985
 51
179.051931331741
210
0
220
0
230
1.0
 0
LINE
 8
TOOL_0
 5
12
 10
27.161
 20
211.43
 30
0
 11
52.541
 21
238.838
 31
0
 0
ARC
 8
TOOL_0
 5
13
 10
34.854
 20
255.178
 30
0
 40
24.07956745874
 50
317.266939159444
 51
355.932522627799
210
0
220
0
230
1.0
 0
LINE
 8
TOOL_0
 5
14
 10
58.873
 20
253.47
 30
0
 11
62.09
 21
299.472
 31
0
 0
ARC
 8
TOOL_0
 5
15
 10
67.09
 20
299.11
 30
0
 40
5.01308727233
 50
90.137153010354
 51
175.859010834448
210
0
220
0
230
1.0
 0
LINE
 8
TOOL_0
 5
16
 10
67.078
 20
304.123
 30
0
 11
454.257
 21
304.123
 31
0
 0
ARC
 8
TOOL_0
 5
17
 10
454.257
 20
288.623
 30
0
 40
15.5
 50
0
 51
90.0
210
0
220
0
230
1.0
 0
LINE
 8
TOOL_0
 5
18
 10
469.757
 20
288.623
 30
0
 11
469.757
 21
265.256
 31
0
 0
ARC
 8
TOOL_0
 5
19
 10
499.335
 20
265.315
 30
0
 40
29.578058844353
 50
180.1142892186
 51
253.884844841912
210
0
220
0
230
1.0
 0
LINE
 8
TOOL_0
 5
1A
 10
491.125
 20
236.899
 30
0
 11
629.342
 21
197.266
 31
0
 0
ARC
 8
TOOL_0
 5
1B
 10
637.57
 20
226.231
 30
0
 40
30.110981534982
 50
254.141902526385
 51
267.855029101452
210
0
220
0
230
1.0
 0
LINE
 8
TOOL_0
 5
1C
 10
636.443
 20
196.141
 30
0
 11
997.257
 21
196.123
 31
0
 0
ARC
 8
TOOL_0
 5
1D
 10
997.257
 20
191.123
 30
0
 40
5.0
 50
0
 51
90.0
210
0
220
0
230
1.0
 0
LINE
 8
TOOL_0
 5
1E
 10
1002.257
 20
191.123
 30
0
 11
1002.257
 21
121.631
 31
0
 0
LINE
 8
TOOL_0
 5
1F
 10
1002.257
 20
121.631
 30
0
 11
1004.737
 21
119.94
 31
0
 0
LINE
 8
TOOL_0
 5
20
 10
1004.737
 20
119.94
 30
0
 11
1008.273
 21
116.404
 31
0
 0
LINE
 8
TOOL_0
 5
21
 10
1008.273
 20
116.404
 30
0
 11
1014.359
 21
251.798
 31
0
 0
LINE
 8
TOOL_0
 5
22
 10
1014.359
 20
251.798
 30
0
 11
995.451
 21
235.443
 31
0
 0
LINE
 8
TOOL_0
 5
23
 10
995.451
 20
235.443
 30
0
 11
992.753
 21
234.128
 31
0
 0
ARC
 8
TOOL_0
 5
24
 10
987.753
 20
234.49
 30
0
 40
5.01308727233
 50
270.137153010353
 51
355.859010834449
210
0
220
0
230
1.0
 0
LINE
 8
TOOL_0
 5
25
 10
987.765
 20
229.477
 30
0
 11
600.586
 21
229.477
 31
0
 0
ARC
 8
TOOL_0
 5
26
 10
600.586
 20
244.977
 30
0
 40
15.5
 50
180.0
 51
270.0
210
0
220
0
230
1.0
 0
LINE
 8
TOOL_0
 5
27
 10
585.086
 20
244.977
 30
0
 11
585.086
 21
268.344
 31
0
 0
ARC
 8
TOOL_0
 5
28
 10
555.508
 20
268.285
 30
0
 40
29.578058844353
 50
0.1142892186
 51
73.886705834146
210
0
220
0
230
1.0
 0
LINE
 8
TOOL_0
 5
29
 10
563.717
 20
296.701
 30
0
 11
425.501
 21
336.334
 31
0
 0
ARC
 8
TOOL_0
 5
2A
 10
417.273
 20
307.369
 30
0
 40
30.110981534982
 50
74.141902526386
 51
87.856930583249
210
0
220
0
230
1.0
 0
LINE
 8
TOOL_0
 5
2B
 10
418.399
 20
337.459
 30
0
 11
57.586
 21
337.477
 31
0
 0
ARC
 8
TOOL_0
 5
2C
 10
57.586
 20
342.477
 30
0
 40
5.0
 50
180.0
 51
270.0
210
0
220
0
230
1.0
 0
LINE
 8
TOOL_0
 5
2D
 10
52.586
 20
342.477
 30
0
 11
52.586
 21
413.477
 31
0
 0
ARC
 8
TOOL_0
 5
2E
 10
57.586
 20
413.477
 30
0
 40
5.0
 50
90.0
 51
180.0
210
0
220
0
230
1.0
 0
LINE
 8
TOOL_0
 5
2F
 10
57.586
 20
418.477
 30
0
 11
417.37
 21
418.477
 31
0
 0
ARC
 8
TOOL_0
 5
30
 10
417.37
 20
447.977
 30
0
 40
29.5
 50
270.0
 51
285.999553963966
210
0
220
0
230
1.0
 0
LINE
 8
TOOL_0
 5
31
 10
425.501
 20
419.62
 30
0
 11
563.718
 21
459.253
 31
0
 0
ARC
 8
TOOL_0
 5
32
 10
555.508
 20
487.669
 30
0
 40
29.578254782864
 50
286.115155158088
 51
359.885714645253
210
0
220
0
230
1.0
 0
LINE
 8
TOOL_0
 5
33
 10
585.087
 20
487.61
 30
0
 11
585.087
 21
510.977
 31
0
 0
ARC
 8
TOOL_0
 5
34
 10
600.587
 20
510.977
 30
0
 40
15.5
 50
90.0
 51
180.0
210
0
220
0
230
1.0
 0
LINE
 8
TOOL_0
 5
35
 10
600.587
 20
526.477
 30
0
 11
987.766
 21
526.477
 31
0
 0
ARC
 8
TOOL_0
 5
36
 10
987.754
 20
521.464
 30
0
 40
5.013014362637
 50
4.140989165552
 51
89.862846989647
210
0
220
0
230
1.0
 0
LINE
 8
TOOL_0
 5
37
 10
992.754
 20
521.826
 30
0
 11
995.971
 21
475.825
 31
0
 0
ARC
 8
TOOL_0
 5
38
 10
1019.99
 20
477.533
 30
0
 40
24.079651679374
 50
184.067477372201
 51
222.733060840556
210
0
220
0
230
1.0
 0
LINE
 8
TOOL_0
 5
39
 10
1002.303
 20
461.193
 30
0
 11
1027.683
 21
433.786
 31
0
 0
ARC
 8
TOOL_0
 5
3A
 10
975.563
 20
385.546
 30
0
 40
71.018251175314
 50
3.614329952715
 51
42.786000740381
210
0
220
0
230
1.0
 0
ARC
 8
TOOL_0
 5
3B
 10
666.352
 20
377.117
 30
0
 40
380.307050394809
 50
358.823741324326
 51
1.944747893435
210
0
220
0
230
1.0
 0
ARC
 8
TOOL_0
 5
3C
 10
975.394
 20
370.488
 30
0
 40
71.194746358141
 50
317.260905930912
 51
359.051931331741
210
0
220
0
230
1.0
 0
LINE
 8
TOOL_0
 5
3D
 10
1027.683
 20
322.171
 30
0
 11
1002.304
 21
294.764
 31
0
 0
ARC
 8
TOOL_0
 5
3E
 10
1019.991
 20
278.424
 30
0
 40
24.07956745874
 50
137.266939159444
 51
175.932522627799
210
0
220
0
230
1.0
 0
LINE
 8
TOOL_0
 5
3F
 10
995.972
 20
280.132
 30
0
 11
992.965
 21
237.123
 31
0
 0
LINE
 8
TOOL_0
 5
40
 10
992.965
 20
237.123
 30
0
 11
995.454
 21
235.445
 31
0
 0
LINE
 8
TOOL_0
 5
41
 10
995.454
 20
235.445
 30
0
 11
998.725
 21
231.663
 31
0
 0
LINE
 8
TOOL_0
 5
42
 10
998.725
 20
231.663
 30
0
 11
998.725
 21
-0.001
 31
0
 0
LINE
 8
TOOL_0
 5
43
 10
998.725
 20
-0.001
 30
0
 11
2306.941
 21
129.695
 31
0
 0
LINE
 8
TOOL_0
 5
44
 10
2306.941
 20
129.695
 30
0
 11
2289.263
 21
112.018
 31
0
 0
LINE
 8
TOOL_0
 5
45
 10
2289.263
 20
112.018
 30
0
 11
2286.635
 21
110.567
 31
0
 0
ARC
 8
TOOL_0
 5
46
 10
2266.691
 20
112.066
 30
0
 40
20.000253423394
 50
270.0
 51
355.70170513709
210
0
220
0
230
1.0
 0
LINE
 8
TOOL_0
 5
47
 10
2266.691
 20
92.066
 30
0
 11
1893.233
 21
92.066
 31
0
 0
ARC
 8
TOOL_0
 5
48
 10
1893.296
 20
42.662
 30
0
 40
49.404040168796
 50
90.073063560698
 51
107.642388138624
210
0
220
0
230
1.0
 0
LINE
 8
TOOL_0
 5
49
 10
1878.323
 20
89.742
 30
0
 11
1719.66
 21
39.058
 31
0
 0
ARC
 8
TOOL_0
 5
4A
 10
1725.459
 20
20.948
 30
0
 40
19.015796091671
 50
107.75557653586
 51
187.676279669276
210
0
220
0
230
1.0
 0
ARC
 8
TOOL_0
 5
4B
 10
1696.705
 20
17.065
 30
0
 40
9.999596491859
 50
269.994270422068
 51
7.718457582989
210
0
220
0
230
1.0
 0
LINE
 8
TOOL_0
 5
4C
 10
1696.704
 20
7.065
 30
0
 11
1160.627
 21
7.065
 31
0
 0
ARC
 8
TOOL_0
 5
4D
 10
1160.627
 20
58.065
 30
0
 40
51.0
 50
222.79898945086
 51
270.0
210
0
220
0
230
1.0
 0
LINE
 8
TOOL_0
 5
4E
 10
1123.206
 20
23.414
 30
0
 11
1072.83
 21
77.447
 31
0
 0
ARC
 8
TOOL_0
 5
4F
 10
1124.191
 20
125.008
 30
0
 40
70.000007442857
 50
180.0
 51
222.80011562078
210
0
220
0
230
1.0
 0
ARC
 8
TOOL_0
 5
50
 10
1814.465
 20
133.065
 30
0
 40
760.316690810481
 50
179.269386621274
 51
180.607169014343
210
0
220
0
230
1.0
 0
ARC
 8
TOOL_0
 5
51
 10
1124.259
 20
141.094
 30
0
 40
70.068808731132
 50
137.220864842536
 51
178.637571173786
210
0
220
0
230
1.0
 0
LINE
 8
TOOL_0
 5
52
 10
1072.83
 20
188.683
 30
0
 11
1123.206
 21
242.716
 31
0
 0
ARC
 8
TOOL_0
 5
53
 10
1160.626
 20
208.064
 30
0
 40
51.000171607555
 50
90.0
 51
137.199422933132
210
0
220
0
230
1.0
 0
LINE
 8
TOOL_0
 5
54
 10
1160.626
 20
259.064
 30
0
 11
1696.703
 21
259.064
 31
0
 0
ARC
 8
TOOL_0
 5
55
 10
1696.703
 20
249.064
 30
0
 40
10.0
 50
352.281542417011
 51
90.0
210
0
220
0
230
1.0
 0
ARC
 8
TOOL_0
 5
56
 10
1725.457
 20
245.181
 30
0
 40
19.015404939154
 50
172.323720330723
 51
252.24442346414
210
0
220
0
230
1.0
 0
LINE
 8
TOOL_0
 5
57
 10
1719.658
 20
227.071
 30
0
 11
1878.321
 21
176.387
 31
0
 0
ARC
 8
TOOL_0
 5
58
 10
1893.294
 20
223.468
 30
0
 40
49.404567501396
 50
252.357963345433
 51
269.92693791817
210
0
220
0
230
1.0
 0
LINE
 8
TOOL_0
 5
59
 10
1893.231
 20
174.063
 30
0
 11
2266.689
 21
174.063
 31
0
 0
ARC
 8
TOOL_0
 5
5A
 10
2266.689
 20
154.063
 30
0
 40
20.0
 50
0
 51
90.0
210
0
220
0
230
1.0
 0
LINE
 8
TOOL_0
 5
5B
 10
2286.689
 20
154.063
 30
0
 11
2286.689
 21
113.563
 31
0
 0
LINE
 8
TOOL_0
 5
5C
 10
2286.689
 20
113.563
 30
0
 11
2289.26
 21
112.015
 31
0
 0
LINE
 8
TOOL_0
 5
5D
 10
2289.26
 20
112.015
 30
0
 11
2292.796
 21
108.479
 31
0
 0
LINE
 8
TOOL_0
 5
5E
 10
2292.796
 20
108.479
 30
0
 11
1555.489
 21
307.352
 31
0
 0
LINE
 8
TOOL_0
 5
5F
 10
1555.489
 20
307.352
 30
0
 11
1537.811
 21
289.674
 31
0
 0
LINE
 8
TOOL_0
 5
60
 10
1537.811
 20
289.674
 30
0
 11
1535.159
 21
288.268
 31
0
 0
ARC
 8
TOOL_0
 5
61
 10
1524.766
 20
289.766
 30
0
 40
10.500402516094
 50
270.0
 51
351.798132306134
210
0
220
0
230
1.0
 0
LINE
 8
TOOL_0
 5
62
 10
1524.766
 20
279.266
 30
0
 11
1486.766
 21
279.266
 31
0
 0
ARC
 8
TOOL_0
 5
63
 10
1486.766
 20
281.766
 30
0
 40
2.5
 50
180.0
 51
270.0
210
0
220
0
230
1.0
 0
LINE
 8
TOOL_0
 5
64
 10
1484.266
 20
281.766
 30
0
 11
1484.065
 21
282.516
 31
0
 0
LINE
 8
TOOL_0
 5
65
 10
1484.065
 20
282.516
 30
0
 11
1483.516
 21
283.065
 31
0
 0
LINE
 8
TOOL_0
 5
66
 10
1483.516
 20
283.065
 30
0
 11
1482.766
 21
283.266
 31
0
 0
LINE
 8
TOOL_0
 5
67
 10
1482.766
 20
283.266
 30
0
 11
1398.972
 21
283.266
 31
0
 0
ARC
 8
TOOL_0
 5
68
 10
1398.972
 20
293.766
 30
0
 40
10.5
 50
235.394234618213
 51
270.0
210
0
220
0
230
1.0
 0
ARC
 8
TOOL_0
 5
69
 10
1435.888
 20
347.266
 30
0
 40
75.499912615843
 50
219.196820086788
 51
235.39368733243
210
0
220
0
230
1.0
 0
ARC
 8
TOOL_0
 5
6A
 10
1339.017
 20
268.266
 30
0
 40
49.499907323146
 50
39.199414631522
 51
90.0
210
0
220
0
230
1.0
 0
LINE
 8
TOOL_0
 5
6B
 10
1339.017
 20
317.766
 30
0
 11
1304.517
 21
317.766
 31
0
 0
ARC
 8
TOOL_0
 5
6C
 10
1304.517
 20
268.266
 30
0
 40
49.5
 50
90.0
 51
140.802213923924
210
0
220
0
230
1.0
 0
ARC
 8
TOOL_0
 5
6D
 10
1207.646
 20
347.266
 30
0
 40
75.49991229134
 50
304.605257055333
 51
320.802112187394
210
0
220
0
230
1.0
 0
ARC
 8
TOOL_0
 5
6E
 10
1244.561
 20
293.766
 30
0
 40
10.500419896366
 50
270.0
 51
304.602666477564
210
0
220
0
230
1.0
 0
LINE
 8
TOOL_0
 5
6F
 10
1244.561
 20
283.266
 30
0
 11
1160.767
 21
283.266
 31
0
 0
LINE
 8
TOOL_0
 5
70
 10
1160.767
 20
283.266
 30
0
 11
1160.017
 21
283.065
 31
0
 0
LINE
 8
TOOL_0
 5
71
 10
1160.017
 20
283.065
 30
0
 11
1159.468
 21
282.516
 31
0
 0
LINE
 8
TOOL_0
 5
72
 10
1159.468
 20
282.516
 30
0
 11
1159.267
 21
281.766
 31
0
 0
ARC
 8
TOOL_0
 5
73
 10
1156.767
 20
281.766
 30
0
 40
2.5
 50
270.0
 51
0
210
0
220
0
230
1.0
 0
LINE
 8
TOOL_0
 5
74
 10
1156.767
 20
279.266
 30
0
 11
1118.767
 21
279.266
 31
0
 0
ARC
 8
TOOL_0
 5
75
 10
1118.767
 20
289.766
 30
0
 40
10.5
 50
180.0
 51
270.0
210
0
220
0
230
1.0
 0
LINE
 8
TOOL_0
 5
76
 10
1108.267
 20
289.766
 30
0
 11
1108.267
 21
351.766
 31
0
 0
ARC
 8
TOOL_0
 5
77
 10
1118.767
 20
351.766
 30
0
 40
10.5
 50
116.743192427854
 51
180.0
210
0
220
0
230
1.0
 0
ARC
 8
TOOL_0
 5
78
 10
1109.767
 20
369.627
 30
0
 40
9.500204260962
 50
296.743063194234
 51
0
210
0
220
0
230
1.0
 0
LINE
 8
TOOL_0
 5
79
 10
1119.267
 20
369.627
 30
0
 11
1119.267
 21
439.767
 31
0
 0
ARC
 8
TOOL_0
 5
7A
 10
1129.767
 20
439.767
 30
0
 40
10.5
 50
90.0
 51
180.0
210
0
220
0
230
1.0
 0
LINE
 8
TOOL_0
 5
7B
 10
1129.767
 20
450.267
 30
0
 11
1195.412
 21
450.267
 31
0
 0
ARC
 8
TOOL_0
 5
7C
 10
1195.412
 20
524.767
 30
0
 40
74.5
 50
270.0
 51
330.789797649342
210
0
220
0
230
1.0
 0
ARC
 8
TOOL_0
 5
7D
 10
1304.517
 20
463.767
 30
0
 40
50.499858316633
 50
90.0
 51
150.791998043302
210
0
220
0
230
1.0
 0
LINE
 8
TOOL_0
 5
7E
 10
1304.517
 20
514.267
 30
0
 11
1339.017
 21
514.267
 31
0
 0
ARC
 8
TOOL_0
 5
7F
 10
1339.017
 20
463.767
 30
0
 40
50.5
 50
29.2089922637
 51
90.0
210
0
220
0
230
1.0
 0
ARC
 8
TOOL_0
 5
80
 10
1448.123
 20
524.767
 30
0
 40
74.500130637469
 50
209.209155762189
 51
269.999230929134
210
0
220
0
230
1.0
 0
LINE
 8
TOOL_0
 5
81
 10
1448.122
 20
450.267
 30
0
 11
1513.767
 21
450.267
 31
0
 0
ARC
 8
TOOL_0
 5
82
 10
1513.767
 20
439.767
 30
0
 40
10.5
 50
0
 51
90.0
210
0
220
0
230
1.0
 0
LINE
 8
TOOL_0
 5
83
 10
1524.267
 20
439.767
 30
0
 11
1524.267
 21
369.628
 31
0
 0
ARC
 8
TOOL_0
 5
84
 10
1533.767
 20
369.628
 30
0
 40
9.5
 50
180.0
 51
243.256936805766
210
0
220
0
230
1.0
 0
ARC
 8
TOOL_0
 5
85
 10
1524.767
 20
351.767
 30
0
 40
10.500178760383
 50
0
 51
63.256807572146
210
0
220
0
230
1.0
 0
LINE
 8
TOOL_0
 5
86
 10
1535.267
 20
351.767
 30
0
 11
1535.267
 21
291.267
 31
0
 0
LINE
 8
TOOL_0
 5
87
 10
1535.267
 20
291.267
 30
0
 11
1537.812
 21
289.675
 31
0
 0
LINE
 8
TOOL_0
 5
88
 10
1537.812
 20
289.675
 30
0
 11
1541.348
 21
286.139
 31
0
 0
LINE
 8
TOOL_0
 5
89
 10
1541.348
 20
286.139
 30
0
 11
2670.11
 21
305.309
 31
0
 0
LINE
 8
TOOL_0
 5
8A
 10
2670.11
 20
305.309
 30
0
 11
1628.473
 21
305.309
 31
0
 0
LINE
 8
TOOL_0
 5
8B
 10
1628.473
 20
305.309
 30
0
 11
1628.473
 21
549.839
 31
0
 0
LINE
 8
TOOL_0
 5
8C
 10
1628.473
 20
549.839
 30
0
 11
1104.093
 21
549.839
 31
0
 0
LINE
 8
TOOL_0
 5
8D
 10
1104.093
 20
549.839
 30
0
 11
1104.093
 21
2498.996
 31
0
 0
LINE
 8
TOOL_0
 5
8E
 10
1104.093
 20
2498.996
 30
0
 11
1104.093
 21
2499.996
 31
0
 0
ENDSEC
 0
EOF

