0
SECTION
2
TABLES
0
TABLE
2
LAYER
70
0
0
LAYER
2
LAYER_NAME
70
0
62
1
6
CONTINUOUS
0
ENDTAB
0
ENDSEC
 0
SECTION
 2
ENTITIES
 0
LINE
 8
TOOL_0
 5
1
 10
770.036
 20
1995.824
 30
0
 11
766.5
 21
1992.289
 31
0
 0
LINE
 8
TOOL_0
 5
2
 10
766.5
 20
1992.289
 30
0
 11
766.5
 21
1910.789
 31
0
 0
LINE
 8
TOOL_0
 5
3
 10
766.5
 20
1910.789
 30
0
 11
15.0
 21
1910.789
 31
0
 0
LINE
 8
TOOL_0
 5
4
 10
15.0
 20
1910.789
 30
0
 11
15.0
 21
1992.289
 31
0
 0
LINE
 8
TOOL_0
 5
5
 10
15.0
 20
1992.289
 30
0
 11
766.5
 21
1992.289
 31
0
 0
LINE
 8
TOOL_0
 5
6
 10
766.5
 20
1992.289
 30
0
 11
770.036
 21
1995.825
 31
0
 0
LINE
 8
TOOL_0
 5
7
 10
770.036
 20
1995.825
 30
0
 11
766.5
 21
2116.816
 31
0
 0
LINE
 8
TOOL_0
 5
8
 10
766.5
 20
2116.816
 30
0
 11
766.5
 21
2086.816
 31
0
 0
LINE
 8
TOOL_0
 5
9
 10
766.5
 20
2086.816
 30
0
 11
766.5
 21
2005.316
 31
0
 0
LINE
 8
TOOL_0
 5
A
 10
766.5
 20
2005.316
 30
0
 11
15.0
 21
2005.316
 31
0
 0
LINE
 8
TOOL_0
 5
B
 10
15.0
 20
2005.316
 30
0
 11
15.0
 21
2086.816
 31
0
 0
LINE
 8
TOOL_0
 5
C
 10
15.0
 20
2086.816
 30
0
 11
766.5
 21
2086.816
 31
0
 0
LINE
 8
TOOL_0
 5
D
 10
766.5
 20
2086.816
 30
0
 11
771.5
 21
2086.816
 31
0
 0
LINE
 8
TOOL_0
 5
E
 10
771.5
 20
2086.816
 30
0
 11
676.635
 21
2126.256
 31
0
 0
LINE
 8
TOOL_0
 5
F
 10
676.635
 20
2126.256
 30
0
 11
646.635
 21
2126.256
 31
0
 0
LINE
 8
TOOL_0
 5
10
 10
646.635
 20
2126.256
 30
0
 11
135.135
 21
2126.256
 31
0
 0
LINE
 8
TOOL_0
 5
11
 10
135.135
 20
2126.256
 30
0
 11
135.135
 21
2386.756
 31
0
 0
LINE
 8
TOOL_0
 5
12
 10
135.135
 20
2386.756
 30
0
 11
646.635
 21
2386.756
 31
0
 0
LINE
 8
TOOL_0
 5
13
 10
646.635
 20
2386.756
 30
0
 11
646.635
 21
2126.256
 31
0
 0
LINE
 8
TOOL_0
 5
14
 10
646.635
 20
2126.256
 30
0
 11
646.635
 21
2121.256
 31
0
 0
LINE
 8
TOOL_0
 5
15
 10
646.635
 20
2121.256
 30
0
 11
1520.036
 21
1726.718
 31
0
 0
LINE
 8
TOOL_0
 5
16
 10
1520.036
 20
1726.718
 30
0
 11
1516.5
 21
1723.183
 31
0
 0
LINE
 8
TOOL_0
 5
17
 10
1516.5
 20
1723.183
 30
0
 11
1516.5
 21
1561.683
 31
0
 0
LINE
 8
TOOL_0
 5
18
 10
1516.5
 20
1561.683
 30
0
 11
15.0
 21
1561.683
 31
0
 0
LINE
 8
TOOL_0
 5
19
 10
15.0
 20
1561.683
 30
0
 11
15.0
 21
1723.183
 31
0
 0
LINE
 8
TOOL_0
 5
1A
 10
15.0
 20
1723.183
 30
0
 11
1516.5
 21
1723.183
 31
0
 0
LINE
 8
TOOL_0
 5
1B
 10
1516.5
 20
1723.183
 30
0
 11
1520.036
 21
1726.719
 31
0
 0
LINE
 8
TOOL_0
 5
1C
 10
1520.036
 20
1726.719
 30
0
 11
1516.5
 21
1927.746
 31
0
 0
LINE
 8
TOOL_0
 5
1D
 10
1516.5
 20
1927.746
 30
0
 11
1516.5
 21
1897.746
 31
0
 0
LINE
 8
TOOL_0
 5
1E
 10
1516.5
 20
1897.746
 30
0
 11
1516.5
 21
1736.246
 31
0
 0
LINE
 8
TOOL_0
 5
1F
 10
1516.5
 20
1736.246
 30
0
 11
15.0
 21
1736.246
 31
0
 0
LINE
 8
TOOL_0
 5
20
 10
15.0
 20
1736.246
 30
0
 11
15.0
 21
1897.746
 31
0
 0
LINE
 8
TOOL_0
 5
21
 10
15.0
 20
1897.746
 30
0
 11
1516.5
 21
1897.746
 31
0
 0
LINE
 8
TOOL_0
 5
22
 10
1516.5
 20
1897.746
 30
0
 11
1521.5
 21
1897.746
 31
0
 0
LINE
 8
TOOL_0
 5
23
 10
1521.5
 20
1897.746
 30
0
 11
1440.107
 21
1916.061
 31
0
 0
LINE
 8
TOOL_0
 5
24
 10
1440.107
 20
1916.061
 30
0
 11
1410.107
 21
1916.061
 31
0
 0
LINE
 8
TOOL_0
 5
25
 10
1410.107
 20
1916.061
 30
0
 11
898.607
 21
1916.061
 31
0
 0
LINE
 8
TOOL_0
 5
26
 10
898.607
 20
1916.061
 30
0
 11
898.607
 21
2417.561
 31
0
 0
LINE
 8
TOOL_0
 5
27
 10
898.607
 20
2417.561
 30
0
 11
1410.107
 21
2417.561
 31
0
 0
LINE
 8
TOOL_0
 5
28
 10
1410.107
 20
2417.561
 30
0
 11
1410.107
 21
1916.061
 31
0
 0
LINE
 8
TOOL_0
 5
29
 10
1410.107
 20
1916.061
 30
0
 11
1410.107
 21
1911.061
 31
0
 0
LINE
 8
TOOL_0
 5
2A
 10
1410.107
 20
1911.061
 30
0
 11
2565.454
 21
1561.623
 31
0
 0
LINE
 8
TOOL_0
 5
2B
 10
2565.454
 20
1561.623
 30
0
 11
2535.454
 21
1561.623
 31
0
 0
LINE
 8
TOOL_0
 5
2C
 10
2535.454
 20
1561.623
 30
0
 11
1573.954
 21
1561.623
 31
0
 0
LINE
 8
TOOL_0
 5
2D
 10
1573.954
 20
1561.623
 30
0
 11
1573.954
 21
2213.123
 31
0
 0
LINE
 8
TOOL_0
 5
2E
 10
1573.954
 20
2213.123
 30
0
 11
2535.454
 21
2213.123
 31
0
 0
LINE
 8
TOOL_0
 5
2F
 10
2535.454
 20
2213.123
 30
0
 11
2535.454
 21
1561.623
 31
0
 0
LINE
 8
TOOL_0
 5
30
 10
2535.454
 20
1561.623
 30
0
 11
2535.454
 21
1556.623
 31
0
 0
LINE
 8
TOOL_0
 5
31
 10
2535.454
 20
1556.623
 30
0
 11
3590.984
 21
1561.623
 31
0
 0
LINE
 8
TOOL_0
 5
32
 10
3590.984
 20
1561.623
 30
0
 11
3560.984
 21
1561.623
 31
0
 0
LINE
 8
TOOL_0
 5
33
 10
3560.984
 20
1561.623
 30
0
 11
2599.484
 21
1561.623
 31
0
 0
LINE
 8
TOOL_0
 5
34
 10
2599.484
 20
1561.623
 30
0
 11
2599.484
 21
2213.123
 31
0
 0
LINE
 8
TOOL_0
 5
35
 10
2599.484
 20
2213.123
 30
0
 11
3560.984
 21
2213.123
 31
0
 0
LINE
 8
TOOL_0
 5
36
 10
3560.984
 20
2213.123
 30
0
 11
3560.984
 21
1561.623
 31
0
 0
LINE
 8
TOOL_0
 5
37
 10
3560.984
 20
1561.623
 30
0
 11
3560.984
 21
1556.623
 31
0
 0
LINE
 8
TOOL_0
 5
38
 10
3560.984
 20
1556.623
 30
0
 11
6654.536
 21
778.539
 31
0
 0
LINE
 8
TOOL_0
 5
39
 10
6654.536
 20
778.539
 30
0
 11
6651.0
 21
775.003
 31
0
 0
LINE
 8
TOOL_0
 5
3A
 10
6651.0
 20
775.003
 30
0
 11
6651.0
 21
15.003
 31
0
 0
LINE
 8
TOOL_0
 5
3B
 10
6651.0
 20
15.003
 30
0
 11
15.0
 21
15.003
 31
0
 0
LINE
 8
TOOL_0
 5
3C
 10
15.0
 20
15.003
 30
0
 11
15.0
 21
775.003
 31
0
 0
LINE
 8
TOOL_0
 5
3D
 10
15.0
 20
775.003
 30
0
 11
6651.0
 21
775.003
 31
0
 0
LINE
 8
TOOL_0
 5
3E
 10
6651.0
 20
775.003
 30
0
 11
6654.536
 21
778.539
 31
0
 0
LINE
 8
TOOL_0
 5
3F
 10
6654.536
 20
778.539
 30
0
 11
4181.041
 21
1562.107
 31
0
 0
LINE
 8
TOOL_0
 5
40
 10
4181.041
 20
1562.107
 30
0
 11
4151.041
 21
1562.107
 31
0
 0
LINE
 8
TOOL_0
 5
41
 10
4151.041
 20
1562.107
 30
0
 11
3639.541
 21
1562.107
 31
0
 0
LINE
 8
TOOL_0
 5
42
 10
3639.541
 20
1562.107
 30
0
 11
3639.541
 21
2063.607
 31
0
 0
LINE
 8
TOOL_0
 5
43
 10
3639.541
 20
2063.607
 30
0
 11
4151.041
 21
2063.607
 31
0
 0
LINE
 8
TOOL_0
 5
44
 10
4151.041
 20
2063.607
 30
0
 11
4151.041
 21
1562.107
 31
0
 0
LINE
 8
TOOL_0
 5
45
 10
4151.041
 20
1562.107
 30
0
 11
4151.041
 21
1557.107
 31
0
 0
LINE
 8
TOOL_0
 5
46
 10
4151.041
 20
1557.107
 30
0
 11
4177.603
 21
2105.558
 31
0
 0
LINE
 8
TOOL_0
 5
47
 10
4177.603
 20
2105.558
 30
0
 11
4147.603
 21
2105.558
 31
0
 0
LINE
 8
TOOL_0
 5
48
 10
4147.603
 20
2105.558
 30
0
 11
3636.103
 21
2105.558
 31
0
 0
LINE
 8
TOOL_0
 5
49
 10
3636.103
 20
2105.558
 30
0
 11
3636.103
 21
2366.058
 31
0
 0
LINE
 8
TOOL_0
 5
4A
 10
3636.103
 20
2366.058
 30
0
 11
4147.603
 21
2366.058
 31
0
 0
LINE
 8
TOOL_0
 5
4B
 10
4147.603
 20
2366.058
 30
0
 11
4147.603
 21
2105.558
 31
0
 0
LINE
 8
TOOL_0
 5
4C
 10
4147.603
 20
2105.558
 30
0
 11
4147.603
 21
2100.558
 31
0
 0
LINE
 8
TOOL_0
 5
4D
 10
4147.603
 20
2100.558
 30
0
 11
4534.035
 21
1592.002
 31
0
 0
LINE
 8
TOOL_0
 5
4E
 10
4534.035
 20
1592.002
 30
0
 11
4534.035
 21
1563.741
 31
0
 0
LINE
 8
TOOL_0
 5
4F
 10
4534.035
 20
1563.741
 30
0
 11
4514.073
 21
1563.781
 31
0
 0
LINE
 8
TOOL_0
 5
50
 10
4514.073
 20
1563.781
 30
0
 11
4232.573
 21
1563.781
 31
0
 0
LINE
 8
TOOL_0
 5
51
 10
4232.573
 20
1563.781
 30
0
 11
4232.573
 21
1845.281
 31
0
 0
LINE
 8
TOOL_0
 5
52
 10
4232.573
 20
1845.281
 30
0
 11
4514.073
 21
1845.281
 31
0
 0
LINE
 8
TOOL_0
 5
53
 10
4514.073
 20
1845.281
 30
0
 11
4514.073
 21
1563.781
 31
0
 0
LINE
 8
TOOL_0
 5
54
 10
4514.073
 20
1563.781
 30
0
 11
4514.073
 21
1558.908
 31
0
 0
LINE
 8
TOOL_0
 5
55
 10
4514.073
 20
1558.908
 30
0
 11
4534.036
 21
1895.588
 31
0
 0
LINE
 8
TOOL_0
 5
56
 10
4534.036
 20
1895.588
 30
0
 11
4534.036
 21
1867.327
 31
0
 0
LINE
 8
TOOL_0
 5
57
 10
4534.036
 20
1867.327
 30
0
 11
4514.074
 21
1867.367
 31
0
 0
LINE
 8
TOOL_0
 5
58
 10
4514.074
 20
1867.367
 30
0
 11
4232.574
 21
1867.367
 31
0
 0
LINE
 8
TOOL_0
 5
59
 10
4232.574
 20
1867.367
 30
0
 11
4232.574
 21
2148.867
 31
0
 0
LINE
 8
TOOL_0
 5
5A
 10
4232.574
 20
2148.867
 30
0
 11
4514.074
 21
2148.867
 31
0
 0
LINE
 8
TOOL_0
 5
5B
 10
4514.074
 20
2148.867
 30
0
 11
4514.074
 21
1867.367
 31
0
 0
LINE
 8
TOOL_0
 5
5C
 10
4514.074
 20
1867.367
 30
0
 11
4514.074
 21
1862.494
 31
0
 0
LINE
 8
TOOL_0
 5
5D
 10
4514.074
 20
1862.494
 30
0
 11
4864.187
 21
1592.0
 31
0
 0
LINE
 8
TOOL_0
 5
5E
 10
4864.187
 20
1592.0
 30
0
 11
4864.187
 21
1563.739
 31
0
 0
LINE
 8
TOOL_0
 5
5F
 10
4864.187
 20
1563.739
 30
0
 11
4844.225
 21
1563.779
 31
0
 0
LINE
 8
TOOL_0
 5
60
 10
4844.225
 20
1563.779
 30
0
 11
4562.725
 21
1563.779
 31
0
 0
LINE
 8
TOOL_0
 5
61
 10
4562.725
 20
1563.779
 30
0
 11
4562.725
 21
1845.279
 31
0
 0
LINE
 8
TOOL_0
 5
62
 10
4562.725
 20
1845.279
 30
0
 11
4844.225
 21
1845.279
 31
0
 0
LINE
 8
TOOL_0
 5
63
 10
4844.225
 20
1845.279
 30
0
 11
4844.225
 21
1563.779
 31
0
 0
LINE
 8
TOOL_0
 5
64
 10
4844.225
 20
1563.779
 30
0
 11
4844.225
 21
1558.906
 31
0
 0
LINE
 8
TOOL_0
 5
65
 10
4844.225
 20
1558.906
 30
0
 11
4871.065
 21
1895.586
 31
0
 0
LINE
 8
TOOL_0
 5
66
 10
4871.065
 20
1895.586
 30
0
 11
4871.065
 21
1867.325
 31
0
 0
LINE
 8
TOOL_0
 5
67
 10
4871.065
 20
1867.325
 30
0
 11
4851.103
 21
1867.365
 31
0
 0
LINE
 8
TOOL_0
 5
68
 10
4851.103
 20
1867.365
 30
0
 11
4569.603
 21
1867.365
 31
0
 0
LINE
 8
TOOL_0
 5
69
 10
4569.603
 20
1867.365
 30
0
 11
4569.603
 21
2148.865
 31
0
 0
LINE
 8
TOOL_0
 5
6A
 10
4569.603
 20
2148.865
 30
0
 11
4851.103
 21
2148.865
 31
0
 0
LINE
 8
TOOL_0
 5
6B
 10
4851.103
 20
2148.865
 30
0
 11
4851.103
 21
1867.365
 31
0
 0
LINE
 8
TOOL_0
 5
6C
 10
4851.103
 20
1867.365
 30
0
 11
4851.103
 21
1862.492
 31
0
 0
LINE
 8
TOOL_0
 5
6D
 10
4851.103
 20
1862.492
 30
0
 11
5201.215
 21
1590.618
 31
0
 0
LINE
 8
TOOL_0
 5
6E
 10
5201.215
 20
1590.618
 30
0
 11
5201.215
 21
1562.357
 31
0
 0
LINE
 8
TOOL_0
 5
6F
 10
5201.215
 20
1562.357
 30
0
 11
5181.253
 21
1562.397
 31
0
 0
LINE
 8
TOOL_0
 5
70
 10
5181.253
 20
1562.397
 30
0
 11
4899.753
 21
1562.397
 31
0
 0
LINE
 8
TOOL_0
 5
71
 10
4899.753
 20
1562.397
 30
0
 11
4899.753
 21
1843.897
 31
0
 0
LINE
 8
TOOL_0
 5
72
 10
4899.753
 20
1843.897
 30
0
 11
5181.253
 21
1843.897
 31
0
 0
LINE
 8
TOOL_0
 5
73
 10
5181.253
 20
1843.897
 30
0
 11
5181.253
 21
1562.397
 31
0
 0
LINE
 8
TOOL_0
 5
74
 10
5181.253
 20
1562.397
 30
0
 11
5181.253
 21
1557.524
 31
0
 0
LINE
 8
TOOL_0
 5
75
 10
5181.253
 20
1557.524
 30
0
 11
5194.337
 21
1894.204
 31
0
 0
LINE
 8
TOOL_0
 5
76
 10
5194.337
 20
1894.204
 30
0
 11
5194.337
 21
1865.943
 31
0
 0
LINE
 8
TOOL_0
 5
77
 10
5194.337
 20
1865.943
 30
0
 11
5174.375
 21
1865.983
 31
0
 0
LINE
 8
TOOL_0
 5
78
 10
5174.375
 20
1865.983
 30
0
 11
4892.875
 21
1865.983
 31
0
 0
LINE
 8
TOOL_0
 5
79
 10
4892.875
 20
1865.983
 30
0
 11
4892.875
 21
2147.483
 31
0
 0
LINE
 8
TOOL_0
 5
7A
 10
4892.875
 20
2147.483
 30
0
 11
5174.375
 21
2147.483
 31
0
 0
LINE
 8
TOOL_0
 5
7B
 10
5174.375
 20
2147.483
 30
0
 11
5174.375
 21
1865.983
 31
0
 0
LINE
 8
TOOL_0
 5
7C
 10
5174.375
 20
1865.983
 30
0
 11
5174.375
 21
1861.11
 31
0
 0
LINE
 8
TOOL_0
 5
7D
 10
5174.375
 20
1861.11
 30
0
 11
5538.932
 21
1590.616
 31
0
 0
LINE
 8
TOOL_0
 5
7E
 10
5538.932
 20
1590.616
 30
0
 11
5538.932
 21
1562.355
 31
0
 0
LINE
 8
TOOL_0
 5
7F
 10
5538.932
 20
1562.355
 30
0
 11
5518.97
 21
1562.395
 31
0
 0
LINE
 8
TOOL_0
 5
80
 10
5518.97
 20
1562.395
 30
0
 11
5237.47
 21
1562.395
 31
0
 0
LINE
 8
TOOL_0
 5
81
 10
5237.47
 20
1562.395
 30
0
 11
5237.47
 21
1843.895
 31
0
 0
LINE
 8
TOOL_0
 5
82
 10
5237.47
 20
1843.895
 30
0
 11
5518.97
 21
1843.895
 31
0
 0
LINE
 8
TOOL_0
 5
83
 10
5518.97
 20
1843.895
 30
0
 11
5518.97
 21
1562.395
 31
0
 0
LINE
 8
TOOL_0
 5
84
 10
5518.97
 20
1562.395
 30
0
 11
5518.97
 21
1557.522
 31
0
 0
LINE
 8
TOOL_0
 5
85
 10
5518.97
 20
1557.522
 30
0
 11
5545.122
 21
1888.683
 31
0
 0
LINE
 8
TOOL_0
 5
86
 10
5545.122
 20
1888.683
 30
0
 11
5545.122
 21
1860.421
 31
0
 0
LINE
 8
TOOL_0
 5
87
 10
5545.122
 20
1860.421
 30
0
 11
5525.16
 21
1860.461
 31
0
 0
LINE
 8
TOOL_0
 5
88
 10
5525.16
 20
1860.461
 30
0
 11
5243.66
 21
1860.461
 31
0
 0
LINE
 8
TOOL_0
 5
89
 10
5243.66
 20
1860.461
 30
0
 11
5243.66
 21
2141.961
 31
0
 0
LINE
 8
TOOL_0
 5
8A
 10
5243.66
 20
2141.961
 30
0
 11
5525.16
 21
2141.961
 31
0
 0
LINE
 8
TOOL_0
 5
8B
 10
5525.16
 20
2141.961
 30
0
 11
5525.16
 21
1860.461
 31
0
 0
LINE
 8
TOOL_0
 5
8C
 10
5525.16
 20
1860.461
 30
0
 11
5525.16
 21
1855.588
 31
0
 0
LINE
 8
TOOL_0
 5
8D
 10
5525.16
 20
1855.588
 30
0
 11
5910.351
 21
1590.614
 31
0
 0
LINE
 8
TOOL_0
 5
8E
 10
5910.351
 20
1590.614
 30
0
 11
5910.351
 21
1562.353
 31
0
 0
LINE
 8
TOOL_0
 5
8F
 10
5910.351
 20
1562.353
 30
0
 11
5890.389
 21
1562.393
 31
0
 0
LINE
 8
TOOL_0
 5
90
 10
5890.389
 20
1562.393
 30
0
 11
5608.889
 21
1562.393
 31
0
 0
LINE
 8
TOOL_0
 5
91
 10
5608.889
 20
1562.393
 30
0
 11
5608.889
 21
1843.893
 31
0
 0
LINE
 8
TOOL_0
 5
92
 10
5608.889
 20
1843.893
 30
0
 11
5890.389
 21
1843.893
 31
0
 0
LINE
 8
TOOL_0
 5
93
 10
5890.389
 20
1843.893
 30
0
 11
5890.389
 21
1562.393
 31
0
 0
LINE
 8
TOOL_0
 5
94
 10
5890.389
 20
1562.393
 30
0
 11
5890.389
 21
1557.52
 31
0
 0
LINE
 8
TOOL_0
 5
95
 10
5890.389
 20
1557.52
 30
0
 11
5917.23
 21
1885.231
 31
0
 0
LINE
 8
TOOL_0
 5
96
 10
5917.23
 20
1885.231
 30
0
 11
5917.23
 21
1856.969
 31
0
 0
LINE
 8
TOOL_0
 5
97
 10
5917.23
 20
1856.969
 30
0
 11
5897.268
 21
1857.009
 31
0
 0
LINE
 8
TOOL_0
 5
98
 10
5897.268
 20
1857.009
 30
0
 11
5615.768
 21
1857.009
 31
0
 0
LINE
 8
TOOL_0
 5
99
 10
5615.768
 20
1857.009
 30
0
 11
5615.768
 21
2138.509
 31
0
 0
LINE
 8
TOOL_0
 5
9A
 10
5615.768
 20
2138.509
 30
0
 11
5897.268
 21
2138.509
 31
0
 0
LINE
 8
TOOL_0
 5
9B
 10
5897.268
 20
2138.509
 30
0
 11
5897.268
 21
1857.009
 31
0
 0
LINE
 8
TOOL_0
 5
9C
 10
5897.268
 20
1857.009
 30
0
 11
5897.268
 21
1852.136
 31
0
 0
LINE
 8
TOOL_0
 5
9D
 10
5897.268
 20
1852.136
 30
0
 11
5909.664
 21
2181.713
 31
0
 0
LINE
 8
TOOL_0
 5
9E
 10
5909.664
 20
2181.713
 30
0
 11
5909.664
 21
2153.452
 31
0
 0
LINE
 8
TOOL_0
 5
9F
 10
5909.664
 20
2153.452
 30
0
 11
5889.702
 21
2153.492
 31
0
 0
LINE
 8
TOOL_0
 5
A0
 10
5889.702
 20
2153.492
 30
0
 11
5608.202
 21
2153.492
 31
0
 0
LINE
 8
TOOL_0
 5
A1
 10
5608.202
 20
2153.492
 30
0
 11
5608.202
 21
2434.992
 31
0
 0
LINE
 8
TOOL_0
 5
A2
 10
5608.202
 20
2434.992
 30
0
 11
5889.702
 21
2434.992
 31
0
 0
LINE
 8
TOOL_0
 5
A3
 10
5889.702
 20
2434.992
 30
0
 11
5889.702
 21
2153.492
 31
0
 0
LINE
 8
TOOL_0
 5
A4
 10
5889.702
 20
2153.492
 30
0
 11
5889.702
 21
2148.619
 31
0
 0
LINE
 8
TOOL_0
 5
A5
 10
5889.702
 20
2148.619
 30
0
 11
6261.828
 21
1589.922
 31
0
 0
LINE
 8
TOOL_0
 5
A6
 10
6261.828
 20
1589.922
 30
0
 11
6261.828
 21
1561.661
 31
0
 0
LINE
 8
TOOL_0
 5
A7
 10
6261.828
 20
1561.661
 30
0
 11
6241.866
 21
1561.701
 31
0
 0
LINE
 8
TOOL_0
 5
A8
 10
6241.866
 20
1561.701
 30
0
 11
5960.366
 21
1561.701
 31
0
 0
LINE
 8
TOOL_0
 5
A9
 10
5960.366
 20
1561.701
 30
0
 11
5960.366
 21
1843.201
 31
0
 0
LINE
 8
TOOL_0
 5
AA
 10
5960.366
 20
1843.201
 30
0
 11
6241.866
 21
1843.201
 31
0
 0
LINE
 8
TOOL_0
 5
AB
 10
6241.866
 20
1843.201
 30
0
 11
6241.866
 21
1561.701
 31
0
 0
LINE
 8
TOOL_0
 5
AC
 10
6241.866
 20
1561.701
 30
0
 11
6241.866
 21
1556.828
 31
0
 0
LINE
 8
TOOL_0
 5
AD
 10
6241.866
 20
1556.828
 30
0
 11
6260.45
 21
1886.609
 31
0
 0
LINE
 8
TOOL_0
 5
AE
 10
6260.45
 20
1886.609
 30
0
 11
6260.45
 21
1858.347
 31
0
 0
LINE
 8
TOOL_0
 5
AF
 10
6260.45
 20
1858.347
 30
0
 11
6240.488
 21
1858.387
 31
0
 0
LINE
 8
TOOL_0
 5
B0
 10
6240.488
 20
1858.387
 30
0
 11
5958.988
 21
1858.387
 31
0
 0
LINE
 8
TOOL_0
 5
B1
 10
5958.988
 20
1858.387
 30
0
 11
5958.988
 21
2139.887
 31
0
 0
LINE
 8
TOOL_0
 5
B2
 10
5958.988
 20
2139.887
 30
0
 11
6240.488
 21
2139.887
 31
0
 0
LINE
 8
TOOL_0
 5
B3
 10
6240.488
 20
2139.887
 30
0
 11
6240.488
 21
1858.387
 31
0
 0
LINE
 8
TOOL_0
 5
B4
 10
6240.488
 20
1858.387
 30
0
 11
6240.488
 21
1853.514
 31
0
 0
LINE
 8
TOOL_0
 5
B5
 10
6240.488
 20
1853.514
 30
0
 11
6253.572
 21
2181.711
 31
0
 0
LINE
 8
TOOL_0
 5
B6
 10
6253.572
 20
2181.711
 30
0
 11
6253.572
 21
2153.45
 31
0
 0
LINE
 8
TOOL_0
 5
B7
 10
6253.572
 20
2153.45
 30
0
 11
6233.61
 21
2153.49
 31
0
 0
LINE
 8
TOOL_0
 5
B8
 10
6233.61
 20
2153.49
 30
0
 11
5952.11
 21
2153.49
 31
0
 0
LINE
 8
TOOL_0
 5
B9
 10
5952.11
 20
2153.49
 30
0
 11
5952.11
 21
2434.99
 31
0
 0
LINE
 8
TOOL_0
 5
BA
 10
5952.11
 20
2434.99
 30
0
 11
6233.61
 21
2434.99
 31
0
 0
LINE
 8
TOOL_0
 5
BB
 10
6233.61
 20
2434.99
 30
0
 11
6233.61
 21
2153.49
 31
0
 0
LINE
 8
TOOL_0
 5
BC
 10
6233.61
 20
2153.49
 30
0
 11
6233.61
 21
2148.617
 31
0
 0
LINE
 8
TOOL_0
 5
BD
 10
6233.61
 20
2148.617
 30
0
 11
6651.005
 21
1578.412
 31
0
 0
LINE
 8
TOOL_0
 5
BE
 10
6651.005
 20
1578.412
 30
0
 11
6651.005
 21
1548.412
 31
0
 0
LINE
 8
TOOL_0
 5
BF
 10
6651.005
 20
1548.412
 30
0
 11
6651.005
 21
788.412
 31
0
 0
LINE
 8
TOOL_0
 5
C0
 10
6651.005
 20
788.412
 30
0
 11
15.005
 21
788.412
 31
0
 0
LINE
 8
TOOL_0
 5
C1
 10
15.005
 20
788.412
 30
0
 11
15.005
 21
1548.412
 31
0
 0
LINE
 8
TOOL_0
 5
C2
 10
15.005
 20
1548.412
 30
0
 11
6651.005
 21
1548.412
 31
0
 0
LINE
 8
TOOL_0
 5
C3
 10
6651.005
 20
1548.412
 30
0
 11
6656.005
 21
1548.412
 31
0
 0
LINE
 8
TOOL_0
 5
C4
 10
6656.005
 20
1548.412
 30
0
 11
6631.869
 21
1589.92
 31
0
 0
LINE
 8
TOOL_0
 5
C5
 10
6631.869
 20
1589.92
 30
0
 11
6631.869
 21
1561.659
 31
0
 0
LINE
 8
TOOL_0
 5
C6
 10
6631.869
 20
1561.659
 30
0
 11
6611.907
 21
1561.699
 31
0
 0
LINE
 8
TOOL_0
 5
C7
 10
6611.907
 20
1561.699
 30
0
 11
6330.407
 21
1561.699
 31
0
 0
LINE
 8
TOOL_0
 5
C8
 10
6330.407
 20
1561.699
 30
0
 11
6330.407
 21
1843.199
 31
0
 0
LINE
 8
TOOL_0
 5
C9
 10
6330.407
 20
1843.199
 30
0
 11
6611.907
 21
1843.199
 31
0
 0
LINE
 8
TOOL_0
 5
CA
 10
6611.907
 20
1843.199
 30
0
 11
6611.907
 21
1561.699
 31
0
 0
LINE
 8
TOOL_0
 5
CB
 10
6611.907
 20
1561.699
 30
0
 11
6611.907
 21
1556.826
 31
0
 0
LINE
 8
TOOL_0
 5
CC
 10
6611.907
 20
1556.826
 30
0
 11
6631.869
 21
1894.196
 31
0
 0
LINE
 8
TOOL_0
 5
CD
 10
6631.869
 20
1894.196
 30
0
 11
6631.869
 21
1865.935
 31
0
 0
LINE
 8
TOOL_0
 5
CE
 10
6631.869
 20
1865.935
 30
0
 11
6611.907
 21
1865.975
 31
0
 0
LINE
 8
TOOL_0
 5
CF
 10
6611.907
 20
1865.975
 30
0
 11
6330.407
 21
1865.975
 31
0
 0
LINE
 8
TOOL_0
 5
D0
 10
6330.407
 20
1865.975
 30
0
 11
6330.407
 21
2147.475
 31
0
 0
LINE
 8
TOOL_0
 5
D1
 10
6330.407
 20
2147.475
 30
0
 11
6611.907
 21
2147.475
 31
0
 0
LINE
 8
TOOL_0
 5
D2
 10
6611.907
 20
2147.475
 30
0
 11
6611.907
 21
1865.975
 31
0
 0
LINE
 8
TOOL_0
 5
D3
 10
6611.907
 20
1865.975
 30
0
 11
6611.907
 21
1861.102
 31
0
 0
LINE
 8
TOOL_0
 5
D4
 10
6611.907
 20
1861.102
 30
0
 11
6708.135
 21
-0.012
 31
0
 0
LINE
 8
TOOL_0
 5
D5
 10
6708.135
 20
-0.012
 30
0
 11
6708.135
 21
0.988
 31
0
 0
LINE
 8
TOOL_0
 5
D6
 10
6708.135
 20
0.988
 30
0
 11
6708.135
 21
-0.012
 31
0
 0
LINE
 8
TOOL_0
 5
D7
 10
6708.135
 20
-0.012
 30
0
 11
6708.135
 21
0.988
 31
0
 0
LINE
 8
TOOL_0
 5
D8
 10
6708.135
 20
0.988
 30
0
 11
6708.135
 21
2448.988
 31
0
 0
LINE
 8
TOOL_0
 5
D9
 10
6708.135
 20
2448.988
 30
0
 11
6708.135
 21
2449.988
 31
0
 0
ENDSEC
 0
EOF

