0
SECTION
2
TABLES
0
TABLE
2
LAYER
70
0
0
LAYER
2
LAYER_NAME
70
0
62
1
6
CONTINUOUS
0
ENDTAB
0
ENDSEC
 0
SECTION
 2
ENTITIES
 0
LINE
 8
TOOL_0
 5
1
 10
326.75
 20
290.841
 30
0
 11
356.75
 21
290.841
 31
0
 0
LINE
 8
TOOL_0
 5
2
 10
356.75
 20
290.841
 30
0
 11
356.75
 21
323.341
 31
0
 0
ARC
 8
TOOL_0
 5
3
 10
348.75
 20
323.341
 30
0
 40
8.0
 50
0
 51
180.0
210
0
220
0
230
1.0
 0
LINE
 8
TOOL_0
 5
4
 10
340.75
 20
323.341
 30
0
 11
340.75
 21
310.341
 31
0
 0
LINE
 8
TOOL_0
 5
5
 10
340.75
 20
310.341
 30
0
 11
286.75
 21
310.341
 31
0
 0
LINE
 8
TOOL_0
 5
6
 10
286.75
 20
310.341
 30
0
 11
286.75
 21
323.341
 31
0
 0
ARC
 8
TOOL_0
 5
7
 10
278.75
 20
323.341
 30
0
 40
8.0
 50
0
 51
180.0
210
0
220
0
230
1.0
 0
LINE
 8
TOOL_0
 5
8
 10
270.75
 20
323.341
 30
0
 11
270.75
 21
258.341
 31
0
 0
ARC
 8
TOOL_0
 5
9
 10
285.75
 20
258.341
 30
0
 40
15.0
 50
180.0
 51
270.0
210
0
220
0
230
1.0
 0
LINE
 8
TOOL_0
 5
A
 10
285.75
 20
243.341
 30
0
 11
341.75
 21
243.341
 31
0
 0
ARC
 8
TOOL_0
 5
B
 10
341.75
 20
258.341
 30
0
 40
15.0
 50
270.0
 51
0
210
0
220
0
230
1.0
 0
LINE
 8
TOOL_0
 5
C
 10
356.75
 20
258.341
 30
0
 11
356.75
 21
290.841
 31
0
 0
LINE
 8
TOOL_0
 5
D
 10
356.75
 20
290.841
 30
0
 11
349.679
 21
297.912
 31
0
 0
LINE
 8
TOOL_0
 5
E
 10
349.679
 20
297.912
 30
0
 11
768.75
 21
238.251
 31
0
 0
LINE
 8
TOOL_0
 5
F
 10
768.75
 20
238.251
 30
0
 11
798.75
 21
238.251
 31
0
 0
ARC
 8
TOOL_0
 5
10
 10
763.75
 20
238.251
 30
0
 40
35.0
 50
0
 51
180.0
210
0
220
0
230
1.0
 0
ARC
 8
TOOL_0
 5
11
 10
763.75
 20
238.251
 30
0
 40
35.0
 50
180.0
 51
0
210
0
220
0
230
1.0
 0
LINE
 8
TOOL_0
 5
12
 10
798.75
 20
238.251
 30
0
 11
791.679
 21
245.322
 31
0
 0
LINE
 8
TOOL_0
 5
13
 10
791.679
 20
245.322
 30
0
 11
1073.75
 21
838.251
 31
0
 0
LINE
 8
TOOL_0
 5
14
 10
1073.75
 20
838.251
 30
0
 11
1103.75
 21
838.251
 31
0
 0
ARC
 8
TOOL_0
 5
15
 10
1068.75
 20
838.251
 30
0
 40
35.0
 50
0
 51
180.0
210
0
220
0
230
1.0
 0
ARC
 8
TOOL_0
 5
16
 10
1068.75
 20
838.251
 30
0
 40
35.0
 50
180.0
 51
0
210
0
220
0
230
1.0
 0
LINE
 8
TOOL_0
 5
17
 10
1103.75
 20
838.251
 30
0
 11
1096.679
 21
845.322
 31
0
 0
LINE
 8
TOOL_0
 5
18
 10
1096.679
 20
845.322
 30
0
 11
1623.75
 21
238.251
 31
0
 0
LINE
 8
TOOL_0
 5
19
 10
1623.75
 20
238.251
 30
0
 11
1653.75
 21
238.251
 31
0
 0
ARC
 8
TOOL_0
 5
1A
 10
1618.75
 20
238.251
 30
0
 40
35.0
 50
0
 51
180.0
210
0
220
0
230
1.0
 0
ARC
 8
TOOL_0
 5
1B
 10
1618.75
 20
238.251
 30
0
 40
35.0
 50
180.0
 51
0
210
0
220
0
230
1.0
 0
LINE
 8
TOOL_0
 5
1C
 10
1653.75
 20
238.251
 30
0
 11
1646.679
 21
245.322
 31
0
 0
LINE
 8
TOOL_0
 5
1D
 10
1646.679
 20
245.322
 30
0
 11
2173.75
 21
838.251
 31
0
 0
LINE
 8
TOOL_0
 5
1E
 10
2173.75
 20
838.251
 30
0
 11
2203.75
 21
838.251
 31
0
 0
ARC
 8
TOOL_0
 5
1F
 10
2168.75
 20
838.251
 30
0
 40
35.0
 50
0
 51
180.0
210
0
220
0
230
1.0
 0
ARC
 8
TOOL_0
 5
20
 10
2168.75
 20
838.251
 30
0
 40
35.0
 50
180.0
 51
0
210
0
220
0
230
1.0
 0
LINE
 8
TOOL_0
 5
21
 10
2203.75
 20
838.251
 30
0
 11
2196.679
 21
845.322
 31
0
 0
LINE
 8
TOOL_0
 5
22
 10
2196.679
 20
845.322
 30
0
 11
2478.75
 21
238.251
 31
0
 0
LINE
 8
TOOL_0
 5
23
 10
2478.75
 20
238.251
 30
0
 11
2508.75
 21
238.251
 31
0
 0
ARC
 8
TOOL_0
 5
24
 10
2473.75
 20
238.251
 30
0
 40
35.0
 50
0
 51
180.0
210
0
220
0
230
1.0
 0
ARC
 8
TOOL_0
 5
25
 10
2473.75
 20
238.251
 30
0
 40
35.0
 50
180.0
 51
0
210
0
220
0
230
1.0
 0
LINE
 8
TOOL_0
 5
26
 10
2508.75
 20
238.251
 30
0
 11
2501.679
 21
245.322
 31
0
 0
LINE
 8
TOOL_0
 5
27
 10
2501.679
 20
245.322
 30
0
 11
2936.75
 21
290.841
 31
0
 0
LINE
 8
TOOL_0
 5
28
 10
2936.75
 20
290.841
 30
0
 11
2966.75
 21
290.841
 31
0
 0
LINE
 8
TOOL_0
 5
29
 10
2966.75
 20
290.841
 30
0
 11
2966.75
 21
323.341
 31
0
 0
ARC
 8
TOOL_0
 5
2A
 10
2958.75
 20
323.341
 30
0
 40
8.0
 50
0
 51
180.0
210
0
220
0
230
1.0
 0
LINE
 8
TOOL_0
 5
2B
 10
2950.75
 20
323.341
 30
0
 11
2950.75
 21
310.341
 31
0
 0
LINE
 8
TOOL_0
 5
2C
 10
2950.75
 20
310.341
 30
0
 11
2896.75
 21
310.341
 31
0
 0
LINE
 8
TOOL_0
 5
2D
 10
2896.75
 20
310.341
 30
0
 11
2896.75
 21
323.341
 31
0
 0
ARC
 8
TOOL_0
 5
2E
 10
2888.75
 20
323.341
 30
0
 40
8.0
 50
0
 51
180.0
210
0
220
0
230
1.0
 0
LINE
 8
TOOL_0
 5
2F
 10
2880.75
 20
323.341
 30
0
 11
2880.75
 21
258.341
 31
0
 0
ARC
 8
TOOL_0
 5
30
 10
2895.75
 20
258.341
 30
0
 40
15.0
 50
180.0
 51
270.0
210
0
220
0
230
1.0
 0
LINE
 8
TOOL_0
 5
31
 10
2895.75
 20
243.341
 30
0
 11
2951.75
 21
243.341
 31
0
 0
ARC
 8
TOOL_0
 5
32
 10
2951.75
 20
258.341
 30
0
 40
15.0
 50
270.0
 51
0
210
0
220
0
230
1.0
 0
LINE
 8
TOOL_0
 5
33
 10
2966.75
 20
258.341
 30
0
 11
2966.75
 21
290.841
 31
0
 0
LINE
 8
TOOL_0
 5
34
 10
2966.75
 20
290.841
 30
0
 11
2959.679
 21
297.912
 31
0
 0
LINE
 8
TOOL_0
 5
35
 10
2959.679
 20
297.912
 30
0
 11
3186.605
 21
9.501
 31
0
 0
LINE
 8
TOOL_0
 5
36
 10
3186.605
 20
9.501
 30
0
 11
3156.5
 21
9.501
 31
0
 0
LINE
 8
TOOL_0
 5
37
 10
3156.5
 20
9.501
 30
0
 11
81.0
 21
9.501
 31
0
 0
LINE
 8
TOOL_0
 5
38
 10
81.0
 20
9.501
 30
0
 11
81.0
 21
112.251
 31
0
 0
LINE
 8
TOOL_0
 5
39
 10
81.0
 20
112.251
 30
0
 11
87.0
 21
112.251
 31
0
 0
LINE
 8
TOOL_0
 5
3A
 10
87.0
 20
112.251
 30
0
 11
87.0
 21
190.251
 31
0
 0
ARC
 8
TOOL_0
 5
3B
 10
62.0
 20
190.251
 30
0
 40
25.0
 50
0
 51
90.0
210
0
220
0
230
1.0
 0
LINE
 8
TOOL_0
 5
3C
 10
62.0
 20
215.251
 30
0
 11
9.5
 21
215.251
 31
0
 0
LINE
 8
TOOL_0
 5
3D
 10
9.5
 20
215.251
 30
0
 11
9.5
 21
990.001
 31
0
 0
LINE
 8
TOOL_0
 5
3E
 10
9.5
 20
990.001
 30
0
 11
93.003
 21
990.001
 31
0
 0
LINE
 8
TOOL_0
 5
3F
 10
93.003
 20
990.001
 30
0
 11
164.844
 21
491.552
 31
0
 0
ARC
 8
TOOL_0
 5
40
 10
239.077
 20
502.251
 30
0
 40
75.000045933319
 50
188.201407381131
 51
270.0
210
0
220
0
230
1.0
 0
LINE
 8
TOOL_0
 5
41
 10
239.077
 20
427.251
 30
0
 11
429.617
 21
427.251
 31
0
 0
ARC
 8
TOOL_0
 5
42
 10
429.617
 20
502.251
 30
0
 40
75.0
 50
270.0
 51
319.999877753997
210
0
220
0
230
1.0
 0
LINE
 8
TOOL_0
 5
43
 10
487.07
 20
454.042
 30
0
 11
877.474
 21
919.307
 31
0
 0
LINE
 8
TOOL_0
 5
44
 10
877.474
 20
919.307
 30
0
 11
872.878
 21
923.164
 31
0
 0
LINE
 8
TOOL_0
 5
45
 10
872.878
 20
923.164
 30
0
 11
618.001
 21
619.414
 31
0
 0
LINE
 8
TOOL_0
 5
46
 10
618.001
 20
619.414
 30
0
 11
618.001
 21
990.002
 31
0
 0
LINE
 8
TOOL_0
 5
47
 10
618.001
 20
990.002
 30
0
 11
2619.501
 21
990.002
 31
0
 0
LINE
 8
TOOL_0
 5
48
 10
2619.501
 20
990.002
 30
0
 11
2619.501
 21
619.414
 31
0
 0
LINE
 8
TOOL_0
 5
49
 10
2619.501
 20
619.414
 30
0
 11
2364.624
 21
923.164
 31
0
 0
LINE
 8
TOOL_0
 5
4A
 10
2364.624
 20
923.164
 30
0
 11
2360.028
 21
919.307
 31
0
 0
LINE
 8
TOOL_0
 5
4B
 10
2360.028
 20
919.307
 30
0
 11
2750.432
 21
454.042
 31
0
 0
ARC
 8
TOOL_0
 5
4C
 10
2807.885
 20
502.251
 30
0
 40
74.999699266064
 50
220.000122246003
 51
270.0
210
0
220
0
230
1.0
 0
LINE
 8
TOOL_0
 5
4D
 10
2807.885
 20
427.251
 30
0
 11
2998.425
 21
427.251
 31
0
 0
ARC
 8
TOOL_0
 5
4E
 10
2998.425
 20
502.251
 30
0
 40
75.0
 50
270.0
 51
351.798592618869
210
0
220
0
230
1.0
 0
LINE
 8
TOOL_0
 5
4F
 10
3072.658
 20
491.552
 30
0
 11
3144.499
 21
990.001
 31
0
 0
LINE
 8
TOOL_0
 5
50
 10
3144.499
 20
990.001
 30
0
 11
3228.002
 21
990.001
 31
0
 0
LINE
 8
TOOL_0
 5
51
 10
3228.002
 20
990.001
 30
0
 11
3228.002
 21
215.251
 31
0
 0
LINE
 8
TOOL_0
 5
52
 10
3228.002
 20
215.251
 30
0
 11
3175.502
 21
215.251
 31
0
 0
ARC
 8
TOOL_0
 5
53
 10
3175.502
 20
190.251
 30
0
 40
25.0
 50
90.0
 51
180.0
210
0
220
0
230
1.0
 0
LINE
 8
TOOL_0
 5
54
 10
3150.502
 20
190.251
 30
0
 11
3150.502
 21
112.251
 31
0
 0
LINE
 8
TOOL_0
 5
55
 10
3150.502
 20
112.251
 30
0
 11
3156.502
 21
112.251
 31
0
 0
LINE
 8
TOOL_0
 5
56
 10
3156.502
 20
112.251
 30
0
 11
3156.502
 21
9.501
 31
0
 0
LINE
 8
TOOL_0
 5
57
 10
3156.502
 20
9.501
 30
0
 11
3156.502
 21
4.314
 31
0
 0
LINE
 8
TOOL_0
 5
58
 10
3156.502
 20
4.314
 30
0
 11
326.752
 21
1698.501
 31
0
 0
LINE
 8
TOOL_0
 5
59
 10
326.752
 20
1698.501
 30
0
 11
356.752
 21
1698.501
 31
0
 0
LINE
 8
TOOL_0
 5
5A
 10
356.752
 20
1698.501
 30
0
 11
356.752
 21
1731.001
 31
0
 0
ARC
 8
TOOL_0
 5
5B
 10
341.752
 20
1731.001
 30
0
 40
15.0
 50
0
 51
90.0
210
0
220
0
230
1.0
 0
LINE
 8
TOOL_0
 5
5C
 10
341.752
 20
1746.001
 30
0
 11
285.752
 21
1746.001
 31
0
 0
ARC
 8
TOOL_0
 5
5D
 10
285.752
 20
1731.001
 30
0
 40
15.0
 50
90.0
 51
180.0
210
0
220
0
230
1.0
 0
LINE
 8
TOOL_0
 5
5E
 10
270.752
 20
1731.001
 30
0
 11
270.752
 21
1666.001
 31
0
 0
ARC
 8
TOOL_0
 5
5F
 10
278.752
 20
1666.001
 30
0
 40
8.0
 50
180.0
 51
0
210
0
220
0
230
1.0
 0
LINE
 8
TOOL_0
 5
60
 10
286.752
 20
1666.001
 30
0
 11
286.752
 21
1679.001
 31
0
 0
LINE
 8
TOOL_0
 5
61
 10
286.752
 20
1679.001
 30
0
 11
340.752
 21
1679.001
 31
0
 0
LINE
 8
TOOL_0
 5
62
 10
340.752
 20
1679.001
 30
0
 11
340.752
 21
1666.001
 31
0
 0
ARC
 8
TOOL_0
 5
63
 10
348.752
 20
1666.001
 30
0
 40
8.0
 50
180.0
 51
0
210
0
220
0
230
1.0
 0
LINE
 8
TOOL_0
 5
64
 10
356.752
 20
1666.001
 30
0
 11
356.752
 21
1698.501
 31
0
 0
LINE
 8
TOOL_0
 5
65
 10
356.752
 20
1698.501
 30
0
 11
349.681
 21
1705.572
 31
0
 0
LINE
 8
TOOL_0
 5
66
 10
349.681
 20
1705.572
 30
0
 11
768.752
 21
1751.091
 31
0
 0
LINE
 8
TOOL_0
 5
67
 10
768.752
 20
1751.091
 30
0
 11
798.752
 21
1751.091
 31
0
 0
ARC
 8
TOOL_0
 5
68
 10
763.752
 20
1751.091
 30
0
 40
35.0
 50
0
 51
180.0
210
0
220
0
230
1.0
 0
ARC
 8
TOOL_0
 5
69
 10
763.752
 20
1751.091
 30
0
 40
35.0
 50
180.0
 51
0
210
0
220
0
230
1.0
 0
LINE
 8
TOOL_0
 5
6A
 10
798.752
 20
1751.091
 30
0
 11
791.681
 21
1758.162
 31
0
 0
LINE
 8
TOOL_0
 5
6B
 10
791.681
 20
1758.162
 30
0
 11
1073.752
 21
1151.091
 31
0
 0
LINE
 8
TOOL_0
 5
6C
 10
1073.752
 20
1151.091
 30
0
 11
1103.752
 21
1151.091
 31
0
 0
ARC
 8
TOOL_0
 5
6D
 10
1068.752
 20
1151.091
 30
0
 40
35.0
 50
0
 51
180.0
210
0
220
0
230
1.0
 0
ARC
 8
TOOL_0
 5
6E
 10
1068.752
 20
1151.091
 30
0
 40
35.0
 50
180.0
 51
0
210
0
220
0
230
1.0
 0
LINE
 8
TOOL_0
 5
6F
 10
1103.752
 20
1151.091
 30
0
 11
1096.681
 21
1158.162
 31
0
 0
LINE
 8
TOOL_0
 5
70
 10
1096.681
 20
1158.162
 30
0
 11
1623.752
 21
1751.091
 31
0
 0
LINE
 8
TOOL_0
 5
71
 10
1623.752
 20
1751.091
 30
0
 11
1653.752
 21
1751.091
 31
0
 0
ARC
 8
TOOL_0
 5
72
 10
1618.752
 20
1751.091
 30
0
 40
35.0
 50
0
 51
180.0
210
0
220
0
230
1.0
 0
ARC
 8
TOOL_0
 5
73
 10
1618.752
 20
1751.091
 30
0
 40
35.0
 50
180.0
 51
0
210
0
220
0
230
1.0
 0
LINE
 8
TOOL_0
 5
74
 10
1653.752
 20
1751.091
 30
0
 11
1646.681
 21
1758.162
 31
0
 0
LINE
 8
TOOL_0
 5
75
 10
1646.681
 20
1758.162
 30
0
 11
2173.752
 21
1151.091
 31
0
 0
LINE
 8
TOOL_0
 5
76
 10
2173.752
 20
1151.091
 30
0
 11
2203.752
 21
1151.091
 31
0
 0
ARC
 8
TOOL_0
 5
77
 10
2168.752
 20
1151.091
 30
0
 40
35.0
 50
0
 51
180.0
210
0
220
0
230
1.0
 0
ARC
 8
TOOL_0
 5
78
 10
2168.752
 20
1151.091
 30
0
 40
35.0
 50
180.0
 51
0
210
0
220
0
230
1.0
 0
LINE
 8
TOOL_0
 5
79
 10
2203.752
 20
1151.091
 30
0
 11
2196.681
 21
1158.162
 31
0
 0
LINE
 8
TOOL_0
 5
7A
 10
2196.681
 20
1158.162
 30
0
 11
2478.752
 21
1751.091
 31
0
 0
LINE
 8
TOOL_0
 5
7B
 10
2478.752
 20
1751.091
 30
0
 11
2508.752
 21
1751.091
 31
0
 0
ARC
 8
TOOL_0
 5
7C
 10
2473.752
 20
1751.091
 30
0
 40
35.0
 50
0
 51
180.0
210
0
220
0
230
1.0
 0
ARC
 8
TOOL_0
 5
7D
 10
2473.752
 20
1751.091
 30
0
 40
35.0
 50
180.0
 51
0
210
0
220
0
230
1.0
 0
LINE
 8
TOOL_0
 5
7E
 10
2508.752
 20
1751.091
 30
0
 11
2501.681
 21
1758.162
 31
0
 0
LINE
 8
TOOL_0
 5
7F
 10
2501.681
 20
1758.162
 30
0
 11
2936.752
 21
1698.501
 31
0
 0
LINE
 8
TOOL_0
 5
80
 10
2936.752
 20
1698.501
 30
0
 11
2966.752
 21
1698.501
 31
0
 0
LINE
 8
TOOL_0
 5
81
 10
2966.752
 20
1698.501
 30
0
 11
2966.752
 21
1731.001
 31
0
 0
ARC
 8
TOOL_0
 5
82
 10
2951.752
 20
1731.001
 30
0
 40
15.0
 50
0
 51
90.0
210
0
220
0
230
1.0
 0
LINE
 8
TOOL_0
 5
83
 10
2951.752
 20
1746.001
 30
0
 11
2895.752
 21
1746.001
 31
0
 0
ARC
 8
TOOL_0
 5
84
 10
2895.752
 20
1731.001
 30
0
 40
15.0
 50
90.0
 51
180.0
210
0
220
0
230
1.0
 0
LINE
 8
TOOL_0
 5
85
 10
2880.752
 20
1731.001
 30
0
 11
2880.752
 21
1666.001
 31
0
 0
ARC
 8
TOOL_0
 5
86
 10
2888.752
 20
1666.001
 30
0
 40
8.0
 50
180.0
 51
0
210
0
220
0
230
1.0
 0
LINE
 8
TOOL_0
 5
87
 10
2896.752
 20
1666.001
 30
0
 11
2896.752
 21
1679.001
 31
0
 0
LINE
 8
TOOL_0
 5
88
 10
2896.752
 20
1679.001
 30
0
 11
2950.752
 21
1679.001
 31
0
 0
LINE
 8
TOOL_0
 5
89
 10
2950.752
 20
1679.001
 30
0
 11
2950.752
 21
1666.001
 31
0
 0
ARC
 8
TOOL_0
 5
8A
 10
2958.752
 20
1666.001
 30
0
 40
8.0
 50
180.0
 51
0
210
0
220
0
230
1.0
 0
LINE
 8
TOOL_0
 5
8B
 10
2966.752
 20
1666.001
 30
0
 11
2966.752
 21
1698.501
 31
0
 0
LINE
 8
TOOL_0
 5
8C
 10
2966.752
 20
1698.501
 30
0
 11
2959.681
 21
1705.572
 31
0
 0
LINE
 8
TOOL_0
 5
8D
 10
2959.681
 20
1705.572
 30
0
 11
2650.47
 21
999.341
 31
0
 0
LINE
 8
TOOL_0
 5
8E
 10
2650.47
 20
999.341
 30
0
 11
2619.502
 21
999.341
 31
0
 0
LINE
 8
TOOL_0
 5
8F
 10
2619.502
 20
999.341
 30
0
 11
618.002
 21
999.341
 31
0
 0
LINE
 8
TOOL_0
 5
90
 10
618.002
 20
999.341
 30
0
 11
618.002
 21
1369.929
 31
0
 0
LINE
 8
TOOL_0
 5
91
 10
618.002
 20
1369.929
 30
0
 11
872.879
 21
1066.179
 31
0
 0
LINE
 8
TOOL_0
 5
92
 10
872.879
 20
1066.179
 30
0
 11
877.475
 21
1070.036
 31
0
 0
LINE
 8
TOOL_0
 5
93
 10
877.475
 20
1070.036
 30
0
 11
487.071
 21
1535.301
 31
0
 0
ARC
 8
TOOL_0
 5
94
 10
429.618
 20
1487.092
 30
0
 40
74.999699266064
 50
40.000122246003
 51
90.0
210
0
220
0
230
1.0
 0
LINE
 8
TOOL_0
 5
95
 10
429.618
 20
1562.092
 30
0
 11
239.078
 21
1562.092
 31
0
 0
ARC
 8
TOOL_0
 5
96
 10
239.078
 20
1487.092
 30
0
 40
75.0
 50
90.0
 51
171.798592618868
210
0
220
0
230
1.0
 0
LINE
 8
TOOL_0
 5
97
 10
164.845
 20
1497.791
 30
0
 11
93.004
 21
999.342
 31
0
 0
LINE
 8
TOOL_0
 5
98
 10
93.004
 20
999.342
 30
0
 11
9.501
 21
999.342
 31
0
 0
LINE
 8
TOOL_0
 5
99
 10
9.501
 20
999.342
 30
0
 11
9.501
 21
1774.092
 31
0
 0
LINE
 8
TOOL_0
 5
9A
 10
9.501
 20
1774.092
 30
0
 11
62.001
 21
1774.092
 31
0
 0
ARC
 8
TOOL_0
 5
9B
 10
62.001
 20
1799.092
 30
0
 40
25.0
 50
270.0
 51
0
210
0
220
0
230
1.0
 0
LINE
 8
TOOL_0
 5
9C
 10
87.001
 20
1799.092
 30
0
 11
87.001
 21
1877.092
 31
0
 0
LINE
 8
TOOL_0
 5
9D
 10
87.001
 20
1877.092
 30
0
 11
81.001
 21
1877.092
 31
0
 0
LINE
 8
TOOL_0
 5
9E
 10
81.001
 20
1877.092
 30
0
 11
81.001
 21
1979.842
 31
0
 0
LINE
 8
TOOL_0
 5
9F
 10
81.001
 20
1979.842
 30
0
 11
3156.501
 21
1979.842
 31
0
 0
LINE
 8
TOOL_0
 5
A0
 10
3156.501
 20
1979.842
 30
0
 11
3156.501
 21
1877.092
 31
0
 0
LINE
 8
TOOL_0
 5
A1
 10
3156.501
 20
1877.092
 30
0
 11
3150.501
 21
1877.092
 31
0
 0
LINE
 8
TOOL_0
 5
A2
 10
3150.501
 20
1877.092
 30
0
 11
3150.501
 21
1799.092
 31
0
 0
ARC
 8
TOOL_0
 5
A3
 10
3175.501
 20
1799.092
 30
0
 40
25.0
 50
180.0
 51
270.0
210
0
220
0
230
1.0
 0
LINE
 8
TOOL_0
 5
A4
 10
3175.501
 20
1774.092
 30
0
 11
3228.001
 21
1774.092
 31
0
 0
LINE
 8
TOOL_0
 5
A5
 10
3228.001
 20
1774.092
 30
0
 11
3228.001
 21
999.342
 31
0
 0
LINE
 8
TOOL_0
 5
A6
 10
3228.001
 20
999.342
 30
0
 11
3144.498
 21
999.342
 31
0
 0
LINE
 8
TOOL_0
 5
A7
 10
3144.498
 20
999.342
 30
0
 11
3072.657
 21
1497.791
 31
0
 0
ARC
 8
TOOL_0
 5
A8
 10
2998.424
 20
1487.092
 30
0
 40
75.000045933319
 50
8.201407381132
 51
90.0
210
0
220
0
230
1.0
 0
LINE
 8
TOOL_0
 5
A9
 10
2998.424
 20
1562.092
 30
0
 11
2807.884
 21
1562.092
 31
0
 0
ARC
 8
TOOL_0
 5
AA
 10
2807.884
 20
1487.092
 30
0
 40
75.0
 50
90.0
 51
139.999877753997
210
0
220
0
230
1.0
 0
LINE
 8
TOOL_0
 5
AB
 10
2750.431
 20
1535.301
 30
0
 11
2360.027
 21
1070.036
 31
0
 0
LINE
 8
TOOL_0
 5
AC
 10
2360.027
 20
1070.036
 30
0
 11
2364.623
 21
1066.179
 31
0
 0
LINE
 8
TOOL_0
 5
AD
 10
2364.623
 20
1066.179
 30
0
 11
2619.5
 21
1369.929
 31
0
 0
LINE
 8
TOOL_0
 5
AE
 10
2619.5
 20
1369.929
 30
0
 11
2619.5
 21
999.341
 31
0
 0
LINE
 8
TOOL_0
 5
AF
 10
2619.5
 20
999.341
 30
0
 11
2619.5
 21
994.291
 31
0
 0
LINE
 8
TOOL_0
 5
B0
 10
2619.5
 20
994.291
 30
0
 11
3554.555
 21
290.841
 31
0
 0
LINE
 8
TOOL_0
 5
B1
 10
3554.555
 20
290.841
 30
0
 11
3584.555
 21
290.841
 31
0
 0
LINE
 8
TOOL_0
 5
B2
 10
3584.555
 20
290.841
 30
0
 11
3584.555
 21
323.341
 31
0
 0
ARC
 8
TOOL_0
 5
B3
 10
3576.555
 20
323.341
 30
0
 40
8.0
 50
0
 51
180.0
210
0
220
0
230
1.0
 0
LINE
 8
TOOL_0
 5
B4
 10
3568.555
 20
323.341
 30
0
 11
3568.555
 21
310.341
 31
0
 0
LINE
 8
TOOL_0
 5
B5
 10
3568.555
 20
310.341
 30
0
 11
3514.555
 21
310.341
 31
0
 0
LINE
 8
TOOL_0
 5
B6
 10
3514.555
 20
310.341
 30
0
 11
3514.555
 21
323.341
 31
0
 0
ARC
 8
TOOL_0
 5
B7
 10
3506.555
 20
323.341
 30
0
 40
8.0
 50
0
 51
180.0
210
0
220
0
230
1.0
 0
LINE
 8
TOOL_0
 5
B8
 10
3498.555
 20
323.341
 30
0
 11
3498.555
 21
258.341
 31
0
 0
ARC
 8
TOOL_0
 5
B9
 10
3513.555
 20
258.341
 30
0
 40
15.0
 50
180.0
 51
270.0
210
0
220
0
230
1.0
 0
LINE
 8
TOOL_0
 5
BA
 10
3513.555
 20
243.341
 30
0
 11
3569.555
 21
243.341
 31
0
 0
ARC
 8
TOOL_0
 5
BB
 10
3569.555
 20
258.341
 30
0
 40
15.0
 50
270.0
 51
0
210
0
220
0
230
1.0
 0
LINE
 8
TOOL_0
 5
BC
 10
3584.555
 20
258.341
 30
0
 11
3584.555
 21
290.841
 31
0
 0
LINE
 8
TOOL_0
 5
BD
 10
3584.555
 20
290.841
 30
0
 11
3577.484
 21
297.912
 31
0
 0
LINE
 8
TOOL_0
 5
BE
 10
3577.484
 20
297.912
 30
0
 11
3996.555
 21
238.251
 31
0
 0
LINE
 8
TOOL_0
 5
BF
 10
3996.555
 20
238.251
 30
0
 11
4026.555
 21
238.251
 31
0
 0
ARC
 8
TOOL_0
 5
C0
 10
3991.555
 20
238.251
 30
0
 40
35.0
 50
0
 51
180.0
210
0
220
0
230
1.0
 0
ARC
 8
TOOL_0
 5
C1
 10
3991.555
 20
238.251
 30
0
 40
35.0
 50
180.0
 51
0
210
0
220
0
230
1.0
 0
LINE
 8
TOOL_0
 5
C2
 10
4026.555
 20
238.251
 30
0
 11
4019.484
 21
245.322
 31
0
 0
LINE
 8
TOOL_0
 5
C3
 10
4019.484
 20
245.322
 30
0
 11
4301.555
 21
838.251
 31
0
 0
LINE
 8
TOOL_0
 5
C4
 10
4301.555
 20
838.251
 30
0
 11
4331.555
 21
838.251
 31
0
 0
ARC
 8
TOOL_0
 5
C5
 10
4296.555
 20
838.251
 30
0
 40
35.0
 50
0
 51
180.0
210
0
220
0
230
1.0
 0
ARC
 8
TOOL_0
 5
C6
 10
4296.555
 20
838.251
 30
0
 40
35.0
 50
180.0
 51
0
210
0
220
0
230
1.0
 0
LINE
 8
TOOL_0
 5
C7
 10
4331.555
 20
838.251
 30
0
 11
4324.484
 21
845.322
 31
0
 0
LINE
 8
TOOL_0
 5
C8
 10
4324.484
 20
845.322
 30
0
 11
4851.555
 21
238.251
 31
0
 0
LINE
 8
TOOL_0
 5
C9
 10
4851.555
 20
238.251
 30
0
 11
4881.555
 21
238.251
 31
0
 0
ARC
 8
TOOL_0
 5
CA
 10
4846.555
 20
238.251
 30
0
 40
35.0
 50
0
 51
180.0
210
0
220
0
230
1.0
 0
ARC
 8
TOOL_0
 5
CB
 10
4846.555
 20
238.251
 30
0
 40
35.0
 50
180.0
 51
0
210
0
220
0
230
1.0
 0
LINE
 8
TOOL_0
 5
CC
 10
4881.555
 20
238.251
 30
0
 11
4874.484
 21
245.322
 31
0
 0
LINE
 8
TOOL_0
 5
CD
 10
4874.484
 20
245.322
 30
0
 11
5401.555
 21
838.251
 31
0
 0
LINE
 8
TOOL_0
 5
CE
 10
5401.555
 20
838.251
 30
0
 11
5431.555
 21
838.251
 31
0
 0
ARC
 8
TOOL_0
 5
CF
 10
5396.555
 20
838.251
 30
0
 40
35.0
 50
0
 51
180.0
210
0
220
0
230
1.0
 0
ARC
 8
TOOL_0
 5
D0
 10
5396.555
 20
838.251
 30
0
 40
35.0
 50
180.0
 51
0
210
0
220
0
230
1.0
 0
LINE
 8
TOOL_0
 5
D1
 10
5431.555
 20
838.251
 30
0
 11
5424.484
 21
845.322
 31
0
 0
LINE
 8
TOOL_0
 5
D2
 10
5424.484
 20
845.322
 30
0
 11
5706.555
 21
238.251
 31
0
 0
LINE
 8
TOOL_0
 5
D3
 10
5706.555
 20
238.251
 30
0
 11
5736.555
 21
238.251
 31
0
 0
ARC
 8
TOOL_0
 5
D4
 10
5701.555
 20
238.251
 30
0
 40
35.0
 50
0
 51
180.0
210
0
220
0
230
1.0
 0
ARC
 8
TOOL_0
 5
D5
 10
5701.555
 20
238.251
 30
0
 40
35.0
 50
180.0
 51
0
210
0
220
0
230
1.0
 0
LINE
 8
TOOL_0
 5
D6
 10
5736.555
 20
238.251
 30
0
 11
5729.484
 21
245.322
 31
0
 0
LINE
 8
TOOL_0
 5
D7
 10
5729.484
 20
245.322
 30
0
 11
6164.555
 21
290.841
 31
0
 0
LINE
 8
TOOL_0
 5
D8
 10
6164.555
 20
290.841
 30
0
 11
6194.555
 21
290.841
 31
0
 0
LINE
 8
TOOL_0
 5
D9
 10
6194.555
 20
290.841
 30
0
 11
6194.555
 21
323.341
 31
0
 0
ARC
 8
TOOL_0
 5
DA
 10
6186.555
 20
323.341
 30
0
 40
8.0
 50
0
 51
180.0
210
0
220
0
230
1.0
 0
LINE
 8
TOOL_0
 5
DB
 10
6178.555
 20
323.341
 30
0
 11
6178.555
 21
310.341
 31
0
 0
LINE
 8
TOOL_0
 5
DC
 10
6178.555
 20
310.341
 30
0
 11
6124.555
 21
310.341
 31
0
 0
LINE
 8
TOOL_0
 5
DD
 10
6124.555
 20
310.341
 30
0
 11
6124.555
 21
323.341
 31
0
 0
ARC
 8
TOOL_0
 5
DE
 10
6116.555
 20
323.341
 30
0
 40
8.0
 50
0
 51
180.0
210
0
220
0
230
1.0
 0
LINE
 8
TOOL_0
 5
DF
 10
6108.555
 20
323.341
 30
0
 11
6108.555
 21
258.341
 31
0
 0
ARC
 8
TOOL_0
 5
E0
 10
6123.555
 20
258.341
 30
0
 40
15.0
 50
180.0
 51
270.0
210
0
220
0
230
1.0
 0
LINE
 8
TOOL_0
 5
E1
 10
6123.555
 20
243.341
 30
0
 11
6179.555
 21
243.341
 31
0
 0
ARC
 8
TOOL_0
 5
E2
 10
6179.555
 20
258.341
 30
0
 40
15.0
 50
270.0
 51
0
210
0
220
0
230
1.0
 0
LINE
 8
TOOL_0
 5
E3
 10
6194.555
 20
258.341
 30
0
 11
6194.555
 21
290.841
 31
0
 0
LINE
 8
TOOL_0
 5
E4
 10
6194.555
 20
290.841
 30
0
 11
6187.484
 21
297.912
 31
0
 0
LINE
 8
TOOL_0
 5
E5
 10
6187.484
 20
297.912
 30
0
 11
6414.41
 21
9.501
 31
0
 0
LINE
 8
TOOL_0
 5
E6
 10
6414.41
 20
9.501
 30
0
 11
6384.305
 21
9.501
 31
0
 0
LINE
 8
TOOL_0
 5
E7
 10
6384.305
 20
9.501
 30
0
 11
3308.805
 21
9.501
 31
0
 0
LINE
 8
TOOL_0
 5
E8
 10
3308.805
 20
9.501
 30
0
 11
3308.805
 21
112.251
 31
0
 0
LINE
 8
TOOL_0
 5
E9
 10
3308.805
 20
112.251
 30
0
 11
3314.805
 21
112.251
 31
0
 0
LINE
 8
TOOL_0
 5
EA
 10
3314.805
 20
112.251
 30
0
 11
3314.805
 21
190.251
 31
0
 0
ARC
 8
TOOL_0
 5
EB
 10
3289.805
 20
190.251
 30
0
 40
25.0
 50
0
 51
90.0
210
0
220
0
230
1.0
 0
LINE
 8
TOOL_0
 5
EC
 10
3289.805
 20
215.251
 30
0
 11
3237.305
 21
215.251
 31
0
 0
LINE
 8
TOOL_0
 5
ED
 10
3237.305
 20
215.251
 30
0
 11
3237.305
 21
990.001
 31
0
 0
LINE
 8
TOOL_0
 5
EE
 10
3237.305
 20
990.001
 30
0
 11
3320.808
 21
990.001
 31
0
 0
LINE
 8
TOOL_0
 5
EF
 10
3320.808
 20
990.001
 30
0
 11
3392.649
 21
491.552
 31
0
 0
ARC
 8
TOOL_0
 5
F0
 10
3466.882
 20
502.251
 30
0
 40
75.000045933319
 50
188.201407381131
 51
270.0
210
0
220
0
230
1.0
 0
LINE
 8
TOOL_0
 5
F1
 10
3466.882
 20
427.251
 30
0
 11
3657.422
 21
427.251
 31
0
 0
ARC
 8
TOOL_0
 5
F2
 10
3657.422
 20
502.251
 30
0
 40
75.0
 50
270.0
 51
319.999877753997
210
0
220
0
230
1.0
 0
LINE
 8
TOOL_0
 5
F3
 10
3714.875
 20
454.042
 30
0
 11
4105.279
 21
919.307
 31
0
 0
LINE
 8
TOOL_0
 5
F4
 10
4105.279
 20
919.307
 30
0
 11
4100.683
 21
923.164
 31
0
 0
LINE
 8
TOOL_0
 5
F5
 10
4100.683
 20
923.164
 30
0
 11
3845.806
 21
619.414
 31
0
 0
LINE
 8
TOOL_0
 5
F6
 10
3845.806
 20
619.414
 30
0
 11
3845.806
 21
990.002
 31
0
 0
LINE
 8
TOOL_0
 5
F7
 10
3845.806
 20
990.002
 30
0
 11
5847.306
 21
990.002
 31
0
 0
LINE
 8
TOOL_0
 5
F8
 10
5847.306
 20
990.002
 30
0
 11
5847.306
 21
619.414
 31
0
 0
LINE
 8
TOOL_0
 5
F9
 10
5847.306
 20
619.414
 30
0
 11
5592.429
 21
923.164
 31
0
 0
LINE
 8
TOOL_0
 5
FA
 10
5592.429
 20
923.164
 30
0
 11
5587.833
 21
919.307
 31
0
 0
LINE
 8
TOOL_0
 5
FB
 10
5587.833
 20
919.307
 30
0
 11
5978.237
 21
454.042
 31
0
 0
ARC
 8
TOOL_0
 5
FC
 10
6035.69
 20
502.251
 30
0
 40
74.999699266064
 50
220.000122246003
 51
270.0
210
0
220
0
230
1.0
 0
LINE
 8
TOOL_0
 5
FD
 10
6035.69
 20
427.251
 30
0
 11
6226.23
 21
427.251
 31
0
 0
ARC
 8
TOOL_0
 5
FE
 10
6226.23
 20
502.251
 30
0
 40
75.0
 50
270.0
 51
351.798592618869
210
0
220
0
230
1.0
 0
LINE
 8
TOOL_0
 5
FF
 10
6300.463
 20
491.552
 30
0
 11
6372.304
 21
990.001
 31
0
 0
LINE
 8
TOOL_0
 5
100
 10
6372.304
 20
990.001
 30
0
 11
6455.807
 21
990.001
 31
0
 0
LINE
 8
TOOL_0
 5
101
 10
6455.807
 20
990.001
 30
0
 11
6455.807
 21
215.251
 31
0
 0
LINE
 8
TOOL_0
 5
102
 10
6455.807
 20
215.251
 30
0
 11
6403.307
 21
215.251
 31
0
 0
ARC
 8
TOOL_0
 5
103
 10
6403.307
 20
190.251
 30
0
 40
25.0
 50
90.0
 51
180.0
210
0
220
0
230
1.0
 0
LINE
 8
TOOL_0
 5
104
 10
6378.307
 20
190.251
 30
0
 11
6378.307
 21
112.251
 31
0
 0
LINE
 8
TOOL_0
 5
105
 10
6378.307
 20
112.251
 30
0
 11
6384.307
 21
112.251
 31
0
 0
LINE
 8
TOOL_0
 5
106
 10
6384.307
 20
112.251
 30
0
 11
6384.307
 21
9.501
 31
0
 0
LINE
 8
TOOL_0
 5
107
 10
6384.307
 20
9.501
 30
0
 11
6384.307
 21
4.314
 31
0
 0
LINE
 8
TOOL_0
 5
108
 10
6384.307
 20
4.314
 30
0
 11
3554.557
 21
1698.696
 31
0
 0
LINE
 8
TOOL_0
 5
109
 10
3554.557
 20
1698.696
 30
0
 11
3584.557
 21
1698.696
 31
0
 0
LINE
 8
TOOL_0
 5
10A
 10
3584.557
 20
1698.696
 30
0
 11
3584.557
 21
1731.196
 31
0
 0
ARC
 8
TOOL_0
 5
10B
 10
3569.557
 20
1731.196
 30
0
 40
15.0
 50
0
 51
90.0
210
0
220
0
230
1.0
 0
LINE
 8
TOOL_0
 5
10C
 10
3569.557
 20
1746.196
 30
0
 11
3513.557
 21
1746.196
 31
0
 0
ARC
 8
TOOL_0
 5
10D
 10
3513.557
 20
1731.196
 30
0
 40
15.0
 50
90.0
 51
180.0
210
0
220
0
230
1.0
 0
LINE
 8
TOOL_0
 5
10E
 10
3498.557
 20
1731.196
 30
0
 11
3498.557
 21
1666.196
 31
0
 0
ARC
 8
TOOL_0
 5
10F
 10
3506.557
 20
1666.196
 30
0
 40
8.0
 50
180.0
 51
0
210
0
220
0
230
1.0
 0
LINE
 8
TOOL_0
 5
110
 10
3514.557
 20
1666.196
 30
0
 11
3514.557
 21
1679.196
 31
0
 0
LINE
 8
TOOL_0
 5
111
 10
3514.557
 20
1679.196
 30
0
 11
3568.557
 21
1679.196
 31
0
 0
LINE
 8
TOOL_0
 5
112
 10
3568.557
 20
1679.196
 30
0
 11
3568.557
 21
1666.196
 31
0
 0
ARC
 8
TOOL_0
 5
113
 10
3576.557
 20
1666.196
 30
0
 40
8.0
 50
180.0
 51
0
210
0
220
0
230
1.0
 0
LINE
 8
TOOL_0
 5
114
 10
3584.557
 20
1666.196
 30
0
 11
3584.557
 21
1698.696
 31
0
 0
LINE
 8
TOOL_0
 5
115
 10
3584.557
 20
1698.696
 30
0
 11
3577.486
 21
1705.767
 31
0
 0
LINE
 8
TOOL_0
 5
116
 10
3577.486
 20
1705.767
 30
0
 11
3996.557
 21
1751.286
 31
0
 0
LINE
 8
TOOL_0
 5
117
 10
3996.557
 20
1751.286
 30
0
 11
4026.557
 21
1751.286
 31
0
 0
ARC
 8
TOOL_0
 5
118
 10
3991.557
 20
1751.286
 30
0
 40
35.0
 50
0
 51
180.0
210
0
220
0
230
1.0
 0
ARC
 8
TOOL_0
 5
119
 10
3991.557
 20
1751.286
 30
0
 40
35.0
 50
180.0
 51
0
210
0
220
0
230
1.0
 0
LINE
 8
TOOL_0
 5
11A
 10
4026.557
 20
1751.286
 30
0
 11
4019.486
 21
1758.357
 31
0
 0
LINE
 8
TOOL_0
 5
11B
 10
4019.486
 20
1758.357
 30
0
 11
4301.557
 21
1151.286
 31
0
 0
LINE
 8
TOOL_0
 5
11C
 10
4301.557
 20
1151.286
 30
0
 11
4331.557
 21
1151.286
 31
0
 0
ARC
 8
TOOL_0
 5
11D
 10
4296.557
 20
1151.286
 30
0
 40
35.0
 50
0
 51
180.0
210
0
220
0
230
1.0
 0
ARC
 8
TOOL_0
 5
11E
 10
4296.557
 20
1151.286
 30
0
 40
35.0
 50
180.0
 51
0
210
0
220
0
230
1.0
 0
LINE
 8
TOOL_0
 5
11F
 10
4331.557
 20
1151.286
 30
0
 11
4324.486
 21
1158.357
 31
0
 0
LINE
 8
TOOL_0
 5
120
 10
4324.486
 20
1158.357
 30
0
 11
4851.557
 21
1751.286
 31
0
 0
LINE
 8
TOOL_0
 5
121
 10
4851.557
 20
1751.286
 30
0
 11
4881.557
 21
1751.286
 31
0
 0
ARC
 8
TOOL_0
 5
122
 10
4846.557
 20
1751.286
 30
0
 40
35.0
 50
0
 51
180.0
210
0
220
0
230
1.0
 0
ARC
 8
TOOL_0
 5
123
 10
4846.557
 20
1751.286
 30
0
 40
35.0
 50
180.0
 51
0
210
0
220
0
230
1.0
 0
LINE
 8
TOOL_0
 5
124
 10
4881.557
 20
1751.286
 30
0
 11
4874.486
 21
1758.357
 31
0
 0
LINE
 8
TOOL_0
 5
125
 10
4874.486
 20
1758.357
 30
0
 11
5401.557
 21
1151.286
 31
0
 0
LINE
 8
TOOL_0
 5
126
 10
5401.557
 20
1151.286
 30
0
 11
5431.557
 21
1151.286
 31
0
 0
ARC
 8
TOOL_0
 5
127
 10
5396.557
 20
1151.286
 30
0
 40
35.0
 50
0
 51
180.0
210
0
220
0
230
1.0
 0
ARC
 8
TOOL_0
 5
128
 10
5396.557
 20
1151.286
 30
0
 40
35.0
 50
180.0
 51
0
210
0
220
0
230
1.0
 0
LINE
 8
TOOL_0
 5
129
 10
5431.557
 20
1151.286
 30
0
 11
5424.486
 21
1158.357
 31
0
 0
LINE
 8
TOOL_0
 5
12A
 10
5424.486
 20
1158.357
 30
0
 11
5706.557
 21
1751.286
 31
0
 0
LINE
 8
TOOL_0
 5
12B
 10
5706.557
 20
1751.286
 30
0
 11
5736.557
 21
1751.286
 31
0
 0
ARC
 8
TOOL_0
 5
12C
 10
5701.557
 20
1751.286
 30
0
 40
35.0
 50
0
 51
180.0
210
0
220
0
230
1.0
 0
ARC
 8
TOOL_0
 5
12D
 10
5701.557
 20
1751.286
 30
0
 40
35.0
 50
180.0
 51
0
210
0
220
0
230
1.0
 0
LINE
 8
TOOL_0
 5
12E
 10
5736.557
 20
1751.286
 30
0
 11
5729.486
 21
1758.357
 31
0
 0
LINE
 8
TOOL_0
 5
12F
 10
5729.486
 20
1758.357
 30
0
 11
6164.557
 21
1698.696
 31
0
 0
LINE
 8
TOOL_0
 5
130
 10
6164.557
 20
1698.696
 30
0
 11
6194.557
 21
1698.696
 31
0
 0
LINE
 8
TOOL_0
 5
131
 10
6194.557
 20
1698.696
 30
0
 11
6194.557
 21
1731.196
 31
0
 0
ARC
 8
TOOL_0
 5
132
 10
6179.557
 20
1731.196
 30
0
 40
15.0
 50
0
 51
90.0
210
0
220
0
230
1.0
 0
LINE
 8
TOOL_0
 5
133
 10
6179.557
 20
1746.196
 30
0
 11
6123.557
 21
1746.196
 31
0
 0
ARC
 8
TOOL_0
 5
134
 10
6123.557
 20
1731.196
 30
0
 40
15.0
 50
90.0
 51
180.0
210
0
220
0
230
1.0
 0
LINE
 8
TOOL_0
 5
135
 10
6108.557
 20
1731.196
 30
0
 11
6108.557
 21
1666.196
 31
0
 0
ARC
 8
TOOL_0
 5
136
 10
6116.557
 20
1666.196
 30
0
 40
8.0
 50
180.0
 51
0
210
0
220
0
230
1.0
 0
LINE
 8
TOOL_0
 5
137
 10
6124.557
 20
1666.196
 30
0
 11
6124.557
 21
1679.196
 31
0
 0
LINE
 8
TOOL_0
 5
138
 10
6124.557
 20
1679.196
 30
0
 11
6178.557
 21
1679.196
 31
0
 0
LINE
 8
TOOL_0
 5
139
 10
6178.557
 20
1679.196
 30
0
 11
6178.557
 21
1666.196
 31
0
 0
ARC
 8
TOOL_0
 5
13A
 10
6186.557
 20
1666.196
 30
0
 40
8.0
 50
180.0
 51
0
210
0
220
0
230
1.0
 0
LINE
 8
TOOL_0
 5
13B
 10
6194.557
 20
1666.196
 30
0
 11
6194.557
 21
1698.696
 31
0
 0
LINE
 8
TOOL_0
 5
13C
 10
6194.557
 20
1698.696
 30
0
 11
6187.486
 21
1705.767
 31
0
 0
LINE
 8
TOOL_0
 5
13D
 10
6187.486
 20
1705.767
 30
0
 11
5878.275
 21
999.536
 31
0
 0
LINE
 8
TOOL_0
 5
13E
 10
5878.275
 20
999.536
 30
0
 11
5847.307
 21
999.536
 31
0
 0
LINE
 8
TOOL_0
 5
13F
 10
5847.307
 20
999.536
 30
0
 11
3845.807
 21
999.536
 31
0
 0
LINE
 8
TOOL_0
 5
140
 10
3845.807
 20
999.536
 30
0
 11
3845.807
 21
1370.124
 31
0
 0
LINE
 8
TOOL_0
 5
141
 10
3845.807
 20
1370.124
 30
0
 11
4100.684
 21
1066.374
 31
0
 0
LINE
 8
TOOL_0
 5
142
 10
4100.684
 20
1066.374
 30
0
 11
4105.28
 21
1070.231
 31
0
 0
LINE
 8
TOOL_0
 5
143
 10
4105.28
 20
1070.231
 30
0
 11
3714.876
 21
1535.496
 31
0
 0
ARC
 8
TOOL_0
 5
144
 10
3657.423
 20
1487.287
 30
0
 40
74.999699266064
 50
40.000122246003
 51
90.0
210
0
220
0
230
1.0
 0
LINE
 8
TOOL_0
 5
145
 10
3657.423
 20
1562.287
 30
0
 11
3466.883
 21
1562.287
 31
0
 0
ARC
 8
TOOL_0
 5
146
 10
3466.883
 20
1487.287
 30
0
 40
75.0
 50
90.0
 51
171.798592618868
210
0
220
0
230
1.0
 0
LINE
 8
TOOL_0
 5
147
 10
3392.65
 20
1497.986
 30
0
 11
3320.809
 21
999.537
 31
0
 0
LINE
 8
TOOL_0
 5
148
 10
3320.809
 20
999.537
 30
0
 11
3237.306
 21
999.537
 31
0
 0
LINE
 8
TOOL_0
 5
149
 10
3237.306
 20
999.537
 30
0
 11
3237.306
 21
1774.287
 31
0
 0
LINE
 8
TOOL_0
 5
14A
 10
3237.306
 20
1774.287
 30
0
 11
3289.806
 21
1774.287
 31
0
 0
ARC
 8
TOOL_0
 5
14B
 10
3289.806
 20
1799.287
 30
0
 40
25.0
 50
270.0
 51
0
210
0
220
0
230
1.0
 0
LINE
 8
TOOL_0
 5
14C
 10
3314.806
 20
1799.287
 30
0
 11
3314.806
 21
1877.287
 31
0
 0
LINE
 8
TOOL_0
 5
14D
 10
3314.806
 20
1877.287
 30
0
 11
3308.806
 21
1877.287
 31
0
 0
LINE
 8
TOOL_0
 5
14E
 10
3308.806
 20
1877.287
 30
0
 11
3308.806
 21
1980.037
 31
0
 0
LINE
 8
TOOL_0
 5
14F
 10
3308.806
 20
1980.037
 30
0
 11
6384.306
 21
1980.037
 31
0
 0
LINE
 8
TOOL_0
 5
150
 10
6384.306
 20
1980.037
 30
0
 11
6384.306
 21
1877.287
 31
0
 0
LINE
 8
TOOL_0
 5
151
 10
6384.306
 20
1877.287
 30
0
 11
6378.306
 21
1877.287
 31
0
 0
LINE
 8
TOOL_0
 5
152
 10
6378.306
 20
1877.287
 30
0
 11
6378.306
 21
1799.287
 31
0
 0
ARC
 8
TOOL_0
 5
153
 10
6403.306
 20
1799.287
 30
0
 40
25.0
 50
180.0
 51
270.0
210
0
220
0
230
1.0
 0
LINE
 8
TOOL_0
 5
154
 10
6403.306
 20
1774.287
 30
0
 11
6455.806
 21
1774.287
 31
0
 0
LINE
 8
TOOL_0
 5
155
 10
6455.806
 20
1774.287
 30
0
 11
6455.806
 21
999.537
 31
0
 0
LINE
 8
TOOL_0
 5
156
 10
6455.806
 20
999.537
 30
0
 11
6372.303
 21
999.537
 31
0
 0
LINE
 8
TOOL_0
 5
157
 10
6372.303
 20
999.537
 30
0
 11
6300.462
 21
1497.986
 31
0
 0
ARC
 8
TOOL_0
 5
158
 10
6226.229
 20
1487.287
 30
0
 40
75.000045933319
 50
8.201407381132
 51
90.0
210
0
220
0
230
1.0
 0
LINE
 8
TOOL_0
 5
159
 10
6226.229
 20
1562.287
 30
0
 11
6035.689
 21
1562.287
 31
0
 0
ARC
 8
TOOL_0
 5
15A
 10
6035.689
 20
1487.287
 30
0
 40
75.0
 50
90.0
 51
139.999877753997
210
0
220
0
230
1.0
 0
LINE
 8
TOOL_0
 5
15B
 10
5978.236
 20
1535.496
 30
0
 11
5587.832
 21
1070.231
 31
0
 0
LINE
 8
TOOL_0
 5
15C
 10
5587.832
 20
1070.231
 30
0
 11
5592.428
 21
1066.374
 31
0
 0
LINE
 8
TOOL_0
 5
15D
 10
5592.428
 20
1066.374
 30
0
 11
5847.305
 21
1370.124
 31
0
 0
LINE
 8
TOOL_0
 5
15E
 10
5847.305
 20
1370.124
 30
0
 11
5847.305
 21
999.536
 31
0
 0
LINE
 8
TOOL_0
 5
15F
 10
5847.305
 20
999.536
 30
0
 11
5847.305
 21
994.486
 31
0
 0
LINE
 8
TOOL_0
 5
160
 10
5847.305
 20
994.486
 30
0
 11
6782.462
 21
290.842
 31
0
 0
LINE
 8
TOOL_0
 5
161
 10
6782.462
 20
290.842
 30
0
 11
6812.462
 21
290.842
 31
0
 0
LINE
 8
TOOL_0
 5
162
 10
6812.462
 20
290.842
 30
0
 11
6812.462
 21
323.342
 31
0
 0
ARC
 8
TOOL_0
 5
163
 10
6804.462
 20
323.342
 30
0
 40
8.0
 50
0
 51
180.0
210
0
220
0
230
1.0
 0
LINE
 8
TOOL_0
 5
164
 10
6796.462
 20
323.342
 30
0
 11
6796.462
 21
310.342
 31
0
 0
LINE
 8
TOOL_0
 5
165
 10
6796.462
 20
310.342
 30
0
 11
6742.462
 21
310.342
 31
0
 0
LINE
 8
TOOL_0
 5
166
 10
6742.462
 20
310.342
 30
0
 11
6742.462
 21
323.342
 31
0
 0
ARC
 8
TOOL_0
 5
167
 10
6734.462
 20
323.342
 30
0
 40
8.0
 50
0
 51
180.0
210
0
220
0
230
1.0
 0
LINE
 8
TOOL_0
 5
168
 10
6726.462
 20
323.342
 30
0
 11
6726.462
 21
258.342
 31
0
 0
ARC
 8
TOOL_0
 5
169
 10
6741.462
 20
258.342
 30
0
 40
15.0
 50
180.0
 51
270.0
210
0
220
0
230
1.0
 0
LINE
 8
TOOL_0
 5
16A
 10
6741.462
 20
243.342
 30
0
 11
6797.462
 21
243.342
 31
0
 0
ARC
 8
TOOL_0
 5
16B
 10
6797.462
 20
258.342
 30
0
 40
15.0
 50
270.0
 51
0
210
0
220
0
230
1.0
 0
LINE
 8
TOOL_0
 5
16C
 10
6812.462
 20
258.342
 30
0
 11
6812.462
 21
290.842
 31
0
 0
LINE
 8
TOOL_0
 5
16D
 10
6812.462
 20
290.842
 30
0
 11
6805.391
 21
297.913
 31
0
 0
LINE
 8
TOOL_0
 5
16E
 10
6805.391
 20
297.913
 30
0
 11
7224.462
 21
238.252
 31
0
 0
LINE
 8
TOOL_0
 5
16F
 10
7224.462
 20
238.252
 30
0
 11
7254.462
 21
238.252
 31
0
 0
ARC
 8
TOOL_0
 5
170
 10
7219.462
 20
238.252
 30
0
 40
35.0
 50
0
 51
180.0
210
0
220
0
230
1.0
 0
ARC
 8
TOOL_0
 5
171
 10
7219.462
 20
238.252
 30
0
 40
35.0
 50
180.0
 51
0
210
0
220
0
230
1.0
 0
LINE
 8
TOOL_0
 5
172
 10
7254.462
 20
238.252
 30
0
 11
7247.391
 21
245.323
 31
0
 0
LINE
 8
TOOL_0
 5
173
 10
7247.391
 20
245.323
 30
0
 11
7529.462
 21
838.252
 31
0
 0
LINE
 8
TOOL_0
 5
174
 10
7529.462
 20
838.252
 30
0
 11
7559.462
 21
838.252
 31
0
 0
ARC
 8
TOOL_0
 5
175
 10
7524.462
 20
838.252
 30
0
 40
35.0
 50
0
 51
180.0
210
0
220
0
230
1.0
 0
ARC
 8
TOOL_0
 5
176
 10
7524.462
 20
838.252
 30
0
 40
35.0
 50
180.0
 51
0
210
0
220
0
230
1.0
 0
LINE
 8
TOOL_0
 5
177
 10
7559.462
 20
838.252
 30
0
 11
7552.391
 21
845.323
 31
0
 0
LINE
 8
TOOL_0
 5
178
 10
7552.391
 20
845.323
 30
0
 11
8079.462
 21
238.252
 31
0
 0
LINE
 8
TOOL_0
 5
179
 10
8079.462
 20
238.252
 30
0
 11
8109.462
 21
238.252
 31
0
 0
ARC
 8
TOOL_0
 5
17A
 10
8074.462
 20
238.252
 30
0
 40
35.0
 50
0
 51
180.0
210
0
220
0
230
1.0
 0
ARC
 8
TOOL_0
 5
17B
 10
8074.462
 20
238.252
 30
0
 40
35.0
 50
180.0
 51
0
210
0
220
0
230
1.0
 0
LINE
 8
TOOL_0
 5
17C
 10
8109.462
 20
238.252
 30
0
 11
8102.391
 21
245.323
 31
0
 0
LINE
 8
TOOL_0
 5
17D
 10
8102.391
 20
245.323
 30
0
 11
8629.462
 21
838.252
 31
0
 0
LINE
 8
TOOL_0
 5
17E
 10
8629.462
 20
838.252
 30
0
 11
8659.462
 21
838.252
 31
0
 0
ARC
 8
TOOL_0
 5
17F
 10
8624.462
 20
838.252
 30
0
 40
35.0
 50
0
 51
180.0
210
0
220
0
230
1.0
 0
ARC
 8
TOOL_0
 5
180
 10
8624.462
 20
838.252
 30
0
 40
35.0
 50
180.0
 51
0
210
0
220
0
230
1.0
 0
LINE
 8
TOOL_0
 5
181
 10
8659.462
 20
838.252
 30
0
 11
8652.391
 21
845.323
 31
0
 0
LINE
 8
TOOL_0
 5
182
 10
8652.391
 20
845.323
 30
0
 11
8934.462
 21
238.252
 31
0
 0
LINE
 8
TOOL_0
 5
183
 10
8934.462
 20
238.252
 30
0
 11
8964.462
 21
238.252
 31
0
 0
ARC
 8
TOOL_0
 5
184
 10
8929.462
 20
238.252
 30
0
 40
35.0
 50
0
 51
180.0
210
0
220
0
230
1.0
 0
ARC
 8
TOOL_0
 5
185
 10
8929.462
 20
238.252
 30
0
 40
35.0
 50
180.0
 51
0
210
0
220
0
230
1.0
 0
LINE
 8
TOOL_0
 5
186
 10
8964.462
 20
238.252
 30
0
 11
8957.391
 21
245.323
 31
0
 0
LINE
 8
TOOL_0
 5
187
 10
8957.391
 20
245.323
 30
0
 11
9392.462
 21
290.842
 31
0
 0
LINE
 8
TOOL_0
 5
188
 10
9392.462
 20
290.842
 30
0
 11
9422.462
 21
290.842
 31
0
 0
LINE
 8
TOOL_0
 5
189
 10
9422.462
 20
290.842
 30
0
 11
9422.462
 21
323.342
 31
0
 0
ARC
 8
TOOL_0
 5
18A
 10
9414.462
 20
323.342
 30
0
 40
8.0
 50
0
 51
180.0
210
0
220
0
230
1.0
 0
LINE
 8
TOOL_0
 5
18B
 10
9406.462
 20
323.342
 30
0
 11
9406.462
 21
310.342
 31
0
 0
LINE
 8
TOOL_0
 5
18C
 10
9406.462
 20
310.342
 30
0
 11
9352.462
 21
310.342
 31
0
 0
LINE
 8
TOOL_0
 5
18D
 10
9352.462
 20
310.342
 30
0
 11
9352.462
 21
323.342
 31
0
 0
ARC
 8
TOOL_0
 5
18E
 10
9344.462
 20
323.342
 30
0
 40
8.0
 50
0
 51
180.0
210
0
220
0
230
1.0
 0
LINE
 8
TOOL_0
 5
18F
 10
9336.462
 20
323.342
 30
0
 11
9336.462
 21
258.342
 31
0
 0
ARC
 8
TOOL_0
 5
190
 10
9351.462
 20
258.342
 30
0
 40
15.0
 50
180.0
 51
270.0
210
0
220
0
230
1.0
 0
LINE
 8
TOOL_0
 5
191
 10
9351.462
 20
243.342
 30
0
 11
9407.462
 21
243.342
 31
0
 0
ARC
 8
TOOL_0
 5
192
 10
9407.462
 20
258.342
 30
0
 40
15.0
 50
270.0
 51
0
210
0
220
0
230
1.0
 0
LINE
 8
TOOL_0
 5
193
 10
9422.462
 20
258.342
 30
0
 11
9422.462
 21
290.842
 31
0
 0
LINE
 8
TOOL_0
 5
194
 10
9422.462
 20
290.842
 30
0
 11
9415.391
 21
297.913
 31
0
 0
LINE
 8
TOOL_0
 5
195
 10
9415.391
 20
297.913
 30
0
 11
9642.317
 21
9.502
 31
0
 0
LINE
 8
TOOL_0
 5
196
 10
9642.317
 20
9.502
 30
0
 11
9612.212
 21
9.502
 31
0
 0
LINE
 8
TOOL_0
 5
197
 10
9612.212
 20
9.502
 30
0
 11
6536.712
 21
9.502
 31
0
 0
LINE
 8
TOOL_0
 5
198
 10
6536.712
 20
9.502
 30
0
 11
6536.712
 21
112.252
 31
0
 0
LINE
 8
TOOL_0
 5
199
 10
6536.712
 20
112.252
 30
0
 11
6542.712
 21
112.252
 31
0
 0
LINE
 8
TOOL_0
 5
19A
 10
6542.712
 20
112.252
 30
0
 11
6542.712
 21
190.252
 31
0
 0
ARC
 8
TOOL_0
 5
19B
 10
6517.712
 20
190.252
 30
0
 40
25.0
 50
0
 51
90.0
210
0
220
0
230
1.0
 0
LINE
 8
TOOL_0
 5
19C
 10
6517.712
 20
215.252
 30
0
 11
6465.212
 21
215.252
 31
0
 0
LINE
 8
TOOL_0
 5
19D
 10
6465.212
 20
215.252
 30
0
 11
6465.212
 21
990.002
 31
0
 0
LINE
 8
TOOL_0
 5
19E
 10
6465.212
 20
990.002
 30
0
 11
6548.715
 21
990.002
 31
0
 0
LINE
 8
TOOL_0
 5
19F
 10
6548.715
 20
990.002
 30
0
 11
6620.556
 21
491.553
 31
0
 0
ARC
 8
TOOL_0
 5
1A0
 10
6694.789
 20
502.252
 30
0
 40
75.000045933319
 50
188.201407381131
 51
270.0
210
0
220
0
230
1.0
 0
LINE
 8
TOOL_0
 5
1A1
 10
6694.789
 20
427.252
 30
0
 11
6885.329
 21
427.252
 31
0
 0
ARC
 8
TOOL_0
 5
1A2
 10
6885.329
 20
502.252
 30
0
 40
75.0
 50
270.0
 51
319.999877753997
210
0
220
0
230
1.0
 0
LINE
 8
TOOL_0
 5
1A3
 10
6942.782
 20
454.043
 30
0
 11
7333.186
 21
919.308
 31
0
 0
LINE
 8
TOOL_0
 5
1A4
 10
7333.186
 20
919.308
 30
0
 11
7328.59
 21
923.165
 31
0
 0
LINE
 8
TOOL_0
 5
1A5
 10
7328.59
 20
923.165
 30
0
 11
7073.713
 21
619.415
 31
0
 0
LINE
 8
TOOL_0
 5
1A6
 10
7073.713
 20
619.415
 30
0
 11
7073.713
 21
990.003
 31
0
 0
LINE
 8
TOOL_0
 5
1A7
 10
7073.713
 20
990.003
 30
0
 11
9075.213
 21
990.003
 31
0
 0
LINE
 8
TOOL_0
 5
1A8
 10
9075.213
 20
990.003
 30
0
 11
9075.213
 21
619.415
 31
0
 0
LINE
 8
TOOL_0
 5
1A9
 10
9075.213
 20
619.415
 30
0
 11
8820.336
 21
923.165
 31
0
 0
LINE
 8
TOOL_0
 5
1AA
 10
8820.336
 20
923.165
 30
0
 11
8815.74
 21
919.308
 31
0
 0
LINE
 8
TOOL_0
 5
1AB
 10
8815.74
 20
919.308
 30
0
 11
9206.144
 21
454.043
 31
0
 0
ARC
 8
TOOL_0
 5
1AC
 10
9263.597
 20
502.252
 30
0
 40
74.999699266063
 50
220.000122246003
 51
270.0
210
0
220
0
230
1.0
 0
LINE
 8
TOOL_0
 5
1AD
 10
9263.597
 20
427.252
 30
0
 11
9454.137
 21
427.252
 31
0
 0
ARC
 8
TOOL_0
 5
1AE
 10
9454.137
 20
502.252
 30
0
 40
75.0
 50
270.0
 51
351.798592618869
210
0
220
0
230
1.0
 0
LINE
 8
TOOL_0
 5
1AF
 10
9528.37
 20
491.553
 30
0
 11
9600.211
 21
990.002
 31
0
 0
LINE
 8
TOOL_0
 5
1B0
 10
9600.211
 20
990.002
 30
0
 11
9683.714
 21
990.002
 31
0
 0
LINE
 8
TOOL_0
 5
1B1
 10
9683.714
 20
990.002
 30
0
 11
9683.714
 21
215.252
 31
0
 0
LINE
 8
TOOL_0
 5
1B2
 10
9683.714
 20
215.252
 30
0
 11
9631.214
 21
215.252
 31
0
 0
ARC
 8
TOOL_0
 5
1B3
 10
9631.214
 20
190.252
 30
0
 40
25.0
 50
90.0
 51
180.0
210
0
220
0
230
1.0
 0
LINE
 8
TOOL_0
 5
1B4
 10
9606.214
 20
190.252
 30
0
 11
9606.214
 21
112.252
 31
0
 0
LINE
 8
TOOL_0
 5
1B5
 10
9606.214
 20
112.252
 30
0
 11
9612.214
 21
112.252
 31
0
 0
LINE
 8
TOOL_0
 5
1B6
 10
9612.214
 20
112.252
 30
0
 11
9612.214
 21
9.502
 31
0
 0
LINE
 8
TOOL_0
 5
1B7
 10
9612.214
 20
9.502
 30
0
 11
9612.214
 21
4.315
 31
0
 0
LINE
 8
TOOL_0
 5
1B8
 10
9612.214
 20
4.315
 30
0
 11
6782.464
 21
1698.696
 31
0
 0
LINE
 8
TOOL_0
 5
1B9
 10
6782.464
 20
1698.696
 30
0
 11
6812.464
 21
1698.696
 31
0
 0
LINE
 8
TOOL_0
 5
1BA
 10
6812.464
 20
1698.696
 30
0
 11
6812.464
 21
1731.196
 31
0
 0
ARC
 8
TOOL_0
 5
1BB
 10
6797.464
 20
1731.196
 30
0
 40
15.0
 50
0
 51
90.0
210
0
220
0
230
1.0
 0
LINE
 8
TOOL_0
 5
1BC
 10
6797.464
 20
1746.196
 30
0
 11
6741.464
 21
1746.196
 31
0
 0
ARC
 8
TOOL_0
 5
1BD
 10
6741.464
 20
1731.196
 30
0
 40
15.0
 50
90.0
 51
180.0
210
0
220
0
230
1.0
 0
LINE
 8
TOOL_0
 5
1BE
 10
6726.464
 20
1731.196
 30
0
 11
6726.464
 21
1666.196
 31
0
 0
ARC
 8
TOOL_0
 5
1BF
 10
6734.464
 20
1666.196
 30
0
 40
8.0
 50
180.0
 51
0
210
0
220
0
230
1.0
 0
LINE
 8
TOOL_0
 5
1C0
 10
6742.464
 20
1666.196
 30
0
 11
6742.464
 21
1679.196
 31
0
 0
LINE
 8
TOOL_0
 5
1C1
 10
6742.464
 20
1679.196
 30
0
 11
6796.464
 21
1679.196
 31
0
 0
LINE
 8
TOOL_0
 5
1C2
 10
6796.464
 20
1679.196
 30
0
 11
6796.464
 21
1666.196
 31
0
 0
ARC
 8
TOOL_0
 5
1C3
 10
6804.464
 20
1666.196
 30
0
 40
8.0
 50
180.0
 51
0
210
0
220
0
230
1.0
 0
LINE
 8
TOOL_0
 5
1C4
 10
6812.464
 20
1666.196
 30
0
 11
6812.464
 21
1698.696
 31
0
 0
LINE
 8
TOOL_0
 5
1C5
 10
6812.464
 20
1698.696
 30
0
 11
6805.393
 21
1705.767
 31
0
 0
LINE
 8
TOOL_0
 5
1C6
 10
6805.393
 20
1705.767
 30
0
 11
7224.464
 21
1751.286
 31
0
 0
LINE
 8
TOOL_0
 5
1C7
 10
7224.464
 20
1751.286
 30
0
 11
7254.464
 21
1751.286
 31
0
 0
ARC
 8
TOOL_0
 5
1C8
 10
7219.464
 20
1751.286
 30
0
 40
35.0
 50
0
 51
180.0
210
0
220
0
230
1.0
 0
ARC
 8
TOOL_0
 5
1C9
 10
7219.464
 20
1751.286
 30
0
 40
35.0
 50
180.0
 51
0
210
0
220
0
230
1.0
 0
LINE
 8
TOOL_0
 5
1CA
 10
7254.464
 20
1751.286
 30
0
 11
7247.393
 21
1758.357
 31
0
 0
LINE
 8
TOOL_0
 5
1CB
 10
7247.393
 20
1758.357
 30
0
 11
7529.464
 21
1151.286
 31
0
 0
LINE
 8
TOOL_0
 5
1CC
 10
7529.464
 20
1151.286
 30
0
 11
7559.464
 21
1151.286
 31
0
 0
ARC
 8
TOOL_0
 5
1CD
 10
7524.464
 20
1151.286
 30
0
 40
35.0
 50
0
 51
180.0
210
0
220
0
230
1.0
 0
ARC
 8
TOOL_0
 5
1CE
 10
7524.464
 20
1151.286
 30
0
 40
35.0
 50
180.0
 51
0
210
0
220
0
230
1.0
 0
LINE
 8
TOOL_0
 5
1CF
 10
7559.464
 20
1151.286
 30
0
 11
7552.393
 21
1158.357
 31
0
 0
LINE
 8
TOOL_0
 5
1D0
 10
7552.393
 20
1158.357
 30
0
 11
8079.464
 21
1751.286
 31
0
 0
LINE
 8
TOOL_0
 5
1D1
 10
8079.464
 20
1751.286
 30
0
 11
8109.464
 21
1751.286
 31
0
 0
ARC
 8
TOOL_0
 5
1D2
 10
8074.464
 20
1751.286
 30
0
 40
35.0
 50
0
 51
180.0
210
0
220
0
230
1.0
 0
ARC
 8
TOOL_0
 5
1D3
 10
8074.464
 20
1751.286
 30
0
 40
35.0
 50
180.0
 51
0
210
0
220
0
230
1.0
 0
LINE
 8
TOOL_0
 5
1D4
 10
8109.464
 20
1751.286
 30
0
 11
8102.393
 21
1758.357
 31
0
 0
LINE
 8
TOOL_0
 5
1D5
 10
8102.393
 20
1758.357
 30
0
 11
8629.464
 21
1151.286
 31
0
 0
LINE
 8
TOOL_0
 5
1D6
 10
8629.464
 20
1151.286
 30
0
 11
8659.464
 21
1151.286
 31
0
 0
ARC
 8
TOOL_0
 5
1D7
 10
8624.464
 20
1151.286
 30
0
 40
35.0
 50
0
 51
180.0
210
0
220
0
230
1.0
 0
ARC
 8
TOOL_0
 5
1D8
 10
8624.464
 20
1151.286
 30
0
 40
35.0
 50
180.0
 51
0
210
0
220
0
230
1.0
 0
LINE
 8
TOOL_0
 5
1D9
 10
8659.464
 20
1151.286
 30
0
 11
8652.393
 21
1158.357
 31
0
 0
LINE
 8
TOOL_0
 5
1DA
 10
8652.393
 20
1158.357
 30
0
 11
8934.464
 21
1751.286
 31
0
 0
LINE
 8
TOOL_0
 5
1DB
 10
8934.464
 20
1751.286
 30
0
 11
8964.464
 21
1751.286
 31
0
 0
ARC
 8
TOOL_0
 5
1DC
 10
8929.464
 20
1751.286
 30
0
 40
35.0
 50
0
 51
180.0
210
0
220
0
230
1.0
 0
ARC
 8
TOOL_0
 5
1DD
 10
8929.464
 20
1751.286
 30
0
 40
35.0
 50
180.0
 51
0
210
0
220
0
230
1.0
 0
LINE
 8
TOOL_0
 5
1DE
 10
8964.464
 20
1751.286
 30
0
 11
8957.393
 21
1758.357
 31
0
 0
LINE
 8
TOOL_0
 5
1DF
 10
8957.393
 20
1758.357
 30
0
 11
9392.464
 21
1698.696
 31
0
 0
LINE
 8
TOOL_0
 5
1E0
 10
9392.464
 20
1698.696
 30
0
 11
9422.464
 21
1698.696
 31
0
 0
LINE
 8
TOOL_0
 5
1E1
 10
9422.464
 20
1698.696
 30
0
 11
9422.464
 21
1731.196
 31
0
 0
ARC
 8
TOOL_0
 5
1E2
 10
9407.464
 20
1731.196
 30
0
 40
15.0
 50
0
 51
90.0
210
0
220
0
230
1.0
 0
LINE
 8
TOOL_0
 5
1E3
 10
9407.464
 20
1746.196
 30
0
 11
9351.464
 21
1746.196
 31
0
 0
ARC
 8
TOOL_0
 5
1E4
 10
9351.464
 20
1731.196
 30
0
 40
15.0
 50
90.0
 51
180.0
210
0
220
0
230
1.0
 0
LINE
 8
TOOL_0
 5
1E5
 10
9336.464
 20
1731.196
 30
0
 11
9336.464
 21
1666.196
 31
0
 0
ARC
 8
TOOL_0
 5
1E6
 10
9344.464
 20
1666.196
 30
0
 40
8.0
 50
180.0
 51
0
210
0
220
0
230
1.0
 0
LINE
 8
TOOL_0
 5
1E7
 10
9352.464
 20
1666.196
 30
0
 11
9352.464
 21
1679.196
 31
0
 0
LINE
 8
TOOL_0
 5
1E8
 10
9352.464
 20
1679.196
 30
0
 11
9406.464
 21
1679.196
 31
0
 0
LINE
 8
TOOL_0
 5
1E9
 10
9406.464
 20
1679.196
 30
0
 11
9406.464
 21
1666.196
 31
0
 0
ARC
 8
TOOL_0
 5
1EA
 10
9414.464
 20
1666.196
 30
0
 40
8.0
 50
180.0
 51
0
210
0
220
0
230
1.0
 0
LINE
 8
TOOL_0
 5
1EB
 10
9422.464
 20
1666.196
 30
0
 11
9422.464
 21
1698.696
 31
0
 0
LINE
 8
TOOL_0
 5
1EC
 10
9422.464
 20
1698.696
 30
0
 11
9415.393
 21
1705.767
 31
0
 0
LINE
 8
TOOL_0
 5
1ED
 10
9415.393
 20
1705.767
 30
0
 11
9106.181
 21
999.536
 31
0
 0
LINE
 8
TOOL_0
 5
1EE
 10
9106.181
 20
999.536
 30
0
 11
9075.214
 21
999.536
 31
0
 0
LINE
 8
TOOL_0
 5
1EF
 10
9075.214
 20
999.536
 30
0
 11
7073.714
 21
999.536
 31
0
 0
LINE
 8
TOOL_0
 5
1F0
 10
7073.714
 20
999.536
 30
0
 11
7073.714
 21
1370.124
 31
0
 0
LINE
 8
TOOL_0
 5
1F1
 10
7073.714
 20
1370.124
 30
0
 11
7328.591
 21
1066.374
 31
0
 0
LINE
 8
TOOL_0
 5
1F2
 10
7328.591
 20
1066.374
 30
0
 11
7333.187
 21
1070.231
 31
0
 0
LINE
 8
TOOL_0
 5
1F3
 10
7333.187
 20
1070.231
 30
0
 11
6942.783
 21
1535.496
 31
0
 0
ARC
 8
TOOL_0
 5
1F4
 10
6885.33
 20
1487.287
 30
0
 40
74.999699266064
 50
40.000122246003
 51
90.0
210
0
220
0
230
1.0
 0
LINE
 8
TOOL_0
 5
1F5
 10
6885.33
 20
1562.287
 30
0
 11
6694.79
 21
1562.287
 31
0
 0
ARC
 8
TOOL_0
 5
1F6
 10
6694.79
 20
1487.287
 30
0
 40
75.0
 50
90.0
 51
171.798592618868
210
0
220
0
230
1.0
 0
LINE
 8
TOOL_0
 5
1F7
 10
6620.557
 20
1497.986
 30
0
 11
6548.716
 21
999.537
 31
0
 0
LINE
 8
TOOL_0
 5
1F8
 10
6548.716
 20
999.537
 30
0
 11
6465.213
 21
999.537
 31
0
 0
LINE
 8
TOOL_0
 5
1F9
 10
6465.213
 20
999.537
 30
0
 11
6465.213
 21
1774.287
 31
0
 0
LINE
 8
TOOL_0
 5
1FA
 10
6465.213
 20
1774.287
 30
0
 11
6517.713
 21
1774.287
 31
0
 0
ARC
 8
TOOL_0
 5
1FB
 10
6517.713
 20
1799.287
 30
0
 40
25.0
 50
270.0
 51
0
210
0
220
0
230
1.0
 0
LINE
 8
TOOL_0
 5
1FC
 10
6542.713
 20
1799.287
 30
0
 11
6542.713
 21
1877.287
 31
0
 0
LINE
 8
TOOL_0
 5
1FD
 10
6542.713
 20
1877.287
 30
0
 11
6536.713
 21
1877.287
 31
0
 0
LINE
 8
TOOL_0
 5
1FE
 10
6536.713
 20
1877.287
 30
0
 11
6536.713
 21
1980.037
 31
0
 0
LINE
 8
TOOL_0
 5
1FF
 10
6536.713
 20
1980.037
 30
0
 11
9612.213
 21
1980.037
 31
0
 0
LINE
 8
TOOL_0
 5
200
 10
9612.213
 20
1980.037
 30
0
 11
9612.213
 21
1877.287
 31
0
 0
LINE
 8
TOOL_0
 5
201
 10
9612.213
 20
1877.287
 30
0
 11
9606.213
 21
1877.287
 31
0
 0
LINE
 8
TOOL_0
 5
202
 10
9606.213
 20
1877.287
 30
0
 11
9606.213
 21
1799.287
 31
0
 0
ARC
 8
TOOL_0
 5
203
 10
9631.213
 20
1799.287
 30
0
 40
25.0
 50
180.0
 51
270.0
210
0
220
0
230
1.0
 0
LINE
 8
TOOL_0
 5
204
 10
9631.213
 20
1774.287
 30
0
 11
9683.713
 21
1774.287
 31
0
 0
LINE
 8
TOOL_0
 5
205
 10
9683.713
 20
1774.287
 30
0
 11
9683.713
 21
999.537
 31
0
 0
LINE
 8
TOOL_0
 5
206
 10
9683.713
 20
999.537
 30
0
 11
9600.21
 21
999.537
 31
0
 0
LINE
 8
TOOL_0
 5
207
 10
9600.21
 20
999.537
 30
0
 11
9528.369
 21
1497.986
 31
0
 0
ARC
 8
TOOL_0
 5
208
 10
9454.136
 20
1487.287
 30
0
 40
75.000045933319
 50
8.201407381132
 51
90.0
210
0
220
0
230
1.0
 0
LINE
 8
TOOL_0
 5
209
 10
9454.136
 20
1562.287
 30
0
 11
9263.596
 21
1562.287
 31
0
 0
ARC
 8
TOOL_0
 5
20A
 10
9263.596
 20
1487.287
 30
0
 40
75.0
 50
90.0
 51
139.999877753997
210
0
220
0
230
1.0
 0
LINE
 8
TOOL_0
 5
20B
 10
9206.143
 20
1535.496
 30
0
 11
8815.739
 21
1070.231
 31
0
 0
LINE
 8
TOOL_0
 5
20C
 10
8815.739
 20
1070.231
 30
0
 11
8820.335
 21
1066.374
 31
0
 0
LINE
 8
TOOL_0
 5
20D
 10
8820.335
 20
1066.374
 30
0
 11
9075.212
 21
1370.124
 31
0
 0
LINE
 8
TOOL_0
 5
20E
 10
9075.212
 20
1370.124
 30
0
 11
9075.212
 21
999.536
 31
0
 0
LINE
 8
TOOL_0
 5
20F
 10
9075.212
 20
999.536
 30
0
 11
9075.212
 21
994.486
 31
0
 0
LINE
 8
TOOL_0
 5
210
 10
9075.212
 20
994.486
 30
0
 11
10010.368
 21
290.842
 31
0
 0
LINE
 8
TOOL_0
 5
211
 10
10010.368
 20
290.842
 30
0
 11
10040.368
 21
290.842
 31
0
 0
LINE
 8
TOOL_0
 5
212
 10
10040.368
 20
290.842
 30
0
 11
10040.368
 21
323.342
 31
0
 0
ARC
 8
TOOL_0
 5
213
 10
10032.368
 20
323.342
 30
0
 40
8.0
 50
0
 51
180.0
210
0
220
0
230
1.0
 0
LINE
 8
TOOL_0
 5
214
 10
10024.368
 20
323.342
 30
0
 11
10024.368
 21
310.342
 31
0
 0
LINE
 8
TOOL_0
 5
215
 10
10024.368
 20
310.342
 30
0
 11
9970.368
 21
310.342
 31
0
 0
LINE
 8
TOOL_0
 5
216
 10
9970.368
 20
310.342
 30
0
 11
9970.368
 21
323.342
 31
0
 0
ARC
 8
TOOL_0
 5
217
 10
9962.368
 20
323.342
 30
0
 40
8.0
 50
0
 51
180.0
210
0
220
0
230
1.0
 0
LINE
 8
TOOL_0
 5
218
 10
9954.368
 20
323.342
 30
0
 11
9954.368
 21
258.342
 31
0
 0
ARC
 8
TOOL_0
 5
219
 10
9969.368
 20
258.342
 30
0
 40
15.0
 50
180.0
 51
270.0
210
0
220
0
230
1.0
 0
LINE
 8
TOOL_0
 5
21A
 10
9969.368
 20
243.342
 30
0
 11
10025.368
 21
243.342
 31
0
 0
ARC
 8
TOOL_0
 5
21B
 10
10025.368
 20
258.342
 30
0
 40
15.0
 50
270.0
 51
0
210
0
220
0
230
1.0
 0
LINE
 8
TOOL_0
 5
21C
 10
10040.368
 20
258.342
 30
0
 11
10040.368
 21
290.842
 31
0
 0
LINE
 8
TOOL_0
 5
21D
 10
10040.368
 20
290.842
 30
0
 11
10033.297
 21
297.913
 31
0
 0
LINE
 8
TOOL_0
 5
21E
 10
10033.297
 20
297.913
 30
0
 11
10452.368
 21
238.252
 31
0
 0
LINE
 8
TOOL_0
 5
21F
 10
10452.368
 20
238.252
 30
0
 11
10482.368
 21
238.252
 31
0
 0
ARC
 8
TOOL_0
 5
220
 10
10447.368
 20
238.252
 30
0
 40
35.0
 50
0
 51
180.0
210
0
220
0
230
1.0
 0
ARC
 8
TOOL_0
 5
221
 10
10447.368
 20
238.252
 30
0
 40
35.0
 50
180.0
 51
0
210
0
220
0
230
1.0
 0
LINE
 8
TOOL_0
 5
222
 10
10482.368
 20
238.252
 30
0
 11
10475.297
 21
245.323
 31
0
 0
LINE
 8
TOOL_0
 5
223
 10
10475.297
 20
245.323
 30
0
 11
10757.368
 21
838.252
 31
0
 0
LINE
 8
TOOL_0
 5
224
 10
10757.368
 20
838.252
 30
0
 11
10787.368
 21
838.252
 31
0
 0
ARC
 8
TOOL_0
 5
225
 10
10752.368
 20
838.252
 30
0
 40
35.0
 50
0
 51
180.0
210
0
220
0
230
1.0
 0
ARC
 8
TOOL_0
 5
226
 10
10752.368
 20
838.252
 30
0
 40
35.0
 50
180.0
 51
0
210
0
220
0
230
1.0
 0
LINE
 8
TOOL_0
 5
227
 10
10787.368
 20
838.252
 30
0
 11
10780.297
 21
845.323
 31
0
 0
LINE
 8
TOOL_0
 5
228
 10
10780.297
 20
845.323
 30
0
 11
11307.368
 21
238.252
 31
0
 0
LINE
 8
TOOL_0
 5
229
 10
11307.368
 20
238.252
 30
0
 11
11337.368
 21
238.252
 31
0
 0
ARC
 8
TOOL_0
 5
22A
 10
11302.368
 20
238.252
 30
0
 40
35.0
 50
0
 51
180.0
210
0
220
0
230
1.0
 0
ARC
 8
TOOL_0
 5
22B
 10
11302.368
 20
238.252
 30
0
 40
35.0
 50
180.0
 51
0
210
0
220
0
230
1.0
 0
LINE
 8
TOOL_0
 5
22C
 10
11337.368
 20
238.252
 30
0
 11
11330.297
 21
245.323
 31
0
 0
LINE
 8
TOOL_0
 5
22D
 10
11330.297
 20
245.323
 30
0
 11
11857.368
 21
838.252
 31
0
 0
LINE
 8
TOOL_0
 5
22E
 10
11857.368
 20
838.252
 30
0
 11
11887.368
 21
838.252
 31
0
 0
ARC
 8
TOOL_0
 5
22F
 10
11852.368
 20
838.252
 30
0
 40
35.0
 50
0
 51
180.0
210
0
220
0
230
1.0
 0
ARC
 8
TOOL_0
 5
230
 10
11852.368
 20
838.252
 30
0
 40
35.0
 50
180.0
 51
0
210
0
220
0
230
1.0
 0
LINE
 8
TOOL_0
 5
231
 10
11887.368
 20
838.252
 30
0
 11
11880.297
 21
845.323
 31
0
 0
LINE
 8
TOOL_0
 5
232
 10
11880.297
 20
845.323
 30
0
 11
12162.368
 21
238.252
 31
0
 0
LINE
 8
TOOL_0
 5
233
 10
12162.368
 20
238.252
 30
0
 11
12192.368
 21
238.252
 31
0
 0
ARC
 8
TOOL_0
 5
234
 10
12157.368
 20
238.252
 30
0
 40
35.0
 50
0
 51
180.0
210
0
220
0
230
1.0
 0
ARC
 8
TOOL_0
 5
235
 10
12157.368
 20
238.252
 30
0
 40
35.0
 50
180.0
 51
0
210
0
220
0
230
1.0
 0
LINE
 8
TOOL_0
 5
236
 10
12192.368
 20
238.252
 30
0
 11
12185.297
 21
245.323
 31
0
 0
LINE
 8
TOOL_0
 5
237
 10
12185.297
 20
245.323
 30
0
 11
12620.368
 21
290.842
 31
0
 0
LINE
 8
TOOL_0
 5
238
 10
12620.368
 20
290.842
 30
0
 11
12650.368
 21
290.842
 31
0
 0
LINE
 8
TOOL_0
 5
239
 10
12650.368
 20
290.842
 30
0
 11
12650.368
 21
323.342
 31
0
 0
ARC
 8
TOOL_0
 5
23A
 10
12642.368
 20
323.342
 30
0
 40
8.0
 50
0
 51
180.0
210
0
220
0
230
1.0
 0
LINE
 8
TOOL_0
 5
23B
 10
12634.368
 20
323.342
 30
0
 11
12634.368
 21
310.342
 31
0
 0
LINE
 8
TOOL_0
 5
23C
 10
12634.368
 20
310.342
 30
0
 11
12580.368
 21
310.342
 31
0
 0
LINE
 8
TOOL_0
 5
23D
 10
12580.368
 20
310.342
 30
0
 11
12580.368
 21
323.342
 31
0
 0
ARC
 8
TOOL_0
 5
23E
 10
12572.368
 20
323.342
 30
0
 40
8.0
 50
0
 51
180.0
210
0
220
0
230
1.0
 0
LINE
 8
TOOL_0
 5
23F
 10
12564.368
 20
323.342
 30
0
 11
12564.368
 21
258.342
 31
0
 0
ARC
 8
TOOL_0
 5
240
 10
12579.368
 20
258.342
 30
0
 40
15.0
 50
180.0
 51
270.0
210
0
220
0
230
1.0
 0
LINE
 8
TOOL_0
 5
241
 10
12579.368
 20
243.342
 30
0
 11
12635.368
 21
243.342
 31
0
 0
ARC
 8
TOOL_0
 5
242
 10
12635.368
 20
258.342
 30
0
 40
15.0
 50
270.0
 51
0
210
0
220
0
230
1.0
 0
LINE
 8
TOOL_0
 5
243
 10
12650.368
 20
258.342
 30
0
 11
12650.368
 21
290.842
 31
0
 0
LINE
 8
TOOL_0
 5
244
 10
12650.368
 20
290.842
 30
0
 11
12643.297
 21
297.913
 31
0
 0
LINE
 8
TOOL_0
 5
245
 10
12643.297
 20
297.913
 30
0
 11
12870.223
 21
9.502
 31
0
 0
LINE
 8
TOOL_0
 5
246
 10
12870.223
 20
9.502
 30
0
 11
12840.118
 21
9.502
 31
0
 0
LINE
 8
TOOL_0
 5
247
 10
12840.118
 20
9.502
 30
0
 11
9764.618
 21
9.502
 31
0
 0
LINE
 8
TOOL_0
 5
248
 10
9764.618
 20
9.502
 30
0
 11
9764.618
 21
112.252
 31
0
 0
LINE
 8
TOOL_0
 5
249
 10
9764.618
 20
112.252
 30
0
 11
9770.618
 21
112.252
 31
0
 0
LINE
 8
TOOL_0
 5
24A
 10
9770.618
 20
112.252
 30
0
 11
9770.618
 21
190.252
 31
0
 0
ARC
 8
TOOL_0
 5
24B
 10
9745.618
 20
190.252
 30
0
 40
25.0
 50
0
 51
90.0
210
0
220
0
230
1.0
 0
LINE
 8
TOOL_0
 5
24C
 10
9745.618
 20
215.252
 30
0
 11
9693.118
 21
215.252
 31
0
 0
LINE
 8
TOOL_0
 5
24D
 10
9693.118
 20
215.252
 30
0
 11
9693.118
 21
990.002
 31
0
 0
LINE
 8
TOOL_0
 5
24E
 10
9693.118
 20
990.002
 30
0
 11
9776.621
 21
990.002
 31
0
 0
LINE
 8
TOOL_0
 5
24F
 10
9776.621
 20
990.002
 30
0
 11
9848.462
 21
491.553
 31
0
 0
ARC
 8
TOOL_0
 5
250
 10
9922.695
 20
502.252
 30
0
 40
75.000045933319
 50
188.201407381131
 51
270.0
210
0
220
0
230
1.0
 0
LINE
 8
TOOL_0
 5
251
 10
9922.695
 20
427.252
 30
0
 11
10113.235
 21
427.252
 31
0
 0
ARC
 8
TOOL_0
 5
252
 10
10113.235
 20
502.252
 30
0
 40
75.0
 50
270.0
 51
319.999877753997
210
0
220
0
230
1.0
 0
LINE
 8
TOOL_0
 5
253
 10
10170.688
 20
454.043
 30
0
 11
10561.092
 21
919.308
 31
0
 0
LINE
 8
TOOL_0
 5
254
 10
10561.092
 20
919.308
 30
0
 11
10556.496
 21
923.165
 31
0
 0
LINE
 8
TOOL_0
 5
255
 10
10556.496
 20
923.165
 30
0
 11
10301.619
 21
619.415
 31
0
 0
LINE
 8
TOOL_0
 5
256
 10
10301.619
 20
619.415
 30
0
 11
10301.619
 21
990.003
 31
0
 0
LINE
 8
TOOL_0
 5
257
 10
10301.619
 20
990.003
 30
0
 11
12303.119
 21
990.003
 31
0
 0
LINE
 8
TOOL_0
 5
258
 10
12303.119
 20
990.003
 30
0
 11
12303.119
 21
619.415
 31
0
 0
LINE
 8
TOOL_0
 5
259
 10
12303.119
 20
619.415
 30
0
 11
12048.242
 21
923.165
 31
0
 0
LINE
 8
TOOL_0
 5
25A
 10
12048.242
 20
923.165
 30
0
 11
12043.646
 21
919.308
 31
0
 0
LINE
 8
TOOL_0
 5
25B
 10
12043.646
 20
919.308
 30
0
 11
12434.05
 21
454.043
 31
0
 0
ARC
 8
TOOL_0
 5
25C
 10
12491.503
 20
502.252
 30
0
 40
74.999699266063
 50
220.000122246003
 51
270.0
210
0
220
0
230
1.0
 0
LINE
 8
TOOL_0
 5
25D
 10
12491.503
 20
427.252
 30
0
 11
12682.043
 21
427.252
 31
0
 0
ARC
 8
TOOL_0
 5
25E
 10
12682.043
 20
502.252
 30
0
 40
75.0
 50
270.0
 51
351.798592618869
210
0
220
0
230
1.0
 0
LINE
 8
TOOL_0
 5
25F
 10
12756.276
 20
491.553
 30
0
 11
12828.117
 21
990.002
 31
0
 0
LINE
 8
TOOL_0
 5
260
 10
12828.117
 20
990.002
 30
0
 11
12911.62
 21
990.002
 31
0
 0
LINE
 8
TOOL_0
 5
261
 10
12911.62
 20
990.002
 30
0
 11
12911.62
 21
215.252
 31
0
 0
LINE
 8
TOOL_0
 5
262
 10
12911.62
 20
215.252
 30
0
 11
12859.12
 21
215.252
 31
0
 0
ARC
 8
TOOL_0
 5
263
 10
12859.12
 20
190.252
 30
0
 40
25.0
 50
90.0
 51
180.0
210
0
220
0
230
1.0
 0
LINE
 8
TOOL_0
 5
264
 10
12834.12
 20
190.252
 30
0
 11
12834.12
 21
112.252
 31
0
 0
LINE
 8
TOOL_0
 5
265
 10
12834.12
 20
112.252
 30
0
 11
12840.12
 21
112.252
 31
0
 0
LINE
 8
TOOL_0
 5
266
 10
12840.12
 20
112.252
 30
0
 11
12840.12
 21
9.502
 31
0
 0
LINE
 8
TOOL_0
 5
267
 10
12840.12
 20
9.502
 30
0
 11
12840.12
 21
4.315
 31
0
 0
LINE
 8
TOOL_0
 5
268
 10
12840.12
 20
4.315
 30
0
 11
10011.116
 21
1698.696
 31
0
 0
LINE
 8
TOOL_0
 5
269
 10
10011.116
 20
1698.696
 30
0
 11
10041.116
 21
1698.696
 31
0
 0
LINE
 8
TOOL_0
 5
26A
 10
10041.116
 20
1698.696
 30
0
 11
10041.116
 21
1731.196
 31
0
 0
ARC
 8
TOOL_0
 5
26B
 10
10026.116
 20
1731.196
 30
0
 40
15.0
 50
0
 51
90.0
210
0
220
0
230
1.0
 0
LINE
 8
TOOL_0
 5
26C
 10
10026.116
 20
1746.196
 30
0
 11
9970.116
 21
1746.196
 31
0
 0
ARC
 8
TOOL_0
 5
26D
 10
9970.116
 20
1731.196
 30
0
 40
15.0
 50
90.0
 51
180.0
210
0
220
0
230
1.0
 0
LINE
 8
TOOL_0
 5
26E
 10
9955.116
 20
1731.196
 30
0
 11
9955.116
 21
1666.196
 31
0
 0
ARC
 8
TOOL_0
 5
26F
 10
9963.116
 20
1666.196
 30
0
 40
8.0
 50
180.0
 51
0
210
0
220
0
230
1.0
 0
LINE
 8
TOOL_0
 5
270
 10
9971.116
 20
1666.196
 30
0
 11
9971.116
 21
1679.196
 31
0
 0
LINE
 8
TOOL_0
 5
271
 10
9971.116
 20
1679.196
 30
0
 11
10025.116
 21
1679.196
 31
0
 0
LINE
 8
TOOL_0
 5
272
 10
10025.116
 20
1679.196
 30
0
 11
10025.116
 21
1666.196
 31
0
 0
ARC
 8
TOOL_0
 5
273
 10
10033.116
 20
1666.196
 30
0
 40
8.0
 50
180.0
 51
0
210
0
220
0
230
1.0
 0
LINE
 8
TOOL_0
 5
274
 10
10041.116
 20
1666.196
 30
0
 11
10041.116
 21
1698.696
 31
0
 0
LINE
 8
TOOL_0
 5
275
 10
10041.116
 20
1698.696
 30
0
 11
10034.045
 21
1705.767
 31
0
 0
LINE
 8
TOOL_0
 5
276
 10
10034.045
 20
1705.767
 30
0
 11
10453.116
 21
1751.286
 31
0
 0
LINE
 8
TOOL_0
 5
277
 10
10453.116
 20
1751.286
 30
0
 11
10483.116
 21
1751.286
 31
0
 0
ARC
 8
TOOL_0
 5
278
 10
10448.116
 20
1751.286
 30
0
 40
35.0
 50
0
 51
180.0
210
0
220
0
230
1.0
 0
ARC
 8
TOOL_0
 5
279
 10
10448.116
 20
1751.286
 30
0
 40
35.0
 50
180.0
 51
0
210
0
220
0
230
1.0
 0
LINE
 8
TOOL_0
 5
27A
 10
10483.116
 20
1751.286
 30
0
 11
10476.045
 21
1758.357
 31
0
 0
LINE
 8
TOOL_0
 5
27B
 10
10476.045
 20
1758.357
 30
0
 11
10758.116
 21
1151.286
 31
0
 0
LINE
 8
TOOL_0
 5
27C
 10
10758.116
 20
1151.286
 30
0
 11
10788.116
 21
1151.286
 31
0
 0
ARC
 8
TOOL_0
 5
27D
 10
10753.116
 20
1151.286
 30
0
 40
35.0
 50
0
 51
180.0
210
0
220
0
230
1.0
 0
ARC
 8
TOOL_0
 5
27E
 10
10753.116
 20
1151.286
 30
0
 40
35.0
 50
180.0
 51
0
210
0
220
0
230
1.0
 0
LINE
 8
TOOL_0
 5
27F
 10
10788.116
 20
1151.286
 30
0
 11
10781.045
 21
1158.357
 31
0
 0
LINE
 8
TOOL_0
 5
280
 10
10781.045
 20
1158.357
 30
0
 11
11308.116
 21
1751.286
 31
0
 0
LINE
 8
TOOL_0
 5
281
 10
11308.116
 20
1751.286
 30
0
 11
11338.116
 21
1751.286
 31
0
 0
ARC
 8
TOOL_0
 5
282
 10
11303.116
 20
1751.286
 30
0
 40
35.0
 50
0
 51
180.0
210
0
220
0
230
1.0
 0
ARC
 8
TOOL_0
 5
283
 10
11303.116
 20
1751.286
 30
0
 40
35.0
 50
180.0
 51
0
210
0
220
0
230
1.0
 0
LINE
 8
TOOL_0
 5
284
 10
11338.116
 20
1751.286
 30
0
 11
11331.045
 21
1758.357
 31
0
 0
LINE
 8
TOOL_0
 5
285
 10
11331.045
 20
1758.357
 30
0
 11
11858.116
 21
1151.286
 31
0
 0
LINE
 8
TOOL_0
 5
286
 10
11858.116
 20
1151.286
 30
0
 11
11888.116
 21
1151.286
 31
0
 0
ARC
 8
TOOL_0
 5
287
 10
11853.116
 20
1151.286
 30
0
 40
35.0
 50
0
 51
180.0
210
0
220
0
230
1.0
 0
ARC
 8
TOOL_0
 5
288
 10
11853.116
 20
1151.286
 30
0
 40
35.0
 50
180.0
 51
0
210
0
220
0
230
1.0
 0
LINE
 8
TOOL_0
 5
289
 10
11888.116
 20
1151.286
 30
0
 11
11881.045
 21
1158.357
 31
0
 0
LINE
 8
TOOL_0
 5
28A
 10
11881.045
 20
1158.357
 30
0
 11
12163.116
 21
1751.286
 31
0
 0
LINE
 8
TOOL_0
 5
28B
 10
12163.116
 20
1751.286
 30
0
 11
12193.116
 21
1751.286
 31
0
 0
ARC
 8
TOOL_0
 5
28C
 10
12158.116
 20
1751.286
 30
0
 40
35.0
 50
0
 51
180.0
210
0
220
0
230
1.0
 0
ARC
 8
TOOL_0
 5
28D
 10
12158.116
 20
1751.286
 30
0
 40
35.0
 50
180.0
 51
0
210
0
220
0
230
1.0
 0
LINE
 8
TOOL_0
 5
28E
 10
12193.116
 20
1751.286
 30
0
 11
12186.045
 21
1758.357
 31
0
 0
LINE
 8
TOOL_0
 5
28F
 10
12186.045
 20
1758.357
 30
0
 11
12621.116
 21
1698.696
 31
0
 0
LINE
 8
TOOL_0
 5
290
 10
12621.116
 20
1698.696
 30
0
 11
12651.116
 21
1698.696
 31
0
 0
LINE
 8
TOOL_0
 5
291
 10
12651.116
 20
1698.696
 30
0
 11
12651.116
 21
1731.196
 31
0
 0
ARC
 8
TOOL_0
 5
292
 10
12636.116
 20
1731.196
 30
0
 40
15.0
 50
0
 51
90.0
210
0
220
0
230
1.0
 0
LINE
 8
TOOL_0
 5
293
 10
12636.116
 20
1746.196
 30
0
 11
12580.116
 21
1746.196
 31
0
 0
ARC
 8
TOOL_0
 5
294
 10
12580.116
 20
1731.196
 30
0
 40
15.0
 50
90.0
 51
180.0
210
0
220
0
230
1.0
 0
LINE
 8
TOOL_0
 5
295
 10
12565.116
 20
1731.196
 30
0
 11
12565.116
 21
1666.196
 31
0
 0
ARC
 8
TOOL_0
 5
296
 10
12573.116
 20
1666.196
 30
0
 40
8.0
 50
180.0
 51
0
210
0
220
0
230
1.0
 0
LINE
 8
TOOL_0
 5
297
 10
12581.116
 20
1666.196
 30
0
 11
12581.116
 21
1679.196
 31
0
 0
LINE
 8
TOOL_0
 5
298
 10
12581.116
 20
1679.196
 30
0
 11
12635.116
 21
1679.196
 31
0
 0
LINE
 8
TOOL_0
 5
299
 10
12635.116
 20
1679.196
 30
0
 11
12635.116
 21
1666.196
 31
0
 0
ARC
 8
TOOL_0
 5
29A
 10
12643.116
 20
1666.196
 30
0
 40
8.0
 50
180.0
 51
0
210
0
220
0
230
1.0
 0
LINE
 8
TOOL_0
 5
29B
 10
12651.116
 20
1666.196
 30
0
 11
12651.116
 21
1698.696
 31
0
 0
LINE
 8
TOOL_0
 5
29C
 10
12651.116
 20
1698.696
 30
0
 11
12644.045
 21
1705.767
 31
0
 0
LINE
 8
TOOL_0
 5
29D
 10
12644.045
 20
1705.767
 30
0
 11
12334.834
 21
999.536
 31
0
 0
LINE
 8
TOOL_0
 5
29E
 10
12334.834
 20
999.536
 30
0
 11
12303.866
 21
999.536
 31
0
 0
LINE
 8
TOOL_0
 5
29F
 10
12303.866
 20
999.536
 30
0
 11
10302.366
 21
999.536
 31
0
 0
LINE
 8
TOOL_0
 5
2A0
 10
10302.366
 20
999.536
 30
0
 11
10302.366
 21
1370.124
 31
0
 0
LINE
 8
TOOL_0
 5
2A1
 10
10302.366
 20
1370.124
 30
0
 11
10557.243
 21
1066.374
 31
0
 0
LINE
 8
TOOL_0
 5
2A2
 10
10557.243
 20
1066.374
 30
0
 11
10561.839
 21
1070.231
 31
0
 0
LINE
 8
TOOL_0
 5
2A3
 10
10561.839
 20
1070.231
 30
0
 11
10171.435
 21
1535.496
 31
0
 0
ARC
 8
TOOL_0
 5
2A4
 10
10113.982
 20
1487.287
 30
0
 40
74.999699266063
 50
40.000122246003
 51
90.0
210
0
220
0
230
1.0
 0
LINE
 8
TOOL_0
 5
2A5
 10
10113.982
 20
1562.287
 30
0
 11
9923.442
 21
1562.287
 31
0
 0
ARC
 8
TOOL_0
 5
2A6
 10
9923.442
 20
1487.287
 30
0
 40
75.0
 50
90.0
 51
171.798592618868
210
0
220
0
230
1.0
 0
LINE
 8
TOOL_0
 5
2A7
 10
9849.209
 20
1497.986
 30
0
 11
9777.368
 21
999.537
 31
0
 0
LINE
 8
TOOL_0
 5
2A8
 10
9777.368
 20
999.537
 30
0
 11
9693.865
 21
999.537
 31
0
 0
LINE
 8
TOOL_0
 5
2A9
 10
9693.865
 20
999.537
 30
0
 11
9693.865
 21
1774.287
 31
0
 0
LINE
 8
TOOL_0
 5
2AA
 10
9693.865
 20
1774.287
 30
0
 11
9746.365
 21
1774.287
 31
0
 0
ARC
 8
TOOL_0
 5
2AB
 10
9746.365
 20
1799.287
 30
0
 40
25.0
 50
270.0
 51
0
210
0
220
0
230
1.0
 0
LINE
 8
TOOL_0
 5
2AC
 10
9771.365
 20
1799.287
 30
0
 11
9771.365
 21
1877.287
 31
0
 0
LINE
 8
TOOL_0
 5
2AD
 10
9771.365
 20
1877.287
 30
0
 11
9765.365
 21
1877.287
 31
0
 0
LINE
 8
TOOL_0
 5
2AE
 10
9765.365
 20
1877.287
 30
0
 11
9765.365
 21
1980.037
 31
0
 0
LINE
 8
TOOL_0
 5
2AF
 10
9765.365
 20
1980.037
 30
0
 11
12840.865
 21
1980.037
 31
0
 0
LINE
 8
TOOL_0
 5
2B0
 10
12840.865
 20
1980.037
 30
0
 11
12840.865
 21
1877.287
 31
0
 0
LINE
 8
TOOL_0
 5
2B1
 10
12840.865
 20
1877.287
 30
0
 11
12834.865
 21
1877.287
 31
0
 0
LINE
 8
TOOL_0
 5
2B2
 10
12834.865
 20
1877.287
 30
0
 11
12834.865
 21
1799.287
 31
0
 0
ARC
 8
TOOL_0
 5
2B3
 10
12859.865
 20
1799.287
 30
0
 40
25.0
 50
180.0
 51
270.0
210
0
220
0
230
1.0
 0
LINE
 8
TOOL_0
 5
2B4
 10
12859.865
 20
1774.287
 30
0
 11
12912.365
 21
1774.287
 31
0
 0
LINE
 8
TOOL_0
 5
2B5
 10
12912.365
 20
1774.287
 30
0
 11
12912.365
 21
999.537
 31
0
 0
LINE
 8
TOOL_0
 5
2B6
 10
12912.365
 20
999.537
 30
0
 11
12828.862
 21
999.537
 31
0
 0
LINE
 8
TOOL_0
 5
2B7
 10
12828.862
 20
999.537
 30
0
 11
12757.021
 21
1497.986
 31
0
 0
ARC
 8
TOOL_0
 5
2B8
 10
12682.788
 20
1487.287
 30
0
 40
75.000045933319
 50
8.201407381132
 51
90.0
210
0
220
0
230
1.0
 0
LINE
 8
TOOL_0
 5
2B9
 10
12682.788
 20
1562.287
 30
0
 11
12492.248
 21
1562.287
 31
0
 0
ARC
 8
TOOL_0
 5
2BA
 10
12492.248
 20
1487.287
 30
0
 40
75.0
 50
90.0
 51
139.999877753997
210
0
220
0
230
1.0
 0
LINE
 8
TOOL_0
 5
2BB
 10
12434.795
 20
1535.496
 30
0
 11
12044.391
 21
1070.231
 31
0
 0
LINE
 8
TOOL_0
 5
2BC
 10
12044.391
 20
1070.231
 30
0
 11
12048.987
 21
1066.374
 31
0
 0
LINE
 8
TOOL_0
 5
2BD
 10
12048.987
 20
1066.374
 30
0
 11
12303.864
 21
1370.124
 31
0
 0
LINE
 8
TOOL_0
 5
2BE
 10
12303.864
 20
1370.124
 30
0
 11
12303.864
 21
999.536
 31
0
 0
LINE
 8
TOOL_0
 5
2BF
 10
12303.864
 20
999.536
 30
0
 11
12303.864
 21
994.486
 31
0
 0
ENDSEC
 0
EOF

