0
SECTION
2
TABLES
0
TABLE
2
LAYER
70
0
0
LAYER
2
LAYER_NAME
70
0
62
1
6
CONTINUOUS
0
ENDTAB
0
ENDSEC
 0
SECTION
 2
ENTITIES
 0
LINE
 8
TOOL_0
 5
1
 10
2717.873
 20
452.276
 30
0
 11
2752.873
 21
452.276
 31
0
 0
ARC
 8
TOOL_0
 5
2
 10
2697.873
 20
452.276
 30
0
 40
55.0
 50
0
 51
180.0
210
0
220
0
230
1.0
 0
ARC
 8
TOOL_0
 5
3
 10
2697.873
 20
452.276
 30
0
 40
55.0
 50
180.0
 51
0
210
0
220
0
230
1.0
 0
LINE
 8
TOOL_0
 5
4
 10
2752.873
 20
452.276
 30
0
 11
2722.631
 21
324.933
 31
0
 0
LINE
 8
TOOL_0
 5
5
 10
2722.631
 20
324.933
 30
0
 11
2697.883
 21
349.682
 31
0
 0
LINE
 8
TOOL_0
 5
6
 10
2697.883
 20
349.682
 30
0
 11
2696.373
 21
352.276
 31
0
 0
LINE
 8
TOOL_0
 5
7
 10
2696.373
 20
352.276
 30
0
 11
2392.873
 21
352.276
 31
0
 0
ARC
 8
TOOL_0
 5
8
 10
2392.873
 20
377.276
 30
0
 40
25.0
 50
180.0
 51
270.0
210
0
220
0
230
1.0
 0
LINE
 8
TOOL_0
 5
9
 10
2367.873
 20
377.276
 30
0
 11
2367.873
 21
527.276
 31
0
 0
ARC
 8
TOOL_0
 5
A
 10
2392.873
 20
527.276
 30
0
 40
25.0
 50
90.0
 51
180.0
210
0
220
0
230
1.0
 0
LINE
 8
TOOL_0
 5
B
 10
2392.873
 20
552.276
 30
0
 11
2697.873
 21
552.276
 31
0
 0
ARC
 8
TOOL_0
 5
C
 10
2697.873
 20
452.276
 30
0
 40
100.0
 50
270.858893878826
 51
90.0
210
0
220
0
230
1.0
 0
LINE
 8
TOOL_0
 5
D
 10
2699.372
 20
352.287
 30
0
 11
2697.882
 21
349.681
 31
0
 0
LINE
 8
TOOL_0
 5
E
 10
2697.882
 20
349.681
 30
0
 11
2694.346
 21
346.145
 31
0
 0
LINE
 8
TOOL_0
 5
F
 10
2694.346
 20
346.145
 30
0
 11
2694.346
 21
-0.001
 31
0
 0
LINE
 8
TOOL_0
 5
10
 10
2694.346
 20
-0.001
 30
0
 11
1003.749
 21
445.75
 31
0
 0
LINE
 8
TOOL_0
 5
11
 10
1003.749
 20
445.75
 30
0
 11
1038.749
 21
445.75
 31
0
 0
LINE
 8
TOOL_0
 5
12
 10
1038.749
 20
445.75
 30
0
 11
1038.749
 21
600.75
 31
0
 0
ARC
 8
TOOL_0
 5
13
 10
1018.749
 20
600.75
 30
0
 40
20.0
 50
0
 51
90.0
210
0
220
0
230
1.0
 0
LINE
 8
TOOL_0
 5
14
 10
1018.749
 20
620.75
 30
0
 11
558.749
 21
620.75
 31
0
 0
ARC
 8
TOOL_0
 5
15
 10
558.749
 20
600.75
 30
0
 40
20.0
 50
90.0
 51
180.0
210
0
220
0
230
1.0
 0
LINE
 8
TOOL_0
 5
16
 10
538.749
 20
600.75
 30
0
 11
538.749
 21
290.75
 31
0
 0
ARC
 8
TOOL_0
 5
17
 10
558.749
 20
290.75
 30
0
 40
20.0
 50
180.0
 51
270.0
210
0
220
0
230
1.0
 0
LINE
 8
TOOL_0
 5
18
 10
558.749
 20
270.75
 30
0
 11
1018.749
 21
270.75
 31
0
 0
ARC
 8
TOOL_0
 5
19
 10
1018.749
 20
290.75
 30
0
 40
20.0
 50
270.0
 51
0
210
0
220
0
230
1.0
 0
LINE
 8
TOOL_0
 5
1A
 10
1038.749
 20
290.75
 30
0
 11
1038.749
 21
445.75
 31
0
 0
LINE
 8
TOOL_0
 5
1B
 10
1038.749
 20
445.75
 30
0
 11
2033.749
 21
445.75
 31
0
 0
LINE
 8
TOOL_0
 5
1C
 10
2033.749
 20
445.75
 30
0
 11
2068.749
 21
445.75
 31
0
 0
LINE
 8
TOOL_0
 5
1D
 10
2068.749
 20
445.75
 30
0
 11
2068.749
 21
600.75
 31
0
 0
ARC
 8
TOOL_0
 5
1E
 10
2048.749
 20
600.75
 30
0
 40
20.0
 50
0
 51
90.0
210
0
220
0
230
1.0
 0
LINE
 8
TOOL_0
 5
1F
 10
2048.749
 20
620.75
 30
0
 11
1638.749
 21
620.75
 31
0
 0
ARC
 8
TOOL_0
 5
20
 10
1638.749
 20
600.75
 30
0
 40
20.0
 50
90.0
 51
180.0
210
0
220
0
230
1.0
 0
LINE
 8
TOOL_0
 5
21
 10
1618.749
 20
600.75
 30
0
 11
1618.749
 21
290.75
 31
0
 0
ARC
 8
TOOL_0
 5
22
 10
1638.749
 20
290.75
 30
0
 40
20.0
 50
180.0
 51
270.0
210
0
220
0
230
1.0
 0
LINE
 8
TOOL_0
 5
23
 10
1638.749
 20
270.75
 30
0
 11
2048.749
 21
270.75
 31
0
 0
ARC
 8
TOOL_0
 5
24
 10
2048.749
 20
290.75
 30
0
 40
20.0
 50
270.0
 51
0
210
0
220
0
230
1.0
 0
LINE
 8
TOOL_0
 5
25
 10
2068.749
 20
290.75
 30
0
 11
2068.749
 21
445.75
 31
0
 0
LINE
 8
TOOL_0
 5
26
 10
2068.749
 20
445.75
 30
0
 11
2873.749
 21
445.75
 31
0
 0
LINE
 8
TOOL_0
 5
27
 10
2873.749
 20
445.75
 30
0
 11
2908.749
 21
445.75
 31
0
 0
LINE
 8
TOOL_0
 5
28
 10
2908.749
 20
445.75
 30
0
 11
2908.749
 21
600.75
 31
0
 0
ARC
 8
TOOL_0
 5
29
 10
2888.749
 20
600.75
 30
0
 40
20.0
 50
0
 51
90.0
210
0
220
0
230
1.0
 0
LINE
 8
TOOL_0
 5
2A
 10
2888.749
 20
620.75
 30
0
 11
2328.749
 21
620.75
 31
0
 0
ARC
 8
TOOL_0
 5
2B
 10
2328.749
 20
600.75
 30
0
 40
20.0
 50
90.0
 51
180.0
210
0
220
0
230
1.0
 0
LINE
 8
TOOL_0
 5
2C
 10
2308.749
 20
600.75
 30
0
 11
2308.749
 21
290.75
 31
0
 0
ARC
 8
TOOL_0
 5
2D
 10
2328.749
 20
290.75
 30
0
 40
20.0
 50
180.0
 51
270.0
210
0
220
0
230
1.0
 0
LINE
 8
TOOL_0
 5
2E
 10
2328.749
 20
270.75
 30
0
 11
2888.749
 21
270.75
 31
0
 0
ARC
 8
TOOL_0
 5
2F
 10
2888.749
 20
290.75
 30
0
 40
20.0
 50
270.0
 51
0
210
0
220
0
230
1.0
 0
LINE
 8
TOOL_0
 5
30
 10
2908.749
 20
290.75
 30
0
 11
2908.749
 21
445.75
 31
0
 0
LINE
 8
TOOL_0
 5
31
 10
2908.749
 20
445.75
 30
0
 11
4023.749
 21
295.75
 31
0
 0
LINE
 8
TOOL_0
 5
32
 10
4023.749
 20
295.75
 30
0
 11
4058.749
 21
295.75
 31
0
 0
LINE
 8
TOOL_0
 5
33
 10
4058.749
 20
295.75
 30
0
 11
4058.749
 21
395.75
 31
0
 0
ARC
 8
TOOL_0
 5
34
 10
4033.749
 20
395.75
 30
0
 40
25.0
 50
0
 51
90.0
210
0
220
0
230
1.0
 0
LINE
 8
TOOL_0
 5
35
 10
4033.749
 20
420.75
 30
0
 11
3963.749
 21
420.75
 31
0
 0
ARC
 8
TOOL_0
 5
36
 10
3963.749
 20
445.75
 30
0
 40
25.0
 50
180.0
 51
270.0
210
0
220
0
230
1.0
 0
LINE
 8
TOOL_0
 5
37
 10
3938.749
 20
445.75
 30
0
 11
3938.749
 21
600.75
 31
0
 0
ARC
 8
TOOL_0
 5
38
 10
3918.749
 20
600.75
 30
0
 40
20.0
 50
0
 51
90.0
210
0
220
0
230
1.0
 0
LINE
 8
TOOL_0
 5
39
 10
3918.749
 20
620.75
 30
0
 11
3733.749
 21
620.75
 31
0
 0
ARC
 8
TOOL_0
 5
3A
 10
3733.749
 20
595.75
 30
0
 40
25.0
 50
90.0
 51
180.0
210
0
220
0
230
1.0
 0
LINE
 8
TOOL_0
 5
3B
 10
3708.749
 20
595.75
 30
0
 11
3708.749
 21
195.75
 31
0
 0
ARC
 8
TOOL_0
 5
3C
 10
3733.749
 20
195.75
 30
0
 40
25.0
 50
180.0
 51
270.0
210
0
220
0
230
1.0
 0
LINE
 8
TOOL_0
 5
3D
 10
3733.749
 20
170.75
 30
0
 11
4033.749
 21
170.75
 31
0
 0
ARC
 8
TOOL_0
 5
3E
 10
4033.749
 20
195.75
 30
0
 40
25.0
 50
270.0
 51
0
210
0
220
0
230
1.0
 0
LINE
 8
TOOL_0
 5
3F
 10
4058.749
 20
195.75
 30
0
 11
4058.749
 21
295.75
 31
0
 0
LINE
 8
TOOL_0
 5
40
 10
4058.749
 20
295.75
 30
0
 11
4463.749
 21
295.75
 31
0
 0
LINE
 8
TOOL_0
 5
41
 10
4463.749
 20
295.75
 30
0
 11
4498.749
 21
295.75
 31
0
 0
LINE
 8
TOOL_0
 5
42
 10
4498.749
 20
295.75
 30
0
 11
4498.749
 21
400.75
 31
0
 0
ARC
 8
TOOL_0
 5
43
 10
4478.749
 20
400.75
 30
0
 40
20.0
 50
0
 51
90.0
210
0
220
0
230
1.0
 0
LINE
 8
TOOL_0
 5
44
 10
4478.749
 20
420.75
 30
0
 11
4218.749
 21
420.75
 31
0
 0
ARC
 8
TOOL_0
 5
45
 10
4218.749
 20
400.75
 30
0
 40
20.0
 50
90.0
 51
180.0
210
0
220
0
230
1.0
 0
LINE
 8
TOOL_0
 5
46
 10
4198.749
 20
400.75
 30
0
 11
4198.749
 21
190.75
 31
0
 0
ARC
 8
TOOL_0
 5
47
 10
4218.749
 20
190.75
 30
0
 40
20.0
 50
180.0
 51
270.0
210
0
220
0
230
1.0
 0
LINE
 8
TOOL_0
 5
48
 10
4218.749
 20
170.75
 30
0
 11
4478.749
 21
170.75
 31
0
 0
ARC
 8
TOOL_0
 5
49
 10
4478.749
 20
190.75
 30
0
 40
20.0
 50
270.0
 51
0
210
0
220
0
230
1.0
 0
LINE
 8
TOOL_0
 5
4A
 10
4498.749
 20
190.75
 30
0
 11
4498.749
 21
295.75
 31
0
 0
LINE
 8
TOOL_0
 5
4B
 10
4498.749
 20
295.75
 30
0
 11
5303.749
 21
445.75
 31
0
 0
LINE
 8
TOOL_0
 5
4C
 10
5303.749
 20
445.75
 30
0
 11
5338.749
 21
445.75
 31
0
 0
LINE
 8
TOOL_0
 5
4D
 10
5338.749
 20
445.75
 30
0
 11
5338.749
 21
600.75
 31
0
 0
ARC
 8
TOOL_0
 5
4E
 10
5318.749
 20
600.75
 30
0
 40
20.0
 50
0
 51
90.0
210
0
220
0
230
1.0
 0
LINE
 8
TOOL_0
 5
4F
 10
5318.749
 20
620.75
 30
0
 11
4868.749
 21
620.75
 31
0
 0
ARC
 8
TOOL_0
 5
50
 10
4868.749
 20
600.75
 30
0
 40
20.0
 50
90.0
 51
180.0
210
0
220
0
230
1.0
 0
LINE
 8
TOOL_0
 5
51
 10
4848.749
 20
600.75
 30
0
 11
4848.749
 21
290.75
 31
0
 0
ARC
 8
TOOL_0
 5
52
 10
4868.749
 20
290.75
 30
0
 40
20.0
 50
180.0
 51
270.0
210
0
220
0
230
1.0
 0
LINE
 8
TOOL_0
 5
53
 10
4868.749
 20
270.75
 30
0
 11
5318.749
 21
270.75
 31
0
 0
ARC
 8
TOOL_0
 5
54
 10
5318.749
 20
290.75
 30
0
 40
20.0
 50
270.0
 51
0
210
0
220
0
230
1.0
 0
LINE
 8
TOOL_0
 5
55
 10
5338.749
 20
290.75
 30
0
 11
5338.749
 21
445.75
 31
0
 0
LINE
 8
TOOL_0
 5
56
 10
5338.749
 20
445.75
 30
0
 11
6153.749
 21
434.579
 31
0
 0
LINE
 8
TOOL_0
 5
57
 10
6153.749
 20
434.579
 30
0
 11
6188.749
 21
434.579
 31
0
 0
LINE
 8
TOOL_0
 5
58
 10
6188.749
 20
434.579
 30
0
 11
6188.749
 21
600.75
 31
0
 0
ARC
 8
TOOL_0
 5
59
 10
6168.749
 20
600.75
 30
0
 40
20.0
 50
0
 51
90.0
210
0
220
0
230
1.0
 0
LINE
 8
TOOL_0
 5
5A
 10
6168.749
 20
620.75
 30
0
 11
5708.749
 21
620.75
 31
0
 0
ARC
 8
TOOL_0
 5
5B
 10
5708.749
 20
600.75
 30
0
 40
20.0
 50
90.0
 51
180.0
210
0
220
0
230
1.0
 0
LINE
 8
TOOL_0
 5
5C
 10
5688.749
 20
600.75
 30
0
 11
5688.749
 21
290.75
 31
0
 0
ARC
 8
TOOL_0
 5
5D
 10
5708.749
 20
290.75
 30
0
 40
20.0
 50
180.0
 51
270.0
210
0
220
0
230
1.0
 0
LINE
 8
TOOL_0
 5
5E
 10
5708.749
 20
270.75
 30
0
 11
6168.749
 21
270.75
 31
0
 0
ARC
 8
TOOL_0
 5
5F
 10
6168.749
 20
290.75
 30
0
 40
20.0
 50
270.0
 51
0
210
0
220
0
230
1.0
 0
LINE
 8
TOOL_0
 5
60
 10
6188.749
 20
290.75
 30
0
 11
6188.749
 21
434.579
 31
0
 0
LINE
 8
TOOL_0
 5
61
 10
6188.749
 20
434.579
 30
0
 11
6976.003
 21
10.257
 31
0
 0
LINE
 8
TOOL_0
 5
62
 10
6976.003
 20
10.257
 30
0
 11
6919.499
 21
8.0
 31
0
 0
LINE
 8
TOOL_0
 5
63
 10
6919.499
 20
8.0
 30
0
 11
7.999
 21
8.0
 31
0
 0
LINE
 8
TOOL_0
 5
64
 10
7.999
 20
8.0
 30
0
 11
7.999
 21
642.466
 31
0
 0
ARC
 8
TOOL_0
 5
65
 10
28.749
 20
642.466
 30
0
 40
20.75
 50
135.0
 51
180.0
210
0
220
0
230
1.0
 0
LINE
 8
TOOL_0
 5
66
 10
14.077
 20
657.138
 30
0
 11
82.382
 21
725.443
 31
0
 0
ARC
 8
TOOL_0
 5
67
 10
97.034
 20
710.75
 30
0
 40
20.750068746874
 50
90.0
 51
134.919948017329
210
0
220
0
230
1.0
 0
LINE
 8
TOOL_0
 5
68
 10
97.034
 20
731.5
 30
0
 11
6857.5
 21
731.5
 31
0
 0
LINE
 8
TOOL_0
 5
69
 10
6857.5
 20
731.5
 30
0
 11
6857.5
 21
139.98
 31
0
 0
ARC
 8
TOOL_0
 5
6A
 10
6856.75
 20
125.75
 30
0
 40
14.249750875015
 50
86.982985896568
 51
270.0
210
0
220
0
230
1.0
 0
LINE
 8
TOOL_0
 5
6B
 10
6856.75
 20
111.5
 30
0
 11
6919.5
 21
111.5
 31
0
 0
LINE
 8
TOOL_0
 5
6C
 10
6919.5
 20
111.5
 30
0
 11
6919.5
 21
8.0
 31
0
 0
LINE
 8
TOOL_0
 5
6D
 10
6919.5
 20
8.0
 30
0
 11
6920.642
 21
3.808
 31
0
 0
LINE
 8
TOOL_0
 5
6E
 10
6920.642
 20
3.808
 30
0
 11
0
 21
1519.221
 31
0
 0
LINE
 8
TOOL_0
 5
6F
 10
0
 20
1519.221
 30
0
 11
1.0
 21
1519.221
 31
0
 0
LINE
 8
TOOL_0
 5
70
 10
1.0
 20
1519.221
 30
0
 11
1.0
 21
-0.001
 31
0
 0
LINE
 8
TOOL_0
 5
71
 10
1.0
 20
-0.001
 30
0
 11
0
 21
1519.221
 31
0
 0
LINE
 8
TOOL_0
 5
72
 10
0
 20
1519.221
 30
0
 11
1.0
 21
1519.221
 31
0
 0
LINE
 8
TOOL_0
 5
73
 10
1.0
 20
1519.221
 30
0
 11
7399.0
 21
1519.221
 31
0
 0
LINE
 8
TOOL_0
 5
74
 10
7399.0
 20
1519.221
 30
0
 11
7400.0
 21
1519.221
 31
0
 0
ENDSEC
 0
EOF

