0
SECTION
2
TABLES
0
TABLE
2
LAYER
70
0
0
LAYER
2
LAYER_NAME
70
0
62
1
6
CONTINUOUS
0
ENDTAB
0
ENDSEC
 0
SECTION
 2
ENTITIES
 0
LINE
 8
TOOL_0
 5
1
 10
327.645
 20
57.029
 30
0
 11
302.896
 21
32.28
 31
0
 0
LINE
 8
TOOL_0
 5
2
 10
302.896
 20
32.28
 30
0
 11
300.274
 21
30.818
 31
0
 0
ARC
 8
TOOL_0
 5
3
 10
274.818
 20
32.318
 30
0
 40
25.500155607368
 50
270.0
 51
356.627733918772
210
0
220
0
230
1.0
 0
LINE
 8
TOOL_0
 5
4
 10
274.818
 20
6.818
 30
0
 11
225.481
 21
6.818
 31
0
 0
ARC
 8
TOOL_0
 5
5
 10
225.481
 20
32.318
 30
0
 40
25.5
 50
226.41732526033
 51
270.0
210
0
220
0
230
1.0
 0
ARC
 8
TOOL_0
 5
6
 10
154.818
 20
-41.932
 30
0
 40
76.999936188285
 50
46.418144167332
 51
133.581855832668
210
0
220
0
230
1.0
 0
ARC
 8
TOOL_0
 5
7
 10
84.156
 20
32.318
 30
0
 40
25.49972597892
 50
269.997753106687
 51
313.581047116797
210
0
220
0
230
1.0
 0
LINE
 8
TOOL_0
 5
8
 10
84.155
 20
6.818
 30
0
 11
34.818
 21
6.818
 31
0
 0
ARC
 8
TOOL_0
 5
9
 10
34.818
 20
32.318
 30
0
 40
25.5
 50
180.0
 51
270.0
210
0
220
0
230
1.0
 0
LINE
 8
TOOL_0
 5
A
 10
9.318
 20
32.318
 30
0
 11
9.318
 21
166.318
 31
0
 0
ARC
 8
TOOL_0
 5
B
 10
34.818
 20
166.318
 30
0
 40
25.5
 50
90.0
 51
180.0
210
0
220
0
230
1.0
 0
LINE
 8
TOOL_0
 5
C
 10
34.818
 20
191.818
 30
0
 11
274.818
 21
191.818
 31
0
 0
ARC
 8
TOOL_0
 5
D
 10
274.818
 20
166.318
 30
0
 40
25.5
 50
0
 51
90.0
210
0
220
0
230
1.0
 0
LINE
 8
TOOL_0
 5
E
 10
300.318
 20
166.318
 30
0
 11
300.318
 21
33.818
 31
0
 0
LINE
 8
TOOL_0
 5
F
 10
300.318
 20
33.818
 30
0
 11
302.896
 21
32.28
 31
0
 0
LINE
 8
TOOL_0
 5
10
 10
302.896
 20
32.28
 30
0
 11
306.432
 21
28.744
 31
0
 0
LINE
 8
TOOL_0
 5
11
 10
306.432
 20
28.744
 30
0
 11
326.965
 21
264.594
 31
0
 0
LINE
 8
TOOL_0
 5
12
 10
326.965
 20
264.594
 30
0
 11
302.216
 21
239.845
 31
0
 0
LINE
 8
TOOL_0
 5
13
 10
302.216
 20
239.845
 30
0
 11
299.594
 21
238.383
 31
0
 0
ARC
 8
TOOL_0
 5
14
 10
274.138
 20
239.883
 30
0
 40
25.500155607368
 50
270.0
 51
356.627733918772
210
0
220
0
230
1.0
 0
LINE
 8
TOOL_0
 5
15
 10
274.138
 20
214.383
 30
0
 11
224.801
 21
214.383
 31
0
 0
ARC
 8
TOOL_0
 5
16
 10
224.801
 20
239.883
 30
0
 40
25.5
 50
226.41732526033
 51
270.0
210
0
220
0
230
1.0
 0
ARC
 8
TOOL_0
 5
17
 10
154.138
 20
165.633
 30
0
 40
76.999936188285
 50
46.418144167332
 51
133.581855832668
210
0
220
0
230
1.0
 0
ARC
 8
TOOL_0
 5
18
 10
83.476
 20
239.883
 30
0
 40
25.49972597892
 50
269.997753106687
 51
313.581047116797
210
0
220
0
230
1.0
 0
LINE
 8
TOOL_0
 5
19
 10
83.475
 20
214.383
 30
0
 11
34.138
 21
214.383
 31
0
 0
ARC
 8
TOOL_0
 5
1A
 10
34.138
 20
239.883
 30
0
 40
25.5
 50
180.0
 51
270.0
210
0
220
0
230
1.0
 0
LINE
 8
TOOL_0
 5
1B
 10
8.638
 20
239.883
 30
0
 11
8.638
 21
373.883
 31
0
 0
ARC
 8
TOOL_0
 5
1C
 10
34.138
 20
373.883
 30
0
 40
25.5
 50
90.0
 51
180.0
210
0
220
0
230
1.0
 0
LINE
 8
TOOL_0
 5
1D
 10
34.138
 20
399.383
 30
0
 11
274.138
 21
399.383
 31
0
 0
ARC
 8
TOOL_0
 5
1E
 10
274.138
 20
373.883
 30
0
 40
25.5
 50
0
 51
90.0
210
0
220
0
230
1.0
 0
LINE
 8
TOOL_0
 5
1F
 10
299.638
 20
373.883
 30
0
 11
299.638
 21
241.383
 31
0
 0
LINE
 8
TOOL_0
 5
20
 10
299.638
 20
241.383
 30
0
 11
302.216
 21
239.845
 31
0
 0
LINE
 8
TOOL_0
 5
21
 10
302.216
 20
239.845
 30
0
 11
305.752
 21
236.309
 31
0
 0
LINE
 8
TOOL_0
 5
22
 10
305.752
 20
236.309
 30
0
 11
663.12
 21
57.028
 31
0
 0
LINE
 8
TOOL_0
 5
23
 10
663.12
 20
57.028
 30
0
 11
638.371
 21
32.279
 31
0
 0
LINE
 8
TOOL_0
 5
24
 10
638.371
 20
32.279
 30
0
 11
635.749
 21
30.817
 31
0
 0
ARC
 8
TOOL_0
 5
25
 10
610.293
 20
32.317
 30
0
 40
25.500155607368
 50
270.0
 51
356.627733918772
210
0
220
0
230
1.0
 0
LINE
 8
TOOL_0
 5
26
 10
610.293
 20
6.817
 30
0
 11
560.956
 21
6.817
 31
0
 0
ARC
 8
TOOL_0
 5
27
 10
560.956
 20
32.317
 30
0
 40
25.5
 50
226.41732526033
 51
270.0
210
0
220
0
230
1.0
 0
ARC
 8
TOOL_0
 5
28
 10
490.293
 20
-41.933
 30
0
 40
76.999936188285
 50
46.418144167332
 51
133.581855832668
210
0
220
0
230
1.0
 0
ARC
 8
TOOL_0
 5
29
 10
419.631
 20
32.317
 30
0
 40
25.49972597892
 50
269.997753106687
 51
313.581047116797
210
0
220
0
230
1.0
 0
LINE
 8
TOOL_0
 5
2A
 10
419.63
 20
6.817
 30
0
 11
370.293
 21
6.817
 31
0
 0
ARC
 8
TOOL_0
 5
2B
 10
370.293
 20
32.317
 30
0
 40
25.5
 50
180.0
 51
270.0
210
0
220
0
230
1.0
 0
LINE
 8
TOOL_0
 5
2C
 10
344.793
 20
32.317
 30
0
 11
344.793
 21
166.317
 31
0
 0
ARC
 8
TOOL_0
 5
2D
 10
370.293
 20
166.317
 30
0
 40
25.5
 50
90.0
 51
180.0
210
0
220
0
230
1.0
 0
LINE
 8
TOOL_0
 5
2E
 10
370.293
 20
191.817
 30
0
 11
610.293
 21
191.817
 31
0
 0
ARC
 8
TOOL_0
 5
2F
 10
610.293
 20
166.317
 30
0
 40
25.5
 50
0
 51
90.0
210
0
220
0
230
1.0
 0
LINE
 8
TOOL_0
 5
30
 10
635.793
 20
166.317
 30
0
 11
635.793
 21
33.817
 31
0
 0
LINE
 8
TOOL_0
 5
31
 10
635.793
 20
33.817
 30
0
 11
638.371
 21
32.279
 31
0
 0
LINE
 8
TOOL_0
 5
32
 10
638.371
 20
32.279
 30
0
 11
641.907
 21
28.743
 31
0
 0
LINE
 8
TOOL_0
 5
33
 10
641.907
 20
28.743
 30
0
 11
574.569
 21
241.782
 31
0
 0
LINE
 8
TOOL_0
 5
34
 10
574.569
 20
241.782
 30
0
 11
549.82
 21
217.033
 31
0
 0
LINE
 8
TOOL_0
 5
35
 10
549.82
 20
217.033
 30
0
 11
547.053
 21
215.87
 31
0
 0
ARC
 8
TOOL_0
 5
36
 10
544.428
 20
217.322
 30
0
 40
2.999821494689
 50
270.0
 51
331.051138355977
210
0
220
0
230
1.0
 0
LINE
 8
TOOL_0
 5
37
 10
544.428
 20
214.322
 30
0
 11
359.928
 21
214.322
 31
0
 0
ARC
 8
TOOL_0
 5
38
 10
359.928
 20
217.322
 30
0
 40
3.0
 50
180.0
 51
270.0
210
0
220
0
230
1.0
 0
LINE
 8
TOOL_0
 5
39
 10
356.928
 20
217.322
 30
0
 11
356.928
 21
263.073
 31
0
 0
ARC
 8
TOOL_0
 5
3A
 10
359.928
 20
263.073
 30
0
 40
3.0
 50
105.069197423678
 51
180.0
210
0
220
0
230
1.0
 0
LINE
 8
TOOL_0
 5
3B
 10
359.148
 20
265.97
 30
0
 11
424.071
 21
283.368
 31
0
 0
ARC
 8
TOOL_0
 5
3C
 10
425.017
 20
280.513
 30
0
 40
3.00764708701
 50
9.781759702329
 51
108.332538223149
210
0
220
0
230
1.0
 0
ARC
 8
TOOL_0
 5
3D
 10
452.178
 20
285.172
 30
0
 40
24.549963604861
 50
189.727447106353
 51
350.267952378463
210
0
220
0
230
1.0
 0
ARC
 8
TOOL_0
 5
3E
 10
479.332
 20
280.515
 30
0
 40
3.000149662934
 50
75.00953278444
 51
170.270808043504
210
0
220
0
230
1.0
 0
LINE
 8
TOOL_0
 5
3F
 10
480.108
 20
283.413
 30
0
 11
545.204
 21
265.971
 31
0
 0
ARC
 8
TOOL_0
 5
40
 10
544.428
 20
263.073
 30
0
 40
3.000096665109
 50
0
 51
75.009532784441
210
0
220
0
230
1.0
 0
LINE
 8
TOOL_0
 5
41
 10
547.428
 20
263.073
 30
0
 11
547.428
 21
218.846
 31
0
 0
LINE
 8
TOOL_0
 5
42
 10
547.428
 20
218.846
 30
0
 11
549.82
 21
217.033
 31
0
 0
LINE
 8
TOOL_0
 5
43
 10
549.82
 20
217.033
 30
0
 11
553.356
 21
213.497
 31
0
 0
ENDSEC
 0
EOF

