0
SECTION
2
TABLES
0
TABLE
2
LAYER
70
0
0
LAYER
2
LAYER_NAME
70
0
62
1
6
CONTINUOUS
0
ENDTAB
0
ENDSEC
 0
SECTION
 2
ENTITIES
 0
LINE
 8
TOOL_0
 5
1
 10
2198.852
 20
14.428
 30
0
 11
2169.5
 21
15.001
 31
0
 0
LINE
 8
TOOL_0
 5
2
 10
2169.5
 20
15.001
 30
0
 11
67.0
 21
15.001
 31
0
 0
LINE
 8
TOOL_0
 5
3
 10
67.0
 20
15.001
 30
0
 11
67.0
 21
77.501
 31
0
 0
ARC
 8
TOOL_0
 5
4
 10
55.75
 20
77.501
 30
0
 40
11.25
 50
0
 51
180.0
210
0
220
0
230
1.0
 0
LINE
 8
TOOL_0
 5
5
 10
44.5
 20
77.501
 30
0
 11
44.5
 21
63.751
 31
0
 0
LINE
 8
TOOL_0
 5
6
 10
44.5
 20
63.751
 30
0
 11
12.0
 21
63.751
 31
0
 0
LINE
 8
TOOL_0
 5
7
 10
12.0
 20
63.751
 30
0
 11
12.0
 21
919.001
 31
0
 0
LINE
 8
TOOL_0
 5
8
 10
12.0
 20
919.001
 30
0
 11
2224.5
 21
919.001
 31
0
 0
LINE
 8
TOOL_0
 5
9
 10
2224.5
 20
919.001
 30
0
 11
2224.5
 21
63.751
 31
0
 0
LINE
 8
TOOL_0
 5
A
 10
2224.5
 20
63.751
 30
0
 11
2192.0
 21
63.751
 31
0
 0
LINE
 8
TOOL_0
 5
B
 10
2192.0
 20
63.751
 30
0
 11
2192.0
 21
77.501
 31
0
 0
ARC
 8
TOOL_0
 5
C
 10
2180.75
 20
77.501
 30
0
 40
11.25
 50
0
 51
180.0
210
0
220
0
230
1.0
 0
LINE
 8
TOOL_0
 5
D
 10
2169.5
 20
77.501
 30
0
 11
2169.5
 21
15.001
 31
0
 0
LINE
 8
TOOL_0
 5
E
 10
2169.5
 20
15.001
 30
0
 11
2169.788
 21
9.564
 31
0
 0
LINE
 8
TOOL_0
 5
F
 10
2169.788
 20
9.564
 30
0
 11
2198.852
 21
936.606
 31
0
 0
LINE
 8
TOOL_0
 5
10
 10
2198.852
 20
936.606
 30
0
 11
2169.5
 21
937.179
 31
0
 0
LINE
 8
TOOL_0
 5
11
 10
2169.5
 20
937.179
 30
0
 11
67.0
 21
937.179
 31
0
 0
LINE
 8
TOOL_0
 5
12
 10
67.0
 20
937.179
 30
0
 11
67.0
 21
999.679
 31
0
 0
ARC
 8
TOOL_0
 5
13
 10
55.75
 20
999.679
 30
0
 40
11.25
 50
0
 51
180.0
210
0
220
0
230
1.0
 0
LINE
 8
TOOL_0
 5
14
 10
44.5
 20
999.679
 30
0
 11
44.5
 21
985.929
 31
0
 0
LINE
 8
TOOL_0
 5
15
 10
44.5
 20
985.929
 30
0
 11
12.0
 21
985.929
 31
0
 0
LINE
 8
TOOL_0
 5
16
 10
12.0
 20
985.929
 30
0
 11
12.0
 21
1841.179
 31
0
 0
LINE
 8
TOOL_0
 5
17
 10
12.0
 20
1841.179
 30
0
 11
2224.5
 21
1841.179
 31
0
 0
LINE
 8
TOOL_0
 5
18
 10
2224.5
 20
1841.179
 30
0
 11
2224.5
 21
985.929
 31
0
 0
LINE
 8
TOOL_0
 5
19
 10
2224.5
 20
985.929
 30
0
 11
2192.0
 21
985.929
 31
0
 0
LINE
 8
TOOL_0
 5
1A
 10
2192.0
 20
985.929
 30
0
 11
2192.0
 21
999.679
 31
0
 0
ARC
 8
TOOL_0
 5
1B
 10
2180.75
 20
999.679
 30
0
 40
11.25
 50
0
 51
180.0
210
0
220
0
230
1.0
 0
LINE
 8
TOOL_0
 5
1C
 10
2169.5
 20
999.679
 30
0
 11
2169.5
 21
937.179
 31
0
 0
LINE
 8
TOOL_0
 5
1D
 10
2169.5
 20
937.179
 30
0
 11
2169.788
 21
931.742
 31
0
 0
LINE
 8
TOOL_0
 5
1E
 10
2169.788
 20
931.742
 30
0
 11
4432.351
 21
14.428
 31
0
 0
LINE
 8
TOOL_0
 5
1F
 10
4432.351
 20
14.428
 30
0
 11
4402.999
 21
15.001
 31
0
 0
LINE
 8
TOOL_0
 5
20
 10
4402.999
 20
15.001
 30
0
 11
2300.499
 21
15.001
 31
0
 0
LINE
 8
TOOL_0
 5
21
 10
2300.499
 20
15.001
 30
0
 11
2300.499
 21
77.501
 31
0
 0
ARC
 8
TOOL_0
 5
22
 10
2289.249
 20
77.501
 30
0
 40
11.25
 50
0
 51
180.0
210
0
220
0
230
1.0
 0
LINE
 8
TOOL_0
 5
23
 10
2277.999
 20
77.501
 30
0
 11
2277.999
 21
63.751
 31
0
 0
LINE
 8
TOOL_0
 5
24
 10
2277.999
 20
63.751
 30
0
 11
2245.499
 21
63.751
 31
0
 0
LINE
 8
TOOL_0
 5
25
 10
2245.499
 20
63.751
 30
0
 11
2245.499
 21
919.001
 31
0
 0
LINE
 8
TOOL_0
 5
26
 10
2245.499
 20
919.001
 30
0
 11
4457.999
 21
919.001
 31
0
 0
LINE
 8
TOOL_0
 5
27
 10
4457.999
 20
919.001
 30
0
 11
4457.999
 21
63.751
 31
0
 0
LINE
 8
TOOL_0
 5
28
 10
4457.999
 20
63.751
 30
0
 11
4425.499
 21
63.751
 31
0
 0
LINE
 8
TOOL_0
 5
29
 10
4425.499
 20
63.751
 30
0
 11
4425.499
 21
77.501
 31
0
 0
ARC
 8
TOOL_0
 5
2A
 10
4414.249
 20
77.501
 30
0
 40
11.25
 50
0
 51
180.0
210
0
220
0
230
1.0
 0
LINE
 8
TOOL_0
 5
2B
 10
4402.999
 20
77.501
 30
0
 11
4402.999
 21
15.001
 31
0
 0
LINE
 8
TOOL_0
 5
2C
 10
4402.999
 20
15.001
 30
0
 11
4403.287
 21
9.564
 31
0
 0
LINE
 8
TOOL_0
 5
2D
 10
4403.287
 20
9.564
 30
0
 11
4429.603
 21
936.442
 31
0
 0
LINE
 8
TOOL_0
 5
2E
 10
4429.603
 20
936.442
 30
0
 11
4400.252
 21
937.015
 31
0
 0
LINE
 8
TOOL_0
 5
2F
 10
4400.252
 20
937.015
 30
0
 11
2297.752
 21
937.015
 31
0
 0
LINE
 8
TOOL_0
 5
30
 10
2297.752
 20
937.015
 30
0
 11
2297.752
 21
999.515
 31
0
 0
ARC
 8
TOOL_0
 5
31
 10
2286.502
 20
999.515
 30
0
 40
11.25
 50
0
 51
180.0
210
0
220
0
230
1.0
 0
LINE
 8
TOOL_0
 5
32
 10
2275.252
 20
999.515
 30
0
 11
2275.252
 21
985.765
 31
0
 0
LINE
 8
TOOL_0
 5
33
 10
2275.252
 20
985.765
 30
0
 11
2242.752
 21
985.765
 31
0
 0
LINE
 8
TOOL_0
 5
34
 10
2242.752
 20
985.765
 30
0
 11
2242.752
 21
1841.015
 31
0
 0
LINE
 8
TOOL_0
 5
35
 10
2242.752
 20
1841.015
 30
0
 11
4455.252
 21
1841.015
 31
0
 0
LINE
 8
TOOL_0
 5
36
 10
4455.252
 20
1841.015
 30
0
 11
4455.252
 21
985.765
 31
0
 0
LINE
 8
TOOL_0
 5
37
 10
4455.252
 20
985.765
 30
0
 11
4422.752
 21
985.765
 31
0
 0
LINE
 8
TOOL_0
 5
38
 10
4422.752
 20
985.765
 30
0
 11
4422.752
 21
999.515
 31
0
 0
ARC
 8
TOOL_0
 5
39
 10
4411.502
 20
999.515
 30
0
 40
11.25
 50
0
 51
180.0
210
0
220
0
230
1.0
 0
LINE
 8
TOOL_0
 5
3A
 10
4400.252
 20
999.515
 30
0
 11
4400.252
 21
937.015
 31
0
 0
LINE
 8
TOOL_0
 5
3B
 10
4400.252
 20
937.015
 30
0
 11
4400.54
 21
931.578
 31
0
 0
ENDSEC
 0
EOF

