0
SECTION
2
TABLES
0
TABLE
2
LAYER
70
0
0
LAYER
2
LAYER_NAME
70
0
62
1
6
CONTINUOUS
0
ENDTAB
0
ENDSEC
 0
SECTION
 2
ENTITIES
 0
LINE
 8
TOOL_0
 5
1
 10
631.353
 20
1249.652
 30
0
 11
651.353
 21
1249.652
 31
0
 0
ARC
 8
TOOL_0
 5
2
 10
576.353
 20
1249.652
 30
0
 40
75.0
 50
0
 51
180.0
210
0
220
0
230
1.0
 0
ARC
 8
TOOL_0
 5
3
 10
576.353
 20
1249.652
 30
0
 40
75.0
 50
180.0
 51
0
210
0
220
0
230
1.0
 0
LINE
 8
TOOL_0
 5
4
 10
651.353
 20
1249.652
 30
0
 11
647.817
 21
1253.188
 31
0
 0
LINE
 8
TOOL_0
 5
5
 10
647.817
 20
1253.188
 30
0
 11
714.687
 21
1170.456
 31
0
 0
LINE
 8
TOOL_0
 5
6
 10
714.687
 20
1170.456
 30
0
 11
714.687
 21
1123.854
 31
0
 0
LINE
 8
TOOL_0
 5
7
 10
714.687
 20
1123.854
 30
0
 11
692.102
 21
1123.903
 31
0
 0
LINE
 8
TOOL_0
 5
8
 10
692.102
 20
1123.903
 30
0
 11
460.602
 21
1123.903
 31
0
 0
LINE
 8
TOOL_0
 5
9
 10
460.602
 20
1123.903
 30
0
 11
460.602
 21
1375.403
 31
0
 0
LINE
 8
TOOL_0
 5
A
 10
460.602
 20
1375.403
 30
0
 11
692.102
 21
1375.403
 31
0
 0
LINE
 8
TOOL_0
 5
B
 10
692.102
 20
1375.403
 30
0
 11
692.102
 21
1123.903
 31
0
 0
LINE
 8
TOOL_0
 5
C
 10
692.102
 20
1123.903
 30
0
 11
692.09
 21
1119.89
 31
0
 0
LINE
 8
TOOL_0
 5
D
 10
692.09
 20
1119.89
 30
0
 11
692.09
 21
0.001
 31
0
 0
LINE
 8
TOOL_0
 5
E
 10
692.09
 20
0.001
 30
0
 11
907.464
 21
1249.653
 31
0
 0
LINE
 8
TOOL_0
 5
F
 10
907.464
 20
1249.653
 30
0
 11
927.464
 21
1249.653
 31
0
 0
ARC
 8
TOOL_0
 5
10
 10
852.464
 20
1249.653
 30
0
 40
75.0
 50
0
 51
180.0
210
0
220
0
230
1.0
 0
ARC
 8
TOOL_0
 5
11
 10
852.464
 20
1249.653
 30
0
 40
75.0
 50
180.0
 51
0
210
0
220
0
230
1.0
 0
LINE
 8
TOOL_0
 5
12
 10
927.464
 20
1249.653
 30
0
 11
923.928
 21
1253.189
 31
0
 0
LINE
 8
TOOL_0
 5
13
 10
923.928
 20
1253.189
 30
0
 11
992.726
 21
1124.215
 31
0
 0
LINE
 8
TOOL_0
 5
14
 10
992.726
 20
1124.215
 30
0
 11
968.213
 21
1123.903
 31
0
 0
LINE
 8
TOOL_0
 5
15
 10
968.213
 20
1123.903
 30
0
 11
736.713
 21
1123.903
 31
0
 0
LINE
 8
TOOL_0
 5
16
 10
736.713
 20
1123.903
 30
0
 11
736.713
 21
1375.403
 31
0
 0
LINE
 8
TOOL_0
 5
17
 10
736.713
 20
1375.403
 30
0
 11
968.213
 21
1375.403
 31
0
 0
LINE
 8
TOOL_0
 5
18
 10
968.213
 20
1375.403
 30
0
 11
968.213
 21
1123.903
 31
0
 0
LINE
 8
TOOL_0
 5
19
 10
968.213
 20
1123.903
 30
0
 11
968.29
 21
1121.716
 31
0
 0
LINE
 8
TOOL_0
 5
1A
 10
968.29
 20
1121.716
 30
0
 11
1043.841
 21
1115.657
 31
0
 0
LINE
 8
TOOL_0
 5
1B
 10
1043.841
 20
1115.657
 30
0
 11
1043.841
 21
1116.657
 31
0
 0
LINE
 8
TOOL_0
 5
1C
 10
1043.841
 20
1116.657
 30
0
 11
1043.841
 21
0.001
 31
0
 0
LINE
 8
TOOL_0
 5
1D
 10
1043.841
 20
0.001
 30
0
 11
1043.841
 21
1115.657
 31
0
 0
LINE
 8
TOOL_0
 5
1E
 10
1043.841
 20
1115.657
 30
0
 11
1043.841
 21
1116.657
 31
0
 0
LINE
 8
TOOL_0
 5
1F
 10
1043.841
 20
1116.657
 30
0
 11
1043.841
 21
1690.24
 31
0
 0
LINE
 8
TOOL_0
 5
20
 10
1043.841
 20
1690.24
 30
0
 11
750.033
 21
1690.24
 31
0
 0
LINE
 8
TOOL_0
 5
21
 10
750.033
 20
1690.24
 30
0
 11
750.033
 21
1968.822
 31
0
 0
LINE
 8
TOOL_0
 5
22
 10
750.033
 20
1968.822
 30
0
 11
452.428
 21
1968.822
 31
0
 0
LINE
 8
TOOL_0
 5
23
 10
452.428
 20
1968.822
 30
0
 11
452.428
 21
1922.313
 31
0
 0
LINE
 8
TOOL_0
 5
24
 10
452.428
 20
1922.313
 30
0
 11
452.428
 21
1921.313
 31
0
 0
ENDSEC
 0
EOF

