0
SECTION
2
TABLES
0
TABLE
2
LAYER
70
0
0
LAYER
2
LAYER_NAME
70
0
62
1
6
CONTINUOUS
0
ENDTAB
0
ENDSEC
 0
SECTION
 2
ENTITIES
 0
LINE
 8
TOOL_0
 5
1
 10
378.549
 20
255.4
 30
0
 11
407.716
 21
250.47
 31
0
 0
ARC
 8
TOOL_0
 5
2
 10
408.549
 20
255.4
 30
0
 40
4.999878898533
 50
260.409571175907
 51
0
210
0
220
0
230
1.0
 0
LINE
 8
TOOL_0
 5
3
 10
413.549
 20
255.4
 30
0
 11
413.549
 21
270.4
 31
0
 0
ARC
 8
TOOL_0
 5
4
 10
348.549
 20
270.4
 30
0
 40
65.0
 50
0
 51
180.0
210
0
220
0
230
1.0
 0
LINE
 8
TOOL_0
 5
5
 10
283.549
 20
270.4
 30
0
 11
283.549
 21
240.4
 31
0
 0
ARC
 8
TOOL_0
 5
6
 10
348.549
 20
240.4
 30
0
 40
65.0
 50
180.0
 51
0
210
0
220
0
230
1.0
 0
LINE
 8
TOOL_0
 5
7
 10
413.549
 20
240.4
 30
0
 11
413.549
 21
255.4
 31
0
 0
ARC
 8
TOOL_0
 5
8
 10
403.549
 20
255.4
 30
0
 40
10.0
 50
0
 51
45.838652099144
210
0
220
0
230
1.0
 0
LINE
 8
TOOL_0
 5
9
 10
410.516
 20
262.574
 30
0
 11
654.547
 21
70.699
 31
0
 0
LINE
 8
TOOL_0
 5
A
 10
654.547
 20
70.699
 30
0
 11
654.547
 21
37.077
 31
0
 0
LINE
 8
TOOL_0
 5
B
 10
654.547
 20
37.077
 30
0
 11
629.299
 21
37.15
 31
0
 0
LINE
 8
TOOL_0
 5
C
 10
629.299
 20
37.15
 30
0
 11
67.799
 21
37.15
 31
0
 0
LINE
 8
TOOL_0
 5
D
 10
67.799
 20
37.15
 30
0
 11
67.799
 21
473.65
 31
0
 0
LINE
 8
TOOL_0
 5
E
 10
67.799
 20
473.65
 30
0
 11
629.299
 21
473.65
 31
0
 0
LINE
 8
TOOL_0
 5
F
 10
629.299
 20
473.65
 30
0
 11
629.299
 21
37.15
 31
0
 0
LINE
 8
TOOL_0
 5
10
 10
629.299
 20
37.15
 30
0
 11
622.147
 21
25.309
 31
0
 0
LINE
 8
TOOL_0
 5
11
 10
622.147
 20
25.309
 30
0
 11
1008.012
 21
255.399
 31
0
 0
LINE
 8
TOOL_0
 5
12
 10
1008.012
 20
255.399
 30
0
 11
1037.179
 21
250.469
 31
0
 0
ARC
 8
TOOL_0
 5
13
 10
1038.012
 20
255.399
 30
0
 40
4.999878898533
 50
260.409571175906
 51
0
210
0
220
0
230
1.0
 0
LINE
 8
TOOL_0
 5
14
 10
1043.012
 20
255.399
 30
0
 11
1043.012
 21
270.399
 31
0
 0
ARC
 8
TOOL_0
 5
15
 10
978.012
 20
270.399
 30
0
 40
65.0
 50
0
 51
180.0
210
0
220
0
230
1.0
 0
LINE
 8
TOOL_0
 5
16
 10
913.012
 20
270.399
 30
0
 11
913.012
 21
240.399
 31
0
 0
ARC
 8
TOOL_0
 5
17
 10
978.012
 20
240.399
 30
0
 40
65.0
 50
180.0
 51
0
210
0
220
0
230
1.0
 0
LINE
 8
TOOL_0
 5
18
 10
1043.012
 20
240.399
 30
0
 11
1043.012
 21
255.399
 31
0
 0
ARC
 8
TOOL_0
 5
19
 10
1033.012
 20
255.399
 30
0
 40
10.0
 50
0
 51
45.838652099143
210
0
220
0
230
1.0
 0
LINE
 8
TOOL_0
 5
1A
 10
1039.979
 20
262.573
 30
0
 11
1288.707
 21
66.152
 31
0
 0
LINE
 8
TOOL_0
 5
1B
 10
1288.707
 20
66.152
 30
0
 11
1288.707
 21
35.071
 31
0
 0
LINE
 8
TOOL_0
 5
1C
 10
1288.707
 20
35.071
 30
0
 11
1258.762
 21
37.149
 31
0
 0
LINE
 8
TOOL_0
 5
1D
 10
1258.762
 20
37.149
 30
0
 11
697.262
 21
37.149
 31
0
 0
LINE
 8
TOOL_0
 5
1E
 10
697.262
 20
37.149
 30
0
 11
697.262
 21
473.649
 31
0
 0
LINE
 8
TOOL_0
 5
1F
 10
697.262
 20
473.649
 30
0
 11
1258.762
 21
473.649
 31
0
 0
LINE
 8
TOOL_0
 5
20
 10
1258.762
 20
473.649
 30
0
 11
1258.762
 21
37.149
 31
0
 0
LINE
 8
TOOL_0
 5
21
 10
1258.762
 20
37.149
 30
0
 11
1253.471
 21
24.711
 31
0
 0
LINE
 8
TOOL_0
 5
22
 10
1253.471
 20
24.711
 30
0
 11
1294.502
 21
-0.001
 31
0
 0
LINE
 8
TOOL_0
 5
23
 10
1294.502
 20
-0.001
 30
0
 11
1294.502
 21
0.999
 31
0
 0
LINE
 8
TOOL_0
 5
24
 10
1294.502
 20
0.999
 30
0
 11
1294.502
 21
-0.001
 31
0
 0
LINE
 8
TOOL_0
 5
25
 10
1294.502
 20
-0.001
 30
0
 11
1294.502
 21
0.999
 31
0
 0
LINE
 8
TOOL_0
 5
26
 10
1294.502
 20
0.999
 30
0
 11
1294.502
 21
498.999
 31
0
 0
LINE
 8
TOOL_0
 5
27
 10
1294.502
 20
498.999
 30
0
 11
1294.502
 21
499.999
 31
0
 0
ENDSEC
 0
EOF

