0
SECTION
2
TABLES
0
TABLE
2
LAYER
70
0
0
LAYER
2
LAYER_NAME
70
0
62
1
6
CONTINUOUS
0
ENDTAB
0
ENDSEC
 0
SECTION
 2
ENTITIES
 0
LINE
 8
TOOL_0
 5
1
 10
14.0
 20
21.776
 30
0
 11
14.0
 21
41.6
 31
0
 0
LINE
 8
TOOL_0
 5
2
 10
14.0
 20
41.6
 30
0
 11
14.0
 21
741.6
 31
0
 0
LINE
 8
TOOL_0
 5
3
 10
14.0
 20
741.6
 30
0
 11
369.0
 21
741.6
 31
0
 0
LINE
 8
TOOL_0
 5
4
 10
369.0
 20
741.6
 30
0
 11
429.001
 21
681.599
 31
0
 0
LINE
 8
TOOL_0
 5
5
 10
429.001
 20
681.599
 30
0
 11
1639.008
 21
681.599
 31
0
 0
LINE
 8
TOOL_0
 5
6
 10
1639.008
 20
681.599
 30
0
 11
1639.008
 21
101.599
 31
0
 0
LINE
 8
TOOL_0
 5
7
 10
1639.008
 20
101.599
 30
0
 11
428.999
 21
101.599
 31
0
 0
LINE
 8
TOOL_0
 5
8
 10
428.999
 20
101.599
 30
0
 11
369.0
 21
41.6
 31
0
 0
LINE
 8
TOOL_0
 5
9
 10
369.0
 20
41.6
 30
0
 11
14.0
 21
41.6
 31
0
 0
LINE
 8
TOOL_0
 5
A
 10
14.0
 20
41.6
 30
0
 11
6.761
 21
41.6
 31
0
 0
LINE
 8
TOOL_0
 5
B
 10
6.761
 20
41.6
 30
0
 11
14.0
 21
756.034
 31
0
 0
LINE
 8
TOOL_0
 5
C
 10
14.0
 20
756.034
 30
0
 11
14.0
 21
775.116
 31
0
 0
LINE
 8
TOOL_0
 5
D
 10
14.0
 20
775.116
 30
0
 11
14.0
 21
1475.116
 31
0
 0
LINE
 8
TOOL_0
 5
E
 10
14.0
 20
1475.116
 30
0
 11
369.0
 21
1475.116
 31
0
 0
LINE
 8
TOOL_0
 5
F
 10
369.0
 20
1475.116
 30
0
 11
429.001
 21
1415.115
 31
0
 0
LINE
 8
TOOL_0
 5
10
 10
429.001
 20
1415.115
 30
0
 11
1639.008
 21
1415.115
 31
0
 0
LINE
 8
TOOL_0
 5
11
 10
1639.008
 20
1415.115
 30
0
 11
1639.008
 21
835.115
 31
0
 0
LINE
 8
TOOL_0
 5
12
 10
1639.008
 20
835.115
 30
0
 11
428.999
 21
835.115
 31
0
 0
LINE
 8
TOOL_0
 5
13
 10
428.999
 20
835.115
 30
0
 11
369.0
 21
775.116
 31
0
 0
LINE
 8
TOOL_0
 5
14
 10
369.0
 20
775.116
 30
0
 11
14.0
 21
775.116
 31
0
 0
LINE
 8
TOOL_0
 5
15
 10
14.0
 20
775.116
 30
0
 11
8.694
 21
775.116
 31
0
 0
LINE
 8
TOOL_0
 5
16
 10
8.694
 20
775.116
 30
0
 11
1639.176
 21
714.001
 31
0
 0
LINE
 8
TOOL_0
 5
17
 10
1639.176
 20
714.001
 30
0
 11
1657.64
 21
714.001
 31
0
 0
LINE
 8
TOOL_0
 5
18
 10
1657.64
 20
714.001
 30
0
 11
2012.64
 21
714.001
 31
0
 0
LINE
 8
TOOL_0
 5
19
 10
2012.64
 20
714.001
 30
0
 11
2072.641
 21
654.0
 31
0
 0
LINE
 8
TOOL_0
 5
1A
 10
2072.641
 20
654.0
 30
0
 11
3282.648
 21
654.0
 31
0
 0
LINE
 8
TOOL_0
 5
1B
 10
3282.648
 20
654.0
 30
0
 11
3282.648
 21
74.0
 31
0
 0
LINE
 8
TOOL_0
 5
1C
 10
3282.648
 20
74.0
 30
0
 11
2072.639
 21
74.0
 31
0
 0
LINE
 8
TOOL_0
 5
1D
 10
2072.639
 20
74.0
 30
0
 11
2012.64
 21
14.001
 31
0
 0
LINE
 8
TOOL_0
 5
1E
 10
2012.64
 20
14.001
 30
0
 11
1657.64
 21
14.001
 31
0
 0
LINE
 8
TOOL_0
 5
1F
 10
1657.64
 20
14.001
 30
0
 11
1657.64
 21
714.001
 31
0
 0
LINE
 8
TOOL_0
 5
20
 10
1657.64
 20
714.001
 30
0
 11
1657.64
 21
719.387
 31
0
 0
LINE
 8
TOOL_0
 5
21
 10
1657.64
 20
719.387
 30
0
 11
2548.67
 21
884.829
 31
0
 0
LINE
 8
TOOL_0
 5
22
 10
2548.67
 20
884.829
 30
0
 11
2529.198
 21
884.829
 31
0
 0
LINE
 8
TOOL_0
 5
23
 10
2529.198
 20
884.829
 30
0
 11
2279.198
 21
884.829
 31
0
 0
LINE
 8
TOOL_0
 5
24
 10
2279.198
 20
884.829
 30
0
 11
2279.198
 21
1054.829
 31
0
 0
LINE
 8
TOOL_0
 5
25
 10
2279.198
 20
1054.829
 30
0
 11
2079.198
 21
1054.829
 31
0
 0
LINE
 8
TOOL_0
 5
26
 10
2079.198
 20
1054.829
 30
0
 11
2079.198
 21
884.829
 31
0
 0
LINE
 8
TOOL_0
 5
27
 10
2079.198
 20
884.829
 30
0
 11
1829.198
 21
884.829
 31
0
 0
LINE
 8
TOOL_0
 5
28
 10
1829.198
 20
884.829
 30
0
 11
1829.198
 21
1239.829
 31
0
 0
LINE
 8
TOOL_0
 5
29
 10
1829.198
 20
1239.829
 30
0
 11
2529.198
 21
1239.829
 31
0
 0
LINE
 8
TOOL_0
 5
2A
 10
2529.198
 20
1239.829
 30
0
 11
2529.198
 21
884.829
 31
0
 0
LINE
 8
TOOL_0
 5
2B
 10
2529.198
 20
884.829
 30
0
 11
2529.198
 21
879.7
 31
0
 0
LINE
 8
TOOL_0
 5
2C
 10
2529.198
 20
879.7
 30
0
 11
2537.667
 21
746.398
 31
0
 0
LINE
 8
TOOL_0
 5
2D
 10
2537.667
 20
746.398
 30
0
 11
2519.825
 21
746.398
 31
0
 0
LINE
 8
TOOL_0
 5
2E
 10
2519.825
 20
746.398
 30
0
 11
1678.269
 21
746.398
 31
0
 0
LINE
 8
TOOL_0
 5
2F
 10
1678.269
 20
746.398
 30
0
 11
1657.625
 21
767.042
 31
0
 0
LINE
 8
TOOL_0
 5
30
 10
1657.625
 20
767.042
 30
0
 11
1657.625
 21
1347.953
 31
0
 0
LINE
 8
TOOL_0
 5
31
 10
1657.625
 20
1347.953
 30
0
 11
1678.269
 21
1368.597
 31
0
 0
LINE
 8
TOOL_0
 5
32
 10
1678.269
 20
1368.597
 30
0
 11
2519.825
 21
1368.597
 31
0
 0
LINE
 8
TOOL_0
 5
33
 10
2519.825
 20
1368.597
 30
0
 11
2539.825
 21
1348.597
 31
0
 0
LINE
 8
TOOL_0
 5
34
 10
2539.825
 20
1348.597
 30
0
 11
2539.825
 21
1312.247
 31
0
 0
LINE
 8
TOOL_0
 5
35
 10
2539.825
 20
1312.247
 30
0
 11
2499.825
 21
1272.247
 31
0
 0
LINE
 8
TOOL_0
 5
36
 10
2499.825
 20
1272.247
 30
0
 11
1873.725
 21
1272.247
 31
0
 0
ARC
 8
TOOL_0
 5
37
 10
1873.725
 20
1172.497
 30
0
 40
99.75
 50
90.0
 51
180.0
210
0
220
0
230
1.0
 0
LINE
 8
TOOL_0
 5
38
 10
1773.975
 20
1172.497
 30
0
 11
1773.975
 21
942.497
 31
0
 0
ARC
 8
TOOL_0
 5
39
 10
1873.725
 20
942.497
 30
0
 40
99.75
 50
180.0
 51
270.0
210
0
220
0
230
1.0
 0
LINE
 8
TOOL_0
 5
3A
 10
1873.725
 20
842.747
 30
0
 11
2499.825
 21
842.747
 31
0
 0
LINE
 8
TOOL_0
 5
3B
 10
2499.825
 20
842.747
 30
0
 11
2539.825
 21
802.747
 31
0
 0
LINE
 8
TOOL_0
 5
3C
 10
2539.825
 20
802.747
 30
0
 11
2539.825
 21
766.397
 31
0
 0
LINE
 8
TOOL_0
 5
3D
 10
2539.825
 20
766.397
 30
0
 11
2519.825
 21
746.397
 31
0
 0
LINE
 8
TOOL_0
 5
3E
 10
2519.825
 20
746.397
 30
0
 11
2516.463
 21
741.702
 31
0
 0
LINE
 8
TOOL_0
 5
3F
 10
2516.463
 20
741.702
 30
0
 11
3183.096
 21
833.257
 31
0
 0
LINE
 8
TOOL_0
 5
40
 10
3183.096
 20
833.257
 30
0
 11
3213.096
 21
833.257
 31
0
 0
LINE
 8
TOOL_0
 5
41
 10
3213.096
 20
833.257
 30
0
 11
3213.096
 21
893.257
 31
0
 0
ARC
 8
TOOL_0
 5
42
 10
3163.078
 20
893.239
 30
0
 40
50.018003238834
 50
0.020619056874
 51
89.979380943126
210
0
220
0
230
1.0
 0
LINE
 8
TOOL_0
 5
43
 10
3163.096
 20
943.257
 30
0
 11
2663.096
 21
943.257
 31
0
 0
ARC
 8
TOOL_0
 5
44
 10
2663.114
 20
893.239
 30
0
 40
50.018003238834
 50
90.020619056874
 51
179.979380943126
210
0
220
0
230
1.0
 0
LINE
 8
TOOL_0
 5
45
 10
2613.096
 20
893.257
 30
0
 11
2613.096
 21
773.257
 31
0
 0
ARC
 8
TOOL_0
 5
46
 10
2663.114
 20
773.275
 30
0
 40
50.018003238834
 50
180.020619056874
 51
269.979380943126
210
0
220
0
230
1.0
 0
LINE
 8
TOOL_0
 5
47
 10
2663.096
 20
723.257
 30
0
 11
3163.096
 21
723.257
 31
0
 0
ARC
 8
TOOL_0
 5
48
 10
3163.078
 20
773.275
 30
0
 40
50.018003238834
 50
270.020619056874
 51
359.979380943126
210
0
220
0
230
1.0
 0
LINE
 8
TOOL_0
 5
49
 10
3213.096
 20
773.257
 30
0
 11
3213.096
 21
833.257
 31
0
 0
LINE
 8
TOOL_0
 5
4A
 10
3213.096
 20
833.257
 30
0
 11
3261.295
 21
672.457
 31
0
 0
LINE
 8
TOOL_0
 5
4B
 10
3261.295
 20
672.457
 30
0
 11
3243.852
 21
672.457
 31
0
 0
LINE
 8
TOOL_0
 5
4C
 10
3243.852
 20
672.457
 30
0
 11
2582.341
 21
672.457
 31
0
 0
LINE
 8
TOOL_0
 5
4D
 10
2582.341
 20
672.457
 30
0
 11
2561.997
 21
692.801
 31
0
 0
LINE
 8
TOOL_0
 5
4E
 10
2561.997
 20
692.801
 30
0
 11
2561.997
 21
973.712
 31
0
 0
LINE
 8
TOOL_0
 5
4F
 10
2561.997
 20
973.712
 30
0
 11
2582.341
 21
994.056
 31
0
 0
LINE
 8
TOOL_0
 5
50
 10
2582.341
 20
994.056
 30
0
 11
3243.852
 21
994.056
 31
0
 0
LINE
 8
TOOL_0
 5
51
 10
3243.852
 20
994.056
 30
0
 11
3264.196
 21
973.712
 31
0
 0
LINE
 8
TOOL_0
 5
52
 10
3264.196
 20
973.712
 30
0
 11
3264.196
 21
692.801
 31
0
 0
LINE
 8
TOOL_0
 5
53
 10
3264.196
 20
692.801
 30
0
 11
3243.852
 21
672.457
 31
0
 0
LINE
 8
TOOL_0
 5
54
 10
3243.852
 20
672.457
 30
0
 11
3240.108
 21
668.243
 31
0
 0
LINE
 8
TOOL_0
 5
55
 10
3240.108
 20
668.243
 30
0
 11
3107.66
 21
1313.189
 31
0
 0
LINE
 8
TOOL_0
 5
56
 10
3107.66
 20
1313.189
 30
0
 11
3137.66
 21
1313.189
 31
0
 0
ARC
 8
TOOL_0
 5
57
 10
3075.16
 20
1313.189
 30
0
 40
62.5
 50
0
 51
90.0
210
0
220
0
230
1.0
 0
LINE
 8
TOOL_0
 5
58
 10
3075.16
 20
1375.689
 30
0
 11
3011.997
 21
1375.689
 31
0
 0
ARC
 8
TOOL_0
 5
59
 10
2965.128
 20
1358.143
 30
0
 40
50.045631947254
 50
20.524019938643
 51
89.963364410851
210
0
220
0
230
1.0
 0
LINE
 8
TOOL_0
 5
5A
 10
2965.16
 20
1408.189
 30
0
 11
2865.16
 21
1408.189
 31
0
 0
ARC
 8
TOOL_0
 5
5B
 10
2865.16
 20
1358.189
 30
0
 40
50.0
 50
90.0
 51
180.0
210
0
220
0
230
1.0
 0
LINE
 8
TOOL_0
 5
5C
 10
2815.16
 20
1358.189
 30
0
 11
2815.16
 21
1285.689
 31
0
 0
LINE
 8
TOOL_0
 5
5D
 10
2815.16
 20
1285.689
 30
0
 11
2755.16
 21
1285.689
 31
0
 0
ARC
 8
TOOL_0
 5
5E
 10
2755.16
 20
1223.189
 30
0
 40
62.5
 50
90.0
 51
270.0
210
0
220
0
230
1.0
 0
LINE
 8
TOOL_0
 5
5F
 10
2755.16
 20
1160.689
 30
0
 11
2815.726
 21
1160.689
 31
0
 0
ARC
 8
TOOL_0
 5
60
 10
2865.186
 20
1168.219
 30
0
 40
50.029916050299
 50
188.65647986528
 51
269.970224062898
210
0
220
0
230
1.0
 0
LINE
 8
TOOL_0
 5
61
 10
2865.16
 20
1118.189
 30
0
 11
2965.16
 21
1118.189
 31
0
 0
ARC
 8
TOOL_0
 5
62
 10
2965.16
 20
1168.189
 30
0
 40
50.0
 50
270.0
 51
0
210
0
220
0
230
1.0
 0
LINE
 8
TOOL_0
 5
63
 10
3015.16
 20
1168.189
 30
0
 11
3015.16
 21
1250.689
 31
0
 0
LINE
 8
TOOL_0
 5
64
 10
3015.16
 20
1250.689
 30
0
 11
3075.16
 21
1250.689
 31
0
 0
ARC
 8
TOOL_0
 5
65
 10
3075.16
 20
1313.189
 30
0
 40
62.5
 50
270.0
 51
0
210
0
220
0
230
1.0
 0
LINE
 8
TOOL_0
 5
66
 10
3137.66
 20
1313.189
 30
0
 11
2548.79
 21
1488.189
 31
0
 0
LINE
 8
TOOL_0
 5
67
 10
2548.79
 20
1488.189
 30
0
 11
2565.16
 21
1488.189
 31
0
 0
LINE
 8
TOOL_0
 5
68
 10
2565.16
 20
1488.189
 30
0
 11
3265.16
 21
1488.189
 31
0
 0
LINE
 8
TOOL_0
 5
69
 10
3265.16
 20
1488.189
 30
0
 11
3265.16
 21
1013.189
 31
0
 0
LINE
 8
TOOL_0
 5
6A
 10
3265.16
 20
1013.189
 30
0
 11
2565.16
 21
1013.189
 31
0
 0
LINE
 8
TOOL_0
 5
6B
 10
2565.16
 20
1013.189
 30
0
 11
2565.16
 21
1488.189
 31
0
 0
LINE
 8
TOOL_0
 5
6C
 10
2565.16
 20
1488.189
 30
0
 11
2565.16
 21
1493.829
 31
0
 0
LINE
 8
TOOL_0
 5
6D
 10
2565.16
 20
1493.829
 30
0
 11
4016.726
 21
1135.563
 31
0
 0
LINE
 8
TOOL_0
 5
6E
 10
4016.726
 20
1135.563
 30
0
 11
4046.726
 21
1135.563
 31
0
 0
LINE
 8
TOOL_0
 5
6F
 10
4046.726
 20
1135.563
 30
0
 11
4046.726
 21
1195.563
 31
0
 0
ARC
 8
TOOL_0
 5
70
 10
3996.708
 20
1195.545
 30
0
 40
50.018003238834
 50
0.020619056874
 51
89.979380943126
210
0
220
0
230
1.0
 0
LINE
 8
TOOL_0
 5
71
 10
3996.726
 20
1245.563
 30
0
 11
3496.726
 21
1245.563
 31
0
 0
ARC
 8
TOOL_0
 5
72
 10
3496.744
 20
1195.545
 30
0
 40
50.018003238834
 50
90.020619056874
 51
179.979380943126
210
0
220
0
230
1.0
 0
LINE
 8
TOOL_0
 5
73
 10
3446.726
 20
1195.563
 30
0
 11
3446.726
 21
1075.563
 31
0
 0
ARC
 8
TOOL_0
 5
74
 10
3496.744
 20
1075.581
 30
0
 40
50.018003238834
 50
180.020619056874
 51
269.979380943126
210
0
220
0
230
1.0
 0
LINE
 8
TOOL_0
 5
75
 10
3496.726
 20
1025.563
 30
0
 11
3996.726
 21
1025.563
 31
0
 0
ARC
 8
TOOL_0
 5
76
 10
3996.708
 20
1075.581
 30
0
 40
50.018003238834
 50
270.020619056874
 51
359.979380943126
210
0
220
0
230
1.0
 0
LINE
 8
TOOL_0
 5
77
 10
4046.726
 20
1075.563
 30
0
 11
4046.726
 21
1135.563
 31
0
 0
LINE
 8
TOOL_0
 5
78
 10
4046.726
 20
1135.563
 30
0
 11
4219.875
 21
974.563
 31
0
 0
LINE
 8
TOOL_0
 5
79
 10
4219.875
 20
974.563
 30
0
 11
4207.826
 21
974.563
 31
0
 0
LINE
 8
TOOL_0
 5
7A
 10
4207.826
 20
974.563
 30
0
 11
3285.626
 21
974.563
 31
0
 0
LINE
 8
TOOL_0
 5
7B
 10
3285.626
 20
974.563
 30
0
 11
3285.626
 21
1351.563
 31
0
 0
LINE
 8
TOOL_0
 5
7C
 10
3285.626
 20
1351.563
 30
0
 11
4207.826
 21
1351.563
 31
0
 0
LINE
 8
TOOL_0
 5
7D
 10
4207.826
 20
1351.563
 30
0
 11
4207.826
 21
974.563
 31
0
 0
LINE
 8
TOOL_0
 5
7E
 10
4207.826
 20
974.563
 30
0
 11
4207.826
 21
969.147
 31
0
 0
LINE
 8
TOOL_0
 5
7F
 10
4207.826
 20
969.147
 30
0
 11
3888.393
 21
463.601
 31
0
 0
LINE
 8
TOOL_0
 5
80
 10
3888.393
 20
463.601
 30
0
 11
3918.393
 21
463.601
 31
0
 0
LINE
 8
TOOL_0
 5
81
 10
3918.393
 20
463.601
 30
0
 11
3918.393
 21
696.101
 31
0
 0
ARC
 8
TOOL_0
 5
82
 10
3818.393
 20
696.101
 30
0
 40
100.0
 50
0
 51
90.0
210
0
220
0
230
1.0
 0
LINE
 8
TOOL_0
 5
83
 10
3818.393
 20
796.101
 30
0
 11
3588.393
 21
796.101
 31
0
 0
ARC
 8
TOOL_0
 5
84
 10
3588.393
 20
696.101
 30
0
 40
100.0
 50
90.0
 51
180.0
210
0
220
0
230
1.0
 0
LINE
 8
TOOL_0
 5
85
 10
3488.393
 20
696.101
 30
0
 11
3488.393
 21
231.101
 31
0
 0
ARC
 8
TOOL_0
 5
86
 10
3588.393
 20
231.101
 30
0
 40
100.0
 50
180.0
 51
270.0
210
0
220
0
230
1.0
 0
LINE
 8
TOOL_0
 5
87
 10
3588.393
 20
131.101
 30
0
 11
3818.393
 21
131.101
 31
0
 0
ARC
 8
TOOL_0
 5
88
 10
3818.393
 20
231.101
 30
0
 40
100.0
 50
270.0
 51
359.999427042205
210
0
220
0
230
1.0
 0
LINE
 8
TOOL_0
 5
89
 10
3918.393
 20
231.1
 30
0
 11
3918.393
 21
463.601
 31
0
 0
LINE
 8
TOOL_0
 5
8A
 10
3918.393
 20
463.601
 30
0
 11
3284.44
 21
952.201
 31
0
 0
LINE
 8
TOOL_0
 5
8B
 10
3284.44
 20
952.201
 30
0
 11
3302.293
 21
952.201
 31
0
 0
LINE
 8
TOOL_0
 5
8C
 10
3302.293
 20
952.201
 30
0
 11
4104.493
 21
952.201
 31
0
 0
LINE
 8
TOOL_0
 5
8D
 10
4104.493
 20
952.201
 30
0
 11
4104.493
 21
15.001
 31
0
 0
LINE
 8
TOOL_0
 5
8E
 10
4104.493
 20
15.001
 30
0
 11
3302.293
 21
15.001
 31
0
 0
LINE
 8
TOOL_0
 5
8F
 10
3302.293
 20
15.001
 30
0
 11
3302.293
 21
952.201
 31
0
 0
LINE
 8
TOOL_0
 5
90
 10
3302.293
 20
952.201
 30
0
 11
3302.293
 21
957.976
 31
0
 0
LINE
 8
TOOL_0
 5
91
 10
3302.293
 20
957.976
 30
0
 11
4837.418
 21
14.001
 31
0
 0
LINE
 8
TOOL_0
 5
92
 10
4837.418
 20
14.001
 30
0
 11
4823.744
 21
14.001
 31
0
 0
LINE
 8
TOOL_0
 5
93
 10
4823.744
 20
14.001
 30
0
 11
4123.744
 21
14.001
 31
0
 0
LINE
 8
TOOL_0
 5
94
 10
4123.744
 20
14.001
 30
0
 11
4123.744
 21
204.001
 31
0
 0
LINE
 8
TOOL_0
 5
95
 10
4123.744
 20
204.001
 30
0
 11
4823.744
 21
64.001
 31
0
 0
LINE
 8
TOOL_0
 5
96
 10
4823.744
 20
64.001
 30
0
 11
4823.744
 21
14.001
 31
0
 0
LINE
 8
TOOL_0
 5
97
 10
4823.744
 20
14.001
 30
0
 11
4823.744
 21
8.138
 31
0
 0
LINE
 8
TOOL_0
 5
98
 10
4823.744
 20
8.138
 30
0
 11
4823.744
 21
301.236
 31
0
 0
LINE
 8
TOOL_0
 5
99
 10
4823.744
 20
301.236
 30
0
 11
4823.744
 21
276.236
 31
0
 0
LINE
 8
TOOL_0
 5
9A
 10
4823.744
 20
276.236
 30
0
 11
4823.744
 21
86.236
 31
0
 0
LINE
 8
TOOL_0
 5
9B
 10
4823.744
 20
86.236
 30
0
 11
4123.744
 21
226.236
 31
0
 0
LINE
 8
TOOL_0
 5
9C
 10
4123.744
 20
226.236
 30
0
 11
4123.744
 21
276.236
 31
0
 0
LINE
 8
TOOL_0
 5
9D
 10
4123.744
 20
276.236
 30
0
 11
4823.744
 21
276.236
 31
0
 0
LINE
 8
TOOL_0
 5
9E
 10
4823.744
 20
276.236
 30
0
 11
4828.744
 21
276.236
 31
0
 0
LINE
 8
TOOL_0
 5
9F
 10
4828.744
 20
276.236
 30
0
 11
4682.084
 21
385.221
 31
0
 0
LINE
 8
TOOL_0
 5
A0
 10
4682.084
 20
385.221
 30
0
 11
4657.084
 21
385.221
 31
0
 0
ARC
 8
TOOL_0
 5
A1
 10
4441.416
 20
600.889
 30
0
 40
305.00061056988
 50
134.99973433219
 51
315.0
210
0
220
0
230
1.0
 0
ARC
 8
TOOL_0
 5
A2
 10
4441.416
 20
600.888
 30
0
 40
304.999903470477
 50
315.000132833597
 51
134.999601499209
210
0
220
0
230
1.0
 0
LINE
 8
TOOL_0
 5
A3
 10
4657.084
 20
385.221
 30
0
 11
4657.084
 21
380.221
 31
0
 0
LINE
 8
TOOL_0
 5
A4
 10
4657.084
 20
380.221
 30
0
 11
4662.477
 21
923.395
 31
0
 0
LINE
 8
TOOL_0
 5
A5
 10
4662.477
 20
923.395
 30
0
 11
4637.477
 21
923.395
 31
0
 0
LINE
 8
TOOL_0
 5
A6
 10
4637.477
 20
923.395
 30
0
 11
4227.477
 21
923.395
 31
0
 0
LINE
 8
TOOL_0
 5
A7
 10
4227.477
 20
923.395
 30
0
 11
4227.477
 21
1343.395
 31
0
 0
LINE
 8
TOOL_0
 5
A8
 10
4227.477
 20
1343.395
 30
0
 11
4637.477
 21
1343.395
 31
0
 0
LINE
 8
TOOL_0
 5
A9
 10
4637.477
 20
1343.395
 30
0
 11
4637.477
 21
1218.395
 31
0
 0
LINE
 8
TOOL_0
 5
AA
 10
4637.477
 20
1218.395
 30
0
 11
4512.477
 21
1218.395
 31
0
 0
ARC
 8
TOOL_0
 5
AB
 10
4512.477
 20
1133.395
 30
0
 40
85.0
 50
90.0
 51
270.0
210
0
220
0
230
1.0
 0
LINE
 8
TOOL_0
 5
AC
 10
4512.477
 20
1048.395
 30
0
 11
4637.477
 21
1048.395
 31
0
 0
LINE
 8
TOOL_0
 5
AD
 10
4637.477
 20
1048.395
 30
0
 11
4637.477
 21
923.395
 31
0
 0
LINE
 8
TOOL_0
 5
AE
 10
4637.477
 20
923.395
 30
0
 11
4637.477
 21
918.395
 31
0
 0
LINE
 8
TOOL_0
 5
AF
 10
4637.477
 20
918.395
 30
0
 11
4840.978
 21
0
 31
0
 0
LINE
 8
TOOL_0
 5
B0
 10
4840.978
 20
0
 30
0
 11
4840.978
 21
1.0
 31
0
 0
LINE
 8
TOOL_0
 5
B1
 10
4840.978
 20
1.0
 30
0
 11
4840.978
 21
0
 31
0
 0
LINE
 8
TOOL_0
 5
B2
 10
4840.978
 20
0
 30
0
 11
4840.978
 21
1.0
 31
0
 0
LINE
 8
TOOL_0
 5
B3
 10
4840.978
 20
1.0
 30
0
 11
4840.978
 21
307.724
 31
0
 0
LINE
 8
TOOL_0
 5
B4
 10
4840.978
 20
307.724
 30
0
 11
4770.447
 21
307.724
 31
0
 0
LINE
 8
TOOL_0
 5
B5
 10
4770.447
 20
307.724
 30
0
 11
4770.447
 21
853.041
 31
0
 0
LINE
 8
TOOL_0
 5
B6
 10
4770.447
 20
853.041
 30
0
 11
4674.532
 21
853.041
 31
0
 0
LINE
 8
TOOL_0
 5
B7
 10
4674.532
 20
853.041
 30
0
 11
4674.532
 21
1367.003
 31
0
 0
LINE
 8
TOOL_0
 5
B8
 10
4674.532
 20
1367.003
 30
0
 11
3293.516
 21
1367.003
 31
0
 0
LINE
 8
TOOL_0
 5
B9
 10
3293.516
 20
1367.003
 30
0
 11
3293.516
 21
1509.455
 31
0
 0
LINE
 8
TOOL_0
 5
BA
 10
3293.516
 20
1509.455
 30
0
 11
1.001
 21
1509.455
 31
0
 0
LINE
 8
TOOL_0
 5
BB
 10
1.001
 20
1509.455
 30
0
 11
0.001
 21
1509.455
 31
0
 0
ENDSEC
 0
EOF

