0
SECTION
2
TABLES
0
TABLE
2
LAYER
70
0
0
LAYER
2
LAYER_NAME
70
0
62
1
6
CONTINUOUS
0
ENDTAB
0
ENDSEC
 0
SECTION
 2
ENTITIES
 0
LINE
 8
TOOL_0
 5
1
 10
760.316
 20
1177.313
 30
0
 11
790.316
 21
1177.313
 31
0
 0
LINE
 8
TOOL_0
 5
2
 10
790.316
 20
1177.313
 30
0
 11
790.316
 21
1212.313
 31
0
 0
ARC
 8
TOOL_0
 5
3
 10
770.316
 20
1212.313
 30
0
 40
20.0
 50
0
 51
90.0
210
0
220
0
230
1.0
 0
LINE
 8
TOOL_0
 5
4
 10
770.316
 20
1232.313
 30
0
 11
360.316
 21
1232.313
 31
0
 0
ARC
 8
TOOL_0
 5
5
 10
360.316
 20
1212.313
 30
0
 40
20.0
 50
90.0
 51
180.0
210
0
220
0
230
1.0
 0
LINE
 8
TOOL_0
 5
6
 10
340.316
 20
1212.313
 30
0
 11
340.316
 21
1142.313
 31
0
 0
ARC
 8
TOOL_0
 5
7
 10
360.316
 20
1142.313
 30
0
 40
20.0
 50
180.0
 51
270.0
210
0
220
0
230
1.0
 0
LINE
 8
TOOL_0
 5
8
 10
360.316
 20
1122.313
 30
0
 11
770.316
 21
1122.313
 31
0
 0
ARC
 8
TOOL_0
 5
9
 10
770.316
 20
1142.313
 30
0
 40
20.0
 50
270.0
 51
0
210
0
220
0
230
1.0
 0
LINE
 8
TOOL_0
 5
A
 10
790.316
 20
1142.313
 30
0
 11
790.316
 21
1177.313
 31
0
 0
LINE
 8
TOOL_0
 5
B
 10
790.316
 20
1177.313
 30
0
 11
783.245
 21
1184.384
 31
0
 0
LINE
 8
TOOL_0
 5
C
 10
783.245
 20
1184.384
 30
0
 11
1111.566
 21
1408.213
 31
0
 0
LINE
 8
TOOL_0
 5
D
 10
1111.566
 20
1408.213
 30
0
 11
1111.566
 21
1373.213
 31
0
 0
LINE
 8
TOOL_0
 5
E
 10
1111.566
 20
1373.213
 30
0
 11
1111.566
 21
1276.063
 31
0
 0
LINE
 8
TOOL_0
 5
F
 10
1111.566
 20
1276.063
 30
0
 11
1080.316
 21
1276.063
 31
0
 0
ARC
 8
TOOL_0
 5
10
 10
1080.316
 20
1257.313
 30
0
 40
18.75
 50
90.0
 51
180.0
210
0
220
0
230
1.0
 0
LINE
 8
TOOL_0
 5
11
 10
1061.566
 20
1257.313
 30
0
 11
1061.566
 21
1117.313
 31
0
 0
ARC
 8
TOOL_0
 5
12
 10
1080.316
 20
1117.313
 30
0
 40
18.75
 50
180.0
 51
270.0
210
0
220
0
230
1.0
 0
LINE
 8
TOOL_0
 5
13
 10
1080.316
 20
1098.563
 30
0
 11
1111.566
 21
1098.563
 31
0
 0
LINE
 8
TOOL_0
 5
14
 10
1111.566
 20
1098.563
 30
0
 11
1111.566
 21
1037.313
 31
0
 0
LINE
 8
TOOL_0
 5
15
 10
1111.566
 20
1037.313
 30
0
 11
19.066
 21
1037.313
 31
0
 0
LINE
 8
TOOL_0
 5
16
 10
19.066
 20
1037.313
 30
0
 11
19.066
 21
1098.563
 31
0
 0
LINE
 8
TOOL_0
 5
17
 10
19.066
 20
1098.563
 30
0
 11
50.316
 21
1098.563
 31
0
 0
ARC
 8
TOOL_0
 5
18
 10
50.316
 20
1117.313
 30
0
 40
18.75
 50
270.0
 51
0
210
0
220
0
230
1.0
 0
LINE
 8
TOOL_0
 5
19
 10
69.066
 20
1117.313
 30
0
 11
69.066
 21
1257.313
 31
0
 0
ARC
 8
TOOL_0
 5
1A
 10
50.316
 20
1257.313
 30
0
 40
18.75
 50
0
 51
90.0
210
0
220
0
230
1.0
 0
LINE
 8
TOOL_0
 5
1B
 10
50.316
 20
1276.063
 30
0
 11
19.066
 21
1276.063
 31
0
 0
LINE
 8
TOOL_0
 5
1C
 10
19.066
 20
1276.063
 30
0
 11
19.066
 21
1373.213
 31
0
 0
LINE
 8
TOOL_0
 5
1D
 10
19.066
 20
1373.213
 30
0
 11
200.557
 21
1373.213
 31
0
 0
LINE
 8
TOOL_0
 5
1E
 10
200.557
 20
1373.213
 30
0
 11
269.839
 21
1333.213
 31
0
 0
LINE
 8
TOOL_0
 5
1F
 10
269.839
 20
1333.213
 30
0
 11
400.689
 21
1333.213
 31
0
 0
LINE
 8
TOOL_0
 5
20
 10
400.689
 20
1333.213
 30
0
 11
430.689
 21
1303.213
 31
0
 0
LINE
 8
TOOL_0
 5
21
 10
430.689
 20
1303.213
 30
0
 11
699.943
 21
1303.213
 31
0
 0
LINE
 8
TOOL_0
 5
22
 10
699.943
 20
1303.213
 30
0
 11
729.943
 21
1333.213
 31
0
 0
LINE
 8
TOOL_0
 5
23
 10
729.943
 20
1333.213
 30
0
 11
860.793
 21
1333.213
 31
0
 0
LINE
 8
TOOL_0
 5
24
 10
860.793
 20
1333.213
 30
0
 11
930.075
 21
1373.213
 31
0
 0
LINE
 8
TOOL_0
 5
25
 10
930.075
 20
1373.213
 30
0
 11
1111.566
 21
1373.213
 31
0
 0
LINE
 8
TOOL_0
 5
26
 10
1111.566
 20
1373.213
 30
0
 11
1116.566
 21
1373.213
 31
0
 0
LINE
 8
TOOL_0
 5
27
 10
1116.566
 20
1373.213
 30
0
 11
1401.167
 21
609.221
 31
0
 0
LINE
 8
TOOL_0
 5
28
 10
1401.167
 20
609.221
 30
0
 11
1371.258
 21
609.087
 31
0
 0
LINE
 8
TOOL_0
 5
29
 10
1371.258
 20
609.087
 30
0
 11
1169.658
 21
609.087
 31
0
 0
ARC
 8
TOOL_0
 5
2A
 10
1169.658
 20
639.087
 30
0
 40
30.0
 50
180.0
 51
270.0
210
0
220
0
230
1.0
 0
LINE
 8
TOOL_0
 5
2B
 10
1139.658
 20
639.087
 30
0
 11
1139.658
 21
908.087
 31
0
 0
ARC
 8
TOOL_0
 5
2C
 10
1169.658
 20
908.087
 30
0
 40
30.0
 50
90.0
 51
180.0
210
0
220
0
230
1.0
 0
LINE
 8
TOOL_0
 5
2D
 10
1169.658
 20
938.087
 30
0
 11
1260.458
 21
938.087
 31
0
 0
ARC
 8
TOOL_0
 5
2E
 10
1260.458
 20
968.087
 30
0
 40
30.0
 50
270.0
 51
0
210
0
220
0
230
1.0
 0
LINE
 8
TOOL_0
 5
2F
 10
1290.458
 20
968.087
 30
0
 11
1290.458
 21
1021.087
 31
0
 0
ARC
 8
TOOL_0
 5
30
 10
1320.458
 20
1021.087
 30
0
 40
30.0
 50
90.0
 51
180.0
210
0
220
0
230
1.0
 0
LINE
 8
TOOL_0
 5
31
 10
1320.458
 20
1051.087
 30
0
 11
1371.258
 21
1051.087
 31
0
 0
ARC
 8
TOOL_0
 5
32
 10
1371.258
 20
1021.087
 30
0
 40
30.0
 50
0
 51
90.0
210
0
220
0
230
1.0
 0
LINE
 8
TOOL_0
 5
33
 10
1401.258
 20
1021.087
 30
0
 11
1401.258
 21
639.087
 31
0
 0
ARC
 8
TOOL_0
 5
34
 10
1371.258
 20
639.087
 30
0
 40
30.0
 50
270.0
 51
0
210
0
220
0
230
1.0
 0
LINE
 8
TOOL_0
 5
35
 10
1371.258
 20
609.087
 30
0
 11
1366.544
 21
607.264
 31
0
 0
LINE
 8
TOOL_0
 5
36
 10
1366.544
 20
607.264
 30
0
 11
1401.605
 21
1398.523
 31
0
 0
LINE
 8
TOOL_0
 5
37
 10
1401.605
 20
1398.523
 30
0
 11
1401.728
 21
1368.148
 31
0
 0
LINE
 8
TOOL_0
 5
38
 10
1401.728
 20
1368.148
 30
0
 11
1401.728
 21
1099.148
 31
0
 0
ARC
 8
TOOL_0
 5
39
 10
1371.728
 20
1099.148
 30
0
 40
30.0
 50
270.0
 51
0
210
0
220
0
230
1.0
 0
LINE
 8
TOOL_0
 5
3A
 10
1371.728
 20
1069.148
 30
0
 11
1280.928
 21
1069.148
 31
0
 0
ARC
 8
TOOL_0
 5
3B
 10
1280.928
 20
1039.148
 30
0
 40
30.0
 50
90.0
 51
180.0
210
0
220
0
230
1.0
 0
LINE
 8
TOOL_0
 5
3C
 10
1250.928
 20
1039.148
 30
0
 11
1250.928
 21
986.148
 31
0
 0
ARC
 8
TOOL_0
 5
3D
 10
1220.928
 20
986.148
 30
0
 40
30.0
 50
270.0
 51
0
210
0
220
0
230
1.0
 0
LINE
 8
TOOL_0
 5
3E
 10
1220.928
 20
956.148
 30
0
 11
1170.128
 21
956.148
 31
0
 0
ARC
 8
TOOL_0
 5
3F
 10
1170.128
 20
986.148
 30
0
 40
30.0
 50
180.0
 51
270.0
210
0
220
0
230
1.0
 0
LINE
 8
TOOL_0
 5
40
 10
1140.128
 20
986.148
 30
0
 11
1140.128
 21
1368.148
 31
0
 0
ARC
 8
TOOL_0
 5
41
 10
1170.128
 20
1368.148
 30
0
 40
30.0
 50
90.0
 51
180.0
210
0
220
0
230
1.0
 0
LINE
 8
TOOL_0
 5
42
 10
1170.128
 20
1398.148
 30
0
 11
1371.728
 21
1398.148
 31
0
 0
ARC
 8
TOOL_0
 5
43
 10
1371.728
 20
1368.148
 30
0
 40
30.0
 50
0
 51
90.0
210
0
220
0
230
1.0
 0
LINE
 8
TOOL_0
 5
44
 10
1401.728
 20
1368.148
 30
0
 11
1405.131
 21
1364.034
 31
0
 0
LINE
 8
TOOL_0
 5
45
 10
1405.131
 20
1364.034
 30
0
 11
1443.157
 21
589.897
 31
0
 0
LINE
 8
TOOL_0
 5
46
 10
1443.157
 20
589.897
 30
0
 11
1443.157
 21
1559.0
 31
0
 0
LINE
 8
TOOL_0
 5
47
 10
1443.157
 20
1559.0
 30
0
 11
1443.157
 21
1560.0
 31
0
 0
ENDSEC
 0
EOF

