0
SECTION
2
TABLES
0
TABLE
2
LAYER
70
0
0
LAYER
2
LAYER_NAME
70
0
62
1
6
CONTINUOUS
0
ENDTAB
0
ENDSEC
 0
SECTION
 2
ENTITIES
 0
LINE
 8
TOOL_0
 5
1
 10
220.25
 20
139.901
 30
0
 11
250.25
 21
139.901
 31
0
 0
LINE
 8
TOOL_0
 5
2
 10
250.25
 20
139.901
 30
0
 11
250.25
 21
189.901
 31
0
 0
ARC
 8
TOOL_0
 5
3
 10
230.25
 20
189.901
 30
0
 40
20.0
 50
0
 51
90.0
210
0
220
0
230
1.0
 0
LINE
 8
TOOL_0
 5
4
 10
230.25
 20
209.901
 30
0
 11
110.25
 21
209.901
 31
0
 0
ARC
 8
TOOL_0
 5
5
 10
110.25
 20
189.901
 30
0
 40
20.0
 50
90.0
 51
180.0
210
0
220
0
230
1.0
 0
LINE
 8
TOOL_0
 5
6
 10
90.25
 20
189.901
 30
0
 11
90.25
 21
89.901
 31
0
 0
ARC
 8
TOOL_0
 5
7
 10
110.25
 20
89.901
 30
0
 40
20.0
 50
180.0
 51
270.0
210
0
220
0
230
1.0
 0
LINE
 8
TOOL_0
 5
8
 10
110.25
 20
69.901
 30
0
 11
230.25
 21
69.901
 31
0
 0
ARC
 8
TOOL_0
 5
9
 10
230.25
 20
89.901
 30
0
 40
20.0
 50
270.0
 51
0
210
0
220
0
230
1.0
 0
LINE
 8
TOOL_0
 5
A
 10
250.25
 20
89.901
 30
0
 11
250.25
 21
139.901
 31
0
 0
LINE
 8
TOOL_0
 5
B
 10
250.25
 20
139.901
 30
0
 11
246.714
 21
143.437
 31
0
 0
LINE
 8
TOOL_0
 5
C
 10
246.714
 20
143.437
 30
0
 11
900.25
 21
159.901
 31
0
 0
LINE
 8
TOOL_0
 5
D
 10
900.25
 20
159.901
 30
0
 11
930.25
 21
159.901
 31
0
 0
LINE
 8
TOOL_0
 5
E
 10
930.25
 20
159.901
 30
0
 11
930.25
 21
194.901
 31
0
 0
ARC
 8
TOOL_0
 5
F
 10
910.25
 20
194.901
 30
0
 40
20.0
 50
0
 51
90.0
210
0
220
0
230
1.0
 0
LINE
 8
TOOL_0
 5
10
 10
910.25
 20
214.901
 30
0
 11
500.25
 21
214.901
 31
0
 0
ARC
 8
TOOL_0
 5
11
 10
500.25
 20
194.901
 30
0
 40
20.0
 50
90.0
 51
180.0
210
0
220
0
230
1.0
 0
LINE
 8
TOOL_0
 5
12
 10
480.25
 20
194.901
 30
0
 11
480.25
 21
124.901
 31
0
 0
ARC
 8
TOOL_0
 5
13
 10
500.25
 20
124.901
 30
0
 40
20.0
 50
180.0
 51
270.0
210
0
220
0
230
1.0
 0
LINE
 8
TOOL_0
 5
14
 10
500.25
 20
104.901
 30
0
 11
910.25
 21
104.901
 31
0
 0
ARC
 8
TOOL_0
 5
15
 10
910.25
 20
124.901
 30
0
 40
20.0
 50
270.0
 51
0
210
0
220
0
230
1.0
 0
LINE
 8
TOOL_0
 5
16
 10
930.25
 20
124.901
 30
0
 11
930.25
 21
159.901
 31
0
 0
LINE
 8
TOOL_0
 5
17
 10
930.25
 20
159.901
 30
0
 11
926.714
 21
163.437
 31
0
 0
LINE
 8
TOOL_0
 5
18
 10
926.714
 20
163.437
 30
0
 11
1290.25
 21
139.901
 31
0
 0
LINE
 8
TOOL_0
 5
19
 10
1290.25
 20
139.901
 30
0
 11
1320.25
 21
139.901
 31
0
 0
LINE
 8
TOOL_0
 5
1A
 10
1320.25
 20
139.901
 30
0
 11
1320.25
 21
189.901
 31
0
 0
ARC
 8
TOOL_0
 5
1B
 10
1300.25
 20
189.901
 30
0
 40
20.0
 50
0
 51
90.0
210
0
220
0
230
1.0
 0
LINE
 8
TOOL_0
 5
1C
 10
1300.25
 20
209.901
 30
0
 11
1180.25
 21
209.901
 31
0
 0
ARC
 8
TOOL_0
 5
1D
 10
1180.25
 20
189.901
 30
0
 40
20.0
 50
90.0
 51
180.0
210
0
220
0
230
1.0
 0
LINE
 8
TOOL_0
 5
1E
 10
1160.25
 20
189.901
 30
0
 11
1160.25
 21
89.901
 31
0
 0
ARC
 8
TOOL_0
 5
1F
 10
1180.25
 20
89.901
 30
0
 40
20.0
 50
180.0
 51
270.0
210
0
220
0
230
1.0
 0
LINE
 8
TOOL_0
 5
20
 10
1180.25
 20
69.901
 30
0
 11
1300.25
 21
69.901
 31
0
 0
ARC
 8
TOOL_0
 5
21
 10
1300.25
 20
89.901
 30
0
 40
20.0
 50
270.0
 51
0
210
0
220
0
230
1.0
 0
LINE
 8
TOOL_0
 5
22
 10
1320.25
 20
89.901
 30
0
 11
1320.25
 21
139.901
 31
0
 0
LINE
 8
TOOL_0
 5
23
 10
1320.25
 20
139.901
 30
0
 11
1316.714
 21
143.437
 31
0
 0
LINE
 8
TOOL_0
 5
24
 10
1316.714
 20
143.437
 30
0
 11
1125.009
 21
370.801
 31
0
 0
LINE
 8
TOOL_0
 5
25
 10
1125.009
 20
370.801
 30
0
 11
1160.009
 21
370.801
 31
0
 0
LINE
 8
TOOL_0
 5
26
 10
1160.009
 20
370.801
 30
0
 11
1391.5
 21
370.801
 31
0
 0
LINE
 8
TOOL_0
 5
27
 10
1391.5
 20
370.801
 30
0
 11
1391.5
 21
19.001
 31
0
 0
LINE
 8
TOOL_0
 5
28
 10
1391.5
 20
19.001
 30
0
 11
19.0
 21
19.001
 31
0
 0
LINE
 8
TOOL_0
 5
29
 10
19.0
 20
19.001
 30
0
 11
19.0
 21
370.801
 31
0
 0
LINE
 8
TOOL_0
 5
2A
 10
19.0
 20
370.801
 30
0
 11
250.491
 21
370.801
 31
0
 0
LINE
 8
TOOL_0
 5
2B
 10
250.491
 20
370.801
 30
0
 11
293.792
 21
345.801
 31
0
 0
LINE
 8
TOOL_0
 5
2C
 10
293.792
 20
345.801
 30
0
 11
438.622
 21
345.801
 31
0
 0
LINE
 8
TOOL_0
 5
2D
 10
438.622
 20
345.801
 30
0
 11
473.622
 21
310.801
 31
0
 0
LINE
 8
TOOL_0
 5
2E
 10
473.622
 20
310.801
 30
0
 11
936.876
 21
310.801
 31
0
 0
LINE
 8
TOOL_0
 5
2F
 10
936.876
 20
310.801
 30
0
 11
971.876
 21
345.801
 31
0
 0
LINE
 8
TOOL_0
 5
30
 10
971.876
 20
345.801
 30
0
 11
1116.706
 21
345.801
 31
0
 0
LINE
 8
TOOL_0
 5
31
 10
1116.706
 20
345.801
 30
0
 11
1160.007
 21
370.801
 31
0
 0
LINE
 8
TOOL_0
 5
32
 10
1160.007
 20
370.801
 30
0
 11
1164.337
 21
373.301
 31
0
 0
LINE
 8
TOOL_0
 5
33
 10
1164.337
 20
373.301
 30
0
 11
1164.337
 21
0
 31
0
 0
LINE
 8
TOOL_0
 5
34
 10
1164.337
 20
0
 30
0
 11
1886.842
 21
19.001
 31
0
 0
LINE
 8
TOOL_0
 5
35
 10
1886.842
 20
19.001
 30
0
 11
1856.719
 21
19.001
 31
0
 0
LINE
 8
TOOL_0
 5
36
 10
1856.719
 20
19.001
 30
0
 11
1429.719
 21
19.001
 31
0
 0
ARC
 8
TOOL_0
 5
37
 10
1429.719
 20
39.001
 30
0
 40
20.0
 50
180.0
 51
270.0
210
0
220
0
230
1.0
 0
LINE
 8
TOOL_0
 5
38
 10
1409.719
 20
39.001
 30
0
 11
1409.719
 21
290.601
 31
0
 0
ARC
 8
TOOL_0
 5
39
 10
1429.719
 20
290.601
 30
0
 40
20.0
 50
90.0
 51
180.0
210
0
220
0
230
1.0
 0
LINE
 8
TOOL_0
 5
3A
 10
1429.719
 20
310.601
 30
0
 11
1718.519
 21
310.601
 31
0
 0
ARC
 8
TOOL_0
 5
3B
 10
1718.519
 20
290.601
 30
0
 40
20.0
 50
0
 51
90.0
210
0
220
0
230
1.0
 0
LINE
 8
TOOL_0
 5
3C
 10
1738.519
 20
290.601
 30
0
 11
1738.519
 21
190.301
 31
0
 0
ARC
 8
TOOL_0
 5
3D
 10
1768.519
 20
190.301
 30
0
 40
30.0
 50
180.0
 51
270.0
210
0
220
0
230
1.0
 0
LINE
 8
TOOL_0
 5
3E
 10
1768.519
 20
160.301
 30
0
 11
1856.719
 21
160.301
 31
0
 0
ARC
 8
TOOL_0
 5
3F
 10
1856.719
 20
110.301
 30
0
 40
50.0
 50
0
 51
90.0
210
0
220
0
230
1.0
 0
LINE
 8
TOOL_0
 5
40
 10
1906.719
 20
110.301
 30
0
 11
1906.719
 21
69.001
 31
0
 0
ARC
 8
TOOL_0
 5
41
 10
1856.719
 20
69.001
 30
0
 40
50.0
 50
270.0
 51
0
210
0
220
0
230
1.0
 0
LINE
 8
TOOL_0
 5
42
 10
1856.719
 20
19.001
 30
0
 11
1852.977
 21
17.453
 31
0
 0
LINE
 8
TOOL_0
 5
43
 10
1852.977
 20
17.453
 30
0
 11
2349.881
 21
23.425
 31
0
 0
LINE
 8
TOOL_0
 5
44
 10
2349.881
 20
23.425
 30
0
 11
2319.483
 21
23.425
 31
0
 0
LINE
 8
TOOL_0
 5
45
 10
2319.483
 20
23.425
 30
0
 11
2030.683
 21
23.425
 31
0
 0
ARC
 8
TOOL_0
 5
46
 10
2030.683
 20
43.425
 30
0
 40
20.0
 50
180.0
 51
270.0
210
0
220
0
230
1.0
 0
LINE
 8
TOOL_0
 5
47
 10
2010.683
 20
43.425
 30
0
 11
2010.683
 21
143.725
 31
0
 0
ARC
 8
TOOL_0
 5
48
 10
1980.683
 20
143.725
 30
0
 40
30.0
 50
0
 51
90.0
210
0
220
0
230
1.0
 0
LINE
 8
TOOL_0
 5
49
 10
1980.683
 20
173.725
 30
0
 11
1892.483
 21
173.725
 31
0
 0
ARC
 8
TOOL_0
 5
4A
 10
1892.483
 20
223.725
 30
0
 40
50.0
 50
180.0
 51
270.0
210
0
220
0
230
1.0
 0
LINE
 8
TOOL_0
 5
4B
 10
1842.483
 20
223.725
 30
0
 11
1842.483
 21
265.025
 31
0
 0
ARC
 8
TOOL_0
 5
4C
 10
1892.483
 20
265.025
 30
0
 40
50.0
 50
90.0
 51
180.0
210
0
220
0
230
1.0
 0
LINE
 8
TOOL_0
 5
4D
 10
1892.483
 20
315.025
 30
0
 11
2319.483
 21
315.025
 31
0
 0
ARC
 8
TOOL_0
 5
4E
 10
2319.483
 20
295.025
 30
0
 40
20.0
 50
0
 51
90.0
210
0
220
0
230
1.0
 0
LINE
 8
TOOL_0
 5
4F
 10
2339.483
 20
295.025
 30
0
 11
2339.483
 21
43.425
 31
0
 0
ARC
 8
TOOL_0
 5
50
 10
2319.483
 20
43.425
 30
0
 40
20.0
 50
270.0
 51
0
210
0
220
0
230
1.0
 0
LINE
 8
TOOL_0
 5
51
 10
2319.483
 20
23.425
 30
0
 11
2315.86
 21
21.997
 31
0
 0
LINE
 8
TOOL_0
 5
52
 10
2315.86
 20
21.997
 30
0
 11
1886.843
 21
638.799
 31
0
 0
LINE
 8
TOOL_0
 5
53
 10
1886.843
 20
638.799
 30
0
 11
1856.72
 21
638.799
 31
0
 0
LINE
 8
TOOL_0
 5
54
 10
1856.72
 20
638.799
 30
0
 11
1429.72
 21
638.799
 31
0
 0
ARC
 8
TOOL_0
 5
55
 10
1429.72
 20
658.799
 30
0
 40
20.0
 50
180.0
 51
270.0
210
0
220
0
230
1.0
 0
LINE
 8
TOOL_0
 5
56
 10
1409.72
 20
658.799
 30
0
 11
1409.72
 21
910.399
 31
0
 0
ARC
 8
TOOL_0
 5
57
 10
1429.72
 20
910.399
 30
0
 40
20.0
 50
90.0
 51
180.0
210
0
220
0
230
1.0
 0
LINE
 8
TOOL_0
 5
58
 10
1429.72
 20
930.399
 30
0
 11
1718.52
 21
930.399
 31
0
 0
ARC
 8
TOOL_0
 5
59
 10
1718.52
 20
910.399
 30
0
 40
20.0
 50
0
 51
90.0
210
0
220
0
230
1.0
 0
LINE
 8
TOOL_0
 5
5A
 10
1738.52
 20
910.399
 30
0
 11
1738.52
 21
810.099
 31
0
 0
ARC
 8
TOOL_0
 5
5B
 10
1768.52
 20
810.099
 30
0
 40
30.0
 50
180.0
 51
270.0
210
0
220
0
230
1.0
 0
LINE
 8
TOOL_0
 5
5C
 10
1768.52
 20
780.099
 30
0
 11
1856.72
 21
780.099
 31
0
 0
ARC
 8
TOOL_0
 5
5D
 10
1856.72
 20
730.099
 30
0
 40
50.0
 50
0
 51
90.0
210
0
220
0
230
1.0
 0
LINE
 8
TOOL_0
 5
5E
 10
1906.72
 20
730.099
 30
0
 11
1906.72
 21
688.799
 31
0
 0
ARC
 8
TOOL_0
 5
5F
 10
1856.72
 20
688.799
 30
0
 40
50.0
 50
270.0
 51
0
210
0
220
0
230
1.0
 0
LINE
 8
TOOL_0
 5
60
 10
1856.72
 20
638.799
 30
0
 11
1852.978
 21
637.251
 31
0
 0
LINE
 8
TOOL_0
 5
61
 10
1852.978
 20
637.251
 30
0
 11
2345.747
 21
643.499
 31
0
 0
LINE
 8
TOOL_0
 5
62
 10
2345.747
 20
643.499
 30
0
 11
2315.349
 21
643.499
 31
0
 0
LINE
 8
TOOL_0
 5
63
 10
2315.349
 20
643.499
 30
0
 11
2026.549
 21
643.499
 31
0
 0
ARC
 8
TOOL_0
 5
64
 10
2026.549
 20
663.499
 30
0
 40
20.0
 50
180.0
 51
270.0
210
0
220
0
230
1.0
 0
LINE
 8
TOOL_0
 5
65
 10
2006.549
 20
663.499
 30
0
 11
2006.549
 21
763.799
 31
0
 0
ARC
 8
TOOL_0
 5
66
 10
1976.549
 20
763.799
 30
0
 40
30.0
 50
0
 51
90.0
210
0
220
0
230
1.0
 0
LINE
 8
TOOL_0
 5
67
 10
1976.549
 20
793.799
 30
0
 11
1888.349
 21
793.799
 31
0
 0
ARC
 8
TOOL_0
 5
68
 10
1888.349
 20
843.799
 30
0
 40
50.0
 50
180.0
 51
270.0
210
0
220
0
230
1.0
 0
LINE
 8
TOOL_0
 5
69
 10
1838.349
 20
843.799
 30
0
 11
1838.349
 21
885.099
 31
0
 0
ARC
 8
TOOL_0
 5
6A
 10
1888.349
 20
885.099
 30
0
 40
50.0
 50
90.0
 51
180.0
210
0
220
0
230
1.0
 0
LINE
 8
TOOL_0
 5
6B
 10
1888.349
 20
935.099
 30
0
 11
2315.349
 21
935.099
 31
0
 0
ARC
 8
TOOL_0
 5
6C
 10
2315.349
 20
915.099
 30
0
 40
20.0
 50
0
 51
90.0
210
0
220
0
230
1.0
 0
LINE
 8
TOOL_0
 5
6D
 10
2335.349
 20
915.099
 30
0
 11
2335.349
 21
663.499
 31
0
 0
ARC
 8
TOOL_0
 5
6E
 10
2315.349
 20
663.499
 30
0
 40
20.0
 50
270.0
 51
0
210
0
220
0
230
1.0
 0
LINE
 8
TOOL_0
 5
6F
 10
2315.349
 20
643.499
 30
0
 11
2311.726
 21
642.071
 31
0
 0
LINE
 8
TOOL_0
 5
70
 10
2311.726
 20
642.071
 30
0
 11
1917.118
 21
1263.158
 31
0
 0
LINE
 8
TOOL_0
 5
71
 10
1917.118
 20
1263.158
 30
0
 11
1886.72
 21
1263.158
 31
0
 0
LINE
 8
TOOL_0
 5
72
 10
1886.72
 20
1263.158
 30
0
 11
1597.92
 21
1263.158
 31
0
 0
ARC
 8
TOOL_0
 5
73
 10
1597.92
 20
1283.158
 30
0
 40
20.0
 50
180.0
 51
270.0
210
0
220
0
230
1.0
 0
LINE
 8
TOOL_0
 5
74
 10
1577.92
 20
1283.158
 30
0
 11
1577.92
 21
1383.458
 31
0
 0
ARC
 8
TOOL_0
 5
75
 10
1547.92
 20
1383.458
 30
0
 40
30.0
 50
0
 51
90.0
210
0
220
0
230
1.0
 0
LINE
 8
TOOL_0
 5
76
 10
1547.92
 20
1413.458
 30
0
 11
1459.72
 21
1413.458
 31
0
 0
ARC
 8
TOOL_0
 5
77
 10
1459.72
 20
1463.458
 30
0
 40
50.0
 50
180.0
 51
270.0
210
0
220
0
230
1.0
 0
LINE
 8
TOOL_0
 5
78
 10
1409.72
 20
1463.458
 30
0
 11
1409.72
 21
1504.758
 31
0
 0
ARC
 8
TOOL_0
 5
79
 10
1459.72
 20
1504.758
 30
0
 40
50.0
 50
90.0
 51
180.0
210
0
220
0
230
1.0
 0
LINE
 8
TOOL_0
 5
7A
 10
1459.72
 20
1554.758
 30
0
 11
1886.72
 21
1554.758
 31
0
 0
ARC
 8
TOOL_0
 5
7B
 10
1886.72
 20
1534.758
 30
0
 40
20.0
 50
0
 51
90.0
210
0
220
0
230
1.0
 0
LINE
 8
TOOL_0
 5
7C
 10
1906.72
 20
1534.758
 30
0
 11
1906.72
 21
1283.158
 31
0
 0
ARC
 8
TOOL_0
 5
7D
 10
1886.72
 20
1283.158
 30
0
 40
20.0
 50
270.0
 51
0
210
0
220
0
230
1.0
 0
LINE
 8
TOOL_0
 5
7E
 10
1886.72
 20
1263.158
 30
0
 11
1883.097
 21
1261.73
 31
0
 0
LINE
 8
TOOL_0
 5
7F
 10
1883.097
 20
1261.73
 30
0
 11
2363.515
 21
0
 31
0
 0
LINE
 8
TOOL_0
 5
80
 10
2363.515
 20
0
 30
0
 11
2363.515
 21
1.0
 31
0
 0
LINE
 8
TOOL_0
 5
81
 10
2363.515
 20
1.0
 30
0
 11
2363.515
 21
0
 31
0
 0
LINE
 8
TOOL_0
 5
82
 10
2363.515
 20
0
 30
0
 11
2363.515
 21
0
 31
0
 0
LINE
 8
TOOL_0
 5
83
 10
2363.515
 20
0
 30
0
 11
2363.515
 21
1.0
 31
0
 0
LINE
 8
TOOL_0
 5
84
 10
2363.515
 20
1.0
 30
0
 11
2363.515
 21
1252.262
 31
0
 0
LINE
 8
TOOL_0
 5
85
 10
2363.515
 20
1252.262
 30
0
 11
1943.5
 21
1252.262
 31
0
 0
LINE
 8
TOOL_0
 5
86
 10
1943.5
 20
1252.262
 30
0
 11
1943.5
 21
1999.0
 31
0
 0
LINE
 8
TOOL_0
 5
87
 10
1943.5
 20
1999.0
 30
0
 11
1943.5
 21
2000.0
 31
0
 0
ENDSEC
 0
EOF

