0
SECTION
2
TABLES
0
TABLE
2
LAYER
70
0
0
LAYER
2
LAYER_NAME
70
0
62
1
6
CONTINUOUS
0
ENDTAB
0
ENDSEC
 0
SECTION
 2
ENTITIES
 0
LINE
 8
TOOL_0
 5
1
 10
5131.996
 20
322.246
 30
0
 11
5161.996
 21
322.246
 31
0
 0
ARC
 8
TOOL_0
 5
2
 10
5116.996
 20
322.246
 30
0
 40
45.0
 50
0
 51
180.0
210
0
220
0
230
1.0
 0
ARC
 8
TOOL_0
 5
3
 10
5116.996
 20
322.246
 30
0
 40
45.0
 50
180.0
 51
0
210
0
220
0
230
1.0
 0
LINE
 8
TOOL_0
 5
4
 10
5161.996
 20
322.246
 30
0
 11
5158.46
 21
325.782
 31
0
 0
LINE
 8
TOOL_0
 5
5
 10
5158.46
 20
325.782
 30
0
 11
8196.743
 21
36.55
 31
0
 0
LINE
 8
TOOL_0
 5
6
 10
8196.743
 20
36.55
 30
0
 11
8196.743
 21
19.073
 31
0
 0
LINE
 8
TOOL_0
 5
7
 10
8196.743
 20
19.073
 30
0
 11
8183.995
 21
18.996
 31
0
 0
LINE
 8
TOOL_0
 5
8
 10
8183.995
 20
18.996
 30
0
 11
18.995
 21
18.996
 31
0
 0
LINE
 8
TOOL_0
 5
9
 10
18.995
 20
18.996
 30
0
 11
18.995
 21
750.496
 31
0
 0
LINE
 8
TOOL_0
 5
A
 10
18.995
 20
750.496
 30
0
 11
8183.995
 21
750.496
 31
0
 0
LINE
 8
TOOL_0
 5
B
 10
8183.995
 20
750.496
 30
0
 11
8183.995
 21
649.746
 31
0
 0
LINE
 8
TOOL_0
 5
C
 10
8183.995
 20
649.746
 30
0
 11
8433.995
 21
649.746
 31
0
 0
LINE
 8
TOOL_0
 5
D
 10
8433.995
 20
649.746
 30
0
 11
8433.995
 21
454.746
 31
0
 0
LINE
 8
TOOL_0
 5
E
 10
8433.995
 20
454.746
 30
0
 11
8183.995
 21
454.746
 31
0
 0
LINE
 8
TOOL_0
 5
F
 10
8183.995
 20
454.746
 30
0
 11
8183.995
 21
314.746
 31
0
 0
LINE
 8
TOOL_0
 5
10
 10
8183.995
 20
314.746
 30
0
 11
8433.995
 21
314.746
 31
0
 0
LINE
 8
TOOL_0
 5
11
 10
8433.995
 20
314.746
 30
0
 11
8433.995
 21
119.746
 31
0
 0
LINE
 8
TOOL_0
 5
12
 10
8433.995
 20
119.746
 30
0
 11
8183.995
 21
119.746
 31
0
 0
LINE
 8
TOOL_0
 5
13
 10
8183.995
 20
119.746
 30
0
 11
8183.995
 21
18.996
 31
0
 0
LINE
 8
TOOL_0
 5
14
 10
8183.995
 20
18.996
 30
0
 11
269.499
 21
1035.938
 31
0
 0
LINE
 8
TOOL_0
 5
15
 10
269.499
 20
1035.938
 30
0
 11
299.499
 21
1035.938
 31
0
 0
ARC
 8
TOOL_0
 5
16
 10
234.499
 20
1035.938
 30
0
 40
65.0
 50
0
 51
90.0
210
0
220
0
230
1.0
 0
LINE
 8
TOOL_0
 5
17
 10
234.499
 20
1100.938
 30
0
 11
204.499
 21
1100.938
 31
0
 0
ARC
 8
TOOL_0
 5
18
 10
204.499
 20
1035.938
 30
0
 40
65.0
 50
90.0
 51
270.0
210
0
220
0
230
1.0
 0
LINE
 8
TOOL_0
 5
19
 10
204.499
 20
970.938
 30
0
 11
234.499
 21
970.938
 31
0
 0
ARC
 8
TOOL_0
 5
1A
 10
234.499
 20
1035.938
 30
0
 40
65.0
 50
270.0
 51
0
210
0
220
0
230
1.0
 0
LINE
 8
TOOL_0
 5
1B
 10
299.499
 20
1035.938
 30
0
 11
295.963
 21
1039.474
 31
0
 0
LINE
 8
TOOL_0
 5
1C
 10
295.963
 20
1039.474
 30
0
 11
1621.999
 21
1035.938
 31
0
 0
LINE
 8
TOOL_0
 5
1D
 10
1621.999
 20
1035.938
 30
0
 11
1651.999
 21
1035.938
 31
0
 0
ARC
 8
TOOL_0
 5
1E
 10
1611.999
 20
1035.938
 30
0
 40
40.0
 50
0
 51
180.0
210
0
220
0
230
1.0
 0
ARC
 8
TOOL_0
 5
1F
 10
1611.999
 20
1035.938
 30
0
 40
40.0
 50
180.0
 51
0
210
0
220
0
230
1.0
 0
LINE
 8
TOOL_0
 5
20
 10
1651.999
 20
1035.938
 30
0
 11
1648.463
 21
1039.474
 31
0
 0
LINE
 8
TOOL_0
 5
21
 10
1648.463
 20
1039.474
 30
0
 11
5821.999
 21
1035.938
 31
0
 0
LINE
 8
TOOL_0
 5
22
 10
5821.999
 20
1035.938
 30
0
 11
5851.999
 21
1035.938
 31
0
 0
ARC
 8
TOOL_0
 5
23
 10
5811.999
 20
1035.938
 30
0
 40
40.0
 50
0
 51
180.0
210
0
220
0
230
1.0
 0
ARC
 8
TOOL_0
 5
24
 10
5811.999
 20
1035.938
 30
0
 40
40.0
 50
180.0
 51
0
210
0
220
0
230
1.0
 0
LINE
 8
TOOL_0
 5
25
 10
5851.999
 20
1035.938
 30
0
 11
5848.463
 21
1039.474
 31
0
 0
LINE
 8
TOOL_0
 5
26
 10
5848.463
 20
1039.474
 30
0
 11
7254.499
 21
1035.938
 31
0
 0
LINE
 8
TOOL_0
 5
27
 10
7254.499
 20
1035.938
 30
0
 11
7284.499
 21
1035.938
 31
0
 0
ARC
 8
TOOL_0
 5
28
 10
7219.499
 20
1035.938
 30
0
 40
65.0
 50
0
 51
90.0
210
0
220
0
230
1.0
 0
LINE
 8
TOOL_0
 5
29
 10
7219.499
 20
1100.938
 30
0
 11
7189.499
 21
1100.938
 31
0
 0
ARC
 8
TOOL_0
 5
2A
 10
7189.499
 20
1035.938
 30
0
 40
65.0
 50
90.0
 51
270.0
210
0
220
0
230
1.0
 0
LINE
 8
TOOL_0
 5
2B
 10
7189.499
 20
970.938
 30
0
 11
7219.499
 21
970.938
 31
0
 0
ARC
 8
TOOL_0
 5
2C
 10
7219.499
 20
1035.938
 30
0
 40
65.0
 50
270.0
 51
0
210
0
220
0
230
1.0
 0
LINE
 8
TOOL_0
 5
2D
 10
7284.499
 20
1035.938
 30
0
 11
7280.963
 21
1039.474
 31
0
 0
LINE
 8
TOOL_0
 5
2E
 10
7280.963
 20
1039.474
 30
0
 11
7429.868
 21
819.14
 31
0
 0
LINE
 8
TOOL_0
 5
2F
 10
7429.868
 20
819.14
 30
0
 11
7429.868
 21
785.325
 31
0
 0
LINE
 8
TOOL_0
 5
30
 10
7429.868
 20
785.325
 30
0
 11
7403.999
 21
785.188
 31
0
 0
LINE
 8
TOOL_0
 5
31
 10
7403.999
 20
785.188
 30
0
 11
19.999
 21
785.188
 31
0
 0
LINE
 8
TOOL_0
 5
32
 10
19.999
 20
785.188
 30
0
 11
19.999
 21
1286.688
 31
0
 0
LINE
 8
TOOL_0
 5
33
 10
19.999
 20
1286.688
 30
0
 11
7403.999
 21
1286.688
 31
0
 0
LINE
 8
TOOL_0
 5
34
 10
7403.999
 20
1286.688
 30
0
 11
7403.999
 21
785.188
 31
0
 0
LINE
 8
TOOL_0
 5
35
 10
7403.999
 20
785.188
 30
0
 11
269.499
 21
1590.908
 31
0
 0
LINE
 8
TOOL_0
 5
36
 10
269.499
 20
1590.908
 30
0
 11
299.499
 21
1590.908
 31
0
 0
ARC
 8
TOOL_0
 5
37
 10
234.499
 20
1590.908
 30
0
 40
65.0
 50
0
 51
90.0
210
0
220
0
230
1.0
 0
LINE
 8
TOOL_0
 5
38
 10
234.499
 20
1655.908
 30
0
 11
204.499
 21
1655.908
 31
0
 0
ARC
 8
TOOL_0
 5
39
 10
204.499
 20
1590.908
 30
0
 40
65.0
 50
90.0
 51
270.0
210
0
220
0
230
1.0
 0
LINE
 8
TOOL_0
 5
3A
 10
204.499
 20
1525.908
 30
0
 11
234.499
 21
1525.908
 31
0
 0
ARC
 8
TOOL_0
 5
3B
 10
234.499
 20
1590.908
 30
0
 40
65.0
 50
270.0
 51
0
210
0
220
0
230
1.0
 0
LINE
 8
TOOL_0
 5
3C
 10
299.499
 20
1590.908
 30
0
 11
295.963
 21
1594.444
 31
0
 0
LINE
 8
TOOL_0
 5
3D
 10
295.963
 20
1594.444
 30
0
 11
1621.999
 21
1590.909
 31
0
 0
LINE
 8
TOOL_0
 5
3E
 10
1621.999
 20
1590.909
 30
0
 11
1651.999
 21
1590.909
 31
0
 0
ARC
 8
TOOL_0
 5
3F
 10
1611.999
 20
1590.909
 30
0
 40
40.0
 50
0
 51
180.0
210
0
220
0
230
1.0
 0
ARC
 8
TOOL_0
 5
40
 10
1611.999
 20
1590.909
 30
0
 40
40.0
 50
180.0
 51
0
210
0
220
0
230
1.0
 0
LINE
 8
TOOL_0
 5
41
 10
1651.999
 20
1590.909
 30
0
 11
1648.463
 21
1594.445
 31
0
 0
LINE
 8
TOOL_0
 5
42
 10
1648.463
 20
1594.445
 30
0
 11
5821.999
 21
1590.91
 31
0
 0
LINE
 8
TOOL_0
 5
43
 10
5821.999
 20
1590.91
 30
0
 11
5851.999
 21
1590.91
 31
0
 0
ARC
 8
TOOL_0
 5
44
 10
5811.999
 20
1590.91
 30
0
 40
40.0
 50
0
 51
180.0
210
0
220
0
230
1.0
 0
ARC
 8
TOOL_0
 5
45
 10
5811.999
 20
1590.91
 30
0
 40
40.0
 50
180.0
 51
0
210
0
220
0
230
1.0
 0
LINE
 8
TOOL_0
 5
46
 10
5851.999
 20
1590.91
 30
0
 11
5848.463
 21
1594.446
 31
0
 0
LINE
 8
TOOL_0
 5
47
 10
5848.463
 20
1594.446
 30
0
 11
7254.499
 21
1590.911
 31
0
 0
LINE
 8
TOOL_0
 5
48
 10
7254.499
 20
1590.911
 30
0
 11
7284.499
 21
1590.911
 31
0
 0
ARC
 8
TOOL_0
 5
49
 10
7219.499
 20
1590.911
 30
0
 40
65.0
 50
0
 51
90.0
210
0
220
0
230
1.0
 0
LINE
 8
TOOL_0
 5
4A
 10
7219.499
 20
1655.911
 30
0
 11
7189.499
 21
1655.911
 31
0
 0
ARC
 8
TOOL_0
 5
4B
 10
7189.499
 20
1590.911
 30
0
 40
65.0
 50
90.0
 51
270.0
210
0
220
0
230
1.0
 0
LINE
 8
TOOL_0
 5
4C
 10
7189.499
 20
1525.911
 30
0
 11
7219.499
 21
1525.911
 31
0
 0
ARC
 8
TOOL_0
 5
4D
 10
7219.499
 20
1590.911
 30
0
 40
65.0
 50
270.0
 51
0
210
0
220
0
230
1.0
 0
LINE
 8
TOOL_0
 5
4E
 10
7284.499
 20
1590.911
 30
0
 11
7280.963
 21
1594.447
 31
0
 0
LINE
 8
TOOL_0
 5
4F
 10
7280.963
 20
1594.447
 30
0
 11
7437.687
 21
1360.625
 31
0
 0
LINE
 8
TOOL_0
 5
50
 10
7437.687
 20
1360.625
 30
0
 11
7437.687
 21
1338.771
 31
0
 0
LINE
 8
TOOL_0
 5
51
 10
7437.687
 20
1338.771
 30
0
 11
7403.999
 21
1340.162
 31
0
 0
LINE
 8
TOOL_0
 5
52
 10
7403.999
 20
1340.162
 30
0
 11
19.999
 21
1340.162
 31
0
 0
LINE
 8
TOOL_0
 5
53
 10
19.999
 20
1340.162
 30
0
 11
19.999
 21
1841.662
 31
0
 0
LINE
 8
TOOL_0
 5
54
 10
19.999
 20
1841.662
 30
0
 11
7403.999
 21
1841.662
 31
0
 0
LINE
 8
TOOL_0
 5
55
 10
7403.999
 20
1841.662
 30
0
 11
7403.999
 21
1340.162
 31
0
 0
LINE
 8
TOOL_0
 5
56
 10
7403.999
 20
1340.162
 30
0
 11
8475.576
 21
0.004
 31
0
 0
LINE
 8
TOOL_0
 5
57
 10
8475.576
 20
0.004
 30
0
 11
8475.576
 21
1.004
 31
0
 0
LINE
 8
TOOL_0
 5
58
 10
8475.576
 20
1.004
 30
0
 11
8475.576
 21
0.004
 31
0
 0
LINE
 8
TOOL_0
 5
59
 10
8475.576
 20
0.004
 30
0
 11
8475.576
 21
1.004
 31
0
 0
LINE
 8
TOOL_0
 5
5A
 10
8475.576
 20
1.004
 30
0
 11
8475.576
 21
785.471
 31
0
 0
LINE
 8
TOOL_0
 5
5B
 10
8475.576
 20
785.471
 30
0
 11
7515.374
 21
785.471
 31
0
 0
LINE
 8
TOOL_0
 5
5C
 10
7515.374
 20
785.471
 30
0
 11
7515.374
 21
1999.004
 31
0
 0
LINE
 8
TOOL_0
 5
5D
 10
7515.374
 20
1999.004
 30
0
 11
7515.374
 21
2000.004
 31
0
 0
ENDSEC
 0
EOF

