0
SECTION
2
TABLES
0
TABLE
2
LAYER
70
0
0
LAYER
2
LAYER_NAME
70
0
62
1
6
CONTINUOUS
0
ENDTAB
0
ENDSEC
 0
SECTION
 2
ENTITIES
 0
LINE
 8
TOOL_0
 5
1
 10
220.021
 20
450.677
 30
0
 11
220.021
 21
420.269
 31
0
 0
LINE
 8
TOOL_0
 5
2
 10
220.021
 20
420.269
 30
0
 11
220.021
 21
220.269
 31
0
 0
LINE
 8
TOOL_0
 5
3
 10
220.021
 20
220.269
 30
0
 11
20.021
 21
220.269
 31
0
 0
LINE
 8
TOOL_0
 5
4
 10
20.021
 20
220.269
 30
0
 11
20.021
 21
420.269
 31
0
 0
LINE
 8
TOOL_0
 5
5
 10
20.021
 20
420.269
 30
0
 11
220.021
 21
420.269
 31
0
 0
LINE
 8
TOOL_0
 5
6
 10
220.021
 20
420.269
 30
0
 11
225.975
 21
420.269
 31
0
 0
LINE
 8
TOOL_0
 5
7
 10
225.975
 20
420.269
 30
0
 11
590.208
 21
2.766
 31
0
 0
LINE
 8
TOOL_0
 5
8
 10
590.208
 20
2.766
 30
0
 11
572.708
 21
20.266
 31
0
 0
LINE
 8
TOOL_0
 5
9
 10
572.708
 20
20.266
 30
0
 11
372.708
 21
20.266
 31
0
 0
LINE
 8
TOOL_0
 5
A
 10
372.708
 20
20.266
 30
0
 11
372.708
 21
220.266
 31
0
 0
LINE
 8
TOOL_0
 5
B
 10
372.708
 20
220.266
 30
0
 11
572.708
 21
220.266
 31
0
 0
LINE
 8
TOOL_0
 5
C
 10
572.708
 20
220.266
 30
0
 11
572.708
 21
20.266
 31
0
 0
LINE
 8
TOOL_0
 5
D
 10
572.708
 20
20.266
 30
0
 11
568.708
 21
16.266
 31
0
 0
LINE
 8
TOOL_0
 5
E
 10
568.708
 20
16.266
 30
0
 11
440.042
 21
470.553
 31
0
 0
LINE
 8
TOOL_0
 5
F
 10
440.042
 20
470.553
 30
0
 11
440.042
 21
440.303
 31
0
 0
LINE
 8
TOOL_0
 5
10
 10
440.042
 20
440.303
 30
0
 11
440.042
 21
240.303
 31
0
 0
LINE
 8
TOOL_0
 5
11
 10
440.042
 20
240.303
 30
0
 11
240.042
 21
240.303
 31
0
 0
LINE
 8
TOOL_0
 5
12
 10
240.042
 20
240.303
 30
0
 11
240.042
 21
440.303
 31
0
 0
LINE
 8
TOOL_0
 5
13
 10
240.042
 20
440.303
 30
0
 11
440.042
 21
440.303
 31
0
 0
LINE
 8
TOOL_0
 5
14
 10
440.042
 20
440.303
 30
0
 11
445.603
 21
440.303
 31
0
 0
LINE
 8
TOOL_0
 5
15
 10
445.603
 20
440.303
 30
0
 11
810.229
 21
2.513
 31
0
 0
LINE
 8
TOOL_0
 5
16
 10
810.229
 20
2.513
 30
0
 11
792.729
 21
20.013
 31
0
 0
LINE
 8
TOOL_0
 5
17
 10
792.729
 20
20.013
 30
0
 11
592.729
 21
20.013
 31
0
 0
LINE
 8
TOOL_0
 5
18
 10
592.729
 20
20.013
 30
0
 11
592.729
 21
220.013
 31
0
 0
LINE
 8
TOOL_0
 5
19
 10
592.729
 20
220.013
 30
0
 11
792.729
 21
220.013
 31
0
 0
LINE
 8
TOOL_0
 5
1A
 10
792.729
 20
220.013
 30
0
 11
792.729
 21
20.013
 31
0
 0
LINE
 8
TOOL_0
 5
1B
 10
792.729
 20
20.013
 30
0
 11
788.729
 21
16.013
 31
0
 0
LINE
 8
TOOL_0
 5
1C
 10
788.729
 20
16.013
 30
0
 11
827.308
 21
0
 31
0
 0
LINE
 8
TOOL_0
 5
1D
 10
827.308
 20
0
 30
0
 11
827.221
 21
0.996
 31
0
 0
LINE
 8
TOOL_0
 5
1E
 10
827.221
 20
0.996
 30
0
 11
827.308
 21
0
 31
0
 0
LINE
 8
TOOL_0
 5
1F
 10
827.308
 20
0
 30
0
 11
827.221
 21
0.996
 31
0
 0
LINE
 8
TOOL_0
 5
20
 10
827.221
 20
0.996
 30
0
 11
806.263
 21
240.548
 31
0
 0
LINE
 8
TOOL_0
 5
21
 10
806.263
 20
240.548
 30
0
 11
466.415
 21
240.548
 31
0
 0
LINE
 8
TOOL_0
 5
22
 10
466.415
 20
240.548
 30
0
 11
466.415
 21
485.605
 31
0
 0
LINE
 8
TOOL_0
 5
23
 10
466.415
 20
485.605
 30
0
 11
466.415
 21
486.605
 31
0
 0
ENDSEC
 0
EOF

