0
SECTION
2
TABLES
0
TABLE
2
LAYER
70
0
0
LAYER
2
LAYER_NAME
70
0
62
1
6
CONTINUOUS
0
ENDTAB
0
ENDSEC
 0
SECTION
 2
ENTITIES
 0
LINE
 8
TOOL_0
 5
1
 10
1525.036
 20
185.037
 30
0
 11
1521.5
 21
181.501
 31
0
 0
LINE
 8
TOOL_0
 5
2
 10
1521.5
 20
181.501
 30
0
 11
1521.5
 21
20.001
 31
0
 0
LINE
 8
TOOL_0
 5
3
 10
1521.5
 20
20.001
 30
0
 11
20.0
 21
20.001
 31
0
 0
LINE
 8
TOOL_0
 5
4
 10
20.0
 20
20.001
 30
0
 11
20.0
 21
181.501
 31
0
 0
LINE
 8
TOOL_0
 5
5
 10
20.0
 20
181.501
 30
0
 11
1521.5
 21
181.501
 31
0
 0
LINE
 8
TOOL_0
 5
6
 10
1521.5
 20
181.501
 30
0
 11
1525.036
 21
185.037
 31
0
 0
LINE
 8
TOOL_0
 5
7
 10
1525.036
 20
185.037
 30
0
 11
1525.036
 21
366.947
 31
0
 0
LINE
 8
TOOL_0
 5
8
 10
1525.036
 20
366.947
 30
0
 11
1521.5
 21
363.412
 31
0
 0
LINE
 8
TOOL_0
 5
9
 10
1521.5
 20
363.412
 30
0
 11
1521.5
 21
201.912
 31
0
 0
LINE
 8
TOOL_0
 5
A
 10
1521.5
 20
201.912
 30
0
 11
20.0
 21
201.912
 31
0
 0
LINE
 8
TOOL_0
 5
B
 10
20.0
 20
201.912
 30
0
 11
20.0
 21
363.412
 31
0
 0
LINE
 8
TOOL_0
 5
C
 10
20.0
 20
363.412
 30
0
 11
1521.5
 21
363.412
 31
0
 0
LINE
 8
TOOL_0
 5
D
 10
1521.5
 20
363.412
 30
0
 11
1525.036
 21
366.948
 31
0
 0
LINE
 8
TOOL_0
 5
E
 10
1525.036
 20
366.948
 30
0
 11
2297.115
 21
105.038
 31
0
 0
LINE
 8
TOOL_0
 5
F
 10
2297.115
 20
105.038
 30
0
 11
2293.58
 21
101.502
 31
0
 0
LINE
 8
TOOL_0
 5
10
 10
2293.58
 20
101.502
 30
0
 11
2293.58
 21
20.002
 31
0
 0
LINE
 8
TOOL_0
 5
11
 10
2293.58
 20
20.002
 30
0
 11
1542.08
 21
20.002
 31
0
 0
LINE
 8
TOOL_0
 5
12
 10
1542.08
 20
20.002
 30
0
 11
1542.08
 21
101.502
 31
0
 0
LINE
 8
TOOL_0
 5
13
 10
1542.08
 20
101.502
 30
0
 11
2293.58
 21
101.502
 31
0
 0
LINE
 8
TOOL_0
 5
14
 10
2293.58
 20
101.502
 30
0
 11
2297.116
 21
105.038
 31
0
 0
LINE
 8
TOOL_0
 5
15
 10
2297.116
 20
105.038
 30
0
 11
2293.581
 21
233.358
 31
0
 0
LINE
 8
TOOL_0
 5
16
 10
2293.581
 20
233.358
 30
0
 11
2293.581
 21
203.358
 31
0
 0
LINE
 8
TOOL_0
 5
17
 10
2293.581
 20
203.358
 30
0
 11
2293.581
 21
121.858
 31
0
 0
LINE
 8
TOOL_0
 5
18
 10
2293.581
 20
121.858
 30
0
 11
1542.081
 21
121.858
 31
0
 0
LINE
 8
TOOL_0
 5
19
 10
1542.081
 20
121.858
 30
0
 11
1542.081
 21
203.358
 31
0
 0
LINE
 8
TOOL_0
 5
1A
 10
1542.081
 20
203.358
 30
0
 11
2293.581
 21
203.358
 31
0
 0
LINE
 8
TOOL_0
 5
1B
 10
2293.581
 20
203.358
 30
0
 11
2298.581
 21
203.358
 31
0
 0
LINE
 8
TOOL_0
 5
1C
 10
2298.581
 20
203.358
 30
0
 11
1011.501
 21
384.004
 31
0
 0
LINE
 8
TOOL_0
 5
1D
 10
1011.501
 20
384.004
 30
0
 11
981.501
 21
384.004
 31
0
 0
LINE
 8
TOOL_0
 5
1E
 10
981.501
 20
384.004
 30
0
 11
20.001
 21
384.004
 31
0
 0
LINE
 8
TOOL_0
 5
1F
 10
20.001
 20
384.004
 30
0
 11
20.001
 21
1035.504
 31
0
 0
LINE
 8
TOOL_0
 5
20
 10
20.001
 20
1035.504
 30
0
 11
981.501
 21
1035.504
 31
0
 0
LINE
 8
TOOL_0
 5
21
 10
981.501
 20
1035.504
 30
0
 11
981.501
 21
384.004
 31
0
 0
LINE
 8
TOOL_0
 5
22
 10
981.501
 20
384.004
 30
0
 11
981.501
 21
379.004
 31
0
 0
LINE
 8
TOOL_0
 5
23
 10
981.501
 20
379.004
 30
0
 11
1993.195
 21
388.144
 31
0
 0
LINE
 8
TOOL_0
 5
24
 10
1993.195
 20
388.144
 30
0
 11
1963.195
 21
388.144
 31
0
 0
LINE
 8
TOOL_0
 5
25
 10
1963.195
 20
388.144
 30
0
 11
1001.695
 21
388.144
 31
0
 0
LINE
 8
TOOL_0
 5
26
 10
1001.695
 20
388.144
 30
0
 11
1001.695
 21
1039.644
 31
0
 0
LINE
 8
TOOL_0
 5
27
 10
1001.695
 20
1039.644
 30
0
 11
1963.195
 21
1039.644
 31
0
 0
LINE
 8
TOOL_0
 5
28
 10
1963.195
 20
1039.644
 30
0
 11
1963.195
 21
388.144
 31
0
 0
LINE
 8
TOOL_0
 5
29
 10
1963.195
 20
388.144
 30
0
 11
1963.195
 21
383.144
 31
0
 0
LINE
 8
TOOL_0
 5
2A
 10
1963.195
 20
383.144
 30
0
 11
1746.241
 21
224.957
 31
0
 0
LINE
 8
TOOL_0
 5
2B
 10
1746.241
 20
224.957
 30
0
 11
1742.706
 21
228.492
 31
0
 0
LINE
 8
TOOL_0
 5
2C
 10
1742.706
 20
228.492
 30
0
 11
1542.706
 21
228.492
 31
0
 0
LINE
 8
TOOL_0
 5
2D
 10
1542.706
 20
228.492
 30
0
 11
1542.706
 21
346.492
 31
0
 0
LINE
 8
TOOL_0
 5
2E
 10
1542.706
 20
346.492
 30
0
 11
1742.706
 21
346.492
 31
0
 0
LINE
 8
TOOL_0
 5
2F
 10
1742.706
 20
346.492
 30
0
 11
1742.706
 21
228.492
 31
0
 0
LINE
 8
TOOL_0
 5
30
 10
1742.706
 20
228.492
 30
0
 11
1746.242
 21
224.956
 31
0
 0
LINE
 8
TOOL_0
 5
31
 10
1746.242
 20
224.956
 30
0
 11
1999.685
 21
228.491
 31
0
 0
LINE
 8
TOOL_0
 5
32
 10
1999.685
 20
228.491
 30
0
 11
1969.685
 21
228.491
 31
0
 0
LINE
 8
TOOL_0
 5
33
 10
1969.685
 20
228.491
 30
0
 11
1769.685
 21
228.491
 31
0
 0
LINE
 8
TOOL_0
 5
34
 10
1769.685
 20
228.491
 30
0
 11
1769.685
 21
346.491
 31
0
 0
LINE
 8
TOOL_0
 5
35
 10
1769.685
 20
346.491
 30
0
 11
1969.685
 21
346.491
 31
0
 0
LINE
 8
TOOL_0
 5
36
 10
1969.685
 20
346.491
 30
0
 11
1969.685
 21
228.491
 31
0
 0
LINE
 8
TOOL_0
 5
37
 10
1969.685
 20
228.491
 30
0
 11
1969.685
 21
223.491
 31
0
 0
LINE
 8
TOOL_0
 5
38
 10
1969.685
 20
223.491
 30
0
 11
2194.81
 21
482.587
 31
0
 0
LINE
 8
TOOL_0
 5
39
 10
2194.81
 20
482.587
 30
0
 11
2224.81
 21
482.587
 31
0
 0
ARC
 8
TOOL_0
 5
3A
 10
2204.81
 20
482.587
 30
0
 40
20.0
 50
0
 51
180.0
210
0
220
0
230
1.0
 0
ARC
 8
TOOL_0
 5
3B
 10
2204.81
 20
482.587
 30
0
 40
20.0
 50
180.0
 51
0
210
0
220
0
230
1.0
 0
LINE
 8
TOOL_0
 5
3C
 10
2224.81
 20
482.587
 30
0
 11
2221.274
 21
486.123
 31
0
 0
LINE
 8
TOOL_0
 5
3D
 10
2221.274
 20
486.123
 30
0
 11
2044.809
 21
285.587
 31
0
 0
LINE
 8
TOOL_0
 5
3E
 10
2044.809
 20
285.587
 30
0
 11
2074.809
 21
285.587
 31
0
 0
ARC
 8
TOOL_0
 5
3F
 10
2054.809
 20
285.587
 30
0
 40
20.0
 50
0
 51
180.0
210
0
220
0
230
1.0
 0
ARC
 8
TOOL_0
 5
40
 10
2054.809
 20
285.587
 30
0
 40
20.0
 50
180.0
 51
0
210
0
220
0
230
1.0
 0
LINE
 8
TOOL_0
 5
41
 10
2074.809
 20
285.587
 30
0
 11
2071.273
 21
289.123
 31
0
 0
LINE
 8
TOOL_0
 5
42
 10
2071.273
 20
289.123
 30
0
 11
2194.808
 21
285.587
 31
0
 0
LINE
 8
TOOL_0
 5
43
 10
2194.808
 20
285.587
 30
0
 11
2224.808
 21
285.587
 31
0
 0
ARC
 8
TOOL_0
 5
44
 10
2204.808
 20
285.587
 30
0
 40
20.0
 50
0
 51
180.0
210
0
220
0
230
1.0
 0
ARC
 8
TOOL_0
 5
45
 10
2204.808
 20
285.587
 30
0
 40
20.0
 50
180.0
 51
0
210
0
220
0
230
1.0
 0
LINE
 8
TOOL_0
 5
46
 10
2224.808
 20
285.587
 30
0
 11
2221.272
 21
289.123
 31
0
 0
LINE
 8
TOOL_0
 5
47
 10
2221.272
 20
289.123
 30
0
 11
2294.093
 21
221.302
 31
0
 0
LINE
 8
TOOL_0
 5
48
 10
2294.093
 20
221.302
 30
0
 11
2290.557
 21
224.837
 31
0
 0
LINE
 8
TOOL_0
 5
49
 10
2290.557
 20
224.837
 30
0
 11
2019.807
 21
224.837
 31
0
 0
ARC
 8
TOOL_0
 5
4A
 10
2019.807
 20
245.587
 30
0
 40
20.75
 50
180.0
 51
270.0
210
0
220
0
230
1.0
 0
LINE
 8
TOOL_0
 5
4B
 10
1999.057
 20
245.587
 30
0
 11
1999.057
 21
522.587
 31
0
 0
ARC
 8
TOOL_0
 5
4C
 10
2019.807
 20
522.587
 30
0
 40
20.75
 50
90.0
 51
180.0
210
0
220
0
230
1.0
 0
LINE
 8
TOOL_0
 5
4D
 10
2019.807
 20
543.337
 30
0
 11
2290.557
 21
543.337
 31
0
 0
LINE
 8
TOOL_0
 5
4E
 10
2290.557
 20
543.337
 30
0
 11
2290.557
 21
224.837
 31
0
 0
LINE
 8
TOOL_0
 5
4F
 10
2290.557
 20
224.837
 30
0
 11
2294.093
 21
221.301
 31
0
 0
LINE
 8
TOOL_0
 5
50
 10
2294.093
 20
221.301
 30
0
 11
2195.495
 21
826.191
 31
0
 0
LINE
 8
TOOL_0
 5
51
 10
2195.495
 20
826.191
 30
0
 11
2225.495
 21
826.191
 31
0
 0
ARC
 8
TOOL_0
 5
52
 10
2205.495
 20
826.191
 30
0
 40
20.0
 50
0
 51
180.0
210
0
220
0
230
1.0
 0
ARC
 8
TOOL_0
 5
53
 10
2205.495
 20
826.191
 30
0
 40
20.0
 50
180.0
 51
0
210
0
220
0
230
1.0
 0
LINE
 8
TOOL_0
 5
54
 10
2225.495
 20
826.191
 30
0
 11
2221.959
 21
829.727
 31
0
 0
LINE
 8
TOOL_0
 5
55
 10
2221.959
 20
829.727
 30
0
 11
2045.495
 21
629.191
 31
0
 0
LINE
 8
TOOL_0
 5
56
 10
2045.495
 20
629.191
 30
0
 11
2075.495
 21
629.191
 31
0
 0
ARC
 8
TOOL_0
 5
57
 10
2055.495
 20
629.191
 30
0
 40
20.0
 50
0
 51
180.0
210
0
220
0
230
1.0
 0
ARC
 8
TOOL_0
 5
58
 10
2055.495
 20
629.191
 30
0
 40
20.0
 50
180.0
 51
0
210
0
220
0
230
1.0
 0
LINE
 8
TOOL_0
 5
59
 10
2075.495
 20
629.191
 30
0
 11
2071.959
 21
632.727
 31
0
 0
LINE
 8
TOOL_0
 5
5A
 10
2071.959
 20
632.727
 30
0
 11
2195.495
 21
629.191
 31
0
 0
LINE
 8
TOOL_0
 5
5B
 10
2195.495
 20
629.191
 30
0
 11
2225.495
 21
629.191
 31
0
 0
ARC
 8
TOOL_0
 5
5C
 10
2205.495
 20
629.191
 30
0
 40
20.0
 50
0
 51
180.0
210
0
220
0
230
1.0
 0
ARC
 8
TOOL_0
 5
5D
 10
2205.495
 20
629.191
 30
0
 40
20.0
 50
180.0
 51
0
210
0
220
0
230
1.0
 0
LINE
 8
TOOL_0
 5
5E
 10
2225.495
 20
629.191
 30
0
 11
2221.959
 21
632.727
 31
0
 0
LINE
 8
TOOL_0
 5
5F
 10
2221.959
 20
632.727
 30
0
 11
2294.78
 21
564.906
 31
0
 0
LINE
 8
TOOL_0
 5
60
 10
2294.78
 20
564.906
 30
0
 11
2291.245
 21
568.441
 31
0
 0
LINE
 8
TOOL_0
 5
61
 10
2291.245
 20
568.441
 30
0
 11
2020.495
 21
568.441
 31
0
 0
ARC
 8
TOOL_0
 5
62
 10
2020.495
 20
589.191
 30
0
 40
20.75
 50
180.0
 51
270.0
210
0
220
0
230
1.0
 0
LINE
 8
TOOL_0
 5
63
 10
1999.745
 20
589.191
 30
0
 11
1999.745
 21
866.191
 31
0
 0
ARC
 8
TOOL_0
 5
64
 10
2020.495
 20
866.191
 30
0
 40
20.75
 50
90.0
 51
180.0
210
0
220
0
230
1.0
 0
LINE
 8
TOOL_0
 5
65
 10
2020.495
 20
886.941
 30
0
 11
2291.245
 21
886.941
 31
0
 0
LINE
 8
TOOL_0
 5
66
 10
2291.245
 20
886.941
 30
0
 11
2291.245
 21
568.441
 31
0
 0
LINE
 8
TOOL_0
 5
67
 10
2291.245
 20
568.441
 30
0
 11
2294.781
 21
564.905
 31
0
 0
LINE
 8
TOOL_0
 5
68
 10
2294.781
 20
564.905
 30
0
 11
3119.94
 21
407.882
 31
0
 0
LINE
 8
TOOL_0
 5
69
 10
3119.94
 20
407.882
 30
0
 11
3089.94
 21
407.882
 31
0
 0
LINE
 8
TOOL_0
 5
6A
 10
3089.94
 20
407.882
 30
0
 11
2877.94
 21
407.882
 31
0
 0
LINE
 8
TOOL_0
 5
6B
 10
2877.94
 20
407.882
 30
0
 11
2877.94
 21
525.882
 31
0
 0
LINE
 8
TOOL_0
 5
6C
 10
2877.94
 20
525.882
 30
0
 11
3089.94
 21
525.882
 31
0
 0
LINE
 8
TOOL_0
 5
6D
 10
3089.94
 20
525.882
 30
0
 11
3089.94
 21
407.882
 31
0
 0
LINE
 8
TOOL_0
 5
6E
 10
3089.94
 20
407.882
 30
0
 11
3089.94
 21
402.882
 31
0
 0
LINE
 8
TOOL_0
 5
6F
 10
3089.94
 20
402.882
 30
0
 11
3239.92
 21
460.749
 31
0
 0
LINE
 8
TOOL_0
 5
70
 10
3239.92
 20
460.749
 30
0
 11
3269.92
 21
460.749
 31
0
 0
LINE
 8
TOOL_0
 5
71
 10
3269.92
 20
460.749
 30
0
 11
3269.92
 21
545.749
 31
0
 0
ARC
 8
TOOL_0
 5
72
 10
3169.92
 20
545.749
 30
0
 40
100.0
 50
0
 51
90.0
210
0
220
0
230
1.0
 0
LINE
 8
TOOL_0
 5
73
 10
3169.92
 20
645.749
 30
0
 11
2769.92
 21
645.749
 31
0
 0
ARC
 8
TOOL_0
 5
74
 10
2769.92
 20
545.749
 30
0
 40
100.0
 50
90.0
 51
180.0
210
0
220
0
230
1.0
 0
LINE
 8
TOOL_0
 5
75
 10
2669.92
 20
545.749
 30
0
 11
2669.92
 21
375.749
 31
0
 0
ARC
 8
TOOL_0
 5
76
 10
2769.92
 20
375.749
 30
0
 40
100.0
 50
180.0
 51
270.0
210
0
220
0
230
1.0
 0
LINE
 8
TOOL_0
 5
77
 10
2769.92
 20
275.749
 30
0
 11
3169.92
 21
275.749
 31
0
 0
ARC
 8
TOOL_0
 5
78
 10
3169.92
 20
375.749
 30
0
 40
100.0
 50
270.0
 51
359.999427042205
210
0
220
0
230
1.0
 0
LINE
 8
TOOL_0
 5
79
 10
3269.92
 20
375.748
 30
0
 11
3269.92
 21
460.749
 31
0
 0
LINE
 8
TOOL_0
 5
7A
 10
3269.92
 20
460.749
 30
0
 11
3266.384
 21
464.285
 31
0
 0
LINE
 8
TOOL_0
 5
7B
 10
3266.384
 20
464.285
 30
0
 11
3569.205
 21
16.463
 31
0
 0
LINE
 8
TOOL_0
 5
7C
 10
3569.205
 20
16.463
 30
0
 11
3565.669
 21
19.999
 31
0
 0
LINE
 8
TOOL_0
 5
7D
 10
3565.669
 20
19.999
 30
0
 11
2314.169
 21
19.999
 31
0
 0
LINE
 8
TOOL_0
 5
7E
 10
2314.169
 20
19.999
 30
0
 11
2314.169
 21
901.499
 31
0
 0
LINE
 8
TOOL_0
 5
7F
 10
2314.169
 20
901.499
 30
0
 11
3565.669
 21
901.499
 31
0
 0
LINE
 8
TOOL_0
 5
80
 10
3565.669
 20
901.499
 30
0
 11
3565.669
 21
19.999
 31
0
 0
LINE
 8
TOOL_0
 5
81
 10
3565.669
 20
19.999
 30
0
 11
3569.205
 21
16.463
 31
0
 0
LINE
 8
TOOL_0
 5
82
 10
3569.205
 20
16.463
 30
0
 11
4419.906
 21
407.882
 31
0
 0
LINE
 8
TOOL_0
 5
83
 10
4419.906
 20
407.882
 30
0
 11
4389.906
 21
407.882
 31
0
 0
LINE
 8
TOOL_0
 5
84
 10
4389.906
 20
407.882
 30
0
 11
4177.906
 21
407.882
 31
0
 0
LINE
 8
TOOL_0
 5
85
 10
4177.906
 20
407.882
 30
0
 11
4177.906
 21
525.882
 31
0
 0
LINE
 8
TOOL_0
 5
86
 10
4177.906
 20
525.882
 30
0
 11
4389.906
 21
525.882
 31
0
 0
LINE
 8
TOOL_0
 5
87
 10
4389.906
 20
525.882
 30
0
 11
4389.906
 21
407.882
 31
0
 0
LINE
 8
TOOL_0
 5
88
 10
4389.906
 20
407.882
 30
0
 11
4389.906
 21
402.882
 31
0
 0
LINE
 8
TOOL_0
 5
89
 10
4389.906
 20
402.882
 30
0
 11
4511.685
 21
460.749
 31
0
 0
LINE
 8
TOOL_0
 5
8A
 10
4511.685
 20
460.749
 30
0
 11
4541.685
 21
460.749
 31
0
 0
LINE
 8
TOOL_0
 5
8B
 10
4541.685
 20
460.749
 30
0
 11
4541.685
 21
545.749
 31
0
 0
ARC
 8
TOOL_0
 5
8C
 10
4441.685
 20
545.749
 30
0
 40
100.0
 50
0
 51
90.0
210
0
220
0
230
1.0
 0
LINE
 8
TOOL_0
 5
8D
 10
4441.685
 20
645.749
 30
0
 11
4041.685
 21
645.749
 31
0
 0
ARC
 8
TOOL_0
 5
8E
 10
4041.685
 20
545.749
 30
0
 40
100.0
 50
90.0
 51
180.0
210
0
220
0
230
1.0
 0
LINE
 8
TOOL_0
 5
8F
 10
3941.685
 20
545.749
 30
0
 11
3941.685
 21
375.749
 31
0
 0
ARC
 8
TOOL_0
 5
90
 10
4041.685
 20
375.749
 30
0
 40
100.0
 50
180.0
 51
270.0
210
0
220
0
230
1.0
 0
LINE
 8
TOOL_0
 5
91
 10
4041.685
 20
275.749
 30
0
 11
4441.685
 21
275.749
 31
0
 0
ARC
 8
TOOL_0
 5
92
 10
4441.685
 20
375.749
 30
0
 40
100.0
 50
270.0
 51
359.999427042205
210
0
220
0
230
1.0
 0
LINE
 8
TOOL_0
 5
93
 10
4541.685
 20
375.748
 30
0
 11
4541.685
 21
460.749
 31
0
 0
LINE
 8
TOOL_0
 5
94
 10
4541.685
 20
460.749
 30
0
 11
4538.149
 21
464.285
 31
0
 0
LINE
 8
TOOL_0
 5
95
 10
4538.149
 20
464.285
 30
0
 11
4840.97
 21
16.463
 31
0
 0
LINE
 8
TOOL_0
 5
96
 10
4840.97
 20
16.463
 30
0
 11
4837.435
 21
19.999
 31
0
 0
LINE
 8
TOOL_0
 5
97
 10
4837.435
 20
19.999
 30
0
 11
3585.935
 21
19.999
 31
0
 0
LINE
 8
TOOL_0
 5
98
 10
3585.935
 20
19.999
 30
0
 11
3585.935
 21
901.499
 31
0
 0
LINE
 8
TOOL_0
 5
99
 10
3585.935
 20
901.499
 30
0
 11
4837.435
 21
901.499
 31
0
 0
LINE
 8
TOOL_0
 5
9A
 10
4837.435
 20
901.499
 30
0
 11
4837.435
 21
19.999
 31
0
 0
LINE
 8
TOOL_0
 5
9B
 10
4837.435
 20
19.999
 30
0
 11
4840.971
 21
16.463
 31
0
 0
LINE
 8
TOOL_0
 5
9C
 10
4840.971
 20
16.463
 30
0
 11
2114.758
 21
937.46
 31
0
 0
LINE
 8
TOOL_0
 5
9D
 10
2114.758
 20
937.46
 30
0
 11
2084.758
 21
937.46
 31
0
 0
LINE
 8
TOOL_0
 5
9E
 10
2084.758
 20
937.46
 30
0
 11
1984.758
 21
937.46
 31
0
 0
LINE
 8
TOOL_0
 5
9F
 10
1984.758
 20
937.46
 30
0
 11
1984.758
 21
1017.46
 31
0
 0
LINE
 8
TOOL_0
 5
A0
 10
1984.758
 20
1017.46
 30
0
 11
2084.758
 21
1017.46
 31
0
 0
LINE
 8
TOOL_0
 5
A1
 10
2084.758
 20
1017.46
 30
0
 11
2084.758
 21
937.46
 31
0
 0
LINE
 8
TOOL_0
 5
A2
 10
2084.758
 20
937.46
 30
0
 11
2084.758
 21
932.46
 31
0
 0
LINE
 8
TOOL_0
 5
A3
 10
2084.758
 20
932.46
 30
0
 11
2218.978
 21
940.824
 31
0
 0
LINE
 8
TOOL_0
 5
A4
 10
2218.978
 20
940.824
 30
0
 11
2215.442
 21
944.359
 31
0
 0
LINE
 8
TOOL_0
 5
A5
 10
2215.442
 20
944.359
 30
0
 11
2115.442
 21
944.359
 31
0
 0
LINE
 8
TOOL_0
 5
A6
 10
2115.442
 20
944.359
 30
0
 11
2115.442
 21
1024.359
 31
0
 0
LINE
 8
TOOL_0
 5
A7
 10
2115.442
 20
1024.359
 30
0
 11
2215.442
 21
1024.359
 31
0
 0
LINE
 8
TOOL_0
 5
A8
 10
2215.442
 20
1024.359
 30
0
 11
2215.442
 21
944.359
 31
0
 0
LINE
 8
TOOL_0
 5
A9
 10
2215.442
 20
944.359
 30
0
 11
2218.978
 21
940.823
 31
0
 0
LINE
 8
TOOL_0
 5
AA
 10
2218.978
 20
940.823
 30
0
 11
2369.249
 21
923.659
 31
0
 0
LINE
 8
TOOL_0
 5
AB
 10
2369.249
 20
923.659
 30
0
 11
2339.249
 21
923.659
 31
0
 0
LINE
 8
TOOL_0
 5
AC
 10
2339.249
 20
923.659
 30
0
 11
2239.249
 21
923.659
 31
0
 0
LINE
 8
TOOL_0
 5
AD
 10
2239.249
 20
923.659
 30
0
 11
2239.249
 21
1003.659
 31
0
 0
LINE
 8
TOOL_0
 5
AE
 10
2239.249
 20
1003.659
 30
0
 11
2339.249
 21
1003.659
 31
0
 0
LINE
 8
TOOL_0
 5
AF
 10
2339.249
 20
1003.659
 30
0
 11
2339.249
 21
923.659
 31
0
 0
LINE
 8
TOOL_0
 5
B0
 10
2339.249
 20
923.659
 30
0
 11
2339.249
 21
918.659
 31
0
 0
LINE
 8
TOOL_0
 5
B1
 10
2339.249
 20
918.659
 30
0
 11
2499.933
 21
951.258
 31
0
 0
LINE
 8
TOOL_0
 5
B2
 10
2499.933
 20
951.258
 30
0
 11
2469.933
 21
951.258
 31
0
 0
LINE
 8
TOOL_0
 5
B3
 10
2469.933
 20
951.258
 30
0
 11
2369.933
 21
951.258
 31
0
 0
LINE
 8
TOOL_0
 5
B4
 10
2369.933
 20
951.258
 30
0
 11
2369.933
 21
1031.258
 31
0
 0
LINE
 8
TOOL_0
 5
B5
 10
2369.933
 20
1031.258
 30
0
 11
2469.933
 21
1031.258
 31
0
 0
LINE
 8
TOOL_0
 5
B6
 10
2469.933
 20
1031.258
 30
0
 11
2469.933
 21
951.258
 31
0
 0
LINE
 8
TOOL_0
 5
B7
 10
2469.933
 20
951.258
 30
0
 11
2469.933
 21
946.258
 31
0
 0
LINE
 8
TOOL_0
 5
B8
 10
2469.933
 20
946.258
 30
0
 11
2665.008
 21
971.957
 31
0
 0
LINE
 8
TOOL_0
 5
B9
 10
2665.008
 20
971.957
 30
0
 11
2635.008
 21
971.957
 31
0
 0
LINE
 8
TOOL_0
 5
BA
 10
2635.008
 20
971.957
 30
0
 11
2535.008
 21
971.957
 31
0
 0
LINE
 8
TOOL_0
 5
BB
 10
2535.008
 20
971.957
 30
0
 11
2535.008
 21
1051.957
 31
0
 0
LINE
 8
TOOL_0
 5
BC
 10
2535.008
 20
1051.957
 30
0
 11
2635.008
 21
1051.957
 31
0
 0
LINE
 8
TOOL_0
 5
BD
 10
2635.008
 20
1051.957
 30
0
 11
2635.008
 21
971.957
 31
0
 0
LINE
 8
TOOL_0
 5
BE
 10
2635.008
 20
971.957
 30
0
 11
2635.008
 21
966.957
 31
0
 0
LINE
 8
TOOL_0
 5
BF
 10
2635.008
 20
966.957
 30
0
 11
2850.718
 21
958.158
 31
0
 0
LINE
 8
TOOL_0
 5
C0
 10
2850.718
 20
958.158
 30
0
 11
2820.718
 21
958.158
 31
0
 0
LINE
 8
TOOL_0
 5
C1
 10
2820.718
 20
958.158
 30
0
 11
2720.718
 21
958.158
 31
0
 0
LINE
 8
TOOL_0
 5
C2
 10
2720.718
 20
958.158
 30
0
 11
2720.718
 21
1038.158
 31
0
 0
LINE
 8
TOOL_0
 5
C3
 10
2720.718
 20
1038.158
 30
0
 11
2820.718
 21
1038.158
 31
0
 0
LINE
 8
TOOL_0
 5
C4
 10
2820.718
 20
1038.158
 30
0
 11
2820.718
 21
958.158
 31
0
 0
LINE
 8
TOOL_0
 5
C5
 10
2820.718
 20
958.158
 30
0
 11
2820.718
 21
953.158
 31
0
 0
LINE
 8
TOOL_0
 5
C6
 10
2820.718
 20
953.158
 30
0
 11
5617.579
 21
407.881
 31
0
 0
LINE
 8
TOOL_0
 5
C7
 10
5617.579
 20
407.881
 30
0
 11
5587.579
 21
407.881
 31
0
 0
LINE
 8
TOOL_0
 5
C8
 10
5587.579
 20
407.881
 30
0
 11
5387.579
 21
407.881
 31
0
 0
LINE
 8
TOOL_0
 5
C9
 10
5387.579
 20
407.881
 30
0
 11
5387.579
 21
525.881
 31
0
 0
LINE
 8
TOOL_0
 5
CA
 10
5387.579
 20
525.881
 30
0
 11
5587.579
 21
525.881
 31
0
 0
LINE
 8
TOOL_0
 5
CB
 10
5587.579
 20
525.881
 30
0
 11
5587.579
 21
407.881
 31
0
 0
LINE
 8
TOOL_0
 5
CC
 10
5587.579
 20
407.881
 30
0
 11
5587.579
 21
402.881
 31
0
 0
LINE
 8
TOOL_0
 5
CD
 10
5587.579
 20
402.881
 30
0
 11
5783.572
 21
460.748
 31
0
 0
LINE
 8
TOOL_0
 5
CE
 10
5783.572
 20
460.748
 30
0
 11
5813.572
 21
460.748
 31
0
 0
LINE
 8
TOOL_0
 5
CF
 10
5813.572
 20
460.748
 30
0
 11
5813.572
 21
545.748
 31
0
 0
ARC
 8
TOOL_0
 5
D0
 10
5713.572
 20
545.748
 30
0
 40
100.0
 50
0
 51
89.999427042205
210
0
220
0
230
1.0
 0
LINE
 8
TOOL_0
 5
D1
 10
5713.573
 20
645.748
 30
0
 11
5313.572
 21
645.748
 31
0
 0
ARC
 8
TOOL_0
 5
D2
 10
5313.572
 20
545.748
 30
0
 40
100.0
 50
90.0
 51
180.0
210
0
220
0
230
1.0
 0
LINE
 8
TOOL_0
 5
D3
 10
5213.572
 20
545.748
 30
0
 11
5213.572
 21
375.748
 31
0
 0
ARC
 8
TOOL_0
 5
D4
 10
5313.572
 20
375.748
 30
0
 40
100.0
 50
180.0
 51
270.0
210
0
220
0
230
1.0
 0
LINE
 8
TOOL_0
 5
D5
 10
5313.572
 20
275.748
 30
0
 11
5713.572
 21
275.748
 31
0
 0
ARC
 8
TOOL_0
 5
D6
 10
5713.572
 20
375.748
 30
0
 40
100.0
 50
270.0
 51
359.999427042205
210
0
220
0
230
1.0
 0
LINE
 8
TOOL_0
 5
D7
 10
5813.572
 20
375.747
 30
0
 11
5813.572
 21
460.748
 31
0
 0
LINE
 8
TOOL_0
 5
D8
 10
5813.572
 20
460.748
 30
0
 11
5810.036
 21
464.284
 31
0
 0
LINE
 8
TOOL_0
 5
D9
 10
5810.036
 20
464.284
 30
0
 11
6087.857
 21
16.462
 31
0
 0
LINE
 8
TOOL_0
 5
DA
 10
6087.857
 20
16.462
 30
0
 11
6084.322
 21
19.998
 31
0
 0
LINE
 8
TOOL_0
 5
DB
 10
6084.322
 20
19.998
 30
0
 11
4857.822
 21
19.998
 31
0
 0
LINE
 8
TOOL_0
 5
DC
 10
4857.822
 20
19.998
 30
0
 11
4857.822
 21
901.498
 31
0
 0
LINE
 8
TOOL_0
 5
DD
 10
4857.822
 20
901.498
 30
0
 11
6084.322
 21
901.498
 31
0
 0
LINE
 8
TOOL_0
 5
DE
 10
6084.322
 20
901.498
 30
0
 11
6084.322
 21
19.998
 31
0
 0
LINE
 8
TOOL_0
 5
DF
 10
6084.322
 20
19.998
 30
0
 11
6087.858
 21
16.462
 31
0
 0
LINE
 8
TOOL_0
 5
E0
 10
6087.858
 20
16.462
 30
0
 11
6903.791
 21
400.981
 31
0
 0
LINE
 8
TOOL_0
 5
E1
 10
6903.791
 20
400.981
 30
0
 11
6873.791
 21
400.981
 31
0
 0
LINE
 8
TOOL_0
 5
E2
 10
6873.791
 20
400.981
 30
0
 11
6673.791
 21
400.981
 31
0
 0
LINE
 8
TOOL_0
 5
E3
 10
6673.791
 20
400.981
 30
0
 11
6673.791
 21
518.981
 31
0
 0
LINE
 8
TOOL_0
 5
E4
 10
6673.791
 20
518.981
 30
0
 11
6873.791
 21
518.981
 31
0
 0
LINE
 8
TOOL_0
 5
E5
 10
6873.791
 20
518.981
 30
0
 11
6873.791
 21
400.981
 31
0
 0
LINE
 8
TOOL_0
 5
E6
 10
6873.791
 20
400.981
 30
0
 11
6873.791
 21
395.981
 31
0
 0
LINE
 8
TOOL_0
 5
E7
 10
6873.791
 20
395.981
 30
0
 11
7030.578
 21
460.748
 31
0
 0
LINE
 8
TOOL_0
 5
E8
 10
7030.578
 20
460.748
 30
0
 11
7060.578
 21
460.748
 31
0
 0
LINE
 8
TOOL_0
 5
E9
 10
7060.578
 20
460.748
 30
0
 11
7060.578
 21
545.748
 31
0
 0
ARC
 8
TOOL_0
 5
EA
 10
6960.578
 20
545.748
 30
0
 40
100.0
 50
0
 51
89.999427042205
210
0
220
0
230
1.0
 0
LINE
 8
TOOL_0
 5
EB
 10
6960.579
 20
645.748
 30
0
 11
6560.578
 21
645.748
 31
0
 0
ARC
 8
TOOL_0
 5
EC
 10
6560.578
 20
545.748
 30
0
 40
100.0
 50
90.0
 51
180.0
210
0
220
0
230
1.0
 0
LINE
 8
TOOL_0
 5
ED
 10
6460.578
 20
545.748
 30
0
 11
6460.578
 21
375.748
 31
0
 0
ARC
 8
TOOL_0
 5
EE
 10
6560.578
 20
375.748
 30
0
 40
100.0
 50
180.0
 51
270.0
210
0
220
0
230
1.0
 0
LINE
 8
TOOL_0
 5
EF
 10
6560.578
 20
275.748
 30
0
 11
6960.578
 21
275.748
 31
0
 0
ARC
 8
TOOL_0
 5
F0
 10
6960.578
 20
375.748
 30
0
 40
100.0
 50
270.0
 51
359.999427042205
210
0
220
0
230
1.0
 0
LINE
 8
TOOL_0
 5
F1
 10
7060.578
 20
375.747
 30
0
 11
7060.578
 21
460.748
 31
0
 0
LINE
 8
TOOL_0
 5
F2
 10
7060.578
 20
460.748
 30
0
 11
7057.042
 21
464.284
 31
0
 0
LINE
 8
TOOL_0
 5
F3
 10
7057.042
 20
464.284
 30
0
 11
7361.328
 21
19.998
 31
0
 0
LINE
 8
TOOL_0
 5
F4
 10
7361.328
 20
19.998
 30
0
 11
7331.328
 21
19.998
 31
0
 0
LINE
 8
TOOL_0
 5
F5
 10
7331.328
 20
19.998
 30
0
 11
6104.828
 21
19.998
 31
0
 0
LINE
 8
TOOL_0
 5
F6
 10
6104.828
 20
19.998
 30
0
 11
6104.828
 21
901.498
 31
0
 0
LINE
 8
TOOL_0
 5
F7
 10
6104.828
 20
901.498
 30
0
 11
7331.328
 21
901.498
 31
0
 0
LINE
 8
TOOL_0
 5
F8
 10
7331.328
 20
901.498
 30
0
 11
7331.328
 21
19.998
 31
0
 0
LINE
 8
TOOL_0
 5
F9
 10
7331.328
 20
19.998
 30
0
 11
7331.328
 21
14.998
 31
0
 0
ENDSEC
 0
EOF

