0
SECTION
2
TABLES
0
TABLE
2
LAYER
70
0
0
LAYER
2
LAYER_NAME
70
0
62
1
6
CONTINUOUS
0
ENDTAB
0
ENDSEC
 0
SECTION
 2
ENTITIES
 0
LINE
 8
TOOL_0
 5
1
 10
881.611
 20
1297.987
 30
0
 11
881.611
 21
1279.459
 31
0
 0
LINE
 8
TOOL_0
 5
2
 10
881.611
 20
1279.459
 30
0
 11
844.018
 21
1281.608
 31
0
 0
LINE
 8
TOOL_0
 5
3
 10
844.018
 20
1281.608
 30
0
 11
487.114
 21
1281.608
 31
0
 0
ARC
 8
TOOL_0
 5
4
 10
487.114
 20
981.608
 30
0
 40
300.0
 50
90.0
 51
108.434888427848
210
0
220
0
230
1.0
 0
LINE
 8
TOOL_0
 5
5
 10
392.246
 20
1266.213
 30
0
 11
280.532
 21
1228.975
 31
0
 0
ARC
 8
TOOL_0
 5
6
 10
264.404
 20
1277.358
 30
0
 40
51.000265420878
 50
270.0
 51
288.4353040861
210
0
220
0
230
1.0
 0
LINE
 8
TOOL_0
 5
7
 10
264.404
 20
1226.358
 30
0
 11
146.476
 21
1226.358
 31
0
 0
ARC
 8
TOOL_0
 5
8
 10
146.476
 20
1346.358
 30
0
 40
120.0
 50
229.999719680749
 51
270.0
210
0
220
0
230
1.0
 0
LINE
 8
TOOL_0
 5
9
 10
69.341
 20
1254.433
 30
0
 11
40.987
 21
1278.225
 31
0
 0
ARC
 8
TOOL_0
 5
A
 10
80.583
 20
1325.373
 30
0
 40
61.569287148707
 50
188.595462069503
 51
229.975669206491
210
0
220
0
230
1.0
 0
ARC
 8
TOOL_0
 5
B
 10
93.122
 20
1326.611
 30
0
 40
74.155576250205
 50
177.860058349406
 51
188.09327896591
210
0
220
0
230
1.0
 0
ARC
 8
TOOL_0
 5
C
 10
80.564
 20
1329.358
 30
0
 40
61.546003932018
 50
130.019766385494
 51
179.979519268586
210
0
220
0
230
1.0
 0
LINE
 8
TOOL_0
 5
D
 10
40.987
 20
1376.491
 30
0
 11
69.341
 21
1400.283
 31
0
 0
ARC
 8
TOOL_0
 5
E
 10
146.476
 20
1308.358
 30
0
 40
120.000057708319
 50
90.0
 51
130.00028031925
210
0
220
0
230
1.0
 0
LINE
 8
TOOL_0
 5
F
 10
146.476
 20
1428.358
 30
0
 11
264.405
 21
1428.358
 31
0
 0
ARC
 8
TOOL_0
 5
10
 10
264.405
 20
1377.358
 30
0
 40
51.0
 50
71.5646959139
 51
90.0
210
0
220
0
230
1.0
 0
LINE
 8
TOOL_0
 5
11
 10
280.533
 20
1425.741
 30
0
 11
392.247
 21
1388.503
 31
0
 0
ARC
 8
TOOL_0
 5
12
 10
487.115
 20
1673.108
 30
0
 40
299.999905748319
 50
251.565111572151
 51
269.999809014068
210
0
220
0
230
1.0
 0
LINE
 8
TOOL_0
 5
13
 10
487.114
 20
1373.108
 30
0
 11
844.02
 21
1373.108
 31
0
 0
ARC
 8
TOOL_0
 5
14
 10
844.02
 20
1353.108
 30
0
 40
20.0
 50
0
 51
90.0
210
0
220
0
230
1.0
 0
LINE
 8
TOOL_0
 5
15
 10
864.02
 20
1353.108
 30
0
 11
864.02
 21
1301.608
 31
0
 0
ARC
 8
TOOL_0
 5
16
 10
844.02
 20
1301.608
 30
0
 40
20.0
 50
270.0
 51
0
210
0
220
0
230
1.0
 0
LINE
 8
TOOL_0
 5
17
 10
844.02
 20
1281.608
 30
0
 11
844.02
 21
1271.383
 31
0
 0
LINE
 8
TOOL_0
 5
18
 10
844.02
 20
1271.383
 30
0
 11
1793.927
 21
1296.298
 31
0
 0
LINE
 8
TOOL_0
 5
19
 10
1793.927
 20
1296.298
 30
0
 11
1793.927
 21
1273.882
 31
0
 0
LINE
 8
TOOL_0
 5
1A
 10
1793.927
 20
1273.882
 30
0
 11
1750.28
 21
1277.937
 31
0
 0
LINE
 8
TOOL_0
 5
1B
 10
1750.28
 20
1277.937
 30
0
 11
1393.376
 21
1277.937
 31
0
 0
ARC
 8
TOOL_0
 5
1C
 10
1393.376
 20
977.937
 30
0
 40
300.0
 50
90.0
 51
108.434888427848
210
0
220
0
230
1.0
 0
LINE
 8
TOOL_0
 5
1D
 10
1298.508
 20
1262.542
 30
0
 11
1186.794
 21
1225.304
 31
0
 0
ARC
 8
TOOL_0
 5
1E
 10
1170.666
 20
1273.687
 30
0
 40
51.000265420878
 50
270.0
 51
288.4353040861
210
0
220
0
230
1.0
 0
LINE
 8
TOOL_0
 5
1F
 10
1170.666
 20
1222.687
 30
0
 11
1052.738
 21
1222.687
 31
0
 0
ARC
 8
TOOL_0
 5
20
 10
1052.738
 20
1342.687
 30
0
 40
120.0
 50
229.999719680749
 51
270.0
210
0
220
0
230
1.0
 0
LINE
 8
TOOL_0
 5
21
 10
975.603
 20
1250.762
 30
0
 11
947.249
 21
1274.554
 31
0
 0
ARC
 8
TOOL_0
 5
22
 10
986.845
 20
1321.702
 30
0
 40
61.569287148707
 50
188.595462069503
 51
229.975669206491
210
0
220
0
230
1.0
 0
ARC
 8
TOOL_0
 5
23
 10
999.384
 20
1322.94
 30
0
 40
74.155576250205
 50
177.860058349406
 51
188.09327896591
210
0
220
0
230
1.0
 0
ARC
 8
TOOL_0
 5
24
 10
986.826
 20
1325.687
 30
0
 40
61.546003932018
 50
130.019766385494
 51
179.979519268586
210
0
220
0
230
1.0
 0
LINE
 8
TOOL_0
 5
25
 10
947.249
 20
1372.82
 30
0
 11
975.603
 21
1396.612
 31
0
 0
ARC
 8
TOOL_0
 5
26
 10
1052.738
 20
1304.687
 30
0
 40
120.000057708319
 50
90.0
 51
130.00028031925
210
0
220
0
230
1.0
 0
LINE
 8
TOOL_0
 5
27
 10
1052.738
 20
1424.687
 30
0
 11
1170.667
 21
1424.687
 31
0
 0
ARC
 8
TOOL_0
 5
28
 10
1170.667
 20
1373.687
 30
0
 40
51.0
 50
71.5646959139
 51
90.0
210
0
220
0
230
1.0
 0
LINE
 8
TOOL_0
 5
29
 10
1186.795
 20
1422.07
 30
0
 11
1298.509
 21
1384.832
 31
0
 0
ARC
 8
TOOL_0
 5
2A
 10
1393.377
 20
1669.437
 30
0
 40
299.999905748319
 50
251.565111572151
 51
269.999809014068
210
0
220
0
230
1.0
 0
LINE
 8
TOOL_0
 5
2B
 10
1393.376
 20
1369.437
 30
0
 11
1750.282
 21
1369.437
 31
0
 0
ARC
 8
TOOL_0
 5
2C
 10
1750.282
 20
1349.437
 30
0
 40
20.0
 50
0
 51
90.0
210
0
220
0
230
1.0
 0
LINE
 8
TOOL_0
 5
2D
 10
1770.282
 20
1349.437
 30
0
 11
1770.282
 21
1297.937
 31
0
 0
ARC
 8
TOOL_0
 5
2E
 10
1750.282
 20
1297.937
 30
0
 40
20.0
 50
270.0
 51
0
210
0
220
0
230
1.0
 0
LINE
 8
TOOL_0
 5
2F
 10
1750.282
 20
1277.937
 30
0
 11
1750.282
 21
1268.035
 31
0
 0
LINE
 8
TOOL_0
 5
30
 10
1750.282
 20
1268.035
 30
0
 11
0.003
 21
2401.005
 31
0
 0
LINE
 8
TOOL_0
 5
31
 10
0.003
 20
2401.005
 30
0
 11
1.003
 21
2401.005
 31
0
 0
LINE
 8
TOOL_0
 5
32
 10
1.003
 20
2401.005
 30
0
 11
1.003
 21
0.001
 31
0
 0
LINE
 8
TOOL_0
 5
33
 10
1.003
 20
0.001
 30
0
 11
0.003
 21
2401.005
 31
0
 0
LINE
 8
TOOL_0
 5
34
 10
0.003
 20
2401.005
 30
0
 11
1.003
 21
2401.005
 31
0
 0
LINE
 8
TOOL_0
 5
35
 10
1.003
 20
2401.005
 30
0
 11
1881.331
 21
2401.005
 31
0
 0
LINE
 8
TOOL_0
 5
36
 10
1881.331
 20
2401.005
 30
0
 11
1881.331
 21
1204.331
 31
0
 0
LINE
 8
TOOL_0
 5
37
 10
1881.331
 20
1204.331
 30
0
 11
1881.331
 21
1203.331
 31
0
 0
ENDSEC
 0
EOF

