0
SECTION
2
TABLES
0
TABLE
2
LAYER
70
0
0
LAYER
2
LAYER_NAME
70
0
62
1
6
CONTINUOUS
0
ENDTAB
0
ENDSEC
 0
SECTION
 2
ENTITIES
 0
LINE
 8
TOOL_0
 5
1
 10
317.812
 20
498.321
 30
0
 11
287.067
 21
498.321
 31
0
 0
LINE
 8
TOOL_0
 5
2
 10
287.067
 20
498.321
 30
0
 11
285.53
 21
500.899
 31
0
 0
LINE
 8
TOOL_0
 5
3
 10
285.53
 20
500.899
 30
0
 11
47.03
 21
500.899
 31
0
 0
ARC
 8
TOOL_0
 5
4
 10
47.03
 20
526.999
 30
0
 40
26.1
 50
180.0
 51
270.0
210
0
220
0
230
1.0
 0
LINE
 8
TOOL_0
 5
5
 10
20.93
 20
526.999
 30
0
 11
20.93
 21
791.999
 31
0
 0
ARC
 8
TOOL_0
 5
6
 10
47.03
 20
791.999
 30
0
 40
26.1
 50
90.0
 51
180.0
210
0
220
0
230
1.0
 0
LINE
 8
TOOL_0
 5
7
 10
47.03
 20
818.099
 30
0
 11
251.675
 21
818.099
 31
0
 0
ARC
 8
TOOL_0
 5
8
 10
251.652
 20
791.943
 30
0
 40
26.156010112401
 50
45.051116824523
 51
89.949617579556
210
0
220
0
230
1.0
 0
LINE
 8
TOOL_0
 5
9
 10
270.13
 20
810.454
 30
0
 11
305.485
 21
775.099
 31
0
 0
ARC
 8
TOOL_0
 5
A
 10
286.974
 20
756.621
 30
0
 40
26.155183138338
 50
0.050382420444
 51
44.948883175477
210
0
220
0
230
1.0
 0
LINE
 8
TOOL_0
 5
B
 10
313.13
 20
756.644
 30
0
 11
313.13
 21
526.999
 31
0
 0
ARC
 8
TOOL_0
 5
C
 10
287.03
 20
526.999
 30
0
 40
26.1
 50
273.292467126984
 51
0
210
0
220
0
230
1.0
 0
LINE
 8
TOOL_0
 5
D
 10
288.529
 20
500.942
 30
0
 11
287.067
 21
498.321
 31
0
 0
LINE
 8
TOOL_0
 5
E
 10
287.067
 20
498.321
 30
0
 11
284.316
 21
494.126
 31
0
 0
LINE
 8
TOOL_0
 5
F
 10
284.316
 20
494.126
 30
0
 11
853.006
 21
20.229
 31
0
 0
LINE
 8
TOOL_0
 5
10
 10
853.006
 20
20.229
 30
0
 11
822.959
 21
20.229
 31
0
 0
LINE
 8
TOOL_0
 5
11
 10
822.959
 20
20.229
 30
0
 11
21.459
 21
20.229
 31
0
 0
LINE
 8
TOOL_0
 5
12
 10
21.459
 20
20.229
 30
0
 11
21.459
 21
481.729
 31
0
 0
LINE
 8
TOOL_0
 5
13
 10
21.459
 20
481.729
 30
0
 11
822.959
 21
481.729
 31
0
 0
LINE
 8
TOOL_0
 5
14
 10
822.959
 20
481.729
 30
0
 11
822.959
 21
20.229
 31
0
 0
LINE
 8
TOOL_0
 5
15
 10
822.959
 20
20.229
 30
0
 11
822.959
 21
15.153
 31
0
 0
LINE
 8
TOOL_0
 5
16
 10
822.959
 20
15.153
 30
0
 11
731.875
 21
498.321
 31
0
 0
LINE
 8
TOOL_0
 5
17
 10
731.875
 20
498.321
 30
0
 11
701.13
 21
498.321
 31
0
 0
LINE
 8
TOOL_0
 5
18
 10
701.13
 20
498.321
 30
0
 11
699.593
 21
500.899
 31
0
 0
LINE
 8
TOOL_0
 5
19
 10
699.593
 20
500.899
 30
0
 11
461.093
 21
500.899
 31
0
 0
ARC
 8
TOOL_0
 5
1A
 10
461.093
 20
526.999
 30
0
 40
26.1
 50
180.0
 51
270.0
210
0
220
0
230
1.0
 0
LINE
 8
TOOL_0
 5
1B
 10
434.993
 20
526.999
 30
0
 11
434.993
 21
791.999
 31
0
 0
ARC
 8
TOOL_0
 5
1C
 10
461.093
 20
791.999
 30
0
 40
26.1
 50
90.0
 51
180.0
210
0
220
0
230
1.0
 0
LINE
 8
TOOL_0
 5
1D
 10
461.093
 20
818.099
 30
0
 11
665.738
 21
818.099
 31
0
 0
ARC
 8
TOOL_0
 5
1E
 10
665.715
 20
791.943
 30
0
 40
26.156010112401
 50
45.051116824523
 51
89.949617579556
210
0
220
0
230
1.0
 0
LINE
 8
TOOL_0
 5
1F
 10
684.193
 20
810.454
 30
0
 11
719.548
 21
775.099
 31
0
 0
ARC
 8
TOOL_0
 5
20
 10
701.037
 20
756.621
 30
0
 40
26.155183138338
 50
0.050382420444
 51
44.948883175477
210
0
220
0
230
1.0
 0
LINE
 8
TOOL_0
 5
21
 10
727.193
 20
756.644
 30
0
 11
727.193
 21
526.999
 31
0
 0
ARC
 8
TOOL_0
 5
22
 10
701.093
 20
526.999
 30
0
 40
26.1
 50
273.292467126984
 51
0
210
0
220
0
230
1.0
 0
LINE
 8
TOOL_0
 5
23
 10
702.592
 20
500.942
 30
0
 11
701.13
 21
498.321
 31
0
 0
LINE
 8
TOOL_0
 5
24
 10
701.13
 20
498.321
 30
0
 11
698.379
 21
494.126
 31
0
 0
LINE
 8
TOOL_0
 5
25
 10
698.379
 20
494.126
 30
0
 11
869.445
 21
-0.001
 31
0
 0
LINE
 8
TOOL_0
 5
26
 10
869.445
 20
-0.001
 30
0
 11
869.445
 21
0.999
 31
0
 0
LINE
 8
TOOL_0
 5
27
 10
869.445
 20
0.999
 30
0
 11
869.445
 21
-0.001
 31
0
 0
LINE
 8
TOOL_0
 5
28
 10
869.445
 20
-0.001
 30
0
 11
869.445
 21
0.999
 31
0
 0
LINE
 8
TOOL_0
 5
29
 10
869.445
 20
0.999
 30
0
 11
869.445
 21
1058.999
 31
0
 0
LINE
 8
TOOL_0
 5
2A
 10
869.445
 20
1058.999
 30
0
 11
869.445
 21
1059.999
 31
0
 0
ENDSEC
 0
EOF

