0
SECTION
2
TABLES
0
TABLE
2
LAYER
70
0
0
LAYER
2
LAYER_NAME
70
0
62
1
6
CONTINUOUS
0
ENDTAB
0
ENDSEC
 0
SECTION
 2
ENTITIES
 0
LINE
 8
TOOL_0
 5
1
 10
182.307
 20
343.609
 30
0
 11
181.227
 21
306.089
 31
0
 0
LINE
 8
TOOL_0
 5
2
 10
181.227
 20
306.089
 30
0
 11
178.65
 21
304.55
 31
0
 0
LINE
 8
TOOL_0
 5
3
 10
178.65
 20
304.55
 30
0
 11
178.65
 21
31.85
 31
0
 0
ARC
 8
TOOL_0
 5
4
 10
153.65
 20
31.85
 30
0
 40
25.0
 50
270.0
 51
0
210
0
220
0
230
1.0
 0
LINE
 8
TOOL_0
 5
5
 10
153.65
 20
6.85
 30
0
 11
31.85
 21
6.85
 31
0
 0
ARC
 8
TOOL_0
 5
6
 10
31.85
 20
31.85
 30
0
 40
25.0
 50
180.0
 51
270.0
210
0
220
0
230
1.0
 0
LINE
 8
TOOL_0
 5
7
 10
6.85
 20
31.85
 30
0
 11
6.85
 21
306.05
 31
0
 0
ARC
 8
TOOL_0
 5
8
 10
31.85
 20
306.05
 30
0
 40
25.0
 50
90.0
 51
180.0
210
0
220
0
230
1.0
 0
LINE
 8
TOOL_0
 5
9
 10
31.85
 20
331.05
 30
0
 11
153.65
 21
331.05
 31
0
 0
ARC
 8
TOOL_0
 5
A
 10
153.65
 20
306.05
 30
0
 40
25.0
 50
3.437519484366
 51
90.0
210
0
220
0
230
1.0
 0
LINE
 8
TOOL_0
 5
B
 10
178.605
 20
307.549
 30
0
 11
181.227
 21
306.088
 31
0
 0
LINE
 8
TOOL_0
 5
C
 10
181.227
 20
306.088
 30
0
 11
182.714
 21
302.749
 31
0
 0
LINE
 8
TOOL_0
 5
D
 10
182.714
 20
302.749
 30
0
 11
160.946
 21
347.555
 31
0
 0
LINE
 8
TOOL_0
 5
E
 10
160.946
 20
347.555
 30
0
 11
130.39
 21
349.442
 31
0
 0
LINE
 8
TOOL_0
 5
F
 10
130.39
 20
349.442
 30
0
 11
128.85
 21
352.018
 31
0
 0
LINE
 8
TOOL_0
 5
10
 10
128.85
 20
352.018
 30
0
 11
30.85
 21
352.018
 31
0
 0
ARC
 8
TOOL_0
 5
11
 10
30.85
 20
376.018
 30
0
 40
24.0
 50
180.0
 51
270.0
210
0
220
0
230
1.0
 0
LINE
 8
TOOL_0
 5
12
 10
6.85
 20
376.018
 30
0
 11
6.85
 21
608.018
 31
0
 0
ARC
 8
TOOL_0
 5
13
 10
30.85
 20
608.018
 30
0
 40
24.0
 50
90.0
 51
180.0
210
0
220
0
230
1.0
 0
LINE
 8
TOOL_0
 5
14
 10
30.85
 20
632.018
 30
0
 11
130.35
 21
632.018
 31
0
 0
ARC
 8
TOOL_0
 5
15
 10
130.35
 20
608.018
 30
0
 40
24.0
 50
0
 51
90.0
210
0
220
0
230
1.0
 0
LINE
 8
TOOL_0
 5
16
 10
154.35
 20
608.018
 30
0
 11
154.35
 21
376.018
 31
0
 0
ARC
 8
TOOL_0
 5
17
 10
130.35
 20
376.018
 30
0
 40
24.0
 50
273.583333505919
 51
0
210
0
220
0
230
1.0
 0
LINE
 8
TOOL_0
 5
18
 10
131.85
 20
352.065
 30
0
 11
130.391
 21
349.442
 31
0
 0
LINE
 8
TOOL_0
 5
19
 10
130.391
 20
349.442
 30
0
 11
127.398
 21
348.351
 31
0
 0
LINE
 8
TOOL_0
 5
1A
 10
127.398
 20
348.351
 30
0
 11
0
 21
642.88
 31
0
 0
LINE
 8
TOOL_0
 5
1B
 10
0
 20
642.88
 30
0
 11
1.0
 21
642.88
 31
0
 0
LINE
 8
TOOL_0
 5
1C
 10
1.0
 20
642.88
 30
0
 11
0
 21
642.88
 31
0
 0
LINE
 8
TOOL_0
 5
1D
 10
0
 20
642.88
 30
0
 11
1.0
 21
642.88
 31
0
 0
LINE
 8
TOOL_0
 5
1E
 10
1.0
 20
642.88
 30
0
 11
198.632
 21
642.88
 31
0
 0
LINE
 8
TOOL_0
 5
1F
 10
198.632
 20
642.88
 30
0
 11
198.632
 21
0.999
 31
0
 0
LINE
 8
TOOL_0
 5
20
 10
198.632
 20
0.999
 30
0
 11
198.632
 21
-0.001
 31
0
 0
ENDSEC
 0
EOF

