0
SECTION
2
TABLES
0
TABLE
2
LAYER
70
0
0
LAYER
2
LAYER_NAME
70
0
62
1
6
CONTINUOUS
0
ENDTAB
0
ENDSEC
 0
SECTION
 2
ENTITIES
 0
LINE
 8
TOOL_0
 5
1
 10
192.36
 20
1699.611
 30
0
 11
212.36
 21
1699.611
 31
0
 0
ARC
 8
TOOL_0
 5
2
 10
177.36
 20
1699.611
 30
0
 40
35.0
 50
0
 51
180.0
210
0
220
0
230
1.0
 0
ARC
 8
TOOL_0
 5
3
 10
177.36
 20
1699.611
 30
0
 40
35.0
 50
180.0
 51
0
210
0
220
0
230
1.0
 0
LINE
 8
TOOL_0
 5
4
 10
212.36
 20
1699.611
 30
0
 11
208.824
 21
1703.147
 31
0
 0
LINE
 8
TOOL_0
 5
5
 10
208.824
 20
1703.147
 30
0
 11
248.859
 21
1699.611
 31
0
 0
LINE
 8
TOOL_0
 5
6
 10
248.859
 20
1699.611
 30
0
 11
268.859
 21
1699.611
 31
0
 0
ARC
 8
TOOL_0
 5
7
 10
248.859
 20
1699.611
 30
0
 40
20.0
 50
0
 51
180.0
210
0
220
0
230
1.0
 0
ARC
 8
TOOL_0
 5
8
 10
248.859
 20
1699.611
 30
0
 40
20.0
 50
180.0
 51
0
210
0
220
0
230
1.0
 0
LINE
 8
TOOL_0
 5
9
 10
268.859
 20
1699.611
 30
0
 11
265.323
 21
1703.147
 31
0
 0
LINE
 8
TOOL_0
 5
A
 10
265.323
 20
1703.147
 30
0
 11
291.913
 21
1617.409
 31
0
 0
LINE
 8
TOOL_0
 5
B
 10
291.913
 20
1617.409
 30
0
 11
248.872
 21
1625.719
 31
0
 0
LINE
 8
TOOL_0
 5
C
 10
248.872
 20
1625.719
 30
0
 11
247.358
 21
1628.311
 31
0
 0
LINE
 8
TOOL_0
 5
D
 10
247.358
 20
1628.311
 30
0
 11
77.858
 21
1628.311
 31
0
 0
ARC
 8
TOOL_0
 5
E
 10
77.858
 20
1699.611
 30
0
 40
71.3
 50
90.0
 51
270.0
210
0
220
0
230
1.0
 0
LINE
 8
TOOL_0
 5
F
 10
77.858
 20
1770.911
 30
0
 11
248.858
 21
1770.911
 31
0
 0
ARC
 8
TOOL_0
 5
10
 10
248.858
 20
1699.611
 30
0
 40
71.3
 50
271.205473705492
 51
90.0
210
0
220
0
230
1.0
 0
LINE
 8
TOOL_0
 5
11
 10
250.358
 20
1628.327
 30
0
 11
248.872
 21
1625.719
 31
0
 0
LINE
 8
TOOL_0
 5
12
 10
248.872
 20
1625.719
 30
0
 11
243.576
 21
1622.021
 31
0
 0
LINE
 8
TOOL_0
 5
13
 10
243.576
 20
1622.021
 30
0
 11
192.359
 21
1868.533
 31
0
 0
LINE
 8
TOOL_0
 5
14
 10
192.359
 20
1868.533
 30
0
 11
212.359
 21
1868.533
 31
0
 0
ARC
 8
TOOL_0
 5
15
 10
177.359
 20
1868.533
 30
0
 40
35.0
 50
0
 51
180.0
210
0
220
0
230
1.0
 0
ARC
 8
TOOL_0
 5
16
 10
177.359
 20
1868.533
 30
0
 40
35.0
 50
180.0
 51
0
210
0
220
0
230
1.0
 0
LINE
 8
TOOL_0
 5
17
 10
212.359
 20
1868.533
 30
0
 11
208.823
 21
1872.069
 31
0
 0
LINE
 8
TOOL_0
 5
18
 10
208.823
 20
1872.069
 30
0
 11
248.858
 21
1868.534
 31
0
 0
LINE
 8
TOOL_0
 5
19
 10
248.858
 20
1868.534
 30
0
 11
268.858
 21
1868.534
 31
0
 0
ARC
 8
TOOL_0
 5
1A
 10
248.858
 20
1868.534
 30
0
 40
20.0
 50
0
 51
180.0
210
0
220
0
230
1.0
 0
ARC
 8
TOOL_0
 5
1B
 10
248.858
 20
1868.534
 30
0
 40
20.0
 50
180.0
 51
0
210
0
220
0
230
1.0
 0
LINE
 8
TOOL_0
 5
1C
 10
268.858
 20
1868.534
 30
0
 11
265.322
 21
1872.07
 31
0
 0
LINE
 8
TOOL_0
 5
1D
 10
265.322
 20
1872.07
 30
0
 11
298.013
 21
1782.462
 31
0
 0
LINE
 8
TOOL_0
 5
1E
 10
298.013
 20
1782.462
 30
0
 11
248.871
 21
1794.643
 31
0
 0
LINE
 8
TOOL_0
 5
1F
 10
248.871
 20
1794.643
 30
0
 11
247.357
 21
1797.235
 31
0
 0
LINE
 8
TOOL_0
 5
20
 10
247.357
 20
1797.235
 30
0
 11
77.857
 21
1797.235
 31
0
 0
ARC
 8
TOOL_0
 5
21
 10
77.857
 20
1868.535
 30
0
 40
71.3
 50
90.0
 51
270.0
210
0
220
0
230
1.0
 0
LINE
 8
TOOL_0
 5
22
 10
77.857
 20
1939.835
 30
0
 11
248.857
 21
1939.835
 31
0
 0
ARC
 8
TOOL_0
 5
23
 10
248.857
 20
1868.535
 30
0
 40
71.3
 50
271.205473705492
 51
90.0
210
0
220
0
230
1.0
 0
LINE
 8
TOOL_0
 5
24
 10
250.357
 20
1797.251
 30
0
 11
248.871
 21
1794.643
 31
0
 0
LINE
 8
TOOL_0
 5
25
 10
248.871
 20
1794.643
 30
0
 11
245.475
 21
1792.844
 31
0
 0
LINE
 8
TOOL_0
 5
26
 10
245.475
 20
1792.844
 30
0
 11
192.357
 21
2029.149
 31
0
 0
LINE
 8
TOOL_0
 5
27
 10
192.357
 20
2029.149
 30
0
 11
212.357
 21
2029.149
 31
0
 0
ARC
 8
TOOL_0
 5
28
 10
177.357
 20
2029.149
 30
0
 40
35.0
 50
0
 51
180.0
210
0
220
0
230
1.0
 0
ARC
 8
TOOL_0
 5
29
 10
177.357
 20
2029.149
 30
0
 40
35.0
 50
180.0
 51
0
210
0
220
0
230
1.0
 0
LINE
 8
TOOL_0
 5
2A
 10
212.357
 20
2029.149
 30
0
 11
208.821
 21
2032.685
 31
0
 0
LINE
 8
TOOL_0
 5
2B
 10
208.821
 20
2032.685
 30
0
 11
248.856
 21
2029.149
 31
0
 0
LINE
 8
TOOL_0
 5
2C
 10
248.856
 20
2029.149
 30
0
 11
268.856
 21
2029.149
 31
0
 0
ARC
 8
TOOL_0
 5
2D
 10
248.856
 20
2029.149
 30
0
 40
20.0
 50
0
 51
180.0
210
0
220
0
230
1.0
 0
ARC
 8
TOOL_0
 5
2E
 10
248.856
 20
2029.149
 30
0
 40
20.0
 50
180.0
 51
0
210
0
220
0
230
1.0
 0
LINE
 8
TOOL_0
 5
2F
 10
268.856
 20
2029.149
 30
0
 11
265.32
 21
2032.685
 31
0
 0
LINE
 8
TOOL_0
 5
30
 10
265.32
 20
2032.685
 30
0
 11
302.607
 21
1946.021
 31
0
 0
LINE
 8
TOOL_0
 5
31
 10
302.607
 20
1946.021
 30
0
 11
248.869
 21
1955.257
 31
0
 0
LINE
 8
TOOL_0
 5
32
 10
248.869
 20
1955.257
 30
0
 11
247.355
 21
1957.849
 31
0
 0
LINE
 8
TOOL_0
 5
33
 10
247.355
 20
1957.849
 30
0
 11
77.855
 21
1957.849
 31
0
 0
ARC
 8
TOOL_0
 5
34
 10
77.855
 20
2029.149
 30
0
 40
71.3
 50
90.0
 51
270.0
210
0
220
0
230
1.0
 0
LINE
 8
TOOL_0
 5
35
 10
77.855
 20
2100.449
 30
0
 11
248.855
 21
2100.449
 31
0
 0
ARC
 8
TOOL_0
 5
36
 10
248.855
 20
2029.149
 30
0
 40
71.3
 50
271.205473705492
 51
90.0
210
0
220
0
230
1.0
 0
LINE
 8
TOOL_0
 5
37
 10
250.355
 20
1957.865
 30
0
 11
248.869
 21
1955.257
 31
0
 0
LINE
 8
TOOL_0
 5
38
 10
248.869
 20
1955.257
 30
0
 11
245.027
 21
1953.842
 31
0
 0
LINE
 8
TOOL_0
 5
39
 10
245.027
 20
1953.842
 30
0
 11
192.355
 21
2189.764
 31
0
 0
LINE
 8
TOOL_0
 5
3A
 10
192.355
 20
2189.764
 30
0
 11
212.355
 21
2189.764
 31
0
 0
ARC
 8
TOOL_0
 5
3B
 10
177.355
 20
2189.764
 30
0
 40
35.0
 50
0
 51
180.0
210
0
220
0
230
1.0
 0
ARC
 8
TOOL_0
 5
3C
 10
177.355
 20
2189.764
 30
0
 40
35.0
 50
180.0
 51
0
210
0
220
0
230
1.0
 0
LINE
 8
TOOL_0
 5
3D
 10
212.355
 20
2189.764
 30
0
 11
208.819
 21
2193.3
 31
0
 0
LINE
 8
TOOL_0
 5
3E
 10
208.819
 20
2193.3
 30
0
 11
248.854
 21
2189.765
 31
0
 0
LINE
 8
TOOL_0
 5
3F
 10
248.854
 20
2189.765
 30
0
 11
268.854
 21
2189.765
 31
0
 0
ARC
 8
TOOL_0
 5
40
 10
248.854
 20
2189.765
 30
0
 40
20.0
 50
0
 51
180.0
210
0
220
0
230
1.0
 0
ARC
 8
TOOL_0
 5
41
 10
248.854
 20
2189.765
 30
0
 40
20.0
 50
180.0
 51
0
210
0
220
0
230
1.0
 0
LINE
 8
TOOL_0
 5
42
 10
268.854
 20
2189.765
 30
0
 11
265.318
 21
2193.301
 31
0
 0
LINE
 8
TOOL_0
 5
43
 10
265.318
 20
2193.301
 30
0
 11
293.125
 21
2104.003
 31
0
 0
LINE
 8
TOOL_0
 5
44
 10
293.125
 20
2104.003
 30
0
 11
248.867
 21
2115.873
 31
0
 0
LINE
 8
TOOL_0
 5
45
 10
248.867
 20
2115.873
 30
0
 11
247.353
 21
2118.465
 31
0
 0
LINE
 8
TOOL_0
 5
46
 10
247.353
 20
2118.465
 30
0
 11
77.853
 21
2118.465
 31
0
 0
ARC
 8
TOOL_0
 5
47
 10
77.853
 20
2189.765
 30
0
 40
71.3
 50
90.0
 51
270.0
210
0
220
0
230
1.0
 0
LINE
 8
TOOL_0
 5
48
 10
77.853
 20
2261.065
 30
0
 11
248.853
 21
2261.065
 31
0
 0
ARC
 8
TOOL_0
 5
49
 10
248.853
 20
2189.765
 30
0
 40
71.3
 50
271.205473705492
 51
90.0
210
0
220
0
230
1.0
 0
LINE
 8
TOOL_0
 5
4A
 10
250.353
 20
2118.481
 30
0
 11
248.867
 21
2115.873
 31
0
 0
LINE
 8
TOOL_0
 5
4B
 10
248.867
 20
2115.873
 30
0
 11
244.988
 21
2113.358
 31
0
 0
LINE
 8
TOOL_0
 5
4C
 10
244.988
 20
2113.358
 30
0
 11
192.353
 21
2351.705
 31
0
 0
LINE
 8
TOOL_0
 5
4D
 10
192.353
 20
2351.705
 30
0
 11
212.353
 21
2351.705
 31
0
 0
ARC
 8
TOOL_0
 5
4E
 10
177.353
 20
2351.705
 30
0
 40
35.0
 50
0
 51
180.0
210
0
220
0
230
1.0
 0
ARC
 8
TOOL_0
 5
4F
 10
177.353
 20
2351.705
 30
0
 40
35.0
 50
180.0
 51
0
210
0
220
0
230
1.0
 0
LINE
 8
TOOL_0
 5
50
 10
212.353
 20
2351.705
 30
0
 11
208.817
 21
2355.241
 31
0
 0
LINE
 8
TOOL_0
 5
51
 10
208.817
 20
2355.241
 30
0
 11
248.852
 21
2351.705
 31
0
 0
LINE
 8
TOOL_0
 5
52
 10
248.852
 20
2351.705
 30
0
 11
268.852
 21
2351.705
 31
0
 0
ARC
 8
TOOL_0
 5
53
 10
248.852
 20
2351.705
 30
0
 40
20.0
 50
0
 51
180.0
210
0
220
0
230
1.0
 0
ARC
 8
TOOL_0
 5
54
 10
248.852
 20
2351.705
 30
0
 40
20.0
 50
180.0
 51
0
210
0
220
0
230
1.0
 0
LINE
 8
TOOL_0
 5
55
 10
268.852
 20
2351.705
 30
0
 11
265.316
 21
2355.241
 31
0
 0
LINE
 8
TOOL_0
 5
56
 10
265.316
 20
2355.241
 30
0
 11
292.346
 21
2269.737
 31
0
 0
LINE
 8
TOOL_0
 5
57
 10
292.346
 20
2269.737
 30
0
 11
248.865
 21
2277.813
 31
0
 0
LINE
 8
TOOL_0
 5
58
 10
248.865
 20
2277.813
 30
0
 11
247.351
 21
2280.405
 31
0
 0
LINE
 8
TOOL_0
 5
59
 10
247.351
 20
2280.405
 30
0
 11
77.851
 21
2280.405
 31
0
 0
ARC
 8
TOOL_0
 5
5A
 10
77.851
 20
2351.705
 30
0
 40
71.3
 50
90.0
 51
270.0
210
0
220
0
230
1.0
 0
LINE
 8
TOOL_0
 5
5B
 10
77.851
 20
2423.005
 30
0
 11
248.851
 21
2423.005
 31
0
 0
ARC
 8
TOOL_0
 5
5C
 10
248.851
 20
2351.705
 30
0
 40
71.3
 50
271.205473705492
 51
90.0
210
0
220
0
230
1.0
 0
LINE
 8
TOOL_0
 5
5D
 10
250.351
 20
2280.421
 30
0
 11
248.865
 21
2277.813
 31
0
 0
LINE
 8
TOOL_0
 5
5E
 10
248.865
 20
2277.813
 30
0
 11
247.464
 21
2275.464
 31
0
 0
LINE
 8
TOOL_0
 5
5F
 10
247.464
 20
2275.464
 30
0
 11
-0.009
 21
1569.149
 31
0
 0
LINE
 8
TOOL_0
 5
60
 10
-0.009
 20
1569.149
 30
0
 11
0.991
 21
1569.149
 31
0
 0
LINE
 8
TOOL_0
 5
61
 10
0.991
 20
1569.149
 30
0
 11
-0.009
 21
1569.149
 31
0
 0
LINE
 8
TOOL_0
 5
62
 10
-0.009
 20
1569.149
 30
0
 11
0.991
 21
1569.149
 31
0
 0
LINE
 8
TOOL_0
 5
63
 10
0.991
 20
1569.149
 30
0
 11
344.623
 21
1569.149
 31
0
 0
LINE
 8
TOOL_0
 5
64
 10
344.623
 20
1569.149
 30
0
 11
344.623
 21
2429.005
 31
0
 0
LINE
 8
TOOL_0
 5
65
 10
344.623
 20
2429.005
 30
0
 11
344.623
 21
2430.005
 31
0
 0
ENDSEC
 0
EOF

