0
SECTION
2
TABLES
0
TABLE
2
LAYER
70
0
0
LAYER
2
LAYER_NAME
70
0
62
1
6
CONTINUOUS
0
ENDTAB
0
ENDSEC
 0
SECTION
 2
ENTITIES
 0
LINE
 8
TOOL_0
 5
1
 10
201.051
 20
336.244
 30
0
 11
201.051
 21
315.174
 31
0
 0
LINE
 8
TOOL_0
 5
2
 10
201.051
 20
315.174
 30
0
 11
201.051
 21
194.174
 31
0
 0
LINE
 8
TOOL_0
 5
3
 10
201.051
 20
194.174
 30
0
 11
20.051
 21
194.174
 31
0
 0
LINE
 8
TOOL_0
 5
4
 10
20.051
 20
194.174
 30
0
 11
20.051
 21
315.174
 31
0
 0
LINE
 8
TOOL_0
 5
5
 10
20.051
 20
315.174
 30
0
 11
201.051
 21
315.174
 31
0
 0
LINE
 8
TOOL_0
 5
6
 10
201.051
 20
315.174
 30
0
 11
210.539
 21
315.174
 31
0
 0
LINE
 8
TOOL_0
 5
7
 10
210.539
 20
315.174
 30
0
 11
804.215
 21
326.356
 31
0
 0
LINE
 8
TOOL_0
 5
8
 10
804.215
 20
326.356
 30
0
 11
804.215
 21
306.238
 31
0
 0
LINE
 8
TOOL_0
 5
9
 10
804.215
 20
306.238
 30
0
 11
804.215
 21
185.238
 31
0
 0
LINE
 8
TOOL_0
 5
A
 10
804.215
 20
185.238
 30
0
 11
623.215
 21
185.238
 31
0
 0
LINE
 8
TOOL_0
 5
B
 10
623.215
 20
185.238
 30
0
 11
623.215
 21
306.238
 31
0
 0
LINE
 8
TOOL_0
 5
C
 10
623.215
 20
306.238
 30
0
 11
804.215
 21
306.238
 31
0
 0
LINE
 8
TOOL_0
 5
D
 10
804.215
 20
306.238
 30
0
 11
814.931
 21
306.238
 31
0
 0
LINE
 8
TOOL_0
 5
E
 10
814.931
 20
306.238
 30
0
 11
402.079
 21
329.153
 31
0
 0
LINE
 8
TOOL_0
 5
F
 10
402.079
 20
329.153
 30
0
 11
402.079
 21
308.208
 31
0
 0
LINE
 8
TOOL_0
 5
10
 10
402.079
 20
308.208
 30
0
 11
402.079
 21
187.208
 31
0
 0
LINE
 8
TOOL_0
 5
11
 10
402.079
 20
187.208
 30
0
 11
221.079
 21
187.208
 31
0
 0
LINE
 8
TOOL_0
 5
12
 10
221.079
 20
187.208
 30
0
 11
221.079
 21
308.208
 31
0
 0
LINE
 8
TOOL_0
 5
13
 10
221.079
 20
308.208
 30
0
 11
402.079
 21
308.208
 31
0
 0
LINE
 8
TOOL_0
 5
14
 10
402.079
 20
308.208
 30
0
 11
411.315
 21
308.208
 31
0
 0
LINE
 8
TOOL_0
 5
15
 10
411.315
 20
308.208
 30
0
 11
603.126
 21
328.836
 31
0
 0
LINE
 8
TOOL_0
 5
16
 10
603.126
 20
328.836
 30
0
 11
603.126
 21
308.204
 31
0
 0
LINE
 8
TOOL_0
 5
17
 10
603.126
 20
308.204
 30
0
 11
603.126
 21
187.204
 31
0
 0
LINE
 8
TOOL_0
 5
18
 10
603.126
 20
187.204
 30
0
 11
422.126
 21
187.204
 31
0
 0
LINE
 8
TOOL_0
 5
19
 10
422.126
 20
187.204
 30
0
 11
422.126
 21
308.204
 31
0
 0
LINE
 8
TOOL_0
 5
1A
 10
422.126
 20
308.204
 30
0
 11
603.126
 21
308.204
 31
0
 0
LINE
 8
TOOL_0
 5
1B
 10
603.126
 20
308.204
 30
0
 11
612.67
 21
308.204
 31
0
 0
LINE
 8
TOOL_0
 5
1C
 10
612.67
 20
308.204
 30
0
 11
0.002
 21
342.403
 31
0
 0
LINE
 8
TOOL_0
 5
1D
 10
0.002
 20
342.403
 30
0
 11
1.002
 21
342.403
 31
0
 0
LINE
 8
TOOL_0
 5
1E
 10
1.002
 20
342.403
 30
0
 11
0.002
 21
342.403
 31
0
 0
LINE
 8
TOOL_0
 5
1F
 10
0.002
 20
342.403
 30
0
 11
1.002
 21
342.403
 31
0
 0
LINE
 8
TOOL_0
 5
20
 10
1.002
 20
342.403
 30
0
 11
950.899
 21
342.403
 31
0
 0
LINE
 8
TOOL_0
 5
21
 10
950.899
 20
342.403
 30
0
 11
951.899
 21
342.403
 31
0
 0
ENDSEC
 0
EOF

