0
SECTION
2
TABLES
0
TABLE
2
LAYER
70
0
0
LAYER
2
LAYER_NAME
70
0
62
1
6
CONTINUOUS
0
ENDTAB
0
ENDSEC
 0
SECTION
 2
ENTITIES
 0
LINE
 8
TOOL_0
 5
1
 10
1670.331
 20
941.668
 30
0
 11
1635.357
 21
943.012
 31
0
 0
LINE
 8
TOOL_0
 5
2
 10
1635.357
 20
943.012
 30
0
 11
1589.046
 21
900.127
 31
0
 0
ARC
 8
TOOL_0
 5
3
 10
1541.145
 20
951.855
 30
0
 40
70.500296346895
 50
270.0
 51
312.800206794401
210
0
220
0
230
1.0
 0
LINE
 8
TOOL_0
 5
4
 10
1541.145
 20
881.355
 30
0
 11
1526.011
 21
881.355
 31
0
 0
ARC
 8
TOOL_0
 5
5
 10
1526.011
 20
951.855
 30
0
 40
70.5
 50
227.199793205599
 51
270.0
210
0
220
0
230
1.0
 0
LINE
 8
TOOL_0
 5
6
 10
1478.11
 20
900.127
 30
0
 11
1431.799
 21
943.011
 31
0
 0
ARC
 8
TOOL_0
 5
7
 10
1445.728
 20
958.052
 30
0
 40
20.499968829245
 50
199.920785441378
 51
227.19819273391
210
0
220
0
230
1.0
 0
LINE
 8
TOOL_0
 5
8
 10
1426.454
 20
951.067
 30
0
 11
1394.1
 21
1040.33
 31
0
 0
ARC
 8
TOOL_0
 5
9
 10
1441.578
 20
1057.538
 30
0
 40
50.50025493005
 50
179.998865430109
 51
199.922620719172
210
0
220
0
230
1.0
 0
LINE
 8
TOOL_0
 5
A
 10
1391.078
 20
1057.539
 30
0
 11
1391.078
 21
1388.564
 31
0
 0
ARC
 8
TOOL_0
 5
B
 10
1441.578
 20
1388.564
 30
0
 40
50.5
 50
139.202791978101
 51
180.0
210
0
220
0
230
1.0
 0
LINE
 8
TOOL_0
 5
C
 10
1403.348
 20
1421.56
 30
0
 11
1469.551
 21
1498.264
 31
0
 0
ARC
 8
TOOL_0
 5
D
 10
1432.078
 20
1530.607
 30
0
 40
49.500458361514
 50
319.202476090436
 51
359.998842509505
210
0
220
0
230
1.0
 0
LINE
 8
TOOL_0
 5
E
 10
1481.578
 20
1530.606
 30
0
 11
1481.578
 21
1828.854
 31
0
 0
ARC
 8
TOOL_0
 5
F
 10
1492.078
 20
1828.854
 30
0
 40
10.5
 50
90.0
 51
180.0
210
0
220
0
230
1.0
 0
LINE
 8
TOOL_0
 5
10
 10
1492.078
 20
1839.354
 30
0
 11
1575.078
 21
1839.354
 31
0
 0
ARC
 8
TOOL_0
 5
11
 10
1575.078
 20
1828.854
 30
0
 40
10.5
 50
0
 51
90.0
210
0
220
0
230
1.0
 0
LINE
 8
TOOL_0
 5
12
 10
1585.578
 20
1828.854
 30
0
 11
1585.578
 21
1530.606
 31
0
 0
ARC
 8
TOOL_0
 5
13
 10
1635.078
 20
1530.606
 30
0
 40
49.5
 50
180.0
 51
220.797523909564
210
0
220
0
230
1.0
 0
LINE
 8
TOOL_0
 5
14
 10
1597.605
 20
1498.263
 30
0
 11
1663.808
 21
1421.559
 31
0
 0
ARC
 8
TOOL_0
 5
15
 10
1625.578
 20
1388.563
 30
0
 40
50.500187286782
 50
0
 51
40.797208021899
210
0
220
0
230
1.0
 0
LINE
 8
TOOL_0
 5
16
 10
1676.078
 20
1388.563
 30
0
 11
1676.078
 21
1057.537
 31
0
 0
ARC
 8
TOOL_0
 5
17
 10
1625.578
 20
1057.537
 30
0
 40
50.5
 50
340.077379280828
 51
0
210
0
220
0
230
1.0
 0
LINE
 8
TOOL_0
 5
18
 10
1673.056
 20
1040.329
 30
0
 11
1640.702
 21
951.066
 31
0
 0
ARC
 8
TOOL_0
 5
19
 10
1621.429
 20
958.052
 30
0
 40
20.500066463307
 50
312.797857570943
 51
340.075634603523
210
0
220
0
230
1.0
 0
LINE
 8
TOOL_0
 5
1A
 10
1635.357
 20
943.01
 30
0
 11
1635.165
 21
938.014
 31
0
 0
LINE
 8
TOOL_0
 5
1B
 10
1635.165
 20
938.014
 30
0
 11
1031.5
 21
2551.499
 31
0
 0
LINE
 8
TOOL_0
 5
1C
 10
1031.5
 20
2551.499
 30
0
 11
1061.5
 21
2551.499
 31
0
 0
ARC
 8
TOOL_0
 5
1D
 10
1026.5
 20
2551.499
 30
0
 40
35.0
 50
0
 51
180.0
210
0
220
0
230
1.0
 0
ARC
 8
TOOL_0
 5
1E
 10
1026.5
 20
2551.499
 30
0
 40
35.0
 50
180.0
 51
0
210
0
220
0
230
1.0
 0
LINE
 8
TOOL_0
 5
1F
 10
1061.5
 20
2551.499
 30
0
 11
1054.429
 21
2558.57
 31
0
 0
LINE
 8
TOOL_0
 5
20
 10
1054.429
 20
2558.57
 30
0
 11
636.5
 21
2316.499
 31
0
 0
LINE
 8
TOOL_0
 5
21
 10
636.5
 20
2316.499
 30
0
 11
666.5
 21
2316.499
 31
0
 0
LINE
 8
TOOL_0
 5
22
 10
666.5
 20
2316.499
 30
0
 11
666.5
 21
2346.499
 31
0
 0
ARC
 8
TOOL_0
 5
23
 10
656.5
 20
2346.499
 30
0
 40
10.0
 50
0
 51
90.0
210
0
220
0
230
1.0
 0
LINE
 8
TOOL_0
 5
24
 10
656.5
 20
2356.499
 30
0
 11
476.5
 21
2356.499
 31
0
 0
ARC
 8
TOOL_0
 5
25
 10
476.5
 20
2346.499
 30
0
 40
10.0
 50
90.0
 51
180.0
210
0
220
0
230
1.0
 0
LINE
 8
TOOL_0
 5
26
 10
466.5
 20
2346.499
 30
0
 11
466.5
 21
2286.499
 31
0
 0
ARC
 8
TOOL_0
 5
27
 10
476.5
 20
2286.499
 30
0
 40
10.0
 50
180.0
 51
270.0
210
0
220
0
230
1.0
 0
LINE
 8
TOOL_0
 5
28
 10
476.5
 20
2276.499
 30
0
 11
656.5
 21
2276.499
 31
0
 0
ARC
 8
TOOL_0
 5
29
 10
656.5
 20
2286.499
 30
0
 40
10.0
 50
270.0
 51
0
210
0
220
0
230
1.0
 0
LINE
 8
TOOL_0
 5
2A
 10
666.5
 20
2286.499
 30
0
 11
666.5
 21
2316.499
 31
0
 0
LINE
 8
TOOL_0
 5
2B
 10
666.5
 20
2316.499
 30
0
 11
659.429
 21
2323.57
 31
0
 0
LINE
 8
TOOL_0
 5
2C
 10
659.429
 20
2323.57
 30
0
 11
1044.5
 21
1906.499
 31
0
 0
LINE
 8
TOOL_0
 5
2D
 10
1044.5
 20
1906.499
 30
0
 11
1074.5
 21
1906.499
 31
0
 0
ARC
 8
TOOL_0
 5
2E
 10
1054.5
 20
1906.499
 30
0
 40
20.0
 50
0
 51
66.867990902554
210
0
220
0
230
1.0
 0
LINE
 8
TOOL_0
 5
2F
 10
1062.357
 20
1924.891
 30
0
 11
1038.678
 21
1935.007
 31
0
 0
ARC
 8
TOOL_0
 5
30
 10
1026.499
 20
1906.321
 30
0
 40
31.164316726025
 50
66.9957430162
 51
113.002564662372
210
0
220
0
230
1.0
 0
LINE
 8
TOOL_0
 5
31
 10
1014.321
 20
1935.007
 30
0
 11
990.642
 21
1924.891
 31
0
 0
ARC
 8
TOOL_0
 5
32
 10
998.499
 20
1906.499
 30
0
 40
19.999952824944
 50
113.132009097445
 51
246.867990902554
210
0
220
0
230
1.0
 0
LINE
 8
TOOL_0
 5
33
 10
990.642
 20
1888.107
 30
0
 11
1014.321
 21
1877.991
 31
0
 0
ARC
 8
TOOL_0
 5
34
 10
1026.5
 20
1906.677
 30
0
 40
31.164316726025
 50
246.995743016199
 51
293.002564662372
210
0
220
0
230
1.0
 0
LINE
 8
TOOL_0
 5
35
 10
1038.678
 20
1877.991
 30
0
 11
1062.357
 21
1888.107
 31
0
 0
ARC
 8
TOOL_0
 5
36
 10
1054.5
 20
1906.499
 30
0
 40
19.999952824944
 50
293.132009097446
 51
0
210
0
220
0
230
1.0
 0
LINE
 8
TOOL_0
 5
37
 10
1074.5
 20
1906.499
 30
0
 11
1067.429
 21
1913.57
 31
0
 0
LINE
 8
TOOL_0
 5
38
 10
1067.429
 20
1913.57
 30
0
 11
366.5
 21
98.499
 31
0
 0
LINE
 8
TOOL_0
 5
39
 10
366.5
 20
98.499
 30
0
 11
396.5
 21
98.499
 31
0
 0
LINE
 8
TOOL_0
 5
3A
 10
396.5
 20
98.499
 30
0
 11
396.5
 21
128.499
 31
0
 0
ARC
 8
TOOL_0
 5
3B
 10
366.5
 20
128.499
 30
0
 40
30.0
 50
0
 51
90.0
210
0
220
0
230
1.0
 0
LINE
 8
TOOL_0
 5
3C
 10
366.5
 20
158.499
 30
0
 11
296.5
 21
158.499
 31
0
 0
ARC
 8
TOOL_0
 5
3D
 10
296.5
 20
128.499
 30
0
 40
30.0
 50
90.0
 51
180.0
210
0
220
0
230
1.0
 0
LINE
 8
TOOL_0
 5
3E
 10
266.5
 20
128.499
 30
0
 11
266.5
 21
68.499
 31
0
 0
ARC
 8
TOOL_0
 5
3F
 10
276.5
 20
68.499
 30
0
 40
10.0
 50
180.0
 51
270.0
210
0
220
0
230
1.0
 0
LINE
 8
TOOL_0
 5
40
 10
276.5
 20
58.499
 30
0
 11
386.5
 21
58.499
 31
0
 0
ARC
 8
TOOL_0
 5
41
 10
386.5
 20
68.499
 30
0
 40
10.0
 50
270.0
 51
0
210
0
220
0
230
1.0
 0
LINE
 8
TOOL_0
 5
42
 10
396.5
 20
68.499
 30
0
 11
396.5
 21
98.499
 31
0
 0
LINE
 8
TOOL_0
 5
43
 10
396.5
 20
98.499
 30
0
 11
389.429
 21
105.57
 31
0
 0
LINE
 8
TOOL_0
 5
44
 10
389.429
 20
105.57
 30
0
 11
446.5
 21
218.499
 31
0
 0
LINE
 8
TOOL_0
 5
45
 10
446.5
 20
218.499
 30
0
 11
476.5
 21
218.499
 31
0
 0
LINE
 8
TOOL_0
 5
46
 10
476.5
 20
218.499
 30
0
 11
476.5
 21
248.499
 31
0
 0
ARC
 8
TOOL_0
 5
47
 10
456.5
 20
248.499
 30
0
 40
20.0
 50
0
 51
90.0
210
0
220
0
230
1.0
 0
LINE
 8
TOOL_0
 5
48
 10
456.5
 20
268.499
 30
0
 11
396.5
 21
268.499
 31
0
 0
ARC
 8
TOOL_0
 5
49
 10
396.5
 20
248.499
 30
0
 40
20.0
 50
90.0
 51
180.0
210
0
220
0
230
1.0
 0
LINE
 8
TOOL_0
 5
4A
 10
376.5
 20
248.499
 30
0
 11
376.5
 21
188.499
 31
0
 0
ARC
 8
TOOL_0
 5
4B
 10
396.5
 20
188.499
 30
0
 40
20.0
 50
180.0
 51
270.0
210
0
220
0
230
1.0
 0
LINE
 8
TOOL_0
 5
4C
 10
396.5
 20
168.499
 30
0
 11
456.5
 21
168.499
 31
0
 0
ARC
 8
TOOL_0
 5
4D
 10
456.5
 20
188.499
 30
0
 40
20.0
 50
270.0
 51
0
210
0
220
0
230
1.0
 0
LINE
 8
TOOL_0
 5
4E
 10
476.5
 20
188.499
 30
0
 11
476.5
 21
218.499
 31
0
 0
LINE
 8
TOOL_0
 5
4F
 10
476.5
 20
218.499
 30
0
 11
469.429
 21
225.57
 31
0
 0
LINE
 8
TOOL_0
 5
50
 10
469.429
 20
225.57
 30
0
 11
1441.5
 21
191.499
 31
0
 0
LINE
 8
TOOL_0
 5
51
 10
1441.5
 20
191.499
 30
0
 11
1471.5
 21
191.499
 31
0
 0
LINE
 8
TOOL_0
 5
52
 10
1471.5
 20
191.499
 30
0
 11
1471.5
 21
221.499
 31
0
 0
ARC
 8
TOOL_0
 5
53
 10
1451.5
 20
221.499
 30
0
 40
20.0
 50
0
 51
90.0
210
0
220
0
230
1.0
 0
LINE
 8
TOOL_0
 5
54
 10
1451.5
 20
241.499
 30
0
 11
1391.5
 21
241.499
 31
0
 0
ARC
 8
TOOL_0
 5
55
 10
1391.5
 20
221.499
 30
0
 40
20.0
 50
90.0
 51
180.0
210
0
220
0
230
1.0
 0
LINE
 8
TOOL_0
 5
56
 10
1371.5
 20
221.499
 30
0
 11
1371.5
 21
161.499
 31
0
 0
ARC
 8
TOOL_0
 5
57
 10
1391.5
 20
161.499
 30
0
 40
20.0
 50
180.0
 51
270.0
210
0
220
0
230
1.0
 0
LINE
 8
TOOL_0
 5
58
 10
1391.5
 20
141.499
 30
0
 11
1451.5
 21
141.499
 31
0
 0
ARC
 8
TOOL_0
 5
59
 10
1451.5
 20
161.499
 30
0
 40
20.0
 50
270.0
 51
0
210
0
220
0
230
1.0
 0
LINE
 8
TOOL_0
 5
5A
 10
1471.5
 20
161.499
 30
0
 11
1471.5
 21
191.499
 31
0
 0
LINE
 8
TOOL_0
 5
5B
 10
1471.5
 20
191.499
 30
0
 11
1464.429
 21
198.57
 31
0
 0
LINE
 8
TOOL_0
 5
5C
 10
1464.429
 20
198.57
 30
0
 11
1506.414
 21
5.499
 31
0
 0
LINE
 8
TOOL_0
 5
5D
 10
1506.414
 20
5.499
 30
0
 11
1488.914
 21
5.499
 31
0
 0
LINE
 8
TOOL_0
 5
5E
 10
1488.914
 20
5.499
 30
0
 11
12.5
 21
5.499
 31
0
 0
ARC
 8
TOOL_0
 5
5F
 10
12.5
 20
12.499
 30
0
 40
7.0
 50
180.0
 51
270.0
210
0
220
0
230
1.0
 0
LINE
 8
TOOL_0
 5
60
 10
5.5
 20
12.499
 30
0
 11
5.5
 21
2632.499
 31
0
 0
LINE
 8
TOOL_0
 5
61
 10
5.5
 20
2632.499
 30
0
 11
1623.5
 21
2632.499
 31
0
 0
ARC
 8
TOOL_0
 5
62
 10
1623.5
 20
2625.499
 30
0
 40
7.0
 50
0
 51
90.0
210
0
220
0
230
1.0
 0
LINE
 8
TOOL_0
 5
63
 10
1630.5
 20
2625.499
 30
0
 11
1630.5
 21
2151.499
 31
0
 0
LINE
 8
TOOL_0
 5
64
 10
1630.5
 20
2151.499
 30
0
 11
1482.5
 21
2151.499
 31
0
 0
LINE
 8
TOOL_0
 5
65
 10
1482.5
 20
2151.499
 30
0
 11
1482.5
 21
2186.499
 31
0
 0
ARC
 8
TOOL_0
 5
66
 10
1461.5
 20
2186.499
 30
0
 40
21.0
 50
0
 51
147.688053502426
210
0
220
0
230
1.0
 0
LINE
 8
TOOL_0
 5
67
 10
1443.752
 20
2197.724
 30
0
 11
1410.442
 21
2145.055
 31
0
 0
ARC
 8
TOOL_0
 5
68
 10
1426.5
 20
2134.899
 30
0
 40
19.000097368172
 50
147.688392683242
 51
243.424159673344
210
0
220
0
230
1.0
 0
LINE
 8
TOOL_0
 5
69
 10
1418.0
 20
2117.907
 30
0
 11
1418.0
 21
1572.5
 31
0
 0
LINE
 8
TOOL_0
 5
6A
 10
1418.0
 20
1572.5
 30
0
 11
1380.899
 21
1572.5
 31
0
 0
ARC
 8
TOOL_0
 5
6B
 10
1376.0
 20
1573.5
 30
0
 40
5.000020099959
 50
348.463087982614
 51
90.0
210
0
220
0
230
1.0
 0
LINE
 8
TOOL_0
 5
6C
 10
1376.0
 20
1578.5
 30
0
 11
1331.5
 21
1578.5
 31
0
 0
ARC
 8
TOOL_0
 5
6D
 10
1331.5
 20
1379.5
 30
0
 40
199.0
 50
90.0
 51
180.0
210
0
220
0
230
1.0
 0
LINE
 8
TOOL_0
 5
6E
 10
1132.5
 20
1379.5
 30
0
 11
1132.5
 21
946.5
 31
0
 0
ARC
 8
TOOL_0
 5
6F
 10
1331.5
 20
946.5
 30
0
 40
199.0
 50
180.0
 51
270.0
210
0
220
0
230
1.0
 0
LINE
 8
TOOL_0
 5
70
 10
1331.5
 20
747.5
 30
0
 11
1488.914
 21
747.5
 31
0
 0
LINE
 8
TOOL_0
 5
71
 10
1488.914
 20
747.5
 30
0
 11
1497.5
 21
738.914
 31
0
 0
LINE
 8
TOOL_0
 5
72
 10
1497.5
 20
738.914
 30
0
 11
1497.5
 21
14.086
 31
0
 0
LINE
 8
TOOL_0
 5
73
 10
1497.5
 20
14.086
 30
0
 11
1488.914
 21
5.5
 31
0
 0
LINE
 8
TOOL_0
 5
74
 10
1488.914
 20
5.5
 30
0
 11
1487.146
 21
3.732
 31
0
 0
LINE
 8
TOOL_0
 5
75
 10
1487.146
 20
3.732
 30
0
 11
1735.764
 21
2446.5
 31
0
 0
LINE
 8
TOOL_0
 5
76
 10
1735.764
 20
2446.5
 30
0
 11
1765.764
 21
2446.5
 31
0
 0
LINE
 8
TOOL_0
 5
77
 10
1765.764
 20
2446.5
 30
0
 11
1765.764
 21
2476.5
 31
0
 0
ARC
 8
TOOL_0
 5
78
 10
1745.764
 20
2476.5
 30
0
 40
20.0
 50
0
 51
90.0
210
0
220
0
230
1.0
 0
LINE
 8
TOOL_0
 5
79
 10
1745.764
 20
2496.5
 30
0
 11
1685.764
 21
2496.5
 31
0
 0
ARC
 8
TOOL_0
 5
7A
 10
1685.764
 20
2476.5
 30
0
 40
20.0
 50
90.0
 51
180.0
210
0
220
0
230
1.0
 0
LINE
 8
TOOL_0
 5
7B
 10
1665.764
 20
2476.5
 30
0
 11
1665.764
 21
2416.5
 31
0
 0
ARC
 8
TOOL_0
 5
7C
 10
1685.764
 20
2416.5
 30
0
 40
20.0
 50
180.0
 51
270.0
210
0
220
0
230
1.0
 0
LINE
 8
TOOL_0
 5
7D
 10
1685.764
 20
2396.5
 30
0
 11
1745.764
 21
2396.5
 31
0
 0
ARC
 8
TOOL_0
 5
7E
 10
1745.764
 20
2416.5
 30
0
 40
20.0
 50
270.0
 51
0
210
0
220
0
230
1.0
 0
LINE
 8
TOOL_0
 5
7F
 10
1765.764
 20
2416.5
 30
0
 11
1765.764
 21
2446.5
 31
0
 0
LINE
 8
TOOL_0
 5
80
 10
1765.764
 20
2446.5
 30
0
 11
1758.693
 21
2453.571
 31
0
 0
LINE
 8
TOOL_0
 5
81
 10
1758.693
 20
2453.571
 30
0
 11
2840.764
 21
2539.5
 31
0
 0
LINE
 8
TOOL_0
 5
82
 10
2840.764
 20
2539.5
 30
0
 11
2870.764
 21
2539.5
 31
0
 0
LINE
 8
TOOL_0
 5
83
 10
2870.764
 20
2539.5
 30
0
 11
2870.764
 21
2569.5
 31
0
 0
ARC
 8
TOOL_0
 5
84
 10
2860.764
 20
2569.5
 30
0
 40
10.0
 50
0
 51
90.0
210
0
220
0
230
1.0
 0
LINE
 8
TOOL_0
 5
85
 10
2860.764
 20
2579.5
 30
0
 11
2750.764
 21
2579.5
 31
0
 0
ARC
 8
TOOL_0
 5
86
 10
2750.764
 20
2569.5
 30
0
 40
10.0
 50
90.0
 51
180.0
210
0
220
0
230
1.0
 0
LINE
 8
TOOL_0
 5
87
 10
2740.764
 20
2569.5
 30
0
 11
2740.764
 21
2509.5
 31
0
 0
ARC
 8
TOOL_0
 5
88
 10
2770.764
 20
2509.5
 30
0
 40
30.0
 50
180.0
 51
270.0
210
0
220
0
230
1.0
 0
LINE
 8
TOOL_0
 5
89
 10
2770.764
 20
2479.5
 30
0
 11
2840.764
 21
2479.5
 31
0
 0
ARC
 8
TOOL_0
 5
8A
 10
2840.764
 20
2509.5
 30
0
 40
30.0
 50
270.0
 51
0
210
0
220
0
230
1.0
 0
LINE
 8
TOOL_0
 5
8B
 10
2870.764
 20
2509.5
 30
0
 11
2870.764
 21
2539.5
 31
0
 0
LINE
 8
TOOL_0
 5
8C
 10
2870.764
 20
2539.5
 30
0
 11
2863.693
 21
2546.571
 31
0
 0
LINE
 8
TOOL_0
 5
8D
 10
2863.693
 20
2546.571
 30
0
 11
2730.765
 21
2419.5
 31
0
 0
LINE
 8
TOOL_0
 5
8E
 10
2730.765
 20
2419.5
 30
0
 11
2760.765
 21
2419.5
 31
0
 0
LINE
 8
TOOL_0
 5
8F
 10
2760.765
 20
2419.5
 30
0
 11
2760.765
 21
2449.5
 31
0
 0
ARC
 8
TOOL_0
 5
90
 10
2740.765
 20
2449.5
 30
0
 40
20.0
 50
0
 51
90.0
210
0
220
0
230
1.0
 0
LINE
 8
TOOL_0
 5
91
 10
2740.765
 20
2469.5
 30
0
 11
2680.765
 21
2469.5
 31
0
 0
ARC
 8
TOOL_0
 5
92
 10
2680.765
 20
2449.5
 30
0
 40
20.0
 50
90.0
 51
180.0
210
0
220
0
230
1.0
 0
LINE
 8
TOOL_0
 5
93
 10
2660.765
 20
2449.5
 30
0
 11
2660.765
 21
2389.5
 31
0
 0
ARC
 8
TOOL_0
 5
94
 10
2680.765
 20
2389.5
 30
0
 40
20.0
 50
180.0
 51
270.0
210
0
220
0
230
1.0
 0
LINE
 8
TOOL_0
 5
95
 10
2680.765
 20
2369.5
 30
0
 11
2740.765
 21
2369.5
 31
0
 0
ARC
 8
TOOL_0
 5
96
 10
2740.765
 20
2389.5
 30
0
 40
20.0
 50
270.0
 51
0
210
0
220
0
230
1.0
 0
LINE
 8
TOOL_0
 5
97
 10
2760.765
 20
2389.5
 30
0
 11
2760.765
 21
2419.5
 31
0
 0
LINE
 8
TOOL_0
 5
98
 10
2760.765
 20
2419.5
 30
0
 11
2753.694
 21
2426.571
 31
0
 0
LINE
 8
TOOL_0
 5
99
 10
2753.694
 20
2426.571
 30
0
 11
2640.765
 21
321.5
 31
0
 0
LINE
 8
TOOL_0
 5
9A
 10
2640.765
 20
321.5
 30
0
 11
2670.765
 21
321.5
 31
0
 0
LINE
 8
TOOL_0
 5
9B
 10
2670.765
 20
321.5
 30
0
 11
2670.765
 21
351.5
 31
0
 0
ARC
 8
TOOL_0
 5
9C
 10
2660.765
 20
351.5
 30
0
 40
10.0
 50
0
 51
90.0
210
0
220
0
230
1.0
 0
LINE
 8
TOOL_0
 5
9D
 10
2660.765
 20
361.5
 30
0
 11
2480.765
 21
361.5
 31
0
 0
ARC
 8
TOOL_0
 5
9E
 10
2480.765
 20
351.5
 30
0
 40
10.0
 50
90.0
 51
180.0
210
0
220
0
230
1.0
 0
LINE
 8
TOOL_0
 5
9F
 10
2470.765
 20
351.5
 30
0
 11
2470.765
 21
291.5
 31
0
 0
ARC
 8
TOOL_0
 5
A0
 10
2480.765
 20
291.5
 30
0
 40
10.0
 50
180.0
 51
270.0
210
0
220
0
230
1.0
 0
LINE
 8
TOOL_0
 5
A1
 10
2480.765
 20
281.5
 30
0
 11
2660.765
 21
281.5
 31
0
 0
ARC
 8
TOOL_0
 5
A2
 10
2660.765
 20
291.5
 30
0
 40
10.0
 50
270.0
 51
0
210
0
220
0
230
1.0
 0
LINE
 8
TOOL_0
 5
A3
 10
2670.765
 20
291.5
 30
0
 11
2670.765
 21
321.5
 31
0
 0
LINE
 8
TOOL_0
 5
A4
 10
2670.765
 20
321.5
 30
0
 11
2663.694
 21
328.571
 31
0
 0
LINE
 8
TOOL_0
 5
A5
 10
2663.694
 20
328.571
 30
0
 11
2115.765
 21
86.5
 31
0
 0
LINE
 8
TOOL_0
 5
A6
 10
2115.765
 20
86.5
 30
0
 11
2145.765
 21
86.5
 31
0
 0
ARC
 8
TOOL_0
 5
A7
 10
2110.765
 20
86.5
 30
0
 40
35.0
 50
0
 51
180.0
210
0
220
0
230
1.0
 0
ARC
 8
TOOL_0
 5
A8
 10
2110.765
 20
86.5
 30
0
 40
35.0
 50
180.0
 51
0
210
0
220
0
230
1.0
 0
LINE
 8
TOOL_0
 5
A9
 10
2145.765
 20
86.5
 30
0
 11
2138.694
 21
93.571
 31
0
 0
LINE
 8
TOOL_0
 5
AA
 10
2138.694
 20
93.571
 30
0
 11
2128.765
 21
731.5
 31
0
 0
LINE
 8
TOOL_0
 5
AB
 10
2128.765
 20
731.5
 30
0
 11
2158.765
 21
731.5
 31
0
 0
ARC
 8
TOOL_0
 5
AC
 10
2138.765
 20
731.5
 30
0
 40
20.0
 50
0
 51
66.867990902554
210
0
220
0
230
1.0
 0
LINE
 8
TOOL_0
 5
AD
 10
2146.622
 20
749.892
 30
0
 11
2122.943
 21
760.008
 31
0
 0
ARC
 8
TOOL_0
 5
AE
 10
2110.764
 20
731.322
 30
0
 40
31.164316726025
 50
66.9957430162
 51
113.002564662372
210
0
220
0
230
1.0
 0
LINE
 8
TOOL_0
 5
AF
 10
2098.586
 20
760.008
 30
0
 11
2074.907
 21
749.892
 31
0
 0
ARC
 8
TOOL_0
 5
B0
 10
2082.764
 20
731.5
 30
0
 40
19.999952824944
 50
113.132009097445
 51
246.867990902554
210
0
220
0
230
1.0
 0
LINE
 8
TOOL_0
 5
B1
 10
2074.907
 20
713.108
 30
0
 11
2098.586
 21
702.992
 31
0
 0
ARC
 8
TOOL_0
 5
B2
 10
2110.765
 20
731.678
 30
0
 40
31.164316726025
 50
246.9957430162
 51
293.002564662372
210
0
220
0
230
1.0
 0
LINE
 8
TOOL_0
 5
B3
 10
2122.943
 20
702.992
 30
0
 11
2146.622
 21
713.108
 31
0
 0
ARC
 8
TOOL_0
 5
B4
 10
2138.765
 20
731.5
 30
0
 40
19.999952824944
 50
293.132009097446
 51
0
210
0
220
0
230
1.0
 0
LINE
 8
TOOL_0
 5
B5
 10
2158.765
 20
731.5
 30
0
 11
2151.694
 21
738.571
 31
0
 0
LINE
 8
TOOL_0
 5
B6
 10
2151.694
 20
738.571
 30
0
 11
1556.016
 21
511.249
 31
0
 0
LINE
 8
TOOL_0
 5
B7
 10
1556.016
 20
511.249
 30
0
 11
1580.765
 21
486.5
 31
0
 0
LINE
 8
TOOL_0
 5
B8
 10
1580.765
 20
486.5
 30
0
 11
1654.765
 21
486.5
 31
0
 0
LINE
 8
TOOL_0
 5
B9
 10
1654.765
 20
486.5
 30
0
 11
1654.765
 21
451.5
 31
0
 0
ARC
 8
TOOL_0
 5
BA
 10
1675.765
 20
451.5
 30
0
 40
21.0
 50
180.0
 51
327.688053502427
210
0
220
0
230
1.0
 0
LINE
 8
TOOL_0
 5
BB
 10
1693.513
 20
440.275
 30
0
 11
1726.823
 21
492.944
 31
0
 0
ARC
 8
TOOL_0
 5
BC
 10
1710.765
 20
503.1
 30
0
 40
19.000097368172
 50
327.688392683242
 51
63.424159673344
210
0
220
0
230
1.0
 0
LINE
 8
TOOL_0
 5
BD
 10
1719.265
 20
520.092
 30
0
 11
1719.265
 21
1065.499
 31
0
 0
LINE
 8
TOOL_0
 5
BE
 10
1719.265
 20
1065.499
 30
0
 11
1756.366
 21
1065.499
 31
0
 0
ARC
 8
TOOL_0
 5
BF
 10
1761.265
 20
1064.499
 30
0
 40
5.000020099959
 50
168.463087982614
 51
270.0
210
0
220
0
230
1.0
 0
LINE
 8
TOOL_0
 5
C0
 10
1761.265
 20
1059.499
 30
0
 11
1805.765
 21
1059.499
 31
0
 0
ARC
 8
TOOL_0
 5
C1
 10
1805.765
 20
1258.499
 30
0
 40
199.0
 50
270.0
 51
359.99971208151
210
0
220
0
230
1.0
 0
LINE
 8
TOOL_0
 5
C2
 10
2004.765
 20
1258.498
 30
0
 11
2004.765
 21
1691.499
 31
0
 0
ARC
 8
TOOL_0
 5
C3
 10
1805.765
 20
1691.499
 30
0
 40
199.0
 50
0
 51
90.0
210
0
220
0
230
1.0
 0
LINE
 8
TOOL_0
 5
C4
 10
1805.765
 20
1890.499
 30
0
 11
1648.351
 21
1890.499
 31
0
 0
LINE
 8
TOOL_0
 5
C5
 10
1648.351
 20
1890.499
 30
0
 11
1639.765
 21
1899.085
 31
0
 0
LINE
 8
TOOL_0
 5
C6
 10
1639.765
 20
1899.085
 30
0
 11
1639.765
 21
2623.913
 31
0
 0
LINE
 8
TOOL_0
 5
C7
 10
1639.765
 20
2623.913
 30
0
 11
1648.351
 21
2632.499
 31
0
 0
LINE
 8
TOOL_0
 5
C8
 10
1648.351
 20
2632.499
 30
0
 11
3124.765
 21
2632.499
 31
0
 0
ARC
 8
TOOL_0
 5
C9
 10
3124.765
 20
2625.499
 30
0
 40
7.0
 50
0
 51
90.0
210
0
220
0
230
1.0
 0
LINE
 8
TOOL_0
 5
CA
 10
3131.765
 20
2625.499
 30
0
 11
3131.765
 21
5.499
 31
0
 0
LINE
 8
TOOL_0
 5
CB
 10
3131.765
 20
5.499
 30
0
 11
1513.765
 21
5.499
 31
0
 0
ARC
 8
TOOL_0
 5
CC
 10
1513.765
 20
12.499
 30
0
 40
7.0
 50
180.0
 51
270.0
210
0
220
0
230
1.0
 0
LINE
 8
TOOL_0
 5
CD
 10
1506.765
 20
12.499
 30
0
 11
1506.765
 21
486.499
 31
0
 0
LINE
 8
TOOL_0
 5
CE
 10
1506.765
 20
486.499
 30
0
 11
1580.765
 21
486.499
 31
0
 0
LINE
 8
TOOL_0
 5
CF
 10
1580.765
 20
486.499
 30
0
 11
1584.301
 21
490.035
 31
0
 0
LINE
 8
TOOL_0
 5
D0
 10
1584.301
 20
490.035
 30
0
 11
4831.511
 21
947.107
 31
0
 0
LINE
 8
TOOL_0
 5
D1
 10
4831.511
 20
947.107
 30
0
 11
4796.537
 21
948.45
 31
0
 0
LINE
 8
TOOL_0
 5
D2
 10
4796.537
 20
948.45
 30
0
 11
4750.226
 21
905.565
 31
0
 0
ARC
 8
TOOL_0
 5
D3
 10
4702.325
 20
957.293
 30
0
 40
70.500296346895
 50
270.0
 51
312.800206794401
210
0
220
0
230
1.0
 0
LINE
 8
TOOL_0
 5
D4
 10
4702.325
 20
886.793
 30
0
 11
4687.191
 21
886.793
 31
0
 0
ARC
 8
TOOL_0
 5
D5
 10
4687.191
 20
957.293
 30
0
 40
70.5
 50
227.199793205599
 51
270.0
210
0
220
0
230
1.0
 0
LINE
 8
TOOL_0
 5
D6
 10
4639.29
 20
905.565
 30
0
 11
4592.979
 21
948.449
 31
0
 0
ARC
 8
TOOL_0
 5
D7
 10
4606.908
 20
963.49
 30
0
 40
20.499968829245
 50
199.920785441378
 51
227.19819273391
210
0
220
0
230
1.0
 0
LINE
 8
TOOL_0
 5
D8
 10
4587.634
 20
956.505
 30
0
 11
4555.28
 21
1045.768
 31
0
 0
ARC
 8
TOOL_0
 5
D9
 10
4602.758
 20
1062.976
 30
0
 40
50.50025493005
 50
179.998865430109
 51
199.922620719172
210
0
220
0
230
1.0
 0
LINE
 8
TOOL_0
 5
DA
 10
4552.258
 20
1062.977
 30
0
 11
4552.258
 21
1394.002
 31
0
 0
ARC
 8
TOOL_0
 5
DB
 10
4602.758
 20
1394.002
 30
0
 40
50.5
 50
139.202791978101
 51
180.0
210
0
220
0
230
1.0
 0
LINE
 8
TOOL_0
 5
DC
 10
4564.528
 20
1426.998
 30
0
 11
4630.731
 21
1503.702
 31
0
 0
ARC
 8
TOOL_0
 5
DD
 10
4593.258
 20
1536.045
 30
0
 40
49.500458361514
 50
319.202476090436
 51
359.998842509505
210
0
220
0
230
1.0
 0
LINE
 8
TOOL_0
 5
DE
 10
4642.758
 20
1536.044
 30
0
 11
4642.758
 21
1834.292
 31
0
 0
ARC
 8
TOOL_0
 5
DF
 10
4653.258
 20
1834.292
 30
0
 40
10.5
 50
90.0
 51
180.0
210
0
220
0
230
1.0
 0
LINE
 8
TOOL_0
 5
E0
 10
4653.258
 20
1844.792
 30
0
 11
4736.258
 21
1844.792
 31
0
 0
ARC
 8
TOOL_0
 5
E1
 10
4736.258
 20
1834.292
 30
0
 40
10.5
 50
0
 51
90.0
210
0
220
0
230
1.0
 0
LINE
 8
TOOL_0
 5
E2
 10
4746.758
 20
1834.292
 30
0
 11
4746.758
 21
1536.044
 31
0
 0
ARC
 8
TOOL_0
 5
E3
 10
4796.258
 20
1536.044
 30
0
 40
49.5
 50
180.0
 51
220.797523909564
210
0
220
0
230
1.0
 0
LINE
 8
TOOL_0
 5
E4
 10
4758.785
 20
1503.701
 30
0
 11
4824.988
 21
1426.997
 31
0
 0
ARC
 8
TOOL_0
 5
E5
 10
4786.758
 20
1394.001
 30
0
 40
50.500187286781
 50
0
 51
40.797208021899
210
0
220
0
230
1.0
 0
LINE
 8
TOOL_0
 5
E6
 10
4837.258
 20
1394.001
 30
0
 11
4837.258
 21
1062.975
 31
0
 0
ARC
 8
TOOL_0
 5
E7
 10
4786.758
 20
1062.975
 30
0
 40
50.5
 50
340.077379280828
 51
0
210
0
220
0
230
1.0
 0
LINE
 8
TOOL_0
 5
E8
 10
4834.236
 20
1045.767
 30
0
 11
4801.882
 21
956.504
 31
0
 0
ARC
 8
TOOL_0
 5
E9
 10
4782.609
 20
963.49
 30
0
 40
20.500066463307
 50
312.797857570943
 51
340.075634603524
210
0
220
0
230
1.0
 0
LINE
 8
TOOL_0
 5
EA
 10
4796.537
 20
948.448
 30
0
 11
4796.345
 21
943.452
 31
0
 0
LINE
 8
TOOL_0
 5
EB
 10
4796.345
 20
943.452
 30
0
 11
4167.034
 21
2551.498
 31
0
 0
LINE
 8
TOOL_0
 5
EC
 10
4167.034
 20
2551.498
 30
0
 11
4197.034
 21
2551.498
 31
0
 0
ARC
 8
TOOL_0
 5
ED
 10
4162.034
 20
2551.498
 30
0
 40
35.0
 50
0
 51
180.0
210
0
220
0
230
1.0
 0
ARC
 8
TOOL_0
 5
EE
 10
4162.034
 20
2551.498
 30
0
 40
35.0
 50
180.0
 51
0
210
0
220
0
230
1.0
 0
LINE
 8
TOOL_0
 5
EF
 10
4197.034
 20
2551.498
 30
0
 11
4189.963
 21
2558.569
 31
0
 0
LINE
 8
TOOL_0
 5
F0
 10
4189.963
 20
2558.569
 30
0
 11
3772.034
 21
2316.498
 31
0
 0
LINE
 8
TOOL_0
 5
F1
 10
3772.034
 20
2316.498
 30
0
 11
3802.034
 21
2316.498
 31
0
 0
LINE
 8
TOOL_0
 5
F2
 10
3802.034
 20
2316.498
 30
0
 11
3802.034
 21
2346.498
 31
0
 0
ARC
 8
TOOL_0
 5
F3
 10
3792.034
 20
2346.498
 30
0
 40
10.0
 50
0
 51
90.0
210
0
220
0
230
1.0
 0
LINE
 8
TOOL_0
 5
F4
 10
3792.034
 20
2356.498
 30
0
 11
3612.034
 21
2356.498
 31
0
 0
ARC
 8
TOOL_0
 5
F5
 10
3612.034
 20
2346.498
 30
0
 40
10.0
 50
90.0
 51
180.0
210
0
220
0
230
1.0
 0
LINE
 8
TOOL_0
 5
F6
 10
3602.034
 20
2346.498
 30
0
 11
3602.034
 21
2286.498
 31
0
 0
ARC
 8
TOOL_0
 5
F7
 10
3612.034
 20
2286.498
 30
0
 40
10.0
 50
180.0
 51
270.0
210
0
220
0
230
1.0
 0
LINE
 8
TOOL_0
 5
F8
 10
3612.034
 20
2276.498
 30
0
 11
3792.034
 21
2276.498
 31
0
 0
ARC
 8
TOOL_0
 5
F9
 10
3792.034
 20
2286.498
 30
0
 40
10.0
 50
270.0
 51
0
210
0
220
0
230
1.0
 0
LINE
 8
TOOL_0
 5
FA
 10
3802.034
 20
2286.498
 30
0
 11
3802.034
 21
2316.498
 31
0
 0
LINE
 8
TOOL_0
 5
FB
 10
3802.034
 20
2316.498
 30
0
 11
3794.963
 21
2323.569
 31
0
 0
LINE
 8
TOOL_0
 5
FC
 10
3794.963
 20
2323.569
 30
0
 11
4180.034
 21
1906.498
 31
0
 0
LINE
 8
TOOL_0
 5
FD
 10
4180.034
 20
1906.498
 30
0
 11
4210.034
 21
1906.498
 31
0
 0
ARC
 8
TOOL_0
 5
FE
 10
4190.034
 20
1906.498
 30
0
 40
20.0
 50
0
 51
66.867990902554
210
0
220
0
230
1.0
 0
LINE
 8
TOOL_0
 5
FF
 10
4197.891
 20
1924.89
 30
0
 11
4174.212
 21
1935.006
 31
0
 0
ARC
 8
TOOL_0
 5
100
 10
4162.033
 20
1906.32
 30
0
 40
31.164316726025
 50
66.9957430162
 51
113.002564662372
210
0
220
0
230
1.0
 0
LINE
 8
TOOL_0
 5
101
 10
4149.855
 20
1935.006
 30
0
 11
4126.176
 21
1924.89
 31
0
 0
ARC
 8
TOOL_0
 5
102
 10
4134.033
 20
1906.498
 30
0
 40
19.999952824944
 50
113.132009097445
 51
246.867990902554
210
0
220
0
230
1.0
 0
LINE
 8
TOOL_0
 5
103
 10
4126.176
 20
1888.106
 30
0
 11
4149.855
 21
1877.99
 31
0
 0
ARC
 8
TOOL_0
 5
104
 10
4162.034
 20
1906.676
 30
0
 40
31.164316726025
 50
246.995743016199
 51
293.002564662372
210
0
220
0
230
1.0
 0
LINE
 8
TOOL_0
 5
105
 10
4174.212
 20
1877.99
 30
0
 11
4197.891
 21
1888.106
 31
0
 0
ARC
 8
TOOL_0
 5
106
 10
4190.034
 20
1906.498
 30
0
 40
19.999952824944
 50
293.132009097446
 51
0
210
0
220
0
230
1.0
 0
LINE
 8
TOOL_0
 5
107
 10
4210.034
 20
1906.498
 30
0
 11
4202.963
 21
1913.569
 31
0
 0
LINE
 8
TOOL_0
 5
108
 10
4202.963
 20
1913.569
 30
0
 11
3502.034
 21
98.498
 31
0
 0
LINE
 8
TOOL_0
 5
109
 10
3502.034
 20
98.498
 30
0
 11
3532.034
 21
98.498
 31
0
 0
LINE
 8
TOOL_0
 5
10A
 10
3532.034
 20
98.498
 30
0
 11
3532.034
 21
128.498
 31
0
 0
ARC
 8
TOOL_0
 5
10B
 10
3502.034
 20
128.498
 30
0
 40
30.0
 50
0
 51
90.0
210
0
220
0
230
1.0
 0
LINE
 8
TOOL_0
 5
10C
 10
3502.034
 20
158.498
 30
0
 11
3432.034
 21
158.498
 31
0
 0
ARC
 8
TOOL_0
 5
10D
 10
3432.034
 20
128.498
 30
0
 40
30.0
 50
90.0
 51
180.0
210
0
220
0
230
1.0
 0
LINE
 8
TOOL_0
 5
10E
 10
3402.034
 20
128.498
 30
0
 11
3402.034
 21
68.498
 31
0
 0
ARC
 8
TOOL_0
 5
10F
 10
3412.034
 20
68.498
 30
0
 40
10.0
 50
180.0
 51
270.0
210
0
220
0
230
1.0
 0
LINE
 8
TOOL_0
 5
110
 10
3412.034
 20
58.498
 30
0
 11
3522.034
 21
58.498
 31
0
 0
ARC
 8
TOOL_0
 5
111
 10
3522.034
 20
68.498
 30
0
 40
10.0
 50
270.0
 51
0
210
0
220
0
230
1.0
 0
LINE
 8
TOOL_0
 5
112
 10
3532.034
 20
68.498
 30
0
 11
3532.034
 21
98.498
 31
0
 0
LINE
 8
TOOL_0
 5
113
 10
3532.034
 20
98.498
 30
0
 11
3524.963
 21
105.569
 31
0
 0
LINE
 8
TOOL_0
 5
114
 10
3524.963
 20
105.569
 30
0
 11
3582.034
 21
218.498
 31
0
 0
LINE
 8
TOOL_0
 5
115
 10
3582.034
 20
218.498
 30
0
 11
3612.034
 21
218.498
 31
0
 0
LINE
 8
TOOL_0
 5
116
 10
3612.034
 20
218.498
 30
0
 11
3612.034
 21
248.498
 31
0
 0
ARC
 8
TOOL_0
 5
117
 10
3592.034
 20
248.498
 30
0
 40
20.0
 50
0
 51
90.0
210
0
220
0
230
1.0
 0
LINE
 8
TOOL_0
 5
118
 10
3592.034
 20
268.498
 30
0
 11
3532.034
 21
268.498
 31
0
 0
ARC
 8
TOOL_0
 5
119
 10
3532.034
 20
248.498
 30
0
 40
20.0
 50
90.0
 51
180.0
210
0
220
0
230
1.0
 0
LINE
 8
TOOL_0
 5
11A
 10
3512.034
 20
248.498
 30
0
 11
3512.034
 21
188.498
 31
0
 0
ARC
 8
TOOL_0
 5
11B
 10
3532.034
 20
188.498
 30
0
 40
20.0
 50
180.0
 51
270.0
210
0
220
0
230
1.0
 0
LINE
 8
TOOL_0
 5
11C
 10
3532.034
 20
168.498
 30
0
 11
3592.034
 21
168.498
 31
0
 0
ARC
 8
TOOL_0
 5
11D
 10
3592.034
 20
188.498
 30
0
 40
20.0
 50
270.0
 51
0
210
0
220
0
230
1.0
 0
LINE
 8
TOOL_0
 5
11E
 10
3612.034
 20
188.498
 30
0
 11
3612.034
 21
218.498
 31
0
 0
LINE
 8
TOOL_0
 5
11F
 10
3612.034
 20
218.498
 30
0
 11
3604.963
 21
225.569
 31
0
 0
LINE
 8
TOOL_0
 5
120
 10
3604.963
 20
225.569
 30
0
 11
4577.034
 21
191.498
 31
0
 0
LINE
 8
TOOL_0
 5
121
 10
4577.034
 20
191.498
 30
0
 11
4607.034
 21
191.498
 31
0
 0
LINE
 8
TOOL_0
 5
122
 10
4607.034
 20
191.498
 30
0
 11
4607.034
 21
221.498
 31
0
 0
ARC
 8
TOOL_0
 5
123
 10
4587.034
 20
221.498
 30
0
 40
20.0
 50
0
 51
90.0
210
0
220
0
230
1.0
 0
LINE
 8
TOOL_0
 5
124
 10
4587.034
 20
241.498
 30
0
 11
4527.034
 21
241.498
 31
0
 0
ARC
 8
TOOL_0
 5
125
 10
4527.034
 20
221.498
 30
0
 40
20.0
 50
90.0
 51
180.0
210
0
220
0
230
1.0
 0
LINE
 8
TOOL_0
 5
126
 10
4507.034
 20
221.498
 30
0
 11
4507.034
 21
161.498
 31
0
 0
ARC
 8
TOOL_0
 5
127
 10
4527.034
 20
161.498
 30
0
 40
20.0
 50
180.0
 51
270.0
210
0
220
0
230
1.0
 0
LINE
 8
TOOL_0
 5
128
 10
4527.034
 20
141.498
 30
0
 11
4587.034
 21
141.498
 31
0
 0
ARC
 8
TOOL_0
 5
129
 10
4587.034
 20
161.498
 30
0
 40
20.0
 50
270.0
 51
0
210
0
220
0
230
1.0
 0
LINE
 8
TOOL_0
 5
12A
 10
4607.034
 20
161.498
 30
0
 11
4607.034
 21
191.498
 31
0
 0
LINE
 8
TOOL_0
 5
12B
 10
4607.034
 20
191.498
 30
0
 11
4599.963
 21
198.569
 31
0
 0
LINE
 8
TOOL_0
 5
12C
 10
4599.963
 20
198.569
 30
0
 11
4641.948
 21
5.498
 31
0
 0
LINE
 8
TOOL_0
 5
12D
 10
4641.948
 20
5.498
 30
0
 11
4624.448
 21
5.498
 31
0
 0
LINE
 8
TOOL_0
 5
12E
 10
4624.448
 20
5.498
 30
0
 11
3148.034
 21
5.498
 31
0
 0
ARC
 8
TOOL_0
 5
12F
 10
3148.034
 20
12.498
 30
0
 40
7.0
 50
180.0
 51
270.0
210
0
220
0
230
1.0
 0
LINE
 8
TOOL_0
 5
130
 10
3141.034
 20
12.498
 30
0
 11
3141.034
 21
2632.498
 31
0
 0
LINE
 8
TOOL_0
 5
131
 10
3141.034
 20
2632.498
 30
0
 11
4759.034
 21
2632.498
 31
0
 0
ARC
 8
TOOL_0
 5
132
 10
4759.034
 20
2625.498
 30
0
 40
7.0
 50
0
 51
90.0
210
0
220
0
230
1.0
 0
LINE
 8
TOOL_0
 5
133
 10
4766.034
 20
2625.498
 30
0
 11
4766.034
 21
2151.498
 31
0
 0
LINE
 8
TOOL_0
 5
134
 10
4766.034
 20
2151.498
 30
0
 11
4618.034
 21
2151.498
 31
0
 0
LINE
 8
TOOL_0
 5
135
 10
4618.034
 20
2151.498
 30
0
 11
4618.034
 21
2186.498
 31
0
 0
ARC
 8
TOOL_0
 5
136
 10
4597.034
 20
2186.498
 30
0
 40
21.0
 50
0
 51
147.688053502426
210
0
220
0
230
1.0
 0
LINE
 8
TOOL_0
 5
137
 10
4579.286
 20
2197.723
 30
0
 11
4545.976
 21
2145.054
 31
0
 0
ARC
 8
TOOL_0
 5
138
 10
4562.034
 20
2134.898
 30
0
 40
19.000097368172
 50
147.688392683242
 51
243.424159673344
210
0
220
0
230
1.0
 0
LINE
 8
TOOL_0
 5
139
 10
4553.534
 20
2117.906
 30
0
 11
4553.534
 21
1572.499
 31
0
 0
LINE
 8
TOOL_0
 5
13A
 10
4553.534
 20
1572.499
 30
0
 11
4516.433
 21
1572.499
 31
0
 0
ARC
 8
TOOL_0
 5
13B
 10
4511.534
 20
1573.499
 30
0
 40
5.00002009996
 50
348.463087982615
 51
90.0
210
0
220
0
230
1.0
 0
LINE
 8
TOOL_0
 5
13C
 10
4511.534
 20
1578.499
 30
0
 11
4467.034
 21
1578.499
 31
0
 0
ARC
 8
TOOL_0
 5
13D
 10
4467.034
 20
1379.499
 30
0
 40
199.0
 50
90.0
 51
180.0
210
0
220
0
230
1.0
 0
LINE
 8
TOOL_0
 5
13E
 10
4268.034
 20
1379.499
 30
0
 11
4268.034
 21
946.499
 31
0
 0
ARC
 8
TOOL_0
 5
13F
 10
4467.034
 20
946.499
 30
0
 40
199.0
 50
180.0
 51
270.0
210
0
220
0
230
1.0
 0
LINE
 8
TOOL_0
 5
140
 10
4467.034
 20
747.499
 30
0
 11
4624.448
 21
747.499
 31
0
 0
LINE
 8
TOOL_0
 5
141
 10
4624.448
 20
747.499
 30
0
 11
4633.034
 21
738.913
 31
0
 0
LINE
 8
TOOL_0
 5
142
 10
4633.034
 20
738.913
 30
0
 11
4633.034
 21
14.085
 31
0
 0
LINE
 8
TOOL_0
 5
143
 10
4633.034
 20
14.085
 30
0
 11
4624.448
 21
5.499
 31
0
 0
LINE
 8
TOOL_0
 5
144
 10
4624.448
 20
5.499
 30
0
 11
4622.68
 21
3.731
 31
0
 0
LINE
 8
TOOL_0
 5
145
 10
4622.68
 20
3.731
 30
0
 11
4871.456
 21
2446.499
 31
0
 0
LINE
 8
TOOL_0
 5
146
 10
4871.456
 20
2446.499
 30
0
 11
4901.456
 21
2446.499
 31
0
 0
LINE
 8
TOOL_0
 5
147
 10
4901.456
 20
2446.499
 30
0
 11
4901.456
 21
2476.499
 31
0
 0
ARC
 8
TOOL_0
 5
148
 10
4881.456
 20
2476.499
 30
0
 40
20.0
 50
0
 51
90.0
210
0
220
0
230
1.0
 0
LINE
 8
TOOL_0
 5
149
 10
4881.456
 20
2496.499
 30
0
 11
4821.456
 21
2496.499
 31
0
 0
ARC
 8
TOOL_0
 5
14A
 10
4821.456
 20
2476.499
 30
0
 40
20.0
 50
90.0
 51
180.0
210
0
220
0
230
1.0
 0
LINE
 8
TOOL_0
 5
14B
 10
4801.456
 20
2476.499
 30
0
 11
4801.456
 21
2416.499
 31
0
 0
ARC
 8
TOOL_0
 5
14C
 10
4821.456
 20
2416.499
 30
0
 40
20.0
 50
180.0
 51
270.0
210
0
220
0
230
1.0
 0
LINE
 8
TOOL_0
 5
14D
 10
4821.456
 20
2396.499
 30
0
 11
4881.456
 21
2396.499
 31
0
 0
ARC
 8
TOOL_0
 5
14E
 10
4881.456
 20
2416.499
 30
0
 40
20.0
 50
270.0
 51
0
210
0
220
0
230
1.0
 0
LINE
 8
TOOL_0
 5
14F
 10
4901.456
 20
2416.499
 30
0
 11
4901.456
 21
2446.499
 31
0
 0
LINE
 8
TOOL_0
 5
150
 10
4901.456
 20
2446.499
 30
0
 11
4894.385
 21
2453.57
 31
0
 0
LINE
 8
TOOL_0
 5
151
 10
4894.385
 20
2453.57
 30
0
 11
5976.456
 21
2539.499
 31
0
 0
LINE
 8
TOOL_0
 5
152
 10
5976.456
 20
2539.499
 30
0
 11
6006.456
 21
2539.499
 31
0
 0
LINE
 8
TOOL_0
 5
153
 10
6006.456
 20
2539.499
 30
0
 11
6006.456
 21
2569.499
 31
0
 0
ARC
 8
TOOL_0
 5
154
 10
5996.456
 20
2569.499
 30
0
 40
10.0
 50
0
 51
90.0
210
0
220
0
230
1.0
 0
LINE
 8
TOOL_0
 5
155
 10
5996.456
 20
2579.499
 30
0
 11
5886.456
 21
2579.499
 31
0
 0
ARC
 8
TOOL_0
 5
156
 10
5886.456
 20
2569.499
 30
0
 40
10.0
 50
90.0
 51
180.0
210
0
220
0
230
1.0
 0
LINE
 8
TOOL_0
 5
157
 10
5876.456
 20
2569.499
 30
0
 11
5876.456
 21
2509.499
 31
0
 0
ARC
 8
TOOL_0
 5
158
 10
5906.456
 20
2509.499
 30
0
 40
30.0
 50
180.0
 51
270.0
210
0
220
0
230
1.0
 0
LINE
 8
TOOL_0
 5
159
 10
5906.456
 20
2479.499
 30
0
 11
5976.456
 21
2479.499
 31
0
 0
ARC
 8
TOOL_0
 5
15A
 10
5976.456
 20
2509.499
 30
0
 40
30.0
 50
270.0
 51
0
210
0
220
0
230
1.0
 0
LINE
 8
TOOL_0
 5
15B
 10
6006.456
 20
2509.499
 30
0
 11
6006.456
 21
2539.499
 31
0
 0
LINE
 8
TOOL_0
 5
15C
 10
6006.456
 20
2539.499
 30
0
 11
5999.385
 21
2546.57
 31
0
 0
LINE
 8
TOOL_0
 5
15D
 10
5999.385
 20
2546.57
 30
0
 11
5866.456
 21
2419.499
 31
0
 0
LINE
 8
TOOL_0
 5
15E
 10
5866.456
 20
2419.499
 30
0
 11
5896.456
 21
2419.499
 31
0
 0
LINE
 8
TOOL_0
 5
15F
 10
5896.456
 20
2419.499
 30
0
 11
5896.456
 21
2449.499
 31
0
 0
ARC
 8
TOOL_0
 5
160
 10
5876.456
 20
2449.499
 30
0
 40
20.0
 50
0
 51
90.0
210
0
220
0
230
1.0
 0
LINE
 8
TOOL_0
 5
161
 10
5876.456
 20
2469.499
 30
0
 11
5816.456
 21
2469.499
 31
0
 0
ARC
 8
TOOL_0
 5
162
 10
5816.456
 20
2449.499
 30
0
 40
20.0
 50
90.0
 51
180.0
210
0
220
0
230
1.0
 0
LINE
 8
TOOL_0
 5
163
 10
5796.456
 20
2449.499
 30
0
 11
5796.456
 21
2389.499
 31
0
 0
ARC
 8
TOOL_0
 5
164
 10
5816.456
 20
2389.499
 30
0
 40
20.0
 50
180.0
 51
270.0
210
0
220
0
230
1.0
 0
LINE
 8
TOOL_0
 5
165
 10
5816.456
 20
2369.499
 30
0
 11
5876.456
 21
2369.499
 31
0
 0
ARC
 8
TOOL_0
 5
166
 10
5876.456
 20
2389.499
 30
0
 40
20.0
 50
270.0
 51
0
210
0
220
0
230
1.0
 0
LINE
 8
TOOL_0
 5
167
 10
5896.456
 20
2389.499
 30
0
 11
5896.456
 21
2419.499
 31
0
 0
LINE
 8
TOOL_0
 5
168
 10
5896.456
 20
2419.499
 30
0
 11
5889.385
 21
2426.57
 31
0
 0
LINE
 8
TOOL_0
 5
169
 10
5889.385
 20
2426.57
 30
0
 11
5776.457
 21
321.499
 31
0
 0
LINE
 8
TOOL_0
 5
16A
 10
5776.457
 20
321.499
 30
0
 11
5806.457
 21
321.499
 31
0
 0
LINE
 8
TOOL_0
 5
16B
 10
5806.457
 20
321.499
 30
0
 11
5806.457
 21
351.499
 31
0
 0
ARC
 8
TOOL_0
 5
16C
 10
5796.457
 20
351.499
 30
0
 40
10.0
 50
0
 51
90.0
210
0
220
0
230
1.0
 0
LINE
 8
TOOL_0
 5
16D
 10
5796.457
 20
361.499
 30
0
 11
5616.457
 21
361.499
 31
0
 0
ARC
 8
TOOL_0
 5
16E
 10
5616.457
 20
351.499
 30
0
 40
10.0
 50
90.0
 51
180.0
210
0
220
0
230
1.0
 0
LINE
 8
TOOL_0
 5
16F
 10
5606.457
 20
351.499
 30
0
 11
5606.457
 21
291.499
 31
0
 0
ARC
 8
TOOL_0
 5
170
 10
5616.457
 20
291.499
 30
0
 40
10.0
 50
180.0
 51
270.0
210
0
220
0
230
1.0
 0
LINE
 8
TOOL_0
 5
171
 10
5616.457
 20
281.499
 30
0
 11
5796.457
 21
281.499
 31
0
 0
ARC
 8
TOOL_0
 5
172
 10
5796.457
 20
291.499
 30
0
 40
10.0
 50
270.0
 51
0
210
0
220
0
230
1.0
 0
LINE
 8
TOOL_0
 5
173
 10
5806.457
 20
291.499
 30
0
 11
5806.457
 21
321.499
 31
0
 0
LINE
 8
TOOL_0
 5
174
 10
5806.457
 20
321.499
 30
0
 11
5799.386
 21
328.57
 31
0
 0
LINE
 8
TOOL_0
 5
175
 10
5799.386
 20
328.57
 30
0
 11
5251.457
 21
86.499
 31
0
 0
LINE
 8
TOOL_0
 5
176
 10
5251.457
 20
86.499
 30
0
 11
5281.457
 21
86.499
 31
0
 0
ARC
 8
TOOL_0
 5
177
 10
5246.457
 20
86.499
 30
0
 40
35.0
 50
0
 51
180.0
210
0
220
0
230
1.0
 0
ARC
 8
TOOL_0
 5
178
 10
5246.457
 20
86.499
 30
0
 40
35.0
 50
180.0
 51
0
210
0
220
0
230
1.0
 0
LINE
 8
TOOL_0
 5
179
 10
5281.457
 20
86.499
 30
0
 11
5274.386
 21
93.57
 31
0
 0
LINE
 8
TOOL_0
 5
17A
 10
5274.386
 20
93.57
 30
0
 11
5264.457
 21
731.499
 31
0
 0
LINE
 8
TOOL_0
 5
17B
 10
5264.457
 20
731.499
 30
0
 11
5294.457
 21
731.499
 31
0
 0
ARC
 8
TOOL_0
 5
17C
 10
5274.457
 20
731.499
 30
0
 40
20.0
 50
0
 51
66.867990902554
210
0
220
0
230
1.0
 0
LINE
 8
TOOL_0
 5
17D
 10
5282.314
 20
749.891
 30
0
 11
5258.635
 21
760.007
 31
0
 0
ARC
 8
TOOL_0
 5
17E
 10
5246.456
 20
731.321
 30
0
 40
31.164316726025
 50
66.9957430162
 51
113.002564662372
210
0
220
0
230
1.0
 0
LINE
 8
TOOL_0
 5
17F
 10
5234.278
 20
760.007
 30
0
 11
5210.599
 21
749.891
 31
0
 0
ARC
 8
TOOL_0
 5
180
 10
5218.456
 20
731.499
 30
0
 40
19.999952824944
 50
113.132009097445
 51
246.867990902554
210
0
220
0
230
1.0
 0
LINE
 8
TOOL_0
 5
181
 10
5210.599
 20
713.107
 30
0
 11
5234.278
 21
702.991
 31
0
 0
ARC
 8
TOOL_0
 5
182
 10
5246.457
 20
731.677
 30
0
 40
31.164316726025
 50
246.9957430162
 51
293.002564662372
210
0
220
0
230
1.0
 0
LINE
 8
TOOL_0
 5
183
 10
5258.635
 20
702.991
 30
0
 11
5282.314
 21
713.107
 31
0
 0
ARC
 8
TOOL_0
 5
184
 10
5274.457
 20
731.499
 30
0
 40
19.999952824944
 50
293.132009097446
 51
0
210
0
220
0
230
1.0
 0
LINE
 8
TOOL_0
 5
185
 10
5294.457
 20
731.499
 30
0
 11
5287.386
 21
738.57
 31
0
 0
LINE
 8
TOOL_0
 5
186
 10
5287.386
 20
738.57
 30
0
 11
4691.708
 21
511.248
 31
0
 0
LINE
 8
TOOL_0
 5
187
 10
4691.708
 20
511.248
 30
0
 11
4716.457
 21
486.499
 31
0
 0
LINE
 8
TOOL_0
 5
188
 10
4716.457
 20
486.499
 30
0
 11
4790.457
 21
486.499
 31
0
 0
LINE
 8
TOOL_0
 5
189
 10
4790.457
 20
486.499
 30
0
 11
4790.457
 21
451.499
 31
0
 0
ARC
 8
TOOL_0
 5
18A
 10
4811.457
 20
451.499
 30
0
 40
21.0
 50
180.0
 51
327.688053502426
210
0
220
0
230
1.0
 0
LINE
 8
TOOL_0
 5
18B
 10
4829.205
 20
440.274
 30
0
 11
4862.515
 21
492.943
 31
0
 0
ARC
 8
TOOL_0
 5
18C
 10
4846.457
 20
503.099
 30
0
 40
19.000097368172
 50
327.688392683242
 51
63.424159673344
210
0
220
0
230
1.0
 0
LINE
 8
TOOL_0
 5
18D
 10
4854.957
 20
520.091
 30
0
 11
4854.957
 21
1065.498
 31
0
 0
LINE
 8
TOOL_0
 5
18E
 10
4854.957
 20
1065.498
 30
0
 11
4892.058
 21
1065.498
 31
0
 0
ARC
 8
TOOL_0
 5
18F
 10
4896.957
 20
1064.498
 30
0
 40
5.00002009996
 50
168.463087982615
 51
270.0
210
0
220
0
230
1.0
 0
LINE
 8
TOOL_0
 5
190
 10
4896.957
 20
1059.498
 30
0
 11
4941.457
 21
1059.498
 31
0
 0
ARC
 8
TOOL_0
 5
191
 10
4941.457
 20
1258.498
 30
0
 40
199.0
 50
270.0
 51
359.99971208151
210
0
220
0
230
1.0
 0
LINE
 8
TOOL_0
 5
192
 10
5140.457
 20
1258.497
 30
0
 11
5140.457
 21
1691.498
 31
0
 0
ARC
 8
TOOL_0
 5
193
 10
4941.457
 20
1691.498
 30
0
 40
199.0
 50
0
 51
90.0
210
0
220
0
230
1.0
 0
LINE
 8
TOOL_0
 5
194
 10
4941.457
 20
1890.498
 30
0
 11
4784.043
 21
1890.498
 31
0
 0
LINE
 8
TOOL_0
 5
195
 10
4784.043
 20
1890.498
 30
0
 11
4775.457
 21
1899.084
 31
0
 0
LINE
 8
TOOL_0
 5
196
 10
4775.457
 20
1899.084
 30
0
 11
4775.457
 21
2623.912
 31
0
 0
LINE
 8
TOOL_0
 5
197
 10
4775.457
 20
2623.912
 30
0
 11
4784.043
 21
2632.498
 31
0
 0
LINE
 8
TOOL_0
 5
198
 10
4784.043
 20
2632.498
 30
0
 11
6260.457
 21
2632.498
 31
0
 0
ARC
 8
TOOL_0
 5
199
 10
6260.457
 20
2625.498
 30
0
 40
7.0
 50
0
 51
90.0
210
0
220
0
230
1.0
 0
LINE
 8
TOOL_0
 5
19A
 10
6267.457
 20
2625.498
 30
0
 11
6267.457
 21
5.498
 31
0
 0
LINE
 8
TOOL_0
 5
19B
 10
6267.457
 20
5.498
 30
0
 11
4649.457
 21
5.498
 31
0
 0
ARC
 8
TOOL_0
 5
19C
 10
4649.457
 20
12.498
 30
0
 40
7.0
 50
180.0
 51
270.0
210
0
220
0
230
1.0
 0
LINE
 8
TOOL_0
 5
19D
 10
4642.457
 20
12.498
 30
0
 11
4642.457
 21
486.498
 31
0
 0
LINE
 8
TOOL_0
 5
19E
 10
4642.457
 20
486.498
 30
0
 11
4716.457
 21
486.498
 31
0
 0
LINE
 8
TOOL_0
 5
19F
 10
4716.457
 20
486.498
 30
0
 11
4719.993
 21
490.034
 31
0
 0
LINE
 8
TOOL_0
 5
1A0
 10
4719.993
 20
490.034
 30
0
 11
7938.465
 21
947.106
 31
0
 0
LINE
 8
TOOL_0
 5
1A1
 10
7938.465
 20
947.106
 30
0
 11
7903.491
 21
948.449
 31
0
 0
LINE
 8
TOOL_0
 5
1A2
 10
7903.491
 20
948.449
 30
0
 11
7857.18
 21
905.564
 31
0
 0
ARC
 8
TOOL_0
 5
1A3
 10
7809.279
 20
957.292
 30
0
 40
70.500296346895
 50
270.0
 51
312.800206794401
210
0
220
0
230
1.0
 0
LINE
 8
TOOL_0
 5
1A4
 10
7809.279
 20
886.792
 30
0
 11
7794.145
 21
886.792
 31
0
 0
ARC
 8
TOOL_0
 5
1A5
 10
7794.145
 20
957.292
 30
0
 40
70.5
 50
227.199793205599
 51
270.0
210
0
220
0
230
1.0
 0
LINE
 8
TOOL_0
 5
1A6
 10
7746.244
 20
905.564
 30
0
 11
7699.933
 21
948.448
 31
0
 0
ARC
 8
TOOL_0
 5
1A7
 10
7713.862
 20
963.489
 30
0
 40
20.499968829245
 50
199.920785441378
 51
227.19819273391
210
0
220
0
230
1.0
 0
LINE
 8
TOOL_0
 5
1A8
 10
7694.588
 20
956.504
 30
0
 11
7662.234
 21
1045.767
 31
0
 0
ARC
 8
TOOL_0
 5
1A9
 10
7709.712
 20
1062.975
 30
0
 40
50.50025493005
 50
179.998865430109
 51
199.922620719172
210
0
220
0
230
1.0
 0
LINE
 8
TOOL_0
 5
1AA
 10
7659.212
 20
1062.976
 30
0
 11
7659.212
 21
1394.001
 31
0
 0
ARC
 8
TOOL_0
 5
1AB
 10
7709.712
 20
1394.001
 30
0
 40
50.5
 50
139.202791978101
 51
180.0
210
0
220
0
230
1.0
 0
LINE
 8
TOOL_0
 5
1AC
 10
7671.482
 20
1426.997
 30
0
 11
7737.685
 21
1503.701
 31
0
 0
ARC
 8
TOOL_0
 5
1AD
 10
7700.212
 20
1536.044
 30
0
 40
49.500458361514
 50
319.202476090436
 51
359.998842509505
210
0
220
0
230
1.0
 0
LINE
 8
TOOL_0
 5
1AE
 10
7749.712
 20
1536.043
 30
0
 11
7749.712
 21
1834.291
 31
0
 0
ARC
 8
TOOL_0
 5
1AF
 10
7760.212
 20
1834.291
 30
0
 40
10.5
 50
90.0
 51
180.0
210
0
220
0
230
1.0
 0
LINE
 8
TOOL_0
 5
1B0
 10
7760.212
 20
1844.791
 30
0
 11
7843.212
 21
1844.791
 31
0
 0
ARC
 8
TOOL_0
 5
1B1
 10
7843.212
 20
1834.291
 30
0
 40
10.5
 50
0
 51
90.0
210
0
220
0
230
1.0
 0
LINE
 8
TOOL_0
 5
1B2
 10
7853.712
 20
1834.291
 30
0
 11
7853.712
 21
1536.043
 31
0
 0
ARC
 8
TOOL_0
 5
1B3
 10
7903.212
 20
1536.043
 30
0
 40
49.5
 50
180.0
 51
220.797523909564
210
0
220
0
230
1.0
 0
LINE
 8
TOOL_0
 5
1B4
 10
7865.739
 20
1503.7
 30
0
 11
7931.942
 21
1426.996
 31
0
 0
ARC
 8
TOOL_0
 5
1B5
 10
7893.712
 20
1394.0
 30
0
 40
50.500187286781
 50
0
 51
40.797208021899
210
0
220
0
230
1.0
 0
LINE
 8
TOOL_0
 5
1B6
 10
7944.212
 20
1394.0
 30
0
 11
7944.212
 21
1062.974
 31
0
 0
ARC
 8
TOOL_0
 5
1B7
 10
7893.712
 20
1062.974
 30
0
 40
50.5
 50
340.077379280828
 51
0
210
0
220
0
230
1.0
 0
LINE
 8
TOOL_0
 5
1B8
 10
7941.19
 20
1045.766
 30
0
 11
7908.836
 21
956.503
 31
0
 0
ARC
 8
TOOL_0
 5
1B9
 10
7889.563
 20
963.489
 30
0
 40
20.500066463307
 50
312.797857570943
 51
340.075634603524
210
0
220
0
230
1.0
 0
LINE
 8
TOOL_0
 5
1BA
 10
7903.491
 20
948.447
 30
0
 11
7903.299
 21
943.451
 31
0
 0
LINE
 8
TOOL_0
 5
1BB
 10
7903.299
 20
943.451
 30
0
 11
7302.727
 21
2551.497
 31
0
 0
LINE
 8
TOOL_0
 5
1BC
 10
7302.727
 20
2551.497
 30
0
 11
7332.727
 21
2551.497
 31
0
 0
ARC
 8
TOOL_0
 5
1BD
 10
7297.727
 20
2551.497
 30
0
 40
35.0
 50
0
 51
180.0
210
0
220
0
230
1.0
 0
ARC
 8
TOOL_0
 5
1BE
 10
7297.727
 20
2551.497
 30
0
 40
35.0
 50
180.0
 51
0
210
0
220
0
230
1.0
 0
LINE
 8
TOOL_0
 5
1BF
 10
7332.727
 20
2551.497
 30
0
 11
7325.656
 21
2558.568
 31
0
 0
LINE
 8
TOOL_0
 5
1C0
 10
7325.656
 20
2558.568
 30
0
 11
6907.727
 21
2316.497
 31
0
 0
LINE
 8
TOOL_0
 5
1C1
 10
6907.727
 20
2316.497
 30
0
 11
6937.727
 21
2316.497
 31
0
 0
LINE
 8
TOOL_0
 5
1C2
 10
6937.727
 20
2316.497
 30
0
 11
6937.727
 21
2346.497
 31
0
 0
ARC
 8
TOOL_0
 5
1C3
 10
6927.727
 20
2346.497
 30
0
 40
10.0
 50
0
 51
90.0
210
0
220
0
230
1.0
 0
LINE
 8
TOOL_0
 5
1C4
 10
6927.727
 20
2356.497
 30
0
 11
6747.727
 21
2356.497
 31
0
 0
ARC
 8
TOOL_0
 5
1C5
 10
6747.727
 20
2346.497
 30
0
 40
10.0
 50
90.0
 51
180.0
210
0
220
0
230
1.0
 0
LINE
 8
TOOL_0
 5
1C6
 10
6737.727
 20
2346.497
 30
0
 11
6737.727
 21
2286.497
 31
0
 0
ARC
 8
TOOL_0
 5
1C7
 10
6747.727
 20
2286.497
 30
0
 40
10.0
 50
180.0
 51
270.0
210
0
220
0
230
1.0
 0
LINE
 8
TOOL_0
 5
1C8
 10
6747.727
 20
2276.497
 30
0
 11
6927.727
 21
2276.497
 31
0
 0
ARC
 8
TOOL_0
 5
1C9
 10
6927.727
 20
2286.497
 30
0
 40
10.0
 50
270.0
 51
0
210
0
220
0
230
1.0
 0
LINE
 8
TOOL_0
 5
1CA
 10
6937.727
 20
2286.497
 30
0
 11
6937.727
 21
2316.497
 31
0
 0
LINE
 8
TOOL_0
 5
1CB
 10
6937.727
 20
2316.497
 30
0
 11
6930.656
 21
2323.568
 31
0
 0
LINE
 8
TOOL_0
 5
1CC
 10
6930.656
 20
2323.568
 30
0
 11
7315.727
 21
1906.497
 31
0
 0
LINE
 8
TOOL_0
 5
1CD
 10
7315.727
 20
1906.497
 30
0
 11
7345.727
 21
1906.497
 31
0
 0
ARC
 8
TOOL_0
 5
1CE
 10
7325.727
 20
1906.497
 30
0
 40
20.0
 50
0
 51
66.867990902554
210
0
220
0
230
1.0
 0
LINE
 8
TOOL_0
 5
1CF
 10
7333.584
 20
1924.889
 30
0
 11
7309.905
 21
1935.005
 31
0
 0
ARC
 8
TOOL_0
 5
1D0
 10
7297.726
 20
1906.319
 30
0
 40
31.164316726025
 50
66.9957430162
 51
113.002564662372
210
0
220
0
230
1.0
 0
LINE
 8
TOOL_0
 5
1D1
 10
7285.548
 20
1935.005
 30
0
 11
7261.869
 21
1924.889
 31
0
 0
ARC
 8
TOOL_0
 5
1D2
 10
7269.726
 20
1906.497
 30
0
 40
19.999952824944
 50
113.132009097445
 51
246.867990902554
210
0
220
0
230
1.0
 0
LINE
 8
TOOL_0
 5
1D3
 10
7261.869
 20
1888.105
 30
0
 11
7285.548
 21
1877.989
 31
0
 0
ARC
 8
TOOL_0
 5
1D4
 10
7297.727
 20
1906.675
 30
0
 40
31.164316726025
 50
246.995743016199
 51
293.002564662372
210
0
220
0
230
1.0
 0
LINE
 8
TOOL_0
 5
1D5
 10
7309.905
 20
1877.989
 30
0
 11
7333.584
 21
1888.105
 31
0
 0
ARC
 8
TOOL_0
 5
1D6
 10
7325.727
 20
1906.497
 30
0
 40
19.999952824944
 50
293.132009097446
 51
0
210
0
220
0
230
1.0
 0
LINE
 8
TOOL_0
 5
1D7
 10
7345.727
 20
1906.497
 30
0
 11
7338.656
 21
1913.568
 31
0
 0
LINE
 8
TOOL_0
 5
1D8
 10
7338.656
 20
1913.568
 30
0
 11
6637.727
 21
98.497
 31
0
 0
LINE
 8
TOOL_0
 5
1D9
 10
6637.727
 20
98.497
 30
0
 11
6667.727
 21
98.497
 31
0
 0
LINE
 8
TOOL_0
 5
1DA
 10
6667.727
 20
98.497
 30
0
 11
6667.727
 21
128.497
 31
0
 0
ARC
 8
TOOL_0
 5
1DB
 10
6637.727
 20
128.497
 30
0
 40
30.0
 50
0
 51
90.0
210
0
220
0
230
1.0
 0
LINE
 8
TOOL_0
 5
1DC
 10
6637.727
 20
158.497
 30
0
 11
6567.727
 21
158.497
 31
0
 0
ARC
 8
TOOL_0
 5
1DD
 10
6567.727
 20
128.497
 30
0
 40
30.0
 50
90.0
 51
180.0
210
0
220
0
230
1.0
 0
LINE
 8
TOOL_0
 5
1DE
 10
6537.727
 20
128.497
 30
0
 11
6537.727
 21
68.497
 31
0
 0
ARC
 8
TOOL_0
 5
1DF
 10
6547.727
 20
68.497
 30
0
 40
10.0
 50
180.0
 51
270.0
210
0
220
0
230
1.0
 0
LINE
 8
TOOL_0
 5
1E0
 10
6547.727
 20
58.497
 30
0
 11
6657.727
 21
58.497
 31
0
 0
ARC
 8
TOOL_0
 5
1E1
 10
6657.727
 20
68.497
 30
0
 40
10.0
 50
270.0
 51
0
210
0
220
0
230
1.0
 0
LINE
 8
TOOL_0
 5
1E2
 10
6667.727
 20
68.497
 30
0
 11
6667.727
 21
98.497
 31
0
 0
LINE
 8
TOOL_0
 5
1E3
 10
6667.727
 20
98.497
 30
0
 11
6660.656
 21
105.568
 31
0
 0
LINE
 8
TOOL_0
 5
1E4
 10
6660.656
 20
105.568
 30
0
 11
6717.727
 21
218.497
 31
0
 0
LINE
 8
TOOL_0
 5
1E5
 10
6717.727
 20
218.497
 30
0
 11
6747.727
 21
218.497
 31
0
 0
LINE
 8
TOOL_0
 5
1E6
 10
6747.727
 20
218.497
 30
0
 11
6747.727
 21
248.497
 31
0
 0
ARC
 8
TOOL_0
 5
1E7
 10
6727.727
 20
248.497
 30
0
 40
20.0
 50
0
 51
90.0
210
0
220
0
230
1.0
 0
LINE
 8
TOOL_0
 5
1E8
 10
6727.727
 20
268.497
 30
0
 11
6667.727
 21
268.497
 31
0
 0
ARC
 8
TOOL_0
 5
1E9
 10
6667.727
 20
248.497
 30
0
 40
20.0
 50
90.0
 51
180.0
210
0
220
0
230
1.0
 0
LINE
 8
TOOL_0
 5
1EA
 10
6647.727
 20
248.497
 30
0
 11
6647.727
 21
188.497
 31
0
 0
ARC
 8
TOOL_0
 5
1EB
 10
6667.727
 20
188.497
 30
0
 40
20.0
 50
180.0
 51
270.0
210
0
220
0
230
1.0
 0
LINE
 8
TOOL_0
 5
1EC
 10
6667.727
 20
168.497
 30
0
 11
6727.727
 21
168.497
 31
0
 0
ARC
 8
TOOL_0
 5
1ED
 10
6727.727
 20
188.497
 30
0
 40
20.0
 50
270.0
 51
0
210
0
220
0
230
1.0
 0
LINE
 8
TOOL_0
 5
1EE
 10
6747.727
 20
188.497
 30
0
 11
6747.727
 21
218.497
 31
0
 0
LINE
 8
TOOL_0
 5
1EF
 10
6747.727
 20
218.497
 30
0
 11
6740.656
 21
225.568
 31
0
 0
LINE
 8
TOOL_0
 5
1F0
 10
6740.656
 20
225.568
 30
0
 11
7712.727
 21
191.497
 31
0
 0
LINE
 8
TOOL_0
 5
1F1
 10
7712.727
 20
191.497
 30
0
 11
7742.727
 21
191.497
 31
0
 0
LINE
 8
TOOL_0
 5
1F2
 10
7742.727
 20
191.497
 30
0
 11
7742.727
 21
221.497
 31
0
 0
ARC
 8
TOOL_0
 5
1F3
 10
7722.727
 20
221.497
 30
0
 40
20.0
 50
0
 51
90.0
210
0
220
0
230
1.0
 0
LINE
 8
TOOL_0
 5
1F4
 10
7722.727
 20
241.497
 30
0
 11
7662.727
 21
241.497
 31
0
 0
ARC
 8
TOOL_0
 5
1F5
 10
7662.727
 20
221.497
 30
0
 40
20.0
 50
90.0
 51
180.0
210
0
220
0
230
1.0
 0
LINE
 8
TOOL_0
 5
1F6
 10
7642.727
 20
221.497
 30
0
 11
7642.727
 21
161.497
 31
0
 0
ARC
 8
TOOL_0
 5
1F7
 10
7662.727
 20
161.497
 30
0
 40
20.0
 50
180.0
 51
270.0
210
0
220
0
230
1.0
 0
LINE
 8
TOOL_0
 5
1F8
 10
7662.727
 20
141.497
 30
0
 11
7722.727
 21
141.497
 31
0
 0
ARC
 8
TOOL_0
 5
1F9
 10
7722.727
 20
161.497
 30
0
 40
20.0
 50
270.0
 51
0
210
0
220
0
230
1.0
 0
LINE
 8
TOOL_0
 5
1FA
 10
7742.727
 20
161.497
 30
0
 11
7742.727
 21
191.497
 31
0
 0
LINE
 8
TOOL_0
 5
1FB
 10
7742.727
 20
191.497
 30
0
 11
7735.656
 21
198.568
 31
0
 0
LINE
 8
TOOL_0
 5
1FC
 10
7735.656
 20
198.568
 30
0
 11
7777.641
 21
5.497
 31
0
 0
LINE
 8
TOOL_0
 5
1FD
 10
7777.641
 20
5.497
 30
0
 11
7760.141
 21
5.497
 31
0
 0
LINE
 8
TOOL_0
 5
1FE
 10
7760.141
 20
5.497
 30
0
 11
6283.727
 21
5.497
 31
0
 0
ARC
 8
TOOL_0
 5
1FF
 10
6283.727
 20
12.497
 30
0
 40
7.0
 50
180.0
 51
270.0
210
0
220
0
230
1.0
 0
LINE
 8
TOOL_0
 5
200
 10
6276.727
 20
12.497
 30
0
 11
6276.727
 21
2632.497
 31
0
 0
LINE
 8
TOOL_0
 5
201
 10
6276.727
 20
2632.497
 30
0
 11
7894.727
 21
2632.497
 31
0
 0
ARC
 8
TOOL_0
 5
202
 10
7894.727
 20
2625.497
 30
0
 40
7.0
 50
0
 51
90.0
210
0
220
0
230
1.0
 0
LINE
 8
TOOL_0
 5
203
 10
7901.727
 20
2625.497
 30
0
 11
7901.727
 21
2151.497
 31
0
 0
LINE
 8
TOOL_0
 5
204
 10
7901.727
 20
2151.497
 30
0
 11
7753.727
 21
2151.497
 31
0
 0
LINE
 8
TOOL_0
 5
205
 10
7753.727
 20
2151.497
 30
0
 11
7753.727
 21
2186.497
 31
0
 0
ARC
 8
TOOL_0
 5
206
 10
7732.727
 20
2186.497
 30
0
 40
21.0
 50
0
 51
147.688053502426
210
0
220
0
230
1.0
 0
LINE
 8
TOOL_0
 5
207
 10
7714.979
 20
2197.722
 30
0
 11
7681.669
 21
2145.053
 31
0
 0
ARC
 8
TOOL_0
 5
208
 10
7697.727
 20
2134.897
 30
0
 40
19.000097368172
 50
147.688392683242
 51
243.424159673344
210
0
220
0
230
1.0
 0
LINE
 8
TOOL_0
 5
209
 10
7689.227
 20
2117.905
 30
0
 11
7689.227
 21
1572.498
 31
0
 0
LINE
 8
TOOL_0
 5
20A
 10
7689.227
 20
1572.498
 30
0
 11
7652.126
 21
1572.498
 31
0
 0
ARC
 8
TOOL_0
 5
20B
 10
7647.227
 20
1573.498
 30
0
 40
5.00002009996
 50
348.463087982615
 51
90.0
210
0
220
0
230
1.0
 0
LINE
 8
TOOL_0
 5
20C
 10
7647.227
 20
1578.498
 30
0
 11
7602.727
 21
1578.498
 31
0
 0
ARC
 8
TOOL_0
 5
20D
 10
7602.727
 20
1379.498
 30
0
 40
199.0
 50
90.0
 51
180.0
210
0
220
0
230
1.0
 0
LINE
 8
TOOL_0
 5
20E
 10
7403.727
 20
1379.498
 30
0
 11
7403.727
 21
946.498
 31
0
 0
ARC
 8
TOOL_0
 5
20F
 10
7602.727
 20
946.498
 30
0
 40
199.0
 50
180.0
 51
270.0
210
0
220
0
230
1.0
 0
LINE
 8
TOOL_0
 5
210
 10
7602.727
 20
747.498
 30
0
 11
7760.141
 21
747.498
 31
0
 0
LINE
 8
TOOL_0
 5
211
 10
7760.141
 20
747.498
 30
0
 11
7768.727
 21
738.912
 31
0
 0
LINE
 8
TOOL_0
 5
212
 10
7768.727
 20
738.912
 30
0
 11
7768.727
 21
14.084
 31
0
 0
LINE
 8
TOOL_0
 5
213
 10
7768.727
 20
14.084
 30
0
 11
7760.141
 21
5.498
 31
0
 0
LINE
 8
TOOL_0
 5
214
 10
7760.141
 20
5.498
 30
0
 11
7758.373
 21
3.73
 31
0
 0
LINE
 8
TOOL_0
 5
215
 10
7758.373
 20
3.73
 30
0
 11
9112.15
 21
2539.498
 31
0
 0
LINE
 8
TOOL_0
 5
216
 10
9112.15
 20
2539.498
 30
0
 11
9142.15
 21
2539.498
 31
0
 0
LINE
 8
TOOL_0
 5
217
 10
9142.15
 20
2539.498
 30
0
 11
9142.15
 21
2569.498
 31
0
 0
ARC
 8
TOOL_0
 5
218
 10
9132.15
 20
2569.498
 30
0
 40
10.0
 50
0
 51
90.0
210
0
220
0
230
1.0
 0
LINE
 8
TOOL_0
 5
219
 10
9132.15
 20
2579.498
 30
0
 11
9022.15
 21
2579.498
 31
0
 0
ARC
 8
TOOL_0
 5
21A
 10
9022.15
 20
2569.498
 30
0
 40
10.0
 50
90.0
 51
180.0
210
0
220
0
230
1.0
 0
LINE
 8
TOOL_0
 5
21B
 10
9012.15
 20
2569.498
 30
0
 11
9012.15
 21
2509.498
 31
0
 0
ARC
 8
TOOL_0
 5
21C
 10
9042.15
 20
2509.498
 30
0
 40
30.0
 50
180.0
 51
270.0
210
0
220
0
230
1.0
 0
LINE
 8
TOOL_0
 5
21D
 10
9042.15
 20
2479.498
 30
0
 11
9112.15
 21
2479.498
 31
0
 0
ARC
 8
TOOL_0
 5
21E
 10
9112.15
 20
2509.498
 30
0
 40
30.0
 50
270.0
 51
0
210
0
220
0
230
1.0
 0
LINE
 8
TOOL_0
 5
21F
 10
9142.15
 20
2509.498
 30
0
 11
9142.15
 21
2539.498
 31
0
 0
LINE
 8
TOOL_0
 5
220
 10
9142.15
 20
2539.498
 30
0
 11
9135.079
 21
2546.569
 31
0
 0
LINE
 8
TOOL_0
 5
221
 10
9135.079
 20
2546.569
 30
0
 11
9002.15
 21
2419.498
 31
0
 0
LINE
 8
TOOL_0
 5
222
 10
9002.15
 20
2419.498
 30
0
 11
9032.15
 21
2419.498
 31
0
 0
LINE
 8
TOOL_0
 5
223
 10
9032.15
 20
2419.498
 30
0
 11
9032.15
 21
2449.498
 31
0
 0
ARC
 8
TOOL_0
 5
224
 10
9012.15
 20
2449.498
 30
0
 40
20.0
 50
0
 51
90.0
210
0
220
0
230
1.0
 0
LINE
 8
TOOL_0
 5
225
 10
9012.15
 20
2469.498
 30
0
 11
8952.15
 21
2469.498
 31
0
 0
ARC
 8
TOOL_0
 5
226
 10
8952.15
 20
2449.498
 30
0
 40
20.0
 50
90.0
 51
180.0
210
0
220
0
230
1.0
 0
LINE
 8
TOOL_0
 5
227
 10
8932.15
 20
2449.498
 30
0
 11
8932.15
 21
2389.498
 31
0
 0
ARC
 8
TOOL_0
 5
228
 10
8952.15
 20
2389.498
 30
0
 40
20.0
 50
180.0
 51
270.0
210
0
220
0
230
1.0
 0
LINE
 8
TOOL_0
 5
229
 10
8952.15
 20
2369.498
 30
0
 11
9012.15
 21
2369.498
 31
0
 0
ARC
 8
TOOL_0
 5
22A
 10
9012.15
 20
2389.498
 30
0
 40
20.0
 50
270.0
 51
0
210
0
220
0
230
1.0
 0
LINE
 8
TOOL_0
 5
22B
 10
9032.15
 20
2389.498
 30
0
 11
9032.15
 21
2419.498
 31
0
 0
LINE
 8
TOOL_0
 5
22C
 10
9032.15
 20
2419.498
 30
0
 11
9025.079
 21
2426.569
 31
0
 0
LINE
 8
TOOL_0
 5
22D
 10
9025.079
 20
2426.569
 30
0
 11
8007.15
 21
2446.498
 31
0
 0
LINE
 8
TOOL_0
 5
22E
 10
8007.15
 20
2446.498
 30
0
 11
8037.15
 21
2446.498
 31
0
 0
LINE
 8
TOOL_0
 5
22F
 10
8037.15
 20
2446.498
 30
0
 11
8037.15
 21
2476.498
 31
0
 0
ARC
 8
TOOL_0
 5
230
 10
8017.15
 20
2476.498
 30
0
 40
20.0
 50
0
 51
90.0
210
0
220
0
230
1.0
 0
LINE
 8
TOOL_0
 5
231
 10
8017.15
 20
2496.498
 30
0
 11
7957.15
 21
2496.498
 31
0
 0
ARC
 8
TOOL_0
 5
232
 10
7957.15
 20
2476.498
 30
0
 40
20.0
 50
90.0
 51
180.0
210
0
220
0
230
1.0
 0
LINE
 8
TOOL_0
 5
233
 10
7937.15
 20
2476.498
 30
0
 11
7937.15
 21
2416.498
 31
0
 0
ARC
 8
TOOL_0
 5
234
 10
7957.15
 20
2416.498
 30
0
 40
20.0
 50
180.0
 51
270.0
210
0
220
0
230
1.0
 0
LINE
 8
TOOL_0
 5
235
 10
7957.15
 20
2396.498
 30
0
 11
8017.15
 21
2396.498
 31
0
 0
ARC
 8
TOOL_0
 5
236
 10
8017.15
 20
2416.498
 30
0
 40
20.0
 50
270.0
 51
0
210
0
220
0
230
1.0
 0
LINE
 8
TOOL_0
 5
237
 10
8037.15
 20
2416.498
 30
0
 11
8037.15
 21
2446.498
 31
0
 0
LINE
 8
TOOL_0
 5
238
 10
8037.15
 20
2446.498
 30
0
 11
8030.079
 21
2453.569
 31
0
 0
LINE
 8
TOOL_0
 5
239
 10
8030.079
 20
2453.569
 30
0
 11
8400.15
 21
731.498
 31
0
 0
LINE
 8
TOOL_0
 5
23A
 10
8400.15
 20
731.498
 30
0
 11
8430.15
 21
731.498
 31
0
 0
ARC
 8
TOOL_0
 5
23B
 10
8410.15
 20
731.498
 30
0
 40
20.0
 50
0
 51
66.867990902554
210
0
220
0
230
1.0
 0
LINE
 8
TOOL_0
 5
23C
 10
8418.007
 20
749.89
 30
0
 11
8394.328
 21
760.006
 31
0
 0
ARC
 8
TOOL_0
 5
23D
 10
8382.149
 20
731.32
 30
0
 40
31.164316726025
 50
66.9957430162
 51
113.002564662372
210
0
220
0
230
1.0
 0
LINE
 8
TOOL_0
 5
23E
 10
8369.971
 20
760.006
 30
0
 11
8346.292
 21
749.89
 31
0
 0
ARC
 8
TOOL_0
 5
23F
 10
8354.149
 20
731.498
 30
0
 40
19.999952824944
 50
113.132009097445
 51
246.867990902554
210
0
220
0
230
1.0
 0
LINE
 8
TOOL_0
 5
240
 10
8346.292
 20
713.106
 30
0
 11
8369.971
 21
702.99
 31
0
 0
ARC
 8
TOOL_0
 5
241
 10
8382.15
 20
731.676
 30
0
 40
31.164316726025
 50
246.9957430162
 51
293.002564662372
210
0
220
0
230
1.0
 0
LINE
 8
TOOL_0
 5
242
 10
8394.328
 20
702.99
 30
0
 11
8418.007
 21
713.106
 31
0
 0
ARC
 8
TOOL_0
 5
243
 10
8410.15
 20
731.498
 30
0
 40
19.999952824944
 50
293.132009097446
 51
0
210
0
220
0
230
1.0
 0
LINE
 8
TOOL_0
 5
244
 10
8430.15
 20
731.498
 30
0
 11
8423.079
 21
738.569
 31
0
 0
LINE
 8
TOOL_0
 5
245
 10
8423.079
 20
738.569
 30
0
 11
8387.151
 21
86.498
 31
0
 0
LINE
 8
TOOL_0
 5
246
 10
8387.151
 20
86.498
 30
0
 11
8417.151
 21
86.498
 31
0
 0
ARC
 8
TOOL_0
 5
247
 10
8382.151
 20
86.498
 30
0
 40
35.0
 50
0
 51
180.0
210
0
220
0
230
1.0
 0
ARC
 8
TOOL_0
 5
248
 10
8382.151
 20
86.498
 30
0
 40
35.0
 50
180.0
 51
0
210
0
220
0
230
1.0
 0
LINE
 8
TOOL_0
 5
249
 10
8417.151
 20
86.498
 30
0
 11
8410.08
 21
93.569
 31
0
 0
LINE
 8
TOOL_0
 5
24A
 10
8410.08
 20
93.569
 30
0
 11
8912.152
 21
321.498
 31
0
 0
LINE
 8
TOOL_0
 5
24B
 10
8912.152
 20
321.498
 30
0
 11
8942.152
 21
321.498
 31
0
 0
LINE
 8
TOOL_0
 5
24C
 10
8942.152
 20
321.498
 30
0
 11
8942.152
 21
351.498
 31
0
 0
ARC
 8
TOOL_0
 5
24D
 10
8932.152
 20
351.498
 30
0
 40
10.0
 50
0
 51
90.0
210
0
220
0
230
1.0
 0
LINE
 8
TOOL_0
 5
24E
 10
8932.152
 20
361.498
 30
0
 11
8752.152
 21
361.498
 31
0
 0
ARC
 8
TOOL_0
 5
24F
 10
8752.152
 20
351.498
 30
0
 40
10.0
 50
90.0
 51
180.0
210
0
220
0
230
1.0
 0
LINE
 8
TOOL_0
 5
250
 10
8742.152
 20
351.498
 30
0
 11
8742.152
 21
291.498
 31
0
 0
ARC
 8
TOOL_0
 5
251
 10
8752.152
 20
291.498
 30
0
 40
10.0
 50
180.0
 51
270.0
210
0
220
0
230
1.0
 0
LINE
 8
TOOL_0
 5
252
 10
8752.152
 20
281.498
 30
0
 11
8932.152
 21
281.498
 31
0
 0
ARC
 8
TOOL_0
 5
253
 10
8932.152
 20
291.498
 30
0
 40
10.0
 50
270.0
 51
0
210
0
220
0
230
1.0
 0
LINE
 8
TOOL_0
 5
254
 10
8942.152
 20
291.498
 30
0
 11
8942.152
 21
321.498
 31
0
 0
LINE
 8
TOOL_0
 5
255
 10
8942.152
 20
321.498
 30
0
 11
8935.081
 21
328.569
 31
0
 0
LINE
 8
TOOL_0
 5
256
 10
8935.081
 20
328.569
 30
0
 11
9438.153
 21
5.498
 31
0
 0
LINE
 8
TOOL_0
 5
257
 10
9438.153
 20
5.498
 30
0
 11
9403.153
 21
5.498
 31
0
 0
LINE
 8
TOOL_0
 5
258
 10
9403.153
 20
5.498
 30
0
 11
7785.153
 21
5.498
 31
0
 0
ARC
 8
TOOL_0
 5
259
 10
7785.153
 20
12.498
 30
0
 40
7.0
 50
180.0
 51
270.0
210
0
220
0
230
1.0
 0
LINE
 8
TOOL_0
 5
25A
 10
7778.153
 20
12.498
 30
0
 11
7778.153
 21
486.498
 31
0
 0
LINE
 8
TOOL_0
 5
25B
 10
7778.153
 20
486.498
 30
0
 11
7926.153
 21
486.498
 31
0
 0
LINE
 8
TOOL_0
 5
25C
 10
7926.153
 20
486.498
 30
0
 11
7926.153
 21
451.498
 31
0
 0
ARC
 8
TOOL_0
 5
25D
 10
7947.153
 20
451.498
 30
0
 40
21.0
 50
180.0
 51
327.688053502426
210
0
220
0
230
1.0
 0
LINE
 8
TOOL_0
 5
25E
 10
7964.901
 20
440.273
 30
0
 11
7998.211
 21
492.942
 31
0
 0
ARC
 8
TOOL_0
 5
25F
 10
7982.153
 20
503.098
 30
0
 40
19.000097368172
 50
327.688392683242
 51
63.424159673344
210
0
220
0
230
1.0
 0
LINE
 8
TOOL_0
 5
260
 10
7990.653
 20
520.09
 30
0
 11
7990.653
 21
1065.497
 31
0
 0
LINE
 8
TOOL_0
 5
261
 10
7990.653
 20
1065.497
 30
0
 11
8027.754
 21
1065.497
 31
0
 0
ARC
 8
TOOL_0
 5
262
 10
8032.653
 20
1064.497
 30
0
 40
5.00002009996
 50
168.463087982615
 51
270.0
210
0
220
0
230
1.0
 0
LINE
 8
TOOL_0
 5
263
 10
8032.653
 20
1059.497
 30
0
 11
8077.153
 21
1059.497
 31
0
 0
ARC
 8
TOOL_0
 5
264
 10
8077.153
 20
1258.497
 30
0
 40
199.0
 50
270.0
 51
359.99971208151
210
0
220
0
230
1.0
 0
LINE
 8
TOOL_0
 5
265
 10
8276.153
 20
1258.496
 30
0
 11
8276.153
 21
1691.497
 31
0
 0
ARC
 8
TOOL_0
 5
266
 10
8077.153
 20
1691.497
 30
0
 40
199.0
 50
0
 51
90.0
210
0
220
0
230
1.0
 0
LINE
 8
TOOL_0
 5
267
 10
8077.153
 20
1890.497
 30
0
 11
7919.739
 21
1890.497
 31
0
 0
LINE
 8
TOOL_0
 5
268
 10
7919.739
 20
1890.497
 30
0
 11
7911.153
 21
1899.083
 31
0
 0
LINE
 8
TOOL_0
 5
269
 10
7911.153
 20
1899.083
 30
0
 11
7911.153
 21
2623.911
 31
0
 0
LINE
 8
TOOL_0
 5
26A
 10
7911.153
 20
2623.911
 30
0
 11
7919.739
 21
2632.497
 31
0
 0
LINE
 8
TOOL_0
 5
26B
 10
7919.739
 20
2632.497
 30
0
 11
9396.153
 21
2632.497
 31
0
 0
ARC
 8
TOOL_0
 5
26C
 10
9396.153
 20
2625.497
 30
0
 40
7.0
 50
0
 51
90.0
210
0
220
0
230
1.0
 0
LINE
 8
TOOL_0
 5
26D
 10
9403.153
 20
2625.497
 30
0
 11
9403.153
 21
5.497
 31
0
 0
LINE
 8
TOOL_0
 5
26E
 10
9403.153
 20
5.497
 30
0
 11
9403.153
 21
0.497
 31
0
 0
ENDSEC
 0
EOF

