0
SECTION
2
TABLES
0
TABLE
2
LAYER
70
0
0
LAYER
2
LAYER_NAME
70
0
62
1
6
CONTINUOUS
0
ENDTAB
0
ENDSEC
 0
SECTION
 2
ENTITIES
 0
LINE
 8
TOOL_0
 5
1
 10
2199.882
 20
10.001
 30
0
 11
2167.5
 21
10.001
 31
0
 0
LINE
 8
TOOL_0
 5
2
 10
2167.5
 20
10.001
 30
0
 11
65.0
 21
10.001
 31
0
 0
LINE
 8
TOOL_0
 5
3
 10
65.0
 20
10.001
 30
0
 11
65.0
 21
72.501
 31
0
 0
ARC
 8
TOOL_0
 5
4
 10
53.75
 20
72.501
 30
0
 40
11.25
 50
0
 51
180.0
210
0
220
0
230
1.0
 0
LINE
 8
TOOL_0
 5
5
 10
42.5
 20
72.501
 30
0
 11
42.5
 21
58.751
 31
0
 0
LINE
 8
TOOL_0
 5
6
 10
42.5
 20
58.751
 30
0
 11
10.0
 21
58.751
 31
0
 0
LINE
 8
TOOL_0
 5
7
 10
10.0
 20
58.751
 30
0
 11
10.0
 21
914.001
 31
0
 0
LINE
 8
TOOL_0
 5
8
 10
10.0
 20
914.001
 30
0
 11
2222.5
 21
914.001
 31
0
 0
LINE
 8
TOOL_0
 5
9
 10
2222.5
 20
914.001
 30
0
 11
2222.5
 21
58.751
 31
0
 0
LINE
 8
TOOL_0
 5
A
 10
2222.5
 20
58.751
 30
0
 11
2190.0
 21
58.751
 31
0
 0
LINE
 8
TOOL_0
 5
B
 10
2190.0
 20
58.751
 30
0
 11
2190.0
 21
72.501
 31
0
 0
ARC
 8
TOOL_0
 5
C
 10
2178.75
 20
72.501
 30
0
 40
11.25
 50
0
 51
180.0
210
0
220
0
230
1.0
 0
LINE
 8
TOOL_0
 5
D
 10
2167.5
 20
72.501
 30
0
 11
2167.5
 21
10.001
 31
0
 0
LINE
 8
TOOL_0
 5
E
 10
2167.5
 20
10.001
 30
0
 11
2167.5
 21
4.762
 31
0
 0
LINE
 8
TOOL_0
 5
F
 10
2167.5
 20
4.762
 30
0
 11
2199.946
 21
929.075
 31
0
 0
LINE
 8
TOOL_0
 5
10
 10
2199.946
 20
929.075
 30
0
 11
2167.5
 21
929.075
 31
0
 0
LINE
 8
TOOL_0
 5
11
 10
2167.5
 20
929.075
 30
0
 11
65.0
 21
929.075
 31
0
 0
LINE
 8
TOOL_0
 5
12
 10
65.0
 20
929.075
 30
0
 11
65.0
 21
991.575
 31
0
 0
ARC
 8
TOOL_0
 5
13
 10
53.75
 20
991.575
 30
0
 40
11.25
 50
0
 51
180.0
210
0
220
0
230
1.0
 0
LINE
 8
TOOL_0
 5
14
 10
42.5
 20
991.575
 30
0
 11
42.5
 21
977.825
 31
0
 0
LINE
 8
TOOL_0
 5
15
 10
42.5
 20
977.825
 30
0
 11
10.0
 21
977.825
 31
0
 0
LINE
 8
TOOL_0
 5
16
 10
10.0
 20
977.825
 30
0
 11
10.0
 21
1833.075
 31
0
 0
LINE
 8
TOOL_0
 5
17
 10
10.0
 20
1833.075
 30
0
 11
2222.5
 21
1833.075
 31
0
 0
LINE
 8
TOOL_0
 5
18
 10
2222.5
 20
1833.075
 30
0
 11
2222.5
 21
977.825
 31
0
 0
LINE
 8
TOOL_0
 5
19
 10
2222.5
 20
977.825
 30
0
 11
2190.0
 21
977.825
 31
0
 0
LINE
 8
TOOL_0
 5
1A
 10
2190.0
 20
977.825
 30
0
 11
2190.0
 21
991.575
 31
0
 0
ARC
 8
TOOL_0
 5
1B
 10
2178.75
 20
991.575
 30
0
 40
11.25
 50
0
 51
180.0
210
0
220
0
230
1.0
 0
LINE
 8
TOOL_0
 5
1C
 10
2167.5
 20
991.575
 30
0
 11
2167.5
 21
929.075
 31
0
 0
LINE
 8
TOOL_0
 5
1D
 10
2167.5
 20
929.075
 30
0
 11
2167.5
 21
924.012
 31
0
 0
LINE
 8
TOOL_0
 5
1E
 10
2167.5
 20
924.012
 30
0
 11
4437.696
 21
10.001
 31
0
 0
LINE
 8
TOOL_0
 5
1F
 10
4437.696
 20
10.001
 30
0
 11
4404.999
 21
10.001
 31
0
 0
LINE
 8
TOOL_0
 5
20
 10
4404.999
 20
10.001
 30
0
 11
2302.499
 21
10.001
 31
0
 0
LINE
 8
TOOL_0
 5
21
 10
2302.499
 20
10.001
 30
0
 11
2302.499
 21
72.501
 31
0
 0
ARC
 8
TOOL_0
 5
22
 10
2291.249
 20
72.501
 30
0
 40
11.25
 50
0
 51
180.0
210
0
220
0
230
1.0
 0
LINE
 8
TOOL_0
 5
23
 10
2279.999
 20
72.501
 30
0
 11
2279.999
 21
58.751
 31
0
 0
LINE
 8
TOOL_0
 5
24
 10
2279.999
 20
58.751
 30
0
 11
2247.499
 21
58.751
 31
0
 0
LINE
 8
TOOL_0
 5
25
 10
2247.499
 20
58.751
 30
0
 11
2247.499
 21
914.001
 31
0
 0
LINE
 8
TOOL_0
 5
26
 10
2247.499
 20
914.001
 30
0
 11
4459.999
 21
914.001
 31
0
 0
LINE
 8
TOOL_0
 5
27
 10
4459.999
 20
914.001
 30
0
 11
4459.999
 21
58.751
 31
0
 0
LINE
 8
TOOL_0
 5
28
 10
4459.999
 20
58.751
 30
0
 11
4427.499
 21
58.751
 31
0
 0
LINE
 8
TOOL_0
 5
29
 10
4427.499
 20
58.751
 30
0
 11
4427.499
 21
72.501
 31
0
 0
ARC
 8
TOOL_0
 5
2A
 10
4416.249
 20
72.501
 30
0
 40
11.25
 50
0
 51
180.0
210
0
220
0
230
1.0
 0
LINE
 8
TOOL_0
 5
2B
 10
4404.999
 20
72.501
 30
0
 11
4404.999
 21
10.001
 31
0
 0
LINE
 8
TOOL_0
 5
2C
 10
4404.999
 20
10.001
 30
0
 11
4404.999
 21
4.309
 31
0
 0
LINE
 8
TOOL_0
 5
2D
 10
4404.999
 20
4.309
 30
0
 11
4437.369
 21
929.082
 31
0
 0
LINE
 8
TOOL_0
 5
2E
 10
4437.369
 20
929.082
 30
0
 11
4404.999
 21
929.082
 31
0
 0
LINE
 8
TOOL_0
 5
2F
 10
4404.999
 20
929.082
 30
0
 11
2302.499
 21
929.082
 31
0
 0
LINE
 8
TOOL_0
 5
30
 10
2302.499
 20
929.082
 30
0
 11
2302.499
 21
991.582
 31
0
 0
ARC
 8
TOOL_0
 5
31
 10
2291.249
 20
991.582
 30
0
 40
11.25
 50
0
 51
180.0
210
0
220
0
230
1.0
 0
LINE
 8
TOOL_0
 5
32
 10
2279.999
 20
991.582
 30
0
 11
2279.999
 21
977.832
 31
0
 0
LINE
 8
TOOL_0
 5
33
 10
2279.999
 20
977.832
 30
0
 11
2247.499
 21
977.832
 31
0
 0
LINE
 8
TOOL_0
 5
34
 10
2247.499
 20
977.832
 30
0
 11
2247.499
 21
1833.082
 31
0
 0
LINE
 8
TOOL_0
 5
35
 10
2247.499
 20
1833.082
 30
0
 11
4459.999
 21
1833.082
 31
0
 0
LINE
 8
TOOL_0
 5
36
 10
4459.999
 20
1833.082
 30
0
 11
4459.999
 21
977.832
 31
0
 0
LINE
 8
TOOL_0
 5
37
 10
4459.999
 20
977.832
 30
0
 11
4427.499
 21
977.832
 31
0
 0
LINE
 8
TOOL_0
 5
38
 10
4427.499
 20
977.832
 30
0
 11
4427.499
 21
991.582
 31
0
 0
ARC
 8
TOOL_0
 5
39
 10
4416.249
 20
991.582
 30
0
 40
11.25
 50
0
 51
180.0
210
0
220
0
230
1.0
 0
LINE
 8
TOOL_0
 5
3A
 10
4404.999
 20
991.582
 30
0
 11
4404.999
 21
929.082
 31
0
 0
LINE
 8
TOOL_0
 5
3B
 10
4404.999
 20
929.082
 30
0
 11
4404.999
 21
923.951
 31
0
 0
ENDSEC
 0
EOF

