0
SECTION
2
TABLES
0
TABLE
2
LAYER
70
0
0
LAYER
2
LAYER_NAME
70
0
62
1
6
CONTINUOUS
0
ENDTAB
0
ENDSEC
 0
SECTION
 2
ENTITIES
 0
LINE
 8
TOOL_0
 5
1
 10
1010.537
 20
111.727
 30
0
 11
976.472
 21
116.089
 31
0
 0
LINE
 8
TOOL_0
 5
2
 10
976.472
 20
116.089
 30
0
 11
873.279
 21
86.499
 31
0
 0
ARC
 8
TOOL_0
 5
3
 10
881.489
 20
58.083
 30
0
 40
29.578254782864
 50
106.115155158087
 51
179.885714645253
210
0
220
0
230
1.0
 0
LINE
 8
TOOL_0
 5
4
 10
851.91
 20
58.142
 30
0
 11
851.91
 21
34.775
 31
0
 0
ARC
 8
TOOL_0
 5
5
 10
836.41
 20
34.775
 30
0
 40
15.5
 50
270.0
 51
0
210
0
220
0
230
1.0
 0
LINE
 8
TOOL_0
 5
6
 10
836.41
 20
19.275
 30
0
 11
449.231
 21
19.275
 31
0
 0
ARC
 8
TOOL_0
 5
7
 10
449.243
 20
24.288
 30
0
 40
5.013014362637
 50
184.140989165551
 51
269.862846989646
210
0
220
0
230
1.0
 0
LINE
 8
TOOL_0
 5
8
 10
444.243
 20
23.926
 30
0
 11
441.026
 21
69.927
 31
0
 0
ARC
 8
TOOL_0
 5
9
 10
417.007
 20
68.219
 30
0
 40
24.079651679374
 50
4.067477372201
 51
42.733060840556
210
0
220
0
230
1.0
 0
LINE
 8
TOOL_0
 5
A
 10
434.694
 20
84.559
 30
0
 11
409.315
 21
111.966
 31
0
 0
ARC
 8
TOOL_0
 5
B
 10
461.435
 20
160.206
 30
0
 40
71.018251175314
 50
183.614329952714
 51
222.786000740381
210
0
220
0
230
1.0
 0
ARC
 8
TOOL_0
 5
C
 10
770.646
 20
168.635
 30
0
 40
380.307050394809
 50
178.823741324326
 51
181.944747893435
210
0
220
0
230
1.0
 0
ARC
 8
TOOL_0
 5
D
 10
461.604
 20
175.264
 30
0
 40
71.194746358141
 50
137.261452095985
 51
179.051931331741
210
0
220
0
230
1.0
 0
LINE
 8
TOOL_0
 5
E
 10
409.314
 20
223.581
 30
0
 11
434.694
 21
250.989
 31
0
 0
ARC
 8
TOOL_0
 5
F
 10
417.007
 20
267.329
 30
0
 40
24.07956745874
 50
317.266939159444
 51
355.9325226278
210
0
220
0
230
1.0
 0
LINE
 8
TOOL_0
 5
10
 10
441.026
 20
265.621
 30
0
 11
444.243
 21
311.623
 31
0
 0
ARC
 8
TOOL_0
 5
11
 10
449.243
 20
311.261
 30
0
 40
5.01308727233
 50
90.137153010354
 51
175.859010834448
210
0
220
0
230
1.0
 0
LINE
 8
TOOL_0
 5
12
 10
449.231
 20
316.274
 30
0
 11
836.41
 21
316.274
 31
0
 0
ARC
 8
TOOL_0
 5
13
 10
836.41
 20
300.774
 30
0
 40
15.5
 50
0
 51
90.0
210
0
220
0
230
1.0
 0
LINE
 8
TOOL_0
 5
14
 10
851.91
 20
300.774
 30
0
 11
851.91
 21
277.407
 31
0
 0
ARC
 8
TOOL_0
 5
15
 10
881.488
 20
277.466
 30
0
 40
29.578058844353
 50
180.1142892186
 51
253.886705834146
210
0
220
0
230
1.0
 0
LINE
 8
TOOL_0
 5
16
 10
873.279
 20
249.05
 30
0
 11
1011.495
 21
209.417
 31
0
 0
ARC
 8
TOOL_0
 5
17
 10
1019.723
 20
238.382
 30
0
 40
30.110981534982
 50
254.141902526385
 51
267.856930583249
210
0
220
0
230
1.0
 0
LINE
 8
TOOL_0
 5
18
 10
1018.597
 20
208.292
 30
0
 11
1379.41
 21
208.274
 31
0
 0
ARC
 8
TOOL_0
 5
19
 10
1379.41
 20
203.274
 30
0
 40
5.0
 50
0
 51
90.0
210
0
220
0
230
1.0
 0
LINE
 8
TOOL_0
 5
1A
 10
1384.41
 20
203.274
 30
0
 11
1384.41
 21
132.274
 31
0
 0
ARC
 8
TOOL_0
 5
1B
 10
1379.41
 20
132.274
 30
0
 40
5.0
 50
270.0
 51
0
210
0
220
0
230
1.0
 0
LINE
 8
TOOL_0
 5
1C
 10
1379.41
 20
127.274
 30
0
 11
1019.626
 21
127.274
 31
0
 0
ARC
 8
TOOL_0
 5
1D
 10
1019.626
 20
97.774
 30
0
 40
29.5
 50
90.0
 51
105.999553963965
210
0
220
0
230
1.0
 0
LINE
 8
TOOL_0
 5
1E
 10
1011.495
 20
126.131
 30
0
 11
976.472
 21
116.088
 31
0
 0
LINE
 8
TOOL_0
 5
1F
 10
976.472
 20
116.088
 30
0
 11
973.883
 21
111.439
 31
0
 0
LINE
 8
TOOL_0
 5
20
 10
973.883
 20
111.439
 30
0
 11
1806.897
 21
694.712
 31
0
 0
LINE
 8
TOOL_0
 5
21
 10
1806.897
 20
694.712
 30
0
 11
1805.897
 21
694.712
 31
0
 0
LINE
 8
TOOL_0
 5
22
 10
1805.897
 20
694.712
 30
0
 11
1805.897
 21
-0.001
 31
0
 0
LINE
 8
TOOL_0
 5
23
 10
1805.897
 20
-0.001
 30
0
 11
1806.897
 21
694.712
 31
0
 0
LINE
 8
TOOL_0
 5
24
 10
1806.897
 20
694.712
 30
0
 11
1805.897
 21
694.712
 31
0
 0
LINE
 8
TOOL_0
 5
25
 10
1805.897
 20
694.712
 30
0
 11
1.657
 21
694.712
 31
0
 0
LINE
 8
TOOL_0
 5
26
 10
1.657
 20
694.712
 30
0
 11
0.657
 21
694.712
 31
0
 0
ENDSEC
 0
EOF

