0
SECTION
2
TABLES
0
TABLE
2
LAYER
70
0
0
LAYER
2
LAYER_NAME
70
0
62
1
6
CONTINUOUS
0
ENDTAB
0
ENDSEC
 0
SECTION
 2
ENTITIES
 0
LINE
 8
TOOL_0
 5
1
 10
500.575
 20
1595.78
 30
0
 11
483.088
 21
1617.647
 31
0
 0
LINE
 8
TOOL_0
 5
2
 10
483.088
 20
1617.647
 30
0
 11
153.664
 21
1654.307
 31
0
 0
ARC
 8
TOOL_0
 5
3
 10
148.396
 20
1606.262
 30
0
 40
48.332947861681
 50
83.742674236556
 51
110.425902180722
210
0
220
0
230
1.0
 0
ARC
 8
TOOL_0
 5
4
 10
152.413
 20
1597.321
 30
0
 40
58.117281853163
 50
111.060868744194
 51
122.385145172567
210
0
220
0
230
1.0
 0
ARC
 8
TOOL_0
 5
5
 10
95.249
 20
1691.411
 30
0
 40
51.999552305765
 50
209.998671702063
 51
300.046098616989
210
0
220
0
230
1.0
 0
LINE
 8
TOOL_0
 5
6
 10
50.215
 20
1665.412
 30
0
 11
20.827
 21
1716.313
 31
0
 0
ARC
 8
TOOL_0
 5
7
 10
65.86
 20
1742.313
 30
0
 40
51.999722008872
 50
104.056820583965
 51
210.000176844804
210
0
220
0
230
1.0
 0
ARC
 8
TOOL_0
 5
8
 10
286.923
 20
859.224
 30
0
 40
962.337993260684
 50
84.588879555212
 51
104.054149206185
210
0
220
0
230
1.0
 0
ARC
 8
TOOL_0
 5
9
 10
369.911
 20
1735.603
 30
0
 40
82.039020502441
 50
30.014026911559
 51
84.570924409499
210
0
220
0
230
1.0
 0
LINE
 8
TOOL_0
 5
A
 10
440.949
 20
1776.64
 30
0
 11
509.456
 21
1657.982
 31
0
 0
ARC
 8
TOOL_0
 5
B
 10
486.073
 20
1644.482
 30
0
 40
27.000272017148
 50
263.650434404802
 51
29.99966673522
210
0
220
0
230
1.0
 0
LINE
 8
TOOL_0
 5
C
 10
483.087
 20
1617.648
 30
0
 11
476.839
 21
1612.652
 31
0
 0
LINE
 8
TOOL_0
 5
D
 10
476.839
 20
1612.652
 30
0
 11
1020.078
 21
1100.537
 31
0
 0
LINE
 8
TOOL_0
 5
E
 10
1020.078
 20
1100.537
 30
0
 11
1002.59
 21
1122.404
 31
0
 0
LINE
 8
TOOL_0
 5
F
 10
1002.59
 20
1122.404
 30
0
 11
673.166
 21
1159.064
 31
0
 0
ARC
 8
TOOL_0
 5
10
 10
667.898
 20
1111.019
 30
0
 40
48.332947861681
 50
83.742674236556
 51
110.425902180722
210
0
220
0
230
1.0
 0
ARC
 8
TOOL_0
 5
11
 10
671.915
 20
1102.078
 30
0
 40
58.117281853163
 50
111.060868744194
 51
122.385145172567
210
0
220
0
230
1.0
 0
ARC
 8
TOOL_0
 5
12
 10
614.751
 20
1196.168
 30
0
 40
51.999552305765
 50
209.998671702063
 51
300.046098616989
210
0
220
0
230
1.0
 0
LINE
 8
TOOL_0
 5
13
 10
569.717
 20
1170.169
 30
0
 11
540.329
 21
1221.07
 31
0
 0
ARC
 8
TOOL_0
 5
14
 10
585.362
 20
1247.07
 30
0
 40
51.999722008872
 50
104.056820583965
 51
210.000176844804
210
0
220
0
230
1.0
 0
ARC
 8
TOOL_0
 5
15
 10
806.425
 20
363.981
 30
0
 40
962.337993260684
 50
84.588879555212
 51
104.054149206185
210
0
220
0
230
1.0
 0
ARC
 8
TOOL_0
 5
16
 10
889.413
 20
1240.36
 30
0
 40
82.039020502441
 50
30.014026911559
 51
84.570924409499
210
0
220
0
230
1.0
 0
LINE
 8
TOOL_0
 5
17
 10
960.451
 20
1281.397
 30
0
 11
1028.958
 21
1162.739
 31
0
 0
ARC
 8
TOOL_0
 5
18
 10
1005.575
 20
1149.239
 30
0
 40
27.000272017148
 50
263.650434404802
 51
29.99966673522
210
0
220
0
230
1.0
 0
LINE
 8
TOOL_0
 5
19
 10
1002.589
 20
1122.405
 30
0
 11
996.341
 21
1117.409
 31
0
 0
LINE
 8
TOOL_0
 5
1A
 10
996.341
 20
1117.409
 30
0
 11
1019.771
 21
1320.293
 31
0
 0
LINE
 8
TOOL_0
 5
1B
 10
1019.771
 20
1320.293
 30
0
 11
1002.283
 21
1342.16
 31
0
 0
LINE
 8
TOOL_0
 5
1C
 10
1002.283
 20
1342.16
 30
0
 11
672.859
 21
1378.82
 31
0
 0
ARC
 8
TOOL_0
 5
1D
 10
667.591
 20
1330.775
 30
0
 40
48.332947861681
 50
83.742674236556
 51
110.425902180722
210
0
220
0
230
1.0
 0
ARC
 8
TOOL_0
 5
1E
 10
671.608
 20
1321.834
 30
0
 40
58.117281853163
 50
111.060868744194
 51
122.385145172567
210
0
220
0
230
1.0
 0
ARC
 8
TOOL_0
 5
1F
 10
614.444
 20
1415.924
 30
0
 40
51.999552305765
 50
209.998671702063
 51
300.046098616989
210
0
220
0
230
1.0
 0
LINE
 8
TOOL_0
 5
20
 10
569.41
 20
1389.925
 30
0
 11
540.022
 21
1440.826
 31
0
 0
ARC
 8
TOOL_0
 5
21
 10
585.055
 20
1466.826
 30
0
 40
51.999722008872
 50
104.056820583965
 51
210.000176844804
210
0
220
0
230
1.0
 0
ARC
 8
TOOL_0
 5
22
 10
806.118
 20
583.737
 30
0
 40
962.337993260684
 50
84.588879555212
 51
104.054149206185
210
0
220
0
230
1.0
 0
ARC
 8
TOOL_0
 5
23
 10
889.106
 20
1460.116
 30
0
 40
82.039020502441
 50
30.014026911559
 51
84.570924409499
210
0
220
0
230
1.0
 0
LINE
 8
TOOL_0
 5
24
 10
960.144
 20
1501.153
 30
0
 11
1028.651
 21
1382.495
 31
0
 0
ARC
 8
TOOL_0
 5
25
 10
1005.268
 20
1368.995
 30
0
 40
27.000272017148
 50
263.650434404802
 51
29.99966673522
210
0
220
0
230
1.0
 0
LINE
 8
TOOL_0
 5
26
 10
1002.282
 20
1342.161
 30
0
 11
996.034
 21
1337.165
 31
0
 0
LINE
 8
TOOL_0
 5
27
 10
996.034
 20
1337.165
 30
0
 11
1033.844
 21
1576.266
 31
0
 0
LINE
 8
TOOL_0
 5
28
 10
1033.844
 20
1576.266
 30
0
 11
1016.356
 21
1598.134
 31
0
 0
LINE
 8
TOOL_0
 5
29
 10
1016.356
 20
1598.134
 30
0
 11
686.932
 21
1634.794
 31
0
 0
ARC
 8
TOOL_0
 5
2A
 10
681.664
 20
1586.749
 30
0
 40
48.332947861681
 50
83.742674236556
 51
110.425902180722
210
0
220
0
230
1.0
 0
ARC
 8
TOOL_0
 5
2B
 10
685.681
 20
1577.808
 30
0
 40
58.117281853163
 50
111.060868744194
 51
122.385145172567
210
0
220
0
230
1.0
 0
ARC
 8
TOOL_0
 5
2C
 10
628.517
 20
1671.898
 30
0
 40
51.999552305765
 50
209.998671702063
 51
300.046098616989
210
0
220
0
230
1.0
 0
LINE
 8
TOOL_0
 5
2D
 10
583.483
 20
1645.899
 30
0
 11
554.095
 21
1696.8
 31
0
 0
ARC
 8
TOOL_0
 5
2E
 10
599.128
 20
1722.8
 30
0
 40
51.999722008872
 50
104.056820583965
 51
210.000176844804
210
0
220
0
230
1.0
 0
ARC
 8
TOOL_0
 5
2F
 10
820.191
 20
839.711
 30
0
 40
962.337993260684
 50
84.588879555212
 51
104.054149206185
210
0
220
0
230
1.0
 0
ARC
 8
TOOL_0
 5
30
 10
903.179
 20
1716.09
 30
0
 40
82.039020502441
 50
30.014026911559
 51
84.570924409499
210
0
220
0
230
1.0
 0
LINE
 8
TOOL_0
 5
31
 10
974.217
 20
1757.127
 30
0
 11
1042.724
 21
1638.469
 31
0
 0
ARC
 8
TOOL_0
 5
32
 10
1019.341
 20
1624.969
 30
0
 40
27.000272017148
 50
263.650434404802
 51
29.99966673522
210
0
220
0
230
1.0
 0
LINE
 8
TOOL_0
 5
33
 10
1016.355
 20
1598.135
 30
0
 11
1010.107
 21
1593.139
 31
0
 0
LINE
 8
TOOL_0
 5
34
 10
1010.107
 20
1593.139
 30
0
 11
1093.855
 21
1852.882
 31
0
 0
LINE
 8
TOOL_0
 5
35
 10
1093.855
 20
1852.882
 30
0
 11
1093.855
 21
1851.882
 31
0
 0
LINE
 8
TOOL_0
 5
36
 10
1093.855
 20
1851.882
 30
0
 11
1093.855
 21
1852.882
 31
0
 0
LINE
 8
TOOL_0
 5
37
 10
1093.855
 20
1852.882
 30
0
 11
1093.855
 21
1851.882
 31
0
 0
LINE
 8
TOOL_0
 5
38
 10
1093.855
 20
1851.882
 30
0
 11
1093.855
 21
1060.501
 31
0
 0
LINE
 8
TOOL_0
 5
39
 10
1093.855
 20
1060.501
 30
0
 11
864.689
 21
1060.501
 31
0
 0
LINE
 8
TOOL_0
 5
3A
 10
864.689
 20
1060.501
 30
0
 11
863.689
 21
1060.501
 31
0
 0
ENDSEC
 0
EOF

