0
SECTION
2
TABLES
0
TABLE
2
LAYER
70
0
0
LAYER
2
LAYER_NAME
70
0
62
1
6
CONTINUOUS
0
ENDTAB
0
ENDSEC
 0
SECTION
 2
ENTITIES
 0
LINE
 8
TOOL_0
 5
1
 10
194.28
 20
342.064
 30
0
 11
176.602
 21
324.386
 31
0
 0
LINE
 8
TOOL_0
 5
2
 10
176.602
 20
324.386
 30
0
 11
173.906
 21
323.067
 31
0
 0
ARC
 8
TOOL_0
 5
3
 10
168.611
 20
324.553
 30
0
 40
5.499565528294
 50
269.989582585658
 51
344.323643422231
210
0
220
0
230
1.0
 0
LINE
 8
TOOL_0
 5
4
 10
168.61
 20
319.053
 30
0
 11
13.61
 21
319.053
 31
0
 0
ARC
 8
TOOL_0
 5
5
 10
13.61
 20
324.553
 30
0
 40
5.5
 50
180.0
 51
270.0
210
0
220
0
230
1.0
 0
LINE
 8
TOOL_0
 5
6
 10
8.11
 20
324.553
 30
0
 11
8.11
 21
385.553
 31
0
 0
ARC
 8
TOOL_0
 5
7
 10
13.61
 20
385.553
 30
0
 40
5.5
 50
90.0
 51
180.0
210
0
220
0
230
1.0
 0
LINE
 8
TOOL_0
 5
8
 10
13.61
 20
391.053
 30
0
 11
168.61
 21
391.053
 31
0
 0
ARC
 8
TOOL_0
 5
9
 10
168.61
 20
385.553
 30
0
 40
5.5
 50
0
 51
90.0
210
0
220
0
230
1.0
 0
LINE
 8
TOOL_0
 5
A
 10
174.11
 20
385.553
 30
0
 11
174.11
 21
326.06
 31
0
 0
LINE
 8
TOOL_0
 5
B
 10
174.11
 20
326.06
 30
0
 11
176.602
 21
324.386
 31
0
 0
LINE
 8
TOOL_0
 5
C
 10
176.602
 20
324.386
 30
0
 11
180.138
 21
320.85
 31
0
 0
LINE
 8
TOOL_0
 5
D
 10
180.138
 20
320.85
 30
0
 11
154.226
 21
434.172
 31
0
 0
LINE
 8
TOOL_0
 5
E
 10
154.226
 20
434.172
 30
0
 11
136.548
 21
416.494
 31
0
 0
LINE
 8
TOOL_0
 5
F
 10
136.548
 20
416.494
 30
0
 11
133.852
 21
415.175
 31
0
 0
ARC
 8
TOOL_0
 5
10
 10
128.557
 20
416.661
 30
0
 40
5.499565528294
 50
269.989582585658
 51
344.323643422231
210
0
220
0
230
1.0
 0
LINE
 8
TOOL_0
 5
11
 10
128.556
 20
411.161
 30
0
 11
13.556
 21
411.161
 31
0
 0
ARC
 8
TOOL_0
 5
12
 10
13.556
 20
416.661
 30
0
 40
5.5
 50
180.0
 51
270.0
210
0
220
0
230
1.0
 0
LINE
 8
TOOL_0
 5
13
 10
8.056
 20
416.661
 30
0
 11
8.056
 21
477.661
 31
0
 0
ARC
 8
TOOL_0
 5
14
 10
13.556
 20
477.661
 30
0
 40
5.5
 50
90.0
 51
180.0
210
0
220
0
230
1.0
 0
LINE
 8
TOOL_0
 5
15
 10
13.556
 20
483.161
 30
0
 11
128.556
 21
483.161
 31
0
 0
ARC
 8
TOOL_0
 5
16
 10
128.556
 20
477.661
 30
0
 40
5.5
 50
0
 51
90.0
210
0
220
0
230
1.0
 0
LINE
 8
TOOL_0
 5
17
 10
134.056
 20
477.661
 30
0
 11
134.056
 21
418.168
 31
0
 0
LINE
 8
TOOL_0
 5
18
 10
134.056
 20
418.168
 30
0
 11
136.548
 21
416.494
 31
0
 0
LINE
 8
TOOL_0
 5
19
 10
136.548
 20
416.494
 30
0
 11
140.084
 21
412.958
 31
0
 0
LINE
 8
TOOL_0
 5
1A
 10
140.084
 20
412.958
 30
0
 11
0
 21
494.986
 31
0
 0
LINE
 8
TOOL_0
 5
1B
 10
0
 20
494.986
 30
0
 11
1.0
 21
494.986
 31
0
 0
LINE
 8
TOOL_0
 5
1C
 10
1.0
 20
494.986
 30
0
 11
0
 21
494.986
 31
0
 0
LINE
 8
TOOL_0
 5
1D
 10
0
 20
494.986
 30
0
 11
1.0
 21
494.986
 31
0
 0
LINE
 8
TOOL_0
 5
1E
 10
1.0
 20
494.986
 30
0
 11
229.333
 21
494.986
 31
0
 0
LINE
 8
TOOL_0
 5
1F
 10
229.333
 20
494.986
 30
0
 11
229.333
 21
311.628
 31
0
 0
LINE
 8
TOOL_0
 5
20
 10
229.333
 20
311.628
 30
0
 11
229.333
 21
310.628
 31
0
 0
ENDSEC
 0
EOF

