0
SECTION
2
TABLES
0
TABLE
2
LAYER
70
0
0
LAYER
2
LAYER_NAME
70
0
62
1
6
CONTINUOUS
0
ENDTAB
0
ENDSEC
 0
SECTION
 2
ENTITIES
 0
LINE
 8
TOOL_0
 5
1
 10
272.589
 20
423.809
 30
0
 11
317.589
 21
423.809
 31
0
 0
ARC
 8
TOOL_0
 5
2
 10
252.589
 20
423.809
 30
0
 40
65.0
 50
0
 51
180.0
210
0
220
0
230
1.0
 0
ARC
 8
TOOL_0
 5
3
 10
252.589
 20
423.809
 30
0
 40
65.0
 50
180.0
 51
0
210
0
220
0
230
1.0
 0
LINE
 8
TOOL_0
 5
4
 10
317.589
 20
423.809
 30
0
 11
163.589
 21
308.009
 31
0
 0
LINE
 8
TOOL_0
 5
5
 10
163.589
 20
308.009
 30
0
 11
208.589
 21
308.009
 31
0
 0
ARC
 8
TOOL_0
 5
6
 10
133.589
 20
308.009
 30
0
 40
75.0
 50
0
 51
180.0
210
0
220
0
230
1.0
 0
ARC
 8
TOOL_0
 5
7
 10
133.589
 20
308.009
 30
0
 40
75.0
 50
180.0
 51
0
210
0
220
0
230
1.0
 0
LINE
 8
TOOL_0
 5
8
 10
208.589
 20
308.009
 30
0
 11
272.589
 21
192.209
 31
0
 0
LINE
 8
TOOL_0
 5
9
 10
272.589
 20
192.209
 30
0
 11
317.589
 21
192.209
 31
0
 0
ARC
 8
TOOL_0
 5
A
 10
252.589
 20
192.209
 30
0
 40
65.0
 50
0
 51
180.0
210
0
220
0
230
1.0
 0
ARC
 8
TOOL_0
 5
B
 10
252.589
 20
192.209
 30
0
 40
65.0
 50
180.0
 51
0
210
0
220
0
230
1.0
 0
LINE
 8
TOOL_0
 5
C
 10
317.589
 20
192.209
 30
0
 11
529.63
 21
84.34
 31
0
 0
LINE
 8
TOOL_0
 5
D
 10
529.63
 20
84.34
 30
0
 11
494.275
 21
48.985
 31
0
 0
LINE
 8
TOOL_0
 5
E
 10
494.275
 20
48.985
 30
0
 11
491.661
 21
47.509
 31
0
 0
ARC
 8
TOOL_0
 5
F
 10
451.689
 20
49.009
 30
0
 40
40.000134799773
 50
270.0
 51
357.85091161895
210
0
220
0
230
1.0
 0
LINE
 8
TOOL_0
 5
10
 10
451.689
 20
9.009
 30
0
 11
159.851
 21
9.009
 31
0
 0
ARC
 8
TOOL_0
 5
11
 10
159.871
 20
49.047
 30
0
 40
40.038004995254
 50
215.028128491642
 51
269.971379302289
210
0
220
0
230
1.0
 0
LINE
 8
TOOL_0
 5
12
 10
127.085
 20
26.066
 30
0
 11
13.923
 21
187.678
 31
0
 0
ARC
 8
TOOL_0
 5
13
 10
46.689
 20
210.621
 30
0
 40
39.999900062375
 50
180.0
 51
214.999999768874
210
0
220
0
230
1.0
 0
LINE
 8
TOOL_0
 5
14
 10
6.689
 20
210.621
 30
0
 11
6.689
 21
405.397
 31
0
 0
ARC
 8
TOOL_0
 5
15
 10
46.689
 20
405.397
 30
0
 40
40.0
 50
145.000000231126
 51
180.0
210
0
220
0
230
1.0
 0
LINE
 8
TOOL_0
 5
16
 10
13.923
 20
428.34
 30
0
 11
127.085
 21
589.952
 31
0
 0
ARC
 8
TOOL_0
 5
17
 10
159.871
 20
566.971
 30
0
 40
40.038083832771
 50
90.028620697711
 51
144.971871508358
210
0
220
0
230
1.0
 0
LINE
 8
TOOL_0
 5
18
 10
159.851
 20
607.009
 30
0
 11
451.689
 21
607.009
 31
0
 0
ARC
 8
TOOL_0
 5
19
 10
451.689
 20
567.009
 30
0
 40
40.0
 50
0
 51
90.0
210
0
220
0
230
1.0
 0
LINE
 8
TOOL_0
 5
1A
 10
491.689
 20
567.009
 30
0
 11
491.689
 21
502.828
 31
0
 0
ARC
 8
TOOL_0
 5
1B
 10
451.629
 20
502.853
 30
0
 40
40.060007800798
 50
315.034385149673
 51
359.964243776788
210
0
220
0
230
1.0
 0
LINE
 8
TOOL_0
 5
1C
 10
479.973
 20
474.543
 30
0
 11
380.614
 21
375.184
 31
0
 0
ARC
 8
TOOL_0
 5
1D
 10
447.789
 20
308.009
 30
0
 40
94.999796052413
 50
135.0
 51
225.0
210
0
220
0
230
1.0
 0
LINE
 8
TOOL_0
 5
1E
 10
380.614
 20
240.834
 30
0
 11
479.974
 21
141.474
 31
0
 0
ARC
 8
TOOL_0
 5
1F
 10
451.63
 20
113.165
 30
0
 40
40.059728119397
 50
0.035756223212
 51
44.964602897855
210
0
220
0
230
1.0
 0
LINE
 8
TOOL_0
 5
20
 10
491.69
 20
113.19
 30
0
 11
491.69
 21
50.509
 31
0
 0
LINE
 8
TOOL_0
 5
21
 10
491.69
 20
50.509
 30
0
 11
494.276
 21
48.985
 31
0
 0
LINE
 8
TOOL_0
 5
22
 10
494.276
 20
48.985
 30
0
 11
501.347
 21
41.914
 31
0
 0
ENDSEC
 0
EOF

