0
SECTION
2
TABLES
0
TABLE
2
LAYER
70
0
0
LAYER
2
LAYER_NAME
70
0
62
1
6
CONTINUOUS
0
ENDTAB
0
ENDSEC
 0
SECTION
 2
ENTITIES
 0
LINE
 8
TOOL_0
 5
1
 10
2063.999
 20
1699.19
 30
0
 11
2034.1
 21
1695.431
 31
0
 0
LINE
 8
TOOL_0
 5
2
 10
2034.1
 20
1695.431
 30
0
 11
1927.272
 21
1682.313
 31
0
 0
ARC
 8
TOOL_0
 5
3
 10
1927.897
 20
1677.334
 30
0
 40
5.018073933294
 50
97.154756845273
 51
155.498400757656
210
0
220
0
230
1.0
 0
ARC
 8
TOOL_0
 5
4
 10
1932.034
 20
1676.316
 30
0
 40
9.238290426264
 50
160.399993583103
 51
187.826618775664
210
0
220
0
230
1.0
 0
ARC
 8
TOOL_0
 5
5
 10
1917.882
 20
1675.058
 30
0
 40
5.0
 50
270.0
 51
0
210
0
220
0
230
1.0
 0
LINE
 8
TOOL_0
 5
6
 10
1917.882
 20
1670.058
 30
0
 11
1830.882
 21
1670.058
 31
0
 0
ARC
 8
TOOL_0
 5
7
 10
1830.882
 20
1676.058
 30
0
 40
6.0
 50
180.0
 51
270.0
210
0
220
0
230
1.0
 0
LINE
 8
TOOL_0
 5
8
 10
1824.882
 20
1676.058
 30
0
 11
1824.882
 21
1696.058
 31
0
 0
LINE
 8
TOOL_0
 5
9
 10
1824.882
 20
1696.058
 30
0
 11
1822.235
 21
1741.94
 31
0
 0
ARC
 8
TOOL_0
 5
A
 10
1798.152
 20
1740.502
 30
0
 40
24.125893413509
 50
3.417083550552
 51
46.382194695049
210
0
220
0
230
1.0
 0
LINE
 8
TOOL_0
 5
B
 10
1814.795
 20
1757.968
 30
0
 11
1784.009
 21
1787.182
 31
0
 0
ARC
 8
TOOL_0
 5
C
 10
1832.882
 20
1838.684
 30
0
 40
71.000184034973
 50
181.328411178523
 51
226.500335480361
210
0
220
0
230
1.0
 0
LINE
 8
TOOL_0
 5
D
 10
1761.901
 20
1837.038
 30
0
 11
1761.882
 21
1885.434
 31
0
 0
ARC
 8
TOOL_0
 5
E
 10
1832.99
 20
1885.388
 30
0
 40
71.108014878774
 50
133.537274697609
 51
179.962935176211
210
0
220
0
230
1.0
 0
LINE
 8
TOOL_0
 5
F
 10
1784.009
 20
1936.936
 30
0
 11
1814.795
 21
1966.15
 31
0
 0
ARC
 8
TOOL_0
 5
10
 10
1798.152
 20
1983.616
 30
0
 40
24.125724963201
 50
313.617805304952
 51
356.582916449448
210
0
220
0
230
1.0
 0
LINE
 8
TOOL_0
 5
11
 10
1822.235
 20
1982.178
 30
0
 11
1824.884
 21
2028.117
 31
0
 0
LINE
 8
TOOL_0
 5
12
 10
1824.884
 20
2028.117
 30
0
 11
1824.882
 21
2049.059
 31
0
 0
ARC
 8
TOOL_0
 5
13
 10
1829.882
 20
2049.059
 30
0
 40
5.0
 50
90.0
 51
180.0
210
0
220
0
230
1.0
 0
LINE
 8
TOOL_0
 5
14
 10
1829.882
 20
2054.059
 30
0
 11
1917.882
 21
2054.059
 31
0
 0
ARC
 8
TOOL_0
 5
15
 10
1917.882
 20
2049.059
 30
0
 40
5.0
 50
0
 51
90.0
210
0
220
0
230
1.0
 0
LINE
 8
TOOL_0
 5
16
 10
1922.882
 20
2049.059
 30
0
 11
1922.882
 21
2046.767
 31
0
 0
ARC
 8
TOOL_0
 5
17
 10
1927.909
 20
2046.791
 30
0
 40
5.027057290304
 50
180.273540533286
 51
262.732210983742
210
0
220
0
230
1.0
 0
LINE
 8
TOOL_0
 5
18
 10
1927.273
 20
2041.804
 30
0
 11
2034.101
 21
2028.686
 31
0
 0
ARC
 8
TOOL_0
 5
19
 10
2032.853
 20
2018.734
 30
0
 40
10.029945563162
 50
0.154250903321
 51
82.852310213614
210
0
220
0
230
1.0
 0
LINE
 8
TOOL_0
 5
1A
 10
2042.882
 20
2018.761
 30
0
 11
2042.882
 21
1942.308
 31
0
 0
ARC
 8
TOOL_0
 5
1B
 10
2052.882
 20
1942.308
 30
0
 40
10.0
 50
180.0
 51
270.0
210
0
220
0
230
1.0
 0
LINE
 8
TOOL_0
 5
1C
 10
2052.882
 20
1932.308
 30
0
 11
2141.882
 21
1932.308
 31
0
 0
ARC
 8
TOOL_0
 5
1D
 10
2141.882
 20
1922.308
 30
0
 40
10.0
 50
0
 51
90.0
210
0
220
0
230
1.0
 0
LINE
 8
TOOL_0
 5
1E
 10
2151.882
 20
1922.308
 30
0
 11
2151.882
 21
1801.808
 31
0
 0
ARC
 8
TOOL_0
 5
1F
 10
2141.882
 20
1801.808
 30
0
 40
10.0
 50
270.0
 51
0
210
0
220
0
230
1.0
 0
LINE
 8
TOOL_0
 5
20
 10
2141.882
 20
1791.808
 30
0
 11
2052.882
 21
1791.808
 31
0
 0
ARC
 8
TOOL_0
 5
21
 10
2052.882
 20
1781.808
 30
0
 40
10.0
 50
90.0
 51
180.0
210
0
220
0
230
1.0
 0
LINE
 8
TOOL_0
 5
22
 10
2042.882
 20
1781.808
 30
0
 11
2042.882
 21
1705.355
 31
0
 0
ARC
 8
TOOL_0
 5
23
 10
2032.852
 20
1705.381
 30
0
 40
10.030033698847
 50
277.154069204668
 51
359.851476876307
210
0
220
0
230
1.0
 0
LINE
 8
TOOL_0
 5
24
 10
2034.101
 20
1695.43
 30
0
 11
2030.55
 21
1691.5
 31
0
 0
LINE
 8
TOOL_0
 5
25
 10
2030.55
 20
1691.5
 30
0
 11
2228.049
 21
2026.252
 31
0
 0
LINE
 8
TOOL_0
 5
26
 10
2228.049
 20
2026.252
 30
0
 11
2198.756
 21
2026.512
 31
0
 0
LINE
 8
TOOL_0
 5
27
 10
2198.756
 20
2026.512
 30
0
 11
2110.756
 21
2026.512
 31
0
 0
ARC
 8
TOOL_0
 5
28
 10
2110.756
 20
2031.512
 30
0
 40
5.0
 50
180.0
 51
270.0
210
0
220
0
230
1.0
 0
LINE
 8
TOOL_0
 5
29
 10
2105.756
 20
2031.512
 30
0
 11
2105.756
 21
2033.804
 31
0
 0
ARC
 8
TOOL_0
 5
2A
 10
2100.729
 20
2033.78
 30
0
 40
5.027057290304
 50
0.273540533287
 51
82.732210983742
210
0
220
0
230
1.0
 0
LINE
 8
TOOL_0
 5
2B
 10
2101.365
 20
2038.767
 30
0
 11
1994.537
 21
2051.885
 31
0
 0
ARC
 8
TOOL_0
 5
2C
 10
1995.785
 20
2061.837
 30
0
 40
10.029945563163
 50
180.148537932993
 51
262.852310213614
210
0
220
0
230
1.0
 0
LINE
 8
TOOL_0
 5
2D
 10
1985.756
 20
2061.811
 30
0
 11
1985.756
 21
2138.263
 31
0
 0
ARC
 8
TOOL_0
 5
2E
 10
1975.756
 20
2138.263
 30
0
 40
10.0
 50
0
 51
90.0
210
0
220
0
230
1.0
 0
LINE
 8
TOOL_0
 5
2F
 10
1975.756
 20
2148.263
 30
0
 11
1886.756
 21
2148.263
 31
0
 0
ARC
 8
TOOL_0
 5
30
 10
1886.756
 20
2158.263
 30
0
 40
10.0
 50
180.0
 51
270.0
210
0
220
0
230
1.0
 0
LINE
 8
TOOL_0
 5
31
 10
1876.756
 20
2158.263
 30
0
 11
1876.756
 21
2278.763
 31
0
 0
ARC
 8
TOOL_0
 5
32
 10
1886.756
 20
2278.763
 30
0
 40
10.0
 50
90.0
 51
180.0
210
0
220
0
230
1.0
 0
LINE
 8
TOOL_0
 5
33
 10
1886.756
 20
2288.763
 30
0
 11
1975.756
 21
2288.763
 31
0
 0
ARC
 8
TOOL_0
 5
34
 10
1975.756
 20
2298.763
 30
0
 40
10.0
 50
270.0
 51
0
210
0
220
0
230
1.0
 0
LINE
 8
TOOL_0
 5
35
 10
1985.756
 20
2298.763
 30
0
 11
1985.756
 21
2375.216
 31
0
 0
ARC
 8
TOOL_0
 5
36
 10
1995.786
 20
2375.19
 30
0
 40
10.030033698847
 50
97.154069204668
 51
179.851476876308
210
0
220
0
230
1.0
 0
LINE
 8
TOOL_0
 5
37
 10
1994.537
 20
2385.141
 30
0
 11
2101.365
 21
2398.259
 31
0
 0
ARC
 8
TOOL_0
 5
38
 10
2100.74
 20
2403.238
 30
0
 40
5.018073933293
 50
277.154756845274
 51
335.49840075766
210
0
220
0
230
1.0
 0
ARC
 8
TOOL_0
 5
39
 10
2096.603
 20
2404.256
 30
0
 40
9.238290426264
 50
340.399993583102
 51
7.826618775663
210
0
220
0
230
1.0
 0
ARC
 8
TOOL_0
 5
3A
 10
2110.755
 20
2405.514
 30
0
 40
5.0
 50
90.0
 51
180.0
210
0
220
0
230
1.0
 0
LINE
 8
TOOL_0
 5
3B
 10
2110.755
 20
2410.514
 30
0
 11
2197.755
 21
2410.514
 31
0
 0
ARC
 8
TOOL_0
 5
3C
 10
2197.755
 20
2404.514
 30
0
 40
6.0
 50
0
 51
90.0
210
0
220
0
230
1.0
 0
LINE
 8
TOOL_0
 5
3D
 10
2203.755
 20
2404.514
 30
0
 11
2203.755
 21
2384.514
 31
0
 0
LINE
 8
TOOL_0
 5
3E
 10
2203.755
 20
2384.514
 30
0
 11
2206.402
 21
2338.632
 31
0
 0
ARC
 8
TOOL_0
 5
3F
 10
2230.485
 20
2340.07
 30
0
 40
24.125893413509
 50
183.417083550552
 51
226.382194695048
210
0
220
0
230
1.0
 0
LINE
 8
TOOL_0
 5
40
 10
2213.842
 20
2322.604
 30
0
 11
2244.628
 21
2293.39
 31
0
 0
ARC
 8
TOOL_0
 5
41
 10
2195.755
 20
2241.888
 30
0
 40
71.000184034973
 50
1.328411178523
 51
46.500335480361
210
0
220
0
230
1.0
 0
LINE
 8
TOOL_0
 5
42
 10
2266.736
 20
2243.534
 30
0
 11
2266.755
 21
2195.138
 31
0
 0
ARC
 8
TOOL_0
 5
43
 10
2195.647
 20
2195.184
 30
0
 40
71.108014878775
 50
313.536690576571
 51
359.962935176212
210
0
220
0
230
1.0
 0
LINE
 8
TOOL_0
 5
44
 10
2244.627
 20
2143.636
 30
0
 11
2213.842
 21
2114.423
 31
0
 0
ARC
 8
TOOL_0
 5
45
 10
2230.485
 20
2096.957
 30
0
 40
24.125724963201
 50
133.617805304951
 51
176.582916449448
210
0
220
0
230
1.0
 0
LINE
 8
TOOL_0
 5
46
 10
2206.402
 20
2098.395
 30
0
 11
2203.753
 21
2052.456
 31
0
 0
LINE
 8
TOOL_0
 5
47
 10
2203.753
 20
2052.456
 30
0
 11
2203.755
 21
2031.514
 31
0
 0
ARC
 8
TOOL_0
 5
48
 10
2198.755
 20
2031.514
 30
0
 40
5.0
 50
270.0
 51
0
210
0
220
0
230
1.0
 0
LINE
 8
TOOL_0
 5
49
 10
2198.755
 20
2026.514
 30
0
 11
2194.062
 21
2024.92
 31
0
 0
LINE
 8
TOOL_0
 5
4A
 10
2194.062
 20
2024.92
 30
0
 11
2307.179
 21
1650.802
 31
0
 0
LINE
 8
TOOL_0
 5
4B
 10
2307.179
 20
1650.802
 30
0
 11
2307.179
 21
2429.002
 31
0
 0
LINE
 8
TOOL_0
 5
4C
 10
2307.179
 20
2429.002
 30
0
 11
2307.179
 21
2430.002
 31
0
 0
ENDSEC
 0
EOF

