0
SECTION
2
TABLES
0
TABLE
2
LAYER
70
0
0
LAYER
2
LAYER_NAME
70
0
62
1
6
CONTINUOUS
0
ENDTAB
0
ENDSEC
 0
SECTION
 2
ENTITIES
 0
LINE
 8
TOOL_0
 5
1
 10
576.484
 20
684.016
 30
0
 11
606.484
 21
684.016
 31
0
 0
ARC
 8
TOOL_0
 5
2
 10
546.484
 20
684.016
 30
0
 40
60.0
 50
0
 51
180.0
210
0
220
0
230
1.0
 0
ARC
 8
TOOL_0
 5
3
 10
546.484
 20
684.016
 30
0
 40
60.0
 50
180.0
 51
0
210
0
220
0
230
1.0
 0
LINE
 8
TOOL_0
 5
4
 10
606.484
 20
684.016
 30
0
 11
602.948
 21
687.552
 31
0
 0
LINE
 8
TOOL_0
 5
5
 10
602.948
 20
687.552
 30
0
 11
971.254
 21
460.767
 31
0
 0
LINE
 8
TOOL_0
 5
6
 10
971.254
 20
460.767
 30
0
 11
939.484
 21
460.767
 31
0
 0
LINE
 8
TOOL_0
 5
7
 10
939.484
 20
460.767
 30
0
 11
420.484
 21
460.767
 31
0
 0
ARC
 8
TOOL_0
 5
8
 10
420.484
 20
471.017
 30
0
 40
10.25
 50
180.0
 51
270.0
210
0
220
0
230
1.0
 0
LINE
 8
TOOL_0
 5
9
 10
410.234
 20
471.017
 30
0
 11
410.234
 21
897.017
 31
0
 0
ARC
 8
TOOL_0
 5
A
 10
420.484
 20
897.017
 30
0
 40
10.25
 50
90.0
 51
180.0
210
0
220
0
230
1.0
 0
LINE
 8
TOOL_0
 5
B
 10
420.484
 20
907.267
 30
0
 11
939.484
 21
907.267
 31
0
 0
ARC
 8
TOOL_0
 5
C
 10
939.484
 20
897.017
 30
0
 40
10.25
 50
0
 51
90.0
210
0
220
0
230
1.0
 0
LINE
 8
TOOL_0
 5
D
 10
949.734
 20
897.017
 30
0
 11
949.734
 21
471.017
 31
0
 0
ARC
 8
TOOL_0
 5
E
 10
939.484
 20
471.017
 30
0
 40
10.25
 50
270.0
 51
0
210
0
220
0
230
1.0
 0
LINE
 8
TOOL_0
 5
F
 10
939.484
 20
460.767
 30
0
 11
939.484
 21
455.665
 31
0
 0
LINE
 8
TOOL_0
 5
10
 10
939.484
 20
455.665
 30
0
 11
572.429
 21
1157.241
 31
0
 0
LINE
 8
TOOL_0
 5
11
 10
572.429
 20
1157.241
 30
0
 11
602.429
 21
1157.241
 31
0
 0
ARC
 8
TOOL_0
 5
12
 10
542.429
 20
1157.241
 30
0
 40
60.0
 50
0
 51
180.0
210
0
220
0
230
1.0
 0
ARC
 8
TOOL_0
 5
13
 10
542.429
 20
1157.241
 30
0
 40
60.0
 50
180.0
 51
0
210
0
220
0
230
1.0
 0
LINE
 8
TOOL_0
 5
14
 10
602.429
 20
1157.241
 30
0
 11
598.893
 21
1160.777
 31
0
 0
LINE
 8
TOOL_0
 5
15
 10
598.893
 20
1160.777
 30
0
 11
971.816
 21
933.992
 31
0
 0
LINE
 8
TOOL_0
 5
16
 10
971.816
 20
933.992
 30
0
 11
935.429
 21
933.992
 31
0
 0
LINE
 8
TOOL_0
 5
17
 10
935.429
 20
933.992
 30
0
 11
416.429
 21
933.992
 31
0
 0
ARC
 8
TOOL_0
 5
18
 10
416.429
 20
944.242
 30
0
 40
10.25
 50
180.0
 51
270.0
210
0
220
0
230
1.0
 0
LINE
 8
TOOL_0
 5
19
 10
406.179
 20
944.242
 30
0
 11
406.179
 21
1370.242
 31
0
 0
ARC
 8
TOOL_0
 5
1A
 10
416.429
 20
1370.242
 30
0
 40
10.25
 50
90.0
 51
180.0
210
0
220
0
230
1.0
 0
LINE
 8
TOOL_0
 5
1B
 10
416.429
 20
1380.492
 30
0
 11
935.429
 21
1380.492
 31
0
 0
ARC
 8
TOOL_0
 5
1C
 10
935.429
 20
1370.242
 30
0
 40
10.25
 50
0
 51
90.0
210
0
220
0
230
1.0
 0
LINE
 8
TOOL_0
 5
1D
 10
945.679
 20
1370.242
 30
0
 11
945.679
 21
944.242
 31
0
 0
ARC
 8
TOOL_0
 5
1E
 10
935.429
 20
944.242
 30
0
 40
10.25
 50
270.0
 51
0
210
0
220
0
230
1.0
 0
LINE
 8
TOOL_0
 5
1F
 10
935.429
 20
933.992
 30
0
 11
935.429
 21
925.891
 31
0
 0
LINE
 8
TOOL_0
 5
20
 10
935.429
 20
925.891
 30
0
 11
186.806
 21
1636.166
 31
0
 0
LINE
 8
TOOL_0
 5
21
 10
186.806
 20
1636.166
 30
0
 11
216.806
 21
1636.166
 31
0
 0
ARC
 8
TOOL_0
 5
22
 10
156.806
 20
1636.166
 30
0
 40
60.0
 50
0
 51
180.0
210
0
220
0
230
1.0
 0
ARC
 8
TOOL_0
 5
23
 10
156.806
 20
1636.166
 30
0
 40
60.0
 50
180.0
 51
0
210
0
220
0
230
1.0
 0
LINE
 8
TOOL_0
 5
24
 10
216.806
 20
1636.166
 30
0
 11
213.27
 21
1639.702
 31
0
 0
LINE
 8
TOOL_0
 5
25
 10
213.27
 20
1639.702
 30
0
 11
587.815
 21
1412.916
 31
0
 0
LINE
 8
TOOL_0
 5
26
 10
587.815
 20
1412.916
 30
0
 11
549.806
 21
1412.916
 31
0
 0
LINE
 8
TOOL_0
 5
27
 10
549.806
 20
1412.916
 30
0
 11
30.806
 21
1412.916
 31
0
 0
ARC
 8
TOOL_0
 5
28
 10
30.806
 20
1423.166
 30
0
 40
10.25
 50
180.0
 51
270.0
210
0
220
0
230
1.0
 0
LINE
 8
TOOL_0
 5
29
 10
20.556
 20
1423.166
 30
0
 11
20.556
 21
1849.166
 31
0
 0
ARC
 8
TOOL_0
 5
2A
 10
30.806
 20
1849.166
 30
0
 40
10.25
 50
90.0
 51
180.0
210
0
220
0
230
1.0
 0
LINE
 8
TOOL_0
 5
2B
 10
30.806
 20
1859.416
 30
0
 11
549.806
 21
1859.416
 31
0
 0
ARC
 8
TOOL_0
 5
2C
 10
549.806
 20
1849.166
 30
0
 40
10.25
 50
0
 51
90.0
210
0
220
0
230
1.0
 0
LINE
 8
TOOL_0
 5
2D
 10
560.056
 20
1849.166
 30
0
 11
560.056
 21
1423.166
 31
0
 0
ARC
 8
TOOL_0
 5
2E
 10
549.806
 20
1423.166
 30
0
 40
10.25
 50
270.0
 51
0
210
0
220
0
230
1.0
 0
LINE
 8
TOOL_0
 5
2F
 10
549.806
 20
1412.916
 30
0
 11
549.806
 21
1402.31
 31
0
 0
LINE
 8
TOOL_0
 5
30
 10
549.806
 20
1402.31
 30
0
 11
187.617
 21
2111.018
 31
0
 0
LINE
 8
TOOL_0
 5
31
 10
187.617
 20
2111.018
 30
0
 11
217.617
 21
2111.018
 31
0
 0
ARC
 8
TOOL_0
 5
32
 10
157.617
 20
2111.018
 30
0
 40
60.0
 50
0
 51
180.0
210
0
220
0
230
1.0
 0
ARC
 8
TOOL_0
 5
33
 10
157.617
 20
2111.018
 30
0
 40
60.0
 50
180.0
 51
0
210
0
220
0
230
1.0
 0
LINE
 8
TOOL_0
 5
34
 10
217.617
 20
2111.018
 30
0
 11
214.081
 21
2114.554
 31
0
 0
LINE
 8
TOOL_0
 5
35
 10
214.081
 20
2114.554
 30
0
 11
593.94
 21
1887.768
 31
0
 0
LINE
 8
TOOL_0
 5
36
 10
593.94
 20
1887.768
 30
0
 11
550.617
 21
1887.768
 31
0
 0
LINE
 8
TOOL_0
 5
37
 10
550.617
 20
1887.768
 30
0
 11
31.617
 21
1887.768
 31
0
 0
ARC
 8
TOOL_0
 5
38
 10
31.617
 20
1898.018
 30
0
 40
10.25
 50
180.0
 51
270.0
210
0
220
0
230
1.0
 0
LINE
 8
TOOL_0
 5
39
 10
21.367
 20
1898.018
 30
0
 11
21.367
 21
2324.018
 31
0
 0
ARC
 8
TOOL_0
 5
3A
 10
31.617
 20
2324.018
 30
0
 40
10.25
 50
90.0
 51
180.0
210
0
220
0
230
1.0
 0
LINE
 8
TOOL_0
 5
3B
 10
31.617
 20
2334.268
 30
0
 11
550.617
 21
2334.268
 31
0
 0
ARC
 8
TOOL_0
 5
3C
 10
550.617
 20
2324.018
 30
0
 40
10.25
 50
0
 51
90.0
210
0
220
0
230
1.0
 0
LINE
 8
TOOL_0
 5
3D
 10
560.867
 20
2324.018
 30
0
 11
560.867
 21
1898.018
 31
0
 0
ARC
 8
TOOL_0
 5
3E
 10
550.617
 20
1898.018
 30
0
 40
10.25
 50
270.0
 51
0
210
0
220
0
230
1.0
 0
LINE
 8
TOOL_0
 5
3F
 10
550.617
 20
1887.768
 30
0
 11
550.617
 21
1877.664
 31
0
 0
LINE
 8
TOOL_0
 5
40
 10
550.617
 20
1877.664
 30
0
 11
1143.711
 21
30.38
 31
0
 0
LINE
 8
TOOL_0
 5
41
 10
1143.711
 20
30.38
 30
0
 11
1100.555
 21
30.38
 31
0
 0
LINE
 8
TOOL_0
 5
42
 10
1100.555
 20
30.38
 30
0
 11
866.555
 21
30.38
 31
0
 0
ARC
 8
TOOL_0
 5
43
 10
866.555
 20
63.08
 30
0
 40
32.7
 50
180.0
 51
270.0
210
0
220
0
230
1.0
 0
LINE
 8
TOOL_0
 5
44
 10
833.855
 20
63.08
 30
0
 11
833.855
 21
191.08
 31
0
 0
ARC
 8
TOOL_0
 5
45
 10
866.555
 20
191.08
 30
0
 40
32.7
 50
90.0
 51
180.0
210
0
220
0
230
1.0
 0
LINE
 8
TOOL_0
 5
46
 10
866.555
 20
223.78
 30
0
 11
1100.555
 21
223.78
 31
0
 0
ARC
 8
TOOL_0
 5
47
 10
1100.555
 20
191.08
 30
0
 40
32.7
 50
0
 51
90.0
210
0
220
0
230
1.0
 0
LINE
 8
TOOL_0
 5
48
 10
1133.255
 20
191.08
 30
0
 11
1133.255
 21
63.08
 31
0
 0
ARC
 8
TOOL_0
 5
49
 10
1100.555
 20
63.08
 30
0
 40
32.7
 50
270.0
 51
0
210
0
220
0
230
1.0
 0
LINE
 8
TOOL_0
 5
4A
 10
1100.555
 20
30.38
 30
0
 11
1100.555
 21
18.14
 31
0
 0
LINE
 8
TOOL_0
 5
4B
 10
1100.555
 20
18.14
 30
0
 11
1138.303
 21
246.045
 31
0
 0
LINE
 8
TOOL_0
 5
4C
 10
1138.303
 20
246.045
 30
0
 11
1097.048
 21
246.045
 31
0
 0
LINE
 8
TOOL_0
 5
4D
 10
1097.048
 20
246.045
 30
0
 11
863.048
 21
246.045
 31
0
 0
ARC
 8
TOOL_0
 5
4E
 10
863.048
 20
278.745
 30
0
 40
32.7
 50
180.0
 51
270.0
210
0
220
0
230
1.0
 0
LINE
 8
TOOL_0
 5
4F
 10
830.348
 20
278.745
 30
0
 11
830.348
 21
406.745
 31
0
 0
ARC
 8
TOOL_0
 5
50
 10
863.048
 20
406.745
 30
0
 40
32.7
 50
90.0
 51
180.0
210
0
220
0
230
1.0
 0
LINE
 8
TOOL_0
 5
51
 10
863.048
 20
439.445
 30
0
 11
1097.048
 21
439.445
 31
0
 0
ARC
 8
TOOL_0
 5
52
 10
1097.048
 20
406.745
 30
0
 40
32.7
 50
0
 51
90.0
210
0
220
0
230
1.0
 0
LINE
 8
TOOL_0
 5
53
 10
1129.748
 20
406.745
 30
0
 11
1129.748
 21
278.745
 31
0
 0
ARC
 8
TOOL_0
 5
54
 10
1097.048
 20
278.745
 30
0
 40
32.7
 50
270.0
 51
0
210
0
220
0
230
1.0
 0
LINE
 8
TOOL_0
 5
55
 10
1097.048
 20
246.045
 30
0
 11
1097.048
 21
237.378
 31
0
 0
LINE
 8
TOOL_0
 5
56
 10
1097.048
 20
237.378
 30
0
 11
1481.023
 21
30.203
 31
0
 0
LINE
 8
TOOL_0
 5
57
 10
1481.023
 20
30.203
 30
0
 11
1433.607
 21
30.203
 31
0
 0
LINE
 8
TOOL_0
 5
58
 10
1433.607
 20
30.203
 30
0
 11
1199.607
 21
30.203
 31
0
 0
ARC
 8
TOOL_0
 5
59
 10
1199.607
 20
62.903
 30
0
 40
32.7
 50
180.0
 51
270.0
210
0
220
0
230
1.0
 0
LINE
 8
TOOL_0
 5
5A
 10
1166.907
 20
62.903
 30
0
 11
1166.907
 21
190.903
 31
0
 0
ARC
 8
TOOL_0
 5
5B
 10
1199.607
 20
190.903
 30
0
 40
32.7
 50
90.0
 51
180.0
210
0
220
0
230
1.0
 0
LINE
 8
TOOL_0
 5
5C
 10
1199.607
 20
223.603
 30
0
 11
1433.607
 21
223.603
 31
0
 0
ARC
 8
TOOL_0
 5
5D
 10
1433.607
 20
190.903
 30
0
 40
32.7
 50
0
 51
90.0
210
0
220
0
230
1.0
 0
LINE
 8
TOOL_0
 5
5E
 10
1466.307
 20
190.903
 30
0
 11
1466.307
 21
62.903
 31
0
 0
ARC
 8
TOOL_0
 5
5F
 10
1433.607
 20
62.903
 30
0
 40
32.7
 50
270.0
 51
0
210
0
220
0
230
1.0
 0
LINE
 8
TOOL_0
 5
60
 10
1433.607
 20
30.203
 30
0
 11
1433.607
 21
18.14
 31
0
 0
LINE
 8
TOOL_0
 5
61
 10
1433.607
 20
18.14
 30
0
 11
1490.122
 21
254.19
 31
0
 0
LINE
 8
TOOL_0
 5
62
 10
1490.122
 20
254.19
 30
0
 11
1441.717
 21
254.19
 31
0
 0
LINE
 8
TOOL_0
 5
63
 10
1441.717
 20
254.19
 30
0
 11
1207.717
 21
254.19
 31
0
 0
ARC
 8
TOOL_0
 5
64
 10
1207.717
 20
286.89
 30
0
 40
32.7
 50
180.0
 51
270.0
210
0
220
0
230
1.0
 0
LINE
 8
TOOL_0
 5
65
 10
1175.017
 20
286.89
 30
0
 11
1175.017
 21
414.89
 31
0
 0
ARC
 8
TOOL_0
 5
66
 10
1207.717
 20
414.89
 30
0
 40
32.7
 50
90.0
 51
180.0
210
0
220
0
230
1.0
 0
LINE
 8
TOOL_0
 5
67
 10
1207.717
 20
447.59
 30
0
 11
1441.717
 21
447.59
 31
0
 0
ARC
 8
TOOL_0
 5
68
 10
1441.717
 20
414.89
 30
0
 40
32.7
 50
0
 51
90.0
210
0
220
0
230
1.0
 0
LINE
 8
TOOL_0
 5
69
 10
1474.417
 20
414.89
 30
0
 11
1474.417
 21
286.89
 31
0
 0
ARC
 8
TOOL_0
 5
6A
 10
1441.717
 20
286.89
 30
0
 40
32.7
 50
270.0
 51
0
210
0
220
0
230
1.0
 0
LINE
 8
TOOL_0
 5
6B
 10
1441.717
 20
254.19
 30
0
 11
1441.717
 21
242.3
 31
0
 0
LINE
 8
TOOL_0
 5
6C
 10
1441.717
 20
242.3
 30
0
 11
1498.076
 21
482.249
 31
0
 0
LINE
 8
TOOL_0
 5
6D
 10
1498.076
 20
482.249
 30
0
 11
1445.772
 21
482.249
 31
0
 0
LINE
 8
TOOL_0
 5
6E
 10
1445.772
 20
482.249
 30
0
 11
1211.772
 21
482.249
 31
0
 0
ARC
 8
TOOL_0
 5
6F
 10
1211.772
 20
514.949
 30
0
 40
32.7
 50
180.0
 51
270.0
210
0
220
0
230
1.0
 0
LINE
 8
TOOL_0
 5
70
 10
1179.072
 20
514.949
 30
0
 11
1179.072
 21
642.949
 31
0
 0
ARC
 8
TOOL_0
 5
71
 10
1211.772
 20
642.949
 30
0
 40
32.7
 50
90.0
 51
180.0
210
0
220
0
230
1.0
 0
LINE
 8
TOOL_0
 5
72
 10
1211.772
 20
675.649
 30
0
 11
1445.772
 21
675.649
 31
0
 0
ARC
 8
TOOL_0
 5
73
 10
1445.772
 20
642.949
 30
0
 40
32.7
 50
0
 51
90.0
210
0
220
0
230
1.0
 0
LINE
 8
TOOL_0
 5
74
 10
1478.472
 20
642.949
 30
0
 11
1478.472
 21
514.949
 31
0
 0
ARC
 8
TOOL_0
 5
75
 10
1445.772
 20
514.949
 30
0
 40
32.7
 50
270.0
 51
0
210
0
220
0
230
1.0
 0
LINE
 8
TOOL_0
 5
76
 10
1445.772
 20
482.249
 30
0
 11
1445.772
 21
470.532
 31
0
 0
LINE
 8
TOOL_0
 5
77
 10
1445.772
 20
470.532
 30
0
 11
1510.401
 21
732.737
 31
0
 0
LINE
 8
TOOL_0
 5
78
 10
1510.401
 20
732.737
 30
0
 11
1012.299
 21
732.737
 31
0
 0
LINE
 8
TOOL_0
 5
79
 10
1012.299
 20
732.737
 30
0
 11
1012.299
 21
1438.443
 31
0
 0
LINE
 8
TOOL_0
 5
7A
 10
1012.299
 20
1438.443
 30
0
 11
624.448
 21
1438.443
 31
0
 0
LINE
 8
TOOL_0
 5
7B
 10
624.448
 20
1438.443
 30
0
 11
624.448
 21
2399.004
 31
0
 0
LINE
 8
TOOL_0
 5
7C
 10
624.448
 20
2399.004
 30
0
 11
624.448
 21
2400.004
 31
0
 0
ENDSEC
 0
EOF

