0
SECTION
2
TABLES
0
TABLE
2
LAYER
70
0
0
LAYER
2
LAYER_NAME
70
0
62
1
6
CONTINUOUS
0
ENDTAB
0
ENDSEC
 0
SECTION
 2
ENTITIES
 0
LINE
 8
TOOL_0
 5
1
 10
211.773
 20
278.267
 30
0
 11
246.773
 21
278.267
 31
0
 0
ARC
 8
TOOL_0
 5
2
 10
181.773
 20
278.267
 30
0
 40
65.0
 50
0
 51
180.0
210
0
220
0
230
1.0
 0
ARC
 8
TOOL_0
 5
3
 10
181.773
 20
278.267
 30
0
 40
65.0
 50
180.0
 51
0
210
0
220
0
230
1.0
 0
LINE
 8
TOOL_0
 5
4
 10
246.773
 20
278.267
 30
0
 11
429.837
 21
278.267
 31
0
 0
LINE
 8
TOOL_0
 5
5
 10
429.837
 20
278.267
 30
0
 11
464.837
 21
278.267
 31
0
 0
ARC
 8
TOOL_0
 5
6
 10
399.837
 20
278.267
 30
0
 40
65.0
 50
0
 51
180.0
210
0
220
0
230
1.0
 0
ARC
 8
TOOL_0
 5
7
 10
399.837
 20
278.267
 30
0
 40
65.0
 50
180.0
 51
0
210
0
220
0
230
1.0
 0
LINE
 8
TOOL_0
 5
8
 10
464.837
 20
278.267
 30
0
 11
554.555
 21
410.528
 31
0
 0
LINE
 8
TOOL_0
 5
9
 10
554.555
 20
410.528
 30
0
 11
554.555
 21
376.401
 31
0
 0
LINE
 8
TOOL_0
 5
A
 10
554.555
 20
376.401
 30
0
 11
554.555
 21
97.401
 31
0
 0
ARC
 8
TOOL_0
 5
B
 10
525.805
 20
97.401
 30
0
 40
28.75
 50
270.0
 51
0
210
0
220
0
230
1.0
 0
LINE
 8
TOOL_0
 5
C
 10
525.805
 20
68.651
 30
0
 11
55.805
 21
68.651
 31
0
 0
ARC
 8
TOOL_0
 5
D
 10
55.805
 20
97.401
 30
0
 40
28.75
 50
180.0
 51
270.0
210
0
220
0
230
1.0
 0
LINE
 8
TOOL_0
 5
E
 10
27.055
 20
97.401
 30
0
 11
27.055
 21
376.401
 31
0
 0
ARC
 8
TOOL_0
 5
F
 10
55.805
 20
376.401
 30
0
 40
28.75
 50
90.0
 51
180.0
210
0
220
0
230
1.0
 0
LINE
 8
TOOL_0
 5
10
 10
55.805
 20
405.151
 30
0
 11
525.805
 21
405.151
 31
0
 0
ARC
 8
TOOL_0
 5
11
 10
525.805
 20
376.401
 30
0
 40
28.75
 50
0
 51
90.0
210
0
220
0
230
1.0
 0
LINE
 8
TOOL_0
 5
12
 10
554.555
 20
376.401
 30
0
 11
569.697
 21
376.401
 31
0
 0
LINE
 8
TOOL_0
 5
13
 10
569.697
 20
376.401
 30
0
 11
209.768
 21
708.082
 31
0
 0
LINE
 8
TOOL_0
 5
14
 10
209.768
 20
708.082
 30
0
 11
244.768
 21
708.082
 31
0
 0
ARC
 8
TOOL_0
 5
15
 10
179.768
 20
708.082
 30
0
 40
65.0
 50
0
 51
180.0
210
0
220
0
230
1.0
 0
ARC
 8
TOOL_0
 5
16
 10
179.768
 20
708.082
 30
0
 40
65.0
 50
180.0
 51
0
210
0
220
0
230
1.0
 0
LINE
 8
TOOL_0
 5
17
 10
244.768
 20
708.082
 30
0
 11
427.831
 21
708.082
 31
0
 0
LINE
 8
TOOL_0
 5
18
 10
427.831
 20
708.082
 30
0
 11
462.831
 21
708.082
 31
0
 0
ARC
 8
TOOL_0
 5
19
 10
397.831
 20
708.082
 30
0
 40
65.0
 50
0
 51
180.0
210
0
220
0
230
1.0
 0
ARC
 8
TOOL_0
 5
1A
 10
397.831
 20
708.082
 30
0
 40
65.0
 50
180.0
 51
0
210
0
220
0
230
1.0
 0
LINE
 8
TOOL_0
 5
1B
 10
462.831
 20
708.082
 30
0
 11
552.55
 21
840.734
 31
0
 0
LINE
 8
TOOL_0
 5
1C
 10
552.55
 20
840.734
 30
0
 11
552.55
 21
806.216
 31
0
 0
LINE
 8
TOOL_0
 5
1D
 10
552.55
 20
806.216
 30
0
 11
552.55
 21
527.216
 31
0
 0
ARC
 8
TOOL_0
 5
1E
 10
523.8
 20
527.216
 30
0
 40
28.75
 50
270.0
 51
0
210
0
220
0
230
1.0
 0
LINE
 8
TOOL_0
 5
1F
 10
523.8
 20
498.466
 30
0
 11
53.8
 21
498.466
 31
0
 0
ARC
 8
TOOL_0
 5
20
 10
53.8
 20
527.216
 30
0
 40
28.75
 50
180.0
 51
270.0
210
0
220
0
230
1.0
 0
LINE
 8
TOOL_0
 5
21
 10
25.05
 20
527.216
 30
0
 11
25.05
 21
806.216
 31
0
 0
ARC
 8
TOOL_0
 5
22
 10
53.8
 20
806.216
 30
0
 40
28.75
 50
90.0
 51
180.0
210
0
220
0
230
1.0
 0
LINE
 8
TOOL_0
 5
23
 10
53.8
 20
834.966
 30
0
 11
523.8
 21
834.966
 31
0
 0
ARC
 8
TOOL_0
 5
24
 10
523.8
 20
806.216
 30
0
 40
28.75
 50
0
 51
90.0
210
0
220
0
230
1.0
 0
LINE
 8
TOOL_0
 5
25
 10
552.55
 20
806.216
 30
0
 11
568.709
 21
806.216
 31
0
 0
LINE
 8
TOOL_0
 5
26
 10
568.709
 20
806.216
 30
0
 11
0.001
 21
864.015
 31
0
 0
LINE
 8
TOOL_0
 5
27
 10
0.001
 20
864.015
 30
0
 11
1.001
 21
864.015
 31
0
 0
LINE
 8
TOOL_0
 5
28
 10
1.001
 20
864.015
 30
0
 11
0.001
 21
864.015
 31
0
 0
LINE
 8
TOOL_0
 5
29
 10
0.001
 20
864.015
 30
0
 11
1.001
 21
864.015
 31
0
 0
LINE
 8
TOOL_0
 5
2A
 10
1.001
 20
864.015
 30
0
 11
594.252
 21
864.015
 31
0
 0
LINE
 8
TOOL_0
 5
2B
 10
594.252
 20
864.015
 30
0
 11
595.252
 21
864.015
 31
0
 0
ENDSEC
 0
EOF

