0
SECTION
2
TABLES
0
TABLE
2
LAYER
70
0
0
LAYER
2
LAYER_NAME
70
0
62
1
6
CONTINUOUS
0
ENDTAB
0
ENDSEC
 0
SECTION
 2
ENTITIES
 0
LINE
 8
TOOL_0
 5
1
 10
630.879
 20
1147.856
 30
0
 11
612.023
 21
1147.856
 31
0
 0
LINE
 8
TOOL_0
 5
2
 10
612.023
 20
1147.856
 30
0
 11
520.239
 21
1147.856
 31
0
 0
ARC
 8
TOOL_0
 5
3
 10
520.239
 20
1118.856
 30
0
 40
29.0
 50
90.0
 51
105.998858377125
210
0
220
0
230
1.0
 0
ARC
 8
TOOL_0
 5
4
 10
591.626
 20
851.99
 30
0
 40
305.245180877602
 50
105.073221574547
 51
107.128797707736
210
0
220
0
230
1.0
 0
ARC
 8
TOOL_0
 5
5
 10
511.044
 20
1115.158
 30
0
 40
30.021012724424
 50
108.084296970695
 51
179.971372152121
210
0
220
0
230
1.0
 0
LINE
 8
TOOL_0
 5
6
 10
481.023
 20
1115.173
 30
0
 11
481.023
 21
1054.856
 31
0
 0
ARC
 8
TOOL_0
 5
7
 10
466.023
 20
1054.856
 30
0
 40
15.0
 50
270.0
 51
0
210
0
220
0
230
1.0
 0
LINE
 8
TOOL_0
 5
8
 10
466.023
 20
1039.856
 30
0
 11
77.879
 21
1039.856
 31
0
 0
ARC
 8
TOOL_0
 5
9
 10
77.891
 20
1044.869
 30
0
 40
5.013014362636
 50
184.140989165549
 51
269.862846989646
210
0
220
0
230
1.0
 0
LINE
 8
TOOL_0
 5
A
 10
72.891
 20
1044.507
 30
0
 11
69.639
 21
1091.008
 31
0
 0
ARC
 8
TOOL_0
 5
B
 10
45.62
 20
1089.3
 30
0
 40
24.079651679374
 50
4.067477372201
 51
42.733060840556
210
0
220
0
230
1.0
 0
LINE
 8
TOOL_0
 5
C
 10
63.307
 20
1105.64
 30
0
 11
37.661
 21
1133.335
 31
0
 0
ARC
 8
TOOL_0
 5
D
 10
89.022
 20
1180.896
 30
0
 40
70.000007442857
 50
180.0
 51
222.80011562078
210
0
220
0
230
1.0
 0
ARC
 8
TOOL_0
 5
E
 10
770.903
 20
1188.855
 30
0
 40
751.923123625015
 50
179.268698596241
 51
180.606479054237
210
0
220
0
230
1.0
 0
ARC
 8
TOOL_0
 5
F
 10
89.09
 20
1196.786
 30
0
 40
70.068808731132
 50
137.220864842536
 51
178.637571173786
210
0
220
0
230
1.0
 0
LINE
 8
TOOL_0
 5
10
 10
37.661
 20
1244.375
 30
0
 11
63.307
 21
1272.07
 31
0
 0
ARC
 8
TOOL_0
 5
11
 10
45.62
 20
1288.41
 30
0
 40
24.07956745874
 50
317.266939159444
 51
355.9325226278
210
0
220
0
230
1.0
 0
LINE
 8
TOOL_0
 5
12
 10
69.639
 20
1286.702
 30
0
 11
72.891
 21
1333.204
 31
0
 0
ARC
 8
TOOL_0
 5
13
 10
77.891
 20
1332.842
 30
0
 40
5.01308727233
 50
90.137153010354
 51
175.859010834448
210
0
220
0
230
1.0
 0
LINE
 8
TOOL_0
 5
14
 10
77.879
 20
1337.855
 30
0
 11
466.023
 21
1337.855
 31
0
 0
ARC
 8
TOOL_0
 5
15
 10
466.023
 20
1322.855
 30
0
 40
15.0
 50
0
 51
90.0
210
0
220
0
230
1.0
 0
LINE
 8
TOOL_0
 5
16
 10
481.023
 20
1322.855
 30
0
 11
481.023
 21
1262.538
 31
0
 0
ARC
 8
TOOL_0
 5
17
 10
511.023
 20
1262.538
 30
0
 40
30.0
 50
180.0
 51
254.00030004417
210
0
220
0
230
1.0
 0
ARC
 8
TOOL_0
 5
18
 10
593.458
 20
1532.11
 30
0
 40
311.890595747932
 50
253.092949827997
 51
255.092628441127
210
0
220
0
230
1.0
 0
ARC
 8
TOOL_0
 5
19
 10
520.313
 20
1259.456
 30
0
 40
29.600885155684
 50
256.139802233345
 51
269.856765688608
210
0
220
0
230
1.0
 0
LINE
 8
TOOL_0
 5
1A
 10
520.239
 20
1229.855
 30
0
 11
612.023
 21
1229.855
 31
0
 0
ARC
 8
TOOL_0
 5
1B
 10
612.023
 20
1224.855
 30
0
 40
5.0
 50
0
 51
90.0
210
0
220
0
230
1.0
 0
LINE
 8
TOOL_0
 5
1C
 10
617.023
 20
1224.855
 30
0
 11
617.023
 21
1152.855
 31
0
 0
ARC
 8
TOOL_0
 5
1D
 10
612.023
 20
1152.855
 30
0
 40
5.0
 50
270.0
 51
0
210
0
220
0
230
1.0
 0
LINE
 8
TOOL_0
 5
1E
 10
612.023
 20
1147.855
 30
0
 11
612.023
 21
1137.535
 31
0
 0
ENDSEC
 0
EOF

