0
SECTION
2
TABLES
0
TABLE
2
LAYER
70
0
0
LAYER
2
LAYER_NAME
70
0
62
1
6
CONTINUOUS
0
ENDTAB
0
ENDSEC
 0
SECTION
 2
ENTITIES
 0
LINE
 8
TOOL_0
 5
1
 10
257.684
 20
383.473
 30
0
 11
257.684
 21
353.348
 31
0
 0
LINE
 8
TOOL_0
 5
2
 10
257.684
 20
353.348
 30
0
 11
255.105
 21
351.813
 31
0
 0
LINE
 8
TOOL_0
 5
3
 10
255.105
 20
351.813
 30
0
 11
255.105
 21
49.313
 31
0
 0
ARC
 8
TOOL_0
 5
4
 10
227.605
 20
49.313
 30
0
 40
27.5
 50
270.0
 51
0
210
0
220
0
230
1.0
 0
LINE
 8
TOOL_0
 5
5
 10
227.605
 20
21.813
 30
0
 11
44.605
 21
21.813
 31
0
 0
ARC
 8
TOOL_0
 5
6
 10
44.605
 20
49.313
 30
0
 40
27.5
 50
180.0
 51
270.0
210
0
220
0
230
1.0
 0
LINE
 8
TOOL_0
 5
7
 10
17.105
 20
49.313
 30
0
 11
17.105
 21
353.313
 31
0
 0
ARC
 8
TOOL_0
 5
8
 10
44.605
 20
353.313
 30
0
 40
27.5
 50
90.0
 51
180.0
210
0
220
0
230
1.0
 0
LINE
 8
TOOL_0
 5
9
 10
44.605
 20
380.813
 30
0
 11
227.605
 21
380.813
 31
0
 0
ARC
 8
TOOL_0
 5
A
 10
227.605
 20
353.313
 30
0
 40
27.5
 50
3.126782981757
 51
90.0
210
0
220
0
230
1.0
 0
LINE
 8
TOOL_0
 5
B
 10
255.064
 20
354.813
 30
0
 11
257.684
 21
353.349
 31
0
 0
LINE
 8
TOOL_0
 5
C
 10
257.684
 20
353.349
 30
0
 11
261.667
 21
348.212
 31
0
 0
LINE
 8
TOOL_0
 5
D
 10
261.667
 20
348.212
 30
0
 11
513.694
 21
378.737
 31
0
 0
LINE
 8
TOOL_0
 5
E
 10
513.694
 20
378.737
 30
0
 11
513.694
 21
348.612
 31
0
 0
LINE
 8
TOOL_0
 5
F
 10
513.694
 20
348.612
 30
0
 11
511.115
 21
347.077
 31
0
 0
LINE
 8
TOOL_0
 5
10
 10
511.115
 20
347.077
 30
0
 11
511.115
 21
44.577
 31
0
 0
ARC
 8
TOOL_0
 5
11
 10
483.615
 20
44.577
 30
0
 40
27.5
 50
270.0
 51
0
210
0
220
0
230
1.0
 0
LINE
 8
TOOL_0
 5
12
 10
483.615
 20
17.077
 30
0
 11
300.615
 21
17.077
 31
0
 0
ARC
 8
TOOL_0
 5
13
 10
300.615
 20
44.577
 30
0
 40
27.5
 50
180.0
 51
270.0
210
0
220
0
230
1.0
 0
LINE
 8
TOOL_0
 5
14
 10
273.115
 20
44.577
 30
0
 11
273.115
 21
348.577
 31
0
 0
ARC
 8
TOOL_0
 5
15
 10
300.615
 20
348.577
 30
0
 40
27.5
 50
90.0
 51
180.0
210
0
220
0
230
1.0
 0
LINE
 8
TOOL_0
 5
16
 10
300.615
 20
376.077
 30
0
 11
483.615
 21
376.077
 31
0
 0
ARC
 8
TOOL_0
 5
17
 10
483.615
 20
348.577
 30
0
 40
27.5
 50
3.126782981757
 51
90.0
210
0
220
0
230
1.0
 0
LINE
 8
TOOL_0
 5
18
 10
511.074
 20
350.077
 30
0
 11
513.694
 21
348.613
 31
0
 0
LINE
 8
TOOL_0
 5
19
 10
513.694
 20
348.613
 30
0
 11
517.677
 21
343.476
 31
0
 0
LINE
 8
TOOL_0
 5
1A
 10
517.677
 20
343.476
 30
0
 11
769.704
 21
378.737
 31
0
 0
LINE
 8
TOOL_0
 5
1B
 10
769.704
 20
378.737
 30
0
 11
769.704
 21
348.612
 31
0
 0
LINE
 8
TOOL_0
 5
1C
 10
769.704
 20
348.612
 30
0
 11
767.125
 21
347.077
 31
0
 0
LINE
 8
TOOL_0
 5
1D
 10
767.125
 20
347.077
 30
0
 11
767.125
 21
44.577
 31
0
 0
ARC
 8
TOOL_0
 5
1E
 10
739.625
 20
44.577
 30
0
 40
27.5
 50
270.0
 51
0
210
0
220
0
230
1.0
 0
LINE
 8
TOOL_0
 5
1F
 10
739.625
 20
17.077
 30
0
 11
556.625
 21
17.077
 31
0
 0
ARC
 8
TOOL_0
 5
20
 10
556.625
 20
44.577
 30
0
 40
27.5
 50
180.0
 51
270.0
210
0
220
0
230
1.0
 0
LINE
 8
TOOL_0
 5
21
 10
529.125
 20
44.577
 30
0
 11
529.125
 21
348.577
 31
0
 0
ARC
 8
TOOL_0
 5
22
 10
556.625
 20
348.577
 30
0
 40
27.5
 50
90.0
 51
180.0
210
0
220
0
230
1.0
 0
LINE
 8
TOOL_0
 5
23
 10
556.625
 20
376.077
 30
0
 11
739.625
 21
376.077
 31
0
 0
ARC
 8
TOOL_0
 5
24
 10
739.625
 20
348.577
 30
0
 40
27.5
 50
3.126782981757
 51
90.0
210
0
220
0
230
1.0
 0
LINE
 8
TOOL_0
 5
25
 10
767.084
 20
350.077
 30
0
 11
769.704
 21
348.613
 31
0
 0
LINE
 8
TOOL_0
 5
26
 10
769.704
 20
348.613
 30
0
 11
773.687
 21
343.476
 31
0
 0
ENDSEC
 0
EOF

