0
SECTION
2
TABLES
0
TABLE
2
LAYER
70
0
0
LAYER
2
LAYER_NAME
70
0
62
1
6
CONTINUOUS
0
ENDTAB
0
ENDSEC
 0
SECTION
 2
ENTITIES
 0
LINE
 8
TOOL_0
 5
1
 10
1123.98
 20
455.78
 30
0
 11
1158.986
 21
455.78
 31
0
 0
ARC
 8
TOOL_0
 5
2
 10
1118.986
 20
455.78
 30
0
 40
40.0
 50
0
 51
180.0
210
0
220
0
230
1.0
 0
ARC
 8
TOOL_0
 5
3
 10
1118.986
 20
455.78
 30
0
 40
40.0
 50
180.0
 51
0
210
0
220
0
230
1.0
 0
LINE
 8
TOOL_0
 5
4
 10
1158.986
 20
455.78
 30
0
 11
1151.765
 21
462.181
 31
0
 0
LINE
 8
TOOL_0
 5
5
 10
1151.765
 20
462.181
 30
0
 11
1342.518
 21
455.78
 31
0
 0
LINE
 8
TOOL_0
 5
6
 10
1342.518
 20
455.78
 30
0
 11
1377.049
 21
455.78
 31
0
 0
ARC
 8
TOOL_0
 5
7
 10
1337.049
 20
455.78
 30
0
 40
40.0
 50
0
 51
180.0
210
0
220
0
230
1.0
 0
ARC
 8
TOOL_0
 5
8
 10
1337.049
 20
455.78
 30
0
 40
40.0
 50
180.0
 51
0
210
0
220
0
230
1.0
 0
LINE
 8
TOOL_0
 5
9
 10
1377.049
 20
455.78
 30
0
 11
1370.069
 21
462.415
 31
0
 0
LINE
 8
TOOL_0
 5
A
 10
1370.069
 20
462.415
 30
0
 11
1451.219
 21
317.414
 31
0
 0
LINE
 8
TOOL_0
 5
B
 10
1451.219
 20
317.414
 30
0
 11
1425.017
 21
317.414
 31
0
 0
LINE
 8
TOOL_0
 5
C
 10
1425.017
 20
317.414
 30
0
 11
1031.017
 21
317.414
 31
0
 0
ARC
 8
TOOL_0
 5
D
 10
1031.017
 20
346.164
 30
0
 40
28.75
 50
180.0
 51
270.0
210
0
220
0
230
1.0
 0
LINE
 8
TOOL_0
 5
E
 10
1002.267
 20
346.164
 30
0
 11
1002.267
 21
521.164
 31
0
 0
ARC
 8
TOOL_0
 5
F
 10
1031.017
 20
521.164
 30
0
 40
28.75
 50
90.0
 51
180.0
210
0
220
0
230
1.0
 0
LINE
 8
TOOL_0
 5
10
 10
1031.017
 20
549.914
 30
0
 11
1425.017
 21
549.914
 31
0
 0
ARC
 8
TOOL_0
 5
11
 10
1425.017
 20
521.164
 30
0
 40
28.75
 50
0
 51
90.0
210
0
220
0
230
1.0
 0
LINE
 8
TOOL_0
 5
12
 10
1453.767
 20
521.164
 30
0
 11
1453.767
 21
346.164
 31
0
 0
ARC
 8
TOOL_0
 5
13
 10
1425.017
 20
346.164
 30
0
 40
28.75
 50
270.0
 51
0
210
0
220
0
230
1.0
 0
LINE
 8
TOOL_0
 5
14
 10
1425.017
 20
317.414
 30
0
 11
1425.017
 21
307.462
 31
0
 0
LINE
 8
TOOL_0
 5
15
 10
1425.017
 20
307.462
 30
0
 11
1127.597
 21
739.065
 31
0
 0
LINE
 8
TOOL_0
 5
16
 10
1127.597
 20
739.065
 30
0
 11
1162.251
 21
739.065
 31
0
 0
ARC
 8
TOOL_0
 5
17
 10
1122.251
 20
739.065
 30
0
 40
40.0
 50
0
 51
180.0
210
0
220
0
230
1.0
 0
ARC
 8
TOOL_0
 5
18
 10
1122.251
 20
739.065
 30
0
 40
40.0
 50
180.0
 51
0
210
0
220
0
230
1.0
 0
LINE
 8
TOOL_0
 5
19
 10
1162.251
 20
739.065
 30
0
 11
1156.152
 21
745.149
 31
0
 0
LINE
 8
TOOL_0
 5
1A
 10
1156.152
 20
745.149
 30
0
 11
1345.428
 21
739.065
 31
0
 0
LINE
 8
TOOL_0
 5
1B
 10
1345.428
 20
739.065
 30
0
 11
1380.315
 21
739.065
 31
0
 0
ARC
 8
TOOL_0
 5
1C
 10
1340.315
 20
739.065
 30
0
 40
40.0
 50
0
 51
180.0
210
0
220
0
230
1.0
 0
ARC
 8
TOOL_0
 5
1D
 10
1340.315
 20
739.065
 30
0
 40
40.0
 50
180.0
 51
0
210
0
220
0
230
1.0
 0
LINE
 8
TOOL_0
 5
1E
 10
1380.315
 20
739.065
 30
0
 11
1373.946
 21
745.113
 31
0
 0
LINE
 8
TOOL_0
 5
1F
 10
1373.946
 20
745.113
 30
0
 11
1455.834
 21
600.699
 31
0
 0
LINE
 8
TOOL_0
 5
20
 10
1455.834
 20
600.699
 30
0
 11
1428.283
 21
600.699
 31
0
 0
LINE
 8
TOOL_0
 5
21
 10
1428.283
 20
600.699
 30
0
 11
1034.283
 21
600.699
 31
0
 0
ARC
 8
TOOL_0
 5
22
 10
1034.283
 20
629.449
 30
0
 40
28.75
 50
180.0
 51
270.0
210
0
220
0
230
1.0
 0
LINE
 8
TOOL_0
 5
23
 10
1005.533
 20
629.449
 30
0
 11
1005.533
 21
804.449
 31
0
 0
ARC
 8
TOOL_0
 5
24
 10
1034.283
 20
804.449
 30
0
 40
28.75
 50
90.0
 51
180.0
210
0
220
0
230
1.0
 0
LINE
 8
TOOL_0
 5
25
 10
1034.283
 20
833.199
 30
0
 11
1428.283
 21
833.199
 31
0
 0
ARC
 8
TOOL_0
 5
26
 10
1428.283
 20
804.449
 30
0
 40
28.75
 50
0
 51
90.0
210
0
220
0
230
1.0
 0
LINE
 8
TOOL_0
 5
27
 10
1457.033
 20
804.449
 30
0
 11
1457.033
 21
629.449
 31
0
 0
ARC
 8
TOOL_0
 5
28
 10
1428.283
 20
629.449
 30
0
 40
28.75
 50
270.0
 51
0
210
0
220
0
230
1.0
 0
LINE
 8
TOOL_0
 5
29
 10
1428.283
 20
600.699
 30
0
 11
1428.283
 21
590.804
 31
0
 0
LINE
 8
TOOL_0
 5
2A
 10
1428.283
 20
590.804
 30
0
 11
1127.215
 21
1045.277
 31
0
 0
LINE
 8
TOOL_0
 5
2B
 10
1127.215
 20
1045.277
 30
0
 11
1162.252
 21
1045.277
 31
0
 0
ARC
 8
TOOL_0
 5
2C
 10
1122.252
 20
1045.277
 30
0
 40
40.0
 50
0
 51
180.0
210
0
220
0
230
1.0
 0
ARC
 8
TOOL_0
 5
2D
 10
1122.252
 20
1045.277
 30
0
 40
40.0
 50
180.0
 51
0
210
0
220
0
230
1.0
 0
LINE
 8
TOOL_0
 5
2E
 10
1162.252
 20
1045.277
 30
0
 11
1158.412
 21
1050.122
 31
0
 0
LINE
 8
TOOL_0
 5
2F
 10
1158.412
 20
1050.122
 30
0
 11
1345.196
 21
1045.277
 31
0
 0
LINE
 8
TOOL_0
 5
30
 10
1345.196
 20
1045.277
 30
0
 11
1380.315
 21
1045.277
 31
0
 0
ARC
 8
TOOL_0
 5
31
 10
1340.315
 20
1045.277
 30
0
 40
40.0
 50
0
 51
180.0
210
0
220
0
230
1.0
 0
ARC
 8
TOOL_0
 5
32
 10
1340.315
 20
1045.277
 30
0
 40
40.0
 50
180.0
 51
0
210
0
220
0
230
1.0
 0
LINE
 8
TOOL_0
 5
33
 10
1380.315
 20
1045.277
 30
0
 11
1377.02
 21
1048.888
 31
0
 0
LINE
 8
TOOL_0
 5
34
 10
1377.02
 20
1048.888
 30
0
 11
1461.592
 21
906.911
 31
0
 0
LINE
 8
TOOL_0
 5
35
 10
1461.592
 20
906.911
 30
0
 11
1428.283
 21
906.911
 31
0
 0
LINE
 8
TOOL_0
 5
36
 10
1428.283
 20
906.911
 30
0
 11
1034.283
 21
906.911
 31
0
 0
ARC
 8
TOOL_0
 5
37
 10
1034.283
 20
935.661
 30
0
 40
28.75
 50
180.0
 51
270.0
210
0
220
0
230
1.0
 0
LINE
 8
TOOL_0
 5
38
 10
1005.533
 20
935.661
 30
0
 11
1005.533
 21
1110.661
 31
0
 0
ARC
 8
TOOL_0
 5
39
 10
1034.283
 20
1110.661
 30
0
 40
28.75
 50
90.0
 51
180.0
210
0
220
0
230
1.0
 0
LINE
 8
TOOL_0
 5
3A
 10
1034.283
 20
1139.411
 30
0
 11
1428.283
 21
1139.411
 31
0
 0
ARC
 8
TOOL_0
 5
3B
 10
1428.283
 20
1110.661
 30
0
 40
28.75
 50
0
 51
90.0
210
0
220
0
230
1.0
 0
LINE
 8
TOOL_0
 5
3C
 10
1457.033
 20
1110.661
 30
0
 11
1457.033
 21
935.661
 31
0
 0
ARC
 8
TOOL_0
 5
3D
 10
1428.283
 20
935.661
 30
0
 40
28.75
 50
270.0
 51
0
210
0
220
0
230
1.0
 0
LINE
 8
TOOL_0
 5
3E
 10
1428.283
 20
906.911
 30
0
 11
1428.283
 21
898.254
 31
0
 0
LINE
 8
TOOL_0
 5
3F
 10
1428.283
 20
898.254
 30
0
 11
1695.444
 21
725.377
 31
0
 0
LINE
 8
TOOL_0
 5
40
 10
1695.444
 20
725.377
 30
0
 11
1730.501
 21
725.377
 31
0
 0
LINE
 8
TOOL_0
 5
41
 10
1730.501
 20
725.377
 30
0
 11
1730.501
 21
1040.377
 31
0
 0
ARC
 8
TOOL_0
 5
42
 10
1570.501
 20
1040.377
 30
0
 40
160.0
 50
0
 51
90.0
210
0
220
0
230
1.0
 0
LINE
 8
TOOL_0
 5
43
 10
1570.501
 20
1200.377
 30
0
 11
940.501
 21
1200.377
 31
0
 0
ARC
 8
TOOL_0
 5
44
 10
940.501
 20
1040.377
 30
0
 40
160.0
 50
90.0
 51
180.0
210
0
220
0
230
1.0
 0
LINE
 8
TOOL_0
 5
45
 10
780.501
 20
1040.377
 30
0
 11
780.501
 21
410.377
 31
0
 0
ARC
 8
TOOL_0
 5
46
 10
940.501
 20
410.377
 30
0
 40
160.0
 50
180.0
 51
270.0
210
0
220
0
230
1.0
 0
LINE
 8
TOOL_0
 5
47
 10
940.501
 20
250.377
 30
0
 11
1570.501
 21
250.377
 31
0
 0
ARC
 8
TOOL_0
 5
48
 10
1570.501
 20
410.377
 30
0
 40
160.0
 50
270.0
 51
359.999641901378
210
0
220
0
230
1.0
 0
LINE
 8
TOOL_0
 5
49
 10
1730.501
 20
410.376
 30
0
 11
1730.501
 21
725.377
 31
0
 0
LINE
 8
TOOL_0
 5
4A
 10
1730.501
 20
725.377
 30
0
 11
1725.602
 21
731.612
 31
0
 0
LINE
 8
TOOL_0
 5
4B
 10
1725.602
 20
731.612
 30
0
 11
2996.501
 21
19.377
 31
0
 0
LINE
 8
TOOL_0
 5
4C
 10
2996.501
 20
19.377
 30
0
 11
2961.501
 21
19.377
 31
0
 0
LINE
 8
TOOL_0
 5
4D
 10
2961.501
 20
19.377
 30
0
 11
709.501
 21
19.377
 31
0
 0
LINE
 8
TOOL_0
 5
4E
 10
709.501
 20
19.377
 30
0
 11
709.501
 21
89.377
 31
0
 0
LINE
 8
TOOL_0
 5
4F
 10
709.501
 20
89.377
 30
0
 11
549.501
 21
89.377
 31
0
 0
LINE
 8
TOOL_0
 5
50
 10
549.501
 20
89.377
 30
0
 11
549.501
 21
857.592
 31
0
 0
ARC
 8
TOOL_0
 5
51
 10
515.501
 20
892.877
 30
0
 40
49.000318621413
 50
313.93748088808
 51
46.061707758402
210
0
220
0
230
1.0
 0
LINE
 8
TOOL_0
 5
52
 10
549.501
 20
928.161
 30
0
 11
549.501
 21
1361.377
 31
0
 0
LINE
 8
TOOL_0
 5
53
 10
549.501
 20
1361.377
 30
0
 11
709.501
 21
1361.377
 31
0
 0
LINE
 8
TOOL_0
 5
54
 10
709.501
 20
1361.377
 30
0
 11
709.501
 21
1931.377
 31
0
 0
LINE
 8
TOOL_0
 5
55
 10
709.501
 20
1931.377
 30
0
 11
2961.501
 21
1931.377
 31
0
 0
LINE
 8
TOOL_0
 5
56
 10
2961.501
 20
1931.377
 30
0
 11
2961.501
 21
895.377
 31
0
 0
LINE
 8
TOOL_0
 5
57
 10
2961.501
 20
895.377
 30
0
 11
2855.501
 21
895.377
 31
0
 0
LINE
 8
TOOL_0
 5
58
 10
2855.501
 20
895.377
 30
0
 11
2855.501
 21
555.377
 31
0
 0
LINE
 8
TOOL_0
 5
59
 10
2855.501
 20
555.377
 30
0
 11
2961.501
 21
555.377
 31
0
 0
LINE
 8
TOOL_0
 5
5A
 10
2961.501
 20
555.377
 30
0
 11
2961.501
 21
19.377
 31
0
 0
LINE
 8
TOOL_0
 5
5B
 10
2961.501
 20
19.377
 30
0
 11
2961.501
 21
14.377
 31
0
 0
LINE
 8
TOOL_0
 5
5C
 10
2961.501
 20
14.377
 30
0
 11
4125.258
 21
725.378
 31
0
 0
LINE
 8
TOOL_0
 5
5D
 10
4125.258
 20
725.378
 30
0
 11
4160.641
 21
725.378
 31
0
 0
LINE
 8
TOOL_0
 5
5E
 10
4160.641
 20
725.378
 30
0
 11
4160.641
 21
1040.378
 31
0
 0
ARC
 8
TOOL_0
 5
5F
 10
4000.641
 20
1040.378
 30
0
 40
160.0
 50
0
 51
90.0
210
0
220
0
230
1.0
 0
LINE
 8
TOOL_0
 5
60
 10
4000.641
 20
1200.378
 30
0
 11
3370.641
 21
1200.378
 31
0
 0
ARC
 8
TOOL_0
 5
61
 10
3370.641
 20
1040.378
 30
0
 40
160.0
 50
90.0
 51
180.0
210
0
220
0
230
1.0
 0
LINE
 8
TOOL_0
 5
62
 10
3210.641
 20
1040.378
 30
0
 11
3210.641
 21
410.378
 31
0
 0
ARC
 8
TOOL_0
 5
63
 10
3370.641
 20
410.378
 30
0
 40
160.0
 50
180.0
 51
270.0
210
0
220
0
230
1.0
 0
LINE
 8
TOOL_0
 5
64
 10
3370.641
 20
250.378
 30
0
 11
4000.641
 21
250.378
 31
0
 0
ARC
 8
TOOL_0
 5
65
 10
4000.641
 20
410.378
 30
0
 40
160.0
 50
270.0
 51
359.999641901378
210
0
220
0
230
1.0
 0
LINE
 8
TOOL_0
 5
66
 10
4160.641
 20
410.377
 30
0
 11
4160.641
 21
725.378
 31
0
 0
LINE
 8
TOOL_0
 5
67
 10
4160.641
 20
725.378
 30
0
 11
4152.48
 21
733.043
 31
0
 0
LINE
 8
TOOL_0
 5
68
 10
4152.48
 20
733.043
 30
0
 11
5426.641
 21
19.378
 31
0
 0
LINE
 8
TOOL_0
 5
69
 10
5426.641
 20
19.378
 30
0
 11
5391.641
 21
19.378
 31
0
 0
LINE
 8
TOOL_0
 5
6A
 10
5391.641
 20
19.378
 30
0
 11
3139.641
 21
19.378
 31
0
 0
LINE
 8
TOOL_0
 5
6B
 10
3139.641
 20
19.378
 30
0
 11
3139.641
 21
89.378
 31
0
 0
LINE
 8
TOOL_0
 5
6C
 10
3139.641
 20
89.378
 30
0
 11
2979.641
 21
89.378
 31
0
 0
LINE
 8
TOOL_0
 5
6D
 10
2979.641
 20
89.378
 30
0
 11
2979.641
 21
857.593
 31
0
 0
ARC
 8
TOOL_0
 5
6E
 10
2945.641
 20
892.878
 30
0
 40
49.000318621413
 50
313.93748088808
 51
46.061707758402
210
0
220
0
230
1.0
 0
LINE
 8
TOOL_0
 5
6F
 10
2979.641
 20
928.162
 30
0
 11
2979.641
 21
1361.378
 31
0
 0
LINE
 8
TOOL_0
 5
70
 10
2979.641
 20
1361.378
 30
0
 11
3139.641
 21
1361.378
 31
0
 0
LINE
 8
TOOL_0
 5
71
 10
3139.641
 20
1361.378
 30
0
 11
3139.641
 21
1931.378
 31
0
 0
LINE
 8
TOOL_0
 5
72
 10
3139.641
 20
1931.378
 30
0
 11
5391.641
 21
1931.378
 31
0
 0
LINE
 8
TOOL_0
 5
73
 10
5391.641
 20
1931.378
 30
0
 11
5391.641
 21
895.378
 31
0
 0
LINE
 8
TOOL_0
 5
74
 10
5391.641
 20
895.378
 30
0
 11
5285.641
 21
895.378
 31
0
 0
LINE
 8
TOOL_0
 5
75
 10
5285.641
 20
895.378
 30
0
 11
5285.641
 21
555.378
 31
0
 0
LINE
 8
TOOL_0
 5
76
 10
5285.641
 20
555.378
 30
0
 11
5391.641
 21
555.378
 31
0
 0
LINE
 8
TOOL_0
 5
77
 10
5391.641
 20
555.378
 30
0
 11
5391.641
 21
19.378
 31
0
 0
LINE
 8
TOOL_0
 5
78
 10
5391.641
 20
19.378
 30
0
 11
5391.641
 21
14.378
 31
0
 0
LINE
 8
TOOL_0
 5
79
 10
5391.641
 20
14.378
 30
0
 11
5429.845
 21
0
 31
0
 0
LINE
 8
TOOL_0
 5
7A
 10
5429.845
 20
0
 30
0
 11
5429.845
 21
1.0
 31
0
 0
LINE
 8
TOOL_0
 5
7B
 10
5429.845
 20
1.0
 30
0
 11
5429.845
 21
0
 31
0
 0
LINE
 8
TOOL_0
 5
7C
 10
5429.845
 20
0
 30
0
 11
5429.845
 21
1.0
 31
0
 0
LINE
 8
TOOL_0
 5
7D
 10
5429.845
 20
1.0
 30
0
 11
5429.845
 21
1978.234
 31
0
 0
LINE
 8
TOOL_0
 5
7E
 10
5429.845
 20
1978.234
 30
0
 11
527.425
 21
1978.234
 31
0
 0
LINE
 8
TOOL_0
 5
7F
 10
527.425
 20
1978.234
 30
0
 11
527.425
 21
533.076
 31
0
 0
LINE
 8
TOOL_0
 5
80
 10
527.425
 20
533.076
 30
0
 11
527.425
 21
532.076
 31
0
 0
ENDSEC
 0
EOF

