0
SECTION
2
TABLES
0
TABLE
2
LAYER
70
0
0
LAYER
2
LAYER_NAME
70
0
62
1
6
CONTINUOUS
0
ENDTAB
0
ENDSEC
 0
SECTION
 2
ENTITIES
 0
LINE
 8
TOOL_0
 5
1
 10
760.25
 20
1091.277
 30
0
 11
790.25
 21
1091.277
 31
0
 0
LINE
 8
TOOL_0
 5
2
 10
790.25
 20
1091.277
 30
0
 11
790.25
 21
1126.277
 31
0
 0
ARC
 8
TOOL_0
 5
3
 10
770.25
 20
1126.277
 30
0
 40
20.0
 50
0
 51
90.0
210
0
220
0
230
1.0
 0
LINE
 8
TOOL_0
 5
4
 10
770.25
 20
1146.277
 30
0
 11
360.25
 21
1146.277
 31
0
 0
ARC
 8
TOOL_0
 5
5
 10
360.25
 20
1126.277
 30
0
 40
20.0
 50
90.0
 51
180.0
210
0
220
0
230
1.0
 0
LINE
 8
TOOL_0
 5
6
 10
340.25
 20
1126.277
 30
0
 11
340.25
 21
1056.277
 31
0
 0
ARC
 8
TOOL_0
 5
7
 10
360.25
 20
1056.277
 30
0
 40
20.0
 50
180.0
 51
270.0
210
0
220
0
230
1.0
 0
LINE
 8
TOOL_0
 5
8
 10
360.25
 20
1036.277
 30
0
 11
770.25
 21
1036.277
 31
0
 0
ARC
 8
TOOL_0
 5
9
 10
770.25
 20
1056.277
 30
0
 40
20.0
 50
270.0
 51
0
210
0
220
0
230
1.0
 0
LINE
 8
TOOL_0
 5
A
 10
790.25
 20
1056.277
 30
0
 11
790.25
 21
1091.277
 31
0
 0
LINE
 8
TOOL_0
 5
B
 10
790.25
 20
1091.277
 30
0
 11
783.179
 21
1098.348
 31
0
 0
LINE
 8
TOOL_0
 5
C
 10
783.179
 20
1098.348
 30
0
 11
1111.5
 21
1322.177
 31
0
 0
LINE
 8
TOOL_0
 5
D
 10
1111.5
 20
1322.177
 30
0
 11
1111.5
 21
1287.177
 31
0
 0
LINE
 8
TOOL_0
 5
E
 10
1111.5
 20
1287.177
 30
0
 11
1111.5
 21
1190.027
 31
0
 0
LINE
 8
TOOL_0
 5
F
 10
1111.5
 20
1190.027
 30
0
 11
1080.25
 21
1190.027
 31
0
 0
ARC
 8
TOOL_0
 5
10
 10
1080.25
 20
1171.277
 30
0
 40
18.75
 50
90.0
 51
180.0
210
0
220
0
230
1.0
 0
LINE
 8
TOOL_0
 5
11
 10
1061.5
 20
1171.277
 30
0
 11
1061.5
 21
1031.277
 31
0
 0
ARC
 8
TOOL_0
 5
12
 10
1080.25
 20
1031.277
 30
0
 40
18.75
 50
180.0
 51
270.0
210
0
220
0
230
1.0
 0
LINE
 8
TOOL_0
 5
13
 10
1080.25
 20
1012.527
 30
0
 11
1111.5
 21
1012.527
 31
0
 0
LINE
 8
TOOL_0
 5
14
 10
1111.5
 20
1012.527
 30
0
 11
1111.5
 21
951.277
 31
0
 0
LINE
 8
TOOL_0
 5
15
 10
1111.5
 20
951.277
 30
0
 11
19.0
 21
951.277
 31
0
 0
LINE
 8
TOOL_0
 5
16
 10
19.0
 20
951.277
 30
0
 11
19.0
 21
1012.527
 31
0
 0
LINE
 8
TOOL_0
 5
17
 10
19.0
 20
1012.527
 30
0
 11
50.25
 21
1012.527
 31
0
 0
ARC
 8
TOOL_0
 5
18
 10
50.25
 20
1031.277
 30
0
 40
18.75
 50
270.0
 51
0
210
0
220
0
230
1.0
 0
LINE
 8
TOOL_0
 5
19
 10
69.0
 20
1031.277
 30
0
 11
69.0
 21
1171.277
 31
0
 0
ARC
 8
TOOL_0
 5
1A
 10
50.25
 20
1171.277
 30
0
 40
18.75
 50
0
 51
90.0
210
0
220
0
230
1.0
 0
LINE
 8
TOOL_0
 5
1B
 10
50.25
 20
1190.027
 30
0
 11
19.0
 21
1190.027
 31
0
 0
LINE
 8
TOOL_0
 5
1C
 10
19.0
 20
1190.027
 30
0
 11
19.0
 21
1287.177
 31
0
 0
LINE
 8
TOOL_0
 5
1D
 10
19.0
 20
1287.177
 30
0
 11
200.491
 21
1287.177
 31
0
 0
LINE
 8
TOOL_0
 5
1E
 10
200.491
 20
1287.177
 30
0
 11
269.773
 21
1247.177
 31
0
 0
LINE
 8
TOOL_0
 5
1F
 10
269.773
 20
1247.177
 30
0
 11
400.623
 21
1247.177
 31
0
 0
LINE
 8
TOOL_0
 5
20
 10
400.623
 20
1247.177
 30
0
 11
430.623
 21
1217.177
 31
0
 0
LINE
 8
TOOL_0
 5
21
 10
430.623
 20
1217.177
 30
0
 11
699.877
 21
1217.177
 31
0
 0
LINE
 8
TOOL_0
 5
22
 10
699.877
 20
1217.177
 30
0
 11
729.877
 21
1247.177
 31
0
 0
LINE
 8
TOOL_0
 5
23
 10
729.877
 20
1247.177
 30
0
 11
860.727
 21
1247.177
 31
0
 0
LINE
 8
TOOL_0
 5
24
 10
860.727
 20
1247.177
 30
0
 11
930.009
 21
1287.177
 31
0
 0
LINE
 8
TOOL_0
 5
25
 10
930.009
 20
1287.177
 30
0
 11
1111.5
 21
1287.177
 31
0
 0
LINE
 8
TOOL_0
 5
26
 10
1111.5
 20
1287.177
 30
0
 11
1116.5
 21
1287.177
 31
0
 0
LINE
 8
TOOL_0
 5
27
 10
1116.5
 20
1287.177
 30
0
 11
476.962
 21
1314.025
 31
0
 0
LINE
 8
TOOL_0
 5
28
 10
476.962
 20
1314.025
 30
0
 11
452.213
 21
1314.025
 31
0
 0
ARC
 8
TOOL_0
 5
29
 10
431.0
 20
1335.238
 30
0
 40
29.999712298621
 50
270.0
 51
315.0
210
0
220
0
230
1.0
 0
LINE
 8
TOOL_0
 5
2A
 10
431.0
 20
1305.238
 30
0
 11
49.0
 21
1305.238
 31
0
 0
ARC
 8
TOOL_0
 5
2B
 10
49.0
 20
1335.238
 30
0
 40
30.0
 50
180.0
 51
270.0
210
0
220
0
230
1.0
 0
LINE
 8
TOOL_0
 5
2C
 10
19.0
 20
1335.238
 30
0
 11
19.0
 21
1536.838
 31
0
 0
ARC
 8
TOOL_0
 5
2D
 10
49.0
 20
1536.838
 30
0
 40
30.0
 50
90.0
 51
180.0
210
0
220
0
230
1.0
 0
LINE
 8
TOOL_0
 5
2E
 10
49.0
 20
1566.838
 30
0
 11
318.0
 21
1566.838
 31
0
 0
ARC
 8
TOOL_0
 5
2F
 10
318.0
 20
1536.838
 30
0
 40
30.0
 50
0
 51
90.0
210
0
220
0
230
1.0
 0
LINE
 8
TOOL_0
 5
30
 10
348.0
 20
1536.838
 30
0
 11
348.0
 21
1446.038
 31
0
 0
ARC
 8
TOOL_0
 5
31
 10
378.0
 20
1446.038
 30
0
 40
30.0
 50
180.0
 51
270.0
210
0
220
0
230
1.0
 0
LINE
 8
TOOL_0
 5
32
 10
378.0
 20
1416.038
 30
0
 11
431.0
 21
1416.038
 31
0
 0
ARC
 8
TOOL_0
 5
33
 10
431.0
 20
1386.038
 30
0
 40
30.0
 50
0
 51
90.0
210
0
220
0
230
1.0
 0
LINE
 8
TOOL_0
 5
34
 10
461.0
 20
1386.038
 30
0
 11
461.0
 21
1335.238
 31
0
 0
ARC
 8
TOOL_0
 5
35
 10
431.0
 20
1335.238
 30
0
 40
30.0
 50
315.0
 51
0
210
0
220
0
230
1.0
 0
LINE
 8
TOOL_0
 5
36
 10
452.213
 20
1314.025
 30
0
 11
452.213
 21
1310.489
 31
0
 0
LINE
 8
TOOL_0
 5
37
 10
452.213
 20
1310.489
 30
0
 11
834.319
 21
1315.175
 31
0
 0
LINE
 8
TOOL_0
 5
38
 10
834.319
 20
1315.175
 30
0
 11
799.319
 21
1315.175
 31
0
 0
ARC
 8
TOOL_0
 5
39
 10
778.106
 20
1336.388
 30
0
 40
29.99971229862
 50
270.0
 51
315.0
210
0
220
0
230
1.0
 0
LINE
 8
TOOL_0
 5
3A
 10
778.106
 20
1306.388
 30
0
 11
509.106
 21
1306.388
 31
0
 0
ARC
 8
TOOL_0
 5
3B
 10
509.106
 20
1336.388
 30
0
 40
30.0
 50
180.0
 51
270.0
210
0
220
0
230
1.0
 0
LINE
 8
TOOL_0
 5
3C
 10
479.106
 20
1336.388
 30
0
 11
479.106
 21
1427.188
 31
0
 0
ARC
 8
TOOL_0
 5
3D
 10
449.106
 20
1427.188
 30
0
 40
30.0
 50
0
 51
90.0
210
0
220
0
230
1.0
 0
LINE
 8
TOOL_0
 5
3E
 10
449.106
 20
1457.188
 30
0
 11
396.106
 21
1457.188
 31
0
 0
ARC
 8
TOOL_0
 5
3F
 10
396.106
 20
1487.188
 30
0
 40
30.0
 50
180.0
 51
270.0
210
0
220
0
230
1.0
 0
LINE
 8
TOOL_0
 5
40
 10
366.106
 20
1487.188
 30
0
 11
366.106
 21
1537.988
 31
0
 0
ARC
 8
TOOL_0
 5
41
 10
396.106
 20
1537.988
 30
0
 40
30.0
 50
90.0
 51
180.0
210
0
220
0
230
1.0
 0
LINE
 8
TOOL_0
 5
42
 10
396.106
 20
1567.988
 30
0
 11
778.106
 21
1567.988
 31
0
 0
ARC
 8
TOOL_0
 5
43
 10
778.106
 20
1537.988
 30
0
 40
30.0
 50
0
 51
90.0
210
0
220
0
230
1.0
 0
LINE
 8
TOOL_0
 5
44
 10
808.106
 20
1537.988
 30
0
 11
808.106
 21
1336.388
 31
0
 0
ARC
 8
TOOL_0
 5
45
 10
778.106
 20
1336.388
 30
0
 40
30.0
 50
315.0
 51
0
210
0
220
0
230
1.0
 0
LINE
 8
TOOL_0
 5
46
 10
799.319
 20
1315.175
 30
0
 11
799.319
 21
1310.175
 31
0
 0
LINE
 8
TOOL_0
 5
47
 10
799.319
 20
1310.175
 30
0
 11
0
 21
1597.606
 31
0
 0
LINE
 8
TOOL_0
 5
48
 10
0
 20
1597.606
 30
0
 11
1.0
 21
1597.606
 31
0
 0
LINE
 8
TOOL_0
 5
49
 10
1.0
 20
1597.606
 30
0
 11
0
 21
1597.606
 31
0
 0
LINE
 8
TOOL_0
 5
4A
 10
0
 20
1597.606
 30
0
 11
1.0
 21
1597.606
 31
0
 0
LINE
 8
TOOL_0
 5
4B
 10
1.0
 20
1597.606
 30
0
 11
1197.019
 21
1597.606
 31
0
 0
LINE
 8
TOOL_0
 5
4C
 10
1197.019
 20
1597.606
 30
0
 11
1197.019
 21
950.072
 31
0
 0
LINE
 8
TOOL_0
 5
4D
 10
1197.019
 20
950.072
 30
0
 11
6805.914
 21
950.072
 31
0
 0
LINE
 8
TOOL_0
 5
4E
 10
6805.914
 20
950.072
 30
0
 11
6805.914
 21
0.999
 31
0
 0
LINE
 8
TOOL_0
 5
4F
 10
6805.914
 20
0.999
 30
0
 11
6805.914
 21
-0.001
 31
0
 0
ENDSEC
 0
EOF

