0
SECTION
2
TABLES
0
TABLE
2
LAYER
70
0
0
LAYER
2
LAYER_NAME
70
0
62
1
6
CONTINUOUS
0
ENDTAB
0
ENDSEC
 0
SECTION
 2
ENTITIES
 0
LINE
 8
TOOL_0
 5
1
 10
6769.703
 20
1053.543
 30
0
 11
6804.703
 21
1053.543
 31
0
 0
LINE
 8
TOOL_0
 5
2
 10
6804.703
 20
1053.543
 30
0
 11
6804.703
 21
1166.043
 31
0
 0
ARC
 8
TOOL_0
 5
3
 10
6769.703
 20
1166.043
 30
0
 40
35.0
 50
0
 51
90.0
210
0
220
0
230
1.0
 0
LINE
 8
TOOL_0
 5
4
 10
6769.703
 20
1201.043
 30
0
 11
6639.703
 21
1201.043
 31
0
 0
ARC
 8
TOOL_0
 5
5
 10
6639.703
 20
1166.043
 30
0
 40
35.0
 50
90.0
 51
180.0
210
0
220
0
230
1.0
 0
LINE
 8
TOOL_0
 5
6
 10
6604.703
 20
1166.043
 30
0
 11
6604.703
 21
941.043
 31
0
 0
ARC
 8
TOOL_0
 5
7
 10
6639.703
 20
941.043
 30
0
 40
35.0
 50
180.0
 51
270.0
210
0
220
0
230
1.0
 0
LINE
 8
TOOL_0
 5
8
 10
6639.703
 20
906.043
 30
0
 11
6769.703
 21
906.043
 31
0
 0
ARC
 8
TOOL_0
 5
9
 10
6769.703
 20
941.043
 30
0
 40
35.0
 50
270.0
 51
0
210
0
220
0
230
1.0
 0
LINE
 8
TOOL_0
 5
A
 10
6804.703
 20
941.043
 30
0
 11
6804.703
 21
1053.543
 31
0
 0
LINE
 8
TOOL_0
 5
B
 10
6804.703
 20
1053.543
 30
0
 11
6794.096
 21
1064.15
 31
0
 0
LINE
 8
TOOL_0
 5
C
 10
6794.096
 20
1064.15
 30
0
 11
7159.702
 21
1033.543
 31
0
 0
LINE
 8
TOOL_0
 5
D
 10
7159.702
 20
1033.543
 30
0
 11
7194.702
 21
1033.543
 31
0
 0
LINE
 8
TOOL_0
 5
E
 10
7194.702
 20
1033.543
 30
0
 11
7194.702
 21
1166.043
 31
0
 0
ARC
 8
TOOL_0
 5
F
 10
7159.702
 20
1166.043
 30
0
 40
35.0
 50
0
 51
90.0
210
0
220
0
230
1.0
 0
LINE
 8
TOOL_0
 5
10
 10
7159.702
 20
1201.043
 30
0
 11
7029.702
 21
1201.043
 31
0
 0
ARC
 8
TOOL_0
 5
11
 10
7029.702
 20
1166.043
 30
0
 40
35.0
 50
90.0
 51
180.0
210
0
220
0
230
1.0
 0
LINE
 8
TOOL_0
 5
12
 10
6994.702
 20
1166.043
 30
0
 11
6994.702
 21
901.043
 31
0
 0
ARC
 8
TOOL_0
 5
13
 10
7029.702
 20
901.043
 30
0
 40
35.0
 50
180.0
 51
270.0
210
0
220
0
230
1.0
 0
LINE
 8
TOOL_0
 5
14
 10
7029.702
 20
866.043
 30
0
 11
7159.702
 21
866.043
 31
0
 0
ARC
 8
TOOL_0
 5
15
 10
7159.702
 20
901.043
 30
0
 40
35.0
 50
270.0
 51
0
210
0
220
0
230
1.0
 0
LINE
 8
TOOL_0
 5
16
 10
7194.702
 20
901.043
 30
0
 11
7194.702
 21
1033.543
 31
0
 0
LINE
 8
TOOL_0
 5
17
 10
7194.702
 20
1033.543
 30
0
 11
7184.095
 21
1044.15
 31
0
 0
LINE
 8
TOOL_0
 5
18
 10
7184.095
 20
1044.15
 30
0
 11
7480.701
 21
887.664
 31
0
 0
LINE
 8
TOOL_0
 5
19
 10
7480.701
 20
887.664
 30
0
 11
7480.701
 21
857.043
 31
0
 0
LINE
 8
TOOL_0
 5
1A
 10
7480.701
 20
857.043
 30
0
 11
7480.701
 21
800.629
 31
0
 0
LINE
 8
TOOL_0
 5
1B
 10
7480.701
 20
800.629
 30
0
 11
7473.115
 21
793.043
 31
0
 0
LINE
 8
TOOL_0
 5
1C
 10
7473.115
 20
793.043
 30
0
 11
7346.701
 21
793.043
 31
0
 0
ARC
 8
TOOL_0
 5
1D
 10
7346.701
 20
786.043
 30
0
 40
7.0
 50
90.0
 51
180.0
210
0
220
0
230
1.0
 0
LINE
 8
TOOL_0
 5
1E
 10
7339.701
 20
786.043
 30
0
 11
7339.701
 21
770.043
 31
0
 0
LINE
 8
TOOL_0
 5
1F
 10
7339.701
 20
770.043
 30
0
 11
6799.701
 21
770.043
 31
0
 0
LINE
 8
TOOL_0
 5
20
 10
6799.701
 20
770.043
 30
0
 11
6799.701
 21
786.043
 31
0
 0
ARC
 8
TOOL_0
 5
21
 10
6792.701
 20
786.043
 30
0
 40
7.0
 50
0
 51
90.0
210
0
220
0
230
1.0
 0
LINE
 8
TOOL_0
 5
22
 10
6792.701
 20
793.043
 30
0
 11
6636.701
 21
793.043
 31
0
 0
ARC
 8
TOOL_0
 5
23
 10
6636.701
 20
786.043
 30
0
 40
7.0
 50
90.0
 51
180.0
210
0
220
0
230
1.0
 0
LINE
 8
TOOL_0
 5
24
 10
6629.701
 20
786.043
 30
0
 11
6629.701
 21
770.043
 31
0
 0
LINE
 8
TOOL_0
 5
25
 10
6629.701
 20
770.043
 30
0
 11
6215.701
 21
770.043
 31
0
 0
LINE
 8
TOOL_0
 5
26
 10
6215.701
 20
770.043
 30
0
 11
6215.701
 21
786.043
 31
0
 0
ARC
 8
TOOL_0
 5
27
 10
6208.701
 20
786.043
 30
0
 40
7.0
 50
0
 51
90.0
210
0
220
0
230
1.0
 0
LINE
 8
TOOL_0
 5
28
 10
6208.701
 20
793.043
 30
0
 11
6028.201
 21
793.043
 31
0
 0
LINE
 8
TOOL_0
 5
29
 10
6028.201
 20
793.043
 30
0
 11
6028.201
 21
1113.536
 31
0
 0
LINE
 8
TOOL_0
 5
2A
 10
6028.201
 20
1113.536
 30
0
 11
6682.848
 21
1366.043
 31
0
 0
LINE
 8
TOOL_0
 5
2B
 10
6682.848
 20
1366.043
 30
0
 11
7156.417
 21
1366.043
 31
0
 0
ARC
 8
TOOL_0
 5
2C
 10
7156.388
 20
1285.964
 30
0
 40
80.079005251064
 50
50.409801452961
 51
89.979250770698
210
0
220
0
230
1.0
 0
LINE
 8
TOOL_0
 5
2D
 10
7207.422
 20
1347.675
 30
0
 11
7480.7
 21
1121.514
 31
0
 0
LINE
 8
TOOL_0
 5
2E
 10
7480.7
 20
1121.514
 30
0
 11
7480.7
 21
1015.044
 31
0
 0
LINE
 8
TOOL_0
 5
2F
 10
7480.7
 20
1015.044
 30
0
 11
7399.7
 21
1015.044
 31
0
 0
ARC
 8
TOOL_0
 5
30
 10
7399.7
 20
966.044
 30
0
 40
49.0
 50
90.0
 51
180.0
210
0
220
0
230
1.0
 0
LINE
 8
TOOL_0
 5
31
 10
7350.7
 20
966.044
 30
0
 11
7350.7
 21
906.044
 31
0
 0
ARC
 8
TOOL_0
 5
32
 10
7399.7
 20
906.044
 30
0
 40
49.0
 50
180.0
 51
270.0
210
0
220
0
230
1.0
 0
LINE
 8
TOOL_0
 5
33
 10
7399.7
 20
857.044
 30
0
 11
7480.7
 21
857.044
 31
0
 0
LINE
 8
TOOL_0
 5
34
 10
7480.7
 20
857.044
 30
0
 11
7485.771
 21
857.044
 31
0
 0
LINE
 8
TOOL_0
 5
35
 10
7485.771
 20
857.044
 30
0
 11
5427.347
 21
1367.496
 31
0
 0
LINE
 8
TOOL_0
 5
36
 10
5427.347
 20
1367.496
 30
0
 11
5462.347
 21
1367.496
 31
0
 0
LINE
 8
TOOL_0
 5
37
 10
5462.347
 20
1367.496
 30
0
 11
5462.347
 21
1499.996
 31
0
 0
ARC
 8
TOOL_0
 5
38
 10
5427.347
 20
1499.996
 30
0
 40
35.0
 50
0
 51
90.0
210
0
220
0
230
1.0
 0
LINE
 8
TOOL_0
 5
39
 10
5427.347
 20
1534.996
 30
0
 11
5297.347
 21
1534.996
 31
0
 0
ARC
 8
TOOL_0
 5
3A
 10
5297.347
 20
1499.996
 30
0
 40
35.0
 50
90.0
 51
180.0
210
0
220
0
230
1.0
 0
LINE
 8
TOOL_0
 5
3B
 10
5262.347
 20
1499.996
 30
0
 11
5262.347
 21
1234.996
 31
0
 0
ARC
 8
TOOL_0
 5
3C
 10
5297.347
 20
1234.996
 30
0
 40
35.0
 50
180.0
 51
270.0
210
0
220
0
230
1.0
 0
LINE
 8
TOOL_0
 5
3D
 10
5297.347
 20
1199.996
 30
0
 11
5427.347
 21
1199.996
 31
0
 0
ARC
 8
TOOL_0
 5
3E
 10
5427.347
 20
1234.996
 30
0
 40
35.0
 50
270.0
 51
0
210
0
220
0
230
1.0
 0
LINE
 8
TOOL_0
 5
3F
 10
5462.347
 20
1234.996
 30
0
 11
5462.347
 21
1367.496
 31
0
 0
LINE
 8
TOOL_0
 5
40
 10
5462.347
 20
1367.496
 30
0
 11
5451.74
 21
1378.103
 31
0
 0
LINE
 8
TOOL_0
 5
41
 10
5451.74
 20
1378.103
 30
0
 11
5817.346
 21
1347.496
 31
0
 0
LINE
 8
TOOL_0
 5
42
 10
5817.346
 20
1347.496
 30
0
 11
5852.346
 21
1347.496
 31
0
 0
LINE
 8
TOOL_0
 5
43
 10
5852.346
 20
1347.496
 30
0
 11
5852.346
 21
1459.996
 31
0
 0
ARC
 8
TOOL_0
 5
44
 10
5817.346
 20
1459.996
 30
0
 40
35.0
 50
0
 51
90.0
210
0
220
0
230
1.0
 0
LINE
 8
TOOL_0
 5
45
 10
5817.346
 20
1494.996
 30
0
 11
5687.346
 21
1494.996
 31
0
 0
ARC
 8
TOOL_0
 5
46
 10
5687.346
 20
1459.996
 30
0
 40
35.0
 50
90.0
 51
180.0
210
0
220
0
230
1.0
 0
LINE
 8
TOOL_0
 5
47
 10
5652.346
 20
1459.996
 30
0
 11
5652.346
 21
1234.996
 31
0
 0
ARC
 8
TOOL_0
 5
48
 10
5687.346
 20
1234.996
 30
0
 40
35.0
 50
180.0
 51
270.0
210
0
220
0
230
1.0
 0
LINE
 8
TOOL_0
 5
49
 10
5687.346
 20
1199.996
 30
0
 11
5817.346
 21
1199.996
 31
0
 0
ARC
 8
TOOL_0
 5
4A
 10
5817.346
 20
1234.996
 30
0
 40
35.0
 50
270.0
 51
0
210
0
220
0
230
1.0
 0
LINE
 8
TOOL_0
 5
4B
 10
5852.346
 20
1234.996
 30
0
 11
5852.346
 21
1347.496
 31
0
 0
LINE
 8
TOOL_0
 5
4C
 10
5852.346
 20
1347.496
 30
0
 11
5841.739
 21
1358.103
 31
0
 0
LINE
 8
TOOL_0
 5
4D
 10
5841.739
 20
1358.103
 30
0
 11
4976.345
 21
1513.904
 31
0
 0
LINE
 8
TOOL_0
 5
4E
 10
4976.345
 20
1513.904
 30
0
 11
4976.345
 21
1543.996
 31
0
 0
LINE
 8
TOOL_0
 5
4F
 10
4976.345
 20
1543.996
 30
0
 11
4976.345
 21
1600.41
 31
0
 0
LINE
 8
TOOL_0
 5
50
 10
4976.345
 20
1600.41
 30
0
 11
4983.931
 21
1607.996
 31
0
 0
LINE
 8
TOOL_0
 5
51
 10
4983.931
 20
1607.996
 30
0
 11
5110.345
 21
1607.996
 31
0
 0
ARC
 8
TOOL_0
 5
52
 10
5110.345
 20
1614.996
 30
0
 40
7.0
 50
270.0
 51
0
210
0
220
0
230
1.0
 0
LINE
 8
TOOL_0
 5
53
 10
5117.345
 20
1614.996
 30
0
 11
5117.345
 21
1630.996
 31
0
 0
LINE
 8
TOOL_0
 5
54
 10
5117.345
 20
1630.996
 30
0
 11
5657.345
 21
1630.996
 31
0
 0
LINE
 8
TOOL_0
 5
55
 10
5657.345
 20
1630.996
 30
0
 11
5657.345
 21
1614.996
 31
0
 0
ARC
 8
TOOL_0
 5
56
 10
5664.345
 20
1614.996
 30
0
 40
7.0
 50
180.0
 51
270.0
210
0
220
0
230
1.0
 0
LINE
 8
TOOL_0
 5
57
 10
5664.345
 20
1607.996
 30
0
 11
5820.345
 21
1607.996
 31
0
 0
ARC
 8
TOOL_0
 5
58
 10
5820.345
 20
1614.996
 30
0
 40
7.0
 50
270.0
 51
0
210
0
220
0
230
1.0
 0
LINE
 8
TOOL_0
 5
59
 10
5827.345
 20
1614.996
 30
0
 11
5827.345
 21
1630.996
 31
0
 0
LINE
 8
TOOL_0
 5
5A
 10
5827.345
 20
1630.996
 30
0
 11
6241.345
 21
1630.996
 31
0
 0
LINE
 8
TOOL_0
 5
5B
 10
6241.345
 20
1630.996
 30
0
 11
6241.345
 21
1614.996
 31
0
 0
ARC
 8
TOOL_0
 5
5C
 10
6248.345
 20
1614.996
 30
0
 40
7.0
 50
180.0
 51
270.0
210
0
220
0
230
1.0
 0
LINE
 8
TOOL_0
 5
5D
 10
6248.345
 20
1607.996
 30
0
 11
6428.845
 21
1607.996
 31
0
 0
LINE
 8
TOOL_0
 5
5E
 10
6428.845
 20
1607.996
 30
0
 11
6428.845
 21
1287.503
 31
0
 0
LINE
 8
TOOL_0
 5
5F
 10
6428.845
 20
1287.503
 30
0
 11
5774.198
 21
1034.996
 31
0
 0
LINE
 8
TOOL_0
 5
60
 10
5774.198
 20
1034.996
 30
0
 11
5300.629
 21
1034.996
 31
0
 0
ARC
 8
TOOL_0
 5
61
 10
5300.658
 20
1115.075
 30
0
 40
80.079005251064
 50
230.408794107129
 51
269.979250770698
210
0
220
0
230
1.0
 0
LINE
 8
TOOL_0
 5
62
 10
5249.623
 20
1053.365
 30
0
 11
4976.345
 21
1279.526
 31
0
 0
LINE
 8
TOOL_0
 5
63
 10
4976.345
 20
1279.526
 30
0
 11
4976.345
 21
1385.996
 31
0
 0
LINE
 8
TOOL_0
 5
64
 10
4976.345
 20
1385.996
 30
0
 11
5057.345
 21
1385.996
 31
0
 0
ARC
 8
TOOL_0
 5
65
 10
5057.345
 20
1434.996
 30
0
 40
49.0
 50
270.0
 51
0
210
0
220
0
230
1.0
 0
LINE
 8
TOOL_0
 5
66
 10
5106.345
 20
1434.996
 30
0
 11
5106.345
 21
1494.996
 31
0
 0
ARC
 8
TOOL_0
 5
67
 10
5057.345
 20
1494.996
 30
0
 40
49.0
 50
0
 51
90.0
210
0
220
0
230
1.0
 0
LINE
 8
TOOL_0
 5
68
 10
5057.345
 20
1543.996
 30
0
 11
4976.345
 21
1543.996
 31
0
 0
LINE
 8
TOOL_0
 5
69
 10
4976.345
 20
1543.996
 30
0
 11
4971.162
 21
1543.996
 31
0
 0
LINE
 8
TOOL_0
 5
6A
 10
4971.162
 20
1543.996
 30
0
 11
4936.57
 21
1650.001
 31
0
 0
LINE
 8
TOOL_0
 5
6B
 10
4936.57
 20
1650.001
 30
0
 11
4936.57
 21
1649.001
 31
0
 0
LINE
 8
TOOL_0
 5
6C
 10
4936.57
 20
1649.001
 30
0
 11
4936.57
 21
1650.001
 31
0
 0
LINE
 8
TOOL_0
 5
6D
 10
4936.57
 20
1650.001
 30
0
 11
4936.57
 21
1649.001
 31
0
 0
LINE
 8
TOOL_0
 5
6E
 10
4936.57
 20
1649.001
 30
0
 11
4936.57
 21
751.614
 31
0
 0
LINE
 8
TOOL_0
 5
6F
 10
4936.57
 20
751.614
 30
0
 11
4936.57
 21
750.614
 31
0
 0
ENDSEC
 0
EOF

