0
SECTION
2
TABLES
0
TABLE
2
LAYER
70
0
0
LAYER
2
LAYER_NAME
70
0
62
1
6
CONTINUOUS
0
ENDTAB
0
ENDSEC
 0
SECTION
 2
ENTITIES
 0
LINE
 8
TOOL_0
 5
1
 10
11974.775
 20
8.001
 30
0
 11
11958.0
 21
8.001
 31
0
 0
LINE
 8
TOOL_0
 5
2
 10
11958.0
 20
8.001
 30
0
 11
8.0
 21
8.001
 31
0
 0
LINE
 8
TOOL_0
 5
3
 10
8.0
 20
8.001
 30
0
 11
8.0
 21
518.001
 31
0
 0
LINE
 8
TOOL_0
 5
4
 10
8.0
 20
518.001
 30
0
 11
11958.0
 21
518.001
 31
0
 0
LINE
 8
TOOL_0
 5
5
 10
11958.0
 20
518.001
 30
0
 11
11958.0
 21
8.001
 31
0
 0
LINE
 8
TOOL_0
 5
6
 10
11958.0
 20
8.001
 30
0
 11
11958.0
 21
3.437
 31
0
 0
LINE
 8
TOOL_0
 5
7
 10
11958.0
 20
3.437
 30
0
 11
10724.708
 21
1058.018
 31
0
 0
LINE
 8
TOOL_0
 5
8
 10
10724.708
 20
1058.018
 30
0
 11
10701.746
 21
1058.018
 31
0
 0
LINE
 8
TOOL_0
 5
9
 10
10701.746
 20
1058.018
 30
0
 11
6496.746
 21
1058.018
 31
0
 0
LINE
 8
TOOL_0
 5
A
 10
6496.746
 20
1058.018
 30
0
 11
6496.746
 21
1568.018
 31
0
 0
LINE
 8
TOOL_0
 5
B
 10
6496.746
 20
1568.018
 30
0
 11
10701.746
 21
1568.018
 31
0
 0
LINE
 8
TOOL_0
 5
C
 10
10701.746
 20
1568.018
 30
0
 11
10701.746
 21
1058.018
 31
0
 0
LINE
 8
TOOL_0
 5
D
 10
10701.746
 20
1058.018
 30
0
 11
10701.746
 21
1052.83
 31
0
 0
LINE
 8
TOOL_0
 5
E
 10
10701.746
 20
1052.83
 30
0
 11
6474.312
 21
1058.018
 31
0
 0
LINE
 8
TOOL_0
 5
F
 10
6474.312
 20
1058.018
 30
0
 11
6419.4
 21
1058.018
 31
0
 0
LINE
 8
TOOL_0
 5
10
 10
6419.4
 20
1058.018
 30
0
 11
8.0
 21
1058.018
 31
0
 0
LINE
 8
TOOL_0
 5
11
 10
8.0
 20
1058.018
 30
0
 11
8.0
 21
1568.018
 31
0
 0
LINE
 8
TOOL_0
 5
12
 10
8.0
 20
1568.018
 30
0
 11
6419.4
 21
1568.018
 31
0
 0
LINE
 8
TOOL_0
 5
13
 10
6419.4
 20
1568.018
 30
0
 11
6419.4
 21
1058.018
 31
0
 0
LINE
 8
TOOL_0
 5
14
 10
6419.4
 20
1058.018
 30
0
 11
6419.4
 21
1053.433
 31
0
 0
LINE
 8
TOOL_0
 5
15
 10
6419.4
 20
1053.433
 30
0
 11
6419.4
 21
0
 31
0
 0
LINE
 8
TOOL_0
 5
16
 10
6419.4
 20
0
 30
0
 11
6642.484
 21
2131.612
 31
0
 0
LINE
 8
TOOL_0
 5
17
 10
6642.484
 20
2131.612
 30
0
 11
6604.341
 21
2131.612
 31
0
 0
LINE
 8
TOOL_0
 5
18
 10
6604.341
 20
2131.612
 30
0
 11
3325.341
 21
2131.612
 31
0
 0
LINE
 8
TOOL_0
 5
19
 10
3325.341
 20
2131.612
 30
0
 11
3325.341
 21
2641.612
 31
0
 0
LINE
 8
TOOL_0
 5
1A
 10
3325.341
 20
2641.612
 30
0
 11
6604.341
 21
2641.612
 31
0
 0
LINE
 8
TOOL_0
 5
1B
 10
6604.341
 20
2641.612
 30
0
 11
6604.341
 21
2131.612
 31
0
 0
LINE
 8
TOOL_0
 5
1C
 10
6604.341
 20
2131.612
 30
0
 11
6604.341
 21
2124.929
 31
0
 0
LINE
 8
TOOL_0
 5
1D
 10
6604.341
 20
2124.929
 30
0
 11
3300.68
 21
2138.512
 31
0
 0
LINE
 8
TOOL_0
 5
1E
 10
3300.68
 20
2138.512
 30
0
 11
3287.0
 21
2138.512
 31
0
 0
LINE
 8
TOOL_0
 5
1F
 10
3287.0
 20
2138.512
 30
0
 11
8.0
 21
2138.512
 31
0
 0
LINE
 8
TOOL_0
 5
20
 10
8.0
 20
2138.512
 30
0
 11
8.0
 21
2648.512
 31
0
 0
LINE
 8
TOOL_0
 5
21
 10
8.0
 20
2648.512
 30
0
 11
3287.0
 21
2648.512
 31
0
 0
LINE
 8
TOOL_0
 5
22
 10
3287.0
 20
2648.512
 30
0
 11
3287.0
 21
2138.512
 31
0
 0
LINE
 8
TOOL_0
 5
23
 10
3287.0
 20
2138.512
 30
0
 11
3287.0
 21
2133.367
 31
0
 0
LINE
 8
TOOL_0
 5
24
 10
3287.0
 20
2133.367
 30
0
 11
0
 21
2678.946
 31
0
 0
LINE
 8
TOOL_0
 5
25
 10
0
 20
2678.946
 30
0
 11
1.0
 21
2678.946
 31
0
 0
LINE
 8
TOOL_0
 5
26
 10
1.0
 20
2678.946
 30
0
 11
0
 21
2678.946
 31
0
 0
LINE
 8
TOOL_0
 5
27
 10
0
 20
2678.946
 30
0
 11
1.0
 21
2678.946
 31
0
 0
LINE
 8
TOOL_0
 5
28
 10
1.0
 20
2678.946
 30
0
 11
6694.866
 21
2678.946
 31
0
 0
LINE
 8
TOOL_0
 5
29
 10
6694.866
 20
2678.946
 30
0
 11
6694.866
 21
2117.296
 31
0
 0
LINE
 8
TOOL_0
 5
2A
 10
6694.866
 20
2117.296
 30
0
 11
10759.651
 21
2117.296
 31
0
 0
LINE
 8
TOOL_0
 5
2B
 10
10759.651
 20
2117.296
 30
0
 11
10759.651
 21
1062.75
 31
0
 0
LINE
 8
TOOL_0
 5
2C
 10
10759.651
 20
1062.75
 30
0
 11
11999.001
 21
1062.75
 31
0
 0
LINE
 8
TOOL_0
 5
2D
 10
11999.001
 20
1062.75
 30
0
 11
12000.001
 21
1062.75
 31
0
 0
ENDSEC
 0
EOF

