0
SECTION
2
TABLES
0
TABLE
2
LAYER
70
0
0
LAYER
2
LAYER_NAME
70
0
62
1
6
CONTINUOUS
0
ENDTAB
0
ENDSEC
 0
SECTION
 2
ENTITIES
 0
LINE
 8
TOOL_0
 5
1
 10
342.951
 20
1372.379
 30
0
 11
372.951
 21
1372.379
 31
0
 0
LINE
 8
TOOL_0
 5
2
 10
372.951
 20
1372.379
 30
0
 11
372.951
 21
1402.379
 31
0
 0
ARC
 8
TOOL_0
 5
3
 10
362.951
 20
1402.379
 30
0
 40
10.0
 50
0
 51
90.0
210
0
220
0
230
1.0
 0
LINE
 8
TOOL_0
 5
4
 10
362.951
 20
1412.379
 30
0
 11
316.951
 21
1412.379
 31
0
 0
ARC
 8
TOOL_0
 5
5
 10
316.951
 20
1402.379
 30
0
 40
10.0
 50
90.0
 51
180.0
210
0
220
0
230
1.0
 0
LINE
 8
TOOL_0
 5
6
 10
306.951
 20
1402.379
 30
0
 11
306.951
 21
1342.379
 31
0
 0
ARC
 8
TOOL_0
 5
7
 10
316.951
 20
1342.379
 30
0
 40
10.0
 50
180.0
 51
270.0
210
0
220
0
230
1.0
 0
LINE
 8
TOOL_0
 5
8
 10
316.951
 20
1332.379
 30
0
 11
362.951
 21
1332.379
 31
0
 0
ARC
 8
TOOL_0
 5
9
 10
362.951
 20
1342.379
 30
0
 40
10.0
 50
270.0
 51
0
210
0
220
0
230
1.0
 0
LINE
 8
TOOL_0
 5
A
 10
372.951
 20
1342.379
 30
0
 11
372.951
 21
1372.379
 31
0
 0
LINE
 8
TOOL_0
 5
B
 10
372.951
 20
1372.379
 30
0
 11
369.415
 21
1375.915
 31
0
 0
LINE
 8
TOOL_0
 5
C
 10
369.415
 20
1375.915
 30
0
 11
342.951
 21
1118.379
 31
0
 0
LINE
 8
TOOL_0
 5
D
 10
342.951
 20
1118.379
 30
0
 11
372.951
 21
1118.379
 31
0
 0
LINE
 8
TOOL_0
 5
E
 10
372.951
 20
1118.379
 30
0
 11
372.951
 21
1148.379
 31
0
 0
ARC
 8
TOOL_0
 5
F
 10
362.951
 20
1148.379
 30
0
 40
10.0
 50
0
 51
90.0
210
0
220
0
230
1.0
 0
LINE
 8
TOOL_0
 5
10
 10
362.951
 20
1158.379
 30
0
 11
316.951
 21
1158.379
 31
0
 0
ARC
 8
TOOL_0
 5
11
 10
316.951
 20
1148.379
 30
0
 40
10.0
 50
90.0
 51
180.0
210
0
220
0
230
1.0
 0
LINE
 8
TOOL_0
 5
12
 10
306.951
 20
1148.379
 30
0
 11
306.951
 21
1088.379
 31
0
 0
ARC
 8
TOOL_0
 5
13
 10
316.951
 20
1088.379
 30
0
 40
10.0
 50
180.0
 51
270.0
210
0
220
0
230
1.0
 0
LINE
 8
TOOL_0
 5
14
 10
316.951
 20
1078.379
 30
0
 11
362.951
 21
1078.379
 31
0
 0
ARC
 8
TOOL_0
 5
15
 10
362.951
 20
1088.379
 30
0
 40
10.0
 50
270.0
 51
0
210
0
220
0
230
1.0
 0
LINE
 8
TOOL_0
 5
16
 10
372.951
 20
1088.379
 30
0
 11
372.951
 21
1118.379
 31
0
 0
LINE
 8
TOOL_0
 5
17
 10
372.951
 20
1118.379
 30
0
 11
369.415
 21
1121.915
 31
0
 0
LINE
 8
TOOL_0
 5
18
 10
369.415
 20
1121.915
 30
0
 11
719.251
 21
1324.852
 31
0
 0
LINE
 8
TOOL_0
 5
19
 10
719.251
 20
1324.852
 30
0
 11
719.251
 21
1295.479
 31
0
 0
LINE
 8
TOOL_0
 5
1A
 10
719.251
 20
1295.479
 30
0
 11
719.251
 21
1195.279
 31
0
 0
ARC
 8
TOOL_0
 5
1B
 10
716.251
 20
1195.279
 30
0
 40
3.0
 50
270.0
 51
0
210
0
220
0
230
1.0
 0
LINE
 8
TOOL_0
 5
1C
 10
716.251
 20
1192.279
 30
0
 11
650.851
 21
1192.279
 31
0
 0
ARC
 8
TOOL_0
 5
1D
 10
650.851
 20
1195.279
 30
0
 40
3.0
 50
180.0
 51
270.0
210
0
220
0
230
1.0
 0
LINE
 8
TOOL_0
 5
1E
 10
647.851
 20
1195.279
 30
0
 11
647.851
 21
1202.279
 31
0
 0
ARC
 8
TOOL_0
 5
1F
 10
632.851
 20
1202.279
 30
0
 40
15.0
 50
0
 51
90.0
210
0
220
0
230
1.0
 0
LINE
 8
TOOL_0
 5
20
 10
632.851
 20
1217.279
 30
0
 11
479.535
 21
1217.279
 31
0
 0
ARC
 8
TOOL_0
 5
21
 10
479.535
 20
1197.879
 30
0
 40
19.4
 50
90.0
 51
135.0
210
0
220
0
230
1.0
 0
LINE
 8
TOOL_0
 5
22
 10
465.817
 20
1211.597
 30
0
 11
455.539
 21
1201.319
 31
0
 0
ARC
 8
TOOL_0
 5
23
 10
497.69
 20
1159.246
 30
0
 40
59.555387077913
 50
135.053061710728
 51
173.745757649056
210
0
220
0
230
1.0
 0
ARC
 8
TOOL_0
 5
24
 10
427.951
 20
1166.879
 30
0
 40
10.600022122618
 50
270.0
 51
353.798888446262
210
0
220
0
230
1.0
 0
ARC
 8
TOOL_0
 5
25
 10
427.951
 20
1136.879
 30
0
 40
19.4
 50
90.0
 51
180.0
210
0
220
0
230
1.0
 0
LINE
 8
TOOL_0
 5
26
 10
408.551
 20
1136.879
 30
0
 11
408.551
 21
1056.229
 31
0
 0
ARC
 8
TOOL_0
 5
27
 10
405.551
 20
1056.229
 30
0
 40
3.0
 50
284.990467215561
 51
0
210
0
220
0
230
1.0
 0
LINE
 8
TOOL_0
 5
28
 10
406.327
 20
1053.331
 30
0
 11
374.933
 21
1044.919
 31
0
 0
ARC
 8
TOOL_0
 5
29
 10
374.157
 20
1047.817
 30
0
 40
3.000096665109
 50
195.008913676655
 51
284.990467215561
210
0
220
0
230
1.0
 0
LINE
 8
TOOL_0
 5
2A
 10
371.259
 20
1047.04
 30
0
 11
370.767
 21
1048.875
 31
0
 0
ARC
 8
TOOL_0
 5
2B
 10
367.869
 20
1048.099
 30
0
 40
3.000096665109
 50
14.990467215561
 51
104.995408657675
210
0
220
0
230
1.0
 0
LINE
 8
TOOL_0
 5
2C
 10
367.093
 20
1050.996
 30
0
 11
315.319
 21
1037.123
 31
0
 0
ARC
 8
TOOL_0
 5
2D
 10
316.095
 20
1034.225
 30
0
 40
3.000096665109
 50
104.99046721556
 51
194.995408657678
210
0
220
0
230
1.0
 0
LINE
 8
TOOL_0
 5
2E
 10
313.198
 20
1033.449
 30
0
 11
313.69
 21
1031.614
 31
0
 0
ARC
 8
TOOL_0
 5
2F
 10
310.792
 20
1030.838
 30
0
 40
3.000096665109
 50
285.00891367666
 51
14.990467215561
210
0
220
0
230
1.0
 0
LINE
 8
TOOL_0
 5
30
 10
311.569
 20
1027.94
 30
0
 11
283.896
 21
1020.525
 31
0
 0
ARC
 8
TOOL_0
 5
31
 10
283.171
 20
1023.23
 30
0
 40
2.800473174305
 50
195.00920017203
 51
285.003901736897
210
0
220
0
230
1.0
 0
LINE
 8
TOOL_0
 5
32
 10
280.467
 20
1022.505
 30
0
 11
271.151
 21
1057.273
 31
0
 0
LINE
 8
TOOL_0
 5
33
 10
271.151
 20
1057.273
 30
0
 11
271.151
 21
1153.378
 31
0
 0
ARC
 8
TOOL_0
 5
34
 10
251.951
 20
1153.378
 30
0
 40
19.2
 50
0
 51
55.608896625223
210
0
220
0
230
1.0
 0
LINE
 8
TOOL_0
 5
35
 10
262.796
 20
1169.222
 30
0
 11
247.819
 21
1179.474
 31
0
 0
ARC
 8
TOOL_0
 5
36
 10
231.325
 20
1155.379
 30
0
 40
29.199675700254
 50
55.606785125803
 51
87.976512547702
210
0
220
0
230
1.0
 0
ARC
 8
TOOL_0
 5
37
 10
231.403
 20
1235.46
 30
0
 40
50.908920721225
 50
214.740495244392
 51
271.072622767533
210
0
220
0
230
1.0
 0
ARC
 8
TOOL_0
 5
38
 10
331.755
 20
1298.669
 30
0
 40
169.473853428781
 50
208.555470792514
 51
212.966920169158
210
0
220
0
230
1.0
 0
ARC
 8
TOOL_0
 5
39
 10
192.514
 20
1223.129
 30
0
 40
11.063796319528
 50
180.367707176703
 51
209.630545539638
210
0
220
0
230
1.0
 0
LINE
 8
TOOL_0
 5
3A
 10
181.451
 20
1223.058
 30
0
 11
181.451
 21
1267.699
 31
0
 0
ARC
 8
TOOL_0
 5
3B
 10
192.515
 20
1267.628
 30
0
 40
11.064227808573
 50
150.36495319624
 51
179.632326056946
210
0
220
0
230
1.0
 0
LINE
 8
TOOL_0
 5
3C
 10
182.898
 20
1273.099
 30
0
 11
187.332
 21
1280.778
 31
0
 0
ARC
 8
TOOL_0
 5
3D
 10
231.365
 20
1255.313
 30
0
 40
50.866209943341
 50
91.621103425071
 51
149.958506845517
210
0
220
0
230
1.0
 0
ARC
 8
TOOL_0
 5
3E
 10
231.107
 20
1335.842
 30
0
 40
29.706484982239
 50
267.721569789111
 51
304.236244747272
210
0
220
0
230
1.0
 0
LINE
 8
TOOL_0
 5
3F
 10
247.82
 20
1311.283
 30
0
 11
262.797
 21
1321.535
 31
0
 0
ARC
 8
TOOL_0
 5
40
 10
251.952
 20
1337.379
 30
0
 40
19.200165650327
 50
304.391103374777
 51
359.99701584482
210
0
220
0
230
1.0
 0
LINE
 8
TOOL_0
 5
41
 10
271.152
 20
1337.378
 30
0
 11
271.152
 21
1433.483
 31
0
 0
LINE
 8
TOOL_0
 5
42
 10
271.152
 20
1433.483
 30
0
 11
280.468
 21
1468.251
 31
0
 0
ARC
 8
TOOL_0
 5
43
 10
283.173
 20
1467.526
 30
0
 40
2.800473174305
 50
75.015861915196
 51
164.996098263105
210
0
220
0
230
1.0
 0
LINE
 8
TOOL_0
 5
44
 10
283.897
 20
1470.231
 30
0
 11
311.57
 21
1462.816
 31
0
 0
ARC
 8
TOOL_0
 5
45
 10
310.794
 20
1459.918
 30
0
 40
3.000096665109
 50
345.004591342322
 51
75.00953278444
210
0
220
0
230
1.0
 0
LINE
 8
TOOL_0
 5
46
 10
313.691
 20
1459.142
 30
0
 11
313.199
 21
1457.307
 31
0
 0
ARC
 8
TOOL_0
 5
47
 10
316.097
 20
1456.531
 30
0
 40
3.000096665109
 50
165.009532784439
 51
254.99108632334
210
0
220
0
230
1.0
 0
LINE
 8
TOOL_0
 5
48
 10
315.32
 20
1453.633
 30
0
 11
367.094
 21
1439.76
 31
0
 0
ARC
 8
TOOL_0
 5
49
 10
367.87
 20
1442.658
 30
0
 40
3.000096665109
 50
255.009532784439
 51
344.991086323345
210
0
220
0
230
1.0
 0
LINE
 8
TOOL_0
 5
4A
 10
370.768
 20
1441.881
 30
0
 11
371.26
 21
1443.716
 31
0
 0
ARC
 8
TOOL_0
 5
4B
 10
374.158
 20
1442.94
 30
0
 40
3.000096665109
 50
75.004591342325
 51
165.009532784439
210
0
220
0
230
1.0
 0
LINE
 8
TOOL_0
 5
4C
 10
374.934
 20
1445.837
 30
0
 11
406.328
 21
1437.425
 31
0
 0
ARC
 8
TOOL_0
 5
4D
 10
405.552
 20
1434.527
 30
0
 40
3.000096665109
 50
0
 51
75.00953278444
210
0
220
0
230
1.0
 0
LINE
 8
TOOL_0
 5
4E
 10
408.552
 20
1434.527
 30
0
 11
408.552
 21
1353.877
 31
0
 0
ARC
 8
TOOL_0
 5
4F
 10
427.952
 20
1353.877
 30
0
 40
19.4
 50
180.0
 51
270.0
210
0
220
0
230
1.0
 0
ARC
 8
TOOL_0
 5
50
 10
427.925
 20
1323.845
 30
0
 40
10.632034283241
 50
9.83972311836
 51
89.854497486708
210
0
220
0
230
1.0
 0
ARC
 8
TOOL_0
 5
51
 10
497.893
 20
1331.638
 30
0
 40
59.791392691591
 50
185.736147090083
 51
222.017911442877
210
0
220
0
230
1.0
 0
ARC
 8
TOOL_0
 5
52
 10
809.146
 20
1631.812
 30
0
 40
492.176099269357
 50
223.72579954476
 51
225.76737739596
210
0
220
0
230
1.0
 0
ARC
 8
TOOL_0
 5
53
 10
479.537
 20
1292.877
 30
0
 40
19.400181854818
 50
224.991646627918
 51
270.0
210
0
220
0
230
1.0
 0
LINE
 8
TOOL_0
 5
54
 10
479.537
 20
1273.477
 30
0
 11
632.853
 21
1273.477
 31
0
 0
ARC
 8
TOOL_0
 5
55
 10
632.853
 20
1288.477
 30
0
 40
15.0
 50
270.0
 51
0
210
0
220
0
230
1.0
 0
LINE
 8
TOOL_0
 5
56
 10
647.853
 20
1288.477
 30
0
 11
647.853
 21
1295.477
 31
0
 0
ARC
 8
TOOL_0
 5
57
 10
650.853
 20
1295.477
 30
0
 40
3.0
 50
90.0
 51
180.0
210
0
220
0
230
1.0
 0
LINE
 8
TOOL_0
 5
58
 10
650.853
 20
1298.477
 30
0
 11
716.253
 21
1298.477
 31
0
 0
ARC
 8
TOOL_0
 5
59
 10
716.253
 20
1295.477
 30
0
 40
3.0
 50
0
 51
90.0
210
0
220
0
230
1.0
 0
LINE
 8
TOOL_0
 5
5A
 10
719.253
 20
1295.477
 30
0
 11
723.391
 21
1291.827
 31
0
 0
LINE
 8
TOOL_0
 5
5B
 10
723.391
 20
1291.827
 30
0
 11
804.04
 21
1654.202
 31
0
 0
LINE
 8
TOOL_0
 5
5C
 10
804.04
 20
1654.202
 30
0
 11
834.04
 21
1654.202
 31
0
 0
LINE
 8
TOOL_0
 5
5D
 10
834.04
 20
1654.202
 30
0
 11
834.04
 21
1684.202
 31
0
 0
ARC
 8
TOOL_0
 5
5E
 10
824.04
 20
1684.202
 30
0
 40
10.0
 50
0
 51
90.0
210
0
220
0
230
1.0
 0
LINE
 8
TOOL_0
 5
5F
 10
824.04
 20
1694.202
 30
0
 11
778.04
 21
1694.202
 31
0
 0
ARC
 8
TOOL_0
 5
60
 10
778.04
 20
1684.202
 30
0
 40
10.0
 50
90.0
 51
180.0
210
0
220
0
230
1.0
 0
LINE
 8
TOOL_0
 5
61
 10
768.04
 20
1684.202
 30
0
 11
768.04
 21
1624.202
 31
0
 0
ARC
 8
TOOL_0
 5
62
 10
778.04
 20
1624.202
 30
0
 40
10.0
 50
180.0
 51
270.0
210
0
220
0
230
1.0
 0
LINE
 8
TOOL_0
 5
63
 10
778.04
 20
1614.202
 30
0
 11
824.04
 21
1614.202
 31
0
 0
ARC
 8
TOOL_0
 5
64
 10
824.04
 20
1624.202
 30
0
 40
10.0
 50
270.0
 51
0
210
0
220
0
230
1.0
 0
LINE
 8
TOOL_0
 5
65
 10
834.04
 20
1624.202
 30
0
 11
834.04
 21
1654.202
 31
0
 0
LINE
 8
TOOL_0
 5
66
 10
834.04
 20
1654.202
 30
0
 11
830.504
 21
1657.738
 31
0
 0
LINE
 8
TOOL_0
 5
67
 10
830.504
 20
1657.738
 30
0
 11
804.04
 21
1400.202
 31
0
 0
LINE
 8
TOOL_0
 5
68
 10
804.04
 20
1400.202
 30
0
 11
834.04
 21
1400.202
 31
0
 0
LINE
 8
TOOL_0
 5
69
 10
834.04
 20
1400.202
 30
0
 11
834.04
 21
1430.202
 31
0
 0
ARC
 8
TOOL_0
 5
6A
 10
824.04
 20
1430.202
 30
0
 40
10.0
 50
0
 51
90.0
210
0
220
0
230
1.0
 0
LINE
 8
TOOL_0
 5
6B
 10
824.04
 20
1440.202
 30
0
 11
778.04
 21
1440.202
 31
0
 0
ARC
 8
TOOL_0
 5
6C
 10
778.04
 20
1430.202
 30
0
 40
10.0
 50
90.0
 51
180.0
210
0
220
0
230
1.0
 0
LINE
 8
TOOL_0
 5
6D
 10
768.04
 20
1430.202
 30
0
 11
768.04
 21
1370.202
 31
0
 0
ARC
 8
TOOL_0
 5
6E
 10
778.04
 20
1370.202
 30
0
 40
10.0
 50
180.0
 51
270.0
210
0
220
0
230
1.0
 0
LINE
 8
TOOL_0
 5
6F
 10
778.04
 20
1360.202
 30
0
 11
824.04
 21
1360.202
 31
0
 0
ARC
 8
TOOL_0
 5
70
 10
824.04
 20
1370.202
 30
0
 40
10.0
 50
270.0
 51
0
210
0
220
0
230
1.0
 0
LINE
 8
TOOL_0
 5
71
 10
834.04
 20
1370.202
 30
0
 11
834.04
 21
1400.202
 31
0
 0
LINE
 8
TOOL_0
 5
72
 10
834.04
 20
1400.202
 30
0
 11
830.504
 21
1403.738
 31
0
 0
LINE
 8
TOOL_0
 5
73
 10
830.504
 20
1403.738
 30
0
 11
410.345
 21
1548.867
 31
0
 0
LINE
 8
TOOL_0
 5
74
 10
410.345
 20
1548.867
 30
0
 11
421.74
 21
1577.302
 31
0
 0
ARC
 8
TOOL_0
 5
75
 10
424.74
 20
1577.302
 30
0
 40
3.0
 50
90.0
 51
180.0
210
0
220
0
230
1.0
 0
LINE
 8
TOOL_0
 5
76
 10
424.74
 20
1580.302
 30
0
 11
490.14
 21
1580.302
 31
0
 0
ARC
 8
TOOL_0
 5
77
 10
490.14
 20
1577.302
 30
0
 40
3.0
 50
0
 51
90.0
210
0
220
0
230
1.0
 0
LINE
 8
TOOL_0
 5
78
 10
493.14
 20
1577.302
 30
0
 11
493.14
 21
1570.302
 31
0
 0
ARC
 8
TOOL_0
 5
79
 10
508.14
 20
1570.302
 30
0
 40
15.0
 50
180.0
 51
270.0
210
0
220
0
230
1.0
 0
LINE
 8
TOOL_0
 5
7A
 10
508.14
 20
1555.302
 30
0
 11
661.456
 21
1555.302
 31
0
 0
ARC
 8
TOOL_0
 5
7B
 10
661.456
 20
1574.702
 30
0
 40
19.4
 50
270.0
 51
315.0
210
0
220
0
230
1.0
 0
LINE
 8
TOOL_0
 5
7C
 10
675.174
 20
1560.984
 30
0
 11
685.452
 21
1571.262
 31
0
 0
ARC
 8
TOOL_0
 5
7D
 10
643.301
 20
1613.335
 30
0
 40
59.555387077913
 50
315.053061710728
 51
353.744801319129
210
0
220
0
230
1.0
 0
ARC
 8
TOOL_0
 5
7E
 10
713.04
 20
1605.701
 30
0
 40
10.600022122618
 50
90.0
 51
173.798888446261
210
0
220
0
230
1.0
 0
ARC
 8
TOOL_0
 5
7F
 10
713.04
 20
1635.701
 30
0
 40
19.4
 50
270.0
 51
0
210
0
220
0
230
1.0
 0
LINE
 8
TOOL_0
 5
80
 10
732.44
 20
1635.701
 30
0
 11
732.44
 21
1716.351
 31
0
 0
ARC
 8
TOOL_0
 5
81
 10
735.44
 20
1716.351
 30
0
 40
3.0
 50
104.990467215559
 51
180.0
210
0
220
0
230
1.0
 0
LINE
 8
TOOL_0
 5
82
 10
734.664
 20
1719.249
 30
0
 11
766.058
 21
1727.661
 31
0
 0
ARC
 8
TOOL_0
 5
83
 10
766.834
 20
1724.763
 30
0
 40
3.000096665109
 50
15.008913676655
 51
104.990467215559
210
0
220
0
230
1.0
 0
LINE
 8
TOOL_0
 5
84
 10
769.732
 20
1725.54
 30
0
 11
770.224
 21
1723.705
 31
0
 0
ARC
 8
TOOL_0
 5
85
 10
773.122
 20
1724.481
 30
0
 40
3.000096665109
 50
194.990467215561
 51
284.995408657675
210
0
220
0
230
1.0
 0
LINE
 8
TOOL_0
 5
86
 10
773.898
 20
1721.584
 30
0
 11
825.672
 21
1735.457
 31
0
 0
ARC
 8
TOOL_0
 5
87
 10
824.896
 20
1738.355
 30
0
 40
3.000096665109
 50
284.990467215559
 51
14.995408657679
210
0
220
0
230
1.0
 0
LINE
 8
TOOL_0
 5
88
 10
827.793
 20
1739.131
 30
0
 11
827.301
 21
1740.966
 31
0
 0
ARC
 8
TOOL_0
 5
89
 10
830.199
 20
1741.742
 30
0
 40
3.000096665109
 50
105.00891367666
 51
194.990467215561
210
0
220
0
230
1.0
 0
LINE
 8
TOOL_0
 5
8A
 10
829.422
 20
1744.64
 30
0
 11
857.095
 21
1752.055
 31
0
 0
ARC
 8
TOOL_0
 5
8B
 10
857.82
 20
1749.35
 30
0
 40
2.800473174305
 50
15.009200172028
 51
105.003901736897
210
0
220
0
230
1.0
 0
LINE
 8
TOOL_0
 5
8C
 10
860.524
 20
1750.075
 30
0
 11
869.84
 21
1715.307
 31
0
 0
LINE
 8
TOOL_0
 5
8D
 10
869.84
 20
1715.307
 30
0
 11
869.84
 21
1619.202
 31
0
 0
ARC
 8
TOOL_0
 5
8E
 10
889.04
 20
1619.202
 30
0
 40
19.2
 50
180.0
 51
235.608896625223
210
0
220
0
230
1.0
 0
LINE
 8
TOOL_0
 5
8F
 10
878.195
 20
1603.358
 30
0
 11
893.172
 21
1593.106
 31
0
 0
ARC
 8
TOOL_0
 5
90
 10
909.666
 20
1617.201
 30
0
 40
29.199675700254
 50
235.606785125802
 51
267.976512547702
210
0
220
0
230
1.0
 0
ARC
 8
TOOL_0
 5
91
 10
909.588
 20
1537.12
 30
0
 40
50.908920721225
 50
34.740495244392
 51
91.072622767533
210
0
220
0
230
1.0
 0
ARC
 8
TOOL_0
 5
92
 10
809.236
 20
1473.911
 30
0
 40
169.473853428781
 50
28.555767746478
 51
32.966920169159
210
0
220
0
230
1.0
 0
ARC
 8
TOOL_0
 5
93
 10
948.477
 20
1549.451
 30
0
 40
11.064290759014
 50
0.367673943054
 51
29.635046803759
210
0
220
0
230
1.0
 0
LINE
 8
TOOL_0
 5
94
 10
959.541
 20
1549.522
 30
0
 11
959.541
 21
1504.881
 31
0
 0
ARC
 8
TOOL_0
 5
95
 10
948.477
 20
1504.952
 30
0
 40
11.064227808573
 50
330.364953196241
 51
359.632326056947
210
0
220
0
230
1.0
 0
LINE
 8
TOOL_0
 5
96
 10
958.094
 20
1499.481
 30
0
 11
953.66
 21
1491.802
 31
0
 0
ARC
 8
TOOL_0
 5
97
 10
909.627
 20
1517.267
 30
0
 40
50.866209943341
 50
271.619977476978
 51
329.958506845517
210
0
220
0
230
1.0
 0
ARC
 8
TOOL_0
 5
98
 10
909.884
 20
1436.738
 30
0
 40
29.706484982239
 50
87.721569789111
 51
124.234650182548
210
0
220
0
230
1.0
 0
LINE
 8
TOOL_0
 5
99
 10
893.172
 20
1461.297
 30
0
 11
878.195
 21
1451.045
 31
0
 0
ARC
 8
TOOL_0
 5
9A
 10
889.04
 20
1435.201
 30
0
 40
19.200165650327
 50
124.391103374777
 51
180.0
210
0
220
0
230
1.0
 0
LINE
 8
TOOL_0
 5
9B
 10
869.84
 20
1435.201
 30
0
 11
869.84
 21
1339.096
 31
0
 0
LINE
 8
TOOL_0
 5
9C
 10
869.84
 20
1339.096
 30
0
 11
860.524
 21
1304.328
 31
0
 0
ARC
 8
TOOL_0
 5
9D
 10
857.819
 20
1305.053
 30
0
 40
2.800473174305
 50
255.015861915197
 51
344.996098263105
210
0
220
0
230
1.0
 0
LINE
 8
TOOL_0
 5
9E
 10
857.095
 20
1302.348
 30
0
 11
829.422
 21
1309.763
 31
0
 0
ARC
 8
TOOL_0
 5
9F
 10
830.198
 20
1312.661
 30
0
 40
3.000096665109
 50
165.004591342321
 51
255.00953278444
210
0
220
0
230
1.0
 0
LINE
 8
TOOL_0
 5
A0
 10
827.301
 20
1313.437
 30
0
 11
827.793
 21
1315.272
 31
0
 0
ARC
 8
TOOL_0
 5
A1
 10
824.895
 20
1316.048
 30
0
 40
3.000096665109
 50
345.009532784439
 51
74.99108632334
210
0
220
0
230
1.0
 0
LINE
 8
TOOL_0
 5
A2
 10
825.672
 20
1318.946
 30
0
 11
773.898
 21
1332.819
 31
0
 0
ARC
 8
TOOL_0
 5
A3
 10
773.122
 20
1329.921
 30
0
 40
3.000096665109
 50
75.009532784441
 51
164.991086323345
210
0
220
0
230
1.0
 0
LINE
 8
TOOL_0
 5
A4
 10
770.224
 20
1330.698
 30
0
 11
769.732
 21
1328.863
 31
0
 0
ARC
 8
TOOL_0
 5
A5
 10
766.834
 20
1329.639
 30
0
 40
3.000096665109
 50
255.004591342324
 51
345.009532784439
210
0
220
0
230
1.0
 0
LINE
 8
TOOL_0
 5
A6
 10
766.058
 20
1326.742
 30
0
 11
734.664
 21
1335.154
 31
0
 0
ARC
 8
TOOL_0
 5
A7
 10
735.44
 20
1338.052
 30
0
 40
3.000096665109
 50
180.0
 51
255.00953278444
210
0
220
0
230
1.0
 0
LINE
 8
TOOL_0
 5
A8
 10
732.44
 20
1338.052
 30
0
 11
732.44
 21
1418.702
 31
0
 0
ARC
 8
TOOL_0
 5
A9
 10
713.04
 20
1418.702
 30
0
 40
19.4
 50
0
 51
90.0
210
0
220
0
230
1.0
 0
ARC
 8
TOOL_0
 5
AA
 10
713.067
 20
1448.734
 30
0
 40
10.632034283241
 50
189.83972311836
 51
269.854497486707
210
0
220
0
230
1.0
 0
ARC
 8
TOOL_0
 5
AB
 10
643.099
 20
1440.941
 30
0
 40
59.791392691591
 50
5.736147090083
 51
42.017911442877
210
0
220
0
230
1.0
 0
ARC
 8
TOOL_0
 5
AC
 10
331.846
 20
1140.767
 30
0
 40
492.176099269357
 50
43.72579954476
 51
45.767625426121
210
0
220
0
230
1.0
 0
ARC
 8
TOOL_0
 5
AD
 10
661.455
 20
1479.701
 30
0
 40
19.400181648634
 50
45.0
 51
90.0
210
0
220
0
230
1.0
 0
LINE
 8
TOOL_0
 5
AE
 10
661.455
 20
1499.101
 30
0
 11
508.139
 21
1499.101
 31
0
 0
ARC
 8
TOOL_0
 5
AF
 10
508.139
 20
1484.101
 30
0
 40
15.0
 50
90.0
 51
180.0
210
0
220
0
230
1.0
 0
LINE
 8
TOOL_0
 5
B0
 10
493.139
 20
1484.101
 30
0
 11
493.139
 21
1477.101
 31
0
 0
ARC
 8
TOOL_0
 5
B1
 10
490.139
 20
1477.101
 30
0
 40
3.0
 50
270.0
 51
0
210
0
220
0
230
1.0
 0
LINE
 8
TOOL_0
 5
B2
 10
490.139
 20
1474.101
 30
0
 11
424.739
 21
1474.101
 31
0
 0
ARC
 8
TOOL_0
 5
B3
 10
424.739
 20
1477.101
 30
0
 40
3.0
 50
180.0
 51
270.0
210
0
220
0
230
1.0
 0
LINE
 8
TOOL_0
 5
B4
 10
421.739
 20
1477.101
 30
0
 11
421.739
 21
1577.301
 31
0
 0
LINE
 8
TOOL_0
 5
B5
 10
421.739
 20
1577.301
 30
0
 11
421.739
 21
1582.433
 31
0
 0
LINE
 8
TOOL_0
 5
B6
 10
421.739
 20
1582.433
 30
0
 11
180.727
 21
1781.859
 31
0
 0
LINE
 8
TOOL_0
 5
B7
 10
180.727
 20
1781.859
 30
0
 11
210.727
 21
1781.859
 31
0
 0
LINE
 8
TOOL_0
 5
B8
 10
210.727
 20
1781.859
 30
0
 11
210.727
 21
1811.859
 31
0
 0
ARC
 8
TOOL_0
 5
B9
 10
200.727
 20
1811.859
 30
0
 40
10.0
 50
0
 51
90.0
210
0
220
0
230
1.0
 0
LINE
 8
TOOL_0
 5
BA
 10
200.727
 20
1821.859
 30
0
 11
154.727
 21
1821.859
 31
0
 0
ARC
 8
TOOL_0
 5
BB
 10
154.727
 20
1811.859
 30
0
 40
10.0
 50
90.0
 51
180.0
210
0
220
0
230
1.0
 0
LINE
 8
TOOL_0
 5
BC
 10
144.727
 20
1811.859
 30
0
 11
144.727
 21
1751.859
 31
0
 0
ARC
 8
TOOL_0
 5
BD
 10
154.727
 20
1751.859
 30
0
 40
10.0
 50
180.0
 51
270.0
210
0
220
0
230
1.0
 0
LINE
 8
TOOL_0
 5
BE
 10
154.727
 20
1741.859
 30
0
 11
200.727
 21
1741.859
 31
0
 0
ARC
 8
TOOL_0
 5
BF
 10
200.727
 20
1751.859
 30
0
 40
10.0
 50
270.0
 51
0
210
0
220
0
230
1.0
 0
LINE
 8
TOOL_0
 5
C0
 10
210.727
 20
1751.859
 30
0
 11
210.727
 21
1781.859
 31
0
 0
LINE
 8
TOOL_0
 5
C1
 10
210.727
 20
1781.859
 30
0
 11
207.191
 21
1785.395
 31
0
 0
LINE
 8
TOOL_0
 5
C2
 10
207.191
 20
1785.395
 30
0
 11
180.726
 21
1527.859
 31
0
 0
LINE
 8
TOOL_0
 5
C3
 10
180.726
 20
1527.859
 30
0
 11
210.726
 21
1527.859
 31
0
 0
LINE
 8
TOOL_0
 5
C4
 10
210.726
 20
1527.859
 30
0
 11
210.726
 21
1557.859
 31
0
 0
ARC
 8
TOOL_0
 5
C5
 10
200.726
 20
1557.859
 30
0
 40
10.0
 50
0
 51
90.0
210
0
220
0
230
1.0
 0
LINE
 8
TOOL_0
 5
C6
 10
200.726
 20
1567.859
 30
0
 11
154.726
 21
1567.859
 31
0
 0
ARC
 8
TOOL_0
 5
C7
 10
154.726
 20
1557.859
 30
0
 40
10.0
 50
90.0
 51
180.0
210
0
220
0
230
1.0
 0
LINE
 8
TOOL_0
 5
C8
 10
144.726
 20
1557.859
 30
0
 11
144.726
 21
1497.859
 31
0
 0
ARC
 8
TOOL_0
 5
C9
 10
154.726
 20
1497.859
 30
0
 40
10.0
 50
180.0
 51
270.0
210
0
220
0
230
1.0
 0
LINE
 8
TOOL_0
 5
CA
 10
154.726
 20
1487.859
 30
0
 11
200.726
 21
1487.859
 31
0
 0
ARC
 8
TOOL_0
 5
CB
 10
200.726
 20
1497.859
 30
0
 40
10.0
 50
270.0
 51
0
210
0
220
0
230
1.0
 0
LINE
 8
TOOL_0
 5
CC
 10
210.726
 20
1497.859
 30
0
 11
210.726
 21
1527.859
 31
0
 0
LINE
 8
TOOL_0
 5
CD
 10
210.726
 20
1527.859
 30
0
 11
207.19
 21
1531.395
 31
0
 0
LINE
 8
TOOL_0
 5
CE
 10
207.19
 20
1531.395
 30
0
 11
557.025
 21
1734.332
 31
0
 0
LINE
 8
TOOL_0
 5
CF
 10
557.025
 20
1734.332
 30
0
 11
557.025
 21
1704.959
 31
0
 0
LINE
 8
TOOL_0
 5
D0
 10
557.025
 20
1704.959
 30
0
 11
557.025
 21
1604.759
 31
0
 0
ARC
 8
TOOL_0
 5
D1
 10
554.025
 20
1604.759
 30
0
 40
3.0
 50
270.0
 51
0
210
0
220
0
230
1.0
 0
LINE
 8
TOOL_0
 5
D2
 10
554.025
 20
1601.759
 30
0
 11
488.625
 21
1601.759
 31
0
 0
ARC
 8
TOOL_0
 5
D3
 10
488.625
 20
1604.759
 30
0
 40
3.0
 50
180.0
 51
270.0
210
0
220
0
230
1.0
 0
LINE
 8
TOOL_0
 5
D4
 10
485.625
 20
1604.759
 30
0
 11
485.625
 21
1611.759
 31
0
 0
ARC
 8
TOOL_0
 5
D5
 10
470.625
 20
1611.759
 30
0
 40
15.0
 50
0
 51
90.0
210
0
220
0
230
1.0
 0
LINE
 8
TOOL_0
 5
D6
 10
470.625
 20
1626.759
 30
0
 11
317.309
 21
1626.759
 31
0
 0
ARC
 8
TOOL_0
 5
D7
 10
317.309
 20
1607.359
 30
0
 40
19.4
 50
90.0
 51
135.0
210
0
220
0
230
1.0
 0
LINE
 8
TOOL_0
 5
D8
 10
303.591
 20
1621.077
 30
0
 11
293.313
 21
1610.799
 31
0
 0
ARC
 8
TOOL_0
 5
D9
 10
335.464
 20
1568.726
 30
0
 40
59.555387077913
 50
135.053061710728
 51
173.745757649056
210
0
220
0
230
1.0
 0
ARC
 8
TOOL_0
 5
DA
 10
265.725
 20
1576.359
 30
0
 40
10.600022122618
 50
270.0
 51
353.798888446262
210
0
220
0
230
1.0
 0
ARC
 8
TOOL_0
 5
DB
 10
265.725
 20
1546.359
 30
0
 40
19.4
 50
90.0
 51
180.0
210
0
220
0
230
1.0
 0
LINE
 8
TOOL_0
 5
DC
 10
246.325
 20
1546.359
 30
0
 11
246.325
 21
1465.709
 31
0
 0
ARC
 8
TOOL_0
 5
DD
 10
243.325
 20
1465.709
 30
0
 40
3.0
 50
284.990467215561
 51
0
210
0
220
0
230
1.0
 0
LINE
 8
TOOL_0
 5
DE
 10
244.101
 20
1462.811
 30
0
 11
212.707
 21
1454.399
 31
0
 0
ARC
 8
TOOL_0
 5
DF
 10
211.931
 20
1457.297
 30
0
 40
3.000096665109
 50
195.008913676655
 51
284.990467215561
210
0
220
0
230
1.0
 0
LINE
 8
TOOL_0
 5
E0
 10
209.033
 20
1456.52
 30
0
 11
208.541
 21
1458.355
 31
0
 0
ARC
 8
TOOL_0
 5
E1
 10
205.643
 20
1457.579
 30
0
 40
3.000096665109
 50
14.990467215561
 51
104.995408657676
210
0
220
0
230
1.0
 0
LINE
 8
TOOL_0
 5
E2
 10
204.867
 20
1460.476
 30
0
 11
153.093
 21
1446.603
 31
0
 0
ARC
 8
TOOL_0
 5
E3
 10
153.869
 20
1443.705
 30
0
 40
3.000096665109
 50
104.99046721556
 51
194.995408657678
210
0
220
0
230
1.0
 0
LINE
 8
TOOL_0
 5
E4
 10
150.972
 20
1442.929
 30
0
 11
151.464
 21
1441.094
 31
0
 0
ARC
 8
TOOL_0
 5
E5
 10
148.566
 20
1440.318
 30
0
 40
3.000096665109
 50
285.008913676659
 51
14.990467215561
210
0
220
0
230
1.0
 0
LINE
 8
TOOL_0
 5
E6
 10
149.343
 20
1437.42
 30
0
 11
121.67
 21
1430.005
 31
0
 0
ARC
 8
TOOL_0
 5
E7
 10
120.945
 20
1432.71
 30
0
 40
2.800473174305
 50
195.009200172028
 51
285.003901736897
210
0
220
0
230
1.0
 0
LINE
 8
TOOL_0
 5
E8
 10
118.241
 20
1431.985
 30
0
 11
108.925
 21
1466.753
 31
0
 0
LINE
 8
TOOL_0
 5
E9
 10
108.925
 20
1466.753
 30
0
 11
108.925
 21
1562.858
 31
0
 0
ARC
 8
TOOL_0
 5
EA
 10
89.725
 20
1562.858
 30
0
 40
19.2
 50
0
 51
55.608896625223
210
0
220
0
230
1.0
 0
LINE
 8
TOOL_0
 5
EB
 10
100.57
 20
1578.702
 30
0
 11
85.593
 21
1588.954
 31
0
 0
ARC
 8
TOOL_0
 5
EC
 10
69.099
 20
1564.859
 30
0
 40
29.199675700254
 50
55.606785125803
 51
87.976512547702
210
0
220
0
230
1.0
 0
ARC
 8
TOOL_0
 5
ED
 10
69.177
 20
1644.94
 30
0
 40
50.908920721225
 50
214.740495244392
 51
271.072622767533
210
0
220
0
230
1.0
 0
ARC
 8
TOOL_0
 5
EE
 10
169.529
 20
1708.149
 30
0
 40
169.473853428781
 50
208.555470792514
 51
212.966920169158
210
0
220
0
230
1.0
 0
ARC
 8
TOOL_0
 5
EF
 10
30.288
 20
1632.609
 30
0
 40
11.063796319528
 50
180.367707176703
 51
209.630545539638
210
0
220
0
230
1.0
 0
LINE
 8
TOOL_0
 5
F0
 10
19.225
 20
1632.538
 30
0
 11
19.225
 21
1677.179
 31
0
 0
ARC
 8
TOOL_0
 5
F1
 10
30.289
 20
1677.108
 30
0
 40
11.064227808573
 50
150.36495319624
 51
179.632326056946
210
0
220
0
230
1.0
 0
LINE
 8
TOOL_0
 5
F2
 10
20.672
 20
1682.579
 30
0
 11
25.106
 21
1690.258
 31
0
 0
ARC
 8
TOOL_0
 5
F3
 10
69.139
 20
1664.793
 30
0
 40
50.866209943341
 50
91.62110342507
 51
149.958506845517
210
0
220
0
230
1.0
 0
ARC
 8
TOOL_0
 5
F4
 10
68.881
 20
1745.322
 30
0
 40
29.706484982239
 50
267.721569789111
 51
304.236244747272
210
0
220
0
230
1.0
 0
LINE
 8
TOOL_0
 5
F5
 10
85.594
 20
1720.763
 30
0
 11
100.571
 21
1731.015
 31
0
 0
ARC
 8
TOOL_0
 5
F6
 10
89.726
 20
1746.859
 30
0
 40
19.200165650327
 50
304.391103374777
 51
359.99701584482
210
0
220
0
230
1.0
 0
LINE
 8
TOOL_0
 5
F7
 10
108.926
 20
1746.858
 30
0
 11
108.926
 21
1842.963
 31
0
 0
LINE
 8
TOOL_0
 5
F8
 10
108.926
 20
1842.963
 30
0
 11
118.242
 21
1877.731
 31
0
 0
ARC
 8
TOOL_0
 5
F9
 10
120.947
 20
1877.006
 30
0
 40
2.800473174305
 50
75.015861915195
 51
164.996098263105
210
0
220
0
230
1.0
 0
LINE
 8
TOOL_0
 5
FA
 10
121.671
 20
1879.711
 30
0
 11
149.344
 21
1872.296
 31
0
 0
ARC
 8
TOOL_0
 5
FB
 10
148.568
 20
1869.398
 30
0
 40
3.000096665109
 50
345.004591342322
 51
75.00953278444
210
0
220
0
230
1.0
 0
LINE
 8
TOOL_0
 5
FC
 10
151.465
 20
1868.622
 30
0
 11
150.973
 21
1866.787
 31
0
 0
ARC
 8
TOOL_0
 5
FD
 10
153.871
 20
1866.011
 30
0
 40
3.000096665109
 50
165.009532784439
 51
254.991086323341
210
0
220
0
230
1.0
 0
LINE
 8
TOOL_0
 5
FE
 10
153.094
 20
1863.113
 30
0
 11
204.868
 21
1849.24
 31
0
 0
ARC
 8
TOOL_0
 5
FF
 10
205.644
 20
1852.138
 30
0
 40
3.000096665109
 50
255.009532784439
 51
344.991086323345
210
0
220
0
230
1.0
 0
LINE
 8
TOOL_0
 5
100
 10
208.542
 20
1851.361
 30
0
 11
209.034
 21
1853.196
 31
0
 0
ARC
 8
TOOL_0
 5
101
 10
211.932
 20
1852.42
 30
0
 40
3.000096665109
 50
75.004591342324
 51
165.009532784439
210
0
220
0
230
1.0
 0
LINE
 8
TOOL_0
 5
102
 10
212.708
 20
1855.317
 30
0
 11
244.102
 21
1846.905
 31
0
 0
ARC
 8
TOOL_0
 5
103
 10
243.326
 20
1844.007
 30
0
 40
3.000096665109
 50
0
 51
75.00953278444
210
0
220
0
230
1.0
 0
LINE
 8
TOOL_0
 5
104
 10
246.326
 20
1844.007
 30
0
 11
246.326
 21
1763.357
 31
0
 0
ARC
 8
TOOL_0
 5
105
 10
265.726
 20
1763.357
 30
0
 40
19.4
 50
180.0
 51
270.0
210
0
220
0
230
1.0
 0
ARC
 8
TOOL_0
 5
106
 10
265.699
 20
1733.325
 30
0
 40
10.632034283241
 50
9.83972311836
 51
89.854497486708
210
0
220
0
230
1.0
 0
ARC
 8
TOOL_0
 5
107
 10
335.667
 20
1741.118
 30
0
 40
59.791392691591
 50
185.736147090083
 51
222.017911442877
210
0
220
0
230
1.0
 0
ARC
 8
TOOL_0
 5
108
 10
646.92
 20
2041.292
 30
0
 40
492.176099269357
 50
223.72579954476
 51
225.76737739596
210
0
220
0
230
1.0
 0
ARC
 8
TOOL_0
 5
109
 10
317.311
 20
1702.357
 30
0
 40
19.400181854818
 50
224.991646627918
 51
270.0
210
0
220
0
230
1.0
 0
LINE
 8
TOOL_0
 5
10A
 10
317.311
 20
1682.957
 30
0
 11
470.627
 21
1682.957
 31
0
 0
ARC
 8
TOOL_0
 5
10B
 10
470.627
 20
1697.957
 30
0
 40
15.0
 50
270.0
 51
0
210
0
220
0
230
1.0
 0
LINE
 8
TOOL_0
 5
10C
 10
485.627
 20
1697.957
 30
0
 11
485.627
 21
1704.957
 31
0
 0
ARC
 8
TOOL_0
 5
10D
 10
488.627
 20
1704.957
 30
0
 40
3.0
 50
90.0
 51
180.0
210
0
220
0
230
1.0
 0
LINE
 8
TOOL_0
 5
10E
 10
488.627
 20
1707.957
 30
0
 11
554.027
 21
1707.957
 31
0
 0
ARC
 8
TOOL_0
 5
10F
 10
554.027
 20
1704.957
 30
0
 40
3.0
 50
0
 51
90.0
210
0
220
0
230
1.0
 0
LINE
 8
TOOL_0
 5
110
 10
557.027
 20
1704.957
 30
0
 11
561.165
 21
1701.307
 31
0
 0
LINE
 8
TOOL_0
 5
111
 10
561.165
 20
1701.307
 30
0
 11
646.692
 21
2028.199
 31
0
 0
LINE
 8
TOOL_0
 5
112
 10
646.692
 20
2028.199
 30
0
 11
676.692
 21
2028.199
 31
0
 0
LINE
 8
TOOL_0
 5
113
 10
676.692
 20
2028.199
 30
0
 11
676.692
 21
2058.199
 31
0
 0
ARC
 8
TOOL_0
 5
114
 10
666.692
 20
2058.199
 30
0
 40
10.0
 50
0
 51
90.0
210
0
220
0
230
1.0
 0
LINE
 8
TOOL_0
 5
115
 10
666.692
 20
2068.199
 30
0
 11
620.692
 21
2068.199
 31
0
 0
ARC
 8
TOOL_0
 5
116
 10
620.692
 20
2058.199
 30
0
 40
10.0
 50
90.0
 51
180.0
210
0
220
0
230
1.0
 0
LINE
 8
TOOL_0
 5
117
 10
610.692
 20
2058.199
 30
0
 11
610.692
 21
1998.199
 31
0
 0
ARC
 8
TOOL_0
 5
118
 10
620.692
 20
1998.199
 30
0
 40
10.0
 50
180.0
 51
270.0
210
0
220
0
230
1.0
 0
LINE
 8
TOOL_0
 5
119
 10
620.692
 20
1988.199
 30
0
 11
666.692
 21
1988.199
 31
0
 0
ARC
 8
TOOL_0
 5
11A
 10
666.692
 20
1998.199
 30
0
 40
10.0
 50
270.0
 51
0
210
0
220
0
230
1.0
 0
LINE
 8
TOOL_0
 5
11B
 10
676.692
 20
1998.199
 30
0
 11
676.692
 21
2028.199
 31
0
 0
LINE
 8
TOOL_0
 5
11C
 10
676.692
 20
2028.199
 30
0
 11
673.156
 21
2031.735
 31
0
 0
LINE
 8
TOOL_0
 5
11D
 10
673.156
 20
2031.735
 30
0
 11
646.691
 21
1774.2
 31
0
 0
LINE
 8
TOOL_0
 5
11E
 10
646.691
 20
1774.2
 30
0
 11
676.691
 21
1774.2
 31
0
 0
LINE
 8
TOOL_0
 5
11F
 10
676.691
 20
1774.2
 30
0
 11
676.691
 21
1804.2
 31
0
 0
ARC
 8
TOOL_0
 5
120
 10
666.691
 20
1804.2
 30
0
 40
10.0
 50
0
 51
90.0
210
0
220
0
230
1.0
 0
LINE
 8
TOOL_0
 5
121
 10
666.691
 20
1814.2
 30
0
 11
620.691
 21
1814.2
 31
0
 0
ARC
 8
TOOL_0
 5
122
 10
620.691
 20
1804.2
 30
0
 40
10.0
 50
90.0
 51
180.0
210
0
220
0
230
1.0
 0
LINE
 8
TOOL_0
 5
123
 10
610.691
 20
1804.2
 30
0
 11
610.691
 21
1744.2
 31
0
 0
ARC
 8
TOOL_0
 5
124
 10
620.691
 20
1744.2
 30
0
 40
10.0
 50
180.0
 51
270.0
210
0
220
0
230
1.0
 0
LINE
 8
TOOL_0
 5
125
 10
620.691
 20
1734.2
 30
0
 11
666.691
 21
1734.2
 31
0
 0
ARC
 8
TOOL_0
 5
126
 10
666.691
 20
1744.2
 30
0
 40
10.0
 50
270.0
 51
0
210
0
220
0
230
1.0
 0
LINE
 8
TOOL_0
 5
127
 10
676.691
 20
1744.2
 30
0
 11
676.691
 21
1774.2
 31
0
 0
LINE
 8
TOOL_0
 5
128
 10
676.691
 20
1774.2
 30
0
 11
673.155
 21
1777.736
 31
0
 0
LINE
 8
TOOL_0
 5
129
 10
673.155
 20
1777.736
 30
0
 11
252.996
 21
1922.865
 31
0
 0
LINE
 8
TOOL_0
 5
12A
 10
252.996
 20
1922.865
 30
0
 11
264.39
 21
1951.301
 31
0
 0
ARC
 8
TOOL_0
 5
12B
 10
267.39
 20
1951.301
 30
0
 40
3.0
 50
90.0
 51
180.0
210
0
220
0
230
1.0
 0
LINE
 8
TOOL_0
 5
12C
 10
267.39
 20
1954.301
 30
0
 11
332.79
 21
1954.301
 31
0
 0
ARC
 8
TOOL_0
 5
12D
 10
332.79
 20
1951.301
 30
0
 40
3.0
 50
0
 51
90.0
210
0
220
0
230
1.0
 0
LINE
 8
TOOL_0
 5
12E
 10
335.79
 20
1951.301
 30
0
 11
335.79
 21
1944.301
 31
0
 0
ARC
 8
TOOL_0
 5
12F
 10
350.79
 20
1944.301
 30
0
 40
15.0
 50
180.0
 51
270.0
210
0
220
0
230
1.0
 0
LINE
 8
TOOL_0
 5
130
 10
350.79
 20
1929.301
 30
0
 11
504.106
 21
1929.301
 31
0
 0
ARC
 8
TOOL_0
 5
131
 10
504.106
 20
1948.701
 30
0
 40
19.4
 50
270.0
 51
315.0
210
0
220
0
230
1.0
 0
LINE
 8
TOOL_0
 5
132
 10
517.824
 20
1934.983
 30
0
 11
528.102
 21
1945.261
 31
0
 0
ARC
 8
TOOL_0
 5
133
 10
485.951
 20
1987.334
 30
0
 40
59.555387077913
 50
315.053061710728
 51
353.744801319129
210
0
220
0
230
1.0
 0
ARC
 8
TOOL_0
 5
134
 10
555.69
 20
1979.7
 30
0
 40
10.600022122618
 50
90.0
 51
173.798888446261
210
0
220
0
230
1.0
 0
ARC
 8
TOOL_0
 5
135
 10
555.69
 20
2009.7
 30
0
 40
19.4
 50
270.0
 51
0
210
0
220
0
230
1.0
 0
LINE
 8
TOOL_0
 5
136
 10
575.09
 20
2009.7
 30
0
 11
575.09
 21
2090.35
 31
0
 0
ARC
 8
TOOL_0
 5
137
 10
578.09
 20
2090.35
 30
0
 40
3.0
 50
104.990467215558
 51
180.0
210
0
220
0
230
1.0
 0
LINE
 8
TOOL_0
 5
138
 10
577.314
 20
2093.248
 30
0
 11
608.708
 21
2101.66
 31
0
 0
ARC
 8
TOOL_0
 5
139
 10
609.484
 20
2098.762
 30
0
 40
3.000096665109
 50
15.008913676659
 51
104.990467215558
210
0
220
0
230
1.0
 0
LINE
 8
TOOL_0
 5
13A
 10
612.382
 20
2099.539
 30
0
 11
612.874
 21
2097.704
 31
0
 0
ARC
 8
TOOL_0
 5
13B
 10
615.772
 20
2098.48
 30
0
 40
3.000096665109
 50
194.990467215556
 51
284.995408657676
210
0
220
0
230
1.0
 0
LINE
 8
TOOL_0
 5
13C
 10
616.548
 20
2095.583
 30
0
 11
668.322
 21
2109.456
 31
0
 0
ARC
 8
TOOL_0
 5
13D
 10
667.546
 20
2112.354
 30
0
 40
3.000096665109
 50
284.990467215558
 51
14.995408657674
210
0
220
0
230
1.0
 0
LINE
 8
TOOL_0
 5
13E
 10
670.443
 20
2113.13
 30
0
 11
669.951
 21
2114.965
 31
0
 0
ARC
 8
TOOL_0
 5
13F
 10
672.849
 20
2115.741
 30
0
 40
3.000096665109
 50
105.008913676659
 51
194.990467215556
210
0
220
0
230
1.0
 0
LINE
 8
TOOL_0
 5
140
 10
672.072
 20
2118.639
 30
0
 11
699.745
 21
2126.054
 31
0
 0
ARC
 8
TOOL_0
 5
141
 10
700.47
 20
2123.349
 30
0
 40
2.800473174305
 50
15.009200172028
 51
105.003901736897
210
0
220
0
230
1.0
 0
LINE
 8
TOOL_0
 5
142
 10
703.174
 20
2124.074
 30
0
 11
712.49
 21
2089.306
 31
0
 0
LINE
 8
TOOL_0
 5
143
 10
712.49
 20
2089.306
 30
0
 11
712.49
 21
1993.201
 31
0
 0
ARC
 8
TOOL_0
 5
144
 10
731.69
 20
1993.201
 30
0
 40
19.2
 50
180.0
 51
235.608896625223
210
0
220
0
230
1.0
 0
LINE
 8
TOOL_0
 5
145
 10
720.845
 20
1977.357
 30
0
 11
735.822
 21
1967.105
 31
0
 0
ARC
 8
TOOL_0
 5
146
 10
752.316
 20
1991.2
 30
0
 40
29.199675700254
 50
235.606785125802
 51
267.976512547702
210
0
220
0
230
1.0
 0
ARC
 8
TOOL_0
 5
147
 10
752.238
 20
1911.119
 30
0
 40
50.908920721225
 50
34.740495244392
 51
91.072622767533
210
0
220
0
230
1.0
 0
ARC
 8
TOOL_0
 5
148
 10
651.886
 20
1847.91
 30
0
 40
169.473853428781
 50
28.555767746478
 51
32.966920169159
210
0
220
0
230
1.0
 0
ARC
 8
TOOL_0
 5
149
 10
791.127
 20
1923.45
 30
0
 40
11.064290759014
 50
0.367673943054
 51
29.635046803759
210
0
220
0
230
1.0
 0
LINE
 8
TOOL_0
 5
14A
 10
802.191
 20
1923.521
 30
0
 11
802.191
 21
1878.88
 31
0
 0
ARC
 8
TOOL_0
 5
14B
 10
791.127
 20
1878.951
 30
0
 40
11.064227808573
 50
330.364953196241
 51
359.632326056947
210
0
220
0
230
1.0
 0
LINE
 8
TOOL_0
 5
14C
 10
800.744
 20
1873.48
 30
0
 11
796.31
 21
1865.801
 31
0
 0
ARC
 8
TOOL_0
 5
14D
 10
752.277
 20
1891.266
 30
0
 40
50.866209943341
 50
271.619977476978
 51
329.958506845517
210
0
220
0
230
1.0
 0
ARC
 8
TOOL_0
 5
14E
 10
752.534
 20
1810.737
 30
0
 40
29.706484982239
 50
87.721569789111
 51
124.234650182548
210
0
220
0
230
1.0
 0
LINE
 8
TOOL_0
 5
14F
 10
735.822
 20
1835.296
 30
0
 11
720.845
 21
1825.044
 31
0
 0
ARC
 8
TOOL_0
 5
150
 10
731.69
 20
1809.2
 30
0
 40
19.200165650327
 50
124.391103374777
 51
180.0
210
0
220
0
230
1.0
 0
LINE
 8
TOOL_0
 5
151
 10
712.49
 20
1809.2
 30
0
 11
712.49
 21
1713.095
 31
0
 0
LINE
 8
TOOL_0
 5
152
 10
712.49
 20
1713.095
 30
0
 11
703.174
 21
1678.327
 31
0
 0
ARC
 8
TOOL_0
 5
153
 10
700.469
 20
1679.052
 30
0
 40
2.800473174305
 50
255.015861915197
 51
344.996098263105
210
0
220
0
230
1.0
 0
LINE
 8
TOOL_0
 5
154
 10
699.745
 20
1676.347
 30
0
 11
672.072
 21
1683.762
 31
0
 0
ARC
 8
TOOL_0
 5
155
 10
672.848
 20
1686.66
 30
0
 40
3.000096665109
 50
165.004591342321
 51
255.00953278444
210
0
220
0
230
1.0
 0
LINE
 8
TOOL_0
 5
156
 10
669.951
 20
1687.436
 30
0
 11
670.443
 21
1689.271
 31
0
 0
ARC
 8
TOOL_0
 5
157
 10
667.545
 20
1690.047
 30
0
 40
3.000096665109
 50
345.009532784439
 51
74.99108632334
210
0
220
0
230
1.0
 0
LINE
 8
TOOL_0
 5
158
 10
668.322
 20
1692.945
 30
0
 11
616.548
 21
1706.818
 31
0
 0
ARC
 8
TOOL_0
 5
159
 10
615.772
 20
1703.92
 30
0
 40
3.000096665109
 50
75.009532784441
 51
164.991086323345
210
0
220
0
230
1.0
 0
LINE
 8
TOOL_0
 5
15A
 10
612.874
 20
1704.697
 30
0
 11
612.382
 21
1702.862
 31
0
 0
ARC
 8
TOOL_0
 5
15B
 10
609.484
 20
1703.638
 30
0
 40
3.000096665109
 50
255.004591342324
 51
345.009532784439
210
0
220
0
230
1.0
 0
LINE
 8
TOOL_0
 5
15C
 10
608.708
 20
1700.741
 30
0
 11
577.314
 21
1709.153
 31
0
 0
ARC
 8
TOOL_0
 5
15D
 10
578.09
 20
1712.051
 30
0
 40
3.000096665109
 50
180.0
 51
255.00953278444
210
0
220
0
230
1.0
 0
LINE
 8
TOOL_0
 5
15E
 10
575.09
 20
1712.051
 30
0
 11
575.09
 21
1792.701
 31
0
 0
ARC
 8
TOOL_0
 5
15F
 10
555.69
 20
1792.701
 30
0
 40
19.4
 50
0
 51
90.0
210
0
220
0
230
1.0
 0
ARC
 8
TOOL_0
 5
160
 10
555.717
 20
1822.733
 30
0
 40
10.632034283241
 50
189.83972311836
 51
269.854497486707
210
0
220
0
230
1.0
 0
ARC
 8
TOOL_0
 5
161
 10
485.749
 20
1814.94
 30
0
 40
59.791392691591
 50
5.736147090083
 51
42.017911442877
210
0
220
0
230
1.0
 0
ARC
 8
TOOL_0
 5
162
 10
174.496
 20
1514.766
 30
0
 40
492.176099269357
 50
43.72579954476
 51
45.767625426121
210
0
220
0
230
1.0
 0
ARC
 8
TOOL_0
 5
163
 10
504.105
 20
1853.7
 30
0
 40
19.400181648634
 50
45.0
 51
90.0
210
0
220
0
230
1.0
 0
LINE
 8
TOOL_0
 5
164
 10
504.105
 20
1873.1
 30
0
 11
350.789
 21
1873.1
 31
0
 0
ARC
 8
TOOL_0
 5
165
 10
350.789
 20
1858.1
 30
0
 40
15.0
 50
90.0
 51
180.0
210
0
220
0
230
1.0
 0
LINE
 8
TOOL_0
 5
166
 10
335.789
 20
1858.1
 30
0
 11
335.789
 21
1851.1
 31
0
 0
ARC
 8
TOOL_0
 5
167
 10
332.789
 20
1851.1
 30
0
 40
3.0
 50
270.0
 51
0
210
0
220
0
230
1.0
 0
LINE
 8
TOOL_0
 5
168
 10
332.789
 20
1848.1
 30
0
 11
267.389
 21
1848.1
 31
0
 0
ARC
 8
TOOL_0
 5
169
 10
267.389
 20
1851.1
 30
0
 40
3.0
 50
180.0
 51
270.0
210
0
220
0
230
1.0
 0
LINE
 8
TOOL_0
 5
16A
 10
264.389
 20
1851.1
 30
0
 11
264.389
 21
1951.3
 31
0
 0
LINE
 8
TOOL_0
 5
16B
 10
264.389
 20
1951.3
 30
0
 11
264.389
 21
1956.432
 31
0
 0
LINE
 8
TOOL_0
 5
16C
 10
264.389
 20
1956.432
 30
0
 11
180.723
 21
2249.257
 31
0
 0
LINE
 8
TOOL_0
 5
16D
 10
180.723
 20
2249.257
 30
0
 11
210.723
 21
2249.257
 31
0
 0
LINE
 8
TOOL_0
 5
16E
 10
210.723
 20
2249.257
 30
0
 11
210.723
 21
2279.257
 31
0
 0
ARC
 8
TOOL_0
 5
16F
 10
200.723
 20
2279.257
 30
0
 40
10.0
 50
0
 51
90.0
210
0
220
0
230
1.0
 0
LINE
 8
TOOL_0
 5
170
 10
200.723
 20
2289.257
 30
0
 11
154.723
 21
2289.257
 31
0
 0
ARC
 8
TOOL_0
 5
171
 10
154.723
 20
2279.257
 30
0
 40
10.0
 50
90.0
 51
180.0
210
0
220
0
230
1.0
 0
LINE
 8
TOOL_0
 5
172
 10
144.723
 20
2279.257
 30
0
 11
144.723
 21
2219.257
 31
0
 0
ARC
 8
TOOL_0
 5
173
 10
154.723
 20
2219.257
 30
0
 40
10.0
 50
180.0
 51
270.0
210
0
220
0
230
1.0
 0
LINE
 8
TOOL_0
 5
174
 10
154.723
 20
2209.257
 30
0
 11
200.723
 21
2209.257
 31
0
 0
ARC
 8
TOOL_0
 5
175
 10
200.723
 20
2219.257
 30
0
 40
10.0
 50
270.0
 51
0
210
0
220
0
230
1.0
 0
LINE
 8
TOOL_0
 5
176
 10
210.723
 20
2219.257
 30
0
 11
210.723
 21
2249.257
 31
0
 0
LINE
 8
TOOL_0
 5
177
 10
210.723
 20
2249.257
 30
0
 11
207.187
 21
2252.793
 31
0
 0
LINE
 8
TOOL_0
 5
178
 10
207.187
 20
2252.793
 30
0
 11
180.722
 21
1995.258
 31
0
 0
LINE
 8
TOOL_0
 5
179
 10
180.722
 20
1995.258
 30
0
 11
210.722
 21
1995.258
 31
0
 0
LINE
 8
TOOL_0
 5
17A
 10
210.722
 20
1995.258
 30
0
 11
210.722
 21
2025.258
 31
0
 0
ARC
 8
TOOL_0
 5
17B
 10
200.722
 20
2025.258
 30
0
 40
10.0
 50
0
 51
90.0
210
0
220
0
230
1.0
 0
LINE
 8
TOOL_0
 5
17C
 10
200.722
 20
2035.258
 30
0
 11
154.722
 21
2035.258
 31
0
 0
ARC
 8
TOOL_0
 5
17D
 10
154.722
 20
2025.258
 30
0
 40
10.0
 50
90.0
 51
180.0
210
0
220
0
230
1.0
 0
LINE
 8
TOOL_0
 5
17E
 10
144.722
 20
2025.258
 30
0
 11
144.722
 21
1965.258
 31
0
 0
ARC
 8
TOOL_0
 5
17F
 10
154.722
 20
1965.258
 30
0
 40
10.0
 50
180.0
 51
270.0
210
0
220
0
230
1.0
 0
LINE
 8
TOOL_0
 5
180
 10
154.722
 20
1955.258
 30
0
 11
200.722
 21
1955.258
 31
0
 0
ARC
 8
TOOL_0
 5
181
 10
200.722
 20
1965.258
 30
0
 40
10.0
 50
270.0
 51
0
210
0
220
0
230
1.0
 0
LINE
 8
TOOL_0
 5
182
 10
210.722
 20
1965.258
 30
0
 11
210.722
 21
1995.258
 31
0
 0
LINE
 8
TOOL_0
 5
183
 10
210.722
 20
1995.258
 30
0
 11
207.186
 21
1998.794
 31
0
 0
LINE
 8
TOOL_0
 5
184
 10
207.186
 20
1998.794
 30
0
 11
557.021
 21
2201.731
 31
0
 0
LINE
 8
TOOL_0
 5
185
 10
557.021
 20
2201.731
 30
0
 11
557.021
 21
2172.359
 31
0
 0
LINE
 8
TOOL_0
 5
186
 10
557.021
 20
2172.359
 30
0
 11
557.021
 21
2072.159
 31
0
 0
ARC
 8
TOOL_0
 5
187
 10
554.021
 20
2072.159
 30
0
 40
3.0
 50
270.0
 51
0
210
0
220
0
230
1.0
 0
LINE
 8
TOOL_0
 5
188
 10
554.021
 20
2069.159
 30
0
 11
488.621
 21
2069.159
 31
0
 0
ARC
 8
TOOL_0
 5
189
 10
488.621
 20
2072.159
 30
0
 40
3.0
 50
180.0
 51
270.0
210
0
220
0
230
1.0
 0
LINE
 8
TOOL_0
 5
18A
 10
485.621
 20
2072.159
 30
0
 11
485.621
 21
2079.159
 31
0
 0
ARC
 8
TOOL_0
 5
18B
 10
470.621
 20
2079.159
 30
0
 40
15.0
 50
0
 51
90.0
210
0
220
0
230
1.0
 0
LINE
 8
TOOL_0
 5
18C
 10
470.621
 20
2094.159
 30
0
 11
317.305
 21
2094.159
 31
0
 0
ARC
 8
TOOL_0
 5
18D
 10
317.305
 20
2074.759
 30
0
 40
19.4
 50
90.0
 51
134.999999999999
210
0
220
0
230
1.0
 0
LINE
 8
TOOL_0
 5
18E
 10
303.587
 20
2088.477
 30
0
 11
293.309
 21
2078.199
 31
0
 0
ARC
 8
TOOL_0
 5
18F
 10
335.46
 20
2036.126
 30
0
 40
59.555387077913
 50
135.053061710728
 51
173.745757649056
210
0
220
0
230
1.0
 0
ARC
 8
TOOL_0
 5
190
 10
265.721
 20
2043.759
 30
0
 40
10.600022122618
 50
270.0
 51
353.798888446262
210
0
220
0
230
1.0
 0
ARC
 8
TOOL_0
 5
191
 10
265.721
 20
2013.759
 30
0
 40
19.4
 50
90.0
 51
180.0
210
0
220
0
230
1.0
 0
LINE
 8
TOOL_0
 5
192
 10
246.321
 20
2013.759
 30
0
 11
246.321
 21
1933.109
 31
0
 0
ARC
 8
TOOL_0
 5
193
 10
243.321
 20
1933.109
 30
0
 40
3.0
 50
284.990467215561
 51
0
210
0
220
0
230
1.0
 0
LINE
 8
TOOL_0
 5
194
 10
244.097
 20
1930.211
 30
0
 11
212.703
 21
1921.799
 31
0
 0
ARC
 8
TOOL_0
 5
195
 10
211.927
 20
1924.697
 30
0
 40
3.000096665109
 50
195.008913676655
 51
284.990467215561
210
0
220
0
230
1.0
 0
LINE
 8
TOOL_0
 5
196
 10
209.029
 20
1923.92
 30
0
 11
208.537
 21
1925.755
 31
0
 0
ARC
 8
TOOL_0
 5
197
 10
205.639
 20
1924.979
 30
0
 40
3.000096665109
 50
14.990467215561
 51
104.995408657676
210
0
220
0
230
1.0
 0
LINE
 8
TOOL_0
 5
198
 10
204.863
 20
1927.876
 30
0
 11
153.089
 21
1914.003
 31
0
 0
ARC
 8
TOOL_0
 5
199
 10
153.865
 20
1911.105
 30
0
 40
3.000096665109
 50
104.99046721556
 51
194.995408657678
210
0
220
0
230
1.0
 0
LINE
 8
TOOL_0
 5
19A
 10
150.968
 20
1910.329
 30
0
 11
151.46
 21
1908.494
 31
0
 0
ARC
 8
TOOL_0
 5
19B
 10
148.562
 20
1907.718
 30
0
 40
3.000096665109
 50
285.008913676659
 51
14.990467215561
210
0
220
0
230
1.0
 0
LINE
 8
TOOL_0
 5
19C
 10
149.339
 20
1904.82
 30
0
 11
121.666
 21
1897.405
 31
0
 0
ARC
 8
TOOL_0
 5
19D
 10
120.941
 20
1900.11
 30
0
 40
2.800473174305
 50
195.009200172028
 51
285.003901736897
210
0
220
0
230
1.0
 0
LINE
 8
TOOL_0
 5
19E
 10
118.237
 20
1899.385
 30
0
 11
108.921
 21
1934.153
 31
0
 0
LINE
 8
TOOL_0
 5
19F
 10
108.921
 20
1934.153
 30
0
 11
108.921
 21
2030.258
 31
0
 0
ARC
 8
TOOL_0
 5
1A0
 10
89.721
 20
2030.258
 30
0
 40
19.2
 50
0
 51
55.608896625223
210
0
220
0
230
1.0
 0
LINE
 8
TOOL_0
 5
1A1
 10
100.566
 20
2046.102
 30
0
 11
85.589
 21
2056.354
 31
0
 0
ARC
 8
TOOL_0
 5
1A2
 10
69.095
 20
2032.259
 30
0
 40
29.199675700254
 50
55.606785125803
 51
87.976512547702
210
0
220
0
230
1.0
 0
ARC
 8
TOOL_0
 5
1A3
 10
69.173
 20
2112.34
 30
0
 40
50.908920721225
 50
214.740495244391
 51
271.072622767533
210
0
220
0
230
1.0
 0
ARC
 8
TOOL_0
 5
1A4
 10
169.525
 20
2175.549
 30
0
 40
169.473853428781
 50
208.555470792514
 51
212.966920169158
210
0
220
0
230
1.0
 0
ARC
 8
TOOL_0
 5
1A5
 10
30.284
 20
2100.009
 30
0
 40
11.063796319528
 50
180.367707176701
 51
209.630545539637
210
0
220
0
230
1.0
 0
LINE
 8
TOOL_0
 5
1A6
 10
19.221
 20
2099.938
 30
0
 11
19.221
 21
2144.579
 31
0
 0
ARC
 8
TOOL_0
 5
1A7
 10
30.285
 20
2144.508
 30
0
 40
11.064227808573
 50
150.36495319624
 51
179.632326056946
210
0
220
0
230
1.0
 0
LINE
 8
TOOL_0
 5
1A8
 10
20.668
 20
2149.979
 30
0
 11
25.102
 21
2157.658
 31
0
 0
ARC
 8
TOOL_0
 5
1A9
 10
69.135
 20
2132.193
 30
0
 40
50.866209943341
 50
91.62110342507
 51
149.958506845517
210
0
220
0
230
1.0
 0
ARC
 8
TOOL_0
 5
1AA
 10
68.877
 20
2212.722
 30
0
 40
29.706484982239
 50
267.721569789111
 51
304.236244747272
210
0
220
0
230
1.0
 0
LINE
 8
TOOL_0
 5
1AB
 10
85.59
 20
2188.163
 30
0
 11
100.567
 21
2198.415
 31
0
 0
ARC
 8
TOOL_0
 5
1AC
 10
89.722
 20
2214.259
 30
0
 40
19.200165650327
 50
304.391103374777
 51
359.997015844819
210
0
220
0
230
1.0
 0
LINE
 8
TOOL_0
 5
1AD
 10
108.922
 20
2214.258
 30
0
 11
108.922
 21
2310.363
 31
0
 0
LINE
 8
TOOL_0
 5
1AE
 10
108.922
 20
2310.363
 30
0
 11
118.238
 21
2345.131
 31
0
 0
ARC
 8
TOOL_0
 5
1AF
 10
120.943
 20
2344.406
 30
0
 40
2.800473174305
 50
75.015861915195
 51
164.996098263105
210
0
220
0
230
1.0
 0
LINE
 8
TOOL_0
 5
1B0
 10
121.667
 20
2347.111
 30
0
 11
149.34
 21
2339.696
 31
0
 0
ARC
 8
TOOL_0
 5
1B1
 10
148.564
 20
2336.798
 30
0
 40
3.000096665109
 50
345.004591342326
 51
75.009532784441
210
0
220
0
230
1.0
 0
LINE
 8
TOOL_0
 5
1B2
 10
151.461
 20
2336.022
 30
0
 11
150.969
 21
2334.187
 31
0
 0
ARC
 8
TOOL_0
 5
1B3
 10
153.867
 20
2333.411
 30
0
 40
3.000096665109
 50
165.009532784443
 51
254.991086323342
210
0
220
0
230
1.0
 0
LINE
 8
TOOL_0
 5
1B4
 10
153.09
 20
2330.513
 30
0
 11
204.864
 21
2316.64
 31
0
 0
ARC
 8
TOOL_0
 5
1B5
 10
205.64
 20
2319.538
 30
0
 40
3.000096665109
 50
255.009532784441
 51
344.991086323341
210
0
220
0
230
1.0
 0
LINE
 8
TOOL_0
 5
1B6
 10
208.538
 20
2318.761
 30
0
 11
209.03
 21
2320.596
 31
0
 0
ARC
 8
TOOL_0
 5
1B7
 10
211.928
 20
2319.82
 30
0
 40
3.000096665109
 50
75.004591342323
 51
165.009532784443
210
0
220
0
230
1.0
 0
LINE
 8
TOOL_0
 5
1B8
 10
212.704
 20
2322.717
 30
0
 11
244.098
 21
2314.305
 31
0
 0
ARC
 8
TOOL_0
 5
1B9
 10
243.322
 20
2311.407
 30
0
 40
3.000096665109
 50
0
 51
75.009532784441
210
0
220
0
230
1.0
 0
LINE
 8
TOOL_0
 5
1BA
 10
246.322
 20
2311.407
 30
0
 11
246.322
 21
2230.757
 31
0
 0
ARC
 8
TOOL_0
 5
1BB
 10
265.722
 20
2230.757
 30
0
 40
19.4
 50
180.0
 51
270.0
210
0
220
0
230
1.0
 0
ARC
 8
TOOL_0
 5
1BC
 10
265.695
 20
2200.725
 30
0
 40
10.632034283241
 50
9.83972311836
 51
89.854497486708
210
0
220
0
230
1.0
 0
ARC
 8
TOOL_0
 5
1BD
 10
335.663
 20
2208.518
 30
0
 40
59.791392691591
 50
185.736147090083
 51
222.017911442877
210
0
220
0
230
1.0
 0
ARC
 8
TOOL_0
 5
1BE
 10
646.916
 20
2508.692
 30
0
 40
492.176099269357
 50
223.72579954476
 51
225.76737739596
210
0
220
0
230
1.0
 0
ARC
 8
TOOL_0
 5
1BF
 10
317.307
 20
2169.757
 30
0
 40
19.400181854818
 50
224.991646627918
 51
270.0
210
0
220
0
230
1.0
 0
LINE
 8
TOOL_0
 5
1C0
 10
317.307
 20
2150.357
 30
0
 11
470.623
 21
2150.357
 31
0
 0
ARC
 8
TOOL_0
 5
1C1
 10
470.623
 20
2165.357
 30
0
 40
15.0
 50
270.0
 51
0
210
0
220
0
230
1.0
 0
LINE
 8
TOOL_0
 5
1C2
 10
485.623
 20
2165.357
 30
0
 11
485.623
 21
2172.357
 31
0
 0
ARC
 8
TOOL_0
 5
1C3
 10
488.623
 20
2172.357
 30
0
 40
3.0
 50
90.0
 51
180.0
210
0
220
0
230
1.0
 0
LINE
 8
TOOL_0
 5
1C4
 10
488.623
 20
2175.357
 30
0
 11
554.023
 21
2175.357
 31
0
 0
ARC
 8
TOOL_0
 5
1C5
 10
554.023
 20
2172.357
 30
0
 40
3.0
 50
0
 51
90.0
210
0
220
0
230
1.0
 0
LINE
 8
TOOL_0
 5
1C6
 10
557.023
 20
2172.357
 30
0
 11
561.161
 21
2168.707
 31
0
 0
LINE
 8
TOOL_0
 5
1C7
 10
561.161
 20
2168.707
 30
0
 11
986.952
 21
2366.152
 31
0
 0
LINE
 8
TOOL_0
 5
1C8
 10
986.952
 20
2366.152
 30
0
 11
986.952
 21
2365.152
 31
0
 0
LINE
 8
TOOL_0
 5
1C9
 10
986.952
 20
2365.152
 30
0
 11
986.952
 21
2366.152
 31
0
 0
LINE
 8
TOOL_0
 5
1CA
 10
986.952
 20
2366.152
 30
0
 11
986.952
 21
2365.152
 31
0
 0
LINE
 8
TOOL_0
 5
1CB
 10
986.952
 20
2365.152
 30
0
 11
986.952
 21
918.276
 31
0
 0
LINE
 8
TOOL_0
 5
1CC
 10
986.952
 20
918.276
 30
0
 11
492.276
 21
918.276
 31
0
 0
LINE
 8
TOOL_0
 5
1CD
 10
492.276
 20
918.276
 30
0
 11
491.276
 21
918.276
 31
0
 0
ENDSEC
 0
EOF

