0
SECTION
2
TABLES
0
TABLE
2
LAYER
70
0
0
LAYER
2
LAYER_NAME
70
0
62
1
6
CONTINUOUS
0
ENDTAB
0
ENDSEC
 0
SECTION
 2
ENTITIES
 0
LINE
 8
TOOL_0
 5
1
 10
1458.1
 20
325.101
 30
0
 11
1503.1
 21
325.101
 31
0
 0
LINE
 8
TOOL_0
 5
2
 10
1503.1
 20
325.101
 30
0
 11
1503.1
 21
437.601
 31
0
 0
ARC
 8
TOOL_0
 5
3
 10
1468.1
 20
437.601
 30
0
 40
35.0
 50
0
 51
90.0
210
0
220
0
230
1.0
 0
LINE
 8
TOOL_0
 5
4
 10
1468.1
 20
472.601
 30
0
 11
1313.1
 21
472.601
 31
0
 0
ARC
 8
TOOL_0
 5
5
 10
1313.1
 20
437.601
 30
0
 40
35.0
 50
90.0
 51
180.0
210
0
220
0
230
1.0
 0
LINE
 8
TOOL_0
 5
6
 10
1278.1
 20
437.601
 30
0
 11
1278.1
 21
212.601
 31
0
 0
ARC
 8
TOOL_0
 5
7
 10
1313.1
 20
212.601
 30
0
 40
35.0
 50
180.0
 51
270.0
210
0
220
0
230
1.0
 0
LINE
 8
TOOL_0
 5
8
 10
1313.1
 20
177.601
 30
0
 11
1468.1
 21
177.601
 31
0
 0
ARC
 8
TOOL_0
 5
9
 10
1468.1
 20
212.601
 30
0
 40
35.0
 50
270.0
 51
0
210
0
220
0
230
1.0
 0
LINE
 8
TOOL_0
 5
A
 10
1503.1
 20
212.601
 30
0
 11
1503.1
 21
325.101
 31
0
 0
LINE
 8
TOOL_0
 5
B
 10
1503.1
 20
325.101
 30
0
 11
2073.1
 21
305.101
 31
0
 0
LINE
 8
TOOL_0
 5
C
 10
2073.1
 20
305.101
 30
0
 11
2118.1
 21
305.101
 31
0
 0
LINE
 8
TOOL_0
 5
D
 10
2118.1
 20
305.101
 30
0
 11
2118.1
 21
437.601
 31
0
 0
ARC
 8
TOOL_0
 5
E
 10
2083.1
 20
437.601
 30
0
 40
35.0
 50
0
 51
90.0
210
0
220
0
230
1.0
 0
LINE
 8
TOOL_0
 5
F
 10
2083.1
 20
472.601
 30
0
 11
1928.1
 21
472.601
 31
0
 0
ARC
 8
TOOL_0
 5
10
 10
1928.1
 20
437.601
 30
0
 40
35.0
 50
90.0
 51
180.0
210
0
220
0
230
1.0
 0
LINE
 8
TOOL_0
 5
11
 10
1893.1
 20
437.601
 30
0
 11
1893.1
 21
172.601
 31
0
 0
ARC
 8
TOOL_0
 5
12
 10
1928.1
 20
172.601
 30
0
 40
35.0
 50
180.0
 51
270.0
210
0
220
0
230
1.0
 0
LINE
 8
TOOL_0
 5
13
 10
1928.1
 20
137.601
 30
0
 11
2083.1
 21
137.601
 31
0
 0
ARC
 8
TOOL_0
 5
14
 10
2083.1
 20
172.601
 30
0
 40
35.0
 50
270.0
 51
0
210
0
220
0
230
1.0
 0
LINE
 8
TOOL_0
 5
15
 10
2118.1
 20
172.601
 30
0
 11
2118.1
 21
305.101
 31
0
 0
LINE
 8
TOOL_0
 5
16
 10
2118.1
 20
305.101
 30
0
 11
2302.267
 21
153.828
 31
0
 0
LINE
 8
TOOL_0
 5
17
 10
2302.267
 20
153.828
 30
0
 11
2309.1
 21
93.601
 31
0
 0
LINE
 8
TOOL_0
 5
18
 10
2309.1
 20
93.601
 30
0
 11
2309.1
 21
22.187
 31
0
 0
LINE
 8
TOOL_0
 5
19
 10
2309.1
 20
22.187
 30
0
 11
2298.514
 21
11.601
 31
0
 0
LINE
 8
TOOL_0
 5
1A
 10
2298.514
 20
11.601
 30
0
 11
2176.762
 21
11.601
 31
0
 0
ARC
 8
TOOL_0
 5
1B
 10
2176.796
 20
2.54
 30
0
 40
9.061063789644
 50
90.214992535105
 51
153.375569119078
210
0
220
0
230
1.0
 0
LINE
 8
TOOL_0
 5
1C
 10
2168.695
 20
6.601
 30
0
 11
6.6
 21
6.601
 31
0
 0
LINE
 8
TOOL_0
 5
1D
 10
6.6
 20
6.601
 30
0
 11
6.6
 21
436.391
 31
0
 0
ARC
 8
TOOL_0
 5
1E
 10
14.6
 20
436.391
 30
0
 40
8.0
 50
90.0
 51
180.0
210
0
220
0
230
1.0
 0
LINE
 8
TOOL_0
 5
1F
 10
14.6
 20
444.391
 30
0
 11
297.263
 21
444.391
 31
0
 0
ARC
 8
TOOL_0
 5
20
 10
297.083
 20
545.056
 30
0
 40
100.665160929688
 50
270.102450994097
 51
282.266925903661
210
0
220
0
230
1.0
 0
LINE
 8
TOOL_0
 5
21
 10
318.471
 20
446.689
 30
0
 11
1189.032
 21
637.601
 31
0
 0
LINE
 8
TOOL_0
 5
22
 10
1189.032
 20
637.601
 30
0
 11
2119.364
 21
637.601
 31
0
 0
ARC
 8
TOOL_0
 5
23
 10
2119.364
 20
536.601
 30
0
 40
101.0
 50
24.201180888537
 51
90.0
210
0
220
0
230
1.0
 0
LINE
 8
TOOL_0
 5
24
 10
2211.487
 20
578.005
 30
0
 11
2309.1
 21
360.816
 31
0
 0
LINE
 8
TOOL_0
 5
25
 10
2309.1
 20
360.816
 30
0
 11
2309.1
 21
251.602
 31
0
 0
LINE
 8
TOOL_0
 5
26
 10
2309.1
 20
251.602
 30
0
 11
2288.1
 21
251.602
 31
0
 0
ARC
 8
TOOL_0
 5
27
 10
2288.1
 20
172.602
 30
0
 40
79.0
 50
90.0
 51
270.0
210
0
220
0
230
1.0
 0
LINE
 8
TOOL_0
 5
28
 10
2288.1
 20
93.602
 30
0
 11
2309.1
 21
93.602
 31
0
 0
LINE
 8
TOOL_0
 5
29
 10
2309.1
 20
93.602
 30
0
 11
2316.757
 21
93.122
 31
0
 0
LINE
 8
TOOL_0
 5
2A
 10
2316.757
 20
93.122
 30
0
 11
3785.922
 21
325.102
 31
0
 0
LINE
 8
TOOL_0
 5
2B
 10
3785.922
 20
325.102
 30
0
 11
3830.922
 21
325.102
 31
0
 0
LINE
 8
TOOL_0
 5
2C
 10
3830.922
 20
325.102
 30
0
 11
3830.922
 21
437.602
 31
0
 0
ARC
 8
TOOL_0
 5
2D
 10
3795.922
 20
437.602
 30
0
 40
35.0
 50
0
 51
90.0
210
0
220
0
230
1.0
 0
LINE
 8
TOOL_0
 5
2E
 10
3795.922
 20
472.602
 30
0
 11
3640.922
 21
472.602
 31
0
 0
ARC
 8
TOOL_0
 5
2F
 10
3640.922
 20
437.602
 30
0
 40
35.0
 50
90.0
 51
180.0
210
0
220
0
230
1.0
 0
LINE
 8
TOOL_0
 5
30
 10
3605.922
 20
437.602
 30
0
 11
3605.922
 21
212.602
 31
0
 0
ARC
 8
TOOL_0
 5
31
 10
3640.922
 20
212.602
 30
0
 40
35.0
 50
180.0
 51
270.0
210
0
220
0
230
1.0
 0
LINE
 8
TOOL_0
 5
32
 10
3640.922
 20
177.602
 30
0
 11
3795.922
 21
177.602
 31
0
 0
ARC
 8
TOOL_0
 5
33
 10
3795.922
 20
212.602
 30
0
 40
35.0
 50
270.0
 51
0
210
0
220
0
230
1.0
 0
LINE
 8
TOOL_0
 5
34
 10
3830.922
 20
212.602
 30
0
 11
3830.922
 21
325.102
 31
0
 0
LINE
 8
TOOL_0
 5
35
 10
3830.922
 20
325.102
 30
0
 11
4400.922
 21
305.102
 31
0
 0
LINE
 8
TOOL_0
 5
36
 10
4400.922
 20
305.102
 30
0
 11
4445.922
 21
305.102
 31
0
 0
LINE
 8
TOOL_0
 5
37
 10
4445.922
 20
305.102
 30
0
 11
4445.922
 21
437.602
 31
0
 0
ARC
 8
TOOL_0
 5
38
 10
4410.922
 20
437.602
 30
0
 40
35.0
 50
0
 51
90.0
210
0
220
0
230
1.0
 0
LINE
 8
TOOL_0
 5
39
 10
4410.922
 20
472.602
 30
0
 11
4255.922
 21
472.602
 31
0
 0
ARC
 8
TOOL_0
 5
3A
 10
4255.922
 20
437.602
 30
0
 40
35.0
 50
90.0
 51
180.0
210
0
220
0
230
1.0
 0
LINE
 8
TOOL_0
 5
3B
 10
4220.922
 20
437.602
 30
0
 11
4220.922
 21
172.602
 31
0
 0
ARC
 8
TOOL_0
 5
3C
 10
4255.922
 20
172.602
 30
0
 40
35.0
 50
180.0
 51
270.0
210
0
220
0
230
1.0
 0
LINE
 8
TOOL_0
 5
3D
 10
4255.922
 20
137.602
 30
0
 11
4410.922
 21
137.602
 31
0
 0
ARC
 8
TOOL_0
 5
3E
 10
4410.922
 20
172.602
 30
0
 40
35.0
 50
270.0
 51
0
210
0
220
0
230
1.0
 0
LINE
 8
TOOL_0
 5
3F
 10
4445.922
 20
172.602
 30
0
 11
4445.922
 21
305.102
 31
0
 0
LINE
 8
TOOL_0
 5
40
 10
4445.922
 20
305.102
 30
0
 11
4632.895
 21
134.646
 31
0
 0
LINE
 8
TOOL_0
 5
41
 10
4632.895
 20
134.646
 30
0
 11
4636.922
 21
93.602
 31
0
 0
LINE
 8
TOOL_0
 5
42
 10
4636.922
 20
93.602
 30
0
 11
4636.922
 21
22.188
 31
0
 0
LINE
 8
TOOL_0
 5
43
 10
4636.922
 20
22.188
 30
0
 11
4626.336
 21
11.602
 31
0
 0
LINE
 8
TOOL_0
 5
44
 10
4626.336
 20
11.602
 30
0
 11
4504.584
 21
11.602
 31
0
 0
ARC
 8
TOOL_0
 5
45
 10
4504.618
 20
2.541
 30
0
 40
9.061063789644
 50
90.214992535102
 51
153.375569119076
210
0
220
0
230
1.0
 0
LINE
 8
TOOL_0
 5
46
 10
4496.517
 20
6.602
 30
0
 11
2334.422
 21
6.602
 31
0
 0
LINE
 8
TOOL_0
 5
47
 10
2334.422
 20
6.602
 30
0
 11
2334.422
 21
436.392
 31
0
 0
ARC
 8
TOOL_0
 5
48
 10
2342.422
 20
436.392
 30
0
 40
8.0
 50
90.0
 51
180.0
210
0
220
0
230
1.0
 0
LINE
 8
TOOL_0
 5
49
 10
2342.422
 20
444.392
 30
0
 11
2625.085
 21
444.392
 31
0
 0
ARC
 8
TOOL_0
 5
4A
 10
2624.905
 20
545.057
 30
0
 40
100.665160929688
 50
270.102450994097
 51
282.266925903661
210
0
220
0
230
1.0
 0
LINE
 8
TOOL_0
 5
4B
 10
2646.293
 20
446.69
 30
0
 11
3516.854
 21
637.602
 31
0
 0
LINE
 8
TOOL_0
 5
4C
 10
3516.854
 20
637.602
 30
0
 11
4447.186
 21
637.602
 31
0
 0
ARC
 8
TOOL_0
 5
4D
 10
4447.186
 20
536.602
 30
0
 40
101.0
 50
24.201180888537
 51
90.0
210
0
220
0
230
1.0
 0
LINE
 8
TOOL_0
 5
4E
 10
4539.309
 20
578.006
 30
0
 11
4636.922
 21
360.817
 31
0
 0
LINE
 8
TOOL_0
 5
4F
 10
4636.922
 20
360.817
 30
0
 11
4636.922
 21
251.603
 31
0
 0
LINE
 8
TOOL_0
 5
50
 10
4636.922
 20
251.603
 30
0
 11
4615.922
 21
251.603
 31
0
 0
ARC
 8
TOOL_0
 5
51
 10
4615.922
 20
172.603
 30
0
 40
79.0
 50
90.0
 51
270.0
210
0
220
0
230
1.0
 0
LINE
 8
TOOL_0
 5
52
 10
4615.922
 20
93.603
 30
0
 11
4636.922
 21
93.603
 31
0
 0
LINE
 8
TOOL_0
 5
53
 10
4636.922
 20
93.603
 30
0
 11
4649.81
 21
91.193
 31
0
 0
LINE
 8
TOOL_0
 5
54
 10
4649.81
 20
91.193
 30
0
 11
6113.981
 21
325.103
 31
0
 0
LINE
 8
TOOL_0
 5
55
 10
6113.981
 20
325.103
 30
0
 11
6158.981
 21
325.103
 31
0
 0
LINE
 8
TOOL_0
 5
56
 10
6158.981
 20
325.103
 30
0
 11
6158.981
 21
437.603
 31
0
 0
ARC
 8
TOOL_0
 5
57
 10
6123.981
 20
437.603
 30
0
 40
35.0
 50
0
 51
90.0
210
0
220
0
230
1.0
 0
LINE
 8
TOOL_0
 5
58
 10
6123.981
 20
472.603
 30
0
 11
5968.981
 21
472.603
 31
0
 0
ARC
 8
TOOL_0
 5
59
 10
5968.981
 20
437.603
 30
0
 40
35.0
 50
90.0
 51
180.0
210
0
220
0
230
1.0
 0
LINE
 8
TOOL_0
 5
5A
 10
5933.981
 20
437.603
 30
0
 11
5933.981
 21
212.603
 31
0
 0
ARC
 8
TOOL_0
 5
5B
 10
5968.981
 20
212.603
 30
0
 40
35.0
 50
180.0
 51
270.0
210
0
220
0
230
1.0
 0
LINE
 8
TOOL_0
 5
5C
 10
5968.981
 20
177.603
 30
0
 11
6123.981
 21
177.603
 31
0
 0
ARC
 8
TOOL_0
 5
5D
 10
6123.981
 20
212.603
 30
0
 40
35.0
 50
270.0
 51
0
210
0
220
0
230
1.0
 0
LINE
 8
TOOL_0
 5
5E
 10
6158.981
 20
212.603
 30
0
 11
6158.981
 21
325.103
 31
0
 0
LINE
 8
TOOL_0
 5
5F
 10
6158.981
 20
325.103
 30
0
 11
6728.981
 21
305.103
 31
0
 0
LINE
 8
TOOL_0
 5
60
 10
6728.981
 20
305.103
 30
0
 11
6773.981
 21
305.103
 31
0
 0
LINE
 8
TOOL_0
 5
61
 10
6773.981
 20
305.103
 30
0
 11
6773.981
 21
437.603
 31
0
 0
ARC
 8
TOOL_0
 5
62
 10
6738.981
 20
437.603
 30
0
 40
35.0
 50
0
 51
90.0
210
0
220
0
230
1.0
 0
LINE
 8
TOOL_0
 5
63
 10
6738.981
 20
472.603
 30
0
 11
6583.981
 21
472.603
 31
0
 0
ARC
 8
TOOL_0
 5
64
 10
6583.981
 20
437.603
 30
0
 40
35.0
 50
90.0
 51
180.0
210
0
220
0
230
1.0
 0
LINE
 8
TOOL_0
 5
65
 10
6548.981
 20
437.603
 30
0
 11
6548.981
 21
172.603
 31
0
 0
ARC
 8
TOOL_0
 5
66
 10
6583.981
 20
172.603
 30
0
 40
35.0
 50
180.0
 51
270.0
210
0
220
0
230
1.0
 0
LINE
 8
TOOL_0
 5
67
 10
6583.981
 20
137.603
 30
0
 11
6738.981
 21
137.603
 31
0
 0
ARC
 8
TOOL_0
 5
68
 10
6738.981
 20
172.603
 30
0
 40
35.0
 50
270.0
 51
0
210
0
220
0
230
1.0
 0
LINE
 8
TOOL_0
 5
69
 10
6773.981
 20
172.603
 30
0
 11
6773.981
 21
305.103
 31
0
 0
LINE
 8
TOOL_0
 5
6A
 10
6773.981
 20
305.103
 30
0
 11
6963.842
 21
136.118
 31
0
 0
LINE
 8
TOOL_0
 5
6B
 10
6963.842
 20
136.118
 30
0
 11
6964.981
 21
93.603
 31
0
 0
LINE
 8
TOOL_0
 5
6C
 10
6964.981
 20
93.603
 30
0
 11
6964.981
 21
22.189
 31
0
 0
LINE
 8
TOOL_0
 5
6D
 10
6964.981
 20
22.189
 30
0
 11
6954.395
 21
11.603
 31
0
 0
LINE
 8
TOOL_0
 5
6E
 10
6954.395
 20
11.603
 30
0
 11
6832.643
 21
11.603
 31
0
 0
ARC
 8
TOOL_0
 5
6F
 10
6832.677
 20
2.542
 30
0
 40
9.061063789644
 50
90.214992535102
 51
153.375569119076
210
0
220
0
230
1.0
 0
LINE
 8
TOOL_0
 5
70
 10
6824.576
 20
6.603
 30
0
 11
4662.481
 21
6.603
 31
0
 0
LINE
 8
TOOL_0
 5
71
 10
4662.481
 20
6.603
 30
0
 11
4662.481
 21
436.393
 31
0
 0
ARC
 8
TOOL_0
 5
72
 10
4670.481
 20
436.393
 30
0
 40
8.0
 50
90.0
 51
180.0
210
0
220
0
230
1.0
 0
LINE
 8
TOOL_0
 5
73
 10
4670.481
 20
444.393
 30
0
 11
4953.144
 21
444.393
 31
0
 0
ARC
 8
TOOL_0
 5
74
 10
4952.964
 20
545.058
 30
0
 40
100.665160929688
 50
270.102450994097
 51
282.266925903661
210
0
220
0
230
1.0
 0
LINE
 8
TOOL_0
 5
75
 10
4974.352
 20
446.691
 30
0
 11
5844.913
 21
637.603
 31
0
 0
LINE
 8
TOOL_0
 5
76
 10
5844.913
 20
637.603
 30
0
 11
6775.245
 21
637.603
 31
0
 0
ARC
 8
TOOL_0
 5
77
 10
6775.245
 20
536.603
 30
0
 40
101.0
 50
24.201180888537
 51
90.0
210
0
220
0
230
1.0
 0
LINE
 8
TOOL_0
 5
78
 10
6867.368
 20
578.007
 30
0
 11
6964.981
 21
360.818
 31
0
 0
LINE
 8
TOOL_0
 5
79
 10
6964.981
 20
360.818
 30
0
 11
6964.981
 21
251.604
 31
0
 0
LINE
 8
TOOL_0
 5
7A
 10
6964.981
 20
251.604
 30
0
 11
6943.981
 21
251.604
 31
0
 0
ARC
 8
TOOL_0
 5
7B
 10
6943.981
 20
172.604
 30
0
 40
79.0
 50
90.0
 51
270.0
210
0
220
0
230
1.0
 0
LINE
 8
TOOL_0
 5
7C
 10
6943.981
 20
93.604
 30
0
 11
6964.981
 21
93.604
 31
0
 0
LINE
 8
TOOL_0
 5
7D
 10
6964.981
 20
93.604
 30
0
 11
6989.956
 21
84.873
 31
0
 0
ENDSEC
 0
EOF

