0
SECTION
2
TABLES
0
TABLE
2
LAYER
70
0
0
LAYER
2
LAYER_NAME
70
0
62
1
6
CONTINUOUS
0
ENDTAB
0
ENDSEC
 0
SECTION
 2
ENTITIES
 0
LINE
 8
TOOL_0
 5
1
 10
1034.386
 20
2553.751
 30
0
 11
1064.386
 21
2553.751
 31
0
 0
ARC
 8
TOOL_0
 5
2
 10
1029.386
 20
2553.751
 30
0
 40
35.0
 50
0
 51
180.0
210
0
220
0
230
1.0
 0
ARC
 8
TOOL_0
 5
3
 10
1029.386
 20
2553.751
 30
0
 40
35.0
 50
180.0
 51
0
210
0
220
0
230
1.0
 0
LINE
 8
TOOL_0
 5
4
 10
1064.386
 20
2553.751
 30
0
 11
639.386
 21
2318.751
 31
0
 0
LINE
 8
TOOL_0
 5
5
 10
639.386
 20
2318.751
 30
0
 11
669.386
 21
2318.751
 31
0
 0
LINE
 8
TOOL_0
 5
6
 10
669.386
 20
2318.751
 30
0
 11
669.386
 21
2348.751
 31
0
 0
ARC
 8
TOOL_0
 5
7
 10
659.386
 20
2348.751
 30
0
 40
10.0
 50
0
 51
90.0
210
0
220
0
230
1.0
 0
LINE
 8
TOOL_0
 5
8
 10
659.386
 20
2358.751
 30
0
 11
479.386
 21
2358.751
 31
0
 0
ARC
 8
TOOL_0
 5
9
 10
479.386
 20
2348.751
 30
0
 40
10.0
 50
90.0
 51
180.0
210
0
220
0
230
1.0
 0
LINE
 8
TOOL_0
 5
A
 10
469.386
 20
2348.751
 30
0
 11
469.386
 21
2288.751
 31
0
 0
ARC
 8
TOOL_0
 5
B
 10
479.386
 20
2288.751
 30
0
 40
10.0
 50
180.0
 51
270.0
210
0
220
0
230
1.0
 0
LINE
 8
TOOL_0
 5
C
 10
479.386
 20
2278.751
 30
0
 11
659.386
 21
2278.751
 31
0
 0
ARC
 8
TOOL_0
 5
D
 10
659.386
 20
2288.751
 30
0
 40
10.0
 50
270.0
 51
0
210
0
220
0
230
1.0
 0
LINE
 8
TOOL_0
 5
E
 10
669.386
 20
2288.751
 30
0
 11
669.386
 21
2318.751
 31
0
 0
LINE
 8
TOOL_0
 5
F
 10
669.386
 20
2318.751
 30
0
 11
1029.386
 21
1907.765
 31
0
 0
LINE
 8
TOOL_0
 5
10
 10
1029.386
 20
1907.765
 30
0
 11
1029.386
 21
1877.765
 31
0
 0
ARC
 8
TOOL_0
 5
11
 10
1029.386
 20
1908.93
 30
0
 40
31.165
 50
270.0
 51
293.001846237355
210
0
220
0
230
1.0
 0
LINE
 8
TOOL_0
 5
12
 10
1041.564
 20
1880.243
 30
0
 11
1065.243
 21
1890.359
 31
0
 0
ARC
 8
TOOL_0
 5
13
 10
1057.386
 20
1908.751
 30
0
 40
19.999952824944
 50
293.132009097446
 51
66.867990902554
210
0
220
0
230
1.0
 0
LINE
 8
TOOL_0
 5
14
 10
1065.243
 20
1927.143
 30
0
 11
1041.564
 21
1937.259
 31
0
 0
ARC
 8
TOOL_0
 5
15
 10
1029.385
 20
1908.573
 30
0
 40
31.164316726025
 50
66.9957430162
 51
113.002564662372
210
0
220
0
230
1.0
 0
LINE
 8
TOOL_0
 5
16
 10
1017.207
 20
1937.259
 30
0
 11
993.528
 21
1927.143
 31
0
 0
ARC
 8
TOOL_0
 5
17
 10
1001.385
 20
1908.751
 30
0
 40
19.999952824944
 50
113.132009097445
 51
246.867990902554
210
0
220
0
230
1.0
 0
LINE
 8
TOOL_0
 5
18
 10
993.528
 20
1890.359
 30
0
 11
1017.207
 21
1880.243
 31
0
 0
ARC
 8
TOOL_0
 5
19
 10
1029.386
 20
1908.929
 30
0
 40
31.164316726025
 50
246.995743016199
 51
269.998161475436
210
0
220
0
230
1.0
 0
LINE
 8
TOOL_0
 5
1A
 10
1029.385
 20
1877.765
 30
0
 11
369.385
 21
110.751
 31
0
 0
LINE
 8
TOOL_0
 5
1B
 10
369.385
 20
110.751
 30
0
 11
399.385
 21
110.751
 31
0
 0
LINE
 8
TOOL_0
 5
1C
 10
399.385
 20
110.751
 30
0
 11
399.385
 21
120.751
 31
0
 0
ARC
 8
TOOL_0
 5
1D
 10
369.385
 20
120.751
 30
0
 40
30.0
 50
0
 51
90.0
210
0
220
0
230
1.0
 0
LINE
 8
TOOL_0
 5
1E
 10
369.385
 20
150.751
 30
0
 11
299.385
 21
150.751
 31
0
 0
ARC
 8
TOOL_0
 5
1F
 10
299.385
 20
120.751
 30
0
 40
30.0
 50
90.0
 51
180.0
210
0
220
0
230
1.0
 0
LINE
 8
TOOL_0
 5
20
 10
269.385
 20
120.751
 30
0
 11
269.385
 21
100.751
 31
0
 0
ARC
 8
TOOL_0
 5
21
 10
279.385
 20
100.751
 30
0
 40
10.0
 50
180.0
 51
270.0
210
0
220
0
230
1.0
 0
LINE
 8
TOOL_0
 5
22
 10
279.385
 20
90.751
 30
0
 11
389.385
 21
90.751
 31
0
 0
ARC
 8
TOOL_0
 5
23
 10
389.385
 20
100.751
 30
0
 40
10.0
 50
270.0
 51
0
210
0
220
0
230
1.0
 0
LINE
 8
TOOL_0
 5
24
 10
399.385
 20
100.751
 30
0
 11
399.385
 21
110.751
 31
0
 0
LINE
 8
TOOL_0
 5
25
 10
399.385
 20
110.751
 30
0
 11
449.385
 21
222.386
 31
0
 0
LINE
 8
TOOL_0
 5
26
 10
449.385
 20
222.386
 30
0
 11
479.385
 21
222.386
 31
0
 0
LINE
 8
TOOL_0
 5
27
 10
479.385
 20
222.386
 30
0
 11
479.385
 21
250.751
 31
0
 0
ARC
 8
TOOL_0
 5
28
 10
459.385
 20
250.751
 30
0
 40
20.0
 50
0
 51
90.0
210
0
220
0
230
1.0
 0
LINE
 8
TOOL_0
 5
29
 10
459.385
 20
270.751
 30
0
 11
399.385
 21
270.751
 31
0
 0
ARC
 8
TOOL_0
 5
2A
 10
399.385
 20
250.751
 30
0
 40
20.0
 50
90.0
 51
180.0
210
0
220
0
230
1.0
 0
LINE
 8
TOOL_0
 5
2B
 10
379.385
 20
250.751
 30
0
 11
379.385
 21
190.751
 31
0
 0
ARC
 8
TOOL_0
 5
2C
 10
399.385
 20
190.751
 30
0
 40
20.0
 50
180.0
 51
270.0
210
0
220
0
230
1.0
 0
LINE
 8
TOOL_0
 5
2D
 10
399.385
 20
170.751
 30
0
 11
459.385
 21
170.751
 31
0
 0
ARC
 8
TOOL_0
 5
2E
 10
459.385
 20
190.751
 30
0
 40
20.0
 50
270.0
 51
0
210
0
220
0
230
1.0
 0
LINE
 8
TOOL_0
 5
2F
 10
479.385
 20
190.751
 30
0
 11
479.385
 21
222.386
 31
0
 0
LINE
 8
TOOL_0
 5
30
 10
479.385
 20
222.386
 30
0
 11
1444.385
 21
193.751
 31
0
 0
LINE
 8
TOOL_0
 5
31
 10
1444.385
 20
193.751
 30
0
 11
1474.385
 21
193.751
 31
0
 0
LINE
 8
TOOL_0
 5
32
 10
1474.385
 20
193.751
 30
0
 11
1474.385
 21
223.751
 31
0
 0
ARC
 8
TOOL_0
 5
33
 10
1454.385
 20
223.751
 30
0
 40
20.0
 50
0
 51
90.0
210
0
220
0
230
1.0
 0
LINE
 8
TOOL_0
 5
34
 10
1454.385
 20
243.751
 30
0
 11
1394.385
 21
243.751
 31
0
 0
ARC
 8
TOOL_0
 5
35
 10
1394.385
 20
223.751
 30
0
 40
20.0
 50
90.0
 51
180.0
210
0
220
0
230
1.0
 0
LINE
 8
TOOL_0
 5
36
 10
1374.385
 20
223.751
 30
0
 11
1374.385
 21
163.751
 31
0
 0
ARC
 8
TOOL_0
 5
37
 10
1394.385
 20
163.751
 30
0
 40
20.0
 50
180.0
 51
270.0
210
0
220
0
230
1.0
 0
LINE
 8
TOOL_0
 5
38
 10
1394.385
 20
143.751
 30
0
 11
1454.385
 21
143.751
 31
0
 0
ARC
 8
TOOL_0
 5
39
 10
1454.385
 20
163.751
 30
0
 40
20.0
 50
270.0
 51
0
210
0
220
0
230
1.0
 0
LINE
 8
TOOL_0
 5
3A
 10
1474.385
 20
163.751
 30
0
 11
1474.385
 21
193.751
 31
0
 0
LINE
 8
TOOL_0
 5
3B
 10
1474.385
 20
193.751
 30
0
 11
1460.605
 21
785.939
 31
0
 0
LINE
 8
TOOL_0
 5
3C
 10
1460.605
 20
785.939
 30
0
 11
1491.799
 21
749.751
 31
0
 0
LINE
 8
TOOL_0
 5
3D
 10
1491.799
 20
749.751
 30
0
 11
1500.385
 21
741.165
 31
0
 0
LINE
 8
TOOL_0
 5
3E
 10
1500.385
 20
741.165
 30
0
 11
1500.385
 21
16.337
 31
0
 0
LINE
 8
TOOL_0
 5
3F
 10
1500.385
 20
16.337
 30
0
 11
1491.799
 21
7.751
 31
0
 0
LINE
 8
TOOL_0
 5
40
 10
1491.799
 20
7.751
 30
0
 11
15.385
 21
7.751
 31
0
 0
ARC
 8
TOOL_0
 5
41
 10
15.385
 20
14.751
 30
0
 40
7.0
 50
180.0
 51
270.0
210
0
220
0
230
1.0
 0
LINE
 8
TOOL_0
 5
42
 10
8.385
 20
14.751
 30
0
 11
8.385
 21
2634.751
 31
0
 0
LINE
 8
TOOL_0
 5
43
 10
8.385
 20
2634.751
 30
0
 11
1626.385
 21
2634.751
 31
0
 0
ARC
 8
TOOL_0
 5
44
 10
1626.385
 20
2627.751
 30
0
 40
7.0
 50
0
 51
90.0
210
0
220
0
230
1.0
 0
LINE
 8
TOOL_0
 5
45
 10
1633.385
 20
2627.751
 30
0
 11
1633.385
 21
2153.751
 31
0
 0
LINE
 8
TOOL_0
 5
46
 10
1633.385
 20
2153.751
 30
0
 11
1485.385
 21
2153.751
 31
0
 0
LINE
 8
TOOL_0
 5
47
 10
1485.385
 20
2153.751
 30
0
 11
1485.385
 21
2188.751
 31
0
 0
ARC
 8
TOOL_0
 5
48
 10
1464.385
 20
2188.751
 30
0
 40
21.0
 50
0
 51
147.688053502426
210
0
220
0
230
1.0
 0
LINE
 8
TOOL_0
 5
49
 10
1446.637
 20
2199.976
 30
0
 11
1413.327
 21
2147.307
 31
0
 0
ARC
 8
TOOL_0
 5
4A
 10
1429.385
 20
2137.151
 30
0
 40
19.000097368172
 50
147.688392683242
 51
243.424159673344
210
0
220
0
230
1.0
 0
LINE
 8
TOOL_0
 5
4B
 10
1420.885
 20
2120.159
 30
0
 11
1420.885
 21
1574.752
 31
0
 0
LINE
 8
TOOL_0
 5
4C
 10
1420.885
 20
1574.752
 30
0
 11
1383.784
 21
1574.752
 31
0
 0
ARC
 8
TOOL_0
 5
4D
 10
1378.885
 20
1575.752
 30
0
 40
5.000020099959
 50
348.463087982614
 51
90.0
210
0
220
0
230
1.0
 0
LINE
 8
TOOL_0
 5
4E
 10
1378.885
 20
1580.752
 30
0
 11
1334.385
 21
1580.752
 31
0
 0
ARC
 8
TOOL_0
 5
4F
 10
1334.385
 20
1381.752
 30
0
 40
199.0
 50
90.0
 51
180.0
210
0
220
0
230
1.0
 0
LINE
 8
TOOL_0
 5
50
 10
1135.385
 20
1381.752
 30
0
 11
1135.385
 21
948.752
 31
0
 0
ARC
 8
TOOL_0
 5
51
 10
1334.385
 20
948.752
 30
0
 40
199.0
 50
180.0
 51
270.0
210
0
220
0
230
1.0
 0
LINE
 8
TOOL_0
 5
52
 10
1334.385
 20
749.752
 30
0
 11
1491.799
 21
749.752
 31
0
 0
LINE
 8
TOOL_0
 5
53
 10
1491.799
 20
749.752
 30
0
 11
1509.953
 21
751.437
 31
0
 0
LINE
 8
TOOL_0
 5
54
 10
1509.953
 20
751.437
 30
0
 11
1655.119
 21
797.748
 31
0
 0
LINE
 8
TOOL_0
 5
55
 10
1655.119
 20
797.748
 30
0
 11
1630.37
 21
822.497
 31
0
 0
LINE
 8
TOOL_0
 5
56
 10
1630.37
 20
822.497
 30
0
 11
1628.838
 21
825.078
 31
0
 0
LINE
 8
TOOL_0
 5
57
 10
1628.838
 20
825.078
 30
0
 11
1248.338
 21
825.078
 31
0
 0
ARC
 8
TOOL_0
 5
58
 10
1248.338
 20
855.078
 30
0
 40
30.0
 50
180.0
 51
270.0
210
0
220
0
230
1.0
 0
LINE
 8
TOOL_0
 5
59
 10
1218.338
 20
855.078
 30
0
 11
1218.338
 21
1056.678
 31
0
 0
ARC
 8
TOOL_0
 5
5A
 10
1248.338
 20
1056.678
 30
0
 40
30.0
 50
90.0
 51
180.0
210
0
220
0
230
1.0
 0
LINE
 8
TOOL_0
 5
5B
 10
1248.338
 20
1086.678
 30
0
 11
1517.338
 21
1086.678
 31
0
 0
ARC
 8
TOOL_0
 5
5C
 10
1517.338
 20
1056.678
 30
0
 40
30.0
 50
0
 51
90.0
210
0
220
0
230
1.0
 0
LINE
 8
TOOL_0
 5
5D
 10
1547.338
 20
1056.678
 30
0
 11
1547.338
 21
965.878
 31
0
 0
ARC
 8
TOOL_0
 5
5E
 10
1577.338
 20
965.878
 30
0
 40
30.0
 50
180.0
 51
270.0
210
0
220
0
230
1.0
 0
LINE
 8
TOOL_0
 5
5F
 10
1577.338
 20
935.878
 30
0
 11
1630.338
 21
935.878
 31
0
 0
ARC
 8
TOOL_0
 5
60
 10
1630.338
 20
905.878
 30
0
 40
30.0
 50
0
 51
90.0
210
0
220
0
230
1.0
 0
LINE
 8
TOOL_0
 5
61
 10
1660.338
 20
905.878
 30
0
 11
1660.338
 21
855.078
 31
0
 0
ARC
 8
TOOL_0
 5
62
 10
1630.338
 20
855.078
 30
0
 40
30.0
 50
272.866029488885
 51
0
210
0
220
0
230
1.0
 0
LINE
 8
TOOL_0
 5
63
 10
1631.838
 20
825.116
 30
0
 11
1630.371
 21
822.497
 31
0
 0
LINE
 8
TOOL_0
 5
64
 10
1630.371
 20
822.497
 30
0
 11
1626.835
 21
818.961
 31
0
 0
LINE
 8
TOOL_0
 5
65
 10
1626.835
 20
818.961
 30
0
 11
1668.689
 21
1207.534
 31
0
 0
LINE
 8
TOOL_0
 5
66
 10
1668.689
 20
1207.534
 30
0
 11
1643.94
 21
1182.785
 31
0
 0
LINE
 8
TOOL_0
 5
67
 10
1643.94
 20
1182.785
 30
0
 11
1641.321
 21
1181.318
 31
0
 0
ARC
 8
TOOL_0
 5
68
 10
1611.359
 20
1182.818
 30
0
 40
29.999524062891
 50
269.998090140683
 51
357.133970511115
210
0
220
0
230
1.0
 0
LINE
 8
TOOL_0
 5
69
 10
1611.358
 20
1152.818
 30
0
 11
1229.358
 21
1152.818
 31
0
 0
ARC
 8
TOOL_0
 5
6A
 10
1229.358
 20
1182.818
 30
0
 40
30.0
 50
180.0
 51
270.0
210
0
220
0
230
1.0
 0
LINE
 8
TOOL_0
 5
6B
 10
1199.358
 20
1182.818
 30
0
 11
1199.358
 21
1384.418
 31
0
 0
ARC
 8
TOOL_0
 5
6C
 10
1229.358
 20
1384.418
 30
0
 40
30.0
 50
90.0
 51
180.0
210
0
220
0
230
1.0
 0
LINE
 8
TOOL_0
 5
6D
 10
1229.358
 20
1414.418
 30
0
 11
1498.358
 21
1414.418
 31
0
 0
ARC
 8
TOOL_0
 5
6E
 10
1498.358
 20
1384.418
 30
0
 40
30.0
 50
0
 51
90.0
210
0
220
0
230
1.0
 0
LINE
 8
TOOL_0
 5
6F
 10
1528.358
 20
1384.418
 30
0
 11
1528.358
 21
1293.618
 31
0
 0
ARC
 8
TOOL_0
 5
70
 10
1558.358
 20
1293.618
 30
0
 40
30.0
 50
180.0
 51
270.0
210
0
220
0
230
1.0
 0
LINE
 8
TOOL_0
 5
71
 10
1558.358
 20
1263.618
 30
0
 11
1611.358
 21
1263.618
 31
0
 0
ARC
 8
TOOL_0
 5
72
 10
1611.358
 20
1233.618
 30
0
 40
30.0
 50
0
 51
90.0
210
0
220
0
230
1.0
 0
LINE
 8
TOOL_0
 5
73
 10
1641.358
 20
1233.618
 30
0
 11
1641.358
 21
1184.318
 31
0
 0
LINE
 8
TOOL_0
 5
74
 10
1641.358
 20
1184.318
 30
0
 11
1643.939
 21
1182.786
 31
0
 0
LINE
 8
TOOL_0
 5
75
 10
1643.939
 20
1182.786
 30
0
 11
1647.475
 21
1179.25
 31
0
 0
LINE
 8
TOOL_0
 5
76
 10
1647.475
 20
1179.25
 30
0
 11
1916.895
 21
1351.956
 31
0
 0
LINE
 8
TOOL_0
 5
77
 10
1916.895
 20
1351.956
 30
0
 11
1892.146
 21
1327.208
 31
0
 0
LINE
 8
TOOL_0
 5
78
 10
1892.146
 20
1327.208
 30
0
 11
1889.527
 21
1325.741
 31
0
 0
ARC
 8
TOOL_0
 5
79
 10
1859.565
 20
1327.241
 30
0
 40
29.999524062891
 50
269.998090140683
 51
357.133970511115
210
0
220
0
230
1.0
 0
LINE
 8
TOOL_0
 5
7A
 10
1859.564
 20
1297.241
 30
0
 11
1590.564
 21
1297.241
 31
0
 0
ARC
 8
TOOL_0
 5
7B
 10
1590.564
 20
1327.241
 30
0
 40
30.0
 50
180.0
 51
270.0
210
0
220
0
230
1.0
 0
LINE
 8
TOOL_0
 5
7C
 10
1560.564
 20
1327.241
 30
0
 11
1560.564
 21
1418.041
 31
0
 0
ARC
 8
TOOL_0
 5
7D
 10
1530.564
 20
1418.041
 30
0
 40
30.0
 50
0
 51
90.0
210
0
220
0
230
1.0
 0
LINE
 8
TOOL_0
 5
7E
 10
1530.564
 20
1448.041
 30
0
 11
1477.564
 21
1448.041
 31
0
 0
ARC
 8
TOOL_0
 5
7F
 10
1477.564
 20
1478.041
 30
0
 40
30.0
 50
180.0
 51
270.0
210
0
220
0
230
1.0
 0
LINE
 8
TOOL_0
 5
80
 10
1447.564
 20
1478.041
 30
0
 11
1447.564
 21
1528.841
 31
0
 0
ARC
 8
TOOL_0
 5
81
 10
1477.564
 20
1528.841
 30
0
 40
30.0
 50
90.0
 51
180.0
210
0
220
0
230
1.0
 0
LINE
 8
TOOL_0
 5
82
 10
1477.564
 20
1558.841
 30
0
 11
1859.564
 21
1558.841
 31
0
 0
ARC
 8
TOOL_0
 5
83
 10
1859.564
 20
1528.841
 30
0
 40
30.0
 50
0
 51
90.0
210
0
220
0
230
1.0
 0
LINE
 8
TOOL_0
 5
84
 10
1889.564
 20
1528.841
 30
0
 11
1889.564
 21
1328.741
 31
0
 0
LINE
 8
TOOL_0
 5
85
 10
1889.564
 20
1328.741
 30
0
 11
1892.145
 21
1327.209
 31
0
 0
LINE
 8
TOOL_0
 5
86
 10
1892.145
 20
1327.209
 30
0
 11
1895.681
 21
1323.673
 31
0
 0
LINE
 8
TOOL_0
 5
87
 10
1895.681
 20
1323.673
 30
0
 11
1914.375
 21
1637.467
 31
0
 0
LINE
 8
TOOL_0
 5
88
 10
1914.375
 20
1637.467
 30
0
 11
1889.627
 21
1612.718
 31
0
 0
LINE
 8
TOOL_0
 5
89
 10
1889.627
 20
1612.718
 30
0
 11
1887.008
 21
1611.251
 31
0
 0
ARC
 8
TOOL_0
 5
8A
 10
1857.046
 20
1612.751
 30
0
 40
29.999524062891
 50
269.998090140683
 51
357.133970511115
210
0
220
0
230
1.0
 0
LINE
 8
TOOL_0
 5
8B
 10
1857.045
 20
1582.751
 30
0
 11
1588.045
 21
1582.751
 31
0
 0
ARC
 8
TOOL_0
 5
8C
 10
1588.045
 20
1612.751
 30
0
 40
30.0
 50
180.0
 51
270.0
210
0
220
0
230
1.0
 0
LINE
 8
TOOL_0
 5
8D
 10
1558.045
 20
1612.751
 30
0
 11
1558.045
 21
1703.551
 31
0
 0
ARC
 8
TOOL_0
 5
8E
 10
1528.045
 20
1703.551
 30
0
 40
30.0
 50
0
 51
90.0
210
0
220
0
230
1.0
 0
LINE
 8
TOOL_0
 5
8F
 10
1528.045
 20
1733.551
 30
0
 11
1475.045
 21
1733.551
 31
0
 0
ARC
 8
TOOL_0
 5
90
 10
1475.045
 20
1763.551
 30
0
 40
30.0
 50
180.0
 51
270.0
210
0
220
0
230
1.0
 0
LINE
 8
TOOL_0
 5
91
 10
1445.045
 20
1763.551
 30
0
 11
1445.045
 21
1814.351
 31
0
 0
ARC
 8
TOOL_0
 5
92
 10
1475.045
 20
1814.351
 30
0
 40
30.0
 50
90.0
 51
180.0
210
0
220
0
230
1.0
 0
LINE
 8
TOOL_0
 5
93
 10
1475.045
 20
1844.351
 30
0
 11
1857.045
 21
1844.351
 31
0
 0
ARC
 8
TOOL_0
 5
94
 10
1857.045
 20
1814.351
 30
0
 40
30.0
 50
0
 51
90.0
210
0
220
0
230
1.0
 0
LINE
 8
TOOL_0
 5
95
 10
1887.045
 20
1814.351
 30
0
 11
1887.045
 21
1614.251
 31
0
 0
LINE
 8
TOOL_0
 5
96
 10
1887.045
 20
1614.251
 30
0
 11
1889.626
 21
1612.719
 31
0
 0
LINE
 8
TOOL_0
 5
97
 10
1889.626
 20
1612.719
 30
0
 11
1893.162
 21
1609.183
 31
0
 0
LINE
 8
TOOL_0
 5
98
 10
1893.162
 20
1609.183
 30
0
 11
2840.705
 21
2531.755
 31
0
 0
LINE
 8
TOOL_0
 5
99
 10
2840.705
 20
2531.755
 30
0
 11
2870.705
 21
2531.755
 31
0
 0
LINE
 8
TOOL_0
 5
9A
 10
2870.705
 20
2531.755
 30
0
 11
2870.705
 21
2541.755
 31
0
 0
ARC
 8
TOOL_0
 5
9B
 10
2860.705
 20
2541.755
 30
0
 40
10.0
 50
0
 51
90.0
210
0
220
0
230
1.0
 0
LINE
 8
TOOL_0
 5
9C
 10
2860.705
 20
2551.755
 30
0
 11
2750.705
 21
2551.755
 31
0
 0
ARC
 8
TOOL_0
 5
9D
 10
2750.705
 20
2541.755
 30
0
 40
10.0
 50
90.0
 51
180.0
210
0
220
0
230
1.0
 0
LINE
 8
TOOL_0
 5
9E
 10
2740.705
 20
2541.755
 30
0
 11
2740.705
 21
2521.755
 31
0
 0
ARC
 8
TOOL_0
 5
9F
 10
2770.705
 20
2521.755
 30
0
 40
30.0
 50
180.0
 51
270.0
210
0
220
0
230
1.0
 0
LINE
 8
TOOL_0
 5
A0
 10
2770.705
 20
2491.755
 30
0
 11
2840.705
 21
2491.755
 31
0
 0
ARC
 8
TOOL_0
 5
A1
 10
2840.705
 20
2521.755
 30
0
 40
30.0
 50
270.0
 51
0
210
0
220
0
230
1.0
 0
LINE
 8
TOOL_0
 5
A2
 10
2870.705
 20
2521.755
 30
0
 11
2870.705
 21
2531.755
 31
0
 0
LINE
 8
TOOL_0
 5
A3
 10
2870.705
 20
2531.755
 30
0
 11
2730.705
 21
2422.629
 31
0
 0
LINE
 8
TOOL_0
 5
A4
 10
2730.705
 20
2422.629
 30
0
 11
2760.705
 21
2422.629
 31
0
 0
LINE
 8
TOOL_0
 5
A5
 10
2760.705
 20
2422.629
 30
0
 11
2760.705
 21
2451.755
 31
0
 0
ARC
 8
TOOL_0
 5
A6
 10
2740.705
 20
2451.755
 30
0
 40
20.0
 50
0
 51
90.0
210
0
220
0
230
1.0
 0
LINE
 8
TOOL_0
 5
A7
 10
2740.705
 20
2471.755
 30
0
 11
2680.705
 21
2471.755
 31
0
 0
ARC
 8
TOOL_0
 5
A8
 10
2680.705
 20
2451.755
 30
0
 40
20.0
 50
90.0
 51
180.0
210
0
220
0
230
1.0
 0
LINE
 8
TOOL_0
 5
A9
 10
2660.705
 20
2451.755
 30
0
 11
2660.705
 21
2391.755
 31
0
 0
ARC
 8
TOOL_0
 5
AA
 10
2680.705
 20
2391.755
 30
0
 40
20.0
 50
180.0
 51
270.0
210
0
220
0
230
1.0
 0
LINE
 8
TOOL_0
 5
AB
 10
2680.705
 20
2371.755
 30
0
 11
2740.705
 21
2371.755
 31
0
 0
ARC
 8
TOOL_0
 5
AC
 10
2740.705
 20
2391.755
 30
0
 40
20.0
 50
270.0
 51
0
210
0
220
0
230
1.0
 0
LINE
 8
TOOL_0
 5
AD
 10
2760.705
 20
2391.755
 30
0
 11
2760.705
 21
2422.629
 31
0
 0
LINE
 8
TOOL_0
 5
AE
 10
2760.705
 20
2422.629
 30
0
 11
1735.705
 21
2448.755
 31
0
 0
LINE
 8
TOOL_0
 5
AF
 10
1735.705
 20
2448.755
 30
0
 11
1765.705
 21
2448.755
 31
0
 0
LINE
 8
TOOL_0
 5
B0
 10
1765.705
 20
2448.755
 30
0
 11
1765.705
 21
2478.755
 31
0
 0
ARC
 8
TOOL_0
 5
B1
 10
1745.705
 20
2478.755
 30
0
 40
20.0
 50
0
 51
90.0
210
0
220
0
230
1.0
 0
LINE
 8
TOOL_0
 5
B2
 10
1745.705
 20
2498.755
 30
0
 11
1685.705
 21
2498.755
 31
0
 0
ARC
 8
TOOL_0
 5
B3
 10
1685.705
 20
2478.755
 30
0
 40
20.0
 50
90.0
 51
180.0
210
0
220
0
230
1.0
 0
LINE
 8
TOOL_0
 5
B4
 10
1665.705
 20
2478.755
 30
0
 11
1665.705
 21
2418.755
 31
0
 0
ARC
 8
TOOL_0
 5
B5
 10
1685.705
 20
2418.755
 30
0
 40
20.0
 50
180.0
 51
270.0
210
0
220
0
230
1.0
 0
LINE
 8
TOOL_0
 5
B6
 10
1685.705
 20
2398.755
 30
0
 11
1745.705
 21
2398.755
 31
0
 0
ARC
 8
TOOL_0
 5
B7
 10
1745.705
 20
2418.755
 30
0
 40
20.0
 50
270.0
 51
0
210
0
220
0
230
1.0
 0
LINE
 8
TOOL_0
 5
B8
 10
1765.705
 20
2418.755
 30
0
 11
1765.705
 21
2448.755
 31
0
 0
LINE
 8
TOOL_0
 5
B9
 10
1765.705
 20
2448.755
 30
0
 11
2110.705
 21
732.769
 31
0
 0
LINE
 8
TOOL_0
 5
BA
 10
2110.705
 20
732.769
 30
0
 11
2110.705
 21
702.769
 31
0
 0
ARC
 8
TOOL_0
 5
BB
 10
2110.705
 20
733.934
 30
0
 40
31.165
 50
270.0
 51
293.001846237354
210
0
220
0
230
1.0
 0
LINE
 8
TOOL_0
 5
BC
 10
2122.883
 20
705.247
 30
0
 11
2146.562
 21
715.363
 31
0
 0
ARC
 8
TOOL_0
 5
BD
 10
2138.705
 20
733.755
 30
0
 40
19.999952824944
 50
293.132009097446
 51
66.867990902554
210
0
220
0
230
1.0
 0
LINE
 8
TOOL_0
 5
BE
 10
2146.562
 20
752.147
 30
0
 11
2122.883
 21
762.263
 31
0
 0
ARC
 8
TOOL_0
 5
BF
 10
2110.704
 20
733.577
 30
0
 40
31.164316726025
 50
66.9957430162
 51
113.002564662372
210
0
220
0
230
1.0
 0
LINE
 8
TOOL_0
 5
C0
 10
2098.526
 20
762.263
 30
0
 11
2074.847
 21
752.147
 31
0
 0
ARC
 8
TOOL_0
 5
C1
 10
2082.704
 20
733.755
 30
0
 40
19.999952824944
 50
113.132009097445
 51
246.867990902554
210
0
220
0
230
1.0
 0
LINE
 8
TOOL_0
 5
C2
 10
2074.847
 20
715.363
 30
0
 11
2098.526
 21
705.247
 31
0
 0
ARC
 8
TOOL_0
 5
C3
 10
2110.705
 20
733.933
 30
0
 40
31.164316726025
 50
246.9957430162
 51
269.998161475436
210
0
220
0
230
1.0
 0
LINE
 8
TOOL_0
 5
C4
 10
2110.704
 20
702.769
 30
0
 11
2115.705
 21
88.755
 31
0
 0
LINE
 8
TOOL_0
 5
C5
 10
2115.705
 20
88.755
 30
0
 11
2145.705
 21
88.755
 31
0
 0
ARC
 8
TOOL_0
 5
C6
 10
2110.705
 20
88.755
 30
0
 40
35.0
 50
0
 51
180.0
210
0
220
0
230
1.0
 0
ARC
 8
TOOL_0
 5
C7
 10
2110.705
 20
88.755
 30
0
 40
35.0
 50
180.0
 51
0
210
0
220
0
230
1.0
 0
LINE
 8
TOOL_0
 5
C8
 10
2145.705
 20
88.755
 30
0
 11
2640.705
 21
323.755
 31
0
 0
LINE
 8
TOOL_0
 5
C9
 10
2640.705
 20
323.755
 30
0
 11
2670.705
 21
323.755
 31
0
 0
LINE
 8
TOOL_0
 5
CA
 10
2670.705
 20
323.755
 30
0
 11
2670.705
 21
353.755
 31
0
 0
ARC
 8
TOOL_0
 5
CB
 10
2660.705
 20
353.755
 30
0
 40
10.0
 50
0
 51
90.0
210
0
220
0
230
1.0
 0
LINE
 8
TOOL_0
 5
CC
 10
2660.705
 20
363.755
 30
0
 11
2480.705
 21
363.755
 31
0
 0
ARC
 8
TOOL_0
 5
CD
 10
2480.705
 20
353.755
 30
0
 40
10.0
 50
90.0
 51
180.0
210
0
220
0
230
1.0
 0
LINE
 8
TOOL_0
 5
CE
 10
2470.705
 20
353.755
 30
0
 11
2470.705
 21
293.755
 31
0
 0
ARC
 8
TOOL_0
 5
CF
 10
2480.705
 20
293.755
 30
0
 40
10.0
 50
180.0
 51
270.0
210
0
220
0
230
1.0
 0
LINE
 8
TOOL_0
 5
D0
 10
2480.705
 20
283.755
 30
0
 11
2660.705
 21
283.755
 31
0
 0
ARC
 8
TOOL_0
 5
D1
 10
2660.705
 20
293.755
 30
0
 40
10.0
 50
270.0
 51
0
210
0
220
0
230
1.0
 0
LINE
 8
TOOL_0
 5
D2
 10
2670.705
 20
293.755
 30
0
 11
2670.705
 21
323.755
 31
0
 0
LINE
 8
TOOL_0
 5
D3
 10
2670.705
 20
323.755
 30
0
 11
1671.471
 21
1865.951
 31
0
 0
LINE
 8
TOOL_0
 5
D4
 10
1671.471
 20
1865.951
 30
0
 11
1648.29
 21
1892.755
 31
0
 0
LINE
 8
TOOL_0
 5
D5
 10
1648.29
 20
1892.755
 30
0
 11
1639.704
 21
1901.341
 31
0
 0
LINE
 8
TOOL_0
 5
D6
 10
1639.704
 20
1901.341
 30
0
 11
1639.704
 21
2626.169
 31
0
 0
LINE
 8
TOOL_0
 5
D7
 10
1639.704
 20
2626.169
 30
0
 11
1648.29
 21
2634.755
 31
0
 0
LINE
 8
TOOL_0
 5
D8
 10
1648.29
 20
2634.755
 30
0
 11
3124.704
 21
2634.755
 31
0
 0
ARC
 8
TOOL_0
 5
D9
 10
3124.704
 20
2627.755
 30
0
 40
7.0
 50
0
 51
90.0
210
0
220
0
230
1.0
 0
LINE
 8
TOOL_0
 5
DA
 10
3131.704
 20
2627.755
 30
0
 11
3131.704
 21
7.755
 31
0
 0
LINE
 8
TOOL_0
 5
DB
 10
3131.704
 20
7.755
 30
0
 11
1513.704
 21
7.755
 31
0
 0
ARC
 8
TOOL_0
 5
DC
 10
1513.704
 20
14.755
 30
0
 40
7.0
 50
180.0
 51
270.0
210
0
220
0
230
1.0
 0
LINE
 8
TOOL_0
 5
DD
 10
1506.704
 20
14.755
 30
0
 11
1506.704
 21
488.755
 31
0
 0
LINE
 8
TOOL_0
 5
DE
 10
1506.704
 20
488.755
 30
0
 11
1654.704
 21
488.755
 31
0
 0
LINE
 8
TOOL_0
 5
DF
 10
1654.704
 20
488.755
 30
0
 11
1654.704
 21
453.755
 31
0
 0
ARC
 8
TOOL_0
 5
E0
 10
1675.704
 20
453.755
 30
0
 40
21.0
 50
180.0
 51
327.688053502427
210
0
220
0
230
1.0
 0
LINE
 8
TOOL_0
 5
E1
 10
1693.452
 20
442.53
 30
0
 11
1726.762
 21
495.199
 31
0
 0
ARC
 8
TOOL_0
 5
E2
 10
1710.704
 20
505.355
 30
0
 40
19.000097368172
 50
327.688392683242
 51
63.424159673344
210
0
220
0
230
1.0
 0
LINE
 8
TOOL_0
 5
E3
 10
1719.204
 20
522.347
 30
0
 11
1719.204
 21
1067.754
 31
0
 0
LINE
 8
TOOL_0
 5
E4
 10
1719.204
 20
1067.754
 30
0
 11
1756.305
 21
1067.754
 31
0
 0
ARC
 8
TOOL_0
 5
E5
 10
1761.204
 20
1066.754
 30
0
 40
5.000020099959
 50
168.463087982614
 51
270.0
210
0
220
0
230
1.0
 0
LINE
 8
TOOL_0
 5
E6
 10
1761.204
 20
1061.754
 30
0
 11
1805.704
 21
1061.754
 31
0
 0
ARC
 8
TOOL_0
 5
E7
 10
1805.704
 20
1260.754
 30
0
 40
199.0
 50
270.0
 51
359.99971208151
210
0
220
0
230
1.0
 0
LINE
 8
TOOL_0
 5
E8
 10
2004.704
 20
1260.753
 30
0
 11
2004.704
 21
1693.754
 31
0
 0
ARC
 8
TOOL_0
 5
E9
 10
1805.704
 20
1693.754
 30
0
 40
199.0
 50
0
 51
90.0
210
0
220
0
230
1.0
 0
LINE
 8
TOOL_0
 5
EA
 10
1805.704
 20
1892.754
 30
0
 11
1648.29
 21
1892.754
 31
0
 0
LINE
 8
TOOL_0
 5
EB
 10
1648.29
 20
1892.754
 30
0
 11
1635.231
 21
1892.125
 31
0
 0
LINE
 8
TOOL_0
 5
EC
 10
1635.231
 20
1892.125
 30
0
 11
4163.609
 21
2553.754
 31
0
 0
LINE
 8
TOOL_0
 5
ED
 10
4163.609
 20
2553.754
 30
0
 11
4193.609
 21
2553.754
 31
0
 0
ARC
 8
TOOL_0
 5
EE
 10
4158.609
 20
2553.754
 30
0
 40
35.0
 50
0
 51
180.0
210
0
220
0
230
1.0
 0
ARC
 8
TOOL_0
 5
EF
 10
4158.609
 20
2553.754
 30
0
 40
35.0
 50
180.0
 51
0
210
0
220
0
230
1.0
 0
LINE
 8
TOOL_0
 5
F0
 10
4193.609
 20
2553.754
 30
0
 11
3768.609
 21
2317.535
 31
0
 0
LINE
 8
TOOL_0
 5
F1
 10
3768.609
 20
2317.535
 30
0
 11
3798.609
 21
2317.535
 31
0
 0
LINE
 8
TOOL_0
 5
F2
 10
3798.609
 20
2317.535
 30
0
 11
3798.609
 21
2348.754
 31
0
 0
ARC
 8
TOOL_0
 5
F3
 10
3788.609
 20
2348.754
 30
0
 40
10.0
 50
0
 51
90.0
210
0
220
0
230
1.0
 0
LINE
 8
TOOL_0
 5
F4
 10
3788.609
 20
2358.754
 30
0
 11
3608.609
 21
2358.754
 31
0
 0
ARC
 8
TOOL_0
 5
F5
 10
3608.609
 20
2348.754
 30
0
 40
10.0
 50
90.0
 51
180.0
210
0
220
0
230
1.0
 0
LINE
 8
TOOL_0
 5
F6
 10
3598.609
 20
2348.754
 30
0
 11
3598.609
 21
2288.754
 31
0
 0
ARC
 8
TOOL_0
 5
F7
 10
3608.609
 20
2288.754
 30
0
 40
10.0
 50
180.0
 51
270.0
210
0
220
0
230
1.0
 0
LINE
 8
TOOL_0
 5
F8
 10
3608.609
 20
2278.754
 30
0
 11
3788.609
 21
2278.754
 31
0
 0
ARC
 8
TOOL_0
 5
F9
 10
3788.609
 20
2288.754
 30
0
 40
10.0
 50
270.0
 51
0
210
0
220
0
230
1.0
 0
LINE
 8
TOOL_0
 5
FA
 10
3798.609
 20
2288.754
 30
0
 11
3798.609
 21
2317.535
 31
0
 0
LINE
 8
TOOL_0
 5
FB
 10
3798.609
 20
2317.535
 30
0
 11
4158.609
 21
1907.768
 31
0
 0
LINE
 8
TOOL_0
 5
FC
 10
4158.609
 20
1907.768
 30
0
 11
4158.609
 21
1877.768
 31
0
 0
ARC
 8
TOOL_0
 5
FD
 10
4158.609
 20
1908.933
 30
0
 40
31.165
 50
270.0
 51
293.001846237354
210
0
220
0
230
1.0
 0
LINE
 8
TOOL_0
 5
FE
 10
4170.787
 20
1880.246
 30
0
 11
4194.466
 21
1890.362
 31
0
 0
ARC
 8
TOOL_0
 5
FF
 10
4186.609
 20
1908.754
 30
0
 40
19.999952824944
 50
293.132009097446
 51
66.867990902554
210
0
220
0
230
1.0
 0
LINE
 8
TOOL_0
 5
100
 10
4194.466
 20
1927.146
 30
0
 11
4170.787
 21
1937.262
 31
0
 0
ARC
 8
TOOL_0
 5
101
 10
4158.608
 20
1908.576
 30
0
 40
31.164316726025
 50
66.9957430162
 51
113.002564662372
210
0
220
0
230
1.0
 0
LINE
 8
TOOL_0
 5
102
 10
4146.43
 20
1937.262
 30
0
 11
4122.751
 21
1927.146
 31
0
 0
ARC
 8
TOOL_0
 5
103
 10
4130.608
 20
1908.754
 30
0
 40
19.999952824944
 50
113.132009097445
 51
246.867990902554
210
0
220
0
230
1.0
 0
LINE
 8
TOOL_0
 5
104
 10
4122.751
 20
1890.362
 30
0
 11
4146.43
 21
1880.246
 31
0
 0
ARC
 8
TOOL_0
 5
105
 10
4158.609
 20
1908.932
 30
0
 40
31.164316726025
 50
246.995743016199
 51
269.998161475436
210
0
220
0
230
1.0
 0
LINE
 8
TOOL_0
 5
106
 10
4158.608
 20
1877.768
 30
0
 11
3498.608
 21
110.754
 31
0
 0
LINE
 8
TOOL_0
 5
107
 10
3498.608
 20
110.754
 30
0
 11
3528.608
 21
110.754
 31
0
 0
LINE
 8
TOOL_0
 5
108
 10
3528.608
 20
110.754
 30
0
 11
3528.608
 21
120.754
 31
0
 0
ARC
 8
TOOL_0
 5
109
 10
3498.608
 20
120.754
 30
0
 40
30.0
 50
0
 51
90.0
210
0
220
0
230
1.0
 0
LINE
 8
TOOL_0
 5
10A
 10
3498.608
 20
150.754
 30
0
 11
3428.608
 21
150.754
 31
0
 0
ARC
 8
TOOL_0
 5
10B
 10
3428.608
 20
120.754
 30
0
 40
30.0
 50
90.0
 51
180.0
210
0
220
0
230
1.0
 0
LINE
 8
TOOL_0
 5
10C
 10
3398.608
 20
120.754
 30
0
 11
3398.608
 21
100.754
 31
0
 0
ARC
 8
TOOL_0
 5
10D
 10
3408.608
 20
100.754
 30
0
 40
10.0
 50
180.0
 51
270.0
210
0
220
0
230
1.0
 0
LINE
 8
TOOL_0
 5
10E
 10
3408.608
 20
90.754
 30
0
 11
3518.608
 21
90.754
 31
0
 0
ARC
 8
TOOL_0
 5
10F
 10
3518.608
 20
100.754
 30
0
 40
10.0
 50
270.0
 51
0
210
0
220
0
230
1.0
 0
LINE
 8
TOOL_0
 5
110
 10
3528.608
 20
100.754
 30
0
 11
3528.608
 21
110.754
 31
0
 0
LINE
 8
TOOL_0
 5
111
 10
3528.608
 20
110.754
 30
0
 11
3578.608
 21
220.754
 31
0
 0
LINE
 8
TOOL_0
 5
112
 10
3578.608
 20
220.754
 30
0
 11
3608.608
 21
220.754
 31
0
 0
LINE
 8
TOOL_0
 5
113
 10
3608.608
 20
220.754
 30
0
 11
3608.608
 21
250.754
 31
0
 0
ARC
 8
TOOL_0
 5
114
 10
3588.608
 20
250.754
 30
0
 40
20.0
 50
0
 51
90.0
210
0
220
0
230
1.0
 0
LINE
 8
TOOL_0
 5
115
 10
3588.608
 20
270.754
 30
0
 11
3528.608
 21
270.754
 31
0
 0
ARC
 8
TOOL_0
 5
116
 10
3528.608
 20
250.754
 30
0
 40
20.0
 50
90.0
 51
180.0
210
0
220
0
230
1.0
 0
LINE
 8
TOOL_0
 5
117
 10
3508.608
 20
250.754
 30
0
 11
3508.608
 21
190.754
 31
0
 0
ARC
 8
TOOL_0
 5
118
 10
3528.608
 20
190.754
 30
0
 40
20.0
 50
180.0
 51
270.0
210
0
220
0
230
1.0
 0
LINE
 8
TOOL_0
 5
119
 10
3528.608
 20
170.754
 30
0
 11
3588.608
 21
170.754
 31
0
 0
ARC
 8
TOOL_0
 5
11A
 10
3588.608
 20
190.754
 30
0
 40
20.0
 50
270.0
 51
0
210
0
220
0
230
1.0
 0
LINE
 8
TOOL_0
 5
11B
 10
3608.608
 20
190.754
 30
0
 11
3608.608
 21
220.754
 31
0
 0
LINE
 8
TOOL_0
 5
11C
 10
3608.608
 20
220.754
 30
0
 11
4573.608
 21
193.754
 31
0
 0
LINE
 8
TOOL_0
 5
11D
 10
4573.608
 20
193.754
 30
0
 11
4603.608
 21
193.754
 31
0
 0
LINE
 8
TOOL_0
 5
11E
 10
4603.608
 20
193.754
 30
0
 11
4603.608
 21
223.754
 31
0
 0
ARC
 8
TOOL_0
 5
11F
 10
4583.608
 20
223.754
 30
0
 40
20.0
 50
0
 51
90.0
210
0
220
0
230
1.0
 0
LINE
 8
TOOL_0
 5
120
 10
4583.608
 20
243.754
 30
0
 11
4523.608
 21
243.754
 31
0
 0
ARC
 8
TOOL_0
 5
121
 10
4523.608
 20
223.754
 30
0
 40
20.0
 50
90.0
 51
180.0
210
0
220
0
230
1.0
 0
LINE
 8
TOOL_0
 5
122
 10
4503.608
 20
223.754
 30
0
 11
4503.608
 21
163.754
 31
0
 0
ARC
 8
TOOL_0
 5
123
 10
4523.608
 20
163.754
 30
0
 40
20.0
 50
180.0
 51
270.0
210
0
220
0
230
1.0
 0
LINE
 8
TOOL_0
 5
124
 10
4523.608
 20
143.754
 30
0
 11
4583.608
 21
143.754
 31
0
 0
ARC
 8
TOOL_0
 5
125
 10
4583.608
 20
163.754
 30
0
 40
20.0
 50
270.0
 51
0
210
0
220
0
230
1.0
 0
LINE
 8
TOOL_0
 5
126
 10
4603.608
 20
163.754
 30
0
 11
4603.608
 21
193.754
 31
0
 0
LINE
 8
TOOL_0
 5
127
 10
4603.608
 20
193.754
 30
0
 11
4588.259
 21
783.402
 31
0
 0
LINE
 8
TOOL_0
 5
128
 10
4588.259
 20
783.402
 30
0
 11
4621.023
 21
749.754
 31
0
 0
LINE
 8
TOOL_0
 5
129
 10
4621.023
 20
749.754
 30
0
 11
4629.609
 21
741.168
 31
0
 0
LINE
 8
TOOL_0
 5
12A
 10
4629.609
 20
741.168
 30
0
 11
4629.609
 21
16.34
 31
0
 0
LINE
 8
TOOL_0
 5
12B
 10
4629.609
 20
16.34
 30
0
 11
4621.023
 21
7.754
 31
0
 0
LINE
 8
TOOL_0
 5
12C
 10
4621.023
 20
7.754
 30
0
 11
3144.609
 21
7.754
 31
0
 0
ARC
 8
TOOL_0
 5
12D
 10
3144.609
 20
14.754
 30
0
 40
7.0
 50
180.0
 51
270.0
210
0
220
0
230
1.0
 0
LINE
 8
TOOL_0
 5
12E
 10
3137.609
 20
14.754
 30
0
 11
3137.609
 21
2634.754
 31
0
 0
LINE
 8
TOOL_0
 5
12F
 10
3137.609
 20
2634.754
 30
0
 11
4755.609
 21
2634.754
 31
0
 0
ARC
 8
TOOL_0
 5
130
 10
4755.609
 20
2627.754
 30
0
 40
7.0
 50
0
 51
90.0
210
0
220
0
230
1.0
 0
LINE
 8
TOOL_0
 5
131
 10
4762.609
 20
2627.754
 30
0
 11
4762.609
 21
2153.754
 31
0
 0
LINE
 8
TOOL_0
 5
132
 10
4762.609
 20
2153.754
 30
0
 11
4614.609
 21
2153.754
 31
0
 0
LINE
 8
TOOL_0
 5
133
 10
4614.609
 20
2153.754
 30
0
 11
4614.609
 21
2188.754
 31
0
 0
ARC
 8
TOOL_0
 5
134
 10
4593.609
 20
2188.754
 30
0
 40
21.0
 50
0
 51
147.688053502426
210
0
220
0
230
1.0
 0
LINE
 8
TOOL_0
 5
135
 10
4575.861
 20
2199.979
 30
0
 11
4542.551
 21
2147.31
 31
0
 0
ARC
 8
TOOL_0
 5
136
 10
4558.609
 20
2137.154
 30
0
 40
19.000097368172
 50
147.688392683242
 51
243.424159673344
210
0
220
0
230
1.0
 0
LINE
 8
TOOL_0
 5
137
 10
4550.109
 20
2120.162
 30
0
 11
4550.109
 21
1574.755
 31
0
 0
LINE
 8
TOOL_0
 5
138
 10
4550.109
 20
1574.755
 30
0
 11
4513.008
 21
1574.755
 31
0
 0
ARC
 8
TOOL_0
 5
139
 10
4508.109
 20
1575.755
 30
0
 40
5.00002009996
 50
348.463087982615
 51
90.0
210
0
220
0
230
1.0
 0
LINE
 8
TOOL_0
 5
13A
 10
4508.109
 20
1580.755
 30
0
 11
4463.609
 21
1580.755
 31
0
 0
ARC
 8
TOOL_0
 5
13B
 10
4463.609
 20
1381.755
 30
0
 40
199.0
 50
90.0
 51
180.0
210
0
220
0
230
1.0
 0
LINE
 8
TOOL_0
 5
13C
 10
4264.609
 20
1381.755
 30
0
 11
4264.609
 21
948.755
 31
0
 0
ARC
 8
TOOL_0
 5
13D
 10
4463.609
 20
948.755
 30
0
 40
199.0
 50
180.0
 51
270.0
210
0
220
0
230
1.0
 0
LINE
 8
TOOL_0
 5
13E
 10
4463.609
 20
749.755
 30
0
 11
4621.023
 21
749.755
 31
0
 0
LINE
 8
TOOL_0
 5
13F
 10
4621.023
 20
749.755
 30
0
 11
4636.813
 21
749.828
 31
0
 0
LINE
 8
TOOL_0
 5
140
 10
4636.813
 20
749.828
 30
0
 11
4800.793
 21
786.657
 31
0
 0
LINE
 8
TOOL_0
 5
141
 10
4800.793
 20
786.657
 30
0
 11
4776.044
 21
811.406
 31
0
 0
LINE
 8
TOOL_0
 5
142
 10
4776.044
 20
811.406
 30
0
 11
4774.512
 21
813.987
 31
0
 0
LINE
 8
TOOL_0
 5
143
 10
4774.512
 20
813.987
 30
0
 11
4394.012
 21
813.987
 31
0
 0
ARC
 8
TOOL_0
 5
144
 10
4394.012
 20
843.987
 30
0
 40
30.0
 50
180.0
 51
270.0
210
0
220
0
230
1.0
 0
LINE
 8
TOOL_0
 5
145
 10
4364.012
 20
843.987
 30
0
 11
4364.012
 21
1045.587
 31
0
 0
ARC
 8
TOOL_0
 5
146
 10
4394.012
 20
1045.587
 30
0
 40
30.0
 50
90.0
 51
180.0
210
0
220
0
230
1.0
 0
LINE
 8
TOOL_0
 5
147
 10
4394.012
 20
1075.587
 30
0
 11
4663.012
 21
1075.587
 31
0
 0
ARC
 8
TOOL_0
 5
148
 10
4663.012
 20
1045.587
 30
0
 40
30.0
 50
0
 51
90.0
210
0
220
0
230
1.0
 0
LINE
 8
TOOL_0
 5
149
 10
4693.012
 20
1045.587
 30
0
 11
4693.012
 21
954.787
 31
0
 0
ARC
 8
TOOL_0
 5
14A
 10
4723.012
 20
954.787
 30
0
 40
30.0
 50
180.0
 51
270.0
210
0
220
0
230
1.0
 0
LINE
 8
TOOL_0
 5
14B
 10
4723.012
 20
924.787
 30
0
 11
4776.012
 21
924.787
 31
0
 0
ARC
 8
TOOL_0
 5
14C
 10
4776.012
 20
894.787
 30
0
 40
30.0
 50
0
 51
90.0
210
0
220
0
230
1.0
 0
LINE
 8
TOOL_0
 5
14D
 10
4806.012
 20
894.787
 30
0
 11
4806.012
 21
843.987
 31
0
 0
ARC
 8
TOOL_0
 5
14E
 10
4776.012
 20
843.987
 30
0
 40
30.0
 50
272.866029488885
 51
0
210
0
220
0
230
1.0
 0
LINE
 8
TOOL_0
 5
14F
 10
4777.512
 20
814.025
 30
0
 11
4776.045
 21
811.406
 31
0
 0
LINE
 8
TOOL_0
 5
150
 10
4776.045
 20
811.406
 30
0
 11
4772.509
 21
807.87
 31
0
 0
LINE
 8
TOOL_0
 5
151
 10
4772.509
 20
807.87
 30
0
 11
4788.497
 21
1160.141
 31
0
 0
LINE
 8
TOOL_0
 5
152
 10
4788.497
 20
1160.141
 30
0
 11
4763.748
 21
1135.393
 31
0
 0
LINE
 8
TOOL_0
 5
153
 10
4763.748
 20
1135.393
 30
0
 11
4761.129
 21
1133.926
 31
0
 0
ARC
 8
TOOL_0
 5
154
 10
4731.167
 20
1135.426
 30
0
 40
29.999524062892
 50
269.998090140685
 51
357.133970511115
210
0
220
0
230
1.0
 0
LINE
 8
TOOL_0
 5
155
 10
4731.166
 20
1105.426
 30
0
 11
4349.166
 21
1105.426
 31
0
 0
ARC
 8
TOOL_0
 5
156
 10
4349.166
 20
1135.426
 30
0
 40
30.0
 50
180.0
 51
270.0
210
0
220
0
230
1.0
 0
LINE
 8
TOOL_0
 5
157
 10
4319.166
 20
1135.426
 30
0
 11
4319.166
 21
1337.026
 31
0
 0
ARC
 8
TOOL_0
 5
158
 10
4349.166
 20
1337.026
 30
0
 40
30.0
 50
90.0
 51
180.0
210
0
220
0
230
1.0
 0
LINE
 8
TOOL_0
 5
159
 10
4349.166
 20
1367.026
 30
0
 11
4618.166
 21
1367.026
 31
0
 0
ARC
 8
TOOL_0
 5
15A
 10
4618.166
 20
1337.026
 30
0
 40
30.0
 50
0
 51
90.0
210
0
220
0
230
1.0
 0
LINE
 8
TOOL_0
 5
15B
 10
4648.166
 20
1337.026
 30
0
 11
4648.166
 21
1246.226
 31
0
 0
ARC
 8
TOOL_0
 5
15C
 10
4678.166
 20
1246.226
 30
0
 40
30.0
 50
180.0
 51
270.0
210
0
220
0
230
1.0
 0
LINE
 8
TOOL_0
 5
15D
 10
4678.166
 20
1216.226
 30
0
 11
4731.166
 21
1216.226
 31
0
 0
ARC
 8
TOOL_0
 5
15E
 10
4731.166
 20
1186.226
 30
0
 40
30.0
 50
0
 51
90.0
210
0
220
0
230
1.0
 0
LINE
 8
TOOL_0
 5
15F
 10
4761.166
 20
1186.226
 30
0
 11
4761.166
 21
1136.926
 31
0
 0
LINE
 8
TOOL_0
 5
160
 10
4761.166
 20
1136.926
 30
0
 11
4763.747
 21
1135.394
 31
0
 0
LINE
 8
TOOL_0
 5
161
 10
4763.747
 20
1135.394
 30
0
 11
4767.283
 21
1131.858
 31
0
 0
LINE
 8
TOOL_0
 5
162
 10
4767.283
 20
1131.858
 30
0
 11
5053.091
 21
1300.197
 31
0
 0
LINE
 8
TOOL_0
 5
163
 10
5053.091
 20
1300.197
 30
0
 11
5028.343
 21
1275.448
 31
0
 0
LINE
 8
TOOL_0
 5
164
 10
5028.343
 20
1275.448
 30
0
 11
5025.724
 21
1273.981
 31
0
 0
ARC
 8
TOOL_0
 5
165
 10
4995.762
 20
1275.481
 30
0
 40
29.999524062892
 50
269.998090140685
 51
357.133970511115
210
0
220
0
230
1.0
 0
LINE
 8
TOOL_0
 5
166
 10
4995.761
 20
1245.481
 30
0
 11
4726.761
 21
1245.481
 31
0
 0
ARC
 8
TOOL_0
 5
167
 10
4726.761
 20
1275.481
 30
0
 40
30.0
 50
180.0
 51
270.0
210
0
220
0
230
1.0
 0
LINE
 8
TOOL_0
 5
168
 10
4696.761
 20
1275.481
 30
0
 11
4696.761
 21
1366.281
 31
0
 0
ARC
 8
TOOL_0
 5
169
 10
4666.761
 20
1366.281
 30
0
 40
30.0
 50
0
 51
90.0
210
0
220
0
230
1.0
 0
LINE
 8
TOOL_0
 5
16A
 10
4666.761
 20
1396.281
 30
0
 11
4613.761
 21
1396.281
 31
0
 0
ARC
 8
TOOL_0
 5
16B
 10
4613.761
 20
1426.281
 30
0
 40
30.0
 50
180.0
 51
270.0
210
0
220
0
230
1.0
 0
LINE
 8
TOOL_0
 5
16C
 10
4583.761
 20
1426.281
 30
0
 11
4583.761
 21
1477.081
 31
0
 0
ARC
 8
TOOL_0
 5
16D
 10
4613.761
 20
1477.081
 30
0
 40
30.0
 50
90.0
 51
180.0
210
0
220
0
230
1.0
 0
LINE
 8
TOOL_0
 5
16E
 10
4613.761
 20
1507.081
 30
0
 11
4995.761
 21
1507.081
 31
0
 0
ARC
 8
TOOL_0
 5
16F
 10
4995.761
 20
1477.081
 30
0
 40
30.0
 50
0
 51
90.0
210
0
220
0
230
1.0
 0
LINE
 8
TOOL_0
 5
170
 10
5025.761
 20
1477.081
 30
0
 11
5025.761
 21
1276.981
 31
0
 0
LINE
 8
TOOL_0
 5
171
 10
5025.761
 20
1276.981
 30
0
 11
5028.342
 21
1275.449
 31
0
 0
LINE
 8
TOOL_0
 5
172
 10
5028.342
 20
1275.449
 30
0
 11
5031.878
 21
1271.913
 31
0
 0
LINE
 8
TOOL_0
 5
173
 10
5031.878
 20
1271.913
 30
0
 11
5059.379
 21
1615.272
 31
0
 0
LINE
 8
TOOL_0
 5
174
 10
5059.379
 20
1615.272
 30
0
 11
5034.63
 21
1590.524
 31
0
 0
LINE
 8
TOOL_0
 5
175
 10
5034.63
 20
1590.524
 30
0
 11
5032.011
 21
1589.057
 31
0
 0
ARC
 8
TOOL_0
 5
176
 10
5002.049
 20
1590.557
 30
0
 40
29.999524062892
 50
269.998090140685
 51
357.133970511115
210
0
220
0
230
1.0
 0
LINE
 8
TOOL_0
 5
177
 10
5002.048
 20
1560.557
 30
0
 11
4733.048
 21
1560.557
 31
0
 0
ARC
 8
TOOL_0
 5
178
 10
4733.048
 20
1590.557
 30
0
 40
30.0
 50
180.0
 51
270.0
210
0
220
0
230
1.0
 0
LINE
 8
TOOL_0
 5
179
 10
4703.048
 20
1590.557
 30
0
 11
4703.048
 21
1681.357
 31
0
 0
ARC
 8
TOOL_0
 5
17A
 10
4673.048
 20
1681.357
 30
0
 40
30.0
 50
0
 51
90.0
210
0
220
0
230
1.0
 0
LINE
 8
TOOL_0
 5
17B
 10
4673.048
 20
1711.357
 30
0
 11
4620.048
 21
1711.357
 31
0
 0
ARC
 8
TOOL_0
 5
17C
 10
4620.048
 20
1741.357
 30
0
 40
30.0
 50
180.0
 51
270.0
210
0
220
0
230
1.0
 0
LINE
 8
TOOL_0
 5
17D
 10
4590.048
 20
1741.357
 30
0
 11
4590.048
 21
1792.157
 31
0
 0
ARC
 8
TOOL_0
 5
17E
 10
4620.048
 20
1792.157
 30
0
 40
30.0
 50
90.0
 51
180.0
210
0
220
0
230
1.0
 0
LINE
 8
TOOL_0
 5
17F
 10
4620.048
 20
1822.157
 30
0
 11
5002.048
 21
1822.157
 31
0
 0
ARC
 8
TOOL_0
 5
180
 10
5002.048
 20
1792.157
 30
0
 40
30.0
 50
0
 51
90.0
210
0
220
0
230
1.0
 0
LINE
 8
TOOL_0
 5
181
 10
5032.048
 20
1792.157
 30
0
 11
5032.048
 21
1592.057
 31
0
 0
LINE
 8
TOOL_0
 5
182
 10
5032.048
 20
1592.057
 30
0
 11
5034.629
 21
1590.525
 31
0
 0
LINE
 8
TOOL_0
 5
183
 10
5034.629
 20
1590.525
 30
0
 11
5038.165
 21
1586.989
 31
0
 0
LINE
 8
TOOL_0
 5
184
 10
5038.165
 20
1586.989
 30
0
 11
5971.392
 21
2531.758
 31
0
 0
LINE
 8
TOOL_0
 5
185
 10
5971.392
 20
2531.758
 30
0
 11
6001.392
 21
2531.758
 31
0
 0
LINE
 8
TOOL_0
 5
186
 10
6001.392
 20
2531.758
 30
0
 11
6001.392
 21
2541.758
 31
0
 0
ARC
 8
TOOL_0
 5
187
 10
5991.392
 20
2541.758
 30
0
 40
10.0
 50
0
 51
90.0
210
0
220
0
230
1.0
 0
LINE
 8
TOOL_0
 5
188
 10
5991.392
 20
2551.758
 30
0
 11
5881.392
 21
2551.758
 31
0
 0
ARC
 8
TOOL_0
 5
189
 10
5881.392
 20
2541.758
 30
0
 40
10.0
 50
90.0
 51
180.0
210
0
220
0
230
1.0
 0
LINE
 8
TOOL_0
 5
18A
 10
5871.392
 20
2541.758
 30
0
 11
5871.392
 21
2521.758
 31
0
 0
ARC
 8
TOOL_0
 5
18B
 10
5901.392
 20
2521.758
 30
0
 40
30.0
 50
180.0
 51
270.0
210
0
220
0
230
1.0
 0
LINE
 8
TOOL_0
 5
18C
 10
5901.392
 20
2491.758
 30
0
 11
5971.392
 21
2491.758
 31
0
 0
ARC
 8
TOOL_0
 5
18D
 10
5971.392
 20
2521.758
 30
0
 40
30.0
 50
270.0
 51
0
210
0
220
0
230
1.0
 0
LINE
 8
TOOL_0
 5
18E
 10
6001.392
 20
2521.758
 30
0
 11
6001.392
 21
2531.758
 31
0
 0
LINE
 8
TOOL_0
 5
18F
 10
6001.392
 20
2531.758
 30
0
 11
5861.392
 21
2421.758
 31
0
 0
LINE
 8
TOOL_0
 5
190
 10
5861.392
 20
2421.758
 30
0
 11
5891.392
 21
2421.758
 31
0
 0
LINE
 8
TOOL_0
 5
191
 10
5891.392
 20
2421.758
 30
0
 11
5891.392
 21
2451.758
 31
0
 0
ARC
 8
TOOL_0
 5
192
 10
5871.392
 20
2451.758
 30
0
 40
20.0
 50
0
 51
90.0
210
0
220
0
230
1.0
 0
LINE
 8
TOOL_0
 5
193
 10
5871.392
 20
2471.758
 30
0
 11
5811.392
 21
2471.758
 31
0
 0
ARC
 8
TOOL_0
 5
194
 10
5811.392
 20
2451.758
 30
0
 40
20.0
 50
90.0
 51
180.0
210
0
220
0
230
1.0
 0
LINE
 8
TOOL_0
 5
195
 10
5791.392
 20
2451.758
 30
0
 11
5791.392
 21
2391.758
 31
0
 0
ARC
 8
TOOL_0
 5
196
 10
5811.392
 20
2391.758
 30
0
 40
20.0
 50
180.0
 51
270.0
210
0
220
0
230
1.0
 0
LINE
 8
TOOL_0
 5
197
 10
5811.392
 20
2371.758
 30
0
 11
5871.392
 21
2371.758
 31
0
 0
ARC
 8
TOOL_0
 5
198
 10
5871.392
 20
2391.758
 30
0
 40
20.0
 50
270.0
 51
0
210
0
220
0
230
1.0
 0
LINE
 8
TOOL_0
 5
199
 10
5891.392
 20
2391.758
 30
0
 11
5891.392
 21
2421.758
 31
0
 0
LINE
 8
TOOL_0
 5
19A
 10
5891.392
 20
2421.758
 30
0
 11
4866.392
 21
2448.758
 31
0
 0
LINE
 8
TOOL_0
 5
19B
 10
4866.392
 20
2448.758
 30
0
 11
4896.392
 21
2448.758
 31
0
 0
LINE
 8
TOOL_0
 5
19C
 10
4896.392
 20
2448.758
 30
0
 11
4896.392
 21
2478.758
 31
0
 0
ARC
 8
TOOL_0
 5
19D
 10
4876.392
 20
2478.758
 30
0
 40
20.0
 50
0
 51
90.0
210
0
220
0
230
1.0
 0
LINE
 8
TOOL_0
 5
19E
 10
4876.392
 20
2498.758
 30
0
 11
4816.392
 21
2498.758
 31
0
 0
ARC
 8
TOOL_0
 5
19F
 10
4816.392
 20
2478.758
 30
0
 40
20.0
 50
90.0
 51
180.0
210
0
220
0
230
1.0
 0
LINE
 8
TOOL_0
 5
1A0
 10
4796.392
 20
2478.758
 30
0
 11
4796.392
 21
2418.758
 31
0
 0
ARC
 8
TOOL_0
 5
1A1
 10
4816.392
 20
2418.758
 30
0
 40
20.0
 50
180.0
 51
270.0
210
0
220
0
230
1.0
 0
LINE
 8
TOOL_0
 5
1A2
 10
4816.392
 20
2398.758
 30
0
 11
4876.392
 21
2398.758
 31
0
 0
ARC
 8
TOOL_0
 5
1A3
 10
4876.392
 20
2418.758
 30
0
 40
20.0
 50
270.0
 51
0
210
0
220
0
230
1.0
 0
LINE
 8
TOOL_0
 5
1A4
 10
4896.392
 20
2418.758
 30
0
 11
4896.392
 21
2448.758
 31
0
 0
LINE
 8
TOOL_0
 5
1A5
 10
4896.392
 20
2448.758
 30
0
 11
5241.392
 21
732.772
 31
0
 0
LINE
 8
TOOL_0
 5
1A6
 10
5241.392
 20
732.772
 30
0
 11
5241.392
 21
702.772
 31
0
 0
ARC
 8
TOOL_0
 5
1A7
 10
5241.392
 20
733.937
 30
0
 40
31.165
 50
270.0
 51
293.001846237354
210
0
220
0
230
1.0
 0
LINE
 8
TOOL_0
 5
1A8
 10
5253.57
 20
705.25
 30
0
 11
5277.249
 21
715.366
 31
0
 0
ARC
 8
TOOL_0
 5
1A9
 10
5269.392
 20
733.758
 30
0
 40
19.999952824944
 50
293.132009097446
 51
66.867990902554
210
0
220
0
230
1.0
 0
LINE
 8
TOOL_0
 5
1AA
 10
5277.249
 20
752.15
 30
0
 11
5253.57
 21
762.266
 31
0
 0
ARC
 8
TOOL_0
 5
1AB
 10
5241.391
 20
733.58
 30
0
 40
31.164316726025
 50
66.9957430162
 51
113.002564662372
210
0
220
0
230
1.0
 0
LINE
 8
TOOL_0
 5
1AC
 10
5229.213
 20
762.266
 30
0
 11
5205.534
 21
752.15
 31
0
 0
ARC
 8
TOOL_0
 5
1AD
 10
5213.391
 20
733.758
 30
0
 40
19.999952824944
 50
113.132009097445
 51
246.867990902554
210
0
220
0
230
1.0
 0
LINE
 8
TOOL_0
 5
1AE
 10
5205.534
 20
715.366
 30
0
 11
5229.213
 21
705.25
 31
0
 0
ARC
 8
TOOL_0
 5
1AF
 10
5241.392
 20
733.936
 30
0
 40
31.164316726025
 50
246.9957430162
 51
269.998161475436
210
0
220
0
230
1.0
 0
LINE
 8
TOOL_0
 5
1B0
 10
5241.391
 20
702.772
 30
0
 11
5246.391
 21
88.758
 31
0
 0
LINE
 8
TOOL_0
 5
1B1
 10
5246.391
 20
88.758
 30
0
 11
5276.391
 21
88.758
 31
0
 0
ARC
 8
TOOL_0
 5
1B2
 10
5241.391
 20
88.758
 30
0
 40
35.0
 50
0
 51
180.0
210
0
220
0
230
1.0
 0
ARC
 8
TOOL_0
 5
1B3
 10
5241.391
 20
88.758
 30
0
 40
35.0
 50
180.0
 51
0
210
0
220
0
230
1.0
 0
LINE
 8
TOOL_0
 5
1B4
 10
5276.391
 20
88.758
 30
0
 11
5771.391
 21
323.758
 31
0
 0
LINE
 8
TOOL_0
 5
1B5
 10
5771.391
 20
323.758
 30
0
 11
5801.391
 21
323.758
 31
0
 0
LINE
 8
TOOL_0
 5
1B6
 10
5801.391
 20
323.758
 30
0
 11
5801.391
 21
353.758
 31
0
 0
ARC
 8
TOOL_0
 5
1B7
 10
5791.391
 20
353.758
 30
0
 40
10.0
 50
0
 51
90.0
210
0
220
0
230
1.0
 0
LINE
 8
TOOL_0
 5
1B8
 10
5791.391
 20
363.758
 30
0
 11
5611.391
 21
363.758
 31
0
 0
ARC
 8
TOOL_0
 5
1B9
 10
5611.391
 20
353.758
 30
0
 40
10.0
 50
90.0
 51
180.0
210
0
220
0
230
1.0
 0
LINE
 8
TOOL_0
 5
1BA
 10
5601.391
 20
353.758
 30
0
 11
5601.391
 21
293.758
 31
0
 0
ARC
 8
TOOL_0
 5
1BB
 10
5611.391
 20
293.758
 30
0
 40
10.0
 50
180.0
 51
270.0
210
0
220
0
230
1.0
 0
LINE
 8
TOOL_0
 5
1BC
 10
5611.391
 20
283.758
 30
0
 11
5791.391
 21
283.758
 31
0
 0
ARC
 8
TOOL_0
 5
1BD
 10
5791.391
 20
293.758
 30
0
 40
10.0
 50
270.0
 51
0
210
0
220
0
230
1.0
 0
LINE
 8
TOOL_0
 5
1BE
 10
5801.391
 20
293.758
 30
0
 11
5801.391
 21
323.758
 31
0
 0
LINE
 8
TOOL_0
 5
1BF
 10
5801.391
 20
323.758
 30
0
 11
4811.161
 21
1851.109
 31
0
 0
LINE
 8
TOOL_0
 5
1C0
 10
4811.161
 20
1851.109
 30
0
 11
4778.977
 21
1892.758
 31
0
 0
LINE
 8
TOOL_0
 5
1C1
 10
4778.977
 20
1892.758
 30
0
 11
4770.391
 21
1901.344
 31
0
 0
LINE
 8
TOOL_0
 5
1C2
 10
4770.391
 20
1901.344
 30
0
 11
4770.391
 21
2626.172
 31
0
 0
LINE
 8
TOOL_0
 5
1C3
 10
4770.391
 20
2626.172
 30
0
 11
4778.977
 21
2634.758
 31
0
 0
LINE
 8
TOOL_0
 5
1C4
 10
4778.977
 20
2634.758
 30
0
 11
6255.391
 21
2634.758
 31
0
 0
ARC
 8
TOOL_0
 5
1C5
 10
6255.391
 20
2627.758
 30
0
 40
7.0
 50
0
 51
90.0
210
0
220
0
230
1.0
 0
LINE
 8
TOOL_0
 5
1C6
 10
6262.391
 20
2627.758
 30
0
 11
6262.391
 21
7.758
 31
0
 0
LINE
 8
TOOL_0
 5
1C7
 10
6262.391
 20
7.758
 30
0
 11
4644.391
 21
7.758
 31
0
 0
ARC
 8
TOOL_0
 5
1C8
 10
4644.391
 20
14.758
 30
0
 40
7.0
 50
180.0
 51
270.0
210
0
220
0
230
1.0
 0
LINE
 8
TOOL_0
 5
1C9
 10
4637.391
 20
14.758
 30
0
 11
4637.391
 21
488.758
 31
0
 0
LINE
 8
TOOL_0
 5
1CA
 10
4637.391
 20
488.758
 30
0
 11
4785.391
 21
488.758
 31
0
 0
LINE
 8
TOOL_0
 5
1CB
 10
4785.391
 20
488.758
 30
0
 11
4785.391
 21
453.758
 31
0
 0
ARC
 8
TOOL_0
 5
1CC
 10
4806.391
 20
453.758
 30
0
 40
21.0
 50
180.0
 51
327.688053502426
210
0
220
0
230
1.0
 0
LINE
 8
TOOL_0
 5
1CD
 10
4824.139
 20
442.533
 30
0
 11
4857.449
 21
495.202
 31
0
 0
ARC
 8
TOOL_0
 5
1CE
 10
4841.391
 20
505.358
 30
0
 40
19.000097368172
 50
327.688392683242
 51
63.424159673344
210
0
220
0
230
1.0
 0
LINE
 8
TOOL_0
 5
1CF
 10
4849.891
 20
522.35
 30
0
 11
4849.891
 21
1067.757
 31
0
 0
LINE
 8
TOOL_0
 5
1D0
 10
4849.891
 20
1067.757
 30
0
 11
4886.992
 21
1067.757
 31
0
 0
ARC
 8
TOOL_0
 5
1D1
 10
4891.891
 20
1066.757
 30
0
 40
5.00002009996
 50
168.463087982615
 51
270.0
210
0
220
0
230
1.0
 0
LINE
 8
TOOL_0
 5
1D2
 10
4891.891
 20
1061.757
 30
0
 11
4936.391
 21
1061.757
 31
0
 0
ARC
 8
TOOL_0
 5
1D3
 10
4936.391
 20
1260.757
 30
0
 40
199.0
 50
270.0
 51
359.99971208151
210
0
220
0
230
1.0
 0
LINE
 8
TOOL_0
 5
1D4
 10
5135.391
 20
1260.756
 30
0
 11
5135.391
 21
1693.757
 31
0
 0
ARC
 8
TOOL_0
 5
1D5
 10
4936.391
 20
1693.757
 30
0
 40
199.0
 50
0
 51
90.0
210
0
220
0
230
1.0
 0
LINE
 8
TOOL_0
 5
1D6
 10
4936.391
 20
1892.757
 30
0
 11
4778.977
 21
1892.757
 31
0
 0
LINE
 8
TOOL_0
 5
1D7
 10
4778.977
 20
1892.757
 30
0
 11
4764.981
 21
1892.621
 31
0
 0
LINE
 8
TOOL_0
 5
1D8
 10
4764.981
 20
1892.621
 30
0
 11
7296.237
 21
2553.757
 31
0
 0
LINE
 8
TOOL_0
 5
1D9
 10
7296.237
 20
2553.757
 30
0
 11
7326.237
 21
2553.757
 31
0
 0
ARC
 8
TOOL_0
 5
1DA
 10
7291.237
 20
2553.757
 30
0
 40
35.0
 50
0
 51
180.0
210
0
220
0
230
1.0
 0
ARC
 8
TOOL_0
 5
1DB
 10
7291.237
 20
2553.757
 30
0
 40
35.0
 50
180.0
 51
0
210
0
220
0
230
1.0
 0
LINE
 8
TOOL_0
 5
1DC
 10
7326.237
 20
2553.757
 30
0
 11
6901.237
 21
2318.757
 31
0
 0
LINE
 8
TOOL_0
 5
1DD
 10
6901.237
 20
2318.757
 30
0
 11
6931.237
 21
2318.757
 31
0
 0
LINE
 8
TOOL_0
 5
1DE
 10
6931.237
 20
2318.757
 30
0
 11
6931.237
 21
2348.757
 31
0
 0
ARC
 8
TOOL_0
 5
1DF
 10
6921.237
 20
2348.757
 30
0
 40
10.0
 50
0
 51
90.0
210
0
220
0
230
1.0
 0
LINE
 8
TOOL_0
 5
1E0
 10
6921.237
 20
2358.757
 30
0
 11
6741.237
 21
2358.757
 31
0
 0
ARC
 8
TOOL_0
 5
1E1
 10
6741.237
 20
2348.757
 30
0
 40
10.0
 50
90.0
 51
180.0
210
0
220
0
230
1.0
 0
LINE
 8
TOOL_0
 5
1E2
 10
6731.237
 20
2348.757
 30
0
 11
6731.237
 21
2288.757
 31
0
 0
ARC
 8
TOOL_0
 5
1E3
 10
6741.237
 20
2288.757
 30
0
 40
10.0
 50
180.0
 51
270.0
210
0
220
0
230
1.0
 0
LINE
 8
TOOL_0
 5
1E4
 10
6741.237
 20
2278.757
 30
0
 11
6921.237
 21
2278.757
 31
0
 0
ARC
 8
TOOL_0
 5
1E5
 10
6921.237
 20
2288.757
 30
0
 40
10.0
 50
270.0
 51
0
210
0
220
0
230
1.0
 0
LINE
 8
TOOL_0
 5
1E6
 10
6931.237
 20
2288.757
 30
0
 11
6931.237
 21
2318.757
 31
0
 0
LINE
 8
TOOL_0
 5
1E7
 10
6931.237
 20
2318.757
 30
0
 11
7291.237
 21
1907.771
 31
0
 0
LINE
 8
TOOL_0
 5
1E8
 10
7291.237
 20
1907.771
 30
0
 11
7291.237
 21
1877.771
 31
0
 0
ARC
 8
TOOL_0
 5
1E9
 10
7291.237
 20
1908.936
 30
0
 40
31.165
 50
270.0
 51
293.001846237354
210
0
220
0
230
1.0
 0
LINE
 8
TOOL_0
 5
1EA
 10
7303.415
 20
1880.249
 30
0
 11
7327.094
 21
1890.365
 31
0
 0
ARC
 8
TOOL_0
 5
1EB
 10
7319.237
 20
1908.757
 30
0
 40
19.999952824944
 50
293.132009097446
 51
66.867990902554
210
0
220
0
230
1.0
 0
LINE
 8
TOOL_0
 5
1EC
 10
7327.094
 20
1927.149
 30
0
 11
7303.415
 21
1937.265
 31
0
 0
ARC
 8
TOOL_0
 5
1ED
 10
7291.236
 20
1908.579
 30
0
 40
31.164316726025
 50
66.9957430162
 51
113.002564662372
210
0
220
0
230
1.0
 0
LINE
 8
TOOL_0
 5
1EE
 10
7279.058
 20
1937.265
 30
0
 11
7255.379
 21
1927.149
 31
0
 0
ARC
 8
TOOL_0
 5
1EF
 10
7263.236
 20
1908.757
 30
0
 40
19.999952824944
 50
113.132009097445
 51
246.867990902554
210
0
220
0
230
1.0
 0
LINE
 8
TOOL_0
 5
1F0
 10
7255.379
 20
1890.365
 30
0
 11
7279.058
 21
1880.249
 31
0
 0
ARC
 8
TOOL_0
 5
1F1
 10
7291.237
 20
1908.935
 30
0
 40
31.164316726025
 50
246.995743016199
 51
269.998161475436
210
0
220
0
230
1.0
 0
LINE
 8
TOOL_0
 5
1F2
 10
7291.236
 20
1877.771
 30
0
 11
6631.236
 21
110.757
 31
0
 0
LINE
 8
TOOL_0
 5
1F3
 10
6631.236
 20
110.757
 30
0
 11
6661.236
 21
110.757
 31
0
 0
LINE
 8
TOOL_0
 5
1F4
 10
6661.236
 20
110.757
 30
0
 11
6661.236
 21
120.757
 31
0
 0
ARC
 8
TOOL_0
 5
1F5
 10
6631.236
 20
120.757
 30
0
 40
30.0
 50
0
 51
90.0
210
0
220
0
230
1.0
 0
LINE
 8
TOOL_0
 5
1F6
 10
6631.236
 20
150.757
 30
0
 11
6561.236
 21
150.757
 31
0
 0
ARC
 8
TOOL_0
 5
1F7
 10
6561.236
 20
120.757
 30
0
 40
30.0
 50
90.0
 51
180.0
210
0
220
0
230
1.0
 0
LINE
 8
TOOL_0
 5
1F8
 10
6531.236
 20
120.757
 30
0
 11
6531.236
 21
100.757
 31
0
 0
ARC
 8
TOOL_0
 5
1F9
 10
6541.236
 20
100.757
 30
0
 40
10.0
 50
180.0
 51
270.0
210
0
220
0
230
1.0
 0
LINE
 8
TOOL_0
 5
1FA
 10
6541.236
 20
90.757
 30
0
 11
6651.236
 21
90.757
 31
0
 0
ARC
 8
TOOL_0
 5
1FB
 10
6651.236
 20
100.757
 30
0
 40
10.0
 50
270.0
 51
0
210
0
220
0
230
1.0
 0
LINE
 8
TOOL_0
 5
1FC
 10
6661.236
 20
100.757
 30
0
 11
6661.236
 21
110.757
 31
0
 0
LINE
 8
TOOL_0
 5
1FD
 10
6661.236
 20
110.757
 30
0
 11
6711.236
 21
220.757
 31
0
 0
LINE
 8
TOOL_0
 5
1FE
 10
6711.236
 20
220.757
 30
0
 11
6741.236
 21
220.757
 31
0
 0
LINE
 8
TOOL_0
 5
1FF
 10
6741.236
 20
220.757
 30
0
 11
6741.236
 21
250.757
 31
0
 0
ARC
 8
TOOL_0
 5
200
 10
6721.236
 20
250.757
 30
0
 40
20.0
 50
0
 51
90.0
210
0
220
0
230
1.0
 0
LINE
 8
TOOL_0
 5
201
 10
6721.236
 20
270.757
 30
0
 11
6661.236
 21
270.757
 31
0
 0
ARC
 8
TOOL_0
 5
202
 10
6661.236
 20
250.757
 30
0
 40
20.0
 50
90.0
 51
180.0
210
0
220
0
230
1.0
 0
LINE
 8
TOOL_0
 5
203
 10
6641.236
 20
250.757
 30
0
 11
6641.236
 21
190.757
 31
0
 0
ARC
 8
TOOL_0
 5
204
 10
6661.236
 20
190.757
 30
0
 40
20.0
 50
180.0
 51
270.0
210
0
220
0
230
1.0
 0
LINE
 8
TOOL_0
 5
205
 10
6661.236
 20
170.757
 30
0
 11
6721.236
 21
170.757
 31
0
 0
ARC
 8
TOOL_0
 5
206
 10
6721.236
 20
190.757
 30
0
 40
20.0
 50
270.0
 51
0
210
0
220
0
230
1.0
 0
LINE
 8
TOOL_0
 5
207
 10
6741.236
 20
190.757
 30
0
 11
6741.236
 21
220.757
 31
0
 0
LINE
 8
TOOL_0
 5
208
 10
6741.236
 20
220.757
 30
0
 11
7706.236
 21
193.757
 31
0
 0
LINE
 8
TOOL_0
 5
209
 10
7706.236
 20
193.757
 30
0
 11
7736.236
 21
193.757
 31
0
 0
LINE
 8
TOOL_0
 5
20A
 10
7736.236
 20
193.757
 30
0
 11
7736.236
 21
223.757
 31
0
 0
ARC
 8
TOOL_0
 5
20B
 10
7716.236
 20
223.757
 30
0
 40
20.0
 50
0
 51
90.0
210
0
220
0
230
1.0
 0
LINE
 8
TOOL_0
 5
20C
 10
7716.236
 20
243.757
 30
0
 11
7656.236
 21
243.757
 31
0
 0
ARC
 8
TOOL_0
 5
20D
 10
7656.236
 20
223.757
 30
0
 40
20.0
 50
90.0
 51
180.0
210
0
220
0
230
1.0
 0
LINE
 8
TOOL_0
 5
20E
 10
7636.236
 20
223.757
 30
0
 11
7636.236
 21
163.757
 31
0
 0
ARC
 8
TOOL_0
 5
20F
 10
7656.236
 20
163.757
 30
0
 40
20.0
 50
180.0
 51
270.0
210
0
220
0
230
1.0
 0
LINE
 8
TOOL_0
 5
210
 10
7656.236
 20
143.757
 30
0
 11
7716.236
 21
143.757
 31
0
 0
ARC
 8
TOOL_0
 5
211
 10
7716.236
 20
163.757
 30
0
 40
20.0
 50
270.0
 51
0
210
0
220
0
230
1.0
 0
LINE
 8
TOOL_0
 5
212
 10
7736.236
 20
163.757
 30
0
 11
7736.236
 21
193.757
 31
0
 0
LINE
 8
TOOL_0
 5
213
 10
7736.236
 20
193.757
 30
0
 11
7712.052
 21
793.512
 31
0
 0
LINE
 8
TOOL_0
 5
214
 10
7712.052
 20
793.512
 30
0
 11
7753.65
 21
749.757
 31
0
 0
LINE
 8
TOOL_0
 5
215
 10
7753.65
 20
749.757
 30
0
 11
7762.236
 21
741.171
 31
0
 0
LINE
 8
TOOL_0
 5
216
 10
7762.236
 20
741.171
 30
0
 11
7762.236
 21
16.343
 31
0
 0
LINE
 8
TOOL_0
 5
217
 10
7762.236
 20
16.343
 30
0
 11
7753.65
 21
7.757
 31
0
 0
LINE
 8
TOOL_0
 5
218
 10
7753.65
 20
7.757
 30
0
 11
6277.236
 21
7.757
 31
0
 0
ARC
 8
TOOL_0
 5
219
 10
6277.236
 20
14.757
 30
0
 40
7.0
 50
180.0
 51
270.0
210
0
220
0
230
1.0
 0
LINE
 8
TOOL_0
 5
21A
 10
6270.236
 20
14.757
 30
0
 11
6270.236
 21
2634.757
 31
0
 0
LINE
 8
TOOL_0
 5
21B
 10
6270.236
 20
2634.757
 30
0
 11
7888.236
 21
2634.757
 31
0
 0
ARC
 8
TOOL_0
 5
21C
 10
7888.236
 20
2627.757
 30
0
 40
7.0
 50
0
 51
90.0
210
0
220
0
230
1.0
 0
LINE
 8
TOOL_0
 5
21D
 10
7895.236
 20
2627.757
 30
0
 11
7895.236
 21
2153.757
 31
0
 0
LINE
 8
TOOL_0
 5
21E
 10
7895.236
 20
2153.757
 30
0
 11
7747.236
 21
2153.757
 31
0
 0
LINE
 8
TOOL_0
 5
21F
 10
7747.236
 20
2153.757
 30
0
 11
7747.236
 21
2188.757
 31
0
 0
ARC
 8
TOOL_0
 5
220
 10
7726.236
 20
2188.757
 30
0
 40
21.0
 50
0
 51
147.688053502426
210
0
220
0
230
1.0
 0
LINE
 8
TOOL_0
 5
221
 10
7708.488
 20
2199.982
 30
0
 11
7675.178
 21
2147.313
 31
0
 0
ARC
 8
TOOL_0
 5
222
 10
7691.236
 20
2137.157
 30
0
 40
19.000097368172
 50
147.688392683242
 51
243.424159673344
210
0
220
0
230
1.0
 0
LINE
 8
TOOL_0
 5
223
 10
7682.736
 20
2120.165
 30
0
 11
7682.736
 21
1574.758
 31
0
 0
LINE
 8
TOOL_0
 5
224
 10
7682.736
 20
1574.758
 30
0
 11
7645.635
 21
1574.758
 31
0
 0
ARC
 8
TOOL_0
 5
225
 10
7640.736
 20
1575.758
 30
0
 40
5.00002009996
 50
348.463087982615
 51
90.0
210
0
220
0
230
1.0
 0
LINE
 8
TOOL_0
 5
226
 10
7640.736
 20
1580.758
 30
0
 11
7596.236
 21
1580.758
 31
0
 0
ARC
 8
TOOL_0
 5
227
 10
7596.236
 20
1381.758
 30
0
 40
199.0
 50
90.0
 51
180.0
210
0
220
0
230
1.0
 0
LINE
 8
TOOL_0
 5
228
 10
7397.236
 20
1381.758
 30
0
 11
7397.236
 21
948.758
 31
0
 0
ARC
 8
TOOL_0
 5
229
 10
7596.236
 20
948.758
 30
0
 40
199.0
 50
180.0
 51
270.0
210
0
220
0
230
1.0
 0
LINE
 8
TOOL_0
 5
22A
 10
7596.236
 20
749.758
 30
0
 11
7753.65
 21
749.758
 31
0
 0
LINE
 8
TOOL_0
 5
22B
 10
7753.65
 20
749.758
 30
0
 11
7764.21
 21
749.777
 31
0
 0
LINE
 8
TOOL_0
 5
22C
 10
7764.21
 20
749.777
 30
0
 11
7924.728
 21
801.449
 31
0
 0
LINE
 8
TOOL_0
 5
22D
 10
7924.728
 20
801.449
 30
0
 11
7899.979
 21
826.197
 31
0
 0
LINE
 8
TOOL_0
 5
22E
 10
7899.979
 20
826.197
 30
0
 11
7898.447
 21
828.778
 31
0
 0
LINE
 8
TOOL_0
 5
22F
 10
7898.447
 20
828.778
 30
0
 11
7517.947
 21
828.778
 31
0
 0
ARC
 8
TOOL_0
 5
230
 10
7517.947
 20
858.778
 30
0
 40
30.0
 50
180.0
 51
270.0
210
0
220
0
230
1.0
 0
LINE
 8
TOOL_0
 5
231
 10
7487.947
 20
858.778
 30
0
 11
7487.947
 21
1060.378
 31
0
 0
ARC
 8
TOOL_0
 5
232
 10
7517.947
 20
1060.378
 30
0
 40
30.0
 50
90.0
 51
180.0
210
0
220
0
230
1.0
 0
LINE
 8
TOOL_0
 5
233
 10
7517.947
 20
1090.378
 30
0
 11
7786.947
 21
1090.378
 31
0
 0
ARC
 8
TOOL_0
 5
234
 10
7786.947
 20
1060.378
 30
0
 40
30.0
 50
0
 51
90.0
210
0
220
0
230
1.0
 0
LINE
 8
TOOL_0
 5
235
 10
7816.947
 20
1060.378
 30
0
 11
7816.947
 21
969.578
 31
0
 0
ARC
 8
TOOL_0
 5
236
 10
7846.947
 20
969.578
 30
0
 40
30.0
 50
180.0
 51
270.0
210
0
220
0
230
1.0
 0
LINE
 8
TOOL_0
 5
237
 10
7846.947
 20
939.578
 30
0
 11
7899.947
 21
939.578
 31
0
 0
ARC
 8
TOOL_0
 5
238
 10
7899.947
 20
909.578
 30
0
 40
30.0
 50
0
 51
90.0
210
0
220
0
230
1.0
 0
LINE
 8
TOOL_0
 5
239
 10
7929.947
 20
909.578
 30
0
 11
7929.947
 21
858.778
 31
0
 0
ARC
 8
TOOL_0
 5
23A
 10
7899.947
 20
858.778
 30
0
 40
30.0
 50
272.866029488885
 51
0
210
0
220
0
230
1.0
 0
LINE
 8
TOOL_0
 5
23B
 10
7901.447
 20
828.816
 30
0
 11
7899.98
 21
826.197
 31
0
 0
LINE
 8
TOOL_0
 5
23C
 10
7899.98
 20
826.197
 30
0
 11
7896.444
 21
822.661
 31
0
 0
LINE
 8
TOOL_0
 5
23D
 10
7896.444
 20
822.661
 30
0
 11
7925.82
 21
1199.066
 31
0
 0
LINE
 8
TOOL_0
 5
23E
 10
7925.82
 20
1199.066
 30
0
 11
7901.071
 21
1174.317
 31
0
 0
LINE
 8
TOOL_0
 5
23F
 10
7901.071
 20
1174.317
 30
0
 11
7898.452
 21
1172.85
 31
0
 0
ARC
 8
TOOL_0
 5
240
 10
7868.49
 20
1174.35
 30
0
 40
29.999524062892
 50
269.998090140685
 51
357.133970511115
210
0
220
0
230
1.0
 0
LINE
 8
TOOL_0
 5
241
 10
7868.489
 20
1144.35
 30
0
 11
7486.489
 21
1144.35
 31
0
 0
ARC
 8
TOOL_0
 5
242
 10
7486.489
 20
1174.35
 30
0
 40
30.0
 50
180.0
 51
270.0
210
0
220
0
230
1.0
 0
LINE
 8
TOOL_0
 5
243
 10
7456.489
 20
1174.35
 30
0
 11
7456.489
 21
1375.95
 31
0
 0
ARC
 8
TOOL_0
 5
244
 10
7486.489
 20
1375.95
 30
0
 40
30.0
 50
90.0
 51
180.0
210
0
220
0
230
1.0
 0
LINE
 8
TOOL_0
 5
245
 10
7486.489
 20
1405.95
 30
0
 11
7755.489
 21
1405.95
 31
0
 0
ARC
 8
TOOL_0
 5
246
 10
7755.489
 20
1375.95
 30
0
 40
30.0
 50
0
 51
90.0
210
0
220
0
230
1.0
 0
LINE
 8
TOOL_0
 5
247
 10
7785.489
 20
1375.95
 30
0
 11
7785.489
 21
1285.15
 31
0
 0
ARC
 8
TOOL_0
 5
248
 10
7815.489
 20
1285.15
 30
0
 40
30.0
 50
180.0
 51
270.0
210
0
220
0
230
1.0
 0
LINE
 8
TOOL_0
 5
249
 10
7815.489
 20
1255.15
 30
0
 11
7868.489
 21
1255.15
 31
0
 0
ARC
 8
TOOL_0
 5
24A
 10
7868.489
 20
1225.15
 30
0
 40
30.0
 50
0
 51
90.0
210
0
220
0
230
1.0
 0
LINE
 8
TOOL_0
 5
24B
 10
7898.489
 20
1225.15
 30
0
 11
7898.489
 21
1175.85
 31
0
 0
LINE
 8
TOOL_0
 5
24C
 10
7898.489
 20
1175.85
 30
0
 11
7901.07
 21
1174.318
 31
0
 0
LINE
 8
TOOL_0
 5
24D
 10
7901.07
 20
1174.318
 30
0
 11
7904.606
 21
1170.782
 31
0
 0
LINE
 8
TOOL_0
 5
24E
 10
7904.606
 20
1170.782
 30
0
 11
8208.938
 21
1356.852
 31
0
 0
LINE
 8
TOOL_0
 5
24F
 10
8208.938
 20
1356.852
 30
0
 11
8184.189
 21
1332.103
 31
0
 0
LINE
 8
TOOL_0
 5
250
 10
8184.189
 20
1332.103
 30
0
 11
8181.57
 21
1330.636
 31
0
 0
ARC
 8
TOOL_0
 5
251
 10
8151.608
 20
1332.136
 30
0
 40
29.999524062892
 50
269.998090140685
 51
357.133970511115
210
0
220
0
230
1.0
 0
LINE
 8
TOOL_0
 5
252
 10
8151.607
 20
1302.136
 30
0
 11
7882.607
 21
1302.136
 31
0
 0
ARC
 8
TOOL_0
 5
253
 10
7882.607
 20
1332.136
 30
0
 40
30.0
 50
180.0
 51
270.0
210
0
220
0
230
1.0
 0
LINE
 8
TOOL_0
 5
254
 10
7852.607
 20
1332.136
 30
0
 11
7852.607
 21
1422.936
 31
0
 0
ARC
 8
TOOL_0
 5
255
 10
7822.607
 20
1422.936
 30
0
 40
30.0
 50
0
 51
90.0
210
0
220
0
230
1.0
 0
LINE
 8
TOOL_0
 5
256
 10
7822.607
 20
1452.936
 30
0
 11
7769.607
 21
1452.936
 31
0
 0
ARC
 8
TOOL_0
 5
257
 10
7769.607
 20
1482.936
 30
0
 40
30.0
 50
180.0
 51
270.0
210
0
220
0
230
1.0
 0
LINE
 8
TOOL_0
 5
258
 10
7739.607
 20
1482.936
 30
0
 11
7739.607
 21
1533.736
 31
0
 0
ARC
 8
TOOL_0
 5
259
 10
7769.607
 20
1533.736
 30
0
 40
30.0
 50
90.0
 51
180.0
210
0
220
0
230
1.0
 0
LINE
 8
TOOL_0
 5
25A
 10
7769.607
 20
1563.736
 30
0
 11
8151.607
 21
1563.736
 31
0
 0
ARC
 8
TOOL_0
 5
25B
 10
8151.607
 20
1533.736
 30
0
 40
30.0
 50
0
 51
90.0
210
0
220
0
230
1.0
 0
LINE
 8
TOOL_0
 5
25C
 10
8181.607
 20
1533.736
 30
0
 11
8181.607
 21
1333.636
 31
0
 0
LINE
 8
TOOL_0
 5
25D
 10
8181.607
 20
1333.636
 30
0
 11
8184.188
 21
1332.104
 31
0
 0
LINE
 8
TOOL_0
 5
25E
 10
8184.188
 20
1332.104
 30
0
 11
8187.724
 21
1328.568
 31
0
 0
LINE
 8
TOOL_0
 5
25F
 10
8187.724
 20
1328.568
 30
0
 11
8181.412
 21
1648.756
 31
0
 0
LINE
 8
TOOL_0
 5
260
 10
8181.412
 20
1648.756
 30
0
 11
8156.663
 21
1624.007
 31
0
 0
LINE
 8
TOOL_0
 5
261
 10
8156.663
 20
1624.007
 30
0
 11
8154.044
 21
1622.54
 31
0
 0
ARC
 8
TOOL_0
 5
262
 10
8124.082
 20
1624.04
 30
0
 40
29.999524062892
 50
269.998090140685
 51
357.133970511115
210
0
220
0
230
1.0
 0
LINE
 8
TOOL_0
 5
263
 10
8124.081
 20
1594.04
 30
0
 11
7855.081
 21
1594.04
 31
0
 0
ARC
 8
TOOL_0
 5
264
 10
7855.081
 20
1624.04
 30
0
 40
30.0
 50
180.0
 51
270.0
210
0
220
0
230
1.0
 0
LINE
 8
TOOL_0
 5
265
 10
7825.081
 20
1624.04
 30
0
 11
7825.081
 21
1714.84
 31
0
 0
ARC
 8
TOOL_0
 5
266
 10
7795.081
 20
1714.84
 30
0
 40
30.0
 50
0
 51
90.0
210
0
220
0
230
1.0
 0
LINE
 8
TOOL_0
 5
267
 10
7795.081
 20
1744.84
 30
0
 11
7742.081
 21
1744.84
 31
0
 0
ARC
 8
TOOL_0
 5
268
 10
7742.081
 20
1774.84
 30
0
 40
30.0
 50
180.0
 51
270.0
210
0
220
0
230
1.0
 0
LINE
 8
TOOL_0
 5
269
 10
7712.081
 20
1774.84
 30
0
 11
7712.081
 21
1825.64
 31
0
 0
ARC
 8
TOOL_0
 5
26A
 10
7742.081
 20
1825.64
 30
0
 40
30.0
 50
90.0
 51
180.0
210
0
220
0
230
1.0
 0
LINE
 8
TOOL_0
 5
26B
 10
7742.081
 20
1855.64
 30
0
 11
8124.081
 21
1855.64
 31
0
 0
ARC
 8
TOOL_0
 5
26C
 10
8124.081
 20
1825.64
 30
0
 40
30.0
 50
0
 51
90.0
210
0
220
0
230
1.0
 0
LINE
 8
TOOL_0
 5
26D
 10
8154.081
 20
1825.64
 30
0
 11
8154.081
 21
1625.54
 31
0
 0
LINE
 8
TOOL_0
 5
26E
 10
8154.081
 20
1625.54
 30
0
 11
8156.662
 21
1624.008
 31
0
 0
LINE
 8
TOOL_0
 5
26F
 10
8156.662
 20
1624.008
 30
0
 11
8160.198
 21
1620.472
 31
0
 0
LINE
 8
TOOL_0
 5
270
 10
8160.198
 20
1620.472
 30
0
 11
9105.843
 21
2531.757
 31
0
 0
LINE
 8
TOOL_0
 5
271
 10
9105.843
 20
2531.757
 30
0
 11
9135.843
 21
2531.757
 31
0
 0
LINE
 8
TOOL_0
 5
272
 10
9135.843
 20
2531.757
 30
0
 11
9135.843
 21
2541.757
 31
0
 0
ARC
 8
TOOL_0
 5
273
 10
9125.843
 20
2541.757
 30
0
 40
10.0
 50
0
 51
90.0
210
0
220
0
230
1.0
 0
LINE
 8
TOOL_0
 5
274
 10
9125.843
 20
2551.757
 30
0
 11
9015.843
 21
2551.757
 31
0
 0
ARC
 8
TOOL_0
 5
275
 10
9015.843
 20
2541.757
 30
0
 40
10.0
 50
90.0
 51
180.0
210
0
220
0
230
1.0
 0
LINE
 8
TOOL_0
 5
276
 10
9005.843
 20
2541.757
 30
0
 11
9005.843
 21
2521.757
 31
0
 0
ARC
 8
TOOL_0
 5
277
 10
9035.843
 20
2521.757
 30
0
 40
30.0
 50
180.0
 51
270.0
210
0
220
0
230
1.0
 0
LINE
 8
TOOL_0
 5
278
 10
9035.843
 20
2491.757
 30
0
 11
9105.843
 21
2491.757
 31
0
 0
ARC
 8
TOOL_0
 5
279
 10
9105.843
 20
2521.757
 30
0
 40
30.0
 50
270.0
 51
0
210
0
220
0
230
1.0
 0
LINE
 8
TOOL_0
 5
27A
 10
9135.843
 20
2521.757
 30
0
 11
9135.843
 21
2531.757
 31
0
 0
LINE
 8
TOOL_0
 5
27B
 10
9135.843
 20
2531.757
 30
0
 11
8995.843
 21
2421.757
 31
0
 0
LINE
 8
TOOL_0
 5
27C
 10
8995.843
 20
2421.757
 30
0
 11
9025.843
 21
2421.757
 31
0
 0
LINE
 8
TOOL_0
 5
27D
 10
9025.843
 20
2421.757
 30
0
 11
9025.843
 21
2451.757
 31
0
 0
ARC
 8
TOOL_0
 5
27E
 10
9005.843
 20
2451.757
 30
0
 40
20.0
 50
0
 51
90.0
210
0
220
0
230
1.0
 0
LINE
 8
TOOL_0
 5
27F
 10
9005.843
 20
2471.757
 30
0
 11
8945.843
 21
2471.757
 31
0
 0
ARC
 8
TOOL_0
 5
280
 10
8945.843
 20
2451.757
 30
0
 40
20.0
 50
90.0
 51
180.0
210
0
220
0
230
1.0
 0
LINE
 8
TOOL_0
 5
281
 10
8925.843
 20
2451.757
 30
0
 11
8925.843
 21
2391.757
 31
0
 0
ARC
 8
TOOL_0
 5
282
 10
8945.843
 20
2391.757
 30
0
 40
20.0
 50
180.0
 51
270.0
210
0
220
0
230
1.0
 0
LINE
 8
TOOL_0
 5
283
 10
8945.843
 20
2371.757
 30
0
 11
9005.843
 21
2371.757
 31
0
 0
ARC
 8
TOOL_0
 5
284
 10
9005.843
 20
2391.757
 30
0
 40
20.0
 50
270.0
 51
0
210
0
220
0
230
1.0
 0
LINE
 8
TOOL_0
 5
285
 10
9025.843
 20
2391.757
 30
0
 11
9025.843
 21
2421.757
 31
0
 0
LINE
 8
TOOL_0
 5
286
 10
9025.843
 20
2421.757
 30
0
 11
8000.843
 21
2448.757
 31
0
 0
LINE
 8
TOOL_0
 5
287
 10
8000.843
 20
2448.757
 30
0
 11
8030.843
 21
2448.757
 31
0
 0
LINE
 8
TOOL_0
 5
288
 10
8030.843
 20
2448.757
 30
0
 11
8030.843
 21
2478.757
 31
0
 0
ARC
 8
TOOL_0
 5
289
 10
8010.843
 20
2478.757
 30
0
 40
20.0
 50
0
 51
90.0
210
0
220
0
230
1.0
 0
LINE
 8
TOOL_0
 5
28A
 10
8010.843
 20
2498.757
 30
0
 11
7950.843
 21
2498.757
 31
0
 0
ARC
 8
TOOL_0
 5
28B
 10
7950.843
 20
2478.757
 30
0
 40
20.0
 50
90.0
 51
180.0
210
0
220
0
230
1.0
 0
LINE
 8
TOOL_0
 5
28C
 10
7930.843
 20
2478.757
 30
0
 11
7930.843
 21
2418.757
 31
0
 0
ARC
 8
TOOL_0
 5
28D
 10
7950.843
 20
2418.757
 30
0
 40
20.0
 50
180.0
 51
270.0
210
0
220
0
230
1.0
 0
LINE
 8
TOOL_0
 5
28E
 10
7950.843
 20
2398.757
 30
0
 11
8010.843
 21
2398.757
 31
0
 0
ARC
 8
TOOL_0
 5
28F
 10
8010.843
 20
2418.757
 30
0
 40
20.0
 50
270.0
 51
0
210
0
220
0
230
1.0
 0
LINE
 8
TOOL_0
 5
290
 10
8030.843
 20
2418.757
 30
0
 11
8030.843
 21
2448.757
 31
0
 0
LINE
 8
TOOL_0
 5
291
 10
8030.843
 20
2448.757
 30
0
 11
8375.843
 21
732.771
 31
0
 0
LINE
 8
TOOL_0
 5
292
 10
8375.843
 20
732.771
 30
0
 11
8375.843
 21
702.771
 31
0
 0
ARC
 8
TOOL_0
 5
293
 10
8375.843
 20
733.936
 30
0
 40
31.165
 50
270.0
 51
293.001846237354
210
0
220
0
230
1.0
 0
LINE
 8
TOOL_0
 5
294
 10
8388.021
 20
705.249
 30
0
 11
8411.7
 21
715.365
 31
0
 0
ARC
 8
TOOL_0
 5
295
 10
8403.843
 20
733.757
 30
0
 40
19.999952824944
 50
293.132009097446
 51
66.867990902554
210
0
220
0
230
1.0
 0
LINE
 8
TOOL_0
 5
296
 10
8411.7
 20
752.149
 30
0
 11
8388.021
 21
762.265
 31
0
 0
ARC
 8
TOOL_0
 5
297
 10
8375.842
 20
733.579
 30
0
 40
31.164316726025
 50
66.9957430162
 51
113.002564662372
210
0
220
0
230
1.0
 0
LINE
 8
TOOL_0
 5
298
 10
8363.664
 20
762.265
 30
0
 11
8339.985
 21
752.149
 31
0
 0
ARC
 8
TOOL_0
 5
299
 10
8347.842
 20
733.757
 30
0
 40
19.999952824944
 50
113.132009097445
 51
246.867990902554
210
0
220
0
230
1.0
 0
LINE
 8
TOOL_0
 5
29A
 10
8339.985
 20
715.365
 30
0
 11
8363.664
 21
705.249
 31
0
 0
ARC
 8
TOOL_0
 5
29B
 10
8375.843
 20
733.935
 30
0
 40
31.164316726025
 50
246.9957430162
 51
269.998161475436
210
0
220
0
230
1.0
 0
LINE
 8
TOOL_0
 5
29C
 10
8375.842
 20
702.771
 30
0
 11
8380.842
 21
88.757
 31
0
 0
LINE
 8
TOOL_0
 5
29D
 10
8380.842
 20
88.757
 30
0
 11
8410.842
 21
88.757
 31
0
 0
ARC
 8
TOOL_0
 5
29E
 10
8375.842
 20
88.757
 30
0
 40
35.0
 50
0
 51
180.0
210
0
220
0
230
1.0
 0
ARC
 8
TOOL_0
 5
29F
 10
8375.842
 20
88.757
 30
0
 40
35.0
 50
180.0
 51
0
210
0
220
0
230
1.0
 0
LINE
 8
TOOL_0
 5
2A0
 10
8410.842
 20
88.757
 30
0
 11
8905.842
 21
323.757
 31
0
 0
LINE
 8
TOOL_0
 5
2A1
 10
8905.842
 20
323.757
 30
0
 11
8935.842
 21
323.757
 31
0
 0
LINE
 8
TOOL_0
 5
2A2
 10
8935.842
 20
323.757
 30
0
 11
8935.842
 21
353.757
 31
0
 0
ARC
 8
TOOL_0
 5
2A3
 10
8925.842
 20
353.757
 30
0
 40
10.0
 50
0
 51
90.0
210
0
220
0
230
1.0
 0
LINE
 8
TOOL_0
 5
2A4
 10
8925.842
 20
363.757
 30
0
 11
8745.842
 21
363.757
 31
0
 0
ARC
 8
TOOL_0
 5
2A5
 10
8745.842
 20
353.757
 30
0
 40
10.0
 50
90.0
 51
180.0
210
0
220
0
230
1.0
 0
LINE
 8
TOOL_0
 5
2A6
 10
8735.842
 20
353.757
 30
0
 11
8735.842
 21
293.757
 31
0
 0
ARC
 8
TOOL_0
 5
2A7
 10
8745.842
 20
293.757
 30
0
 40
10.0
 50
180.0
 51
270.0
210
0
220
0
230
1.0
 0
LINE
 8
TOOL_0
 5
2A8
 10
8745.842
 20
283.757
 30
0
 11
8925.842
 21
283.757
 31
0
 0
ARC
 8
TOOL_0
 5
2A9
 10
8925.842
 20
293.757
 30
0
 40
10.0
 50
270.0
 51
0
210
0
220
0
230
1.0
 0
LINE
 8
TOOL_0
 5
2AA
 10
8935.842
 20
293.757
 30
0
 11
8935.842
 21
323.757
 31
0
 0
LINE
 8
TOOL_0
 5
2AB
 10
8935.842
 20
323.757
 30
0
 11
7931.202
 21
1872.49
 31
0
 0
LINE
 8
TOOL_0
 5
2AC
 10
7931.202
 20
1872.49
 30
0
 11
7913.428
 21
1892.757
 31
0
 0
LINE
 8
TOOL_0
 5
2AD
 10
7913.428
 20
1892.757
 30
0
 11
7904.842
 21
1901.343
 31
0
 0
LINE
 8
TOOL_0
 5
2AE
 10
7904.842
 20
1901.343
 30
0
 11
7904.842
 21
2626.171
 31
0
 0
LINE
 8
TOOL_0
 5
2AF
 10
7904.842
 20
2626.171
 30
0
 11
7913.428
 21
2634.757
 31
0
 0
LINE
 8
TOOL_0
 5
2B0
 10
7913.428
 20
2634.757
 30
0
 11
9389.842
 21
2634.757
 31
0
 0
ARC
 8
TOOL_0
 5
2B1
 10
9389.842
 20
2627.757
 30
0
 40
7.0
 50
0
 51
90.0
210
0
220
0
230
1.0
 0
LINE
 8
TOOL_0
 5
2B2
 10
9396.842
 20
2627.757
 30
0
 11
9396.842
 21
7.757
 31
0
 0
LINE
 8
TOOL_0
 5
2B3
 10
9396.842
 20
7.757
 30
0
 11
7778.842
 21
7.757
 31
0
 0
ARC
 8
TOOL_0
 5
2B4
 10
7778.842
 20
14.757
 30
0
 40
7.0
 50
180.0
 51
270.0
210
0
220
0
230
1.0
 0
LINE
 8
TOOL_0
 5
2B5
 10
7771.842
 20
14.757
 30
0
 11
7771.842
 21
488.757
 31
0
 0
LINE
 8
TOOL_0
 5
2B6
 10
7771.842
 20
488.757
 30
0
 11
7919.842
 21
488.757
 31
0
 0
LINE
 8
TOOL_0
 5
2B7
 10
7919.842
 20
488.757
 30
0
 11
7919.842
 21
453.757
 31
0
 0
ARC
 8
TOOL_0
 5
2B8
 10
7940.842
 20
453.757
 30
0
 40
21.0
 50
180.0
 51
327.688053502426
210
0
220
0
230
1.0
 0
LINE
 8
TOOL_0
 5
2B9
 10
7958.59
 20
442.532
 30
0
 11
7991.9
 21
495.201
 31
0
 0
ARC
 8
TOOL_0
 5
2BA
 10
7975.842
 20
505.357
 30
0
 40
19.000097368172
 50
327.688392683242
 51
63.424159673344
210
0
220
0
230
1.0
 0
LINE
 8
TOOL_0
 5
2BB
 10
7984.342
 20
522.349
 30
0
 11
7984.342
 21
1067.756
 31
0
 0
LINE
 8
TOOL_0
 5
2BC
 10
7984.342
 20
1067.756
 30
0
 11
8021.443
 21
1067.756
 31
0
 0
ARC
 8
TOOL_0
 5
2BD
 10
8026.342
 20
1066.756
 30
0
 40
5.00002009996
 50
168.463087982615
 51
270.0
210
0
220
0
230
1.0
 0
LINE
 8
TOOL_0
 5
2BE
 10
8026.342
 20
1061.756
 30
0
 11
8070.842
 21
1061.756
 31
0
 0
ARC
 8
TOOL_0
 5
2BF
 10
8070.842
 20
1260.756
 30
0
 40
199.0
 50
270.0
 51
359.99971208151
210
0
220
0
230
1.0
 0
LINE
 8
TOOL_0
 5
2C0
 10
8269.842
 20
1260.755
 30
0
 11
8269.842
 21
1693.756
 31
0
 0
ARC
 8
TOOL_0
 5
2C1
 10
8070.842
 20
1693.756
 30
0
 40
199.0
 50
0
 51
90.0
210
0
220
0
230
1.0
 0
LINE
 8
TOOL_0
 5
2C2
 10
8070.842
 20
1892.756
 30
0
 11
7913.428
 21
1892.756
 31
0
 0
LINE
 8
TOOL_0
 5
2C3
 10
7913.428
 20
1892.756
 30
0
 11
7908.543
 21
1892.731
 31
0
 0
LINE
 8
TOOL_0
 5
2C4
 10
7908.543
 20
1892.731
 30
0
 11
10433.833
 21
2553.756
 31
0
 0
LINE
 8
TOOL_0
 5
2C5
 10
10433.833
 20
2553.756
 30
0
 11
10463.833
 21
2553.756
 31
0
 0
ARC
 8
TOOL_0
 5
2C6
 10
10428.833
 20
2553.756
 30
0
 40
35.0
 50
0
 51
180.0
210
0
220
0
230
1.0
 0
ARC
 8
TOOL_0
 5
2C7
 10
10428.833
 20
2553.756
 30
0
 40
35.0
 50
180.0
 51
0
210
0
220
0
230
1.0
 0
LINE
 8
TOOL_0
 5
2C8
 10
10463.833
 20
2553.756
 30
0
 11
10038.833
 21
2318.756
 31
0
 0
LINE
 8
TOOL_0
 5
2C9
 10
10038.833
 20
2318.756
 30
0
 11
10068.833
 21
2318.756
 31
0
 0
LINE
 8
TOOL_0
 5
2CA
 10
10068.833
 20
2318.756
 30
0
 11
10068.833
 21
2348.756
 31
0
 0
ARC
 8
TOOL_0
 5
2CB
 10
10058.833
 20
2348.756
 30
0
 40
10.0
 50
0
 51
90.0
210
0
220
0
230
1.0
 0
LINE
 8
TOOL_0
 5
2CC
 10
10058.833
 20
2358.756
 30
0
 11
9878.833
 21
2358.756
 31
0
 0
ARC
 8
TOOL_0
 5
2CD
 10
9878.833
 20
2348.756
 30
0
 40
10.0
 50
90.0
 51
180.0
210
0
220
0
230
1.0
 0
LINE
 8
TOOL_0
 5
2CE
 10
9868.833
 20
2348.756
 30
0
 11
9868.833
 21
2288.756
 31
0
 0
ARC
 8
TOOL_0
 5
2CF
 10
9878.833
 20
2288.756
 30
0
 40
10.0
 50
180.0
 51
270.0
210
0
220
0
230
1.0
 0
LINE
 8
TOOL_0
 5
2D0
 10
9878.833
 20
2278.756
 30
0
 11
10058.833
 21
2278.756
 31
0
 0
ARC
 8
TOOL_0
 5
2D1
 10
10058.833
 20
2288.756
 30
0
 40
10.0
 50
270.0
 51
0
210
0
220
0
230
1.0
 0
LINE
 8
TOOL_0
 5
2D2
 10
10068.833
 20
2288.756
 30
0
 11
10068.833
 21
2318.756
 31
0
 0
LINE
 8
TOOL_0
 5
2D3
 10
10068.833
 20
2318.756
 30
0
 11
10428.833
 21
1907.77
 31
0
 0
LINE
 8
TOOL_0
 5
2D4
 10
10428.833
 20
1907.77
 30
0
 11
10428.833
 21
1877.77
 31
0
 0
ARC
 8
TOOL_0
 5
2D5
 10
10428.833
 20
1908.935
 30
0
 40
31.165
 50
270.0
 51
293.001846237354
210
0
220
0
230
1.0
 0
LINE
 8
TOOL_0
 5
2D6
 10
10441.011
 20
1880.248
 30
0
 11
10464.69
 21
1890.364
 31
0
 0
ARC
 8
TOOL_0
 5
2D7
 10
10456.833
 20
1908.756
 30
0
 40
19.999952824944
 50
293.132009097446
 51
66.867990902554
210
0
220
0
230
1.0
 0
LINE
 8
TOOL_0
 5
2D8
 10
10464.69
 20
1927.148
 30
0
 11
10441.011
 21
1937.264
 31
0
 0
ARC
 8
TOOL_0
 5
2D9
 10
10428.832
 20
1908.578
 30
0
 40
31.164316726025
 50
66.9957430162
 51
113.002564662372
210
0
220
0
230
1.0
 0
LINE
 8
TOOL_0
 5
2DA
 10
10416.654
 20
1937.264
 30
0
 11
10392.975
 21
1927.148
 31
0
 0
ARC
 8
TOOL_0
 5
2DB
 10
10400.832
 20
1908.756
 30
0
 40
19.999952824944
 50
113.132009097445
 51
246.867990902554
210
0
220
0
230
1.0
 0
LINE
 8
TOOL_0
 5
2DC
 10
10392.975
 20
1890.364
 30
0
 11
10416.654
 21
1880.248
 31
0
 0
ARC
 8
TOOL_0
 5
2DD
 10
10428.833
 20
1908.934
 30
0
 40
31.164316726025
 50
246.995743016199
 51
269.998161475436
210
0
220
0
230
1.0
 0
LINE
 8
TOOL_0
 5
2DE
 10
10428.832
 20
1877.77
 30
0
 11
9768.832
 21
110.756
 31
0
 0
LINE
 8
TOOL_0
 5
2DF
 10
9768.832
 20
110.756
 30
0
 11
9798.832
 21
110.756
 31
0
 0
LINE
 8
TOOL_0
 5
2E0
 10
9798.832
 20
110.756
 30
0
 11
9798.832
 21
120.756
 31
0
 0
ARC
 8
TOOL_0
 5
2E1
 10
9768.832
 20
120.756
 30
0
 40
30.0
 50
0
 51
90.0
210
0
220
0
230
1.0
 0
LINE
 8
TOOL_0
 5
2E2
 10
9768.832
 20
150.756
 30
0
 11
9698.832
 21
150.756
 31
0
 0
ARC
 8
TOOL_0
 5
2E3
 10
9698.832
 20
120.756
 30
0
 40
30.0
 50
90.0
 51
180.0
210
0
220
0
230
1.0
 0
LINE
 8
TOOL_0
 5
2E4
 10
9668.832
 20
120.756
 30
0
 11
9668.832
 21
100.756
 31
0
 0
ARC
 8
TOOL_0
 5
2E5
 10
9678.832
 20
100.756
 30
0
 40
10.0
 50
180.0
 51
270.0
210
0
220
0
230
1.0
 0
LINE
 8
TOOL_0
 5
2E6
 10
9678.832
 20
90.756
 30
0
 11
9788.832
 21
90.756
 31
0
 0
ARC
 8
TOOL_0
 5
2E7
 10
9788.832
 20
100.756
 30
0
 40
10.0
 50
270.0
 51
0
210
0
220
0
230
1.0
 0
LINE
 8
TOOL_0
 5
2E8
 10
9798.832
 20
100.756
 30
0
 11
9798.832
 21
110.756
 31
0
 0
LINE
 8
TOOL_0
 5
2E9
 10
9798.832
 20
110.756
 30
0
 11
9848.832
 21
226.898
 31
0
 0
LINE
 8
TOOL_0
 5
2EA
 10
9848.832
 20
226.898
 30
0
 11
9878.832
 21
226.898
 31
0
 0
LINE
 8
TOOL_0
 5
2EB
 10
9878.832
 20
226.898
 30
0
 11
9878.832
 21
250.756
 31
0
 0
ARC
 8
TOOL_0
 5
2EC
 10
9858.832
 20
250.756
 30
0
 40
20.0
 50
0
 51
90.0
210
0
220
0
230
1.0
 0
LINE
 8
TOOL_0
 5
2ED
 10
9858.832
 20
270.756
 30
0
 11
9798.832
 21
270.756
 31
0
 0
ARC
 8
TOOL_0
 5
2EE
 10
9798.832
 20
250.756
 30
0
 40
20.0
 50
90.0
 51
180.0
210
0
220
0
230
1.0
 0
LINE
 8
TOOL_0
 5
2EF
 10
9778.832
 20
250.756
 30
0
 11
9778.832
 21
190.756
 31
0
 0
ARC
 8
TOOL_0
 5
2F0
 10
9798.832
 20
190.756
 30
0
 40
20.0
 50
180.0
 51
270.0
210
0
220
0
230
1.0
 0
LINE
 8
TOOL_0
 5
2F1
 10
9798.832
 20
170.756
 30
0
 11
9858.832
 21
170.756
 31
0
 0
ARC
 8
TOOL_0
 5
2F2
 10
9858.832
 20
190.756
 30
0
 40
20.0
 50
270.0
 51
0
210
0
220
0
230
1.0
 0
LINE
 8
TOOL_0
 5
2F3
 10
9878.832
 20
190.756
 30
0
 11
9878.832
 21
226.898
 31
0
 0
LINE
 8
TOOL_0
 5
2F4
 10
9878.832
 20
226.898
 30
0
 11
10843.832
 21
193.756
 31
0
 0
LINE
 8
TOOL_0
 5
2F5
 10
10843.832
 20
193.756
 30
0
 11
10873.832
 21
193.756
 31
0
 0
LINE
 8
TOOL_0
 5
2F6
 10
10873.832
 20
193.756
 30
0
 11
10873.832
 21
223.756
 31
0
 0
ARC
 8
TOOL_0
 5
2F7
 10
10853.832
 20
223.756
 30
0
 40
20.0
 50
0
 51
90.0
210
0
220
0
230
1.0
 0
LINE
 8
TOOL_0
 5
2F8
 10
10853.832
 20
243.756
 30
0
 11
10793.832
 21
243.756
 31
0
 0
ARC
 8
TOOL_0
 5
2F9
 10
10793.832
 20
223.756
 30
0
 40
20.0
 50
90.0
 51
180.0
210
0
220
0
230
1.0
 0
LINE
 8
TOOL_0
 5
2FA
 10
10773.832
 20
223.756
 30
0
 11
10773.832
 21
163.756
 31
0
 0
ARC
 8
TOOL_0
 5
2FB
 10
10793.832
 20
163.756
 30
0
 40
20.0
 50
180.0
 51
270.0
210
0
220
0
230
1.0
 0
LINE
 8
TOOL_0
 5
2FC
 10
10793.832
 20
143.756
 30
0
 11
10853.832
 21
143.756
 31
0
 0
ARC
 8
TOOL_0
 5
2FD
 10
10853.832
 20
163.756
 30
0
 40
20.0
 50
270.0
 51
0
210
0
220
0
230
1.0
 0
LINE
 8
TOOL_0
 5
2FE
 10
10873.832
 20
163.756
 30
0
 11
10873.832
 21
193.756
 31
0
 0
LINE
 8
TOOL_0
 5
2FF
 10
10873.832
 20
193.756
 30
0
 11
10860.473
 21
781.745
 31
0
 0
LINE
 8
TOOL_0
 5
300
 10
10860.473
 20
781.745
 30
0
 11
10891.246
 21
749.756
 31
0
 0
LINE
 8
TOOL_0
 5
301
 10
10891.246
 20
749.756
 30
0
 11
10899.832
 21
741.17
 31
0
 0
LINE
 8
TOOL_0
 5
302
 10
10899.832
 20
741.17
 30
0
 11
10899.832
 21
16.342
 31
0
 0
LINE
 8
TOOL_0
 5
303
 10
10899.832
 20
16.342
 30
0
 11
10891.246
 21
7.756
 31
0
 0
LINE
 8
TOOL_0
 5
304
 10
10891.246
 20
7.756
 30
0
 11
9414.832
 21
7.756
 31
0
 0
ARC
 8
TOOL_0
 5
305
 10
9414.832
 20
14.756
 30
0
 40
7.0
 50
180.0
 51
270.0
210
0
220
0
230
1.0
 0
LINE
 8
TOOL_0
 5
306
 10
9407.832
 20
14.756
 30
0
 11
9407.832
 21
2634.756
 31
0
 0
LINE
 8
TOOL_0
 5
307
 10
9407.832
 20
2634.756
 30
0
 11
11025.832
 21
2634.756
 31
0
 0
ARC
 8
TOOL_0
 5
308
 10
11025.832
 20
2627.756
 30
0
 40
7.0
 50
0
 51
90.0
210
0
220
0
230
1.0
 0
LINE
 8
TOOL_0
 5
309
 10
11032.832
 20
2627.756
 30
0
 11
11032.832
 21
2153.756
 31
0
 0
LINE
 8
TOOL_0
 5
30A
 10
11032.832
 20
2153.756
 30
0
 11
10884.832
 21
2153.756
 31
0
 0
LINE
 8
TOOL_0
 5
30B
 10
10884.832
 20
2153.756
 30
0
 11
10884.832
 21
2188.756
 31
0
 0
ARC
 8
TOOL_0
 5
30C
 10
10863.832
 20
2188.756
 30
0
 40
21.0
 50
0
 51
147.688053502426
210
0
220
0
230
1.0
 0
LINE
 8
TOOL_0
 5
30D
 10
10846.084
 20
2199.981
 30
0
 11
10812.774
 21
2147.312
 31
0
 0
ARC
 8
TOOL_0
 5
30E
 10
10828.832
 20
2137.156
 30
0
 40
19.000097368172
 50
147.688392683243
 51
243.424159673344
210
0
220
0
230
1.0
 0
LINE
 8
TOOL_0
 5
30F
 10
10820.332
 20
2120.164
 30
0
 11
10820.332
 21
1574.757
 31
0
 0
LINE
 8
TOOL_0
 5
310
 10
10820.332
 20
1574.757
 30
0
 11
10783.231
 21
1574.757
 31
0
 0
ARC
 8
TOOL_0
 5
311
 10
10778.332
 20
1575.757
 30
0
 40
5.000020099959
 50
348.463087982613
 51
90.0
210
0
220
0
230
1.0
 0
LINE
 8
TOOL_0
 5
312
 10
10778.332
 20
1580.757
 30
0
 11
10733.832
 21
1580.757
 31
0
 0
ARC
 8
TOOL_0
 5
313
 10
10733.832
 20
1381.757
 30
0
 40
199.0
 50
90.0
 51
180.0
210
0
220
0
230
1.0
 0
LINE
 8
TOOL_0
 5
314
 10
10534.832
 20
1381.757
 30
0
 11
10534.832
 21
948.757
 31
0
 0
ARC
 8
TOOL_0
 5
315
 10
10733.832
 20
948.757
 30
0
 40
199.0
 50
180.0
 51
270.0
210
0
220
0
230
1.0
 0
LINE
 8
TOOL_0
 5
316
 10
10733.832
 20
749.757
 30
0
 11
10891.246
 21
749.757
 31
0
 0
LINE
 8
TOOL_0
 5
317
 10
10891.246
 20
749.757
 30
0
 11
10901.83
 21
749.777
 31
0
 0
LINE
 8
TOOL_0
 5
318
 10
10901.83
 20
749.777
 30
0
 11
11071.341
 21
795.02
 31
0
 0
LINE
 8
TOOL_0
 5
319
 10
11071.341
 20
795.02
 30
0
 11
11046.593
 21
819.769
 31
0
 0
LINE
 8
TOOL_0
 5
31A
 10
11046.593
 20
819.769
 30
0
 11
11045.061
 21
822.35
 31
0
 0
LINE
 8
TOOL_0
 5
31B
 10
11045.061
 20
822.35
 30
0
 11
10664.561
 21
822.35
 31
0
 0
ARC
 8
TOOL_0
 5
31C
 10
10664.561
 20
852.35
 30
0
 40
30.0
 50
180.0
 51
270.0
210
0
220
0
230
1.0
 0
LINE
 8
TOOL_0
 5
31D
 10
10634.561
 20
852.35
 30
0
 11
10634.561
 21
1053.95
 31
0
 0
ARC
 8
TOOL_0
 5
31E
 10
10664.561
 20
1053.95
 30
0
 40
30.0
 50
90.0
 51
180.0
210
0
220
0
230
1.0
 0
LINE
 8
TOOL_0
 5
31F
 10
10664.561
 20
1083.95
 30
0
 11
10933.561
 21
1083.95
 31
0
 0
ARC
 8
TOOL_0
 5
320
 10
10933.561
 20
1053.95
 30
0
 40
30.0
 50
0
 51
90.0
210
0
220
0
230
1.0
 0
LINE
 8
TOOL_0
 5
321
 10
10963.561
 20
1053.95
 30
0
 11
10963.561
 21
963.15
 31
0
 0
ARC
 8
TOOL_0
 5
322
 10
10993.561
 20
963.15
 30
0
 40
30.0
 50
180.0
 51
270.0
210
0
220
0
230
1.0
 0
LINE
 8
TOOL_0
 5
323
 10
10993.561
 20
933.15
 30
0
 11
11046.561
 21
933.15
 31
0
 0
ARC
 8
TOOL_0
 5
324
 10
11046.561
 20
903.15
 30
0
 40
30.0
 50
0
 51
90.0
210
0
220
0
230
1.0
 0
LINE
 8
TOOL_0
 5
325
 10
11076.561
 20
903.15
 30
0
 11
11076.561
 21
852.35
 31
0
 0
ARC
 8
TOOL_0
 5
326
 10
11046.561
 20
852.35
 30
0
 40
30.0
 50
272.866029488885
 51
0
210
0
220
0
230
1.0
 0
LINE
 8
TOOL_0
 5
327
 10
11048.061
 20
822.388
 30
0
 11
11046.594
 21
819.769
 31
0
 0
LINE
 8
TOOL_0
 5
328
 10
11046.594
 20
819.769
 30
0
 11
11043.058
 21
816.233
 31
0
 0
LINE
 8
TOOL_0
 5
329
 10
11043.058
 20
816.233
 30
0
 11
11059.013
 21
1174.2
 31
0
 0
LINE
 8
TOOL_0
 5
32A
 10
11059.013
 20
1174.2
 30
0
 11
11034.264
 21
1149.451
 31
0
 0
LINE
 8
TOOL_0
 5
32B
 10
11034.264
 20
1149.451
 30
0
 11
11031.645
 21
1147.984
 31
0
 0
ARC
 8
TOOL_0
 5
32C
 10
11001.683
 20
1149.484
 30
0
 40
29.999524062891
 50
269.998090140683
 51
357.133970511115
210
0
220
0
230
1.0
 0
LINE
 8
TOOL_0
 5
32D
 10
11001.682
 20
1119.484
 30
0
 11
10619.682
 21
1119.484
 31
0
 0
ARC
 8
TOOL_0
 5
32E
 10
10619.682
 20
1149.484
 30
0
 40
30.0
 50
180.0
 51
270.0
210
0
220
0
230
1.0
 0
LINE
 8
TOOL_0
 5
32F
 10
10589.682
 20
1149.484
 30
0
 11
10589.682
 21
1351.084
 31
0
 0
ARC
 8
TOOL_0
 5
330
 10
10619.682
 20
1351.084
 30
0
 40
30.0
 50
90.0
 51
180.0
210
0
220
0
230
1.0
 0
LINE
 8
TOOL_0
 5
331
 10
10619.682
 20
1381.084
 30
0
 11
10888.682
 21
1381.084
 31
0
 0
ARC
 8
TOOL_0
 5
332
 10
10888.682
 20
1351.084
 30
0
 40
30.0
 50
0
 51
90.0
210
0
220
0
230
1.0
 0
LINE
 8
TOOL_0
 5
333
 10
10918.682
 20
1351.084
 30
0
 11
10918.682
 21
1260.284
 31
0
 0
ARC
 8
TOOL_0
 5
334
 10
10948.682
 20
1260.284
 30
0
 40
30.0
 50
180.0
 51
270.0
210
0
220
0
230
1.0
 0
LINE
 8
TOOL_0
 5
335
 10
10948.682
 20
1230.284
 30
0
 11
11001.682
 21
1230.284
 31
0
 0
ARC
 8
TOOL_0
 5
336
 10
11001.682
 20
1200.284
 30
0
 40
30.0
 50
0
 51
90.0
210
0
220
0
230
1.0
 0
LINE
 8
TOOL_0
 5
337
 10
11031.682
 20
1200.284
 30
0
 11
11031.682
 21
1150.984
 31
0
 0
LINE
 8
TOOL_0
 5
338
 10
11031.682
 20
1150.984
 30
0
 11
11034.263
 21
1149.452
 31
0
 0
LINE
 8
TOOL_0
 5
339
 10
11034.263
 20
1149.452
 30
0
 11
11037.799
 21
1145.916
 31
0
 0
LINE
 8
TOOL_0
 5
33A
 10
11037.799
 20
1145.916
 30
0
 11
11332.77
 21
1336.273
 31
0
 0
LINE
 8
TOOL_0
 5
33B
 10
11332.77
 20
1336.273
 30
0
 11
11308.021
 21
1311.524
 31
0
 0
LINE
 8
TOOL_0
 5
33C
 10
11308.021
 20
1311.524
 30
0
 11
11305.402
 21
1310.057
 31
0
 0
ARC
 8
TOOL_0
 5
33D
 10
11275.44
 20
1311.557
 30
0
 40
29.999524062891
 50
269.998090140683
 51
357.133970511115
210
0
220
0
230
1.0
 0
LINE
 8
TOOL_0
 5
33E
 10
11275.439
 20
1281.557
 30
0
 11
11006.439
 21
1281.557
 31
0
 0
ARC
 8
TOOL_0
 5
33F
 10
11006.439
 20
1311.557
 30
0
 40
30.0
 50
180.0
 51
270.0
210
0
220
0
230
1.0
 0
LINE
 8
TOOL_0
 5
340
 10
10976.439
 20
1311.557
 30
0
 11
10976.439
 21
1402.357
 31
0
 0
ARC
 8
TOOL_0
 5
341
 10
10946.439
 20
1402.357
 30
0
 40
30.0
 50
0
 51
90.0
210
0
220
0
230
1.0
 0
LINE
 8
TOOL_0
 5
342
 10
10946.439
 20
1432.357
 30
0
 11
10893.439
 21
1432.357
 31
0
 0
ARC
 8
TOOL_0
 5
343
 10
10893.439
 20
1462.357
 30
0
 40
30.0
 50
180.0
 51
270.0
210
0
220
0
230
1.0
 0
LINE
 8
TOOL_0
 5
344
 10
10863.439
 20
1462.357
 30
0
 11
10863.439
 21
1513.157
 31
0
 0
ARC
 8
TOOL_0
 5
345
 10
10893.439
 20
1513.157
 30
0
 40
30.0
 50
90.0
 51
180.0
210
0
220
0
230
1.0
 0
LINE
 8
TOOL_0
 5
346
 10
10893.439
 20
1543.157
 30
0
 11
11275.439
 21
1543.157
 31
0
 0
ARC
 8
TOOL_0
 5
347
 10
11275.439
 20
1513.157
 30
0
 40
30.0
 50
0
 51
90.0
210
0
220
0
230
1.0
 0
LINE
 8
TOOL_0
 5
348
 10
11305.439
 20
1513.157
 30
0
 11
11305.439
 21
1313.057
 31
0
 0
LINE
 8
TOOL_0
 5
349
 10
11305.439
 20
1313.057
 30
0
 11
11308.02
 21
1311.525
 31
0
 0
LINE
 8
TOOL_0
 5
34A
 10
11308.02
 20
1311.525
 30
0
 11
11311.556
 21
1307.989
 31
0
 0
LINE
 8
TOOL_0
 5
34B
 10
11311.556
 20
1307.989
 30
0
 11
11328.281
 21
1633.407
 31
0
 0
LINE
 8
TOOL_0
 5
34C
 10
11328.281
 20
1633.407
 30
0
 11
11303.532
 21
1608.658
 31
0
 0
LINE
 8
TOOL_0
 5
34D
 10
11303.532
 20
1608.658
 30
0
 11
11300.913
 21
1607.191
 31
0
 0
ARC
 8
TOOL_0
 5
34E
 10
11270.951
 20
1608.691
 30
0
 40
29.999524062891
 50
269.998090140683
 51
357.133970511115
210
0
220
0
230
1.0
 0
LINE
 8
TOOL_0
 5
34F
 10
11270.95
 20
1578.691
 30
0
 11
11001.95
 21
1578.691
 31
0
 0
ARC
 8
TOOL_0
 5
350
 10
11001.95
 20
1608.691
 30
0
 40
30.0
 50
180.0
 51
270.0
210
0
220
0
230
1.0
 0
LINE
 8
TOOL_0
 5
351
 10
10971.95
 20
1608.691
 30
0
 11
10971.95
 21
1699.491
 31
0
 0
ARC
 8
TOOL_0
 5
352
 10
10941.95
 20
1699.491
 30
0
 40
30.0
 50
0
 51
90.0
210
0
220
0
230
1.0
 0
LINE
 8
TOOL_0
 5
353
 10
10941.95
 20
1729.491
 30
0
 11
10888.95
 21
1729.491
 31
0
 0
ARC
 8
TOOL_0
 5
354
 10
10888.95
 20
1759.491
 30
0
 40
30.0
 50
180.0
 51
270.0
210
0
220
0
230
1.0
 0
LINE
 8
TOOL_0
 5
355
 10
10858.95
 20
1759.491
 30
0
 11
10858.95
 21
1810.291
 31
0
 0
ARC
 8
TOOL_0
 5
356
 10
10888.95
 20
1810.291
 30
0
 40
30.0
 50
90.0
 51
180.0
210
0
220
0
230
1.0
 0
LINE
 8
TOOL_0
 5
357
 10
10888.95
 20
1840.291
 30
0
 11
11270.95
 21
1840.291
 31
0
 0
ARC
 8
TOOL_0
 5
358
 10
11270.95
 20
1810.291
 30
0
 40
30.0
 50
0
 51
90.0
210
0
220
0
230
1.0
 0
LINE
 8
TOOL_0
 5
359
 10
11300.95
 20
1810.291
 30
0
 11
11300.95
 21
1610.191
 31
0
 0
LINE
 8
TOOL_0
 5
35A
 10
11300.95
 20
1610.191
 30
0
 11
11303.531
 21
1608.659
 31
0
 0
LINE
 8
TOOL_0
 5
35B
 10
11303.531
 20
1608.659
 30
0
 11
11307.067
 21
1605.123
 31
0
 0
LINE
 8
TOOL_0
 5
35C
 10
11307.067
 20
1605.123
 30
0
 11
12251.237
 21
2531.757
 31
0
 0
LINE
 8
TOOL_0
 5
35D
 10
12251.237
 20
2531.757
 30
0
 11
12281.237
 21
2531.757
 31
0
 0
LINE
 8
TOOL_0
 5
35E
 10
12281.237
 20
2531.757
 30
0
 11
12281.237
 21
2541.757
 31
0
 0
ARC
 8
TOOL_0
 5
35F
 10
12271.237
 20
2541.757
 30
0
 40
10.0
 50
0
 51
90.0
210
0
220
0
230
1.0
 0
LINE
 8
TOOL_0
 5
360
 10
12271.237
 20
2551.757
 30
0
 11
12161.237
 21
2551.757
 31
0
 0
ARC
 8
TOOL_0
 5
361
 10
12161.237
 20
2541.757
 30
0
 40
10.0
 50
90.0
 51
180.0
210
0
220
0
230
1.0
 0
LINE
 8
TOOL_0
 5
362
 10
12151.237
 20
2541.757
 30
0
 11
12151.237
 21
2521.757
 31
0
 0
ARC
 8
TOOL_0
 5
363
 10
12181.237
 20
2521.757
 30
0
 40
30.0
 50
180.0
 51
270.0
210
0
220
0
230
1.0
 0
LINE
 8
TOOL_0
 5
364
 10
12181.237
 20
2491.757
 30
0
 11
12251.237
 21
2491.757
 31
0
 0
ARC
 8
TOOL_0
 5
365
 10
12251.237
 20
2521.757
 30
0
 40
30.0
 50
270.0
 51
0
210
0
220
0
230
1.0
 0
LINE
 8
TOOL_0
 5
366
 10
12281.237
 20
2521.757
 30
0
 11
12281.237
 21
2531.757
 31
0
 0
LINE
 8
TOOL_0
 5
367
 10
12281.237
 20
2531.757
 30
0
 11
12141.237
 21
2421.757
 31
0
 0
LINE
 8
TOOL_0
 5
368
 10
12141.237
 20
2421.757
 30
0
 11
12171.237
 21
2421.757
 31
0
 0
LINE
 8
TOOL_0
 5
369
 10
12171.237
 20
2421.757
 30
0
 11
12171.237
 21
2451.757
 31
0
 0
ARC
 8
TOOL_0
 5
36A
 10
12151.237
 20
2451.757
 30
0
 40
20.0
 50
0
 51
90.0
210
0
220
0
230
1.0
 0
LINE
 8
TOOL_0
 5
36B
 10
12151.237
 20
2471.757
 30
0
 11
12091.237
 21
2471.757
 31
0
 0
ARC
 8
TOOL_0
 5
36C
 10
12091.237
 20
2451.757
 30
0
 40
20.0
 50
90.0
 51
180.0
210
0
220
0
230
1.0
 0
LINE
 8
TOOL_0
 5
36D
 10
12071.237
 20
2451.757
 30
0
 11
12071.237
 21
2391.757
 31
0
 0
ARC
 8
TOOL_0
 5
36E
 10
12091.237
 20
2391.757
 30
0
 40
20.0
 50
180.0
 51
270.0
210
0
220
0
230
1.0
 0
LINE
 8
TOOL_0
 5
36F
 10
12091.237
 20
2371.757
 30
0
 11
12151.237
 21
2371.757
 31
0
 0
ARC
 8
TOOL_0
 5
370
 10
12151.237
 20
2391.757
 30
0
 40
20.0
 50
270.0
 51
0
210
0
220
0
230
1.0
 0
LINE
 8
TOOL_0
 5
371
 10
12171.237
 20
2391.757
 30
0
 11
12171.237
 21
2421.757
 31
0
 0
LINE
 8
TOOL_0
 5
372
 10
12171.237
 20
2421.757
 30
0
 11
11146.237
 21
2448.757
 31
0
 0
LINE
 8
TOOL_0
 5
373
 10
11146.237
 20
2448.757
 30
0
 11
11176.237
 21
2448.757
 31
0
 0
LINE
 8
TOOL_0
 5
374
 10
11176.237
 20
2448.757
 30
0
 11
11176.237
 21
2478.757
 31
0
 0
ARC
 8
TOOL_0
 5
375
 10
11156.237
 20
2478.757
 30
0
 40
20.0
 50
0
 51
90.0
210
0
220
0
230
1.0
 0
LINE
 8
TOOL_0
 5
376
 10
11156.237
 20
2498.757
 30
0
 11
11096.237
 21
2498.757
 31
0
 0
ARC
 8
TOOL_0
 5
377
 10
11096.237
 20
2478.757
 30
0
 40
20.0
 50
90.0
 51
180.0
210
0
220
0
230
1.0
 0
LINE
 8
TOOL_0
 5
378
 10
11076.237
 20
2478.757
 30
0
 11
11076.237
 21
2418.757
 31
0
 0
ARC
 8
TOOL_0
 5
379
 10
11096.237
 20
2418.757
 30
0
 40
20.0
 50
180.0
 51
270.0
210
0
220
0
230
1.0
 0
LINE
 8
TOOL_0
 5
37A
 10
11096.237
 20
2398.757
 30
0
 11
11156.237
 21
2398.757
 31
0
 0
ARC
 8
TOOL_0
 5
37B
 10
11156.237
 20
2418.757
 30
0
 40
20.0
 50
270.0
 51
0
210
0
220
0
230
1.0
 0
LINE
 8
TOOL_0
 5
37C
 10
11176.237
 20
2418.757
 30
0
 11
11176.237
 21
2448.757
 31
0
 0
LINE
 8
TOOL_0
 5
37D
 10
11176.237
 20
2448.757
 30
0
 11
11521.237
 21
732.771
 31
0
 0
LINE
 8
TOOL_0
 5
37E
 10
11521.237
 20
732.771
 30
0
 11
11521.237
 21
702.771
 31
0
 0
ARC
 8
TOOL_0
 5
37F
 10
11521.237
 20
733.936
 30
0
 40
31.165
 50
270.0
 51
293.001846237354
210
0
220
0
230
1.0
 0
LINE
 8
TOOL_0
 5
380
 10
11533.415
 20
705.249
 30
0
 11
11557.094
 21
715.365
 31
0
 0
ARC
 8
TOOL_0
 5
381
 10
11549.237
 20
733.757
 30
0
 40
19.999952824944
 50
293.132009097446
 51
66.867990902554
210
0
220
0
230
1.0
 0
LINE
 8
TOOL_0
 5
382
 10
11557.094
 20
752.149
 30
0
 11
11533.415
 21
762.265
 31
0
 0
ARC
 8
TOOL_0
 5
383
 10
11521.236
 20
733.579
 30
0
 40
31.164316726025
 50
66.9957430162
 51
113.002564662372
210
0
220
0
230
1.0
 0
LINE
 8
TOOL_0
 5
384
 10
11509.058
 20
762.265
 30
0
 11
11485.379
 21
752.149
 31
0
 0
ARC
 8
TOOL_0
 5
385
 10
11493.236
 20
733.757
 30
0
 40
19.999952824944
 50
113.132009097445
 51
246.867990902554
210
0
220
0
230
1.0
 0
LINE
 8
TOOL_0
 5
386
 10
11485.379
 20
715.365
 30
0
 11
11509.058
 21
705.249
 31
0
 0
ARC
 8
TOOL_0
 5
387
 10
11521.237
 20
733.935
 30
0
 40
31.164316726025
 50
246.9957430162
 51
269.998161475436
210
0
220
0
230
1.0
 0
LINE
 8
TOOL_0
 5
388
 10
11521.236
 20
702.771
 30
0
 11
11526.236
 21
88.757
 31
0
 0
LINE
 8
TOOL_0
 5
389
 10
11526.236
 20
88.757
 30
0
 11
11556.236
 21
88.757
 31
0
 0
ARC
 8
TOOL_0
 5
38A
 10
11521.236
 20
88.757
 30
0
 40
35.0
 50
0
 51
180.0
210
0
220
0
230
1.0
 0
ARC
 8
TOOL_0
 5
38B
 10
11521.236
 20
88.757
 30
0
 40
35.0
 50
180.0
 51
0
210
0
220
0
230
1.0
 0
LINE
 8
TOOL_0
 5
38C
 10
11556.236
 20
88.757
 30
0
 11
12051.236
 21
323.757
 31
0
 0
LINE
 8
TOOL_0
 5
38D
 10
12051.236
 20
323.757
 30
0
 11
12081.236
 21
323.757
 31
0
 0
LINE
 8
TOOL_0
 5
38E
 10
12081.236
 20
323.757
 30
0
 11
12081.236
 21
353.757
 31
0
 0
ARC
 8
TOOL_0
 5
38F
 10
12071.236
 20
353.757
 30
0
 40
10.0
 50
0
 51
90.0
210
0
220
0
230
1.0
 0
LINE
 8
TOOL_0
 5
390
 10
12071.236
 20
363.757
 30
0
 11
11891.236
 21
363.757
 31
0
 0
ARC
 8
TOOL_0
 5
391
 10
11891.236
 20
353.757
 30
0
 40
10.0
 50
90.0
 51
180.0
210
0
220
0
230
1.0
 0
LINE
 8
TOOL_0
 5
392
 10
11881.236
 20
353.757
 30
0
 11
11881.236
 21
293.757
 31
0
 0
ARC
 8
TOOL_0
 5
393
 10
11891.236
 20
293.757
 30
0
 40
10.0
 50
180.0
 51
270.0
210
0
220
0
230
1.0
 0
LINE
 8
TOOL_0
 5
394
 10
11891.236
 20
283.757
 30
0
 11
12071.236
 21
283.757
 31
0
 0
ARC
 8
TOOL_0
 5
395
 10
12071.236
 20
293.757
 30
0
 40
10.0
 50
270.0
 51
0
210
0
220
0
230
1.0
 0
LINE
 8
TOOL_0
 5
396
 10
12081.236
 20
293.757
 30
0
 11
12081.236
 21
323.757
 31
0
 0
LINE
 8
TOOL_0
 5
397
 10
12081.236
 20
323.757
 30
0
 11
11080.977
 21
1862.889
 31
0
 0
LINE
 8
TOOL_0
 5
398
 10
11080.977
 20
1862.889
 30
0
 11
11058.822
 21
1892.757
 31
0
 0
LINE
 8
TOOL_0
 5
399
 10
11058.822
 20
1892.757
 30
0
 11
11050.236
 21
1901.343
 31
0
 0
LINE
 8
TOOL_0
 5
39A
 10
11050.236
 20
1901.343
 30
0
 11
11050.236
 21
2626.171
 31
0
 0
LINE
 8
TOOL_0
 5
39B
 10
11050.236
 20
2626.171
 30
0
 11
11058.822
 21
2634.757
 31
0
 0
LINE
 8
TOOL_0
 5
39C
 10
11058.822
 20
2634.757
 30
0
 11
12535.236
 21
2634.757
 31
0
 0
ARC
 8
TOOL_0
 5
39D
 10
12535.236
 20
2627.757
 30
0
 40
7.0
 50
0
 51
90.0
210
0
220
0
230
1.0
 0
LINE
 8
TOOL_0
 5
39E
 10
12542.236
 20
2627.757
 30
0
 11
12542.236
 21
7.757
 31
0
 0
LINE
 8
TOOL_0
 5
39F
 10
12542.236
 20
7.757
 30
0
 11
10924.236
 21
7.757
 31
0
 0
ARC
 8
TOOL_0
 5
3A0
 10
10924.236
 20
14.757
 30
0
 40
7.0
 50
180.0
 51
270.0
210
0
220
0
230
1.0
 0
LINE
 8
TOOL_0
 5
3A1
 10
10917.236
 20
14.757
 30
0
 11
10917.236
 21
488.757
 31
0
 0
LINE
 8
TOOL_0
 5
3A2
 10
10917.236
 20
488.757
 30
0
 11
11065.236
 21
488.757
 31
0
 0
LINE
 8
TOOL_0
 5
3A3
 10
11065.236
 20
488.757
 30
0
 11
11065.236
 21
453.757
 31
0
 0
ARC
 8
TOOL_0
 5
3A4
 10
11086.236
 20
453.757
 30
0
 40
21.0
 50
180.0
 51
327.688053502426
210
0
220
0
230
1.0
 0
LINE
 8
TOOL_0
 5
3A5
 10
11103.984
 20
442.532
 30
0
 11
11137.294
 21
495.201
 31
0
 0
ARC
 8
TOOL_0
 5
3A6
 10
11121.236
 20
505.357
 30
0
 40
19.000097368172
 50
327.688392683243
 51
63.424159673344
210
0
220
0
230
1.0
 0
LINE
 8
TOOL_0
 5
3A7
 10
11129.736
 20
522.349
 30
0
 11
11129.736
 21
1067.756
 31
0
 0
LINE
 8
TOOL_0
 5
3A8
 10
11129.736
 20
1067.756
 30
0
 11
11166.837
 21
1067.756
 31
0
 0
ARC
 8
TOOL_0
 5
3A9
 10
11171.736
 20
1066.756
 30
0
 40
5.000020099959
 50
168.463087982613
 51
270.0
210
0
220
0
230
1.0
 0
LINE
 8
TOOL_0
 5
3AA
 10
11171.736
 20
1061.756
 30
0
 11
11216.236
 21
1061.756
 31
0
 0
ARC
 8
TOOL_0
 5
3AB
 10
11216.236
 20
1260.756
 30
0
 40
199.0
 50
270.0
 51
359.99971208151
210
0
220
0
230
1.0
 0
LINE
 8
TOOL_0
 5
3AC
 10
11415.236
 20
1260.755
 30
0
 11
11415.236
 21
1693.756
 31
0
 0
ARC
 8
TOOL_0
 5
3AD
 10
11216.236
 20
1693.756
 30
0
 40
199.0
 50
0
 51
90.0
210
0
220
0
230
1.0
 0
LINE
 8
TOOL_0
 5
3AE
 10
11216.236
 20
1892.756
 30
0
 11
11058.822
 21
1892.756
 31
0
 0
LINE
 8
TOOL_0
 5
3AF
 10
11058.822
 20
1892.756
 30
0
 11
11050.442
 21
1892.692
 31
0
 0
ENDSEC
 0
EOF

