0
SECTION
2
TABLES
0
TABLE
2
LAYER
70
0
0
LAYER
2
LAYER_NAME
70
0
62
1
6
CONTINUOUS
0
ENDTAB
0
ENDSEC
 0
SECTION
 2
ENTITIES
 0
LINE
 8
TOOL_0
 5
1
 10
6651.0
 20
2351.879
 30
0
 11
6651.0
 21
2321.879
 31
0
 0
LINE
 8
TOOL_0
 5
2
 10
6651.0
 20
2321.879
 30
0
 11
6651.0
 21
1561.879
 31
0
 0
LINE
 8
TOOL_0
 5
3
 10
6651.0
 20
1561.879
 30
0
 11
15.0
 21
1561.879
 31
0
 0
LINE
 8
TOOL_0
 5
4
 10
15.0
 20
1561.879
 30
0
 11
15.0
 21
2321.879
 31
0
 0
LINE
 8
TOOL_0
 5
5
 10
15.0
 20
2321.879
 30
0
 11
6651.0
 21
2321.879
 31
0
 0
LINE
 8
TOOL_0
 5
6
 10
6651.0
 20
2321.879
 30
0
 11
6656.0
 21
2321.879
 31
0
 0
LINE
 8
TOOL_0
 5
7
 10
6656.0
 20
2321.879
 30
0
 11
7545.893
 21
1997.18
 31
0
 0
LINE
 8
TOOL_0
 5
8
 10
7545.893
 20
1997.18
 30
0
 11
7575.893
 21
1997.18
 31
0
 0
LINE
 8
TOOL_0
 5
9
 10
7575.893
 20
1997.18
 30
0
 11
7575.893
 21
2082.18
 31
0
 0
ARC
 8
TOOL_0
 5
A
 10
7475.893
 20
2082.18
 30
0
 40
100.0
 50
0
 51
90.0
210
0
220
0
230
1.0
 0
LINE
 8
TOOL_0
 5
B
 10
7475.893
 20
2182.18
 30
0
 11
7075.893
 21
2182.18
 31
0
 0
ARC
 8
TOOL_0
 5
C
 10
7075.893
 20
2082.18
 30
0
 40
100.0
 50
90.0
 51
180.0
210
0
220
0
230
1.0
 0
LINE
 8
TOOL_0
 5
D
 10
6975.893
 20
2082.18
 30
0
 11
6975.893
 21
1912.18
 31
0
 0
ARC
 8
TOOL_0
 5
E
 10
7075.893
 20
1912.18
 30
0
 40
100.0
 50
180.0
 51
270.0
210
0
220
0
230
1.0
 0
LINE
 8
TOOL_0
 5
F
 10
7075.893
 20
1812.18
 30
0
 11
7475.893
 21
1812.18
 31
0
 0
ARC
 8
TOOL_0
 5
10
 10
7475.893
 20
1912.18
 30
0
 40
100.0
 50
270.0
 51
359.999427042205
210
0
220
0
230
1.0
 0
LINE
 8
TOOL_0
 5
11
 10
7575.893
 20
1912.179
 30
0
 11
7575.893
 21
1997.18
 31
0
 0
LINE
 8
TOOL_0
 5
12
 10
7575.893
 20
1997.18
 30
0
 11
7572.357
 21
2000.716
 31
0
 0
LINE
 8
TOOL_0
 5
13
 10
7572.357
 20
2000.716
 30
0
 11
7871.642
 21
1561.43
 31
0
 0
LINE
 8
TOOL_0
 5
14
 10
7871.642
 20
1561.43
 30
0
 11
7841.642
 21
1561.43
 31
0
 0
LINE
 8
TOOL_0
 5
15
 10
7841.642
 20
1561.43
 30
0
 11
6710.142
 21
1561.43
 31
0
 0
LINE
 8
TOOL_0
 5
16
 10
6710.142
 20
1561.43
 30
0
 11
6710.142
 21
2432.93
 31
0
 0
LINE
 8
TOOL_0
 5
17
 10
6710.142
 20
2432.93
 30
0
 11
7841.642
 21
2432.93
 31
0
 0
LINE
 8
TOOL_0
 5
18
 10
7841.642
 20
2432.93
 30
0
 11
7841.642
 21
1561.43
 31
0
 0
LINE
 8
TOOL_0
 5
19
 10
7841.642
 20
1561.43
 30
0
 11
7841.642
 21
1556.43
 31
0
 0
LINE
 8
TOOL_0
 5
1A
 10
7841.642
 20
1556.43
 30
0
 11
8818.345
 21
1997.18
 31
0
 0
LINE
 8
TOOL_0
 5
1B
 10
8818.345
 20
1997.18
 30
0
 11
8848.345
 21
1997.18
 31
0
 0
LINE
 8
TOOL_0
 5
1C
 10
8848.345
 20
1997.18
 30
0
 11
8848.345
 21
2082.18
 31
0
 0
ARC
 8
TOOL_0
 5
1D
 10
8748.345
 20
2082.18
 30
0
 40
100.0
 50
0
 51
90.0
210
0
220
0
230
1.0
 0
LINE
 8
TOOL_0
 5
1E
 10
8748.345
 20
2182.18
 30
0
 11
8348.345
 21
2182.18
 31
0
 0
ARC
 8
TOOL_0
 5
1F
 10
8348.345
 20
2082.18
 30
0
 40
100.0
 50
90.0
 51
180.0
210
0
220
0
230
1.0
 0
LINE
 8
TOOL_0
 5
20
 10
8248.345
 20
2082.18
 30
0
 11
8248.345
 21
1912.18
 31
0
 0
ARC
 8
TOOL_0
 5
21
 10
8348.345
 20
1912.18
 30
0
 40
100.0
 50
180.0
 51
270.0
210
0
220
0
230
1.0
 0
LINE
 8
TOOL_0
 5
22
 10
8348.345
 20
1812.18
 30
0
 11
8748.345
 21
1812.18
 31
0
 0
ARC
 8
TOOL_0
 5
23
 10
8748.345
 20
1912.18
 30
0
 40
100.0
 50
270.0
 51
359.999427042205
210
0
220
0
230
1.0
 0
LINE
 8
TOOL_0
 5
24
 10
8848.345
 20
1912.179
 30
0
 11
8848.345
 21
1997.18
 31
0
 0
LINE
 8
TOOL_0
 5
25
 10
8848.345
 20
1997.18
 30
0
 11
8844.809
 21
2000.716
 31
0
 0
LINE
 8
TOOL_0
 5
26
 10
8844.809
 20
2000.716
 30
0
 11
9144.095
 21
1561.43
 31
0
 0
LINE
 8
TOOL_0
 5
27
 10
9144.095
 20
1561.43
 30
0
 11
9114.095
 21
1561.43
 31
0
 0
LINE
 8
TOOL_0
 5
28
 10
9114.095
 20
1561.43
 30
0
 11
7982.595
 21
1561.43
 31
0
 0
LINE
 8
TOOL_0
 5
29
 10
7982.595
 20
1561.43
 30
0
 11
7982.595
 21
2432.93
 31
0
 0
LINE
 8
TOOL_0
 5
2A
 10
7982.595
 20
2432.93
 30
0
 11
9114.095
 21
2432.93
 31
0
 0
LINE
 8
TOOL_0
 5
2B
 10
9114.095
 20
2432.93
 30
0
 11
9114.095
 21
1561.43
 31
0
 0
LINE
 8
TOOL_0
 5
2C
 10
9114.095
 20
1561.43
 30
0
 11
9114.095
 21
1556.43
 31
0
 0
LINE
 8
TOOL_0
 5
2D
 10
9114.095
 20
1556.43
 30
0
 11
10145.137
 21
1997.18
 31
0
 0
LINE
 8
TOOL_0
 5
2E
 10
10145.137
 20
1997.18
 30
0
 11
10175.137
 21
1997.18
 31
0
 0
LINE
 8
TOOL_0
 5
2F
 10
10175.137
 20
1997.18
 30
0
 11
10175.137
 21
2082.18
 31
0
 0
ARC
 8
TOOL_0
 5
30
 10
10075.137
 20
2082.18
 30
0
 40
100.0
 50
0
 51
90.0
210
0
220
0
230
1.0
 0
LINE
 8
TOOL_0
 5
31
 10
10075.137
 20
2182.18
 30
0
 11
9675.137
 21
2182.18
 31
0
 0
ARC
 8
TOOL_0
 5
32
 10
9675.137
 20
2082.18
 30
0
 40
100.0
 50
90.0
 51
180.0
210
0
220
0
230
1.0
 0
LINE
 8
TOOL_0
 5
33
 10
9575.137
 20
2082.18
 30
0
 11
9575.137
 21
1912.18
 31
0
 0
ARC
 8
TOOL_0
 5
34
 10
9675.137
 20
1912.18
 30
0
 40
100.0
 50
180.0
 51
270.0
210
0
220
0
230
1.0
 0
LINE
 8
TOOL_0
 5
35
 10
9675.137
 20
1812.18
 30
0
 11
10075.137
 21
1812.18
 31
0
 0
ARC
 8
TOOL_0
 5
36
 10
10075.137
 20
1912.18
 30
0
 40
100.0
 50
270.0
 51
359.999427042205
210
0
220
0
230
1.0
 0
LINE
 8
TOOL_0
 5
37
 10
10175.137
 20
1912.179
 30
0
 11
10175.137
 21
1997.18
 31
0
 0
LINE
 8
TOOL_0
 5
38
 10
10175.137
 20
1997.18
 30
0
 11
10171.601
 21
2000.716
 31
0
 0
LINE
 8
TOOL_0
 5
39
 10
10171.601
 20
2000.716
 30
0
 11
10470.886
 21
1561.43
 31
0
 0
LINE
 8
TOOL_0
 5
3A
 10
10470.886
 20
1561.43
 30
0
 11
10440.886
 21
1561.43
 31
0
 0
LINE
 8
TOOL_0
 5
3B
 10
10440.886
 20
1561.43
 30
0
 11
9309.386
 21
1561.43
 31
0
 0
LINE
 8
TOOL_0
 5
3C
 10
9309.386
 20
1561.43
 30
0
 11
9309.386
 21
2432.93
 31
0
 0
LINE
 8
TOOL_0
 5
3D
 10
9309.386
 20
2432.93
 30
0
 11
10440.886
 21
2432.93
 31
0
 0
LINE
 8
TOOL_0
 5
3E
 10
10440.886
 20
2432.93
 30
0
 11
10440.886
 21
1561.43
 31
0
 0
LINE
 8
TOOL_0
 5
3F
 10
10440.886
 20
1561.43
 30
0
 11
10440.886
 21
1556.43
 31
0
 0
LINE
 8
TOOL_0
 5
40
 10
10440.886
 20
1556.43
 30
0
 11
11968.534
 21
778.537
 31
0
 0
LINE
 8
TOOL_0
 5
41
 10
11968.534
 20
778.537
 30
0
 11
11964.998
 21
775.001
 31
0
 0
LINE
 8
TOOL_0
 5
42
 10
11964.998
 20
775.001
 30
0
 11
11964.998
 21
15.001
 31
0
 0
LINE
 8
TOOL_0
 5
43
 10
11964.998
 20
15.001
 30
0
 11
14.998
 21
15.001
 31
0
 0
LINE
 8
TOOL_0
 5
44
 10
14.998
 20
15.001
 30
0
 11
14.998
 21
775.001
 31
0
 0
LINE
 8
TOOL_0
 5
45
 10
14.998
 20
775.001
 30
0
 11
11964.998
 21
775.001
 31
0
 0
LINE
 8
TOOL_0
 5
46
 10
11964.998
 20
775.001
 30
0
 11
11968.534
 21
778.537
 31
0
 0
LINE
 8
TOOL_0
 5
47
 10
11968.534
 20
778.537
 30
0
 11
11964.998
 21
1578.422
 31
0
 0
LINE
 8
TOOL_0
 5
48
 10
11964.998
 20
1578.422
 30
0
 11
11964.998
 21
1548.422
 31
0
 0
LINE
 8
TOOL_0
 5
49
 10
11964.998
 20
1548.422
 30
0
 11
11964.998
 21
788.422
 31
0
 0
LINE
 8
TOOL_0
 5
4A
 10
11964.998
 20
788.422
 30
0
 11
14.998
 21
788.422
 31
0
 0
LINE
 8
TOOL_0
 5
4B
 10
14.998
 20
788.422
 30
0
 11
14.998
 21
1548.422
 31
0
 0
LINE
 8
TOOL_0
 5
4C
 10
14.998
 20
1548.422
 30
0
 11
11964.998
 21
1548.422
 31
0
 0
LINE
 8
TOOL_0
 5
4D
 10
11964.998
 20
1548.422
 30
0
 11
11969.998
 21
1548.422
 31
0
 0
LINE
 8
TOOL_0
 5
4E
 10
11969.998
 20
1548.422
 30
0
 11
11446.48
 21
1997.18
 31
0
 0
LINE
 8
TOOL_0
 5
4F
 10
11446.48
 20
1997.18
 30
0
 11
11476.48
 21
1997.18
 31
0
 0
LINE
 8
TOOL_0
 5
50
 10
11476.48
 20
1997.18
 30
0
 11
11476.48
 21
2082.18
 31
0
 0
ARC
 8
TOOL_0
 5
51
 10
11376.48
 20
2082.18
 30
0
 40
100.0
 50
0
 51
90.0
210
0
220
0
230
1.0
 0
LINE
 8
TOOL_0
 5
52
 10
11376.48
 20
2182.18
 30
0
 11
10976.48
 21
2182.18
 31
0
 0
ARC
 8
TOOL_0
 5
53
 10
10976.48
 20
2082.18
 30
0
 40
100.0
 50
90.0
 51
180.0
210
0
220
0
230
1.0
 0
LINE
 8
TOOL_0
 5
54
 10
10876.48
 20
2082.18
 30
0
 11
10876.48
 21
1912.18
 31
0
 0
ARC
 8
TOOL_0
 5
55
 10
10976.48
 20
1912.18
 30
0
 40
100.0
 50
180.0
 51
270.0
210
0
220
0
230
1.0
 0
LINE
 8
TOOL_0
 5
56
 10
10976.48
 20
1812.18
 30
0
 11
11376.48
 21
1812.18
 31
0
 0
ARC
 8
TOOL_0
 5
57
 10
11376.48
 20
1912.18
 30
0
 40
100.0
 50
270.0
 51
359.999427042205
210
0
220
0
230
1.0
 0
LINE
 8
TOOL_0
 5
58
 10
11476.48
 20
1912.179
 30
0
 11
11476.48
 21
1997.18
 31
0
 0
LINE
 8
TOOL_0
 5
59
 10
11476.48
 20
1997.18
 30
0
 11
11472.944
 21
2000.716
 31
0
 0
LINE
 8
TOOL_0
 5
5A
 10
11472.944
 20
2000.716
 30
0
 11
11772.23
 21
1561.43
 31
0
 0
LINE
 8
TOOL_0
 5
5B
 10
11772.23
 20
1561.43
 30
0
 11
11742.23
 21
1561.43
 31
0
 0
LINE
 8
TOOL_0
 5
5C
 10
11742.23
 20
1561.43
 30
0
 11
10610.73
 21
1561.43
 31
0
 0
LINE
 8
TOOL_0
 5
5D
 10
10610.73
 20
1561.43
 30
0
 11
10610.73
 21
2432.93
 31
0
 0
LINE
 8
TOOL_0
 5
5E
 10
10610.73
 20
2432.93
 30
0
 11
11742.23
 21
2432.93
 31
0
 0
LINE
 8
TOOL_0
 5
5F
 10
11742.23
 20
2432.93
 30
0
 11
11742.23
 21
1561.43
 31
0
 0
LINE
 8
TOOL_0
 5
60
 10
11742.23
 20
1561.43
 30
0
 11
11742.23
 21
1556.43
 31
0
 0
ENDSEC
 0
EOF

