0
SECTION
2
TABLES
0
TABLE
2
LAYER
70
0
0
LAYER
2
LAYER_NAME
70
0
62
1
6
CONTINUOUS
0
ENDTAB
0
ENDSEC
 0
SECTION
 2
ENTITIES
 0
LINE
 8
TOOL_0
 5
1
 10
149.5
 20
320.251
 30
0
 11
179.5
 21
320.251
 31
0
 0
ARC
 8
TOOL_0
 5
2
 10
135.0
 20
320.251
 30
0
 40
44.5
 50
0
 51
180.0
210
0
220
0
230
1.0
 0
ARC
 8
TOOL_0
 5
3
 10
135.0
 20
320.251
 30
0
 40
44.5
 50
180.0
 51
0
210
0
220
0
230
1.0
 0
LINE
 8
TOOL_0
 5
4
 10
179.5
 20
320.251
 30
0
 11
175.964
 21
323.787
 31
0
 0
LINE
 8
TOOL_0
 5
5
 10
175.964
 20
323.787
 30
0
 11
204.5
 21
227.751
 31
0
 0
LINE
 8
TOOL_0
 5
6
 10
204.5
 20
227.751
 30
0
 11
234.5
 21
227.751
 31
0
 0
ARC
 8
TOOL_0
 5
7
 10
214.5
 20
227.751
 30
0
 40
20.0
 50
0
 51
180.0
210
0
220
0
230
1.0
 0
ARC
 8
TOOL_0
 5
8
 10
214.5
 20
227.751
 30
0
 40
20.0
 50
180.0
 51
0
210
0
220
0
230
1.0
 0
LINE
 8
TOOL_0
 5
9
 10
234.5
 20
227.751
 30
0
 11
230.964
 21
231.287
 31
0
 0
LINE
 8
TOOL_0
 5
A
 10
230.964
 20
231.287
 30
0
 11
134.5
 21
227.751
 31
0
 0
LINE
 8
TOOL_0
 5
B
 10
134.5
 20
227.751
 30
0
 11
164.5
 21
227.751
 31
0
 0
ARC
 8
TOOL_0
 5
C
 10
144.5
 20
227.751
 30
0
 40
20.0
 50
0
 51
180.0
210
0
220
0
230
1.0
 0
ARC
 8
TOOL_0
 5
D
 10
144.5
 20
227.751
 30
0
 40
20.0
 50
180.0
 51
0
210
0
220
0
230
1.0
 0
LINE
 8
TOOL_0
 5
E
 10
164.5
 20
227.751
 30
0
 11
160.964
 21
231.287
 31
0
 0
LINE
 8
TOOL_0
 5
F
 10
160.964
 20
231.287
 30
0
 11
149.5
 21
135.251
 31
0
 0
LINE
 8
TOOL_0
 5
10
 10
149.5
 20
135.251
 30
0
 11
179.5
 21
135.251
 31
0
 0
ARC
 8
TOOL_0
 5
11
 10
135.0
 20
135.251
 30
0
 40
44.5
 50
0
 51
180.0
210
0
220
0
230
1.0
 0
ARC
 8
TOOL_0
 5
12
 10
135.0
 20
135.251
 30
0
 40
44.5
 50
180.0
 51
0
210
0
220
0
230
1.0
 0
LINE
 8
TOOL_0
 5
13
 10
179.5
 20
135.251
 30
0
 11
175.964
 21
138.787
 31
0
 0
LINE
 8
TOOL_0
 5
14
 10
175.964
 20
138.787
 30
0
 11
278.882
 21
19.001
 31
0
 0
LINE
 8
TOOL_0
 5
15
 10
278.882
 20
19.001
 30
0
 11
248.882
 21
19.001
 31
0
 0
LINE
 8
TOOL_0
 5
16
 10
248.882
 20
19.001
 30
0
 11
78.119
 21
19.001
 31
0
 0
LINE
 8
TOOL_0
 5
17
 10
78.119
 20
19.001
 30
0
 11
19.001
 21
78.119
 31
0
 0
LINE
 8
TOOL_0
 5
18
 10
19.001
 20
78.119
 30
0
 11
19.001
 21
377.382
 31
0
 0
LINE
 8
TOOL_0
 5
19
 10
19.001
 20
377.382
 30
0
 11
78.119
 21
436.5
 31
0
 0
LINE
 8
TOOL_0
 5
1A
 10
78.119
 20
436.5
 30
0
 11
248.882
 21
436.5
 31
0
 0
LINE
 8
TOOL_0
 5
1B
 10
248.882
 20
436.5
 30
0
 11
308.0
 21
377.382
 31
0
 0
LINE
 8
TOOL_0
 5
1C
 10
308.0
 20
377.382
 30
0
 11
308.0
 21
78.119
 31
0
 0
LINE
 8
TOOL_0
 5
1D
 10
308.0
 20
78.119
 30
0
 11
248.882
 21
19.001
 31
0
 0
LINE
 8
TOOL_0
 5
1E
 10
248.882
 20
19.001
 30
0
 11
245.346
 21
15.465
 31
0
 0
LINE
 8
TOOL_0
 5
1F
 10
245.346
 20
15.465
 30
0
 11
149.5
 21
755.972
 31
0
 0
LINE
 8
TOOL_0
 5
20
 10
149.5
 20
755.972
 30
0
 11
179.5
 21
755.972
 31
0
 0
ARC
 8
TOOL_0
 5
21
 10
135.0
 20
755.972
 30
0
 40
44.5
 50
0
 51
180.0
210
0
220
0
230
1.0
 0
ARC
 8
TOOL_0
 5
22
 10
135.0
 20
755.972
 30
0
 40
44.5
 50
180.0
 51
0
210
0
220
0
230
1.0
 0
LINE
 8
TOOL_0
 5
23
 10
179.5
 20
755.972
 30
0
 11
175.964
 21
759.508
 31
0
 0
LINE
 8
TOOL_0
 5
24
 10
175.964
 20
759.508
 30
0
 11
204.5
 21
663.473
 31
0
 0
LINE
 8
TOOL_0
 5
25
 10
204.5
 20
663.473
 30
0
 11
234.5
 21
663.473
 31
0
 0
ARC
 8
TOOL_0
 5
26
 10
214.5
 20
663.473
 30
0
 40
20.0
 50
0
 51
180.0
210
0
220
0
230
1.0
 0
ARC
 8
TOOL_0
 5
27
 10
214.5
 20
663.473
 30
0
 40
20.0
 50
180.0
 51
0
210
0
220
0
230
1.0
 0
LINE
 8
TOOL_0
 5
28
 10
234.5
 20
663.473
 30
0
 11
230.964
 21
667.009
 31
0
 0
LINE
 8
TOOL_0
 5
29
 10
230.964
 20
667.009
 30
0
 11
134.5
 21
663.474
 31
0
 0
LINE
 8
TOOL_0
 5
2A
 10
134.5
 20
663.474
 30
0
 11
164.5
 21
663.474
 31
0
 0
ARC
 8
TOOL_0
 5
2B
 10
144.5
 20
663.474
 30
0
 40
20.0
 50
0
 51
180.0
210
0
220
0
230
1.0
 0
ARC
 8
TOOL_0
 5
2C
 10
144.5
 20
663.474
 30
0
 40
20.0
 50
180.0
 51
0
210
0
220
0
230
1.0
 0
LINE
 8
TOOL_0
 5
2D
 10
164.5
 20
663.474
 30
0
 11
160.964
 21
667.01
 31
0
 0
LINE
 8
TOOL_0
 5
2E
 10
160.964
 20
667.01
 30
0
 11
149.5
 21
570.975
 31
0
 0
LINE
 8
TOOL_0
 5
2F
 10
149.5
 20
570.975
 30
0
 11
179.5
 21
570.975
 31
0
 0
ARC
 8
TOOL_0
 5
30
 10
135.0
 20
570.975
 30
0
 40
44.5
 50
0
 51
180.0
210
0
220
0
230
1.0
 0
ARC
 8
TOOL_0
 5
31
 10
135.0
 20
570.975
 30
0
 40
44.5
 50
180.0
 51
0
210
0
220
0
230
1.0
 0
LINE
 8
TOOL_0
 5
32
 10
179.5
 20
570.975
 30
0
 11
175.964
 21
574.511
 31
0
 0
LINE
 8
TOOL_0
 5
33
 10
175.964
 20
574.511
 30
0
 11
278.882
 21
454.726
 31
0
 0
LINE
 8
TOOL_0
 5
34
 10
278.882
 20
454.726
 30
0
 11
248.882
 21
454.726
 31
0
 0
LINE
 8
TOOL_0
 5
35
 10
248.882
 20
454.726
 30
0
 11
78.119
 21
454.726
 31
0
 0
LINE
 8
TOOL_0
 5
36
 10
78.119
 20
454.726
 30
0
 11
19.001
 21
513.844
 31
0
 0
LINE
 8
TOOL_0
 5
37
 10
19.001
 20
513.844
 30
0
 11
19.001
 21
813.107
 31
0
 0
LINE
 8
TOOL_0
 5
38
 10
19.001
 20
813.107
 30
0
 11
78.119
 21
872.225
 31
0
 0
LINE
 8
TOOL_0
 5
39
 10
78.119
 20
872.225
 30
0
 11
248.882
 21
872.225
 31
0
 0
LINE
 8
TOOL_0
 5
3A
 10
248.882
 20
872.225
 30
0
 11
308.0
 21
813.107
 31
0
 0
LINE
 8
TOOL_0
 5
3B
 10
308.0
 20
813.107
 30
0
 11
308.0
 21
513.844
 31
0
 0
LINE
 8
TOOL_0
 5
3C
 10
308.0
 20
513.844
 30
0
 11
248.882
 21
454.726
 31
0
 0
LINE
 8
TOOL_0
 5
3D
 10
248.882
 20
454.726
 30
0
 11
245.346
 21
451.19
 31
0
 0
LINE
 8
TOOL_0
 5
3E
 10
245.346
 20
451.19
 30
0
 11
456.597
 21
320.255
 31
0
 0
LINE
 8
TOOL_0
 5
3F
 10
456.597
 20
320.255
 30
0
 11
486.597
 21
320.255
 31
0
 0
ARC
 8
TOOL_0
 5
40
 10
442.097
 20
320.255
 30
0
 40
44.5
 50
0
 51
180.0
210
0
220
0
230
1.0
 0
ARC
 8
TOOL_0
 5
41
 10
442.097
 20
320.255
 30
0
 40
44.5
 50
180.0
 51
0
210
0
220
0
230
1.0
 0
LINE
 8
TOOL_0
 5
42
 10
486.597
 20
320.255
 30
0
 11
483.061
 21
323.791
 31
0
 0
LINE
 8
TOOL_0
 5
43
 10
483.061
 20
323.791
 30
0
 11
511.596
 21
227.755
 31
0
 0
LINE
 8
TOOL_0
 5
44
 10
511.596
 20
227.755
 30
0
 11
541.596
 21
227.755
 31
0
 0
ARC
 8
TOOL_0
 5
45
 10
521.596
 20
227.755
 30
0
 40
20.0
 50
0
 51
180.0
210
0
220
0
230
1.0
 0
ARC
 8
TOOL_0
 5
46
 10
521.596
 20
227.755
 30
0
 40
20.0
 50
180.0
 51
0
210
0
220
0
230
1.0
 0
LINE
 8
TOOL_0
 5
47
 10
541.596
 20
227.755
 30
0
 11
538.06
 21
231.291
 31
0
 0
LINE
 8
TOOL_0
 5
48
 10
538.06
 20
231.291
 30
0
 11
441.595
 21
227.755
 31
0
 0
LINE
 8
TOOL_0
 5
49
 10
441.595
 20
227.755
 30
0
 11
471.595
 21
227.755
 31
0
 0
ARC
 8
TOOL_0
 5
4A
 10
451.595
 20
227.755
 30
0
 40
20.0
 50
0
 51
180.0
210
0
220
0
230
1.0
 0
ARC
 8
TOOL_0
 5
4B
 10
451.595
 20
227.755
 30
0
 40
20.0
 50
180.0
 51
0
210
0
220
0
230
1.0
 0
LINE
 8
TOOL_0
 5
4C
 10
471.595
 20
227.755
 30
0
 11
468.059
 21
231.291
 31
0
 0
LINE
 8
TOOL_0
 5
4D
 10
468.059
 20
231.291
 30
0
 11
456.594
 21
135.255
 31
0
 0
LINE
 8
TOOL_0
 5
4E
 10
456.594
 20
135.255
 30
0
 11
486.594
 21
135.255
 31
0
 0
ARC
 8
TOOL_0
 5
4F
 10
442.094
 20
135.255
 30
0
 40
44.5
 50
0
 51
180.0
210
0
220
0
230
1.0
 0
ARC
 8
TOOL_0
 5
50
 10
442.094
 20
135.255
 30
0
 40
44.5
 50
180.0
 51
0
210
0
220
0
230
1.0
 0
LINE
 8
TOOL_0
 5
51
 10
486.594
 20
135.255
 30
0
 11
483.058
 21
138.791
 31
0
 0
LINE
 8
TOOL_0
 5
52
 10
483.058
 20
138.791
 30
0
 11
585.975
 21
19.005
 31
0
 0
LINE
 8
TOOL_0
 5
53
 10
585.975
 20
19.005
 30
0
 11
555.975
 21
19.005
 31
0
 0
LINE
 8
TOOL_0
 5
54
 10
555.975
 20
19.005
 30
0
 11
385.212
 21
19.005
 31
0
 0
LINE
 8
TOOL_0
 5
55
 10
385.212
 20
19.005
 30
0
 11
326.094
 21
78.123
 31
0
 0
LINE
 8
TOOL_0
 5
56
 10
326.094
 20
78.123
 30
0
 11
326.094
 21
377.386
 31
0
 0
LINE
 8
TOOL_0
 5
57
 10
326.094
 20
377.386
 30
0
 11
385.212
 21
436.504
 31
0
 0
LINE
 8
TOOL_0
 5
58
 10
385.212
 20
436.504
 30
0
 11
555.975
 21
436.504
 31
0
 0
LINE
 8
TOOL_0
 5
59
 10
555.975
 20
436.504
 30
0
 11
615.093
 21
377.386
 31
0
 0
LINE
 8
TOOL_0
 5
5A
 10
615.093
 20
377.386
 30
0
 11
615.093
 21
78.123
 31
0
 0
LINE
 8
TOOL_0
 5
5B
 10
615.093
 20
78.123
 30
0
 11
555.975
 21
19.005
 31
0
 0
LINE
 8
TOOL_0
 5
5C
 10
555.975
 20
19.005
 30
0
 11
552.439
 21
15.469
 31
0
 0
LINE
 8
TOOL_0
 5
5D
 10
552.439
 20
15.469
 30
0
 11
599.947
 21
454.644
 31
0
 0
LINE
 8
TOOL_0
 5
5E
 10
599.947
 20
454.644
 30
0
 11
569.949
 21
454.644
 31
0
 0
LINE
 8
TOOL_0
 5
5F
 10
569.949
 20
454.644
 30
0
 11
407.049
 21
454.644
 31
0
 0
ARC
 8
TOOL_0
 5
60
 10
407.049
 20
533.394
 30
0
 40
78.75
 50
232.395963729328
 51
270.0
210
0
220
0
230
1.0
 0
ARC
 8
TOOL_0
 5
61
 10
368.149
 20
482.889
 30
0
 40
15.000228831588
 50
180.0
 51
232.396707537456
210
0
220
0
230
1.0
 0
LINE
 8
TOOL_0
 5
62
 10
353.149
 20
482.889
 30
0
 11
353.149
 21
582.639
 31
0
 0
ARC
 8
TOOL_0
 5
63
 10
368.344
 20
583.757
 30
0
 40
15.236073936549
 50
130.722845426175
 51
184.208059502738
210
0
220
0
230
1.0
 0
ARC
 8
TOOL_0
 5
64
 10
407.052
 20
533.458
 30
0
 40
78.68643860285
 50
90.0
 51
128.188553810706
210
0
220
0
230
1.0
 0
LINE
 8
TOOL_0
 5
65
 10
407.052
 20
612.144
 30
0
 11
569.949
 21
612.144
 31
0
 0
ARC
 8
TOOL_0
 5
66
 10
569.949
 20
595.144
 30
0
 40
17.0
 50
0
 51
90.0
210
0
220
0
230
1.0
 0
LINE
 8
TOOL_0
 5
67
 10
586.949
 20
595.144
 30
0
 11
586.949
 21
471.644
 31
0
 0
ARC
 8
TOOL_0
 5
68
 10
569.949
 20
471.644
 30
0
 40
17.0
 50
270.0
 51
0
210
0
220
0
230
1.0
 0
LINE
 8
TOOL_0
 5
69
 10
569.949
 20
454.644
 30
0
 11
566.293
 21
451.054
 31
0
 0
LINE
 8
TOOL_0
 5
6A
 10
566.293
 20
451.054
 30
0
 11
598.537
 21
630.225
 31
0
 0
LINE
 8
TOOL_0
 5
6B
 10
598.537
 20
630.225
 30
0
 11
568.539
 21
630.225
 31
0
 0
LINE
 8
TOOL_0
 5
6C
 10
568.539
 20
630.225
 30
0
 11
405.639
 21
630.225
 31
0
 0
ARC
 8
TOOL_0
 5
6D
 10
405.639
 20
708.975
 30
0
 40
78.75
 50
232.395963729328
 51
270.0
210
0
220
0
230
1.0
 0
ARC
 8
TOOL_0
 5
6E
 10
366.739
 20
658.47
 30
0
 40
15.000228831588
 50
180.0
 51
232.396707537456
210
0
220
0
230
1.0
 0
LINE
 8
TOOL_0
 5
6F
 10
351.739
 20
658.47
 30
0
 11
351.739
 21
758.22
 31
0
 0
ARC
 8
TOOL_0
 5
70
 10
366.934
 20
759.338
 30
0
 40
15.236073936549
 50
130.722845426175
 51
184.208059502738
210
0
220
0
230
1.0
 0
ARC
 8
TOOL_0
 5
71
 10
405.642
 20
709.039
 30
0
 40
78.68643860285
 50
90.0
 51
128.188553810706
210
0
220
0
230
1.0
 0
LINE
 8
TOOL_0
 5
72
 10
405.642
 20
787.725
 30
0
 11
568.539
 21
787.725
 31
0
 0
ARC
 8
TOOL_0
 5
73
 10
568.539
 20
770.725
 30
0
 40
17.0
 50
0
 51
90.0
210
0
220
0
230
1.0
 0
LINE
 8
TOOL_0
 5
74
 10
585.539
 20
770.725
 30
0
 11
585.539
 21
647.225
 31
0
 0
ARC
 8
TOOL_0
 5
75
 10
568.539
 20
647.225
 30
0
 40
17.0
 50
270.0
 51
0
210
0
220
0
230
1.0
 0
LINE
 8
TOOL_0
 5
76
 10
568.539
 20
630.225
 30
0
 11
564.883
 21
626.635
 31
0
 0
LINE
 8
TOOL_0
 5
77
 10
564.883
 20
626.635
 30
0
 11
598.396
 21
805.806
 31
0
 0
LINE
 8
TOOL_0
 5
78
 10
598.396
 20
805.806
 30
0
 11
568.398
 21
805.806
 31
0
 0
LINE
 8
TOOL_0
 5
79
 10
568.398
 20
805.806
 30
0
 11
405.498
 21
805.806
 31
0
 0
ARC
 8
TOOL_0
 5
7A
 10
405.498
 20
884.556
 30
0
 40
78.75
 50
232.395963729328
 51
270.0
210
0
220
0
230
1.0
 0
ARC
 8
TOOL_0
 5
7B
 10
366.598
 20
834.051
 30
0
 40
15.000228831588
 50
180.0
 51
232.396707537456
210
0
220
0
230
1.0
 0
LINE
 8
TOOL_0
 5
7C
 10
351.598
 20
834.051
 30
0
 11
351.598
 21
933.801
 31
0
 0
ARC
 8
TOOL_0
 5
7D
 10
366.793
 20
934.919
 30
0
 40
15.236073936549
 50
130.722845426175
 51
184.208059502738
210
0
220
0
230
1.0
 0
ARC
 8
TOOL_0
 5
7E
 10
405.501
 20
884.62
 30
0
 40
78.68643860285
 50
90.0
 51
128.188553810706
210
0
220
0
230
1.0
 0
LINE
 8
TOOL_0
 5
7F
 10
405.501
 20
963.306
 30
0
 11
568.398
 21
963.306
 31
0
 0
ARC
 8
TOOL_0
 5
80
 10
568.398
 20
946.306
 30
0
 40
17.0
 50
0
 51
90.0
210
0
220
0
230
1.0
 0
LINE
 8
TOOL_0
 5
81
 10
585.398
 20
946.306
 30
0
 11
585.398
 21
822.806
 31
0
 0
ARC
 8
TOOL_0
 5
82
 10
568.398
 20
822.806
 30
0
 40
17.0
 50
270.0
 51
0
210
0
220
0
230
1.0
 0
LINE
 8
TOOL_0
 5
83
 10
568.398
 20
805.806
 30
0
 11
564.742
 21
802.216
 31
0
 0
LINE
 8
TOOL_0
 5
84
 10
564.742
 20
802.216
 30
0
 11
893.699
 21
19.005
 31
0
 0
LINE
 8
TOOL_0
 5
85
 10
893.699
 20
19.005
 30
0
 11
863.701
 21
19.005
 31
0
 0
LINE
 8
TOOL_0
 5
86
 10
863.701
 20
19.005
 30
0
 11
700.801
 21
19.005
 31
0
 0
ARC
 8
TOOL_0
 5
87
 10
700.801
 20
97.755
 30
0
 40
78.75
 50
232.395963729328
 51
270.0
210
0
220
0
230
1.0
 0
ARC
 8
TOOL_0
 5
88
 10
661.901
 20
47.25
 30
0
 40
15.000228831588
 50
180.0
 51
232.396707537456
210
0
220
0
230
1.0
 0
LINE
 8
TOOL_0
 5
89
 10
646.901
 20
47.25
 30
0
 11
646.901
 21
147.0
 31
0
 0
ARC
 8
TOOL_0
 5
8A
 10
662.096
 20
148.118
 30
0
 40
15.23607393655
 50
130.722845426175
 51
184.208059502737
210
0
220
0
230
1.0
 0
ARC
 8
TOOL_0
 5
8B
 10
700.804
 20
97.819
 30
0
 40
78.68643860285
 50
90.0
 51
128.188553810706
210
0
220
0
230
1.0
 0
LINE
 8
TOOL_0
 5
8C
 10
700.804
 20
176.505
 30
0
 11
863.701
 21
176.505
 31
0
 0
ARC
 8
TOOL_0
 5
8D
 10
863.701
 20
159.505
 30
0
 40
17.0
 50
0
 51
90.0
210
0
220
0
230
1.0
 0
LINE
 8
TOOL_0
 5
8E
 10
880.701
 20
159.505
 30
0
 11
880.701
 21
36.005
 31
0
 0
ARC
 8
TOOL_0
 5
8F
 10
863.701
 20
36.005
 30
0
 40
17.0
 50
270.0
 51
0
210
0
220
0
230
1.0
 0
LINE
 8
TOOL_0
 5
90
 10
863.701
 20
19.005
 30
0
 11
860.045
 21
15.415
 31
0
 0
LINE
 8
TOOL_0
 5
91
 10
860.045
 20
15.415
 30
0
 11
892.148
 21
194.597
 31
0
 0
LINE
 8
TOOL_0
 5
92
 10
892.148
 20
194.597
 30
0
 11
862.15
 21
194.597
 31
0
 0
LINE
 8
TOOL_0
 5
93
 10
862.15
 20
194.597
 30
0
 11
699.25
 21
194.597
 31
0
 0
ARC
 8
TOOL_0
 5
94
 10
699.25
 20
273.347
 30
0
 40
78.75
 50
232.395963729328
 51
270.0
210
0
220
0
230
1.0
 0
ARC
 8
TOOL_0
 5
95
 10
660.35
 20
222.842
 30
0
 40
15.000228831588
 50
180.0
 51
232.396707537456
210
0
220
0
230
1.0
 0
LINE
 8
TOOL_0
 5
96
 10
645.35
 20
222.842
 30
0
 11
645.35
 21
322.592
 31
0
 0
ARC
 8
TOOL_0
 5
97
 10
660.545
 20
323.71
 30
0
 40
15.23607393655
 50
130.722845426175
 51
184.208059502737
210
0
220
0
230
1.0
 0
ARC
 8
TOOL_0
 5
98
 10
699.253
 20
273.411
 30
0
 40
78.68643860285
 50
90.0
 51
128.188553810706
210
0
220
0
230
1.0
 0
LINE
 8
TOOL_0
 5
99
 10
699.253
 20
352.097
 30
0
 11
862.15
 21
352.097
 31
0
 0
ARC
 8
TOOL_0
 5
9A
 10
862.15
 20
335.097
 30
0
 40
17.0
 50
0
 51
90.0
210
0
220
0
230
1.0
 0
LINE
 8
TOOL_0
 5
9B
 10
879.15
 20
335.097
 30
0
 11
879.15
 21
211.597
 31
0
 0
ARC
 8
TOOL_0
 5
9C
 10
862.15
 20
211.597
 30
0
 40
17.0
 50
270.0
 51
0
210
0
220
0
230
1.0
 0
LINE
 8
TOOL_0
 5
9D
 10
862.15
 20
194.597
 30
0
 11
858.494
 21
191.007
 31
0
 0
LINE
 8
TOOL_0
 5
9E
 10
858.494
 20
191.007
 30
0
 11
911.172
 21
0.004
 31
0
 0
LINE
 8
TOOL_0
 5
9F
 10
911.172
 20
0.004
 30
0
 11
911.172
 21
1.004
 31
0
 0
LINE
 8
TOOL_0
 5
A0
 10
911.172
 20
1.004
 30
0
 11
911.172
 21
0.004
 31
0
 0
LINE
 8
TOOL_0
 5
A1
 10
911.172
 20
0.004
 30
0
 11
911.172
 21
1.004
 31
0
 0
LINE
 8
TOOL_0
 5
A2
 10
911.172
 20
1.004
 30
0
 11
911.172
 21
368.089
 31
0
 0
LINE
 8
TOOL_0
 5
A3
 10
911.172
 20
368.089
 30
0
 11
633.538
 21
368.089
 31
0
 0
LINE
 8
TOOL_0
 5
A4
 10
633.538
 20
368.089
 30
0
 11
633.538
 21
999.004
 31
0
 0
LINE
 8
TOOL_0
 5
A5
 10
633.538
 20
999.004
 30
0
 11
633.538
 21
1000.004
 31
0
 0
ENDSEC
 0
EOF

