0
SECTION
2
TABLES
0
TABLE
2
LAYER
70
0
0
LAYER
2
LAYER_NAME
70
0
62
1
6
CONTINUOUS
0
ENDTAB
0
ENDSEC
 0
SECTION
 2
ENTITIES
 0
LINE
 8
TOOL_0
 5
1
 10
678.15
 20
104.253
 30
0
 11
708.15
 21
104.253
 31
0
 0
LINE
 8
TOOL_0
 5
2
 10
708.15
 20
104.253
 30
0
 11
708.15
 21
138.151
 31
0
 0
ARC
 8
TOOL_0
 5
3
 10
688.15
 20
138.151
 30
0
 40
20.0
 50
0
 51
90.0
210
0
220
0
230
1.0
 0
LINE
 8
TOOL_0
 5
4
 10
688.15
 20
158.151
 30
0
 11
278.15
 21
158.151
 31
0
 0
ARC
 8
TOOL_0
 5
5
 10
278.15
 20
138.151
 30
0
 40
20.0
 50
90.0
 51
180.0
210
0
220
0
230
1.0
 0
LINE
 8
TOOL_0
 5
6
 10
258.15
 20
138.151
 30
0
 11
258.15
 21
78.151
 31
0
 0
ARC
 8
TOOL_0
 5
7
 10
278.15
 20
78.151
 30
0
 40
20.0
 50
180.0
 51
270.0
210
0
220
0
230
1.0
 0
LINE
 8
TOOL_0
 5
8
 10
278.15
 20
58.151
 30
0
 11
688.15
 21
58.151
 31
0
 0
ARC
 8
TOOL_0
 5
9
 10
688.15
 20
78.151
 30
0
 40
20.0
 50
270.0
 51
0
210
0
220
0
230
1.0
 0
LINE
 8
TOOL_0
 5
A
 10
708.15
 20
78.151
 30
0
 11
708.15
 21
104.253
 31
0
 0
LINE
 8
TOOL_0
 5
B
 10
708.15
 20
104.253
 30
0
 11
704.614
 21
107.789
 31
0
 0
LINE
 8
TOOL_0
 5
C
 10
704.614
 20
107.789
 30
0
 11
652.638
 21
340.02
 31
0
 0
LINE
 8
TOOL_0
 5
D
 10
652.638
 20
340.02
 30
0
 11
728.104
 21
360.724
 31
0
 0
LINE
 8
TOOL_0
 5
E
 10
728.104
 20
360.724
 30
0
 11
729.65
 21
358.151
 31
0
 0
LINE
 8
TOOL_0
 5
F
 10
729.65
 20
358.151
 30
0
 11
938.15
 21
358.151
 31
0
 0
ARC
 8
TOOL_0
 5
10
 10
938.15
 20
337.151
 30
0
 40
21.0
 50
0
 51
90.0
210
0
220
0
230
1.0
 0
LINE
 8
TOOL_0
 5
11
 10
959.15
 20
337.151
 30
0
 11
959.15
 21
28.151
 31
0
 0
ARC
 8
TOOL_0
 5
12
 10
938.15
 20
28.151
 30
0
 40
21.0
 50
270.0
 51
0
210
0
220
0
230
1.0
 0
LINE
 8
TOOL_0
 5
13
 10
938.15
 20
7.151
 30
0
 11
28.15
 21
7.151
 31
0
 0
ARC
 8
TOOL_0
 5
14
 10
28.15
 20
28.151
 30
0
 40
21.0
 50
180.0
 51
270.0
210
0
220
0
230
1.0
 0
LINE
 8
TOOL_0
 5
15
 10
7.15
 20
28.151
 30
0
 11
7.15
 21
337.151
 31
0
 0
ARC
 8
TOOL_0
 5
16
 10
28.15
 20
337.151
 30
0
 40
21.0
 50
90.0
 51
180.0
210
0
220
0
230
1.0
 0
LINE
 8
TOOL_0
 5
17
 10
28.15
 20
358.151
 30
0
 11
238.15
 21
358.151
 31
0
 0
ARC
 8
TOOL_0
 5
18
 10
238.15
 20
337.151
 30
0
 40
21.0
 50
0
 51
90.0
210
0
220
0
230
1.0
 0
LINE
 8
TOOL_0
 5
19
 10
259.15
 20
337.151
 30
0
 11
259.15
 21
228.151
 31
0
 0
ARC
 8
TOOL_0
 5
1A
 10
278.15
 20
228.151
 30
0
 40
19.0
 50
180.0
 51
270.0
210
0
220
0
230
1.0
 0
LINE
 8
TOOL_0
 5
1B
 10
278.15
 20
209.151
 30
0
 11
688.15
 21
209.151
 31
0
 0
ARC
 8
TOOL_0
 5
1C
 10
688.15
 20
228.151
 30
0
 40
19.0
 50
270.0
 51
0
210
0
220
0
230
1.0
 0
LINE
 8
TOOL_0
 5
1D
 10
707.15
 20
228.151
 30
0
 11
707.15
 21
337.151
 31
0
 0
ARC
 8
TOOL_0
 5
1E
 10
728.15
 20
337.151
 30
0
 40
21.0
 50
94.096113930244
 51
180.0
210
0
220
0
230
1.0
 0
LINE
 8
TOOL_0
 5
1F
 10
726.65
 20
358.097
 30
0
 11
728.103
 21
360.723
 31
0
 0
LINE
 8
TOOL_0
 5
20
 10
728.103
 20
360.723
 30
0
 11
732.532
 21
372.066
 31
0
 0
LINE
 8
TOOL_0
 5
21
 10
732.532
 20
372.066
 30
0
 11
51.458
 21
407.057
 31
0
 0
LINE
 8
TOOL_0
 5
22
 10
51.458
 20
407.057
 30
0
 11
17.055
 21
449.82
 31
0
 0
LINE
 8
TOOL_0
 5
23
 10
17.055
 20
449.82
 30
0
 11
15.654
 21
452.474
 31
0
 0
ARC
 8
TOOL_0
 5
24
 10
17.15
 20
462.361
 30
0
 40
9.999539239385
 50
179.994270422068
 51
261.395853855308
210
0
220
0
230
1.0
 0
LINE
 8
TOOL_0
 5
25
 10
7.15
 20
462.362
 30
0
 11
7.15
 21
563.962
 31
0
 0
ARC
 8
TOOL_0
 5
26
 10
17.15
 20
563.962
 30
0
 40
10.0
 50
90.0
 51
180.0
210
0
220
0
230
1.0
 0
LINE
 8
TOOL_0
 5
27
 10
17.15
 20
573.962
 30
0
 11
285.272
 21
573.962
 31
0
 0
ARC
 8
TOOL_0
 5
28
 10
285.142
 20
590.833
 30
0
 40
16.871500852029
 50
270.44148562173
 51
277.502857453474
210
0
220
0
230
1.0
 0
LINE
 8
TOOL_0
 5
29
 10
287.345
 20
574.106
 30
0
 11
748.011
 21
638.385
 31
0
 0
ARC
 8
TOOL_0
 5
2A
 10
759.322
 20
556.478
 30
0
 40
82.684311510709
 50
90.081074956809
 51
97.862568503218
210
0
220
0
230
1.0
 0
LINE
 8
TOOL_0
 5
2B
 10
759.205
 20
639.162
 30
0
 11
985.486
 21
639.162
 31
0
 0
ARC
 8
TOOL_0
 5
2C
 10
985.468
 20
579.13
 30
0
 40
60.032002698561
 50
30.48301420663
 51
89.982820429099
210
0
220
0
230
1.0
 0
LINE
 8
TOOL_0
 5
2D
 10
1037.202
 20
609.583
 30
0
 11
1061.66
 21
568.005
 31
0
 0
ARC
 8
TOOL_0
 5
2E
 10
1008.515
 20
536.786
 30
0
 40
61.636166217571
 50
0.034394567904
 51
30.431280241784
210
0
220
0
230
1.0
 0
LINE
 8
TOOL_0
 5
2F
 10
1070.151
 20
536.823
 30
0
 11
1070.151
 21
489.5
 31
0
 0
ARC
 8
TOOL_0
 5
30
 10
1008.515
 20
489.537
 30
0
 40
61.636011105522
 50
329.568719758216
 51
359.965605432096
210
0
220
0
230
1.0
 0
LINE
 8
TOOL_0
 5
31
 10
1061.66
 20
458.318
 30
0
 11
1037.203
 21
416.741
 31
0
 0
ARC
 8
TOOL_0
 5
32
 10
985.469
 20
447.194
 30
0
 40
60.031591391533
 50
270.016225150348
 51
329.516985793371
210
0
220
0
230
1.0
 0
LINE
 8
TOOL_0
 5
33
 10
985.486
 20
387.162
 30
0
 11
759.206
 21
387.162
 31
0
 0
ARC
 8
TOOL_0
 5
34
 10
759.323
 20
469.846
 30
0
 40
82.684082778973
 50
262.136745066073
 51
269.91892504319
210
0
220
0
230
1.0
 0
LINE
 8
TOOL_0
 5
35
 10
748.011
 20
387.939
 30
0
 11
287.346
 21
452.218
 31
0
 0
ARC
 8
TOOL_0
 5
36
 10
285.143
 20
435.491
 30
0
 40
16.871447418642
 50
82.497142546527
 51
89.55851437827
210
0
220
0
230
1.0
 0
LINE
 8
TOOL_0
 5
37
 10
285.273
 20
452.362
 30
0
 11
18.653
 21
452.362
 31
0
 0
LINE
 8
TOOL_0
 5
38
 10
18.653
 20
452.362
 30
0
 11
17.057
 21
449.82
 31
0
 0
LINE
 8
TOOL_0
 5
39
 10
17.057
 20
449.82
 30
0
 11
7.339
 21
448.04
 31
0
 0
LINE
 8
TOOL_0
 5
3A
 10
7.339
 20
448.04
 30
0
 11
0.002
 21
655.706
 31
0
 0
LINE
 8
TOOL_0
 5
3B
 10
0.002
 20
655.706
 30
0
 11
1.002
 21
655.706
 31
0
 0
LINE
 8
TOOL_0
 5
3C
 10
1.002
 20
655.706
 30
0
 11
0.002
 21
655.706
 31
0
 0
LINE
 8
TOOL_0
 5
3D
 10
0.002
 20
655.706
 30
0
 11
1.002
 21
655.706
 31
0
 0
LINE
 8
TOOL_0
 5
3E
 10
1.002
 20
655.706
 30
0
 11
1113.241
 21
655.706
 31
0
 0
LINE
 8
TOOL_0
 5
3F
 10
1113.241
 20
655.706
 30
0
 11
1113.241
 21
0.999
 31
0
 0
LINE
 8
TOOL_0
 5
40
 10
1113.241
 20
0.999
 30
0
 11
1113.241
 21
-0.001
 31
0
 0
ENDSEC
 0
EOF

