0
SECTION
2
TABLES
0
TABLE
2
LAYER
70
0
0
LAYER
2
LAYER_NAME
70
0
62
1
6
CONTINUOUS
0
ENDTAB
0
ENDSEC
 0
SECTION
 2
ENTITIES
 0
LINE
 8
TOOL_0
 5
1
 10
6795.153
 20
44.894
 30
0
 11
6795.153
 21
18.106
 31
0
 0
LINE
 8
TOOL_0
 5
2
 10
6795.153
 20
18.106
 30
0
 11
6787.5
 21
18.001
 31
0
 0
LINE
 8
TOOL_0
 5
3
 10
6787.5
 20
18.001
 30
0
 11
12.5
 21
18.001
 31
0
 0
LINE
 8
TOOL_0
 5
4
 10
12.5
 20
18.001
 30
0
 11
12.5
 21
464.001
 31
0
 0
LINE
 8
TOOL_0
 5
5
 10
12.5
 20
464.001
 30
0
 11
6787.5
 21
464.001
 31
0
 0
LINE
 8
TOOL_0
 5
6
 10
6787.5
 20
464.001
 30
0
 11
6787.5
 21
18.001
 31
0
 0
LINE
 8
TOOL_0
 5
7
 10
6787.5
 20
18.001
 30
0
 11
6787.5
 21
11.296
 31
0
 0
LINE
 8
TOOL_0
 5
8
 10
6787.5
 20
11.296
 30
0
 11
6795.153
 21
511.277
 31
0
 0
LINE
 8
TOOL_0
 5
9
 10
6795.153
 20
511.277
 30
0
 11
6795.153
 21
484.489
 31
0
 0
LINE
 8
TOOL_0
 5
A
 10
6795.153
 20
484.489
 30
0
 11
6787.5
 21
484.384
 31
0
 0
LINE
 8
TOOL_0
 5
B
 10
6787.5
 20
484.384
 30
0
 11
12.5
 21
484.384
 31
0
 0
LINE
 8
TOOL_0
 5
C
 10
12.5
 20
484.384
 30
0
 11
12.5
 21
930.384
 31
0
 0
LINE
 8
TOOL_0
 5
D
 10
12.5
 20
930.384
 30
0
 11
6787.5
 21
930.384
 31
0
 0
LINE
 8
TOOL_0
 5
E
 10
6787.5
 20
930.384
 30
0
 11
6787.5
 21
484.384
 31
0
 0
LINE
 8
TOOL_0
 5
F
 10
6787.5
 20
484.384
 30
0
 11
6787.5
 21
477.679
 31
0
 0
LINE
 8
TOOL_0
 5
10
 10
6787.5
 20
477.679
 30
0
 11
6795.153
 21
977.329
 31
0
 0
LINE
 8
TOOL_0
 5
11
 10
6795.153
 20
977.329
 30
0
 11
6795.153
 21
950.541
 31
0
 0
LINE
 8
TOOL_0
 5
12
 10
6795.153
 20
950.541
 30
0
 11
6787.5
 21
950.436
 31
0
 0
LINE
 8
TOOL_0
 5
13
 10
6787.5
 20
950.436
 30
0
 11
12.5
 21
950.436
 31
0
 0
LINE
 8
TOOL_0
 5
14
 10
12.5
 20
950.436
 30
0
 11
12.5
 21
1396.436
 31
0
 0
LINE
 8
TOOL_0
 5
15
 10
12.5
 20
1396.436
 30
0
 11
6787.5
 21
1396.436
 31
0
 0
LINE
 8
TOOL_0
 5
16
 10
6787.5
 20
1396.436
 30
0
 11
6787.5
 21
950.436
 31
0
 0
LINE
 8
TOOL_0
 5
17
 10
6787.5
 20
950.436
 30
0
 11
6787.5
 21
943.731
 31
0
 0
LINE
 8
TOOL_0
 5
18
 10
6787.5
 20
943.731
 30
0
 11
6795.153
 21
1443.381
 31
0
 0
LINE
 8
TOOL_0
 5
19
 10
6795.153
 20
1443.381
 30
0
 11
6795.153
 21
1416.593
 31
0
 0
LINE
 8
TOOL_0
 5
1A
 10
6795.153
 20
1416.593
 30
0
 11
6787.5
 21
1416.488
 31
0
 0
LINE
 8
TOOL_0
 5
1B
 10
6787.5
 20
1416.488
 30
0
 11
12.5
 21
1416.488
 31
0
 0
LINE
 8
TOOL_0
 5
1C
 10
12.5
 20
1416.488
 30
0
 11
12.5
 21
1862.488
 31
0
 0
LINE
 8
TOOL_0
 5
1D
 10
12.5
 20
1862.488
 30
0
 11
6787.5
 21
1862.488
 31
0
 0
LINE
 8
TOOL_0
 5
1E
 10
6787.5
 20
1862.488
 30
0
 11
6787.5
 21
1416.488
 31
0
 0
LINE
 8
TOOL_0
 5
1F
 10
6787.5
 20
1416.488
 30
0
 11
6787.5
 21
1409.783
 31
0
 0
LINE
 8
TOOL_0
 5
20
 10
6787.5
 20
1409.783
 30
0
 11
6795.153
 21
1909.765
 31
0
 0
LINE
 8
TOOL_0
 5
21
 10
6795.153
 20
1909.765
 30
0
 11
6795.153
 21
1882.977
 31
0
 0
LINE
 8
TOOL_0
 5
22
 10
6795.153
 20
1882.977
 30
0
 11
6787.5
 21
1882.872
 31
0
 0
LINE
 8
TOOL_0
 5
23
 10
6787.5
 20
1882.872
 30
0
 11
12.5
 21
1882.872
 31
0
 0
LINE
 8
TOOL_0
 5
24
 10
12.5
 20
1882.872
 30
0
 11
12.5
 21
2328.872
 31
0
 0
LINE
 8
TOOL_0
 5
25
 10
12.5
 20
2328.872
 30
0
 11
6787.5
 21
2328.872
 31
0
 0
LINE
 8
TOOL_0
 5
26
 10
6787.5
 20
2328.872
 30
0
 11
6787.5
 21
1882.872
 31
0
 0
LINE
 8
TOOL_0
 5
27
 10
6787.5
 20
1882.872
 30
0
 11
6787.5
 21
1876.167
 31
0
 0
ENDSEC
 0
EOF

