0
SECTION
2
TABLES
0
TABLE
2
LAYER
70
0
0
LAYER
2
LAYER_NAME
70
0
62
1
6
CONTINUOUS
0
ENDTAB
0
ENDSEC
 0
SECTION
 2
ENTITIES
 0
LINE
 8
TOOL_0
 5
1
 10
4835.341
 20
478.386
 30
0
 11
4835.341
 21
426.805
 31
0
 0
LINE
 8
TOOL_0
 5
2
 10
4835.341
 20
426.805
 30
0
 11
4832.762
 21
425.27
 31
0
 0
LINE
 8
TOOL_0
 5
3
 10
4832.762
 20
425.27
 30
0
 11
4832.762
 21
243.77
 31
0
 0
ARC
 8
TOOL_0
 5
4
 10
4805.262
 20
243.77
 30
0
 40
27.5
 50
270.0
 51
0
210
0
220
0
230
1.0
 0
LINE
 8
TOOL_0
 5
5
 10
4805.262
 20
216.27
 30
0
 11
4501.262
 21
216.27
 31
0
 0
ARC
 8
TOOL_0
 5
6
 10
4501.262
 20
243.77
 30
0
 40
27.5
 50
180.0
 51
270.0
210
0
220
0
230
1.0
 0
LINE
 8
TOOL_0
 5
7
 10
4473.762
 20
243.77
 30
0
 11
4473.762
 21
426.77
 31
0
 0
ARC
 8
TOOL_0
 5
8
 10
4501.262
 20
426.77
 30
0
 40
27.5
 50
90.0
 51
180.0
210
0
220
0
230
1.0
 0
LINE
 8
TOOL_0
 5
9
 10
4501.262
 20
454.27
 30
0
 11
4805.262
 21
454.27
 31
0
 0
ARC
 8
TOOL_0
 5
A
 10
4805.262
 20
426.77
 30
0
 40
27.5
 50
3.126782981757
 51
90.0
210
0
220
0
230
1.0
 0
LINE
 8
TOOL_0
 5
B
 10
4832.721
 20
428.27
 30
0
 11
4835.341
 21
426.806
 31
0
 0
LINE
 8
TOOL_0
 5
C
 10
4835.341
 20
426.806
 30
0
 11
4846.146
 21
423.278
 31
0
 0
LINE
 8
TOOL_0
 5
D
 10
4846.146
 20
423.278
 30
0
 11
4747.165
 21
718.481
 31
0
 0
LINE
 8
TOOL_0
 5
E
 10
4747.165
 20
718.481
 30
0
 11
4732.143
 21
683.038
 31
0
 0
LINE
 8
TOOL_0
 5
F
 10
4732.143
 20
683.038
 30
0
 11
4729.564
 21
681.503
 31
0
 0
LINE
 8
TOOL_0
 5
10
 10
4729.564
 20
681.503
 30
0
 11
4729.564
 21
500.003
 31
0
 0
ARC
 8
TOOL_0
 5
11
 10
4702.064
 20
500.003
 30
0
 40
27.5
 50
270.0
 51
0
210
0
220
0
230
1.0
 0
LINE
 8
TOOL_0
 5
12
 10
4702.064
 20
472.503
 30
0
 11
4398.064
 21
472.503
 31
0
 0
ARC
 8
TOOL_0
 5
13
 10
4398.064
 20
500.003
 30
0
 40
27.5
 50
180.0
 51
270.0
210
0
220
0
230
1.0
 0
LINE
 8
TOOL_0
 5
14
 10
4370.564
 20
500.003
 30
0
 11
4370.564
 21
683.003
 31
0
 0
ARC
 8
TOOL_0
 5
15
 10
4398.064
 20
683.003
 30
0
 40
27.5
 50
90.0
 51
180.0
210
0
220
0
230
1.0
 0
LINE
 8
TOOL_0
 5
16
 10
4398.064
 20
710.503
 30
0
 11
4702.064
 21
710.503
 31
0
 0
ARC
 8
TOOL_0
 5
17
 10
4702.064
 20
683.003
 30
0
 40
27.5
 50
3.126782981757
 51
90.0
210
0
220
0
230
1.0
 0
LINE
 8
TOOL_0
 5
18
 10
4729.523
 20
684.503
 30
0
 11
4732.143
 21
683.039
 31
0
 0
LINE
 8
TOOL_0
 5
19
 10
4732.143
 20
683.039
 30
0
 11
4738.374
 21
678.323
 31
0
 0
LINE
 8
TOOL_0
 5
1A
 10
4738.374
 20
678.323
 30
0
 11
4737.592
 21
985.816
 31
0
 0
LINE
 8
TOOL_0
 5
1B
 10
4737.592
 20
985.816
 30
0
 11
4737.592
 21
941.6
 31
0
 0
LINE
 8
TOOL_0
 5
1C
 10
4737.592
 20
941.6
 30
0
 11
4735.013
 21
940.065
 31
0
 0
LINE
 8
TOOL_0
 5
1D
 10
4735.013
 20
940.065
 30
0
 11
4735.013
 21
758.565
 31
0
 0
ARC
 8
TOOL_0
 5
1E
 10
4707.513
 20
758.565
 30
0
 40
27.5
 50
270.0
 51
0
210
0
220
0
230
1.0
 0
LINE
 8
TOOL_0
 5
1F
 10
4707.513
 20
731.065
 30
0
 11
4403.513
 21
731.065
 31
0
 0
ARC
 8
TOOL_0
 5
20
 10
4403.513
 20
758.565
 30
0
 40
27.5
 50
180.0
 51
270.0
210
0
220
0
230
1.0
 0
LINE
 8
TOOL_0
 5
21
 10
4376.013
 20
758.565
 30
0
 11
4376.013
 21
941.565
 31
0
 0
ARC
 8
TOOL_0
 5
22
 10
4403.513
 20
941.565
 30
0
 40
27.5
 50
90.0
 51
180.0
210
0
220
0
230
1.0
 0
LINE
 8
TOOL_0
 5
23
 10
4403.513
 20
969.065
 30
0
 11
4707.513
 21
969.065
 31
0
 0
ARC
 8
TOOL_0
 5
24
 10
4707.513
 20
941.565
 30
0
 40
27.5
 50
3.126782981757
 51
90.0
210
0
220
0
230
1.0
 0
LINE
 8
TOOL_0
 5
25
 10
4734.972
 20
943.065
 30
0
 11
4737.592
 21
941.601
 31
0
 0
LINE
 8
TOOL_0
 5
26
 10
4737.592
 20
941.601
 30
0
 11
4748.538
 21
936.628
 31
0
 0
LINE
 8
TOOL_0
 5
27
 10
4748.538
 20
936.628
 30
0
 11
5093.131
 21
413.349
 31
0
 0
LINE
 8
TOOL_0
 5
28
 10
5093.131
 20
413.349
 30
0
 11
5093.131
 21
356.745
 31
0
 0
LINE
 8
TOOL_0
 5
29
 10
5093.131
 20
356.745
 30
0
 11
5090.552
 21
355.21
 31
0
 0
LINE
 8
TOOL_0
 5
2A
 10
5090.552
 20
355.21
 30
0
 11
5090.552
 21
52.71
 31
0
 0
ARC
 8
TOOL_0
 5
2B
 10
5063.052
 20
52.71
 30
0
 40
27.5
 50
270.0
 51
0
210
0
220
0
230
1.0
 0
LINE
 8
TOOL_0
 5
2C
 10
5063.052
 20
25.21
 30
0
 11
4880.052
 21
25.21
 31
0
 0
ARC
 8
TOOL_0
 5
2D
 10
4880.052
 20
52.71
 30
0
 40
27.5
 50
180.0
 51
270.0
210
0
220
0
230
1.0
 0
LINE
 8
TOOL_0
 5
2E
 10
4852.552
 20
52.71
 30
0
 11
4852.552
 21
356.71
 31
0
 0
ARC
 8
TOOL_0
 5
2F
 10
4880.052
 20
356.71
 30
0
 40
27.5
 50
90.0
 51
180.0
210
0
220
0
230
1.0
 0
LINE
 8
TOOL_0
 5
30
 10
4880.052
 20
384.21
 30
0
 11
5063.052
 21
384.21
 31
0
 0
ARC
 8
TOOL_0
 5
31
 10
5063.052
 20
356.71
 30
0
 40
27.5
 50
3.126782981757
 51
90.0
210
0
220
0
230
1.0
 0
LINE
 8
TOOL_0
 5
32
 10
5090.511
 20
358.21
 30
0
 11
5093.131
 21
356.746
 31
0
 0
LINE
 8
TOOL_0
 5
33
 10
5093.131
 20
356.746
 30
0
 11
5107.727
 21
348.71
 31
0
 0
LINE
 8
TOOL_0
 5
34
 10
5107.727
 20
348.71
 30
0
 11
5125.801
 21
0.006
 31
0
 0
LINE
 8
TOOL_0
 5
35
 10
5125.801
 20
0.006
 30
0
 11
5125.801
 21
1.006
 31
0
 0
LINE
 8
TOOL_0
 5
36
 10
5125.801
 20
1.006
 30
0
 11
5125.801
 21
0.006
 31
0
 0
LINE
 8
TOOL_0
 5
37
 10
5125.801
 20
0.006
 30
0
 11
5125.801
 21
1.006
 31
0
 0
LINE
 8
TOOL_0
 5
38
 10
5125.801
 20
1.006
 30
0
 11
5125.801
 21
403.312
 31
0
 0
LINE
 8
TOOL_0
 5
39
 10
5125.801
 20
403.312
 30
0
 11
4865.546
 21
403.312
 31
0
 0
LINE
 8
TOOL_0
 5
3A
 10
4865.546
 20
403.312
 30
0
 11
4865.546
 21
483.547
 31
0
 0
LINE
 8
TOOL_0
 5
3B
 10
4865.546
 20
483.547
 30
0
 11
4760.722
 21
483.547
 31
0
 0
LINE
 8
TOOL_0
 5
3C
 10
4760.722
 20
483.547
 30
0
 11
4760.722
 21
989.234
 31
0
 0
LINE
 8
TOOL_0
 5
3D
 10
4760.722
 20
989.234
 30
0
 11
4324.763
 21
989.234
 31
0
 0
LINE
 8
TOOL_0
 5
3E
 10
4324.763
 20
989.234
 30
0
 11
4324.763
 21
973.091
 31
0
 0
LINE
 8
TOOL_0
 5
3F
 10
4324.763
 20
973.091
 30
0
 11
4324.763
 21
972.091
 31
0
 0
ENDSEC
 0
EOF

