0
SECTION
2
TABLES
0
TABLE
2
LAYER
70
0
0
LAYER
2
LAYER_NAME
70
0
62
1
6
CONTINUOUS
0
ENDTAB
0
ENDSEC
 0
SECTION
 2
ENTITIES
 0
LINE
 8
TOOL_0
 5
1
 10
458.868
 20
36.845
 30
0
 11
428.026
 21
38.789
 31
0
 0
LINE
 8
TOOL_0
 5
2
 10
428.026
 20
38.789
 30
0
 11
340.849
 21
38.789
 31
0
 0
ARC
 8
TOOL_0
 5
3
 10
340.849
 20
19.589
 30
0
 40
19.2
 50
90.0
 51
148.07970508667
210
0
220
0
230
1.0
 0
ARC
 8
TOOL_0
 5
4
 10
305.196
 20
41.813
 30
0
 40
22.812012624931
 50
239.849505978008
 51
328.048928599655
210
0
220
0
230
1.0
 0
ARC
 8
TOOL_0
 5
5
 10
258.95
 20
-37.733
 30
0
 40
69.199980809246
 50
59.820087804485
 51
90.0
210
0
220
0
230
1.0
 0
LINE
 8
TOOL_0
 5
6
 10
258.95
 20
31.467
 30
0
 11
231.45
 21
31.467
 31
0
 0
ARC
 8
TOOL_0
 5
7
 10
231.45
 20
-37.733
 30
0
 40
69.2
 50
90.0
 51
120.179912195515
210
0
220
0
230
1.0
 0
ARC
 8
TOOL_0
 5
8
 10
185.204
 20
41.813
 30
0
 40
22.812295807305
 50
211.951071400345
 51
300.150494021992
210
0
220
0
230
1.0
 0
ARC
 8
TOOL_0
 5
9
 10
149.551
 20
19.589
 30
0
 40
19.200398771901
 50
31.92029491333
 51
90.0
210
0
220
0
230
1.0
 0
LINE
 8
TOOL_0
 5
A
 10
149.551
 20
38.789
 30
0
 11
62.374
 21
38.789
 31
0
 0
ARC
 8
TOOL_0
 5
B
 10
62.39
 20
48.813
 30
0
 40
10.024012769345
 50
202.092237733081
 51
269.908546319466
210
0
220
0
230
1.0
 0
LINE
 8
TOOL_0
 5
C
 10
53.102
 20
45.043
 30
0
 11
31.859
 21
97.622
 31
0
 0
ARC
 8
TOOL_0
 5
D
 10
23.7
 20
94.325
 30
0
 40
8.79997102268
 50
22.003320384869
 51
75.523198505332
210
0
220
0
230
1.0
 0
ARC
 8
TOOL_0
 5
E
 10
28.2
 20
111.754
 30
0
 40
9.200133912069
 50
180.0
 51
255.52270314299
210
0
220
0
230
1.0
 0
LINE
 8
TOOL_0
 5
F
 10
19.0
 20
111.754
 30
0
 11
19.0
 21
191.389
 31
0
 0
ARC
 8
TOOL_0
 5
10
 10
29.0
 20
191.389
 30
0
 40
10.0
 50
90.0
 51
180.0
210
0
220
0
230
1.0
 0
LINE
 8
TOOL_0
 5
11
 10
29.0
 20
201.389
 30
0
 11
91.505
 21
201.389
 31
0
 0
ARC
 8
TOOL_0
 5
12
 10
91.505
 20
190.589
 30
0
 40
10.8
 50
48.460740534169
 51
90.0
210
0
220
0
230
1.0
 0
ARC
 8
TOOL_0
 5
13
 10
34.062
 20
129.566
 30
0
 40
94.602238208195
 50
43.466652314864
 51
46.928384843842
210
0
220
0
230
1.0
 0
LINE
 8
TOOL_0
 5
14
 10
102.722
 20
194.646
 30
0
 11
103.324
 21
194.068
 31
0
 0
ARC
 8
TOOL_0
 5
15
 10
110.551
 20
199.97
 30
0
 40
9.330762723379
 50
219.237129311716
 51
272.7397465832
210
0
220
0
230
1.0
 0
LINE
 8
TOOL_0
 5
16
 10
110.997
 20
190.65
 30
0
 11
148.294
 21
192.605
 31
0
 0
ARC
 8
TOOL_0
 5
17
 10
147.027
 20
216.772
 30
0
 40
24.200189627356
 50
273.001090424869
 51
320.000123438967
210
0
220
0
230
1.0
 0
LINE
 8
TOOL_0
 5
18
 10
165.566
 20
201.216
 30
0
 11
175.537
 21
213.099
 31
0
 0
ARC
 8
TOOL_0
 5
19
 10
229.795
 20
167.542
 30
0
 40
70.847518044036
 50
90.017791710546
 51
139.981952152145
210
0
220
0
230
1.0
 0
LINE
 8
TOOL_0
 5
1A
 10
229.773
 20
238.39
 30
0
 11
260.629
 21
238.39
 31
0
 0
ARC
 8
TOOL_0
 5
1B
 10
260.629
 20
167.59
 30
0
 40
70.8
 50
41.351276536947
 51
90.0
210
0
220
0
230
1.0
 0
ARC
 8
TOOL_0
 5
1C
 10
-238.18
 20
-261.085
 30
0
 40
728.498581501708
 50
39.389999123718
 51
40.741326157114
210
0
220
0
230
1.0
 0
ARC
 8
TOOL_0
 5
1D
 10
343.374
 20
216.772
 30
0
 40
24.199493155849
 50
219.999584725572
 51
267.001150046702
210
0
220
0
230
1.0
 0
LINE
 8
TOOL_0
 5
1E
 10
342.108
 20
192.606
 30
0
 11
379.405
 21
190.651
 31
0
 0
ARC
 8
TOOL_0
 5
1F
 10
379.886
 20
199.838
 30
0
 40
9.19958314273
 50
267.002924856545
 51
303.800613645745
210
0
220
0
230
1.0
 0
ARC
 8
TOOL_0
 5
20
 10
371.96
 20
209.129
 30
0
 40
21.376950951901
 50
307.603236713993
 51
317.477862862891
210
0
220
0
230
1.0
 0
LINE
 8
TOOL_0
 5
21
 10
387.715
 20
194.681
 30
0
 11
391.259
 21
198.227
 31
0
 0
ARC
 8
TOOL_0
 5
22
 10
398.921
 20
190.53
 30
0
 40
10.860481250847
 50
90.131896128692
 51
134.869434936404
210
0
220
0
230
1.0
 0
LINE
 8
TOOL_0
 5
23
 10
398.896
 20
201.39
 30
0
 11
461.401
 21
201.39
 31
0
 0
ARC
 8
TOOL_0
 5
24
 10
461.401
 20
191.39
 30
0
 40
10.0
 50
0
 51
90.0
210
0
220
0
230
1.0
 0
LINE
 8
TOOL_0
 5
25
 10
471.401
 20
191.39
 30
0
 11
471.401
 21
111.755
 31
0
 0
ARC
 8
TOOL_0
 5
26
 10
462.201
 20
111.755
 30
0
 40
9.2
 50
284.47729685701
 51
0
210
0
220
0
230
1.0
 0
ARC
 8
TOOL_0
 5
27
 10
466.701
 20
94.326
 30
0
 40
8.800422773935
 50
104.476801494668
 51
157.996679615131
210
0
220
0
230
1.0
 0
LINE
 8
TOOL_0
 5
28
 10
458.542
 20
97.623
 30
0
 11
437.299
 21
45.044
 31
0
 0
ARC
 8
TOOL_0
 5
29
 10
428.011
 20
48.814
 30
0
 40
10.023963487563
 50
270.091453680534
 51
337.907762266919
210
0
220
0
230
1.0
 0
LINE
 8
TOOL_0
 5
2A
 10
428.027
 20
38.79
 30
0
 11
424.495
 21
34.841
 31
0
 0
LINE
 8
TOOL_0
 5
2B
 10
424.495
 20
34.841
 30
0
 11
929.626
 21
36.846
 31
0
 0
LINE
 8
TOOL_0
 5
2C
 10
929.626
 20
36.846
 30
0
 11
898.784
 21
38.79
 31
0
 0
LINE
 8
TOOL_0
 5
2D
 10
898.784
 20
38.79
 30
0
 11
811.607
 21
38.79
 31
0
 0
ARC
 8
TOOL_0
 5
2E
 10
811.607
 20
19.59
 30
0
 40
19.2
 50
90.0
 51
148.07970508667
210
0
220
0
230
1.0
 0
ARC
 8
TOOL_0
 5
2F
 10
775.954
 20
41.814
 30
0
 40
22.812012624931
 50
239.849505978008
 51
328.048928599655
210
0
220
0
230
1.0
 0
ARC
 8
TOOL_0
 5
30
 10
729.708
 20
-37.732
 30
0
 40
69.199980809246
 50
59.820087804485
 51
90.0
210
0
220
0
230
1.0
 0
LINE
 8
TOOL_0
 5
31
 10
729.708
 20
31.468
 30
0
 11
702.208
 21
31.468
 31
0
 0
ARC
 8
TOOL_0
 5
32
 10
702.208
 20
-37.732
 30
0
 40
69.2
 50
90.0
 51
120.179912195515
210
0
220
0
230
1.0
 0
ARC
 8
TOOL_0
 5
33
 10
655.962
 20
41.814
 30
0
 40
22.812295807305
 50
211.951071400345
 51
300.150494021992
210
0
220
0
230
1.0
 0
ARC
 8
TOOL_0
 5
34
 10
620.309
 20
19.59
 30
0
 40
19.200398771901
 50
31.92029491333
 51
90.0
210
0
220
0
230
1.0
 0
LINE
 8
TOOL_0
 5
35
 10
620.309
 20
38.79
 30
0
 11
533.132
 21
38.79
 31
0
 0
ARC
 8
TOOL_0
 5
36
 10
533.148
 20
48.814
 30
0
 40
10.024012769345
 50
202.092237733081
 51
269.908546319466
210
0
220
0
230
1.0
 0
LINE
 8
TOOL_0
 5
37
 10
523.86
 20
45.044
 30
0
 11
502.617
 21
97.623
 31
0
 0
ARC
 8
TOOL_0
 5
38
 10
494.458
 20
94.326
 30
0
 40
8.79997102268
 50
22.003320384869
 51
75.523198505332
210
0
220
0
230
1.0
 0
ARC
 8
TOOL_0
 5
39
 10
498.958
 20
111.755
 30
0
 40
9.200133912069
 50
180.0
 51
255.52270314299
210
0
220
0
230
1.0
 0
LINE
 8
TOOL_0
 5
3A
 10
489.758
 20
111.755
 30
0
 11
489.758
 21
191.39
 31
0
 0
ARC
 8
TOOL_0
 5
3B
 10
499.758
 20
191.39
 30
0
 40
10.0
 50
90.0
 51
180.0
210
0
220
0
230
1.0
 0
LINE
 8
TOOL_0
 5
3C
 10
499.758
 20
201.39
 30
0
 11
562.263
 21
201.39
 31
0
 0
ARC
 8
TOOL_0
 5
3D
 10
562.263
 20
190.59
 30
0
 40
10.8
 50
48.460740534169
 51
90.0
210
0
220
0
230
1.0
 0
ARC
 8
TOOL_0
 5
3E
 10
504.82
 20
129.567
 30
0
 40
94.602238208195
 50
43.466652314864
 51
46.928384843842
210
0
220
0
230
1.0
 0
LINE
 8
TOOL_0
 5
3F
 10
573.48
 20
194.647
 30
0
 11
574.082
 21
194.069
 31
0
 0
ARC
 8
TOOL_0
 5
40
 10
581.309
 20
199.971
 30
0
 40
9.330762723379
 50
219.237129311716
 51
272.7397465832
210
0
220
0
230
1.0
 0
LINE
 8
TOOL_0
 5
41
 10
581.755
 20
190.651
 30
0
 11
619.052
 21
192.606
 31
0
 0
ARC
 8
TOOL_0
 5
42
 10
617.785
 20
216.773
 30
0
 40
24.200189627356
 50
273.001090424869
 51
320.000123438967
210
0
220
0
230
1.0
 0
LINE
 8
TOOL_0
 5
43
 10
636.324
 20
201.217
 30
0
 11
646.295
 21
213.1
 31
0
 0
ARC
 8
TOOL_0
 5
44
 10
700.553
 20
167.543
 30
0
 40
70.847518044036
 50
90.017791710546
 51
139.981952152145
210
0
220
0
230
1.0
 0
LINE
 8
TOOL_0
 5
45
 10
700.531
 20
238.391
 30
0
 11
731.387
 21
238.391
 31
0
 0
ARC
 8
TOOL_0
 5
46
 10
731.387
 20
167.591
 30
0
 40
70.8
 50
41.351276536947
 51
90.0
210
0
220
0
230
1.0
 0
ARC
 8
TOOL_0
 5
47
 10
232.578
 20
-261.084
 30
0
 40
728.498581501708
 50
39.389999123718
 51
40.741326157114
210
0
220
0
230
1.0
 0
ARC
 8
TOOL_0
 5
48
 10
814.132
 20
216.773
 30
0
 40
24.199493155849
 50
219.999584725572
 51
267.001150046702
210
0
220
0
230
1.0
 0
LINE
 8
TOOL_0
 5
49
 10
812.866
 20
192.607
 30
0
 11
850.163
 21
190.652
 31
0
 0
ARC
 8
TOOL_0
 5
4A
 10
850.644
 20
199.839
 30
0
 40
9.19958314273
 50
267.002924856545
 51
303.800613645745
210
0
220
0
230
1.0
 0
ARC
 8
TOOL_0
 5
4B
 10
842.718
 20
209.13
 30
0
 40
21.376950951901
 50
307.603236713993
 51
317.477862862891
210
0
220
0
230
1.0
 0
LINE
 8
TOOL_0
 5
4C
 10
858.473
 20
194.682
 30
0
 11
862.017
 21
198.228
 31
0
 0
ARC
 8
TOOL_0
 5
4D
 10
869.679
 20
190.531
 30
0
 40
10.860481250847
 50
90.131896128692
 51
134.869434936404
210
0
220
0
230
1.0
 0
LINE
 8
TOOL_0
 5
4E
 10
869.654
 20
201.391
 30
0
 11
932.159
 21
201.391
 31
0
 0
ARC
 8
TOOL_0
 5
4F
 10
932.159
 20
191.391
 30
0
 40
10.0
 50
0
 51
90.0
210
0
220
0
230
1.0
 0
LINE
 8
TOOL_0
 5
50
 10
942.159
 20
191.391
 30
0
 11
942.159
 21
111.756
 31
0
 0
ARC
 8
TOOL_0
 5
51
 10
932.959
 20
111.756
 30
0
 40
9.2
 50
284.47729685701
 51
0
210
0
220
0
230
1.0
 0
ARC
 8
TOOL_0
 5
52
 10
937.459
 20
94.327
 30
0
 40
8.800422773935
 50
104.476801494668
 51
157.996679615131
210
0
220
0
230
1.0
 0
LINE
 8
TOOL_0
 5
53
 10
929.3
 20
97.624
 30
0
 11
908.057
 21
45.045
 31
0
 0
ARC
 8
TOOL_0
 5
54
 10
898.769
 20
48.815
 30
0
 40
10.023963487563
 50
270.091453680534
 51
337.907762266919
210
0
220
0
230
1.0
 0
LINE
 8
TOOL_0
 5
55
 10
898.785
 20
38.791
 30
0
 11
895.253
 21
34.842
 31
0
 0
LINE
 8
TOOL_0
 5
56
 10
895.253
 20
34.842
 30
0
 11
1400.073
 21
36.847
 31
0
 0
LINE
 8
TOOL_0
 5
57
 10
1400.073
 20
36.847
 30
0
 11
1369.231
 21
38.791
 31
0
 0
LINE
 8
TOOL_0
 5
58
 10
1369.231
 20
38.791
 30
0
 11
1282.054
 21
38.791
 31
0
 0
ARC
 8
TOOL_0
 5
59
 10
1282.054
 20
19.591
 30
0
 40
19.2
 50
90.0
 51
148.07970508667
210
0
220
0
230
1.0
 0
ARC
 8
TOOL_0
 5
5A
 10
1246.401
 20
41.815
 30
0
 40
22.812012624931
 50
239.849505978008
 51
328.048928599655
210
0
220
0
230
1.0
 0
ARC
 8
TOOL_0
 5
5B
 10
1200.155
 20
-37.731
 30
0
 40
69.199980809246
 50
59.820087804485
 51
90.0
210
0
220
0
230
1.0
 0
LINE
 8
TOOL_0
 5
5C
 10
1200.155
 20
31.469
 30
0
 11
1172.655
 21
31.469
 31
0
 0
ARC
 8
TOOL_0
 5
5D
 10
1172.655
 20
-37.731
 30
0
 40
69.2
 50
90.0
 51
120.179912195515
210
0
220
0
230
1.0
 0
ARC
 8
TOOL_0
 5
5E
 10
1126.409
 20
41.815
 30
0
 40
22.812295807305
 50
211.951071400345
 51
300.150494021992
210
0
220
0
230
1.0
 0
ARC
 8
TOOL_0
 5
5F
 10
1090.756
 20
19.591
 30
0
 40
19.200398771901
 50
31.92029491333
 51
90.0
210
0
220
0
230
1.0
 0
LINE
 8
TOOL_0
 5
60
 10
1090.756
 20
38.791
 30
0
 11
1003.579
 21
38.791
 31
0
 0
ARC
 8
TOOL_0
 5
61
 10
1003.595
 20
48.815
 30
0
 40
10.024012769345
 50
202.092237733081
 51
269.908546319466
210
0
220
0
230
1.0
 0
LINE
 8
TOOL_0
 5
62
 10
994.307
 20
45.045
 30
0
 11
973.064
 21
97.624
 31
0
 0
ARC
 8
TOOL_0
 5
63
 10
964.905
 20
94.327
 30
0
 40
8.79997102268
 50
22.003320384869
 51
75.523198505332
210
0
220
0
230
1.0
 0
ARC
 8
TOOL_0
 5
64
 10
969.405
 20
111.756
 30
0
 40
9.200133912069
 50
180.0
 51
255.522703142991
210
0
220
0
230
1.0
 0
LINE
 8
TOOL_0
 5
65
 10
960.205
 20
111.756
 30
0
 11
960.205
 21
191.391
 31
0
 0
ARC
 8
TOOL_0
 5
66
 10
970.205
 20
191.391
 30
0
 40
10.0
 50
90.0
 51
180.0
210
0
220
0
230
1.0
 0
LINE
 8
TOOL_0
 5
67
 10
970.205
 20
201.391
 30
0
 11
1032.71
 21
201.391
 31
0
 0
ARC
 8
TOOL_0
 5
68
 10
1032.71
 20
190.591
 30
0
 40
10.8
 50
48.460740534169
 51
90.0
210
0
220
0
230
1.0
 0
ARC
 8
TOOL_0
 5
69
 10
975.267
 20
129.568
 30
0
 40
94.602238208195
 50
43.466652314864
 51
46.928384843842
210
0
220
0
230
1.0
 0
LINE
 8
TOOL_0
 5
6A
 10
1043.927
 20
194.648
 30
0
 11
1044.529
 21
194.07
 31
0
 0
ARC
 8
TOOL_0
 5
6B
 10
1051.756
 20
199.972
 30
0
 40
9.330762723379
 50
219.237129311716
 51
272.739746583199
210
0
220
0
230
1.0
 0
LINE
 8
TOOL_0
 5
6C
 10
1052.202
 20
190.652
 30
0
 11
1089.499
 21
192.607
 31
0
 0
ARC
 8
TOOL_0
 5
6D
 10
1088.232
 20
216.774
 30
0
 40
24.200189627356
 50
273.001090424869
 51
320.000123438967
210
0
220
0
230
1.0
 0
LINE
 8
TOOL_0
 5
6E
 10
1106.771
 20
201.218
 30
0
 11
1116.742
 21
213.101
 31
0
 0
ARC
 8
TOOL_0
 5
6F
 10
1171.0
 20
167.544
 30
0
 40
70.847518044036
 50
90.017791710546
 51
139.981952152145
210
0
220
0
230
1.0
 0
LINE
 8
TOOL_0
 5
70
 10
1170.978
 20
238.392
 30
0
 11
1201.834
 21
238.392
 31
0
 0
ARC
 8
TOOL_0
 5
71
 10
1201.834
 20
167.592
 30
0
 40
70.8
 50
41.351276536947
 51
90.0
210
0
220
0
230
1.0
 0
ARC
 8
TOOL_0
 5
72
 10
703.025
 20
-261.083
 30
0
 40
728.498581501708
 50
39.389999123718
 51
40.741326157114
210
0
220
0
230
1.0
 0
ARC
 8
TOOL_0
 5
73
 10
1284.579
 20
216.774
 30
0
 40
24.199493155849
 50
219.999584725572
 51
267.001150046702
210
0
220
0
230
1.0
 0
LINE
 8
TOOL_0
 5
74
 10
1283.313
 20
192.608
 30
0
 11
1320.61
 21
190.653
 31
0
 0
ARC
 8
TOOL_0
 5
75
 10
1321.091
 20
199.84
 30
0
 40
9.19958314273
 50
267.002924856545
 51
303.800613645744
210
0
220
0
230
1.0
 0
ARC
 8
TOOL_0
 5
76
 10
1313.165
 20
209.131
 30
0
 40
21.376950951902
 50
307.603236713993
 51
317.477862862891
210
0
220
0
230
1.0
 0
LINE
 8
TOOL_0
 5
77
 10
1328.92
 20
194.683
 30
0
 11
1332.464
 21
198.229
 31
0
 0
ARC
 8
TOOL_0
 5
78
 10
1340.126
 20
190.532
 30
0
 40
10.860481250847
 50
90.131896128692
 51
134.869434936404
210
0
220
0
230
1.0
 0
LINE
 8
TOOL_0
 5
79
 10
1340.101
 20
201.392
 30
0
 11
1402.606
 21
201.392
 31
0
 0
ARC
 8
TOOL_0
 5
7A
 10
1402.606
 20
191.392
 30
0
 40
10.0
 50
0
 51
90.0
210
0
220
0
230
1.0
 0
LINE
 8
TOOL_0
 5
7B
 10
1412.606
 20
191.392
 30
0
 11
1412.606
 21
111.757
 31
0
 0
ARC
 8
TOOL_0
 5
7C
 10
1403.406
 20
111.757
 30
0
 40
9.2
 50
284.477296857009
 51
0
210
0
220
0
230
1.0
 0
ARC
 8
TOOL_0
 5
7D
 10
1407.906
 20
94.328
 30
0
 40
8.800422773935
 50
104.476801494668
 51
157.996679615131
210
0
220
0
230
1.0
 0
LINE
 8
TOOL_0
 5
7E
 10
1399.747
 20
97.625
 30
0
 11
1378.504
 21
45.046
 31
0
 0
ARC
 8
TOOL_0
 5
7F
 10
1369.216
 20
48.816
 30
0
 40
10.023963487563
 50
270.091453680535
 51
337.907762266919
210
0
220
0
230
1.0
 0
LINE
 8
TOOL_0
 5
80
 10
1369.232
 20
38.792
 30
0
 11
1365.7
 21
34.843
 31
0
 0
LINE
 8
TOOL_0
 5
81
 10
1365.7
 20
34.843
 30
0
 11
1870.52
 21
36.848
 31
0
 0
LINE
 8
TOOL_0
 5
82
 10
1870.52
 20
36.848
 30
0
 11
1839.678
 21
38.792
 31
0
 0
LINE
 8
TOOL_0
 5
83
 10
1839.678
 20
38.792
 30
0
 11
1752.501
 21
38.792
 31
0
 0
ARC
 8
TOOL_0
 5
84
 10
1752.501
 20
19.592
 30
0
 40
19.2
 50
90.0
 51
148.07970508667
210
0
220
0
230
1.0
 0
ARC
 8
TOOL_0
 5
85
 10
1716.848
 20
41.816
 30
0
 40
22.812012624931
 50
239.849505978008
 51
328.048928599655
210
0
220
0
230
1.0
 0
ARC
 8
TOOL_0
 5
86
 10
1670.602
 20
-37.73
 30
0
 40
69.199980809246
 50
59.820087804485
 51
90.0
210
0
220
0
230
1.0
 0
LINE
 8
TOOL_0
 5
87
 10
1670.602
 20
31.47
 30
0
 11
1643.102
 21
31.47
 31
0
 0
ARC
 8
TOOL_0
 5
88
 10
1643.102
 20
-37.73
 30
0
 40
69.2
 50
90.0
 51
120.179912195515
210
0
220
0
230
1.0
 0
ARC
 8
TOOL_0
 5
89
 10
1596.856
 20
41.816
 30
0
 40
22.812295807305
 50
211.951071400345
 51
300.150494021992
210
0
220
0
230
1.0
 0
ARC
 8
TOOL_0
 5
8A
 10
1561.203
 20
19.592
 30
0
 40
19.200398771901
 50
31.92029491333
 51
90.0
210
0
220
0
230
1.0
 0
LINE
 8
TOOL_0
 5
8B
 10
1561.203
 20
38.792
 30
0
 11
1474.026
 21
38.792
 31
0
 0
ARC
 8
TOOL_0
 5
8C
 10
1474.042
 20
48.816
 30
0
 40
10.024012769345
 50
202.092237733081
 51
269.908546319465
210
0
220
0
230
1.0
 0
LINE
 8
TOOL_0
 5
8D
 10
1464.754
 20
45.046
 30
0
 11
1443.511
 21
97.625
 31
0
 0
ARC
 8
TOOL_0
 5
8E
 10
1435.352
 20
94.328
 30
0
 40
8.79997102268
 50
22.003320384868
 51
75.523198505332
210
0
220
0
230
1.0
 0
ARC
 8
TOOL_0
 5
8F
 10
1439.852
 20
111.757
 30
0
 40
9.200133912069
 50
180.0
 51
255.522703142991
210
0
220
0
230
1.0
 0
LINE
 8
TOOL_0
 5
90
 10
1430.652
 20
111.757
 30
0
 11
1430.652
 21
191.392
 31
0
 0
ARC
 8
TOOL_0
 5
91
 10
1440.652
 20
191.392
 30
0
 40
10.0
 50
90.0
 51
180.0
210
0
220
0
230
1.0
 0
LINE
 8
TOOL_0
 5
92
 10
1440.652
 20
201.392
 30
0
 11
1503.157
 21
201.392
 31
0
 0
ARC
 8
TOOL_0
 5
93
 10
1503.157
 20
190.592
 30
0
 40
10.8
 50
48.460740534169
 51
90.0
210
0
220
0
230
1.0
 0
ARC
 8
TOOL_0
 5
94
 10
1445.714
 20
129.569
 30
0
 40
94.602238208195
 50
43.466652314864
 51
46.928384843842
210
0
220
0
230
1.0
 0
LINE
 8
TOOL_0
 5
95
 10
1514.374
 20
194.649
 30
0
 11
1514.976
 21
194.071
 31
0
 0
ARC
 8
TOOL_0
 5
96
 10
1522.203
 20
199.973
 30
0
 40
9.330762723379
 50
219.237129311716
 51
272.739746583199
210
0
220
0
230
1.0
 0
LINE
 8
TOOL_0
 5
97
 10
1522.649
 20
190.653
 30
0
 11
1559.946
 21
192.608
 31
0
 0
ARC
 8
TOOL_0
 5
98
 10
1558.679
 20
216.775
 30
0
 40
24.200189627356
 50
273.001090424869
 51
320.000123438967
210
0
220
0
230
1.0
 0
LINE
 8
TOOL_0
 5
99
 10
1577.218
 20
201.219
 30
0
 11
1587.189
 21
213.102
 31
0
 0
ARC
 8
TOOL_0
 5
9A
 10
1641.447
 20
167.545
 30
0
 40
70.847518044036
 50
90.017791710546
 51
139.981952152145
210
0
220
0
230
1.0
 0
LINE
 8
TOOL_0
 5
9B
 10
1641.425
 20
238.393
 30
0
 11
1672.281
 21
238.393
 31
0
 0
ARC
 8
TOOL_0
 5
9C
 10
1672.281
 20
167.593
 30
0
 40
70.8
 50
41.351276536947
 51
90.0
210
0
220
0
230
1.0
 0
ARC
 8
TOOL_0
 5
9D
 10
1173.472
 20
-261.082
 30
0
 40
728.498581501708
 50
39.389999123718
 51
40.741326157114
210
0
220
0
230
1.0
 0
ARC
 8
TOOL_0
 5
9E
 10
1755.026
 20
216.775
 30
0
 40
24.199493155849
 50
219.999584725572
 51
267.001150046702
210
0
220
0
230
1.0
 0
LINE
 8
TOOL_0
 5
9F
 10
1753.76
 20
192.609
 30
0
 11
1791.057
 21
190.654
 31
0
 0
ARC
 8
TOOL_0
 5
A0
 10
1791.538
 20
199.841
 30
0
 40
9.19958314273
 50
267.002924856545
 51
303.800613645744
210
0
220
0
230
1.0
 0
ARC
 8
TOOL_0
 5
A1
 10
1783.612
 20
209.132
 30
0
 40
21.376950951902
 50
307.603236713993
 51
317.477862862891
210
0
220
0
230
1.0
 0
LINE
 8
TOOL_0
 5
A2
 10
1799.367
 20
194.684
 30
0
 11
1802.911
 21
198.23
 31
0
 0
ARC
 8
TOOL_0
 5
A3
 10
1810.573
 20
190.533
 30
0
 40
10.860481250847
 50
90.131896128692
 51
134.869434936404
210
0
220
0
230
1.0
 0
LINE
 8
TOOL_0
 5
A4
 10
1810.548
 20
201.393
 30
0
 11
1873.053
 21
201.393
 31
0
 0
ARC
 8
TOOL_0
 5
A5
 10
1873.053
 20
191.393
 30
0
 40
10.0
 50
0
 51
90.0
210
0
220
0
230
1.0
 0
LINE
 8
TOOL_0
 5
A6
 10
1883.053
 20
191.393
 30
0
 11
1883.053
 21
111.758
 31
0
 0
ARC
 8
TOOL_0
 5
A7
 10
1873.853
 20
111.758
 30
0
 40
9.2
 50
284.477296857009
 51
0
210
0
220
0
230
1.0
 0
ARC
 8
TOOL_0
 5
A8
 10
1878.353
 20
94.329
 30
0
 40
8.800422773935
 50
104.476801494668
 51
157.996679615131
210
0
220
0
230
1.0
 0
LINE
 8
TOOL_0
 5
A9
 10
1870.194
 20
97.626
 30
0
 11
1848.951
 21
45.047
 31
0
 0
ARC
 8
TOOL_0
 5
AA
 10
1839.663
 20
48.817
 30
0
 40
10.023963487563
 50
270.091453680535
 51
337.907762266919
210
0
220
0
230
1.0
 0
LINE
 8
TOOL_0
 5
AB
 10
1839.679
 20
38.793
 30
0
 11
1836.147
 21
34.844
 31
0
 0
LINE
 8
TOOL_0
 5
AC
 10
1836.147
 20
34.844
 30
0
 11
458.869
 21
955.176
 31
0
 0
LINE
 8
TOOL_0
 5
AD
 10
458.869
 20
955.176
 30
0
 11
428.027
 21
957.12
 31
0
 0
LINE
 8
TOOL_0
 5
AE
 10
428.027
 20
957.12
 30
0
 11
340.85
 21
957.12
 31
0
 0
ARC
 8
TOOL_0
 5
AF
 10
340.85
 20
937.92
 30
0
 40
19.2
 50
90.0
 51
148.07970508667
210
0
220
0
230
1.0
 0
ARC
 8
TOOL_0
 5
B0
 10
305.197
 20
960.144
 30
0
 40
22.812012624931
 50
239.849505978008
 51
328.048928599655
210
0
220
0
230
1.0
 0
ARC
 8
TOOL_0
 5
B1
 10
258.951
 20
880.598
 30
0
 40
69.199980809246
 50
59.820087804485
 51
90.0
210
0
220
0
230
1.0
 0
LINE
 8
TOOL_0
 5
B2
 10
258.951
 20
949.798
 30
0
 11
231.451
 21
949.798
 31
0
 0
ARC
 8
TOOL_0
 5
B3
 10
231.451
 20
880.598
 30
0
 40
69.2
 50
90.0
 51
120.179912195515
210
0
220
0
230
1.0
 0
ARC
 8
TOOL_0
 5
B4
 10
185.205
 20
960.144
 30
0
 40
22.812295807305
 50
211.951071400345
 51
300.150494021992
210
0
220
0
230
1.0
 0
ARC
 8
TOOL_0
 5
B5
 10
149.552
 20
937.92
 30
0
 40
19.200398771901
 50
31.92029491333
 51
90.0
210
0
220
0
230
1.0
 0
LINE
 8
TOOL_0
 5
B6
 10
149.552
 20
957.12
 30
0
 11
62.375
 21
957.12
 31
0
 0
ARC
 8
TOOL_0
 5
B7
 10
62.391
 20
967.144
 30
0
 40
10.024012769345
 50
202.09223773308
 51
269.908546319466
210
0
220
0
230
1.0
 0
LINE
 8
TOOL_0
 5
B8
 10
53.103
 20
963.374
 30
0
 11
31.86
 21
1015.953
 31
0
 0
ARC
 8
TOOL_0
 5
B9
 10
23.701
 20
1012.656
 30
0
 40
8.79997102268
 50
22.003320384869
 51
75.523198505332
210
0
220
0
230
1.0
 0
ARC
 8
TOOL_0
 5
BA
 10
28.201
 20
1030.085
 30
0
 40
9.200133912069
 50
180.0
 51
255.52270314299
210
0
220
0
230
1.0
 0
LINE
 8
TOOL_0
 5
BB
 10
19.001
 20
1030.085
 30
0
 11
19.001
 21
1109.72
 31
0
 0
ARC
 8
TOOL_0
 5
BC
 10
29.001
 20
1109.72
 30
0
 40
10.0
 50
90.0
 51
180.0
210
0
220
0
230
1.0
 0
LINE
 8
TOOL_0
 5
BD
 10
29.001
 20
1119.72
 30
0
 11
91.506
 21
1119.72
 31
0
 0
ARC
 8
TOOL_0
 5
BE
 10
91.506
 20
1108.92
 30
0
 40
10.8
 50
48.460740534169
 51
90.0
210
0
220
0
230
1.0
 0
ARC
 8
TOOL_0
 5
BF
 10
34.063
 20
1047.897
 30
0
 40
94.602238208195
 50
43.466652314864
 51
46.928384843842
210
0
220
0
230
1.0
 0
LINE
 8
TOOL_0
 5
C0
 10
102.723
 20
1112.977
 30
0
 11
103.325
 21
1112.399
 31
0
 0
ARC
 8
TOOL_0
 5
C1
 10
110.552
 20
1118.301
 30
0
 40
9.330762723379
 50
219.237129311716
 51
272.7397465832
210
0
220
0
230
1.0
 0
LINE
 8
TOOL_0
 5
C2
 10
110.998
 20
1108.981
 30
0
 11
148.295
 21
1110.936
 31
0
 0
ARC
 8
TOOL_0
 5
C3
 10
147.028
 20
1135.103
 30
0
 40
24.200189627356
 50
273.001090424869
 51
320.000123438967
210
0
220
0
230
1.0
 0
LINE
 8
TOOL_0
 5
C4
 10
165.567
 20
1119.547
 30
0
 11
175.538
 21
1131.43
 31
0
 0
ARC
 8
TOOL_0
 5
C5
 10
229.796
 20
1085.873
 30
0
 40
70.847518044036
 50
90.017791710546
 51
139.981952152145
210
0
220
0
230
1.0
 0
LINE
 8
TOOL_0
 5
C6
 10
229.774
 20
1156.721
 30
0
 11
260.63
 21
1156.721
 31
0
 0
ARC
 8
TOOL_0
 5
C7
 10
260.63
 20
1085.921
 30
0
 40
70.8
 50
41.351276536947
 51
90.0
210
0
220
0
230
1.0
 0
ARC
 8
TOOL_0
 5
C8
 10
-238.179
 20
657.246
 30
0
 40
728.498581501708
 50
39.389999123718
 51
40.741326157114
210
0
220
0
230
1.0
 0
ARC
 8
TOOL_0
 5
C9
 10
343.375
 20
1135.103
 30
0
 40
24.199493155849
 50
219.999584725572
 51
267.001150046702
210
0
220
0
230
1.0
 0
LINE
 8
TOOL_0
 5
CA
 10
342.109
 20
1110.937
 30
0
 11
379.406
 21
1108.982
 31
0
 0
ARC
 8
TOOL_0
 5
CB
 10
379.887
 20
1118.169
 30
0
 40
9.19958314273
 50
267.002924856545
 51
303.800613645745
210
0
220
0
230
1.0
 0
ARC
 8
TOOL_0
 5
CC
 10
371.961
 20
1127.46
 30
0
 40
21.376950951901
 50
307.603236713993
 51
317.477862862891
210
0
220
0
230
1.0
 0
LINE
 8
TOOL_0
 5
CD
 10
387.716
 20
1113.012
 30
0
 11
391.26
 21
1116.558
 31
0
 0
ARC
 8
TOOL_0
 5
CE
 10
398.922
 20
1108.861
 30
0
 40
10.860481250847
 50
90.131896128692
 51
134.869434936404
210
0
220
0
230
1.0
 0
LINE
 8
TOOL_0
 5
CF
 10
398.897
 20
1119.721
 30
0
 11
461.402
 21
1119.721
 31
0
 0
ARC
 8
TOOL_0
 5
D0
 10
461.402
 20
1109.721
 30
0
 40
10.0
 50
0
 51
90.0
210
0
220
0
230
1.0
 0
LINE
 8
TOOL_0
 5
D1
 10
471.402
 20
1109.721
 30
0
 11
471.402
 21
1030.086
 31
0
 0
ARC
 8
TOOL_0
 5
D2
 10
462.202
 20
1030.086
 30
0
 40
9.2
 50
284.47729685701
 51
0
210
0
220
0
230
1.0
 0
ARC
 8
TOOL_0
 5
D3
 10
466.702
 20
1012.657
 30
0
 40
8.800422773935
 50
104.476801494668
 51
157.996679615132
210
0
220
0
230
1.0
 0
LINE
 8
TOOL_0
 5
D4
 10
458.543
 20
1015.954
 30
0
 11
437.3
 21
963.375
 31
0
 0
ARC
 8
TOOL_0
 5
D5
 10
428.012
 20
967.145
 30
0
 40
10.023963487563
 50
270.091453680534
 51
337.907762266919
210
0
220
0
230
1.0
 0
LINE
 8
TOOL_0
 5
D6
 10
428.028
 20
957.121
 30
0
 11
424.496
 21
953.172
 31
0
 0
LINE
 8
TOOL_0
 5
D7
 10
424.496
 20
953.172
 30
0
 11
929.627
 21
955.177
 31
0
 0
LINE
 8
TOOL_0
 5
D8
 10
929.627
 20
955.177
 30
0
 11
898.786
 21
957.121
 31
0
 0
LINE
 8
TOOL_0
 5
D9
 10
898.786
 20
957.121
 30
0
 11
811.609
 21
957.121
 31
0
 0
ARC
 8
TOOL_0
 5
DA
 10
811.609
 20
937.921
 30
0
 40
19.2
 50
90.0
 51
148.07970508667
210
0
220
0
230
1.0
 0
ARC
 8
TOOL_0
 5
DB
 10
775.956
 20
960.145
 30
0
 40
22.812012624931
 50
239.849505978008
 51
328.048928599655
210
0
220
0
230
1.0
 0
ARC
 8
TOOL_0
 5
DC
 10
729.71
 20
880.599
 30
0
 40
69.199980809246
 50
59.820087804485
 51
90.0
210
0
220
0
230
1.0
 0
LINE
 8
TOOL_0
 5
DD
 10
729.71
 20
949.799
 30
0
 11
702.21
 21
949.799
 31
0
 0
ARC
 8
TOOL_0
 5
DE
 10
702.21
 20
880.599
 30
0
 40
69.2
 50
90.0
 51
120.179912195515
210
0
220
0
230
1.0
 0
ARC
 8
TOOL_0
 5
DF
 10
655.964
 20
960.145
 30
0
 40
22.812295807305
 50
211.951071400345
 51
300.150494021992
210
0
220
0
230
1.0
 0
ARC
 8
TOOL_0
 5
E0
 10
620.311
 20
937.921
 30
0
 40
19.200398771901
 50
31.92029491333
 51
90.0
210
0
220
0
230
1.0
 0
LINE
 8
TOOL_0
 5
E1
 10
620.311
 20
957.121
 30
0
 11
533.134
 21
957.121
 31
0
 0
ARC
 8
TOOL_0
 5
E2
 10
533.15
 20
967.145
 30
0
 40
10.024012769345
 50
202.09223773308
 51
269.908546319466
210
0
220
0
230
1.0
 0
LINE
 8
TOOL_0
 5
E3
 10
523.862
 20
963.375
 30
0
 11
502.619
 21
1015.954
 31
0
 0
ARC
 8
TOOL_0
 5
E4
 10
494.46
 20
1012.657
 30
0
 40
8.79997102268
 50
22.003320384869
 51
75.523198505332
210
0
220
0
230
1.0
 0
ARC
 8
TOOL_0
 5
E5
 10
498.96
 20
1030.086
 30
0
 40
9.200133912069
 50
180.0
 51
255.52270314299
210
0
220
0
230
1.0
 0
LINE
 8
TOOL_0
 5
E6
 10
489.76
 20
1030.086
 30
0
 11
489.76
 21
1109.721
 31
0
 0
ARC
 8
TOOL_0
 5
E7
 10
499.76
 20
1109.721
 30
0
 40
10.0
 50
90.0
 51
180.0
210
0
220
0
230
1.0
 0
LINE
 8
TOOL_0
 5
E8
 10
499.76
 20
1119.721
 30
0
 11
562.265
 21
1119.721
 31
0
 0
ARC
 8
TOOL_0
 5
E9
 10
562.265
 20
1108.921
 30
0
 40
10.8
 50
48.460740534169
 51
90.0
210
0
220
0
230
1.0
 0
ARC
 8
TOOL_0
 5
EA
 10
504.822
 20
1047.898
 30
0
 40
94.602238208195
 50
43.466652314864
 51
46.928384843842
210
0
220
0
230
1.0
 0
LINE
 8
TOOL_0
 5
EB
 10
573.482
 20
1112.978
 30
0
 11
574.084
 21
1112.4
 31
0
 0
ARC
 8
TOOL_0
 5
EC
 10
581.311
 20
1118.302
 30
0
 40
9.330762723379
 50
219.237129311716
 51
272.7397465832
210
0
220
0
230
1.0
 0
LINE
 8
TOOL_0
 5
ED
 10
581.757
 20
1108.982
 30
0
 11
619.054
 21
1110.937
 31
0
 0
ARC
 8
TOOL_0
 5
EE
 10
617.787
 20
1135.104
 30
0
 40
24.200189627356
 50
273.001090424869
 51
320.000123438967
210
0
220
0
230
1.0
 0
LINE
 8
TOOL_0
 5
EF
 10
636.326
 20
1119.548
 30
0
 11
646.297
 21
1131.431
 31
0
 0
ARC
 8
TOOL_0
 5
F0
 10
700.555
 20
1085.874
 30
0
 40
70.847518044036
 50
90.017791710546
 51
139.981952152145
210
0
220
0
230
1.0
 0
LINE
 8
TOOL_0
 5
F1
 10
700.533
 20
1156.722
 30
0
 11
731.389
 21
1156.722
 31
0
 0
ARC
 8
TOOL_0
 5
F2
 10
731.389
 20
1085.922
 30
0
 40
70.8
 50
41.351276536947
 51
90.0
210
0
220
0
230
1.0
 0
ARC
 8
TOOL_0
 5
F3
 10
232.58
 20
657.247
 30
0
 40
728.498581501708
 50
39.389999123718
 51
40.741326157114
210
0
220
0
230
1.0
 0
ARC
 8
TOOL_0
 5
F4
 10
814.134
 20
1135.104
 30
0
 40
24.199493155849
 50
219.999584725572
 51
267.001150046702
210
0
220
0
230
1.0
 0
LINE
 8
TOOL_0
 5
F5
 10
812.868
 20
1110.938
 30
0
 11
850.165
 21
1108.983
 31
0
 0
ARC
 8
TOOL_0
 5
F6
 10
850.646
 20
1118.17
 30
0
 40
9.19958314273
 50
267.002924856545
 51
303.800613645745
210
0
220
0
230
1.0
 0
ARC
 8
TOOL_0
 5
F7
 10
842.72
 20
1127.461
 30
0
 40
21.376950951901
 50
307.603236713993
 51
317.477862862891
210
0
220
0
230
1.0
 0
LINE
 8
TOOL_0
 5
F8
 10
858.475
 20
1113.013
 30
0
 11
862.019
 21
1116.559
 31
0
 0
ARC
 8
TOOL_0
 5
F9
 10
869.681
 20
1108.862
 30
0
 40
10.860481250847
 50
90.131896128692
 51
134.869434936404
210
0
220
0
230
1.0
 0
LINE
 8
TOOL_0
 5
FA
 10
869.656
 20
1119.722
 30
0
 11
932.161
 21
1119.722
 31
0
 0
ARC
 8
TOOL_0
 5
FB
 10
932.161
 20
1109.722
 30
0
 40
10.0
 50
0
 51
90.0
210
0
220
0
230
1.0
 0
LINE
 8
TOOL_0
 5
FC
 10
942.161
 20
1109.722
 30
0
 11
942.161
 21
1030.087
 31
0
 0
ARC
 8
TOOL_0
 5
FD
 10
932.961
 20
1030.087
 30
0
 40
9.2
 50
284.47729685701
 51
0
210
0
220
0
230
1.0
 0
ARC
 8
TOOL_0
 5
FE
 10
937.461
 20
1012.658
 30
0
 40
8.800422773935
 50
104.476801494668
 51
157.996679615132
210
0
220
0
230
1.0
 0
LINE
 8
TOOL_0
 5
FF
 10
929.302
 20
1015.955
 30
0
 11
908.059
 21
963.376
 31
0
 0
ARC
 8
TOOL_0
 5
100
 10
898.771
 20
967.146
 30
0
 40
10.023963487563
 50
270.091453680534
 51
337.907762266919
210
0
220
0
230
1.0
 0
LINE
 8
TOOL_0
 5
101
 10
898.787
 20
957.122
 30
0
 11
895.255
 21
953.173
 31
0
 0
LINE
 8
TOOL_0
 5
102
 10
895.255
 20
953.173
 30
0
 11
895.255
 21
0.006
 31
0
 0
LINE
 8
TOOL_0
 5
103
 10
895.255
 20
0.006
 30
0
 11
1870.931
 21
959.507
 31
0
 0
LINE
 8
TOOL_0
 5
104
 10
1870.931
 20
959.507
 30
0
 11
1840.089
 21
961.452
 31
0
 0
LINE
 8
TOOL_0
 5
105
 10
1840.089
 20
961.452
 30
0
 11
1752.912
 21
961.452
 31
0
 0
ARC
 8
TOOL_0
 5
106
 10
1752.912
 20
942.252
 30
0
 40
19.2
 50
90.0
 51
148.07970508667
210
0
220
0
230
1.0
 0
ARC
 8
TOOL_0
 5
107
 10
1717.259
 20
964.476
 30
0
 40
22.812012624931
 50
239.849505978008
 51
328.048928599655
210
0
220
0
230
1.0
 0
ARC
 8
TOOL_0
 5
108
 10
1671.013
 20
884.93
 30
0
 40
69.199980809246
 50
59.820087804485
 51
90.0
210
0
220
0
230
1.0
 0
LINE
 8
TOOL_0
 5
109
 10
1671.013
 20
954.13
 30
0
 11
1643.513
 21
954.13
 31
0
 0
ARC
 8
TOOL_0
 5
10A
 10
1643.513
 20
884.93
 30
0
 40
69.2
 50
90.0
 51
120.179912195515
210
0
220
0
230
1.0
 0
ARC
 8
TOOL_0
 5
10B
 10
1597.267
 20
964.476
 30
0
 40
22.812295807305
 50
211.951071400345
 51
300.150494021992
210
0
220
0
230
1.0
 0
ARC
 8
TOOL_0
 5
10C
 10
1561.614
 20
942.252
 30
0
 40
19.200398771901
 50
31.92029491333
 51
90.0
210
0
220
0
230
1.0
 0
LINE
 8
TOOL_0
 5
10D
 10
1561.614
 20
961.452
 30
0
 11
1474.437
 21
961.452
 31
0
 0
ARC
 8
TOOL_0
 5
10E
 10
1474.453
 20
971.476
 30
0
 40
10.024012769345
 50
202.09223773308
 51
269.908546319465
210
0
220
0
230
1.0
 0
LINE
 8
TOOL_0
 5
10F
 10
1465.165
 20
967.706
 30
0
 11
1443.922
 21
1020.285
 31
0
 0
ARC
 8
TOOL_0
 5
110
 10
1435.763
 20
1016.988
 30
0
 40
8.79997102268
 50
22.003320384869
 51
75.523198505332
210
0
220
0
230
1.0
 0
ARC
 8
TOOL_0
 5
111
 10
1440.263
 20
1034.417
 30
0
 40
9.200133912069
 50
180.0
 51
255.52270314299
210
0
220
0
230
1.0
 0
LINE
 8
TOOL_0
 5
112
 10
1431.063
 20
1034.417
 30
0
 11
1431.063
 21
1114.052
 31
0
 0
ARC
 8
TOOL_0
 5
113
 10
1441.063
 20
1114.052
 30
0
 40
10.0
 50
90.0
 51
180.0
210
0
220
0
230
1.0
 0
LINE
 8
TOOL_0
 5
114
 10
1441.063
 20
1124.052
 30
0
 11
1503.568
 21
1124.052
 31
0
 0
ARC
 8
TOOL_0
 5
115
 10
1503.568
 20
1113.252
 30
0
 40
10.8
 50
48.460740534169
 51
90.0
210
0
220
0
230
1.0
 0
ARC
 8
TOOL_0
 5
116
 10
1446.125
 20
1052.229
 30
0
 40
94.602238208195
 50
43.466652314864
 51
46.928384843842
210
0
220
0
230
1.0
 0
LINE
 8
TOOL_0
 5
117
 10
1514.785
 20
1117.309
 30
0
 11
1515.387
 21
1116.731
 31
0
 0
ARC
 8
TOOL_0
 5
118
 10
1522.614
 20
1122.633
 30
0
 40
9.330762723379
 50
219.237129311716
 51
272.739746583199
210
0
220
0
230
1.0
 0
LINE
 8
TOOL_0
 5
119
 10
1523.06
 20
1113.313
 30
0
 11
1560.357
 21
1115.268
 31
0
 0
ARC
 8
TOOL_0
 5
11A
 10
1559.09
 20
1139.435
 30
0
 40
24.200189627356
 50
273.001090424869
 51
320.000123438967
210
0
220
0
230
1.0
 0
LINE
 8
TOOL_0
 5
11B
 10
1577.629
 20
1123.879
 30
0
 11
1587.6
 21
1135.762
 31
0
 0
ARC
 8
TOOL_0
 5
11C
 10
1641.858
 20
1090.205
 30
0
 40
70.847518044036
 50
90.017791710546
 51
139.981952152145
210
0
220
0
230
1.0
 0
LINE
 8
TOOL_0
 5
11D
 10
1641.836
 20
1161.053
 30
0
 11
1672.692
 21
1161.053
 31
0
 0
ARC
 8
TOOL_0
 5
11E
 10
1672.692
 20
1090.253
 30
0
 40
70.8
 50
41.351276536947
 51
90.0
210
0
220
0
230
1.0
 0
ARC
 8
TOOL_0
 5
11F
 10
1173.883
 20
661.578
 30
0
 40
728.498581501707
 50
39.389999123718
 51
40.741326157114
210
0
220
0
230
1.0
 0
ARC
 8
TOOL_0
 5
120
 10
1755.437
 20
1139.435
 30
0
 40
24.199493155849
 50
219.999584725572
 51
267.001150046702
210
0
220
0
230
1.0
 0
LINE
 8
TOOL_0
 5
121
 10
1754.171
 20
1115.269
 30
0
 11
1791.468
 21
1113.314
 31
0
 0
ARC
 8
TOOL_0
 5
122
 10
1791.949
 20
1122.501
 30
0
 40
9.19958314273
 50
267.002924856545
 51
303.800613645744
210
0
220
0
230
1.0
 0
ARC
 8
TOOL_0
 5
123
 10
1784.023
 20
1131.792
 30
0
 40
21.376950951901
 50
307.603236713993
 51
317.477862862891
210
0
220
0
230
1.0
 0
LINE
 8
TOOL_0
 5
124
 10
1799.778
 20
1117.344
 30
0
 11
1803.322
 21
1120.89
 31
0
 0
ARC
 8
TOOL_0
 5
125
 10
1810.984
 20
1113.193
 30
0
 40
10.860481250847
 50
90.131896128692
 51
134.869434936404
210
0
220
0
230
1.0
 0
LINE
 8
TOOL_0
 5
126
 10
1810.959
 20
1124.053
 30
0
 11
1873.464
 21
1124.053
 31
0
 0
ARC
 8
TOOL_0
 5
127
 10
1873.464
 20
1114.053
 30
0
 40
10.0
 50
0
 51
90.0
210
0
220
0
230
1.0
 0
LINE
 8
TOOL_0
 5
128
 10
1883.464
 20
1114.053
 30
0
 11
1883.464
 21
1034.418
 31
0
 0
ARC
 8
TOOL_0
 5
129
 10
1874.264
 20
1034.418
 30
0
 40
9.2
 50
284.477296857009
 51
0
210
0
220
0
230
1.0
 0
ARC
 8
TOOL_0
 5
12A
 10
1878.764
 20
1016.989
 30
0
 40
8.800422773935
 50
104.476801494668
 51
157.996679615132
210
0
220
0
230
1.0
 0
LINE
 8
TOOL_0
 5
12B
 10
1870.605
 20
1020.286
 30
0
 11
1849.362
 21
967.707
 31
0
 0
ARC
 8
TOOL_0
 5
12C
 10
1840.074
 20
971.477
 30
0
 40
10.023963487563
 50
270.091453680535
 51
337.907762266919
210
0
220
0
230
1.0
 0
LINE
 8
TOOL_0
 5
12D
 10
1840.09
 20
961.453
 30
0
 11
1836.558
 21
957.504
 31
0
 0
LINE
 8
TOOL_0
 5
12E
 10
1836.558
 20
957.504
 30
0
 11
1836.558
 21
0.007
 31
0
 0
LINE
 8
TOOL_0
 5
12F
 10
1836.558
 20
0.007
 30
0
 11
1400.076
 21
955.179
 31
0
 0
LINE
 8
TOOL_0
 5
130
 10
1400.076
 20
955.179
 30
0
 11
1369.234
 21
957.123
 31
0
 0
LINE
 8
TOOL_0
 5
131
 10
1369.234
 20
957.123
 30
0
 11
1282.057
 21
957.123
 31
0
 0
ARC
 8
TOOL_0
 5
132
 10
1282.057
 20
937.923
 30
0
 40
19.2
 50
90.0
 51
148.07970508667
210
0
220
0
230
1.0
 0
ARC
 8
TOOL_0
 5
133
 10
1246.404
 20
960.147
 30
0
 40
22.812012624931
 50
239.849505978008
 51
328.048928599655
210
0
220
0
230
1.0
 0
ARC
 8
TOOL_0
 5
134
 10
1200.158
 20
880.601
 30
0
 40
69.199980809246
 50
59.820087804485
 51
90.0
210
0
220
0
230
1.0
 0
LINE
 8
TOOL_0
 5
135
 10
1200.158
 20
949.801
 30
0
 11
1172.658
 21
949.801
 31
0
 0
ARC
 8
TOOL_0
 5
136
 10
1172.658
 20
880.601
 30
0
 40
69.2
 50
90.0
 51
120.179912195515
210
0
220
0
230
1.0
 0
ARC
 8
TOOL_0
 5
137
 10
1126.412
 20
960.147
 30
0
 40
22.812295807305
 50
211.951071400345
 51
300.150494021992
210
0
220
0
230
1.0
 0
ARC
 8
TOOL_0
 5
138
 10
1090.759
 20
937.923
 30
0
 40
19.200398771901
 50
31.92029491333
 51
90.0
210
0
220
0
230
1.0
 0
LINE
 8
TOOL_0
 5
139
 10
1090.759
 20
957.123
 30
0
 11
1003.582
 21
957.123
 31
0
 0
ARC
 8
TOOL_0
 5
13A
 10
1003.598
 20
967.147
 30
0
 40
10.024012769345
 50
202.09223773308
 51
269.908546319466
210
0
220
0
230
1.0
 0
LINE
 8
TOOL_0
 5
13B
 10
994.31
 20
963.377
 30
0
 11
973.067
 21
1015.956
 31
0
 0
ARC
 8
TOOL_0
 5
13C
 10
964.908
 20
1012.659
 30
0
 40
8.79997102268
 50
22.003320384869
 51
75.523198505332
210
0
220
0
230
1.0
 0
ARC
 8
TOOL_0
 5
13D
 10
969.408
 20
1030.088
 30
0
 40
9.200133912069
 50
180.0
 51
255.52270314299
210
0
220
0
230
1.0
 0
LINE
 8
TOOL_0
 5
13E
 10
960.208
 20
1030.088
 30
0
 11
960.208
 21
1109.723
 31
0
 0
ARC
 8
TOOL_0
 5
13F
 10
970.208
 20
1109.723
 30
0
 40
10.0
 50
90.0
 51
180.0
210
0
220
0
230
1.0
 0
LINE
 8
TOOL_0
 5
140
 10
970.208
 20
1119.723
 30
0
 11
1032.713
 21
1119.723
 31
0
 0
ARC
 8
TOOL_0
 5
141
 10
1032.713
 20
1108.923
 30
0
 40
10.8
 50
48.460740534169
 51
90.0
210
0
220
0
230
1.0
 0
ARC
 8
TOOL_0
 5
142
 10
975.27
 20
1047.9
 30
0
 40
94.602238208195
 50
43.466652314864
 51
46.928384843842
210
0
220
0
230
1.0
 0
LINE
 8
TOOL_0
 5
143
 10
1043.93
 20
1112.98
 30
0
 11
1044.532
 21
1112.402
 31
0
 0
ARC
 8
TOOL_0
 5
144
 10
1051.759
 20
1118.304
 30
0
 40
9.330762723379
 50
219.237129311716
 51
272.739746583199
210
0
220
0
230
1.0
 0
LINE
 8
TOOL_0
 5
145
 10
1052.205
 20
1108.984
 30
0
 11
1089.502
 21
1110.939
 31
0
 0
ARC
 8
TOOL_0
 5
146
 10
1088.235
 20
1135.106
 30
0
 40
24.200189627356
 50
273.001090424869
 51
320.000123438967
210
0
220
0
230
1.0
 0
LINE
 8
TOOL_0
 5
147
 10
1106.774
 20
1119.55
 30
0
 11
1116.745
 21
1131.433
 31
0
 0
ARC
 8
TOOL_0
 5
148
 10
1171.003
 20
1085.876
 30
0
 40
70.847518044036
 50
90.017791710546
 51
139.981952152145
210
0
220
0
230
1.0
 0
LINE
 8
TOOL_0
 5
149
 10
1170.981
 20
1156.724
 30
0
 11
1201.837
 21
1156.724
 31
0
 0
ARC
 8
TOOL_0
 5
14A
 10
1201.837
 20
1085.924
 30
0
 40
70.8
 50
41.351276536947
 51
90.0
210
0
220
0
230
1.0
 0
ARC
 8
TOOL_0
 5
14B
 10
703.028
 20
657.249
 30
0
 40
728.498581501708
 50
39.389999123718
 51
40.741326157114
210
0
220
0
230
1.0
 0
ARC
 8
TOOL_0
 5
14C
 10
1284.582
 20
1135.106
 30
0
 40
24.199493155849
 50
219.999584725572
 51
267.001150046702
210
0
220
0
230
1.0
 0
LINE
 8
TOOL_0
 5
14D
 10
1283.316
 20
1110.94
 30
0
 11
1320.613
 21
1108.985
 31
0
 0
ARC
 8
TOOL_0
 5
14E
 10
1321.094
 20
1118.172
 30
0
 40
9.19958314273
 50
267.002924856545
 51
303.800613645744
210
0
220
0
230
1.0
 0
ARC
 8
TOOL_0
 5
14F
 10
1313.168
 20
1127.463
 30
0
 40
21.376950951901
 50
307.603236713993
 51
317.477862862891
210
0
220
0
230
1.0
 0
LINE
 8
TOOL_0
 5
150
 10
1328.923
 20
1113.015
 30
0
 11
1332.467
 21
1116.561
 31
0
 0
ARC
 8
TOOL_0
 5
151
 10
1340.129
 20
1108.864
 30
0
 40
10.860481250847
 50
90.131896128692
 51
134.869434936404
210
0
220
0
230
1.0
 0
LINE
 8
TOOL_0
 5
152
 10
1340.104
 20
1119.724
 30
0
 11
1402.609
 21
1119.724
 31
0
 0
ARC
 8
TOOL_0
 5
153
 10
1402.609
 20
1109.724
 30
0
 40
10.0
 50
0
 51
90.0
210
0
220
0
230
1.0
 0
LINE
 8
TOOL_0
 5
154
 10
1412.609
 20
1109.724
 30
0
 11
1412.609
 21
1030.089
 31
0
 0
ARC
 8
TOOL_0
 5
155
 10
1403.409
 20
1030.089
 30
0
 40
9.2
 50
284.477296857009
 51
0
210
0
220
0
230
1.0
 0
ARC
 8
TOOL_0
 5
156
 10
1407.909
 20
1012.66
 30
0
 40
8.800422773935
 50
104.476801494668
 51
157.996679615132
210
0
220
0
230
1.0
 0
LINE
 8
TOOL_0
 5
157
 10
1399.75
 20
1015.957
 30
0
 11
1378.507
 21
963.378
 31
0
 0
ARC
 8
TOOL_0
 5
158
 10
1369.219
 20
967.148
 30
0
 40
10.023963487563
 50
270.091453680535
 51
337.907762266919
210
0
220
0
230
1.0
 0
LINE
 8
TOOL_0
 5
159
 10
1369.235
 20
957.124
 30
0
 11
1365.703
 21
953.175
 31
0
 0
LINE
 8
TOOL_0
 5
15A
 10
1365.703
 20
953.175
 30
0
 11
1365.703
 21
0.008
 31
0
 0
LINE
 8
TOOL_0
 5
15B
 10
1365.703
 20
0.008
 30
0
 11
516.85
 21
1915.509
 31
0
 0
LINE
 8
TOOL_0
 5
15C
 10
516.85
 20
1915.509
 30
0
 11
485.37
 21
1915.516
 31
0
 0
LINE
 8
TOOL_0
 5
15D
 10
485.37
 20
1915.516
 30
0
 11
430.502
 21
1889.931
 31
0
 0
ARC
 8
TOOL_0
 5
15E
 10
409.054
 20
1935.926
 30
0
 40
50.749943142825
 50
270.0
 51
295.000183423018
210
0
220
0
230
1.0
 0
LINE
 8
TOOL_0
 5
15F
 10
409.054
 20
1885.176
 30
0
 11
266.432
 21
1885.176
 31
0
 0
ARC
 8
TOOL_0
 5
160
 10
266.432
 20
1835.176
 30
0
 40
50.0
 50
90.0
 51
115.000278822611
210
0
220
0
230
1.0
 0
LINE
 8
TOOL_0
 5
161
 10
245.301
 20
1880.491
 30
0
 11
200.723
 21
1859.704
 31
0
 0
ARC
 8
TOOL_0
 5
162
 10
179.169
 20
1905.926
 30
0
 40
51.00047254683
 50
270.0
 51
295.000333377021
210
0
220
0
230
1.0
 0
LINE
 8
TOOL_0
 5
163
 10
179.169
 20
1854.926
 30
0
 11
139.33
 21
1854.926
 31
0
 0
ARC
 8
TOOL_0
 5
164
 10
139.33
 20
1905.926
 30
0
 40
51.0
 50
222.799752759984
 51
270.0
210
0
220
0
230
1.0
 0
LINE
 8
TOOL_0
 5
165
 10
101.91
 20
1871.275
 30
0
 11
37.644
 21
1940.676
 31
0
 0
ARC
 8
TOOL_0
 5
166
 10
89.005
 20
1988.237
 30
0
 40
70.000007442857
 50
180.0
 51
222.80011562078
210
0
220
0
230
1.0
 0
ARC
 8
TOOL_0
 5
167
 10
747.756
 20
1995.926
 30
0
 40
728.791561917398
 50
179.26671457002
 51
180.604501266165
210
0
220
0
230
1.0
 0
ARC
 8
TOOL_0
 5
168
 10
89.073
 20
2003.588
 30
0
 40
70.068784961636
 50
137.221465025895
 51
178.638388650238
210
0
220
0
230
1.0
 0
LINE
 8
TOOL_0
 5
169
 10
37.644
 20
2051.176
 30
0
 11
101.91
 21
2120.577
 31
0
 0
ARC
 8
TOOL_0
 5
16A
 10
139.33
 20
2085.925
 30
0
 40
51.000171607554
 50
90.0
 51
137.199422933132
210
0
220
0
230
1.0
 0
LINE
 8
TOOL_0
 5
16B
 10
139.33
 20
2136.925
 30
0
 11
179.17
 21
2136.925
 31
0
 0
ARC
 8
TOOL_0
 5
16C
 10
179.17
 20
2085.925
 30
0
 40
51.0
 50
64.999666622979
 51
90.0
210
0
220
0
230
1.0
 0
LINE
 8
TOOL_0
 5
16D
 10
200.724
 20
2132.147
 30
0
 11
245.302
 21
2111.36
 31
0
 0
ARC
 8
TOOL_0
 5
16E
 10
266.433
 20
2156.675
 30
0
 40
49.999683859001
 50
244.999721177388
 51
270.0
210
0
220
0
230
1.0
 0
LINE
 8
TOOL_0
 5
16F
 10
266.433
 20
2106.675
 30
0
 11
409.055
 21
2106.675
 31
0
 0
ARC
 8
TOOL_0
 5
170
 10
409.055
 20
2055.925
 30
0
 40
50.75
 50
64.999816576983
 51
90.0
210
0
220
0
230
1.0
 0
LINE
 8
TOOL_0
 5
171
 10
430.503
 20
2101.92
 30
0
 11
560.526
 21
2041.289
 31
0
 0
ARC
 8
TOOL_0
 5
172
 10
581.34
 20
2085.925
 30
0
 40
49.250330882137
 50
245.000114534572
 51
270.0
210
0
220
0
230
1.0
 0
LINE
 8
TOOL_0
 5
173
 10
581.34
 20
2036.675
 30
0
 11
671.506
 21
2036.675
 31
0
 0
ARC
 8
TOOL_0
 5
174
 10
671.506
 20
2016.675
 30
0
 40
20.0
 50
0
 51
90.0
210
0
220
0
230
1.0
 0
LINE
 8
TOOL_0
 5
175
 10
691.506
 20
2016.675
 30
0
 11
691.506
 21
1975.175
 31
0
 0
ARC
 8
TOOL_0
 5
176
 10
671.506
 20
1975.175
 30
0
 40
20.0
 50
270.0
 51
0
210
0
220
0
230
1.0
 0
LINE
 8
TOOL_0
 5
177
 10
671.506
 20
1955.175
 30
0
 11
581.341
 21
1955.175
 31
0
 0
ARC
 8
TOOL_0
 5
178
 10
581.341
 20
1905.925
 30
0
 40
49.25
 50
90.0
 51
114.999885465428
210
0
220
0
230
1.0
 0
LINE
 8
TOOL_0
 5
179
 10
560.527
 20
1950.561
 30
0
 11
485.372
 21
1915.516
 31
0
 0
LINE
 8
TOOL_0
 5
17A
 10
485.372
 20
1915.516
 30
0
 11
483.61
 21
1910.745
 31
0
 0
LINE
 8
TOOL_0
 5
17B
 10
483.61
 20
1910.745
 30
0
 11
870.387
 21
2159.591
 31
0
 0
LINE
 8
TOOL_0
 5
17C
 10
870.387
 20
2159.591
 30
0
 11
838.906
 21
2159.598
 31
0
 0
LINE
 8
TOOL_0
 5
17D
 10
838.906
 20
2159.598
 30
0
 11
784.038
 21
2134.013
 31
0
 0
ARC
 8
TOOL_0
 5
17E
 10
762.59
 20
2180.008
 30
0
 40
50.749943142825
 50
270.0
 51
295.000183423018
210
0
220
0
230
1.0
 0
LINE
 8
TOOL_0
 5
17F
 10
762.59
 20
2129.258
 30
0
 11
619.968
 21
2129.258
 31
0
 0
ARC
 8
TOOL_0
 5
180
 10
619.968
 20
2079.258
 30
0
 40
50.0
 50
90.0
 51
115.000278822611
210
0
220
0
230
1.0
 0
LINE
 8
TOOL_0
 5
181
 10
598.837
 20
2124.573
 30
0
 11
554.259
 21
2103.786
 31
0
 0
ARC
 8
TOOL_0
 5
182
 10
532.705
 20
2150.008
 30
0
 40
51.000472546831
 50
270.0
 51
295.000333377021
210
0
220
0
230
1.0
 0
LINE
 8
TOOL_0
 5
183
 10
532.705
 20
2099.008
 30
0
 11
492.866
 21
2099.008
 31
0
 0
ARC
 8
TOOL_0
 5
184
 10
492.866
 20
2150.008
 30
0
 40
51.0
 50
222.799752759984
 51
270.0
210
0
220
0
230
1.0
 0
LINE
 8
TOOL_0
 5
185
 10
455.446
 20
2115.357
 30
0
 11
391.18
 21
2184.758
 31
0
 0
ARC
 8
TOOL_0
 5
186
 10
442.541
 20
2232.319
 30
0
 40
70.000007442857
 50
180.0
 51
222.80011562078
210
0
220
0
230
1.0
 0
ARC
 8
TOOL_0
 5
187
 10
1101.292
 20
2240.008
 30
0
 40
728.791561917398
 50
179.26671457002
 51
180.604501266165
210
0
220
0
230
1.0
 0
ARC
 8
TOOL_0
 5
188
 10
442.609
 20
2247.67
 30
0
 40
70.068784961636
 50
137.221465025895
 51
178.638388650238
210
0
220
0
230
1.0
 0
LINE
 8
TOOL_0
 5
189
 10
391.18
 20
2295.258
 30
0
 11
455.446
 21
2364.659
 31
0
 0
ARC
 8
TOOL_0
 5
18A
 10
492.866
 20
2330.007
 30
0
 40
51.000171607555
 50
90.0
 51
137.199422933132
210
0
220
0
230
1.0
 0
LINE
 8
TOOL_0
 5
18B
 10
492.866
 20
2381.007
 30
0
 11
532.706
 21
2381.007
 31
0
 0
ARC
 8
TOOL_0
 5
18C
 10
532.706
 20
2330.007
 30
0
 40
51.0
 50
64.999666622979
 51
90.0
210
0
220
0
230
1.0
 0
LINE
 8
TOOL_0
 5
18D
 10
554.26
 20
2376.229
 30
0
 11
598.838
 21
2355.442
 31
0
 0
ARC
 8
TOOL_0
 5
18E
 10
619.969
 20
2400.757
 30
0
 40
49.999683859001
 50
244.999721177388
 51
270.0
210
0
220
0
230
1.0
 0
LINE
 8
TOOL_0
 5
18F
 10
619.969
 20
2350.757
 30
0
 11
762.591
 21
2350.757
 31
0
 0
ARC
 8
TOOL_0
 5
190
 10
762.591
 20
2300.007
 30
0
 40
50.75
 50
64.999816576983
 51
90.0
210
0
220
0
230
1.0
 0
LINE
 8
TOOL_0
 5
191
 10
784.039
 20
2346.002
 30
0
 11
914.062
 21
2285.371
 31
0
 0
ARC
 8
TOOL_0
 5
192
 10
934.876
 20
2330.007
 30
0
 40
49.250330882137
 50
245.000114534572
 51
270.0
210
0
220
0
230
1.0
 0
LINE
 8
TOOL_0
 5
193
 10
934.876
 20
2280.757
 30
0
 11
1025.042
 21
2280.757
 31
0
 0
ARC
 8
TOOL_0
 5
194
 10
1025.042
 20
2260.757
 30
0
 40
20.0
 50
0
 51
90.0
210
0
220
0
230
1.0
 0
LINE
 8
TOOL_0
 5
195
 10
1045.042
 20
2260.757
 30
0
 11
1045.042
 21
2219.257
 31
0
 0
ARC
 8
TOOL_0
 5
196
 10
1025.042
 20
2219.257
 30
0
 40
20.0
 50
270.0
 51
0
210
0
220
0
230
1.0
 0
LINE
 8
TOOL_0
 5
197
 10
1025.042
 20
2199.257
 30
0
 11
934.877
 21
2199.257
 31
0
 0
ARC
 8
TOOL_0
 5
198
 10
934.877
 20
2150.007
 30
0
 40
49.25
 50
90.0
 51
114.999885465428
210
0
220
0
230
1.0
 0
LINE
 8
TOOL_0
 5
199
 10
914.063
 20
2194.643
 30
0
 11
838.908
 21
2159.598
 31
0
 0
LINE
 8
TOOL_0
 5
19A
 10
838.908
 20
2159.598
 30
0
 11
837.146
 21
2154.827
 31
0
 0
LINE
 8
TOOL_0
 5
19B
 10
837.146
 20
2154.827
 30
0
 11
1210.635
 21
1909.736
 31
0
 0
LINE
 8
TOOL_0
 5
19C
 10
1210.635
 20
1909.736
 30
0
 11
1179.155
 21
1909.743
 31
0
 0
LINE
 8
TOOL_0
 5
19D
 10
1179.155
 20
1909.743
 30
0
 11
1124.287
 21
1884.158
 31
0
 0
ARC
 8
TOOL_0
 5
19E
 10
1102.839
 20
1930.153
 30
0
 40
50.749943142825
 50
270.0
 51
295.000183423018
210
0
220
0
230
1.0
 0
LINE
 8
TOOL_0
 5
19F
 10
1102.839
 20
1879.403
 30
0
 11
960.217
 21
1879.403
 31
0
 0
ARC
 8
TOOL_0
 5
1A0
 10
960.217
 20
1829.403
 30
0
 40
50.0
 50
90.0
 51
115.000278822611
210
0
220
0
230
1.0
 0
LINE
 8
TOOL_0
 5
1A1
 10
939.086
 20
1874.718
 30
0
 11
894.508
 21
1853.931
 31
0
 0
ARC
 8
TOOL_0
 5
1A2
 10
872.954
 20
1900.153
 30
0
 40
51.00047254683
 50
270.0
 51
295.000333377021
210
0
220
0
230
1.0
 0
LINE
 8
TOOL_0
 5
1A3
 10
872.954
 20
1849.153
 30
0
 11
833.115
 21
1849.153
 31
0
 0
ARC
 8
TOOL_0
 5
1A4
 10
833.115
 20
1900.153
 30
0
 40
51.0
 50
222.799752759984
 51
270.0
210
0
220
0
230
1.0
 0
LINE
 8
TOOL_0
 5
1A5
 10
795.695
 20
1865.502
 30
0
 11
731.429
 21
1934.903
 31
0
 0
ARC
 8
TOOL_0
 5
1A6
 10
782.79
 20
1982.464
 30
0
 40
70.000007442857
 50
180.0
 51
222.80011562078
210
0
220
0
230
1.0
 0
ARC
 8
TOOL_0
 5
1A7
 10
1441.541
 20
1990.153
 30
0
 40
728.791561917398
 50
179.26671457002
 51
180.604501266165
210
0
220
0
230
1.0
 0
ARC
 8
TOOL_0
 5
1A8
 10
782.858
 20
1997.815
 30
0
 40
70.068784961636
 50
137.221465025895
 51
178.638388650238
210
0
220
0
230
1.0
 0
LINE
 8
TOOL_0
 5
1A9
 10
731.429
 20
2045.403
 30
0
 11
795.695
 21
2114.804
 31
0
 0
ARC
 8
TOOL_0
 5
1AA
 10
833.115
 20
2080.152
 30
0
 40
51.000171607554
 50
90.0
 51
137.199422933132
210
0
220
0
230
1.0
 0
LINE
 8
TOOL_0
 5
1AB
 10
833.115
 20
2131.152
 30
0
 11
872.955
 21
2131.152
 31
0
 0
ARC
 8
TOOL_0
 5
1AC
 10
872.955
 20
2080.152
 30
0
 40
51.0
 50
64.999666622979
 51
90.0
210
0
220
0
230
1.0
 0
LINE
 8
TOOL_0
 5
1AD
 10
894.509
 20
2126.374
 30
0
 11
939.087
 21
2105.587
 31
0
 0
ARC
 8
TOOL_0
 5
1AE
 10
960.218
 20
2150.902
 30
0
 40
49.999683859001
 50
244.999721177388
 51
270.0
210
0
220
0
230
1.0
 0
LINE
 8
TOOL_0
 5
1AF
 10
960.218
 20
2100.902
 30
0
 11
1102.84
 21
2100.902
 31
0
 0
ARC
 8
TOOL_0
 5
1B0
 10
1102.84
 20
2050.152
 30
0
 40
50.75
 50
64.999816576982
 51
90.0
210
0
220
0
230
1.0
 0
LINE
 8
TOOL_0
 5
1B1
 10
1124.288
 20
2096.147
 30
0
 11
1254.311
 21
2035.516
 31
0
 0
ARC
 8
TOOL_0
 5
1B2
 10
1275.125
 20
2080.152
 30
0
 40
49.250330882137
 50
245.000114534572
 51
270.0
210
0
220
0
230
1.0
 0
LINE
 8
TOOL_0
 5
1B3
 10
1275.125
 20
2030.902
 30
0
 11
1365.291
 21
2030.902
 31
0
 0
ARC
 8
TOOL_0
 5
1B4
 10
1365.291
 20
2010.902
 30
0
 40
20.0
 50
0
 51
90.0
210
0
220
0
230
1.0
 0
LINE
 8
TOOL_0
 5
1B5
 10
1385.291
 20
2010.902
 30
0
 11
1385.291
 21
1969.402
 31
0
 0
ARC
 8
TOOL_0
 5
1B6
 10
1365.291
 20
1969.402
 30
0
 40
20.0
 50
270.0
 51
0
210
0
220
0
230
1.0
 0
LINE
 8
TOOL_0
 5
1B7
 10
1365.291
 20
1949.402
 30
0
 11
1275.126
 21
1949.402
 31
0
 0
ARC
 8
TOOL_0
 5
1B8
 10
1275.126
 20
1900.152
 30
0
 40
49.25
 50
90.0
 51
114.999885465428
210
0
220
0
230
1.0
 0
LINE
 8
TOOL_0
 5
1B9
 10
1254.312
 20
1944.788
 30
0
 11
1179.157
 21
1909.743
 31
0
 0
LINE
 8
TOOL_0
 5
1BA
 10
1179.157
 20
1909.743
 30
0
 11
1177.395
 21
1904.972
 31
0
 0
LINE
 8
TOOL_0
 5
1BB
 10
1177.395
 20
1904.972
 30
0
 11
1560.955
 21
2159.591
 31
0
 0
LINE
 8
TOOL_0
 5
1BC
 10
1560.955
 20
2159.591
 30
0
 11
1529.475
 21
2159.598
 31
0
 0
LINE
 8
TOOL_0
 5
1BD
 10
1529.475
 20
2159.598
 30
0
 11
1474.607
 21
2134.013
 31
0
 0
ARC
 8
TOOL_0
 5
1BE
 10
1453.159
 20
2180.008
 30
0
 40
50.749943142825
 50
270.0
 51
295.000183423018
210
0
220
0
230
1.0
 0
LINE
 8
TOOL_0
 5
1BF
 10
1453.159
 20
2129.258
 30
0
 11
1310.537
 21
2129.258
 31
0
 0
ARC
 8
TOOL_0
 5
1C0
 10
1310.537
 20
2079.258
 30
0
 40
50.0
 50
90.0
 51
115.000278822612
210
0
220
0
230
1.0
 0
LINE
 8
TOOL_0
 5
1C1
 10
1289.406
 20
2124.573
 30
0
 11
1244.828
 21
2103.786
 31
0
 0
ARC
 8
TOOL_0
 5
1C2
 10
1223.274
 20
2150.008
 30
0
 40
51.000472546831
 50
270.0
 51
295.000333377021
210
0
220
0
230
1.0
 0
LINE
 8
TOOL_0
 5
1C3
 10
1223.274
 20
2099.008
 30
0
 11
1183.435
 21
2099.008
 31
0
 0
ARC
 8
TOOL_0
 5
1C4
 10
1183.435
 20
2150.008
 30
0
 40
51.0
 50
222.799752759984
 51
270.0
210
0
220
0
230
1.0
 0
LINE
 8
TOOL_0
 5
1C5
 10
1146.015
 20
2115.357
 30
0
 11
1081.749
 21
2184.758
 31
0
 0
ARC
 8
TOOL_0
 5
1C6
 10
1133.11
 20
2232.319
 30
0
 40
70.000007442857
 50
180.0
 51
222.80011562078
210
0
220
0
230
1.0
 0
ARC
 8
TOOL_0
 5
1C7
 10
1791.861
 20
2240.008
 30
0
 40
728.791561917398
 50
179.26671457002
 51
180.604501266165
210
0
220
0
230
1.0
 0
ARC
 8
TOOL_0
 5
1C8
 10
1133.178
 20
2247.67
 30
0
 40
70.068784961636
 50
137.221465025895
 51
178.638388650238
210
0
220
0
230
1.0
 0
LINE
 8
TOOL_0
 5
1C9
 10
1081.749
 20
2295.258
 30
0
 11
1146.015
 21
2364.659
 31
0
 0
ARC
 8
TOOL_0
 5
1CA
 10
1183.435
 20
2330.007
 30
0
 40
51.000171607555
 50
90.0
 51
137.199422933132
210
0
220
0
230
1.0
 0
LINE
 8
TOOL_0
 5
1CB
 10
1183.435
 20
2381.007
 30
0
 11
1223.275
 21
2381.007
 31
0
 0
ARC
 8
TOOL_0
 5
1CC
 10
1223.275
 20
2330.007
 30
0
 40
51.0
 50
64.999666622979
 51
90.0
210
0
220
0
230
1.0
 0
LINE
 8
TOOL_0
 5
1CD
 10
1244.829
 20
2376.229
 30
0
 11
1289.407
 21
2355.442
 31
0
 0
ARC
 8
TOOL_0
 5
1CE
 10
1310.538
 20
2400.757
 30
0
 40
49.999683859001
 50
244.999721177388
 51
270.0
210
0
220
0
230
1.0
 0
LINE
 8
TOOL_0
 5
1CF
 10
1310.538
 20
2350.757
 30
0
 11
1453.16
 21
2350.757
 31
0
 0
ARC
 8
TOOL_0
 5
1D0
 10
1453.16
 20
2300.007
 30
0
 40
50.75
 50
64.999816576982
 51
90.0
210
0
220
0
230
1.0
 0
LINE
 8
TOOL_0
 5
1D1
 10
1474.608
 20
2346.002
 30
0
 11
1604.631
 21
2285.371
 31
0
 0
ARC
 8
TOOL_0
 5
1D2
 10
1625.445
 20
2330.007
 30
0
 40
49.250330882137
 50
245.000114534572
 51
270.0
210
0
220
0
230
1.0
 0
LINE
 8
TOOL_0
 5
1D3
 10
1625.445
 20
2280.757
 30
0
 11
1715.611
 21
2280.757
 31
0
 0
ARC
 8
TOOL_0
 5
1D4
 10
1715.611
 20
2260.757
 30
0
 40
20.0
 50
0
 51
90.0
210
0
220
0
230
1.0
 0
LINE
 8
TOOL_0
 5
1D5
 10
1735.611
 20
2260.757
 30
0
 11
1735.611
 21
2219.257
 31
0
 0
ARC
 8
TOOL_0
 5
1D6
 10
1715.611
 20
2219.257
 30
0
 40
20.0
 50
270.0
 51
0
210
0
220
0
230
1.0
 0
LINE
 8
TOOL_0
 5
1D7
 10
1715.611
 20
2199.257
 30
0
 11
1625.446
 21
2199.257
 31
0
 0
ARC
 8
TOOL_0
 5
1D8
 10
1625.446
 20
2150.007
 30
0
 40
49.25
 50
90.0
 51
114.999885465428
210
0
220
0
230
1.0
 0
LINE
 8
TOOL_0
 5
1D9
 10
1604.632
 20
2194.643
 30
0
 11
1529.477
 21
2159.598
 31
0
 0
LINE
 8
TOOL_0
 5
1DA
 10
1529.477
 20
2159.598
 30
0
 11
1527.715
 21
2154.827
 31
0
 0
LINE
 8
TOOL_0
 5
1DB
 10
1527.715
 20
2154.827
 30
0
 11
1919.64
 21
0.008
 31
0
 0
LINE
 8
TOOL_0
 5
1DC
 10
1919.64
 20
0.008
 30
0
 11
1919.64
 21
1.008
 31
0
 0
LINE
 8
TOOL_0
 5
1DD
 10
1919.64
 20
1.008
 30
0
 11
1919.64
 21
0.008
 31
0
 0
LINE
 8
TOOL_0
 5
1DE
 10
1919.64
 20
0.008
 30
0
 11
1919.64
 21
1.008
 31
0
 0
LINE
 8
TOOL_0
 5
1DF
 10
1919.64
 20
1.008
 30
0
 11
1919.64
 21
1409.521
 31
0
 0
LINE
 8
TOOL_0
 5
1E0
 10
1919.64
 20
1409.521
 30
0
 11
1442.056
 21
1409.521
 31
0
 0
LINE
 8
TOOL_0
 5
1E1
 10
1442.056
 20
1409.521
 30
0
 11
1442.056
 21
2099.757
 31
0
 0
LINE
 8
TOOL_0
 5
1E2
 10
1442.056
 20
2099.757
 30
0
 11
1759.323
 21
2099.757
 31
0
 0
LINE
 8
TOOL_0
 5
1E3
 10
1759.323
 20
2099.757
 30
0
 11
1759.323
 21
2399.008
 31
0
 0
LINE
 8
TOOL_0
 5
1E4
 10
1759.323
 20
2399.008
 30
0
 11
1759.323
 21
2400.008
 31
0
 0
ENDSEC
 0
EOF

