0
SECTION
2
TABLES
0
TABLE
2
LAYER
70
0
0
LAYER
2
LAYER_NAME
70
0
62
1
6
CONTINUOUS
0
ENDTAB
0
ENDSEC
 0
SECTION
 2
ENTITIES
 0
LINE
 8
TOOL_0
 5
1
 10
346.939
 20
614.401
 30
0
 11
346.939
 21
586.229
 31
0
 0
LINE
 8
TOOL_0
 5
2
 10
346.939
 20
586.229
 30
0
 11
337.166
 21
586.296
 31
0
 0
LINE
 8
TOOL_0
 5
3
 10
337.166
 20
586.296
 30
0
 11
20.166
 21
586.296
 31
0
 0
LINE
 8
TOOL_0
 5
4
 10
20.166
 20
586.296
 30
0
 11
20.166
 21
856.296
 31
0
 0
ARC
 8
TOOL_0
 5
5
 10
40.166
 20
856.296
 30
0
 40
20.0
 50
90.0
 51
180.0
210
0
220
0
230
1.0
 0
LINE
 8
TOOL_0
 5
6
 10
40.166
 20
876.296
 30
0
 11
317.166
 21
876.296
 31
0
 0
ARC
 8
TOOL_0
 5
7
 10
317.166
 20
856.296
 30
0
 40
20.0
 50
0
 51
90.0
210
0
220
0
230
1.0
 0
LINE
 8
TOOL_0
 5
8
 10
337.166
 20
856.296
 30
0
 11
337.166
 21
586.296
 31
0
 0
LINE
 8
TOOL_0
 5
9
 10
337.166
 20
586.296
 30
0
 11
337.383
 21
581.533
 31
0
 0
LINE
 8
TOOL_0
 5
A
 10
337.383
 20
581.533
 30
0
 11
683.968
 21
614.799
 31
0
 0
LINE
 8
TOOL_0
 5
B
 10
683.968
 20
614.799
 30
0
 11
683.968
 21
586.627
 31
0
 0
LINE
 8
TOOL_0
 5
C
 10
683.968
 20
586.627
 30
0
 11
674.195
 21
586.694
 31
0
 0
LINE
 8
TOOL_0
 5
D
 10
674.195
 20
586.694
 30
0
 11
357.195
 21
586.694
 31
0
 0
LINE
 8
TOOL_0
 5
E
 10
357.195
 20
586.694
 30
0
 11
357.195
 21
856.694
 31
0
 0
ARC
 8
TOOL_0
 5
F
 10
377.195
 20
856.694
 30
0
 40
20.0
 50
90.0
 51
180.0
210
0
220
0
230
1.0
 0
LINE
 8
TOOL_0
 5
10
 10
377.195
 20
876.694
 30
0
 11
654.195
 21
876.694
 31
0
 0
ARC
 8
TOOL_0
 5
11
 10
654.195
 20
856.694
 30
0
 40
20.0
 50
0
 51
90.0
210
0
220
0
230
1.0
 0
LINE
 8
TOOL_0
 5
12
 10
674.195
 20
856.694
 30
0
 11
674.195
 21
586.694
 31
0
 0
LINE
 8
TOOL_0
 5
13
 10
674.195
 20
586.694
 30
0
 11
674.412
 21
581.931
 31
0
 0
LINE
 8
TOOL_0
 5
14
 10
674.412
 20
581.931
 30
0
 11
1020.996
 21
614.395
 31
0
 0
LINE
 8
TOOL_0
 5
15
 10
1020.996
 20
614.395
 30
0
 11
1020.996
 21
586.223
 31
0
 0
LINE
 8
TOOL_0
 5
16
 10
1020.996
 20
586.223
 30
0
 11
1011.223
 21
586.29
 31
0
 0
LINE
 8
TOOL_0
 5
17
 10
1011.223
 20
586.29
 30
0
 11
694.223
 21
586.29
 31
0
 0
LINE
 8
TOOL_0
 5
18
 10
694.223
 20
586.29
 30
0
 11
694.223
 21
856.29
 31
0
 0
ARC
 8
TOOL_0
 5
19
 10
714.223
 20
856.29
 30
0
 40
20.0
 50
90.0
 51
180.0
210
0
220
0
230
1.0
 0
LINE
 8
TOOL_0
 5
1A
 10
714.223
 20
876.29
 30
0
 11
991.223
 21
876.29
 31
0
 0
ARC
 8
TOOL_0
 5
1B
 10
991.223
 20
856.29
 30
0
 40
20.0
 50
0
 51
90.0
210
0
220
0
230
1.0
 0
LINE
 8
TOOL_0
 5
1C
 10
1011.223
 20
856.29
 30
0
 11
1011.223
 21
586.29
 31
0
 0
LINE
 8
TOOL_0
 5
1D
 10
1011.223
 20
586.29
 30
0
 11
1011.44
 21
581.527
 31
0
 0
LINE
 8
TOOL_0
 5
1E
 10
1011.44
 20
581.527
 30
0
 11
1358.025
 21
614.394
 31
0
 0
LINE
 8
TOOL_0
 5
1F
 10
1358.025
 20
614.394
 30
0
 11
1358.025
 21
586.222
 31
0
 0
LINE
 8
TOOL_0
 5
20
 10
1358.025
 20
586.222
 30
0
 11
1348.252
 21
586.289
 31
0
 0
LINE
 8
TOOL_0
 5
21
 10
1348.252
 20
586.289
 30
0
 11
1031.252
 21
586.289
 31
0
 0
LINE
 8
TOOL_0
 5
22
 10
1031.252
 20
586.289
 30
0
 11
1031.252
 21
856.289
 31
0
 0
ARC
 8
TOOL_0
 5
23
 10
1051.252
 20
856.289
 30
0
 40
20.0
 50
90.0
 51
180.0
210
0
220
0
230
1.0
 0
LINE
 8
TOOL_0
 5
24
 10
1051.252
 20
876.289
 30
0
 11
1328.252
 21
876.289
 31
0
 0
ARC
 8
TOOL_0
 5
25
 10
1328.252
 20
856.289
 30
0
 40
20.0
 50
0
 51
90.0
210
0
220
0
230
1.0
 0
LINE
 8
TOOL_0
 5
26
 10
1348.252
 20
856.289
 30
0
 11
1348.252
 21
586.289
 31
0
 0
LINE
 8
TOOL_0
 5
27
 10
1348.252
 20
586.289
 30
0
 11
1348.469
 21
581.526
 31
0
 0
LINE
 8
TOOL_0
 5
28
 10
1348.469
 20
581.526
 30
0
 11
1695.054
 21
616.406
 31
0
 0
LINE
 8
TOOL_0
 5
29
 10
1695.054
 20
616.406
 30
0
 11
1695.054
 21
588.234
 31
0
 0
LINE
 8
TOOL_0
 5
2A
 10
1695.054
 20
588.234
 30
0
 11
1685.281
 21
588.301
 31
0
 0
LINE
 8
TOOL_0
 5
2B
 10
1685.281
 20
588.301
 30
0
 11
1368.281
 21
588.301
 31
0
 0
LINE
 8
TOOL_0
 5
2C
 10
1368.281
 20
588.301
 30
0
 11
1368.281
 21
858.301
 31
0
 0
ARC
 8
TOOL_0
 5
2D
 10
1388.281
 20
858.301
 30
0
 40
20.0
 50
90.0
 51
180.0
210
0
220
0
230
1.0
 0
LINE
 8
TOOL_0
 5
2E
 10
1388.281
 20
878.301
 30
0
 11
1665.281
 21
878.301
 31
0
 0
ARC
 8
TOOL_0
 5
2F
 10
1665.281
 20
858.301
 30
0
 40
20.0
 50
0
 51
90.0
210
0
220
0
230
1.0
 0
LINE
 8
TOOL_0
 5
30
 10
1685.281
 20
858.301
 30
0
 11
1685.281
 21
588.301
 31
0
 0
LINE
 8
TOOL_0
 5
31
 10
1685.281
 20
588.301
 30
0
 11
1685.498
 21
583.538
 31
0
 0
LINE
 8
TOOL_0
 5
32
 10
1685.498
 20
583.538
 30
0
 11
2146.833
 21
48.502
 31
0
 0
LINE
 8
TOOL_0
 5
33
 10
2146.833
 20
48.502
 30
0
 11
2146.833
 21
20.33
 31
0
 0
LINE
 8
TOOL_0
 5
34
 10
2146.833
 20
20.33
 30
0
 11
2137.06
 21
20.397
 31
0
 0
LINE
 8
TOOL_0
 5
35
 10
2137.06
 20
20.397
 30
0
 11
1820.06
 21
20.397
 31
0
 0
LINE
 8
TOOL_0
 5
36
 10
1820.06
 20
20.397
 30
0
 11
1820.06
 21
290.397
 31
0
 0
ARC
 8
TOOL_0
 5
37
 10
1840.06
 20
290.397
 30
0
 40
20.0
 50
90.0
 51
180.0
210
0
220
0
230
1.0
 0
LINE
 8
TOOL_0
 5
38
 10
1840.06
 20
310.397
 30
0
 11
2117.06
 21
310.397
 31
0
 0
ARC
 8
TOOL_0
 5
39
 10
2117.06
 20
290.397
 30
0
 40
20.0
 50
0
 51
90.0
210
0
220
0
230
1.0
 0
LINE
 8
TOOL_0
 5
3A
 10
2137.06
 20
290.397
 30
0
 11
2137.06
 21
20.397
 31
0
 0
LINE
 8
TOOL_0
 5
3B
 10
2137.06
 20
20.397
 30
0
 11
2137.277
 21
15.634
 31
0
 0
LINE
 8
TOOL_0
 5
3C
 10
2137.277
 20
15.634
 30
0
 11
2485.467
 21
48.501
 31
0
 0
LINE
 8
TOOL_0
 5
3D
 10
2485.467
 20
48.501
 30
0
 11
2485.467
 21
20.329
 31
0
 0
LINE
 8
TOOL_0
 5
3E
 10
2485.467
 20
20.329
 30
0
 11
2475.694
 21
20.396
 31
0
 0
LINE
 8
TOOL_0
 5
3F
 10
2475.694
 20
20.396
 30
0
 11
2158.694
 21
20.396
 31
0
 0
LINE
 8
TOOL_0
 5
40
 10
2158.694
 20
20.396
 30
0
 11
2158.694
 21
290.396
 31
0
 0
ARC
 8
TOOL_0
 5
41
 10
2178.694
 20
290.396
 30
0
 40
20.0
 50
90.0
 51
180.0
210
0
220
0
230
1.0
 0
LINE
 8
TOOL_0
 5
42
 10
2178.694
 20
310.396
 30
0
 11
2455.694
 21
310.396
 31
0
 0
ARC
 8
TOOL_0
 5
43
 10
2455.694
 20
290.396
 30
0
 40
20.0
 50
0
 51
90.0
210
0
220
0
230
1.0
 0
LINE
 8
TOOL_0
 5
44
 10
2475.694
 20
290.396
 30
0
 11
2475.694
 21
20.396
 31
0
 0
LINE
 8
TOOL_0
 5
45
 10
2475.694
 20
20.396
 30
0
 11
2475.911
 21
15.633
 31
0
 0
LINE
 8
TOOL_0
 5
46
 10
2475.911
 20
15.633
 30
0
 11
2822.495
 21
48.5
 31
0
 0
LINE
 8
TOOL_0
 5
47
 10
2822.495
 20
48.5
 30
0
 11
2822.495
 21
20.328
 31
0
 0
LINE
 8
TOOL_0
 5
48
 10
2822.495
 20
20.328
 30
0
 11
2812.722
 21
20.395
 31
0
 0
LINE
 8
TOOL_0
 5
49
 10
2812.722
 20
20.395
 30
0
 11
2495.722
 21
20.395
 31
0
 0
LINE
 8
TOOL_0
 5
4A
 10
2495.722
 20
20.395
 30
0
 11
2495.722
 21
290.395
 31
0
 0
ARC
 8
TOOL_0
 5
4B
 10
2515.722
 20
290.395
 30
0
 40
20.0
 50
90.0
 51
180.0
210
0
220
0
230
1.0
 0
LINE
 8
TOOL_0
 5
4C
 10
2515.722
 20
310.395
 30
0
 11
2792.722
 21
310.395
 31
0
 0
ARC
 8
TOOL_0
 5
4D
 10
2792.722
 20
290.395
 30
0
 40
20.0
 50
0
 51
90.0
210
0
220
0
230
1.0
 0
LINE
 8
TOOL_0
 5
4E
 10
2812.722
 20
290.395
 30
0
 11
2812.722
 21
20.395
 31
0
 0
LINE
 8
TOOL_0
 5
4F
 10
2812.722
 20
20.395
 30
0
 11
2812.939
 21
15.632
 31
0
 0
LINE
 8
TOOL_0
 5
50
 10
2812.939
 20
15.632
 30
0
 11
3159.524
 21
48.499
 31
0
 0
LINE
 8
TOOL_0
 5
51
 10
3159.524
 20
48.499
 30
0
 11
3159.524
 21
20.327
 31
0
 0
LINE
 8
TOOL_0
 5
52
 10
3159.524
 20
20.327
 30
0
 11
3149.751
 21
20.394
 31
0
 0
LINE
 8
TOOL_0
 5
53
 10
3149.751
 20
20.394
 30
0
 11
2832.751
 21
20.394
 31
0
 0
LINE
 8
TOOL_0
 5
54
 10
2832.751
 20
20.394
 30
0
 11
2832.751
 21
290.394
 31
0
 0
ARC
 8
TOOL_0
 5
55
 10
2852.751
 20
290.394
 30
0
 40
20.0
 50
90.0
 51
180.0
210
0
220
0
230
1.0
 0
LINE
 8
TOOL_0
 5
56
 10
2852.751
 20
310.394
 30
0
 11
3129.751
 21
310.394
 31
0
 0
ARC
 8
TOOL_0
 5
57
 10
3129.751
 20
290.394
 30
0
 40
20.0
 50
0
 51
90.0
210
0
220
0
230
1.0
 0
LINE
 8
TOOL_0
 5
58
 10
3149.751
 20
290.394
 30
0
 11
3149.751
 21
20.394
 31
0
 0
LINE
 8
TOOL_0
 5
59
 10
3149.751
 20
20.394
 30
0
 11
3149.968
 21
15.631
 31
0
 0
LINE
 8
TOOL_0
 5
5A
 10
3149.968
 20
15.631
 30
0
 11
2148.841
 21
1288.547
 31
0
 0
LINE
 8
TOOL_0
 5
5B
 10
2148.841
 20
1288.547
 30
0
 11
2148.841
 21
1260.375
 31
0
 0
LINE
 8
TOOL_0
 5
5C
 10
2148.841
 20
1260.375
 30
0
 11
2139.068
 21
1260.442
 31
0
 0
LINE
 8
TOOL_0
 5
5D
 10
2139.068
 20
1260.442
 30
0
 11
1822.068
 21
1260.442
 31
0
 0
LINE
 8
TOOL_0
 5
5E
 10
1822.068
 20
1260.442
 30
0
 11
1822.068
 21
1530.442
 31
0
 0
ARC
 8
TOOL_0
 5
5F
 10
1842.068
 20
1530.442
 30
0
 40
20.0
 50
90.0
 51
180.0
210
0
220
0
230
1.0
 0
LINE
 8
TOOL_0
 5
60
 10
1842.068
 20
1550.442
 30
0
 11
2119.068
 21
1550.442
 31
0
 0
ARC
 8
TOOL_0
 5
61
 10
2119.068
 20
1530.442
 30
0
 40
20.0
 50
0
 51
90.0
210
0
220
0
230
1.0
 0
LINE
 8
TOOL_0
 5
62
 10
2139.068
 20
1530.442
 30
0
 11
2139.068
 21
1260.442
 31
0
 0
LINE
 8
TOOL_0
 5
63
 10
2139.068
 20
1260.442
 30
0
 11
2139.285
 21
1255.679
 31
0
 0
LINE
 8
TOOL_0
 5
64
 10
2139.285
 20
1255.679
 30
0
 11
2485.869
 21
1288.546
 31
0
 0
LINE
 8
TOOL_0
 5
65
 10
2485.869
 20
1288.546
 30
0
 11
2485.869
 21
1260.374
 31
0
 0
LINE
 8
TOOL_0
 5
66
 10
2485.869
 20
1260.374
 30
0
 11
2476.096
 21
1260.441
 31
0
 0
LINE
 8
TOOL_0
 5
67
 10
2476.096
 20
1260.441
 30
0
 11
2159.096
 21
1260.441
 31
0
 0
LINE
 8
TOOL_0
 5
68
 10
2159.096
 20
1260.441
 30
0
 11
2159.096
 21
1530.441
 31
0
 0
ARC
 8
TOOL_0
 5
69
 10
2179.096
 20
1530.441
 30
0
 40
20.0
 50
90.0
 51
180.0
210
0
220
0
230
1.0
 0
LINE
 8
TOOL_0
 5
6A
 10
2179.096
 20
1550.441
 30
0
 11
2456.096
 21
1550.441
 31
0
 0
ARC
 8
TOOL_0
 5
6B
 10
2456.096
 20
1530.441
 30
0
 40
20.0
 50
0
 51
90.0
210
0
220
0
230
1.0
 0
LINE
 8
TOOL_0
 5
6C
 10
2476.096
 20
1530.441
 30
0
 11
2476.096
 21
1260.441
 31
0
 0
LINE
 8
TOOL_0
 5
6D
 10
2476.096
 20
1260.441
 30
0
 11
2476.313
 21
1255.678
 31
0
 0
LINE
 8
TOOL_0
 5
6E
 10
2476.313
 20
1255.678
 30
0
 11
2822.898
 21
1288.545
 31
0
 0
LINE
 8
TOOL_0
 5
6F
 10
2822.898
 20
1288.545
 30
0
 11
2822.898
 21
1260.373
 31
0
 0
LINE
 8
TOOL_0
 5
70
 10
2822.898
 20
1260.373
 30
0
 11
2813.125
 21
1260.44
 31
0
 0
LINE
 8
TOOL_0
 5
71
 10
2813.125
 20
1260.44
 30
0
 11
2496.125
 21
1260.44
 31
0
 0
LINE
 8
TOOL_0
 5
72
 10
2496.125
 20
1260.44
 30
0
 11
2496.125
 21
1530.44
 31
0
 0
ARC
 8
TOOL_0
 5
73
 10
2516.125
 20
1530.44
 30
0
 40
20.0
 50
90.0
 51
180.0
210
0
220
0
230
1.0
 0
LINE
 8
TOOL_0
 5
74
 10
2516.125
 20
1550.44
 30
0
 11
2793.125
 21
1550.44
 31
0
 0
ARC
 8
TOOL_0
 5
75
 10
2793.125
 20
1530.44
 30
0
 40
20.0
 50
0
 51
90.0
210
0
220
0
230
1.0
 0
LINE
 8
TOOL_0
 5
76
 10
2813.125
 20
1530.44
 30
0
 11
2813.125
 21
1260.44
 31
0
 0
LINE
 8
TOOL_0
 5
77
 10
2813.125
 20
1260.44
 30
0
 11
2813.342
 21
1255.677
 31
0
 0
LINE
 8
TOOL_0
 5
78
 10
2813.342
 20
1255.677
 30
0
 11
2813.342
 21
-0.011
 31
0
 0
LINE
 8
TOOL_0
 5
79
 10
2813.342
 20
-0.011
 30
0
 11
347.746
 21
1854.434
 31
0
 0
LINE
 8
TOOL_0
 5
7A
 10
347.746
 20
1854.434
 30
0
 11
347.746
 21
1826.262
 31
0
 0
LINE
 8
TOOL_0
 5
7B
 10
347.746
 20
1826.262
 30
0
 11
337.973
 21
1826.329
 31
0
 0
LINE
 8
TOOL_0
 5
7C
 10
337.973
 20
1826.329
 30
0
 11
20.973
 21
1826.329
 31
0
 0
LINE
 8
TOOL_0
 5
7D
 10
20.973
 20
1826.329
 30
0
 11
20.973
 21
2096.329
 31
0
 0
ARC
 8
TOOL_0
 5
7E
 10
40.973
 20
2096.329
 30
0
 40
20.0
 50
90.0
 51
180.0
210
0
220
0
230
1.0
 0
LINE
 8
TOOL_0
 5
7F
 10
40.973
 20
2116.329
 30
0
 11
317.973
 21
2116.329
 31
0
 0
ARC
 8
TOOL_0
 5
80
 10
317.973
 20
2096.329
 30
0
 40
20.0
 50
0
 51
90.0
210
0
220
0
230
1.0
 0
LINE
 8
TOOL_0
 5
81
 10
337.973
 20
2096.329
 30
0
 11
337.973
 21
1826.329
 31
0
 0
LINE
 8
TOOL_0
 5
82
 10
337.973
 20
1826.329
 30
0
 11
338.19
 21
1821.566
 31
0
 0
LINE
 8
TOOL_0
 5
83
 10
338.19
 20
1821.566
 30
0
 11
685.577
 21
1854.836
 31
0
 0
LINE
 8
TOOL_0
 5
84
 10
685.577
 20
1854.836
 30
0
 11
685.577
 21
1826.664
 31
0
 0
LINE
 8
TOOL_0
 5
85
 10
685.577
 20
1826.664
 30
0
 11
675.804
 21
1826.731
 31
0
 0
LINE
 8
TOOL_0
 5
86
 10
675.804
 20
1826.731
 30
0
 11
358.804
 21
1826.731
 31
0
 0
LINE
 8
TOOL_0
 5
87
 10
358.804
 20
1826.731
 30
0
 11
358.804
 21
2096.731
 31
0
 0
ARC
 8
TOOL_0
 5
88
 10
378.804
 20
2096.731
 30
0
 40
20.0
 50
90.0
 51
180.0
210
0
220
0
230
1.0
 0
LINE
 8
TOOL_0
 5
89
 10
378.804
 20
2116.731
 30
0
 11
655.804
 21
2116.731
 31
0
 0
ARC
 8
TOOL_0
 5
8A
 10
655.804
 20
2096.731
 30
0
 40
20.0
 50
0
 51
90.0
210
0
220
0
230
1.0
 0
LINE
 8
TOOL_0
 5
8B
 10
675.804
 20
2096.731
 30
0
 11
675.804
 21
1826.731
 31
0
 0
LINE
 8
TOOL_0
 5
8C
 10
675.804
 20
1826.731
 30
0
 11
676.021
 21
1821.968
 31
0
 0
LINE
 8
TOOL_0
 5
8D
 10
676.021
 20
1821.968
 30
0
 11
1022.605
 21
1854.432
 31
0
 0
LINE
 8
TOOL_0
 5
8E
 10
1022.605
 20
1854.432
 30
0
 11
1022.605
 21
1826.26
 31
0
 0
LINE
 8
TOOL_0
 5
8F
 10
1022.605
 20
1826.26
 30
0
 11
1012.832
 21
1826.327
 31
0
 0
LINE
 8
TOOL_0
 5
90
 10
1012.832
 20
1826.327
 30
0
 11
695.832
 21
1826.327
 31
0
 0
LINE
 8
TOOL_0
 5
91
 10
695.832
 20
1826.327
 30
0
 11
695.832
 21
2096.327
 31
0
 0
ARC
 8
TOOL_0
 5
92
 10
715.832
 20
2096.327
 30
0
 40
20.0
 50
90.0
 51
180.0
210
0
220
0
230
1.0
 0
LINE
 8
TOOL_0
 5
93
 10
715.832
 20
2116.327
 30
0
 11
992.832
 21
2116.327
 31
0
 0
ARC
 8
TOOL_0
 5
94
 10
992.832
 20
2096.327
 30
0
 40
20.0
 50
0
 51
90.0
210
0
220
0
230
1.0
 0
LINE
 8
TOOL_0
 5
95
 10
1012.832
 20
2096.327
 30
0
 11
1012.832
 21
1826.327
 31
0
 0
LINE
 8
TOOL_0
 5
96
 10
1012.832
 20
1826.327
 30
0
 11
1013.049
 21
1821.564
 31
0
 0
LINE
 8
TOOL_0
 5
97
 10
1013.049
 20
1821.564
 30
0
 11
1359.634
 21
1854.431
 31
0
 0
LINE
 8
TOOL_0
 5
98
 10
1359.634
 20
1854.431
 30
0
 11
1359.634
 21
1826.259
 31
0
 0
LINE
 8
TOOL_0
 5
99
 10
1359.634
 20
1826.259
 30
0
 11
1349.861
 21
1826.326
 31
0
 0
LINE
 8
TOOL_0
 5
9A
 10
1349.861
 20
1826.326
 30
0
 11
1032.861
 21
1826.326
 31
0
 0
LINE
 8
TOOL_0
 5
9B
 10
1032.861
 20
1826.326
 30
0
 11
1032.861
 21
2096.326
 31
0
 0
ARC
 8
TOOL_0
 5
9C
 10
1052.861
 20
2096.326
 30
0
 40
20.0
 50
90.0
 51
180.0
210
0
220
0
230
1.0
 0
LINE
 8
TOOL_0
 5
9D
 10
1052.861
 20
2116.326
 30
0
 11
1329.861
 21
2116.326
 31
0
 0
ARC
 8
TOOL_0
 5
9E
 10
1329.861
 20
2096.326
 30
0
 40
20.0
 50
0
 51
90.0
210
0
220
0
230
1.0
 0
LINE
 8
TOOL_0
 5
9F
 10
1349.861
 20
2096.326
 30
0
 11
1349.861
 21
1826.326
 31
0
 0
LINE
 8
TOOL_0
 5
A0
 10
1349.861
 20
1826.326
 30
0
 11
1350.078
 21
1821.563
 31
0
 0
LINE
 8
TOOL_0
 5
A1
 10
1350.078
 20
1821.563
 30
0
 11
1696.663
 21
1856.443
 31
0
 0
LINE
 8
TOOL_0
 5
A2
 10
1696.663
 20
1856.443
 30
0
 11
1696.663
 21
1828.271
 31
0
 0
LINE
 8
TOOL_0
 5
A3
 10
1696.663
 20
1828.271
 30
0
 11
1686.89
 21
1828.338
 31
0
 0
LINE
 8
TOOL_0
 5
A4
 10
1686.89
 20
1828.338
 30
0
 11
1369.89
 21
1828.338
 31
0
 0
LINE
 8
TOOL_0
 5
A5
 10
1369.89
 20
1828.338
 30
0
 11
1369.89
 21
2098.338
 31
0
 0
ARC
 8
TOOL_0
 5
A6
 10
1389.89
 20
2098.338
 30
0
 40
20.0
 50
90.0
 51
180.0
210
0
220
0
230
1.0
 0
LINE
 8
TOOL_0
 5
A7
 10
1389.89
 20
2118.338
 30
0
 11
1666.89
 21
2118.338
 31
0
 0
ARC
 8
TOOL_0
 5
A8
 10
1666.89
 20
2098.338
 30
0
 40
20.0
 50
0
 51
90.0
210
0
220
0
230
1.0
 0
LINE
 8
TOOL_0
 5
A9
 10
1686.89
 20
2098.338
 30
0
 11
1686.89
 21
1828.338
 31
0
 0
LINE
 8
TOOL_0
 5
AA
 10
1686.89
 20
1828.338
 30
0
 11
1687.107
 21
1823.575
 31
0
 0
LINE
 8
TOOL_0
 5
AB
 10
1687.107
 20
1823.575
 30
0
 11
3159.928
 21
1288.54
 31
0
 0
LINE
 8
TOOL_0
 5
AC
 10
3159.928
 20
1288.54
 30
0
 11
3159.928
 21
1260.368
 31
0
 0
LINE
 8
TOOL_0
 5
AD
 10
3159.928
 20
1260.368
 30
0
 11
3150.155
 21
1260.435
 31
0
 0
LINE
 8
TOOL_0
 5
AE
 10
3150.155
 20
1260.435
 30
0
 11
2833.155
 21
1260.435
 31
0
 0
LINE
 8
TOOL_0
 5
AF
 10
2833.155
 20
1260.435
 30
0
 11
2833.155
 21
1530.435
 31
0
 0
ARC
 8
TOOL_0
 5
B0
 10
2853.155
 20
1530.435
 30
0
 40
20.0
 50
90.0
 51
180.0
210
0
220
0
230
1.0
 0
LINE
 8
TOOL_0
 5
B1
 10
2853.155
 20
1550.435
 30
0
 11
3130.155
 21
1550.435
 31
0
 0
ARC
 8
TOOL_0
 5
B2
 10
3130.155
 20
1530.435
 30
0
 40
20.0
 50
0
 51
90.0
210
0
220
0
230
1.0
 0
LINE
 8
TOOL_0
 5
B3
 10
3150.155
 20
1530.435
 30
0
 11
3150.155
 21
1260.435
 31
0
 0
LINE
 8
TOOL_0
 5
B4
 10
3150.155
 20
1260.435
 30
0
 11
3150.372
 21
1255.672
 31
0
 0
LINE
 8
TOOL_0
 5
B5
 10
3150.372
 20
1255.672
 30
0
 11
3175.106
 21
-0.016
 31
0
 0
LINE
 8
TOOL_0
 5
B6
 10
3175.106
 20
-0.016
 30
0
 11
3175.106
 21
0.984
 31
0
 0
LINE
 8
TOOL_0
 5
B7
 10
3175.106
 20
0.984
 30
0
 11
3175.106
 21
-0.016
 31
0
 0
LINE
 8
TOOL_0
 5
B8
 10
3175.106
 20
-0.016
 30
0
 11
3175.106
 21
-0.016
 31
0
 0
LINE
 8
TOOL_0
 5
B9
 10
3175.106
 20
-0.016
 30
0
 11
3175.106
 21
0.984
 31
0
 0
LINE
 8
TOOL_0
 5
BA
 10
3175.106
 20
0.984
 30
0
 11
3175.106
 21
1868.724
 31
0
 0
LINE
 8
TOOL_0
 5
BB
 10
3175.106
 20
1868.724
 30
0
 11
2839.252
 21
1868.724
 31
0
 0
LINE
 8
TOOL_0
 5
BC
 10
2839.252
 20
1868.724
 30
0
 11
2839.252
 21
2598.984
 31
0
 0
LINE
 8
TOOL_0
 5
BD
 10
2839.252
 20
2598.984
 30
0
 11
2839.252
 21
2599.984
 31
0
 0
ENDSEC
 0
EOF

