0
SECTION
2
TABLES
0
TABLE
2
LAYER
70
0
0
LAYER
2
LAYER_NAME
70
0
62
1
6
CONTINUOUS
0
ENDTAB
0
ENDSEC
 0
SECTION
 2
ENTITIES
 0
LINE
 8
TOOL_0
 5
1
 10
270.656
 20
1239.08
 30
0
 11
240.656
 21
1239.08
 31
0
 0
LINE
 8
TOOL_0
 5
2
 10
240.656
 20
1239.08
 30
0
 11
29.906
 21
1239.08
 31
0
 0
ARC
 8
TOOL_0
 5
3
 10
29.906
 20
1249.83
 30
0
 40
10.75
 50
180.0
 51
270.0
210
0
220
0
230
1.0
 0
LINE
 8
TOOL_0
 5
4
 10
19.156
 20
1249.83
 30
0
 11
19.156
 21
1376.83
 31
0
 0
ARC
 8
TOOL_0
 5
5
 10
22.906
 20
1376.83
 30
0
 40
3.75
 50
90.0
 51
180.0
210
0
220
0
230
1.0
 0
LINE
 8
TOOL_0
 5
6
 10
22.906
 20
1380.58
 30
0
 11
76.906
 21
1380.58
 31
0
 0
ARC
 8
TOOL_0
 5
7
 10
76.906
 20
1376.83
 30
0
 40
3.75
 50
0
 51
90.0
210
0
220
0
230
1.0
 0
LINE
 8
TOOL_0
 5
8
 10
80.656
 20
1376.83
 30
0
 11
80.656
 21
1319.83
 31
0
 0
ARC
 8
TOOL_0
 5
9
 10
99.906
 20
1319.83
 30
0
 40
19.25
 50
180.0
 51
270.0
210
0
220
0
230
1.0
 0
LINE
 8
TOOL_0
 5
A
 10
99.906
 20
1300.58
 30
0
 11
240.656
 21
1300.58
 31
0
 0
LINE
 8
TOOL_0
 5
B
 10
240.656
 20
1300.58
 30
0
 11
240.656
 21
1239.08
 31
0
 0
LINE
 8
TOOL_0
 5
C
 10
240.656
 20
1239.08
 30
0
 11
240.656
 21
1234.08
 31
0
 0
LINE
 8
TOOL_0
 5
D
 10
240.656
 20
1234.08
 30
0
 11
265.769
 21
1319.378
 31
0
 0
LINE
 8
TOOL_0
 5
E
 10
265.769
 20
1319.378
 30
0
 11
236.906
 21
1319.378
 31
0
 0
LINE
 8
TOOL_0
 5
F
 10
236.906
 20
1319.378
 30
0
 11
182.906
 21
1319.378
 31
0
 0
ARC
 8
TOOL_0
 5
10
 10
182.906
 20
1323.128
 30
0
 40
3.75
 50
180.0
 51
270.0
210
0
220
0
230
1.0
 0
LINE
 8
TOOL_0
 5
11
 10
179.156
 20
1323.128
 30
0
 11
179.156
 21
1380.128
 31
0
 0
ARC
 8
TOOL_0
 5
12
 10
159.906
 20
1380.128
 30
0
 40
19.25
 50
0
 51
90.0
210
0
220
0
230
1.0
 0
LINE
 8
TOOL_0
 5
13
 10
159.906
 20
1399.378
 30
0
 11
19.156
 21
1399.378
 31
0
 0
LINE
 8
TOOL_0
 5
14
 10
19.156
 20
1399.378
 30
0
 11
19.156
 21
1460.878
 31
0
 0
LINE
 8
TOOL_0
 5
15
 10
19.156
 20
1460.878
 30
0
 11
229.906
 21
1460.878
 31
0
 0
ARC
 8
TOOL_0
 5
16
 10
229.906
 20
1450.128
 30
0
 40
10.75
 50
0
 51
90.0
210
0
220
0
230
1.0
 0
LINE
 8
TOOL_0
 5
17
 10
240.656
 20
1450.128
 30
0
 11
240.656
 21
1323.128
 31
0
 0
ARC
 8
TOOL_0
 5
18
 10
236.906
 20
1323.128
 30
0
 40
3.75
 50
270.0
 51
0
210
0
220
0
230
1.0
 0
LINE
 8
TOOL_0
 5
19
 10
236.906
 20
1319.378
 30
0
 11
233.405
 21
1315.811
 31
0
 0
LINE
 8
TOOL_0
 5
1A
 10
233.405
 20
1315.811
 30
0
 11
0
 21
1479.691
 31
0
 0
LINE
 8
TOOL_0
 5
1B
 10
0
 20
1479.691
 30
0
 11
1.0
 21
1479.691
 31
0
 0
LINE
 8
TOOL_0
 5
1C
 10
1.0
 20
1479.691
 30
0
 11
0
 21
1479.691
 31
0
 0
LINE
 8
TOOL_0
 5
1D
 10
0
 20
1479.691
 30
0
 11
1.0
 21
1479.691
 31
0
 0
LINE
 8
TOOL_0
 5
1E
 10
1.0
 20
1479.691
 30
0
 11
305.736
 21
1479.691
 31
0
 0
LINE
 8
TOOL_0
 5
1F
 10
305.736
 20
1479.691
 30
0
 11
305.736
 21
1219.25
 31
0
 0
LINE
 8
TOOL_0
 5
20
 10
305.736
 20
1219.25
 30
0
 11
305.736
 21
1218.25
 31
0
 0
ENDSEC
 0
EOF

