0
SECTION
2
TABLES
0
TABLE
2
LAYER
70
0
0
LAYER
2
LAYER_NAME
70
0
62
1
6
CONTINUOUS
0
ENDTAB
0
ENDSEC
 0
SECTION
 2
ENTITIES
 0
LINE
 8
TOOL_0
 5
1
 10
1081.0
 20
1465.501
 30
0
 11
1126.0
 21
1465.501
 31
0
 0
ARC
 8
TOOL_0
 5
2
 10
1091.0
 20
1465.501
 30
0
 40
35.0
 50
0
 51
180.0
210
0
220
0
230
1.0
 0
ARC
 8
TOOL_0
 5
3
 10
1091.0
 20
1465.501
 30
0
 40
35.0
 50
180.0
 51
0
210
0
220
0
230
1.0
 0
LINE
 8
TOOL_0
 5
4
 10
1126.0
 20
1465.501
 30
0
 11
696.0
 21
425.501
 31
0
 0
LINE
 8
TOOL_0
 5
5
 10
696.0
 20
425.501
 30
0
 11
741.0
 21
425.501
 31
0
 0
ARC
 8
TOOL_0
 5
6
 10
706.0
 20
425.501
 30
0
 40
35.0
 50
0
 51
180.0
210
0
220
0
230
1.0
 0
ARC
 8
TOOL_0
 5
7
 10
706.0
 20
425.501
 30
0
 40
35.0
 50
180.0
 51
0
210
0
220
0
230
1.0
 0
LINE
 8
TOOL_0
 5
8
 10
741.0
 20
425.501
 30
0
 11
2231.0
 21
425.501
 31
0
 0
LINE
 8
TOOL_0
 5
9
 10
2231.0
 20
425.501
 30
0
 11
2276.0
 21
425.501
 31
0
 0
ARC
 8
TOOL_0
 5
A
 10
2241.0
 20
425.501
 30
0
 40
35.0
 50
0
 51
180.0
210
0
220
0
230
1.0
 0
ARC
 8
TOOL_0
 5
B
 10
2241.0
 20
425.501
 30
0
 40
35.0
 50
180.0
 51
0
210
0
220
0
230
1.0
 0
LINE
 8
TOOL_0
 5
C
 10
2276.0
 20
425.501
 30
0
 11
3381.0
 21
1465.501
 31
0
 0
LINE
 8
TOOL_0
 5
D
 10
3381.0
 20
1465.501
 30
0
 11
3426.0
 21
1465.501
 31
0
 0
ARC
 8
TOOL_0
 5
E
 10
3391.0
 20
1465.501
 30
0
 40
35.0
 50
0
 51
180.0
210
0
220
0
230
1.0
 0
ARC
 8
TOOL_0
 5
F
 10
3391.0
 20
1465.501
 30
0
 40
35.0
 50
180.0
 51
0
210
0
220
0
230
1.0
 0
LINE
 8
TOOL_0
 5
10
 10
3426.0
 20
1465.501
 30
0
 11
3766.0
 21
425.501
 31
0
 0
LINE
 8
TOOL_0
 5
11
 10
3766.0
 20
425.501
 30
0
 11
3811.0
 21
425.501
 31
0
 0
ARC
 8
TOOL_0
 5
12
 10
3776.0
 20
425.501
 30
0
 40
35.0
 50
0
 51
180.0
210
0
220
0
230
1.0
 0
ARC
 8
TOOL_0
 5
13
 10
3776.0
 20
425.501
 30
0
 40
35.0
 50
180.0
 51
0
210
0
220
0
230
1.0
 0
LINE
 8
TOOL_0
 5
14
 10
3811.0
 20
425.501
 30
0
 11
4472.994
 21
34.232
 31
0
 0
LINE
 8
TOOL_0
 5
15
 10
4472.994
 20
34.232
 30
0
 11
4472.994
 21
18.689
 31
0
 0
LINE
 8
TOOL_0
 5
16
 10
4472.994
 20
18.689
 30
0
 11
4463.0
 21
19.001
 31
0
 0
LINE
 8
TOOL_0
 5
17
 10
4463.0
 20
19.001
 30
0
 11
19.0
 21
19.001
 31
0
 0
LINE
 8
TOOL_0
 5
18
 10
19.0
 20
19.001
 30
0
 11
19.0
 21
632.001
 31
0
 0
LINE
 8
TOOL_0
 5
19
 10
19.0
 20
632.001
 30
0
 11
633.5
 21
632.001
 31
0
 0
ARC
 8
TOOL_0
 5
1A
 10
633.5
 20
695.501
 30
0
 40
63.5
 50
270.0
 51
314.999361983681
210
0
220
0
230
1.0
 0
LINE
 8
TOOL_0
 5
1B
 10
678.401
 20
650.599
 30
0
 11
705.901
 21
678.099
 31
0
 0
ARC
 8
TOOL_0
 5
1C
 10
660.814
 20
723.08
 30
0
 40
63.687737673747
 50
315.067430717063
 51
358.508231460464
210
0
220
0
230
1.0
 0
ARC
 8
TOOL_0
 5
1D
 10
741.683
 20
722.168
 30
0
 40
17.219167372437
 50
169.746641564247
 51
182.483048854123
210
0
220
0
230
1.0
 0
ARC
 8
TOOL_0
 5
1E
 10
712.673
 20
729.598
 30
0
 40
12.831273553315
 50
340.111886593483
 51
358.450394664125
210
0
220
0
230
1.0
 0
LINE
 8
TOOL_0
 5
1F
 10
725.5
 20
729.251
 30
0
 11
725.5
 21
1535.499
 31
0
 0
ARC
 8
TOOL_0
 5
20
 10
756.0
 20
1535.499
 30
0
 40
30.5
 50
90.0
 51
180.0
210
0
220
0
230
1.0
 0
LINE
 8
TOOL_0
 5
21
 10
756.0
 20
1565.999
 30
0
 11
3726.0
 21
1565.999
 31
0
 0
ARC
 8
TOOL_0
 5
22
 10
3726.0
 20
1535.499
 30
0
 40
30.5
 50
0
 51
90.0
210
0
220
0
230
1.0
 0
LINE
 8
TOOL_0
 5
23
 10
3756.5
 20
1535.499
 30
0
 11
3756.5
 21
729.244
 31
0
 0
ARC
 8
TOOL_0
 5
24
 10
3766.0
 20
729.244
 30
0
 40
9.5
 50
180.0
 51
191.955751267994
210
0
220
0
230
1.0
 0
ARC
 8
TOOL_0
 5
25
 10
3740.421
 20
721.923
 30
0
 40
17.142223718059
 50
5.43953981028
 51
18.196076864045
210
0
220
0
230
1.0
 0
ARC
 8
TOOL_0
 5
26
 10
3821.148
 20
723.083
 30
0
 40
63.663698203921
 50
179.581507591912
 51
224.959271727667
210
0
220
0
230
1.0
 0
LINE
 8
TOOL_0
 5
27
 10
3776.099
 20
678.098
 30
0
 11
3803.599
 21
650.598
 31
0
 0
ARC
 8
TOOL_0
 5
28
 10
3848.5
 20
695.499
 30
0
 40
63.499603164114
 50
225.0
 51
270.0
210
0
220
0
230
1.0
 0
LINE
 8
TOOL_0
 5
29
 10
3848.5
 20
631.999
 30
0
 11
4463.0
 21
631.999
 31
0
 0
LINE
 8
TOOL_0
 5
2A
 10
4463.0
 20
631.999
 30
0
 11
4463.0
 21
18.999
 31
0
 0
LINE
 8
TOOL_0
 5
2B
 10
4463.0
 20
18.999
 30
0
 11
4458.648
 21
11.636
 31
0
 0
LINE
 8
TOOL_0
 5
2C
 10
4458.648
 20
11.636
 30
0
 11
4836.561
 21
119.499
 31
0
 0
LINE
 8
TOOL_0
 5
2D
 10
4836.561
 20
119.499
 30
0
 11
4881.561
 21
119.499
 31
0
 0
ARC
 8
TOOL_0
 5
2E
 10
4846.561
 20
119.499
 30
0
 40
35.0
 50
0
 51
180.0
210
0
220
0
230
1.0
 0
ARC
 8
TOOL_0
 5
2F
 10
4846.561
 20
119.499
 30
0
 40
35.0
 50
180.0
 51
0
210
0
220
0
230
1.0
 0
LINE
 8
TOOL_0
 5
30
 10
4881.561
 20
119.499
 30
0
 11
4451.561
 21
1159.499
 31
0
 0
LINE
 8
TOOL_0
 5
31
 10
4451.561
 20
1159.499
 30
0
 11
4496.561
 21
1159.499
 31
0
 0
ARC
 8
TOOL_0
 5
32
 10
4461.561
 20
1159.499
 30
0
 40
35.0
 50
0
 51
180.0
210
0
220
0
230
1.0
 0
ARC
 8
TOOL_0
 5
33
 10
4461.561
 20
1159.499
 30
0
 40
35.0
 50
180.0
 51
0
210
0
220
0
230
1.0
 0
LINE
 8
TOOL_0
 5
34
 10
4496.561
 20
1159.499
 30
0
 11
5986.561
 21
1159.499
 31
0
 0
LINE
 8
TOOL_0
 5
35
 10
5986.561
 20
1159.499
 30
0
 11
6031.561
 21
1159.499
 31
0
 0
ARC
 8
TOOL_0
 5
36
 10
5996.561
 20
1159.499
 30
0
 40
35.0
 50
0
 51
180.0
210
0
220
0
230
1.0
 0
ARC
 8
TOOL_0
 5
37
 10
5996.561
 20
1159.499
 30
0
 40
35.0
 50
180.0
 51
0
210
0
220
0
230
1.0
 0
LINE
 8
TOOL_0
 5
38
 10
6031.561
 20
1159.499
 30
0
 11
7136.561
 21
119.499
 31
0
 0
LINE
 8
TOOL_0
 5
39
 10
7136.561
 20
119.499
 30
0
 11
7181.561
 21
119.499
 31
0
 0
ARC
 8
TOOL_0
 5
3A
 10
7146.561
 20
119.499
 30
0
 40
35.0
 50
0
 51
180.0
210
0
220
0
230
1.0
 0
ARC
 8
TOOL_0
 5
3B
 10
7146.561
 20
119.499
 30
0
 40
35.0
 50
180.0
 51
0
210
0
220
0
230
1.0
 0
LINE
 8
TOOL_0
 5
3C
 10
7181.561
 20
119.499
 30
0
 11
7521.561
 21
1159.499
 31
0
 0
LINE
 8
TOOL_0
 5
3D
 10
7521.561
 20
1159.499
 30
0
 11
7566.561
 21
1159.499
 31
0
 0
ARC
 8
TOOL_0
 5
3E
 10
7531.561
 20
1159.499
 30
0
 40
35.0
 50
0
 51
180.0
210
0
220
0
230
1.0
 0
ARC
 8
TOOL_0
 5
3F
 10
7531.561
 20
1159.499
 30
0
 40
35.0
 50
180.0
 51
0
210
0
220
0
230
1.0
 0
LINE
 8
TOOL_0
 5
40
 10
7566.561
 20
1159.499
 30
0
 11
7523.254
 21
44.967
 31
0
 0
LINE
 8
TOOL_0
 5
41
 10
7523.254
 20
44.967
 30
0
 11
7523.254
 21
18.948
 31
0
 0
LINE
 8
TOOL_0
 5
42
 10
7523.254
 20
18.948
 30
0
 11
7481.561
 21
18.999
 31
0
 0
LINE
 8
TOOL_0
 5
43
 10
7481.561
 20
18.999
 30
0
 11
4511.561
 21
18.999
 31
0
 0
ARC
 8
TOOL_0
 5
44
 10
4511.561
 20
49.499
 30
0
 40
30.5
 50
180.0
 51
270.0
210
0
220
0
230
1.0
 0
LINE
 8
TOOL_0
 5
45
 10
4481.061
 20
49.499
 30
0
 11
4481.061
 21
855.754
 31
0
 0
ARC
 8
TOOL_0
 5
46
 10
4471.561
 20
855.754
 30
0
 40
9.5
 50
0
 51
11.955751267995
210
0
220
0
230
1.0
 0
ARC
 8
TOOL_0
 5
47
 10
4497.14
 20
863.075
 30
0
 40
17.142223718059
 50
185.43953981028
 51
198.196076864045
210
0
220
0
230
1.0
 0
ARC
 8
TOOL_0
 5
48
 10
4416.413
 20
861.915
 30
0
 40
63.663698203922
 50
359.581507591912
 51
44.959271727667
210
0
220
0
230
1.0
 0
LINE
 8
TOOL_0
 5
49
 10
4461.462
 20
906.9
 30
0
 11
4433.962
 21
934.4
 31
0
 0
ARC
 8
TOOL_0
 5
4A
 10
4389.061
 20
889.499
 30
0
 40
63.499603164114
 50
45.0
 51
90.0
210
0
220
0
230
1.0
 0
LINE
 8
TOOL_0
 5
4B
 10
4389.061
 20
952.999
 30
0
 11
3774.561
 21
952.999
 31
0
 0
LINE
 8
TOOL_0
 5
4C
 10
3774.561
 20
952.999
 30
0
 11
3774.561
 21
1565.999
 31
0
 0
LINE
 8
TOOL_0
 5
4D
 10
3774.561
 20
1565.999
 30
0
 11
8218.561
 21
1565.999
 31
0
 0
LINE
 8
TOOL_0
 5
4E
 10
8218.561
 20
1565.999
 30
0
 11
8218.561
 21
952.999
 31
0
 0
LINE
 8
TOOL_0
 5
4F
 10
8218.561
 20
952.999
 30
0
 11
7604.061
 21
952.999
 31
0
 0
ARC
 8
TOOL_0
 5
50
 10
7604.061
 20
889.499
 30
0
 40
63.5
 50
90.0
 51
135.0
210
0
220
0
230
1.0
 0
LINE
 8
TOOL_0
 5
51
 10
7559.16
 20
934.4
 30
0
 11
7531.66
 21
906.9
 31
0
 0
ARC
 8
TOOL_0
 5
52
 10
7576.747
 20
861.919
 30
0
 40
63.687737673747
 50
135.067430717063
 51
178.509130794042
210
0
220
0
230
1.0
 0
ARC
 8
TOOL_0
 5
53
 10
7495.878
 20
862.831
 30
0
 40
17.219124077607
 50
349.743367259393
 51
2.479724528025
210
0
220
0
230
1.0
 0
ARC
 8
TOOL_0
 5
54
 10
7524.888
 20
855.4
 30
0
 40
12.831273553315
 50
160.111886593482
 51
178.450394664124
210
0
220
0
230
1.0
 0
LINE
 8
TOOL_0
 5
55
 10
7512.061
 20
855.747
 30
0
 11
7512.061
 21
49.499
 31
0
 0
ARC
 8
TOOL_0
 5
56
 10
7481.561
 20
49.499
 30
0
 40
30.5
 50
270.0
 51
0
210
0
220
0
230
1.0
 0
LINE
 8
TOOL_0
 5
57
 10
7481.561
 20
18.999
 30
0
 11
7481.561
 21
10.969
 31
0
 0
LINE
 8
TOOL_0
 5
58
 10
7481.561
 20
10.969
 30
0
 11
8598.999
 21
1465.499
 31
0
 0
LINE
 8
TOOL_0
 5
59
 10
8598.999
 20
1465.499
 30
0
 11
8643.999
 21
1465.499
 31
0
 0
ARC
 8
TOOL_0
 5
5A
 10
8608.999
 20
1465.499
 30
0
 40
35.0
 50
0
 51
180.0
210
0
220
0
230
1.0
 0
ARC
 8
TOOL_0
 5
5B
 10
8608.999
 20
1465.499
 30
0
 40
35.0
 50
180.0
 51
0
210
0
220
0
230
1.0
 0
LINE
 8
TOOL_0
 5
5C
 10
8643.999
 20
1465.499
 30
0
 11
8213.999
 21
425.499
 31
0
 0
LINE
 8
TOOL_0
 5
5D
 10
8213.999
 20
425.499
 30
0
 11
8258.999
 21
425.499
 31
0
 0
ARC
 8
TOOL_0
 5
5E
 10
8223.999
 20
425.499
 30
0
 40
35.0
 50
0
 51
180.0
210
0
220
0
230
1.0
 0
ARC
 8
TOOL_0
 5
5F
 10
8223.999
 20
425.499
 30
0
 40
35.0
 50
180.0
 51
0
210
0
220
0
230
1.0
 0
LINE
 8
TOOL_0
 5
60
 10
8258.999
 20
425.499
 30
0
 11
9748.999
 21
425.499
 31
0
 0
LINE
 8
TOOL_0
 5
61
 10
9748.999
 20
425.499
 30
0
 11
9793.999
 21
425.499
 31
0
 0
ARC
 8
TOOL_0
 5
62
 10
9758.999
 20
425.499
 30
0
 40
35.0
 50
0
 51
180.0
210
0
220
0
230
1.0
 0
ARC
 8
TOOL_0
 5
63
 10
9758.999
 20
425.499
 30
0
 40
35.0
 50
180.0
 51
0
210
0
220
0
230
1.0
 0
LINE
 8
TOOL_0
 5
64
 10
9793.999
 20
425.499
 30
0
 11
10898.999
 21
1465.499
 31
0
 0
LINE
 8
TOOL_0
 5
65
 10
10898.999
 20
1465.499
 30
0
 11
10943.999
 21
1465.499
 31
0
 0
ARC
 8
TOOL_0
 5
66
 10
10908.999
 20
1465.499
 30
0
 40
35.0
 50
0
 51
180.0
210
0
220
0
230
1.0
 0
ARC
 8
TOOL_0
 5
67
 10
10908.999
 20
1465.499
 30
0
 40
35.0
 50
180.0
 51
0
210
0
220
0
230
1.0
 0
LINE
 8
TOOL_0
 5
68
 10
10943.999
 20
1465.499
 30
0
 11
11283.999
 21
425.499
 31
0
 0
LINE
 8
TOOL_0
 5
69
 10
11283.999
 20
425.499
 30
0
 11
11328.999
 21
425.499
 31
0
 0
ARC
 8
TOOL_0
 5
6A
 10
11293.999
 20
425.499
 30
0
 40
35.0
 50
0
 51
180.0
210
0
220
0
230
1.0
 0
ARC
 8
TOOL_0
 5
6B
 10
11293.999
 20
425.499
 30
0
 40
35.0
 50
180.0
 51
0
210
0
220
0
230
1.0
 0
LINE
 8
TOOL_0
 5
6C
 10
11328.999
 20
425.499
 30
0
 11
11980.999
 21
681.999
 31
0
 0
LINE
 8
TOOL_0
 5
6D
 10
11980.999
 20
681.999
 30
0
 11
11980.999
 21
631.999
 31
0
 0
LINE
 8
TOOL_0
 5
6E
 10
11980.999
 20
631.999
 30
0
 11
11980.999
 21
18.999
 31
0
 0
LINE
 8
TOOL_0
 5
6F
 10
11980.999
 20
18.999
 30
0
 11
7536.999
 21
18.999
 31
0
 0
LINE
 8
TOOL_0
 5
70
 10
7536.999
 20
18.999
 30
0
 11
7536.999
 21
631.999
 31
0
 0
LINE
 8
TOOL_0
 5
71
 10
7536.999
 20
631.999
 30
0
 11
8151.499
 21
631.999
 31
0
 0
ARC
 8
TOOL_0
 5
72
 10
8151.499
 20
695.499
 30
0
 40
63.5
 50
270.0
 51
314.999361983681
210
0
220
0
230
1.0
 0
LINE
 8
TOOL_0
 5
73
 10
8196.4
 20
650.597
 30
0
 11
8223.9
 21
678.097
 31
0
 0
ARC
 8
TOOL_0
 5
74
 10
8178.813
 20
723.078
 30
0
 40
63.687737673747
 50
315.067430717063
 51
358.508231460464
210
0
220
0
230
1.0
 0
ARC
 8
TOOL_0
 5
75
 10
8259.682
 20
722.166
 30
0
 40
17.219167372437
 50
169.746641564247
 51
182.483048854123
210
0
220
0
230
1.0
 0
ARC
 8
TOOL_0
 5
76
 10
8230.672
 20
729.596
 30
0
 40
12.831273553316
 50
340.111886593484
 51
358.450394664125
210
0
220
0
230
1.0
 0
LINE
 8
TOOL_0
 5
77
 10
8243.499
 20
729.249
 30
0
 11
8243.499
 21
1535.497
 31
0
 0
ARC
 8
TOOL_0
 5
78
 10
8273.999
 20
1535.497
 30
0
 40
30.5
 50
90.0
 51
180.0
210
0
220
0
230
1.0
 0
LINE
 8
TOOL_0
 5
79
 10
8273.999
 20
1565.997
 30
0
 11
11243.999
 21
1565.997
 31
0
 0
ARC
 8
TOOL_0
 5
7A
 10
11243.999
 20
1535.497
 30
0
 40
30.5
 50
0
 51
90.0
210
0
220
0
230
1.0
 0
LINE
 8
TOOL_0
 5
7B
 10
11274.499
 20
1535.497
 30
0
 11
11274.499
 21
729.242
 31
0
 0
ARC
 8
TOOL_0
 5
7C
 10
11283.999
 20
729.242
 30
0
 40
9.5
 50
180.0
 51
191.955751267994
210
0
220
0
230
1.0
 0
ARC
 8
TOOL_0
 5
7D
 10
11258.42
 20
721.921
 30
0
 40
17.142223718059
 50
5.43953981028
 51
18.196076864045
210
0
220
0
230
1.0
 0
ARC
 8
TOOL_0
 5
7E
 10
11339.147
 20
723.081
 30
0
 40
63.663698203922
 50
179.581507591912
 51
224.959271727666
210
0
220
0
230
1.0
 0
LINE
 8
TOOL_0
 5
7F
 10
11294.098
 20
678.096
 30
0
 11
11321.598
 21
650.596
 31
0
 0
ARC
 8
TOOL_0
 5
80
 10
11366.499
 20
695.497
 30
0
 40
63.499603164114
 50
225.0
 51
270.0
210
0
220
0
230
1.0
 0
LINE
 8
TOOL_0
 5
81
 10
11366.499
 20
631.997
 30
0
 11
11980.999
 21
631.997
 31
0
 0
LINE
 8
TOOL_0
 5
82
 10
11980.999
 20
631.997
 30
0
 11
11990.999
 21
631.997
 31
0
 0
LINE
 8
TOOL_0
 5
83
 10
11990.999
 20
631.997
 30
0
 11
405.0
 21
1368.976
 31
0
 0
LINE
 8
TOOL_0
 5
84
 10
405.0
 20
1368.976
 30
0
 11
450.0
 21
1368.976
 31
0
 0
LINE
 8
TOOL_0
 5
85
 10
450.0
 20
1368.976
 30
0
 11
450.0
 21
1446.476
 31
0
 0
ARC
 8
TOOL_0
 5
86
 10
415.0
 20
1446.476
 30
0
 40
35.0
 50
0
 51
90.0
210
0
220
0
230
1.0
 0
LINE
 8
TOOL_0
 5
87
 10
415.0
 20
1481.476
 30
0
 11
190.0
 21
1481.476
 31
0
 0
ARC
 8
TOOL_0
 5
88
 10
190.0
 20
1446.476
 30
0
 40
35.0
 50
90.0
 51
180.0
210
0
220
0
230
1.0
 0
LINE
 8
TOOL_0
 5
89
 10
155.0
 20
1446.476
 30
0
 11
155.0
 21
1291.476
 31
0
 0
ARC
 8
TOOL_0
 5
8A
 10
190.0
 20
1291.476
 30
0
 40
35.0
 50
180.0
 51
270.0
210
0
220
0
230
1.0
 0
LINE
 8
TOOL_0
 5
8B
 10
190.0
 20
1256.476
 30
0
 11
415.0
 21
1256.476
 31
0
 0
ARC
 8
TOOL_0
 5
8C
 10
415.0
 20
1291.476
 30
0
 40
35.0
 50
270.0
 51
0
210
0
220
0
230
1.0
 0
LINE
 8
TOOL_0
 5
8D
 10
450.0
 20
1291.476
 30
0
 11
450.0
 21
1368.976
 31
0
 0
LINE
 8
TOOL_0
 5
8E
 10
450.0
 20
1368.976
 30
0
 11
405.0
 21
1003.976
 31
0
 0
LINE
 8
TOOL_0
 5
8F
 10
405.0
 20
1003.976
 30
0
 11
450.0
 21
1003.976
 31
0
 0
LINE
 8
TOOL_0
 5
90
 10
450.0
 20
1003.976
 30
0
 11
450.0
 21
1081.476
 31
0
 0
ARC
 8
TOOL_0
 5
91
 10
415.0
 20
1081.476
 30
0
 40
35.0
 50
0
 51
90.0
210
0
220
0
230
1.0
 0
LINE
 8
TOOL_0
 5
92
 10
415.0
 20
1116.476
 30
0
 11
150.0
 21
1116.476
 31
0
 0
ARC
 8
TOOL_0
 5
93
 10
150.0
 20
1081.476
 30
0
 40
35.0
 50
90.0
 51
180.0
210
0
220
0
230
1.0
 0
LINE
 8
TOOL_0
 5
94
 10
115.0
 20
1081.476
 30
0
 11
115.0
 21
926.476
 31
0
 0
ARC
 8
TOOL_0
 5
95
 10
150.0
 20
926.476
 30
0
 40
35.0
 50
180.0
 51
270.0
210
0
220
0
230
1.0
 0
LINE
 8
TOOL_0
 5
96
 10
150.0
 20
891.476
 30
0
 11
415.0
 21
891.476
 31
0
 0
ARC
 8
TOOL_0
 5
97
 10
415.0
 20
926.476
 30
0
 40
35.0
 50
270.0
 51
0
210
0
220
0
230
1.0
 0
LINE
 8
TOOL_0
 5
98
 10
450.0
 20
926.476
 30
0
 11
450.0
 21
1003.976
 31
0
 0
LINE
 8
TOOL_0
 5
99
 10
450.0
 20
1003.976
 30
0
 11
150.871
 21
650.076
 31
0
 0
LINE
 8
TOOL_0
 5
9A
 10
150.871
 20
650.076
 30
0
 11
105.0
 21
650.076
 31
0
 0
LINE
 8
TOOL_0
 5
9B
 10
105.0
 20
650.076
 30
0
 11
49.986
 21
650.076
 31
0
 0
LINE
 8
TOOL_0
 5
9C
 10
49.986
 20
650.076
 30
0
 11
39.0
 21
661.062
 31
0
 0
LINE
 8
TOOL_0
 5
9D
 10
39.0
 20
661.062
 30
0
 11
39.0
 21
772.476
 31
0
 0
ARC
 8
TOOL_0
 5
9E
 10
31.0
 20
772.476
 30
0
 40
8.0
 50
0
 51
90.0
210
0
220
0
230
1.0
 0
LINE
 8
TOOL_0
 5
9F
 10
31.0
 20
780.476
 30
0
 11
19.0
 21
780.476
 31
0
 0
LINE
 8
TOOL_0
 5
A0
 10
19.0
 20
780.476
 30
0
 11
19.0
 21
1251.476
 31
0
 0
LINE
 8
TOOL_0
 5
A1
 10
19.0
 20
1251.476
 30
0
 11
31.0
 21
1251.476
 31
0
 0
ARC
 8
TOOL_0
 5
A2
 10
31.0
 20
1259.476
 30
0
 40
8.0
 50
270.0
 51
0
210
0
220
0
230
1.0
 0
LINE
 8
TOOL_0
 5
A3
 10
39.0
 20
1259.476
 30
0
 11
39.0
 21
1413.476
 31
0
 0
ARC
 8
TOOL_0
 5
A4
 10
31.0
 20
1413.476
 30
0
 40
8.0
 50
0
 51
90.0
210
0
220
0
230
1.0
 0
LINE
 8
TOOL_0
 5
A5
 10
31.0
 20
1421.476
 30
0
 11
19.0
 21
1421.476
 31
0
 0
LINE
 8
TOOL_0
 5
A6
 10
19.0
 20
1421.476
 30
0
 11
19.0
 21
1947.476
 31
0
 0
LINE
 8
TOOL_0
 5
A7
 10
19.0
 20
1947.476
 30
0
 11
26.0
 21
1947.476
 31
0
 0
ARC
 8
TOOL_0
 5
A8
 10
26.0
 20
1955.476
 30
0
 40
8.0
 50
270.0
 51
0
210
0
220
0
230
1.0
 0
LINE
 8
TOOL_0
 5
A9
 10
34.0
 20
1955.476
 30
0
 11
34.0
 21
2192.876
 31
0
 0
LINE
 8
TOOL_0
 5
AA
 10
34.0
 20
2192.876
 30
0
 11
362.588
 21
2192.876
 31
0
 0
LINE
 8
TOOL_0
 5
AB
 10
362.588
 20
2192.876
 30
0
 11
615.0
 21
1434.601
 31
0
 0
LINE
 8
TOOL_0
 5
AC
 10
615.0
 20
1434.601
 30
0
 11
615.0
 21
929.763
 31
0
 0
ARC
 8
TOOL_0
 5
AD
 10
515.0
 20
929.763
 30
0
 40
100.0
 50
316.665781797872
 51
0
210
0
220
0
230
1.0
 0
LINE
 8
TOOL_0
 5
AE
 10
587.736
 20
861.138
 30
0
 11
388.604
 21
650.076
 31
0
 0
LINE
 8
TOOL_0
 5
AF
 10
388.604
 20
650.076
 30
0
 11
265.0
 21
650.076
 31
0
 0
LINE
 8
TOOL_0
 5
B0
 10
265.0
 20
650.076
 30
0
 11
265.0
 21
671.476
 31
0
 0
ARC
 8
TOOL_0
 5
B1
 10
185.0
 20
671.476
 30
0
 40
80.0
 50
0
 51
180.0
210
0
220
0
230
1.0
 0
LINE
 8
TOOL_0
 5
B2
 10
105.0
 20
671.476
 30
0
 11
105.0
 21
650.076
 31
0
 0
LINE
 8
TOOL_0
 5
B3
 10
105.0
 20
650.076
 30
0
 11
105.0
 21
641.634
 31
0
 0
LINE
 8
TOOL_0
 5
B4
 10
105.0
 20
641.634
 30
0
 11
1927.822
 21
2020.819
 31
0
 0
LINE
 8
TOOL_0
 5
B5
 10
1927.822
 20
2020.819
 30
0
 11
1972.822
 21
2020.819
 31
0
 0
LINE
 8
TOOL_0
 5
B6
 10
1972.822
 20
2020.819
 30
0
 11
1972.822
 21
2133.319
 31
0
 0
ARC
 8
TOOL_0
 5
B7
 10
1937.822
 20
2133.319
 30
0
 40
35.0
 50
0
 51
90.0
210
0
220
0
230
1.0
 0
LINE
 8
TOOL_0
 5
B8
 10
1937.822
 20
2168.319
 30
0
 11
1782.822
 21
2168.319
 31
0
 0
ARC
 8
TOOL_0
 5
B9
 10
1782.822
 20
2133.319
 30
0
 40
35.0
 50
90.0
 51
180.0
210
0
220
0
230
1.0
 0
LINE
 8
TOOL_0
 5
BA
 10
1747.822
 20
2133.319
 30
0
 11
1747.822
 21
1908.319
 31
0
 0
ARC
 8
TOOL_0
 5
BB
 10
1782.822
 20
1908.319
 30
0
 40
35.0
 50
180.0
 51
270.0
210
0
220
0
230
1.0
 0
LINE
 8
TOOL_0
 5
BC
 10
1782.822
 20
1873.319
 30
0
 11
1937.822
 21
1873.319
 31
0
 0
ARC
 8
TOOL_0
 5
BD
 10
1937.822
 20
1908.319
 30
0
 40
35.0
 50
270.0
 51
0
210
0
220
0
230
1.0
 0
LINE
 8
TOOL_0
 5
BE
 10
1972.822
 20
1908.319
 30
0
 11
1972.822
 21
2020.819
 31
0
 0
LINE
 8
TOOL_0
 5
BF
 10
1972.822
 20
2020.819
 30
0
 11
2542.822
 21
2040.819
 31
0
 0
LINE
 8
TOOL_0
 5
C0
 10
2542.822
 20
2040.819
 30
0
 11
2587.822
 21
2040.819
 31
0
 0
LINE
 8
TOOL_0
 5
C1
 10
2587.822
 20
2040.819
 30
0
 11
2587.822
 21
2173.319
 31
0
 0
ARC
 8
TOOL_0
 5
C2
 10
2552.822
 20
2173.319
 30
0
 40
35.0
 50
0
 51
90.0
210
0
220
0
230
1.0
 0
LINE
 8
TOOL_0
 5
C3
 10
2552.822
 20
2208.319
 30
0
 11
2397.822
 21
2208.319
 31
0
 0
ARC
 8
TOOL_0
 5
C4
 10
2397.822
 20
2173.319
 30
0
 40
35.0
 50
90.0
 51
180.0
210
0
220
0
230
1.0
 0
LINE
 8
TOOL_0
 5
C5
 10
2362.822
 20
2173.319
 30
0
 11
2362.822
 21
1908.319
 31
0
 0
ARC
 8
TOOL_0
 5
C6
 10
2397.822
 20
1908.319
 30
0
 40
35.0
 50
180.0
 51
270.0
210
0
220
0
230
1.0
 0
LINE
 8
TOOL_0
 5
C7
 10
2397.822
 20
1873.319
 30
0
 11
2552.822
 21
1873.319
 31
0
 0
ARC
 8
TOOL_0
 5
C8
 10
2552.822
 20
1908.319
 30
0
 40
35.0
 50
270.0
 51
0
210
0
220
0
230
1.0
 0
LINE
 8
TOOL_0
 5
C9
 10
2587.822
 20
1908.319
 30
0
 11
2587.822
 21
2040.819
 31
0
 0
LINE
 8
TOOL_0
 5
CA
 10
2587.822
 20
2040.819
 30
0
 11
2778.822
 21
2154.819
 31
0
 0
LINE
 8
TOOL_0
 5
CB
 10
2778.822
 20
2154.819
 30
0
 11
2778.822
 21
2094.319
 31
0
 0
LINE
 8
TOOL_0
 5
CC
 10
2778.822
 20
2094.319
 30
0
 11
2778.822
 21
1985.105
 31
0
 0
LINE
 8
TOOL_0
 5
CD
 10
2778.822
 20
1985.105
 30
0
 11
2681.209
 21
1767.916
 31
0
 0
ARC
 8
TOOL_0
 5
CE
 10
2589.086
 20
1809.32
 30
0
 40
100.999694776767
 50
269.999432715054
 51
335.798819111463
210
0
220
0
230
1.0
 0
LINE
 8
TOOL_0
 5
CF
 10
2589.085
 20
1708.32
 30
0
 11
1658.754
 21
1708.32
 31
0
 0
LINE
 8
TOOL_0
 5
D0
 10
1658.754
 20
1708.32
 30
0
 11
788.194
 21
1899.232
 31
0
 0
ARC
 8
TOOL_0
 5
D1
 10
766.806
 20
1800.865
 30
0
 40
100.665352693963
 50
77.733074096339
 51
89.897549005903
210
0
220
0
230
1.0
 0
LINE
 8
TOOL_0
 5
D2
 10
766.986
 20
1901.53
 30
0
 11
484.323
 21
1901.53
 31
0
 0
ARC
 8
TOOL_0
 5
D3
 10
484.323
 20
1909.53
 30
0
 40
8.0
 50
180.0
 51
270.0
210
0
220
0
230
1.0
 0
LINE
 8
TOOL_0
 5
D4
 10
476.323
 20
1909.53
 30
0
 11
476.323
 21
2339.319
 31
0
 0
LINE
 8
TOOL_0
 5
D5
 10
476.323
 20
2339.319
 30
0
 11
2638.418
 21
2339.319
 31
0
 0
ARC
 8
TOOL_0
 5
D6
 10
2646.518
 20
2343.38
 30
0
 40
9.061
 50
206.627264624288
 51
269.79133071799
210
0
220
0
230
1.0
 0
LINE
 8
TOOL_0
 5
D7
 10
2646.485
 20
2334.319
 30
0
 11
2768.237
 21
2334.319
 31
0
 0
LINE
 8
TOOL_0
 5
D8
 10
2768.237
 20
2334.319
 30
0
 11
2778.823
 21
2323.733
 31
0
 0
LINE
 8
TOOL_0
 5
D9
 10
2778.823
 20
2323.733
 30
0
 11
2778.823
 21
2252.319
 31
0
 0
LINE
 8
TOOL_0
 5
DA
 10
2778.823
 20
2252.319
 30
0
 11
2757.823
 21
2252.319
 31
0
 0
ARC
 8
TOOL_0
 5
DB
 10
2757.823
 20
2173.319
 30
0
 40
79.0
 50
90.0
 51
270.0
210
0
220
0
230
1.0
 0
LINE
 8
TOOL_0
 5
DC
 10
2757.823
 20
2094.319
 30
0
 11
2778.823
 21
2094.319
 31
0
 0
LINE
 8
TOOL_0
 5
DD
 10
2778.823
 20
2094.319
 30
0
 11
2790.397
 21
2094.319
 31
0
 0
LINE
 8
TOOL_0
 5
DE
 10
2790.397
 20
2094.319
 30
0
 11
4248.505
 21
1952.104
 31
0
 0
LINE
 8
TOOL_0
 5
DF
 10
4248.505
 20
1952.104
 30
0
 11
4293.505
 21
1952.104
 31
0
 0
LINE
 8
TOOL_0
 5
E0
 10
4293.505
 20
1952.104
 30
0
 11
4293.505
 21
2064.604
 31
0
 0
ARC
 8
TOOL_0
 5
E1
 10
4258.505
 20
2064.604
 30
0
 40
35.0
 50
0
 51
90.0
210
0
220
0
230
1.0
 0
LINE
 8
TOOL_0
 5
E2
 10
4258.505
 20
2099.604
 30
0
 11
4103.505
 21
2099.604
 31
0
 0
ARC
 8
TOOL_0
 5
E3
 10
4103.505
 20
2064.604
 30
0
 40
35.0
 50
90.0
 51
180.0
210
0
220
0
230
1.0
 0
LINE
 8
TOOL_0
 5
E4
 10
4068.505
 20
2064.604
 30
0
 11
4068.505
 21
1839.604
 31
0
 0
ARC
 8
TOOL_0
 5
E5
 10
4103.505
 20
1839.604
 30
0
 40
35.0
 50
180.0
 51
270.0
210
0
220
0
230
1.0
 0
LINE
 8
TOOL_0
 5
E6
 10
4103.505
 20
1804.604
 30
0
 11
4258.505
 21
1804.604
 31
0
 0
ARC
 8
TOOL_0
 5
E7
 10
4258.505
 20
1839.604
 30
0
 40
35.0
 50
270.0
 51
0
210
0
220
0
230
1.0
 0
LINE
 8
TOOL_0
 5
E8
 10
4293.505
 20
1839.604
 30
0
 11
4293.505
 21
1952.104
 31
0
 0
LINE
 8
TOOL_0
 5
E9
 10
4293.505
 20
1952.104
 30
0
 11
4863.505
 21
1932.104
 31
0
 0
LINE
 8
TOOL_0
 5
EA
 10
4863.505
 20
1932.104
 30
0
 11
4908.505
 21
1932.104
 31
0
 0
LINE
 8
TOOL_0
 5
EB
 10
4908.505
 20
1932.104
 30
0
 11
4908.505
 21
2064.604
 31
0
 0
ARC
 8
TOOL_0
 5
EC
 10
4873.505
 20
2064.604
 30
0
 40
35.0
 50
0
 51
90.0
210
0
220
0
230
1.0
 0
LINE
 8
TOOL_0
 5
ED
 10
4873.505
 20
2099.604
 30
0
 11
4718.505
 21
2099.604
 31
0
 0
ARC
 8
TOOL_0
 5
EE
 10
4718.505
 20
2064.604
 30
0
 40
35.0
 50
90.0
 51
180.0
210
0
220
0
230
1.0
 0
LINE
 8
TOOL_0
 5
EF
 10
4683.505
 20
2064.604
 30
0
 11
4683.505
 21
1799.604
 31
0
 0
ARC
 8
TOOL_0
 5
F0
 10
4718.505
 20
1799.604
 30
0
 40
35.0
 50
180.0
 51
270.0
210
0
220
0
230
1.0
 0
LINE
 8
TOOL_0
 5
F1
 10
4718.505
 20
1764.604
 30
0
 11
4873.505
 21
1764.604
 31
0
 0
ARC
 8
TOOL_0
 5
F2
 10
4873.505
 20
1799.604
 30
0
 40
35.0
 50
270.0
 51
0
210
0
220
0
230
1.0
 0
LINE
 8
TOOL_0
 5
F3
 10
4908.505
 20
1799.604
 30
0
 11
4908.505
 21
1932.104
 31
0
 0
LINE
 8
TOOL_0
 5
F4
 10
4908.505
 20
1932.104
 30
0
 11
5099.505
 21
1750.187
 31
0
 0
LINE
 8
TOOL_0
 5
F5
 10
5099.505
 20
1750.187
 30
0
 11
5099.505
 21
1720.604
 31
0
 0
LINE
 8
TOOL_0
 5
F6
 10
5099.505
 20
1720.604
 30
0
 11
5099.505
 21
1649.19
 31
0
 0
LINE
 8
TOOL_0
 5
F7
 10
5099.505
 20
1649.19
 30
0
 11
5088.919
 21
1638.604
 31
0
 0
LINE
 8
TOOL_0
 5
F8
 10
5088.919
 20
1638.604
 30
0
 11
4967.167
 21
1638.604
 31
0
 0
ARC
 8
TOOL_0
 5
F9
 10
4967.201
 20
1629.543
 30
0
 40
9.061063789644
 50
90.214992535102
 51
153.375569119077
210
0
220
0
230
1.0
 0
LINE
 8
TOOL_0
 5
FA
 10
4959.1
 20
1633.604
 30
0
 11
2797.005
 21
1633.604
 31
0
 0
LINE
 8
TOOL_0
 5
FB
 10
2797.005
 20
1633.604
 30
0
 11
2797.005
 21
2063.394
 31
0
 0
ARC
 8
TOOL_0
 5
FC
 10
2805.005
 20
2063.394
 30
0
 40
8.0
 50
90.0
 51
180.0
210
0
220
0
230
1.0
 0
LINE
 8
TOOL_0
 5
FD
 10
2805.005
 20
2071.394
 30
0
 11
3087.668
 21
2071.394
 31
0
 0
ARC
 8
TOOL_0
 5
FE
 10
3087.488
 20
2172.059
 30
0
 40
100.665160929688
 50
270.102450994097
 51
282.266925903661
210
0
220
0
230
1.0
 0
LINE
 8
TOOL_0
 5
FF
 10
3108.876
 20
2073.692
 30
0
 11
3979.437
 21
2264.604
 31
0
 0
LINE
 8
TOOL_0
 5
100
 10
3979.437
 20
2264.604
 30
0
 11
4909.769
 21
2264.604
 31
0
 0
ARC
 8
TOOL_0
 5
101
 10
4909.769
 20
2163.604
 30
0
 40
101.0
 50
24.201180888537
 51
90.0
210
0
220
0
230
1.0
 0
LINE
 8
TOOL_0
 5
102
 10
5001.892
 20
2205.008
 30
0
 11
5099.505
 21
1987.819
 31
0
 0
LINE
 8
TOOL_0
 5
103
 10
5099.505
 20
1987.819
 30
0
 11
5099.505
 21
1878.605
 31
0
 0
LINE
 8
TOOL_0
 5
104
 10
5099.505
 20
1878.605
 30
0
 11
5078.505
 21
1878.605
 31
0
 0
ARC
 8
TOOL_0
 5
105
 10
5078.505
 20
1799.605
 30
0
 40
79.0
 50
90.0
 51
270.0
210
0
220
0
230
1.0
 0
LINE
 8
TOOL_0
 5
106
 10
5078.505
 20
1720.605
 30
0
 11
5099.505
 21
1720.605
 31
0
 0
LINE
 8
TOOL_0
 5
107
 10
5099.505
 20
1720.605
 30
0
 11
5106.083
 21
1720.605
 31
0
 0
LINE
 8
TOOL_0
 5
108
 10
5106.083
 20
1720.605
 30
0
 11
6013.389
 21
2072.746
 31
0
 0
LINE
 8
TOOL_0
 5
109
 10
6013.389
 20
2072.746
 30
0
 11
6058.389
 21
2072.746
 31
0
 0
LINE
 8
TOOL_0
 5
10A
 10
6058.389
 20
2072.746
 30
0
 11
6058.389
 21
2185.246
 31
0
 0
ARC
 8
TOOL_0
 5
10B
 10
6023.389
 20
2185.246
 30
0
 40
35.0
 50
0
 51
90.0
210
0
220
0
230
1.0
 0
LINE
 8
TOOL_0
 5
10C
 10
6023.389
 20
2220.246
 30
0
 11
5868.389
 21
2220.246
 31
0
 0
ARC
 8
TOOL_0
 5
10D
 10
5868.389
 20
2185.246
 30
0
 40
35.0
 50
90.0
 51
180.0
210
0
220
0
230
1.0
 0
LINE
 8
TOOL_0
 5
10E
 10
5833.389
 20
2185.246
 30
0
 11
5833.389
 21
1960.246
 31
0
 0
ARC
 8
TOOL_0
 5
10F
 10
5868.389
 20
1960.246
 30
0
 40
35.0
 50
180.0
 51
270.0
210
0
220
0
230
1.0
 0
LINE
 8
TOOL_0
 5
110
 10
5868.389
 20
1925.246
 30
0
 11
6023.389
 21
1925.246
 31
0
 0
ARC
 8
TOOL_0
 5
111
 10
6023.389
 20
1960.246
 30
0
 40
35.0
 50
270.0
 51
0
210
0
220
0
230
1.0
 0
LINE
 8
TOOL_0
 5
112
 10
6058.389
 20
1960.246
 30
0
 11
6058.389
 21
2072.746
 31
0
 0
LINE
 8
TOOL_0
 5
113
 10
6058.389
 20
2072.746
 30
0
 11
6378.389
 21
2072.746
 31
0
 0
LINE
 8
TOOL_0
 5
114
 10
6378.389
 20
2072.746
 30
0
 11
6423.389
 21
2072.746
 31
0
 0
LINE
 8
TOOL_0
 5
115
 10
6423.389
 20
2072.746
 30
0
 11
6423.389
 21
2185.246
 31
0
 0
ARC
 8
TOOL_0
 5
116
 10
6388.389
 20
2185.246
 30
0
 40
35.0
 50
0
 51
90.0
210
0
220
0
230
1.0
 0
LINE
 8
TOOL_0
 5
117
 10
6388.389
 20
2220.246
 30
0
 11
6233.389
 21
2220.246
 31
0
 0
ARC
 8
TOOL_0
 5
118
 10
6233.389
 20
2185.246
 30
0
 40
35.0
 50
90.0
 51
180.0
210
0
220
0
230
1.0
 0
LINE
 8
TOOL_0
 5
119
 10
6198.389
 20
2185.246
 30
0
 11
6198.389
 21
1960.246
 31
0
 0
ARC
 8
TOOL_0
 5
11A
 10
6233.389
 20
1960.246
 30
0
 40
35.0
 50
180.0
 51
270.0
210
0
220
0
230
1.0
 0
LINE
 8
TOOL_0
 5
11B
 10
6233.389
 20
1925.246
 30
0
 11
6388.389
 21
1925.246
 31
0
 0
ARC
 8
TOOL_0
 5
11C
 10
6388.389
 20
1960.246
 30
0
 40
35.0
 50
270.0
 51
0
210
0
220
0
230
1.0
 0
LINE
 8
TOOL_0
 5
11D
 10
6423.389
 20
1960.246
 30
0
 11
6423.389
 21
2072.746
 31
0
 0
LINE
 8
TOOL_0
 5
11E
 10
6423.389
 20
2072.746
 30
0
 11
6408.389
 21
1745.246
 31
0
 0
LINE
 8
TOOL_0
 5
11F
 10
6408.389
 20
1745.246
 30
0
 11
6453.389
 21
1745.246
 31
0
 0
LINE
 8
TOOL_0
 5
120
 10
6453.389
 20
1745.246
 30
0
 11
6453.389
 21
1785.246
 31
0
 0
ARC
 8
TOOL_0
 5
121
 10
6418.389
 20
1785.246
 30
0
 40
35.0
 50
0
 51
90.0
210
0
220
0
230
1.0
 0
LINE
 8
TOOL_0
 5
122
 10
6418.389
 20
1820.246
 30
0
 11
6208.389
 21
1820.246
 31
0
 0
ARC
 8
TOOL_0
 5
123
 10
6208.389
 20
1785.246
 30
0
 40
35.0
 50
90.0
 51
180.0
210
0
220
0
230
1.0
 0
LINE
 8
TOOL_0
 5
124
 10
6173.389
 20
1785.246
 30
0
 11
6173.389
 21
1705.246
 31
0
 0
ARC
 8
TOOL_0
 5
125
 10
6208.389
 20
1705.246
 30
0
 40
35.0
 50
180.0
 51
270.0
210
0
220
0
230
1.0
 0
LINE
 8
TOOL_0
 5
126
 10
6208.389
 20
1670.246
 30
0
 11
6418.389
 21
1670.246
 31
0
 0
ARC
 8
TOOL_0
 5
127
 10
6418.389
 20
1705.246
 30
0
 40
35.0
 50
270.0
 51
0
210
0
220
0
230
1.0
 0
LINE
 8
TOOL_0
 5
128
 10
6453.389
 20
1705.246
 30
0
 11
6453.389
 21
1745.246
 31
0
 0
LINE
 8
TOOL_0
 5
129
 10
6453.389
 20
1745.246
 30
0
 11
6663.944
 21
1716.619
 31
0
 0
LINE
 8
TOOL_0
 5
12A
 10
6663.944
 20
1716.619
 30
0
 11
6664.139
 21
1680.996
 31
0
 0
LINE
 8
TOOL_0
 5
12B
 10
6664.139
 20
1680.996
 30
0
 11
6664.139
 21
1624.935
 31
0
 0
LINE
 8
TOOL_0
 5
12C
 10
6664.139
 20
1624.935
 30
0
 11
6653.7
 21
1614.496
 31
0
 0
LINE
 8
TOOL_0
 5
12D
 10
6653.7
 20
1614.496
 30
0
 11
6541.389
 21
1614.496
 31
0
 0
ARC
 8
TOOL_0
 5
12E
 10
6541.389
 20
1607.246
 30
0
 40
7.25
 50
90.0
 51
180.0
210
0
220
0
230
1.0
 0
LINE
 8
TOOL_0
 5
12F
 10
6534.139
 20
1607.246
 30
0
 11
6534.139
 21
1594.496
 31
0
 0
LINE
 8
TOOL_0
 5
130
 10
6534.139
 20
1594.496
 30
0
 11
6062.639
 21
1594.496
 31
0
 0
LINE
 8
TOOL_0
 5
131
 10
6062.639
 20
1594.496
 30
0
 11
6062.639
 21
1607.246
 31
0
 0
ARC
 8
TOOL_0
 5
132
 10
6055.389
 20
1607.246
 30
0
 40
7.25
 50
0
 51
90.0
210
0
220
0
230
1.0
 0
LINE
 8
TOOL_0
 5
133
 10
6055.389
 20
1614.496
 30
0
 11
5851.389
 21
1614.496
 31
0
 0
ARC
 8
TOOL_0
 5
134
 10
5851.389
 20
1607.246
 30
0
 40
7.25
 50
90.0
 51
180.0
210
0
220
0
230
1.0
 0
LINE
 8
TOOL_0
 5
135
 10
5844.139
 20
1607.246
 30
0
 11
5844.139
 21
1594.496
 31
0
 0
LINE
 8
TOOL_0
 5
136
 10
5844.139
 20
1594.496
 30
0
 11
5337.639
 21
1594.496
 31
0
 0
LINE
 8
TOOL_0
 5
137
 10
5337.639
 20
1594.496
 30
0
 11
5337.639
 21
1602.246
 31
0
 0
ARC
 8
TOOL_0
 5
138
 10
5330.389
 20
1602.246
 30
0
 40
7.25
 50
0
 51
90.0
210
0
220
0
230
1.0
 0
LINE
 8
TOOL_0
 5
139
 10
5330.389
 20
1609.496
 30
0
 11
5122.639
 21
1609.496
 31
0
 0
LINE
 8
TOOL_0
 5
13A
 10
5122.639
 20
1609.496
 30
0
 11
5122.639
 21
2132.787
 31
0
 0
LINE
 8
TOOL_0
 5
13B
 10
5122.639
 20
2132.787
 30
0
 11
5868.288
 21
2380.996
 31
0
 0
LINE
 8
TOOL_0
 5
13C
 10
5868.288
 20
2380.996
 30
0
 11
6383.595
 21
2380.996
 31
0
 0
ARC
 8
TOOL_0
 5
13D
 10
6383.595
 20
2280.246
 30
0
 40
100.75
 50
47.367177734702
 51
90.0
210
0
220
0
230
1.0
 0
LINE
 8
TOOL_0
 5
13E
 10
6451.833
 20
2354.369
 30
0
 11
6631.692
 21
2188.499
 31
0
 0
ARC
 8
TOOL_0
 5
13F
 10
6563.389
 20
2114.436
 30
0
 40
100.750323959777
 50
0
 51
47.316871939059
210
0
220
0
230
1.0
 0
LINE
 8
TOOL_0
 5
140
 10
6664.139
 20
2114.436
 30
0
 11
6664.139
 21
1839.497
 31
0
 0
LINE
 8
TOOL_0
 5
141
 10
6664.139
 20
1839.497
 30
0
 11
6643.389
 21
1839.497
 31
0
 0
ARC
 8
TOOL_0
 5
142
 10
6643.389
 20
1760.247
 30
0
 40
79.25
 50
90.0
 51
270.0
210
0
220
0
230
1.0
 0
LINE
 8
TOOL_0
 5
143
 10
6643.389
 20
1680.997
 30
0
 11
6664.139
 21
1680.997
 31
0
 0
LINE
 8
TOOL_0
 5
144
 10
6664.139
 20
1680.997
 30
0
 11
6676.482
 21
1678.888
 31
0
 0
LINE
 8
TOOL_0
 5
145
 10
6676.482
 20
1678.888
 30
0
 11
7643.506
 21
2072.747
 31
0
 0
LINE
 8
TOOL_0
 5
146
 10
7643.506
 20
2072.747
 30
0
 11
7688.506
 21
2072.747
 31
0
 0
LINE
 8
TOOL_0
 5
147
 10
7688.506
 20
2072.747
 30
0
 11
7688.506
 21
2185.247
 31
0
 0
ARC
 8
TOOL_0
 5
148
 10
7653.506
 20
2185.247
 30
0
 40
35.0
 50
0
 51
90.0
210
0
220
0
230
1.0
 0
LINE
 8
TOOL_0
 5
149
 10
7653.506
 20
2220.247
 30
0
 11
7498.506
 21
2220.247
 31
0
 0
ARC
 8
TOOL_0
 5
14A
 10
7498.506
 20
2185.247
 30
0
 40
35.0
 50
90.0
 51
180.0
210
0
220
0
230
1.0
 0
LINE
 8
TOOL_0
 5
14B
 10
7463.506
 20
2185.247
 30
0
 11
7463.506
 21
1960.247
 31
0
 0
ARC
 8
TOOL_0
 5
14C
 10
7498.506
 20
1960.247
 30
0
 40
35.0
 50
180.0
 51
270.0
210
0
220
0
230
1.0
 0
LINE
 8
TOOL_0
 5
14D
 10
7498.506
 20
1925.247
 30
0
 11
7653.506
 21
1925.247
 31
0
 0
ARC
 8
TOOL_0
 5
14E
 10
7653.506
 20
1960.247
 30
0
 40
35.0
 50
270.0
 51
0
210
0
220
0
230
1.0
 0
LINE
 8
TOOL_0
 5
14F
 10
7688.506
 20
1960.247
 30
0
 11
7688.506
 21
2072.747
 31
0
 0
LINE
 8
TOOL_0
 5
150
 10
7688.506
 20
2072.747
 30
0
 11
8008.506
 21
2072.747
 31
0
 0
LINE
 8
TOOL_0
 5
151
 10
8008.506
 20
2072.747
 30
0
 11
8053.506
 21
2072.747
 31
0
 0
LINE
 8
TOOL_0
 5
152
 10
8053.506
 20
2072.747
 30
0
 11
8053.506
 21
2185.247
 31
0
 0
ARC
 8
TOOL_0
 5
153
 10
8018.506
 20
2185.247
 30
0
 40
35.0
 50
0
 51
90.0
210
0
220
0
230
1.0
 0
LINE
 8
TOOL_0
 5
154
 10
8018.506
 20
2220.247
 30
0
 11
7863.506
 21
2220.247
 31
0
 0
ARC
 8
TOOL_0
 5
155
 10
7863.506
 20
2185.247
 30
0
 40
35.0
 50
90.0
 51
180.0
210
0
220
0
230
1.0
 0
LINE
 8
TOOL_0
 5
156
 10
7828.506
 20
2185.247
 30
0
 11
7828.506
 21
1960.247
 31
0
 0
ARC
 8
TOOL_0
 5
157
 10
7863.506
 20
1960.247
 30
0
 40
35.0
 50
180.0
 51
270.0
210
0
220
0
230
1.0
 0
LINE
 8
TOOL_0
 5
158
 10
7863.506
 20
1925.247
 30
0
 11
8018.506
 21
1925.247
 31
0
 0
ARC
 8
TOOL_0
 5
159
 10
8018.506
 20
1960.247
 30
0
 40
35.0
 50
270.0
 51
0
210
0
220
0
230
1.0
 0
LINE
 8
TOOL_0
 5
15A
 10
8053.506
 20
1960.247
 30
0
 11
8053.506
 21
2072.747
 31
0
 0
LINE
 8
TOOL_0
 5
15B
 10
8053.506
 20
2072.747
 30
0
 11
8038.506
 21
1745.247
 31
0
 0
LINE
 8
TOOL_0
 5
15C
 10
8038.506
 20
1745.247
 30
0
 11
8083.506
 21
1745.247
 31
0
 0
LINE
 8
TOOL_0
 5
15D
 10
8083.506
 20
1745.247
 30
0
 11
8083.506
 21
1785.247
 31
0
 0
ARC
 8
TOOL_0
 5
15E
 10
8048.506
 20
1785.247
 30
0
 40
35.0
 50
0
 51
90.0
210
0
220
0
230
1.0
 0
LINE
 8
TOOL_0
 5
15F
 10
8048.506
 20
1820.247
 30
0
 11
7838.506
 21
1820.247
 31
0
 0
ARC
 8
TOOL_0
 5
160
 10
7838.506
 20
1785.247
 30
0
 40
35.0
 50
90.0
 51
180.0
210
0
220
0
230
1.0
 0
LINE
 8
TOOL_0
 5
161
 10
7803.506
 20
1785.247
 30
0
 11
7803.506
 21
1705.247
 31
0
 0
ARC
 8
TOOL_0
 5
162
 10
7838.506
 20
1705.247
 30
0
 40
35.0
 50
180.0
 51
270.0
210
0
220
0
230
1.0
 0
LINE
 8
TOOL_0
 5
163
 10
7838.506
 20
1670.247
 30
0
 11
8048.506
 21
1670.247
 31
0
 0
ARC
 8
TOOL_0
 5
164
 10
8048.506
 20
1705.247
 30
0
 40
35.0
 50
270.0
 51
0
210
0
220
0
230
1.0
 0
LINE
 8
TOOL_0
 5
165
 10
8083.506
 20
1705.247
 30
0
 11
8083.506
 21
1745.247
 31
0
 0
LINE
 8
TOOL_0
 5
166
 10
8083.506
 20
1745.247
 30
0
 11
8294.256
 21
1711.13
 31
0
 0
LINE
 8
TOOL_0
 5
167
 10
8294.256
 20
1711.13
 30
0
 11
8294.256
 21
1680.997
 31
0
 0
LINE
 8
TOOL_0
 5
168
 10
8294.256
 20
1680.997
 30
0
 11
8294.256
 21
1624.936
 31
0
 0
LINE
 8
TOOL_0
 5
169
 10
8294.256
 20
1624.936
 30
0
 11
8283.817
 21
1614.497
 31
0
 0
LINE
 8
TOOL_0
 5
16A
 10
8283.817
 20
1614.497
 30
0
 11
8171.506
 21
1614.497
 31
0
 0
ARC
 8
TOOL_0
 5
16B
 10
8171.506
 20
1607.247
 30
0
 40
7.25
 50
90.0
 51
180.0
210
0
220
0
230
1.0
 0
LINE
 8
TOOL_0
 5
16C
 10
8164.256
 20
1607.247
 30
0
 11
8164.256
 21
1594.497
 31
0
 0
LINE
 8
TOOL_0
 5
16D
 10
8164.256
 20
1594.497
 30
0
 11
7692.756
 21
1594.497
 31
0
 0
LINE
 8
TOOL_0
 5
16E
 10
7692.756
 20
1594.497
 30
0
 11
7692.756
 21
1607.247
 31
0
 0
ARC
 8
TOOL_0
 5
16F
 10
7685.506
 20
1607.247
 30
0
 40
7.25
 50
0
 51
90.0
210
0
220
0
230
1.0
 0
LINE
 8
TOOL_0
 5
170
 10
7685.506
 20
1614.497
 30
0
 11
7481.506
 21
1614.497
 31
0
 0
ARC
 8
TOOL_0
 5
171
 10
7481.506
 20
1607.247
 30
0
 40
7.25
 50
90.0
 51
180.0
210
0
220
0
230
1.0
 0
LINE
 8
TOOL_0
 5
172
 10
7474.256
 20
1607.247
 30
0
 11
7474.256
 21
1594.497
 31
0
 0
LINE
 8
TOOL_0
 5
173
 10
7474.256
 20
1594.497
 30
0
 11
6967.756
 21
1594.497
 31
0
 0
LINE
 8
TOOL_0
 5
174
 10
6967.756
 20
1594.497
 30
0
 11
6967.756
 21
1602.247
 31
0
 0
ARC
 8
TOOL_0
 5
175
 10
6960.506
 20
1602.247
 30
0
 40
7.25
 50
0
 51
90.0
210
0
220
0
230
1.0
 0
LINE
 8
TOOL_0
 5
176
 10
6960.506
 20
1609.497
 30
0
 11
6752.756
 21
1609.497
 31
0
 0
LINE
 8
TOOL_0
 5
177
 10
6752.756
 20
1609.497
 30
0
 11
6752.756
 21
2132.788
 31
0
 0
LINE
 8
TOOL_0
 5
178
 10
6752.756
 20
2132.788
 30
0
 11
7498.405
 21
2380.997
 31
0
 0
LINE
 8
TOOL_0
 5
179
 10
7498.405
 20
2380.997
 30
0
 11
8013.712
 21
2380.997
 31
0
 0
ARC
 8
TOOL_0
 5
17A
 10
8013.712
 20
2280.247
 30
0
 40
100.75
 50
47.367177734702
 51
90.0
210
0
220
0
230
1.0
 0
LINE
 8
TOOL_0
 5
17B
 10
8081.95
 20
2354.37
 30
0
 11
8261.809
 21
2188.5
 31
0
 0
ARC
 8
TOOL_0
 5
17C
 10
8193.506
 20
2114.437
 30
0
 40
100.750323959777
 50
0
 51
47.316871939059
210
0
220
0
230
1.0
 0
LINE
 8
TOOL_0
 5
17D
 10
8294.256
 20
2114.437
 30
0
 11
8294.256
 21
1839.498
 31
0
 0
LINE
 8
TOOL_0
 5
17E
 10
8294.256
 20
1839.498
 30
0
 11
8273.506
 21
1839.498
 31
0
 0
ARC
 8
TOOL_0
 5
17F
 10
8273.506
 20
1760.248
 30
0
 40
79.25
 50
90.0
 51
270.0
210
0
220
0
230
1.0
 0
LINE
 8
TOOL_0
 5
180
 10
8273.506
 20
1680.998
 30
0
 11
8294.256
 21
1680.998
 31
0
 0
LINE
 8
TOOL_0
 5
181
 10
8294.256
 20
1680.998
 30
0
 11
8306.32
 21
1680.998
 31
0
 0
LINE
 8
TOOL_0
 5
182
 10
8306.32
 20
1680.998
 30
0
 11
8794.409
 21
1853.613
 31
0
 0
LINE
 8
TOOL_0
 5
183
 10
8794.409
 20
1853.613
 30
0
 11
8839.409
 21
1853.613
 31
0
 0
LINE
 8
TOOL_0
 5
184
 10
8839.409
 20
1853.613
 30
0
 11
8839.409
 21
1986.113
 31
0
 0
ARC
 8
TOOL_0
 5
185
 10
8804.409
 20
1986.113
 30
0
 40
35.0
 50
0
 51
90.0
210
0
220
0
230
1.0
 0
LINE
 8
TOOL_0
 5
186
 10
8804.409
 20
2021.113
 30
0
 11
8649.409
 21
2021.113
 31
0
 0
ARC
 8
TOOL_0
 5
187
 10
8649.409
 20
1986.113
 30
0
 40
35.0
 50
90.0
 51
180.0
210
0
220
0
230
1.0
 0
LINE
 8
TOOL_0
 5
188
 10
8614.409
 20
1986.113
 30
0
 11
8614.409
 21
1721.113
 31
0
 0
ARC
 8
TOOL_0
 5
189
 10
8649.409
 20
1721.113
 30
0
 40
35.0
 50
180.0
 51
270.0
210
0
220
0
230
1.0
 0
LINE
 8
TOOL_0
 5
18A
 10
8649.409
 20
1686.113
 30
0
 11
8804.409
 21
1686.113
 31
0
 0
ARC
 8
TOOL_0
 5
18B
 10
8804.409
 20
1721.113
 30
0
 40
35.0
 50
270.0
 51
0
210
0
220
0
230
1.0
 0
LINE
 8
TOOL_0
 5
18C
 10
8839.409
 20
1721.113
 30
0
 11
8839.409
 21
1853.613
 31
0
 0
LINE
 8
TOOL_0
 5
18D
 10
8839.409
 20
1853.613
 30
0
 11
9159.409
 21
1873.613
 31
0
 0
LINE
 8
TOOL_0
 5
18E
 10
9159.409
 20
1873.613
 30
0
 11
9204.409
 21
1873.613
 31
0
 0
LINE
 8
TOOL_0
 5
18F
 10
9204.409
 20
1873.613
 30
0
 11
9204.409
 21
1986.113
 31
0
 0
ARC
 8
TOOL_0
 5
190
 10
9169.409
 20
1986.113
 30
0
 40
35.0
 50
0
 51
90.0
210
0
220
0
230
1.0
 0
LINE
 8
TOOL_0
 5
191
 10
9169.409
 20
2021.113
 30
0
 11
9014.409
 21
2021.113
 31
0
 0
ARC
 8
TOOL_0
 5
192
 10
9014.409
 20
1986.113
 30
0
 40
35.0
 50
90.0
 51
180.0
210
0
220
0
230
1.0
 0
LINE
 8
TOOL_0
 5
193
 10
8979.409
 20
1986.113
 30
0
 11
8979.409
 21
1761.113
 31
0
 0
ARC
 8
TOOL_0
 5
194
 10
9014.409
 20
1761.113
 30
0
 40
35.0
 50
180.0
 51
270.0
210
0
220
0
230
1.0
 0
LINE
 8
TOOL_0
 5
195
 10
9014.409
 20
1726.113
 30
0
 11
9169.409
 21
1726.113
 31
0
 0
ARC
 8
TOOL_0
 5
196
 10
9169.409
 20
1761.113
 30
0
 40
35.0
 50
270.0
 51
0
210
0
220
0
230
1.0
 0
LINE
 8
TOOL_0
 5
197
 10
9204.409
 20
1761.113
 30
0
 11
9204.409
 21
1873.613
 31
0
 0
LINE
 8
TOOL_0
 5
198
 10
9204.409
 20
1873.613
 30
0
 11
8373.009
 21
1805.544
 31
0
 0
LINE
 8
TOOL_0
 5
199
 10
8373.009
 20
1805.544
 30
0
 11
8373.009
 21
1836.113
 31
0
 0
LINE
 8
TOOL_0
 5
19A
 10
8373.009
 20
1836.113
 30
0
 11
8373.009
 21
1959.717
 31
0
 0
LINE
 8
TOOL_0
 5
19B
 10
8373.009
 20
1959.717
 30
0
 11
8584.071
 21
2158.849
 31
0
 0
ARC
 8
TOOL_0
 5
19C
 10
8652.696
 20
2086.113
 30
0
 40
99.999581604125
 50
90.0
 51
133.334218202128
210
0
220
0
230
1.0
 0
LINE
 8
TOOL_0
 5
19D
 10
8652.696
 20
2186.113
 30
0
 11
9157.534
 21
2186.113
 31
0
 0
LINE
 8
TOOL_0
 5
19E
 10
9157.534
 20
2186.113
 30
0
 11
9915.809
 21
1933.701
 31
0
 0
LINE
 8
TOOL_0
 5
19F
 10
9915.809
 20
1933.701
 30
0
 11
9915.809
 21
1605.113
 31
0
 0
LINE
 8
TOOL_0
 5
1A0
 10
9915.809
 20
1605.113
 30
0
 11
9678.409
 21
1605.113
 31
0
 0
ARC
 8
TOOL_0
 5
1A1
 10
9678.409
 20
1597.113
 30
0
 40
8.0
 50
90.0
 51
180.0
210
0
220
0
230
1.0
 0
LINE
 8
TOOL_0
 5
1A2
 10
9670.409
 20
1597.113
 30
0
 11
9670.409
 21
1590.113
 31
0
 0
LINE
 8
TOOL_0
 5
1A3
 10
9670.409
 20
1590.113
 30
0
 11
9144.409
 21
1590.113
 31
0
 0
LINE
 8
TOOL_0
 5
1A4
 10
9144.409
 20
1590.113
 30
0
 11
9144.409
 21
1602.113
 31
0
 0
ARC
 8
TOOL_0
 5
1A5
 10
9136.409
 20
1602.113
 30
0
 40
8.0
 50
0
 51
90.0
210
0
220
0
230
1.0
 0
LINE
 8
TOOL_0
 5
1A6
 10
9136.409
 20
1610.113
 30
0
 11
8982.409
 21
1610.113
 31
0
 0
ARC
 8
TOOL_0
 5
1A7
 10
8982.409
 20
1602.113
 30
0
 40
8.0
 50
90.0
 51
180.0
210
0
220
0
230
1.0
 0
LINE
 8
TOOL_0
 5
1A8
 10
8974.409
 20
1602.113
 30
0
 11
8974.409
 21
1590.113
 31
0
 0
LINE
 8
TOOL_0
 5
1A9
 10
8974.409
 20
1590.113
 30
0
 11
8503.409
 21
1590.113
 31
0
 0
LINE
 8
TOOL_0
 5
1AA
 10
8503.409
 20
1590.113
 30
0
 11
8503.409
 21
1602.113
 31
0
 0
ARC
 8
TOOL_0
 5
1AB
 10
8495.409
 20
1602.113
 30
0
 40
8.0
 50
0
 51
90.0
210
0
220
0
230
1.0
 0
LINE
 8
TOOL_0
 5
1AC
 10
8495.409
 20
1610.113
 30
0
 11
8383.995
 21
1610.113
 31
0
 0
LINE
 8
TOOL_0
 5
1AD
 10
8383.995
 20
1610.113
 30
0
 11
8373.009
 21
1621.099
 31
0
 0
LINE
 8
TOOL_0
 5
1AE
 10
8373.009
 20
1621.099
 30
0
 11
8373.009
 21
1676.113
 31
0
 0
LINE
 8
TOOL_0
 5
1AF
 10
8373.009
 20
1676.113
 30
0
 11
8394.409
 21
1676.113
 31
0
 0
ARC
 8
TOOL_0
 5
1B0
 10
8394.409
 20
1756.113
 30
0
 40
80.0
 50
270.0
 51
90.0
210
0
220
0
230
1.0
 0
LINE
 8
TOOL_0
 5
1B1
 10
8394.409
 20
1836.113
 30
0
 11
8373.009
 21
1836.113
 31
0
 0
LINE
 8
TOOL_0
 5
1B2
 10
8373.009
 20
1836.113
 30
0
 11
8363.3
 21
1836.113
 31
0
 0
LINE
 8
TOOL_0
 5
1B3
 10
8363.3
 20
1836.113
 30
0
 11
10284.775
 21
2117.498
 31
0
 0
LINE
 8
TOOL_0
 5
1B4
 10
10284.775
 20
2117.498
 30
0
 11
10329.775
 21
2117.498
 31
0
 0
LINE
 8
TOOL_0
 5
1B5
 10
10329.775
 20
2117.498
 30
0
 11
10329.775
 21
2249.998
 31
0
 0
ARC
 8
TOOL_0
 5
1B6
 10
10294.775
 20
2249.998
 30
0
 40
35.0
 50
0
 51
90.0
210
0
220
0
230
1.0
 0
LINE
 8
TOOL_0
 5
1B7
 10
10294.775
 20
2284.998
 30
0
 11
10139.775
 21
2284.998
 31
0
 0
ARC
 8
TOOL_0
 5
1B8
 10
10139.775
 20
2249.998
 30
0
 40
35.0
 50
90.0
 51
180.0
210
0
220
0
230
1.0
 0
LINE
 8
TOOL_0
 5
1B9
 10
10104.775
 20
2249.998
 30
0
 11
10104.775
 21
1984.998
 31
0
 0
ARC
 8
TOOL_0
 5
1BA
 10
10139.775
 20
1984.998
 30
0
 40
35.0
 50
180.0
 51
270.0
210
0
220
0
230
1.0
 0
LINE
 8
TOOL_0
 5
1BB
 10
10139.775
 20
1949.998
 30
0
 11
10294.775
 21
1949.998
 31
0
 0
ARC
 8
TOOL_0
 5
1BC
 10
10294.775
 20
1984.998
 30
0
 40
35.0
 50
270.0
 51
0
210
0
220
0
230
1.0
 0
LINE
 8
TOOL_0
 5
1BD
 10
10329.775
 20
1984.998
 30
0
 11
10329.775
 21
2117.498
 31
0
 0
LINE
 8
TOOL_0
 5
1BE
 10
10329.775
 20
2117.498
 30
0
 11
10649.775
 21
2097.498
 31
0
 0
LINE
 8
TOOL_0
 5
1BF
 10
10649.775
 20
2097.498
 30
0
 11
10694.775
 21
2097.498
 31
0
 0
LINE
 8
TOOL_0
 5
1C0
 10
10694.775
 20
2097.498
 30
0
 11
10694.775
 21
2209.998
 31
0
 0
ARC
 8
TOOL_0
 5
1C1
 10
10659.775
 20
2209.998
 30
0
 40
35.0
 50
0
 51
90.0
210
0
220
0
230
1.0
 0
LINE
 8
TOOL_0
 5
1C2
 10
10659.775
 20
2244.998
 30
0
 11
10504.775
 21
2244.998
 31
0
 0
ARC
 8
TOOL_0
 5
1C3
 10
10504.775
 20
2209.998
 30
0
 40
35.0
 50
90.0
 51
180.0
210
0
220
0
230
1.0
 0
LINE
 8
TOOL_0
 5
1C4
 10
10469.775
 20
2209.998
 30
0
 11
10469.775
 21
1984.998
 31
0
 0
ARC
 8
TOOL_0
 5
1C5
 10
10504.775
 20
1984.998
 30
0
 40
35.0
 50
180.0
 51
270.0
210
0
220
0
230
1.0
 0
LINE
 8
TOOL_0
 5
1C6
 10
10504.775
 20
1949.998
 30
0
 11
10659.775
 21
1949.998
 31
0
 0
ARC
 8
TOOL_0
 5
1C7
 10
10659.775
 20
1984.998
 30
0
 40
35.0
 50
270.0
 51
0
210
0
220
0
230
1.0
 0
LINE
 8
TOOL_0
 5
1C8
 10
10694.775
 20
1984.998
 30
0
 11
10694.775
 21
2097.498
 31
0
 0
LINE
 8
TOOL_0
 5
1C9
 10
10694.775
 20
2097.498
 30
0
 11
9863.375
 21
2257.758
 31
0
 0
LINE
 8
TOOL_0
 5
1CA
 10
9863.375
 20
2257.758
 30
0
 11
9863.375
 21
2294.998
 31
0
 0
LINE
 8
TOOL_0
 5
1CB
 10
9863.375
 20
2294.998
 30
0
 11
9863.375
 21
2350.012
 31
0
 0
LINE
 8
TOOL_0
 5
1CC
 10
9863.375
 20
2350.012
 30
0
 11
9874.361
 21
2360.998
 31
0
 0
LINE
 8
TOOL_0
 5
1CD
 10
9874.361
 20
2360.998
 30
0
 11
9985.775
 21
2360.998
 31
0
 0
ARC
 8
TOOL_0
 5
1CE
 10
9985.775
 20
2368.998
 30
0
 40
8.0
 50
270.0
 51
0
210
0
220
0
230
1.0
 0
LINE
 8
TOOL_0
 5
1CF
 10
9993.775
 20
2368.998
 30
0
 11
9993.775
 21
2380.998
 31
0
 0
LINE
 8
TOOL_0
 5
1D0
 10
9993.775
 20
2380.998
 30
0
 11
10464.775
 21
2380.998
 31
0
 0
LINE
 8
TOOL_0
 5
1D1
 10
10464.775
 20
2380.998
 30
0
 11
10464.775
 21
2368.998
 31
0
 0
ARC
 8
TOOL_0
 5
1D2
 10
10472.775
 20
2368.998
 30
0
 40
8.0
 50
180.0
 51
270.0
210
0
220
0
230
1.0
 0
LINE
 8
TOOL_0
 5
1D3
 10
10472.775
 20
2360.998
 30
0
 11
10626.775
 21
2360.998
 31
0
 0
ARC
 8
TOOL_0
 5
1D4
 10
10626.775
 20
2368.998
 30
0
 40
8.0
 50
270.0
 51
0
210
0
220
0
230
1.0
 0
LINE
 8
TOOL_0
 5
1D5
 10
10634.775
 20
2368.998
 30
0
 11
10634.775
 21
2380.998
 31
0
 0
LINE
 8
TOOL_0
 5
1D6
 10
10634.775
 20
2380.998
 30
0
 11
11160.775
 21
2380.998
 31
0
 0
LINE
 8
TOOL_0
 5
1D7
 10
11160.775
 20
2380.998
 30
0
 11
11160.775
 21
2373.998
 31
0
 0
ARC
 8
TOOL_0
 5
1D8
 10
11168.775
 20
2373.998
 30
0
 40
8.0
 50
180.0
 51
270.0
210
0
220
0
230
1.0
 0
LINE
 8
TOOL_0
 5
1D9
 10
11168.775
 20
2365.998
 30
0
 11
11406.175
 21
2365.998
 31
0
 0
LINE
 8
TOOL_0
 5
1DA
 10
11406.175
 20
2365.998
 30
0
 11
11406.175
 21
2037.41
 31
0
 0
LINE
 8
TOOL_0
 5
1DB
 10
11406.175
 20
2037.41
 30
0
 11
10647.9
 21
1784.998
 31
0
 0
LINE
 8
TOOL_0
 5
1DC
 10
10647.9
 20
1784.998
 30
0
 11
10143.062
 21
1784.998
 31
0
 0
ARC
 8
TOOL_0
 5
1DD
 10
10143.062
 20
1884.998
 30
0
 40
100.0
 50
226.665365050662
 51
270.0
210
0
220
0
230
1.0
 0
LINE
 8
TOOL_0
 5
1DE
 10
10074.436
 20
1812.262
 30
0
 11
9863.374
 21
2011.394
 31
0
 0
LINE
 8
TOOL_0
 5
1DF
 10
9863.374
 20
2011.394
 30
0
 11
9863.374
 21
2134.998
 31
0
 0
LINE
 8
TOOL_0
 5
1E0
 10
9863.374
 20
2134.998
 30
0
 11
9884.774
 21
2134.998
 31
0
 0
ARC
 8
TOOL_0
 5
1E1
 10
9884.774
 20
2214.998
 30
0
 40
80.0
 50
270.0
 51
90.0
210
0
220
0
230
1.0
 0
LINE
 8
TOOL_0
 5
1E2
 10
9884.774
 20
2294.998
 30
0
 11
9863.374
 21
2294.998
 31
0
 0
LINE
 8
TOOL_0
 5
1E3
 10
9863.374
 20
2294.998
 30
0
 11
9854.386
 21
2294.998
 31
0
 0
LINE
 8
TOOL_0
 5
1E4
 10
9854.386
 20
2294.998
 30
0
 11
11729.477
 21
1452.137
 31
0
 0
LINE
 8
TOOL_0
 5
1E5
 10
11729.477
 20
1452.137
 30
0
 11
11774.477
 21
1452.137
 31
0
 0
LINE
 8
TOOL_0
 5
1E6
 10
11774.477
 20
1452.137
 30
0
 11
11774.477
 21
1529.637
 31
0
 0
ARC
 8
TOOL_0
 5
1E7
 10
11739.477
 20
1529.637
 30
0
 40
35.0
 50
0
 51
90.0
210
0
220
0
230
1.0
 0
LINE
 8
TOOL_0
 5
1E8
 10
11739.477
 20
1564.637
 30
0
 11
11514.477
 21
1564.637
 31
0
 0
ARC
 8
TOOL_0
 5
1E9
 10
11514.477
 20
1529.637
 30
0
 40
35.0
 50
90.0
 51
180.0
210
0
220
0
230
1.0
 0
LINE
 8
TOOL_0
 5
1EA
 10
11479.477
 20
1529.637
 30
0
 11
11479.477
 21
1374.637
 31
0
 0
ARC
 8
TOOL_0
 5
1EB
 10
11514.477
 20
1374.637
 30
0
 40
35.0
 50
180.0
 51
270.0
210
0
220
0
230
1.0
 0
LINE
 8
TOOL_0
 5
1EC
 10
11514.477
 20
1339.637
 30
0
 11
11739.477
 21
1339.637
 31
0
 0
ARC
 8
TOOL_0
 5
1ED
 10
11739.477
 20
1374.637
 30
0
 40
35.0
 50
270.0
 51
0
210
0
220
0
230
1.0
 0
LINE
 8
TOOL_0
 5
1EE
 10
11774.477
 20
1374.637
 30
0
 11
11774.477
 21
1452.137
 31
0
 0
LINE
 8
TOOL_0
 5
1EF
 10
11774.477
 20
1452.137
 30
0
 11
11769.477
 21
1087.137
 31
0
 0
LINE
 8
TOOL_0
 5
1F0
 10
11769.477
 20
1087.137
 30
0
 11
11814.477
 21
1087.137
 31
0
 0
LINE
 8
TOOL_0
 5
1F1
 10
11814.477
 20
1087.137
 30
0
 11
11814.477
 21
1164.637
 31
0
 0
ARC
 8
TOOL_0
 5
1F2
 10
11779.477
 20
1164.637
 30
0
 40
35.0
 50
0
 51
90.0
210
0
220
0
230
1.0
 0
LINE
 8
TOOL_0
 5
1F3
 10
11779.477
 20
1199.637
 30
0
 11
11514.477
 21
1199.637
 31
0
 0
ARC
 8
TOOL_0
 5
1F4
 10
11514.477
 20
1164.637
 30
0
 40
35.0
 50
90.0
 51
180.0
210
0
220
0
230
1.0
 0
LINE
 8
TOOL_0
 5
1F5
 10
11479.477
 20
1164.637
 30
0
 11
11479.477
 21
1009.637
 31
0
 0
ARC
 8
TOOL_0
 5
1F6
 10
11514.477
 20
1009.637
 30
0
 40
35.0
 50
180.0
 51
270.0
210
0
220
0
230
1.0
 0
LINE
 8
TOOL_0
 5
1F7
 10
11514.477
 20
974.637
 30
0
 11
11779.477
 21
974.637
 31
0
 0
ARC
 8
TOOL_0
 5
1F8
 10
11779.477
 20
1009.637
 30
0
 40
35.0
 50
270.0
 51
0
210
0
220
0
230
1.0
 0
LINE
 8
TOOL_0
 5
1F9
 10
11814.477
 20
1009.637
 30
0
 11
11814.477
 21
1087.137
 31
0
 0
LINE
 8
TOOL_0
 5
1FA
 10
11814.477
 20
1087.137
 30
0
 11
11895.477
 21
2306.6
 31
0
 0
LINE
 8
TOOL_0
 5
1FB
 10
11895.477
 20
2306.6
 30
0
 11
11895.477
 21
2276.037
 31
0
 0
LINE
 8
TOOL_0
 5
1FC
 10
11895.477
 20
2276.037
 30
0
 11
11895.477
 21
2038.637
 31
0
 0
ARC
 8
TOOL_0
 5
1FD
 10
11903.477
 20
2038.637
 30
0
 40
8.0
 50
180.0
 51
270.0
210
0
220
0
230
1.0
 0
LINE
 8
TOOL_0
 5
1FE
 10
11903.477
 20
2030.637
 30
0
 11
11910.477
 21
2030.637
 31
0
 0
LINE
 8
TOOL_0
 5
1FF
 10
11910.477
 20
2030.637
 30
0
 11
11910.477
 21
1504.637
 31
0
 0
LINE
 8
TOOL_0
 5
200
 10
11910.477
 20
1504.637
 30
0
 11
11898.477
 21
1504.637
 31
0
 0
ARC
 8
TOOL_0
 5
201
 10
11898.477
 20
1496.637
 30
0
 40
8.0
 50
90.0
 51
180.0
210
0
220
0
230
1.0
 0
LINE
 8
TOOL_0
 5
202
 10
11890.477
 20
1496.637
 30
0
 11
11890.477
 21
1342.637
 31
0
 0
ARC
 8
TOOL_0
 5
203
 10
11898.477
 20
1342.637
 30
0
 40
8.0
 50
180.0
 51
270.0
210
0
220
0
230
1.0
 0
LINE
 8
TOOL_0
 5
204
 10
11898.477
 20
1334.637
 30
0
 11
11910.477
 21
1334.637
 31
0
 0
LINE
 8
TOOL_0
 5
205
 10
11910.477
 20
1334.637
 30
0
 11
11910.477
 21
863.637
 31
0
 0
LINE
 8
TOOL_0
 5
206
 10
11910.477
 20
863.637
 30
0
 11
11898.477
 21
863.637
 31
0
 0
ARC
 8
TOOL_0
 5
207
 10
11898.477
 20
855.637
 30
0
 40
8.0
 50
90.0
 51
180.0
210
0
220
0
230
1.0
 0
LINE
 8
TOOL_0
 5
208
 10
11890.477
 20
855.637
 30
0
 11
11890.477
 21
744.223
 31
0
 0
LINE
 8
TOOL_0
 5
209
 10
11890.477
 20
744.223
 30
0
 11
11879.491
 21
733.237
 31
0
 0
LINE
 8
TOOL_0
 5
20A
 10
11879.491
 20
733.237
 30
0
 11
11824.477
 21
733.237
 31
0
 0
LINE
 8
TOOL_0
 5
20B
 10
11824.477
 20
733.237
 30
0
 11
11824.477
 21
754.637
 31
0
 0
ARC
 8
TOOL_0
 5
20C
 10
11744.477
 20
754.637
 30
0
 40
80.0
 50
0
 51
180.0
210
0
220
0
230
1.0
 0
LINE
 8
TOOL_0
 5
20D
 10
11664.477
 20
754.637
 30
0
 11
11664.477
 21
733.237
 31
0
 0
LINE
 8
TOOL_0
 5
20E
 10
11664.477
 20
733.237
 30
0
 11
11540.873
 21
733.237
 31
0
 0
LINE
 8
TOOL_0
 5
20F
 10
11540.873
 20
733.237
 30
0
 11
11341.741
 21
944.299
 31
0
 0
ARC
 8
TOOL_0
 5
210
 10
11414.477
 20
1012.924
 30
0
 40
99.999581604125
 50
179.999427042205
 51
223.334218202128
210
0
220
0
230
1.0
 0
LINE
 8
TOOL_0
 5
211
 10
11314.477
 20
1012.925
 30
0
 11
11314.477
 21
1517.762
 31
0
 0
LINE
 8
TOOL_0
 5
212
 10
11314.477
 20
1517.762
 30
0
 11
11566.889
 21
2276.037
 31
0
 0
LINE
 8
TOOL_0
 5
213
 10
11566.889
 20
2276.037
 30
0
 11
11895.477
 21
2276.037
 31
0
 0
LINE
 8
TOOL_0
 5
214
 10
11895.477
 20
2276.037
 30
0
 11
11909.091
 21
2276.037
 31
0
 0
ENDSEC
 0
EOF

