0
SECTION
2
TABLES
0
TABLE
2
LAYER
70
0
0
LAYER
2
LAYER_NAME
70
0
62
1
6
CONTINUOUS
0
ENDTAB
0
ENDSEC
 0
SECTION
 2
ENTITIES
 0
LINE
 8
TOOL_0
 5
1
 10
596.323
 20
1453.202
 30
0
 11
626.377
 21
1453.202
 31
0
 0
LINE
 8
TOOL_0
 5
2
 10
626.377
 20
1453.202
 30
0
 11
626.377
 21
1518.202
 31
0
 0
ARC
 8
TOOL_0
 5
3
 10
591.377
 20
1518.202
 30
0
 40
35.0
 50
0
 51
90.0
210
0
220
0
230
1.0
 0
LINE
 8
TOOL_0
 5
4
 10
591.377
 20
1553.202
 30
0
 11
366.377
 21
1553.202
 31
0
 0
ARC
 8
TOOL_0
 5
5
 10
366.377
 20
1518.202
 30
0
 40
35.0
 50
90.0
 51
180.0
210
0
220
0
230
1.0
 0
LINE
 8
TOOL_0
 5
6
 10
331.377
 20
1518.202
 30
0
 11
331.377
 21
1388.202
 31
0
 0
ARC
 8
TOOL_0
 5
7
 10
366.377
 20
1388.202
 30
0
 40
35.0
 50
180.0
 51
270.0
210
0
220
0
230
1.0
 0
LINE
 8
TOOL_0
 5
8
 10
366.377
 20
1353.202
 30
0
 11
591.377
 21
1353.202
 31
0
 0
ARC
 8
TOOL_0
 5
9
 10
591.377
 20
1388.202
 30
0
 40
35.0
 50
270.0
 51
0
210
0
220
0
230
1.0
 0
LINE
 8
TOOL_0
 5
A
 10
626.377
 20
1388.202
 30
0
 11
626.377
 21
1453.202
 31
0
 0
LINE
 8
TOOL_0
 5
B
 10
626.377
 20
1453.202
 30
0
 11
623.838
 21
1457.524
 31
0
 0
LINE
 8
TOOL_0
 5
C
 10
623.838
 20
1457.524
 30
0
 11
595.708
 21
1063.202
 31
0
 0
LINE
 8
TOOL_0
 5
D
 10
595.708
 20
1063.202
 30
0
 11
626.377
 21
1063.202
 31
0
 0
LINE
 8
TOOL_0
 5
E
 10
626.377
 20
1063.202
 30
0
 11
626.377
 21
1128.202
 31
0
 0
ARC
 8
TOOL_0
 5
F
 10
591.377
 20
1128.202
 30
0
 40
35.0
 50
0
 51
90.0
210
0
220
0
230
1.0
 0
LINE
 8
TOOL_0
 5
10
 10
591.377
 20
1163.202
 30
0
 11
326.377
 21
1163.202
 31
0
 0
ARC
 8
TOOL_0
 5
11
 10
326.377
 20
1128.202
 30
0
 40
35.0
 50
90.0
 51
180.0
210
0
220
0
230
1.0
 0
LINE
 8
TOOL_0
 5
12
 10
291.377
 20
1128.202
 30
0
 11
291.377
 21
998.202
 31
0
 0
ARC
 8
TOOL_0
 5
13
 10
326.377
 20
998.202
 30
0
 40
35.0
 50
180.0
 51
270.0
210
0
220
0
230
1.0
 0
LINE
 8
TOOL_0
 5
14
 10
326.377
 20
963.202
 30
0
 11
591.377
 21
963.202
 31
0
 0
ARC
 8
TOOL_0
 5
15
 10
591.377
 20
998.202
 30
0
 40
35.0
 50
270.0
 51
0
210
0
220
0
230
1.0
 0
LINE
 8
TOOL_0
 5
16
 10
626.377
 20
998.202
 30
0
 11
626.377
 21
1063.202
 31
0
 0
LINE
 8
TOOL_0
 5
17
 10
626.377
 20
1063.202
 30
0
 11
623.437
 21
1067.283
 31
0
 0
LINE
 8
TOOL_0
 5
18
 10
623.437
 20
1067.283
 30
0
 11
313.338
 21
677.202
 31
0
 0
LINE
 8
TOOL_0
 5
19
 10
313.338
 20
677.202
 30
0
 11
282.378
 21
677.202
 31
0
 0
LINE
 8
TOOL_0
 5
1A
 10
282.378
 20
677.202
 30
0
 11
225.964
 21
677.202
 31
0
 0
LINE
 8
TOOL_0
 5
1B
 10
225.964
 20
677.202
 30
0
 11
215.378
 21
687.788
 31
0
 0
LINE
 8
TOOL_0
 5
1C
 10
215.378
 20
687.788
 30
0
 11
215.378
 21
810.202
 31
0
 0
ARC
 8
TOOL_0
 5
1D
 10
208.378
 20
810.202
 30
0
 40
7.0
 50
0
 51
90.0
210
0
220
0
230
1.0
 0
LINE
 8
TOOL_0
 5
1E
 10
208.378
 20
817.202
 30
0
 11
195.378
 21
817.202
 31
0
 0
LINE
 8
TOOL_0
 5
1F
 10
195.378
 20
817.202
 30
0
 11
195.378
 21
1359.202
 31
0
 0
LINE
 8
TOOL_0
 5
20
 10
195.378
 20
1359.202
 30
0
 11
208.378
 21
1359.202
 31
0
 0
ARC
 8
TOOL_0
 5
21
 10
208.378
 20
1366.202
 30
0
 40
7.0
 50
270.0
 51
0
210
0
220
0
230
1.0
 0
LINE
 8
TOOL_0
 5
22
 10
215.378
 20
1366.202
 30
0
 11
215.378
 21
1520.202
 31
0
 0
ARC
 8
TOOL_0
 5
23
 10
208.378
 20
1520.202
 30
0
 40
7.0
 50
0
 51
90.0
210
0
220
0
230
1.0
 0
LINE
 8
TOOL_0
 5
24
 10
208.378
 20
1527.202
 30
0
 11
195.378
 21
1527.202
 31
0
 0
LINE
 8
TOOL_0
 5
25
 10
195.378
 20
1527.202
 30
0
 11
195.378
 21
1944.202
 31
0
 0
LINE
 8
TOOL_0
 5
26
 10
195.378
 20
1944.202
 30
0
 11
203.378
 21
1944.202
 31
0
 0
ARC
 8
TOOL_0
 5
27
 10
203.378
 20
1951.202
 30
0
 40
7.0
 50
270.0
 51
0
210
0
220
0
230
1.0
 0
LINE
 8
TOOL_0
 5
28
 10
210.378
 20
1951.202
 30
0
 11
210.378
 21
2129.702
 31
0
 0
LINE
 8
TOOL_0
 5
29
 10
210.378
 20
2129.702
 30
0
 11
538.871
 21
2129.702
 31
0
 0
LINE
 8
TOOL_0
 5
2A
 10
538.871
 20
2129.702
 30
0
 11
791.378
 21
1475.055
 31
0
 0
LINE
 8
TOOL_0
 5
2B
 10
791.378
 20
1475.055
 30
0
 11
791.378
 21
1001.486
 31
0
 0
ARC
 8
TOOL_0
 5
2C
 10
711.378
 20
1001.486
 30
0
 40
80.0
 50
320.389749357743
 51
0
210
0
220
0
230
1.0
 0
LINE
 8
TOOL_0
 5
2D
 10
773.01
 20
950.481
 30
0
 11
546.849
 21
677.203
 31
0
 0
LINE
 8
TOOL_0
 5
2E
 10
546.849
 20
677.203
 30
0
 11
440.379
 21
677.203
 31
0
 0
LINE
 8
TOOL_0
 5
2F
 10
440.379
 20
677.203
 30
0
 11
440.379
 21
758.203
 31
0
 0
ARC
 8
TOOL_0
 5
30
 10
391.379
 20
758.203
 30
0
 40
49.0
 50
0
 51
90.0
210
0
220
0
230
1.0
 0
LINE
 8
TOOL_0
 5
31
 10
391.379
 20
807.203
 30
0
 11
331.379
 21
807.203
 31
0
 0
ARC
 8
TOOL_0
 5
32
 10
331.379
 20
758.203
 30
0
 40
49.0
 50
90.0
 51
180.0
210
0
220
0
230
1.0
 0
LINE
 8
TOOL_0
 5
33
 10
282.379
 20
758.203
 30
0
 11
282.379
 21
677.203
 31
0
 0
LINE
 8
TOOL_0
 5
34
 10
282.379
 20
677.203
 30
0
 11
282.379
 21
672.082
 31
0
 0
LINE
 8
TOOL_0
 5
35
 10
282.379
 20
672.082
 30
0
 11
3922.044
 21
1487.795
 31
0
 0
LINE
 8
TOOL_0
 5
36
 10
3922.044
 20
1487.795
 30
0
 11
3952.098
 21
1487.795
 31
0
 0
LINE
 8
TOOL_0
 5
37
 10
3952.098
 20
1487.795
 30
0
 11
3952.098
 21
1552.795
 31
0
 0
ARC
 8
TOOL_0
 5
38
 10
3917.098
 20
1552.795
 30
0
 40
35.0
 50
0
 51
90.0
210
0
220
0
230
1.0
 0
LINE
 8
TOOL_0
 5
39
 10
3917.098
 20
1587.795
 30
0
 11
3692.098
 21
1587.795
 31
0
 0
ARC
 8
TOOL_0
 5
3A
 10
3692.098
 20
1552.795
 30
0
 40
35.0
 50
90.0
 51
180.0
210
0
220
0
230
1.0
 0
LINE
 8
TOOL_0
 5
3B
 10
3657.098
 20
1552.795
 30
0
 11
3657.098
 21
1422.795
 31
0
 0
ARC
 8
TOOL_0
 5
3C
 10
3692.098
 20
1422.795
 30
0
 40
35.0
 50
180.0
 51
270.0
210
0
220
0
230
1.0
 0
LINE
 8
TOOL_0
 5
3D
 10
3692.098
 20
1387.795
 30
0
 11
3917.098
 21
1387.795
 31
0
 0
ARC
 8
TOOL_0
 5
3E
 10
3917.098
 20
1422.795
 30
0
 40
35.0
 50
270.0
 51
0
210
0
220
0
230
1.0
 0
LINE
 8
TOOL_0
 5
3F
 10
3952.098
 20
1422.795
 30
0
 11
3952.098
 21
1487.795
 31
0
 0
LINE
 8
TOOL_0
 5
40
 10
3952.098
 20
1487.795
 30
0
 11
3949.559
 21
1492.117
 31
0
 0
LINE
 8
TOOL_0
 5
41
 10
3949.559
 20
1492.117
 30
0
 11
3921.429
 21
1097.796
 31
0
 0
LINE
 8
TOOL_0
 5
42
 10
3921.429
 20
1097.796
 30
0
 11
3952.098
 21
1097.796
 31
0
 0
LINE
 8
TOOL_0
 5
43
 10
3952.098
 20
1097.796
 30
0
 11
3952.098
 21
1162.796
 31
0
 0
ARC
 8
TOOL_0
 5
44
 10
3917.098
 20
1162.796
 30
0
 40
35.0
 50
0
 51
90.0
210
0
220
0
230
1.0
 0
LINE
 8
TOOL_0
 5
45
 10
3917.098
 20
1197.796
 30
0
 11
3652.098
 21
1197.796
 31
0
 0
ARC
 8
TOOL_0
 5
46
 10
3652.098
 20
1162.796
 30
0
 40
35.0
 50
90.0
 51
180.0
210
0
220
0
230
1.0
 0
LINE
 8
TOOL_0
 5
47
 10
3617.098
 20
1162.796
 30
0
 11
3617.098
 21
1032.796
 31
0
 0
ARC
 8
TOOL_0
 5
48
 10
3652.098
 20
1032.796
 30
0
 40
35.0
 50
180.0
 51
270.0
210
0
220
0
230
1.0
 0
LINE
 8
TOOL_0
 5
49
 10
3652.098
 20
997.796
 30
0
 11
3917.098
 21
997.796
 31
0
 0
ARC
 8
TOOL_0
 5
4A
 10
3917.098
 20
1032.796
 30
0
 40
35.0
 50
270.0
 51
0
210
0
220
0
230
1.0
 0
LINE
 8
TOOL_0
 5
4B
 10
3952.098
 20
1032.796
 30
0
 11
3952.098
 21
1097.796
 31
0
 0
LINE
 8
TOOL_0
 5
4C
 10
3952.098
 20
1097.796
 30
0
 11
3949.158
 21
1101.877
 31
0
 0
LINE
 8
TOOL_0
 5
4D
 10
3949.158
 20
1101.877
 30
0
 11
3639.059
 21
711.797
 31
0
 0
LINE
 8
TOOL_0
 5
4E
 10
3639.059
 20
711.797
 30
0
 11
3608.099
 21
711.797
 31
0
 0
LINE
 8
TOOL_0
 5
4F
 10
3608.099
 20
711.797
 30
0
 11
3551.685
 21
711.797
 31
0
 0
LINE
 8
TOOL_0
 5
50
 10
3551.685
 20
711.797
 30
0
 11
3541.099
 21
722.383
 31
0
 0
LINE
 8
TOOL_0
 5
51
 10
3541.099
 20
722.383
 30
0
 11
3541.099
 21
844.797
 31
0
 0
ARC
 8
TOOL_0
 5
52
 10
3534.099
 20
844.797
 30
0
 40
7.0
 50
0
 51
90.0
210
0
220
0
230
1.0
 0
LINE
 8
TOOL_0
 5
53
 10
3534.099
 20
851.797
 30
0
 11
3521.099
 21
851.797
 31
0
 0
LINE
 8
TOOL_0
 5
54
 10
3521.099
 20
851.797
 30
0
 11
3521.099
 21
1393.797
 31
0
 0
LINE
 8
TOOL_0
 5
55
 10
3521.099
 20
1393.797
 30
0
 11
3534.099
 21
1393.797
 31
0
 0
ARC
 8
TOOL_0
 5
56
 10
3534.099
 20
1400.797
 30
0
 40
7.0
 50
270.0
 51
0
210
0
220
0
230
1.0
 0
LINE
 8
TOOL_0
 5
57
 10
3541.099
 20
1400.797
 30
0
 11
3541.099
 21
1554.797
 31
0
 0
ARC
 8
TOOL_0
 5
58
 10
3534.099
 20
1554.797
 30
0
 40
7.0
 50
0
 51
90.0
210
0
220
0
230
1.0
 0
LINE
 8
TOOL_0
 5
59
 10
3534.099
 20
1561.797
 30
0
 11
3521.099
 21
1561.797
 31
0
 0
LINE
 8
TOOL_0
 5
5A
 10
3521.099
 20
1561.797
 30
0
 11
3521.099
 21
1978.797
 31
0
 0
LINE
 8
TOOL_0
 5
5B
 10
3521.099
 20
1978.797
 30
0
 11
3529.099
 21
1978.797
 31
0
 0
ARC
 8
TOOL_0
 5
5C
 10
3529.099
 20
1985.797
 30
0
 40
7.0
 50
270.0
 51
0
210
0
220
0
230
1.0
 0
LINE
 8
TOOL_0
 5
5D
 10
3536.099
 20
1985.797
 30
0
 11
3536.099
 21
2164.297
 31
0
 0
LINE
 8
TOOL_0
 5
5E
 10
3536.099
 20
2164.297
 30
0
 11
3864.592
 21
2164.297
 31
0
 0
LINE
 8
TOOL_0
 5
5F
 10
3864.592
 20
2164.297
 30
0
 11
4117.099
 21
1509.65
 31
0
 0
LINE
 8
TOOL_0
 5
60
 10
4117.099
 20
1509.65
 30
0
 11
4117.099
 21
1036.081
 31
0
 0
ARC
 8
TOOL_0
 5
61
 10
4037.099
 20
1036.081
 30
0
 40
80.0
 50
320.389749357743
 51
0
210
0
220
0
230
1.0
 0
LINE
 8
TOOL_0
 5
62
 10
4098.731
 20
985.076
 30
0
 11
3872.57
 21
711.798
 31
0
 0
LINE
 8
TOOL_0
 5
63
 10
3872.57
 20
711.798
 30
0
 11
3766.1
 21
711.798
 31
0
 0
LINE
 8
TOOL_0
 5
64
 10
3766.1
 20
711.798
 30
0
 11
3766.1
 21
792.798
 31
0
 0
ARC
 8
TOOL_0
 5
65
 10
3717.1
 20
792.798
 30
0
 40
49.0
 50
0
 51
90.0
210
0
220
0
230
1.0
 0
LINE
 8
TOOL_0
 5
66
 10
3717.1
 20
841.798
 30
0
 11
3657.1
 21
841.798
 31
0
 0
ARC
 8
TOOL_0
 5
67
 10
3657.1
 20
792.798
 30
0
 40
49.0
 50
90.0
 51
180.0
210
0
220
0
230
1.0
 0
LINE
 8
TOOL_0
 5
68
 10
3608.1
 20
792.798
 30
0
 11
3608.1
 21
711.798
 31
0
 0
LINE
 8
TOOL_0
 5
69
 10
3608.1
 20
711.798
 30
0
 11
3608.1
 21
706.677
 31
0
 0
LINE
 8
TOOL_0
 5
6A
 10
3608.1
 20
706.677
 30
0
 11
326.576
 21
317.846
 31
0
 0
LINE
 8
TOOL_0
 5
6B
 10
326.576
 20
317.846
 30
0
 11
356.504
 21
317.846
 31
0
 0
LINE
 8
TOOL_0
 5
6C
 10
356.504
 20
317.846
 30
0
 11
356.504
 21
350.346
 31
0
 0
ARC
 8
TOOL_0
 5
6D
 10
348.504
 20
350.346
 30
0
 40
8.0
 50
0
 51
180.0
210
0
220
0
230
1.0
 0
LINE
 8
TOOL_0
 5
6E
 10
340.504
 20
350.346
 30
0
 11
340.504
 21
337.346
 31
0
 0
LINE
 8
TOOL_0
 5
6F
 10
340.504
 20
337.346
 30
0
 11
286.504
 21
337.346
 31
0
 0
LINE
 8
TOOL_0
 5
70
 10
286.504
 20
337.346
 30
0
 11
286.504
 21
350.346
 31
0
 0
ARC
 8
TOOL_0
 5
71
 10
278.504
 20
350.346
 30
0
 40
8.0
 50
0
 51
180.0
210
0
220
0
230
1.0
 0
LINE
 8
TOOL_0
 5
72
 10
270.504
 20
350.346
 30
0
 11
270.504
 21
285.346
 31
0
 0
ARC
 8
TOOL_0
 5
73
 10
285.504
 20
285.346
 30
0
 40
15.0
 50
180.0
 51
270.0
210
0
220
0
230
1.0
 0
LINE
 8
TOOL_0
 5
74
 10
285.504
 20
270.346
 30
0
 11
341.504
 21
270.346
 31
0
 0
ARC
 8
TOOL_0
 5
75
 10
341.504
 20
285.346
 30
0
 40
15.0
 50
270.0
 51
0
210
0
220
0
230
1.0
 0
LINE
 8
TOOL_0
 5
76
 10
356.504
 20
285.346
 30
0
 11
356.504
 21
317.846
 31
0
 0
LINE
 8
TOOL_0
 5
77
 10
356.504
 20
317.846
 30
0
 11
354.113
 21
322.364
 31
0
 0
LINE
 8
TOOL_0
 5
78
 10
354.113
 20
322.364
 30
0
 11
575.973
 21
317.846
 31
0
 0
LINE
 8
TOOL_0
 5
79
 10
575.973
 20
317.846
 30
0
 11
606.504
 21
317.846
 31
0
 0
LINE
 8
TOOL_0
 5
7A
 10
606.504
 20
317.846
 30
0
 11
606.504
 21
350.346
 31
0
 0
ARC
 8
TOOL_0
 5
7B
 10
598.504
 20
350.346
 30
0
 40
8.0
 50
0
 51
180.0
210
0
220
0
230
1.0
 0
LINE
 8
TOOL_0
 5
7C
 10
590.504
 20
350.346
 30
0
 11
590.504
 21
337.346
 31
0
 0
LINE
 8
TOOL_0
 5
7D
 10
590.504
 20
337.346
 30
0
 11
536.504
 21
337.346
 31
0
 0
LINE
 8
TOOL_0
 5
7E
 10
536.504
 20
337.346
 30
0
 11
536.504
 21
350.346
 31
0
 0
ARC
 8
TOOL_0
 5
7F
 10
528.504
 20
350.346
 30
0
 40
8.0
 50
0
 51
180.0
210
0
220
0
230
1.0
 0
LINE
 8
TOOL_0
 5
80
 10
520.504
 20
350.346
 30
0
 11
520.504
 21
285.346
 31
0
 0
ARC
 8
TOOL_0
 5
81
 10
535.504
 20
285.346
 30
0
 40
15.0
 50
180.0
 51
270.0
210
0
220
0
230
1.0
 0
LINE
 8
TOOL_0
 5
82
 10
535.504
 20
270.346
 30
0
 11
591.504
 21
270.346
 31
0
 0
ARC
 8
TOOL_0
 5
83
 10
591.504
 20
285.346
 30
0
 40
15.0
 50
270.0
 51
0
210
0
220
0
230
1.0
 0
LINE
 8
TOOL_0
 5
84
 10
606.504
 20
285.346
 30
0
 11
606.504
 21
317.846
 31
0
 0
LINE
 8
TOOL_0
 5
85
 10
606.504
 20
317.846
 30
0
 11
603.56
 21
322.346
 31
0
 0
LINE
 8
TOOL_0
 5
86
 10
603.56
 20
322.346
 30
0
 11
781.716
 21
257.256
 31
0
 0
LINE
 8
TOOL_0
 5
87
 10
781.716
 20
257.256
 30
0
 11
812.504
 21
257.256
 31
0
 0
ARC
 8
TOOL_0
 5
88
 10
777.504
 20
257.256
 30
0
 40
35.0
 50
0
 51
180.0
210
0
220
0
230
1.0
 0
ARC
 8
TOOL_0
 5
89
 10
777.504
 20
257.256
 30
0
 40
35.0
 50
180.0
 51
0
210
0
220
0
230
1.0
 0
LINE
 8
TOOL_0
 5
8A
 10
812.504
 20
257.256
 30
0
 11
809.925
 21
261.602
 31
0
 0
LINE
 8
TOOL_0
 5
8B
 10
809.925
 20
261.602
 30
0
 11
2132.352
 21
257.256
 31
0
 0
LINE
 8
TOOL_0
 5
8C
 10
2132.352
 20
257.256
 30
0
 11
2162.504
 21
257.256
 31
0
 0
ARC
 8
TOOL_0
 5
8D
 10
2127.504
 20
257.256
 30
0
 40
35.0
 50
0
 51
180.0
210
0
220
0
230
1.0
 0
ARC
 8
TOOL_0
 5
8E
 10
2127.504
 20
257.256
 30
0
 40
35.0
 50
180.0
 51
0
210
0
220
0
230
1.0
 0
LINE
 8
TOOL_0
 5
8F
 10
2162.504
 20
257.256
 30
0
 11
2159.723
 21
261.599
 31
0
 0
LINE
 8
TOOL_0
 5
90
 10
2159.723
 20
261.599
 30
0
 11
1581.92
 21
1257.256
 31
0
 0
LINE
 8
TOOL_0
 5
91
 10
1581.92
 20
1257.256
 30
0
 11
1612.504
 21
1257.256
 31
0
 0
ARC
 8
TOOL_0
 5
92
 10
1577.504
 20
1257.256
 30
0
 40
35.0
 50
0
 51
180.0
210
0
220
0
230
1.0
 0
ARC
 8
TOOL_0
 5
93
 10
1577.504
 20
1257.256
 30
0
 40
35.0
 50
180.0
 51
0
210
0
220
0
230
1.0
 0
LINE
 8
TOOL_0
 5
94
 10
1612.504
 20
1257.256
 30
0
 11
1609.676
 21
1261.917
 31
0
 0
LINE
 8
TOOL_0
 5
95
 10
1609.676
 20
1261.917
 30
0
 11
2682.385
 21
1257.256
 31
0
 0
LINE
 8
TOOL_0
 5
96
 10
2682.385
 20
1257.256
 30
0
 11
2712.504
 21
1257.256
 31
0
 0
ARC
 8
TOOL_0
 5
97
 10
2677.504
 20
1257.256
 30
0
 40
35.0
 50
0
 51
180.0
210
0
220
0
230
1.0
 0
ARC
 8
TOOL_0
 5
98
 10
2677.504
 20
1257.256
 30
0
 40
35.0
 50
180.0
 51
0
210
0
220
0
230
1.0
 0
LINE
 8
TOOL_0
 5
99
 10
2712.504
 20
1257.256
 30
0
 11
2710.134
 21
1261.835
 31
0
 0
LINE
 8
TOOL_0
 5
9A
 10
2710.134
 20
1261.835
 30
0
 11
3481.91
 21
257.256
 31
0
 0
LINE
 8
TOOL_0
 5
9B
 10
3481.91
 20
257.256
 30
0
 11
3512.504
 21
257.256
 31
0
 0
ARC
 8
TOOL_0
 5
9C
 10
3477.504
 20
257.256
 30
0
 40
35.0
 50
0
 51
180.0
210
0
220
0
230
1.0
 0
ARC
 8
TOOL_0
 5
9D
 10
3477.504
 20
257.256
 30
0
 40
35.0
 50
180.0
 51
0
210
0
220
0
230
1.0
 0
LINE
 8
TOOL_0
 5
9E
 10
3512.504
 20
257.256
 30
0
 11
3509.469
 21
261.254
 31
0
 0
LINE
 8
TOOL_0
 5
9F
 10
3509.469
 20
261.254
 30
0
 11
3704.912
 21
317.846
 31
0
 0
LINE
 8
TOOL_0
 5
A0
 10
3704.912
 20
317.846
 30
0
 11
3734.504
 21
317.846
 31
0
 0
LINE
 8
TOOL_0
 5
A1
 10
3734.504
 20
317.846
 30
0
 11
3734.504
 21
350.346
 31
0
 0
ARC
 8
TOOL_0
 5
A2
 10
3726.504
 20
350.346
 30
0
 40
8.0
 50
0
 51
180.0
210
0
220
0
230
1.0
 0
LINE
 8
TOOL_0
 5
A3
 10
3718.504
 20
350.346
 30
0
 11
3718.504
 21
337.346
 31
0
 0
LINE
 8
TOOL_0
 5
A4
 10
3718.504
 20
337.346
 30
0
 11
3664.504
 21
337.346
 31
0
 0
LINE
 8
TOOL_0
 5
A5
 10
3664.504
 20
337.346
 30
0
 11
3664.504
 21
350.346
 31
0
 0
ARC
 8
TOOL_0
 5
A6
 10
3656.504
 20
350.346
 30
0
 40
8.0
 50
0
 51
180.0
210
0
220
0
230
1.0
 0
LINE
 8
TOOL_0
 5
A7
 10
3648.504
 20
350.346
 30
0
 11
3648.504
 21
285.346
 31
0
 0
ARC
 8
TOOL_0
 5
A8
 10
3663.504
 20
285.346
 30
0
 40
15.0
 50
180.0
 51
270.0
210
0
220
0
230
1.0
 0
LINE
 8
TOOL_0
 5
A9
 10
3663.504
 20
270.346
 30
0
 11
3719.504
 21
270.346
 31
0
 0
ARC
 8
TOOL_0
 5
AA
 10
3719.504
 20
285.346
 30
0
 40
15.0
 50
270.0
 51
0
210
0
220
0
230
1.0
 0
LINE
 8
TOOL_0
 5
AB
 10
3734.504
 20
285.346
 30
0
 11
3734.504
 21
317.846
 31
0
 0
LINE
 8
TOOL_0
 5
AC
 10
3734.504
 20
317.846
 30
0
 11
3731.491
 21
322.074
 31
0
 0
LINE
 8
TOOL_0
 5
AD
 10
3731.491
 20
322.074
 30
0
 11
3954.095
 21
317.846
 31
0
 0
LINE
 8
TOOL_0
 5
AE
 10
3954.095
 20
317.846
 30
0
 11
3984.504
 21
317.846
 31
0
 0
LINE
 8
TOOL_0
 5
AF
 10
3984.504
 20
317.846
 30
0
 11
3984.504
 21
350.346
 31
0
 0
ARC
 8
TOOL_0
 5
B0
 10
3976.504
 20
350.346
 30
0
 40
8.0
 50
0
 51
180.0
210
0
220
0
230
1.0
 0
LINE
 8
TOOL_0
 5
B1
 10
3968.504
 20
350.346
 30
0
 11
3968.504
 21
337.346
 31
0
 0
LINE
 8
TOOL_0
 5
B2
 10
3968.504
 20
337.346
 30
0
 11
3914.504
 21
337.346
 31
0
 0
LINE
 8
TOOL_0
 5
B3
 10
3914.504
 20
337.346
 30
0
 11
3914.504
 21
350.346
 31
0
 0
ARC
 8
TOOL_0
 5
B4
 10
3906.504
 20
350.346
 30
0
 40
8.0
 50
0
 51
180.0
210
0
220
0
230
1.0
 0
LINE
 8
TOOL_0
 5
B5
 10
3898.504
 20
350.346
 30
0
 11
3898.504
 21
285.346
 31
0
 0
ARC
 8
TOOL_0
 5
B6
 10
3913.504
 20
285.346
 30
0
 40
15.0
 50
180.0
 51
270.0
210
0
220
0
230
1.0
 0
LINE
 8
TOOL_0
 5
B7
 10
3913.504
 20
270.346
 30
0
 11
3969.504
 21
270.346
 31
0
 0
ARC
 8
TOOL_0
 5
B8
 10
3969.504
 20
285.346
 30
0
 40
15.0
 50
270.0
 51
0
210
0
220
0
230
1.0
 0
LINE
 8
TOOL_0
 5
B9
 10
3984.504
 20
285.346
 30
0
 11
3984.504
 21
317.846
 31
0
 0
LINE
 8
TOOL_0
 5
BA
 10
3984.504
 20
317.846
 30
0
 11
3981.792
 21
322.147
 31
0
 0
LINE
 8
TOOL_0
 5
BB
 10
3981.792
 20
322.147
 30
0
 11
4205.295
 21
9.506
 31
0
 0
LINE
 8
TOOL_0
 5
BC
 10
4205.295
 20
9.506
 30
0
 11
4174.254
 21
9.506
 31
0
 0
LINE
 8
TOOL_0
 5
BD
 10
4174.254
 20
9.506
 30
0
 11
80.754
 21
9.506
 31
0
 0
LINE
 8
TOOL_0
 5
BE
 10
80.754
 20
9.506
 30
0
 11
80.754
 21
111.006
 31
0
 0
LINE
 8
TOOL_0
 5
BF
 10
80.754
 20
111.006
 30
0
 11
86.754
 21
111.006
 31
0
 0
LINE
 8
TOOL_0
 5
C0
 10
86.754
 20
111.006
 30
0
 11
86.754
 21
190.006
 31
0
 0
ARC
 8
TOOL_0
 5
C1
 10
61.754
 20
190.006
 30
0
 40
25.0
 50
0
 51
90.0
210
0
220
0
230
1.0
 0
LINE
 8
TOOL_0
 5
C2
 10
61.754
 20
215.006
 30
0
 11
9.004
 21
215.006
 31
0
 0
LINE
 8
TOOL_0
 5
C3
 10
9.004
 20
215.006
 30
0
 11
9.004
 21
1187.756
 31
0
 0
LINE
 8
TOOL_0
 5
C4
 10
9.004
 20
1187.756
 30
0
 11
91.004
 21
1187.756
 31
0
 0
LINE
 8
TOOL_0
 5
C5
 10
91.004
 20
1187.756
 30
0
 11
91.004
 21
892.256
 31
0
 0
ARC
 8
TOOL_0
 5
C6
 10
120.504
 20
892.256
 30
0
 40
29.5
 50
180.0
 51
270.0
210
0
220
0
230
1.0
 0
LINE
 8
TOOL_0
 5
C7
 10
120.504
 20
862.756
 30
0
 11
136.321
 21
862.756
 31
0
 0
LINE
 8
TOOL_0
 5
C8
 10
136.321
 20
862.756
 30
0
 11
162.149
 21
518.063
 31
0
 0
ARC
 8
TOOL_0
 5
C9
 10
231.492
 20
523.297
 30
0
 40
69.540250251203
 50
184.316492568541
 51
269.968691284209
210
0
220
0
230
1.0
 0
LINE
 8
TOOL_0
 5
CA
 10
231.454
 20
453.756
 30
0
 11
677.936
 21
453.756
 31
0
 0
ARC
 8
TOOL_0
 5
CB
 10
677.936
 20
528.256
 30
0
 40
74.5
 50
270.0
 51
353.999528083361
210
0
220
0
230
1.0
 0
LINE
 8
TOOL_0
 5
CC
 10
752.028
 20
520.468
 30
0
 11
784.746
 21
831.756
 31
0
 0
LINE
 8
TOOL_0
 5
CD
 10
784.746
 20
831.756
 30
0
 11
803.432
 21
831.756
 31
0
 0
ARC
 8
TOOL_0
 5
CE
 10
803.419
 20
861.27
 30
0
 40
29.514002863048
 50
270.025237009064
 51
353.974736029549
210
0
220
0
230
1.0
 0
LINE
 8
TOOL_0
 5
CF
 10
832.77
 20
858.172
 30
0
 11
887.801
 21
1381.756
 31
0
 0
LINE
 8
TOOL_0
 5
D0
 10
887.801
 20
1381.756
 30
0
 11
3367.206
 21
1381.756
 31
0
 0
LINE
 8
TOOL_0
 5
D1
 10
3367.206
 20
1381.756
 30
0
 11
3422.237
 21
858.172
 31
0
 0
ARC
 8
TOOL_0
 5
D2
 10
3451.588
 20
861.269
 30
0
 40
29.513939249108
 50
186.023333382317
 51
269.974762135822
210
0
220
0
230
1.0
 0
LINE
 8
TOOL_0
 5
D3
 10
3451.575
 20
831.756
 30
0
 11
3470.261
 21
831.756
 31
0
 0
LINE
 8
TOOL_0
 5
D4
 10
3470.261
 20
831.756
 30
0
 11
3502.979
 21
520.469
 31
0
 0
ARC
 8
TOOL_0
 5
D5
 10
3577.071
 20
528.256
 30
0
 40
74.500079416065
 50
185.999707060301
 51
269.999230929134
210
0
220
0
230
1.0
 0
LINE
 8
TOOL_0
 5
D6
 10
3577.07
 20
453.756
 30
0
 11
4023.552
 21
453.756
 31
0
 0
ARC
 8
TOOL_0
 5
D7
 10
4023.514
 20
523.296
 30
0
 40
69.540010382513
 50
270.031309166017
 51
355.684391018394
210
0
220
0
230
1.0
 0
LINE
 8
TOOL_0
 5
D8
 10
4092.858
 20
518.063
 30
0
 11
4118.687
 21
862.757
 31
0
 0
LINE
 8
TOOL_0
 5
D9
 10
4118.687
 20
862.757
 30
0
 11
4134.504
 21
862.757
 31
0
 0
ARC
 8
TOOL_0
 5
DA
 10
4134.504
 20
892.257
 30
0
 40
29.5
 50
270.0
 51
0
210
0
220
0
230
1.0
 0
LINE
 8
TOOL_0
 5
DB
 10
4164.004
 20
892.257
 30
0
 11
4164.004
 21
1187.757
 31
0
 0
LINE
 8
TOOL_0
 5
DC
 10
4164.004
 20
1187.757
 30
0
 11
4246.004
 21
1187.757
 31
0
 0
LINE
 8
TOOL_0
 5
DD
 10
4246.004
 20
1187.757
 30
0
 11
4246.004
 21
215.007
 31
0
 0
LINE
 8
TOOL_0
 5
DE
 10
4246.004
 20
215.007
 30
0
 11
4193.254
 21
215.007
 31
0
 0
ARC
 8
TOOL_0
 5
DF
 10
4193.254
 20
190.007
 30
0
 40
25.0
 50
90.0
 51
180.0
210
0
220
0
230
1.0
 0
LINE
 8
TOOL_0
 5
E0
 10
4168.254
 20
190.007
 30
0
 11
4168.254
 21
111.007
 31
0
 0
LINE
 8
TOOL_0
 5
E1
 10
4168.254
 20
111.007
 30
0
 11
4174.254
 21
111.007
 31
0
 0
LINE
 8
TOOL_0
 5
E2
 10
4174.254
 20
111.007
 30
0
 11
4174.254
 21
9.507
 31
0
 0
LINE
 8
TOOL_0
 5
E3
 10
4174.254
 20
9.507
 30
0
 11
4174.254
 21
4.339
 31
0
 0
LINE
 8
TOOL_0
 5
E4
 10
4174.254
 20
4.339
 30
0
 11
326.253
 21
2457.554
 31
0
 0
LINE
 8
TOOL_0
 5
E5
 10
326.253
 20
2457.554
 30
0
 11
356.504
 21
2457.554
 31
0
 0
LINE
 8
TOOL_0
 5
E6
 10
356.504
 20
2457.554
 30
0
 11
356.504
 21
2490.054
 31
0
 0
ARC
 8
TOOL_0
 5
E7
 10
341.504
 20
2490.054
 30
0
 40
15.0
 50
0
 51
90.0
210
0
220
0
230
1.0
 0
LINE
 8
TOOL_0
 5
E8
 10
341.504
 20
2505.054
 30
0
 11
285.504
 21
2505.054
 31
0
 0
ARC
 8
TOOL_0
 5
E9
 10
285.504
 20
2490.054
 30
0
 40
15.0
 50
90.0
 51
180.0
210
0
220
0
230
1.0
 0
LINE
 8
TOOL_0
 5
EA
 10
270.504
 20
2490.054
 30
0
 11
270.504
 21
2425.054
 31
0
 0
ARC
 8
TOOL_0
 5
EB
 10
278.504
 20
2425.054
 30
0
 40
8.0
 50
180.0
 51
0
210
0
220
0
230
1.0
 0
LINE
 8
TOOL_0
 5
EC
 10
286.504
 20
2425.054
 30
0
 11
286.504
 21
2438.054
 31
0
 0
LINE
 8
TOOL_0
 5
ED
 10
286.504
 20
2438.054
 30
0
 11
340.504
 21
2438.054
 31
0
 0
LINE
 8
TOOL_0
 5
EE
 10
340.504
 20
2438.054
 30
0
 11
340.504
 21
2425.054
 31
0
 0
ARC
 8
TOOL_0
 5
EF
 10
348.504
 20
2425.054
 30
0
 40
8.0
 50
180.0
 51
0
210
0
220
0
230
1.0
 0
LINE
 8
TOOL_0
 5
F0
 10
356.504
 20
2425.054
 30
0
 11
356.504
 21
2457.554
 31
0
 0
LINE
 8
TOOL_0
 5
F1
 10
356.504
 20
2457.554
 30
0
 11
353.628
 21
2462.123
 31
0
 0
LINE
 8
TOOL_0
 5
F2
 10
353.628
 20
2462.123
 30
0
 11
576.43
 21
2457.554
 31
0
 0
LINE
 8
TOOL_0
 5
F3
 10
576.43
 20
2457.554
 30
0
 11
606.504
 21
2457.554
 31
0
 0
LINE
 8
TOOL_0
 5
F4
 10
606.504
 20
2457.554
 30
0
 11
606.504
 21
2490.054
 31
0
 0
ARC
 8
TOOL_0
 5
F5
 10
591.504
 20
2490.054
 30
0
 40
15.0
 50
0
 51
90.0
210
0
220
0
230
1.0
 0
LINE
 8
TOOL_0
 5
F6
 10
591.504
 20
2505.054
 30
0
 11
535.504
 21
2505.054
 31
0
 0
ARC
 8
TOOL_0
 5
F7
 10
535.504
 20
2490.054
 30
0
 40
15.0
 50
90.0
 51
180.0
210
0
220
0
230
1.0
 0
LINE
 8
TOOL_0
 5
F8
 10
520.504
 20
2490.054
 30
0
 11
520.504
 21
2425.054
 31
0
 0
ARC
 8
TOOL_0
 5
F9
 10
528.504
 20
2425.054
 30
0
 40
8.0
 50
180.0
 51
0
210
0
220
0
230
1.0
 0
LINE
 8
TOOL_0
 5
FA
 10
536.504
 20
2425.054
 30
0
 11
536.504
 21
2438.054
 31
0
 0
LINE
 8
TOOL_0
 5
FB
 10
536.504
 20
2438.054
 30
0
 11
590.504
 21
2438.054
 31
0
 0
LINE
 8
TOOL_0
 5
FC
 10
590.504
 20
2438.054
 30
0
 11
590.504
 21
2425.054
 31
0
 0
ARC
 8
TOOL_0
 5
FD
 10
598.504
 20
2425.054
 30
0
 40
8.0
 50
180.0
 51
0
210
0
220
0
230
1.0
 0
LINE
 8
TOOL_0
 5
FE
 10
606.504
 20
2425.054
 30
0
 11
606.504
 21
2457.554
 31
0
 0
LINE
 8
TOOL_0
 5
FF
 10
606.504
 20
2457.554
 30
0
 11
604.095
 21
2462.248
 31
0
 0
LINE
 8
TOOL_0
 5
100
 10
604.095
 20
2462.248
 30
0
 11
781.967
 21
2518.144
 31
0
 0
LINE
 8
TOOL_0
 5
101
 10
781.967
 20
2518.144
 30
0
 11
812.504
 21
2518.144
 31
0
 0
ARC
 8
TOOL_0
 5
102
 10
777.504
 20
2518.144
 30
0
 40
35.0
 50
0
 51
180.0
210
0
220
0
230
1.0
 0
ARC
 8
TOOL_0
 5
103
 10
777.504
 20
2518.144
 30
0
 40
35.0
 50
180.0
 51
0
210
0
220
0
230
1.0
 0
LINE
 8
TOOL_0
 5
104
 10
812.504
 20
2518.144
 30
0
 11
809.687
 21
2522.693
 31
0
 0
LINE
 8
TOOL_0
 5
105
 10
809.687
 20
2522.693
 30
0
 11
2132.523
 21
2518.024
 31
0
 0
LINE
 8
TOOL_0
 5
106
 10
2132.523
 20
2518.024
 30
0
 11
2162.504
 21
2518.024
 31
0
 0
ARC
 8
TOOL_0
 5
107
 10
2127.504
 20
2518.143
 30
0
 40
35.000202299415
 50
359.805195100301
 51
179.803558097113
210
0
220
0
230
1.0
 0
ARC
 8
TOOL_0
 5
108
 10
2127.504
 20
2518.143
 30
0
 40
35.000205713681
 50
179.803558097113
 51
359.805195100301
210
0
220
0
230
1.0
 0
LINE
 8
TOOL_0
 5
109
 10
2162.504
 20
2518.024
 30
0
 11
2159.505
 21
2523.148
 31
0
 0
LINE
 8
TOOL_0
 5
10A
 10
2159.505
 20
2523.148
 30
0
 11
1581.538
 21
1518.143
 31
0
 0
LINE
 8
TOOL_0
 5
10B
 10
1581.538
 20
1518.143
 30
0
 11
1612.504
 21
1518.143
 31
0
 0
ARC
 8
TOOL_0
 5
10C
 10
1577.504
 20
1518.143
 30
0
 40
35.0
 50
0
 51
180.0
210
0
220
0
230
1.0
 0
ARC
 8
TOOL_0
 5
10D
 10
1577.504
 20
1518.143
 30
0
 40
35.0
 50
180.0
 51
0
210
0
220
0
230
1.0
 0
LINE
 8
TOOL_0
 5
10E
 10
1612.504
 20
1518.143
 30
0
 11
1608.894
 21
1522.165
 31
0
 0
LINE
 8
TOOL_0
 5
10F
 10
1608.894
 20
1522.165
 30
0
 11
2681.49
 21
1518.143
 31
0
 0
LINE
 8
TOOL_0
 5
110
 10
2681.49
 20
1518.143
 30
0
 11
2712.504
 21
1518.143
 31
0
 0
ARC
 8
TOOL_0
 5
111
 10
2677.504
 20
1518.143
 30
0
 40
35.0
 50
0
 51
180.0
210
0
220
0
230
1.0
 0
ARC
 8
TOOL_0
 5
112
 10
2677.504
 20
1518.143
 30
0
 40
35.0
 50
180.0
 51
0
210
0
220
0
230
1.0
 0
LINE
 8
TOOL_0
 5
113
 10
2712.504
 20
1518.143
 30
0
 11
2709.461
 21
1522.645
 31
0
 0
LINE
 8
TOOL_0
 5
114
 10
2709.461
 20
1522.645
 30
0
 11
3483.245
 21
2518.143
 31
0
 0
LINE
 8
TOOL_0
 5
115
 10
3483.245
 20
2518.143
 30
0
 11
3512.504
 21
2518.143
 31
0
 0
ARC
 8
TOOL_0
 5
116
 10
3477.504
 20
2518.143
 30
0
 40
35.0
 50
0
 51
180.0
210
0
220
0
230
1.0
 0
ARC
 8
TOOL_0
 5
117
 10
3477.504
 20
2518.143
 30
0
 40
35.0
 50
180.0
 51
0
210
0
220
0
230
1.0
 0
LINE
 8
TOOL_0
 5
118
 10
3512.504
 20
2518.143
 30
0
 11
3509.032
 21
2522.48
 31
0
 0
LINE
 8
TOOL_0
 5
119
 10
3509.032
 20
2522.48
 30
0
 11
3704.689
 21
2457.553
 31
0
 0
LINE
 8
TOOL_0
 5
11A
 10
3704.689
 20
2457.553
 30
0
 11
3734.504
 21
2457.553
 31
0
 0
LINE
 8
TOOL_0
 5
11B
 10
3734.504
 20
2457.553
 30
0
 11
3734.504
 21
2490.053
 31
0
 0
ARC
 8
TOOL_0
 5
11C
 10
3719.504
 20
2490.053
 30
0
 40
15.0
 50
0
 51
90.0
210
0
220
0
230
1.0
 0
LINE
 8
TOOL_0
 5
11D
 10
3719.504
 20
2505.053
 30
0
 11
3663.504
 21
2505.053
 31
0
 0
ARC
 8
TOOL_0
 5
11E
 10
3663.504
 20
2490.053
 30
0
 40
15.0
 50
90.0
 51
180.0
210
0
220
0
230
1.0
 0
LINE
 8
TOOL_0
 5
11F
 10
3648.504
 20
2490.053
 30
0
 11
3648.504
 21
2425.053
 31
0
 0
ARC
 8
TOOL_0
 5
120
 10
3656.504
 20
2425.053
 30
0
 40
8.0
 50
180.0
 51
0
210
0
220
0
230
1.0
 0
LINE
 8
TOOL_0
 5
121
 10
3664.504
 20
2425.053
 30
0
 11
3664.504
 21
2438.053
 31
0
 0
LINE
 8
TOOL_0
 5
122
 10
3664.504
 20
2438.053
 30
0
 11
3718.504
 21
2438.053
 31
0
 0
LINE
 8
TOOL_0
 5
123
 10
3718.504
 20
2438.053
 30
0
 11
3718.504
 21
2425.053
 31
0
 0
ARC
 8
TOOL_0
 5
124
 10
3726.504
 20
2425.053
 30
0
 40
8.0
 50
180.0
 51
0
210
0
220
0
230
1.0
 0
LINE
 8
TOOL_0
 5
125
 10
3734.504
 20
2425.053
 30
0
 11
3734.504
 21
2457.553
 31
0
 0
LINE
 8
TOOL_0
 5
126
 10
3734.504
 20
2457.553
 30
0
 11
3732.256
 21
2462.073
 31
0
 0
LINE
 8
TOOL_0
 5
127
 10
3732.256
 20
2462.073
 30
0
 11
3954.186
 21
2457.553
 31
0
 0
LINE
 8
TOOL_0
 5
128
 10
3954.186
 20
2457.553
 30
0
 11
3984.504
 21
2457.553
 31
0
 0
LINE
 8
TOOL_0
 5
129
 10
3984.504
 20
2457.553
 30
0
 11
3984.504
 21
2490.053
 31
0
 0
ARC
 8
TOOL_0
 5
12A
 10
3969.504
 20
2490.053
 30
0
 40
15.0
 50
0
 51
90.0
210
0
220
0
230
1.0
 0
LINE
 8
TOOL_0
 5
12B
 10
3969.504
 20
2505.053
 30
0
 11
3913.504
 21
2505.053
 31
0
 0
ARC
 8
TOOL_0
 5
12C
 10
3913.504
 20
2490.053
 30
0
 40
15.0
 50
90.0
 51
180.0
210
0
220
0
230
1.0
 0
LINE
 8
TOOL_0
 5
12D
 10
3898.504
 20
2490.053
 30
0
 11
3898.504
 21
2425.053
 31
0
 0
ARC
 8
TOOL_0
 5
12E
 10
3906.504
 20
2425.053
 30
0
 40
8.0
 50
180.0
 51
0
210
0
220
0
230
1.0
 0
LINE
 8
TOOL_0
 5
12F
 10
3914.504
 20
2425.053
 30
0
 11
3914.504
 21
2438.053
 31
0
 0
LINE
 8
TOOL_0
 5
130
 10
3914.504
 20
2438.053
 30
0
 11
3968.504
 21
2438.053
 31
0
 0
LINE
 8
TOOL_0
 5
131
 10
3968.504
 20
2438.053
 30
0
 11
3968.504
 21
2425.053
 31
0
 0
ARC
 8
TOOL_0
 5
132
 10
3976.504
 20
2425.053
 30
0
 40
8.0
 50
180.0
 51
0
210
0
220
0
230
1.0
 0
LINE
 8
TOOL_0
 5
133
 10
3984.504
 20
2425.053
 30
0
 11
3984.504
 21
2457.553
 31
0
 0
LINE
 8
TOOL_0
 5
134
 10
3984.504
 20
2457.553
 30
0
 11
3982.217
 21
2462.037
 31
0
 0
LINE
 8
TOOL_0
 5
135
 10
3982.217
 20
2462.037
 30
0
 11
9.004
 21
1557.012
 31
0
 0
LINE
 8
TOOL_0
 5
136
 10
9.004
 20
1557.012
 30
0
 11
9.004
 21
1587.643
 31
0
 0
LINE
 8
TOOL_0
 5
137
 10
9.004
 20
1587.643
 30
0
 11
9.004
 21
2560.393
 31
0
 0
LINE
 8
TOOL_0
 5
138
 10
9.004
 20
2560.393
 30
0
 11
61.754
 21
2560.393
 31
0
 0
ARC
 8
TOOL_0
 5
139
 10
61.754
 20
2585.393
 30
0
 40
25.0
 50
270.0
 51
0
210
0
220
0
230
1.0
 0
LINE
 8
TOOL_0
 5
13A
 10
86.754
 20
2585.393
 30
0
 11
86.754
 21
2664.393
 31
0
 0
LINE
 8
TOOL_0
 5
13B
 10
86.754
 20
2664.393
 30
0
 11
80.754
 21
2664.393
 31
0
 0
LINE
 8
TOOL_0
 5
13C
 10
80.754
 20
2664.393
 30
0
 11
80.754
 21
2765.893
 31
0
 0
LINE
 8
TOOL_0
 5
13D
 10
80.754
 20
2765.893
 30
0
 11
4174.254
 21
2765.893
 31
0
 0
LINE
 8
TOOL_0
 5
13E
 10
4174.254
 20
2765.893
 30
0
 11
4174.254
 21
2664.393
 31
0
 0
LINE
 8
TOOL_0
 5
13F
 10
4174.254
 20
2664.393
 30
0
 11
4168.254
 21
2664.393
 31
0
 0
LINE
 8
TOOL_0
 5
140
 10
4168.254
 20
2664.393
 30
0
 11
4168.254
 21
2585.393
 31
0
 0
ARC
 8
TOOL_0
 5
141
 10
4193.254
 20
2585.393
 30
0
 40
25.0
 50
180.0
 51
270.0
210
0
220
0
230
1.0
 0
LINE
 8
TOOL_0
 5
142
 10
4193.254
 20
2560.393
 30
0
 11
4246.004
 21
2560.393
 31
0
 0
LINE
 8
TOOL_0
 5
143
 10
4246.004
 20
2560.393
 30
0
 11
4246.004
 21
1587.643
 31
0
 0
LINE
 8
TOOL_0
 5
144
 10
4246.004
 20
1587.643
 30
0
 11
4164.004
 21
1587.643
 31
0
 0
LINE
 8
TOOL_0
 5
145
 10
4164.004
 20
1587.643
 30
0
 11
4164.004
 21
1883.143
 31
0
 0
ARC
 8
TOOL_0
 5
146
 10
4134.504
 20
1883.143
 30
0
 40
29.5
 50
0
 51
90.0
210
0
220
0
230
1.0
 0
LINE
 8
TOOL_0
 5
147
 10
4134.504
 20
1912.643
 30
0
 11
4118.687
 21
1912.643
 31
0
 0
LINE
 8
TOOL_0
 5
148
 10
4118.687
 20
1912.643
 30
0
 11
4092.859
 21
2257.336
 31
0
 0
ARC
 8
TOOL_0
 5
149
 10
4023.516
 20
2252.102
 30
0
 40
69.540250251203
 50
4.316492568541
 51
89.969515197625
210
0
220
0
230
1.0
 0
LINE
 8
TOOL_0
 5
14A
 10
4023.553
 20
2321.643
 30
0
 11
3577.071
 21
2321.643
 31
0
 0
ARC
 8
TOOL_0
 5
14B
 10
3577.071
 20
2247.143
 30
0
 40
74.5
 50
90.0
 51
174.000292939699
210
0
220
0
230
1.0
 0
LINE
 8
TOOL_0
 5
14C
 10
3502.979
 20
2254.93
 30
0
 11
3470.261
 21
1943.643
 31
0
 0
LINE
 8
TOOL_0
 5
14D
 10
3470.261
 20
1943.643
 30
0
 11
3451.575
 21
1943.643
 31
0
 0
ARC
 8
TOOL_0
 5
14E
 10
3451.588
 20
1914.129
 30
0
 40
29.514002863048
 50
90.025237009063
 51
173.976666617682
210
0
220
0
230
1.0
 0
LINE
 8
TOOL_0
 5
14F
 10
3422.237
 20
1917.226
 30
0
 11
3367.206
 21
1393.643
 31
0
 0
LINE
 8
TOOL_0
 5
150
 10
3367.206
 20
1393.643
 30
0
 11
887.801
 21
1393.643
 31
0
 0
LINE
 8
TOOL_0
 5
151
 10
887.801
 20
1393.643
 30
0
 11
832.77
 21
1917.227
 31
0
 0
ARC
 8
TOOL_0
 5
152
 10
803.419
 20
1914.13
 30
0
 40
29.513939249107
 50
6.023333382317
 51
89.976703509766
210
0
220
0
230
1.0
 0
LINE
 8
TOOL_0
 5
153
 10
803.431
 20
1943.643
 30
0
 11
784.745
 21
1943.643
 31
0
 0
LINE
 8
TOOL_0
 5
154
 10
784.745
 20
1943.643
 30
0
 11
752.027
 21
2254.93
 31
0
 0
ARC
 8
TOOL_0
 5
155
 10
677.935
 20
2247.143
 30
0
 40
74.500079416065
 50
5.999707060301
 51
90.0
210
0
220
0
230
1.0
 0
LINE
 8
TOOL_0
 5
156
 10
677.935
 20
2321.643
 30
0
 11
231.453
 21
2321.643
 31
0
 0
ARC
 8
TOOL_0
 5
157
 10
231.491
 20
2252.103
 30
0
 40
69.540010382513
 50
90.031309166016
 51
175.684391018393
210
0
220
0
230
1.0
 0
LINE
 8
TOOL_0
 5
158
 10
162.147
 20
2257.336
 30
0
 11
136.319
 21
1912.643
 31
0
 0
LINE
 8
TOOL_0
 5
159
 10
136.319
 20
1912.643
 30
0
 11
120.502
 21
1912.643
 31
0
 0
ARC
 8
TOOL_0
 5
15A
 10
120.502
 20
1883.143
 30
0
 40
29.5
 50
90.0
 51
180.0
210
0
220
0
230
1.0
 0
LINE
 8
TOOL_0
 5
15B
 10
91.002
 20
1883.143
 30
0
 11
91.002
 21
1587.643
 31
0
 0
LINE
 8
TOOL_0
 5
15C
 10
91.002
 20
1587.643
 30
0
 11
9.002
 21
1587.643
 31
0
 0
LINE
 8
TOOL_0
 5
15D
 10
9.002
 20
1587.643
 30
0
 11
3.955
 21
1587.643
 31
0
 0
ENDSEC
 0
EOF

