0
SECTION
2
TABLES
0
TABLE
2
LAYER
70
0
0
LAYER
2
LAYER_NAME
70
0
62
1
6
CONTINUOUS
0
ENDTAB
0
ENDSEC
 0
SECTION
 2
ENTITIES
 0
LINE
 8
TOOL_0
 5
1
 10
444.206
 20
37.014
 30
0
 11
419.458
 21
12.265
 31
0
 0
LINE
 8
TOOL_0
 5
2
 10
419.458
 20
12.265
 30
0
 11
416.691
 21
11.102
 31
0
 0
ARC
 8
TOOL_0
 5
3
 10
414.066
 20
12.554
 30
0
 40
2.999821494689
 50
270.0
 51
331.051138355977
210
0
220
0
230
1.0
 0
LINE
 8
TOOL_0
 5
4
 10
414.066
 20
9.554
 30
0
 11
15.566
 21
9.554
 31
0
 0
ARC
 8
TOOL_0
 5
5
 10
15.566
 20
12.554
 30
0
 40
3.0
 50
180.0
 51
270.0
210
0
220
0
230
1.0
 0
LINE
 8
TOOL_0
 5
6
 10
12.566
 20
12.554
 30
0
 11
12.566
 21
131.154
 31
0
 0
ARC
 8
TOOL_0
 5
7
 10
15.566
 20
131.154
 30
0
 40
3.0
 50
90.0
 51
180.0
210
0
220
0
230
1.0
 0
LINE
 8
TOOL_0
 5
8
 10
15.566
 20
134.154
 30
0
 11
414.066
 21
134.154
 31
0
 0
ARC
 8
TOOL_0
 5
9
 10
414.066
 20
131.154
 30
0
 40
3.0
 50
0
 51
90.0
210
0
220
0
230
1.0
 0
LINE
 8
TOOL_0
 5
A
 10
417.066
 20
131.154
 30
0
 11
417.066
 21
14.078
 31
0
 0
LINE
 8
TOOL_0
 5
B
 10
417.066
 20
14.078
 30
0
 11
419.458
 21
12.265
 31
0
 0
LINE
 8
TOOL_0
 5
C
 10
419.458
 20
12.265
 30
0
 11
422.994
 21
8.729
 31
0
 0
LINE
 8
TOOL_0
 5
D
 10
422.994
 20
8.729
 30
0
 11
440.772
 21
184.894
 31
0
 0
LINE
 8
TOOL_0
 5
E
 10
440.772
 20
184.894
 30
0
 11
416.024
 21
160.146
 31
0
 0
LINE
 8
TOOL_0
 5
F
 10
416.024
 20
160.146
 30
0
 11
413.257
 21
158.983
 31
0
 0
ARC
 8
TOOL_0
 5
10
 10
410.632
 20
160.435
 30
0
 40
2.999821494689
 50
270.0
 51
331.051138355977
210
0
220
0
230
1.0
 0
LINE
 8
TOOL_0
 5
11
 10
410.632
 20
157.435
 30
0
 11
12.132
 21
157.435
 31
0
 0
ARC
 8
TOOL_0
 5
12
 10
12.132
 20
160.435
 30
0
 40
3.0
 50
180.0
 51
270.0
210
0
220
0
230
1.0
 0
LINE
 8
TOOL_0
 5
13
 10
9.132
 20
160.435
 30
0
 11
9.132
 21
279.035
 31
0
 0
ARC
 8
TOOL_0
 5
14
 10
12.132
 20
279.035
 30
0
 40
3.0
 50
90.0
 51
180.0
210
0
220
0
230
1.0
 0
LINE
 8
TOOL_0
 5
15
 10
12.132
 20
282.035
 30
0
 11
410.632
 21
282.035
 31
0
 0
ARC
 8
TOOL_0
 5
16
 10
410.632
 20
279.035
 30
0
 40
3.0
 50
0
 51
90.0
210
0
220
0
230
1.0
 0
LINE
 8
TOOL_0
 5
17
 10
413.632
 20
279.035
 30
0
 11
413.632
 21
161.959
 31
0
 0
LINE
 8
TOOL_0
 5
18
 10
413.632
 20
161.959
 30
0
 11
416.024
 21
160.146
 31
0
 0
LINE
 8
TOOL_0
 5
19
 10
416.024
 20
160.146
 30
0
 11
419.56
 21
156.61
 31
0
 0
LINE
 8
TOOL_0
 5
1A
 10
419.56
 20
156.61
 30
0
 11
419.56
 21
0
 31
0
 0
LINE
 8
TOOL_0
 5
1B
 10
419.56
 20
0
 30
0
 11
1765.209
 21
1144.138
 31
0
 0
LINE
 8
TOOL_0
 5
1C
 10
1765.209
 20
1144.138
 30
0
 11
1765.209
 21
1100.456
 31
0
 0
LINE
 8
TOOL_0
 5
1D
 10
1765.209
 20
1100.456
 30
0
 11
1739.029
 21
1102.391
 31
0
 0
LINE
 8
TOOL_0
 5
1E
 10
1739.029
 20
1102.391
 30
0
 11
937.029
 21
1102.391
 31
0
 0
LINE
 8
TOOL_0
 5
1F
 10
937.029
 20
1102.391
 30
0
 11
937.029
 21
1564.191
 31
0
 0
LINE
 8
TOOL_0
 5
20
 10
937.029
 20
1564.191
 30
0
 11
1739.029
 21
1564.191
 31
0
 0
LINE
 8
TOOL_0
 5
21
 10
1739.029
 20
1564.191
 30
0
 11
1739.029
 21
1102.391
 31
0
 0
LINE
 8
TOOL_0
 5
22
 10
1739.029
 20
1102.391
 30
0
 11
1739.299
 21
1097.206
 31
0
 0
LINE
 8
TOOL_0
 5
23
 10
1739.299
 20
1097.206
 30
0
 11
2632.069
 21
1108.622
 31
0
 0
LINE
 8
TOOL_0
 5
24
 10
2632.069
 20
1108.622
 30
0
 11
2591.591
 21
1107.847
 31
0
 0
LINE
 8
TOOL_0
 5
25
 10
2591.591
 20
1107.847
 30
0
 11
1789.591
 21
1107.847
 31
0
 0
LINE
 8
TOOL_0
 5
26
 10
1789.591
 20
1107.847
 30
0
 11
1789.591
 21
1569.647
 31
0
 0
LINE
 8
TOOL_0
 5
27
 10
1789.591
 20
1569.647
 30
0
 11
2591.591
 21
1569.647
 31
0
 0
LINE
 8
TOOL_0
 5
28
 10
2591.591
 20
1569.647
 30
0
 11
2591.591
 21
1107.847
 31
0
 0
LINE
 8
TOOL_0
 5
29
 10
2591.591
 20
1107.847
 30
0
 11
2591.833
 21
1102.327
 31
0
 0
LINE
 8
TOOL_0
 5
2A
 10
2591.833
 20
1102.327
 30
0
 11
2591.833
 21
-0.001
 31
0
 0
LINE
 8
TOOL_0
 5
2B
 10
2591.833
 20
-0.001
 30
0
 11
928.875
 21
1065.621
 31
0
 0
LINE
 8
TOOL_0
 5
2C
 10
928.875
 20
1065.621
 30
0
 11
2704.905
 21
1065.621
 31
0
 0
LINE
 8
TOOL_0
 5
2D
 10
2704.905
 20
1065.621
 30
0
 11
2704.905
 21
2062.006
 31
0
 0
LINE
 8
TOOL_0
 5
2E
 10
2704.905
 20
2062.006
 30
0
 11
2704.905
 21
2063.006
 31
0
 0
LINE
 8
TOOL_0
 5
2F
 10
2704.905
 20
2063.006
 30
0
 11
493.763
 21
-0.001
 31
0
 0
LINE
 8
TOOL_0
 5
30
 10
493.763
 20
-0.001
 30
0
 11
493.763
 21
0.999
 31
0
 0
LINE
 8
TOOL_0
 5
31
 10
493.763
 20
0.999
 30
0
 11
493.763
 21
-0.001
 31
0
 0
LINE
 8
TOOL_0
 5
32
 10
493.763
 20
-0.001
 30
0
 11
493.763
 21
0.999
 31
0
 0
LINE
 8
TOOL_0
 5
33
 10
493.763
 20
0.999
 30
0
 11
493.763
 21
387.289
 31
0
 0
LINE
 8
TOOL_0
 5
34
 10
493.763
 20
387.289
 30
0
 11
493.763
 21
388.289
 31
0
 0
ENDSEC
 0
EOF

