0
SECTION
2
TABLES
0
TABLE
2
LAYER
70
0
0
LAYER
2
LAYER_NAME
70
0
62
1
6
CONTINUOUS
0
ENDTAB
0
ENDSEC
 0
SECTION
 2
ENTITIES
 0
LINE
 8
TOOL_0
 5
1
 10
878.21
 20
594.751
 30
0
 11
909.75
 21
594.751
 31
0
 0
LINE
 8
TOOL_0
 5
2
 10
909.75
 20
594.751
 30
0
 11
909.75
 21
659.751
 31
0
 0
ARC
 8
TOOL_0
 5
3
 10
874.75
 20
659.751
 30
0
 40
35.0
 50
0
 51
90.0
210
0
220
0
230
1.0
 0
LINE
 8
TOOL_0
 5
4
 10
874.75
 20
694.751
 30
0
 11
544.75
 21
694.751
 31
0
 0
ARC
 8
TOOL_0
 5
5
 10
544.75
 20
659.751
 30
0
 40
35.0
 50
90.0
 51
180.0
210
0
220
0
230
1.0
 0
LINE
 8
TOOL_0
 5
6
 10
509.75
 20
659.751
 30
0
 11
509.75
 21
529.751
 31
0
 0
ARC
 8
TOOL_0
 5
7
 10
544.75
 20
529.751
 30
0
 40
35.0
 50
180.0
 51
270.0
210
0
220
0
230
1.0
 0
LINE
 8
TOOL_0
 5
8
 10
544.75
 20
494.751
 30
0
 11
874.75
 21
494.751
 31
0
 0
ARC
 8
TOOL_0
 5
9
 10
874.75
 20
529.751
 30
0
 40
35.0
 50
270.0
 51
0
210
0
220
0
230
1.0
 0
LINE
 8
TOOL_0
 5
A
 10
909.75
 20
529.751
 30
0
 11
909.75
 21
594.751
 31
0
 0
LINE
 8
TOOL_0
 5
B
 10
909.75
 20
594.751
 30
0
 11
906.415
 21
598.913
 31
0
 0
LINE
 8
TOOL_0
 5
C
 10
906.415
 20
598.913
 30
0
 11
879.279
 21
244.751
 31
0
 0
LINE
 8
TOOL_0
 5
D
 10
879.279
 20
244.751
 30
0
 11
909.75
 21
244.751
 31
0
 0
LINE
 8
TOOL_0
 5
E
 10
909.75
 20
244.751
 30
0
 11
909.75
 21
309.751
 31
0
 0
ARC
 8
TOOL_0
 5
F
 10
874.75
 20
309.751
 30
0
 40
35.0
 50
0
 51
90.0
210
0
220
0
230
1.0
 0
LINE
 8
TOOL_0
 5
10
 10
874.75
 20
344.751
 30
0
 11
544.75
 21
344.751
 31
0
 0
ARC
 8
TOOL_0
 5
11
 10
544.75
 20
309.751
 30
0
 40
35.0
 50
90.0
 51
180.0
210
0
220
0
230
1.0
 0
LINE
 8
TOOL_0
 5
12
 10
509.75
 20
309.751
 30
0
 11
509.75
 21
179.751
 31
0
 0
ARC
 8
TOOL_0
 5
13
 10
544.75
 20
179.751
 30
0
 40
35.0
 50
180.0
 51
270.0
210
0
220
0
230
1.0
 0
LINE
 8
TOOL_0
 5
14
 10
544.75
 20
144.751
 30
0
 11
874.75
 21
144.751
 31
0
 0
ARC
 8
TOOL_0
 5
15
 10
874.75
 20
179.751
 30
0
 40
35.0
 50
270.0
 51
0
210
0
220
0
230
1.0
 0
LINE
 8
TOOL_0
 5
16
 10
909.75
 20
179.751
 30
0
 11
909.75
 21
244.751
 31
0
 0
LINE
 8
TOOL_0
 5
17
 10
909.75
 20
244.751
 30
0
 11
907.087
 21
249.292
 31
0
 0
LINE
 8
TOOL_0
 5
18
 10
907.087
 20
249.292
 30
0
 11
1623.241
 21
244.751
 31
0
 0
LINE
 8
TOOL_0
 5
19
 10
1623.241
 20
244.751
 30
0
 11
1654.75
 21
244.751
 31
0
 0
LINE
 8
TOOL_0
 5
1A
 10
1654.75
 20
244.751
 30
0
 11
1654.75
 21
309.751
 31
0
 0
ARC
 8
TOOL_0
 5
1B
 10
1619.75
 20
309.751
 30
0
 40
35.0
 50
0
 51
90.0
210
0
220
0
230
1.0
 0
LINE
 8
TOOL_0
 5
1C
 10
1619.75
 20
344.751
 30
0
 11
1464.75
 21
344.751
 31
0
 0
ARC
 8
TOOL_0
 5
1D
 10
1464.75
 20
309.751
 30
0
 40
35.0
 50
90.0
 51
180.0
210
0
220
0
230
1.0
 0
LINE
 8
TOOL_0
 5
1E
 10
1429.75
 20
309.751
 30
0
 11
1429.75
 21
179.751
 31
0
 0
ARC
 8
TOOL_0
 5
1F
 10
1464.75
 20
179.751
 30
0
 40
35.0
 50
180.0
 51
270.0
210
0
220
0
230
1.0
 0
LINE
 8
TOOL_0
 5
20
 10
1464.75
 20
144.751
 30
0
 11
1619.75
 21
144.751
 31
0
 0
ARC
 8
TOOL_0
 5
21
 10
1619.75
 20
179.751
 30
0
 40
35.0
 50
270.0
 51
0
210
0
220
0
230
1.0
 0
LINE
 8
TOOL_0
 5
22
 10
1654.75
 20
179.751
 30
0
 11
1654.75
 21
244.751
 31
0
 0
LINE
 8
TOOL_0
 5
23
 10
1654.75
 20
244.751
 30
0
 11
1651.57
 21
249.104
 31
0
 0
LINE
 8
TOOL_0
 5
24
 10
1651.57
 20
249.104
 30
0
 11
1624.937
 21
714.751
 31
0
 0
LINE
 8
TOOL_0
 5
25
 10
1624.937
 20
714.751
 30
0
 11
1654.75
 21
714.751
 31
0
 0
LINE
 8
TOOL_0
 5
26
 10
1654.75
 20
714.751
 30
0
 11
1654.75
 21
899.751
 31
0
 0
ARC
 8
TOOL_0
 5
27
 10
1619.75
 20
899.751
 30
0
 40
35.0
 50
0
 51
90.0
210
0
220
0
230
1.0
 0
LINE
 8
TOOL_0
 5
28
 10
1619.75
 20
934.751
 30
0
 11
1464.75
 21
934.751
 31
0
 0
ARC
 8
TOOL_0
 5
29
 10
1464.75
 20
899.751
 30
0
 40
35.0
 50
90.0
 51
180.0
210
0
220
0
230
1.0
 0
LINE
 8
TOOL_0
 5
2A
 10
1429.75
 20
899.751
 30
0
 11
1429.75
 21
529.751
 31
0
 0
ARC
 8
TOOL_0
 5
2B
 10
1464.75
 20
529.751
 30
0
 40
35.0
 50
180.0
 51
270.0
210
0
220
0
230
1.0
 0
LINE
 8
TOOL_0
 5
2C
 10
1464.75
 20
494.751
 30
0
 11
1619.75
 21
494.751
 31
0
 0
ARC
 8
TOOL_0
 5
2D
 10
1619.75
 20
529.751
 30
0
 40
35.0
 50
270.0
 51
0
210
0
220
0
230
1.0
 0
LINE
 8
TOOL_0
 5
2E
 10
1654.75
 20
529.751
 30
0
 11
1654.75
 21
714.751
 31
0
 0
LINE
 8
TOOL_0
 5
2F
 10
1654.75
 20
714.751
 30
0
 11
1650.996
 21
720.26
 31
0
 0
LINE
 8
TOOL_0
 5
30
 10
1650.996
 20
720.26
 30
0
 11
2368.029
 21
714.751
 31
0
 0
LINE
 8
TOOL_0
 5
31
 10
2368.029
 20
714.751
 30
0
 11
2399.75
 21
714.751
 31
0
 0
LINE
 8
TOOL_0
 5
32
 10
2399.75
 20
714.751
 30
0
 11
2399.75
 21
899.751
 31
0
 0
ARC
 8
TOOL_0
 5
33
 10
2364.75
 20
899.751
 30
0
 40
35.0
 50
0
 51
90.0
210
0
220
0
230
1.0
 0
LINE
 8
TOOL_0
 5
34
 10
2364.75
 20
934.751
 30
0
 11
2209.75
 21
934.751
 31
0
 0
ARC
 8
TOOL_0
 5
35
 10
2209.75
 20
899.751
 30
0
 40
35.0
 50
90.0
 51
180.0
210
0
220
0
230
1.0
 0
LINE
 8
TOOL_0
 5
36
 10
2174.75
 20
899.751
 30
0
 11
2174.75
 21
529.751
 31
0
 0
ARC
 8
TOOL_0
 5
37
 10
2209.75
 20
529.751
 30
0
 40
35.0
 50
180.0
 51
270.0
210
0
220
0
230
1.0
 0
LINE
 8
TOOL_0
 5
38
 10
2209.75
 20
494.751
 30
0
 11
2364.75
 21
494.751
 31
0
 0
ARC
 8
TOOL_0
 5
39
 10
2364.75
 20
529.751
 30
0
 40
35.0
 50
270.0
 51
0
210
0
220
0
230
1.0
 0
LINE
 8
TOOL_0
 5
3A
 10
2399.75
 20
529.751
 30
0
 11
2399.75
 21
714.751
 31
0
 0
LINE
 8
TOOL_0
 5
3B
 10
2399.75
 20
714.751
 30
0
 11
2396.787
 21
719.143
 31
0
 0
LINE
 8
TOOL_0
 5
3C
 10
2396.787
 20
719.143
 30
0
 11
2369.096
 21
244.751
 31
0
 0
LINE
 8
TOOL_0
 5
3D
 10
2369.096
 20
244.751
 30
0
 11
2399.75
 21
244.751
 31
0
 0
LINE
 8
TOOL_0
 5
3E
 10
2399.75
 20
244.751
 30
0
 11
2399.75
 21
309.751
 31
0
 0
ARC
 8
TOOL_0
 5
3F
 10
2364.75
 20
309.751
 30
0
 40
35.0
 50
0
 51
90.0
210
0
220
0
230
1.0
 0
LINE
 8
TOOL_0
 5
40
 10
2364.75
 20
344.751
 30
0
 11
2209.75
 21
344.751
 31
0
 0
ARC
 8
TOOL_0
 5
41
 10
2209.75
 20
309.751
 30
0
 40
35.0
 50
90.0
 51
180.0
210
0
220
0
230
1.0
 0
LINE
 8
TOOL_0
 5
42
 10
2174.75
 20
309.751
 30
0
 11
2174.75
 21
179.751
 31
0
 0
ARC
 8
TOOL_0
 5
43
 10
2209.75
 20
179.751
 30
0
 40
35.0
 50
180.0
 51
270.0
210
0
220
0
230
1.0
 0
LINE
 8
TOOL_0
 5
44
 10
2209.75
 20
144.751
 30
0
 11
2364.75
 21
144.751
 31
0
 0
ARC
 8
TOOL_0
 5
45
 10
2364.75
 20
179.751
 30
0
 40
35.0
 50
270.0
 51
0
210
0
220
0
230
1.0
 0
LINE
 8
TOOL_0
 5
46
 10
2399.75
 20
179.751
 30
0
 11
2399.75
 21
244.751
 31
0
 0
LINE
 8
TOOL_0
 5
47
 10
2399.75
 20
244.751
 30
0
 11
2397.576
 21
248.804
 31
0
 0
LINE
 8
TOOL_0
 5
48
 10
2397.576
 20
248.804
 30
0
 11
2805.28
 21
29.221
 31
0
 0
LINE
 8
TOOL_0
 5
49
 10
2805.28
 20
29.221
 30
0
 11
2755.28
 21
29.221
 31
0
 0
LINE
 8
TOOL_0
 5
4A
 10
2755.28
 20
29.221
 30
0
 11
2750.06
 21
24.001
 31
0
 0
LINE
 8
TOOL_0
 5
4B
 10
2750.06
 20
24.001
 30
0
 11
2619.749
 21
24.001
 31
0
 0
ARC
 8
TOOL_0
 5
4C
 10
2619.766
 20
14.723
 30
0
 40
9.278015574464
 50
90.104982448985
 51
152.542881653086
210
0
220
0
230
1.0
 0
LINE
 8
TOOL_0
 5
4D
 10
2611.533
 20
19.001
 30
0
 11
18.999
 21
19.001
 31
0
 0
LINE
 8
TOOL_0
 5
4E
 10
18.999
 20
19.001
 30
0
 11
18.999
 21
816.751
 31
0
 0
ARC
 8
TOOL_0
 5
4F
 10
27.749
 20
816.751
 30
0
 40
8.75
 50
90.0
 51
180.0
210
0
220
0
230
1.0
 0
LINE
 8
TOOL_0
 5
50
 10
27.749
 20
825.501
 30
0
 11
303.794
 21
825.501
 31
0
 0
ARC
 8
TOOL_0
 5
51
 10
303.794
 20
924.751
 30
0
 40
99.25
 50
270.0
 51
288.129900462904
210
0
220
0
230
1.0
 0
LINE
 8
TOOL_0
 5
52
 10
334.678
 20
830.428
 30
0
 11
1480.577
 21
1205.634
 31
0
 0
LINE
 8
TOOL_0
 5
53
 10
1480.577
 20
1205.634
 30
0
 11
2370.5
 21
1205.501
 31
0
 0
LINE
 8
TOOL_0
 5
54
 10
2370.5
 20
1205.501
 30
0
 11
2370.499
 21
1199.751
 31
0
 0
ARC
 8
TOOL_0
 5
55
 10
2419.749
 20
1199.751
 30
0
 40
49.25
 50
180.0
 51
270.0
210
0
220
0
230
1.0
 0
LINE
 8
TOOL_0
 5
56
 10
2419.749
 20
1150.501
 30
0
 11
2476.687
 21
1150.501
 31
0
 0
ARC
 8
TOOL_0
 5
57
 10
2476.687
 20
1099.751
 30
0
 40
50.75
 50
23.050792549175
 51
90.0
210
0
220
0
230
1.0
 0
LINE
 8
TOOL_0
 5
58
 10
2523.385
 20
1119.622
 30
0
 11
2606.447
 21
924.426
 31
0
 0
ARC
 8
TOOL_0
 5
59
 10
2559.526
 20
904.509
 30
0
 40
50.973200115355
 50
0.051705905914
 51
23.000224679738
210
0
220
0
230
1.0
 0
LINE
 8
TOOL_0
 5
5A
 10
2610.499
 20
904.555
 30
0
 11
2610.499
 21
529.751
 31
0
 0
ARC
 8
TOOL_0
 5
5B
 10
2644.749
 20
529.751
 30
0
 40
34.25
 50
180.0
 51
270.0
210
0
220
0
230
1.0
 0
LINE
 8
TOOL_0
 5
5C
 10
2644.749
 20
495.501
 30
0
 11
2760.499
 21
495.501
 31
0
 0
LINE
 8
TOOL_0
 5
5D
 10
2760.499
 20
495.501
 30
0
 11
2760.499
 21
34.44
 31
0
 0
LINE
 8
TOOL_0
 5
5E
 10
2760.499
 20
34.44
 30
0
 11
2755.279
 21
29.22
 31
0
 0
LINE
 8
TOOL_0
 5
5F
 10
2755.279
 20
29.22
 30
0
 11
2755.279
 21
19.22
 31
0
 0
LINE
 8
TOOL_0
 5
60
 10
2755.279
 20
19.22
 30
0
 11
3319.328
 21
526.238
 31
0
 0
LINE
 8
TOOL_0
 5
61
 10
3319.328
 20
526.238
 30
0
 11
3343.442
 21
507.836
 31
0
 0
LINE
 8
TOOL_0
 5
62
 10
3343.442
 20
507.836
 30
0
 11
3402.138
 21
577.787
 31
0
 0
ARC
 8
TOOL_0
 5
63
 10
3375.326
 20
600.285
 30
0
 40
35.000619251665
 50
319.999923895567
 51
49.998871631855
210
0
220
0
230
1.0
 0
LINE
 8
TOOL_0
 5
64
 10
3397.824
 20
627.096
 30
0
 11
3279.087
 21
726.728
 31
0
 0
ARC
 8
TOOL_0
 5
65
 10
3256.589
 20
699.916
 30
0
 40
35.000619251665
 50
49.999923895567
 51
139.998871631855
210
0
220
0
230
1.0
 0
LINE
 8
TOOL_0
 5
66
 10
3229.778
 20
722.414
 30
0
 11
3085.151
 21
550.054
 31
0
 0
ARC
 8
TOOL_0
 5
67
 10
3111.963
 20
527.556
 30
0
 40
35.000619251665
 50
139.999923895566
 51
229.998871631854
210
0
220
0
230
1.0
 0
LINE
 8
TOOL_0
 5
68
 10
3089.465
 20
500.745
 30
0
 11
3208.202
 21
401.113
 31
0
 0
ARC
 8
TOOL_0
 5
69
 10
3230.7
 20
427.925
 30
0
 40
35.000619251665
 50
229.999923895566
 51
319.998871631855
210
0
220
0
230
1.0
 0
LINE
 8
TOOL_0
 5
6A
 10
3257.511
 20
405.427
 30
0
 11
3343.442
 21
507.836
 31
0
 0
LINE
 8
TOOL_0
 5
6B
 10
3343.442
 20
507.836
 30
0
 11
3343.458
 21
513.167
 31
0
 0
LINE
 8
TOOL_0
 5
6C
 10
3343.458
 20
513.167
 30
0
 11
3592.152
 21
285.175
 31
0
 0
LINE
 8
TOOL_0
 5
6D
 10
3592.152
 20
285.175
 30
0
 11
3616.256
 21
265.124
 31
0
 0
LINE
 8
TOOL_0
 5
6E
 10
3616.256
 20
265.124
 30
0
 11
3707.455
 21
373.811
 31
0
 0
ARC
 8
TOOL_0
 5
6F
 10
3680.643
 20
396.309
 30
0
 40
35.000619251665
 50
319.999923895567
 51
49.998871631855
210
0
220
0
230
1.0
 0
LINE
 8
TOOL_0
 5
70
 10
3703.141
 20
423.12
 30
0
 11
3584.404
 21
522.752
 31
0
 0
ARC
 8
TOOL_0
 5
71
 10
3561.906
 20
495.94
 30
0
 40
35.000619251665
 50
49.999923895567
 51
139.998871631855
210
0
220
0
230
1.0
 0
LINE
 8
TOOL_0
 5
72
 10
3535.095
 20
518.438
 30
0
 11
3364.756
 21
315.436
 31
0
 0
ARC
 8
TOOL_0
 5
73
 10
3391.568
 20
292.938
 30
0
 40
35.000619251665
 50
139.999923895566
 51
229.998871631855
210
0
220
0
230
1.0
 0
LINE
 8
TOOL_0
 5
74
 10
3369.07
 20
266.127
 30
0
 11
3487.807
 21
166.495
 31
0
 0
ARC
 8
TOOL_0
 5
75
 10
3510.305
 20
193.307
 30
0
 40
35.000619251665
 50
229.999923895566
 51
319.998871631855
210
0
220
0
230
1.0
 0
LINE
 8
TOOL_0
 5
76
 10
3537.116
 20
170.809
 30
0
 11
3616.255
 21
265.124
 31
0
 0
LINE
 8
TOOL_0
 5
77
 10
3616.255
 20
265.124
 30
0
 11
3616.851
 21
270.899
 31
0
 0
LINE
 8
TOOL_0
 5
78
 10
3616.851
 20
270.899
 30
0
 11
3850.596
 21
168.849
 31
0
 0
LINE
 8
TOOL_0
 5
79
 10
3850.596
 20
168.849
 30
0
 11
3818.457
 21
130.547
 31
0
 0
LINE
 8
TOOL_0
 5
7A
 10
3818.457
 20
130.547
 30
0
 11
3739.006
 21
35.861
 31
0
 0
LINE
 8
TOOL_0
 5
7B
 10
3739.006
 20
35.861
 30
0
 11
3449.323
 21
18.985
 31
0
 0
ARC
 8
TOOL_0
 5
7C
 10
3443.507
 20
118.816
 30
0
 40
100.00027208463
 50
229.999731450274
 51
273.334194964141
210
0
220
0
230
1.0
 0
LINE
 8
TOOL_0
 5
7D
 10
3379.228
 20
42.212
 30
0
 11
2992.5
 21
366.715
 31
0
 0
LINE
 8
TOOL_0
 5
7E
 10
2992.5
 20
366.715
 30
0
 11
2573.875
 21
1047.484
 31
0
 0
LINE
 8
TOOL_0
 5
7F
 10
2573.875
 20
1047.484
 30
0
 11
2783.159
 21
1296.899
 31
0
 0
LINE
 8
TOOL_0
 5
80
 10
2783.159
 20
1296.899
 30
0
 11
2966.55
 21
1143.016
 31
0
 0
ARC
 8
TOOL_0
 5
81
 10
2971.05
 20
1148.378
 30
0
 40
7.000074571031
 50
229.995311365268
 51
320.001581602788
210
0
220
0
230
1.0
 0
LINE
 8
TOOL_0
 5
82
 10
2976.412
 20
1143.879
 30
0
 11
2983.483
 21
1152.306
 31
0
 0
LINE
 8
TOOL_0
 5
83
 10
2983.483
 20
1152.306
 30
0
 11
3384.89
 21
815.485
 31
0
 0
LINE
 8
TOOL_0
 5
84
 10
3384.89
 20
815.485
 30
0
 11
3374.605
 21
803.228
 31
0
 0
ARC
 8
TOOL_0
 5
85
 10
3379.967
 20
798.728
 30
0
 40
7.000074571031
 50
139.995311365268
 51
230.001581602785
210
0
220
0
230
1.0
 0
LINE
 8
TOOL_0
 5
86
 10
3375.468
 20
793.366
 30
0
 11
3496.503
 21
691.806
 31
0
 0
ARC
 8
TOOL_0
 5
87
 10
3501.003
 20
697.168
 30
0
 40
7.000074571031
 50
229.995311365267
 51
320.001581602788
210
0
220
0
230
1.0
 0
LINE
 8
TOOL_0
 5
88
 10
3506.365
 20
692.669
 30
0
 11
3516.65
 21
704.926
 31
0
 0
LINE
 8
TOOL_0
 5
89
 10
3516.65
 20
704.926
 30
0
 11
3875.925
 21
403.459
 31
0
 0
LINE
 8
TOOL_0
 5
8A
 10
3875.925
 20
403.459
 30
0
 11
3865.64
 21
391.202
 31
0
 0
ARC
 8
TOOL_0
 5
8B
 10
3871.002
 20
386.702
 30
0
 40
7.000074571031
 50
139.995311365268
 51
230.001581602786
210
0
220
0
230
1.0
 0
LINE
 8
TOOL_0
 5
8C
 10
3866.503
 20
381.34
 30
0
 11
3955.681
 21
306.51
 31
0
 0
LINE
 8
TOOL_0
 5
8D
 10
3955.681
 20
306.51
 30
0
 11
3956.665
 21
295.259
 31
0
 0
LINE
 8
TOOL_0
 5
8E
 10
3956.665
 20
295.259
 30
0
 11
3921.303
 21
253.116
 31
0
 0
LINE
 8
TOOL_0
 5
8F
 10
3921.303
 20
253.116
 30
0
 11
3904.91
 21
266.872
 31
0
 0
ARC
 8
TOOL_0
 5
90
 10
3853.487
 20
205.588
 30
0
 40
80.000334905549
 50
50.000209467854
 51
229.999749104664
210
0
220
0
230
1.0
 0
LINE
 8
TOOL_0
 5
91
 10
3802.064
 20
144.305
 30
0
 11
3818.458
 21
130.549
 31
0
 0
LINE
 8
TOOL_0
 5
92
 10
3818.458
 20
130.549
 30
0
 11
3826.118
 21
124.121
 31
0
 0
LINE
 8
TOOL_0
 5
93
 10
3826.118
 20
124.121
 30
0
 11
5149.228
 21
594.752
 31
0
 0
LINE
 8
TOOL_0
 5
94
 10
5149.228
 20
594.752
 30
0
 11
5180.248
 21
594.752
 31
0
 0
LINE
 8
TOOL_0
 5
95
 10
5180.248
 20
594.752
 30
0
 11
5180.248
 21
659.752
 31
0
 0
ARC
 8
TOOL_0
 5
96
 10
5145.248
 20
659.752
 30
0
 40
35.0
 50
0
 51
90.0
210
0
220
0
230
1.0
 0
LINE
 8
TOOL_0
 5
97
 10
5145.248
 20
694.752
 30
0
 11
4815.248
 21
694.752
 31
0
 0
ARC
 8
TOOL_0
 5
98
 10
4815.248
 20
659.752
 30
0
 40
35.0
 50
90.0
 51
180.0
210
0
220
0
230
1.0
 0
LINE
 8
TOOL_0
 5
99
 10
4780.248
 20
659.752
 30
0
 11
4780.248
 21
529.752
 31
0
 0
ARC
 8
TOOL_0
 5
9A
 10
4815.248
 20
529.752
 30
0
 40
35.0
 50
180.0
 51
270.0
210
0
220
0
230
1.0
 0
LINE
 8
TOOL_0
 5
9B
 10
4815.248
 20
494.752
 30
0
 11
5145.248
 21
494.752
 31
0
 0
ARC
 8
TOOL_0
 5
9C
 10
5145.248
 20
529.752
 30
0
 40
35.0
 50
270.0
 51
0
210
0
220
0
230
1.0
 0
LINE
 8
TOOL_0
 5
9D
 10
5180.248
 20
529.752
 30
0
 11
5180.248
 21
594.752
 31
0
 0
LINE
 8
TOOL_0
 5
9E
 10
5180.248
 20
594.752
 30
0
 11
5177.254
 21
598.888
 31
0
 0
LINE
 8
TOOL_0
 5
9F
 10
5177.254
 20
598.888
 30
0
 11
5149.057
 21
244.752
 31
0
 0
LINE
 8
TOOL_0
 5
A0
 10
5149.057
 20
244.752
 30
0
 11
5180.248
 21
244.752
 31
0
 0
LINE
 8
TOOL_0
 5
A1
 10
5180.248
 20
244.752
 30
0
 11
5180.248
 21
309.752
 31
0
 0
ARC
 8
TOOL_0
 5
A2
 10
5145.248
 20
309.752
 30
0
 40
35.0
 50
0
 51
90.0
210
0
220
0
230
1.0
 0
LINE
 8
TOOL_0
 5
A3
 10
5145.248
 20
344.752
 30
0
 11
4815.248
 21
344.752
 31
0
 0
ARC
 8
TOOL_0
 5
A4
 10
4815.248
 20
309.752
 30
0
 40
35.0
 50
90.0
 51
180.0
210
0
220
0
230
1.0
 0
LINE
 8
TOOL_0
 5
A5
 10
4780.248
 20
309.752
 30
0
 11
4780.248
 21
179.752
 31
0
 0
ARC
 8
TOOL_0
 5
A6
 10
4815.248
 20
179.752
 30
0
 40
35.0
 50
180.0
 51
270.0
210
0
220
0
230
1.0
 0
LINE
 8
TOOL_0
 5
A7
 10
4815.248
 20
144.752
 30
0
 11
5145.248
 21
144.752
 31
0
 0
ARC
 8
TOOL_0
 5
A8
 10
5145.248
 20
179.752
 30
0
 40
35.0
 50
270.0
 51
0
210
0
220
0
230
1.0
 0
LINE
 8
TOOL_0
 5
A9
 10
5180.248
 20
179.752
 30
0
 11
5180.248
 21
244.752
 31
0
 0
LINE
 8
TOOL_0
 5
AA
 10
5180.248
 20
244.752
 30
0
 11
5177.189
 21
248.755
 31
0
 0
LINE
 8
TOOL_0
 5
AB
 10
5177.189
 20
248.755
 30
0
 11
5894.463
 21
244.752
 31
0
 0
LINE
 8
TOOL_0
 5
AC
 10
5894.463
 20
244.752
 30
0
 11
5925.248
 21
244.752
 31
0
 0
LINE
 8
TOOL_0
 5
AD
 10
5925.248
 20
244.752
 30
0
 11
5925.248
 21
309.752
 31
0
 0
ARC
 8
TOOL_0
 5
AE
 10
5890.248
 20
309.752
 30
0
 40
35.0
 50
0
 51
90.0
210
0
220
0
230
1.0
 0
LINE
 8
TOOL_0
 5
AF
 10
5890.248
 20
344.752
 30
0
 11
5735.248
 21
344.752
 31
0
 0
ARC
 8
TOOL_0
 5
B0
 10
5735.248
 20
309.752
 30
0
 40
35.0
 50
90.0
 51
180.0
210
0
220
0
230
1.0
 0
LINE
 8
TOOL_0
 5
B1
 10
5700.248
 20
309.752
 30
0
 11
5700.248
 21
179.752
 31
0
 0
ARC
 8
TOOL_0
 5
B2
 10
5735.248
 20
179.752
 30
0
 40
35.0
 50
180.0
 51
270.0
210
0
220
0
230
1.0
 0
LINE
 8
TOOL_0
 5
B3
 10
5735.248
 20
144.752
 30
0
 11
5890.248
 21
144.752
 31
0
 0
ARC
 8
TOOL_0
 5
B4
 10
5890.248
 20
179.752
 30
0
 40
35.0
 50
270.0
 51
0
210
0
220
0
230
1.0
 0
LINE
 8
TOOL_0
 5
B5
 10
5925.248
 20
179.752
 30
0
 11
5925.248
 21
244.752
 31
0
 0
LINE
 8
TOOL_0
 5
B6
 10
5925.248
 20
244.752
 30
0
 11
5922.168
 21
249.03
 31
0
 0
LINE
 8
TOOL_0
 5
B7
 10
5922.168
 20
249.03
 30
0
 11
5894.756
 21
714.752
 31
0
 0
LINE
 8
TOOL_0
 5
B8
 10
5894.756
 20
714.752
 30
0
 11
5925.248
 21
714.752
 31
0
 0
LINE
 8
TOOL_0
 5
B9
 10
5925.248
 20
714.752
 30
0
 11
5925.248
 21
899.752
 31
0
 0
ARC
 8
TOOL_0
 5
BA
 10
5890.248
 20
899.752
 30
0
 40
35.0
 50
0
 51
90.0
210
0
220
0
230
1.0
 0
LINE
 8
TOOL_0
 5
BB
 10
5890.248
 20
934.752
 30
0
 11
5735.248
 21
934.752
 31
0
 0
ARC
 8
TOOL_0
 5
BC
 10
5735.248
 20
899.752
 30
0
 40
35.0
 50
90.0
 51
180.0
210
0
220
0
230
1.0
 0
LINE
 8
TOOL_0
 5
BD
 10
5700.248
 20
899.752
 30
0
 11
5700.248
 21
529.752
 31
0
 0
ARC
 8
TOOL_0
 5
BE
 10
5735.248
 20
529.752
 30
0
 40
35.0
 50
180.0
 51
270.0
210
0
220
0
230
1.0
 0
LINE
 8
TOOL_0
 5
BF
 10
5735.248
 20
494.752
 30
0
 11
5890.248
 21
494.752
 31
0
 0
ARC
 8
TOOL_0
 5
C0
 10
5890.248
 20
529.752
 30
0
 40
35.0
 50
270.0
 51
0
210
0
220
0
230
1.0
 0
LINE
 8
TOOL_0
 5
C1
 10
5925.248
 20
529.752
 30
0
 11
5925.248
 21
714.752
 31
0
 0
LINE
 8
TOOL_0
 5
C2
 10
5925.248
 20
714.752
 30
0
 11
5921.996
 21
719.478
 31
0
 0
LINE
 8
TOOL_0
 5
C3
 10
5921.996
 20
719.478
 30
0
 11
6640.164
 21
714.752
 31
0
 0
LINE
 8
TOOL_0
 5
C4
 10
6640.164
 20
714.752
 30
0
 11
6670.248
 21
714.752
 31
0
 0
LINE
 8
TOOL_0
 5
C5
 10
6670.248
 20
714.752
 30
0
 11
6670.248
 21
899.752
 31
0
 0
ARC
 8
TOOL_0
 5
C6
 10
6635.248
 20
899.752
 30
0
 40
35.0
 50
0
 51
90.0
210
0
220
0
230
1.0
 0
LINE
 8
TOOL_0
 5
C7
 10
6635.248
 20
934.752
 30
0
 11
6480.248
 21
934.752
 31
0
 0
ARC
 8
TOOL_0
 5
C8
 10
6480.248
 20
899.752
 30
0
 40
35.0
 50
90.0
 51
180.0
210
0
220
0
230
1.0
 0
LINE
 8
TOOL_0
 5
C9
 10
6445.248
 20
899.752
 30
0
 11
6445.248
 21
529.752
 31
0
 0
ARC
 8
TOOL_0
 5
CA
 10
6480.248
 20
529.752
 30
0
 40
35.0
 50
180.0
 51
270.0
210
0
220
0
230
1.0
 0
LINE
 8
TOOL_0
 5
CB
 10
6480.248
 20
494.752
 30
0
 11
6635.248
 21
494.752
 31
0
 0
ARC
 8
TOOL_0
 5
CC
 10
6635.248
 20
529.752
 30
0
 40
35.0
 50
270.0
 51
0
210
0
220
0
230
1.0
 0
LINE
 8
TOOL_0
 5
CD
 10
6670.248
 20
529.752
 30
0
 11
6670.248
 21
714.752
 31
0
 0
LINE
 8
TOOL_0
 5
CE
 10
6670.248
 20
714.752
 30
0
 11
6667.606
 21
719.332
 31
0
 0
LINE
 8
TOOL_0
 5
CF
 10
6667.606
 20
719.332
 30
0
 11
6639.795
 21
244.752
 31
0
 0
LINE
 8
TOOL_0
 5
D0
 10
6639.795
 20
244.752
 30
0
 11
6670.248
 21
244.752
 31
0
 0
LINE
 8
TOOL_0
 5
D1
 10
6670.248
 20
244.752
 30
0
 11
6670.248
 21
309.752
 31
0
 0
ARC
 8
TOOL_0
 5
D2
 10
6635.248
 20
309.752
 30
0
 40
35.0
 50
0
 51
90.0
210
0
220
0
230
1.0
 0
LINE
 8
TOOL_0
 5
D3
 10
6635.248
 20
344.752
 30
0
 11
6480.248
 21
344.752
 31
0
 0
ARC
 8
TOOL_0
 5
D4
 10
6480.248
 20
309.752
 30
0
 40
35.0
 50
90.0
 51
180.0
210
0
220
0
230
1.0
 0
LINE
 8
TOOL_0
 5
D5
 10
6445.248
 20
309.752
 30
0
 11
6445.248
 21
179.752
 31
0
 0
ARC
 8
TOOL_0
 5
D6
 10
6480.248
 20
179.752
 30
0
 40
35.0
 50
180.0
 51
270.0
210
0
220
0
230
1.0
 0
LINE
 8
TOOL_0
 5
D7
 10
6480.248
 20
144.752
 30
0
 11
6635.248
 21
144.752
 31
0
 0
ARC
 8
TOOL_0
 5
D8
 10
6635.248
 20
179.752
 30
0
 40
35.0
 50
270.0
 51
0
210
0
220
0
230
1.0
 0
LINE
 8
TOOL_0
 5
D9
 10
6670.248
 20
179.752
 30
0
 11
6670.248
 21
244.752
 31
0
 0
LINE
 8
TOOL_0
 5
DA
 10
6670.248
 20
244.752
 30
0
 11
6667.043
 21
249.161
 31
0
 0
LINE
 8
TOOL_0
 5
DB
 10
6667.043
 20
249.161
 30
0
 11
7030.998
 21
527.574
 31
0
 0
LINE
 8
TOOL_0
 5
DC
 10
7030.998
 20
527.574
 30
0
 11
7030.998
 21
495.502
 31
0
 0
LINE
 8
TOOL_0
 5
DD
 10
7030.998
 20
495.502
 30
0
 11
7030.998
 21
34.441
 31
0
 0
LINE
 8
TOOL_0
 5
DE
 10
7030.998
 20
34.441
 30
0
 11
7020.559
 21
24.002
 31
0
 0
LINE
 8
TOOL_0
 5
DF
 10
7020.559
 20
24.002
 30
0
 11
6890.248
 21
24.002
 31
0
 0
ARC
 8
TOOL_0
 5
E0
 10
6890.265
 20
14.724
 30
0
 40
9.278015574464
 50
90.104982448985
 51
152.542881653088
210
0
220
0
230
1.0
 0
LINE
 8
TOOL_0
 5
E1
 10
6882.032
 20
19.002
 30
0
 11
4289.498
 21
19.002
 31
0
 0
LINE
 8
TOOL_0
 5
E2
 10
4289.498
 20
19.002
 30
0
 11
4289.498
 21
816.752
 31
0
 0
ARC
 8
TOOL_0
 5
E3
 10
4298.248
 20
816.752
 30
0
 40
8.75
 50
90.0
 51
180.0
210
0
220
0
230
1.0
 0
LINE
 8
TOOL_0
 5
E4
 10
4298.248
 20
825.502
 30
0
 11
4574.293
 21
825.502
 31
0
 0
ARC
 8
TOOL_0
 5
E5
 10
4574.293
 20
924.752
 30
0
 40
99.25
 50
270.0
 51
288.129900462904
210
0
220
0
230
1.0
 0
LINE
 8
TOOL_0
 5
E6
 10
4605.177
 20
830.429
 30
0
 11
5751.076
 21
1205.635
 31
0
 0
LINE
 8
TOOL_0
 5
E7
 10
5751.076
 20
1205.635
 30
0
 11
6640.999
 21
1205.502
 31
0
 0
LINE
 8
TOOL_0
 5
E8
 10
6640.999
 20
1205.502
 30
0
 11
6640.998
 21
1199.752
 31
0
 0
ARC
 8
TOOL_0
 5
E9
 10
6690.248
 20
1199.752
 30
0
 40
49.25
 50
180.0
 51
270.0
210
0
220
0
230
1.0
 0
LINE
 8
TOOL_0
 5
EA
 10
6690.248
 20
1150.502
 30
0
 11
6747.186
 21
1150.502
 31
0
 0
ARC
 8
TOOL_0
 5
EB
 10
6747.186
 20
1099.752
 30
0
 40
50.75
 50
23.050792549175
 51
90.0
210
0
220
0
230
1.0
 0
LINE
 8
TOOL_0
 5
EC
 10
6793.884
 20
1119.623
 30
0
 11
6876.946
 21
924.427
 31
0
 0
ARC
 8
TOOL_0
 5
ED
 10
6830.025
 20
904.51
 30
0
 40
50.973200115355
 50
0.051705905914
 51
23.000224679737
210
0
220
0
230
1.0
 0
LINE
 8
TOOL_0
 5
EE
 10
6880.998
 20
904.556
 30
0
 11
6880.998
 21
529.752
 31
0
 0
ARC
 8
TOOL_0
 5
EF
 10
6915.248
 20
529.752
 30
0
 40
34.25
 50
180.0
 51
270.0
210
0
220
0
230
1.0
 0
LINE
 8
TOOL_0
 5
F0
 10
6915.248
 20
495.502
 30
0
 11
7030.998
 21
495.502
 31
0
 0
LINE
 8
TOOL_0
 5
F1
 10
7030.998
 20
495.502
 30
0
 11
7036.66
 21
495.502
 31
0
 0
LINE
 8
TOOL_0
 5
F2
 10
7036.66
 20
495.502
 30
0
 11
4319.984
 21
1153.421
 31
0
 0
LINE
 8
TOOL_0
 5
F3
 10
4319.984
 20
1153.421
 30
0
 11
4350.294
 21
1158.275
 31
0
 0
LINE
 8
TOOL_0
 5
F4
 10
4350.294
 20
1158.275
 30
0
 11
4330.759
 21
1269.066
 31
0
 0
ARC
 8
TOOL_0
 5
F5
 10
4296.291
 20
1262.988
 30
0
 40
34.999787256496
 50
10.000583004445
 51
100.000298728378
210
0
220
0
230
1.0
 0
LINE
 8
TOOL_0
 5
F6
 10
4290.213
 20
1297.457
 30
0
 11
4137.568
 21
1270.542
 31
0
 0
ARC
 8
TOOL_0
 5
F7
 10
4143.646
 20
1236.074
 30
0
 40
34.999787256496
 50
100.000583004446
 51
190.000298728377
210
0
220
0
230
1.0
 0
LINE
 8
TOOL_0
 5
F8
 10
4109.177
 20
1229.996
 30
0
 11
4148.248
 21
1008.414
 31
0
 0
ARC
 8
TOOL_0
 5
F9
 10
4182.716
 20
1014.492
 30
0
 40
34.999787256496
 50
190.000583004445
 51
280.000298728378
210
0
220
0
230
1.0
 0
LINE
 8
TOOL_0
 5
FA
 10
4188.794
 20
980.023
 30
0
 11
4341.439
 21
1006.938
 31
0
 0
ARC
 8
TOOL_0
 5
FB
 10
4335.361
 20
1041.406
 30
0
 40
34.999787256496
 50
280.000583004446
 51
10.000298728377
210
0
220
0
230
1.0
 0
LINE
 8
TOOL_0
 5
FC
 10
4369.83
 20
1047.484
 30
0
 11
4350.295
 21
1158.275
 31
0
 0
LINE
 8
TOOL_0
 5
FD
 10
4350.295
 20
1158.275
 30
0
 11
4346.426
 21
1161.551
 31
0
 0
LINE
 8
TOOL_0
 5
FE
 10
4346.426
 20
1161.551
 30
0
 11
4682.09
 21
1196.263
 31
0
 0
LINE
 8
TOOL_0
 5
FF
 10
4682.09
 20
1196.263
 30
0
 11
4713.222
 21
1201.96
 31
0
 0
LINE
 8
TOOL_0
 5
100
 10
4713.222
 20
1201.96
 30
0
 11
4690.214
 21
1332.447
 31
0
 0
ARC
 8
TOOL_0
 5
101
 10
4655.746
 20
1326.369
 30
0
 40
34.999787256496
 50
10.000583004445
 51
100.000298728378
210
0
220
0
230
1.0
 0
LINE
 8
TOOL_0
 5
102
 10
4649.668
 20
1360.838
 30
0
 11
4497.023
 21
1333.923
 31
0
 0
ARC
 8
TOOL_0
 5
103
 10
4503.101
 20
1299.455
 30
0
 40
34.999787256496
 50
100.000583004446
 51
190.000298728377
210
0
220
0
230
1.0
 0
LINE
 8
TOOL_0
 5
104
 10
4468.632
 20
1293.377
 30
0
 11
4514.649
 21
1032.403
 31
0
 0
ARC
 8
TOOL_0
 5
105
 10
4549.117
 20
1038.481
 30
0
 40
34.999787256496
 50
190.000583004445
 51
280.000298728378
210
0
220
0
230
1.0
 0
LINE
 8
TOOL_0
 5
106
 10
4555.195
 20
1004.012
 30
0
 11
4707.84
 21
1030.927
 31
0
 0
ARC
 8
TOOL_0
 5
107
 10
4701.762
 20
1065.395
 30
0
 40
34.999787256496
 50
280.000583004446
 51
10.000298728377
210
0
220
0
230
1.0
 0
LINE
 8
TOOL_0
 5
108
 10
4736.231
 20
1071.473
 30
0
 11
4713.223
 21
1201.96
 31
0
 0
LINE
 8
TOOL_0
 5
109
 10
4713.223
 20
1201.96
 30
0
 11
4709.087
 21
1205.56
 31
0
 0
LINE
 8
TOOL_0
 5
10A
 10
4709.087
 20
1205.56
 30
0
 11
4974.302
 21
1098.499
 31
0
 0
LINE
 8
TOOL_0
 5
10B
 10
4974.302
 20
1098.499
 30
0
 11
4981.779
 21
1069.076
 31
0
 0
LINE
 8
TOOL_0
 5
10C
 10
4981.779
 20
1069.076
 30
0
 11
4991.332
 21
1014.898
 31
0
 0
LINE
 8
TOOL_0
 5
10D
 10
4991.332
 20
1014.898
 30
0
 11
4984.854
 21
1005.647
 31
0
 0
LINE
 8
TOOL_0
 5
10E
 10
4984.854
 20
1005.647
 30
0
 11
4870.208
 21
985.432
 31
0
 0
ARC
 8
TOOL_0
 5
10F
 10
4871.424
 20
978.538
 30
0
 40
7.000420844492
 50
100.003238578782
 51
189.995178182637
210
0
220
0
230
1.0
 0
LINE
 8
TOOL_0
 5
110
 10
4864.53
 20
977.323
 30
0
 11
4867.308
 21
961.566
 31
0
 0
LINE
 8
TOOL_0
 5
111
 10
4867.308
 20
961.566
 30
0
 11
4405.433
 21
880.125
 31
0
 0
LINE
 8
TOOL_0
 5
112
 10
4405.433
 20
880.125
 30
0
 11
4402.655
 21
895.882
 31
0
 0
ARC
 8
TOOL_0
 5
113
 10
4395.761
 20
894.666
 30
0
 40
7.000420844492
 50
10.003238578779
 51
99.995178182639
210
0
220
0
230
1.0
 0
LINE
 8
TOOL_0
 5
114
 10
4394.546
 20
901.56
 30
0
 11
4238.946
 21
874.124
 31
0
 0
ARC
 8
TOOL_0
 5
115
 10
4240.162
 20
867.23
 30
0
 40
7.000420844492
 50
100.003238578782
 51
189.995178182637
210
0
220
0
230
1.0
 0
LINE
 8
TOOL_0
 5
116
 10
4233.268
 20
866.015
 30
0
 11
4236.046
 21
850.258
 31
0
 0
LINE
 8
TOOL_0
 5
117
 10
4236.046
 20
850.258
 30
0
 11
3720.007
 21
759.266
 31
0
 0
LINE
 8
TOOL_0
 5
118
 10
3720.007
 20
759.266
 30
0
 11
3718.097
 21
770.099
 31
0
 0
ARC
 8
TOOL_0
 5
119
 10
3711.203
 20
768.883
 30
0
 40
7.000420844492
 50
10.00323857878
 51
99.995178182639
210
0
220
0
230
1.0
 0
LINE
 8
TOOL_0
 5
11A
 10
3709.988
 20
775.777
 30
0
 11
3474.225
 21
734.206
 31
0
 0
LINE
 8
TOOL_0
 5
11B
 10
3474.225
 20
734.206
 30
0
 11
3417.687
 21
1054.847
 31
0
 0
LINE
 8
TOOL_0
 5
11C
 10
3417.687
 20
1054.847
 30
0
 11
4120.611
 21
1435.097
 31
0
 0
LINE
 8
TOOL_0
 5
11D
 10
4120.611
 20
1435.097
 30
0
 11
4617.779
 21
1522.761
 31
0
 0
ARC
 8
TOOL_0
 5
11E
 10
4635.144
 20
1424.28
 30
0
 40
100.00025292968
 50
56.665893108591
 51
100.000080469564
210
0
220
0
230
1.0
 0
LINE
 8
TOOL_0
 5
11F
 10
4690.096
 20
1507.828
 30
0
 11
4932.531
 21
1348.371
 31
0
 0
LINE
 8
TOOL_0
 5
120
 10
4932.531
 20
1348.371
 30
0
 11
4953.995
 21
1226.645
 31
0
 0
LINE
 8
TOOL_0
 5
121
 10
4953.995
 20
1226.645
 30
0
 11
4932.92
 21
1222.929
 31
0
 0
ARC
 8
TOOL_0
 5
122
 10
4946.812
 20
1144.144
 30
0
 40
80.000399305254
 50
100.000055596221
 51
279.999474641262
210
0
220
0
230
1.0
 0
LINE
 8
TOOL_0
 5
123
 10
4960.703
 20
1065.36
 30
0
 11
4981.778
 21
1069.076
 31
0
 0
LINE
 8
TOOL_0
 5
124
 10
4981.778
 20
1069.076
 30
0
 11
4986.808
 21
1070.621
 31
0
 0
LINE
 8
TOOL_0
 5
125
 10
4986.808
 20
1070.621
 30
0
 11
404.062
 21
1682.501
 31
0
 0
LINE
 8
TOOL_0
 5
126
 10
404.062
 20
1682.501
 30
0
 11
435.001
 21
1682.501
 31
0
 0
LINE
 8
TOOL_0
 5
127
 10
435.001
 20
1682.501
 30
0
 11
435.001
 21
1815.001
 31
0
 0
ARC
 8
TOOL_0
 5
128
 10
400.001
 20
1815.001
 30
0
 40
35.0
 50
0
 51
90.0
210
0
220
0
230
1.0
 0
LINE
 8
TOOL_0
 5
129
 10
400.001
 20
1850.001
 30
0
 11
245.001
 21
1850.001
 31
0
 0
ARC
 8
TOOL_0
 5
12A
 10
245.001
 20
1815.001
 30
0
 40
35.0
 50
90.0
 51
180.0
210
0
220
0
230
1.0
 0
LINE
 8
TOOL_0
 5
12B
 10
210.001
 20
1815.001
 30
0
 11
210.001
 21
1550.001
 31
0
 0
ARC
 8
TOOL_0
 5
12C
 10
245.001
 20
1550.001
 30
0
 40
35.0
 50
180.0
 51
270.0
210
0
220
0
230
1.0
 0
LINE
 8
TOOL_0
 5
12D
 10
245.001
 20
1515.001
 30
0
 11
400.001
 21
1515.001
 31
0
 0
ARC
 8
TOOL_0
 5
12E
 10
400.001
 20
1550.001
 30
0
 40
35.0
 50
270.0
 51
0
210
0
220
0
230
1.0
 0
LINE
 8
TOOL_0
 5
12F
 10
435.001
 20
1550.001
 30
0
 11
435.001
 21
1682.501
 31
0
 0
LINE
 8
TOOL_0
 5
130
 10
435.001
 20
1682.501
 30
0
 11
431.846
 21
1686.552
 31
0
 0
LINE
 8
TOOL_0
 5
131
 10
431.846
 20
1686.552
 30
0
 11
1018.873
 21
1662.501
 31
0
 0
LINE
 8
TOOL_0
 5
132
 10
1018.873
 20
1662.501
 30
0
 11
1050.001
 21
1662.501
 31
0
 0
LINE
 8
TOOL_0
 5
133
 10
1050.001
 20
1662.501
 30
0
 11
1050.001
 21
1775.001
 31
0
 0
ARC
 8
TOOL_0
 5
134
 10
1015.001
 20
1775.001
 30
0
 40
35.0
 50
0
 51
90.0
210
0
220
0
230
1.0
 0
LINE
 8
TOOL_0
 5
135
 10
1015.001
 20
1810.001
 30
0
 11
860.001
 21
1810.001
 31
0
 0
ARC
 8
TOOL_0
 5
136
 10
860.001
 20
1775.001
 30
0
 40
35.0
 50
90.0
 51
180.0
210
0
220
0
230
1.0
 0
LINE
 8
TOOL_0
 5
137
 10
825.001
 20
1775.001
 30
0
 11
825.001
 21
1550.001
 31
0
 0
ARC
 8
TOOL_0
 5
138
 10
860.001
 20
1550.001
 30
0
 40
35.0
 50
180.0
 51
270.0
210
0
220
0
230
1.0
 0
LINE
 8
TOOL_0
 5
139
 10
860.001
 20
1515.001
 30
0
 11
1015.001
 21
1515.001
 31
0
 0
ARC
 8
TOOL_0
 5
13A
 10
1015.001
 20
1550.001
 30
0
 40
35.0
 50
270.0
 51
0
210
0
220
0
230
1.0
 0
LINE
 8
TOOL_0
 5
13B
 10
1050.001
 20
1550.001
 30
0
 11
1050.001
 21
1662.501
 31
0
 0
LINE
 8
TOOL_0
 5
13C
 10
1050.001
 20
1662.501
 30
0
 11
1047.101
 21
1666.914
 31
0
 0
LINE
 8
TOOL_0
 5
13D
 10
1047.101
 20
1666.914
 30
0
 11
19.001
 21
1862.482
 31
0
 0
LINE
 8
TOOL_0
 5
13E
 10
19.001
 20
1862.482
 30
0
 11
19.001
 21
1894.001
 31
0
 0
LINE
 8
TOOL_0
 5
13F
 10
19.001
 20
1894.001
 30
0
 11
19.001
 21
1965.415
 31
0
 0
LINE
 8
TOOL_0
 5
140
 10
19.001
 20
1965.415
 30
0
 11
29.587
 21
1976.001
 31
0
 0
LINE
 8
TOOL_0
 5
141
 10
29.587
 20
1976.001
 30
0
 11
151.339
 21
1976.001
 31
0
 0
ARC
 8
TOOL_0
 5
142
 10
151.305
 20
1985.062
 30
0
 40
9.061063789644
 50
270.214992535105
 51
333.375569119078
210
0
220
0
230
1.0
 0
LINE
 8
TOOL_0
 5
143
 10
159.406
 20
1981.001
 30
0
 11
2321.501
 21
1981.001
 31
0
 0
LINE
 8
TOOL_0
 5
144
 10
2321.501
 20
1981.001
 30
0
 11
2321.501
 21
1551.211
 31
0
 0
ARC
 8
TOOL_0
 5
145
 10
2313.501
 20
1551.211
 30
0
 40
8.0
 50
270.0
 51
0
210
0
220
0
230
1.0
 0
LINE
 8
TOOL_0
 5
146
 10
2313.501
 20
1543.211
 30
0
 11
2030.838
 21
1543.211
 31
0
 0
ARC
 8
TOOL_0
 5
147
 10
2031.018
 20
1442.546
 30
0
 40
100.665160929688
 50
90.102450994097
 51
102.266925903661
210
0
220
0
230
1.0
 0
LINE
 8
TOOL_0
 5
148
 10
2009.63
 20
1540.913
 30
0
 11
1139.07
 21
1350.001
 31
0
 0
LINE
 8
TOOL_0
 5
149
 10
1139.07
 20
1350.001
 30
0
 11
208.738
 21
1350.001
 31
0
 0
ARC
 8
TOOL_0
 5
14A
 10
208.738
 20
1451.001
 30
0
 40
101.0
 50
204.200430908951
 51
270.0
210
0
220
0
230
1.0
 0
LINE
 8
TOOL_0
 5
14B
 10
116.614
 20
1409.598
 30
0
 11
19.001
 21
1626.787
 31
0
 0
LINE
 8
TOOL_0
 5
14C
 10
19.001
 20
1626.787
 30
0
 11
19.001
 21
1736.001
 31
0
 0
LINE
 8
TOOL_0
 5
14D
 10
19.001
 20
1736.001
 30
0
 11
40.001
 21
1736.001
 31
0
 0
ARC
 8
TOOL_0
 5
14E
 10
40.001
 20
1815.001
 30
0
 40
79.0
 50
270.0
 51
90.0
210
0
220
0
230
1.0
 0
LINE
 8
TOOL_0
 5
14F
 10
40.001
 20
1894.001
 30
0
 11
19.001
 21
1894.001
 31
0
 0
LINE
 8
TOOL_0
 5
150
 10
19.001
 20
1894.001
 30
0
 11
13.404
 21
1894.001
 31
0
 0
LINE
 8
TOOL_0
 5
151
 10
13.404
 20
1894.001
 30
0
 11
2725.36
 21
1682.501
 31
0
 0
LINE
 8
TOOL_0
 5
152
 10
2725.36
 20
1682.501
 30
0
 11
2755.807
 21
1682.501
 31
0
 0
LINE
 8
TOOL_0
 5
153
 10
2755.807
 20
1682.501
 30
0
 11
2755.807
 21
1815.001
 31
0
 0
ARC
 8
TOOL_0
 5
154
 10
2720.807
 20
1815.001
 30
0
 40
35.0
 50
0
 51
90.0
210
0
220
0
230
1.0
 0
LINE
 8
TOOL_0
 5
155
 10
2720.807
 20
1850.001
 30
0
 11
2565.807
 21
1850.001
 31
0
 0
ARC
 8
TOOL_0
 5
156
 10
2565.807
 20
1815.001
 30
0
 40
35.0
 50
90.0
 51
180.0
210
0
220
0
230
1.0
 0
LINE
 8
TOOL_0
 5
157
 10
2530.807
 20
1815.001
 30
0
 11
2530.807
 21
1550.001
 31
0
 0
ARC
 8
TOOL_0
 5
158
 10
2565.807
 20
1550.001
 30
0
 40
35.0
 50
180.0
 51
270.0
210
0
220
0
230
1.0
 0
LINE
 8
TOOL_0
 5
159
 10
2565.807
 20
1515.001
 30
0
 11
2720.807
 21
1515.001
 31
0
 0
ARC
 8
TOOL_0
 5
15A
 10
2720.807
 20
1550.001
 30
0
 40
35.0
 50
270.0
 51
0
210
0
220
0
230
1.0
 0
LINE
 8
TOOL_0
 5
15B
 10
2755.807
 20
1550.001
 30
0
 11
2755.807
 21
1682.501
 31
0
 0
LINE
 8
TOOL_0
 5
15C
 10
2755.807
 20
1682.501
 30
0
 11
2752.133
 21
1686.04
 31
0
 0
LINE
 8
TOOL_0
 5
15D
 10
2752.133
 20
1686.04
 30
0
 11
3340.285
 21
1662.501
 31
0
 0
LINE
 8
TOOL_0
 5
15E
 10
3340.285
 20
1662.501
 30
0
 11
3370.807
 21
1662.501
 31
0
 0
LINE
 8
TOOL_0
 5
15F
 10
3370.807
 20
1662.501
 30
0
 11
3370.807
 21
1775.001
 31
0
 0
ARC
 8
TOOL_0
 5
160
 10
3335.807
 20
1775.001
 30
0
 40
35.0
 50
0
 51
90.0
210
0
220
0
230
1.0
 0
LINE
 8
TOOL_0
 5
161
 10
3335.807
 20
1810.001
 30
0
 11
3180.807
 21
1810.001
 31
0
 0
ARC
 8
TOOL_0
 5
162
 10
3180.807
 20
1775.001
 30
0
 40
35.0
 50
90.0
 51
180.0
210
0
220
0
230
1.0
 0
LINE
 8
TOOL_0
 5
163
 10
3145.807
 20
1775.001
 30
0
 11
3145.807
 21
1550.001
 31
0
 0
ARC
 8
TOOL_0
 5
164
 10
3180.807
 20
1550.001
 30
0
 40
35.0
 50
180.0
 51
270.0
210
0
220
0
230
1.0
 0
LINE
 8
TOOL_0
 5
165
 10
3180.807
 20
1515.001
 30
0
 11
3335.807
 21
1515.001
 31
0
 0
ARC
 8
TOOL_0
 5
166
 10
3335.807
 20
1550.001
 30
0
 40
35.0
 50
270.0
 51
0
210
0
220
0
230
1.0
 0
LINE
 8
TOOL_0
 5
167
 10
3370.807
 20
1550.001
 30
0
 11
3370.807
 21
1662.501
 31
0
 0
LINE
 8
TOOL_0
 5
168
 10
3370.807
 20
1662.501
 30
0
 11
3367.283
 21
1666.436
 31
0
 0
LINE
 8
TOOL_0
 5
169
 10
3367.283
 20
1666.436
 30
0
 11
2339.807
 21
1861.845
 31
0
 0
LINE
 8
TOOL_0
 5
16A
 10
2339.807
 20
1861.845
 30
0
 11
2339.807
 21
1894.001
 31
0
 0
LINE
 8
TOOL_0
 5
16B
 10
2339.807
 20
1894.001
 30
0
 11
2339.807
 21
1965.415
 31
0
 0
LINE
 8
TOOL_0
 5
16C
 10
2339.807
 20
1965.415
 30
0
 11
2350.393
 21
1976.001
 31
0
 0
LINE
 8
TOOL_0
 5
16D
 10
2350.393
 20
1976.001
 30
0
 11
2472.145
 21
1976.001
 31
0
 0
ARC
 8
TOOL_0
 5
16E
 10
2472.111
 20
1985.062
 30
0
 40
9.061063789644
 50
270.214992535105
 51
333.375569119079
210
0
220
0
230
1.0
 0
LINE
 8
TOOL_0
 5
16F
 10
2480.212
 20
1981.001
 30
0
 11
4642.307
 21
1981.001
 31
0
 0
LINE
 8
TOOL_0
 5
170
 10
4642.307
 20
1981.001
 30
0
 11
4642.307
 21
1551.211
 31
0
 0
ARC
 8
TOOL_0
 5
171
 10
4634.307
 20
1551.211
 30
0
 40
8.0
 50
270.0
 51
0
210
0
220
0
230
1.0
 0
LINE
 8
TOOL_0
 5
172
 10
4634.307
 20
1543.211
 30
0
 11
4351.644
 21
1543.211
 31
0
 0
ARC
 8
TOOL_0
 5
173
 10
4351.824
 20
1442.546
 30
0
 40
100.665160929688
 50
90.102450994097
 51
102.266925903661
210
0
220
0
230
1.0
 0
LINE
 8
TOOL_0
 5
174
 10
4330.436
 20
1540.913
 30
0
 11
3459.876
 21
1350.001
 31
0
 0
LINE
 8
TOOL_0
 5
175
 10
3459.876
 20
1350.001
 30
0
 11
2529.544
 21
1350.001
 31
0
 0
ARC
 8
TOOL_0
 5
176
 10
2529.544
 20
1451.001
 30
0
 40
101.0
 50
204.200430908952
 51
270.0
210
0
220
0
230
1.0
 0
LINE
 8
TOOL_0
 5
177
 10
2437.42
 20
1409.598
 30
0
 11
2339.807
 21
1626.787
 31
0
 0
LINE
 8
TOOL_0
 5
178
 10
2339.807
 20
1626.787
 30
0
 11
2339.807
 21
1736.001
 31
0
 0
LINE
 8
TOOL_0
 5
179
 10
2339.807
 20
1736.001
 30
0
 11
2360.807
 21
1736.001
 31
0
 0
ARC
 8
TOOL_0
 5
17A
 10
2360.807
 20
1815.001
 30
0
 40
79.0
 50
270.0
 51
90.0
210
0
220
0
230
1.0
 0
LINE
 8
TOOL_0
 5
17B
 10
2360.807
 20
1894.001
 30
0
 11
2339.807
 21
1894.001
 31
0
 0
LINE
 8
TOOL_0
 5
17C
 10
2339.807
 20
1894.001
 30
0
 11
2334.414
 21
1894.001
 31
0
 0
LINE
 8
TOOL_0
 5
17D
 10
2334.414
 20
1894.001
 30
0
 11
6189.23
 21
1662.501
 31
0
 0
LINE
 8
TOOL_0
 5
17E
 10
6189.23
 20
1662.501
 30
0
 11
6220.959
 21
1662.501
 31
0
 0
LINE
 8
TOOL_0
 5
17F
 10
6220.959
 20
1662.501
 30
0
 11
6220.959
 21
1775.001
 31
0
 0
ARC
 8
TOOL_0
 5
180
 10
6185.959
 20
1775.001
 30
0
 40
35.0
 50
0
 51
90.0
210
0
220
0
230
1.0
 0
LINE
 8
TOOL_0
 5
181
 10
6185.959
 20
1810.001
 30
0
 11
6030.959
 21
1810.001
 31
0
 0
ARC
 8
TOOL_0
 5
182
 10
6030.959
 20
1775.001
 30
0
 40
35.0
 50
90.0
 51
180.0
210
0
220
0
230
1.0
 0
LINE
 8
TOOL_0
 5
183
 10
5995.959
 20
1775.001
 30
0
 11
5995.959
 21
1550.001
 31
0
 0
ARC
 8
TOOL_0
 5
184
 10
6030.959
 20
1550.001
 30
0
 40
35.0
 50
180.0
 51
270.0
210
0
220
0
230
1.0
 0
LINE
 8
TOOL_0
 5
185
 10
6030.959
 20
1515.001
 30
0
 11
6185.959
 21
1515.001
 31
0
 0
ARC
 8
TOOL_0
 5
186
 10
6185.959
 20
1550.001
 30
0
 40
35.0
 50
270.0
 51
0
210
0
220
0
230
1.0
 0
LINE
 8
TOOL_0
 5
187
 10
6220.959
 20
1550.001
 30
0
 11
6220.959
 21
1662.501
 31
0
 0
LINE
 8
TOOL_0
 5
188
 10
6220.959
 20
1662.501
 30
0
 11
6218.434
 21
1667.125
 31
0
 0
LINE
 8
TOOL_0
 5
189
 10
6218.434
 20
1667.125
 30
0
 11
6804.105
 21
1682.501
 31
0
 0
LINE
 8
TOOL_0
 5
18A
 10
6804.105
 20
1682.501
 30
0
 11
6835.959
 21
1682.501
 31
0
 0
LINE
 8
TOOL_0
 5
18B
 10
6835.959
 20
1682.501
 30
0
 11
6835.959
 21
1815.001
 31
0
 0
ARC
 8
TOOL_0
 5
18C
 10
6800.959
 20
1815.001
 30
0
 40
35.0
 50
0
 51
90.0
210
0
220
0
230
1.0
 0
LINE
 8
TOOL_0
 5
18D
 10
6800.959
 20
1850.001
 30
0
 11
6645.959
 21
1850.001
 31
0
 0
ARC
 8
TOOL_0
 5
18E
 10
6645.959
 20
1815.001
 30
0
 40
35.0
 50
90.0
 51
180.0
210
0
220
0
230
1.0
 0
LINE
 8
TOOL_0
 5
18F
 10
6610.959
 20
1815.001
 30
0
 11
6610.959
 21
1550.001
 31
0
 0
ARC
 8
TOOL_0
 5
190
 10
6645.959
 20
1550.001
 30
0
 40
35.0
 50
180.0
 51
270.0
210
0
220
0
230
1.0
 0
LINE
 8
TOOL_0
 5
191
 10
6645.959
 20
1515.001
 30
0
 11
6800.959
 21
1515.001
 31
0
 0
ARC
 8
TOOL_0
 5
192
 10
6800.959
 20
1550.001
 30
0
 40
35.0
 50
270.0
 51
0
210
0
220
0
230
1.0
 0
LINE
 8
TOOL_0
 5
193
 10
6835.959
 20
1550.001
 30
0
 11
6835.959
 21
1682.501
 31
0
 0
LINE
 8
TOOL_0
 5
194
 10
6835.959
 20
1682.501
 30
0
 11
6833.188
 21
1686.785
 31
0
 0
LINE
 8
TOOL_0
 5
195
 10
6833.188
 20
1686.785
 30
0
 11
7026.959
 21
1767.012
 31
0
 0
LINE
 8
TOOL_0
 5
196
 10
7026.959
 20
1767.012
 30
0
 11
7026.959
 21
1736.001
 31
0
 0
LINE
 8
TOOL_0
 5
197
 10
7026.959
 20
1736.001
 30
0
 11
7026.959
 21
1626.787
 31
0
 0
LINE
 8
TOOL_0
 5
198
 10
7026.959
 20
1626.787
 30
0
 11
6929.346
 21
1409.598
 31
0
 0
ARC
 8
TOOL_0
 5
199
 10
6837.223
 20
1451.002
 30
0
 40
100.999694776766
 50
269.999432715054
 51
335.798819111463
210
0
220
0
230
1.0
 0
LINE
 8
TOOL_0
 5
19A
 10
6837.222
 20
1350.002
 30
0
 11
5906.891
 21
1350.002
 31
0
 0
LINE
 8
TOOL_0
 5
19B
 10
5906.891
 20
1350.002
 30
0
 11
5036.331
 21
1540.914
 31
0
 0
ARC
 8
TOOL_0
 5
19C
 10
5014.943
 20
1442.547
 30
0
 40
100.665352693963
 50
77.733074096339
 51
89.897549005903
210
0
220
0
230
1.0
 0
LINE
 8
TOOL_0
 5
19D
 10
5015.123
 20
1543.212
 30
0
 11
4732.46
 21
1543.212
 31
0
 0
ARC
 8
TOOL_0
 5
19E
 10
4732.46
 20
1551.212
 30
0
 40
8.0
 50
180.0
 51
270.0
210
0
220
0
230
1.0
 0
LINE
 8
TOOL_0
 5
19F
 10
4724.46
 20
1551.212
 30
0
 11
4724.46
 21
1981.001
 31
0
 0
LINE
 8
TOOL_0
 5
1A0
 10
4724.46
 20
1981.001
 30
0
 11
6886.555
 21
1981.001
 31
0
 0
ARC
 8
TOOL_0
 5
1A1
 10
6894.655
 20
1985.062
 30
0
 40
9.061
 50
206.627264624285
 51
269.791330717987
210
0
220
0
230
1.0
 0
LINE
 8
TOOL_0
 5
1A2
 10
6894.622
 20
1976.001
 30
0
 11
7016.374
 21
1976.001
 31
0
 0
LINE
 8
TOOL_0
 5
1A3
 10
7016.374
 20
1976.001
 30
0
 11
7026.96
 21
1965.415
 31
0
 0
LINE
 8
TOOL_0
 5
1A4
 10
7026.96
 20
1965.415
 30
0
 11
7026.96
 21
1894.001
 31
0
 0
LINE
 8
TOOL_0
 5
1A5
 10
7026.96
 20
1894.001
 30
0
 11
7005.96
 21
1894.001
 31
0
 0
ARC
 8
TOOL_0
 5
1A6
 10
7005.96
 20
1815.001
 30
0
 40
79.0
 50
90.0
 51
270.0
210
0
220
0
230
1.0
 0
LINE
 8
TOOL_0
 5
1A7
 10
7005.96
 20
1736.001
 30
0
 11
7026.96
 21
1736.001
 31
0
 0
LINE
 8
TOOL_0
 5
1A8
 10
7026.96
 20
1736.001
 30
0
 11
7032.121
 21
1736.001
 31
0
 0
ENDSEC
 0
EOF

