0
SECTION
2
TABLES
0
TABLE
2
LAYER
70
0
0
LAYER
2
LAYER_NAME
70
0
62
1
6
CONTINUOUS
0
ENDTAB
0
ENDSEC
 0
SECTION
 2
ENTITIES
 0
LINE
 8
TOOL_0
 5
1
 10
1284.355
 20
322.251
 30
0
 11
1314.75
 21
322.251
 31
0
 0
LINE
 8
TOOL_0
 5
2
 10
1314.75
 20
322.251
 30
0
 11
1314.75
 21
434.751
 31
0
 0
ARC
 8
TOOL_0
 5
3
 10
1279.75
 20
434.751
 30
0
 40
35.0
 50
0
 51
90.0
210
0
220
0
230
1.0
 0
LINE
 8
TOOL_0
 5
4
 10
1279.75
 20
469.751
 30
0
 11
1124.75
 21
469.751
 31
0
 0
ARC
 8
TOOL_0
 5
5
 10
1124.75
 20
434.751
 30
0
 40
35.0
 50
90.0
 51
180.0
210
0
220
0
230
1.0
 0
LINE
 8
TOOL_0
 5
6
 10
1089.75
 20
434.751
 30
0
 11
1089.75
 21
209.751
 31
0
 0
ARC
 8
TOOL_0
 5
7
 10
1124.75
 20
209.751
 30
0
 40
35.0
 50
180.0
 51
270.0
210
0
220
0
230
1.0
 0
LINE
 8
TOOL_0
 5
8
 10
1124.75
 20
174.751
 30
0
 11
1279.75
 21
174.751
 31
0
 0
ARC
 8
TOOL_0
 5
9
 10
1279.75
 20
209.751
 30
0
 40
35.0
 50
270.0
 51
0
210
0
220
0
230
1.0
 0
LINE
 8
TOOL_0
 5
A
 10
1314.75
 20
209.751
 30
0
 11
1314.75
 21
322.251
 31
0
 0
LINE
 8
TOOL_0
 5
B
 10
1314.75
 20
322.251
 30
0
 11
1311.657
 21
326.592
 31
0
 0
LINE
 8
TOOL_0
 5
C
 10
1311.657
 20
326.592
 30
0
 11
1753.132
 21
302.251
 31
0
 0
LINE
 8
TOOL_0
 5
D
 10
1753.132
 20
302.251
 30
0
 11
1784.75
 21
302.251
 31
0
 0
LINE
 8
TOOL_0
 5
E
 10
1784.75
 20
302.251
 30
0
 11
1784.75
 21
434.751
 31
0
 0
ARC
 8
TOOL_0
 5
F
 10
1749.75
 20
434.751
 30
0
 40
35.0
 50
0
 51
90.0
210
0
220
0
230
1.0
 0
LINE
 8
TOOL_0
 5
10
 10
1749.75
 20
469.751
 30
0
 11
1594.75
 21
469.751
 31
0
 0
ARC
 8
TOOL_0
 5
11
 10
1594.75
 20
434.751
 30
0
 40
35.0
 50
90.0
 51
180.0
210
0
220
0
230
1.0
 0
LINE
 8
TOOL_0
 5
12
 10
1559.75
 20
434.751
 30
0
 11
1559.75
 21
169.751
 31
0
 0
ARC
 8
TOOL_0
 5
13
 10
1594.75
 20
169.751
 30
0
 40
35.0
 50
180.0
 51
270.0
210
0
220
0
230
1.0
 0
LINE
 8
TOOL_0
 5
14
 10
1594.75
 20
134.751
 30
0
 11
1749.75
 21
134.751
 31
0
 0
ARC
 8
TOOL_0
 5
15
 10
1749.75
 20
169.751
 30
0
 40
35.0
 50
270.0
 51
0
210
0
220
0
230
1.0
 0
LINE
 8
TOOL_0
 5
16
 10
1784.75
 20
169.751
 30
0
 11
1784.75
 21
302.251
 31
0
 0
LINE
 8
TOOL_0
 5
17
 10
1784.75
 20
302.251
 30
0
 11
1781.615
 21
306.286
 31
0
 0
LINE
 8
TOOL_0
 5
18
 10
1781.615
 20
306.286
 30
0
 11
2020.5
 21
150.973
 31
0
 0
LINE
 8
TOOL_0
 5
19
 10
2020.5
 20
150.973
 30
0
 11
2020.5
 21
120.501
 31
0
 0
LINE
 8
TOOL_0
 5
1A
 10
2020.5
 20
120.501
 30
0
 11
2020.5
 21
49.44
 31
0
 0
LINE
 8
TOOL_0
 5
1B
 10
2020.5
 20
49.44
 30
0
 11
2013.061
 21
42.001
 31
0
 0
LINE
 8
TOOL_0
 5
1C
 10
2013.061
 20
42.001
 30
0
 11
1896.5
 21
42.001
 31
0
 0
ARC
 8
TOOL_0
 5
1D
 10
1896.5
 20
35.001
 30
0
 40
7.0
 50
90.0
 51
180.0
210
0
220
0
230
1.0
 0
LINE
 8
TOOL_0
 5
1E
 10
1889.5
 20
35.001
 30
0
 11
1889.5
 21
19.001
 31
0
 0
LINE
 8
TOOL_0
 5
1F
 10
1889.5
 20
19.001
 30
0
 11
1240.0
 21
19.001
 31
0
 0
LINE
 8
TOOL_0
 5
20
 10
1240.0
 20
19.001
 30
0
 11
1240.0
 21
35.001
 31
0
 0
ARC
 8
TOOL_0
 5
21
 10
1233.0
 20
35.001
 30
0
 40
7.0
 50
0
 51
90.0
210
0
220
0
230
1.0
 0
LINE
 8
TOOL_0
 5
22
 10
1233.0
 20
42.001
 30
0
 11
1076.5
 21
42.001
 31
0
 0
ARC
 8
TOOL_0
 5
23
 10
1076.5
 20
35.001
 30
0
 40
7.0
 50
90.0
 51
180.0
210
0
220
0
230
1.0
 0
LINE
 8
TOOL_0
 5
24
 10
1069.5
 20
35.001
 30
0
 11
1069.5
 21
19.001
 31
0
 0
LINE
 8
TOOL_0
 5
25
 10
1069.5
 20
19.001
 30
0
 11
835.0
 21
19.001
 31
0
 0
LINE
 8
TOOL_0
 5
26
 10
835.0
 20
19.001
 30
0
 11
835.0
 21
35.001
 31
0
 0
ARC
 8
TOOL_0
 5
27
 10
828.0
 20
35.001
 30
0
 40
7.0
 50
0
 51
90.0
210
0
220
0
230
1.0
 0
LINE
 8
TOOL_0
 5
28
 10
828.0
 20
42.001
 30
0
 11
571.5
 21
42.001
 31
0
 0
ARC
 8
TOOL_0
 5
29
 10
571.5
 20
35.001
 30
0
 40
7.0
 50
90.0
 51
180.0
210
0
220
0
230
1.0
 0
LINE
 8
TOOL_0
 5
2A
 10
564.5
 20
35.001
 30
0
 11
564.5
 21
19.001
 31
0
 0
LINE
 8
TOOL_0
 5
2B
 10
564.5
 20
19.001
 30
0
 11
265.0
 21
19.001
 31
0
 0
LINE
 8
TOOL_0
 5
2C
 10
265.0
 20
19.001
 30
0
 11
265.0
 21
33.001
 31
0
 0
ARC
 8
TOOL_0
 5
2D
 10
258.0
 20
33.001
 30
0
 40
7.0
 50
0
 51
90.0
210
0
220
0
230
1.0
 0
LINE
 8
TOOL_0
 5
2E
 10
258.0
 20
40.001
 30
0
 11
19.0
 21
40.001
 31
0
 0
LINE
 8
TOOL_0
 5
2F
 10
19.0
 20
40.001
 30
0
 11
19.0
 21
444.496
 31
0
 0
ARC
 8
TOOL_0
 5
30
 10
27.75
 20
444.496
 30
0
 40
8.75
 50
90.0
 51
180.0
210
0
220
0
230
1.0
 0
LINE
 8
TOOL_0
 5
31
 10
27.75
 20
453.246
 30
0
 11
306.528
 21
453.246
 31
0
 0
ARC
 8
TOOL_0
 5
32
 10
306.528
 20
552.498
 30
0
 40
99.252
 50
270.0
 51
285.063685741874
210
0
220
0
230
1.0
 0
LINE
 8
TOOL_0
 5
33
 10
332.323
 20
456.656
 30
0
 11
978.229
 21
630.501
 31
0
 0
LINE
 8
TOOL_0
 5
34
 10
978.229
 20
630.501
 30
0
 11
1794.829
 21
630.501
 31
0
 0
ARC
 8
TOOL_0
 5
35
 10
1794.829
 20
529.751
 30
0
 40
100.75
 50
35.651782107621
 51
90.0
210
0
220
0
230
1.0
 0
LINE
 8
TOOL_0
 5
36
 10
1876.696
 20
588.474
 30
0
 11
2020.502
 21
387.992
 31
0
 0
LINE
 8
TOOL_0
 5
37
 10
2020.502
 20
387.992
 30
0
 11
2020.502
 21
279.001
 31
0
 0
LINE
 8
TOOL_0
 5
38
 10
2020.502
 20
279.001
 30
0
 11
1999.752
 21
279.001
 31
0
 0
ARC
 8
TOOL_0
 5
39
 10
1999.752
 20
199.751
 30
0
 40
79.25
 50
90.0
 51
270.0
210
0
220
0
230
1.0
 0
LINE
 8
TOOL_0
 5
3A
 10
1999.752
 20
120.501
 30
0
 11
2020.502
 21
120.501
 31
0
 0
LINE
 8
TOOL_0
 5
3B
 10
2020.502
 20
120.501
 30
0
 11
2025.527
 21
120.501
 31
0
 0
LINE
 8
TOOL_0
 5
3C
 10
2025.527
 20
120.501
 30
0
 11
2076.687
 21
0
 31
0
 0
LINE
 8
TOOL_0
 5
3D
 10
2076.687
 20
0
 30
0
 11
2076.687
 21
1.0
 31
0
 0
LINE
 8
TOOL_0
 5
3E
 10
2076.687
 20
1.0
 30
0
 11
2076.687
 21
0
 31
0
 0
LINE
 8
TOOL_0
 5
3F
 10
2076.687
 20
0
 30
0
 11
2076.687
 21
0
 31
0
 0
LINE
 8
TOOL_0
 5
40
 10
2076.687
 20
0
 30
0
 11
2076.687
 21
1.0
 31
0
 0
LINE
 8
TOOL_0
 5
41
 10
2076.687
 20
1.0
 30
0
 11
2076.687
 21
1307.67
 31
0
 0
LINE
 8
TOOL_0
 5
42
 10
2076.687
 20
1307.67
 30
0
 11
1.002
 21
1307.67
 31
0
 0
LINE
 8
TOOL_0
 5
43
 10
1.002
 20
1307.67
 30
0
 11
0.002
 21
1307.67
 31
0
 0
ENDSEC
 0
EOF

