0
SECTION
2
TABLES
0
TABLE
2
LAYER
70
0
0
LAYER
2
LAYER_NAME
70
0
62
1
6
CONTINUOUS
0
ENDTAB
0
ENDSEC
 0
SECTION
 2
ENTITIES
 0
LINE
 8
TOOL_0
 5
1
 10
1697.214
 20
1261.775
 30
0
 11
1662.214
 21
1261.775
 31
0
 0
LINE
 8
TOOL_0
 5
2
 10
1662.214
 20
1261.775
 30
0
 11
1611.79
 21
1211.351
 31
0
 0
ARC
 8
TOOL_0
 5
3
 10
1575.904
 20
1247.237
 30
0
 40
50.750467899321
 50
290.00027532785
 51
315.0
210
0
220
0
230
1.0
 0
LINE
 8
TOOL_0
 5
4
 10
1593.262
 20
1199.547
 30
0
 11
1458.45
 21
1150.479
 31
0
 0
ARC
 8
TOOL_0
 5
5
 10
1475.295
 20
1104.199
 30
0
 40
49.25030380617
 50
110.000500202479
 51
135.000822612446
210
0
220
0
230
1.0
 0
LINE
 8
TOOL_0
 5
6
 10
1440.469
 20
1139.024
 30
0
 11
1376.713
 21
1075.268
 31
0
 0
ARC
 8
TOOL_0
 5
7
 10
1362.571
 20
1089.41
 30
0
 40
19.99980819908
 50
225.0
 51
315.0
210
0
220
0
230
1.0
 0
LINE
 8
TOOL_0
 5
8
 10
1348.429
 20
1075.268
 30
0
 11
1319.084
 21
1104.613
 31
0
 0
ARC
 8
TOOL_0
 5
9
 10
1333.226
 20
1118.755
 30
0
 40
19.99980819908
 50
135.0
 51
225.0
210
0
220
0
230
1.0
 0
LINE
 8
TOOL_0
 5
A
 10
1319.084
 20
1132.897
 30
0
 11
1382.84
 21
1196.653
 31
0
 0
ARC
 8
TOOL_0
 5
B
 10
1348.015
 20
1231.478
 30
0
 40
49.249987309643
 50
315.0
 51
339.999499797521
210
0
220
0
230
1.0
 0
LINE
 8
TOOL_0
 5
C
 10
1394.295
 20
1214.633
 30
0
 11
1443.363
 21
1349.446
 31
0
 0
ARC
 8
TOOL_0
 5
D
 10
1491.052
 20
1332.088
 30
0
 40
50.749787043888
 50
134.999201686203
 51
159.99933853123
210
0
220
0
230
1.0
 0
LINE
 8
TOOL_0
 5
E
 10
1455.167
 20
1367.974
 30
0
 11
1556.016
 21
1468.823
 31
0
 0
ARC
 8
TOOL_0
 5
F
 10
1520.661
 20
1504.178
 30
0
 40
49.999520497701
 50
315.0
 51
339.999760393019
210
0
220
0
230
1.0
 0
LINE
 8
TOOL_0
 5
10
 10
1567.645
 20
1487.077
 30
0
 11
1584.468
 21
1533.297
 31
0
 0
ARC
 8
TOOL_0
 5
11
 10
1632.392
 20
1515.854
 30
0
 40
50.999686518644
 50
135.0
 51
159.999904466419
210
0
220
0
230
1.0
 0
LINE
 8
TOOL_0
 5
12
 10
1596.33
 20
1551.916
 30
0
 11
1624.501
 21
1580.087
 31
0
 0
ARC
 8
TOOL_0
 5
13
 10
1660.563
 20
1544.025
 30
0
 40
50.999369486298
 50
87.799733444896
 51
135.0
210
0
220
0
230
1.0
 0
LINE
 8
TOOL_0
 5
14
 10
1662.521
 20
1594.987
 30
0
 11
1757.038
 21
1591.356
 31
0
 0
ARC
 8
TOOL_0
 5
15
 10
1754.351
 20
1521.408
 30
0
 40
69.999590520231
 50
45.0
 51
87.800107236766
210
0
220
0
230
1.0
 0
ARC
 8
TOOL_0
 5
16
 10
1293.98
 20
1050.163
 30
0
 40
728.791882493212
 50
44.267013292496
 51
45.604507222277
210
0
220
0
230
1.0
 0
ARC
 8
TOOL_0
 5
17
 10
1765.157
 20
1510.505
 30
0
 40
70.068532866045
 50
2.221454430246
 51
43.641082190549
210
0
220
0
230
1.0
 0
LINE
 8
TOOL_0
 5
18
 10
1835.173
 20
1513.221
 30
0
 11
1838.804
 21
1418.704
 31
0
 0
ARC
 8
TOOL_0
 5
19
 10
1787.842
 20
1416.746
 30
0
 40
50.999600076863
 50
315.0
 51
2.200266555104
210
0
220
0
230
1.0
 0
LINE
 8
TOOL_0
 5
1A
 10
1823.904
 20
1380.684
 30
0
 11
1795.733
 21
1352.513
 31
0
 0
ARC
 8
TOOL_0
 5
1B
 10
1759.671
 20
1388.575
 30
0
 40
50.999369486298
 50
289.999039826119
 51
315.0
210
0
220
0
230
1.0
 0
LINE
 8
TOOL_0
 5
1C
 10
1777.113
 20
1340.651
 30
0
 11
1730.893
 21
1323.828
 31
0
 0
ARC
 8
TOOL_0
 5
1D
 10
1747.994
 20
1276.843
 30
0
 40
50.000344258815
 50
109.999847678962
 51
134.999189719004
210
0
220
0
230
1.0
 0
LINE
 8
TOOL_0
 5
1E
 10
1712.639
 20
1312.199
 30
0
 11
1662.215
 21
1261.775
 31
0
 0
LINE
 8
TOOL_0
 5
1F
 10
1662.215
 20
1261.775
 30
0
 11
1662.215
 21
1256.775
 31
0
 0
LINE
 8
TOOL_0
 5
20
 10
1662.215
 20
1256.775
 30
0
 11
1030.751
 21
2550.751
 31
0
 0
LINE
 8
TOOL_0
 5
21
 10
1030.751
 20
2550.751
 30
0
 11
1060.751
 21
2550.751
 31
0
 0
ARC
 8
TOOL_0
 5
22
 10
1025.751
 20
2550.751
 30
0
 40
35.0
 50
0
 51
180.0
210
0
220
0
230
1.0
 0
ARC
 8
TOOL_0
 5
23
 10
1025.751
 20
2550.751
 30
0
 40
35.0
 50
180.0
 51
0
210
0
220
0
230
1.0
 0
LINE
 8
TOOL_0
 5
24
 10
1060.751
 20
2550.751
 30
0
 11
1053.68
 21
2557.822
 31
0
 0
LINE
 8
TOOL_0
 5
25
 10
1053.68
 20
2557.822
 30
0
 11
635.751
 21
2315.751
 31
0
 0
LINE
 8
TOOL_0
 5
26
 10
635.751
 20
2315.751
 30
0
 11
665.751
 21
2315.751
 31
0
 0
LINE
 8
TOOL_0
 5
27
 10
665.751
 20
2315.751
 30
0
 11
665.751
 21
2345.751
 31
0
 0
ARC
 8
TOOL_0
 5
28
 10
655.751
 20
2345.751
 30
0
 40
10.0
 50
0
 51
90.0
210
0
220
0
230
1.0
 0
LINE
 8
TOOL_0
 5
29
 10
655.751
 20
2355.751
 30
0
 11
475.751
 21
2355.751
 31
0
 0
ARC
 8
TOOL_0
 5
2A
 10
475.751
 20
2345.751
 30
0
 40
10.0
 50
90.0
 51
180.0
210
0
220
0
230
1.0
 0
LINE
 8
TOOL_0
 5
2B
 10
465.751
 20
2345.751
 30
0
 11
465.751
 21
2285.751
 31
0
 0
ARC
 8
TOOL_0
 5
2C
 10
475.751
 20
2285.751
 30
0
 40
10.0
 50
180.0
 51
270.0
210
0
220
0
230
1.0
 0
LINE
 8
TOOL_0
 5
2D
 10
475.751
 20
2275.751
 30
0
 11
655.751
 21
2275.751
 31
0
 0
ARC
 8
TOOL_0
 5
2E
 10
655.751
 20
2285.751
 30
0
 40
10.0
 50
270.0
 51
0
210
0
220
0
230
1.0
 0
LINE
 8
TOOL_0
 5
2F
 10
665.751
 20
2285.751
 30
0
 11
665.751
 21
2315.751
 31
0
 0
LINE
 8
TOOL_0
 5
30
 10
665.751
 20
2315.751
 30
0
 11
658.68
 21
2322.822
 31
0
 0
LINE
 8
TOOL_0
 5
31
 10
658.68
 20
2322.822
 30
0
 11
1043.751
 21
1905.751
 31
0
 0
LINE
 8
TOOL_0
 5
32
 10
1043.751
 20
1905.751
 30
0
 11
1073.751
 21
1905.751
 31
0
 0
ARC
 8
TOOL_0
 5
33
 10
1053.751
 20
1905.751
 30
0
 40
20.0
 50
0
 51
66.867990902554
210
0
220
0
230
1.0
 0
LINE
 8
TOOL_0
 5
34
 10
1061.608
 20
1924.143
 30
0
 11
1037.929
 21
1934.259
 31
0
 0
ARC
 8
TOOL_0
 5
35
 10
1025.75
 20
1905.573
 30
0
 40
31.164316726025
 50
66.9957430162
 51
113.002564662372
210
0
220
0
230
1.0
 0
LINE
 8
TOOL_0
 5
36
 10
1013.572
 20
1934.259
 30
0
 11
989.893
 21
1924.143
 31
0
 0
ARC
 8
TOOL_0
 5
37
 10
997.75
 20
1905.751
 30
0
 40
19.999952824944
 50
113.132009097445
 51
246.867990902554
210
0
220
0
230
1.0
 0
LINE
 8
TOOL_0
 5
38
 10
989.893
 20
1887.359
 30
0
 11
1013.572
 21
1877.243
 31
0
 0
ARC
 8
TOOL_0
 5
39
 10
1025.751
 20
1905.929
 30
0
 40
31.164316726025
 50
246.995743016199
 51
293.002564662372
210
0
220
0
230
1.0
 0
LINE
 8
TOOL_0
 5
3A
 10
1037.929
 20
1877.243
 30
0
 11
1061.608
 21
1887.359
 31
0
 0
ARC
 8
TOOL_0
 5
3B
 10
1053.751
 20
1905.751
 30
0
 40
19.999952824944
 50
293.132009097446
 51
0
210
0
220
0
230
1.0
 0
LINE
 8
TOOL_0
 5
3C
 10
1073.751
 20
1905.751
 30
0
 11
1066.68
 21
1912.822
 31
0
 0
LINE
 8
TOOL_0
 5
3D
 10
1066.68
 20
1912.822
 30
0
 11
365.751
 21
117.751
 31
0
 0
LINE
 8
TOOL_0
 5
3E
 10
365.751
 20
117.751
 30
0
 11
395.751
 21
117.751
 31
0
 0
ARC
 8
TOOL_0
 5
3F
 10
365.751
 20
117.751
 30
0
 40
30.0
 50
0
 51
90.0
210
0
220
0
230
1.0
 0
LINE
 8
TOOL_0
 5
40
 10
365.751
 20
147.751
 30
0
 11
295.751
 21
147.751
 31
0
 0
ARC
 8
TOOL_0
 5
41
 10
295.751
 20
117.751
 30
0
 40
30.0
 50
90.0
 51
180.0
210
0
220
0
230
1.0
 0
LINE
 8
TOOL_0
 5
42
 10
265.751
 20
117.751
 30
0
 11
265.751
 21
97.751
 31
0
 0
ARC
 8
TOOL_0
 5
43
 10
275.751
 20
97.751
 30
0
 40
10.0
 50
180.0
 51
270.0
210
0
220
0
230
1.0
 0
LINE
 8
TOOL_0
 5
44
 10
275.751
 20
87.751
 30
0
 11
385.751
 21
87.751
 31
0
 0
ARC
 8
TOOL_0
 5
45
 10
385.751
 20
97.751
 30
0
 40
10.0
 50
270.0
 51
0
210
0
220
0
230
1.0
 0
LINE
 8
TOOL_0
 5
46
 10
395.751
 20
97.751
 30
0
 11
395.751
 21
117.751
 31
0
 0
LINE
 8
TOOL_0
 5
47
 10
395.751
 20
117.751
 30
0
 11
388.68
 21
124.822
 31
0
 0
LINE
 8
TOOL_0
 5
48
 10
388.68
 20
124.822
 30
0
 11
445.751
 21
217.751
 31
0
 0
LINE
 8
TOOL_0
 5
49
 10
445.751
 20
217.751
 30
0
 11
475.751
 21
217.751
 31
0
 0
LINE
 8
TOOL_0
 5
4A
 10
475.751
 20
217.751
 30
0
 11
475.751
 21
247.751
 31
0
 0
ARC
 8
TOOL_0
 5
4B
 10
455.751
 20
247.751
 30
0
 40
20.0
 50
0
 51
90.0
210
0
220
0
230
1.0
 0
LINE
 8
TOOL_0
 5
4C
 10
455.751
 20
267.751
 30
0
 11
395.751
 21
267.751
 31
0
 0
ARC
 8
TOOL_0
 5
4D
 10
395.751
 20
247.751
 30
0
 40
20.0
 50
90.0
 51
180.0
210
0
220
0
230
1.0
 0
LINE
 8
TOOL_0
 5
4E
 10
375.751
 20
247.751
 30
0
 11
375.751
 21
187.751
 31
0
 0
ARC
 8
TOOL_0
 5
4F
 10
395.751
 20
187.751
 30
0
 40
20.0
 50
180.0
 51
270.0
210
0
220
0
230
1.0
 0
LINE
 8
TOOL_0
 5
50
 10
395.751
 20
167.751
 30
0
 11
455.751
 21
167.751
 31
0
 0
ARC
 8
TOOL_0
 5
51
 10
455.751
 20
187.751
 30
0
 40
20.0
 50
270.0
 51
0
210
0
220
0
230
1.0
 0
LINE
 8
TOOL_0
 5
52
 10
475.751
 20
187.751
 30
0
 11
475.751
 21
217.751
 31
0
 0
LINE
 8
TOOL_0
 5
53
 10
475.751
 20
217.751
 30
0
 11
468.68
 21
224.822
 31
0
 0
LINE
 8
TOOL_0
 5
54
 10
468.68
 20
224.822
 30
0
 11
1440.751
 21
190.751
 31
0
 0
LINE
 8
TOOL_0
 5
55
 10
1440.751
 20
190.751
 30
0
 11
1470.751
 21
190.751
 31
0
 0
LINE
 8
TOOL_0
 5
56
 10
1470.751
 20
190.751
 30
0
 11
1470.751
 21
220.751
 31
0
 0
ARC
 8
TOOL_0
 5
57
 10
1450.751
 20
220.751
 30
0
 40
20.0
 50
0
 51
90.0
210
0
220
0
230
1.0
 0
LINE
 8
TOOL_0
 5
58
 10
1450.751
 20
240.751
 30
0
 11
1390.751
 21
240.751
 31
0
 0
ARC
 8
TOOL_0
 5
59
 10
1390.751
 20
220.751
 30
0
 40
20.0
 50
90.0
 51
180.0
210
0
220
0
230
1.0
 0
LINE
 8
TOOL_0
 5
5A
 10
1370.751
 20
220.751
 30
0
 11
1370.751
 21
160.751
 31
0
 0
ARC
 8
TOOL_0
 5
5B
 10
1390.751
 20
160.751
 30
0
 40
20.0
 50
180.0
 51
270.0
210
0
220
0
230
1.0
 0
LINE
 8
TOOL_0
 5
5C
 10
1390.751
 20
140.751
 30
0
 11
1450.751
 21
140.751
 31
0
 0
ARC
 8
TOOL_0
 5
5D
 10
1450.751
 20
160.751
 30
0
 40
20.0
 50
270.0
 51
0
210
0
220
0
230
1.0
 0
LINE
 8
TOOL_0
 5
5E
 10
1470.751
 20
160.751
 30
0
 11
1470.751
 21
190.751
 31
0
 0
LINE
 8
TOOL_0
 5
5F
 10
1470.751
 20
190.751
 30
0
 11
1463.68
 21
197.822
 31
0
 0
LINE
 8
TOOL_0
 5
60
 10
1463.68
 20
197.822
 30
0
 11
1466.302
 21
767.306
 31
0
 0
LINE
 8
TOOL_0
 5
61
 10
1466.302
 20
767.306
 30
0
 11
1488.165
 21
746.751
 31
0
 0
LINE
 8
TOOL_0
 5
62
 10
1488.165
 20
746.751
 30
0
 11
1496.751
 21
738.165
 31
0
 0
LINE
 8
TOOL_0
 5
63
 10
1496.751
 20
738.165
 30
0
 11
1496.751
 21
13.337
 31
0
 0
LINE
 8
TOOL_0
 5
64
 10
1496.751
 20
13.337
 30
0
 11
1488.165
 21
4.751
 31
0
 0
LINE
 8
TOOL_0
 5
65
 10
1488.165
 20
4.751
 30
0
 11
11.751
 21
4.751
 31
0
 0
ARC
 8
TOOL_0
 5
66
 10
11.751
 20
11.751
 30
0
 40
7.0
 50
180.0
 51
270.0
210
0
220
0
230
1.0
 0
LINE
 8
TOOL_0
 5
67
 10
4.751
 20
11.751
 30
0
 11
4.751
 21
2631.751
 31
0
 0
LINE
 8
TOOL_0
 5
68
 10
4.751
 20
2631.751
 30
0
 11
1622.751
 21
2631.751
 31
0
 0
ARC
 8
TOOL_0
 5
69
 10
1622.751
 20
2624.751
 30
0
 40
7.0
 50
0
 51
90.0
210
0
220
0
230
1.0
 0
LINE
 8
TOOL_0
 5
6A
 10
1629.751
 20
2624.751
 30
0
 11
1629.751
 21
2150.751
 31
0
 0
LINE
 8
TOOL_0
 5
6B
 10
1629.751
 20
2150.751
 30
0
 11
1481.751
 21
2150.751
 31
0
 0
LINE
 8
TOOL_0
 5
6C
 10
1481.751
 20
2150.751
 30
0
 11
1481.751
 21
2185.751
 31
0
 0
ARC
 8
TOOL_0
 5
6D
 10
1460.751
 20
2185.751
 30
0
 40
21.0
 50
0
 51
147.688053502426
210
0
220
0
230
1.0
 0
LINE
 8
TOOL_0
 5
6E
 10
1443.003
 20
2196.976
 30
0
 11
1409.693
 21
2144.307
 31
0
 0
ARC
 8
TOOL_0
 5
6F
 10
1425.751
 20
2134.151
 30
0
 40
19.000097368172
 50
147.688392683242
 51
243.424159673344
210
0
220
0
230
1.0
 0
LINE
 8
TOOL_0
 5
70
 10
1417.251
 20
2117.159
 30
0
 11
1417.251
 21
1571.752
 31
0
 0
LINE
 8
TOOL_0
 5
71
 10
1417.251
 20
1571.752
 30
0
 11
1380.15
 21
1571.752
 31
0
 0
ARC
 8
TOOL_0
 5
72
 10
1375.251
 20
1572.752
 30
0
 40
5.000020099959
 50
348.463087982614
 51
90.0
210
0
220
0
230
1.0
 0
LINE
 8
TOOL_0
 5
73
 10
1375.251
 20
1577.752
 30
0
 11
1330.751
 21
1577.752
 31
0
 0
ARC
 8
TOOL_0
 5
74
 10
1330.751
 20
1378.752
 30
0
 40
199.0
 50
90.0
 51
180.0
210
0
220
0
230
1.0
 0
LINE
 8
TOOL_0
 5
75
 10
1131.751
 20
1378.752
 30
0
 11
1131.751
 21
945.752
 31
0
 0
ARC
 8
TOOL_0
 5
76
 10
1330.751
 20
945.752
 30
0
 40
199.0
 50
180.0
 51
270.0
210
0
220
0
230
1.0
 0
LINE
 8
TOOL_0
 5
77
 10
1330.751
 20
746.752
 30
0
 11
1488.165
 21
746.752
 31
0
 0
LINE
 8
TOOL_0
 5
78
 10
1488.165
 20
746.752
 30
0
 11
1492.472
 21
746.667
 31
0
 0
LINE
 8
TOOL_0
 5
79
 10
1492.472
 20
746.667
 30
0
 11
1730.342
 21
2445.752
 31
0
 0
LINE
 8
TOOL_0
 5
7A
 10
1730.342
 20
2445.752
 30
0
 11
1760.342
 21
2445.752
 31
0
 0
LINE
 8
TOOL_0
 5
7B
 10
1760.342
 20
2445.752
 30
0
 11
1760.342
 21
2475.752
 31
0
 0
ARC
 8
TOOL_0
 5
7C
 10
1740.342
 20
2475.752
 30
0
 40
20.0
 50
0
 51
90.0
210
0
220
0
230
1.0
 0
LINE
 8
TOOL_0
 5
7D
 10
1740.342
 20
2495.752
 30
0
 11
1680.342
 21
2495.752
 31
0
 0
ARC
 8
TOOL_0
 5
7E
 10
1680.342
 20
2475.752
 30
0
 40
20.0
 50
90.0
 51
180.0
210
0
220
0
230
1.0
 0
LINE
 8
TOOL_0
 5
7F
 10
1660.342
 20
2475.752
 30
0
 11
1660.342
 21
2415.752
 31
0
 0
ARC
 8
TOOL_0
 5
80
 10
1680.342
 20
2415.752
 30
0
 40
20.0
 50
180.0
 51
270.0
210
0
220
0
230
1.0
 0
LINE
 8
TOOL_0
 5
81
 10
1680.342
 20
2395.752
 30
0
 11
1740.342
 21
2395.752
 31
0
 0
ARC
 8
TOOL_0
 5
82
 10
1740.342
 20
2415.752
 30
0
 40
20.0
 50
270.0
 51
0
210
0
220
0
230
1.0
 0
LINE
 8
TOOL_0
 5
83
 10
1760.342
 20
2415.752
 30
0
 11
1760.342
 21
2445.752
 31
0
 0
LINE
 8
TOOL_0
 5
84
 10
1760.342
 20
2445.752
 30
0
 11
1753.271
 21
2452.823
 31
0
 0
LINE
 8
TOOL_0
 5
85
 10
1753.271
 20
2452.823
 30
0
 11
2835.342
 21
2528.752
 31
0
 0
LINE
 8
TOOL_0
 5
86
 10
2835.342
 20
2528.752
 30
0
 11
2865.342
 21
2528.752
 31
0
 0
LINE
 8
TOOL_0
 5
87
 10
2865.342
 20
2528.752
 30
0
 11
2865.342
 21
2538.752
 31
0
 0
ARC
 8
TOOL_0
 5
88
 10
2855.342
 20
2538.752
 30
0
 40
10.0
 50
0
 51
90.0
210
0
220
0
230
1.0
 0
LINE
 8
TOOL_0
 5
89
 10
2855.342
 20
2548.752
 30
0
 11
2745.342
 21
2548.752
 31
0
 0
ARC
 8
TOOL_0
 5
8A
 10
2745.342
 20
2538.752
 30
0
 40
10.0
 50
90.0
 51
180.0
210
0
220
0
230
1.0
 0
LINE
 8
TOOL_0
 5
8B
 10
2735.342
 20
2538.752
 30
0
 11
2735.342
 21
2518.752
 31
0
 0
ARC
 8
TOOL_0
 5
8C
 10
2765.342
 20
2518.752
 30
0
 40
30.0
 50
180.0
 51
270.0
210
0
220
0
230
1.0
 0
LINE
 8
TOOL_0
 5
8D
 10
2765.342
 20
2488.752
 30
0
 11
2835.342
 21
2488.752
 31
0
 0
ARC
 8
TOOL_0
 5
8E
 10
2835.342
 20
2518.752
 30
0
 40
30.0
 50
270.0
 51
0
210
0
220
0
230
1.0
 0
LINE
 8
TOOL_0
 5
8F
 10
2865.342
 20
2518.752
 30
0
 11
2865.342
 21
2528.752
 31
0
 0
LINE
 8
TOOL_0
 5
90
 10
2865.342
 20
2528.752
 30
0
 11
2858.271
 21
2535.823
 31
0
 0
LINE
 8
TOOL_0
 5
91
 10
2858.271
 20
2535.823
 30
0
 11
2725.342
 21
2418.752
 31
0
 0
LINE
 8
TOOL_0
 5
92
 10
2725.342
 20
2418.752
 30
0
 11
2755.342
 21
2418.752
 31
0
 0
LINE
 8
TOOL_0
 5
93
 10
2755.342
 20
2418.752
 30
0
 11
2755.342
 21
2448.752
 31
0
 0
ARC
 8
TOOL_0
 5
94
 10
2735.342
 20
2448.752
 30
0
 40
20.0
 50
0
 51
90.0
210
0
220
0
230
1.0
 0
LINE
 8
TOOL_0
 5
95
 10
2735.342
 20
2468.752
 30
0
 11
2675.342
 21
2468.752
 31
0
 0
ARC
 8
TOOL_0
 5
96
 10
2675.342
 20
2448.752
 30
0
 40
20.0
 50
90.0
 51
180.0
210
0
220
0
230
1.0
 0
LINE
 8
TOOL_0
 5
97
 10
2655.342
 20
2448.752
 30
0
 11
2655.342
 21
2388.752
 31
0
 0
ARC
 8
TOOL_0
 5
98
 10
2675.342
 20
2388.752
 30
0
 40
20.0
 50
180.0
 51
270.0
210
0
220
0
230
1.0
 0
LINE
 8
TOOL_0
 5
99
 10
2675.342
 20
2368.752
 30
0
 11
2735.342
 21
2368.752
 31
0
 0
ARC
 8
TOOL_0
 5
9A
 10
2735.342
 20
2388.752
 30
0
 40
20.0
 50
270.0
 51
0
210
0
220
0
230
1.0
 0
LINE
 8
TOOL_0
 5
9B
 10
2755.342
 20
2388.752
 30
0
 11
2755.342
 21
2418.752
 31
0
 0
LINE
 8
TOOL_0
 5
9C
 10
2755.342
 20
2418.752
 30
0
 11
2748.271
 21
2425.823
 31
0
 0
LINE
 8
TOOL_0
 5
9D
 10
2748.271
 20
2425.823
 30
0
 11
2635.342
 21
320.752
 31
0
 0
LINE
 8
TOOL_0
 5
9E
 10
2635.342
 20
320.752
 30
0
 11
2665.342
 21
320.752
 31
0
 0
LINE
 8
TOOL_0
 5
9F
 10
2665.342
 20
320.752
 30
0
 11
2665.342
 21
350.752
 31
0
 0
ARC
 8
TOOL_0
 5
A0
 10
2655.342
 20
350.752
 30
0
 40
10.0
 50
0
 51
90.0
210
0
220
0
230
1.0
 0
LINE
 8
TOOL_0
 5
A1
 10
2655.342
 20
360.752
 30
0
 11
2475.342
 21
360.752
 31
0
 0
ARC
 8
TOOL_0
 5
A2
 10
2475.342
 20
350.752
 30
0
 40
10.0
 50
90.0
 51
180.0
210
0
220
0
230
1.0
 0
LINE
 8
TOOL_0
 5
A3
 10
2465.342
 20
350.752
 30
0
 11
2465.342
 21
290.752
 31
0
 0
ARC
 8
TOOL_0
 5
A4
 10
2475.342
 20
290.752
 30
0
 40
10.0
 50
180.0
 51
270.0
210
0
220
0
230
1.0
 0
LINE
 8
TOOL_0
 5
A5
 10
2475.342
 20
280.752
 30
0
 11
2655.342
 21
280.752
 31
0
 0
ARC
 8
TOOL_0
 5
A6
 10
2655.342
 20
290.752
 30
0
 40
10.0
 50
270.0
 51
0
210
0
220
0
230
1.0
 0
LINE
 8
TOOL_0
 5
A7
 10
2665.342
 20
290.752
 30
0
 11
2665.342
 21
320.752
 31
0
 0
LINE
 8
TOOL_0
 5
A8
 10
2665.342
 20
320.752
 30
0
 11
2658.271
 21
327.823
 31
0
 0
LINE
 8
TOOL_0
 5
A9
 10
2658.271
 20
327.823
 30
0
 11
2110.342
 21
85.752
 31
0
 0
LINE
 8
TOOL_0
 5
AA
 10
2110.342
 20
85.752
 30
0
 11
2140.342
 21
85.752
 31
0
 0
ARC
 8
TOOL_0
 5
AB
 10
2105.342
 20
85.752
 30
0
 40
35.0
 50
0
 51
180.0
210
0
220
0
230
1.0
 0
ARC
 8
TOOL_0
 5
AC
 10
2105.342
 20
85.752
 30
0
 40
35.0
 50
180.0
 51
0
210
0
220
0
230
1.0
 0
LINE
 8
TOOL_0
 5
AD
 10
2140.342
 20
85.752
 30
0
 11
2133.271
 21
92.823
 31
0
 0
LINE
 8
TOOL_0
 5
AE
 10
2133.271
 20
92.823
 30
0
 11
2123.342
 21
730.752
 31
0
 0
LINE
 8
TOOL_0
 5
AF
 10
2123.342
 20
730.752
 30
0
 11
2153.342
 21
730.752
 31
0
 0
ARC
 8
TOOL_0
 5
B0
 10
2133.342
 20
730.752
 30
0
 40
20.0
 50
0
 51
66.867990902554
210
0
220
0
230
1.0
 0
LINE
 8
TOOL_0
 5
B1
 10
2141.199
 20
749.144
 30
0
 11
2117.52
 21
759.26
 31
0
 0
ARC
 8
TOOL_0
 5
B2
 10
2105.341
 20
730.574
 30
0
 40
31.164316726025
 50
66.9957430162
 51
113.002564662372
210
0
220
0
230
1.0
 0
LINE
 8
TOOL_0
 5
B3
 10
2093.163
 20
759.26
 30
0
 11
2069.484
 21
749.144
 31
0
 0
ARC
 8
TOOL_0
 5
B4
 10
2077.341
 20
730.752
 30
0
 40
19.999952824944
 50
113.132009097445
 51
246.867990902554
210
0
220
0
230
1.0
 0
LINE
 8
TOOL_0
 5
B5
 10
2069.484
 20
712.36
 30
0
 11
2093.163
 21
702.244
 31
0
 0
ARC
 8
TOOL_0
 5
B6
 10
2105.342
 20
730.93
 30
0
 40
31.164316726025
 50
246.9957430162
 51
293.002564662372
210
0
220
0
230
1.0
 0
LINE
 8
TOOL_0
 5
B7
 10
2117.52
 20
702.244
 30
0
 11
2141.199
 21
712.36
 31
0
 0
ARC
 8
TOOL_0
 5
B8
 10
2133.342
 20
730.752
 30
0
 40
19.999952824944
 50
293.132009097446
 51
0
210
0
220
0
230
1.0
 0
LINE
 8
TOOL_0
 5
B9
 10
2153.342
 20
730.752
 30
0
 11
2146.271
 21
737.823
 31
0
 0
LINE
 8
TOOL_0
 5
BA
 10
2146.271
 20
737.823
 30
0
 11
1634.342
 21
1868.032
 31
0
 0
LINE
 8
TOOL_0
 5
BB
 10
1634.342
 20
1868.032
 30
0
 11
1634.342
 21
1898.338
 31
0
 0
LINE
 8
TOOL_0
 5
BC
 10
1634.342
 20
1898.338
 30
0
 11
1634.342
 21
2623.166
 31
0
 0
LINE
 8
TOOL_0
 5
BD
 10
1634.342
 20
2623.166
 30
0
 11
1642.928
 21
2631.752
 31
0
 0
LINE
 8
TOOL_0
 5
BE
 10
1642.928
 20
2631.752
 30
0
 11
3119.342
 21
2631.752
 31
0
 0
ARC
 8
TOOL_0
 5
BF
 10
3119.342
 20
2624.752
 30
0
 40
7.0
 50
0
 51
90.0
210
0
220
0
230
1.0
 0
LINE
 8
TOOL_0
 5
C0
 10
3126.342
 20
2624.752
 30
0
 11
3126.342
 21
4.752
 31
0
 0
LINE
 8
TOOL_0
 5
C1
 10
3126.342
 20
4.752
 30
0
 11
1508.342
 21
4.752
 31
0
 0
ARC
 8
TOOL_0
 5
C2
 10
1508.342
 20
11.752
 30
0
 40
7.0
 50
180.0
 51
270.0
210
0
220
0
230
1.0
 0
LINE
 8
TOOL_0
 5
C3
 10
1501.342
 20
11.752
 30
0
 11
1501.342
 21
485.752
 31
0
 0
LINE
 8
TOOL_0
 5
C4
 10
1501.342
 20
485.752
 30
0
 11
1649.342
 21
485.752
 31
0
 0
LINE
 8
TOOL_0
 5
C5
 10
1649.342
 20
485.752
 30
0
 11
1649.342
 21
450.752
 31
0
 0
ARC
 8
TOOL_0
 5
C6
 10
1670.342
 20
450.752
 30
0
 40
21.0
 50
180.0
 51
327.688053502427
210
0
220
0
230
1.0
 0
LINE
 8
TOOL_0
 5
C7
 10
1688.09
 20
439.527
 30
0
 11
1721.4
 21
492.196
 31
0
 0
ARC
 8
TOOL_0
 5
C8
 10
1705.342
 20
502.352
 30
0
 40
19.000097368172
 50
327.688392683242
 51
63.424159673344
210
0
220
0
230
1.0
 0
LINE
 8
TOOL_0
 5
C9
 10
1713.842
 20
519.344
 30
0
 11
1713.842
 21
1064.751
 31
0
 0
LINE
 8
TOOL_0
 5
CA
 10
1713.842
 20
1064.751
 30
0
 11
1750.943
 21
1064.751
 31
0
 0
ARC
 8
TOOL_0
 5
CB
 10
1755.842
 20
1063.751
 30
0
 40
5.000020099959
 50
168.463087982614
 51
270.0
210
0
220
0
230
1.0
 0
LINE
 8
TOOL_0
 5
CC
 10
1755.842
 20
1058.751
 30
0
 11
1800.342
 21
1058.751
 31
0
 0
ARC
 8
TOOL_0
 5
CD
 10
1800.342
 20
1257.751
 30
0
 40
199.0
 50
270.0
 51
359.99971208151
210
0
220
0
230
1.0
 0
LINE
 8
TOOL_0
 5
CE
 10
1999.342
 20
1257.75
 30
0
 11
1999.342
 21
1690.751
 31
0
 0
ARC
 8
TOOL_0
 5
CF
 10
1800.342
 20
1690.751
 30
0
 40
199.0
 50
0
 51
90.0
210
0
220
0
230
1.0
 0
LINE
 8
TOOL_0
 5
D0
 10
1800.342
 20
1889.751
 30
0
 11
1642.928
 21
1889.751
 31
0
 0
LINE
 8
TOOL_0
 5
D1
 10
1642.928
 20
1889.751
 30
0
 11
1634.342
 21
1898.337
 31
0
 0
LINE
 8
TOOL_0
 5
D2
 10
1634.342
 20
1898.337
 30
0
 11
1632.223
 21
1901.733
 31
0
 0
LINE
 8
TOOL_0
 5
D3
 10
1632.223
 20
1901.733
 30
0
 11
4157.273
 21
2550.751
 31
0
 0
LINE
 8
TOOL_0
 5
D4
 10
4157.273
 20
2550.751
 30
0
 11
4187.273
 21
2550.751
 31
0
 0
ARC
 8
TOOL_0
 5
D5
 10
4152.273
 20
2550.751
 30
0
 40
35.0
 50
0
 51
180.0
210
0
220
0
230
1.0
 0
ARC
 8
TOOL_0
 5
D6
 10
4152.273
 20
2550.751
 30
0
 40
35.0
 50
180.0
 51
0
210
0
220
0
230
1.0
 0
LINE
 8
TOOL_0
 5
D7
 10
4187.273
 20
2550.751
 30
0
 11
4180.202
 21
2557.822
 31
0
 0
LINE
 8
TOOL_0
 5
D8
 10
4180.202
 20
2557.822
 30
0
 11
3762.273
 21
2315.751
 31
0
 0
LINE
 8
TOOL_0
 5
D9
 10
3762.273
 20
2315.751
 30
0
 11
3792.273
 21
2315.751
 31
0
 0
LINE
 8
TOOL_0
 5
DA
 10
3792.273
 20
2315.751
 30
0
 11
3792.273
 21
2345.751
 31
0
 0
ARC
 8
TOOL_0
 5
DB
 10
3782.273
 20
2345.751
 30
0
 40
10.0
 50
0
 51
90.0
210
0
220
0
230
1.0
 0
LINE
 8
TOOL_0
 5
DC
 10
3782.273
 20
2355.751
 30
0
 11
3602.273
 21
2355.751
 31
0
 0
ARC
 8
TOOL_0
 5
DD
 10
3602.273
 20
2345.751
 30
0
 40
10.0
 50
90.0
 51
180.0
210
0
220
0
230
1.0
 0
LINE
 8
TOOL_0
 5
DE
 10
3592.273
 20
2345.751
 30
0
 11
3592.273
 21
2285.751
 31
0
 0
ARC
 8
TOOL_0
 5
DF
 10
3602.273
 20
2285.751
 30
0
 40
10.0
 50
180.0
 51
270.0
210
0
220
0
230
1.0
 0
LINE
 8
TOOL_0
 5
E0
 10
3602.273
 20
2275.751
 30
0
 11
3782.273
 21
2275.751
 31
0
 0
ARC
 8
TOOL_0
 5
E1
 10
3782.273
 20
2285.751
 30
0
 40
10.0
 50
270.0
 51
0
210
0
220
0
230
1.0
 0
LINE
 8
TOOL_0
 5
E2
 10
3792.273
 20
2285.751
 30
0
 11
3792.273
 21
2315.751
 31
0
 0
LINE
 8
TOOL_0
 5
E3
 10
3792.273
 20
2315.751
 30
0
 11
3785.202
 21
2322.822
 31
0
 0
LINE
 8
TOOL_0
 5
E4
 10
3785.202
 20
2322.822
 30
0
 11
4170.273
 21
1905.751
 31
0
 0
LINE
 8
TOOL_0
 5
E5
 10
4170.273
 20
1905.751
 30
0
 11
4200.273
 21
1905.751
 31
0
 0
ARC
 8
TOOL_0
 5
E6
 10
4180.273
 20
1905.751
 30
0
 40
20.0
 50
0
 51
66.867990902554
210
0
220
0
230
1.0
 0
LINE
 8
TOOL_0
 5
E7
 10
4188.13
 20
1924.143
 30
0
 11
4164.451
 21
1934.259
 31
0
 0
ARC
 8
TOOL_0
 5
E8
 10
4152.272
 20
1905.573
 30
0
 40
31.164316726025
 50
66.9957430162
 51
113.002564662372
210
0
220
0
230
1.0
 0
LINE
 8
TOOL_0
 5
E9
 10
4140.094
 20
1934.259
 30
0
 11
4116.415
 21
1924.143
 31
0
 0
ARC
 8
TOOL_0
 5
EA
 10
4124.272
 20
1905.751
 30
0
 40
19.999952824944
 50
113.132009097445
 51
246.867990902554
210
0
220
0
230
1.0
 0
LINE
 8
TOOL_0
 5
EB
 10
4116.415
 20
1887.359
 30
0
 11
4140.094
 21
1877.243
 31
0
 0
ARC
 8
TOOL_0
 5
EC
 10
4152.273
 20
1905.929
 30
0
 40
31.164316726025
 50
246.995743016199
 51
293.002564662372
210
0
220
0
230
1.0
 0
LINE
 8
TOOL_0
 5
ED
 10
4164.451
 20
1877.243
 30
0
 11
4188.13
 21
1887.359
 31
0
 0
ARC
 8
TOOL_0
 5
EE
 10
4180.273
 20
1905.751
 30
0
 40
19.999952824944
 50
293.132009097446
 51
0
210
0
220
0
230
1.0
 0
LINE
 8
TOOL_0
 5
EF
 10
4200.273
 20
1905.751
 30
0
 11
4193.202
 21
1912.822
 31
0
 0
LINE
 8
TOOL_0
 5
F0
 10
4193.202
 20
1912.822
 30
0
 11
3492.273
 21
117.751
 31
0
 0
LINE
 8
TOOL_0
 5
F1
 10
3492.273
 20
117.751
 30
0
 11
3522.273
 21
117.751
 31
0
 0
ARC
 8
TOOL_0
 5
F2
 10
3492.273
 20
117.751
 30
0
 40
30.0
 50
0
 51
90.0
210
0
220
0
230
1.0
 0
LINE
 8
TOOL_0
 5
F3
 10
3492.273
 20
147.751
 30
0
 11
3422.273
 21
147.751
 31
0
 0
ARC
 8
TOOL_0
 5
F4
 10
3422.273
 20
117.751
 30
0
 40
30.0
 50
90.0
 51
180.0
210
0
220
0
230
1.0
 0
LINE
 8
TOOL_0
 5
F5
 10
3392.273
 20
117.751
 30
0
 11
3392.273
 21
97.751
 31
0
 0
ARC
 8
TOOL_0
 5
F6
 10
3402.273
 20
97.751
 30
0
 40
10.0
 50
180.0
 51
270.0
210
0
220
0
230
1.0
 0
LINE
 8
TOOL_0
 5
F7
 10
3402.273
 20
87.751
 30
0
 11
3512.273
 21
87.751
 31
0
 0
ARC
 8
TOOL_0
 5
F8
 10
3512.273
 20
97.751
 30
0
 40
10.0
 50
270.0
 51
0
210
0
220
0
230
1.0
 0
LINE
 8
TOOL_0
 5
F9
 10
3522.273
 20
97.751
 30
0
 11
3522.273
 21
117.751
 31
0
 0
LINE
 8
TOOL_0
 5
FA
 10
3522.273
 20
117.751
 30
0
 11
3515.202
 21
124.822
 31
0
 0
LINE
 8
TOOL_0
 5
FB
 10
3515.202
 20
124.822
 30
0
 11
3572.273
 21
217.751
 31
0
 0
LINE
 8
TOOL_0
 5
FC
 10
3572.273
 20
217.751
 30
0
 11
3602.273
 21
217.751
 31
0
 0
LINE
 8
TOOL_0
 5
FD
 10
3602.273
 20
217.751
 30
0
 11
3602.273
 21
247.751
 31
0
 0
ARC
 8
TOOL_0
 5
FE
 10
3582.273
 20
247.751
 30
0
 40
20.0
 50
0
 51
90.0
210
0
220
0
230
1.0
 0
LINE
 8
TOOL_0
 5
FF
 10
3582.273
 20
267.751
 30
0
 11
3522.273
 21
267.751
 31
0
 0
ARC
 8
TOOL_0
 5
100
 10
3522.273
 20
247.751
 30
0
 40
20.0
 50
90.0
 51
180.0
210
0
220
0
230
1.0
 0
LINE
 8
TOOL_0
 5
101
 10
3502.273
 20
247.751
 30
0
 11
3502.273
 21
187.751
 31
0
 0
ARC
 8
TOOL_0
 5
102
 10
3522.273
 20
187.751
 30
0
 40
20.0
 50
180.0
 51
270.0
210
0
220
0
230
1.0
 0
LINE
 8
TOOL_0
 5
103
 10
3522.273
 20
167.751
 30
0
 11
3582.273
 21
167.751
 31
0
 0
ARC
 8
TOOL_0
 5
104
 10
3582.273
 20
187.751
 30
0
 40
20.0
 50
270.0
 51
0
210
0
220
0
230
1.0
 0
LINE
 8
TOOL_0
 5
105
 10
3602.273
 20
187.751
 30
0
 11
3602.273
 21
217.751
 31
0
 0
LINE
 8
TOOL_0
 5
106
 10
3602.273
 20
217.751
 30
0
 11
3595.202
 21
224.822
 31
0
 0
LINE
 8
TOOL_0
 5
107
 10
3595.202
 20
224.822
 30
0
 11
4567.273
 21
190.751
 31
0
 0
LINE
 8
TOOL_0
 5
108
 10
4567.273
 20
190.751
 30
0
 11
4597.273
 21
190.751
 31
0
 0
LINE
 8
TOOL_0
 5
109
 10
4597.273
 20
190.751
 30
0
 11
4597.273
 21
220.751
 31
0
 0
ARC
 8
TOOL_0
 5
10A
 10
4577.273
 20
220.751
 30
0
 40
20.0
 50
0
 51
90.0
210
0
220
0
230
1.0
 0
LINE
 8
TOOL_0
 5
10B
 10
4577.273
 20
240.751
 30
0
 11
4517.273
 21
240.751
 31
0
 0
ARC
 8
TOOL_0
 5
10C
 10
4517.273
 20
220.751
 30
0
 40
20.0
 50
90.0
 51
180.0
210
0
220
0
230
1.0
 0
LINE
 8
TOOL_0
 5
10D
 10
4497.273
 20
220.751
 30
0
 11
4497.273
 21
160.751
 31
0
 0
ARC
 8
TOOL_0
 5
10E
 10
4517.273
 20
160.751
 30
0
 40
20.0
 50
180.0
 51
270.0
210
0
220
0
230
1.0
 0
LINE
 8
TOOL_0
 5
10F
 10
4517.273
 20
140.751
 30
0
 11
4577.273
 21
140.751
 31
0
 0
ARC
 8
TOOL_0
 5
110
 10
4577.273
 20
160.751
 30
0
 40
20.0
 50
270.0
 51
0
210
0
220
0
230
1.0
 0
LINE
 8
TOOL_0
 5
111
 10
4597.273
 20
160.751
 30
0
 11
4597.273
 21
190.751
 31
0
 0
LINE
 8
TOOL_0
 5
112
 10
4597.273
 20
190.751
 30
0
 11
4590.202
 21
197.822
 31
0
 0
LINE
 8
TOOL_0
 5
113
 10
4590.202
 20
197.822
 30
0
 11
4592.824
 21
767.306
 31
0
 0
LINE
 8
TOOL_0
 5
114
 10
4592.824
 20
767.306
 30
0
 11
4614.688
 21
746.751
 31
0
 0
LINE
 8
TOOL_0
 5
115
 10
4614.688
 20
746.751
 30
0
 11
4623.274
 21
738.165
 31
0
 0
LINE
 8
TOOL_0
 5
116
 10
4623.274
 20
738.165
 30
0
 11
4623.274
 21
13.337
 31
0
 0
LINE
 8
TOOL_0
 5
117
 10
4623.274
 20
13.337
 30
0
 11
4614.688
 21
4.751
 31
0
 0
LINE
 8
TOOL_0
 5
118
 10
4614.688
 20
4.751
 30
0
 11
3138.274
 21
4.751
 31
0
 0
ARC
 8
TOOL_0
 5
119
 10
3138.274
 20
11.751
 30
0
 40
7.0
 50
180.0
 51
270.0
210
0
220
0
230
1.0
 0
LINE
 8
TOOL_0
 5
11A
 10
3131.274
 20
11.751
 30
0
 11
3131.274
 21
2631.751
 31
0
 0
LINE
 8
TOOL_0
 5
11B
 10
3131.274
 20
2631.751
 30
0
 11
4749.274
 21
2631.751
 31
0
 0
ARC
 8
TOOL_0
 5
11C
 10
4749.274
 20
2624.751
 30
0
 40
7.0
 50
0
 51
90.0
210
0
220
0
230
1.0
 0
LINE
 8
TOOL_0
 5
11D
 10
4756.274
 20
2624.751
 30
0
 11
4756.274
 21
2150.751
 31
0
 0
LINE
 8
TOOL_0
 5
11E
 10
4756.274
 20
2150.751
 30
0
 11
4608.274
 21
2150.751
 31
0
 0
LINE
 8
TOOL_0
 5
11F
 10
4608.274
 20
2150.751
 30
0
 11
4608.274
 21
2185.751
 31
0
 0
ARC
 8
TOOL_0
 5
120
 10
4587.274
 20
2185.751
 30
0
 40
21.0
 50
0
 51
147.688053502426
210
0
220
0
230
1.0
 0
LINE
 8
TOOL_0
 5
121
 10
4569.526
 20
2196.976
 30
0
 11
4536.216
 21
2144.307
 31
0
 0
ARC
 8
TOOL_0
 5
122
 10
4552.274
 20
2134.151
 30
0
 40
19.000097368172
 50
147.688392683242
 51
243.424159673344
210
0
220
0
230
1.0
 0
LINE
 8
TOOL_0
 5
123
 10
4543.774
 20
2117.159
 30
0
 11
4543.774
 21
1571.752
 31
0
 0
LINE
 8
TOOL_0
 5
124
 10
4543.774
 20
1571.752
 30
0
 11
4506.673
 21
1571.752
 31
0
 0
ARC
 8
TOOL_0
 5
125
 10
4501.774
 20
1572.752
 30
0
 40
5.00002009996
 50
348.463087982615
 51
90.0
210
0
220
0
230
1.0
 0
LINE
 8
TOOL_0
 5
126
 10
4501.774
 20
1577.752
 30
0
 11
4457.274
 21
1577.752
 31
0
 0
ARC
 8
TOOL_0
 5
127
 10
4457.274
 20
1378.752
 30
0
 40
199.0
 50
90.0
 51
180.0
210
0
220
0
230
1.0
 0
LINE
 8
TOOL_0
 5
128
 10
4258.274
 20
1378.752
 30
0
 11
4258.274
 21
945.752
 31
0
 0
ARC
 8
TOOL_0
 5
129
 10
4457.274
 20
945.752
 30
0
 40
199.0
 50
180.0
 51
270.0
210
0
220
0
230
1.0
 0
LINE
 8
TOOL_0
 5
12A
 10
4457.274
 20
746.752
 30
0
 11
4614.688
 21
746.752
 31
0
 0
LINE
 8
TOOL_0
 5
12B
 10
4614.688
 20
746.752
 30
0
 11
4618.995
 21
746.667
 31
0
 0
LINE
 8
TOOL_0
 5
12C
 10
4618.995
 20
746.667
 30
0
 11
4856.818
 21
2445.752
 31
0
 0
LINE
 8
TOOL_0
 5
12D
 10
4856.818
 20
2445.752
 30
0
 11
4886.818
 21
2445.752
 31
0
 0
LINE
 8
TOOL_0
 5
12E
 10
4886.818
 20
2445.752
 30
0
 11
4886.818
 21
2475.752
 31
0
 0
ARC
 8
TOOL_0
 5
12F
 10
4866.818
 20
2475.752
 30
0
 40
20.0
 50
0
 51
90.0
210
0
220
0
230
1.0
 0
LINE
 8
TOOL_0
 5
130
 10
4866.818
 20
2495.752
 30
0
 11
4806.818
 21
2495.752
 31
0
 0
ARC
 8
TOOL_0
 5
131
 10
4806.818
 20
2475.752
 30
0
 40
20.0
 50
90.0
 51
180.0
210
0
220
0
230
1.0
 0
LINE
 8
TOOL_0
 5
132
 10
4786.818
 20
2475.752
 30
0
 11
4786.818
 21
2415.752
 31
0
 0
ARC
 8
TOOL_0
 5
133
 10
4806.818
 20
2415.752
 30
0
 40
20.0
 50
180.0
 51
270.0
210
0
220
0
230
1.0
 0
LINE
 8
TOOL_0
 5
134
 10
4806.818
 20
2395.752
 30
0
 11
4866.818
 21
2395.752
 31
0
 0
ARC
 8
TOOL_0
 5
135
 10
4866.818
 20
2415.752
 30
0
 40
20.0
 50
270.0
 51
0
210
0
220
0
230
1.0
 0
LINE
 8
TOOL_0
 5
136
 10
4886.818
 20
2415.752
 30
0
 11
4886.818
 21
2445.752
 31
0
 0
LINE
 8
TOOL_0
 5
137
 10
4886.818
 20
2445.752
 30
0
 11
4879.747
 21
2452.823
 31
0
 0
LINE
 8
TOOL_0
 5
138
 10
4879.747
 20
2452.823
 30
0
 11
5961.818
 21
2528.752
 31
0
 0
LINE
 8
TOOL_0
 5
139
 10
5961.818
 20
2528.752
 30
0
 11
5991.818
 21
2528.752
 31
0
 0
LINE
 8
TOOL_0
 5
13A
 10
5991.818
 20
2528.752
 30
0
 11
5991.818
 21
2538.752
 31
0
 0
ARC
 8
TOOL_0
 5
13B
 10
5981.818
 20
2538.752
 30
0
 40
10.0
 50
0
 51
90.0
210
0
220
0
230
1.0
 0
LINE
 8
TOOL_0
 5
13C
 10
5981.818
 20
2548.752
 30
0
 11
5871.818
 21
2548.752
 31
0
 0
ARC
 8
TOOL_0
 5
13D
 10
5871.818
 20
2538.752
 30
0
 40
10.0
 50
90.0
 51
180.0
210
0
220
0
230
1.0
 0
LINE
 8
TOOL_0
 5
13E
 10
5861.818
 20
2538.752
 30
0
 11
5861.818
 21
2518.752
 31
0
 0
ARC
 8
TOOL_0
 5
13F
 10
5891.818
 20
2518.752
 30
0
 40
30.0
 50
180.0
 51
270.0
210
0
220
0
230
1.0
 0
LINE
 8
TOOL_0
 5
140
 10
5891.818
 20
2488.752
 30
0
 11
5961.818
 21
2488.752
 31
0
 0
ARC
 8
TOOL_0
 5
141
 10
5961.818
 20
2518.752
 30
0
 40
30.0
 50
270.0
 51
0
210
0
220
0
230
1.0
 0
LINE
 8
TOOL_0
 5
142
 10
5991.818
 20
2518.752
 30
0
 11
5991.818
 21
2528.752
 31
0
 0
LINE
 8
TOOL_0
 5
143
 10
5991.818
 20
2528.752
 30
0
 11
5984.747
 21
2535.823
 31
0
 0
LINE
 8
TOOL_0
 5
144
 10
5984.747
 20
2535.823
 30
0
 11
5851.818
 21
2418.752
 31
0
 0
LINE
 8
TOOL_0
 5
145
 10
5851.818
 20
2418.752
 30
0
 11
5881.818
 21
2418.752
 31
0
 0
LINE
 8
TOOL_0
 5
146
 10
5881.818
 20
2418.752
 30
0
 11
5881.818
 21
2448.752
 31
0
 0
ARC
 8
TOOL_0
 5
147
 10
5861.818
 20
2448.752
 30
0
 40
20.0
 50
0
 51
90.0
210
0
220
0
230
1.0
 0
LINE
 8
TOOL_0
 5
148
 10
5861.818
 20
2468.752
 30
0
 11
5801.818
 21
2468.752
 31
0
 0
ARC
 8
TOOL_0
 5
149
 10
5801.818
 20
2448.752
 30
0
 40
20.0
 50
90.0
 51
180.0
210
0
220
0
230
1.0
 0
LINE
 8
TOOL_0
 5
14A
 10
5781.818
 20
2448.752
 30
0
 11
5781.818
 21
2388.752
 31
0
 0
ARC
 8
TOOL_0
 5
14B
 10
5801.818
 20
2388.752
 30
0
 40
20.0
 50
180.0
 51
270.0
210
0
220
0
230
1.0
 0
LINE
 8
TOOL_0
 5
14C
 10
5801.818
 20
2368.752
 30
0
 11
5861.818
 21
2368.752
 31
0
 0
ARC
 8
TOOL_0
 5
14D
 10
5861.818
 20
2388.752
 30
0
 40
20.0
 50
270.0
 51
0
210
0
220
0
230
1.0
 0
LINE
 8
TOOL_0
 5
14E
 10
5881.818
 20
2388.752
 30
0
 11
5881.818
 21
2418.752
 31
0
 0
LINE
 8
TOOL_0
 5
14F
 10
5881.818
 20
2418.752
 30
0
 11
5874.747
 21
2425.823
 31
0
 0
LINE
 8
TOOL_0
 5
150
 10
5874.747
 20
2425.823
 30
0
 11
5761.818
 21
320.752
 31
0
 0
LINE
 8
TOOL_0
 5
151
 10
5761.818
 20
320.752
 30
0
 11
5791.818
 21
320.752
 31
0
 0
LINE
 8
TOOL_0
 5
152
 10
5791.818
 20
320.752
 30
0
 11
5791.818
 21
350.752
 31
0
 0
ARC
 8
TOOL_0
 5
153
 10
5781.818
 20
350.752
 30
0
 40
10.0
 50
0
 51
90.0
210
0
220
0
230
1.0
 0
LINE
 8
TOOL_0
 5
154
 10
5781.818
 20
360.752
 30
0
 11
5601.818
 21
360.752
 31
0
 0
ARC
 8
TOOL_0
 5
155
 10
5601.818
 20
350.752
 30
0
 40
10.0
 50
90.0
 51
180.0
210
0
220
0
230
1.0
 0
LINE
 8
TOOL_0
 5
156
 10
5591.818
 20
350.752
 30
0
 11
5591.818
 21
290.752
 31
0
 0
ARC
 8
TOOL_0
 5
157
 10
5601.818
 20
290.752
 30
0
 40
10.0
 50
180.0
 51
270.0
210
0
220
0
230
1.0
 0
LINE
 8
TOOL_0
 5
158
 10
5601.818
 20
280.752
 30
0
 11
5781.818
 21
280.752
 31
0
 0
ARC
 8
TOOL_0
 5
159
 10
5781.818
 20
290.752
 30
0
 40
10.0
 50
270.0
 51
0
210
0
220
0
230
1.0
 0
LINE
 8
TOOL_0
 5
15A
 10
5791.818
 20
290.752
 30
0
 11
5791.818
 21
320.752
 31
0
 0
LINE
 8
TOOL_0
 5
15B
 10
5791.818
 20
320.752
 30
0
 11
5784.747
 21
327.823
 31
0
 0
LINE
 8
TOOL_0
 5
15C
 10
5784.747
 20
327.823
 30
0
 11
5236.818
 21
85.752
 31
0
 0
LINE
 8
TOOL_0
 5
15D
 10
5236.818
 20
85.752
 30
0
 11
5266.818
 21
85.752
 31
0
 0
ARC
 8
TOOL_0
 5
15E
 10
5231.818
 20
85.752
 30
0
 40
35.0
 50
0
 51
180.0
210
0
220
0
230
1.0
 0
ARC
 8
TOOL_0
 5
15F
 10
5231.818
 20
85.752
 30
0
 40
35.0
 50
180.0
 51
0
210
0
220
0
230
1.0
 0
LINE
 8
TOOL_0
 5
160
 10
5266.818
 20
85.752
 30
0
 11
5259.747
 21
92.823
 31
0
 0
LINE
 8
TOOL_0
 5
161
 10
5259.747
 20
92.823
 30
0
 11
5249.818
 21
730.752
 31
0
 0
LINE
 8
TOOL_0
 5
162
 10
5249.818
 20
730.752
 30
0
 11
5279.818
 21
730.752
 31
0
 0
ARC
 8
TOOL_0
 5
163
 10
5259.818
 20
730.752
 30
0
 40
20.0
 50
0
 51
66.867990902554
210
0
220
0
230
1.0
 0
LINE
 8
TOOL_0
 5
164
 10
5267.675
 20
749.144
 30
0
 11
5243.996
 21
759.26
 31
0
 0
ARC
 8
TOOL_0
 5
165
 10
5231.817
 20
730.574
 30
0
 40
31.164316726025
 50
66.9957430162
 51
113.002564662372
210
0
220
0
230
1.0
 0
LINE
 8
TOOL_0
 5
166
 10
5219.639
 20
759.26
 30
0
 11
5195.96
 21
749.144
 31
0
 0
ARC
 8
TOOL_0
 5
167
 10
5203.817
 20
730.752
 30
0
 40
19.999952824944
 50
113.132009097445
 51
246.867990902554
210
0
220
0
230
1.0
 0
LINE
 8
TOOL_0
 5
168
 10
5195.96
 20
712.36
 30
0
 11
5219.639
 21
702.244
 31
0
 0
ARC
 8
TOOL_0
 5
169
 10
5231.818
 20
730.93
 30
0
 40
31.164316726025
 50
246.9957430162
 51
293.002564662372
210
0
220
0
230
1.0
 0
LINE
 8
TOOL_0
 5
16A
 10
5243.996
 20
702.244
 30
0
 11
5267.675
 21
712.36
 31
0
 0
ARC
 8
TOOL_0
 5
16B
 10
5259.818
 20
730.752
 30
0
 40
19.999952824944
 50
293.132009097446
 51
0
210
0
220
0
230
1.0
 0
LINE
 8
TOOL_0
 5
16C
 10
5279.818
 20
730.752
 30
0
 11
5272.747
 21
737.823
 31
0
 0
LINE
 8
TOOL_0
 5
16D
 10
5272.747
 20
737.823
 30
0
 11
4760.818
 21
1868.032
 31
0
 0
LINE
 8
TOOL_0
 5
16E
 10
4760.818
 20
1868.032
 30
0
 11
4760.818
 21
1898.338
 31
0
 0
LINE
 8
TOOL_0
 5
16F
 10
4760.818
 20
1898.338
 30
0
 11
4760.818
 21
2623.166
 31
0
 0
LINE
 8
TOOL_0
 5
170
 10
4760.818
 20
2623.166
 30
0
 11
4769.404
 21
2631.752
 31
0
 0
LINE
 8
TOOL_0
 5
171
 10
4769.404
 20
2631.752
 30
0
 11
6245.818
 21
2631.752
 31
0
 0
ARC
 8
TOOL_0
 5
172
 10
6245.818
 20
2624.752
 30
0
 40
7.0
 50
0
 51
90.0
210
0
220
0
230
1.0
 0
LINE
 8
TOOL_0
 5
173
 10
6252.818
 20
2624.752
 30
0
 11
6252.818
 21
4.752
 31
0
 0
LINE
 8
TOOL_0
 5
174
 10
6252.818
 20
4.752
 30
0
 11
4634.818
 21
4.752
 31
0
 0
ARC
 8
TOOL_0
 5
175
 10
4634.818
 20
11.752
 30
0
 40
7.0
 50
180.0
 51
270.0
210
0
220
0
230
1.0
 0
LINE
 8
TOOL_0
 5
176
 10
4627.818
 20
11.752
 30
0
 11
4627.818
 21
485.752
 31
0
 0
LINE
 8
TOOL_0
 5
177
 10
4627.818
 20
485.752
 30
0
 11
4775.818
 21
485.752
 31
0
 0
LINE
 8
TOOL_0
 5
178
 10
4775.818
 20
485.752
 30
0
 11
4775.818
 21
450.752
 31
0
 0
ARC
 8
TOOL_0
 5
179
 10
4796.818
 20
450.752
 30
0
 40
21.0
 50
180.0
 51
327.688053502426
210
0
220
0
230
1.0
 0
LINE
 8
TOOL_0
 5
17A
 10
4814.566
 20
439.527
 30
0
 11
4847.876
 21
492.196
 31
0
 0
ARC
 8
TOOL_0
 5
17B
 10
4831.818
 20
502.352
 30
0
 40
19.000097368172
 50
327.688392683242
 51
63.424159673344
210
0
220
0
230
1.0
 0
LINE
 8
TOOL_0
 5
17C
 10
4840.318
 20
519.344
 30
0
 11
4840.318
 21
1064.751
 31
0
 0
LINE
 8
TOOL_0
 5
17D
 10
4840.318
 20
1064.751
 30
0
 11
4877.419
 21
1064.751
 31
0
 0
ARC
 8
TOOL_0
 5
17E
 10
4882.318
 20
1063.751
 30
0
 40
5.00002009996
 50
168.463087982615
 51
270.0
210
0
220
0
230
1.0
 0
LINE
 8
TOOL_0
 5
17F
 10
4882.318
 20
1058.751
 30
0
 11
4926.818
 21
1058.751
 31
0
 0
ARC
 8
TOOL_0
 5
180
 10
4926.818
 20
1257.751
 30
0
 40
199.0
 50
270.0
 51
359.99971208151
210
0
220
0
230
1.0
 0
LINE
 8
TOOL_0
 5
181
 10
5125.818
 20
1257.75
 30
0
 11
5125.818
 21
1690.751
 31
0
 0
ARC
 8
TOOL_0
 5
182
 10
4926.818
 20
1690.751
 30
0
 40
199.0
 50
0
 51
90.0
210
0
220
0
230
1.0
 0
LINE
 8
TOOL_0
 5
183
 10
4926.818
 20
1889.751
 30
0
 11
4769.404
 21
1889.751
 31
0
 0
LINE
 8
TOOL_0
 5
184
 10
4769.404
 20
1889.751
 30
0
 11
4760.818
 21
1898.337
 31
0
 0
LINE
 8
TOOL_0
 5
185
 10
4760.818
 20
1898.337
 30
0
 11
4758.699
 21
1901.733
 31
0
 0
LINE
 8
TOOL_0
 5
186
 10
4758.699
 20
1901.733
 30
0
 11
7283.749
 21
2550.751
 31
0
 0
LINE
 8
TOOL_0
 5
187
 10
7283.749
 20
2550.751
 30
0
 11
7313.749
 21
2550.751
 31
0
 0
ARC
 8
TOOL_0
 5
188
 10
7278.749
 20
2550.751
 30
0
 40
35.0
 50
0
 51
180.0
210
0
220
0
230
1.0
 0
ARC
 8
TOOL_0
 5
189
 10
7278.749
 20
2550.751
 30
0
 40
35.0
 50
180.0
 51
0
210
0
220
0
230
1.0
 0
LINE
 8
TOOL_0
 5
18A
 10
7313.749
 20
2550.751
 30
0
 11
7306.678
 21
2557.822
 31
0
 0
LINE
 8
TOOL_0
 5
18B
 10
7306.678
 20
2557.822
 30
0
 11
6888.749
 21
2315.751
 31
0
 0
LINE
 8
TOOL_0
 5
18C
 10
6888.749
 20
2315.751
 30
0
 11
6918.749
 21
2315.751
 31
0
 0
LINE
 8
TOOL_0
 5
18D
 10
6918.749
 20
2315.751
 30
0
 11
6918.749
 21
2345.751
 31
0
 0
ARC
 8
TOOL_0
 5
18E
 10
6908.749
 20
2345.751
 30
0
 40
10.0
 50
0
 51
90.0
210
0
220
0
230
1.0
 0
LINE
 8
TOOL_0
 5
18F
 10
6908.749
 20
2355.751
 30
0
 11
6728.749
 21
2355.751
 31
0
 0
ARC
 8
TOOL_0
 5
190
 10
6728.749
 20
2345.751
 30
0
 40
10.0
 50
90.0
 51
180.0
210
0
220
0
230
1.0
 0
LINE
 8
TOOL_0
 5
191
 10
6718.749
 20
2345.751
 30
0
 11
6718.749
 21
2285.751
 31
0
 0
ARC
 8
TOOL_0
 5
192
 10
6728.749
 20
2285.751
 30
0
 40
10.0
 50
180.0
 51
270.0
210
0
220
0
230
1.0
 0
LINE
 8
TOOL_0
 5
193
 10
6728.749
 20
2275.751
 30
0
 11
6908.749
 21
2275.751
 31
0
 0
ARC
 8
TOOL_0
 5
194
 10
6908.749
 20
2285.751
 30
0
 40
10.0
 50
270.0
 51
0
210
0
220
0
230
1.0
 0
LINE
 8
TOOL_0
 5
195
 10
6918.749
 20
2285.751
 30
0
 11
6918.749
 21
2315.751
 31
0
 0
LINE
 8
TOOL_0
 5
196
 10
6918.749
 20
2315.751
 30
0
 11
6911.678
 21
2322.822
 31
0
 0
LINE
 8
TOOL_0
 5
197
 10
6911.678
 20
2322.822
 30
0
 11
7296.749
 21
1905.751
 31
0
 0
LINE
 8
TOOL_0
 5
198
 10
7296.749
 20
1905.751
 30
0
 11
7326.749
 21
1905.751
 31
0
 0
ARC
 8
TOOL_0
 5
199
 10
7306.749
 20
1905.751
 30
0
 40
20.0
 50
0
 51
66.867990902554
210
0
220
0
230
1.0
 0
LINE
 8
TOOL_0
 5
19A
 10
7314.606
 20
1924.143
 30
0
 11
7290.927
 21
1934.259
 31
0
 0
ARC
 8
TOOL_0
 5
19B
 10
7278.748
 20
1905.573
 30
0
 40
31.164316726025
 50
66.9957430162
 51
113.002564662372
210
0
220
0
230
1.0
 0
LINE
 8
TOOL_0
 5
19C
 10
7266.57
 20
1934.259
 30
0
 11
7242.891
 21
1924.143
 31
0
 0
ARC
 8
TOOL_0
 5
19D
 10
7250.748
 20
1905.751
 30
0
 40
19.999952824944
 50
113.132009097445
 51
246.867990902554
210
0
220
0
230
1.0
 0
LINE
 8
TOOL_0
 5
19E
 10
7242.891
 20
1887.359
 30
0
 11
7266.57
 21
1877.243
 31
0
 0
ARC
 8
TOOL_0
 5
19F
 10
7278.749
 20
1905.929
 30
0
 40
31.164316726025
 50
246.995743016199
 51
293.002564662372
210
0
220
0
230
1.0
 0
LINE
 8
TOOL_0
 5
1A0
 10
7290.927
 20
1877.243
 30
0
 11
7314.606
 21
1887.359
 31
0
 0
ARC
 8
TOOL_0
 5
1A1
 10
7306.749
 20
1905.751
 30
0
 40
19.999952824944
 50
293.132009097446
 51
0
210
0
220
0
230
1.0
 0
LINE
 8
TOOL_0
 5
1A2
 10
7326.749
 20
1905.751
 30
0
 11
7319.678
 21
1912.822
 31
0
 0
LINE
 8
TOOL_0
 5
1A3
 10
7319.678
 20
1912.822
 30
0
 11
6618.749
 21
117.751
 31
0
 0
LINE
 8
TOOL_0
 5
1A4
 10
6618.749
 20
117.751
 30
0
 11
6648.749
 21
117.751
 31
0
 0
ARC
 8
TOOL_0
 5
1A5
 10
6618.749
 20
117.751
 30
0
 40
30.0
 50
0
 51
90.0
210
0
220
0
230
1.0
 0
LINE
 8
TOOL_0
 5
1A6
 10
6618.749
 20
147.751
 30
0
 11
6548.749
 21
147.751
 31
0
 0
ARC
 8
TOOL_0
 5
1A7
 10
6548.749
 20
117.751
 30
0
 40
30.0
 50
90.0
 51
180.0
210
0
220
0
230
1.0
 0
LINE
 8
TOOL_0
 5
1A8
 10
6518.749
 20
117.751
 30
0
 11
6518.749
 21
97.751
 31
0
 0
ARC
 8
TOOL_0
 5
1A9
 10
6528.749
 20
97.751
 30
0
 40
10.0
 50
180.0
 51
270.0
210
0
220
0
230
1.0
 0
LINE
 8
TOOL_0
 5
1AA
 10
6528.749
 20
87.751
 30
0
 11
6638.749
 21
87.751
 31
0
 0
ARC
 8
TOOL_0
 5
1AB
 10
6638.749
 20
97.751
 30
0
 40
10.0
 50
270.0
 51
0
210
0
220
0
230
1.0
 0
LINE
 8
TOOL_0
 5
1AC
 10
6648.749
 20
97.751
 30
0
 11
6648.749
 21
117.751
 31
0
 0
LINE
 8
TOOL_0
 5
1AD
 10
6648.749
 20
117.751
 30
0
 11
6641.678
 21
124.822
 31
0
 0
LINE
 8
TOOL_0
 5
1AE
 10
6641.678
 20
124.822
 30
0
 11
6698.749
 21
217.751
 31
0
 0
LINE
 8
TOOL_0
 5
1AF
 10
6698.749
 20
217.751
 30
0
 11
6728.749
 21
217.751
 31
0
 0
LINE
 8
TOOL_0
 5
1B0
 10
6728.749
 20
217.751
 30
0
 11
6728.749
 21
247.751
 31
0
 0
ARC
 8
TOOL_0
 5
1B1
 10
6708.749
 20
247.751
 30
0
 40
20.0
 50
0
 51
90.0
210
0
220
0
230
1.0
 0
LINE
 8
TOOL_0
 5
1B2
 10
6708.749
 20
267.751
 30
0
 11
6648.749
 21
267.751
 31
0
 0
ARC
 8
TOOL_0
 5
1B3
 10
6648.749
 20
247.751
 30
0
 40
20.0
 50
90.0
 51
180.0
210
0
220
0
230
1.0
 0
LINE
 8
TOOL_0
 5
1B4
 10
6628.749
 20
247.751
 30
0
 11
6628.749
 21
187.751
 31
0
 0
ARC
 8
TOOL_0
 5
1B5
 10
6648.749
 20
187.751
 30
0
 40
20.0
 50
180.0
 51
270.0
210
0
220
0
230
1.0
 0
LINE
 8
TOOL_0
 5
1B6
 10
6648.749
 20
167.751
 30
0
 11
6708.749
 21
167.751
 31
0
 0
ARC
 8
TOOL_0
 5
1B7
 10
6708.749
 20
187.751
 30
0
 40
20.0
 50
270.0
 51
0
210
0
220
0
230
1.0
 0
LINE
 8
TOOL_0
 5
1B8
 10
6728.749
 20
187.751
 30
0
 11
6728.749
 21
217.751
 31
0
 0
LINE
 8
TOOL_0
 5
1B9
 10
6728.749
 20
217.751
 30
0
 11
6721.678
 21
224.822
 31
0
 0
LINE
 8
TOOL_0
 5
1BA
 10
6721.678
 20
224.822
 30
0
 11
7693.749
 21
190.751
 31
0
 0
LINE
 8
TOOL_0
 5
1BB
 10
7693.749
 20
190.751
 30
0
 11
7723.749
 21
190.751
 31
0
 0
LINE
 8
TOOL_0
 5
1BC
 10
7723.749
 20
190.751
 30
0
 11
7723.749
 21
220.751
 31
0
 0
ARC
 8
TOOL_0
 5
1BD
 10
7703.749
 20
220.751
 30
0
 40
20.0
 50
0
 51
90.0
210
0
220
0
230
1.0
 0
LINE
 8
TOOL_0
 5
1BE
 10
7703.749
 20
240.751
 30
0
 11
7643.749
 21
240.751
 31
0
 0
ARC
 8
TOOL_0
 5
1BF
 10
7643.749
 20
220.751
 30
0
 40
20.0
 50
90.0
 51
180.0
210
0
220
0
230
1.0
 0
LINE
 8
TOOL_0
 5
1C0
 10
7623.749
 20
220.751
 30
0
 11
7623.749
 21
160.751
 31
0
 0
ARC
 8
TOOL_0
 5
1C1
 10
7643.749
 20
160.751
 30
0
 40
20.0
 50
180.0
 51
270.0
210
0
220
0
230
1.0
 0
LINE
 8
TOOL_0
 5
1C2
 10
7643.749
 20
140.751
 30
0
 11
7703.749
 21
140.751
 31
0
 0
ARC
 8
TOOL_0
 5
1C3
 10
7703.749
 20
160.751
 30
0
 40
20.0
 50
270.0
 51
0
210
0
220
0
230
1.0
 0
LINE
 8
TOOL_0
 5
1C4
 10
7723.749
 20
160.751
 30
0
 11
7723.749
 21
190.751
 31
0
 0
LINE
 8
TOOL_0
 5
1C5
 10
7723.749
 20
190.751
 30
0
 11
7716.678
 21
197.822
 31
0
 0
LINE
 8
TOOL_0
 5
1C6
 10
7716.678
 20
197.822
 30
0
 11
7719.3
 21
767.306
 31
0
 0
LINE
 8
TOOL_0
 5
1C7
 10
7719.3
 20
767.306
 30
0
 11
7741.163
 21
746.751
 31
0
 0
LINE
 8
TOOL_0
 5
1C8
 10
7741.163
 20
746.751
 30
0
 11
7749.749
 21
738.165
 31
0
 0
LINE
 8
TOOL_0
 5
1C9
 10
7749.749
 20
738.165
 30
0
 11
7749.749
 21
13.337
 31
0
 0
LINE
 8
TOOL_0
 5
1CA
 10
7749.749
 20
13.337
 30
0
 11
7741.163
 21
4.751
 31
0
 0
LINE
 8
TOOL_0
 5
1CB
 10
7741.163
 20
4.751
 30
0
 11
6264.749
 21
4.751
 31
0
 0
ARC
 8
TOOL_0
 5
1CC
 10
6264.749
 20
11.751
 30
0
 40
7.0
 50
180.0
 51
270.0
210
0
220
0
230
1.0
 0
LINE
 8
TOOL_0
 5
1CD
 10
6257.749
 20
11.751
 30
0
 11
6257.749
 21
2631.751
 31
0
 0
LINE
 8
TOOL_0
 5
1CE
 10
6257.749
 20
2631.751
 30
0
 11
7875.749
 21
2631.751
 31
0
 0
ARC
 8
TOOL_0
 5
1CF
 10
7875.749
 20
2624.751
 30
0
 40
7.0
 50
0
 51
90.0
210
0
220
0
230
1.0
 0
LINE
 8
TOOL_0
 5
1D0
 10
7882.749
 20
2624.751
 30
0
 11
7882.749
 21
2150.751
 31
0
 0
LINE
 8
TOOL_0
 5
1D1
 10
7882.749
 20
2150.751
 30
0
 11
7734.749
 21
2150.751
 31
0
 0
LINE
 8
TOOL_0
 5
1D2
 10
7734.749
 20
2150.751
 30
0
 11
7734.749
 21
2185.751
 31
0
 0
ARC
 8
TOOL_0
 5
1D3
 10
7713.749
 20
2185.751
 30
0
 40
21.0
 50
0
 51
147.688053502426
210
0
220
0
230
1.0
 0
LINE
 8
TOOL_0
 5
1D4
 10
7696.001
 20
2196.976
 30
0
 11
7662.691
 21
2144.307
 31
0
 0
ARC
 8
TOOL_0
 5
1D5
 10
7678.749
 20
2134.151
 30
0
 40
19.000097368172
 50
147.688392683242
 51
243.424159673344
210
0
220
0
230
1.0
 0
LINE
 8
TOOL_0
 5
1D6
 10
7670.249
 20
2117.159
 30
0
 11
7670.249
 21
1571.752
 31
0
 0
LINE
 8
TOOL_0
 5
1D7
 10
7670.249
 20
1571.752
 30
0
 11
7633.148
 21
1571.752
 31
0
 0
ARC
 8
TOOL_0
 5
1D8
 10
7628.249
 20
1572.752
 30
0
 40
5.00002009996
 50
348.463087982615
 51
90.0
210
0
220
0
230
1.0
 0
LINE
 8
TOOL_0
 5
1D9
 10
7628.249
 20
1577.752
 30
0
 11
7583.749
 21
1577.752
 31
0
 0
ARC
 8
TOOL_0
 5
1DA
 10
7583.749
 20
1378.752
 30
0
 40
199.0
 50
90.0
 51
180.0
210
0
220
0
230
1.0
 0
LINE
 8
TOOL_0
 5
1DB
 10
7384.749
 20
1378.752
 30
0
 11
7384.749
 21
945.752
 31
0
 0
ARC
 8
TOOL_0
 5
1DC
 10
7583.749
 20
945.752
 30
0
 40
199.0
 50
180.0
 51
270.0
210
0
220
0
230
1.0
 0
LINE
 8
TOOL_0
 5
1DD
 10
7583.749
 20
746.752
 30
0
 11
7741.163
 21
746.752
 31
0
 0
LINE
 8
TOOL_0
 5
1DE
 10
7741.163
 20
746.752
 30
0
 11
7745.47
 21
746.667
 31
0
 0
LINE
 8
TOOL_0
 5
1DF
 10
7745.47
 20
746.667
 30
0
 11
9088.293
 21
2528.752
 31
0
 0
LINE
 8
TOOL_0
 5
1E0
 10
9088.293
 20
2528.752
 30
0
 11
9118.293
 21
2528.752
 31
0
 0
LINE
 8
TOOL_0
 5
1E1
 10
9118.293
 20
2528.752
 30
0
 11
9118.293
 21
2538.752
 31
0
 0
ARC
 8
TOOL_0
 5
1E2
 10
9108.293
 20
2538.752
 30
0
 40
10.0
 50
0
 51
90.0
210
0
220
0
230
1.0
 0
LINE
 8
TOOL_0
 5
1E3
 10
9108.293
 20
2548.752
 30
0
 11
8998.293
 21
2548.752
 31
0
 0
ARC
 8
TOOL_0
 5
1E4
 10
8998.293
 20
2538.752
 30
0
 40
10.0
 50
90.0
 51
180.0
210
0
220
0
230
1.0
 0
LINE
 8
TOOL_0
 5
1E5
 10
8988.293
 20
2538.752
 30
0
 11
8988.293
 21
2518.752
 31
0
 0
ARC
 8
TOOL_0
 5
1E6
 10
9018.293
 20
2518.752
 30
0
 40
30.0
 50
180.0
 51
270.0
210
0
220
0
230
1.0
 0
LINE
 8
TOOL_0
 5
1E7
 10
9018.293
 20
2488.752
 30
0
 11
9088.293
 21
2488.752
 31
0
 0
ARC
 8
TOOL_0
 5
1E8
 10
9088.293
 20
2518.752
 30
0
 40
30.0
 50
270.0
 51
0
210
0
220
0
230
1.0
 0
LINE
 8
TOOL_0
 5
1E9
 10
9118.293
 20
2518.752
 30
0
 11
9118.293
 21
2528.752
 31
0
 0
LINE
 8
TOOL_0
 5
1EA
 10
9118.293
 20
2528.752
 30
0
 11
9111.222
 21
2535.823
 31
0
 0
LINE
 8
TOOL_0
 5
1EB
 10
9111.222
 20
2535.823
 30
0
 11
8978.293
 21
2418.752
 31
0
 0
LINE
 8
TOOL_0
 5
1EC
 10
8978.293
 20
2418.752
 30
0
 11
9008.293
 21
2418.752
 31
0
 0
LINE
 8
TOOL_0
 5
1ED
 10
9008.293
 20
2418.752
 30
0
 11
9008.293
 21
2448.752
 31
0
 0
ARC
 8
TOOL_0
 5
1EE
 10
8988.293
 20
2448.752
 30
0
 40
20.0
 50
0
 51
90.0
210
0
220
0
230
1.0
 0
LINE
 8
TOOL_0
 5
1EF
 10
8988.293
 20
2468.752
 30
0
 11
8928.293
 21
2468.752
 31
0
 0
ARC
 8
TOOL_0
 5
1F0
 10
8928.293
 20
2448.752
 30
0
 40
20.0
 50
90.0
 51
180.0
210
0
220
0
230
1.0
 0
LINE
 8
TOOL_0
 5
1F1
 10
8908.293
 20
2448.752
 30
0
 11
8908.293
 21
2388.752
 31
0
 0
ARC
 8
TOOL_0
 5
1F2
 10
8928.293
 20
2388.752
 30
0
 40
20.0
 50
180.0
 51
270.0
210
0
220
0
230
1.0
 0
LINE
 8
TOOL_0
 5
1F3
 10
8928.293
 20
2368.752
 30
0
 11
8988.293
 21
2368.752
 31
0
 0
ARC
 8
TOOL_0
 5
1F4
 10
8988.293
 20
2388.752
 30
0
 40
20.0
 50
270.0
 51
0
210
0
220
0
230
1.0
 0
LINE
 8
TOOL_0
 5
1F5
 10
9008.293
 20
2388.752
 30
0
 11
9008.293
 21
2418.752
 31
0
 0
LINE
 8
TOOL_0
 5
1F6
 10
9008.293
 20
2418.752
 30
0
 11
9001.222
 21
2425.823
 31
0
 0
LINE
 8
TOOL_0
 5
1F7
 10
9001.222
 20
2425.823
 30
0
 11
7983.293
 21
2445.752
 31
0
 0
LINE
 8
TOOL_0
 5
1F8
 10
7983.293
 20
2445.752
 30
0
 11
8013.293
 21
2445.752
 31
0
 0
LINE
 8
TOOL_0
 5
1F9
 10
8013.293
 20
2445.752
 30
0
 11
8013.293
 21
2475.752
 31
0
 0
ARC
 8
TOOL_0
 5
1FA
 10
7993.293
 20
2475.752
 30
0
 40
20.0
 50
0
 51
90.0
210
0
220
0
230
1.0
 0
LINE
 8
TOOL_0
 5
1FB
 10
7993.293
 20
2495.752
 30
0
 11
7933.293
 21
2495.752
 31
0
 0
ARC
 8
TOOL_0
 5
1FC
 10
7933.293
 20
2475.752
 30
0
 40
20.0
 50
90.0
 51
180.0
210
0
220
0
230
1.0
 0
LINE
 8
TOOL_0
 5
1FD
 10
7913.293
 20
2475.752
 30
0
 11
7913.293
 21
2415.752
 31
0
 0
ARC
 8
TOOL_0
 5
1FE
 10
7933.293
 20
2415.752
 30
0
 40
20.0
 50
180.0
 51
270.0
210
0
220
0
230
1.0
 0
LINE
 8
TOOL_0
 5
1FF
 10
7933.293
 20
2395.752
 30
0
 11
7993.293
 21
2395.752
 31
0
 0
ARC
 8
TOOL_0
 5
200
 10
7993.293
 20
2415.752
 30
0
 40
20.0
 50
270.0
 51
0
210
0
220
0
230
1.0
 0
LINE
 8
TOOL_0
 5
201
 10
8013.293
 20
2415.752
 30
0
 11
8013.293
 21
2445.752
 31
0
 0
LINE
 8
TOOL_0
 5
202
 10
8013.293
 20
2445.752
 30
0
 11
8006.222
 21
2452.823
 31
0
 0
LINE
 8
TOOL_0
 5
203
 10
8006.222
 20
2452.823
 30
0
 11
8376.293
 21
730.752
 31
0
 0
LINE
 8
TOOL_0
 5
204
 10
8376.293
 20
730.752
 30
0
 11
8406.293
 21
730.752
 31
0
 0
ARC
 8
TOOL_0
 5
205
 10
8386.293
 20
730.752
 30
0
 40
20.0
 50
0
 51
66.867990902554
210
0
220
0
230
1.0
 0
LINE
 8
TOOL_0
 5
206
 10
8394.15
 20
749.144
 30
0
 11
8370.471
 21
759.26
 31
0
 0
ARC
 8
TOOL_0
 5
207
 10
8358.292
 20
730.574
 30
0
 40
31.164316726025
 50
66.9957430162
 51
113.002564662372
210
0
220
0
230
1.0
 0
LINE
 8
TOOL_0
 5
208
 10
8346.114
 20
759.26
 30
0
 11
8322.435
 21
749.144
 31
0
 0
ARC
 8
TOOL_0
 5
209
 10
8330.292
 20
730.752
 30
0
 40
19.999952824944
 50
113.132009097445
 51
246.867990902554
210
0
220
0
230
1.0
 0
LINE
 8
TOOL_0
 5
20A
 10
8322.435
 20
712.36
 30
0
 11
8346.114
 21
702.244
 31
0
 0
ARC
 8
TOOL_0
 5
20B
 10
8358.293
 20
730.93
 30
0
 40
31.164316726025
 50
246.9957430162
 51
293.002564662372
210
0
220
0
230
1.0
 0
LINE
 8
TOOL_0
 5
20C
 10
8370.471
 20
702.244
 30
0
 11
8394.15
 21
712.36
 31
0
 0
ARC
 8
TOOL_0
 5
20D
 10
8386.293
 20
730.752
 30
0
 40
19.999952824944
 50
293.132009097446
 51
0
210
0
220
0
230
1.0
 0
LINE
 8
TOOL_0
 5
20E
 10
8406.293
 20
730.752
 30
0
 11
8399.222
 21
737.823
 31
0
 0
LINE
 8
TOOL_0
 5
20F
 10
8399.222
 20
737.823
 30
0
 11
8363.293
 21
85.752
 31
0
 0
LINE
 8
TOOL_0
 5
210
 10
8363.293
 20
85.752
 30
0
 11
8393.293
 21
85.752
 31
0
 0
ARC
 8
TOOL_0
 5
211
 10
8358.293
 20
85.752
 30
0
 40
35.0
 50
0
 51
180.0
210
0
220
0
230
1.0
 0
ARC
 8
TOOL_0
 5
212
 10
8358.293
 20
85.752
 30
0
 40
35.0
 50
180.0
 51
0
210
0
220
0
230
1.0
 0
LINE
 8
TOOL_0
 5
213
 10
8393.293
 20
85.752
 30
0
 11
8386.222
 21
92.823
 31
0
 0
LINE
 8
TOOL_0
 5
214
 10
8386.222
 20
92.823
 30
0
 11
8888.293
 21
320.752
 31
0
 0
LINE
 8
TOOL_0
 5
215
 10
8888.293
 20
320.752
 30
0
 11
8918.293
 21
320.752
 31
0
 0
LINE
 8
TOOL_0
 5
216
 10
8918.293
 20
320.752
 30
0
 11
8918.293
 21
350.752
 31
0
 0
ARC
 8
TOOL_0
 5
217
 10
8908.293
 20
350.752
 30
0
 40
10.0
 50
0
 51
90.0
210
0
220
0
230
1.0
 0
LINE
 8
TOOL_0
 5
218
 10
8908.293
 20
360.752
 30
0
 11
8728.293
 21
360.752
 31
0
 0
ARC
 8
TOOL_0
 5
219
 10
8728.293
 20
350.752
 30
0
 40
10.0
 50
90.0
 51
180.0
210
0
220
0
230
1.0
 0
LINE
 8
TOOL_0
 5
21A
 10
8718.293
 20
350.752
 30
0
 11
8718.293
 21
290.752
 31
0
 0
ARC
 8
TOOL_0
 5
21B
 10
8728.293
 20
290.752
 30
0
 40
10.0
 50
180.0
 51
270.0
210
0
220
0
230
1.0
 0
LINE
 8
TOOL_0
 5
21C
 10
8728.293
 20
280.752
 30
0
 11
8908.293
 21
280.752
 31
0
 0
ARC
 8
TOOL_0
 5
21D
 10
8908.293
 20
290.752
 30
0
 40
10.0
 50
270.0
 51
0
210
0
220
0
230
1.0
 0
LINE
 8
TOOL_0
 5
21E
 10
8918.293
 20
290.752
 30
0
 11
8918.293
 21
320.752
 31
0
 0
LINE
 8
TOOL_0
 5
21F
 10
8918.293
 20
320.752
 30
0
 11
8911.222
 21
327.823
 31
0
 0
LINE
 8
TOOL_0
 5
220
 10
8911.222
 20
327.823
 30
0
 11
7887.293
 21
1868.032
 31
0
 0
LINE
 8
TOOL_0
 5
221
 10
7887.293
 20
1868.032
 30
0
 11
7887.293
 21
1898.338
 31
0
 0
LINE
 8
TOOL_0
 5
222
 10
7887.293
 20
1898.338
 30
0
 11
7887.293
 21
2623.166
 31
0
 0
LINE
 8
TOOL_0
 5
223
 10
7887.293
 20
2623.166
 30
0
 11
7895.879
 21
2631.752
 31
0
 0
LINE
 8
TOOL_0
 5
224
 10
7895.879
 20
2631.752
 30
0
 11
9372.293
 21
2631.752
 31
0
 0
ARC
 8
TOOL_0
 5
225
 10
9372.293
 20
2624.752
 30
0
 40
7.0
 50
0
 51
90.0
210
0
220
0
230
1.0
 0
LINE
 8
TOOL_0
 5
226
 10
9379.293
 20
2624.752
 30
0
 11
9379.293
 21
4.752
 31
0
 0
LINE
 8
TOOL_0
 5
227
 10
9379.293
 20
4.752
 30
0
 11
7761.293
 21
4.752
 31
0
 0
ARC
 8
TOOL_0
 5
228
 10
7761.293
 20
11.752
 30
0
 40
7.0
 50
180.0
 51
270.0
210
0
220
0
230
1.0
 0
LINE
 8
TOOL_0
 5
229
 10
7754.293
 20
11.752
 30
0
 11
7754.293
 21
485.752
 31
0
 0
LINE
 8
TOOL_0
 5
22A
 10
7754.293
 20
485.752
 30
0
 11
7902.293
 21
485.752
 31
0
 0
LINE
 8
TOOL_0
 5
22B
 10
7902.293
 20
485.752
 30
0
 11
7902.293
 21
450.752
 31
0
 0
ARC
 8
TOOL_0
 5
22C
 10
7923.293
 20
450.752
 30
0
 40
21.0
 50
180.0
 51
327.688053502426
210
0
220
0
230
1.0
 0
LINE
 8
TOOL_0
 5
22D
 10
7941.041
 20
439.527
 30
0
 11
7974.351
 21
492.196
 31
0
 0
ARC
 8
TOOL_0
 5
22E
 10
7958.293
 20
502.352
 30
0
 40
19.000097368172
 50
327.688392683242
 51
63.424159673344
210
0
220
0
230
1.0
 0
LINE
 8
TOOL_0
 5
22F
 10
7966.793
 20
519.344
 30
0
 11
7966.793
 21
1064.751
 31
0
 0
LINE
 8
TOOL_0
 5
230
 10
7966.793
 20
1064.751
 30
0
 11
8003.894
 21
1064.751
 31
0
 0
ARC
 8
TOOL_0
 5
231
 10
8008.793
 20
1063.751
 30
0
 40
5.00002009996
 50
168.463087982615
 51
270.0
210
0
220
0
230
1.0
 0
LINE
 8
TOOL_0
 5
232
 10
8008.793
 20
1058.751
 30
0
 11
8053.293
 21
1058.751
 31
0
 0
ARC
 8
TOOL_0
 5
233
 10
8053.293
 20
1257.751
 30
0
 40
199.0
 50
270.0
 51
359.99971208151
210
0
220
0
230
1.0
 0
LINE
 8
TOOL_0
 5
234
 10
8252.293
 20
1257.75
 30
0
 11
8252.293
 21
1690.751
 31
0
 0
ARC
 8
TOOL_0
 5
235
 10
8053.293
 20
1690.751
 30
0
 40
199.0
 50
0
 51
90.0
210
0
220
0
230
1.0
 0
LINE
 8
TOOL_0
 5
236
 10
8053.293
 20
1889.751
 30
0
 11
7895.879
 21
1889.751
 31
0
 0
LINE
 8
TOOL_0
 5
237
 10
7895.879
 20
1889.751
 30
0
 11
7887.293
 21
1898.337
 31
0
 0
LINE
 8
TOOL_0
 5
238
 10
7887.293
 20
1898.337
 30
0
 11
7885.174
 21
1901.733
 31
0
 0
ENDSEC
 0
EOF

