0
SECTION
2
TABLES
0
TABLE
2
LAYER
70
0
0
LAYER
2
LAYER_NAME
70
0
62
1
6
CONTINUOUS
0
ENDTAB
0
ENDSEC
 0
SECTION
 2
ENTITIES
 0
LINE
 8
TOOL_0
 5
1
 10
6656.0
 20
796.82
 30
0
 11
6656.0
 21
780.001
 31
0
 0
LINE
 8
TOOL_0
 5
2
 10
6656.0
 20
780.001
 30
0
 11
6656.0
 21
20.001
 31
0
 0
LINE
 8
TOOL_0
 5
3
 10
6656.0
 20
20.001
 30
0
 11
20.0
 21
20.001
 31
0
 0
LINE
 8
TOOL_0
 5
4
 10
20.0
 20
20.001
 30
0
 11
20.0
 21
780.001
 31
0
 0
LINE
 8
TOOL_0
 5
5
 10
20.0
 20
780.001
 30
0
 11
6656.0
 21
780.001
 31
0
 0
LINE
 8
TOOL_0
 5
6
 10
6656.0
 20
780.001
 30
0
 11
6660.886
 21
780.001
 31
0
 0
LINE
 8
TOOL_0
 5
7
 10
6660.886
 20
780.001
 30
0
 11
6660.886
 21
0
 31
0
 0
LINE
 8
TOOL_0
 5
8
 10
6660.886
 20
0
 30
0
 11
7272.177
 21
675.751
 31
0
 0
LINE
 8
TOOL_0
 5
9
 10
7272.177
 20
675.751
 30
0
 11
7302.177
 21
675.751
 31
0
 0
LINE
 8
TOOL_0
 5
A
 10
7302.177
 20
675.751
 30
0
 11
7302.177
 21
875.751
 31
0
 0
ARC
 8
TOOL_0
 5
B
 10
7202.177
 20
875.751
 30
0
 40
100.0
 50
0
 51
90.0
210
0
220
0
230
1.0
 0
LINE
 8
TOOL_0
 5
C
 10
7202.177
 20
975.751
 30
0
 11
7032.177
 21
975.751
 31
0
 0
ARC
 8
TOOL_0
 5
D
 10
7032.177
 20
875.751
 30
0
 40
100.0
 50
90.0
 51
180.0
210
0
220
0
230
1.0
 0
LINE
 8
TOOL_0
 5
E
 10
6932.177
 20
875.751
 30
0
 11
6932.177
 21
475.751
 31
0
 0
ARC
 8
TOOL_0
 5
F
 10
7032.177
 20
475.751
 30
0
 40
100.0
 50
180.0
 51
270.0
210
0
220
0
230
1.0
 0
LINE
 8
TOOL_0
 5
10
 10
7032.177
 20
375.751
 30
0
 11
7202.177
 21
375.751
 31
0
 0
ARC
 8
TOOL_0
 5
11
 10
7202.177
 20
475.751
 30
0
 40
100.0
 50
270.0
 51
359.999427042205
210
0
220
0
230
1.0
 0
LINE
 8
TOOL_0
 5
12
 10
7302.177
 20
475.75
 30
0
 11
7302.177
 21
675.751
 31
0
 0
LINE
 8
TOOL_0
 5
13
 10
7302.177
 20
675.751
 30
0
 11
7298.641
 21
679.287
 31
0
 0
LINE
 8
TOOL_0
 5
14
 10
7298.641
 20
679.287
 30
0
 11
7569.62
 21
20.001
 31
0
 0
LINE
 8
TOOL_0
 5
15
 10
7569.62
 20
20.001
 30
0
 11
7557.926
 21
20.001
 31
0
 0
LINE
 8
TOOL_0
 5
16
 10
7557.926
 20
20.001
 30
0
 11
6676.426
 21
20.001
 31
0
 0
LINE
 8
TOOL_0
 5
17
 10
6676.426
 20
20.001
 30
0
 11
6676.426
 21
1271.501
 31
0
 0
LINE
 8
TOOL_0
 5
18
 10
6676.426
 20
1271.501
 30
0
 11
7557.926
 21
1271.501
 31
0
 0
LINE
 8
TOOL_0
 5
19
 10
7557.926
 20
1271.501
 30
0
 11
7557.926
 21
20.001
 31
0
 0
LINE
 8
TOOL_0
 5
1A
 10
7557.926
 20
20.001
 30
0
 11
7557.926
 21
15.239
 31
0
 0
LINE
 8
TOOL_0
 5
1B
 10
7557.926
 20
15.239
 30
0
 11
8173.985
 21
691.909
 31
0
 0
LINE
 8
TOOL_0
 5
1C
 10
8173.985
 20
691.909
 30
0
 11
8203.985
 21
691.909
 31
0
 0
LINE
 8
TOOL_0
 5
1D
 10
8203.985
 20
691.909
 30
0
 11
8203.985
 21
875.751
 31
0
 0
ARC
 8
TOOL_0
 5
1E
 10
8103.985
 20
875.751
 30
0
 40
100.0
 50
0
 51
90.0
210
0
220
0
230
1.0
 0
LINE
 8
TOOL_0
 5
1F
 10
8103.985
 20
975.751
 30
0
 11
7933.985
 21
975.751
 31
0
 0
ARC
 8
TOOL_0
 5
20
 10
7933.985
 20
875.751
 30
0
 40
100.0
 50
90.0
 51
180.0
210
0
220
0
230
1.0
 0
LINE
 8
TOOL_0
 5
21
 10
7833.985
 20
875.751
 30
0
 11
7833.985
 21
475.751
 31
0
 0
ARC
 8
TOOL_0
 5
22
 10
7933.985
 20
475.751
 30
0
 40
100.0
 50
180.0
 51
270.0
210
0
220
0
230
1.0
 0
LINE
 8
TOOL_0
 5
23
 10
7933.985
 20
375.751
 30
0
 11
8103.985
 21
375.751
 31
0
 0
ARC
 8
TOOL_0
 5
24
 10
8103.985
 20
475.751
 30
0
 40
100.0
 50
270.0
 51
359.999427042205
210
0
220
0
230
1.0
 0
LINE
 8
TOOL_0
 5
25
 10
8203.985
 20
475.75
 30
0
 11
8203.985
 21
691.909
 31
0
 0
LINE
 8
TOOL_0
 5
26
 10
8203.985
 20
691.909
 30
0
 11
8200.449
 21
695.445
 31
0
 0
LINE
 8
TOOL_0
 5
27
 10
8200.449
 20
695.445
 30
0
 11
8476.195
 21
20.001
 31
0
 0
LINE
 8
TOOL_0
 5
28
 10
8476.195
 20
20.001
 30
0
 11
8459.734
 21
20.001
 31
0
 0
LINE
 8
TOOL_0
 5
29
 10
8459.734
 20
20.001
 30
0
 11
7578.234
 21
20.001
 31
0
 0
LINE
 8
TOOL_0
 5
2A
 10
7578.234
 20
20.001
 30
0
 11
7578.234
 21
1271.501
 31
0
 0
LINE
 8
TOOL_0
 5
2B
 10
7578.234
 20
1271.501
 30
0
 11
8459.734
 21
1271.501
 31
0
 0
LINE
 8
TOOL_0
 5
2C
 10
8459.734
 20
1271.501
 30
0
 11
8459.734
 21
20.001
 31
0
 0
LINE
 8
TOOL_0
 5
2D
 10
8459.734
 20
20.001
 30
0
 11
8459.734
 21
14.664
 31
0
 0
LINE
 8
TOOL_0
 5
2E
 10
8459.734
 20
14.664
 30
0
 11
8212.0
 21
1291.701
 31
0
 0
LINE
 8
TOOL_0
 5
2F
 10
8212.0
 20
1291.701
 30
0
 11
8177.932
 21
1291.701
 31
0
 0
LINE
 8
TOOL_0
 5
30
 10
8177.932
 20
1291.701
 30
0
 11
6676.432
 21
1291.701
 31
0
 0
LINE
 8
TOOL_0
 5
31
 10
6676.432
 20
1291.701
 30
0
 11
6676.432
 21
1453.201
 31
0
 0
LINE
 8
TOOL_0
 5
32
 10
6676.432
 20
1453.201
 30
0
 11
8177.932
 21
1453.201
 31
0
 0
LINE
 8
TOOL_0
 5
33
 10
8177.932
 20
1453.201
 30
0
 11
8177.932
 21
1291.701
 31
0
 0
LINE
 8
TOOL_0
 5
34
 10
8177.932
 20
1291.701
 30
0
 11
8177.932
 21
1286.437
 31
0
 0
LINE
 8
TOOL_0
 5
35
 10
8177.932
 20
1286.437
 30
0
 11
8197.13
 21
1473.508
 31
0
 0
LINE
 8
TOOL_0
 5
36
 10
8197.13
 20
1473.508
 30
0
 11
8177.785
 21
1473.508
 31
0
 0
LINE
 8
TOOL_0
 5
37
 10
8177.785
 20
1473.508
 30
0
 11
6676.285
 21
1473.508
 31
0
 0
LINE
 8
TOOL_0
 5
38
 10
6676.285
 20
1473.508
 30
0
 11
6676.285
 21
1635.008
 31
0
 0
LINE
 8
TOOL_0
 5
39
 10
6676.285
 20
1635.008
 30
0
 11
8177.785
 21
1635.008
 31
0
 0
LINE
 8
TOOL_0
 5
3A
 10
8177.785
 20
1635.008
 30
0
 11
8177.785
 21
1473.508
 31
0
 0
LINE
 8
TOOL_0
 5
3B
 10
8177.785
 20
1473.508
 30
0
 11
8177.785
 21
1468.511
 31
0
 0
ENDSEC
 0
EOF

