0
SECTION
2
TABLES
0
TABLE
2
LAYER
70
0
0
LAYER
2
LAYER_NAME
70
0
62
1
6
CONTINUOUS
0
ENDTAB
0
ENDSEC
 0
SECTION
 2
ENTITIES
 0
LINE
 8
TOOL_0
 5
1
 10
2521.891
 20
302.878
 30
0
 11
2552.486
 21
302.878
 31
0
 0
LINE
 8
TOOL_0
 5
2
 10
2552.486
 20
302.878
 30
0
 11
2552.486
 21
415.378
 31
0
 0
ARC
 8
TOOL_0
 5
3
 10
2517.486
 20
415.378
 30
0
 40
35.0
 50
0
 51
90.0
210
0
220
0
230
1.0
 0
LINE
 8
TOOL_0
 5
4
 10
2517.486
 20
450.378
 30
0
 11
2362.486
 21
450.378
 31
0
 0
ARC
 8
TOOL_0
 5
5
 10
2362.486
 20
415.378
 30
0
 40
35.0
 50
90.0
 51
180.0
210
0
220
0
230
1.0
 0
LINE
 8
TOOL_0
 5
6
 10
2327.486
 20
415.378
 30
0
 11
2327.486
 21
190.378
 31
0
 0
ARC
 8
TOOL_0
 5
7
 10
2362.486
 20
190.378
 30
0
 40
35.0
 50
180.0
 51
270.0
210
0
220
0
230
1.0
 0
LINE
 8
TOOL_0
 5
8
 10
2362.486
 20
155.378
 30
0
 11
2517.486
 21
155.378
 31
0
 0
ARC
 8
TOOL_0
 5
9
 10
2517.486
 20
190.378
 30
0
 40
35.0
 50
270.0
 51
0
210
0
220
0
230
1.0
 0
LINE
 8
TOOL_0
 5
A
 10
2552.486
 20
190.378
 30
0
 11
2552.486
 21
302.878
 31
0
 0
LINE
 8
TOOL_0
 5
B
 10
2552.486
 20
302.878
 30
0
 11
2549.03
 21
306.686
 31
0
 0
LINE
 8
TOOL_0
 5
C
 10
2549.03
 20
306.686
 30
0
 11
2887.334
 21
282.878
 31
0
 0
LINE
 8
TOOL_0
 5
D
 10
2887.334
 20
282.878
 30
0
 11
2917.486
 21
282.878
 31
0
 0
LINE
 8
TOOL_0
 5
E
 10
2917.486
 20
282.878
 30
0
 11
2917.486
 21
415.378
 31
0
 0
ARC
 8
TOOL_0
 5
F
 10
2882.486
 20
415.378
 30
0
 40
35.0
 50
0
 51
90.0
210
0
220
0
230
1.0
 0
LINE
 8
TOOL_0
 5
10
 10
2882.486
 20
450.378
 30
0
 11
2727.486
 21
450.378
 31
0
 0
ARC
 8
TOOL_0
 5
11
 10
2727.486
 20
415.378
 30
0
 40
35.0
 50
90.0
 51
180.0
210
0
220
0
230
1.0
 0
LINE
 8
TOOL_0
 5
12
 10
2692.486
 20
415.378
 30
0
 11
2692.486
 21
150.378
 31
0
 0
ARC
 8
TOOL_0
 5
13
 10
2727.486
 20
150.378
 30
0
 40
35.0
 50
180.0
 51
270.0
210
0
220
0
230
1.0
 0
LINE
 8
TOOL_0
 5
14
 10
2727.486
 20
115.378
 30
0
 11
2882.486
 21
115.378
 31
0
 0
ARC
 8
TOOL_0
 5
15
 10
2882.486
 20
150.378
 30
0
 40
35.0
 50
270.0
 51
0
210
0
220
0
230
1.0
 0
LINE
 8
TOOL_0
 5
16
 10
2917.486
 20
150.378
 30
0
 11
2917.486
 21
282.878
 31
0
 0
LINE
 8
TOOL_0
 5
17
 10
2917.486
 20
282.878
 30
0
 11
2915.011
 21
287.26
 31
0
 0
LINE
 8
TOOL_0
 5
18
 10
2915.011
 20
287.26
 30
0
 11
3158.886
 21
135.801
 31
0
 0
LINE
 8
TOOL_0
 5
19
 10
3158.886
 20
135.801
 30
0
 11
3158.886
 21
105.378
 31
0
 0
LINE
 8
TOOL_0
 5
1A
 10
3158.886
 20
105.378
 30
0
 11
3158.886
 21
50.364
 31
0
 0
LINE
 8
TOOL_0
 5
1B
 10
3158.886
 20
50.364
 30
0
 11
3147.9
 21
39.378
 31
0
 0
LINE
 8
TOOL_0
 5
1C
 10
3147.9
 20
39.378
 30
0
 11
3036.486
 21
39.378
 31
0
 0
ARC
 8
TOOL_0
 5
1D
 10
3036.486
 20
31.378
 30
0
 40
8.0
 50
90.0
 51
180.0
210
0
220
0
230
1.0
 0
LINE
 8
TOOL_0
 5
1E
 10
3028.486
 20
31.378
 30
0
 11
3028.486
 21
19.378
 31
0
 0
LINE
 8
TOOL_0
 5
1F
 10
3028.486
 20
19.378
 30
0
 11
2557.486
 21
19.378
 31
0
 0
LINE
 8
TOOL_0
 5
20
 10
2557.486
 20
19.378
 30
0
 11
2557.486
 21
31.378
 31
0
 0
ARC
 8
TOOL_0
 5
21
 10
2549.486
 20
31.378
 30
0
 40
8.0
 50
0
 51
90.0
210
0
220
0
230
1.0
 0
LINE
 8
TOOL_0
 5
22
 10
2549.486
 20
39.378
 30
0
 11
2395.486
 21
39.378
 31
0
 0
ARC
 8
TOOL_0
 5
23
 10
2395.486
 20
31.378
 30
0
 40
8.0
 50
90.0
 51
180.0
210
0
220
0
230
1.0
 0
LINE
 8
TOOL_0
 5
24
 10
2387.486
 20
31.378
 30
0
 11
2387.486
 21
19.378
 31
0
 0
LINE
 8
TOOL_0
 5
25
 10
2387.486
 20
19.378
 30
0
 11
1861.486
 21
19.378
 31
0
 0
LINE
 8
TOOL_0
 5
26
 10
1861.486
 20
19.378
 30
0
 11
1861.486
 21
26.378
 31
0
 0
ARC
 8
TOOL_0
 5
27
 10
1853.486
 20
26.378
 30
0
 40
8.0
 50
0
 51
90.0
210
0
220
0
230
1.0
 0
LINE
 8
TOOL_0
 5
28
 10
1853.486
 20
34.378
 30
0
 11
1616.086
 21
34.378
 31
0
 0
LINE
 8
TOOL_0
 5
29
 10
1616.086
 20
34.378
 30
0
 11
1616.086
 21
362.966
 31
0
 0
LINE
 8
TOOL_0
 5
2A
 10
1616.086
 20
362.966
 30
0
 11
2374.361
 21
615.378
 31
0
 0
LINE
 8
TOOL_0
 5
2B
 10
2374.361
 20
615.378
 30
0
 11
2879.199
 21
615.378
 31
0
 0
ARC
 8
TOOL_0
 5
2C
 10
2879.199
 20
515.378
 30
0
 40
100.0
 50
46.665781797872
 51
90.0
210
0
220
0
230
1.0
 0
LINE
 8
TOOL_0
 5
2D
 10
2947.824
 20
588.114
 30
0
 11
3158.886
 21
388.982
 31
0
 0
LINE
 8
TOOL_0
 5
2E
 10
3158.886
 20
388.982
 30
0
 11
3158.886
 21
265.378
 31
0
 0
LINE
 8
TOOL_0
 5
2F
 10
3158.886
 20
265.378
 30
0
 11
3137.486
 21
265.378
 31
0
 0
ARC
 8
TOOL_0
 5
30
 10
3137.486
 20
185.378
 30
0
 40
80.0
 50
90.0
 51
270.0
210
0
220
0
230
1.0
 0
LINE
 8
TOOL_0
 5
31
 10
3137.486
 20
105.378
 30
0
 11
3158.886
 21
105.378
 31
0
 0
LINE
 8
TOOL_0
 5
32
 10
3158.886
 20
105.378
 30
0
 11
3164.048
 21
105.378
 31
0
 0
LINE
 8
TOOL_0
 5
33
 10
3164.048
 20
105.378
 30
0
 11
4082.892
 21
302.878
 31
0
 0
LINE
 8
TOOL_0
 5
34
 10
4082.892
 20
302.878
 30
0
 11
4113.487
 21
302.878
 31
0
 0
LINE
 8
TOOL_0
 5
35
 10
4113.487
 20
302.878
 30
0
 11
4113.487
 21
415.378
 31
0
 0
ARC
 8
TOOL_0
 5
36
 10
4078.487
 20
415.378
 30
0
 40
35.0
 50
0
 51
90.0
210
0
220
0
230
1.0
 0
LINE
 8
TOOL_0
 5
37
 10
4078.487
 20
450.378
 30
0
 11
3923.487
 21
450.378
 31
0
 0
ARC
 8
TOOL_0
 5
38
 10
3923.487
 20
415.378
 30
0
 40
35.0
 50
90.0
 51
180.0
210
0
220
0
230
1.0
 0
LINE
 8
TOOL_0
 5
39
 10
3888.487
 20
415.378
 30
0
 11
3888.487
 21
190.378
 31
0
 0
ARC
 8
TOOL_0
 5
3A
 10
3923.487
 20
190.378
 30
0
 40
35.0
 50
180.0
 51
270.0
210
0
220
0
230
1.0
 0
LINE
 8
TOOL_0
 5
3B
 10
3923.487
 20
155.378
 30
0
 11
4078.487
 21
155.378
 31
0
 0
ARC
 8
TOOL_0
 5
3C
 10
4078.487
 20
190.378
 30
0
 40
35.0
 50
270.0
 51
0
210
0
220
0
230
1.0
 0
LINE
 8
TOOL_0
 5
3D
 10
4113.487
 20
190.378
 30
0
 11
4113.487
 21
302.878
 31
0
 0
LINE
 8
TOOL_0
 5
3E
 10
4113.487
 20
302.878
 30
0
 11
4110.031
 21
306.686
 31
0
 0
LINE
 8
TOOL_0
 5
3F
 10
4110.031
 20
306.686
 30
0
 11
4448.335
 21
282.878
 31
0
 0
LINE
 8
TOOL_0
 5
40
 10
4448.335
 20
282.878
 30
0
 11
4478.487
 21
282.878
 31
0
 0
LINE
 8
TOOL_0
 5
41
 10
4478.487
 20
282.878
 30
0
 11
4478.487
 21
415.378
 31
0
 0
ARC
 8
TOOL_0
 5
42
 10
4443.487
 20
415.378
 30
0
 40
35.0
 50
0
 51
90.0
210
0
220
0
230
1.0
 0
LINE
 8
TOOL_0
 5
43
 10
4443.487
 20
450.378
 30
0
 11
4288.487
 21
450.378
 31
0
 0
ARC
 8
TOOL_0
 5
44
 10
4288.487
 20
415.378
 30
0
 40
35.0
 50
90.0
 51
180.0
210
0
220
0
230
1.0
 0
LINE
 8
TOOL_0
 5
45
 10
4253.487
 20
415.378
 30
0
 11
4253.487
 21
150.378
 31
0
 0
ARC
 8
TOOL_0
 5
46
 10
4288.487
 20
150.378
 30
0
 40
35.0
 50
180.0
 51
270.0
210
0
220
0
230
1.0
 0
LINE
 8
TOOL_0
 5
47
 10
4288.487
 20
115.378
 30
0
 11
4443.487
 21
115.378
 31
0
 0
ARC
 8
TOOL_0
 5
48
 10
4443.487
 20
150.378
 30
0
 40
35.0
 50
270.0
 51
0
210
0
220
0
230
1.0
 0
LINE
 8
TOOL_0
 5
49
 10
4478.487
 20
150.378
 30
0
 11
4478.487
 21
282.878
 31
0
 0
LINE
 8
TOOL_0
 5
4A
 10
4478.487
 20
282.878
 30
0
 11
4476.012
 21
287.26
 31
0
 0
LINE
 8
TOOL_0
 5
4B
 10
4476.012
 20
287.26
 30
0
 11
4719.887
 21
135.801
 31
0
 0
LINE
 8
TOOL_0
 5
4C
 10
4719.887
 20
135.801
 30
0
 11
4719.887
 21
105.378
 31
0
 0
LINE
 8
TOOL_0
 5
4D
 10
4719.887
 20
105.378
 30
0
 11
4719.887
 21
50.364
 31
0
 0
LINE
 8
TOOL_0
 5
4E
 10
4719.887
 20
50.364
 30
0
 11
4708.901
 21
39.378
 31
0
 0
LINE
 8
TOOL_0
 5
4F
 10
4708.901
 20
39.378
 30
0
 11
4597.487
 21
39.378
 31
0
 0
ARC
 8
TOOL_0
 5
50
 10
4597.487
 20
31.378
 30
0
 40
8.0
 50
90.0
 51
180.0
210
0
220
0
230
1.0
 0
LINE
 8
TOOL_0
 5
51
 10
4589.487
 20
31.378
 30
0
 11
4589.487
 21
19.378
 31
0
 0
LINE
 8
TOOL_0
 5
52
 10
4589.487
 20
19.378
 30
0
 11
4118.487
 21
19.378
 31
0
 0
LINE
 8
TOOL_0
 5
53
 10
4118.487
 20
19.378
 30
0
 11
4118.487
 21
31.378
 31
0
 0
ARC
 8
TOOL_0
 5
54
 10
4110.487
 20
31.378
 30
0
 40
8.0
 50
0
 51
90.0
210
0
220
0
230
1.0
 0
LINE
 8
TOOL_0
 5
55
 10
4110.487
 20
39.378
 30
0
 11
3956.487
 21
39.378
 31
0
 0
ARC
 8
TOOL_0
 5
56
 10
3956.487
 20
31.378
 30
0
 40
8.0
 50
90.0
 51
180.0
210
0
220
0
230
1.0
 0
LINE
 8
TOOL_0
 5
57
 10
3948.487
 20
31.378
 30
0
 11
3948.487
 21
19.378
 31
0
 0
LINE
 8
TOOL_0
 5
58
 10
3948.487
 20
19.378
 30
0
 11
3422.487
 21
19.378
 31
0
 0
LINE
 8
TOOL_0
 5
59
 10
3422.487
 20
19.378
 30
0
 11
3422.487
 21
26.378
 31
0
 0
ARC
 8
TOOL_0
 5
5A
 10
3414.487
 20
26.378
 30
0
 40
8.0
 50
0
 51
90.0
210
0
220
0
230
1.0
 0
LINE
 8
TOOL_0
 5
5B
 10
3414.487
 20
34.378
 30
0
 11
3177.087
 21
34.378
 31
0
 0
LINE
 8
TOOL_0
 5
5C
 10
3177.087
 20
34.378
 30
0
 11
3177.087
 21
362.966
 31
0
 0
LINE
 8
TOOL_0
 5
5D
 10
3177.087
 20
362.966
 30
0
 11
3935.362
 21
615.378
 31
0
 0
LINE
 8
TOOL_0
 5
5E
 10
3935.362
 20
615.378
 30
0
 11
4440.2
 21
615.378
 31
0
 0
ARC
 8
TOOL_0
 5
5F
 10
4440.2
 20
515.378
 30
0
 40
100.0
 50
46.665781797872
 51
90.0
210
0
220
0
230
1.0
 0
LINE
 8
TOOL_0
 5
60
 10
4508.825
 20
588.114
 30
0
 11
4719.887
 21
388.982
 31
0
 0
LINE
 8
TOOL_0
 5
61
 10
4719.887
 20
388.982
 30
0
 11
4719.887
 21
265.378
 31
0
 0
LINE
 8
TOOL_0
 5
62
 10
4719.887
 20
265.378
 30
0
 11
4698.487
 21
265.378
 31
0
 0
ARC
 8
TOOL_0
 5
63
 10
4698.487
 20
185.378
 30
0
 40
80.0
 50
90.0
 51
270.0
210
0
220
0
230
1.0
 0
LINE
 8
TOOL_0
 5
64
 10
4698.487
 20
105.378
 30
0
 11
4719.887
 21
105.378
 31
0
 0
LINE
 8
TOOL_0
 5
65
 10
4719.887
 20
105.378
 30
0
 11
4725.049
 21
105.378
 31
0
 0
LINE
 8
TOOL_0
 5
66
 10
4725.049
 20
105.378
 30
0
 11
5644.296
 21
302.878
 31
0
 0
LINE
 8
TOOL_0
 5
67
 10
5644.296
 20
302.878
 30
0
 11
5674.89
 21
302.878
 31
0
 0
LINE
 8
TOOL_0
 5
68
 10
5674.89
 20
302.878
 30
0
 11
5674.89
 21
415.378
 31
0
 0
ARC
 8
TOOL_0
 5
69
 10
5639.89
 20
415.378
 30
0
 40
35.0
 50
0
 51
90.0
210
0
220
0
230
1.0
 0
LINE
 8
TOOL_0
 5
6A
 10
5639.89
 20
450.378
 30
0
 11
5484.89
 21
450.378
 31
0
 0
ARC
 8
TOOL_0
 5
6B
 10
5484.89
 20
415.378
 30
0
 40
35.0
 50
90.0
 51
180.0
210
0
220
0
230
1.0
 0
LINE
 8
TOOL_0
 5
6C
 10
5449.89
 20
415.378
 30
0
 11
5449.89
 21
190.378
 31
0
 0
ARC
 8
TOOL_0
 5
6D
 10
5484.89
 20
190.378
 30
0
 40
35.0
 50
180.0
 51
270.0
210
0
220
0
230
1.0
 0
LINE
 8
TOOL_0
 5
6E
 10
5484.89
 20
155.378
 30
0
 11
5639.89
 21
155.378
 31
0
 0
ARC
 8
TOOL_0
 5
6F
 10
5639.89
 20
190.378
 30
0
 40
35.0
 50
270.0
 51
0
210
0
220
0
230
1.0
 0
LINE
 8
TOOL_0
 5
70
 10
5674.89
 20
190.378
 30
0
 11
5674.89
 21
302.878
 31
0
 0
LINE
 8
TOOL_0
 5
71
 10
5674.89
 20
302.878
 30
0
 11
5671.434
 21
306.686
 31
0
 0
LINE
 8
TOOL_0
 5
72
 10
5671.434
 20
306.686
 30
0
 11
6009.738
 21
282.878
 31
0
 0
LINE
 8
TOOL_0
 5
73
 10
6009.738
 20
282.878
 30
0
 11
6039.89
 21
282.878
 31
0
 0
LINE
 8
TOOL_0
 5
74
 10
6039.89
 20
282.878
 30
0
 11
6039.89
 21
415.378
 31
0
 0
ARC
 8
TOOL_0
 5
75
 10
6004.89
 20
415.378
 30
0
 40
35.0
 50
0
 51
90.0
210
0
220
0
230
1.0
 0
LINE
 8
TOOL_0
 5
76
 10
6004.89
 20
450.378
 30
0
 11
5849.89
 21
450.378
 31
0
 0
ARC
 8
TOOL_0
 5
77
 10
5849.89
 20
415.378
 30
0
 40
35.0
 50
90.0
 51
180.0
210
0
220
0
230
1.0
 0
LINE
 8
TOOL_0
 5
78
 10
5814.89
 20
415.378
 30
0
 11
5814.89
 21
150.378
 31
0
 0
ARC
 8
TOOL_0
 5
79
 10
5849.89
 20
150.378
 30
0
 40
35.0
 50
180.0
 51
270.0
210
0
220
0
230
1.0
 0
LINE
 8
TOOL_0
 5
7A
 10
5849.89
 20
115.378
 30
0
 11
6004.89
 21
115.378
 31
0
 0
ARC
 8
TOOL_0
 5
7B
 10
6004.89
 20
150.378
 30
0
 40
35.0
 50
270.0
 51
0
210
0
220
0
230
1.0
 0
LINE
 8
TOOL_0
 5
7C
 10
6039.89
 20
150.378
 30
0
 11
6039.89
 21
282.878
 31
0
 0
LINE
 8
TOOL_0
 5
7D
 10
6039.89
 20
282.878
 30
0
 11
6037.415
 21
287.26
 31
0
 0
LINE
 8
TOOL_0
 5
7E
 10
6037.415
 20
287.26
 30
0
 11
6281.29
 21
135.801
 31
0
 0
LINE
 8
TOOL_0
 5
7F
 10
6281.29
 20
135.801
 30
0
 11
6281.29
 21
105.378
 31
0
 0
LINE
 8
TOOL_0
 5
80
 10
6281.29
 20
105.378
 30
0
 11
6281.29
 21
50.364
 31
0
 0
LINE
 8
TOOL_0
 5
81
 10
6281.29
 20
50.364
 30
0
 11
6270.304
 21
39.378
 31
0
 0
LINE
 8
TOOL_0
 5
82
 10
6270.304
 20
39.378
 30
0
 11
6158.89
 21
39.378
 31
0
 0
ARC
 8
TOOL_0
 5
83
 10
6158.89
 20
31.378
 30
0
 40
8.0
 50
90.0
 51
180.0
210
0
220
0
230
1.0
 0
LINE
 8
TOOL_0
 5
84
 10
6150.89
 20
31.378
 30
0
 11
6150.89
 21
19.378
 31
0
 0
LINE
 8
TOOL_0
 5
85
 10
6150.89
 20
19.378
 30
0
 11
5679.89
 21
19.378
 31
0
 0
LINE
 8
TOOL_0
 5
86
 10
5679.89
 20
19.378
 30
0
 11
5679.89
 21
31.378
 31
0
 0
ARC
 8
TOOL_0
 5
87
 10
5671.89
 20
31.378
 30
0
 40
8.0
 50
0
 51
90.0
210
0
220
0
230
1.0
 0
LINE
 8
TOOL_0
 5
88
 10
5671.89
 20
39.378
 30
0
 11
5517.89
 21
39.378
 31
0
 0
ARC
 8
TOOL_0
 5
89
 10
5517.89
 20
31.378
 30
0
 40
8.0
 50
90.0
 51
180.0
210
0
220
0
230
1.0
 0
LINE
 8
TOOL_0
 5
8A
 10
5509.89
 20
31.378
 30
0
 11
5509.89
 21
19.378
 31
0
 0
LINE
 8
TOOL_0
 5
8B
 10
5509.89
 20
19.378
 30
0
 11
4983.89
 21
19.378
 31
0
 0
LINE
 8
TOOL_0
 5
8C
 10
4983.89
 20
19.378
 30
0
 11
4983.89
 21
26.378
 31
0
 0
ARC
 8
TOOL_0
 5
8D
 10
4975.89
 20
26.378
 30
0
 40
8.0
 50
0
 51
90.0
210
0
220
0
230
1.0
 0
LINE
 8
TOOL_0
 5
8E
 10
4975.89
 20
34.378
 30
0
 11
4738.49
 21
34.378
 31
0
 0
LINE
 8
TOOL_0
 5
8F
 10
4738.49
 20
34.378
 30
0
 11
4738.49
 21
362.966
 31
0
 0
LINE
 8
TOOL_0
 5
90
 10
4738.49
 20
362.966
 30
0
 11
5496.765
 21
615.378
 31
0
 0
LINE
 8
TOOL_0
 5
91
 10
5496.765
 20
615.378
 30
0
 11
6001.603
 21
615.378
 31
0
 0
ARC
 8
TOOL_0
 5
92
 10
6001.603
 20
515.378
 30
0
 40
100.0
 50
46.665781797872
 51
90.0
210
0
220
0
230
1.0
 0
LINE
 8
TOOL_0
 5
93
 10
6070.228
 20
588.114
 30
0
 11
6281.29
 21
388.982
 31
0
 0
LINE
 8
TOOL_0
 5
94
 10
6281.29
 20
388.982
 30
0
 11
6281.29
 21
265.378
 31
0
 0
LINE
 8
TOOL_0
 5
95
 10
6281.29
 20
265.378
 30
0
 11
6259.89
 21
265.378
 31
0
 0
ARC
 8
TOOL_0
 5
96
 10
6259.89
 20
185.378
 30
0
 40
80.0
 50
90.0
 51
270.0
210
0
220
0
230
1.0
 0
LINE
 8
TOOL_0
 5
97
 10
6259.89
 20
105.378
 30
0
 11
6281.29
 21
105.378
 31
0
 0
LINE
 8
TOOL_0
 5
98
 10
6281.29
 20
105.378
 30
0
 11
6286.452
 21
105.378
 31
0
 0
LINE
 8
TOOL_0
 5
99
 10
6286.452
 20
105.378
 30
0
 11
6286.452
 21
0
 31
0
 0
LINE
 8
TOOL_0
 5
9A
 10
6286.452
 20
0
 30
0
 11
926.947
 21
1548.136
 31
0
 0
LINE
 8
TOOL_0
 5
9B
 10
926.947
 20
1548.136
 30
0
 11
957.541
 21
1548.136
 31
0
 0
LINE
 8
TOOL_0
 5
9C
 10
957.541
 20
1548.136
 30
0
 11
957.541
 21
1660.636
 31
0
 0
ARC
 8
TOOL_0
 5
9D
 10
922.541
 20
1660.636
 30
0
 40
35.0
 50
0
 51
90.0
210
0
220
0
230
1.0
 0
LINE
 8
TOOL_0
 5
9E
 10
922.541
 20
1695.636
 30
0
 11
767.541
 21
1695.636
 31
0
 0
ARC
 8
TOOL_0
 5
9F
 10
767.541
 20
1660.636
 30
0
 40
35.0
 50
90.0
 51
180.0
210
0
220
0
230
1.0
 0
LINE
 8
TOOL_0
 5
A0
 10
732.541
 20
1660.636
 30
0
 11
732.541
 21
1435.636
 31
0
 0
ARC
 8
TOOL_0
 5
A1
 10
767.541
 20
1435.636
 30
0
 40
35.0
 50
180.0
 51
270.0
210
0
220
0
230
1.0
 0
LINE
 8
TOOL_0
 5
A2
 10
767.541
 20
1400.636
 30
0
 11
922.541
 21
1400.636
 31
0
 0
ARC
 8
TOOL_0
 5
A3
 10
922.541
 20
1435.636
 30
0
 40
35.0
 50
270.0
 51
0
210
0
220
0
230
1.0
 0
LINE
 8
TOOL_0
 5
A4
 10
957.541
 20
1435.636
 30
0
 11
957.541
 21
1548.136
 31
0
 0
LINE
 8
TOOL_0
 5
A5
 10
957.541
 20
1548.136
 30
0
 11
954.085
 21
1551.944
 31
0
 0
LINE
 8
TOOL_0
 5
A6
 10
954.085
 20
1551.944
 30
0
 11
1292.389
 21
1528.135
 31
0
 0
LINE
 8
TOOL_0
 5
A7
 10
1292.389
 20
1528.135
 30
0
 11
1322.541
 21
1528.135
 31
0
 0
LINE
 8
TOOL_0
 5
A8
 10
1322.541
 20
1528.135
 30
0
 11
1322.541
 21
1660.635
 31
0
 0
ARC
 8
TOOL_0
 5
A9
 10
1287.541
 20
1660.635
 30
0
 40
35.0
 50
0
 51
90.0
210
0
220
0
230
1.0
 0
LINE
 8
TOOL_0
 5
AA
 10
1287.541
 20
1695.635
 30
0
 11
1132.541
 21
1695.635
 31
0
 0
ARC
 8
TOOL_0
 5
AB
 10
1132.541
 20
1660.635
 30
0
 40
35.0
 50
90.0
 51
180.0
210
0
220
0
230
1.0
 0
LINE
 8
TOOL_0
 5
AC
 10
1097.541
 20
1660.635
 30
0
 11
1097.541
 21
1395.635
 31
0
 0
ARC
 8
TOOL_0
 5
AD
 10
1132.541
 20
1395.635
 30
0
 40
35.0
 50
180.0
 51
270.0
210
0
220
0
230
1.0
 0
LINE
 8
TOOL_0
 5
AE
 10
1132.541
 20
1360.635
 30
0
 11
1287.541
 21
1360.635
 31
0
 0
ARC
 8
TOOL_0
 5
AF
 10
1287.541
 20
1395.635
 30
0
 40
35.0
 50
270.0
 51
0
210
0
220
0
230
1.0
 0
LINE
 8
TOOL_0
 5
B0
 10
1322.541
 20
1395.635
 30
0
 11
1322.541
 21
1528.135
 31
0
 0
LINE
 8
TOOL_0
 5
B1
 10
1322.541
 20
1528.135
 30
0
 11
1320.066
 21
1532.517
 31
0
 0
LINE
 8
TOOL_0
 5
B2
 10
1320.066
 20
1532.517
 30
0
 11
1563.941
 21
1381.058
 31
0
 0
LINE
 8
TOOL_0
 5
B3
 10
1563.941
 20
1381.058
 30
0
 11
1563.941
 21
1350.635
 31
0
 0
LINE
 8
TOOL_0
 5
B4
 10
1563.941
 20
1350.635
 30
0
 11
1563.941
 21
1295.621
 31
0
 0
LINE
 8
TOOL_0
 5
B5
 10
1563.941
 20
1295.621
 30
0
 11
1552.955
 21
1284.635
 31
0
 0
LINE
 8
TOOL_0
 5
B6
 10
1552.955
 20
1284.635
 30
0
 11
1441.541
 21
1284.635
 31
0
 0
ARC
 8
TOOL_0
 5
B7
 10
1441.541
 20
1276.635
 30
0
 40
8.0
 50
90.0
 51
180.0
210
0
220
0
230
1.0
 0
LINE
 8
TOOL_0
 5
B8
 10
1433.541
 20
1276.635
 30
0
 11
1433.541
 21
1264.635
 31
0
 0
LINE
 8
TOOL_0
 5
B9
 10
1433.541
 20
1264.635
 30
0
 11
962.541
 21
1264.635
 31
0
 0
LINE
 8
TOOL_0
 5
BA
 10
962.541
 20
1264.635
 30
0
 11
962.541
 21
1276.635
 31
0
 0
ARC
 8
TOOL_0
 5
BB
 10
954.541
 20
1276.635
 30
0
 40
8.0
 50
0
 51
90.0
210
0
220
0
230
1.0
 0
LINE
 8
TOOL_0
 5
BC
 10
954.541
 20
1284.635
 30
0
 11
800.541
 21
1284.635
 31
0
 0
ARC
 8
TOOL_0
 5
BD
 10
800.541
 20
1276.635
 30
0
 40
8.0
 50
90.0
 51
180.0
210
0
220
0
230
1.0
 0
LINE
 8
TOOL_0
 5
BE
 10
792.541
 20
1276.635
 30
0
 11
792.541
 21
1264.635
 31
0
 0
LINE
 8
TOOL_0
 5
BF
 10
792.541
 20
1264.635
 30
0
 11
266.541
 21
1264.635
 31
0
 0
LINE
 8
TOOL_0
 5
C0
 10
266.541
 20
1264.635
 30
0
 11
266.541
 21
1271.635
 31
0
 0
ARC
 8
TOOL_0
 5
C1
 10
258.541
 20
1271.635
 30
0
 40
8.0
 50
0
 51
90.0
210
0
220
0
230
1.0
 0
LINE
 8
TOOL_0
 5
C2
 10
258.541
 20
1279.635
 30
0
 11
21.141
 21
1279.635
 31
0
 0
LINE
 8
TOOL_0
 5
C3
 10
21.141
 20
1279.635
 30
0
 11
21.141
 21
1608.223
 31
0
 0
LINE
 8
TOOL_0
 5
C4
 10
21.141
 20
1608.223
 30
0
 11
779.416
 21
1860.635
 31
0
 0
LINE
 8
TOOL_0
 5
C5
 10
779.416
 20
1860.635
 30
0
 11
1284.254
 21
1860.635
 31
0
 0
ARC
 8
TOOL_0
 5
C6
 10
1284.254
 20
1760.635
 30
0
 40
100.0
 50
46.665781797872
 51
90.0
210
0
220
0
230
1.0
 0
LINE
 8
TOOL_0
 5
C7
 10
1352.879
 20
1833.371
 30
0
 11
1563.941
 21
1634.239
 31
0
 0
LINE
 8
TOOL_0
 5
C8
 10
1563.941
 20
1634.239
 30
0
 11
1563.941
 21
1510.635
 31
0
 0
LINE
 8
TOOL_0
 5
C9
 10
1563.941
 20
1510.635
 30
0
 11
1542.541
 21
1510.635
 31
0
 0
ARC
 8
TOOL_0
 5
CA
 10
1542.541
 20
1430.635
 30
0
 40
80.0
 50
90.0
 51
270.0
210
0
220
0
230
1.0
 0
LINE
 8
TOOL_0
 5
CB
 10
1542.541
 20
1350.635
 30
0
 11
1563.941
 21
1350.635
 31
0
 0
LINE
 8
TOOL_0
 5
CC
 10
1563.941
 20
1350.635
 30
0
 11
1569.103
 21
1350.635
 31
0
 0
ENDSEC
 0
EOF

