0
SECTION
2
TABLES
0
TABLE
2
LAYER
70
0
0
LAYER
2
LAYER_NAME
70
0
62
1
6
CONTINUOUS
0
ENDTAB
0
ENDSEC
 0
SECTION
 2
ENTITIES
 0
LINE
 8
TOOL_0
 5
1
 10
79.417
 20
419.819
 30
0
 11
84.347
 21
448.986
 31
0
 0
ARC
 8
TOOL_0
 5
2
 10
79.417
 20
449.819
 30
0
 40
4.999878898533
 50
350.409571175907
 51
90.0
210
0
220
0
230
1.0
 0
ARC
 8
TOOL_0
 5
3
 10
79.417
 20
430.819
 30
0
 40
24.0
 50
90.0
 51
180.0
210
0
220
0
230
1.0
 0
LINE
 8
TOOL_0
 5
4
 10
55.417
 20
430.819
 30
0
 11
55.417
 21
413.819
 31
0
 0
ARC
 8
TOOL_0
 5
5
 10
79.417
 20
413.819
 30
0
 40
24.0
 50
180.0
 51
0
210
0
220
0
230
1.0
 0
LINE
 8
TOOL_0
 5
6
 10
103.417
 20
413.819
 30
0
 11
103.417
 21
430.819
 31
0
 0
ARC
 8
TOOL_0
 5
7
 10
79.417
 20
430.819
 30
0
 40
24.0
 50
0
 51
90.0
210
0
220
0
230
1.0
 0
LINE
 8
TOOL_0
 5
8
 10
79.417
 20
454.819
 30
0
 11
68.81
 21
444.212
 31
0
 0
LINE
 8
TOOL_0
 5
9
 10
68.81
 20
444.212
 30
0
 11
219.417
 21
422.319
 31
0
 0
LINE
 8
TOOL_0
 5
A
 10
219.417
 20
422.319
 30
0
 11
239.417
 21
418.938
 31
0
 0
ARC
 8
TOOL_0
 5
B
 10
239.988
 20
422.319
 30
0
 40
3.428877658943
 50
260.414059530604
 51
0
210
0
220
0
230
1.0
 0
ARC
 8
TOOL_0
 5
C
 10
219.417
 20
422.319
 30
0
 40
24.0
 50
0
 51
180.0
210
0
220
0
230
1.0
 0
ARC
 8
TOOL_0
 5
D
 10
219.417
 20
422.319
 30
0
 40
24.0
 50
180.0
 51
0
210
0
220
0
230
1.0
 0
LINE
 8
TOOL_0
 5
E
 10
243.417
 20
422.319
 30
0
 11
236.144
 21
429.592
 31
0
 0
LINE
 8
TOOL_0
 5
F
 10
236.144
 20
429.592
 30
0
 11
1124.417
 21
419.819
 31
0
 0
LINE
 8
TOOL_0
 5
10
 10
1124.417
 20
419.819
 30
0
 11
1129.347
 21
448.986
 31
0
 0
ARC
 8
TOOL_0
 5
11
 10
1124.417
 20
449.819
 30
0
 40
4.999878898534
 50
350.409571175907
 51
90.0
210
0
220
0
230
1.0
 0
ARC
 8
TOOL_0
 5
12
 10
1124.417
 20
430.819
 30
0
 40
24.0
 50
90.0
 51
180.0
210
0
220
0
230
1.0
 0
LINE
 8
TOOL_0
 5
13
 10
1100.417
 20
430.819
 30
0
 11
1100.417
 21
413.819
 31
0
 0
ARC
 8
TOOL_0
 5
14
 10
1124.417
 20
413.819
 30
0
 40
24.0
 50
180.0
 51
0
210
0
220
0
230
1.0
 0
LINE
 8
TOOL_0
 5
15
 10
1148.417
 20
413.819
 30
0
 11
1148.417
 21
430.819
 31
0
 0
ARC
 8
TOOL_0
 5
16
 10
1124.417
 20
430.819
 30
0
 40
24.0
 50
0
 51
90.0
210
0
220
0
230
1.0
 0
LINE
 8
TOOL_0
 5
17
 10
1124.417
 20
454.819
 30
0
 11
1113.81
 21
444.212
 31
0
 0
LINE
 8
TOOL_0
 5
18
 10
1113.81
 20
444.212
 30
0
 11
1294.417
 21
422.319
 31
0
 0
LINE
 8
TOOL_0
 5
19
 10
1294.417
 20
422.319
 30
0
 11
1314.417
 21
418.938
 31
0
 0
ARC
 8
TOOL_0
 5
1A
 10
1314.988
 20
422.319
 30
0
 40
3.428877658943
 50
260.414059530605
 51
0
210
0
220
0
230
1.0
 0
ARC
 8
TOOL_0
 5
1B
 10
1294.417
 20
422.319
 30
0
 40
24.0
 50
0
 51
180.0
210
0
220
0
230
1.0
 0
ARC
 8
TOOL_0
 5
1C
 10
1294.417
 20
422.319
 30
0
 40
24.0
 50
180.0
 51
0
210
0
220
0
230
1.0
 0
LINE
 8
TOOL_0
 5
1D
 10
1318.417
 20
422.319
 30
0
 11
1311.144
 21
429.592
 31
0
 0
LINE
 8
TOOL_0
 5
1E
 10
1311.144
 20
429.592
 30
0
 11
1557.014
 21
348.748
 31
0
 0
LINE
 8
TOOL_0
 5
1F
 10
1557.014
 20
348.748
 30
0
 11
1525.865
 21
348.748
 31
0
 0
LINE
 8
TOOL_0
 5
20
 10
1525.865
 20
348.748
 30
0
 11
1524.316
 21
351.319
 31
0
 0
LINE
 8
TOOL_0
 5
21
 10
1524.316
 20
351.319
 30
0
 11
38.016
 21
351.319
 31
0
 0
ARC
 8
TOOL_0
 5
22
 10
38.016
 20
371.319
 30
0
 40
20.0
 50
180.0
 51
270.0
210
0
220
0
230
1.0
 0
LINE
 8
TOOL_0
 5
23
 10
18.016
 20
371.319
 30
0
 11
18.016
 21
708.319
 31
0
 0
LINE
 8
TOOL_0
 5
24
 10
18.016
 20
708.319
 30
0
 11
1545.816
 21
708.319
 31
0
 0
LINE
 8
TOOL_0
 5
25
 10
1545.816
 20
708.319
 30
0
 11
1545.816
 21
371.319
 31
0
 0
ARC
 8
TOOL_0
 5
26
 10
1525.816
 20
371.319
 30
0
 40
20.0
 50
274.298294862911
 51
0
210
0
220
0
230
1.0
 0
LINE
 8
TOOL_0
 5
27
 10
1527.315
 20
351.375
 30
0
 11
1525.864
 21
348.747
 31
0
 0
LINE
 8
TOOL_0
 5
28
 10
1525.864
 20
348.747
 30
0
 11
1522.018
 21
345.536
 31
0
 0
LINE
 8
TOOL_0
 5
29
 10
1522.018
 20
345.536
 30
0
 11
1628.637
 21
333.048
 31
0
 0
LINE
 8
TOOL_0
 5
2A
 10
1628.637
 20
333.048
 30
0
 11
1628.637
 21
334.048
 31
0
 0
LINE
 8
TOOL_0
 5
2B
 10
1628.637
 20
334.048
 30
0
 11
1628.637
 21
-0.001
 31
0
 0
LINE
 8
TOOL_0
 5
2C
 10
1628.637
 20
-0.001
 30
0
 11
1628.637
 21
333.048
 31
0
 0
LINE
 8
TOOL_0
 5
2D
 10
1628.637
 20
333.048
 30
0
 11
1628.637
 21
334.048
 31
0
 0
LINE
 8
TOOL_0
 5
2E
 10
1628.637
 20
334.048
 30
0
 11
1628.637
 21
1135.255
 31
0
 0
LINE
 8
TOOL_0
 5
2F
 10
1628.637
 20
1135.255
 30
0
 11
378.173
 21
1135.255
 31
0
 0
LINE
 8
TOOL_0
 5
30
 10
378.173
 20
1135.255
 30
0
 11
377.173
 21
1135.255
 31
0
 0
ENDSEC
 0
EOF

