0
SECTION
2
TABLES
0
TABLE
2
LAYER
70
0
0
LAYER
2
LAYER_NAME
70
0
62
1
6
CONTINUOUS
0
ENDTAB
0
ENDSEC
 0
SECTION
 2
ENTITIES
 0
LINE
 8
TOOL_0
 5
1
 10
1011.886
 20
120.298
 30
0
 11
1041.75
 21
120.251
 31
0
 0
ARC
 8
TOOL_0
 5
2
 10
1006.75
 20
120.251
 30
0
 40
35.0
 50
0
 51
180.0
210
0
220
0
230
1.0
 0
ARC
 8
TOOL_0
 5
3
 10
1006.75
 20
120.251
 30
0
 40
35.0
 50
180.0
 51
0
210
0
220
0
230
1.0
 0
LINE
 8
TOOL_0
 5
4
 10
1041.75
 20
120.251
 30
0
 11
1039.804
 21
124.889
 31
0
 0
LINE
 8
TOOL_0
 5
5
 10
1039.804
 20
124.889
 30
0
 11
691.75
 21
1160.251
 31
0
 0
LINE
 8
TOOL_0
 5
6
 10
691.75
 20
1160.251
 30
0
 11
726.75
 21
1160.251
 31
0
 0
ARC
 8
TOOL_0
 5
7
 10
691.75
 20
1160.251
 30
0
 40
35.0
 50
0
 51
180.0
210
0
220
0
230
1.0
 0
ARC
 8
TOOL_0
 5
8
 10
691.75
 20
1160.251
 30
0
 40
35.0
 50
180.0
 51
0
210
0
220
0
230
1.0
 0
LINE
 8
TOOL_0
 5
9
 10
726.75
 20
1160.251
 30
0
 11
716.143
 21
1170.858
 31
0
 0
LINE
 8
TOOL_0
 5
A
 10
716.143
 20
1170.858
 30
0
 11
2156.75
 21
1160.251
 31
0
 0
LINE
 8
TOOL_0
 5
B
 10
2156.75
 20
1160.251
 30
0
 11
2191.75
 21
1160.251
 31
0
 0
ARC
 8
TOOL_0
 5
C
 10
2156.75
 20
1160.251
 30
0
 40
35.0
 50
0
 51
180.0
210
0
220
0
230
1.0
 0
ARC
 8
TOOL_0
 5
D
 10
2156.75
 20
1160.251
 30
0
 40
35.0
 50
180.0
 51
0
210
0
220
0
230
1.0
 0
LINE
 8
TOOL_0
 5
E
 10
2191.75
 20
1160.251
 30
0
 11
2181.143
 21
1170.858
 31
0
 0
LINE
 8
TOOL_0
 5
F
 10
2181.143
 20
1170.858
 30
0
 11
3306.75
 21
120.251
 31
0
 0
LINE
 8
TOOL_0
 5
10
 10
3306.75
 20
120.251
 30
0
 11
3341.75
 21
120.251
 31
0
 0
ARC
 8
TOOL_0
 5
11
 10
3306.75
 20
120.251
 30
0
 40
35.0
 50
0
 51
180.0
210
0
220
0
230
1.0
 0
ARC
 8
TOOL_0
 5
12
 10
3306.75
 20
120.251
 30
0
 40
35.0
 50
180.0
 51
0
210
0
220
0
230
1.0
 0
LINE
 8
TOOL_0
 5
13
 10
3341.75
 20
120.251
 30
0
 11
3331.143
 21
130.858
 31
0
 0
LINE
 8
TOOL_0
 5
14
 10
3331.143
 20
130.858
 30
0
 11
3621.75
 21
1160.251
 31
0
 0
LINE
 8
TOOL_0
 5
15
 10
3621.75
 20
1160.251
 30
0
 11
3656.75
 21
1160.251
 31
0
 0
ARC
 8
TOOL_0
 5
16
 10
3621.75
 20
1160.251
 30
0
 40
35.0
 50
0
 51
180.0
210
0
220
0
230
1.0
 0
ARC
 8
TOOL_0
 5
17
 10
3621.75
 20
1160.251
 30
0
 40
35.0
 50
180.0
 51
0
210
0
220
0
230
1.0
 0
LINE
 8
TOOL_0
 5
18
 10
3656.75
 20
1160.251
 30
0
 11
3646.143
 21
1170.858
 31
0
 0
LINE
 8
TOOL_0
 5
19
 10
3646.143
 20
1170.858
 30
0
 11
3712.937
 21
44.542
 31
0
 0
LINE
 8
TOOL_0
 5
1A
 10
3712.937
 20
44.542
 30
0
 11
3712.72
 21
16.144
 31
0
 0
LINE
 8
TOOL_0
 5
1B
 10
3712.72
 20
16.144
 30
0
 11
3671.778
 21
16.667
 31
0
 0
LINE
 8
TOOL_0
 5
1C
 10
3671.778
 20
16.667
 30
0
 11
3670.25
 21
19.251
 31
0
 0
LINE
 8
TOOL_0
 5
1D
 10
3670.25
 20
19.251
 30
0
 11
641.75
 21
19.251
 31
0
 0
ARC
 8
TOOL_0
 5
1E
 10
641.75
 20
54.251
 30
0
 40
35.0
 50
180.0
 51
270.0
210
0
220
0
230
1.0
 0
LINE
 8
TOOL_0
 5
1F
 10
606.75
 20
54.251
 30
0
 11
606.75
 21
847.751
 31
0
 0
ARC
 8
TOOL_0
 5
20
 10
543.75
 20
847.751
 30
0
 40
63.0
 50
0
 51
45.0
210
0
220
0
230
1.0
 0
LINE
 8
TOOL_0
 5
21
 10
588.298
 20
892.299
 30
0
 11
560.798
 21
919.799
 31
0
 0
ARC
 8
TOOL_0
 5
22
 10
516.25
 20
875.251
 30
0
 40
63.000385776597
 50
45.0
 51
90.0
210
0
220
0
230
1.0
 0
LINE
 8
TOOL_0
 5
23
 10
516.25
 20
938.251
 30
0
 11
29.25
 21
938.251
 31
0
 0
LINE
 8
TOOL_0
 5
24
 10
29.25
 20
938.251
 30
0
 11
29.25
 21
1460.251
 31
0
 0
LINE
 8
TOOL_0
 5
25
 10
29.25
 20
1460.251
 30
0
 11
19.25
 21
1460.251
 31
0
 0
LINE
 8
TOOL_0
 5
26
 10
19.25
 20
1460.251
 30
0
 11
19.25
 21
1568.251
 31
0
 0
LINE
 8
TOOL_0
 5
27
 10
19.25
 20
1568.251
 30
0
 11
4294.25
 21
1568.251
 31
0
 0
LINE
 8
TOOL_0
 5
28
 10
4294.25
 20
1568.251
 30
0
 11
4294.25
 21
1460.251
 31
0
 0
LINE
 8
TOOL_0
 5
29
 10
4294.25
 20
1460.251
 30
0
 11
4284.25
 21
1460.251
 31
0
 0
LINE
 8
TOOL_0
 5
2A
 10
4284.25
 20
1460.251
 30
0
 11
4284.25
 21
938.251
 31
0
 0
LINE
 8
TOOL_0
 5
2B
 10
4284.25
 20
938.251
 30
0
 11
3797.25
 21
938.251
 31
0
 0
ARC
 8
TOOL_0
 5
2C
 10
3797.25
 20
875.251
 30
0
 40
63.0
 50
90.0
 51
135.0
210
0
220
0
230
1.0
 0
LINE
 8
TOOL_0
 5
2D
 10
3752.702
 20
919.799
 30
0
 11
3725.202
 21
892.299
 31
0
 0
ARC
 8
TOOL_0
 5
2E
 10
3769.75
 20
847.751
 30
0
 40
63.000385776597
 50
135.0
 51
180.0
210
0
220
0
230
1.0
 0
LINE
 8
TOOL_0
 5
2F
 10
3706.75
 20
847.751
 30
0
 11
3706.75
 21
54.251
 31
0
 0
ARC
 8
TOOL_0
 5
30
 10
3671.75
 20
54.251
 30
0
 40
35.0
 50
272.456274664598
 51
0
210
0
220
0
230
1.0
 0
LINE
 8
TOOL_0
 5
31
 10
3673.25
 20
19.283
 30
0
 11
3671.778
 21
16.667
 31
0
 0
LINE
 8
TOOL_0
 5
32
 10
3671.778
 20
16.667
 30
0
 11
3666.745
 21
15.67
 31
0
 0
LINE
 8
TOOL_0
 5
33
 10
3666.745
 20
15.67
 30
0
 11
4707.824
 21
1467.251
 31
0
 0
LINE
 8
TOOL_0
 5
34
 10
4707.824
 20
1467.251
 30
0
 11
4742.824
 21
1467.251
 31
0
 0
ARC
 8
TOOL_0
 5
35
 10
4707.824
 20
1467.251
 30
0
 40
35.0
 50
0
 51
180.0
210
0
220
0
230
1.0
 0
ARC
 8
TOOL_0
 5
36
 10
4707.824
 20
1467.251
 30
0
 40
35.0
 50
180.0
 51
0
210
0
220
0
230
1.0
 0
LINE
 8
TOOL_0
 5
37
 10
4742.824
 20
1467.251
 30
0
 11
4732.217
 21
1477.858
 31
0
 0
LINE
 8
TOOL_0
 5
38
 10
4732.217
 20
1477.858
 30
0
 11
4392.824
 21
427.251
 31
0
 0
LINE
 8
TOOL_0
 5
39
 10
4392.824
 20
427.251
 30
0
 11
4427.824
 21
427.251
 31
0
 0
ARC
 8
TOOL_0
 5
3A
 10
4392.824
 20
427.251
 30
0
 40
35.0
 50
0
 51
180.0
210
0
220
0
230
1.0
 0
ARC
 8
TOOL_0
 5
3B
 10
4392.824
 20
427.251
 30
0
 40
35.0
 50
180.0
 51
0
210
0
220
0
230
1.0
 0
LINE
 8
TOOL_0
 5
3C
 10
4427.824
 20
427.251
 30
0
 11
4417.217
 21
437.858
 31
0
 0
LINE
 8
TOOL_0
 5
3D
 10
4417.217
 20
437.858
 30
0
 11
5857.824
 21
427.251
 31
0
 0
LINE
 8
TOOL_0
 5
3E
 10
5857.824
 20
427.251
 30
0
 11
5892.824
 21
427.251
 31
0
 0
ARC
 8
TOOL_0
 5
3F
 10
5857.824
 20
427.251
 30
0
 40
35.0
 50
0
 51
180.0
210
0
220
0
230
1.0
 0
ARC
 8
TOOL_0
 5
40
 10
5857.824
 20
427.251
 30
0
 40
35.0
 50
180.0
 51
0
210
0
220
0
230
1.0
 0
LINE
 8
TOOL_0
 5
41
 10
5892.824
 20
427.251
 30
0
 11
5882.217
 21
437.858
 31
0
 0
LINE
 8
TOOL_0
 5
42
 10
5882.217
 20
437.858
 30
0
 11
7007.824
 21
1467.251
 31
0
 0
LINE
 8
TOOL_0
 5
43
 10
7007.824
 20
1467.251
 30
0
 11
7042.824
 21
1467.251
 31
0
 0
ARC
 8
TOOL_0
 5
44
 10
7007.824
 20
1467.251
 30
0
 40
35.0
 50
0
 51
180.0
210
0
220
0
230
1.0
 0
ARC
 8
TOOL_0
 5
45
 10
7007.824
 20
1467.251
 30
0
 40
35.0
 50
180.0
 51
0
210
0
220
0
230
1.0
 0
LINE
 8
TOOL_0
 5
46
 10
7042.824
 20
1467.251
 30
0
 11
7032.217
 21
1477.858
 31
0
 0
LINE
 8
TOOL_0
 5
47
 10
7032.217
 20
1477.858
 30
0
 11
7322.824
 21
427.251
 31
0
 0
LINE
 8
TOOL_0
 5
48
 10
7322.824
 20
427.251
 30
0
 11
7357.824
 21
427.251
 31
0
 0
ARC
 8
TOOL_0
 5
49
 10
7322.824
 20
427.251
 30
0
 40
35.0
 50
0
 51
180.0
210
0
220
0
230
1.0
 0
ARC
 8
TOOL_0
 5
4A
 10
7322.824
 20
427.251
 30
0
 40
35.0
 50
180.0
 51
0
210
0
220
0
230
1.0
 0
LINE
 8
TOOL_0
 5
4B
 10
7357.824
 20
427.251
 30
0
 11
7347.217
 21
437.858
 31
0
 0
LINE
 8
TOOL_0
 5
4C
 10
7347.217
 20
437.858
 30
0
 11
8006.23
 21
48.287
 31
0
 0
LINE
 8
TOOL_0
 5
4D
 10
8006.23
 20
48.287
 30
0
 11
8006.23
 21
18.914
 31
0
 0
LINE
 8
TOOL_0
 5
4E
 10
8006.23
 20
18.914
 30
0
 11
7995.324
 21
19.251
 31
0
 0
LINE
 8
TOOL_0
 5
4F
 10
7995.324
 20
19.251
 30
0
 11
3720.324
 21
19.251
 31
0
 0
LINE
 8
TOOL_0
 5
50
 10
3720.324
 20
19.251
 30
0
 11
3720.324
 21
127.251
 31
0
 0
LINE
 8
TOOL_0
 5
51
 10
3720.324
 20
127.251
 30
0
 11
3730.324
 21
127.251
 31
0
 0
LINE
 8
TOOL_0
 5
52
 10
3730.324
 20
127.251
 30
0
 11
3730.324
 21
649.251
 31
0
 0
LINE
 8
TOOL_0
 5
53
 10
3730.324
 20
649.251
 30
0
 11
4217.324
 21
649.251
 31
0
 0
ARC
 8
TOOL_0
 5
54
 10
4217.324
 20
712.251
 30
0
 40
63.0
 50
270.0
 51
314.999356913637
210
0
220
0
230
1.0
 0
LINE
 8
TOOL_0
 5
55
 10
4261.871
 20
667.703
 30
0
 11
4289.371
 21
695.203
 31
0
 0
ARC
 8
TOOL_0
 5
56
 10
4244.823
 20
739.751
 30
0
 40
63.000385776597
 50
315.0
 51
359.999090543183
210
0
220
0
230
1.0
 0
LINE
 8
TOOL_0
 5
57
 10
4307.823
 20
739.75
 30
0
 11
4307.823
 21
1533.25
 31
0
 0
ARC
 8
TOOL_0
 5
58
 10
4342.823
 20
1533.25
 30
0
 40
35.0
 50
90.0
 51
180.0
210
0
220
0
230
1.0
 0
LINE
 8
TOOL_0
 5
59
 10
4342.823
 20
1568.25
 30
0
 11
7372.823
 21
1568.25
 31
0
 0
ARC
 8
TOOL_0
 5
5A
 10
7372.823
 20
1533.25
 30
0
 40
35.0
 50
0
 51
90.0
210
0
220
0
230
1.0
 0
LINE
 8
TOOL_0
 5
5B
 10
7407.823
 20
1533.25
 30
0
 11
7407.823
 21
739.75
 31
0
 0
ARC
 8
TOOL_0
 5
5C
 10
7470.823
 20
739.75
 30
0
 40
63.0
 50
180.0
 51
225.0
210
0
220
0
230
1.0
 0
LINE
 8
TOOL_0
 5
5D
 10
7426.275
 20
695.202
 30
0
 11
7453.775
 21
667.702
 31
0
 0
ARC
 8
TOOL_0
 5
5E
 10
7498.323
 20
712.25
 30
0
 40
63.000385776597
 50
225.0
 51
269.999090543182
210
0
220
0
230
1.0
 0
LINE
 8
TOOL_0
 5
5F
 10
7498.322
 20
649.25
 30
0
 11
7985.322
 21
649.25
 31
0
 0
LINE
 8
TOOL_0
 5
60
 10
7985.322
 20
649.25
 30
0
 11
7985.322
 21
127.25
 31
0
 0
LINE
 8
TOOL_0
 5
61
 10
7985.322
 20
127.25
 30
0
 11
7995.322
 21
127.25
 31
0
 0
LINE
 8
TOOL_0
 5
62
 10
7995.322
 20
127.25
 30
0
 11
7995.322
 21
19.25
 31
0
 0
LINE
 8
TOOL_0
 5
63
 10
7995.322
 20
19.25
 30
0
 11
7995.322
 21
14.171
 31
0
 0
LINE
 8
TOOL_0
 5
64
 10
7995.322
 20
14.171
 30
0
 11
476.364
 21
1917.267
 31
0
 0
LINE
 8
TOOL_0
 5
65
 10
476.364
 20
1917.267
 30
0
 11
505.249
 21
1917.249
 31
0
 0
LINE
 8
TOOL_0
 5
66
 10
505.249
 20
1917.249
 30
0
 11
505.249
 21
2049.749
 31
0
 0
ARC
 8
TOOL_0
 5
67
 10
470.249
 20
2049.749
 30
0
 40
35.0
 50
0
 51
90.0
210
0
220
0
230
1.0
 0
LINE
 8
TOOL_0
 5
68
 10
470.249
 20
2084.749
 30
0
 11
340.249
 21
2084.749
 31
0
 0
ARC
 8
TOOL_0
 5
69
 10
340.249
 20
2049.749
 30
0
 40
35.0
 50
90.0
 51
180.0
210
0
220
0
230
1.0
 0
LINE
 8
TOOL_0
 5
6A
 10
305.249
 20
2049.749
 30
0
 11
305.249
 21
1784.749
 31
0
 0
ARC
 8
TOOL_0
 5
6B
 10
340.249
 20
1784.749
 30
0
 40
35.0
 50
180.0
 51
270.0
210
0
220
0
230
1.0
 0
LINE
 8
TOOL_0
 5
6C
 10
340.249
 20
1749.749
 30
0
 11
470.249
 21
1749.749
 31
0
 0
ARC
 8
TOOL_0
 5
6D
 10
470.249
 20
1784.749
 30
0
 40
35.0
 50
270.0
 51
0
210
0
220
0
230
1.0
 0
LINE
 8
TOOL_0
 5
6E
 10
505.249
 20
1784.749
 30
0
 11
505.249
 21
1917.249
 31
0
 0
LINE
 8
TOOL_0
 5
6F
 10
505.249
 20
1917.249
 30
0
 11
503.265
 21
1921.978
 31
0
 0
LINE
 8
TOOL_0
 5
70
 10
503.265
 20
1921.978
 30
0
 11
865.621
 21
1896.812
 31
0
 0
LINE
 8
TOOL_0
 5
71
 10
865.621
 20
1896.812
 30
0
 11
895.249
 21
1897.249
 31
0
 0
LINE
 8
TOOL_0
 5
72
 10
895.249
 20
1897.249
 30
0
 11
895.249
 21
2009.749
 31
0
 0
ARC
 8
TOOL_0
 5
73
 10
860.249
 20
2009.749
 30
0
 40
35.0
 50
0
 51
90.0
210
0
220
0
230
1.0
 0
LINE
 8
TOOL_0
 5
74
 10
860.249
 20
2044.749
 30
0
 11
730.249
 21
2044.749
 31
0
 0
ARC
 8
TOOL_0
 5
75
 10
730.249
 20
2009.749
 30
0
 40
35.0
 50
90.0
 51
180.0
210
0
220
0
230
1.0
 0
LINE
 8
TOOL_0
 5
76
 10
695.249
 20
2009.749
 30
0
 11
695.249
 21
1784.749
 31
0
 0
ARC
 8
TOOL_0
 5
77
 10
730.249
 20
1784.749
 30
0
 40
35.0
 50
180.0
 51
270.0
210
0
220
0
230
1.0
 0
LINE
 8
TOOL_0
 5
78
 10
730.249
 20
1749.749
 30
0
 11
860.249
 21
1749.749
 31
0
 0
ARC
 8
TOOL_0
 5
79
 10
860.249
 20
1784.749
 30
0
 40
35.0
 50
270.0
 51
0
210
0
220
0
230
1.0
 0
LINE
 8
TOOL_0
 5
7A
 10
895.249
 20
1784.749
 30
0
 11
895.249
 21
1897.249
 31
0
 0
LINE
 8
TOOL_0
 5
7B
 10
895.249
 20
1897.249
 30
0
 11
893.065
 21
1901.85
 31
0
 0
LINE
 8
TOOL_0
 5
7C
 10
893.065
 20
1901.85
 30
0
 11
19.249
 21
2064.48
 31
0
 0
LINE
 8
TOOL_0
 5
7D
 10
19.249
 20
2064.48
 30
0
 11
19.249
 21
2093.749
 31
0
 0
LINE
 8
TOOL_0
 5
7E
 10
19.249
 20
2093.749
 30
0
 11
19.249
 21
2150.163
 31
0
 0
LINE
 8
TOOL_0
 5
7F
 10
19.249
 20
2150.163
 30
0
 11
29.835
 21
2160.749
 31
0
 0
LINE
 8
TOOL_0
 5
80
 10
29.835
 20
2160.749
 30
0
 11
152.249
 21
2160.749
 31
0
 0
ARC
 8
TOOL_0
 5
81
 10
152.249
 20
2167.749
 30
0
 40
7.0
 50
270.0
 51
0
210
0
220
0
230
1.0
 0
LINE
 8
TOOL_0
 5
82
 10
159.249
 20
2167.749
 30
0
 11
159.249
 21
2180.749
 31
0
 0
LINE
 8
TOOL_0
 5
83
 10
159.249
 20
2180.749
 30
0
 11
701.249
 21
2180.749
 31
0
 0
LINE
 8
TOOL_0
 5
84
 10
701.249
 20
2180.749
 30
0
 11
701.249
 21
2167.749
 31
0
 0
ARC
 8
TOOL_0
 5
85
 10
708.249
 20
2167.749
 30
0
 40
7.0
 50
180.0
 51
270.0
210
0
220
0
230
1.0
 0
LINE
 8
TOOL_0
 5
86
 10
708.249
 20
2160.749
 30
0
 11
862.249
 21
2160.749
 31
0
 0
ARC
 8
TOOL_0
 5
87
 10
862.249
 20
2167.749
 30
0
 40
7.0
 50
270.0
 51
0
210
0
220
0
230
1.0
 0
LINE
 8
TOOL_0
 5
88
 10
869.249
 20
2167.749
 30
0
 11
869.249
 21
2180.749
 31
0
 0
LINE
 8
TOOL_0
 5
89
 10
869.249
 20
2180.749
 30
0
 11
1286.249
 21
2180.749
 31
0
 0
LINE
 8
TOOL_0
 5
8A
 10
1286.249
 20
2180.749
 30
0
 11
1286.249
 21
2172.749
 31
0
 0
ARC
 8
TOOL_0
 5
8B
 10
1293.249
 20
2172.749
 30
0
 40
7.0
 50
180.0
 51
270.0
210
0
220
0
230
1.0
 0
LINE
 8
TOOL_0
 5
8C
 10
1293.249
 20
2165.749
 30
0
 11
1471.749
 21
2165.749
 31
0
 0
LINE
 8
TOOL_0
 5
8D
 10
1471.749
 20
2165.749
 30
0
 11
1471.749
 21
1837.256
 31
0
 0
LINE
 8
TOOL_0
 5
8E
 10
1471.749
 20
1837.256
 30
0
 11
817.102
 21
1584.749
 31
0
 0
LINE
 8
TOOL_0
 5
8F
 10
817.102
 20
1584.749
 30
0
 11
343.533
 21
1584.749
 31
0
 0
ARC
 8
TOOL_0
 5
90
 10
343.533
 20
1664.749
 30
0
 40
80.0
 50
230.388740979326
 51
270.0
210
0
220
0
230
1.0
 0
LINE
 8
TOOL_0
 5
91
 10
292.527
 20
1603.118
 30
0
 11
19.249
 21
1829.279
 31
0
 0
LINE
 8
TOOL_0
 5
92
 10
19.249
 20
1829.279
 30
0
 11
19.249
 21
1935.749
 31
0
 0
LINE
 8
TOOL_0
 5
93
 10
19.249
 20
1935.749
 30
0
 11
100.249
 21
1935.749
 31
0
 0
ARC
 8
TOOL_0
 5
94
 10
100.249
 20
1984.749
 30
0
 40
49.0
 50
270.0
 51
0
210
0
220
0
230
1.0
 0
LINE
 8
TOOL_0
 5
95
 10
149.249
 20
1984.749
 30
0
 11
149.249
 21
2044.749
 31
0
 0
ARC
 8
TOOL_0
 5
96
 10
100.249
 20
2044.749
 30
0
 40
49.0
 50
0
 51
90.0
210
0
220
0
230
1.0
 0
LINE
 8
TOOL_0
 5
97
 10
100.249
 20
2093.749
 30
0
 11
19.249
 21
2093.749
 31
0
 0
LINE
 8
TOOL_0
 5
98
 10
19.249
 20
2093.749
 30
0
 11
14.551
 21
2093.749
 31
0
 0
LINE
 8
TOOL_0
 5
99
 10
14.551
 20
2093.749
 30
0
 11
1942.804
 21
1917.267
 31
0
 0
LINE
 8
TOOL_0
 5
9A
 10
1942.804
 20
1917.267
 30
0
 11
1971.689
 21
1917.249
 31
0
 0
LINE
 8
TOOL_0
 5
9B
 10
1971.689
 20
1917.249
 30
0
 11
1971.689
 21
2049.749
 31
0
 0
ARC
 8
TOOL_0
 5
9C
 10
1936.689
 20
2049.749
 30
0
 40
35.0
 50
0
 51
90.0
210
0
220
0
230
1.0
 0
LINE
 8
TOOL_0
 5
9D
 10
1936.689
 20
2084.749
 30
0
 11
1806.689
 21
2084.749
 31
0
 0
ARC
 8
TOOL_0
 5
9E
 10
1806.689
 20
2049.749
 30
0
 40
35.0
 50
90.0
 51
180.0
210
0
220
0
230
1.0
 0
LINE
 8
TOOL_0
 5
9F
 10
1771.689
 20
2049.749
 30
0
 11
1771.689
 21
1784.749
 31
0
 0
ARC
 8
TOOL_0
 5
A0
 10
1806.689
 20
1784.749
 30
0
 40
35.0
 50
180.0
 51
270.0
210
0
220
0
230
1.0
 0
LINE
 8
TOOL_0
 5
A1
 10
1806.689
 20
1749.749
 30
0
 11
1936.689
 21
1749.749
 31
0
 0
ARC
 8
TOOL_0
 5
A2
 10
1936.689
 20
1784.749
 30
0
 40
35.0
 50
270.0
 51
0
210
0
220
0
230
1.0
 0
LINE
 8
TOOL_0
 5
A3
 10
1971.689
 20
1784.749
 30
0
 11
1971.689
 21
1917.249
 31
0
 0
LINE
 8
TOOL_0
 5
A4
 10
1971.689
 20
1917.249
 30
0
 11
1969.705
 21
1921.978
 31
0
 0
LINE
 8
TOOL_0
 5
A5
 10
1969.705
 20
1921.978
 30
0
 11
2332.061
 21
1896.812
 31
0
 0
LINE
 8
TOOL_0
 5
A6
 10
2332.061
 20
1896.812
 30
0
 11
2361.689
 21
1897.249
 31
0
 0
LINE
 8
TOOL_0
 5
A7
 10
2361.689
 20
1897.249
 30
0
 11
2361.689
 21
2009.749
 31
0
 0
ARC
 8
TOOL_0
 5
A8
 10
2326.689
 20
2009.749
 30
0
 40
35.0
 50
0
 51
90.0
210
0
220
0
230
1.0
 0
LINE
 8
TOOL_0
 5
A9
 10
2326.689
 20
2044.749
 30
0
 11
2196.689
 21
2044.749
 31
0
 0
ARC
 8
TOOL_0
 5
AA
 10
2196.689
 20
2009.749
 30
0
 40
35.0
 50
90.0
 51
180.0
210
0
220
0
230
1.0
 0
LINE
 8
TOOL_0
 5
AB
 10
2161.689
 20
2009.749
 30
0
 11
2161.689
 21
1784.749
 31
0
 0
ARC
 8
TOOL_0
 5
AC
 10
2196.689
 20
1784.749
 30
0
 40
35.0
 50
180.0
 51
270.0
210
0
220
0
230
1.0
 0
LINE
 8
TOOL_0
 5
AD
 10
2196.689
 20
1749.749
 30
0
 11
2326.689
 21
1749.749
 31
0
 0
ARC
 8
TOOL_0
 5
AE
 10
2326.689
 20
1784.749
 30
0
 40
35.0
 50
270.0
 51
0
210
0
220
0
230
1.0
 0
LINE
 8
TOOL_0
 5
AF
 10
2361.689
 20
1784.749
 30
0
 11
2361.689
 21
1897.249
 31
0
 0
LINE
 8
TOOL_0
 5
B0
 10
2361.689
 20
1897.249
 30
0
 11
2359.505
 21
1901.85
 31
0
 0
LINE
 8
TOOL_0
 5
B1
 10
2359.505
 20
1901.85
 30
0
 11
1485.689
 21
2064.48
 31
0
 0
LINE
 8
TOOL_0
 5
B2
 10
1485.689
 20
2064.48
 30
0
 11
1485.689
 21
2093.749
 31
0
 0
LINE
 8
TOOL_0
 5
B3
 10
1485.689
 20
2093.749
 30
0
 11
1485.689
 21
2150.163
 31
0
 0
LINE
 8
TOOL_0
 5
B4
 10
1485.689
 20
2150.163
 30
0
 11
1496.275
 21
2160.749
 31
0
 0
LINE
 8
TOOL_0
 5
B5
 10
1496.275
 20
2160.749
 30
0
 11
1618.689
 21
2160.749
 31
0
 0
ARC
 8
TOOL_0
 5
B6
 10
1618.689
 20
2167.749
 30
0
 40
7.0
 50
270.0
 51
0
210
0
220
0
230
1.0
 0
LINE
 8
TOOL_0
 5
B7
 10
1625.689
 20
2167.749
 30
0
 11
1625.689
 21
2180.749
 31
0
 0
LINE
 8
TOOL_0
 5
B8
 10
1625.689
 20
2180.749
 30
0
 11
2167.689
 21
2180.749
 31
0
 0
LINE
 8
TOOL_0
 5
B9
 10
2167.689
 20
2180.749
 30
0
 11
2167.689
 21
2167.749
 31
0
 0
ARC
 8
TOOL_0
 5
BA
 10
2174.689
 20
2167.749
 30
0
 40
7.0
 50
180.0
 51
270.0
210
0
220
0
230
1.0
 0
LINE
 8
TOOL_0
 5
BB
 10
2174.689
 20
2160.749
 30
0
 11
2328.689
 21
2160.749
 31
0
 0
ARC
 8
TOOL_0
 5
BC
 10
2328.689
 20
2167.749
 30
0
 40
7.0
 50
270.0
 51
0
210
0
220
0
230
1.0
 0
LINE
 8
TOOL_0
 5
BD
 10
2335.689
 20
2167.749
 30
0
 11
2335.689
 21
2180.749
 31
0
 0
LINE
 8
TOOL_0
 5
BE
 10
2335.689
 20
2180.749
 30
0
 11
2752.689
 21
2180.749
 31
0
 0
LINE
 8
TOOL_0
 5
BF
 10
2752.689
 20
2180.749
 30
0
 11
2752.689
 21
2172.749
 31
0
 0
ARC
 8
TOOL_0
 5
C0
 10
2759.689
 20
2172.749
 30
0
 40
7.0
 50
180.0
 51
270.0
210
0
220
0
230
1.0
 0
LINE
 8
TOOL_0
 5
C1
 10
2759.689
 20
2165.749
 30
0
 11
2938.189
 21
2165.749
 31
0
 0
LINE
 8
TOOL_0
 5
C2
 10
2938.189
 20
2165.749
 30
0
 11
2938.189
 21
1837.256
 31
0
 0
LINE
 8
TOOL_0
 5
C3
 10
2938.189
 20
1837.256
 30
0
 11
2283.542
 21
1584.749
 31
0
 0
LINE
 8
TOOL_0
 5
C4
 10
2283.542
 20
1584.749
 30
0
 11
1809.973
 21
1584.749
 31
0
 0
ARC
 8
TOOL_0
 5
C5
 10
1809.973
 20
1664.749
 30
0
 40
80.0
 50
230.388740979326
 51
270.0
210
0
220
0
230
1.0
 0
LINE
 8
TOOL_0
 5
C6
 10
1758.967
 20
1603.118
 30
0
 11
1485.689
 21
1829.279
 31
0
 0
LINE
 8
TOOL_0
 5
C7
 10
1485.689
 20
1829.279
 30
0
 11
1485.689
 21
1935.749
 31
0
 0
LINE
 8
TOOL_0
 5
C8
 10
1485.689
 20
1935.749
 30
0
 11
1566.689
 21
1935.749
 31
0
 0
ARC
 8
TOOL_0
 5
C9
 10
1566.689
 20
1984.749
 30
0
 40
49.0
 50
270.0
 51
0
210
0
220
0
230
1.0
 0
LINE
 8
TOOL_0
 5
CA
 10
1615.689
 20
1984.749
 30
0
 11
1615.689
 21
2044.749
 31
0
 0
ARC
 8
TOOL_0
 5
CB
 10
1566.689
 20
2044.749
 30
0
 40
49.0
 50
0
 51
90.0
210
0
220
0
230
1.0
 0
LINE
 8
TOOL_0
 5
CC
 10
1566.689
 20
2093.749
 30
0
 11
1485.689
 21
2093.749
 31
0
 0
LINE
 8
TOOL_0
 5
CD
 10
1485.689
 20
2093.749
 30
0
 11
1480.991
 21
2093.749
 31
0
 0
LINE
 8
TOOL_0
 5
CE
 10
1480.991
 20
2093.749
 30
0
 11
3408.98
 21
1915.869
 31
0
 0
LINE
 8
TOOL_0
 5
CF
 10
3408.98
 20
1915.869
 30
0
 11
3437.866
 21
1915.852
 31
0
 0
LINE
 8
TOOL_0
 5
D0
 10
3437.866
 20
1915.852
 30
0
 11
3437.866
 21
2048.352
 31
0
 0
ARC
 8
TOOL_0
 5
D1
 10
3402.866
 20
2048.352
 30
0
 40
35.0
 50
0
 51
90.0
210
0
220
0
230
1.0
 0
LINE
 8
TOOL_0
 5
D2
 10
3402.866
 20
2083.352
 30
0
 11
3272.866
 21
2083.352
 31
0
 0
ARC
 8
TOOL_0
 5
D3
 10
3272.866
 20
2048.352
 30
0
 40
35.0
 50
90.0
 51
180.0
210
0
220
0
230
1.0
 0
LINE
 8
TOOL_0
 5
D4
 10
3237.866
 20
2048.352
 30
0
 11
3237.866
 21
1783.352
 31
0
 0
ARC
 8
TOOL_0
 5
D5
 10
3272.866
 20
1783.352
 30
0
 40
35.0
 50
180.0
 51
270.0
210
0
220
0
230
1.0
 0
LINE
 8
TOOL_0
 5
D6
 10
3272.866
 20
1748.352
 30
0
 11
3402.866
 21
1748.352
 31
0
 0
ARC
 8
TOOL_0
 5
D7
 10
3402.866
 20
1783.352
 30
0
 40
35.0
 50
270.0
 51
0
210
0
220
0
230
1.0
 0
LINE
 8
TOOL_0
 5
D8
 10
3437.866
 20
1783.352
 30
0
 11
3437.866
 21
1915.852
 31
0
 0
LINE
 8
TOOL_0
 5
D9
 10
3437.866
 20
1915.852
 30
0
 11
3435.882
 21
1920.581
 31
0
 0
LINE
 8
TOOL_0
 5
DA
 10
3435.882
 20
1920.581
 30
0
 11
3798.239
 21
1895.415
 31
0
 0
LINE
 8
TOOL_0
 5
DB
 10
3798.239
 20
1895.415
 30
0
 11
3827.867
 21
1895.852
 31
0
 0
LINE
 8
TOOL_0
 5
DC
 10
3827.867
 20
1895.852
 30
0
 11
3827.867
 21
2008.352
 31
0
 0
ARC
 8
TOOL_0
 5
DD
 10
3792.867
 20
2008.352
 30
0
 40
35.0
 50
0
 51
90.0
210
0
220
0
230
1.0
 0
LINE
 8
TOOL_0
 5
DE
 10
3792.867
 20
2043.352
 30
0
 11
3662.867
 21
2043.352
 31
0
 0
ARC
 8
TOOL_0
 5
DF
 10
3662.867
 20
2008.352
 30
0
 40
35.0
 50
90.0
 51
180.0
210
0
220
0
230
1.0
 0
LINE
 8
TOOL_0
 5
E0
 10
3627.867
 20
2008.352
 30
0
 11
3627.867
 21
1783.352
 31
0
 0
ARC
 8
TOOL_0
 5
E1
 10
3662.867
 20
1783.352
 30
0
 40
35.0
 50
180.0
 51
270.0
210
0
220
0
230
1.0
 0
LINE
 8
TOOL_0
 5
E2
 10
3662.867
 20
1748.352
 30
0
 11
3792.867
 21
1748.352
 31
0
 0
ARC
 8
TOOL_0
 5
E3
 10
3792.867
 20
1783.352
 30
0
 40
35.0
 50
270.0
 51
0
210
0
220
0
230
1.0
 0
LINE
 8
TOOL_0
 5
E4
 10
3827.867
 20
1783.352
 30
0
 11
3827.867
 21
1895.852
 31
0
 0
LINE
 8
TOOL_0
 5
E5
 10
3827.867
 20
1895.852
 30
0
 11
3825.683
 21
1900.453
 31
0
 0
LINE
 8
TOOL_0
 5
E6
 10
3825.683
 20
1900.453
 30
0
 11
2951.867
 21
2063.083
 31
0
 0
LINE
 8
TOOL_0
 5
E7
 10
2951.867
 20
2063.083
 30
0
 11
2951.867
 21
2092.352
 31
0
 0
LINE
 8
TOOL_0
 5
E8
 10
2951.867
 20
2092.352
 30
0
 11
2951.867
 21
2148.766
 31
0
 0
LINE
 8
TOOL_0
 5
E9
 10
2951.867
 20
2148.766
 30
0
 11
2962.453
 21
2159.352
 31
0
 0
LINE
 8
TOOL_0
 5
EA
 10
2962.453
 20
2159.352
 30
0
 11
3084.867
 21
2159.352
 31
0
 0
ARC
 8
TOOL_0
 5
EB
 10
3084.867
 20
2166.352
 30
0
 40
7.0
 50
270.0
 51
0
210
0
220
0
230
1.0
 0
LINE
 8
TOOL_0
 5
EC
 10
3091.867
 20
2166.352
 30
0
 11
3091.867
 21
2179.352
 31
0
 0
LINE
 8
TOOL_0
 5
ED
 10
3091.867
 20
2179.352
 30
0
 11
3633.867
 21
2179.352
 31
0
 0
LINE
 8
TOOL_0
 5
EE
 10
3633.867
 20
2179.352
 30
0
 11
3633.867
 21
2166.352
 31
0
 0
ARC
 8
TOOL_0
 5
EF
 10
3640.867
 20
2166.352
 30
0
 40
7.0
 50
180.0
 51
270.0
210
0
220
0
230
1.0
 0
LINE
 8
TOOL_0
 5
F0
 10
3640.867
 20
2159.352
 30
0
 11
3794.867
 21
2159.352
 31
0
 0
ARC
 8
TOOL_0
 5
F1
 10
3794.867
 20
2166.352
 30
0
 40
7.0
 50
270.0
 51
0
210
0
220
0
230
1.0
 0
LINE
 8
TOOL_0
 5
F2
 10
3801.867
 20
2166.352
 30
0
 11
3801.867
 21
2179.352
 31
0
 0
LINE
 8
TOOL_0
 5
F3
 10
3801.867
 20
2179.352
 30
0
 11
4218.867
 21
2179.352
 31
0
 0
LINE
 8
TOOL_0
 5
F4
 10
4218.867
 20
2179.352
 30
0
 11
4218.867
 21
2171.352
 31
0
 0
ARC
 8
TOOL_0
 5
F5
 10
4225.867
 20
2171.352
 30
0
 40
7.0
 50
180.0
 51
270.0
210
0
220
0
230
1.0
 0
LINE
 8
TOOL_0
 5
F6
 10
4225.867
 20
2164.352
 30
0
 11
4404.367
 21
2164.352
 31
0
 0
LINE
 8
TOOL_0
 5
F7
 10
4404.367
 20
2164.352
 30
0
 11
4404.367
 21
1835.859
 31
0
 0
LINE
 8
TOOL_0
 5
F8
 10
4404.367
 20
1835.859
 30
0
 11
3749.72
 21
1583.352
 31
0
 0
LINE
 8
TOOL_0
 5
F9
 10
3749.72
 20
1583.352
 30
0
 11
3276.151
 21
1583.352
 31
0
 0
ARC
 8
TOOL_0
 5
FA
 10
3276.151
 20
1663.352
 30
0
 40
80.0
 50
230.388740979326
 51
270.0
210
0
220
0
230
1.0
 0
LINE
 8
TOOL_0
 5
FB
 10
3225.145
 20
1601.721
 30
0
 11
2951.867
 21
1827.882
 31
0
 0
LINE
 8
TOOL_0
 5
FC
 10
2951.867
 20
1827.882
 30
0
 11
2951.867
 21
1934.352
 31
0
 0
LINE
 8
TOOL_0
 5
FD
 10
2951.867
 20
1934.352
 30
0
 11
3032.867
 21
1934.352
 31
0
 0
ARC
 8
TOOL_0
 5
FE
 10
3032.867
 20
1983.352
 30
0
 40
49.0
 50
270.0
 51
0
210
0
220
0
230
1.0
 0
LINE
 8
TOOL_0
 5
FF
 10
3081.867
 20
1983.352
 30
0
 11
3081.867
 21
2043.352
 31
0
 0
ARC
 8
TOOL_0
 5
100
 10
3032.867
 20
2043.352
 30
0
 40
49.0
 50
0
 51
90.0
210
0
220
0
230
1.0
 0
LINE
 8
TOOL_0
 5
101
 10
3032.867
 20
2092.352
 30
0
 11
2951.867
 21
2092.352
 31
0
 0
LINE
 8
TOOL_0
 5
102
 10
2951.867
 20
2092.352
 30
0
 11
2947.169
 21
2092.352
 31
0
 0
LINE
 8
TOOL_0
 5
103
 10
2947.169
 20
2092.352
 30
0
 11
4875.158
 21
1915.404
 31
0
 0
LINE
 8
TOOL_0
 5
104
 10
4875.158
 20
1915.404
 30
0
 11
4904.044
 21
1915.386
 31
0
 0
LINE
 8
TOOL_0
 5
105
 10
4904.044
 20
1915.386
 30
0
 11
4904.044
 21
2047.886
 31
0
 0
ARC
 8
TOOL_0
 5
106
 10
4869.044
 20
2047.886
 30
0
 40
35.0
 50
0
 51
90.0
210
0
220
0
230
1.0
 0
LINE
 8
TOOL_0
 5
107
 10
4869.044
 20
2082.886
 30
0
 11
4739.044
 21
2082.886
 31
0
 0
ARC
 8
TOOL_0
 5
108
 10
4739.044
 20
2047.886
 30
0
 40
35.0
 50
90.0
 51
180.0
210
0
220
0
230
1.0
 0
LINE
 8
TOOL_0
 5
109
 10
4704.044
 20
2047.886
 30
0
 11
4704.044
 21
1782.886
 31
0
 0
ARC
 8
TOOL_0
 5
10A
 10
4739.044
 20
1782.886
 30
0
 40
35.0
 50
180.0
 51
270.0
210
0
220
0
230
1.0
 0
LINE
 8
TOOL_0
 5
10B
 10
4739.044
 20
1747.886
 30
0
 11
4869.044
 21
1747.886
 31
0
 0
ARC
 8
TOOL_0
 5
10C
 10
4869.044
 20
1782.886
 30
0
 40
35.0
 50
270.0
 51
0
210
0
220
0
230
1.0
 0
LINE
 8
TOOL_0
 5
10D
 10
4904.044
 20
1782.886
 30
0
 11
4904.044
 21
1915.386
 31
0
 0
LINE
 8
TOOL_0
 5
10E
 10
4904.044
 20
1915.386
 30
0
 11
4902.06
 21
1920.115
 31
0
 0
LINE
 8
TOOL_0
 5
10F
 10
4902.06
 20
1920.115
 30
0
 11
5264.417
 21
1894.949
 31
0
 0
LINE
 8
TOOL_0
 5
110
 10
5264.417
 20
1894.949
 30
0
 11
5294.045
 21
1895.386
 31
0
 0
LINE
 8
TOOL_0
 5
111
 10
5294.045
 20
1895.386
 30
0
 11
5294.045
 21
2007.886
 31
0
 0
ARC
 8
TOOL_0
 5
112
 10
5259.045
 20
2007.886
 30
0
 40
35.0
 50
0
 51
90.0
210
0
220
0
230
1.0
 0
LINE
 8
TOOL_0
 5
113
 10
5259.045
 20
2042.886
 30
0
 11
5129.045
 21
2042.886
 31
0
 0
ARC
 8
TOOL_0
 5
114
 10
5129.045
 20
2007.886
 30
0
 40
35.0
 50
90.0
 51
180.0
210
0
220
0
230
1.0
 0
LINE
 8
TOOL_0
 5
115
 10
5094.045
 20
2007.886
 30
0
 11
5094.045
 21
1782.886
 31
0
 0
ARC
 8
TOOL_0
 5
116
 10
5129.045
 20
1782.886
 30
0
 40
35.0
 50
180.0
 51
270.0
210
0
220
0
230
1.0
 0
LINE
 8
TOOL_0
 5
117
 10
5129.045
 20
1747.886
 30
0
 11
5259.045
 21
1747.886
 31
0
 0
ARC
 8
TOOL_0
 5
118
 10
5259.045
 20
1782.886
 30
0
 40
35.0
 50
270.0
 51
0
210
0
220
0
230
1.0
 0
LINE
 8
TOOL_0
 5
119
 10
5294.045
 20
1782.886
 30
0
 11
5294.045
 21
1895.386
 31
0
 0
LINE
 8
TOOL_0
 5
11A
 10
5294.045
 20
1895.386
 30
0
 11
5291.861
 21
1899.987
 31
0
 0
LINE
 8
TOOL_0
 5
11B
 10
5291.861
 20
1899.987
 30
0
 11
4418.045
 21
2062.617
 31
0
 0
LINE
 8
TOOL_0
 5
11C
 10
4418.045
 20
2062.617
 30
0
 11
4418.045
 21
2091.886
 31
0
 0
LINE
 8
TOOL_0
 5
11D
 10
4418.045
 20
2091.886
 30
0
 11
4418.045
 21
2148.3
 31
0
 0
LINE
 8
TOOL_0
 5
11E
 10
4418.045
 20
2148.3
 30
0
 11
4428.631
 21
2158.886
 31
0
 0
LINE
 8
TOOL_0
 5
11F
 10
4428.631
 20
2158.886
 30
0
 11
4551.045
 21
2158.886
 31
0
 0
ARC
 8
TOOL_0
 5
120
 10
4551.045
 20
2165.886
 30
0
 40
7.0
 50
270.0
 51
0
210
0
220
0
230
1.0
 0
LINE
 8
TOOL_0
 5
121
 10
4558.045
 20
2165.886
 30
0
 11
4558.045
 21
2178.886
 31
0
 0
LINE
 8
TOOL_0
 5
122
 10
4558.045
 20
2178.886
 30
0
 11
5100.045
 21
2178.886
 31
0
 0
LINE
 8
TOOL_0
 5
123
 10
5100.045
 20
2178.886
 30
0
 11
5100.045
 21
2165.886
 31
0
 0
ARC
 8
TOOL_0
 5
124
 10
5107.045
 20
2165.886
 30
0
 40
7.0
 50
180.0
 51
270.0
210
0
220
0
230
1.0
 0
LINE
 8
TOOL_0
 5
125
 10
5107.045
 20
2158.886
 30
0
 11
5261.045
 21
2158.886
 31
0
 0
ARC
 8
TOOL_0
 5
126
 10
5261.045
 20
2165.886
 30
0
 40
7.0
 50
270.0
 51
0
210
0
220
0
230
1.0
 0
LINE
 8
TOOL_0
 5
127
 10
5268.045
 20
2165.886
 30
0
 11
5268.045
 21
2178.886
 31
0
 0
LINE
 8
TOOL_0
 5
128
 10
5268.045
 20
2178.886
 30
0
 11
5685.045
 21
2178.886
 31
0
 0
LINE
 8
TOOL_0
 5
129
 10
5685.045
 20
2178.886
 30
0
 11
5685.045
 21
2170.886
 31
0
 0
ARC
 8
TOOL_0
 5
12A
 10
5692.045
 20
2170.886
 30
0
 40
7.0
 50
180.0
 51
270.0
210
0
220
0
230
1.0
 0
LINE
 8
TOOL_0
 5
12B
 10
5692.045
 20
2163.886
 30
0
 11
5870.545
 21
2163.886
 31
0
 0
LINE
 8
TOOL_0
 5
12C
 10
5870.545
 20
2163.886
 30
0
 11
5870.545
 21
1835.393
 31
0
 0
LINE
 8
TOOL_0
 5
12D
 10
5870.545
 20
1835.393
 30
0
 11
5215.898
 21
1582.886
 31
0
 0
LINE
 8
TOOL_0
 5
12E
 10
5215.898
 20
1582.886
 30
0
 11
4742.329
 21
1582.886
 31
0
 0
ARC
 8
TOOL_0
 5
12F
 10
4742.329
 20
1662.886
 30
0
 40
80.0
 50
230.388740979326
 51
270.0
210
0
220
0
230
1.0
 0
LINE
 8
TOOL_0
 5
130
 10
4691.323
 20
1601.255
 30
0
 11
4418.045
 21
1827.416
 31
0
 0
LINE
 8
TOOL_0
 5
131
 10
4418.045
 20
1827.416
 30
0
 11
4418.045
 21
1933.886
 31
0
 0
LINE
 8
TOOL_0
 5
132
 10
4418.045
 20
1933.886
 30
0
 11
4499.045
 21
1933.886
 31
0
 0
ARC
 8
TOOL_0
 5
133
 10
4499.045
 20
1982.886
 30
0
 40
49.0
 50
270.0
 51
0
210
0
220
0
230
1.0
 0
LINE
 8
TOOL_0
 5
134
 10
4548.045
 20
1982.886
 30
0
 11
4548.045
 21
2042.886
 31
0
 0
ARC
 8
TOOL_0
 5
135
 10
4499.045
 20
2042.886
 30
0
 40
49.0
 50
0
 51
90.0
210
0
220
0
230
1.0
 0
LINE
 8
TOOL_0
 5
136
 10
4499.045
 20
2091.886
 30
0
 11
4418.045
 21
2091.886
 31
0
 0
LINE
 8
TOOL_0
 5
137
 10
4418.045
 20
2091.886
 30
0
 11
4413.347
 21
2091.886
 31
0
 0
LINE
 8
TOOL_0
 5
138
 10
4413.347
 20
2091.886
 30
0
 11
6341.336
 21
1916.801
 31
0
 0
LINE
 8
TOOL_0
 5
139
 10
6341.336
 20
1916.801
 30
0
 11
6370.222
 21
1916.783
 31
0
 0
LINE
 8
TOOL_0
 5
13A
 10
6370.222
 20
1916.783
 30
0
 11
6370.222
 21
2049.283
 31
0
 0
ARC
 8
TOOL_0
 5
13B
 10
6335.222
 20
2049.283
 30
0
 40
35.0
 50
0
 51
90.0
210
0
220
0
230
1.0
 0
LINE
 8
TOOL_0
 5
13C
 10
6335.222
 20
2084.283
 30
0
 11
6205.222
 21
2084.283
 31
0
 0
ARC
 8
TOOL_0
 5
13D
 10
6205.222
 20
2049.283
 30
0
 40
35.0
 50
90.0
 51
180.0
210
0
220
0
230
1.0
 0
LINE
 8
TOOL_0
 5
13E
 10
6170.222
 20
2049.283
 30
0
 11
6170.222
 21
1784.283
 31
0
 0
ARC
 8
TOOL_0
 5
13F
 10
6205.222
 20
1784.283
 30
0
 40
35.0
 50
180.0
 51
270.0
210
0
220
0
230
1.0
 0
LINE
 8
TOOL_0
 5
140
 10
6205.222
 20
1749.283
 30
0
 11
6335.222
 21
1749.283
 31
0
 0
ARC
 8
TOOL_0
 5
141
 10
6335.222
 20
1784.283
 30
0
 40
35.0
 50
270.0
 51
0
210
0
220
0
230
1.0
 0
LINE
 8
TOOL_0
 5
142
 10
6370.222
 20
1784.283
 30
0
 11
6370.222
 21
1916.783
 31
0
 0
LINE
 8
TOOL_0
 5
143
 10
6370.222
 20
1916.783
 30
0
 11
6368.238
 21
1921.512
 31
0
 0
LINE
 8
TOOL_0
 5
144
 10
6368.238
 20
1921.512
 30
0
 11
6730.595
 21
1896.345
 31
0
 0
LINE
 8
TOOL_0
 5
145
 10
6730.595
 20
1896.345
 30
0
 11
6760.223
 21
1896.782
 31
0
 0
LINE
 8
TOOL_0
 5
146
 10
6760.223
 20
1896.782
 30
0
 11
6760.223
 21
2009.282
 31
0
 0
ARC
 8
TOOL_0
 5
147
 10
6725.223
 20
2009.282
 30
0
 40
35.0
 50
0
 51
90.0
210
0
220
0
230
1.0
 0
LINE
 8
TOOL_0
 5
148
 10
6725.223
 20
2044.282
 30
0
 11
6595.223
 21
2044.282
 31
0
 0
ARC
 8
TOOL_0
 5
149
 10
6595.223
 20
2009.282
 30
0
 40
35.0
 50
90.0
 51
180.0
210
0
220
0
230
1.0
 0
LINE
 8
TOOL_0
 5
14A
 10
6560.223
 20
2009.282
 30
0
 11
6560.223
 21
1784.282
 31
0
 0
ARC
 8
TOOL_0
 5
14B
 10
6595.223
 20
1784.282
 30
0
 40
35.0
 50
180.0
 51
270.0
210
0
220
0
230
1.0
 0
LINE
 8
TOOL_0
 5
14C
 10
6595.223
 20
1749.282
 30
0
 11
6725.223
 21
1749.282
 31
0
 0
ARC
 8
TOOL_0
 5
14D
 10
6725.223
 20
1784.282
 30
0
 40
35.0
 50
270.0
 51
0
210
0
220
0
230
1.0
 0
LINE
 8
TOOL_0
 5
14E
 10
6760.223
 20
1784.282
 30
0
 11
6760.223
 21
1896.782
 31
0
 0
LINE
 8
TOOL_0
 5
14F
 10
6760.223
 20
1896.782
 30
0
 11
6758.039
 21
1901.383
 31
0
 0
LINE
 8
TOOL_0
 5
150
 10
6758.039
 20
1901.383
 30
0
 11
5884.224
 21
2064.013
 31
0
 0
LINE
 8
TOOL_0
 5
151
 10
5884.224
 20
2064.013
 30
0
 11
5884.224
 21
2093.282
 31
0
 0
LINE
 8
TOOL_0
 5
152
 10
5884.224
 20
2093.282
 30
0
 11
5884.224
 21
2149.696
 31
0
 0
LINE
 8
TOOL_0
 5
153
 10
5884.224
 20
2149.696
 30
0
 11
5894.81
 21
2160.282
 31
0
 0
LINE
 8
TOOL_0
 5
154
 10
5894.81
 20
2160.282
 30
0
 11
6017.224
 21
2160.282
 31
0
 0
ARC
 8
TOOL_0
 5
155
 10
6017.224
 20
2167.282
 30
0
 40
7.0
 50
270.0
 51
0
210
0
220
0
230
1.0
 0
LINE
 8
TOOL_0
 5
156
 10
6024.224
 20
2167.282
 30
0
 11
6024.224
 21
2180.282
 31
0
 0
LINE
 8
TOOL_0
 5
157
 10
6024.224
 20
2180.282
 30
0
 11
6566.224
 21
2180.282
 31
0
 0
LINE
 8
TOOL_0
 5
158
 10
6566.224
 20
2180.282
 30
0
 11
6566.224
 21
2167.282
 31
0
 0
ARC
 8
TOOL_0
 5
159
 10
6573.224
 20
2167.282
 30
0
 40
7.0
 50
180.0
 51
270.0
210
0
220
0
230
1.0
 0
LINE
 8
TOOL_0
 5
15A
 10
6573.224
 20
2160.282
 30
0
 11
6727.224
 21
2160.282
 31
0
 0
ARC
 8
TOOL_0
 5
15B
 10
6727.224
 20
2167.282
 30
0
 40
7.0
 50
270.0
 51
0
210
0
220
0
230
1.0
 0
LINE
 8
TOOL_0
 5
15C
 10
6734.224
 20
2167.282
 30
0
 11
6734.224
 21
2180.282
 31
0
 0
LINE
 8
TOOL_0
 5
15D
 10
6734.224
 20
2180.282
 30
0
 11
7151.224
 21
2180.282
 31
0
 0
LINE
 8
TOOL_0
 5
15E
 10
7151.224
 20
2180.282
 30
0
 11
7151.224
 21
2172.282
 31
0
 0
ARC
 8
TOOL_0
 5
15F
 10
7158.224
 20
2172.282
 30
0
 40
7.0
 50
180.0
 51
270.0
210
0
220
0
230
1.0
 0
LINE
 8
TOOL_0
 5
160
 10
7158.224
 20
2165.282
 30
0
 11
7336.724
 21
2165.282
 31
0
 0
LINE
 8
TOOL_0
 5
161
 10
7336.724
 20
2165.282
 30
0
 11
7336.724
 21
1836.789
 31
0
 0
LINE
 8
TOOL_0
 5
162
 10
7336.724
 20
1836.789
 30
0
 11
6682.077
 21
1584.282
 31
0
 0
LINE
 8
TOOL_0
 5
163
 10
6682.077
 20
1584.282
 30
0
 11
6208.508
 21
1584.282
 31
0
 0
ARC
 8
TOOL_0
 5
164
 10
6208.508
 20
1664.282
 30
0
 40
80.0
 50
230.388740979326
 51
270.0
210
0
220
0
230
1.0
 0
LINE
 8
TOOL_0
 5
165
 10
6157.502
 20
1602.651
 30
0
 11
5884.224
 21
1828.812
 31
0
 0
LINE
 8
TOOL_0
 5
166
 10
5884.224
 20
1828.812
 30
0
 11
5884.224
 21
1935.282
 31
0
 0
LINE
 8
TOOL_0
 5
167
 10
5884.224
 20
1935.282
 30
0
 11
5965.224
 21
1935.282
 31
0
 0
ARC
 8
TOOL_0
 5
168
 10
5965.224
 20
1984.282
 30
0
 40
49.0
 50
270.0
 51
0
210
0
220
0
230
1.0
 0
LINE
 8
TOOL_0
 5
169
 10
6014.224
 20
1984.282
 30
0
 11
6014.224
 21
2044.282
 31
0
 0
ARC
 8
TOOL_0
 5
16A
 10
5965.224
 20
2044.282
 30
0
 40
49.0
 50
0
 51
90.0
210
0
220
0
230
1.0
 0
LINE
 8
TOOL_0
 5
16B
 10
5965.224
 20
2093.282
 30
0
 11
5884.224
 21
2093.282
 31
0
 0
LINE
 8
TOOL_0
 5
16C
 10
5884.224
 20
2093.282
 30
0
 11
5879.526
 21
2093.282
 31
0
 0
LINE
 8
TOOL_0
 5
16D
 10
5879.526
 20
2093.282
 30
0
 11
7914.945
 21
1794.748
 31
0
 0
LINE
 8
TOOL_0
 5
16E
 10
7914.945
 20
1794.748
 30
0
 11
7949.945
 21
1794.748
 31
0
 0
LINE
 8
TOOL_0
 5
16F
 10
7949.945
 20
1794.748
 30
0
 11
7949.945
 21
1859.748
 31
0
 0
ARC
 8
TOOL_0
 5
170
 10
7914.945
 20
1859.748
 30
0
 40
35.0
 50
0
 51
90.0
210
0
220
0
230
1.0
 0
LINE
 8
TOOL_0
 5
171
 10
7914.945
 20
1894.748
 30
0
 11
7649.945
 21
1894.748
 31
0
 0
ARC
 8
TOOL_0
 5
172
 10
7649.945
 20
1859.748
 30
0
 40
35.0
 50
90.0
 51
180.0
210
0
220
0
230
1.0
 0
LINE
 8
TOOL_0
 5
173
 10
7614.945
 20
1859.748
 30
0
 11
7614.945
 21
1729.748
 31
0
 0
ARC
 8
TOOL_0
 5
174
 10
7649.945
 20
1729.748
 30
0
 40
35.0
 50
180.0
 51
270.0
210
0
220
0
230
1.0
 0
LINE
 8
TOOL_0
 5
175
 10
7649.945
 20
1694.748
 30
0
 11
7914.945
 21
1694.748
 31
0
 0
ARC
 8
TOOL_0
 5
176
 10
7914.945
 20
1729.748
 30
0
 40
35.0
 50
270.0
 51
0
210
0
220
0
230
1.0
 0
LINE
 8
TOOL_0
 5
177
 10
7949.945
 20
1729.748
 30
0
 11
7949.945
 21
1794.748
 31
0
 0
LINE
 8
TOOL_0
 5
178
 10
7949.945
 20
1794.748
 30
0
 11
7939.338
 21
1805.355
 31
0
 0
LINE
 8
TOOL_0
 5
179
 10
7939.338
 20
1805.355
 30
0
 11
7874.945
 21
1404.748
 31
0
 0
LINE
 8
TOOL_0
 5
17A
 10
7874.945
 20
1404.748
 30
0
 11
7909.945
 21
1404.748
 31
0
 0
LINE
 8
TOOL_0
 5
17B
 10
7909.945
 20
1404.748
 30
0
 11
7909.945
 21
1469.748
 31
0
 0
ARC
 8
TOOL_0
 5
17C
 10
7874.945
 20
1469.748
 30
0
 40
35.0
 50
0
 51
90.0
210
0
220
0
230
1.0
 0
LINE
 8
TOOL_0
 5
17D
 10
7874.945
 20
1504.748
 30
0
 11
7649.945
 21
1504.748
 31
0
 0
ARC
 8
TOOL_0
 5
17E
 10
7649.945
 20
1469.748
 30
0
 40
35.0
 50
90.0
 51
180.0
210
0
220
0
230
1.0
 0
LINE
 8
TOOL_0
 5
17F
 10
7614.945
 20
1469.748
 30
0
 11
7614.945
 21
1339.748
 31
0
 0
ARC
 8
TOOL_0
 5
180
 10
7649.945
 20
1339.748
 30
0
 40
35.0
 50
180.0
 51
270.0
210
0
220
0
230
1.0
 0
LINE
 8
TOOL_0
 5
181
 10
7649.945
 20
1304.748
 30
0
 11
7874.945
 21
1304.748
 31
0
 0
ARC
 8
TOOL_0
 5
182
 10
7874.945
 20
1339.748
 30
0
 40
35.0
 50
270.0
 51
0
210
0
220
0
230
1.0
 0
LINE
 8
TOOL_0
 5
183
 10
7909.945
 20
1339.748
 30
0
 11
7909.945
 21
1404.748
 31
0
 0
LINE
 8
TOOL_0
 5
184
 10
7909.945
 20
1404.748
 30
0
 11
7899.338
 21
1415.355
 31
0
 0
LINE
 8
TOOL_0
 5
185
 10
7899.338
 20
1415.355
 30
0
 11
7929.709
 21
2180.748
 31
0
 0
LINE
 8
TOOL_0
 5
186
 10
7929.709
 20
2180.748
 30
0
 11
7958.945
 21
2180.748
 31
0
 0
LINE
 8
TOOL_0
 5
187
 10
7958.945
 20
2180.748
 30
0
 11
8015.359
 21
2180.748
 31
0
 0
LINE
 8
TOOL_0
 5
188
 10
8015.359
 20
2180.748
 30
0
 11
8025.945
 21
2170.162
 31
0
 0
LINE
 8
TOOL_0
 5
189
 10
8025.945
 20
2170.162
 30
0
 11
8025.945
 21
2047.748
 31
0
 0
ARC
 8
TOOL_0
 5
18A
 10
8032.945
 20
2047.748
 30
0
 40
7.0
 50
180.0
 51
270.0
210
0
220
0
230
1.0
 0
LINE
 8
TOOL_0
 5
18B
 10
8032.945
 20
2040.748
 30
0
 11
8045.945
 21
2040.748
 31
0
 0
LINE
 8
TOOL_0
 5
18C
 10
8045.945
 20
2040.748
 30
0
 11
8045.945
 21
1498.748
 31
0
 0
LINE
 8
TOOL_0
 5
18D
 10
8045.945
 20
1498.748
 30
0
 11
8032.945
 21
1498.748
 31
0
 0
ARC
 8
TOOL_0
 5
18E
 10
8032.945
 20
1491.748
 30
0
 40
7.0
 50
90.0
 51
180.0
210
0
220
0
230
1.0
 0
LINE
 8
TOOL_0
 5
18F
 10
8025.945
 20
1491.748
 30
0
 11
8025.945
 21
1337.748
 31
0
 0
ARC
 8
TOOL_0
 5
190
 10
8032.945
 20
1337.748
 30
0
 40
7.0
 50
180.0
 51
270.0
210
0
220
0
230
1.0
 0
LINE
 8
TOOL_0
 5
191
 10
8032.945
 20
1330.748
 30
0
 11
8045.945
 21
1330.748
 31
0
 0
LINE
 8
TOOL_0
 5
192
 10
8045.945
 20
1330.748
 30
0
 11
8045.945
 21
913.748
 31
0
 0
LINE
 8
TOOL_0
 5
193
 10
8045.945
 20
913.748
 30
0
 11
8037.945
 21
913.748
 31
0
 0
ARC
 8
TOOL_0
 5
194
 10
8037.945
 20
906.748
 30
0
 40
7.0
 50
90.0
 51
180.0
210
0
220
0
230
1.0
 0
LINE
 8
TOOL_0
 5
195
 10
8030.945
 20
906.748
 30
0
 11
8030.945
 21
728.248
 31
0
 0
LINE
 8
TOOL_0
 5
196
 10
8030.945
 20
728.248
 30
0
 11
7702.452
 21
728.248
 31
0
 0
LINE
 8
TOOL_0
 5
197
 10
7702.452
 20
728.248
 30
0
 11
7449.945
 21
1382.895
 31
0
 0
LINE
 8
TOOL_0
 5
198
 10
7449.945
 20
1382.895
 30
0
 11
7449.945
 21
1856.464
 31
0
 0
ARC
 8
TOOL_0
 5
199
 10
7529.945
 20
1856.464
 30
0
 40
80.0
 50
140.389749357743
 51
180.0
210
0
220
0
230
1.0
 0
LINE
 8
TOOL_0
 5
19A
 10
7468.313
 20
1907.469
 30
0
 11
7694.474
 21
2180.747
 31
0
 0
LINE
 8
TOOL_0
 5
19B
 10
7694.474
 20
2180.747
 30
0
 11
7800.944
 21
2180.747
 31
0
 0
LINE
 8
TOOL_0
 5
19C
 10
7800.944
 20
2180.747
 30
0
 11
7800.944
 21
2099.747
 31
0
 0
ARC
 8
TOOL_0
 5
19D
 10
7849.944
 20
2099.747
 30
0
 40
49.0
 50
180.0
 51
270.0
210
0
220
0
230
1.0
 0
LINE
 8
TOOL_0
 5
19E
 10
7849.944
 20
2050.747
 30
0
 11
7909.944
 21
2050.747
 31
0
 0
ARC
 8
TOOL_0
 5
19F
 10
7909.944
 20
2099.747
 30
0
 40
49.0
 50
270.0
 51
0
210
0
220
0
230
1.0
 0
LINE
 8
TOOL_0
 5
1A0
 10
7958.944
 20
2099.747
 30
0
 11
7958.944
 21
2180.747
 31
0
 0
LINE
 8
TOOL_0
 5
1A1
 10
7958.944
 20
2180.747
 30
0
 11
7958.944
 21
2185.834
 31
0
 0
ENDSEC
 0
EOF

