0
SECTION
2
TABLES
0
TABLE
2
LAYER
70
0
0
LAYER
2
LAYER_NAME
70
0
62
1
6
CONTINUOUS
0
ENDTAB
0
ENDSEC
 0
SECTION
 2
ENTITIES
 0
LINE
 8
TOOL_0
 5
1
 10
465.052
 20
169.06
 30
0
 11
500.052
 21
169.06
 31
0
 0
ARC
 8
TOOL_0
 5
2
 10
407.052
 20
169.06
 30
0
 40
93.0
 50
0
 51
180.0
210
0
220
0
230
1.0
 0
ARC
 8
TOOL_0
 5
3
 10
407.052
 20
169.06
 30
0
 40
93.0
 50
180.0
 51
0
210
0
220
0
230
1.0
 0
LINE
 8
TOOL_0
 5
4
 10
500.052
 20
169.06
 30
0
 11
489.445
 21
179.667
 31
0
 0
LINE
 8
TOOL_0
 5
5
 10
489.445
 20
179.667
 30
0
 11
534.193
 21
45.095
 31
0
 0
LINE
 8
TOOL_0
 5
6
 10
534.193
 20
45.095
 30
0
 11
499.476
 21
49.534
 31
0
 0
LINE
 8
TOOL_0
 5
7
 10
499.476
 20
49.534
 30
0
 11
496.699
 21
50.673
 31
0
 0
ARC
 8
TOOL_0
 5
8
 10
407.052
 20
169.061
 30
0
 40
148.500178966222
 50
127.71343290271
 51
307.134114760915
210
0
220
0
230
1.0
 0
ARC
 8
TOOL_0
 5
9
 10
407.052
 20
169.06
 30
0
 40
148.500284501411
 50
308.291517963517
 51
127.713196886018
210
0
220
0
230
1.0
 0
LINE
 8
TOOL_0
 5
A
 10
499.072
 20
52.507
 30
0
 11
499.476
 21
49.533
 31
0
 0
LINE
 8
TOOL_0
 5
B
 10
499.476
 20
49.533
 30
0
 11
498.842
 21
44.573
 31
0
 0
LINE
 8
TOOL_0
 5
C
 10
498.842
 20
44.573
 30
0
 11
777.965
 21
166.737
 31
0
 0
LINE
 8
TOOL_0
 5
D
 10
777.965
 20
166.737
 30
0
 11
812.965
 21
166.737
 31
0
 0
ARC
 8
TOOL_0
 5
E
 10
719.965
 20
166.737
 30
0
 40
93.0
 50
0
 51
180.0
210
0
220
0
230
1.0
 0
ARC
 8
TOOL_0
 5
F
 10
719.965
 20
166.737
 30
0
 40
93.0
 50
180.0
 51
0
210
0
220
0
230
1.0
 0
LINE
 8
TOOL_0
 5
10
 10
812.965
 20
166.737
 30
0
 11
802.358
 21
177.344
 31
0
 0
LINE
 8
TOOL_0
 5
11
 10
802.358
 20
177.344
 30
0
 11
847.106
 21
42.771
 31
0
 0
LINE
 8
TOOL_0
 5
12
 10
847.106
 20
42.771
 30
0
 11
812.389
 21
47.21
 31
0
 0
LINE
 8
TOOL_0
 5
13
 10
812.389
 20
47.21
 30
0
 11
809.612
 21
48.349
 31
0
 0
ARC
 8
TOOL_0
 5
14
 10
719.965
 20
166.737
 30
0
 40
148.500178966222
 50
127.71343290271
 51
307.134114760915
210
0
220
0
230
1.0
 0
ARC
 8
TOOL_0
 5
15
 10
719.965
 20
166.736
 30
0
 40
148.500284501411
 50
308.291517963517
 51
127.713196886018
210
0
220
0
230
1.0
 0
LINE
 8
TOOL_0
 5
16
 10
811.985
 20
50.183
 30
0
 11
812.389
 21
47.209
 31
0
 0
LINE
 8
TOOL_0
 5
17
 10
812.389
 20
47.209
 30
0
 11
811.755
 21
42.249
 31
0
 0
LINE
 8
TOOL_0
 5
18
 10
811.755
 20
42.249
 30
0
 11
1089.554
 21
185.317
 31
0
 0
LINE
 8
TOOL_0
 5
19
 10
1089.554
 20
185.317
 30
0
 11
1124.554
 21
185.317
 31
0
 0
ARC
 8
TOOL_0
 5
1A
 10
1031.554
 20
185.317
 30
0
 40
93.0
 50
0
 51
180.0
210
0
220
0
230
1.0
 0
ARC
 8
TOOL_0
 5
1B
 10
1031.554
 20
185.317
 30
0
 40
93.0
 50
180.0
 51
0
210
0
220
0
230
1.0
 0
LINE
 8
TOOL_0
 5
1C
 10
1124.554
 20
185.317
 30
0
 11
1113.947
 21
195.924
 31
0
 0
LINE
 8
TOOL_0
 5
1D
 10
1113.947
 20
195.924
 30
0
 11
1158.695
 21
61.352
 31
0
 0
LINE
 8
TOOL_0
 5
1E
 10
1158.695
 20
61.352
 30
0
 11
1123.978
 21
65.791
 31
0
 0
LINE
 8
TOOL_0
 5
1F
 10
1123.978
 20
65.791
 30
0
 11
1121.201
 21
66.93
 31
0
 0
ARC
 8
TOOL_0
 5
20
 10
1031.554
 20
185.318
 30
0
 40
148.500178966222
 50
127.71343290271
 51
307.134114760915
210
0
220
0
230
1.0
 0
ARC
 8
TOOL_0
 5
21
 10
1031.554
 20
185.317
 30
0
 40
148.500284501411
 50
308.291517963517
 51
127.713196886018
210
0
220
0
230
1.0
 0
LINE
 8
TOOL_0
 5
22
 10
1123.574
 20
68.764
 30
0
 11
1123.978
 21
65.79
 31
0
 0
LINE
 8
TOOL_0
 5
23
 10
1123.978
 20
65.79
 30
0
 11
1123.344
 21
60.83
 31
0
 0
LINE
 8
TOOL_0
 5
24
 10
1123.344
 20
60.83
 30
0
 11
1401.474
 21
167.73
 31
0
 0
LINE
 8
TOOL_0
 5
25
 10
1401.474
 20
167.73
 30
0
 11
1436.474
 21
167.73
 31
0
 0
ARC
 8
TOOL_0
 5
26
 10
1343.474
 20
167.73
 30
0
 40
93.0
 50
0
 51
180.0
210
0
220
0
230
1.0
 0
ARC
 8
TOOL_0
 5
27
 10
1343.474
 20
167.73
 30
0
 40
93.0
 50
180.0
 51
0
210
0
220
0
230
1.0
 0
LINE
 8
TOOL_0
 5
28
 10
1436.474
 20
167.73
 30
0
 11
1425.867
 21
178.337
 31
0
 0
LINE
 8
TOOL_0
 5
29
 10
1425.867
 20
178.337
 30
0
 11
1470.616
 21
43.765
 31
0
 0
LINE
 8
TOOL_0
 5
2A
 10
1470.616
 20
43.765
 30
0
 11
1435.898
 21
48.204
 31
0
 0
LINE
 8
TOOL_0
 5
2B
 10
1435.898
 20
48.204
 30
0
 11
1433.121
 21
49.343
 31
0
 0
ARC
 8
TOOL_0
 5
2C
 10
1343.474
 20
167.731
 30
0
 40
148.500178966222
 50
127.71343290271
 51
307.134114760915
210
0
220
0
230
1.0
 0
ARC
 8
TOOL_0
 5
2D
 10
1343.474
 20
167.73
 30
0
 40
148.500284501411
 50
308.291517963517
 51
127.713196886018
210
0
220
0
230
1.0
 0
LINE
 8
TOOL_0
 5
2E
 10
1435.494
 20
51.177
 30
0
 11
1435.898
 21
48.203
 31
0
 0
LINE
 8
TOOL_0
 5
2F
 10
1435.898
 20
48.203
 30
0
 11
1435.264
 21
43.243
 31
0
 0
LINE
 8
TOOL_0
 5
30
 10
1435.264
 20
43.243
 30
0
 11
1714.718
 21
166.734
 31
0
 0
LINE
 8
TOOL_0
 5
31
 10
1714.718
 20
166.734
 30
0
 11
1749.718
 21
166.734
 31
0
 0
ARC
 8
TOOL_0
 5
32
 10
1656.718
 20
166.734
 30
0
 40
93.0
 50
0
 51
180.0
210
0
220
0
230
1.0
 0
ARC
 8
TOOL_0
 5
33
 10
1656.718
 20
166.734
 30
0
 40
93.0
 50
180.0
 51
0
210
0
220
0
230
1.0
 0
LINE
 8
TOOL_0
 5
34
 10
1749.718
 20
166.734
 30
0
 11
1739.111
 21
177.341
 31
0
 0
LINE
 8
TOOL_0
 5
35
 10
1739.111
 20
177.341
 30
0
 11
1783.859
 21
42.768
 31
0
 0
LINE
 8
TOOL_0
 5
36
 10
1783.859
 20
42.768
 30
0
 11
1749.142
 21
47.207
 31
0
 0
LINE
 8
TOOL_0
 5
37
 10
1749.142
 20
47.207
 30
0
 11
1746.365
 21
48.346
 31
0
 0
ARC
 8
TOOL_0
 5
38
 10
1656.718
 20
166.734
 30
0
 40
148.500178966222
 50
127.71343290271
 51
307.134114760915
210
0
220
0
230
1.0
 0
ARC
 8
TOOL_0
 5
39
 10
1656.718
 20
166.733
 30
0
 40
148.500284501411
 50
308.291517963517
 51
127.713196886018
210
0
220
0
230
1.0
 0
LINE
 8
TOOL_0
 5
3A
 10
1748.738
 20
50.18
 30
0
 11
1749.142
 21
47.206
 31
0
 0
LINE
 8
TOOL_0
 5
3B
 10
1749.142
 20
47.206
 30
0
 11
1748.508
 21
42.246
 31
0
 0
LINE
 8
TOOL_0
 5
3C
 10
1748.508
 20
42.246
 30
0
 11
1839.746
 21
-0.005
 31
0
 0
LINE
 8
TOOL_0
 5
3D
 10
1839.746
 20
-0.005
 30
0
 11
1839.746
 21
0.995
 31
0
 0
LINE
 8
TOOL_0
 5
3E
 10
1839.746
 20
0.995
 30
0
 11
1839.746
 21
-0.005
 31
0
 0
LINE
 8
TOOL_0
 5
3F
 10
1839.746
 20
-0.005
 30
0
 11
1839.746
 21
-0.005
 31
0
 0
LINE
 8
TOOL_0
 5
40
 10
1839.746
 20
-0.005
 30
0
 11
1839.746
 21
0.995
 31
0
 0
LINE
 8
TOOL_0
 5
41
 10
1839.746
 20
0.995
 30
0
 11
1839.746
 21
1304.02
 31
0
 0
LINE
 8
TOOL_0
 5
42
 10
1839.746
 20
1304.02
 30
0
 11
0.999
 21
1304.02
 31
0
 0
LINE
 8
TOOL_0
 5
43
 10
0.999
 20
1304.02
 30
0
 11
-0.001
 21
1304.02
 31
0
 0
ENDSEC
 0
EOF

