0
SECTION
2
TABLES
0
TABLE
2
LAYER
70
0
0
LAYER
2
LAYER_NAME
70
0
62
1
6
CONTINUOUS
0
ENDTAB
0
ENDSEC
 0
SECTION
 2
ENTITIES
 0
LINE
 8
TOOL_0
 5
1
 10
502.04
 20
12.669
 30
0
 11
453.052
 21
4.438
 31
0
 0
LINE
 8
TOOL_0
 5
2
 10
453.052
 20
4.438
 30
0
 11
451.489
 21
7.001
 31
0
 0
LINE
 8
TOOL_0
 5
3
 10
451.489
 20
7.001
 30
0
 11
65.81
 21
7.001
 31
0
 0
ARC
 8
TOOL_0
 5
4
 10
65.822
 20
12.014
 30
0
 40
5.013014362637
 50
184.140989165551
 51
269.862846989646
210
0
220
0
230
1.0
 0
LINE
 8
TOOL_0
 5
5
 10
60.822
 20
11.652
 30
0
 11
57.605
 21
57.653
 31
0
 0
ARC
 8
TOOL_0
 5
6
 10
33.586
 20
55.945
 30
0
 40
24.079651679374
 50
4.067477372201
 51
42.733060840556
210
0
220
0
230
1.0
 0
LINE
 8
TOOL_0
 5
7
 10
51.273
 20
72.285
 30
0
 11
25.894
 21
99.692
 31
0
 0
ARC
 8
TOOL_0
 5
8
 10
78.014
 20
147.932
 30
0
 40
71.018251175314
 50
183.614329952714
 51
222.786000740381
210
0
220
0
230
1.0
 0
ARC
 8
TOOL_0
 5
9
 10
387.225
 20
156.361
 30
0
 40
380.307050394809
 50
178.823891949184
 51
181.944747893435
210
0
220
0
230
1.0
 0
ARC
 8
TOOL_0
 5
A
 10
78.183
 20
162.989
 30
0
 40
71.194746358141
 50
137.261452095985
 51
179.051931331741
210
0
220
0
230
1.0
 0
LINE
 8
TOOL_0
 5
B
 10
25.893
 20
211.306
 30
0
 11
51.273
 21
238.714
 31
0
 0
ARC
 8
TOOL_0
 5
C
 10
33.586
 20
255.054
 30
0
 40
24.07956745874
 50
317.266939159444
 51
355.932522627799
210
0
220
0
230
1.0
 0
LINE
 8
TOOL_0
 5
D
 10
57.605
 20
253.346
 30
0
 11
60.822
 21
299.348
 31
0
 0
ARC
 8
TOOL_0
 5
E
 10
65.822
 20
298.986
 30
0
 40
5.01308727233
 50
90.137153010354
 51
175.859010834448
210
0
220
0
230
1.0
 0
LINE
 8
TOOL_0
 5
F
 10
65.81
 20
303.999
 30
0
 11
452.989
 21
303.999
 31
0
 0
ARC
 8
TOOL_0
 5
10
 10
452.989
 20
288.499
 30
0
 40
15.5
 50
0
 51
90.0
210
0
220
0
230
1.0
 0
LINE
 8
TOOL_0
 5
11
 10
468.489
 20
288.499
 30
0
 11
468.489
 21
265.132
 31
0
 0
ARC
 8
TOOL_0
 5
12
 10
498.067
 20
265.191
 30
0
 40
29.578058844353
 50
180.1142892186
 51
253.884844841912
210
0
220
0
230
1.0
 0
LINE
 8
TOOL_0
 5
13
 10
489.857
 20
236.775
 30
0
 11
628.074
 21
197.142
 31
0
 0
ARC
 8
TOOL_0
 5
14
 10
636.302
 20
226.107
 30
0
 40
30.110981534982
 50
254.141902526385
 51
267.855029101452
210
0
220
0
230
1.0
 0
LINE
 8
TOOL_0
 5
15
 10
635.175
 20
196.017
 30
0
 11
995.989
 21
195.999
 31
0
 0
ARC
 8
TOOL_0
 5
16
 10
995.989
 20
190.999
 30
0
 40
5.0
 50
0
 51
90.0
210
0
220
0
230
1.0
 0
LINE
 8
TOOL_0
 5
17
 10
1000.989
 20
190.999
 30
0
 11
1000.989
 21
119.999
 31
0
 0
ARC
 8
TOOL_0
 5
18
 10
995.989
 20
119.999
 30
0
 40
5.0
 50
270.0
 51
0
210
0
220
0
230
1.0
 0
LINE
 8
TOOL_0
 5
19
 10
995.989
 20
114.999
 30
0
 11
636.205
 21
114.999
 31
0
 0
ARC
 8
TOOL_0
 5
1A
 10
636.205
 20
85.499
 30
0
 40
29.5
 50
90.0
 51
105.999553963965
210
0
220
0
230
1.0
 0
LINE
 8
TOOL_0
 5
1B
 10
628.074
 20
113.856
 30
0
 11
489.858
 21
74.223
 31
0
 0
ARC
 8
TOOL_0
 5
1C
 10
498.068
 20
45.807
 30
0
 40
29.578254782864
 50
106.115155158087
 51
179.885714645253
210
0
220
0
230
1.0
 0
LINE
 8
TOOL_0
 5
1D
 10
468.489
 20
45.866
 30
0
 11
468.489
 21
22.499
 31
0
 0
ARC
 8
TOOL_0
 5
1E
 10
452.989
 20
22.499
 30
0
 40
15.5
 50
275.549853902094
 51
0
210
0
220
0
230
1.0
 0
LINE
 8
TOOL_0
 5
1F
 10
454.488
 20
7.072
 30
0
 11
453.051
 21
4.436
 31
0
 0
LINE
 8
TOOL_0
 5
20
 10
453.051
 20
4.436
 30
0
 11
449.723
 21
1.58
 31
0
 0
LINE
 8
TOOL_0
 5
21
 10
449.723
 20
1.58
 30
0
 11
1016.983
 21
71.724
 31
0
 0
LINE
 8
TOOL_0
 5
22
 10
1016.983
 20
71.724
 30
0
 11
1016.756
 21
123.286
 31
0
 0
LINE
 8
TOOL_0
 5
23
 10
1016.756
 20
123.286
 30
0
 11
1019.235
 21
124.979
 31
0
 0
LINE
 8
TOOL_0
 5
24
 10
1019.235
 20
124.979
 30
0
 11
1019.235
 21
194.479
 31
0
 0
ARC
 8
TOOL_0
 5
25
 10
1024.235
 20
194.479
 30
0
 40
5.0
 50
90.0
 51
180.0
210
0
220
0
230
1.0
 0
LINE
 8
TOOL_0
 5
26
 10
1024.235
 20
199.479
 30
0
 11
1384.019
 21
199.479
 31
0
 0
ARC
 8
TOOL_0
 5
27
 10
1384.019
 20
228.979
 30
0
 40
29.5
 50
270.0
 51
285.999553963966
210
0
220
0
230
1.0
 0
LINE
 8
TOOL_0
 5
28
 10
1392.15
 20
200.622
 30
0
 11
1530.367
 21
240.255
 31
0
 0
ARC
 8
TOOL_0
 5
29
 10
1522.157
 20
268.671
 30
0
 40
29.578254782864
 50
286.115155158088
 51
359.885714645253
210
0
220
0
230
1.0
 0
LINE
 8
TOOL_0
 5
2A
 10
1551.736
 20
268.612
 30
0
 11
1551.736
 21
291.979
 31
0
 0
ARC
 8
TOOL_0
 5
2B
 10
1567.236
 20
291.979
 30
0
 40
15.5
 50
90.0
 51
180.0
210
0
220
0
230
1.0
 0
LINE
 8
TOOL_0
 5
2C
 10
1567.236
 20
307.479
 30
0
 11
1954.415
 21
307.479
 31
0
 0
ARC
 8
TOOL_0
 5
2D
 10
1954.403
 20
302.466
 30
0
 40
5.013014362636
 50
4.140989165551
 51
89.862846989647
210
0
220
0
230
1.0
 0
LINE
 8
TOOL_0
 5
2E
 10
1959.403
 20
302.828
 30
0
 11
1962.62
 21
256.827
 31
0
 0
ARC
 8
TOOL_0
 5
2F
 10
1986.639
 20
258.535
 30
0
 40
24.079651679374
 50
184.067477372201
 51
222.733060840556
210
0
220
0
230
1.0
 0
LINE
 8
TOOL_0
 5
30
 10
1968.952
 20
242.195
 30
0
 11
1994.332
 21
214.788
 31
0
 0
ARC
 8
TOOL_0
 5
31
 10
1942.212
 20
166.548
 30
0
 40
71.018251175314
 50
3.614329952715
 51
42.786000740381
210
0
220
0
230
1.0
 0
ARC
 8
TOOL_0
 5
32
 10
1633.001
 20
158.119
 30
0
 40
380.307050394809
 50
358.823741324326
 51
1.944747893435
210
0
220
0
230
1.0
 0
ARC
 8
TOOL_0
 5
33
 10
1942.043
 20
151.49
 30
0
 40
71.194746358141
 50
317.260905930912
 51
359.051931331741
210
0
220
0
230
1.0
 0
LINE
 8
TOOL_0
 5
34
 10
1994.332
 20
103.173
 30
0
 11
1968.953
 21
75.766
 31
0
 0
ARC
 8
TOOL_0
 5
35
 10
1986.64
 20
59.426
 30
0
 40
24.07956745874
 50
137.266939159444
 51
175.932522627799
210
0
220
0
230
1.0
 0
LINE
 8
TOOL_0
 5
36
 10
1962.621
 20
61.134
 30
0
 11
1959.404
 21
15.133
 31
0
 0
ARC
 8
TOOL_0
 5
37
 10
1954.404
 20
15.495
 30
0
 40
5.01308727233
 50
270.137153010353
 51
355.859010834449
210
0
220
0
230
1.0
 0
LINE
 8
TOOL_0
 5
38
 10
1954.416
 20
10.482
 30
0
 11
1567.237
 21
10.482
 31
0
 0
ARC
 8
TOOL_0
 5
39
 10
1567.237
 20
25.982
 30
0
 40
15.5
 50
180.0
 51
270.0
210
0
220
0
230
1.0
 0
LINE
 8
TOOL_0
 5
3A
 10
1551.737
 20
25.982
 30
0
 11
1551.737
 21
49.349
 31
0
 0
ARC
 8
TOOL_0
 5
3B
 10
1522.159
 20
49.29
 30
0
 40
29.578058844353
 50
0.1142892186
 51
73.886705834146
210
0
220
0
230
1.0
 0
LINE
 8
TOOL_0
 5
3C
 10
1530.368
 20
77.706
 30
0
 11
1392.152
 21
117.339
 31
0
 0
ARC
 8
TOOL_0
 5
3D
 10
1383.924
 20
88.374
 30
0
 40
30.110981534982
 50
74.141902526386
 51
87.856930583249
210
0
220
0
230
1.0
 0
LINE
 8
TOOL_0
 5
3E
 10
1385.05
 20
118.464
 30
0
 11
1024.237
 21
118.482
 31
0
 0
ARC
 8
TOOL_0
 5
3F
 10
1024.237
 20
123.482
 30
0
 40
5.0
 50
197.351289982618
 51
270.0
210
0
220
0
230
1.0
 0
LINE
 8
TOOL_0
 5
40
 10
1019.465
 20
121.991
 30
0
 11
1016.759
 21
123.289
 31
0
 0
LINE
 8
TOOL_0
 5
41
 10
1016.759
 20
123.289
 30
0
 11
1012.465
 21
126.341
 31
0
 0
LINE
 8
TOOL_0
 5
42
 10
1012.465
 20
126.341
 30
0
 11
1012.465
 21
0.002
 31
0
 0
LINE
 8
TOOL_0
 5
43
 10
1012.465
 20
0.002
 30
0
 11
970.343
 21
546.944
 31
0
 0
LINE
 8
TOOL_0
 5
44
 10
970.343
 20
546.944
 30
0
 11
941.361
 21
546.144
 31
0
 0
LINE
 8
TOOL_0
 5
45
 10
941.361
 20
546.144
 30
0
 11
639.861
 21
546.144
 31
0
 0
LINE
 8
TOOL_0
 5
46
 10
639.861
 20
546.144
 30
0
 11
639.861
 21
617.644
 31
0
 0
LINE
 8
TOOL_0
 5
47
 10
639.861
 20
617.644
 30
0
 11
941.361
 21
617.644
 31
0
 0
LINE
 8
TOOL_0
 5
48
 10
941.361
 20
617.644
 30
0
 11
941.361
 21
546.144
 31
0
 0
LINE
 8
TOOL_0
 5
49
 10
941.361
 20
546.144
 30
0
 11
932.699
 21
540.394
 31
0
 0
LINE
 8
TOOL_0
 5
4A
 10
932.699
 20
540.394
 30
0
 11
1359.896
 21
538.015
 31
0
 0
LINE
 8
TOOL_0
 5
4B
 10
1359.896
 20
538.015
 30
0
 11
1329.862
 21
538.489
 31
0
 0
LINE
 8
TOOL_0
 5
4C
 10
1329.862
 20
538.489
 30
0
 11
1028.362
 21
538.489
 31
0
 0
LINE
 8
TOOL_0
 5
4D
 10
1028.362
 20
538.489
 30
0
 11
1028.362
 21
609.989
 31
0
 0
LINE
 8
TOOL_0
 5
4E
 10
1028.362
 20
609.989
 30
0
 11
1329.862
 21
609.989
 31
0
 0
LINE
 8
TOOL_0
 5
4F
 10
1329.862
 20
609.989
 30
0
 11
1329.862
 21
538.489
 31
0
 0
LINE
 8
TOOL_0
 5
50
 10
1329.862
 20
538.489
 30
0
 11
1321.817
 21
531.983
 31
0
 0
LINE
 8
TOOL_0
 5
51
 10
1321.817
 20
531.983
 30
0
 11
977.141
 21
653.921
 31
0
 0
LINE
 8
TOOL_0
 5
52
 10
977.141
 20
653.921
 30
0
 11
948.299
 21
654.015
 31
0
 0
LINE
 8
TOOL_0
 5
53
 10
948.299
 20
654.015
 30
0
 11
646.799
 21
654.015
 31
0
 0
LINE
 8
TOOL_0
 5
54
 10
646.799
 20
654.015
 30
0
 11
646.799
 21
725.515
 31
0
 0
LINE
 8
TOOL_0
 5
55
 10
646.799
 20
725.515
 30
0
 11
948.299
 21
725.515
 31
0
 0
LINE
 8
TOOL_0
 5
56
 10
948.299
 20
725.515
 30
0
 11
948.299
 21
654.015
 31
0
 0
LINE
 8
TOOL_0
 5
57
 10
948.299
 20
654.015
 30
0
 11
935.025
 21
646.636
 31
0
 0
LINE
 8
TOOL_0
 5
58
 10
935.025
 20
646.636
 30
0
 11
1370.209
 21
648.283
 31
0
 0
LINE
 8
TOOL_0
 5
59
 10
1370.209
 20
648.283
 30
0
 11
1333.331
 21
647.055
 31
0
 0
LINE
 8
TOOL_0
 5
5A
 10
1333.331
 20
647.055
 30
0
 11
1031.831
 21
647.055
 31
0
 0
LINE
 8
TOOL_0
 5
5B
 10
1031.831
 20
647.055
 30
0
 11
1031.831
 21
718.555
 31
0
 0
LINE
 8
TOOL_0
 5
5C
 10
1031.831
 20
718.555
 30
0
 11
1333.331
 21
718.555
 31
0
 0
LINE
 8
TOOL_0
 5
5D
 10
1333.331
 20
718.555
 30
0
 11
1333.331
 21
647.055
 31
0
 0
LINE
 8
TOOL_0
 5
5E
 10
1333.331
 20
647.055
 30
0
 11
1324.906
 21
641.746
 31
0
 0
LINE
 8
TOOL_0
 5
5F
 10
1324.906
 20
641.746
 30
0
 11
1020.29
 21
860.736
 31
0
 0
LINE
 8
TOOL_0
 5
60
 10
1020.29
 20
860.736
 30
0
 11
990.644
 21
866.278
 31
0
 0
LINE
 8
TOOL_0
 5
61
 10
990.644
 20
866.278
 30
0
 11
639.144
 21
866.278
 31
0
 0
LINE
 8
TOOL_0
 5
62
 10
639.144
 20
866.278
 30
0
 11
639.144
 21
937.778
 31
0
 0
LINE
 8
TOOL_0
 5
63
 10
639.144
 20
937.778
 30
0
 11
990.644
 21
937.778
 31
0
 0
LINE
 8
TOOL_0
 5
64
 10
990.644
 20
937.778
 30
0
 11
990.644
 21
866.278
 31
0
 0
LINE
 8
TOOL_0
 5
65
 10
990.644
 20
866.278
 30
0
 11
982.551
 21
860.736
 31
0
 0
LINE
 8
TOOL_0
 5
66
 10
982.551
 20
860.736
 30
0
 11
1438.426
 21
873.576
 31
0
 0
LINE
 8
TOOL_0
 5
67
 10
1438.426
 20
873.576
 30
0
 11
1391.83
 21
871.497
 31
0
 0
LINE
 8
TOOL_0
 5
68
 10
1391.83
 20
871.497
 30
0
 11
1040.33
 21
871.497
 31
0
 0
LINE
 8
TOOL_0
 5
69
 10
1040.33
 20
871.497
 30
0
 11
1040.33
 21
942.997
 31
0
 0
LINE
 8
TOOL_0
 5
6A
 10
1040.33
 20
942.997
 30
0
 11
1391.83
 21
942.997
 31
0
 0
LINE
 8
TOOL_0
 5
6B
 10
1391.83
 20
942.997
 30
0
 11
1391.83
 21
871.497
 31
0
 0
LINE
 8
TOOL_0
 5
6C
 10
1391.83
 20
871.497
 30
0
 11
1381.968
 21
863.278
 31
0
 0
LINE
 8
TOOL_0
 5
6D
 10
1381.968
 20
863.278
 30
0
 11
596.691
 21
1044.342
 31
0
 0
LINE
 8
TOOL_0
 5
6E
 10
596.691
 20
1044.342
 30
0
 11
642.613
 21
1045.65
 31
0
 0
LINE
 8
TOOL_0
 5
6F
 10
642.613
 20
1045.65
 30
0
 11
994.113
 21
1045.65
 31
0
 0
LINE
 8
TOOL_0
 5
70
 10
994.113
 20
1045.65
 30
0
 11
994.113
 21
974.15
 31
0
 0
LINE
 8
TOOL_0
 5
71
 10
994.113
 20
974.15
 30
0
 11
642.613
 21
974.15
 31
0
 0
LINE
 8
TOOL_0
 5
72
 10
642.613
 20
974.15
 30
0
 11
642.613
 21
1045.65
 31
0
 0
LINE
 8
TOOL_0
 5
73
 10
642.613
 20
1045.65
 30
0
 11
661.703
 21
1052.066
 31
0
 0
LINE
 8
TOOL_0
 5
74
 10
661.703
 20
1052.066
 30
0
 11
1435.486
 21
967.089
 31
0
 0
LINE
 8
TOOL_0
 5
75
 10
1435.486
 20
967.089
 30
0
 11
1393.019
 21
967.191
 31
0
 0
LINE
 8
TOOL_0
 5
76
 10
1393.019
 20
967.191
 30
0
 11
1041.519
 21
967.191
 31
0
 0
LINE
 8
TOOL_0
 5
77
 10
1041.519
 20
967.191
 30
0
 11
1041.519
 21
1038.691
 31
0
 0
LINE
 8
TOOL_0
 5
78
 10
1041.519
 20
1038.691
 30
0
 11
1393.019
 21
1038.691
 31
0
 0
LINE
 8
TOOL_0
 5
79
 10
1393.019
 20
1038.691
 30
0
 11
1393.019
 21
967.191
 31
0
 0
LINE
 8
TOOL_0
 5
7A
 10
1393.019
 20
967.191
 30
0
 11
1385.613
 21
960.835
 31
0
 0
LINE
 8
TOOL_0
 5
7B
 10
1385.613
 20
960.835
 30
0
 11
2002.422
 21
1313.167
 31
0
 0
LINE
 8
TOOL_0
 5
7C
 10
2002.422
 20
1313.167
 30
0
 11
1956.819
 21
1314.547
 31
0
 0
LINE
 8
TOOL_0
 5
7D
 10
1956.819
 20
1314.547
 30
0
 11
1955.126
 21
1317.026
 31
0
 0
LINE
 8
TOOL_0
 5
7E
 10
1955.126
 20
1317.026
 30
0
 11
1596.842
 21
1317.026
 31
0
 0
ARC
 8
TOOL_0
 5
7F
 10
1596.842
 20
1287.526
 30
0
 40
29.5
 50
90.0
 51
105.999553963966
210
0
220
0
230
1.0
 0
LINE
 8
TOOL_0
 5
80
 10
1588.711
 20
1315.883
 30
0
 11
1450.495
 21
1276.25
 31
0
 0
ARC
 8
TOOL_0
 5
81
 10
1458.705
 20
1247.834
 30
0
 40
29.578254782864
 50
106.115155158087
 51
179.885714645253
210
0
220
0
230
1.0
 0
LINE
 8
TOOL_0
 5
82
 10
1429.126
 20
1247.893
 30
0
 11
1429.126
 21
1224.526
 31
0
 0
ARC
 8
TOOL_0
 5
83
 10
1413.626
 20
1224.526
 30
0
 40
15.5
 50
270.0
 51
0
210
0
220
0
230
1.0
 0
LINE
 8
TOOL_0
 5
84
 10
1413.626
 20
1209.026
 30
0
 11
1026.447
 21
1209.026
 31
0
 0
ARC
 8
TOOL_0
 5
85
 10
1026.459
 20
1214.039
 30
0
 40
5.013014362636
 50
184.140989165549
 51
269.862846989646
210
0
220
0
230
1.0
 0
LINE
 8
TOOL_0
 5
86
 10
1021.459
 20
1213.677
 30
0
 11
1018.242
 21
1259.678
 31
0
 0
ARC
 8
TOOL_0
 5
87
 10
994.223
 20
1257.97
 30
0
 40
24.079651679374
 50
4.067477372201
 51
42.733060840556
210
0
220
0
230
1.0
 0
LINE
 8
TOOL_0
 5
88
 10
1011.91
 20
1274.31
 30
0
 11
986.531
 21
1301.717
 31
0
 0
ARC
 8
TOOL_0
 5
89
 10
1038.651
 20
1349.957
 30
0
 40
71.018251175314
 50
183.614329952714
 51
222.786000740381
210
0
220
0
230
1.0
 0
ARC
 8
TOOL_0
 5
8A
 10
1347.862
 20
1358.386
 30
0
 40
380.307050394809
 50
178.823891949184
 51
181.944747893435
210
0
220
0
230
1.0
 0
ARC
 8
TOOL_0
 5
8B
 10
1038.82
 20
1365.014
 30
0
 40
71.194746358141
 50
137.261452095985
 51
179.051931331741
210
0
220
0
230
1.0
 0
LINE
 8
TOOL_0
 5
8C
 10
986.53
 20
1413.331
 30
0
 11
1011.91
 21
1440.739
 31
0
 0
ARC
 8
TOOL_0
 5
8D
 10
994.223
 20
1457.079
 30
0
 40
24.07956745874
 50
317.266939159444
 51
355.9325226278
210
0
220
0
230
1.0
 0
LINE
 8
TOOL_0
 5
8E
 10
1018.242
 20
1455.371
 30
0
 11
1021.459
 21
1501.373
 31
0
 0
ARC
 8
TOOL_0
 5
8F
 10
1026.459
 20
1501.011
 30
0
 40
5.01308727233
 50
90.137153010353
 51
175.859010834448
210
0
220
0
230
1.0
 0
LINE
 8
TOOL_0
 5
90
 10
1026.447
 20
1506.024
 30
0
 11
1413.626
 21
1506.024
 31
0
 0
ARC
 8
TOOL_0
 5
91
 10
1413.626
 20
1490.524
 30
0
 40
15.5
 50
0
 51
90.0
210
0
220
0
230
1.0
 0
LINE
 8
TOOL_0
 5
92
 10
1429.126
 20
1490.524
 30
0
 11
1429.126
 21
1467.157
 31
0
 0
ARC
 8
TOOL_0
 5
93
 10
1458.704
 20
1467.216
 30
0
 40
29.578058844353
 50
180.1142892186
 51
253.884844841912
210
0
220
0
230
1.0
 0
LINE
 8
TOOL_0
 5
94
 10
1450.494
 20
1438.8
 30
0
 11
1588.711
 21
1399.167
 31
0
 0
ARC
 8
TOOL_0
 5
95
 10
1596.939
 20
1428.132
 30
0
 40
30.110981534982
 50
254.141902526385
 51
267.855029101452
210
0
220
0
230
1.0
 0
LINE
 8
TOOL_0
 5
96
 10
1595.812
 20
1398.042
 30
0
 11
1956.626
 21
1398.024
 31
0
 0
ARC
 8
TOOL_0
 5
97
 10
1956.626
 20
1393.024
 30
0
 40
5.0
 50
0
 51
90.0
210
0
220
0
230
1.0
 0
LINE
 8
TOOL_0
 5
98
 10
1961.626
 20
1393.024
 30
0
 11
1961.626
 21
1322.024
 31
0
 0
ARC
 8
TOOL_0
 5
99
 10
1956.626
 20
1322.024
 30
0
 40
5.0
 50
287.351289982618
 51
0
210
0
220
0
230
1.0
 0
LINE
 8
TOOL_0
 5
9A
 10
1958.117
 20
1317.252
 30
0
 11
1956.819
 21
1314.546
 31
0
 0
LINE
 8
TOOL_0
 5
9B
 10
1956.819
 20
1314.546
 30
0
 11
1952.044
 21
1310.437
 31
0
 0
LINE
 8
TOOL_0
 5
9C
 10
1952.044
 20
1310.437
 30
0
 11
1842.111
 21
1659.955
 31
0
 0
LINE
 8
TOOL_0
 5
9D
 10
1842.111
 20
1659.955
 30
0
 11
1863.324
 21
1681.168
 31
0
 0
ARC
 8
TOOL_0
 5
9E
 10
1821.958
 20
1639.802
 30
0
 40
58.500358221125
 50
45.0
 51
225.0
210
0
220
0
230
1.0
 0
ARC
 8
TOOL_0
 5
9F
 10
1821.959
 20
1639.803
 30
0
 40
58.500358221125
 50
225.0
 51
44.999307444857
210
0
220
0
230
1.0
 0
LINE
 8
TOOL_0
 5
A0
 10
1863.325
 20
1681.168
 30
0
 11
1858.325
 21
1681.168
 31
0
 0
LINE
 8
TOOL_0
 5
A1
 10
1858.325
 20
1681.168
 30
0
 11
1994.352
 21
1783.194
 31
0
 0
LINE
 8
TOOL_0
 5
A2
 10
1994.352
 20
1783.194
 30
0
 11
1990.709
 21
1743.552
 31
0
 0
LINE
 8
TOOL_0
 5
A3
 10
1990.709
 20
1743.552
 30
0
 11
1990.709
 21
1693.552
 31
0
 0
LINE
 8
TOOL_0
 5
A4
 10
1990.709
 20
1693.552
 30
0
 11
2033.209
 21
1693.552
 31
0
 0
LINE
 8
TOOL_0
 5
A5
 10
2033.209
 20
1693.552
 30
0
 11
2033.209
 21
1586.052
 31
0
 0
LINE
 8
TOOL_0
 5
A6
 10
2033.209
 20
1586.052
 30
0
 11
1990.709
 21
1586.052
 31
0
 0
LINE
 8
TOOL_0
 5
A7
 10
1990.709
 20
1586.052
 30
0
 11
1990.709
 21
1536.052
 31
0
 0
LINE
 8
TOOL_0
 5
A8
 10
1990.709
 20
1536.052
 30
0
 11
1934.73
 21
1536.052
 31
0
 0
LINE
 8
TOOL_0
 5
A9
 10
1934.73
 20
1536.052
 30
0
 11
1925.709
 21
1527.031
 31
0
 0
LINE
 8
TOOL_0
 5
AA
 10
1925.709
 20
1527.031
 30
0
 11
1925.709
 21
1466.552
 31
0
 0
LINE
 8
TOOL_0
 5
AB
 10
1925.709
 20
1466.552
 30
0
 11
1718.209
 21
1466.552
 31
0
 0
LINE
 8
TOOL_0
 5
AC
 10
1718.209
 20
1466.552
 30
0
 11
1718.209
 21
1527.012
 31
0
 0
ARC
 8
TOOL_0
 5
AD
 10
1821.959
 20
1639.802
 30
0
 40
153.250274388009
 50
42.609433567125
 51
227.390566432875
210
0
220
0
230
1.0
 0
LINE
 8
TOOL_0
 5
AE
 10
1934.749
 20
1743.552
 30
0
 11
1990.709
 21
1743.552
 31
0
 0
LINE
 8
TOOL_0
 5
AF
 10
1990.709
 20
1743.552
 30
0
 11
2006.468
 21
1736.097
 31
0
 0
LINE
 8
TOOL_0
 5
B0
 10
2006.468
 20
1736.097
 30
0
 11
1244.934
 21
1610.412
 31
0
 0
LINE
 8
TOOL_0
 5
B1
 10
1244.934
 20
1610.412
 30
0
 11
1244.934
 21
1640.412
 31
0
 0
ARC
 8
TOOL_0
 5
B2
 10
1244.934
 20
1620.412
 30
0
 40
20.0
 50
90.0
 51
270.0
210
0
220
0
230
1.0
 0
ARC
 8
TOOL_0
 5
B3
 10
1244.934
 20
1620.412
 30
0
 40
20.0
 50
270.0
 51
90.0
210
0
220
0
230
1.0
 0
LINE
 8
TOOL_0
 5
B4
 10
1244.934
 20
1640.412
 30
0
 11
1241.398
 21
1636.876
 31
0
 0
LINE
 8
TOOL_0
 5
B5
 10
1241.398
 20
1636.876
 30
0
 11
1234.934
 21
1770.412
 31
0
 0
LINE
 8
TOOL_0
 5
B6
 10
1234.934
 20
1770.412
 30
0
 11
1264.934
 21
1770.412
 31
0
 0
ARC
 8
TOOL_0
 5
B7
 10
1244.934
 20
1770.412
 30
0
 40
20.0
 50
0
 51
180.0
210
0
220
0
230
1.0
 0
ARC
 8
TOOL_0
 5
B8
 10
1244.934
 20
1770.412
 30
0
 40
20.0
 50
180.0
 51
0
210
0
220
0
230
1.0
 0
LINE
 8
TOOL_0
 5
B9
 10
1264.934
 20
1770.412
 30
0
 11
1261.398
 21
1773.948
 31
0
 0
LINE
 8
TOOL_0
 5
BA
 10
1261.398
 20
1773.948
 30
0
 11
1431.934
 21
1770.412
 31
0
 0
LINE
 8
TOOL_0
 5
BB
 10
1431.934
 20
1770.412
 30
0
 11
1461.934
 21
1770.412
 31
0
 0
ARC
 8
TOOL_0
 5
BC
 10
1441.934
 20
1770.412
 30
0
 40
20.0
 50
0
 51
180.0
210
0
220
0
230
1.0
 0
ARC
 8
TOOL_0
 5
BD
 10
1441.934
 20
1770.412
 30
0
 40
20.0
 50
180.0
 51
0
210
0
220
0
230
1.0
 0
LINE
 8
TOOL_0
 5
BE
 10
1461.934
 20
1770.412
 30
0
 11
1458.398
 21
1773.948
 31
0
 0
LINE
 8
TOOL_0
 5
BF
 10
1458.398
 20
1773.948
 30
0
 11
1659.167
 21
1879.484
 31
0
 0
LINE
 8
TOOL_0
 5
C0
 10
1659.167
 20
1879.484
 30
0
 11
1649.534
 21
1856.012
 31
0
 0
LINE
 8
TOOL_0
 5
C1
 10
1649.534
 20
1856.012
 30
0
 11
1649.534
 21
1585.412
 31
0
 0
ARC
 8
TOOL_0
 5
C2
 10
1628.934
 20
1585.412
 30
0
 40
20.6
 50
270.0
 51
0
210
0
220
0
230
1.0
 0
LINE
 8
TOOL_0
 5
C3
 10
1628.934
 20
1564.812
 30
0
 11
1204.934
 21
1564.812
 31
0
 0
ARC
 8
TOOL_0
 5
C4
 10
1204.934
 20
1585.412
 30
0
 40
20.6
 50
180.0
 51
270.0
210
0
220
0
230
1.0
 0
LINE
 8
TOOL_0
 5
C5
 10
1184.334
 20
1585.412
 30
0
 11
1184.334
 21
1856.012
 31
0
 0
LINE
 8
TOOL_0
 5
C6
 10
1184.334
 20
1856.012
 30
0
 11
1649.534
 21
1856.012
 31
0
 0
LINE
 8
TOOL_0
 5
C7
 10
1649.534
 20
1856.012
 30
0
 11
1657.364
 21
1850.987
 31
0
 0
LINE
 8
TOOL_0
 5
C8
 10
1657.364
 20
1850.987
 30
0
 11
1246.322
 21
1931.263
 31
0
 0
LINE
 8
TOOL_0
 5
C9
 10
1246.322
 20
1931.263
 30
0
 11
1246.322
 21
1961.263
 31
0
 0
ARC
 8
TOOL_0
 5
CA
 10
1246.322
 20
1941.263
 30
0
 40
20.0
 50
90.0
 51
270.0
210
0
220
0
230
1.0
 0
ARC
 8
TOOL_0
 5
CB
 10
1246.322
 20
1941.263
 30
0
 40
20.0
 50
270.0
 51
90.0
210
0
220
0
230
1.0
 0
LINE
 8
TOOL_0
 5
CC
 10
1246.322
 20
1961.263
 30
0
 11
1242.786
 21
1957.727
 31
0
 0
LINE
 8
TOOL_0
 5
CD
 10
1242.786
 20
1957.727
 30
0
 11
1236.321
 21
2091.262
 31
0
 0
LINE
 8
TOOL_0
 5
CE
 10
1236.321
 20
2091.262
 30
0
 11
1266.321
 21
2091.262
 31
0
 0
ARC
 8
TOOL_0
 5
CF
 10
1246.321
 20
2091.262
 30
0
 40
20.0
 50
0
 51
180.0
210
0
220
0
230
1.0
 0
ARC
 8
TOOL_0
 5
D0
 10
1246.321
 20
2091.262
 30
0
 40
20.0
 50
180.0
 51
0
210
0
220
0
230
1.0
 0
LINE
 8
TOOL_0
 5
D1
 10
1266.321
 20
2091.262
 30
0
 11
1262.785
 21
2094.798
 31
0
 0
LINE
 8
TOOL_0
 5
D2
 10
1262.785
 20
2094.798
 30
0
 11
1433.32
 21
2091.262
 31
0
 0
LINE
 8
TOOL_0
 5
D3
 10
1433.32
 20
2091.262
 30
0
 11
1463.32
 21
2091.262
 31
0
 0
ARC
 8
TOOL_0
 5
D4
 10
1443.32
 20
2091.262
 30
0
 40
20.0
 50
0
 51
180.0
210
0
220
0
230
1.0
 0
ARC
 8
TOOL_0
 5
D5
 10
1443.32
 20
2091.262
 30
0
 40
20.0
 50
180.0
 51
0
210
0
220
0
230
1.0
 0
LINE
 8
TOOL_0
 5
D6
 10
1463.32
 20
2091.262
 30
0
 11
1459.784
 21
2094.798
 31
0
 0
LINE
 8
TOOL_0
 5
D7
 10
1459.784
 20
2094.798
 30
0
 11
1143.033
 21
2191.16
 31
0
 0
LINE
 8
TOOL_0
 5
D8
 10
1143.033
 20
2191.16
 30
0
 11
1185.719
 21
2176.862
 31
0
 0
LINE
 8
TOOL_0
 5
D9
 10
1185.719
 20
2176.862
 30
0
 11
1650.919
 21
2176.862
 31
0
 0
LINE
 8
TOOL_0
 5
DA
 10
1650.919
 20
2176.862
 30
0
 11
1650.919
 21
1906.262
 31
0
 0
ARC
 8
TOOL_0
 5
DB
 10
1630.319
 20
1906.262
 30
0
 40
20.6
 50
270.0
 51
0
210
0
220
0
230
1.0
 0
LINE
 8
TOOL_0
 5
DC
 10
1630.319
 20
1885.662
 30
0
 11
1206.319
 21
1885.662
 31
0
 0
ARC
 8
TOOL_0
 5
DD
 10
1206.319
 20
1906.262
 30
0
 40
20.6
 50
180.0
 51
270.0
210
0
220
0
230
1.0
 0
LINE
 8
TOOL_0
 5
DE
 10
1185.719
 20
1906.262
 30
0
 11
1185.719
 21
2176.862
 31
0
 0
LINE
 8
TOOL_0
 5
DF
 10
1185.719
 20
2176.862
 30
0
 11
1198.01
 21
2182.888
 31
0
 0
LINE
 8
TOOL_0
 5
E0
 10
1198.01
 20
2182.888
 30
0
 11
1000.029
 21
2406.498
 31
0
 0
LINE
 8
TOOL_0
 5
E1
 10
1000.029
 20
2406.498
 30
0
 11
1040.696
 21
2387.478
 31
0
 0
LINE
 8
TOOL_0
 5
E2
 10
1040.696
 20
2387.478
 30
0
 11
1042.389
 21
2384.999
 31
0
 0
LINE
 8
TOOL_0
 5
E3
 10
1042.389
 20
2384.999
 30
0
 11
1400.673
 21
2384.999
 31
0
 0
ARC
 8
TOOL_0
 5
E4
 10
1400.673
 20
2414.499
 30
0
 40
29.5
 50
270.0
 51
285.999553963966
210
0
220
0
230
1.0
 0
LINE
 8
TOOL_0
 5
E5
 10
1408.804
 20
2386.142
 30
0
 11
1547.021
 21
2425.775
 31
0
 0
ARC
 8
TOOL_0
 5
E6
 10
1538.811
 20
2454.191
 30
0
 40
29.578254782864
 50
286.115155158088
 51
359.885714645253
210
0
220
0
230
1.0
 0
LINE
 8
TOOL_0
 5
E7
 10
1568.39
 20
2454.132
 30
0
 11
1568.39
 21
2477.499
 31
0
 0
ARC
 8
TOOL_0
 5
E8
 10
1583.89
 20
2477.499
 30
0
 40
15.5
 50
90.0
 51
180.0
210
0
220
0
230
1.0
 0
LINE
 8
TOOL_0
 5
E9
 10
1583.89
 20
2492.999
 30
0
 11
1971.069
 21
2492.999
 31
0
 0
ARC
 8
TOOL_0
 5
EA
 10
1971.057
 20
2487.986
 30
0
 40
5.013014362636
 50
4.140989165552
 51
89.862846989647
210
0
220
0
230
1.0
 0
LINE
 8
TOOL_0
 5
EB
 10
1976.057
 20
2488.348
 30
0
 11
1979.274
 21
2442.347
 31
0
 0
ARC
 8
TOOL_0
 5
EC
 10
2003.293
 20
2444.055
 30
0
 40
24.079651679374
 50
184.067477372201
 51
222.733060840556
210
0
220
0
230
1.0
 0
LINE
 8
TOOL_0
 5
ED
 10
1985.606
 20
2427.715
 30
0
 11
2010.986
 21
2400.308
 31
0
 0
ARC
 8
TOOL_0
 5
EE
 10
1958.866
 20
2352.068
 30
0
 40
71.018251175314
 50
3.614329952714
 51
42.786000740381
210
0
220
0
230
1.0
 0
ARC
 8
TOOL_0
 5
EF
 10
1649.655
 20
2343.639
 30
0
 40
380.307050394809
 50
358.823741324326
 51
1.944747893435
210
0
220
0
230
1.0
 0
ARC
 8
TOOL_0
 5
F0
 10
1958.697
 20
2337.01
 30
0
 40
71.194746358141
 50
317.260905930912
 51
359.051931331741
210
0
220
0
230
1.0
 0
LINE
 8
TOOL_0
 5
F1
 10
2010.986
 20
2288.693
 30
0
 11
1985.607
 21
2261.286
 31
0
 0
ARC
 8
TOOL_0
 5
F2
 10
2003.294
 20
2244.946
 30
0
 40
24.07956745874
 50
137.266939159443
 51
175.932522627799
210
0
220
0
230
1.0
 0
LINE
 8
TOOL_0
 5
F3
 10
1979.275
 20
2246.654
 30
0
 11
1976.058
 21
2200.653
 31
0
 0
ARC
 8
TOOL_0
 5
F4
 10
1971.058
 20
2201.015
 30
0
 40
5.01308727233
 50
270.137153010353
 51
355.859010834448
210
0
220
0
230
1.0
 0
LINE
 8
TOOL_0
 5
F5
 10
1971.07
 20
2196.002
 30
0
 11
1583.891
 21
2196.002
 31
0
 0
ARC
 8
TOOL_0
 5
F6
 10
1583.891
 20
2211.502
 30
0
 40
15.5
 50
180.0
 51
270.0
210
0
220
0
230
1.0
 0
LINE
 8
TOOL_0
 5
F7
 10
1568.391
 20
2211.502
 30
0
 11
1568.391
 21
2234.869
 31
0
 0
ARC
 8
TOOL_0
 5
F8
 10
1538.813
 20
2234.81
 30
0
 40
29.578058844353
 50
0.114289218601
 51
73.886705834146
210
0
220
0
230
1.0
 0
LINE
 8
TOOL_0
 5
F9
 10
1547.022
 20
2263.226
 30
0
 11
1408.806
 21
2302.859
 31
0
 0
ARC
 8
TOOL_0
 5
FA
 10
1400.578
 20
2273.894
 30
0
 40
30.110981534982
 50
74.141902526386
 51
87.856930583249
210
0
220
0
230
1.0
 0
LINE
 8
TOOL_0
 5
FB
 10
1401.704
 20
2303.984
 30
0
 11
1040.891
 21
2304.002
 31
0
 0
ARC
 8
TOOL_0
 5
FC
 10
1040.891
 20
2309.002
 30
0
 40
5.0
 50
180.0
 51
270.0
210
0
220
0
230
1.0
 0
LINE
 8
TOOL_0
 5
FD
 10
1035.891
 20
2309.002
 30
0
 11
1035.891
 21
2380.002
 31
0
 0
ARC
 8
TOOL_0
 5
FE
 10
1040.891
 20
2380.002
 30
0
 40
5.0
 50
107.351289982618
 51
180.0
210
0
220
0
230
1.0
 0
LINE
 8
TOOL_0
 5
FF
 10
1039.4
 20
2384.774
 30
0
 11
1040.698
 21
2387.48
 31
0
 0
LINE
 8
TOOL_0
 5
100
 10
1040.698
 20
2387.48
 30
0
 11
1045.406
 21
2389.61
 31
0
 0
LINE
 8
TOOL_0
 5
101
 10
1045.406
 20
2389.61
 30
0
 11
582.979
 21
1916.659
 31
0
 0
LINE
 8
TOOL_0
 5
102
 10
582.979
 20
1916.659
 30
0
 11
604.193
 21
1895.446
 31
0
 0
ARC
 8
TOOL_0
 5
103
 10
586.515
 20
1913.124
 30
0
 40
25.000467355632
 50
315.0
 51
135.0
210
0
220
0
230
1.0
 0
ARC
 8
TOOL_0
 5
104
 10
586.516
 20
1913.123
 30
0
 40
25.000467355632
 50
135.0
 51
314.99837941509
210
0
220
0
230
1.0
 0
LINE
 8
TOOL_0
 5
105
 10
604.193
 20
1895.445
 30
0
 11
604.193
 21
1900.445
 31
0
 0
LINE
 8
TOOL_0
 5
106
 10
604.193
 20
1900.445
 30
0
 11
906.912
 21
2445.548
 31
0
 0
LINE
 8
TOOL_0
 5
107
 10
906.912
 20
2445.548
 30
0
 11
920.287
 21
2391.853
 31
0
 0
LINE
 8
TOOL_0
 5
108
 10
920.287
 20
2391.853
 30
0
 11
920.03
 21
2388.862
 31
0
 0
ARC
 8
TOOL_0
 5
109
 10
586.515
 20
1913.122
 30
0
 40
580.999830314089
 50
235.115970776317
 51
54.967827548649
210
0
220
0
230
1.0
 0
ARC
 8
TOOL_0
 5
10A
 10
586.515
 20
1913.122
 30
0
 40
581.000146176402
 50
55.263339161949
 51
235.115970776317
210
0
220
0
230
1.0
 0
LINE
 8
TOOL_0
 5
10B
 10
917.572
 20
2390.576
 30
0
 11
920.287
 21
2391.853
 31
0
 0
LINE
 8
TOOL_0
 5
10C
 10
920.287
 20
2391.853
 30
0
 11
925.158
 21
2397.058
 31
0
 0
LINE
 8
TOOL_0
 5
10D
 10
925.158
 20
2397.058
 30
0
 11
2065.624
 21
0
 31
0
 0
LINE
 8
TOOL_0
 5
10E
 10
2065.624
 20
0
 30
0
 11
2065.624
 21
1.0
 31
0
 0
LINE
 8
TOOL_0
 5
10F
 10
2065.624
 20
1.0
 30
0
 11
2065.624
 21
0
 31
0
 0
LINE
 8
TOOL_0
 5
110
 10
2065.624
 20
0
 30
0
 11
2065.624
 21
1.0
 31
0
 0
LINE
 8
TOOL_0
 5
111
 10
2065.624
 20
1.0
 30
0
 11
2065.624
 21
2499.0
 31
0
 0
LINE
 8
TOOL_0
 5
112
 10
2065.624
 20
2499.0
 30
0
 11
2065.624
 21
2500.0
 31
0
 0
ENDSEC
 0
EOF

