0
SECTION
2
TABLES
0
TABLE
2
LAYER
70
0
0
LAYER
2
LAYER_NAME
70
0
62
1
6
CONTINUOUS
0
ENDTAB
0
ENDSEC
 0
SECTION
 2
ENTITIES
 0
LINE
 8
TOOL_0
 5
1
 10
4972.148
 20
65.983
 30
0
 11
4971.844
 21
40.349
 31
0
 0
LINE
 8
TOOL_0
 5
2
 10
4971.844
 20
40.349
 30
0
 11
4947.063
 21
40.658
 31
0
 0
LINE
 8
TOOL_0
 5
3
 10
4947.063
 20
40.658
 30
0
 11
3895.563
 21
40.658
 31
0
 0
LINE
 8
TOOL_0
 5
4
 10
3895.563
 20
40.658
 30
0
 11
3895.563
 21
442.158
 31
0
 0
LINE
 8
TOOL_0
 5
5
 10
3895.563
 20
442.158
 30
0
 11
4947.063
 21
442.158
 31
0
 0
LINE
 8
TOOL_0
 5
6
 10
4947.063
 20
442.158
 30
0
 11
4947.063
 21
40.658
 31
0
 0
LINE
 8
TOOL_0
 5
7
 10
4947.063
 20
40.658
 30
0
 11
4948.115
 21
33.33
 31
0
 0
LINE
 8
TOOL_0
 5
8
 10
4948.115
 20
33.33
 30
0
 11
4948.115
 21
0
 31
0
 0
LINE
 8
TOOL_0
 5
9
 10
4948.115
 20
0
 30
0
 11
921.088
 21
345.812
 31
0
 0
LINE
 8
TOOL_0
 5
A
 10
921.088
 20
345.812
 30
0
 11
951.088
 21
345.812
 31
0
 0
LINE
 8
TOOL_0
 5
B
 10
951.088
 20
345.812
 30
0
 11
951.088
 21
445.812
 31
0
 0
ARC
 8
TOOL_0
 5
C
 10
851.088
 20
445.812
 30
0
 40
100.0
 50
0
 51
89.999427042205
210
0
220
0
230
1.0
 0
LINE
 8
TOOL_0
 5
D
 10
851.089
 20
545.812
 30
0
 11
316.088
 21
545.812
 31
0
 0
ARC
 8
TOOL_0
 5
E
 10
316.088
 20
445.812
 30
0
 40
100.0
 50
90.0
 51
180.0
210
0
220
0
230
1.0
 0
LINE
 8
TOOL_0
 5
F
 10
216.088
 20
445.812
 30
0
 11
216.088
 21
245.812
 31
0
 0
ARC
 8
TOOL_0
 5
10
 10
316.088
 20
245.812
 30
0
 40
100.0
 50
180.0
 51
270.0
210
0
220
0
230
1.0
 0
LINE
 8
TOOL_0
 5
11
 10
316.088
 20
145.812
 30
0
 11
851.088
 21
145.812
 31
0
 0
ARC
 8
TOOL_0
 5
12
 10
851.088
 20
245.812
 30
0
 40
100.0
 50
270.0
 51
359.999427042205
210
0
220
0
230
1.0
 0
LINE
 8
TOOL_0
 5
13
 10
951.088
 20
245.811
 30
0
 11
951.088
 21
345.812
 31
0
 0
LINE
 8
TOOL_0
 5
14
 10
951.088
 20
345.812
 30
0
 11
946.845
 21
350.055
 31
0
 0
LINE
 8
TOOL_0
 5
15
 10
946.845
 20
350.055
 30
0
 11
1266.3
 21
32.035
 31
0
 0
LINE
 8
TOOL_0
 5
16
 10
1266.3
 20
32.035
 30
0
 11
1266.3
 21
15.452
 31
0
 0
LINE
 8
TOOL_0
 5
17
 10
1266.3
 20
15.452
 30
0
 11
1241.838
 21
15.062
 31
0
 0
LINE
 8
TOOL_0
 5
18
 10
1241.838
 20
15.062
 30
0
 11
15.338
 21
15.062
 31
0
 0
LINE
 8
TOOL_0
 5
19
 10
15.338
 20
15.062
 30
0
 11
15.338
 21
676.562
 31
0
 0
LINE
 8
TOOL_0
 5
1A
 10
15.338
 20
676.562
 30
0
 11
1241.838
 21
676.562
 31
0
 0
LINE
 8
TOOL_0
 5
1B
 10
1241.838
 20
676.562
 30
0
 11
1241.838
 21
15.062
 31
0
 0
LINE
 8
TOOL_0
 5
1C
 10
1241.838
 20
15.062
 30
0
 11
1241.666
 21
8.624
 31
0
 0
LINE
 8
TOOL_0
 5
1D
 10
1241.666
 20
8.624
 30
0
 11
1241.666
 21
0
 31
0
 0
LINE
 8
TOOL_0
 5
1E
 10
1241.666
 20
0
 30
0
 11
2274.696
 21
137.31
 31
0
 0
LINE
 8
TOOL_0
 5
1F
 10
2274.696
 20
137.31
 30
0
 11
2274.46
 21
113.703
 31
0
 0
LINE
 8
TOOL_0
 5
20
 10
2274.46
 20
113.703
 30
0
 11
2249.083
 21
113.531
 31
0
 0
LINE
 8
TOOL_0
 5
21
 10
2249.083
 20
113.531
 30
0
 11
1967.583
 21
113.531
 31
0
 0
LINE
 8
TOOL_0
 5
22
 10
1967.583
 20
113.531
 30
0
 11
1967.583
 21
363.531
 31
0
 0
LINE
 8
TOOL_0
 5
23
 10
1967.583
 20
363.531
 30
0
 11
1362.583
 21
363.531
 31
0
 0
LINE
 8
TOOL_0
 5
24
 10
1362.583
 20
363.531
 30
0
 11
1362.583
 21
765.031
 31
0
 0
LINE
 8
TOOL_0
 5
25
 10
1362.583
 20
765.031
 30
0
 11
2414.083
 21
765.031
 31
0
 0
LINE
 8
TOOL_0
 5
26
 10
2414.083
 20
765.031
 30
0
 11
2414.083
 21
363.531
 31
0
 0
LINE
 8
TOOL_0
 5
27
 10
2414.083
 20
363.531
 30
0
 11
2249.083
 21
363.531
 31
0
 0
LINE
 8
TOOL_0
 5
28
 10
2249.083
 20
363.531
 30
0
 11
2249.083
 21
113.531
 31
0
 0
LINE
 8
TOOL_0
 5
29
 10
2249.083
 20
113.531
 30
0
 11
2249.279
 21
107.093
 31
0
 0
LINE
 8
TOOL_0
 5
2A
 10
2249.279
 20
107.093
 30
0
 11
3719.906
 21
62.285
 31
0
 0
LINE
 8
TOOL_0
 5
2B
 10
3719.906
 20
62.285
 30
0
 11
3719.533
 21
36.435
 31
0
 0
LINE
 8
TOOL_0
 5
2C
 10
3719.533
 20
36.435
 30
0
 11
3694.698
 21
36.382
 31
0
 0
LINE
 8
TOOL_0
 5
2D
 10
3694.698
 20
36.382
 30
0
 11
3413.198
 21
36.382
 31
0
 0
LINE
 8
TOOL_0
 5
2E
 10
3413.198
 20
36.382
 30
0
 11
3413.198
 21
317.882
 31
0
 0
LINE
 8
TOOL_0
 5
2F
 10
3413.198
 20
317.882
 30
0
 11
3694.698
 21
317.882
 31
0
 0
LINE
 8
TOOL_0
 5
30
 10
3694.698
 20
317.882
 30
0
 11
3694.698
 21
36.382
 31
0
 0
LINE
 8
TOOL_0
 5
31
 10
3694.698
 20
36.382
 30
0
 11
3694.696
 21
31.377
 31
0
 0
LINE
 8
TOOL_0
 5
32
 10
3694.696
 20
31.377
 30
0
 11
3387.286
 21
136.818
 31
0
 0
LINE
 8
TOOL_0
 5
33
 10
3387.286
 20
136.818
 30
0
 11
3387.051
 21
113.211
 31
0
 0
LINE
 8
TOOL_0
 5
34
 10
3387.051
 20
113.211
 30
0
 11
3361.674
 21
113.039
 31
0
 0
LINE
 8
TOOL_0
 5
35
 10
3361.674
 20
113.039
 30
0
 11
3080.174
 21
113.039
 31
0
 0
LINE
 8
TOOL_0
 5
36
 10
3080.174
 20
113.039
 30
0
 11
3080.174
 21
363.039
 31
0
 0
LINE
 8
TOOL_0
 5
37
 10
3080.174
 20
363.039
 30
0
 11
2475.174
 21
363.039
 31
0
 0
LINE
 8
TOOL_0
 5
38
 10
2475.174
 20
363.039
 30
0
 11
2475.174
 21
764.539
 31
0
 0
LINE
 8
TOOL_0
 5
39
 10
2475.174
 20
764.539
 30
0
 11
3526.674
 21
764.539
 31
0
 0
LINE
 8
TOOL_0
 5
3A
 10
3526.674
 20
764.539
 30
0
 11
3526.674
 21
363.039
 31
0
 0
LINE
 8
TOOL_0
 5
3B
 10
3526.674
 20
363.039
 30
0
 11
3361.674
 21
363.039
 31
0
 0
LINE
 8
TOOL_0
 5
3C
 10
3361.674
 20
363.039
 30
0
 11
3361.674
 21
113.039
 31
0
 0
LINE
 8
TOOL_0
 5
3D
 10
3361.674
 20
113.039
 30
0
 11
3361.87
 21
106.601
 31
0
 0
LINE
 8
TOOL_0
 5
3E
 10
3361.87
 20
106.601
 30
0
 11
3889.26
 21
428.129
 31
0
 0
LINE
 8
TOOL_0
 5
3F
 10
3889.26
 20
428.129
 30
0
 11
3888.886
 21
402.278
 31
0
 0
LINE
 8
TOOL_0
 5
40
 10
3888.886
 20
402.278
 30
0
 11
3864.051
 21
402.225
 31
0
 0
LINE
 8
TOOL_0
 5
41
 10
3864.051
 20
402.225
 30
0
 11
3582.551
 21
402.225
 31
0
 0
LINE
 8
TOOL_0
 5
42
 10
3582.551
 20
402.225
 30
0
 11
3582.551
 21
683.725
 31
0
 0
LINE
 8
TOOL_0
 5
43
 10
3582.551
 20
683.725
 30
0
 11
3864.051
 21
683.725
 31
0
 0
LINE
 8
TOOL_0
 5
44
 10
3864.051
 20
683.725
 30
0
 11
3864.051
 21
402.225
 31
0
 0
LINE
 8
TOOL_0
 5
45
 10
3864.051
 20
402.225
 30
0
 11
3864.049
 21
397.22
 31
0
 0
LINE
 8
TOOL_0
 5
46
 10
3864.049
 20
397.22
 30
0
 11
3864.049
 21
-0.001
 31
0
 0
LINE
 8
TOOL_0
 5
47
 10
3864.049
 20
-0.001
 30
0
 11
1599.269
 21
46.74
 31
0
 0
LINE
 8
TOOL_0
 5
48
 10
1599.269
 20
46.74
 30
0
 11
1598.896
 21
20.889
 31
0
 0
LINE
 8
TOOL_0
 5
49
 10
1598.896
 20
20.889
 30
0
 11
1574.061
 21
20.836
 31
0
 0
LINE
 8
TOOL_0
 5
4A
 10
1574.061
 20
20.836
 30
0
 11
1292.561
 21
20.836
 31
0
 0
LINE
 8
TOOL_0
 5
4B
 10
1292.561
 20
20.836
 30
0
 11
1292.561
 21
302.336
 31
0
 0
LINE
 8
TOOL_0
 5
4C
 10
1292.561
 20
302.336
 30
0
 11
1574.061
 21
302.336
 31
0
 0
LINE
 8
TOOL_0
 5
4D
 10
1574.061
 20
302.336
 30
0
 11
1574.061
 21
20.836
 31
0
 0
LINE
 8
TOOL_0
 5
4E
 10
1574.061
 20
20.836
 30
0
 11
1574.059
 21
15.831
 31
0
 0
LINE
 8
TOOL_0
 5
4F
 10
1574.059
 20
15.831
 30
0
 11
1946.861
 21
42.938
 31
0
 0
LINE
 8
TOOL_0
 5
50
 10
1946.861
 20
42.938
 30
0
 11
1946.487
 21
17.087
 31
0
 0
LINE
 8
TOOL_0
 5
51
 10
1946.487
 20
17.087
 30
0
 11
1921.652
 21
17.034
 31
0
 0
LINE
 8
TOOL_0
 5
52
 10
1921.652
 20
17.034
 30
0
 11
1640.152
 21
17.034
 31
0
 0
LINE
 8
TOOL_0
 5
53
 10
1640.152
 20
17.034
 30
0
 11
1640.152
 21
298.534
 31
0
 0
LINE
 8
TOOL_0
 5
54
 10
1640.152
 20
298.534
 30
0
 11
1921.652
 21
298.534
 31
0
 0
LINE
 8
TOOL_0
 5
55
 10
1921.652
 20
298.534
 30
0
 11
1921.652
 21
17.034
 31
0
 0
LINE
 8
TOOL_0
 5
56
 10
1921.652
 20
17.034
 30
0
 11
1921.65
 21
12.029
 31
0
 0
LINE
 8
TOOL_0
 5
57
 10
1921.65
 20
12.029
 30
0
 11
2631.093
 21
47.085
 31
0
 0
LINE
 8
TOOL_0
 5
58
 10
2631.093
 20
47.085
 30
0
 11
2630.719
 21
21.235
 31
0
 0
LINE
 8
TOOL_0
 5
59
 10
2630.719
 20
21.235
 30
0
 11
2605.884
 21
21.182
 31
0
 0
LINE
 8
TOOL_0
 5
5A
 10
2605.884
 20
21.182
 30
0
 11
2324.384
 21
21.182
 31
0
 0
LINE
 8
TOOL_0
 5
5B
 10
2324.384
 20
21.182
 30
0
 11
2324.384
 21
302.682
 31
0
 0
LINE
 8
TOOL_0
 5
5C
 10
2324.384
 20
302.682
 30
0
 11
2605.884
 21
302.682
 31
0
 0
LINE
 8
TOOL_0
 5
5D
 10
2605.884
 20
302.682
 30
0
 11
2605.884
 21
21.182
 31
0
 0
LINE
 8
TOOL_0
 5
5E
 10
2605.884
 20
21.182
 30
0
 11
2605.882
 21
16.177
 31
0
 0
LINE
 8
TOOL_0
 5
5F
 10
2605.882
 20
16.177
 30
0
 11
3014.276
 21
41.555
 31
0
 0
LINE
 8
TOOL_0
 5
60
 10
3014.276
 20
41.555
 30
0
 11
3013.903
 21
15.705
 31
0
 0
LINE
 8
TOOL_0
 5
61
 10
3013.903
 20
15.705
 30
0
 11
2989.068
 21
15.652
 31
0
 0
LINE
 8
TOOL_0
 5
62
 10
2989.068
 20
15.652
 30
0
 11
2707.568
 21
15.652
 31
0
 0
LINE
 8
TOOL_0
 5
63
 10
2707.568
 20
15.652
 30
0
 11
2707.568
 21
297.152
 31
0
 0
LINE
 8
TOOL_0
 5
64
 10
2707.568
 20
297.152
 30
0
 11
2989.068
 21
297.152
 31
0
 0
LINE
 8
TOOL_0
 5
65
 10
2989.068
 20
297.152
 30
0
 11
2989.068
 21
15.652
 31
0
 0
LINE
 8
TOOL_0
 5
66
 10
2989.068
 20
15.652
 30
0
 11
2989.066
 21
10.647
 31
0
 0
LINE
 8
TOOL_0
 5
67
 10
2989.066
 20
10.647
 30
0
 11
5136.576
 21
-0.001
 31
0
 0
LINE
 8
TOOL_0
 5
68
 10
5136.576
 20
-0.001
 30
0
 11
5136.576
 21
0.999
 31
0
 0
LINE
 8
TOOL_0
 5
69
 10
5136.576
 20
0.999
 30
0
 11
5136.576
 21
-0.001
 31
0
 0
LINE
 8
TOOL_0
 5
6A
 10
5136.576
 20
-0.001
 30
0
 11
5136.576
 21
-0.001
 31
0
 0
LINE
 8
TOOL_0
 5
6B
 10
5136.576
 20
-0.001
 30
0
 11
5136.576
 21
0.999
 31
0
 0
LINE
 8
TOOL_0
 5
6C
 10
5136.576
 20
0.999
 30
0
 11
5136.576
 21
1504.149
 31
0
 0
LINE
 8
TOOL_0
 5
6D
 10
5136.576
 20
1504.149
 30
0
 11
5136.576
 21
1505.149
 31
0
 0
ENDSEC
 0
EOF

