0
SECTION
2
TABLES
0
TABLE
2
LAYER
70
0
0
LAYER
2
LAYER_NAME
70
0
62
1
6
CONTINUOUS
0
ENDTAB
0
ENDSEC
 0
SECTION
 2
ENTITIES
 0
LINE
 8
TOOL_0
 5
1
 10
2456.71
 20
355.245
 30
0
 11
2487.193
 21
355.245
 31
0
 0
LINE
 8
TOOL_0
 5
2
 10
2487.193
 20
355.245
 30
0
 11
2487.193
 21
520.245
 31
0
 0
ARC
 8
TOOL_0
 5
3
 10
2452.193
 20
520.245
 30
0
 40
35.0
 50
0
 51
90.0
210
0
220
0
230
1.0
 0
LINE
 8
TOOL_0
 5
4
 10
2452.193
 20
555.245
 30
0
 11
2297.193
 21
555.245
 31
0
 0
ARC
 8
TOOL_0
 5
5
 10
2297.193
 20
520.245
 30
0
 40
35.0
 50
90.0
 51
180.0
210
0
220
0
230
1.0
 0
LINE
 8
TOOL_0
 5
6
 10
2262.193
 20
520.245
 30
0
 11
2262.193
 21
190.245
 31
0
 0
ARC
 8
TOOL_0
 5
7
 10
2297.193
 20
190.245
 30
0
 40
35.0
 50
180.0
 51
270.0
210
0
220
0
230
1.0
 0
LINE
 8
TOOL_0
 5
8
 10
2297.193
 20
155.245
 30
0
 11
2452.193
 21
155.245
 31
0
 0
ARC
 8
TOOL_0
 5
9
 10
2452.193
 20
190.245
 30
0
 40
35.0
 50
270.0
 51
0
210
0
220
0
230
1.0
 0
LINE
 8
TOOL_0
 5
A
 10
2487.193
 20
190.245
 30
0
 11
2487.193
 21
355.245
 31
0
 0
LINE
 8
TOOL_0
 5
B
 10
2487.193
 20
355.245
 30
0
 11
2483.731
 21
359.846
 31
0
 0
LINE
 8
TOOL_0
 5
C
 10
2483.731
 20
359.846
 30
0
 11
3201.418
 21
355.245
 31
0
 0
LINE
 8
TOOL_0
 5
D
 10
3201.418
 20
355.245
 30
0
 11
3232.193
 21
355.245
 31
0
 0
LINE
 8
TOOL_0
 5
E
 10
3232.193
 20
355.245
 30
0
 11
3232.193
 21
520.245
 31
0
 0
ARC
 8
TOOL_0
 5
F
 10
3197.193
 20
520.245
 30
0
 40
35.0
 50
0
 51
90.0
210
0
220
0
230
1.0
 0
LINE
 8
TOOL_0
 5
10
 10
3197.193
 20
555.245
 30
0
 11
3042.193
 21
555.245
 31
0
 0
ARC
 8
TOOL_0
 5
11
 10
3042.193
 20
520.245
 30
0
 40
35.0
 50
90.0
 51
180.0
210
0
220
0
230
1.0
 0
LINE
 8
TOOL_0
 5
12
 10
3007.193
 20
520.245
 30
0
 11
3007.193
 21
190.245
 31
0
 0
ARC
 8
TOOL_0
 5
13
 10
3042.193
 20
190.245
 30
0
 40
35.0
 50
180.0
 51
270.0
210
0
220
0
230
1.0
 0
LINE
 8
TOOL_0
 5
14
 10
3042.193
 20
155.245
 30
0
 11
3197.193
 21
155.245
 31
0
 0
ARC
 8
TOOL_0
 5
15
 10
3197.193
 20
190.245
 30
0
 40
35.0
 50
270.0
 51
0
210
0
220
0
230
1.0
 0
LINE
 8
TOOL_0
 5
16
 10
3232.193
 20
190.245
 30
0
 11
3232.193
 21
355.245
 31
0
 0
LINE
 8
TOOL_0
 5
17
 10
3232.193
 20
355.245
 30
0
 11
3229.131
 21
359.257
 31
0
 0
LINE
 8
TOOL_0
 5
18
 10
3229.131
 20
359.257
 30
0
 11
3593.693
 21
136.18
 31
0
 0
LINE
 8
TOOL_0
 5
19
 10
3593.693
 20
136.18
 30
0
 11
3593.693
 21
105.245
 31
0
 0
LINE
 8
TOOL_0
 5
1A
 10
3593.693
 20
105.245
 30
0
 11
3593.693
 21
35.331
 31
0
 0
LINE
 8
TOOL_0
 5
1B
 10
3593.693
 20
35.331
 30
0
 11
3582.607
 21
24.245
 31
0
 0
LINE
 8
TOOL_0
 5
1C
 10
3582.607
 20
24.245
 30
0
 11
3452.193
 21
24.245
 31
0
 0
ARC
 8
TOOL_0
 5
1D
 10
3452.21
 20
15.218
 30
0
 40
9.027016007519
 50
90.107901528772
 51
153.505912100375
210
0
220
0
230
1.0
 0
LINE
 8
TOOL_0
 5
1E
 10
3444.131
 20
19.245
 30
0
 11
850.693
 21
19.245
 31
0
 0
LINE
 8
TOOL_0
 5
1F
 10
850.693
 20
19.245
 30
0
 11
850.693
 21
438.245
 31
0
 0
ARC
 8
TOOL_0
 5
20
 10
858.693
 20
438.245
 30
0
 40
8.0
 50
90.0
 51
180.0
210
0
220
0
230
1.0
 0
LINE
 8
TOOL_0
 5
21
 10
858.693
 20
446.245
 30
0
 11
1136.238
 21
446.245
 31
0
 0
ARC
 8
TOOL_0
 5
22
 10
1136.238
 20
545.245
 30
0
 40
99.0
 50
270.0
 51
288.129860799344
210
0
220
0
230
1.0
 0
LINE
 8
TOOL_0
 5
23
 10
1167.044
 20
451.16
 30
0
 11
2309.52
 21
825.245
 31
0
 0
LINE
 8
TOOL_0
 5
24
 10
2309.52
 20
825.245
 30
0
 11
3203.693
 21
825.245
 31
0
 0
LINE
 8
TOOL_0
 5
25
 10
3203.693
 20
825.245
 30
0
 11
3203.693
 21
781.245
 31
0
 0
ARC
 8
TOOL_0
 5
26
 10
3253.693
 20
781.245
 30
0
 40
50.0
 50
180.0
 51
270.0
210
0
220
0
230
1.0
 0
LINE
 8
TOOL_0
 5
27
 10
3253.693
 20
731.245
 30
0
 11
3270.438
 21
731.245
 31
0
 0
ARC
 8
TOOL_0
 5
28
 10
3270.416
 20
681.197
 30
0
 40
50.048004835358
 50
40.025735995627
 51
89.974814037162
210
0
220
0
230
1.0
 0
LINE
 8
TOOL_0
 5
29
 10
3308.74
 20
713.384
 30
0
 11
3593.693
 21
373.791
 31
0
 0
LINE
 8
TOOL_0
 5
2A
 10
3593.693
 20
373.791
 30
0
 11
3593.693
 21
265.245
 31
0
 0
LINE
 8
TOOL_0
 5
2B
 10
3593.693
 20
265.245
 30
0
 11
3572.193
 21
265.245
 31
0
 0
ARC
 8
TOOL_0
 5
2C
 10
3572.193
 20
185.245
 30
0
 40
80.0
 50
90.0
 51
270.0
210
0
220
0
230
1.0
 0
LINE
 8
TOOL_0
 5
2D
 10
3572.193
 20
105.245
 30
0
 11
3593.693
 21
105.245
 31
0
 0
LINE
 8
TOOL_0
 5
2E
 10
3593.693
 20
105.245
 30
0
 11
3598.705
 21
105.245
 31
0
 0
LINE
 8
TOOL_0
 5
2F
 10
3598.705
 20
105.245
 30
0
 11
2456.712
 21
1179.325
 31
0
 0
LINE
 8
TOOL_0
 5
30
 10
2456.712
 20
1179.325
 30
0
 11
2487.194
 21
1179.325
 31
0
 0
LINE
 8
TOOL_0
 5
31
 10
2487.194
 20
1179.325
 30
0
 11
2487.194
 21
1344.325
 31
0
 0
ARC
 8
TOOL_0
 5
32
 10
2452.194
 20
1344.325
 30
0
 40
35.0
 50
0
 51
90.0
210
0
220
0
230
1.0
 0
LINE
 8
TOOL_0
 5
33
 10
2452.194
 20
1379.325
 30
0
 11
2297.194
 21
1379.325
 31
0
 0
ARC
 8
TOOL_0
 5
34
 10
2297.194
 20
1344.325
 30
0
 40
35.0
 50
90.0
 51
180.0
210
0
220
0
230
1.0
 0
LINE
 8
TOOL_0
 5
35
 10
2262.194
 20
1344.325
 30
0
 11
2262.194
 21
1014.325
 31
0
 0
ARC
 8
TOOL_0
 5
36
 10
2297.194
 20
1014.325
 30
0
 40
35.0
 50
180.0
 51
270.0
210
0
220
0
230
1.0
 0
LINE
 8
TOOL_0
 5
37
 10
2297.194
 20
979.325
 30
0
 11
2452.194
 21
979.325
 31
0
 0
ARC
 8
TOOL_0
 5
38
 10
2452.194
 20
1014.325
 30
0
 40
35.0
 50
270.0
 51
0
210
0
220
0
230
1.0
 0
LINE
 8
TOOL_0
 5
39
 10
2487.194
 20
1014.325
 30
0
 11
2487.194
 21
1179.325
 31
0
 0
LINE
 8
TOOL_0
 5
3A
 10
2487.194
 20
1179.325
 30
0
 11
2483.732
 21
1183.926
 31
0
 0
LINE
 8
TOOL_0
 5
3B
 10
2483.732
 20
1183.926
 30
0
 11
3201.42
 21
1179.325
 31
0
 0
LINE
 8
TOOL_0
 5
3C
 10
3201.42
 20
1179.325
 30
0
 11
3232.194
 21
1179.325
 31
0
 0
LINE
 8
TOOL_0
 5
3D
 10
3232.194
 20
1179.325
 30
0
 11
3232.194
 21
1344.325
 31
0
 0
ARC
 8
TOOL_0
 5
3E
 10
3197.194
 20
1344.325
 30
0
 40
35.0
 50
0
 51
90.0
210
0
220
0
230
1.0
 0
LINE
 8
TOOL_0
 5
3F
 10
3197.194
 20
1379.325
 30
0
 11
3042.194
 21
1379.325
 31
0
 0
ARC
 8
TOOL_0
 5
40
 10
3042.194
 20
1344.325
 30
0
 40
35.0
 50
90.0
 51
180.0
210
0
220
0
230
1.0
 0
LINE
 8
TOOL_0
 5
41
 10
3007.194
 20
1344.325
 30
0
 11
3007.194
 21
1014.325
 31
0
 0
ARC
 8
TOOL_0
 5
42
 10
3042.194
 20
1014.325
 30
0
 40
35.0
 50
180.0
 51
270.0
210
0
220
0
230
1.0
 0
LINE
 8
TOOL_0
 5
43
 10
3042.194
 20
979.325
 30
0
 11
3197.194
 21
979.325
 31
0
 0
ARC
 8
TOOL_0
 5
44
 10
3197.194
 20
1014.325
 30
0
 40
35.0
 50
270.0
 51
0
210
0
220
0
230
1.0
 0
LINE
 8
TOOL_0
 5
45
 10
3232.194
 20
1014.325
 30
0
 11
3232.194
 21
1179.325
 31
0
 0
LINE
 8
TOOL_0
 5
46
 10
3232.194
 20
1179.325
 30
0
 11
3229.132
 21
1183.337
 31
0
 0
LINE
 8
TOOL_0
 5
47
 10
3229.132
 20
1183.337
 30
0
 11
3593.694
 21
960.26
 31
0
 0
LINE
 8
TOOL_0
 5
48
 10
3593.694
 20
960.26
 30
0
 11
3593.694
 21
929.325
 31
0
 0
LINE
 8
TOOL_0
 5
49
 10
3593.694
 20
929.325
 30
0
 11
3593.694
 21
859.411
 31
0
 0
LINE
 8
TOOL_0
 5
4A
 10
3593.694
 20
859.411
 30
0
 11
3582.608
 21
848.325
 31
0
 0
LINE
 8
TOOL_0
 5
4B
 10
3582.608
 20
848.325
 30
0
 11
3452.194
 21
848.325
 31
0
 0
ARC
 8
TOOL_0
 5
4C
 10
3452.211
 20
839.298
 30
0
 40
9.027016007519
 50
90.107901528772
 51
153.505912100374
210
0
220
0
230
1.0
 0
LINE
 8
TOOL_0
 5
4D
 10
3444.132
 20
843.325
 30
0
 11
850.694
 21
843.325
 31
0
 0
LINE
 8
TOOL_0
 5
4E
 10
850.694
 20
843.325
 30
0
 11
850.694
 21
1262.325
 31
0
 0
ARC
 8
TOOL_0
 5
4F
 10
858.694
 20
1262.325
 30
0
 40
8.0
 50
90.0
 51
180.0
210
0
220
0
230
1.0
 0
LINE
 8
TOOL_0
 5
50
 10
858.694
 20
1270.325
 30
0
 11
1136.239
 21
1270.325
 31
0
 0
ARC
 8
TOOL_0
 5
51
 10
1136.239
 20
1369.325
 30
0
 40
99.0
 50
270.0
 51
288.129860799344
210
0
220
0
230
1.0
 0
LINE
 8
TOOL_0
 5
52
 10
1167.045
 20
1275.24
 30
0
 11
2309.521
 21
1649.325
 31
0
 0
LINE
 8
TOOL_0
 5
53
 10
2309.521
 20
1649.325
 30
0
 11
3203.694
 21
1649.325
 31
0
 0
LINE
 8
TOOL_0
 5
54
 10
3203.694
 20
1649.325
 30
0
 11
3203.694
 21
1605.325
 31
0
 0
ARC
 8
TOOL_0
 5
55
 10
3253.694
 20
1605.325
 30
0
 40
50.0
 50
180.0
 51
270.0
210
0
220
0
230
1.0
 0
LINE
 8
TOOL_0
 5
56
 10
3253.694
 20
1555.325
 30
0
 11
3270.439
 21
1555.325
 31
0
 0
ARC
 8
TOOL_0
 5
57
 10
3270.417
 20
1505.277
 30
0
 40
50.048004835358
 50
40.025735995627
 51
89.974814037162
210
0
220
0
230
1.0
 0
LINE
 8
TOOL_0
 5
58
 10
3308.741
 20
1537.464
 30
0
 11
3593.694
 21
1197.871
 31
0
 0
LINE
 8
TOOL_0
 5
59
 10
3593.694
 20
1197.871
 30
0
 11
3593.694
 21
1089.325
 31
0
 0
LINE
 8
TOOL_0
 5
5A
 10
3593.694
 20
1089.325
 30
0
 11
3572.194
 21
1089.325
 31
0
 0
ARC
 8
TOOL_0
 5
5B
 10
3572.194
 20
1009.325
 30
0
 40
80.0
 50
90.0
 51
270.0
210
0
220
0
230
1.0
 0
LINE
 8
TOOL_0
 5
5C
 10
3572.194
 20
929.325
 30
0
 11
3593.694
 21
929.325
 31
0
 0
LINE
 8
TOOL_0
 5
5D
 10
3593.694
 20
929.325
 30
0
 11
3598.706
 21
929.325
 31
0
 0
LINE
 8
TOOL_0
 5
5E
 10
3598.706
 20
929.325
 30
0
 11
1284.636
 21
1853.399
 31
0
 0
LINE
 8
TOOL_0
 5
5F
 10
1284.636
 20
1853.399
 30
0
 11
1314.943
 21
1853.399
 31
0
 0
LINE
 8
TOOL_0
 5
60
 10
1314.943
 20
1853.399
 30
0
 11
1314.943
 21
1965.899
 31
0
 0
ARC
 8
TOOL_0
 5
61
 10
1279.943
 20
1965.899
 30
0
 40
35.0
 50
0
 51
90.0
210
0
220
0
230
1.0
 0
LINE
 8
TOOL_0
 5
62
 10
1279.943
 20
2000.899
 30
0
 11
1124.943
 21
2000.899
 31
0
 0
ARC
 8
TOOL_0
 5
63
 10
1124.943
 20
1965.899
 30
0
 40
35.0
 50
90.0
 51
180.0
210
0
220
0
230
1.0
 0
LINE
 8
TOOL_0
 5
64
 10
1089.943
 20
1965.899
 30
0
 11
1089.943
 21
1740.899
 31
0
 0
ARC
 8
TOOL_0
 5
65
 10
1124.943
 20
1740.899
 30
0
 40
35.0
 50
180.0
 51
270.0
210
0
220
0
230
1.0
 0
LINE
 8
TOOL_0
 5
66
 10
1124.943
 20
1705.899
 30
0
 11
1279.943
 21
1705.899
 31
0
 0
ARC
 8
TOOL_0
 5
67
 10
1279.943
 20
1740.899
 30
0
 40
35.0
 50
270.0
 51
0
210
0
220
0
230
1.0
 0
LINE
 8
TOOL_0
 5
68
 10
1314.943
 20
1740.899
 30
0
 11
1314.943
 21
1853.399
 31
0
 0
LINE
 8
TOOL_0
 5
69
 10
1314.943
 20
1853.399
 30
0
 11
1311.106
 21
1857.468
 31
0
 0
LINE
 8
TOOL_0
 5
6A
 10
1311.106
 20
1857.468
 30
0
 11
1754.629
 21
1833.399
 31
0
 0
LINE
 8
TOOL_0
 5
6B
 10
1754.629
 20
1833.399
 30
0
 11
1784.943
 21
1833.399
 31
0
 0
LINE
 8
TOOL_0
 5
6C
 10
1784.943
 20
1833.399
 30
0
 11
1784.943
 21
1965.899
 31
0
 0
ARC
 8
TOOL_0
 5
6D
 10
1749.943
 20
1965.899
 30
0
 40
35.0
 50
0
 51
90.0
210
0
220
0
230
1.0
 0
LINE
 8
TOOL_0
 5
6E
 10
1749.943
 20
2000.899
 30
0
 11
1594.943
 21
2000.899
 31
0
 0
ARC
 8
TOOL_0
 5
6F
 10
1594.943
 20
1965.899
 30
0
 40
35.0
 50
90.0
 51
180.0
210
0
220
0
230
1.0
 0
LINE
 8
TOOL_0
 5
70
 10
1559.943
 20
1965.899
 30
0
 11
1559.943
 21
1700.899
 31
0
 0
ARC
 8
TOOL_0
 5
71
 10
1594.943
 20
1700.899
 30
0
 40
35.0
 50
180.0
 51
270.0
210
0
220
0
230
1.0
 0
LINE
 8
TOOL_0
 5
72
 10
1594.943
 20
1665.899
 30
0
 11
1749.943
 21
1665.899
 31
0
 0
ARC
 8
TOOL_0
 5
73
 10
1749.943
 20
1700.899
 30
0
 40
35.0
 50
270.0
 51
0
210
0
220
0
230
1.0
 0
LINE
 8
TOOL_0
 5
74
 10
1784.943
 20
1700.899
 30
0
 11
1784.943
 21
1833.399
 31
0
 0
LINE
 8
TOOL_0
 5
75
 10
1784.943
 20
1833.399
 30
0
 11
1781.575
 21
1837.777
 31
0
 0
LINE
 8
TOOL_0
 5
76
 10
1781.575
 20
1837.777
 30
0
 11
2020.693
 21
1682.146
 31
0
 0
LINE
 8
TOOL_0
 5
77
 10
2020.693
 20
1682.146
 30
0
 11
2020.693
 21
1651.65
 31
0
 0
LINE
 8
TOOL_0
 5
78
 10
2020.693
 20
1651.65
 30
0
 11
2020.693
 21
1580.589
 31
0
 0
LINE
 8
TOOL_0
 5
79
 10
2020.693
 20
1580.589
 30
0
 11
2013.254
 21
1573.15
 31
0
 0
LINE
 8
TOOL_0
 5
7A
 10
2013.254
 20
1573.15
 30
0
 11
1896.693
 21
1573.15
 31
0
 0
ARC
 8
TOOL_0
 5
7B
 10
1896.693
 20
1566.15
 30
0
 40
7.0
 50
90.0
 51
180.0
210
0
220
0
230
1.0
 0
LINE
 8
TOOL_0
 5
7C
 10
1889.693
 20
1566.15
 30
0
 11
1889.693
 21
1550.15
 31
0
 0
LINE
 8
TOOL_0
 5
7D
 10
1889.693
 20
1550.15
 30
0
 11
1240.943
 21
1550.15
 31
0
 0
LINE
 8
TOOL_0
 5
7E
 10
1240.943
 20
1550.15
 30
0
 11
1240.943
 21
1566.9
 31
0
 0
ARC
 8
TOOL_0
 5
7F
 10
1233.943
 20
1566.9
 30
0
 40
7.0
 50
0
 51
90.0
210
0
220
0
230
1.0
 0
LINE
 8
TOOL_0
 5
80
 10
1233.943
 20
1573.9
 30
0
 11
1075.943
 21
1573.9
 31
0
 0
ARC
 8
TOOL_0
 5
81
 10
1075.943
 20
1566.9
 30
0
 40
7.0
 50
90.0
 51
180.0
210
0
220
0
230
1.0
 0
LINE
 8
TOOL_0
 5
82
 10
1068.943
 20
1566.9
 30
0
 11
1068.943
 21
1550.15
 31
0
 0
LINE
 8
TOOL_0
 5
83
 10
1068.943
 20
1550.15
 30
0
 11
835.943
 21
1550.15
 31
0
 0
LINE
 8
TOOL_0
 5
84
 10
835.943
 20
1550.15
 30
0
 11
835.943
 21
1566.9
 31
0
 0
ARC
 8
TOOL_0
 5
85
 10
828.943
 20
1566.9
 30
0
 40
7.0
 50
0
 51
90.0
210
0
220
0
230
1.0
 0
LINE
 8
TOOL_0
 5
86
 10
828.943
 20
1573.9
 30
0
 11
570.943
 21
1573.9
 31
0
 0
ARC
 8
TOOL_0
 5
87
 10
570.943
 20
1566.9
 30
0
 40
7.0
 50
90.0
 51
180.0
210
0
220
0
230
1.0
 0
LINE
 8
TOOL_0
 5
88
 10
563.943
 20
1566.9
 30
0
 11
563.943
 21
1550.15
 31
0
 0
LINE
 8
TOOL_0
 5
89
 10
563.943
 20
1550.15
 30
0
 11
265.193
 21
1550.15
 31
0
 0
LINE
 8
TOOL_0
 5
8A
 10
265.193
 20
1550.15
 30
0
 11
265.193
 21
1566.15
 31
0
 0
ARC
 8
TOOL_0
 5
8B
 10
258.193
 20
1566.15
 30
0
 40
7.0
 50
0
 51
90.0
210
0
220
0
230
1.0
 0
LINE
 8
TOOL_0
 5
8C
 10
258.193
 20
1573.15
 30
0
 11
19.193
 21
1573.15
 31
0
 0
LINE
 8
TOOL_0
 5
8D
 10
19.193
 20
1573.15
 30
0
 11
19.193
 21
1975.645
 31
0
 0
ARC
 8
TOOL_0
 5
8E
 10
27.943
 20
1975.645
 30
0
 40
8.75
 50
90.0
 51
180.0
210
0
220
0
230
1.0
 0
LINE
 8
TOOL_0
 5
8F
 10
27.943
 20
1984.395
 30
0
 11
306.721
 21
1984.395
 31
0
 0
ARC
 8
TOOL_0
 5
90
 10
306.721
 20
2083.647
 30
0
 40
99.252
 50
270.0
 51
285.063685741874
210
0
220
0
230
1.0
 0
LINE
 8
TOOL_0
 5
91
 10
332.516
 20
1987.805
 30
0
 11
1015.576
 21
2171.65
 31
0
 0
LINE
 8
TOOL_0
 5
92
 10
1015.576
 20
2171.65
 30
0
 11
1787.849
 21
2171.65
 31
0
 0
ARC
 8
TOOL_0
 5
93
 10
1787.849
 20
2070.9
 30
0
 40
100.75
 50
35.651782107621
 51
90.0
210
0
220
0
230
1.0
 0
LINE
 8
TOOL_0
 5
94
 10
1869.716
 20
2129.623
 30
0
 11
2020.695
 21
1919.141
 31
0
 0
LINE
 8
TOOL_0
 5
95
 10
2020.695
 20
1919.141
 30
0
 11
2020.695
 21
1810.15
 31
0
 0
LINE
 8
TOOL_0
 5
96
 10
2020.695
 20
1810.15
 30
0
 11
1999.945
 21
1810.15
 31
0
 0
ARC
 8
TOOL_0
 5
97
 10
1999.945
 20
1730.9
 30
0
 40
79.25
 50
90.0
 51
270.0
210
0
220
0
230
1.0
 0
LINE
 8
TOOL_0
 5
98
 10
1999.945
 20
1651.65
 30
0
 11
2020.695
 21
1651.65
 31
0
 0
LINE
 8
TOOL_0
 5
99
 10
2020.695
 20
1651.65
 30
0
 11
2025.805
 21
1651.65
 31
0
 0
LINE
 8
TOOL_0
 5
9A
 10
2025.805
 20
1651.65
 30
0
 11
442.027
 21
2105.901
 31
0
 0
LINE
 8
TOOL_0
 5
9B
 10
442.027
 20
2105.901
 30
0
 11
442.027
 21
2076.392
 31
0
 0
LINE
 8
TOOL_0
 5
9C
 10
442.027
 20
2076.392
 30
0
 11
421.318
 21
2076.696
 31
0
 0
LINE
 8
TOOL_0
 5
9D
 10
421.318
 20
2076.696
 30
0
 11
20.318
 21
2076.696
 31
0
 0
LINE
 8
TOOL_0
 5
9E
 10
20.318
 20
2076.696
 30
0
 11
20.318
 21
2377.696
 31
0
 0
LINE
 8
TOOL_0
 5
9F
 10
20.318
 20
2377.696
 30
0
 11
421.318
 21
2377.696
 31
0
 0
LINE
 8
TOOL_0
 5
A0
 10
421.318
 20
2377.696
 30
0
 11
421.318
 21
2076.696
 31
0
 0
LINE
 8
TOOL_0
 5
A1
 10
421.318
 20
2076.696
 30
0
 11
421.262
 21
2071.619
 31
0
 0
LINE
 8
TOOL_0
 5
A2
 10
421.262
 20
2071.619
 30
0
 11
742.844
 21
2215.838
 31
0
 0
LINE
 8
TOOL_0
 5
A3
 10
742.844
 20
2215.838
 30
0
 11
742.844
 21
2188.962
 31
0
 0
LINE
 8
TOOL_0
 5
A4
 10
742.844
 20
2188.962
 30
0
 11
724.441
 21
2188.936
 31
0
 0
LINE
 8
TOOL_0
 5
A5
 10
724.441
 20
2188.936
 30
0
 11
523.441
 21
2188.936
 31
0
 0
LINE
 8
TOOL_0
 5
A6
 10
523.441
 20
2188.936
 30
0
 11
523.441
 21
2389.936
 31
0
 0
LINE
 8
TOOL_0
 5
A7
 10
523.441
 20
2389.936
 30
0
 11
724.441
 21
2389.936
 31
0
 0
LINE
 8
TOOL_0
 5
A8
 10
724.441
 20
2389.936
 30
0
 11
724.441
 21
2188.936
 31
0
 0
LINE
 8
TOOL_0
 5
A9
 10
724.441
 20
2188.936
 30
0
 11
724.441
 21
2183.962
 31
0
 0
LINE
 8
TOOL_0
 5
AA
 10
724.441
 20
2183.962
 30
0
 11
1024.251
 21
2219.239
 31
0
 0
LINE
 8
TOOL_0
 5
AB
 10
1024.251
 20
2219.239
 30
0
 11
1024.251
 21
2192.363
 31
0
 0
LINE
 8
TOOL_0
 5
AC
 10
1024.251
 20
2192.363
 30
0
 11
1005.848
 21
2192.337
 31
0
 0
LINE
 8
TOOL_0
 5
AD
 10
1005.848
 20
2192.337
 30
0
 11
804.848
 21
2192.337
 31
0
 0
LINE
 8
TOOL_0
 5
AE
 10
804.848
 20
2192.337
 30
0
 11
804.848
 21
2393.337
 31
0
 0
LINE
 8
TOOL_0
 5
AF
 10
804.848
 20
2393.337
 30
0
 11
1005.848
 21
2393.337
 31
0
 0
LINE
 8
TOOL_0
 5
B0
 10
1005.848
 20
2393.337
 30
0
 11
1005.848
 21
2192.337
 31
0
 0
LINE
 8
TOOL_0
 5
B1
 10
1005.848
 20
2192.337
 30
0
 11
1005.848
 21
2187.363
 31
0
 0
LINE
 8
TOOL_0
 5
B2
 10
1005.848
 20
2187.363
 30
0
 11
1298.876
 21
2222.64
 31
0
 0
LINE
 8
TOOL_0
 5
B3
 10
1298.876
 20
2222.64
 30
0
 11
1298.876
 21
2195.764
 31
0
 0
LINE
 8
TOOL_0
 5
B4
 10
1298.876
 20
2195.764
 30
0
 11
1280.473
 21
2195.738
 31
0
 0
LINE
 8
TOOL_0
 5
B5
 10
1280.473
 20
2195.738
 30
0
 11
1079.473
 21
2195.738
 31
0
 0
LINE
 8
TOOL_0
 5
B6
 10
1079.473
 20
2195.738
 30
0
 11
1079.473
 21
2396.738
 31
0
 0
LINE
 8
TOOL_0
 5
B7
 10
1079.473
 20
2396.738
 30
0
 11
1280.473
 21
2396.738
 31
0
 0
LINE
 8
TOOL_0
 5
B8
 10
1280.473
 20
2396.738
 30
0
 11
1280.473
 21
2195.738
 31
0
 0
LINE
 8
TOOL_0
 5
B9
 10
1280.473
 20
2195.738
 30
0
 11
1280.473
 21
2190.764
 31
0
 0
LINE
 8
TOOL_0
 5
BA
 10
1280.473
 20
2190.764
 30
0
 11
1576.893
 21
2222.64
 31
0
 0
LINE
 8
TOOL_0
 5
BB
 10
1576.893
 20
2222.64
 30
0
 11
1576.893
 21
2195.764
 31
0
 0
LINE
 8
TOOL_0
 5
BC
 10
1576.893
 20
2195.764
 30
0
 11
1558.49
 21
2195.738
 31
0
 0
LINE
 8
TOOL_0
 5
BD
 10
1558.49
 20
2195.738
 30
0
 11
1357.49
 21
2195.738
 31
0
 0
LINE
 8
TOOL_0
 5
BE
 10
1357.49
 20
2195.738
 30
0
 11
1357.49
 21
2396.738
 31
0
 0
LINE
 8
TOOL_0
 5
BF
 10
1357.49
 20
2396.738
 30
0
 11
1558.49
 21
2396.738
 31
0
 0
LINE
 8
TOOL_0
 5
C0
 10
1558.49
 20
2396.738
 30
0
 11
1558.49
 21
2195.738
 31
0
 0
LINE
 8
TOOL_0
 5
C1
 10
1558.49
 20
2195.738
 30
0
 11
1558.49
 21
2190.764
 31
0
 0
LINE
 8
TOOL_0
 5
C2
 10
1558.49
 20
2190.764
 30
0
 11
1858.3
 21
2222.64
 31
0
 0
LINE
 8
TOOL_0
 5
C3
 10
1858.3
 20
2222.64
 30
0
 11
1858.3
 21
2195.764
 31
0
 0
LINE
 8
TOOL_0
 5
C4
 10
1858.3
 20
2195.764
 30
0
 11
1839.897
 21
2195.738
 31
0
 0
LINE
 8
TOOL_0
 5
C5
 10
1839.897
 20
2195.738
 30
0
 11
1638.897
 21
2195.738
 31
0
 0
LINE
 8
TOOL_0
 5
C6
 10
1638.897
 20
2195.738
 30
0
 11
1638.897
 21
2396.738
 31
0
 0
LINE
 8
TOOL_0
 5
C7
 10
1638.897
 20
2396.738
 30
0
 11
1839.897
 21
2396.738
 31
0
 0
LINE
 8
TOOL_0
 5
C8
 10
1839.897
 20
2396.738
 30
0
 11
1839.897
 21
2195.738
 31
0
 0
LINE
 8
TOOL_0
 5
C9
 10
1839.897
 20
2195.738
 30
0
 11
1839.897
 21
2190.764
 31
0
 0
LINE
 8
TOOL_0
 5
CA
 10
1839.897
 20
2190.764
 30
0
 11
3304.323
 21
1970.738
 31
0
 0
LINE
 8
TOOL_0
 5
CB
 10
3304.323
 20
1970.738
 30
0
 11
3334.63
 21
1970.738
 31
0
 0
LINE
 8
TOOL_0
 5
CC
 10
3334.63
 20
1970.738
 30
0
 11
3334.63
 21
2083.238
 31
0
 0
ARC
 8
TOOL_0
 5
CD
 10
3299.63
 20
2083.238
 30
0
 40
35.0
 50
0
 51
90.0
210
0
220
0
230
1.0
 0
LINE
 8
TOOL_0
 5
CE
 10
3299.63
 20
2118.238
 30
0
 11
3144.63
 21
2118.238
 31
0
 0
ARC
 8
TOOL_0
 5
CF
 10
3144.63
 20
2083.238
 30
0
 40
35.0
 50
90.0
 51
180.0
210
0
220
0
230
1.0
 0
LINE
 8
TOOL_0
 5
D0
 10
3109.63
 20
2083.238
 30
0
 11
3109.63
 21
1858.238
 31
0
 0
ARC
 8
TOOL_0
 5
D1
 10
3144.63
 20
1858.238
 30
0
 40
35.0
 50
180.0
 51
270.0
210
0
220
0
230
1.0
 0
LINE
 8
TOOL_0
 5
D2
 10
3144.63
 20
1823.238
 30
0
 11
3299.63
 21
1823.238
 31
0
 0
ARC
 8
TOOL_0
 5
D3
 10
3299.63
 20
1858.238
 30
0
 40
35.0
 50
270.0
 51
0
210
0
220
0
230
1.0
 0
LINE
 8
TOOL_0
 5
D4
 10
3334.63
 20
1858.238
 30
0
 11
3334.63
 21
1970.738
 31
0
 0
LINE
 8
TOOL_0
 5
D5
 10
3334.63
 20
1970.738
 30
0
 11
3330.793
 21
1974.807
 31
0
 0
LINE
 8
TOOL_0
 5
D6
 10
3330.793
 20
1974.807
 30
0
 11
3774.316
 21
1950.738
 31
0
 0
LINE
 8
TOOL_0
 5
D7
 10
3774.316
 20
1950.738
 30
0
 11
3804.63
 21
1950.738
 31
0
 0
LINE
 8
TOOL_0
 5
D8
 10
3804.63
 20
1950.738
 30
0
 11
3804.63
 21
2083.238
 31
0
 0
ARC
 8
TOOL_0
 5
D9
 10
3769.63
 20
2083.238
 30
0
 40
35.0
 50
0
 51
90.0
210
0
220
0
230
1.0
 0
LINE
 8
TOOL_0
 5
DA
 10
3769.63
 20
2118.238
 30
0
 11
3614.63
 21
2118.238
 31
0
 0
ARC
 8
TOOL_0
 5
DB
 10
3614.63
 20
2083.238
 30
0
 40
35.0
 50
90.0
 51
180.0
210
0
220
0
230
1.0
 0
LINE
 8
TOOL_0
 5
DC
 10
3579.63
 20
2083.238
 30
0
 11
3579.63
 21
1818.238
 31
0
 0
ARC
 8
TOOL_0
 5
DD
 10
3614.63
 20
1818.238
 30
0
 40
35.0
 50
180.0
 51
270.0
210
0
220
0
230
1.0
 0
LINE
 8
TOOL_0
 5
DE
 10
3614.63
 20
1783.238
 30
0
 11
3769.63
 21
1783.238
 31
0
 0
ARC
 8
TOOL_0
 5
DF
 10
3769.63
 20
1818.238
 30
0
 40
35.0
 50
270.0
 51
0
210
0
220
0
230
1.0
 0
LINE
 8
TOOL_0
 5
E0
 10
3804.63
 20
1818.238
 30
0
 11
3804.63
 21
1950.738
 31
0
 0
LINE
 8
TOOL_0
 5
E1
 10
3804.63
 20
1950.738
 30
0
 11
3801.262
 21
1955.116
 31
0
 0
LINE
 8
TOOL_0
 5
E2
 10
3801.262
 20
1955.116
 30
0
 11
4040.38
 21
1799.484
 31
0
 0
LINE
 8
TOOL_0
 5
E3
 10
4040.38
 20
1799.484
 30
0
 11
4040.38
 21
1768.988
 31
0
 0
LINE
 8
TOOL_0
 5
E4
 10
4040.38
 20
1768.988
 30
0
 11
4040.38
 21
1697.927
 31
0
 0
LINE
 8
TOOL_0
 5
E5
 10
4040.38
 20
1697.927
 30
0
 11
4032.941
 21
1690.488
 31
0
 0
LINE
 8
TOOL_0
 5
E6
 10
4032.941
 20
1690.488
 30
0
 11
3916.38
 21
1690.488
 31
0
 0
ARC
 8
TOOL_0
 5
E7
 10
3916.38
 20
1683.488
 30
0
 40
7.0
 50
90.0
 51
180.0
210
0
220
0
230
1.0
 0
LINE
 8
TOOL_0
 5
E8
 10
3909.38
 20
1683.488
 30
0
 11
3909.38
 21
1667.488
 31
0
 0
LINE
 8
TOOL_0
 5
E9
 10
3909.38
 20
1667.488
 30
0
 11
3260.63
 21
1667.488
 31
0
 0
LINE
 8
TOOL_0
 5
EA
 10
3260.63
 20
1667.488
 30
0
 11
3260.63
 21
1684.238
 31
0
 0
ARC
 8
TOOL_0
 5
EB
 10
3253.63
 20
1684.238
 30
0
 40
7.0
 50
0
 51
90.0
210
0
220
0
230
1.0
 0
LINE
 8
TOOL_0
 5
EC
 10
3253.63
 20
1691.238
 30
0
 11
3095.63
 21
1691.238
 31
0
 0
ARC
 8
TOOL_0
 5
ED
 10
3095.63
 20
1684.238
 30
0
 40
7.0
 50
90.0
 51
180.0
210
0
220
0
230
1.0
 0
LINE
 8
TOOL_0
 5
EE
 10
3088.63
 20
1684.238
 30
0
 11
3088.63
 21
1667.488
 31
0
 0
LINE
 8
TOOL_0
 5
EF
 10
3088.63
 20
1667.488
 30
0
 11
2855.63
 21
1667.488
 31
0
 0
LINE
 8
TOOL_0
 5
F0
 10
2855.63
 20
1667.488
 30
0
 11
2855.63
 21
1684.238
 31
0
 0
ARC
 8
TOOL_0
 5
F1
 10
2848.63
 20
1684.238
 30
0
 40
7.0
 50
0
 51
90.0
210
0
220
0
230
1.0
 0
LINE
 8
TOOL_0
 5
F2
 10
2848.63
 20
1691.238
 30
0
 11
2590.63
 21
1691.238
 31
0
 0
ARC
 8
TOOL_0
 5
F3
 10
2590.63
 20
1684.238
 30
0
 40
7.0
 50
90.0
 51
180.0
210
0
220
0
230
1.0
 0
LINE
 8
TOOL_0
 5
F4
 10
2583.63
 20
1684.238
 30
0
 11
2583.63
 21
1667.488
 31
0
 0
LINE
 8
TOOL_0
 5
F5
 10
2583.63
 20
1667.488
 30
0
 11
2284.88
 21
1667.488
 31
0
 0
LINE
 8
TOOL_0
 5
F6
 10
2284.88
 20
1667.488
 30
0
 11
2284.88
 21
1683.488
 31
0
 0
ARC
 8
TOOL_0
 5
F7
 10
2277.88
 20
1683.488
 30
0
 40
7.0
 50
0
 51
90.0
210
0
220
0
230
1.0
 0
LINE
 8
TOOL_0
 5
F8
 10
2277.88
 20
1690.488
 30
0
 11
2038.88
 21
1690.488
 31
0
 0
LINE
 8
TOOL_0
 5
F9
 10
2038.88
 20
1690.488
 30
0
 11
2038.88
 21
2092.983
 31
0
 0
ARC
 8
TOOL_0
 5
FA
 10
2047.63
 20
2092.983
 30
0
 40
8.75
 50
90.0
 51
180.0
210
0
220
0
230
1.0
 0
LINE
 8
TOOL_0
 5
FB
 10
2047.63
 20
2101.733
 30
0
 11
2326.408
 21
2101.733
 31
0
 0
ARC
 8
TOOL_0
 5
FC
 10
2326.408
 20
2200.985
 30
0
 40
99.252
 50
270.0
 51
285.063685741874
210
0
220
0
230
1.0
 0
LINE
 8
TOOL_0
 5
FD
 10
2352.203
 20
2105.143
 30
0
 11
3035.263
 21
2288.988
 31
0
 0
LINE
 8
TOOL_0
 5
FE
 10
3035.263
 20
2288.988
 30
0
 11
3807.536
 21
2288.988
 31
0
 0
ARC
 8
TOOL_0
 5
FF
 10
3807.536
 20
2188.238
 30
0
 40
100.75
 50
35.651782107621
 51
90.0
210
0
220
0
230
1.0
 0
LINE
 8
TOOL_0
 5
100
 10
3889.403
 20
2246.961
 30
0
 11
4040.382
 21
2036.479
 31
0
 0
LINE
 8
TOOL_0
 5
101
 10
4040.382
 20
2036.479
 30
0
 11
4040.382
 21
1927.488
 31
0
 0
LINE
 8
TOOL_0
 5
102
 10
4040.382
 20
1927.488
 30
0
 11
4019.632
 21
1927.488
 31
0
 0
ARC
 8
TOOL_0
 5
103
 10
4019.632
 20
1848.238
 30
0
 40
79.25
 50
90.0
 51
270.0
210
0
220
0
230
1.0
 0
LINE
 8
TOOL_0
 5
104
 10
4019.632
 20
1768.988
 30
0
 11
4040.382
 21
1768.988
 31
0
 0
LINE
 8
TOOL_0
 5
105
 10
4040.382
 20
1768.988
 30
0
 11
4045.492
 21
1768.988
 31
0
 0
LINE
 8
TOOL_0
 5
106
 10
4045.492
 20
1768.988
 30
0
 11
2330.165
 21
2161.34
 31
0
 0
LINE
 8
TOOL_0
 5
107
 10
2330.165
 20
2161.34
 30
0
 11
2330.165
 21
2131.831
 31
0
 0
LINE
 8
TOOL_0
 5
108
 10
2330.165
 20
2131.831
 30
0
 11
2309.456
 21
2132.135
 31
0
 0
LINE
 8
TOOL_0
 5
109
 10
2309.456
 20
2132.135
 30
0
 11
1908.456
 21
2132.135
 31
0
 0
LINE
 8
TOOL_0
 5
10A
 10
1908.456
 20
2132.135
 30
0
 11
1908.456
 21
2433.135
 31
0
 0
LINE
 8
TOOL_0
 5
10B
 10
1908.456
 20
2433.135
 30
0
 11
2309.456
 21
2433.135
 31
0
 0
LINE
 8
TOOL_0
 5
10C
 10
2309.456
 20
2433.135
 30
0
 11
2309.456
 21
2132.135
 31
0
 0
LINE
 8
TOOL_0
 5
10D
 10
2309.456
 20
2132.135
 30
0
 11
2309.4
 21
2127.058
 31
0
 0
LINE
 8
TOOL_0
 5
10E
 10
2309.4
 20
2127.058
 30
0
 11
2587.246
 21
2263.454
 31
0
 0
LINE
 8
TOOL_0
 5
10F
 10
2587.246
 20
2263.454
 30
0
 11
2587.246
 21
2236.578
 31
0
 0
LINE
 8
TOOL_0
 5
110
 10
2587.246
 20
2236.578
 30
0
 11
2568.843
 21
2236.552
 31
0
 0
LINE
 8
TOOL_0
 5
111
 10
2568.843
 20
2236.552
 30
0
 11
2367.843
 21
2236.552
 31
0
 0
LINE
 8
TOOL_0
 5
112
 10
2367.843
 20
2236.552
 30
0
 11
2367.843
 21
2437.552
 31
0
 0
LINE
 8
TOOL_0
 5
113
 10
2367.843
 20
2437.552
 30
0
 11
2568.843
 21
2437.552
 31
0
 0
LINE
 8
TOOL_0
 5
114
 10
2568.843
 20
2437.552
 30
0
 11
2568.843
 21
2236.552
 31
0
 0
LINE
 8
TOOL_0
 5
115
 10
2568.843
 20
2236.552
 30
0
 11
2568.843
 21
2231.578
 31
0
 0
LINE
 8
TOOL_0
 5
116
 10
2568.843
 20
2231.578
 30
0
 11
4034.54
 21
49.274
 31
0
 0
LINE
 8
TOOL_0
 5
117
 10
4034.54
 20
49.274
 30
0
 11
4034.54
 21
19.765
 31
0
 0
LINE
 8
TOOL_0
 5
118
 10
4034.54
 20
19.765
 30
0
 11
4013.831
 21
20.069
 31
0
 0
LINE
 8
TOOL_0
 5
119
 10
4013.831
 20
20.069
 30
0
 11
3612.831
 21
20.069
 31
0
 0
LINE
 8
TOOL_0
 5
11A
 10
3612.831
 20
20.069
 30
0
 11
3612.831
 21
321.069
 31
0
 0
LINE
 8
TOOL_0
 5
11B
 10
3612.831
 20
321.069
 30
0
 11
4013.831
 21
321.069
 31
0
 0
LINE
 8
TOOL_0
 5
11C
 10
4013.831
 20
321.069
 30
0
 11
4013.831
 21
20.069
 31
0
 0
LINE
 8
TOOL_0
 5
11D
 10
4013.831
 20
20.069
 30
0
 11
4013.775
 21
14.992
 31
0
 0
LINE
 8
TOOL_0
 5
11E
 10
4013.775
 20
14.992
 30
0
 11
4034.54
 21
370.336
 31
0
 0
LINE
 8
TOOL_0
 5
11F
 10
4034.54
 20
370.336
 30
0
 11
4034.54
 21
340.827
 31
0
 0
LINE
 8
TOOL_0
 5
120
 10
4034.54
 20
340.827
 30
0
 11
4013.831
 21
341.131
 31
0
 0
LINE
 8
TOOL_0
 5
121
 10
4013.831
 20
341.131
 30
0
 11
3612.831
 21
341.131
 31
0
 0
LINE
 8
TOOL_0
 5
122
 10
3612.831
 20
341.131
 30
0
 11
3612.831
 21
642.131
 31
0
 0
LINE
 8
TOOL_0
 5
123
 10
3612.831
 20
642.131
 30
0
 11
4013.831
 21
642.131
 31
0
 0
LINE
 8
TOOL_0
 5
124
 10
4013.831
 20
642.131
 30
0
 11
4013.831
 21
341.131
 31
0
 0
LINE
 8
TOOL_0
 5
125
 10
4013.831
 20
341.131
 30
0
 11
4013.775
 21
336.054
 31
0
 0
LINE
 8
TOOL_0
 5
126
 10
4013.775
 20
336.054
 30
0
 11
3885.472
 21
694.292
 31
0
 0
LINE
 8
TOOL_0
 5
127
 10
3885.472
 20
694.292
 30
0
 11
3885.472
 21
662.485
 31
0
 0
LINE
 8
TOOL_0
 5
128
 10
3885.472
 20
662.485
 30
0
 11
3863.902
 21
662.197
 31
0
 0
LINE
 8
TOOL_0
 5
129
 10
3863.902
 20
662.197
 30
0
 11
3612.902
 21
662.197
 31
0
 0
LINE
 8
TOOL_0
 5
12A
 10
3612.902
 20
662.197
 30
0
 11
3612.902
 21
863.197
 31
0
 0
LINE
 8
TOOL_0
 5
12B
 10
3612.902
 20
863.197
 30
0
 11
3863.902
 21
863.197
 31
0
 0
LINE
 8
TOOL_0
 5
12C
 10
3863.902
 20
863.197
 30
0
 11
3863.902
 21
662.197
 31
0
 0
LINE
 8
TOOL_0
 5
12D
 10
3863.902
 20
662.197
 30
0
 11
3863.902
 21
657.139
 31
0
 0
LINE
 8
TOOL_0
 5
12E
 10
3863.902
 20
657.139
 30
0
 11
3886.15
 21
915.361
 31
0
 0
LINE
 8
TOOL_0
 5
12F
 10
3886.15
 20
915.361
 30
0
 11
3886.15
 21
883.554
 31
0
 0
LINE
 8
TOOL_0
 5
130
 10
3886.15
 20
883.554
 30
0
 11
3864.58
 21
883.266
 31
0
 0
LINE
 8
TOOL_0
 5
131
 10
3864.58
 20
883.266
 30
0
 11
3613.58
 21
883.266
 31
0
 0
LINE
 8
TOOL_0
 5
132
 10
3613.58
 20
883.266
 30
0
 11
3613.58
 21
1084.266
 31
0
 0
LINE
 8
TOOL_0
 5
133
 10
3613.58
 20
1084.266
 30
0
 11
3864.58
 21
1084.266
 31
0
 0
LINE
 8
TOOL_0
 5
134
 10
3864.58
 20
1084.266
 30
0
 11
3864.58
 21
883.266
 31
0
 0
LINE
 8
TOOL_0
 5
135
 10
3864.58
 20
883.266
 30
0
 11
3864.58
 21
878.208
 31
0
 0
LINE
 8
TOOL_0
 5
136
 10
3864.58
 20
878.208
 30
0
 11
3885.811
 21
1136.43
 31
0
 0
LINE
 8
TOOL_0
 5
137
 10
3885.811
 20
1136.43
 30
0
 11
3885.811
 21
1104.624
 31
0
 0
LINE
 8
TOOL_0
 5
138
 10
3885.811
 20
1104.624
 30
0
 11
3864.241
 21
1104.336
 31
0
 0
LINE
 8
TOOL_0
 5
139
 10
3864.241
 20
1104.336
 30
0
 11
3613.241
 21
1104.336
 31
0
 0
LINE
 8
TOOL_0
 5
13A
 10
3613.241
 20
1104.336
 30
0
 11
3613.241
 21
1305.336
 31
0
 0
LINE
 8
TOOL_0
 5
13B
 10
3613.241
 20
1305.336
 30
0
 11
3864.241
 21
1305.336
 31
0
 0
LINE
 8
TOOL_0
 5
13C
 10
3864.241
 20
1305.336
 30
0
 11
3864.241
 21
1104.336
 31
0
 0
LINE
 8
TOOL_0
 5
13D
 10
3864.241
 20
1104.336
 30
0
 11
3864.241
 21
1099.278
 31
0
 0
LINE
 8
TOOL_0
 5
13E
 10
3864.241
 20
1099.278
 30
0
 11
3885.811
 21
1358.18
 31
0
 0
LINE
 8
TOOL_0
 5
13F
 10
3885.811
 20
1358.18
 30
0
 11
3885.811
 21
1326.374
 31
0
 0
LINE
 8
TOOL_0
 5
140
 10
3885.811
 20
1326.374
 30
0
 11
3864.241
 21
1326.086
 31
0
 0
LINE
 8
TOOL_0
 5
141
 10
3864.241
 20
1326.086
 30
0
 11
3613.241
 21
1326.086
 31
0
 0
LINE
 8
TOOL_0
 5
142
 10
3613.241
 20
1326.086
 30
0
 11
3613.241
 21
1527.086
 31
0
 0
LINE
 8
TOOL_0
 5
143
 10
3613.241
 20
1527.086
 30
0
 11
3864.241
 21
1527.086
 31
0
 0
LINE
 8
TOOL_0
 5
144
 10
3864.241
 20
1527.086
 30
0
 11
3864.241
 21
1326.086
 31
0
 0
LINE
 8
TOOL_0
 5
145
 10
3864.241
 20
1326.086
 30
0
 11
3864.241
 21
1321.028
 31
0
 0
LINE
 8
TOOL_0
 5
146
 10
3864.241
 20
1321.028
 30
0
 11
4348.267
 21
52.508
 31
0
 0
LINE
 8
TOOL_0
 5
147
 10
4348.267
 20
52.508
 30
0
 11
4348.267
 21
20.702
 31
0
 0
LINE
 8
TOOL_0
 5
148
 10
4348.267
 20
20.702
 30
0
 11
4326.697
 21
20.414
 31
0
 0
LINE
 8
TOOL_0
 5
149
 10
4326.697
 20
20.414
 30
0
 11
4075.697
 21
20.414
 31
0
 0
LINE
 8
TOOL_0
 5
14A
 10
4075.697
 20
20.414
 30
0
 11
4075.697
 21
221.414
 31
0
 0
LINE
 8
TOOL_0
 5
14B
 10
4075.697
 20
221.414
 30
0
 11
4326.697
 21
221.414
 31
0
 0
LINE
 8
TOOL_0
 5
14C
 10
4326.697
 20
221.414
 30
0
 11
4326.697
 21
20.414
 31
0
 0
LINE
 8
TOOL_0
 5
14D
 10
4326.697
 20
20.414
 30
0
 11
4326.697
 21
15.356
 31
0
 0
LINE
 8
TOOL_0
 5
14E
 10
4326.697
 20
15.356
 30
0
 11
4347.926
 21
273.578
 31
0
 0
LINE
 8
TOOL_0
 5
14F
 10
4347.926
 20
273.578
 30
0
 11
4347.926
 21
241.771
 31
0
 0
LINE
 8
TOOL_0
 5
150
 10
4347.926
 20
241.771
 30
0
 11
4326.356
 21
241.483
 31
0
 0
LINE
 8
TOOL_0
 5
151
 10
4326.356
 20
241.483
 30
0
 11
4075.356
 21
241.483
 31
0
 0
LINE
 8
TOOL_0
 5
152
 10
4075.356
 20
241.483
 30
0
 11
4075.356
 21
442.483
 31
0
 0
LINE
 8
TOOL_0
 5
153
 10
4075.356
 20
442.483
 30
0
 11
4326.356
 21
442.483
 31
0
 0
LINE
 8
TOOL_0
 5
154
 10
4326.356
 20
442.483
 30
0
 11
4326.356
 21
241.483
 31
0
 0
LINE
 8
TOOL_0
 5
155
 10
4326.356
 20
241.483
 30
0
 11
4326.356
 21
236.425
 31
0
 0
LINE
 8
TOOL_0
 5
156
 10
4326.356
 20
236.425
 30
0
 11
4195.357
 21
697.351
 31
0
 0
LINE
 8
TOOL_0
 5
157
 10
4195.357
 20
697.351
 30
0
 11
4195.357
 21
665.544
 31
0
 0
LINE
 8
TOOL_0
 5
158
 10
4195.357
 20
665.544
 30
0
 11
4173.787
 21
665.256
 31
0
 0
LINE
 8
TOOL_0
 5
159
 10
4173.787
 20
665.256
 30
0
 11
3922.787
 21
665.256
 31
0
 0
LINE
 8
TOOL_0
 5
15A
 10
3922.787
 20
665.256
 30
0
 11
3922.787
 21
866.256
 31
0
 0
LINE
 8
TOOL_0
 5
15B
 10
3922.787
 20
866.256
 30
0
 11
4173.787
 21
866.256
 31
0
 0
LINE
 8
TOOL_0
 5
15C
 10
4173.787
 20
866.256
 30
0
 11
4173.787
 21
665.256
 31
0
 0
LINE
 8
TOOL_0
 5
15D
 10
4173.787
 20
665.256
 30
0
 11
4173.787
 21
660.198
 31
0
 0
LINE
 8
TOOL_0
 5
15E
 10
4173.787
 20
660.198
 30
0
 11
4191.966
 21
918.42
 31
0
 0
LINE
 8
TOOL_0
 5
15F
 10
4191.966
 20
918.42
 30
0
 11
4191.966
 21
886.613
 31
0
 0
LINE
 8
TOOL_0
 5
160
 10
4191.966
 20
886.613
 30
0
 11
4170.396
 21
886.325
 31
0
 0
LINE
 8
TOOL_0
 5
161
 10
4170.396
 20
886.325
 30
0
 11
3919.396
 21
886.325
 31
0
 0
LINE
 8
TOOL_0
 5
162
 10
3919.396
 20
886.325
 30
0
 11
3919.396
 21
1087.325
 31
0
 0
LINE
 8
TOOL_0
 5
163
 10
3919.396
 20
1087.325
 30
0
 11
4170.396
 21
1087.325
 31
0
 0
LINE
 8
TOOL_0
 5
164
 10
4170.396
 20
1087.325
 30
0
 11
4170.396
 21
886.325
 31
0
 0
LINE
 8
TOOL_0
 5
165
 10
4170.396
 20
886.325
 30
0
 11
4170.396
 21
881.267
 31
0
 0
LINE
 8
TOOL_0
 5
166
 10
4170.396
 20
881.267
 30
0
 11
4191.965
 21
1139.489
 31
0
 0
LINE
 8
TOOL_0
 5
167
 10
4191.965
 20
1139.489
 30
0
 11
4191.965
 21
1107.683
 31
0
 0
LINE
 8
TOOL_0
 5
168
 10
4191.965
 20
1107.683
 30
0
 11
4170.395
 21
1107.395
 31
0
 0
LINE
 8
TOOL_0
 5
169
 10
4170.395
 20
1107.395
 30
0
 11
3919.395
 21
1107.395
 31
0
 0
LINE
 8
TOOL_0
 5
16A
 10
3919.395
 20
1107.395
 30
0
 11
3919.395
 21
1308.395
 31
0
 0
LINE
 8
TOOL_0
 5
16B
 10
3919.395
 20
1308.395
 30
0
 11
4170.395
 21
1308.395
 31
0
 0
LINE
 8
TOOL_0
 5
16C
 10
4170.395
 20
1308.395
 30
0
 11
4170.395
 21
1107.395
 31
0
 0
LINE
 8
TOOL_0
 5
16D
 10
4170.395
 20
1107.395
 30
0
 11
4170.395
 21
1102.337
 31
0
 0
LINE
 8
TOOL_0
 5
16E
 10
4170.395
 20
1102.337
 30
0
 11
4192.643
 21
1361.579
 31
0
 0
LINE
 8
TOOL_0
 5
16F
 10
4192.643
 20
1361.579
 30
0
 11
4192.643
 21
1329.773
 31
0
 0
LINE
 8
TOOL_0
 5
170
 10
4192.643
 20
1329.773
 30
0
 11
4171.073
 21
1329.485
 31
0
 0
LINE
 8
TOOL_0
 5
171
 10
4171.073
 20
1329.485
 30
0
 11
3920.073
 21
1329.485
 31
0
 0
LINE
 8
TOOL_0
 5
172
 10
3920.073
 20
1329.485
 30
0
 11
3920.073
 21
1530.485
 31
0
 0
LINE
 8
TOOL_0
 5
173
 10
3920.073
 20
1530.485
 30
0
 11
4171.073
 21
1530.485
 31
0
 0
LINE
 8
TOOL_0
 5
174
 10
4171.073
 20
1530.485
 30
0
 11
4171.073
 21
1329.485
 31
0
 0
LINE
 8
TOOL_0
 5
175
 10
4171.073
 20
1329.485
 30
0
 11
4171.073
 21
1324.427
 31
0
 0
LINE
 8
TOOL_0
 5
176
 10
4171.073
 20
1324.427
 30
0
 11
4450.628
 21
489.453
 31
0
 0
LINE
 8
TOOL_0
 5
177
 10
4450.628
 20
489.453
 30
0
 11
4450.628
 21
462.577
 31
0
 0
LINE
 8
TOOL_0
 5
178
 10
4450.628
 20
462.577
 30
0
 11
4432.225
 21
462.551
 31
0
 0
LINE
 8
TOOL_0
 5
179
 10
4432.225
 20
462.551
 30
0
 11
4231.225
 21
462.551
 31
0
 0
LINE
 8
TOOL_0
 5
17A
 10
4231.225
 20
462.551
 30
0
 11
4231.225
 21
663.551
 31
0
 0
LINE
 8
TOOL_0
 5
17B
 10
4231.225
 20
663.551
 30
0
 11
4432.225
 21
663.551
 31
0
 0
LINE
 8
TOOL_0
 5
17C
 10
4432.225
 20
663.551
 30
0
 11
4432.225
 21
462.551
 31
0
 0
LINE
 8
TOOL_0
 5
17D
 10
4432.225
 20
462.551
 30
0
 11
4432.225
 21
457.577
 31
0
 0
LINE
 8
TOOL_0
 5
17E
 10
4432.225
 20
457.577
 30
0
 11
4448.595
 21
712.563
 31
0
 0
LINE
 8
TOOL_0
 5
17F
 10
4448.595
 20
712.563
 30
0
 11
4448.595
 21
685.688
 31
0
 0
LINE
 8
TOOL_0
 5
180
 10
4448.595
 20
685.688
 30
0
 11
4430.192
 21
685.662
 31
0
 0
LINE
 8
TOOL_0
 5
181
 10
4430.192
 20
685.662
 30
0
 11
4229.192
 21
685.662
 31
0
 0
LINE
 8
TOOL_0
 5
182
 10
4229.192
 20
685.662
 30
0
 11
4229.192
 21
886.662
 31
0
 0
LINE
 8
TOOL_0
 5
183
 10
4229.192
 20
886.662
 30
0
 11
4430.192
 21
886.662
 31
0
 0
LINE
 8
TOOL_0
 5
184
 10
4430.192
 20
886.662
 30
0
 11
4430.192
 21
685.662
 31
0
 0
LINE
 8
TOOL_0
 5
185
 10
4430.192
 20
685.662
 30
0
 11
4430.192
 21
680.688
 31
0
 0
LINE
 8
TOOL_0
 5
186
 10
4430.192
 20
680.688
 30
0
 11
4448.595
 21
933.633
 31
0
 0
LINE
 8
TOOL_0
 5
187
 10
4448.595
 20
933.633
 30
0
 11
4448.595
 21
906.757
 31
0
 0
LINE
 8
TOOL_0
 5
188
 10
4448.595
 20
906.757
 30
0
 11
4430.192
 21
906.731
 31
0
 0
LINE
 8
TOOL_0
 5
189
 10
4430.192
 20
906.731
 30
0
 11
4229.192
 21
906.731
 31
0
 0
LINE
 8
TOOL_0
 5
18A
 10
4229.192
 20
906.731
 30
0
 11
4229.192
 21
1107.731
 31
0
 0
LINE
 8
TOOL_0
 5
18B
 10
4229.192
 20
1107.731
 30
0
 11
4430.192
 21
1107.731
 31
0
 0
LINE
 8
TOOL_0
 5
18C
 10
4430.192
 20
1107.731
 30
0
 11
4430.192
 21
906.731
 31
0
 0
LINE
 8
TOOL_0
 5
18D
 10
4430.192
 20
906.731
 30
0
 11
4430.192
 21
901.757
 31
0
 0
LINE
 8
TOOL_0
 5
18E
 10
4430.192
 20
901.757
 30
0
 11
4448.595
 21
1154.703
 31
0
 0
LINE
 8
TOOL_0
 5
18F
 10
4448.595
 20
1154.703
 30
0
 11
4448.595
 21
1127.827
 31
0
 0
LINE
 8
TOOL_0
 5
190
 10
4448.595
 20
1127.827
 30
0
 11
4430.192
 21
1127.801
 31
0
 0
LINE
 8
TOOL_0
 5
191
 10
4430.192
 20
1127.801
 30
0
 11
4229.192
 21
1127.801
 31
0
 0
LINE
 8
TOOL_0
 5
192
 10
4229.192
 20
1127.801
 30
0
 11
4229.192
 21
1328.801
 31
0
 0
LINE
 8
TOOL_0
 5
193
 10
4229.192
 20
1328.801
 30
0
 11
4430.192
 21
1328.801
 31
0
 0
LINE
 8
TOOL_0
 5
194
 10
4430.192
 20
1328.801
 30
0
 11
4430.192
 21
1127.801
 31
0
 0
LINE
 8
TOOL_0
 5
195
 10
4430.192
 20
1127.801
 30
0
 11
4430.192
 21
1122.827
 31
0
 0
LINE
 8
TOOL_0
 5
196
 10
4430.192
 20
1122.827
 30
0
 11
4279.074
 21
1578.137
 31
0
 0
LINE
 8
TOOL_0
 5
197
 10
4279.074
 20
1578.137
 30
0
 11
4279.074
 21
1551.261
 31
0
 0
LINE
 8
TOOL_0
 5
198
 10
4279.074
 20
1551.261
 30
0
 11
4260.671
 21
1551.235
 31
0
 0
LINE
 8
TOOL_0
 5
199
 10
4260.671
 20
1551.235
 30
0
 11
4059.671
 21
1551.235
 31
0
 0
LINE
 8
TOOL_0
 5
19A
 10
4059.671
 20
1551.235
 30
0
 11
4059.671
 21
1752.235
 31
0
 0
LINE
 8
TOOL_0
 5
19B
 10
4059.671
 20
1752.235
 30
0
 11
4260.671
 21
1752.235
 31
0
 0
LINE
 8
TOOL_0
 5
19C
 10
4260.671
 20
1752.235
 30
0
 11
4260.671
 21
1551.235
 31
0
 0
LINE
 8
TOOL_0
 5
19D
 10
4260.671
 20
1551.235
 30
0
 11
4260.671
 21
1546.261
 31
0
 0
LINE
 8
TOOL_0
 5
19E
 10
4260.671
 20
1546.261
 30
0
 11
4280.768
 21
1799.206
 31
0
 0
LINE
 8
TOOL_0
 5
19F
 10
4280.768
 20
1799.206
 30
0
 11
4280.768
 21
1772.331
 31
0
 0
LINE
 8
TOOL_0
 5
1A0
 10
4280.768
 20
1772.331
 30
0
 11
4262.365
 21
1772.305
 31
0
 0
LINE
 8
TOOL_0
 5
1A1
 10
4262.365
 20
1772.305
 30
0
 11
4061.365
 21
1772.305
 31
0
 0
LINE
 8
TOOL_0
 5
1A2
 10
4061.365
 20
1772.305
 30
0
 11
4061.365
 21
1973.305
 31
0
 0
LINE
 8
TOOL_0
 5
1A3
 10
4061.365
 20
1973.305
 30
0
 11
4262.365
 21
1973.305
 31
0
 0
LINE
 8
TOOL_0
 5
1A4
 10
4262.365
 20
1973.305
 30
0
 11
4262.365
 21
1772.305
 31
0
 0
LINE
 8
TOOL_0
 5
1A5
 10
4262.365
 20
1772.305
 30
0
 11
4262.365
 21
1767.331
 31
0
 0
LINE
 8
TOOL_0
 5
1A6
 10
4262.365
 20
1767.331
 30
0
 11
4279.073
 21
2020.276
 31
0
 0
LINE
 8
TOOL_0
 5
1A7
 10
4279.073
 20
2020.276
 30
0
 11
4279.073
 21
1993.401
 31
0
 0
LINE
 8
TOOL_0
 5
1A8
 10
4279.073
 20
1993.401
 30
0
 11
4260.67
 21
1993.375
 31
0
 0
LINE
 8
TOOL_0
 5
1A9
 10
4260.67
 20
1993.375
 30
0
 11
4059.67
 21
1993.375
 31
0
 0
LINE
 8
TOOL_0
 5
1AA
 10
4059.67
 20
1993.375
 30
0
 11
4059.67
 21
2194.375
 31
0
 0
LINE
 8
TOOL_0
 5
1AB
 10
4059.67
 20
2194.375
 30
0
 11
4260.67
 21
2194.375
 31
0
 0
LINE
 8
TOOL_0
 5
1AC
 10
4260.67
 20
2194.375
 30
0
 11
4260.67
 21
1993.375
 31
0
 0
LINE
 8
TOOL_0
 5
1AD
 10
4260.67
 20
1993.375
 30
0
 11
4260.67
 21
1988.401
 31
0
 0
LINE
 8
TOOL_0
 5
1AE
 10
4260.67
 20
1988.401
 30
0
 11
4274.665
 21
2241.686
 31
0
 0
LINE
 8
TOOL_0
 5
1AF
 10
4274.665
 20
2241.686
 30
0
 11
4274.665
 21
2214.811
 31
0
 0
LINE
 8
TOOL_0
 5
1B0
 10
4274.665
 20
2214.811
 30
0
 11
4256.262
 21
2214.785
 31
0
 0
LINE
 8
TOOL_0
 5
1B1
 10
4256.262
 20
2214.785
 30
0
 11
4055.262
 21
2214.785
 31
0
 0
LINE
 8
TOOL_0
 5
1B2
 10
4055.262
 20
2214.785
 30
0
 11
4055.262
 21
2415.785
 31
0
 0
LINE
 8
TOOL_0
 5
1B3
 10
4055.262
 20
2415.785
 30
0
 11
4256.262
 21
2415.785
 31
0
 0
LINE
 8
TOOL_0
 5
1B4
 10
4256.262
 20
2415.785
 30
0
 11
4256.262
 21
2214.785
 31
0
 0
LINE
 8
TOOL_0
 5
1B5
 10
4256.262
 20
2214.785
 30
0
 11
4256.262
 21
2209.811
 31
0
 0
ENDSEC
 0
EOF

