0
SECTION
2
TABLES
0
TABLE
2
LAYER
70
0
0
LAYER
2
LAYER_NAME
70
0
62
1
6
CONTINUOUS
0
ENDTAB
0
ENDSEC
 0
SECTION
 2
ENTITIES
 0
LINE
 8
TOOL_0
 5
1
 10
293.94
 20
210.541
 30
0
 11
334.126
 21
168.392
 31
0
 0
ARC
 8
TOOL_0
 5
2
 10
465.927
 20
191.142
 30
0
 40
133.750013461682
 50
189.79325194618
 51
253.298458016481
210
0
220
0
230
1.0
 0
LINE
 8
TOOL_0
 5
3
 10
427.489
 20
63.034
 30
0
 11
427.49
 21
40.533
 31
0
 0
ARC
 8
TOOL_0
 5
4
 10
290.99
 20
292.141
 30
0
 40
286.249603779638
 50
241.519429478166
 51
298.480299136703
210
0
220
0
230
1.0
 0
LINE
 8
TOOL_0
 5
5
 10
154.489
 20
40.534
 30
0
 11
154.49
 21
63.034
 31
0
 0
ARC
 8
TOOL_0
 5
6
 10
116.053
 20
191.142
 30
0
 40
133.750000497196
 50
286.701131675159
 51
350.206325917115
210
0
220
0
230
1.0
 0
LINE
 8
TOOL_0
 5
7
 10
247.854
 20
168.391
 30
0
 11
334.126
 21
168.392
 31
0
 0
LINE
 8
TOOL_0
 5
8
 10
334.126
 20
168.392
 30
0
 11
339.119
 21
168.748
 31
0
 0
LINE
 8
TOOL_0
 5
9
 10
339.119
 20
168.748
 30
0
 11
293.94
 21
209.998
 31
0
 0
LINE
 8
TOOL_0
 5
A
 10
293.94
 20
209.998
 30
0
 11
237.557
 21
196.531
 31
0
 0
ARC
 8
TOOL_0
 5
B
 10
213.856
 20
64.898
 30
0
 40
133.749706878183
 50
79.793049746673
 51
143.298799794813
210
0
220
0
230
1.0
 0
LINE
 8
TOOL_0
 5
C
 10
106.621
 20
144.832
 30
0
 11
85.477
 21
152.528
 31
0
 0
ARC
 8
TOOL_0
 5
D
 10
368.597
 20
194.741
 30
0
 40
286.249666845221
 50
131.519359899416
 51
188.480289460121
210
0
220
0
230
1.0
 0
LINE
 8
TOOL_0
 5
E
 10
178.85
 20
409.065
 30
0
 11
199.992
 21
401.368
 31
0
 0
ARC
 8
TOOL_0
 5
F
 10
333.52
 20
393.671
 30
0
 40
133.749656421989
 50
176.700930626949
 51
240.206872813845
210
0
220
0
230
1.0
 0
LINE
 8
TOOL_0
 5
10
 10
267.064
 20
277.6
 30
0
 11
237.557
 21
196.531
 31
0
 0
LINE
 8
TOOL_0
 5
11
 10
237.557
 20
196.531
 30
0
 11
237.127
 21
191.002
 31
0
 0
LINE
 8
TOOL_0
 5
12
 10
237.127
 20
191.002
 30
0
 11
294.154
 21
210.5
 31
0
 0
LINE
 8
TOOL_0
 5
13
 10
294.154
 20
210.5
 30
0
 11
308.886
 21
273.671
 31
0
 0
ARC
 8
TOOL_0
 5
14
 10
232.566
 20
383.509
 30
0
 40
133.750247267061
 50
304.793176264648
 51
8.298398991258
210
0
220
0
230
1.0
 0
LINE
 8
TOOL_0
 5
15
 10
364.916
 20
402.813
 30
0
 11
385.308
 21
412.323
 31
0
 0
ARC
 8
TOOL_0
 5
16
 10
214.961
 20
182.278
 30
0
 40
286.249545735884
 50
356.519680214032
 51
53.480264868413
210
0
220
0
230
1.0
 0
LINE
 8
TOOL_0
 5
17
 10
500.683
 20
164.901
 30
0
 11
480.291
 21
155.392
 31
0
 0
ARC
 8
TOOL_0
 5
18
 10
380.43
 20
66.415
 30
0
 40
133.75023682222
 50
41.70130959674
 51
105.206726818499
210
0
220
0
230
1.0
 0
LINE
 8
TOOL_0
 5
19
 10
345.347
 20
195.482
 30
0
 11
308.887
 21
273.671
 31
0
 0
LINE
 8
TOOL_0
 5
1A
 10
308.887
 20
273.671
 30
0
 11
306.07
 21
278.064
 31
0
 0
LINE
 8
TOOL_0
 5
1B
 10
306.07
 20
278.064
 30
0
 11
0.001
 21
428.509
 31
0
 0
LINE
 8
TOOL_0
 5
1C
 10
0.001
 20
428.509
 30
0
 11
1.001
 21
428.509
 31
0
 0
LINE
 8
TOOL_0
 5
1D
 10
1.001
 20
428.509
 30
0
 11
0.001
 21
428.509
 31
0
 0
LINE
 8
TOOL_0
 5
1E
 10
0.001
 20
428.509
 30
0
 11
1.001
 21
428.509
 31
0
 0
LINE
 8
TOOL_0
 5
1F
 10
1.001
 20
428.509
 30
0
 11
529.683
 21
428.509
 31
0
 0
LINE
 8
TOOL_0
 5
20
 10
529.683
 20
428.509
 30
0
 11
529.683
 21
1.001
 31
0
 0
LINE
 8
TOOL_0
 5
21
 10
529.683
 20
1.001
 30
0
 11
529.683
 21
0.001
 31
0
 0
ENDSEC
 0
EOF

