0
SECTION
2
TABLES
0
TABLE
2
LAYER
70
0
0
LAYER
2
LAYER_NAME
70
0
62
1
6
CONTINUOUS
0
ENDTAB
0
ENDSEC
 0
SECTION
 2
ENTITIES
 0
LINE
 8
TOOL_0
 5
1
 10
352.646
 20
20.117
 30
0
 11
323.161
 21
20.117
 31
0
 0
LINE
 8
TOOL_0
 5
2
 10
323.161
 20
20.117
 30
0
 11
20.161
 21
20.117
 31
0
 0
LINE
 8
TOOL_0
 5
3
 10
20.161
 20
20.117
 30
0
 11
20.161
 21
93.117
 31
0
 0
LINE
 8
TOOL_0
 5
4
 10
20.161
 20
93.117
 30
0
 11
323.161
 21
93.117
 31
0
 0
LINE
 8
TOOL_0
 5
5
 10
323.161
 20
93.117
 30
0
 11
323.161
 21
20.117
 31
0
 0
LINE
 8
TOOL_0
 5
6
 10
323.161
 20
20.117
 30
0
 11
323.161
 21
15.272
 31
0
 0
LINE
 8
TOOL_0
 5
7
 10
323.161
 20
15.272
 30
0
 11
352.646
 21
117.173
 31
0
 0
LINE
 8
TOOL_0
 5
8
 10
352.646
 20
117.173
 30
0
 11
323.161
 21
117.173
 31
0
 0
LINE
 8
TOOL_0
 5
9
 10
323.161
 20
117.173
 30
0
 11
20.161
 21
117.173
 31
0
 0
LINE
 8
TOOL_0
 5
A
 10
20.161
 20
117.173
 30
0
 11
20.161
 21
190.173
 31
0
 0
LINE
 8
TOOL_0
 5
B
 10
20.161
 20
190.173
 30
0
 11
323.161
 21
190.173
 31
0
 0
LINE
 8
TOOL_0
 5
C
 10
323.161
 20
190.173
 30
0
 11
323.161
 21
117.173
 31
0
 0
LINE
 8
TOOL_0
 5
D
 10
323.161
 20
117.173
 30
0
 11
323.161
 21
112.328
 31
0
 0
LINE
 8
TOOL_0
 5
E
 10
323.161
 20
112.328
 30
0
 11
352.646
 21
210.496
 31
0
 0
LINE
 8
TOOL_0
 5
F
 10
352.646
 20
210.496
 30
0
 11
323.161
 21
210.496
 31
0
 0
LINE
 8
TOOL_0
 5
10
 10
323.161
 20
210.496
 30
0
 11
20.161
 21
210.496
 31
0
 0
LINE
 8
TOOL_0
 5
11
 10
20.161
 20
210.496
 30
0
 11
20.161
 21
283.496
 31
0
 0
LINE
 8
TOOL_0
 5
12
 10
20.161
 20
283.496
 30
0
 11
323.161
 21
283.496
 31
0
 0
LINE
 8
TOOL_0
 5
13
 10
323.161
 20
283.496
 30
0
 11
323.161
 21
210.496
 31
0
 0
LINE
 8
TOOL_0
 5
14
 10
323.161
 20
210.496
 30
0
 11
323.161
 21
205.651
 31
0
 0
LINE
 8
TOOL_0
 5
15
 10
323.161
 20
205.651
 30
0
 11
352.646
 21
304.648
 31
0
 0
LINE
 8
TOOL_0
 5
16
 10
352.646
 20
304.648
 30
0
 11
323.161
 21
304.648
 31
0
 0
LINE
 8
TOOL_0
 5
17
 10
323.161
 20
304.648
 30
0
 11
20.161
 21
304.648
 31
0
 0
LINE
 8
TOOL_0
 5
18
 10
20.161
 20
304.648
 30
0
 11
20.161
 21
377.648
 31
0
 0
LINE
 8
TOOL_0
 5
19
 10
20.161
 20
377.648
 30
0
 11
323.161
 21
377.648
 31
0
 0
LINE
 8
TOOL_0
 5
1A
 10
323.161
 20
377.648
 30
0
 11
323.161
 21
304.648
 31
0
 0
LINE
 8
TOOL_0
 5
1B
 10
323.161
 20
304.648
 30
0
 11
323.161
 21
299.803
 31
0
 0
LINE
 8
TOOL_0
 5
1C
 10
323.161
 20
299.803
 30
0
 11
371.281
 21
0.002
 31
0
 0
LINE
 8
TOOL_0
 5
1D
 10
371.281
 20
0.002
 30
0
 11
371.281
 21
1.002
 31
0
 0
LINE
 8
TOOL_0
 5
1E
 10
371.281
 20
1.002
 30
0
 11
371.281
 21
0.002
 31
0
 0
LINE
 8
TOOL_0
 5
1F
 10
371.281
 20
0.002
 30
0
 11
371.281
 21
1.002
 31
0
 0
LINE
 8
TOOL_0
 5
20
 10
371.281
 20
1.002
 30
0
 11
371.281
 21
393.835
 31
0
 0
LINE
 8
TOOL_0
 5
21
 10
371.281
 20
393.835
 30
0
 11
1.142
 21
393.835
 31
0
 0
LINE
 8
TOOL_0
 5
22
 10
1.142
 20
393.835
 30
0
 11
0.142
 21
393.835
 31
0
 0
ENDSEC
 0
EOF

