0
SECTION
2
TABLES
0
TABLE
2
LAYER
70
0
0
LAYER
2
LAYER_NAME
70
0
62
1
6
CONTINUOUS
0
ENDTAB
0
ENDSEC
 0
SECTION
 2
ENTITIES
 0
LINE
 8
TOOL_0
 5
1
 10
860.653
 20
82.205
 30
0
 11
829.067
 21
89.292
 31
0
 0
ARC
 8
TOOL_0
 5
2
 10
829.067
 20
39.792
 30
0
 40
49.5
 50
90.0
 51
106.000090186573
210
0
220
0
230
1.0
 0
LINE
 8
TOOL_0
 5
3
 10
815.423
 20
87.374
 30
0
 11
584.814
 21
21.248
 31
0
 0
ARC
 8
TOOL_0
 5
4
 10
570.894
 20
69.792
 30
0
 40
50.500359761095
 50
270.0
 51
286.000253014863
210
0
220
0
230
1.0
 0
LINE
 8
TOOL_0
 5
5
 10
570.894
 20
19.292
 30
0
 11
175.267
 21
19.292
 31
0
 0
ARC
 8
TOOL_0
 5
6
 10
175.267
 20
69.792
 30
0
 40
50.5
 50
222.799683484637
 51
270.0
210
0
220
0
230
1.0
 0
LINE
 8
TOOL_0
 5
7
 10
138.213
 20
35.48
 30
0
 11
79.093
 21
99.324
 31
0
 0
ARC
 8
TOOL_0
 5
8
 10
130.89
 20
147.253
 30
0
 40
70.569952883646
 50
181.359250757383
 51
222.778823555331
210
0
220
0
230
1.0
 0
ARC
 8
TOOL_0
 5
9
 10
779.127
 20
154.792
 30
0
 40
718.846041053298
 50
179.396540503934
 51
180.734344266698
210
0
220
0
230
1.0
 0
ARC
 8
TOOL_0
 5
A
 10
130.821
 20
162.359
 30
0
 40
70.500000113475
 50
137.199793205599
 51
179.996749175634
210
0
220
0
230
1.0
 0
LINE
 8
TOOL_0
 5
B
 10
79.093
 20
210.26
 30
0
 11
138.213
 21
274.104
 31
0
 0
ARC
 8
TOOL_0
 5
C
 10
175.266
 20
239.792
 30
0
 40
50.499882702834
 50
90.0
 51
137.199545644524
210
0
220
0
230
1.0
 0
LINE
 8
TOOL_0
 5
D
 10
175.266
 20
290.292
 30
0
 11
570.893
 21
290.292
 31
0
 0
ARC
 8
TOOL_0
 5
E
 10
570.893
 20
239.792
 30
0
 40
50.5
 50
73.999746985137
 51
90.0
210
0
220
0
230
1.0
 0
LINE
 8
TOOL_0
 5
F
 10
584.813
 20
288.336
 30
0
 11
815.422
 21
222.21
 31
0
 0
ARC
 8
TOOL_0
 5
10
 10
829.066
 20
269.792
 30
0
 40
49.499550098966
 50
253.999909813426
 51
270.0
210
0
220
0
230
1.0
 0
LINE
 8
TOOL_0
 5
11
 10
829.066
 20
220.292
 30
0
 11
1378.82
 21
220.292
 31
0
 0
ARC
 8
TOOL_0
 5
12
 10
1378.82
 20
199.792
 30
0
 40
20.5
 50
0
 51
90.0
210
0
220
0
230
1.0
 0
LINE
 8
TOOL_0
 5
13
 10
1399.32
 20
199.792
 30
0
 11
1399.32
 21
109.792
 31
0
 0
ARC
 8
TOOL_0
 5
14
 10
1378.82
 20
109.792
 30
0
 40
20.5
 50
270.0
 51
0
210
0
220
0
230
1.0
 0
LINE
 8
TOOL_0
 5
15
 10
1378.82
 20
89.292
 30
0
 11
829.066
 21
89.292
 31
0
 0
LINE
 8
TOOL_0
 5
16
 10
829.066
 20
89.292
 30
0
 11
826.65
 21
84.293
 31
0
 0
LINE
 8
TOOL_0
 5
17
 10
826.65
 20
84.293
 30
0
 11
765.435
 21
1251.086
 31
0
 0
LINE
 8
TOOL_0
 5
18
 10
765.435
 20
1251.086
 30
0
 11
730.461
 21
1249.742
 31
0
 0
LINE
 8
TOOL_0
 5
19
 10
730.461
 20
1249.742
 30
0
 11
698.328
 21
1215.041
 31
0
 0
ARC
 8
TOOL_0
 5
1A
 10
660.908
 20
1249.693
 30
0
 40
51.000171607554
 50
270.0
 51
317.199422933132
210
0
220
0
230
1.0
 0
LINE
 8
TOOL_0
 5
1B
 10
660.908
 20
1198.693
 30
0
 11
621.069
 21
1198.693
 31
0
 0
ARC
 8
TOOL_0
 5
1C
 10
621.069
 20
1249.693
 30
0
 40
51.0
 50
244.999666622979
 51
270.0
210
0
220
0
230
1.0
 0
LINE
 8
TOOL_0
 5
1D
 10
599.515
 20
1203.471
 30
0
 11
554.937
 21
1224.258
 31
0
 0
ARC
 8
TOOL_0
 5
1E
 10
533.806
 20
1178.943
 30
0
 40
49.999683859001
 50
64.999721177388
 51
90.0
210
0
220
0
230
1.0
 0
LINE
 8
TOOL_0
 5
1F
 10
533.806
 20
1228.943
 30
0
 11
391.184
 21
1228.943
 31
0
 0
ARC
 8
TOOL_0
 5
20
 10
391.184
 20
1279.693
 30
0
 40
50.75
 50
244.999816576982
 51
270.0
210
0
220
0
230
1.0
 0
LINE
 8
TOOL_0
 5
21
 10
369.736
 20
1233.698
 30
0
 11
239.713
 21
1294.329
 31
0
 0
ARC
 8
TOOL_0
 5
22
 10
218.899
 20
1249.693
 30
0
 40
49.250330882137
 50
65.000114534572
 51
90.0
210
0
220
0
230
1.0
 0
LINE
 8
TOOL_0
 5
23
 10
218.899
 20
1298.943
 30
0
 11
128.734
 21
1298.943
 31
0
 0
ARC
 8
TOOL_0
 5
24
 10
128.734
 20
1318.943
 30
0
 40
20.0
 50
180.0
 51
270.0
210
0
220
0
230
1.0
 0
LINE
 8
TOOL_0
 5
25
 10
108.734
 20
1318.943
 30
0
 11
108.734
 21
1360.443
 31
0
 0
ARC
 8
TOOL_0
 5
26
 10
128.734
 20
1360.443
 30
0
 40
20.0
 50
90.0
 51
180.0
210
0
220
0
230
1.0
 0
LINE
 8
TOOL_0
 5
27
 10
128.734
 20
1380.443
 30
0
 11
218.899
 21
1380.443
 31
0
 0
ARC
 8
TOOL_0
 5
28
 10
218.899
 20
1429.693
 30
0
 40
49.25
 50
270.0
 51
294.999885465428
210
0
220
0
230
1.0
 0
LINE
 8
TOOL_0
 5
29
 10
239.713
 20
1385.057
 30
0
 11
369.736
 21
1445.688
 31
0
 0
ARC
 8
TOOL_0
 5
2A
 10
391.184
 20
1399.693
 30
0
 40
50.749943142825
 50
90.0
 51
115.000183423017
210
0
220
0
230
1.0
 0
LINE
 8
TOOL_0
 5
2B
 10
391.184
 20
1450.443
 30
0
 11
533.806
 21
1450.443
 31
0
 0
ARC
 8
TOOL_0
 5
2C
 10
533.806
 20
1500.443
 30
0
 40
50.0
 50
270.0
 51
294.999794538419
210
0
220
0
230
1.0
 0
LINE
 8
TOOL_0
 5
2D
 10
554.937
 20
1455.127
 30
0
 11
599.515
 21
1475.914
 31
0
 0
ARC
 8
TOOL_0
 5
2E
 10
621.069
 20
1429.692
 30
0
 40
51.00047254683
 50
90.0
 51
115.000333377021
210
0
220
0
230
1.0
 0
LINE
 8
TOOL_0
 5
2F
 10
621.069
 20
1480.692
 30
0
 11
660.909
 21
1480.692
 31
0
 0
ARC
 8
TOOL_0
 5
30
 10
660.909
 20
1429.692
 30
0
 40
51.0
 50
42.800577066868
 51
90.0
210
0
220
0
230
1.0
 0
LINE
 8
TOOL_0
 5
31
 10
698.329
 20
1464.344
 30
0
 11
762.595
 21
1394.943
 31
0
 0
ARC
 8
TOOL_0
 5
32
 10
711.234
 20
1347.382
 30
0
 40
70.000007442857
 50
0
 51
42.80011562078
210
0
220
0
230
1.0
 0
ARC
 8
TOOL_0
 5
33
 10
52.483
 20
1339.693
 30
0
 40
728.791561917398
 50
359.267029014284
 51
0.604501266166
210
0
220
0
230
1.0
 0
ARC
 8
TOOL_0
 5
34
 10
711.166
 20
1332.032
 30
0
 40
70.068713738729
 50
317.220864842536
 51
358.640841082922
210
0
220
0
230
1.0
 0
LINE
 8
TOOL_0
 5
35
 10
762.595
 20
1284.443
 30
0
 11
730.462
 21
1249.743
 31
0
 0
LINE
 8
TOOL_0
 5
36
 10
730.462
 20
1249.743
 30
0
 11
730.654
 21
1244.747
 31
0
 0
LINE
 8
TOOL_0
 5
37
 10
730.654
 20
1244.747
 30
0
 11
730.654
 21
0.001
 31
0
 0
LINE
 8
TOOL_0
 5
38
 10
730.654
 20
0.001
 30
0
 11
1385.27
 21
1157.899
 31
0
 0
LINE
 8
TOOL_0
 5
39
 10
1385.27
 20
1157.899
 30
0
 11
1355.489
 21
1159.315
 31
0
 0
LINE
 8
TOOL_0
 5
3A
 10
1355.489
 20
1159.315
 30
0
 11
1268.312
 21
1159.315
 31
0
 0
ARC
 8
TOOL_0
 5
3B
 10
1268.312
 20
1140.115
 30
0
 40
19.2
 50
90.0
 51
148.07970508667
210
0
220
0
230
1.0
 0
ARC
 8
TOOL_0
 5
3C
 10
1232.659
 20
1162.339
 30
0
 40
22.812012624931
 50
239.849505978008
 51
328.048928599655
210
0
220
0
230
1.0
 0
ARC
 8
TOOL_0
 5
3D
 10
1186.413
 20
1082.793
 30
0
 40
69.199980809246
 50
59.820087804485
 51
90.0
210
0
220
0
230
1.0
 0
LINE
 8
TOOL_0
 5
3E
 10
1186.413
 20
1151.993
 30
0
 11
1158.913
 21
1151.993
 31
0
 0
ARC
 8
TOOL_0
 5
3F
 10
1158.913
 20
1082.793
 30
0
 40
69.2
 50
90.0
 51
120.179912195515
210
0
220
0
230
1.0
 0
ARC
 8
TOOL_0
 5
40
 10
1112.667
 20
1162.339
 30
0
 40
22.812295807305
 50
211.951071400344
 51
300.150494021992
210
0
220
0
230
1.0
 0
ARC
 8
TOOL_0
 5
41
 10
1077.014
 20
1140.115
 30
0
 40
19.200398771901
 50
31.92029491333
 51
90.0
210
0
220
0
230
1.0
 0
LINE
 8
TOOL_0
 5
42
 10
1077.014
 20
1159.315
 30
0
 11
989.837
 21
1159.315
 31
0
 0
ARC
 8
TOOL_0
 5
43
 10
989.853
 20
1169.339
 30
0
 40
10.024012769345
 50
202.09223773308
 51
269.908546319466
210
0
220
0
230
1.0
 0
LINE
 8
TOOL_0
 5
44
 10
980.565
 20
1165.569
 30
0
 11
959.322
 21
1218.148
 31
0
 0
ARC
 8
TOOL_0
 5
45
 10
951.163
 20
1214.851
 30
0
 40
8.79997102268
 50
22.003320384869
 51
75.523198505332
210
0
220
0
230
1.0
 0
ARC
 8
TOOL_0
 5
46
 10
955.663
 20
1232.28
 30
0
 40
9.200133912069
 50
180.0
 51
255.52270314299
210
0
220
0
230
1.0
 0
LINE
 8
TOOL_0
 5
47
 10
946.463
 20
1232.28
 30
0
 11
946.463
 21
1311.915
 31
0
 0
ARC
 8
TOOL_0
 5
48
 10
956.463
 20
1311.915
 30
0
 40
10.0
 50
90.0
 51
180.0
210
0
220
0
230
1.0
 0
LINE
 8
TOOL_0
 5
49
 10
956.463
 20
1321.915
 30
0
 11
1018.968
 21
1321.915
 31
0
 0
ARC
 8
TOOL_0
 5
4A
 10
1018.968
 20
1311.115
 30
0
 40
10.8
 50
48.460740534169
 51
90.0
210
0
220
0
230
1.0
 0
ARC
 8
TOOL_0
 5
4B
 10
961.525
 20
1250.092
 30
0
 40
94.602238208195
 50
43.466652314864
 51
46.928384843842
210
0
220
0
230
1.0
 0
LINE
 8
TOOL_0
 5
4C
 10
1030.185
 20
1315.172
 30
0
 11
1030.787
 21
1314.594
 31
0
 0
ARC
 8
TOOL_0
 5
4D
 10
1038.014
 20
1320.496
 30
0
 40
9.330762723379
 50
219.237129311716
 51
272.739746583199
210
0
220
0
230
1.0
 0
LINE
 8
TOOL_0
 5
4E
 10
1038.46
 20
1311.176
 30
0
 11
1075.757
 21
1313.131
 31
0
 0
ARC
 8
TOOL_0
 5
4F
 10
1074.49
 20
1337.298
 30
0
 40
24.200189627356
 50
273.001090424869
 51
320.000123438967
210
0
220
0
230
1.0
 0
LINE
 8
TOOL_0
 5
50
 10
1093.029
 20
1321.742
 30
0
 11
1103.0
 21
1333.625
 31
0
 0
ARC
 8
TOOL_0
 5
51
 10
1157.258
 20
1288.068
 30
0
 40
70.847518044036
 50
90.017791710546
 51
139.981952152145
210
0
220
0
230
1.0
 0
LINE
 8
TOOL_0
 5
52
 10
1157.236
 20
1358.916
 30
0
 11
1188.092
 21
1358.916
 31
0
 0
ARC
 8
TOOL_0
 5
53
 10
1188.092
 20
1288.116
 30
0
 40
70.8
 50
41.351276536947
 51
90.0
210
0
220
0
230
1.0
 0
ARC
 8
TOOL_0
 5
54
 10
689.283
 20
859.441
 30
0
 40
728.498581501708
 50
39.389999123718
 51
40.741326157114
210
0
220
0
230
1.0
 0
ARC
 8
TOOL_0
 5
55
 10
1270.837
 20
1337.298
 30
0
 40
24.199493155849
 50
219.999584725572
 51
267.001150046702
210
0
220
0
230
1.0
 0
LINE
 8
TOOL_0
 5
56
 10
1269.571
 20
1313.132
 30
0
 11
1306.868
 21
1311.177
 31
0
 0
ARC
 8
TOOL_0
 5
57
 10
1307.349
 20
1320.364
 30
0
 40
9.19958314273
 50
267.002924856545
 51
303.800613645744
210
0
220
0
230
1.0
 0
ARC
 8
TOOL_0
 5
58
 10
1299.423
 20
1329.655
 30
0
 40
21.376950951901
 50
307.603236713993
 51
317.477862862891
210
0
220
0
230
1.0
 0
LINE
 8
TOOL_0
 5
59
 10
1315.178
 20
1315.207
 30
0
 11
1318.722
 21
1318.753
 31
0
 0
ARC
 8
TOOL_0
 5
5A
 10
1326.384
 20
1311.056
 30
0
 40
10.860481250847
 50
90.131896128692
 51
134.869434936404
210
0
220
0
230
1.0
 0
LINE
 8
TOOL_0
 5
5B
 10
1326.359
 20
1321.916
 30
0
 11
1388.864
 21
1321.916
 31
0
 0
ARC
 8
TOOL_0
 5
5C
 10
1388.864
 20
1311.916
 30
0
 40
10.0
 50
0
 51
90.0
210
0
220
0
230
1.0
 0
LINE
 8
TOOL_0
 5
5D
 10
1398.864
 20
1311.916
 30
0
 11
1398.864
 21
1232.281
 31
0
 0
ARC
 8
TOOL_0
 5
5E
 10
1389.664
 20
1232.281
 30
0
 40
9.2
 50
284.477296857009
 51
0
210
0
220
0
230
1.0
 0
ARC
 8
TOOL_0
 5
5F
 10
1394.164
 20
1214.852
 30
0
 40
8.800422773935
 50
104.476801494668
 51
157.996679615131
210
0
220
0
230
1.0
 0
LINE
 8
TOOL_0
 5
60
 10
1386.005
 20
1218.149
 30
0
 11
1364.762
 21
1165.57
 31
0
 0
ARC
 8
TOOL_0
 5
61
 10
1355.474
 20
1169.34
 30
0
 40
10.023963487563
 50
270.091453680535
 51
337.907762266919
210
0
220
0
230
1.0
 0
LINE
 8
TOOL_0
 5
62
 10
1355.49
 20
1159.316
 30
0
 11
1350.896
 21
1156.968
 31
0
 0
LINE
 8
TOOL_0
 5
63
 10
1350.896
 20
1156.968
 30
0
 11
1384.917
 21
1393.275
 31
0
 0
LINE
 8
TOOL_0
 5
64
 10
1384.917
 20
1393.275
 30
0
 11
1355.136
 21
1394.691
 31
0
 0
LINE
 8
TOOL_0
 5
65
 10
1355.136
 20
1394.691
 30
0
 11
1267.959
 21
1394.691
 31
0
 0
ARC
 8
TOOL_0
 5
66
 10
1267.959
 20
1375.491
 30
0
 40
19.2
 50
90.0
 51
148.07970508667
210
0
220
0
230
1.0
 0
ARC
 8
TOOL_0
 5
67
 10
1232.306
 20
1397.715
 30
0
 40
22.812012624931
 50
239.849505978008
 51
328.048928599655
210
0
220
0
230
1.0
 0
ARC
 8
TOOL_0
 5
68
 10
1186.06
 20
1318.169
 30
0
 40
69.199980809246
 50
59.820087804485
 51
90.0
210
0
220
0
230
1.0
 0
LINE
 8
TOOL_0
 5
69
 10
1186.06
 20
1387.369
 30
0
 11
1158.56
 21
1387.369
 31
0
 0
ARC
 8
TOOL_0
 5
6A
 10
1158.56
 20
1318.169
 30
0
 40
69.2
 50
90.0
 51
120.179912195515
210
0
220
0
230
1.0
 0
ARC
 8
TOOL_0
 5
6B
 10
1112.314
 20
1397.715
 30
0
 40
22.812295807305
 50
211.951071400344
 51
300.150494021992
210
0
220
0
230
1.0
 0
ARC
 8
TOOL_0
 5
6C
 10
1076.661
 20
1375.491
 30
0
 40
19.200398771901
 50
31.92029491333
 51
90.0
210
0
220
0
230
1.0
 0
LINE
 8
TOOL_0
 5
6D
 10
1076.661
 20
1394.691
 30
0
 11
989.484
 21
1394.691
 31
0
 0
ARC
 8
TOOL_0
 5
6E
 10
989.5
 20
1404.715
 30
0
 40
10.024012769345
 50
202.09223773308
 51
269.908546319466
210
0
220
0
230
1.0
 0
LINE
 8
TOOL_0
 5
6F
 10
980.212
 20
1400.945
 30
0
 11
958.969
 21
1453.524
 31
0
 0
ARC
 8
TOOL_0
 5
70
 10
950.81
 20
1450.227
 30
0
 40
8.79997102268
 50
22.003320384869
 51
75.523198505332
210
0
220
0
230
1.0
 0
ARC
 8
TOOL_0
 5
71
 10
955.31
 20
1467.656
 30
0
 40
9.200133912069
 50
180.0
 51
255.52270314299
210
0
220
0
230
1.0
 0
LINE
 8
TOOL_0
 5
72
 10
946.11
 20
1467.656
 30
0
 11
946.11
 21
1547.291
 31
0
 0
ARC
 8
TOOL_0
 5
73
 10
956.11
 20
1547.291
 30
0
 40
10.0
 50
90.0
 51
180.0
210
0
220
0
230
1.0
 0
LINE
 8
TOOL_0
 5
74
 10
956.11
 20
1557.291
 30
0
 11
1018.615
 21
1557.291
 31
0
 0
ARC
 8
TOOL_0
 5
75
 10
1018.615
 20
1546.491
 30
0
 40
10.8
 50
48.460740534169
 51
90.0
210
0
220
0
230
1.0
 0
ARC
 8
TOOL_0
 5
76
 10
961.172
 20
1485.468
 30
0
 40
94.602238208195
 50
43.466652314864
 51
46.928384843842
210
0
220
0
230
1.0
 0
LINE
 8
TOOL_0
 5
77
 10
1029.832
 20
1550.548
 30
0
 11
1030.434
 21
1549.97
 31
0
 0
ARC
 8
TOOL_0
 5
78
 10
1037.661
 20
1555.872
 30
0
 40
9.330762723379
 50
219.237129311716
 51
272.739746583199
210
0
220
0
230
1.0
 0
LINE
 8
TOOL_0
 5
79
 10
1038.107
 20
1546.552
 30
0
 11
1075.404
 21
1548.507
 31
0
 0
ARC
 8
TOOL_0
 5
7A
 10
1074.137
 20
1572.674
 30
0
 40
24.200189627356
 50
273.001090424869
 51
320.000123438967
210
0
220
0
230
1.0
 0
LINE
 8
TOOL_0
 5
7B
 10
1092.676
 20
1557.118
 30
0
 11
1102.647
 21
1569.001
 31
0
 0
ARC
 8
TOOL_0
 5
7C
 10
1156.905
 20
1523.444
 30
0
 40
70.847518044036
 50
90.017791710546
 51
139.981952152145
210
0
220
0
230
1.0
 0
LINE
 8
TOOL_0
 5
7D
 10
1156.883
 20
1594.292
 30
0
 11
1187.739
 21
1594.292
 31
0
 0
ARC
 8
TOOL_0
 5
7E
 10
1187.739
 20
1523.492
 30
0
 40
70.8
 50
41.351276536947
 51
90.0
210
0
220
0
230
1.0
 0
ARC
 8
TOOL_0
 5
7F
 10
688.93
 20
1094.817
 30
0
 40
728.498581501708
 50
39.389999123718
 51
40.741326157114
210
0
220
0
230
1.0
 0
ARC
 8
TOOL_0
 5
80
 10
1270.484
 20
1572.674
 30
0
 40
24.199493155849
 50
219.999584725572
 51
267.001150046702
210
0
220
0
230
1.0
 0
LINE
 8
TOOL_0
 5
81
 10
1269.218
 20
1548.508
 30
0
 11
1306.515
 21
1546.553
 31
0
 0
ARC
 8
TOOL_0
 5
82
 10
1306.996
 20
1555.74
 30
0
 40
9.19958314273
 50
267.002924856545
 51
303.800613645744
210
0
220
0
230
1.0
 0
ARC
 8
TOOL_0
 5
83
 10
1299.07
 20
1565.031
 30
0
 40
21.376950951901
 50
307.603236713993
 51
317.477862862891
210
0
220
0
230
1.0
 0
LINE
 8
TOOL_0
 5
84
 10
1314.825
 20
1550.583
 30
0
 11
1318.369
 21
1554.129
 31
0
 0
ARC
 8
TOOL_0
 5
85
 10
1326.031
 20
1546.432
 30
0
 40
10.860481250847
 50
90.131896128692
 51
134.869434936404
210
0
220
0
230
1.0
 0
LINE
 8
TOOL_0
 5
86
 10
1326.006
 20
1557.292
 30
0
 11
1388.511
 21
1557.292
 31
0
 0
ARC
 8
TOOL_0
 5
87
 10
1388.511
 20
1547.292
 30
0
 40
10.0
 50
0
 51
90.0
210
0
220
0
230
1.0
 0
LINE
 8
TOOL_0
 5
88
 10
1398.511
 20
1547.292
 30
0
 11
1398.511
 21
1467.657
 31
0
 0
ARC
 8
TOOL_0
 5
89
 10
1389.311
 20
1467.657
 30
0
 40
9.2
 50
284.477296857009
 51
0
210
0
220
0
230
1.0
 0
ARC
 8
TOOL_0
 5
8A
 10
1393.811
 20
1450.228
 30
0
 40
8.800422773935
 50
104.476801494668
 51
157.996679615131
210
0
220
0
230
1.0
 0
LINE
 8
TOOL_0
 5
8B
 10
1385.652
 20
1453.525
 30
0
 11
1364.409
 21
1400.946
 31
0
 0
ARC
 8
TOOL_0
 5
8C
 10
1355.121
 20
1404.716
 30
0
 40
10.023963487563
 50
270.091453680535
 51
337.907762266919
210
0
220
0
230
1.0
 0
LINE
 8
TOOL_0
 5
8D
 10
1355.137
 20
1394.692
 30
0
 11
1350.543
 21
1392.344
 31
0
 0
LINE
 8
TOOL_0
 5
8E
 10
1350.543
 20
1392.344
 30
0
 11
1350.543
 21
0.003
 31
0
 0
LINE
 8
TOOL_0
 5
8F
 10
1350.543
 20
0.003
 30
0
 11
1856.368
 21
37.653
 31
0
 0
LINE
 8
TOOL_0
 5
90
 10
1856.368
 20
37.653
 30
0
 11
1826.588
 21
39.069
 31
0
 0
LINE
 8
TOOL_0
 5
91
 10
1826.588
 20
39.069
 30
0
 11
1739.411
 21
39.069
 31
0
 0
ARC
 8
TOOL_0
 5
92
 10
1739.411
 20
19.869
 30
0
 40
19.2
 50
90.0
 51
148.07970508667
210
0
220
0
230
1.0
 0
ARC
 8
TOOL_0
 5
93
 10
1703.758
 20
42.093
 30
0
 40
22.812012624931
 50
239.849505978008
 51
328.048928599655
210
0
220
0
230
1.0
 0
ARC
 8
TOOL_0
 5
94
 10
1657.512
 20
-37.453
 30
0
 40
69.199980809246
 50
59.820087804485
 51
90.0
210
0
220
0
230
1.0
 0
LINE
 8
TOOL_0
 5
95
 10
1657.512
 20
31.747
 30
0
 11
1630.012
 21
31.747
 31
0
 0
ARC
 8
TOOL_0
 5
96
 10
1630.012
 20
-37.453
 30
0
 40
69.2
 50
90.0
 51
120.179912195515
210
0
220
0
230
1.0
 0
ARC
 8
TOOL_0
 5
97
 10
1583.766
 20
42.093
 30
0
 40
22.812295807305
 50
211.951071400345
 51
300.150494021992
210
0
220
0
230
1.0
 0
ARC
 8
TOOL_0
 5
98
 10
1548.113
 20
19.869
 30
0
 40
19.200398771901
 50
31.92029491333
 51
90.0
210
0
220
0
230
1.0
 0
LINE
 8
TOOL_0
 5
99
 10
1548.113
 20
39.069
 30
0
 11
1460.936
 21
39.069
 31
0
 0
ARC
 8
TOOL_0
 5
9A
 10
1460.952
 20
49.093
 30
0
 40
10.024012769345
 50
202.092237733081
 51
269.908546319465
210
0
220
0
230
1.0
 0
LINE
 8
TOOL_0
 5
9B
 10
1451.664
 20
45.323
 30
0
 11
1430.421
 21
97.902
 31
0
 0
ARC
 8
TOOL_0
 5
9C
 10
1422.262
 20
94.605
 30
0
 40
8.79997102268
 50
22.003320384868
 51
75.523198505332
210
0
220
0
230
1.0
 0
ARC
 8
TOOL_0
 5
9D
 10
1426.762
 20
112.034
 30
0
 40
9.200133912069
 50
180.0
 51
255.522703142991
210
0
220
0
230
1.0
 0
LINE
 8
TOOL_0
 5
9E
 10
1417.562
 20
112.034
 30
0
 11
1417.562
 21
191.669
 31
0
 0
ARC
 8
TOOL_0
 5
9F
 10
1427.562
 20
191.669
 30
0
 40
10.0
 50
90.0
 51
180.0
210
0
220
0
230
1.0
 0
LINE
 8
TOOL_0
 5
A0
 10
1427.562
 20
201.669
 30
0
 11
1490.067
 21
201.669
 31
0
 0
ARC
 8
TOOL_0
 5
A1
 10
1490.067
 20
190.869
 30
0
 40
10.8
 50
48.460740534169
 51
90.0
210
0
220
0
230
1.0
 0
ARC
 8
TOOL_0
 5
A2
 10
1432.624
 20
129.846
 30
0
 40
94.602238208195
 50
43.466652314864
 51
46.928384843842
210
0
220
0
230
1.0
 0
LINE
 8
TOOL_0
 5
A3
 10
1501.284
 20
194.926
 30
0
 11
1501.886
 21
194.348
 31
0
 0
ARC
 8
TOOL_0
 5
A4
 10
1509.113
 20
200.25
 30
0
 40
9.330762723379
 50
219.237129311716
 51
272.739746583199
210
0
220
0
230
1.0
 0
LINE
 8
TOOL_0
 5
A5
 10
1509.559
 20
190.93
 30
0
 11
1546.856
 21
192.885
 31
0
 0
ARC
 8
TOOL_0
 5
A6
 10
1545.589
 20
217.052
 30
0
 40
24.200189627356
 50
273.001090424869
 51
320.000123438967
210
0
220
0
230
1.0
 0
LINE
 8
TOOL_0
 5
A7
 10
1564.128
 20
201.496
 30
0
 11
1574.099
 21
213.379
 31
0
 0
ARC
 8
TOOL_0
 5
A8
 10
1628.357
 20
167.822
 30
0
 40
70.847518044036
 50
90.017791710546
 51
139.981952152145
210
0
220
0
230
1.0
 0
LINE
 8
TOOL_0
 5
A9
 10
1628.335
 20
238.67
 30
0
 11
1659.191
 21
238.67
 31
0
 0
ARC
 8
TOOL_0
 5
AA
 10
1659.191
 20
167.87
 30
0
 40
70.8
 50
41.351276536947
 51
90.0
210
0
220
0
230
1.0
 0
ARC
 8
TOOL_0
 5
AB
 10
1160.382
 20
-260.805
 30
0
 40
728.498581501708
 50
39.389999123718
 51
40.741326157114
210
0
220
0
230
1.0
 0
ARC
 8
TOOL_0
 5
AC
 10
1741.936
 20
217.052
 30
0
 40
24.199493155849
 50
219.999584725572
 51
267.001150046702
210
0
220
0
230
1.0
 0
LINE
 8
TOOL_0
 5
AD
 10
1740.67
 20
192.886
 30
0
 11
1777.967
 21
190.931
 31
0
 0
ARC
 8
TOOL_0
 5
AE
 10
1778.448
 20
200.118
 30
0
 40
9.19958314273
 50
267.002924856545
 51
303.800613645744
210
0
220
0
230
1.0
 0
ARC
 8
TOOL_0
 5
AF
 10
1770.522
 20
209.409
 30
0
 40
21.376950951902
 50
307.603236713993
 51
317.477862862891
210
0
220
0
230
1.0
 0
LINE
 8
TOOL_0
 5
B0
 10
1786.277
 20
194.961
 30
0
 11
1789.821
 21
198.507
 31
0
 0
ARC
 8
TOOL_0
 5
B1
 10
1797.483
 20
190.81
 30
0
 40
10.860481250847
 50
90.131896128692
 51
134.869434936404
210
0
220
0
230
1.0
 0
LINE
 8
TOOL_0
 5
B2
 10
1797.458
 20
201.67
 30
0
 11
1859.963
 21
201.67
 31
0
 0
ARC
 8
TOOL_0
 5
B3
 10
1859.963
 20
191.67
 30
0
 40
10.0
 50
0
 51
90.0
210
0
220
0
230
1.0
 0
LINE
 8
TOOL_0
 5
B4
 10
1869.963
 20
191.67
 30
0
 11
1869.963
 21
112.035
 31
0
 0
ARC
 8
TOOL_0
 5
B5
 10
1860.763
 20
112.035
 30
0
 40
9.2
 50
284.477296857009
 51
0
210
0
220
0
230
1.0
 0
ARC
 8
TOOL_0
 5
B6
 10
1865.263
 20
94.606
 30
0
 40
8.800422773935
 50
104.476801494668
 51
157.996679615131
210
0
220
0
230
1.0
 0
LINE
 8
TOOL_0
 5
B7
 10
1857.104
 20
97.903
 30
0
 11
1835.861
 21
45.324
 31
0
 0
ARC
 8
TOOL_0
 5
B8
 10
1826.573
 20
49.094
 30
0
 40
10.023963487563
 50
270.091453680535
 51
337.907762266919
210
0
220
0
230
1.0
 0
LINE
 8
TOOL_0
 5
B9
 10
1826.589
 20
39.07
 30
0
 11
1821.995
 21
36.722
 31
0
 0
LINE
 8
TOOL_0
 5
BA
 10
1821.995
 20
36.722
 30
0
 11
1858.437
 21
273.119
 31
0
 0
LINE
 8
TOOL_0
 5
BB
 10
1858.437
 20
273.119
 30
0
 11
1828.656
 21
274.536
 31
0
 0
LINE
 8
TOOL_0
 5
BC
 10
1828.656
 20
274.536
 30
0
 11
1741.479
 21
274.536
 31
0
 0
ARC
 8
TOOL_0
 5
BD
 10
1741.479
 20
255.336
 30
0
 40
19.2
 50
90.0
 51
148.07970508667
210
0
220
0
230
1.0
 0
ARC
 8
TOOL_0
 5
BE
 10
1705.826
 20
277.56
 30
0
 40
22.812012624931
 50
239.849505978008
 51
328.048928599655
210
0
220
0
230
1.0
 0
ARC
 8
TOOL_0
 5
BF
 10
1659.58
 20
198.014
 30
0
 40
69.199980809246
 50
59.820087804485
 51
90.0
210
0
220
0
230
1.0
 0
LINE
 8
TOOL_0
 5
C0
 10
1659.58
 20
267.214
 30
0
 11
1632.08
 21
267.214
 31
0
 0
ARC
 8
TOOL_0
 5
C1
 10
1632.08
 20
198.014
 30
0
 40
69.2
 50
90.0
 51
120.179912195515
210
0
220
0
230
1.0
 0
ARC
 8
TOOL_0
 5
C2
 10
1585.834
 20
277.56
 30
0
 40
22.812295807305
 50
211.951071400345
 51
300.150494021992
210
0
220
0
230
1.0
 0
ARC
 8
TOOL_0
 5
C3
 10
1550.181
 20
255.336
 30
0
 40
19.200398771901
 50
31.92029491333
 51
90.0
210
0
220
0
230
1.0
 0
LINE
 8
TOOL_0
 5
C4
 10
1550.181
 20
274.536
 30
0
 11
1463.004
 21
274.536
 31
0
 0
ARC
 8
TOOL_0
 5
C5
 10
1463.02
 20
284.56
 30
0
 40
10.024012769345
 50
202.09223773308
 51
269.908546319465
210
0
220
0
230
1.0
 0
LINE
 8
TOOL_0
 5
C6
 10
1453.732
 20
280.79
 30
0
 11
1432.489
 21
333.369
 31
0
 0
ARC
 8
TOOL_0
 5
C7
 10
1424.33
 20
330.072
 30
0
 40
8.79997102268
 50
22.003320384869
 51
75.523198505332
210
0
220
0
230
1.0
 0
ARC
 8
TOOL_0
 5
C8
 10
1428.83
 20
347.501
 30
0
 40
9.200133912069
 50
180.0
 51
255.522703142991
210
0
220
0
230
1.0
 0
LINE
 8
TOOL_0
 5
C9
 10
1419.63
 20
347.501
 30
0
 11
1419.63
 21
427.136
 31
0
 0
ARC
 8
TOOL_0
 5
CA
 10
1429.63
 20
427.136
 30
0
 40
10.0
 50
90.0
 51
180.0
210
0
220
0
230
1.0
 0
LINE
 8
TOOL_0
 5
CB
 10
1429.63
 20
437.136
 30
0
 11
1492.135
 21
437.136
 31
0
 0
ARC
 8
TOOL_0
 5
CC
 10
1492.135
 20
426.336
 30
0
 40
10.8
 50
48.460740534169
 51
90.0
210
0
220
0
230
1.0
 0
ARC
 8
TOOL_0
 5
CD
 10
1434.692
 20
365.313
 30
0
 40
94.602238208195
 50
43.466652314864
 51
46.928384843842
210
0
220
0
230
1.0
 0
LINE
 8
TOOL_0
 5
CE
 10
1503.352
 20
430.393
 30
0
 11
1503.954
 21
429.815
 31
0
 0
ARC
 8
TOOL_0
 5
CF
 10
1511.181
 20
435.717
 30
0
 40
9.330762723379
 50
219.237129311716
 51
272.739746583199
210
0
220
0
230
1.0
 0
LINE
 8
TOOL_0
 5
D0
 10
1511.627
 20
426.397
 30
0
 11
1548.924
 21
428.352
 31
0
 0
ARC
 8
TOOL_0
 5
D1
 10
1547.657
 20
452.519
 30
0
 40
24.200189627356
 50
273.001090424869
 51
320.000123438967
210
0
220
0
230
1.0
 0
LINE
 8
TOOL_0
 5
D2
 10
1566.196
 20
436.963
 30
0
 11
1576.167
 21
448.846
 31
0
 0
ARC
 8
TOOL_0
 5
D3
 10
1630.425
 20
403.289
 30
0
 40
70.847518044036
 50
90.017791710546
 51
139.981952152145
210
0
220
0
230
1.0
 0
LINE
 8
TOOL_0
 5
D4
 10
1630.403
 20
474.137
 30
0
 11
1661.259
 21
474.137
 31
0
 0
ARC
 8
TOOL_0
 5
D5
 10
1661.259
 20
403.337
 30
0
 40
70.8
 50
41.351276536947
 51
90.0
210
0
220
0
230
1.0
 0
ARC
 8
TOOL_0
 5
D6
 10
1162.45
 20
-25.338
 30
0
 40
728.498581501708
 50
39.389999123718
 51
40.741326157114
210
0
220
0
230
1.0
 0
ARC
 8
TOOL_0
 5
D7
 10
1744.004
 20
452.519
 30
0
 40
24.199493155849
 50
219.999584725572
 51
267.001150046702
210
0
220
0
230
1.0
 0
LINE
 8
TOOL_0
 5
D8
 10
1742.738
 20
428.353
 30
0
 11
1780.035
 21
426.398
 31
0
 0
ARC
 8
TOOL_0
 5
D9
 10
1780.516
 20
435.585
 30
0
 40
9.19958314273
 50
267.002924856545
 51
303.800613645744
210
0
220
0
230
1.0
 0
ARC
 8
TOOL_0
 5
DA
 10
1772.59
 20
444.876
 30
0
 40
21.376950951902
 50
307.603236713993
 51
317.477862862891
210
0
220
0
230
1.0
 0
LINE
 8
TOOL_0
 5
DB
 10
1788.345
 20
430.428
 30
0
 11
1791.889
 21
433.974
 31
0
 0
ARC
 8
TOOL_0
 5
DC
 10
1799.551
 20
426.277
 30
0
 40
10.860481250847
 50
90.131896128692
 51
134.869434936404
210
0
220
0
230
1.0
 0
LINE
 8
TOOL_0
 5
DD
 10
1799.526
 20
437.137
 30
0
 11
1862.031
 21
437.137
 31
0
 0
ARC
 8
TOOL_0
 5
DE
 10
1862.031
 20
427.137
 30
0
 40
10.0
 50
0
 51
90.0
210
0
220
0
230
1.0
 0
LINE
 8
TOOL_0
 5
DF
 10
1872.031
 20
427.137
 30
0
 11
1872.031
 21
347.502
 31
0
 0
ARC
 8
TOOL_0
 5
E0
 10
1862.831
 20
347.502
 30
0
 40
9.2
 50
284.477296857009
 51
0
210
0
220
0
230
1.0
 0
ARC
 8
TOOL_0
 5
E1
 10
1867.331
 20
330.073
 30
0
 40
8.800422773935
 50
104.476801494668
 51
157.996679615131
210
0
220
0
230
1.0
 0
LINE
 8
TOOL_0
 5
E2
 10
1859.172
 20
333.37
 30
0
 11
1837.929
 21
280.791
 31
0
 0
ARC
 8
TOOL_0
 5
E3
 10
1828.641
 20
284.561
 30
0
 40
10.023963487563
 50
270.091453680535
 51
337.907762266919
210
0
220
0
230
1.0
 0
LINE
 8
TOOL_0
 5
E4
 10
1828.657
 20
274.537
 30
0
 11
1824.063
 21
272.189
 31
0
 0
LINE
 8
TOOL_0
 5
E5
 10
1824.063
 20
272.189
 30
0
 11
2327.009
 21
37.392
 31
0
 0
LINE
 8
TOOL_0
 5
E6
 10
2327.009
 20
37.392
 30
0
 11
2297.228
 21
38.808
 31
0
 0
LINE
 8
TOOL_0
 5
E7
 10
2297.228
 20
38.808
 30
0
 11
2210.051
 21
38.808
 31
0
 0
ARC
 8
TOOL_0
 5
E8
 10
2210.051
 20
19.608
 30
0
 40
19.2
 50
90.0
 51
148.07970508667
210
0
220
0
230
1.0
 0
ARC
 8
TOOL_0
 5
E9
 10
2174.398
 20
41.832
 30
0
 40
22.812012624931
 50
239.849505978009
 51
328.048928599656
210
0
220
0
230
1.0
 0
ARC
 8
TOOL_0
 5
EA
 10
2128.152
 20
-37.714
 30
0
 40
69.199980809246
 50
59.820087804485
 51
90.0
210
0
220
0
230
1.0
 0
LINE
 8
TOOL_0
 5
EB
 10
2128.152
 20
31.486
 30
0
 11
2100.652
 21
31.486
 31
0
 0
ARC
 8
TOOL_0
 5
EC
 10
2100.652
 20
-37.714
 30
0
 40
69.2
 50
90.0
 51
120.179912195515
210
0
220
0
230
1.0
 0
ARC
 8
TOOL_0
 5
ED
 10
2054.406
 20
41.832
 30
0
 40
22.812295807305
 50
211.951071400345
 51
300.150494021992
210
0
220
0
230
1.0
 0
ARC
 8
TOOL_0
 5
EE
 10
2018.753
 20
19.608
 30
0
 40
19.200398771901
 50
31.92029491333
 51
90.0
210
0
220
0
230
1.0
 0
LINE
 8
TOOL_0
 5
EF
 10
2018.753
 20
38.808
 30
0
 11
1931.576
 21
38.808
 31
0
 0
ARC
 8
TOOL_0
 5
F0
 10
1931.592
 20
48.832
 30
0
 40
10.024012769345
 50
202.092237733081
 51
269.908546319465
210
0
220
0
230
1.0
 0
LINE
 8
TOOL_0
 5
F1
 10
1922.304
 20
45.062
 30
0
 11
1901.061
 21
97.641
 31
0
 0
ARC
 8
TOOL_0
 5
F2
 10
1892.902
 20
94.344
 30
0
 40
8.79997102268
 50
22.003320384868
 51
75.523198505332
210
0
220
0
230
1.0
 0
ARC
 8
TOOL_0
 5
F3
 10
1897.402
 20
111.773
 30
0
 40
9.200133912069
 50
180.0
 51
255.522703142991
210
0
220
0
230
1.0
 0
LINE
 8
TOOL_0
 5
F4
 10
1888.202
 20
111.773
 30
0
 11
1888.202
 21
191.408
 31
0
 0
ARC
 8
TOOL_0
 5
F5
 10
1898.202
 20
191.408
 30
0
 40
10.0
 50
90.0
 51
180.0
210
0
220
0
230
1.0
 0
LINE
 8
TOOL_0
 5
F6
 10
1898.202
 20
201.408
 30
0
 11
1960.707
 21
201.408
 31
0
 0
ARC
 8
TOOL_0
 5
F7
 10
1960.707
 20
190.608
 30
0
 40
10.8
 50
48.460740534169
 51
90.0
210
0
220
0
230
1.0
 0
ARC
 8
TOOL_0
 5
F8
 10
1903.264
 20
129.585
 30
0
 40
94.602238208195
 50
43.466652314864
 51
46.928384843842
210
0
220
0
230
1.0
 0
LINE
 8
TOOL_0
 5
F9
 10
1971.924
 20
194.665
 30
0
 11
1972.526
 21
194.087
 31
0
 0
ARC
 8
TOOL_0
 5
FA
 10
1979.753
 20
199.989
 30
0
 40
9.330762723379
 50
219.237129311716
 51
272.739746583199
210
0
220
0
230
1.0
 0
LINE
 8
TOOL_0
 5
FB
 10
1980.199
 20
190.669
 30
0
 11
2017.496
 21
192.624
 31
0
 0
ARC
 8
TOOL_0
 5
FC
 10
2016.229
 20
216.791
 30
0
 40
24.200189627356
 50
273.001090424869
 51
320.000123438967
210
0
220
0
230
1.0
 0
LINE
 8
TOOL_0
 5
FD
 10
2034.768
 20
201.235
 30
0
 11
2044.739
 21
213.118
 31
0
 0
ARC
 8
TOOL_0
 5
FE
 10
2098.997
 20
167.561
 30
0
 40
70.847518044036
 50
90.017791710546
 51
139.981952152145
210
0
220
0
230
1.0
 0
LINE
 8
TOOL_0
 5
FF
 10
2098.975
 20
238.409
 30
0
 11
2129.831
 21
238.409
 31
0
 0
ARC
 8
TOOL_0
 5
100
 10
2129.831
 20
167.609
 30
0
 40
70.8
 50
41.351276536947
 51
90.0
210
0
220
0
230
1.0
 0
ARC
 8
TOOL_0
 5
101
 10
1631.022
 20
-261.066
 30
0
 40
728.498581501707
 50
39.389999123718
 51
40.741326157114
210
0
220
0
230
1.0
 0
ARC
 8
TOOL_0
 5
102
 10
2212.576
 20
216.791
 30
0
 40
24.199493155849
 50
219.999584725572
 51
267.001150046702
210
0
220
0
230
1.0
 0
LINE
 8
TOOL_0
 5
103
 10
2211.31
 20
192.625
 30
0
 11
2248.607
 21
190.67
 31
0
 0
ARC
 8
TOOL_0
 5
104
 10
2249.088
 20
199.857
 30
0
 40
9.19958314273
 50
267.002924856543
 51
303.800613645744
210
0
220
0
230
1.0
 0
ARC
 8
TOOL_0
 5
105
 10
2241.162
 20
209.148
 30
0
 40
21.376950951901
 50
307.603236713993
 51
317.47786286289
210
0
220
0
230
1.0
 0
LINE
 8
TOOL_0
 5
106
 10
2256.917
 20
194.7
 30
0
 11
2260.461
 21
198.246
 31
0
 0
ARC
 8
TOOL_0
 5
107
 10
2268.123
 20
190.549
 30
0
 40
10.860481250847
 50
90.13189612869
 51
134.869434936403
210
0
220
0
230
1.0
 0
LINE
 8
TOOL_0
 5
108
 10
2268.098
 20
201.409
 30
0
 11
2330.603
 21
201.409
 31
0
 0
ARC
 8
TOOL_0
 5
109
 10
2330.603
 20
191.409
 30
0
 40
10.0
 50
0
 51
90.0
210
0
220
0
230
1.0
 0
LINE
 8
TOOL_0
 5
10A
 10
2340.603
 20
191.409
 30
0
 11
2340.603
 21
111.774
 31
0
 0
ARC
 8
TOOL_0
 5
10B
 10
2331.403
 20
111.774
 30
0
 40
9.2
 50
284.477296857008
 51
0
210
0
220
0
230
1.0
 0
ARC
 8
TOOL_0
 5
10C
 10
2335.903
 20
94.345
 30
0
 40
8.800422773935
 50
104.476801494667
 51
157.99667961513
210
0
220
0
230
1.0
 0
LINE
 8
TOOL_0
 5
10D
 10
2327.744
 20
97.642
 30
0
 11
2306.501
 21
45.063
 31
0
 0
ARC
 8
TOOL_0
 5
10E
 10
2297.213
 20
48.833
 30
0
 40
10.023963487563
 50
270.091453680535
 51
337.907762266919
210
0
220
0
230
1.0
 0
LINE
 8
TOOL_0
 5
10F
 10
2297.229
 20
38.809
 30
0
 11
2292.635
 21
36.461
 31
0
 0
LINE
 8
TOOL_0
 5
110
 10
2292.635
 20
36.461
 30
0
 11
2329.13
 21
266.742
 31
0
 0
LINE
 8
TOOL_0
 5
111
 10
2329.13
 20
266.742
 30
0
 11
2299.349
 21
268.158
 31
0
 0
LINE
 8
TOOL_0
 5
112
 10
2299.349
 20
268.158
 30
0
 11
2212.172
 21
268.158
 31
0
 0
ARC
 8
TOOL_0
 5
113
 10
2212.172
 20
248.958
 30
0
 40
19.2
 50
90.0
 51
148.07970508667
210
0
220
0
230
1.0
 0
ARC
 8
TOOL_0
 5
114
 10
2176.519
 20
271.182
 30
0
 40
22.812012624931
 50
239.849505978009
 51
328.048928599656
210
0
220
0
230
1.0
 0
ARC
 8
TOOL_0
 5
115
 10
2130.273
 20
191.636
 30
0
 40
69.199980809246
 50
59.820087804485
 51
90.0
210
0
220
0
230
1.0
 0
LINE
 8
TOOL_0
 5
116
 10
2130.273
 20
260.836
 30
0
 11
2102.773
 21
260.836
 31
0
 0
ARC
 8
TOOL_0
 5
117
 10
2102.773
 20
191.636
 30
0
 40
69.2
 50
90.0
 51
120.179912195515
210
0
220
0
230
1.0
 0
ARC
 8
TOOL_0
 5
118
 10
2056.527
 20
271.182
 30
0
 40
22.812295807305
 50
211.951071400345
 51
300.150494021992
210
0
220
0
230
1.0
 0
ARC
 8
TOOL_0
 5
119
 10
2020.874
 20
248.958
 30
0
 40
19.200398771901
 50
31.92029491333
 51
90.0
210
0
220
0
230
1.0
 0
LINE
 8
TOOL_0
 5
11A
 10
2020.874
 20
268.158
 30
0
 11
1933.697
 21
268.158
 31
0
 0
ARC
 8
TOOL_0
 5
11B
 10
1933.713
 20
278.182
 30
0
 40
10.024012769345
 50
202.09223773308
 51
269.908546319465
210
0
220
0
230
1.0
 0
LINE
 8
TOOL_0
 5
11C
 10
1924.425
 20
274.412
 30
0
 11
1903.182
 21
326.991
 31
0
 0
ARC
 8
TOOL_0
 5
11D
 10
1895.023
 20
323.694
 30
0
 40
8.79997102268
 50
22.003320384869
 51
75.523198505332
210
0
220
0
230
1.0
 0
ARC
 8
TOOL_0
 5
11E
 10
1899.523
 20
341.123
 30
0
 40
9.200133912069
 50
180.0
 51
255.522703142991
210
0
220
0
230
1.0
 0
LINE
 8
TOOL_0
 5
11F
 10
1890.323
 20
341.123
 30
0
 11
1890.323
 21
420.758
 31
0
 0
ARC
 8
TOOL_0
 5
120
 10
1900.323
 20
420.758
 30
0
 40
10.0
 50
90.0
 51
180.0
210
0
220
0
230
1.0
 0
LINE
 8
TOOL_0
 5
121
 10
1900.323
 20
430.758
 30
0
 11
1962.828
 21
430.758
 31
0
 0
ARC
 8
TOOL_0
 5
122
 10
1962.828
 20
419.958
 30
0
 40
10.8
 50
48.460740534169
 51
90.0
210
0
220
0
230
1.0
 0
ARC
 8
TOOL_0
 5
123
 10
1905.385
 20
358.935
 30
0
 40
94.602238208195
 50
43.466652314864
 51
46.928384843842
210
0
220
0
230
1.0
 0
LINE
 8
TOOL_0
 5
124
 10
1974.045
 20
424.015
 30
0
 11
1974.647
 21
423.437
 31
0
 0
ARC
 8
TOOL_0
 5
125
 10
1981.874
 20
429.339
 30
0
 40
9.330762723379
 50
219.237129311716
 51
272.739746583199
210
0
220
0
230
1.0
 0
LINE
 8
TOOL_0
 5
126
 10
1982.32
 20
420.019
 30
0
 11
2019.617
 21
421.974
 31
0
 0
ARC
 8
TOOL_0
 5
127
 10
2018.35
 20
446.141
 30
0
 40
24.200189627356
 50
273.001090424869
 51
320.000123438967
210
0
220
0
230
1.0
 0
LINE
 8
TOOL_0
 5
128
 10
2036.889
 20
430.585
 30
0
 11
2046.86
 21
442.468
 31
0
 0
ARC
 8
TOOL_0
 5
129
 10
2101.118
 20
396.911
 30
0
 40
70.847518044036
 50
90.017791710546
 51
139.981952152145
210
0
220
0
230
1.0
 0
LINE
 8
TOOL_0
 5
12A
 10
2101.096
 20
467.759
 30
0
 11
2131.952
 21
467.759
 31
0
 0
ARC
 8
TOOL_0
 5
12B
 10
2131.952
 20
396.959
 30
0
 40
70.8
 50
41.351276536947
 51
90.0
210
0
220
0
230
1.0
 0
ARC
 8
TOOL_0
 5
12C
 10
1633.143
 20
-31.716
 30
0
 40
728.498581501707
 50
39.389999123718
 51
40.741326157114
210
0
220
0
230
1.0
 0
ARC
 8
TOOL_0
 5
12D
 10
2214.697
 20
446.141
 30
0
 40
24.199493155849
 50
219.999584725572
 51
267.001150046702
210
0
220
0
230
1.0
 0
LINE
 8
TOOL_0
 5
12E
 10
2213.431
 20
421.975
 30
0
 11
2250.728
 21
420.02
 31
0
 0
ARC
 8
TOOL_0
 5
12F
 10
2251.209
 20
429.207
 30
0
 40
9.19958314273
 50
267.002924856543
 51
303.800613645744
210
0
220
0
230
1.0
 0
ARC
 8
TOOL_0
 5
130
 10
2243.283
 20
438.498
 30
0
 40
21.376950951901
 50
307.603236713993
 51
317.47786286289
210
0
220
0
230
1.0
 0
LINE
 8
TOOL_0
 5
131
 10
2259.038
 20
424.05
 30
0
 11
2262.582
 21
427.596
 31
0
 0
ARC
 8
TOOL_0
 5
132
 10
2270.244
 20
419.899
 30
0
 40
10.860481250847
 50
90.13189612869
 51
134.869434936403
210
0
220
0
230
1.0
 0
LINE
 8
TOOL_0
 5
133
 10
2270.219
 20
430.759
 30
0
 11
2332.724
 21
430.759
 31
0
 0
ARC
 8
TOOL_0
 5
134
 10
2332.724
 20
420.759
 30
0
 40
10.0
 50
0
 51
90.0
210
0
220
0
230
1.0
 0
LINE
 8
TOOL_0
 5
135
 10
2342.724
 20
420.759
 30
0
 11
2342.724
 21
341.124
 31
0
 0
ARC
 8
TOOL_0
 5
136
 10
2333.524
 20
341.124
 30
0
 40
9.2
 50
284.477296857008
 51
0
210
0
220
0
230
1.0
 0
ARC
 8
TOOL_0
 5
137
 10
2338.024
 20
323.695
 30
0
 40
8.800422773935
 50
104.476801494667
 51
157.99667961513
210
0
220
0
230
1.0
 0
LINE
 8
TOOL_0
 5
138
 10
2329.865
 20
326.992
 30
0
 11
2308.622
 21
274.413
 31
0
 0
ARC
 8
TOOL_0
 5
139
 10
2299.334
 20
278.183
 30
0
 40
10.023963487563
 50
270.091453680535
 51
337.907762266919
210
0
220
0
230
1.0
 0
LINE
 8
TOOL_0
 5
13A
 10
2299.35
 20
268.159
 30
0
 11
2294.756
 21
265.811
 31
0
 0
LINE
 8
TOOL_0
 5
13B
 10
2294.756
 20
265.811
 30
0
 11
2799.469
 21
37.394
 31
0
 0
LINE
 8
TOOL_0
 5
13C
 10
2799.469
 20
37.394
 30
0
 11
2769.688
 21
38.81
 31
0
 0
LINE
 8
TOOL_0
 5
13D
 10
2769.688
 20
38.81
 30
0
 11
2682.511
 21
38.81
 31
0
 0
ARC
 8
TOOL_0
 5
13E
 10
2682.511
 20
19.61
 30
0
 40
19.2
 50
90.0
 51
148.07970508667
210
0
220
0
230
1.0
 0
ARC
 8
TOOL_0
 5
13F
 10
2646.858
 20
41.834
 30
0
 40
22.812012624931
 50
239.849505978009
 51
328.048928599656
210
0
220
0
230
1.0
 0
ARC
 8
TOOL_0
 5
140
 10
2600.612
 20
-37.712
 30
0
 40
69.199980809246
 50
59.820087804485
 51
90.0
210
0
220
0
230
1.0
 0
LINE
 8
TOOL_0
 5
141
 10
2600.612
 20
31.488
 30
0
 11
2573.112
 21
31.488
 31
0
 0
ARC
 8
TOOL_0
 5
142
 10
2573.112
 20
-37.712
 30
0
 40
69.2
 50
90.0
 51
120.179912195515
210
0
220
0
230
1.0
 0
ARC
 8
TOOL_0
 5
143
 10
2526.866
 20
41.834
 30
0
 40
22.812295807305
 50
211.951071400345
 51
300.150494021992
210
0
220
0
230
1.0
 0
ARC
 8
TOOL_0
 5
144
 10
2491.213
 20
19.61
 30
0
 40
19.200398771901
 50
31.92029491333
 51
90.0
210
0
220
0
230
1.0
 0
LINE
 8
TOOL_0
 5
145
 10
2491.213
 20
38.81
 30
0
 11
2404.036
 21
38.81
 31
0
 0
ARC
 8
TOOL_0
 5
146
 10
2404.052
 20
48.834
 30
0
 40
10.024012769345
 50
202.092237733081
 51
269.908546319465
210
0
220
0
230
1.0
 0
LINE
 8
TOOL_0
 5
147
 10
2394.764
 20
45.064
 30
0
 11
2373.521
 21
97.643
 31
0
 0
ARC
 8
TOOL_0
 5
148
 10
2365.362
 20
94.346
 30
0
 40
8.79997102268
 50
22.003320384868
 51
75.52319850533
210
0
220
0
230
1.0
 0
ARC
 8
TOOL_0
 5
149
 10
2369.862
 20
111.775
 30
0
 40
9.200133912069
 50
180.0
 51
255.522703142989
210
0
220
0
230
1.0
 0
LINE
 8
TOOL_0
 5
14A
 10
2360.662
 20
111.775
 30
0
 11
2360.662
 21
191.41
 31
0
 0
ARC
 8
TOOL_0
 5
14B
 10
2370.662
 20
191.41
 30
0
 40
10.0
 50
90.0
 51
180.0
210
0
220
0
230
1.0
 0
LINE
 8
TOOL_0
 5
14C
 10
2370.662
 20
201.41
 30
0
 11
2433.167
 21
201.41
 31
0
 0
ARC
 8
TOOL_0
 5
14D
 10
2433.167
 20
190.61
 30
0
 40
10.8
 50
48.46074053417
 51
90.0
210
0
220
0
230
1.0
 0
ARC
 8
TOOL_0
 5
14E
 10
2375.724
 20
129.587
 30
0
 40
94.602238208195
 50
43.466652314864
 51
46.928384843842
210
0
220
0
230
1.0
 0
LINE
 8
TOOL_0
 5
14F
 10
2444.384
 20
194.667
 30
0
 11
2444.986
 21
194.089
 31
0
 0
ARC
 8
TOOL_0
 5
150
 10
2452.213
 20
199.991
 30
0
 40
9.330762723379
 50
219.237129311717
 51
272.739746583199
210
0
220
0
230
1.0
 0
LINE
 8
TOOL_0
 5
151
 10
2452.659
 20
190.671
 30
0
 11
2489.956
 21
192.626
 31
0
 0
ARC
 8
TOOL_0
 5
152
 10
2488.689
 20
216.793
 30
0
 40
24.200189627356
 50
273.001090424869
 51
320.000123438966
210
0
220
0
230
1.0
 0
LINE
 8
TOOL_0
 5
153
 10
2507.228
 20
201.237
 30
0
 11
2517.199
 21
213.12
 31
0
 0
ARC
 8
TOOL_0
 5
154
 10
2571.457
 20
167.563
 30
0
 40
70.847518044036
 50
90.017791710546
 51
139.981952152145
210
0
220
0
230
1.0
 0
LINE
 8
TOOL_0
 5
155
 10
2571.435
 20
238.411
 30
0
 11
2602.291
 21
238.411
 31
0
 0
ARC
 8
TOOL_0
 5
156
 10
2602.291
 20
167.611
 30
0
 40
70.8
 50
41.351276536947
 51
90.0
210
0
220
0
230
1.0
 0
ARC
 8
TOOL_0
 5
157
 10
2103.482
 20
-261.064
 30
0
 40
728.498581501707
 50
39.389999123718
 51
40.741326157114
210
0
220
0
230
1.0
 0
ARC
 8
TOOL_0
 5
158
 10
2685.036
 20
216.793
 30
0
 40
24.199493155849
 50
219.999584725572
 51
267.001150046702
210
0
220
0
230
1.0
 0
LINE
 8
TOOL_0
 5
159
 10
2683.77
 20
192.627
 30
0
 11
2721.067
 21
190.672
 31
0
 0
ARC
 8
TOOL_0
 5
15A
 10
2721.548
 20
199.859
 30
0
 40
9.19958314273
 50
267.002924856543
 51
303.800613645744
210
0
220
0
230
1.0
 0
ARC
 8
TOOL_0
 5
15B
 10
2713.622
 20
209.15
 30
0
 40
21.376950951901
 50
307.603236713993
 51
317.47786286289
210
0
220
0
230
1.0
 0
LINE
 8
TOOL_0
 5
15C
 10
2729.377
 20
194.702
 30
0
 11
2732.921
 21
198.248
 31
0
 0
ARC
 8
TOOL_0
 5
15D
 10
2740.583
 20
190.551
 30
0
 40
10.860481250847
 50
90.13189612869
 51
134.869434936403
210
0
220
0
230
1.0
 0
LINE
 8
TOOL_0
 5
15E
 10
2740.558
 20
201.411
 30
0
 11
2803.063
 21
201.411
 31
0
 0
ARC
 8
TOOL_0
 5
15F
 10
2803.063
 20
191.411
 30
0
 40
10.0
 50
0
 51
90.0
210
0
220
0
230
1.0
 0
LINE
 8
TOOL_0
 5
160
 10
2813.063
 20
191.411
 30
0
 11
2813.063
 21
111.776
 31
0
 0
ARC
 8
TOOL_0
 5
161
 10
2803.863
 20
111.776
 30
0
 40
9.2
 50
284.477296857008
 51
0
210
0
220
0
230
1.0
 0
ARC
 8
TOOL_0
 5
162
 10
2808.363
 20
94.347
 30
0
 40
8.800422773935
 50
104.476801494667
 51
157.99667961513
210
0
220
0
230
1.0
 0
LINE
 8
TOOL_0
 5
163
 10
2800.204
 20
97.644
 30
0
 11
2778.961
 21
45.065
 31
0
 0
ARC
 8
TOOL_0
 5
164
 10
2769.673
 20
48.835
 30
0
 40
10.023963487563
 50
270.091453680535
 51
337.907762266919
210
0
220
0
230
1.0
 0
LINE
 8
TOOL_0
 5
165
 10
2769.689
 20
38.811
 30
0
 11
2765.095
 21
36.463
 31
0
 0
LINE
 8
TOOL_0
 5
166
 10
2765.095
 20
36.463
 30
0
 11
2801.943
 21
266.035
 31
0
 0
LINE
 8
TOOL_0
 5
167
 10
2801.943
 20
266.035
 30
0
 11
2772.163
 21
267.451
 31
0
 0
LINE
 8
TOOL_0
 5
168
 10
2772.163
 20
267.451
 30
0
 11
2684.986
 21
267.451
 31
0
 0
ARC
 8
TOOL_0
 5
169
 10
2684.986
 20
248.251
 30
0
 40
19.2
 50
90.0
 51
148.07970508667
210
0
220
0
230
1.0
 0
ARC
 8
TOOL_0
 5
16A
 10
2649.333
 20
270.475
 30
0
 40
22.812012624931
 50
239.849505978009
 51
328.048928599656
210
0
220
0
230
1.0
 0
ARC
 8
TOOL_0
 5
16B
 10
2603.087
 20
190.929
 30
0
 40
69.199980809246
 50
59.820087804485
 51
90.0
210
0
220
0
230
1.0
 0
LINE
 8
TOOL_0
 5
16C
 10
2603.087
 20
260.129
 30
0
 11
2575.587
 21
260.129
 31
0
 0
ARC
 8
TOOL_0
 5
16D
 10
2575.587
 20
190.929
 30
0
 40
69.2
 50
90.0
 51
120.179912195515
210
0
220
0
230
1.0
 0
ARC
 8
TOOL_0
 5
16E
 10
2529.341
 20
270.475
 30
0
 40
22.812295807305
 50
211.951071400345
 51
300.150494021992
210
0
220
0
230
1.0
 0
ARC
 8
TOOL_0
 5
16F
 10
2493.688
 20
248.251
 30
0
 40
19.200398771901
 50
31.92029491333
 51
90.0
210
0
220
0
230
1.0
 0
LINE
 8
TOOL_0
 5
170
 10
2493.688
 20
267.451
 30
0
 11
2406.511
 21
267.451
 31
0
 0
ARC
 8
TOOL_0
 5
171
 10
2406.527
 20
277.475
 30
0
 40
10.024012769345
 50
202.09223773308
 51
269.908546319465
210
0
220
0
230
1.0
 0
LINE
 8
TOOL_0
 5
172
 10
2397.239
 20
273.705
 30
0
 11
2375.996
 21
326.284
 31
0
 0
ARC
 8
TOOL_0
 5
173
 10
2367.837
 20
322.987
 30
0
 40
8.79997102268
 50
22.003320384869
 51
75.52319850533
210
0
220
0
230
1.0
 0
ARC
 8
TOOL_0
 5
174
 10
2372.337
 20
340.416
 30
0
 40
9.200133912069
 50
180.0
 51
255.522703142989
210
0
220
0
230
1.0
 0
LINE
 8
TOOL_0
 5
175
 10
2363.137
 20
340.416
 30
0
 11
2363.137
 21
420.051
 31
0
 0
ARC
 8
TOOL_0
 5
176
 10
2373.137
 20
420.051
 30
0
 40
10.0
 50
90.0
 51
180.0
210
0
220
0
230
1.0
 0
LINE
 8
TOOL_0
 5
177
 10
2373.137
 20
430.051
 30
0
 11
2435.642
 21
430.051
 31
0
 0
ARC
 8
TOOL_0
 5
178
 10
2435.642
 20
419.251
 30
0
 40
10.8
 50
48.46074053417
 51
90.0
210
0
220
0
230
1.0
 0
ARC
 8
TOOL_0
 5
179
 10
2378.199
 20
358.228
 30
0
 40
94.602238208195
 50
43.466652314864
 51
46.928384843842
210
0
220
0
230
1.0
 0
LINE
 8
TOOL_0
 5
17A
 10
2446.859
 20
423.308
 30
0
 11
2447.461
 21
422.73
 31
0
 0
ARC
 8
TOOL_0
 5
17B
 10
2454.688
 20
428.632
 30
0
 40
9.330762723379
 50
219.237129311717
 51
272.739746583199
210
0
220
0
230
1.0
 0
LINE
 8
TOOL_0
 5
17C
 10
2455.134
 20
419.312
 30
0
 11
2492.431
 21
421.267
 31
0
 0
ARC
 8
TOOL_0
 5
17D
 10
2491.164
 20
445.434
 30
0
 40
24.200189627356
 50
273.001090424869
 51
320.000123438966
210
0
220
0
230
1.0
 0
LINE
 8
TOOL_0
 5
17E
 10
2509.703
 20
429.878
 30
0
 11
2519.674
 21
441.761
 31
0
 0
ARC
 8
TOOL_0
 5
17F
 10
2573.932
 20
396.204
 30
0
 40
70.847518044036
 50
90.017791710546
 51
139.981952152145
210
0
220
0
230
1.0
 0
LINE
 8
TOOL_0
 5
180
 10
2573.91
 20
467.052
 30
0
 11
2604.766
 21
467.052
 31
0
 0
ARC
 8
TOOL_0
 5
181
 10
2604.766
 20
396.252
 30
0
 40
70.8
 50
41.351276536947
 51
90.0
210
0
220
0
230
1.0
 0
ARC
 8
TOOL_0
 5
182
 10
2105.957
 20
-32.423
 30
0
 40
728.498581501707
 50
39.389999123718
 51
40.741326157114
210
0
220
0
230
1.0
 0
ARC
 8
TOOL_0
 5
183
 10
2687.511
 20
445.434
 30
0
 40
24.199493155849
 50
219.999584725572
 51
267.001150046702
210
0
220
0
230
1.0
 0
LINE
 8
TOOL_0
 5
184
 10
2686.245
 20
421.268
 30
0
 11
2723.542
 21
419.313
 31
0
 0
ARC
 8
TOOL_0
 5
185
 10
2724.023
 20
428.5
 30
0
 40
9.19958314273
 50
267.002924856543
 51
303.800613645744
210
0
220
0
230
1.0
 0
ARC
 8
TOOL_0
 5
186
 10
2716.097
 20
437.791
 30
0
 40
21.376950951901
 50
307.603236713993
 51
317.47786286289
210
0
220
0
230
1.0
 0
LINE
 8
TOOL_0
 5
187
 10
2731.852
 20
423.343
 30
0
 11
2735.396
 21
426.889
 31
0
 0
ARC
 8
TOOL_0
 5
188
 10
2743.058
 20
419.192
 30
0
 40
10.860481250847
 50
90.13189612869
 51
134.869434936403
210
0
220
0
230
1.0
 0
LINE
 8
TOOL_0
 5
189
 10
2743.033
 20
430.052
 30
0
 11
2805.538
 21
430.052
 31
0
 0
ARC
 8
TOOL_0
 5
18A
 10
2805.538
 20
420.052
 30
0
 40
10.0
 50
0
 51
90.0
210
0
220
0
230
1.0
 0
LINE
 8
TOOL_0
 5
18B
 10
2815.538
 20
420.052
 30
0
 11
2815.538
 21
340.417
 31
0
 0
ARC
 8
TOOL_0
 5
18C
 10
2806.338
 20
340.417
 30
0
 40
9.2
 50
284.477296857008
 51
0
210
0
220
0
230
1.0
 0
ARC
 8
TOOL_0
 5
18D
 10
2810.838
 20
322.988
 30
0
 40
8.800422773935
 50
104.476801494667
 51
157.99667961513
210
0
220
0
230
1.0
 0
LINE
 8
TOOL_0
 5
18E
 10
2802.679
 20
326.285
 30
0
 11
2781.436
 21
273.706
 31
0
 0
ARC
 8
TOOL_0
 5
18F
 10
2772.148
 20
277.476
 30
0
 40
10.023963487563
 50
270.091453680535
 51
337.907762266919
210
0
220
0
230
1.0
 0
LINE
 8
TOOL_0
 5
190
 10
2772.164
 20
267.452
 30
0
 11
2767.57
 21
265.104
 31
0
 0
LINE
 8
TOOL_0
 5
191
 10
2767.57
 20
265.104
 30
0
 11
2767.57
 21
0.01
 31
0
 0
LINE
 8
TOOL_0
 5
192
 10
2767.57
 20
0.01
 30
0
 11
1599.294
 21
2147.209
 31
0
 0
LINE
 8
TOOL_0
 5
193
 10
1599.294
 20
2147.209
 30
0
 11
1567.708
 21
2154.297
 31
0
 0
ARC
 8
TOOL_0
 5
194
 10
1567.708
 20
2104.797
 30
0
 40
49.5
 50
90.0
 51
106.000090186573
210
0
220
0
230
1.0
 0
LINE
 8
TOOL_0
 5
195
 10
1554.064
 20
2152.379
 30
0
 11
1323.455
 21
2086.253
 31
0
 0
ARC
 8
TOOL_0
 5
196
 10
1309.535
 20
2134.797
 30
0
 40
50.500359761095
 50
270.0
 51
286.000253014864
210
0
220
0
230
1.0
 0
LINE
 8
TOOL_0
 5
197
 10
1309.535
 20
2084.297
 30
0
 11
913.908
 21
2084.297
 31
0
 0
ARC
 8
TOOL_0
 5
198
 10
913.908
 20
2134.797
 30
0
 40
50.5
 50
222.799683484637
 51
270.0
210
0
220
0
230
1.0
 0
LINE
 8
TOOL_0
 5
199
 10
876.854
 20
2100.485
 30
0
 11
817.734
 21
2164.329
 31
0
 0
ARC
 8
TOOL_0
 5
19A
 10
869.531
 20
2212.258
 30
0
 40
70.569952883646
 50
181.359250757383
 51
222.778823555331
210
0
220
0
230
1.0
 0
ARC
 8
TOOL_0
 5
19B
 10
1517.768
 20
2219.797
 30
0
 40
718.846041053298
 50
179.396540503934
 51
180.734344266698
210
0
220
0
230
1.0
 0
ARC
 8
TOOL_0
 5
19C
 10
869.462
 20
2227.364
 30
0
 40
70.500000113475
 50
137.199793205599
 51
179.996749175634
210
0
220
0
230
1.0
 0
LINE
 8
TOOL_0
 5
19D
 10
817.734
 20
2275.265
 30
0
 11
876.854
 21
2339.109
 31
0
 0
ARC
 8
TOOL_0
 5
19E
 10
913.907
 20
2304.797
 30
0
 40
50.499882702834
 50
90.0
 51
137.199545644524
210
0
220
0
230
1.0
 0
LINE
 8
TOOL_0
 5
19F
 10
913.907
 20
2355.297
 30
0
 11
1309.534
 21
2355.297
 31
0
 0
ARC
 8
TOOL_0
 5
1A0
 10
1309.534
 20
2304.797
 30
0
 40
50.5
 50
73.999746985137
 51
90.0
210
0
220
0
230
1.0
 0
LINE
 8
TOOL_0
 5
1A1
 10
1323.454
 20
2353.341
 30
0
 11
1554.063
 21
2287.215
 31
0
 0
ARC
 8
TOOL_0
 5
1A2
 10
1567.707
 20
2334.797
 30
0
 40
49.499550098965
 50
253.999909813426
 51
270.0
210
0
220
0
230
1.0
 0
LINE
 8
TOOL_0
 5
1A3
 10
1567.707
 20
2285.297
 30
0
 11
2117.461
 21
2285.297
 31
0
 0
ARC
 8
TOOL_0
 5
1A4
 10
2117.461
 20
2264.797
 30
0
 40
20.5
 50
0
 51
90.0
210
0
220
0
230
1.0
 0
LINE
 8
TOOL_0
 5
1A5
 10
2137.961
 20
2264.797
 30
0
 11
2137.961
 21
2174.797
 31
0
 0
ARC
 8
TOOL_0
 5
1A6
 10
2117.461
 20
2174.797
 30
0
 40
20.5
 50
270.0
 51
0
210
0
220
0
230
1.0
 0
LINE
 8
TOOL_0
 5
1A7
 10
2117.461
 20
2154.297
 30
0
 11
1567.707
 21
2154.297
 31
0
 0
LINE
 8
TOOL_0
 5
1A8
 10
1567.707
 20
2154.297
 30
0
 11
1565.291
 21
2149.298
 31
0
 0
LINE
 8
TOOL_0
 5
1A9
 10
1565.291
 20
2149.298
 30
0
 11
2558.904
 21
1874.558
 31
0
 0
LINE
 8
TOOL_0
 5
1AA
 10
2558.904
 20
1874.558
 30
0
 11
2528.401
 21
1873.944
 31
0
 0
LINE
 8
TOOL_0
 5
1AB
 10
2528.401
 20
1873.944
 30
0
 11
2193.79
 21
1873.944
 31
0
 0
ARC
 8
TOOL_0
 5
1AC
 10
2193.79
 20
2074.944
 30
0
 40
201.0
 50
250.200715976597
 51
270.0
210
0
220
0
230
1.0
 0
LINE
 8
TOOL_0
 5
1AD
 10
2125.706
 20
1885.826
 30
0
 11
1941.388
 21
1952.181
 31
0
 0
ARC
 8
TOOL_0
 5
1AE
 10
1873.983
 20
1764.944
 30
0
 40
199.000322095217
 50
70.201210332977
 51
90.0
210
0
220
0
230
1.0
 0
LINE
 8
TOOL_0
 5
1AF
 10
1873.983
 20
1963.944
 30
0
 11
1587.387
 21
1963.944
 31
0
 0
ARC
 8
TOOL_0
 5
1B0
 10
1587.387
 20
1993.944
 30
0
 40
30.0
 50
180.0
 51
270.0
210
0
220
0
230
1.0
 0
LINE
 8
TOOL_0
 5
1B1
 10
1557.387
 20
1993.944
 30
0
 11
1557.387
 21
2025.944
 31
0
 0
ARC
 8
TOOL_0
 5
1B2
 10
1587.387
 20
2025.944
 30
0
 40
30.0
 50
90.0
 51
180.0
210
0
220
0
230
1.0
 0
LINE
 8
TOOL_0
 5
1B3
 10
1587.387
 20
2055.944
 30
0
 11
1873.983
 21
2055.944
 31
0
 0
ARC
 8
TOOL_0
 5
1B4
 10
1873.983
 20
2254.944
 30
0
 40
199.0
 50
270.0
 51
289.79851876797
210
0
220
0
230
1.0
 0
LINE
 8
TOOL_0
 5
1B5
 10
1941.387
 20
2067.707
 30
0
 11
2125.707
 21
2134.062
 31
0
 0
ARC
 8
TOOL_0
 5
1B6
 10
2193.79
 20
1944.944
 30
0
 40
200.999783116798
 50
90.0
 51
109.799015820428
210
0
220
0
230
1.0
 0
LINE
 8
TOOL_0
 5
1B7
 10
2193.79
 20
2145.944
 30
0
 11
2528.401
 21
2145.944
 31
0
 0
ARC
 8
TOOL_0
 5
1B8
 10
2528.377
 20
2095.889
 30
0
 40
50.055005753671
 50
43.29111574087
 51
89.97252824687
210
0
220
0
230
1.0
 0
LINE
 8
TOOL_0
 5
1B9
 10
2564.811
 20
2130.212
 30
0
 11
2602.798
 21
2089.851
 31
0
 0
ARC
 8
TOOL_0
 5
1BA
 10
2528.886
 20
2020.286
 30
0
 40
101.50011314772
 50
1.109857149388
 51
43.2646097522
210
0
220
0
230
1.0
 0
ARC
 8
TOOL_0
 5
1BB
 10
1460.496
 20
2009.944
 30
0
 40
1169.93574332311
 50
359.493510059238
 51
0.602776235275
210
0
220
0
230
1.0
 0
ARC
 8
TOOL_0
 5
1BC
 10
2528.823
 20
1999.627
 30
0
 40
101.563003076908
 50
316.749478687234
 51
359.985896493222
210
0
220
0
230
1.0
 0
LINE
 8
TOOL_0
 5
1BD
 10
2602.798
 20
1930.037
 30
0
 11
2564.811
 21
1889.676
 31
0
 0
ARC
 8
TOOL_0
 5
1BE
 10
2528.377
 20
1924.0
 30
0
 40
50.055702292546
 50
270.027471204311
 51
316.70805109931
210
0
220
0
230
1.0
 0
LINE
 8
TOOL_0
 5
1BF
 10
2528.401
 20
1873.944
 30
0
 11
2525.926
 21
1871.749
 31
0
 0
LINE
 8
TOOL_0
 5
1C0
 10
2525.926
 20
1871.749
 30
0
 11
3143.293
 21
2129.699
 31
0
 0
LINE
 8
TOOL_0
 5
1C1
 10
3143.293
 20
2129.699
 30
0
 11
3112.542
 21
2129.205
 31
0
 0
LINE
 8
TOOL_0
 5
1C2
 10
3112.542
 20
2129.205
 30
0
 11
3063.966
 21
2111.598
 31
0
 0
ARC
 8
TOOL_0
 5
1C3
 10
3057.151
 20
2130.401
 30
0
 40
19.999925849863
 50
270.0
 51
289.922651692889
210
0
220
0
230
1.0
 0
LINE
 8
TOOL_0
 5
1C4
 10
3057.151
 20
2110.401
 30
0
 11
2949.922
 21
2110.401
 31
0
 0
ARC
 8
TOOL_0
 5
1C5
 10
2949.922
 20
2106.401
 30
0
 40
4.0
 50
90.0
 51
139.05530461044
210
0
220
0
230
1.0
 0
ARC
 8
TOOL_0
 5
1C6
 10
2926.075
 20
2127.092
 30
0
 40
27.572580147676
 50
312.276205099471
 51
319.052954106356
210
0
220
0
230
1.0
 0
ARC
 8
TOOL_0
 5
1C7
 10
2941.932
 20
2109.651
 30
0
 40
4.000385106462
 50
270.0
 51
312.274652446137
210
0
220
0
230
1.0
 0
LINE
 8
TOOL_0
 5
1C8
 10
2941.932
 20
2105.651
 30
0
 11
2903.35
 21
2105.651
 31
0
 0
ARC
 8
TOOL_0
 5
1C9
 10
2903.35
 20
2109.651
 30
0
 40
4.0
 50
228.943443921619
 51
270.0
210
0
220
0
230
1.0
 0
ARC
 8
TOOL_0
 5
1CA
 10
2918.84
 20
2127.435
 30
0
 40
27.583793955872
 50
221.756702829181
 51
228.943821994487
210
0
220
0
230
1.0
 0
ARC
 8
TOOL_0
 5
1CB
 10
2895.279
 20
2106.401
 30
0
 40
4.000143997408
 50
41.75724702238
 51
90.0
210
0
220
0
230
1.0
 0
LINE
 8
TOOL_0
 5
1CC
 10
2895.279
 20
2110.401
 30
0
 11
2799.922
 21
2110.401
 31
0
 0
ARC
 8
TOOL_0
 5
1CD
 10
2799.922
 20
2106.401
 30
0
 40
4.0
 50
90.0
 51
139.05530461044
210
0
220
0
230
1.0
 0
ARC
 8
TOOL_0
 5
1CE
 10
2776.075
 20
2127.092
 30
0
 40
27.572580147676
 50
312.276205099471
 51
319.052954106356
210
0
220
0
230
1.0
 0
ARC
 8
TOOL_0
 5
1CF
 10
2791.932
 20
2109.651
 30
0
 40
4.000385106462
 50
270.0
 51
312.274652446137
210
0
220
0
230
1.0
 0
LINE
 8
TOOL_0
 5
1D0
 10
2791.932
 20
2105.651
 30
0
 11
2753.35
 21
2105.651
 31
0
 0
ARC
 8
TOOL_0
 5
1D1
 10
2753.35
 20
2109.651
 30
0
 40
4.0
 50
228.943443921619
 51
270.0
210
0
220
0
230
1.0
 0
ARC
 8
TOOL_0
 5
1D2
 10
2768.84
 20
2127.435
 30
0
 40
27.583793955872
 50
221.756702829181
 51
228.943821994487
210
0
220
0
230
1.0
 0
ARC
 8
TOOL_0
 5
1D3
 10
2745.279
 20
2106.401
 30
0
 40
4.000143997408
 50
41.75724702238
 51
90.0
210
0
220
0
230
1.0
 0
LINE
 8
TOOL_0
 5
1D4
 10
2745.279
 20
2110.401
 30
0
 11
2698.758
 21
2110.401
 31
0
 0
ARC
 8
TOOL_0
 5
1D5
 10
2698.758
 20
2133.401
 30
0
 40
23.0
 50
233.783795260921
 51
270.0
210
0
220
0
230
1.0
 0
LINE
 8
TOOL_0
 5
1D6
 10
2685.169
 20
2114.845
 30
0
 11
2605.54
 21
2173.159
 31
0
 0
ARC
 8
TOOL_0
 5
1D7
 10
2575.289
 20
2131.851
 30
0
 40
51.200330711823
 50
53.783642289503
 51
90.0
210
0
220
0
230
1.0
 0
LINE
 8
TOOL_0
 5
1D8
 10
2575.289
 20
2183.051
 30
0
 11
2360.127
 21
2183.051
 31
0
 0
ARC
 8
TOOL_0
 5
1D9
 10
2360.127
 20
2193.051
 30
0
 40
10.0
 50
180.0
 51
270.0
210
0
220
0
230
1.0
 0
LINE
 8
TOOL_0
 5
1DA
 10
2350.127
 20
2193.051
 30
0
 11
2350.127
 21
2279.151
 31
0
 0
ARC
 8
TOOL_0
 5
1DB
 10
2360.127
 20
2279.151
 30
0
 40
10.0
 50
90.0
 51
180.0
210
0
220
0
230
1.0
 0
LINE
 8
TOOL_0
 5
1DC
 10
2360.127
 20
2289.151
 30
0
 11
2575.289
 21
2289.151
 31
0
 0
ARC
 8
TOOL_0
 5
1DD
 10
2575.289
 20
2340.351
 30
0
 40
51.2
 50
270.0
 51
306.215454859088
210
0
220
0
230
1.0
 0
LINE
 8
TOOL_0
 5
1DE
 10
2605.539
 20
2299.043
 30
0
 11
2685.168
 21
2357.357
 31
0
 0
ARC
 8
TOOL_0
 5
1DF
 10
2698.757
 20
2338.801
 30
0
 40
22.999696889307
 50
90.0
 51
126.216204739078
210
0
220
0
230
1.0
 0
LINE
 8
TOOL_0
 5
1E0
 10
2698.757
 20
2361.801
 30
0
 11
2745.332
 21
2361.801
 31
0
 0
ARC
 8
TOOL_0
 5
1E1
 10
2745.332
 20
2365.801
 30
0
 40
4.0
 50
270.0
 51
319.055304610441
210
0
220
0
230
1.0
 0
ARC
 8
TOOL_0
 5
1E2
 10
2769.179
 20
2345.11
 30
0
 40
27.572580147676
 50
132.276205099471
 51
139.052954106356
210
0
220
0
230
1.0
 0
ARC
 8
TOOL_0
 5
1E3
 10
2753.322
 20
2362.551
 30
0
 40
4.000385106462
 50
90.0
 51
132.274652446137
210
0
220
0
230
1.0
 0
LINE
 8
TOOL_0
 5
1E4
 10
2753.322
 20
2366.551
 30
0
 11
2791.904
 21
2366.551
 31
0
 0
ARC
 8
TOOL_0
 5
1E5
 10
2791.904
 20
2362.551
 30
0
 40
4.0
 50
48.943443921619
 51
90.0
210
0
220
0
230
1.0
 0
ARC
 8
TOOL_0
 5
1E6
 10
2776.414
 20
2344.767
 30
0
 40
27.583793955872
 50
41.756702829181
 51
48.943821994487
210
0
220
0
230
1.0
 0
ARC
 8
TOOL_0
 5
1E7
 10
2799.975
 20
2365.801
 30
0
 40
4.000143997408
 50
221.75724702238
 51
270.0
210
0
220
0
230
1.0
 0
LINE
 8
TOOL_0
 5
1E8
 10
2799.975
 20
2361.801
 30
0
 11
2895.332
 21
2361.801
 31
0
 0
ARC
 8
TOOL_0
 5
1E9
 10
2895.332
 20
2365.801
 30
0
 40
4.0
 50
270.0
 51
319.055304610441
210
0
220
0
230
1.0
 0
ARC
 8
TOOL_0
 5
1EA
 10
2919.179
 20
2345.11
 30
0
 40
27.572580147676
 50
132.276205099471
 51
139.052954106356
210
0
220
0
230
1.0
 0
ARC
 8
TOOL_0
 5
1EB
 10
2903.322
 20
2362.551
 30
0
 40
4.000385106462
 50
90.0
 51
132.274652446137
210
0
220
0
230
1.0
 0
LINE
 8
TOOL_0
 5
1EC
 10
2903.322
 20
2366.551
 30
0
 11
2941.904
 21
2366.551
 31
0
 0
ARC
 8
TOOL_0
 5
1ED
 10
2941.904
 20
2362.551
 30
0
 40
4.0
 50
48.943443921619
 51
90.0
210
0
220
0
230
1.0
 0
ARC
 8
TOOL_0
 5
1EE
 10
2926.414
 20
2344.767
 30
0
 40
27.583793955872
 50
41.756702829181
 51
48.943821994487
210
0
220
0
230
1.0
 0
ARC
 8
TOOL_0
 5
1EF
 10
2949.975
 20
2365.801
 30
0
 40
4.000143997408
 50
221.75724702238
 51
270.0
210
0
220
0
230
1.0
 0
LINE
 8
TOOL_0
 5
1F0
 10
2949.975
 20
2361.801
 30
0
 11
3057.15
 21
2361.801
 31
0
 0
ARC
 8
TOOL_0
 5
1F1
 10
3057.15
 20
2341.801
 30
0
 40
20.0
 50
70.077348307112
 51
90.0
210
0
220
0
230
1.0
 0
LINE
 8
TOOL_0
 5
1F2
 10
3063.965
 20
2360.604
 30
0
 11
3112.541
 21
2342.997
 31
0
 0
ARC
 8
TOOL_0
 5
1F3
 10
3105.633
 20
2324.054
 30
0
 40
20.163276345872
 50
42.913856828202
 51
69.964454398762
210
0
220
0
230
1.0
 0
LINE
 8
TOOL_0
 5
1F4
 10
3120.4
 20
2337.783
 30
0
 11
3163.037
 21
2291.739
 31
0
 0
ARC
 8
TOOL_0
 5
1F5
 10
3110.777
 20
2243.526
 30
0
 40
71.102749377222
 50
1.453846395729
 51
42.693402802143
210
0
220
0
230
1.0
 0
ARC
 8
TOOL_0
 5
1F6
 10
2463.228
 20
2236.103
 30
0
 40
718.688233638203
 50
359.39712530388
 51
0.735621730563
210
0
220
0
230
1.0
 0
ARC
 8
TOOL_0
 5
1F7
 10
3111.126
 20
2228.533
 30
0
 40
70.750000452297
 50
317.200067183514
 51
0.006478674687
210
0
220
0
230
1.0
 0
LINE
 8
TOOL_0
 5
1F8
 10
3163.037
 20
2180.463
 30
0
 11
3120.399
 21
2134.418
 31
0
 0
ARC
 8
TOOL_0
 5
1F9
 10
3105.632
 20
2148.146
 30
0
 40
20.162397501289
 50
290.036519184262
 51
317.088224381762
210
0
220
0
230
1.0
 0
LINE
 8
TOOL_0
 5
1FA
 10
3112.54
 20
2129.204
 30
0
 11
3109.547
 21
2125.033
 31
0
 0
LINE
 8
TOOL_0
 5
1FB
 10
3109.547
 20
2125.033
 30
0
 11
3103.757
 21
1130.091
 31
0
 0
LINE
 8
TOOL_0
 5
1FC
 10
3103.757
 20
1130.091
 30
0
 11
3079.008
 21
1105.342
 31
0
 0
ARC
 8
TOOL_0
 5
1FD
 10
3069.008
 20
1105.342
 30
0
 40
10.0
 50
270.0
 51
0
210
0
220
0
230
1.0
 0
LINE
 8
TOOL_0
 5
1FE
 10
3069.008
 20
1095.342
 30
0
 11
2989.373
 21
1095.342
 31
0
 0
ARC
 8
TOOL_0
 5
1FF
 10
2989.373
 20
1104.542
 30
0
 40
9.2
 50
194.477296857009
 51
270.0
210
0
220
0
230
1.0
 0
ARC
 8
TOOL_0
 5
200
 10
2971.944
 20
1100.042
 30
0
 40
8.800422773936
 50
14.476801494668
 51
67.996679615132
210
0
220
0
230
1.0
 0
LINE
 8
TOOL_0
 5
201
 10
2975.241
 20
1108.201
 30
0
 11
2922.662
 21
1129.444
 31
0
 0
ARC
 8
TOOL_0
 5
202
 10
2926.432
 20
1138.732
 30
0
 40
10.023963487563
 50
180.091453680534
 51
247.907762266919
210
0
220
0
230
1.0
 0
LINE
 8
TOOL_0
 5
203
 10
2916.408
 20
1138.716
 30
0
 11
2916.408
 21
1225.893
 31
0
 0
ARC
 8
TOOL_0
 5
204
 10
2897.208
 20
1225.893
 30
0
 40
19.2
 50
0
 51
58.07970508667
210
0
220
0
230
1.0
 0
ARC
 8
TOOL_0
 5
205
 10
2919.432
 20
1261.547
 30
0
 40
22.812861131388
 50
149.851677845047
 51
238.050257702229
210
0
220
0
230
1.0
 0
ARC
 8
TOOL_0
 5
206
 10
2839.886
 20
1307.792
 30
0
 40
69.199980809246
 50
329.820087804485
 51
0
210
0
220
0
230
1.0
 0
LINE
 8
TOOL_0
 5
207
 10
2909.086
 20
1307.792
 30
0
 11
2909.086
 21
1335.292
 31
0
 0
ARC
 8
TOOL_0
 5
208
 10
2839.886
 20
1335.292
 30
0
 40
69.2
 50
0
 51
30.179912195516
210
0
220
0
230
1.0
 0
ARC
 8
TOOL_0
 5
209
 10
2919.432
 20
1381.538
 30
0
 40
22.812295807306
 50
121.949742297771
 51
210.150494021991
210
0
220
0
230
1.0
 0
ARC
 8
TOOL_0
 5
20A
 10
2897.208
 20
1417.192
 30
0
 40
19.200398771901
 50
301.92029491333
 51
359.99701584482
210
0
220
0
230
1.0
 0
LINE
 8
TOOL_0
 5
20B
 10
2916.408
 20
1417.191
 30
0
 11
2916.408
 21
1504.368
 31
0
 0
ARC
 8
TOOL_0
 5
20C
 10
2926.432
 20
1504.352
 30
0
 40
10.024012769345
 50
112.09223773308
 51
179.908546319465
210
0
220
0
230
1.0
 0
LINE
 8
TOOL_0
 5
20D
 10
2922.662
 20
1513.64
 30
0
 11
2975.241
 21
1534.883
 31
0
 0
ARC
 8
TOOL_0
 5
20E
 10
2971.944
 20
1543.042
 30
0
 40
8.79997102268
 50
292.003320384869
 51
345.523198505332
210
0
220
0
230
1.0
 0
ARC
 8
TOOL_0
 5
20F
 10
2989.373
 20
1538.542
 30
0
 40
9.200133912069
 50
90.0
 51
165.52270314299
210
0
220
0
230
1.0
 0
LINE
 8
TOOL_0
 5
210
 10
2989.373
 20
1547.742
 30
0
 11
3069.008
 21
1547.742
 31
0
 0
ARC
 8
TOOL_0
 5
211
 10
3069.008
 20
1537.742
 30
0
 40
10.0
 50
0
 51
90.0
210
0
220
0
230
1.0
 0
LINE
 8
TOOL_0
 5
212
 10
3079.008
 20
1537.742
 30
0
 11
3079.008
 21
1475.237
 31
0
 0
ARC
 8
TOOL_0
 5
213
 10
3068.208
 20
1475.237
 30
0
 40
10.8
 50
318.46074053417
 51
0
210
0
220
0
230
1.0
 0
ARC
 8
TOOL_0
 5
214
 10
3007.185
 20
1532.68
 30
0
 40
94.602238208195
 50
313.466652314864
 51
316.928384843842
210
0
220
0
230
1.0
 0
LINE
 8
TOOL_0
 5
215
 10
3072.265
 20
1464.02
 30
0
 11
3071.687
 21
1463.419
 31
0
 0
ARC
 8
TOOL_0
 5
216
 10
3077.589
 20
1456.192
 30
0
 40
9.330762723379
 50
129.237129311716
 51
182.739746583199
210
0
220
0
230
1.0
 0
LINE
 8
TOOL_0
 5
217
 10
3068.269
 20
1455.746
 30
0
 11
3070.224
 21
1418.449
 31
0
 0
ARC
 8
TOOL_0
 5
218
 10
3094.391
 20
1419.716
 30
0
 40
24.200189627356
 50
183.001090424869
 51
230.000123438966
210
0
220
0
230
1.0
 0
LINE
 8
TOOL_0
 5
219
 10
3078.835
 20
1401.177
 30
0
 11
3090.718
 21
1391.206
 31
0
 0
ARC
 8
TOOL_0
 5
21A
 10
3045.161
 20
1336.948
 30
0
 40
70.847518044036
 50
0.017791710546
 51
49.981952152145
210
0
220
0
230
1.0
 0
LINE
 8
TOOL_0
 5
21B
 10
3116.009
 20
1336.97
 30
0
 11
3116.009
 21
1306.114
 31
0
 0
ARC
 8
TOOL_0
 5
21C
 10
3045.209
 20
1306.114
 30
0
 40
70.8
 50
311.351276536948
 51
0
210
0
220
0
230
1.0
 0
ARC
 8
TOOL_0
 5
21D
 10
2616.534
 20
1804.923
 30
0
 40
728.498581501708
 50
309.38966704211
 51
310.741326157114
210
0
220
0
230
1.0
 0
ARC
 8
TOOL_0
 5
21E
 10
3094.391
 20
1223.368
 30
0
 40
24.19988966917
 50
130.008069538641
 51
176.998785615683
210
0
220
0
230
1.0
 0
LINE
 8
TOOL_0
 5
21F
 10
3070.225
 20
1224.635
 30
0
 11
3068.27
 21
1187.338
 31
0
 0
ARC
 8
TOOL_0
 5
220
 10
3077.457
 20
1186.857
 30
0
 40
9.19958314273
 50
177.002924856545
 51
213.800613645744
210
0
220
0
230
1.0
 0
ARC
 8
TOOL_0
 5
221
 10
3086.748
 20
1194.783
 30
0
 40
21.376950951902
 50
217.603236713992
 51
227.47786286289
210
0
220
0
230
1.0
 0
LINE
 8
TOOL_0
 5
222
 10
3072.3
 20
1179.028
 30
0
 11
3075.846
 21
1175.484
 31
0
 0
ARC
 8
TOOL_0
 5
223
 10
3068.149
 20
1167.822
 30
0
 40
10.860481250847
 50
0.131896128692
 51
44.869434936404
210
0
220
0
230
1.0
 0
LINE
 8
TOOL_0
 5
224
 10
3079.009
 20
1167.847
 30
0
 11
3079.009
 21
1105.342
 31
0
 0
LINE
 8
TOOL_0
 5
225
 10
3079.009
 20
1105.342
 30
0
 11
3082.545
 21
1101.806
 31
0
 0
LINE
 8
TOOL_0
 5
226
 10
3082.545
 20
1101.806
 30
0
 11
3208.199
 21
1712.849
 31
0
 0
LINE
 8
TOOL_0
 5
227
 10
3208.199
 20
1712.849
 30
0
 11
3188.686
 21
1691.564
 31
0
 0
LINE
 8
TOOL_0
 5
228
 10
3188.686
 20
1691.564
 30
0
 11
3132.376
 21
1635.254
 31
0
 0
ARC
 8
TOOL_0
 5
229
 10
3125.871
 20
1641.759
 30
0
 40
9.199459223237
 50
239.474145417841
 51
315.0
210
0
220
0
230
1.0
 0
ARC
 8
TOOL_0
 5
22A
 10
3116.729
 20
1626.253
 30
0
 40
8.800200111361
 50
59.480647563471
 51
113.001974710942
210
0
220
0
230
1.0
 0
LINE
 8
TOOL_0
 5
22B
 10
3113.29
 20
1634.354
 30
0
 11
3061.09
 21
1612.196
 31
0
 0
ARC
 8
TOOL_0
 5
22C
 10
3057.188
 20
1621.429
 30
0
 40
10.023666644497
 50
225.092966615331
 51
292.909625947521
210
0
220
0
230
1.0
 0
LINE
 8
TOOL_0
 5
22D
 10
3050.112
 20
1614.33
 30
0
 11
2988.469
 21
1675.973
 31
0
 0
ARC
 8
TOOL_0
 5
22E
 10
2974.893
 20
1662.397
 30
0
 40
19.199363322777
 50
45.0
 51
103.080063375719
210
0
220
0
230
1.0
 0
ARC
 8
TOOL_0
 5
22F
 10
2965.397
 20
1703.321
 30
0
 40
22.812157504278
 50
194.848903702022
 51
283.049963738667
210
0
220
0
230
1.0
 0
ARC
 8
TOOL_0
 5
230
 10
2876.449
 20
1679.775
 30
0
 40
69.199945115585
 50
14.819841299424
 51
44.999414530726
210
0
220
0
230
1.0
 0
LINE
 8
TOOL_0
 5
231
 10
2925.381
 20
1728.706
 30
0
 11
2905.936
 21
1748.151
 31
0
 0
ARC
 8
TOOL_0
 5
232
 10
2857.004
 20
1699.219
 30
0
 40
69.20029803404
 50
45.0
 51
75.180158700576
210
0
220
0
230
1.0
 0
ARC
 8
TOOL_0
 5
233
 10
2880.551
 20
1788.168
 30
0
 40
22.813022815927
 50
166.953050057837
 51
255.149312266641
210
0
220
0
230
1.0
 0
ARC
 8
TOOL_0
 5
234
 10
2839.625
 20
1797.663
 30
0
 40
19.200099713283
 50
346.920611972062
 51
44.997889891375
210
0
220
0
230
1.0
 0
LINE
 8
TOOL_0
 5
235
 10
2853.202
 20
1811.239
 30
0
 11
2791.558
 21
1872.883
 31
0
 0
ARC
 8
TOOL_0
 5
236
 10
2798.657
 20
1879.96
 30
0
 40
10.023957801188
 50
157.09563942501
 51
224.91108167767
210
0
220
0
230
1.0
 0
LINE
 8
TOOL_0
 5
237
 10
2789.424
 20
1883.861
 30
0
 11
2811.582
 21
1936.061
 31
0
 0
ARC
 8
TOOL_0
 5
238
 10
2803.482
 20
1939.499
 30
0
 40
8.799422935625
 50
337.00147451629
 51
30.528267861144
210
0
220
0
230
1.0
 0
ARC
 8
TOOL_0
 5
239
 10
2818.987
 20
1948.641
 30
0
 40
9.19963091651
 50
134.995596358512
 51
210.520489737885
210
0
220
0
230
1.0
 0
LINE
 8
TOOL_0
 5
23A
 10
2812.482
 20
1955.147
 30
0
 11
2868.792
 21
2011.457
 31
0
 0
ARC
 8
TOOL_0
 5
23B
 10
2875.863
 20
2004.386
 30
0
 40
9.99990409954
 50
45.0
 51
135.0
210
0
220
0
230
1.0
 0
LINE
 8
TOOL_0
 5
23C
 10
2882.934
 20
2011.457
 30
0
 11
2927.132
 21
1967.259
 31
0
 0
ARC
 8
TOOL_0
 5
23D
 10
2919.495
 20
1959.622
 30
0
 40
10.800348975843
 50
3.46084820149
 51
44.999999999999
210
0
220
0
230
1.0
 0
ARC
 8
TOOL_0
 5
23E
 10
2835.727
 20
1957.091
 30
0
 40
94.602562808837
 50
358.466928818293
 51
1.928139022748
210
0
220
0
230
1.0
 0
LINE
 8
TOOL_0
 5
23F
 10
2930.296
 20
1954.56
 30
0
 11
2930.313
 21
1953.726
 31
0
 0
ARC
 8
TOOL_0
 5
240
 10
2939.597
 20
1952.789
 30
0
 40
9.331164182459
 50
174.236862681553
 51
227.740767525528
210
0
220
0
230
1.0
 0
LINE
 8
TOOL_0
 5
241
 10
2933.322
 20
1945.883
 30
0
 11
2961.077
 21
1920.892
 31
0
 0
ARC
 8
TOOL_0
 5
242
 10
2977.27
 20
1938.876
 30
0
 40
24.199948450358
 50
227.999764816428
 51
274.999583238663
210
0
220
0
230
1.0
 0
LINE
 8
TOOL_0
 5
243
 10
2979.379
 20
1914.768
 30
0
 11
2994.832
 21
1916.12
 31
0
 0
ARC
 8
TOOL_0
 5
244
 10
3000.985
 20
1845.54
 30
0
 40
70.847694450843
 50
45.018299148473
 51
94.982316300401
210
0
220
0
230
1.0
 0
LINE
 8
TOOL_0
 5
245
 10
3051.066
 20
1895.653
 30
0
 11
3072.885
 21
1873.834
 31
0
 0
ARC
 8
TOOL_0
 5
246
 10
3022.822
 20
1823.771
 30
0
 40
70.799773573084
 50
356.350973349368
 51
45.0
210
0
220
0
230
1.0
 0
ARC
 8
TOOL_0
 5
247
 10
2366.991
 20
1873.363
 30
0
 40
728.49842468807
 50
354.389648607622
 51
355.741318251225
210
0
220
0
230
1.0
 0
ARC
 8
TOOL_0
 5
248
 10
3116.108
 20
1800.038
 30
0
 40
24.199724977776
 50
175.009851213738
 51
222.00023518357
210
0
220
0
230
1.0
 0
LINE
 8
TOOL_0
 5
249
 10
3098.124
 20
1783.845
 30
0
 11
3123.115
 21
1756.09
 31
0
 0
ARC
 8
TOOL_0
 5
24A
 10
3129.952
 20
1762.246
 30
0
 40
9.200049184651
 50
221.99971096902
 51
258.799988523374
210
0
220
0
230
1.0
 0
ARC
 8
TOOL_0
 5
24B
 10
3130.918
 20
1774.42
 30
0
 40
21.377011250406
 50
262.600716007392
 51
272.474650761993
210
0
220
0
230
1.0
 0
LINE
 8
TOOL_0
 5
24C
 10
3131.841
 20
1753.063
 30
0
 11
3136.854
 21
1753.065
 31
0
 0
ARC
 8
TOOL_0
 5
24D
 10
3136.829
 20
1742.205
 30
0
 40
10.860028775284
 50
45.130565063595
 51
89.868103871308
210
0
220
0
230
1.0
 0
LINE
 8
TOOL_0
 5
24E
 10
3144.491
 20
1749.902
 30
0
 11
3188.689
 21
1705.704
 31
0
 0
ARC
 8
TOOL_0
 5
24F
 10
3181.618
 20
1698.633
 30
0
 40
9.99990409954
 50
314.999999999999
 51
45.0
210
0
220
0
230
1.0
 0
LINE
 8
TOOL_0
 5
250
 10
3188.689
 20
1691.562
 30
0
 11
3188.194
 21
1686.983
 31
0
 0
ENDSEC
 0
EOF

