0
SECTION
2
TABLES
0
TABLE
2
LAYER
70
0
0
LAYER
2
LAYER_NAME
70
0
62
1
6
CONTINUOUS
0
ENDTAB
0
ENDSEC
 0
SECTION
 2
ENTITIES
 0
LINE
 8
TOOL_0
 5
1
 10
4433.317
 20
10.054
 30
0
 11
4376.0
 21
8.001
 31
0
 0
LINE
 8
TOOL_0
 5
2
 10
4376.0
 20
8.001
 30
0
 11
63.0
 21
8.001
 31
0
 0
LINE
 8
TOOL_0
 5
3
 10
63.0
 20
8.001
 30
0
 11
63.0
 21
71.001
 31
0
 0
ARC
 8
TOOL_0
 5
4
 10
52.0
 20
71.001
 30
0
 40
11.0
 50
0
 51
180.0
210
0
220
0
230
1.0
 0
LINE
 8
TOOL_0
 5
5
 10
41.0
 20
71.001
 30
0
 11
41.0
 21
57.001
 31
0
 0
LINE
 8
TOOL_0
 5
6
 10
41.0
 20
57.001
 30
0
 11
8.0
 21
57.001
 31
0
 0
LINE
 8
TOOL_0
 5
7
 10
8.0
 20
57.001
 30
0
 11
8.0
 21
912.001
 31
0
 0
LINE
 8
TOOL_0
 5
8
 10
8.0
 20
912.001
 30
0
 11
4431.0
 21
912.001
 31
0
 0
LINE
 8
TOOL_0
 5
9
 10
4431.0
 20
912.001
 30
0
 11
4431.0
 21
57.001
 31
0
 0
LINE
 8
TOOL_0
 5
A
 10
4431.0
 20
57.001
 30
0
 11
4398.0
 21
57.001
 31
0
 0
LINE
 8
TOOL_0
 5
B
 10
4398.0
 20
57.001
 30
0
 11
4398.0
 21
71.001
 31
0
 0
ARC
 8
TOOL_0
 5
C
 10
4387.0
 20
71.001
 30
0
 40
11.0
 50
0
 51
180.0
210
0
220
0
230
1.0
 0
LINE
 8
TOOL_0
 5
D
 10
4376.0
 20
71.001
 30
0
 11
4376.0
 21
8.001
 31
0
 0
LINE
 8
TOOL_0
 5
E
 10
4376.0
 20
8.001
 30
0
 11
4376.834
 21
4.388
 31
0
 0
LINE
 8
TOOL_0
 5
F
 10
4376.834
 20
4.388
 30
0
 11
4435.936
 21
935.025
 31
0
 0
LINE
 8
TOOL_0
 5
10
 10
4435.936
 20
935.025
 30
0
 11
4376.0
 21
932.196
 31
0
 0
LINE
 8
TOOL_0
 5
11
 10
4376.0
 20
932.196
 30
0
 11
63.0
 21
932.196
 31
0
 0
LINE
 8
TOOL_0
 5
12
 10
63.0
 20
932.196
 30
0
 11
63.0
 21
995.196
 31
0
 0
ARC
 8
TOOL_0
 5
13
 10
52.0
 20
995.196
 30
0
 40
11.0
 50
0
 51
180.0
210
0
220
0
230
1.0
 0
LINE
 8
TOOL_0
 5
14
 10
41.0
 20
995.196
 30
0
 11
41.0
 21
981.196
 31
0
 0
LINE
 8
TOOL_0
 5
15
 10
41.0
 20
981.196
 30
0
 11
8.0
 21
981.196
 31
0
 0
LINE
 8
TOOL_0
 5
16
 10
8.0
 20
981.196
 30
0
 11
8.0
 21
1836.196
 31
0
 0
LINE
 8
TOOL_0
 5
17
 10
8.0
 20
1836.196
 30
0
 11
4431.0
 21
1836.196
 31
0
 0
LINE
 8
TOOL_0
 5
18
 10
4431.0
 20
1836.196
 30
0
 11
4431.0
 21
981.196
 31
0
 0
LINE
 8
TOOL_0
 5
19
 10
4431.0
 20
981.196
 30
0
 11
4398.0
 21
981.196
 31
0
 0
LINE
 8
TOOL_0
 5
1A
 10
4398.0
 20
981.196
 30
0
 11
4398.0
 21
995.196
 31
0
 0
ARC
 8
TOOL_0
 5
1B
 10
4387.0
 20
995.196
 30
0
 40
11.0
 50
0
 51
180.0
210
0
220
0
230
1.0
 0
LINE
 8
TOOL_0
 5
1C
 10
4376.0
 20
995.196
 30
0
 11
4376.0
 21
932.196
 31
0
 0
LINE
 8
TOOL_0
 5
1D
 10
4376.0
 20
932.196
 30
0
 11
4376.008
 21
927.687
 31
0
 0
LINE
 8
TOOL_0
 5
1E
 10
4376.008
 20
927.687
 30
0
 11
4436.789
 21
1857.224
 31
0
 0
LINE
 8
TOOL_0
 5
1F
 10
4436.789
 20
1857.224
 30
0
 11
4376.0
 21
1856.223
 31
0
 0
LINE
 8
TOOL_0
 5
20
 10
4376.0
 20
1856.223
 30
0
 11
63.0
 21
1856.223
 31
0
 0
LINE
 8
TOOL_0
 5
21
 10
63.0
 20
1856.223
 30
0
 11
63.0
 21
1919.223
 31
0
 0
ARC
 8
TOOL_0
 5
22
 10
52.0
 20
1919.223
 30
0
 40
11.0
 50
0
 51
180.0
210
0
220
0
230
1.0
 0
LINE
 8
TOOL_0
 5
23
 10
41.0
 20
1919.223
 30
0
 11
41.0
 21
1905.223
 31
0
 0
LINE
 8
TOOL_0
 5
24
 10
41.0
 20
1905.223
 30
0
 11
8.0
 21
1905.223
 31
0
 0
LINE
 8
TOOL_0
 5
25
 10
8.0
 20
1905.223
 30
0
 11
8.0
 21
2760.223
 31
0
 0
LINE
 8
TOOL_0
 5
26
 10
8.0
 20
2760.223
 30
0
 11
4431.0
 21
2760.223
 31
0
 0
LINE
 8
TOOL_0
 5
27
 10
4431.0
 20
2760.223
 30
0
 11
4431.0
 21
1905.223
 31
0
 0
LINE
 8
TOOL_0
 5
28
 10
4431.0
 20
1905.223
 30
0
 11
4398.0
 21
1905.223
 31
0
 0
LINE
 8
TOOL_0
 5
29
 10
4398.0
 20
1905.223
 30
0
 11
4398.0
 21
1919.223
 31
0
 0
ARC
 8
TOOL_0
 5
2A
 10
4387.0
 20
1919.223
 30
0
 40
11.0
 50
0
 51
180.0
210
0
220
0
230
1.0
 0
LINE
 8
TOOL_0
 5
2B
 10
4376.0
 20
1919.223
 30
0
 11
4376.0
 21
1856.223
 31
0
 0
LINE
 8
TOOL_0
 5
2C
 10
4376.0
 20
1856.223
 30
0
 11
4376.051
 21
1851.347
 31
0
 0
ENDSEC
 0
EOF

