0
SECTION
2
TABLES
0
TABLE
2
LAYER
70
0
0
LAYER
2
LAYER_NAME
70
0
62
1
6
CONTINUOUS
0
ENDTAB
0
ENDSEC
 0
SECTION
 2
ENTITIES
 0
LINE
 8
TOOL_0
 5
1
 10
709.595
 20
62.344
 30
0
 11
709.595
 21
26.241
 31
0
 0
LINE
 8
TOOL_0
 5
2
 10
709.595
 20
26.241
 30
0
 11
684.834
 21
25.01
 31
0
 0
LINE
 8
TOOL_0
 5
3
 10
684.834
 20
25.01
 30
0
 11
498.334
 21
25.01
 31
0
 0
LINE
 8
TOOL_0
 5
4
 10
498.334
 20
25.01
 30
0
 11
498.334
 21
141.51
 31
0
 0
LINE
 8
TOOL_0
 5
5
 10
498.334
 20
141.51
 30
0
 11
684.834
 21
141.51
 31
0
 0
LINE
 8
TOOL_0
 5
6
 10
684.834
 20
141.51
 30
0
 11
684.834
 21
25.01
 31
0
 0
LINE
 8
TOOL_0
 5
7
 10
684.834
 20
25.01
 30
0
 11
684.834
 21
15.319
 31
0
 0
LINE
 8
TOOL_0
 5
8
 10
684.834
 20
15.319
 30
0
 11
709.595
 21
203.845
 31
0
 0
LINE
 8
TOOL_0
 5
9
 10
709.595
 20
203.845
 30
0
 11
709.595
 21
167.742
 31
0
 0
LINE
 8
TOOL_0
 5
A
 10
709.595
 20
167.742
 30
0
 11
684.834
 21
166.511
 31
0
 0
LINE
 8
TOOL_0
 5
B
 10
684.834
 20
166.511
 30
0
 11
498.334
 21
166.511
 31
0
 0
LINE
 8
TOOL_0
 5
C
 10
498.334
 20
166.511
 30
0
 11
498.334
 21
283.011
 31
0
 0
LINE
 8
TOOL_0
 5
D
 10
498.334
 20
283.011
 30
0
 11
684.834
 21
283.011
 31
0
 0
LINE
 8
TOOL_0
 5
E
 10
684.834
 20
283.011
 30
0
 11
684.834
 21
166.511
 31
0
 0
LINE
 8
TOOL_0
 5
F
 10
684.834
 20
166.511
 30
0
 11
684.834
 21
156.82
 31
0
 0
LINE
 8
TOOL_0
 5
10
 10
684.834
 20
156.82
 30
0
 11
672.554
 21
306.817
 31
0
 0
LINE
 8
TOOL_0
 5
11
 10
672.554
 20
306.817
 30
0
 11
641.942
 21
306.817
 31
0
 0
LINE
 8
TOOL_0
 5
12
 10
641.942
 20
306.817
 30
0
 11
553.692
 21
306.817
 31
0
 0
ARC
 8
TOOL_0
 5
13
 10
553.692
 20
360.067
 30
0
 40
53.25
 50
90.0
 51
270.0
210
0
220
0
230
1.0
 0
LINE
 8
TOOL_0
 5
14
 10
553.692
 20
413.317
 30
0
 11
641.942
 21
413.317
 31
0
 0
LINE
 8
TOOL_0
 5
15
 10
641.942
 20
413.317
 30
0
 11
641.942
 21
306.817
 31
0
 0
LINE
 8
TOOL_0
 5
16
 10
641.942
 20
306.817
 30
0
 11
641.942
 21
298.953
 31
0
 0
LINE
 8
TOOL_0
 5
17
 10
641.942
 20
298.953
 30
0
 11
880.302
 21
211.477
 31
0
 0
LINE
 8
TOOL_0
 5
18
 10
880.302
 20
211.477
 30
0
 11
849.69
 21
211.477
 31
0
 0
LINE
 8
TOOL_0
 5
19
 10
849.69
 20
211.477
 30
0
 11
761.44
 21
211.477
 31
0
 0
ARC
 8
TOOL_0
 5
1A
 10
761.44
 20
264.727
 30
0
 40
53.25
 50
90.0
 51
270.0
210
0
220
0
230
1.0
 0
LINE
 8
TOOL_0
 5
1B
 10
761.44
 20
317.977
 30
0
 11
849.69
 21
317.977
 31
0
 0
LINE
 8
TOOL_0
 5
1C
 10
849.69
 20
317.977
 30
0
 11
849.69
 21
211.477
 31
0
 0
LINE
 8
TOOL_0
 5
1D
 10
849.69
 20
211.477
 30
0
 11
849.69
 21
203.613
 31
0
 0
LINE
 8
TOOL_0
 5
1E
 10
849.69
 20
203.613
 30
0
 11
1043.904
 21
211.451
 31
0
 0
LINE
 8
TOOL_0
 5
1F
 10
1043.904
 20
211.451
 30
0
 11
1013.292
 21
211.451
 31
0
 0
LINE
 8
TOOL_0
 5
20
 10
1013.292
 20
211.451
 30
0
 11
925.042
 21
211.451
 31
0
 0
ARC
 8
TOOL_0
 5
21
 10
925.042
 20
264.701
 30
0
 40
53.25
 50
90.0
 51
270.0
210
0
220
0
230
1.0
 0
LINE
 8
TOOL_0
 5
22
 10
925.042
 20
317.951
 30
0
 11
1013.292
 21
317.951
 31
0
 0
LINE
 8
TOOL_0
 5
23
 10
1013.292
 20
317.951
 30
0
 11
1013.292
 21
211.451
 31
0
 0
LINE
 8
TOOL_0
 5
24
 10
1013.292
 20
211.451
 30
0
 11
1013.292
 21
203.587
 31
0
 0
LINE
 8
TOOL_0
 5
25
 10
1013.292
 20
203.587
 30
0
 11
1176.931
 21
349.407
 31
0
 0
LINE
 8
TOOL_0
 5
26
 10
1176.931
 20
349.407
 30
0
 11
1176.931
 21
318.054
 31
0
 0
LINE
 8
TOOL_0
 5
27
 10
1176.931
 20
318.054
 30
0
 11
1176.931
 21
211.554
 31
0
 0
LINE
 8
TOOL_0
 5
28
 10
1176.931
 20
211.554
 30
0
 11
1088.681
 21
211.554
 31
0
 0
ARC
 8
TOOL_0
 5
29
 10
1088.681
 20
264.804
 30
0
 40
53.25
 50
90.0
 51
270.0
210
0
220
0
230
1.0
 0
LINE
 8
TOOL_0
 5
2A
 10
1088.681
 20
318.054
 30
0
 11
1176.931
 21
318.054
 31
0
 0
LINE
 8
TOOL_0
 5
2B
 10
1176.931
 20
318.054
 30
0
 11
1188.036
 21
318.054
 31
0
 0
LINE
 8
TOOL_0
 5
2C
 10
1188.036
 20
318.054
 30
0
 11
1224.889
 21
436.509
 31
0
 0
LINE
 8
TOOL_0
 5
2D
 10
1224.889
 20
436.509
 30
0
 11
1223.889
 21
436.509
 31
0
 0
LINE
 8
TOOL_0
 5
2E
 10
1223.889
 20
436.509
 30
0
 11
1224.889
 21
436.509
 31
0
 0
LINE
 8
TOOL_0
 5
2F
 10
1224.889
 20
436.509
 30
0
 11
1223.889
 21
436.509
 31
0
 0
LINE
 8
TOOL_0
 5
30
 10
1223.889
 20
436.509
 30
0
 11
474.253
 21
436.509
 31
0
 0
LINE
 8
TOOL_0
 5
31
 10
474.253
 20
436.509
 30
0
 11
473.253
 21
436.509
 31
0
 0
ENDSEC
 0
EOF

