0
SECTION
2
TABLES
0
TABLE
2
LAYER
70
0
0
LAYER
2
LAYER_NAME
70
0
62
1
6
CONTINUOUS
0
ENDTAB
0
ENDSEC
 0
SECTION
 2
ENTITIES
 0
LINE
 8
TOOL_0
 5
1
 10
1038.597
 20
1467.358
 30
0
 11
1068.076
 21
1467.001
 31
0
 0
ARC
 8
TOOL_0
 5
2
 10
1033.076
 20
1467.001
 30
0
 40
35.0
 50
0
 51
180.0
210
0
220
0
230
1.0
 0
ARC
 8
TOOL_0
 5
3
 10
1033.076
 20
1467.001
 30
0
 40
35.0
 50
180.0
 51
0
210
0
220
0
230
1.0
 0
LINE
 8
TOOL_0
 5
4
 10
1068.076
 20
1467.001
 30
0
 11
1065.325
 21
1471.877
 31
0
 0
LINE
 8
TOOL_0
 5
5
 10
1065.325
 20
1471.877
 30
0
 11
722.7
 21
426.711
 31
0
 0
LINE
 8
TOOL_0
 5
6
 10
722.7
 20
426.711
 30
0
 11
753.076
 21
427.001
 31
0
 0
ARC
 8
TOOL_0
 5
7
 10
718.076
 20
427.001
 30
0
 40
35.0
 50
0
 51
180.0
210
0
220
0
230
1.0
 0
ARC
 8
TOOL_0
 5
8
 10
718.076
 20
427.001
 30
0
 40
35.0
 50
180.0
 51
0
210
0
220
0
230
1.0
 0
LINE
 8
TOOL_0
 5
9
 10
753.076
 20
427.001
 30
0
 11
750.314
 21
432.331
 31
0
 0
LINE
 8
TOOL_0
 5
A
 10
750.314
 20
432.331
 30
0
 11
2187.248
 21
426.248
 31
0
 0
LINE
 8
TOOL_0
 5
B
 10
2187.248
 20
426.248
 30
0
 11
2218.076
 21
427.001
 31
0
 0
ARC
 8
TOOL_0
 5
C
 10
2183.076
 20
427.001
 30
0
 40
35.0
 50
0
 51
180.0
210
0
220
0
230
1.0
 0
ARC
 8
TOOL_0
 5
D
 10
2183.076
 20
427.001
 30
0
 40
35.0
 50
180.0
 51
0
210
0
220
0
230
1.0
 0
LINE
 8
TOOL_0
 5
E
 10
2218.076
 20
427.001
 30
0
 11
2216.128
 21
431.896
 31
0
 0
LINE
 8
TOOL_0
 5
F
 10
2216.128
 20
431.896
 30
0
 11
3338.986
 21
1466.803
 31
0
 0
LINE
 8
TOOL_0
 5
10
 10
3338.986
 20
1466.803
 30
0
 11
3368.076
 21
1467.001
 31
0
 0
ARC
 8
TOOL_0
 5
11
 10
3333.076
 20
1467.001
 30
0
 40
35.0
 50
0
 51
180.0
210
0
220
0
230
1.0
 0
ARC
 8
TOOL_0
 5
12
 10
3333.076
 20
1467.001
 30
0
 40
35.0
 50
180.0
 51
0
210
0
220
0
230
1.0
 0
LINE
 8
TOOL_0
 5
13
 10
3368.076
 20
1467.001
 30
0
 11
3365.411
 21
1472.191
 31
0
 0
LINE
 8
TOOL_0
 5
14
 10
3365.411
 20
1472.191
 30
0
 11
3653.526
 21
427.131
 31
0
 0
LINE
 8
TOOL_0
 5
15
 10
3653.526
 20
427.131
 30
0
 11
3683.076
 21
427.001
 31
0
 0
ARC
 8
TOOL_0
 5
16
 10
3648.076
 20
427.001
 30
0
 40
35.0
 50
0
 51
180.0
210
0
220
0
230
1.0
 0
ARC
 8
TOOL_0
 5
17
 10
3648.076
 20
427.001
 30
0
 40
35.0
 50
180.0
 51
0
210
0
220
0
230
1.0
 0
LINE
 8
TOOL_0
 5
18
 10
3683.076
 20
427.001
 30
0
 11
3681.603
 21
431.733
 31
0
 0
LINE
 8
TOOL_0
 5
19
 10
3681.603
 20
431.733
 30
0
 11
4331.482
 21
48.037
 31
0
 0
LINE
 8
TOOL_0
 5
1A
 10
4331.482
 20
48.037
 30
0
 11
4331.482
 21
18.664
 31
0
 0
LINE
 8
TOOL_0
 5
1B
 10
4331.482
 20
18.664
 30
0
 11
4320.576
 21
19.001
 31
0
 0
LINE
 8
TOOL_0
 5
1C
 10
4320.576
 20
19.001
 30
0
 11
45.576
 21
19.001
 31
0
 0
LINE
 8
TOOL_0
 5
1D
 10
45.576
 20
19.001
 30
0
 11
45.576
 21
127.001
 31
0
 0
LINE
 8
TOOL_0
 5
1E
 10
45.576
 20
127.001
 30
0
 11
55.576
 21
127.001
 31
0
 0
LINE
 8
TOOL_0
 5
1F
 10
55.576
 20
127.001
 30
0
 11
55.576
 21
649.001
 31
0
 0
LINE
 8
TOOL_0
 5
20
 10
55.576
 20
649.001
 30
0
 11
542.576
 21
649.001
 31
0
 0
ARC
 8
TOOL_0
 5
21
 10
542.576
 20
712.001
 30
0
 40
63.0
 50
270.0
 51
314.999356913637
210
0
220
0
230
1.0
 0
LINE
 8
TOOL_0
 5
22
 10
587.123
 20
667.453
 30
0
 11
614.623
 21
694.953
 31
0
 0
ARC
 8
TOOL_0
 5
23
 10
570.075
 20
739.501
 30
0
 40
63.000385776597
 50
315.0
 51
359.999090543183
210
0
220
0
230
1.0
 0
LINE
 8
TOOL_0
 5
24
 10
633.075
 20
739.5
 30
0
 11
633.075
 21
1533.0
 31
0
 0
ARC
 8
TOOL_0
 5
25
 10
668.075
 20
1533.0
 30
0
 40
35.0
 50
90.0
 51
180.0
210
0
220
0
230
1.0
 0
LINE
 8
TOOL_0
 5
26
 10
668.075
 20
1568.0
 30
0
 11
3698.075
 21
1568.0
 31
0
 0
ARC
 8
TOOL_0
 5
27
 10
3698.075
 20
1533.0
 30
0
 40
35.0
 50
0
 51
90.0
210
0
220
0
230
1.0
 0
LINE
 8
TOOL_0
 5
28
 10
3733.075
 20
1533.0
 30
0
 11
3733.075
 21
739.5
 31
0
 0
ARC
 8
TOOL_0
 5
29
 10
3796.075
 20
739.5
 30
0
 40
63.0
 50
180.0
 51
225.0
210
0
220
0
230
1.0
 0
LINE
 8
TOOL_0
 5
2A
 10
3751.527
 20
694.952
 30
0
 11
3779.027
 21
667.452
 31
0
 0
ARC
 8
TOOL_0
 5
2B
 10
3823.575
 20
712.0
 30
0
 40
63.000385776597
 50
225.0
 51
269.999090543182
210
0
220
0
230
1.0
 0
LINE
 8
TOOL_0
 5
2C
 10
3823.574
 20
649.0
 30
0
 11
4310.574
 21
649.0
 31
0
 0
LINE
 8
TOOL_0
 5
2D
 10
4310.574
 20
649.0
 30
0
 11
4310.574
 21
127.0
 31
0
 0
LINE
 8
TOOL_0
 5
2E
 10
4310.574
 20
127.0
 30
0
 11
4320.574
 21
127.0
 31
0
 0
LINE
 8
TOOL_0
 5
2F
 10
4320.574
 20
127.0
 30
0
 11
4320.574
 21
19.0
 31
0
 0
LINE
 8
TOOL_0
 5
30
 10
4320.574
 20
19.0
 30
0
 11
4320.574
 21
13.921
 31
0
 0
LINE
 8
TOOL_0
 5
31
 10
4320.574
 20
13.921
 30
0
 11
4176.357
 21
933.046
 31
0
 0
LINE
 8
TOOL_0
 5
32
 10
4176.357
 20
933.046
 30
0
 11
4206.221
 21
932.999
 31
0
 0
ARC
 8
TOOL_0
 5
33
 10
4171.221
 20
932.999
 30
0
 40
35.0
 50
0
 51
180.0
210
0
220
0
230
1.0
 0
ARC
 8
TOOL_0
 5
34
 10
4171.221
 20
932.999
 30
0
 40
35.0
 50
180.0
 51
0
210
0
220
0
230
1.0
 0
LINE
 8
TOOL_0
 5
35
 10
4206.221
 20
932.999
 30
0
 11
4204.275
 21
937.637
 31
0
 0
LINE
 8
TOOL_0
 5
36
 10
4204.275
 20
937.637
 30
0
 11
3860.046
 21
1973.035
 31
0
 0
LINE
 8
TOOL_0
 5
37
 10
3860.046
 20
1973.035
 30
0
 11
3891.221
 21
1972.999
 31
0
 0
ARC
 8
TOOL_0
 5
38
 10
3856.221
 20
1972.999
 30
0
 40
35.0
 50
0
 51
180.0
210
0
220
0
230
1.0
 0
ARC
 8
TOOL_0
 5
39
 10
3856.221
 20
1972.999
 30
0
 40
35.0
 50
180.0
 51
0
210
0
220
0
230
1.0
 0
LINE
 8
TOOL_0
 5
3A
 10
3891.221
 20
1972.999
 30
0
 11
3888.934
 21
1977.282
 31
0
 0
LINE
 8
TOOL_0
 5
3B
 10
3888.934
 20
1977.282
 30
0
 11
5325.951
 21
1973.016
 31
0
 0
LINE
 8
TOOL_0
 5
3C
 10
5325.951
 20
1973.016
 30
0
 11
5356.221
 21
1972.999
 31
0
 0
ARC
 8
TOOL_0
 5
3D
 10
5321.221
 20
1972.999
 30
0
 40
35.0
 50
0
 51
180.0
210
0
220
0
230
1.0
 0
ARC
 8
TOOL_0
 5
3E
 10
5321.221
 20
1972.999
 30
0
 40
35.0
 50
180.0
 51
0
210
0
220
0
230
1.0
 0
LINE
 8
TOOL_0
 5
3F
 10
5356.221
 20
1972.999
 30
0
 11
5353.495
 21
1977.695
 31
0
 0
LINE
 8
TOOL_0
 5
40
 10
5353.495
 20
1977.695
 30
0
 11
6790.729
 21
1972.85
 31
0
 0
LINE
 8
TOOL_0
 5
41
 10
6790.729
 20
1972.85
 30
0
 11
6821.221
 21
1972.999
 31
0
 0
ARC
 8
TOOL_0
 5
42
 10
6786.221
 20
1972.999
 30
0
 40
35.0
 50
0
 51
180.0
210
0
220
0
230
1.0
 0
ARC
 8
TOOL_0
 5
43
 10
6786.221
 20
1972.999
 30
0
 40
35.0
 50
180.0
 51
0
210
0
220
0
230
1.0
 0
LINE
 8
TOOL_0
 5
44
 10
6821.221
 20
1972.999
 30
0
 11
6818.391
 21
1977.989
 31
0
 0
LINE
 8
TOOL_0
 5
45
 10
6818.391
 20
1977.989
 30
0
 11
6475.519
 21
932.936
 31
0
 0
LINE
 8
TOOL_0
 5
46
 10
6475.519
 20
932.936
 30
0
 11
6506.221
 21
932.999
 31
0
 0
ARC
 8
TOOL_0
 5
47
 10
6471.221
 20
932.999
 30
0
 40
35.0
 50
0
 51
180.0
210
0
220
0
230
1.0
 0
ARC
 8
TOOL_0
 5
48
 10
6471.221
 20
932.999
 30
0
 40
35.0
 50
180.0
 51
0
210
0
220
0
230
1.0
 0
LINE
 8
TOOL_0
 5
49
 10
6506.221
 20
932.999
 30
0
 11
6504.024
 21
937.997
 31
0
 0
LINE
 8
TOOL_0
 5
4A
 10
6504.024
 20
937.997
 30
0
 11
6877.409
 21
857.29
 31
0
 0
LINE
 8
TOOL_0
 5
4B
 10
6877.409
 20
857.29
 30
0
 11
6877.191
 21
828.892
 31
0
 0
LINE
 8
TOOL_0
 5
4C
 10
6877.191
 20
828.892
 30
0
 11
6836.249
 21
829.415
 31
0
 0
LINE
 8
TOOL_0
 5
4D
 10
6836.249
 20
829.415
 30
0
 11
6834.721
 21
831.999
 31
0
 0
LINE
 8
TOOL_0
 5
4E
 10
6834.721
 20
831.999
 30
0
 11
3806.221
 21
831.999
 31
0
 0
ARC
 8
TOOL_0
 5
4F
 10
3806.221
 20
866.999
 30
0
 40
35.0
 50
180.0
 51
270.0
210
0
220
0
230
1.0
 0
LINE
 8
TOOL_0
 5
50
 10
3771.221
 20
866.999
 30
0
 11
3771.221
 21
1660.499
 31
0
 0
ARC
 8
TOOL_0
 5
51
 10
3708.221
 20
1660.499
 30
0
 40
63.0
 50
0
 51
45.0
210
0
220
0
230
1.0
 0
LINE
 8
TOOL_0
 5
52
 10
3752.769
 20
1705.047
 30
0
 11
3725.269
 21
1732.547
 31
0
 0
ARC
 8
TOOL_0
 5
53
 10
3680.721
 20
1687.999
 30
0
 40
63.000385776597
 50
45.0
 51
90.0
210
0
220
0
230
1.0
 0
LINE
 8
TOOL_0
 5
54
 10
3680.721
 20
1750.999
 30
0
 11
3193.721
 21
1750.999
 31
0
 0
LINE
 8
TOOL_0
 5
55
 10
3193.721
 20
1750.999
 30
0
 11
3193.721
 21
2272.999
 31
0
 0
LINE
 8
TOOL_0
 5
56
 10
3193.721
 20
2272.999
 30
0
 11
3183.721
 21
2272.999
 31
0
 0
LINE
 8
TOOL_0
 5
57
 10
3183.721
 20
2272.999
 30
0
 11
3183.721
 21
2380.999
 31
0
 0
LINE
 8
TOOL_0
 5
58
 10
3183.721
 20
2380.999
 30
0
 11
7458.721
 21
2380.999
 31
0
 0
LINE
 8
TOOL_0
 5
59
 10
7458.721
 20
2380.999
 30
0
 11
7458.721
 21
2272.999
 31
0
 0
LINE
 8
TOOL_0
 5
5A
 10
7458.721
 20
2272.999
 30
0
 11
7448.721
 21
2272.999
 31
0
 0
LINE
 8
TOOL_0
 5
5B
 10
7448.721
 20
2272.999
 30
0
 11
7448.721
 21
1750.999
 31
0
 0
LINE
 8
TOOL_0
 5
5C
 10
7448.721
 20
1750.999
 30
0
 11
6961.721
 21
1750.999
 31
0
 0
ARC
 8
TOOL_0
 5
5D
 10
6961.721
 20
1687.999
 30
0
 40
63.0
 50
90.0
 51
135.0
210
0
220
0
230
1.0
 0
LINE
 8
TOOL_0
 5
5E
 10
6917.173
 20
1732.547
 30
0
 11
6889.673
 21
1705.047
 31
0
 0
ARC
 8
TOOL_0
 5
5F
 10
6934.221
 20
1660.499
 30
0
 40
63.000385776597
 50
135.0
 51
180.0
210
0
220
0
230
1.0
 0
LINE
 8
TOOL_0
 5
60
 10
6871.221
 20
1660.499
 30
0
 11
6871.221
 21
866.999
 31
0
 0
ARC
 8
TOOL_0
 5
61
 10
6836.221
 20
866.999
 30
0
 40
35.0
 50
272.456274664598
 51
0
210
0
220
0
230
1.0
 0
LINE
 8
TOOL_0
 5
62
 10
6837.721
 20
832.031
 30
0
 11
6836.249
 21
829.415
 31
0
 0
LINE
 8
TOOL_0
 5
63
 10
6836.249
 20
829.415
 30
0
 11
6831.216
 21
828.418
 31
0
 0
LINE
 8
TOOL_0
 5
64
 10
6831.216
 20
828.418
 30
0
 11
420.551
 21
1541.482
 31
0
 0
LINE
 8
TOOL_0
 5
65
 10
420.551
 20
1541.482
 30
0
 11
449.998
 21
1540.83
 31
0
 0
LINE
 8
TOOL_0
 5
66
 10
449.998
 20
1540.83
 30
0
 11
449.998
 21
1605.83
 31
0
 0
ARC
 8
TOOL_0
 5
67
 10
414.998
 20
1605.83
 30
0
 40
35.0
 50
0
 51
90.0
210
0
220
0
230
1.0
 0
LINE
 8
TOOL_0
 5
68
 10
414.998
 20
1640.83
 30
0
 11
189.998
 21
1640.83
 31
0
 0
ARC
 8
TOOL_0
 5
69
 10
189.998
 20
1605.83
 30
0
 40
35.0
 50
90.0
 51
180.0
210
0
220
0
230
1.0
 0
LINE
 8
TOOL_0
 5
6A
 10
154.998
 20
1605.83
 30
0
 11
154.998
 21
1475.83
 31
0
 0
ARC
 8
TOOL_0
 5
6B
 10
189.998
 20
1475.83
 30
0
 40
35.0
 50
180.0
 51
270.0
210
0
220
0
230
1.0
 0
LINE
 8
TOOL_0
 5
6C
 10
189.998
 20
1440.83
 30
0
 11
414.998
 21
1440.83
 31
0
 0
ARC
 8
TOOL_0
 5
6D
 10
414.998
 20
1475.83
 30
0
 40
35.0
 50
270.0
 51
0
210
0
220
0
230
1.0
 0
LINE
 8
TOOL_0
 5
6E
 10
449.998
 20
1475.83
 30
0
 11
449.998
 21
1540.83
 31
0
 0
LINE
 8
TOOL_0
 5
6F
 10
449.998
 20
1540.83
 30
0
 11
447.801
 21
1545.415
 31
0
 0
LINE
 8
TOOL_0
 5
70
 10
447.801
 20
1545.415
 30
0
 11
420.651
 21
1150.672
 31
0
 0
LINE
 8
TOOL_0
 5
71
 10
420.651
 20
1150.672
 30
0
 11
449.998
 21
1150.83
 31
0
 0
LINE
 8
TOOL_0
 5
72
 10
449.998
 20
1150.83
 30
0
 11
449.998
 21
1215.83
 31
0
 0
ARC
 8
TOOL_0
 5
73
 10
414.998
 20
1215.83
 30
0
 40
35.0
 50
0
 51
90.0
210
0
220
0
230
1.0
 0
LINE
 8
TOOL_0
 5
74
 10
414.998
 20
1250.83
 30
0
 11
149.998
 21
1250.83
 31
0
 0
ARC
 8
TOOL_0
 5
75
 10
149.998
 20
1215.83
 30
0
 40
35.0
 50
90.0
 51
180.0
210
0
220
0
230
1.0
 0
LINE
 8
TOOL_0
 5
76
 10
114.998
 20
1215.83
 30
0
 11
114.998
 21
1085.83
 31
0
 0
ARC
 8
TOOL_0
 5
77
 10
149.998
 20
1085.83
 30
0
 40
35.0
 50
180.0
 51
270.0
210
0
220
0
230
1.0
 0
LINE
 8
TOOL_0
 5
78
 10
149.998
 20
1050.83
 30
0
 11
414.998
 21
1050.83
 31
0
 0
ARC
 8
TOOL_0
 5
79
 10
414.998
 20
1085.83
 30
0
 40
35.0
 50
270.0
 51
0
210
0
220
0
230
1.0
 0
LINE
 8
TOOL_0
 5
7A
 10
449.998
 20
1085.83
 30
0
 11
449.998
 21
1150.83
 31
0
 0
LINE
 8
TOOL_0
 5
7B
 10
449.998
 20
1150.83
 30
0
 11
448.081
 21
1155.435
 31
0
 0
LINE
 8
TOOL_0
 5
7C
 10
448.081
 20
1155.435
 30
0
 11
136.642
 21
764.83
 31
0
 0
LINE
 8
TOOL_0
 5
7D
 10
136.642
 20
764.83
 30
0
 11
105.998
 21
764.83
 31
0
 0
LINE
 8
TOOL_0
 5
7E
 10
105.998
 20
764.83
 30
0
 11
49.584
 21
764.83
 31
0
 0
LINE
 8
TOOL_0
 5
7F
 10
49.584
 20
764.83
 30
0
 11
38.998
 21
775.416
 31
0
 0
LINE
 8
TOOL_0
 5
80
 10
38.998
 20
775.416
 30
0
 11
38.998
 21
897.83
 31
0
 0
ARC
 8
TOOL_0
 5
81
 10
31.998
 20
897.83
 30
0
 40
7.0
 50
0
 51
90.0
210
0
220
0
230
1.0
 0
LINE
 8
TOOL_0
 5
82
 10
31.998
 20
904.83
 30
0
 11
18.998
 21
904.83
 31
0
 0
LINE
 8
TOOL_0
 5
83
 10
18.998
 20
904.83
 30
0
 11
18.998
 21
1446.83
 31
0
 0
LINE
 8
TOOL_0
 5
84
 10
18.998
 20
1446.83
 30
0
 11
31.998
 21
1446.83
 31
0
 0
ARC
 8
TOOL_0
 5
85
 10
31.998
 20
1453.83
 30
0
 40
7.0
 50
270.0
 51
0
210
0
220
0
230
1.0
 0
LINE
 8
TOOL_0
 5
86
 10
38.998
 20
1453.83
 30
0
 11
38.998
 21
1607.83
 31
0
 0
ARC
 8
TOOL_0
 5
87
 10
31.998
 20
1607.83
 30
0
 40
7.0
 50
0
 51
90.0
210
0
220
0
230
1.0
 0
LINE
 8
TOOL_0
 5
88
 10
31.998
 20
1614.83
 30
0
 11
18.998
 21
1614.83
 31
0
 0
LINE
 8
TOOL_0
 5
89
 10
18.998
 20
1614.83
 30
0
 11
18.998
 21
2031.83
 31
0
 0
LINE
 8
TOOL_0
 5
8A
 10
18.998
 20
2031.83
 30
0
 11
26.998
 21
2031.83
 31
0
 0
ARC
 8
TOOL_0
 5
8B
 10
26.998
 20
2038.83
 30
0
 40
7.0
 50
270.0
 51
0
210
0
220
0
230
1.0
 0
LINE
 8
TOOL_0
 5
8C
 10
33.998
 20
2038.83
 30
0
 11
33.998
 21
2217.33
 31
0
 0
LINE
 8
TOOL_0
 5
8D
 10
33.998
 20
2217.33
 30
0
 11
362.491
 21
2217.33
 31
0
 0
LINE
 8
TOOL_0
 5
8E
 10
362.491
 20
2217.33
 30
0
 11
614.998
 21
1562.683
 31
0
 0
LINE
 8
TOOL_0
 5
8F
 10
614.998
 20
1562.683
 30
0
 11
614.998
 21
1089.114
 31
0
 0
ARC
 8
TOOL_0
 5
90
 10
534.998
 20
1089.114
 30
0
 40
80.0
 50
320.389749357743
 51
0
210
0
220
0
230
1.0
 0
LINE
 8
TOOL_0
 5
91
 10
596.63
 20
1038.109
 30
0
 11
370.469
 21
764.831
 31
0
 0
LINE
 8
TOOL_0
 5
92
 10
370.469
 20
764.831
 30
0
 11
263.999
 21
764.831
 31
0
 0
LINE
 8
TOOL_0
 5
93
 10
263.999
 20
764.831
 30
0
 11
263.999
 21
845.831
 31
0
 0
ARC
 8
TOOL_0
 5
94
 10
214.999
 20
845.831
 30
0
 40
49.0
 50
0
 51
90.0
210
0
220
0
230
1.0
 0
LINE
 8
TOOL_0
 5
95
 10
214.999
 20
894.831
 30
0
 11
154.999
 21
894.831
 31
0
 0
ARC
 8
TOOL_0
 5
96
 10
154.999
 20
845.831
 30
0
 40
49.0
 50
90.0
 51
180.0
210
0
220
0
230
1.0
 0
LINE
 8
TOOL_0
 5
97
 10
105.999
 20
845.831
 30
0
 11
105.999
 21
764.831
 31
0
 0
LINE
 8
TOOL_0
 5
98
 10
105.999
 20
764.831
 30
0
 11
105.999
 21
759.525
 31
0
 0
LINE
 8
TOOL_0
 5
99
 10
105.999
 20
759.525
 30
0
 11
916.611
 21
2116.385
 31
0
 0
LINE
 8
TOOL_0
 5
9A
 10
916.611
 20
2116.385
 30
0
 11
945.496
 21
2116.368
 31
0
 0
LINE
 8
TOOL_0
 5
9B
 10
945.496
 20
2116.368
 30
0
 11
945.496
 21
2248.868
 31
0
 0
ARC
 8
TOOL_0
 5
9C
 10
910.496
 20
2248.868
 30
0
 40
35.0
 50
0
 51
90.0
210
0
220
0
230
1.0
 0
LINE
 8
TOOL_0
 5
9D
 10
910.496
 20
2283.868
 30
0
 11
780.496
 21
2283.868
 31
0
 0
ARC
 8
TOOL_0
 5
9E
 10
780.496
 20
2248.868
 30
0
 40
35.0
 50
90.0
 51
180.0
210
0
220
0
230
1.0
 0
LINE
 8
TOOL_0
 5
9F
 10
745.496
 20
2248.868
 30
0
 11
745.496
 21
1983.868
 31
0
 0
ARC
 8
TOOL_0
 5
A0
 10
780.496
 20
1983.868
 30
0
 40
35.0
 50
180.0
 51
270.0
210
0
220
0
230
1.0
 0
LINE
 8
TOOL_0
 5
A1
 10
780.496
 20
1948.868
 30
0
 11
910.496
 21
1948.868
 31
0
 0
ARC
 8
TOOL_0
 5
A2
 10
910.496
 20
1983.868
 30
0
 40
35.0
 50
270.0
 51
0
210
0
220
0
230
1.0
 0
LINE
 8
TOOL_0
 5
A3
 10
945.496
 20
1983.868
 30
0
 11
945.496
 21
2116.368
 31
0
 0
LINE
 8
TOOL_0
 5
A4
 10
945.496
 20
2116.368
 30
0
 11
943.512
 21
2121.097
 31
0
 0
LINE
 8
TOOL_0
 5
A5
 10
943.512
 20
2121.097
 30
0
 11
1305.868
 21
2095.931
 31
0
 0
LINE
 8
TOOL_0
 5
A6
 10
1305.868
 20
2095.931
 30
0
 11
1335.496
 21
2096.368
 31
0
 0
LINE
 8
TOOL_0
 5
A7
 10
1335.496
 20
2096.368
 30
0
 11
1335.496
 21
2208.868
 31
0
 0
ARC
 8
TOOL_0
 5
A8
 10
1300.496
 20
2208.868
 30
0
 40
35.0
 50
0
 51
90.0
210
0
220
0
230
1.0
 0
LINE
 8
TOOL_0
 5
A9
 10
1300.496
 20
2243.868
 30
0
 11
1170.496
 21
2243.868
 31
0
 0
ARC
 8
TOOL_0
 5
AA
 10
1170.496
 20
2208.868
 30
0
 40
35.0
 50
90.0
 51
180.0
210
0
220
0
230
1.0
 0
LINE
 8
TOOL_0
 5
AB
 10
1135.496
 20
2208.868
 30
0
 11
1135.496
 21
1983.868
 31
0
 0
ARC
 8
TOOL_0
 5
AC
 10
1170.496
 20
1983.868
 30
0
 40
35.0
 50
180.0
 51
270.0
210
0
220
0
230
1.0
 0
LINE
 8
TOOL_0
 5
AD
 10
1170.496
 20
1948.868
 30
0
 11
1300.496
 21
1948.868
 31
0
 0
ARC
 8
TOOL_0
 5
AE
 10
1300.496
 20
1983.868
 30
0
 40
35.0
 50
270.0
 51
0
210
0
220
0
230
1.0
 0
LINE
 8
TOOL_0
 5
AF
 10
1335.496
 20
1983.868
 30
0
 11
1335.496
 21
2096.368
 31
0
 0
LINE
 8
TOOL_0
 5
B0
 10
1335.496
 20
2096.368
 30
0
 11
1333.312
 21
2100.969
 31
0
 0
LINE
 8
TOOL_0
 5
B1
 10
1333.312
 20
2100.969
 30
0
 11
459.496
 21
2263.599
 31
0
 0
LINE
 8
TOOL_0
 5
B2
 10
459.496
 20
2263.599
 30
0
 11
459.496
 21
2292.868
 31
0
 0
LINE
 8
TOOL_0
 5
B3
 10
459.496
 20
2292.868
 30
0
 11
459.496
 21
2349.282
 31
0
 0
LINE
 8
TOOL_0
 5
B4
 10
459.496
 20
2349.282
 30
0
 11
470.082
 21
2359.868
 31
0
 0
LINE
 8
TOOL_0
 5
B5
 10
470.082
 20
2359.868
 30
0
 11
592.496
 21
2359.868
 31
0
 0
ARC
 8
TOOL_0
 5
B6
 10
592.496
 20
2366.868
 30
0
 40
7.0
 50
270.0
 51
0
210
0
220
0
230
1.0
 0
LINE
 8
TOOL_0
 5
B7
 10
599.496
 20
2366.868
 30
0
 11
599.496
 21
2379.868
 31
0
 0
LINE
 8
TOOL_0
 5
B8
 10
599.496
 20
2379.868
 30
0
 11
1141.496
 21
2379.868
 31
0
 0
LINE
 8
TOOL_0
 5
B9
 10
1141.496
 20
2379.868
 30
0
 11
1141.496
 21
2366.868
 31
0
 0
ARC
 8
TOOL_0
 5
BA
 10
1148.496
 20
2366.868
 30
0
 40
7.0
 50
180.0
 51
270.0
210
0
220
0
230
1.0
 0
LINE
 8
TOOL_0
 5
BB
 10
1148.496
 20
2359.868
 30
0
 11
1302.496
 21
2359.868
 31
0
 0
ARC
 8
TOOL_0
 5
BC
 10
1302.496
 20
2366.868
 30
0
 40
7.0
 50
270.0
 51
0
210
0
220
0
230
1.0
 0
LINE
 8
TOOL_0
 5
BD
 10
1309.496
 20
2366.868
 30
0
 11
1309.496
 21
2379.868
 31
0
 0
LINE
 8
TOOL_0
 5
BE
 10
1309.496
 20
2379.868
 30
0
 11
1726.496
 21
2379.868
 31
0
 0
LINE
 8
TOOL_0
 5
BF
 10
1726.496
 20
2379.868
 30
0
 11
1726.496
 21
2371.868
 31
0
 0
ARC
 8
TOOL_0
 5
C0
 10
1733.496
 20
2371.868
 30
0
 40
7.0
 50
180.0
 51
270.0
210
0
220
0
230
1.0
 0
LINE
 8
TOOL_0
 5
C1
 10
1733.496
 20
2364.868
 30
0
 11
1911.996
 21
2364.868
 31
0
 0
LINE
 8
TOOL_0
 5
C2
 10
1911.996
 20
2364.868
 30
0
 11
1911.996
 21
2036.375
 31
0
 0
LINE
 8
TOOL_0
 5
C3
 10
1911.996
 20
2036.375
 30
0
 11
1257.349
 21
1783.868
 31
0
 0
LINE
 8
TOOL_0
 5
C4
 10
1257.349
 20
1783.868
 30
0
 11
783.78
 21
1783.868
 31
0
 0
ARC
 8
TOOL_0
 5
C5
 10
783.78
 20
1863.868
 30
0
 40
80.0
 50
230.388740979326
 51
270.0
210
0
220
0
230
1.0
 0
LINE
 8
TOOL_0
 5
C6
 10
732.774
 20
1802.237
 30
0
 11
459.496
 21
2028.398
 31
0
 0
LINE
 8
TOOL_0
 5
C7
 10
459.496
 20
2028.398
 30
0
 11
459.496
 21
2134.868
 31
0
 0
LINE
 8
TOOL_0
 5
C8
 10
459.496
 20
2134.868
 30
0
 11
540.496
 21
2134.868
 31
0
 0
ARC
 8
TOOL_0
 5
C9
 10
540.496
 20
2183.868
 30
0
 40
49.0
 50
270.0
 51
0
210
0
220
0
230
1.0
 0
LINE
 8
TOOL_0
 5
CA
 10
589.496
 20
2183.868
 30
0
 11
589.496
 21
2243.868
 31
0
 0
ARC
 8
TOOL_0
 5
CB
 10
540.496
 20
2243.868
 30
0
 40
49.0
 50
0
 51
90.0
210
0
220
0
230
1.0
 0
LINE
 8
TOOL_0
 5
CC
 10
540.496
 20
2292.868
 30
0
 11
459.496
 21
2292.868
 31
0
 0
LINE
 8
TOOL_0
 5
CD
 10
459.496
 20
2292.868
 30
0
 11
454.798
 21
2292.868
 31
0
 0
LINE
 8
TOOL_0
 5
CE
 10
454.798
 20
2292.868
 30
0
 11
2469.245
 21
1869.552
 31
0
 0
LINE
 8
TOOL_0
 5
CF
 10
2469.245
 20
1869.552
 30
0
 11
2499.423
 21
1869.864
 31
0
 0
LINE
 8
TOOL_0
 5
D0
 10
2499.423
 20
1869.864
 30
0
 11
2499.423
 21
1982.364
 31
0
 0
ARC
 8
TOOL_0
 5
D1
 10
2464.423
 20
1982.364
 30
0
 40
35.0
 50
0
 51
90.0
210
0
220
0
230
1.0
 0
LINE
 8
TOOL_0
 5
D2
 10
2464.423
 20
2017.364
 30
0
 11
2334.423
 21
2017.364
 31
0
 0
ARC
 8
TOOL_0
 5
D3
 10
2334.423
 20
1982.364
 30
0
 40
35.0
 50
90.0
 51
180.0
210
0
220
0
230
1.0
 0
LINE
 8
TOOL_0
 5
D4
 10
2299.423
 20
1982.364
 30
0
 11
2299.423
 21
1757.364
 31
0
 0
ARC
 8
TOOL_0
 5
D5
 10
2334.423
 20
1757.364
 30
0
 40
35.0
 50
180.0
 51
270.0
210
0
220
0
230
1.0
 0
LINE
 8
TOOL_0
 5
D6
 10
2334.423
 20
1722.364
 30
0
 11
2464.423
 21
1722.364
 31
0
 0
ARC
 8
TOOL_0
 5
D7
 10
2464.423
 20
1757.364
 30
0
 40
35.0
 50
270.0
 51
0
210
0
220
0
230
1.0
 0
LINE
 8
TOOL_0
 5
D8
 10
2499.423
 20
1757.364
 30
0
 11
2499.423
 21
1869.864
 31
0
 0
LINE
 8
TOOL_0
 5
D9
 10
2499.423
 20
1869.864
 30
0
 11
2497.171
 21
1874.988
 31
0
 0
LINE
 8
TOOL_0
 5
DA
 10
2497.171
 20
1874.988
 30
0
 11
2854.423
 21
1849.864
 31
0
 0
LINE
 8
TOOL_0
 5
DB
 10
2854.423
 20
1849.864
 30
0
 11
2889.423
 21
1849.864
 31
0
 0
LINE
 8
TOOL_0
 5
DC
 10
2889.423
 20
1849.864
 30
0
 11
2889.423
 21
1982.364
 31
0
 0
ARC
 8
TOOL_0
 5
DD
 10
2854.423
 20
1982.364
 30
0
 40
35.0
 50
0
 51
90.0
210
0
220
0
230
1.0
 0
LINE
 8
TOOL_0
 5
DE
 10
2854.423
 20
2017.364
 30
0
 11
2724.423
 21
2017.364
 31
0
 0
ARC
 8
TOOL_0
 5
DF
 10
2724.423
 20
1982.364
 30
0
 40
35.0
 50
90.0
 51
180.0
210
0
220
0
230
1.0
 0
LINE
 8
TOOL_0
 5
E0
 10
2689.423
 20
1982.364
 30
0
 11
2689.423
 21
1717.364
 31
0
 0
ARC
 8
TOOL_0
 5
E1
 10
2724.423
 20
1717.364
 30
0
 40
35.0
 50
180.0
 51
270.0
210
0
220
0
230
1.0
 0
LINE
 8
TOOL_0
 5
E2
 10
2724.423
 20
1682.364
 30
0
 11
2854.423
 21
1682.364
 31
0
 0
ARC
 8
TOOL_0
 5
E3
 10
2854.423
 20
1717.364
 30
0
 40
35.0
 50
270.0
 51
0
210
0
220
0
230
1.0
 0
LINE
 8
TOOL_0
 5
E4
 10
2889.423
 20
1717.364
 30
0
 11
2889.423
 21
1849.864
 31
0
 0
LINE
 8
TOOL_0
 5
E5
 10
2889.423
 20
1849.864
 30
0
 11
2878.816
 21
1860.471
 31
0
 0
LINE
 8
TOOL_0
 5
E6
 10
2878.816
 20
1860.471
 30
0
 11
3175.423
 21
1703.984
 31
0
 0
LINE
 8
TOOL_0
 5
E7
 10
3175.423
 20
1703.984
 30
0
 11
3175.423
 21
1673.364
 31
0
 0
LINE
 8
TOOL_0
 5
E8
 10
3175.423
 20
1673.364
 30
0
 11
3175.423
 21
1616.95
 31
0
 0
LINE
 8
TOOL_0
 5
E9
 10
3175.423
 20
1616.95
 30
0
 11
3164.837
 21
1606.364
 31
0
 0
LINE
 8
TOOL_0
 5
EA
 10
3164.837
 20
1606.364
 30
0
 11
3042.423
 21
1606.364
 31
0
 0
ARC
 8
TOOL_0
 5
EB
 10
3042.423
 20
1599.364
 30
0
 40
7.0
 50
90.0
 51
180.0
210
0
220
0
230
1.0
 0
LINE
 8
TOOL_0
 5
EC
 10
3035.423
 20
1599.364
 30
0
 11
3035.423
 21
1586.364
 31
0
 0
LINE
 8
TOOL_0
 5
ED
 10
3035.423
 20
1586.364
 30
0
 11
2493.423
 21
1586.364
 31
0
 0
LINE
 8
TOOL_0
 5
EE
 10
2493.423
 20
1586.364
 30
0
 11
2493.423
 21
1599.364
 31
0
 0
ARC
 8
TOOL_0
 5
EF
 10
2486.423
 20
1599.364
 30
0
 40
7.0
 50
0
 51
90.0
210
0
220
0
230
1.0
 0
LINE
 8
TOOL_0
 5
F0
 10
2486.423
 20
1606.364
 30
0
 11
2332.423
 21
1606.364
 31
0
 0
ARC
 8
TOOL_0
 5
F1
 10
2332.423
 20
1599.364
 30
0
 40
7.0
 50
90.0
 51
180.0
210
0
220
0
230
1.0
 0
LINE
 8
TOOL_0
 5
F2
 10
2325.423
 20
1599.364
 30
0
 11
2325.423
 21
1586.364
 31
0
 0
LINE
 8
TOOL_0
 5
F3
 10
2325.423
 20
1586.364
 30
0
 11
1908.423
 21
1586.364
 31
0
 0
LINE
 8
TOOL_0
 5
F4
 10
1908.423
 20
1586.364
 30
0
 11
1908.423
 21
1594.364
 31
0
 0
ARC
 8
TOOL_0
 5
F5
 10
1901.423
 20
1594.364
 30
0
 40
7.0
 50
0
 51
90.0
210
0
220
0
230
1.0
 0
LINE
 8
TOOL_0
 5
F6
 10
1901.423
 20
1601.364
 30
0
 11
1722.923
 21
1601.364
 31
0
 0
LINE
 8
TOOL_0
 5
F7
 10
1722.923
 20
1601.364
 30
0
 11
1722.923
 21
1929.857
 31
0
 0
LINE
 8
TOOL_0
 5
F8
 10
1722.923
 20
1929.857
 30
0
 11
2377.57
 21
2182.364
 31
0
 0
LINE
 8
TOOL_0
 5
F9
 10
2377.57
 20
2182.364
 30
0
 11
2851.139
 21
2182.364
 31
0
 0
ARC
 8
TOOL_0
 5
FA
 10
2851.139
 20
2102.364
 30
0
 40
80.0
 50
50.389749357743
 51
90.0
210
0
220
0
230
1.0
 0
LINE
 8
TOOL_0
 5
FB
 10
2902.144
 20
2163.996
 30
0
 11
3175.422
 21
1937.835
 31
0
 0
LINE
 8
TOOL_0
 5
FC
 10
3175.422
 20
1937.835
 30
0
 11
3175.422
 21
1831.365
 31
0
 0
LINE
 8
TOOL_0
 5
FD
 10
3175.422
 20
1831.365
 30
0
 11
3094.422
 21
1831.365
 31
0
 0
ARC
 8
TOOL_0
 5
FE
 10
3094.422
 20
1782.365
 30
0
 40
49.0
 50
90.0
 51
180.0
210
0
220
0
230
1.0
 0
LINE
 8
TOOL_0
 5
FF
 10
3045.422
 20
1782.365
 30
0
 11
3045.422
 21
1722.365
 31
0
 0
ARC
 8
TOOL_0
 5
100
 10
3094.422
 20
1722.365
 30
0
 40
49.0
 50
180.0
 51
270.0
210
0
220
0
230
1.0
 0
LINE
 8
TOOL_0
 5
101
 10
3094.422
 20
1673.365
 30
0
 11
3175.422
 21
1673.365
 31
0
 0
LINE
 8
TOOL_0
 5
102
 10
3175.422
 20
1673.365
 30
0
 11
3180.795
 21
1673.365
 31
0
 0
LINE
 8
TOOL_0
 5
103
 10
3180.795
 20
1673.365
 30
0
 11
4785.988
 21
531.611
 31
0
 0
LINE
 8
TOOL_0
 5
104
 10
4785.988
 20
531.611
 30
0
 11
4814.873
 21
531.594
 31
0
 0
LINE
 8
TOOL_0
 5
105
 10
4814.873
 20
531.594
 30
0
 11
4814.873
 21
664.094
 31
0
 0
ARC
 8
TOOL_0
 5
106
 10
4779.873
 20
664.094
 30
0
 40
35.0
 50
0
 51
90.0
210
0
220
0
230
1.0
 0
LINE
 8
TOOL_0
 5
107
 10
4779.873
 20
699.094
 30
0
 11
4649.873
 21
699.094
 31
0
 0
ARC
 8
TOOL_0
 5
108
 10
4649.873
 20
664.094
 30
0
 40
35.0
 50
90.0
 51
180.0
210
0
220
0
230
1.0
 0
LINE
 8
TOOL_0
 5
109
 10
4614.873
 20
664.094
 30
0
 11
4614.873
 21
399.094
 31
0
 0
ARC
 8
TOOL_0
 5
10A
 10
4649.873
 20
399.094
 30
0
 40
35.0
 50
180.0
 51
270.0
210
0
220
0
230
1.0
 0
LINE
 8
TOOL_0
 5
10B
 10
4649.873
 20
364.094
 30
0
 11
4779.873
 21
364.094
 31
0
 0
ARC
 8
TOOL_0
 5
10C
 10
4779.873
 20
399.094
 30
0
 40
35.0
 50
270.0
 51
0
210
0
220
0
230
1.0
 0
LINE
 8
TOOL_0
 5
10D
 10
4814.873
 20
399.094
 30
0
 11
4814.873
 21
531.594
 31
0
 0
LINE
 8
TOOL_0
 5
10E
 10
4814.873
 20
531.594
 30
0
 11
4812.889
 21
536.323
 31
0
 0
LINE
 8
TOOL_0
 5
10F
 10
4812.889
 20
536.323
 30
0
 11
5175.245
 21
511.157
 31
0
 0
LINE
 8
TOOL_0
 5
110
 10
5175.245
 20
511.157
 30
0
 11
5204.873
 21
511.594
 31
0
 0
LINE
 8
TOOL_0
 5
111
 10
5204.873
 20
511.594
 30
0
 11
5204.873
 21
624.094
 31
0
 0
ARC
 8
TOOL_0
 5
112
 10
5169.873
 20
624.094
 30
0
 40
35.0
 50
0
 51
90.0
210
0
220
0
230
1.0
 0
LINE
 8
TOOL_0
 5
113
 10
5169.873
 20
659.094
 30
0
 11
5039.873
 21
659.094
 31
0
 0
ARC
 8
TOOL_0
 5
114
 10
5039.873
 20
624.094
 30
0
 40
35.0
 50
90.0
 51
180.0
210
0
220
0
230
1.0
 0
LINE
 8
TOOL_0
 5
115
 10
5004.873
 20
624.094
 30
0
 11
5004.873
 21
399.094
 31
0
 0
ARC
 8
TOOL_0
 5
116
 10
5039.873
 20
399.094
 30
0
 40
35.0
 50
180.0
 51
270.0
210
0
220
0
230
1.0
 0
LINE
 8
TOOL_0
 5
117
 10
5039.873
 20
364.094
 30
0
 11
5169.873
 21
364.094
 31
0
 0
ARC
 8
TOOL_0
 5
118
 10
5169.873
 20
399.094
 30
0
 40
35.0
 50
270.0
 51
0
210
0
220
0
230
1.0
 0
LINE
 8
TOOL_0
 5
119
 10
5204.873
 20
399.094
 30
0
 11
5204.873
 21
511.594
 31
0
 0
LINE
 8
TOOL_0
 5
11A
 10
5204.873
 20
511.594
 30
0
 11
5202.689
 21
516.195
 31
0
 0
LINE
 8
TOOL_0
 5
11B
 10
5202.689
 20
516.195
 30
0
 11
4328.873
 21
678.825
 31
0
 0
LINE
 8
TOOL_0
 5
11C
 10
4328.873
 20
678.825
 30
0
 11
4328.873
 21
708.094
 31
0
 0
LINE
 8
TOOL_0
 5
11D
 10
4328.873
 20
708.094
 30
0
 11
4328.873
 21
764.508
 31
0
 0
LINE
 8
TOOL_0
 5
11E
 10
4328.873
 20
764.508
 30
0
 11
4339.459
 21
775.094
 31
0
 0
LINE
 8
TOOL_0
 5
11F
 10
4339.459
 20
775.094
 30
0
 11
4461.873
 21
775.094
 31
0
 0
ARC
 8
TOOL_0
 5
120
 10
4461.873
 20
782.094
 30
0
 40
7.0
 50
270.0
 51
0
210
0
220
0
230
1.0
 0
LINE
 8
TOOL_0
 5
121
 10
4468.873
 20
782.094
 30
0
 11
4468.873
 21
795.094
 31
0
 0
LINE
 8
TOOL_0
 5
122
 10
4468.873
 20
795.094
 30
0
 11
5010.873
 21
795.094
 31
0
 0
LINE
 8
TOOL_0
 5
123
 10
5010.873
 20
795.094
 30
0
 11
5010.873
 21
782.094
 31
0
 0
ARC
 8
TOOL_0
 5
124
 10
5017.873
 20
782.094
 30
0
 40
7.0
 50
180.0
 51
270.0
210
0
220
0
230
1.0
 0
LINE
 8
TOOL_0
 5
125
 10
5017.873
 20
775.094
 30
0
 11
5171.873
 21
775.094
 31
0
 0
ARC
 8
TOOL_0
 5
126
 10
5171.873
 20
782.094
 30
0
 40
7.0
 50
270.0
 51
0
210
0
220
0
230
1.0
 0
LINE
 8
TOOL_0
 5
127
 10
5178.873
 20
782.094
 30
0
 11
5178.873
 21
795.094
 31
0
 0
LINE
 8
TOOL_0
 5
128
 10
5178.873
 20
795.094
 30
0
 11
5595.873
 21
795.094
 31
0
 0
LINE
 8
TOOL_0
 5
129
 10
5595.873
 20
795.094
 30
0
 11
5595.873
 21
787.094
 31
0
 0
ARC
 8
TOOL_0
 5
12A
 10
5602.873
 20
787.094
 30
0
 40
7.0
 50
180.0
 51
270.0
210
0
220
0
230
1.0
 0
LINE
 8
TOOL_0
 5
12B
 10
5602.873
 20
780.094
 30
0
 11
5781.373
 21
780.094
 31
0
 0
LINE
 8
TOOL_0
 5
12C
 10
5781.373
 20
780.094
 30
0
 11
5781.373
 21
451.601
 31
0
 0
LINE
 8
TOOL_0
 5
12D
 10
5781.373
 20
451.601
 30
0
 11
5126.726
 21
199.094
 31
0
 0
LINE
 8
TOOL_0
 5
12E
 10
5126.726
 20
199.094
 30
0
 11
4653.157
 21
199.094
 31
0
 0
ARC
 8
TOOL_0
 5
12F
 10
4653.157
 20
279.094
 30
0
 40
80.0
 50
230.388740979326
 51
270.0
210
0
220
0
230
1.0
 0
LINE
 8
TOOL_0
 5
130
 10
4602.151
 20
217.463
 30
0
 11
4328.873
 21
443.624
 31
0
 0
LINE
 8
TOOL_0
 5
131
 10
4328.873
 20
443.624
 30
0
 11
4328.873
 21
550.094
 31
0
 0
LINE
 8
TOOL_0
 5
132
 10
4328.873
 20
550.094
 30
0
 11
4409.873
 21
550.094
 31
0
 0
ARC
 8
TOOL_0
 5
133
 10
4409.873
 20
599.094
 30
0
 40
49.0
 50
270.0
 51
0
210
0
220
0
230
1.0
 0
LINE
 8
TOOL_0
 5
134
 10
4458.873
 20
599.094
 30
0
 11
4458.873
 21
659.094
 31
0
 0
ARC
 8
TOOL_0
 5
135
 10
4409.873
 20
659.094
 30
0
 40
49.0
 50
0
 51
90.0
210
0
220
0
230
1.0
 0
LINE
 8
TOOL_0
 5
136
 10
4409.873
 20
708.094
 30
0
 11
4328.873
 21
708.094
 31
0
 0
LINE
 8
TOOL_0
 5
137
 10
4328.873
 20
708.094
 30
0
 11
4324.175
 21
708.094
 31
0
 0
LINE
 8
TOOL_0
 5
138
 10
4324.175
 20
708.094
 30
0
 11
6346.79
 21
302.19
 31
0
 0
LINE
 8
TOOL_0
 5
139
 10
6346.79
 20
302.19
 30
0
 11
6376.968
 21
302.502
 31
0
 0
LINE
 8
TOOL_0
 5
13A
 10
6376.968
 20
302.502
 30
0
 11
6376.968
 21
415.002
 31
0
 0
ARC
 8
TOOL_0
 5
13B
 10
6341.968
 20
415.002
 30
0
 40
35.0
 50
0
 51
90.0
210
0
220
0
230
1.0
 0
LINE
 8
TOOL_0
 5
13C
 10
6341.968
 20
450.002
 30
0
 11
6211.968
 21
450.002
 31
0
 0
ARC
 8
TOOL_0
 5
13D
 10
6211.968
 20
415.002
 30
0
 40
35.0
 50
90.0
 51
180.0
210
0
220
0
230
1.0
 0
LINE
 8
TOOL_0
 5
13E
 10
6176.968
 20
415.002
 30
0
 11
6176.968
 21
190.002
 31
0
 0
ARC
 8
TOOL_0
 5
13F
 10
6211.968
 20
190.002
 30
0
 40
35.0
 50
180.0
 51
270.0
210
0
220
0
230
1.0
 0
LINE
 8
TOOL_0
 5
140
 10
6211.968
 20
155.002
 30
0
 11
6341.968
 21
155.002
 31
0
 0
ARC
 8
TOOL_0
 5
141
 10
6341.968
 20
190.002
 30
0
 40
35.0
 50
270.0
 51
0
210
0
220
0
230
1.0
 0
LINE
 8
TOOL_0
 5
142
 10
6376.968
 20
190.002
 30
0
 11
6376.968
 21
302.502
 31
0
 0
LINE
 8
TOOL_0
 5
143
 10
6376.968
 20
302.502
 30
0
 11
6374.716
 21
307.626
 31
0
 0
LINE
 8
TOOL_0
 5
144
 10
6374.716
 20
307.626
 30
0
 11
6731.968
 21
282.502
 31
0
 0
LINE
 8
TOOL_0
 5
145
 10
6731.968
 20
282.502
 30
0
 11
6766.968
 21
282.502
 31
0
 0
LINE
 8
TOOL_0
 5
146
 10
6766.968
 20
282.502
 30
0
 11
6766.968
 21
415.002
 31
0
 0
ARC
 8
TOOL_0
 5
147
 10
6731.968
 20
415.002
 30
0
 40
35.0
 50
0
 51
90.0
210
0
220
0
230
1.0
 0
LINE
 8
TOOL_0
 5
148
 10
6731.968
 20
450.002
 30
0
 11
6601.968
 21
450.002
 31
0
 0
ARC
 8
TOOL_0
 5
149
 10
6601.968
 20
415.002
 30
0
 40
35.0
 50
90.0
 51
180.0
210
0
220
0
230
1.0
 0
LINE
 8
TOOL_0
 5
14A
 10
6566.968
 20
415.002
 30
0
 11
6566.968
 21
150.002
 31
0
 0
ARC
 8
TOOL_0
 5
14B
 10
6601.968
 20
150.002
 30
0
 40
35.0
 50
180.0
 51
270.0
210
0
220
0
230
1.0
 0
LINE
 8
TOOL_0
 5
14C
 10
6601.968
 20
115.002
 30
0
 11
6731.968
 21
115.002
 31
0
 0
ARC
 8
TOOL_0
 5
14D
 10
6731.968
 20
150.002
 30
0
 40
35.0
 50
270.0
 51
0
210
0
220
0
230
1.0
 0
LINE
 8
TOOL_0
 5
14E
 10
6766.968
 20
150.002
 30
0
 11
6766.968
 21
282.502
 31
0
 0
LINE
 8
TOOL_0
 5
14F
 10
6766.968
 20
282.502
 30
0
 11
6756.361
 21
293.109
 31
0
 0
LINE
 8
TOOL_0
 5
150
 10
6756.361
 20
293.109
 30
0
 11
7052.968
 21
136.622
 31
0
 0
LINE
 8
TOOL_0
 5
151
 10
7052.968
 20
136.622
 30
0
 11
7052.968
 21
106.002
 31
0
 0
LINE
 8
TOOL_0
 5
152
 10
7052.968
 20
106.002
 30
0
 11
7052.968
 21
49.588
 31
0
 0
LINE
 8
TOOL_0
 5
153
 10
7052.968
 20
49.588
 30
0
 11
7042.382
 21
39.002
 31
0
 0
LINE
 8
TOOL_0
 5
154
 10
7042.382
 20
39.002
 30
0
 11
6919.968
 21
39.002
 31
0
 0
ARC
 8
TOOL_0
 5
155
 10
6919.968
 20
32.002
 30
0
 40
7.0
 50
90.0
 51
180.0
210
0
220
0
230
1.0
 0
LINE
 8
TOOL_0
 5
156
 10
6912.968
 20
32.002
 30
0
 11
6912.968
 21
19.002
 31
0
 0
LINE
 8
TOOL_0
 5
157
 10
6912.968
 20
19.002
 30
0
 11
6370.968
 21
19.002
 31
0
 0
LINE
 8
TOOL_0
 5
158
 10
6370.968
 20
19.002
 30
0
 11
6370.968
 21
32.002
 31
0
 0
ARC
 8
TOOL_0
 5
159
 10
6363.968
 20
32.002
 30
0
 40
7.0
 50
0
 51
90.0
210
0
220
0
230
1.0
 0
LINE
 8
TOOL_0
 5
15A
 10
6363.968
 20
39.002
 30
0
 11
6209.968
 21
39.002
 31
0
 0
ARC
 8
TOOL_0
 5
15B
 10
6209.968
 20
32.002
 30
0
 40
7.0
 50
90.0
 51
180.0
210
0
220
0
230
1.0
 0
LINE
 8
TOOL_0
 5
15C
 10
6202.968
 20
32.002
 30
0
 11
6202.968
 21
19.002
 31
0
 0
LINE
 8
TOOL_0
 5
15D
 10
6202.968
 20
19.002
 30
0
 11
5785.968
 21
19.002
 31
0
 0
LINE
 8
TOOL_0
 5
15E
 10
5785.968
 20
19.002
 30
0
 11
5785.968
 21
27.002
 31
0
 0
ARC
 8
TOOL_0
 5
15F
 10
5778.968
 20
27.002
 30
0
 40
7.0
 50
0
 51
90.0
210
0
220
0
230
1.0
 0
LINE
 8
TOOL_0
 5
160
 10
5778.968
 20
34.002
 30
0
 11
5600.468
 21
34.002
 31
0
 0
LINE
 8
TOOL_0
 5
161
 10
5600.468
 20
34.002
 30
0
 11
5600.468
 21
362.495
 31
0
 0
LINE
 8
TOOL_0
 5
162
 10
5600.468
 20
362.495
 30
0
 11
6255.115
 21
615.002
 31
0
 0
LINE
 8
TOOL_0
 5
163
 10
6255.115
 20
615.002
 30
0
 11
6728.684
 21
615.002
 31
0
 0
ARC
 8
TOOL_0
 5
164
 10
6728.684
 20
535.002
 30
0
 40
80.0
 50
50.389749357743
 51
90.0
210
0
220
0
230
1.0
 0
LINE
 8
TOOL_0
 5
165
 10
6779.689
 20
596.634
 30
0
 11
7052.967
 21
370.473
 31
0
 0
LINE
 8
TOOL_0
 5
166
 10
7052.967
 20
370.473
 30
0
 11
7052.967
 21
264.003
 31
0
 0
LINE
 8
TOOL_0
 5
167
 10
7052.967
 20
264.003
 30
0
 11
6971.967
 21
264.003
 31
0
 0
ARC
 8
TOOL_0
 5
168
 10
6971.967
 20
215.003
 30
0
 40
49.0
 50
90.0
 51
180.0
210
0
220
0
230
1.0
 0
LINE
 8
TOOL_0
 5
169
 10
6922.967
 20
215.003
 30
0
 11
6922.967
 21
155.003
 31
0
 0
ARC
 8
TOOL_0
 5
16A
 10
6971.967
 20
155.003
 30
0
 40
49.0
 50
180.0
 51
270.0
210
0
220
0
230
1.0
 0
LINE
 8
TOOL_0
 5
16B
 10
6971.967
 20
106.003
 30
0
 11
7052.967
 21
106.003
 31
0
 0
LINE
 8
TOOL_0
 5
16C
 10
7052.967
 20
106.003
 30
0
 11
7058.34
 21
106.003
 31
0
 0
LINE
 8
TOOL_0
 5
16D
 10
7058.34
 20
106.003
 30
0
 11
7349.746
 21
1335.417
 31
0
 0
LINE
 8
TOOL_0
 5
16E
 10
7349.746
 20
1335.417
 30
0
 11
7384.746
 21
1335.417
 31
0
 0
LINE
 8
TOOL_0
 5
16F
 10
7384.746
 20
1335.417
 30
0
 11
7384.746
 21
1400.417
 31
0
 0
ARC
 8
TOOL_0
 5
170
 10
7349.746
 20
1400.417
 30
0
 40
35.0
 50
0
 51
90.0
210
0
220
0
230
1.0
 0
LINE
 8
TOOL_0
 5
171
 10
7349.746
 20
1435.417
 30
0
 11
7084.746
 21
1435.417
 31
0
 0
ARC
 8
TOOL_0
 5
172
 10
7084.746
 20
1400.417
 30
0
 40
35.0
 50
90.0
 51
180.0
210
0
220
0
230
1.0
 0
LINE
 8
TOOL_0
 5
173
 10
7049.746
 20
1400.417
 30
0
 11
7049.746
 21
1270.417
 31
0
 0
ARC
 8
TOOL_0
 5
174
 10
7084.746
 20
1270.417
 30
0
 40
35.0
 50
180.0
 51
270.0
210
0
220
0
230
1.0
 0
LINE
 8
TOOL_0
 5
175
 10
7084.746
 20
1235.417
 30
0
 11
7349.746
 21
1235.417
 31
0
 0
ARC
 8
TOOL_0
 5
176
 10
7349.746
 20
1270.417
 30
0
 40
35.0
 50
270.0
 51
0
210
0
220
0
230
1.0
 0
LINE
 8
TOOL_0
 5
177
 10
7384.746
 20
1270.417
 30
0
 11
7384.746
 21
1335.417
 31
0
 0
LINE
 8
TOOL_0
 5
178
 10
7384.746
 20
1335.417
 30
0
 11
7374.139
 21
1346.024
 31
0
 0
LINE
 8
TOOL_0
 5
179
 10
7374.139
 20
1346.024
 30
0
 11
7309.746
 21
945.417
 31
0
 0
LINE
 8
TOOL_0
 5
17A
 10
7309.746
 20
945.417
 30
0
 11
7344.746
 21
945.417
 31
0
 0
LINE
 8
TOOL_0
 5
17B
 10
7344.746
 20
945.417
 30
0
 11
7344.746
 21
1010.417
 31
0
 0
ARC
 8
TOOL_0
 5
17C
 10
7309.746
 20
1010.417
 30
0
 40
35.0
 50
0
 51
90.0
210
0
220
0
230
1.0
 0
LINE
 8
TOOL_0
 5
17D
 10
7309.746
 20
1045.417
 30
0
 11
7084.746
 21
1045.417
 31
0
 0
ARC
 8
TOOL_0
 5
17E
 10
7084.746
 20
1010.417
 30
0
 40
35.0
 50
90.0
 51
180.0
210
0
220
0
230
1.0
 0
LINE
 8
TOOL_0
 5
17F
 10
7049.746
 20
1010.417
 30
0
 11
7049.746
 21
880.417
 31
0
 0
ARC
 8
TOOL_0
 5
180
 10
7084.746
 20
880.417
 30
0
 40
35.0
 50
180.0
 51
270.0
210
0
220
0
230
1.0
 0
LINE
 8
TOOL_0
 5
181
 10
7084.746
 20
845.417
 30
0
 11
7309.746
 21
845.417
 31
0
 0
ARC
 8
TOOL_0
 5
182
 10
7309.746
 20
880.417
 30
0
 40
35.0
 50
270.0
 51
0
210
0
220
0
230
1.0
 0
LINE
 8
TOOL_0
 5
183
 10
7344.746
 20
880.417
 30
0
 11
7344.746
 21
945.417
 31
0
 0
LINE
 8
TOOL_0
 5
184
 10
7344.746
 20
945.417
 30
0
 11
7334.139
 21
956.024
 31
0
 0
LINE
 8
TOOL_0
 5
185
 10
7334.139
 20
956.024
 30
0
 11
7364.51
 21
1721.417
 31
0
 0
LINE
 8
TOOL_0
 5
186
 10
7364.51
 20
1721.417
 30
0
 11
7393.746
 21
1721.417
 31
0
 0
LINE
 8
TOOL_0
 5
187
 10
7393.746
 20
1721.417
 30
0
 11
7450.16
 21
1721.417
 31
0
 0
LINE
 8
TOOL_0
 5
188
 10
7450.16
 20
1721.417
 30
0
 11
7460.746
 21
1710.831
 31
0
 0
LINE
 8
TOOL_0
 5
189
 10
7460.746
 20
1710.831
 30
0
 11
7460.746
 21
1588.417
 31
0
 0
ARC
 8
TOOL_0
 5
18A
 10
7467.746
 20
1588.417
 30
0
 40
7.0
 50
180.0
 51
270.0
210
0
220
0
230
1.0
 0
LINE
 8
TOOL_0
 5
18B
 10
7467.746
 20
1581.417
 30
0
 11
7480.746
 21
1581.417
 31
0
 0
LINE
 8
TOOL_0
 5
18C
 10
7480.746
 20
1581.417
 30
0
 11
7480.746
 21
1039.417
 31
0
 0
LINE
 8
TOOL_0
 5
18D
 10
7480.746
 20
1039.417
 30
0
 11
7467.746
 21
1039.417
 31
0
 0
ARC
 8
TOOL_0
 5
18E
 10
7467.746
 20
1032.417
 30
0
 40
7.0
 50
90.0
 51
180.0
210
0
220
0
230
1.0
 0
LINE
 8
TOOL_0
 5
18F
 10
7460.746
 20
1032.417
 30
0
 11
7460.746
 21
878.417
 31
0
 0
ARC
 8
TOOL_0
 5
190
 10
7467.746
 20
878.417
 30
0
 40
7.0
 50
180.0
 51
270.0
210
0
220
0
230
1.0
 0
LINE
 8
TOOL_0
 5
191
 10
7467.746
 20
871.417
 30
0
 11
7480.746
 21
871.417
 31
0
 0
LINE
 8
TOOL_0
 5
192
 10
7480.746
 20
871.417
 30
0
 11
7480.746
 21
454.417
 31
0
 0
LINE
 8
TOOL_0
 5
193
 10
7480.746
 20
454.417
 30
0
 11
7472.746
 21
454.417
 31
0
 0
ARC
 8
TOOL_0
 5
194
 10
7472.746
 20
447.417
 30
0
 40
7.0
 50
90.0
 51
180.0
210
0
220
0
230
1.0
 0
LINE
 8
TOOL_0
 5
195
 10
7465.746
 20
447.417
 30
0
 11
7465.746
 21
268.917
 31
0
 0
LINE
 8
TOOL_0
 5
196
 10
7465.746
 20
268.917
 30
0
 11
7137.253
 21
268.917
 31
0
 0
LINE
 8
TOOL_0
 5
197
 10
7137.253
 20
268.917
 30
0
 11
6884.746
 21
923.564
 31
0
 0
LINE
 8
TOOL_0
 5
198
 10
6884.746
 20
923.564
 30
0
 11
6884.746
 21
1397.133
 31
0
 0
ARC
 8
TOOL_0
 5
199
 10
6964.746
 20
1397.133
 30
0
 40
80.0
 50
140.389749357743
 51
180.0
210
0
220
0
230
1.0
 0
LINE
 8
TOOL_0
 5
19A
 10
6903.114
 20
1448.138
 30
0
 11
7129.275
 21
1721.416
 31
0
 0
LINE
 8
TOOL_0
 5
19B
 10
7129.275
 20
1721.416
 30
0
 11
7235.745
 21
1721.416
 31
0
 0
LINE
 8
TOOL_0
 5
19C
 10
7235.745
 20
1721.416
 30
0
 11
7235.745
 21
1640.416
 31
0
 0
ARC
 8
TOOL_0
 5
19D
 10
7284.745
 20
1640.416
 30
0
 40
49.0
 50
180.0
 51
270.0
210
0
220
0
230
1.0
 0
LINE
 8
TOOL_0
 5
19E
 10
7284.745
 20
1591.416
 30
0
 11
7344.745
 21
1591.416
 31
0
 0
ARC
 8
TOOL_0
 5
19F
 10
7344.745
 20
1640.416
 30
0
 40
49.0
 50
270.0
 51
0
210
0
220
0
230
1.0
 0
LINE
 8
TOOL_0
 5
1A0
 10
7393.745
 20
1640.416
 30
0
 11
7393.745
 21
1721.416
 31
0
 0
LINE
 8
TOOL_0
 5
1A1
 10
7393.745
 20
1721.416
 30
0
 11
7393.745
 21
1726.503
 31
0
 0
ENDSEC
 0
EOF

