0
SECTION
2
TABLES
0
TABLE
2
LAYER
70
0
0
LAYER
2
LAYER_NAME
70
0
62
1
6
CONTINUOUS
0
ENDTAB
0
ENDSEC
 0
SECTION
 2
ENTITIES
 0
LINE
 8
TOOL_0
 5
1
 10
1096.003
 20
1466.464
 30
0
 11
1126.0
 21
1465.501
 31
0
 0
ARC
 8
TOOL_0
 5
2
 10
1091.0
 20
1465.501
 30
0
 40
35.0
 50
0
 51
180.0
210
0
220
0
230
1.0
 0
ARC
 8
TOOL_0
 5
3
 10
1091.0
 20
1465.501
 30
0
 40
35.0
 50
180.0
 51
0
210
0
220
0
230
1.0
 0
LINE
 8
TOOL_0
 5
4
 10
1126.0
 20
1465.501
 30
0
 11
1122.319
 21
1469.267
 31
0
 0
LINE
 8
TOOL_0
 5
5
 10
1122.319
 20
1469.267
 30
0
 11
711.29
 21
427.974
 31
0
 0
LINE
 8
TOOL_0
 5
6
 10
711.29
 20
427.974
 30
0
 11
741.0
 21
425.501
 31
0
 0
ARC
 8
TOOL_0
 5
7
 10
706.0
 20
425.501
 30
0
 40
35.0
 50
0
 51
180.0
210
0
220
0
230
1.0
 0
ARC
 8
TOOL_0
 5
8
 10
706.0
 20
425.501
 30
0
 40
35.0
 50
180.0
 51
0
210
0
220
0
230
1.0
 0
LINE
 8
TOOL_0
 5
9
 10
741.0
 20
425.501
 30
0
 11
738.061
 21
429.387
 31
0
 0
LINE
 8
TOOL_0
 5
A
 10
738.061
 20
429.387
 30
0
 11
2247.124
 21
422.032
 31
0
 0
LINE
 8
TOOL_0
 5
B
 10
2247.124
 20
422.032
 30
0
 11
2276.0
 21
425.501
 31
0
 0
ARC
 8
TOOL_0
 5
C
 10
2241.0
 20
425.501
 30
0
 40
35.0
 50
0
 51
180.0
210
0
220
0
230
1.0
 0
ARC
 8
TOOL_0
 5
D
 10
2241.0
 20
425.501
 30
0
 40
35.0
 50
180.0
 51
0
210
0
220
0
230
1.0
 0
LINE
 8
TOOL_0
 5
E
 10
2276.0
 20
425.501
 30
0
 11
2271.326
 21
428.018
 31
0
 0
LINE
 8
TOOL_0
 5
F
 10
2271.326
 20
428.018
 30
0
 11
3396.322
 21
1466.427
 31
0
 0
LINE
 8
TOOL_0
 5
10
 10
3396.322
 20
1466.427
 30
0
 11
3426.0
 21
1465.501
 31
0
 0
ARC
 8
TOOL_0
 5
11
 10
3391.0
 20
1465.501
 30
0
 40
35.0
 50
0
 51
180.0
210
0
220
0
230
1.0
 0
ARC
 8
TOOL_0
 5
12
 10
3391.0
 20
1465.501
 30
0
 40
35.0
 50
180.0
 51
0
210
0
220
0
230
1.0
 0
LINE
 8
TOOL_0
 5
13
 10
3426.0
 20
1465.501
 30
0
 11
3421.736
 21
1468.817
 31
0
 0
LINE
 8
TOOL_0
 5
14
 10
3421.736
 20
1468.817
 30
0
 11
3781.637
 21
425.512
 31
0
 0
LINE
 8
TOOL_0
 5
15
 10
3781.637
 20
425.512
 30
0
 11
3811.0
 21
425.501
 31
0
 0
ARC
 8
TOOL_0
 5
16
 10
3776.0
 20
425.501
 30
0
 40
35.0
 50
0
 51
180.0
210
0
220
0
230
1.0
 0
ARC
 8
TOOL_0
 5
17
 10
3776.0
 20
425.501
 30
0
 40
35.0
 50
180.0
 51
0
210
0
220
0
230
1.0
 0
LINE
 8
TOOL_0
 5
18
 10
3811.0
 20
425.501
 30
0
 11
3804.501
 21
431.628
 31
0
 0
LINE
 8
TOOL_0
 5
19
 10
3804.501
 20
431.628
 30
0
 11
4488.113
 21
56.838
 31
0
 0
LINE
 8
TOOL_0
 5
1A
 10
4488.113
 20
56.838
 30
0
 11
4487.783
 21
20.103
 31
0
 0
LINE
 8
TOOL_0
 5
1B
 10
4487.783
 20
20.103
 30
0
 11
4463.0
 21
19.001
 31
0
 0
LINE
 8
TOOL_0
 5
1C
 10
4463.0
 20
19.001
 30
0
 11
19.0
 21
19.001
 31
0
 0
LINE
 8
TOOL_0
 5
1D
 10
19.0
 20
19.001
 30
0
 11
19.0
 21
632.001
 31
0
 0
LINE
 8
TOOL_0
 5
1E
 10
19.0
 20
632.001
 30
0
 11
633.5
 21
632.001
 31
0
 0
ARC
 8
TOOL_0
 5
1F
 10
633.5
 20
695.501
 30
0
 40
63.5
 50
270.0
 51
314.999361983681
210
0
220
0
230
1.0
 0
LINE
 8
TOOL_0
 5
20
 10
678.401
 20
650.599
 30
0
 11
705.901
 21
678.099
 31
0
 0
ARC
 8
TOOL_0
 5
21
 10
660.814
 20
723.08
 30
0
 40
63.687737673747
 50
315.067430717063
 51
358.508231460464
210
0
220
0
230
1.0
 0
ARC
 8
TOOL_0
 5
22
 10
741.683
 20
722.168
 30
0
 40
17.219167372437
 50
169.746641564247
 51
182.483048854123
210
0
220
0
230
1.0
 0
ARC
 8
TOOL_0
 5
23
 10
712.673
 20
729.598
 30
0
 40
12.831273553315
 50
340.111886593483
 51
358.450394664125
210
0
220
0
230
1.0
 0
LINE
 8
TOOL_0
 5
24
 10
725.5
 20
729.251
 30
0
 11
725.5
 21
1535.499
 31
0
 0
ARC
 8
TOOL_0
 5
25
 10
756.0
 20
1535.499
 30
0
 40
30.5
 50
90.0
 51
180.0
210
0
220
0
230
1.0
 0
LINE
 8
TOOL_0
 5
26
 10
756.0
 20
1565.999
 30
0
 11
3726.0
 21
1565.999
 31
0
 0
ARC
 8
TOOL_0
 5
27
 10
3726.0
 20
1535.499
 30
0
 40
30.5
 50
0
 51
90.0
210
0
220
0
230
1.0
 0
LINE
 8
TOOL_0
 5
28
 10
3756.5
 20
1535.499
 30
0
 11
3756.5
 21
729.244
 31
0
 0
ARC
 8
TOOL_0
 5
29
 10
3766.0
 20
729.244
 30
0
 40
9.5
 50
180.0
 51
191.955751267994
210
0
220
0
230
1.0
 0
ARC
 8
TOOL_0
 5
2A
 10
3740.421
 20
721.923
 30
0
 40
17.142223718059
 50
5.43953981028
 51
18.196076864045
210
0
220
0
230
1.0
 0
ARC
 8
TOOL_0
 5
2B
 10
3821.148
 20
723.083
 30
0
 40
63.663698203921
 50
179.581507591912
 51
224.959271727667
210
0
220
0
230
1.0
 0
LINE
 8
TOOL_0
 5
2C
 10
3776.099
 20
678.098
 30
0
 11
3803.599
 21
650.598
 31
0
 0
ARC
 8
TOOL_0
 5
2D
 10
3848.5
 20
695.499
 30
0
 40
63.499603164114
 50
225.0
 51
270.0
210
0
220
0
230
1.0
 0
LINE
 8
TOOL_0
 5
2E
 10
3848.5
 20
631.999
 30
0
 11
4463.0
 21
631.999
 31
0
 0
LINE
 8
TOOL_0
 5
2F
 10
4463.0
 20
631.999
 30
0
 11
4463.0
 21
18.999
 31
0
 0
LINE
 8
TOOL_0
 5
30
 10
4463.0
 20
18.999
 30
0
 11
4463.04
 21
12.821
 31
0
 0
LINE
 8
TOOL_0
 5
31
 10
4463.04
 20
12.821
 30
0
 11
419.634
 21
1368.978
 31
0
 0
LINE
 8
TOOL_0
 5
32
 10
419.634
 20
1368.978
 30
0
 11
450.0
 21
1368.978
 31
0
 0
LINE
 8
TOOL_0
 5
33
 10
450.0
 20
1368.978
 30
0
 11
450.0
 21
1446.478
 31
0
 0
ARC
 8
TOOL_0
 5
34
 10
415.0
 20
1446.478
 30
0
 40
35.0
 50
0
 51
90.0
210
0
220
0
230
1.0
 0
LINE
 8
TOOL_0
 5
35
 10
415.0
 20
1481.478
 30
0
 11
190.0
 21
1481.478
 31
0
 0
ARC
 8
TOOL_0
 5
36
 10
190.0
 20
1446.478
 30
0
 40
35.0
 50
90.0
 51
180.0
210
0
220
0
230
1.0
 0
LINE
 8
TOOL_0
 5
37
 10
155.0
 20
1446.478
 30
0
 11
155.0
 21
1291.478
 31
0
 0
ARC
 8
TOOL_0
 5
38
 10
190.0
 20
1291.478
 30
0
 40
35.0
 50
180.0
 51
270.0
210
0
220
0
230
1.0
 0
LINE
 8
TOOL_0
 5
39
 10
190.0
 20
1256.478
 30
0
 11
415.0
 21
1256.478
 31
0
 0
ARC
 8
TOOL_0
 5
3A
 10
415.0
 20
1291.478
 30
0
 40
35.0
 50
270.0
 51
0
210
0
220
0
230
1.0
 0
LINE
 8
TOOL_0
 5
3B
 10
450.0
 20
1291.478
 30
0
 11
450.0
 21
1368.978
 31
0
 0
LINE
 8
TOOL_0
 5
3C
 10
450.0
 20
1368.978
 30
0
 11
446.963
 21
1373.022
 31
0
 0
LINE
 8
TOOL_0
 5
3D
 10
446.963
 20
1373.022
 30
0
 11
420.294
 21
1003.977
 31
0
 0
LINE
 8
TOOL_0
 5
3E
 10
420.294
 20
1003.977
 30
0
 11
450.0
 21
1003.977
 31
0
 0
LINE
 8
TOOL_0
 5
3F
 10
450.0
 20
1003.977
 30
0
 11
450.0
 21
1081.477
 31
0
 0
ARC
 8
TOOL_0
 5
40
 10
415.0
 20
1081.477
 30
0
 40
35.0
 50
0
 51
90.0
210
0
220
0
230
1.0
 0
LINE
 8
TOOL_0
 5
41
 10
415.0
 20
1116.477
 30
0
 11
150.0
 21
1116.477
 31
0
 0
ARC
 8
TOOL_0
 5
42
 10
150.0
 20
1081.477
 30
0
 40
35.0
 50
90.0
 51
180.0
210
0
220
0
230
1.0
 0
LINE
 8
TOOL_0
 5
43
 10
115.0
 20
1081.477
 30
0
 11
115.0
 21
926.477
 31
0
 0
ARC
 8
TOOL_0
 5
44
 10
150.0
 20
926.477
 30
0
 40
35.0
 50
180.0
 51
270.0
210
0
220
0
230
1.0
 0
LINE
 8
TOOL_0
 5
45
 10
150.0
 20
891.477
 30
0
 11
415.0
 21
891.477
 31
0
 0
ARC
 8
TOOL_0
 5
46
 10
415.0
 20
926.477
 30
0
 40
35.0
 50
270.0
 51
0
210
0
220
0
230
1.0
 0
LINE
 8
TOOL_0
 5
47
 10
450.0
 20
926.477
 30
0
 11
450.0
 21
1003.977
 31
0
 0
LINE
 8
TOOL_0
 5
48
 10
450.0
 20
1003.977
 30
0
 11
446.599
 21
1008.26
 31
0
 0
LINE
 8
TOOL_0
 5
49
 10
446.599
 20
1008.26
 30
0
 11
134.469
 21
650.076
 31
0
 0
LINE
 8
TOOL_0
 5
4A
 10
134.469
 20
650.076
 30
0
 11
105.0
 21
650.076
 31
0
 0
LINE
 8
TOOL_0
 5
4B
 10
105.0
 20
650.076
 30
0
 11
49.986
 21
650.076
 31
0
 0
LINE
 8
TOOL_0
 5
4C
 10
49.986
 20
650.076
 30
0
 11
39.0
 21
661.062
 31
0
 0
LINE
 8
TOOL_0
 5
4D
 10
39.0
 20
661.062
 30
0
 11
39.0
 21
772.476
 31
0
 0
ARC
 8
TOOL_0
 5
4E
 10
31.0
 20
772.476
 30
0
 40
8.0
 50
0
 51
90.0
210
0
220
0
230
1.0
 0
LINE
 8
TOOL_0
 5
4F
 10
31.0
 20
780.476
 30
0
 11
19.0
 21
780.476
 31
0
 0
LINE
 8
TOOL_0
 5
50
 10
19.0
 20
780.476
 30
0
 11
19.0
 21
1250.476
 31
0
 0
LINE
 8
TOOL_0
 5
51
 10
19.0
 20
1250.476
 30
0
 11
35.0
 21
1250.476
 31
0
 0
ARC
 8
TOOL_0
 5
52
 10
35.0
 20
1257.476
 30
0
 40
7.0
 50
270.0
 51
0
210
0
220
0
230
1.0
 0
LINE
 8
TOOL_0
 5
53
 10
42.0
 20
1257.476
 30
0
 11
42.0
 21
1415.476
 31
0
 0
ARC
 8
TOOL_0
 5
54
 10
35.0
 20
1415.476
 30
0
 40
7.0
 50
0
 51
90.0
210
0
220
0
230
1.0
 0
LINE
 8
TOOL_0
 5
55
 10
35.0
 20
1422.476
 30
0
 11
19.0
 21
1422.476
 31
0
 0
LINE
 8
TOOL_0
 5
56
 10
19.0
 20
1422.476
 30
0
 11
19.0
 21
1946.476
 31
0
 0
LINE
 8
TOOL_0
 5
57
 10
19.0
 20
1946.476
 30
0
 11
30.0
 21
1946.476
 31
0
 0
ARC
 8
TOOL_0
 5
58
 10
30.0
 20
1953.476
 30
0
 40
7.0
 50
270.0
 51
0
210
0
220
0
230
1.0
 0
LINE
 8
TOOL_0
 5
59
 10
37.0
 20
1953.476
 30
0
 11
37.0
 21
2192.876
 31
0
 0
LINE
 8
TOOL_0
 5
5A
 10
37.0
 20
2192.876
 30
0
 11
362.588
 21
2192.876
 31
0
 0
LINE
 8
TOOL_0
 5
5B
 10
362.588
 20
2192.876
 30
0
 11
615.0
 21
1434.601
 31
0
 0
LINE
 8
TOOL_0
 5
5C
 10
615.0
 20
1434.601
 30
0
 11
615.0
 21
929.763
 31
0
 0
ARC
 8
TOOL_0
 5
5D
 10
515.0
 20
929.763
 30
0
 40
100.0
 50
316.665781797872
 51
0
210
0
220
0
230
1.0
 0
LINE
 8
TOOL_0
 5
5E
 10
587.736
 20
861.138
 30
0
 11
388.604
 21
650.076
 31
0
 0
LINE
 8
TOOL_0
 5
5F
 10
388.604
 20
650.076
 30
0
 11
265.0
 21
650.076
 31
0
 0
LINE
 8
TOOL_0
 5
60
 10
265.0
 20
650.076
 30
0
 11
265.0
 21
671.476
 31
0
 0
ARC
 8
TOOL_0
 5
61
 10
185.0
 20
671.476
 30
0
 40
80.0
 50
0
 51
180.0
210
0
220
0
230
1.0
 0
LINE
 8
TOOL_0
 5
62
 10
105.0
 20
671.476
 30
0
 11
105.0
 21
650.076
 31
0
 0
LINE
 8
TOOL_0
 5
63
 10
105.0
 20
650.076
 30
0
 11
105.106
 21
644.817
 31
0
 0
LINE
 8
TOOL_0
 5
64
 10
105.106
 20
644.817
 30
0
 11
2014.313
 21
1925.191
 31
0
 0
LINE
 8
TOOL_0
 5
65
 10
2014.313
 20
1925.191
 30
0
 11
2043.667
 21
1925.191
 31
0
 0
LINE
 8
TOOL_0
 5
66
 10
2043.667
 20
1925.191
 30
0
 11
2043.667
 21
2037.691
 31
0
 0
ARC
 8
TOOL_0
 5
67
 10
2008.667
 20
2037.691
 30
0
 40
35.0
 50
0
 51
90.0
210
0
220
0
230
1.0
 0
LINE
 8
TOOL_0
 5
68
 10
2008.667
 20
2072.691
 30
0
 11
1853.667
 21
2072.691
 31
0
 0
ARC
 8
TOOL_0
 5
69
 10
1853.667
 20
2037.691
 30
0
 40
35.0
 50
90.0
 51
180.0
210
0
220
0
230
1.0
 0
LINE
 8
TOOL_0
 5
6A
 10
1818.667
 20
2037.691
 30
0
 11
1818.667
 21
1812.691
 31
0
 0
ARC
 8
TOOL_0
 5
6B
 10
1853.667
 20
1812.691
 30
0
 40
35.0
 50
180.0
 51
270.0
210
0
220
0
230
1.0
 0
LINE
 8
TOOL_0
 5
6C
 10
1853.667
 20
1777.691
 30
0
 11
2008.667
 21
1777.691
 31
0
 0
ARC
 8
TOOL_0
 5
6D
 10
2008.667
 20
1812.691
 30
0
 40
35.0
 50
270.0
 51
0
210
0
220
0
230
1.0
 0
LINE
 8
TOOL_0
 5
6E
 10
2043.667
 20
1812.691
 30
0
 11
2043.667
 21
1925.191
 31
0
 0
LINE
 8
TOOL_0
 5
6F
 10
2043.667
 20
1925.191
 30
0
 11
2040.642
 21
1929.592
 31
0
 0
LINE
 8
TOOL_0
 5
70
 10
2040.642
 20
1929.592
 30
0
 11
2628.04
 21
1945.191
 31
0
 0
LINE
 8
TOOL_0
 5
71
 10
2628.04
 20
1945.191
 30
0
 11
2658.666
 21
1945.191
 31
0
 0
LINE
 8
TOOL_0
 5
72
 10
2658.666
 20
1945.191
 30
0
 11
2658.666
 21
2077.691
 31
0
 0
ARC
 8
TOOL_0
 5
73
 10
2623.666
 20
2077.691
 30
0
 40
35.0
 50
0
 51
90.0
210
0
220
0
230
1.0
 0
LINE
 8
TOOL_0
 5
74
 10
2623.666
 20
2112.691
 30
0
 11
2468.666
 21
2112.691
 31
0
 0
ARC
 8
TOOL_0
 5
75
 10
2468.666
 20
2077.691
 30
0
 40
35.0
 50
90.0
 51
180.0
210
0
220
0
230
1.0
 0
LINE
 8
TOOL_0
 5
76
 10
2433.666
 20
2077.691
 30
0
 11
2433.666
 21
1812.691
 31
0
 0
ARC
 8
TOOL_0
 5
77
 10
2468.666
 20
1812.691
 30
0
 40
35.0
 50
180.0
 51
270.0
210
0
220
0
230
1.0
 0
LINE
 8
TOOL_0
 5
78
 10
2468.666
 20
1777.691
 30
0
 11
2623.666
 21
1777.691
 31
0
 0
ARC
 8
TOOL_0
 5
79
 10
2623.666
 20
1812.691
 30
0
 40
35.0
 50
270.0
 51
0
210
0
220
0
230
1.0
 0
LINE
 8
TOOL_0
 5
7A
 10
2658.666
 20
1812.691
 30
0
 11
2658.666
 21
1945.191
 31
0
 0
LINE
 8
TOOL_0
 5
7B
 10
2658.666
 20
1945.191
 30
0
 11
2655.826
 21
1949.428
 31
0
 0
LINE
 8
TOOL_0
 5
7C
 10
2655.826
 20
1949.428
 30
0
 11
2849.665
 21
2028.964
 31
0
 0
LINE
 8
TOOL_0
 5
7D
 10
2849.665
 20
2028.964
 30
0
 11
2849.665
 21
1998.691
 31
0
 0
LINE
 8
TOOL_0
 5
7E
 10
2849.665
 20
1998.691
 30
0
 11
2849.665
 21
1889.477
 31
0
 0
LINE
 8
TOOL_0
 5
7F
 10
2849.665
 20
1889.477
 30
0
 11
2752.052
 21
1672.288
 31
0
 0
ARC
 8
TOOL_0
 5
80
 10
2659.929
 20
1713.692
 30
0
 40
100.999694776767
 50
269.999432715054
 51
335.798819111463
210
0
220
0
230
1.0
 0
LINE
 8
TOOL_0
 5
81
 10
2659.928
 20
1612.692
 30
0
 11
1729.597
 21
1612.692
 31
0
 0
LINE
 8
TOOL_0
 5
82
 10
1729.597
 20
1612.692
 30
0
 11
859.037
 21
1803.604
 31
0
 0
ARC
 8
TOOL_0
 5
83
 10
837.649
 20
1705.237
 30
0
 40
100.665352693963
 50
77.733074096339
 51
89.897549005903
210
0
220
0
230
1.0
 0
LINE
 8
TOOL_0
 5
84
 10
837.829
 20
1805.902
 30
0
 11
555.166
 21
1805.902
 31
0
 0
ARC
 8
TOOL_0
 5
85
 10
555.166
 20
1813.902
 30
0
 40
8.0
 50
180.0
 51
270.0
210
0
220
0
230
1.0
 0
LINE
 8
TOOL_0
 5
86
 10
547.166
 20
1813.902
 30
0
 11
547.166
 21
2243.691
 31
0
 0
LINE
 8
TOOL_0
 5
87
 10
547.166
 20
2243.691
 30
0
 11
2709.261
 21
2243.691
 31
0
 0
ARC
 8
TOOL_0
 5
88
 10
2717.361
 20
2247.752
 30
0
 40
9.061
 50
206.627264624288
 51
269.79133071799
210
0
220
0
230
1.0
 0
LINE
 8
TOOL_0
 5
89
 10
2717.328
 20
2238.691
 30
0
 11
2839.08
 21
2238.691
 31
0
 0
LINE
 8
TOOL_0
 5
8A
 10
2839.08
 20
2238.691
 30
0
 11
2849.666
 21
2228.105
 31
0
 0
LINE
 8
TOOL_0
 5
8B
 10
2849.666
 20
2228.105
 30
0
 11
2849.666
 21
2156.691
 31
0
 0
LINE
 8
TOOL_0
 5
8C
 10
2849.666
 20
2156.691
 30
0
 11
2828.666
 21
2156.691
 31
0
 0
ARC
 8
TOOL_0
 5
8D
 10
2828.666
 20
2077.691
 30
0
 40
79.0
 50
90.0
 51
270.0
210
0
220
0
230
1.0
 0
LINE
 8
TOOL_0
 5
8E
 10
2828.666
 20
1998.691
 30
0
 11
2849.666
 21
1998.691
 31
0
 0
LINE
 8
TOOL_0
 5
8F
 10
2849.666
 20
1998.691
 30
0
 11
2855.413
 21
1998.604
 31
0
 0
LINE
 8
TOOL_0
 5
90
 10
2855.413
 20
1998.604
 30
0
 11
5443.691
 21
302.496
 31
0
 0
LINE
 8
TOOL_0
 5
91
 10
5443.691
 20
302.496
 30
0
 11
5473.583
 21
302.496
 31
0
 0
LINE
 8
TOOL_0
 5
92
 10
5473.583
 20
302.496
 30
0
 11
5473.583
 21
414.996
 31
0
 0
ARC
 8
TOOL_0
 5
93
 10
5438.583
 20
414.996
 30
0
 40
35.0
 50
0
 51
90.0
210
0
220
0
230
1.0
 0
LINE
 8
TOOL_0
 5
94
 10
5438.583
 20
449.996
 30
0
 11
5283.583
 21
449.996
 31
0
 0
ARC
 8
TOOL_0
 5
95
 10
5283.583
 20
414.996
 30
0
 40
35.0
 50
90.0
 51
180.0
210
0
220
0
230
1.0
 0
LINE
 8
TOOL_0
 5
96
 10
5248.583
 20
414.996
 30
0
 11
5248.583
 21
189.996
 31
0
 0
ARC
 8
TOOL_0
 5
97
 10
5283.583
 20
189.996
 30
0
 40
35.0
 50
180.0
 51
270.0
210
0
220
0
230
1.0
 0
LINE
 8
TOOL_0
 5
98
 10
5283.583
 20
154.996
 30
0
 11
5438.583
 21
154.996
 31
0
 0
ARC
 8
TOOL_0
 5
99
 10
5438.583
 20
189.996
 30
0
 40
35.0
 50
270.0
 51
0
210
0
220
0
230
1.0
 0
LINE
 8
TOOL_0
 5
9A
 10
5473.583
 20
189.996
 30
0
 11
5473.583
 21
302.496
 31
0
 0
LINE
 8
TOOL_0
 5
9B
 10
5473.583
 20
302.496
 30
0
 11
5470.935
 21
307.334
 31
0
 0
LINE
 8
TOOL_0
 5
9C
 10
5470.935
 20
307.334
 30
0
 11
5808.487
 21
282.496
 31
0
 0
LINE
 8
TOOL_0
 5
9D
 10
5808.487
 20
282.496
 30
0
 11
5838.582
 21
282.496
 31
0
 0
LINE
 8
TOOL_0
 5
9E
 10
5838.582
 20
282.496
 30
0
 11
5838.582
 21
414.996
 31
0
 0
ARC
 8
TOOL_0
 5
9F
 10
5803.582
 20
414.996
 30
0
 40
35.0
 50
0
 51
90.0
210
0
220
0
230
1.0
 0
LINE
 8
TOOL_0
 5
A0
 10
5803.582
 20
449.996
 30
0
 11
5648.582
 21
449.996
 31
0
 0
ARC
 8
TOOL_0
 5
A1
 10
5648.582
 20
414.996
 30
0
 40
35.0
 50
90.0
 51
180.0
210
0
220
0
230
1.0
 0
LINE
 8
TOOL_0
 5
A2
 10
5613.582
 20
414.996
 30
0
 11
5613.582
 21
149.996
 31
0
 0
ARC
 8
TOOL_0
 5
A3
 10
5648.582
 20
149.996
 30
0
 40
35.0
 50
180.0
 51
270.0
210
0
220
0
230
1.0
 0
LINE
 8
TOOL_0
 5
A4
 10
5648.582
 20
114.996
 30
0
 11
5803.582
 21
114.996
 31
0
 0
ARC
 8
TOOL_0
 5
A5
 10
5803.582
 20
149.996
 30
0
 40
35.0
 50
270.0
 51
0
210
0
220
0
230
1.0
 0
LINE
 8
TOOL_0
 5
A6
 10
5838.582
 20
149.996
 30
0
 11
5838.582
 21
282.496
 31
0
 0
LINE
 8
TOOL_0
 5
A7
 10
5838.582
 20
282.496
 30
0
 11
5834.759
 21
286.748
 31
0
 0
LINE
 8
TOOL_0
 5
A8
 10
5834.759
 20
286.748
 30
0
 11
6079.981
 21
134.484
 31
0
 0
LINE
 8
TOOL_0
 5
A9
 10
6079.981
 20
134.484
 30
0
 11
6079.981
 21
104.996
 31
0
 0
LINE
 8
TOOL_0
 5
AA
 10
6079.981
 20
104.996
 30
0
 11
6079.981
 21
49.982
 31
0
 0
LINE
 8
TOOL_0
 5
AB
 10
6079.981
 20
49.982
 30
0
 11
6068.995
 21
38.996
 31
0
 0
LINE
 8
TOOL_0
 5
AC
 10
6068.995
 20
38.996
 30
0
 11
5957.581
 21
38.996
 31
0
 0
ARC
 8
TOOL_0
 5
AD
 10
5957.581
 20
30.996
 30
0
 40
8.0
 50
90.0
 51
180.0
210
0
220
0
230
1.0
 0
LINE
 8
TOOL_0
 5
AE
 10
5949.581
 20
30.996
 30
0
 11
5949.581
 21
18.996
 31
0
 0
LINE
 8
TOOL_0
 5
AF
 10
5949.581
 20
18.996
 30
0
 11
5479.581
 21
18.996
 31
0
 0
LINE
 8
TOOL_0
 5
B0
 10
5479.581
 20
18.996
 30
0
 11
5479.581
 21
34.996
 31
0
 0
ARC
 8
TOOL_0
 5
B1
 10
5472.581
 20
34.996
 30
0
 40
7.0
 50
0
 51
90.0
210
0
220
0
230
1.0
 0
LINE
 8
TOOL_0
 5
B2
 10
5472.581
 20
41.996
 30
0
 11
5314.581
 21
41.996
 31
0
 0
ARC
 8
TOOL_0
 5
B3
 10
5314.581
 20
34.996
 30
0
 40
7.0
 50
90.0
 51
180.0
210
0
220
0
230
1.0
 0
LINE
 8
TOOL_0
 5
B4
 10
5307.581
 20
34.996
 30
0
 11
5307.581
 21
18.996
 31
0
 0
LINE
 8
TOOL_0
 5
B5
 10
5307.581
 20
18.996
 30
0
 11
4783.581
 21
18.996
 31
0
 0
LINE
 8
TOOL_0
 5
B6
 10
4783.581
 20
18.996
 30
0
 11
4783.581
 21
29.996
 31
0
 0
ARC
 8
TOOL_0
 5
B7
 10
4776.581
 20
29.996
 30
0
 40
7.0
 50
0
 51
90.0
210
0
220
0
230
1.0
 0
LINE
 8
TOOL_0
 5
B8
 10
4776.581
 20
36.996
 30
0
 11
4537.181
 21
36.996
 31
0
 0
LINE
 8
TOOL_0
 5
B9
 10
4537.181
 20
36.996
 30
0
 11
4537.181
 21
362.584
 31
0
 0
LINE
 8
TOOL_0
 5
BA
 10
4537.181
 20
362.584
 30
0
 11
5295.456
 21
614.996
 31
0
 0
LINE
 8
TOOL_0
 5
BB
 10
5295.456
 20
614.996
 30
0
 11
5800.294
 21
614.996
 31
0
 0
ARC
 8
TOOL_0
 5
BC
 10
5800.294
 20
514.996
 30
0
 40
100.0
 50
46.665781797872
 51
90.0
210
0
220
0
230
1.0
 0
LINE
 8
TOOL_0
 5
BD
 10
5868.919
 20
587.732
 30
0
 11
6079.981
 21
388.6
 31
0
 0
LINE
 8
TOOL_0
 5
BE
 10
6079.981
 20
388.6
 30
0
 11
6079.981
 21
264.996
 31
0
 0
LINE
 8
TOOL_0
 5
BF
 10
6079.981
 20
264.996
 30
0
 11
6058.581
 21
264.996
 31
0
 0
ARC
 8
TOOL_0
 5
C0
 10
6058.581
 20
184.996
 30
0
 40
80.0
 50
90.0
 51
270.0
210
0
220
0
230
1.0
 0
LINE
 8
TOOL_0
 5
C1
 10
6058.581
 20
104.996
 30
0
 11
6079.981
 21
104.996
 31
0
 0
LINE
 8
TOOL_0
 5
C2
 10
6079.981
 20
104.996
 30
0
 11
6085.359
 21
104.996
 31
0
 0
LINE
 8
TOOL_0
 5
C3
 10
6085.359
 20
104.996
 30
0
 11
4145.032
 21
799.261
 31
0
 0
LINE
 8
TOOL_0
 5
C4
 10
4145.032
 20
799.261
 30
0
 11
4175.173
 21
799.261
 31
0
 0
ARC
 8
TOOL_0
 5
C5
 10
4140.173
 20
799.261
 30
0
 40
35.0
 50
0
 51
180.0
210
0
220
0
230
1.0
 0
ARC
 8
TOOL_0
 5
C6
 10
4140.173
 20
799.261
 30
0
 40
35.0
 50
180.0
 51
0
210
0
220
0
230
1.0
 0
LINE
 8
TOOL_0
 5
C7
 10
4175.173
 20
799.261
 30
0
 11
4172.091
 21
803.253
 31
0
 0
LINE
 8
TOOL_0
 5
C8
 10
4172.091
 20
803.253
 30
0
 11
3760.34
 21
1839.261
 31
0
 0
LINE
 8
TOOL_0
 5
C9
 10
3760.34
 20
1839.261
 30
0
 11
3790.173
 21
1839.261
 31
0
 0
ARC
 8
TOOL_0
 5
CA
 10
3755.173
 20
1839.261
 30
0
 40
35.0
 50
0
 51
180.0
210
0
220
0
230
1.0
 0
ARC
 8
TOOL_0
 5
CB
 10
3755.173
 20
1839.261
 30
0
 40
35.0
 50
180.0
 51
0
210
0
220
0
230
1.0
 0
LINE
 8
TOOL_0
 5
CC
 10
3790.173
 20
1839.261
 30
0
 11
3786.829
 21
1843.746
 31
0
 0
LINE
 8
TOOL_0
 5
CD
 10
3786.829
 20
1843.746
 30
0
 11
5295.728
 21
1839.262
 31
0
 0
LINE
 8
TOOL_0
 5
CE
 10
5295.728
 20
1839.262
 30
0
 11
5325.173
 21
1839.262
 31
0
 0
ARC
 8
TOOL_0
 5
CF
 10
5290.173
 20
1839.262
 30
0
 40
35.0
 50
0
 51
180.0
210
0
220
0
230
1.0
 0
ARC
 8
TOOL_0
 5
D0
 10
5290.173
 20
1839.262
 30
0
 40
35.0
 50
180.0
 51
0
210
0
220
0
230
1.0
 0
LINE
 8
TOOL_0
 5
D1
 10
5325.173
 20
1839.262
 30
0
 11
5321.838
 21
1843.286
 31
0
 0
LINE
 8
TOOL_0
 5
D2
 10
5321.838
 20
1843.286
 30
0
 11
6444.786
 21
799.262
 31
0
 0
LINE
 8
TOOL_0
 5
D3
 10
6444.786
 20
799.262
 30
0
 11
6475.174
 21
799.262
 31
0
 0
ARC
 8
TOOL_0
 5
D4
 10
6440.174
 20
799.262
 30
0
 40
35.0
 50
0
 51
180.0
210
0
220
0
230
1.0
 0
ARC
 8
TOOL_0
 5
D5
 10
6440.174
 20
799.262
 30
0
 40
35.0
 50
180.0
 51
0
210
0
220
0
230
1.0
 0
LINE
 8
TOOL_0
 5
D6
 10
6475.174
 20
799.262
 30
0
 11
6471.313
 21
803.545
 31
0
 0
LINE
 8
TOOL_0
 5
D7
 10
6471.313
 20
803.545
 30
0
 11
6830.485
 21
1839.262
 31
0
 0
LINE
 8
TOOL_0
 5
D8
 10
6830.485
 20
1839.262
 30
0
 11
6860.174
 21
1839.262
 31
0
 0
ARC
 8
TOOL_0
 5
D9
 10
6825.174
 20
1839.262
 30
0
 40
35.0
 50
0
 51
180.0
210
0
220
0
230
1.0
 0
ARC
 8
TOOL_0
 5
DA
 10
6825.174
 20
1839.262
 30
0
 40
35.0
 50
180.0
 51
0
210
0
220
0
230
1.0
 0
LINE
 8
TOOL_0
 5
DB
 10
6860.174
 20
1839.262
 30
0
 11
6856.95
 21
1843.547
 31
0
 0
LINE
 8
TOOL_0
 5
DC
 10
6856.95
 20
1843.547
 30
0
 11
3038.179
 21
2245.011
 31
0
 0
LINE
 8
TOOL_0
 5
DD
 10
3038.179
 20
2245.011
 30
0
 11
3068.174
 21
2245.762
 31
0
 0
LINE
 8
TOOL_0
 5
DE
 10
3068.174
 20
2245.762
 30
0
 11
7512.174
 21
2245.762
 31
0
 0
LINE
 8
TOOL_0
 5
DF
 10
7512.174
 20
2245.762
 30
0
 11
7512.174
 21
1632.762
 31
0
 0
LINE
 8
TOOL_0
 5
E0
 10
7512.174
 20
1632.762
 30
0
 11
6897.674
 21
1632.762
 31
0
 0
ARC
 8
TOOL_0
 5
E1
 10
6897.674
 20
1569.262
 30
0
 40
63.5
 50
90.0
 51
135.0
210
0
220
0
230
1.0
 0
LINE
 8
TOOL_0
 5
E2
 10
6852.773
 20
1614.163
 30
0
 11
6825.273
 21
1586.663
 31
0
 0
ARC
 8
TOOL_0
 5
E3
 10
6870.36
 20
1541.682
 30
0
 40
63.687737673747
 50
135.067430717063
 51
178.509130794042
210
0
220
0
230
1.0
 0
ARC
 8
TOOL_0
 5
E4
 10
6789.491
 20
1542.594
 30
0
 40
17.219124077607
 50
349.743367259393
 51
2.479724528025
210
0
220
0
230
1.0
 0
ARC
 8
TOOL_0
 5
E5
 10
6818.501
 20
1535.163
 30
0
 40
12.831273553315
 50
160.111886593482
 51
178.450394664124
210
0
220
0
230
1.0
 0
LINE
 8
TOOL_0
 5
E6
 10
6805.674
 20
1535.51
 30
0
 11
6805.674
 21
729.262
 31
0
 0
ARC
 8
TOOL_0
 5
E7
 10
6775.174
 20
729.262
 30
0
 40
30.5
 50
270.0
 51
0
210
0
220
0
230
1.0
 0
LINE
 8
TOOL_0
 5
E8
 10
6775.174
 20
698.762
 30
0
 11
3805.174
 21
698.762
 31
0
 0
ARC
 8
TOOL_0
 5
E9
 10
3805.174
 20
729.262
 30
0
 40
30.5
 50
180.0
 51
270.0
210
0
220
0
230
1.0
 0
LINE
 8
TOOL_0
 5
EA
 10
3774.674
 20
729.262
 30
0
 11
3774.674
 21
1535.517
 31
0
 0
ARC
 8
TOOL_0
 5
EB
 10
3765.174
 20
1535.517
 30
0
 40
9.5
 50
0
 51
11.955751267995
210
0
220
0
230
1.0
 0
ARC
 8
TOOL_0
 5
EC
 10
3790.753
 20
1542.838
 30
0
 40
17.142223718059
 50
185.43953981028
 51
198.196076864045
210
0
220
0
230
1.0
 0
ARC
 8
TOOL_0
 5
ED
 10
3710.026
 20
1541.678
 30
0
 40
63.663698203921
 50
359.581507591912
 51
44.959271727667
210
0
220
0
230
1.0
 0
LINE
 8
TOOL_0
 5
EE
 10
3755.075
 20
1586.663
 30
0
 11
3727.575
 21
1614.163
 31
0
 0
ARC
 8
TOOL_0
 5
EF
 10
3682.674
 20
1569.262
 30
0
 40
63.499603164114
 50
45.0
 51
90.0
210
0
220
0
230
1.0
 0
LINE
 8
TOOL_0
 5
F0
 10
3682.674
 20
1632.762
 30
0
 11
3068.174
 21
1632.762
 31
0
 0
LINE
 8
TOOL_0
 5
F1
 10
3068.174
 20
1632.762
 30
0
 11
3068.174
 21
2245.762
 31
0
 0
LINE
 8
TOOL_0
 5
F2
 10
3068.174
 20
2245.762
 30
0
 11
3068.262
 21
2250.104
 31
0
 0
LINE
 8
TOOL_0
 5
F3
 10
3068.262
 20
2250.104
 30
0
 11
7194.936
 21
1466.461
 31
0
 0
LINE
 8
TOOL_0
 5
F4
 10
7194.936
 20
1466.461
 30
0
 11
7224.934
 21
1465.498
 31
0
 0
ARC
 8
TOOL_0
 5
F5
 10
7189.934
 20
1465.498
 30
0
 40
35.0
 50
0
 51
180.0
210
0
220
0
230
1.0
 0
ARC
 8
TOOL_0
 5
F6
 10
7189.934
 20
1465.498
 30
0
 40
35.0
 50
180.0
 51
0
210
0
220
0
230
1.0
 0
LINE
 8
TOOL_0
 5
F7
 10
7224.934
 20
1465.498
 30
0
 11
7221.253
 21
1469.264
 31
0
 0
LINE
 8
TOOL_0
 5
F8
 10
7221.253
 20
1469.264
 30
0
 11
6810.224
 21
427.971
 31
0
 0
LINE
 8
TOOL_0
 5
F9
 10
6810.224
 20
427.971
 30
0
 11
6839.935
 21
425.498
 31
0
 0
ARC
 8
TOOL_0
 5
FA
 10
6804.935
 20
425.498
 30
0
 40
35.0
 50
0
 51
180.0
210
0
220
0
230
1.0
 0
ARC
 8
TOOL_0
 5
FB
 10
6804.935
 20
425.498
 30
0
 40
35.0
 50
180.0
 51
0
210
0
220
0
230
1.0
 0
LINE
 8
TOOL_0
 5
FC
 10
6839.935
 20
425.498
 30
0
 11
6836.996
 21
429.384
 31
0
 0
LINE
 8
TOOL_0
 5
FD
 10
6836.996
 20
429.384
 30
0
 11
8346.059
 21
422.029
 31
0
 0
LINE
 8
TOOL_0
 5
FE
 10
8346.059
 20
422.029
 30
0
 11
8374.936
 21
425.498
 31
0
 0
ARC
 8
TOOL_0
 5
FF
 10
8339.936
 20
425.498
 30
0
 40
35.0
 50
0
 51
180.0
210
0
220
0
230
1.0
 0
ARC
 8
TOOL_0
 5
100
 10
8339.936
 20
425.498
 30
0
 40
35.0
 50
180.0
 51
0
210
0
220
0
230
1.0
 0
LINE
 8
TOOL_0
 5
101
 10
8374.936
 20
425.498
 30
0
 11
8370.262
 21
428.015
 31
0
 0
LINE
 8
TOOL_0
 5
102
 10
8370.262
 20
428.015
 30
0
 11
9495.258
 21
1466.424
 31
0
 0
LINE
 8
TOOL_0
 5
103
 10
9495.258
 20
1466.424
 30
0
 11
9524.936
 21
1465.498
 31
0
 0
ARC
 8
TOOL_0
 5
104
 10
9489.936
 20
1465.498
 30
0
 40
35.0
 50
0
 51
180.0
210
0
220
0
230
1.0
 0
ARC
 8
TOOL_0
 5
105
 10
9489.936
 20
1465.498
 30
0
 40
35.0
 50
180.0
 51
0
210
0
220
0
230
1.0
 0
LINE
 8
TOOL_0
 5
106
 10
9524.936
 20
1465.498
 30
0
 11
9520.672
 21
1468.814
 31
0
 0
LINE
 8
TOOL_0
 5
107
 10
9520.672
 20
1468.814
 30
0
 11
9880.572
 21
425.509
 31
0
 0
LINE
 8
TOOL_0
 5
108
 10
9880.572
 20
425.509
 30
0
 11
9909.936
 21
425.498
 31
0
 0
ARC
 8
TOOL_0
 5
109
 10
9874.936
 20
425.498
 30
0
 40
35.0
 50
0
 51
180.0
210
0
220
0
230
1.0
 0
ARC
 8
TOOL_0
 5
10A
 10
9874.936
 20
425.498
 30
0
 40
35.0
 50
180.0
 51
0
210
0
220
0
230
1.0
 0
LINE
 8
TOOL_0
 5
10B
 10
9909.936
 20
425.498
 30
0
 11
9903.437
 21
431.625
 31
0
 0
LINE
 8
TOOL_0
 5
10C
 10
9903.437
 20
431.625
 30
0
 11
10587.049
 21
56.835
 31
0
 0
LINE
 8
TOOL_0
 5
10D
 10
10587.049
 20
56.835
 30
0
 11
10586.719
 21
20.1
 31
0
 0
LINE
 8
TOOL_0
 5
10E
 10
10586.719
 20
20.1
 30
0
 11
10561.936
 21
18.998
 31
0
 0
LINE
 8
TOOL_0
 5
10F
 10
10561.936
 20
18.998
 30
0
 11
6117.936
 21
18.998
 31
0
 0
LINE
 8
TOOL_0
 5
110
 10
6117.936
 20
18.998
 30
0
 11
6117.936
 21
631.998
 31
0
 0
LINE
 8
TOOL_0
 5
111
 10
6117.936
 20
631.998
 30
0
 11
6732.436
 21
631.998
 31
0
 0
ARC
 8
TOOL_0
 5
112
 10
6732.436
 20
695.498
 30
0
 40
63.5
 50
270.0
 51
314.999361983681
210
0
220
0
230
1.0
 0
LINE
 8
TOOL_0
 5
113
 10
6777.337
 20
650.596
 30
0
 11
6804.837
 21
678.096
 31
0
 0
ARC
 8
TOOL_0
 5
114
 10
6759.75
 20
723.077
 30
0
 40
63.687737673747
 50
315.067430717063
 51
358.508231460464
210
0
220
0
230
1.0
 0
ARC
 8
TOOL_0
 5
115
 10
6840.619
 20
722.165
 30
0
 40
17.219167372438
 50
169.746641564247
 51
182.483048854123
210
0
220
0
230
1.0
 0
ARC
 8
TOOL_0
 5
116
 10
6811.609
 20
729.595
 30
0
 40
12.831273553315
 50
340.111886593482
 51
358.450394664125
210
0
220
0
230
1.0
 0
LINE
 8
TOOL_0
 5
117
 10
6824.436
 20
729.248
 30
0
 11
6824.436
 21
1535.496
 31
0
 0
ARC
 8
TOOL_0
 5
118
 10
6854.936
 20
1535.496
 30
0
 40
30.5
 50
90.0
 51
180.0
210
0
220
0
230
1.0
 0
LINE
 8
TOOL_0
 5
119
 10
6854.936
 20
1565.996
 30
0
 11
9824.936
 21
1565.996
 31
0
 0
ARC
 8
TOOL_0
 5
11A
 10
9824.936
 20
1535.496
 30
0
 40
30.5
 50
0
 51
90.0
210
0
220
0
230
1.0
 0
LINE
 8
TOOL_0
 5
11B
 10
9855.436
 20
1535.496
 30
0
 11
9855.436
 21
729.241
 31
0
 0
ARC
 8
TOOL_0
 5
11C
 10
9864.936
 20
729.241
 30
0
 40
9.5
 50
180.0
 51
191.955751267994
210
0
220
0
230
1.0
 0
ARC
 8
TOOL_0
 5
11D
 10
9839.357
 20
721.92
 30
0
 40
17.142223718059
 50
5.43953981028
 51
18.196076864045
210
0
220
0
230
1.0
 0
ARC
 8
TOOL_0
 5
11E
 10
9920.084
 20
723.08
 30
0
 40
63.663698203922
 50
179.581507591912
 51
224.959271727666
210
0
220
0
230
1.0
 0
LINE
 8
TOOL_0
 5
11F
 10
9875.035
 20
678.095
 30
0
 11
9902.535
 21
650.595
 31
0
 0
ARC
 8
TOOL_0
 5
120
 10
9947.436
 20
695.496
 30
0
 40
63.499603164114
 50
225.0
 51
270.0
210
0
220
0
230
1.0
 0
LINE
 8
TOOL_0
 5
121
 10
9947.436
 20
631.996
 30
0
 11
10561.936
 21
631.996
 31
0
 0
LINE
 8
TOOL_0
 5
122
 10
10561.936
 20
631.996
 30
0
 11
10561.936
 21
18.996
 31
0
 0
LINE
 8
TOOL_0
 5
123
 10
10561.936
 20
18.996
 30
0
 11
10561.976
 21
12.818
 31
0
 0
LINE
 8
TOOL_0
 5
124
 10
10561.976
 20
12.818
 30
0
 11
9069.406
 21
1909.044
 31
0
 0
LINE
 8
TOOL_0
 5
125
 10
9069.406
 20
1909.044
 30
0
 11
9098.761
 21
1909.044
 31
0
 0
LINE
 8
TOOL_0
 5
126
 10
9098.761
 20
1909.044
 30
0
 11
9098.761
 21
2021.544
 31
0
 0
ARC
 8
TOOL_0
 5
127
 10
9063.761
 20
2021.544
 30
0
 40
35.0
 50
0
 51
90.0
210
0
220
0
230
1.0
 0
LINE
 8
TOOL_0
 5
128
 10
9063.761
 20
2056.544
 30
0
 11
8908.761
 21
2056.544
 31
0
 0
ARC
 8
TOOL_0
 5
129
 10
8908.761
 20
2021.544
 30
0
 40
35.0
 50
90.0
 51
180.0
210
0
220
0
230
1.0
 0
LINE
 8
TOOL_0
 5
12A
 10
8873.761
 20
2021.544
 30
0
 11
8873.761
 21
1796.544
 31
0
 0
ARC
 8
TOOL_0
 5
12B
 10
8908.761
 20
1796.544
 30
0
 40
35.0
 50
180.0
 51
270.0
210
0
220
0
230
1.0
 0
LINE
 8
TOOL_0
 5
12C
 10
8908.761
 20
1761.544
 30
0
 11
9063.761
 21
1761.544
 31
0
 0
ARC
 8
TOOL_0
 5
12D
 10
9063.761
 20
1796.544
 30
0
 40
35.0
 50
270.0
 51
0
210
0
220
0
230
1.0
 0
LINE
 8
TOOL_0
 5
12E
 10
9098.761
 20
1796.544
 30
0
 11
9098.761
 21
1909.044
 31
0
 0
LINE
 8
TOOL_0
 5
12F
 10
9098.761
 20
1909.044
 30
0
 11
9095.736
 21
1913.445
 31
0
 0
LINE
 8
TOOL_0
 5
130
 10
9095.736
 20
1913.445
 30
0
 11
9683.134
 21
1929.044
 31
0
 0
LINE
 8
TOOL_0
 5
131
 10
9683.134
 20
1929.044
 30
0
 11
9713.761
 21
1929.044
 31
0
 0
LINE
 8
TOOL_0
 5
132
 10
9713.761
 20
1929.044
 30
0
 11
9713.761
 21
2061.544
 31
0
 0
ARC
 8
TOOL_0
 5
133
 10
9678.761
 20
2061.544
 30
0
 40
35.0
 50
0
 51
90.0
210
0
220
0
230
1.0
 0
LINE
 8
TOOL_0
 5
134
 10
9678.761
 20
2096.544
 30
0
 11
9523.761
 21
2096.544
 31
0
 0
ARC
 8
TOOL_0
 5
135
 10
9523.761
 20
2061.544
 30
0
 40
35.0
 50
90.0
 51
180.0
210
0
220
0
230
1.0
 0
LINE
 8
TOOL_0
 5
136
 10
9488.761
 20
2061.544
 30
0
 11
9488.761
 21
1796.544
 31
0
 0
ARC
 8
TOOL_0
 5
137
 10
9523.761
 20
1796.544
 30
0
 40
35.0
 50
180.0
 51
270.0
210
0
220
0
230
1.0
 0
LINE
 8
TOOL_0
 5
138
 10
9523.761
 20
1761.544
 30
0
 11
9678.761
 21
1761.544
 31
0
 0
ARC
 8
TOOL_0
 5
139
 10
9678.761
 20
1796.544
 30
0
 40
35.0
 50
270.0
 51
0
210
0
220
0
230
1.0
 0
LINE
 8
TOOL_0
 5
13A
 10
9713.761
 20
1796.544
 30
0
 11
9713.761
 21
1929.044
 31
0
 0
LINE
 8
TOOL_0
 5
13B
 10
9713.761
 20
1929.044
 30
0
 11
9710.921
 21
1933.281
 31
0
 0
LINE
 8
TOOL_0
 5
13C
 10
9710.921
 20
1933.281
 30
0
 11
9904.761
 21
2012.817
 31
0
 0
LINE
 8
TOOL_0
 5
13D
 10
9904.761
 20
2012.817
 30
0
 11
9904.761
 21
1982.544
 31
0
 0
LINE
 8
TOOL_0
 5
13E
 10
9904.761
 20
1982.544
 30
0
 11
9904.761
 21
1873.33
 31
0
 0
LINE
 8
TOOL_0
 5
13F
 10
9904.761
 20
1873.33
 30
0
 11
9807.148
 21
1656.141
 31
0
 0
ARC
 8
TOOL_0
 5
140
 10
9715.025
 20
1697.545
 30
0
 40
100.999694776766
 50
269.999432715054
 51
335.798819111463
210
0
220
0
230
1.0
 0
LINE
 8
TOOL_0
 5
141
 10
9715.024
 20
1596.545
 30
0
 11
8784.693
 21
1596.545
 31
0
 0
LINE
 8
TOOL_0
 5
142
 10
8784.693
 20
1596.545
 30
0
 11
7914.133
 21
1787.457
 31
0
 0
ARC
 8
TOOL_0
 5
143
 10
7892.745
 20
1689.09
 30
0
 40
100.665352693963
 50
77.733074096339
 51
89.897549005903
210
0
220
0
230
1.0
 0
LINE
 8
TOOL_0
 5
144
 10
7892.925
 20
1789.755
 30
0
 11
7610.262
 21
1789.755
 31
0
 0
ARC
 8
TOOL_0
 5
145
 10
7610.262
 20
1797.755
 30
0
 40
8.0
 50
180.0
 51
270.0
210
0
220
0
230
1.0
 0
LINE
 8
TOOL_0
 5
146
 10
7602.262
 20
1797.755
 30
0
 11
7602.262
 21
2227.544
 31
0
 0
LINE
 8
TOOL_0
 5
147
 10
7602.262
 20
2227.544
 30
0
 11
9764.357
 21
2227.544
 31
0
 0
ARC
 8
TOOL_0
 5
148
 10
9772.457
 20
2231.605
 30
0
 40
9.061
 50
206.627264624286
 51
269.791330717982
210
0
220
0
230
1.0
 0
LINE
 8
TOOL_0
 5
149
 10
9772.424
 20
2222.544
 30
0
 11
9894.176
 21
2222.544
 31
0
 0
LINE
 8
TOOL_0
 5
14A
 10
9894.176
 20
2222.544
 30
0
 11
9904.762
 21
2211.958
 31
0
 0
LINE
 8
TOOL_0
 5
14B
 10
9904.762
 20
2211.958
 30
0
 11
9904.762
 21
2140.544
 31
0
 0
LINE
 8
TOOL_0
 5
14C
 10
9904.762
 20
2140.544
 30
0
 11
9883.762
 21
2140.544
 31
0
 0
ARC
 8
TOOL_0
 5
14D
 10
9883.762
 20
2061.544
 30
0
 40
79.0
 50
90.0
 51
270.0
210
0
220
0
230
1.0
 0
LINE
 8
TOOL_0
 5
14E
 10
9883.762
 20
1982.544
 30
0
 11
9904.762
 21
1982.544
 31
0
 0
LINE
 8
TOOL_0
 5
14F
 10
9904.762
 20
1982.544
 30
0
 11
9910.509
 21
1982.457
 31
0
 0
LINE
 8
TOOL_0
 5
150
 10
9910.509
 20
1982.457
 30
0
 11
10894.5
 21
1402.246
 31
0
 0
LINE
 8
TOOL_0
 5
151
 10
10894.5
 20
1402.246
 30
0
 11
10923.536
 21
1402.246
 31
0
 0
LINE
 8
TOOL_0
 5
152
 10
10923.536
 20
1402.246
 30
0
 11
10923.536
 21
1479.746
 31
0
 0
ARC
 8
TOOL_0
 5
153
 10
10888.536
 20
1479.746
 30
0
 40
35.0
 50
0
 51
90.0
210
0
220
0
230
1.0
 0
LINE
 8
TOOL_0
 5
154
 10
10888.536
 20
1514.746
 30
0
 11
10663.536
 21
1514.746
 31
0
 0
ARC
 8
TOOL_0
 5
155
 10
10663.536
 20
1479.746
 30
0
 40
35.0
 50
90.0
 51
180.0
210
0
220
0
230
1.0
 0
LINE
 8
TOOL_0
 5
156
 10
10628.536
 20
1479.746
 30
0
 11
10628.536
 21
1324.746
 31
0
 0
ARC
 8
TOOL_0
 5
157
 10
10663.536
 20
1324.746
 30
0
 40
35.0
 50
180.0
 51
270.0
210
0
220
0
230
1.0
 0
LINE
 8
TOOL_0
 5
158
 10
10663.536
 20
1289.746
 30
0
 11
10888.536
 21
1289.746
 31
0
 0
ARC
 8
TOOL_0
 5
159
 10
10888.536
 20
1324.746
 30
0
 40
35.0
 50
270.0
 51
0
210
0
220
0
230
1.0
 0
LINE
 8
TOOL_0
 5
15A
 10
10923.536
 20
1324.746
 30
0
 11
10923.536
 21
1402.246
 31
0
 0
LINE
 8
TOOL_0
 5
15B
 10
10923.536
 20
1402.246
 30
0
 11
10920.255
 21
1406.053
 31
0
 0
LINE
 8
TOOL_0
 5
15C
 10
10920.255
 20
1406.053
 30
0
 11
10934.398
 21
2017.246
 31
0
 0
LINE
 8
TOOL_0
 5
15D
 10
10934.398
 20
2017.246
 30
0
 11
10963.536
 21
2017.246
 31
0
 0
LINE
 8
TOOL_0
 5
15E
 10
10963.536
 20
2017.246
 30
0
 11
10963.536
 21
2094.746
 31
0
 0
ARC
 8
TOOL_0
 5
15F
 10
10928.536
 20
2094.746
 30
0
 40
35.0
 50
0
 51
90.0
210
0
220
0
230
1.0
 0
LINE
 8
TOOL_0
 5
160
 10
10928.536
 20
2129.746
 30
0
 11
10663.536
 21
2129.746
 31
0
 0
ARC
 8
TOOL_0
 5
161
 10
10663.536
 20
2094.746
 30
0
 40
35.0
 50
90.0
 51
180.0
210
0
220
0
230
1.0
 0
LINE
 8
TOOL_0
 5
162
 10
10628.536
 20
2094.746
 30
0
 11
10628.536
 21
1939.746
 31
0
 0
ARC
 8
TOOL_0
 5
163
 10
10663.536
 20
1939.746
 30
0
 40
35.0
 50
180.0
 51
270.0
210
0
220
0
230
1.0
 0
LINE
 8
TOOL_0
 5
164
 10
10663.536
 20
1904.746
 30
0
 11
10928.536
 21
1904.746
 31
0
 0
ARC
 8
TOOL_0
 5
165
 10
10928.536
 20
1939.746
 30
0
 40
35.0
 50
270.0
 51
0
210
0
220
0
230
1.0
 0
LINE
 8
TOOL_0
 5
166
 10
10963.536
 20
1939.746
 30
0
 11
10963.536
 21
2017.246
 31
0
 0
LINE
 8
TOOL_0
 5
167
 10
10963.536
 20
2017.246
 30
0
 11
10959.568
 21
2021.701
 31
0
 0
LINE
 8
TOOL_0
 5
168
 10
10959.568
 20
2021.701
 30
0
 11
11362.922
 21
1894.746
 31
0
 0
LINE
 8
TOOL_0
 5
169
 10
11362.922
 20
1894.746
 30
0
 11
11392.536
 21
1894.746
 31
0
 0
LINE
 8
TOOL_0
 5
16A
 10
11392.536
 20
1894.746
 30
0
 11
11392.536
 21
2034.746
 31
0
 0
ARC
 8
TOOL_0
 5
16B
 10
11357.536
 20
2034.746
 30
0
 40
35.0
 50
0
 51
90.0
210
0
220
0
230
1.0
 0
LINE
 8
TOOL_0
 5
16C
 10
11357.536
 20
2069.746
 30
0
 11
11227.536
 21
2069.746
 31
0
 0
ARC
 8
TOOL_0
 5
16D
 10
11227.536
 20
2034.746
 30
0
 40
35.0
 50
90.0
 51
180.0
210
0
220
0
230
1.0
 0
LINE
 8
TOOL_0
 5
16E
 10
11192.536
 20
2034.746
 30
0
 11
11192.536
 21
1754.746
 31
0
 0
ARC
 8
TOOL_0
 5
16F
 10
11227.536
 20
1754.746
 30
0
 40
35.0
 50
180.0
 51
270.0
210
0
220
0
230
1.0
 0
LINE
 8
TOOL_0
 5
170
 10
11227.536
 20
1719.746
 30
0
 11
11357.536
 21
1719.746
 31
0
 0
ARC
 8
TOOL_0
 5
171
 10
11357.536
 20
1754.746
 30
0
 40
35.0
 50
270.0
 51
0
210
0
220
0
230
1.0
 0
LINE
 8
TOOL_0
 5
172
 10
11392.536
 20
1754.746
 30
0
 11
11392.536
 21
1894.746
 31
0
 0
LINE
 8
TOOL_0
 5
173
 10
11392.536
 20
1894.746
 30
0
 11
11389.24
 21
1898.886
 31
0
 0
LINE
 8
TOOL_0
 5
174
 10
11389.24
 20
1898.886
 30
0
 11
11363.112
 21
1427.246
 31
0
 0
LINE
 8
TOOL_0
 5
175
 10
11363.112
 20
1427.246
 30
0
 11
11392.536
 21
1427.246
 31
0
 0
LINE
 8
TOOL_0
 5
176
 10
11392.536
 20
1427.246
 30
0
 11
11392.536
 21
1529.746
 31
0
 0
ARC
 8
TOOL_0
 5
177
 10
11357.536
 20
1529.746
 30
0
 40
35.0
 50
0
 51
90.0
210
0
220
0
230
1.0
 0
LINE
 8
TOOL_0
 5
178
 10
11357.536
 20
1564.746
 30
0
 11
11227.536
 21
1564.746
 31
0
 0
ARC
 8
TOOL_0
 5
179
 10
11227.536
 20
1529.746
 30
0
 40
35.0
 50
90.0
 51
180.0
210
0
220
0
230
1.0
 0
LINE
 8
TOOL_0
 5
17A
 10
11192.536
 20
1529.746
 30
0
 11
11192.536
 21
1324.746
 31
0
 0
ARC
 8
TOOL_0
 5
17B
 10
11227.536
 20
1324.746
 30
0
 40
35.0
 50
180.0
 51
270.0
210
0
220
0
230
1.0
 0
LINE
 8
TOOL_0
 5
17C
 10
11227.536
 20
1289.746
 30
0
 11
11357.536
 21
1289.746
 31
0
 0
ARC
 8
TOOL_0
 5
17D
 10
11357.536
 20
1324.746
 30
0
 40
35.0
 50
270.0
 51
0
210
0
220
0
230
1.0
 0
LINE
 8
TOOL_0
 5
17E
 10
11392.536
 20
1324.746
 30
0
 11
11392.536
 21
1427.246
 31
0
 0
LINE
 8
TOOL_0
 5
17F
 10
11392.536
 20
1427.246
 30
0
 11
11388.961
 21
1430.974
 31
0
 0
LINE
 8
TOOL_0
 5
180
 10
11388.961
 20
1430.974
 30
0
 11
11282.492
 21
959.746
 31
0
 0
LINE
 8
TOOL_0
 5
181
 10
11282.492
 20
959.746
 30
0
 11
11312.536
 21
959.746
 31
0
 0
LINE
 8
TOOL_0
 5
182
 10
11312.536
 20
959.746
 30
0
 11
11312.536
 21
1074.746
 31
0
 0
ARC
 8
TOOL_0
 5
183
 10
11277.536
 20
1074.746
 30
0
 40
35.0
 50
0
 51
90.0
210
0
220
0
230
1.0
 0
LINE
 8
TOOL_0
 5
184
 10
11277.536
 20
1109.746
 30
0
 11
10886.325
 21
1109.746
 31
0
 0
ARC
 8
TOOL_0
 5
185
 10
10886.325
 20
1074.746
 30
0
 40
35.0
 50
90.0
 51
192.368823070715
210
0
220
0
230
1.0
 0
LINE
 8
TOOL_0
 5
186
 10
10852.138
 20
1067.249
 30
0
 11
10902.577
 21
837.249
 31
0
 0
ARC
 8
TOOL_0
 5
187
 10
10936.778
 20
844.763
 30
0
 40
35.016690263358
 50
192.391086694294
 51
269.977092815764
210
0
220
0
230
1.0
 0
LINE
 8
TOOL_0
 5
188
 10
10936.764
 20
809.746
 30
0
 11
11277.536
 21
809.746
 31
0
 0
ARC
 8
TOOL_0
 5
189
 10
11277.536
 20
844.746
 30
0
 40
35.0
 50
270.0
 51
0
210
0
220
0
230
1.0
 0
LINE
 8
TOOL_0
 5
18A
 10
11312.536
 20
844.746
 30
0
 11
11312.536
 21
959.746
 31
0
 0
LINE
 8
TOOL_0
 5
18B
 10
11312.536
 20
959.746
 30
0
 11
11308.55
 21
963.09
 31
0
 0
LINE
 8
TOOL_0
 5
18C
 10
11308.55
 20
963.09
 30
0
 11
11281.923
 21
464.746
 31
0
 0
LINE
 8
TOOL_0
 5
18D
 10
11281.923
 20
464.746
 30
0
 11
11312.536
 21
464.746
 31
0
 0
LINE
 8
TOOL_0
 5
18E
 10
11312.536
 20
464.746
 30
0
 11
11312.536
 21
649.746
 31
0
 0
ARC
 8
TOOL_0
 5
18F
 10
11277.536
 20
649.746
 30
0
 40
35.0
 50
0
 51
90.0
210
0
220
0
230
1.0
 0
LINE
 8
TOOL_0
 5
190
 10
11277.536
 20
684.746
 30
0
 11
10979.527
 21
684.746
 31
0
 0
ARC
 8
TOOL_0
 5
191
 10
10979.527
 20
649.746
 30
0
 40
35.0
 50
90.0
 51
192.368472417729
210
0
220
0
230
1.0
 0
LINE
 8
TOOL_0
 5
192
 10
10945.339
 20
642.249
 30
0
 11
11026.479
 21
272.249
 31
0
 0
ARC
 8
TOOL_0
 5
193
 10
11060.68
 20
279.763
 30
0
 40
35.016690263358
 50
192.391086694294
 51
269.977092815764
210
0
220
0
230
1.0
 0
LINE
 8
TOOL_0
 5
194
 10
11060.666
 20
244.746
 30
0
 11
11277.535
 21
244.746
 31
0
 0
ARC
 8
TOOL_0
 5
195
 10
11277.535
 20
279.746
 30
0
 40
35.0
 50
270.0
 51
0
210
0
220
0
230
1.0
 0
LINE
 8
TOOL_0
 5
196
 10
11312.535
 20
279.746
 30
0
 11
11312.535
 21
464.746
 31
0
 0
LINE
 8
TOOL_0
 5
197
 10
11312.535
 20
464.746
 30
0
 11
11308.804
 21
468.569
 31
0
 0
LINE
 8
TOOL_0
 5
198
 10
11308.804
 20
468.569
 30
0
 11
11397.869
 21
2320.496
 31
0
 0
LINE
 8
TOOL_0
 5
199
 10
11397.869
 20
2320.496
 30
0
 11
11426.785
 21
2320.496
 31
0
 0
LINE
 8
TOOL_0
 5
19A
 10
11426.785
 20
2320.496
 30
0
 11
11497.846
 21
2320.496
 31
0
 0
LINE
 8
TOOL_0
 5
19B
 10
11497.846
 20
2320.496
 30
0
 11
11508.285
 21
2310.057
 31
0
 0
LINE
 8
TOOL_0
 5
19C
 10
11508.285
 20
2310.057
 30
0
 11
11508.285
 21
2188.407
 31
0
 0
ARC
 8
TOOL_0
 5
19D
 10
11517.563
 20
2188.424
 30
0
 40
9.278015574464
 50
180.104982448985
 51
242.542881653085
210
0
220
0
230
1.0
 0
LINE
 8
TOOL_0
 5
19E
 10
11513.285
 20
2180.191
 30
0
 11
11513.285
 21
18.997
 31
0
 0
LINE
 8
TOOL_0
 5
19F
 10
11513.285
 20
18.997
 30
0
 11
10665.746
 21
18.997
 31
0
 0
ARC
 8
TOOL_0
 5
1A0
 10
10665.746
 20
27.747
 30
0
 40
8.75
 50
180.0
 51
270.0
210
0
220
0
230
1.0
 0
LINE
 8
TOOL_0
 5
1A1
 10
10656.996
 20
27.747
 30
0
 11
10656.996
 21
308.911
 31
0
 0
ARC
 8
TOOL_0
 5
1A2
 10
10556.923
 20
308.822
 30
0
 40
100.073039576102
 50
0.050956032419
 51
12.296736662343
210
0
220
0
230
1.0
 0
LINE
 8
TOOL_0
 5
1A3
 10
10654.7
 20
330.135
 30
0
 11
10467.785
 21
1182.466
 31
0
 0
LINE
 8
TOOL_0
 5
1A4
 10
10467.785
 20
1182.466
 30
0
 11
10467.785
 21
2132.808
 31
0
 0
ARC
 8
TOOL_0
 5
1A5
 10
10568.535
 20
2132.808
 30
0
 40
100.75
 50
114.249293164871
 51
180.0
210
0
220
0
230
1.0
 0
LINE
 8
TOOL_0
 5
1A6
 10
10527.156
 20
2224.669
 30
0
 11
10740.374
 21
2320.497
 31
0
 0
LINE
 8
TOOL_0
 5
1A7
 10
10740.374
 20
2320.497
 30
0
 11
11268.285
 21
2320.497
 31
0
 0
LINE
 8
TOOL_0
 5
1A8
 10
11268.285
 20
2320.497
 30
0
 11
11268.285
 21
2299.747
 31
0
 0
ARC
 8
TOOL_0
 5
1A9
 10
11347.535
 20
2299.747
 30
0
 40
79.25
 50
180.0
 51
0
210
0
220
0
230
1.0
 0
LINE
 8
TOOL_0
 5
1AA
 10
11426.785
 20
2299.747
 30
0
 11
11426.785
 21
2320.497
 31
0
 0
LINE
 8
TOOL_0
 5
1AB
 10
11426.785
 20
2320.497
 30
0
 11
11426.785
 21
2325.624
 31
0
 0
ENDSEC
 0
EOF

