0
SECTION
2
TABLES
0
TABLE
2
LAYER
70
0
0
LAYER
2
LAYER_NAME
70
0
62
1
6
CONTINUOUS
0
ENDTAB
0
ENDSEC
 0
SECTION
 2
ENTITIES
 0
LINE
 8
TOOL_0
 5
1
 10
882.501
 20
51.439
 30
0
 11
882.688
 21
20.238
 31
0
 0
LINE
 8
TOOL_0
 5
2
 10
882.688
 20
20.238
 30
0
 11
871.5
 21
20.001
 31
0
 0
LINE
 8
TOOL_0
 5
3
 10
871.5
 20
20.001
 30
0
 11
20.0
 21
20.001
 31
0
 0
LINE
 8
TOOL_0
 5
4
 10
20.0
 20
20.001
 30
0
 11
20.0
 21
366.501
 31
0
 0
LINE
 8
TOOL_0
 5
5
 10
20.0
 20
366.501
 30
0
 11
871.5
 21
366.501
 31
0
 0
LINE
 8
TOOL_0
 5
6
 10
871.5
 20
366.501
 30
0
 11
871.5
 21
20.001
 31
0
 0
LINE
 8
TOOL_0
 5
7
 10
871.5
 20
20.001
 30
0
 11
871.82
 21
14.599
 31
0
 0
LINE
 8
TOOL_0
 5
8
 10
871.82
 20
14.599
 30
0
 11
501.654
 21
785.106
 31
0
 0
LINE
 8
TOOL_0
 5
9
 10
501.654
 20
785.106
 30
0
 11
501.904
 21
753.319
 31
0
 0
LINE
 8
TOOL_0
 5
A
 10
501.904
 20
753.319
 30
0
 11
490.0
 21
753.27
 31
0
 0
LINE
 8
TOOL_0
 5
B
 10
490.0
 20
753.27
 30
0
 11
20.0
 21
753.27
 31
0
 0
LINE
 8
TOOL_0
 5
C
 10
20.0
 20
753.27
 30
0
 11
20.0
 21
1153.27
 31
0
 0
LINE
 8
TOOL_0
 5
D
 10
20.0
 20
1153.27
 30
0
 11
490.0
 21
1153.27
 31
0
 0
LINE
 8
TOOL_0
 5
E
 10
490.0
 20
1153.27
 30
0
 11
490.0
 21
753.27
 31
0
 0
LINE
 8
TOOL_0
 5
F
 10
490.0
 20
753.27
 30
0
 11
490.301
 21
748.188
 31
0
 0
LINE
 8
TOOL_0
 5
10
 10
490.301
 20
748.188
 30
0
 11
501.654
 21
1205.125
 31
0
 0
LINE
 8
TOOL_0
 5
11
 10
501.654
 20
1205.125
 30
0
 11
501.904
 21
1173.338
 31
0
 0
LINE
 8
TOOL_0
 5
12
 10
501.904
 20
1173.338
 30
0
 11
490.0
 21
1173.289
 31
0
 0
LINE
 8
TOOL_0
 5
13
 10
490.0
 20
1173.289
 30
0
 11
20.0
 21
1173.289
 31
0
 0
LINE
 8
TOOL_0
 5
14
 10
20.0
 20
1173.289
 30
0
 11
20.0
 21
1573.289
 31
0
 0
LINE
 8
TOOL_0
 5
15
 10
20.0
 20
1573.289
 30
0
 11
490.0
 21
1573.289
 31
0
 0
LINE
 8
TOOL_0
 5
16
 10
490.0
 20
1573.289
 30
0
 11
490.0
 21
1173.289
 31
0
 0
LINE
 8
TOOL_0
 5
17
 10
490.0
 20
1173.289
 30
0
 11
490.301
 21
1168.207
 31
0
 0
LINE
 8
TOOL_0
 5
18
 10
490.301
 20
1168.207
 30
0
 11
882.501
 21
417.984
 31
0
 0
LINE
 8
TOOL_0
 5
19
 10
882.501
 20
417.984
 30
0
 11
882.688
 21
386.783
 31
0
 0
LINE
 8
TOOL_0
 5
1A
 10
882.688
 20
386.783
 30
0
 11
871.5
 21
386.546
 31
0
 0
LINE
 8
TOOL_0
 5
1B
 10
871.5
 20
386.546
 30
0
 11
20.0
 21
386.546
 31
0
 0
LINE
 8
TOOL_0
 5
1C
 10
20.0
 20
386.546
 30
0
 11
20.0
 21
733.046
 31
0
 0
LINE
 8
TOOL_0
 5
1D
 10
20.0
 20
733.046
 30
0
 11
871.5
 21
733.046
 31
0
 0
LINE
 8
TOOL_0
 5
1E
 10
871.5
 20
733.046
 30
0
 11
871.5
 21
386.546
 31
0
 0
LINE
 8
TOOL_0
 5
1F
 10
871.5
 20
386.546
 30
0
 11
871.82
 21
381.144
 31
0
 0
LINE
 8
TOOL_0
 5
20
 10
871.82
 20
381.144
 30
0
 11
796.113
 21
923.107
 31
0
 0
LINE
 8
TOOL_0
 5
21
 10
796.113
 20
923.107
 30
0
 11
816.113
 21
923.107
 31
0
 0
ARC
 8
TOOL_0
 5
22
 10
776.113
 20
923.107
 30
0
 40
40.0
 50
0
 51
180.0
210
0
220
0
230
1.0
 0
ARC
 8
TOOL_0
 5
23
 10
776.113
 20
923.107
 30
0
 40
40.0
 50
180.0
 51
0
210
0
220
0
230
1.0
 0
LINE
 8
TOOL_0
 5
24
 10
816.113
 20
923.107
 30
0
 11
812.577
 21
926.643
 31
0
 0
LINE
 8
TOOL_0
 5
25
 10
812.577
 20
926.643
 30
0
 11
885.714
 21
778.453
 31
0
 0
LINE
 8
TOOL_0
 5
26
 10
885.714
 20
778.453
 30
0
 11
885.714
 21
752.346
 31
0
 0
LINE
 8
TOOL_0
 5
27
 10
885.714
 20
752.346
 30
0
 11
864.113
 21
753.107
 31
0
 0
LINE
 8
TOOL_0
 5
28
 10
864.113
 20
753.107
 30
0
 11
521.113
 21
753.107
 31
0
 0
ARC
 8
TOOL_0
 5
29
 10
521.113
 20
764.107
 30
0
 40
11.0
 50
180.0
 51
270.0
210
0
220
0
230
1.0
 0
LINE
 8
TOOL_0
 5
2A
 10
510.113
 20
764.107
 30
0
 11
510.113
 21
1092.107
 31
0
 0
ARC
 8
TOOL_0
 5
2B
 10
521.113
 20
1092.107
 30
0
 40
11.0
 50
90.0
 51
180.0
210
0
220
0
230
1.0
 0
LINE
 8
TOOL_0
 5
2C
 10
521.113
 20
1103.107
 30
0
 11
864.113
 21
1103.107
 31
0
 0
ARC
 8
TOOL_0
 5
2D
 10
864.113
 20
1092.107
 30
0
 40
11.0
 50
0
 51
90.0
210
0
220
0
230
1.0
 0
LINE
 8
TOOL_0
 5
2E
 10
875.113
 20
1092.107
 30
0
 11
875.113
 21
764.107
 31
0
 0
ARC
 8
TOOL_0
 5
2F
 10
864.113
 20
764.107
 30
0
 40
11.0
 50
270.0
 51
0
210
0
220
0
230
1.0
 0
LINE
 8
TOOL_0
 5
30
 10
864.113
 20
753.107
 30
0
 11
859.347
 21
751.178
 31
0
 0
LINE
 8
TOOL_0
 5
31
 10
859.347
 20
751.178
 30
0
 11
796.94
 21
1293.354
 31
0
 0
LINE
 8
TOOL_0
 5
32
 10
796.94
 20
1293.354
 30
0
 11
816.94
 21
1293.354
 31
0
 0
ARC
 8
TOOL_0
 5
33
 10
776.94
 20
1293.354
 30
0
 40
40.0
 50
0
 51
180.0
210
0
220
0
230
1.0
 0
ARC
 8
TOOL_0
 5
34
 10
776.94
 20
1293.354
 30
0
 40
40.0
 50
180.0
 51
0
210
0
220
0
230
1.0
 0
LINE
 8
TOOL_0
 5
35
 10
816.94
 20
1293.354
 30
0
 11
813.404
 21
1296.89
 31
0
 0
LINE
 8
TOOL_0
 5
36
 10
813.404
 20
1296.89
 30
0
 11
886.541
 21
1148.7
 31
0
 0
LINE
 8
TOOL_0
 5
37
 10
886.541
 20
1148.7
 30
0
 11
886.541
 21
1122.593
 31
0
 0
LINE
 8
TOOL_0
 5
38
 10
886.541
 20
1122.593
 30
0
 11
864.94
 21
1123.354
 31
0
 0
LINE
 8
TOOL_0
 5
39
 10
864.94
 20
1123.354
 30
0
 11
521.94
 21
1123.354
 31
0
 0
ARC
 8
TOOL_0
 5
3A
 10
521.94
 20
1134.354
 30
0
 40
11.0
 50
180.0
 51
270.0
210
0
220
0
230
1.0
 0
LINE
 8
TOOL_0
 5
3B
 10
510.94
 20
1134.354
 30
0
 11
510.94
 21
1462.354
 31
0
 0
ARC
 8
TOOL_0
 5
3C
 10
521.94
 20
1462.354
 30
0
 40
11.0
 50
90.0
 51
180.0
210
0
220
0
230
1.0
 0
LINE
 8
TOOL_0
 5
3D
 10
521.94
 20
1473.354
 30
0
 11
864.94
 21
1473.354
 31
0
 0
ARC
 8
TOOL_0
 5
3E
 10
864.94
 20
1462.354
 30
0
 40
11.0
 50
0
 51
90.0
210
0
220
0
230
1.0
 0
LINE
 8
TOOL_0
 5
3F
 10
875.94
 20
1462.354
 30
0
 11
875.94
 21
1134.354
 31
0
 0
ARC
 8
TOOL_0
 5
40
 10
864.94
 20
1134.354
 30
0
 40
11.0
 50
270.0
 51
0
210
0
220
0
230
1.0
 0
LINE
 8
TOOL_0
 5
41
 10
864.94
 20
1123.354
 30
0
 11
860.174
 21
1121.425
 31
0
 0
LINE
 8
TOOL_0
 5
42
 10
860.174
 20
1121.425
 30
0
 11
796.113
 21
1663.601
 31
0
 0
LINE
 8
TOOL_0
 5
43
 10
796.113
 20
1663.601
 30
0
 11
816.113
 21
1663.601
 31
0
 0
ARC
 8
TOOL_0
 5
44
 10
776.113
 20
1663.601
 30
0
 40
40.0
 50
0
 51
180.0
210
0
220
0
230
1.0
 0
ARC
 8
TOOL_0
 5
45
 10
776.113
 20
1663.601
 30
0
 40
40.0
 50
180.0
 51
0
210
0
220
0
230
1.0
 0
LINE
 8
TOOL_0
 5
46
 10
816.113
 20
1663.601
 30
0
 11
812.577
 21
1667.137
 31
0
 0
LINE
 8
TOOL_0
 5
47
 10
812.577
 20
1667.137
 30
0
 11
885.714
 21
1518.947
 31
0
 0
LINE
 8
TOOL_0
 5
48
 10
885.714
 20
1518.947
 30
0
 11
885.714
 21
1492.84
 31
0
 0
LINE
 8
TOOL_0
 5
49
 10
885.714
 20
1492.84
 30
0
 11
864.113
 21
1493.601
 31
0
 0
LINE
 8
TOOL_0
 5
4A
 10
864.113
 20
1493.601
 30
0
 11
521.113
 21
1493.601
 31
0
 0
ARC
 8
TOOL_0
 5
4B
 10
521.113
 20
1504.601
 30
0
 40
11.0
 50
180.0
 51
270.0
210
0
220
0
230
1.0
 0
LINE
 8
TOOL_0
 5
4C
 10
510.113
 20
1504.601
 30
0
 11
510.113
 21
1832.601
 31
0
 0
ARC
 8
TOOL_0
 5
4D
 10
521.113
 20
1832.601
 30
0
 40
11.0
 50
90.0
 51
180.0
210
0
220
0
230
1.0
 0
LINE
 8
TOOL_0
 5
4E
 10
521.113
 20
1843.601
 30
0
 11
864.113
 21
1843.601
 31
0
 0
ARC
 8
TOOL_0
 5
4F
 10
864.113
 20
1832.601
 30
0
 40
11.0
 50
0
 51
90.0
210
0
220
0
230
1.0
 0
LINE
 8
TOOL_0
 5
50
 10
875.113
 20
1832.601
 30
0
 11
875.113
 21
1504.601
 31
0
 0
ARC
 8
TOOL_0
 5
51
 10
864.113
 20
1504.601
 30
0
 40
11.0
 50
270.0
 51
0
210
0
220
0
230
1.0
 0
LINE
 8
TOOL_0
 5
52
 10
864.113
 20
1493.601
 30
0
 11
859.347
 21
1491.672
 31
0
 0
LINE
 8
TOOL_0
 5
53
 10
859.347
 20
1491.672
 30
0
 11
1047.421
 21
396.905
 31
0
 0
LINE
 8
TOOL_0
 5
54
 10
1047.421
 20
396.905
 30
0
 11
1019.421
 21
396.905
 31
0
 0
ARC
 8
TOOL_0
 5
55
 10
1001.036
 20
415.29
 30
0
 40
26.000316344229
 50
270.0
 51
315.0
210
0
220
0
230
1.0
 0
LINE
 8
TOOL_0
 5
56
 10
1001.036
 20
389.29
 30
0
 11
916.736
 21
389.29
 31
0
 0
ARC
 8
TOOL_0
 5
57
 10
916.736
 20
415.29
 30
0
 40
26.0
 50
180.0
 51
270.0
210
0
220
0
230
1.0
 0
LINE
 8
TOOL_0
 5
58
 10
890.736
 20
415.29
 30
0
 11
890.736
 21
610.29
 31
0
 0
ARC
 8
TOOL_0
 5
59
 10
916.736
 20
610.29
 30
0
 40
26.0
 50
90.0
 51
180.0
210
0
220
0
230
1.0
 0
LINE
 8
TOOL_0
 5
5A
 10
916.736
 20
636.29
 30
0
 11
1001.036
 21
636.29
 31
0
 0
ARC
 8
TOOL_0
 5
5B
 10
1001.036
 20
610.29
 30
0
 40
26.0
 50
0
 51
90.0
210
0
220
0
230
1.0
 0
LINE
 8
TOOL_0
 5
5C
 10
1027.036
 20
610.29
 30
0
 11
1027.036
 21
415.29
 31
0
 0
ARC
 8
TOOL_0
 5
5D
 10
1001.036
 20
415.29
 30
0
 40
26.0
 50
315.0
 51
0
210
0
220
0
230
1.0
 0
LINE
 8
TOOL_0
 5
5E
 10
1019.421
 20
396.905
 30
0
 11
1019.421
 21
391.905
 31
0
 0
LINE
 8
TOOL_0
 5
5F
 10
1019.421
 20
391.905
 30
0
 11
1051.005
 21
662.078
 31
0
 0
LINE
 8
TOOL_0
 5
60
 10
1051.005
 20
662.078
 30
0
 11
1023.005
 21
662.078
 31
0
 0
ARC
 8
TOOL_0
 5
61
 10
1004.62
 20
680.463
 30
0
 40
26.000316344229
 50
270.0
 51
315.0
210
0
220
0
230
1.0
 0
LINE
 8
TOOL_0
 5
62
 10
1004.62
 20
654.463
 30
0
 11
920.32
 21
654.463
 31
0
 0
ARC
 8
TOOL_0
 5
63
 10
920.32
 20
680.463
 30
0
 40
26.0
 50
180.0
 51
270.0
210
0
220
0
230
1.0
 0
LINE
 8
TOOL_0
 5
64
 10
894.32
 20
680.463
 30
0
 11
894.32
 21
875.463
 31
0
 0
ARC
 8
TOOL_0
 5
65
 10
920.32
 20
875.463
 30
0
 40
26.0
 50
90.0
 51
180.0
210
0
220
0
230
1.0
 0
LINE
 8
TOOL_0
 5
66
 10
920.32
 20
901.463
 30
0
 11
1004.62
 21
901.463
 31
0
 0
ARC
 8
TOOL_0
 5
67
 10
1004.62
 20
875.463
 30
0
 40
26.0
 50
0
 51
90.0
210
0
220
0
230
1.0
 0
LINE
 8
TOOL_0
 5
68
 10
1030.62
 20
875.463
 30
0
 11
1030.62
 21
680.463
 31
0
 0
ARC
 8
TOOL_0
 5
69
 10
1004.62
 20
680.463
 30
0
 40
26.0
 50
315.0
 51
0
210
0
220
0
230
1.0
 0
LINE
 8
TOOL_0
 5
6A
 10
1023.005
 20
662.078
 30
0
 11
1023.005
 21
657.078
 31
0
 0
LINE
 8
TOOL_0
 5
6B
 10
1023.005
 20
657.078
 30
0
 11
1051.832
 21
928.357
 31
0
 0
LINE
 8
TOOL_0
 5
6C
 10
1051.832
 20
928.357
 30
0
 11
1023.832
 21
928.357
 31
0
 0
ARC
 8
TOOL_0
 5
6D
 10
1005.447
 20
946.742
 30
0
 40
26.000316344229
 50
270.0
 51
315.0
210
0
220
0
230
1.0
 0
LINE
 8
TOOL_0
 5
6E
 10
1005.447
 20
920.742
 30
0
 11
921.147
 21
920.742
 31
0
 0
ARC
 8
TOOL_0
 5
6F
 10
921.147
 20
946.742
 30
0
 40
26.0
 50
180.0
 51
270.0
210
0
220
0
230
1.0
 0
LINE
 8
TOOL_0
 5
70
 10
895.147
 20
946.742
 30
0
 11
895.147
 21
1141.742
 31
0
 0
ARC
 8
TOOL_0
 5
71
 10
921.147
 20
1141.742
 30
0
 40
26.0
 50
90.0
 51
180.0
210
0
220
0
230
1.0
 0
LINE
 8
TOOL_0
 5
72
 10
921.147
 20
1167.742
 30
0
 11
1005.447
 21
1167.742
 31
0
 0
ARC
 8
TOOL_0
 5
73
 10
1005.447
 20
1141.742
 30
0
 40
26.0
 50
0
 51
90.0
210
0
220
0
230
1.0
 0
LINE
 8
TOOL_0
 5
74
 10
1031.447
 20
1141.742
 30
0
 11
1031.447
 21
946.742
 31
0
 0
ARC
 8
TOOL_0
 5
75
 10
1005.447
 20
946.742
 30
0
 40
26.0
 50
315.0
 51
0
210
0
220
0
230
1.0
 0
LINE
 8
TOOL_0
 5
76
 10
1023.832
 20
928.357
 30
0
 11
1023.832
 21
923.357
 31
0
 0
LINE
 8
TOOL_0
 5
77
 10
1023.832
 20
923.357
 30
0
 11
1051.832
 21
1193.53
 31
0
 0
LINE
 8
TOOL_0
 5
78
 10
1051.832
 20
1193.53
 30
0
 11
1023.832
 21
1193.53
 31
0
 0
ARC
 8
TOOL_0
 5
79
 10
1005.447
 20
1211.915
 30
0
 40
26.000316344229
 50
270.0
 51
315.0
210
0
220
0
230
1.0
 0
LINE
 8
TOOL_0
 5
7A
 10
1005.447
 20
1185.915
 30
0
 11
921.147
 21
1185.915
 31
0
 0
ARC
 8
TOOL_0
 5
7B
 10
921.147
 20
1211.915
 30
0
 40
26.0
 50
180.0
 51
270.0
210
0
220
0
230
1.0
 0
LINE
 8
TOOL_0
 5
7C
 10
895.147
 20
1211.915
 30
0
 11
895.147
 21
1406.915
 31
0
 0
ARC
 8
TOOL_0
 5
7D
 10
921.147
 20
1406.915
 30
0
 40
26.0
 50
90.0
 51
180.0
210
0
220
0
230
1.0
 0
LINE
 8
TOOL_0
 5
7E
 10
921.147
 20
1432.915
 30
0
 11
1005.447
 21
1432.915
 31
0
 0
ARC
 8
TOOL_0
 5
7F
 10
1005.447
 20
1406.915
 30
0
 40
26.0
 50
0
 51
90.0
210
0
220
0
230
1.0
 0
LINE
 8
TOOL_0
 5
80
 10
1031.447
 20
1406.915
 30
0
 11
1031.447
 21
1211.915
 31
0
 0
ARC
 8
TOOL_0
 5
81
 10
1005.447
 20
1211.915
 30
0
 40
26.0
 50
315.0
 51
0
210
0
220
0
230
1.0
 0
LINE
 8
TOOL_0
 5
82
 10
1023.832
 20
1193.53
 30
0
 11
1023.832
 21
1188.53
 31
0
 0
LINE
 8
TOOL_0
 5
83
 10
1023.832
 20
1188.53
 30
0
 11
308.22
 21
1763.422
 31
0
 0
LINE
 8
TOOL_0
 5
84
 10
308.22
 20
1763.422
 30
0
 11
328.22
 21
1763.422
 31
0
 0
ARC
 8
TOOL_0
 5
85
 10
288.22
 20
1763.422
 30
0
 40
40.0
 50
0
 51
180.0
210
0
220
0
230
1.0
 0
ARC
 8
TOOL_0
 5
86
 10
288.22
 20
1763.422
 30
0
 40
40.0
 50
180.0
 51
0
210
0
220
0
230
1.0
 0
LINE
 8
TOOL_0
 5
87
 10
328.22
 20
1763.422
 30
0
 11
324.684
 21
1766.958
 31
0
 0
LINE
 8
TOOL_0
 5
88
 10
324.684
 20
1766.958
 30
0
 11
397.821
 21
1618.768
 31
0
 0
LINE
 8
TOOL_0
 5
89
 10
397.821
 20
1618.768
 30
0
 11
397.821
 21
1592.661
 31
0
 0
LINE
 8
TOOL_0
 5
8A
 10
397.821
 20
1592.661
 30
0
 11
376.22
 21
1593.422
 31
0
 0
LINE
 8
TOOL_0
 5
8B
 10
376.22
 20
1593.422
 30
0
 11
33.22
 21
1593.422
 31
0
 0
ARC
 8
TOOL_0
 5
8C
 10
33.22
 20
1604.422
 30
0
 40
11.0
 50
180.0
 51
270.0
210
0
220
0
230
1.0
 0
LINE
 8
TOOL_0
 5
8D
 10
22.22
 20
1604.422
 30
0
 11
22.22
 21
1932.422
 31
0
 0
ARC
 8
TOOL_0
 5
8E
 10
33.22
 20
1932.422
 30
0
 40
11.0
 50
90.0
 51
180.0
210
0
220
0
230
1.0
 0
LINE
 8
TOOL_0
 5
8F
 10
33.22
 20
1943.422
 30
0
 11
376.22
 21
1943.422
 31
0
 0
ARC
 8
TOOL_0
 5
90
 10
376.22
 20
1932.422
 30
0
 40
11.0
 50
0
 51
90.0
210
0
220
0
230
1.0
 0
LINE
 8
TOOL_0
 5
91
 10
387.22
 20
1932.422
 30
0
 11
387.22
 21
1604.422
 31
0
 0
ARC
 8
TOOL_0
 5
92
 10
376.22
 20
1604.422
 30
0
 40
11.0
 50
270.0
 51
0
210
0
220
0
230
1.0
 0
LINE
 8
TOOL_0
 5
93
 10
376.22
 20
1593.422
 30
0
 11
371.454
 21
1591.493
 31
0
 0
LINE
 8
TOOL_0
 5
94
 10
371.454
 20
1591.493
 30
0
 11
1177.606
 21
190.002
 31
0
 0
LINE
 8
TOOL_0
 5
95
 10
1177.606
 20
190.002
 30
0
 11
1197.606
 21
190.002
 31
0
 0
ARC
 8
TOOL_0
 5
96
 10
1157.606
 20
190.002
 30
0
 40
40.0
 50
0
 51
180.0
210
0
220
0
230
1.0
 0
ARC
 8
TOOL_0
 5
97
 10
1157.606
 20
190.002
 30
0
 40
40.0
 50
180.0
 51
0
210
0
220
0
230
1.0
 0
LINE
 8
TOOL_0
 5
98
 10
1197.606
 20
190.002
 30
0
 11
1194.07
 21
193.538
 31
0
 0
LINE
 8
TOOL_0
 5
99
 10
1194.07
 20
193.538
 30
0
 11
1267.207
 21
45.348
 31
0
 0
LINE
 8
TOOL_0
 5
9A
 10
1267.207
 20
45.348
 30
0
 11
1267.207
 21
19.241
 31
0
 0
LINE
 8
TOOL_0
 5
9B
 10
1267.207
 20
19.241
 30
0
 11
1245.606
 21
20.002
 31
0
 0
LINE
 8
TOOL_0
 5
9C
 10
1245.606
 20
20.002
 30
0
 11
902.606
 21
20.002
 31
0
 0
ARC
 8
TOOL_0
 5
9D
 10
902.606
 20
31.002
 30
0
 40
11.0
 50
180.0
 51
270.0
210
0
220
0
230
1.0
 0
LINE
 8
TOOL_0
 5
9E
 10
891.606
 20
31.002
 30
0
 11
891.606
 21
359.002
 31
0
 0
ARC
 8
TOOL_0
 5
9F
 10
902.606
 20
359.002
 30
0
 40
11.0
 50
90.0
 51
180.0
210
0
220
0
230
1.0
 0
LINE
 8
TOOL_0
 5
A0
 10
902.606
 20
370.002
 30
0
 11
1245.606
 21
370.002
 31
0
 0
ARC
 8
TOOL_0
 5
A1
 10
1245.606
 20
359.002
 30
0
 40
11.0
 50
0
 51
90.0
210
0
220
0
230
1.0
 0
LINE
 8
TOOL_0
 5
A2
 10
1256.606
 20
359.002
 30
0
 11
1256.606
 21
31.002
 31
0
 0
ARC
 8
TOOL_0
 5
A3
 10
1245.606
 20
31.002
 30
0
 40
11.0
 50
270.0
 51
0
210
0
220
0
230
1.0
 0
LINE
 8
TOOL_0
 5
A4
 10
1245.606
 20
20.002
 30
0
 11
1240.84
 21
18.073
 31
0
 0
LINE
 8
TOOL_0
 5
A5
 10
1240.84
 20
18.073
 30
0
 11
1307.726
 21
0.001
 31
0
 0
LINE
 8
TOOL_0
 5
A6
 10
1307.726
 20
0.001
 30
0
 11
1307.726
 21
1.001
 31
0
 0
LINE
 8
TOOL_0
 5
A7
 10
1307.726
 20
1.001
 30
0
 11
1307.726
 21
0.001
 31
0
 0
LINE
 8
TOOL_0
 5
A8
 10
1307.726
 20
0.001
 30
0
 11
1307.726
 21
1.001
 31
0
 0
LINE
 8
TOOL_0
 5
A9
 10
1307.726
 20
1.001
 30
0
 11
1307.726
 21
411.449
 31
0
 0
LINE
 8
TOOL_0
 5
AA
 10
1307.726
 20
411.449
 30
0
 11
1076.317
 21
411.449
 31
0
 0
LINE
 8
TOOL_0
 5
AB
 10
1076.317
 20
411.449
 30
0
 11
1076.317
 21
1467.594
 31
0
 0
LINE
 8
TOOL_0
 5
AC
 10
1076.317
 20
1467.594
 30
0
 11
909.508
 21
1467.594
 31
0
 0
LINE
 8
TOOL_0
 5
AD
 10
909.508
 20
1467.594
 30
0
 11
909.508
 21
1999.0
 31
0
 0
LINE
 8
TOOL_0
 5
AE
 10
909.508
 20
1999.0
 30
0
 11
909.508
 21
2000.0
 31
0
 0
ENDSEC
 0
EOF

