0
SECTION
2
TABLES
0
TABLE
2
LAYER
70
0
0
LAYER
2
LAYER_NAME
70
0
62
1
6
CONTINUOUS
0
ENDTAB
0
ENDSEC
 0
SECTION
 2
ENTITIES
 0
LINE
 8
TOOL_0
 5
1
 10
832.806
 20
43.841
 30
0
 11
832.88
 21
31.297
 31
0
 0
LINE
 8
TOOL_0
 5
2
 10
832.88
 20
31.297
 30
0
 11
819.878
 21
31.477
 31
0
 0
LINE
 8
TOOL_0
 5
3
 10
819.878
 20
31.477
 30
0
 11
747.878
 21
31.477
 31
0
 0
ARC
 8
TOOL_0
 5
4
 10
747.878
 20
36.477
 30
0
 40
5.0
 50
180.0
 51
270.0
210
0
220
0
230
1.0
 0
LINE
 8
TOOL_0
 5
5
 10
742.878
 20
36.477
 30
0
 11
742.878
 21
128.261
 31
0
 0
ARC
 8
TOOL_0
 5
6
 10
713.878
 20
128.261
 30
0
 40
29.0
 50
0
 51
15.998858377125
210
0
220
0
230
1.0
 0
ARC
 8
TOOL_0
 5
7
 10
447.012
 20
56.874
 30
0
 40
305.245180877602
 50
15.073221574547
 51
17.128797707737
210
0
220
0
230
1.0
 0
ARC
 8
TOOL_0
 5
8
 10
710.18
 20
137.456
 30
0
 40
30.021012724424
 50
18.084296970695
 51
89.971372152121
210
0
220
0
230
1.0
 0
LINE
 8
TOOL_0
 5
9
 10
710.195
 20
167.477
 30
0
 11
649.878
 21
167.477
 31
0
 0
ARC
 8
TOOL_0
 5
A
 10
649.878
 20
182.477
 30
0
 40
15.0
 50
180.0
 51
270.0
210
0
220
0
230
1.0
 0
LINE
 8
TOOL_0
 5
B
 10
634.878
 20
182.477
 30
0
 11
634.878
 21
570.621
 31
0
 0
ARC
 8
TOOL_0
 5
C
 10
639.891
 20
570.609
 30
0
 40
5.013014362637
 50
94.140989165552
 51
179.862846989646
210
0
220
0
230
1.0
 0
LINE
 8
TOOL_0
 5
D
 10
639.529
 20
575.609
 30
0
 11
686.03
 21
578.861
 31
0
 0
ARC
 8
TOOL_0
 5
E
 10
684.322
 20
602.88
 30
0
 40
24.079651679374
 50
274.067477372201
 51
312.733060840556
210
0
220
0
230
1.0
 0
LINE
 8
TOOL_0
 5
F
 10
700.662
 20
585.193
 30
0
 11
728.357
 21
610.839
 31
0
 0
ARC
 8
TOOL_0
 5
10
 10
775.918
 20
559.478
 30
0
 40
70.000007442857
 50
90.0
 51
132.80011562078
210
0
220
0
230
1.0
 0
ARC
 8
TOOL_0
 5
11
 10
783.877
 20
-122.403
 30
0
 40
751.923123625015
 50
89.269003367329
 51
90.606479054237
210
0
220
0
230
1.0
 0
ARC
 8
TOOL_0
 5
12
 10
791.808
 20
559.41
 30
0
 40
70.068713738729
 50
47.220864842536
 51
88.640841082922
210
0
220
0
230
1.0
 0
LINE
 8
TOOL_0
 5
13
 10
839.397
 20
610.839
 30
0
 11
867.092
 21
585.193
 31
0
 0
ARC
 8
TOOL_0
 5
14
 10
883.432
 20
602.88
 30
0
 40
24.07956745874
 50
227.266939159444
 51
265.932522627799
210
0
220
0
230
1.0
 0
LINE
 8
TOOL_0
 5
15
 10
881.724
 20
578.861
 30
0
 11
928.226
 21
575.609
 31
0
 0
ARC
 8
TOOL_0
 5
16
 10
927.864
 20
570.609
 30
0
 40
5.01308727233
 50
0.137153010353
 51
85.859010834449
210
0
220
0
230
1.0
 0
LINE
 8
TOOL_0
 5
17
 10
932.877
 20
570.621
 30
0
 11
932.877
 21
182.477
 31
0
 0
ARC
 8
TOOL_0
 5
18
 10
917.877
 20
182.477
 30
0
 40
15.0
 50
270.0
 51
0
210
0
220
0
230
1.0
 0
LINE
 8
TOOL_0
 5
19
 10
917.877
 20
167.477
 30
0
 11
857.56
 21
167.477
 31
0
 0
ARC
 8
TOOL_0
 5
1A
 10
857.56
 20
137.477
 30
0
 40
30.0
 50
90.0
 51
164.00030004417
210
0
220
0
230
1.0
 0
ARC
 8
TOOL_0
 5
1B
 10
1127.132
 20
55.042
 30
0
 40
311.890595747932
 50
163.092949827997
 51
165.093030743851
210
0
220
0
230
1.0
 0
ARC
 8
TOOL_0
 5
1C
 10
854.477
 20
128.187
 30
0
 40
29.600406112079
 50
166.14356079703
 51
179.858696505923
210
0
220
0
230
1.0
 0
LINE
 8
TOOL_0
 5
1D
 10
824.877
 20
128.26
 30
0
 11
824.877
 21
36.476
 31
0
 0
ARC
 8
TOOL_0
 5
1E
 10
819.877
 20
36.476
 30
0
 40
5.0
 50
270.0
 51
0
210
0
220
0
230
1.0
 0
LINE
 8
TOOL_0
 5
1F
 10
819.877
 20
31.476
 30
0
 11
815.195
 21
29.96
 31
0
 0
LINE
 8
TOOL_0
 5
20
 10
815.195
 20
29.96
 30
0
 11
1067.622
 21
639.388
 31
0
 0
LINE
 8
TOOL_0
 5
21
 10
1067.622
 20
639.388
 30
0
 11
1066.622
 21
639.388
 31
0
 0
LINE
 8
TOOL_0
 5
22
 10
1066.622
 20
639.388
 30
0
 11
1067.622
 21
639.388
 31
0
 0
LINE
 8
TOOL_0
 5
23
 10
1067.622
 20
639.388
 30
0
 11
1066.622
 21
639.388
 31
0
 0
LINE
 8
TOOL_0
 5
24
 10
1066.622
 20
639.388
 30
0
 11
519.151
 21
639.388
 31
0
 0
LINE
 8
TOOL_0
 5
25
 10
519.151
 20
639.388
 30
0
 11
518.151
 21
639.388
 31
0
 0
ENDSEC
 0
EOF

