0
SECTION
2
TABLES
0
TABLE
2
LAYER
70
0
0
LAYER
2
LAYER_NAME
70
0
62
1
6
CONTINUOUS
0
ENDTAB
0
ENDSEC
 0
SECTION
 2
ENTITIES
 0
LINE
 8
TOOL_0
 5
1
 10
548.371
 20
213.058
 30
0
 11
578.371
 21
213.058
 31
0
 0
ARC
 8
TOOL_0
 5
2
 10
533.371
 20
213.058
 30
0
 40
45.0
 50
0
 51
180.0
210
0
220
0
230
1.0
 0
ARC
 8
TOOL_0
 5
3
 10
533.371
 20
213.058
 30
0
 40
45.0
 50
180.0
 51
0
210
0
220
0
230
1.0
 0
LINE
 8
TOOL_0
 5
4
 10
578.371
 20
213.058
 30
0
 11
571.3
 21
220.129
 31
0
 0
LINE
 8
TOOL_0
 5
5
 10
571.3
 20
220.129
 30
0
 11
865.149
 21
23.28
 31
0
 0
LINE
 8
TOOL_0
 5
6
 10
865.149
 20
23.28
 30
0
 11
830.149
 21
23.28
 31
0
 0
ARC
 8
TOOL_0
 5
7
 10
822.371
 20
31.058
 30
0
 40
10.999753088138
 50
270.0
 51
315.0
210
0
220
0
230
1.0
 0
LINE
 8
TOOL_0
 5
8
 10
822.371
 20
20.058
 30
0
 11
442.371
 21
20.058
 31
0
 0
ARC
 8
TOOL_0
 5
9
 10
442.371
 20
31.058
 30
0
 40
11.0
 50
180.0
 51
270.0
210
0
220
0
230
1.0
 0
LINE
 8
TOOL_0
 5
A
 10
431.371
 20
31.058
 30
0
 11
431.371
 21
392.058
 31
0
 0
ARC
 8
TOOL_0
 5
B
 10
442.371
 20
392.058
 30
0
 40
11.0
 50
90.0
 51
180.0
210
0
220
0
230
1.0
 0
LINE
 8
TOOL_0
 5
C
 10
442.371
 20
403.058
 30
0
 11
822.371
 21
403.058
 31
0
 0
ARC
 8
TOOL_0
 5
D
 10
822.371
 20
392.058
 30
0
 40
11.0
 50
0
 51
90.0
210
0
220
0
230
1.0
 0
LINE
 8
TOOL_0
 5
E
 10
833.371
 20
392.058
 30
0
 11
833.371
 21
31.058
 31
0
 0
ARC
 8
TOOL_0
 5
F
 10
822.371
 20
31.058
 30
0
 40
11.0
 50
315.0
 51
0
210
0
220
0
230
1.0
 0
LINE
 8
TOOL_0
 5
10
 10
830.149
 20
23.28
 30
0
 11
830.149
 21
18.28
 31
0
 0
LINE
 8
TOOL_0
 5
11
 10
830.149
 20
18.28
 30
0
 11
830.149
 21
0
 31
0
 0
LINE
 8
TOOL_0
 5
12
 10
830.149
 20
0
 30
0
 11
1037.605
 21
213.058
 31
0
 0
LINE
 8
TOOL_0
 5
13
 10
1037.605
 20
213.058
 30
0
 11
1067.605
 21
213.058
 31
0
 0
ARC
 8
TOOL_0
 5
14
 10
1022.605
 20
213.058
 30
0
 40
45.0
 50
0
 51
180.0
210
0
220
0
230
1.0
 0
ARC
 8
TOOL_0
 5
15
 10
1022.605
 20
213.058
 30
0
 40
45.0
 50
180.0
 51
0
210
0
220
0
230
1.0
 0
LINE
 8
TOOL_0
 5
16
 10
1067.605
 20
213.058
 30
0
 11
1060.534
 21
220.129
 31
0
 0
LINE
 8
TOOL_0
 5
17
 10
1060.534
 20
220.129
 30
0
 11
1354.383
 21
23.28
 31
0
 0
LINE
 8
TOOL_0
 5
18
 10
1354.383
 20
23.28
 30
0
 11
1319.383
 21
23.28
 31
0
 0
ARC
 8
TOOL_0
 5
19
 10
1311.605
 20
31.058
 30
0
 40
10.999753088138
 50
270.0
 51
315.0
210
0
220
0
230
1.0
 0
LINE
 8
TOOL_0
 5
1A
 10
1311.605
 20
20.058
 30
0
 11
931.605
 21
20.058
 31
0
 0
ARC
 8
TOOL_0
 5
1B
 10
931.605
 20
31.058
 30
0
 40
11.0
 50
180.0
 51
270.0
210
0
220
0
230
1.0
 0
LINE
 8
TOOL_0
 5
1C
 10
920.605
 20
31.058
 30
0
 11
920.605
 21
392.058
 31
0
 0
ARC
 8
TOOL_0
 5
1D
 10
931.605
 20
392.058
 30
0
 40
11.0
 50
90.0
 51
180.0
210
0
220
0
230
1.0
 0
LINE
 8
TOOL_0
 5
1E
 10
931.605
 20
403.058
 30
0
 11
1311.605
 21
403.058
 31
0
 0
ARC
 8
TOOL_0
 5
1F
 10
1311.605
 20
392.058
 30
0
 40
11.0
 50
0
 51
90.0
210
0
220
0
230
1.0
 0
LINE
 8
TOOL_0
 5
20
 10
1322.605
 20
392.058
 30
0
 11
1322.605
 21
31.058
 31
0
 0
ARC
 8
TOOL_0
 5
21
 10
1311.605
 20
31.058
 30
0
 40
11.0
 50
315.0
 51
0
210
0
220
0
230
1.0
 0
LINE
 8
TOOL_0
 5
22
 10
1319.383
 20
23.28
 30
0
 11
1319.383
 21
18.28
 31
0
 0
ENDSEC
 0
EOF

