0
SECTION
2
TABLES
0
TABLE
2
LAYER
70
0
0
LAYER
2
LAYER_NAME
70
0
62
1
6
CONTINUOUS
0
ENDTAB
0
ENDSEC
 0
SECTION
 2
ENTITIES
 0
LINE
 8
TOOL_0
 5
1
 10
6134.749
 20
434.75
 30
0
 11
6110.0
 21
410.001
 31
0
 0
LINE
 8
TOOL_0
 5
2
 10
6110.0
 20
410.001
 30
0
 11
6110.0
 21
20.001
 31
0
 0
LINE
 8
TOOL_0
 5
3
 10
6110.0
 20
20.001
 30
0
 11
20.0
 21
20.001
 31
0
 0
LINE
 8
TOOL_0
 5
4
 10
20.0
 20
20.001
 30
0
 11
20.0
 21
410.001
 31
0
 0
LINE
 8
TOOL_0
 5
5
 10
20.0
 20
410.001
 30
0
 11
6110.0
 21
410.001
 31
0
 0
LINE
 8
TOOL_0
 5
6
 10
6110.0
 20
410.001
 30
0
 11
6113.536
 21
413.537
 31
0
 0
LINE
 8
TOOL_0
 5
7
 10
6113.536
 20
413.537
 30
0
 11
367.508
 21
846.738
 31
0
 0
LINE
 8
TOOL_0
 5
8
 10
367.508
 20
846.738
 30
0
 11
332.508
 21
846.738
 31
0
 0
ARC
 8
TOOL_0
 5
9
 10
317.8
 20
861.446
 30
0
 40
20.800253075384
 50
270.0
 51
315.0
210
0
220
0
230
1.0
 0
LINE
 8
TOOL_0
 5
A
 10
317.8
 20
840.646
 30
0
 11
40.8
 21
840.646
 31
0
 0
ARC
 8
TOOL_0
 5
B
 10
40.8
 20
861.446
 30
0
 40
20.8
 50
180.0
 51
270.0
210
0
220
0
230
1.0
 0
LINE
 8
TOOL_0
 5
C
 10
20.0
 20
861.446
 30
0
 11
20.0
 21
1132.246
 31
0
 0
LINE
 8
TOOL_0
 5
D
 10
20.0
 20
1132.246
 30
0
 11
338.6
 21
1132.246
 31
0
 0
LINE
 8
TOOL_0
 5
E
 10
338.6
 20
1132.246
 30
0
 11
338.6
 21
861.446
 31
0
 0
ARC
 8
TOOL_0
 5
F
 10
317.8
 20
861.446
 30
0
 40
20.8
 50
315.0
 51
0
210
0
220
0
230
1.0
 0
LINE
 8
TOOL_0
 5
10
 10
332.508
 20
846.738
 30
0
 11
332.508
 21
841.738
 31
0
 0
LINE
 8
TOOL_0
 5
11
 10
332.508
 20
841.738
 30
0
 11
367.508
 21
1158.526
 31
0
 0
LINE
 8
TOOL_0
 5
12
 10
367.508
 20
1158.526
 30
0
 11
332.508
 21
1158.526
 31
0
 0
ARC
 8
TOOL_0
 5
13
 10
317.8
 20
1173.234
 30
0
 40
20.800253075384
 50
270.0
 51
315.0
210
0
220
0
230
1.0
 0
LINE
 8
TOOL_0
 5
14
 10
317.8
 20
1152.434
 30
0
 11
40.8
 21
1152.434
 31
0
 0
ARC
 8
TOOL_0
 5
15
 10
40.8
 20
1173.234
 30
0
 40
20.8
 50
180.0
 51
270.0
210
0
220
0
230
1.0
 0
LINE
 8
TOOL_0
 5
16
 10
20.0
 20
1173.234
 30
0
 11
20.0
 21
1444.034
 31
0
 0
LINE
 8
TOOL_0
 5
17
 10
20.0
 20
1444.034
 30
0
 11
338.6
 21
1444.034
 31
0
 0
LINE
 8
TOOL_0
 5
18
 10
338.6
 20
1444.034
 30
0
 11
338.6
 21
1173.234
 31
0
 0
ARC
 8
TOOL_0
 5
19
 10
317.8
 20
1173.234
 30
0
 40
20.8
 50
315.0
 51
0
210
0
220
0
230
1.0
 0
LINE
 8
TOOL_0
 5
1A
 10
332.508
 20
1158.526
 30
0
 11
332.508
 21
1153.526
 31
0
 0
LINE
 8
TOOL_0
 5
1B
 10
332.508
 20
1153.526
 30
0
 11
367.508
 21
1470.41
 31
0
 0
LINE
 8
TOOL_0
 5
1C
 10
367.508
 20
1470.41
 30
0
 11
332.508
 21
1470.41
 31
0
 0
ARC
 8
TOOL_0
 5
1D
 10
317.8
 20
1485.118
 30
0
 40
20.800253075384
 50
270.0
 51
315.0
210
0
220
0
230
1.0
 0
LINE
 8
TOOL_0
 5
1E
 10
317.8
 20
1464.318
 30
0
 11
40.8
 21
1464.318
 31
0
 0
ARC
 8
TOOL_0
 5
1F
 10
40.8
 20
1485.118
 30
0
 40
20.8
 50
180.0
 51
270.0
210
0
220
0
230
1.0
 0
LINE
 8
TOOL_0
 5
20
 10
20.0
 20
1485.118
 30
0
 11
20.0
 21
1755.918
 31
0
 0
LINE
 8
TOOL_0
 5
21
 10
20.0
 20
1755.918
 30
0
 11
338.6
 21
1755.918
 31
0
 0
LINE
 8
TOOL_0
 5
22
 10
338.6
 20
1755.918
 30
0
 11
338.6
 21
1485.118
 31
0
 0
ARC
 8
TOOL_0
 5
23
 10
317.8
 20
1485.118
 30
0
 40
20.8
 50
315.0
 51
0
210
0
220
0
230
1.0
 0
LINE
 8
TOOL_0
 5
24
 10
332.508
 20
1470.41
 30
0
 11
332.508
 21
1465.41
 31
0
 0
LINE
 8
TOOL_0
 5
25
 10
332.508
 20
1465.41
 30
0
 11
367.508
 21
1782.294
 31
0
 0
LINE
 8
TOOL_0
 5
26
 10
367.508
 20
1782.294
 30
0
 11
332.508
 21
1782.294
 31
0
 0
ARC
 8
TOOL_0
 5
27
 10
317.8
 20
1797.002
 30
0
 40
20.800253075384
 50
270.0
 51
315.0
210
0
220
0
230
1.0
 0
LINE
 8
TOOL_0
 5
28
 10
317.8
 20
1776.202
 30
0
 11
40.8
 21
1776.202
 31
0
 0
ARC
 8
TOOL_0
 5
29
 10
40.8
 20
1797.002
 30
0
 40
20.8
 50
180.0
 51
270.0
210
0
220
0
230
1.0
 0
LINE
 8
TOOL_0
 5
2A
 10
20.0
 20
1797.002
 30
0
 11
20.0
 21
2067.802
 31
0
 0
LINE
 8
TOOL_0
 5
2B
 10
20.0
 20
2067.802
 30
0
 11
338.6
 21
2067.802
 31
0
 0
LINE
 8
TOOL_0
 5
2C
 10
338.6
 20
2067.802
 30
0
 11
338.6
 21
1797.002
 31
0
 0
ARC
 8
TOOL_0
 5
2D
 10
317.8
 20
1797.002
 30
0
 40
20.8
 50
315.0
 51
0
210
0
220
0
230
1.0
 0
LINE
 8
TOOL_0
 5
2E
 10
332.508
 20
1782.294
 30
0
 11
332.508
 21
1777.294
 31
0
 0
LINE
 8
TOOL_0
 5
2F
 10
332.508
 20
1777.294
 30
0
 11
370.265
 21
2100.0
 31
0
 0
LINE
 8
TOOL_0
 5
30
 10
370.265
 20
2100.0
 30
0
 11
370.265
 21
2099.0
 31
0
 0
LINE
 8
TOOL_0
 5
31
 10
370.265
 20
2099.0
 30
0
 11
370.265
 21
2100.0
 31
0
 0
LINE
 8
TOOL_0
 5
32
 10
370.265
 20
2100.0
 30
0
 11
370.265
 21
2099.0
 31
0
 0
LINE
 8
TOOL_0
 5
33
 10
370.265
 20
2099.0
 30
0
 11
370.265
 21
826.516
 31
0
 0
LINE
 8
TOOL_0
 5
34
 10
370.265
 20
826.516
 30
0
 11
6149.0
 21
826.516
 31
0
 0
LINE
 8
TOOL_0
 5
35
 10
6149.0
 20
826.516
 30
0
 11
6150.0
 21
826.516
 31
0
 0
ENDSEC
 0
EOF

