0
SECTION
2
TABLES
0
TABLE
2
LAYER
70
0
0
LAYER
2
LAYER_NAME
70
0
62
1
6
CONTINUOUS
0
ENDTAB
0
ENDSEC
 0
SECTION
 2
ENTITIES
 0
LINE
 8
TOOL_0
 5
1
 10
583.714
 20
1449.359
 30
0
 11
618.714
 21
1449.359
 31
0
 0
LINE
 8
TOOL_0
 5
2
 10
618.714
 20
1449.359
 30
0
 11
618.714
 21
1514.359
 31
0
 0
ARC
 8
TOOL_0
 5
3
 10
583.714
 20
1514.359
 30
0
 40
35.0
 50
0
 51
90.0
210
0
220
0
230
1.0
 0
LINE
 8
TOOL_0
 5
4
 10
583.714
 20
1549.359
 30
0
 11
358.714
 21
1549.359
 31
0
 0
ARC
 8
TOOL_0
 5
5
 10
358.714
 20
1514.359
 30
0
 40
35.0
 50
90.0
 51
180.0
210
0
220
0
230
1.0
 0
LINE
 8
TOOL_0
 5
6
 10
323.714
 20
1514.359
 30
0
 11
323.714
 21
1384.359
 31
0
 0
ARC
 8
TOOL_0
 5
7
 10
358.714
 20
1384.359
 30
0
 40
35.0
 50
180.0
 51
270.0
210
0
220
0
230
1.0
 0
LINE
 8
TOOL_0
 5
8
 10
358.714
 20
1349.359
 30
0
 11
583.714
 21
1349.359
 31
0
 0
ARC
 8
TOOL_0
 5
9
 10
583.714
 20
1384.359
 30
0
 40
35.0
 50
270.0
 51
0
210
0
220
0
230
1.0
 0
LINE
 8
TOOL_0
 5
A
 10
618.714
 20
1384.359
 30
0
 11
618.714
 21
1449.359
 31
0
 0
LINE
 8
TOOL_0
 5
B
 10
618.714
 20
1449.359
 30
0
 11
608.107
 21
1459.966
 31
0
 0
LINE
 8
TOOL_0
 5
C
 10
608.107
 20
1459.966
 30
0
 11
583.714
 21
1059.36
 31
0
 0
LINE
 8
TOOL_0
 5
D
 10
583.714
 20
1059.36
 30
0
 11
618.714
 21
1059.36
 31
0
 0
LINE
 8
TOOL_0
 5
E
 10
618.714
 20
1059.36
 30
0
 11
618.714
 21
1124.36
 31
0
 0
ARC
 8
TOOL_0
 5
F
 10
583.714
 20
1124.36
 30
0
 40
35.0
 50
0
 51
90.0
210
0
220
0
230
1.0
 0
LINE
 8
TOOL_0
 5
10
 10
583.714
 20
1159.36
 30
0
 11
318.714
 21
1159.36
 31
0
 0
ARC
 8
TOOL_0
 5
11
 10
318.714
 20
1124.36
 30
0
 40
35.0
 50
90.0
 51
180.0
210
0
220
0
230
1.0
 0
LINE
 8
TOOL_0
 5
12
 10
283.714
 20
1124.36
 30
0
 11
283.714
 21
994.36
 31
0
 0
ARC
 8
TOOL_0
 5
13
 10
318.714
 20
994.36
 30
0
 40
35.0
 50
180.0
 51
270.0
210
0
220
0
230
1.0
 0
LINE
 8
TOOL_0
 5
14
 10
318.714
 20
959.36
 30
0
 11
583.714
 21
959.36
 31
0
 0
ARC
 8
TOOL_0
 5
15
 10
583.714
 20
994.36
 30
0
 40
35.0
 50
270.0
 51
0
210
0
220
0
230
1.0
 0
LINE
 8
TOOL_0
 5
16
 10
618.714
 20
994.36
 30
0
 11
618.714
 21
1059.36
 31
0
 0
LINE
 8
TOOL_0
 5
17
 10
618.714
 20
1059.36
 30
0
 11
608.107
 21
1069.967
 31
0
 0
LINE
 8
TOOL_0
 5
18
 10
608.107
 20
1069.967
 30
0
 11
305.21
 21
673.361
 31
0
 0
LINE
 8
TOOL_0
 5
19
 10
305.21
 20
673.361
 30
0
 11
274.714
 21
673.361
 31
0
 0
LINE
 8
TOOL_0
 5
1A
 10
274.714
 20
673.361
 30
0
 11
218.3
 21
673.361
 31
0
 0
LINE
 8
TOOL_0
 5
1B
 10
218.3
 20
673.361
 30
0
 11
207.714
 21
683.947
 31
0
 0
LINE
 8
TOOL_0
 5
1C
 10
207.714
 20
683.947
 30
0
 11
207.714
 21
806.361
 31
0
 0
ARC
 8
TOOL_0
 5
1D
 10
200.714
 20
806.361
 30
0
 40
7.0
 50
0
 51
90.0
210
0
220
0
230
1.0
 0
LINE
 8
TOOL_0
 5
1E
 10
200.714
 20
813.361
 30
0
 11
187.714
 21
813.361
 31
0
 0
LINE
 8
TOOL_0
 5
1F
 10
187.714
 20
813.361
 30
0
 11
187.714
 21
1355.361
 31
0
 0
LINE
 8
TOOL_0
 5
20
 10
187.714
 20
1355.361
 30
0
 11
200.714
 21
1355.361
 31
0
 0
ARC
 8
TOOL_0
 5
21
 10
200.714
 20
1362.361
 30
0
 40
7.0
 50
270.0
 51
0
210
0
220
0
230
1.0
 0
LINE
 8
TOOL_0
 5
22
 10
207.714
 20
1362.361
 30
0
 11
207.714
 21
1516.361
 31
0
 0
ARC
 8
TOOL_0
 5
23
 10
200.714
 20
1516.361
 30
0
 40
7.0
 50
0
 51
90.0
210
0
220
0
230
1.0
 0
LINE
 8
TOOL_0
 5
24
 10
200.714
 20
1523.361
 30
0
 11
187.714
 21
1523.361
 31
0
 0
LINE
 8
TOOL_0
 5
25
 10
187.714
 20
1523.361
 30
0
 11
187.714
 21
1940.361
 31
0
 0
LINE
 8
TOOL_0
 5
26
 10
187.714
 20
1940.361
 30
0
 11
195.714
 21
1940.361
 31
0
 0
ARC
 8
TOOL_0
 5
27
 10
195.714
 20
1947.361
 30
0
 40
7.0
 50
270.0
 51
0
210
0
220
0
230
1.0
 0
LINE
 8
TOOL_0
 5
28
 10
202.714
 20
1947.361
 30
0
 11
202.714
 21
2125.861
 31
0
 0
LINE
 8
TOOL_0
 5
29
 10
202.714
 20
2125.861
 30
0
 11
531.207
 21
2125.861
 31
0
 0
LINE
 8
TOOL_0
 5
2A
 10
531.207
 20
2125.861
 30
0
 11
783.714
 21
1471.214
 31
0
 0
LINE
 8
TOOL_0
 5
2B
 10
783.714
 20
1471.214
 30
0
 11
783.714
 21
997.645
 31
0
 0
ARC
 8
TOOL_0
 5
2C
 10
703.714
 20
997.645
 30
0
 40
80.0
 50
320.389749357743
 51
0
210
0
220
0
230
1.0
 0
LINE
 8
TOOL_0
 5
2D
 10
765.346
 20
946.64
 30
0
 11
539.185
 21
673.362
 31
0
 0
LINE
 8
TOOL_0
 5
2E
 10
539.185
 20
673.362
 30
0
 11
432.715
 21
673.362
 31
0
 0
LINE
 8
TOOL_0
 5
2F
 10
432.715
 20
673.362
 30
0
 11
432.715
 21
754.362
 31
0
 0
ARC
 8
TOOL_0
 5
30
 10
383.715
 20
754.362
 30
0
 40
49.0
 50
0
 51
90.0
210
0
220
0
230
1.0
 0
LINE
 8
TOOL_0
 5
31
 10
383.715
 20
803.362
 30
0
 11
323.715
 21
803.362
 31
0
 0
ARC
 8
TOOL_0
 5
32
 10
323.715
 20
754.362
 30
0
 40
49.0
 50
90.0
 51
180.0
210
0
220
0
230
1.0
 0
LINE
 8
TOOL_0
 5
33
 10
274.715
 20
754.362
 30
0
 11
274.715
 21
673.362
 31
0
 0
LINE
 8
TOOL_0
 5
34
 10
274.715
 20
673.362
 30
0
 11
274.715
 21
668.242
 31
0
 0
LINE
 8
TOOL_0
 5
35
 10
274.715
 20
668.242
 30
0
 11
321.501
 21
317.845
 31
0
 0
LINE
 8
TOOL_0
 5
36
 10
321.501
 20
317.845
 30
0
 11
356.501
 21
317.845
 31
0
 0
LINE
 8
TOOL_0
 5
37
 10
356.501
 20
317.845
 30
0
 11
356.501
 21
350.345
 31
0
 0
ARC
 8
TOOL_0
 5
38
 10
348.501
 20
350.345
 30
0
 40
8.0
 50
0
 51
180.0
210
0
220
0
230
1.0
 0
LINE
 8
TOOL_0
 5
39
 10
340.501
 20
350.345
 30
0
 11
340.501
 21
337.345
 31
0
 0
LINE
 8
TOOL_0
 5
3A
 10
340.501
 20
337.345
 30
0
 11
286.501
 21
337.345
 31
0
 0
LINE
 8
TOOL_0
 5
3B
 10
286.501
 20
337.345
 30
0
 11
286.501
 21
350.345
 31
0
 0
ARC
 8
TOOL_0
 5
3C
 10
278.501
 20
350.345
 30
0
 40
8.0
 50
0
 51
180.0
210
0
220
0
230
1.0
 0
LINE
 8
TOOL_0
 5
3D
 10
270.501
 20
350.345
 30
0
 11
270.501
 21
285.345
 31
0
 0
ARC
 8
TOOL_0
 5
3E
 10
285.501
 20
285.345
 30
0
 40
15.0
 50
180.0
 51
270.0
210
0
220
0
230
1.0
 0
LINE
 8
TOOL_0
 5
3F
 10
285.501
 20
270.345
 30
0
 11
341.501
 21
270.345
 31
0
 0
ARC
 8
TOOL_0
 5
40
 10
341.501
 20
285.345
 30
0
 40
15.0
 50
270.0
 51
0
210
0
220
0
230
1.0
 0
LINE
 8
TOOL_0
 5
41
 10
356.501
 20
285.345
 30
0
 11
356.501
 21
317.845
 31
0
 0
LINE
 8
TOOL_0
 5
42
 10
356.501
 20
317.845
 30
0
 11
345.894
 21
328.452
 31
0
 0
LINE
 8
TOOL_0
 5
43
 10
345.894
 20
328.452
 30
0
 11
571.501
 21
317.845
 31
0
 0
LINE
 8
TOOL_0
 5
44
 10
571.501
 20
317.845
 30
0
 11
606.501
 21
317.845
 31
0
 0
LINE
 8
TOOL_0
 5
45
 10
606.501
 20
317.845
 30
0
 11
606.501
 21
350.345
 31
0
 0
ARC
 8
TOOL_0
 5
46
 10
598.501
 20
350.345
 30
0
 40
8.0
 50
0
 51
180.0
210
0
220
0
230
1.0
 0
LINE
 8
TOOL_0
 5
47
 10
590.501
 20
350.345
 30
0
 11
590.501
 21
337.345
 31
0
 0
LINE
 8
TOOL_0
 5
48
 10
590.501
 20
337.345
 30
0
 11
536.501
 21
337.345
 31
0
 0
LINE
 8
TOOL_0
 5
49
 10
536.501
 20
337.345
 30
0
 11
536.501
 21
350.345
 31
0
 0
ARC
 8
TOOL_0
 5
4A
 10
528.501
 20
350.345
 30
0
 40
8.0
 50
0
 51
180.0
210
0
220
0
230
1.0
 0
LINE
 8
TOOL_0
 5
4B
 10
520.501
 20
350.345
 30
0
 11
520.501
 21
285.345
 31
0
 0
ARC
 8
TOOL_0
 5
4C
 10
535.501
 20
285.345
 30
0
 40
15.0
 50
180.0
 51
270.0
210
0
220
0
230
1.0
 0
LINE
 8
TOOL_0
 5
4D
 10
535.501
 20
270.345
 30
0
 11
591.501
 21
270.345
 31
0
 0
ARC
 8
TOOL_0
 5
4E
 10
591.501
 20
285.345
 30
0
 40
15.0
 50
270.0
 51
0
210
0
220
0
230
1.0
 0
LINE
 8
TOOL_0
 5
4F
 10
606.501
 20
285.345
 30
0
 11
606.501
 21
317.845
 31
0
 0
LINE
 8
TOOL_0
 5
50
 10
606.501
 20
317.845
 30
0
 11
595.894
 21
328.452
 31
0
 0
LINE
 8
TOOL_0
 5
51
 10
595.894
 20
328.452
 30
0
 11
777.501
 21
257.255
 31
0
 0
LINE
 8
TOOL_0
 5
52
 10
777.501
 20
257.255
 30
0
 11
812.501
 21
257.255
 31
0
 0
ARC
 8
TOOL_0
 5
53
 10
777.501
 20
257.255
 30
0
 40
35.0
 50
0
 51
180.0
210
0
220
0
230
1.0
 0
ARC
 8
TOOL_0
 5
54
 10
777.501
 20
257.255
 30
0
 40
35.0
 50
180.0
 51
0
210
0
220
0
230
1.0
 0
LINE
 8
TOOL_0
 5
55
 10
812.501
 20
257.255
 30
0
 11
801.894
 21
267.862
 31
0
 0
LINE
 8
TOOL_0
 5
56
 10
801.894
 20
267.862
 30
0
 11
2127.501
 21
257.255
 31
0
 0
LINE
 8
TOOL_0
 5
57
 10
2127.501
 20
257.255
 30
0
 11
2162.501
 21
257.255
 31
0
 0
ARC
 8
TOOL_0
 5
58
 10
2127.501
 20
257.255
 30
0
 40
35.0
 50
0
 51
180.0
210
0
220
0
230
1.0
 0
ARC
 8
TOOL_0
 5
59
 10
2127.501
 20
257.255
 30
0
 40
35.0
 50
180.0
 51
0
210
0
220
0
230
1.0
 0
LINE
 8
TOOL_0
 5
5A
 10
2162.501
 20
257.255
 30
0
 11
2151.894
 21
267.862
 31
0
 0
LINE
 8
TOOL_0
 5
5B
 10
2151.894
 20
267.862
 30
0
 11
1577.501
 21
1257.255
 31
0
 0
LINE
 8
TOOL_0
 5
5C
 10
1577.501
 20
1257.255
 30
0
 11
1612.501
 21
1257.255
 31
0
 0
ARC
 8
TOOL_0
 5
5D
 10
1577.501
 20
1257.255
 30
0
 40
35.0
 50
0
 51
180.0
210
0
220
0
230
1.0
 0
ARC
 8
TOOL_0
 5
5E
 10
1577.501
 20
1257.255
 30
0
 40
35.0
 50
180.0
 51
0
210
0
220
0
230
1.0
 0
LINE
 8
TOOL_0
 5
5F
 10
1612.501
 20
1257.255
 30
0
 11
1601.894
 21
1267.862
 31
0
 0
LINE
 8
TOOL_0
 5
60
 10
1601.894
 20
1267.862
 30
0
 11
2677.501
 21
1257.255
 31
0
 0
LINE
 8
TOOL_0
 5
61
 10
2677.501
 20
1257.255
 30
0
 11
2712.501
 21
1257.255
 31
0
 0
ARC
 8
TOOL_0
 5
62
 10
2677.501
 20
1257.255
 30
0
 40
35.0
 50
0
 51
180.0
210
0
220
0
230
1.0
 0
ARC
 8
TOOL_0
 5
63
 10
2677.501
 20
1257.255
 30
0
 40
35.0
 50
180.0
 51
0
210
0
220
0
230
1.0
 0
LINE
 8
TOOL_0
 5
64
 10
2712.501
 20
1257.255
 30
0
 11
2701.894
 21
1267.862
 31
0
 0
LINE
 8
TOOL_0
 5
65
 10
2701.894
 20
1267.862
 30
0
 11
3477.501
 21
257.255
 31
0
 0
LINE
 8
TOOL_0
 5
66
 10
3477.501
 20
257.255
 30
0
 11
3512.501
 21
257.255
 31
0
 0
ARC
 8
TOOL_0
 5
67
 10
3477.501
 20
257.255
 30
0
 40
35.0
 50
0
 51
180.0
210
0
220
0
230
1.0
 0
ARC
 8
TOOL_0
 5
68
 10
3477.501
 20
257.255
 30
0
 40
35.0
 50
180.0
 51
0
210
0
220
0
230
1.0
 0
LINE
 8
TOOL_0
 5
69
 10
3512.501
 20
257.255
 30
0
 11
3501.894
 21
267.862
 31
0
 0
LINE
 8
TOOL_0
 5
6A
 10
3501.894
 20
267.862
 30
0
 11
3699.501
 21
317.845
 31
0
 0
LINE
 8
TOOL_0
 5
6B
 10
3699.501
 20
317.845
 30
0
 11
3734.501
 21
317.845
 31
0
 0
LINE
 8
TOOL_0
 5
6C
 10
3734.501
 20
317.845
 30
0
 11
3734.501
 21
350.345
 31
0
 0
ARC
 8
TOOL_0
 5
6D
 10
3726.501
 20
350.345
 30
0
 40
8.0
 50
0
 51
180.0
210
0
220
0
230
1.0
 0
LINE
 8
TOOL_0
 5
6E
 10
3718.501
 20
350.345
 30
0
 11
3718.501
 21
337.345
 31
0
 0
LINE
 8
TOOL_0
 5
6F
 10
3718.501
 20
337.345
 30
0
 11
3664.501
 21
337.345
 31
0
 0
LINE
 8
TOOL_0
 5
70
 10
3664.501
 20
337.345
 30
0
 11
3664.501
 21
350.345
 31
0
 0
ARC
 8
TOOL_0
 5
71
 10
3656.501
 20
350.345
 30
0
 40
8.0
 50
0
 51
180.0
210
0
220
0
230
1.0
 0
LINE
 8
TOOL_0
 5
72
 10
3648.501
 20
350.345
 30
0
 11
3648.501
 21
285.345
 31
0
 0
ARC
 8
TOOL_0
 5
73
 10
3663.501
 20
285.345
 30
0
 40
15.0
 50
180.0
 51
270.0
210
0
220
0
230
1.0
 0
LINE
 8
TOOL_0
 5
74
 10
3663.501
 20
270.345
 30
0
 11
3719.501
 21
270.345
 31
0
 0
ARC
 8
TOOL_0
 5
75
 10
3719.501
 20
285.345
 30
0
 40
15.0
 50
270.0
 51
0
210
0
220
0
230
1.0
 0
LINE
 8
TOOL_0
 5
76
 10
3734.501
 20
285.345
 30
0
 11
3734.501
 21
317.845
 31
0
 0
LINE
 8
TOOL_0
 5
77
 10
3734.501
 20
317.845
 30
0
 11
3723.894
 21
328.452
 31
0
 0
LINE
 8
TOOL_0
 5
78
 10
3723.894
 20
328.452
 30
0
 11
3949.501
 21
317.845
 31
0
 0
LINE
 8
TOOL_0
 5
79
 10
3949.501
 20
317.845
 30
0
 11
3984.501
 21
317.845
 31
0
 0
LINE
 8
TOOL_0
 5
7A
 10
3984.501
 20
317.845
 30
0
 11
3984.501
 21
350.345
 31
0
 0
ARC
 8
TOOL_0
 5
7B
 10
3976.501
 20
350.345
 30
0
 40
8.0
 50
0
 51
180.0
210
0
220
0
230
1.0
 0
LINE
 8
TOOL_0
 5
7C
 10
3968.501
 20
350.345
 30
0
 11
3968.501
 21
337.345
 31
0
 0
LINE
 8
TOOL_0
 5
7D
 10
3968.501
 20
337.345
 30
0
 11
3914.501
 21
337.345
 31
0
 0
LINE
 8
TOOL_0
 5
7E
 10
3914.501
 20
337.345
 30
0
 11
3914.501
 21
350.345
 31
0
 0
ARC
 8
TOOL_0
 5
7F
 10
3906.501
 20
350.345
 30
0
 40
8.0
 50
0
 51
180.0
210
0
220
0
230
1.0
 0
LINE
 8
TOOL_0
 5
80
 10
3898.501
 20
350.345
 30
0
 11
3898.501
 21
285.345
 31
0
 0
ARC
 8
TOOL_0
 5
81
 10
3913.501
 20
285.345
 30
0
 40
15.0
 50
180.0
 51
270.0
210
0
220
0
230
1.0
 0
LINE
 8
TOOL_0
 5
82
 10
3913.501
 20
270.345
 30
0
 11
3969.501
 21
270.345
 31
0
 0
ARC
 8
TOOL_0
 5
83
 10
3969.501
 20
285.345
 30
0
 40
15.0
 50
270.0
 51
0
210
0
220
0
230
1.0
 0
LINE
 8
TOOL_0
 5
84
 10
3984.501
 20
285.345
 30
0
 11
3984.501
 21
317.845
 31
0
 0
LINE
 8
TOOL_0
 5
85
 10
3984.501
 20
317.845
 30
0
 11
3973.894
 21
328.452
 31
0
 0
LINE
 8
TOOL_0
 5
86
 10
3973.894
 20
328.452
 30
0
 11
4205.278
 21
9.505
 31
0
 0
LINE
 8
TOOL_0
 5
87
 10
4205.278
 20
9.505
 30
0
 11
4174.251
 21
9.505
 31
0
 0
LINE
 8
TOOL_0
 5
88
 10
4174.251
 20
9.505
 30
0
 11
80.751
 21
9.505
 31
0
 0
LINE
 8
TOOL_0
 5
89
 10
80.751
 20
9.505
 30
0
 11
80.751
 21
111.005
 31
0
 0
LINE
 8
TOOL_0
 5
8A
 10
80.751
 20
111.005
 30
0
 11
86.751
 21
111.005
 31
0
 0
LINE
 8
TOOL_0
 5
8B
 10
86.751
 20
111.005
 30
0
 11
86.751
 21
190.005
 31
0
 0
ARC
 8
TOOL_0
 5
8C
 10
61.751
 20
190.005
 30
0
 40
25.0
 50
0
 51
90.0
210
0
220
0
230
1.0
 0
LINE
 8
TOOL_0
 5
8D
 10
61.751
 20
215.005
 30
0
 11
9.001
 21
215.005
 31
0
 0
LINE
 8
TOOL_0
 5
8E
 10
9.001
 20
215.005
 30
0
 11
9.001
 21
1187.755
 31
0
 0
LINE
 8
TOOL_0
 5
8F
 10
9.001
 20
1187.755
 30
0
 11
91.001
 21
1187.755
 31
0
 0
LINE
 8
TOOL_0
 5
90
 10
91.001
 20
1187.755
 30
0
 11
91.001
 21
892.255
 31
0
 0
ARC
 8
TOOL_0
 5
91
 10
120.501
 20
892.255
 30
0
 40
29.5
 50
180.0
 51
270.0
210
0
220
0
230
1.0
 0
LINE
 8
TOOL_0
 5
92
 10
120.501
 20
862.755
 30
0
 11
136.318
 21
862.755
 31
0
 0
LINE
 8
TOOL_0
 5
93
 10
136.318
 20
862.755
 30
0
 11
162.146
 21
518.062
 31
0
 0
ARC
 8
TOOL_0
 5
94
 10
231.489
 20
523.296
 30
0
 40
69.540250251203
 50
184.316492568541
 51
269.968691284209
210
0
220
0
230
1.0
 0
LINE
 8
TOOL_0
 5
95
 10
231.451
 20
453.755
 30
0
 11
677.933
 21
453.755
 31
0
 0
ARC
 8
TOOL_0
 5
96
 10
677.933
 20
528.255
 30
0
 40
74.5
 50
270.0
 51
353.999528083361
210
0
220
0
230
1.0
 0
LINE
 8
TOOL_0
 5
97
 10
752.025
 20
520.467
 30
0
 11
784.743
 21
831.755
 31
0
 0
LINE
 8
TOOL_0
 5
98
 10
784.743
 20
831.755
 30
0
 11
803.429
 21
831.755
 31
0
 0
ARC
 8
TOOL_0
 5
99
 10
803.416
 20
861.269
 30
0
 40
29.514002863048
 50
270.025237009064
 51
353.974736029549
210
0
220
0
230
1.0
 0
LINE
 8
TOOL_0
 5
9A
 10
832.767
 20
858.171
 30
0
 11
887.798
 21
1381.755
 31
0
 0
LINE
 8
TOOL_0
 5
9B
 10
887.798
 20
1381.755
 30
0
 11
3367.203
 21
1381.755
 31
0
 0
LINE
 8
TOOL_0
 5
9C
 10
3367.203
 20
1381.755
 30
0
 11
3422.234
 21
858.171
 31
0
 0
ARC
 8
TOOL_0
 5
9D
 10
3451.585
 20
861.268
 30
0
 40
29.513939249108
 50
186.023333382317
 51
269.974762135822
210
0
220
0
230
1.0
 0
LINE
 8
TOOL_0
 5
9E
 10
3451.572
 20
831.755
 30
0
 11
3470.258
 21
831.755
 31
0
 0
LINE
 8
TOOL_0
 5
9F
 10
3470.258
 20
831.755
 30
0
 11
3502.976
 21
520.468
 31
0
 0
ARC
 8
TOOL_0
 5
A0
 10
3577.068
 20
528.255
 30
0
 40
74.500079416065
 50
185.999707060301
 51
269.999230929134
210
0
220
0
230
1.0
 0
LINE
 8
TOOL_0
 5
A1
 10
3577.067
 20
453.755
 30
0
 11
4023.549
 21
453.755
 31
0
 0
ARC
 8
TOOL_0
 5
A2
 10
4023.511
 20
523.295
 30
0
 40
69.540010382513
 50
270.031309166017
 51
355.684391018394
210
0
220
0
230
1.0
 0
LINE
 8
TOOL_0
 5
A3
 10
4092.855
 20
518.062
 30
0
 11
4118.684
 21
862.756
 31
0
 0
LINE
 8
TOOL_0
 5
A4
 10
4118.684
 20
862.756
 30
0
 11
4134.501
 21
862.756
 31
0
 0
ARC
 8
TOOL_0
 5
A5
 10
4134.501
 20
892.256
 30
0
 40
29.5
 50
270.0
 51
0
210
0
220
0
230
1.0
 0
LINE
 8
TOOL_0
 5
A6
 10
4164.001
 20
892.256
 30
0
 11
4164.001
 21
1187.756
 31
0
 0
LINE
 8
TOOL_0
 5
A7
 10
4164.001
 20
1187.756
 30
0
 11
4246.001
 21
1187.756
 31
0
 0
LINE
 8
TOOL_0
 5
A8
 10
4246.001
 20
1187.756
 30
0
 11
4246.001
 21
215.006
 31
0
 0
LINE
 8
TOOL_0
 5
A9
 10
4246.001
 20
215.006
 30
0
 11
4193.251
 21
215.006
 31
0
 0
ARC
 8
TOOL_0
 5
AA
 10
4193.251
 20
190.006
 30
0
 40
25.0
 50
90.0
 51
180.0
210
0
220
0
230
1.0
 0
LINE
 8
TOOL_0
 5
AB
 10
4168.251
 20
190.006
 30
0
 11
4168.251
 21
111.006
 31
0
 0
LINE
 8
TOOL_0
 5
AC
 10
4168.251
 20
111.006
 30
0
 11
4174.251
 21
111.006
 31
0
 0
LINE
 8
TOOL_0
 5
AD
 10
4174.251
 20
111.006
 30
0
 11
4174.251
 21
9.506
 31
0
 0
LINE
 8
TOOL_0
 5
AE
 10
4174.251
 20
9.506
 30
0
 11
4174.251
 21
4.463
 31
0
 0
LINE
 8
TOOL_0
 5
AF
 10
4174.251
 20
4.463
 30
0
 11
3920.928
 21
1472.425
 31
0
 0
LINE
 8
TOOL_0
 5
B0
 10
3920.928
 20
1472.425
 30
0
 11
3955.928
 21
1472.425
 31
0
 0
LINE
 8
TOOL_0
 5
B1
 10
3955.928
 20
1472.425
 30
0
 11
3955.928
 21
1537.425
 31
0
 0
ARC
 8
TOOL_0
 5
B2
 10
3920.928
 20
1537.425
 30
0
 40
35.0
 50
0
 51
90.0
210
0
220
0
230
1.0
 0
LINE
 8
TOOL_0
 5
B3
 10
3920.928
 20
1572.425
 30
0
 11
3695.928
 21
1572.425
 31
0
 0
ARC
 8
TOOL_0
 5
B4
 10
3695.928
 20
1537.425
 30
0
 40
35.0
 50
90.0
 51
180.0
210
0
220
0
230
1.0
 0
LINE
 8
TOOL_0
 5
B5
 10
3660.928
 20
1537.425
 30
0
 11
3660.928
 21
1407.425
 31
0
 0
ARC
 8
TOOL_0
 5
B6
 10
3695.928
 20
1407.425
 30
0
 40
35.0
 50
180.0
 51
270.0
210
0
220
0
230
1.0
 0
LINE
 8
TOOL_0
 5
B7
 10
3695.928
 20
1372.425
 30
0
 11
3920.928
 21
1372.425
 31
0
 0
ARC
 8
TOOL_0
 5
B8
 10
3920.928
 20
1407.425
 30
0
 40
35.0
 50
270.0
 51
0
210
0
220
0
230
1.0
 0
LINE
 8
TOOL_0
 5
B9
 10
3955.928
 20
1407.425
 30
0
 11
3955.928
 21
1472.425
 31
0
 0
LINE
 8
TOOL_0
 5
BA
 10
3955.928
 20
1472.425
 30
0
 11
3945.321
 21
1483.032
 31
0
 0
LINE
 8
TOOL_0
 5
BB
 10
3945.321
 20
1483.032
 30
0
 11
3920.927
 21
1082.426
 31
0
 0
LINE
 8
TOOL_0
 5
BC
 10
3920.927
 20
1082.426
 30
0
 11
3955.927
 21
1082.426
 31
0
 0
LINE
 8
TOOL_0
 5
BD
 10
3955.927
 20
1082.426
 30
0
 11
3955.927
 21
1147.426
 31
0
 0
ARC
 8
TOOL_0
 5
BE
 10
3920.927
 20
1147.426
 30
0
 40
35.0
 50
0
 51
90.0
210
0
220
0
230
1.0
 0
LINE
 8
TOOL_0
 5
BF
 10
3920.927
 20
1182.426
 30
0
 11
3655.927
 21
1182.426
 31
0
 0
ARC
 8
TOOL_0
 5
C0
 10
3655.927
 20
1147.426
 30
0
 40
35.0
 50
90.0
 51
180.0
210
0
220
0
230
1.0
 0
LINE
 8
TOOL_0
 5
C1
 10
3620.927
 20
1147.426
 30
0
 11
3620.927
 21
1017.426
 31
0
 0
ARC
 8
TOOL_0
 5
C2
 10
3655.927
 20
1017.426
 30
0
 40
35.0
 50
180.0
 51
270.0
210
0
220
0
230
1.0
 0
LINE
 8
TOOL_0
 5
C3
 10
3655.927
 20
982.426
 30
0
 11
3920.927
 21
982.426
 31
0
 0
ARC
 8
TOOL_0
 5
C4
 10
3920.927
 20
1017.426
 30
0
 40
35.0
 50
270.0
 51
0
210
0
220
0
230
1.0
 0
LINE
 8
TOOL_0
 5
C5
 10
3955.927
 20
1017.426
 30
0
 11
3955.927
 21
1082.426
 31
0
 0
LINE
 8
TOOL_0
 5
C6
 10
3955.927
 20
1082.426
 30
0
 11
3945.32
 21
1093.033
 31
0
 0
LINE
 8
TOOL_0
 5
C7
 10
3945.32
 20
1093.033
 30
0
 11
3642.422
 21
696.427
 31
0
 0
LINE
 8
TOOL_0
 5
C8
 10
3642.422
 20
696.427
 30
0
 11
3611.926
 21
696.427
 31
0
 0
LINE
 8
TOOL_0
 5
C9
 10
3611.926
 20
696.427
 30
0
 11
3555.512
 21
696.427
 31
0
 0
LINE
 8
TOOL_0
 5
CA
 10
3555.512
 20
696.427
 30
0
 11
3544.926
 21
707.013
 31
0
 0
LINE
 8
TOOL_0
 5
CB
 10
3544.926
 20
707.013
 30
0
 11
3544.926
 21
829.427
 31
0
 0
ARC
 8
TOOL_0
 5
CC
 10
3537.926
 20
829.427
 30
0
 40
7.0
 50
0
 51
90.0
210
0
220
0
230
1.0
 0
LINE
 8
TOOL_0
 5
CD
 10
3537.926
 20
836.427
 30
0
 11
3524.926
 21
836.427
 31
0
 0
LINE
 8
TOOL_0
 5
CE
 10
3524.926
 20
836.427
 30
0
 11
3524.926
 21
1378.427
 31
0
 0
LINE
 8
TOOL_0
 5
CF
 10
3524.926
 20
1378.427
 30
0
 11
3537.926
 21
1378.427
 31
0
 0
ARC
 8
TOOL_0
 5
D0
 10
3537.926
 20
1385.427
 30
0
 40
7.0
 50
270.0
 51
0
210
0
220
0
230
1.0
 0
LINE
 8
TOOL_0
 5
D1
 10
3544.926
 20
1385.427
 30
0
 11
3544.926
 21
1539.427
 31
0
 0
ARC
 8
TOOL_0
 5
D2
 10
3537.926
 20
1539.427
 30
0
 40
7.0
 50
0
 51
90.0
210
0
220
0
230
1.0
 0
LINE
 8
TOOL_0
 5
D3
 10
3537.926
 20
1546.427
 30
0
 11
3524.926
 21
1546.427
 31
0
 0
LINE
 8
TOOL_0
 5
D4
 10
3524.926
 20
1546.427
 30
0
 11
3524.926
 21
1963.427
 31
0
 0
LINE
 8
TOOL_0
 5
D5
 10
3524.926
 20
1963.427
 30
0
 11
3532.926
 21
1963.427
 31
0
 0
ARC
 8
TOOL_0
 5
D6
 10
3532.926
 20
1970.427
 30
0
 40
7.0
 50
270.0
 51
0
210
0
220
0
230
1.0
 0
LINE
 8
TOOL_0
 5
D7
 10
3539.926
 20
1970.427
 30
0
 11
3539.926
 21
2148.927
 31
0
 0
LINE
 8
TOOL_0
 5
D8
 10
3539.926
 20
2148.927
 30
0
 11
3868.419
 21
2148.927
 31
0
 0
LINE
 8
TOOL_0
 5
D9
 10
3868.419
 20
2148.927
 30
0
 11
4120.926
 21
1494.28
 31
0
 0
LINE
 8
TOOL_0
 5
DA
 10
4120.926
 20
1494.28
 30
0
 11
4120.926
 21
1020.711
 31
0
 0
ARC
 8
TOOL_0
 5
DB
 10
4040.926
 20
1020.711
 30
0
 40
80.0
 50
320.389749357743
 51
0
210
0
220
0
230
1.0
 0
LINE
 8
TOOL_0
 5
DC
 10
4102.558
 20
969.706
 30
0
 11
3876.397
 21
696.428
 31
0
 0
LINE
 8
TOOL_0
 5
DD
 10
3876.397
 20
696.428
 30
0
 11
3769.927
 21
696.428
 31
0
 0
LINE
 8
TOOL_0
 5
DE
 10
3769.927
 20
696.428
 30
0
 11
3769.927
 21
777.428
 31
0
 0
ARC
 8
TOOL_0
 5
DF
 10
3720.927
 20
777.428
 30
0
 40
49.0
 50
0
 51
90.0
210
0
220
0
230
1.0
 0
LINE
 8
TOOL_0
 5
E0
 10
3720.927
 20
826.428
 30
0
 11
3660.927
 21
826.428
 31
0
 0
ARC
 8
TOOL_0
 5
E1
 10
3660.927
 20
777.428
 30
0
 40
49.0
 50
90.0
 51
180.0
210
0
220
0
230
1.0
 0
LINE
 8
TOOL_0
 5
E2
 10
3611.927
 20
777.428
 30
0
 11
3611.927
 21
696.428
 31
0
 0
LINE
 8
TOOL_0
 5
E3
 10
3611.927
 20
696.428
 30
0
 11
3611.927
 21
691.308
 31
0
 0
LINE
 8
TOOL_0
 5
E4
 10
3611.927
 20
691.308
 30
0
 11
321.5
 21
2462.169
 31
0
 0
LINE
 8
TOOL_0
 5
E5
 10
321.5
 20
2462.169
 30
0
 11
356.5
 21
2462.169
 31
0
 0
LINE
 8
TOOL_0
 5
E6
 10
356.5
 20
2462.169
 30
0
 11
356.5
 21
2494.669
 31
0
 0
ARC
 8
TOOL_0
 5
E7
 10
341.5
 20
2494.669
 30
0
 40
15.0
 50
0
 51
90.0
210
0
220
0
230
1.0
 0
LINE
 8
TOOL_0
 5
E8
 10
341.5
 20
2509.669
 30
0
 11
285.5
 21
2509.669
 31
0
 0
ARC
 8
TOOL_0
 5
E9
 10
285.5
 20
2494.669
 30
0
 40
15.0
 50
90.0
 51
180.0
210
0
220
0
230
1.0
 0
LINE
 8
TOOL_0
 5
EA
 10
270.5
 20
2494.669
 30
0
 11
270.5
 21
2429.669
 31
0
 0
ARC
 8
TOOL_0
 5
EB
 10
278.5
 20
2429.669
 30
0
 40
8.0
 50
180.0
 51
0
210
0
220
0
230
1.0
 0
LINE
 8
TOOL_0
 5
EC
 10
286.5
 20
2429.669
 30
0
 11
286.5
 21
2442.669
 31
0
 0
LINE
 8
TOOL_0
 5
ED
 10
286.5
 20
2442.669
 30
0
 11
340.5
 21
2442.669
 31
0
 0
LINE
 8
TOOL_0
 5
EE
 10
340.5
 20
2442.669
 30
0
 11
340.5
 21
2429.669
 31
0
 0
ARC
 8
TOOL_0
 5
EF
 10
348.5
 20
2429.669
 30
0
 40
8.0
 50
180.0
 51
0
210
0
220
0
230
1.0
 0
LINE
 8
TOOL_0
 5
F0
 10
356.5
 20
2429.669
 30
0
 11
356.5
 21
2462.169
 31
0
 0
LINE
 8
TOOL_0
 5
F1
 10
356.5
 20
2462.169
 30
0
 11
345.893
 21
2472.776
 31
0
 0
LINE
 8
TOOL_0
 5
F2
 10
345.893
 20
2472.776
 30
0
 11
571.5
 21
2462.169
 31
0
 0
LINE
 8
TOOL_0
 5
F3
 10
571.5
 20
2462.169
 30
0
 11
606.5
 21
2462.169
 31
0
 0
LINE
 8
TOOL_0
 5
F4
 10
606.5
 20
2462.169
 30
0
 11
606.5
 21
2494.669
 31
0
 0
ARC
 8
TOOL_0
 5
F5
 10
591.5
 20
2494.669
 30
0
 40
15.0
 50
0
 51
90.0
210
0
220
0
230
1.0
 0
LINE
 8
TOOL_0
 5
F6
 10
591.5
 20
2509.669
 30
0
 11
535.5
 21
2509.669
 31
0
 0
ARC
 8
TOOL_0
 5
F7
 10
535.5
 20
2494.669
 30
0
 40
15.0
 50
90.0
 51
180.0
210
0
220
0
230
1.0
 0
LINE
 8
TOOL_0
 5
F8
 10
520.5
 20
2494.669
 30
0
 11
520.5
 21
2429.669
 31
0
 0
ARC
 8
TOOL_0
 5
F9
 10
528.5
 20
2429.669
 30
0
 40
8.0
 50
180.0
 51
0
210
0
220
0
230
1.0
 0
LINE
 8
TOOL_0
 5
FA
 10
536.5
 20
2429.669
 30
0
 11
536.5
 21
2442.669
 31
0
 0
LINE
 8
TOOL_0
 5
FB
 10
536.5
 20
2442.669
 30
0
 11
590.5
 21
2442.669
 31
0
 0
LINE
 8
TOOL_0
 5
FC
 10
590.5
 20
2442.669
 30
0
 11
590.5
 21
2429.669
 31
0
 0
ARC
 8
TOOL_0
 5
FD
 10
598.5
 20
2429.669
 30
0
 40
8.0
 50
180.0
 51
0
210
0
220
0
230
1.0
 0
LINE
 8
TOOL_0
 5
FE
 10
606.5
 20
2429.669
 30
0
 11
606.5
 21
2462.169
 31
0
 0
LINE
 8
TOOL_0
 5
FF
 10
606.5
 20
2462.169
 30
0
 11
595.893
 21
2472.776
 31
0
 0
LINE
 8
TOOL_0
 5
100
 10
595.893
 20
2472.776
 30
0
 11
777.5
 21
2522.759
 31
0
 0
LINE
 8
TOOL_0
 5
101
 10
777.5
 20
2522.759
 30
0
 11
812.5
 21
2522.759
 31
0
 0
ARC
 8
TOOL_0
 5
102
 10
777.5
 20
2522.759
 30
0
 40
35.0
 50
0
 51
180.0
210
0
220
0
230
1.0
 0
ARC
 8
TOOL_0
 5
103
 10
777.5
 20
2522.759
 30
0
 40
35.0
 50
180.0
 51
0
210
0
220
0
230
1.0
 0
LINE
 8
TOOL_0
 5
104
 10
812.5
 20
2522.759
 30
0
 11
801.893
 21
2533.366
 31
0
 0
LINE
 8
TOOL_0
 5
105
 10
801.893
 20
2533.366
 30
0
 11
2127.5
 21
2522.759
 31
0
 0
LINE
 8
TOOL_0
 5
106
 10
2127.5
 20
2522.759
 30
0
 11
2162.5
 21
2522.759
 31
0
 0
ARC
 8
TOOL_0
 5
107
 10
2127.5
 20
2522.759
 30
0
 40
35.0
 50
0
 51
180.0
210
0
220
0
230
1.0
 0
ARC
 8
TOOL_0
 5
108
 10
2127.5
 20
2522.759
 30
0
 40
35.0
 50
180.0
 51
0
210
0
220
0
230
1.0
 0
LINE
 8
TOOL_0
 5
109
 10
2162.5
 20
2522.759
 30
0
 11
2151.893
 21
2533.366
 31
0
 0
LINE
 8
TOOL_0
 5
10A
 10
2151.893
 20
2533.366
 30
0
 11
1577.5
 21
1522.759
 31
0
 0
LINE
 8
TOOL_0
 5
10B
 10
1577.5
 20
1522.759
 30
0
 11
1612.5
 21
1522.759
 31
0
 0
ARC
 8
TOOL_0
 5
10C
 10
1577.5
 20
1522.759
 30
0
 40
35.0
 50
0
 51
180.0
210
0
220
0
230
1.0
 0
ARC
 8
TOOL_0
 5
10D
 10
1577.5
 20
1522.759
 30
0
 40
35.0
 50
180.0
 51
0
210
0
220
0
230
1.0
 0
LINE
 8
TOOL_0
 5
10E
 10
1612.5
 20
1522.759
 30
0
 11
1601.893
 21
1533.366
 31
0
 0
LINE
 8
TOOL_0
 5
10F
 10
1601.893
 20
1533.366
 30
0
 11
2677.5
 21
1522.759
 31
0
 0
LINE
 8
TOOL_0
 5
110
 10
2677.5
 20
1522.759
 30
0
 11
2712.5
 21
1522.759
 31
0
 0
ARC
 8
TOOL_0
 5
111
 10
2677.5
 20
1522.759
 30
0
 40
35.0
 50
0
 51
180.0
210
0
220
0
230
1.0
 0
ARC
 8
TOOL_0
 5
112
 10
2677.5
 20
1522.759
 30
0
 40
35.0
 50
180.0
 51
0
210
0
220
0
230
1.0
 0
LINE
 8
TOOL_0
 5
113
 10
2712.5
 20
1522.759
 30
0
 11
2701.893
 21
1533.366
 31
0
 0
LINE
 8
TOOL_0
 5
114
 10
2701.893
 20
1533.366
 30
0
 11
3477.5
 21
2522.759
 31
0
 0
LINE
 8
TOOL_0
 5
115
 10
3477.5
 20
2522.759
 30
0
 11
3512.5
 21
2522.759
 31
0
 0
ARC
 8
TOOL_0
 5
116
 10
3477.5
 20
2522.759
 30
0
 40
35.0
 50
0
 51
180.0
210
0
220
0
230
1.0
 0
ARC
 8
TOOL_0
 5
117
 10
3477.5
 20
2522.759
 30
0
 40
35.0
 50
180.0
 51
0
210
0
220
0
230
1.0
 0
LINE
 8
TOOL_0
 5
118
 10
3512.5
 20
2522.759
 30
0
 11
3501.893
 21
2533.366
 31
0
 0
LINE
 8
TOOL_0
 5
119
 10
3501.893
 20
2533.366
 30
0
 11
3699.5
 21
2462.169
 31
0
 0
LINE
 8
TOOL_0
 5
11A
 10
3699.5
 20
2462.169
 30
0
 11
3734.5
 21
2462.169
 31
0
 0
LINE
 8
TOOL_0
 5
11B
 10
3734.5
 20
2462.169
 30
0
 11
3734.5
 21
2494.669
 31
0
 0
ARC
 8
TOOL_0
 5
11C
 10
3719.5
 20
2494.669
 30
0
 40
15.0
 50
0
 51
90.0
210
0
220
0
230
1.0
 0
LINE
 8
TOOL_0
 5
11D
 10
3719.5
 20
2509.669
 30
0
 11
3663.5
 21
2509.669
 31
0
 0
ARC
 8
TOOL_0
 5
11E
 10
3663.5
 20
2494.669
 30
0
 40
15.0
 50
90.0
 51
180.0
210
0
220
0
230
1.0
 0
LINE
 8
TOOL_0
 5
11F
 10
3648.5
 20
2494.669
 30
0
 11
3648.5
 21
2429.669
 31
0
 0
ARC
 8
TOOL_0
 5
120
 10
3656.5
 20
2429.669
 30
0
 40
8.0
 50
180.0
 51
0
210
0
220
0
230
1.0
 0
LINE
 8
TOOL_0
 5
121
 10
3664.5
 20
2429.669
 30
0
 11
3664.5
 21
2442.669
 31
0
 0
LINE
 8
TOOL_0
 5
122
 10
3664.5
 20
2442.669
 30
0
 11
3718.5
 21
2442.669
 31
0
 0
LINE
 8
TOOL_0
 5
123
 10
3718.5
 20
2442.669
 30
0
 11
3718.5
 21
2429.669
 31
0
 0
ARC
 8
TOOL_0
 5
124
 10
3726.5
 20
2429.669
 30
0
 40
8.0
 50
180.0
 51
0
210
0
220
0
230
1.0
 0
LINE
 8
TOOL_0
 5
125
 10
3734.5
 20
2429.669
 30
0
 11
3734.5
 21
2462.169
 31
0
 0
LINE
 8
TOOL_0
 5
126
 10
3734.5
 20
2462.169
 30
0
 11
3723.893
 21
2472.776
 31
0
 0
LINE
 8
TOOL_0
 5
127
 10
3723.893
 20
2472.776
 30
0
 11
3949.5
 21
2462.169
 31
0
 0
LINE
 8
TOOL_0
 5
128
 10
3949.5
 20
2462.169
 30
0
 11
3984.5
 21
2462.169
 31
0
 0
LINE
 8
TOOL_0
 5
129
 10
3984.5
 20
2462.169
 30
0
 11
3984.5
 21
2494.669
 31
0
 0
ARC
 8
TOOL_0
 5
12A
 10
3969.5
 20
2494.669
 30
0
 40
15.0
 50
0
 51
90.0
210
0
220
0
230
1.0
 0
LINE
 8
TOOL_0
 5
12B
 10
3969.5
 20
2509.669
 30
0
 11
3913.5
 21
2509.669
 31
0
 0
ARC
 8
TOOL_0
 5
12C
 10
3913.5
 20
2494.669
 30
0
 40
15.0
 50
90.0
 51
180.0
210
0
220
0
230
1.0
 0
LINE
 8
TOOL_0
 5
12D
 10
3898.5
 20
2494.669
 30
0
 11
3898.5
 21
2429.669
 31
0
 0
ARC
 8
TOOL_0
 5
12E
 10
3906.5
 20
2429.669
 30
0
 40
8.0
 50
180.0
 51
0
210
0
220
0
230
1.0
 0
LINE
 8
TOOL_0
 5
12F
 10
3914.5
 20
2429.669
 30
0
 11
3914.5
 21
2442.669
 31
0
 0
LINE
 8
TOOL_0
 5
130
 10
3914.5
 20
2442.669
 30
0
 11
3968.5
 21
2442.669
 31
0
 0
LINE
 8
TOOL_0
 5
131
 10
3968.5
 20
2442.669
 30
0
 11
3968.5
 21
2429.669
 31
0
 0
ARC
 8
TOOL_0
 5
132
 10
3976.5
 20
2429.669
 30
0
 40
8.0
 50
180.0
 51
0
210
0
220
0
230
1.0
 0
LINE
 8
TOOL_0
 5
133
 10
3984.5
 20
2429.669
 30
0
 11
3984.5
 21
2462.169
 31
0
 0
LINE
 8
TOOL_0
 5
134
 10
3984.5
 20
2462.169
 30
0
 11
3973.893
 21
2472.776
 31
0
 0
LINE
 8
TOOL_0
 5
135
 10
3973.893
 20
2472.776
 30
0
 11
49.981
 21
2770.509
 31
0
 0
LINE
 8
TOOL_0
 5
136
 10
49.981
 20
2770.509
 30
0
 11
80.75
 21
2770.509
 31
0
 0
LINE
 8
TOOL_0
 5
137
 10
80.75
 20
2770.509
 30
0
 11
4174.25
 21
2770.509
 31
0
 0
LINE
 8
TOOL_0
 5
138
 10
4174.25
 20
2770.509
 30
0
 11
4174.25
 21
2669.009
 31
0
 0
LINE
 8
TOOL_0
 5
139
 10
4174.25
 20
2669.009
 30
0
 11
4168.25
 21
2669.009
 31
0
 0
LINE
 8
TOOL_0
 5
13A
 10
4168.25
 20
2669.009
 30
0
 11
4168.25
 21
2590.009
 31
0
 0
ARC
 8
TOOL_0
 5
13B
 10
4193.25
 20
2590.009
 30
0
 40
25.0
 50
180.0
 51
270.0
210
0
220
0
230
1.0
 0
LINE
 8
TOOL_0
 5
13C
 10
4193.25
 20
2565.009
 30
0
 11
4246.0
 21
2565.009
 31
0
 0
LINE
 8
TOOL_0
 5
13D
 10
4246.0
 20
2565.009
 30
0
 11
4246.0
 21
1592.259
 31
0
 0
LINE
 8
TOOL_0
 5
13E
 10
4246.0
 20
1592.259
 30
0
 11
4164.0
 21
1592.259
 31
0
 0
LINE
 8
TOOL_0
 5
13F
 10
4164.0
 20
1592.259
 30
0
 11
4164.0
 21
1887.759
 31
0
 0
ARC
 8
TOOL_0
 5
140
 10
4134.5
 20
1887.759
 30
0
 40
29.5
 50
0
 51
90.0
210
0
220
0
230
1.0
 0
LINE
 8
TOOL_0
 5
141
 10
4134.5
 20
1917.259
 30
0
 11
4118.683
 21
1917.259
 31
0
 0
LINE
 8
TOOL_0
 5
142
 10
4118.683
 20
1917.259
 30
0
 11
4092.855
 21
2261.952
 31
0
 0
ARC
 8
TOOL_0
 5
143
 10
4023.512
 20
2256.718
 30
0
 40
69.540250251203
 50
4.316492568541
 51
89.969515197625
210
0
220
0
230
1.0
 0
LINE
 8
TOOL_0
 5
144
 10
4023.549
 20
2326.259
 30
0
 11
3577.067
 21
2326.259
 31
0
 0
ARC
 8
TOOL_0
 5
145
 10
3577.067
 20
2251.759
 30
0
 40
74.5
 50
90.0
 51
174.000292939699
210
0
220
0
230
1.0
 0
LINE
 8
TOOL_0
 5
146
 10
3502.975
 20
2259.546
 30
0
 11
3470.257
 21
1948.259
 31
0
 0
LINE
 8
TOOL_0
 5
147
 10
3470.257
 20
1948.259
 30
0
 11
3451.571
 21
1948.259
 31
0
 0
ARC
 8
TOOL_0
 5
148
 10
3451.584
 20
1918.745
 30
0
 40
29.514002863048
 50
90.025237009063
 51
173.976666617682
210
0
220
0
230
1.0
 0
LINE
 8
TOOL_0
 5
149
 10
3422.233
 20
1921.842
 30
0
 11
3367.202
 21
1398.259
 31
0
 0
LINE
 8
TOOL_0
 5
14A
 10
3367.202
 20
1398.259
 30
0
 11
887.797
 21
1398.259
 31
0
 0
LINE
 8
TOOL_0
 5
14B
 10
887.797
 20
1398.259
 30
0
 11
832.766
 21
1921.843
 31
0
 0
ARC
 8
TOOL_0
 5
14C
 10
803.415
 20
1918.746
 30
0
 40
29.513939249107
 50
6.023333382317
 51
89.976703509766
210
0
220
0
230
1.0
 0
LINE
 8
TOOL_0
 5
14D
 10
803.427
 20
1948.259
 30
0
 11
784.741
 21
1948.259
 31
0
 0
LINE
 8
TOOL_0
 5
14E
 10
784.741
 20
1948.259
 30
0
 11
752.023
 21
2259.546
 31
0
 0
ARC
 8
TOOL_0
 5
14F
 10
677.931
 20
2251.759
 30
0
 40
74.500079416065
 50
5.999707060301
 51
90.0
210
0
220
0
230
1.0
 0
LINE
 8
TOOL_0
 5
150
 10
677.931
 20
2326.259
 30
0
 11
231.449
 21
2326.259
 31
0
 0
ARC
 8
TOOL_0
 5
151
 10
231.487
 20
2256.719
 30
0
 40
69.540010382513
 50
90.031309166016
 51
175.684391018393
210
0
220
0
230
1.0
 0
LINE
 8
TOOL_0
 5
152
 10
162.143
 20
2261.952
 30
0
 11
136.315
 21
1917.259
 31
0
 0
LINE
 8
TOOL_0
 5
153
 10
136.315
 20
1917.259
 30
0
 11
120.498
 21
1917.259
 31
0
 0
ARC
 8
TOOL_0
 5
154
 10
120.498
 20
1887.759
 30
0
 40
29.5
 50
90.0
 51
180.0
210
0
220
0
230
1.0
 0
LINE
 8
TOOL_0
 5
155
 10
90.998
 20
1887.759
 30
0
 11
90.998
 21
1592.259
 31
0
 0
LINE
 8
TOOL_0
 5
156
 10
90.998
 20
1592.259
 30
0
 11
8.998
 21
1592.259
 31
0
 0
LINE
 8
TOOL_0
 5
157
 10
8.998
 20
1592.259
 30
0
 11
8.998
 21
2565.009
 31
0
 0
LINE
 8
TOOL_0
 5
158
 10
8.998
 20
2565.009
 30
0
 11
61.748
 21
2565.009
 31
0
 0
ARC
 8
TOOL_0
 5
159
 10
61.748
 20
2590.009
 30
0
 40
25.0
 50
270.0
 51
0
210
0
220
0
230
1.0
 0
LINE
 8
TOOL_0
 5
15A
 10
86.748
 20
2590.009
 30
0
 11
86.748
 21
2669.009
 31
0
 0
LINE
 8
TOOL_0
 5
15B
 10
86.748
 20
2669.009
 30
0
 11
80.748
 21
2669.009
 31
0
 0
LINE
 8
TOOL_0
 5
15C
 10
80.748
 20
2669.009
 30
0
 11
80.748
 21
2770.509
 31
0
 0
LINE
 8
TOOL_0
 5
15D
 10
80.748
 20
2770.509
 30
0
 11
80.748
 21
2775.536
 31
0
 0
ENDSEC
 0
EOF

