0
SECTION
2
TABLES
0
TABLE
2
LAYER
70
0
0
LAYER
2
LAYER_NAME
70
0
62
1
6
CONTINUOUS
0
ENDTAB
0
ENDSEC
 0
SECTION
 2
ENTITIES
 0
LINE
 8
TOOL_0
 5
1
 10
3133.966
 20
2881.327
 30
0
 11
3168.966
 21
2881.327
 31
0
 0
LINE
 8
TOOL_0
 5
2
 10
3168.966
 20
2881.327
 30
0
 11
3168.966
 21
2901.327
 31
0
 0
ARC
 8
TOOL_0
 5
3
 10
3158.966
 20
2901.327
 30
0
 40
10.0
 50
0
 51
90.0
210
0
220
0
230
1.0
 0
LINE
 8
TOOL_0
 5
4
 10
3158.966
 20
2911.327
 30
0
 11
3048.966
 21
2911.327
 31
0
 0
ARC
 8
TOOL_0
 5
5
 10
3048.966
 20
2901.327
 30
0
 40
10.0
 50
90.0
 51
180.0
210
0
220
0
230
1.0
 0
LINE
 8
TOOL_0
 5
6
 10
3038.966
 20
2901.327
 30
0
 11
3038.966
 21
2881.327
 31
0
 0
ARC
 8
TOOL_0
 5
7
 10
3068.966
 20
2881.327
 30
0
 40
30.0
 50
180.0
 51
270.0
210
0
220
0
230
1.0
 0
LINE
 8
TOOL_0
 5
8
 10
3068.966
 20
2851.327
 30
0
 11
3138.966
 21
2851.327
 31
0
 0
ARC
 8
TOOL_0
 5
9
 10
3138.966
 20
2881.327
 30
0
 40
30.0
 50
270.0
 51
0
210
0
220
0
230
1.0
 0
LINE
 8
TOOL_0
 5
A
 10
3168.966
 20
2881.327
 30
0
 11
3163.309
 21
2886.984
 31
0
 0
LINE
 8
TOOL_0
 5
B
 10
3163.309
 20
2886.984
 30
0
 11
3023.966
 21
2781.327
 31
0
 0
LINE
 8
TOOL_0
 5
C
 10
3023.966
 20
2781.327
 30
0
 11
3058.966
 21
2781.327
 31
0
 0
LINE
 8
TOOL_0
 5
D
 10
3058.966
 20
2781.327
 30
0
 11
3058.966
 21
2811.327
 31
0
 0
ARC
 8
TOOL_0
 5
E
 10
3038.966
 20
2811.327
 30
0
 40
20.0
 50
0
 51
90.0
210
0
220
0
230
1.0
 0
LINE
 8
TOOL_0
 5
F
 10
3038.966
 20
2831.327
 30
0
 11
2978.966
 21
2831.327
 31
0
 0
ARC
 8
TOOL_0
 5
10
 10
2978.966
 20
2811.327
 30
0
 40
20.0
 50
90.0
 51
180.0
210
0
220
0
230
1.0
 0
LINE
 8
TOOL_0
 5
11
 10
2958.966
 20
2811.327
 30
0
 11
2958.966
 21
2751.327
 31
0
 0
ARC
 8
TOOL_0
 5
12
 10
2978.966
 20
2751.327
 30
0
 40
20.0
 50
180.0
 51
270.0
210
0
220
0
230
1.0
 0
LINE
 8
TOOL_0
 5
13
 10
2978.966
 20
2731.327
 30
0
 11
3038.966
 21
2731.327
 31
0
 0
ARC
 8
TOOL_0
 5
14
 10
3038.966
 20
2751.327
 30
0
 40
20.0
 50
270.0
 51
0
210
0
220
0
230
1.0
 0
LINE
 8
TOOL_0
 5
15
 10
3058.966
 20
2751.327
 30
0
 11
3058.966
 21
2781.327
 31
0
 0
LINE
 8
TOOL_0
 5
16
 10
3058.966
 20
2781.327
 30
0
 11
3053.309
 21
2786.984
 31
0
 0
LINE
 8
TOOL_0
 5
17
 10
3053.309
 20
2786.984
 30
0
 11
2028.966
 21
2805.031
 31
0
 0
LINE
 8
TOOL_0
 5
18
 10
2028.966
 20
2805.031
 30
0
 11
2063.966
 21
2805.031
 31
0
 0
LINE
 8
TOOL_0
 5
19
 10
2063.966
 20
2805.031
 30
0
 11
2063.966
 21
2838.327
 31
0
 0
ARC
 8
TOOL_0
 5
1A
 10
2043.966
 20
2838.327
 30
0
 40
20.0
 50
0
 51
90.0
210
0
220
0
230
1.0
 0
LINE
 8
TOOL_0
 5
1B
 10
2043.966
 20
2858.327
 30
0
 11
1983.966
 21
2858.327
 31
0
 0
ARC
 8
TOOL_0
 5
1C
 10
1983.966
 20
2838.327
 30
0
 40
20.0
 50
90.0
 51
180.0
210
0
220
0
230
1.0
 0
LINE
 8
TOOL_0
 5
1D
 10
1963.966
 20
2838.327
 30
0
 11
1963.966
 21
2778.327
 31
0
 0
ARC
 8
TOOL_0
 5
1E
 10
1983.966
 20
2778.327
 30
0
 40
20.0
 50
180.0
 51
270.0
210
0
220
0
230
1.0
 0
LINE
 8
TOOL_0
 5
1F
 10
1983.966
 20
2758.327
 30
0
 11
2043.966
 21
2758.327
 31
0
 0
ARC
 8
TOOL_0
 5
20
 10
2043.966
 20
2778.327
 30
0
 40
20.0
 50
270.0
 51
0
210
0
220
0
230
1.0
 0
LINE
 8
TOOL_0
 5
21
 10
2063.966
 20
2778.327
 30
0
 11
2063.966
 21
2805.031
 31
0
 0
LINE
 8
TOOL_0
 5
22
 10
2063.966
 20
2805.031
 30
0
 11
2058.309
 21
2810.688
 31
0
 0
LINE
 8
TOOL_0
 5
23
 10
2058.309
 20
2810.688
 30
0
 11
2363.466
 21
1093.327
 31
0
 0
LINE
 8
TOOL_0
 5
24
 10
2363.466
 20
1093.327
 30
0
 11
2398.466
 21
1093.327
 31
0
 0
ARC
 8
TOOL_0
 5
25
 10
2376.966
 20
1093.327
 30
0
 40
21.5
 50
0
 51
66.868246075494
210
0
220
0
230
1.0
 0
LINE
 8
TOOL_0
 5
26
 10
2385.412
 20
1113.098
 30
0
 11
2361.733
 21
1123.214
 31
0
 0
ARC
 8
TOOL_0
 5
27
 10
2348.967
 20
1093.099
 30
0
 40
32.709081017357
 50
67.0275065583
 51
112.970880665904
210
0
220
0
230
1.0
 0
LINE
 8
TOOL_0
 5
28
 10
2336.202
 20
1123.214
 30
0
 11
2312.519
 21
1113.098
 31
0
 0
ARC
 8
TOOL_0
 5
29
 10
2320.965
 20
1093.327
 30
0
 40
21.499473412156
 50
113.131753924506
 51
246.869292961725
210
0
220
0
230
1.0
 0
LINE
 8
TOOL_0
 5
2A
 10
2312.519
 20
1073.555
 30
0
 11
2336.202
 21
1063.438
 31
0
 0
ARC
 8
TOOL_0
 5
2B
 10
2348.968
 20
1093.576
 30
0
 40
32.730258171912
 50
247.043220586944
 51
292.956779413056
210
0
220
0
230
1.0
 0
LINE
 8
TOOL_0
 5
2C
 10
2361.734
 20
1063.438
 30
0
 11
2385.412
 21
1073.555
 31
0
 0
ARC
 8
TOOL_0
 5
2D
 10
2376.966
 20
1093.326
 30
0
 40
21.499473412156
 50
293.131753924506
 51
0
210
0
220
0
230
1.0
 0
LINE
 8
TOOL_0
 5
2E
 10
2398.466
 20
1093.326
 30
0
 11
2392.809
 21
1098.983
 31
0
 0
LINE
 8
TOOL_0
 5
2F
 10
2392.809
 20
1098.983
 30
0
 11
2359.966
 21
164.326
 31
0
 0
LINE
 8
TOOL_0
 5
30
 10
2359.966
 20
164.326
 30
0
 11
2394.966
 21
164.326
 31
0
 0
ARC
 8
TOOL_0
 5
31
 10
2354.966
 20
164.326
 30
0
 40
40.0
 50
0
 51
180.0
210
0
220
0
230
1.0
 0
ARC
 8
TOOL_0
 5
32
 10
2354.966
 20
164.326
 30
0
 40
40.0
 50
180.0
 51
0
210
0
220
0
230
1.0
 0
LINE
 8
TOOL_0
 5
33
 10
2394.966
 20
164.326
 30
0
 11
2389.309
 21
169.983
 31
0
 0
LINE
 8
TOOL_0
 5
34
 10
2389.309
 20
169.983
 30
0
 11
2940.966
 21
510.326
 31
0
 0
LINE
 8
TOOL_0
 5
35
 10
2940.966
 20
510.326
 30
0
 11
2975.966
 21
510.326
 31
0
 0
LINE
 8
TOOL_0
 5
36
 10
2975.966
 20
510.326
 30
0
 11
2975.966
 21
540.326
 31
0
 0
ARC
 8
TOOL_0
 5
37
 10
2965.966
 20
540.326
 30
0
 40
10.0
 50
0
 51
90.0
210
0
220
0
230
1.0
 0
LINE
 8
TOOL_0
 5
38
 10
2965.966
 20
550.326
 30
0
 11
2785.966
 21
550.326
 31
0
 0
ARC
 8
TOOL_0
 5
39
 10
2785.966
 20
540.326
 30
0
 40
10.0
 50
90.0
 51
180.0
210
0
220
0
230
1.0
 0
LINE
 8
TOOL_0
 5
3A
 10
2775.966
 20
540.326
 30
0
 11
2775.966
 21
480.326
 31
0
 0
ARC
 8
TOOL_0
 5
3B
 10
2785.966
 20
480.326
 30
0
 40
10.0
 50
180.0
 51
270.0
210
0
220
0
230
1.0
 0
LINE
 8
TOOL_0
 5
3C
 10
2785.966
 20
470.326
 30
0
 11
2965.966
 21
470.326
 31
0
 0
ARC
 8
TOOL_0
 5
3D
 10
2965.966
 20
480.326
 30
0
 40
10.0
 50
270.0
 51
0
210
0
220
0
230
1.0
 0
LINE
 8
TOOL_0
 5
3E
 10
2975.966
 20
480.326
 30
0
 11
2975.966
 21
510.326
 31
0
 0
LINE
 8
TOOL_0
 5
3F
 10
2975.966
 20
510.326
 30
0
 11
2970.309
 21
515.983
 31
0
 0
LINE
 8
TOOL_0
 5
40
 10
2970.309
 20
515.983
 30
0
 11
1938.721
 21
2199.348
 31
0
 0
LINE
 8
TOOL_0
 5
41
 10
1938.721
 20
2199.348
 30
0
 11
1937.966
 21
2276.912
 31
0
 0
LINE
 8
TOOL_0
 5
42
 10
1937.966
 20
2276.912
 30
0
 11
1937.966
 21
2969.74
 31
0
 0
LINE
 8
TOOL_0
 5
43
 10
1937.966
 20
2969.74
 30
0
 11
1962.552
 21
2994.326
 31
0
 0
LINE
 8
TOOL_0
 5
44
 10
1962.552
 20
2994.326
 30
0
 11
3578.966
 21
2994.326
 31
0
 0
ARC
 8
TOOL_0
 5
45
 10
3578.966
 20
2983.326
 30
0
 40
11.0
 50
0
 51
90.0
210
0
220
0
230
1.0
 0
LINE
 8
TOOL_0
 5
46
 10
3589.966
 20
2983.326
 30
0
 11
3589.966
 21
8.326
 31
0
 0
LINE
 8
TOOL_0
 5
47
 10
3589.966
 20
8.326
 30
0
 11
1798.966
 21
8.326
 31
0
 0
ARC
 8
TOOL_0
 5
48
 10
1798.966
 20
19.326
 30
0
 40
11.0
 50
180.0
 51
270.0
210
0
220
0
230
1.0
 0
LINE
 8
TOOL_0
 5
49
 10
1787.966
 20
19.326
 30
0
 11
1787.966
 21
76.97
 31
0
 0
ARC
 8
TOOL_0
 5
4A
 10
1778.904
 20
76.936
 30
0
 40
9.062063782605
 50
0.214968810704
 51
59.787709323245
210
0
220
0
230
1.0
 0
LINE
 8
TOOL_0
 5
4B
 10
1783.464
 20
84.767
 30
0
 11
1695.464
 21
135.574
 31
0
 0
ARC
 8
TOOL_0
 5
4C
 10
1701.027
 20
145.135
 30
0
 40
11.061631434829
 50
180.191641288768
 51
239.807318826481
210
0
220
0
230
1.0
 0
LINE
 8
TOOL_0
 5
4D
 10
1689.965
 20
145.098
 30
0
 11
1689.965
 21
572.326
 31
0
 0
LINE
 8
TOOL_0
 5
4E
 10
1689.965
 20
572.326
 30
0
 11
1967.831
 21
572.326
 31
0
 0
ARC
 8
TOOL_0
 5
4F
 10
1967.354
 20
556.067
 30
0
 40
16.265995512111
 50
72.135361276481
 51
88.319561478478
210
0
220
0
230
1.0
 0
ARC
 8
TOOL_0
 5
50
 10
1991.492
 20
655.873
 30
0
 40
86.470705328452
 50
257.206424388142
 51
311.862065101288
210
0
220
0
230
1.0
 0
ARC
 8
TOOL_0
 5
51
 10
1973.562
 20
679.508
 30
0
 40
116.063079318963
 50
310.667744029048
 51
342.666472144801
210
0
220
0
230
1.0
 0
ARC
 8
TOOL_0
 5
52
 10
1954.293
 20
688.229
 30
0
 40
137.079370151019
 50
341.586331412006
 51
5.414970273912
210
0
220
0
230
1.0
 0
ARC
 8
TOOL_0
 5
53
 10
1991.357
 20
689.279
 30
0
 40
100.112098229934
 50
6.818634596353
 51
63.549101535821
210
0
220
0
230
1.0
 0
ARC
 8
TOOL_0
 5
54
 10
2041.531
 20
788.461
 30
0
 40
11.061196183054
 50
180.191658614494
 51
239.698074321487
210
0
220
0
230
1.0
 0
LINE
 8
TOOL_0
 5
55
 10
2030.47
 20
788.424
 30
0
 11
2030.47
 21
860.182
 31
0
 0
ARC
 8
TOOL_0
 5
56
 10
2021.358
 20
860.138
 30
0
 40
9.112106232919
 50
0.276667548776
 51
44.724327881559
210
0
220
0
230
1.0
 0
LINE
 8
TOOL_0
 5
57
 10
2027.832
 20
866.55
 30
0
 11
2019.69
 21
874.692
 31
0
 0
ARC
 8
TOOL_0
 5
58
 10
2027.706
 20
882.566
 30
0
 40
11.236375394228
 50
180.50991693483
 51
224.487993447381
210
0
220
0
230
1.0
 0
LINE
 8
TOOL_0
 5
59
 10
2016.47
 20
882.466
 30
0
 11
2016.47
 21
1427.326
 31
0
 0
LINE
 8
TOOL_0
 5
5A
 10
2016.47
 20
1427.326
 30
0
 11
2053.147
 21
1427.326
 31
0
 0
ARC
 8
TOOL_0
 5
5B
 10
2061.696
 20
1430.416
 30
0
 40
9.090297079854
 50
199.872175819243
 51
269.621815528491
210
0
220
0
230
1.0
 0
LINE
 8
TOOL_0
 5
5C
 10
2061.636
 20
1421.326
 30
0
 11
2063.966
 21
1421.326
 31
0
 0
ARC
 8
TOOL_0
 5
5D
 10
2063.966
 20
1620.326
 30
0
 40
199.0
 50
270.0
 51
359.99971208151
210
0
220
0
230
1.0
 0
LINE
 8
TOOL_0
 5
5E
 10
2262.966
 20
1620.325
 30
0
 11
2262.966
 21
2053.326
 31
0
 0
ARC
 8
TOOL_0
 5
5F
 10
2063.966
 20
2053.326
 30
0
 40
199.0
 50
0
 51
90.0
210
0
220
0
230
1.0
 0
LINE
 8
TOOL_0
 5
60
 10
2063.966
 20
2252.326
 30
0
 11
1962.552
 21
2252.326
 31
0
 0
LINE
 8
TOOL_0
 5
61
 10
1962.552
 20
2252.326
 30
0
 11
1937.966
 21
2276.912
 31
0
 0
LINE
 8
TOOL_0
 5
62
 10
1937.966
 20
2276.912
 30
0
 11
1926.082
 21
2290.41
 31
0
 0
LINE
 8
TOOL_0
 5
63
 10
1926.082
 20
2290.41
 30
0
 11
1256.413
 21
2841.249
 31
0
 0
LINE
 8
TOOL_0
 5
64
 10
1256.413
 20
2841.249
 30
0
 11
1291.413
 21
2841.249
 31
0
 0
ARC
 8
TOOL_0
 5
65
 10
1251.413
 20
2841.249
 30
0
 40
40.0
 50
0
 51
180.0
210
0
220
0
230
1.0
 0
ARC
 8
TOOL_0
 5
66
 10
1251.413
 20
2841.249
 30
0
 40
40.0
 50
180.0
 51
0
210
0
220
0
230
1.0
 0
LINE
 8
TOOL_0
 5
67
 10
1291.413
 20
2841.249
 30
0
 11
1285.756
 21
2846.906
 31
0
 0
LINE
 8
TOOL_0
 5
68
 10
1285.756
 20
2846.906
 30
0
 11
795.413
 21
2495.249
 31
0
 0
LINE
 8
TOOL_0
 5
69
 10
795.413
 20
2495.249
 30
0
 11
830.413
 21
2495.249
 31
0
 0
LINE
 8
TOOL_0
 5
6A
 10
830.413
 20
2495.249
 30
0
 11
830.413
 21
2525.249
 31
0
 0
ARC
 8
TOOL_0
 5
6B
 10
820.413
 20
2525.249
 30
0
 40
10.0
 50
0
 51
90.0
210
0
220
0
230
1.0
 0
LINE
 8
TOOL_0
 5
6C
 10
820.413
 20
2535.249
 30
0
 11
640.413
 21
2535.249
 31
0
 0
ARC
 8
TOOL_0
 5
6D
 10
640.413
 20
2525.249
 30
0
 40
10.0
 50
90.0
 51
180.0
210
0
220
0
230
1.0
 0
LINE
 8
TOOL_0
 5
6E
 10
630.413
 20
2525.249
 30
0
 11
630.413
 21
2465.249
 31
0
 0
ARC
 8
TOOL_0
 5
6F
 10
640.413
 20
2465.249
 30
0
 40
10.0
 50
180.0
 51
270.0
210
0
220
0
230
1.0
 0
LINE
 8
TOOL_0
 5
70
 10
640.413
 20
2455.249
 30
0
 11
820.413
 21
2455.249
 31
0
 0
ARC
 8
TOOL_0
 5
71
 10
820.413
 20
2465.249
 30
0
 40
10.0
 50
270.0
 51
0
210
0
220
0
230
1.0
 0
LINE
 8
TOOL_0
 5
72
 10
830.413
 20
2465.249
 30
0
 11
830.413
 21
2495.249
 31
0
 0
LINE
 8
TOOL_0
 5
73
 10
830.413
 20
2495.249
 30
0
 11
824.756
 21
2500.906
 31
0
 0
LINE
 8
TOOL_0
 5
74
 10
824.756
 20
2500.906
 30
0
 11
1271.913
 21
1912.249
 31
0
 0
LINE
 8
TOOL_0
 5
75
 10
1271.913
 20
1912.249
 30
0
 11
1306.913
 21
1912.249
 31
0
 0
ARC
 8
TOOL_0
 5
76
 10
1285.413
 20
1912.249
 30
0
 40
21.5
 50
0
 51
66.868246075494
210
0
220
0
230
1.0
 0
LINE
 8
TOOL_0
 5
77
 10
1293.859
 20
1932.02
 30
0
 11
1270.176
 21
1942.137
 31
0
 0
ARC
 8
TOOL_0
 5
78
 10
1257.41
 20
1911.999
 30
0
 40
32.730258171912
 50
67.043220586944
 51
112.956779413055
210
0
220
0
230
1.0
 0
LINE
 8
TOOL_0
 5
79
 10
1244.644
 20
1942.137
 30
0
 11
1220.966
 21
1932.02
 31
0
 0
ARC
 8
TOOL_0
 5
7A
 10
1229.412
 20
1912.249
 30
0
 40
21.499473412156
 50
113.131753924506
 51
246.869292961725
210
0
220
0
230
1.0
 0
LINE
 8
TOOL_0
 5
7B
 10
1220.966
 20
1892.477
 30
0
 11
1244.645
 21
1882.361
 31
0
 0
ARC
 8
TOOL_0
 5
7C
 10
1257.411
 20
1912.476
 30
0
 40
32.709081017357
 50
247.0275065583
 51
292.970880665905
210
0
220
0
230
1.0
 0
LINE
 8
TOOL_0
 5
7D
 10
1270.176
 20
1882.361
 30
0
 11
1293.86
 21
1892.477
 31
0
 0
ARC
 8
TOOL_0
 5
7E
 10
1285.414
 20
1912.248
 30
0
 40
21.499473412156
 50
293.131753924506
 51
0
210
0
220
0
230
1.0
 0
LINE
 8
TOOL_0
 5
7F
 10
1306.914
 20
1912.248
 30
0
 11
1301.257
 21
1917.905
 31
0
 0
LINE
 8
TOOL_0
 5
80
 10
1301.257
 20
1917.905
 30
0
 11
532.414
 21
124.248
 31
0
 0
LINE
 8
TOOL_0
 5
81
 10
532.414
 20
124.248
 30
0
 11
567.414
 21
124.248
 31
0
 0
ARC
 8
TOOL_0
 5
82
 10
537.414
 20
124.248
 30
0
 40
30.0
 50
0
 51
90.0
210
0
220
0
230
1.0
 0
LINE
 8
TOOL_0
 5
83
 10
537.414
 20
154.248
 30
0
 11
467.414
 21
154.248
 31
0
 0
ARC
 8
TOOL_0
 5
84
 10
467.414
 20
124.248
 30
0
 40
30.0
 50
90.0
 51
180.0
210
0
220
0
230
1.0
 0
LINE
 8
TOOL_0
 5
85
 10
437.414
 20
124.248
 30
0
 11
437.414
 21
104.248
 31
0
 0
ARC
 8
TOOL_0
 5
86
 10
447.414
 20
104.248
 30
0
 40
10.0
 50
180.0
 51
270.0
210
0
220
0
230
1.0
 0
LINE
 8
TOOL_0
 5
87
 10
447.414
 20
94.248
 30
0
 11
557.414
 21
94.248
 31
0
 0
ARC
 8
TOOL_0
 5
88
 10
557.414
 20
104.248
 30
0
 40
10.0
 50
270.0
 51
0
210
0
220
0
230
1.0
 0
LINE
 8
TOOL_0
 5
89
 10
567.414
 20
104.248
 30
0
 11
567.414
 21
124.248
 31
0
 0
LINE
 8
TOOL_0
 5
8A
 10
567.414
 20
124.248
 30
0
 11
561.757
 21
129.905
 31
0
 0
LINE
 8
TOOL_0
 5
8B
 10
561.757
 20
129.905
 30
0
 11
612.414
 21
224.248
 31
0
 0
LINE
 8
TOOL_0
 5
8C
 10
612.414
 20
224.248
 30
0
 11
647.414
 21
224.248
 31
0
 0
LINE
 8
TOOL_0
 5
8D
 10
647.414
 20
224.248
 30
0
 11
647.414
 21
254.248
 31
0
 0
ARC
 8
TOOL_0
 5
8E
 10
627.414
 20
254.248
 30
0
 40
20.0
 50
0
 51
90.0
210
0
220
0
230
1.0
 0
LINE
 8
TOOL_0
 5
8F
 10
627.414
 20
274.248
 30
0
 11
567.414
 21
274.248
 31
0
 0
ARC
 8
TOOL_0
 5
90
 10
567.414
 20
254.248
 30
0
 40
20.0
 50
90.0
 51
180.0
210
0
220
0
230
1.0
 0
LINE
 8
TOOL_0
 5
91
 10
547.414
 20
254.248
 30
0
 11
547.414
 21
194.248
 31
0
 0
ARC
 8
TOOL_0
 5
92
 10
567.414
 20
194.248
 30
0
 40
20.0
 50
180.0
 51
270.0
210
0
220
0
230
1.0
 0
LINE
 8
TOOL_0
 5
93
 10
567.414
 20
174.248
 30
0
 11
627.414
 21
174.248
 31
0
 0
ARC
 8
TOOL_0
 5
94
 10
627.414
 20
194.248
 30
0
 40
20.0
 50
270.0
 51
0
210
0
220
0
230
1.0
 0
LINE
 8
TOOL_0
 5
95
 10
647.414
 20
194.248
 30
0
 11
647.414
 21
224.248
 31
0
 0
LINE
 8
TOOL_0
 5
96
 10
647.414
 20
224.248
 30
0
 11
641.757
 21
229.905
 31
0
 0
LINE
 8
TOOL_0
 5
97
 10
641.757
 20
229.905
 30
0
 11
1607.414
 21
197.248
 31
0
 0
LINE
 8
TOOL_0
 5
98
 10
1607.414
 20
197.248
 30
0
 11
1642.414
 21
197.248
 31
0
 0
LINE
 8
TOOL_0
 5
99
 10
1642.414
 20
197.248
 30
0
 11
1642.414
 21
227.248
 31
0
 0
ARC
 8
TOOL_0
 5
9A
 10
1622.414
 20
227.248
 30
0
 40
20.0
 50
0
 51
90.0
210
0
220
0
230
1.0
 0
LINE
 8
TOOL_0
 5
9B
 10
1622.414
 20
247.248
 30
0
 11
1562.414
 21
247.248
 31
0
 0
ARC
 8
TOOL_0
 5
9C
 10
1562.414
 20
227.248
 30
0
 40
20.0
 50
90.0
 51
180.0
210
0
220
0
230
1.0
 0
LINE
 8
TOOL_0
 5
9D
 10
1542.414
 20
227.248
 30
0
 11
1542.414
 21
167.248
 31
0
 0
ARC
 8
TOOL_0
 5
9E
 10
1562.414
 20
167.248
 30
0
 40
20.0
 50
180.0
 51
270.0
210
0
220
0
230
1.0
 0
LINE
 8
TOOL_0
 5
9F
 10
1562.414
 20
147.248
 30
0
 11
1622.414
 21
147.248
 31
0
 0
ARC
 8
TOOL_0
 5
A0
 10
1622.414
 20
167.248
 30
0
 40
20.0
 50
270.0
 51
0
210
0
220
0
230
1.0
 0
LINE
 8
TOOL_0
 5
A1
 10
1642.414
 20
167.248
 30
0
 11
1642.414
 21
197.248
 31
0
 0
LINE
 8
TOOL_0
 5
A2
 10
1642.414
 20
197.248
 30
0
 11
1636.757
 21
202.905
 31
0
 0
LINE
 8
TOOL_0
 5
A3
 10
1636.757
 20
202.905
 30
0
 11
1672.347
 21
787.455
 31
0
 0
LINE
 8
TOOL_0
 5
A4
 10
1672.347
 20
787.455
 30
0
 11
1668.414
 21
728.662
 31
0
 0
LINE
 8
TOOL_0
 5
A5
 10
1668.414
 20
728.662
 30
0
 11
1668.414
 21
35.834
 31
0
 0
LINE
 8
TOOL_0
 5
A6
 10
1668.414
 20
35.834
 30
0
 11
1643.828
 21
11.248
 31
0
 0
LINE
 8
TOOL_0
 5
A7
 10
1643.828
 20
11.248
 30
0
 11
27.414
 21
11.248
 31
0
 0
ARC
 8
TOOL_0
 5
A8
 10
27.414
 20
22.248
 30
0
 40
11.0
 50
180.0
 51
270.0
210
0
220
0
230
1.0
 0
LINE
 8
TOOL_0
 5
A9
 10
16.414
 20
22.248
 30
0
 11
16.414
 21
2997.248
 31
0
 0
LINE
 8
TOOL_0
 5
AA
 10
16.414
 20
2997.248
 30
0
 11
1807.414
 21
2997.248
 31
0
 0
ARC
 8
TOOL_0
 5
AB
 10
1807.414
 20
2986.248
 30
0
 40
11.0
 50
0
 51
90.0
210
0
220
0
230
1.0
 0
LINE
 8
TOOL_0
 5
AC
 10
1818.414
 20
2986.248
 30
0
 11
1818.414
 21
2928.604
 31
0
 0
ARC
 8
TOOL_0
 5
AD
 10
1827.476
 20
2928.638
 30
0
 40
9.062063782605
 50
180.214968810704
 51
239.787709323245
210
0
220
0
230
1.0
 0
LINE
 8
TOOL_0
 5
AE
 10
1822.916
 20
2920.807
 30
0
 11
1910.916
 21
2870.0
 31
0
 0
ARC
 8
TOOL_0
 5
AF
 10
1905.353
 20
2860.439
 30
0
 40
11.061631434829
 50
0.19164128877
 51
59.807318826481
210
0
220
0
230
1.0
 0
LINE
 8
TOOL_0
 5
B0
 10
1916.415
 20
2860.476
 30
0
 11
1916.415
 21
2433.248
 31
0
 0
LINE
 8
TOOL_0
 5
B1
 10
1916.415
 20
2433.248
 30
0
 11
1638.549
 21
2433.248
 31
0
 0
ARC
 8
TOOL_0
 5
B2
 10
1639.026
 20
2449.507
 30
0
 40
16.265995512111
 50
252.135361276481
 51
268.319561478478
210
0
220
0
230
1.0
 0
ARC
 8
TOOL_0
 5
B3
 10
1614.888
 20
2349.701
 30
0
 40
86.470705328452
 50
77.206424388143
 51
131.862065101288
210
0
220
0
230
1.0
 0
ARC
 8
TOOL_0
 5
B4
 10
1632.819
 20
2326.067
 30
0
 40
116.062972497692
 50
130.668440176572
 51
162.667090462722
210
0
220
0
230
1.0
 0
ARC
 8
TOOL_0
 5
B5
 10
1652.088
 20
2317.345
 30
0
 40
137.080318952065
 50
161.586463439178
 51
185.414970273912
210
0
220
0
230
1.0
 0
ARC
 8
TOOL_0
 5
B6
 10
1615.024
 20
2316.296
 30
0
 40
100.112216961767
 50
186.819202863894
 51
243.549101535821
210
0
220
0
230
1.0
 0
ARC
 8
TOOL_0
 5
B7
 10
1564.85
 20
2217.113
 30
0
 40
11.062059573154
 50
0.191641288767
 51
59.700687665406
210
0
220
0
230
1.0
 0
LINE
 8
TOOL_0
 5
B8
 10
1575.912
 20
2217.15
 30
0
 11
1575.912
 21
2145.392
 31
0
 0
ARC
 8
TOOL_0
 5
B9
 10
1585.024
 20
2145.436
 30
0
 40
9.112106232919
 50
180.276667548775
 51
224.724327881558
210
0
220
0
230
1.0
 0
LINE
 8
TOOL_0
 5
BA
 10
1578.55
 20
2139.024
 30
0
 11
1586.692
 21
2130.882
 31
0
 0
ARC
 8
TOOL_0
 5
BB
 10
1578.676
 20
2123.008
 30
0
 40
11.236375394227
 50
0.50991693483
 51
44.487993447381
210
0
220
0
230
1.0
 0
LINE
 8
TOOL_0
 5
BC
 10
1589.912
 20
2123.108
 30
0
 11
1589.912
 21
1578.248
 31
0
 0
LINE
 8
TOOL_0
 5
BD
 10
1589.912
 20
1578.248
 30
0
 11
1553.235
 21
1578.248
 31
0
 0
ARC
 8
TOOL_0
 5
BE
 10
1544.686
 20
1575.158
 30
0
 40
9.090297079854
 50
19.872175819244
 51
89.621815528491
210
0
220
0
230
1.0
 0
LINE
 8
TOOL_0
 5
BF
 10
1544.746
 20
1584.248
 30
0
 11
1542.417
 21
1584.248
 31
0
 0
ARC
 8
TOOL_0
 5
C0
 10
1542.417
 20
1385.248
 30
0
 40
199.0
 50
90.0
 51
180.0
210
0
220
0
230
1.0
 0
LINE
 8
TOOL_0
 5
C1
 10
1343.417
 20
1385.248
 30
0
 11
1343.417
 21
952.248
 31
0
 0
ARC
 8
TOOL_0
 5
C2
 10
1542.417
 20
952.248
 30
0
 40
199.0
 50
180.0
 51
270.0
210
0
220
0
230
1.0
 0
LINE
 8
TOOL_0
 5
C3
 10
1542.417
 20
753.248
 30
0
 11
1643.831
 21
753.248
 31
0
 0
LINE
 8
TOOL_0
 5
C4
 10
1643.831
 20
753.248
 30
0
 11
1668.417
 21
728.662
 31
0
 0
LINE
 8
TOOL_0
 5
C5
 10
1668.417
 20
728.662
 30
0
 11
1678.602
 21
715.676
 31
0
 0
LINE
 8
TOOL_0
 5
C6
 10
1678.602
 20
715.676
 30
0
 11
4853.396
 21
2832.748
 31
0
 0
LINE
 8
TOOL_0
 5
C7
 10
4853.396
 20
2832.748
 30
0
 11
4888.396
 21
2832.748
 31
0
 0
ARC
 8
TOOL_0
 5
C8
 10
4848.396
 20
2832.748
 30
0
 40
40.0
 50
0
 51
180.0
210
0
220
0
230
1.0
 0
ARC
 8
TOOL_0
 5
C9
 10
4848.396
 20
2832.748
 30
0
 40
40.0
 50
180.0
 51
0
210
0
220
0
230
1.0
 0
LINE
 8
TOOL_0
 5
CA
 10
4888.396
 20
2832.748
 30
0
 11
4882.739
 21
2838.405
 31
0
 0
LINE
 8
TOOL_0
 5
CB
 10
4882.739
 20
2838.405
 30
0
 11
4392.396
 21
2486.748
 31
0
 0
LINE
 8
TOOL_0
 5
CC
 10
4392.396
 20
2486.748
 30
0
 11
4427.396
 21
2486.748
 31
0
 0
LINE
 8
TOOL_0
 5
CD
 10
4427.396
 20
2486.748
 30
0
 11
4427.396
 21
2516.748
 31
0
 0
ARC
 8
TOOL_0
 5
CE
 10
4417.396
 20
2516.748
 30
0
 40
10.0
 50
0
 51
90.0
210
0
220
0
230
1.0
 0
LINE
 8
TOOL_0
 5
CF
 10
4417.396
 20
2526.748
 30
0
 11
4237.396
 21
2526.748
 31
0
 0
ARC
 8
TOOL_0
 5
D0
 10
4237.396
 20
2516.748
 30
0
 40
10.0
 50
90.0
 51
180.0
210
0
220
0
230
1.0
 0
LINE
 8
TOOL_0
 5
D1
 10
4227.396
 20
2516.748
 30
0
 11
4227.396
 21
2456.748
 31
0
 0
ARC
 8
TOOL_0
 5
D2
 10
4237.396
 20
2456.748
 30
0
 40
10.0
 50
180.0
 51
270.0
210
0
220
0
230
1.0
 0
LINE
 8
TOOL_0
 5
D3
 10
4237.396
 20
2446.748
 30
0
 11
4417.396
 21
2446.748
 31
0
 0
ARC
 8
TOOL_0
 5
D4
 10
4417.396
 20
2456.748
 30
0
 40
10.0
 50
270.0
 51
0
210
0
220
0
230
1.0
 0
LINE
 8
TOOL_0
 5
D5
 10
4427.396
 20
2456.748
 30
0
 11
4427.396
 21
2486.748
 31
0
 0
LINE
 8
TOOL_0
 5
D6
 10
4427.396
 20
2486.748
 30
0
 11
4421.739
 21
2492.405
 31
0
 0
LINE
 8
TOOL_0
 5
D7
 10
4421.739
 20
2492.405
 30
0
 11
4868.896
 21
1903.748
 31
0
 0
LINE
 8
TOOL_0
 5
D8
 10
4868.896
 20
1903.748
 30
0
 11
4903.896
 21
1903.748
 31
0
 0
ARC
 8
TOOL_0
 5
D9
 10
4882.396
 20
1903.748
 30
0
 40
21.5
 50
0
 51
66.868246075494
210
0
220
0
230
1.0
 0
LINE
 8
TOOL_0
 5
DA
 10
4890.842
 20
1923.519
 30
0
 11
4867.159
 21
1933.636
 31
0
 0
ARC
 8
TOOL_0
 5
DB
 10
4854.393
 20
1903.498
 30
0
 40
32.730258171912
 50
67.043220586945
 51
112.956779413056
210
0
220
0
230
1.0
 0
LINE
 8
TOOL_0
 5
DC
 10
4841.627
 20
1933.636
 30
0
 11
4817.949
 21
1923.519
 31
0
 0
ARC
 8
TOOL_0
 5
DD
 10
4826.395
 20
1903.748
 30
0
 40
21.499473412156
 50
113.131753924506
 51
246.869292961725
210
0
220
0
230
1.0
 0
LINE
 8
TOOL_0
 5
DE
 10
4817.949
 20
1883.976
 30
0
 11
4841.628
 21
1873.86
 31
0
 0
ARC
 8
TOOL_0
 5
DF
 10
4854.394
 20
1903.975
 30
0
 40
32.709081017357
 50
247.0275065583
 51
292.970880665906
210
0
220
0
230
1.0
 0
LINE
 8
TOOL_0
 5
E0
 10
4867.159
 20
1873.86
 30
0
 11
4890.843
 21
1883.976
 31
0
 0
ARC
 8
TOOL_0
 5
E1
 10
4882.397
 20
1903.747
 30
0
 40
21.499473412156
 50
293.131753924506
 51
0
210
0
220
0
230
1.0
 0
LINE
 8
TOOL_0
 5
E2
 10
4903.897
 20
1903.747
 30
0
 11
4898.24
 21
1909.404
 31
0
 0
LINE
 8
TOOL_0
 5
E3
 10
4898.24
 20
1909.404
 30
0
 11
4129.397
 21
115.747
 31
0
 0
LINE
 8
TOOL_0
 5
E4
 10
4129.397
 20
115.747
 30
0
 11
4164.397
 21
115.747
 31
0
 0
ARC
 8
TOOL_0
 5
E5
 10
4134.397
 20
115.747
 30
0
 40
30.0
 50
0
 51
90.0
210
0
220
0
230
1.0
 0
LINE
 8
TOOL_0
 5
E6
 10
4134.397
 20
145.747
 30
0
 11
4064.397
 21
145.747
 31
0
 0
ARC
 8
TOOL_0
 5
E7
 10
4064.397
 20
115.747
 30
0
 40
30.0
 50
90.0
 51
180.0
210
0
220
0
230
1.0
 0
LINE
 8
TOOL_0
 5
E8
 10
4034.397
 20
115.747
 30
0
 11
4034.397
 21
95.747
 31
0
 0
ARC
 8
TOOL_0
 5
E9
 10
4044.397
 20
95.747
 30
0
 40
10.0
 50
180.0
 51
270.0
210
0
220
0
230
1.0
 0
LINE
 8
TOOL_0
 5
EA
 10
4044.397
 20
85.747
 30
0
 11
4154.397
 21
85.747
 31
0
 0
ARC
 8
TOOL_0
 5
EB
 10
4154.397
 20
95.747
 30
0
 40
10.0
 50
270.0
 51
0
210
0
220
0
230
1.0
 0
LINE
 8
TOOL_0
 5
EC
 10
4164.397
 20
95.747
 30
0
 11
4164.397
 21
115.747
 31
0
 0
LINE
 8
TOOL_0
 5
ED
 10
4164.397
 20
115.747
 30
0
 11
4158.74
 21
121.404
 31
0
 0
LINE
 8
TOOL_0
 5
EE
 10
4158.74
 20
121.404
 30
0
 11
4209.397
 21
217.831
 31
0
 0
LINE
 8
TOOL_0
 5
EF
 10
4209.397
 20
217.831
 30
0
 11
4244.397
 21
217.831
 31
0
 0
LINE
 8
TOOL_0
 5
F0
 10
4244.397
 20
217.831
 30
0
 11
4244.397
 21
245.747
 31
0
 0
ARC
 8
TOOL_0
 5
F1
 10
4224.397
 20
245.747
 30
0
 40
20.0
 50
0
 51
90.0
210
0
220
0
230
1.0
 0
LINE
 8
TOOL_0
 5
F2
 10
4224.397
 20
265.747
 30
0
 11
4164.397
 21
265.747
 31
0
 0
ARC
 8
TOOL_0
 5
F3
 10
4164.397
 20
245.747
 30
0
 40
20.0
 50
90.0
 51
180.0
210
0
220
0
230
1.0
 0
LINE
 8
TOOL_0
 5
F4
 10
4144.397
 20
245.747
 30
0
 11
4144.397
 21
185.747
 31
0
 0
ARC
 8
TOOL_0
 5
F5
 10
4164.397
 20
185.747
 30
0
 40
20.0
 50
180.0
 51
270.0
210
0
220
0
230
1.0
 0
LINE
 8
TOOL_0
 5
F6
 10
4164.397
 20
165.747
 30
0
 11
4224.397
 21
165.747
 31
0
 0
ARC
 8
TOOL_0
 5
F7
 10
4224.397
 20
185.747
 30
0
 40
20.0
 50
270.0
 51
0
210
0
220
0
230
1.0
 0
LINE
 8
TOOL_0
 5
F8
 10
4244.397
 20
185.747
 30
0
 11
4244.397
 21
217.831
 31
0
 0
LINE
 8
TOOL_0
 5
F9
 10
4244.397
 20
217.831
 30
0
 11
4238.74
 21
223.488
 31
0
 0
LINE
 8
TOOL_0
 5
FA
 10
4238.74
 20
223.488
 30
0
 11
5204.397
 21
188.747
 31
0
 0
LINE
 8
TOOL_0
 5
FB
 10
5204.397
 20
188.747
 30
0
 11
5239.397
 21
188.747
 31
0
 0
LINE
 8
TOOL_0
 5
FC
 10
5239.397
 20
188.747
 30
0
 11
5239.397
 21
218.747
 31
0
 0
ARC
 8
TOOL_0
 5
FD
 10
5219.397
 20
218.747
 30
0
 40
20.0
 50
0
 51
90.0
210
0
220
0
230
1.0
 0
LINE
 8
TOOL_0
 5
FE
 10
5219.397
 20
238.747
 30
0
 11
5159.397
 21
238.747
 31
0
 0
ARC
 8
TOOL_0
 5
FF
 10
5159.397
 20
218.747
 30
0
 40
20.0
 50
90.0
 51
180.0
210
0
220
0
230
1.0
 0
LINE
 8
TOOL_0
 5
100
 10
5139.397
 20
218.747
 30
0
 11
5139.397
 21
158.747
 31
0
 0
ARC
 8
TOOL_0
 5
101
 10
5159.397
 20
158.747
 30
0
 40
20.0
 50
180.0
 51
270.0
210
0
220
0
230
1.0
 0
LINE
 8
TOOL_0
 5
102
 10
5159.397
 20
138.747
 30
0
 11
5219.397
 21
138.747
 31
0
 0
ARC
 8
TOOL_0
 5
103
 10
5219.397
 20
158.747
 30
0
 40
20.0
 50
270.0
 51
0
210
0
220
0
230
1.0
 0
LINE
 8
TOOL_0
 5
104
 10
5239.397
 20
158.747
 30
0
 11
5239.397
 21
188.747
 31
0
 0
LINE
 8
TOOL_0
 5
105
 10
5239.397
 20
188.747
 30
0
 11
5233.74
 21
194.404
 31
0
 0
LINE
 8
TOOL_0
 5
106
 10
5233.74
 20
194.404
 30
0
 11
5264.334
 21
771.848
 31
0
 0
LINE
 8
TOOL_0
 5
107
 10
5264.334
 20
771.848
 30
0
 11
5265.397
 21
720.161
 31
0
 0
LINE
 8
TOOL_0
 5
108
 10
5265.397
 20
720.161
 30
0
 11
5265.397
 21
27.333
 31
0
 0
LINE
 8
TOOL_0
 5
109
 10
5265.397
 20
27.333
 30
0
 11
5240.811
 21
2.747
 31
0
 0
LINE
 8
TOOL_0
 5
10A
 10
5240.811
 20
2.747
 30
0
 11
3624.397
 21
2.747
 31
0
 0
ARC
 8
TOOL_0
 5
10B
 10
3624.397
 20
13.747
 30
0
 40
11.0
 50
180.0
 51
270.0
210
0
220
0
230
1.0
 0
LINE
 8
TOOL_0
 5
10C
 10
3613.397
 20
13.747
 30
0
 11
3613.397
 21
2988.747
 31
0
 0
LINE
 8
TOOL_0
 5
10D
 10
3613.397
 20
2988.747
 30
0
 11
5404.397
 21
2988.747
 31
0
 0
ARC
 8
TOOL_0
 5
10E
 10
5404.397
 20
2977.747
 30
0
 40
11.0
 50
0
 51
90.0
210
0
220
0
230
1.0
 0
LINE
 8
TOOL_0
 5
10F
 10
5415.397
 20
2977.747
 30
0
 11
5415.397
 21
2920.103
 31
0
 0
ARC
 8
TOOL_0
 5
110
 10
5424.459
 20
2920.137
 30
0
 40
9.062063782605
 50
180.214968810704
 51
239.787709323248
210
0
220
0
230
1.0
 0
LINE
 8
TOOL_0
 5
111
 10
5419.899
 20
2912.306
 30
0
 11
5507.899
 21
2861.499
 31
0
 0
ARC
 8
TOOL_0
 5
112
 10
5502.336
 20
2851.938
 30
0
 40
11.061631434829
 50
0.19164128877
 51
59.807318826481
210
0
220
0
230
1.0
 0
LINE
 8
TOOL_0
 5
113
 10
5513.398
 20
2851.975
 30
0
 11
5513.398
 21
2424.747
 31
0
 0
LINE
 8
TOOL_0
 5
114
 10
5513.398
 20
2424.747
 30
0
 11
5235.532
 21
2424.747
 31
0
 0
ARC
 8
TOOL_0
 5
115
 10
5236.009
 20
2441.006
 30
0
 40
16.265995512111
 50
252.135361276482
 51
268.319561478479
210
0
220
0
230
1.0
 0
ARC
 8
TOOL_0
 5
116
 10
5211.871
 20
2341.2
 30
0
 40
86.470705328452
 50
77.206424388143
 51
131.862065101288
210
0
220
0
230
1.0
 0
ARC
 8
TOOL_0
 5
117
 10
5229.802
 20
2317.566
 30
0
 40
116.062972497692
 50
130.668440176572
 51
162.667090462723
210
0
220
0
230
1.0
 0
ARC
 8
TOOL_0
 5
118
 10
5249.071
 20
2308.844
 30
0
 40
137.080318952065
 50
161.586463439178
 51
185.414970273912
210
0
220
0
230
1.0
 0
ARC
 8
TOOL_0
 5
119
 10
5212.007
 20
2307.795
 30
0
 40
100.112216961767
 50
186.819202863894
 51
243.549101535821
210
0
220
0
230
1.0
 0
ARC
 8
TOOL_0
 5
11A
 10
5161.833
 20
2208.612
 30
0
 40
11.062059573154
 50
0.191641288767
 51
59.700687665405
210
0
220
0
230
1.0
 0
LINE
 8
TOOL_0
 5
11B
 10
5172.895
 20
2208.649
 30
0
 11
5172.895
 21
2136.891
 31
0
 0
ARC
 8
TOOL_0
 5
11C
 10
5182.007
 20
2136.935
 30
0
 40
9.112106232919
 50
180.276667548775
 51
224.724327881558
210
0
220
0
230
1.0
 0
LINE
 8
TOOL_0
 5
11D
 10
5175.533
 20
2130.523
 30
0
 11
5183.675
 21
2122.381
 31
0
 0
ARC
 8
TOOL_0
 5
11E
 10
5175.659
 20
2114.507
 30
0
 40
11.236375394227
 50
0.50991693483
 51
44.487993447383
210
0
220
0
230
1.0
 0
LINE
 8
TOOL_0
 5
11F
 10
5186.895
 20
2114.607
 30
0
 11
5186.895
 21
1569.747
 31
0
 0
LINE
 8
TOOL_0
 5
120
 10
5186.895
 20
1569.747
 30
0
 11
5150.218
 21
1569.747
 31
0
 0
ARC
 8
TOOL_0
 5
121
 10
5141.669
 20
1566.657
 30
0
 40
9.090297079854
 50
19.872175819244
 51
89.621815528488
210
0
220
0
230
1.0
 0
LINE
 8
TOOL_0
 5
122
 10
5141.729
 20
1575.747
 30
0
 11
5139.4
 21
1575.747
 31
0
 0
ARC
 8
TOOL_0
 5
123
 10
5139.4
 20
1376.747
 30
0
 40
199.0
 50
90.0
 51
180.0
210
0
220
0
230
1.0
 0
LINE
 8
TOOL_0
 5
124
 10
4940.4
 20
1376.747
 30
0
 11
4940.4
 21
943.747
 31
0
 0
ARC
 8
TOOL_0
 5
125
 10
5139.4
 20
943.747
 30
0
 40
199.0
 50
180.0
 51
270.0
210
0
220
0
230
1.0
 0
LINE
 8
TOOL_0
 5
126
 10
5139.4
 20
744.747
 30
0
 11
5240.814
 21
744.747
 31
0
 0
LINE
 8
TOOL_0
 5
127
 10
5240.814
 20
744.747
 30
0
 11
5265.4
 21
720.161
 31
0
 0
LINE
 8
TOOL_0
 5
128
 10
5265.4
 20
720.161
 30
0
 11
5276.808
 21
710.254
 31
0
 0
LINE
 8
TOOL_0
 5
129
 10
5276.808
 20
710.254
 30
0
 11
6729.579
 21
2875.747
 31
0
 0
LINE
 8
TOOL_0
 5
12A
 10
6729.579
 20
2875.747
 30
0
 11
6764.579
 21
2875.747
 31
0
 0
LINE
 8
TOOL_0
 5
12B
 10
6764.579
 20
2875.747
 30
0
 11
6764.579
 21
2895.747
 31
0
 0
ARC
 8
TOOL_0
 5
12C
 10
6754.579
 20
2895.747
 30
0
 40
10.0
 50
0
 51
90.0
210
0
220
0
230
1.0
 0
LINE
 8
TOOL_0
 5
12D
 10
6754.579
 20
2905.747
 30
0
 11
6644.579
 21
2905.747
 31
0
 0
ARC
 8
TOOL_0
 5
12E
 10
6644.579
 20
2895.747
 30
0
 40
10.0
 50
90.0
 51
180.0
210
0
220
0
230
1.0
 0
LINE
 8
TOOL_0
 5
12F
 10
6634.579
 20
2895.747
 30
0
 11
6634.579
 21
2875.747
 31
0
 0
ARC
 8
TOOL_0
 5
130
 10
6664.579
 20
2875.747
 30
0
 40
30.0
 50
180.0
 51
270.0
210
0
220
0
230
1.0
 0
LINE
 8
TOOL_0
 5
131
 10
6664.579
 20
2845.747
 30
0
 11
6734.579
 21
2845.747
 31
0
 0
ARC
 8
TOOL_0
 5
132
 10
6734.579
 20
2875.747
 30
0
 40
30.0
 50
270.0
 51
0
210
0
220
0
230
1.0
 0
LINE
 8
TOOL_0
 5
133
 10
6764.579
 20
2875.747
 30
0
 11
6758.922
 21
2881.404
 31
0
 0
LINE
 8
TOOL_0
 5
134
 10
6758.922
 20
2881.404
 30
0
 11
6619.579
 21
2775.747
 31
0
 0
LINE
 8
TOOL_0
 5
135
 10
6619.579
 20
2775.747
 30
0
 11
6654.579
 21
2775.747
 31
0
 0
LINE
 8
TOOL_0
 5
136
 10
6654.579
 20
2775.747
 30
0
 11
6654.579
 21
2805.747
 31
0
 0
ARC
 8
TOOL_0
 5
137
 10
6634.579
 20
2805.747
 30
0
 40
20.0
 50
0
 51
90.0
210
0
220
0
230
1.0
 0
LINE
 8
TOOL_0
 5
138
 10
6634.579
 20
2825.747
 30
0
 11
6574.579
 21
2825.747
 31
0
 0
ARC
 8
TOOL_0
 5
139
 10
6574.579
 20
2805.747
 30
0
 40
20.0
 50
90.0
 51
180.0
210
0
220
0
230
1.0
 0
LINE
 8
TOOL_0
 5
13A
 10
6554.579
 20
2805.747
 30
0
 11
6554.579
 21
2745.747
 31
0
 0
ARC
 8
TOOL_0
 5
13B
 10
6574.579
 20
2745.747
 30
0
 40
20.0
 50
180.0
 51
270.0
210
0
220
0
230
1.0
 0
LINE
 8
TOOL_0
 5
13C
 10
6574.579
 20
2725.747
 30
0
 11
6634.579
 21
2725.747
 31
0
 0
ARC
 8
TOOL_0
 5
13D
 10
6634.579
 20
2745.747
 30
0
 40
20.0
 50
270.0
 51
0
210
0
220
0
230
1.0
 0
LINE
 8
TOOL_0
 5
13E
 10
6654.579
 20
2745.747
 30
0
 11
6654.579
 21
2775.747
 31
0
 0
LINE
 8
TOOL_0
 5
13F
 10
6654.579
 20
2775.747
 30
0
 11
6648.922
 21
2781.404
 31
0
 0
LINE
 8
TOOL_0
 5
140
 10
6648.922
 20
2781.404
 30
0
 11
5624.579
 21
2802.747
 31
0
 0
LINE
 8
TOOL_0
 5
141
 10
5624.579
 20
2802.747
 30
0
 11
5659.579
 21
2802.747
 31
0
 0
LINE
 8
TOOL_0
 5
142
 10
5659.579
 20
2802.747
 30
0
 11
5659.579
 21
2832.747
 31
0
 0
ARC
 8
TOOL_0
 5
143
 10
5639.579
 20
2832.747
 30
0
 40
20.0
 50
0
 51
90.0
210
0
220
0
230
1.0
 0
LINE
 8
TOOL_0
 5
144
 10
5639.579
 20
2852.747
 30
0
 11
5579.579
 21
2852.747
 31
0
 0
ARC
 8
TOOL_0
 5
145
 10
5579.579
 20
2832.747
 30
0
 40
20.0
 50
90.0
 51
180.0
210
0
220
0
230
1.0
 0
LINE
 8
TOOL_0
 5
146
 10
5559.579
 20
2832.747
 30
0
 11
5559.579
 21
2772.747
 31
0
 0
ARC
 8
TOOL_0
 5
147
 10
5579.579
 20
2772.747
 30
0
 40
20.0
 50
180.0
 51
270.0
210
0
220
0
230
1.0
 0
LINE
 8
TOOL_0
 5
148
 10
5579.579
 20
2752.747
 30
0
 11
5639.579
 21
2752.747
 31
0
 0
ARC
 8
TOOL_0
 5
149
 10
5639.579
 20
2772.747
 30
0
 40
20.0
 50
270.0
 51
0
210
0
220
0
230
1.0
 0
LINE
 8
TOOL_0
 5
14A
 10
5659.579
 20
2772.747
 30
0
 11
5659.579
 21
2802.747
 31
0
 0
LINE
 8
TOOL_0
 5
14B
 10
5659.579
 20
2802.747
 30
0
 11
5653.922
 21
2808.404
 31
0
 0
LINE
 8
TOOL_0
 5
14C
 10
5653.922
 20
2808.404
 30
0
 11
5959.079
 21
1087.747
 31
0
 0
LINE
 8
TOOL_0
 5
14D
 10
5959.079
 20
1087.747
 30
0
 11
5994.079
 21
1087.747
 31
0
 0
ARC
 8
TOOL_0
 5
14E
 10
5972.579
 20
1087.747
 30
0
 40
21.5
 50
0
 51
66.868246075494
210
0
220
0
230
1.0
 0
LINE
 8
TOOL_0
 5
14F
 10
5981.025
 20
1107.518
 30
0
 11
5957.346
 21
1117.634
 31
0
 0
ARC
 8
TOOL_0
 5
150
 10
5944.58
 20
1087.519
 30
0
 40
32.709081017357
 50
67.027506558301
 51
112.970880665905
210
0
220
0
230
1.0
 0
LINE
 8
TOOL_0
 5
151
 10
5931.815
 20
1117.634
 30
0
 11
5908.132
 21
1107.518
 31
0
 0
ARC
 8
TOOL_0
 5
152
 10
5916.578
 20
1087.747
 30
0
 40
21.499473412156
 50
113.131753924506
 51
246.869292961725
210
0
220
0
230
1.0
 0
LINE
 8
TOOL_0
 5
153
 10
5908.132
 20
1067.975
 30
0
 11
5931.815
 21
1057.858
 31
0
 0
ARC
 8
TOOL_0
 5
154
 10
5944.581
 20
1087.996
 30
0
 40
32.730258171912
 50
247.043220586945
 51
292.956779413057
210
0
220
0
230
1.0
 0
LINE
 8
TOOL_0
 5
155
 10
5957.347
 20
1057.858
 30
0
 11
5981.025
 21
1067.975
 31
0
 0
ARC
 8
TOOL_0
 5
156
 10
5972.579
 20
1087.746
 30
0
 40
21.499473412156
 50
293.131753924506
 51
0
210
0
220
0
230
1.0
 0
LINE
 8
TOOL_0
 5
157
 10
5994.079
 20
1087.746
 30
0
 11
5988.422
 21
1093.403
 31
0
 0
LINE
 8
TOOL_0
 5
158
 10
5988.422
 20
1093.403
 30
0
 11
5954.114
 21
162.282
 31
0
 0
LINE
 8
TOOL_0
 5
159
 10
5954.114
 20
162.282
 30
0
 11
5978.863
 21
187.03
 31
0
 0
ARC
 8
TOOL_0
 5
15A
 10
5950.579
 20
158.746
 30
0
 40
39.99961639816
 50
45.0
 51
224.999999999999
210
0
220
0
230
1.0
 0
ARC
 8
TOOL_0
 5
15B
 10
5950.578
 20
158.745
 30
0
 40
39.99961639816
 50
225.0
 51
44.998987152335
210
0
220
0
230
1.0
 0
LINE
 8
TOOL_0
 5
15C
 10
5978.863
 20
187.029
 30
0
 11
5970.863
 21
187.029
 31
0
 0
LINE
 8
TOOL_0
 5
15D
 10
5970.863
 20
187.029
 30
0
 11
6536.579
 21
504.745
 31
0
 0
LINE
 8
TOOL_0
 5
15E
 10
6536.579
 20
504.745
 30
0
 11
6571.579
 21
504.745
 31
0
 0
LINE
 8
TOOL_0
 5
15F
 10
6571.579
 20
504.745
 30
0
 11
6571.579
 21
534.745
 31
0
 0
ARC
 8
TOOL_0
 5
160
 10
6561.579
 20
534.745
 30
0
 40
10.0
 50
0
 51
90.0
210
0
220
0
230
1.0
 0
LINE
 8
TOOL_0
 5
161
 10
6561.579
 20
544.745
 30
0
 11
6381.579
 21
544.745
 31
0
 0
ARC
 8
TOOL_0
 5
162
 10
6381.579
 20
534.745
 30
0
 40
10.0
 50
90.0
 51
180.0
210
0
220
0
230
1.0
 0
LINE
 8
TOOL_0
 5
163
 10
6371.579
 20
534.745
 30
0
 11
6371.579
 21
474.745
 31
0
 0
ARC
 8
TOOL_0
 5
164
 10
6381.579
 20
474.745
 30
0
 40
10.0
 50
180.0
 51
270.0
210
0
220
0
230
1.0
 0
LINE
 8
TOOL_0
 5
165
 10
6381.579
 20
464.745
 30
0
 11
6561.579
 21
464.745
 31
0
 0
ARC
 8
TOOL_0
 5
166
 10
6561.579
 20
474.745
 30
0
 40
10.0
 50
270.0
 51
0
210
0
220
0
230
1.0
 0
LINE
 8
TOOL_0
 5
167
 10
6571.579
 20
474.745
 30
0
 11
6571.579
 21
504.745
 31
0
 0
LINE
 8
TOOL_0
 5
168
 10
6571.579
 20
504.745
 30
0
 11
6565.922
 21
510.402
 31
0
 0
LINE
 8
TOOL_0
 5
169
 10
6565.922
 20
510.402
 30
0
 11
5531.549
 21
2204.896
 31
0
 0
LINE
 8
TOOL_0
 5
16A
 10
5531.549
 20
2204.896
 30
0
 11
5533.579
 21
2271.331
 31
0
 0
LINE
 8
TOOL_0
 5
16B
 10
5533.579
 20
2271.331
 30
0
 11
5533.579
 21
2964.159
 31
0
 0
LINE
 8
TOOL_0
 5
16C
 10
5533.579
 20
2964.159
 30
0
 11
5558.165
 21
2988.745
 31
0
 0
LINE
 8
TOOL_0
 5
16D
 10
5558.165
 20
2988.745
 30
0
 11
7174.579
 21
2988.745
 31
0
 0
ARC
 8
TOOL_0
 5
16E
 10
7174.579
 20
2977.745
 30
0
 40
11.0
 50
0
 51
90.0
210
0
220
0
230
1.0
 0
LINE
 8
TOOL_0
 5
16F
 10
7185.579
 20
2977.745
 30
0
 11
7185.579
 21
2.745
 31
0
 0
LINE
 8
TOOL_0
 5
170
 10
7185.579
 20
2.745
 30
0
 11
5394.579
 21
2.745
 31
0
 0
ARC
 8
TOOL_0
 5
171
 10
5394.579
 20
13.745
 30
0
 40
11.0
 50
180.0
 51
270.0
210
0
220
0
230
1.0
 0
LINE
 8
TOOL_0
 5
172
 10
5383.579
 20
13.745
 30
0
 11
5383.579
 21
71.389
 31
0
 0
ARC
 8
TOOL_0
 5
173
 10
5374.517
 20
71.355
 30
0
 40
9.062063782605
 50
0.214968810704
 51
59.787709323248
210
0
220
0
230
1.0
 0
LINE
 8
TOOL_0
 5
174
 10
5379.077
 20
79.186
 30
0
 11
5291.077
 21
129.993
 31
0
 0
ARC
 8
TOOL_0
 5
175
 10
5296.64
 20
139.554
 30
0
 40
11.061631434829
 50
180.191641288768
 51
239.807318826481
210
0
220
0
230
1.0
 0
LINE
 8
TOOL_0
 5
176
 10
5285.578
 20
139.517
 30
0
 11
5285.578
 21
566.745
 31
0
 0
LINE
 8
TOOL_0
 5
177
 10
5285.578
 20
566.745
 30
0
 11
5563.444
 21
566.745
 31
0
 0
ARC
 8
TOOL_0
 5
178
 10
5562.967
 20
550.486
 30
0
 40
16.265995512111
 50
72.135361276482
 51
88.319561478479
210
0
220
0
230
1.0
 0
ARC
 8
TOOL_0
 5
179
 10
5587.105
 20
650.292
 30
0
 40
86.470705328452
 50
257.206424388142
 51
311.862065101288
210
0
220
0
230
1.0
 0
ARC
 8
TOOL_0
 5
17A
 10
5569.175
 20
673.927
 30
0
 40
116.063079318964
 50
310.667744029048
 51
342.666472144801
210
0
220
0
230
1.0
 0
ARC
 8
TOOL_0
 5
17B
 10
5549.906
 20
682.648
 30
0
 40
137.079370151018
 50
341.586331412006
 51
5.414970273912
210
0
220
0
230
1.0
 0
ARC
 8
TOOL_0
 5
17C
 10
5586.97
 20
683.698
 30
0
 40
100.112098229934
 50
6.818634596353
 51
63.549101535821
210
0
220
0
230
1.0
 0
ARC
 8
TOOL_0
 5
17D
 10
5637.144
 20
782.88
 30
0
 40
11.061196183054
 50
180.191658614494
 51
239.698074321486
210
0
220
0
230
1.0
 0
LINE
 8
TOOL_0
 5
17E
 10
5626.083
 20
782.843
 30
0
 11
5626.083
 21
854.601
 31
0
 0
ARC
 8
TOOL_0
 5
17F
 10
5616.971
 20
854.557
 30
0
 40
9.112106232919
 50
0.276667548776
 51
44.724327881559
210
0
220
0
230
1.0
 0
LINE
 8
TOOL_0
 5
180
 10
5623.445
 20
860.969
 30
0
 11
5615.303
 21
869.111
 31
0
 0
ARC
 8
TOOL_0
 5
181
 10
5623.319
 20
876.985
 30
0
 40
11.236375394227
 50
180.50991693483
 51
224.487993447383
210
0
220
0
230
1.0
 0
LINE
 8
TOOL_0
 5
182
 10
5612.083
 20
876.885
 30
0
 11
5612.083
 21
1421.745
 31
0
 0
LINE
 8
TOOL_0
 5
183
 10
5612.083
 20
1421.745
 30
0
 11
5648.76
 21
1421.745
 31
0
 0
ARC
 8
TOOL_0
 5
184
 10
5657.309
 20
1424.835
 30
0
 40
9.090297079854
 50
199.872175819243
 51
269.621815528488
210
0
220
0
230
1.0
 0
LINE
 8
TOOL_0
 5
185
 10
5657.249
 20
1415.745
 30
0
 11
5659.579
 21
1415.745
 31
0
 0
ARC
 8
TOOL_0
 5
186
 10
5659.579
 20
1614.745
 30
0
 40
199.0
 50
270.0
 51
359.99971208151
210
0
220
0
230
1.0
 0
LINE
 8
TOOL_0
 5
187
 10
5858.579
 20
1614.744
 30
0
 11
5858.579
 21
2047.745
 31
0
 0
ARC
 8
TOOL_0
 5
188
 10
5659.579
 20
2047.745
 30
0
 40
199.0
 50
0
 51
90.0
210
0
220
0
230
1.0
 0
LINE
 8
TOOL_0
 5
189
 10
5659.579
 20
2246.745
 30
0
 11
5558.165
 21
2246.745
 31
0
 0
LINE
 8
TOOL_0
 5
18A
 10
5558.165
 20
2246.745
 30
0
 11
5533.579
 21
2271.331
 31
0
 0
LINE
 8
TOOL_0
 5
18B
 10
5533.579
 20
2271.331
 30
0
 11
5521.769
 21
2280.111
 31
0
 0
ENDSEC
 0
EOF

