0
SECTION
2
TABLES
0
TABLE
2
LAYER
70
0
0
LAYER
2
LAYER_NAME
70
0
62
1
6
CONTINUOUS
0
ENDTAB
0
ENDSEC
 0
SECTION
 2
ENTITIES
 0
LINE
 8
TOOL_0
 5
1
 10
1031.75
 20
2548.751
 30
0
 11
1061.75
 21
2548.751
 31
0
 0
ARC
 8
TOOL_0
 5
2
 10
1026.75
 20
2548.751
 30
0
 40
35.0
 50
0
 51
180.0
210
0
220
0
230
1.0
 0
ARC
 8
TOOL_0
 5
3
 10
1026.75
 20
2548.751
 30
0
 40
35.0
 50
180.0
 51
0
210
0
220
0
230
1.0
 0
LINE
 8
TOOL_0
 5
4
 10
1061.75
 20
2548.751
 30
0
 11
511.75
 21
2326.751
 31
0
 0
LINE
 8
TOOL_0
 5
5
 10
511.75
 20
2326.751
 30
0
 11
541.75
 21
2326.751
 31
0
 0
LINE
 8
TOOL_0
 5
6
 10
541.75
 20
2326.751
 30
0
 11
541.75
 21
2341.751
 31
0
 0
ARC
 8
TOOL_0
 5
7
 10
531.75
 20
2341.751
 30
0
 40
10.0
 50
0
 51
90.0
210
0
220
0
230
1.0
 0
LINE
 8
TOOL_0
 5
8
 10
531.75
 20
2351.751
 30
0
 11
351.75
 21
2351.751
 31
0
 0
ARC
 8
TOOL_0
 5
9
 10
351.75
 20
2341.751
 30
0
 40
10.0
 50
90.0
 51
180.0
210
0
220
0
230
1.0
 0
LINE
 8
TOOL_0
 5
A
 10
341.75
 20
2341.751
 30
0
 11
341.75
 21
2311.751
 31
0
 0
ARC
 8
TOOL_0
 5
B
 10
351.75
 20
2311.751
 30
0
 40
10.0
 50
180.0
 51
270.0
210
0
220
0
230
1.0
 0
LINE
 8
TOOL_0
 5
C
 10
351.75
 20
2301.751
 30
0
 11
531.75
 21
2301.751
 31
0
 0
ARC
 8
TOOL_0
 5
D
 10
531.75
 20
2311.751
 30
0
 40
10.0
 50
270.0
 51
0
210
0
220
0
230
1.0
 0
LINE
 8
TOOL_0
 5
E
 10
541.75
 20
2311.751
 30
0
 11
541.75
 21
2326.751
 31
0
 0
LINE
 8
TOOL_0
 5
F
 10
541.75
 20
2326.751
 30
0
 11
308.75
 21
105.751
 31
0
 0
LINE
 8
TOOL_0
 5
10
 10
308.75
 20
105.751
 30
0
 11
338.75
 21
105.751
 31
0
 0
LINE
 8
TOOL_0
 5
11
 10
338.75
 20
105.751
 30
0
 11
338.75
 21
115.751
 31
0
 0
ARC
 8
TOOL_0
 5
12
 10
308.75
 20
115.751
 30
0
 40
30.0
 50
0
 51
90.0
210
0
220
0
230
1.0
 0
LINE
 8
TOOL_0
 5
13
 10
308.75
 20
145.751
 30
0
 11
268.75
 21
145.751
 31
0
 0
ARC
 8
TOOL_0
 5
14
 10
268.75
 20
115.751
 30
0
 40
30.0
 50
90.0
 51
180.0
210
0
220
0
230
1.0
 0
LINE
 8
TOOL_0
 5
15
 10
238.75
 20
115.751
 30
0
 11
238.75
 21
95.751
 31
0
 0
ARC
 8
TOOL_0
 5
16
 10
248.75
 20
95.751
 30
0
 40
10.0
 50
180.0
 51
270.0
210
0
220
0
230
1.0
 0
LINE
 8
TOOL_0
 5
17
 10
248.75
 20
85.751
 30
0
 11
328.75
 21
85.751
 31
0
 0
ARC
 8
TOOL_0
 5
18
 10
328.75
 20
95.751
 30
0
 40
10.0
 50
270.0
 51
0
210
0
220
0
230
1.0
 0
LINE
 8
TOOL_0
 5
19
 10
338.75
 20
95.751
 30
0
 11
338.75
 21
105.751
 31
0
 0
LINE
 8
TOOL_0
 5
1A
 10
338.75
 20
105.751
 30
0
 11
418.75
 21
215.751
 31
0
 0
LINE
 8
TOOL_0
 5
1B
 10
418.75
 20
215.751
 30
0
 11
448.75
 21
215.751
 31
0
 0
LINE
 8
TOOL_0
 5
1C
 10
448.75
 20
215.751
 30
0
 11
448.75
 21
245.751
 31
0
 0
ARC
 8
TOOL_0
 5
1D
 10
428.75
 20
245.751
 30
0
 40
20.0
 50
0
 51
90.0
210
0
220
0
230
1.0
 0
LINE
 8
TOOL_0
 5
1E
 10
428.75
 20
265.751
 30
0
 11
338.75
 21
265.751
 31
0
 0
ARC
 8
TOOL_0
 5
1F
 10
338.75
 20
245.751
 30
0
 40
20.0
 50
90.0
 51
180.0
210
0
220
0
230
1.0
 0
LINE
 8
TOOL_0
 5
20
 10
318.75
 20
245.751
 30
0
 11
318.75
 21
185.751
 31
0
 0
ARC
 8
TOOL_0
 5
21
 10
338.75
 20
185.751
 30
0
 40
20.0
 50
180.0
 51
270.0
210
0
220
0
230
1.0
 0
LINE
 8
TOOL_0
 5
22
 10
338.75
 20
165.751
 30
0
 11
428.75
 21
165.751
 31
0
 0
ARC
 8
TOOL_0
 5
23
 10
428.75
 20
185.751
 30
0
 40
20.0
 50
270.0
 51
0
210
0
220
0
230
1.0
 0
LINE
 8
TOOL_0
 5
24
 10
448.75
 20
185.751
 30
0
 11
448.75
 21
215.751
 31
0
 0
LINE
 8
TOOL_0
 5
25
 10
448.75
 20
215.751
 30
0
 11
1398.75
 21
198.751
 31
0
 0
LINE
 8
TOOL_0
 5
26
 10
1398.75
 20
198.751
 30
0
 11
1428.75
 21
198.751
 31
0
 0
LINE
 8
TOOL_0
 5
27
 10
1428.75
 20
198.751
 30
0
 11
1428.75
 21
238.751
 31
0
 0
ARC
 8
TOOL_0
 5
28
 10
1408.75
 20
238.751
 30
0
 40
20.0
 50
0
 51
90.0
210
0
220
0
230
1.0
 0
LINE
 8
TOOL_0
 5
29
 10
1408.75
 20
258.751
 30
0
 11
1348.75
 21
258.751
 31
0
 0
ARC
 8
TOOL_0
 5
2A
 10
1348.75
 20
238.751
 30
0
 40
20.0
 50
90.0
 51
180.0
210
0
220
0
230
1.0
 0
LINE
 8
TOOL_0
 5
2B
 10
1328.75
 20
238.751
 30
0
 11
1328.75
 21
158.751
 31
0
 0
ARC
 8
TOOL_0
 5
2C
 10
1348.75
 20
158.751
 30
0
 40
20.0
 50
180.0
 51
270.0
210
0
220
0
230
1.0
 0
LINE
 8
TOOL_0
 5
2D
 10
1348.75
 20
138.751
 30
0
 11
1408.75
 21
138.751
 31
0
 0
ARC
 8
TOOL_0
 5
2E
 10
1408.75
 20
158.751
 30
0
 40
20.0
 50
270.0
 51
0
210
0
220
0
230
1.0
 0
LINE
 8
TOOL_0
 5
2F
 10
1428.75
 20
158.751
 30
0
 11
1428.75
 21
198.751
 31
0
 0
LINE
 8
TOOL_0
 5
30
 10
1428.75
 20
198.751
 30
0
 11
1454.75
 21
862.106
 31
0
 0
LINE
 8
TOOL_0
 5
31
 10
1454.75
 20
862.106
 30
0
 11
1454.75
 21
819.165
 31
0
 0
LINE
 8
TOOL_0
 5
32
 10
1454.75
 20
819.165
 30
0
 11
1454.75
 21
8.337
 31
0
 0
LINE
 8
TOOL_0
 5
33
 10
1454.75
 20
8.337
 30
0
 11
1449.164
 21
2.751
 31
0
 0
LINE
 8
TOOL_0
 5
34
 10
1449.164
 20
2.751
 30
0
 11
64.75
 21
2.751
 31
0
 0
ARC
 8
TOOL_0
 5
35
 10
64.75
 20
7.751
 30
0
 40
5.0
 50
180.0
 51
270.0
210
0
220
0
230
1.0
 0
LINE
 8
TOOL_0
 5
36
 10
59.75
 20
7.751
 30
0
 11
59.75
 21
39.751
 31
0
 0
ARC
 8
TOOL_0
 5
37
 10
56.75
 20
39.751
 30
0
 40
3.0
 50
0
 51
90.0
210
0
220
0
230
1.0
 0
LINE
 8
TOOL_0
 5
38
 10
56.75
 20
42.751
 30
0
 11
7.75
 21
42.751
 31
0
 0
ARC
 8
TOOL_0
 5
39
 10
7.75
 20
47.751
 30
0
 40
5.0
 50
180.0
 51
270.0
210
0
220
0
230
1.0
 0
LINE
 8
TOOL_0
 5
3A
 10
2.75
 20
47.751
 30
0
 11
2.75
 21
139.751
 31
0
 0
LINE
 8
TOOL_0
 5
3B
 10
2.75
 20
139.751
 30
0
 11
56.75
 21
139.751
 31
0
 0
ARC
 8
TOOL_0
 5
3C
 10
56.75
 20
142.751
 30
0
 40
3.0
 50
270.0
 51
0
210
0
220
0
230
1.0
 0
LINE
 8
TOOL_0
 5
3D
 10
59.75
 20
142.751
 30
0
 11
59.75
 21
896.751
 31
0
 0
ARC
 8
TOOL_0
 5
3E
 10
56.75
 20
896.751
 30
0
 40
3.0
 50
0
 51
90.0
210
0
220
0
230
1.0
 0
LINE
 8
TOOL_0
 5
3F
 10
56.75
 20
899.751
 30
0
 11
2.75
 21
899.751
 31
0
 0
LINE
 8
TOOL_0
 5
40
 10
2.75
 20
899.751
 30
0
 11
2.75
 21
2629.751
 31
0
 0
LINE
 8
TOOL_0
 5
41
 10
2.75
 20
2629.751
 30
0
 11
1587.75
 21
2629.751
 31
0
 0
LINE
 8
TOOL_0
 5
42
 10
1587.75
 20
2629.751
 30
0
 11
1587.75
 21
2148.751
 31
0
 0
LINE
 8
TOOL_0
 5
43
 10
1587.75
 20
2148.751
 30
0
 11
1439.75
 21
2148.751
 31
0
 0
LINE
 8
TOOL_0
 5
44
 10
1439.75
 20
2148.751
 30
0
 11
1439.75
 21
2183.751
 31
0
 0
ARC
 8
TOOL_0
 5
45
 10
1418.75
 20
2183.751
 30
0
 40
21.0
 50
0
 51
147.725934078207
210
0
220
0
230
1.0
 0
LINE
 8
TOOL_0
 5
46
 10
1400.995
 20
2194.964
 30
0
 11
1367.722
 21
2142.279
 31
0
 0
ARC
 8
TOOL_0
 5
47
 10
1383.786
 20
2132.133
 30
0
 40
18.999826630788
 50
147.723550532162
 51
243.305476199261
210
0
220
0
230
1.0
 0
LINE
 8
TOOL_0
 5
48
 10
1375.251
 20
2115.159
 30
0
 11
1375.251
 21
1569.75
 31
0
 0
LINE
 8
TOOL_0
 5
49
 10
1375.251
 20
1569.75
 30
0
 11
1338.251
 21
1569.75
 31
0
 0
LINE
 8
TOOL_0
 5
4A
 10
1338.251
 20
1569.75
 30
0
 11
1338.251
 21
1572.75
 31
0
 0
ARC
 8
TOOL_0
 5
4B
 10
1335.251
 20
1572.75
 30
0
 40
3.0
 50
0
 51
90.0
210
0
220
0
230
1.0
 0
LINE
 8
TOOL_0
 5
4C
 10
1335.251
 20
1575.75
 30
0
 11
1288.751
 21
1575.75
 31
0
 0
ARC
 8
TOOL_0
 5
4D
 10
1288.751
 20
1376.75
 30
0
 40
199.0
 50
90.0
 51
180.0
210
0
220
0
230
1.0
 0
LINE
 8
TOOL_0
 5
4E
 10
1089.751
 20
1376.75
 30
0
 11
1089.751
 21
1023.75
 31
0
 0
ARC
 8
TOOL_0
 5
4F
 10
1288.751
 20
1023.75
 30
0
 40
199.0
 50
180.0
 51
269.99971208151
210
0
220
0
230
1.0
 0
LINE
 8
TOOL_0
 5
50
 10
1288.75
 20
824.75
 30
0
 11
1449.165
 21
824.75
 31
0
 0
LINE
 8
TOOL_0
 5
51
 10
1449.165
 20
824.75
 30
0
 11
1454.751
 21
819.164
 31
0
 0
LINE
 8
TOOL_0
 5
52
 10
1454.751
 20
819.164
 30
0
 11
1463.659
 21
819.164
 31
0
 0
LINE
 8
TOOL_0
 5
53
 10
1463.659
 20
819.164
 30
0
 11
2809.296
 21
2526.75
 31
0
 0
LINE
 8
TOOL_0
 5
54
 10
2809.296
 20
2526.75
 30
0
 11
2839.296
 21
2526.75
 31
0
 0
LINE
 8
TOOL_0
 5
55
 10
2839.296
 20
2526.75
 30
0
 11
2839.296
 21
2536.75
 31
0
 0
ARC
 8
TOOL_0
 5
56
 10
2829.296
 20
2536.75
 30
0
 40
10.0
 50
0
 51
90.0
210
0
220
0
230
1.0
 0
LINE
 8
TOOL_0
 5
57
 10
2829.296
 20
2546.75
 30
0
 11
2749.296
 21
2546.75
 31
0
 0
ARC
 8
TOOL_0
 5
58
 10
2749.296
 20
2536.75
 30
0
 40
10.0
 50
90.0
 51
180.0
210
0
220
0
230
1.0
 0
LINE
 8
TOOL_0
 5
59
 10
2739.296
 20
2536.75
 30
0
 11
2739.296
 21
2516.75
 31
0
 0
ARC
 8
TOOL_0
 5
5A
 10
2769.296
 20
2516.75
 30
0
 40
30.0
 50
180.0
 51
270.0
210
0
220
0
230
1.0
 0
LINE
 8
TOOL_0
 5
5B
 10
2769.296
 20
2486.75
 30
0
 11
2809.296
 21
2486.75
 31
0
 0
ARC
 8
TOOL_0
 5
5C
 10
2809.296
 20
2516.75
 30
0
 40
30.0
 50
270.0
 51
0
210
0
220
0
230
1.0
 0
LINE
 8
TOOL_0
 5
5D
 10
2839.296
 20
2516.75
 30
0
 11
2839.296
 21
2526.75
 31
0
 0
LINE
 8
TOOL_0
 5
5E
 10
2839.296
 20
2526.75
 30
0
 11
2729.296
 21
2416.75
 31
0
 0
LINE
 8
TOOL_0
 5
5F
 10
2729.296
 20
2416.75
 30
0
 11
2759.296
 21
2416.75
 31
0
 0
LINE
 8
TOOL_0
 5
60
 10
2759.296
 20
2416.75
 30
0
 11
2759.296
 21
2446.75
 31
0
 0
ARC
 8
TOOL_0
 5
61
 10
2739.296
 20
2446.75
 30
0
 40
20.0
 50
0
 51
90.0
210
0
220
0
230
1.0
 0
LINE
 8
TOOL_0
 5
62
 10
2739.296
 20
2466.75
 30
0
 11
2649.296
 21
2466.75
 31
0
 0
ARC
 8
TOOL_0
 5
63
 10
2649.296
 20
2446.75
 30
0
 40
20.0
 50
90.0
 51
180.0
210
0
220
0
230
1.0
 0
LINE
 8
TOOL_0
 5
64
 10
2629.296
 20
2446.75
 30
0
 11
2629.296
 21
2386.75
 31
0
 0
ARC
 8
TOOL_0
 5
65
 10
2649.296
 20
2386.75
 30
0
 40
20.0
 50
180.0
 51
270.0
210
0
220
0
230
1.0
 0
LINE
 8
TOOL_0
 5
66
 10
2649.296
 20
2366.75
 30
0
 11
2739.296
 21
2366.75
 31
0
 0
ARC
 8
TOOL_0
 5
67
 10
2739.296
 20
2386.75
 30
0
 40
20.0
 50
270.0
 51
0
210
0
220
0
230
1.0
 0
LINE
 8
TOOL_0
 5
68
 10
2759.296
 20
2386.75
 30
0
 11
2759.296
 21
2416.75
 31
0
 0
LINE
 8
TOOL_0
 5
69
 10
2759.296
 20
2416.75
 30
0
 11
1719.296
 21
2433.75
 31
0
 0
LINE
 8
TOOL_0
 5
6A
 10
1719.296
 20
2433.75
 30
0
 11
1749.296
 21
2433.75
 31
0
 0
LINE
 8
TOOL_0
 5
6B
 10
1749.296
 20
2433.75
 30
0
 11
1749.296
 21
2473.75
 31
0
 0
ARC
 8
TOOL_0
 5
6C
 10
1729.296
 20
2473.75
 30
0
 40
20.0
 50
0
 51
90.0
210
0
220
0
230
1.0
 0
LINE
 8
TOOL_0
 5
6D
 10
1729.296
 20
2493.75
 30
0
 11
1669.296
 21
2493.75
 31
0
 0
ARC
 8
TOOL_0
 5
6E
 10
1669.296
 20
2473.75
 30
0
 40
20.0
 50
90.0
 51
180.0
210
0
220
0
230
1.0
 0
LINE
 8
TOOL_0
 5
6F
 10
1649.296
 20
2473.75
 30
0
 11
1649.296
 21
2393.75
 31
0
 0
ARC
 8
TOOL_0
 5
70
 10
1669.296
 20
2393.75
 30
0
 40
20.0
 50
180.0
 51
270.0
210
0
220
0
230
1.0
 0
LINE
 8
TOOL_0
 5
71
 10
1669.296
 20
2373.75
 30
0
 11
1729.296
 21
2373.75
 31
0
 0
ARC
 8
TOOL_0
 5
72
 10
1729.296
 20
2393.75
 30
0
 40
20.0
 50
270.0
 51
0
210
0
220
0
230
1.0
 0
LINE
 8
TOOL_0
 5
73
 10
1749.296
 20
2393.75
 30
0
 11
1749.296
 21
2433.75
 31
0
 0
LINE
 8
TOOL_0
 5
74
 10
1749.296
 20
2433.75
 30
0
 11
2056.296
 21
83.75
 31
0
 0
LINE
 8
TOOL_0
 5
75
 10
2056.296
 20
83.75
 30
0
 11
2086.296
 21
83.75
 31
0
 0
ARC
 8
TOOL_0
 5
76
 10
2051.296
 20
83.75
 30
0
 40
35.0
 50
0
 51
180.0
210
0
220
0
230
1.0
 0
ARC
 8
TOOL_0
 5
77
 10
2051.296
 20
83.75
 30
0
 40
35.0
 50
180.0
 51
0
210
0
220
0
230
1.0
 0
LINE
 8
TOOL_0
 5
78
 10
2086.296
 20
83.75
 30
0
 11
2706.296
 21
305.75
 31
0
 0
LINE
 8
TOOL_0
 5
79
 10
2706.296
 20
305.75
 30
0
 11
2736.296
 21
305.75
 31
0
 0
LINE
 8
TOOL_0
 5
7A
 10
2736.296
 20
305.75
 30
0
 11
2736.296
 21
320.75
 31
0
 0
ARC
 8
TOOL_0
 5
7B
 10
2726.296
 20
320.75
 30
0
 40
10.0
 50
0
 51
90.0
210
0
220
0
230
1.0
 0
LINE
 8
TOOL_0
 5
7C
 10
2726.296
 20
330.75
 30
0
 11
2546.296
 21
330.75
 31
0
 0
ARC
 8
TOOL_0
 5
7D
 10
2546.296
 20
320.75
 30
0
 40
10.0
 50
90.0
 51
180.0
210
0
220
0
230
1.0
 0
LINE
 8
TOOL_0
 5
7E
 10
2536.296
 20
320.75
 30
0
 11
2536.296
 21
290.75
 31
0
 0
ARC
 8
TOOL_0
 5
7F
 10
2546.296
 20
290.75
 30
0
 40
10.0
 50
180.0
 51
270.0
210
0
220
0
230
1.0
 0
LINE
 8
TOOL_0
 5
80
 10
2546.296
 20
280.75
 30
0
 11
2726.296
 21
280.75
 31
0
 0
ARC
 8
TOOL_0
 5
81
 10
2726.296
 20
290.75
 30
0
 40
10.0
 50
270.0
 51
0
210
0
220
0
230
1.0
 0
LINE
 8
TOOL_0
 5
82
 10
2736.296
 20
290.75
 30
0
 11
2736.296
 21
305.75
 31
0
 0
LINE
 8
TOOL_0
 5
83
 10
2736.296
 20
305.75
 30
0
 11
1623.296
 21
1756.094
 31
0
 0
LINE
 8
TOOL_0
 5
84
 10
1623.296
 20
1756.094
 30
0
 11
1623.296
 21
1813.336
 31
0
 0
LINE
 8
TOOL_0
 5
85
 10
1623.296
 20
1813.336
 30
0
 11
1623.296
 21
2624.164
 31
0
 0
LINE
 8
TOOL_0
 5
86
 10
1623.296
 20
2624.164
 30
0
 11
1628.882
 21
2629.75
 31
0
 0
LINE
 8
TOOL_0
 5
87
 10
1628.882
 20
2629.75
 30
0
 11
3013.296
 21
2629.75
 31
0
 0
ARC
 8
TOOL_0
 5
88
 10
3013.296
 20
2624.75
 30
0
 40
5.0
 50
0
 51
90.0
210
0
220
0
230
1.0
 0
LINE
 8
TOOL_0
 5
89
 10
3018.296
 20
2624.75
 30
0
 11
3018.296
 21
2592.75
 31
0
 0
ARC
 8
TOOL_0
 5
8A
 10
3021.296
 20
2592.75
 30
0
 40
3.0
 50
180.0
 51
270.0
210
0
220
0
230
1.0
 0
LINE
 8
TOOL_0
 5
8B
 10
3021.296
 20
2589.75
 30
0
 11
3070.296
 21
2589.75
 31
0
 0
ARC
 8
TOOL_0
 5
8C
 10
3070.296
 20
2584.75
 30
0
 40
5.0
 50
0
 51
90.0
210
0
220
0
230
1.0
 0
LINE
 8
TOOL_0
 5
8D
 10
3075.296
 20
2584.75
 30
0
 11
3075.296
 21
2492.75
 31
0
 0
LINE
 8
TOOL_0
 5
8E
 10
3075.296
 20
2492.75
 30
0
 11
3021.296
 21
2492.75
 31
0
 0
ARC
 8
TOOL_0
 5
8F
 10
3021.296
 20
2489.75
 30
0
 40
3.0
 50
90.0
 51
180.0
210
0
220
0
230
1.0
 0
LINE
 8
TOOL_0
 5
90
 10
3018.296
 20
2489.75
 30
0
 11
3018.296
 21
1735.75
 31
0
 0
ARC
 8
TOOL_0
 5
91
 10
3021.296
 20
1735.75
 30
0
 40
3.0
 50
180.0
 51
270.0
210
0
220
0
230
1.0
 0
LINE
 8
TOOL_0
 5
92
 10
3021.296
 20
1732.75
 30
0
 11
3075.296
 21
1732.75
 31
0
 0
LINE
 8
TOOL_0
 5
93
 10
3075.296
 20
1732.75
 30
0
 11
3075.296
 21
2.75
 31
0
 0
LINE
 8
TOOL_0
 5
94
 10
3075.296
 20
2.75
 30
0
 11
1490.296
 21
2.75
 31
0
 0
LINE
 8
TOOL_0
 5
95
 10
1490.296
 20
2.75
 30
0
 11
1490.296
 21
483.75
 31
0
 0
LINE
 8
TOOL_0
 5
96
 10
1490.296
 20
483.75
 30
0
 11
1638.296
 21
483.75
 31
0
 0
LINE
 8
TOOL_0
 5
97
 10
1638.296
 20
483.75
 30
0
 11
1638.296
 21
448.75
 31
0
 0
ARC
 8
TOOL_0
 5
98
 10
1659.296
 20
448.75
 30
0
 40
21.0
 50
180.0
 51
327.723627214969
210
0
220
0
230
1.0
 0
LINE
 8
TOOL_0
 5
99
 10
1677.051
 20
437.536
 30
0
 11
1710.324
 21
490.221
 31
0
 0
ARC
 8
TOOL_0
 5
9A
 10
1694.26
 20
500.367
 30
0
 40
18.999826630788
 50
327.723550532163
 51
63.305476199262
210
0
220
0
230
1.0
 0
LINE
 8
TOOL_0
 5
9B
 10
1702.795
 20
517.341
 30
0
 11
1702.795
 21
1062.75
 31
0
 0
LINE
 8
TOOL_0
 5
9C
 10
1702.795
 20
1062.75
 30
0
 11
1739.795
 21
1062.75
 31
0
 0
LINE
 8
TOOL_0
 5
9D
 10
1739.795
 20
1062.75
 30
0
 11
1739.795
 21
1059.75
 31
0
 0
ARC
 8
TOOL_0
 5
9E
 10
1742.795
 20
1059.75
 30
0
 40
3.0
 50
180.0
 51
270.0
210
0
220
0
230
1.0
 0
LINE
 8
TOOL_0
 5
9F
 10
1742.795
 20
1056.75
 30
0
 11
1789.295
 21
1056.75
 31
0
 0
ARC
 8
TOOL_0
 5
A0
 10
1789.295
 20
1255.75
 30
0
 40
199.0
 50
270.0
 51
359.99971208151
210
0
220
0
230
1.0
 0
LINE
 8
TOOL_0
 5
A1
 10
1988.295
 20
1255.749
 30
0
 11
1988.295
 21
1608.75
 31
0
 0
ARC
 8
TOOL_0
 5
A2
 10
1789.295
 20
1608.75
 30
0
 40
199.0
 50
0
 51
90.0
210
0
220
0
230
1.0
 0
LINE
 8
TOOL_0
 5
A3
 10
1789.295
 20
1807.75
 30
0
 11
1628.881
 21
1807.75
 31
0
 0
LINE
 8
TOOL_0
 5
A4
 10
1628.881
 20
1807.75
 30
0
 11
1623.295
 21
1813.336
 31
0
 0
LINE
 8
TOOL_0
 5
A5
 10
1623.295
 20
1813.336
 30
0
 11
1616.041
 21
1813.336
 31
0
 0
LINE
 8
TOOL_0
 5
A6
 10
1616.041
 20
1813.336
 30
0
 11
4152.84
 21
2548.75
 31
0
 0
LINE
 8
TOOL_0
 5
A7
 10
4152.84
 20
2548.75
 30
0
 11
4182.84
 21
2548.75
 31
0
 0
ARC
 8
TOOL_0
 5
A8
 10
4147.84
 20
2548.75
 30
0
 40
35.0
 50
0
 51
180.0
210
0
220
0
230
1.0
 0
ARC
 8
TOOL_0
 5
A9
 10
4147.84
 20
2548.75
 30
0
 40
35.0
 50
180.0
 51
0
210
0
220
0
230
1.0
 0
LINE
 8
TOOL_0
 5
AA
 10
4182.84
 20
2548.75
 30
0
 11
3632.84
 21
2326.75
 31
0
 0
LINE
 8
TOOL_0
 5
AB
 10
3632.84
 20
2326.75
 30
0
 11
3662.84
 21
2326.75
 31
0
 0
LINE
 8
TOOL_0
 5
AC
 10
3662.84
 20
2326.75
 30
0
 11
3662.84
 21
2341.75
 31
0
 0
ARC
 8
TOOL_0
 5
AD
 10
3652.84
 20
2341.75
 30
0
 40
10.0
 50
0
 51
90.0
210
0
220
0
230
1.0
 0
LINE
 8
TOOL_0
 5
AE
 10
3652.84
 20
2351.75
 30
0
 11
3472.84
 21
2351.75
 31
0
 0
ARC
 8
TOOL_0
 5
AF
 10
3472.84
 20
2341.75
 30
0
 40
10.0
 50
90.0
 51
180.0
210
0
220
0
230
1.0
 0
LINE
 8
TOOL_0
 5
B0
 10
3462.84
 20
2341.75
 30
0
 11
3462.84
 21
2311.75
 31
0
 0
ARC
 8
TOOL_0
 5
B1
 10
3472.84
 20
2311.75
 30
0
 40
10.0
 50
180.0
 51
270.0
210
0
220
0
230
1.0
 0
LINE
 8
TOOL_0
 5
B2
 10
3472.84
 20
2301.75
 30
0
 11
3652.84
 21
2301.75
 31
0
 0
ARC
 8
TOOL_0
 5
B3
 10
3652.84
 20
2311.75
 30
0
 40
10.0
 50
270.0
 51
0
210
0
220
0
230
1.0
 0
LINE
 8
TOOL_0
 5
B4
 10
3662.84
 20
2311.75
 30
0
 11
3662.84
 21
2326.75
 31
0
 0
LINE
 8
TOOL_0
 5
B5
 10
3662.84
 20
2326.75
 30
0
 11
3429.84
 21
105.75
 31
0
 0
LINE
 8
TOOL_0
 5
B6
 10
3429.84
 20
105.75
 30
0
 11
3459.84
 21
105.75
 31
0
 0
LINE
 8
TOOL_0
 5
B7
 10
3459.84
 20
105.75
 30
0
 11
3459.84
 21
115.75
 31
0
 0
ARC
 8
TOOL_0
 5
B8
 10
3429.84
 20
115.75
 30
0
 40
30.0
 50
0
 51
90.0
210
0
220
0
230
1.0
 0
LINE
 8
TOOL_0
 5
B9
 10
3429.84
 20
145.75
 30
0
 11
3389.84
 21
145.75
 31
0
 0
ARC
 8
TOOL_0
 5
BA
 10
3389.84
 20
115.75
 30
0
 40
30.0
 50
90.0
 51
180.0
210
0
220
0
230
1.0
 0
LINE
 8
TOOL_0
 5
BB
 10
3359.84
 20
115.75
 30
0
 11
3359.84
 21
95.75
 31
0
 0
ARC
 8
TOOL_0
 5
BC
 10
3369.84
 20
95.75
 30
0
 40
10.0
 50
180.0
 51
270.0
210
0
220
0
230
1.0
 0
LINE
 8
TOOL_0
 5
BD
 10
3369.84
 20
85.75
 30
0
 11
3449.84
 21
85.75
 31
0
 0
ARC
 8
TOOL_0
 5
BE
 10
3449.84
 20
95.75
 30
0
 40
10.0
 50
270.0
 51
0
210
0
220
0
230
1.0
 0
LINE
 8
TOOL_0
 5
BF
 10
3459.84
 20
95.75
 30
0
 11
3459.84
 21
105.75
 31
0
 0
LINE
 8
TOOL_0
 5
C0
 10
3459.84
 20
105.75
 30
0
 11
3539.84
 21
215.75
 31
0
 0
LINE
 8
TOOL_0
 5
C1
 10
3539.84
 20
215.75
 30
0
 11
3569.84
 21
215.75
 31
0
 0
LINE
 8
TOOL_0
 5
C2
 10
3569.84
 20
215.75
 30
0
 11
3569.84
 21
245.75
 31
0
 0
ARC
 8
TOOL_0
 5
C3
 10
3549.84
 20
245.75
 30
0
 40
20.0
 50
0
 51
90.0
210
0
220
0
230
1.0
 0
LINE
 8
TOOL_0
 5
C4
 10
3549.84
 20
265.75
 30
0
 11
3459.84
 21
265.75
 31
0
 0
ARC
 8
TOOL_0
 5
C5
 10
3459.84
 20
245.75
 30
0
 40
20.0
 50
90.0
 51
180.0
210
0
220
0
230
1.0
 0
LINE
 8
TOOL_0
 5
C6
 10
3439.84
 20
245.75
 30
0
 11
3439.84
 21
185.75
 31
0
 0
ARC
 8
TOOL_0
 5
C7
 10
3459.84
 20
185.75
 30
0
 40
20.0
 50
180.0
 51
270.0
210
0
220
0
230
1.0
 0
LINE
 8
TOOL_0
 5
C8
 10
3459.84
 20
165.75
 30
0
 11
3549.84
 21
165.75
 31
0
 0
ARC
 8
TOOL_0
 5
C9
 10
3549.84
 20
185.75
 30
0
 40
20.0
 50
270.0
 51
0
210
0
220
0
230
1.0
 0
LINE
 8
TOOL_0
 5
CA
 10
3569.84
 20
185.75
 30
0
 11
3569.84
 21
215.75
 31
0
 0
LINE
 8
TOOL_0
 5
CB
 10
3569.84
 20
215.75
 30
0
 11
4519.84
 21
198.75
 31
0
 0
LINE
 8
TOOL_0
 5
CC
 10
4519.84
 20
198.75
 30
0
 11
4549.84
 21
198.75
 31
0
 0
LINE
 8
TOOL_0
 5
CD
 10
4549.84
 20
198.75
 30
0
 11
4549.84
 21
238.75
 31
0
 0
ARC
 8
TOOL_0
 5
CE
 10
4529.84
 20
238.75
 30
0
 40
20.0
 50
0
 51
90.0
210
0
220
0
230
1.0
 0
LINE
 8
TOOL_0
 5
CF
 10
4529.84
 20
258.75
 30
0
 11
4469.84
 21
258.75
 31
0
 0
ARC
 8
TOOL_0
 5
D0
 10
4469.84
 20
238.75
 30
0
 40
20.0
 50
90.0
 51
180.0
210
0
220
0
230
1.0
 0
LINE
 8
TOOL_0
 5
D1
 10
4449.84
 20
238.75
 30
0
 11
4449.84
 21
158.75
 31
0
 0
ARC
 8
TOOL_0
 5
D2
 10
4469.84
 20
158.75
 30
0
 40
20.0
 50
180.0
 51
270.0
210
0
220
0
230
1.0
 0
LINE
 8
TOOL_0
 5
D3
 10
4469.84
 20
138.75
 30
0
 11
4529.84
 21
138.75
 31
0
 0
ARC
 8
TOOL_0
 5
D4
 10
4529.84
 20
158.75
 30
0
 40
20.0
 50
270.0
 51
0
210
0
220
0
230
1.0
 0
LINE
 8
TOOL_0
 5
D5
 10
4549.84
 20
158.75
 30
0
 11
4549.84
 21
198.75
 31
0
 0
LINE
 8
TOOL_0
 5
D6
 10
4549.84
 20
198.75
 30
0
 11
4575.84
 21
872.981
 31
0
 0
LINE
 8
TOOL_0
 5
D7
 10
4575.84
 20
872.981
 30
0
 11
4575.84
 21
819.164
 31
0
 0
LINE
 8
TOOL_0
 5
D8
 10
4575.84
 20
819.164
 30
0
 11
4575.84
 21
8.336
 31
0
 0
LINE
 8
TOOL_0
 5
D9
 10
4575.84
 20
8.336
 30
0
 11
4570.254
 21
2.75
 31
0
 0
LINE
 8
TOOL_0
 5
DA
 10
4570.254
 20
2.75
 30
0
 11
3185.84
 21
2.75
 31
0
 0
ARC
 8
TOOL_0
 5
DB
 10
3185.84
 20
7.75
 30
0
 40
5.0
 50
180.0
 51
270.0
210
0
220
0
230
1.0
 0
LINE
 8
TOOL_0
 5
DC
 10
3180.84
 20
7.75
 30
0
 11
3180.84
 21
39.75
 31
0
 0
ARC
 8
TOOL_0
 5
DD
 10
3177.84
 20
39.75
 30
0
 40
3.0
 50
0
 51
90.0
210
0
220
0
230
1.0
 0
LINE
 8
TOOL_0
 5
DE
 10
3177.84
 20
42.75
 30
0
 11
3128.84
 21
42.75
 31
0
 0
ARC
 8
TOOL_0
 5
DF
 10
3128.84
 20
47.75
 30
0
 40
5.0
 50
180.0
 51
270.0
210
0
220
0
230
1.0
 0
LINE
 8
TOOL_0
 5
E0
 10
3123.84
 20
47.75
 30
0
 11
3123.84
 21
139.75
 31
0
 0
LINE
 8
TOOL_0
 5
E1
 10
3123.84
 20
139.75
 30
0
 11
3177.84
 21
139.75
 31
0
 0
ARC
 8
TOOL_0
 5
E2
 10
3177.84
 20
142.75
 30
0
 40
3.0
 50
270.0
 51
0
210
0
220
0
230
1.0
 0
LINE
 8
TOOL_0
 5
E3
 10
3180.84
 20
142.75
 30
0
 11
3180.84
 21
896.75
 31
0
 0
ARC
 8
TOOL_0
 5
E4
 10
3177.84
 20
896.75
 30
0
 40
3.0
 50
0
 51
90.0
210
0
220
0
230
1.0
 0
LINE
 8
TOOL_0
 5
E5
 10
3177.84
 20
899.75
 30
0
 11
3123.84
 21
899.75
 31
0
 0
LINE
 8
TOOL_0
 5
E6
 10
3123.84
 20
899.75
 30
0
 11
3123.84
 21
2629.75
 31
0
 0
LINE
 8
TOOL_0
 5
E7
 10
3123.84
 20
2629.75
 30
0
 11
4708.84
 21
2629.75
 31
0
 0
LINE
 8
TOOL_0
 5
E8
 10
4708.84
 20
2629.75
 30
0
 11
4708.84
 21
2148.75
 31
0
 0
LINE
 8
TOOL_0
 5
E9
 10
4708.84
 20
2148.75
 30
0
 11
4560.84
 21
2148.75
 31
0
 0
LINE
 8
TOOL_0
 5
EA
 10
4560.84
 20
2148.75
 30
0
 11
4560.84
 21
2183.75
 31
0
 0
ARC
 8
TOOL_0
 5
EB
 10
4539.84
 20
2183.75
 30
0
 40
21.0
 50
0
 51
147.725934078207
210
0
220
0
230
1.0
 0
LINE
 8
TOOL_0
 5
EC
 10
4522.085
 20
2194.963
 30
0
 11
4488.812
 21
2142.278
 31
0
 0
ARC
 8
TOOL_0
 5
ED
 10
4504.876
 20
2132.132
 30
0
 40
18.999826630788
 50
147.723550532162
 51
243.305476199262
210
0
220
0
230
1.0
 0
LINE
 8
TOOL_0
 5
EE
 10
4496.341
 20
2115.158
 30
0
 11
4496.341
 21
1569.749
 31
0
 0
LINE
 8
TOOL_0
 5
EF
 10
4496.341
 20
1569.749
 30
0
 11
4459.341
 21
1569.749
 31
0
 0
LINE
 8
TOOL_0
 5
F0
 10
4459.341
 20
1569.749
 30
0
 11
4459.341
 21
1572.749
 31
0
 0
ARC
 8
TOOL_0
 5
F1
 10
4456.341
 20
1572.749
 30
0
 40
3.0
 50
0
 51
90.0
210
0
220
0
230
1.0
 0
LINE
 8
TOOL_0
 5
F2
 10
4456.341
 20
1575.749
 30
0
 11
4409.841
 21
1575.749
 31
0
 0
ARC
 8
TOOL_0
 5
F3
 10
4409.841
 20
1376.749
 30
0
 40
199.0
 50
90.0
 51
180.0
210
0
220
0
230
1.0
 0
LINE
 8
TOOL_0
 5
F4
 10
4210.841
 20
1376.749
 30
0
 11
4210.841
 21
1023.749
 31
0
 0
ARC
 8
TOOL_0
 5
F5
 10
4409.841
 20
1023.749
 30
0
 40
199.0
 50
180.0
 51
269.99971208151
210
0
220
0
230
1.0
 0
LINE
 8
TOOL_0
 5
F6
 10
4409.84
 20
824.749
 30
0
 11
4570.255
 21
824.749
 31
0
 0
LINE
 8
TOOL_0
 5
F7
 10
4570.255
 20
824.749
 30
0
 11
4575.841
 21
819.163
 31
0
 0
LINE
 8
TOOL_0
 5
F8
 10
4575.841
 20
819.163
 30
0
 11
4583.759
 21
819.163
 31
0
 0
LINE
 8
TOOL_0
 5
F9
 10
4583.759
 20
819.163
 30
0
 11
5928.808
 21
2534.248
 31
0
 0
LINE
 8
TOOL_0
 5
FA
 10
5928.808
 20
2534.248
 30
0
 11
5958.808
 21
2534.248
 31
0
 0
LINE
 8
TOOL_0
 5
FB
 10
5958.808
 20
2534.248
 30
0
 11
5958.808
 21
2544.248
 31
0
 0
ARC
 8
TOOL_0
 5
FC
 10
5948.808
 20
2544.248
 30
0
 40
10.0
 50
0
 51
90.0
210
0
220
0
230
1.0
 0
LINE
 8
TOOL_0
 5
FD
 10
5948.808
 20
2554.248
 30
0
 11
5868.808
 21
2554.248
 31
0
 0
ARC
 8
TOOL_0
 5
FE
 10
5868.808
 20
2544.248
 30
0
 40
10.0
 50
90.0
 51
180.0
210
0
220
0
230
1.0
 0
LINE
 8
TOOL_0
 5
FF
 10
5858.808
 20
2544.248
 30
0
 11
5858.808
 21
2524.248
 31
0
 0
ARC
 8
TOOL_0
 5
100
 10
5888.808
 20
2524.248
 30
0
 40
30.0
 50
180.0
 51
270.0
210
0
220
0
230
1.0
 0
LINE
 8
TOOL_0
 5
101
 10
5888.808
 20
2494.248
 30
0
 11
5928.808
 21
2494.248
 31
0
 0
ARC
 8
TOOL_0
 5
102
 10
5928.808
 20
2524.248
 30
0
 40
30.0
 50
270.0
 51
0
210
0
220
0
230
1.0
 0
LINE
 8
TOOL_0
 5
103
 10
5958.808
 20
2524.248
 30
0
 11
5958.808
 21
2534.248
 31
0
 0
LINE
 8
TOOL_0
 5
104
 10
5958.808
 20
2534.248
 30
0
 11
5848.808
 21
2424.248
 31
0
 0
LINE
 8
TOOL_0
 5
105
 10
5848.808
 20
2424.248
 30
0
 11
5878.808
 21
2424.248
 31
0
 0
LINE
 8
TOOL_0
 5
106
 10
5878.808
 20
2424.248
 30
0
 11
5878.808
 21
2454.248
 31
0
 0
ARC
 8
TOOL_0
 5
107
 10
5858.808
 20
2454.248
 30
0
 40
20.0
 50
0
 51
90.0
210
0
220
0
230
1.0
 0
LINE
 8
TOOL_0
 5
108
 10
5858.808
 20
2474.248
 30
0
 11
5768.808
 21
2474.248
 31
0
 0
ARC
 8
TOOL_0
 5
109
 10
5768.808
 20
2454.248
 30
0
 40
20.0
 50
90.0
 51
180.0
210
0
220
0
230
1.0
 0
LINE
 8
TOOL_0
 5
10A
 10
5748.808
 20
2454.248
 30
0
 11
5748.808
 21
2394.248
 31
0
 0
ARC
 8
TOOL_0
 5
10B
 10
5768.808
 20
2394.248
 30
0
 40
20.0
 50
180.0
 51
270.0
210
0
220
0
230
1.0
 0
LINE
 8
TOOL_0
 5
10C
 10
5768.808
 20
2374.248
 30
0
 11
5858.808
 21
2374.248
 31
0
 0
ARC
 8
TOOL_0
 5
10D
 10
5858.808
 20
2394.248
 30
0
 40
20.0
 50
270.0
 51
0
210
0
220
0
230
1.0
 0
LINE
 8
TOOL_0
 5
10E
 10
5878.808
 20
2394.248
 30
0
 11
5878.808
 21
2424.248
 31
0
 0
LINE
 8
TOOL_0
 5
10F
 10
5878.808
 20
2424.248
 30
0
 11
4838.808
 21
2441.248
 31
0
 0
LINE
 8
TOOL_0
 5
110
 10
4838.808
 20
2441.248
 30
0
 11
4868.808
 21
2441.248
 31
0
 0
LINE
 8
TOOL_0
 5
111
 10
4868.808
 20
2441.248
 30
0
 11
4868.808
 21
2481.248
 31
0
 0
ARC
 8
TOOL_0
 5
112
 10
4848.808
 20
2481.248
 30
0
 40
20.0
 50
0
 51
90.0
210
0
220
0
230
1.0
 0
LINE
 8
TOOL_0
 5
113
 10
4848.808
 20
2501.248
 30
0
 11
4788.808
 21
2501.248
 31
0
 0
ARC
 8
TOOL_0
 5
114
 10
4788.808
 20
2481.248
 30
0
 40
20.0
 50
90.0
 51
180.0
210
0
220
0
230
1.0
 0
LINE
 8
TOOL_0
 5
115
 10
4768.808
 20
2481.248
 30
0
 11
4768.808
 21
2401.248
 31
0
 0
ARC
 8
TOOL_0
 5
116
 10
4788.808
 20
2401.248
 30
0
 40
20.0
 50
180.0
 51
270.0
210
0
220
0
230
1.0
 0
LINE
 8
TOOL_0
 5
117
 10
4788.808
 20
2381.248
 30
0
 11
4848.808
 21
2381.248
 31
0
 0
ARC
 8
TOOL_0
 5
118
 10
4848.808
 20
2401.248
 30
0
 40
20.0
 50
270.0
 51
0
210
0
220
0
230
1.0
 0
LINE
 8
TOOL_0
 5
119
 10
4868.808
 20
2401.248
 30
0
 11
4868.808
 21
2441.248
 31
0
 0
LINE
 8
TOOL_0
 5
11A
 10
4868.808
 20
2441.248
 30
0
 11
5175.808
 21
91.248
 31
0
 0
LINE
 8
TOOL_0
 5
11B
 10
5175.808
 20
91.248
 30
0
 11
5205.808
 21
91.248
 31
0
 0
ARC
 8
TOOL_0
 5
11C
 10
5170.808
 20
91.248
 30
0
 40
35.0
 50
0
 51
180.0
210
0
220
0
230
1.0
 0
ARC
 8
TOOL_0
 5
11D
 10
5170.808
 20
91.248
 30
0
 40
35.0
 50
180.0
 51
0
210
0
220
0
230
1.0
 0
LINE
 8
TOOL_0
 5
11E
 10
5205.808
 20
91.248
 30
0
 11
5825.808
 21
313.248
 31
0
 0
LINE
 8
TOOL_0
 5
11F
 10
5825.808
 20
313.248
 30
0
 11
5855.808
 21
313.248
 31
0
 0
LINE
 8
TOOL_0
 5
120
 10
5855.808
 20
313.248
 30
0
 11
5855.808
 21
328.248
 31
0
 0
ARC
 8
TOOL_0
 5
121
 10
5845.808
 20
328.248
 30
0
 40
10.0
 50
0
 51
90.0
210
0
220
0
230
1.0
 0
LINE
 8
TOOL_0
 5
122
 10
5845.808
 20
338.248
 30
0
 11
5665.808
 21
338.248
 31
0
 0
ARC
 8
TOOL_0
 5
123
 10
5665.808
 20
328.248
 30
0
 40
10.0
 50
90.0
 51
180.0
210
0
220
0
230
1.0
 0
LINE
 8
TOOL_0
 5
124
 10
5655.808
 20
328.248
 30
0
 11
5655.808
 21
298.248
 31
0
 0
ARC
 8
TOOL_0
 5
125
 10
5665.808
 20
298.248
 30
0
 40
10.0
 50
180.0
 51
270.0
210
0
220
0
230
1.0
 0
LINE
 8
TOOL_0
 5
126
 10
5665.808
 20
288.248
 30
0
 11
5845.808
 21
288.248
 31
0
 0
ARC
 8
TOOL_0
 5
127
 10
5845.808
 20
298.248
 30
0
 40
10.0
 50
270.0
 51
0
210
0
220
0
230
1.0
 0
LINE
 8
TOOL_0
 5
128
 10
5855.808
 20
298.248
 30
0
 11
5855.808
 21
313.248
 31
0
 0
LINE
 8
TOOL_0
 5
129
 10
5855.808
 20
313.248
 30
0
 11
4742.808
 21
1757.5
 31
0
 0
LINE
 8
TOOL_0
 5
12A
 10
4742.808
 20
1757.5
 30
0
 11
4742.808
 21
1820.834
 31
0
 0
LINE
 8
TOOL_0
 5
12B
 10
4742.808
 20
1820.834
 30
0
 11
4742.808
 21
2631.662
 31
0
 0
LINE
 8
TOOL_0
 5
12C
 10
4742.808
 20
2631.662
 30
0
 11
4748.394
 21
2637.248
 31
0
 0
LINE
 8
TOOL_0
 5
12D
 10
4748.394
 20
2637.248
 30
0
 11
6132.808
 21
2637.248
 31
0
 0
ARC
 8
TOOL_0
 5
12E
 10
6132.808
 20
2632.248
 30
0
 40
5.0
 50
0
 51
90.0
210
0
220
0
230
1.0
 0
LINE
 8
TOOL_0
 5
12F
 10
6137.808
 20
2632.248
 30
0
 11
6137.808
 21
2600.248
 31
0
 0
ARC
 8
TOOL_0
 5
130
 10
6140.808
 20
2600.248
 30
0
 40
3.0
 50
180.0
 51
270.0
210
0
220
0
230
1.0
 0
LINE
 8
TOOL_0
 5
131
 10
6140.808
 20
2597.248
 30
0
 11
6189.808
 21
2597.248
 31
0
 0
ARC
 8
TOOL_0
 5
132
 10
6189.808
 20
2592.248
 30
0
 40
5.0
 50
0
 51
90.0
210
0
220
0
230
1.0
 0
LINE
 8
TOOL_0
 5
133
 10
6194.808
 20
2592.248
 30
0
 11
6194.808
 21
2500.248
 31
0
 0
LINE
 8
TOOL_0
 5
134
 10
6194.808
 20
2500.248
 30
0
 11
6140.808
 21
2500.248
 31
0
 0
ARC
 8
TOOL_0
 5
135
 10
6140.808
 20
2497.248
 30
0
 40
3.0
 50
90.0
 51
180.0
210
0
220
0
230
1.0
 0
LINE
 8
TOOL_0
 5
136
 10
6137.808
 20
2497.248
 30
0
 11
6137.808
 21
1743.248
 31
0
 0
ARC
 8
TOOL_0
 5
137
 10
6140.808
 20
1743.248
 30
0
 40
3.0
 50
180.0
 51
270.0
210
0
220
0
230
1.0
 0
LINE
 8
TOOL_0
 5
138
 10
6140.808
 20
1740.248
 30
0
 11
6194.808
 21
1740.248
 31
0
 0
LINE
 8
TOOL_0
 5
139
 10
6194.808
 20
1740.248
 30
0
 11
6194.808
 21
10.248
 31
0
 0
LINE
 8
TOOL_0
 5
13A
 10
6194.808
 20
10.248
 30
0
 11
4609.808
 21
10.248
 31
0
 0
LINE
 8
TOOL_0
 5
13B
 10
4609.808
 20
10.248
 30
0
 11
4609.808
 21
491.248
 31
0
 0
LINE
 8
TOOL_0
 5
13C
 10
4609.808
 20
491.248
 30
0
 11
4757.808
 21
491.248
 31
0
 0
LINE
 8
TOOL_0
 5
13D
 10
4757.808
 20
491.248
 30
0
 11
4757.808
 21
456.248
 31
0
 0
ARC
 8
TOOL_0
 5
13E
 10
4778.808
 20
456.248
 30
0
 40
21.0
 50
180.0
 51
327.723627214969
210
0
220
0
230
1.0
 0
LINE
 8
TOOL_0
 5
13F
 10
4796.563
 20
445.034
 30
0
 11
4829.836
 21
497.719
 31
0
 0
ARC
 8
TOOL_0
 5
140
 10
4813.772
 20
507.865
 30
0
 40
18.999826630788
 50
327.723550532163
 51
63.305476199263
210
0
220
0
230
1.0
 0
LINE
 8
TOOL_0
 5
141
 10
4822.307
 20
524.839
 30
0
 11
4822.307
 21
1070.248
 31
0
 0
LINE
 8
TOOL_0
 5
142
 10
4822.307
 20
1070.248
 30
0
 11
4859.307
 21
1070.248
 31
0
 0
LINE
 8
TOOL_0
 5
143
 10
4859.307
 20
1070.248
 30
0
 11
4859.307
 21
1067.248
 31
0
 0
ARC
 8
TOOL_0
 5
144
 10
4862.307
 20
1067.248
 30
0
 40
3.0
 50
180.0
 51
270.0
210
0
220
0
230
1.0
 0
LINE
 8
TOOL_0
 5
145
 10
4862.307
 20
1064.248
 30
0
 11
4908.807
 21
1064.248
 31
0
 0
ARC
 8
TOOL_0
 5
146
 10
4908.807
 20
1263.248
 30
0
 40
199.0
 50
270.0
 51
359.99971208151
210
0
220
0
230
1.0
 0
LINE
 8
TOOL_0
 5
147
 10
5107.807
 20
1263.247
 30
0
 11
5107.807
 21
1616.248
 31
0
 0
ARC
 8
TOOL_0
 5
148
 10
4908.807
 20
1616.248
 30
0
 40
199.0
 50
0
 51
90.0
210
0
220
0
230
1.0
 0
LINE
 8
TOOL_0
 5
149
 10
4908.807
 20
1815.248
 30
0
 11
4748.393
 21
1815.248
 31
0
 0
LINE
 8
TOOL_0
 5
14A
 10
4748.393
 20
1815.248
 30
0
 11
4742.807
 21
1820.834
 31
0
 0
LINE
 8
TOOL_0
 5
14B
 10
4742.807
 20
1820.834
 30
0
 11
4734.729
 21
1820.834
 31
0
 0
LINE
 8
TOOL_0
 5
14C
 10
4734.729
 20
1820.834
 30
0
 11
7264.619
 21
2556.248
 31
0
 0
LINE
 8
TOOL_0
 5
14D
 10
7264.619
 20
2556.248
 30
0
 11
7294.619
 21
2556.248
 31
0
 0
ARC
 8
TOOL_0
 5
14E
 10
7259.619
 20
2556.248
 30
0
 40
35.0
 50
0
 51
180.0
210
0
220
0
230
1.0
 0
ARC
 8
TOOL_0
 5
14F
 10
7259.619
 20
2556.248
 30
0
 40
35.0
 50
180.0
 51
0
210
0
220
0
230
1.0
 0
LINE
 8
TOOL_0
 5
150
 10
7294.619
 20
2556.248
 30
0
 11
6869.619
 21
2321.248
 31
0
 0
LINE
 8
TOOL_0
 5
151
 10
6869.619
 20
2321.248
 30
0
 11
6899.619
 21
2321.248
 31
0
 0
LINE
 8
TOOL_0
 5
152
 10
6899.619
 20
2321.248
 30
0
 11
6899.619
 21
2351.248
 31
0
 0
ARC
 8
TOOL_0
 5
153
 10
6889.619
 20
2351.248
 30
0
 40
10.0
 50
0
 51
90.0
210
0
220
0
230
1.0
 0
LINE
 8
TOOL_0
 5
154
 10
6889.619
 20
2361.248
 30
0
 11
6709.619
 21
2361.248
 31
0
 0
ARC
 8
TOOL_0
 5
155
 10
6709.619
 20
2351.248
 30
0
 40
10.0
 50
90.0
 51
180.0
210
0
220
0
230
1.0
 0
LINE
 8
TOOL_0
 5
156
 10
6699.619
 20
2351.248
 30
0
 11
6699.619
 21
2291.248
 31
0
 0
ARC
 8
TOOL_0
 5
157
 10
6709.619
 20
2291.248
 30
0
 40
10.0
 50
180.0
 51
270.0
210
0
220
0
230
1.0
 0
LINE
 8
TOOL_0
 5
158
 10
6709.619
 20
2281.248
 30
0
 11
6889.619
 21
2281.248
 31
0
 0
ARC
 8
TOOL_0
 5
159
 10
6889.619
 20
2291.248
 30
0
 40
10.0
 50
270.0
 51
0
210
0
220
0
230
1.0
 0
LINE
 8
TOOL_0
 5
15A
 10
6899.619
 20
2291.248
 30
0
 11
6899.619
 21
2321.248
 31
0
 0
LINE
 8
TOOL_0
 5
15B
 10
6899.619
 20
2321.248
 30
0
 11
7277.619
 21
1911.248
 31
0
 0
LINE
 8
TOOL_0
 5
15C
 10
7277.619
 20
1911.248
 30
0
 11
7307.619
 21
1911.248
 31
0
 0
ARC
 8
TOOL_0
 5
15D
 10
7287.619
 20
1911.248
 30
0
 40
20.0
 50
0
 51
66.867990902554
210
0
220
0
230
1.0
 0
LINE
 8
TOOL_0
 5
15E
 10
7295.476
 20
1929.64
 30
0
 11
7271.797
 21
1939.756
 31
0
 0
ARC
 8
TOOL_0
 5
15F
 10
7259.618
 20
1911.07
 30
0
 40
31.164316726025
 50
66.9957430162
 51
113.002564662372
210
0
220
0
230
1.0
 0
LINE
 8
TOOL_0
 5
160
 10
7247.44
 20
1939.756
 30
0
 11
7223.761
 21
1929.64
 31
0
 0
ARC
 8
TOOL_0
 5
161
 10
7231.618
 20
1911.248
 30
0
 40
19.999952824944
 50
113.132009097445
 51
246.867990902554
210
0
220
0
230
1.0
 0
LINE
 8
TOOL_0
 5
162
 10
7223.761
 20
1892.856
 30
0
 11
7247.44
 21
1882.74
 31
0
 0
ARC
 8
TOOL_0
 5
163
 10
7259.619
 20
1911.426
 30
0
 40
31.164316726025
 50
246.995743016199
 51
293.002564662372
210
0
220
0
230
1.0
 0
LINE
 8
TOOL_0
 5
164
 10
7271.797
 20
1882.74
 30
0
 11
7295.476
 21
1892.856
 31
0
 0
ARC
 8
TOOL_0
 5
165
 10
7287.619
 20
1911.248
 30
0
 40
19.999952824944
 50
293.132009097446
 51
0
210
0
220
0
230
1.0
 0
LINE
 8
TOOL_0
 5
166
 10
7307.619
 20
1911.248
 30
0
 11
6599.619
 21
123.248
 31
0
 0
LINE
 8
TOOL_0
 5
167
 10
6599.619
 20
123.248
 30
0
 11
6620.832
 21
144.461
 31
0
 0
ARC
 8
TOOL_0
 5
168
 10
6599.619
 20
123.248
 30
0
 40
29.99971229862
 50
45.0
 51
90.0
210
0
220
0
230
1.0
 0
LINE
 8
TOOL_0
 5
169
 10
6599.619
 20
153.248
 30
0
 11
6529.619
 21
153.248
 31
0
 0
ARC
 8
TOOL_0
 5
16A
 10
6529.619
 20
123.248
 30
0
 40
30.0
 50
90.0
 51
180.0
210
0
220
0
230
1.0
 0
LINE
 8
TOOL_0
 5
16B
 10
6499.619
 20
123.248
 30
0
 11
6499.619
 21
103.248
 31
0
 0
ARC
 8
TOOL_0
 5
16C
 10
6509.619
 20
103.248
 30
0
 40
10.0
 50
180.0
 51
270.0
210
0
220
0
230
1.0
 0
LINE
 8
TOOL_0
 5
16D
 10
6509.619
 20
93.248
 30
0
 11
6619.619
 21
93.248
 31
0
 0
ARC
 8
TOOL_0
 5
16E
 10
6619.619
 20
103.248
 30
0
 40
10.0
 50
270.0
 51
0
210
0
220
0
230
1.0
 0
LINE
 8
TOOL_0
 5
16F
 10
6629.619
 20
103.248
 30
0
 11
6629.619
 21
123.248
 31
0
 0
ARC
 8
TOOL_0
 5
170
 10
6599.619
 20
123.248
 30
0
 40
30.0
 50
0
 51
45.0
210
0
220
0
230
1.0
 0
LINE
 8
TOOL_0
 5
171
 10
6620.832
 20
144.461
 30
0
 11
6679.619
 21
223.248
 31
0
 0
LINE
 8
TOOL_0
 5
172
 10
6679.619
 20
223.248
 30
0
 11
6709.619
 21
223.248
 31
0
 0
LINE
 8
TOOL_0
 5
173
 10
6709.619
 20
223.248
 30
0
 11
6709.619
 21
253.248
 31
0
 0
ARC
 8
TOOL_0
 5
174
 10
6689.619
 20
253.248
 30
0
 40
20.0
 50
0
 51
90.0
210
0
220
0
230
1.0
 0
LINE
 8
TOOL_0
 5
175
 10
6689.619
 20
273.248
 30
0
 11
6629.619
 21
273.248
 31
0
 0
ARC
 8
TOOL_0
 5
176
 10
6629.619
 20
253.248
 30
0
 40
20.0
 50
90.0
 51
180.0
210
0
220
0
230
1.0
 0
LINE
 8
TOOL_0
 5
177
 10
6609.619
 20
253.248
 30
0
 11
6609.619
 21
193.248
 31
0
 0
ARC
 8
TOOL_0
 5
178
 10
6629.619
 20
193.248
 30
0
 40
20.0
 50
180.0
 51
270.0
210
0
220
0
230
1.0
 0
LINE
 8
TOOL_0
 5
179
 10
6629.619
 20
173.248
 30
0
 11
6689.619
 21
173.248
 31
0
 0
ARC
 8
TOOL_0
 5
17A
 10
6689.619
 20
193.248
 30
0
 40
20.0
 50
270.0
 51
0
210
0
220
0
230
1.0
 0
LINE
 8
TOOL_0
 5
17B
 10
6709.619
 20
193.248
 30
0
 11
6709.619
 21
223.248
 31
0
 0
LINE
 8
TOOL_0
 5
17C
 10
6709.619
 20
223.248
 30
0
 11
7674.619
 21
196.248
 31
0
 0
LINE
 8
TOOL_0
 5
17D
 10
7674.619
 20
196.248
 30
0
 11
7704.619
 21
196.248
 31
0
 0
LINE
 8
TOOL_0
 5
17E
 10
7704.619
 20
196.248
 30
0
 11
7704.619
 21
226.248
 31
0
 0
ARC
 8
TOOL_0
 5
17F
 10
7684.619
 20
226.248
 30
0
 40
20.0
 50
0
 51
90.0
210
0
220
0
230
1.0
 0
LINE
 8
TOOL_0
 5
180
 10
7684.619
 20
246.248
 30
0
 11
7624.619
 21
246.248
 31
0
 0
ARC
 8
TOOL_0
 5
181
 10
7624.619
 20
226.248
 30
0
 40
20.0
 50
90.0
 51
180.0
210
0
220
0
230
1.0
 0
LINE
 8
TOOL_0
 5
182
 10
7604.619
 20
226.248
 30
0
 11
7604.619
 21
166.248
 31
0
 0
ARC
 8
TOOL_0
 5
183
 10
7624.619
 20
166.248
 30
0
 40
20.0
 50
180.0
 51
270.0
210
0
220
0
230
1.0
 0
LINE
 8
TOOL_0
 5
184
 10
7624.619
 20
146.248
 30
0
 11
7684.619
 21
146.248
 31
0
 0
ARC
 8
TOOL_0
 5
185
 10
7684.619
 20
166.248
 30
0
 40
20.0
 50
270.0
 51
0
210
0
220
0
230
1.0
 0
LINE
 8
TOOL_0
 5
186
 10
7704.619
 20
166.248
 30
0
 11
7704.619
 21
196.248
 31
0
 0
LINE
 8
TOOL_0
 5
187
 10
7704.619
 20
196.248
 30
0
 11
7730.619
 21
830.089
 31
0
 0
LINE
 8
TOOL_0
 5
188
 10
7730.619
 20
830.089
 30
0
 11
7730.619
 21
743.662
 31
0
 0
LINE
 8
TOOL_0
 5
189
 10
7730.619
 20
743.662
 30
0
 11
7730.619
 21
18.834
 31
0
 0
LINE
 8
TOOL_0
 5
18A
 10
7730.619
 20
18.834
 30
0
 11
7722.033
 21
10.248
 31
0
 0
LINE
 8
TOOL_0
 5
18B
 10
7722.033
 20
10.248
 30
0
 11
6245.619
 21
10.248
 31
0
 0
ARC
 8
TOOL_0
 5
18C
 10
6245.619
 20
17.248
 30
0
 40
7.0
 50
180.0
 51
270.0
210
0
220
0
230
1.0
 0
LINE
 8
TOOL_0
 5
18D
 10
6238.619
 20
17.248
 30
0
 11
6238.619
 21
2637.248
 31
0
 0
LINE
 8
TOOL_0
 5
18E
 10
6238.619
 20
2637.248
 30
0
 11
7856.619
 21
2637.248
 31
0
 0
ARC
 8
TOOL_0
 5
18F
 10
7856.619
 20
2630.248
 30
0
 40
7.0
 50
0
 51
90.0
210
0
220
0
230
1.0
 0
LINE
 8
TOOL_0
 5
190
 10
7863.619
 20
2630.248
 30
0
 11
7863.619
 21
2156.248
 31
0
 0
LINE
 8
TOOL_0
 5
191
 10
7863.619
 20
2156.248
 30
0
 11
7715.619
 21
2156.248
 31
0
 0
LINE
 8
TOOL_0
 5
192
 10
7715.619
 20
2156.248
 30
0
 11
7715.619
 21
2191.248
 31
0
 0
ARC
 8
TOOL_0
 5
193
 10
7694.619
 20
2191.248
 30
0
 40
21.0
 50
0
 51
147.688053502426
210
0
220
0
230
1.0
 0
LINE
 8
TOOL_0
 5
194
 10
7676.871
 20
2202.473
 30
0
 11
7643.561
 21
2149.804
 31
0
 0
ARC
 8
TOOL_0
 5
195
 10
7659.619
 20
2139.648
 30
0
 40
19.000097368172
 50
147.688392683242
 51
243.424159673344
210
0
220
0
230
1.0
 0
LINE
 8
TOOL_0
 5
196
 10
7651.119
 20
2122.656
 30
0
 11
7651.119
 21
1577.249
 31
0
 0
LINE
 8
TOOL_0
 5
197
 10
7651.119
 20
1577.249
 30
0
 11
7614.018
 21
1577.249
 31
0
 0
ARC
 8
TOOL_0
 5
198
 10
7609.119
 20
1578.249
 30
0
 40
5.00002009996
 50
348.463087982615
 51
90.0
210
0
220
0
230
1.0
 0
LINE
 8
TOOL_0
 5
199
 10
7609.119
 20
1583.249
 30
0
 11
7564.619
 21
1583.249
 31
0
 0
ARC
 8
TOOL_0
 5
19A
 10
7564.619
 20
1384.249
 30
0
 40
199.0
 50
90.0
 51
180.0
210
0
220
0
230
1.0
 0
LINE
 8
TOOL_0
 5
19B
 10
7365.619
 20
1384.249
 30
0
 11
7365.619
 21
951.249
 31
0
 0
ARC
 8
TOOL_0
 5
19C
 10
7564.619
 20
951.249
 30
0
 40
199.0
 50
180.0
 51
270.0
210
0
220
0
230
1.0
 0
LINE
 8
TOOL_0
 5
19D
 10
7564.619
 20
752.249
 30
0
 11
7722.033
 21
752.249
 31
0
 0
LINE
 8
TOOL_0
 5
19E
 10
7722.033
 20
752.249
 30
0
 11
7730.619
 21
743.663
 31
0
 0
LINE
 8
TOOL_0
 5
19F
 10
7730.619
 20
743.663
 30
0
 11
7741.682
 21
743.663
 31
0
 0
LINE
 8
TOOL_0
 5
1A0
 10
7741.682
 20
743.663
 30
0
 11
7901.418
 21
-0.001
 31
0
 0
LINE
 8
TOOL_0
 5
1A1
 10
7901.418
 20
-0.001
 30
0
 11
7901.418
 21
0.999
 31
0
 0
LINE
 8
TOOL_0
 5
1A2
 10
7901.418
 20
0.999
 30
0
 11
7901.418
 21
-0.001
 31
0
 0
LINE
 8
TOOL_0
 5
1A3
 10
7901.418
 20
-0.001
 30
0
 11
7901.418
 21
0.999
 31
0
 0
LINE
 8
TOOL_0
 5
1A4
 10
7901.418
 20
0.999
 30
0
 11
7901.418
 21
2638.999
 31
0
 0
LINE
 8
TOOL_0
 5
1A5
 10
7901.418
 20
2638.999
 30
0
 11
7901.418
 21
2639.999
 31
0
 0
ENDSEC
 0
EOF

