0
SECTION
2
TABLES
0
TABLE
2
LAYER
70
0
0
LAYER
2
LAYER_NAME
70
0
62
1
6
CONTINUOUS
0
ENDTAB
0
ENDSEC
 0
SECTION
 2
ENTITIES
 0
LINE
 8
TOOL_0
 5
1
 10
780.213
 20
421.218
 30
0
 11
780.213
 21
387.843
 31
0
 0
LINE
 8
TOOL_0
 5
2
 10
780.213
 20
387.843
 30
0
 11
780.213
 21
337.043
 31
0
 0
ARC
 8
TOOL_0
 5
3
 10
750.213
 20
337.043
 30
0
 40
30.0
 50
270.0
 51
0
210
0
220
0
230
1.0
 0
LINE
 8
TOOL_0
 5
4
 10
750.213
 20
307.043
 30
0
 11
368.213
 21
307.043
 31
0
 0
ARC
 8
TOOL_0
 5
5
 10
368.213
 20
337.043
 30
0
 40
30.0
 50
180.0
 51
270.0
210
0
220
0
230
1.0
 0
LINE
 8
TOOL_0
 5
6
 10
338.213
 20
337.043
 30
0
 11
338.213
 21
538.643
 31
0
 0
ARC
 8
TOOL_0
 5
7
 10
368.213
 20
538.643
 30
0
 40
30.0
 50
90.0
 51
180.0
210
0
220
0
230
1.0
 0
LINE
 8
TOOL_0
 5
8
 10
368.213
 20
568.643
 30
0
 11
637.213
 21
568.643
 31
0
 0
ARC
 8
TOOL_0
 5
9
 10
637.213
 20
538.643
 30
0
 40
30.0
 50
0
 51
90.0
210
0
220
0
230
1.0
 0
LINE
 8
TOOL_0
 5
A
 10
667.213
 20
538.643
 30
0
 11
667.213
 21
447.843
 31
0
 0
ARC
 8
TOOL_0
 5
B
 10
697.213
 20
447.843
 30
0
 40
30.0
 50
180.0
 51
270.0
210
0
220
0
230
1.0
 0
LINE
 8
TOOL_0
 5
C
 10
697.213
 20
417.843
 30
0
 11
750.213
 21
417.843
 31
0
 0
ARC
 8
TOOL_0
 5
D
 10
750.213
 20
387.843
 30
0
 40
30.0
 50
0
 51
90.0
210
0
220
0
230
1.0
 0
LINE
 8
TOOL_0
 5
E
 10
780.213
 20
387.843
 30
0
 11
788.162
 21
387.843
 31
0
 0
LINE
 8
TOOL_0
 5
F
 10
788.162
 20
387.843
 30
0
 11
1104.926
 21
65.983
 31
0
 0
LINE
 8
TOOL_0
 5
10
 10
1104.926
 20
65.983
 30
0
 11
1073.615
 21
65.983
 31
0
 0
LINE
 8
TOOL_0
 5
11
 10
1073.615
 20
65.983
 30
0
 11
802.815
 21
65.983
 31
0
 0
LINE
 8
TOOL_0
 5
12
 10
802.815
 20
65.983
 30
0
 11
802.815
 21
384.583
 31
0
 0
LINE
 8
TOOL_0
 5
13
 10
802.815
 20
384.583
 30
0
 11
1073.615
 21
384.583
 31
0
 0
ARC
 8
TOOL_0
 5
14
 10
1073.615
 20
363.783
 30
0
 40
20.8
 50
0
 51
90.0
210
0
220
0
230
1.0
 0
LINE
 8
TOOL_0
 5
15
 10
1094.415
 20
363.783
 30
0
 11
1094.415
 21
86.783
 31
0
 0
ARC
 8
TOOL_0
 5
16
 10
1073.615
 20
86.783
 30
0
 40
20.8
 50
270.0
 51
0
210
0
220
0
230
1.0
 0
LINE
 8
TOOL_0
 5
17
 10
1073.615
 20
65.983
 30
0
 11
1073.615
 21
56.148
 31
0
 0
LINE
 8
TOOL_0
 5
18
 10
1073.615
 20
56.148
 30
0
 11
1434.836
 21
550.286
 31
0
 0
LINE
 8
TOOL_0
 5
19
 10
1434.836
 20
550.286
 30
0
 11
1434.836
 21
518.595
 31
0
 0
LINE
 8
TOOL_0
 5
1A
 10
1434.836
 20
518.595
 30
0
 11
1434.836
 21
241.595
 31
0
 0
ARC
 8
TOOL_0
 5
1B
 10
1414.036
 20
241.595
 30
0
 40
20.8
 50
270.0
 51
0
210
0
220
0
230
1.0
 0
LINE
 8
TOOL_0
 5
1C
 10
1414.036
 20
220.795
 30
0
 11
1143.236
 21
220.795
 31
0
 0
LINE
 8
TOOL_0
 5
1D
 10
1143.236
 20
220.795
 30
0
 11
1143.236
 21
539.395
 31
0
 0
LINE
 8
TOOL_0
 5
1E
 10
1143.236
 20
539.395
 30
0
 11
1414.036
 21
539.395
 31
0
 0
ARC
 8
TOOL_0
 5
1F
 10
1414.036
 20
518.595
 30
0
 40
20.8
 50
0
 51
90.0
210
0
220
0
230
1.0
 0
LINE
 8
TOOL_0
 5
20
 10
1434.836
 20
518.595
 30
0
 11
1443.705
 21
518.595
 31
0
 0
LINE
 8
TOOL_0
 5
21
 10
1443.705
 20
518.595
 30
0
 11
1020.785
 21
554.006
 31
0
 0
LINE
 8
TOOL_0
 5
22
 10
1020.785
 20
554.006
 30
0
 11
982.876
 21
554.006
 31
0
 0
LINE
 8
TOOL_0
 5
23
 10
982.876
 20
554.006
 30
0
 11
713.876
 21
554.006
 31
0
 0
ARC
 8
TOOL_0
 5
24
 10
713.876
 20
584.006
 30
0
 40
30.0
 50
180.0
 51
270.0
210
0
220
0
230
1.0
 0
LINE
 8
TOOL_0
 5
25
 10
683.876
 20
584.006
 30
0
 11
683.876
 21
674.806
 31
0
 0
ARC
 8
TOOL_0
 5
26
 10
653.876
 20
674.806
 30
0
 40
30.0
 50
0
 51
90.0
210
0
220
0
230
1.0
 0
LINE
 8
TOOL_0
 5
27
 10
653.876
 20
704.806
 30
0
 11
600.876
 21
704.806
 31
0
 0
ARC
 8
TOOL_0
 5
28
 10
600.876
 20
734.806
 30
0
 40
30.0
 50
180.0
 51
270.0
210
0
220
0
230
1.0
 0
LINE
 8
TOOL_0
 5
29
 10
570.876
 20
734.806
 30
0
 11
570.876
 21
785.606
 31
0
 0
ARC
 8
TOOL_0
 5
2A
 10
600.876
 20
785.606
 30
0
 40
30.0
 50
90.0
 51
180.0
210
0
220
0
230
1.0
 0
LINE
 8
TOOL_0
 5
2B
 10
600.876
 20
815.606
 30
0
 11
982.876
 21
815.606
 31
0
 0
ARC
 8
TOOL_0
 5
2C
 10
982.876
 20
785.606
 30
0
 40
30.0
 50
0
 51
90.0
210
0
220
0
230
1.0
 0
LINE
 8
TOOL_0
 5
2D
 10
1012.876
 20
785.606
 30
0
 11
1012.876
 21
584.006
 31
0
 0
ARC
 8
TOOL_0
 5
2E
 10
982.876
 20
584.006
 30
0
 40
30.0
 50
270.0
 51
0
210
0
220
0
230
1.0
 0
LINE
 8
TOOL_0
 5
2F
 10
982.876
 20
554.006
 30
0
 11
982.876
 21
545.441
 31
0
 0
ENDSEC
 0
EOF

