0
SECTION
2
TABLES
0
TABLE
2
LAYER
70
0
0
LAYER
2
LAYER_NAME
70
0
62
1
6
CONTINUOUS
0
ENDTAB
0
ENDSEC
 0
SECTION
 2
ENTITIES
 0
LINE
 8
TOOL_0
 5
1
 10
1673.305
 20
1301.228
 30
0
 11
1673.305
 21
1270.814
 31
0
 0
LINE
 8
TOOL_0
 5
2
 10
1673.305
 20
1270.814
 30
0
 11
1673.305
 21
875.187
 31
0
 0
ARC
 8
TOOL_0
 5
3
 10
1622.805
 20
875.187
 30
0
 40
50.5
 50
312.800454355476
 51
0
210
0
220
0
230
1.0
 0
LINE
 8
TOOL_0
 5
4
 10
1657.117
 20
838.134
 30
0
 11
1593.273
 21
779.014
 31
0
 0
ARC
 8
TOOL_0
 5
5
 10
1545.344
 20
830.811
 30
0
 40
70.569952883646
 50
271.359250757383
 51
312.778823555331
210
0
220
0
230
1.0
 0
ARC
 8
TOOL_0
 5
6
 10
1537.805
 20
1479.048
 30
0
 40
718.846041053298
 50
269.396540503934
 51
270.734344266698
210
0
220
0
230
1.0
 0
ARC
 8
TOOL_0
 5
7
 10
1530.238
 20
830.742
 30
0
 40
70.500000113475
 50
227.199793205599
 51
269.996749175634
210
0
220
0
230
1.0
 0
LINE
 8
TOOL_0
 5
8
 10
1482.337
 20
779.014
 30
0
 11
1418.493
 21
838.134
 31
0
 0
ARC
 8
TOOL_0
 5
9
 10
1452.805
 20
875.187
 30
0
 40
50.499882702834
 50
179.998865430109
 51
227.199545644524
210
0
220
0
230
1.0
 0
LINE
 8
TOOL_0
 5
A
 10
1402.305
 20
875.188
 30
0
 11
1402.305
 21
1270.815
 31
0
 0
ARC
 8
TOOL_0
 5
B
 10
1452.805
 20
1270.815
 30
0
 40
50.5
 50
163.999746985136
 51
180.0
210
0
220
0
230
1.0
 0
LINE
 8
TOOL_0
 5
C
 10
1404.261
 20
1284.735
 30
0
 11
1470.387
 21
1515.344
 31
0
 0
ARC
 8
TOOL_0
 5
D
 10
1422.805
 20
1528.988
 30
0
 40
49.499550098966
 50
343.999909813427
 51
0
210
0
220
0
230
1.0
 0
LINE
 8
TOOL_0
 5
E
 10
1472.305
 20
1528.988
 30
0
 11
1472.305
 21
2078.742
 31
0
 0
ARC
 8
TOOL_0
 5
F
 10
1492.805
 20
2078.742
 30
0
 40
20.5
 50
90.0
 51
180.0
210
0
220
0
230
1.0
 0
LINE
 8
TOOL_0
 5
10
 10
1492.805
 20
2099.242
 30
0
 11
1582.805
 21
2099.242
 31
0
 0
ARC
 8
TOOL_0
 5
11
 10
1582.805
 20
2078.742
 30
0
 40
20.5
 50
0
 51
90.0
210
0
220
0
230
1.0
 0
LINE
 8
TOOL_0
 5
12
 10
1603.305
 20
2078.742
 30
0
 11
1603.305
 21
1528.988
 31
0
 0
ARC
 8
TOOL_0
 5
13
 10
1652.805
 20
1528.988
 30
0
 40
49.5
 50
180.0
 51
196.000090186573
210
0
220
0
230
1.0
 0
LINE
 8
TOOL_0
 5
14
 10
1605.223
 20
1515.344
 30
0
 11
1671.349
 21
1284.735
 31
0
 0
ARC
 8
TOOL_0
 5
15
 10
1622.805
 20
1270.815
 30
0
 40
50.500359761095
 50
0
 51
16.000253014863
210
0
220
0
230
1.0
 0
LINE
 8
TOOL_0
 5
16
 10
1673.305
 20
1270.815
 30
0
 11
1674.763
 21
1267.519
 31
0
 0
LINE
 8
TOOL_0
 5
17
 10
1674.763
 20
1267.519
 30
0
 11
1030.751
 21
2550.752
 31
0
 0
LINE
 8
TOOL_0
 5
18
 10
1030.751
 20
2550.752
 30
0
 11
1060.751
 21
2550.752
 31
0
 0
ARC
 8
TOOL_0
 5
19
 10
1025.751
 20
2550.752
 30
0
 40
35.0
 50
0
 51
180.0
210
0
220
0
230
1.0
 0
ARC
 8
TOOL_0
 5
1A
 10
1025.751
 20
2550.752
 30
0
 40
35.0
 50
180.0
 51
0
210
0
220
0
230
1.0
 0
LINE
 8
TOOL_0
 5
1B
 10
1060.751
 20
2550.752
 30
0
 11
1053.68
 21
2557.823
 31
0
 0
LINE
 8
TOOL_0
 5
1C
 10
1053.68
 20
2557.823
 30
0
 11
635.751
 21
2315.752
 31
0
 0
LINE
 8
TOOL_0
 5
1D
 10
635.751
 20
2315.752
 30
0
 11
665.751
 21
2315.752
 31
0
 0
LINE
 8
TOOL_0
 5
1E
 10
665.751
 20
2315.752
 30
0
 11
665.751
 21
2345.752
 31
0
 0
ARC
 8
TOOL_0
 5
1F
 10
655.751
 20
2345.752
 30
0
 40
10.0
 50
0
 51
90.0
210
0
220
0
230
1.0
 0
LINE
 8
TOOL_0
 5
20
 10
655.751
 20
2355.752
 30
0
 11
475.751
 21
2355.752
 31
0
 0
ARC
 8
TOOL_0
 5
21
 10
475.751
 20
2345.752
 30
0
 40
10.0
 50
90.0
 51
180.0
210
0
220
0
230
1.0
 0
LINE
 8
TOOL_0
 5
22
 10
465.751
 20
2345.752
 30
0
 11
465.751
 21
2285.752
 31
0
 0
ARC
 8
TOOL_0
 5
23
 10
475.751
 20
2285.752
 30
0
 40
10.0
 50
180.0
 51
270.0
210
0
220
0
230
1.0
 0
LINE
 8
TOOL_0
 5
24
 10
475.751
 20
2275.752
 30
0
 11
655.751
 21
2275.752
 31
0
 0
ARC
 8
TOOL_0
 5
25
 10
655.751
 20
2285.752
 30
0
 40
10.0
 50
270.0
 51
0
210
0
220
0
230
1.0
 0
LINE
 8
TOOL_0
 5
26
 10
665.751
 20
2285.752
 30
0
 11
665.751
 21
2315.752
 31
0
 0
LINE
 8
TOOL_0
 5
27
 10
665.751
 20
2315.752
 30
0
 11
658.68
 21
2322.823
 31
0
 0
LINE
 8
TOOL_0
 5
28
 10
658.68
 20
2322.823
 30
0
 11
1043.751
 21
1905.752
 31
0
 0
LINE
 8
TOOL_0
 5
29
 10
1043.751
 20
1905.752
 30
0
 11
1073.751
 21
1905.752
 31
0
 0
ARC
 8
TOOL_0
 5
2A
 10
1053.751
 20
1905.752
 30
0
 40
20.0
 50
0
 51
66.867990902554
210
0
220
0
230
1.0
 0
LINE
 8
TOOL_0
 5
2B
 10
1061.608
 20
1924.144
 30
0
 11
1037.929
 21
1934.26
 31
0
 0
ARC
 8
TOOL_0
 5
2C
 10
1025.75
 20
1905.574
 30
0
 40
31.164316726025
 50
66.9957430162
 51
113.002564662372
210
0
220
0
230
1.0
 0
LINE
 8
TOOL_0
 5
2D
 10
1013.572
 20
1934.26
 30
0
 11
989.893
 21
1924.144
 31
0
 0
ARC
 8
TOOL_0
 5
2E
 10
997.75
 20
1905.752
 30
0
 40
19.999952824944
 50
113.132009097445
 51
246.867990902554
210
0
220
0
230
1.0
 0
LINE
 8
TOOL_0
 5
2F
 10
989.893
 20
1887.36
 30
0
 11
1013.572
 21
1877.244
 31
0
 0
ARC
 8
TOOL_0
 5
30
 10
1025.751
 20
1905.93
 30
0
 40
31.164316726025
 50
246.995743016199
 51
293.002564662372
210
0
220
0
230
1.0
 0
LINE
 8
TOOL_0
 5
31
 10
1037.929
 20
1877.244
 30
0
 11
1061.608
 21
1887.36
 31
0
 0
ARC
 8
TOOL_0
 5
32
 10
1053.751
 20
1905.752
 30
0
 40
19.999952824944
 50
293.132009097446
 51
0
210
0
220
0
230
1.0
 0
LINE
 8
TOOL_0
 5
33
 10
1073.751
 20
1905.752
 30
0
 11
1066.68
 21
1912.823
 31
0
 0
LINE
 8
TOOL_0
 5
34
 10
1066.68
 20
1912.823
 30
0
 11
365.751
 21
117.752
 31
0
 0
LINE
 8
TOOL_0
 5
35
 10
365.751
 20
117.752
 30
0
 11
395.751
 21
117.752
 31
0
 0
ARC
 8
TOOL_0
 5
36
 10
365.751
 20
117.752
 30
0
 40
30.0
 50
0
 51
90.0
210
0
220
0
230
1.0
 0
LINE
 8
TOOL_0
 5
37
 10
365.751
 20
147.752
 30
0
 11
295.751
 21
147.752
 31
0
 0
ARC
 8
TOOL_0
 5
38
 10
295.751
 20
117.752
 30
0
 40
30.0
 50
90.0
 51
180.0
210
0
220
0
230
1.0
 0
LINE
 8
TOOL_0
 5
39
 10
265.751
 20
117.752
 30
0
 11
265.751
 21
97.752
 31
0
 0
ARC
 8
TOOL_0
 5
3A
 10
275.751
 20
97.752
 30
0
 40
10.0
 50
180.0
 51
270.0
210
0
220
0
230
1.0
 0
LINE
 8
TOOL_0
 5
3B
 10
275.751
 20
87.752
 30
0
 11
385.751
 21
87.752
 31
0
 0
ARC
 8
TOOL_0
 5
3C
 10
385.751
 20
97.752
 30
0
 40
10.0
 50
270.0
 51
0
210
0
220
0
230
1.0
 0
LINE
 8
TOOL_0
 5
3D
 10
395.751
 20
97.752
 30
0
 11
395.751
 21
117.752
 31
0
 0
LINE
 8
TOOL_0
 5
3E
 10
395.751
 20
117.752
 30
0
 11
388.68
 21
124.823
 31
0
 0
LINE
 8
TOOL_0
 5
3F
 10
388.68
 20
124.823
 30
0
 11
445.751
 21
217.752
 31
0
 0
LINE
 8
TOOL_0
 5
40
 10
445.751
 20
217.752
 30
0
 11
475.751
 21
217.752
 31
0
 0
LINE
 8
TOOL_0
 5
41
 10
475.751
 20
217.752
 30
0
 11
475.751
 21
247.752
 31
0
 0
ARC
 8
TOOL_0
 5
42
 10
455.751
 20
247.752
 30
0
 40
20.0
 50
0
 51
90.0
210
0
220
0
230
1.0
 0
LINE
 8
TOOL_0
 5
43
 10
455.751
 20
267.752
 30
0
 11
395.751
 21
267.752
 31
0
 0
ARC
 8
TOOL_0
 5
44
 10
395.751
 20
247.752
 30
0
 40
20.0
 50
90.0
 51
180.0
210
0
220
0
230
1.0
 0
LINE
 8
TOOL_0
 5
45
 10
375.751
 20
247.752
 30
0
 11
375.751
 21
187.752
 31
0
 0
ARC
 8
TOOL_0
 5
46
 10
395.751
 20
187.752
 30
0
 40
20.0
 50
180.0
 51
270.0
210
0
220
0
230
1.0
 0
LINE
 8
TOOL_0
 5
47
 10
395.751
 20
167.752
 30
0
 11
455.751
 21
167.752
 31
0
 0
ARC
 8
TOOL_0
 5
48
 10
455.751
 20
187.752
 30
0
 40
20.0
 50
270.0
 51
0
210
0
220
0
230
1.0
 0
LINE
 8
TOOL_0
 5
49
 10
475.751
 20
187.752
 30
0
 11
475.751
 21
217.752
 31
0
 0
LINE
 8
TOOL_0
 5
4A
 10
475.751
 20
217.752
 30
0
 11
468.68
 21
224.823
 31
0
 0
LINE
 8
TOOL_0
 5
4B
 10
468.68
 20
224.823
 30
0
 11
1440.751
 21
190.752
 31
0
 0
LINE
 8
TOOL_0
 5
4C
 10
1440.751
 20
190.752
 30
0
 11
1470.751
 21
190.752
 31
0
 0
LINE
 8
TOOL_0
 5
4D
 10
1470.751
 20
190.752
 30
0
 11
1470.751
 21
220.752
 31
0
 0
ARC
 8
TOOL_0
 5
4E
 10
1450.751
 20
220.752
 30
0
 40
20.0
 50
0
 51
90.0
210
0
220
0
230
1.0
 0
LINE
 8
TOOL_0
 5
4F
 10
1450.751
 20
240.752
 30
0
 11
1390.751
 21
240.752
 31
0
 0
ARC
 8
TOOL_0
 5
50
 10
1390.751
 20
220.752
 30
0
 40
20.0
 50
90.0
 51
180.0
210
0
220
0
230
1.0
 0
LINE
 8
TOOL_0
 5
51
 10
1370.751
 20
220.752
 30
0
 11
1370.751
 21
160.752
 31
0
 0
ARC
 8
TOOL_0
 5
52
 10
1390.751
 20
160.752
 30
0
 40
20.0
 50
180.0
 51
270.0
210
0
220
0
230
1.0
 0
LINE
 8
TOOL_0
 5
53
 10
1390.751
 20
140.752
 30
0
 11
1450.751
 21
140.752
 31
0
 0
ARC
 8
TOOL_0
 5
54
 10
1450.751
 20
160.752
 30
0
 40
20.0
 50
270.0
 51
0
210
0
220
0
230
1.0
 0
LINE
 8
TOOL_0
 5
55
 10
1470.751
 20
160.752
 30
0
 11
1470.751
 21
190.752
 31
0
 0
LINE
 8
TOOL_0
 5
56
 10
1470.751
 20
190.752
 30
0
 11
1463.68
 21
197.823
 31
0
 0
LINE
 8
TOOL_0
 5
57
 10
1463.68
 20
197.823
 30
0
 11
1466.302
 21
767.307
 31
0
 0
LINE
 8
TOOL_0
 5
58
 10
1466.302
 20
767.307
 30
0
 11
1488.165
 21
746.752
 31
0
 0
LINE
 8
TOOL_0
 5
59
 10
1488.165
 20
746.752
 30
0
 11
1496.751
 21
738.166
 31
0
 0
LINE
 8
TOOL_0
 5
5A
 10
1496.751
 20
738.166
 30
0
 11
1496.751
 21
13.338
 31
0
 0
LINE
 8
TOOL_0
 5
5B
 10
1496.751
 20
13.338
 30
0
 11
1488.165
 21
4.752
 31
0
 0
LINE
 8
TOOL_0
 5
5C
 10
1488.165
 20
4.752
 30
0
 11
11.751
 21
4.752
 31
0
 0
ARC
 8
TOOL_0
 5
5D
 10
11.751
 20
11.752
 30
0
 40
7.0
 50
180.0
 51
270.0
210
0
220
0
230
1.0
 0
LINE
 8
TOOL_0
 5
5E
 10
4.751
 20
11.752
 30
0
 11
4.751
 21
2631.752
 31
0
 0
LINE
 8
TOOL_0
 5
5F
 10
4.751
 20
2631.752
 30
0
 11
1622.751
 21
2631.752
 31
0
 0
ARC
 8
TOOL_0
 5
60
 10
1622.751
 20
2624.752
 30
0
 40
7.0
 50
0
 51
90.0
210
0
220
0
230
1.0
 0
LINE
 8
TOOL_0
 5
61
 10
1629.751
 20
2624.752
 30
0
 11
1629.751
 21
2150.752
 31
0
 0
LINE
 8
TOOL_0
 5
62
 10
1629.751
 20
2150.752
 30
0
 11
1481.751
 21
2150.752
 31
0
 0
LINE
 8
TOOL_0
 5
63
 10
1481.751
 20
2150.752
 30
0
 11
1481.751
 21
2185.752
 31
0
 0
ARC
 8
TOOL_0
 5
64
 10
1460.751
 20
2185.752
 30
0
 40
21.0
 50
0
 51
147.688053502426
210
0
220
0
230
1.0
 0
LINE
 8
TOOL_0
 5
65
 10
1443.003
 20
2196.977
 30
0
 11
1409.693
 21
2144.308
 31
0
 0
ARC
 8
TOOL_0
 5
66
 10
1425.751
 20
2134.152
 30
0
 40
19.000097368172
 50
147.688392683242
 51
243.424159673344
210
0
220
0
230
1.0
 0
LINE
 8
TOOL_0
 5
67
 10
1417.251
 20
2117.16
 30
0
 11
1417.251
 21
1571.753
 31
0
 0
LINE
 8
TOOL_0
 5
68
 10
1417.251
 20
1571.753
 30
0
 11
1380.15
 21
1571.753
 31
0
 0
ARC
 8
TOOL_0
 5
69
 10
1375.251
 20
1572.753
 30
0
 40
5.000020099959
 50
348.463087982614
 51
90.0
210
0
220
0
230
1.0
 0
LINE
 8
TOOL_0
 5
6A
 10
1375.251
 20
1577.753
 30
0
 11
1330.751
 21
1577.753
 31
0
 0
ARC
 8
TOOL_0
 5
6B
 10
1330.751
 20
1378.753
 30
0
 40
199.0
 50
90.0
 51
180.0
210
0
220
0
230
1.0
 0
LINE
 8
TOOL_0
 5
6C
 10
1131.751
 20
1378.753
 30
0
 11
1131.751
 21
945.753
 31
0
 0
ARC
 8
TOOL_0
 5
6D
 10
1330.751
 20
945.753
 30
0
 40
199.0
 50
180.0
 51
270.0
210
0
220
0
230
1.0
 0
LINE
 8
TOOL_0
 5
6E
 10
1330.751
 20
746.753
 30
0
 11
1488.165
 21
746.753
 31
0
 0
LINE
 8
TOOL_0
 5
6F
 10
1488.165
 20
746.753
 30
0
 11
1492.472
 21
746.668
 31
0
 0
LINE
 8
TOOL_0
 5
70
 10
1492.472
 20
746.668
 30
0
 11
1730.342
 21
2445.753
 31
0
 0
LINE
 8
TOOL_0
 5
71
 10
1730.342
 20
2445.753
 30
0
 11
1760.342
 21
2445.753
 31
0
 0
LINE
 8
TOOL_0
 5
72
 10
1760.342
 20
2445.753
 30
0
 11
1760.342
 21
2475.753
 31
0
 0
ARC
 8
TOOL_0
 5
73
 10
1740.342
 20
2475.753
 30
0
 40
20.0
 50
0
 51
90.0
210
0
220
0
230
1.0
 0
LINE
 8
TOOL_0
 5
74
 10
1740.342
 20
2495.753
 30
0
 11
1680.342
 21
2495.753
 31
0
 0
ARC
 8
TOOL_0
 5
75
 10
1680.342
 20
2475.753
 30
0
 40
20.0
 50
90.0
 51
180.0
210
0
220
0
230
1.0
 0
LINE
 8
TOOL_0
 5
76
 10
1660.342
 20
2475.753
 30
0
 11
1660.342
 21
2415.753
 31
0
 0
ARC
 8
TOOL_0
 5
77
 10
1680.342
 20
2415.753
 30
0
 40
20.0
 50
180.0
 51
270.0
210
0
220
0
230
1.0
 0
LINE
 8
TOOL_0
 5
78
 10
1680.342
 20
2395.753
 30
0
 11
1740.342
 21
2395.753
 31
0
 0
ARC
 8
TOOL_0
 5
79
 10
1740.342
 20
2415.753
 30
0
 40
20.0
 50
270.0
 51
0
210
0
220
0
230
1.0
 0
LINE
 8
TOOL_0
 5
7A
 10
1760.342
 20
2415.753
 30
0
 11
1760.342
 21
2445.753
 31
0
 0
LINE
 8
TOOL_0
 5
7B
 10
1760.342
 20
2445.753
 30
0
 11
1753.271
 21
2452.824
 31
0
 0
LINE
 8
TOOL_0
 5
7C
 10
1753.271
 20
2452.824
 30
0
 11
2835.342
 21
2528.753
 31
0
 0
LINE
 8
TOOL_0
 5
7D
 10
2835.342
 20
2528.753
 30
0
 11
2865.342
 21
2528.753
 31
0
 0
LINE
 8
TOOL_0
 5
7E
 10
2865.342
 20
2528.753
 30
0
 11
2865.342
 21
2538.753
 31
0
 0
ARC
 8
TOOL_0
 5
7F
 10
2855.342
 20
2538.753
 30
0
 40
10.0
 50
0
 51
90.0
210
0
220
0
230
1.0
 0
LINE
 8
TOOL_0
 5
80
 10
2855.342
 20
2548.753
 30
0
 11
2745.342
 21
2548.753
 31
0
 0
ARC
 8
TOOL_0
 5
81
 10
2745.342
 20
2538.753
 30
0
 40
10.0
 50
90.0
 51
180.0
210
0
220
0
230
1.0
 0
LINE
 8
TOOL_0
 5
82
 10
2735.342
 20
2538.753
 30
0
 11
2735.342
 21
2518.753
 31
0
 0
ARC
 8
TOOL_0
 5
83
 10
2765.342
 20
2518.753
 30
0
 40
30.0
 50
180.0
 51
270.0
210
0
220
0
230
1.0
 0
LINE
 8
TOOL_0
 5
84
 10
2765.342
 20
2488.753
 30
0
 11
2835.342
 21
2488.753
 31
0
 0
ARC
 8
TOOL_0
 5
85
 10
2835.342
 20
2518.753
 30
0
 40
30.0
 50
270.0
 51
0
210
0
220
0
230
1.0
 0
LINE
 8
TOOL_0
 5
86
 10
2865.342
 20
2518.753
 30
0
 11
2865.342
 21
2528.753
 31
0
 0
LINE
 8
TOOL_0
 5
87
 10
2865.342
 20
2528.753
 30
0
 11
2858.271
 21
2535.824
 31
0
 0
LINE
 8
TOOL_0
 5
88
 10
2858.271
 20
2535.824
 30
0
 11
2725.342
 21
2418.753
 31
0
 0
LINE
 8
TOOL_0
 5
89
 10
2725.342
 20
2418.753
 30
0
 11
2755.342
 21
2418.753
 31
0
 0
LINE
 8
TOOL_0
 5
8A
 10
2755.342
 20
2418.753
 30
0
 11
2755.342
 21
2448.753
 31
0
 0
ARC
 8
TOOL_0
 5
8B
 10
2735.342
 20
2448.753
 30
0
 40
20.0
 50
0
 51
90.0
210
0
220
0
230
1.0
 0
LINE
 8
TOOL_0
 5
8C
 10
2735.342
 20
2468.753
 30
0
 11
2675.342
 21
2468.753
 31
0
 0
ARC
 8
TOOL_0
 5
8D
 10
2675.342
 20
2448.753
 30
0
 40
20.0
 50
90.0
 51
180.0
210
0
220
0
230
1.0
 0
LINE
 8
TOOL_0
 5
8E
 10
2655.342
 20
2448.753
 30
0
 11
2655.342
 21
2388.753
 31
0
 0
ARC
 8
TOOL_0
 5
8F
 10
2675.342
 20
2388.753
 30
0
 40
20.0
 50
180.0
 51
270.0
210
0
220
0
230
1.0
 0
LINE
 8
TOOL_0
 5
90
 10
2675.342
 20
2368.753
 30
0
 11
2735.342
 21
2368.753
 31
0
 0
ARC
 8
TOOL_0
 5
91
 10
2735.342
 20
2388.753
 30
0
 40
20.0
 50
270.0
 51
0
210
0
220
0
230
1.0
 0
LINE
 8
TOOL_0
 5
92
 10
2755.342
 20
2388.753
 30
0
 11
2755.342
 21
2418.753
 31
0
 0
LINE
 8
TOOL_0
 5
93
 10
2755.342
 20
2418.753
 30
0
 11
2748.271
 21
2425.824
 31
0
 0
LINE
 8
TOOL_0
 5
94
 10
2748.271
 20
2425.824
 30
0
 11
2635.342
 21
320.753
 31
0
 0
LINE
 8
TOOL_0
 5
95
 10
2635.342
 20
320.753
 30
0
 11
2665.342
 21
320.753
 31
0
 0
LINE
 8
TOOL_0
 5
96
 10
2665.342
 20
320.753
 30
0
 11
2665.342
 21
350.753
 31
0
 0
ARC
 8
TOOL_0
 5
97
 10
2655.342
 20
350.753
 30
0
 40
10.0
 50
0
 51
90.0
210
0
220
0
230
1.0
 0
LINE
 8
TOOL_0
 5
98
 10
2655.342
 20
360.753
 30
0
 11
2475.342
 21
360.753
 31
0
 0
ARC
 8
TOOL_0
 5
99
 10
2475.342
 20
350.753
 30
0
 40
10.0
 50
90.0
 51
180.0
210
0
220
0
230
1.0
 0
LINE
 8
TOOL_0
 5
9A
 10
2465.342
 20
350.753
 30
0
 11
2465.342
 21
290.753
 31
0
 0
ARC
 8
TOOL_0
 5
9B
 10
2475.342
 20
290.753
 30
0
 40
10.0
 50
180.0
 51
270.0
210
0
220
0
230
1.0
 0
LINE
 8
TOOL_0
 5
9C
 10
2475.342
 20
280.753
 30
0
 11
2655.342
 21
280.753
 31
0
 0
ARC
 8
TOOL_0
 5
9D
 10
2655.342
 20
290.753
 30
0
 40
10.0
 50
270.0
 51
0
210
0
220
0
230
1.0
 0
LINE
 8
TOOL_0
 5
9E
 10
2665.342
 20
290.753
 30
0
 11
2665.342
 21
320.753
 31
0
 0
LINE
 8
TOOL_0
 5
9F
 10
2665.342
 20
320.753
 30
0
 11
2658.271
 21
327.824
 31
0
 0
LINE
 8
TOOL_0
 5
A0
 10
2658.271
 20
327.824
 30
0
 11
2110.342
 21
85.753
 31
0
 0
LINE
 8
TOOL_0
 5
A1
 10
2110.342
 20
85.753
 30
0
 11
2140.342
 21
85.753
 31
0
 0
ARC
 8
TOOL_0
 5
A2
 10
2105.342
 20
85.753
 30
0
 40
35.0
 50
0
 51
180.0
210
0
220
0
230
1.0
 0
ARC
 8
TOOL_0
 5
A3
 10
2105.342
 20
85.753
 30
0
 40
35.0
 50
180.0
 51
0
210
0
220
0
230
1.0
 0
LINE
 8
TOOL_0
 5
A4
 10
2140.342
 20
85.753
 30
0
 11
2133.271
 21
92.824
 31
0
 0
LINE
 8
TOOL_0
 5
A5
 10
2133.271
 20
92.824
 30
0
 11
2123.342
 21
730.753
 31
0
 0
LINE
 8
TOOL_0
 5
A6
 10
2123.342
 20
730.753
 30
0
 11
2153.342
 21
730.753
 31
0
 0
ARC
 8
TOOL_0
 5
A7
 10
2133.342
 20
730.753
 30
0
 40
20.0
 50
0
 51
66.867990902554
210
0
220
0
230
1.0
 0
LINE
 8
TOOL_0
 5
A8
 10
2141.199
 20
749.145
 30
0
 11
2117.52
 21
759.261
 31
0
 0
ARC
 8
TOOL_0
 5
A9
 10
2105.341
 20
730.575
 30
0
 40
31.164316726025
 50
66.9957430162
 51
113.002564662372
210
0
220
0
230
1.0
 0
LINE
 8
TOOL_0
 5
AA
 10
2093.163
 20
759.261
 30
0
 11
2069.484
 21
749.145
 31
0
 0
ARC
 8
TOOL_0
 5
AB
 10
2077.341
 20
730.753
 30
0
 40
19.999952824944
 50
113.132009097445
 51
246.867990902554
210
0
220
0
230
1.0
 0
LINE
 8
TOOL_0
 5
AC
 10
2069.484
 20
712.361
 30
0
 11
2093.163
 21
702.245
 31
0
 0
ARC
 8
TOOL_0
 5
AD
 10
2105.342
 20
730.931
 30
0
 40
31.164316726025
 50
246.9957430162
 51
293.002564662372
210
0
220
0
230
1.0
 0
LINE
 8
TOOL_0
 5
AE
 10
2117.52
 20
702.245
 30
0
 11
2141.199
 21
712.361
 31
0
 0
ARC
 8
TOOL_0
 5
AF
 10
2133.342
 20
730.753
 30
0
 40
19.999952824944
 50
293.132009097446
 51
0
210
0
220
0
230
1.0
 0
LINE
 8
TOOL_0
 5
B0
 10
2153.342
 20
730.753
 30
0
 11
2146.271
 21
737.824
 31
0
 0
LINE
 8
TOOL_0
 5
B1
 10
2146.271
 20
737.824
 30
0
 11
1634.342
 21
1868.033
 31
0
 0
LINE
 8
TOOL_0
 5
B2
 10
1634.342
 20
1868.033
 30
0
 11
1634.342
 21
1898.339
 31
0
 0
LINE
 8
TOOL_0
 5
B3
 10
1634.342
 20
1898.339
 30
0
 11
1634.342
 21
2623.167
 31
0
 0
LINE
 8
TOOL_0
 5
B4
 10
1634.342
 20
2623.167
 30
0
 11
1642.928
 21
2631.753
 31
0
 0
LINE
 8
TOOL_0
 5
B5
 10
1642.928
 20
2631.753
 30
0
 11
3119.342
 21
2631.753
 31
0
 0
ARC
 8
TOOL_0
 5
B6
 10
3119.342
 20
2624.753
 30
0
 40
7.0
 50
0
 51
90.0
210
0
220
0
230
1.0
 0
LINE
 8
TOOL_0
 5
B7
 10
3126.342
 20
2624.753
 30
0
 11
3126.342
 21
4.753
 31
0
 0
LINE
 8
TOOL_0
 5
B8
 10
3126.342
 20
4.753
 30
0
 11
1508.342
 21
4.753
 31
0
 0
ARC
 8
TOOL_0
 5
B9
 10
1508.342
 20
11.753
 30
0
 40
7.0
 50
180.0
 51
270.0
210
0
220
0
230
1.0
 0
LINE
 8
TOOL_0
 5
BA
 10
1501.342
 20
11.753
 30
0
 11
1501.342
 21
485.753
 31
0
 0
LINE
 8
TOOL_0
 5
BB
 10
1501.342
 20
485.753
 30
0
 11
1649.342
 21
485.753
 31
0
 0
LINE
 8
TOOL_0
 5
BC
 10
1649.342
 20
485.753
 30
0
 11
1649.342
 21
450.753
 31
0
 0
ARC
 8
TOOL_0
 5
BD
 10
1670.342
 20
450.753
 30
0
 40
21.0
 50
180.0
 51
327.688053502427
210
0
220
0
230
1.0
 0
LINE
 8
TOOL_0
 5
BE
 10
1688.09
 20
439.528
 30
0
 11
1721.4
 21
492.197
 31
0
 0
ARC
 8
TOOL_0
 5
BF
 10
1705.342
 20
502.353
 30
0
 40
19.000097368172
 50
327.688392683242
 51
63.424159673344
210
0
220
0
230
1.0
 0
LINE
 8
TOOL_0
 5
C0
 10
1713.842
 20
519.345
 30
0
 11
1713.842
 21
1064.752
 31
0
 0
LINE
 8
TOOL_0
 5
C1
 10
1713.842
 20
1064.752
 30
0
 11
1750.943
 21
1064.752
 31
0
 0
ARC
 8
TOOL_0
 5
C2
 10
1755.842
 20
1063.752
 30
0
 40
5.000020099959
 50
168.463087982614
 51
270.0
210
0
220
0
230
1.0
 0
LINE
 8
TOOL_0
 5
C3
 10
1755.842
 20
1058.752
 30
0
 11
1800.342
 21
1058.752
 31
0
 0
ARC
 8
TOOL_0
 5
C4
 10
1800.342
 20
1257.752
 30
0
 40
199.0
 50
270.0
 51
359.99971208151
210
0
220
0
230
1.0
 0
LINE
 8
TOOL_0
 5
C5
 10
1999.342
 20
1257.751
 30
0
 11
1999.342
 21
1690.752
 31
0
 0
ARC
 8
TOOL_0
 5
C6
 10
1800.342
 20
1690.752
 30
0
 40
199.0
 50
0
 51
90.0
210
0
220
0
230
1.0
 0
LINE
 8
TOOL_0
 5
C7
 10
1800.342
 20
1889.752
 30
0
 11
1642.928
 21
1889.752
 31
0
 0
LINE
 8
TOOL_0
 5
C8
 10
1642.928
 20
1889.752
 30
0
 11
1634.342
 21
1898.338
 31
0
 0
LINE
 8
TOOL_0
 5
C9
 10
1634.342
 20
1898.338
 30
0
 11
1632.223
 21
1901.734
 31
0
 0
LINE
 8
TOOL_0
 5
CA
 10
1632.223
 20
1901.734
 30
0
 11
4797.483
 21
1319.086
 31
0
 0
LINE
 8
TOOL_0
 5
CB
 10
4797.483
 20
1319.086
 30
0
 11
4797.483
 21
1288.673
 31
0
 0
LINE
 8
TOOL_0
 5
CC
 10
4797.483
 20
1288.673
 30
0
 11
4797.483
 21
893.046
 31
0
 0
ARC
 8
TOOL_0
 5
CD
 10
4746.983
 20
893.046
 30
0
 40
50.5
 50
312.800454355476
 51
0
210
0
220
0
230
1.0
 0
LINE
 8
TOOL_0
 5
CE
 10
4781.295
 20
855.993
 30
0
 11
4717.451
 21
796.873
 31
0
 0
ARC
 8
TOOL_0
 5
CF
 10
4669.522
 20
848.67
 30
0
 40
70.569952883646
 50
271.359250757383
 51
312.778823555331
210
0
220
0
230
1.0
 0
ARC
 8
TOOL_0
 5
D0
 10
4661.983
 20
1496.907
 30
0
 40
718.846041053298
 50
269.396540503934
 51
270.734344266698
210
0
220
0
230
1.0
 0
ARC
 8
TOOL_0
 5
D1
 10
4654.416
 20
848.601
 30
0
 40
70.500000113475
 50
227.199793205599
 51
269.996749175634
210
0
220
0
230
1.0
 0
LINE
 8
TOOL_0
 5
D2
 10
4606.515
 20
796.873
 30
0
 11
4542.671
 21
855.993
 31
0
 0
ARC
 8
TOOL_0
 5
D3
 10
4576.983
 20
893.046
 30
0
 40
50.499882702834
 50
179.998865430109
 51
227.199545644524
210
0
220
0
230
1.0
 0
LINE
 8
TOOL_0
 5
D4
 10
4526.483
 20
893.047
 30
0
 11
4526.483
 21
1288.674
 31
0
 0
ARC
 8
TOOL_0
 5
D5
 10
4576.983
 20
1288.674
 30
0
 40
50.5
 50
163.999746985136
 51
180.0
210
0
220
0
230
1.0
 0
LINE
 8
TOOL_0
 5
D6
 10
4528.439
 20
1302.594
 30
0
 11
4594.565
 21
1533.203
 31
0
 0
ARC
 8
TOOL_0
 5
D7
 10
4546.983
 20
1546.847
 30
0
 40
49.499550098966
 50
343.999909813427
 51
0
210
0
220
0
230
1.0
 0
LINE
 8
TOOL_0
 5
D8
 10
4596.483
 20
1546.847
 30
0
 11
4596.483
 21
2096.601
 31
0
 0
ARC
 8
TOOL_0
 5
D9
 10
4616.983
 20
2096.601
 30
0
 40
20.5
 50
90.0
 51
180.0
210
0
220
0
230
1.0
 0
LINE
 8
TOOL_0
 5
DA
 10
4616.983
 20
2117.101
 30
0
 11
4706.983
 21
2117.101
 31
0
 0
ARC
 8
TOOL_0
 5
DB
 10
4706.983
 20
2096.601
 30
0
 40
20.5
 50
0
 51
90.0
210
0
220
0
230
1.0
 0
LINE
 8
TOOL_0
 5
DC
 10
4727.483
 20
2096.601
 30
0
 11
4727.483
 21
1546.847
 31
0
 0
ARC
 8
TOOL_0
 5
DD
 10
4776.983
 20
1546.847
 30
0
 40
49.5
 50
180.0
 51
196.000090186573
210
0
220
0
230
1.0
 0
LINE
 8
TOOL_0
 5
DE
 10
4729.401
 20
1533.203
 30
0
 11
4795.527
 21
1302.594
 31
0
 0
ARC
 8
TOOL_0
 5
DF
 10
4746.983
 20
1288.674
 30
0
 40
50.500359761095
 50
0
 51
16.000253014864
210
0
220
0
230
1.0
 0
LINE
 8
TOOL_0
 5
E0
 10
4797.483
 20
1288.674
 30
0
 11
4798.941
 21
1285.378
 31
0
 0
LINE
 8
TOOL_0
 5
E1
 10
4798.941
 20
1285.378
 30
0
 11
4157.274
 21
2550.754
 31
0
 0
LINE
 8
TOOL_0
 5
E2
 10
4157.274
 20
2550.754
 30
0
 11
4187.274
 21
2550.754
 31
0
 0
ARC
 8
TOOL_0
 5
E3
 10
4152.274
 20
2550.754
 30
0
 40
35.0
 50
0
 51
180.0
210
0
220
0
230
1.0
 0
ARC
 8
TOOL_0
 5
E4
 10
4152.274
 20
2550.754
 30
0
 40
35.0
 50
180.0
 51
0
210
0
220
0
230
1.0
 0
LINE
 8
TOOL_0
 5
E5
 10
4187.274
 20
2550.754
 30
0
 11
4180.203
 21
2557.825
 31
0
 0
LINE
 8
TOOL_0
 5
E6
 10
4180.203
 20
2557.825
 30
0
 11
3762.275
 21
2315.754
 31
0
 0
LINE
 8
TOOL_0
 5
E7
 10
3762.275
 20
2315.754
 30
0
 11
3792.275
 21
2315.754
 31
0
 0
LINE
 8
TOOL_0
 5
E8
 10
3792.275
 20
2315.754
 30
0
 11
3792.275
 21
2345.754
 31
0
 0
ARC
 8
TOOL_0
 5
E9
 10
3782.275
 20
2345.754
 30
0
 40
10.0
 50
0
 51
90.0
210
0
220
0
230
1.0
 0
LINE
 8
TOOL_0
 5
EA
 10
3782.275
 20
2355.754
 30
0
 11
3602.275
 21
2355.754
 31
0
 0
ARC
 8
TOOL_0
 5
EB
 10
3602.275
 20
2345.754
 30
0
 40
10.0
 50
90.0
 51
180.0
210
0
220
0
230
1.0
 0
LINE
 8
TOOL_0
 5
EC
 10
3592.275
 20
2345.754
 30
0
 11
3592.275
 21
2285.754
 31
0
 0
ARC
 8
TOOL_0
 5
ED
 10
3602.275
 20
2285.754
 30
0
 40
10.0
 50
180.0
 51
270.0
210
0
220
0
230
1.0
 0
LINE
 8
TOOL_0
 5
EE
 10
3602.275
 20
2275.754
 30
0
 11
3782.275
 21
2275.754
 31
0
 0
ARC
 8
TOOL_0
 5
EF
 10
3782.275
 20
2285.754
 30
0
 40
10.0
 50
270.0
 51
0
210
0
220
0
230
1.0
 0
LINE
 8
TOOL_0
 5
F0
 10
3792.275
 20
2285.754
 30
0
 11
3792.275
 21
2315.754
 31
0
 0
LINE
 8
TOOL_0
 5
F1
 10
3792.275
 20
2315.754
 30
0
 11
3785.204
 21
2322.825
 31
0
 0
LINE
 8
TOOL_0
 5
F2
 10
3785.204
 20
2322.825
 30
0
 11
4170.276
 21
1905.754
 31
0
 0
LINE
 8
TOOL_0
 5
F3
 10
4170.276
 20
1905.754
 30
0
 11
4200.276
 21
1905.754
 31
0
 0
ARC
 8
TOOL_0
 5
F4
 10
4180.276
 20
1905.754
 30
0
 40
20.0
 50
0
 51
66.867990902554
210
0
220
0
230
1.0
 0
LINE
 8
TOOL_0
 5
F5
 10
4188.133
 20
1924.146
 30
0
 11
4164.454
 21
1934.262
 31
0
 0
ARC
 8
TOOL_0
 5
F6
 10
4152.275
 20
1905.576
 30
0
 40
31.164316726025
 50
66.9957430162
 51
113.002564662372
210
0
220
0
230
1.0
 0
LINE
 8
TOOL_0
 5
F7
 10
4140.097
 20
1934.262
 30
0
 11
4116.418
 21
1924.146
 31
0
 0
ARC
 8
TOOL_0
 5
F8
 10
4124.275
 20
1905.754
 30
0
 40
19.999952824944
 50
113.132009097445
 51
246.867990902554
210
0
220
0
230
1.0
 0
LINE
 8
TOOL_0
 5
F9
 10
4116.418
 20
1887.362
 30
0
 11
4140.097
 21
1877.246
 31
0
 0
ARC
 8
TOOL_0
 5
FA
 10
4152.276
 20
1905.932
 30
0
 40
31.164316726025
 50
246.995743016199
 51
293.002564662372
210
0
220
0
230
1.0
 0
LINE
 8
TOOL_0
 5
FB
 10
4164.454
 20
1877.246
 30
0
 11
4188.133
 21
1887.362
 31
0
 0
ARC
 8
TOOL_0
 5
FC
 10
4180.276
 20
1905.754
 30
0
 40
19.999952824944
 50
293.132009097446
 51
0
210
0
220
0
230
1.0
 0
LINE
 8
TOOL_0
 5
FD
 10
4200.276
 20
1905.754
 30
0
 11
4193.205
 21
1912.825
 31
0
 0
LINE
 8
TOOL_0
 5
FE
 10
4193.205
 20
1912.825
 30
0
 11
3492.277
 21
117.754
 31
0
 0
LINE
 8
TOOL_0
 5
FF
 10
3492.277
 20
117.754
 30
0
 11
3522.277
 21
117.754
 31
0
 0
ARC
 8
TOOL_0
 5
100
 10
3492.277
 20
117.754
 30
0
 40
30.0
 50
0
 51
90.0
210
0
220
0
230
1.0
 0
LINE
 8
TOOL_0
 5
101
 10
3492.277
 20
147.754
 30
0
 11
3422.277
 21
147.754
 31
0
 0
ARC
 8
TOOL_0
 5
102
 10
3422.277
 20
117.754
 30
0
 40
30.0
 50
90.0
 51
180.0
210
0
220
0
230
1.0
 0
LINE
 8
TOOL_0
 5
103
 10
3392.277
 20
117.754
 30
0
 11
3392.277
 21
97.754
 31
0
 0
ARC
 8
TOOL_0
 5
104
 10
3402.277
 20
97.754
 30
0
 40
10.0
 50
180.0
 51
270.0
210
0
220
0
230
1.0
 0
LINE
 8
TOOL_0
 5
105
 10
3402.277
 20
87.754
 30
0
 11
3512.277
 21
87.754
 31
0
 0
ARC
 8
TOOL_0
 5
106
 10
3512.277
 20
97.754
 30
0
 40
10.0
 50
270.0
 51
0
210
0
220
0
230
1.0
 0
LINE
 8
TOOL_0
 5
107
 10
3522.277
 20
97.754
 30
0
 11
3522.277
 21
117.754
 31
0
 0
LINE
 8
TOOL_0
 5
108
 10
3522.277
 20
117.754
 30
0
 11
3515.206
 21
124.825
 31
0
 0
LINE
 8
TOOL_0
 5
109
 10
3515.206
 20
124.825
 30
0
 11
3572.278
 21
217.754
 31
0
 0
LINE
 8
TOOL_0
 5
10A
 10
3572.278
 20
217.754
 30
0
 11
3602.278
 21
217.754
 31
0
 0
LINE
 8
TOOL_0
 5
10B
 10
3602.278
 20
217.754
 30
0
 11
3602.278
 21
247.754
 31
0
 0
ARC
 8
TOOL_0
 5
10C
 10
3582.278
 20
247.754
 30
0
 40
20.0
 50
0
 51
90.0
210
0
220
0
230
1.0
 0
LINE
 8
TOOL_0
 5
10D
 10
3582.278
 20
267.754
 30
0
 11
3522.278
 21
267.754
 31
0
 0
ARC
 8
TOOL_0
 5
10E
 10
3522.278
 20
247.754
 30
0
 40
20.0
 50
90.0
 51
180.0
210
0
220
0
230
1.0
 0
LINE
 8
TOOL_0
 5
10F
 10
3502.278
 20
247.754
 30
0
 11
3502.278
 21
187.754
 31
0
 0
ARC
 8
TOOL_0
 5
110
 10
3522.278
 20
187.754
 30
0
 40
20.0
 50
180.0
 51
270.0
210
0
220
0
230
1.0
 0
LINE
 8
TOOL_0
 5
111
 10
3522.278
 20
167.754
 30
0
 11
3582.278
 21
167.754
 31
0
 0
ARC
 8
TOOL_0
 5
112
 10
3582.278
 20
187.754
 30
0
 40
20.0
 50
270.0
 51
0
210
0
220
0
230
1.0
 0
LINE
 8
TOOL_0
 5
113
 10
3602.278
 20
187.754
 30
0
 11
3602.278
 21
217.754
 31
0
 0
LINE
 8
TOOL_0
 5
114
 10
3602.278
 20
217.754
 30
0
 11
3595.207
 21
224.825
 31
0
 0
LINE
 8
TOOL_0
 5
115
 10
3595.207
 20
224.825
 30
0
 11
4567.279
 21
190.754
 31
0
 0
LINE
 8
TOOL_0
 5
116
 10
4567.279
 20
190.754
 30
0
 11
4597.279
 21
190.754
 31
0
 0
LINE
 8
TOOL_0
 5
117
 10
4597.279
 20
190.754
 30
0
 11
4597.279
 21
220.754
 31
0
 0
ARC
 8
TOOL_0
 5
118
 10
4577.279
 20
220.754
 30
0
 40
20.0
 50
0
 51
90.0
210
0
220
0
230
1.0
 0
LINE
 8
TOOL_0
 5
119
 10
4577.279
 20
240.754
 30
0
 11
4517.279
 21
240.754
 31
0
 0
ARC
 8
TOOL_0
 5
11A
 10
4517.279
 20
220.754
 30
0
 40
20.0
 50
90.0
 51
180.0
210
0
220
0
230
1.0
 0
LINE
 8
TOOL_0
 5
11B
 10
4497.279
 20
220.754
 30
0
 11
4497.279
 21
160.754
 31
0
 0
ARC
 8
TOOL_0
 5
11C
 10
4517.279
 20
160.754
 30
0
 40
20.0
 50
180.0
 51
270.0
210
0
220
0
230
1.0
 0
LINE
 8
TOOL_0
 5
11D
 10
4517.279
 20
140.754
 30
0
 11
4577.279
 21
140.754
 31
0
 0
ARC
 8
TOOL_0
 5
11E
 10
4577.279
 20
160.754
 30
0
 40
20.0
 50
270.0
 51
0
210
0
220
0
230
1.0
 0
LINE
 8
TOOL_0
 5
11F
 10
4597.279
 20
160.754
 30
0
 11
4597.279
 21
190.754
 31
0
 0
LINE
 8
TOOL_0
 5
120
 10
4597.279
 20
190.754
 30
0
 11
4590.208
 21
197.825
 31
0
 0
LINE
 8
TOOL_0
 5
121
 10
4590.208
 20
197.825
 30
0
 11
4592.83
 21
767.309
 31
0
 0
LINE
 8
TOOL_0
 5
122
 10
4592.83
 20
767.309
 30
0
 11
4614.694
 21
746.754
 31
0
 0
LINE
 8
TOOL_0
 5
123
 10
4614.694
 20
746.754
 30
0
 11
4623.28
 21
738.168
 31
0
 0
LINE
 8
TOOL_0
 5
124
 10
4623.28
 20
738.168
 30
0
 11
4623.28
 21
13.34
 31
0
 0
LINE
 8
TOOL_0
 5
125
 10
4623.28
 20
13.34
 30
0
 11
4614.694
 21
4.754
 31
0
 0
LINE
 8
TOOL_0
 5
126
 10
4614.694
 20
4.754
 30
0
 11
3138.28
 21
4.754
 31
0
 0
ARC
 8
TOOL_0
 5
127
 10
3138.28
 20
11.754
 30
0
 40
7.0
 50
180.0
 51
270.0
210
0
220
0
230
1.0
 0
LINE
 8
TOOL_0
 5
128
 10
3131.28
 20
11.754
 30
0
 11
3131.28
 21
2631.754
 31
0
 0
LINE
 8
TOOL_0
 5
129
 10
3131.28
 20
2631.754
 30
0
 11
4749.28
 21
2631.754
 31
0
 0
ARC
 8
TOOL_0
 5
12A
 10
4749.28
 20
2624.754
 30
0
 40
7.0
 50
0
 51
90.0
210
0
220
0
230
1.0
 0
LINE
 8
TOOL_0
 5
12B
 10
4756.28
 20
2624.754
 30
0
 11
4756.28
 21
2150.754
 31
0
 0
LINE
 8
TOOL_0
 5
12C
 10
4756.28
 20
2150.754
 30
0
 11
4608.28
 21
2150.754
 31
0
 0
LINE
 8
TOOL_0
 5
12D
 10
4608.28
 20
2150.754
 30
0
 11
4608.28
 21
2185.754
 31
0
 0
ARC
 8
TOOL_0
 5
12E
 10
4587.28
 20
2185.754
 30
0
 40
21.0
 50
0
 51
147.688053502426
210
0
220
0
230
1.0
 0
LINE
 8
TOOL_0
 5
12F
 10
4569.532
 20
2196.979
 30
0
 11
4536.222
 21
2144.31
 31
0
 0
ARC
 8
TOOL_0
 5
130
 10
4552.28
 20
2134.154
 30
0
 40
19.000097368172
 50
147.688392683242
 51
243.424159673344
210
0
220
0
230
1.0
 0
LINE
 8
TOOL_0
 5
131
 10
4543.78
 20
2117.162
 30
0
 11
4543.78
 21
1571.755
 31
0
 0
LINE
 8
TOOL_0
 5
132
 10
4543.78
 20
1571.755
 30
0
 11
4506.679
 21
1571.755
 31
0
 0
ARC
 8
TOOL_0
 5
133
 10
4501.78
 20
1572.755
 30
0
 40
5.00002009996
 50
348.463087982615
 51
90.0
210
0
220
0
230
1.0
 0
LINE
 8
TOOL_0
 5
134
 10
4501.78
 20
1577.755
 30
0
 11
4457.28
 21
1577.755
 31
0
 0
ARC
 8
TOOL_0
 5
135
 10
4457.28
 20
1378.755
 30
0
 40
199.0
 50
90.0
 51
180.0
210
0
220
0
230
1.0
 0
LINE
 8
TOOL_0
 5
136
 10
4258.28
 20
1378.755
 30
0
 11
4258.28
 21
945.755
 31
0
 0
ARC
 8
TOOL_0
 5
137
 10
4457.28
 20
945.755
 30
0
 40
199.0
 50
180.0
 51
270.0
210
0
220
0
230
1.0
 0
LINE
 8
TOOL_0
 5
138
 10
4457.28
 20
746.755
 30
0
 11
4614.694
 21
746.755
 31
0
 0
LINE
 8
TOOL_0
 5
139
 10
4614.694
 20
746.755
 30
0
 11
4619.001
 21
746.67
 31
0
 0
LINE
 8
TOOL_0
 5
13A
 10
4619.001
 20
746.67
 30
0
 11
4856.823
 21
2445.755
 31
0
 0
LINE
 8
TOOL_0
 5
13B
 10
4856.823
 20
2445.755
 30
0
 11
4886.823
 21
2445.755
 31
0
 0
LINE
 8
TOOL_0
 5
13C
 10
4886.823
 20
2445.755
 30
0
 11
4886.823
 21
2475.755
 31
0
 0
ARC
 8
TOOL_0
 5
13D
 10
4866.823
 20
2475.755
 30
0
 40
20.0
 50
0
 51
90.0
210
0
220
0
230
1.0
 0
LINE
 8
TOOL_0
 5
13E
 10
4866.823
 20
2495.755
 30
0
 11
4806.823
 21
2495.755
 31
0
 0
ARC
 8
TOOL_0
 5
13F
 10
4806.823
 20
2475.755
 30
0
 40
20.0
 50
90.0
 51
180.0
210
0
220
0
230
1.0
 0
LINE
 8
TOOL_0
 5
140
 10
4786.823
 20
2475.755
 30
0
 11
4786.823
 21
2415.755
 31
0
 0
ARC
 8
TOOL_0
 5
141
 10
4806.823
 20
2415.755
 30
0
 40
20.0
 50
180.0
 51
270.0
210
0
220
0
230
1.0
 0
LINE
 8
TOOL_0
 5
142
 10
4806.823
 20
2395.755
 30
0
 11
4866.823
 21
2395.755
 31
0
 0
ARC
 8
TOOL_0
 5
143
 10
4866.823
 20
2415.755
 30
0
 40
20.0
 50
270.0
 51
0
210
0
220
0
230
1.0
 0
LINE
 8
TOOL_0
 5
144
 10
4886.823
 20
2415.755
 30
0
 11
4886.823
 21
2445.755
 31
0
 0
LINE
 8
TOOL_0
 5
145
 10
4886.823
 20
2445.755
 30
0
 11
4879.752
 21
2452.826
 31
0
 0
LINE
 8
TOOL_0
 5
146
 10
4879.752
 20
2452.826
 30
0
 11
5961.823
 21
2528.755
 31
0
 0
LINE
 8
TOOL_0
 5
147
 10
5961.823
 20
2528.755
 30
0
 11
5991.823
 21
2528.755
 31
0
 0
LINE
 8
TOOL_0
 5
148
 10
5991.823
 20
2528.755
 30
0
 11
5991.823
 21
2538.755
 31
0
 0
ARC
 8
TOOL_0
 5
149
 10
5981.823
 20
2538.755
 30
0
 40
10.0
 50
0
 51
90.0
210
0
220
0
230
1.0
 0
LINE
 8
TOOL_0
 5
14A
 10
5981.823
 20
2548.755
 30
0
 11
5871.823
 21
2548.755
 31
0
 0
ARC
 8
TOOL_0
 5
14B
 10
5871.823
 20
2538.755
 30
0
 40
10.0
 50
90.0
 51
180.0
210
0
220
0
230
1.0
 0
LINE
 8
TOOL_0
 5
14C
 10
5861.823
 20
2538.755
 30
0
 11
5861.823
 21
2518.755
 31
0
 0
ARC
 8
TOOL_0
 5
14D
 10
5891.823
 20
2518.755
 30
0
 40
30.0
 50
180.0
 51
270.0
210
0
220
0
230
1.0
 0
LINE
 8
TOOL_0
 5
14E
 10
5891.823
 20
2488.755
 30
0
 11
5961.823
 21
2488.755
 31
0
 0
ARC
 8
TOOL_0
 5
14F
 10
5961.823
 20
2518.755
 30
0
 40
30.0
 50
270.0
 51
0
210
0
220
0
230
1.0
 0
LINE
 8
TOOL_0
 5
150
 10
5991.823
 20
2518.755
 30
0
 11
5991.823
 21
2528.755
 31
0
 0
LINE
 8
TOOL_0
 5
151
 10
5991.823
 20
2528.755
 30
0
 11
5984.752
 21
2535.826
 31
0
 0
LINE
 8
TOOL_0
 5
152
 10
5984.752
 20
2535.826
 30
0
 11
5851.823
 21
2418.755
 31
0
 0
LINE
 8
TOOL_0
 5
153
 10
5851.823
 20
2418.755
 30
0
 11
5881.823
 21
2418.755
 31
0
 0
LINE
 8
TOOL_0
 5
154
 10
5881.823
 20
2418.755
 30
0
 11
5881.823
 21
2448.755
 31
0
 0
ARC
 8
TOOL_0
 5
155
 10
5861.823
 20
2448.755
 30
0
 40
20.0
 50
0
 51
90.0
210
0
220
0
230
1.0
 0
LINE
 8
TOOL_0
 5
156
 10
5861.823
 20
2468.755
 30
0
 11
5801.823
 21
2468.755
 31
0
 0
ARC
 8
TOOL_0
 5
157
 10
5801.823
 20
2448.755
 30
0
 40
20.0
 50
90.0
 51
180.0
210
0
220
0
230
1.0
 0
LINE
 8
TOOL_0
 5
158
 10
5781.823
 20
2448.755
 30
0
 11
5781.823
 21
2388.755
 31
0
 0
ARC
 8
TOOL_0
 5
159
 10
5801.823
 20
2388.755
 30
0
 40
20.0
 50
180.0
 51
270.0
210
0
220
0
230
1.0
 0
LINE
 8
TOOL_0
 5
15A
 10
5801.823
 20
2368.755
 30
0
 11
5861.823
 21
2368.755
 31
0
 0
ARC
 8
TOOL_0
 5
15B
 10
5861.823
 20
2388.755
 30
0
 40
20.0
 50
270.0
 51
0
210
0
220
0
230
1.0
 0
LINE
 8
TOOL_0
 5
15C
 10
5881.823
 20
2388.755
 30
0
 11
5881.823
 21
2418.755
 31
0
 0
LINE
 8
TOOL_0
 5
15D
 10
5881.823
 20
2418.755
 30
0
 11
5874.752
 21
2425.826
 31
0
 0
LINE
 8
TOOL_0
 5
15E
 10
5874.752
 20
2425.826
 30
0
 11
5761.823
 21
320.755
 31
0
 0
LINE
 8
TOOL_0
 5
15F
 10
5761.823
 20
320.755
 30
0
 11
5791.823
 21
320.755
 31
0
 0
LINE
 8
TOOL_0
 5
160
 10
5791.823
 20
320.755
 30
0
 11
5791.823
 21
350.755
 31
0
 0
ARC
 8
TOOL_0
 5
161
 10
5781.823
 20
350.755
 30
0
 40
10.0
 50
0
 51
90.0
210
0
220
0
230
1.0
 0
LINE
 8
TOOL_0
 5
162
 10
5781.823
 20
360.755
 30
0
 11
5601.823
 21
360.755
 31
0
 0
ARC
 8
TOOL_0
 5
163
 10
5601.823
 20
350.755
 30
0
 40
10.0
 50
90.0
 51
180.0
210
0
220
0
230
1.0
 0
LINE
 8
TOOL_0
 5
164
 10
5591.823
 20
350.755
 30
0
 11
5591.823
 21
290.755
 31
0
 0
ARC
 8
TOOL_0
 5
165
 10
5601.823
 20
290.755
 30
0
 40
10.0
 50
180.0
 51
270.0
210
0
220
0
230
1.0
 0
LINE
 8
TOOL_0
 5
166
 10
5601.823
 20
280.755
 30
0
 11
5781.823
 21
280.755
 31
0
 0
ARC
 8
TOOL_0
 5
167
 10
5781.823
 20
290.755
 30
0
 40
10.0
 50
270.0
 51
0
210
0
220
0
230
1.0
 0
LINE
 8
TOOL_0
 5
168
 10
5791.823
 20
290.755
 30
0
 11
5791.823
 21
320.755
 31
0
 0
LINE
 8
TOOL_0
 5
169
 10
5791.823
 20
320.755
 30
0
 11
5784.752
 21
327.826
 31
0
 0
LINE
 8
TOOL_0
 5
16A
 10
5784.752
 20
327.826
 30
0
 11
5236.823
 21
85.755
 31
0
 0
LINE
 8
TOOL_0
 5
16B
 10
5236.823
 20
85.755
 30
0
 11
5266.823
 21
85.755
 31
0
 0
ARC
 8
TOOL_0
 5
16C
 10
5231.823
 20
85.755
 30
0
 40
35.0
 50
0
 51
180.0
210
0
220
0
230
1.0
 0
ARC
 8
TOOL_0
 5
16D
 10
5231.823
 20
85.755
 30
0
 40
35.0
 50
180.0
 51
0
210
0
220
0
230
1.0
 0
LINE
 8
TOOL_0
 5
16E
 10
5266.823
 20
85.755
 30
0
 11
5259.752
 21
92.826
 31
0
 0
LINE
 8
TOOL_0
 5
16F
 10
5259.752
 20
92.826
 30
0
 11
5249.823
 21
730.755
 31
0
 0
LINE
 8
TOOL_0
 5
170
 10
5249.823
 20
730.755
 30
0
 11
5279.823
 21
730.755
 31
0
 0
ARC
 8
TOOL_0
 5
171
 10
5259.823
 20
730.755
 30
0
 40
20.0
 50
0
 51
66.867990902554
210
0
220
0
230
1.0
 0
LINE
 8
TOOL_0
 5
172
 10
5267.68
 20
749.147
 30
0
 11
5244.001
 21
759.263
 31
0
 0
ARC
 8
TOOL_0
 5
173
 10
5231.822
 20
730.577
 30
0
 40
31.164316726025
 50
66.9957430162
 51
113.002564662372
210
0
220
0
230
1.0
 0
LINE
 8
TOOL_0
 5
174
 10
5219.644
 20
759.263
 30
0
 11
5195.965
 21
749.147
 31
0
 0
ARC
 8
TOOL_0
 5
175
 10
5203.822
 20
730.755
 30
0
 40
19.999952824944
 50
113.132009097445
 51
246.867990902554
210
0
220
0
230
1.0
 0
LINE
 8
TOOL_0
 5
176
 10
5195.965
 20
712.363
 30
0
 11
5219.644
 21
702.247
 31
0
 0
ARC
 8
TOOL_0
 5
177
 10
5231.823
 20
730.933
 30
0
 40
31.164316726025
 50
246.9957430162
 51
293.002564662372
210
0
220
0
230
1.0
 0
LINE
 8
TOOL_0
 5
178
 10
5244.001
 20
702.247
 30
0
 11
5267.68
 21
712.363
 31
0
 0
ARC
 8
TOOL_0
 5
179
 10
5259.823
 20
730.755
 30
0
 40
19.999952824944
 50
293.132009097446
 51
0
210
0
220
0
230
1.0
 0
LINE
 8
TOOL_0
 5
17A
 10
5279.823
 20
730.755
 30
0
 11
5272.752
 21
737.826
 31
0
 0
LINE
 8
TOOL_0
 5
17B
 10
5272.752
 20
737.826
 30
0
 11
4760.823
 21
1868.035
 31
0
 0
LINE
 8
TOOL_0
 5
17C
 10
4760.823
 20
1868.035
 30
0
 11
4760.823
 21
1898.341
 31
0
 0
LINE
 8
TOOL_0
 5
17D
 10
4760.823
 20
1898.341
 30
0
 11
4760.823
 21
2623.169
 31
0
 0
LINE
 8
TOOL_0
 5
17E
 10
4760.823
 20
2623.169
 30
0
 11
4769.409
 21
2631.755
 31
0
 0
LINE
 8
TOOL_0
 5
17F
 10
4769.409
 20
2631.755
 30
0
 11
6245.823
 21
2631.755
 31
0
 0
ARC
 8
TOOL_0
 5
180
 10
6245.823
 20
2624.755
 30
0
 40
7.0
 50
0
 51
90.0
210
0
220
0
230
1.0
 0
LINE
 8
TOOL_0
 5
181
 10
6252.823
 20
2624.755
 30
0
 11
6252.823
 21
4.755
 31
0
 0
LINE
 8
TOOL_0
 5
182
 10
6252.823
 20
4.755
 30
0
 11
4634.823
 21
4.755
 31
0
 0
ARC
 8
TOOL_0
 5
183
 10
4634.823
 20
11.755
 30
0
 40
7.0
 50
180.0
 51
270.0
210
0
220
0
230
1.0
 0
LINE
 8
TOOL_0
 5
184
 10
4627.823
 20
11.755
 30
0
 11
4627.823
 21
485.755
 31
0
 0
LINE
 8
TOOL_0
 5
185
 10
4627.823
 20
485.755
 30
0
 11
4775.823
 21
485.755
 31
0
 0
LINE
 8
TOOL_0
 5
186
 10
4775.823
 20
485.755
 30
0
 11
4775.823
 21
450.755
 31
0
 0
ARC
 8
TOOL_0
 5
187
 10
4796.823
 20
450.755
 30
0
 40
21.0
 50
180.0
 51
327.688053502426
210
0
220
0
230
1.0
 0
LINE
 8
TOOL_0
 5
188
 10
4814.571
 20
439.53
 30
0
 11
4847.881
 21
492.199
 31
0
 0
ARC
 8
TOOL_0
 5
189
 10
4831.823
 20
502.355
 30
0
 40
19.000097368172
 50
327.688392683242
 51
63.424159673344
210
0
220
0
230
1.0
 0
LINE
 8
TOOL_0
 5
18A
 10
4840.323
 20
519.347
 30
0
 11
4840.323
 21
1064.754
 31
0
 0
LINE
 8
TOOL_0
 5
18B
 10
4840.323
 20
1064.754
 30
0
 11
4877.424
 21
1064.754
 31
0
 0
ARC
 8
TOOL_0
 5
18C
 10
4882.323
 20
1063.754
 30
0
 40
5.00002009996
 50
168.463087982615
 51
270.0
210
0
220
0
230
1.0
 0
LINE
 8
TOOL_0
 5
18D
 10
4882.323
 20
1058.754
 30
0
 11
4926.823
 21
1058.754
 31
0
 0
ARC
 8
TOOL_0
 5
18E
 10
4926.823
 20
1257.754
 30
0
 40
199.0
 50
270.0
 51
359.99971208151
210
0
220
0
230
1.0
 0
LINE
 8
TOOL_0
 5
18F
 10
5125.823
 20
1257.753
 30
0
 11
5125.823
 21
1690.754
 31
0
 0
ARC
 8
TOOL_0
 5
190
 10
4926.823
 20
1690.754
 30
0
 40
199.0
 50
0
 51
90.0
210
0
220
0
230
1.0
 0
LINE
 8
TOOL_0
 5
191
 10
4926.823
 20
1889.754
 30
0
 11
4769.409
 21
1889.754
 31
0
 0
LINE
 8
TOOL_0
 5
192
 10
4769.409
 20
1889.754
 30
0
 11
4760.823
 21
1898.34
 31
0
 0
LINE
 8
TOOL_0
 5
193
 10
4760.823
 20
1898.34
 30
0
 11
4758.704
 21
1901.736
 31
0
 0
LINE
 8
TOOL_0
 5
194
 10
4758.704
 20
1901.736
 30
0
 11
7921.668
 21
1292.302
 31
0
 0
LINE
 8
TOOL_0
 5
195
 10
7921.668
 20
1292.302
 30
0
 11
7921.668
 21
1261.889
 31
0
 0
LINE
 8
TOOL_0
 5
196
 10
7921.668
 20
1261.889
 30
0
 11
7921.668
 21
866.262
 31
0
 0
ARC
 8
TOOL_0
 5
197
 10
7871.168
 20
866.262
 30
0
 40
50.5
 50
312.800454355476
 51
0
210
0
220
0
230
1.0
 0
LINE
 8
TOOL_0
 5
198
 10
7905.48
 20
829.209
 30
0
 11
7841.636
 21
770.089
 31
0
 0
ARC
 8
TOOL_0
 5
199
 10
7793.707
 20
821.886
 30
0
 40
70.569952883646
 50
271.359250757383
 51
312.778823555331
210
0
220
0
230
1.0
 0
ARC
 8
TOOL_0
 5
19A
 10
7786.168
 20
1470.123
 30
0
 40
718.846041053298
 50
269.396540503934
 51
270.734344266698
210
0
220
0
230
1.0
 0
ARC
 8
TOOL_0
 5
19B
 10
7778.601
 20
821.817
 30
0
 40
70.500000113475
 50
227.199793205599
 51
269.996749175634
210
0
220
0
230
1.0
 0
LINE
 8
TOOL_0
 5
19C
 10
7730.7
 20
770.089
 30
0
 11
7666.856
 21
829.209
 31
0
 0
ARC
 8
TOOL_0
 5
19D
 10
7701.168
 20
866.262
 30
0
 40
50.499882702834
 50
179.998865430109
 51
227.199545644524
210
0
220
0
230
1.0
 0
LINE
 8
TOOL_0
 5
19E
 10
7650.668
 20
866.263
 30
0
 11
7650.668
 21
1261.89
 31
0
 0
ARC
 8
TOOL_0
 5
19F
 10
7701.168
 20
1261.89
 30
0
 40
50.5
 50
163.999746985136
 51
180.0
210
0
220
0
230
1.0
 0
LINE
 8
TOOL_0
 5
1A0
 10
7652.624
 20
1275.81
 30
0
 11
7718.75
 21
1506.419
 31
0
 0
ARC
 8
TOOL_0
 5
1A1
 10
7671.168
 20
1520.063
 30
0
 40
49.499550098966
 50
343.999909813427
 51
0
210
0
220
0
230
1.0
 0
LINE
 8
TOOL_0
 5
1A2
 10
7720.668
 20
1520.063
 30
0
 11
7720.668
 21
2069.817
 31
0
 0
ARC
 8
TOOL_0
 5
1A3
 10
7741.168
 20
2069.817
 30
0
 40
20.5
 50
90.0
 51
180.0
210
0
220
0
230
1.0
 0
LINE
 8
TOOL_0
 5
1A4
 10
7741.168
 20
2090.317
 30
0
 11
7831.168
 21
2090.317
 31
0
 0
ARC
 8
TOOL_0
 5
1A5
 10
7831.168
 20
2069.817
 30
0
 40
20.5
 50
0
 51
90.0
210
0
220
0
230
1.0
 0
LINE
 8
TOOL_0
 5
1A6
 10
7851.668
 20
2069.817
 30
0
 11
7851.668
 21
1520.063
 31
0
 0
ARC
 8
TOOL_0
 5
1A7
 10
7901.168
 20
1520.063
 30
0
 40
49.5
 50
180.0
 51
196.000090186573
210
0
220
0
230
1.0
 0
LINE
 8
TOOL_0
 5
1A8
 10
7853.586
 20
1506.419
 30
0
 11
7919.712
 21
1275.81
 31
0
 0
ARC
 8
TOOL_0
 5
1A9
 10
7871.168
 20
1261.89
 30
0
 40
50.500359761095
 50
0
 51
16.000253014864
210
0
220
0
230
1.0
 0
LINE
 8
TOOL_0
 5
1AA
 10
7921.668
 20
1261.89
 30
0
 11
7923.126
 21
1258.594
 31
0
 0
LINE
 8
TOOL_0
 5
1AB
 10
7923.126
 20
1258.594
 30
0
 11
7283.755
 21
2550.756
 31
0
 0
LINE
 8
TOOL_0
 5
1AC
 10
7283.755
 20
2550.756
 30
0
 11
7313.755
 21
2550.756
 31
0
 0
ARC
 8
TOOL_0
 5
1AD
 10
7278.755
 20
2550.756
 30
0
 40
35.0
 50
0
 51
180.0
210
0
220
0
230
1.0
 0
ARC
 8
TOOL_0
 5
1AE
 10
7278.755
 20
2550.756
 30
0
 40
35.0
 50
180.0
 51
0
210
0
220
0
230
1.0
 0
LINE
 8
TOOL_0
 5
1AF
 10
7313.755
 20
2550.756
 30
0
 11
7306.684
 21
2557.827
 31
0
 0
LINE
 8
TOOL_0
 5
1B0
 10
7306.684
 20
2557.827
 30
0
 11
6888.755
 21
2315.756
 31
0
 0
LINE
 8
TOOL_0
 5
1B1
 10
6888.755
 20
2315.756
 30
0
 11
6918.755
 21
2315.756
 31
0
 0
LINE
 8
TOOL_0
 5
1B2
 10
6918.755
 20
2315.756
 30
0
 11
6918.755
 21
2345.756
 31
0
 0
ARC
 8
TOOL_0
 5
1B3
 10
6908.755
 20
2345.756
 30
0
 40
10.0
 50
0
 51
90.0
210
0
220
0
230
1.0
 0
LINE
 8
TOOL_0
 5
1B4
 10
6908.755
 20
2355.756
 30
0
 11
6728.755
 21
2355.756
 31
0
 0
ARC
 8
TOOL_0
 5
1B5
 10
6728.755
 20
2345.756
 30
0
 40
10.0
 50
90.0
 51
180.0
210
0
220
0
230
1.0
 0
LINE
 8
TOOL_0
 5
1B6
 10
6718.755
 20
2345.756
 30
0
 11
6718.755
 21
2285.756
 31
0
 0
ARC
 8
TOOL_0
 5
1B7
 10
6728.755
 20
2285.756
 30
0
 40
10.0
 50
180.0
 51
270.0
210
0
220
0
230
1.0
 0
LINE
 8
TOOL_0
 5
1B8
 10
6728.755
 20
2275.756
 30
0
 11
6908.755
 21
2275.756
 31
0
 0
ARC
 8
TOOL_0
 5
1B9
 10
6908.755
 20
2285.756
 30
0
 40
10.0
 50
270.0
 51
0
210
0
220
0
230
1.0
 0
LINE
 8
TOOL_0
 5
1BA
 10
6918.755
 20
2285.756
 30
0
 11
6918.755
 21
2315.756
 31
0
 0
LINE
 8
TOOL_0
 5
1BB
 10
6918.755
 20
2315.756
 30
0
 11
6911.684
 21
2322.827
 31
0
 0
LINE
 8
TOOL_0
 5
1BC
 10
6911.684
 20
2322.827
 30
0
 11
7296.755
 21
1905.756
 31
0
 0
LINE
 8
TOOL_0
 5
1BD
 10
7296.755
 20
1905.756
 30
0
 11
7326.755
 21
1905.756
 31
0
 0
ARC
 8
TOOL_0
 5
1BE
 10
7306.755
 20
1905.756
 30
0
 40
20.0
 50
0
 51
66.867990902554
210
0
220
0
230
1.0
 0
LINE
 8
TOOL_0
 5
1BF
 10
7314.612
 20
1924.148
 30
0
 11
7290.933
 21
1934.264
 31
0
 0
ARC
 8
TOOL_0
 5
1C0
 10
7278.754
 20
1905.578
 30
0
 40
31.164316726025
 50
66.9957430162
 51
113.002564662372
210
0
220
0
230
1.0
 0
LINE
 8
TOOL_0
 5
1C1
 10
7266.576
 20
1934.264
 30
0
 11
7242.897
 21
1924.148
 31
0
 0
ARC
 8
TOOL_0
 5
1C2
 10
7250.754
 20
1905.756
 30
0
 40
19.999952824944
 50
113.132009097445
 51
246.867990902554
210
0
220
0
230
1.0
 0
LINE
 8
TOOL_0
 5
1C3
 10
7242.897
 20
1887.364
 30
0
 11
7266.576
 21
1877.248
 31
0
 0
ARC
 8
TOOL_0
 5
1C4
 10
7278.755
 20
1905.934
 30
0
 40
31.164316726025
 50
246.995743016199
 51
293.002564662372
210
0
220
0
230
1.0
 0
LINE
 8
TOOL_0
 5
1C5
 10
7290.933
 20
1877.248
 30
0
 11
7314.612
 21
1887.364
 31
0
 0
ARC
 8
TOOL_0
 5
1C6
 10
7306.755
 20
1905.756
 30
0
 40
19.999952824944
 50
293.132009097446
 51
0
210
0
220
0
230
1.0
 0
LINE
 8
TOOL_0
 5
1C7
 10
7326.755
 20
1905.756
 30
0
 11
7319.684
 21
1912.827
 31
0
 0
LINE
 8
TOOL_0
 5
1C8
 10
7319.684
 20
1912.827
 30
0
 11
6618.755
 21
117.756
 31
0
 0
LINE
 8
TOOL_0
 5
1C9
 10
6618.755
 20
117.756
 30
0
 11
6648.755
 21
117.756
 31
0
 0
ARC
 8
TOOL_0
 5
1CA
 10
6618.755
 20
117.756
 30
0
 40
30.0
 50
0
 51
90.0
210
0
220
0
230
1.0
 0
LINE
 8
TOOL_0
 5
1CB
 10
6618.755
 20
147.756
 30
0
 11
6548.755
 21
147.756
 31
0
 0
ARC
 8
TOOL_0
 5
1CC
 10
6548.755
 20
117.756
 30
0
 40
30.0
 50
90.0
 51
180.0
210
0
220
0
230
1.0
 0
LINE
 8
TOOL_0
 5
1CD
 10
6518.755
 20
117.756
 30
0
 11
6518.755
 21
97.756
 31
0
 0
ARC
 8
TOOL_0
 5
1CE
 10
6528.755
 20
97.756
 30
0
 40
10.0
 50
180.0
 51
270.0
210
0
220
0
230
1.0
 0
LINE
 8
TOOL_0
 5
1CF
 10
6528.755
 20
87.756
 30
0
 11
6638.755
 21
87.756
 31
0
 0
ARC
 8
TOOL_0
 5
1D0
 10
6638.755
 20
97.756
 30
0
 40
10.0
 50
270.0
 51
0
210
0
220
0
230
1.0
 0
LINE
 8
TOOL_0
 5
1D1
 10
6648.755
 20
97.756
 30
0
 11
6648.755
 21
117.756
 31
0
 0
LINE
 8
TOOL_0
 5
1D2
 10
6648.755
 20
117.756
 30
0
 11
6641.684
 21
124.827
 31
0
 0
LINE
 8
TOOL_0
 5
1D3
 10
6641.684
 20
124.827
 30
0
 11
6698.755
 21
217.756
 31
0
 0
LINE
 8
TOOL_0
 5
1D4
 10
6698.755
 20
217.756
 30
0
 11
6728.755
 21
217.756
 31
0
 0
LINE
 8
TOOL_0
 5
1D5
 10
6728.755
 20
217.756
 30
0
 11
6728.755
 21
247.756
 31
0
 0
ARC
 8
TOOL_0
 5
1D6
 10
6708.755
 20
247.756
 30
0
 40
20.0
 50
0
 51
90.0
210
0
220
0
230
1.0
 0
LINE
 8
TOOL_0
 5
1D7
 10
6708.755
 20
267.756
 30
0
 11
6648.755
 21
267.756
 31
0
 0
ARC
 8
TOOL_0
 5
1D8
 10
6648.755
 20
247.756
 30
0
 40
20.0
 50
90.0
 51
180.0
210
0
220
0
230
1.0
 0
LINE
 8
TOOL_0
 5
1D9
 10
6628.755
 20
247.756
 30
0
 11
6628.755
 21
187.756
 31
0
 0
ARC
 8
TOOL_0
 5
1DA
 10
6648.755
 20
187.756
 30
0
 40
20.0
 50
180.0
 51
270.0
210
0
220
0
230
1.0
 0
LINE
 8
TOOL_0
 5
1DB
 10
6648.755
 20
167.756
 30
0
 11
6708.755
 21
167.756
 31
0
 0
ARC
 8
TOOL_0
 5
1DC
 10
6708.755
 20
187.756
 30
0
 40
20.0
 50
270.0
 51
0
210
0
220
0
230
1.0
 0
LINE
 8
TOOL_0
 5
1DD
 10
6728.755
 20
187.756
 30
0
 11
6728.755
 21
217.756
 31
0
 0
LINE
 8
TOOL_0
 5
1DE
 10
6728.755
 20
217.756
 30
0
 11
6721.684
 21
224.827
 31
0
 0
LINE
 8
TOOL_0
 5
1DF
 10
6721.684
 20
224.827
 30
0
 11
7693.755
 21
190.756
 31
0
 0
LINE
 8
TOOL_0
 5
1E0
 10
7693.755
 20
190.756
 30
0
 11
7723.755
 21
190.756
 31
0
 0
LINE
 8
TOOL_0
 5
1E1
 10
7723.755
 20
190.756
 30
0
 11
7723.755
 21
220.756
 31
0
 0
ARC
 8
TOOL_0
 5
1E2
 10
7703.755
 20
220.756
 30
0
 40
20.0
 50
0
 51
90.0
210
0
220
0
230
1.0
 0
LINE
 8
TOOL_0
 5
1E3
 10
7703.755
 20
240.756
 30
0
 11
7643.755
 21
240.756
 31
0
 0
ARC
 8
TOOL_0
 5
1E4
 10
7643.755
 20
220.756
 30
0
 40
20.0
 50
90.0
 51
180.0
210
0
220
0
230
1.0
 0
LINE
 8
TOOL_0
 5
1E5
 10
7623.755
 20
220.756
 30
0
 11
7623.755
 21
160.756
 31
0
 0
ARC
 8
TOOL_0
 5
1E6
 10
7643.755
 20
160.756
 30
0
 40
20.0
 50
180.0
 51
270.0
210
0
220
0
230
1.0
 0
LINE
 8
TOOL_0
 5
1E7
 10
7643.755
 20
140.756
 30
0
 11
7703.755
 21
140.756
 31
0
 0
ARC
 8
TOOL_0
 5
1E8
 10
7703.755
 20
160.756
 30
0
 40
20.0
 50
270.0
 51
0
210
0
220
0
230
1.0
 0
LINE
 8
TOOL_0
 5
1E9
 10
7723.755
 20
160.756
 30
0
 11
7723.755
 21
190.756
 31
0
 0
LINE
 8
TOOL_0
 5
1EA
 10
7723.755
 20
190.756
 30
0
 11
7716.684
 21
197.827
 31
0
 0
LINE
 8
TOOL_0
 5
1EB
 10
7716.684
 20
197.827
 30
0
 11
7719.306
 21
767.311
 31
0
 0
LINE
 8
TOOL_0
 5
1EC
 10
7719.306
 20
767.311
 30
0
 11
7741.169
 21
746.756
 31
0
 0
LINE
 8
TOOL_0
 5
1ED
 10
7741.169
 20
746.756
 30
0
 11
7749.755
 21
738.17
 31
0
 0
LINE
 8
TOOL_0
 5
1EE
 10
7749.755
 20
738.17
 30
0
 11
7749.755
 21
13.342
 31
0
 0
LINE
 8
TOOL_0
 5
1EF
 10
7749.755
 20
13.342
 30
0
 11
7741.169
 21
4.756
 31
0
 0
LINE
 8
TOOL_0
 5
1F0
 10
7741.169
 20
4.756
 30
0
 11
6264.755
 21
4.756
 31
0
 0
ARC
 8
TOOL_0
 5
1F1
 10
6264.755
 20
11.756
 30
0
 40
7.0
 50
180.0
 51
270.0
210
0
220
0
230
1.0
 0
LINE
 8
TOOL_0
 5
1F2
 10
6257.755
 20
11.756
 30
0
 11
6257.755
 21
2631.756
 31
0
 0
LINE
 8
TOOL_0
 5
1F3
 10
6257.755
 20
2631.756
 30
0
 11
7875.755
 21
2631.756
 31
0
 0
ARC
 8
TOOL_0
 5
1F4
 10
7875.755
 20
2624.756
 30
0
 40
7.0
 50
0
 51
90.0
210
0
220
0
230
1.0
 0
LINE
 8
TOOL_0
 5
1F5
 10
7882.755
 20
2624.756
 30
0
 11
7882.755
 21
2150.756
 31
0
 0
LINE
 8
TOOL_0
 5
1F6
 10
7882.755
 20
2150.756
 30
0
 11
7734.755
 21
2150.756
 31
0
 0
LINE
 8
TOOL_0
 5
1F7
 10
7734.755
 20
2150.756
 30
0
 11
7734.755
 21
2185.756
 31
0
 0
ARC
 8
TOOL_0
 5
1F8
 10
7713.755
 20
2185.756
 30
0
 40
21.0
 50
0
 51
147.688053502426
210
0
220
0
230
1.0
 0
LINE
 8
TOOL_0
 5
1F9
 10
7696.007
 20
2196.981
 30
0
 11
7662.697
 21
2144.312
 31
0
 0
ARC
 8
TOOL_0
 5
1FA
 10
7678.755
 20
2134.156
 30
0
 40
19.000097368172
 50
147.688392683242
 51
243.424159673344
210
0
220
0
230
1.0
 0
LINE
 8
TOOL_0
 5
1FB
 10
7670.255
 20
2117.164
 30
0
 11
7670.255
 21
1571.757
 31
0
 0
LINE
 8
TOOL_0
 5
1FC
 10
7670.255
 20
1571.757
 30
0
 11
7633.154
 21
1571.757
 31
0
 0
ARC
 8
TOOL_0
 5
1FD
 10
7628.255
 20
1572.757
 30
0
 40
5.00002009996
 50
348.463087982615
 51
90.0
210
0
220
0
230
1.0
 0
LINE
 8
TOOL_0
 5
1FE
 10
7628.255
 20
1577.757
 30
0
 11
7583.755
 21
1577.757
 31
0
 0
ARC
 8
TOOL_0
 5
1FF
 10
7583.755
 20
1378.757
 30
0
 40
199.0
 50
90.0
 51
180.0
210
0
220
0
230
1.0
 0
LINE
 8
TOOL_0
 5
200
 10
7384.755
 20
1378.757
 30
0
 11
7384.755
 21
945.757
 31
0
 0
ARC
 8
TOOL_0
 5
201
 10
7583.755
 20
945.757
 30
0
 40
199.0
 50
180.0
 51
270.0
210
0
220
0
230
1.0
 0
LINE
 8
TOOL_0
 5
202
 10
7583.755
 20
746.757
 30
0
 11
7741.169
 21
746.757
 31
0
 0
LINE
 8
TOOL_0
 5
203
 10
7741.169
 20
746.757
 30
0
 11
7745.476
 21
746.672
 31
0
 0
LINE
 8
TOOL_0
 5
204
 10
7745.476
 20
746.672
 30
0
 11
9088.298
 21
2528.757
 31
0
 0
LINE
 8
TOOL_0
 5
205
 10
9088.298
 20
2528.757
 30
0
 11
9118.298
 21
2528.757
 31
0
 0
LINE
 8
TOOL_0
 5
206
 10
9118.298
 20
2528.757
 30
0
 11
9118.298
 21
2538.757
 31
0
 0
ARC
 8
TOOL_0
 5
207
 10
9108.298
 20
2538.757
 30
0
 40
10.0
 50
0
 51
90.0
210
0
220
0
230
1.0
 0
LINE
 8
TOOL_0
 5
208
 10
9108.298
 20
2548.757
 30
0
 11
8998.298
 21
2548.757
 31
0
 0
ARC
 8
TOOL_0
 5
209
 10
8998.298
 20
2538.757
 30
0
 40
10.0
 50
90.0
 51
180.0
210
0
220
0
230
1.0
 0
LINE
 8
TOOL_0
 5
20A
 10
8988.298
 20
2538.757
 30
0
 11
8988.298
 21
2518.757
 31
0
 0
ARC
 8
TOOL_0
 5
20B
 10
9018.298
 20
2518.757
 30
0
 40
30.0
 50
180.0
 51
270.0
210
0
220
0
230
1.0
 0
LINE
 8
TOOL_0
 5
20C
 10
9018.298
 20
2488.757
 30
0
 11
9088.298
 21
2488.757
 31
0
 0
ARC
 8
TOOL_0
 5
20D
 10
9088.298
 20
2518.757
 30
0
 40
30.0
 50
270.0
 51
0
210
0
220
0
230
1.0
 0
LINE
 8
TOOL_0
 5
20E
 10
9118.298
 20
2518.757
 30
0
 11
9118.298
 21
2528.757
 31
0
 0
LINE
 8
TOOL_0
 5
20F
 10
9118.298
 20
2528.757
 30
0
 11
9111.227
 21
2535.828
 31
0
 0
LINE
 8
TOOL_0
 5
210
 10
9111.227
 20
2535.828
 30
0
 11
8978.298
 21
2418.757
 31
0
 0
LINE
 8
TOOL_0
 5
211
 10
8978.298
 20
2418.757
 30
0
 11
9008.298
 21
2418.757
 31
0
 0
LINE
 8
TOOL_0
 5
212
 10
9008.298
 20
2418.757
 30
0
 11
9008.298
 21
2448.757
 31
0
 0
ARC
 8
TOOL_0
 5
213
 10
8988.298
 20
2448.757
 30
0
 40
20.0
 50
0
 51
90.0
210
0
220
0
230
1.0
 0
LINE
 8
TOOL_0
 5
214
 10
8988.298
 20
2468.757
 30
0
 11
8928.298
 21
2468.757
 31
0
 0
ARC
 8
TOOL_0
 5
215
 10
8928.298
 20
2448.757
 30
0
 40
20.0
 50
90.0
 51
180.0
210
0
220
0
230
1.0
 0
LINE
 8
TOOL_0
 5
216
 10
8908.298
 20
2448.757
 30
0
 11
8908.298
 21
2388.757
 31
0
 0
ARC
 8
TOOL_0
 5
217
 10
8928.298
 20
2388.757
 30
0
 40
20.0
 50
180.0
 51
270.0
210
0
220
0
230
1.0
 0
LINE
 8
TOOL_0
 5
218
 10
8928.298
 20
2368.757
 30
0
 11
8988.298
 21
2368.757
 31
0
 0
ARC
 8
TOOL_0
 5
219
 10
8988.298
 20
2388.757
 30
0
 40
20.0
 50
270.0
 51
0
210
0
220
0
230
1.0
 0
LINE
 8
TOOL_0
 5
21A
 10
9008.298
 20
2388.757
 30
0
 11
9008.298
 21
2418.757
 31
0
 0
LINE
 8
TOOL_0
 5
21B
 10
9008.298
 20
2418.757
 30
0
 11
9001.227
 21
2425.828
 31
0
 0
LINE
 8
TOOL_0
 5
21C
 10
9001.227
 20
2425.828
 30
0
 11
7983.298
 21
2445.757
 31
0
 0
LINE
 8
TOOL_0
 5
21D
 10
7983.298
 20
2445.757
 30
0
 11
8013.298
 21
2445.757
 31
0
 0
LINE
 8
TOOL_0
 5
21E
 10
8013.298
 20
2445.757
 30
0
 11
8013.298
 21
2475.757
 31
0
 0
ARC
 8
TOOL_0
 5
21F
 10
7993.298
 20
2475.757
 30
0
 40
20.0
 50
0
 51
90.0
210
0
220
0
230
1.0
 0
LINE
 8
TOOL_0
 5
220
 10
7993.298
 20
2495.757
 30
0
 11
7933.298
 21
2495.757
 31
0
 0
ARC
 8
TOOL_0
 5
221
 10
7933.298
 20
2475.757
 30
0
 40
20.0
 50
90.0
 51
180.0
210
0
220
0
230
1.0
 0
LINE
 8
TOOL_0
 5
222
 10
7913.298
 20
2475.757
 30
0
 11
7913.298
 21
2415.757
 31
0
 0
ARC
 8
TOOL_0
 5
223
 10
7933.298
 20
2415.757
 30
0
 40
20.0
 50
180.0
 51
270.0
210
0
220
0
230
1.0
 0
LINE
 8
TOOL_0
 5
224
 10
7933.298
 20
2395.757
 30
0
 11
7993.298
 21
2395.757
 31
0
 0
ARC
 8
TOOL_0
 5
225
 10
7993.298
 20
2415.757
 30
0
 40
20.0
 50
270.0
 51
0
210
0
220
0
230
1.0
 0
LINE
 8
TOOL_0
 5
226
 10
8013.298
 20
2415.757
 30
0
 11
8013.298
 21
2445.757
 31
0
 0
LINE
 8
TOOL_0
 5
227
 10
8013.298
 20
2445.757
 30
0
 11
8006.227
 21
2452.828
 31
0
 0
LINE
 8
TOOL_0
 5
228
 10
8006.227
 20
2452.828
 30
0
 11
8376.298
 21
730.757
 31
0
 0
LINE
 8
TOOL_0
 5
229
 10
8376.298
 20
730.757
 30
0
 11
8406.298
 21
730.757
 31
0
 0
ARC
 8
TOOL_0
 5
22A
 10
8386.298
 20
730.757
 30
0
 40
20.0
 50
0
 51
66.867990902554
210
0
220
0
230
1.0
 0
LINE
 8
TOOL_0
 5
22B
 10
8394.155
 20
749.149
 30
0
 11
8370.476
 21
759.265
 31
0
 0
ARC
 8
TOOL_0
 5
22C
 10
8358.297
 20
730.579
 30
0
 40
31.164316726025
 50
66.9957430162
 51
113.002564662372
210
0
220
0
230
1.0
 0
LINE
 8
TOOL_0
 5
22D
 10
8346.119
 20
759.265
 30
0
 11
8322.44
 21
749.149
 31
0
 0
ARC
 8
TOOL_0
 5
22E
 10
8330.297
 20
730.757
 30
0
 40
19.999952824944
 50
113.132009097445
 51
246.867990902554
210
0
220
0
230
1.0
 0
LINE
 8
TOOL_0
 5
22F
 10
8322.44
 20
712.365
 30
0
 11
8346.119
 21
702.249
 31
0
 0
ARC
 8
TOOL_0
 5
230
 10
8358.298
 20
730.935
 30
0
 40
31.164316726025
 50
246.9957430162
 51
293.002564662372
210
0
220
0
230
1.0
 0
LINE
 8
TOOL_0
 5
231
 10
8370.476
 20
702.249
 30
0
 11
8394.155
 21
712.365
 31
0
 0
ARC
 8
TOOL_0
 5
232
 10
8386.298
 20
730.757
 30
0
 40
19.999952824944
 50
293.132009097446
 51
0
210
0
220
0
230
1.0
 0
LINE
 8
TOOL_0
 5
233
 10
8406.298
 20
730.757
 30
0
 11
8399.227
 21
737.828
 31
0
 0
LINE
 8
TOOL_0
 5
234
 10
8399.227
 20
737.828
 30
0
 11
8363.298
 21
85.757
 31
0
 0
LINE
 8
TOOL_0
 5
235
 10
8363.298
 20
85.757
 30
0
 11
8393.298
 21
85.757
 31
0
 0
ARC
 8
TOOL_0
 5
236
 10
8358.298
 20
85.757
 30
0
 40
35.0
 50
0
 51
180.0
210
0
220
0
230
1.0
 0
ARC
 8
TOOL_0
 5
237
 10
8358.298
 20
85.757
 30
0
 40
35.0
 50
180.0
 51
0
210
0
220
0
230
1.0
 0
LINE
 8
TOOL_0
 5
238
 10
8393.298
 20
85.757
 30
0
 11
8386.227
 21
92.828
 31
0
 0
LINE
 8
TOOL_0
 5
239
 10
8386.227
 20
92.828
 30
0
 11
8888.298
 21
320.757
 31
0
 0
LINE
 8
TOOL_0
 5
23A
 10
8888.298
 20
320.757
 30
0
 11
8918.298
 21
320.757
 31
0
 0
LINE
 8
TOOL_0
 5
23B
 10
8918.298
 20
320.757
 30
0
 11
8918.298
 21
350.757
 31
0
 0
ARC
 8
TOOL_0
 5
23C
 10
8908.298
 20
350.757
 30
0
 40
10.0
 50
0
 51
90.0
210
0
220
0
230
1.0
 0
LINE
 8
TOOL_0
 5
23D
 10
8908.298
 20
360.757
 30
0
 11
8728.298
 21
360.757
 31
0
 0
ARC
 8
TOOL_0
 5
23E
 10
8728.298
 20
350.757
 30
0
 40
10.0
 50
90.0
 51
180.0
210
0
220
0
230
1.0
 0
LINE
 8
TOOL_0
 5
23F
 10
8718.298
 20
350.757
 30
0
 11
8718.298
 21
290.757
 31
0
 0
ARC
 8
TOOL_0
 5
240
 10
8728.298
 20
290.757
 30
0
 40
10.0
 50
180.0
 51
270.0
210
0
220
0
230
1.0
 0
LINE
 8
TOOL_0
 5
241
 10
8728.298
 20
280.757
 30
0
 11
8908.298
 21
280.757
 31
0
 0
ARC
 8
TOOL_0
 5
242
 10
8908.298
 20
290.757
 30
0
 40
10.0
 50
270.0
 51
0
210
0
220
0
230
1.0
 0
LINE
 8
TOOL_0
 5
243
 10
8918.298
 20
290.757
 30
0
 11
8918.298
 21
320.757
 31
0
 0
LINE
 8
TOOL_0
 5
244
 10
8918.298
 20
320.757
 30
0
 11
8911.227
 21
327.828
 31
0
 0
LINE
 8
TOOL_0
 5
245
 10
8911.227
 20
327.828
 30
0
 11
7887.298
 21
1868.037
 31
0
 0
LINE
 8
TOOL_0
 5
246
 10
7887.298
 20
1868.037
 30
0
 11
7887.298
 21
1898.343
 31
0
 0
LINE
 8
TOOL_0
 5
247
 10
7887.298
 20
1898.343
 30
0
 11
7887.298
 21
2623.171
 31
0
 0
LINE
 8
TOOL_0
 5
248
 10
7887.298
 20
2623.171
 30
0
 11
7895.884
 21
2631.757
 31
0
 0
LINE
 8
TOOL_0
 5
249
 10
7895.884
 20
2631.757
 30
0
 11
9372.298
 21
2631.757
 31
0
 0
ARC
 8
TOOL_0
 5
24A
 10
9372.298
 20
2624.757
 30
0
 40
7.0
 50
0
 51
90.0
210
0
220
0
230
1.0
 0
LINE
 8
TOOL_0
 5
24B
 10
9379.298
 20
2624.757
 30
0
 11
9379.298
 21
4.757
 31
0
 0
LINE
 8
TOOL_0
 5
24C
 10
9379.298
 20
4.757
 30
0
 11
7761.298
 21
4.757
 31
0
 0
ARC
 8
TOOL_0
 5
24D
 10
7761.298
 20
11.757
 30
0
 40
7.0
 50
180.0
 51
270.0
210
0
220
0
230
1.0
 0
LINE
 8
TOOL_0
 5
24E
 10
7754.298
 20
11.757
 30
0
 11
7754.298
 21
485.757
 31
0
 0
LINE
 8
TOOL_0
 5
24F
 10
7754.298
 20
485.757
 30
0
 11
7902.298
 21
485.757
 31
0
 0
LINE
 8
TOOL_0
 5
250
 10
7902.298
 20
485.757
 30
0
 11
7902.298
 21
450.757
 31
0
 0
ARC
 8
TOOL_0
 5
251
 10
7923.298
 20
450.757
 30
0
 40
21.0
 50
180.0
 51
327.688053502426
210
0
220
0
230
1.0
 0
LINE
 8
TOOL_0
 5
252
 10
7941.046
 20
439.532
 30
0
 11
7974.356
 21
492.201
 31
0
 0
ARC
 8
TOOL_0
 5
253
 10
7958.298
 20
502.357
 30
0
 40
19.000097368172
 50
327.688392683242
 51
63.424159673344
210
0
220
0
230
1.0
 0
LINE
 8
TOOL_0
 5
254
 10
7966.798
 20
519.349
 30
0
 11
7966.798
 21
1064.756
 31
0
 0
LINE
 8
TOOL_0
 5
255
 10
7966.798
 20
1064.756
 30
0
 11
8003.899
 21
1064.756
 31
0
 0
ARC
 8
TOOL_0
 5
256
 10
8008.798
 20
1063.756
 30
0
 40
5.00002009996
 50
168.463087982615
 51
270.0
210
0
220
0
230
1.0
 0
LINE
 8
TOOL_0
 5
257
 10
8008.798
 20
1058.756
 30
0
 11
8053.298
 21
1058.756
 31
0
 0
ARC
 8
TOOL_0
 5
258
 10
8053.298
 20
1257.756
 30
0
 40
199.0
 50
270.0
 51
359.99971208151
210
0
220
0
230
1.0
 0
LINE
 8
TOOL_0
 5
259
 10
8252.298
 20
1257.755
 30
0
 11
8252.298
 21
1690.756
 31
0
 0
ARC
 8
TOOL_0
 5
25A
 10
8053.298
 20
1690.756
 30
0
 40
199.0
 50
0
 51
90.0
210
0
220
0
230
1.0
 0
LINE
 8
TOOL_0
 5
25B
 10
8053.298
 20
1889.756
 30
0
 11
7895.884
 21
1889.756
 31
0
 0
LINE
 8
TOOL_0
 5
25C
 10
7895.884
 20
1889.756
 30
0
 11
7887.298
 21
1898.342
 31
0
 0
LINE
 8
TOOL_0
 5
25D
 10
7887.298
 20
1898.342
 30
0
 11
7885.179
 21
1901.738
 31
0
 0
ENDSEC
 0
EOF

