0
SECTION
2
TABLES
0
TABLE
2
LAYER
70
0
0
LAYER
2
LAYER_NAME
70
0
62
1
6
CONTINUOUS
0
ENDTAB
0
ENDSEC
 0
SECTION
 2
ENTITIES
 0
LINE
 8
TOOL_0
 5
1
 10
8458.166
 20
69.49
 30
0
 11
8458.166
 21
21.065
 31
0
 0
LINE
 8
TOOL_0
 5
2
 10
8458.166
 20
21.065
 30
0
 11
8430.442
 21
20.353
 31
0
 0
LINE
 8
TOOL_0
 5
3
 10
8430.442
 20
20.353
 30
0
 11
20.442
 21
20.353
 31
0
 0
LINE
 8
TOOL_0
 5
4
 10
20.442
 20
20.353
 30
0
 11
20.442
 21
200.353
 31
0
 0
LINE
 8
TOOL_0
 5
5
 10
20.442
 20
200.353
 30
0
 11
8430.442
 21
200.353
 31
0
 0
LINE
 8
TOOL_0
 5
6
 10
8430.442
 20
200.353
 30
0
 11
8430.442
 21
20.353
 31
0
 0
LINE
 8
TOOL_0
 5
7
 10
8430.442
 20
20.353
 30
0
 11
8430.442
 21
7.671
 31
0
 0
LINE
 8
TOOL_0
 5
8
 10
8430.442
 20
7.671
 30
0
 11
8458.167
 21
269.581
 31
0
 0
LINE
 8
TOOL_0
 5
9
 10
8458.167
 20
269.581
 30
0
 11
8458.167
 21
221.157
 31
0
 0
LINE
 8
TOOL_0
 5
A
 10
8458.167
 20
221.157
 30
0
 11
8430.443
 21
220.445
 31
0
 0
LINE
 8
TOOL_0
 5
B
 10
8430.443
 20
220.445
 30
0
 11
20.443
 21
220.445
 31
0
 0
LINE
 8
TOOL_0
 5
C
 10
20.443
 20
220.445
 30
0
 11
20.443
 21
400.445
 31
0
 0
LINE
 8
TOOL_0
 5
D
 10
20.443
 20
400.445
 30
0
 11
8430.443
 21
400.445
 31
0
 0
LINE
 8
TOOL_0
 5
E
 10
8430.443
 20
400.445
 30
0
 11
8430.443
 21
220.445
 31
0
 0
LINE
 8
TOOL_0
 5
F
 10
8430.443
 20
220.445
 30
0
 11
8430.443
 21
207.763
 31
0
 0
LINE
 8
TOOL_0
 5
10
 10
8430.443
 20
207.763
 30
0
 11
8458.854
 21
469.672
 31
0
 0
LINE
 8
TOOL_0
 5
11
 10
8458.854
 20
469.672
 30
0
 11
8458.854
 21
421.248
 31
0
 0
LINE
 8
TOOL_0
 5
12
 10
8458.854
 20
421.248
 30
0
 11
8431.13
 21
420.536
 31
0
 0
LINE
 8
TOOL_0
 5
13
 10
8431.13
 20
420.536
 30
0
 11
21.13
 21
420.536
 31
0
 0
LINE
 8
TOOL_0
 5
14
 10
21.13
 20
420.536
 30
0
 11
21.13
 21
600.536
 31
0
 0
LINE
 8
TOOL_0
 5
15
 10
21.13
 20
600.536
 30
0
 11
8431.13
 21
600.536
 31
0
 0
LINE
 8
TOOL_0
 5
16
 10
8431.13
 20
600.536
 30
0
 11
8431.13
 21
420.536
 31
0
 0
LINE
 8
TOOL_0
 5
17
 10
8431.13
 20
420.536
 30
0
 11
8431.13
 21
407.854
 31
0
 0
LINE
 8
TOOL_0
 5
18
 10
8431.13
 20
407.854
 30
0
 11
8458.165
 21
669.764
 31
0
 0
LINE
 8
TOOL_0
 5
19
 10
8458.165
 20
669.764
 30
0
 11
8458.165
 21
621.339
 31
0
 0
LINE
 8
TOOL_0
 5
1A
 10
8458.165
 20
621.339
 30
0
 11
8430.441
 21
620.627
 31
0
 0
LINE
 8
TOOL_0
 5
1B
 10
8430.441
 20
620.627
 30
0
 11
20.441
 21
620.627
 31
0
 0
LINE
 8
TOOL_0
 5
1C
 10
20.441
 20
620.627
 30
0
 11
20.441
 21
800.627
 31
0
 0
LINE
 8
TOOL_0
 5
1D
 10
20.441
 20
800.627
 30
0
 11
8430.441
 21
800.627
 31
0
 0
LINE
 8
TOOL_0
 5
1E
 10
8430.441
 20
800.627
 30
0
 11
8430.441
 21
620.627
 31
0
 0
LINE
 8
TOOL_0
 5
1F
 10
8430.441
 20
620.627
 30
0
 11
8430.441
 21
607.945
 31
0
 0
LINE
 8
TOOL_0
 5
20
 10
8430.441
 20
607.945
 30
0
 11
8580.963
 21
0
 31
0
 0
LINE
 8
TOOL_0
 5
21
 10
8580.963
 20
0
 30
0
 11
8580.963
 21
1.0
 31
0
 0
LINE
 8
TOOL_0
 5
22
 10
8580.963
 20
1.0
 30
0
 11
8580.963
 21
0
 31
0
 0
LINE
 8
TOOL_0
 5
23
 10
8580.963
 20
0
 30
0
 11
8580.963
 21
1.0
 31
0
 0
LINE
 8
TOOL_0
 5
24
 10
8580.963
 20
1.0
 30
0
 11
8580.963
 21
877.834
 31
0
 0
LINE
 8
TOOL_0
 5
25
 10
8580.963
 20
877.834
 30
0
 11
0.999
 21
877.834
 31
0
 0
LINE
 8
TOOL_0
 5
26
 10
0.999
 20
877.834
 30
0
 11
-0.001
 21
877.834
 31
0
 0
ENDSEC
 0
EOF

