0
SECTION
2
TABLES
0
TABLE
2
LAYER
70
0
0
LAYER
2
LAYER_NAME
70
0
62
1
6
CONTINUOUS
0
ENDTAB
0
ENDSEC
 0
SECTION
 2
ENTITIES
 0
LINE
 8
TOOL_0
 5
1
 10
612.35
 20
227.351
 30
0
 11
657.35
 21
227.351
 31
0
 0
LINE
 8
TOOL_0
 5
2
 10
657.35
 20
227.351
 30
0
 11
657.35
 21
292.351
 31
0
 0
ARC
 8
TOOL_0
 5
3
 10
622.35
 20
292.351
 30
0
 40
35.0
 50
0
 51
90.0
210
0
220
0
230
1.0
 0
LINE
 8
TOOL_0
 5
4
 10
622.35
 20
327.351
 30
0
 11
292.35
 21
327.351
 31
0
 0
ARC
 8
TOOL_0
 5
5
 10
292.35
 20
292.351
 30
0
 40
35.0
 50
90.0
 51
180.0
210
0
220
0
230
1.0
 0
LINE
 8
TOOL_0
 5
6
 10
257.35
 20
292.351
 30
0
 11
257.35
 21
162.351
 31
0
 0
ARC
 8
TOOL_0
 5
7
 10
292.35
 20
162.351
 30
0
 40
35.0
 50
180.0
 51
270.0
210
0
220
0
230
1.0
 0
LINE
 8
TOOL_0
 5
8
 10
292.35
 20
127.351
 30
0
 11
622.35
 21
127.351
 31
0
 0
ARC
 8
TOOL_0
 5
9
 10
622.35
 20
162.351
 30
0
 40
35.0
 50
270.0
 51
0
210
0
220
0
230
1.0
 0
LINE
 8
TOOL_0
 5
A
 10
657.35
 20
162.351
 30
0
 11
657.35
 21
227.351
 31
0
 0
LINE
 8
TOOL_0
 5
B
 10
657.35
 20
227.351
 30
0
 11
377.35
 21
723.851
 31
0
 0
LINE
 8
TOOL_0
 5
C
 10
377.35
 20
723.851
 30
0
 11
422.35
 21
723.851
 31
0
 0
LINE
 8
TOOL_0
 5
D
 10
422.35
 20
723.851
 30
0
 11
422.35
 21
856.351
 31
0
 0
ARC
 8
TOOL_0
 5
E
 10
387.35
 20
856.351
 30
0
 40
35.0
 50
0
 51
90.0
210
0
220
0
230
1.0
 0
LINE
 8
TOOL_0
 5
F
 10
387.35
 20
891.351
 30
0
 11
232.35
 21
891.351
 31
0
 0
ARC
 8
TOOL_0
 5
10
 10
232.35
 20
856.351
 30
0
 40
35.0
 50
90.0
 51
180.0
210
0
220
0
230
1.0
 0
LINE
 8
TOOL_0
 5
11
 10
197.35
 20
856.351
 30
0
 11
197.35
 21
591.351
 31
0
 0
ARC
 8
TOOL_0
 5
12
 10
232.35
 20
591.351
 30
0
 40
35.0
 50
180.0
 51
270.0
210
0
220
0
230
1.0
 0
LINE
 8
TOOL_0
 5
13
 10
232.35
 20
556.351
 30
0
 11
387.35
 21
556.351
 31
0
 0
ARC
 8
TOOL_0
 5
14
 10
387.35
 20
591.351
 30
0
 40
35.0
 50
270.0
 51
0
210
0
220
0
230
1.0
 0
LINE
 8
TOOL_0
 5
15
 10
422.35
 20
591.351
 30
0
 11
422.35
 21
723.851
 31
0
 0
LINE
 8
TOOL_0
 5
16
 10
422.35
 20
723.851
 30
0
 11
992.35
 21
743.851
 31
0
 0
LINE
 8
TOOL_0
 5
17
 10
992.35
 20
743.851
 30
0
 11
1037.35
 21
743.851
 31
0
 0
LINE
 8
TOOL_0
 5
18
 10
1037.35
 20
743.851
 30
0
 11
1037.35
 21
856.351
 31
0
 0
ARC
 8
TOOL_0
 5
19
 10
1002.35
 20
856.351
 30
0
 40
35.0
 50
0
 51
90.0
210
0
220
0
230
1.0
 0
LINE
 8
TOOL_0
 5
1A
 10
1002.35
 20
891.351
 30
0
 11
847.35
 21
891.351
 31
0
 0
ARC
 8
TOOL_0
 5
1B
 10
847.35
 20
856.351
 30
0
 40
35.0
 50
90.0
 51
180.0
210
0
220
0
230
1.0
 0
LINE
 8
TOOL_0
 5
1C
 10
812.35
 20
856.351
 30
0
 11
812.35
 21
631.351
 31
0
 0
ARC
 8
TOOL_0
 5
1D
 10
847.35
 20
631.351
 30
0
 40
35.0
 50
180.0
 51
270.0
210
0
220
0
230
1.0
 0
LINE
 8
TOOL_0
 5
1E
 10
847.35
 20
596.351
 30
0
 11
1002.35
 21
596.351
 31
0
 0
ARC
 8
TOOL_0
 5
1F
 10
1002.35
 20
631.351
 30
0
 40
35.0
 50
270.0
 51
0
210
0
220
0
230
1.0
 0
LINE
 8
TOOL_0
 5
20
 10
1037.35
 20
631.351
 30
0
 11
1037.35
 21
743.851
 31
0
 0
LINE
 8
TOOL_0
 5
21
 10
1037.35
 20
743.851
 30
0
 11
2354.551
 21
17.372
 31
0
 0
LINE
 8
TOOL_0
 5
22
 10
2354.551
 20
17.372
 30
0
 11
2308.1
 21
6.601
 31
0
 0
LINE
 8
TOOL_0
 5
23
 10
2308.1
 20
6.601
 30
0
 11
146.906
 21
6.601
 31
0
 0
ARC
 8
TOOL_0
 5
24
 10
138.673
 20
2.323
 30
0
 40
9.278123355507
 50
27.457118346913
 51
89.895017551014
210
0
220
0
230
1.0
 0
LINE
 8
TOOL_0
 5
25
 10
138.69
 20
11.601
 30
0
 11
17.04
 21
11.601
 31
0
 0
LINE
 8
TOOL_0
 5
26
 10
17.04
 20
11.601
 30
0
 11
6.601
 21
22.04
 31
0
 0
LINE
 8
TOOL_0
 5
27
 10
6.601
 20
22.04
 30
0
 11
6.601
 21
93.101
 31
0
 0
LINE
 8
TOOL_0
 5
28
 10
6.601
 20
93.101
 30
0
 11
27.351
 21
93.101
 31
0
 0
ARC
 8
TOOL_0
 5
29
 10
27.351
 20
172.351
 30
0
 40
79.25
 50
270.0
 51
90.0
210
0
220
0
230
1.0
 0
LINE
 8
TOOL_0
 5
2A
 10
27.351
 20
251.601
 30
0
 11
6.601
 21
251.601
 31
0
 0
LINE
 8
TOOL_0
 5
2B
 10
6.601
 20
251.601
 30
0
 11
6.601
 21
779.512
 31
0
 0
LINE
 8
TOOL_0
 5
2C
 10
6.601
 20
779.512
 30
0
 11
102.408
 21
992.683
 31
0
 0
ARC
 8
TOOL_0
 5
2D
 10
194.29
 20
951.352
 30
0
 40
100.749955260536
 50
90.0
 51
155.780500473632
210
0
220
0
230
1.0
 0
LINE
 8
TOOL_0
 5
2E
 10
194.29
 20
1052.102
 30
0
 11
1144.632
 21
1052.102
 31
0
 0
LINE
 8
TOOL_0
 5
2F
 10
1144.632
 20
1052.102
 30
0
 11
1996.963
 21
865.187
 31
0
 0
ARC
 8
TOOL_0
 5
30
 10
2018.276
 20
962.964
 30
0
 40
100.072901916553
 50
257.703263337657
 51
269.949043967581
210
0
220
0
230
1.0
 0
LINE
 8
TOOL_0
 5
31
 10
2018.187
 20
862.891
 30
0
 11
2299.351
 21
862.891
 31
0
 0
ARC
 8
TOOL_0
 5
32
 10
2299.351
 20
854.141
 30
0
 40
8.75
 50
0
 51
90.0
210
0
220
0
230
1.0
 0
LINE
 8
TOOL_0
 5
33
 10
2308.101
 20
854.141
 30
0
 11
2308.101
 21
6.602
 31
0
 0
LINE
 8
TOOL_0
 5
34
 10
2308.101
 20
6.602
 30
0
 11
2308.442
 21
3.227
 31
0
 0
LINE
 8
TOOL_0
 5
35
 10
2308.442
 20
3.227
 30
0
 11
1784.96
 21
1381.755
 31
0
 0
LINE
 8
TOOL_0
 5
36
 10
1784.96
 20
1381.755
 30
0
 11
1829.96
 21
1381.755
 31
0
 0
LINE
 8
TOOL_0
 5
37
 10
1829.96
 20
1381.755
 30
0
 11
1829.96
 21
1494.255
 31
0
 0
ARC
 8
TOOL_0
 5
38
 10
1794.96
 20
1494.255
 30
0
 40
35.0
 50
0
 51
90.0
210
0
220
0
230
1.0
 0
LINE
 8
TOOL_0
 5
39
 10
1794.96
 20
1529.255
 30
0
 11
1639.96
 21
1529.255
 31
0
 0
ARC
 8
TOOL_0
 5
3A
 10
1639.96
 20
1494.255
 30
0
 40
35.0
 50
90.0
 51
180.0
210
0
220
0
230
1.0
 0
LINE
 8
TOOL_0
 5
3B
 10
1604.96
 20
1494.255
 30
0
 11
1604.96
 21
1269.255
 31
0
 0
ARC
 8
TOOL_0
 5
3C
 10
1639.96
 20
1269.255
 30
0
 40
35.0
 50
180.0
 51
270.0
210
0
220
0
230
1.0
 0
LINE
 8
TOOL_0
 5
3D
 10
1639.96
 20
1234.255
 30
0
 11
1794.96
 21
1234.255
 31
0
 0
ARC
 8
TOOL_0
 5
3E
 10
1794.96
 20
1269.255
 30
0
 40
35.0
 50
270.0
 51
0
210
0
220
0
230
1.0
 0
LINE
 8
TOOL_0
 5
3F
 10
1829.96
 20
1269.255
 30
0
 11
1829.96
 21
1381.755
 31
0
 0
LINE
 8
TOOL_0
 5
40
 10
1829.96
 20
1381.755
 30
0
 11
2254.96
 21
1361.755
 31
0
 0
LINE
 8
TOOL_0
 5
41
 10
2254.96
 20
1361.755
 30
0
 11
2299.96
 21
1361.755
 31
0
 0
LINE
 8
TOOL_0
 5
42
 10
2299.96
 20
1361.755
 30
0
 11
2299.96
 21
1494.255
 31
0
 0
ARC
 8
TOOL_0
 5
43
 10
2264.96
 20
1494.255
 30
0
 40
35.0
 50
0
 51
90.0
210
0
220
0
230
1.0
 0
LINE
 8
TOOL_0
 5
44
 10
2264.96
 20
1529.255
 30
0
 11
2109.96
 21
1529.255
 31
0
 0
ARC
 8
TOOL_0
 5
45
 10
2109.96
 20
1494.255
 30
0
 40
35.0
 50
90.0
 51
180.0
210
0
220
0
230
1.0
 0
LINE
 8
TOOL_0
 5
46
 10
2074.96
 20
1494.255
 30
0
 11
2074.96
 21
1229.255
 31
0
 0
ARC
 8
TOOL_0
 5
47
 10
2109.96
 20
1229.255
 30
0
 40
35.0
 50
180.0
 51
270.0
210
0
220
0
230
1.0
 0
LINE
 8
TOOL_0
 5
48
 10
2109.96
 20
1194.255
 30
0
 11
2264.96
 21
1194.255
 31
0
 0
ARC
 8
TOOL_0
 5
49
 10
2264.96
 20
1229.255
 30
0
 40
35.0
 50
270.0
 51
0
210
0
220
0
230
1.0
 0
LINE
 8
TOOL_0
 5
4A
 10
2299.96
 20
1229.255
 30
0
 11
2299.96
 21
1361.755
 31
0
 0
LINE
 8
TOOL_0
 5
4B
 10
2299.96
 20
1361.755
 30
0
 11
2532.216
 21
1229.712
 31
0
 0
LINE
 8
TOOL_0
 5
4C
 10
2532.216
 20
1229.712
 30
0
 11
2536.46
 21
1180.755
 31
0
 0
LINE
 8
TOOL_0
 5
4D
 10
2536.46
 20
1180.755
 30
0
 11
2536.46
 21
1108.634
 31
0
 0
LINE
 8
TOOL_0
 5
4E
 10
2536.46
 20
1108.634
 30
0
 11
2525.581
 21
1097.755
 31
0
 0
LINE
 8
TOOL_0
 5
4F
 10
2525.581
 20
1097.755
 30
0
 11
2412.96
 21
1097.755
 31
0
 0
ARC
 8
TOOL_0
 5
50
 10
2412.96
 20
1091.255
 30
0
 40
6.5
 50
90.0
 51
180.0
210
0
220
0
230
1.0
 0
LINE
 8
TOOL_0
 5
51
 10
2406.46
 20
1091.255
 30
0
 11
2406.46
 21
1077.755
 31
0
 0
LINE
 8
TOOL_0
 5
52
 10
2406.46
 20
1077.755
 30
0
 11
1753.46
 21
1077.755
 31
0
 0
LINE
 8
TOOL_0
 5
53
 10
1753.46
 20
1077.755
 30
0
 11
1753.46
 21
1091.255
 31
0
 0
ARC
 8
TOOL_0
 5
54
 10
1746.96
 20
1091.255
 30
0
 40
6.5
 50
0
 51
90.0
210
0
220
0
230
1.0
 0
LINE
 8
TOOL_0
 5
55
 10
1746.96
 20
1097.755
 30
0
 11
1592.96
 21
1097.755
 31
0
 0
ARC
 8
TOOL_0
 5
56
 10
1592.96
 20
1091.255
 30
0
 40
6.5
 50
90.0
 51
180.0
210
0
220
0
230
1.0
 0
LINE
 8
TOOL_0
 5
57
 10
1586.46
 20
1091.255
 30
0
 11
1586.46
 21
1077.755
 31
0
 0
LINE
 8
TOOL_0
 5
58
 10
1586.46
 20
1077.755
 30
0
 11
1348.46
 21
1077.755
 31
0
 0
LINE
 8
TOOL_0
 5
59
 10
1348.46
 20
1077.755
 30
0
 11
1348.46
 21
1086.255
 31
0
 0
ARC
 8
TOOL_0
 5
5A
 10
1341.96
 20
1086.255
 30
0
 40
6.5
 50
0
 51
90.0
210
0
220
0
230
1.0
 0
LINE
 8
TOOL_0
 5
5B
 10
1341.96
 20
1092.755
 30
0
 11
1087.96
 21
1092.755
 31
0
 0
ARC
 8
TOOL_0
 5
5C
 10
1087.96
 20
1086.255
 30
0
 40
6.5
 50
90.0
 51
180.0
210
0
220
0
230
1.0
 0
LINE
 8
TOOL_0
 5
5D
 10
1081.46
 20
1086.255
 30
0
 11
1081.46
 21
1077.755
 31
0
 0
LINE
 8
TOOL_0
 5
5E
 10
1081.46
 20
1077.755
 30
0
 11
778.46
 21
1077.755
 31
0
 0
LINE
 8
TOOL_0
 5
5F
 10
778.46
 20
1077.755
 30
0
 11
778.46
 21
1086.255
 31
0
 0
ARC
 8
TOOL_0
 5
60
 10
771.96
 20
1086.255
 30
0
 40
6.5
 50
0
 51
90.0
210
0
220
0
230
1.0
 0
LINE
 8
TOOL_0
 5
61
 10
771.96
 20
1092.755
 30
0
 11
533.46
 21
1092.755
 31
0
 0
LINE
 8
TOOL_0
 5
62
 10
533.46
 20
1092.755
 30
0
 11
533.46
 21
1504.0
 31
0
 0
ARC
 8
TOOL_0
 5
63
 10
542.96
 20
1504.0
 30
0
 40
9.5
 50
90.0
 51
180.0
210
0
220
0
230
1.0
 0
LINE
 8
TOOL_0
 5
64
 10
542.96
 20
1513.5
 30
0
 11
821.738
 21
1513.5
 31
0
 0
ARC
 8
TOOL_0
 5
65
 10
821.738
 20
1612.0
 30
0
 40
98.5
 50
270.0
 51
285.06405950439
210
0
220
0
230
1.0
 0
LINE
 8
TOOL_0
 5
66
 10
847.338
 20
1516.885
 30
0
 11
1493.339
 21
1690.756
 31
0
 0
LINE
 8
TOOL_0
 5
67
 10
1493.339
 20
1690.756
 30
0
 11
2310.038
 21
1690.756
 31
0
 0
ARC
 8
TOOL_0
 5
68
 10
2310.038
 20
1589.256
 30
0
 40
101.5
 50
35.651858150017
 51
90.0
210
0
220
0
230
1.0
 0
LINE
 8
TOOL_0
 5
69
 10
2392.514
 20
1648.416
 30
0
 11
2536.46
 21
1447.738
 31
0
 0
LINE
 8
TOOL_0
 5
6A
 10
2536.46
 20
1447.738
 30
0
 11
2536.46
 21
1337.756
 31
0
 0
LINE
 8
TOOL_0
 5
6B
 10
2536.46
 20
1337.756
 30
0
 11
2514.96
 21
1337.756
 31
0
 0
ARC
 8
TOOL_0
 5
6C
 10
2514.96
 20
1259.256
 30
0
 40
78.5
 50
90.0
 51
270.0
210
0
220
0
230
1.0
 0
LINE
 8
TOOL_0
 5
6D
 10
2514.96
 20
1180.756
 30
0
 11
2536.46
 21
1180.756
 31
0
 0
LINE
 8
TOOL_0
 5
6E
 10
2536.46
 20
1180.756
 30
0
 11
2542.655
 21
1180.028
 31
0
 0
LINE
 8
TOOL_0
 5
6F
 10
2542.655
 20
1180.028
 30
0
 11
548.1
 21
2132.402
 31
0
 0
LINE
 8
TOOL_0
 5
70
 10
548.1
 20
2132.402
 30
0
 11
593.1
 21
2132.402
 31
0
 0
LINE
 8
TOOL_0
 5
71
 10
593.1
 20
2132.402
 30
0
 11
593.1
 21
2297.402
 31
0
 0
ARC
 8
TOOL_0
 5
72
 10
558.1
 20
2297.402
 30
0
 40
35.0
 50
0
 51
90.0
210
0
220
0
230
1.0
 0
LINE
 8
TOOL_0
 5
73
 10
558.1
 20
2332.402
 30
0
 11
403.1
 21
2332.402
 31
0
 0
ARC
 8
TOOL_0
 5
74
 10
403.1
 20
2297.402
 30
0
 40
35.0
 50
90.0
 51
180.0
210
0
220
0
230
1.0
 0
LINE
 8
TOOL_0
 5
75
 10
368.1
 20
2297.402
 30
0
 11
368.1
 21
1967.402
 31
0
 0
ARC
 8
TOOL_0
 5
76
 10
403.1
 20
1967.402
 30
0
 40
35.0
 50
180.0
 51
270.0
210
0
220
0
230
1.0
 0
LINE
 8
TOOL_0
 5
77
 10
403.1
 20
1932.402
 30
0
 11
558.1
 21
1932.402
 31
0
 0
ARC
 8
TOOL_0
 5
78
 10
558.1
 20
1967.402
 30
0
 40
35.0
 50
270.0
 51
0
210
0
220
0
230
1.0
 0
LINE
 8
TOOL_0
 5
79
 10
593.1
 20
1967.402
 30
0
 11
593.1
 21
2132.402
 31
0
 0
LINE
 8
TOOL_0
 5
7A
 10
593.1
 20
2132.402
 30
0
 11
1293.1
 21
2133.696
 31
0
 0
LINE
 8
TOOL_0
 5
7B
 10
1293.1
 20
2133.696
 30
0
 11
1338.1
 21
2133.696
 31
0
 0
LINE
 8
TOOL_0
 5
7C
 10
1338.1
 20
2133.696
 30
0
 11
1338.1
 21
2297.402
 31
0
 0
ARC
 8
TOOL_0
 5
7D
 10
1303.1
 20
2297.402
 30
0
 40
35.0
 50
0
 51
90.0
210
0
220
0
230
1.0
 0
LINE
 8
TOOL_0
 5
7E
 10
1303.1
 20
2332.402
 30
0
 11
1148.1
 21
2332.402
 31
0
 0
ARC
 8
TOOL_0
 5
7F
 10
1148.1
 20
2297.402
 30
0
 40
35.0
 50
90.0
 51
180.0
210
0
220
0
230
1.0
 0
LINE
 8
TOOL_0
 5
80
 10
1113.1
 20
2297.402
 30
0
 11
1113.1
 21
1967.402
 31
0
 0
ARC
 8
TOOL_0
 5
81
 10
1148.1
 20
1967.402
 30
0
 40
35.0
 50
180.0
 51
270.0
210
0
220
0
230
1.0
 0
LINE
 8
TOOL_0
 5
82
 10
1148.1
 20
1932.402
 30
0
 11
1303.1
 21
1932.402
 31
0
 0
ARC
 8
TOOL_0
 5
83
 10
1303.1
 20
1967.402
 30
0
 40
35.0
 50
270.0
 51
0
210
0
220
0
230
1.0
 0
LINE
 8
TOOL_0
 5
84
 10
1338.1
 20
1967.402
 30
0
 11
1338.1
 21
2133.696
 31
0
 0
LINE
 8
TOOL_0
 5
85
 10
1338.1
 20
2133.696
 30
0
 11
2787.482
 21
2084.64
 31
0
 0
LINE
 8
TOOL_0
 5
86
 10
2787.482
 20
2084.64
 30
0
 11
2752.127
 21
2049.285
 31
0
 0
LINE
 8
TOOL_0
 5
87
 10
2752.127
 20
2049.285
 30
0
 11
2749.46
 21
2047.909
 31
0
 0
ARC
 8
TOOL_0
 5
88
 10
2741.601
 20
2049.402
 30
0
 40
7.999558112796
 50
270.0
 51
349.243510573567
210
0
220
0
230
1.0
 0
LINE
 8
TOOL_0
 5
89
 10
2741.601
 20
2041.402
 30
0
 11
2464.056
 21
2041.402
 31
0
 0
ARC
 8
TOOL_0
 5
8A
 10
2464.056
 20
1942.402
 30
0
 40
99.0
 50
90.0
 51
108.130410810383
210
0
220
0
230
1.0
 0
LINE
 8
TOOL_0
 5
8B
 10
2433.249
 20
2036.487
 30
0
 11
1290.774
 21
1662.402
 31
0
 0
LINE
 8
TOOL_0
 5
8C
 10
1290.774
 20
1662.402
 30
0
 11
396.601
 21
1662.402
 31
0
 0
LINE
 8
TOOL_0
 5
8D
 10
396.601
 20
1662.402
 30
0
 11
396.601
 21
1706.402
 31
0
 0
ARC
 8
TOOL_0
 5
8E
 10
346.601
 20
1706.402
 30
0
 40
50.0
 50
0
 51
90.0
210
0
220
0
230
1.0
 0
LINE
 8
TOOL_0
 5
8F
 10
346.601
 20
1756.402
 30
0
 11
329.856
 21
1756.402
 31
0
 0
ARC
 8
TOOL_0
 5
90
 10
329.901
 20
1806.498
 30
0
 40
50.09602021119
 50
220.050121102727
 51
269.948532629659
210
0
220
0
230
1.0
 0
LINE
 8
TOOL_0
 5
91
 10
291.553
 20
1774.263
 30
0
 11
6.6
 21
2113.856
 31
0
 0
LINE
 8
TOOL_0
 5
92
 10
6.6
 20
2113.856
 30
0
 11
6.6
 21
2222.402
 31
0
 0
LINE
 8
TOOL_0
 5
93
 10
6.6
 20
2222.402
 30
0
 11
28.1
 21
2222.402
 31
0
 0
ARC
 8
TOOL_0
 5
94
 10
28.1
 20
2302.402
 30
0
 40
80.0
 50
270.0
 51
90.0
210
0
220
0
230
1.0
 0
LINE
 8
TOOL_0
 5
95
 10
28.1
 20
2382.402
 30
0
 11
6.6
 21
2382.402
 31
0
 0
LINE
 8
TOOL_0
 5
96
 10
6.6
 20
2382.402
 30
0
 11
6.6
 21
2452.316
 31
0
 0
LINE
 8
TOOL_0
 5
97
 10
6.6
 20
2452.316
 30
0
 11
17.686
 21
2463.402
 31
0
 0
LINE
 8
TOOL_0
 5
98
 10
17.686
 20
2463.402
 30
0
 11
148.1
 21
2463.402
 31
0
 0
ARC
 8
TOOL_0
 5
99
 10
148.066
 20
2472.457
 30
0
 40
9.055063831912
 50
270.215134991548
 51
333.395331062991
210
0
220
0
230
1.0
 0
LINE
 8
TOOL_0
 5
9A
 10
156.162
 20
2468.402
 30
0
 11
2749.6
 21
2468.402
 31
0
 0
LINE
 8
TOOL_0
 5
9B
 10
2749.6
 20
2468.402
 30
0
 11
2749.6
 21
2050.905
 31
0
 0
LINE
 8
TOOL_0
 5
9C
 10
2749.6
 20
2050.905
 30
0
 11
2752.127
 21
2049.285
 31
0
 0
LINE
 8
TOOL_0
 5
9D
 10
2752.127
 20
2049.285
 30
0
 11
2759.198
 21
2042.214
 31
0
 0
LINE
 8
TOOL_0
 5
9E
 10
2759.198
 20
2042.214
 30
0
 11
2968.406
 21
825.603
 31
0
 0
LINE
 8
TOOL_0
 5
9F
 10
2968.406
 20
825.603
 30
0
 11
3013.406
 21
825.603
 31
0
 0
LINE
 8
TOOL_0
 5
A0
 10
3013.406
 20
825.603
 30
0
 11
3013.406
 21
903.103
 31
0
 0
ARC
 8
TOOL_0
 5
A1
 10
2978.406
 20
903.103
 30
0
 40
35.0
 50
0
 51
90.0
210
0
220
0
230
1.0
 0
LINE
 8
TOOL_0
 5
A2
 10
2978.406
 20
938.103
 30
0
 11
2753.406
 21
938.103
 31
0
 0
ARC
 8
TOOL_0
 5
A3
 10
2753.406
 20
903.103
 30
0
 40
35.0
 50
90.0
 51
180.0
210
0
220
0
230
1.0
 0
LINE
 8
TOOL_0
 5
A4
 10
2718.406
 20
903.103
 30
0
 11
2718.406
 21
748.103
 31
0
 0
ARC
 8
TOOL_0
 5
A5
 10
2753.406
 20
748.103
 30
0
 40
35.0
 50
180.0
 51
270.0
210
0
220
0
230
1.0
 0
LINE
 8
TOOL_0
 5
A6
 10
2753.406
 20
713.103
 30
0
 11
2978.406
 21
713.103
 31
0
 0
ARC
 8
TOOL_0
 5
A7
 10
2978.406
 20
748.103
 30
0
 40
35.0
 50
270.0
 51
0
210
0
220
0
230
1.0
 0
LINE
 8
TOOL_0
 5
A8
 10
3013.406
 20
748.103
 30
0
 11
3013.406
 21
825.603
 31
0
 0
LINE
 8
TOOL_0
 5
A9
 10
3013.406
 20
825.603
 30
0
 11
2968.406
 21
355.603
 31
0
 0
LINE
 8
TOOL_0
 5
AA
 10
2968.406
 20
355.603
 30
0
 11
3013.406
 21
355.603
 31
0
 0
LINE
 8
TOOL_0
 5
AB
 10
3013.406
 20
355.603
 30
0
 11
3013.406
 21
433.103
 31
0
 0
ARC
 8
TOOL_0
 5
AC
 10
2978.406
 20
433.103
 30
0
 40
35.0
 50
0
 51
90.0
210
0
220
0
230
1.0
 0
LINE
 8
TOOL_0
 5
AD
 10
2978.406
 20
468.103
 30
0
 11
2713.406
 21
468.103
 31
0
 0
ARC
 8
TOOL_0
 5
AE
 10
2713.406
 20
433.103
 30
0
 40
35.0
 50
90.0
 51
180.0
210
0
220
0
230
1.0
 0
LINE
 8
TOOL_0
 5
AF
 10
2678.406
 20
433.103
 30
0
 11
2678.406
 21
278.103
 31
0
 0
ARC
 8
TOOL_0
 5
B0
 10
2713.406
 20
278.103
 30
0
 40
35.0
 50
180.0
 51
270.0
210
0
220
0
230
1.0
 0
LINE
 8
TOOL_0
 5
B1
 10
2713.406
 20
243.103
 30
0
 11
2978.406
 21
243.103
 31
0
 0
ARC
 8
TOOL_0
 5
B2
 10
2978.406
 20
278.103
 30
0
 40
35.0
 50
270.0
 51
0
210
0
220
0
230
1.0
 0
LINE
 8
TOOL_0
 5
B3
 10
3013.406
 20
278.103
 30
0
 11
3013.406
 21
355.603
 31
0
 0
LINE
 8
TOOL_0
 5
B4
 10
3013.406
 20
355.603
 30
0
 11
3165.878
 21
103.779
 31
0
 0
LINE
 8
TOOL_0
 5
B5
 10
3165.878
 20
103.779
 30
0
 11
3134.087
 21
148.447
 31
0
 0
LINE
 8
TOOL_0
 5
B6
 10
3134.087
 20
148.447
 30
0
 11
3131.348
 21
149.675
 31
0
 0
LINE
 8
TOOL_0
 5
B7
 10
3131.348
 20
149.675
 30
0
 11
2931.889
 21
6.603
 31
0
 0
LINE
 8
TOOL_0
 5
B8
 10
2931.889
 20
6.603
 30
0
 11
2821.907
 21
6.603
 31
0
 0
LINE
 8
TOOL_0
 5
B9
 10
2821.907
 20
6.603
 30
0
 11
2821.907
 21
28.103
 31
0
 0
ARC
 8
TOOL_0
 5
BA
 10
2743.407
 20
28.103
 30
0
 40
78.5
 50
0
 51
180.0
210
0
220
0
230
1.0
 0
LINE
 8
TOOL_0
 5
BB
 10
2664.907
 20
28.103
 30
0
 11
2664.907
 21
6.603
 31
0
 0
LINE
 8
TOOL_0
 5
BC
 10
2664.907
 20
6.603
 30
0
 11
2592.786
 21
6.603
 31
0
 0
LINE
 8
TOOL_0
 5
BD
 10
2592.786
 20
6.603
 30
0
 11
2581.907
 21
17.482
 31
0
 0
LINE
 8
TOOL_0
 5
BE
 10
2581.907
 20
17.482
 30
0
 11
2581.907
 21
130.103
 31
0
 0
ARC
 8
TOOL_0
 5
BF
 10
2575.407
 20
130.103
 30
0
 40
6.5
 50
0
 51
90.0
210
0
220
0
230
1.0
 0
LINE
 8
TOOL_0
 5
C0
 10
2575.407
 20
136.603
 30
0
 11
2561.907
 21
136.603
 31
0
 0
LINE
 8
TOOL_0
 5
C1
 10
2561.907
 20
136.603
 30
0
 11
2561.907
 21
789.603
 31
0
 0
LINE
 8
TOOL_0
 5
C2
 10
2561.907
 20
789.603
 30
0
 11
2575.407
 21
789.603
 31
0
 0
ARC
 8
TOOL_0
 5
C3
 10
2575.407
 20
796.103
 30
0
 40
6.5
 50
270.0
 51
0
210
0
220
0
230
1.0
 0
LINE
 8
TOOL_0
 5
C4
 10
2581.907
 20
796.103
 30
0
 11
2581.907
 21
950.103
 31
0
 0
ARC
 8
TOOL_0
 5
C5
 10
2575.407
 20
950.103
 30
0
 40
6.5
 50
0
 51
90.0
210
0
220
0
230
1.0
 0
LINE
 8
TOOL_0
 5
C6
 10
2575.407
 20
956.603
 30
0
 11
2561.907
 21
956.603
 31
0
 0
LINE
 8
TOOL_0
 5
C7
 10
2561.907
 20
956.603
 30
0
 11
2561.907
 21
1194.603
 31
0
 0
LINE
 8
TOOL_0
 5
C8
 10
2561.907
 20
1194.603
 30
0
 11
2570.407
 21
1194.603
 31
0
 0
ARC
 8
TOOL_0
 5
C9
 10
2570.407
 20
1201.103
 30
0
 40
6.5
 50
270.0
 51
0
210
0
220
0
230
1.0
 0
LINE
 8
TOOL_0
 5
CA
 10
2576.907
 20
1201.103
 30
0
 11
2576.907
 21
1455.103
 31
0
 0
ARC
 8
TOOL_0
 5
CB
 10
2570.407
 20
1455.103
 30
0
 40
6.5
 50
0
 51
90.0
210
0
220
0
230
1.0
 0
LINE
 8
TOOL_0
 5
CC
 10
2570.407
 20
1461.603
 30
0
 11
2561.907
 21
1461.603
 31
0
 0
LINE
 8
TOOL_0
 5
CD
 10
2561.907
 20
1461.603
 30
0
 11
2561.907
 21
1764.603
 31
0
 0
LINE
 8
TOOL_0
 5
CE
 10
2561.907
 20
1764.603
 30
0
 11
2570.407
 21
1764.603
 31
0
 0
ARC
 8
TOOL_0
 5
CF
 10
2570.407
 20
1771.103
 30
0
 40
6.5
 50
270.0
 51
0
210
0
220
0
230
1.0
 0
LINE
 8
TOOL_0
 5
D0
 10
2576.907
 20
1771.103
 30
0
 11
2576.907
 21
2009.603
 31
0
 0
LINE
 8
TOOL_0
 5
D1
 10
2576.907
 20
2009.603
 30
0
 11
2988.152
 21
2009.603
 31
0
 0
ARC
 8
TOOL_0
 5
D2
 10
2988.152
 20
2000.103
 30
0
 40
9.5
 50
0
 51
90.0
210
0
220
0
230
1.0
 0
LINE
 8
TOOL_0
 5
D3
 10
2997.652
 20
2000.103
 30
0
 11
2997.652
 21
1721.325
 31
0
 0
ARC
 8
TOOL_0
 5
D4
 10
3096.152
 20
1721.325
 30
0
 40
98.5
 50
180.0
 51
195.064059504389
210
0
220
0
230
1.0
 0
LINE
 8
TOOL_0
 5
D5
 10
3001.037
 20
1695.725
 30
0
 11
3174.908
 21
1049.724
 31
0
 0
LINE
 8
TOOL_0
 5
D6
 10
3174.908
 20
1049.724
 30
0
 11
3174.908
 21
233.025
 31
0
 0
ARC
 8
TOOL_0
 5
D7
 10
3073.408
 20
233.025
 30
0
 40
101.5
 50
306.498346461928
 51
0
210
0
220
0
230
1.0
 0
LINE
 8
TOOL_0
 5
D8
 10
3133.78
 20
151.432
 30
0
 11
3134.088
 21
148.446
 31
0
 0
LINE
 8
TOOL_0
 5
D9
 10
3134.088
 20
148.446
 30
0
 11
3132.247
 21
144.22
 31
0
 0
LINE
 8
TOOL_0
 5
DA
 10
3132.247
 20
144.22
 30
0
 11
4651.878
 21
325.103
 31
0
 0
LINE
 8
TOOL_0
 5
DB
 10
4651.878
 20
325.103
 30
0
 11
4696.878
 21
325.103
 31
0
 0
LINE
 8
TOOL_0
 5
DC
 10
4696.878
 20
325.103
 30
0
 11
4696.878
 21
437.603
 31
0
 0
ARC
 8
TOOL_0
 5
DD
 10
4661.878
 20
437.603
 30
0
 40
35.0
 50
0
 51
90.0
210
0
220
0
230
1.0
 0
LINE
 8
TOOL_0
 5
DE
 10
4661.878
 20
472.603
 30
0
 11
4506.878
 21
472.603
 31
0
 0
ARC
 8
TOOL_0
 5
DF
 10
4506.878
 20
437.603
 30
0
 40
35.0
 50
90.0
 51
180.0
210
0
220
0
230
1.0
 0
LINE
 8
TOOL_0
 5
E0
 10
4471.878
 20
437.603
 30
0
 11
4471.878
 21
212.603
 31
0
 0
ARC
 8
TOOL_0
 5
E1
 10
4506.878
 20
212.603
 30
0
 40
35.0
 50
180.0
 51
270.0
210
0
220
0
230
1.0
 0
LINE
 8
TOOL_0
 5
E2
 10
4506.878
 20
177.603
 30
0
 11
4661.878
 21
177.603
 31
0
 0
ARC
 8
TOOL_0
 5
E3
 10
4661.878
 20
212.603
 30
0
 40
35.0
 50
270.0
 51
0
210
0
220
0
230
1.0
 0
LINE
 8
TOOL_0
 5
E4
 10
4696.878
 20
212.603
 30
0
 11
4696.878
 21
325.103
 31
0
 0
LINE
 8
TOOL_0
 5
E5
 10
4696.878
 20
325.103
 30
0
 11
5266.878
 21
305.103
 31
0
 0
LINE
 8
TOOL_0
 5
E6
 10
5266.878
 20
305.103
 30
0
 11
5311.878
 21
305.103
 31
0
 0
LINE
 8
TOOL_0
 5
E7
 10
5311.878
 20
305.103
 30
0
 11
5311.878
 21
437.603
 31
0
 0
ARC
 8
TOOL_0
 5
E8
 10
5276.878
 20
437.603
 30
0
 40
35.0
 50
0
 51
90.0
210
0
220
0
230
1.0
 0
LINE
 8
TOOL_0
 5
E9
 10
5276.878
 20
472.603
 30
0
 11
5121.878
 21
472.603
 31
0
 0
ARC
 8
TOOL_0
 5
EA
 10
5121.878
 20
437.603
 30
0
 40
35.0
 50
90.0
 51
180.0
210
0
220
0
230
1.0
 0
LINE
 8
TOOL_0
 5
EB
 10
5086.878
 20
437.603
 30
0
 11
5086.878
 21
172.603
 31
0
 0
ARC
 8
TOOL_0
 5
EC
 10
5121.878
 20
172.603
 30
0
 40
35.0
 50
180.0
 51
270.0
210
0
220
0
230
1.0
 0
LINE
 8
TOOL_0
 5
ED
 10
5121.878
 20
137.603
 30
0
 11
5276.878
 21
137.603
 31
0
 0
ARC
 8
TOOL_0
 5
EE
 10
5276.878
 20
172.603
 30
0
 40
35.0
 50
270.0
 51
0
210
0
220
0
230
1.0
 0
LINE
 8
TOOL_0
 5
EF
 10
5311.878
 20
172.603
 30
0
 11
5311.878
 21
305.103
 31
0
 0
LINE
 8
TOOL_0
 5
F0
 10
5311.878
 20
305.103
 30
0
 11
5499.907
 21
151.21
 31
0
 0
LINE
 8
TOOL_0
 5
F1
 10
5499.907
 20
151.21
 30
0
 11
5502.878
 21
93.603
 31
0
 0
LINE
 8
TOOL_0
 5
F2
 10
5502.878
 20
93.603
 30
0
 11
5502.878
 21
22.189
 31
0
 0
LINE
 8
TOOL_0
 5
F3
 10
5502.878
 20
22.189
 30
0
 11
5492.292
 21
11.603
 31
0
 0
LINE
 8
TOOL_0
 5
F4
 10
5492.292
 20
11.603
 30
0
 11
5370.54
 21
11.603
 31
0
 0
ARC
 8
TOOL_0
 5
F5
 10
5370.574
 20
2.542
 30
0
 40
9.061063789644
 50
90.214992535102
 51
153.375569119076
210
0
220
0
230
1.0
 0
LINE
 8
TOOL_0
 5
F6
 10
5362.473
 20
6.603
 30
0
 11
3200.378
 21
6.603
 31
0
 0
LINE
 8
TOOL_0
 5
F7
 10
3200.378
 20
6.603
 30
0
 11
3200.378
 21
436.393
 31
0
 0
ARC
 8
TOOL_0
 5
F8
 10
3208.378
 20
436.393
 30
0
 40
8.0
 50
90.0
 51
180.0
210
0
220
0
230
1.0
 0
LINE
 8
TOOL_0
 5
F9
 10
3208.378
 20
444.393
 30
0
 11
3491.041
 21
444.393
 31
0
 0
ARC
 8
TOOL_0
 5
FA
 10
3490.861
 20
545.058
 30
0
 40
100.665160929688
 50
270.102450994097
 51
282.266925903661
210
0
220
0
230
1.0
 0
LINE
 8
TOOL_0
 5
FB
 10
3512.249
 20
446.691
 30
0
 11
4382.81
 21
637.603
 31
0
 0
LINE
 8
TOOL_0
 5
FC
 10
4382.81
 20
637.603
 30
0
 11
5313.142
 21
637.603
 31
0
 0
ARC
 8
TOOL_0
 5
FD
 10
5313.142
 20
536.603
 30
0
 40
101.0
 50
24.201180888537
 51
90.0
210
0
220
0
230
1.0
 0
LINE
 8
TOOL_0
 5
FE
 10
5405.265
 20
578.007
 30
0
 11
5502.878
 21
360.818
 31
0
 0
LINE
 8
TOOL_0
 5
FF
 10
5502.878
 20
360.818
 30
0
 11
5502.878
 21
251.604
 31
0
 0
LINE
 8
TOOL_0
 5
100
 10
5502.878
 20
251.604
 30
0
 11
5481.878
 21
251.604
 31
0
 0
ARC
 8
TOOL_0
 5
101
 10
5481.878
 20
172.604
 30
0
 40
79.0
 50
90.0
 51
270.0
210
0
220
0
230
1.0
 0
LINE
 8
TOOL_0
 5
102
 10
5481.878
 20
93.604
 30
0
 11
5502.878
 21
93.604
 31
0
 0
LINE
 8
TOOL_0
 5
103
 10
5502.878
 20
93.604
 30
0
 11
5511.885
 21
92.377
 31
0
 0
LINE
 8
TOOL_0
 5
104
 10
5511.885
 20
92.377
 30
0
 11
4942.65
 21
1400.114
 31
0
 0
LINE
 8
TOOL_0
 5
105
 10
4942.65
 20
1400.114
 30
0
 11
4987.65
 21
1400.114
 31
0
 0
LINE
 8
TOOL_0
 5
106
 10
4987.65
 20
1400.114
 30
0
 11
4987.65
 21
1512.614
 31
0
 0
ARC
 8
TOOL_0
 5
107
 10
4952.65
 20
1512.614
 30
0
 40
35.0
 50
0
 51
90.0
210
0
220
0
230
1.0
 0
LINE
 8
TOOL_0
 5
108
 10
4952.65
 20
1547.614
 30
0
 11
4797.65
 21
1547.614
 31
0
 0
ARC
 8
TOOL_0
 5
109
 10
4797.65
 20
1512.614
 30
0
 40
35.0
 50
90.0
 51
180.0
210
0
220
0
230
1.0
 0
LINE
 8
TOOL_0
 5
10A
 10
4762.65
 20
1512.614
 30
0
 11
4762.65
 21
1287.614
 31
0
 0
ARC
 8
TOOL_0
 5
10B
 10
4797.65
 20
1287.614
 30
0
 40
35.0
 50
180.0
 51
270.0
210
0
220
0
230
1.0
 0
LINE
 8
TOOL_0
 5
10C
 10
4797.65
 20
1252.614
 30
0
 11
4952.65
 21
1252.614
 31
0
 0
ARC
 8
TOOL_0
 5
10D
 10
4952.65
 20
1287.614
 30
0
 40
35.0
 50
270.0
 51
0
210
0
220
0
230
1.0
 0
LINE
 8
TOOL_0
 5
10E
 10
4987.65
 20
1287.614
 30
0
 11
4987.65
 21
1400.114
 31
0
 0
LINE
 8
TOOL_0
 5
10F
 10
4987.65
 20
1400.114
 30
0
 11
5497.65
 21
883.614
 31
0
 0
LINE
 8
TOOL_0
 5
110
 10
5497.65
 20
883.614
 30
0
 11
5542.65
 21
883.614
 31
0
 0
LINE
 8
TOOL_0
 5
111
 10
5542.65
 20
883.614
 30
0
 11
5542.65
 21
948.614
 31
0
 0
ARC
 8
TOOL_0
 5
112
 10
5507.65
 20
948.614
 30
0
 40
35.0
 50
0
 51
90.0
210
0
220
0
230
1.0
 0
LINE
 8
TOOL_0
 5
113
 10
5507.65
 20
983.614
 30
0
 11
5177.65
 21
983.614
 31
0
 0
ARC
 8
TOOL_0
 5
114
 10
5177.65
 20
948.614
 30
0
 40
35.0
 50
90.0
 51
180.0
210
0
220
0
230
1.0
 0
LINE
 8
TOOL_0
 5
115
 10
5142.65
 20
948.614
 30
0
 11
5142.65
 21
818.614
 31
0
 0
ARC
 8
TOOL_0
 5
116
 10
5177.65
 20
818.614
 30
0
 40
35.0
 50
180.0
 51
270.0
210
0
220
0
230
1.0
 0
LINE
 8
TOOL_0
 5
117
 10
5177.65
 20
783.614
 30
0
 11
5507.65
 21
783.614
 31
0
 0
ARC
 8
TOOL_0
 5
118
 10
5507.65
 20
818.614
 30
0
 40
35.0
 50
270.0
 51
0
210
0
220
0
230
1.0
 0
LINE
 8
TOOL_0
 5
119
 10
5542.65
 20
818.614
 30
0
 11
5542.65
 21
883.614
 31
0
 0
LINE
 8
TOOL_0
 5
11A
 10
5542.65
 20
883.614
 30
0
 11
5557.65
 21
1380.114
 31
0
 0
LINE
 8
TOOL_0
 5
11B
 10
5557.65
 20
1380.114
 30
0
 11
5602.65
 21
1380.114
 31
0
 0
LINE
 8
TOOL_0
 5
11C
 10
5602.65
 20
1380.114
 30
0
 11
5602.65
 21
1512.614
 31
0
 0
ARC
 8
TOOL_0
 5
11D
 10
5567.65
 20
1512.614
 30
0
 40
35.0
 50
0
 51
90.0
210
0
220
0
230
1.0
 0
LINE
 8
TOOL_0
 5
11E
 10
5567.65
 20
1547.614
 30
0
 11
5412.65
 21
1547.614
 31
0
 0
ARC
 8
TOOL_0
 5
11F
 10
5412.65
 20
1512.614
 30
0
 40
35.0
 50
90.0
 51
180.0
210
0
220
0
230
1.0
 0
LINE
 8
TOOL_0
 5
120
 10
5377.65
 20
1512.614
 30
0
 11
5377.65
 21
1247.614
 31
0
 0
ARC
 8
TOOL_0
 5
121
 10
5412.65
 20
1247.614
 30
0
 40
35.0
 50
180.0
 51
270.0
210
0
220
0
230
1.0
 0
LINE
 8
TOOL_0
 5
122
 10
5412.65
 20
1212.614
 30
0
 11
5567.65
 21
1212.614
 31
0
 0
ARC
 8
TOOL_0
 5
123
 10
5567.65
 20
1247.614
 30
0
 40
35.0
 50
270.0
 51
0
210
0
220
0
230
1.0
 0
LINE
 8
TOOL_0
 5
124
 10
5602.65
 20
1247.614
 30
0
 11
5602.65
 21
1380.114
 31
0
 0
LINE
 8
TOOL_0
 5
125
 10
5602.65
 20
1380.114
 30
0
 11
5770.35
 21
802.303
 31
0
 0
LINE
 8
TOOL_0
 5
126
 10
5770.35
 20
802.303
 30
0
 11
5793.4
 21
749.364
 31
0
 0
LINE
 8
TOOL_0
 5
127
 10
5793.4
 20
749.364
 30
0
 11
5793.4
 21
678.303
 31
0
 0
LINE
 8
TOOL_0
 5
128
 10
5793.4
 20
678.303
 30
0
 11
5782.961
 21
667.864
 31
0
 0
LINE
 8
TOOL_0
 5
129
 10
5782.961
 20
667.864
 30
0
 11
5661.311
 21
667.864
 31
0
 0
ARC
 8
TOOL_0
 5
12A
 10
5661.328
 20
658.586
 30
0
 40
9.278015574464
 50
90.104982448985
 51
152.542881653088
210
0
220
0
230
1.0
 0
LINE
 8
TOOL_0
 5
12B
 10
5653.095
 20
662.864
 30
0
 11
3491.901
 21
662.864
 31
0
 0
LINE
 8
TOOL_0
 5
12C
 10
3491.901
 20
662.864
 30
0
 11
3491.901
 21
1510.403
 31
0
 0
ARC
 8
TOOL_0
 5
12D
 10
3500.651
 20
1510.403
 30
0
 40
8.75
 50
90.0
 51
180.0
210
0
220
0
230
1.0
 0
LINE
 8
TOOL_0
 5
12E
 10
3500.651
 20
1519.153
 30
0
 11
3781.815
 21
1519.153
 31
0
 0
ARC
 8
TOOL_0
 5
12F
 10
3781.726
 20
1619.226
 30
0
 40
100.073039576102
 50
270.050956032419
 51
282.296736662343
210
0
220
0
230
1.0
 0
LINE
 8
TOOL_0
 5
130
 10
3803.039
 20
1521.449
 30
0
 11
4655.37
 21
1708.364
 31
0
 0
LINE
 8
TOOL_0
 5
131
 10
4655.37
 20
1708.364
 30
0
 11
5605.712
 21
1708.364
 31
0
 0
ARC
 8
TOOL_0
 5
132
 10
5605.712
 20
1607.614
 30
0
 40
100.75
 50
24.219499526368
 51
90.0
210
0
220
0
230
1.0
 0
LINE
 8
TOOL_0
 5
133
 10
5697.594
 20
1648.945
 30
0
 11
5793.401
 21
1435.774
 31
0
 0
LINE
 8
TOOL_0
 5
134
 10
5793.401
 20
1435.774
 30
0
 11
5793.401
 21
907.863
 31
0
 0
LINE
 8
TOOL_0
 5
135
 10
5793.401
 20
907.863
 30
0
 11
5772.651
 21
907.863
 31
0
 0
ARC
 8
TOOL_0
 5
136
 10
5772.651
 20
828.613
 30
0
 40
79.25
 50
90.0
 51
270.0
210
0
220
0
230
1.0
 0
LINE
 8
TOOL_0
 5
137
 10
5772.651
 20
749.363
 30
0
 11
5793.401
 21
749.363
 31
0
 0
LINE
 8
TOOL_0
 5
138
 10
5793.401
 20
749.363
 30
0
 11
5797.082
 21
749.13
 31
0
 0
LINE
 8
TOOL_0
 5
139
 10
5797.082
 20
749.13
 30
0
 11
3585.454
 21
2132.403
 31
0
 0
LINE
 8
TOOL_0
 5
13A
 10
3585.454
 20
2132.403
 30
0
 11
3630.454
 21
2132.403
 31
0
 0
LINE
 8
TOOL_0
 5
13B
 10
3630.454
 20
2132.403
 30
0
 11
3630.454
 21
2297.403
 31
0
 0
ARC
 8
TOOL_0
 5
13C
 10
3595.454
 20
2297.403
 30
0
 40
35.0
 50
0
 51
90.0
210
0
220
0
230
1.0
 0
LINE
 8
TOOL_0
 5
13D
 10
3595.454
 20
2332.403
 30
0
 11
3440.454
 21
2332.403
 31
0
 0
ARC
 8
TOOL_0
 5
13E
 10
3440.454
 20
2297.403
 30
0
 40
35.0
 50
90.0
 51
180.0
210
0
220
0
230
1.0
 0
LINE
 8
TOOL_0
 5
13F
 10
3405.454
 20
2297.403
 30
0
 11
3405.454
 21
1967.403
 31
0
 0
ARC
 8
TOOL_0
 5
140
 10
3440.454
 20
1967.403
 30
0
 40
35.0
 50
180.0
 51
270.0
210
0
220
0
230
1.0
 0
LINE
 8
TOOL_0
 5
141
 10
3440.454
 20
1932.403
 30
0
 11
3595.454
 21
1932.403
 31
0
 0
ARC
 8
TOOL_0
 5
142
 10
3595.454
 20
1967.403
 30
0
 40
35.0
 50
270.0
 51
0
210
0
220
0
230
1.0
 0
LINE
 8
TOOL_0
 5
143
 10
3630.454
 20
1967.403
 30
0
 11
3630.454
 21
2132.403
 31
0
 0
LINE
 8
TOOL_0
 5
144
 10
3630.454
 20
2132.403
 30
0
 11
4330.454
 21
2132.403
 31
0
 0
LINE
 8
TOOL_0
 5
145
 10
4330.454
 20
2132.403
 30
0
 11
4375.454
 21
2132.403
 31
0
 0
LINE
 8
TOOL_0
 5
146
 10
4375.454
 20
2132.403
 30
0
 11
4375.454
 21
2297.403
 31
0
 0
ARC
 8
TOOL_0
 5
147
 10
4340.454
 20
2297.403
 30
0
 40
35.0
 50
0
 51
90.0
210
0
220
0
230
1.0
 0
LINE
 8
TOOL_0
 5
148
 10
4340.454
 20
2332.403
 30
0
 11
4185.454
 21
2332.403
 31
0
 0
ARC
 8
TOOL_0
 5
149
 10
4185.454
 20
2297.403
 30
0
 40
35.0
 50
90.0
 51
180.0
210
0
220
0
230
1.0
 0
LINE
 8
TOOL_0
 5
14A
 10
4150.454
 20
2297.403
 30
0
 11
4150.454
 21
1967.403
 31
0
 0
ARC
 8
TOOL_0
 5
14B
 10
4185.454
 20
1967.403
 30
0
 40
35.0
 50
180.0
 51
270.0
210
0
220
0
230
1.0
 0
LINE
 8
TOOL_0
 5
14C
 10
4185.454
 20
1932.403
 30
0
 11
4340.454
 21
1932.403
 31
0
 0
ARC
 8
TOOL_0
 5
14D
 10
4340.454
 20
1967.403
 30
0
 40
35.0
 50
270.0
 51
0
210
0
220
0
230
1.0
 0
LINE
 8
TOOL_0
 5
14E
 10
4375.454
 20
1967.403
 30
0
 11
4375.454
 21
2132.403
 31
0
 0
LINE
 8
TOOL_0
 5
14F
 10
4375.454
 20
2132.403
 30
0
 11
3049.224
 21
2339.049
 31
0
 0
LINE
 8
TOOL_0
 5
150
 10
3049.224
 20
2339.049
 30
0
 11
3043.954
 21
2382.403
 31
0
 0
LINE
 8
TOOL_0
 5
151
 10
3043.954
 20
2382.403
 30
0
 11
3043.954
 21
2452.317
 31
0
 0
LINE
 8
TOOL_0
 5
152
 10
3043.954
 20
2452.317
 30
0
 11
3055.04
 21
2463.403
 31
0
 0
LINE
 8
TOOL_0
 5
153
 10
3055.04
 20
2463.403
 30
0
 11
3185.454
 21
2463.403
 31
0
 0
ARC
 8
TOOL_0
 5
154
 10
3185.42
 20
2472.458
 30
0
 40
9.055063831912
 50
270.215134991548
 51
333.395331062991
210
0
220
0
230
1.0
 0
LINE
 8
TOOL_0
 5
155
 10
3193.516
 20
2468.403
 30
0
 11
5786.954
 21
2468.403
 31
0
 0
LINE
 8
TOOL_0
 5
156
 10
5786.954
 20
2468.403
 30
0
 11
5786.954
 21
2049.403
 31
0
 0
ARC
 8
TOOL_0
 5
157
 10
5778.954
 20
2049.403
 30
0
 40
8.0
 50
270.0
 51
0
210
0
220
0
230
1.0
 0
LINE
 8
TOOL_0
 5
158
 10
5778.954
 20
2041.403
 30
0
 11
5501.409
 21
2041.403
 31
0
 0
ARC
 8
TOOL_0
 5
159
 10
5501.409
 20
1942.403
 30
0
 40
99.0
 50
90.0
 51
108.130410810383
210
0
220
0
230
1.0
 0
LINE
 8
TOOL_0
 5
15A
 10
5470.602
 20
2036.488
 30
0
 11
4328.127
 21
1662.403
 31
0
 0
LINE
 8
TOOL_0
 5
15B
 10
4328.127
 20
1662.403
 30
0
 11
3433.954
 21
1662.403
 31
0
 0
LINE
 8
TOOL_0
 5
15C
 10
3433.954
 20
1662.403
 30
0
 11
3433.954
 21
1706.403
 31
0
 0
ARC
 8
TOOL_0
 5
15D
 10
3383.954
 20
1706.403
 30
0
 40
50.0
 50
0
 51
90.0
210
0
220
0
230
1.0
 0
LINE
 8
TOOL_0
 5
15E
 10
3383.954
 20
1756.403
 30
0
 11
3367.209
 21
1756.403
 31
0
 0
ARC
 8
TOOL_0
 5
15F
 10
3367.254
 20
1806.499
 30
0
 40
50.09602021119
 50
220.050857040858
 51
269.948532629659
210
0
220
0
230
1.0
 0
LINE
 8
TOOL_0
 5
160
 10
3328.907
 20
1774.264
 30
0
 11
3043.954
 21
2113.857
 31
0
 0
LINE
 8
TOOL_0
 5
161
 10
3043.954
 20
2113.857
 30
0
 11
3043.954
 21
2222.403
 31
0
 0
LINE
 8
TOOL_0
 5
162
 10
3043.954
 20
2222.403
 30
0
 11
3065.454
 21
2222.403
 31
0
 0
ARC
 8
TOOL_0
 5
163
 10
3065.454
 20
2302.403
 30
0
 40
80.0
 50
270.0
 51
90.0
210
0
220
0
230
1.0
 0
LINE
 8
TOOL_0
 5
164
 10
3065.454
 20
2382.403
 30
0
 11
3043.954
 21
2382.403
 31
0
 0
LINE
 8
TOOL_0
 5
165
 10
3043.954
 20
2382.403
 30
0
 11
3034.61
 21
2382.258
 31
0
 0
ENDSEC
 0
EOF

