0
SECTION
2
TABLES
0
TABLE
2
LAYER
70
0
0
LAYER
2
LAYER_NAME
70
0
62
1
6
CONTINUOUS
0
ENDTAB
0
ENDSEC
 0
SECTION
 2
ENTITIES
 0
LINE
 8
TOOL_0
 5
1
 10
2202.84
 20
243.358
 30
0
 11
2232.84
 21
243.358
 31
0
 0
ARC
 8
TOOL_0
 5
2
 10
2172.84
 20
243.358
 30
0
 40
60.0
 50
0
 51
180.0
210
0
220
0
230
1.0
 0
ARC
 8
TOOL_0
 5
3
 10
2172.84
 20
243.358
 30
0
 40
60.0
 50
180.0
 51
0
210
0
220
0
230
1.0
 0
LINE
 8
TOOL_0
 5
4
 10
2232.84
 20
243.358
 30
0
 11
2229.304
 21
246.894
 31
0
 0
LINE
 8
TOOL_0
 5
5
 10
2229.304
 20
246.894
 30
0
 11
2582.347
 21
60.133
 31
0
 0
LINE
 8
TOOL_0
 5
6
 10
2582.347
 20
60.133
 30
0
 11
2576.09
 21
30.358
 31
0
 0
ARC
 8
TOOL_0
 5
7
 10
2565.84
 20
30.358
 30
0
 40
10.25
 50
270.0
 51
0
210
0
220
0
230
1.0
 0
LINE
 8
TOOL_0
 5
8
 10
2565.84
 20
20.108
 30
0
 11
2046.84
 21
20.108
 31
0
 0
ARC
 8
TOOL_0
 5
9
 10
2046.84
 20
30.358
 30
0
 40
10.25
 50
180.0
 51
270.0
210
0
220
0
230
1.0
 0
LINE
 8
TOOL_0
 5
A
 10
2036.59
 20
30.358
 30
0
 11
2036.59
 21
456.358
 31
0
 0
ARC
 8
TOOL_0
 5
B
 10
2046.84
 20
456.358
 30
0
 40
10.25
 50
90.0
 51
180.0
210
0
220
0
230
1.0
 0
LINE
 8
TOOL_0
 5
C
 10
2046.84
 20
466.608
 30
0
 11
2565.84
 21
466.608
 31
0
 0
ARC
 8
TOOL_0
 5
D
 10
2565.84
 20
456.358
 30
0
 40
10.25
 50
0
 51
90.0
210
0
220
0
230
1.0
 0
LINE
 8
TOOL_0
 5
E
 10
2576.09
 20
456.358
 30
0
 11
2576.09
 21
30.358
 31
0
 0
LINE
 8
TOOL_0
 5
F
 10
2576.09
 20
30.358
 30
0
 11
2579.534
 21
26.458
 31
0
 0
LINE
 8
TOOL_0
 5
10
 10
2579.534
 20
26.458
 30
0
 11
2762.619
 21
243.358
 31
0
 0
LINE
 8
TOOL_0
 5
11
 10
2762.619
 20
243.358
 30
0
 11
2792.619
 21
243.358
 31
0
 0
ARC
 8
TOOL_0
 5
12
 10
2732.619
 20
243.358
 30
0
 40
60.0
 50
0
 51
180.0
210
0
220
0
230
1.0
 0
ARC
 8
TOOL_0
 5
13
 10
2732.619
 20
243.358
 30
0
 40
60.0
 50
180.0
 51
0
210
0
220
0
230
1.0
 0
LINE
 8
TOOL_0
 5
14
 10
2792.619
 20
243.358
 30
0
 11
2789.083
 21
246.894
 31
0
 0
LINE
 8
TOOL_0
 5
15
 10
2789.083
 20
246.894
 30
0
 11
3142.125
 21
60.133
 31
0
 0
LINE
 8
TOOL_0
 5
16
 10
3142.125
 20
60.133
 30
0
 11
3135.868
 21
30.358
 31
0
 0
ARC
 8
TOOL_0
 5
17
 10
3125.618
 20
30.358
 30
0
 40
10.25
 50
270.0
 51
0
210
0
220
0
230
1.0
 0
LINE
 8
TOOL_0
 5
18
 10
3125.618
 20
20.108
 30
0
 11
2606.618
 21
20.108
 31
0
 0
ARC
 8
TOOL_0
 5
19
 10
2606.618
 20
30.358
 30
0
 40
10.25
 50
180.0
 51
270.0
210
0
220
0
230
1.0
 0
LINE
 8
TOOL_0
 5
1A
 10
2596.368
 20
30.358
 30
0
 11
2596.368
 21
456.358
 31
0
 0
ARC
 8
TOOL_0
 5
1B
 10
2606.618
 20
456.358
 30
0
 40
10.25
 50
90.0
 51
180.0
210
0
220
0
230
1.0
 0
LINE
 8
TOOL_0
 5
1C
 10
2606.618
 20
466.608
 30
0
 11
3125.618
 21
466.608
 31
0
 0
ARC
 8
TOOL_0
 5
1D
 10
3125.618
 20
456.358
 30
0
 40
10.25
 50
0
 51
90.0
210
0
220
0
230
1.0
 0
LINE
 8
TOOL_0
 5
1E
 10
3135.868
 20
456.358
 30
0
 11
3135.868
 21
30.358
 31
0
 0
LINE
 8
TOOL_0
 5
1F
 10
3135.868
 20
30.358
 30
0
 11
3139.312
 21
26.458
 31
0
 0
LINE
 8
TOOL_0
 5
20
 10
3139.312
 20
26.458
 30
0
 11
3139.312
 21
0
 31
0
 0
LINE
 8
TOOL_0
 5
21
 10
3139.312
 20
0
 30
0
 11
3409.538
 21
156.363
 31
0
 0
LINE
 8
TOOL_0
 5
22
 10
3409.538
 20
156.363
 30
0
 11
3439.538
 21
156.363
 31
0
 0
ARC
 8
TOOL_0
 5
23
 10
3379.538
 20
156.363
 30
0
 40
60.0
 50
0
 51
180.0
210
0
220
0
230
1.0
 0
ARC
 8
TOOL_0
 5
24
 10
3379.538
 20
156.363
 30
0
 40
60.0
 50
180.0
 51
0
210
0
220
0
230
1.0
 0
LINE
 8
TOOL_0
 5
25
 10
3439.538
 20
156.363
 30
0
 11
3436.002
 21
159.899
 31
0
 0
LINE
 8
TOOL_0
 5
26
 10
3436.002
 20
159.899
 30
0
 11
3634.785
 21
23.116
 31
0
 0
LINE
 8
TOOL_0
 5
27
 10
3634.785
 20
23.116
 30
0
 11
3599.785
 21
23.116
 31
0
 0
ARC
 8
TOOL_0
 5
28
 10
3592.537
 20
30.364
 30
0
 40
10.25021990008
 50
270.0
 51
315.0
210
0
220
0
230
1.0
 0
LINE
 8
TOOL_0
 5
29
 10
3592.537
 20
20.114
 30
0
 11
3166.537
 21
20.114
 31
0
 0
ARC
 8
TOOL_0
 5
2A
 10
3166.537
 20
30.364
 30
0
 40
10.25
 50
180.0
 51
270.0
210
0
220
0
230
1.0
 0
LINE
 8
TOOL_0
 5
2B
 10
3156.287
 20
30.364
 30
0
 11
3156.287
 21
549.364
 31
0
 0
ARC
 8
TOOL_0
 5
2C
 10
3166.537
 20
549.364
 30
0
 40
10.25
 50
90.0
 51
180.0
210
0
220
0
230
1.0
 0
LINE
 8
TOOL_0
 5
2D
 10
3166.537
 20
559.614
 30
0
 11
3592.537
 21
559.614
 31
0
 0
ARC
 8
TOOL_0
 5
2E
 10
3592.537
 20
549.364
 30
0
 40
10.25
 50
0
 51
90.0
210
0
220
0
230
1.0
 0
LINE
 8
TOOL_0
 5
2F
 10
3602.787
 20
549.364
 30
0
 11
3602.787
 21
30.364
 31
0
 0
ARC
 8
TOOL_0
 5
30
 10
3592.537
 20
30.364
 30
0
 40
10.25
 50
315.0
 51
0
210
0
220
0
230
1.0
 0
LINE
 8
TOOL_0
 5
31
 10
3599.785
 20
23.116
 30
0
 11
3599.785
 21
18.116
 31
0
 0
LINE
 8
TOOL_0
 5
32
 10
3599.785
 20
18.116
 30
0
 11
2221.444
 21
949.216
 31
0
 0
LINE
 8
TOOL_0
 5
33
 10
2221.444
 20
949.216
 30
0
 11
2191.126
 21
952.619
 31
0
 0
LINE
 8
TOOL_0
 5
34
 10
2191.126
 20
952.619
 30
0
 11
2063.126
 21
952.619
 31
0
 0
ARC
 8
TOOL_0
 5
35
 10
2063.126
 20
985.319
 30
0
 40
32.7
 50
180.0
 51
270.0
210
0
220
0
230
1.0
 0
LINE
 8
TOOL_0
 5
36
 10
2030.426
 20
985.319
 30
0
 11
2030.426
 21
1219.319
 31
0
 0
ARC
 8
TOOL_0
 5
37
 10
2063.126
 20
1219.319
 30
0
 40
32.7
 50
90.0
 51
180.0
210
0
220
0
230
1.0
 0
LINE
 8
TOOL_0
 5
38
 10
2063.126
 20
1252.019
 30
0
 11
2191.126
 21
1252.019
 31
0
 0
ARC
 8
TOOL_0
 5
39
 10
2191.126
 20
1219.319
 30
0
 40
32.7
 50
0
 51
90.0
210
0
220
0
230
1.0
 0
LINE
 8
TOOL_0
 5
3A
 10
2223.826
 20
1219.319
 30
0
 11
2223.826
 21
985.319
 31
0
 0
ARC
 8
TOOL_0
 5
3B
 10
2191.126
 20
985.319
 30
0
 40
32.7
 50
270.0
 51
0
210
0
220
0
230
1.0
 0
LINE
 8
TOOL_0
 5
3C
 10
2191.126
 20
952.619
 30
0
 11
2186.61
 21
950.076
 31
0
 0
LINE
 8
TOOL_0
 5
3D
 10
2186.61
 20
950.076
 30
0
 11
2433.176
 21
951.298
 31
0
 0
LINE
 8
TOOL_0
 5
3E
 10
2433.176
 20
951.298
 30
0
 11
2402.859
 21
954.701
 31
0
 0
LINE
 8
TOOL_0
 5
3F
 10
2402.859
 20
954.701
 30
0
 11
2274.859
 21
954.701
 31
0
 0
ARC
 8
TOOL_0
 5
40
 10
2274.859
 20
987.401
 30
0
 40
32.7
 50
180.0
 51
270.0
210
0
220
0
230
1.0
 0
LINE
 8
TOOL_0
 5
41
 10
2242.159
 20
987.401
 30
0
 11
2242.159
 21
1221.401
 31
0
 0
ARC
 8
TOOL_0
 5
42
 10
2274.859
 20
1221.401
 30
0
 40
32.7
 50
90.0
 51
180.0
210
0
220
0
230
1.0
 0
LINE
 8
TOOL_0
 5
43
 10
2274.859
 20
1254.101
 30
0
 11
2402.859
 21
1254.101
 31
0
 0
ARC
 8
TOOL_0
 5
44
 10
2402.859
 20
1221.401
 30
0
 40
32.7
 50
0
 51
90.0
210
0
220
0
230
1.0
 0
LINE
 8
TOOL_0
 5
45
 10
2435.559
 20
1221.401
 30
0
 11
2435.559
 21
987.401
 31
0
 0
ARC
 8
TOOL_0
 5
46
 10
2402.859
 20
987.401
 30
0
 40
32.7
 50
270.0
 51
0
210
0
220
0
230
1.0
 0
LINE
 8
TOOL_0
 5
47
 10
2402.859
 20
954.701
 30
0
 11
2398.343
 21
952.158
 31
0
 0
LINE
 8
TOOL_0
 5
48
 10
2398.343
 20
952.158
 30
0
 11
2644.91
 21
949.215
 31
0
 0
LINE
 8
TOOL_0
 5
49
 10
2644.91
 20
949.215
 30
0
 11
2614.593
 21
952.618
 31
0
 0
LINE
 8
TOOL_0
 5
4A
 10
2614.593
 20
952.618
 30
0
 11
2486.593
 21
952.618
 31
0
 0
ARC
 8
TOOL_0
 5
4B
 10
2486.593
 20
985.318
 30
0
 40
32.7
 50
180.0
 51
270.0
210
0
220
0
230
1.0
 0
LINE
 8
TOOL_0
 5
4C
 10
2453.893
 20
985.318
 30
0
 11
2453.893
 21
1219.318
 31
0
 0
ARC
 8
TOOL_0
 5
4D
 10
2486.593
 20
1219.318
 30
0
 40
32.7
 50
90.0
 51
180.0
210
0
220
0
230
1.0
 0
LINE
 8
TOOL_0
 5
4E
 10
2486.593
 20
1252.018
 30
0
 11
2614.593
 21
1252.018
 31
0
 0
ARC
 8
TOOL_0
 5
4F
 10
2614.593
 20
1219.318
 30
0
 40
32.7
 50
0
 51
90.0
210
0
220
0
230
1.0
 0
LINE
 8
TOOL_0
 5
50
 10
2647.293
 20
1219.318
 30
0
 11
2647.293
 21
985.318
 31
0
 0
ARC
 8
TOOL_0
 5
51
 10
2614.593
 20
985.318
 30
0
 40
32.7
 50
270.0
 51
0
210
0
220
0
230
1.0
 0
LINE
 8
TOOL_0
 5
52
 10
2614.593
 20
952.618
 30
0
 11
2610.077
 21
950.075
 31
0
 0
LINE
 8
TOOL_0
 5
53
 10
2610.077
 20
950.075
 30
0
 11
2856.643
 21
949.214
 31
0
 0
LINE
 8
TOOL_0
 5
54
 10
2856.643
 20
949.214
 30
0
 11
2826.326
 21
952.618
 31
0
 0
LINE
 8
TOOL_0
 5
55
 10
2826.326
 20
952.618
 30
0
 11
2698.326
 21
952.618
 31
0
 0
ARC
 8
TOOL_0
 5
56
 10
2698.326
 20
985.318
 30
0
 40
32.7
 50
180.0
 51
270.0
210
0
220
0
230
1.0
 0
LINE
 8
TOOL_0
 5
57
 10
2665.626
 20
985.318
 30
0
 11
2665.626
 21
1219.318
 31
0
 0
ARC
 8
TOOL_0
 5
58
 10
2698.326
 20
1219.318
 30
0
 40
32.7
 50
90.0
 51
180.0
210
0
220
0
230
1.0
 0
LINE
 8
TOOL_0
 5
59
 10
2698.326
 20
1252.018
 30
0
 11
2826.326
 21
1252.018
 31
0
 0
ARC
 8
TOOL_0
 5
5A
 10
2826.326
 20
1219.318
 30
0
 40
32.7
 50
0
 51
90.0
210
0
220
0
230
1.0
 0
LINE
 8
TOOL_0
 5
5B
 10
2859.026
 20
1219.318
 30
0
 11
2859.026
 21
985.318
 31
0
 0
ARC
 8
TOOL_0
 5
5C
 10
2826.326
 20
985.318
 30
0
 40
32.7
 50
270.0
 51
0
210
0
220
0
230
1.0
 0
LINE
 8
TOOL_0
 5
5D
 10
2826.326
 20
952.618
 30
0
 11
2821.81
 21
950.075
 31
0
 0
LINE
 8
TOOL_0
 5
5E
 10
2821.81
 20
950.075
 30
0
 11
3068.377
 21
949.215
 31
0
 0
LINE
 8
TOOL_0
 5
5F
 10
3068.377
 20
949.215
 30
0
 11
3038.06
 21
952.618
 31
0
 0
LINE
 8
TOOL_0
 5
60
 10
3038.06
 20
952.618
 30
0
 11
2910.06
 21
952.618
 31
0
 0
ARC
 8
TOOL_0
 5
61
 10
2910.06
 20
985.318
 30
0
 40
32.7
 50
180.0
 51
270.0
210
0
220
0
230
1.0
 0
LINE
 8
TOOL_0
 5
62
 10
2877.36
 20
985.318
 30
0
 11
2877.36
 21
1219.318
 31
0
 0
ARC
 8
TOOL_0
 5
63
 10
2910.06
 20
1219.318
 30
0
 40
32.7
 50
90.0
 51
180.0
210
0
220
0
230
1.0
 0
LINE
 8
TOOL_0
 5
64
 10
2910.06
 20
1252.018
 30
0
 11
3038.06
 21
1252.018
 31
0
 0
ARC
 8
TOOL_0
 5
65
 10
3038.06
 20
1219.318
 30
0
 40
32.7
 50
0
 51
90.0
210
0
220
0
230
1.0
 0
LINE
 8
TOOL_0
 5
66
 10
3070.76
 20
1219.318
 30
0
 11
3070.76
 21
985.318
 31
0
 0
ARC
 8
TOOL_0
 5
67
 10
3038.06
 20
985.318
 30
0
 40
32.7
 50
270.0
 51
0
210
0
220
0
230
1.0
 0
LINE
 8
TOOL_0
 5
68
 10
3038.06
 20
952.618
 30
0
 11
3033.544
 21
950.075
 31
0
 0
LINE
 8
TOOL_0
 5
69
 10
3033.544
 20
950.075
 30
0
 11
3280.111
 21
949.215
 31
0
 0
LINE
 8
TOOL_0
 5
6A
 10
3280.111
 20
949.215
 30
0
 11
3249.793
 21
952.618
 31
0
 0
LINE
 8
TOOL_0
 5
6B
 10
3249.793
 20
952.618
 30
0
 11
3121.793
 21
952.618
 31
0
 0
ARC
 8
TOOL_0
 5
6C
 10
3121.793
 20
985.318
 30
0
 40
32.7
 50
180.0
 51
270.0
210
0
220
0
230
1.0
 0
LINE
 8
TOOL_0
 5
6D
 10
3089.093
 20
985.318
 30
0
 11
3089.093
 21
1219.318
 31
0
 0
ARC
 8
TOOL_0
 5
6E
 10
3121.793
 20
1219.318
 30
0
 40
32.7
 50
90.0
 51
180.0
210
0
220
0
230
1.0
 0
LINE
 8
TOOL_0
 5
6F
 10
3121.793
 20
1252.018
 30
0
 11
3249.793
 21
1252.018
 31
0
 0
ARC
 8
TOOL_0
 5
70
 10
3249.793
 20
1219.318
 30
0
 40
32.7
 50
0
 51
90.0
210
0
220
0
230
1.0
 0
LINE
 8
TOOL_0
 5
71
 10
3282.493
 20
1219.318
 30
0
 11
3282.493
 21
985.318
 31
0
 0
ARC
 8
TOOL_0
 5
72
 10
3249.793
 20
985.318
 30
0
 40
32.7
 50
270.0
 51
0
210
0
220
0
230
1.0
 0
LINE
 8
TOOL_0
 5
73
 10
3249.793
 20
952.618
 30
0
 11
3245.277
 21
950.075
 31
0
 0
LINE
 8
TOOL_0
 5
74
 10
3245.277
 20
950.075
 30
0
 11
3346.19
 21
576.478
 31
0
 0
LINE
 8
TOOL_0
 5
75
 10
3346.19
 20
576.478
 30
0
 11
3315.873
 21
579.881
 31
0
 0
LINE
 8
TOOL_0
 5
76
 10
3315.873
 20
579.881
 30
0
 11
3187.873
 21
579.881
 31
0
 0
ARC
 8
TOOL_0
 5
77
 10
3187.873
 20
612.581
 30
0
 40
32.7
 50
180.0
 51
270.0
210
0
220
0
230
1.0
 0
LINE
 8
TOOL_0
 5
78
 10
3155.173
 20
612.581
 30
0
 11
3155.173
 21
846.581
 31
0
 0
ARC
 8
TOOL_0
 5
79
 10
3187.873
 20
846.581
 30
0
 40
32.7
 50
90.0
 51
180.0
210
0
220
0
230
1.0
 0
LINE
 8
TOOL_0
 5
7A
 10
3187.873
 20
879.281
 30
0
 11
3315.873
 21
879.281
 31
0
 0
ARC
 8
TOOL_0
 5
7B
 10
3315.873
 20
846.581
 30
0
 40
32.7
 50
0
 51
90.0
210
0
220
0
230
1.0
 0
LINE
 8
TOOL_0
 5
7C
 10
3348.573
 20
846.581
 30
0
 11
3348.573
 21
612.581
 31
0
 0
ARC
 8
TOOL_0
 5
7D
 10
3315.873
 20
612.581
 30
0
 40
32.7
 50
270.0
 51
0
210
0
220
0
230
1.0
 0
LINE
 8
TOOL_0
 5
7E
 10
3315.873
 20
579.881
 30
0
 11
3311.357
 21
577.338
 31
0
 0
LINE
 8
TOOL_0
 5
7F
 10
3311.357
 20
577.338
 30
0
 11
3557.924
 21
575.436
 31
0
 0
LINE
 8
TOOL_0
 5
80
 10
3557.924
 20
575.436
 30
0
 11
3527.606
 21
578.84
 31
0
 0
LINE
 8
TOOL_0
 5
81
 10
3527.606
 20
578.84
 30
0
 11
3399.606
 21
578.84
 31
0
 0
ARC
 8
TOOL_0
 5
82
 10
3399.606
 20
611.54
 30
0
 40
32.7
 50
180.0
 51
270.0
210
0
220
0
230
1.0
 0
LINE
 8
TOOL_0
 5
83
 10
3366.906
 20
611.54
 30
0
 11
3366.906
 21
845.54
 31
0
 0
ARC
 8
TOOL_0
 5
84
 10
3399.606
 20
845.54
 30
0
 40
32.7
 50
90.0
 51
180.0
210
0
220
0
230
1.0
 0
LINE
 8
TOOL_0
 5
85
 10
3399.606
 20
878.24
 30
0
 11
3527.606
 21
878.24
 31
0
 0
ARC
 8
TOOL_0
 5
86
 10
3527.606
 20
845.54
 30
0
 40
32.7
 50
0
 51
90.0
210
0
220
0
230
1.0
 0
LINE
 8
TOOL_0
 5
87
 10
3560.306
 20
845.54
 30
0
 11
3560.306
 21
611.54
 31
0
 0
ARC
 8
TOOL_0
 5
88
 10
3527.606
 20
611.54
 30
0
 40
32.7
 50
270.0
 51
0
210
0
220
0
230
1.0
 0
LINE
 8
TOOL_0
 5
89
 10
3527.606
 20
578.84
 30
0
 11
3523.09
 21
576.297
 31
0
 0
LINE
 8
TOOL_0
 5
8A
 10
3523.09
 20
576.297
 30
0
 11
3658.077
 21
-0.001
 31
0
 0
LINE
 8
TOOL_0
 5
8B
 10
3658.077
 20
-0.001
 30
0
 11
3658.077
 21
0.999
 31
0
 0
LINE
 8
TOOL_0
 5
8C
 10
3658.077
 20
0.999
 30
0
 11
3658.077
 21
-0.001
 31
0
 0
LINE
 8
TOOL_0
 5
8D
 10
3658.077
 20
-0.001
 30
0
 11
3658.077
 21
0.999
 31
0
 0
LINE
 8
TOOL_0
 5
8E
 10
3658.077
 20
0.999
 30
0
 11
3658.077
 21
915.96
 31
0
 0
LINE
 8
TOOL_0
 5
8F
 10
3658.077
 20
915.96
 30
0
 11
3318.804
 21
915.96
 31
0
 0
LINE
 8
TOOL_0
 5
90
 10
3318.804
 20
915.96
 30
0
 11
3318.804
 21
1394.999
 31
0
 0
LINE
 8
TOOL_0
 5
91
 10
3318.804
 20
1394.999
 30
0
 11
3318.804
 21
1395.999
 31
0
 0
ENDSEC
 0
EOF

