0
SECTION
2
TABLES
0
TABLE
2
LAYER
70
0
0
LAYER
2
LAYER_NAME
70
0
62
1
6
CONTINUOUS
0
ENDTAB
0
ENDSEC
 0
SECTION
 2
ENTITIES
 0
LINE
 8
TOOL_0
 5
1
 10
186.114
 20
217.978
 30
0
 11
216.114
 21
217.978
 31
0
 0
ARC
 8
TOOL_0
 5
2
 10
159.614
 20
217.978
 30
0
 40
56.5
 50
0
 51
180.0
210
0
220
0
230
1.0
 0
ARC
 8
TOOL_0
 5
3
 10
159.614
 20
217.978
 30
0
 40
56.5
 50
180.0
 51
0
210
0
220
0
230
1.0
 0
LINE
 8
TOOL_0
 5
4
 10
216.114
 20
217.978
 30
0
 11
212.578
 21
221.514
 31
0
 0
LINE
 8
TOOL_0
 5
5
 10
212.578
 20
221.514
 30
0
 11
277.602
 21
32.05
 31
0
 0
LINE
 8
TOOL_0
 5
6
 10
277.602
 20
32.05
 30
0
 11
259.925
 21
49.728
 31
0
 0
LINE
 8
TOOL_0
 5
7
 10
259.925
 20
49.728
 30
0
 11
212.614
 21
49.728
 31
0
 0
LINE
 8
TOOL_0
 5
8
 10
212.614
 20
49.728
 30
0
 11
212.614
 21
11.379
 31
0
 0
LINE
 8
TOOL_0
 5
9
 10
212.614
 20
11.379
 30
0
 11
211.806
 21
9.427
 31
0
 0
LINE
 8
TOOL_0
 5
A
 10
211.806
 20
9.427
 30
0
 11
210.665
 21
8.286
 31
0
 0
LINE
 8
TOOL_0
 5
B
 10
210.665
 20
8.286
 30
0
 11
208.713
 21
7.478
 31
0
 0
LINE
 8
TOOL_0
 5
C
 10
208.713
 20
7.478
 30
0
 11
110.514
 21
7.478
 31
0
 0
LINE
 8
TOOL_0
 5
D
 10
110.514
 20
7.478
 30
0
 11
108.562
 21
8.286
 31
0
 0
LINE
 8
TOOL_0
 5
E
 10
108.562
 20
8.286
 30
0
 11
107.421
 21
9.427
 31
0
 0
LINE
 8
TOOL_0
 5
F
 10
107.421
 20
9.427
 30
0
 11
106.613
 21
11.379
 31
0
 0
LINE
 8
TOOL_0
 5
10
 10
106.613
 20
11.379
 30
0
 11
106.613
 21
49.728
 31
0
 0
LINE
 8
TOOL_0
 5
11
 10
106.613
 20
49.728
 30
0
 11
59.302
 21
49.728
 31
0
 0
LINE
 8
TOOL_0
 5
12
 10
59.302
 20
49.728
 30
0
 11
56.363
 21
52.667
 31
0
 0
LINE
 8
TOOL_0
 5
13
 10
56.363
 20
52.667
 30
0
 11
56.363
 21
105.408
 31
0
 0
ARC
 8
TOOL_0
 5
14
 10
159.613
 20
217.978
 30
0
 40
152.750016039279
 50
89.99962490488
 51
227.472732329202
210
0
220
0
230
1.0
 0
ARC
 8
TOOL_0
 5
15
 10
159.613
 20
217.978
 30
0
 40
152.750000003273
 50
312.527267670798
 51
89.99962490488
210
0
220
0
230
1.0
 0
LINE
 8
TOOL_0
 5
16
 10
262.863
 20
105.408
 30
0
 11
262.863
 21
52.667
 31
0
 0
LINE
 8
TOOL_0
 5
17
 10
262.863
 20
52.667
 30
0
 11
259.924
 21
49.728
 31
0
 0
LINE
 8
TOOL_0
 5
18
 10
259.924
 20
49.728
 30
0
 11
256.388
 21
46.192
 31
0
 0
LINE
 8
TOOL_0
 5
19
 10
256.388
 20
46.192
 30
0
 11
342.641
 21
-0.001
 31
0
 0
LINE
 8
TOOL_0
 5
1A
 10
342.641
 20
-0.001
 30
0
 11
342.641
 21
0.999
 31
0
 0
LINE
 8
TOOL_0
 5
1B
 10
342.641
 20
0.999
 30
0
 11
342.641
 21
-0.001
 31
0
 0
LINE
 8
TOOL_0
 5
1C
 10
342.641
 20
-0.001
 30
0
 11
342.641
 21
0.999
 31
0
 0
LINE
 8
TOOL_0
 5
1D
 10
342.641
 20
0.999
 30
0
 11
342.641
 21
471.642
 31
0
 0
LINE
 8
TOOL_0
 5
1E
 10
342.641
 20
471.642
 30
0
 11
127.141
 21
471.642
 31
0
 0
LINE
 8
TOOL_0
 5
1F
 10
127.141
 20
471.642
 30
0
 11
126.141
 21
471.642
 31
0
 0
ENDSEC
 0
EOF

