0
SECTION
2
TABLES
0
TABLE
2
LAYER
70
0
0
LAYER
2
LAYER_NAME
70
0
62
1
6
CONTINUOUS
0
ENDTAB
0
ENDSEC
 0
SECTION
 2
ENTITIES
 0
LINE
 8
TOOL_0
 5
1
 10
410.0
 20
1709.5
 30
0
 11
445.0
 21
1709.5
 31
0
 0
LINE
 8
TOOL_0
 5
2
 10
445.0
 20
1709.5
 30
0
 11
445.0
 21
1774.5
 31
0
 0
ARC
 8
TOOL_0
 5
3
 10
410.0
 20
1774.5
 30
0
 40
35.0
 50
0
 51
90.0
210
0
220
0
230
1.0
 0
LINE
 8
TOOL_0
 5
4
 10
410.0
 20
1809.5
 30
0
 11
185.0
 21
1809.5
 31
0
 0
ARC
 8
TOOL_0
 5
5
 10
185.0
 20
1774.5
 30
0
 40
35.0
 50
90.0
 51
180.0
210
0
220
0
230
1.0
 0
LINE
 8
TOOL_0
 5
6
 10
150.0
 20
1774.5
 30
0
 11
150.0
 21
1644.5
 31
0
 0
ARC
 8
TOOL_0
 5
7
 10
185.0
 20
1644.5
 30
0
 40
35.0
 50
180.0
 51
270.0
210
0
220
0
230
1.0
 0
LINE
 8
TOOL_0
 5
8
 10
185.0
 20
1609.5
 30
0
 11
410.0
 21
1609.5
 31
0
 0
ARC
 8
TOOL_0
 5
9
 10
410.0
 20
1644.5
 30
0
 40
35.0
 50
270.0
 51
0
210
0
220
0
230
1.0
 0
LINE
 8
TOOL_0
 5
A
 10
445.0
 20
1644.5
 30
0
 11
445.0
 21
1709.5
 31
0
 0
LINE
 8
TOOL_0
 5
B
 10
445.0
 20
1709.5
 30
0
 11
434.393
 21
1720.107
 31
0
 0
LINE
 8
TOOL_0
 5
C
 10
434.393
 20
1720.107
 30
0
 11
410.0
 21
1319.5
 31
0
 0
LINE
 8
TOOL_0
 5
D
 10
410.0
 20
1319.5
 30
0
 11
445.0
 21
1319.5
 31
0
 0
LINE
 8
TOOL_0
 5
E
 10
445.0
 20
1319.5
 30
0
 11
445.0
 21
1384.5
 31
0
 0
ARC
 8
TOOL_0
 5
F
 10
410.0
 20
1384.5
 30
0
 40
35.0
 50
0
 51
90.0
210
0
220
0
230
1.0
 0
LINE
 8
TOOL_0
 5
10
 10
410.0
 20
1419.5
 30
0
 11
145.0
 21
1419.5
 31
0
 0
ARC
 8
TOOL_0
 5
11
 10
145.0
 20
1384.5
 30
0
 40
35.0
 50
90.0
 51
180.0
210
0
220
0
230
1.0
 0
LINE
 8
TOOL_0
 5
12
 10
110.0
 20
1384.5
 30
0
 11
110.0
 21
1254.5
 31
0
 0
ARC
 8
TOOL_0
 5
13
 10
145.0
 20
1254.5
 30
0
 40
35.0
 50
180.0
 51
270.0
210
0
220
0
230
1.0
 0
LINE
 8
TOOL_0
 5
14
 10
145.0
 20
1219.5
 30
0
 11
410.0
 21
1219.5
 31
0
 0
ARC
 8
TOOL_0
 5
15
 10
410.0
 20
1254.5
 30
0
 40
35.0
 50
270.0
 51
0
210
0
220
0
230
1.0
 0
LINE
 8
TOOL_0
 5
16
 10
445.0
 20
1254.5
 30
0
 11
445.0
 21
1319.5
 31
0
 0
LINE
 8
TOOL_0
 5
17
 10
445.0
 20
1319.5
 30
0
 11
434.393
 21
1330.107
 31
0
 0
LINE
 8
TOOL_0
 5
18
 10
434.393
 20
1330.107
 30
0
 11
131.388
 21
933.5
 31
0
 0
LINE
 8
TOOL_0
 5
19
 10
131.388
 20
933.5
 30
0
 11
101.0
 21
933.5
 31
0
 0
LINE
 8
TOOL_0
 5
1A
 10
101.0
 20
933.5
 30
0
 11
44.586
 21
933.5
 31
0
 0
LINE
 8
TOOL_0
 5
1B
 10
44.586
 20
933.5
 30
0
 11
34.0
 21
944.086
 31
0
 0
LINE
 8
TOOL_0
 5
1C
 10
34.0
 20
944.086
 30
0
 11
34.0
 21
1066.5
 31
0
 0
ARC
 8
TOOL_0
 5
1D
 10
27.0
 20
1066.5
 30
0
 40
7.0
 50
0
 51
90.0
210
0
220
0
230
1.0
 0
LINE
 8
TOOL_0
 5
1E
 10
27.0
 20
1073.5
 30
0
 11
14.0
 21
1073.5
 31
0
 0
LINE
 8
TOOL_0
 5
1F
 10
14.0
 20
1073.5
 30
0
 11
14.0
 21
1615.5
 31
0
 0
LINE
 8
TOOL_0
 5
20
 10
14.0
 20
1615.5
 30
0
 11
27.0
 21
1615.5
 31
0
 0
ARC
 8
TOOL_0
 5
21
 10
27.0
 20
1622.5
 30
0
 40
7.0
 50
270.0
 51
0
210
0
220
0
230
1.0
 0
LINE
 8
TOOL_0
 5
22
 10
34.0
 20
1622.5
 30
0
 11
34.0
 21
1776.5
 31
0
 0
ARC
 8
TOOL_0
 5
23
 10
27.0
 20
1776.5
 30
0
 40
7.0
 50
0
 51
90.0
210
0
220
0
230
1.0
 0
LINE
 8
TOOL_0
 5
24
 10
27.0
 20
1783.5
 30
0
 11
14.0
 21
1783.5
 31
0
 0
LINE
 8
TOOL_0
 5
25
 10
14.0
 20
1783.5
 30
0
 11
14.0
 21
2200.5
 31
0
 0
LINE
 8
TOOL_0
 5
26
 10
14.0
 20
2200.5
 30
0
 11
22.0
 21
2200.5
 31
0
 0
ARC
 8
TOOL_0
 5
27
 10
22.0
 20
2207.5
 30
0
 40
7.0
 50
270.0
 51
0
210
0
220
0
230
1.0
 0
LINE
 8
TOOL_0
 5
28
 10
29.0
 20
2207.5
 30
0
 11
29.0
 21
2386.0
 31
0
 0
LINE
 8
TOOL_0
 5
29
 10
29.0
 20
2386.0
 30
0
 11
357.493
 21
2386.0
 31
0
 0
LINE
 8
TOOL_0
 5
2A
 10
357.493
 20
2386.0
 30
0
 11
610.0
 21
1731.353
 31
0
 0
LINE
 8
TOOL_0
 5
2B
 10
610.0
 20
1731.353
 30
0
 11
610.0
 21
1257.784
 31
0
 0
ARC
 8
TOOL_0
 5
2C
 10
530.0
 20
1257.784
 30
0
 40
80.0
 50
320.389749357743
 51
0
210
0
220
0
230
1.0
 0
LINE
 8
TOOL_0
 5
2D
 10
591.632
 20
1206.779
 30
0
 11
365.471
 21
933.501
 31
0
 0
LINE
 8
TOOL_0
 5
2E
 10
365.471
 20
933.501
 30
0
 11
259.001
 21
933.501
 31
0
 0
LINE
 8
TOOL_0
 5
2F
 10
259.001
 20
933.501
 30
0
 11
259.001
 21
1014.501
 31
0
 0
ARC
 8
TOOL_0
 5
30
 10
210.001
 20
1014.501
 30
0
 40
49.0
 50
0
 51
90.0
210
0
220
0
230
1.0
 0
LINE
 8
TOOL_0
 5
31
 10
210.001
 20
1063.501
 30
0
 11
150.001
 21
1063.501
 31
0
 0
ARC
 8
TOOL_0
 5
32
 10
150.001
 20
1014.501
 30
0
 40
49.0
 50
90.0
 51
180.0
210
0
220
0
230
1.0
 0
LINE
 8
TOOL_0
 5
33
 10
101.001
 20
1014.501
 30
0
 11
101.001
 21
933.501
 31
0
 0
LINE
 8
TOOL_0
 5
34
 10
101.001
 20
933.501
 30
0
 11
101.001
 21
928.353
 31
0
 0
LINE
 8
TOOL_0
 5
35
 10
101.001
 20
928.353
 30
0
 11
963.374
 21
2122.501
 31
0
 0
LINE
 8
TOOL_0
 5
36
 10
963.374
 20
2122.501
 30
0
 11
998.374
 21
2122.501
 31
0
 0
LINE
 8
TOOL_0
 5
37
 10
998.374
 20
2122.501
 30
0
 11
998.374
 21
2255.001
 31
0
 0
ARC
 8
TOOL_0
 5
38
 10
963.374
 20
2255.001
 30
0
 40
35.0
 50
0
 51
90.0
210
0
220
0
230
1.0
 0
LINE
 8
TOOL_0
 5
39
 10
963.374
 20
2290.001
 30
0
 11
833.374
 21
2290.001
 31
0
 0
ARC
 8
TOOL_0
 5
3A
 10
833.374
 20
2255.001
 30
0
 40
35.0
 50
90.0
 51
180.0
210
0
220
0
230
1.0
 0
LINE
 8
TOOL_0
 5
3B
 10
798.374
 20
2255.001
 30
0
 11
798.374
 21
1990.001
 31
0
 0
ARC
 8
TOOL_0
 5
3C
 10
833.374
 20
1990.001
 30
0
 40
35.0
 50
180.0
 51
270.0
210
0
220
0
230
1.0
 0
LINE
 8
TOOL_0
 5
3D
 10
833.374
 20
1955.001
 30
0
 11
963.374
 21
1955.001
 31
0
 0
ARC
 8
TOOL_0
 5
3E
 10
963.374
 20
1990.001
 30
0
 40
35.0
 50
270.0
 51
0
210
0
220
0
230
1.0
 0
LINE
 8
TOOL_0
 5
3F
 10
998.374
 20
1990.001
 30
0
 11
998.374
 21
2122.501
 31
0
 0
LINE
 8
TOOL_0
 5
40
 10
998.374
 20
2122.501
 30
0
 11
987.767
 21
2133.108
 31
0
 0
LINE
 8
TOOL_0
 5
41
 10
987.767
 20
2133.108
 30
0
 11
1353.374
 21
2102.501
 31
0
 0
LINE
 8
TOOL_0
 5
42
 10
1353.374
 20
2102.501
 30
0
 11
1388.374
 21
2102.501
 31
0
 0
LINE
 8
TOOL_0
 5
43
 10
1388.374
 20
2102.501
 30
0
 11
1388.374
 21
2215.001
 31
0
 0
ARC
 8
TOOL_0
 5
44
 10
1353.374
 20
2215.001
 30
0
 40
35.0
 50
0
 51
90.0
210
0
220
0
230
1.0
 0
LINE
 8
TOOL_0
 5
45
 10
1353.374
 20
2250.001
 30
0
 11
1223.374
 21
2250.001
 31
0
 0
ARC
 8
TOOL_0
 5
46
 10
1223.374
 20
2215.001
 30
0
 40
35.0
 50
90.0
 51
180.0
210
0
220
0
230
1.0
 0
LINE
 8
TOOL_0
 5
47
 10
1188.374
 20
2215.001
 30
0
 11
1188.374
 21
1990.001
 31
0
 0
ARC
 8
TOOL_0
 5
48
 10
1223.374
 20
1990.001
 30
0
 40
35.0
 50
180.0
 51
270.0
210
0
220
0
230
1.0
 0
LINE
 8
TOOL_0
 5
49
 10
1223.374
 20
1955.001
 30
0
 11
1353.374
 21
1955.001
 31
0
 0
ARC
 8
TOOL_0
 5
4A
 10
1353.374
 20
1990.001
 30
0
 40
35.0
 50
270.0
 51
0
210
0
220
0
230
1.0
 0
LINE
 8
TOOL_0
 5
4B
 10
1388.374
 20
1990.001
 30
0
 11
1388.374
 21
2102.501
 31
0
 0
LINE
 8
TOOL_0
 5
4C
 10
1388.374
 20
2102.501
 30
0
 11
1377.767
 21
2113.108
 31
0
 0
LINE
 8
TOOL_0
 5
4D
 10
1377.767
 20
2113.108
 30
0
 11
512.374
 21
2267.467
 31
0
 0
LINE
 8
TOOL_0
 5
4E
 10
512.374
 20
2267.467
 30
0
 11
512.374
 21
2299.001
 31
0
 0
LINE
 8
TOOL_0
 5
4F
 10
512.374
 20
2299.001
 30
0
 11
512.374
 21
2355.415
 31
0
 0
LINE
 8
TOOL_0
 5
50
 10
512.374
 20
2355.415
 30
0
 11
522.96
 21
2366.001
 31
0
 0
LINE
 8
TOOL_0
 5
51
 10
522.96
 20
2366.001
 30
0
 11
645.374
 21
2366.001
 31
0
 0
ARC
 8
TOOL_0
 5
52
 10
645.374
 20
2373.001
 30
0
 40
7.0
 50
270.0
 51
0
210
0
220
0
230
1.0
 0
LINE
 8
TOOL_0
 5
53
 10
652.374
 20
2373.001
 30
0
 11
652.374
 21
2386.001
 31
0
 0
LINE
 8
TOOL_0
 5
54
 10
652.374
 20
2386.001
 30
0
 11
1194.374
 21
2386.001
 31
0
 0
LINE
 8
TOOL_0
 5
55
 10
1194.374
 20
2386.001
 30
0
 11
1194.374
 21
2373.001
 31
0
 0
ARC
 8
TOOL_0
 5
56
 10
1201.374
 20
2373.001
 30
0
 40
7.0
 50
180.0
 51
270.0
210
0
220
0
230
1.0
 0
LINE
 8
TOOL_0
 5
57
 10
1201.374
 20
2366.001
 30
0
 11
1355.374
 21
2366.001
 31
0
 0
ARC
 8
TOOL_0
 5
58
 10
1355.374
 20
2373.001
 30
0
 40
7.0
 50
270.0
 51
0
210
0
220
0
230
1.0
 0
LINE
 8
TOOL_0
 5
59
 10
1362.374
 20
2373.001
 30
0
 11
1362.374
 21
2386.001
 31
0
 0
LINE
 8
TOOL_0
 5
5A
 10
1362.374
 20
2386.001
 30
0
 11
1779.374
 21
2386.001
 31
0
 0
LINE
 8
TOOL_0
 5
5B
 10
1779.374
 20
2386.001
 30
0
 11
1779.374
 21
2378.001
 31
0
 0
ARC
 8
TOOL_0
 5
5C
 10
1786.374
 20
2378.001
 30
0
 40
7.0
 50
180.0
 51
270.0
210
0
220
0
230
1.0
 0
LINE
 8
TOOL_0
 5
5D
 10
1786.374
 20
2371.001
 30
0
 11
1964.874
 21
2371.001
 31
0
 0
LINE
 8
TOOL_0
 5
5E
 10
1964.874
 20
2371.001
 30
0
 11
1964.874
 21
2042.508
 31
0
 0
LINE
 8
TOOL_0
 5
5F
 10
1964.874
 20
2042.508
 30
0
 11
1310.227
 21
1790.001
 31
0
 0
LINE
 8
TOOL_0
 5
60
 10
1310.227
 20
1790.001
 30
0
 11
836.658
 21
1790.001
 31
0
 0
ARC
 8
TOOL_0
 5
61
 10
836.658
 20
1870.001
 30
0
 40
80.0
 50
230.388740979326
 51
270.0
210
0
220
0
230
1.0
 0
LINE
 8
TOOL_0
 5
62
 10
785.652
 20
1808.37
 30
0
 11
512.374
 21
2034.531
 31
0
 0
LINE
 8
TOOL_0
 5
63
 10
512.374
 20
2034.531
 30
0
 11
512.374
 21
2141.001
 31
0
 0
LINE
 8
TOOL_0
 5
64
 10
512.374
 20
2141.001
 30
0
 11
593.374
 21
2141.001
 31
0
 0
ARC
 8
TOOL_0
 5
65
 10
593.374
 20
2190.001
 30
0
 40
49.0
 50
270.0
 51
0
210
0
220
0
230
1.0
 0
LINE
 8
TOOL_0
 5
66
 10
642.374
 20
2190.001
 30
0
 11
642.374
 21
2250.001
 31
0
 0
ARC
 8
TOOL_0
 5
67
 10
593.374
 20
2250.001
 30
0
 40
49.0
 50
0
 51
90.0
210
0
220
0
230
1.0
 0
LINE
 8
TOOL_0
 5
68
 10
593.374
 20
2299.001
 30
0
 11
512.374
 21
2299.001
 31
0
 0
LINE
 8
TOOL_0
 5
69
 10
512.374
 20
2299.001
 30
0
 11
507.103
 21
2299.001
 31
0
 0
LINE
 8
TOOL_0
 5
6A
 10
507.103
 20
2299.001
 30
0
 11
1044.489
 21
1462.002
 31
0
 0
LINE
 8
TOOL_0
 5
6B
 10
1044.489
 20
1462.002
 30
0
 11
1079.489
 21
1462.002
 31
0
 0
ARC
 8
TOOL_0
 5
6C
 10
1044.489
 20
1462.002
 30
0
 40
35.0
 50
0
 51
180.0
210
0
220
0
230
1.0
 0
ARC
 8
TOOL_0
 5
6D
 10
1044.489
 20
1462.002
 30
0
 40
35.0
 50
180.0
 51
0
210
0
220
0
230
1.0
 0
LINE
 8
TOOL_0
 5
6E
 10
1079.489
 20
1462.002
 30
0
 11
1068.882
 21
1472.609
 31
0
 0
LINE
 8
TOOL_0
 5
6F
 10
1068.882
 20
1472.609
 30
0
 11
729.488
 21
422.002
 31
0
 0
LINE
 8
TOOL_0
 5
70
 10
729.488
 20
422.002
 30
0
 11
764.488
 21
422.002
 31
0
 0
ARC
 8
TOOL_0
 5
71
 10
729.488
 20
422.002
 30
0
 40
35.0
 50
0
 51
180.0
210
0
220
0
230
1.0
 0
ARC
 8
TOOL_0
 5
72
 10
729.488
 20
422.002
 30
0
 40
35.0
 50
180.0
 51
0
210
0
220
0
230
1.0
 0
LINE
 8
TOOL_0
 5
73
 10
764.488
 20
422.002
 30
0
 11
753.881
 21
432.609
 31
0
 0
LINE
 8
TOOL_0
 5
74
 10
753.881
 20
432.609
 30
0
 11
2194.487
 21
422.002
 31
0
 0
LINE
 8
TOOL_0
 5
75
 10
2194.487
 20
422.002
 30
0
 11
2229.487
 21
422.002
 31
0
 0
ARC
 8
TOOL_0
 5
76
 10
2194.487
 20
422.002
 30
0
 40
35.0
 50
0
 51
180.0
210
0
220
0
230
1.0
 0
ARC
 8
TOOL_0
 5
77
 10
2194.487
 20
422.002
 30
0
 40
35.0
 50
180.0
 51
0
210
0
220
0
230
1.0
 0
LINE
 8
TOOL_0
 5
78
 10
2229.487
 20
422.002
 30
0
 11
2218.88
 21
432.609
 31
0
 0
LINE
 8
TOOL_0
 5
79
 10
2218.88
 20
432.609
 30
0
 11
3344.486
 21
1462.002
 31
0
 0
LINE
 8
TOOL_0
 5
7A
 10
3344.486
 20
1462.002
 30
0
 11
3379.486
 21
1462.002
 31
0
 0
ARC
 8
TOOL_0
 5
7B
 10
3344.486
 20
1462.002
 30
0
 40
35.0
 50
0
 51
180.0
210
0
220
0
230
1.0
 0
ARC
 8
TOOL_0
 5
7C
 10
3344.486
 20
1462.002
 30
0
 40
35.0
 50
180.0
 51
0
210
0
220
0
230
1.0
 0
LINE
 8
TOOL_0
 5
7D
 10
3379.486
 20
1462.002
 30
0
 11
3368.879
 21
1472.609
 31
0
 0
LINE
 8
TOOL_0
 5
7E
 10
3368.879
 20
1472.609
 30
0
 11
3659.485
 21
422.002
 31
0
 0
LINE
 8
TOOL_0
 5
7F
 10
3659.485
 20
422.002
 30
0
 11
3694.485
 21
422.002
 31
0
 0
ARC
 8
TOOL_0
 5
80
 10
3659.485
 20
422.002
 30
0
 40
35.0
 50
0
 51
180.0
210
0
220
0
230
1.0
 0
ARC
 8
TOOL_0
 5
81
 10
3659.485
 20
422.002
 30
0
 40
35.0
 50
180.0
 51
0
210
0
220
0
230
1.0
 0
LINE
 8
TOOL_0
 5
82
 10
3694.485
 20
422.002
 30
0
 11
3683.878
 21
432.609
 31
0
 0
LINE
 8
TOOL_0
 5
83
 10
3683.878
 20
432.609
 30
0
 11
4341.694
 21
50.42
 31
0
 0
LINE
 8
TOOL_0
 5
84
 10
4341.694
 20
50.42
 30
0
 11
4342.222
 21
13.329
 31
0
 0
LINE
 8
TOOL_0
 5
85
 10
4342.222
 20
13.329
 30
0
 11
4331.984
 21
14.002
 31
0
 0
LINE
 8
TOOL_0
 5
86
 10
4331.984
 20
14.002
 30
0
 11
56.984
 21
14.002
 31
0
 0
LINE
 8
TOOL_0
 5
87
 10
56.984
 20
14.002
 30
0
 11
56.984
 21
122.002
 31
0
 0
LINE
 8
TOOL_0
 5
88
 10
56.984
 20
122.002
 30
0
 11
66.984
 21
122.002
 31
0
 0
LINE
 8
TOOL_0
 5
89
 10
66.984
 20
122.002
 30
0
 11
66.984
 21
644.002
 31
0
 0
LINE
 8
TOOL_0
 5
8A
 10
66.984
 20
644.002
 30
0
 11
553.984
 21
644.002
 31
0
 0
ARC
 8
TOOL_0
 5
8B
 10
553.984
 20
707.002
 30
0
 40
63.0
 50
270.0
 51
314.999356913637
210
0
220
0
230
1.0
 0
LINE
 8
TOOL_0
 5
8C
 10
598.531
 20
662.454
 30
0
 11
626.031
 21
689.954
 31
0
 0
ARC
 8
TOOL_0
 5
8D
 10
581.483
 20
734.502
 30
0
 40
63.000385776597
 50
315.0
 51
359.999090543183
210
0
220
0
230
1.0
 0
LINE
 8
TOOL_0
 5
8E
 10
644.483
 20
734.501
 30
0
 11
644.483
 21
1528.001
 31
0
 0
ARC
 8
TOOL_0
 5
8F
 10
679.483
 20
1528.001
 30
0
 40
35.0
 50
90.0
 51
180.0
210
0
220
0
230
1.0
 0
LINE
 8
TOOL_0
 5
90
 10
679.483
 20
1563.001
 30
0
 11
3709.483
 21
1563.001
 31
0
 0
ARC
 8
TOOL_0
 5
91
 10
3709.483
 20
1528.001
 30
0
 40
35.0
 50
0
 51
90.0
210
0
220
0
230
1.0
 0
LINE
 8
TOOL_0
 5
92
 10
3744.483
 20
1528.001
 30
0
 11
3744.483
 21
734.501
 31
0
 0
ARC
 8
TOOL_0
 5
93
 10
3807.483
 20
734.501
 30
0
 40
63.0
 50
180.0
 51
225.0
210
0
220
0
230
1.0
 0
LINE
 8
TOOL_0
 5
94
 10
3762.935
 20
689.953
 30
0
 11
3790.435
 21
662.453
 31
0
 0
ARC
 8
TOOL_0
 5
95
 10
3834.983
 20
707.001
 30
0
 40
63.000385776597
 50
225.0
 51
269.999090543182
210
0
220
0
230
1.0
 0
LINE
 8
TOOL_0
 5
96
 10
3834.982
 20
644.001
 30
0
 11
4321.982
 21
644.001
 31
0
 0
LINE
 8
TOOL_0
 5
97
 10
4321.982
 20
644.001
 30
0
 11
4321.982
 21
122.001
 31
0
 0
LINE
 8
TOOL_0
 5
98
 10
4321.982
 20
122.001
 30
0
 11
4331.982
 21
122.001
 31
0
 0
LINE
 8
TOOL_0
 5
99
 10
4331.982
 20
122.001
 30
0
 11
4331.982
 21
14.001
 31
0
 0
LINE
 8
TOOL_0
 5
9A
 10
4331.982
 20
14.001
 30
0
 11
4332.712
 21
7.5
 31
0
 0
LINE
 8
TOOL_0
 5
9B
 10
4332.712
 20
7.5
 30
0
 11
2451.09
 21
1864.596
 31
0
 0
LINE
 8
TOOL_0
 5
9C
 10
2451.09
 20
1864.596
 30
0
 11
2486.09
 21
1864.596
 31
0
 0
LINE
 8
TOOL_0
 5
9D
 10
2486.09
 20
1864.596
 30
0
 11
2486.09
 21
1977.096
 31
0
 0
ARC
 8
TOOL_0
 5
9E
 10
2451.09
 20
1977.096
 30
0
 40
35.0
 50
0
 51
90.0
210
0
220
0
230
1.0
 0
LINE
 8
TOOL_0
 5
9F
 10
2451.09
 20
2012.096
 30
0
 11
2321.09
 21
2012.096
 31
0
 0
ARC
 8
TOOL_0
 5
A0
 10
2321.09
 20
1977.096
 30
0
 40
35.0
 50
90.0
 51
180.0
210
0
220
0
230
1.0
 0
LINE
 8
TOOL_0
 5
A1
 10
2286.09
 20
1977.096
 30
0
 11
2286.09
 21
1752.096
 31
0
 0
ARC
 8
TOOL_0
 5
A2
 10
2321.09
 20
1752.096
 30
0
 40
35.0
 50
180.0
 51
270.0
210
0
220
0
230
1.0
 0
LINE
 8
TOOL_0
 5
A3
 10
2321.09
 20
1717.096
 30
0
 11
2451.09
 21
1717.096
 31
0
 0
ARC
 8
TOOL_0
 5
A4
 10
2451.09
 20
1752.096
 30
0
 40
35.0
 50
270.0
 51
0
210
0
220
0
230
1.0
 0
LINE
 8
TOOL_0
 5
A5
 10
2486.09
 20
1752.096
 30
0
 11
2486.09
 21
1864.596
 31
0
 0
LINE
 8
TOOL_0
 5
A6
 10
2486.09
 20
1864.596
 30
0
 11
2475.483
 21
1875.203
 31
0
 0
LINE
 8
TOOL_0
 5
A7
 10
2475.483
 20
1875.203
 30
0
 11
2841.09
 21
1844.597
 31
0
 0
LINE
 8
TOOL_0
 5
A8
 10
2841.09
 20
1844.597
 30
0
 11
2876.09
 21
1844.597
 31
0
 0
LINE
 8
TOOL_0
 5
A9
 10
2876.09
 20
1844.597
 30
0
 11
2876.09
 21
1977.097
 31
0
 0
ARC
 8
TOOL_0
 5
AA
 10
2841.09
 20
1977.097
 30
0
 40
35.0
 50
0
 51
90.0
210
0
220
0
230
1.0
 0
LINE
 8
TOOL_0
 5
AB
 10
2841.09
 20
2012.097
 30
0
 11
2711.09
 21
2012.097
 31
0
 0
ARC
 8
TOOL_0
 5
AC
 10
2711.09
 20
1977.097
 30
0
 40
35.0
 50
90.0
 51
180.0
210
0
220
0
230
1.0
 0
LINE
 8
TOOL_0
 5
AD
 10
2676.09
 20
1977.097
 30
0
 11
2676.09
 21
1712.097
 31
0
 0
ARC
 8
TOOL_0
 5
AE
 10
2711.09
 20
1712.097
 30
0
 40
35.0
 50
180.0
 51
270.0
210
0
220
0
230
1.0
 0
LINE
 8
TOOL_0
 5
AF
 10
2711.09
 20
1677.097
 30
0
 11
2841.09
 21
1677.097
 31
0
 0
ARC
 8
TOOL_0
 5
B0
 10
2841.09
 20
1712.097
 30
0
 40
35.0
 50
270.0
 51
0
210
0
220
0
230
1.0
 0
LINE
 8
TOOL_0
 5
B1
 10
2876.09
 20
1712.097
 30
0
 11
2876.09
 21
1844.597
 31
0
 0
LINE
 8
TOOL_0
 5
B2
 10
2876.09
 20
1844.597
 30
0
 11
2865.483
 21
1855.204
 31
0
 0
LINE
 8
TOOL_0
 5
B3
 10
2865.483
 20
1855.204
 30
0
 11
3162.09
 21
1697.821
 31
0
 0
LINE
 8
TOOL_0
 5
B4
 10
3162.09
 20
1697.821
 30
0
 11
3162.09
 21
1668.098
 31
0
 0
LINE
 8
TOOL_0
 5
B5
 10
3162.09
 20
1668.098
 30
0
 11
3162.09
 21
1611.684
 31
0
 0
LINE
 8
TOOL_0
 5
B6
 10
3162.09
 20
1611.684
 30
0
 11
3151.504
 21
1601.098
 31
0
 0
LINE
 8
TOOL_0
 5
B7
 10
3151.504
 20
1601.098
 30
0
 11
3029.09
 21
1601.098
 31
0
 0
ARC
 8
TOOL_0
 5
B8
 10
3029.09
 20
1594.098
 30
0
 40
7.0
 50
90.0
 51
180.0
210
0
220
0
230
1.0
 0
LINE
 8
TOOL_0
 5
B9
 10
3022.09
 20
1594.098
 30
0
 11
3022.09
 21
1581.098
 31
0
 0
LINE
 8
TOOL_0
 5
BA
 10
3022.09
 20
1581.098
 30
0
 11
2480.09
 21
1581.098
 31
0
 0
LINE
 8
TOOL_0
 5
BB
 10
2480.09
 20
1581.098
 30
0
 11
2480.09
 21
1594.098
 31
0
 0
ARC
 8
TOOL_0
 5
BC
 10
2473.09
 20
1594.098
 30
0
 40
7.0
 50
0
 51
90.0
210
0
220
0
230
1.0
 0
LINE
 8
TOOL_0
 5
BD
 10
2473.09
 20
1601.098
 30
0
 11
2319.09
 21
1601.098
 31
0
 0
ARC
 8
TOOL_0
 5
BE
 10
2319.09
 20
1594.098
 30
0
 40
7.0
 50
90.0
 51
180.0
210
0
220
0
230
1.0
 0
LINE
 8
TOOL_0
 5
BF
 10
2312.09
 20
1594.098
 30
0
 11
2312.09
 21
1581.098
 31
0
 0
LINE
 8
TOOL_0
 5
C0
 10
2312.09
 20
1581.098
 30
0
 11
1895.09
 21
1581.098
 31
0
 0
LINE
 8
TOOL_0
 5
C1
 10
1895.09
 20
1581.098
 30
0
 11
1895.09
 21
1589.098
 31
0
 0
ARC
 8
TOOL_0
 5
C2
 10
1888.09
 20
1589.098
 30
0
 40
7.0
 50
0
 51
90.0
210
0
220
0
230
1.0
 0
LINE
 8
TOOL_0
 5
C3
 10
1888.09
 20
1596.098
 30
0
 11
1709.59
 21
1596.098
 31
0
 0
LINE
 8
TOOL_0
 5
C4
 10
1709.59
 20
1596.098
 30
0
 11
1709.59
 21
1924.591
 31
0
 0
LINE
 8
TOOL_0
 5
C5
 10
1709.59
 20
1924.591
 30
0
 11
2364.237
 21
2177.098
 31
0
 0
LINE
 8
TOOL_0
 5
C6
 10
2364.237
 20
2177.098
 30
0
 11
2837.806
 21
2177.098
 31
0
 0
ARC
 8
TOOL_0
 5
C7
 10
2837.806
 20
2097.098
 30
0
 40
80.0
 50
50.389749357743
 51
90.0
210
0
220
0
230
1.0
 0
LINE
 8
TOOL_0
 5
C8
 10
2888.811
 20
2158.73
 30
0
 11
3162.089
 21
1932.569
 31
0
 0
LINE
 8
TOOL_0
 5
C9
 10
3162.089
 20
1932.569
 30
0
 11
3162.089
 21
1826.099
 31
0
 0
LINE
 8
TOOL_0
 5
CA
 10
3162.089
 20
1826.099
 30
0
 11
3081.089
 21
1826.099
 31
0
 0
ARC
 8
TOOL_0
 5
CB
 10
3081.089
 20
1777.099
 30
0
 40
49.0
 50
90.0
 51
180.0
210
0
220
0
230
1.0
 0
LINE
 8
TOOL_0
 5
CC
 10
3032.089
 20
1777.099
 30
0
 11
3032.089
 21
1717.099
 31
0
 0
ARC
 8
TOOL_0
 5
CD
 10
3081.089
 20
1717.099
 30
0
 40
49.0
 50
180.0
 51
270.0
210
0
220
0
230
1.0
 0
LINE
 8
TOOL_0
 5
CE
 10
3081.089
 20
1668.099
 30
0
 11
3162.089
 21
1668.099
 31
0
 0
LINE
 8
TOOL_0
 5
CF
 10
3162.089
 20
1668.099
 30
0
 11
3167.661
 21
1668.099
 31
0
 0
LINE
 8
TOOL_0
 5
D0
 10
3167.661
 20
1668.099
 30
0
 11
6278.769
 21
297.504
 31
0
 0
LINE
 8
TOOL_0
 5
D1
 10
6278.769
 20
297.504
 30
0
 11
6313.769
 21
297.504
 31
0
 0
LINE
 8
TOOL_0
 5
D2
 10
6313.769
 20
297.504
 30
0
 11
6313.769
 21
410.004
 31
0
 0
ARC
 8
TOOL_0
 5
D3
 10
6278.769
 20
410.004
 30
0
 40
35.0
 50
0
 51
90.0
210
0
220
0
230
1.0
 0
LINE
 8
TOOL_0
 5
D4
 10
6278.769
 20
445.004
 30
0
 11
6148.769
 21
445.004
 31
0
 0
ARC
 8
TOOL_0
 5
D5
 10
6148.769
 20
410.004
 30
0
 40
35.0
 50
90.0
 51
180.0
210
0
220
0
230
1.0
 0
LINE
 8
TOOL_0
 5
D6
 10
6113.769
 20
410.004
 30
0
 11
6113.769
 21
185.004
 31
0
 0
ARC
 8
TOOL_0
 5
D7
 10
6148.769
 20
185.004
 30
0
 40
35.0
 50
180.0
 51
270.0
210
0
220
0
230
1.0
 0
LINE
 8
TOOL_0
 5
D8
 10
6148.769
 20
150.004
 30
0
 11
6278.769
 21
150.004
 31
0
 0
ARC
 8
TOOL_0
 5
D9
 10
6278.769
 20
185.004
 30
0
 40
35.0
 50
270.0
 51
0
210
0
220
0
230
1.0
 0
LINE
 8
TOOL_0
 5
DA
 10
6313.769
 20
185.004
 30
0
 11
6313.769
 21
297.504
 31
0
 0
LINE
 8
TOOL_0
 5
DB
 10
6313.769
 20
297.504
 30
0
 11
6303.162
 21
308.111
 31
0
 0
LINE
 8
TOOL_0
 5
DC
 10
6303.162
 20
308.111
 30
0
 11
6668.769
 21
277.504
 31
0
 0
LINE
 8
TOOL_0
 5
DD
 10
6668.769
 20
277.504
 30
0
 11
6703.769
 21
277.504
 31
0
 0
LINE
 8
TOOL_0
 5
DE
 10
6703.769
 20
277.504
 30
0
 11
6703.769
 21
410.004
 31
0
 0
ARC
 8
TOOL_0
 5
DF
 10
6668.769
 20
410.004
 30
0
 40
35.0
 50
0
 51
90.0
210
0
220
0
230
1.0
 0
LINE
 8
TOOL_0
 5
E0
 10
6668.769
 20
445.004
 30
0
 11
6538.769
 21
445.004
 31
0
 0
ARC
 8
TOOL_0
 5
E1
 10
6538.769
 20
410.004
 30
0
 40
35.0
 50
90.0
 51
180.0
210
0
220
0
230
1.0
 0
LINE
 8
TOOL_0
 5
E2
 10
6503.769
 20
410.004
 30
0
 11
6503.769
 21
145.004
 31
0
 0
ARC
 8
TOOL_0
 5
E3
 10
6538.769
 20
145.004
 30
0
 40
35.0
 50
180.0
 51
270.0
210
0
220
0
230
1.0
 0
LINE
 8
TOOL_0
 5
E4
 10
6538.769
 20
110.004
 30
0
 11
6668.769
 21
110.004
 31
0
 0
ARC
 8
TOOL_0
 5
E5
 10
6668.769
 20
145.004
 30
0
 40
35.0
 50
270.0
 51
0
210
0
220
0
230
1.0
 0
LINE
 8
TOOL_0
 5
E6
 10
6703.769
 20
145.004
 30
0
 11
6703.769
 21
277.504
 31
0
 0
LINE
 8
TOOL_0
 5
E7
 10
6703.769
 20
277.504
 30
0
 11
6693.162
 21
288.111
 31
0
 0
LINE
 8
TOOL_0
 5
E8
 10
6693.162
 20
288.111
 30
0
 11
6989.769
 21
130.727
 31
0
 0
LINE
 8
TOOL_0
 5
E9
 10
6989.769
 20
130.727
 30
0
 11
6989.769
 21
101.004
 31
0
 0
LINE
 8
TOOL_0
 5
EA
 10
6989.769
 20
101.004
 30
0
 11
6989.769
 21
44.59
 31
0
 0
LINE
 8
TOOL_0
 5
EB
 10
6989.769
 20
44.59
 30
0
 11
6979.183
 21
34.004
 31
0
 0
LINE
 8
TOOL_0
 5
EC
 10
6979.183
 20
34.004
 30
0
 11
6856.769
 21
34.004
 31
0
 0
ARC
 8
TOOL_0
 5
ED
 10
6856.769
 20
27.004
 30
0
 40
7.0
 50
90.0
 51
180.0
210
0
220
0
230
1.0
 0
LINE
 8
TOOL_0
 5
EE
 10
6849.769
 20
27.004
 30
0
 11
6849.769
 21
14.004
 31
0
 0
LINE
 8
TOOL_0
 5
EF
 10
6849.769
 20
14.004
 30
0
 11
6307.769
 21
14.004
 31
0
 0
LINE
 8
TOOL_0
 5
F0
 10
6307.769
 20
14.004
 30
0
 11
6307.769
 21
27.004
 31
0
 0
ARC
 8
TOOL_0
 5
F1
 10
6300.769
 20
27.004
 30
0
 40
7.0
 50
0
 51
90.0
210
0
220
0
230
1.0
 0
LINE
 8
TOOL_0
 5
F2
 10
6300.769
 20
34.004
 30
0
 11
6146.769
 21
34.004
 31
0
 0
ARC
 8
TOOL_0
 5
F3
 10
6146.769
 20
27.004
 30
0
 40
7.0
 50
90.0
 51
180.0
210
0
220
0
230
1.0
 0
LINE
 8
TOOL_0
 5
F4
 10
6139.769
 20
27.004
 30
0
 11
6139.769
 21
14.004
 31
0
 0
LINE
 8
TOOL_0
 5
F5
 10
6139.769
 20
14.004
 30
0
 11
5722.769
 21
14.004
 31
0
 0
LINE
 8
TOOL_0
 5
F6
 10
5722.769
 20
14.004
 30
0
 11
5722.769
 21
22.004
 31
0
 0
ARC
 8
TOOL_0
 5
F7
 10
5715.769
 20
22.004
 30
0
 40
7.0
 50
0
 51
90.0
210
0
220
0
230
1.0
 0
LINE
 8
TOOL_0
 5
F8
 10
5715.769
 20
29.004
 30
0
 11
5537.269
 21
29.004
 31
0
 0
LINE
 8
TOOL_0
 5
F9
 10
5537.269
 20
29.004
 30
0
 11
5537.269
 21
357.497
 31
0
 0
LINE
 8
TOOL_0
 5
FA
 10
5537.269
 20
357.497
 30
0
 11
6191.916
 21
610.004
 31
0
 0
LINE
 8
TOOL_0
 5
FB
 10
6191.916
 20
610.004
 30
0
 11
6665.485
 21
610.004
 31
0
 0
ARC
 8
TOOL_0
 5
FC
 10
6665.485
 20
530.004
 30
0
 40
80.0
 50
50.389749357743
 51
90.0
210
0
220
0
230
1.0
 0
LINE
 8
TOOL_0
 5
FD
 10
6716.49
 20
591.636
 30
0
 11
6989.768
 21
365.475
 31
0
 0
LINE
 8
TOOL_0
 5
FE
 10
6989.768
 20
365.475
 30
0
 11
6989.768
 21
259.005
 31
0
 0
LINE
 8
TOOL_0
 5
FF
 10
6989.768
 20
259.005
 30
0
 11
6908.768
 21
259.005
 31
0
 0
ARC
 8
TOOL_0
 5
100
 10
6908.768
 20
210.005
 30
0
 40
49.0
 50
90.0
 51
180.0
210
0
220
0
230
1.0
 0
LINE
 8
TOOL_0
 5
101
 10
6859.768
 20
210.005
 30
0
 11
6859.768
 21
150.005
 31
0
 0
ARC
 8
TOOL_0
 5
102
 10
6908.768
 20
150.005
 30
0
 40
49.0
 50
180.0
 51
270.0
210
0
220
0
230
1.0
 0
LINE
 8
TOOL_0
 5
103
 10
6908.768
 20
101.005
 30
0
 11
6989.768
 21
101.005
 31
0
 0
LINE
 8
TOOL_0
 5
104
 10
6989.768
 20
101.005
 30
0
 11
6995.34
 21
101.005
 31
0
 0
LINE
 8
TOOL_0
 5
105
 10
6995.34
 20
101.005
 30
0
 11
4791.044
 21
555.314
 31
0
 0
LINE
 8
TOOL_0
 5
106
 10
4791.044
 20
555.314
 30
0
 11
4826.044
 21
555.314
 31
0
 0
LINE
 8
TOOL_0
 5
107
 10
4826.044
 20
555.314
 30
0
 11
4826.044
 21
687.814
 31
0
 0
ARC
 8
TOOL_0
 5
108
 10
4791.044
 20
687.814
 30
0
 40
35.0
 50
0
 51
90.0
210
0
220
0
230
1.0
 0
LINE
 8
TOOL_0
 5
109
 10
4791.044
 20
722.814
 30
0
 11
4661.044
 21
722.814
 31
0
 0
ARC
 8
TOOL_0
 5
10A
 10
4661.044
 20
687.814
 30
0
 40
35.0
 50
90.0
 51
180.0
210
0
220
0
230
1.0
 0
LINE
 8
TOOL_0
 5
10B
 10
4626.044
 20
687.814
 30
0
 11
4626.044
 21
422.814
 31
0
 0
ARC
 8
TOOL_0
 5
10C
 10
4661.044
 20
422.814
 30
0
 40
35.0
 50
180.0
 51
270.0
210
0
220
0
230
1.0
 0
LINE
 8
TOOL_0
 5
10D
 10
4661.044
 20
387.814
 30
0
 11
4791.044
 21
387.814
 31
0
 0
ARC
 8
TOOL_0
 5
10E
 10
4791.044
 20
422.814
 30
0
 40
35.0
 50
270.0
 51
0
210
0
220
0
230
1.0
 0
LINE
 8
TOOL_0
 5
10F
 10
4826.044
 20
422.814
 30
0
 11
4826.044
 21
555.314
 31
0
 0
LINE
 8
TOOL_0
 5
110
 10
4826.044
 20
555.314
 30
0
 11
4815.437
 21
565.921
 31
0
 0
LINE
 8
TOOL_0
 5
111
 10
4815.437
 20
565.921
 30
0
 11
5181.044
 21
535.314
 31
0
 0
LINE
 8
TOOL_0
 5
112
 10
5181.044
 20
535.314
 30
0
 11
5216.044
 21
535.314
 31
0
 0
LINE
 8
TOOL_0
 5
113
 10
5216.044
 20
535.314
 30
0
 11
5216.044
 21
647.814
 31
0
 0
ARC
 8
TOOL_0
 5
114
 10
5181.044
 20
647.814
 30
0
 40
35.0
 50
0
 51
90.0
210
0
220
0
230
1.0
 0
LINE
 8
TOOL_0
 5
115
 10
5181.044
 20
682.814
 30
0
 11
5051.044
 21
682.814
 31
0
 0
ARC
 8
TOOL_0
 5
116
 10
5051.044
 20
647.814
 30
0
 40
35.0
 50
90.0
 51
180.0
210
0
220
0
230
1.0
 0
LINE
 8
TOOL_0
 5
117
 10
5016.044
 20
647.814
 30
0
 11
5016.044
 21
422.814
 31
0
 0
ARC
 8
TOOL_0
 5
118
 10
5051.044
 20
422.814
 30
0
 40
35.0
 50
180.0
 51
270.0
210
0
220
0
230
1.0
 0
LINE
 8
TOOL_0
 5
119
 10
5051.044
 20
387.814
 30
0
 11
5181.044
 21
387.814
 31
0
 0
ARC
 8
TOOL_0
 5
11A
 10
5181.044
 20
422.814
 30
0
 40
35.0
 50
270.0
 51
0
210
0
220
0
230
1.0
 0
LINE
 8
TOOL_0
 5
11B
 10
5216.044
 20
422.814
 30
0
 11
5216.044
 21
535.314
 31
0
 0
LINE
 8
TOOL_0
 5
11C
 10
5216.044
 20
535.314
 30
0
 11
5205.437
 21
545.921
 31
0
 0
LINE
 8
TOOL_0
 5
11D
 10
5205.437
 20
545.921
 30
0
 11
4340.044
 21
700.28
 31
0
 0
LINE
 8
TOOL_0
 5
11E
 10
4340.044
 20
700.28
 30
0
 11
4340.044
 21
731.814
 31
0
 0
LINE
 8
TOOL_0
 5
11F
 10
4340.044
 20
731.814
 30
0
 11
4340.044
 21
788.228
 31
0
 0
LINE
 8
TOOL_0
 5
120
 10
4340.044
 20
788.228
 30
0
 11
4350.63
 21
798.814
 31
0
 0
LINE
 8
TOOL_0
 5
121
 10
4350.63
 20
798.814
 30
0
 11
4473.044
 21
798.814
 31
0
 0
ARC
 8
TOOL_0
 5
122
 10
4473.044
 20
805.814
 30
0
 40
7.0
 50
270.0
 51
0
210
0
220
0
230
1.0
 0
LINE
 8
TOOL_0
 5
123
 10
4480.044
 20
805.814
 30
0
 11
4480.044
 21
818.814
 31
0
 0
LINE
 8
TOOL_0
 5
124
 10
4480.044
 20
818.814
 30
0
 11
5022.044
 21
818.814
 31
0
 0
LINE
 8
TOOL_0
 5
125
 10
5022.044
 20
818.814
 30
0
 11
5022.044
 21
805.814
 31
0
 0
ARC
 8
TOOL_0
 5
126
 10
5029.044
 20
805.814
 30
0
 40
7.0
 50
180.0
 51
270.0
210
0
220
0
230
1.0
 0
LINE
 8
TOOL_0
 5
127
 10
5029.044
 20
798.814
 30
0
 11
5183.044
 21
798.814
 31
0
 0
ARC
 8
TOOL_0
 5
128
 10
5183.044
 20
805.814
 30
0
 40
7.0
 50
270.0
 51
0
210
0
220
0
230
1.0
 0
LINE
 8
TOOL_0
 5
129
 10
5190.044
 20
805.814
 30
0
 11
5190.044
 21
818.814
 31
0
 0
LINE
 8
TOOL_0
 5
12A
 10
5190.044
 20
818.814
 30
0
 11
5607.044
 21
818.814
 31
0
 0
LINE
 8
TOOL_0
 5
12B
 10
5607.044
 20
818.814
 30
0
 11
5607.044
 21
810.814
 31
0
 0
ARC
 8
TOOL_0
 5
12C
 10
5614.044
 20
810.814
 30
0
 40
7.0
 50
180.0
 51
270.0
210
0
220
0
230
1.0
 0
LINE
 8
TOOL_0
 5
12D
 10
5614.044
 20
803.814
 30
0
 11
5792.544
 21
803.814
 31
0
 0
LINE
 8
TOOL_0
 5
12E
 10
5792.544
 20
803.814
 30
0
 11
5792.544
 21
475.321
 31
0
 0
LINE
 8
TOOL_0
 5
12F
 10
5792.544
 20
475.321
 30
0
 11
5137.897
 21
222.814
 31
0
 0
LINE
 8
TOOL_0
 5
130
 10
5137.897
 20
222.814
 30
0
 11
4664.328
 21
222.814
 31
0
 0
ARC
 8
TOOL_0
 5
131
 10
4664.328
 20
302.814
 30
0
 40
80.0
 50
230.388740979326
 51
270.0
210
0
220
0
230
1.0
 0
LINE
 8
TOOL_0
 5
132
 10
4613.322
 20
241.183
 30
0
 11
4340.044
 21
467.344
 31
0
 0
LINE
 8
TOOL_0
 5
133
 10
4340.044
 20
467.344
 30
0
 11
4340.044
 21
573.814
 31
0
 0
LINE
 8
TOOL_0
 5
134
 10
4340.044
 20
573.814
 30
0
 11
4421.044
 21
573.814
 31
0
 0
ARC
 8
TOOL_0
 5
135
 10
4421.044
 20
622.814
 30
0
 40
49.0
 50
270.0
 51
0
210
0
220
0
230
1.0
 0
LINE
 8
TOOL_0
 5
136
 10
4470.044
 20
622.814
 30
0
 11
4470.044
 21
682.814
 31
0
 0
ARC
 8
TOOL_0
 5
137
 10
4421.044
 20
682.814
 30
0
 40
49.0
 50
0
 51
90.0
210
0
220
0
230
1.0
 0
LINE
 8
TOOL_0
 5
138
 10
4421.044
 20
731.814
 30
0
 11
4340.044
 21
731.814
 31
0
 0
LINE
 8
TOOL_0
 5
139
 10
4340.044
 20
731.814
 30
0
 11
4334.773
 21
731.814
 31
0
 0
LINE
 8
TOOL_0
 5
13A
 10
4334.773
 20
731.814
 30
0
 11
4162.81
 21
938.004
 31
0
 0
LINE
 8
TOOL_0
 5
13B
 10
4162.81
 20
938.004
 30
0
 11
4197.81
 21
938.004
 31
0
 0
ARC
 8
TOOL_0
 5
13C
 10
4162.81
 20
938.004
 30
0
 40
35.0
 50
0
 51
180.0
210
0
220
0
230
1.0
 0
ARC
 8
TOOL_0
 5
13D
 10
4162.81
 20
938.004
 30
0
 40
35.0
 50
180.0
 51
0
210
0
220
0
230
1.0
 0
LINE
 8
TOOL_0
 5
13E
 10
4197.81
 20
938.004
 30
0
 11
4187.203
 21
948.611
 31
0
 0
LINE
 8
TOOL_0
 5
13F
 10
4187.203
 20
948.611
 30
0
 11
3847.81
 21
1978.004
 31
0
 0
LINE
 8
TOOL_0
 5
140
 10
3847.81
 20
1978.004
 30
0
 11
3882.81
 21
1978.004
 31
0
 0
ARC
 8
TOOL_0
 5
141
 10
3847.81
 20
1978.004
 30
0
 40
35.0
 50
0
 51
180.0
210
0
220
0
230
1.0
 0
ARC
 8
TOOL_0
 5
142
 10
3847.81
 20
1978.004
 30
0
 40
35.0
 50
180.0
 51
0
210
0
220
0
230
1.0
 0
LINE
 8
TOOL_0
 5
143
 10
3882.81
 20
1978.004
 30
0
 11
3872.203
 21
1988.611
 31
0
 0
LINE
 8
TOOL_0
 5
144
 10
3872.203
 20
1988.611
 30
0
 11
5312.81
 21
1978.004
 31
0
 0
LINE
 8
TOOL_0
 5
145
 10
5312.81
 20
1978.004
 30
0
 11
5347.81
 21
1978.004
 31
0
 0
ARC
 8
TOOL_0
 5
146
 10
5312.81
 20
1978.004
 30
0
 40
35.0
 50
0
 51
180.0
210
0
220
0
230
1.0
 0
ARC
 8
TOOL_0
 5
147
 10
5312.81
 20
1978.004
 30
0
 40
35.0
 50
180.0
 51
0
210
0
220
0
230
1.0
 0
LINE
 8
TOOL_0
 5
148
 10
5347.81
 20
1978.004
 30
0
 11
5337.203
 21
1988.611
 31
0
 0
LINE
 8
TOOL_0
 5
149
 10
5337.203
 20
1988.611
 30
0
 11
6777.81
 21
1978.004
 31
0
 0
LINE
 8
TOOL_0
 5
14A
 10
6777.81
 20
1978.004
 30
0
 11
6812.81
 21
1978.004
 31
0
 0
ARC
 8
TOOL_0
 5
14B
 10
6777.81
 20
1978.004
 30
0
 40
35.0
 50
0
 51
180.0
210
0
220
0
230
1.0
 0
ARC
 8
TOOL_0
 5
14C
 10
6777.81
 20
1978.004
 30
0
 40
35.0
 50
180.0
 51
0
210
0
220
0
230
1.0
 0
LINE
 8
TOOL_0
 5
14D
 10
6812.81
 20
1978.004
 30
0
 11
6802.203
 21
1988.611
 31
0
 0
LINE
 8
TOOL_0
 5
14E
 10
6802.203
 20
1988.611
 30
0
 11
6462.81
 21
938.004
 31
0
 0
LINE
 8
TOOL_0
 5
14F
 10
6462.81
 20
938.004
 30
0
 11
6497.81
 21
938.004
 31
0
 0
ARC
 8
TOOL_0
 5
150
 10
6462.81
 20
938.004
 30
0
 40
35.0
 50
0
 51
180.0
210
0
220
0
230
1.0
 0
ARC
 8
TOOL_0
 5
151
 10
6462.81
 20
938.004
 30
0
 40
35.0
 50
180.0
 51
0
210
0
220
0
230
1.0
 0
LINE
 8
TOOL_0
 5
152
 10
6497.81
 20
938.004
 30
0
 11
6487.203
 21
948.611
 31
0
 0
LINE
 8
TOOL_0
 5
153
 10
6487.203
 20
948.611
 30
0
 11
3144.001
 21
2386.004
 31
0
 0
LINE
 8
TOOL_0
 5
154
 10
3144.001
 20
2386.004
 30
0
 11
3175.31
 21
2386.004
 31
0
 0
LINE
 8
TOOL_0
 5
155
 10
3175.31
 20
2386.004
 30
0
 11
7450.31
 21
2386.004
 31
0
 0
LINE
 8
TOOL_0
 5
156
 10
7450.31
 20
2386.004
 30
0
 11
7450.31
 21
2278.004
 31
0
 0
LINE
 8
TOOL_0
 5
157
 10
7450.31
 20
2278.004
 30
0
 11
7440.31
 21
2278.004
 31
0
 0
LINE
 8
TOOL_0
 5
158
 10
7440.31
 20
2278.004
 30
0
 11
7440.31
 21
1756.004
 31
0
 0
LINE
 8
TOOL_0
 5
159
 10
7440.31
 20
1756.004
 30
0
 11
6953.31
 21
1756.004
 31
0
 0
ARC
 8
TOOL_0
 5
15A
 10
6953.31
 20
1693.004
 30
0
 40
63.0
 50
90.0
 51
135.0
210
0
220
0
230
1.0
 0
LINE
 8
TOOL_0
 5
15B
 10
6908.762
 20
1737.552
 30
0
 11
6881.262
 21
1710.052
 31
0
 0
ARC
 8
TOOL_0
 5
15C
 10
6925.81
 20
1665.504
 30
0
 40
63.000385776597
 50
135.0
 51
180.0
210
0
220
0
230
1.0
 0
LINE
 8
TOOL_0
 5
15D
 10
6862.81
 20
1665.504
 30
0
 11
6862.81
 21
872.004
 31
0
 0
ARC
 8
TOOL_0
 5
15E
 10
6827.81
 20
872.004
 30
0
 40
35.0
 50
270.0
 51
0
210
0
220
0
230
1.0
 0
LINE
 8
TOOL_0
 5
15F
 10
6827.81
 20
837.004
 30
0
 11
3797.81
 21
837.004
 31
0
 0
ARC
 8
TOOL_0
 5
160
 10
3797.81
 20
872.004
 30
0
 40
35.0
 50
180.0
 51
270.0
210
0
220
0
230
1.0
 0
LINE
 8
TOOL_0
 5
161
 10
3762.81
 20
872.004
 30
0
 11
3762.81
 21
1665.504
 31
0
 0
ARC
 8
TOOL_0
 5
162
 10
3699.81
 20
1665.504
 30
0
 40
63.0
 50
0
 51
45.0
210
0
220
0
230
1.0
 0
LINE
 8
TOOL_0
 5
163
 10
3744.358
 20
1710.052
 30
0
 11
3716.858
 21
1737.552
 31
0
 0
ARC
 8
TOOL_0
 5
164
 10
3672.31
 20
1693.004
 30
0
 40
63.000385776597
 50
45.0
 51
90.0
210
0
220
0
230
1.0
 0
LINE
 8
TOOL_0
 5
165
 10
3672.31
 20
1756.004
 30
0
 11
3185.31
 21
1756.004
 31
0
 0
LINE
 8
TOOL_0
 5
166
 10
3185.31
 20
1756.004
 30
0
 11
3185.31
 21
2278.004
 31
0
 0
LINE
 8
TOOL_0
 5
167
 10
3185.31
 20
2278.004
 30
0
 11
3175.31
 21
2278.004
 31
0
 0
LINE
 8
TOOL_0
 5
168
 10
3175.31
 20
2278.004
 30
0
 11
3175.31
 21
2386.004
 31
0
 0
LINE
 8
TOOL_0
 5
169
 10
3175.31
 20
2386.004
 30
0
 11
3175.31
 21
2391.56
 31
0
 0
LINE
 8
TOOL_0
 5
16A
 10
3175.31
 20
2391.56
 30
0
 11
7354.99
 21
1197.425
 31
0
 0
LINE
 8
TOOL_0
 5
16B
 10
7354.99
 20
1197.425
 30
0
 11
7389.99
 21
1197.425
 31
0
 0
LINE
 8
TOOL_0
 5
16C
 10
7389.99
 20
1197.425
 30
0
 11
7389.99
 21
1262.425
 31
0
 0
ARC
 8
TOOL_0
 5
16D
 10
7354.99
 20
1262.425
 30
0
 40
35.0
 50
0
 51
90.0
210
0
220
0
230
1.0
 0
LINE
 8
TOOL_0
 5
16E
 10
7354.99
 20
1297.425
 30
0
 11
7089.99
 21
1297.425
 31
0
 0
ARC
 8
TOOL_0
 5
16F
 10
7089.99
 20
1262.425
 30
0
 40
35.0
 50
90.0
 51
180.0
210
0
220
0
230
1.0
 0
LINE
 8
TOOL_0
 5
170
 10
7054.99
 20
1262.425
 30
0
 11
7054.99
 21
1132.425
 31
0
 0
ARC
 8
TOOL_0
 5
171
 10
7089.99
 20
1132.425
 30
0
 40
35.0
 50
180.0
 51
270.0
210
0
220
0
230
1.0
 0
LINE
 8
TOOL_0
 5
172
 10
7089.99
 20
1097.425
 30
0
 11
7354.99
 21
1097.425
 31
0
 0
ARC
 8
TOOL_0
 5
173
 10
7354.99
 20
1132.425
 30
0
 40
35.0
 50
270.0
 51
0
210
0
220
0
230
1.0
 0
LINE
 8
TOOL_0
 5
174
 10
7389.99
 20
1132.425
 30
0
 11
7389.99
 21
1197.425
 31
0
 0
LINE
 8
TOOL_0
 5
175
 10
7389.99
 20
1197.425
 30
0
 11
7379.383
 21
1208.032
 31
0
 0
LINE
 8
TOOL_0
 5
176
 10
7379.383
 20
1208.032
 30
0
 11
7314.99
 21
807.425
 31
0
 0
LINE
 8
TOOL_0
 5
177
 10
7314.99
 20
807.425
 30
0
 11
7349.99
 21
807.425
 31
0
 0
LINE
 8
TOOL_0
 5
178
 10
7349.99
 20
807.425
 30
0
 11
7349.99
 21
872.425
 31
0
 0
ARC
 8
TOOL_0
 5
179
 10
7314.99
 20
872.425
 30
0
 40
35.0
 50
0
 51
90.0
210
0
220
0
230
1.0
 0
LINE
 8
TOOL_0
 5
17A
 10
7314.99
 20
907.425
 30
0
 11
7089.99
 21
907.425
 31
0
 0
ARC
 8
TOOL_0
 5
17B
 10
7089.99
 20
872.425
 30
0
 40
35.0
 50
90.0
 51
180.0
210
0
220
0
230
1.0
 0
LINE
 8
TOOL_0
 5
17C
 10
7054.99
 20
872.425
 30
0
 11
7054.99
 21
742.425
 31
0
 0
ARC
 8
TOOL_0
 5
17D
 10
7089.99
 20
742.425
 30
0
 40
35.0
 50
180.0
 51
270.0
210
0
220
0
230
1.0
 0
LINE
 8
TOOL_0
 5
17E
 10
7089.99
 20
707.425
 30
0
 11
7314.99
 21
707.425
 31
0
 0
ARC
 8
TOOL_0
 5
17F
 10
7314.99
 20
742.425
 30
0
 40
35.0
 50
270.0
 51
0
210
0
220
0
230
1.0
 0
LINE
 8
TOOL_0
 5
180
 10
7349.99
 20
742.425
 30
0
 11
7349.99
 21
807.425
 31
0
 0
LINE
 8
TOOL_0
 5
181
 10
7349.99
 20
807.425
 30
0
 11
7339.383
 21
818.032
 31
0
 0
LINE
 8
TOOL_0
 5
182
 10
7339.383
 20
818.032
 30
0
 11
7368.545
 21
1583.425
 31
0
 0
LINE
 8
TOOL_0
 5
183
 10
7368.545
 20
1583.425
 30
0
 11
7398.99
 21
1583.425
 31
0
 0
LINE
 8
TOOL_0
 5
184
 10
7398.99
 20
1583.425
 30
0
 11
7455.404
 21
1583.425
 31
0
 0
LINE
 8
TOOL_0
 5
185
 10
7455.404
 20
1583.425
 30
0
 11
7465.99
 21
1572.839
 31
0
 0
LINE
 8
TOOL_0
 5
186
 10
7465.99
 20
1572.839
 30
0
 11
7465.99
 21
1450.425
 31
0
 0
ARC
 8
TOOL_0
 5
187
 10
7472.99
 20
1450.425
 30
0
 40
7.0
 50
180.0
 51
270.0
210
0
220
0
230
1.0
 0
LINE
 8
TOOL_0
 5
188
 10
7472.99
 20
1443.425
 30
0
 11
7485.99
 21
1443.425
 31
0
 0
LINE
 8
TOOL_0
 5
189
 10
7485.99
 20
1443.425
 30
0
 11
7485.99
 21
901.425
 31
0
 0
LINE
 8
TOOL_0
 5
18A
 10
7485.99
 20
901.425
 30
0
 11
7472.99
 21
901.425
 31
0
 0
ARC
 8
TOOL_0
 5
18B
 10
7472.99
 20
894.425
 30
0
 40
7.0
 50
90.0
 51
180.0
210
0
220
0
230
1.0
 0
LINE
 8
TOOL_0
 5
18C
 10
7465.99
 20
894.425
 30
0
 11
7465.99
 21
740.425
 31
0
 0
ARC
 8
TOOL_0
 5
18D
 10
7472.99
 20
740.425
 30
0
 40
7.0
 50
180.0
 51
270.0
210
0
220
0
230
1.0
 0
LINE
 8
TOOL_0
 5
18E
 10
7472.99
 20
733.425
 30
0
 11
7485.99
 21
733.425
 31
0
 0
LINE
 8
TOOL_0
 5
18F
 10
7485.99
 20
733.425
 30
0
 11
7485.99
 21
316.425
 31
0
 0
LINE
 8
TOOL_0
 5
190
 10
7485.99
 20
316.425
 30
0
 11
7477.99
 21
316.425
 31
0
 0
ARC
 8
TOOL_0
 5
191
 10
7477.99
 20
309.425
 30
0
 40
7.0
 50
90.0
 51
180.0
210
0
220
0
230
1.0
 0
LINE
 8
TOOL_0
 5
192
 10
7470.99
 20
309.425
 30
0
 11
7470.99
 21
130.925
 31
0
 0
LINE
 8
TOOL_0
 5
193
 10
7470.99
 20
130.925
 30
0
 11
7142.497
 21
130.925
 31
0
 0
LINE
 8
TOOL_0
 5
194
 10
7142.497
 20
130.925
 30
0
 11
6889.99
 21
785.572
 31
0
 0
LINE
 8
TOOL_0
 5
195
 10
6889.99
 20
785.572
 30
0
 11
6889.99
 21
1259.141
 31
0
 0
ARC
 8
TOOL_0
 5
196
 10
6969.99
 20
1259.141
 30
0
 40
80.0
 50
140.389749357743
 51
180.0
210
0
220
0
230
1.0
 0
LINE
 8
TOOL_0
 5
197
 10
6908.358
 20
1310.146
 30
0
 11
7134.519
 21
1583.424
 31
0
 0
LINE
 8
TOOL_0
 5
198
 10
7134.519
 20
1583.424
 30
0
 11
7240.989
 21
1583.424
 31
0
 0
LINE
 8
TOOL_0
 5
199
 10
7240.989
 20
1583.424
 30
0
 11
7240.989
 21
1502.424
 31
0
 0
ARC
 8
TOOL_0
 5
19A
 10
7289.989
 20
1502.424
 30
0
 40
49.0
 50
180.0
 51
270.0
210
0
220
0
230
1.0
 0
LINE
 8
TOOL_0
 5
19B
 10
7289.989
 20
1453.424
 30
0
 11
7349.989
 21
1453.424
 31
0
 0
ARC
 8
TOOL_0
 5
19C
 10
7349.989
 20
1502.424
 30
0
 40
49.0
 50
270.0
 51
0
210
0
220
0
230
1.0
 0
LINE
 8
TOOL_0
 5
19D
 10
7398.989
 20
1502.424
 30
0
 11
7398.989
 21
1583.424
 31
0
 0
LINE
 8
TOOL_0
 5
19E
 10
7398.989
 20
1583.424
 30
0
 11
7398.989
 21
1588.409
 31
0
 0
ENDSEC
 0
EOF

