0
SECTION
2
TABLES
0
TABLE
2
LAYER
70
0
0
LAYER
2
LAYER_NAME
70
0
62
1
6
CONTINUOUS
0
ENDTAB
0
ENDSEC
 0
SECTION
 2
ENTITIES
 0
LINE
 8
TOOL_0
 5
1
 10
931.253
 20
94.001
 30
0
 11
901.0
 21
94.001
 31
0
 0
LINE
 8
TOOL_0
 5
2
 10
901.0
 20
94.001
 30
0
 11
829.006
 21
94.001
 31
0
 0
ARC
 8
TOOL_0
 5
3
 10
829.006
 20
44.601
 30
0
 40
49.4
 50
90.0
 51
99.162199300029
210
0
220
0
230
1.0
 0
LINE
 8
TOOL_0
 5
4
 10
821.14
 20
93.371
 30
0
 11
364.051
 21
19.647
 31
0
 0
ARC
 8
TOOL_0
 5
5
 10
355.994
 20
69.601
 30
0
 40
50.59957870378
 50
270.0
 51
279.162238862844
210
0
220
0
230
1.0
 0
LINE
 8
TOOL_0
 5
6
 10
355.994
 20
19.001
 30
0
 11
115.119
 21
19.001
 31
0
 0
ARC
 8
TOOL_0
 5
7
 10
115.119
 20
69.001
 30
0
 40
50.0
 50
222.799550606304
 51
270.0
210
0
220
0
230
1.0
 0
LINE
 8
TOOL_0
 5
8
 10
78.432
 20
35.029
 30
0
 11
37.906
 21
78.793
 31
0
 0
ARC
 8
TOOL_0
 5
9
 10
90.001
 20
127.033
 30
0
 40
70.999905809797
 50
179.99919301719
 51
222.79970457782
210
0
220
0
230
1.0
 0
ARC
 8
TOOL_0
 5
A
 10
738.31
 20
134.601
 30
0
 40
719.348800631516
 50
179.264974560574
 51
180.602718958345
210
0
220
0
230
1.0
 0
ARC
 8
TOOL_0
 5
B
 10
90.07
 20
142.14
 30
0
 40
71.070072611473
 50
137.221527847692
 51
178.638221691702
210
0
220
0
230
1.0
 0
LINE
 8
TOOL_0
 5
C
 10
37.906
 20
190.408
 30
0
 11
78.432
 21
234.172
 31
0
 0
ARC
 8
TOOL_0
 5
D
 10
115.118
 20
200.2
 30
0
 40
49.99959379835
 50
90.0
 51
137.199670811582
210
0
220
0
230
1.0
 0
LINE
 8
TOOL_0
 5
E
 10
115.118
 20
250.2
 30
0
 11
355.994
 21
250.2
 31
0
 0
ARC
 8
TOOL_0
 5
F
 10
355.994
 20
199.6
 30
0
 40
50.6
 50
80.837761137156
 51
90.0
210
0
220
0
230
1.0
 0
LINE
 8
TOOL_0
 5
10
 10
364.051
 20
249.554
 30
0
 11
821.14
 21
175.83
 31
0
 0
ARC
 8
TOOL_0
 5
11
 10
829.006
 20
224.6
 30
0
 40
49.400271821115
 50
260.837800699971
 51
270.0
210
0
220
0
230
1.0
 0
LINE
 8
TOOL_0
 5
12
 10
829.006
 20
175.2
 30
0
 11
901.0
 21
175.2
 31
0
 0
ARC
 8
TOOL_0
 5
13
 10
901.0
 20
155.2
 30
0
 40
20.0
 50
0
 51
90.0
210
0
220
0
230
1.0
 0
LINE
 8
TOOL_0
 5
14
 10
921.0
 20
155.2
 30
0
 11
921.0
 21
114.0
 31
0
 0
ARC
 8
TOOL_0
 5
15
 10
901.0
 20
114.0
 30
0
 40
20.0
 50
270.0
 51
0
210
0
220
0
230
1.0
 0
LINE
 8
TOOL_0
 5
16
 10
901.0
 20
94.0
 30
0
 11
901.0
 21
84.384
 31
0
 0
LINE
 8
TOOL_0
 5
17
 10
901.0
 20
84.384
 30
0
 11
965.219
 21
-0.001
 31
0
 0
LINE
 8
TOOL_0
 5
18
 10
965.219
 20
-0.001
 30
0
 11
965.219
 21
0.999
 31
0
 0
LINE
 8
TOOL_0
 5
19
 10
965.219
 20
0.999
 30
0
 11
965.219
 21
-0.001
 31
0
 0
LINE
 8
TOOL_0
 5
1A
 10
965.219
 20
-0.001
 30
0
 11
965.219
 21
-0.001
 31
0
 0
LINE
 8
TOOL_0
 5
1B
 10
965.219
 20
-0.001
 30
0
 11
965.219
 21
0.999
 31
0
 0
LINE
 8
TOOL_0
 5
1C
 10
965.219
 20
0.999
 30
0
 11
965.219
 21
1042.004
 31
0
 0
LINE
 8
TOOL_0
 5
1D
 10
965.219
 20
1042.004
 30
0
 11
1.0
 21
1042.004
 31
0
 0
LINE
 8
TOOL_0
 5
1E
 10
1.0
 20
1042.004
 30
0
 11
0
 21
1042.004
 31
0
 0
ENDSEC
 0
EOF

