0
SECTION
2
TABLES
0
TABLE
2
LAYER
70
0
0
LAYER
2
LAYER_NAME
70
0
62
1
6
CONTINUOUS
0
ENDTAB
0
ENDSEC
 0
SECTION
 2
ENTITIES
 0
LINE
 8
TOOL_0
 5
1
 10
1559.099
 20
960.616
 30
0
 11
1588.979
 21
963.298
 31
0
 0
ARC
 8
TOOL_0
 5
2
 10
1532.347
 20
958.215
 30
0
 40
56.859654527617
 50
5.128834398715
 51
185.127740699229
210
0
220
0
230
1.0
 0
ARC
 8
TOOL_0
 5
3
 10
1532.346
 20
958.216
 30
0
 40
56.859654527617
 50
185.128834398715
 51
5.12774069923
210
0
220
0
230
1.0
 0
LINE
 8
TOOL_0
 5
4
 10
1588.979
 20
963.298
 30
0
 11
1667.582
 21
1033.225
 31
0
 0
LINE
 8
TOOL_0
 5
5
 10
1667.582
 20
1033.225
 30
0
 11
1632.961
 21
997.161
 31
0
 0
LINE
 8
TOOL_0
 5
6
 10
1632.961
 20
997.161
 30
0
 11
1631.078
 21
994.824
 31
0
 0
ARC
 8
TOOL_0
 5
7
 10
1532.346
 20
958.216
 30
0
 40
105.300301462057
 50
201.160294065296
 51
20.343849033725
210
0
220
0
230
1.0
 0
ARC
 8
TOOL_0
 5
8
 10
1532.346
 20
958.216
 30
0
 40
105.299934097795
 50
21.976411261344
 51
201.160294065296
210
0
220
0
230
1.0
 0
LINE
 8
TOOL_0
 5
9
 10
1629.995
 20
997.622
 30
0
 11
1632.961
 21
997.162
 31
0
 0
LINE
 8
TOOL_0
 5
A
 10
1632.961
 20
997.162
 30
0
 11
1638.324
 21
993.182
 31
0
 0
LINE
 8
TOOL_0
 5
B
 10
1638.324
 20
993.182
 30
0
 11
1323.406
 21
977.928
 31
0
 0
LINE
 8
TOOL_0
 5
C
 10
1323.406
 20
977.928
 30
0
 11
1353.406
 21
977.928
 31
0
 0
ARC
 8
TOOL_0
 5
D
 10
1296.546
 20
977.928
 30
0
 40
56.86
 50
0
 51
180.0
210
0
220
0
230
1.0
 0
ARC
 8
TOOL_0
 5
E
 10
1296.546
 20
977.928
 30
0
 40
56.86
 50
180.0
 51
0
210
0
220
0
230
1.0
 0
LINE
 8
TOOL_0
 5
F
 10
1353.406
 20
977.928
 30
0
 11
1217.76
 21
1106.848
 31
0
 0
LINE
 8
TOOL_0
 5
10
 10
1217.76
 20
1106.848
 30
0
 11
1237.886
 21
1068.477
 31
0
 0
LINE
 8
TOOL_0
 5
11
 10
1237.886
 20
1068.477
 30
0
 11
1240.559
 21
1067.11
 31
0
 0
ARC
 8
TOOL_0
 5
12
 10
1296.547
 20
977.928
 30
0
 40
105.299977530862
 50
302.936844628807
 51
122.120390346135
210
0
220
0
230
1.0
 0
ARC
 8
TOOL_0
 5
13
 10
1296.547
 20
977.928
 30
0
 40
105.299794083369
 50
123.752394241001
 51
302.936844628807
210
0
220
0
230
1.0
 0
LINE
 8
TOOL_0
 5
14
 10
1238.042
 20
1065.479
 30
0
 11
1237.887
 21
1068.476
 31
0
 0
LINE
 8
TOOL_0
 5
15
 10
1237.887
 20
1068.476
 30
0
 11
1243.137
 21
1072.74
 31
0
 0
LINE
 8
TOOL_0
 5
16
 10
1243.137
 20
1072.74
 30
0
 11
1824.153
 21
1455.391
 31
0
 0
LINE
 8
TOOL_0
 5
17
 10
1824.153
 20
1455.391
 30
0
 11
1823.485
 21
1404.576
 31
0
 0
LINE
 8
TOOL_0
 5
18
 10
1823.485
 20
1404.576
 30
0
 11
1823.485
 21
1133.826
 31
0
 0
ARC
 8
TOOL_0
 5
19
 10
1802.735
 20
1133.826
 30
0
 40
20.75
 50
270.0
 51
0
210
0
220
0
230
1.0
 0
LINE
 8
TOOL_0
 5
1A
 10
1802.735
 20
1113.076
 30
0
 11
1330.735
 21
1113.076
 31
0
 0
ARC
 8
TOOL_0
 5
1B
 10
1330.735
 20
1133.826
 30
0
 40
20.75
 50
180.0
 51
270.0
210
0
220
0
230
1.0
 0
LINE
 8
TOOL_0
 5
1C
 10
1309.985
 20
1133.826
 30
0
 11
1309.985
 21
1404.576
 31
0
 0
LINE
 8
TOOL_0
 5
1D
 10
1309.985
 20
1404.576
 30
0
 11
1823.485
 21
1404.576
 31
0
 0
LINE
 8
TOOL_0
 5
1E
 10
1823.485
 20
1404.576
 30
0
 11
1830.489
 21
1404.144
 31
0
 0
LINE
 8
TOOL_0
 5
1F
 10
1830.489
 20
1404.144
 30
0
 11
4496.886
 21
913.863
 31
0
 0
LINE
 8
TOOL_0
 5
20
 10
4496.886
 20
913.863
 30
0
 11
4526.886
 21
913.863
 31
0
 0
ARC
 8
TOOL_0
 5
21
 10
4470.026
 20
913.863
 30
0
 40
56.86
 50
0
 51
180.0
210
0
220
0
230
1.0
 0
ARC
 8
TOOL_0
 5
22
 10
4470.026
 20
913.863
 30
0
 40
56.86
 50
180.0
 51
0
210
0
220
0
230
1.0
 0
LINE
 8
TOOL_0
 5
23
 10
4526.886
 20
913.863
 30
0
 11
4608.113
 21
984.607
 31
0
 0
LINE
 8
TOOL_0
 5
24
 10
4608.113
 20
984.607
 30
0
 11
4572.236
 21
948.405
 31
0
 0
LINE
 8
TOOL_0
 5
25
 10
4572.236
 20
948.405
 30
0
 11
4570.253
 21
946.152
 31
0
 0
ARC
 8
TOOL_0
 5
26
 10
4470.026
 20
913.863
 30
0
 40
105.299720085098
 50
198.673775924888
 51
17.856796781856
210
0
220
0
230
1.0
 0
ARC
 8
TOOL_0
 5
27
 10
4470.026
 20
913.862
 30
0
 40
105.300013509021
 50
19.489081023621
 51
198.673260449614
210
0
220
0
230
1.0
 0
LINE
 8
TOOL_0
 5
28
 10
4569.293
 20
948.993
 30
0
 11
4572.236
 21
948.405
 31
0
 0
LINE
 8
TOOL_0
 5
29
 10
4572.236
 20
948.405
 30
0
 11
4577.766
 21
942.217
 31
0
 0
LINE
 8
TOOL_0
 5
2A
 10
4577.766
 20
942.217
 30
0
 11
4848.627
 21
1375.559
 31
0
 0
LINE
 8
TOOL_0
 5
2B
 10
4848.627
 20
1375.559
 30
0
 11
4849.588
 21
1335.583
 31
0
 0
LINE
 8
TOOL_0
 5
2C
 10
4849.588
 20
1335.583
 30
0
 11
4849.588
 21
1064.833
 31
0
 0
ARC
 8
TOOL_0
 5
2D
 10
4828.838
 20
1064.833
 30
0
 40
20.75
 50
270.0
 51
0
210
0
220
0
230
1.0
 0
LINE
 8
TOOL_0
 5
2E
 10
4828.838
 20
1044.083
 30
0
 11
4356.838
 21
1044.083
 31
0
 0
ARC
 8
TOOL_0
 5
2F
 10
4356.838
 20
1064.833
 30
0
 40
20.75
 50
180.0
 51
270.0
210
0
220
0
230
1.0
 0
LINE
 8
TOOL_0
 5
30
 10
4336.088
 20
1064.833
 30
0
 11
4336.088
 21
1335.583
 31
0
 0
LINE
 8
TOOL_0
 5
31
 10
4336.088
 20
1335.583
 30
0
 11
4849.588
 21
1335.583
 31
0
 0
LINE
 8
TOOL_0
 5
32
 10
4849.588
 20
1335.583
 30
0
 11
4856.84
 21
1335.396
 31
0
 0
LINE
 8
TOOL_0
 5
33
 10
4856.84
 20
1335.396
 30
0
 11
4698.273
 21
1494.195
 31
0
 0
LINE
 8
TOOL_0
 5
34
 10
4698.273
 20
1494.195
 30
0
 11
4728.244
 21
1492.881
 31
0
 0
ARC
 8
TOOL_0
 5
35
 10
4671.439
 20
1495.372
 30
0
 40
56.859591152241
 50
357.489087100196
 51
177.489131245169
210
0
220
0
230
1.0
 0
ARC
 8
TOOL_0
 5
36
 10
4671.438
 20
1495.372
 30
0
 40
56.859591152241
 50
177.489087100195
 51
357.48913124517
210
0
220
0
230
1.0
 0
LINE
 8
TOOL_0
 5
37
 10
4728.244
 20
1492.881
 30
0
 11
4782.727
 21
1419.082
 31
0
 0
LINE
 8
TOOL_0
 5
38
 10
4782.727
 20
1419.082
 30
0
 11
4747.727
 21
1419.082
 31
0
 0
LINE
 8
TOOL_0
 5
39
 10
4747.727
 20
1419.082
 30
0
 11
4744.828
 21
1419.86
 31
0
 0
ARC
 8
TOOL_0
 5
3A
 10
4671.438
 20
1495.372
 30
0
 40
105.30030505179
 50
134.999615250243
 51
314.1835340396
210
0
220
0
230
1.0
 0
ARC
 8
TOOL_0
 5
3B
 10
4671.438
 20
1495.372
 30
0
 40
105.300220536331
 50
315.815696539485
 51
134.999615250243
210
0
220
0
230
1.0
 0
LINE
 8
TOOL_0
 5
3C
 10
4746.949
 20
1421.981
 30
0
 11
4747.727
 21
1419.082
 31
0
 0
LINE
 8
TOOL_0
 5
3D
 10
4747.727
 20
1419.082
 30
0
 11
4747.727
 21
1414.082
 31
0
 0
LINE
 8
TOOL_0
 5
3E
 10
4747.727
 20
1414.082
 30
0
 11
4698.299
 21
1736.846
 31
0
 0
LINE
 8
TOOL_0
 5
3F
 10
4698.299
 20
1736.846
 30
0
 11
4728.298
 21
1736.846
 31
0
 0
ARC
 8
TOOL_0
 5
40
 10
4671.438
 20
1736.846
 30
0
 40
56.86
 50
0
 51
180.0
210
0
220
0
230
1.0
 0
ARC
 8
TOOL_0
 5
41
 10
4671.438
 20
1736.846
 30
0
 40
56.86
 50
180.0
 51
0
210
0
220
0
230
1.0
 0
LINE
 8
TOOL_0
 5
42
 10
4728.298
 20
1736.846
 30
0
 11
4782.726
 21
1660.557
 31
0
 0
LINE
 8
TOOL_0
 5
43
 10
4782.726
 20
1660.557
 30
0
 11
4747.726
 21
1660.557
 31
0
 0
LINE
 8
TOOL_0
 5
44
 10
4747.726
 20
1660.557
 30
0
 11
4744.827
 21
1661.335
 31
0
 0
ARC
 8
TOOL_0
 5
45
 10
4671.437
 20
1736.847
 30
0
 40
105.30030505179
 50
134.999615250243
 51
314.1835340396
210
0
220
0
230
1.0
 0
ARC
 8
TOOL_0
 5
46
 10
4671.437
 20
1736.847
 30
0
 40
105.300220536331
 50
315.815696539485
 51
134.999615250243
210
0
220
0
230
1.0
 0
LINE
 8
TOOL_0
 5
47
 10
4746.948
 20
1663.456
 30
0
 11
4747.726
 21
1660.557
 31
0
 0
LINE
 8
TOOL_0
 5
48
 10
4747.726
 20
1660.557
 30
0
 11
4747.726
 21
1655.557
 31
0
 0
LINE
 8
TOOL_0
 5
49
 10
4747.726
 20
1655.557
 30
0
 11
516.5
 21
2339.812
 31
0
 0
LINE
 8
TOOL_0
 5
4A
 10
516.5
 20
2339.812
 30
0
 11
546.5
 21
2339.812
 31
0
 0
LINE
 8
TOOL_0
 5
4B
 10
546.5
 20
2339.812
 30
0
 11
546.5
 21
2346.5
 31
0
 0
ARC
 8
TOOL_0
 5
4C
 10
536.5
 20
2346.5
 30
0
 40
10.0
 50
0
 51
90.0
210
0
220
0
230
1.0
 0
LINE
 8
TOOL_0
 5
4D
 10
536.5
 20
2356.5
 30
0
 11
356.5
 21
2356.5
 31
0
 0
ARC
 8
TOOL_0
 5
4E
 10
356.5
 20
2346.5
 30
0
 40
10.0
 50
90.0
 51
180.0
210
0
220
0
230
1.0
 0
LINE
 8
TOOL_0
 5
4F
 10
346.5
 20
2346.5
 30
0
 11
346.5
 21
2316.5
 31
0
 0
ARC
 8
TOOL_0
 5
50
 10
356.5
 20
2316.5
 30
0
 40
10.0
 50
180.0
 51
270.0
210
0
220
0
230
1.0
 0
LINE
 8
TOOL_0
 5
51
 10
356.5
 20
2306.5
 30
0
 11
536.5
 21
2306.5
 31
0
 0
ARC
 8
TOOL_0
 5
52
 10
536.5
 20
2316.5
 30
0
 40
10.0
 50
270.0
 51
0
210
0
220
0
230
1.0
 0
LINE
 8
TOOL_0
 5
53
 10
546.5
 20
2316.5
 30
0
 11
546.5
 21
2339.812
 31
0
 0
LINE
 8
TOOL_0
 5
54
 10
546.5
 20
2339.812
 30
0
 11
1053.5
 21
2148.5
 31
0
 0
LINE
 8
TOOL_0
 5
55
 10
1053.5
 20
2148.5
 30
0
 11
1083.5
 21
2148.5
 31
0
 0
ARC
 8
TOOL_0
 5
56
 10
1048.5
 20
2148.5
 30
0
 40
35.0
 50
0
 51
180.0
210
0
220
0
230
1.0
 0
ARC
 8
TOOL_0
 5
57
 10
1048.5
 20
2148.5
 30
0
 40
35.0
 50
180.0
 51
0
210
0
220
0
230
1.0
 0
LINE
 8
TOOL_0
 5
58
 10
1083.5
 20
2148.5
 30
0
 11
313.5
 21
120.5
 31
0
 0
LINE
 8
TOOL_0
 5
59
 10
313.5
 20
120.5
 30
0
 11
343.5
 21
120.5
 31
0
 0
ARC
 8
TOOL_0
 5
5A
 10
313.5
 20
120.5
 30
0
 40
30.0
 50
0
 51
90.0
210
0
220
0
230
1.0
 0
LINE
 8
TOOL_0
 5
5B
 10
313.5
 20
150.5
 30
0
 11
273.5
 21
150.5
 31
0
 0
ARC
 8
TOOL_0
 5
5C
 10
273.5
 20
120.5
 30
0
 40
30.0
 50
90.0
 51
180.0
210
0
220
0
230
1.0
 0
LINE
 8
TOOL_0
 5
5D
 10
243.5
 20
120.5
 30
0
 11
243.5
 21
100.5
 31
0
 0
ARC
 8
TOOL_0
 5
5E
 10
253.5
 20
100.5
 30
0
 40
10.0
 50
180.0
 51
270.0
210
0
220
0
230
1.0
 0
LINE
 8
TOOL_0
 5
5F
 10
253.5
 20
90.5
 30
0
 11
333.5
 21
90.5
 31
0
 0
ARC
 8
TOOL_0
 5
60
 10
333.5
 20
100.5
 30
0
 40
10.0
 50
270.0
 51
0
210
0
220
0
230
1.0
 0
LINE
 8
TOOL_0
 5
61
 10
343.5
 20
100.5
 30
0
 11
343.5
 21
120.5
 31
0
 0
LINE
 8
TOOL_0
 5
62
 10
343.5
 20
120.5
 30
0
 11
423.5
 21
220.5
 31
0
 0
LINE
 8
TOOL_0
 5
63
 10
423.5
 20
220.5
 30
0
 11
453.5
 21
220.5
 31
0
 0
LINE
 8
TOOL_0
 5
64
 10
453.5
 20
220.5
 30
0
 11
453.5
 21
250.5
 31
0
 0
ARC
 8
TOOL_0
 5
65
 10
433.5
 20
250.5
 30
0
 40
20.0
 50
0
 51
90.0
210
0
220
0
230
1.0
 0
LINE
 8
TOOL_0
 5
66
 10
433.5
 20
270.5
 30
0
 11
343.5
 21
270.5
 31
0
 0
ARC
 8
TOOL_0
 5
67
 10
343.5
 20
250.5
 30
0
 40
20.0
 50
90.0
 51
180.0
210
0
220
0
230
1.0
 0
LINE
 8
TOOL_0
 5
68
 10
323.5
 20
250.5
 30
0
 11
323.5
 21
190.5
 31
0
 0
ARC
 8
TOOL_0
 5
69
 10
343.5
 20
190.5
 30
0
 40
20.0
 50
180.0
 51
270.0
210
0
220
0
230
1.0
 0
LINE
 8
TOOL_0
 5
6A
 10
343.5
 20
170.5
 30
0
 11
433.5
 21
170.5
 31
0
 0
ARC
 8
TOOL_0
 5
6B
 10
433.5
 20
190.5
 30
0
 40
20.0
 50
270.0
 51
0
210
0
220
0
230
1.0
 0
LINE
 8
TOOL_0
 5
6C
 10
453.5
 20
190.5
 30
0
 11
453.5
 21
220.5
 31
0
 0
LINE
 8
TOOL_0
 5
6D
 10
453.5
 20
220.5
 30
0
 11
1403.5
 21
203.5
 31
0
 0
LINE
 8
TOOL_0
 5
6E
 10
1403.5
 20
203.5
 30
0
 11
1433.5
 21
203.5
 31
0
 0
LINE
 8
TOOL_0
 5
6F
 10
1433.5
 20
203.5
 30
0
 11
1433.5
 21
243.5
 31
0
 0
ARC
 8
TOOL_0
 5
70
 10
1413.5
 20
243.5
 30
0
 40
20.0
 50
0
 51
90.0
210
0
220
0
230
1.0
 0
LINE
 8
TOOL_0
 5
71
 10
1413.5
 20
263.5
 30
0
 11
1353.5
 21
263.5
 31
0
 0
ARC
 8
TOOL_0
 5
72
 10
1353.5
 20
243.5
 30
0
 40
20.0
 50
90.0
 51
180.0
210
0
220
0
230
1.0
 0
LINE
 8
TOOL_0
 5
73
 10
1333.5
 20
243.5
 30
0
 11
1333.5
 21
163.5
 31
0
 0
ARC
 8
TOOL_0
 5
74
 10
1353.5
 20
163.5
 30
0
 40
20.0
 50
180.0
 51
270.0
210
0
220
0
230
1.0
 0
LINE
 8
TOOL_0
 5
75
 10
1353.5
 20
143.5
 30
0
 11
1413.5
 21
143.5
 31
0
 0
ARC
 8
TOOL_0
 5
76
 10
1413.5
 20
163.5
 30
0
 40
20.0
 50
270.0
 51
0
210
0
220
0
230
1.0
 0
LINE
 8
TOOL_0
 5
77
 10
1433.5
 20
163.5
 30
0
 11
1433.5
 21
203.5
 31
0
 0
LINE
 8
TOOL_0
 5
78
 10
1433.5
 20
203.5
 30
0
 11
1494.5
 21
13.086
 31
0
 0
LINE
 8
TOOL_0
 5
79
 10
1494.5
 20
13.086
 30
0
 11
1459.5
 21
13.086
 31
0
 0
LINE
 8
TOOL_0
 5
7A
 10
1459.5
 20
13.086
 30
0
 11
1453.914
 21
7.5
 31
0
 0
LINE
 8
TOOL_0
 5
7B
 10
1453.914
 20
7.5
 30
0
 11
72.5
 21
7.5
 31
0
 0
ARC
 8
TOOL_0
 5
7C
 10
72.5
 20
12.5
 30
0
 40
5.0
 50
180.0
 51
270.0
210
0
220
0
230
1.0
 0
LINE
 8
TOOL_0
 5
7D
 10
67.5
 20
12.5
 30
0
 11
67.5
 21
44.5
 31
0
 0
ARC
 8
TOOL_0
 5
7E
 10
64.5
 20
44.5
 30
0
 40
3.0
 50
0
 51
90.0
210
0
220
0
230
1.0
 0
LINE
 8
TOOL_0
 5
7F
 10
64.5
 20
47.5
 30
0
 11
12.5
 21
47.5
 31
0
 0
ARC
 8
TOOL_0
 5
80
 10
12.5
 20
52.5
 30
0
 40
5.0
 50
180.0
 51
270.0
210
0
220
0
230
1.0
 0
LINE
 8
TOOL_0
 5
81
 10
7.5
 20
52.5
 30
0
 11
7.5
 21
144.5
 31
0
 0
LINE
 8
TOOL_0
 5
82
 10
7.5
 20
144.5
 30
0
 11
61.5
 21
144.5
 31
0
 0
ARC
 8
TOOL_0
 5
83
 10
61.5
 20
147.5
 30
0
 40
3.0
 50
270.0
 51
0
210
0
220
0
230
1.0
 0
LINE
 8
TOOL_0
 5
84
 10
64.5
 20
147.5
 30
0
 11
64.5
 21
901.5
 31
0
 0
ARC
 8
TOOL_0
 5
85
 10
61.5
 20
901.5
 30
0
 40
3.0
 50
0
 51
90.0
210
0
220
0
230
1.0
 0
LINE
 8
TOOL_0
 5
86
 10
61.5
 20
904.5
 30
0
 11
7.5
 21
904.5
 31
0
 0
LINE
 8
TOOL_0
 5
87
 10
7.5
 20
904.5
 30
0
 11
7.5
 21
2381.5
 31
0
 0
LINE
 8
TOOL_0
 5
88
 10
7.5
 20
2381.5
 30
0
 11
976.5
 21
2381.5
 31
0
 0
LINE
 8
TOOL_0
 5
89
 10
976.5
 20
2381.5
 30
0
 11
976.5
 21
2283.5
 31
0
 0
ARC
 8
TOOL_0
 5
8A
 10
1005.5
 20
2283.5
 30
0
 40
29.0
 50
180.0
 51
270.0
210
0
220
0
230
1.0
 0
LINE
 8
TOOL_0
 5
8B
 10
1005.5
 20
2254.5
 30
0
 11
1592.5
 21
2254.5
 31
0
 0
LINE
 8
TOOL_0
 5
8C
 10
1592.5
 20
2254.5
 30
0
 11
1592.5
 21
1922.5
 31
0
 0
LINE
 8
TOOL_0
 5
8D
 10
1592.5
 20
1922.5
 30
0
 11
1456.501
 21
1922.5
 31
0
 0
ARC
 8
TOOL_0
 5
8E
 10
1456.682
 20
1888.397
 30
0
 40
34.103480320929
 50
90.30409168453
 51
97.951907470953
210
0
220
0
230
1.0
 0
ARC
 8
TOOL_0
 5
8F
 10
1459.06
 20
1881.128
 30
0
 40
41.653874261586
 50
99.808535870492
 51
125.580371509859
210
0
220
0
230
1.0
 0
ARC
 8
TOOL_0
 5
90
 10
1484.034
 20
1851.532
 30
0
 40
80.314667583201
 50
127.786073705954
 51
150.238129565528
210
0
220
0
230
1.0
 0
ARC
 8
TOOL_0
 5
91
 10
1553.722
 20
1810.426
 30
0
 40
161.219285313513
 50
149.850365901847
 51
163.805443069768
210
0
220
0
230
1.0
 0
ARC
 8
TOOL_0
 5
92
 10
1656.201
 20
1780.164
 30
0
 40
268.072295616313
 50
163.702887949705
 51
177.395195917731
210
0
220
0
230
1.0
 0
ARC
 8
TOOL_0
 5
93
 10
1780.494
 20
1773.41
 30
0
 40
392.545041635989
 50
177.234886824437
 51
180.921192443741
210
0
220
0
230
1.0
 0
ARC
 8
TOOL_0
 5
94
 10
1381.899
 20
1767.123
 30
0
 40
6.101047205194
 50
327.062752670081
 51
359.774612093866
210
0
220
0
230
1.0
 0
LINE
 8
TOOL_0
 5
95
 10
1387.019
 20
1763.806
 30
0
 11
1380.657
 21
1754.104
 31
0
 0
ARC
 8
TOOL_0
 5
96
 10
1384.101
 20
1751.878
 30
0
 40
4.100757491001
 50
147.123738247788
 51
179.622783785514
210
0
220
0
230
1.0
 0
LINE
 8
TOOL_0
 5
97
 10
1380.0
 20
1751.905
 30
0
 11
1380.0
 21
1459.501
 31
0
 0
LINE
 8
TOOL_0
 5
98
 10
1380.0
 20
1459.501
 30
0
 11
1351.0
 21
1459.501
 31
0
 0
LINE
 8
TOOL_0
 5
99
 10
1351.0
 20
1459.501
 30
0
 11
1351.0
 21
1462.501
 31
0
 0
ARC
 8
TOOL_0
 5
9A
 10
1348.0
 20
1462.501
 30
0
 40
3.0
 50
0
 51
90.0
210
0
220
0
230
1.0
 0
LINE
 8
TOOL_0
 5
9B
 10
1348.0
 20
1465.501
 30
0
 11
1293.5
 21
1465.501
 31
0
 0
ARC
 8
TOOL_0
 5
9C
 10
1293.5
 20
1266.501
 30
0
 40
199.0
 50
90.0
 51
180.0
210
0
220
0
230
1.0
 0
LINE
 8
TOOL_0
 5
9D
 10
1094.5
 20
1266.501
 30
0
 11
1094.5
 21
1028.501
 31
0
 0
ARC
 8
TOOL_0
 5
9E
 10
1293.5
 20
1028.501
 30
0
 40
199.0
 50
180.0
 51
270.0
210
0
220
0
230
1.0
 0
LINE
 8
TOOL_0
 5
9F
 10
1293.5
 20
829.501
 30
0
 11
1453.914
 21
829.501
 31
0
 0
LINE
 8
TOOL_0
 5
A0
 10
1453.914
 20
829.501
 30
0
 11
1459.5
 21
823.915
 31
0
 0
LINE
 8
TOOL_0
 5
A1
 10
1459.5
 20
823.915
 30
0
 11
1459.5
 21
13.087
 31
0
 0
LINE
 8
TOOL_0
 5
A2
 10
1459.5
 20
13.087
 30
0
 11
1459.5
 21
8.087
 31
0
 0
LINE
 8
TOOL_0
 5
A3
 10
1459.5
 20
8.087
 30
0
 11
2802.62
 21
2268.501
 31
0
 0
LINE
 8
TOOL_0
 5
A4
 10
2802.62
 20
2268.501
 30
0
 11
2832.62
 21
2268.501
 31
0
 0
LINE
 8
TOOL_0
 5
A5
 10
2832.62
 20
2268.501
 30
0
 11
2832.62
 21
2288.501
 31
0
 0
ARC
 8
TOOL_0
 5
A6
 10
2822.62
 20
2288.501
 30
0
 40
10.0
 50
0
 51
90.0
210
0
220
0
230
1.0
 0
LINE
 8
TOOL_0
 5
A7
 10
2822.62
 20
2298.501
 30
0
 11
2742.62
 21
2298.501
 31
0
 0
ARC
 8
TOOL_0
 5
A8
 10
2742.62
 20
2288.501
 30
0
 40
10.0
 50
90.0
 51
180.0
210
0
220
0
230
1.0
 0
LINE
 8
TOOL_0
 5
A9
 10
2732.62
 20
2288.501
 30
0
 11
2732.62
 21
2268.501
 31
0
 0
ARC
 8
TOOL_0
 5
AA
 10
2762.62
 20
2268.501
 30
0
 40
30.0
 50
180.0
 51
270.0
210
0
220
0
230
1.0
 0
LINE
 8
TOOL_0
 5
AB
 10
2762.62
 20
2238.501
 30
0
 11
2802.62
 21
2238.501
 31
0
 0
ARC
 8
TOOL_0
 5
AC
 10
2802.62
 20
2268.501
 30
0
 40
30.0
 50
270.0
 51
0
210
0
220
0
230
1.0
 0
LINE
 8
TOOL_0
 5
AD
 10
2832.62
 20
2268.501
 30
0
 11
2722.62
 21
2169.885
 31
0
 0
LINE
 8
TOOL_0
 5
AE
 10
2722.62
 20
2169.885
 30
0
 11
2752.62
 21
2169.885
 31
0
 0
LINE
 8
TOOL_0
 5
AF
 10
2752.62
 20
2169.885
 30
0
 11
2752.62
 21
2198.501
 31
0
 0
ARC
 8
TOOL_0
 5
B0
 10
2732.62
 20
2198.501
 30
0
 40
20.0
 50
0
 51
90.0
210
0
220
0
230
1.0
 0
LINE
 8
TOOL_0
 5
B1
 10
2732.62
 20
2218.501
 30
0
 11
2642.62
 21
2218.501
 31
0
 0
ARC
 8
TOOL_0
 5
B2
 10
2642.62
 20
2198.501
 30
0
 40
20.0
 50
90.0
 51
180.0
210
0
220
0
230
1.0
 0
LINE
 8
TOOL_0
 5
B3
 10
2622.62
 20
2198.501
 30
0
 11
2622.62
 21
2138.501
 31
0
 0
ARC
 8
TOOL_0
 5
B4
 10
2642.62
 20
2138.501
 30
0
 40
20.0
 50
180.0
 51
270.0
210
0
220
0
230
1.0
 0
LINE
 8
TOOL_0
 5
B5
 10
2642.62
 20
2118.501
 30
0
 11
2732.62
 21
2118.501
 31
0
 0
ARC
 8
TOOL_0
 5
B6
 10
2732.62
 20
2138.501
 30
0
 40
20.0
 50
270.0
 51
0
210
0
220
0
230
1.0
 0
LINE
 8
TOOL_0
 5
B7
 10
2752.62
 20
2138.501
 30
0
 11
2752.62
 21
2169.885
 31
0
 0
LINE
 8
TOOL_0
 5
B8
 10
2752.62
 20
2169.885
 30
0
 11
1712.62
 21
2185.501
 31
0
 0
LINE
 8
TOOL_0
 5
B9
 10
1712.62
 20
2185.501
 30
0
 11
1742.62
 21
2185.501
 31
0
 0
LINE
 8
TOOL_0
 5
BA
 10
1742.62
 20
2185.501
 30
0
 11
1742.62
 21
2225.501
 31
0
 0
ARC
 8
TOOL_0
 5
BB
 10
1722.62
 20
2225.501
 30
0
 40
20.0
 50
0
 51
90.0
210
0
220
0
230
1.0
 0
LINE
 8
TOOL_0
 5
BC
 10
1722.62
 20
2245.501
 30
0
 11
1662.62
 21
2245.501
 31
0
 0
ARC
 8
TOOL_0
 5
BD
 10
1662.62
 20
2225.501
 30
0
 40
20.0
 50
90.0
 51
180.0
210
0
220
0
230
1.0
 0
LINE
 8
TOOL_0
 5
BE
 10
1642.62
 20
2225.501
 30
0
 11
1642.62
 21
2145.501
 31
0
 0
ARC
 8
TOOL_0
 5
BF
 10
1662.62
 20
2145.501
 30
0
 40
20.0
 50
180.0
 51
270.0
210
0
220
0
230
1.0
 0
LINE
 8
TOOL_0
 5
C0
 10
1662.62
 20
2125.501
 30
0
 11
1722.62
 21
2125.501
 31
0
 0
ARC
 8
TOOL_0
 5
C1
 10
1722.62
 20
2145.501
 30
0
 40
20.0
 50
270.0
 51
0
210
0
220
0
230
1.0
 0
LINE
 8
TOOL_0
 5
C2
 10
1742.62
 20
2145.501
 30
0
 11
1742.62
 21
2185.501
 31
0
 0
LINE
 8
TOOL_0
 5
C3
 10
1742.62
 20
2185.501
 30
0
 11
2032.62
 21
240.501
 31
0
 0
LINE
 8
TOOL_0
 5
C4
 10
2032.62
 20
240.501
 30
0
 11
2062.62
 21
240.501
 31
0
 0
ARC
 8
TOOL_0
 5
C5
 10
2027.62
 20
240.501
 30
0
 40
35.0
 50
0
 51
180.0
210
0
220
0
230
1.0
 0
ARC
 8
TOOL_0
 5
C6
 10
2027.62
 20
240.501
 30
0
 40
35.0
 50
180.0
 51
0
210
0
220
0
230
1.0
 0
LINE
 8
TOOL_0
 5
C7
 10
2062.62
 20
240.501
 30
0
 11
2699.62
 21
57.501
 31
0
 0
LINE
 8
TOOL_0
 5
C8
 10
2699.62
 20
57.501
 30
0
 11
2729.62
 21
57.501
 31
0
 0
LINE
 8
TOOL_0
 5
C9
 10
2729.62
 20
57.501
 30
0
 11
2729.62
 21
72.501
 31
0
 0
ARC
 8
TOOL_0
 5
CA
 10
2719.62
 20
72.501
 30
0
 40
10.0
 50
0
 51
90.0
210
0
220
0
230
1.0
 0
LINE
 8
TOOL_0
 5
CB
 10
2719.62
 20
82.501
 30
0
 11
2539.62
 21
82.501
 31
0
 0
ARC
 8
TOOL_0
 5
CC
 10
2539.62
 20
72.501
 30
0
 40
10.0
 50
90.0
 51
180.0
210
0
220
0
230
1.0
 0
LINE
 8
TOOL_0
 5
CD
 10
2529.62
 20
72.501
 30
0
 11
2529.62
 21
42.501
 31
0
 0
ARC
 8
TOOL_0
 5
CE
 10
2539.62
 20
42.501
 30
0
 40
10.0
 50
180.0
 51
270.0
210
0
220
0
230
1.0
 0
LINE
 8
TOOL_0
 5
CF
 10
2539.62
 20
32.501
 30
0
 11
2719.62
 21
32.501
 31
0
 0
ARC
 8
TOOL_0
 5
D0
 10
2719.62
 20
42.501
 30
0
 40
10.0
 50
270.0
 51
0
210
0
220
0
230
1.0
 0
LINE
 8
TOOL_0
 5
D1
 10
2729.62
 20
42.501
 30
0
 11
2729.62
 21
57.501
 31
0
 0
LINE
 8
TOOL_0
 5
D2
 10
2729.62
 20
57.501
 30
0
 11
1619.412
 21
1519.108
 31
0
 0
LINE
 8
TOOL_0
 5
D3
 10
1619.412
 20
1519.108
 30
0
 11
1616.62
 21
1565.087
 31
0
 0
LINE
 8
TOOL_0
 5
D4
 10
1616.62
 20
1565.087
 30
0
 11
1616.62
 21
2375.915
 31
0
 0
LINE
 8
TOOL_0
 5
D5
 10
1616.62
 20
2375.915
 30
0
 11
1622.206
 21
2381.501
 31
0
 0
LINE
 8
TOOL_0
 5
D6
 10
1622.206
 20
2381.501
 30
0
 11
3003.62
 21
2381.501
 31
0
 0
ARC
 8
TOOL_0
 5
D7
 10
3003.62
 20
2376.501
 30
0
 40
5.0
 50
0
 51
90.0
210
0
220
0
230
1.0
 0
LINE
 8
TOOL_0
 5
D8
 10
3008.62
 20
2376.501
 30
0
 11
3008.62
 21
2344.501
 31
0
 0
ARC
 8
TOOL_0
 5
D9
 10
3011.62
 20
2344.501
 30
0
 40
3.0
 50
180.0
 51
270.0
210
0
220
0
230
1.0
 0
LINE
 8
TOOL_0
 5
DA
 10
3011.62
 20
2341.501
 30
0
 11
3063.62
 21
2341.501
 31
0
 0
ARC
 8
TOOL_0
 5
DB
 10
3063.62
 20
2336.501
 30
0
 40
5.0
 50
0
 51
90.0
210
0
220
0
230
1.0
 0
LINE
 8
TOOL_0
 5
DC
 10
3068.62
 20
2336.501
 30
0
 11
3068.62
 21
2244.501
 31
0
 0
LINE
 8
TOOL_0
 5
DD
 10
3068.62
 20
2244.501
 30
0
 11
3014.62
 21
2244.501
 31
0
 0
ARC
 8
TOOL_0
 5
DE
 10
3014.62
 20
2241.501
 30
0
 40
3.0
 50
90.0
 51
180.0
210
0
220
0
230
1.0
 0
LINE
 8
TOOL_0
 5
DF
 10
3011.62
 20
2241.501
 30
0
 11
3011.62
 21
1487.501
 31
0
 0
ARC
 8
TOOL_0
 5
E0
 10
3014.62
 20
1487.501
 30
0
 40
3.0
 50
180.0
 51
270.0
210
0
220
0
230
1.0
 0
LINE
 8
TOOL_0
 5
E1
 10
3014.62
 20
1484.501
 30
0
 11
3068.62
 21
1484.501
 31
0
 0
LINE
 8
TOOL_0
 5
E2
 10
3068.62
 20
1484.501
 30
0
 11
3068.62
 21
7.501
 31
0
 0
LINE
 8
TOOL_0
 5
E3
 10
3068.62
 20
7.501
 30
0
 11
2099.62
 21
7.501
 31
0
 0
LINE
 8
TOOL_0
 5
E4
 10
2099.62
 20
7.501
 30
0
 11
2099.62
 21
105.501
 31
0
 0
ARC
 8
TOOL_0
 5
E5
 10
2070.62
 20
105.501
 30
0
 40
29.0
 50
0
 51
90.0
210
0
220
0
230
1.0
 0
LINE
 8
TOOL_0
 5
E6
 10
2070.62
 20
134.501
 30
0
 11
1483.62
 21
134.501
 31
0
 0
LINE
 8
TOOL_0
 5
E7
 10
1483.62
 20
134.501
 30
0
 11
1483.62
 21
466.501
 31
0
 0
LINE
 8
TOOL_0
 5
E8
 10
1483.62
 20
466.501
 30
0
 11
1619.619
 21
466.501
 31
0
 0
ARC
 8
TOOL_0
 5
E9
 10
1619.438
 20
500.604
 30
0
 40
34.103480320929
 50
270.30409168453
 51
277.950243583753
210
0
220
0
230
1.0
 0
ARC
 8
TOOL_0
 5
EA
 10
1617.059
 20
507.873
 30
0
 40
41.653874261586
 50
279.808535870492
 51
305.580371509859
210
0
220
0
230
1.0
 0
ARC
 8
TOOL_0
 5
EB
 10
1592.085
 20
537.469
 30
0
 40
80.314667583201
 50
307.786073705954
 51
330.238129565528
210
0
220
0
230
1.0
 0
ARC
 8
TOOL_0
 5
EC
 10
1522.397
 20
578.576
 30
0
 40
161.219787575843
 50
329.850058590846
 51
343.804760494471
210
0
220
0
230
1.0
 0
ARC
 8
TOOL_0
 5
ED
 10
1419.918
 20
608.837
 30
0
 40
268.072576236362
 50
343.702682805249
 51
357.394768893918
210
0
220
0
230
1.0
 0
ARC
 8
TOOL_0
 5
EE
 10
1295.625
 20
615.59
 30
0
 40
392.545089878857
 50
357.234741034638
 51
0.920900561701
210
0
220
0
230
1.0
 0
ARC
 8
TOOL_0
 5
EF
 10
1694.219
 20
621.877
 30
0
 40
6.100039672002
 50
147.057645412207
 51
179.793360379658
210
0
220
0
230
1.0
 0
LINE
 8
TOOL_0
 5
F0
 10
1689.1
 20
625.194
 30
0
 11
1695.462
 21
634.896
 31
0
 0
ARC
 8
TOOL_0
 5
F1
 10
1692.018
 20
637.122
 30
0
 40
4.100757491001
 50
327.123738247789
 51
359.622783785515
210
0
220
0
230
1.0
 0
LINE
 8
TOOL_0
 5
F2
 10
1696.119
 20
637.095
 30
0
 11
1696.119
 21
929.499
 31
0
 0
LINE
 8
TOOL_0
 5
F3
 10
1696.119
 20
929.499
 30
0
 11
1725.119
 21
929.499
 31
0
 0
LINE
 8
TOOL_0
 5
F4
 10
1725.119
 20
929.499
 30
0
 11
1725.119
 21
926.499
 31
0
 0
ARC
 8
TOOL_0
 5
F5
 10
1728.119
 20
926.499
 30
0
 40
3.0
 50
180.0
 51
270.0
210
0
220
0
230
1.0
 0
LINE
 8
TOOL_0
 5
F6
 10
1728.119
 20
923.499
 30
0
 11
1782.619
 21
923.499
 31
0
 0
ARC
 8
TOOL_0
 5
F7
 10
1782.619
 20
1122.499
 30
0
 40
199.0
 50
270.0
 51
359.99971208151
210
0
220
0
230
1.0
 0
LINE
 8
TOOL_0
 5
F8
 10
1981.619
 20
1122.498
 30
0
 11
1981.619
 21
1360.499
 31
0
 0
ARC
 8
TOOL_0
 5
F9
 10
1782.619
 20
1360.499
 30
0
 40
199.0
 50
0
 51
90.0
210
0
220
0
230
1.0
 0
LINE
 8
TOOL_0
 5
FA
 10
1782.619
 20
1559.499
 30
0
 11
1622.205
 21
1559.499
 31
0
 0
LINE
 8
TOOL_0
 5
FB
 10
1622.205
 20
1559.499
 30
0
 11
1616.619
 21
1565.085
 31
0
 0
LINE
 8
TOOL_0
 5
FC
 10
1616.619
 20
1565.085
 30
0
 11
1610.886
 21
1571.136
 31
0
 0
LINE
 8
TOOL_0
 5
FD
 10
1610.886
 20
1571.136
 30
0
 11
4162.152
 21
2149.241
 31
0
 0
LINE
 8
TOOL_0
 5
FE
 10
4162.152
 20
2149.241
 30
0
 11
4191.82
 21
2153.694
 31
0
 0
ARC
 8
TOOL_0
 5
FF
 10
4157.208
 20
2148.499
 30
0
 40
34.999693841518
 50
8.535946169944
 51
188.537322043137
210
0
220
0
230
1.0
 0
ARC
 8
TOOL_0
 5
100
 10
4157.207
 20
2148.498
 30
0
 40
34.999693841518
 50
188.535946169944
 51
8.537322043137
210
0
220
0
230
1.0
 0
LINE
 8
TOOL_0
 5
101
 10
4191.82
 20
2153.694
 30
0
 11
4175.207
 21
1908.499
 31
0
 0
LINE
 8
TOOL_0
 5
102
 10
4175.207
 20
1908.499
 30
0
 11
4205.207
 21
1908.499
 31
0
 0
ARC
 8
TOOL_0
 5
103
 10
4185.207
 20
1908.499
 30
0
 40
20.0
 50
0
 51
66.867990902554
210
0
220
0
230
1.0
 0
LINE
 8
TOOL_0
 5
104
 10
4193.064
 20
1926.891
 30
0
 11
4169.385
 21
1937.007
 31
0
 0
ARC
 8
TOOL_0
 5
105
 10
4157.206
 20
1908.321
 30
0
 40
31.164316726025
 50
66.9957430162
 51
113.002564662372
210
0
220
0
230
1.0
 0
LINE
 8
TOOL_0
 5
106
 10
4145.028
 20
1937.007
 30
0
 11
4121.349
 21
1926.891
 31
0
 0
ARC
 8
TOOL_0
 5
107
 10
4129.206
 20
1908.499
 30
0
 40
19.999952824944
 50
113.132009097445
 51
246.867990902554
210
0
220
0
230
1.0
 0
LINE
 8
TOOL_0
 5
108
 10
4121.349
 20
1890.107
 30
0
 11
4145.028
 21
1879.991
 31
0
 0
ARC
 8
TOOL_0
 5
109
 10
4157.207
 20
1908.677
 30
0
 40
31.164316726025
 50
246.995743016199
 51
293.002564662372
210
0
220
0
230
1.0
 0
LINE
 8
TOOL_0
 5
10A
 10
4169.385
 20
1879.991
 30
0
 11
4193.064
 21
1890.107
 31
0
 0
ARC
 8
TOOL_0
 5
10B
 10
4185.207
 20
1908.499
 30
0
 40
19.999952824944
 50
293.132009097446
 51
0
210
0
220
0
230
1.0
 0
LINE
 8
TOOL_0
 5
10C
 10
4205.207
 20
1908.499
 30
0
 11
3724.708
 21
1858.619
 31
0
 0
LINE
 8
TOOL_0
 5
10D
 10
3724.708
 20
1858.619
 30
0
 11
3754.708
 21
1858.619
 31
0
 0
LINE
 8
TOOL_0
 5
10E
 10
3754.708
 20
1858.619
 30
0
 11
3754.708
 21
1888.499
 31
0
 0
ARC
 8
TOOL_0
 5
10F
 10
3744.708
 20
1888.499
 30
0
 40
10.0
 50
0
 51
90.0
210
0
220
0
230
1.0
 0
LINE
 8
TOOL_0
 5
110
 10
3744.708
 20
1898.499
 30
0
 11
3564.708
 21
1898.499
 31
0
 0
ARC
 8
TOOL_0
 5
111
 10
3564.708
 20
1888.499
 30
0
 40
10.0
 50
90.0
 51
180.0
210
0
220
0
230
1.0
 0
LINE
 8
TOOL_0
 5
112
 10
3554.708
 20
1888.499
 30
0
 11
3554.708
 21
1828.499
 31
0
 0
ARC
 8
TOOL_0
 5
113
 10
3564.708
 20
1828.499
 30
0
 40
10.0
 50
180.0
 51
270.0
210
0
220
0
230
1.0
 0
LINE
 8
TOOL_0
 5
114
 10
3564.708
 20
1818.499
 30
0
 11
3744.708
 21
1818.499
 31
0
 0
ARC
 8
TOOL_0
 5
115
 10
3744.708
 20
1828.499
 30
0
 40
10.0
 50
270.0
 51
0
210
0
220
0
230
1.0
 0
LINE
 8
TOOL_0
 5
116
 10
3754.708
 20
1828.499
 30
0
 11
3754.708
 21
1858.62
 31
0
 0
LINE
 8
TOOL_0
 5
117
 10
3754.708
 20
1858.62
 30
0
 11
3454.708
 21
105.5
 31
0
 0
LINE
 8
TOOL_0
 5
118
 10
3454.708
 20
105.5
 30
0
 11
3484.708
 21
105.5
 31
0
 0
LINE
 8
TOOL_0
 5
119
 10
3484.708
 20
105.5
 30
0
 11
3484.708
 21
130.5
 31
0
 0
ARC
 8
TOOL_0
 5
11A
 10
3454.708
 20
130.5
 30
0
 40
30.0
 50
0
 51
90.0
210
0
220
0
230
1.0
 0
LINE
 8
TOOL_0
 5
11B
 10
3454.708
 20
160.5
 30
0
 11
3384.708
 21
160.5
 31
0
 0
ARC
 8
TOOL_0
 5
11C
 10
3384.708
 20
130.5
 30
0
 40
30.0
 50
90.0
 51
180.0
210
0
220
0
230
1.0
 0
LINE
 8
TOOL_0
 5
11D
 10
3354.708
 20
130.5
 30
0
 11
3354.708
 21
80.5
 31
0
 0
ARC
 8
TOOL_0
 5
11E
 10
3364.708
 20
80.5
 30
0
 40
10.0
 50
180.0
 51
270.0
210
0
220
0
230
1.0
 0
LINE
 8
TOOL_0
 5
11F
 10
3364.708
 20
70.5
 30
0
 11
3474.708
 21
70.5
 31
0
 0
ARC
 8
TOOL_0
 5
120
 10
3474.708
 20
80.5
 30
0
 40
10.0
 50
270.0
 51
0
210
0
220
0
230
1.0
 0
LINE
 8
TOOL_0
 5
121
 10
3484.708
 20
80.5
 30
0
 11
3484.708
 21
105.5
 31
0
 0
LINE
 8
TOOL_0
 5
122
 10
3484.708
 20
105.5
 30
0
 11
3534.707
 21
220.5
 31
0
 0
LINE
 8
TOOL_0
 5
123
 10
3534.707
 20
220.5
 30
0
 11
3564.707
 21
220.5
 31
0
 0
LINE
 8
TOOL_0
 5
124
 10
3564.707
 20
220.5
 30
0
 11
3564.707
 21
250.5
 31
0
 0
ARC
 8
TOOL_0
 5
125
 10
3544.707
 20
250.5
 30
0
 40
20.0
 50
0
 51
90.0
210
0
220
0
230
1.0
 0
LINE
 8
TOOL_0
 5
126
 10
3544.707
 20
270.5
 30
0
 11
3484.707
 21
270.5
 31
0
 0
ARC
 8
TOOL_0
 5
127
 10
3484.707
 20
250.5
 30
0
 40
20.0
 50
90.0
 51
180.0
210
0
220
0
230
1.0
 0
LINE
 8
TOOL_0
 5
128
 10
3464.707
 20
250.5
 30
0
 11
3464.707
 21
190.5
 31
0
 0
ARC
 8
TOOL_0
 5
129
 10
3484.707
 20
190.5
 30
0
 40
20.0
 50
180.0
 51
270.0
210
0
220
0
230
1.0
 0
LINE
 8
TOOL_0
 5
12A
 10
3484.707
 20
170.5
 30
0
 11
3544.707
 21
170.5
 31
0
 0
ARC
 8
TOOL_0
 5
12B
 10
3544.707
 20
190.5
 30
0
 40
20.0
 50
270.0
 51
0
210
0
220
0
230
1.0
 0
LINE
 8
TOOL_0
 5
12C
 10
3564.707
 20
190.5
 30
0
 11
3564.707
 21
220.5
 31
0
 0
LINE
 8
TOOL_0
 5
12D
 10
3564.707
 20
220.5
 30
0
 11
4529.707
 21
193.5
 31
0
 0
LINE
 8
TOOL_0
 5
12E
 10
4529.707
 20
193.5
 30
0
 11
4559.707
 21
193.5
 31
0
 0
LINE
 8
TOOL_0
 5
12F
 10
4559.707
 20
193.5
 30
0
 11
4559.707
 21
223.5
 31
0
 0
ARC
 8
TOOL_0
 5
130
 10
4539.707
 20
223.5
 30
0
 40
20.0
 50
0
 51
90.0
210
0
220
0
230
1.0
 0
LINE
 8
TOOL_0
 5
131
 10
4539.707
 20
243.5
 30
0
 11
4479.707
 21
243.5
 31
0
 0
ARC
 8
TOOL_0
 5
132
 10
4479.707
 20
223.5
 30
0
 40
20.0
 50
90.0
 51
180.0
210
0
220
0
230
1.0
 0
LINE
 8
TOOL_0
 5
133
 10
4459.707
 20
223.5
 30
0
 11
4459.707
 21
163.5
 31
0
 0
ARC
 8
TOOL_0
 5
134
 10
4479.707
 20
163.5
 30
0
 40
20.0
 50
180.0
 51
270.0
210
0
220
0
230
1.0
 0
LINE
 8
TOOL_0
 5
135
 10
4479.707
 20
143.5
 30
0
 11
4539.707
 21
143.5
 31
0
 0
ARC
 8
TOOL_0
 5
136
 10
4539.707
 20
163.5
 30
0
 40
20.0
 50
270.0
 51
0
210
0
220
0
230
1.0
 0
LINE
 8
TOOL_0
 5
137
 10
4559.707
 20
163.5
 30
0
 11
4559.707
 21
193.5
 31
0
 0
LINE
 8
TOOL_0
 5
138
 10
4559.707
 20
193.5
 30
0
 11
4620.707
 21
16.086
 31
0
 0
LINE
 8
TOOL_0
 5
139
 10
4620.707
 20
16.086
 30
0
 11
4585.707
 21
16.086
 31
0
 0
LINE
 8
TOOL_0
 5
13A
 10
4585.707
 20
16.086
 30
0
 11
4577.121
 21
7.5
 31
0
 0
LINE
 8
TOOL_0
 5
13B
 10
4577.121
 20
7.5
 30
0
 11
3098.707
 21
7.5
 31
0
 0
ARC
 8
TOOL_0
 5
13C
 10
3098.707
 20
12.5
 30
0
 40
5.0
 50
180.0
 51
270.0
210
0
220
0
230
1.0
 0
LINE
 8
TOOL_0
 5
13D
 10
3093.707
 20
12.5
 30
0
 11
3093.707
 21
2381.5
 31
0
 0
LINE
 8
TOOL_0
 5
13E
 10
3093.707
 20
2381.5
 30
0
 11
3972.707
 21
2381.5
 31
0
 0
LINE
 8
TOOL_0
 5
13F
 10
3972.707
 20
2381.5
 30
0
 11
3972.707
 21
2283.5
 31
0
 0
ARC
 8
TOOL_0
 5
140
 10
4001.707
 20
2283.5
 30
0
 40
29.0
 50
180.0
 51
270.0
210
0
220
0
230
1.0
 0
LINE
 8
TOOL_0
 5
141
 10
4001.707
 20
2254.5
 30
0
 11
4718.707
 21
2254.5
 31
0
 0
LINE
 8
TOOL_0
 5
142
 10
4718.707
 20
2254.5
 30
0
 11
4718.707
 21
1922.5
 31
0
 0
LINE
 8
TOOL_0
 5
143
 10
4718.707
 20
1922.5
 30
0
 11
4582.72
 21
1922.5
 31
0
 0
ARC
 8
TOOL_0
 5
144
 10
4583.887
 20
1883.805
 30
0
 40
38.712593738989
 50
91.727456089703
 51
133.08551315077
210
0
220
0
230
1.0
 0
ARC
 8
TOOL_0
 5
145
 10
4616.068
 20
1846.425
 30
0
 40
88.018219897928
 50
131.763334521565
 51
154.797213300508
210
0
220
0
230
1.0
 0
ARC
 8
TOOL_0
 5
146
 10
4715.233
 20
1796.089
 30
0
 40
199.204719502325
 50
153.842962626577
 51
171.509383253368
210
0
220
0
230
1.0
 0
ARC
 8
TOOL_0
 5
147
 10
4811.347
 20
1776.882
 30
0
 40
297.139589058745
 50
170.582723702997
 51
180.072887749413
210
0
220
0
230
1.0
 0
LINE
 8
TOOL_0
 5
148
 10
4514.208
 20
1776.504
 30
0
 11
4514.208
 21
1765.639
 31
0
 0
ARC
 8
TOOL_0
 5
149
 10
4508.15
 20
1765.667
 30
0
 40
6.058064707479
 50
315.160491959837
 51
359.73518151163
210
0
220
0
230
1.0
 0
LINE
 8
TOOL_0
 5
14A
 10
4512.446
 20
1761.395
 30
0
 11
4507.38
 21
1756.329
 31
0
 0
ARC
 8
TOOL_0
 5
14B
 10
4510.267
 20
1753.476
 30
0
 40
4.058864126822
 50
135.33937869699
 51
179.703572152138
210
0
220
0
230
1.0
 0
LINE
 8
TOOL_0
 5
14C
 10
4506.208
 20
1753.497
 30
0
 11
4506.208
 21
1459.501
 31
0
 0
LINE
 8
TOOL_0
 5
14D
 10
4506.208
 20
1459.501
 30
0
 11
4477.208
 21
1459.501
 31
0
 0
LINE
 8
TOOL_0
 5
14E
 10
4477.208
 20
1459.501
 30
0
 11
4477.208
 21
1463.001
 31
0
 0
ARC
 8
TOOL_0
 5
14F
 10
4474.208
 20
1463.001
 30
0
 40
3.0
 50
0
 51
90.0
210
0
220
0
230
1.0
 0
LINE
 8
TOOL_0
 5
150
 10
4474.208
 20
1466.001
 30
0
 11
4419.708
 21
1466.001
 31
0
 0
ARC
 8
TOOL_0
 5
151
 10
4419.708
 20
1267.001
 30
0
 40
199.0
 50
90.0
 51
180.0
210
0
220
0
230
1.0
 0
LINE
 8
TOOL_0
 5
152
 10
4220.708
 20
1267.001
 30
0
 11
4220.708
 21
948.501
 31
0
 0
ARC
 8
TOOL_0
 5
153
 10
4419.708
 20
948.501
 30
0
 40
199.0
 50
180.0
 51
269.99971208151
210
0
220
0
230
1.0
 0
LINE
 8
TOOL_0
 5
154
 10
4419.707
 20
749.501
 30
0
 11
4577.122
 21
749.501
 31
0
 0
LINE
 8
TOOL_0
 5
155
 10
4577.122
 20
749.501
 30
0
 11
4585.708
 21
740.915
 31
0
 0
LINE
 8
TOOL_0
 5
156
 10
4585.708
 20
740.915
 30
0
 11
4585.708
 21
16.087
 31
0
 0
LINE
 8
TOOL_0
 5
157
 10
4585.708
 20
16.087
 30
0
 11
4585.708
 21
11.087
 31
0
 0
LINE
 8
TOOL_0
 5
158
 10
4585.708
 20
11.087
 30
0
 11
4858.604
 21
2348.492
 31
0
 0
LINE
 8
TOOL_0
 5
159
 10
4858.604
 20
2348.492
 30
0
 11
4913.945
 21
2351.487
 31
0
 0
LINE
 8
TOOL_0
 5
15A
 10
4913.945
 20
2351.487
 30
0
 11
5184.745
 21
2351.487
 31
0
 0
ARC
 8
TOOL_0
 5
15B
 10
5184.745
 20
2330.687
 30
0
 40
20.8
 50
0
 51
90.0
210
0
220
0
230
1.0
 0
LINE
 8
TOOL_0
 5
15C
 10
5205.545
 20
2330.687
 30
0
 11
5205.545
 21
2053.687
 31
0
 0
ARC
 8
TOOL_0
 5
15D
 10
5184.745
 20
2053.687
 30
0
 40
20.8
 50
270.0
 51
0
210
0
220
0
230
1.0
 0
LINE
 8
TOOL_0
 5
15E
 10
5184.745
 20
2032.887
 30
0
 11
4913.945
 21
2032.887
 31
0
 0
LINE
 8
TOOL_0
 5
15F
 10
4913.945
 20
2032.887
 30
0
 11
4913.945
 21
2351.487
 31
0
 0
LINE
 8
TOOL_0
 5
160
 10
4913.945
 20
2351.487
 30
0
 11
4913.793
 21
2357.331
 31
0
 0
LINE
 8
TOOL_0
 5
161
 10
4913.793
 20
2357.331
 30
0
 11
4853.834
 21
2005.071
 31
0
 0
LINE
 8
TOOL_0
 5
162
 10
4853.834
 20
2005.071
 30
0
 11
4913.945
 21
2004.649
 31
0
 0
LINE
 8
TOOL_0
 5
163
 10
4913.945
 20
2004.649
 30
0
 11
5184.745
 21
2004.649
 31
0
 0
ARC
 8
TOOL_0
 5
164
 10
5184.745
 20
1983.849
 30
0
 40
20.8
 50
0
 51
90.0
210
0
220
0
230
1.0
 0
LINE
 8
TOOL_0
 5
165
 10
5205.545
 20
1983.849
 30
0
 11
5205.545
 21
1706.849
 31
0
 0
ARC
 8
TOOL_0
 5
166
 10
5184.745
 20
1706.849
 30
0
 40
20.8
 50
270.0
 51
0
210
0
220
0
230
1.0
 0
LINE
 8
TOOL_0
 5
167
 10
5184.745
 20
1686.049
 30
0
 11
4913.945
 21
1686.049
 31
0
 0
LINE
 8
TOOL_0
 5
168
 10
4913.945
 20
1686.049
 30
0
 11
4913.945
 21
2004.649
 31
0
 0
LINE
 8
TOOL_0
 5
169
 10
4913.945
 20
2004.649
 30
0
 11
4915.169
 21
2011.839
 31
0
 0
LINE
 8
TOOL_0
 5
16A
 10
4915.169
 20
2011.839
 30
0
 11
4861.968
 21
1647.619
 31
0
 0
LINE
 8
TOOL_0
 5
16B
 10
4861.968
 20
1647.619
 30
0
 11
4913.945
 21
1648.438
 31
0
 0
LINE
 8
TOOL_0
 5
16C
 10
4913.945
 20
1648.438
 30
0
 11
5184.745
 21
1648.438
 31
0
 0
ARC
 8
TOOL_0
 5
16D
 10
5184.745
 20
1627.638
 30
0
 40
20.8
 50
0
 51
90.0
210
0
220
0
230
1.0
 0
LINE
 8
TOOL_0
 5
16E
 10
5205.545
 20
1627.638
 30
0
 11
5205.545
 21
1350.638
 31
0
 0
ARC
 8
TOOL_0
 5
16F
 10
5184.745
 20
1350.638
 30
0
 40
20.8
 50
270.0
 51
0
210
0
220
0
230
1.0
 0
LINE
 8
TOOL_0
 5
170
 10
5184.745
 20
1329.838
 30
0
 11
4913.945
 21
1329.838
 31
0
 0
LINE
 8
TOOL_0
 5
171
 10
4913.945
 20
1329.838
 30
0
 11
4913.945
 21
1648.438
 31
0
 0
LINE
 8
TOOL_0
 5
172
 10
4913.945
 20
1648.438
 30
0
 11
4913.391
 21
1657.216
 31
0
 0
LINE
 8
TOOL_0
 5
173
 10
4913.391
 20
1657.216
 30
0
 11
4888.841
 21
1306.095
 31
0
 0
LINE
 8
TOOL_0
 5
174
 10
4888.841
 20
1306.095
 30
0
 11
4911.143
 21
1288.478
 31
0
 0
LINE
 8
TOOL_0
 5
175
 10
4911.143
 20
1288.478
 30
0
 11
5181.943
 21
1288.478
 31
0
 0
ARC
 8
TOOL_0
 5
176
 10
5181.943
 20
1267.678
 30
0
 40
20.8
 50
0
 51
90.0
210
0
220
0
230
1.0
 0
LINE
 8
TOOL_0
 5
177
 10
5202.743
 20
1267.678
 30
0
 11
5202.743
 21
990.678
 31
0
 0
ARC
 8
TOOL_0
 5
178
 10
5181.943
 20
990.678
 30
0
 40
20.8
 50
270.0
 51
0
210
0
220
0
230
1.0
 0
LINE
 8
TOOL_0
 5
179
 10
5181.943
 20
969.878
 30
0
 11
4911.143
 21
969.878
 31
0
 0
LINE
 8
TOOL_0
 5
17A
 10
4911.143
 20
969.878
 30
0
 11
4911.143
 21
1288.478
 31
0
 0
LINE
 8
TOOL_0
 5
17B
 10
4911.143
 20
1288.478
 30
0
 11
4911.53
 21
1297.221
 31
0
 0
LINE
 8
TOOL_0
 5
17C
 10
4911.53
 20
1297.221
 30
0
 11
5581.996
 21
2046.553
 31
0
 0
LINE
 8
TOOL_0
 5
17D
 10
5581.996
 20
2046.553
 30
0
 11
5546.996
 21
2046.553
 31
0
 0
LINE
 8
TOOL_0
 5
17E
 10
5546.996
 20
2046.553
 30
0
 11
5544.097
 21
2047.331
 31
0
 0
ARC
 8
TOOL_0
 5
17F
 10
5530.488
 20
2063.061
 30
0
 40
20.799946658586
 50
269.99724539522
 51
310.865117968227
210
0
220
0
230
1.0
 0
LINE
 8
TOOL_0
 5
180
 10
5530.487
 20
2042.261
 30
0
 11
5259.687
 21
2042.261
 31
0
 0
LINE
 8
TOOL_0
 5
181
 10
5259.687
 20
2042.261
 30
0
 11
5259.687
 21
2360.861
 31
0
 0
LINE
 8
TOOL_0
 5
182
 10
5259.687
 20
2360.861
 30
0
 11
5530.487
 21
2360.861
 31
0
 0
ARC
 8
TOOL_0
 5
183
 10
5530.487
 20
2340.061
 30
0
 40
20.8
 50
0
 51
90.0
210
0
220
0
230
1.0
 0
LINE
 8
TOOL_0
 5
184
 10
5551.287
 20
2340.061
 30
0
 11
5551.287
 21
2063.061
 31
0
 0
ARC
 8
TOOL_0
 5
185
 10
5530.487
 20
2063.061
 30
0
 40
20.8
 50
319.138767482155
 51
0
210
0
220
0
230
1.0
 0
LINE
 8
TOOL_0
 5
186
 10
5546.218
 20
2049.453
 30
0
 11
5546.996
 21
2046.554
 31
0
 0
LINE
 8
TOOL_0
 5
187
 10
5546.996
 20
2046.554
 30
0
 11
5546.996
 21
2041.554
 31
0
 0
LINE
 8
TOOL_0
 5
188
 10
5546.996
 20
2041.554
 30
0
 11
5581.996
 21
1699.717
 31
0
 0
LINE
 8
TOOL_0
 5
189
 10
5581.996
 20
1699.717
 30
0
 11
5546.996
 21
1699.717
 31
0
 0
LINE
 8
TOOL_0
 5
18A
 10
5546.996
 20
1699.717
 30
0
 11
5544.097
 21
1700.495
 31
0
 0
ARC
 8
TOOL_0
 5
18B
 10
5530.488
 20
1716.225
 30
0
 40
20.799946658586
 50
269.99724539522
 51
310.865117968227
210
0
220
0
230
1.0
 0
LINE
 8
TOOL_0
 5
18C
 10
5530.487
 20
1695.425
 30
0
 11
5259.687
 21
1695.425
 31
0
 0
LINE
 8
TOOL_0
 5
18D
 10
5259.687
 20
1695.425
 30
0
 11
5259.687
 21
2014.025
 31
0
 0
LINE
 8
TOOL_0
 5
18E
 10
5259.687
 20
2014.025
 30
0
 11
5530.487
 21
2014.025
 31
0
 0
ARC
 8
TOOL_0
 5
18F
 10
5530.487
 20
1993.225
 30
0
 40
20.8
 50
0
 51
90.0
210
0
220
0
230
1.0
 0
LINE
 8
TOOL_0
 5
190
 10
5551.287
 20
1993.225
 30
0
 11
5551.287
 21
1716.225
 31
0
 0
ARC
 8
TOOL_0
 5
191
 10
5530.487
 20
1716.225
 30
0
 40
20.8
 50
319.138767482156
 51
0
210
0
220
0
230
1.0
 0
LINE
 8
TOOL_0
 5
192
 10
5546.218
 20
1702.617
 30
0
 11
5546.996
 21
1699.718
 31
0
 0
LINE
 8
TOOL_0
 5
193
 10
5546.996
 20
1699.718
 30
0
 11
5546.996
 21
1694.718
 31
0
 0
LINE
 8
TOOL_0
 5
194
 10
5546.996
 20
1694.718
 30
0
 11
5581.996
 21
1343.507
 31
0
 0
LINE
 8
TOOL_0
 5
195
 10
5581.996
 20
1343.507
 30
0
 11
5546.996
 21
1343.507
 31
0
 0
LINE
 8
TOOL_0
 5
196
 10
5546.996
 20
1343.507
 30
0
 11
5544.097
 21
1344.285
 31
0
 0
ARC
 8
TOOL_0
 5
197
 10
5530.488
 20
1360.015
 30
0
 40
20.799946658586
 50
269.99724539522
 51
310.865117968227
210
0
220
0
230
1.0
 0
LINE
 8
TOOL_0
 5
198
 10
5530.487
 20
1339.215
 30
0
 11
5259.687
 21
1339.215
 31
0
 0
LINE
 8
TOOL_0
 5
199
 10
5259.687
 20
1339.215
 30
0
 11
5259.687
 21
1657.815
 31
0
 0
LINE
 8
TOOL_0
 5
19A
 10
5259.687
 20
1657.815
 30
0
 11
5530.487
 21
1657.815
 31
0
 0
ARC
 8
TOOL_0
 5
19B
 10
5530.487
 20
1637.015
 30
0
 40
20.8
 50
0
 51
90.0
210
0
220
0
230
1.0
 0
LINE
 8
TOOL_0
 5
19C
 10
5551.287
 20
1637.015
 30
0
 11
5551.287
 21
1360.015
 31
0
 0
ARC
 8
TOOL_0
 5
19D
 10
5530.487
 20
1360.015
 30
0
 40
20.8
 50
319.138767482156
 51
0
210
0
220
0
230
1.0
 0
LINE
 8
TOOL_0
 5
19E
 10
5546.218
 20
1346.407
 30
0
 11
5546.996
 21
1343.508
 31
0
 0
LINE
 8
TOOL_0
 5
19F
 10
5546.996
 20
1343.508
 30
0
 11
5546.996
 21
1338.508
 31
0
 0
LINE
 8
TOOL_0
 5
1A0
 10
5546.996
 20
1338.508
 30
0
 11
5563.307
 21
977.923
 31
0
 0
LINE
 8
TOOL_0
 5
1A1
 10
5563.307
 20
977.923
 30
0
 11
5528.307
 21
977.923
 31
0
 0
LINE
 8
TOOL_0
 5
1A2
 10
5528.307
 20
977.923
 30
0
 11
5525.408
 21
978.701
 31
0
 0
ARC
 8
TOOL_0
 5
1A3
 10
5511.799
 20
994.431
 30
0
 40
20.799946658586
 50
269.99724539522
 51
310.865117968227
210
0
220
0
230
1.0
 0
LINE
 8
TOOL_0
 5
1A4
 10
5511.798
 20
973.631
 30
0
 11
5240.998
 21
973.631
 31
0
 0
LINE
 8
TOOL_0
 5
1A5
 10
5240.998
 20
973.631
 30
0
 11
5240.998
 21
1292.231
 31
0
 0
LINE
 8
TOOL_0
 5
1A6
 10
5240.998
 20
1292.231
 30
0
 11
5511.798
 21
1292.231
 31
0
 0
ARC
 8
TOOL_0
 5
1A7
 10
5511.798
 20
1271.431
 30
0
 40
20.8
 50
0
 51
90.0
210
0
220
0
230
1.0
 0
LINE
 8
TOOL_0
 5
1A8
 10
5532.598
 20
1271.431
 30
0
 11
5532.598
 21
994.431
 31
0
 0
ARC
 8
TOOL_0
 5
1A9
 10
5511.798
 20
994.431
 30
0
 40
20.8
 50
319.138767482156
 51
0
210
0
220
0
230
1.0
 0
LINE
 8
TOOL_0
 5
1AA
 10
5527.529
 20
980.823
 30
0
 11
5528.307
 21
977.924
 31
0
 0
LINE
 8
TOOL_0
 5
1AB
 10
5528.307
 20
977.924
 30
0
 11
5528.307
 21
972.924
 31
0
 0
LINE
 8
TOOL_0
 5
1AC
 10
5528.307
 20
972.924
 30
0
 11
12334.146
 21
483.429
 31
0
 0
LINE
 8
TOOL_0
 5
1AD
 10
12334.146
 20
483.429
 30
0
 11
12299.543
 21
479.309
 31
0
 0
LINE
 8
TOOL_0
 5
1AE
 10
12299.543
 20
479.309
 30
0
 11
4649.543
 21
479.309
 31
0
 0
LINE
 8
TOOL_0
 5
1AF
 10
4649.543
 20
479.309
 30
0
 11
4649.543
 21
925.309
 31
0
 0
LINE
 8
TOOL_0
 5
1B0
 10
4649.543
 20
925.309
 30
0
 11
12299.543
 21
925.309
 31
0
 0
LINE
 8
TOOL_0
 5
1B1
 10
12299.543
 20
925.309
 30
0
 11
12299.543
 21
479.309
 31
0
 0
LINE
 8
TOOL_0
 5
1B2
 10
12299.543
 20
479.309
 30
0
 11
12301.609
 21
469.202
 31
0
 0
LINE
 8
TOOL_0
 5
1B3
 10
12301.609
 20
469.202
 30
0
 11
12335.119
 21
9.685
 31
0
 0
LINE
 8
TOOL_0
 5
1B4
 10
12335.119
 20
9.685
 30
0
 11
12299.547
 21
8.004
 31
0
 0
LINE
 8
TOOL_0
 5
1B5
 10
12299.547
 20
8.004
 30
0
 11
4649.547
 21
8.004
 31
0
 0
LINE
 8
TOOL_0
 5
1B6
 10
4649.547
 20
8.004
 30
0
 11
4649.547
 21
454.004
 31
0
 0
LINE
 8
TOOL_0
 5
1B7
 10
4649.547
 20
454.004
 30
0
 11
12299.547
 21
454.004
 31
0
 0
LINE
 8
TOOL_0
 5
1B8
 10
12299.547
 20
454.004
 30
0
 11
12299.547
 21
8.004
 31
0
 0
LINE
 8
TOOL_0
 5
1B9
 10
12299.547
 20
8.004
 30
0
 11
12299.178
 21
2.898
 31
0
 0
LINE
 8
TOOL_0
 5
1BA
 10
12299.178
 20
2.898
 30
0
 11
12550.0
 21
976.74
 31
0
 0
LINE
 8
TOOL_0
 5
1BB
 10
12550.0
 20
976.74
 30
0
 11
12549.0
 21
976.74
 31
0
 0
LINE
 8
TOOL_0
 5
1BC
 10
12549.0
 20
976.74
 30
0
 11
12550.0
 21
976.74
 31
0
 0
LINE
 8
TOOL_0
 5
1BD
 10
12550.0
 20
976.74
 30
0
 11
12549.0
 21
976.74
 31
0
 0
LINE
 8
TOOL_0
 5
1BE
 10
12549.0
 20
976.74
 30
0
 11
5661.707
 21
976.74
 31
0
 0
LINE
 8
TOOL_0
 5
1BF
 10
5661.707
 20
976.74
 30
0
 11
5661.707
 21
2399.003
 31
0
 0
LINE
 8
TOOL_0
 5
1C0
 10
5661.707
 20
2399.003
 30
0
 11
5661.707
 21
2400.003
 31
0
 0
ENDSEC
 0
EOF

