0
SECTION
2
TABLES
0
TABLE
2
LAYER
70
0
0
LAYER
2
LAYER_NAME
70
0
62
1
6
CONTINUOUS
0
ENDTAB
0
ENDSEC
 0
SECTION
 2
ENTITIES
 0
LINE
 8
TOOL_0
 5
1
 10
1258.641
 20
1380.73
 30
0
 11
1303.641
 21
1380.73
 31
0
 0
LINE
 8
TOOL_0
 5
2
 10
1303.641
 20
1380.73
 30
0
 11
1303.641
 21
1493.23
 31
0
 0
ARC
 8
TOOL_0
 5
3
 10
1268.641
 20
1493.23
 30
0
 40
35.0
 50
0
 51
90.0
210
0
220
0
230
1.0
 0
LINE
 8
TOOL_0
 5
4
 10
1268.641
 20
1528.23
 30
0
 11
1113.641
 21
1528.23
 31
0
 0
ARC
 8
TOOL_0
 5
5
 10
1113.641
 20
1493.23
 30
0
 40
35.0
 50
90.0
 51
180.0
210
0
220
0
230
1.0
 0
LINE
 8
TOOL_0
 5
6
 10
1078.641
 20
1493.23
 30
0
 11
1078.641
 21
1268.23
 31
0
 0
ARC
 8
TOOL_0
 5
7
 10
1113.641
 20
1268.23
 30
0
 40
35.0
 50
180.0
 51
270.0
210
0
220
0
230
1.0
 0
LINE
 8
TOOL_0
 5
8
 10
1113.641
 20
1233.23
 30
0
 11
1268.641
 21
1233.23
 31
0
 0
ARC
 8
TOOL_0
 5
9
 10
1268.641
 20
1268.23
 30
0
 40
35.0
 50
270.0
 51
0
210
0
220
0
230
1.0
 0
LINE
 8
TOOL_0
 5
A
 10
1303.641
 20
1268.23
 30
0
 11
1303.641
 21
1380.73
 31
0
 0
LINE
 8
TOOL_0
 5
B
 10
1303.641
 20
1380.73
 30
0
 11
1728.641
 21
1360.73
 31
0
 0
LINE
 8
TOOL_0
 5
C
 10
1728.641
 20
1360.73
 30
0
 11
1773.641
 21
1360.73
 31
0
 0
LINE
 8
TOOL_0
 5
D
 10
1773.641
 20
1360.73
 30
0
 11
1773.641
 21
1493.23
 31
0
 0
ARC
 8
TOOL_0
 5
E
 10
1738.641
 20
1493.23
 30
0
 40
35.0
 50
0
 51
90.0
210
0
220
0
230
1.0
 0
LINE
 8
TOOL_0
 5
F
 10
1738.641
 20
1528.23
 30
0
 11
1583.641
 21
1528.23
 31
0
 0
ARC
 8
TOOL_0
 5
10
 10
1583.641
 20
1493.23
 30
0
 40
35.0
 50
90.0
 51
180.0
210
0
220
0
230
1.0
 0
LINE
 8
TOOL_0
 5
11
 10
1548.641
 20
1493.23
 30
0
 11
1548.641
 21
1228.23
 31
0
 0
ARC
 8
TOOL_0
 5
12
 10
1583.641
 20
1228.23
 30
0
 40
35.0
 50
180.0
 51
270.0
210
0
220
0
230
1.0
 0
LINE
 8
TOOL_0
 5
13
 10
1583.641
 20
1193.23
 30
0
 11
1738.641
 21
1193.23
 31
0
 0
ARC
 8
TOOL_0
 5
14
 10
1738.641
 20
1228.23
 30
0
 40
35.0
 50
270.0
 51
0
210
0
220
0
230
1.0
 0
LINE
 8
TOOL_0
 5
15
 10
1773.641
 20
1228.23
 30
0
 11
1773.641
 21
1360.73
 31
0
 0
LINE
 8
TOOL_0
 5
16
 10
1773.641
 20
1360.73
 30
0
 11
1999.43
 21
1241.716
 31
0
 0
LINE
 8
TOOL_0
 5
17
 10
1999.43
 20
1241.716
 30
0
 11
2010.141
 21
1179.73
 31
0
 0
LINE
 8
TOOL_0
 5
18
 10
2010.141
 20
1179.73
 30
0
 11
2010.141
 21
1107.609
 31
0
 0
LINE
 8
TOOL_0
 5
19
 10
2010.141
 20
1107.609
 30
0
 11
1999.262
 21
1096.73
 31
0
 0
LINE
 8
TOOL_0
 5
1A
 10
1999.262
 20
1096.73
 30
0
 11
1886.641
 21
1096.73
 31
0
 0
ARC
 8
TOOL_0
 5
1B
 10
1886.641
 20
1090.23
 30
0
 40
6.5
 50
90.0
 51
180.0
210
0
220
0
230
1.0
 0
LINE
 8
TOOL_0
 5
1C
 10
1880.141
 20
1090.23
 30
0
 11
1880.141
 21
1076.73
 31
0
 0
LINE
 8
TOOL_0
 5
1D
 10
1880.141
 20
1076.73
 30
0
 11
1227.141
 21
1076.73
 31
0
 0
LINE
 8
TOOL_0
 5
1E
 10
1227.141
 20
1076.73
 30
0
 11
1227.141
 21
1090.23
 31
0
 0
ARC
 8
TOOL_0
 5
1F
 10
1220.641
 20
1090.23
 30
0
 40
6.5
 50
0
 51
90.0
210
0
220
0
230
1.0
 0
LINE
 8
TOOL_0
 5
20
 10
1220.641
 20
1096.73
 30
0
 11
1066.641
 21
1096.73
 31
0
 0
ARC
 8
TOOL_0
 5
21
 10
1066.641
 20
1090.23
 30
0
 40
6.5
 50
90.0
 51
180.0
210
0
220
0
230
1.0
 0
LINE
 8
TOOL_0
 5
22
 10
1060.141
 20
1090.23
 30
0
 11
1060.141
 21
1076.73
 31
0
 0
LINE
 8
TOOL_0
 5
23
 10
1060.141
 20
1076.73
 30
0
 11
822.141
 21
1076.73
 31
0
 0
LINE
 8
TOOL_0
 5
24
 10
822.141
 20
1076.73
 30
0
 11
822.141
 21
1085.23
 31
0
 0
ARC
 8
TOOL_0
 5
25
 10
815.641
 20
1085.23
 30
0
 40
6.5
 50
0
 51
90.0
210
0
220
0
230
1.0
 0
LINE
 8
TOOL_0
 5
26
 10
815.641
 20
1091.73
 30
0
 11
561.641
 21
1091.73
 31
0
 0
ARC
 8
TOOL_0
 5
27
 10
561.641
 20
1085.23
 30
0
 40
6.5
 50
90.0
 51
180.0
210
0
220
0
230
1.0
 0
LINE
 8
TOOL_0
 5
28
 10
555.141
 20
1085.23
 30
0
 11
555.141
 21
1076.73
 31
0
 0
LINE
 8
TOOL_0
 5
29
 10
555.141
 20
1076.73
 30
0
 11
252.141
 21
1076.73
 31
0
 0
LINE
 8
TOOL_0
 5
2A
 10
252.141
 20
1076.73
 30
0
 11
252.141
 21
1085.23
 31
0
 0
ARC
 8
TOOL_0
 5
2B
 10
245.641
 20
1085.23
 30
0
 40
6.5
 50
0
 51
90.0
210
0
220
0
230
1.0
 0
LINE
 8
TOOL_0
 5
2C
 10
245.641
 20
1091.73
 30
0
 11
7.141
 21
1091.73
 31
0
 0
LINE
 8
TOOL_0
 5
2D
 10
7.141
 20
1091.73
 30
0
 11
7.141
 21
1502.975
 31
0
 0
ARC
 8
TOOL_0
 5
2E
 10
16.641
 20
1502.975
 30
0
 40
9.5
 50
90.0
 51
180.0
210
0
220
0
230
1.0
 0
LINE
 8
TOOL_0
 5
2F
 10
16.641
 20
1512.475
 30
0
 11
295.419
 21
1512.475
 31
0
 0
ARC
 8
TOOL_0
 5
30
 10
295.419
 20
1610.975
 30
0
 40
98.5
 50
270.0
 51
285.06405950439
210
0
220
0
230
1.0
 0
LINE
 8
TOOL_0
 5
31
 10
321.019
 20
1515.86
 30
0
 11
967.02
 21
1689.731
 31
0
 0
LINE
 8
TOOL_0
 5
32
 10
967.02
 20
1689.731
 30
0
 11
1783.719
 21
1689.731
 31
0
 0
ARC
 8
TOOL_0
 5
33
 10
1783.719
 20
1588.231
 30
0
 40
101.5
 50
35.651858150017
 51
90.0
210
0
220
0
230
1.0
 0
LINE
 8
TOOL_0
 5
34
 10
1866.195
 20
1647.391
 30
0
 11
2010.141
 21
1446.713
 31
0
 0
LINE
 8
TOOL_0
 5
35
 10
2010.141
 20
1446.713
 30
0
 11
2010.141
 21
1336.731
 31
0
 0
LINE
 8
TOOL_0
 5
36
 10
2010.141
 20
1336.731
 30
0
 11
1988.641
 21
1336.731
 31
0
 0
ARC
 8
TOOL_0
 5
37
 10
1988.641
 20
1258.231
 30
0
 40
78.5
 50
90.0
 51
270.0
210
0
220
0
230
1.0
 0
LINE
 8
TOOL_0
 5
38
 10
1988.641
 20
1179.731
 30
0
 11
2010.141
 21
1179.731
 31
0
 0
LINE
 8
TOOL_0
 5
39
 10
2010.141
 20
1179.731
 30
0
 11
2020.669
 21
1179.155
 31
0
 0
LINE
 8
TOOL_0
 5
3A
 10
2020.669
 20
1179.155
 30
0
 11
2926.911
 21
1359.384
 31
0
 0
LINE
 8
TOOL_0
 5
3B
 10
2926.911
 20
1359.384
 30
0
 11
2971.911
 21
1359.384
 31
0
 0
LINE
 8
TOOL_0
 5
3C
 10
2971.911
 20
1359.384
 30
0
 11
2971.911
 21
1472.704
 31
0
 0
ARC
 8
TOOL_0
 5
3D
 10
2936.911
 20
1472.704
 30
0
 40
35.0
 50
0
 51
90.0
210
0
220
0
230
1.0
 0
LINE
 8
TOOL_0
 5
3E
 10
2936.911
 20
1507.704
 30
0
 11
2781.911
 21
1507.704
 31
0
 0
ARC
 8
TOOL_0
 5
3F
 10
2781.911
 20
1472.704
 30
0
 40
35.0
 50
90.0
 51
180.0
210
0
220
0
230
1.0
 0
LINE
 8
TOOL_0
 5
40
 10
2746.911
 20
1472.704
 30
0
 11
2746.911
 21
1247.704
 31
0
 0
ARC
 8
TOOL_0
 5
41
 10
2781.911
 20
1247.704
 30
0
 40
35.0
 50
180.0
 51
270.0
210
0
220
0
230
1.0
 0
LINE
 8
TOOL_0
 5
42
 10
2781.911
 20
1212.704
 30
0
 11
2936.911
 21
1212.704
 31
0
 0
ARC
 8
TOOL_0
 5
43
 10
2936.911
 20
1247.704
 30
0
 40
35.0
 50
270.0
 51
0
210
0
220
0
230
1.0
 0
LINE
 8
TOOL_0
 5
44
 10
2971.911
 20
1247.704
 30
0
 11
2971.911
 21
1359.384
 31
0
 0
LINE
 8
TOOL_0
 5
45
 10
2971.911
 20
1359.384
 30
0
 11
3291.911
 21
1340.205
 31
0
 0
LINE
 8
TOOL_0
 5
46
 10
3291.911
 20
1340.205
 30
0
 11
3336.911
 21
1340.205
 31
0
 0
LINE
 8
TOOL_0
 5
47
 10
3336.911
 20
1340.205
 30
0
 11
3336.911
 21
1472.705
 31
0
 0
ARC
 8
TOOL_0
 5
48
 10
3301.911
 20
1472.705
 30
0
 40
35.0
 50
0
 51
90.0
210
0
220
0
230
1.0
 0
LINE
 8
TOOL_0
 5
49
 10
3301.911
 20
1507.705
 30
0
 11
3146.911
 21
1507.705
 31
0
 0
ARC
 8
TOOL_0
 5
4A
 10
3146.911
 20
1472.705
 30
0
 40
35.0
 50
90.0
 51
180.0
210
0
220
0
230
1.0
 0
LINE
 8
TOOL_0
 5
4B
 10
3111.911
 20
1472.705
 30
0
 11
3111.911
 21
1207.705
 31
0
 0
ARC
 8
TOOL_0
 5
4C
 10
3146.911
 20
1207.705
 30
0
 40
35.0
 50
180.0
 51
270.0
210
0
220
0
230
1.0
 0
LINE
 8
TOOL_0
 5
4D
 10
3146.911
 20
1172.705
 30
0
 11
3301.911
 21
1172.705
 31
0
 0
ARC
 8
TOOL_0
 5
4E
 10
3301.911
 20
1207.705
 30
0
 40
35.0
 50
270.0
 51
0
210
0
220
0
230
1.0
 0
LINE
 8
TOOL_0
 5
4F
 10
3336.911
 20
1207.705
 30
0
 11
3336.911
 21
1340.205
 31
0
 0
LINE
 8
TOOL_0
 5
50
 10
3336.911
 20
1340.205
 30
0
 11
3578.661
 21
1219.111
 31
0
 0
LINE
 8
TOOL_0
 5
51
 10
3578.661
 20
1219.111
 30
0
 11
3578.311
 21
1162.705
 31
0
 0
LINE
 8
TOOL_0
 5
52
 10
3578.311
 20
1162.705
 30
0
 11
3578.311
 21
1107.691
 31
0
 0
LINE
 8
TOOL_0
 5
53
 10
3578.311
 20
1107.691
 30
0
 11
3567.325
 21
1096.705
 31
0
 0
LINE
 8
TOOL_0
 5
54
 10
3567.325
 20
1096.705
 30
0
 11
3455.911
 21
1096.705
 31
0
 0
ARC
 8
TOOL_0
 5
55
 10
3455.911
 20
1088.705
 30
0
 40
8.0
 50
90.0
 51
180.0
210
0
220
0
230
1.0
 0
LINE
 8
TOOL_0
 5
56
 10
3447.911
 20
1088.705
 30
0
 11
3447.911
 21
1076.705
 31
0
 0
LINE
 8
TOOL_0
 5
57
 10
3447.911
 20
1076.705
 30
0
 11
2976.911
 21
1076.705
 31
0
 0
LINE
 8
TOOL_0
 5
58
 10
2976.911
 20
1076.705
 30
0
 11
2976.911
 21
1088.705
 31
0
 0
ARC
 8
TOOL_0
 5
59
 10
2968.911
 20
1088.705
 30
0
 40
8.0
 50
0
 51
90.0
210
0
220
0
230
1.0
 0
LINE
 8
TOOL_0
 5
5A
 10
2968.911
 20
1096.705
 30
0
 11
2814.911
 21
1096.705
 31
0
 0
ARC
 8
TOOL_0
 5
5B
 10
2814.911
 20
1088.705
 30
0
 40
8.0
 50
90.0
 51
180.0
210
0
220
0
230
1.0
 0
LINE
 8
TOOL_0
 5
5C
 10
2806.911
 20
1088.705
 30
0
 11
2806.911
 21
1076.705
 31
0
 0
LINE
 8
TOOL_0
 5
5D
 10
2806.911
 20
1076.705
 30
0
 11
2280.911
 21
1076.705
 31
0
 0
LINE
 8
TOOL_0
 5
5E
 10
2280.911
 20
1076.705
 30
0
 11
2280.911
 21
1083.705
 31
0
 0
ARC
 8
TOOL_0
 5
5F
 10
2272.911
 20
1083.705
 30
0
 40
8.0
 50
0
 51
90.0
210
0
220
0
230
1.0
 0
LINE
 8
TOOL_0
 5
60
 10
2272.911
 20
1091.705
 30
0
 11
2035.511
 21
1091.705
 31
0
 0
LINE
 8
TOOL_0
 5
61
 10
2035.511
 20
1091.705
 30
0
 11
2035.511
 21
1420.293
 31
0
 0
LINE
 8
TOOL_0
 5
62
 10
2035.511
 20
1420.293
 30
0
 11
2793.786
 21
1672.705
 31
0
 0
LINE
 8
TOOL_0
 5
63
 10
2793.786
 20
1672.705
 30
0
 11
3298.624
 21
1672.705
 31
0
 0
ARC
 8
TOOL_0
 5
64
 10
3298.624
 20
1572.705
 30
0
 40
100.0
 50
46.665781797872
 51
90.0
210
0
220
0
230
1.0
 0
LINE
 8
TOOL_0
 5
65
 10
3367.249
 20
1645.441
 30
0
 11
3578.311
 21
1446.309
 31
0
 0
LINE
 8
TOOL_0
 5
66
 10
3578.311
 20
1446.309
 30
0
 11
3578.311
 21
1322.705
 31
0
 0
LINE
 8
TOOL_0
 5
67
 10
3578.311
 20
1322.705
 30
0
 11
3556.911
 21
1322.705
 31
0
 0
ARC
 8
TOOL_0
 5
68
 10
3556.911
 20
1242.705
 30
0
 40
80.0
 50
90.0
 51
270.0
210
0
220
0
230
1.0
 0
LINE
 8
TOOL_0
 5
69
 10
3556.911
 20
1162.705
 30
0
 11
3578.311
 21
1162.705
 31
0
 0
LINE
 8
TOOL_0
 5
6A
 10
3578.311
 20
1162.705
 30
0
 11
3584.224
 21
1163.029
 31
0
 0
LINE
 8
TOOL_0
 5
6B
 10
3584.224
 20
1163.029
 30
0
 11
3584.224
 21
0
 31
0
 0
LINE
 8
TOOL_0
 5
6C
 10
3584.224
 20
0
 30
0
 11
3636.257
 21
1070.073
 31
0
 0
LINE
 8
TOOL_0
 5
6D
 10
3636.257
 20
1070.073
 30
0
 11
3636.257
 21
2449.0
 31
0
 0
LINE
 8
TOOL_0
 5
6E
 10
3636.257
 20
2449.0
 30
0
 11
3636.257
 21
2450.0
 31
0
 0
ENDSEC
 0
EOF

