0
SECTION
2
TABLES
0
TABLE
2
LAYER
70
0
0
LAYER
2
LAYER_NAME
70
0
62
1
6
CONTINUOUS
0
ENDTAB
0
ENDSEC
 0
SECTION
 2
ENTITIES
 0
LINE
 8
TOOL_0
 5
1
 10
149.838
 20
230.263
 30
0
 11
199.838
 21
230.263
 31
0
 0
ARC
 8
TOOL_0
 5
2
 10
155.838
 20
230.263
 30
0
 40
44.0
 50
0
 51
180.0
210
0
220
0
230
1.0
 0
ARC
 8
TOOL_0
 5
3
 10
155.838
 20
230.263
 30
0
 40
44.0
 50
180.0
 51
0
210
0
220
0
230
1.0
 0
LINE
 8
TOOL_0
 5
4
 10
199.838
 20
230.263
 30
0
 11
192.767
 21
237.334
 31
0
 0
LINE
 8
TOOL_0
 5
5
 10
192.767
 20
237.334
 30
0
 11
315.338
 21
230.262
 31
0
 0
LINE
 8
TOOL_0
 5
6
 10
315.338
 20
230.262
 30
0
 11
365.338
 21
230.262
 31
0
 0
ARC
 8
TOOL_0
 5
7
 10
310.338
 20
230.262
 30
0
 40
55.0
 50
0
 51
180.0
210
0
220
0
230
1.0
 0
ARC
 8
TOOL_0
 5
8
 10
310.338
 20
230.262
 30
0
 40
55.0
 50
180.0
 51
0
210
0
220
0
230
1.0
 0
LINE
 8
TOOL_0
 5
9
 10
365.338
 20
230.262
 30
0
 11
358.267
 21
237.333
 31
0
 0
LINE
 8
TOOL_0
 5
A
 10
358.267
 20
237.333
 30
0
 11
454.733
 21
64.288
 31
0
 0
LINE
 8
TOOL_0
 5
B
 10
454.733
 20
64.288
 30
0
 11
454.733
 21
24.65
 31
0
 0
LINE
 8
TOOL_0
 5
C
 10
454.733
 20
24.65
 30
0
 11
395.338
 21
23.761
 31
0
 0
LINE
 8
TOOL_0
 5
D
 10
395.338
 20
23.761
 30
0
 11
65.338
 21
23.761
 31
0
 0
ARC
 8
TOOL_0
 5
E
 10
65.338
 20
65.261
 30
0
 40
41.5
 50
180.0
 51
270.0
210
0
220
0
230
1.0
 0
LINE
 8
TOOL_0
 5
F
 10
23.838
 20
65.261
 30
0
 11
23.838
 21
395.261
 31
0
 0
ARC
 8
TOOL_0
 5
10
 10
65.338
 20
395.261
 30
0
 40
41.5
 50
90.0
 51
180.0
210
0
220
0
230
1.0
 0
LINE
 8
TOOL_0
 5
11
 10
65.338
 20
436.761
 30
0
 11
395.338
 21
436.761
 31
0
 0
ARC
 8
TOOL_0
 5
12
 10
395.338
 20
395.261
 30
0
 40
41.5
 50
0
 51
90.0
210
0
220
0
230
1.0
 0
LINE
 8
TOOL_0
 5
13
 10
436.838
 20
395.261
 30
0
 11
436.838
 21
340.882
 31
0
 0
LINE
 8
TOOL_0
 5
14
 10
436.838
 20
340.882
 30
0
 11
461.838
 21
315.882
 31
0
 0
LINE
 8
TOOL_0
 5
15
 10
461.838
 20
315.882
 30
0
 11
461.838
 21
279.859
 31
0
 0
ARC
 8
TOOL_0
 5
16
 10
705.338
 20
230.261
 30
0
 40
248.499922744455
 50
168.48703905205
 51
191.51318687526
210
0
220
0
230
1.0
 0
LINE
 8
TOOL_0
 5
17
 10
461.838
 20
180.662
 30
0
 11
461.838
 21
144.639
 31
0
 0
LINE
 8
TOOL_0
 5
18
 10
461.838
 20
144.639
 30
0
 11
436.838
 21
119.639
 31
0
 0
LINE
 8
TOOL_0
 5
19
 10
436.838
 20
119.639
 30
0
 11
436.838
 21
65.26
 31
0
 0
ARC
 8
TOOL_0
 5
1A
 10
395.338
 20
65.26
 30
0
 40
41.5
 50
270.0
 51
0
210
0
220
0
230
1.0
 0
LINE
 8
TOOL_0
 5
1B
 10
395.338
 20
23.76
 30
0
 11
395.338
 21
12.132
 31
0
 0
LINE
 8
TOOL_0
 5
1C
 10
395.338
 20
12.132
 30
0
 11
473.252
 21
-0.003
 31
0
 0
LINE
 8
TOOL_0
 5
1D
 10
473.252
 20
-0.003
 30
0
 11
473.252
 21
0.997
 31
0
 0
LINE
 8
TOOL_0
 5
1E
 10
473.252
 20
0.997
 30
0
 11
473.252
 21
-0.003
 31
0
 0
LINE
 8
TOOL_0
 5
1F
 10
473.252
 20
-0.003
 30
0
 11
473.252
 21
0.997
 31
0
 0
LINE
 8
TOOL_0
 5
20
 10
473.252
 20
0.997
 30
0
 11
473.252
 21
455.083
 31
0
 0
LINE
 8
TOOL_0
 5
21
 10
473.252
 20
455.083
 30
0
 11
1.0
 21
455.083
 31
0
 0
LINE
 8
TOOL_0
 5
22
 10
1.0
 20
455.083
 30
0
 11
0
 21
455.083
 31
0
 0
ENDSEC
 0
EOF

