0
SECTION
2
TABLES
0
TABLE
2
LAYER
70
0
0
LAYER
2
LAYER_NAME
70
0
62
1
6
CONTINUOUS
0
ENDTAB
0
ENDSEC
 0
SECTION
 2
ENTITIES
 0
LINE
 8
TOOL_0
 5
1
 10
68.428
 20
2071.283
 30
0
 11
63.498
 21
2042.117
 31
0
 0
ARC
 8
TOOL_0
 5
2
 10
68.428
 20
2041.284
 30
0
 40
4.999878898533
 50
170.409571175906
 51
270.0
210
0
220
0
230
1.0
 0
ARC
 8
TOOL_0
 5
3
 10
68.428
 20
2060.284
 30
0
 40
24.0
 50
270.0
 51
0
210
0
220
0
230
1.0
 0
LINE
 8
TOOL_0
 5
4
 10
92.428
 20
2060.284
 30
0
 11
92.428
 21
2077.284
 31
0
 0
ARC
 8
TOOL_0
 5
5
 10
68.428
 20
2077.284
 30
0
 40
24.0
 50
0
 51
180.0
210
0
220
0
230
1.0
 0
LINE
 8
TOOL_0
 5
6
 10
44.428
 20
2077.284
 30
0
 11
44.428
 21
2060.284
 31
0
 0
ARC
 8
TOOL_0
 5
7
 10
68.428
 20
2060.284
 30
0
 40
24.0
 50
180.0
 51
270.0
210
0
220
0
230
1.0
 0
ARC
 8
TOOL_0
 5
8
 10
68.428
 20
2046.284
 30
0
 40
10.0
 50
270.0
 51
315.838652099144
210
0
220
0
230
1.0
 0
LINE
 8
TOOL_0
 5
9
 10
75.602
 20
2039.317
 30
0
 11
208.429
 21
2068.784
 31
0
 0
LINE
 8
TOOL_0
 5
A
 10
208.429
 20
2068.784
 30
0
 11
205.048
 21
2048.784
 31
0
 0
ARC
 8
TOOL_0
 5
B
 10
208.429
 20
2048.213
 30
0
 40
3.428877658943
 50
170.414059530605
 51
270.0
210
0
220
0
230
1.0
 0
ARC
 8
TOOL_0
 5
C
 10
208.429
 20
2068.784
 30
0
 40
24.0
 50
270.0
 51
90.0
210
0
220
0
230
1.0
 0
ARC
 8
TOOL_0
 5
D
 10
208.429
 20
2068.784
 30
0
 40
24.0
 50
90.0
 51
270.0
210
0
220
0
230
1.0
 0
ARC
 8
TOOL_0
 5
E
 10
208.429
 20
2051.641
 30
0
 40
6.857
 50
270.0
 51
315.839048998518
210
0
220
0
230
1.0
 0
LINE
 8
TOOL_0
 5
F
 10
213.348
 20
2046.864
 30
0
 11
208.429
 21
1953.784
 31
0
 0
LINE
 8
TOOL_0
 5
10
 10
208.429
 20
1953.784
 30
0
 11
228.429
 21
1950.404
 31
0
 0
ARC
 8
TOOL_0
 5
11
 10
229.0
 20
1953.785
 30
0
 40
3.428877658943
 50
260.414059530604
 51
0
210
0
220
0
230
1.0
 0
ARC
 8
TOOL_0
 5
12
 10
208.429
 20
1953.785
 30
0
 40
24.0
 50
0
 51
180.0
210
0
220
0
230
1.0
 0
ARC
 8
TOOL_0
 5
13
 10
208.429
 20
1953.785
 30
0
 40
24.0
 50
180.0
 51
0
210
0
220
0
230
1.0
 0
ARC
 8
TOOL_0
 5
14
 10
225.572
 20
1953.785
 30
0
 40
6.857
 50
0
 51
45.839048998519
210
0
220
0
230
1.0
 0
LINE
 8
TOOL_0
 5
15
 10
230.349
 20
1958.704
 30
0
 11
358.429
 21
1953.785
 31
0
 0
LINE
 8
TOOL_0
 5
16
 10
358.429
 20
1953.785
 30
0
 11
378.429
 21
1950.405
 31
0
 0
ARC
 8
TOOL_0
 5
17
 10
379.0
 20
1953.786
 30
0
 40
3.428877658943
 50
260.414059530603
 51
0
210
0
220
0
230
1.0
 0
ARC
 8
TOOL_0
 5
18
 10
358.429
 20
1953.786
 30
0
 40
24.0
 50
0
 51
180.0
210
0
220
0
230
1.0
 0
ARC
 8
TOOL_0
 5
19
 10
358.429
 20
1953.786
 30
0
 40
24.0
 50
180.0
 51
0
210
0
220
0
230
1.0
 0
ARC
 8
TOOL_0
 5
1A
 10
375.572
 20
1953.786
 30
0
 40
6.857
 50
0
 51
45.839048998519
210
0
220
0
230
1.0
 0
LINE
 8
TOOL_0
 5
1B
 10
380.349
 20
1958.705
 30
0
 11
1518.429
 21
2066.286
 31
0
 0
LINE
 8
TOOL_0
 5
1C
 10
1518.429
 20
2066.286
 30
0
 11
1523.359
 21
2095.453
 31
0
 0
ARC
 8
TOOL_0
 5
1D
 10
1518.429
 20
2096.286
 30
0
 40
4.999878898534
 50
350.409571175907
 51
90.0
210
0
220
0
230
1.0
 0
ARC
 8
TOOL_0
 5
1E
 10
1518.429
 20
2077.286
 30
0
 40
24.0
 50
90.0
 51
180.0
210
0
220
0
230
1.0
 0
LINE
 8
TOOL_0
 5
1F
 10
1494.429
 20
2077.286
 30
0
 11
1494.429
 21
2060.286
 31
0
 0
ARC
 8
TOOL_0
 5
20
 10
1518.429
 20
2060.286
 30
0
 40
24.0
 50
180.0
 51
0
210
0
220
0
230
1.0
 0
LINE
 8
TOOL_0
 5
21
 10
1542.429
 20
2060.286
 30
0
 11
1542.429
 21
2077.286
 31
0
 0
ARC
 8
TOOL_0
 5
22
 10
1518.429
 20
2077.286
 30
0
 40
24.0
 50
0
 51
90.0
210
0
220
0
230
1.0
 0
ARC
 8
TOOL_0
 5
23
 10
1518.429
 20
2091.286
 30
0
 40
10.0
 50
90.0
 51
135.838652099143
210
0
220
0
230
1.0
 0
LINE
 8
TOOL_0
 5
24
 10
1511.255
 20
2098.253
 30
0
 11
1688.429
 21
2068.786
 31
0
 0
LINE
 8
TOOL_0
 5
25
 10
1688.429
 20
2068.786
 30
0
 11
1708.429
 21
2065.406
 31
0
 0
ARC
 8
TOOL_0
 5
26
 10
1709.0
 20
2068.787
 30
0
 40
3.428877658943
 50
260.414059530605
 51
0
210
0
220
0
230
1.0
 0
ARC
 8
TOOL_0
 5
27
 10
1688.429
 20
2068.787
 30
0
 40
24.0
 50
0
 51
180.0
210
0
220
0
230
1.0
 0
ARC
 8
TOOL_0
 5
28
 10
1688.429
 20
2068.787
 30
0
 40
24.0
 50
180.0
 51
0
210
0
220
0
230
1.0
 0
ARC
 8
TOOL_0
 5
29
 10
1705.572
 20
2068.787
 30
0
 40
6.857
 50
0
 51
45.839048998517
210
0
220
0
230
1.0
 0
LINE
 8
TOOL_0
 5
2A
 10
1710.349
 20
2073.706
 30
0
 11
2254.427
 21
1843.238
 31
0
 0
LINE
 8
TOOL_0
 5
2B
 10
2254.427
 20
1843.238
 30
0
 11
2229.679
 21
1867.987
 31
0
 0
LINE
 8
TOOL_0
 5
2C
 10
2229.679
 20
1867.987
 30
0
 11
7.179
 21
1867.987
 31
0
 0
LINE
 8
TOOL_0
 5
2D
 10
7.179
 20
1867.987
 30
0
 11
7.179
 21
2139.587
 31
0
 0
LINE
 8
TOOL_0
 5
2E
 10
7.179
 20
2139.587
 30
0
 11
2054.679
 21
2139.587
 31
0
 0
LINE
 8
TOOL_0
 5
2F
 10
2054.679
 20
2139.587
 30
0
 11
2054.679
 21
1999.187
 31
0
 0
LINE
 8
TOOL_0
 5
30
 10
2054.679
 20
1999.187
 30
0
 11
2229.679
 21
1999.187
 31
0
 0
LINE
 8
TOOL_0
 5
31
 10
2229.679
 20
1999.187
 30
0
 11
2229.679
 21
1867.987
 31
0
 0
LINE
 8
TOOL_0
 5
32
 10
2229.679
 20
1867.987
 30
0
 11
2226.143
 21
1864.451
 31
0
 0
LINE
 8
TOOL_0
 5
33
 10
2226.143
 20
1864.451
 30
0
 11
2226.143
 21
0.003
 31
0
 0
LINE
 8
TOOL_0
 5
34
 10
2226.143
 20
0.003
 30
0
 11
3950.512
 21
408.187
 31
0
 0
LINE
 8
TOOL_0
 5
35
 10
3950.512
 20
408.187
 30
0
 11
3979.679
 21
403.257
 31
0
 0
ARC
 8
TOOL_0
 5
36
 10
3980.512
 20
408.187
 30
0
 40
4.999878898533
 50
260.409571175906
 51
0
210
0
220
0
230
1.0
 0
LINE
 8
TOOL_0
 5
37
 10
3985.512
 20
408.187
 30
0
 11
3985.512
 21
608.187
 31
0
 0
ARC
 8
TOOL_0
 5
38
 10
3935.512
 20
608.187
 30
0
 40
50.0
 50
0
 51
90.0
210
0
220
0
230
1.0
 0
LINE
 8
TOOL_0
 5
39
 10
3935.512
 20
658.187
 30
0
 11
2590.512
 21
658.187
 31
0
 0
ARC
 8
TOOL_0
 5
3A
 10
2590.512
 20
608.187
 30
0
 40
50.0
 50
90.0
 51
180.0
210
0
220
0
230
1.0
 0
LINE
 8
TOOL_0
 5
3B
 10
2540.512
 20
608.187
 30
0
 11
2540.512
 21
208.187
 31
0
 0
ARC
 8
TOOL_0
 5
3C
 10
2590.512
 20
208.187
 30
0
 40
50.0
 50
180.0
 51
270.0
210
0
220
0
230
1.0
 0
LINE
 8
TOOL_0
 5
3D
 10
2590.512
 20
158.187
 30
0
 11
3935.512
 21
158.187
 31
0
 0
ARC
 8
TOOL_0
 5
3E
 10
3935.512
 20
208.187
 30
0
 40
50.0
 50
270.0
 51
0
210
0
220
0
230
1.0
 0
LINE
 8
TOOL_0
 5
3F
 10
3985.512
 20
208.187
 30
0
 11
3985.512
 21
408.187
 31
0
 0
ARC
 8
TOOL_0
 5
40
 10
3975.512
 20
408.187
 30
0
 40
10.0
 50
0
 51
45.838652099143
210
0
220
0
230
1.0
 0
LINE
 8
TOOL_0
 5
41
 10
3982.479
 20
415.361
 30
0
 11
4502.042
 21
204.226
 31
0
 0
LINE
 8
TOOL_0
 5
42
 10
4502.042
 20
204.226
 30
0
 11
4501.762
 21
153.187
 31
0
 0
LINE
 8
TOOL_0
 5
43
 10
4501.762
 20
153.187
 30
0
 11
4501.762
 21
62.387
 31
0
 0
LINE
 8
TOOL_0
 5
44
 10
4501.762
 20
62.387
 30
0
 11
4268.689
 21
62.387
 31
0
 0
LINE
 8
TOOL_0
 5
45
 10
4268.689
 20
62.387
 30
0
 11
4150.26
 21
7.187
 31
0
 0
LINE
 8
TOOL_0
 5
46
 10
4150.26
 20
7.187
 30
0
 11
2229.262
 21
7.187
 31
0
 0
LINE
 8
TOOL_0
 5
47
 10
2229.262
 20
7.187
 30
0
 11
2229.262
 21
809.187
 31
0
 0
LINE
 8
TOOL_0
 5
48
 10
2229.262
 20
809.187
 30
0
 11
4150.26
 21
809.187
 31
0
 0
LINE
 8
TOOL_0
 5
49
 10
4150.26
 20
809.187
 30
0
 11
4268.689
 21
753.987
 31
0
 0
LINE
 8
TOOL_0
 5
4A
 10
4268.689
 20
753.987
 30
0
 11
4501.762
 21
753.987
 31
0
 0
LINE
 8
TOOL_0
 5
4B
 10
4501.762
 20
753.987
 30
0
 11
4501.762
 21
663.187
 31
0
 0
LINE
 8
TOOL_0
 5
4C
 10
4501.762
 20
663.187
 30
0
 11
4255.512
 21
663.187
 31
0
 0
ARC
 8
TOOL_0
 5
4D
 10
4255.512
 20
613.187
 30
0
 40
50.0
 50
90.0
 51
180.0
210
0
220
0
230
1.0
 0
LINE
 8
TOOL_0
 5
4E
 10
4205.512
 20
613.187
 30
0
 11
4205.512
 21
203.187
 31
0
 0
ARC
 8
TOOL_0
 5
4F
 10
4255.512
 20
203.187
 30
0
 40
50.0
 50
180.0
 51
270.0
210
0
220
0
230
1.0
 0
LINE
 8
TOOL_0
 5
50
 10
4255.512
 20
153.187
 30
0
 11
4501.762
 21
153.187
 31
0
 0
LINE
 8
TOOL_0
 5
51
 10
4501.762
 20
153.187
 30
0
 11
4508.726
 21
152.596
 31
0
 0
LINE
 8
TOOL_0
 5
52
 10
4508.726
 20
152.596
 30
0
 11
6277.126
 21
408.187
 31
0
 0
LINE
 8
TOOL_0
 5
53
 10
6277.126
 20
408.187
 30
0
 11
6306.293
 21
403.257
 31
0
 0
ARC
 8
TOOL_0
 5
54
 10
6307.126
 20
408.187
 30
0
 40
4.999878898533
 50
260.409571175911
 51
0
210
0
220
0
230
1.0
 0
LINE
 8
TOOL_0
 5
55
 10
6312.126
 20
408.187
 30
0
 11
6312.126
 21
608.187
 31
0
 0
ARC
 8
TOOL_0
 5
56
 10
6262.126
 20
608.187
 30
0
 40
50.0
 50
0
 51
90.0
210
0
220
0
230
1.0
 0
LINE
 8
TOOL_0
 5
57
 10
6262.126
 20
658.187
 30
0
 11
4917.126
 21
658.187
 31
0
 0
ARC
 8
TOOL_0
 5
58
 10
4917.126
 20
608.187
 30
0
 40
50.0
 50
90.0
 51
180.0
210
0
220
0
230
1.0
 0
LINE
 8
TOOL_0
 5
59
 10
4867.126
 20
608.187
 30
0
 11
4867.126
 21
208.187
 31
0
 0
ARC
 8
TOOL_0
 5
5A
 10
4917.126
 20
208.187
 30
0
 40
50.0
 50
180.0
 51
270.0
210
0
220
0
230
1.0
 0
LINE
 8
TOOL_0
 5
5B
 10
4917.126
 20
158.187
 30
0
 11
6262.126
 21
158.187
 31
0
 0
ARC
 8
TOOL_0
 5
5C
 10
6262.126
 20
208.187
 30
0
 40
50.0
 50
270.0
 51
0
210
0
220
0
230
1.0
 0
LINE
 8
TOOL_0
 5
5D
 10
6312.126
 20
208.187
 30
0
 11
6312.126
 21
408.187
 31
0
 0
ARC
 8
TOOL_0
 5
5E
 10
6302.126
 20
408.187
 30
0
 40
10.0
 50
0
 51
45.838652099145
210
0
220
0
230
1.0
 0
LINE
 8
TOOL_0
 5
5F
 10
6309.093
 20
415.361
 30
0
 11
6826.322
 21
203.112
 31
0
 0
LINE
 8
TOOL_0
 5
60
 10
6826.322
 20
203.112
 30
0
 11
6828.376
 21
153.187
 31
0
 0
LINE
 8
TOOL_0
 5
61
 10
6828.376
 20
153.187
 30
0
 11
6828.376
 21
62.387
 31
0
 0
LINE
 8
TOOL_0
 5
62
 10
6828.376
 20
62.387
 30
0
 11
6595.303
 21
62.387
 31
0
 0
LINE
 8
TOOL_0
 5
63
 10
6595.303
 20
62.387
 30
0
 11
6476.874
 21
7.187
 31
0
 0
LINE
 8
TOOL_0
 5
64
 10
6476.874
 20
7.187
 30
0
 11
4555.876
 21
7.187
 31
0
 0
LINE
 8
TOOL_0
 5
65
 10
4555.876
 20
7.187
 30
0
 11
4555.876
 21
809.187
 31
0
 0
LINE
 8
TOOL_0
 5
66
 10
4555.876
 20
809.187
 30
0
 11
6476.874
 21
809.187
 31
0
 0
LINE
 8
TOOL_0
 5
67
 10
6476.874
 20
809.187
 30
0
 11
6595.303
 21
753.987
 31
0
 0
LINE
 8
TOOL_0
 5
68
 10
6595.303
 20
753.987
 30
0
 11
6828.376
 21
753.987
 31
0
 0
LINE
 8
TOOL_0
 5
69
 10
6828.376
 20
753.987
 30
0
 11
6828.376
 21
663.187
 31
0
 0
LINE
 8
TOOL_0
 5
6A
 10
6828.376
 20
663.187
 30
0
 11
6582.126
 21
663.187
 31
0
 0
ARC
 8
TOOL_0
 5
6B
 10
6582.126
 20
613.187
 30
0
 40
50.0
 50
90.0
 51
180.0
210
0
220
0
230
1.0
 0
LINE
 8
TOOL_0
 5
6C
 10
6532.126
 20
613.187
 30
0
 11
6532.126
 21
203.187
 31
0
 0
ARC
 8
TOOL_0
 5
6D
 10
6582.126
 20
203.187
 30
0
 40
50.0
 50
180.0
 51
270.0
210
0
220
0
230
1.0
 0
LINE
 8
TOOL_0
 5
6E
 10
6582.126
 20
153.187
 30
0
 11
6828.376
 21
153.187
 31
0
 0
LINE
 8
TOOL_0
 5
6F
 10
6828.376
 20
153.187
 30
0
 11
6837.12
 21
153.01
 31
0
 0
LINE
 8
TOOL_0
 5
70
 10
6837.12
 20
153.01
 30
0
 11
6837.12
 21
0.003
 31
0
 0
LINE
 8
TOOL_0
 5
71
 10
6837.12
 20
0.003
 30
0
 11
2355.552
 21
1873.212
 31
0
 0
LINE
 8
TOOL_0
 5
72
 10
2355.552
 20
1873.212
 30
0
 11
2350.621
 21
1844.045
 31
0
 0
ARC
 8
TOOL_0
 5
73
 10
2355.551
 20
1843.212
 30
0
 40
4.999878898533
 50
170.409571175906
 51
270.0
210
0
220
0
230
1.0
 0
ARC
 8
TOOL_0
 5
74
 10
2355.551
 20
1862.212
 30
0
 40
24.0
 50
270.0
 51
0
210
0
220
0
230
1.0
 0
LINE
 8
TOOL_0
 5
75
 10
2379.551
 20
1862.212
 30
0
 11
2379.551
 21
1879.212
 31
0
 0
ARC
 8
TOOL_0
 5
76
 10
2355.551
 20
1879.212
 30
0
 40
24.0
 50
0
 51
180.0
210
0
220
0
230
1.0
 0
LINE
 8
TOOL_0
 5
77
 10
2331.551
 20
1879.212
 30
0
 11
2331.551
 21
1862.212
 31
0
 0
ARC
 8
TOOL_0
 5
78
 10
2355.551
 20
1862.212
 30
0
 40
24.0
 50
180.0
 51
270.0
210
0
220
0
230
1.0
 0
ARC
 8
TOOL_0
 5
79
 10
2355.551
 20
1848.212
 30
0
 40
10.0
 50
270.0
 51
315.838652099144
210
0
220
0
230
1.0
 0
LINE
 8
TOOL_0
 5
7A
 10
2362.725
 20
1841.245
 30
0
 11
2495.552
 21
1870.712
 31
0
 0
LINE
 8
TOOL_0
 5
7B
 10
2495.552
 20
1870.712
 30
0
 11
2515.552
 21
1867.331
 31
0
 0
ARC
 8
TOOL_0
 5
7C
 10
2516.123
 20
1870.712
 30
0
 40
3.428877658943
 50
260.414059530605
 51
0
210
0
220
0
230
1.0
 0
ARC
 8
TOOL_0
 5
7D
 10
2495.552
 20
1870.712
 30
0
 40
24.0
 50
0
 51
180.0
210
0
220
0
230
1.0
 0
ARC
 8
TOOL_0
 5
7E
 10
2495.552
 20
1870.712
 30
0
 40
24.0
 50
180.0
 51
0
210
0
220
0
230
1.0
 0
ARC
 8
TOOL_0
 5
7F
 10
2512.695
 20
1870.712
 30
0
 40
6.857
 50
0
 51
45.839048998519
210
0
220
0
230
1.0
 0
LINE
 8
TOOL_0
 5
80
 10
2517.472
 20
1875.631
 30
0
 11
2495.552
 21
1755.712
 31
0
 0
LINE
 8
TOOL_0
 5
81
 10
2495.552
 20
1755.712
 30
0
 11
2515.552
 21
1752.331
 31
0
 0
ARC
 8
TOOL_0
 5
82
 10
2516.123
 20
1755.712
 30
0
 40
3.428877658943
 50
260.414059530605
 51
0
210
0
220
0
230
1.0
 0
ARC
 8
TOOL_0
 5
83
 10
2495.552
 20
1755.712
 30
0
 40
24.0
 50
0
 51
180.0
210
0
220
0
230
1.0
 0
ARC
 8
TOOL_0
 5
84
 10
2495.552
 20
1755.712
 30
0
 40
24.0
 50
180.0
 51
0
210
0
220
0
230
1.0
 0
ARC
 8
TOOL_0
 5
85
 10
2512.695
 20
1755.712
 30
0
 40
6.857
 50
0
 51
45.839048998519
210
0
220
0
230
1.0
 0
LINE
 8
TOOL_0
 5
86
 10
2517.472
 20
1760.631
 30
0
 11
2645.552
 21
1755.712
 31
0
 0
LINE
 8
TOOL_0
 5
87
 10
2645.552
 20
1755.712
 30
0
 11
2665.552
 21
1752.331
 31
0
 0
ARC
 8
TOOL_0
 5
88
 10
2666.123
 20
1755.712
 30
0
 40
3.428877658943
 50
260.414059530605
 51
0
210
0
220
0
230
1.0
 0
ARC
 8
TOOL_0
 5
89
 10
2645.552
 20
1755.712
 30
0
 40
24.0
 50
0
 51
180.0
210
0
220
0
230
1.0
 0
ARC
 8
TOOL_0
 5
8A
 10
2645.552
 20
1755.712
 30
0
 40
24.0
 50
180.0
 51
0
210
0
220
0
230
1.0
 0
ARC
 8
TOOL_0
 5
8B
 10
2662.695
 20
1755.712
 30
0
 40
6.857
 50
0
 51
45.839048998519
210
0
220
0
230
1.0
 0
LINE
 8
TOOL_0
 5
8C
 10
2667.472
 20
1760.631
 30
0
 11
3805.552
 21
1868.212
 31
0
 0
LINE
 8
TOOL_0
 5
8D
 10
3805.552
 20
1868.212
 30
0
 11
3810.482
 21
1897.378
 31
0
 0
ARC
 8
TOOL_0
 5
8E
 10
3805.552
 20
1898.211
 30
0
 40
4.999878898533
 50
350.409571175906
 51
90.0
210
0
220
0
230
1.0
 0
ARC
 8
TOOL_0
 5
8F
 10
3805.552
 20
1879.211
 30
0
 40
24.0
 50
90.0
 51
180.0
210
0
220
0
230
1.0
 0
LINE
 8
TOOL_0
 5
90
 10
3781.552
 20
1879.211
 30
0
 11
3781.552
 21
1862.211
 31
0
 0
ARC
 8
TOOL_0
 5
91
 10
3805.552
 20
1862.211
 30
0
 40
24.0
 50
180.0
 51
0
210
0
220
0
230
1.0
 0
LINE
 8
TOOL_0
 5
92
 10
3829.552
 20
1862.211
 30
0
 11
3829.552
 21
1879.211
 31
0
 0
ARC
 8
TOOL_0
 5
93
 10
3805.552
 20
1879.211
 30
0
 40
24.0
 50
0
 51
90.0
210
0
220
0
230
1.0
 0
ARC
 8
TOOL_0
 5
94
 10
3805.552
 20
1893.211
 30
0
 40
10.0
 50
90.0
 51
135.838652099143
210
0
220
0
230
1.0
 0
LINE
 8
TOOL_0
 5
95
 10
3798.378
 20
1900.178
 30
0
 11
3975.552
 21
1870.711
 31
0
 0
LINE
 8
TOOL_0
 5
96
 10
3975.552
 20
1870.711
 30
0
 11
3995.552
 21
1867.33
 31
0
 0
ARC
 8
TOOL_0
 5
97
 10
3996.123
 20
1870.711
 30
0
 40
3.428877658943
 50
260.414059530605
 51
0
210
0
220
0
230
1.0
 0
ARC
 8
TOOL_0
 5
98
 10
3975.552
 20
1870.711
 30
0
 40
24.0
 50
0
 51
180.0
210
0
220
0
230
1.0
 0
ARC
 8
TOOL_0
 5
99
 10
3975.552
 20
1870.711
 30
0
 40
24.0
 50
180.0
 51
0
210
0
220
0
230
1.0
 0
ARC
 8
TOOL_0
 5
9A
 10
3992.695
 20
1870.711
 30
0
 40
6.857
 50
0
 51
45.839048998519
210
0
220
0
230
1.0
 0
LINE
 8
TOOL_0
 5
9B
 10
3997.472
 20
1875.63
 30
0
 11
4561.613
 21
1680.122
 31
0
 0
LINE
 8
TOOL_0
 5
9C
 10
4561.613
 20
1680.122
 30
0
 11
4516.802
 21
1669.911
 31
0
 0
LINE
 8
TOOL_0
 5
9D
 10
4516.802
 20
1669.911
 30
0
 11
2294.302
 21
1669.911
 31
0
 0
LINE
 8
TOOL_0
 5
9E
 10
2294.302
 20
1669.911
 30
0
 11
2294.302
 21
1941.511
 31
0
 0
LINE
 8
TOOL_0
 5
9F
 10
2294.302
 20
1941.511
 30
0
 11
4341.802
 21
1941.511
 31
0
 0
LINE
 8
TOOL_0
 5
A0
 10
4341.802
 20
1941.511
 30
0
 11
4341.802
 21
1801.111
 31
0
 0
LINE
 8
TOOL_0
 5
A1
 10
4341.802
 20
1801.111
 30
0
 11
4516.802
 21
1801.111
 31
0
 0
LINE
 8
TOOL_0
 5
A2
 10
4516.802
 20
1801.111
 30
0
 11
4516.802
 21
1669.911
 31
0
 0
LINE
 8
TOOL_0
 5
A3
 10
4516.802
 20
1669.911
 30
0
 11
4516.961
 21
1664.79
 31
0
 0
LINE
 8
TOOL_0
 5
A4
 10
4516.961
 20
1664.79
 30
0
 11
4964.167
 21
1753.365
 31
0
 0
LINE
 8
TOOL_0
 5
A5
 10
4964.167
 20
1753.365
 30
0
 11
4984.167
 21
1749.985
 31
0
 0
ARC
 8
TOOL_0
 5
A6
 10
4984.738
 20
1753.366
 30
0
 40
3.428877658943
 50
260.414059530605
 51
0
210
0
220
0
230
1.0
 0
ARC
 8
TOOL_0
 5
A7
 10
4964.167
 20
1753.366
 30
0
 40
24.0
 50
0
 51
180.0
210
0
220
0
230
1.0
 0
ARC
 8
TOOL_0
 5
A8
 10
4964.167
 20
1753.366
 30
0
 40
24.0
 50
180.0
 51
0
210
0
220
0
230
1.0
 0
ARC
 8
TOOL_0
 5
A9
 10
4981.31
 20
1753.366
 30
0
 40
6.857
 50
0
 51
45.839048998519
210
0
220
0
230
1.0
 0
LINE
 8
TOOL_0
 5
AA
 10
4986.087
 20
1758.285
 30
0
 11
5134.167
 21
1750.866
 31
0
 0
LINE
 8
TOOL_0
 5
AB
 10
5134.167
 20
1750.866
 30
0
 11
5139.097
 21
1780.033
 31
0
 0
ARC
 8
TOOL_0
 5
AC
 10
5134.167
 20
1780.866
 30
0
 40
4.999878898534
 50
350.409571175907
 51
90.0
210
0
220
0
230
1.0
 0
ARC
 8
TOOL_0
 5
AD
 10
5134.167
 20
1761.866
 30
0
 40
24.0
 50
90.0
 51
180.0
210
0
220
0
230
1.0
 0
LINE
 8
TOOL_0
 5
AE
 10
5110.167
 20
1761.866
 30
0
 11
5110.167
 21
1744.866
 31
0
 0
ARC
 8
TOOL_0
 5
AF
 10
5134.167
 20
1744.866
 30
0
 40
24.0
 50
180.0
 51
0
210
0
220
0
230
1.0
 0
LINE
 8
TOOL_0
 5
B0
 10
5158.167
 20
1744.866
 30
0
 11
5158.167
 21
1761.866
 31
0
 0
ARC
 8
TOOL_0
 5
B1
 10
5134.167
 20
1761.866
 30
0
 40
24.0
 50
0
 51
90.0
210
0
220
0
230
1.0
 0
ARC
 8
TOOL_0
 5
B2
 10
5134.167
 20
1775.866
 30
0
 40
10.0
 50
90.0
 51
135.838652099143
210
0
220
0
230
1.0
 0
LINE
 8
TOOL_0
 5
B3
 10
5126.993
 20
1782.833
 30
0
 11
6294.166
 21
1868.366
 31
0
 0
LINE
 8
TOOL_0
 5
B4
 10
6294.166
 20
1868.366
 30
0
 11
6314.166
 21
1864.986
 31
0
 0
ARC
 8
TOOL_0
 5
B5
 10
6314.737
 20
1868.367
 30
0
 40
3.428877658943
 50
260.414059530605
 51
0
210
0
220
0
230
1.0
 0
ARC
 8
TOOL_0
 5
B6
 10
6294.166
 20
1868.367
 30
0
 40
24.0
 50
0
 51
180.0
210
0
220
0
230
1.0
 0
ARC
 8
TOOL_0
 5
B7
 10
6294.166
 20
1868.367
 30
0
 40
24.0
 50
180.0
 51
0
210
0
220
0
230
1.0
 0
ARC
 8
TOOL_0
 5
B8
 10
6311.309
 20
1868.367
 30
0
 40
6.857
 50
0
 51
45.839048998519
210
0
220
0
230
1.0
 0
LINE
 8
TOOL_0
 5
B9
 10
6316.086
 20
1873.286
 30
0
 11
6444.166
 21
1868.367
 31
0
 0
LINE
 8
TOOL_0
 5
BA
 10
6444.166
 20
1868.367
 30
0
 11
6440.786
 21
1848.367
 31
0
 0
ARC
 8
TOOL_0
 5
BB
 10
6444.167
 20
1847.796
 30
0
 40
3.428877658944
 50
170.414059530606
 51
270.0
210
0
220
0
230
1.0
 0
ARC
 8
TOOL_0
 5
BC
 10
6444.167
 20
1868.367
 30
0
 40
24.0
 50
270.0
 51
90.0
210
0
220
0
230
1.0
 0
ARC
 8
TOOL_0
 5
BD
 10
6444.167
 20
1868.367
 30
0
 40
24.0
 50
90.0
 51
270.0
210
0
220
0
230
1.0
 0
ARC
 8
TOOL_0
 5
BE
 10
6444.167
 20
1851.224
 30
0
 40
6.857
 50
270.0
 51
315.839048998517
210
0
220
0
230
1.0
 0
LINE
 8
TOOL_0
 5
BF
 10
6449.086
 20
1846.447
 30
0
 11
6444.167
 21
1753.367
 31
0
 0
LINE
 8
TOOL_0
 5
C0
 10
6444.167
 20
1753.367
 30
0
 11
6464.167
 21
1749.987
 31
0
 0
ARC
 8
TOOL_0
 5
C1
 10
6464.738
 20
1753.368
 30
0
 40
3.428877658943
 50
260.414059530605
 51
0
210
0
220
0
230
1.0
 0
ARC
 8
TOOL_0
 5
C2
 10
6444.167
 20
1753.368
 30
0
 40
24.0
 50
0
 51
180.0
210
0
220
0
230
1.0
 0
ARC
 8
TOOL_0
 5
C3
 10
6444.167
 20
1753.368
 30
0
 40
24.0
 50
180.0
 51
0
210
0
220
0
230
1.0
 0
ARC
 8
TOOL_0
 5
C4
 10
6461.31
 20
1753.368
 30
0
 40
6.857
 50
0
 51
45.839048998519
210
0
220
0
230
1.0
 0
LINE
 8
TOOL_0
 5
C5
 10
6466.087
 20
1758.287
 30
0
 11
6584.167
 21
1750.868
 31
0
 0
LINE
 8
TOOL_0
 5
C6
 10
6584.167
 20
1750.868
 30
0
 11
6589.097
 21
1780.035
 31
0
 0
ARC
 8
TOOL_0
 5
C7
 10
6584.167
 20
1780.868
 30
0
 40
4.999878898534
 50
350.409571175907
 51
90.0
210
0
220
0
230
1.0
 0
ARC
 8
TOOL_0
 5
C8
 10
6584.167
 20
1761.868
 30
0
 40
24.0
 50
90.0
 51
180.0
210
0
220
0
230
1.0
 0
LINE
 8
TOOL_0
 5
C9
 10
6560.167
 20
1761.868
 30
0
 11
6560.167
 21
1744.868
 31
0
 0
ARC
 8
TOOL_0
 5
CA
 10
6584.167
 20
1744.868
 30
0
 40
24.0
 50
180.0
 51
0
210
0
220
0
230
1.0
 0
LINE
 8
TOOL_0
 5
CB
 10
6608.167
 20
1744.868
 30
0
 11
6608.167
 21
1761.868
 31
0
 0
ARC
 8
TOOL_0
 5
CC
 10
6584.167
 20
1761.868
 30
0
 40
24.0
 50
0
 51
90.0
210
0
220
0
230
1.0
 0
ARC
 8
TOOL_0
 5
CD
 10
6584.167
 20
1775.868
 30
0
 40
10.0
 50
90.0
 51
135.838652099143
210
0
220
0
230
1.0
 0
LINE
 8
TOOL_0
 5
CE
 10
6576.993
 20
1782.835
 30
0
 11
6709.89
 21
1683.968
 31
0
 0
LINE
 8
TOOL_0
 5
CF
 10
6709.89
 20
1683.968
 30
0
 11
6645.416
 21
1682.568
 31
0
 0
LINE
 8
TOOL_0
 5
D0
 10
6645.416
 20
1682.568
 30
0
 11
4597.916
 21
1682.568
 31
0
 0
LINE
 8
TOOL_0
 5
D1
 10
4597.916
 20
1682.568
 30
0
 11
4597.916
 21
1822.968
 31
0
 0
LINE
 8
TOOL_0
 5
D2
 10
4597.916
 20
1822.968
 30
0
 11
4422.916
 21
1822.968
 31
0
 0
LINE
 8
TOOL_0
 5
D3
 10
4422.916
 20
1822.968
 30
0
 11
4422.916
 21
1954.168
 31
0
 0
LINE
 8
TOOL_0
 5
D4
 10
4422.916
 20
1954.168
 30
0
 11
6645.416
 21
1954.168
 31
0
 0
LINE
 8
TOOL_0
 5
D5
 10
6645.416
 20
1954.168
 30
0
 11
6645.416
 21
1682.568
 31
0
 0
LINE
 8
TOOL_0
 5
D6
 10
6645.416
 20
1682.568
 30
0
 11
6645.508
 21
1675.563
 31
0
 0
LINE
 8
TOOL_0
 5
D7
 10
6645.508
 20
1675.563
 30
0
 11
6645.508
 21
0.005
 31
0
 0
LINE
 8
TOOL_0
 5
D8
 10
6645.508
 20
0.005
 30
0
 11
8614.16
 21
408.189
 31
0
 0
LINE
 8
TOOL_0
 5
D9
 10
8614.16
 20
408.189
 30
0
 11
8643.326
 21
403.259
 31
0
 0
ARC
 8
TOOL_0
 5
DA
 10
8644.159
 20
408.189
 30
0
 40
4.999878898534
 50
260.409571175901
 51
0
210
0
220
0
230
1.0
 0
LINE
 8
TOOL_0
 5
DB
 10
8649.159
 20
408.189
 30
0
 11
8649.159
 21
608.189
 31
0
 0
ARC
 8
TOOL_0
 5
DC
 10
8599.159
 20
608.189
 30
0
 40
50.0
 50
0
 51
90.0
210
0
220
0
230
1.0
 0
LINE
 8
TOOL_0
 5
DD
 10
8599.159
 20
658.189
 30
0
 11
7254.159
 21
658.189
 31
0
 0
ARC
 8
TOOL_0
 5
DE
 10
7254.159
 20
608.189
 30
0
 40
50.0
 50
90.0
 51
180.0
210
0
220
0
230
1.0
 0
LINE
 8
TOOL_0
 5
DF
 10
7204.159
 20
608.189
 30
0
 11
7204.159
 21
208.189
 31
0
 0
ARC
 8
TOOL_0
 5
E0
 10
7254.159
 20
208.189
 30
0
 40
50.0
 50
180.0
 51
270.0
210
0
220
0
230
1.0
 0
LINE
 8
TOOL_0
 5
E1
 10
7254.159
 20
158.189
 30
0
 11
8599.159
 21
158.189
 31
0
 0
ARC
 8
TOOL_0
 5
E2
 10
8599.159
 20
208.189
 30
0
 40
50.0
 50
270.0
 51
0
210
0
220
0
230
1.0
 0
LINE
 8
TOOL_0
 5
E3
 10
8649.159
 20
208.189
 30
0
 11
8649.159
 21
408.189
 31
0
 0
ARC
 8
TOOL_0
 5
E4
 10
8639.159
 20
408.189
 30
0
 40
10.0
 50
0
 51
45.838652099142
210
0
220
0
230
1.0
 0
LINE
 8
TOOL_0
 5
E5
 10
8646.126
 20
415.363
 30
0
 11
9163.823
 21
206.427
 31
0
 0
LINE
 8
TOOL_0
 5
E6
 10
9163.823
 20
206.427
 30
0
 11
9165.409
 21
153.189
 31
0
 0
LINE
 8
TOOL_0
 5
E7
 10
9165.409
 20
153.189
 30
0
 11
9165.409
 21
62.389
 31
0
 0
LINE
 8
TOOL_0
 5
E8
 10
9165.409
 20
62.389
 30
0
 11
8932.336
 21
62.389
 31
0
 0
LINE
 8
TOOL_0
 5
E9
 10
8932.336
 20
62.389
 30
0
 11
8813.907
 21
7.189
 31
0
 0
LINE
 8
TOOL_0
 5
EA
 10
8813.907
 20
7.189
 30
0
 11
6892.909
 21
7.189
 31
0
 0
LINE
 8
TOOL_0
 5
EB
 10
6892.909
 20
7.189
 30
0
 11
6892.909
 21
809.189
 31
0
 0
LINE
 8
TOOL_0
 5
EC
 10
6892.909
 20
809.189
 30
0
 11
8813.907
 21
809.189
 31
0
 0
LINE
 8
TOOL_0
 5
ED
 10
8813.907
 20
809.189
 30
0
 11
8932.336
 21
753.989
 31
0
 0
LINE
 8
TOOL_0
 5
EE
 10
8932.336
 20
753.989
 30
0
 11
9165.409
 21
753.989
 31
0
 0
LINE
 8
TOOL_0
 5
EF
 10
9165.409
 20
753.989
 30
0
 11
9165.409
 21
663.189
 31
0
 0
LINE
 8
TOOL_0
 5
F0
 10
9165.409
 20
663.189
 30
0
 11
8919.159
 21
663.189
 31
0
 0
ARC
 8
TOOL_0
 5
F1
 10
8919.159
 20
613.189
 30
0
 40
50.0
 50
90.0
 51
180.0
210
0
220
0
230
1.0
 0
LINE
 8
TOOL_0
 5
F2
 10
8869.159
 20
613.189
 30
0
 11
8869.159
 21
203.189
 31
0
 0
ARC
 8
TOOL_0
 5
F3
 10
8919.159
 20
203.189
 30
0
 40
50.0
 50
180.0
 51
270.0
210
0
220
0
230
1.0
 0
LINE
 8
TOOL_0
 5
F4
 10
8919.159
 20
153.189
 30
0
 11
9165.409
 21
153.189
 31
0
 0
LINE
 8
TOOL_0
 5
F5
 10
9165.409
 20
153.189
 30
0
 11
9173.967
 21
152.913
 31
0
 0
LINE
 8
TOOL_0
 5
F6
 10
9173.967
 20
152.913
 30
0
 11
9173.967
 21
0.005
 31
0
 0
LINE
 8
TOOL_0
 5
F7
 10
9173.967
 20
0.005
 30
0
 11
6957.22
 21
1036.9
 31
0
 0
LINE
 8
TOOL_0
 5
F8
 10
6957.22
 20
1036.9
 30
0
 11
6952.29
 21
1007.733
 31
0
 0
ARC
 8
TOOL_0
 5
F9
 10
6957.22
 20
1006.9
 30
0
 40
4.999878898534
 50
170.409571175908
 51
270.0
210
0
220
0
230
1.0
 0
ARC
 8
TOOL_0
 5
FA
 10
6957.22
 20
1025.9
 30
0
 40
24.0
 50
270.0
 51
0
210
0
220
0
230
1.0
 0
LINE
 8
TOOL_0
 5
FB
 10
6981.22
 20
1025.9
 30
0
 11
6981.22
 21
1042.9
 31
0
 0
ARC
 8
TOOL_0
 5
FC
 10
6957.22
 20
1042.9
 30
0
 40
24.0
 50
0
 51
180.0
210
0
220
0
230
1.0
 0
LINE
 8
TOOL_0
 5
FD
 10
6933.22
 20
1042.9
 30
0
 11
6933.22
 21
1025.9
 31
0
 0
ARC
 8
TOOL_0
 5
FE
 10
6957.22
 20
1025.9
 30
0
 40
24.0
 50
180.0
 51
270.0
210
0
220
0
230
1.0
 0
ARC
 8
TOOL_0
 5
FF
 10
6957.22
 20
1011.9
 30
0
 40
10.0
 50
270.0
 51
315.838652099144
210
0
220
0
230
1.0
 0
LINE
 8
TOOL_0
 5
100
 10
6964.394
 20
1004.933
 30
0
 11
7097.22
 21
1034.4
 31
0
 0
LINE
 8
TOOL_0
 5
101
 10
7097.22
 20
1034.4
 30
0
 11
7093.84
 21
1014.4
 31
0
 0
ARC
 8
TOOL_0
 5
102
 10
7097.221
 20
1013.829
 30
0
 40
3.428877658944
 50
170.414059530604
 51
270.0
210
0
220
0
230
1.0
 0
ARC
 8
TOOL_0
 5
103
 10
7097.221
 20
1034.4
 30
0
 40
24.0
 50
270.0
 51
90.0
210
0
220
0
230
1.0
 0
ARC
 8
TOOL_0
 5
104
 10
7097.221
 20
1034.4
 30
0
 40
24.0
 50
90.0
 51
270.0
210
0
220
0
230
1.0
 0
ARC
 8
TOOL_0
 5
105
 10
7097.221
 20
1017.257
 30
0
 40
6.857
 50
270.0
 51
315.839048998518
210
0
220
0
230
1.0
 0
LINE
 8
TOOL_0
 5
106
 10
7102.14
 20
1012.48
 30
0
 11
7097.221
 21
919.401
 31
0
 0
LINE
 8
TOOL_0
 5
107
 10
7097.221
 20
919.401
 30
0
 11
7117.221
 21
916.02
 31
0
 0
ARC
 8
TOOL_0
 5
108
 10
7117.792
 20
919.401
 30
0
 40
3.428877658943
 50
260.414059530605
 51
0
210
0
220
0
230
1.0
 0
ARC
 8
TOOL_0
 5
109
 10
7097.221
 20
919.401
 30
0
 40
24.0
 50
0
 51
180.0
210
0
220
0
230
1.0
 0
ARC
 8
TOOL_0
 5
10A
 10
7097.221
 20
919.401
 30
0
 40
24.0
 50
180.0
 51
0
210
0
220
0
230
1.0
 0
ARC
 8
TOOL_0
 5
10B
 10
7114.364
 20
919.401
 30
0
 40
6.857
 50
0
 51
45.839048998518
210
0
220
0
230
1.0
 0
LINE
 8
TOOL_0
 5
10C
 10
7119.141
 20
924.32
 30
0
 11
7247.22
 21
919.401
 31
0
 0
LINE
 8
TOOL_0
 5
10D
 10
7247.22
 20
919.401
 30
0
 11
7267.22
 21
916.02
 31
0
 0
ARC
 8
TOOL_0
 5
10E
 10
7267.791
 20
919.401
 30
0
 40
3.428877658943
 50
260.414059530605
 51
0
210
0
220
0
230
1.0
 0
ARC
 8
TOOL_0
 5
10F
 10
7247.22
 20
919.401
 30
0
 40
24.0
 50
0
 51
180.0
210
0
220
0
230
1.0
 0
ARC
 8
TOOL_0
 5
110
 10
7247.22
 20
919.401
 30
0
 40
24.0
 50
180.0
 51
0
210
0
220
0
230
1.0
 0
ARC
 8
TOOL_0
 5
111
 10
7264.363
 20
919.401
 30
0
 40
6.857
 50
0
 51
45.839048998518
210
0
220
0
230
1.0
 0
LINE
 8
TOOL_0
 5
112
 10
7269.14
 20
924.32
 30
0
 11
8407.219
 21
1031.901
 31
0
 0
LINE
 8
TOOL_0
 5
113
 10
8407.219
 20
1031.901
 30
0
 11
8412.149
 21
1061.067
 31
0
 0
ARC
 8
TOOL_0
 5
114
 10
8407.219
 20
1061.9
 30
0
 40
4.999878898534
 50
350.409571175907
 51
90.0
210
0
220
0
230
1.0
 0
ARC
 8
TOOL_0
 5
115
 10
8407.219
 20
1042.9
 30
0
 40
24.0
 50
90.0
 51
180.0
210
0
220
0
230
1.0
 0
LINE
 8
TOOL_0
 5
116
 10
8383.219
 20
1042.9
 30
0
 11
8383.219
 21
1025.9
 31
0
 0
ARC
 8
TOOL_0
 5
117
 10
8407.219
 20
1025.9
 30
0
 40
24.0
 50
180.0
 51
0
210
0
220
0
230
1.0
 0
LINE
 8
TOOL_0
 5
118
 10
8431.219
 20
1025.9
 30
0
 11
8431.219
 21
1042.9
 31
0
 0
ARC
 8
TOOL_0
 5
119
 10
8407.219
 20
1042.9
 30
0
 40
24.0
 50
0
 51
90.0
210
0
220
0
230
1.0
 0
ARC
 8
TOOL_0
 5
11A
 10
8407.219
 20
1056.9
 30
0
 40
10.0
 50
90.0
 51
135.838652099147
210
0
220
0
230
1.0
 0
LINE
 8
TOOL_0
 5
11B
 10
8400.045
 20
1063.867
 30
0
 11
8577.218
 21
1034.4
 31
0
 0
LINE
 8
TOOL_0
 5
11C
 10
8577.218
 20
1034.4
 30
0
 11
8597.218
 21
1031.019
 31
0
 0
ARC
 8
TOOL_0
 5
11D
 10
8597.789
 20
1034.4
 30
0
 40
3.428877658943
 50
260.414059530605
 51
0
210
0
220
0
230
1.0
 0
ARC
 8
TOOL_0
 5
11E
 10
8577.218
 20
1034.4
 30
0
 40
24.0
 50
0
 51
180.0
210
0
220
0
230
1.0
 0
ARC
 8
TOOL_0
 5
11F
 10
8577.218
 20
1034.4
 30
0
 40
24.0
 50
180.0
 51
0
210
0
220
0
230
1.0
 0
ARC
 8
TOOL_0
 5
120
 10
8594.361
 20
1034.4
 30
0
 40
6.857
 50
0
 51
45.839048998519
210
0
220
0
230
1.0
 0
LINE
 8
TOOL_0
 5
121
 10
8599.138
 20
1039.319
 30
0
 11
9176.651
 21
832.946
 31
0
 0
LINE
 8
TOOL_0
 5
122
 10
9176.651
 20
832.946
 30
0
 11
9118.467
 21
833.6
 31
0
 0
LINE
 8
TOOL_0
 5
123
 10
9118.467
 20
833.6
 30
0
 11
6895.967
 21
833.6
 31
0
 0
LINE
 8
TOOL_0
 5
124
 10
6895.967
 20
833.6
 30
0
 11
6895.967
 21
1105.2
 31
0
 0
LINE
 8
TOOL_0
 5
125
 10
6895.967
 20
1105.2
 30
0
 11
8943.467
 21
1105.2
 31
0
 0
LINE
 8
TOOL_0
 5
126
 10
8943.467
 20
1105.2
 30
0
 11
8943.467
 21
964.8
 31
0
 0
LINE
 8
TOOL_0
 5
127
 10
8943.467
 20
964.8
 30
0
 11
9118.467
 21
964.8
 31
0
 0
LINE
 8
TOOL_0
 5
128
 10
9118.467
 20
964.8
 30
0
 11
9118.467
 21
833.6
 31
0
 0
LINE
 8
TOOL_0
 5
129
 10
9118.467
 20
833.6
 30
0
 11
9119.34
 21
826.474
 31
0
 0
LINE
 8
TOOL_0
 5
12A
 10
9119.34
 20
826.474
 30
0
 11
9119.34
 21
0.006
 31
0
 0
LINE
 8
TOOL_0
 5
12B
 10
9119.34
 20
0.006
 30
0
 11
6957.217
 21
1653.132
 31
0
 0
LINE
 8
TOOL_0
 5
12C
 10
6957.217
 20
1653.132
 30
0
 11
6952.287
 21
1623.965
 31
0
 0
ARC
 8
TOOL_0
 5
12D
 10
6957.217
 20
1623.132
 30
0
 40
4.999878898534
 50
170.409571175907
 51
270.0
210
0
220
0
230
1.0
 0
ARC
 8
TOOL_0
 5
12E
 10
6957.217
 20
1642.132
 30
0
 40
24.0
 50
270.0
 51
0
210
0
220
0
230
1.0
 0
LINE
 8
TOOL_0
 5
12F
 10
6981.217
 20
1642.132
 30
0
 11
6981.217
 21
1659.132
 31
0
 0
ARC
 8
TOOL_0
 5
130
 10
6957.217
 20
1659.132
 30
0
 40
24.0
 50
0
 51
180.0
210
0
220
0
230
1.0
 0
LINE
 8
TOOL_0
 5
131
 10
6933.217
 20
1659.132
 30
0
 11
6933.217
 21
1642.132
 31
0
 0
ARC
 8
TOOL_0
 5
132
 10
6957.217
 20
1642.132
 30
0
 40
24.0
 50
180.0
 51
270.0
210
0
220
0
230
1.0
 0
ARC
 8
TOOL_0
 5
133
 10
6957.217
 20
1628.132
 30
0
 40
10.0
 50
270.0
 51
315.838652099144
210
0
220
0
230
1.0
 0
LINE
 8
TOOL_0
 5
134
 10
6964.391
 20
1621.165
 30
0
 11
7097.217
 21
1650.632
 31
0
 0
LINE
 8
TOOL_0
 5
135
 10
7097.217
 20
1650.632
 30
0
 11
7093.837
 21
1630.632
 31
0
 0
ARC
 8
TOOL_0
 5
136
 10
7097.218
 20
1630.061
 30
0
 40
3.428877658944
 50
170.414059530606
 51
270.0
210
0
220
0
230
1.0
 0
ARC
 8
TOOL_0
 5
137
 10
7097.218
 20
1650.632
 30
0
 40
24.0
 50
270.0
 51
90.0
210
0
220
0
230
1.0
 0
ARC
 8
TOOL_0
 5
138
 10
7097.218
 20
1650.632
 30
0
 40
24.0
 50
90.0
 51
270.0
210
0
220
0
230
1.0
 0
ARC
 8
TOOL_0
 5
139
 10
7097.218
 20
1633.489
 30
0
 40
6.857
 50
270.0
 51
315.839048998517
210
0
220
0
230
1.0
 0
LINE
 8
TOOL_0
 5
13A
 10
7102.137
 20
1628.712
 30
0
 11
7097.218
 21
1535.632
 31
0
 0
LINE
 8
TOOL_0
 5
13B
 10
7097.218
 20
1535.632
 30
0
 11
7117.218
 21
1532.251
 31
0
 0
ARC
 8
TOOL_0
 5
13C
 10
7117.789
 20
1535.632
 30
0
 40
3.428877658943
 50
260.414059530605
 51
0
210
0
220
0
230
1.0
 0
ARC
 8
TOOL_0
 5
13D
 10
7097.218
 20
1535.632
 30
0
 40
24.0
 50
0
 51
180.0
210
0
220
0
230
1.0
 0
ARC
 8
TOOL_0
 5
13E
 10
7097.218
 20
1535.632
 30
0
 40
24.0
 50
180.0
 51
0
210
0
220
0
230
1.0
 0
ARC
 8
TOOL_0
 5
13F
 10
7114.361
 20
1535.632
 30
0
 40
6.857
 50
0
 51
45.839048998519
210
0
220
0
230
1.0
 0
LINE
 8
TOOL_0
 5
140
 10
7119.138
 20
1540.551
 30
0
 11
7247.217
 21
1535.632
 31
0
 0
LINE
 8
TOOL_0
 5
141
 10
7247.217
 20
1535.632
 30
0
 11
7267.217
 21
1532.251
 31
0
 0
ARC
 8
TOOL_0
 5
142
 10
7267.788
 20
1535.632
 30
0
 40
3.428877658943
 50
260.414059530605
 51
0
210
0
220
0
230
1.0
 0
ARC
 8
TOOL_0
 5
143
 10
7247.217
 20
1535.632
 30
0
 40
24.0
 50
0
 51
180.0
210
0
220
0
230
1.0
 0
ARC
 8
TOOL_0
 5
144
 10
7247.217
 20
1535.632
 30
0
 40
24.0
 50
180.0
 51
0
210
0
220
0
230
1.0
 0
ARC
 8
TOOL_0
 5
145
 10
7264.36
 20
1535.632
 30
0
 40
6.857
 50
0
 51
45.839048998519
210
0
220
0
230
1.0
 0
LINE
 8
TOOL_0
 5
146
 10
7269.137
 20
1540.551
 30
0
 11
8407.216
 21
1648.132
 31
0
 0
LINE
 8
TOOL_0
 5
147
 10
8407.216
 20
1648.132
 30
0
 11
8412.146
 21
1677.299
 31
0
 0
ARC
 8
TOOL_0
 5
148
 10
8407.216
 20
1678.132
 30
0
 40
4.999878898534
 50
350.409571175907
 51
90.0
210
0
220
0
230
1.0
 0
ARC
 8
TOOL_0
 5
149
 10
8407.216
 20
1659.132
 30
0
 40
24.0
 50
90.0
 51
180.0
210
0
220
0
230
1.0
 0
LINE
 8
TOOL_0
 5
14A
 10
8383.216
 20
1659.132
 30
0
 11
8383.216
 21
1642.132
 31
0
 0
ARC
 8
TOOL_0
 5
14B
 10
8407.216
 20
1642.132
 30
0
 40
24.0
 50
180.0
 51
0
210
0
220
0
230
1.0
 0
LINE
 8
TOOL_0
 5
14C
 10
8431.216
 20
1642.132
 30
0
 11
8431.216
 21
1659.132
 31
0
 0
ARC
 8
TOOL_0
 5
14D
 10
8407.216
 20
1659.132
 30
0
 40
24.0
 50
0
 51
90.0
210
0
220
0
230
1.0
 0
ARC
 8
TOOL_0
 5
14E
 10
8407.216
 20
1673.132
 30
0
 40
10.0
 50
90.0
 51
135.838652099147
210
0
220
0
230
1.0
 0
LINE
 8
TOOL_0
 5
14F
 10
8400.042
 20
1680.099
 30
0
 11
8577.215
 21
1650.632
 31
0
 0
LINE
 8
TOOL_0
 5
150
 10
8577.215
 20
1650.632
 30
0
 11
8597.215
 21
1647.251
 31
0
 0
ARC
 8
TOOL_0
 5
151
 10
8597.786
 20
1650.632
 30
0
 40
3.428877658943
 50
260.414059530605
 51
0
210
0
220
0
230
1.0
 0
ARC
 8
TOOL_0
 5
152
 10
8577.215
 20
1650.632
 30
0
 40
24.0
 50
0
 51
180.0
210
0
220
0
230
1.0
 0
ARC
 8
TOOL_0
 5
153
 10
8577.215
 20
1650.632
 30
0
 40
24.0
 50
180.0
 51
0
210
0
220
0
230
1.0
 0
ARC
 8
TOOL_0
 5
154
 10
8594.358
 20
1650.632
 30
0
 40
6.857
 50
0
 51
45.839048998519
210
0
220
0
230
1.0
 0
LINE
 8
TOOL_0
 5
155
 10
8599.135
 20
1655.551
 30
0
 11
9166.566
 21
1449.24
 31
0
 0
LINE
 8
TOOL_0
 5
156
 10
9166.566
 20
1449.24
 30
0
 11
9118.464
 21
1449.832
 31
0
 0
LINE
 8
TOOL_0
 5
157
 10
9118.464
 20
1449.832
 30
0
 11
6895.964
 21
1449.832
 31
0
 0
LINE
 8
TOOL_0
 5
158
 10
6895.964
 20
1449.832
 30
0
 11
6895.964
 21
1721.432
 31
0
 0
LINE
 8
TOOL_0
 5
159
 10
6895.964
 20
1721.432
 30
0
 11
8943.464
 21
1721.432
 31
0
 0
LINE
 8
TOOL_0
 5
15A
 10
8943.464
 20
1721.432
 30
0
 11
8943.464
 21
1581.032
 31
0
 0
LINE
 8
TOOL_0
 5
15B
 10
8943.464
 20
1581.032
 30
0
 11
9118.464
 21
1581.032
 31
0
 0
LINE
 8
TOOL_0
 5
15C
 10
9118.464
 20
1581.032
 30
0
 11
9118.464
 21
1449.832
 31
0
 0
LINE
 8
TOOL_0
 5
15D
 10
9118.464
 20
1449.832
 30
0
 11
9119.859
 21
1443.195
 31
0
 0
LINE
 8
TOOL_0
 5
15E
 10
9119.859
 20
1443.195
 30
0
 11
9119.859
 21
0.006
 31
0
 0
LINE
 8
TOOL_0
 5
15F
 10
9119.859
 20
0.006
 30
0
 11
9296.936
 21
1693.459
 31
0
 0
LINE
 8
TOOL_0
 5
160
 10
9296.936
 20
1693.459
 30
0
 11
9293.556
 21
1673.459
 31
0
 0
ARC
 8
TOOL_0
 5
161
 10
9296.937
 20
1672.888
 30
0
 40
3.428877658943
 50
170.414059530603
 51
270.0
210
0
220
0
230
1.0
 0
ARC
 8
TOOL_0
 5
162
 10
9296.937
 20
1693.459
 30
0
 40
24.0
 50
270.0
 51
90.0
210
0
220
0
230
1.0
 0
ARC
 8
TOOL_0
 5
163
 10
9296.937
 20
1693.459
 30
0
 40
24.0
 50
90.0
 51
270.0
210
0
220
0
230
1.0
 0
ARC
 8
TOOL_0
 5
164
 10
9296.937
 20
1676.316
 30
0
 40
6.857
 50
270.0
 51
315.839048998517
210
0
220
0
230
1.0
 0
LINE
 8
TOOL_0
 5
165
 10
9301.856
 20
1671.539
 30
0
 11
9294.437
 21
1523.46
 31
0
 0
LINE
 8
TOOL_0
 5
166
 10
9294.437
 20
1523.46
 30
0
 11
9323.604
 21
1518.529
 31
0
 0
ARC
 8
TOOL_0
 5
167
 10
9324.437
 20
1523.459
 30
0
 40
4.999878898534
 50
260.409571175901
 51
0
210
0
220
0
230
1.0
 0
ARC
 8
TOOL_0
 5
168
 10
9305.437
 20
1523.459
 30
0
 40
24.0
 50
0
 51
90.0
210
0
220
0
230
1.0
 0
LINE
 8
TOOL_0
 5
169
 10
9305.437
 20
1547.459
 30
0
 11
9288.437
 21
1547.459
 31
0
 0
ARC
 8
TOOL_0
 5
16A
 10
9288.437
 20
1523.459
 30
0
 40
24.0
 50
90.0
 51
270.0
210
0
220
0
230
1.0
 0
LINE
 8
TOOL_0
 5
16B
 10
9288.437
 20
1499.459
 30
0
 11
9305.437
 21
1499.459
 31
0
 0
ARC
 8
TOOL_0
 5
16C
 10
9305.437
 20
1523.459
 30
0
 40
24.0
 50
270.0
 51
0
210
0
220
0
230
1.0
 0
ARC
 8
TOOL_0
 5
16D
 10
9319.437
 20
1523.459
 30
0
 40
10.0
 50
0
 51
45.838652099142
210
0
220
0
230
1.0
 0
LINE
 8
TOOL_0
 5
16E
 10
9326.404
 20
1530.633
 30
0
 11
9411.937
 21
363.46
 31
0
 0
LINE
 8
TOOL_0
 5
16F
 10
9411.937
 20
363.46
 30
0
 11
9408.557
 21
343.46
 31
0
 0
ARC
 8
TOOL_0
 5
170
 10
9411.938
 20
342.889
 30
0
 40
3.428877658943
 50
170.414059530601
 51
270.0
210
0
220
0
230
1.0
 0
ARC
 8
TOOL_0
 5
171
 10
9411.938
 20
363.46
 30
0
 40
24.0
 50
270.0
 51
90.0
210
0
220
0
230
1.0
 0
ARC
 8
TOOL_0
 5
172
 10
9411.938
 20
363.46
 30
0
 40
24.0
 50
90.0
 51
270.0
210
0
220
0
230
1.0
 0
ARC
 8
TOOL_0
 5
173
 10
9411.938
 20
346.317
 30
0
 40
6.857
 50
270.0
 51
315.839048998517
210
0
220
0
230
1.0
 0
LINE
 8
TOOL_0
 5
174
 10
9416.857
 20
341.54
 30
0
 11
9411.938
 21
213.461
 31
0
 0
LINE
 8
TOOL_0
 5
175
 10
9411.938
 20
213.461
 30
0
 11
9391.938
 21
216.841
 31
0
 0
ARC
 8
TOOL_0
 5
176
 10
9391.367
 20
213.46
 30
0
 40
3.428877658943
 50
80.414059530605
 51
180.0
210
0
220
0
230
1.0
 0
ARC
 8
TOOL_0
 5
177
 10
9411.938
 20
213.46
 30
0
 40
24.0
 50
180.0
 51
0
210
0
220
0
230
1.0
 0
ARC
 8
TOOL_0
 5
178
 10
9411.938
 20
213.46
 30
0
 40
24.0
 50
0
 51
180.0
210
0
220
0
230
1.0
 0
ARC
 8
TOOL_0
 5
179
 10
9394.795
 20
213.46
 30
0
 40
6.857
 50
180.0
 51
225.839048998518
210
0
220
0
230
1.0
 0
LINE
 8
TOOL_0
 5
17A
 10
9390.018
 20
208.541
 30
0
 11
9296.938
 21
213.46
 31
0
 0
LINE
 8
TOOL_0
 5
17B
 10
9296.938
 20
213.46
 30
0
 11
9293.558
 21
193.46
 31
0
 0
ARC
 8
TOOL_0
 5
17C
 10
9296.939
 20
192.889
 30
0
 40
3.428877658943
 50
170.414059530602
 51
270.0
210
0
220
0
230
1.0
 0
ARC
 8
TOOL_0
 5
17D
 10
9296.939
 20
213.46
 30
0
 40
24.0
 50
270.0
 51
90.0
210
0
220
0
230
1.0
 0
ARC
 8
TOOL_0
 5
17E
 10
9296.939
 20
213.46
 30
0
 40
24.0
 50
90.0
 51
270.0
210
0
220
0
230
1.0
 0
ARC
 8
TOOL_0
 5
17F
 10
9296.939
 20
196.317
 30
0
 40
6.857
 50
270.0
 51
315.839048998518
210
0
220
0
230
1.0
 0
LINE
 8
TOOL_0
 5
180
 10
9301.858
 20
191.54
 30
0
 11
9294.439
 21
73.461
 31
0
 0
LINE
 8
TOOL_0
 5
181
 10
9294.439
 20
73.461
 30
0
 11
9323.606
 21
68.53
 31
0
 0
ARC
 8
TOOL_0
 5
182
 10
9324.439
 20
73.46
 30
0
 40
4.999878898534
 50
260.409571175901
 51
0
210
0
220
0
230
1.0
 0
ARC
 8
TOOL_0
 5
183
 10
9305.439
 20
73.46
 30
0
 40
24.0
 50
0
 51
90.0
210
0
220
0
230
1.0
 0
LINE
 8
TOOL_0
 5
184
 10
9305.439
 20
97.46
 30
0
 11
9288.439
 21
97.46
 31
0
 0
ARC
 8
TOOL_0
 5
185
 10
9288.439
 20
73.46
 30
0
 40
24.0
 50
90.0
 51
270.0
210
0
220
0
230
1.0
 0
LINE
 8
TOOL_0
 5
186
 10
9288.439
 20
49.46
 30
0
 11
9305.439
 21
49.46
 31
0
 0
ARC
 8
TOOL_0
 5
187
 10
9305.439
 20
73.46
 30
0
 40
24.0
 50
270.0
 51
0
210
0
220
0
230
1.0
 0
ARC
 8
TOOL_0
 5
188
 10
9319.439
 20
73.46
 30
0
 40
10.0
 50
0
 51
45.838652099142
210
0
220
0
230
1.0
 0
LINE
 8
TOOL_0
 5
189
 10
9326.406
 20
80.634
 30
0
 11
9497.088
 21
2292.356
 31
0
 0
LINE
 8
TOOL_0
 5
18A
 10
9497.088
 20
2292.356
 30
0
 11
9497.739
 21
2234.711
 31
0
 0
LINE
 8
TOOL_0
 5
18B
 10
9497.739
 20
2234.711
 30
0
 11
9497.739
 21
12.211
 31
0
 0
LINE
 8
TOOL_0
 5
18C
 10
9497.739
 20
12.211
 30
0
 11
9226.139
 21
12.211
 31
0
 0
LINE
 8
TOOL_0
 5
18D
 10
9226.139
 20
12.211
 30
0
 11
9226.139
 21
2059.711
 31
0
 0
LINE
 8
TOOL_0
 5
18E
 10
9226.139
 20
2059.711
 30
0
 11
9366.539
 21
2059.711
 31
0
 0
LINE
 8
TOOL_0
 5
18F
 10
9366.539
 20
2059.711
 30
0
 11
9366.539
 21
2234.711
 31
0
 0
LINE
 8
TOOL_0
 5
190
 10
9366.539
 20
2234.711
 30
0
 11
9497.739
 21
2234.711
 31
0
 0
LINE
 8
TOOL_0
 5
191
 10
9497.739
 20
2234.711
 30
0
 11
9510.365
 21
2233.292
 31
0
 0
ENDSEC
 0
EOF

