0
SECTION
2
TABLES
0
TABLE
2
LAYER
70
0
0
LAYER
2
LAYER_NAME
70
0
62
1
6
CONTINUOUS
0
ENDTAB
0
ENDSEC
 0
SECTION
 2
ENTITIES
 0
LINE
 8
TOOL_0
 5
1
 10
1291.131
 20
302.282
 30
0
 11
1326.131
 21
302.282
 31
0
 0
LINE
 8
TOOL_0
 5
2
 10
1326.131
 20
302.282
 30
0
 11
1326.131
 21
414.782
 31
0
 0
ARC
 8
TOOL_0
 5
3
 10
1291.131
 20
414.782
 30
0
 40
35.0
 50
0
 51
90.0
210
0
220
0
230
1.0
 0
LINE
 8
TOOL_0
 5
4
 10
1291.131
 20
449.782
 30
0
 11
1161.131
 21
449.782
 31
0
 0
ARC
 8
TOOL_0
 5
5
 10
1161.131
 20
414.782
 30
0
 40
35.0
 50
90.0
 51
180.0
210
0
220
0
230
1.0
 0
LINE
 8
TOOL_0
 5
6
 10
1126.131
 20
414.782
 30
0
 11
1126.131
 21
189.782
 31
0
 0
ARC
 8
TOOL_0
 5
7
 10
1161.131
 20
189.782
 30
0
 40
35.0
 50
180.0
 51
270.0
210
0
220
0
230
1.0
 0
LINE
 8
TOOL_0
 5
8
 10
1161.131
 20
154.782
 30
0
 11
1291.131
 21
154.782
 31
0
 0
ARC
 8
TOOL_0
 5
9
 10
1291.131
 20
189.782
 30
0
 40
35.0
 50
270.0
 51
0
210
0
220
0
230
1.0
 0
LINE
 8
TOOL_0
 5
A
 10
1326.131
 20
189.782
 30
0
 11
1326.131
 21
302.282
 31
0
 0
LINE
 8
TOOL_0
 5
B
 10
1326.131
 20
302.282
 30
0
 11
1315.524
 21
312.889
 31
0
 0
LINE
 8
TOOL_0
 5
C
 10
1315.524
 20
312.889
 30
0
 11
1681.13
 21
282.282
 31
0
 0
LINE
 8
TOOL_0
 5
D
 10
1681.13
 20
282.282
 30
0
 11
1716.13
 21
282.282
 31
0
 0
LINE
 8
TOOL_0
 5
E
 10
1716.13
 20
282.282
 30
0
 11
1716.13
 21
414.782
 31
0
 0
ARC
 8
TOOL_0
 5
F
 10
1681.13
 20
414.782
 30
0
 40
35.0
 50
0
 51
90.0
210
0
220
0
230
1.0
 0
LINE
 8
TOOL_0
 5
10
 10
1681.13
 20
449.782
 30
0
 11
1551.13
 21
449.782
 31
0
 0
ARC
 8
TOOL_0
 5
11
 10
1551.13
 20
414.782
 30
0
 40
35.0
 50
90.0
 51
180.0
210
0
220
0
230
1.0
 0
LINE
 8
TOOL_0
 5
12
 10
1516.13
 20
414.782
 30
0
 11
1516.13
 21
149.782
 31
0
 0
ARC
 8
TOOL_0
 5
13
 10
1551.13
 20
149.782
 30
0
 40
35.0
 50
180.0
 51
270.0
210
0
220
0
230
1.0
 0
LINE
 8
TOOL_0
 5
14
 10
1551.13
 20
114.782
 30
0
 11
1681.13
 21
114.782
 31
0
 0
ARC
 8
TOOL_0
 5
15
 10
1681.13
 20
149.782
 30
0
 40
35.0
 50
270.0
 51
0
210
0
220
0
230
1.0
 0
LINE
 8
TOOL_0
 5
16
 10
1716.13
 20
149.782
 30
0
 11
1716.13
 21
282.282
 31
0
 0
LINE
 8
TOOL_0
 5
17
 10
1716.13
 20
282.282
 30
0
 11
1705.523
 21
292.889
 31
0
 0
LINE
 8
TOOL_0
 5
18
 10
1705.523
 20
292.889
 30
0
 11
2001.879
 21
136.054
 31
0
 0
LINE
 8
TOOL_0
 5
19
 10
2001.879
 20
136.054
 30
0
 11
2001.879
 21
105.532
 31
0
 0
LINE
 8
TOOL_0
 5
1A
 10
2001.879
 20
105.532
 30
0
 11
2001.879
 21
49.471
 31
0
 0
LINE
 8
TOOL_0
 5
1B
 10
2001.879
 20
49.471
 30
0
 11
1996.44
 21
44.032
 31
0
 0
LINE
 8
TOOL_0
 5
1C
 10
1996.44
 20
44.032
 30
0
 11
1867.879
 21
44.032
 31
0
 0
ARC
 8
TOOL_0
 5
1D
 10
1867.879
 20
37.032
 30
0
 40
7.0
 50
90.0
 51
180.0
210
0
220
0
230
1.0
 0
LINE
 8
TOOL_0
 5
1E
 10
1860.879
 20
37.032
 30
0
 11
1860.879
 21
19.032
 31
0
 0
LINE
 8
TOOL_0
 5
1F
 10
1860.879
 20
19.032
 30
0
 11
1321.379
 21
19.032
 31
0
 0
LINE
 8
TOOL_0
 5
20
 10
1321.379
 20
19.032
 30
0
 11
1321.379
 21
37.032
 31
0
 0
ARC
 8
TOOL_0
 5
21
 10
1314.379
 20
37.032
 30
0
 40
7.0
 50
0
 51
90.0
210
0
220
0
230
1.0
 0
LINE
 8
TOOL_0
 5
22
 10
1314.379
 20
44.032
 30
0
 11
1157.879
 21
44.032
 31
0
 0
ARC
 8
TOOL_0
 5
23
 10
1157.879
 20
37.032
 30
0
 40
7.0
 50
90.0
 51
180.0
210
0
220
0
230
1.0
 0
LINE
 8
TOOL_0
 5
24
 10
1150.879
 20
37.032
 30
0
 11
1150.879
 21
19.032
 31
0
 0
LINE
 8
TOOL_0
 5
25
 10
1150.879
 20
19.032
 30
0
 11
736.379
 21
19.032
 31
0
 0
LINE
 8
TOOL_0
 5
26
 10
736.379
 20
19.032
 30
0
 11
736.379
 21
35.032
 31
0
 0
ARC
 8
TOOL_0
 5
27
 10
729.379
 20
35.032
 30
0
 40
7.0
 50
0
 51
90.0
210
0
220
0
230
1.0
 0
LINE
 8
TOOL_0
 5
28
 10
729.379
 20
42.032
 30
0
 11
550.379
 21
42.032
 31
0
 0
LINE
 8
TOOL_0
 5
29
 10
550.379
 20
42.032
 30
0
 11
550.379
 21
362.297
 31
0
 0
LINE
 8
TOOL_0
 5
2A
 10
550.379
 20
362.297
 30
0
 11
1206.915
 21
615.532
 31
0
 0
LINE
 8
TOOL_0
 5
2B
 10
1206.915
 20
615.532
 30
0
 11
1676.277
 21
615.532
 31
0
 0
ARC
 8
TOOL_0
 5
2C
 10
1676.277
 20
534.782
 30
0
 40
80.75
 50
50.388934774001
 51
90.0
210
0
220
0
230
1.0
 0
LINE
 8
TOOL_0
 5
2D
 10
1727.761
 20
596.991
 30
0
 11
2001.879
 21
370.134
 31
0
 0
LINE
 8
TOOL_0
 5
2E
 10
2001.879
 20
370.134
 30
0
 11
2001.879
 21
264.031
 31
0
 0
LINE
 8
TOOL_0
 5
2F
 10
2001.879
 20
264.031
 30
0
 11
1921.129
 21
264.031
 31
0
 0
ARC
 8
TOOL_0
 5
30
 10
1921.129
 20
214.781
 30
0
 40
49.25
 50
90.0
 51
180.0
210
0
220
0
230
1.0
 0
LINE
 8
TOOL_0
 5
31
 10
1871.879
 20
214.781
 30
0
 11
1871.879
 21
154.781
 31
0
 0
ARC
 8
TOOL_0
 5
32
 10
1921.129
 20
154.781
 30
0
 40
49.25
 50
180.0
 51
270.0
210
0
220
0
230
1.0
 0
LINE
 8
TOOL_0
 5
33
 10
1921.129
 20
105.531
 30
0
 11
2001.879
 21
105.531
 31
0
 0
LINE
 8
TOOL_0
 5
34
 10
2001.879
 20
105.531
 30
0
 11
2006.974
 21
105.531
 31
0
 0
LINE
 8
TOOL_0
 5
35
 10
2006.974
 20
105.531
 30
0
 11
-0.002
 21
1259.781
 31
0
 0
LINE
 8
TOOL_0
 5
36
 10
-0.002
 20
1259.781
 30
0
 11
0.998
 21
1259.781
 31
0
 0
LINE
 8
TOOL_0
 5
37
 10
0.998
 20
1259.781
 30
0
 11
0.998
 21
-0.001
 31
0
 0
LINE
 8
TOOL_0
 5
38
 10
0.998
 20
-0.001
 30
0
 11
-0.002
 21
1259.781
 31
0
 0
LINE
 8
TOOL_0
 5
39
 10
-0.002
 20
1259.781
 30
0
 11
0.998
 21
1259.781
 31
0
 0
LINE
 8
TOOL_0
 5
3A
 10
0.998
 20
1259.781
 30
0
 11
2680.073
 21
1259.781
 31
0
 0
LINE
 8
TOOL_0
 5
3B
 10
2680.073
 20
1259.781
 30
0
 11
2681.073
 21
1259.781
 31
0
 0
ENDSEC
 0
EOF

