0
SECTION
2
TABLES
0
TABLE
2
LAYER
70
0
0
LAYER
2
LAYER_NAME
70
0
62
1
6
CONTINUOUS
0
ENDTAB
0
ENDSEC
 0
SECTION
 2
ENTITIES
 0
LINE
 8
TOOL_0
 5
1
 10
1221.248
 20
766.677
 30
0
 11
1201.449
 21
786.476
 31
0
 0
LINE
 8
TOOL_0
 5
2
 10
1201.449
 20
786.476
 30
0
 11
1199.949
 21
789.076
 31
0
 0
LINE
 8
TOOL_0
 5
3
 10
1199.949
 20
789.076
 30
0
 11
989.989
 21
789.076
 31
0
 0
ARC
 8
TOOL_0
 5
4
 10
990.576
 20
846.109
 30
0
 40
57.036020706217
 50
260.33553459016
 51
269.41031621923
210
0
220
0
230
1.0
 0
LINE
 8
TOOL_0
 5
5
 10
981.001
 20
789.883
 30
0
 11
670.642
 21
846.028
 31
0
 0
ARC
 8
TOOL_0
 5
6
 10
661.83
 20
797.319
 30
0
 40
49.499677019148
 50
79.745469007254
 51
87.249904727645
210
0
220
0
230
1.0
 0
LINE
 8
TOOL_0
 5
7
 10
664.205
 20
846.762
 30
0
 11
159.179
 21
871.02
 31
0
 0
ARC
 8
TOOL_0
 5
8
 10
156.804
 20
821.577
 30
0
 40
49.500008828282
 50
87.249904727645
 51
90.0
210
0
220
0
230
1.0
 0
LINE
 8
TOOL_0
 5
9
 10
156.804
 20
871.077
 30
0
 11
27.004
 21
871.077
 31
0
 0
ARC
 8
TOOL_0
 5
A
 10
27.004
 20
891.077
 30
0
 40
20.0
 50
180.0
 51
270.0
210
0
220
0
230
1.0
 0
LINE
 8
TOOL_0
 5
B
 10
7.004
 20
891.077
 30
0
 11
7.004
 21
928.077
 31
0
 0
ARC
 8
TOOL_0
 5
C
 10
27.004
 20
928.077
 30
0
 40
20.0
 50
90.0
 51
180.0
210
0
220
0
230
1.0
 0
LINE
 8
TOOL_0
 5
D
 10
27.004
 20
948.077
 30
0
 11
156.804
 21
948.077
 31
0
 0
ARC
 8
TOOL_0
 5
E
 10
156.804
 20
997.577
 30
0
 40
49.5
 50
270.0
 51
272.74893911402
210
0
220
0
230
1.0
 0
LINE
 8
TOOL_0
 5
F
 10
159.178
 20
948.134
 30
0
 11
664.205
 21
972.392
 31
0
 0
ARC
 8
TOOL_0
 5
10
 10
661.83
 20
1021.835
 30
0
 40
49.500008828282
 50
272.750095272356
 51
280.253391979756
210
0
220
0
230
1.0
 0
LINE
 8
TOOL_0
 5
11
 10
670.641
 20
973.126
 30
0
 11
981.001
 21
1029.271
 31
0
 0
ARC
 8
TOOL_0
 5
12
 10
990.576
 20
973.044
 30
0
 40
57.036445839481
 50
90.58968378077
 51
99.664296768513
210
0
220
0
230
1.0
 0
LINE
 8
TOOL_0
 5
13
 10
989.989
 20
1030.077
 30
0
 11
1202.949
 21
1030.077
 31
0
 0
ARC
 8
TOOL_0
 5
14
 10
1202.809
 20
979.257
 30
0
 40
50.8201928371
 50
42.957920575039
 51
89.842160786298
210
0
220
0
230
1.0
 0
LINE
 8
TOOL_0
 5
15
 10
1240.002
 20
1013.889
 30
0
 11
1285.232
 21
965.045
 31
0
 0
ARC
 8
TOOL_0
 5
16
 10
1234.2
 20
916.689
 30
0
 40
70.303397926416
 50
0.975579645945
 51
43.45769638409
210
0
220
0
230
1.0
 0
ARC
 8
TOOL_0
 5
17
 10
767.554
 20
909.577
 30
0
 40
537.003286025328
 50
359.113432557154
 51
0.886567442846
210
0
220
0
230
1.0
 0
ARC
 8
TOOL_0
 5
18
 10
1234.501
 20
902.351
 30
0
 40
70.000378234692
 50
317.19988437922
 51
359.113521862244
210
0
220
0
230
1.0
 0
LINE
 8
TOOL_0
 5
19
 10
1285.862
 20
854.79
 30
0
 11
1240.002
 21
805.266
 31
0
 0
ARC
 8
TOOL_0
 5
1A
 10
1202.809
 20
839.897
 30
0
 40
50.819537679912
 50
270.157842319596
 51
317.042904543983
210
0
220
0
230
1.0
 0
LINE
 8
TOOL_0
 5
1B
 10
1202.949
 20
789.078
 30
0
 11
1201.45
 21
786.478
 31
0
 0
LINE
 8
TOOL_0
 5
1C
 10
1201.45
 20
786.478
 30
0
 11
1197.914
 21
782.942
 31
0
 0
LINE
 8
TOOL_0
 5
1D
 10
1197.914
 20
782.942
 30
0
 11
323.465
 21
740.263
 31
0
 0
LINE
 8
TOOL_0
 5
1E
 10
323.465
 20
740.263
 30
0
 11
1327.178
 21
740.263
 31
0
 0
LINE
 8
TOOL_0
 5
1F
 10
1327.178
 20
740.263
 30
0
 11
1327.178
 21
1037.001
 31
0
 0
LINE
 8
TOOL_0
 5
20
 10
1327.178
 20
1037.001
 30
0
 11
1327.178
 21
1038.001
 31
0
 0
ENDSEC
 0
EOF

