0
SECTION
2
TABLES
0
TABLE
2
LAYER
70
0
0
LAYER
2
LAYER_NAME
70
0
62
1
6
CONTINUOUS
0
ENDTAB
0
ENDSEC
 0
SECTION
 2
ENTITIES
 0
LINE
 8
TOOL_0
 5
1
 10
220.25
 20
139.901
 30
0
 11
250.25
 21
139.901
 31
0
 0
LINE
 8
TOOL_0
 5
2
 10
250.25
 20
139.901
 30
0
 11
250.25
 21
189.901
 31
0
 0
ARC
 8
TOOL_0
 5
3
 10
230.25
 20
189.901
 30
0
 40
20.0
 50
0
 51
90.0
210
0
220
0
230
1.0
 0
LINE
 8
TOOL_0
 5
4
 10
230.25
 20
209.901
 30
0
 11
110.25
 21
209.901
 31
0
 0
ARC
 8
TOOL_0
 5
5
 10
110.25
 20
189.901
 30
0
 40
20.0
 50
90.0
 51
180.0
210
0
220
0
230
1.0
 0
LINE
 8
TOOL_0
 5
6
 10
90.25
 20
189.901
 30
0
 11
90.25
 21
89.901
 31
0
 0
ARC
 8
TOOL_0
 5
7
 10
110.25
 20
89.901
 30
0
 40
20.0
 50
180.0
 51
270.0
210
0
220
0
230
1.0
 0
LINE
 8
TOOL_0
 5
8
 10
110.25
 20
69.901
 30
0
 11
230.25
 21
69.901
 31
0
 0
ARC
 8
TOOL_0
 5
9
 10
230.25
 20
89.901
 30
0
 40
20.0
 50
270.0
 51
0
210
0
220
0
230
1.0
 0
LINE
 8
TOOL_0
 5
A
 10
250.25
 20
89.901
 30
0
 11
250.25
 21
139.901
 31
0
 0
LINE
 8
TOOL_0
 5
B
 10
250.25
 20
139.901
 30
0
 11
246.714
 21
143.437
 31
0
 0
LINE
 8
TOOL_0
 5
C
 10
246.714
 20
143.437
 30
0
 11
900.25
 21
159.901
 31
0
 0
LINE
 8
TOOL_0
 5
D
 10
900.25
 20
159.901
 30
0
 11
930.25
 21
159.901
 31
0
 0
LINE
 8
TOOL_0
 5
E
 10
930.25
 20
159.901
 30
0
 11
930.25
 21
194.901
 31
0
 0
ARC
 8
TOOL_0
 5
F
 10
910.25
 20
194.901
 30
0
 40
20.0
 50
0
 51
90.0
210
0
220
0
230
1.0
 0
LINE
 8
TOOL_0
 5
10
 10
910.25
 20
214.901
 30
0
 11
500.25
 21
214.901
 31
0
 0
ARC
 8
TOOL_0
 5
11
 10
500.25
 20
194.901
 30
0
 40
20.0
 50
90.0
 51
180.0
210
0
220
0
230
1.0
 0
LINE
 8
TOOL_0
 5
12
 10
480.25
 20
194.901
 30
0
 11
480.25
 21
124.901
 31
0
 0
ARC
 8
TOOL_0
 5
13
 10
500.25
 20
124.901
 30
0
 40
20.0
 50
180.0
 51
270.0
210
0
220
0
230
1.0
 0
LINE
 8
TOOL_0
 5
14
 10
500.25
 20
104.901
 30
0
 11
910.25
 21
104.901
 31
0
 0
ARC
 8
TOOL_0
 5
15
 10
910.25
 20
124.901
 30
0
 40
20.0
 50
270.0
 51
0
210
0
220
0
230
1.0
 0
LINE
 8
TOOL_0
 5
16
 10
930.25
 20
124.901
 30
0
 11
930.25
 21
159.901
 31
0
 0
LINE
 8
TOOL_0
 5
17
 10
930.25
 20
159.901
 30
0
 11
926.714
 21
163.437
 31
0
 0
LINE
 8
TOOL_0
 5
18
 10
926.714
 20
163.437
 30
0
 11
1290.25
 21
139.901
 31
0
 0
LINE
 8
TOOL_0
 5
19
 10
1290.25
 20
139.901
 30
0
 11
1320.25
 21
139.901
 31
0
 0
LINE
 8
TOOL_0
 5
1A
 10
1320.25
 20
139.901
 30
0
 11
1320.25
 21
189.901
 31
0
 0
ARC
 8
TOOL_0
 5
1B
 10
1300.25
 20
189.901
 30
0
 40
20.0
 50
0
 51
90.0
210
0
220
0
230
1.0
 0
LINE
 8
TOOL_0
 5
1C
 10
1300.25
 20
209.901
 30
0
 11
1180.25
 21
209.901
 31
0
 0
ARC
 8
TOOL_0
 5
1D
 10
1180.25
 20
189.901
 30
0
 40
20.0
 50
90.0
 51
180.0
210
0
220
0
230
1.0
 0
LINE
 8
TOOL_0
 5
1E
 10
1160.25
 20
189.901
 30
0
 11
1160.25
 21
89.901
 31
0
 0
ARC
 8
TOOL_0
 5
1F
 10
1180.25
 20
89.901
 30
0
 40
20.0
 50
180.0
 51
270.0
210
0
220
0
230
1.0
 0
LINE
 8
TOOL_0
 5
20
 10
1180.25
 20
69.901
 30
0
 11
1300.25
 21
69.901
 31
0
 0
ARC
 8
TOOL_0
 5
21
 10
1300.25
 20
89.901
 30
0
 40
20.0
 50
270.0
 51
0
210
0
220
0
230
1.0
 0
LINE
 8
TOOL_0
 5
22
 10
1320.25
 20
89.901
 30
0
 11
1320.25
 21
139.901
 31
0
 0
LINE
 8
TOOL_0
 5
23
 10
1320.25
 20
139.901
 30
0
 11
1316.714
 21
143.437
 31
0
 0
LINE
 8
TOOL_0
 5
24
 10
1316.714
 20
143.437
 30
0
 11
1421.897
 21
19.001
 31
0
 0
LINE
 8
TOOL_0
 5
25
 10
1421.897
 20
19.001
 30
0
 11
1391.5
 21
19.001
 31
0
 0
LINE
 8
TOOL_0
 5
26
 10
1391.5
 20
19.001
 30
0
 11
19.0
 21
19.001
 31
0
 0
LINE
 8
TOOL_0
 5
27
 10
19.0
 20
19.001
 30
0
 11
19.0
 21
370.801
 31
0
 0
LINE
 8
TOOL_0
 5
28
 10
19.0
 20
370.801
 30
0
 11
250.491
 21
370.801
 31
0
 0
LINE
 8
TOOL_0
 5
29
 10
250.491
 20
370.801
 30
0
 11
293.792
 21
345.801
 31
0
 0
LINE
 8
TOOL_0
 5
2A
 10
293.792
 20
345.801
 30
0
 11
438.622
 21
345.801
 31
0
 0
LINE
 8
TOOL_0
 5
2B
 10
438.622
 20
345.801
 30
0
 11
473.622
 21
310.801
 31
0
 0
LINE
 8
TOOL_0
 5
2C
 10
473.622
 20
310.801
 30
0
 11
936.876
 21
310.801
 31
0
 0
LINE
 8
TOOL_0
 5
2D
 10
936.876
 20
310.801
 30
0
 11
971.876
 21
345.801
 31
0
 0
LINE
 8
TOOL_0
 5
2E
 10
971.876
 20
345.801
 30
0
 11
1116.706
 21
345.801
 31
0
 0
LINE
 8
TOOL_0
 5
2F
 10
1116.706
 20
345.801
 30
0
 11
1160.007
 21
370.801
 31
0
 0
LINE
 8
TOOL_0
 5
30
 10
1160.007
 20
370.801
 30
0
 11
1391.498
 21
370.801
 31
0
 0
LINE
 8
TOOL_0
 5
31
 10
1391.498
 20
370.801
 30
0
 11
1391.498
 21
19.001
 31
0
 0
LINE
 8
TOOL_0
 5
32
 10
1391.498
 20
19.001
 30
0
 11
1391.498
 21
14.004
 31
0
 0
LINE
 8
TOOL_0
 5
33
 10
1391.498
 20
14.004
 30
0
 11
1391.498
 21
0
 31
0
 0
LINE
 8
TOOL_0
 5
34
 10
1391.498
 20
0
 30
0
 11
180.498
 21
740.39
 31
0
 0
LINE
 8
TOOL_0
 5
35
 10
180.498
 20
740.39
 30
0
 11
210.498
 21
740.39
 31
0
 0
LINE
 8
TOOL_0
 5
36
 10
210.498
 20
740.39
 30
0
 11
210.498
 21
770.39
 31
0
 0
ARC
 8
TOOL_0
 5
37
 10
200.498
 20
770.39
 30
0
 40
10.0
 50
0
 51
90.0
210
0
220
0
230
1.0
 0
LINE
 8
TOOL_0
 5
38
 10
200.498
 20
780.39
 30
0
 11
154.498
 21
780.39
 31
0
 0
ARC
 8
TOOL_0
 5
39
 10
154.498
 20
770.39
 30
0
 40
10.0
 50
90.0
 51
180.0
210
0
220
0
230
1.0
 0
LINE
 8
TOOL_0
 5
3A
 10
144.498
 20
770.39
 30
0
 11
144.498
 21
710.39
 31
0
 0
ARC
 8
TOOL_0
 5
3B
 10
154.498
 20
710.39
 30
0
 40
10.0
 50
180.0
 51
270.0
210
0
220
0
230
1.0
 0
LINE
 8
TOOL_0
 5
3C
 10
154.498
 20
700.39
 30
0
 11
200.498
 21
700.39
 31
0
 0
ARC
 8
TOOL_0
 5
3D
 10
200.498
 20
710.39
 30
0
 40
10.0
 50
270.0
 51
0
210
0
220
0
230
1.0
 0
LINE
 8
TOOL_0
 5
3E
 10
210.498
 20
710.39
 30
0
 11
210.498
 21
740.39
 31
0
 0
LINE
 8
TOOL_0
 5
3F
 10
210.498
 20
740.39
 30
0
 11
206.962
 21
743.926
 31
0
 0
LINE
 8
TOOL_0
 5
40
 10
206.962
 20
743.926
 30
0
 11
180.498
 21
486.391
 31
0
 0
LINE
 8
TOOL_0
 5
41
 10
180.498
 20
486.391
 30
0
 11
210.498
 21
486.391
 31
0
 0
LINE
 8
TOOL_0
 5
42
 10
210.498
 20
486.391
 30
0
 11
210.498
 21
516.391
 31
0
 0
ARC
 8
TOOL_0
 5
43
 10
200.498
 20
516.391
 30
0
 40
10.0
 50
0
 51
90.0
210
0
220
0
230
1.0
 0
LINE
 8
TOOL_0
 5
44
 10
200.498
 20
526.391
 30
0
 11
154.498
 21
526.391
 31
0
 0
ARC
 8
TOOL_0
 5
45
 10
154.498
 20
516.391
 30
0
 40
10.0
 50
90.0
 51
180.0
210
0
220
0
230
1.0
 0
LINE
 8
TOOL_0
 5
46
 10
144.498
 20
516.391
 30
0
 11
144.498
 21
456.391
 31
0
 0
ARC
 8
TOOL_0
 5
47
 10
154.498
 20
456.391
 30
0
 40
10.0
 50
180.0
 51
270.0
210
0
220
0
230
1.0
 0
LINE
 8
TOOL_0
 5
48
 10
154.498
 20
446.391
 30
0
 11
200.498
 21
446.391
 31
0
 0
ARC
 8
TOOL_0
 5
49
 10
200.498
 20
456.391
 30
0
 40
10.0
 50
270.0
 51
0
210
0
220
0
230
1.0
 0
LINE
 8
TOOL_0
 5
4A
 10
210.498
 20
456.391
 30
0
 11
210.498
 21
486.391
 31
0
 0
LINE
 8
TOOL_0
 5
4B
 10
210.498
 20
486.391
 30
0
 11
206.962
 21
489.927
 31
0
 0
LINE
 8
TOOL_0
 5
4C
 10
206.962
 20
489.927
 30
0
 11
583.1
 21
577.234
 31
0
 0
LINE
 8
TOOL_0
 5
4D
 10
583.1
 20
577.234
 30
0
 11
556.798
 21
563.292
 31
0
 0
ARC
 8
TOOL_0
 5
4E
 10
553.798
 20
563.292
 30
0
 40
3.0
 50
270.0
 51
0
210
0
220
0
230
1.0
 0
LINE
 8
TOOL_0
 5
4F
 10
553.798
 20
560.292
 30
0
 11
488.398
 21
560.292
 31
0
 0
ARC
 8
TOOL_0
 5
50
 10
488.398
 20
563.292
 30
0
 40
3.0
 50
180.0
 51
270.0
210
0
220
0
230
1.0
 0
LINE
 8
TOOL_0
 5
51
 10
485.398
 20
563.292
 30
0
 11
485.398
 21
570.292
 31
0
 0
ARC
 8
TOOL_0
 5
52
 10
470.398
 20
570.292
 30
0
 40
15.0
 50
0
 51
90.0
210
0
220
0
230
1.0
 0
LINE
 8
TOOL_0
 5
53
 10
470.398
 20
585.292
 30
0
 11
317.082
 21
585.292
 31
0
 0
ARC
 8
TOOL_0
 5
54
 10
317.082
 20
565.892
 30
0
 40
19.4
 50
90.0
 51
135.0
210
0
220
0
230
1.0
 0
LINE
 8
TOOL_0
 5
55
 10
303.364
 20
579.61
 30
0
 11
293.086
 21
569.332
 31
0
 0
ARC
 8
TOOL_0
 5
56
 10
335.237
 20
527.259
 30
0
 40
59.555387077913
 50
135.053061710728
 51
173.745757649056
210
0
220
0
230
1.0
 0
ARC
 8
TOOL_0
 5
57
 10
265.498
 20
534.892
 30
0
 40
10.600022122618
 50
270.0
 51
353.798888446262
210
0
220
0
230
1.0
 0
ARC
 8
TOOL_0
 5
58
 10
265.498
 20
504.892
 30
0
 40
19.4
 50
90.0
 51
180.0
210
0
220
0
230
1.0
 0
LINE
 8
TOOL_0
 5
59
 10
246.098
 20
504.892
 30
0
 11
246.098
 21
424.242
 31
0
 0
ARC
 8
TOOL_0
 5
5A
 10
243.098
 20
424.242
 30
0
 40
3.0
 50
284.99046721556
 51
0
210
0
220
0
230
1.0
 0
LINE
 8
TOOL_0
 5
5B
 10
243.874
 20
421.344
 30
0
 11
212.48
 21
412.932
 31
0
 0
ARC
 8
TOOL_0
 5
5C
 10
211.704
 20
415.83
 30
0
 40
3.000096665109
 50
195.008913676659
 51
284.99046721556
210
0
220
0
230
1.0
 0
LINE
 8
TOOL_0
 5
5D
 10
208.806
 20
415.053
 30
0
 11
208.314
 21
416.888
 31
0
 0
ARC
 8
TOOL_0
 5
5E
 10
205.416
 20
416.112
 30
0
 40
3.000096665109
 50
14.99046721556
 51
104.995408657677
210
0
220
0
230
1.0
 0
LINE
 8
TOOL_0
 5
5F
 10
204.64
 20
419.009
 30
0
 11
152.866
 21
405.136
 31
0
 0
ARC
 8
TOOL_0
 5
60
 10
153.642
 20
402.238
 30
0
 40
3.000096665109
 50
104.99046721556
 51
194.995408657676
210
0
220
0
230
1.0
 0
LINE
 8
TOOL_0
 5
61
 10
150.745
 20
401.462
 30
0
 11
151.237
 21
399.627
 31
0
 0
ARC
 8
TOOL_0
 5
62
 10
148.339
 20
398.851
 30
0
 40
3.000096665109
 50
285.008913676659
 51
14.99046721556
210
0
220
0
230
1.0
 0
LINE
 8
TOOL_0
 5
63
 10
149.116
 20
395.953
 30
0
 11
121.443
 21
388.538
 31
0
 0
ARC
 8
TOOL_0
 5
64
 10
120.718
 20
391.243
 30
0
 40
2.800473174305
 50
195.009200172029
 51
285.003901736897
210
0
220
0
230
1.0
 0
LINE
 8
TOOL_0
 5
65
 10
118.014
 20
390.518
 30
0
 11
108.698
 21
425.286
 31
0
 0
LINE
 8
TOOL_0
 5
66
 10
108.698
 20
425.286
 30
0
 11
108.698
 21
521.391
 31
0
 0
ARC
 8
TOOL_0
 5
67
 10
89.498
 20
521.391
 30
0
 40
19.2
 50
0
 51
55.608896625223
210
0
220
0
230
1.0
 0
LINE
 8
TOOL_0
 5
68
 10
100.343
 20
537.235
 30
0
 11
85.366
 21
547.487
 31
0
 0
ARC
 8
TOOL_0
 5
69
 10
68.872
 20
523.392
 30
0
 40
29.199675700254
 50
55.606785125803
 51
87.976512547702
210
0
220
0
230
1.0
 0
ARC
 8
TOOL_0
 5
6A
 10
68.95
 20
603.473
 30
0
 40
50.908920721225
 50
214.740495244391
 51
271.072622767533
210
0
220
0
230
1.0
 0
ARC
 8
TOOL_0
 5
6B
 10
169.302
 20
666.682
 30
0
 40
169.473853428781
 50
208.555470792514
 51
212.966920169158
210
0
220
0
230
1.0
 0
ARC
 8
TOOL_0
 5
6C
 10
30.061
 20
591.142
 30
0
 40
11.063796319528
 50
180.367707176702
 51
209.630545539638
210
0
220
0
230
1.0
 0
LINE
 8
TOOL_0
 5
6D
 10
18.998
 20
591.071
 30
0
 11
18.998
 21
635.712
 31
0
 0
ARC
 8
TOOL_0
 5
6E
 10
30.062
 20
635.641
 30
0
 40
11.064227808573
 50
150.36495319624
 51
179.632326056946
210
0
220
0
230
1.0
 0
LINE
 8
TOOL_0
 5
6F
 10
20.445
 20
641.112
 30
0
 11
24.879
 21
648.791
 31
0
 0
ARC
 8
TOOL_0
 5
70
 10
68.912
 20
623.326
 30
0
 40
50.866209943341
 50
91.62110342507
 51
149.958506845517
210
0
220
0
230
1.0
 0
ARC
 8
TOOL_0
 5
71
 10
68.654
 20
703.855
 30
0
 40
29.706484982239
 50
267.721569789111
 51
304.236244747272
210
0
220
0
230
1.0
 0
LINE
 8
TOOL_0
 5
72
 10
85.367
 20
679.296
 30
0
 11
100.344
 21
689.548
 31
0
 0
ARC
 8
TOOL_0
 5
73
 10
89.499
 20
705.392
 30
0
 40
19.200165650327
 50
304.391103374777
 51
359.99701584482
210
0
220
0
230
1.0
 0
LINE
 8
TOOL_0
 5
74
 10
108.699
 20
705.391
 30
0
 11
108.699
 21
801.496
 31
0
 0
LINE
 8
TOOL_0
 5
75
 10
108.699
 20
801.496
 30
0
 11
118.015
 21
836.264
 31
0
 0
ARC
 8
TOOL_0
 5
76
 10
120.72
 20
835.539
 30
0
 40
2.800473174305
 50
75.015861915196
 51
164.996098263103
210
0
220
0
230
1.0
 0
LINE
 8
TOOL_0
 5
77
 10
121.444
 20
838.244
 30
0
 11
149.117
 21
830.829
 31
0
 0
ARC
 8
TOOL_0
 5
78
 10
148.341
 20
827.931
 30
0
 40
3.000096665109
 50
345.004591342324
 51
75.00953278444
210
0
220
0
230
1.0
 0
LINE
 8
TOOL_0
 5
79
 10
151.238
 20
827.155
 30
0
 11
150.746
 21
825.32
 31
0
 0
ARC
 8
TOOL_0
 5
7A
 10
153.644
 20
824.544
 30
0
 40
3.000096665109
 50
165.009532784441
 51
254.991086323341
210
0
220
0
230
1.0
 0
LINE
 8
TOOL_0
 5
7B
 10
152.867
 20
821.646
 30
0
 11
204.641
 21
807.773
 31
0
 0
ARC
 8
TOOL_0
 5
7C
 10
205.417
 20
810.671
 30
0
 40
3.000096665109
 50
255.00953278444
 51
344.991086323341
210
0
220
0
230
1.0
 0
LINE
 8
TOOL_0
 5
7D
 10
208.315
 20
809.894
 30
0
 11
208.807
 21
811.729
 31
0
 0
ARC
 8
TOOL_0
 5
7E
 10
211.705
 20
810.953
 30
0
 40
3.000096665109
 50
75.004591342323
 51
165.009532784441
210
0
220
0
230
1.0
 0
LINE
 8
TOOL_0
 5
7F
 10
212.481
 20
813.85
 30
0
 11
243.875
 21
805.438
 31
0
 0
ARC
 8
TOOL_0
 5
80
 10
243.099
 20
802.54
 30
0
 40
3.000096665109
 50
0
 51
75.00953278444
210
0
220
0
230
1.0
 0
LINE
 8
TOOL_0
 5
81
 10
246.099
 20
802.54
 30
0
 11
246.099
 21
721.89
 31
0
 0
ARC
 8
TOOL_0
 5
82
 10
265.499
 20
721.89
 30
0
 40
19.4
 50
180.0
 51
270.0
210
0
220
0
230
1.0
 0
ARC
 8
TOOL_0
 5
83
 10
265.472
 20
691.858
 30
0
 40
10.63203428324
 50
9.83972311836
 51
89.854497486708
210
0
220
0
230
1.0
 0
ARC
 8
TOOL_0
 5
84
 10
335.44
 20
699.651
 30
0
 40
59.791392691591
 50
185.736147090083
 51
222.017911442877
210
0
220
0
230
1.0
 0
ARC
 8
TOOL_0
 5
85
 10
646.693
 20
999.825
 30
0
 40
492.176099269357
 50
223.72579954476
 51
225.76737739596
210
0
220
0
230
1.0
 0
ARC
 8
TOOL_0
 5
86
 10
317.084
 20
660.89
 30
0
 40
19.400181854818
 50
224.991646627918
 51
270.0
210
0
220
0
230
1.0
 0
LINE
 8
TOOL_0
 5
87
 10
317.084
 20
641.49
 30
0
 11
470.4
 21
641.49
 31
0
 0
ARC
 8
TOOL_0
 5
88
 10
470.4
 20
656.49
 30
0
 40
15.0
 50
270.0
 51
0
210
0
220
0
230
1.0
 0
LINE
 8
TOOL_0
 5
89
 10
485.4
 20
656.49
 30
0
 11
485.4
 21
663.49
 31
0
 0
ARC
 8
TOOL_0
 5
8A
 10
488.4
 20
663.49
 30
0
 40
3.0
 50
90.0
 51
180.0
210
0
220
0
230
1.0
 0
LINE
 8
TOOL_0
 5
8B
 10
488.4
 20
666.49
 30
0
 11
553.8
 21
666.49
 31
0
 0
ARC
 8
TOOL_0
 5
8C
 10
553.8
 20
663.49
 30
0
 40
3.0
 50
0
 51
90.0
210
0
220
0
230
1.0
 0
LINE
 8
TOOL_0
 5
8D
 10
556.8
 20
663.49
 30
0
 11
556.8
 21
563.29
 31
0
 0
LINE
 8
TOOL_0
 5
8E
 10
556.8
 20
563.29
 30
0
 11
557.312
 21
557.947
 31
0
 0
LINE
 8
TOOL_0
 5
8F
 10
557.312
 20
557.947
 30
0
 11
914.973
 21
774.633
 31
0
 0
LINE
 8
TOOL_0
 5
90
 10
914.973
 20
774.633
 30
0
 11
944.973
 21
774.633
 31
0
 0
LINE
 8
TOOL_0
 5
91
 10
944.973
 20
774.633
 30
0
 11
944.973
 21
804.633
 31
0
 0
ARC
 8
TOOL_0
 5
92
 10
934.973
 20
804.633
 30
0
 40
10.0
 50
0
 51
90.0
210
0
220
0
230
1.0
 0
LINE
 8
TOOL_0
 5
93
 10
934.973
 20
814.633
 30
0
 11
888.973
 21
814.633
 31
0
 0
ARC
 8
TOOL_0
 5
94
 10
888.973
 20
804.633
 30
0
 40
10.0
 50
90.0
 51
180.0
210
0
220
0
230
1.0
 0
LINE
 8
TOOL_0
 5
95
 10
878.973
 20
804.633
 30
0
 11
878.973
 21
744.633
 31
0
 0
ARC
 8
TOOL_0
 5
96
 10
888.973
 20
744.633
 30
0
 40
10.0
 50
180.0
 51
270.0
210
0
220
0
230
1.0
 0
LINE
 8
TOOL_0
 5
97
 10
888.973
 20
734.633
 30
0
 11
934.973
 21
734.633
 31
0
 0
ARC
 8
TOOL_0
 5
98
 10
934.973
 20
744.633
 30
0
 40
10.0
 50
270.0
 51
0
210
0
220
0
230
1.0
 0
LINE
 8
TOOL_0
 5
99
 10
944.973
 20
744.633
 30
0
 11
944.973
 21
774.633
 31
0
 0
LINE
 8
TOOL_0
 5
9A
 10
944.973
 20
774.633
 30
0
 11
941.437
 21
778.169
 31
0
 0
LINE
 8
TOOL_0
 5
9B
 10
941.437
 20
778.169
 30
0
 11
914.972
 21
520.634
 31
0
 0
LINE
 8
TOOL_0
 5
9C
 10
914.972
 20
520.634
 30
0
 11
944.972
 21
520.634
 31
0
 0
LINE
 8
TOOL_0
 5
9D
 10
944.972
 20
520.634
 30
0
 11
944.972
 21
550.634
 31
0
 0
ARC
 8
TOOL_0
 5
9E
 10
934.972
 20
550.634
 30
0
 40
10.0
 50
0
 51
90.0
210
0
220
0
230
1.0
 0
LINE
 8
TOOL_0
 5
9F
 10
934.972
 20
560.634
 30
0
 11
888.972
 21
560.634
 31
0
 0
ARC
 8
TOOL_0
 5
A0
 10
888.972
 20
550.634
 30
0
 40
10.0
 50
90.0
 51
180.0
210
0
220
0
230
1.0
 0
LINE
 8
TOOL_0
 5
A1
 10
878.972
 20
550.634
 30
0
 11
878.972
 21
490.634
 31
0
 0
ARC
 8
TOOL_0
 5
A2
 10
888.972
 20
490.634
 30
0
 40
10.0
 50
180.0
 51
270.0
210
0
220
0
230
1.0
 0
LINE
 8
TOOL_0
 5
A3
 10
888.972
 20
480.634
 30
0
 11
934.972
 21
480.634
 31
0
 0
ARC
 8
TOOL_0
 5
A4
 10
934.972
 20
490.634
 30
0
 40
10.0
 50
270.0
 51
0
210
0
220
0
230
1.0
 0
LINE
 8
TOOL_0
 5
A5
 10
944.972
 20
490.634
 30
0
 11
944.972
 21
520.634
 31
0
 0
LINE
 8
TOOL_0
 5
A6
 10
944.972
 20
520.634
 30
0
 11
941.436
 21
524.17
 31
0
 0
LINE
 8
TOOL_0
 5
A7
 10
941.436
 20
524.17
 30
0
 11
1317.573
 21
611.477
 31
0
 0
LINE
 8
TOOL_0
 5
A8
 10
1317.573
 20
611.477
 30
0
 11
1291.271
 21
597.535
 31
0
 0
ARC
 8
TOOL_0
 5
A9
 10
1288.271
 20
597.535
 30
0
 40
3.0
 50
270.0
 51
0
210
0
220
0
230
1.0
 0
LINE
 8
TOOL_0
 5
AA
 10
1288.271
 20
594.535
 30
0
 11
1222.871
 21
594.535
 31
0
 0
ARC
 8
TOOL_0
 5
AB
 10
1222.871
 20
597.535
 30
0
 40
3.0
 50
180.0
 51
270.0
210
0
220
0
230
1.0
 0
LINE
 8
TOOL_0
 5
AC
 10
1219.871
 20
597.535
 30
0
 11
1219.871
 21
604.535
 31
0
 0
ARC
 8
TOOL_0
 5
AD
 10
1204.871
 20
604.535
 30
0
 40
15.0
 50
0
 51
90.0
210
0
220
0
230
1.0
 0
LINE
 8
TOOL_0
 5
AE
 10
1204.871
 20
619.535
 30
0
 11
1051.555
 21
619.535
 31
0
 0
ARC
 8
TOOL_0
 5
AF
 10
1051.555
 20
600.135
 30
0
 40
19.4
 50
90.0
 51
135.0
210
0
220
0
230
1.0
 0
LINE
 8
TOOL_0
 5
B0
 10
1037.837
 20
613.853
 30
0
 11
1027.559
 21
603.575
 31
0
 0
ARC
 8
TOOL_0
 5
B1
 10
1069.71
 20
561.502
 30
0
 40
59.555387077913
 50
135.053061710728
 51
173.745757649056
210
0
220
0
230
1.0
 0
ARC
 8
TOOL_0
 5
B2
 10
999.971
 20
569.135
 30
0
 40
10.600022122618
 50
270.0
 51
353.798888446262
210
0
220
0
230
1.0
 0
ARC
 8
TOOL_0
 5
B3
 10
999.971
 20
539.135
 30
0
 40
19.4
 50
90.0
 51
180.0
210
0
220
0
230
1.0
 0
LINE
 8
TOOL_0
 5
B4
 10
980.571
 20
539.135
 30
0
 11
980.571
 21
458.485
 31
0
 0
ARC
 8
TOOL_0
 5
B5
 10
977.571
 20
458.485
 30
0
 40
3.0
 50
284.990467215559
 51
0
210
0
220
0
230
1.0
 0
LINE
 8
TOOL_0
 5
B6
 10
978.347
 20
455.587
 30
0
 11
946.953
 21
447.175
 31
0
 0
ARC
 8
TOOL_0
 5
B7
 10
946.177
 20
450.073
 30
0
 40
3.000096665109
 50
195.008913676659
 51
284.990467215559
210
0
220
0
230
1.0
 0
LINE
 8
TOOL_0
 5
B8
 10
943.279
 20
449.296
 30
0
 11
942.787
 21
451.131
 31
0
 0
ARC
 8
TOOL_0
 5
B9
 10
939.889
 20
450.355
 30
0
 40
3.000096665109
 50
14.99046721556
 51
104.995408657676
210
0
220
0
230
1.0
 0
LINE
 8
TOOL_0
 5
BA
 10
939.113
 20
453.252
 30
0
 11
887.339
 21
439.379
 31
0
 0
ARC
 8
TOOL_0
 5
BB
 10
888.115
 20
436.481
 30
0
 40
3.000096665109
 50
104.990467215559
 51
194.995408657676
210
0
220
0
230
1.0
 0
LINE
 8
TOOL_0
 5
BC
 10
885.218
 20
435.705
 30
0
 11
885.71
 21
433.87
 31
0
 0
ARC
 8
TOOL_0
 5
BD
 10
882.812
 20
433.094
 30
0
 40
3.000096665109
 50
285.00891367666
 51
14.99046721556
210
0
220
0
230
1.0
 0
LINE
 8
TOOL_0
 5
BE
 10
883.589
 20
430.196
 30
0
 11
855.916
 21
422.781
 31
0
 0
ARC
 8
TOOL_0
 5
BF
 10
855.191
 20
425.486
 30
0
 40
2.800473174305
 50
195.009200172029
 51
285.003901736897
210
0
220
0
230
1.0
 0
LINE
 8
TOOL_0
 5
C0
 10
852.487
 20
424.761
 30
0
 11
843.171
 21
459.529
 31
0
 0
LINE
 8
TOOL_0
 5
C1
 10
843.171
 20
459.529
 30
0
 11
843.171
 21
555.634
 31
0
 0
ARC
 8
TOOL_0
 5
C2
 10
823.971
 20
555.634
 30
0
 40
19.2
 50
0
 51
55.608896625223
210
0
220
0
230
1.0
 0
LINE
 8
TOOL_0
 5
C3
 10
834.816
 20
571.478
 30
0
 11
819.839
 21
581.73
 31
0
 0
ARC
 8
TOOL_0
 5
C4
 10
803.345
 20
557.635
 30
0
 40
29.199675700254
 50
55.606785125803
 51
87.976512547702
210
0
220
0
230
1.0
 0
ARC
 8
TOOL_0
 5
C5
 10
803.423
 20
637.716
 30
0
 40
50.908920721225
 50
214.740495244391
 51
271.072622767533
210
0
220
0
230
1.0
 0
ARC
 8
TOOL_0
 5
C6
 10
903.775
 20
700.925
 30
0
 40
169.473853428781
 50
208.555470792514
 51
212.966920169158
210
0
220
0
230
1.0
 0
ARC
 8
TOOL_0
 5
C7
 10
764.534
 20
625.385
 30
0
 40
11.063796319528
 50
180.367707176702
 51
209.630545539638
210
0
220
0
230
1.0
 0
LINE
 8
TOOL_0
 5
C8
 10
753.471
 20
625.314
 30
0
 11
753.471
 21
669.955
 31
0
 0
ARC
 8
TOOL_0
 5
C9
 10
764.535
 20
669.884
 30
0
 40
11.064227808573
 50
150.36495319624
 51
179.632326056946
210
0
220
0
230
1.0
 0
LINE
 8
TOOL_0
 5
CA
 10
754.918
 20
675.355
 30
0
 11
759.352
 21
683.034
 31
0
 0
ARC
 8
TOOL_0
 5
CB
 10
803.385
 20
657.569
 30
0
 40
50.866209943341
 50
91.62110342507
 51
149.958506845517
210
0
220
0
230
1.0
 0
ARC
 8
TOOL_0
 5
CC
 10
803.127
 20
738.098
 30
0
 40
29.706484982239
 50
267.721569789111
 51
304.236244747272
210
0
220
0
230
1.0
 0
LINE
 8
TOOL_0
 5
CD
 10
819.84
 20
713.539
 30
0
 11
834.817
 21
723.791
 31
0
 0
ARC
 8
TOOL_0
 5
CE
 10
823.972
 20
739.635
 30
0
 40
19.200165650327
 50
304.391103374777
 51
359.99701584482
210
0
220
0
230
1.0
 0
LINE
 8
TOOL_0
 5
CF
 10
843.172
 20
739.634
 30
0
 11
843.172
 21
835.739
 31
0
 0
LINE
 8
TOOL_0
 5
D0
 10
843.172
 20
835.739
 30
0
 11
852.488
 21
870.507
 31
0
 0
ARC
 8
TOOL_0
 5
D1
 10
855.193
 20
869.782
 30
0
 40
2.800473174305
 50
75.015861915197
 51
164.996098263103
210
0
220
0
230
1.0
 0
LINE
 8
TOOL_0
 5
D2
 10
855.917
 20
872.487
 30
0
 11
883.59
 21
865.072
 31
0
 0
ARC
 8
TOOL_0
 5
D3
 10
882.814
 20
862.174
 30
0
 40
3.000096665109
 50
345.004591342324
 51
75.009532784441
210
0
220
0
230
1.0
 0
LINE
 8
TOOL_0
 5
D4
 10
885.711
 20
861.398
 30
0
 11
885.219
 21
859.563
 31
0
 0
ARC
 8
TOOL_0
 5
D5
 10
888.117
 20
858.787
 30
0
 40
3.000096665109
 50
165.009532784441
 51
254.99108632334
210
0
220
0
230
1.0
 0
LINE
 8
TOOL_0
 5
D6
 10
887.34
 20
855.889
 30
0
 11
939.114
 21
842.016
 31
0
 0
ARC
 8
TOOL_0
 5
D7
 10
939.89
 20
844.914
 30
0
 40
3.000096665109
 50
255.009532784441
 51
344.991086323341
210
0
220
0
230
1.0
 0
LINE
 8
TOOL_0
 5
D8
 10
942.788
 20
844.137
 30
0
 11
943.28
 21
845.972
 31
0
 0
ARC
 8
TOOL_0
 5
D9
 10
946.178
 20
845.196
 30
0
 40
3.000096665109
 50
75.004591342324
 51
165.009532784441
210
0
220
0
230
1.0
 0
LINE
 8
TOOL_0
 5
DA
 10
946.954
 20
848.093
 30
0
 11
978.348
 21
839.681
 31
0
 0
ARC
 8
TOOL_0
 5
DB
 10
977.572
 20
836.783
 30
0
 40
3.000096665109
 50
0
 51
75.009532784441
210
0
220
0
230
1.0
 0
LINE
 8
TOOL_0
 5
DC
 10
980.572
 20
836.783
 30
0
 11
980.572
 21
756.133
 31
0
 0
ARC
 8
TOOL_0
 5
DD
 10
999.972
 20
756.133
 30
0
 40
19.4
 50
180.0
 51
270.0
210
0
220
0
230
1.0
 0
ARC
 8
TOOL_0
 5
DE
 10
999.945
 20
726.101
 30
0
 40
10.63203428324
 50
9.83972311836
 51
89.854497486708
210
0
220
0
230
1.0
 0
ARC
 8
TOOL_0
 5
DF
 10
1069.913
 20
733.894
 30
0
 40
59.791392691591
 50
185.736147090083
 51
222.017911442877
210
0
220
0
230
1.0
 0
ARC
 8
TOOL_0
 5
E0
 10
1381.166
 20
1034.068
 30
0
 40
492.176099269357
 50
223.72579954476
 51
225.76737739596
210
0
220
0
230
1.0
 0
ARC
 8
TOOL_0
 5
E1
 10
1051.557
 20
695.133
 30
0
 40
19.400181854818
 50
224.991646627918
 51
270.0
210
0
220
0
230
1.0
 0
LINE
 8
TOOL_0
 5
E2
 10
1051.557
 20
675.733
 30
0
 11
1204.873
 21
675.733
 31
0
 0
ARC
 8
TOOL_0
 5
E3
 10
1204.873
 20
690.733
 30
0
 40
15.0
 50
270.0
 51
0
210
0
220
0
230
1.0
 0
LINE
 8
TOOL_0
 5
E4
 10
1219.873
 20
690.733
 30
0
 11
1219.873
 21
697.733
 31
0
 0
ARC
 8
TOOL_0
 5
E5
 10
1222.873
 20
697.733
 30
0
 40
3.0
 50
90.0
 51
180.0
210
0
220
0
230
1.0
 0
LINE
 8
TOOL_0
 5
E6
 10
1222.873
 20
700.733
 30
0
 11
1288.273
 21
700.733
 31
0
 0
ARC
 8
TOOL_0
 5
E7
 10
1288.273
 20
697.733
 30
0
 40
3.0
 50
0
 51
90.0
210
0
220
0
230
1.0
 0
LINE
 8
TOOL_0
 5
E8
 10
1291.273
 20
697.733
 30
0
 11
1291.273
 21
597.533
 31
0
 0
LINE
 8
TOOL_0
 5
E9
 10
1291.273
 20
597.533
 30
0
 11
1291.785
 21
592.19
 31
0
 0
LINE
 8
TOOL_0
 5
EA
 10
1291.785
 20
592.19
 30
0
 11
646.756
 21
974.118
 31
0
 0
LINE
 8
TOOL_0
 5
EB
 10
646.756
 20
974.118
 30
0
 11
676.756
 21
974.118
 31
0
 0
LINE
 8
TOOL_0
 5
EC
 10
676.756
 20
974.118
 30
0
 11
676.756
 21
1004.118
 31
0
 0
ARC
 8
TOOL_0
 5
ED
 10
666.756
 20
1004.118
 30
0
 40
10.0
 50
0
 51
90.0
210
0
220
0
230
1.0
 0
LINE
 8
TOOL_0
 5
EE
 10
666.756
 20
1014.118
 30
0
 11
620.756
 21
1014.118
 31
0
 0
ARC
 8
TOOL_0
 5
EF
 10
620.756
 20
1004.118
 30
0
 40
10.0
 50
90.0
 51
180.0
210
0
220
0
230
1.0
 0
LINE
 8
TOOL_0
 5
F0
 10
610.756
 20
1004.118
 30
0
 11
610.756
 21
944.118
 31
0
 0
ARC
 8
TOOL_0
 5
F1
 10
620.756
 20
944.118
 30
0
 40
10.0
 50
180.0
 51
270.0
210
0
220
0
230
1.0
 0
LINE
 8
TOOL_0
 5
F2
 10
620.756
 20
934.118
 30
0
 11
666.756
 21
934.118
 31
0
 0
ARC
 8
TOOL_0
 5
F3
 10
666.756
 20
944.118
 30
0
 40
10.0
 50
270.0
 51
0
210
0
220
0
230
1.0
 0
LINE
 8
TOOL_0
 5
F4
 10
676.756
 20
944.118
 30
0
 11
676.756
 21
974.118
 31
0
 0
LINE
 8
TOOL_0
 5
F5
 10
676.756
 20
974.118
 30
0
 11
673.22
 21
977.654
 31
0
 0
LINE
 8
TOOL_0
 5
F6
 10
673.22
 20
977.654
 30
0
 11
646.756
 21
720.118
 31
0
 0
LINE
 8
TOOL_0
 5
F7
 10
646.756
 20
720.118
 30
0
 11
676.756
 21
720.118
 31
0
 0
LINE
 8
TOOL_0
 5
F8
 10
676.756
 20
720.118
 30
0
 11
676.756
 21
750.118
 31
0
 0
ARC
 8
TOOL_0
 5
F9
 10
666.756
 20
750.118
 30
0
 40
10.0
 50
0
 51
90.0
210
0
220
0
230
1.0
 0
LINE
 8
TOOL_0
 5
FA
 10
666.756
 20
760.118
 30
0
 11
620.756
 21
760.118
 31
0
 0
ARC
 8
TOOL_0
 5
FB
 10
620.756
 20
750.118
 30
0
 40
10.0
 50
90.0
 51
180.0
210
0
220
0
230
1.0
 0
LINE
 8
TOOL_0
 5
FC
 10
610.756
 20
750.118
 30
0
 11
610.756
 21
690.118
 31
0
 0
ARC
 8
TOOL_0
 5
FD
 10
620.756
 20
690.118
 30
0
 40
10.0
 50
180.0
 51
270.0
210
0
220
0
230
1.0
 0
LINE
 8
TOOL_0
 5
FE
 10
620.756
 20
680.118
 30
0
 11
666.756
 21
680.118
 31
0
 0
ARC
 8
TOOL_0
 5
FF
 10
666.756
 20
690.118
 30
0
 40
10.0
 50
270.0
 51
0
210
0
220
0
230
1.0
 0
LINE
 8
TOOL_0
 5
100
 10
676.756
 20
690.118
 30
0
 11
676.756
 21
720.118
 31
0
 0
LINE
 8
TOOL_0
 5
101
 10
676.756
 20
720.118
 30
0
 11
673.22
 21
723.654
 31
0
 0
LINE
 8
TOOL_0
 5
102
 10
673.22
 20
723.654
 30
0
 11
719.102
 21
598.94
 31
0
 0
LINE
 8
TOOL_0
 5
103
 10
719.102
 20
598.94
 30
0
 11
699.81
 21
622.265
 31
0
 0
LINE
 8
TOOL_0
 5
104
 10
699.81
 20
622.265
 30
0
 11
672.137
 21
629.68
 31
0
 0
ARC
 8
TOOL_0
 5
105
 10
672.913
 20
632.578
 30
0
 40
3.000096665109
 50
165.004591342323
 51
255.009532784441
210
0
220
0
230
1.0
 0
LINE
 8
TOOL_0
 5
106
 10
670.016
 20
633.354
 30
0
 11
670.508
 21
635.189
 31
0
 0
ARC
 8
TOOL_0
 5
107
 10
667.61
 20
635.965
 30
0
 40
3.000096665109
 50
345.009532784441
 51
74.991086323341
210
0
220
0
230
1.0
 0
LINE
 8
TOOL_0
 5
108
 10
668.387
 20
638.863
 30
0
 11
616.613
 21
652.736
 31
0
 0
ARC
 8
TOOL_0
 5
109
 10
615.837
 20
649.838
 30
0
 40
3.000096665109
 50
75.009532784441
 51
164.99108632334
210
0
220
0
230
1.0
 0
LINE
 8
TOOL_0
 5
10A
 10
612.939
 20
650.615
 30
0
 11
612.447
 21
648.78
 31
0
 0
ARC
 8
TOOL_0
 5
10B
 10
609.549
 20
649.556
 30
0
 40
3.000096665109
 50
255.004591342323
 51
345.009532784441
210
0
220
0
230
1.0
 0
LINE
 8
TOOL_0
 5
10C
 10
608.773
 20
646.659
 30
0
 11
577.379
 21
655.071
 31
0
 0
ARC
 8
TOOL_0
 5
10D
 10
578.155
 20
657.969
 30
0
 40
3.000096665109
 50
180.0
 51
255.009532784441
210
0
220
0
230
1.0
 0
LINE
 8
TOOL_0
 5
10E
 10
575.155
 20
657.969
 30
0
 11
575.155
 21
738.619
 31
0
 0
ARC
 8
TOOL_0
 5
10F
 10
555.755
 20
738.619
 30
0
 40
19.4
 50
0
 51
90.0
210
0
220
0
230
1.0
 0
ARC
 8
TOOL_0
 5
110
 10
555.782
 20
768.651
 30
0
 40
10.63203428324
 50
189.83972311836
 51
269.854497486707
210
0
220
0
230
1.0
 0
ARC
 8
TOOL_0
 5
111
 10
485.814
 20
760.858
 30
0
 40
59.791392691591
 50
5.736147090083
 51
42.017911442877
210
0
220
0
230
1.0
 0
ARC
 8
TOOL_0
 5
112
 10
174.561
 20
460.684
 30
0
 40
492.176099269357
 50
43.72579954476
 51
45.767625426121
210
0
220
0
230
1.0
 0
ARC
 8
TOOL_0
 5
113
 10
504.17
 20
799.618
 30
0
 40
19.400181648634
 50
45.0
 51
90.0
210
0
220
0
230
1.0
 0
LINE
 8
TOOL_0
 5
114
 10
504.17
 20
819.018
 30
0
 11
350.854
 21
819.018
 31
0
 0
ARC
 8
TOOL_0
 5
115
 10
350.854
 20
804.018
 30
0
 40
15.0
 50
90.0
 51
180.0
210
0
220
0
230
1.0
 0
LINE
 8
TOOL_0
 5
116
 10
335.854
 20
804.018
 30
0
 11
335.854
 21
797.018
 31
0
 0
ARC
 8
TOOL_0
 5
117
 10
332.854
 20
797.018
 30
0
 40
3.0
 50
270.0
 51
0
210
0
220
0
230
1.0
 0
LINE
 8
TOOL_0
 5
118
 10
332.854
 20
794.018
 30
0
 11
267.454
 21
794.018
 31
0
 0
ARC
 8
TOOL_0
 5
119
 10
267.454
 20
797.018
 30
0
 40
3.0
 50
180.0
 51
270.0
210
0
220
0
230
1.0
 0
LINE
 8
TOOL_0
 5
11A
 10
264.454
 20
797.018
 30
0
 11
264.454
 21
897.218
 31
0
 0
ARC
 8
TOOL_0
 5
11B
 10
267.454
 20
897.218
 30
0
 40
3.0
 50
90.0
 51
180.0
210
0
220
0
230
1.0
 0
LINE
 8
TOOL_0
 5
11C
 10
267.454
 20
900.218
 30
0
 11
332.854
 21
900.218
 31
0
 0
ARC
 8
TOOL_0
 5
11D
 10
332.854
 20
897.218
 30
0
 40
3.0
 50
0
 51
90.0
210
0
220
0
230
1.0
 0
LINE
 8
TOOL_0
 5
11E
 10
335.854
 20
897.218
 30
0
 11
335.854
 21
890.218
 31
0
 0
ARC
 8
TOOL_0
 5
11F
 10
350.854
 20
890.218
 30
0
 40
15.0
 50
180.0
 51
270.0
210
0
220
0
230
1.0
 0
LINE
 8
TOOL_0
 5
120
 10
350.854
 20
875.218
 30
0
 11
504.17
 21
875.218
 31
0
 0
ARC
 8
TOOL_0
 5
121
 10
504.17
 20
894.618
 30
0
 40
19.4
 50
270.0
 51
315.0
210
0
220
0
230
1.0
 0
LINE
 8
TOOL_0
 5
122
 10
517.888
 20
880.9
 30
0
 11
528.166
 21
891.178
 31
0
 0
ARC
 8
TOOL_0
 5
123
 10
486.015
 20
933.251
 30
0
 40
59.555387077913
 50
315.053061710728
 51
353.744801319129
210
0
220
0
230
1.0
 0
ARC
 8
TOOL_0
 5
124
 10
555.754
 20
925.617
 30
0
 40
10.600022122618
 50
90.0
 51
173.798888446261
210
0
220
0
230
1.0
 0
ARC
 8
TOOL_0
 5
125
 10
555.754
 20
955.617
 30
0
 40
19.4
 50
270.0
 51
0
210
0
220
0
230
1.0
 0
LINE
 8
TOOL_0
 5
126
 10
575.154
 20
955.617
 30
0
 11
575.154
 21
1036.267
 31
0
 0
ARC
 8
TOOL_0
 5
127
 10
578.154
 20
1036.267
 30
0
 40
3.0
 50
104.990467215559
 51
180.0
210
0
220
0
230
1.0
 0
LINE
 8
TOOL_0
 5
128
 10
577.378
 20
1039.165
 30
0
 11
608.772
 21
1047.577
 31
0
 0
ARC
 8
TOOL_0
 5
129
 10
609.548
 20
1044.679
 30
0
 40
3.000096665109
 50
15.008913676655
 51
104.990467215559
210
0
220
0
230
1.0
 0
LINE
 8
TOOL_0
 5
12A
 10
612.446
 20
1045.456
 30
0
 11
612.938
 21
1043.621
 31
0
 0
ARC
 8
TOOL_0
 5
12B
 10
615.836
 20
1044.397
 30
0
 40
3.000096665109
 50
194.990467215561
 51
284.995408657675
210
0
220
0
230
1.0
 0
LINE
 8
TOOL_0
 5
12C
 10
616.612
 20
1041.5
 30
0
 11
668.386
 21
1055.373
 31
0
 0
ARC
 8
TOOL_0
 5
12D
 10
667.61
 20
1058.271
 30
0
 40
3.000096665109
 50
284.990467215559
 51
14.995408657679
210
0
220
0
230
1.0
 0
LINE
 8
TOOL_0
 5
12E
 10
670.507
 20
1059.047
 30
0
 11
670.015
 21
1060.882
 31
0
 0
ARC
 8
TOOL_0
 5
12F
 10
672.913
 20
1061.658
 30
0
 40
3.000096665109
 50
105.00891367666
 51
194.990467215561
210
0
220
0
230
1.0
 0
LINE
 8
TOOL_0
 5
130
 10
672.136
 20
1064.556
 30
0
 11
699.809
 21
1071.971
 31
0
 0
ARC
 8
TOOL_0
 5
131
 10
700.534
 20
1069.266
 30
0
 40
2.800473174305
 50
15.009200172028
 51
105.003901736897
210
0
220
0
230
1.0
 0
LINE
 8
TOOL_0
 5
132
 10
703.238
 20
1069.991
 30
0
 11
712.554
 21
1035.223
 31
0
 0
LINE
 8
TOOL_0
 5
133
 10
712.554
 20
1035.223
 30
0
 11
712.554
 21
939.118
 31
0
 0
ARC
 8
TOOL_0
 5
134
 10
731.754
 20
939.118
 30
0
 40
19.2
 50
180.0
 51
235.608896625223
210
0
220
0
230
1.0
 0
LINE
 8
TOOL_0
 5
135
 10
720.909
 20
923.274
 30
0
 11
735.886
 21
913.022
 31
0
 0
ARC
 8
TOOL_0
 5
136
 10
752.38
 20
937.117
 30
0
 40
29.199675700254
 50
235.606785125802
 51
267.976512547702
210
0
220
0
230
1.0
 0
ARC
 8
TOOL_0
 5
137
 10
752.302
 20
857.036
 30
0
 40
50.908920721225
 50
34.740495244392
 51
91.072622767533
210
0
220
0
230
1.0
 0
ARC
 8
TOOL_0
 5
138
 10
651.95
 20
793.827
 30
0
 40
169.473853428781
 50
28.555767746478
 51
32.966920169159
210
0
220
0
230
1.0
 0
ARC
 8
TOOL_0
 5
139
 10
791.191
 20
869.367
 30
0
 40
11.064290759014
 50
0.367673943054
 51
29.635046803759
210
0
220
0
230
1.0
 0
LINE
 8
TOOL_0
 5
13A
 10
802.255
 20
869.438
 30
0
 11
802.255
 21
824.797
 31
0
 0
ARC
 8
TOOL_0
 5
13B
 10
791.191
 20
824.868
 30
0
 40
11.064227808573
 50
330.364953196241
 51
359.632326056946
210
0
220
0
230
1.0
 0
LINE
 8
TOOL_0
 5
13C
 10
800.808
 20
819.397
 30
0
 11
796.374
 21
811.718
 31
0
 0
ARC
 8
TOOL_0
 5
13D
 10
752.341
 20
837.183
 30
0
 40
50.866209943341
 50
271.619977476978
 51
329.958506845517
210
0
220
0
230
1.0
 0
ARC
 8
TOOL_0
 5
13E
 10
752.598
 20
756.654
 30
0
 40
29.706484982239
 50
87.721569789111
 51
124.234650182548
210
0
220
0
230
1.0
 0
LINE
 8
TOOL_0
 5
13F
 10
735.886
 20
781.213
 30
0
 11
720.909
 21
770.961
 31
0
 0
ARC
 8
TOOL_0
 5
140
 10
731.754
 20
755.117
 30
0
 40
19.200165650327
 50
124.391103374777
 51
180.0
210
0
220
0
230
1.0
 0
LINE
 8
TOOL_0
 5
141
 10
712.554
 20
755.117
 30
0
 11
712.554
 21
659.012
 31
0
 0
LINE
 8
TOOL_0
 5
142
 10
712.554
 20
659.012
 30
0
 11
703.238
 21
624.244
 31
0
 0
ARC
 8
TOOL_0
 5
143
 10
700.533
 20
624.969
 30
0
 40
2.800473174305
 50
255.015861915197
 51
344.996098263103
210
0
220
0
230
1.0
 0
LINE
 8
TOOL_0
 5
144
 10
699.809
 20
622.264
 30
0
 11
694.924
 21
621.13
 31
0
 0
LINE
 8
TOOL_0
 5
145
 10
694.924
 20
621.13
 30
0
 11
1630.239
 21
370.546
 31
0
 0
LINE
 8
TOOL_0
 5
146
 10
1630.239
 20
370.546
 30
0
 11
1660.239
 21
370.546
 31
0
 0
LINE
 8
TOOL_0
 5
147
 10
1660.239
 20
370.546
 30
0
 11
1660.239
 21
400.546
 31
0
 0
ARC
 8
TOOL_0
 5
148
 10
1650.239
 20
400.546
 30
0
 40
10.0
 50
0
 51
90.0
210
0
220
0
230
1.0
 0
LINE
 8
TOOL_0
 5
149
 10
1650.239
 20
410.546
 30
0
 11
1604.239
 21
410.546
 31
0
 0
ARC
 8
TOOL_0
 5
14A
 10
1604.239
 20
400.546
 30
0
 40
10.0
 50
90.0
 51
180.0
210
0
220
0
230
1.0
 0
LINE
 8
TOOL_0
 5
14B
 10
1594.239
 20
400.546
 30
0
 11
1594.239
 21
340.546
 31
0
 0
ARC
 8
TOOL_0
 5
14C
 10
1604.239
 20
340.546
 30
0
 40
10.0
 50
180.0
 51
270.0
210
0
220
0
230
1.0
 0
LINE
 8
TOOL_0
 5
14D
 10
1604.239
 20
330.546
 30
0
 11
1650.239
 21
330.546
 31
0
 0
ARC
 8
TOOL_0
 5
14E
 10
1650.239
 20
340.546
 30
0
 40
10.0
 50
270.0
 51
0
210
0
220
0
230
1.0
 0
LINE
 8
TOOL_0
 5
14F
 10
1660.239
 20
340.546
 30
0
 11
1660.239
 21
370.546
 31
0
 0
LINE
 8
TOOL_0
 5
150
 10
1660.239
 20
370.546
 30
0
 11
1656.703
 21
374.082
 31
0
 0
LINE
 8
TOOL_0
 5
151
 10
1656.703
 20
374.082
 30
0
 11
1630.238
 21
116.546
 31
0
 0
LINE
 8
TOOL_0
 5
152
 10
1630.238
 20
116.546
 30
0
 11
1660.238
 21
116.546
 31
0
 0
LINE
 8
TOOL_0
 5
153
 10
1660.238
 20
116.546
 30
0
 11
1660.238
 21
146.546
 31
0
 0
ARC
 8
TOOL_0
 5
154
 10
1650.238
 20
146.546
 30
0
 40
10.0
 50
0
 51
90.0
210
0
220
0
230
1.0
 0
LINE
 8
TOOL_0
 5
155
 10
1650.238
 20
156.546
 30
0
 11
1604.238
 21
156.546
 31
0
 0
ARC
 8
TOOL_0
 5
156
 10
1604.238
 20
146.546
 30
0
 40
10.0
 50
90.0
 51
180.0
210
0
220
0
230
1.0
 0
LINE
 8
TOOL_0
 5
157
 10
1594.238
 20
146.546
 30
0
 11
1594.238
 21
86.546
 31
0
 0
ARC
 8
TOOL_0
 5
158
 10
1604.238
 20
86.546
 30
0
 40
10.0
 50
180.0
 51
270.0
210
0
220
0
230
1.0
 0
LINE
 8
TOOL_0
 5
159
 10
1604.238
 20
76.546
 30
0
 11
1650.238
 21
76.546
 31
0
 0
ARC
 8
TOOL_0
 5
15A
 10
1650.238
 20
86.546
 30
0
 40
10.0
 50
270.0
 51
0
210
0
220
0
230
1.0
 0
LINE
 8
TOOL_0
 5
15B
 10
1660.238
 20
86.546
 30
0
 11
1660.238
 21
116.546
 31
0
 0
LINE
 8
TOOL_0
 5
15C
 10
1660.238
 20
116.546
 30
0
 11
1656.702
 21
120.082
 31
0
 0
LINE
 8
TOOL_0
 5
15D
 10
1656.702
 20
120.082
 30
0
 11
2032.839
 21
207.389
 31
0
 0
LINE
 8
TOOL_0
 5
15E
 10
2032.839
 20
207.389
 30
0
 11
2006.537
 21
193.446
 31
0
 0
ARC
 8
TOOL_0
 5
15F
 10
2003.537
 20
193.446
 30
0
 40
3.0
 50
270.0
 51
0
210
0
220
0
230
1.0
 0
LINE
 8
TOOL_0
 5
160
 10
2003.537
 20
190.446
 30
0
 11
1938.137
 21
190.446
 31
0
 0
ARC
 8
TOOL_0
 5
161
 10
1938.137
 20
193.446
 30
0
 40
3.0
 50
180.0
 51
270.0
210
0
220
0
230
1.0
 0
LINE
 8
TOOL_0
 5
162
 10
1935.137
 20
193.446
 30
0
 11
1935.137
 21
200.446
 31
0
 0
ARC
 8
TOOL_0
 5
163
 10
1920.137
 20
200.446
 30
0
 40
15.0
 50
0
 51
90.0
210
0
220
0
230
1.0
 0
LINE
 8
TOOL_0
 5
164
 10
1920.137
 20
215.446
 30
0
 11
1766.821
 21
215.446
 31
0
 0
ARC
 8
TOOL_0
 5
165
 10
1766.821
 20
196.046
 30
0
 40
19.4
 50
90.0
 51
135.0
210
0
220
0
230
1.0
 0
LINE
 8
TOOL_0
 5
166
 10
1753.103
 20
209.764
 30
0
 11
1742.825
 21
199.486
 31
0
 0
ARC
 8
TOOL_0
 5
167
 10
1784.976
 20
157.413
 30
0
 40
59.555387077913
 50
135.053061710728
 51
173.745757649056
210
0
220
0
230
1.0
 0
ARC
 8
TOOL_0
 5
168
 10
1715.237
 20
165.046
 30
0
 40
10.600022122618
 50
270.0
 51
353.798888446261
210
0
220
0
230
1.0
 0
ARC
 8
TOOL_0
 5
169
 10
1715.237
 20
135.046
 30
0
 40
19.4
 50
90.0
 51
180.0
210
0
220
0
230
1.0
 0
LINE
 8
TOOL_0
 5
16A
 10
1695.837
 20
135.046
 30
0
 11
1695.837
 21
54.396
 31
0
 0
ARC
 8
TOOL_0
 5
16B
 10
1692.837
 20
54.396
 30
0
 40
3.0
 50
284.990467215561
 51
0
210
0
220
0
230
1.0
 0
LINE
 8
TOOL_0
 5
16C
 10
1693.613
 20
51.498
 30
0
 11
1662.219
 21
43.086
 31
0
 0
ARC
 8
TOOL_0
 5
16D
 10
1661.443
 20
45.984
 30
0
 40
3.000096665109
 50
195.008913676659
 51
284.990467215561
210
0
220
0
230
1.0
 0
LINE
 8
TOOL_0
 5
16E
 10
1658.545
 20
45.207
 30
0
 11
1658.053
 21
47.042
 31
0
 0
ARC
 8
TOOL_0
 5
16F
 10
1655.155
 20
46.266
 30
0
 40
3.000096665109
 50
14.99046721556
 51
104.995408657678
210
0
220
0
230
1.0
 0
LINE
 8
TOOL_0
 5
170
 10
1654.379
 20
49.163
 30
0
 11
1602.605
 21
35.29
 31
0
 0
ARC
 8
TOOL_0
 5
171
 10
1603.381
 20
32.392
 30
0
 40
3.000096665109
 50
104.990467215561
 51
194.995408657676
210
0
220
0
230
1.0
 0
LINE
 8
TOOL_0
 5
172
 10
1600.484
 20
31.616
 30
0
 11
1600.976
 21
29.781
 31
0
 0
ARC
 8
TOOL_0
 5
173
 10
1598.078
 20
29.005
 30
0
 40
3.000096665109
 50
285.008913676655
 51
14.99046721556
210
0
220
0
230
1.0
 0
LINE
 8
TOOL_0
 5
174
 10
1598.855
 20
26.107
 30
0
 11
1571.182
 21
18.692
 31
0
 0
ARC
 8
TOOL_0
 5
175
 10
1570.457
 20
21.397
 30
0
 40
2.800473174305
 50
195.009200172029
 51
285.003901736895
210
0
220
0
230
1.0
 0
LINE
 8
TOOL_0
 5
176
 10
1567.753
 20
20.672
 30
0
 11
1558.437
 21
55.44
 31
0
 0
LINE
 8
TOOL_0
 5
177
 10
1558.437
 20
55.44
 30
0
 11
1558.437
 21
151.545
 31
0
 0
ARC
 8
TOOL_0
 5
178
 10
1539.237
 20
151.545
 30
0
 40
19.2
 50
0
 51
55.608896625223
210
0
220
0
230
1.0
 0
LINE
 8
TOOL_0
 5
179
 10
1550.082
 20
167.389
 30
0
 11
1535.105
 21
177.641
 31
0
 0
ARC
 8
TOOL_0
 5
17A
 10
1518.611
 20
153.546
 30
0
 40
29.199675700254
 50
55.606785125803
 51
87.976512547702
210
0
220
0
230
1.0
 0
ARC
 8
TOOL_0
 5
17B
 10
1518.689
 20
233.627
 30
0
 40
50.908920721225
 50
214.740495244391
 51
271.072622767533
210
0
220
0
230
1.0
 0
ARC
 8
TOOL_0
 5
17C
 10
1619.041
 20
296.836
 30
0
 40
169.473853428781
 50
208.555470792514
 51
212.966920169158
210
0
220
0
230
1.0
 0
ARC
 8
TOOL_0
 5
17D
 10
1479.8
 20
221.296
 30
0
 40
11.063796319528
 50
180.367707176702
 51
209.630545539638
210
0
220
0
230
1.0
 0
LINE
 8
TOOL_0
 5
17E
 10
1468.737
 20
221.225
 30
0
 11
1468.737
 21
265.866
 31
0
 0
ARC
 8
TOOL_0
 5
17F
 10
1479.801
 20
265.795
 30
0
 40
11.064227808573
 50
150.364953196241
 51
179.632326056946
210
0
220
0
230
1.0
 0
LINE
 8
TOOL_0
 5
180
 10
1470.184
 20
271.266
 30
0
 11
1474.618
 21
278.945
 31
0
 0
ARC
 8
TOOL_0
 5
181
 10
1518.651
 20
253.48
 30
0
 40
50.866209943341
 50
91.62110342507
 51
149.958506845517
210
0
220
0
230
1.0
 0
ARC
 8
TOOL_0
 5
182
 10
1518.393
 20
334.009
 30
0
 40
29.706484982239
 50
267.721569789111
 51
304.236244747272
210
0
220
0
230
1.0
 0
LINE
 8
TOOL_0
 5
183
 10
1535.106
 20
309.45
 30
0
 11
1550.083
 21
319.702
 31
0
 0
ARC
 8
TOOL_0
 5
184
 10
1539.238
 20
335.546
 30
0
 40
19.200165650327
 50
304.391103374777
 51
359.99701584482
210
0
220
0
230
1.0
 0
LINE
 8
TOOL_0
 5
185
 10
1558.438
 20
335.545
 30
0
 11
1558.438
 21
431.65
 31
0
 0
LINE
 8
TOOL_0
 5
186
 10
1558.438
 20
431.65
 30
0
 11
1567.754
 21
466.418
 31
0
 0
ARC
 8
TOOL_0
 5
187
 10
1570.459
 20
465.693
 30
0
 40
2.800473174305
 50
75.015861915193
 51
164.996098263102
210
0
220
0
230
1.0
 0
LINE
 8
TOOL_0
 5
188
 10
1571.183
 20
468.398
 30
0
 11
1598.856
 21
460.983
 31
0
 0
ARC
 8
TOOL_0
 5
189
 10
1598.08
 20
458.085
 30
0
 40
3.000096665109
 50
345.004591342325
 51
75.009532784439
210
0
220
0
230
1.0
 0
LINE
 8
TOOL_0
 5
18A
 10
1600.977
 20
457.309
 30
0
 11
1600.485
 21
455.474
 31
0
 0
ARC
 8
TOOL_0
 5
18B
 10
1603.383
 20
454.698
 30
0
 40
3.000096665109
 50
165.009532784439
 51
254.991086323344
210
0
220
0
230
1.0
 0
LINE
 8
TOOL_0
 5
18C
 10
1602.606
 20
451.8
 30
0
 11
1654.38
 21
437.927
 31
0
 0
ARC
 8
TOOL_0
 5
18D
 10
1655.156
 20
440.825
 30
0
 40
3.000096665109
 50
255.009532784439
 51
344.99108632334
210
0
220
0
230
1.0
 0
LINE
 8
TOOL_0
 5
18E
 10
1658.054
 20
440.048
 30
0
 11
1658.546
 21
441.883
 31
0
 0
ARC
 8
TOOL_0
 5
18F
 10
1661.444
 20
441.107
 30
0
 40
3.000096665109
 50
75.004591342322
 51
165.009532784439
210
0
220
0
230
1.0
 0
LINE
 8
TOOL_0
 5
190
 10
1662.22
 20
444.004
 30
0
 11
1693.614
 21
435.592
 31
0
 0
ARC
 8
TOOL_0
 5
191
 10
1692.838
 20
432.694
 30
0
 40
3.000096665109
 50
0
 51
75.009532784439
210
0
220
0
230
1.0
 0
LINE
 8
TOOL_0
 5
192
 10
1695.838
 20
432.694
 30
0
 11
1695.838
 21
352.044
 31
0
 0
ARC
 8
TOOL_0
 5
193
 10
1715.238
 20
352.044
 30
0
 40
19.4
 50
180.0
 51
270.0
210
0
220
0
230
1.0
 0
ARC
 8
TOOL_0
 5
194
 10
1715.211
 20
322.012
 30
0
 40
10.63203428324
 50
9.83972311836
 51
89.854497486708
210
0
220
0
230
1.0
 0
ARC
 8
TOOL_0
 5
195
 10
1785.179
 20
329.805
 30
0
 40
59.791392691591
 50
185.736147090083
 51
222.017911442877
210
0
220
0
230
1.0
 0
ARC
 8
TOOL_0
 5
196
 10
2096.432
 20
629.979
 30
0
 40
492.176099269357
 50
223.72579954476
 51
225.767377395961
210
0
220
0
230
1.0
 0
ARC
 8
TOOL_0
 5
197
 10
1766.823
 20
291.044
 30
0
 40
19.400181854818
 50
224.991646627918
 51
270.0
210
0
220
0
230
1.0
 0
LINE
 8
TOOL_0
 5
198
 10
1766.823
 20
271.644
 30
0
 11
1920.139
 21
271.644
 31
0
 0
ARC
 8
TOOL_0
 5
199
 10
1920.139
 20
286.644
 30
0
 40
15.0
 50
270.0
 51
0
210
0
220
0
230
1.0
 0
LINE
 8
TOOL_0
 5
19A
 10
1935.139
 20
286.644
 30
0
 11
1935.139
 21
293.644
 31
0
 0
ARC
 8
TOOL_0
 5
19B
 10
1938.139
 20
293.644
 30
0
 40
3.0
 50
90.0
 51
180.0
210
0
220
0
230
1.0
 0
LINE
 8
TOOL_0
 5
19C
 10
1938.139
 20
296.644
 30
0
 11
2003.539
 21
296.644
 31
0
 0
ARC
 8
TOOL_0
 5
19D
 10
2003.539
 20
293.644
 30
0
 40
3.0
 50
0
 51
90.0
210
0
220
0
230
1.0
 0
LINE
 8
TOOL_0
 5
19E
 10
2006.539
 20
293.644
 30
0
 11
2006.539
 21
193.444
 31
0
 0
LINE
 8
TOOL_0
 5
19F
 10
2006.539
 20
193.444
 30
0
 11
2007.051
 21
188.101
 31
0
 0
LINE
 8
TOOL_0
 5
1A0
 10
2007.051
 20
188.101
 30
0
 11
1384.647
 21
999.598
 31
0
 0
LINE
 8
TOOL_0
 5
1A1
 10
1384.647
 20
999.598
 30
0
 11
1414.647
 21
999.598
 31
0
 0
LINE
 8
TOOL_0
 5
1A2
 10
1414.647
 20
999.598
 30
0
 11
1414.647
 21
1029.598
 31
0
 0
ARC
 8
TOOL_0
 5
1A3
 10
1404.647
 20
1029.598
 30
0
 40
10.0
 50
0
 51
90.0
210
0
220
0
230
1.0
 0
LINE
 8
TOOL_0
 5
1A4
 10
1404.647
 20
1039.598
 30
0
 11
1358.647
 21
1039.598
 31
0
 0
ARC
 8
TOOL_0
 5
1A5
 10
1358.647
 20
1029.598
 30
0
 40
10.0
 50
90.0
 51
180.0
210
0
220
0
230
1.0
 0
LINE
 8
TOOL_0
 5
1A6
 10
1348.647
 20
1029.598
 30
0
 11
1348.647
 21
969.598
 31
0
 0
ARC
 8
TOOL_0
 5
1A7
 10
1358.647
 20
969.598
 30
0
 40
10.0
 50
180.0
 51
270.0
210
0
220
0
230
1.0
 0
LINE
 8
TOOL_0
 5
1A8
 10
1358.647
 20
959.598
 30
0
 11
1404.647
 21
959.598
 31
0
 0
ARC
 8
TOOL_0
 5
1A9
 10
1404.647
 20
969.598
 30
0
 40
10.0
 50
270.0
 51
0
210
0
220
0
230
1.0
 0
LINE
 8
TOOL_0
 5
1AA
 10
1414.647
 20
969.598
 30
0
 11
1414.647
 21
999.598
 31
0
 0
LINE
 8
TOOL_0
 5
1AB
 10
1414.647
 20
999.598
 30
0
 11
1411.111
 21
1003.134
 31
0
 0
LINE
 8
TOOL_0
 5
1AC
 10
1411.111
 20
1003.134
 30
0
 11
1384.646
 21
745.598
 31
0
 0
LINE
 8
TOOL_0
 5
1AD
 10
1384.646
 20
745.598
 30
0
 11
1414.646
 21
745.598
 31
0
 0
LINE
 8
TOOL_0
 5
1AE
 10
1414.646
 20
745.598
 30
0
 11
1414.646
 21
775.598
 31
0
 0
ARC
 8
TOOL_0
 5
1AF
 10
1404.646
 20
775.598
 30
0
 40
10.0
 50
0
 51
90.0
210
0
220
0
230
1.0
 0
LINE
 8
TOOL_0
 5
1B0
 10
1404.646
 20
785.598
 30
0
 11
1358.646
 21
785.598
 31
0
 0
ARC
 8
TOOL_0
 5
1B1
 10
1358.646
 20
775.598
 30
0
 40
10.0
 50
90.0
 51
180.0
210
0
220
0
230
1.0
 0
LINE
 8
TOOL_0
 5
1B2
 10
1348.646
 20
775.598
 30
0
 11
1348.646
 21
715.598
 31
0
 0
ARC
 8
TOOL_0
 5
1B3
 10
1358.646
 20
715.598
 30
0
 40
10.0
 50
180.0
 51
270.0
210
0
220
0
230
1.0
 0
LINE
 8
TOOL_0
 5
1B4
 10
1358.646
 20
705.598
 30
0
 11
1404.646
 21
705.598
 31
0
 0
ARC
 8
TOOL_0
 5
1B5
 10
1404.646
 20
715.598
 30
0
 40
10.0
 50
270.0
 51
0
210
0
220
0
230
1.0
 0
LINE
 8
TOOL_0
 5
1B6
 10
1414.646
 20
715.598
 30
0
 11
1414.646
 21
745.598
 31
0
 0
LINE
 8
TOOL_0
 5
1B7
 10
1414.646
 20
745.598
 30
0
 11
1411.11
 21
749.134
 31
0
 0
LINE
 8
TOOL_0
 5
1B8
 10
1411.11
 20
749.134
 30
0
 11
1456.992
 21
624.42
 31
0
 0
LINE
 8
TOOL_0
 5
1B9
 10
1456.992
 20
624.42
 30
0
 11
1437.7
 21
647.745
 31
0
 0
LINE
 8
TOOL_0
 5
1BA
 10
1437.7
 20
647.745
 30
0
 11
1410.027
 21
655.16
 31
0
 0
ARC
 8
TOOL_0
 5
1BB
 10
1410.803
 20
658.058
 30
0
 40
3.000096665109
 50
165.004591342325
 51
255.009532784439
210
0
220
0
230
1.0
 0
LINE
 8
TOOL_0
 5
1BC
 10
1407.906
 20
658.834
 30
0
 11
1408.398
 21
660.669
 31
0
 0
ARC
 8
TOOL_0
 5
1BD
 10
1405.5
 20
661.445
 30
0
 40
3.000096665109
 50
345.009532784441
 51
74.991086323345
210
0
220
0
230
1.0
 0
LINE
 8
TOOL_0
 5
1BE
 10
1406.277
 20
664.343
 30
0
 11
1354.503
 21
678.216
 31
0
 0
ARC
 8
TOOL_0
 5
1BF
 10
1353.727
 20
675.318
 30
0
 40
3.000096665109
 50
75.009532784439
 51
164.99108632334
210
0
220
0
230
1.0
 0
LINE
 8
TOOL_0
 5
1C0
 10
1350.829
 20
676.095
 30
0
 11
1350.337
 21
674.26
 31
0
 0
ARC
 8
TOOL_0
 5
1C1
 10
1347.439
 20
675.036
 30
0
 40
3.000096665109
 50
255.004591342321
 51
345.009532784441
210
0
220
0
230
1.0
 0
LINE
 8
TOOL_0
 5
1C2
 10
1346.663
 20
672.139
 30
0
 11
1315.269
 21
680.551
 31
0
 0
ARC
 8
TOOL_0
 5
1C3
 10
1316.045
 20
683.449
 30
0
 40
3.000096665109
 50
180.0
 51
255.009532784439
210
0
220
0
230
1.0
 0
LINE
 8
TOOL_0
 5
1C4
 10
1313.045
 20
683.449
 30
0
 11
1313.045
 21
764.099
 31
0
 0
ARC
 8
TOOL_0
 5
1C5
 10
1293.645
 20
764.099
 30
0
 40
19.4
 50
0
 51
90.0
210
0
220
0
230
1.0
 0
ARC
 8
TOOL_0
 5
1C6
 10
1293.672
 20
794.131
 30
0
 40
10.63203428324
 50
189.839723118359
 51
269.854497486707
210
0
220
0
230
1.0
 0
ARC
 8
TOOL_0
 5
1C7
 10
1223.704
 20
786.338
 30
0
 40
59.791392691591
 50
5.736147090083
 51
42.017911442877
210
0
220
0
230
1.0
 0
ARC
 8
TOOL_0
 5
1C8
 10
912.451
 20
486.164
 30
0
 40
492.176099269357
 50
43.72579954476
 51
45.767625426121
210
0
220
0
230
1.0
 0
ARC
 8
TOOL_0
 5
1C9
 10
1242.06
 20
825.098
 30
0
 40
19.400181648634
 50
45.0
 51
90.0
210
0
220
0
230
1.0
 0
LINE
 8
TOOL_0
 5
1CA
 10
1242.06
 20
844.498
 30
0
 11
1088.744
 21
844.498
 31
0
 0
ARC
 8
TOOL_0
 5
1CB
 10
1088.744
 20
829.498
 30
0
 40
15.0
 50
90.0
 51
180.0
210
0
220
0
230
1.0
 0
LINE
 8
TOOL_0
 5
1CC
 10
1073.744
 20
829.498
 30
0
 11
1073.744
 21
822.498
 31
0
 0
ARC
 8
TOOL_0
 5
1CD
 10
1070.744
 20
822.498
 30
0
 40
3.0
 50
270.0
 51
0
210
0
220
0
230
1.0
 0
LINE
 8
TOOL_0
 5
1CE
 10
1070.744
 20
819.498
 30
0
 11
1005.344
 21
819.498
 31
0
 0
ARC
 8
TOOL_0
 5
1CF
 10
1005.344
 20
822.498
 30
0
 40
3.0
 50
180.0
 51
270.0
210
0
220
0
230
1.0
 0
LINE
 8
TOOL_0
 5
1D0
 10
1002.344
 20
822.498
 30
0
 11
1002.344
 21
922.698
 31
0
 0
ARC
 8
TOOL_0
 5
1D1
 10
1005.344
 20
922.698
 30
0
 40
3.0
 50
90.0
 51
180.0
210
0
220
0
230
1.0
 0
LINE
 8
TOOL_0
 5
1D2
 10
1005.344
 20
925.698
 30
0
 11
1070.744
 21
925.698
 31
0
 0
ARC
 8
TOOL_0
 5
1D3
 10
1070.744
 20
922.698
 30
0
 40
3.0
 50
0
 51
90.0
210
0
220
0
230
1.0
 0
LINE
 8
TOOL_0
 5
1D4
 10
1073.744
 20
922.698
 30
0
 11
1073.744
 21
915.698
 31
0
 0
ARC
 8
TOOL_0
 5
1D5
 10
1088.744
 20
915.698
 30
0
 40
15.0
 50
180.0
 51
270.0
210
0
220
0
230
1.0
 0
LINE
 8
TOOL_0
 5
1D6
 10
1088.744
 20
900.698
 30
0
 11
1242.06
 21
900.698
 31
0
 0
ARC
 8
TOOL_0
 5
1D7
 10
1242.06
 20
920.098
 30
0
 40
19.4
 50
270.0
 51
315.0
210
0
220
0
230
1.0
 0
LINE
 8
TOOL_0
 5
1D8
 10
1255.778
 20
906.38
 30
0
 11
1266.056
 21
916.658
 31
0
 0
ARC
 8
TOOL_0
 5
1D9
 10
1223.905
 20
958.731
 30
0
 40
59.555387077913
 50
315.053061710728
 51
353.744801319129
210
0
220
0
230
1.0
 0
ARC
 8
TOOL_0
 5
1DA
 10
1293.644
 20
951.097
 30
0
 40
10.600022122618
 50
90.0
 51
173.798888446261
210
0
220
0
230
1.0
 0
ARC
 8
TOOL_0
 5
1DB
 10
1293.644
 20
981.097
 30
0
 40
19.4
 50
270.0
 51
0
210
0
220
0
230
1.0
 0
LINE
 8
TOOL_0
 5
1DC
 10
1313.044
 20
981.097
 30
0
 11
1313.044
 21
1061.747
 31
0
 0
ARC
 8
TOOL_0
 5
1DD
 10
1316.044
 20
1061.747
 30
0
 40
3.0
 50
104.990467215561
 51
180.0
210
0
220
0
230
1.0
 0
LINE
 8
TOOL_0
 5
1DE
 10
1315.268
 20
1064.645
 30
0
 11
1346.662
 21
1073.057
 31
0
 0
ARC
 8
TOOL_0
 5
1DF
 10
1347.438
 20
1070.159
 30
0
 40
3.000096665109
 50
15.008913676656
 51
104.990467215561
210
0
220
0
230
1.0
 0
LINE
 8
TOOL_0
 5
1E0
 10
1350.336
 20
1070.936
 30
0
 11
1350.828
 21
1069.101
 31
0
 0
ARC
 8
TOOL_0
 5
1E1
 10
1353.726
 20
1069.877
 30
0
 40
3.000096665109
 50
194.990467215561
 51
284.995408657677
210
0
220
0
230
1.0
 0
LINE
 8
TOOL_0
 5
1E2
 10
1354.502
 20
1066.98
 30
0
 11
1406.276
 21
1080.853
 31
0
 0
ARC
 8
TOOL_0
 5
1E3
 10
1405.5
 20
1083.751
 30
0
 40
3.000096665109
 50
284.990467215562
 51
14.995408657677
210
0
220
0
230
1.0
 0
LINE
 8
TOOL_0
 5
1E4
 10
1408.397
 20
1084.527
 30
0
 11
1407.905
 21
1086.362
 31
0
 0
ARC
 8
TOOL_0
 5
1E5
 10
1410.803
 20
1087.138
 30
0
 40
3.000096665109
 50
105.008913676656
 51
194.990467215561
210
0
220
0
230
1.0
 0
LINE
 8
TOOL_0
 5
1E6
 10
1410.026
 20
1090.036
 30
0
 11
1437.699
 21
1097.451
 31
0
 0
ARC
 8
TOOL_0
 5
1E7
 10
1438.424
 20
1094.746
 30
0
 40
2.800473174305
 50
15.009200172027
 51
105.003901736895
210
0
220
0
230
1.0
 0
LINE
 8
TOOL_0
 5
1E8
 10
1441.128
 20
1095.471
 30
0
 11
1450.444
 21
1060.703
 31
0
 0
LINE
 8
TOOL_0
 5
1E9
 10
1450.444
 20
1060.703
 30
0
 11
1450.444
 21
964.598
 31
0
 0
ARC
 8
TOOL_0
 5
1EA
 10
1469.644
 20
964.598
 30
0
 40
19.2
 50
180.0
 51
235.608896625223
210
0
220
0
230
1.0
 0
LINE
 8
TOOL_0
 5
1EB
 10
1458.799
 20
948.754
 30
0
 11
1473.776
 21
938.502
 31
0
 0
ARC
 8
TOOL_0
 5
1EC
 10
1490.27
 20
962.597
 30
0
 40
29.199675700254
 50
235.606785125803
 51
267.976512547702
210
0
220
0
230
1.0
 0
ARC
 8
TOOL_0
 5
1ED
 10
1490.192
 20
882.516
 30
0
 40
50.908920721225
 50
34.740495244392
 51
91.072622767533
210
0
220
0
230
1.0
 0
ARC
 8
TOOL_0
 5
1EE
 10
1389.84
 20
819.307
 30
0
 40
169.473853428781
 50
28.555767746478
 51
32.966920169159
210
0
220
0
230
1.0
 0
ARC
 8
TOOL_0
 5
1EF
 10
1529.081
 20
894.847
 30
0
 40
11.064290759014
 50
0.367673943054
 51
29.635046803759
210
0
220
0
230
1.0
 0
LINE
 8
TOOL_0
 5
1F0
 10
1540.145
 20
894.918
 30
0
 11
1540.145
 21
850.277
 31
0
 0
ARC
 8
TOOL_0
 5
1F1
 10
1529.081
 20
850.348
 30
0
 40
11.064227808573
 50
330.364953196241
 51
359.632326056946
210
0
220
0
230
1.0
 0
LINE
 8
TOOL_0
 5
1F2
 10
1538.698
 20
844.877
 30
0
 11
1534.264
 21
837.198
 31
0
 0
ARC
 8
TOOL_0
 5
1F3
 10
1490.231
 20
862.663
 30
0
 40
50.866209943341
 50
271.619977476978
 51
329.958506845517
210
0
220
0
230
1.0
 0
ARC
 8
TOOL_0
 5
1F4
 10
1490.488
 20
782.134
 30
0
 40
29.706484982239
 50
87.721569789111
 51
124.234650182548
210
0
220
0
230
1.0
 0
LINE
 8
TOOL_0
 5
1F5
 10
1473.776
 20
806.693
 30
0
 11
1458.799
 21
796.441
 31
0
 0
ARC
 8
TOOL_0
 5
1F6
 10
1469.644
 20
780.597
 30
0
 40
19.200165650327
 50
124.391103374777
 51
180.0
210
0
220
0
230
1.0
 0
LINE
 8
TOOL_0
 5
1F7
 10
1450.444
 20
780.597
 30
0
 11
1450.444
 21
684.492
 31
0
 0
LINE
 8
TOOL_0
 5
1F8
 10
1450.444
 20
684.492
 30
0
 11
1441.128
 21
649.724
 31
0
 0
ARC
 8
TOOL_0
 5
1F9
 10
1438.423
 20
650.449
 30
0
 40
2.800473174305
 50
255.015861915193
 51
344.996098263103
210
0
220
0
230
1.0
 0
LINE
 8
TOOL_0
 5
1FA
 10
1437.699
 20
647.744
 30
0
 11
1432.814
 21
646.61
 31
0
 0
LINE
 8
TOOL_0
 5
1FB
 10
1432.814
 20
646.61
 30
0
 11
1432.814
 21
-0.004
 31
0
 0
LINE
 8
TOOL_0
 5
1FC
 10
1432.814
 20
-0.004
 30
0
 11
180.496
 21
2667.152
 31
0
 0
LINE
 8
TOOL_0
 5
1FD
 10
180.496
 20
2667.152
 30
0
 11
210.496
 21
2667.152
 31
0
 0
LINE
 8
TOOL_0
 5
1FE
 10
210.496
 20
2667.152
 30
0
 11
210.496
 21
2697.152
 31
0
 0
ARC
 8
TOOL_0
 5
1FF
 10
200.496
 20
2697.152
 30
0
 40
10.0
 50
0
 51
90.0
210
0
220
0
230
1.0
 0
LINE
 8
TOOL_0
 5
200
 10
200.496
 20
2707.152
 30
0
 11
154.496
 21
2707.152
 31
0
 0
ARC
 8
TOOL_0
 5
201
 10
154.496
 20
2697.152
 30
0
 40
10.0
 50
90.0
 51
180.0
210
0
220
0
230
1.0
 0
LINE
 8
TOOL_0
 5
202
 10
144.496
 20
2697.152
 30
0
 11
144.496
 21
2637.152
 31
0
 0
ARC
 8
TOOL_0
 5
203
 10
154.496
 20
2637.152
 30
0
 40
10.0
 50
180.0
 51
270.0
210
0
220
0
230
1.0
 0
LINE
 8
TOOL_0
 5
204
 10
154.496
 20
2627.152
 30
0
 11
200.496
 21
2627.152
 31
0
 0
ARC
 8
TOOL_0
 5
205
 10
200.496
 20
2637.152
 30
0
 40
10.0
 50
270.0
 51
0
210
0
220
0
230
1.0
 0
LINE
 8
TOOL_0
 5
206
 10
210.496
 20
2637.152
 30
0
 11
210.496
 21
2667.152
 31
0
 0
LINE
 8
TOOL_0
 5
207
 10
210.496
 20
2667.152
 30
0
 11
206.96
 21
2670.688
 31
0
 0
LINE
 8
TOOL_0
 5
208
 10
206.96
 20
2670.688
 30
0
 11
180.496
 21
2413.152
 31
0
 0
LINE
 8
TOOL_0
 5
209
 10
180.496
 20
2413.152
 30
0
 11
210.496
 21
2413.152
 31
0
 0
LINE
 8
TOOL_0
 5
20A
 10
210.496
 20
2413.152
 30
0
 11
210.496
 21
2443.152
 31
0
 0
ARC
 8
TOOL_0
 5
20B
 10
200.496
 20
2443.152
 30
0
 40
10.0
 50
0
 51
90.0
210
0
220
0
230
1.0
 0
LINE
 8
TOOL_0
 5
20C
 10
200.496
 20
2453.152
 30
0
 11
154.496
 21
2453.152
 31
0
 0
ARC
 8
TOOL_0
 5
20D
 10
154.496
 20
2443.152
 30
0
 40
10.0
 50
90.0
 51
180.0
210
0
220
0
230
1.0
 0
LINE
 8
TOOL_0
 5
20E
 10
144.496
 20
2443.152
 30
0
 11
144.496
 21
2383.152
 31
0
 0
ARC
 8
TOOL_0
 5
20F
 10
154.496
 20
2383.152
 30
0
 40
10.0
 50
180.0
 51
270.0
210
0
220
0
230
1.0
 0
LINE
 8
TOOL_0
 5
210
 10
154.496
 20
2373.152
 30
0
 11
200.496
 21
2373.152
 31
0
 0
ARC
 8
TOOL_0
 5
211
 10
200.496
 20
2383.152
 30
0
 40
10.0
 50
270.0
 51
0
210
0
220
0
230
1.0
 0
LINE
 8
TOOL_0
 5
212
 10
210.496
 20
2383.152
 30
0
 11
210.496
 21
2413.152
 31
0
 0
LINE
 8
TOOL_0
 5
213
 10
210.496
 20
2413.152
 30
0
 11
206.96
 21
2416.688
 31
0
 0
LINE
 8
TOOL_0
 5
214
 10
206.96
 20
2416.688
 30
0
 11
583.098
 21
2503.994
 31
0
 0
LINE
 8
TOOL_0
 5
215
 10
583.098
 20
2503.994
 30
0
 11
556.796
 21
2490.052
 31
0
 0
ARC
 8
TOOL_0
 5
216
 10
553.796
 20
2490.052
 30
0
 40
3.0
 50
270.0
 51
0
210
0
220
0
230
1.0
 0
LINE
 8
TOOL_0
 5
217
 10
553.796
 20
2487.052
 30
0
 11
488.396
 21
2487.052
 31
0
 0
ARC
 8
TOOL_0
 5
218
 10
488.396
 20
2490.052
 30
0
 40
3.0
 50
180.0
 51
270.0
210
0
220
0
230
1.0
 0
LINE
 8
TOOL_0
 5
219
 10
485.396
 20
2490.052
 30
0
 11
485.396
 21
2497.052
 31
0
 0
ARC
 8
TOOL_0
 5
21A
 10
470.396
 20
2497.052
 30
0
 40
15.0
 50
0
 51
90.0
210
0
220
0
230
1.0
 0
LINE
 8
TOOL_0
 5
21B
 10
470.396
 20
2512.052
 30
0
 11
317.08
 21
2512.052
 31
0
 0
ARC
 8
TOOL_0
 5
21C
 10
317.08
 20
2492.652
 30
0
 40
19.4
 50
90.0
 51
134.999999999999
210
0
220
0
230
1.0
 0
LINE
 8
TOOL_0
 5
21D
 10
303.362
 20
2506.37
 30
0
 11
293.084
 21
2496.092
 31
0
 0
ARC
 8
TOOL_0
 5
21E
 10
335.235
 20
2454.019
 30
0
 40
59.555387077913
 50
135.053061710728
 51
173.745757649057
210
0
220
0
230
1.0
 0
ARC
 8
TOOL_0
 5
21F
 10
265.496
 20
2461.652
 30
0
 40
10.600022122618
 50
270.0
 51
353.798888446262
210
0
220
0
230
1.0
 0
ARC
 8
TOOL_0
 5
220
 10
265.496
 20
2431.652
 30
0
 40
19.4
 50
90.0
 51
180.0
210
0
220
0
230
1.0
 0
LINE
 8
TOOL_0
 5
221
 10
246.096
 20
2431.652
 30
0
 11
246.096
 21
2351.002
 31
0
 0
ARC
 8
TOOL_0
 5
222
 10
243.096
 20
2351.002
 30
0
 40
3.0
 50
284.990467215559
 51
0
210
0
220
0
230
1.0
 0
LINE
 8
TOOL_0
 5
223
 10
243.872
 20
2348.104
 30
0
 11
212.478
 21
2339.692
 31
0
 0
ARC
 8
TOOL_0
 5
224
 10
211.702
 20
2342.59
 30
0
 40
3.000096665109
 50
195.008913676659
 51
284.990467215559
210
0
220
0
230
1.0
 0
LINE
 8
TOOL_0
 5
225
 10
208.804
 20
2341.813
 30
0
 11
208.312
 21
2343.648
 31
0
 0
ARC
 8
TOOL_0
 5
226
 10
205.414
 20
2342.872
 30
0
 40
3.000096665109
 50
14.990467215557
 51
104.995408657677
210
0
220
0
230
1.0
 0
LINE
 8
TOOL_0
 5
227
 10
204.638
 20
2345.769
 30
0
 11
152.864
 21
2331.896
 31
0
 0
ARC
 8
TOOL_0
 5
228
 10
153.64
 20
2328.998
 30
0
 40
3.000096665109
 50
104.990467215559
 51
194.995408657674
210
0
220
0
230
1.0
 0
LINE
 8
TOOL_0
 5
229
 10
150.743
 20
2328.222
 30
0
 11
151.235
 21
2326.387
 31
0
 0
ARC
 8
TOOL_0
 5
22A
 10
148.337
 20
2325.611
 30
0
 40
3.000096665109
 50
285.008913676658
 51
14.990467215557
210
0
220
0
230
1.0
 0
LINE
 8
TOOL_0
 5
22B
 10
149.114
 20
2322.713
 30
0
 11
121.441
 21
2315.298
 31
0
 0
ARC
 8
TOOL_0
 5
22C
 10
120.716
 20
2318.003
 30
0
 40
2.800473174305
 50
195.009200172028
 51
285.003901736897
210
0
220
0
230
1.0
 0
LINE
 8
TOOL_0
 5
22D
 10
118.012
 20
2317.278
 30
0
 11
108.696
 21
2352.046
 31
0
 0
LINE
 8
TOOL_0
 5
22E
 10
108.696
 20
2352.046
 30
0
 11
108.696
 21
2448.151
 31
0
 0
ARC
 8
TOOL_0
 5
22F
 10
89.496
 20
2448.151
 30
0
 40
19.2
 50
0
 51
55.608896625223
210
0
220
0
230
1.0
 0
LINE
 8
TOOL_0
 5
230
 10
100.341
 20
2463.995
 30
0
 11
85.364
 21
2474.247
 31
0
 0
ARC
 8
TOOL_0
 5
231
 10
68.87
 20
2450.152
 30
0
 40
29.199675700254
 50
55.606785125803
 51
87.976512547702
210
0
220
0
230
1.0
 0
ARC
 8
TOOL_0
 5
232
 10
68.948
 20
2530.233
 30
0
 40
50.908920721225
 50
214.740495244391
 51
271.072622767533
210
0
220
0
230
1.0
 0
ARC
 8
TOOL_0
 5
233
 10
169.3
 20
2593.442
 30
0
 40
169.473853428781
 50
208.555470792514
 51
212.966920169158
210
0
220
0
230
1.0
 0
ARC
 8
TOOL_0
 5
234
 10
30.059
 20
2517.902
 30
0
 40
11.063796319528
 50
180.367707176701
 51
209.630545539637
210
0
220
0
230
1.0
 0
LINE
 8
TOOL_0
 5
235
 10
18.996
 20
2517.831
 30
0
 11
18.996
 21
2562.472
 31
0
 0
ARC
 8
TOOL_0
 5
236
 10
30.06
 20
2562.401
 30
0
 40
11.064227808573
 50
150.36495319624
 51
179.632326056946
210
0
220
0
230
1.0
 0
LINE
 8
TOOL_0
 5
237
 10
20.443
 20
2567.872
 30
0
 11
24.877
 21
2575.551
 31
0
 0
ARC
 8
TOOL_0
 5
238
 10
68.91
 20
2550.086
 30
0
 40
50.866209943341
 50
91.62110342507
 51
149.958506845517
210
0
220
0
230
1.0
 0
ARC
 8
TOOL_0
 5
239
 10
68.652
 20
2630.615
 30
0
 40
29.706484982239
 50
267.721569789111
 51
304.236244747272
210
0
220
0
230
1.0
 0
LINE
 8
TOOL_0
 5
23A
 10
85.365
 20
2606.056
 30
0
 11
100.342
 21
2616.308
 31
0
 0
ARC
 8
TOOL_0
 5
23B
 10
89.497
 20
2632.152
 30
0
 40
19.200165650327
 50
304.391103374777
 51
359.997015844819
210
0
220
0
230
1.0
 0
LINE
 8
TOOL_0
 5
23C
 10
108.697
 20
2632.151
 30
0
 11
108.697
 21
2728.256
 31
0
 0
LINE
 8
TOOL_0
 5
23D
 10
108.697
 20
2728.256
 30
0
 11
118.013
 21
2763.024
 31
0
 0
ARC
 8
TOOL_0
 5
23E
 10
120.718
 20
2762.299
 30
0
 40
2.800473174305
 50
75.015861915195
 51
164.996098263105
210
0
220
0
230
1.0
 0
LINE
 8
TOOL_0
 5
23F
 10
121.442
 20
2765.004
 30
0
 11
149.115
 21
2757.589
 31
0
 0
ARC
 8
TOOL_0
 5
240
 10
148.339
 20
2754.691
 30
0
 40
3.000096665109
 50
345.004591342326
 51
75.009532784441
210
0
220
0
230
1.0
 0
LINE
 8
TOOL_0
 5
241
 10
151.236
 20
2753.915
 30
0
 11
150.744
 21
2752.08
 31
0
 0
ARC
 8
TOOL_0
 5
242
 10
153.642
 20
2751.304
 30
0
 40
3.000096665109
 50
165.009532784443
 51
254.991086323342
210
0
220
0
230
1.0
 0
LINE
 8
TOOL_0
 5
243
 10
152.865
 20
2748.406
 30
0
 11
204.639
 21
2734.533
 31
0
 0
ARC
 8
TOOL_0
 5
244
 10
205.415
 20
2737.431
 30
0
 40
3.000096665109
 50
255.009532784441
 51
344.991086323341
210
0
220
0
230
1.0
 0
LINE
 8
TOOL_0
 5
245
 10
208.313
 20
2736.654
 30
0
 11
208.805
 21
2738.489
 31
0
 0
ARC
 8
TOOL_0
 5
246
 10
211.703
 20
2737.713
 30
0
 40
3.000096665109
 50
75.004591342323
 51
165.009532784443
210
0
220
0
230
1.0
 0
LINE
 8
TOOL_0
 5
247
 10
212.479
 20
2740.61
 30
0
 11
243.873
 21
2732.198
 31
0
 0
ARC
 8
TOOL_0
 5
248
 10
243.097
 20
2729.3
 30
0
 40
3.000096665109
 50
0
 51
75.009532784441
210
0
220
0
230
1.0
 0
LINE
 8
TOOL_0
 5
249
 10
246.097
 20
2729.3
 30
0
 11
246.097
 21
2648.65
 31
0
 0
ARC
 8
TOOL_0
 5
24A
 10
265.497
 20
2648.65
 30
0
 40
19.4
 50
180.0
 51
270.0
210
0
220
0
230
1.0
 0
ARC
 8
TOOL_0
 5
24B
 10
265.47
 20
2618.618
 30
0
 40
10.632034283241
 50
9.83972311836
 51
89.854497486708
210
0
220
0
230
1.0
 0
ARC
 8
TOOL_0
 5
24C
 10
335.438
 20
2626.411
 30
0
 40
59.791392691591
 50
185.736147090083
 51
222.017911442877
210
0
220
0
230
1.0
 0
ARC
 8
TOOL_0
 5
24D
 10
646.691
 20
2926.585
 30
0
 40
492.176099269357
 50
223.72579954476
 51
225.76737739596
210
0
220
0
230
1.0
 0
ARC
 8
TOOL_0
 5
24E
 10
317.082
 20
2587.65
 30
0
 40
19.400181854818
 50
224.991646627918
 51
270.0
210
0
220
0
230
1.0
 0
LINE
 8
TOOL_0
 5
24F
 10
317.082
 20
2568.25
 30
0
 11
470.398
 21
2568.25
 31
0
 0
ARC
 8
TOOL_0
 5
250
 10
470.398
 20
2583.25
 30
0
 40
15.0
 50
270.0
 51
0
210
0
220
0
230
1.0
 0
LINE
 8
TOOL_0
 5
251
 10
485.398
 20
2583.25
 30
0
 11
485.398
 21
2590.25
 31
0
 0
ARC
 8
TOOL_0
 5
252
 10
488.398
 20
2590.25
 30
0
 40
3.0
 50
90.0
 51
180.0
210
0
220
0
230
1.0
 0
LINE
 8
TOOL_0
 5
253
 10
488.398
 20
2593.25
 30
0
 11
553.798
 21
2593.25
 31
0
 0
ARC
 8
TOOL_0
 5
254
 10
553.798
 20
2590.25
 30
0
 40
3.0
 50
0
 51
90.0
210
0
220
0
230
1.0
 0
LINE
 8
TOOL_0
 5
255
 10
556.798
 20
2590.25
 30
0
 11
556.798
 21
2490.05
 31
0
 0
LINE
 8
TOOL_0
 5
256
 10
556.798
 20
2490.05
 30
0
 11
557.31
 21
2484.707
 31
0
 0
LINE
 8
TOOL_0
 5
257
 10
557.31
 20
2484.707
 30
0
 11
1063.039
 21
2568.054
 31
0
 0
LINE
 8
TOOL_0
 5
258
 10
1063.039
 20
2568.054
 30
0
 11
1033.52
 21
2569.394
 31
0
 0
LINE
 8
TOOL_0
 5
259
 10
1033.52
 20
2569.394
 30
0
 11
606.52
 21
2569.394
 31
0
 0
ARC
 8
TOOL_0
 5
25A
 10
606.52
 20
2589.394
 30
0
 40
20.0
 50
180.0
 51
270.0
210
0
220
0
230
1.0
 0
LINE
 8
TOOL_0
 5
25B
 10
586.52
 20
2589.394
 30
0
 11
586.52
 21
2840.994
 31
0
 0
ARC
 8
TOOL_0
 5
25C
 10
606.52
 20
2840.994
 30
0
 40
20.0
 50
90.0
 51
180.0
210
0
220
0
230
1.0
 0
LINE
 8
TOOL_0
 5
25D
 10
606.52
 20
2860.994
 30
0
 11
895.32
 21
2860.994
 31
0
 0
ARC
 8
TOOL_0
 5
25E
 10
895.32
 20
2840.994
 30
0
 40
20.0
 50
0
 51
90.0
210
0
220
0
230
1.0
 0
LINE
 8
TOOL_0
 5
25F
 10
915.32
 20
2840.994
 30
0
 11
915.32
 21
2740.694
 31
0
 0
ARC
 8
TOOL_0
 5
260
 10
945.32
 20
2740.694
 30
0
 40
30.0
 50
180.0
 51
270.0
210
0
220
0
230
1.0
 0
LINE
 8
TOOL_0
 5
261
 10
945.32
 20
2710.694
 30
0
 11
1033.52
 21
2710.694
 31
0
 0
ARC
 8
TOOL_0
 5
262
 10
1033.52
 20
2660.694
 30
0
 40
50.0
 50
0
 51
90.0
210
0
220
0
230
1.0
 0
LINE
 8
TOOL_0
 5
263
 10
1083.52
 20
2660.694
 30
0
 11
1083.52
 21
2619.394
 31
0
 0
ARC
 8
TOOL_0
 5
264
 10
1033.52
 20
2619.394
 30
0
 40
50.0
 50
270.0
 51
0
210
0
220
0
230
1.0
 0
LINE
 8
TOOL_0
 5
265
 10
1033.52
 20
2569.394
 30
0
 11
1028.593
 21
2568.054
 31
0
 0
LINE
 8
TOOL_0
 5
266
 10
1028.593
 20
2568.054
 30
0
 11
1578.253
 21
2568.054
 31
0
 0
LINE
 8
TOOL_0
 5
267
 10
1578.253
 20
2568.054
 30
0
 11
1548.734
 21
2569.394
 31
0
 0
LINE
 8
TOOL_0
 5
268
 10
1548.734
 20
2569.394
 30
0
 11
1121.734
 21
2569.394
 31
0
 0
ARC
 8
TOOL_0
 5
269
 10
1121.734
 20
2589.394
 30
0
 40
20.0
 50
180.0
 51
270.0
210
0
220
0
230
1.0
 0
LINE
 8
TOOL_0
 5
26A
 10
1101.734
 20
2589.394
 30
0
 11
1101.734
 21
2840.994
 31
0
 0
ARC
 8
TOOL_0
 5
26B
 10
1121.734
 20
2840.994
 30
0
 40
20.0
 50
90.0
 51
180.0
210
0
220
0
230
1.0
 0
LINE
 8
TOOL_0
 5
26C
 10
1121.734
 20
2860.994
 30
0
 11
1410.534
 21
2860.994
 31
0
 0
ARC
 8
TOOL_0
 5
26D
 10
1410.534
 20
2840.994
 30
0
 40
20.0
 50
0
 51
90.0
210
0
220
0
230
1.0
 0
LINE
 8
TOOL_0
 5
26E
 10
1430.534
 20
2840.994
 30
0
 11
1430.534
 21
2740.694
 31
0
 0
ARC
 8
TOOL_0
 5
26F
 10
1460.534
 20
2740.694
 30
0
 40
30.0
 50
180.0
 51
270.0
210
0
220
0
230
1.0
 0
LINE
 8
TOOL_0
 5
270
 10
1460.534
 20
2710.694
 30
0
 11
1548.734
 21
2710.694
 31
0
 0
ARC
 8
TOOL_0
 5
271
 10
1548.734
 20
2660.694
 30
0
 40
50.0
 50
0
 51
90.0
210
0
220
0
230
1.0
 0
LINE
 8
TOOL_0
 5
272
 10
1598.734
 20
2660.694
 30
0
 11
1598.734
 21
2619.394
 31
0
 0
ARC
 8
TOOL_0
 5
273
 10
1548.734
 20
2619.394
 30
0
 40
50.0
 50
270.0
 51
0
210
0
220
0
230
1.0
 0
LINE
 8
TOOL_0
 5
274
 10
1548.734
 20
2569.394
 30
0
 11
1543.807
 21
2568.054
 31
0
 0
LINE
 8
TOOL_0
 5
275
 10
1543.807
 20
2568.054
 30
0
 11
2127.392
 21
-0.006
 31
0
 0
LINE
 8
TOOL_0
 5
276
 10
2127.392
 20
-0.006
 30
0
 11
2127.392
 21
0.994
 31
0
 0
LINE
 8
TOOL_0
 5
277
 10
2127.392
 20
0.994
 30
0
 11
2127.392
 21
-0.006
 31
0
 0
LINE
 8
TOOL_0
 5
278
 10
2127.392
 20
-0.006
 30
0
 11
2127.392
 21
0.994
 31
0
 0
LINE
 8
TOOL_0
 5
279
 10
2127.392
 20
0.994
 30
0
 11
2127.392
 21
2878.994
 31
0
 0
LINE
 8
TOOL_0
 5
27A
 10
2127.392
 20
2878.994
 30
0
 11
2127.392
 21
2879.994
 31
0
 0
ENDSEC
 0
EOF

