0
SECTION
2
TABLES
0
TABLE
2
LAYER
70
0
0
LAYER
2
LAYER_NAME
70
0
62
1
6
CONTINUOUS
0
ENDTAB
0
ENDSEC
 0
SECTION
 2
ENTITIES
 0
LINE
 8
TOOL_0
 5
1
 10
6131.135
 20
42.09
 30
0
 11
6131.135
 21
17.281
 31
0
 0
LINE
 8
TOOL_0
 5
2
 10
6131.135
 20
17.281
 30
0
 11
6110.0
 21
20.001
 31
0
 0
LINE
 8
TOOL_0
 5
3
 10
6110.0
 20
20.001
 30
0
 11
20.0
 21
20.001
 31
0
 0
LINE
 8
TOOL_0
 5
4
 10
20.0
 20
20.001
 30
0
 11
20.0
 21
410.001
 31
0
 0
LINE
 8
TOOL_0
 5
5
 10
20.0
 20
410.001
 30
0
 11
6110.0
 21
410.001
 31
0
 0
LINE
 8
TOOL_0
 5
6
 10
6110.0
 20
410.001
 30
0
 11
6110.0
 21
20.001
 31
0
 0
LINE
 8
TOOL_0
 5
7
 10
6110.0
 20
20.001
 30
0
 11
6110.0
 21
11.582
 31
0
 0
LINE
 8
TOOL_0
 5
8
 10
6110.0
 20
11.582
 30
0
 11
6131.135
 21
452.404
 31
0
 0
LINE
 8
TOOL_0
 5
9
 10
6131.135
 20
452.404
 30
0
 11
6131.135
 21
427.594
 31
0
 0
LINE
 8
TOOL_0
 5
A
 10
6131.135
 20
427.594
 30
0
 11
6110.0
 21
430.314
 31
0
 0
LINE
 8
TOOL_0
 5
B
 10
6110.0
 20
430.314
 30
0
 11
20.0
 21
430.314
 31
0
 0
LINE
 8
TOOL_0
 5
C
 10
20.0
 20
430.314
 30
0
 11
20.0
 21
820.314
 31
0
 0
LINE
 8
TOOL_0
 5
D
 10
20.0
 20
820.314
 30
0
 11
6110.0
 21
820.314
 31
0
 0
LINE
 8
TOOL_0
 5
E
 10
6110.0
 20
820.314
 30
0
 11
6110.0
 21
430.314
 31
0
 0
LINE
 8
TOOL_0
 5
F
 10
6110.0
 20
430.314
 30
0
 11
6110.0
 21
421.895
 31
0
 0
LINE
 8
TOOL_0
 5
10
 10
6110.0
 20
421.895
 30
0
 11
6131.135
 21
862.591
 31
0
 0
LINE
 8
TOOL_0
 5
11
 10
6131.135
 20
862.591
 30
0
 11
6131.135
 21
837.782
 31
0
 0
LINE
 8
TOOL_0
 5
12
 10
6131.135
 20
837.782
 30
0
 11
6110.0
 21
840.502
 31
0
 0
LINE
 8
TOOL_0
 5
13
 10
6110.0
 20
840.502
 30
0
 11
20.0
 21
840.502
 31
0
 0
LINE
 8
TOOL_0
 5
14
 10
20.0
 20
840.502
 30
0
 11
20.0
 21
1230.502
 31
0
 0
LINE
 8
TOOL_0
 5
15
 10
20.0
 20
1230.502
 30
0
 11
6110.0
 21
1230.502
 31
0
 0
LINE
 8
TOOL_0
 5
16
 10
6110.0
 20
1230.502
 30
0
 11
6110.0
 21
840.502
 31
0
 0
LINE
 8
TOOL_0
 5
17
 10
6110.0
 20
840.502
 30
0
 11
6110.0
 21
832.083
 31
0
 0
LINE
 8
TOOL_0
 5
18
 10
6110.0
 20
832.083
 30
0
 11
6131.135
 21
1272.779
 31
0
 0
LINE
 8
TOOL_0
 5
19
 10
6131.135
 20
1272.779
 30
0
 11
6131.135
 21
1247.97
 31
0
 0
LINE
 8
TOOL_0
 5
1A
 10
6131.135
 20
1247.97
 30
0
 11
6110.0
 21
1250.69
 31
0
 0
LINE
 8
TOOL_0
 5
1B
 10
6110.0
 20
1250.69
 30
0
 11
20.0
 21
1250.69
 31
0
 0
LINE
 8
TOOL_0
 5
1C
 10
20.0
 20
1250.69
 30
0
 11
20.0
 21
1640.69
 31
0
 0
LINE
 8
TOOL_0
 5
1D
 10
20.0
 20
1640.69
 30
0
 11
6110.0
 21
1640.69
 31
0
 0
LINE
 8
TOOL_0
 5
1E
 10
6110.0
 20
1640.69
 30
0
 11
6110.0
 21
1250.69
 31
0
 0
LINE
 8
TOOL_0
 5
1F
 10
6110.0
 20
1250.69
 30
0
 11
6110.0
 21
1242.271
 31
0
 0
LINE
 8
TOOL_0
 5
20
 10
6110.0
 20
1242.271
 30
0
 11
6131.135
 21
1682.966
 31
0
 0
LINE
 8
TOOL_0
 5
21
 10
6131.135
 20
1682.966
 30
0
 11
6131.135
 21
1658.157
 31
0
 0
LINE
 8
TOOL_0
 5
22
 10
6131.135
 20
1658.157
 30
0
 11
6110.0
 21
1660.877
 31
0
 0
LINE
 8
TOOL_0
 5
23
 10
6110.0
 20
1660.877
 30
0
 11
20.0
 21
1660.877
 31
0
 0
LINE
 8
TOOL_0
 5
24
 10
20.0
 20
1660.877
 30
0
 11
20.0
 21
2050.877
 31
0
 0
LINE
 8
TOOL_0
 5
25
 10
20.0
 20
2050.877
 30
0
 11
6110.0
 21
2050.877
 31
0
 0
LINE
 8
TOOL_0
 5
26
 10
6110.0
 20
2050.877
 30
0
 11
6110.0
 21
1660.877
 31
0
 0
LINE
 8
TOOL_0
 5
27
 10
6110.0
 20
1660.877
 30
0
 11
6110.0
 21
1652.458
 31
0
 0
ENDSEC
 0
EOF

