0
SECTION
2
TABLES
0
TABLE
2
LAYER
70
0
0
LAYER
2
LAYER_NAME
70
0
62
1
6
CONTINUOUS
0
ENDTAB
0
ENDSEC
 0
SECTION
 2
ENTITIES
 0
LINE
 8
TOOL_0
 5
1
 10
92.85
 20
1030.851
 30
0
 11
122.85
 21
1030.851
 31
0
 0
ARC
 8
TOOL_0
 5
2
 10
87.85
 20
1030.851
 30
0
 40
35.0
 50
0
 51
180.0
210
0
220
0
230
1.0
 0
ARC
 8
TOOL_0
 5
3
 10
87.85
 20
1030.851
 30
0
 40
35.0
 50
180.0
 51
0
210
0
220
0
230
1.0
 0
LINE
 8
TOOL_0
 5
4
 10
122.85
 20
1030.851
 30
0
 11
309.85
 21
375.851
 31
0
 0
LINE
 8
TOOL_0
 5
5
 10
309.85
 20
375.851
 30
0
 11
309.85
 21
345.851
 31
0
 0
LINE
 8
TOOL_0
 5
6
 10
309.85
 20
345.851
 30
0
 11
324.85
 21
345.851
 31
0
 0
ARC
 8
TOOL_0
 5
7
 10
324.85
 20
355.851
 30
0
 40
10.0
 50
270.0
 51
0
210
0
220
0
230
1.0
 0
LINE
 8
TOOL_0
 5
8
 10
334.85
 20
355.851
 30
0
 11
334.85
 21
535.851
 31
0
 0
ARC
 8
TOOL_0
 5
9
 10
324.85
 20
535.851
 30
0
 40
10.0
 50
0
 51
90.0
210
0
220
0
230
1.0
 0
LINE
 8
TOOL_0
 5
A
 10
324.85
 20
545.851
 30
0
 11
294.85
 21
545.851
 31
0
 0
ARC
 8
TOOL_0
 5
B
 10
294.85
 20
535.851
 30
0
 40
10.0
 50
90.0
 51
180.0
210
0
220
0
230
1.0
 0
LINE
 8
TOOL_0
 5
C
 10
284.85
 20
535.851
 30
0
 11
284.85
 21
355.851
 31
0
 0
ARC
 8
TOOL_0
 5
D
 10
294.85
 20
355.851
 30
0
 40
10.0
 50
180.0
 51
270.0
210
0
220
0
230
1.0
 0
LINE
 8
TOOL_0
 5
E
 10
294.85
 20
345.851
 30
0
 11
309.85
 21
345.851
 31
0
 0
LINE
 8
TOOL_0
 5
F
 10
309.85
 20
345.851
 30
0
 11
2530.85
 21
312.851
 31
0
 0
LINE
 8
TOOL_0
 5
10
 10
2530.85
 20
312.851
 30
0
 11
2530.85
 21
342.851
 31
0
 0
LINE
 8
TOOL_0
 5
11
 10
2530.85
 20
342.851
 30
0
 11
2520.85
 21
342.851
 31
0
 0
ARC
 8
TOOL_0
 5
12
 10
2520.85
 20
312.851
 30
0
 40
30.0
 50
90.0
 51
180.0
210
0
220
0
230
1.0
 0
LINE
 8
TOOL_0
 5
13
 10
2490.85
 20
312.851
 30
0
 11
2490.85
 21
272.851
 31
0
 0
ARC
 8
TOOL_0
 5
14
 10
2520.85
 20
272.851
 30
0
 40
30.0
 50
180.0
 51
270.0
210
0
220
0
230
1.0
 0
LINE
 8
TOOL_0
 5
15
 10
2520.85
 20
242.851
 30
0
 11
2540.85
 21
242.851
 31
0
 0
ARC
 8
TOOL_0
 5
16
 10
2540.85
 20
252.851
 30
0
 40
10.0
 50
270.0
 51
0
210
0
220
0
230
1.0
 0
LINE
 8
TOOL_0
 5
17
 10
2550.85
 20
252.851
 30
0
 11
2550.85
 21
332.851
 31
0
 0
ARC
 8
TOOL_0
 5
18
 10
2540.85
 20
332.851
 30
0
 40
10.0
 50
0
 51
90.0
210
0
220
0
230
1.0
 0
LINE
 8
TOOL_0
 5
19
 10
2540.85
 20
342.851
 30
0
 11
2530.85
 21
342.851
 31
0
 0
LINE
 8
TOOL_0
 5
1A
 10
2530.85
 20
342.851
 30
0
 11
2420.85
 21
422.851
 31
0
 0
LINE
 8
TOOL_0
 5
1B
 10
2420.85
 20
422.851
 30
0
 11
2420.85
 21
452.851
 31
0
 0
LINE
 8
TOOL_0
 5
1C
 10
2420.85
 20
452.851
 30
0
 11
2390.85
 21
452.851
 31
0
 0
ARC
 8
TOOL_0
 5
1D
 10
2390.85
 20
432.851
 30
0
 40
20.0
 50
90.0
 51
180.0
210
0
220
0
230
1.0
 0
LINE
 8
TOOL_0
 5
1E
 10
2370.85
 20
432.851
 30
0
 11
2370.85
 21
342.851
 31
0
 0
ARC
 8
TOOL_0
 5
1F
 10
2390.85
 20
342.851
 30
0
 40
20.0
 50
180.0
 51
270.0
210
0
220
0
230
1.0
 0
LINE
 8
TOOL_0
 5
20
 10
2390.85
 20
322.851
 30
0
 11
2450.85
 21
322.851
 31
0
 0
ARC
 8
TOOL_0
 5
21
 10
2450.85
 20
342.851
 30
0
 40
20.0
 50
270.0
 51
0
210
0
220
0
230
1.0
 0
LINE
 8
TOOL_0
 5
22
 10
2470.85
 20
342.851
 30
0
 11
2470.85
 21
432.851
 31
0
 0
ARC
 8
TOOL_0
 5
23
 10
2450.85
 20
432.851
 30
0
 40
20.0
 50
0
 51
90.0
210
0
220
0
230
1.0
 0
LINE
 8
TOOL_0
 5
24
 10
2450.85
 20
452.851
 30
0
 11
2420.85
 21
452.851
 31
0
 0
LINE
 8
TOOL_0
 5
25
 10
2420.85
 20
452.851
 30
0
 11
2467.85
 21
1382.851
 31
0
 0
LINE
 8
TOOL_0
 5
26
 10
2467.85
 20
1382.851
 30
0
 11
2497.85
 21
1382.851
 31
0
 0
LINE
 8
TOOL_0
 5
27
 10
2497.85
 20
1382.851
 30
0
 11
2497.85
 21
1412.851
 31
0
 0
ARC
 8
TOOL_0
 5
28
 10
2477.85
 20
1412.851
 30
0
 40
20.0
 50
0
 51
90.0
210
0
220
0
230
1.0
 0
LINE
 8
TOOL_0
 5
29
 10
2477.85
 20
1432.851
 30
0
 11
2397.85
 21
1432.851
 31
0
 0
ARC
 8
TOOL_0
 5
2A
 10
2397.85
 20
1412.851
 30
0
 40
20.0
 50
90.0
 51
180.0
210
0
220
0
230
1.0
 0
LINE
 8
TOOL_0
 5
2B
 10
2377.85
 20
1412.851
 30
0
 11
2377.85
 21
1352.851
 31
0
 0
ARC
 8
TOOL_0
 5
2C
 10
2397.85
 20
1352.851
 30
0
 40
20.0
 50
180.0
 51
270.0
210
0
220
0
230
1.0
 0
LINE
 8
TOOL_0
 5
2D
 10
2397.85
 20
1332.851
 30
0
 11
2477.85
 21
1332.851
 31
0
 0
ARC
 8
TOOL_0
 5
2E
 10
2477.85
 20
1352.851
 30
0
 40
20.0
 50
270.0
 51
0
210
0
220
0
230
1.0
 0
LINE
 8
TOOL_0
 5
2F
 10
2497.85
 20
1352.851
 30
0
 11
2497.85
 21
1382.851
 31
0
 0
LINE
 8
TOOL_0
 5
30
 10
2497.85
 20
1382.851
 30
0
 11
2621.077
 21
36.407
 31
0
 0
LINE
 8
TOOL_0
 5
31
 10
2621.077
 20
36.407
 30
0
 11
2596.329
 21
11.658
 31
0
 0
LINE
 8
TOOL_0
 5
32
 10
2596.329
 20
11.658
 30
0
 11
2593.623
 21
10.36
 31
0
 0
ARC
 8
TOOL_0
 5
33
 10
2588.851
 20
11.851
 30
0
 40
4.999506475643
 50
270.0
 51
342.648710017382
210
0
220
0
230
1.0
 0
LINE
 8
TOOL_0
 5
34
 10
2588.851
 20
6.851
 30
0
 11
2496.851
 21
6.851
 31
0
 0
LINE
 8
TOOL_0
 5
35
 10
2496.851
 20
6.851
 30
0
 11
2496.851
 21
60.851
 31
0
 0
ARC
 8
TOOL_0
 5
36
 10
2493.851
 20
60.851
 30
0
 40
3.0
 50
0
 51
90.0
210
0
220
0
230
1.0
 0
LINE
 8
TOOL_0
 5
37
 10
2493.851
 20
63.851
 30
0
 11
1739.851
 21
63.851
 31
0
 0
ARC
 8
TOOL_0
 5
38
 10
1739.851
 20
60.851
 30
0
 40
3.0
 50
90.0
 51
180.0
210
0
220
0
230
1.0
 0
LINE
 8
TOOL_0
 5
39
 10
1736.851
 20
60.851
 30
0
 11
1736.851
 21
6.851
 31
0
 0
LINE
 8
TOOL_0
 5
3A
 10
1736.851
 20
6.851
 30
0
 11
6.851
 21
6.851
 31
0
 0
LINE
 8
TOOL_0
 5
3B
 10
6.851
 20
6.851
 30
0
 11
6.851
 21
1591.851
 31
0
 0
LINE
 8
TOOL_0
 5
3C
 10
6.851
 20
1591.851
 30
0
 11
487.851
 21
1591.851
 31
0
 0
LINE
 8
TOOL_0
 5
3D
 10
487.851
 20
1591.851
 30
0
 11
487.851
 21
1443.851
 31
0
 0
LINE
 8
TOOL_0
 5
3E
 10
487.851
 20
1443.851
 30
0
 11
452.851
 21
1443.851
 31
0
 0
ARC
 8
TOOL_0
 5
3F
 10
452.851
 20
1422.851
 30
0
 40
21.0
 50
90.0
 51
237.725934078207
210
0
220
0
230
1.0
 0
LINE
 8
TOOL_0
 5
40
 10
441.638
 20
1405.096
 30
0
 11
494.323
 21
1371.823
 31
0
 0
ARC
 8
TOOL_0
 5
41
 10
504.469
 20
1387.887
 30
0
 40
18.999826630788
 50
237.723550532162
 51
333.302781973449
210
0
220
0
230
1.0
 0
LINE
 8
TOOL_0
 5
42
 10
521.443
 20
1379.351
 30
0
 11
1066.852
 21
1379.351
 31
0
 0
LINE
 8
TOOL_0
 5
43
 10
1066.852
 20
1379.351
 30
0
 11
1066.852
 21
1342.351
 31
0
 0
LINE
 8
TOOL_0
 5
44
 10
1066.852
 20
1342.351
 30
0
 11
1063.852
 21
1342.351
 31
0
 0
ARC
 8
TOOL_0
 5
45
 10
1063.852
 20
1339.351
 30
0
 40
3.0
 50
90.0
 51
180.0
210
0
220
0
230
1.0
 0
LINE
 8
TOOL_0
 5
46
 10
1060.852
 20
1339.351
 30
0
 11
1060.852
 21
1292.851
 31
0
 0
ARC
 8
TOOL_0
 5
47
 10
1259.852
 20
1292.851
 30
0
 40
199.0
 50
180.0
 51
270.0
210
0
220
0
230
1.0
 0
LINE
 8
TOOL_0
 5
48
 10
1259.852
 20
1093.851
 30
0
 11
1612.852
 21
1093.851
 31
0
 0
ARC
 8
TOOL_0
 5
49
 10
1612.852
 20
1292.851
 30
0
 40
199.0
 50
270.0
 51
359.99942416302
210
0
220
0
230
1.0
 0
LINE
 8
TOOL_0
 5
4A
 10
1811.852
 20
1292.849
 30
0
 11
1811.852
 21
1453.265
 31
0
 0
LINE
 8
TOOL_0
 5
4B
 10
1811.852
 20
1453.265
 30
0
 11
1817.438
 21
1458.851
 31
0
 0
LINE
 8
TOOL_0
 5
4C
 10
1817.438
 20
1458.851
 30
0
 11
2628.266
 21
1458.851
 31
0
 0
LINE
 8
TOOL_0
 5
4D
 10
2628.266
 20
1458.851
 30
0
 11
2633.852
 21
1453.265
 31
0
 0
LINE
 8
TOOL_0
 5
4E
 10
2633.852
 20
1453.265
 30
0
 11
2633.852
 21
68.851
 31
0
 0
ARC
 8
TOOL_0
 5
4F
 10
2628.852
 20
68.851
 30
0
 40
5.0
 50
270.0
 51
0
210
0
220
0
230
1.0
 0
LINE
 8
TOOL_0
 5
50
 10
2628.852
 20
63.851
 30
0
 11
2596.852
 21
63.851
 31
0
 0
ARC
 8
TOOL_0
 5
51
 10
2596.852
 20
60.851
 30
0
 40
3.0
 50
90.0
 51
180.0
210
0
220
0
230
1.0
 0
LINE
 8
TOOL_0
 5
52
 10
2593.852
 20
60.851
 30
0
 11
2593.852
 21
13.351
 31
0
 0
LINE
 8
TOOL_0
 5
53
 10
2593.852
 20
13.351
 30
0
 11
2596.331
 21
11.658
 31
0
 0
LINE
 8
TOOL_0
 5
54
 10
2596.331
 20
11.658
 30
0
 11
2599.867
 21
8.122
 31
0
 0
LINE
 8
TOOL_0
 5
55
 10
2599.867
 20
8.122
 30
0
 11
2740.558
 21
1030.85
 31
0
 0
LINE
 8
TOOL_0
 5
56
 10
2740.558
 20
1030.85
 30
0
 11
2770.558
 21
1030.85
 31
0
 0
ARC
 8
TOOL_0
 5
57
 10
2735.558
 20
1030.85
 30
0
 40
35.0
 50
0
 51
180.0
210
0
220
0
230
1.0
 0
ARC
 8
TOOL_0
 5
58
 10
2735.558
 20
1030.85
 30
0
 40
35.0
 50
180.0
 51
0
210
0
220
0
230
1.0
 0
LINE
 8
TOOL_0
 5
59
 10
2770.558
 20
1030.85
 30
0
 11
2957.558
 21
375.85
 31
0
 0
LINE
 8
TOOL_0
 5
5A
 10
2957.558
 20
375.85
 30
0
 11
2957.558
 21
345.85
 31
0
 0
LINE
 8
TOOL_0
 5
5B
 10
2957.558
 20
345.85
 30
0
 11
2972.558
 21
345.85
 31
0
 0
ARC
 8
TOOL_0
 5
5C
 10
2972.558
 20
355.85
 30
0
 40
10.0
 50
270.0
 51
0
210
0
220
0
230
1.0
 0
LINE
 8
TOOL_0
 5
5D
 10
2982.558
 20
355.85
 30
0
 11
2982.558
 21
535.85
 31
0
 0
ARC
 8
TOOL_0
 5
5E
 10
2972.558
 20
535.85
 30
0
 40
10.0
 50
0
 51
90.0
210
0
220
0
230
1.0
 0
LINE
 8
TOOL_0
 5
5F
 10
2972.558
 20
545.85
 30
0
 11
2942.558
 21
545.85
 31
0
 0
ARC
 8
TOOL_0
 5
60
 10
2942.558
 20
535.85
 30
0
 40
10.0
 50
90.0
 51
180.0
210
0
220
0
230
1.0
 0
LINE
 8
TOOL_0
 5
61
 10
2932.558
 20
535.85
 30
0
 11
2932.558
 21
355.85
 31
0
 0
ARC
 8
TOOL_0
 5
62
 10
2942.558
 20
355.85
 30
0
 40
10.0
 50
180.0
 51
270.0
210
0
220
0
230
1.0
 0
LINE
 8
TOOL_0
 5
63
 10
2942.558
 20
345.85
 30
0
 11
2957.558
 21
345.85
 31
0
 0
LINE
 8
TOOL_0
 5
64
 10
2957.558
 20
345.85
 30
0
 11
5178.558
 21
312.85
 31
0
 0
LINE
 8
TOOL_0
 5
65
 10
5178.558
 20
312.85
 30
0
 11
5178.558
 21
342.85
 31
0
 0
LINE
 8
TOOL_0
 5
66
 10
5178.558
 20
342.85
 30
0
 11
5168.558
 21
342.85
 31
0
 0
ARC
 8
TOOL_0
 5
67
 10
5168.558
 20
312.85
 30
0
 40
30.0
 50
90.0
 51
180.0
210
0
220
0
230
1.0
 0
LINE
 8
TOOL_0
 5
68
 10
5138.558
 20
312.85
 30
0
 11
5138.558
 21
272.85
 31
0
 0
ARC
 8
TOOL_0
 5
69
 10
5168.558
 20
272.85
 30
0
 40
30.0
 50
180.0
 51
270.0
210
0
220
0
230
1.0
 0
LINE
 8
TOOL_0
 5
6A
 10
5168.558
 20
242.85
 30
0
 11
5188.558
 21
242.85
 31
0
 0
ARC
 8
TOOL_0
 5
6B
 10
5188.558
 20
252.85
 30
0
 40
10.0
 50
270.0
 51
0
210
0
220
0
230
1.0
 0
LINE
 8
TOOL_0
 5
6C
 10
5198.558
 20
252.85
 30
0
 11
5198.558
 21
332.85
 31
0
 0
ARC
 8
TOOL_0
 5
6D
 10
5188.558
 20
332.85
 30
0
 40
10.0
 50
0
 51
90.0
210
0
220
0
230
1.0
 0
LINE
 8
TOOL_0
 5
6E
 10
5188.558
 20
342.85
 30
0
 11
5178.558
 21
342.85
 31
0
 0
LINE
 8
TOOL_0
 5
6F
 10
5178.558
 20
342.85
 30
0
 11
5068.558
 21
422.85
 31
0
 0
LINE
 8
TOOL_0
 5
70
 10
5068.558
 20
422.85
 30
0
 11
5068.558
 21
452.85
 31
0
 0
LINE
 8
TOOL_0
 5
71
 10
5068.558
 20
452.85
 30
0
 11
5038.558
 21
452.85
 31
0
 0
ARC
 8
TOOL_0
 5
72
 10
5038.558
 20
432.85
 30
0
 40
20.0
 50
90.0
 51
180.0
210
0
220
0
230
1.0
 0
LINE
 8
TOOL_0
 5
73
 10
5018.558
 20
432.85
 30
0
 11
5018.558
 21
342.85
 31
0
 0
ARC
 8
TOOL_0
 5
74
 10
5038.558
 20
342.85
 30
0
 40
20.0
 50
180.0
 51
270.0
210
0
220
0
230
1.0
 0
LINE
 8
TOOL_0
 5
75
 10
5038.558
 20
322.85
 30
0
 11
5098.558
 21
322.85
 31
0
 0
ARC
 8
TOOL_0
 5
76
 10
5098.558
 20
342.85
 30
0
 40
20.0
 50
270.0
 51
0
210
0
220
0
230
1.0
 0
LINE
 8
TOOL_0
 5
77
 10
5118.558
 20
342.85
 30
0
 11
5118.558
 21
432.85
 31
0
 0
ARC
 8
TOOL_0
 5
78
 10
5098.558
 20
432.85
 30
0
 40
20.0
 50
0
 51
90.0
210
0
220
0
230
1.0
 0
LINE
 8
TOOL_0
 5
79
 10
5098.558
 20
452.85
 30
0
 11
5068.558
 21
452.85
 31
0
 0
LINE
 8
TOOL_0
 5
7A
 10
5068.558
 20
452.85
 30
0
 11
5115.558
 21
1382.85
 31
0
 0
LINE
 8
TOOL_0
 5
7B
 10
5115.558
 20
1382.85
 30
0
 11
5145.558
 21
1382.85
 31
0
 0
LINE
 8
TOOL_0
 5
7C
 10
5145.558
 20
1382.85
 30
0
 11
5145.558
 21
1412.85
 31
0
 0
ARC
 8
TOOL_0
 5
7D
 10
5125.558
 20
1412.85
 30
0
 40
20.0
 50
0
 51
90.0
210
0
220
0
230
1.0
 0
LINE
 8
TOOL_0
 5
7E
 10
5125.558
 20
1432.85
 30
0
 11
5045.558
 21
1432.85
 31
0
 0
ARC
 8
TOOL_0
 5
7F
 10
5045.558
 20
1412.85
 30
0
 40
20.0
 50
90.0
 51
180.0
210
0
220
0
230
1.0
 0
LINE
 8
TOOL_0
 5
80
 10
5025.558
 20
1412.85
 30
0
 11
5025.558
 21
1352.85
 31
0
 0
ARC
 8
TOOL_0
 5
81
 10
5045.558
 20
1352.85
 30
0
 40
20.0
 50
180.0
 51
270.0
210
0
220
0
230
1.0
 0
LINE
 8
TOOL_0
 5
82
 10
5045.558
 20
1332.85
 30
0
 11
5125.558
 21
1332.85
 31
0
 0
ARC
 8
TOOL_0
 5
83
 10
5125.558
 20
1352.85
 30
0
 40
20.0
 50
270.0
 51
0
210
0
220
0
230
1.0
 0
LINE
 8
TOOL_0
 5
84
 10
5145.558
 20
1352.85
 30
0
 11
5145.558
 21
1382.85
 31
0
 0
LINE
 8
TOOL_0
 5
85
 10
5145.558
 20
1382.85
 30
0
 11
5268.785
 21
36.406
 31
0
 0
LINE
 8
TOOL_0
 5
86
 10
5268.785
 20
36.406
 30
0
 11
5244.037
 21
11.657
 31
0
 0
LINE
 8
TOOL_0
 5
87
 10
5244.037
 20
11.657
 30
0
 11
5241.331
 21
10.359
 31
0
 0
ARC
 8
TOOL_0
 5
88
 10
5236.559
 20
11.85
 30
0
 40
4.999506475643
 50
270.0
 51
342.648710017382
210
0
220
0
230
1.0
 0
LINE
 8
TOOL_0
 5
89
 10
5236.559
 20
6.85
 30
0
 11
5144.559
 21
6.85
 31
0
 0
LINE
 8
TOOL_0
 5
8A
 10
5144.559
 20
6.85
 30
0
 11
5144.559
 21
60.85
 31
0
 0
ARC
 8
TOOL_0
 5
8B
 10
5141.559
 20
60.85
 30
0
 40
3.0
 50
0
 51
90.0
210
0
220
0
230
1.0
 0
LINE
 8
TOOL_0
 5
8C
 10
5141.559
 20
63.85
 30
0
 11
4387.559
 21
63.85
 31
0
 0
ARC
 8
TOOL_0
 5
8D
 10
4387.559
 20
60.85
 30
0
 40
3.0
 50
90.0
 51
180.0
210
0
220
0
230
1.0
 0
LINE
 8
TOOL_0
 5
8E
 10
4384.559
 20
60.85
 30
0
 11
4384.559
 21
6.85
 31
0
 0
LINE
 8
TOOL_0
 5
8F
 10
4384.559
 20
6.85
 30
0
 11
2654.559
 21
6.85
 31
0
 0
LINE
 8
TOOL_0
 5
90
 10
2654.559
 20
6.85
 30
0
 11
2654.559
 21
1591.85
 31
0
 0
LINE
 8
TOOL_0
 5
91
 10
2654.559
 20
1591.85
 30
0
 11
3135.559
 21
1591.85
 31
0
 0
LINE
 8
TOOL_0
 5
92
 10
3135.559
 20
1591.85
 30
0
 11
3135.559
 21
1443.85
 31
0
 0
LINE
 8
TOOL_0
 5
93
 10
3135.559
 20
1443.85
 30
0
 11
3100.559
 21
1443.85
 31
0
 0
ARC
 8
TOOL_0
 5
94
 10
3100.559
 20
1422.85
 30
0
 40
21.0
 50
90.0
 51
237.725934078207
210
0
220
0
230
1.0
 0
LINE
 8
TOOL_0
 5
95
 10
3089.346
 20
1405.095
 30
0
 11
3142.031
 21
1371.822
 31
0
 0
ARC
 8
TOOL_0
 5
96
 10
3152.177
 20
1387.886
 30
0
 40
18.999826630788
 50
237.723550532162
 51
333.302781973448
210
0
220
0
230
1.0
 0
LINE
 8
TOOL_0
 5
97
 10
3169.151
 20
1379.35
 30
0
 11
3714.56
 21
1379.35
 31
0
 0
LINE
 8
TOOL_0
 5
98
 10
3714.56
 20
1379.35
 30
0
 11
3714.56
 21
1342.35
 31
0
 0
LINE
 8
TOOL_0
 5
99
 10
3714.56
 20
1342.35
 30
0
 11
3711.56
 21
1342.35
 31
0
 0
ARC
 8
TOOL_0
 5
9A
 10
3711.56
 20
1339.35
 30
0
 40
3.0
 50
90.0
 51
180.0
210
0
220
0
230
1.0
 0
LINE
 8
TOOL_0
 5
9B
 10
3708.56
 20
1339.35
 30
0
 11
3708.56
 21
1292.85
 31
0
 0
ARC
 8
TOOL_0
 5
9C
 10
3907.56
 20
1292.85
 30
0
 40
199.0
 50
180.0
 51
270.0
210
0
220
0
230
1.0
 0
LINE
 8
TOOL_0
 5
9D
 10
3907.56
 20
1093.85
 30
0
 11
4260.56
 21
1093.85
 31
0
 0
ARC
 8
TOOL_0
 5
9E
 10
4260.56
 20
1292.85
 30
0
 40
199.0
 50
270.0
 51
359.99942416302
210
0
220
0
230
1.0
 0
LINE
 8
TOOL_0
 5
9F
 10
4459.56
 20
1292.848
 30
0
 11
4459.56
 21
1453.264
 31
0
 0
LINE
 8
TOOL_0
 5
A0
 10
4459.56
 20
1453.264
 30
0
 11
4465.146
 21
1458.85
 31
0
 0
LINE
 8
TOOL_0
 5
A1
 10
4465.146
 20
1458.85
 30
0
 11
5275.974
 21
1458.85
 31
0
 0
LINE
 8
TOOL_0
 5
A2
 10
5275.974
 20
1458.85
 30
0
 11
5281.56
 21
1453.264
 31
0
 0
LINE
 8
TOOL_0
 5
A3
 10
5281.56
 20
1453.264
 30
0
 11
5281.56
 21
68.85
 31
0
 0
ARC
 8
TOOL_0
 5
A4
 10
5276.56
 20
68.85
 30
0
 40
5.0
 50
270.0
 51
0
210
0
220
0
230
1.0
 0
LINE
 8
TOOL_0
 5
A5
 10
5276.56
 20
63.85
 30
0
 11
5244.56
 21
63.85
 31
0
 0
ARC
 8
TOOL_0
 5
A6
 10
5244.56
 20
60.85
 30
0
 40
3.0
 50
90.0
 51
180.0
210
0
220
0
230
1.0
 0
LINE
 8
TOOL_0
 5
A7
 10
5241.56
 20
60.85
 30
0
 11
5241.56
 21
13.35
 31
0
 0
LINE
 8
TOOL_0
 5
A8
 10
5241.56
 20
13.35
 30
0
 11
5244.039
 21
11.657
 31
0
 0
LINE
 8
TOOL_0
 5
A9
 10
5244.039
 20
11.657
 30
0
 11
5247.575
 21
8.121
 31
0
 0
LINE
 8
TOOL_0
 5
AA
 10
5247.575
 20
8.121
 30
0
 11
5247.575
 21
-0.002
 31
0
 0
LINE
 8
TOOL_0
 5
AB
 10
5247.575
 20
-0.002
 30
0
 11
458.863
 21
1650.062
 31
0
 0
LINE
 8
TOOL_0
 5
AC
 10
458.863
 20
1650.062
 30
0
 11
426.624
 21
1636.438
 31
0
 0
LINE
 8
TOOL_0
 5
AD
 10
426.624
 20
1636.438
 30
0
 11
423.623
 21
1636.475
 31
0
 0
ARC
 8
TOOL_0
 5
AE
 10
415.867
 20
1642.824
 30
0
 40
10.023239845479
 50
270.091462804901
 51
320.696516242419
210
0
220
0
230
1.0
 0
LINE
 8
TOOL_0
 5
AF
 10
415.883
 20
1632.801
 30
0
 11
328.706
 21
1632.801
 31
0
 0
ARC
 8
TOOL_0
 5
B0
 10
328.706
 20
1613.601
 30
0
 40
19.2
 50
90.0
 51
148.07970508667
210
0
220
0
230
1.0
 0
ARC
 8
TOOL_0
 5
B1
 10
293.053
 20
1635.825
 30
0
 40
22.812012624931
 50
239.849505978008
 51
328.048928599655
210
0
220
0
230
1.0
 0
ARC
 8
TOOL_0
 5
B2
 10
246.807
 20
1556.279
 30
0
 40
69.199980809246
 50
59.820087804485
 51
90.0
210
0
220
0
230
1.0
 0
LINE
 8
TOOL_0
 5
B3
 10
246.807
 20
1625.479
 30
0
 11
219.307
 21
1625.479
 31
0
 0
ARC
 8
TOOL_0
 5
B4
 10
219.307
 20
1556.279
 30
0
 40
69.2
 50
90.0
 51
120.179912195515
210
0
220
0
230
1.0
 0
ARC
 8
TOOL_0
 5
B5
 10
173.061
 20
1635.825
 30
0
 40
22.812295807305
 50
211.951071400345
 51
300.150494021992
210
0
220
0
230
1.0
 0
ARC
 8
TOOL_0
 5
B6
 10
137.408
 20
1613.601
 30
0
 40
19.200398771901
 50
31.92029491333
 51
90.0
210
0
220
0
230
1.0
 0
LINE
 8
TOOL_0
 5
B7
 10
137.408
 20
1632.801
 30
0
 11
50.231
 21
1632.801
 31
0
 0
ARC
 8
TOOL_0
 5
B8
 10
50.247
 20
1642.825
 30
0
 40
10.024012769345
 50
202.09223773308
 51
269.908546319466
210
0
220
0
230
1.0
 0
LINE
 8
TOOL_0
 5
B9
 10
40.959
 20
1639.055
 30
0
 11
19.716
 21
1691.634
 31
0
 0
ARC
 8
TOOL_0
 5
BA
 10
11.557
 20
1688.337
 30
0
 40
8.79997102268
 50
22.003320384869
 51
75.523198505332
210
0
220
0
230
1.0
 0
ARC
 8
TOOL_0
 5
BB
 10
16.057
 20
1705.766
 30
0
 40
9.200133912069
 50
180.0
 51
255.52270314299
210
0
220
0
230
1.0
 0
LINE
 8
TOOL_0
 5
BC
 10
6.857
 20
1705.766
 30
0
 11
6.857
 21
1785.401
 31
0
 0
ARC
 8
TOOL_0
 5
BD
 10
16.857
 20
1785.401
 30
0
 40
10.0
 50
90.0
 51
180.0
210
0
220
0
230
1.0
 0
LINE
 8
TOOL_0
 5
BE
 10
16.857
 20
1795.401
 30
0
 11
79.362
 21
1795.401
 31
0
 0
ARC
 8
TOOL_0
 5
BF
 10
79.362
 20
1784.601
 30
0
 40
10.8
 50
48.460740534169
 51
90.0
210
0
220
0
230
1.0
 0
ARC
 8
TOOL_0
 5
C0
 10
21.919
 20
1723.578
 30
0
 40
94.602238208195
 50
43.466652314864
 51
46.928384843842
210
0
220
0
230
1.0
 0
LINE
 8
TOOL_0
 5
C1
 10
90.579
 20
1788.658
 30
0
 11
91.181
 21
1788.08
 31
0
 0
ARC
 8
TOOL_0
 5
C2
 10
98.408
 20
1793.982
 30
0
 40
9.330762723379
 50
219.237129311716
 51
272.7397465832
210
0
220
0
230
1.0
 0
LINE
 8
TOOL_0
 5
C3
 10
98.854
 20
1784.662
 30
0
 11
136.151
 21
1786.617
 31
0
 0
ARC
 8
TOOL_0
 5
C4
 10
134.884
 20
1810.784
 30
0
 40
24.200189627356
 50
273.001090424869
 51
320.000123438967
210
0
220
0
230
1.0
 0
LINE
 8
TOOL_0
 5
C5
 10
153.423
 20
1795.228
 30
0
 11
163.394
 21
1807.111
 31
0
 0
ARC
 8
TOOL_0
 5
C6
 10
217.652
 20
1761.554
 30
0
 40
70.847518044036
 50
90.017791710546
 51
139.981952152145
210
0
220
0
230
1.0
 0
LINE
 8
TOOL_0
 5
C7
 10
217.63
 20
1832.402
 30
0
 11
248.486
 21
1832.402
 31
0
 0
ARC
 8
TOOL_0
 5
C8
 10
248.486
 20
1761.602
 30
0
 40
70.8
 50
41.351276536947
 51
90.0
210
0
220
0
230
1.0
 0
ARC
 8
TOOL_0
 5
C9
 10
-250.323
 20
1332.927
 30
0
 40
728.498581501708
 50
39.389999123718
 51
40.741326157114
210
0
220
0
230
1.0
 0
ARC
 8
TOOL_0
 5
CA
 10
331.231
 20
1810.784
 30
0
 40
24.199493155849
 50
219.999584725572
 51
266.998785615683
210
0
220
0
230
1.0
 0
LINE
 8
TOOL_0
 5
CB
 10
329.964
 20
1786.618
 30
0
 11
367.261
 21
1784.663
 31
0
 0
ARC
 8
TOOL_0
 5
CC
 10
367.742
 20
1793.85
 30
0
 40
9.19958314273
 50
267.002924856545
 51
303.800613645745
210
0
220
0
230
1.0
 0
ARC
 8
TOOL_0
 5
CD
 10
359.816
 20
1803.142
 30
0
 40
21.377743215784
 50
307.601601307169
 51
317.47588751029
210
0
220
0
230
1.0
 0
LINE
 8
TOOL_0
 5
CE
 10
375.571
 20
1788.693
 30
0
 11
379.115
 21
1792.239
 31
0
 0
ARC
 8
TOOL_0
 5
CF
 10
386.777
 20
1784.542
 30
0
 40
10.860481250847
 50
90.131896128692
 51
134.869434936404
210
0
220
0
230
1.0
 0
LINE
 8
TOOL_0
 5
D0
 10
386.752
 20
1795.402
 30
0
 11
449.257
 21
1795.402
 31
0
 0
ARC
 8
TOOL_0
 5
D1
 10
449.257
 20
1785.402
 30
0
 40
10.0
 50
0
 51
90.0
210
0
220
0
230
1.0
 0
LINE
 8
TOOL_0
 5
D2
 10
459.257
 20
1785.402
 30
0
 11
459.257
 21
1705.767
 31
0
 0
ARC
 8
TOOL_0
 5
D3
 10
450.057
 20
1705.767
 30
0
 40
9.2
 50
284.47729685701
 51
0
210
0
220
0
230
1.0
 0
ARC
 8
TOOL_0
 5
D4
 10
454.557
 20
1688.338
 30
0
 40
8.800422773935
 50
104.476801494668
 51
157.996679615131
210
0
220
0
230
1.0
 0
LINE
 8
TOOL_0
 5
D5
 10
446.398
 20
1691.635
 30
0
 11
425.155
 21
1639.056
 31
0
 0
LINE
 8
TOOL_0
 5
D6
 10
425.155
 20
1639.056
 30
0
 11
426.625
 21
1636.439
 31
0
 0
LINE
 8
TOOL_0
 5
D7
 10
426.625
 20
1636.439
 30
0
 11
428.571
 21
1631.833
 31
0
 0
LINE
 8
TOOL_0
 5
D8
 10
428.571
 20
1631.833
 30
0
 11
428.571
 21
-0.002
 31
0
 0
LINE
 8
TOOL_0
 5
D9
 10
428.571
 20
-0.002
 30
0
 11
971.444
 21
1437.261
 31
0
 0
LINE
 8
TOOL_0
 5
DA
 10
971.444
 20
1437.261
 30
0
 11
939.205
 21
1423.637
 31
0
 0
LINE
 8
TOOL_0
 5
DB
 10
939.205
 20
1423.637
 30
0
 11
936.204
 21
1423.674
 31
0
 0
ARC
 8
TOOL_0
 5
DC
 10
928.448
 20
1430.023
 30
0
 40
10.023239845479
 50
270.091462804901
 51
320.696516242419
210
0
220
0
230
1.0
 0
LINE
 8
TOOL_0
 5
DD
 10
928.464
 20
1420.0
 30
0
 11
841.287
 21
1420.0
 31
0
 0
ARC
 8
TOOL_0
 5
DE
 10
841.287
 20
1400.8
 30
0
 40
19.2
 50
90.0
 51
148.07970508667
210
0
220
0
230
1.0
 0
ARC
 8
TOOL_0
 5
DF
 10
805.634
 20
1423.024
 30
0
 40
22.812012624931
 50
239.849505978008
 51
328.048928599655
210
0
220
0
230
1.0
 0
ARC
 8
TOOL_0
 5
E0
 10
759.388
 20
1343.478
 30
0
 40
69.199980809246
 50
59.820087804485
 51
90.0
210
0
220
0
230
1.0
 0
LINE
 8
TOOL_0
 5
E1
 10
759.388
 20
1412.678
 30
0
 11
731.888
 21
1412.678
 31
0
 0
ARC
 8
TOOL_0
 5
E2
 10
731.888
 20
1343.478
 30
0
 40
69.2
 50
90.0
 51
120.179912195515
210
0
220
0
230
1.0
 0
ARC
 8
TOOL_0
 5
E3
 10
685.642
 20
1423.024
 30
0
 40
22.812295807305
 50
211.951071400344
 51
300.150494021992
210
0
220
0
230
1.0
 0
ARC
 8
TOOL_0
 5
E4
 10
649.989
 20
1400.8
 30
0
 40
19.200398771901
 50
31.92029491333
 51
90.0
210
0
220
0
230
1.0
 0
LINE
 8
TOOL_0
 5
E5
 10
649.989
 20
1420.0
 30
0
 11
562.812
 21
1420.0
 31
0
 0
ARC
 8
TOOL_0
 5
E6
 10
562.828
 20
1430.024
 30
0
 40
10.024012769345
 50
202.09223773308
 51
269.908546319466
210
0
220
0
230
1.0
 0
LINE
 8
TOOL_0
 5
E7
 10
553.54
 20
1426.254
 30
0
 11
532.297
 21
1478.833
 31
0
 0
ARC
 8
TOOL_0
 5
E8
 10
524.138
 20
1475.536
 30
0
 40
8.79997102268
 50
22.003320384869
 51
75.523198505332
210
0
220
0
230
1.0
 0
ARC
 8
TOOL_0
 5
E9
 10
528.638
 20
1492.965
 30
0
 40
9.200133912069
 50
180.0
 51
255.52270314299
210
0
220
0
230
1.0
 0
LINE
 8
TOOL_0
 5
EA
 10
519.438
 20
1492.965
 30
0
 11
519.438
 21
1572.6
 31
0
 0
ARC
 8
TOOL_0
 5
EB
 10
529.438
 20
1572.6
 30
0
 40
10.0
 50
90.0
 51
180.0
210
0
220
0
230
1.0
 0
LINE
 8
TOOL_0
 5
EC
 10
529.438
 20
1582.6
 30
0
 11
591.943
 21
1582.6
 31
0
 0
ARC
 8
TOOL_0
 5
ED
 10
591.943
 20
1571.8
 30
0
 40
10.8
 50
48.460740534169
 51
90.0
210
0
220
0
230
1.0
 0
ARC
 8
TOOL_0
 5
EE
 10
534.5
 20
1510.777
 30
0
 40
94.602238208195
 50
43.466652314864
 51
46.928384843842
210
0
220
0
230
1.0
 0
LINE
 8
TOOL_0
 5
EF
 10
603.16
 20
1575.857
 30
0
 11
603.762
 21
1575.279
 31
0
 0
ARC
 8
TOOL_0
 5
F0
 10
610.989
 20
1581.181
 30
0
 40
9.330762723379
 50
219.237129311716
 51
272.7397465832
210
0
220
0
230
1.0
 0
LINE
 8
TOOL_0
 5
F1
 10
611.435
 20
1571.861
 30
0
 11
648.732
 21
1573.816
 31
0
 0
ARC
 8
TOOL_0
 5
F2
 10
647.465
 20
1597.983
 30
0
 40
24.200189627356
 50
273.001090424869
 51
320.000123438967
210
0
220
0
230
1.0
 0
LINE
 8
TOOL_0
 5
F3
 10
666.004
 20
1582.427
 30
0
 11
675.975
 21
1594.31
 31
0
 0
ARC
 8
TOOL_0
 5
F4
 10
730.233
 20
1548.753
 30
0
 40
70.847518044036
 50
90.017791710546
 51
139.981952152145
210
0
220
0
230
1.0
 0
LINE
 8
TOOL_0
 5
F5
 10
730.211
 20
1619.601
 30
0
 11
761.067
 21
1619.601
 31
0
 0
ARC
 8
TOOL_0
 5
F6
 10
761.067
 20
1548.801
 30
0
 40
70.8
 50
41.351276536947
 51
90.0
210
0
220
0
230
1.0
 0
ARC
 8
TOOL_0
 5
F7
 10
262.258
 20
1120.126
 30
0
 40
728.498581501708
 50
39.389999123718
 51
40.741326157114
210
0
220
0
230
1.0
 0
ARC
 8
TOOL_0
 5
F8
 10
843.812
 20
1597.983
 30
0
 40
24.199493155849
 50
219.999584725572
 51
266.998785615683
210
0
220
0
230
1.0
 0
LINE
 8
TOOL_0
 5
F9
 10
842.545
 20
1573.817
 30
0
 11
879.842
 21
1571.862
 31
0
 0
ARC
 8
TOOL_0
 5
FA
 10
880.323
 20
1581.049
 30
0
 40
9.19958314273
 50
267.002924856545
 51
303.800613645745
210
0
220
0
230
1.0
 0
ARC
 8
TOOL_0
 5
FB
 10
872.397
 20
1590.341
 30
0
 40
21.377743215784
 50
307.601601307169
 51
317.47588751029
210
0
220
0
230
1.0
 0
LINE
 8
TOOL_0
 5
FC
 10
888.152
 20
1575.892
 30
0
 11
891.696
 21
1579.438
 31
0
 0
ARC
 8
TOOL_0
 5
FD
 10
899.358
 20
1571.741
 30
0
 40
10.860481250847
 50
90.131896128692
 51
134.869434936404
210
0
220
0
230
1.0
 0
LINE
 8
TOOL_0
 5
FE
 10
899.333
 20
1582.601
 30
0
 11
961.838
 21
1582.601
 31
0
 0
ARC
 8
TOOL_0
 5
FF
 10
961.838
 20
1572.601
 30
0
 40
10.0
 50
0
 51
90.0
210
0
220
0
230
1.0
 0
LINE
 8
TOOL_0
 5
100
 10
971.838
 20
1572.601
 30
0
 11
971.838
 21
1492.966
 31
0
 0
ARC
 8
TOOL_0
 5
101
 10
962.638
 20
1492.966
 30
0
 40
9.2
 50
284.47729685701
 51
0
210
0
220
0
230
1.0
 0
ARC
 8
TOOL_0
 5
102
 10
967.138
 20
1475.537
 30
0
 40
8.800422773935
 50
104.476801494668
 51
157.996679615131
210
0
220
0
230
1.0
 0
LINE
 8
TOOL_0
 5
103
 10
958.979
 20
1478.834
 30
0
 11
937.736
 21
1426.255
 31
0
 0
LINE
 8
TOOL_0
 5
104
 10
937.736
 20
1426.255
 30
0
 11
939.206
 21
1423.638
 31
0
 0
LINE
 8
TOOL_0
 5
105
 10
939.206
 20
1423.638
 30
0
 11
941.152
 21
1419.032
 31
0
 0
LINE
 8
TOOL_0
 5
106
 10
941.152
 20
1419.032
 30
0
 11
941.152
 21
-0.001
 31
0
 0
LINE
 8
TOOL_0
 5
107
 10
941.152
 20
-0.001
 30
0
 11
1611.969
 21
1168.948
 31
0
 0
LINE
 8
TOOL_0
 5
108
 10
1611.969
 20
1168.948
 30
0
 11
1579.729
 21
1155.324
 31
0
 0
LINE
 8
TOOL_0
 5
109
 10
1579.729
 20
1155.324
 30
0
 11
1576.728
 21
1155.361
 31
0
 0
ARC
 8
TOOL_0
 5
10A
 10
1568.972
 20
1161.71
 30
0
 40
10.023239845479
 50
270.091462804901
 51
320.696516242419
210
0
220
0
230
1.0
 0
LINE
 8
TOOL_0
 5
10B
 10
1568.988
 20
1151.687
 30
0
 11
1481.811
 21
1151.687
 31
0
 0
ARC
 8
TOOL_0
 5
10C
 10
1481.811
 20
1132.487
 30
0
 40
19.2
 50
90.0
 51
148.07970508667
210
0
220
0
230
1.0
 0
ARC
 8
TOOL_0
 5
10D
 10
1446.158
 20
1154.711
 30
0
 40
22.812012624931
 50
239.849505978008
 51
328.048928599655
210
0
220
0
230
1.0
 0
ARC
 8
TOOL_0
 5
10E
 10
1399.912
 20
1075.165
 30
0
 40
69.199980809246
 50
59.820087804485
 51
90.0
210
0
220
0
230
1.0
 0
LINE
 8
TOOL_0
 5
10F
 10
1399.912
 20
1144.365
 30
0
 11
1372.412
 21
1144.365
 31
0
 0
ARC
 8
TOOL_0
 5
110
 10
1372.412
 20
1075.165
 30
0
 40
69.2
 50
90.0
 51
120.179912195515
210
0
220
0
230
1.0
 0
ARC
 8
TOOL_0
 5
111
 10
1326.166
 20
1154.711
 30
0
 40
22.812295807305
 50
211.951071400344
 51
300.150494021992
210
0
220
0
230
1.0
 0
ARC
 8
TOOL_0
 5
112
 10
1290.513
 20
1132.487
 30
0
 40
19.200398771901
 50
31.92029491333
 51
90.0
210
0
220
0
230
1.0
 0
LINE
 8
TOOL_0
 5
113
 10
1290.513
 20
1151.687
 30
0
 11
1203.336
 21
1151.687
 31
0
 0
ARC
 8
TOOL_0
 5
114
 10
1203.352
 20
1161.711
 30
0
 40
10.024012769345
 50
202.09223773308
 51
269.908546319465
210
0
220
0
230
1.0
 0
LINE
 8
TOOL_0
 5
115
 10
1194.064
 20
1157.941
 30
0
 11
1172.821
 21
1210.52
 31
0
 0
ARC
 8
TOOL_0
 5
116
 10
1164.662
 20
1207.223
 30
0
 40
8.79997102268
 50
22.003320384869
 51
75.523198505332
210
0
220
0
230
1.0
 0
ARC
 8
TOOL_0
 5
117
 10
1169.162
 20
1224.652
 30
0
 40
9.200133912069
 50
180.0
 51
255.52270314299
210
0
220
0
230
1.0
 0
LINE
 8
TOOL_0
 5
118
 10
1159.962
 20
1224.652
 30
0
 11
1159.962
 21
1304.287
 31
0
 0
ARC
 8
TOOL_0
 5
119
 10
1169.962
 20
1304.287
 30
0
 40
10.0
 50
90.0
 51
180.0
210
0
220
0
230
1.0
 0
LINE
 8
TOOL_0
 5
11A
 10
1169.962
 20
1314.287
 30
0
 11
1232.467
 21
1314.287
 31
0
 0
ARC
 8
TOOL_0
 5
11B
 10
1232.467
 20
1303.487
 30
0
 40
10.8
 50
48.460740534169
 51
90.0
210
0
220
0
230
1.0
 0
ARC
 8
TOOL_0
 5
11C
 10
1175.024
 20
1242.464
 30
0
 40
94.602238208195
 50
43.466652314864
 51
46.928384843842
210
0
220
0
230
1.0
 0
LINE
 8
TOOL_0
 5
11D
 10
1243.684
 20
1307.544
 30
0
 11
1244.286
 21
1306.966
 31
0
 0
ARC
 8
TOOL_0
 5
11E
 10
1251.513
 20
1312.868
 30
0
 40
9.330762723379
 50
219.237129311716
 51
272.739746583199
210
0
220
0
230
1.0
 0
LINE
 8
TOOL_0
 5
11F
 10
1251.959
 20
1303.548
 30
0
 11
1289.256
 21
1305.503
 31
0
 0
ARC
 8
TOOL_0
 5
120
 10
1287.989
 20
1329.67
 30
0
 40
24.200189627356
 50
273.001090424869
 51
320.000123438967
210
0
220
0
230
1.0
 0
LINE
 8
TOOL_0
 5
121
 10
1306.528
 20
1314.114
 30
0
 11
1316.499
 21
1325.997
 31
0
 0
ARC
 8
TOOL_0
 5
122
 10
1370.757
 20
1280.44
 30
0
 40
70.847518044036
 50
90.017791710546
 51
139.981952152145
210
0
220
0
230
1.0
 0
LINE
 8
TOOL_0
 5
123
 10
1370.735
 20
1351.288
 30
0
 11
1401.591
 21
1351.288
 31
0
 0
ARC
 8
TOOL_0
 5
124
 10
1401.591
 20
1280.488
 30
0
 40
70.8
 50
41.351276536947
 51
90.0
210
0
220
0
230
1.0
 0
ARC
 8
TOOL_0
 5
125
 10
902.782
 20
851.813
 30
0
 40
728.498581501708
 50
39.389999123718
 51
40.741326157114
210
0
220
0
230
1.0
 0
ARC
 8
TOOL_0
 5
126
 10
1484.336
 20
1329.67
 30
0
 40
24.199493155849
 50
219.999584725572
 51
266.998785615683
210
0
220
0
230
1.0
 0
LINE
 8
TOOL_0
 5
127
 10
1483.069
 20
1305.504
 30
0
 11
1520.366
 21
1303.549
 31
0
 0
ARC
 8
TOOL_0
 5
128
 10
1520.847
 20
1312.736
 30
0
 40
9.19958314273
 50
267.002924856545
 51
303.800613645744
210
0
220
0
230
1.0
 0
ARC
 8
TOOL_0
 5
129
 10
1512.921
 20
1322.028
 30
0
 40
21.377743215784
 50
307.601601307169
 51
317.475887510291
210
0
220
0
230
1.0
 0
LINE
 8
TOOL_0
 5
12A
 10
1528.676
 20
1307.579
 30
0
 11
1532.22
 21
1311.125
 31
0
 0
ARC
 8
TOOL_0
 5
12B
 10
1539.882
 20
1303.428
 30
0
 40
10.860481250847
 50
90.131896128692
 51
134.869434936404
210
0
220
0
230
1.0
 0
LINE
 8
TOOL_0
 5
12C
 10
1539.857
 20
1314.288
 30
0
 11
1602.362
 21
1314.288
 31
0
 0
ARC
 8
TOOL_0
 5
12D
 10
1602.362
 20
1304.288
 30
0
 40
10.0
 50
0
 51
90.0
210
0
220
0
230
1.0
 0
LINE
 8
TOOL_0
 5
12E
 10
1612.362
 20
1304.288
 30
0
 11
1612.362
 21
1224.653
 31
0
 0
ARC
 8
TOOL_0
 5
12F
 10
1603.162
 20
1224.653
 30
0
 40
9.2
 50
284.477296857009
 51
0
210
0
220
0
230
1.0
 0
ARC
 8
TOOL_0
 5
130
 10
1607.662
 20
1207.224
 30
0
 40
8.800422773935
 50
104.476801494668
 51
157.996679615131
210
0
220
0
230
1.0
 0
LINE
 8
TOOL_0
 5
131
 10
1599.503
 20
1210.521
 30
0
 11
1578.26
 21
1157.942
 31
0
 0
LINE
 8
TOOL_0
 5
132
 10
1578.26
 20
1157.942
 30
0
 11
1579.73
 21
1155.325
 31
0
 0
LINE
 8
TOOL_0
 5
133
 10
1579.73
 20
1155.325
 30
0
 11
1581.676
 21
1150.719
 31
0
 0
LINE
 8
TOOL_0
 5
134
 10
1581.676
 20
1150.719
 30
0
 11
1581.676
 21
-0.001
 31
0
 0
LINE
 8
TOOL_0
 5
135
 10
1581.676
 20
-0.001
 30
0
 11
2110.665
 21
1523.753
 31
0
 0
LINE
 8
TOOL_0
 5
136
 10
2110.665
 20
1523.753
 30
0
 11
2078.425
 21
1510.129
 31
0
 0
LINE
 8
TOOL_0
 5
137
 10
2078.425
 20
1510.129
 30
0
 11
2075.424
 21
1510.166
 31
0
 0
ARC
 8
TOOL_0
 5
138
 10
2067.668
 20
1516.515
 30
0
 40
10.023239845479
 50
270.091462804901
 51
320.696516242418
210
0
220
0
230
1.0
 0
LINE
 8
TOOL_0
 5
139
 10
2067.684
 20
1506.492
 30
0
 11
1980.507
 21
1506.492
 31
0
 0
ARC
 8
TOOL_0
 5
13A
 10
1980.507
 20
1487.292
 30
0
 40
19.2
 50
90.0
 51
148.07970508667
210
0
220
0
230
1.0
 0
ARC
 8
TOOL_0
 5
13B
 10
1944.854
 20
1509.516
 30
0
 40
22.812012624931
 50
239.849505978008
 51
328.048928599655
210
0
220
0
230
1.0
 0
ARC
 8
TOOL_0
 5
13C
 10
1898.608
 20
1429.97
 30
0
 40
69.199980809246
 50
59.820087804485
 51
90.0
210
0
220
0
230
1.0
 0
LINE
 8
TOOL_0
 5
13D
 10
1898.608
 20
1499.17
 30
0
 11
1871.108
 21
1499.17
 31
0
 0
ARC
 8
TOOL_0
 5
13E
 10
1871.108
 20
1429.97
 30
0
 40
69.2
 50
90.0
 51
120.179912195515
210
0
220
0
230
1.0
 0
ARC
 8
TOOL_0
 5
13F
 10
1824.862
 20
1509.516
 30
0
 40
22.812295807306
 50
211.951071400345
 51
300.150494021992
210
0
220
0
230
1.0
 0
ARC
 8
TOOL_0
 5
140
 10
1789.209
 20
1487.292
 30
0
 40
19.200398771901
 50
31.92029491333
 51
90.0
210
0
220
0
230
1.0
 0
LINE
 8
TOOL_0
 5
141
 10
1789.209
 20
1506.492
 30
0
 11
1702.032
 21
1506.492
 31
0
 0
ARC
 8
TOOL_0
 5
142
 10
1702.048
 20
1516.516
 30
0
 40
10.024012769345
 50
202.09223773308
 51
269.908546319465
210
0
220
0
230
1.0
 0
LINE
 8
TOOL_0
 5
143
 10
1692.76
 20
1512.746
 30
0
 11
1671.517
 21
1565.325
 31
0
 0
ARC
 8
TOOL_0
 5
144
 10
1663.358
 20
1562.028
 30
0
 40
8.79997102268
 50
22.003320384869
 51
75.523198505332
210
0
220
0
230
1.0
 0
ARC
 8
TOOL_0
 5
145
 10
1667.858
 20
1579.457
 30
0
 40
9.200133912069
 50
180.0
 51
255.52270314299
210
0
220
0
230
1.0
 0
LINE
 8
TOOL_0
 5
146
 10
1658.658
 20
1579.457
 30
0
 11
1658.658
 21
1659.092
 31
0
 0
ARC
 8
TOOL_0
 5
147
 10
1668.658
 20
1659.092
 30
0
 40
10.0
 50
90.0
 51
180.0
210
0
220
0
230
1.0
 0
LINE
 8
TOOL_0
 5
148
 10
1668.658
 20
1669.092
 30
0
 11
1731.163
 21
1669.092
 31
0
 0
ARC
 8
TOOL_0
 5
149
 10
1731.163
 20
1658.292
 30
0
 40
10.8
 50
48.460740534169
 51
90.0
210
0
220
0
230
1.0
 0
ARC
 8
TOOL_0
 5
14A
 10
1673.72
 20
1597.269
 30
0
 40
94.602238208195
 50
43.466652314864
 51
46.928384843842
210
0
220
0
230
1.0
 0
LINE
 8
TOOL_0
 5
14B
 10
1742.38
 20
1662.349
 30
0
 11
1742.982
 21
1661.771
 31
0
 0
ARC
 8
TOOL_0
 5
14C
 10
1750.209
 20
1667.673
 30
0
 40
9.330762723379
 50
219.237129311716
 51
272.739746583199
210
0
220
0
230
1.0
 0
LINE
 8
TOOL_0
 5
14D
 10
1750.655
 20
1658.353
 30
0
 11
1787.952
 21
1660.308
 31
0
 0
ARC
 8
TOOL_0
 5
14E
 10
1786.685
 20
1684.475
 30
0
 40
24.200189627356
 50
273.001090424869
 51
320.000123438967
210
0
220
0
230
1.0
 0
LINE
 8
TOOL_0
 5
14F
 10
1805.224
 20
1668.919
 30
0
 11
1815.195
 21
1680.802
 31
0
 0
ARC
 8
TOOL_0
 5
150
 10
1869.453
 20
1635.245
 30
0
 40
70.847518044036
 50
90.017791710546
 51
139.981952152145
210
0
220
0
230
1.0
 0
LINE
 8
TOOL_0
 5
151
 10
1869.431
 20
1706.093
 30
0
 11
1900.287
 21
1706.093
 31
0
 0
ARC
 8
TOOL_0
 5
152
 10
1900.287
 20
1635.293
 30
0
 40
70.8
 50
41.351276536947
 51
90.0
210
0
220
0
230
1.0
 0
ARC
 8
TOOL_0
 5
153
 10
1401.478
 20
1206.618
 30
0
 40
728.498581501707
 50
39.389999123718
 51
40.741326157114
210
0
220
0
230
1.0
 0
ARC
 8
TOOL_0
 5
154
 10
1983.032
 20
1684.475
 30
0
 40
24.199493155849
 50
219.999584725572
 51
266.998785615683
210
0
220
0
230
1.0
 0
LINE
 8
TOOL_0
 5
155
 10
1981.765
 20
1660.309
 30
0
 11
2019.062
 21
1658.354
 31
0
 0
ARC
 8
TOOL_0
 5
156
 10
2019.543
 20
1667.541
 30
0
 40
9.19958314273
 50
267.002924856545
 51
303.800613645744
210
0
220
0
230
1.0
 0
ARC
 8
TOOL_0
 5
157
 10
2011.617
 20
1676.833
 30
0
 40
21.377743215784
 50
307.601601307169
 51
317.475887510291
210
0
220
0
230
1.0
 0
LINE
 8
TOOL_0
 5
158
 10
2027.372
 20
1662.384
 30
0
 11
2030.916
 21
1665.93
 31
0
 0
ARC
 8
TOOL_0
 5
159
 10
2038.578
 20
1658.233
 30
0
 40
10.860481250847
 50
90.131896128692
 51
134.869434936404
210
0
220
0
230
1.0
 0
LINE
 8
TOOL_0
 5
15A
 10
2038.553
 20
1669.093
 30
0
 11
2101.058
 21
1669.093
 31
0
 0
ARC
 8
TOOL_0
 5
15B
 10
2101.058
 20
1659.093
 30
0
 40
10.0
 50
0
 51
90.0
210
0
220
0
230
1.0
 0
LINE
 8
TOOL_0
 5
15C
 10
2111.058
 20
1659.093
 30
0
 11
2111.058
 21
1579.458
 31
0
 0
ARC
 8
TOOL_0
 5
15D
 10
2101.858
 20
1579.458
 30
0
 40
9.2
 50
284.477296857008
 51
0
210
0
220
0
230
1.0
 0
ARC
 8
TOOL_0
 5
15E
 10
2106.358
 20
1562.029
 30
0
 40
8.800422773935
 50
104.476801494667
 51
157.99667961513
210
0
220
0
230
1.0
 0
LINE
 8
TOOL_0
 5
15F
 10
2098.199
 20
1565.326
 30
0
 11
2076.956
 21
1512.747
 31
0
 0
LINE
 8
TOOL_0
 5
160
 10
2076.956
 20
1512.747
 30
0
 11
2078.426
 21
1510.13
 31
0
 0
LINE
 8
TOOL_0
 5
161
 10
2078.426
 20
1510.13
 30
0
 11
2080.372
 21
1505.524
 31
0
 0
LINE
 8
TOOL_0
 5
162
 10
2080.372
 20
1505.524
 30
0
 11
2591.677
 21
1530.85
 31
0
 0
LINE
 8
TOOL_0
 5
163
 10
2591.677
 20
1530.85
 30
0
 11
2559.437
 21
1517.226
 31
0
 0
LINE
 8
TOOL_0
 5
164
 10
2559.437
 20
1517.226
 30
0
 11
2556.436
 21
1517.263
 31
0
 0
ARC
 8
TOOL_0
 5
165
 10
2548.68
 20
1523.612
 30
0
 40
10.023239845479
 50
270.091462804901
 51
320.696516242418
210
0
220
0
230
1.0
 0
LINE
 8
TOOL_0
 5
166
 10
2548.696
 20
1513.589
 30
0
 11
2461.519
 21
1513.589
 31
0
 0
ARC
 8
TOOL_0
 5
167
 10
2461.519
 20
1494.389
 30
0
 40
19.2
 50
90.0
 51
148.07970508667
210
0
220
0
230
1.0
 0
ARC
 8
TOOL_0
 5
168
 10
2425.866
 20
1516.613
 30
0
 40
22.812012624931
 50
239.849505978009
 51
328.048928599656
210
0
220
0
230
1.0
 0
ARC
 8
TOOL_0
 5
169
 10
2379.62
 20
1437.067
 30
0
 40
69.199980809246
 50
59.820087804485
 51
90.0
210
0
220
0
230
1.0
 0
LINE
 8
TOOL_0
 5
16A
 10
2379.62
 20
1506.267
 30
0
 11
2352.12
 21
1506.267
 31
0
 0
ARC
 8
TOOL_0
 5
16B
 10
2352.12
 20
1437.067
 30
0
 40
69.2
 50
90.0
 51
120.179912195515
210
0
220
0
230
1.0
 0
ARC
 8
TOOL_0
 5
16C
 10
2305.874
 20
1516.613
 30
0
 40
22.812295807305
 50
211.951071400345
 51
300.150494021992
210
0
220
0
230
1.0
 0
ARC
 8
TOOL_0
 5
16D
 10
2270.221
 20
1494.389
 30
0
 40
19.200398771901
 50
31.92029491333
 51
90.0
210
0
220
0
230
1.0
 0
LINE
 8
TOOL_0
 5
16E
 10
2270.221
 20
1513.589
 30
0
 11
2183.044
 21
1513.589
 31
0
 0
ARC
 8
TOOL_0
 5
16F
 10
2183.06
 20
1523.613
 30
0
 40
10.024012769345
 50
202.09223773308
 51
269.908546319465
210
0
220
0
230
1.0
 0
LINE
 8
TOOL_0
 5
170
 10
2173.772
 20
1519.843
 30
0
 11
2152.529
 21
1572.422
 31
0
 0
ARC
 8
TOOL_0
 5
171
 10
2144.37
 20
1569.125
 30
0
 40
8.79997102268
 50
22.003320384869
 51
75.52319850533
210
0
220
0
230
1.0
 0
ARC
 8
TOOL_0
 5
172
 10
2148.87
 20
1586.554
 30
0
 40
9.200133912069
 50
180.0
 51
255.522703142989
210
0
220
0
230
1.0
 0
LINE
 8
TOOL_0
 5
173
 10
2139.67
 20
1586.554
 30
0
 11
2139.67
 21
1666.189
 31
0
 0
ARC
 8
TOOL_0
 5
174
 10
2149.67
 20
1666.189
 30
0
 40
10.0
 50
90.0
 51
180.0
210
0
220
0
230
1.0
 0
LINE
 8
TOOL_0
 5
175
 10
2149.67
 20
1676.189
 30
0
 11
2212.175
 21
1676.189
 31
0
 0
ARC
 8
TOOL_0
 5
176
 10
2212.175
 20
1665.389
 30
0
 40
10.8
 50
48.46074053417
 51
90.0
210
0
220
0
230
1.0
 0
ARC
 8
TOOL_0
 5
177
 10
2154.732
 20
1604.366
 30
0
 40
94.602238208195
 50
43.466652314864
 51
46.928384843842
210
0
220
0
230
1.0
 0
LINE
 8
TOOL_0
 5
178
 10
2223.392
 20
1669.446
 30
0
 11
2223.994
 21
1668.868
 31
0
 0
ARC
 8
TOOL_0
 5
179
 10
2231.221
 20
1674.77
 30
0
 40
9.330762723379
 50
219.237129311717
 51
272.739746583199
210
0
220
0
230
1.0
 0
LINE
 8
TOOL_0
 5
17A
 10
2231.667
 20
1665.45
 30
0
 11
2268.964
 21
1667.405
 31
0
 0
ARC
 8
TOOL_0
 5
17B
 10
2267.697
 20
1691.572
 30
0
 40
24.200189627356
 50
273.001090424869
 51
320.000123438967
210
0
220
0
230
1.0
 0
LINE
 8
TOOL_0
 5
17C
 10
2286.236
 20
1676.016
 30
0
 11
2296.207
 21
1687.899
 31
0
 0
ARC
 8
TOOL_0
 5
17D
 10
2350.465
 20
1642.342
 30
0
 40
70.847518044036
 50
90.017791710546
 51
139.981952152145
210
0
220
0
230
1.0
 0
LINE
 8
TOOL_0
 5
17E
 10
2350.443
 20
1713.19
 30
0
 11
2381.299
 21
1713.19
 31
0
 0
ARC
 8
TOOL_0
 5
17F
 10
2381.299
 20
1642.39
 30
0
 40
70.8
 50
41.351276536947
 51
90.0
210
0
220
0
230
1.0
 0
ARC
 8
TOOL_0
 5
180
 10
1882.49
 20
1213.715
 30
0
 40
728.498581501707
 50
39.389999123718
 51
40.741326157114
210
0
220
0
230
1.0
 0
ARC
 8
TOOL_0
 5
181
 10
2464.044
 20
1691.572
 30
0
 40
24.199493155849
 50
219.999584725572
 51
266.998785615684
210
0
220
0
230
1.0
 0
LINE
 8
TOOL_0
 5
182
 10
2462.777
 20
1667.406
 30
0
 11
2500.074
 21
1665.451
 31
0
 0
ARC
 8
TOOL_0
 5
183
 10
2500.555
 20
1674.638
 30
0
 40
9.19958314273
 50
267.002924856543
 51
303.800613645744
210
0
220
0
230
1.0
 0
ARC
 8
TOOL_0
 5
184
 10
2492.629
 20
1683.93
 30
0
 40
21.377743215784
 50
307.601601307168
 51
317.47588751029
210
0
220
0
230
1.0
 0
LINE
 8
TOOL_0
 5
185
 10
2508.384
 20
1669.481
 30
0
 11
2511.928
 21
1673.027
 31
0
 0
ARC
 8
TOOL_0
 5
186
 10
2519.59
 20
1665.33
 30
0
 40
10.860481250847
 50
90.13189612869
 51
134.869434936404
210
0
220
0
230
1.0
 0
LINE
 8
TOOL_0
 5
187
 10
2519.565
 20
1676.19
 30
0
 11
2582.07
 21
1676.19
 31
0
 0
ARC
 8
TOOL_0
 5
188
 10
2582.07
 20
1666.19
 30
0
 40
10.0
 50
0
 51
90.0
210
0
220
0
230
1.0
 0
LINE
 8
TOOL_0
 5
189
 10
2592.07
 20
1666.19
 30
0
 11
2592.07
 21
1586.555
 31
0
 0
ARC
 8
TOOL_0
 5
18A
 10
2582.87
 20
1586.555
 30
0
 40
9.2
 50
284.477296857008
 51
0
210
0
220
0
230
1.0
 0
ARC
 8
TOOL_0
 5
18B
 10
2587.37
 20
1569.126
 30
0
 40
8.800422773935
 50
104.476801494667
 51
157.99667961513
210
0
220
0
230
1.0
 0
LINE
 8
TOOL_0
 5
18C
 10
2579.211
 20
1572.423
 30
0
 11
2557.968
 21
1519.844
 31
0
 0
LINE
 8
TOOL_0
 5
18D
 10
2557.968
 20
1519.844
 30
0
 11
2559.438
 21
1517.227
 31
0
 0
LINE
 8
TOOL_0
 5
18E
 10
2559.438
 20
1517.227
 30
0
 11
2561.384
 21
1512.621
 31
0
 0
LINE
 8
TOOL_0
 5
18F
 10
2561.384
 20
1512.621
 30
0
 11
3083.299
 21
1657.871
 31
0
 0
LINE
 8
TOOL_0
 5
190
 10
3083.299
 20
1657.871
 30
0
 11
3051.06
 21
1644.247
 31
0
 0
LINE
 8
TOOL_0
 5
191
 10
3051.06
 20
1644.247
 30
0
 11
3048.059
 21
1644.284
 31
0
 0
ARC
 8
TOOL_0
 5
192
 10
3040.303
 20
1650.633
 30
0
 40
10.023239845479
 50
270.091462804901
 51
320.696516242418
210
0
220
0
230
1.0
 0
LINE
 8
TOOL_0
 5
193
 10
3040.319
 20
1640.61
 30
0
 11
2953.142
 21
1640.61
 31
0
 0
ARC
 8
TOOL_0
 5
194
 10
2953.142
 20
1621.41
 30
0
 40
19.2
 50
90.0
 51
148.07970508667
210
0
220
0
230
1.0
 0
ARC
 8
TOOL_0
 5
195
 10
2917.489
 20
1643.634
 30
0
 40
22.812012624931
 50
239.849505978009
 51
328.048928599656
210
0
220
0
230
1.0
 0
ARC
 8
TOOL_0
 5
196
 10
2871.243
 20
1564.088
 30
0
 40
69.199980809246
 50
59.820087804485
 51
90.0
210
0
220
0
230
1.0
 0
LINE
 8
TOOL_0
 5
197
 10
2871.243
 20
1633.288
 30
0
 11
2843.743
 21
1633.288
 31
0
 0
ARC
 8
TOOL_0
 5
198
 10
2843.743
 20
1564.088
 30
0
 40
69.2
 50
90.0
 51
120.179912195515
210
0
220
0
230
1.0
 0
ARC
 8
TOOL_0
 5
199
 10
2797.497
 20
1643.634
 30
0
 40
22.812295807305
 50
211.951071400345
 51
300.150494021992
210
0
220
0
230
1.0
 0
ARC
 8
TOOL_0
 5
19A
 10
2761.844
 20
1621.41
 30
0
 40
19.200398771901
 50
31.92029491333
 51
90.0
210
0
220
0
230
1.0
 0
LINE
 8
TOOL_0
 5
19B
 10
2761.844
 20
1640.61
 30
0
 11
2674.667
 21
1640.61
 31
0
 0
ARC
 8
TOOL_0
 5
19C
 10
2674.683
 20
1650.634
 30
0
 40
10.024012769345
 50
202.09223773308
 51
269.908546319465
210
0
220
0
230
1.0
 0
LINE
 8
TOOL_0
 5
19D
 10
2665.395
 20
1646.864
 30
0
 11
2644.152
 21
1699.443
 31
0
 0
ARC
 8
TOOL_0
 5
19E
 10
2635.993
 20
1696.146
 30
0
 40
8.79997102268
 50
22.003320384869
 51
75.52319850533
210
0
220
0
230
1.0
 0
ARC
 8
TOOL_0
 5
19F
 10
2640.493
 20
1713.575
 30
0
 40
9.200133912069
 50
180.0
 51
255.522703142989
210
0
220
0
230
1.0
 0
LINE
 8
TOOL_0
 5
1A0
 10
2631.293
 20
1713.575
 30
0
 11
2631.293
 21
1793.21
 31
0
 0
ARC
 8
TOOL_0
 5
1A1
 10
2641.293
 20
1793.21
 30
0
 40
10.0
 50
90.0
 51
180.0
210
0
220
0
230
1.0
 0
LINE
 8
TOOL_0
 5
1A2
 10
2641.293
 20
1803.21
 30
0
 11
2703.798
 21
1803.21
 31
0
 0
ARC
 8
TOOL_0
 5
1A3
 10
2703.798
 20
1792.41
 30
0
 40
10.8
 50
48.46074053417
 51
90.0
210
0
220
0
230
1.0
 0
ARC
 8
TOOL_0
 5
1A4
 10
2646.355
 20
1731.387
 30
0
 40
94.602238208195
 50
43.466652314864
 51
46.928384843842
210
0
220
0
230
1.0
 0
LINE
 8
TOOL_0
 5
1A5
 10
2715.015
 20
1796.467
 30
0
 11
2715.617
 21
1795.889
 31
0
 0
ARC
 8
TOOL_0
 5
1A6
 10
2722.844
 20
1801.791
 30
0
 40
9.330762723379
 50
219.237129311717
 51
272.739746583199
210
0
220
0
230
1.0
 0
LINE
 8
TOOL_0
 5
1A7
 10
2723.29
 20
1792.471
 30
0
 11
2760.587
 21
1794.426
 31
0
 0
ARC
 8
TOOL_0
 5
1A8
 10
2759.32
 20
1818.593
 30
0
 40
24.200189627356
 50
273.001090424869
 51
320.000123438967
210
0
220
0
230
1.0
 0
LINE
 8
TOOL_0
 5
1A9
 10
2777.859
 20
1803.037
 30
0
 11
2787.83
 21
1814.92
 31
0
 0
ARC
 8
TOOL_0
 5
1AA
 10
2842.088
 20
1769.363
 30
0
 40
70.847518044036
 50
90.017791710546
 51
139.981952152145
210
0
220
0
230
1.0
 0
LINE
 8
TOOL_0
 5
1AB
 10
2842.066
 20
1840.211
 30
0
 11
2872.922
 21
1840.211
 31
0
 0
ARC
 8
TOOL_0
 5
1AC
 10
2872.922
 20
1769.411
 30
0
 40
70.8
 50
41.351276536947
 51
90.0
210
0
220
0
230
1.0
 0
ARC
 8
TOOL_0
 5
1AD
 10
2374.113
 20
1340.736
 30
0
 40
728.498581501707
 50
39.389999123718
 51
40.741326157114
210
0
220
0
230
1.0
 0
ARC
 8
TOOL_0
 5
1AE
 10
2955.667
 20
1818.593
 30
0
 40
24.199493155849
 50
219.999584725572
 51
266.998785615684
210
0
220
0
230
1.0
 0
LINE
 8
TOOL_0
 5
1AF
 10
2954.4
 20
1794.427
 30
0
 11
2991.697
 21
1792.472
 31
0
 0
ARC
 8
TOOL_0
 5
1B0
 10
2992.178
 20
1801.659
 30
0
 40
9.19958314273
 50
267.002924856543
 51
303.800613645744
210
0
220
0
230
1.0
 0
ARC
 8
TOOL_0
 5
1B1
 10
2984.252
 20
1810.951
 30
0
 40
21.377743215784
 50
307.601601307168
 51
317.47588751029
210
0
220
0
230
1.0
 0
LINE
 8
TOOL_0
 5
1B2
 10
3000.007
 20
1796.502
 30
0
 11
3003.551
 21
1800.048
 31
0
 0
ARC
 8
TOOL_0
 5
1B3
 10
3011.213
 20
1792.351
 30
0
 40
10.860481250847
 50
90.13189612869
 51
134.869434936404
210
0
220
0
230
1.0
 0
LINE
 8
TOOL_0
 5
1B4
 10
3011.188
 20
1803.211
 30
0
 11
3073.693
 21
1803.211
 31
0
 0
ARC
 8
TOOL_0
 5
1B5
 10
3073.693
 20
1793.211
 30
0
 40
10.0
 50
0
 51
90.0
210
0
220
0
230
1.0
 0
LINE
 8
TOOL_0
 5
1B6
 10
3083.693
 20
1793.211
 30
0
 11
3083.693
 21
1713.576
 31
0
 0
ARC
 8
TOOL_0
 5
1B7
 10
3074.493
 20
1713.576
 30
0
 40
9.2
 50
284.477296857008
 51
0
210
0
220
0
230
1.0
 0
ARC
 8
TOOL_0
 5
1B8
 10
3078.993
 20
1696.147
 30
0
 40
8.800422773935
 50
104.476801494667
 51
157.99667961513
210
0
220
0
230
1.0
 0
LINE
 8
TOOL_0
 5
1B9
 10
3070.834
 20
1699.444
 30
0
 11
3049.591
 21
1646.865
 31
0
 0
LINE
 8
TOOL_0
 5
1BA
 10
3049.591
 20
1646.865
 30
0
 11
3051.061
 21
1644.248
 31
0
 0
LINE
 8
TOOL_0
 5
1BB
 10
3051.061
 20
1644.248
 30
0
 11
3053.007
 21
1639.642
 31
0
 0
LINE
 8
TOOL_0
 5
1BC
 10
3053.007
 20
1639.642
 30
0
 11
3053.007
 21
0.002
 31
0
 0
LINE
 8
TOOL_0
 5
1BD
 10
3053.007
 20
0.002
 30
0
 11
3638.585
 21
1440.813
 31
0
 0
LINE
 8
TOOL_0
 5
1BE
 10
3638.585
 20
1440.813
 30
0
 11
3606.346
 21
1427.189
 31
0
 0
LINE
 8
TOOL_0
 5
1BF
 10
3606.346
 20
1427.189
 30
0
 11
3603.345
 21
1427.226
 31
0
 0
ARC
 8
TOOL_0
 5
1C0
 10
3595.589
 20
1433.575
 30
0
 40
10.023239845479
 50
270.091462804901
 51
320.696516242418
210
0
220
0
230
1.0
 0
LINE
 8
TOOL_0
 5
1C1
 10
3595.605
 20
1423.552
 30
0
 11
3508.428
 21
1423.552
 31
0
 0
ARC
 8
TOOL_0
 5
1C2
 10
3508.428
 20
1404.352
 30
0
 40
19.2
 50
90.0
 51
148.07970508667
210
0
220
0
230
1.0
 0
ARC
 8
TOOL_0
 5
1C3
 10
3472.775
 20
1426.576
 30
0
 40
22.812012624931
 50
239.849505978009
 51
328.048928599656
210
0
220
0
230
1.0
 0
ARC
 8
TOOL_0
 5
1C4
 10
3426.529
 20
1347.03
 30
0
 40
69.199980809246
 50
59.820087804485
 51
90.0
210
0
220
0
230
1.0
 0
LINE
 8
TOOL_0
 5
1C5
 10
3426.529
 20
1416.23
 30
0
 11
3399.029
 21
1416.23
 31
0
 0
ARC
 8
TOOL_0
 5
1C6
 10
3399.029
 20
1347.03
 30
0
 40
69.2
 50
90.0
 51
120.179912195515
210
0
220
0
230
1.0
 0
ARC
 8
TOOL_0
 5
1C7
 10
3352.783
 20
1426.576
 30
0
 40
22.812295807305
 50
211.951071400345
 51
300.150494021992
210
0
220
0
230
1.0
 0
ARC
 8
TOOL_0
 5
1C8
 10
3317.13
 20
1404.352
 30
0
 40
19.200398771901
 50
31.92029491333
 51
90.0
210
0
220
0
230
1.0
 0
LINE
 8
TOOL_0
 5
1C9
 10
3317.13
 20
1423.552
 30
0
 11
3229.953
 21
1423.552
 31
0
 0
ARC
 8
TOOL_0
 5
1CA
 10
3229.969
 20
1433.576
 30
0
 40
10.024012769345
 50
202.09223773308
 51
269.908546319465
210
0
220
0
230
1.0
 0
LINE
 8
TOOL_0
 5
1CB
 10
3220.681
 20
1429.806
 30
0
 11
3199.438
 21
1482.385
 31
0
 0
ARC
 8
TOOL_0
 5
1CC
 10
3191.279
 20
1479.088
 30
0
 40
8.79997102268
 50
22.003320384869
 51
75.52319850533
210
0
220
0
230
1.0
 0
ARC
 8
TOOL_0
 5
1CD
 10
3195.779
 20
1496.517
 30
0
 40
9.200133912069
 50
180.0
 51
255.522703142989
210
0
220
0
230
1.0
 0
LINE
 8
TOOL_0
 5
1CE
 10
3186.579
 20
1496.517
 30
0
 11
3186.579
 21
1576.152
 31
0
 0
ARC
 8
TOOL_0
 5
1CF
 10
3196.579
 20
1576.152
 30
0
 40
10.0
 50
90.0
 51
180.0
210
0
220
0
230
1.0
 0
LINE
 8
TOOL_0
 5
1D0
 10
3196.579
 20
1586.152
 30
0
 11
3259.084
 21
1586.152
 31
0
 0
ARC
 8
TOOL_0
 5
1D1
 10
3259.084
 20
1575.352
 30
0
 40
10.8
 50
48.46074053417
 51
90.0
210
0
220
0
230
1.0
 0
ARC
 8
TOOL_0
 5
1D2
 10
3201.641
 20
1514.329
 30
0
 40
94.602238208195
 50
43.466652314864
 51
46.928384843842
210
0
220
0
230
1.0
 0
LINE
 8
TOOL_0
 5
1D3
 10
3270.301
 20
1579.409
 30
0
 11
3270.903
 21
1578.831
 31
0
 0
ARC
 8
TOOL_0
 5
1D4
 10
3278.13
 20
1584.733
 30
0
 40
9.330762723379
 50
219.237129311717
 51
272.739746583199
210
0
220
0
230
1.0
 0
LINE
 8
TOOL_0
 5
1D5
 10
3278.576
 20
1575.413
 30
0
 11
3315.873
 21
1577.368
 31
0
 0
ARC
 8
TOOL_0
 5
1D6
 10
3314.606
 20
1601.535
 30
0
 40
24.200189627356
 50
273.001090424869
 51
320.000123438967
210
0
220
0
230
1.0
 0
LINE
 8
TOOL_0
 5
1D7
 10
3333.145
 20
1585.979
 30
0
 11
3343.116
 21
1597.862
 31
0
 0
ARC
 8
TOOL_0
 5
1D8
 10
3397.374
 20
1552.305
 30
0
 40
70.847518044036
 50
90.017791710546
 51
139.981952152145
210
0
220
0
230
1.0
 0
LINE
 8
TOOL_0
 5
1D9
 10
3397.352
 20
1623.153
 30
0
 11
3428.208
 21
1623.153
 31
0
 0
ARC
 8
TOOL_0
 5
1DA
 10
3428.208
 20
1552.353
 30
0
 40
70.8
 50
41.351276536947
 51
90.0
210
0
220
0
230
1.0
 0
ARC
 8
TOOL_0
 5
1DB
 10
2929.399
 20
1123.678
 30
0
 40
728.498581501707
 50
39.389999123718
 51
40.741326157114
210
0
220
0
230
1.0
 0
ARC
 8
TOOL_0
 5
1DC
 10
3510.953
 20
1601.535
 30
0
 40
24.199493155849
 50
219.999584725572
 51
266.998785615684
210
0
220
0
230
1.0
 0
LINE
 8
TOOL_0
 5
1DD
 10
3509.686
 20
1577.369
 30
0
 11
3546.983
 21
1575.414
 31
0
 0
ARC
 8
TOOL_0
 5
1DE
 10
3547.464
 20
1584.601
 30
0
 40
9.19958314273
 50
267.002924856543
 51
303.800613645744
210
0
220
0
230
1.0
 0
ARC
 8
TOOL_0
 5
1DF
 10
3539.538
 20
1593.893
 30
0
 40
21.377743215784
 50
307.601601307168
 51
317.47588751029
210
0
220
0
230
1.0
 0
LINE
 8
TOOL_0
 5
1E0
 10
3555.293
 20
1579.444
 30
0
 11
3558.837
 21
1582.99
 31
0
 0
ARC
 8
TOOL_0
 5
1E1
 10
3566.499
 20
1575.293
 30
0
 40
10.860481250847
 50
90.13189612869
 51
134.869434936404
210
0
220
0
230
1.0
 0
LINE
 8
TOOL_0
 5
1E2
 10
3566.474
 20
1586.153
 30
0
 11
3628.979
 21
1586.153
 31
0
 0
ARC
 8
TOOL_0
 5
1E3
 10
3628.979
 20
1576.153
 30
0
 40
10.0
 50
0
 51
90.0
210
0
220
0
230
1.0
 0
LINE
 8
TOOL_0
 5
1E4
 10
3638.979
 20
1576.153
 30
0
 11
3638.979
 21
1496.518
 31
0
 0
ARC
 8
TOOL_0
 5
1E5
 10
3629.779
 20
1496.518
 30
0
 40
9.2
 50
284.477296857008
 51
0
210
0
220
0
230
1.0
 0
ARC
 8
TOOL_0
 5
1E6
 10
3634.279
 20
1479.089
 30
0
 40
8.800422773935
 50
104.476801494667
 51
157.99667961513
210
0
220
0
230
1.0
 0
LINE
 8
TOOL_0
 5
1E7
 10
3626.12
 20
1482.386
 30
0
 11
3604.877
 21
1429.807
 31
0
 0
LINE
 8
TOOL_0
 5
1E8
 10
3604.877
 20
1429.807
 30
0
 11
3606.347
 21
1427.19
 31
0
 0
LINE
 8
TOOL_0
 5
1E9
 10
3606.347
 20
1427.19
 30
0
 11
3608.293
 21
1422.584
 31
0
 0
LINE
 8
TOOL_0
 5
1EA
 10
3608.293
 20
1422.584
 30
0
 11
3608.293
 21
0.003
 31
0
 0
LINE
 8
TOOL_0
 5
1EB
 10
3608.293
 20
0.003
 30
0
 11
4253.998
 21
1168.952
 31
0
 0
LINE
 8
TOOL_0
 5
1EC
 10
4253.998
 20
1168.952
 30
0
 11
4221.759
 21
1155.328
 31
0
 0
LINE
 8
TOOL_0
 5
1ED
 10
4221.759
 20
1155.328
 30
0
 11
4218.758
 21
1155.365
 31
0
 0
ARC
 8
TOOL_0
 5
1EE
 10
4211.002
 20
1161.714
 30
0
 40
10.023239845479
 50
270.091462804904
 51
320.69651624242
210
0
220
0
230
1.0
 0
LINE
 8
TOOL_0
 5
1EF
 10
4211.018
 20
1151.691
 30
0
 11
4123.841
 21
1151.691
 31
0
 0
ARC
 8
TOOL_0
 5
1F0
 10
4123.841
 20
1132.491
 30
0
 40
19.2
 50
90.0
 51
148.079705086669
210
0
220
0
230
1.0
 0
ARC
 8
TOOL_0
 5
1F1
 10
4088.188
 20
1154.715
 30
0
 40
22.812012624931
 50
239.849505978009
 51
328.048928599656
210
0
220
0
230
1.0
 0
ARC
 8
TOOL_0
 5
1F2
 10
4041.942
 20
1075.169
 30
0
 40
69.199980809246
 50
59.820087804485
 51
90.0
210
0
220
0
230
1.0
 0
LINE
 8
TOOL_0
 5
1F3
 10
4041.942
 20
1144.369
 30
0
 11
4014.442
 21
1144.369
 31
0
 0
ARC
 8
TOOL_0
 5
1F4
 10
4014.442
 20
1075.169
 30
0
 40
69.2
 50
90.0
 51
120.179912195515
210
0
220
0
230
1.0
 0
ARC
 8
TOOL_0
 5
1F5
 10
3968.196
 20
1154.715
 30
0
 40
22.812295807306
 50
211.951071400345
 51
300.150494021992
210
0
220
0
230
1.0
 0
ARC
 8
TOOL_0
 5
1F6
 10
3932.543
 20
1132.491
 30
0
 40
19.200398771901
 50
31.92029491333
 51
90.0
210
0
220
0
230
1.0
 0
LINE
 8
TOOL_0
 5
1F7
 10
3932.543
 20
1151.691
 30
0
 11
3845.366
 21
1151.691
 31
0
 0
ARC
 8
TOOL_0
 5
1F8
 10
3845.382
 20
1161.715
 30
0
 40
10.024012769345
 50
202.09223773308
 51
269.908546319465
210
0
220
0
230
1.0
 0
LINE
 8
TOOL_0
 5
1F9
 10
3836.094
 20
1157.945
 30
0
 11
3814.851
 21
1210.524
 31
0
 0
ARC
 8
TOOL_0
 5
1FA
 10
3806.692
 20
1207.227
 30
0
 40
8.79997102268
 50
22.003320384869
 51
75.52319850533
210
0
220
0
230
1.0
 0
ARC
 8
TOOL_0
 5
1FB
 10
3811.192
 20
1224.656
 30
0
 40
9.200133912069
 50
180.0
 51
255.522703142989
210
0
220
0
230
1.0
 0
LINE
 8
TOOL_0
 5
1FC
 10
3801.992
 20
1224.656
 30
0
 11
3801.992
 21
1304.291
 31
0
 0
ARC
 8
TOOL_0
 5
1FD
 10
3811.992
 20
1304.291
 30
0
 40
10.0
 50
90.0
 51
180.0
210
0
220
0
230
1.0
 0
LINE
 8
TOOL_0
 5
1FE
 10
3811.992
 20
1314.291
 30
0
 11
3874.497
 21
1314.291
 31
0
 0
ARC
 8
TOOL_0
 5
1FF
 10
3874.497
 20
1303.491
 30
0
 40
10.8
 50
48.46074053417
 51
90.0
210
0
220
0
230
1.0
 0
ARC
 8
TOOL_0
 5
200
 10
3817.054
 20
1242.468
 30
0
 40
94.602238208195
 50
43.466652314864
 51
46.928384843842
210
0
220
0
230
1.0
 0
LINE
 8
TOOL_0
 5
201
 10
3885.714
 20
1307.548
 30
0
 11
3886.316
 21
1306.97
 31
0
 0
ARC
 8
TOOL_0
 5
202
 10
3893.543
 20
1312.872
 30
0
 40
9.330762723379
 50
219.237129311717
 51
272.739746583199
210
0
220
0
230
1.0
 0
LINE
 8
TOOL_0
 5
203
 10
3893.989
 20
1303.552
 30
0
 11
3931.286
 21
1305.507
 31
0
 0
ARC
 8
TOOL_0
 5
204
 10
3930.019
 20
1329.674
 30
0
 40
24.200189627356
 50
273.001090424869
 51
320.000123438967
210
0
220
0
230
1.0
 0
LINE
 8
TOOL_0
 5
205
 10
3948.558
 20
1314.118
 30
0
 11
3958.529
 21
1326.001
 31
0
 0
ARC
 8
TOOL_0
 5
206
 10
4012.787
 20
1280.444
 30
0
 40
70.847518044036
 50
90.017791710546
 51
139.981952152145
210
0
220
0
230
1.0
 0
LINE
 8
TOOL_0
 5
207
 10
4012.765
 20
1351.292
 30
0
 11
4043.621
 21
1351.292
 31
0
 0
ARC
 8
TOOL_0
 5
208
 10
4043.621
 20
1280.492
 30
0
 40
70.8
 50
41.351276536948
 51
90.0
210
0
220
0
230
1.0
 0
ARC
 8
TOOL_0
 5
209
 10
3544.812
 20
851.817
 30
0
 40
728.498581501707
 50
39.389999123718
 51
40.741326157114
210
0
220
0
230
1.0
 0
ARC
 8
TOOL_0
 5
20A
 10
4126.366
 20
1329.674
 30
0
 40
24.199493155849
 50
219.999584725572
 51
266.998785615684
210
0
220
0
230
1.0
 0
LINE
 8
TOOL_0
 5
20B
 10
4125.099
 20
1305.508
 30
0
 11
4162.396
 21
1303.553
 31
0
 0
ARC
 8
TOOL_0
 5
20C
 10
4162.877
 20
1312.74
 30
0
 40
9.19958314273
 50
267.002924856546
 51
303.800613645747
210
0
220
0
230
1.0
 0
ARC
 8
TOOL_0
 5
20D
 10
4154.951
 20
1322.032
 30
0
 40
21.377743215784
 50
307.601601307168
 51
317.475887510291
210
0
220
0
230
1.0
 0
LINE
 8
TOOL_0
 5
20E
 10
4170.706
 20
1307.583
 30
0
 11
4174.25
 21
1311.129
 31
0
 0
ARC
 8
TOOL_0
 5
20F
 10
4181.912
 20
1303.432
 30
0
 40
10.860481250847
 50
90.131896128695
 51
134.869434936405
210
0
220
0
230
1.0
 0
LINE
 8
TOOL_0
 5
210
 10
4181.887
 20
1314.292
 30
0
 11
4244.392
 21
1314.292
 31
0
 0
ARC
 8
TOOL_0
 5
211
 10
4244.392
 20
1304.292
 30
0
 40
10.0
 50
0
 51
90.0
210
0
220
0
230
1.0
 0
LINE
 8
TOOL_0
 5
212
 10
4254.392
 20
1304.292
 30
0
 11
4254.392
 21
1224.657
 31
0
 0
ARC
 8
TOOL_0
 5
213
 10
4245.192
 20
1224.657
 30
0
 40
9.2
 50
284.477296857011
 51
0
210
0
220
0
230
1.0
 0
ARC
 8
TOOL_0
 5
214
 10
4249.692
 20
1207.228
 30
0
 40
8.800422773935
 50
104.476801494667
 51
157.99667961513
210
0
220
0
230
1.0
 0
LINE
 8
TOOL_0
 5
215
 10
4241.533
 20
1210.525
 30
0
 11
4220.29
 21
1157.946
 31
0
 0
LINE
 8
TOOL_0
 5
216
 10
4220.29
 20
1157.946
 30
0
 11
4221.76
 21
1155.329
 31
0
 0
LINE
 8
TOOL_0
 5
217
 10
4221.76
 20
1155.329
 30
0
 11
4223.706
 21
1150.723
 31
0
 0
LINE
 8
TOOL_0
 5
218
 10
4223.706
 20
1150.723
 30
0
 11
4223.706
 21
0.003
 31
0
 0
LINE
 8
TOOL_0
 5
219
 10
4223.706
 20
0.003
 30
0
 11
4756.232
 21
1534.401
 31
0
 0
LINE
 8
TOOL_0
 5
21A
 10
4756.232
 20
1534.401
 30
0
 11
4723.993
 21
1520.777
 31
0
 0
LINE
 8
TOOL_0
 5
21B
 10
4723.993
 20
1520.777
 30
0
 11
4720.992
 21
1520.814
 31
0
 0
ARC
 8
TOOL_0
 5
21C
 10
4713.236
 20
1527.163
 30
0
 40
10.023239845479
 50
270.091462804904
 51
320.69651624242
210
0
220
0
230
1.0
 0
LINE
 8
TOOL_0
 5
21D
 10
4713.252
 20
1517.14
 30
0
 11
4626.075
 21
1517.14
 31
0
 0
ARC
 8
TOOL_0
 5
21E
 10
4626.075
 20
1497.94
 30
0
 40
19.2
 50
90.0
 51
148.079705086669
210
0
220
0
230
1.0
 0
ARC
 8
TOOL_0
 5
21F
 10
4590.422
 20
1520.164
 30
0
 40
22.812012624931
 50
239.849505978007
 51
328.048928599655
210
0
220
0
230
1.0
 0
ARC
 8
TOOL_0
 5
220
 10
4544.176
 20
1440.618
 30
0
 40
69.199980809246
 50
59.820087804485
 51
90.0
210
0
220
0
230
1.0
 0
LINE
 8
TOOL_0
 5
221
 10
4544.176
 20
1509.818
 30
0
 11
4516.676
 21
1509.818
 31
0
 0
ARC
 8
TOOL_0
 5
222
 10
4516.676
 20
1440.618
 30
0
 40
69.2
 50
90.0
 51
120.179912195515
210
0
220
0
230
1.0
 0
ARC
 8
TOOL_0
 5
223
 10
4470.43
 20
1520.164
 30
0
 40
22.812295807305
 50
211.951071400344
 51
300.150494021991
210
0
220
0
230
1.0
 0
ARC
 8
TOOL_0
 5
224
 10
4434.777
 20
1497.94
 30
0
 40
19.2003987719
 50
31.92029491333
 51
90.0
210
0
220
0
230
1.0
 0
LINE
 8
TOOL_0
 5
225
 10
4434.777
 20
1517.14
 30
0
 11
4347.6
 21
1517.14
 31
0
 0
ARC
 8
TOOL_0
 5
226
 10
4347.616
 20
1527.164
 30
0
 40
10.024012769345
 50
202.092237733081
 51
269.908546319468
210
0
220
0
230
1.0
 0
LINE
 8
TOOL_0
 5
227
 10
4338.328
 20
1523.394
 30
0
 11
4317.085
 21
1575.973
 31
0
 0
ARC
 8
TOOL_0
 5
228
 10
4308.926
 20
1572.676
 30
0
 40
8.799971022679
 50
22.00332038487
 51
75.523198505333
210
0
220
0
230
1.0
 0
ARC
 8
TOOL_0
 5
229
 10
4313.426
 20
1590.105
 30
0
 40
9.200133912069
 50
180.0
 51
255.522703142989
210
0
220
0
230
1.0
 0
LINE
 8
TOOL_0
 5
22A
 10
4304.226
 20
1590.105
 30
0
 11
4304.226
 21
1669.74
 31
0
 0
ARC
 8
TOOL_0
 5
22B
 10
4314.226
 20
1669.74
 30
0
 40
10.0
 50
90.0
 51
180.0
210
0
220
0
230
1.0
 0
LINE
 8
TOOL_0
 5
22C
 10
4314.226
 20
1679.74
 30
0
 11
4376.731
 21
1679.74
 31
0
 0
ARC
 8
TOOL_0
 5
22D
 10
4376.731
 20
1668.94
 30
0
 40
10.8
 50
48.460740534168
 51
90.0
210
0
220
0
230
1.0
 0
ARC
 8
TOOL_0
 5
22E
 10
4319.288
 20
1607.917
 30
0
 40
94.602238208194
 50
43.466652314864
 51
46.928384843842
210
0
220
0
230
1.0
 0
LINE
 8
TOOL_0
 5
22F
 10
4387.948
 20
1672.997
 30
0
 11
4388.55
 21
1672.419
 31
0
 0
ARC
 8
TOOL_0
 5
230
 10
4395.777
 20
1678.321
 30
0
 40
9.330762723379
 50
219.237129311717
 51
272.739746583199
210
0
220
0
230
1.0
 0
LINE
 8
TOOL_0
 5
231
 10
4396.223
 20
1669.001
 30
0
 11
4433.52
 21
1670.956
 31
0
 0
ARC
 8
TOOL_0
 5
232
 10
4432.253
 20
1695.123
 30
0
 40
24.200189627356
 50
273.001090424869
 51
320.000123438967
210
0
220
0
230
1.0
 0
LINE
 8
TOOL_0
 5
233
 10
4450.792
 20
1679.567
 30
0
 11
4460.763
 21
1691.45
 31
0
 0
ARC
 8
TOOL_0
 5
234
 10
4515.021
 20
1645.893
 30
0
 40
70.847518044036
 50
90.017791710546
 51
139.981952152145
210
0
220
0
230
1.0
 0
LINE
 8
TOOL_0
 5
235
 10
4514.999
 20
1716.741
 30
0
 11
4545.855
 21
1716.741
 31
0
 0
ARC
 8
TOOL_0
 5
236
 10
4545.855
 20
1645.941
 30
0
 40
70.8
 50
41.351276536947
 51
90.0
210
0
220
0
230
1.0
 0
ARC
 8
TOOL_0
 5
237
 10
4047.046
 20
1217.266
 30
0
 40
728.498581501707
 50
39.389999123718
 51
40.741326157114
210
0
220
0
230
1.0
 0
ARC
 8
TOOL_0
 5
238
 10
4628.6
 20
1695.123
 30
0
 40
24.199493155849
 50
219.999584725572
 51
266.998785615684
210
0
220
0
230
1.0
 0
LINE
 8
TOOL_0
 5
239
 10
4627.333
 20
1670.957
 30
0
 11
4664.63
 21
1669.002
 31
0
 0
ARC
 8
TOOL_0
 5
23A
 10
4665.111
 20
1678.189
 30
0
 40
9.19958314273
 50
267.002924856546
 51
303.800613645747
210
0
220
0
230
1.0
 0
ARC
 8
TOOL_0
 5
23B
 10
4657.185
 20
1687.481
 30
0
 40
21.377743215784
 50
307.601601307168
 51
317.475887510291
210
0
220
0
230
1.0
 0
LINE
 8
TOOL_0
 5
23C
 10
4672.94
 20
1673.032
 30
0
 11
4676.484
 21
1676.578
 31
0
 0
ARC
 8
TOOL_0
 5
23D
 10
4684.146
 20
1668.881
 30
0
 40
10.860481250847
 50
90.131896128695
 51
134.869434936405
210
0
220
0
230
1.0
 0
LINE
 8
TOOL_0
 5
23E
 10
4684.121
 20
1679.741
 30
0
 11
4746.626
 21
1679.741
 31
0
 0
ARC
 8
TOOL_0
 5
23F
 10
4746.626
 20
1669.741
 30
0
 40
10.0
 50
0
 51
90.0
210
0
220
0
230
1.0
 0
LINE
 8
TOOL_0
 5
240
 10
4756.626
 20
1669.741
 30
0
 11
4756.626
 21
1590.106
 31
0
 0
ARC
 8
TOOL_0
 5
241
 10
4747.426
 20
1590.106
 30
0
 40
9.2
 50
284.477296857011
 51
0
210
0
220
0
230
1.0
 0
ARC
 8
TOOL_0
 5
242
 10
4751.926
 20
1572.677
 30
0
 40
8.800422773935
 50
104.476801494667
 51
157.99667961513
210
0
220
0
230
1.0
 0
LINE
 8
TOOL_0
 5
243
 10
4743.767
 20
1575.974
 30
0
 11
4722.524
 21
1523.395
 31
0
 0
LINE
 8
TOOL_0
 5
244
 10
4722.524
 20
1523.395
 30
0
 11
4723.994
 21
1520.778
 31
0
 0
LINE
 8
TOOL_0
 5
245
 10
4723.994
 20
1520.778
 30
0
 11
4725.94
 21
1516.172
 31
0
 0
LINE
 8
TOOL_0
 5
246
 10
4725.94
 20
1516.172
 30
0
 11
5237.245
 21
1534.402
 31
0
 0
LINE
 8
TOOL_0
 5
247
 10
5237.245
 20
1534.402
 30
0
 11
5205.006
 21
1520.778
 31
0
 0
LINE
 8
TOOL_0
 5
248
 10
5205.006
 20
1520.778
 30
0
 11
5202.005
 21
1520.815
 31
0
 0
ARC
 8
TOOL_0
 5
249
 10
5194.249
 20
1527.164
 30
0
 40
10.023239845479
 50
270.091462804904
 51
320.69651624242
210
0
220
0
230
1.0
 0
LINE
 8
TOOL_0
 5
24A
 10
5194.265
 20
1517.141
 30
0
 11
5107.088
 21
1517.141
 31
0
 0
ARC
 8
TOOL_0
 5
24B
 10
5107.088
 20
1497.941
 30
0
 40
19.2
 50
90.0
 51
148.079705086669
210
0
220
0
230
1.0
 0
ARC
 8
TOOL_0
 5
24C
 10
5071.435
 20
1520.165
 30
0
 40
22.812012624931
 50
239.849505978007
 51
328.048928599655
210
0
220
0
230
1.0
 0
ARC
 8
TOOL_0
 5
24D
 10
5025.189
 20
1440.619
 30
0
 40
69.199980809246
 50
59.820087804485
 51
90.0
210
0
220
0
230
1.0
 0
LINE
 8
TOOL_0
 5
24E
 10
5025.189
 20
1509.819
 30
0
 11
4997.689
 21
1509.819
 31
0
 0
ARC
 8
TOOL_0
 5
24F
 10
4997.689
 20
1440.619
 30
0
 40
69.2
 50
90.0
 51
120.179912195515
210
0
220
0
230
1.0
 0
ARC
 8
TOOL_0
 5
250
 10
4951.443
 20
1520.165
 30
0
 40
22.812295807305
 50
211.951071400344
 51
300.150494021991
210
0
220
0
230
1.0
 0
ARC
 8
TOOL_0
 5
251
 10
4915.79
 20
1497.941
 30
0
 40
19.2003987719
 50
31.92029491333
 51
90.0
210
0
220
0
230
1.0
 0
LINE
 8
TOOL_0
 5
252
 10
4915.79
 20
1517.141
 30
0
 11
4828.613
 21
1517.141
 31
0
 0
ARC
 8
TOOL_0
 5
253
 10
4828.629
 20
1527.165
 30
0
 40
10.024012769345
 50
202.092237733081
 51
269.908546319468
210
0
220
0
230
1.0
 0
LINE
 8
TOOL_0
 5
254
 10
4819.341
 20
1523.395
 30
0
 11
4798.098
 21
1575.974
 31
0
 0
ARC
 8
TOOL_0
 5
255
 10
4789.939
 20
1572.677
 30
0
 40
8.799971022679
 50
22.00332038487
 51
75.523198505333
210
0
220
0
230
1.0
 0
ARC
 8
TOOL_0
 5
256
 10
4794.439
 20
1590.106
 30
0
 40
9.200133912069
 50
180.0
 51
255.522703142989
210
0
220
0
230
1.0
 0
LINE
 8
TOOL_0
 5
257
 10
4785.239
 20
1590.106
 30
0
 11
4785.239
 21
1669.741
 31
0
 0
ARC
 8
TOOL_0
 5
258
 10
4795.239
 20
1669.741
 30
0
 40
10.0
 50
90.0
 51
180.0
210
0
220
0
230
1.0
 0
LINE
 8
TOOL_0
 5
259
 10
4795.239
 20
1679.741
 30
0
 11
4857.744
 21
1679.741
 31
0
 0
ARC
 8
TOOL_0
 5
25A
 10
4857.744
 20
1668.941
 30
0
 40
10.8
 50
48.460740534168
 51
90.0
210
0
220
0
230
1.0
 0
ARC
 8
TOOL_0
 5
25B
 10
4800.301
 20
1607.918
 30
0
 40
94.602238208194
 50
43.466652314864
 51
46.928384843842
210
0
220
0
230
1.0
 0
LINE
 8
TOOL_0
 5
25C
 10
4868.961
 20
1672.998
 30
0
 11
4869.563
 21
1672.42
 31
0
 0
ARC
 8
TOOL_0
 5
25D
 10
4876.79
 20
1678.322
 30
0
 40
9.330762723379
 50
219.237129311717
 51
272.739746583199
210
0
220
0
230
1.0
 0
LINE
 8
TOOL_0
 5
25E
 10
4877.236
 20
1669.002
 30
0
 11
4914.533
 21
1670.957
 31
0
 0
ARC
 8
TOOL_0
 5
25F
 10
4913.266
 20
1695.124
 30
0
 40
24.200189627356
 50
273.001090424869
 51
320.000123438967
210
0
220
0
230
1.0
 0
LINE
 8
TOOL_0
 5
260
 10
4931.805
 20
1679.568
 30
0
 11
4941.776
 21
1691.451
 31
0
 0
ARC
 8
TOOL_0
 5
261
 10
4996.034
 20
1645.894
 30
0
 40
70.847518044036
 50
90.017791710546
 51
139.981952152145
210
0
220
0
230
1.0
 0
LINE
 8
TOOL_0
 5
262
 10
4996.012
 20
1716.742
 30
0
 11
5026.868
 21
1716.742
 31
0
 0
ARC
 8
TOOL_0
 5
263
 10
5026.868
 20
1645.942
 30
0
 40
70.8
 50
41.351276536947
 51
90.0
210
0
220
0
230
1.0
 0
ARC
 8
TOOL_0
 5
264
 10
4528.059
 20
1217.267
 30
0
 40
728.498581501708
 50
39.389999123718
 51
40.741326157114
210
0
220
0
230
1.0
 0
ARC
 8
TOOL_0
 5
265
 10
5109.613
 20
1695.124
 30
0
 40
24.199493155849
 50
219.999584725572
 51
266.998785615684
210
0
220
0
230
1.0
 0
LINE
 8
TOOL_0
 5
266
 10
5108.346
 20
1670.958
 30
0
 11
5145.643
 21
1669.003
 31
0
 0
ARC
 8
TOOL_0
 5
267
 10
5146.124
 20
1678.19
 30
0
 40
9.19958314273
 50
267.002924856546
 51
303.800613645747
210
0
220
0
230
1.0
 0
ARC
 8
TOOL_0
 5
268
 10
5138.198
 20
1687.482
 30
0
 40
21.377743215784
 50
307.601601307168
 51
317.475887510291
210
0
220
0
230
1.0
 0
LINE
 8
TOOL_0
 5
269
 10
5153.953
 20
1673.033
 30
0
 11
5157.497
 21
1676.579
 31
0
 0
ARC
 8
TOOL_0
 5
26A
 10
5165.159
 20
1668.882
 30
0
 40
10.860481250847
 50
90.131896128695
 51
134.869434936405
210
0
220
0
230
1.0
 0
LINE
 8
TOOL_0
 5
26B
 10
5165.134
 20
1679.742
 30
0
 11
5227.639
 21
1679.742
 31
0
 0
ARC
 8
TOOL_0
 5
26C
 10
5227.639
 20
1669.742
 30
0
 40
10.0
 50
0
 51
90.0
210
0
220
0
230
1.0
 0
LINE
 8
TOOL_0
 5
26D
 10
5237.639
 20
1669.742
 30
0
 11
5237.639
 21
1590.107
 31
0
 0
ARC
 8
TOOL_0
 5
26E
 10
5228.439
 20
1590.107
 30
0
 40
9.2
 50
284.477296857011
 51
0
210
0
220
0
230
1.0
 0
ARC
 8
TOOL_0
 5
26F
 10
5232.939
 20
1572.678
 30
0
 40
8.800422773935
 50
104.476801494667
 51
157.99667961513
210
0
220
0
230
1.0
 0
LINE
 8
TOOL_0
 5
270
 10
5224.78
 20
1575.975
 30
0
 11
5203.537
 21
1523.396
 31
0
 0
LINE
 8
TOOL_0
 5
271
 10
5203.537
 20
1523.396
 30
0
 11
5205.007
 21
1520.779
 31
0
 0
LINE
 8
TOOL_0
 5
272
 10
5205.007
 20
1520.779
 30
0
 11
5206.953
 21
1516.173
 31
0
 0
LINE
 8
TOOL_0
 5
273
 10
5206.953
 20
1516.173
 30
0
 11
5317.813
 21
0.005
 31
0
 0
LINE
 8
TOOL_0
 5
274
 10
5317.813
 20
0.005
 30
0
 11
5317.813
 21
1.005
 31
0
 0
LINE
 8
TOOL_0
 5
275
 10
5317.813
 20
1.005
 30
0
 11
5317.813
 21
0.005
 31
0
 0
LINE
 8
TOOL_0
 5
276
 10
5317.813
 20
0.005
 30
0
 11
5317.813
 21
0.005
 31
0
 0
LINE
 8
TOOL_0
 5
277
 10
5317.813
 20
0.005
 30
0
 11
5317.813
 21
1.005
 31
0
 0
LINE
 8
TOOL_0
 5
278
 10
5317.813
 20
1.005
 30
0
 11
5317.813
 21
2099.005
 31
0
 0
LINE
 8
TOOL_0
 5
279
 10
5317.813
 20
2099.005
 30
0
 11
5317.813
 21
2100.005
 31
0
 0
ENDSEC
 0
EOF

