0
SECTION
2
TABLES
0
TABLE
2
LAYER
70
0
0
LAYER
2
LAYER_NAME
70
0
62
1
6
CONTINUOUS
0
ENDTAB
0
ENDSEC
 0
SECTION
 2
ENTITIES
 0
LINE
 8
TOOL_0
 5
1
 10
991.444
 20
681.632
 30
0
 11
961.14
 21
681.983
 31
0
 0
LINE
 8
TOOL_0
 5
2
 10
961.14
 20
681.983
 30
0
 11
959.349
 21
656.364
 31
0
 0
ARC
 8
TOOL_0
 5
3
 10
954.349
 20
656.726
 30
0
 40
5.01308727233
 50
270.137153010353
 51
355.859010834449
210
0
220
0
230
1.0
 0
LINE
 8
TOOL_0
 5
4
 10
954.361
 20
651.713
 30
0
 11
567.182
 21
651.713
 31
0
 0
ARC
 8
TOOL_0
 5
5
 10
567.182
 20
667.213
 30
0
 40
15.5
 50
180.0
 51
270.0
210
0
220
0
230
1.0
 0
LINE
 8
TOOL_0
 5
6
 10
551.682
 20
667.213
 30
0
 11
551.682
 21
690.58
 31
0
 0
ARC
 8
TOOL_0
 5
7
 10
522.104
 20
690.521
 30
0
 40
29.578058844353
 50
0.1142892186
 51
73.886705834146
210
0
220
0
230
1.0
 0
LINE
 8
TOOL_0
 5
8
 10
530.313
 20
718.937
 30
0
 11
392.097
 21
758.57
 31
0
 0
ARC
 8
TOOL_0
 5
9
 10
383.869
 20
729.605
 30
0
 40
30.110981534982
 50
74.141902526386
 51
87.856930583249
210
0
220
0
230
1.0
 0
LINE
 8
TOOL_0
 5
A
 10
384.995
 20
759.695
 30
0
 11
24.182
 21
759.713
 31
0
 0
ARC
 8
TOOL_0
 5
B
 10
24.182
 20
764.713
 30
0
 40
5.0
 50
180.0
 51
270.0
210
0
220
0
230
1.0
 0
LINE
 8
TOOL_0
 5
C
 10
19.182
 20
764.713
 30
0
 11
19.182
 21
835.713
 31
0
 0
ARC
 8
TOOL_0
 5
D
 10
24.182
 20
835.713
 30
0
 40
5.0
 50
90.0
 51
180.0
210
0
220
0
230
1.0
 0
LINE
 8
TOOL_0
 5
E
 10
24.182
 20
840.713
 30
0
 11
383.966
 21
840.713
 31
0
 0
ARC
 8
TOOL_0
 5
F
 10
383.966
 20
870.213
 30
0
 40
29.5
 50
270.0
 51
285.999553963966
210
0
220
0
230
1.0
 0
LINE
 8
TOOL_0
 5
10
 10
392.097
 20
841.856
 30
0
 11
530.313
 21
881.489
 31
0
 0
ARC
 8
TOOL_0
 5
11
 10
522.103
 20
909.905
 30
0
 40
29.578254782864
 50
286.115155158088
 51
359.885714645253
210
0
220
0
230
1.0
 0
LINE
 8
TOOL_0
 5
12
 10
551.682
 20
909.846
 30
0
 11
551.682
 21
933.213
 31
0
 0
ARC
 8
TOOL_0
 5
13
 10
567.182
 20
933.213
 30
0
 40
15.5
 50
90.0
 51
180.0
210
0
220
0
230
1.0
 0
LINE
 8
TOOL_0
 5
14
 10
567.182
 20
948.713
 30
0
 11
954.361
 21
948.713
 31
0
 0
ARC
 8
TOOL_0
 5
15
 10
954.349
 20
943.7
 30
0
 40
5.013014362637
 50
4.140989165552
 51
89.862846989647
210
0
220
0
230
1.0
 0
LINE
 8
TOOL_0
 5
16
 10
959.349
 20
944.062
 30
0
 11
962.566
 21
898.061
 31
0
 0
ARC
 8
TOOL_0
 5
17
 10
986.585
 20
899.769
 30
0
 40
24.079651679374
 50
184.0674773722
 51
222.733060840556
210
0
220
0
230
1.0
 0
LINE
 8
TOOL_0
 5
18
 10
968.898
 20
883.429
 30
0
 11
994.277
 21
856.022
 31
0
 0
ARC
 8
TOOL_0
 5
19
 10
942.157
 20
807.782
 30
0
 40
71.018251175314
 50
3.614329952715
 51
42.786000740381
210
0
220
0
230
1.0
 0
ARC
 8
TOOL_0
 5
1A
 10
632.946
 20
799.353
 30
0
 40
380.307050394809
 50
358.824042574058
 51
1.944747893435
210
0
220
0
230
1.0
 0
ARC
 8
TOOL_0
 5
1B
 10
941.988
 20
792.724
 30
0
 40
71.194713293896
 50
317.260905930912
 51
359.053540662919
210
0
220
0
230
1.0
 0
LINE
 8
TOOL_0
 5
1C
 10
994.277
 20
744.407
 30
0
 11
968.897
 21
717.0
 31
0
 0
ARC
 8
TOOL_0
 5
1D
 10
986.584
 20
700.66
 30
0
 40
24.07956745874
 50
137.266939159444
 51
175.932522627799
210
0
220
0
230
1.0
 0
LINE
 8
TOOL_0
 5
1E
 10
962.565
 20
702.368
 30
0
 11
961.14
 21
681.986
 31
0
 0
LINE
 8
TOOL_0
 5
1F
 10
961.14
 20
681.986
 30
0
 11
963.198
 21
677.371
 31
0
 0
LINE
 8
TOOL_0
 5
20
 10
963.198
 20
677.371
 30
0
 11
1271.747
 21
0.003
 31
0
 0
LINE
 8
TOOL_0
 5
21
 10
1271.747
 20
0.003
 30
0
 11
1271.747
 21
1.003
 31
0
 0
LINE
 8
TOOL_0
 5
22
 10
1271.747
 20
1.003
 30
0
 11
1271.747
 21
0.003
 31
0
 0
LINE
 8
TOOL_0
 5
23
 10
1271.747
 20
0.003
 30
0
 11
1271.747
 21
1.003
 31
0
 0
LINE
 8
TOOL_0
 5
24
 10
1271.747
 20
1.003
 30
0
 11
1271.747
 21
968.728
 31
0
 0
LINE
 8
TOOL_0
 5
25
 10
1271.747
 20
968.728
 30
0
 11
1.0
 21
968.728
 31
0
 0
LINE
 8
TOOL_0
 5
26
 10
1.0
 20
968.728
 30
0
 11
0
 21
968.728
 31
0
 0
ENDSEC
 0
EOF

