0
SECTION
2
TABLES
0
TABLE
2
LAYER
70
0
0
LAYER
2
LAYER_NAME
70
0
62
1
6
CONTINUOUS
0
ENDTAB
0
ENDSEC
 0
SECTION
 2
ENTITIES
 0
LINE
 8
TOOL_0
 5
1
 10
1028.777
 20
1467.251
 30
0
 11
1063.777
 21
1467.251
 31
0
 0
ARC
 8
TOOL_0
 5
2
 10
1028.777
 20
1467.251
 30
0
 40
35.0
 50
0
 51
180.0
210
0
220
0
230
1.0
 0
ARC
 8
TOOL_0
 5
3
 10
1028.777
 20
1467.251
 30
0
 40
35.0
 50
180.0
 51
0
210
0
220
0
230
1.0
 0
LINE
 8
TOOL_0
 5
4
 10
1063.777
 20
1467.251
 30
0
 11
1053.17
 21
1477.858
 31
0
 0
LINE
 8
TOOL_0
 5
5
 10
1053.17
 20
1477.858
 30
0
 11
713.777
 21
427.251
 31
0
 0
LINE
 8
TOOL_0
 5
6
 10
713.777
 20
427.251
 30
0
 11
748.777
 21
427.251
 31
0
 0
ARC
 8
TOOL_0
 5
7
 10
713.777
 20
427.251
 30
0
 40
35.0
 50
0
 51
180.0
210
0
220
0
230
1.0
 0
ARC
 8
TOOL_0
 5
8
 10
713.777
 20
427.251
 30
0
 40
35.0
 50
180.0
 51
0
210
0
220
0
230
1.0
 0
LINE
 8
TOOL_0
 5
9
 10
748.777
 20
427.251
 30
0
 11
738.17
 21
437.858
 31
0
 0
LINE
 8
TOOL_0
 5
A
 10
738.17
 20
437.858
 30
0
 11
2178.777
 21
427.251
 31
0
 0
LINE
 8
TOOL_0
 5
B
 10
2178.777
 20
427.251
 30
0
 11
2213.777
 21
427.251
 31
0
 0
ARC
 8
TOOL_0
 5
C
 10
2178.777
 20
427.251
 30
0
 40
35.0
 50
0
 51
180.0
210
0
220
0
230
1.0
 0
ARC
 8
TOOL_0
 5
D
 10
2178.777
 20
427.251
 30
0
 40
35.0
 50
180.0
 51
0
210
0
220
0
230
1.0
 0
LINE
 8
TOOL_0
 5
E
 10
2213.777
 20
427.251
 30
0
 11
2203.17
 21
437.858
 31
0
 0
LINE
 8
TOOL_0
 5
F
 10
2203.17
 20
437.858
 30
0
 11
3328.777
 21
1467.251
 31
0
 0
LINE
 8
TOOL_0
 5
10
 10
3328.777
 20
1467.251
 30
0
 11
3363.777
 21
1467.251
 31
0
 0
ARC
 8
TOOL_0
 5
11
 10
3328.777
 20
1467.251
 30
0
 40
35.0
 50
0
 51
180.0
210
0
220
0
230
1.0
 0
ARC
 8
TOOL_0
 5
12
 10
3328.777
 20
1467.251
 30
0
 40
35.0
 50
180.0
 51
0
210
0
220
0
230
1.0
 0
LINE
 8
TOOL_0
 5
13
 10
3363.777
 20
1467.251
 30
0
 11
3353.17
 21
1477.858
 31
0
 0
LINE
 8
TOOL_0
 5
14
 10
3353.17
 20
1477.858
 30
0
 11
3643.777
 21
427.251
 31
0
 0
LINE
 8
TOOL_0
 5
15
 10
3643.777
 20
427.251
 30
0
 11
3678.777
 21
427.251
 31
0
 0
ARC
 8
TOOL_0
 5
16
 10
3643.777
 20
427.251
 30
0
 40
35.0
 50
0
 51
180.0
210
0
220
0
230
1.0
 0
ARC
 8
TOOL_0
 5
17
 10
3643.777
 20
427.251
 30
0
 40
35.0
 50
180.0
 51
0
210
0
220
0
230
1.0
 0
LINE
 8
TOOL_0
 5
18
 10
3678.777
 20
427.251
 30
0
 11
3668.17
 21
437.858
 31
0
 0
LINE
 8
TOOL_0
 5
19
 10
3668.17
 20
437.858
 30
0
 11
4346.323
 21
19.251
 31
0
 0
LINE
 8
TOOL_0
 5
1A
 10
4346.323
 20
19.251
 30
0
 11
4316.277
 21
19.251
 31
0
 0
LINE
 8
TOOL_0
 5
1B
 10
4316.277
 20
19.251
 30
0
 11
41.277
 21
19.251
 31
0
 0
LINE
 8
TOOL_0
 5
1C
 10
41.277
 20
19.251
 30
0
 11
41.277
 21
127.251
 31
0
 0
LINE
 8
TOOL_0
 5
1D
 10
41.277
 20
127.251
 30
0
 11
51.277
 21
127.251
 31
0
 0
LINE
 8
TOOL_0
 5
1E
 10
51.277
 20
127.251
 30
0
 11
51.277
 21
649.251
 31
0
 0
LINE
 8
TOOL_0
 5
1F
 10
51.277
 20
649.251
 30
0
 11
538.277
 21
649.251
 31
0
 0
ARC
 8
TOOL_0
 5
20
 10
538.277
 20
712.251
 30
0
 40
63.0
 50
270.0
 51
314.999356913637
210
0
220
0
230
1.0
 0
LINE
 8
TOOL_0
 5
21
 10
582.824
 20
667.703
 30
0
 11
610.324
 21
695.203
 31
0
 0
ARC
 8
TOOL_0
 5
22
 10
565.776
 20
739.751
 30
0
 40
63.000385776597
 50
315.0
 51
359.999090543183
210
0
220
0
230
1.0
 0
LINE
 8
TOOL_0
 5
23
 10
628.776
 20
739.75
 30
0
 11
628.776
 21
1533.25
 31
0
 0
ARC
 8
TOOL_0
 5
24
 10
663.776
 20
1533.25
 30
0
 40
35.0
 50
90.0
 51
180.0
210
0
220
0
230
1.0
 0
LINE
 8
TOOL_0
 5
25
 10
663.776
 20
1568.25
 30
0
 11
3693.776
 21
1568.25
 31
0
 0
ARC
 8
TOOL_0
 5
26
 10
3693.776
 20
1533.25
 30
0
 40
35.0
 50
0
 51
90.0
210
0
220
0
230
1.0
 0
LINE
 8
TOOL_0
 5
27
 10
3728.776
 20
1533.25
 30
0
 11
3728.776
 21
739.75
 31
0
 0
ARC
 8
TOOL_0
 5
28
 10
3791.776
 20
739.75
 30
0
 40
63.0
 50
180.0
 51
225.0
210
0
220
0
230
1.0
 0
LINE
 8
TOOL_0
 5
29
 10
3747.228
 20
695.202
 30
0
 11
3774.728
 21
667.702
 31
0
 0
ARC
 8
TOOL_0
 5
2A
 10
3819.276
 20
712.25
 30
0
 40
63.000385776597
 50
225.0
 51
269.999090543182
210
0
220
0
230
1.0
 0
LINE
 8
TOOL_0
 5
2B
 10
3819.275
 20
649.25
 30
0
 11
4306.275
 21
649.25
 31
0
 0
LINE
 8
TOOL_0
 5
2C
 10
4306.275
 20
649.25
 30
0
 11
4306.275
 21
127.25
 31
0
 0
LINE
 8
TOOL_0
 5
2D
 10
4306.275
 20
127.25
 30
0
 11
4316.275
 21
127.25
 31
0
 0
LINE
 8
TOOL_0
 5
2E
 10
4316.275
 20
127.25
 30
0
 11
4316.275
 21
19.25
 31
0
 0
LINE
 8
TOOL_0
 5
2F
 10
4316.275
 20
19.25
 30
0
 11
4316.275
 21
14.182
 31
0
 0
LINE
 8
TOOL_0
 5
30
 10
4316.275
 20
14.182
 30
0
 11
4157.035
 21
932.749
 31
0
 0
LINE
 8
TOOL_0
 5
31
 10
4157.035
 20
932.749
 30
0
 11
4192.035
 21
932.749
 31
0
 0
ARC
 8
TOOL_0
 5
32
 10
4157.035
 20
932.749
 30
0
 40
35.0
 50
0
 51
180.0
210
0
220
0
230
1.0
 0
ARC
 8
TOOL_0
 5
33
 10
4157.035
 20
932.749
 30
0
 40
35.0
 50
180.0
 51
0
210
0
220
0
230
1.0
 0
LINE
 8
TOOL_0
 5
34
 10
4192.035
 20
932.749
 30
0
 11
4181.428
 21
943.356
 31
0
 0
LINE
 8
TOOL_0
 5
35
 10
4181.428
 20
943.356
 30
0
 11
3842.035
 21
1972.749
 31
0
 0
LINE
 8
TOOL_0
 5
36
 10
3842.035
 20
1972.749
 30
0
 11
3877.035
 21
1972.749
 31
0
 0
ARC
 8
TOOL_0
 5
37
 10
3842.035
 20
1972.749
 30
0
 40
35.0
 50
0
 51
180.0
210
0
220
0
230
1.0
 0
ARC
 8
TOOL_0
 5
38
 10
3842.035
 20
1972.749
 30
0
 40
35.0
 50
180.0
 51
0
210
0
220
0
230
1.0
 0
LINE
 8
TOOL_0
 5
39
 10
3877.035
 20
1972.749
 30
0
 11
3866.428
 21
1983.356
 31
0
 0
LINE
 8
TOOL_0
 5
3A
 10
3866.428
 20
1983.356
 30
0
 11
5307.035
 21
1972.749
 31
0
 0
LINE
 8
TOOL_0
 5
3B
 10
5307.035
 20
1972.749
 30
0
 11
5342.035
 21
1972.749
 31
0
 0
ARC
 8
TOOL_0
 5
3C
 10
5307.035
 20
1972.749
 30
0
 40
35.0
 50
0
 51
180.0
210
0
220
0
230
1.0
 0
ARC
 8
TOOL_0
 5
3D
 10
5307.035
 20
1972.749
 30
0
 40
35.0
 50
180.0
 51
0
210
0
220
0
230
1.0
 0
LINE
 8
TOOL_0
 5
3E
 10
5342.035
 20
1972.749
 30
0
 11
5331.428
 21
1983.356
 31
0
 0
LINE
 8
TOOL_0
 5
3F
 10
5331.428
 20
1983.356
 30
0
 11
6772.035
 21
1972.749
 31
0
 0
LINE
 8
TOOL_0
 5
40
 10
6772.035
 20
1972.749
 30
0
 11
6807.035
 21
1972.749
 31
0
 0
ARC
 8
TOOL_0
 5
41
 10
6772.035
 20
1972.749
 30
0
 40
35.0
 50
0
 51
180.0
210
0
220
0
230
1.0
 0
ARC
 8
TOOL_0
 5
42
 10
6772.035
 20
1972.749
 30
0
 40
35.0
 50
180.0
 51
0
210
0
220
0
230
1.0
 0
LINE
 8
TOOL_0
 5
43
 10
6807.035
 20
1972.749
 30
0
 11
6796.428
 21
1983.356
 31
0
 0
LINE
 8
TOOL_0
 5
44
 10
6796.428
 20
1983.356
 30
0
 11
6457.035
 21
932.749
 31
0
 0
LINE
 8
TOOL_0
 5
45
 10
6457.035
 20
932.749
 30
0
 11
6492.035
 21
932.749
 31
0
 0
ARC
 8
TOOL_0
 5
46
 10
6457.035
 20
932.749
 30
0
 40
35.0
 50
0
 51
180.0
210
0
220
0
230
1.0
 0
ARC
 8
TOOL_0
 5
47
 10
6457.035
 20
932.749
 30
0
 40
35.0
 50
180.0
 51
0
210
0
220
0
230
1.0
 0
LINE
 8
TOOL_0
 5
48
 10
6492.035
 20
932.749
 30
0
 11
6481.428
 21
943.356
 31
0
 0
LINE
 8
TOOL_0
 5
49
 10
6481.428
 20
943.356
 30
0
 11
3138.661
 21
2380.749
 31
0
 0
LINE
 8
TOOL_0
 5
4A
 10
3138.661
 20
2380.749
 30
0
 11
3169.535
 21
2380.749
 31
0
 0
LINE
 8
TOOL_0
 5
4B
 10
3169.535
 20
2380.749
 30
0
 11
7444.535
 21
2380.749
 31
0
 0
LINE
 8
TOOL_0
 5
4C
 10
7444.535
 20
2380.749
 30
0
 11
7444.535
 21
2272.749
 31
0
 0
LINE
 8
TOOL_0
 5
4D
 10
7444.535
 20
2272.749
 30
0
 11
7434.535
 21
2272.749
 31
0
 0
LINE
 8
TOOL_0
 5
4E
 10
7434.535
 20
2272.749
 30
0
 11
7434.535
 21
1750.749
 31
0
 0
LINE
 8
TOOL_0
 5
4F
 10
7434.535
 20
1750.749
 30
0
 11
6947.535
 21
1750.749
 31
0
 0
ARC
 8
TOOL_0
 5
50
 10
6947.535
 20
1687.749
 30
0
 40
63.0
 50
90.0
 51
135.0
210
0
220
0
230
1.0
 0
LINE
 8
TOOL_0
 5
51
 10
6902.987
 20
1732.297
 30
0
 11
6875.487
 21
1704.797
 31
0
 0
ARC
 8
TOOL_0
 5
52
 10
6920.035
 20
1660.249
 30
0
 40
63.000385776597
 50
135.0
 51
180.0
210
0
220
0
230
1.0
 0
LINE
 8
TOOL_0
 5
53
 10
6857.035
 20
1660.249
 30
0
 11
6857.035
 21
866.749
 31
0
 0
ARC
 8
TOOL_0
 5
54
 10
6822.035
 20
866.749
 30
0
 40
35.0
 50
270.0
 51
0
210
0
220
0
230
1.0
 0
LINE
 8
TOOL_0
 5
55
 10
6822.035
 20
831.749
 30
0
 11
3792.035
 21
831.749
 31
0
 0
ARC
 8
TOOL_0
 5
56
 10
3792.035
 20
866.749
 30
0
 40
35.0
 50
180.0
 51
270.0
210
0
220
0
230
1.0
 0
LINE
 8
TOOL_0
 5
57
 10
3757.035
 20
866.749
 30
0
 11
3757.035
 21
1660.249
 31
0
 0
ARC
 8
TOOL_0
 5
58
 10
3694.035
 20
1660.249
 30
0
 40
63.0
 50
0
 51
45.0
210
0
220
0
230
1.0
 0
LINE
 8
TOOL_0
 5
59
 10
3738.583
 20
1704.797
 30
0
 11
3711.083
 21
1732.297
 31
0
 0
ARC
 8
TOOL_0
 5
5A
 10
3666.535
 20
1687.749
 30
0
 40
63.000385776597
 50
45.0
 51
90.0
210
0
220
0
230
1.0
 0
LINE
 8
TOOL_0
 5
5B
 10
3666.535
 20
1750.749
 30
0
 11
3179.535
 21
1750.749
 31
0
 0
LINE
 8
TOOL_0
 5
5C
 10
3179.535
 20
1750.749
 30
0
 11
3179.535
 21
2272.749
 31
0
 0
LINE
 8
TOOL_0
 5
5D
 10
3179.535
 20
2272.749
 30
0
 11
3169.535
 21
2272.749
 31
0
 0
LINE
 8
TOOL_0
 5
5E
 10
3169.535
 20
2272.749
 30
0
 11
3169.535
 21
2380.749
 31
0
 0
LINE
 8
TOOL_0
 5
5F
 10
3169.535
 20
2380.749
 30
0
 11
3169.535
 21
2386.014
 31
0
 0
LINE
 8
TOOL_0
 5
60
 10
3169.535
 20
2386.014
 30
0
 11
415.248
 21
1704.249
 31
0
 0
LINE
 8
TOOL_0
 5
61
 10
415.248
 20
1704.249
 30
0
 11
450.248
 21
1704.249
 31
0
 0
LINE
 8
TOOL_0
 5
62
 10
450.248
 20
1704.249
 30
0
 11
450.248
 21
1769.249
 31
0
 0
ARC
 8
TOOL_0
 5
63
 10
415.248
 20
1769.249
 30
0
 40
35.0
 50
0
 51
90.0
210
0
220
0
230
1.0
 0
LINE
 8
TOOL_0
 5
64
 10
415.248
 20
1804.249
 30
0
 11
190.248
 21
1804.249
 31
0
 0
ARC
 8
TOOL_0
 5
65
 10
190.248
 20
1769.249
 30
0
 40
35.0
 50
90.0
 51
180.0
210
0
220
0
230
1.0
 0
LINE
 8
TOOL_0
 5
66
 10
155.248
 20
1769.249
 30
0
 11
155.248
 21
1639.249
 31
0
 0
ARC
 8
TOOL_0
 5
67
 10
190.248
 20
1639.249
 30
0
 40
35.0
 50
180.0
 51
270.0
210
0
220
0
230
1.0
 0
LINE
 8
TOOL_0
 5
68
 10
190.248
 20
1604.249
 30
0
 11
415.248
 21
1604.249
 31
0
 0
ARC
 8
TOOL_0
 5
69
 10
415.248
 20
1639.249
 30
0
 40
35.0
 50
270.0
 51
0
210
0
220
0
230
1.0
 0
LINE
 8
TOOL_0
 5
6A
 10
450.248
 20
1639.249
 30
0
 11
450.248
 21
1704.249
 31
0
 0
LINE
 8
TOOL_0
 5
6B
 10
450.248
 20
1704.249
 30
0
 11
439.641
 21
1714.856
 31
0
 0
LINE
 8
TOOL_0
 5
6C
 10
439.641
 20
1714.856
 30
0
 11
415.248
 21
1314.249
 31
0
 0
LINE
 8
TOOL_0
 5
6D
 10
415.248
 20
1314.249
 30
0
 11
450.248
 21
1314.249
 31
0
 0
LINE
 8
TOOL_0
 5
6E
 10
450.248
 20
1314.249
 30
0
 11
450.248
 21
1379.249
 31
0
 0
ARC
 8
TOOL_0
 5
6F
 10
415.248
 20
1379.249
 30
0
 40
35.0
 50
0
 51
90.0
210
0
220
0
230
1.0
 0
LINE
 8
TOOL_0
 5
70
 10
415.248
 20
1414.249
 30
0
 11
150.248
 21
1414.249
 31
0
 0
ARC
 8
TOOL_0
 5
71
 10
150.248
 20
1379.249
 30
0
 40
35.0
 50
90.0
 51
180.0
210
0
220
0
230
1.0
 0
LINE
 8
TOOL_0
 5
72
 10
115.248
 20
1379.249
 30
0
 11
115.248
 21
1249.249
 31
0
 0
ARC
 8
TOOL_0
 5
73
 10
150.248
 20
1249.249
 30
0
 40
35.0
 50
180.0
 51
270.0
210
0
220
0
230
1.0
 0
LINE
 8
TOOL_0
 5
74
 10
150.248
 20
1214.249
 30
0
 11
415.248
 21
1214.249
 31
0
 0
ARC
 8
TOOL_0
 5
75
 10
415.248
 20
1249.249
 30
0
 40
35.0
 50
270.0
 51
0
210
0
220
0
230
1.0
 0
LINE
 8
TOOL_0
 5
76
 10
450.248
 20
1249.249
 30
0
 11
450.248
 21
1314.249
 31
0
 0
LINE
 8
TOOL_0
 5
77
 10
450.248
 20
1314.249
 30
0
 11
439.641
 21
1324.856
 31
0
 0
LINE
 8
TOOL_0
 5
78
 10
439.641
 20
1324.856
 30
0
 11
137.435
 21
928.249
 31
0
 0
LINE
 8
TOOL_0
 5
79
 10
137.435
 20
928.249
 30
0
 11
106.248
 21
928.249
 31
0
 0
LINE
 8
TOOL_0
 5
7A
 10
106.248
 20
928.249
 30
0
 11
49.834
 21
928.249
 31
0
 0
LINE
 8
TOOL_0
 5
7B
 10
49.834
 20
928.249
 30
0
 11
39.248
 21
938.835
 31
0
 0
LINE
 8
TOOL_0
 5
7C
 10
39.248
 20
938.835
 30
0
 11
39.248
 21
1061.249
 31
0
 0
ARC
 8
TOOL_0
 5
7D
 10
32.248
 20
1061.249
 30
0
 40
7.0
 50
0
 51
90.0
210
0
220
0
230
1.0
 0
LINE
 8
TOOL_0
 5
7E
 10
32.248
 20
1068.249
 30
0
 11
19.248
 21
1068.249
 31
0
 0
LINE
 8
TOOL_0
 5
7F
 10
19.248
 20
1068.249
 30
0
 11
19.248
 21
1610.249
 31
0
 0
LINE
 8
TOOL_0
 5
80
 10
19.248
 20
1610.249
 30
0
 11
32.248
 21
1610.249
 31
0
 0
ARC
 8
TOOL_0
 5
81
 10
32.248
 20
1617.249
 30
0
 40
7.0
 50
270.0
 51
0
210
0
220
0
230
1.0
 0
LINE
 8
TOOL_0
 5
82
 10
39.248
 20
1617.249
 30
0
 11
39.248
 21
1771.249
 31
0
 0
ARC
 8
TOOL_0
 5
83
 10
32.248
 20
1771.249
 30
0
 40
7.0
 50
0
 51
90.0
210
0
220
0
230
1.0
 0
LINE
 8
TOOL_0
 5
84
 10
32.248
 20
1778.249
 30
0
 11
19.248
 21
1778.249
 31
0
 0
LINE
 8
TOOL_0
 5
85
 10
19.248
 20
1778.249
 30
0
 11
19.248
 21
2195.249
 31
0
 0
LINE
 8
TOOL_0
 5
86
 10
19.248
 20
2195.249
 30
0
 11
27.248
 21
2195.249
 31
0
 0
ARC
 8
TOOL_0
 5
87
 10
27.248
 20
2202.249
 30
0
 40
7.0
 50
270.0
 51
0
210
0
220
0
230
1.0
 0
LINE
 8
TOOL_0
 5
88
 10
34.248
 20
2202.249
 30
0
 11
34.248
 21
2380.749
 31
0
 0
LINE
 8
TOOL_0
 5
89
 10
34.248
 20
2380.749
 30
0
 11
362.741
 21
2380.749
 31
0
 0
LINE
 8
TOOL_0
 5
8A
 10
362.741
 20
2380.749
 30
0
 11
615.248
 21
1726.102
 31
0
 0
LINE
 8
TOOL_0
 5
8B
 10
615.248
 20
1726.102
 30
0
 11
615.248
 21
1252.533
 31
0
 0
ARC
 8
TOOL_0
 5
8C
 10
535.248
 20
1252.533
 30
0
 40
80.0
 50
320.389749357743
 51
0
210
0
220
0
230
1.0
 0
LINE
 8
TOOL_0
 5
8D
 10
596.88
 20
1201.528
 30
0
 11
370.719
 21
928.25
 31
0
 0
LINE
 8
TOOL_0
 5
8E
 10
370.719
 20
928.25
 30
0
 11
264.249
 21
928.25
 31
0
 0
LINE
 8
TOOL_0
 5
8F
 10
264.249
 20
928.25
 30
0
 11
264.249
 21
1009.25
 31
0
 0
ARC
 8
TOOL_0
 5
90
 10
215.249
 20
1009.25
 30
0
 40
49.0
 50
0
 51
90.0
210
0
220
0
230
1.0
 0
LINE
 8
TOOL_0
 5
91
 10
215.249
 20
1058.25
 30
0
 11
155.249
 21
1058.25
 31
0
 0
ARC
 8
TOOL_0
 5
92
 10
155.249
 20
1009.25
 30
0
 40
49.0
 50
90.0
 51
180.0
210
0
220
0
230
1.0
 0
LINE
 8
TOOL_0
 5
93
 10
106.249
 20
1009.25
 30
0
 11
106.249
 21
928.25
 31
0
 0
LINE
 8
TOOL_0
 5
94
 10
106.249
 20
928.25
 30
0
 11
106.249
 21
923.14
 31
0
 0
LINE
 8
TOOL_0
 5
95
 10
106.249
 20
923.14
 30
0
 11
963.802
 21
2117.25
 31
0
 0
LINE
 8
TOOL_0
 5
96
 10
963.802
 20
2117.25
 30
0
 11
998.802
 21
2117.25
 31
0
 0
LINE
 8
TOOL_0
 5
97
 10
998.802
 20
2117.25
 30
0
 11
998.802
 21
2249.75
 31
0
 0
ARC
 8
TOOL_0
 5
98
 10
963.802
 20
2249.75
 30
0
 40
35.0
 50
0
 51
90.0
210
0
220
0
230
1.0
 0
LINE
 8
TOOL_0
 5
99
 10
963.802
 20
2284.75
 30
0
 11
833.802
 21
2284.75
 31
0
 0
ARC
 8
TOOL_0
 5
9A
 10
833.802
 20
2249.75
 30
0
 40
35.0
 50
90.0
 51
180.0
210
0
220
0
230
1.0
 0
LINE
 8
TOOL_0
 5
9B
 10
798.802
 20
2249.75
 30
0
 11
798.802
 21
1984.75
 31
0
 0
ARC
 8
TOOL_0
 5
9C
 10
833.802
 20
1984.75
 30
0
 40
35.0
 50
180.0
 51
270.0
210
0
220
0
230
1.0
 0
LINE
 8
TOOL_0
 5
9D
 10
833.802
 20
1949.75
 30
0
 11
963.802
 21
1949.75
 31
0
 0
ARC
 8
TOOL_0
 5
9E
 10
963.802
 20
1984.75
 30
0
 40
35.0
 50
270.0
 51
0
210
0
220
0
230
1.0
 0
LINE
 8
TOOL_0
 5
9F
 10
998.802
 20
1984.75
 30
0
 11
998.802
 21
2117.25
 31
0
 0
LINE
 8
TOOL_0
 5
A0
 10
998.802
 20
2117.25
 30
0
 11
988.195
 21
2127.857
 31
0
 0
LINE
 8
TOOL_0
 5
A1
 10
988.195
 20
2127.857
 30
0
 11
1353.802
 21
2097.25
 31
0
 0
LINE
 8
TOOL_0
 5
A2
 10
1353.802
 20
2097.25
 30
0
 11
1388.802
 21
2097.25
 31
0
 0
LINE
 8
TOOL_0
 5
A3
 10
1388.802
 20
2097.25
 30
0
 11
1388.802
 21
2209.75
 31
0
 0
ARC
 8
TOOL_0
 5
A4
 10
1353.802
 20
2209.75
 30
0
 40
35.0
 50
0
 51
90.0
210
0
220
0
230
1.0
 0
LINE
 8
TOOL_0
 5
A5
 10
1353.802
 20
2244.75
 30
0
 11
1223.802
 21
2244.75
 31
0
 0
ARC
 8
TOOL_0
 5
A6
 10
1223.802
 20
2209.75
 30
0
 40
35.0
 50
90.0
 51
180.0
210
0
220
0
230
1.0
 0
LINE
 8
TOOL_0
 5
A7
 10
1188.802
 20
2209.75
 30
0
 11
1188.802
 21
1984.75
 31
0
 0
ARC
 8
TOOL_0
 5
A8
 10
1223.802
 20
1984.75
 30
0
 40
35.0
 50
180.0
 51
270.0
210
0
220
0
230
1.0
 0
LINE
 8
TOOL_0
 5
A9
 10
1223.802
 20
1949.75
 30
0
 11
1353.802
 21
1949.75
 31
0
 0
ARC
 8
TOOL_0
 5
AA
 10
1353.802
 20
1984.75
 30
0
 40
35.0
 50
270.0
 51
0
210
0
220
0
230
1.0
 0
LINE
 8
TOOL_0
 5
AB
 10
1388.802
 20
1984.75
 30
0
 11
1388.802
 21
2097.25
 31
0
 0
LINE
 8
TOOL_0
 5
AC
 10
1388.802
 20
2097.25
 30
0
 11
1378.195
 21
2107.857
 31
0
 0
LINE
 8
TOOL_0
 5
AD
 10
1378.195
 20
2107.857
 30
0
 11
512.802
 21
2262.799
 31
0
 0
LINE
 8
TOOL_0
 5
AE
 10
512.802
 20
2262.799
 30
0
 11
512.802
 21
2293.75
 31
0
 0
LINE
 8
TOOL_0
 5
AF
 10
512.802
 20
2293.75
 30
0
 11
512.802
 21
2350.164
 31
0
 0
LINE
 8
TOOL_0
 5
B0
 10
512.802
 20
2350.164
 30
0
 11
523.388
 21
2360.75
 31
0
 0
LINE
 8
TOOL_0
 5
B1
 10
523.388
 20
2360.75
 30
0
 11
645.802
 21
2360.75
 31
0
 0
ARC
 8
TOOL_0
 5
B2
 10
645.802
 20
2367.75
 30
0
 40
7.0
 50
270.0
 51
0
210
0
220
0
230
1.0
 0
LINE
 8
TOOL_0
 5
B3
 10
652.802
 20
2367.75
 30
0
 11
652.802
 21
2380.75
 31
0
 0
LINE
 8
TOOL_0
 5
B4
 10
652.802
 20
2380.75
 30
0
 11
1194.802
 21
2380.75
 31
0
 0
LINE
 8
TOOL_0
 5
B5
 10
1194.802
 20
2380.75
 30
0
 11
1194.802
 21
2367.75
 31
0
 0
ARC
 8
TOOL_0
 5
B6
 10
1201.802
 20
2367.75
 30
0
 40
7.0
 50
180.0
 51
270.0
210
0
220
0
230
1.0
 0
LINE
 8
TOOL_0
 5
B7
 10
1201.802
 20
2360.75
 30
0
 11
1355.802
 21
2360.75
 31
0
 0
ARC
 8
TOOL_0
 5
B8
 10
1355.802
 20
2367.75
 30
0
 40
7.0
 50
270.0
 51
0
210
0
220
0
230
1.0
 0
LINE
 8
TOOL_0
 5
B9
 10
1362.802
 20
2367.75
 30
0
 11
1362.802
 21
2380.75
 31
0
 0
LINE
 8
TOOL_0
 5
BA
 10
1362.802
 20
2380.75
 30
0
 11
1779.802
 21
2380.75
 31
0
 0
LINE
 8
TOOL_0
 5
BB
 10
1779.802
 20
2380.75
 30
0
 11
1779.802
 21
2372.75
 31
0
 0
ARC
 8
TOOL_0
 5
BC
 10
1786.802
 20
2372.75
 30
0
 40
7.0
 50
180.0
 51
270.0
210
0
220
0
230
1.0
 0
LINE
 8
TOOL_0
 5
BD
 10
1786.802
 20
2365.75
 30
0
 11
1965.302
 21
2365.75
 31
0
 0
LINE
 8
TOOL_0
 5
BE
 10
1965.302
 20
2365.75
 30
0
 11
1965.302
 21
2037.257
 31
0
 0
LINE
 8
TOOL_0
 5
BF
 10
1965.302
 20
2037.257
 30
0
 11
1310.655
 21
1784.75
 31
0
 0
LINE
 8
TOOL_0
 5
C0
 10
1310.655
 20
1784.75
 30
0
 11
837.086
 21
1784.75
 31
0
 0
ARC
 8
TOOL_0
 5
C1
 10
837.086
 20
1864.75
 30
0
 40
80.0
 50
230.388740979326
 51
270.0
210
0
220
0
230
1.0
 0
LINE
 8
TOOL_0
 5
C2
 10
786.08
 20
1803.119
 30
0
 11
512.802
 21
2029.28
 31
0
 0
LINE
 8
TOOL_0
 5
C3
 10
512.802
 20
2029.28
 30
0
 11
512.802
 21
2135.75
 31
0
 0
LINE
 8
TOOL_0
 5
C4
 10
512.802
 20
2135.75
 30
0
 11
593.802
 21
2135.75
 31
0
 0
ARC
 8
TOOL_0
 5
C5
 10
593.802
 20
2184.75
 30
0
 40
49.0
 50
270.0
 51
0
210
0
220
0
230
1.0
 0
LINE
 8
TOOL_0
 5
C6
 10
642.802
 20
2184.75
 30
0
 11
642.802
 21
2244.75
 31
0
 0
ARC
 8
TOOL_0
 5
C7
 10
593.802
 20
2244.75
 30
0
 40
49.0
 50
0
 51
90.0
210
0
220
0
230
1.0
 0
LINE
 8
TOOL_0
 5
C8
 10
593.802
 20
2293.75
 30
0
 11
512.802
 21
2293.75
 31
0
 0
LINE
 8
TOOL_0
 5
C9
 10
512.802
 20
2293.75
 30
0
 11
507.548
 21
2293.75
 31
0
 0
LINE
 8
TOOL_0
 5
CA
 10
507.548
 20
2293.75
 30
0
 11
2454.965
 21
1865.552
 31
0
 0
LINE
 8
TOOL_0
 5
CB
 10
2454.965
 20
1865.552
 30
0
 11
2489.965
 21
1865.552
 31
0
 0
LINE
 8
TOOL_0
 5
CC
 10
2489.965
 20
1865.552
 30
0
 11
2489.965
 21
1978.052
 31
0
 0
ARC
 8
TOOL_0
 5
CD
 10
2454.965
 20
1978.052
 30
0
 40
35.0
 50
0
 51
90.0
210
0
220
0
230
1.0
 0
LINE
 8
TOOL_0
 5
CE
 10
2454.965
 20
2013.052
 30
0
 11
2324.965
 21
2013.052
 31
0
 0
ARC
 8
TOOL_0
 5
CF
 10
2324.965
 20
1978.052
 30
0
 40
35.0
 50
90.0
 51
180.0
210
0
220
0
230
1.0
 0
LINE
 8
TOOL_0
 5
D0
 10
2289.965
 20
1978.052
 30
0
 11
2289.965
 21
1753.052
 31
0
 0
ARC
 8
TOOL_0
 5
D1
 10
2324.965
 20
1753.052
 30
0
 40
35.0
 50
180.0
 51
270.0
210
0
220
0
230
1.0
 0
LINE
 8
TOOL_0
 5
D2
 10
2324.965
 20
1718.052
 30
0
 11
2454.965
 21
1718.052
 31
0
 0
ARC
 8
TOOL_0
 5
D3
 10
2454.965
 20
1753.052
 30
0
 40
35.0
 50
270.0
 51
0
210
0
220
0
230
1.0
 0
LINE
 8
TOOL_0
 5
D4
 10
2489.965
 20
1753.052
 30
0
 11
2489.965
 21
1865.552
 31
0
 0
LINE
 8
TOOL_0
 5
D5
 10
2489.965
 20
1865.552
 30
0
 11
2479.358
 21
1876.159
 31
0
 0
LINE
 8
TOOL_0
 5
D6
 10
2479.358
 20
1876.159
 30
0
 11
2844.964
 21
1845.553
 31
0
 0
LINE
 8
TOOL_0
 5
D7
 10
2844.964
 20
1845.553
 30
0
 11
2879.964
 21
1845.553
 31
0
 0
LINE
 8
TOOL_0
 5
D8
 10
2879.964
 20
1845.553
 30
0
 11
2879.964
 21
1978.053
 31
0
 0
ARC
 8
TOOL_0
 5
D9
 10
2844.964
 20
1978.053
 30
0
 40
35.0
 50
0
 51
90.0
210
0
220
0
230
1.0
 0
LINE
 8
TOOL_0
 5
DA
 10
2844.964
 20
2013.053
 30
0
 11
2714.964
 21
2013.053
 31
0
 0
ARC
 8
TOOL_0
 5
DB
 10
2714.964
 20
1978.053
 30
0
 40
35.0
 50
90.0
 51
180.0
210
0
220
0
230
1.0
 0
LINE
 8
TOOL_0
 5
DC
 10
2679.964
 20
1978.053
 30
0
 11
2679.964
 21
1713.053
 31
0
 0
ARC
 8
TOOL_0
 5
DD
 10
2714.964
 20
1713.053
 30
0
 40
35.0
 50
180.0
 51
270.0
210
0
220
0
230
1.0
 0
LINE
 8
TOOL_0
 5
DE
 10
2714.964
 20
1678.053
 30
0
 11
2844.964
 21
1678.053
 31
0
 0
ARC
 8
TOOL_0
 5
DF
 10
2844.964
 20
1713.053
 30
0
 40
35.0
 50
270.0
 51
0
210
0
220
0
230
1.0
 0
LINE
 8
TOOL_0
 5
E0
 10
2879.964
 20
1713.053
 30
0
 11
2879.964
 21
1845.553
 31
0
 0
LINE
 8
TOOL_0
 5
E1
 10
2879.964
 20
1845.553
 30
0
 11
2869.357
 21
1856.16
 31
0
 0
LINE
 8
TOOL_0
 5
E2
 10
2869.357
 20
1856.16
 30
0
 11
3165.963
 21
1699.892
 31
0
 0
LINE
 8
TOOL_0
 5
E3
 10
3165.963
 20
1699.892
 30
0
 11
3165.963
 21
1669.054
 31
0
 0
LINE
 8
TOOL_0
 5
E4
 10
3165.963
 20
1669.054
 30
0
 11
3165.963
 21
1612.64
 31
0
 0
LINE
 8
TOOL_0
 5
E5
 10
3165.963
 20
1612.64
 30
0
 11
3155.377
 21
1602.054
 31
0
 0
LINE
 8
TOOL_0
 5
E6
 10
3155.377
 20
1602.054
 30
0
 11
3032.963
 21
1602.054
 31
0
 0
ARC
 8
TOOL_0
 5
E7
 10
3032.963
 20
1595.054
 30
0
 40
7.0
 50
90.0
 51
180.0
210
0
220
0
230
1.0
 0
LINE
 8
TOOL_0
 5
E8
 10
3025.963
 20
1595.054
 30
0
 11
3025.963
 21
1582.054
 31
0
 0
LINE
 8
TOOL_0
 5
E9
 10
3025.963
 20
1582.054
 30
0
 11
2483.963
 21
1582.054
 31
0
 0
LINE
 8
TOOL_0
 5
EA
 10
2483.963
 20
1582.054
 30
0
 11
2483.963
 21
1595.054
 31
0
 0
ARC
 8
TOOL_0
 5
EB
 10
2476.963
 20
1595.054
 30
0
 40
7.0
 50
0
 51
90.0
210
0
220
0
230
1.0
 0
LINE
 8
TOOL_0
 5
EC
 10
2476.963
 20
1602.054
 30
0
 11
2322.963
 21
1602.054
 31
0
 0
ARC
 8
TOOL_0
 5
ED
 10
2322.963
 20
1595.054
 30
0
 40
7.0
 50
90.0
 51
180.0
210
0
220
0
230
1.0
 0
LINE
 8
TOOL_0
 5
EE
 10
2315.963
 20
1595.054
 30
0
 11
2315.963
 21
1582.054
 31
0
 0
LINE
 8
TOOL_0
 5
EF
 10
2315.963
 20
1582.054
 30
0
 11
1898.963
 21
1582.054
 31
0
 0
LINE
 8
TOOL_0
 5
F0
 10
1898.963
 20
1582.054
 30
0
 11
1898.963
 21
1590.054
 31
0
 0
ARC
 8
TOOL_0
 5
F1
 10
1891.963
 20
1590.054
 30
0
 40
7.0
 50
0
 51
90.0
210
0
220
0
230
1.0
 0
LINE
 8
TOOL_0
 5
F2
 10
1891.963
 20
1597.054
 30
0
 11
1713.463
 21
1597.054
 31
0
 0
LINE
 8
TOOL_0
 5
F3
 10
1713.463
 20
1597.054
 30
0
 11
1713.463
 21
1925.547
 31
0
 0
LINE
 8
TOOL_0
 5
F4
 10
1713.463
 20
1925.547
 30
0
 11
2368.11
 21
2178.054
 31
0
 0
LINE
 8
TOOL_0
 5
F5
 10
2368.11
 20
2178.054
 30
0
 11
2841.679
 21
2178.054
 31
0
 0
ARC
 8
TOOL_0
 5
F6
 10
2841.679
 20
2098.054
 30
0
 40
80.0
 50
50.389749357743
 51
90.0
210
0
220
0
230
1.0
 0
LINE
 8
TOOL_0
 5
F7
 10
2892.684
 20
2159.686
 30
0
 11
3165.962
 21
1933.525
 31
0
 0
LINE
 8
TOOL_0
 5
F8
 10
3165.962
 20
1933.525
 30
0
 11
3165.962
 21
1827.055
 31
0
 0
LINE
 8
TOOL_0
 5
F9
 10
3165.962
 20
1827.055
 30
0
 11
3084.962
 21
1827.055
 31
0
 0
ARC
 8
TOOL_0
 5
FA
 10
3084.962
 20
1778.055
 30
0
 40
49.0
 50
90.0
 51
180.0
210
0
220
0
230
1.0
 0
LINE
 8
TOOL_0
 5
FB
 10
3035.962
 20
1778.055
 30
0
 11
3035.962
 21
1718.055
 31
0
 0
ARC
 8
TOOL_0
 5
FC
 10
3084.962
 20
1718.055
 30
0
 40
49.0
 50
180.0
 51
270.0
210
0
220
0
230
1.0
 0
LINE
 8
TOOL_0
 5
FD
 10
3084.962
 20
1669.055
 30
0
 11
3165.962
 21
1669.055
 31
0
 0
LINE
 8
TOOL_0
 5
FE
 10
3165.962
 20
1669.055
 30
0
 11
3171.149
 21
1669.055
 31
0
 0
LINE
 8
TOOL_0
 5
FF
 10
3171.149
 20
1669.055
 30
0
 11
6263.726
 21
302.754
 31
0
 0
LINE
 8
TOOL_0
 5
100
 10
6263.726
 20
302.754
 30
0
 11
6298.726
 21
302.754
 31
0
 0
LINE
 8
TOOL_0
 5
101
 10
6298.726
 20
302.754
 30
0
 11
6298.726
 21
415.254
 31
0
 0
ARC
 8
TOOL_0
 5
102
 10
6263.726
 20
415.254
 30
0
 40
35.0
 50
0
 51
90.0
210
0
220
0
230
1.0
 0
LINE
 8
TOOL_0
 5
103
 10
6263.726
 20
450.254
 30
0
 11
6133.726
 21
450.254
 31
0
 0
ARC
 8
TOOL_0
 5
104
 10
6133.726
 20
415.254
 30
0
 40
35.0
 50
90.0
 51
180.0
210
0
220
0
230
1.0
 0
LINE
 8
TOOL_0
 5
105
 10
6098.726
 20
415.254
 30
0
 11
6098.726
 21
190.254
 31
0
 0
ARC
 8
TOOL_0
 5
106
 10
6133.726
 20
190.254
 30
0
 40
35.0
 50
180.0
 51
270.0
210
0
220
0
230
1.0
 0
LINE
 8
TOOL_0
 5
107
 10
6133.726
 20
155.254
 30
0
 11
6263.726
 21
155.254
 31
0
 0
ARC
 8
TOOL_0
 5
108
 10
6263.726
 20
190.254
 30
0
 40
35.0
 50
270.0
 51
0
210
0
220
0
230
1.0
 0
LINE
 8
TOOL_0
 5
109
 10
6298.726
 20
190.254
 30
0
 11
6298.726
 21
302.754
 31
0
 0
LINE
 8
TOOL_0
 5
10A
 10
6298.726
 20
302.754
 30
0
 11
6288.119
 21
313.361
 31
0
 0
LINE
 8
TOOL_0
 5
10B
 10
6288.119
 20
313.361
 30
0
 11
6653.726
 21
282.754
 31
0
 0
LINE
 8
TOOL_0
 5
10C
 10
6653.726
 20
282.754
 30
0
 11
6688.726
 21
282.754
 31
0
 0
LINE
 8
TOOL_0
 5
10D
 10
6688.726
 20
282.754
 30
0
 11
6688.726
 21
415.254
 31
0
 0
ARC
 8
TOOL_0
 5
10E
 10
6653.726
 20
415.254
 30
0
 40
35.0
 50
0
 51
90.0
210
0
220
0
230
1.0
 0
LINE
 8
TOOL_0
 5
10F
 10
6653.726
 20
450.254
 30
0
 11
6523.726
 21
450.254
 31
0
 0
ARC
 8
TOOL_0
 5
110
 10
6523.726
 20
415.254
 30
0
 40
35.0
 50
90.0
 51
180.0
210
0
220
0
230
1.0
 0
LINE
 8
TOOL_0
 5
111
 10
6488.726
 20
415.254
 30
0
 11
6488.726
 21
150.254
 31
0
 0
ARC
 8
TOOL_0
 5
112
 10
6523.726
 20
150.254
 30
0
 40
35.0
 50
180.0
 51
270.0
210
0
220
0
230
1.0
 0
LINE
 8
TOOL_0
 5
113
 10
6523.726
 20
115.254
 30
0
 11
6653.726
 21
115.254
 31
0
 0
ARC
 8
TOOL_0
 5
114
 10
6653.726
 20
150.254
 30
0
 40
35.0
 50
270.0
 51
0
210
0
220
0
230
1.0
 0
LINE
 8
TOOL_0
 5
115
 10
6688.726
 20
150.254
 30
0
 11
6688.726
 21
282.754
 31
0
 0
LINE
 8
TOOL_0
 5
116
 10
6688.726
 20
282.754
 30
0
 11
6678.119
 21
293.361
 31
0
 0
LINE
 8
TOOL_0
 5
117
 10
6678.119
 20
293.361
 30
0
 11
6974.726
 21
137.092
 31
0
 0
LINE
 8
TOOL_0
 5
118
 10
6974.726
 20
137.092
 30
0
 11
6974.726
 21
106.254
 31
0
 0
LINE
 8
TOOL_0
 5
119
 10
6974.726
 20
106.254
 30
0
 11
6974.726
 21
49.84
 31
0
 0
LINE
 8
TOOL_0
 5
11A
 10
6974.726
 20
49.84
 30
0
 11
6964.14
 21
39.254
 31
0
 0
LINE
 8
TOOL_0
 5
11B
 10
6964.14
 20
39.254
 30
0
 11
6841.726
 21
39.254
 31
0
 0
ARC
 8
TOOL_0
 5
11C
 10
6841.726
 20
32.254
 30
0
 40
7.0
 50
90.0
 51
180.0
210
0
220
0
230
1.0
 0
LINE
 8
TOOL_0
 5
11D
 10
6834.726
 20
32.254
 30
0
 11
6834.726
 21
19.254
 31
0
 0
LINE
 8
TOOL_0
 5
11E
 10
6834.726
 20
19.254
 30
0
 11
6292.726
 21
19.254
 31
0
 0
LINE
 8
TOOL_0
 5
11F
 10
6292.726
 20
19.254
 30
0
 11
6292.726
 21
32.254
 31
0
 0
ARC
 8
TOOL_0
 5
120
 10
6285.726
 20
32.254
 30
0
 40
7.0
 50
0
 51
90.0
210
0
220
0
230
1.0
 0
LINE
 8
TOOL_0
 5
121
 10
6285.726
 20
39.254
 30
0
 11
6131.726
 21
39.254
 31
0
 0
ARC
 8
TOOL_0
 5
122
 10
6131.726
 20
32.254
 30
0
 40
7.0
 50
90.0
 51
180.0
210
0
220
0
230
1.0
 0
LINE
 8
TOOL_0
 5
123
 10
6124.726
 20
32.254
 30
0
 11
6124.726
 21
19.254
 31
0
 0
LINE
 8
TOOL_0
 5
124
 10
6124.726
 20
19.254
 30
0
 11
5707.726
 21
19.254
 31
0
 0
LINE
 8
TOOL_0
 5
125
 10
5707.726
 20
19.254
 30
0
 11
5707.726
 21
27.254
 31
0
 0
ARC
 8
TOOL_0
 5
126
 10
5700.726
 20
27.254
 30
0
 40
7.0
 50
0
 51
90.0
210
0
220
0
230
1.0
 0
LINE
 8
TOOL_0
 5
127
 10
5700.726
 20
34.254
 30
0
 11
5522.226
 21
34.254
 31
0
 0
LINE
 8
TOOL_0
 5
128
 10
5522.226
 20
34.254
 30
0
 11
5522.226
 21
362.747
 31
0
 0
LINE
 8
TOOL_0
 5
129
 10
5522.226
 20
362.747
 30
0
 11
6176.873
 21
615.254
 31
0
 0
LINE
 8
TOOL_0
 5
12A
 10
6176.873
 20
615.254
 30
0
 11
6650.442
 21
615.254
 31
0
 0
ARC
 8
TOOL_0
 5
12B
 10
6650.442
 20
535.254
 30
0
 40
80.0
 50
50.389749357743
 51
90.0
210
0
220
0
230
1.0
 0
LINE
 8
TOOL_0
 5
12C
 10
6701.447
 20
596.886
 30
0
 11
6974.725
 21
370.725
 31
0
 0
LINE
 8
TOOL_0
 5
12D
 10
6974.725
 20
370.725
 30
0
 11
6974.725
 21
264.255
 31
0
 0
LINE
 8
TOOL_0
 5
12E
 10
6974.725
 20
264.255
 30
0
 11
6893.725
 21
264.255
 31
0
 0
ARC
 8
TOOL_0
 5
12F
 10
6893.725
 20
215.255
 30
0
 40
49.0
 50
90.0
 51
180.0
210
0
220
0
230
1.0
 0
LINE
 8
TOOL_0
 5
130
 10
6844.725
 20
215.255
 30
0
 11
6844.725
 21
155.255
 31
0
 0
ARC
 8
TOOL_0
 5
131
 10
6893.725
 20
155.255
 30
0
 40
49.0
 50
180.0
 51
270.0
210
0
220
0
230
1.0
 0
LINE
 8
TOOL_0
 5
132
 10
6893.725
 20
106.255
 30
0
 11
6974.725
 21
106.255
 31
0
 0
LINE
 8
TOOL_0
 5
133
 10
6974.725
 20
106.255
 30
0
 11
6979.912
 21
106.255
 31
0
 0
LINE
 8
TOOL_0
 5
134
 10
6979.912
 20
106.255
 30
0
 11
4770.842
 21
554.452
 31
0
 0
LINE
 8
TOOL_0
 5
135
 10
4770.842
 20
554.452
 30
0
 11
4805.842
 21
554.452
 31
0
 0
LINE
 8
TOOL_0
 5
136
 10
4805.842
 20
554.452
 30
0
 11
4805.842
 21
686.952
 31
0
 0
ARC
 8
TOOL_0
 5
137
 10
4770.842
 20
686.952
 30
0
 40
35.0
 50
0
 51
90.0
210
0
220
0
230
1.0
 0
LINE
 8
TOOL_0
 5
138
 10
4770.842
 20
721.952
 30
0
 11
4640.842
 21
721.952
 31
0
 0
ARC
 8
TOOL_0
 5
139
 10
4640.842
 20
686.952
 30
0
 40
35.0
 50
90.0
 51
180.0
210
0
220
0
230
1.0
 0
LINE
 8
TOOL_0
 5
13A
 10
4605.842
 20
686.952
 30
0
 11
4605.842
 21
421.952
 31
0
 0
ARC
 8
TOOL_0
 5
13B
 10
4640.842
 20
421.952
 30
0
 40
35.0
 50
180.0
 51
270.0
210
0
220
0
230
1.0
 0
LINE
 8
TOOL_0
 5
13C
 10
4640.842
 20
386.952
 30
0
 11
4770.842
 21
386.952
 31
0
 0
ARC
 8
TOOL_0
 5
13D
 10
4770.842
 20
421.952
 30
0
 40
35.0
 50
270.0
 51
0
210
0
220
0
230
1.0
 0
LINE
 8
TOOL_0
 5
13E
 10
4805.842
 20
421.952
 30
0
 11
4805.842
 21
554.452
 31
0
 0
LINE
 8
TOOL_0
 5
13F
 10
4805.842
 20
554.452
 30
0
 11
4795.235
 21
565.059
 31
0
 0
LINE
 8
TOOL_0
 5
140
 10
4795.235
 20
565.059
 30
0
 11
5160.842
 21
534.452
 31
0
 0
LINE
 8
TOOL_0
 5
141
 10
5160.842
 20
534.452
 30
0
 11
5195.842
 21
534.452
 31
0
 0
LINE
 8
TOOL_0
 5
142
 10
5195.842
 20
534.452
 30
0
 11
5195.842
 21
646.952
 31
0
 0
ARC
 8
TOOL_0
 5
143
 10
5160.842
 20
646.952
 30
0
 40
35.0
 50
0
 51
90.0
210
0
220
0
230
1.0
 0
LINE
 8
TOOL_0
 5
144
 10
5160.842
 20
681.952
 30
0
 11
5030.842
 21
681.952
 31
0
 0
ARC
 8
TOOL_0
 5
145
 10
5030.842
 20
646.952
 30
0
 40
35.0
 50
90.0
 51
180.0
210
0
220
0
230
1.0
 0
LINE
 8
TOOL_0
 5
146
 10
4995.842
 20
646.952
 30
0
 11
4995.842
 21
421.952
 31
0
 0
ARC
 8
TOOL_0
 5
147
 10
5030.842
 20
421.952
 30
0
 40
35.0
 50
180.0
 51
270.0
210
0
220
0
230
1.0
 0
LINE
 8
TOOL_0
 5
148
 10
5030.842
 20
386.952
 30
0
 11
5160.842
 21
386.952
 31
0
 0
ARC
 8
TOOL_0
 5
149
 10
5160.842
 20
421.952
 30
0
 40
35.0
 50
270.0
 51
0
210
0
220
0
230
1.0
 0
LINE
 8
TOOL_0
 5
14A
 10
5195.842
 20
421.952
 30
0
 11
5195.842
 21
534.452
 31
0
 0
LINE
 8
TOOL_0
 5
14B
 10
5195.842
 20
534.452
 30
0
 11
5185.235
 21
545.059
 31
0
 0
LINE
 8
TOOL_0
 5
14C
 10
5185.235
 20
545.059
 30
0
 11
4319.842
 21
700.001
 31
0
 0
LINE
 8
TOOL_0
 5
14D
 10
4319.842
 20
700.001
 30
0
 11
4319.842
 21
730.952
 31
0
 0
LINE
 8
TOOL_0
 5
14E
 10
4319.842
 20
730.952
 30
0
 11
4319.842
 21
787.366
 31
0
 0
LINE
 8
TOOL_0
 5
14F
 10
4319.842
 20
787.366
 30
0
 11
4330.428
 21
797.952
 31
0
 0
LINE
 8
TOOL_0
 5
150
 10
4330.428
 20
797.952
 30
0
 11
4452.842
 21
797.952
 31
0
 0
ARC
 8
TOOL_0
 5
151
 10
4452.842
 20
804.952
 30
0
 40
7.0
 50
270.0
 51
0
210
0
220
0
230
1.0
 0
LINE
 8
TOOL_0
 5
152
 10
4459.842
 20
804.952
 30
0
 11
4459.842
 21
817.952
 31
0
 0
LINE
 8
TOOL_0
 5
153
 10
4459.842
 20
817.952
 30
0
 11
5001.842
 21
817.952
 31
0
 0
LINE
 8
TOOL_0
 5
154
 10
5001.842
 20
817.952
 30
0
 11
5001.842
 21
804.952
 31
0
 0
ARC
 8
TOOL_0
 5
155
 10
5008.842
 20
804.952
 30
0
 40
7.0
 50
180.0
 51
270.0
210
0
220
0
230
1.0
 0
LINE
 8
TOOL_0
 5
156
 10
5008.842
 20
797.952
 30
0
 11
5162.842
 21
797.952
 31
0
 0
ARC
 8
TOOL_0
 5
157
 10
5162.842
 20
804.952
 30
0
 40
7.0
 50
270.0
 51
0
210
0
220
0
230
1.0
 0
LINE
 8
TOOL_0
 5
158
 10
5169.842
 20
804.952
 30
0
 11
5169.842
 21
817.952
 31
0
 0
LINE
 8
TOOL_0
 5
159
 10
5169.842
 20
817.952
 30
0
 11
5586.842
 21
817.952
 31
0
 0
LINE
 8
TOOL_0
 5
15A
 10
5586.842
 20
817.952
 30
0
 11
5586.842
 21
809.952
 31
0
 0
ARC
 8
TOOL_0
 5
15B
 10
5593.842
 20
809.952
 30
0
 40
7.0
 50
180.0
 51
270.0
210
0
220
0
230
1.0
 0
LINE
 8
TOOL_0
 5
15C
 10
5593.842
 20
802.952
 30
0
 11
5772.342
 21
802.952
 31
0
 0
LINE
 8
TOOL_0
 5
15D
 10
5772.342
 20
802.952
 30
0
 11
5772.342
 21
474.459
 31
0
 0
LINE
 8
TOOL_0
 5
15E
 10
5772.342
 20
474.459
 30
0
 11
5117.695
 21
221.952
 31
0
 0
LINE
 8
TOOL_0
 5
15F
 10
5117.695
 20
221.952
 30
0
 11
4644.126
 21
221.952
 31
0
 0
ARC
 8
TOOL_0
 5
160
 10
4644.126
 20
301.952
 30
0
 40
80.0
 50
230.388740979326
 51
270.0
210
0
220
0
230
1.0
 0
LINE
 8
TOOL_0
 5
161
 10
4593.12
 20
240.321
 30
0
 11
4319.842
 21
466.482
 31
0
 0
LINE
 8
TOOL_0
 5
162
 10
4319.842
 20
466.482
 30
0
 11
4319.842
 21
572.952
 31
0
 0
LINE
 8
TOOL_0
 5
163
 10
4319.842
 20
572.952
 30
0
 11
4400.842
 21
572.952
 31
0
 0
ARC
 8
TOOL_0
 5
164
 10
4400.842
 20
621.952
 30
0
 40
49.0
 50
270.0
 51
0
210
0
220
0
230
1.0
 0
LINE
 8
TOOL_0
 5
165
 10
4449.842
 20
621.952
 30
0
 11
4449.842
 21
681.952
 31
0
 0
ARC
 8
TOOL_0
 5
166
 10
4400.842
 20
681.952
 30
0
 40
49.0
 50
0
 51
90.0
210
0
220
0
230
1.0
 0
LINE
 8
TOOL_0
 5
167
 10
4400.842
 20
730.952
 30
0
 11
4319.842
 21
730.952
 31
0
 0
LINE
 8
TOOL_0
 5
168
 10
4319.842
 20
730.952
 30
0
 11
4314.588
 21
730.952
 31
0
 0
LINE
 8
TOOL_0
 5
169
 10
4314.588
 20
730.952
 30
0
 11
7349.743
 21
1236.236
 31
0
 0
LINE
 8
TOOL_0
 5
16A
 10
7349.743
 20
1236.236
 30
0
 11
7384.743
 21
1236.236
 31
0
 0
LINE
 8
TOOL_0
 5
16B
 10
7384.743
 20
1236.236
 30
0
 11
7384.743
 21
1301.236
 31
0
 0
ARC
 8
TOOL_0
 5
16C
 10
7349.743
 20
1301.236
 30
0
 40
35.0
 50
0
 51
90.0
210
0
220
0
230
1.0
 0
LINE
 8
TOOL_0
 5
16D
 10
7349.743
 20
1336.236
 30
0
 11
7084.743
 21
1336.236
 31
0
 0
ARC
 8
TOOL_0
 5
16E
 10
7084.743
 20
1301.236
 30
0
 40
35.0
 50
90.0
 51
180.0
210
0
220
0
230
1.0
 0
LINE
 8
TOOL_0
 5
16F
 10
7049.743
 20
1301.236
 30
0
 11
7049.743
 21
1171.236
 31
0
 0
ARC
 8
TOOL_0
 5
170
 10
7084.743
 20
1171.236
 30
0
 40
35.0
 50
180.0
 51
270.0
210
0
220
0
230
1.0
 0
LINE
 8
TOOL_0
 5
171
 10
7084.743
 20
1136.236
 30
0
 11
7349.743
 21
1136.236
 31
0
 0
ARC
 8
TOOL_0
 5
172
 10
7349.743
 20
1171.236
 30
0
 40
35.0
 50
270.0
 51
0
210
0
220
0
230
1.0
 0
LINE
 8
TOOL_0
 5
173
 10
7384.743
 20
1171.236
 30
0
 11
7384.743
 21
1236.236
 31
0
 0
LINE
 8
TOOL_0
 5
174
 10
7384.743
 20
1236.236
 30
0
 11
7374.136
 21
1246.843
 31
0
 0
LINE
 8
TOOL_0
 5
175
 10
7374.136
 20
1246.843
 30
0
 11
7309.743
 21
846.237
 31
0
 0
LINE
 8
TOOL_0
 5
176
 10
7309.743
 20
846.237
 30
0
 11
7344.743
 21
846.237
 31
0
 0
LINE
 8
TOOL_0
 5
177
 10
7344.743
 20
846.237
 30
0
 11
7344.743
 21
911.237
 31
0
 0
ARC
 8
TOOL_0
 5
178
 10
7309.743
 20
911.237
 30
0
 40
35.0
 50
0
 51
90.0
210
0
220
0
230
1.0
 0
LINE
 8
TOOL_0
 5
179
 10
7309.743
 20
946.237
 30
0
 11
7084.743
 21
946.237
 31
0
 0
ARC
 8
TOOL_0
 5
17A
 10
7084.743
 20
911.237
 30
0
 40
35.0
 50
90.0
 51
180.0
210
0
220
0
230
1.0
 0
LINE
 8
TOOL_0
 5
17B
 10
7049.743
 20
911.237
 30
0
 11
7049.743
 21
781.237
 31
0
 0
ARC
 8
TOOL_0
 5
17C
 10
7084.743
 20
781.237
 30
0
 40
35.0
 50
180.0
 51
270.0
210
0
220
0
230
1.0
 0
LINE
 8
TOOL_0
 5
17D
 10
7084.743
 20
746.237
 30
0
 11
7309.743
 21
746.237
 31
0
 0
ARC
 8
TOOL_0
 5
17E
 10
7309.743
 20
781.237
 30
0
 40
35.0
 50
270.0
 51
0
210
0
220
0
230
1.0
 0
LINE
 8
TOOL_0
 5
17F
 10
7344.743
 20
781.237
 30
0
 11
7344.743
 21
846.237
 31
0
 0
LINE
 8
TOOL_0
 5
180
 10
7344.743
 20
846.237
 30
0
 11
7334.136
 21
856.844
 31
0
 0
LINE
 8
TOOL_0
 5
181
 10
7334.136
 20
856.844
 30
0
 11
7363.245
 21
1622.238
 31
0
 0
LINE
 8
TOOL_0
 5
182
 10
7363.245
 20
1622.238
 30
0
 11
7393.743
 21
1622.238
 31
0
 0
LINE
 8
TOOL_0
 5
183
 10
7393.743
 20
1622.238
 30
0
 11
7450.157
 21
1622.238
 31
0
 0
LINE
 8
TOOL_0
 5
184
 10
7450.157
 20
1622.238
 30
0
 11
7460.743
 21
1611.652
 31
0
 0
LINE
 8
TOOL_0
 5
185
 10
7460.743
 20
1611.652
 30
0
 11
7460.743
 21
1489.238
 31
0
 0
ARC
 8
TOOL_0
 5
186
 10
7467.743
 20
1489.238
 30
0
 40
7.0
 50
180.0
 51
270.0
210
0
220
0
230
1.0
 0
LINE
 8
TOOL_0
 5
187
 10
7467.743
 20
1482.238
 30
0
 11
7480.743
 21
1482.238
 31
0
 0
LINE
 8
TOOL_0
 5
188
 10
7480.743
 20
1482.238
 30
0
 11
7480.743
 21
940.238
 31
0
 0
LINE
 8
TOOL_0
 5
189
 10
7480.743
 20
940.238
 30
0
 11
7467.743
 21
940.238
 31
0
 0
ARC
 8
TOOL_0
 5
18A
 10
7467.743
 20
933.238
 30
0
 40
7.0
 50
90.0
 51
180.0
210
0
220
0
230
1.0
 0
LINE
 8
TOOL_0
 5
18B
 10
7460.743
 20
933.238
 30
0
 11
7460.743
 21
779.238
 31
0
 0
ARC
 8
TOOL_0
 5
18C
 10
7467.743
 20
779.238
 30
0
 40
7.0
 50
180.0
 51
270.0
210
0
220
0
230
1.0
 0
LINE
 8
TOOL_0
 5
18D
 10
7467.743
 20
772.238
 30
0
 11
7480.743
 21
772.238
 31
0
 0
LINE
 8
TOOL_0
 5
18E
 10
7480.743
 20
772.238
 30
0
 11
7480.743
 21
355.238
 31
0
 0
LINE
 8
TOOL_0
 5
18F
 10
7480.743
 20
355.238
 30
0
 11
7472.743
 21
355.238
 31
0
 0
ARC
 8
TOOL_0
 5
190
 10
7472.743
 20
348.238
 30
0
 40
7.0
 50
90.0
 51
180.0
210
0
220
0
230
1.0
 0
LINE
 8
TOOL_0
 5
191
 10
7465.743
 20
348.238
 30
0
 11
7465.743
 21
169.738
 31
0
 0
LINE
 8
TOOL_0
 5
192
 10
7465.743
 20
169.738
 30
0
 11
7137.25
 21
169.738
 31
0
 0
LINE
 8
TOOL_0
 5
193
 10
7137.25
 20
169.738
 30
0
 11
6884.743
 21
824.385
 31
0
 0
LINE
 8
TOOL_0
 5
194
 10
6884.743
 20
824.385
 30
0
 11
6884.743
 21
1297.954
 31
0
 0
ARC
 8
TOOL_0
 5
195
 10
6964.743
 20
1297.954
 30
0
 40
80.0
 50
140.389749357743
 51
180.0
210
0
220
0
230
1.0
 0
LINE
 8
TOOL_0
 5
196
 10
6903.111
 20
1348.959
 30
0
 11
7129.272
 21
1622.237
 31
0
 0
LINE
 8
TOOL_0
 5
197
 10
7129.272
 20
1622.237
 30
0
 11
7235.742
 21
1622.237
 31
0
 0
LINE
 8
TOOL_0
 5
198
 10
7235.742
 20
1622.237
 30
0
 11
7235.742
 21
1541.237
 31
0
 0
ARC
 8
TOOL_0
 5
199
 10
7284.742
 20
1541.237
 30
0
 40
49.0
 50
180.0
 51
270.0
210
0
220
0
230
1.0
 0
LINE
 8
TOOL_0
 5
19A
 10
7284.742
 20
1492.237
 30
0
 11
7344.742
 21
1492.237
 31
0
 0
ARC
 8
TOOL_0
 5
19B
 10
7344.742
 20
1541.237
 30
0
 40
49.0
 50
270.0
 51
0
210
0
220
0
230
1.0
 0
LINE
 8
TOOL_0
 5
19C
 10
7393.742
 20
1541.237
 30
0
 11
7393.742
 21
1622.237
 31
0
 0
LINE
 8
TOOL_0
 5
19D
 10
7393.742
 20
1622.237
 30
0
 11
7393.742
 21
1627.534
 31
0
 0
ENDSEC
 0
EOF

