0
SECTION
2
TABLES
0
TABLE
2
LAYER
70
0
0
LAYER
2
LAYER_NAME
70
0
62
1
6
CONTINUOUS
0
ENDTAB
0
ENDSEC
 0
SECTION
 2
ENTITIES
 0
LINE
 8
TOOL_0
 5
1
 10
992.544
 20
132.91
 30
0
 11
967.795
 21
108.161
 31
0
 0
LINE
 8
TOOL_0
 5
2
 10
967.795
 20
108.161
 30
0
 11
965.143
 21
106.755
 31
0
 0
ARC
 8
TOOL_0
 5
3
 10
954.75
 20
108.251
 30
0
 40
10.500117380296
 50
270.0
 51
351.808934039592
210
0
220
0
230
1.0
 0
LINE
 8
TOOL_0
 5
4
 10
954.75
 20
97.751
 30
0
 11
656.502
 21
97.751
 31
0
 0
ARC
 8
TOOL_0
 5
5
 10
656.502
 20
48.251
 30
0
 40
49.5
 50
90.0
 51
130.797523909564
210
0
220
0
230
1.0
 0
LINE
 8
TOOL_0
 5
6
 10
624.159
 20
85.724
 30
0
 11
547.455
 21
19.521
 31
0
 0
ARC
 8
TOOL_0
 5
7
 10
514.459
 20
57.751
 30
0
 40
50.500187286781
 50
270.0
 51
310.797208021899
210
0
220
0
230
1.0
 0
LINE
 8
TOOL_0
 5
8
 10
514.459
 20
7.251
 30
0
 11
183.434
 21
7.251
 31
0
 0
ARC
 8
TOOL_0
 5
9
 10
183.434
 20
57.751
 30
0
 40
50.5
 50
250.075925995321
 51
270.0
210
0
220
0
230
1.0
 0
LINE
 8
TOOL_0
 5
A
 10
166.225
 20
10.274
 30
0
 11
76.962
 21
42.628
 31
0
 0
ARC
 8
TOOL_0
 5
B
 10
83.948
 20
61.901
 30
0
 40
20.500066463307
 50
222.797857570943
 51
250.075634603523
210
0
220
0
230
1.0
 0
LINE
 8
TOOL_0
 5
C
 10
68.906
 20
47.973
 30
0
 11
26.021
 21
94.284
 31
0
 0
ARC
 8
TOOL_0
 5
D
 10
77.749
 20
142.185
 30
0
 40
70.500296346895
 50
180.0
 51
222.8002067944
210
0
220
0
230
1.0
 0
LINE
 8
TOOL_0
 5
E
 10
7.249
 20
142.185
 30
0
 11
7.249
 21
157.319
 31
0
 0
ARC
 8
TOOL_0
 5
F
 10
77.749
 20
157.319
 30
0
 40
70.5
 50
137.199793205599
 51
180.0
210
0
220
0
230
1.0
 0
LINE
 8
TOOL_0
 5
10
 10
26.021
 20
205.22
 30
0
 11
68.906
 21
251.531
 31
0
 0
ARC
 8
TOOL_0
 5
11
 10
83.947
 20
237.602
 30
0
 40
20.499968829245
 50
109.920785441378
 51
137.19819273391
210
0
220
0
230
1.0
 0
LINE
 8
TOOL_0
 5
12
 10
76.962
 20
256.876
 30
0
 11
166.225
 21
289.23
 31
0
 0
ARC
 8
TOOL_0
 5
13
 10
183.433
 20
241.752
 30
0
 40
50.50025493005
 50
90.0
 51
109.922620719172
210
0
220
0
230
1.0
 0
LINE
 8
TOOL_0
 5
14
 10
183.433
 20
292.252
 30
0
 11
514.459
 21
292.252
 31
0
 0
ARC
 8
TOOL_0
 5
15
 10
514.459
 20
241.752
 30
0
 40
50.5
 50
49.202791978102
 51
90.0
210
0
220
0
230
1.0
 0
LINE
 8
TOOL_0
 5
16
 10
547.455
 20
279.982
 30
0
 11
624.159
 21
213.779
 31
0
 0
ARC
 8
TOOL_0
 5
17
 10
656.502
 20
251.252
 30
0
 40
49.500458361514
 50
229.202476090435
 51
269.998842509505
210
0
220
0
230
1.0
 0
LINE
 8
TOOL_0
 5
18
 10
656.501
 20
201.752
 30
0
 11
954.749
 21
201.752
 31
0
 0
ARC
 8
TOOL_0
 5
19
 10
954.749
 20
191.252
 30
0
 40
10.5
 50
0
 51
90.0
210
0
220
0
230
1.0
 0
LINE
 8
TOOL_0
 5
1A
 10
965.249
 20
191.252
 30
0
 11
965.249
 21
109.754
 31
0
 0
LINE
 8
TOOL_0
 5
1B
 10
965.249
 20
109.754
 30
0
 11
967.794
 21
108.162
 31
0
 0
LINE
 8
TOOL_0
 5
1C
 10
967.794
 20
108.162
 30
0
 11
971.33
 21
104.626
 31
0
 0
LINE
 8
TOOL_0
 5
1D
 10
971.33
 20
104.626
 30
0
 11
971.33
 21
0.001
 31
0
 0
LINE
 8
TOOL_0
 5
1E
 10
971.33
 20
0.001
 30
0
 11
1193.707
 21
344.19
 31
0
 0
LINE
 8
TOOL_0
 5
1F
 10
1193.707
 20
344.19
 30
0
 11
1161.735
 21
329.95
 31
0
 0
LINE
 8
TOOL_0
 5
20
 10
1161.735
 20
329.95
 30
0
 11
1158.77
 21
329.481
 31
0
 0
ARC
 8
TOOL_0
 5
21
 10
1093.502
 20
356.132
 30
0
 40
70.499557622726
 50
317.199241013934
 51
337.78824455375
210
0
220
0
230
1.0
 0
LINE
 8
TOOL_0
 5
22
 10
1145.229
 20
308.231
 30
0
 11
1102.345
 21
261.92
 31
0
 0
ARC
 8
TOOL_0
 5
23
 10
1087.304
 20
275.849
 30
0
 40
20.499968829245
 50
289.920785441378
 51
317.19819273391
210
0
220
0
230
1.0
 0
LINE
 8
TOOL_0
 5
24
 10
1094.289
 20
256.575
 30
0
 11
1005.026
 21
224.221
 31
0
 0
ARC
 8
TOOL_0
 5
25
 10
987.818
 20
271.699
 30
0
 40
50.50025493005
 50
269.998865430109
 51
289.922620719172
210
0
220
0
230
1.0
 0
LINE
 8
TOOL_0
 5
26
 10
987.817
 20
221.199
 30
0
 11
656.792
 21
221.199
 31
0
 0
ARC
 8
TOOL_0
 5
27
 10
656.792
 20
271.699
 30
0
 40
50.5
 50
229.202050660247
 51
270.0
210
0
220
0
230
1.0
 0
LINE
 8
TOOL_0
 5
28
 10
623.796
 20
233.47
 30
0
 11
547.093
 21
299.672
 31
0
 0
ARC
 8
TOOL_0
 5
29
 10
514.75
 20
262.199
 30
0
 40
49.500458361514
 50
49.202476090436
 51
90.0
210
0
220
0
230
1.0
 0
LINE
 8
TOOL_0
 5
2A
 10
514.75
 20
311.699
 30
0
 11
216.502
 21
311.699
 31
0
 0
ARC
 8
TOOL_0
 5
2B
 10
216.502
 20
322.199
 30
0
 40
10.5
 50
180.0
 51
270.0
210
0
220
0
230
1.0
 0
LINE
 8
TOOL_0
 5
2C
 10
206.002
 20
322.199
 30
0
 11
206.002
 21
405.199
 31
0
 0
ARC
 8
TOOL_0
 5
2D
 10
216.502
 20
405.199
 30
0
 40
10.5
 50
90.0
 51
180.0
210
0
220
0
230
1.0
 0
LINE
 8
TOOL_0
 5
2E
 10
216.502
 20
415.699
 30
0
 11
514.75
 21
415.699
 31
0
 0
ARC
 8
TOOL_0
 5
2F
 10
514.75
 20
465.199
 30
0
 40
49.5
 50
270.0
 51
310.796647658846
210
0
220
0
230
1.0
 0
LINE
 8
TOOL_0
 5
30
 10
547.092
 20
427.726
 30
0
 11
623.796
 21
493.929
 31
0
 0
ARC
 8
TOOL_0
 5
31
 10
656.792
 20
455.699
 30
0
 40
50.500187286781
 50
90.0
 51
130.797208021898
210
0
220
0
230
1.0
 0
LINE
 8
TOOL_0
 5
32
 10
656.792
 20
506.199
 30
0
 11
987.818
 21
506.199
 31
0
 0
ARC
 8
TOOL_0
 5
33
 10
987.818
 20
455.699
 30
0
 40
50.5
 50
70.077379280828
 51
90.0
210
0
220
0
230
1.0
 0
LINE
 8
TOOL_0
 5
34
 10
1005.026
 20
503.177
 30
0
 11
1094.289
 21
470.823
 31
0
 0
ARC
 8
TOOL_0
 5
35
 10
1087.303
 20
451.55
 30
0
 40
20.500066463307
 50
42.797857570943
 51
70.075634603523
210
0
220
0
230
1.0
 0
LINE
 8
TOOL_0
 5
36
 10
1102.345
 20
465.478
 30
0
 11
1145.23
 21
419.167
 31
0
 0
ARC
 8
TOOL_0
 5
37
 10
1093.502
 20
371.266
 30
0
 40
70.500296346895
 50
0
 51
42.8002067944
210
0
220
0
230
1.0
 0
LINE
 8
TOOL_0
 5
38
 10
1164.002
 20
371.266
 30
0
 11
1164.002
 21
356.131
 31
0
 0
ARC
 8
TOOL_0
 5
39
 10
1093.502
 20
356.131
 30
0
 40
70.5
 50
340.225959928636
 51
0
210
0
220
0
230
1.0
 0
LINE
 8
TOOL_0
 5
3A
 10
1159.845
 20
332.28
 30
0
 11
1161.735
 21
329.948
 31
0
 0
LINE
 8
TOOL_0
 5
3B
 10
1161.735
 20
329.948
 30
0
 11
1163.769
 21
325.381
 31
0
 0
LINE
 8
TOOL_0
 5
3C
 10
1163.769
 20
325.381
 30
0
 11
1163.769
 21
0
 31
0
 0
LINE
 8
TOOL_0
 5
3D
 10
1163.769
 20
0
 30
0
 11
2034.618
 21
132.91
 31
0
 0
LINE
 8
TOOL_0
 5
3E
 10
2034.618
 20
132.91
 30
0
 11
2009.87
 21
108.161
 31
0
 0
LINE
 8
TOOL_0
 5
3F
 10
2009.87
 20
108.161
 30
0
 11
2007.218
 21
106.755
 31
0
 0
ARC
 8
TOOL_0
 5
40
 10
1996.825
 20
108.251
 30
0
 40
10.500117380296
 50
270.0
 51
351.808934039592
210
0
220
0
230
1.0
 0
LINE
 8
TOOL_0
 5
41
 10
1996.825
 20
97.751
 30
0
 11
1698.577
 21
97.751
 31
0
 0
ARC
 8
TOOL_0
 5
42
 10
1698.577
 20
48.251
 30
0
 40
49.5
 50
90.0
 51
130.797523909564
210
0
220
0
230
1.0
 0
LINE
 8
TOOL_0
 5
43
 10
1666.234
 20
85.724
 30
0
 11
1589.53
 21
19.521
 31
0
 0
ARC
 8
TOOL_0
 5
44
 10
1556.534
 20
57.751
 30
0
 40
50.500187286782
 50
270.0
 51
310.797208021899
210
0
220
0
230
1.0
 0
LINE
 8
TOOL_0
 5
45
 10
1556.534
 20
7.251
 30
0
 11
1225.509
 21
7.251
 31
0
 0
ARC
 8
TOOL_0
 5
46
 10
1225.509
 20
57.751
 30
0
 40
50.5
 50
250.075925995321
 51
270.0
210
0
220
0
230
1.0
 0
LINE
 8
TOOL_0
 5
47
 10
1208.3
 20
10.274
 30
0
 11
1119.037
 21
42.628
 31
0
 0
ARC
 8
TOOL_0
 5
48
 10
1126.023
 20
61.901
 30
0
 40
20.500066463307
 50
222.797857570942
 51
250.075634603523
210
0
220
0
230
1.0
 0
LINE
 8
TOOL_0
 5
49
 10
1110.981
 20
47.973
 30
0
 11
1068.096
 21
94.284
 31
0
 0
ARC
 8
TOOL_0
 5
4A
 10
1119.824
 20
142.185
 30
0
 40
70.500296346895
 50
180.0
 51
222.8002067944
210
0
220
0
230
1.0
 0
LINE
 8
TOOL_0
 5
4B
 10
1049.324
 20
142.185
 30
0
 11
1049.324
 21
157.319
 31
0
 0
ARC
 8
TOOL_0
 5
4C
 10
1119.824
 20
157.319
 30
0
 40
70.5
 50
137.199793205599
 51
180.0
210
0
220
0
230
1.0
 0
LINE
 8
TOOL_0
 5
4D
 10
1068.096
 20
205.22
 30
0
 11
1110.981
 21
251.531
 31
0
 0
ARC
 8
TOOL_0
 5
4E
 10
1126.022
 20
237.602
 30
0
 40
20.499968829245
 50
109.920785441378
 51
137.19819273391
210
0
220
0
230
1.0
 0
LINE
 8
TOOL_0
 5
4F
 10
1119.037
 20
256.876
 30
0
 11
1208.3
 21
289.23
 31
0
 0
ARC
 8
TOOL_0
 5
50
 10
1225.508
 20
241.752
 30
0
 40
50.50025493005
 50
90.0
 51
109.922620719172
210
0
220
0
230
1.0
 0
LINE
 8
TOOL_0
 5
51
 10
1225.508
 20
292.252
 30
0
 11
1556.534
 21
292.252
 31
0
 0
ARC
 8
TOOL_0
 5
52
 10
1556.534
 20
241.752
 30
0
 40
50.5
 50
49.202791978101
 51
90.0
210
0
220
0
230
1.0
 0
LINE
 8
TOOL_0
 5
53
 10
1589.53
 20
279.982
 30
0
 11
1666.234
 21
213.779
 31
0
 0
ARC
 8
TOOL_0
 5
54
 10
1698.577
 20
251.252
 30
0
 40
49.500458361514
 50
229.202476090435
 51
269.998842509505
210
0
220
0
230
1.0
 0
LINE
 8
TOOL_0
 5
55
 10
1698.576
 20
201.752
 30
0
 11
1996.824
 21
201.752
 31
0
 0
ARC
 8
TOOL_0
 5
56
 10
1996.824
 20
191.252
 30
0
 40
10.5
 50
0
 51
90.0
210
0
220
0
230
1.0
 0
LINE
 8
TOOL_0
 5
57
 10
2007.324
 20
191.252
 30
0
 11
2007.324
 21
109.754
 31
0
 0
LINE
 8
TOOL_0
 5
58
 10
2007.324
 20
109.754
 30
0
 11
2009.869
 21
108.162
 31
0
 0
LINE
 8
TOOL_0
 5
59
 10
2009.869
 20
108.162
 30
0
 11
2013.405
 21
104.626
 31
0
 0
LINE
 8
TOOL_0
 5
5A
 10
2013.405
 20
104.626
 30
0
 11
2013.405
 21
0.001
 31
0
 0
LINE
 8
TOOL_0
 5
5B
 10
2013.405
 20
0.001
 30
0
 11
2235.351
 21
342.438
 31
0
 0
LINE
 8
TOOL_0
 5
5C
 10
2235.351
 20
342.438
 30
0
 11
2203.279
 21
328.426
 31
0
 0
LINE
 8
TOOL_0
 5
5D
 10
2203.279
 20
328.426
 30
0
 11
2200.311
 21
327.978
 31
0
 0
ARC
 8
TOOL_0
 5
5E
 10
2135.234
 20
355.093
 30
0
 40
70.499923077972
 50
317.199241013934
 51
337.380447631567
210
0
220
0
230
1.0
 0
LINE
 8
TOOL_0
 5
5F
 10
2186.961
 20
307.192
 30
0
 11
2144.077
 21
260.881
 31
0
 0
ARC
 8
TOOL_0
 5
60
 10
2129.036
 20
274.81
 30
0
 40
20.499968829245
 50
289.920785441379
 51
317.198192733911
210
0
220
0
230
1.0
 0
LINE
 8
TOOL_0
 5
61
 10
2136.021
 20
255.536
 30
0
 11
2046.758
 21
223.182
 31
0
 0
ARC
 8
TOOL_0
 5
62
 10
2029.55
 20
270.66
 30
0
 40
50.50025493005
 50
269.998865430109
 51
289.922620719172
210
0
220
0
230
1.0
 0
LINE
 8
TOOL_0
 5
63
 10
2029.549
 20
220.16
 30
0
 11
1698.524
 21
220.16
 31
0
 0
ARC
 8
TOOL_0
 5
64
 10
1698.524
 20
270.66
 30
0
 40
50.5
 50
229.202050660247
 51
270.0
210
0
220
0
230
1.0
 0
LINE
 8
TOOL_0
 5
65
 10
1665.528
 20
232.431
 30
0
 11
1588.825
 21
298.633
 31
0
 0
ARC
 8
TOOL_0
 5
66
 10
1556.482
 20
261.16
 30
0
 40
49.500458361514
 50
49.202476090436
 51
90.0
210
0
220
0
230
1.0
 0
LINE
 8
TOOL_0
 5
67
 10
1556.482
 20
310.66
 30
0
 11
1258.234
 21
310.66
 31
0
 0
ARC
 8
TOOL_0
 5
68
 10
1258.234
 20
321.16
 30
0
 40
10.5
 50
180.0
 51
270.0
210
0
220
0
230
1.0
 0
LINE
 8
TOOL_0
 5
69
 10
1247.734
 20
321.16
 30
0
 11
1247.734
 21
404.16
 31
0
 0
ARC
 8
TOOL_0
 5
6A
 10
1258.234
 20
404.16
 30
0
 40
10.5
 50
90.0
 51
180.0
210
0
220
0
230
1.0
 0
LINE
 8
TOOL_0
 5
6B
 10
1258.234
 20
414.66
 30
0
 11
1556.482
 21
414.66
 31
0
 0
ARC
 8
TOOL_0
 5
6C
 10
1556.482
 20
464.16
 30
0
 40
49.5
 50
270.0
 51
310.796647658846
210
0
220
0
230
1.0
 0
LINE
 8
TOOL_0
 5
6D
 10
1588.824
 20
426.687
 30
0
 11
1665.528
 21
492.89
 31
0
 0
ARC
 8
TOOL_0
 5
6E
 10
1698.524
 20
454.66
 30
0
 40
50.500187286782
 50
90.0
 51
130.797208021898
210
0
220
0
230
1.0
 0
LINE
 8
TOOL_0
 5
6F
 10
1698.524
 20
505.16
 30
0
 11
2029.55
 21
505.16
 31
0
 0
ARC
 8
TOOL_0
 5
70
 10
2029.55
 20
454.66
 30
0
 40
50.5
 50
70.077379280828
 51
90.0
210
0
220
0
230
1.0
 0
LINE
 8
TOOL_0
 5
71
 10
2046.758
 20
502.138
 30
0
 11
2136.021
 21
469.784
 31
0
 0
ARC
 8
TOOL_0
 5
72
 10
2129.035
 20
450.511
 30
0
 40
20.500066463307
 50
42.797857570943
 51
70.075634603524
210
0
220
0
230
1.0
 0
LINE
 8
TOOL_0
 5
73
 10
2144.077
 20
464.439
 30
0
 11
2186.962
 21
418.128
 31
0
 0
ARC
 8
TOOL_0
 5
74
 10
2135.234
 20
370.227
 30
0
 40
70.500296346895
 50
0
 51
42.8002067944
210
0
220
0
230
1.0
 0
LINE
 8
TOOL_0
 5
75
 10
2205.734
 20
370.227
 30
0
 11
2205.734
 21
355.092
 31
0
 0
ARC
 8
TOOL_0
 5
76
 10
2135.234
 20
355.092
 30
0
 40
70.5
 50
339.818728831953
 51
0
210
0
220
0
230
1.0
 0
LINE
 8
TOOL_0
 5
77
 10
2201.406
 20
330.77
 30
0
 11
2203.28
 21
328.425
 31
0
 0
LINE
 8
TOOL_0
 5
78
 10
2203.28
 20
328.425
 30
0
 11
2205.282
 21
323.843
 31
0
 0
LINE
 8
TOOL_0
 5
79
 10
2205.282
 20
323.843
 30
0
 11
2205.282
 21
0
 31
0
 0
LINE
 8
TOOL_0
 5
7A
 10
2205.282
 20
0
 30
0
 11
3079.457
 21
134.64
 31
0
 0
LINE
 8
TOOL_0
 5
7B
 10
3079.457
 20
134.64
 30
0
 11
3054.708
 21
109.892
 31
0
 0
LINE
 8
TOOL_0
 5
7C
 10
3054.708
 20
109.892
 30
0
 11
3052.056
 21
108.486
 31
0
 0
ARC
 8
TOOL_0
 5
7D
 10
3041.663
 20
109.982
 30
0
 40
10.500117380296
 50
270.0
 51
351.808934039592
210
0
220
0
230
1.0
 0
LINE
 8
TOOL_0
 5
7E
 10
3041.663
 20
99.482
 30
0
 11
2743.415
 21
99.482
 31
0
 0
ARC
 8
TOOL_0
 5
7F
 10
2743.415
 20
49.982
 30
0
 40
49.5
 50
90.0
 51
130.797523909564
210
0
220
0
230
1.0
 0
LINE
 8
TOOL_0
 5
80
 10
2711.072
 20
87.455
 30
0
 11
2634.368
 21
21.252
 31
0
 0
ARC
 8
TOOL_0
 5
81
 10
2601.372
 20
59.482
 30
0
 40
50.500187286782
 50
270.0
 51
310.797208021899
210
0
220
0
230
1.0
 0
LINE
 8
TOOL_0
 5
82
 10
2601.372
 20
8.982
 30
0
 11
2270.347
 21
8.982
 31
0
 0
ARC
 8
TOOL_0
 5
83
 10
2270.347
 20
59.482
 30
0
 40
50.5
 50
250.075925995321
 51
270.0
210
0
220
0
230
1.0
 0
LINE
 8
TOOL_0
 5
84
 10
2253.138
 20
12.005
 30
0
 11
2163.875
 21
44.359
 31
0
 0
ARC
 8
TOOL_0
 5
85
 10
2170.861
 20
63.632
 30
0
 40
20.500066463307
 50
222.797857570943
 51
250.075634603523
210
0
220
0
230
1.0
 0
LINE
 8
TOOL_0
 5
86
 10
2155.819
 20
49.704
 30
0
 11
2112.934
 21
96.015
 31
0
 0
ARC
 8
TOOL_0
 5
87
 10
2164.662
 20
143.916
 30
0
 40
70.500296346895
 50
180.0
 51
222.8002067944
210
0
220
0
230
1.0
 0
LINE
 8
TOOL_0
 5
88
 10
2094.162
 20
143.916
 30
0
 11
2094.162
 21
159.05
 31
0
 0
ARC
 8
TOOL_0
 5
89
 10
2164.662
 20
159.05
 30
0
 40
70.5
 50
137.199793205599
 51
180.0
210
0
220
0
230
1.0
 0
LINE
 8
TOOL_0
 5
8A
 10
2112.934
 20
206.951
 30
0
 11
2155.819
 21
253.262
 31
0
 0
ARC
 8
TOOL_0
 5
8B
 10
2170.86
 20
239.333
 30
0
 40
20.499968829245
 50
109.920785441379
 51
137.19819273391
210
0
220
0
230
1.0
 0
LINE
 8
TOOL_0
 5
8C
 10
2163.875
 20
258.607
 30
0
 11
2253.138
 21
290.961
 31
0
 0
ARC
 8
TOOL_0
 5
8D
 10
2270.346
 20
243.483
 30
0
 40
50.50025493005
 50
90.0
 51
109.922620719172
210
0
220
0
230
1.0
 0
LINE
 8
TOOL_0
 5
8E
 10
2270.346
 20
293.983
 30
0
 11
2601.372
 21
293.983
 31
0
 0
ARC
 8
TOOL_0
 5
8F
 10
2601.372
 20
243.483
 30
0
 40
50.5
 50
49.202791978101
 51
90.0
210
0
220
0
230
1.0
 0
LINE
 8
TOOL_0
 5
90
 10
2634.368
 20
281.713
 30
0
 11
2711.072
 21
215.51
 31
0
 0
ARC
 8
TOOL_0
 5
91
 10
2743.415
 20
252.983
 30
0
 40
49.500458361514
 50
229.202476090436
 51
269.998842509505
210
0
220
0
230
1.0
 0
LINE
 8
TOOL_0
 5
92
 10
2743.414
 20
203.483
 30
0
 11
3041.662
 21
203.483
 31
0
 0
ARC
 8
TOOL_0
 5
93
 10
3041.662
 20
192.983
 30
0
 40
10.5
 50
0
 51
90.0
210
0
220
0
230
1.0
 0
LINE
 8
TOOL_0
 5
94
 10
3052.162
 20
192.983
 30
0
 11
3052.162
 21
111.485
 31
0
 0
LINE
 8
TOOL_0
 5
95
 10
3052.162
 20
111.485
 30
0
 11
3054.707
 21
109.893
 31
0
 0
LINE
 8
TOOL_0
 5
96
 10
3054.707
 20
109.893
 30
0
 11
3058.243
 21
106.357
 31
0
 0
LINE
 8
TOOL_0
 5
97
 10
3058.243
 20
106.357
 30
0
 11
3058.243
 21
0.001
 31
0
 0
LINE
 8
TOOL_0
 5
98
 10
3058.243
 20
0.001
 30
0
 11
3278.237
 21
344.219
 31
0
 0
LINE
 8
TOOL_0
 5
99
 10
3278.237
 20
344.219
 30
0
 11
3245.933
 21
330.748
 31
0
 0
LINE
 8
TOOL_0
 5
9A
 10
3245.933
 20
330.748
 30
0
 11
3242.958
 21
330.35
 31
0
 0
ARC
 8
TOOL_0
 5
9B
 10
3178.346
 20
358.555
 30
0
 40
70.499876375778
 50
317.199241013934
 51
336.41734391359
210
0
220
0
230
1.0
 0
LINE
 8
TOOL_0
 5
9C
 10
3230.073
 20
310.654
 30
0
 11
3187.189
 21
264.343
 31
0
 0
ARC
 8
TOOL_0
 5
9D
 10
3172.148
 20
278.272
 30
0
 40
20.499968829245
 50
289.920785441379
 51
317.198192733911
210
0
220
0
230
1.0
 0
LINE
 8
TOOL_0
 5
9E
 10
3179.133
 20
258.998
 30
0
 11
3089.87
 21
226.644
 31
0
 0
ARC
 8
TOOL_0
 5
9F
 10
3072.662
 20
274.122
 30
0
 40
50.50025493005
 50
269.998865430109
 51
289.922620719172
210
0
220
0
230
1.0
 0
LINE
 8
TOOL_0
 5
A0
 10
3072.661
 20
223.622
 30
0
 11
2741.636
 21
223.622
 31
0
 0
ARC
 8
TOOL_0
 5
A1
 10
2741.636
 20
274.122
 30
0
 40
50.5
 50
229.202050660247
 51
270.0
210
0
220
0
230
1.0
 0
LINE
 8
TOOL_0
 5
A2
 10
2708.64
 20
235.893
 30
0
 11
2631.937
 21
302.095
 31
0
 0
ARC
 8
TOOL_0
 5
A3
 10
2599.594
 20
264.622
 30
0
 40
49.500458361514
 50
49.202476090436
 51
90.0
210
0
220
0
230
1.0
 0
LINE
 8
TOOL_0
 5
A4
 10
2599.594
 20
314.122
 30
0
 11
2301.346
 21
314.122
 31
0
 0
ARC
 8
TOOL_0
 5
A5
 10
2301.346
 20
324.622
 30
0
 40
10.5
 50
180.0
 51
270.0
210
0
220
0
230
1.0
 0
LINE
 8
TOOL_0
 5
A6
 10
2290.846
 20
324.622
 30
0
 11
2290.846
 21
407.622
 31
0
 0
ARC
 8
TOOL_0
 5
A7
 10
2301.346
 20
407.622
 30
0
 40
10.5
 50
90.0
 51
180.0
210
0
220
0
230
1.0
 0
LINE
 8
TOOL_0
 5
A8
 10
2301.346
 20
418.122
 30
0
 11
2599.594
 21
418.122
 31
0
 0
ARC
 8
TOOL_0
 5
A9
 10
2599.594
 20
467.622
 30
0
 40
49.5
 50
270.0
 51
310.796647658846
210
0
220
0
230
1.0
 0
LINE
 8
TOOL_0
 5
AA
 10
2631.936
 20
430.149
 30
0
 11
2708.64
 21
496.352
 31
0
 0
ARC
 8
TOOL_0
 5
AB
 10
2741.636
 20
458.122
 30
0
 40
50.500187286782
 50
90.0
 51
130.797208021898
210
0
220
0
230
1.0
 0
LINE
 8
TOOL_0
 5
AC
 10
2741.636
 20
508.622
 30
0
 11
3072.662
 21
508.622
 31
0
 0
ARC
 8
TOOL_0
 5
AD
 10
3072.662
 20
458.122
 30
0
 40
50.5
 50
70.077379280828
 51
90.0
210
0
220
0
230
1.0
 0
LINE
 8
TOOL_0
 5
AE
 10
3089.87
 20
505.6
 30
0
 11
3179.133
 21
473.246
 31
0
 0
ARC
 8
TOOL_0
 5
AF
 10
3172.147
 20
453.973
 30
0
 40
20.500066463307
 50
42.797857570943
 51
70.075634603524
210
0
220
0
230
1.0
 0
LINE
 8
TOOL_0
 5
B0
 10
3187.189
 20
467.901
 30
0
 11
3230.074
 21
421.59
 31
0
 0
ARC
 8
TOOL_0
 5
B1
 10
3178.346
 20
373.689
 30
0
 40
70.500296346895
 50
0
 51
42.8002067944
210
0
220
0
230
1.0
 0
LINE
 8
TOOL_0
 5
B2
 10
3248.846
 20
373.689
 30
0
 11
3248.846
 21
358.554
 31
0
 0
ARC
 8
TOOL_0
 5
B3
 10
3178.346
 20
358.554
 30
0
 40
70.5
 50
338.8552430219
 51
0
210
0
220
0
230
1.0
 0
LINE
 8
TOOL_0
 5
B4
 10
3244.099
 20
333.123
 30
0
 11
3245.933
 21
330.747
 31
0
 0
LINE
 8
TOOL_0
 5
B5
 10
3245.933
 20
330.747
 30
0
 11
3247.857
 21
326.132
 31
0
 0
LINE
 8
TOOL_0
 5
B6
 10
3247.857
 20
326.132
 30
0
 11
3333.669
 21
0
 31
0
 0
LINE
 8
TOOL_0
 5
B7
 10
3333.669
 20
0
 30
0
 11
3333.669
 21
1.0
 31
0
 0
LINE
 8
TOOL_0
 5
B8
 10
3333.669
 20
1.0
 30
0
 11
3333.669
 21
0
 31
0
 0
LINE
 8
TOOL_0
 5
B9
 10
3333.669
 20
0
 30
0
 11
3333.669
 21
1.0
 31
0
 0
LINE
 8
TOOL_0
 5
BA
 10
3333.669
 20
1.0
 30
0
 11
3333.669
 21
768.636
 31
0
 0
LINE
 8
TOOL_0
 5
BB
 10
3333.669
 20
768.636
 30
0
 11
2268.08
 21
768.636
 31
0
 0
LINE
 8
TOOL_0
 5
BC
 10
2268.08
 20
768.636
 30
0
 11
2268.08
 21
2039.0
 31
0
 0
LINE
 8
TOOL_0
 5
BD
 10
2268.08
 20
2039.0
 30
0
 11
2268.08
 21
2040.0
 31
0
 0
ENDSEC
 0
EOF

