0
SECTION
2
TABLES
0
TABLE
2
LAYER
70
0
0
LAYER
2
LAYER_NAME
70
0
62
1
6
CONTINUOUS
0
ENDTAB
0
ENDSEC
 0
SECTION
 2
ENTITIES
 0
LINE
 8
TOOL_0
 5
1
 10
677.341
 20
389.986
 30
0
 11
646.75
 21
389.986
 31
0
 0
LINE
 8
TOOL_0
 5
2
 10
646.75
 20
389.986
 30
0
 11
174.75
 21
389.986
 31
0
 0
ARC
 8
TOOL_0
 5
3
 10
174.75
 20
410.736
 30
0
 40
20.75
 50
180.0
 51
270.0
210
0
220
0
230
1.0
 0
LINE
 8
TOOL_0
 5
4
 10
154.0
 20
410.736
 30
0
 11
154.0
 21
500.736
 31
0
 0
ARC
 8
TOOL_0
 5
5
 10
134.75
 20
500.736
 30
0
 40
19.25
 50
0
 51
90.0
210
0
220
0
230
1.0
 0
LINE
 8
TOOL_0
 5
6
 10
134.75
 20
519.986
 30
0
 11
39.75
 21
519.986
 31
0
 0
ARC
 8
TOOL_0
 5
7
 10
39.75
 20
540.736
 30
0
 40
20.75
 50
180.0
 51
270.0
210
0
220
0
230
1.0
 0
LINE
 8
TOOL_0
 5
8
 10
19.0
 20
540.736
 30
0
 11
19.0
 21
892.736
 31
0
 0
ARC
 8
TOOL_0
 5
9
 10
39.75
 20
892.736
 30
0
 40
20.75
 50
90.0
 51
180.0
210
0
220
0
230
1.0
 0
LINE
 8
TOOL_0
 5
A
 10
39.75
 20
913.486
 30
0
 11
324.75
 21
913.486
 31
0
 0
ARC
 8
TOOL_0
 5
B
 10
324.75
 20
892.736
 30
0
 40
20.75
 50
0
 51
90.0
210
0
220
0
230
1.0
 0
LINE
 8
TOOL_0
 5
C
 10
345.5
 20
892.736
 30
0
 11
345.5
 21
800.736
 31
0
 0
ARC
 8
TOOL_0
 5
D
 10
374.75
 20
800.736
 30
0
 40
29.25
 50
180.0
 51
270.0
210
0
220
0
230
1.0
 0
LINE
 8
TOOL_0
 5
E
 10
374.75
 20
771.486
 30
0
 11
646.75
 21
771.486
 31
0
 0
ARC
 8
TOOL_0
 5
F
 10
646.75
 20
750.736
 30
0
 40
20.75
 50
0
 51
90.0
210
0
220
0
230
1.0
 0
LINE
 8
TOOL_0
 5
10
 10
667.5
 20
750.736
 30
0
 11
667.5
 21
410.736
 31
0
 0
ARC
 8
TOOL_0
 5
11
 10
646.75
 20
410.736
 30
0
 40
20.75
 50
270.0
 51
0
210
0
220
0
230
1.0
 0
LINE
 8
TOOL_0
 5
12
 10
646.75
 20
389.986
 30
0
 11
643.575
 21
385.494
 31
0
 0
LINE
 8
TOOL_0
 5
13
 10
643.575
 20
385.494
 30
0
 11
219.75
 21
139.751
 31
0
 0
LINE
 8
TOOL_0
 5
14
 10
219.75
 20
139.751
 30
0
 11
249.75
 21
139.751
 31
0
 0
LINE
 8
TOOL_0
 5
15
 10
249.75
 20
139.751
 30
0
 11
249.75
 21
189.751
 31
0
 0
ARC
 8
TOOL_0
 5
16
 10
229.75
 20
189.751
 30
0
 40
20.0
 50
0
 51
90.0
210
0
220
0
230
1.0
 0
LINE
 8
TOOL_0
 5
17
 10
229.75
 20
209.751
 30
0
 11
109.75
 21
209.751
 31
0
 0
ARC
 8
TOOL_0
 5
18
 10
109.75
 20
189.751
 30
0
 40
20.0
 50
90.0
 51
180.0
210
0
220
0
230
1.0
 0
LINE
 8
TOOL_0
 5
19
 10
89.75
 20
189.751
 30
0
 11
89.75
 21
89.751
 31
0
 0
ARC
 8
TOOL_0
 5
1A
 10
109.75
 20
89.751
 30
0
 40
20.0
 50
180.0
 51
270.0
210
0
220
0
230
1.0
 0
LINE
 8
TOOL_0
 5
1B
 10
109.75
 20
69.751
 30
0
 11
229.75
 21
69.751
 31
0
 0
ARC
 8
TOOL_0
 5
1C
 10
229.75
 20
89.751
 30
0
 40
20.0
 50
270.0
 51
0
210
0
220
0
230
1.0
 0
LINE
 8
TOOL_0
 5
1D
 10
249.75
 20
89.751
 30
0
 11
249.75
 21
139.751
 31
0
 0
LINE
 8
TOOL_0
 5
1E
 10
249.75
 20
139.751
 30
0
 11
246.214
 21
143.287
 31
0
 0
LINE
 8
TOOL_0
 5
1F
 10
246.214
 20
143.287
 30
0
 11
899.75
 21
159.751
 31
0
 0
LINE
 8
TOOL_0
 5
20
 10
899.75
 20
159.751
 30
0
 11
929.75
 21
159.751
 31
0
 0
LINE
 8
TOOL_0
 5
21
 10
929.75
 20
159.751
 30
0
 11
929.75
 21
194.751
 31
0
 0
ARC
 8
TOOL_0
 5
22
 10
909.75
 20
194.751
 30
0
 40
20.0
 50
0
 51
90.0
210
0
220
0
230
1.0
 0
LINE
 8
TOOL_0
 5
23
 10
909.75
 20
214.751
 30
0
 11
499.75
 21
214.751
 31
0
 0
ARC
 8
TOOL_0
 5
24
 10
499.75
 20
194.751
 30
0
 40
20.0
 50
90.0
 51
180.0
210
0
220
0
230
1.0
 0
LINE
 8
TOOL_0
 5
25
 10
479.75
 20
194.751
 30
0
 11
479.75
 21
124.751
 31
0
 0
ARC
 8
TOOL_0
 5
26
 10
499.75
 20
124.751
 30
0
 40
20.0
 50
180.0
 51
270.0
210
0
220
0
230
1.0
 0
LINE
 8
TOOL_0
 5
27
 10
499.75
 20
104.751
 30
0
 11
909.75
 21
104.751
 31
0
 0
ARC
 8
TOOL_0
 5
28
 10
909.75
 20
124.751
 30
0
 40
20.0
 50
270.0
 51
0
210
0
220
0
230
1.0
 0
LINE
 8
TOOL_0
 5
29
 10
929.75
 20
124.751
 30
0
 11
929.75
 21
159.751
 31
0
 0
LINE
 8
TOOL_0
 5
2A
 10
929.75
 20
159.751
 30
0
 11
926.214
 21
163.287
 31
0
 0
LINE
 8
TOOL_0
 5
2B
 10
926.214
 20
163.287
 30
0
 11
1289.75
 21
139.751
 31
0
 0
LINE
 8
TOOL_0
 5
2C
 10
1289.75
 20
139.751
 30
0
 11
1319.75
 21
139.751
 31
0
 0
LINE
 8
TOOL_0
 5
2D
 10
1319.75
 20
139.751
 30
0
 11
1319.75
 21
189.751
 31
0
 0
ARC
 8
TOOL_0
 5
2E
 10
1299.75
 20
189.751
 30
0
 40
20.0
 50
0
 51
90.0
210
0
220
0
230
1.0
 0
LINE
 8
TOOL_0
 5
2F
 10
1299.75
 20
209.751
 30
0
 11
1179.75
 21
209.751
 31
0
 0
ARC
 8
TOOL_0
 5
30
 10
1179.75
 20
189.751
 30
0
 40
20.0
 50
90.0
 51
180.0
210
0
220
0
230
1.0
 0
LINE
 8
TOOL_0
 5
31
 10
1159.75
 20
189.751
 30
0
 11
1159.75
 21
89.751
 31
0
 0
ARC
 8
TOOL_0
 5
32
 10
1179.75
 20
89.751
 30
0
 40
20.0
 50
180.0
 51
270.0
210
0
220
0
230
1.0
 0
LINE
 8
TOOL_0
 5
33
 10
1179.75
 20
69.751
 30
0
 11
1299.75
 21
69.751
 31
0
 0
ARC
 8
TOOL_0
 5
34
 10
1299.75
 20
89.751
 30
0
 40
20.0
 50
270.0
 51
0
210
0
220
0
230
1.0
 0
LINE
 8
TOOL_0
 5
35
 10
1319.75
 20
89.751
 30
0
 11
1319.75
 21
139.751
 31
0
 0
LINE
 8
TOOL_0
 5
36
 10
1319.75
 20
139.751
 30
0
 11
1316.214
 21
143.287
 31
0
 0
LINE
 8
TOOL_0
 5
37
 10
1316.214
 20
143.287
 30
0
 11
1421.701
 21
19.001
 31
0
 0
LINE
 8
TOOL_0
 5
38
 10
1421.701
 20
19.001
 30
0
 11
1390.5
 21
19.001
 31
0
 0
LINE
 8
TOOL_0
 5
39
 10
1390.5
 20
19.001
 30
0
 11
19.0
 21
19.001
 31
0
 0
LINE
 8
TOOL_0
 5
3A
 10
19.0
 20
19.001
 30
0
 11
19.0
 21
370.501
 31
0
 0
LINE
 8
TOOL_0
 5
3B
 10
19.0
 20
370.501
 30
0
 11
249.951
 21
370.501
 31
0
 0
LINE
 8
TOOL_0
 5
3C
 10
249.951
 20
370.501
 30
0
 11
293.252
 21
345.501
 31
0
 0
LINE
 8
TOOL_0
 5
3D
 10
293.252
 20
345.501
 30
0
 11
438.06
 21
345.501
 31
0
 0
LINE
 8
TOOL_0
 5
3E
 10
438.06
 20
345.501
 30
0
 11
473.06
 21
310.501
 31
0
 0
LINE
 8
TOOL_0
 5
3F
 10
473.06
 20
310.501
 30
0
 11
936.439
 21
310.501
 31
0
 0
LINE
 8
TOOL_0
 5
40
 10
936.439
 20
310.501
 30
0
 11
971.439
 21
345.501
 31
0
 0
LINE
 8
TOOL_0
 5
41
 10
971.439
 20
345.501
 30
0
 11
1116.247
 21
345.501
 31
0
 0
LINE
 8
TOOL_0
 5
42
 10
1116.247
 20
345.501
 30
0
 11
1159.548
 21
370.501
 31
0
 0
LINE
 8
TOOL_0
 5
43
 10
1159.548
 20
370.501
 30
0
 11
1390.499
 21
370.501
 31
0
 0
LINE
 8
TOOL_0
 5
44
 10
1390.499
 20
370.501
 30
0
 11
1390.499
 21
19.001
 31
0
 0
LINE
 8
TOOL_0
 5
45
 10
1390.499
 20
19.001
 30
0
 11
1390.499
 21
13.865
 31
0
 0
LINE
 8
TOOL_0
 5
46
 10
1390.499
 20
13.865
 30
0
 11
1343.96
 21
388.774
 31
0
 0
LINE
 8
TOOL_0
 5
47
 10
1343.96
 20
388.774
 30
0
 11
1313.369
 21
388.774
 31
0
 0
LINE
 8
TOOL_0
 5
48
 10
1313.369
 20
388.774
 30
0
 11
841.369
 21
388.774
 31
0
 0
ARC
 8
TOOL_0
 5
49
 10
841.369
 20
409.524
 30
0
 40
20.75
 50
180.0
 51
270.0
210
0
220
0
230
1.0
 0
LINE
 8
TOOL_0
 5
4A
 10
820.619
 20
409.524
 30
0
 11
820.619
 21
499.524
 31
0
 0
ARC
 8
TOOL_0
 5
4B
 10
801.369
 20
499.524
 30
0
 40
19.25
 50
0
 51
90.0
210
0
220
0
230
1.0
 0
LINE
 8
TOOL_0
 5
4C
 10
801.369
 20
518.774
 30
0
 11
706.369
 21
518.774
 31
0
 0
ARC
 8
TOOL_0
 5
4D
 10
706.369
 20
539.524
 30
0
 40
20.75
 50
180.0
 51
270.0
210
0
220
0
230
1.0
 0
LINE
 8
TOOL_0
 5
4E
 10
685.619
 20
539.524
 30
0
 11
685.619
 21
891.524
 31
0
 0
ARC
 8
TOOL_0
 5
4F
 10
706.369
 20
891.524
 30
0
 40
20.75
 50
90.0
 51
180.0
210
0
220
0
230
1.0
 0
LINE
 8
TOOL_0
 5
50
 10
706.369
 20
912.274
 30
0
 11
991.369
 21
912.274
 31
0
 0
ARC
 8
TOOL_0
 5
51
 10
991.369
 20
891.524
 30
0
 40
20.75
 50
0
 51
90.0
210
0
220
0
230
1.0
 0
LINE
 8
TOOL_0
 5
52
 10
1012.119
 20
891.524
 30
0
 11
1012.119
 21
799.524
 31
0
 0
ARC
 8
TOOL_0
 5
53
 10
1041.369
 20
799.524
 30
0
 40
29.25
 50
180.0
 51
270.0
210
0
220
0
230
1.0
 0
LINE
 8
TOOL_0
 5
54
 10
1041.369
 20
770.274
 30
0
 11
1313.369
 21
770.274
 31
0
 0
ARC
 8
TOOL_0
 5
55
 10
1313.369
 20
749.524
 30
0
 40
20.75
 50
0
 51
90.0
210
0
220
0
230
1.0
 0
LINE
 8
TOOL_0
 5
56
 10
1334.119
 20
749.524
 30
0
 11
1334.119
 21
409.524
 31
0
 0
ARC
 8
TOOL_0
 5
57
 10
1313.369
 20
409.524
 30
0
 40
20.75
 50
270.0
 51
0
210
0
220
0
230
1.0
 0
LINE
 8
TOOL_0
 5
58
 10
1313.369
 20
388.774
 30
0
 11
1310.194
 21
384.282
 31
0
 0
LINE
 8
TOOL_0
 5
59
 10
1310.194
 20
384.282
 30
0
 11
1483.447
 21
0
 31
0
 0
LINE
 8
TOOL_0
 5
5A
 10
1483.447
 20
0
 30
0
 11
1483.447
 21
1.0
 31
0
 0
LINE
 8
TOOL_0
 5
5B
 10
1483.447
 20
1.0
 30
0
 11
1483.447
 21
0
 31
0
 0
LINE
 8
TOOL_0
 5
5C
 10
1483.447
 20
0
 30
0
 11
1483.447
 21
1.0
 31
0
 0
LINE
 8
TOOL_0
 5
5D
 10
1483.447
 20
1.0
 30
0
 11
1483.447
 21
1035.0
 31
0
 0
LINE
 8
TOOL_0
 5
5E
 10
1483.447
 20
1035.0
 30
0
 11
1483.447
 21
1036.0
 31
0
 0
ENDSEC
 0
EOF

