0
SECTION
2
TABLES
0
TABLE
2
LAYER
70
0
0
LAYER
2
LAYER_NAME
70
0
62
1
6
CONTINUOUS
0
ENDTAB
0
ENDSEC
 0
SECTION
 2
ENTITIES
 0
LINE
 8
TOOL_0
 5
1
 10
209.996
 20
1249.746
 30
0
 11
239.996
 21
1249.746
 31
0
 0
ARC
 8
TOOL_0
 5
2
 10
199.996
 20
1249.746
 30
0
 40
40.0
 50
0
 51
90.0
210
0
220
0
230
1.0
 0
LINE
 8
TOOL_0
 5
3
 10
199.996
 20
1289.746
 30
0
 11
79.996
 21
1289.746
 31
0
 0
ARC
 8
TOOL_0
 5
4
 10
79.996
 20
1249.746
 30
0
 40
40.0
 50
90.0
 51
270.0
210
0
220
0
230
1.0
 0
LINE
 8
TOOL_0
 5
5
 10
79.996
 20
1209.746
 30
0
 11
199.996
 21
1209.746
 31
0
 0
ARC
 8
TOOL_0
 5
6
 10
199.996
 20
1249.746
 30
0
 40
40.0
 50
270.0
 51
0
210
0
220
0
230
1.0
 0
LINE
 8
TOOL_0
 5
7
 10
239.996
 20
1249.746
 30
0
 11
236.46
 21
1253.282
 31
0
 0
LINE
 8
TOOL_0
 5
8
 10
236.46
 20
1253.282
 30
0
 11
439.995
 21
444.746
 31
0
 0
LINE
 8
TOOL_0
 5
9
 10
439.995
 20
444.746
 30
0
 11
469.995
 21
444.746
 31
0
 0
LINE
 8
TOOL_0
 5
A
 10
469.995
 20
444.746
 30
0
 11
469.995
 21
519.746
 31
0
 0
ARC
 8
TOOL_0
 5
B
 10
419.995
 20
519.746
 30
0
 40
50.0
 50
0
 51
90.0
210
0
220
0
230
1.0
 0
LINE
 8
TOOL_0
 5
C
 10
419.995
 20
569.746
 30
0
 11
119.995
 21
569.746
 31
0
 0
ARC
 8
TOOL_0
 5
D
 10
119.995
 20
519.746
 30
0
 40
50.0
 50
90.0
 51
180.0
210
0
220
0
230
1.0
 0
LINE
 8
TOOL_0
 5
E
 10
69.995
 20
519.746
 30
0
 11
69.995
 21
369.746
 31
0
 0
ARC
 8
TOOL_0
 5
F
 10
119.995
 20
369.746
 30
0
 40
50.0
 50
180.0
 51
270.0
210
0
220
0
230
1.0
 0
LINE
 8
TOOL_0
 5
10
 10
119.995
 20
319.746
 30
0
 11
419.995
 21
319.746
 31
0
 0
ARC
 8
TOOL_0
 5
11
 10
419.995
 20
369.746
 30
0
 40
50.0
 50
270.0
 51
0
210
0
220
0
230
1.0
 0
LINE
 8
TOOL_0
 5
12
 10
469.995
 20
369.746
 30
0
 11
469.995
 21
444.746
 31
0
 0
LINE
 8
TOOL_0
 5
13
 10
469.995
 20
444.746
 30
0
 11
466.459
 21
448.282
 31
0
 0
LINE
 8
TOOL_0
 5
14
 10
466.459
 20
448.282
 30
0
 11
654.994
 21
434.746
 31
0
 0
LINE
 8
TOOL_0
 5
15
 10
654.994
 20
434.746
 30
0
 11
684.994
 21
434.746
 31
0
 0
ARC
 8
TOOL_0
 5
16
 10
619.994
 20
434.746
 30
0
 40
65.0
 50
0
 51
180.0
210
0
220
0
230
1.0
 0
ARC
 8
TOOL_0
 5
17
 10
619.994
 20
434.746
 30
0
 40
65.0
 50
180.0
 51
0
210
0
220
0
230
1.0
 0
LINE
 8
TOOL_0
 5
18
 10
684.994
 20
434.746
 30
0
 11
681.458
 21
438.282
 31
0
 0
LINE
 8
TOOL_0
 5
19
 10
681.458
 20
438.282
 30
0
 11
2464.993
 21
419.746
 31
0
 0
LINE
 8
TOOL_0
 5
1A
 10
2464.993
 20
419.746
 30
0
 11
2494.993
 21
419.746
 31
0
 0
LINE
 8
TOOL_0
 5
1B
 10
2494.993
 20
419.746
 30
0
 11
2494.993
 21
649.746
 31
0
 0
ARC
 8
TOOL_0
 5
1C
 10
2474.993
 20
649.746
 30
0
 40
20.0
 50
0
 51
90.0
210
0
220
0
230
1.0
 0
LINE
 8
TOOL_0
 5
1D
 10
2474.993
 20
669.746
 30
0
 11
1614.993
 21
669.746
 31
0
 0
ARC
 8
TOOL_0
 5
1E
 10
1614.993
 20
649.746
 30
0
 40
20.0
 50
90.0
 51
180.0
210
0
220
0
230
1.0
 0
LINE
 8
TOOL_0
 5
1F
 10
1594.993
 20
649.746
 30
0
 11
1594.993
 21
189.746
 31
0
 0
ARC
 8
TOOL_0
 5
20
 10
1614.993
 20
189.746
 30
0
 40
20.0
 50
180.0
 51
270.0
210
0
220
0
230
1.0
 0
LINE
 8
TOOL_0
 5
21
 10
1614.993
 20
169.746
 30
0
 11
1687.493
 21
169.746
 31
0
 0
LINE
 8
TOOL_0
 5
22
 10
1687.493
 20
169.746
 30
0
 11
1687.493
 21
33.996
 31
0
 0
LINE
 8
TOOL_0
 5
23
 10
1687.493
 20
33.996
 30
0
 11
1837.493
 21
33.996
 31
0
 0
LINE
 8
TOOL_0
 5
24
 10
1837.493
 20
33.996
 30
0
 11
1837.493
 21
169.746
 31
0
 0
LINE
 8
TOOL_0
 5
25
 10
1837.493
 20
169.746
 30
0
 11
2474.993
 21
169.746
 31
0
 0
ARC
 8
TOOL_0
 5
26
 10
2474.993
 20
189.746
 30
0
 40
20.0
 50
270.0
 51
0
210
0
220
0
230
1.0
 0
LINE
 8
TOOL_0
 5
27
 10
2494.993
 20
189.746
 30
0
 11
2494.993
 21
419.746
 31
0
 0
LINE
 8
TOOL_0
 5
28
 10
2494.993
 20
419.746
 30
0
 11
2491.457
 21
423.282
 31
0
 0
LINE
 8
TOOL_0
 5
29
 10
2491.457
 20
423.282
 30
0
 11
3334.992
 21
1139.746
 31
0
 0
LINE
 8
TOOL_0
 5
2A
 10
3334.992
 20
1139.746
 30
0
 11
3364.992
 21
1139.746
 31
0
 0
ARC
 8
TOOL_0
 5
2B
 10
3334.992
 20
1139.746
 30
0
 40
30.0
 50
0
 51
180.0
210
0
220
0
230
1.0
 0
ARC
 8
TOOL_0
 5
2C
 10
3334.992
 20
1139.746
 30
0
 40
30.0
 50
180.0
 51
0
210
0
220
0
230
1.0
 0
LINE
 8
TOOL_0
 5
2D
 10
3364.992
 20
1139.746
 30
0
 11
3361.456
 21
1143.282
 31
0
 0
LINE
 8
TOOL_0
 5
2E
 10
3361.456
 20
1143.282
 30
0
 11
8117.991
 21
434.746
 31
0
 0
LINE
 8
TOOL_0
 5
2F
 10
8117.991
 20
434.746
 30
0
 11
8147.991
 21
434.746
 31
0
 0
ARC
 8
TOOL_0
 5
30
 10
8082.991
 20
434.746
 30
0
 40
65.0
 50
0
 51
180.0
210
0
220
0
230
1.0
 0
ARC
 8
TOOL_0
 5
31
 10
8082.991
 20
434.746
 30
0
 40
65.0
 50
180.0
 51
0
210
0
220
0
230
1.0
 0
LINE
 8
TOOL_0
 5
32
 10
8147.991
 20
434.746
 30
0
 11
8144.455
 21
438.282
 31
0
 0
LINE
 8
TOOL_0
 5
33
 10
8144.455
 20
438.282
 30
0
 11
8352.99
 21
864.746
 31
0
 0
LINE
 8
TOOL_0
 5
34
 10
8352.99
 20
864.746
 30
0
 11
8382.99
 21
864.746
 31
0
 0
ARC
 8
TOOL_0
 5
35
 10
8352.99
 20
864.746
 30
0
 40
30.0
 50
0
 51
180.0
210
0
220
0
230
1.0
 0
ARC
 8
TOOL_0
 5
36
 10
8352.99
 20
864.746
 30
0
 40
30.0
 50
180.0
 51
0
210
0
220
0
230
1.0
 0
LINE
 8
TOOL_0
 5
37
 10
8382.99
 20
864.746
 30
0
 11
8379.454
 21
868.282
 31
0
 0
LINE
 8
TOOL_0
 5
38
 10
8379.454
 20
868.282
 30
0
 11
8450.153
 21
38.548
 31
0
 0
LINE
 8
TOOL_0
 5
39
 10
8450.153
 20
38.548
 30
0
 11
8450.153
 21
18.848
 31
0
 0
LINE
 8
TOOL_0
 5
3A
 10
8450.153
 20
18.848
 30
0
 11
8433.989
 21
18.996
 31
0
 0
LINE
 8
TOOL_0
 5
3B
 10
8433.989
 20
18.996
 30
0
 11
6840.489
 21
18.996
 31
0
 0
LINE
 8
TOOL_0
 5
3C
 10
6840.489
 20
18.996
 30
0
 11
6840.489
 21
169.746
 31
0
 0
LINE
 8
TOOL_0
 5
3D
 10
6840.489
 20
169.746
 30
0
 11
6690.489
 21
169.746
 31
0
 0
LINE
 8
TOOL_0
 5
3E
 10
6690.489
 20
169.746
 30
0
 11
6690.489
 21
18.996
 31
0
 0
LINE
 8
TOOL_0
 5
3F
 10
6690.489
 20
18.996
 30
0
 11
18.989
 21
18.996
 31
0
 0
LINE
 8
TOOL_0
 5
40
 10
18.989
 20
18.996
 30
0
 11
18.989
 21
2125.496
 31
0
 0
LINE
 8
TOOL_0
 5
41
 10
18.989
 20
2125.496
 30
0
 11
420.739
 21
2125.496
 31
0
 0
LINE
 8
TOOL_0
 5
42
 10
420.739
 20
2125.496
 30
0
 11
420.739
 21
1569.746
 31
0
 0
ARC
 8
TOOL_0
 5
43
 10
469.989
 20
1569.746
 30
0
 40
49.25
 50
180.0
 51
270.0
210
0
220
0
230
1.0
 0
LINE
 8
TOOL_0
 5
44
 10
469.989
 20
1520.496
 30
0
 11
4097.391
 21
1520.496
 31
0
 0
LINE
 8
TOOL_0
 5
45
 10
4097.391
 20
1520.496
 30
0
 11
6465.739
 21
1145.387
 31
0
 0
LINE
 8
TOOL_0
 5
46
 10
6465.739
 20
1145.387
 30
0
 11
6465.739
 21
1120.496
 31
0
 0
LINE
 8
TOOL_0
 5
47
 10
6465.739
 20
1120.496
 30
0
 11
8433.989
 21
1120.496
 31
0
 0
LINE
 8
TOOL_0
 5
48
 10
8433.989
 20
1120.496
 30
0
 11
8433.989
 21
18.996
 31
0
 0
LINE
 8
TOOL_0
 5
49
 10
8433.989
 20
18.996
 30
0
 11
1125.718
 21
2085.25
 31
0
 0
LINE
 8
TOOL_0
 5
4A
 10
1125.718
 20
2085.25
 30
0
 11
1155.718
 21
2085.25
 31
0
 0
ARC
 8
TOOL_0
 5
4B
 10
1125.718
 20
2085.25
 30
0
 40
30.0
 50
0
 51
180.0
210
0
220
0
230
1.0
 0
ARC
 8
TOOL_0
 5
4C
 10
1125.718
 20
2085.25
 30
0
 40
30.0
 50
180.0
 51
0
210
0
220
0
230
1.0
 0
LINE
 8
TOOL_0
 5
4D
 10
1155.718
 20
2085.25
 30
0
 11
1152.182
 21
2088.786
 31
0
 0
LINE
 8
TOOL_0
 5
4E
 10
1152.182
 20
2088.786
 30
0
 11
1430.718
 21
2515.25
 31
0
 0
LINE
 8
TOOL_0
 5
4F
 10
1430.718
 20
2515.25
 30
0
 11
1460.718
 21
2515.25
 31
0
 0
ARC
 8
TOOL_0
 5
50
 10
1395.718
 20
2515.25
 30
0
 40
65.0
 50
0
 51
180.0
210
0
220
0
230
1.0
 0
ARC
 8
TOOL_0
 5
51
 10
1395.718
 20
2515.25
 30
0
 40
65.0
 50
180.0
 51
0
210
0
220
0
230
1.0
 0
LINE
 8
TOOL_0
 5
52
 10
1460.718
 20
2515.25
 30
0
 11
1457.182
 21
2518.786
 31
0
 0
LINE
 8
TOOL_0
 5
53
 10
1457.182
 20
2518.786
 30
0
 11
6143.718
 21
1810.25
 31
0
 0
LINE
 8
TOOL_0
 5
54
 10
6143.718
 20
1810.25
 30
0
 11
6173.718
 21
1810.25
 31
0
 0
ARC
 8
TOOL_0
 5
55
 10
6143.718
 20
1810.25
 30
0
 40
30.0
 50
0
 51
180.0
210
0
220
0
230
1.0
 0
ARC
 8
TOOL_0
 5
56
 10
6143.718
 20
1810.25
 30
0
 40
30.0
 50
180.0
 51
0
210
0
220
0
230
1.0
 0
LINE
 8
TOOL_0
 5
57
 10
6173.718
 20
1810.25
 30
0
 11
6170.182
 21
1813.786
 31
0
 0
LINE
 8
TOOL_0
 5
58
 10
6170.182
 20
1813.786
 30
0
 11
7853.718
 21
2530.25
 31
0
 0
LINE
 8
TOOL_0
 5
59
 10
7853.718
 20
2530.25
 30
0
 11
7883.718
 21
2530.25
 31
0
 0
LINE
 8
TOOL_0
 5
5A
 10
7883.718
 20
2530.25
 30
0
 11
7883.718
 21
2760.25
 31
0
 0
ARC
 8
TOOL_0
 5
5B
 10
7863.718
 20
2760.25
 30
0
 40
20.0
 50
0
 51
90.0
210
0
220
0
230
1.0
 0
LINE
 8
TOOL_0
 5
5C
 10
7863.718
 20
2780.25
 30
0
 11
7791.218
 21
2780.25
 31
0
 0
LINE
 8
TOOL_0
 5
5D
 10
7791.218
 20
2780.25
 30
0
 11
7791.218
 21
2916.0
 31
0
 0
LINE
 8
TOOL_0
 5
5E
 10
7791.218
 20
2916.0
 30
0
 11
7641.218
 21
2916.0
 31
0
 0
LINE
 8
TOOL_0
 5
5F
 10
7641.218
 20
2916.0
 30
0
 11
7641.218
 21
2780.25
 31
0
 0
LINE
 8
TOOL_0
 5
60
 10
7641.218
 20
2780.25
 30
0
 11
7003.718
 21
2780.25
 31
0
 0
ARC
 8
TOOL_0
 5
61
 10
7003.718
 20
2760.25
 30
0
 40
20.0
 50
90.0
 51
180.0
210
0
220
0
230
1.0
 0
LINE
 8
TOOL_0
 5
62
 10
6983.718
 20
2760.25
 30
0
 11
6983.718
 21
2300.25
 31
0
 0
ARC
 8
TOOL_0
 5
63
 10
7003.718
 20
2300.25
 30
0
 40
20.0
 50
180.0
 51
270.0
210
0
220
0
230
1.0
 0
LINE
 8
TOOL_0
 5
64
 10
7003.718
 20
2280.25
 30
0
 11
7863.718
 21
2280.25
 31
0
 0
ARC
 8
TOOL_0
 5
65
 10
7863.718
 20
2300.25
 30
0
 40
20.0
 50
270.0
 51
0
210
0
220
0
230
1.0
 0
LINE
 8
TOOL_0
 5
66
 10
7883.718
 20
2300.25
 30
0
 11
7883.718
 21
2530.25
 31
0
 0
LINE
 8
TOOL_0
 5
67
 10
7883.718
 20
2530.25
 30
0
 11
7880.182
 21
2533.786
 31
0
 0
LINE
 8
TOOL_0
 5
68
 10
7880.182
 20
2533.786
 30
0
 11
9408.718
 21
1700.25
 31
0
 0
LINE
 8
TOOL_0
 5
69
 10
9408.718
 20
1700.25
 30
0
 11
9438.718
 21
1700.25
 31
0
 0
ARC
 8
TOOL_0
 5
6A
 10
9398.718
 20
1700.25
 30
0
 40
40.0
 50
0
 51
90.0
210
0
220
0
230
1.0
 0
LINE
 8
TOOL_0
 5
6B
 10
9398.718
 20
1740.25
 30
0
 11
9278.718
 21
1740.25
 31
0
 0
ARC
 8
TOOL_0
 5
6C
 10
9278.718
 20
1700.25
 30
0
 40
40.0
 50
90.0
 51
270.0
210
0
220
0
230
1.0
 0
LINE
 8
TOOL_0
 5
6D
 10
9278.718
 20
1660.25
 30
0
 11
9398.718
 21
1660.25
 31
0
 0
ARC
 8
TOOL_0
 5
6E
 10
9398.718
 20
1700.25
 30
0
 40
40.0
 50
270.0
 51
0
210
0
220
0
230
1.0
 0
LINE
 8
TOOL_0
 5
6F
 10
9438.718
 20
1700.25
 30
0
 11
9435.182
 21
1703.786
 31
0
 0
LINE
 8
TOOL_0
 5
70
 10
9435.182
 20
1703.786
 30
0
 11
8893.718
 21
2515.25
 31
0
 0
LINE
 8
TOOL_0
 5
71
 10
8893.718
 20
2515.25
 30
0
 11
8923.718
 21
2515.25
 31
0
 0
ARC
 8
TOOL_0
 5
72
 10
8858.718
 20
2515.25
 30
0
 40
65.0
 50
0
 51
180.0
210
0
220
0
230
1.0
 0
ARC
 8
TOOL_0
 5
73
 10
8858.718
 20
2515.25
 30
0
 40
65.0
 50
180.0
 51
0
210
0
220
0
230
1.0
 0
LINE
 8
TOOL_0
 5
74
 10
8923.718
 20
2515.25
 30
0
 11
8920.182
 21
2518.786
 31
0
 0
LINE
 8
TOOL_0
 5
75
 10
8920.182
 20
2518.786
 30
0
 11
9378.718
 21
2505.25
 31
0
 0
LINE
 8
TOOL_0
 5
76
 10
9378.718
 20
2505.25
 30
0
 11
9408.718
 21
2505.25
 31
0
 0
LINE
 8
TOOL_0
 5
77
 10
9408.718
 20
2505.25
 30
0
 11
9408.718
 21
2580.25
 31
0
 0
ARC
 8
TOOL_0
 5
78
 10
9358.718
 20
2580.25
 30
0
 40
50.0
 50
0
 51
90.0
210
0
220
0
230
1.0
 0
LINE
 8
TOOL_0
 5
79
 10
9358.718
 20
2630.25
 30
0
 11
9058.718
 21
2630.25
 31
0
 0
ARC
 8
TOOL_0
 5
7A
 10
9058.718
 20
2580.25
 30
0
 40
50.0
 50
90.0
 51
180.0
210
0
220
0
230
1.0
 0
LINE
 8
TOOL_0
 5
7B
 10
9008.718
 20
2580.25
 30
0
 11
9008.718
 21
2430.25
 31
0
 0
ARC
 8
TOOL_0
 5
7C
 10
9058.718
 20
2430.25
 30
0
 40
50.0
 50
180.0
 51
270.0
210
0
220
0
230
1.0
 0
LINE
 8
TOOL_0
 5
7D
 10
9058.718
 20
2380.25
 30
0
 11
9358.718
 21
2380.25
 31
0
 0
ARC
 8
TOOL_0
 5
7E
 10
9358.718
 20
2430.25
 30
0
 40
50.0
 50
270.0
 51
0
210
0
220
0
230
1.0
 0
LINE
 8
TOOL_0
 5
7F
 10
9408.718
 20
2430.25
 30
0
 11
9408.718
 21
2505.25
 31
0
 0
LINE
 8
TOOL_0
 5
80
 10
9408.718
 20
2505.25
 30
0
 11
9405.182
 21
2508.786
 31
0
 0
LINE
 8
TOOL_0
 5
81
 10
9405.182
 20
2508.786
 30
0
 11
9551.199
 21
824.5
 31
0
 0
LINE
 8
TOOL_0
 5
82
 10
9551.199
 20
824.5
 30
0
 11
9459.718
 21
824.5
 31
0
 0
LINE
 8
TOOL_0
 5
83
 10
9459.718
 20
824.5
 30
0
 11
9057.968
 21
824.5
 31
0
 0
LINE
 8
TOOL_0
 5
84
 10
9057.968
 20
824.5
 30
0
 11
9057.968
 21
1380.25
 31
0
 0
ARC
 8
TOOL_0
 5
85
 10
9008.718
 20
1380.25
 30
0
 40
49.25
 50
0
 51
90.0
210
0
220
0
230
1.0
 0
LINE
 8
TOOL_0
 5
86
 10
9008.718
 20
1429.5
 30
0
 11
5381.316
 21
1429.5
 31
0
 0
LINE
 8
TOOL_0
 5
87
 10
5381.316
 20
1429.5
 30
0
 11
3012.968
 21
1804.609
 31
0
 0
LINE
 8
TOOL_0
 5
88
 10
3012.968
 20
1804.609
 30
0
 11
3012.968
 21
1829.5
 31
0
 0
LINE
 8
TOOL_0
 5
89
 10
3012.968
 20
1829.5
 30
0
 11
1044.718
 21
1829.5
 31
0
 0
LINE
 8
TOOL_0
 5
8A
 10
1044.718
 20
1829.5
 30
0
 11
1044.718
 21
2931.0
 31
0
 0
LINE
 8
TOOL_0
 5
8B
 10
1044.718
 20
2931.0
 30
0
 11
2638.218
 21
2931.0
 31
0
 0
LINE
 8
TOOL_0
 5
8C
 10
2638.218
 20
2931.0
 30
0
 11
2638.218
 21
2780.25
 31
0
 0
LINE
 8
TOOL_0
 5
8D
 10
2638.218
 20
2780.25
 30
0
 11
2788.218
 21
2780.25
 31
0
 0
LINE
 8
TOOL_0
 5
8E
 10
2788.218
 20
2780.25
 30
0
 11
2788.218
 21
2931.0
 31
0
 0
LINE
 8
TOOL_0
 5
8F
 10
2788.218
 20
2931.0
 30
0
 11
9459.718
 21
2931.0
 31
0
 0
LINE
 8
TOOL_0
 5
90
 10
9459.718
 20
2931.0
 30
0
 11
9459.718
 21
824.5
 31
0
 0
LINE
 8
TOOL_0
 5
91
 10
9459.718
 20
824.5
 30
0
 11
9451.023
 21
796.487
 31
0
 0
LINE
 8
TOOL_0
 5
92
 10
9451.023
 20
796.487
 30
0
 11
8559.47
 21
0
 31
0
 0
LINE
 8
TOOL_0
 5
93
 10
8559.47
 20
0
 30
0
 11
8559.47
 21
1.0
 31
0
 0
LINE
 8
TOOL_0
 5
94
 10
8559.47
 20
1.0
 30
0
 11
8559.47
 21
0
 31
0
 0
LINE
 8
TOOL_0
 5
95
 10
8559.47
 20
0
 30
0
 11
8559.47
 21
1.0
 31
0
 0
LINE
 8
TOOL_0
 5
96
 10
8559.47
 20
1.0
 30
0
 11
8559.47
 21
725.921
 31
0
 0
LINE
 8
TOOL_0
 5
97
 10
8559.47
 20
725.921
 30
0
 11
9565.976
 21
725.921
 31
0
 0
LINE
 8
TOOL_0
 5
98
 10
9565.976
 20
725.921
 30
0
 11
9565.976
 21
2949.0
 31
0
 0
LINE
 8
TOOL_0
 5
99
 10
9565.976
 20
2949.0
 30
0
 11
9565.976
 21
2950.0
 31
0
 0
ENDSEC
 0
EOF

