0
SECTION
2
TABLES
0
TABLE
2
LAYER
70
0
0
LAYER
2
LAYER_NAME
70
0
62
1
6
CONTINUOUS
0
ENDTAB
0
ENDSEC
 0
SECTION
 2
ENTITIES
 0
LINE
 8
TOOL_0
 5
1
 10
1717.916
 20
89.223
 30
0
 11
1692.332
 21
89.223
 31
0
 0
LINE
 8
TOOL_0
 5
2
 10
1692.332
 20
89.223
 30
0
 11
1142.578
 21
89.223
 31
0
 0
ARC
 8
TOOL_0
 5
3
 10
1142.578
 20
39.723
 30
0
 40
49.5
 50
90.0
 51
106.000090186573
210
0
220
0
230
1.0
 0
LINE
 8
TOOL_0
 5
4
 10
1128.934
 20
87.305
 30
0
 11
898.325
 21
21.179
 31
0
 0
ARC
 8
TOOL_0
 5
5
 10
884.405
 20
69.723
 30
0
 40
50.500359761095
 50
270.0
 51
286.000253014863
210
0
220
0
230
1.0
 0
LINE
 8
TOOL_0
 5
6
 10
884.405
 20
19.223
 30
0
 11
488.778
 21
19.223
 31
0
 0
ARC
 8
TOOL_0
 5
7
 10
488.778
 20
69.723
 30
0
 40
50.5
 50
222.799683484637
 51
270.0
210
0
220
0
230
1.0
 0
LINE
 8
TOOL_0
 5
8
 10
451.724
 20
35.411
 30
0
 11
392.604
 21
99.255
 31
0
 0
ARC
 8
TOOL_0
 5
9
 10
444.401
 20
147.184
 30
0
 40
70.569952883646
 50
181.359250757383
 51
222.778823555331
210
0
220
0
230
1.0
 0
ARC
 8
TOOL_0
 5
A
 10
1092.638
 20
154.723
 30
0
 40
718.846041053298
 50
179.396540503934
 51
180.734344266698
210
0
220
0
230
1.0
 0
ARC
 8
TOOL_0
 5
B
 10
444.332
 20
162.29
 30
0
 40
70.500000113475
 50
137.199793205599
 51
179.996749175634
210
0
220
0
230
1.0
 0
LINE
 8
TOOL_0
 5
C
 10
392.604
 20
210.191
 30
0
 11
451.724
 21
274.035
 31
0
 0
ARC
 8
TOOL_0
 5
D
 10
488.777
 20
239.723
 30
0
 40
50.499882702834
 50
90.0
 51
137.199545644524
210
0
220
0
230
1.0
 0
LINE
 8
TOOL_0
 5
E
 10
488.777
 20
290.223
 30
0
 11
884.404
 21
290.223
 31
0
 0
ARC
 8
TOOL_0
 5
F
 10
884.404
 20
239.723
 30
0
 40
50.5
 50
73.999746985137
 51
90.0
210
0
220
0
230
1.0
 0
LINE
 8
TOOL_0
 5
10
 10
898.324
 20
288.267
 30
0
 11
1128.933
 21
222.141
 31
0
 0
ARC
 8
TOOL_0
 5
11
 10
1142.577
 20
269.723
 30
0
 40
49.499550098966
 50
253.999909813426
 51
270.0
210
0
220
0
230
1.0
 0
LINE
 8
TOOL_0
 5
12
 10
1142.577
 20
220.223
 30
0
 11
1692.331
 21
220.223
 31
0
 0
ARC
 8
TOOL_0
 5
13
 10
1692.331
 20
199.723
 30
0
 40
20.5
 50
0
 51
90.0
210
0
220
0
230
1.0
 0
LINE
 8
TOOL_0
 5
14
 10
1712.831
 20
199.723
 30
0
 11
1712.831
 21
109.723
 31
0
 0
ARC
 8
TOOL_0
 5
15
 10
1692.331
 20
109.723
 30
0
 40
20.5
 50
270.0
 51
0
210
0
220
0
230
1.0
 0
LINE
 8
TOOL_0
 5
16
 10
1692.331
 20
89.223
 30
0
 11
1692.331
 21
80.454
 31
0
 0
LINE
 8
TOOL_0
 5
17
 10
1692.331
 20
80.454
 30
0
 11
1776.584
 21
628.534
 31
0
 0
LINE
 8
TOOL_0
 5
18
 10
1776.584
 20
628.534
 30
0
 11
1775.584
 21
628.534
 31
0
 0
LINE
 8
TOOL_0
 5
19
 10
1775.584
 20
628.534
 30
0
 11
1775.584
 21
0
 31
0
 0
LINE
 8
TOOL_0
 5
1A
 10
1775.584
 20
0
 30
0
 11
1776.584
 21
628.534
 31
0
 0
LINE
 8
TOOL_0
 5
1B
 10
1776.584
 20
628.534
 30
0
 11
1775.584
 21
628.534
 31
0
 0
LINE
 8
TOOL_0
 5
1C
 10
1775.584
 20
628.534
 30
0
 11
352.533
 21
628.534
 31
0
 0
LINE
 8
TOOL_0
 5
1D
 10
352.533
 20
628.534
 30
0
 11
352.533
 21
561.459
 31
0
 0
LINE
 8
TOOL_0
 5
1E
 10
352.533
 20
561.459
 30
0
 11
352.533
 21
560.459
 31
0
 0
ENDSEC
 0
EOF

