0
SECTION
2
TABLES
0
TABLE
2
LAYER
70
0
0
LAYER
2
LAYER_NAME
70
0
62
1
6
CONTINUOUS
0
ENDTAB
0
ENDSEC
 0
SECTION
 2
ENTITIES
 0
LINE
 8
TOOL_0
 5
1
 10
129.05
 20
427.166
 30
0
 11
159.05
 21
427.166
 31
0
 0
ARC
 8
TOOL_0
 5
2
 10
121.55
 20
427.166
 30
0
 40
37.5
 50
0
 51
180.0
210
0
220
0
230
1.0
 0
ARC
 8
TOOL_0
 5
3
 10
121.55
 20
427.166
 30
0
 40
37.5
 50
180.0
 51
0
210
0
220
0
230
1.0
 0
LINE
 8
TOOL_0
 5
4
 10
159.05
 20
427.166
 30
0
 11
155.514
 21
430.702
 31
0
 0
LINE
 8
TOOL_0
 5
5
 10
155.514
 20
430.702
 30
0
 11
271.738
 21
374.988
 31
0
 0
LINE
 8
TOOL_0
 5
6
 10
271.738
 20
374.988
 30
0
 11
249.426
 21
386.266
 31
0
 0
LINE
 8
TOOL_0
 5
7
 10
249.426
 20
386.266
 30
0
 11
247.161
 21
388.235
 31
0
 0
LINE
 8
TOOL_0
 5
8
 10
247.161
 20
388.235
 30
0
 11
41.586
 21
320.703
 31
0
 0
ARC
 8
TOOL_0
 5
9
 10
33.55
 20
345.167
 30
0
 40
25.750040621327
 50
180.0
 51
288.18445553376
210
0
220
0
230
1.0
 0
LINE
 8
TOOL_0
 5
A
 10
7.8
 20
345.167
 30
0
 11
7.8
 21
509.167
 31
0
 0
ARC
 8
TOOL_0
 5
B
 10
33.55
 20
509.167
 30
0
 40
25.75
 50
65.118872523525
 51
180.0
210
0
220
0
230
1.0
 0
LINE
 8
TOOL_0
 5
C
 10
44.384
 20
532.527
 30
0
 11
107.79
 21
503.121
 31
0
 0
ARC
 8
TOOL_0
 5
D
 10
120.096
 20
529.656
 30
0
 40
29.24968138288
 50
245.11978766664
 51
270.812943306115
210
0
220
0
230
1.0
 0
ARC
 8
TOOL_0
 5
E
 10
121.551
 20
427.166
 30
0
 40
73.250383268622
 50
40.744422229285
 51
90.813505816061
210
0
220
0
230
1.0
 0
ARC
 8
TOOL_0
 5
F
 10
201.286
 20
493.166
 30
0
 40
30.305801457807
 50
216.887669171761
 51
244.876659438715
210
0
220
0
230
1.0
 0
LINE
 8
TOOL_0
 5
10
 10
188.419
 20
465.727
 30
0
 11
251.384
 21
436.526
 31
0
 0
ARC
 8
TOOL_0
 5
11
 10
240.55
 20
413.166
 30
0
 40
25.750051572764
 50
291.525398895066
 51
65.118872523525
210
0
220
0
230
1.0
 0
LINE
 8
TOOL_0
 5
12
 10
249.998
 20
389.212
 30
0
 11
249.427
 21
386.265
 31
0
 0
LINE
 8
TOOL_0
 5
13
 10
249.427
 20
386.265
 30
0
 11
247.171
 21
381.803
 31
0
 0
LINE
 8
TOOL_0
 5
14
 10
247.171
 20
381.803
 30
0
 11
159.797
 21
588.551
 31
0
 0
LINE
 8
TOOL_0
 5
15
 10
159.797
 20
588.551
 30
0
 11
189.797
 21
588.551
 31
0
 0
ARC
 8
TOOL_0
 5
16
 10
152.297
 20
588.551
 30
0
 40
37.5
 50
0
 51
180.0
210
0
220
0
230
1.0
 0
ARC
 8
TOOL_0
 5
17
 10
152.297
 20
588.551
 30
0
 40
37.5
 50
180.0
 51
0
210
0
220
0
230
1.0
 0
LINE
 8
TOOL_0
 5
18
 10
189.797
 20
588.551
 30
0
 11
186.261
 21
592.087
 31
0
 0
LINE
 8
TOOL_0
 5
19
 10
186.261
 20
592.087
 30
0
 11
286.302
 21
524.191
 31
0
 0
LINE
 8
TOOL_0
 5
1A
 10
286.302
 20
524.191
 30
0
 11
268.624
 21
506.513
 31
0
 0
LINE
 8
TOOL_0
 5
1B
 10
268.624
 20
506.513
 30
0
 11
266.002
 21
505.051
 31
0
 0
ARC
 8
TOOL_0
 5
1C
 10
240.296
 20
506.551
 30
0
 40
25.749726911173
 50
245.118872523524
 51
356.660455815199
210
0
220
0
230
1.0
 0
LINE
 8
TOOL_0
 5
1D
 10
229.462
 20
483.191
 30
0
 11
166.056
 21
512.597
 31
0
 0
ARC
 8
TOOL_0
 5
1E
 10
153.75
 20
486.062
 30
0
 40
29.24968138288
 50
65.11978766664
 51
90.812943306115
210
0
220
0
230
1.0
 0
ARC
 8
TOOL_0
 5
1F
 10
152.296
 20
588.552
 30
0
 40
73.250369077569
 50
220.743911704213
 51
270.812723703901
210
0
220
0
230
1.0
 0
ARC
 8
TOOL_0
 5
20
 10
72.561
 20
522.551
 30
0
 40
30.305601924397
 50
36.890316129311
 51
64.878371177539
210
0
220
0
230
1.0
 0
LINE
 8
TOOL_0
 5
21
 10
85.427
 20
549.99
 30
0
 11
22.462
 21
579.191
 31
0
 0
ARC
 8
TOOL_0
 5
22
 10
33.296
 20
602.551
 30
0
 40
25.750051572764
 50
108.18445553376
 51
245.118872523524
210
0
220
0
230
1.0
 0
LINE
 8
TOOL_0
 5
23
 10
25.26
 20
627.015
 30
0
 11
232.26
 21
695.015
 31
0
 0
ARC
 8
TOOL_0
 5
24
 10
240.296
 20
670.551
 30
0
 40
25.750040621327
 50
0
 51
108.18445553376
210
0
220
0
230
1.0
 0
LINE
 8
TOOL_0
 5
25
 10
266.046
 20
670.551
 30
0
 11
266.046
 21
508.051
 31
0
 0
LINE
 8
TOOL_0
 5
26
 10
266.046
 20
508.051
 30
0
 11
268.624
 21
506.513
 31
0
 0
LINE
 8
TOOL_0
 5
27
 10
268.624
 20
506.513
 30
0
 11
272.16
 21
502.977
 31
0
 0
LINE
 8
TOOL_0
 5
28
 10
272.16
 20
502.977
 30
0
 11
128.292
 21
757.655
 31
0
 0
LINE
 8
TOOL_0
 5
29
 10
128.292
 20
757.655
 30
0
 11
158.292
 21
757.655
 31
0
 0
ARC
 8
TOOL_0
 5
2A
 10
120.792
 20
757.655
 30
0
 40
37.5
 50
0
 51
180.0
210
0
220
0
230
1.0
 0
ARC
 8
TOOL_0
 5
2B
 10
120.792
 20
757.655
 30
0
 40
37.5
 50
180.0
 51
0
210
0
220
0
230
1.0
 0
LINE
 8
TOOL_0
 5
2C
 10
158.292
 20
757.655
 30
0
 11
154.756
 21
761.191
 31
0
 0
LINE
 8
TOOL_0
 5
2D
 10
154.756
 20
761.191
 30
0
 11
270.98
 21
705.476
 31
0
 0
LINE
 8
TOOL_0
 5
2E
 10
270.98
 20
705.476
 30
0
 11
248.668
 21
716.754
 31
0
 0
LINE
 8
TOOL_0
 5
2F
 10
248.668
 20
716.754
 30
0
 11
246.403
 21
718.723
 31
0
 0
LINE
 8
TOOL_0
 5
30
 10
246.403
 20
718.723
 30
0
 11
40.828
 21
651.191
 31
0
 0
ARC
 8
TOOL_0
 5
31
 10
32.792
 20
675.655
 30
0
 40
25.750040621327
 50
180.0
 51
288.18445553376
210
0
220
0
230
1.0
 0
LINE
 8
TOOL_0
 5
32
 10
7.042
 20
675.655
 30
0
 11
7.042
 21
839.655
 31
0
 0
ARC
 8
TOOL_0
 5
33
 10
32.792
 20
839.655
 30
0
 40
25.75
 50
65.118872523525
 51
180.0
210
0
220
0
230
1.0
 0
LINE
 8
TOOL_0
 5
34
 10
43.626
 20
863.015
 30
0
 11
107.032
 21
833.609
 31
0
 0
ARC
 8
TOOL_0
 5
35
 10
119.338
 20
860.144
 30
0
 40
29.24968138288
 50
245.11978766664
 51
270.812943306115
210
0
220
0
230
1.0
 0
ARC
 8
TOOL_0
 5
36
 10
120.793
 20
757.654
 30
0
 40
73.250383268622
 50
40.744422229285
 51
90.813505816061
210
0
220
0
230
1.0
 0
ARC
 8
TOOL_0
 5
37
 10
200.528
 20
823.654
 30
0
 40
30.305801457807
 50
216.887669171761
 51
244.876659438715
210
0
220
0
230
1.0
 0
LINE
 8
TOOL_0
 5
38
 10
187.661
 20
796.215
 30
0
 11
250.626
 21
767.014
 31
0
 0
ARC
 8
TOOL_0
 5
39
 10
239.792
 20
743.654
 30
0
 40
25.750051572764
 50
291.525398895066
 51
65.118872523525
210
0
220
0
230
1.0
 0
LINE
 8
TOOL_0
 5
3A
 10
249.24
 20
719.7
 30
0
 11
248.669
 21
716.753
 31
0
 0
LINE
 8
TOOL_0
 5
3B
 10
248.669
 20
716.753
 30
0
 11
246.413
 21
712.291
 31
0
 0
LINE
 8
TOOL_0
 5
3C
 10
246.413
 20
712.291
 30
0
 11
297.671
 21
908.556
 31
0
 0
LINE
 8
TOOL_0
 5
3D
 10
297.671
 20
908.556
 30
0
 11
297.671
 21
907.556
 31
0
 0
LINE
 8
TOOL_0
 5
3E
 10
297.671
 20
907.556
 30
0
 11
297.671
 21
908.556
 31
0
 0
LINE
 8
TOOL_0
 5
3F
 10
297.671
 20
908.556
 30
0
 11
297.671
 21
907.556
 31
0
 0
LINE
 8
TOOL_0
 5
40
 10
297.671
 20
907.556
 30
0
 11
297.671
 21
311.628
 31
0
 0
LINE
 8
TOOL_0
 5
41
 10
297.671
 20
311.628
 30
0
 11
297.671
 21
310.628
 31
0
 0
ENDSEC
 0
EOF

