0
SECTION
2
TABLES
0
TABLE
2
LAYER
70
0
0
LAYER
2
LAYER_NAME
70
0
62
1
6
CONTINUOUS
0
ENDTAB
0
ENDSEC
 0
SECTION
 2
ENTITIES
 0
LINE
 8
TOOL_0
 5
1
 10
1561.622
 20
387.351
 30
0
 11
1528.509
 21
387.351
 31
0
 0
LINE
 8
TOOL_0
 5
2
 10
1528.509
 20
387.351
 30
0
 11
1107.518
 21
387.351
 31
0
 0
ARC
 8
TOOL_0
 5
3
 10
1107.583
 20
376.939
 30
0
 40
10.412202888918
 50
90.357681260918
 51
107.637968670382
210
0
220
0
230
1.0
 0
LINE
 8
TOOL_0
 5
4
 10
1104.428
 20
386.862
 30
0
 11
1022.804
 21
360.341
 31
0
 0
ARC
 8
TOOL_0
 5
5
 10
1019.649
 20
370.264
 30
0
 40
10.412490288111
 50
270.357681260917
 51
287.637968670382
210
0
220
0
230
1.0
 0
LINE
 8
TOOL_0
 5
6
 10
1019.714
 20
359.852
 30
0
 11
1003.123
 21
359.852
 31
0
 0
ARC
 8
TOOL_0
 5
7
 10
1003.123
 20
350.452
 30
0
 40
9.4
 50
90.0
 51
148.582569893208
210
0
220
0
230
1.0
 0
LINE
 8
TOOL_0
 5
8
 10
995.101
 20
355.352
 30
0
 11
967.916
 21
355.352
 31
0
 0
ARC
 8
TOOL_0
 5
9
 10
959.894
 20
350.452
 30
0
 40
9.400132126731
 50
31.417430106792
 51
90.0
210
0
220
0
230
1.0
 0
LINE
 8
TOOL_0
 5
A
 10
959.894
 20
359.852
 30
0
 11
903.123
 21
359.852
 31
0
 0
ARC
 8
TOOL_0
 5
B
 10
903.123
 20
350.452
 30
0
 40
9.4
 50
90.0
 51
148.582569893208
210
0
220
0
230
1.0
 0
LINE
 8
TOOL_0
 5
C
 10
895.101
 20
355.352
 30
0
 11
867.916
 21
355.352
 31
0
 0
ARC
 8
TOOL_0
 5
D
 10
859.894
 20
350.452
 30
0
 40
9.400132126731
 50
31.417430106792
 51
90.0
210
0
220
0
230
1.0
 0
LINE
 8
TOOL_0
 5
E
 10
859.894
 20
359.852
 30
0
 11
803.123
 21
359.852
 31
0
 0
ARC
 8
TOOL_0
 5
F
 10
803.123
 20
350.452
 30
0
 40
9.4
 50
90.0
 51
148.582569893208
210
0
220
0
230
1.0
 0
LINE
 8
TOOL_0
 5
10
 10
795.101
 20
355.352
 30
0
 11
767.916
 21
355.352
 31
0
 0
ARC
 8
TOOL_0
 5
11
 10
759.894
 20
350.452
 30
0
 40
9.400132126731
 50
31.417430106792
 51
90.0
210
0
220
0
230
1.0
 0
LINE
 8
TOOL_0
 5
12
 10
759.894
 20
359.852
 30
0
 11
658.123
 21
359.852
 31
0
 0
ARC
 8
TOOL_0
 5
13
 10
658.123
 20
350.452
 30
0
 40
9.4
 50
90.0
 51
148.582569893208
210
0
220
0
230
1.0
 0
LINE
 8
TOOL_0
 5
14
 10
650.101
 20
355.352
 30
0
 11
616.33
 21
355.352
 31
0
 0
ARC
 8
TOOL_0
 5
15
 10
612.624
 20
352.919
 30
0
 40
4.433274748986
 50
33.285017774548
 51
89.767354305577
210
0
220
0
230
1.0
 0
ARC
 8
TOOL_0
 5
16
 10
612.642
 20
312.952
 30
0
 40
44.4
 50
90.0
 51
134.561089826807
210
0
220
0
230
1.0
 0
ARC
 8
TOOL_0
 5
17
 10
556.508
 20
369.97
 30
0
 40
35.613158930373
 50
228.95982294536
 51
314.541534333995
210
0
220
0
230
1.0
 0
ARC
 8
TOOL_0
 5
18
 10
500.677
 20
305.86
 30
0
 40
49.400007135627
 50
48.94053105188
 51
80.000149956482
210
0
220
0
230
1.0
 0
LINE
 8
TOOL_0
 5
19
 10
509.255
 20
354.509
 30
0
 11
451.991
 21
364.606
 31
0
 0
ARC
 8
TOOL_0
 5
1A
 10
460.719
 20
413.93
 30
0
 40
50.090268116671
 50
223.03415297367
 51
259.965250558919
210
0
220
0
230
1.0
 0
ARC
 8
TOOL_0
 5
1B
 10
997.137
 20
925.658
 30
0
 40
791.443836846304
 50
222.267553124708
 51
223.611583638569
210
0
220
0
230
1.0
 0
ARC
 8
TOOL_0
 5
1C
 10
464.579
 20
440.552
 30
0
 40
71.069657351081
 50
180.020960886462
 51
221.631263016503
210
0
220
0
230
1.0
 0
ARC
 8
TOOL_0
 5
1D
 10
1097.773
 20
447.952
 30
0
 40
704.30315005117
 50
179.260091464619
 51
180.604123866959
210
0
220
0
230
1.0
 0
ARC
 8
TOOL_0
 5
1E
 10
464.579
 20
455.35
 30
0
 40
71.070263183697
 50
137.021847513083
 51
178.63177403331
210
0
220
0
230
1.0
 0
LINE
 8
TOOL_0
 5
1F
 10
412.583
 20
503.8
 30
0
 11
424.106
 21
516.157
 31
0
 0
ARC
 8
TOOL_0
 5
20
 10
460.719
 20
481.973
 30
0
 40
50.090494357712
 50
100.03474944108
 51
136.965010935945
210
0
220
0
230
1.0
 0
LINE
 8
TOOL_0
 5
21
 10
451.991
 20
531.297
 30
0
 11
509.255
 21
541.394
 31
0
 0
ARC
 8
TOOL_0
 5
22
 10
500.677
 20
590.044
 30
0
 40
49.400451253
 50
279.999648645358
 51
311.058707132429
210
0
220
0
230
1.0
 0
ARC
 8
TOOL_0
 5
23
 10
556.508
 20
525.932
 30
0
 40
35.613645320298
 50
45.459594123952
 51
131.039120725642
210
0
220
0
230
1.0
 0
ARC
 8
TOOL_0
 5
24
 10
612.642
 20
582.951
 30
0
 40
44.399830416343
 50
225.438910173192
 51
270.0
210
0
220
0
230
1.0
 0
ARC
 8
TOOL_0
 5
25
 10
612.624
 20
542.984
 30
0
 40
4.43303654395
 50
270.232645694423
 51
326.714982225452
210
0
220
0
230
1.0
 0
LINE
 8
TOOL_0
 5
26
 10
616.33
 20
540.551
 30
0
 11
650.101
 21
540.551
 31
0
 0
ARC
 8
TOOL_0
 5
27
 10
658.123
 20
545.451
 30
0
 40
9.400132126731
 50
211.417430106792
 51
270.0
210
0
220
0
230
1.0
 0
LINE
 8
TOOL_0
 5
28
 10
658.123
 20
536.051
 30
0
 11
759.894
 21
536.051
 31
0
 0
ARC
 8
TOOL_0
 5
29
 10
759.894
 20
545.451
 30
0
 40
9.4
 50
270.0
 51
328.582569893208
210
0
220
0
230
1.0
 0
LINE
 8
TOOL_0
 5
2A
 10
767.916
 20
540.551
 30
0
 11
795.101
 21
540.551
 31
0
 0
ARC
 8
TOOL_0
 5
2B
 10
803.123
 20
545.451
 30
0
 40
9.400132126731
 50
211.417430106792
 51
270.0
210
0
220
0
230
1.0
 0
LINE
 8
TOOL_0
 5
2C
 10
803.123
 20
536.051
 30
0
 11
859.894
 21
536.051
 31
0
 0
ARC
 8
TOOL_0
 5
2D
 10
859.894
 20
545.451
 30
0
 40
9.4
 50
270.0
 51
328.582569893208
210
0
220
0
230
1.0
 0
LINE
 8
TOOL_0
 5
2E
 10
867.916
 20
540.551
 30
0
 11
895.101
 21
540.551
 31
0
 0
ARC
 8
TOOL_0
 5
2F
 10
903.123
 20
545.451
 30
0
 40
9.400132126731
 50
211.417430106792
 51
270.0
210
0
220
0
230
1.0
 0
LINE
 8
TOOL_0
 5
30
 10
903.123
 20
536.051
 30
0
 11
959.894
 21
536.051
 31
0
 0
ARC
 8
TOOL_0
 5
31
 10
959.894
 20
545.451
 30
0
 40
9.4
 50
270.0
 51
328.582569893208
210
0
220
0
230
1.0
 0
LINE
 8
TOOL_0
 5
32
 10
967.916
 20
540.551
 30
0
 11
995.101
 21
540.551
 31
0
 0
ARC
 8
TOOL_0
 5
33
 10
1003.123
 20
545.451
 30
0
 40
9.400132126731
 50
211.417430106792
 51
270.0
210
0
220
0
230
1.0
 0
LINE
 8
TOOL_0
 5
34
 10
1003.123
 20
536.051
 30
0
 11
1019.714
 21
536.051
 31
0
 0
ARC
 8
TOOL_0
 5
35
 10
1019.649
 20
525.639
 30
0
 40
10.412202888918
 50
72.362031329617
 51
89.642318739082
210
0
220
0
230
1.0
 0
LINE
 8
TOOL_0
 5
36
 10
1022.804
 20
535.562
 30
0
 11
1104.428
 21
509.041
 31
0
 0
ARC
 8
TOOL_0
 5
37
 10
1107.583
 20
518.964
 30
0
 40
10.412490288111
 50
252.362031329617
 51
269.642318739082
210
0
220
0
230
1.0
 0
LINE
 8
TOOL_0
 5
38
 10
1107.518
 20
508.552
 30
0
 11
1528.509
 21
508.552
 31
0
 0
ARC
 8
TOOL_0
 5
39
 10
1528.509
 20
488.552
 30
0
 40
20.0
 50
0
 51
90.0
210
0
220
0
230
1.0
 0
LINE
 8
TOOL_0
 5
3A
 10
1548.509
 20
488.552
 30
0
 11
1548.509
 21
407.352
 31
0
 0
ARC
 8
TOOL_0
 5
3B
 10
1528.509
 20
407.352
 30
0
 40
20.0
 50
270.0
 51
0
210
0
220
0
230
1.0
 0
LINE
 8
TOOL_0
 5
3C
 10
1528.509
 20
387.352
 30
0
 11
1528.509
 21
381.329
 31
0
 0
LINE
 8
TOOL_0
 5
3D
 10
1528.509
 20
381.329
 30
0
 11
1753.158
 21
573.448
 31
0
 0
LINE
 8
TOOL_0
 5
3E
 10
1753.158
 20
573.448
 30
0
 11
1752.158
 21
573.448
 31
0
 0
LINE
 8
TOOL_0
 5
3F
 10
1752.158
 20
573.448
 30
0
 11
1753.158
 21
573.448
 31
0
 0
LINE
 8
TOOL_0
 5
40
 10
1753.158
 20
573.448
 30
0
 11
1752.158
 21
573.448
 31
0
 0
LINE
 8
TOOL_0
 5
41
 10
1752.158
 20
573.448
 30
0
 11
398.0
 21
573.448
 31
0
 0
LINE
 8
TOOL_0
 5
42
 10
398.0
 20
573.448
 30
0
 11
397.0
 21
573.448
 31
0
 0
ENDSEC
 0
EOF

