0
SECTION
2
TABLES
0
TABLE
2
LAYER
70
0
0
LAYER
2
LAYER_NAME
70
0
62
1
6
CONTINUOUS
0
ENDTAB
0
ENDSEC
 0
SECTION
 2
ENTITIES
 0
LINE
 8
TOOL_0
 5
1
 10
490.867
 20
232.193
 30
0
 11
519.284
 21
232.004
 31
0
 0
ARC
 8
TOOL_0
 5
2
 10
434.284
 20
232.004
 30
0
 40
85.0
 50
0
 51
180.0
210
0
220
0
230
1.0
 0
ARC
 8
TOOL_0
 5
3
 10
434.284
 20
232.004
 30
0
 40
85.0
 50
180.0
 51
0
210
0
220
0
230
1.0
 0
LINE
 8
TOOL_0
 5
4
 10
519.284
 20
232.004
 30
0
 11
516.692
 21
236.616
 31
0
 0
LINE
 8
TOOL_0
 5
5
 10
516.692
 20
236.616
 30
0
 11
742.284
 21
109.004
 31
0
 0
LINE
 8
TOOL_0
 5
6
 10
742.284
 20
109.004
 30
0
 11
717.284
 21
109.004
 31
0
 0
LINE
 8
TOOL_0
 5
7
 10
717.284
 20
109.004
 30
0
 11
620.295
 21
109.004
 31
0
 0
ARC
 8
TOOL_0
 5
8
 10
434.284
 20
232.004
 30
0
 40
223.000206549232
 50
179.999743068253
 51
326.525280638037
210
0
220
0
230
1.0
 0
ARC
 8
TOOL_0
 5
9
 10
434.284
 20
232.004
 30
0
 40
223.000000002242
 50
33.474719361963
 51
179.999743068253
210
0
220
0
230
1.0
 0
LINE
 8
TOOL_0
 5
A
 10
620.295
 20
355.004
 30
0
 11
717.284
 21
355.004
 31
0
 0
LINE
 8
TOOL_0
 5
B
 10
717.284
 20
355.004
 30
0
 11
717.284
 21
109.004
 31
0
 0
LINE
 8
TOOL_0
 5
C
 10
717.284
 20
109.004
 30
0
 11
717.284
 21
101.004
 31
0
 0
LINE
 8
TOOL_0
 5
D
 10
717.284
 20
101.004
 30
0
 11
780.227
 21
596.053
 31
0
 0
LINE
 8
TOOL_0
 5
E
 10
780.227
 20
596.053
 30
0
 11
807.949
 21
597.35
 31
0
 0
ARC
 8
TOOL_0
 5
F
 10
722.949
 20
597.35
 30
0
 40
85.0
 50
0
 51
180.0
210
0
220
0
230
1.0
 0
ARC
 8
TOOL_0
 5
10
 10
722.949
 20
597.35
 30
0
 40
85.0
 50
180.0
 51
0
210
0
220
0
230
1.0
 0
LINE
 8
TOOL_0
 5
11
 10
807.949
 20
597.35
 30
0
 11
806.674
 21
602.503
 31
0
 0
LINE
 8
TOOL_0
 5
12
 10
806.674
 20
602.503
 30
0
 11
408.86
 21
720.587
 31
0
 0
LINE
 8
TOOL_0
 5
13
 10
408.86
 20
720.587
 30
0
 11
439.949
 21
720.35
 31
0
 0
LINE
 8
TOOL_0
 5
14
 10
439.949
 20
720.35
 30
0
 11
536.938
 21
720.35
 31
0
 0
ARC
 8
TOOL_0
 5
15
 10
722.949
 20
597.35
 30
0
 40
223.000206549232
 50
0
 51
146.525280638037
210
0
220
0
230
1.0
 0
ARC
 8
TOOL_0
 5
16
 10
722.949
 20
597.35
 30
0
 40
223.0
 50
213.474719361963
 51
0
210
0
220
0
230
1.0
 0
LINE
 8
TOOL_0
 5
17
 10
536.938
 20
474.35
 30
0
 11
439.949
 21
474.35
 31
0
 0
LINE
 8
TOOL_0
 5
18
 10
439.949
 20
474.35
 30
0
 11
439.949
 21
720.35
 31
0
 0
LINE
 8
TOOL_0
 5
19
 10
439.949
 20
720.35
 30
0
 11
439.695
 21
726.544
 31
0
 0
LINE
 8
TOOL_0
 5
1A
 10
439.695
 20
726.544
 30
0
 11
428.76
 21
542.084
 31
0
 0
LINE
 8
TOOL_0
 5
1B
 10
428.76
 20
542.084
 30
0
 11
428.136
 21
507.467
 31
0
 0
LINE
 8
TOOL_0
 5
1C
 10
428.136
 20
507.467
 30
0
 11
418.911
 21
507.726
 31
0
 0
LINE
 8
TOOL_0
 5
1D
 10
418.911
 20
507.726
 30
0
 11
218.911
 21
507.726
 31
0
 0
LINE
 8
TOOL_0
 5
1E
 10
218.911
 20
507.726
 30
0
 11
218.911
 21
677.726
 31
0
 0
LINE
 8
TOOL_0
 5
1F
 10
218.911
 20
677.726
 30
0
 11
418.911
 21
677.726
 31
0
 0
LINE
 8
TOOL_0
 5
20
 10
418.911
 20
677.726
 30
0
 11
418.911
 21
507.726
 31
0
 0
LINE
 8
TOOL_0
 5
21
 10
418.911
 20
507.726
 30
0
 11
418.781
 21
502.254
 31
0
 0
LINE
 8
TOOL_0
 5
22
 10
418.781
 20
502.254
 30
0
 11
489.327
 21
963.53
 31
0
 0
LINE
 8
TOOL_0
 5
23
 10
489.327
 20
963.53
 30
0
 11
518.056
 21
963.005
 31
0
 0
ARC
 8
TOOL_0
 5
24
 10
433.056
 20
963.005
 30
0
 40
85.0
 50
0
 51
180.0
210
0
220
0
230
1.0
 0
ARC
 8
TOOL_0
 5
25
 10
433.056
 20
963.005
 30
0
 40
85.0
 50
180.0
 51
0
210
0
220
0
230
1.0
 0
LINE
 8
TOOL_0
 5
26
 10
518.056
 20
963.005
 30
0
 11
515.402
 21
968.164
 31
0
 0
LINE
 8
TOOL_0
 5
27
 10
515.402
 20
968.164
 30
0
 11
741.056
 21
840.005
 31
0
 0
LINE
 8
TOOL_0
 5
28
 10
741.056
 20
840.005
 30
0
 11
716.056
 21
840.005
 31
0
 0
LINE
 8
TOOL_0
 5
29
 10
716.056
 20
840.005
 30
0
 11
619.067
 21
840.005
 31
0
 0
ARC
 8
TOOL_0
 5
2A
 10
433.056
 20
963.005
 30
0
 40
223.000206549232
 50
179.999743068253
 51
326.525280638037
210
0
220
0
230
1.0
 0
ARC
 8
TOOL_0
 5
2B
 10
433.056
 20
963.005
 30
0
 40
223.000000002242
 50
33.474719361963
 51
179.999743068253
210
0
220
0
230
1.0
 0
LINE
 8
TOOL_0
 5
2C
 10
619.067
 20
1086.005
 30
0
 11
716.056
 21
1086.005
 31
0
 0
LINE
 8
TOOL_0
 5
2D
 10
716.056
 20
1086.005
 30
0
 11
716.056
 21
840.005
 31
0
 0
LINE
 8
TOOL_0
 5
2E
 10
716.056
 20
840.005
 30
0
 11
716.056
 21
832.005
 31
0
 0
LINE
 8
TOOL_0
 5
2F
 10
716.056
 20
832.005
 30
0
 11
388.802
 21
1829.622
 31
0
 0
LINE
 8
TOOL_0
 5
30
 10
388.802
 20
1829.622
 30
0
 11
403.064
 21
1829.661
 31
0
 0
ARC
 8
TOOL_0
 5
31
 10
388.064
 20
1829.661
 30
0
 40
15.0
 50
0
 51
180.0
210
0
220
0
230
1.0
 0
ARC
 8
TOOL_0
 5
32
 10
388.064
 20
1829.661
 30
0
 40
15.0
 50
180.0
 51
0
210
0
220
0
230
1.0
 0
LINE
 8
TOOL_0
 5
33
 10
403.064
 20
1829.661
 30
0
 11
400.335
 21
1834.222
 31
0
 0
LINE
 8
TOOL_0
 5
34
 10
400.335
 20
1834.222
 30
0
 11
798.344
 21
1829.661
 31
0
 0
LINE
 8
TOOL_0
 5
35
 10
798.344
 20
1829.661
 30
0
 11
768.064
 21
1829.661
 31
0
 0
ARC
 8
TOOL_0
 5
36
 10
388.064
 20
1829.661
 30
0
 40
380.0
 50
180.0
 51
0
210
0
220
0
230
1.0
 0
ARC
 8
TOOL_0
 5
37
 10
388.064
 20
1829.661
 30
0
 40
380.0
 50
0
 51
180.0
210
0
220
0
230
1.0
 0
LINE
 8
TOOL_0
 5
38
 10
768.064
 20
1829.661
 30
0
 11
770.284
 21
1824.627
 31
0
 0
ENDSEC
 0
EOF

