0
SECTION
2
TABLES
0
TABLE
2
LAYER
70
0
0
LAYER
2
LAYER_NAME
70
0
62
1
6
CONTINUOUS
0
ENDTAB
0
ENDSEC
 0
SECTION
 2
ENTITIES
 0
LINE
 8
TOOL_0
 5
1
 10
754.289
 20
1306.605
 30
0
 11
754.289
 21
1225.712
 31
0
 0
LINE
 8
TOOL_0
 5
2
 10
754.289
 20
1225.712
 30
0
 11
751.708
 21
1224.18
 31
0
 0
LINE
 8
TOOL_0
 5
3
 10
751.708
 20
1224.18
 30
0
 11
751.708
 21
956.68
 31
0
 0
ARC
 8
TOOL_0
 5
4
 10
721.708
 20
956.68
 30
0
 40
30.0
 50
270.0
 51
0
210
0
220
0
230
1.0
 0
LINE
 8
TOOL_0
 5
5
 10
721.708
 20
926.68
 30
0
 11
630.908
 21
926.68
 31
0
 0
ARC
 8
TOOL_0
 5
6
 10
630.908
 20
896.68
 30
0
 40
30.0
 50
90.0
 51
180.0
210
0
220
0
230
1.0
 0
LINE
 8
TOOL_0
 5
7
 10
600.908
 20
896.68
 30
0
 11
600.908
 21
843.68
 31
0
 0
ARC
 8
TOOL_0
 5
8
 10
570.908
 20
843.68
 30
0
 40
30.0
 50
270.0
 51
0
210
0
220
0
230
1.0
 0
LINE
 8
TOOL_0
 5
9
 10
570.908
 20
813.68
 30
0
 11
520.108
 21
813.68
 31
0
 0
ARC
 8
TOOL_0
 5
A
 10
520.108
 20
843.68
 30
0
 40
30.0
 50
180.0
 51
270.0
210
0
220
0
230
1.0
 0
LINE
 8
TOOL_0
 5
B
 10
490.108
 20
843.68
 30
0
 11
490.108
 21
1225.68
 31
0
 0
ARC
 8
TOOL_0
 5
C
 10
520.108
 20
1225.68
 30
0
 40
30.0
 50
90.0
 51
180.0
210
0
220
0
230
1.0
 0
LINE
 8
TOOL_0
 5
D
 10
520.108
 20
1255.68
 30
0
 11
721.708
 21
1255.68
 31
0
 0
ARC
 8
TOOL_0
 5
E
 10
721.708
 20
1225.68
 30
0
 40
30.0
 50
2.866029488885
 51
90.0
210
0
220
0
230
1.0
 0
LINE
 8
TOOL_0
 5
F
 10
751.67
 20
1227.18
 30
0
 11
754.289
 21
1225.713
 31
0
 0
LINE
 8
TOOL_0
 5
10
 10
754.289
 20
1225.713
 30
0
 11
773.395
 21
1214.578
 31
0
 0
LINE
 8
TOOL_0
 5
11
 10
773.395
 20
1214.578
 30
0
 11
389.371
 21
943.196
 31
0
 0
LINE
 8
TOOL_0
 5
12
 10
389.371
 20
943.196
 30
0
 11
389.371
 21
884.219
 31
0
 0
LINE
 8
TOOL_0
 5
13
 10
389.371
 20
884.219
 30
0
 11
386.79
 21
882.687
 31
0
 0
LINE
 8
TOOL_0
 5
14
 10
386.79
 20
882.687
 30
0
 11
386.79
 21
502.187
 31
0
 0
ARC
 8
TOOL_0
 5
15
 10
356.79
 20
502.187
 30
0
 40
30.0
 50
270.0
 51
0
210
0
220
0
230
1.0
 0
LINE
 8
TOOL_0
 5
16
 10
356.79
 20
472.187
 30
0
 11
155.19
 21
472.187
 31
0
 0
ARC
 8
TOOL_0
 5
17
 10
155.19
 20
502.187
 30
0
 40
30.0
 50
180.0
 51
270.0
210
0
220
0
230
1.0
 0
LINE
 8
TOOL_0
 5
18
 10
125.19
 20
502.187
 30
0
 11
125.19
 21
771.187
 31
0
 0
ARC
 8
TOOL_0
 5
19
 10
155.19
 20
771.187
 30
0
 40
30.0
 50
90.0
 51
180.0
210
0
220
0
230
1.0
 0
LINE
 8
TOOL_0
 5
1A
 10
155.19
 20
801.187
 30
0
 11
245.99
 21
801.187
 31
0
 0
ARC
 8
TOOL_0
 5
1B
 10
245.99
 20
831.187
 30
0
 40
30.0
 50
270.0
 51
0
210
0
220
0
230
1.0
 0
LINE
 8
TOOL_0
 5
1C
 10
275.99
 20
831.187
 30
0
 11
275.99
 21
884.187
 31
0
 0
ARC
 8
TOOL_0
 5
1D
 10
305.99
 20
884.187
 30
0
 40
30.0
 50
90.0
 51
180.0
210
0
220
0
230
1.0
 0
LINE
 8
TOOL_0
 5
1E
 10
305.99
 20
914.187
 30
0
 11
356.79
 21
914.187
 31
0
 0
ARC
 8
TOOL_0
 5
1F
 10
356.79
 20
884.187
 30
0
 40
30.0
 50
2.866029488885
 51
90.0
210
0
220
0
230
1.0
 0
LINE
 8
TOOL_0
 5
20
 10
386.752
 20
885.687
 30
0
 11
389.371
 21
884.22
 31
0
 0
LINE
 8
TOOL_0
 5
21
 10
389.371
 20
884.22
 30
0
 11
404.759
 21
878.883
 31
0
 0
LINE
 8
TOOL_0
 5
22
 10
404.759
 20
878.883
 30
0
 11
285.499
 21
1317.711
 31
0
 0
LINE
 8
TOOL_0
 5
23
 10
285.499
 20
1317.711
 30
0
 11
286.499
 21
1317.711
 31
0
 0
LINE
 8
TOOL_0
 5
24
 10
286.499
 20
1317.711
 30
0
 11
285.499
 21
1317.711
 31
0
 0
LINE
 8
TOOL_0
 5
25
 10
285.499
 20
1317.711
 30
0
 11
286.499
 21
1317.711
 31
0
 0
LINE
 8
TOOL_0
 5
26
 10
286.499
 20
1317.711
 30
0
 11
862.847
 21
1317.711
 31
0
 0
LINE
 8
TOOL_0
 5
27
 10
862.847
 20
1317.711
 30
0
 11
863.847
 21
1317.711
 31
0
 0
ENDSEC
 0
EOF

