0
SECTION
2
TABLES
0
TABLE
2
LAYER
70
0
0
LAYER
2
LAYER_NAME
70
0
62
1
6
CONTINUOUS
0
ENDTAB
0
ENDSEC
 0
SECTION
 2
ENTITIES
 0
LINE
 8
TOOL_0
 5
1
 10
617.625
 20
1092.899
 30
0
 11
637.625
 21
1092.899
 31
0
 0
ARC
 8
TOOL_0
 5
2
 10
597.625
 20
1092.899
 30
0
 40
40.0
 50
0
 51
180.0
210
0
220
0
230
1.0
 0
ARC
 8
TOOL_0
 5
3
 10
597.625
 20
1092.899
 30
0
 40
40.0
 50
180.0
 51
0
210
0
220
0
230
1.0
 0
LINE
 8
TOOL_0
 5
4
 10
637.625
 20
1092.899
 30
0
 11
634.089
 21
1096.435
 31
0
 0
LINE
 8
TOOL_0
 5
5
 10
634.089
 20
1096.435
 30
0
 11
1927.624
 21
1092.899
 31
0
 0
LINE
 8
TOOL_0
 5
6
 10
1927.624
 20
1092.899
 30
0
 11
1947.624
 21
1092.899
 31
0
 0
ARC
 8
TOOL_0
 5
7
 10
1907.624
 20
1092.899
 30
0
 40
40.0
 50
0
 51
180.0
210
0
220
0
230
1.0
 0
ARC
 8
TOOL_0
 5
8
 10
1907.624
 20
1092.899
 30
0
 40
40.0
 50
180.0
 51
0
210
0
220
0
230
1.0
 0
LINE
 8
TOOL_0
 5
9
 10
1947.624
 20
1092.899
 30
0
 11
1944.088
 21
1096.435
 31
0
 0
LINE
 8
TOOL_0
 5
A
 10
1944.088
 20
1096.435
 30
0
 11
1821.623
 21
422.899
 31
0
 0
LINE
 8
TOOL_0
 5
B
 10
1821.623
 20
422.899
 30
0
 11
1841.623
 21
422.899
 31
0
 0
ARC
 8
TOOL_0
 5
C
 10
1687.623
 20
422.899
 30
0
 40
154.0
 50
0
 51
180.0
210
0
220
0
230
1.0
 0
ARC
 8
TOOL_0
 5
D
 10
1687.623
 20
422.899
 30
0
 40
154.0
 50
180.0
 51
0
210
0
220
0
230
1.0
 0
LINE
 8
TOOL_0
 5
E
 10
1841.623
 20
422.899
 30
0
 11
1838.087
 21
426.435
 31
0
 0
LINE
 8
TOOL_0
 5
F
 10
1838.087
 20
426.435
 30
0
 11
2019.372
 21
19.149
 31
0
 0
LINE
 8
TOOL_0
 5
10
 10
2019.372
 20
19.149
 30
0
 11
1991.372
 21
19.149
 31
0
 0
LINE
 8
TOOL_0
 5
11
 10
1991.372
 20
19.149
 30
0
 11
788.997
 21
19.149
 31
0
 0
LINE
 8
TOOL_0
 5
12
 10
788.997
 20
19.149
 30
0
 11
753.872
 21
77.691
 31
0
 0
LINE
 8
TOOL_0
 5
13
 10
753.872
 20
77.691
 30
0
 11
753.872
 21
755.262
 31
0
 0
ARC
 8
TOOL_0
 5
14
 10
707.622
 20
772.188
 30
0
 40
49.249893157245
 50
339.899012955763
 51
45.0
210
0
220
0
230
1.0
 0
LINE
 8
TOOL_0
 5
15
 10
742.447
 20
807.013
 30
0
 11
531.736
 21
1017.724
 31
0
 0
ARC
 8
TOOL_0
 5
16
 10
567.622
 20
1053.61
 30
0
 40
50.750467899321
 50
180.0
 51
225.0
210
0
220
0
230
1.0
 0
LINE
 8
TOOL_0
 5
17
 10
516.872
 20
1053.61
 30
0
 11
516.872
 21
1122.899
 31
0
 0
ARC
 8
TOOL_0
 5
18
 10
567.622
 20
1122.899
 30
0
 40
50.75
 50
90.0
 51
180.0
210
0
220
0
230
1.0
 0
LINE
 8
TOOL_0
 5
19
 10
567.622
 20
1173.649
 30
0
 11
616.911
 21
1173.649
 31
0
 0
ARC
 8
TOOL_0
 5
1A
 10
616.911
 20
1122.899
 30
0
 40
50.75
 50
45.0
 51
90.0
210
0
220
0
230
1.0
 0
LINE
 8
TOOL_0
 5
1B
 10
652.797
 20
1158.785
 30
0
 11
754.933
 21
1056.649
 31
0
 0
LINE
 8
TOOL_0
 5
1C
 10
754.933
 20
1056.649
 30
0
 11
1760.696
 21
1056.649
 31
0
 0
ARC
 8
TOOL_0
 5
1D
 10
1777.622
 20
1102.899
 30
0
 40
49.249893157245
 50
249.899012955763
 51
0
210
0
220
0
230
1.0
 0
LINE
 8
TOOL_0
 5
1E
 10
1826.872
 20
1102.899
 30
0
 11
1826.872
 21
1122.899
 31
0
 0
ARC
 8
TOOL_0
 5
1F
 10
1877.622
 20
1122.899
 30
0
 40
50.75
 50
90.0
 51
180.0
210
0
220
0
230
1.0
 0
LINE
 8
TOOL_0
 5
20
 10
1877.622
 20
1173.649
 30
0
 11
1937.622
 21
1173.649
 31
0
 0
ARC
 8
TOOL_0
 5
21
 10
1937.622
 20
1122.899
 30
0
 40
50.75
 50
0.846774120513
 51
90.0
210
0
220
0
230
1.0
 0
LINE
 8
TOOL_0
 5
22
 10
1988.366
 20
1123.649
 30
0
 11
1991.372
 21
1123.649
 31
0
 0
LINE
 8
TOOL_0
 5
23
 10
1991.372
 20
1123.649
 30
0
 11
1991.372
 21
19.149
 31
0
 0
LINE
 8
TOOL_0
 5
24
 10
1991.372
 20
19.149
 30
0
 11
1991.372
 21
14.149
 31
0
 0
LINE
 8
TOOL_0
 5
25
 10
1991.372
 20
14.149
 30
0
 11
3279.6
 21
422.986
 31
0
 0
LINE
 8
TOOL_0
 5
26
 10
3279.6
 20
422.986
 30
0
 11
3299.6
 21
422.986
 31
0
 0
ARC
 8
TOOL_0
 5
27
 10
3134.1
 20
422.986
 30
0
 40
165.5
 50
0
 51
180.0
210
0
220
0
230
1.0
 0
ARC
 8
TOOL_0
 5
28
 10
3134.1
 20
422.986
 30
0
 40
165.5
 50
180.0
 51
0
210
0
220
0
230
1.0
 0
LINE
 8
TOOL_0
 5
29
 10
3299.6
 20
422.986
 30
0
 11
3296.064
 21
426.522
 31
0
 0
LINE
 8
TOOL_0
 5
2A
 10
3296.064
 20
426.522
 30
0
 11
3465.849
 21
19.236
 31
0
 0
LINE
 8
TOOL_0
 5
2B
 10
3465.849
 20
19.236
 30
0
 11
3437.849
 21
19.236
 31
0
 0
LINE
 8
TOOL_0
 5
2C
 10
3437.849
 20
19.236
 30
0
 11
2235.474
 21
19.236
 31
0
 0
LINE
 8
TOOL_0
 5
2D
 10
2235.474
 20
19.236
 30
0
 11
2200.349
 21
77.778
 31
0
 0
LINE
 8
TOOL_0
 5
2E
 10
2200.349
 20
77.778
 30
0
 11
2200.349
 21
1056.736
 31
0
 0
LINE
 8
TOOL_0
 5
2F
 10
2200.349
 20
1056.736
 30
0
 11
3437.849
 21
1056.736
 31
0
 0
LINE
 8
TOOL_0
 5
30
 10
3437.849
 20
1056.736
 30
0
 11
3437.849
 21
954.213
 31
0
 0
LINE
 8
TOOL_0
 5
31
 10
3437.849
 20
954.213
 30
0
 11
3382.849
 21
875.665
 31
0
 0
LINE
 8
TOOL_0
 5
32
 10
3382.849
 20
875.665
 30
0
 11
3382.849
 21
356.736
 31
0
 0
LINE
 8
TOOL_0
 5
33
 10
3382.849
 20
356.736
 30
0
 11
3437.849
 21
356.736
 31
0
 0
LINE
 8
TOOL_0
 5
34
 10
3437.849
 20
356.736
 30
0
 11
3437.849
 21
19.236
 31
0
 0
LINE
 8
TOOL_0
 5
35
 10
3437.849
 20
19.236
 30
0
 11
3437.849
 21
14.236
 31
0
 0
LINE
 8
TOOL_0
 5
36
 10
3437.849
 20
14.236
 30
0
 11
4189.428
 21
1202.601
 31
0
 0
LINE
 8
TOOL_0
 5
37
 10
4189.428
 20
1202.601
 30
0
 11
4188.428
 21
1202.601
 31
0
 0
LINE
 8
TOOL_0
 5
38
 10
4188.428
 20
1202.601
 30
0
 11
4189.428
 21
1202.601
 31
0
 0
LINE
 8
TOOL_0
 5
39
 10
4189.428
 20
1202.601
 30
0
 11
4188.428
 21
1202.601
 31
0
 0
LINE
 8
TOOL_0
 5
3A
 10
4188.428
 20
1202.601
 30
0
 11
498.574
 21
1202.601
 31
0
 0
LINE
 8
TOOL_0
 5
3B
 10
498.574
 20
1202.601
 30
0
 11
497.574
 21
1202.601
 31
0
 0
ENDSEC
 0
EOF

