0
SECTION
2
TABLES
0
TABLE
2
LAYER
70
0
0
LAYER
2
LAYER_NAME
70
0
62
1
6
CONTINUOUS
0
ENDTAB
0
ENDSEC
 0
SECTION
 2
ENTITIES
 0
LINE
 8
TOOL_0
 5
1
 10
240.5
 20
152.801
 30
0
 11
270.5
 21
152.801
 31
0
 0
LINE
 8
TOOL_0
 5
2
 10
270.5
 20
152.801
 30
0
 11
270.5
 21
202.801
 31
0
 0
ARC
 8
TOOL_0
 5
3
 10
250.5
 20
202.801
 30
0
 40
20.0
 50
0
 51
90.0
210
0
220
0
230
1.0
 0
LINE
 8
TOOL_0
 5
4
 10
250.5
 20
222.801
 30
0
 11
120.5
 21
222.801
 31
0
 0
ARC
 8
TOOL_0
 5
5
 10
120.5
 20
202.801
 30
0
 40
20.0
 50
90.0
 51
180.0
210
0
220
0
230
1.0
 0
LINE
 8
TOOL_0
 5
6
 10
100.5
 20
202.801
 30
0
 11
100.5
 21
102.801
 31
0
 0
ARC
 8
TOOL_0
 5
7
 10
120.5
 20
102.801
 30
0
 40
20.0
 50
180.0
 51
270.0
210
0
220
0
230
1.0
 0
LINE
 8
TOOL_0
 5
8
 10
120.5
 20
82.801
 30
0
 11
250.5
 21
82.801
 31
0
 0
ARC
 8
TOOL_0
 5
9
 10
250.5
 20
102.801
 30
0
 40
20.0
 50
270.0
 51
0
210
0
220
0
230
1.0
 0
LINE
 8
TOOL_0
 5
A
 10
270.5
 20
102.801
 30
0
 11
270.5
 21
152.801
 31
0
 0
LINE
 8
TOOL_0
 5
B
 10
270.5
 20
152.801
 30
0
 11
266.964
 21
156.337
 31
0
 0
LINE
 8
TOOL_0
 5
C
 10
266.964
 20
156.337
 30
0
 11
1283.0
 21
159.801
 31
0
 0
LINE
 8
TOOL_0
 5
D
 10
1283.0
 20
159.801
 30
0
 11
1313.0
 21
159.801
 31
0
 0
LINE
 8
TOOL_0
 5
E
 10
1313.0
 20
159.801
 30
0
 11
1313.0
 21
194.801
 31
0
 0
ARC
 8
TOOL_0
 5
F
 10
1293.0
 20
194.801
 30
0
 40
20.0
 50
0
 51
90.0
210
0
220
0
230
1.0
 0
LINE
 8
TOOL_0
 5
10
 10
1293.0
 20
214.801
 30
0
 11
883.0
 21
214.801
 31
0
 0
ARC
 8
TOOL_0
 5
11
 10
883.0
 20
194.801
 30
0
 40
20.0
 50
90.0
 51
180.0
210
0
220
0
230
1.0
 0
LINE
 8
TOOL_0
 5
12
 10
863.0
 20
194.801
 30
0
 11
863.0
 21
124.801
 31
0
 0
ARC
 8
TOOL_0
 5
13
 10
883.0
 20
124.801
 30
0
 40
20.0
 50
180.0
 51
270.0
210
0
220
0
230
1.0
 0
LINE
 8
TOOL_0
 5
14
 10
883.0
 20
104.801
 30
0
 11
1293.0
 21
104.801
 31
0
 0
ARC
 8
TOOL_0
 5
15
 10
1293.0
 20
124.801
 30
0
 40
20.0
 50
270.0
 51
0
210
0
220
0
230
1.0
 0
LINE
 8
TOOL_0
 5
16
 10
1313.0
 20
124.801
 30
0
 11
1313.0
 21
159.801
 31
0
 0
LINE
 8
TOOL_0
 5
17
 10
1313.0
 20
159.801
 30
0
 11
1309.464
 21
163.337
 31
0
 0
LINE
 8
TOOL_0
 5
18
 10
1309.464
 20
163.337
 30
0
 11
2045.5
 21
152.801
 31
0
 0
LINE
 8
TOOL_0
 5
19
 10
2045.5
 20
152.801
 30
0
 11
2075.5
 21
152.801
 31
0
 0
LINE
 8
TOOL_0
 5
1A
 10
2075.5
 20
152.801
 30
0
 11
2075.5
 21
202.801
 31
0
 0
ARC
 8
TOOL_0
 5
1B
 10
2055.5
 20
202.801
 30
0
 40
20.0
 50
0
 51
90.0
210
0
220
0
230
1.0
 0
LINE
 8
TOOL_0
 5
1C
 10
2055.5
 20
222.801
 30
0
 11
1925.5
 21
222.801
 31
0
 0
ARC
 8
TOOL_0
 5
1D
 10
1925.5
 20
202.801
 30
0
 40
20.0
 50
90.0
 51
180.0
210
0
220
0
230
1.0
 0
LINE
 8
TOOL_0
 5
1E
 10
1905.5
 20
202.801
 30
0
 11
1905.5
 21
102.801
 31
0
 0
ARC
 8
TOOL_0
 5
1F
 10
1925.5
 20
102.801
 30
0
 40
20.0
 50
180.0
 51
270.0
210
0
220
0
230
1.0
 0
LINE
 8
TOOL_0
 5
20
 10
1925.5
 20
82.801
 30
0
 11
2055.5
 21
82.801
 31
0
 0
ARC
 8
TOOL_0
 5
21
 10
2055.5
 20
102.801
 30
0
 40
20.0
 50
270.0
 51
0
210
0
220
0
230
1.0
 0
LINE
 8
TOOL_0
 5
22
 10
2075.5
 20
102.801
 30
0
 11
2075.5
 21
152.801
 31
0
 0
LINE
 8
TOOL_0
 5
23
 10
2075.5
 20
152.801
 30
0
 11
2071.964
 21
156.337
 31
0
 0
LINE
 8
TOOL_0
 5
24
 10
2071.964
 20
156.337
 30
0
 11
2166.146
 21
45.104
 31
0
 0
LINE
 8
TOOL_0
 5
25
 10
2166.146
 20
45.104
 30
0
 11
2165.849
 21
18.91
 31
0
 0
LINE
 8
TOOL_0
 5
26
 10
2165.849
 20
18.91
 30
0
 11
2157.0
 21
19.001
 31
0
 0
LINE
 8
TOOL_0
 5
27
 10
2157.0
 20
19.001
 30
0
 11
19.0
 21
19.001
 31
0
 0
LINE
 8
TOOL_0
 5
28
 10
19.0
 20
19.001
 30
0
 11
19.0
 21
370.601
 31
0
 0
LINE
 8
TOOL_0
 5
29
 10
19.0
 20
370.601
 30
0
 11
320.831
 21
370.601
 31
0
 0
LINE
 8
TOOL_0
 5
2A
 10
320.831
 20
370.601
 30
0
 11
340.831
 21
350.601
 31
0
 0
LINE
 8
TOOL_0
 5
2B
 10
340.831
 20
350.601
 30
0
 11
720.831
 21
350.601
 31
0
 0
LINE
 8
TOOL_0
 5
2C
 10
720.831
 20
350.601
 30
0
 11
760.831
 21
310.601
 31
0
 0
LINE
 8
TOOL_0
 5
2D
 10
760.831
 20
310.601
 30
0
 11
1415.168
 21
310.601
 31
0
 0
LINE
 8
TOOL_0
 5
2E
 10
1415.168
 20
310.601
 30
0
 11
1455.168
 21
350.601
 31
0
 0
LINE
 8
TOOL_0
 5
2F
 10
1455.168
 20
350.601
 30
0
 11
1835.168
 21
350.601
 31
0
 0
LINE
 8
TOOL_0
 5
30
 10
1835.168
 20
350.601
 30
0
 11
1855.168
 21
370.601
 31
0
 0
LINE
 8
TOOL_0
 5
31
 10
1855.168
 20
370.601
 30
0
 11
2156.999
 21
370.601
 31
0
 0
LINE
 8
TOOL_0
 5
32
 10
2156.999
 20
370.601
 30
0
 11
2156.999
 21
19.001
 31
0
 0
LINE
 8
TOOL_0
 5
33
 10
2156.999
 20
19.001
 30
0
 11
2156.649
 21
14.445
 31
0
 0
LINE
 8
TOOL_0
 5
34
 10
2156.649
 20
14.445
 30
0
 11
2690.226
 21
18.955
 31
0
 0
LINE
 8
TOOL_0
 5
35
 10
2690.226
 20
18.955
 30
0
 11
2659.295
 21
19.001
 31
0
 0
LINE
 8
TOOL_0
 5
36
 10
2659.295
 20
19.001
 30
0
 11
2195.295
 21
19.001
 31
0
 0
ARC
 8
TOOL_0
 5
37
 10
2195.295
 20
39.001
 30
0
 40
20.0
 50
180.0
 51
270.0
210
0
220
0
230
1.0
 0
LINE
 8
TOOL_0
 5
38
 10
2175.295
 20
39.001
 30
0
 11
2175.295
 21
315.801
 31
0
 0
ARC
 8
TOOL_0
 5
39
 10
2195.295
 20
315.801
 30
0
 40
20.0
 50
90.0
 51
180.0
210
0
220
0
230
1.0
 0
LINE
 8
TOOL_0
 5
3A
 10
2195.295
 20
335.801
 30
0
 11
2539.195
 21
335.801
 31
0
 0
ARC
 8
TOOL_0
 5
3B
 10
2539.195
 20
315.801
 30
0
 40
20.0
 50
0
 51
90.0
210
0
220
0
230
1.0
 0
LINE
 8
TOOL_0
 5
3C
 10
2559.195
 20
315.801
 30
0
 11
2559.195
 21
190.401
 31
0
 0
ARC
 8
TOOL_0
 5
3D
 10
2589.195
 20
190.401
 30
0
 40
30.0
 50
180.0
 51
270.0
210
0
220
0
230
1.0
 0
LINE
 8
TOOL_0
 5
3E
 10
2589.195
 20
160.401
 30
0
 11
2659.295
 21
160.401
 31
0
 0
ARC
 8
TOOL_0
 5
3F
 10
2659.295
 20
110.401
 30
0
 40
50.0
 50
0
 51
90.0
210
0
220
0
230
1.0
 0
LINE
 8
TOOL_0
 5
40
 10
2709.295
 20
110.401
 30
0
 11
2709.295
 21
69.001
 31
0
 0
ARC
 8
TOOL_0
 5
41
 10
2659.295
 20
69.001
 30
0
 40
50.0
 50
270.0
 51
0
210
0
220
0
230
1.0
 0
LINE
 8
TOOL_0
 5
42
 10
2659.295
 20
19.001
 30
0
 11
2654.663
 21
16.668
 31
0
 0
LINE
 8
TOOL_0
 5
43
 10
2654.663
 20
16.668
 30
0
 11
3119.451
 21
45.139
 31
0
 0
LINE
 8
TOOL_0
 5
44
 10
3119.451
 20
45.139
 30
0
 11
3119.451
 21
22.315
 31
0
 0
LINE
 8
TOOL_0
 5
45
 10
3119.451
 20
22.315
 30
0
 11
3091.379
 21
23.011
 31
0
 0
LINE
 8
TOOL_0
 5
46
 10
3091.379
 20
23.011
 30
0
 11
2747.479
 21
23.011
 31
0
 0
ARC
 8
TOOL_0
 5
47
 10
2747.479
 20
43.011
 30
0
 40
20.0
 50
180.0
 51
270.0
210
0
220
0
230
1.0
 0
LINE
 8
TOOL_0
 5
48
 10
2727.479
 20
43.011
 30
0
 11
2727.479
 21
168.411
 31
0
 0
ARC
 8
TOOL_0
 5
49
 10
2697.479
 20
168.411
 30
0
 40
30.0
 50
0
 51
90.0
210
0
220
0
230
1.0
 0
LINE
 8
TOOL_0
 5
4A
 10
2697.479
 20
198.411
 30
0
 11
2627.379
 21
198.411
 31
0
 0
ARC
 8
TOOL_0
 5
4B
 10
2627.379
 20
248.411
 30
0
 40
50.0
 50
180.0
 51
270.0
210
0
220
0
230
1.0
 0
LINE
 8
TOOL_0
 5
4C
 10
2577.379
 20
248.411
 30
0
 11
2577.379
 21
289.811
 31
0
 0
ARC
 8
TOOL_0
 5
4D
 10
2627.379
 20
289.811
 30
0
 40
50.0
 50
90.0
 51
180.0
210
0
220
0
230
1.0
 0
LINE
 8
TOOL_0
 5
4E
 10
2627.379
 20
339.811
 30
0
 11
3091.379
 21
339.811
 31
0
 0
ARC
 8
TOOL_0
 5
4F
 10
3091.379
 20
319.811
 30
0
 40
20.0
 50
0
 51
90.0
210
0
220
0
230
1.0
 0
LINE
 8
TOOL_0
 5
50
 10
3111.379
 20
319.811
 30
0
 11
3111.379
 21
43.011
 31
0
 0
ARC
 8
TOOL_0
 5
51
 10
3091.379
 20
43.011
 30
0
 40
20.0
 50
270.0
 51
0
210
0
220
0
230
1.0
 0
LINE
 8
TOOL_0
 5
52
 10
3091.379
 20
23.011
 30
0
 11
3087.218
 21
20.142
 31
0
 0
LINE
 8
TOOL_0
 5
53
 10
3087.218
 20
20.142
 30
0
 11
3517.27
 21
47.17
 31
0
 0
LINE
 8
TOOL_0
 5
54
 10
3517.27
 20
47.17
 30
0
 11
3517.515
 21
19.171
 31
0
 0
LINE
 8
TOOL_0
 5
55
 10
3517.515
 20
19.171
 30
0
 11
3483.607
 21
20.002
 31
0
 0
LINE
 8
TOOL_0
 5
56
 10
3483.607
 20
20.002
 30
0
 11
3151.607
 21
20.002
 31
0
 0
ARC
 8
TOOL_0
 5
57
 10
3151.607
 20
40.902
 30
0
 40
20.9
 50
180.0
 51
270.0
210
0
220
0
230
1.0
 0
LINE
 8
TOOL_0
 5
58
 10
3130.707
 20
40.902
 30
0
 11
3130.707
 21
331.802
 31
0
 0
LINE
 8
TOOL_0
 5
59
 10
3130.707
 20
331.802
 30
0
 11
3504.507
 21
331.802
 31
0
 0
LINE
 8
TOOL_0
 5
5A
 10
3504.507
 20
331.802
 30
0
 11
3504.507
 21
40.902
 31
0
 0
ARC
 8
TOOL_0
 5
5B
 10
3483.607
 20
40.902
 30
0
 40
20.9
 50
270.0
 51
0
210
0
220
0
230
1.0
 0
LINE
 8
TOOL_0
 5
5C
 10
3483.607
 20
20.002
 30
0
 11
3479.565
 21
16.96
 31
0
 0
LINE
 8
TOOL_0
 5
5D
 10
3479.565
 20
16.96
 30
0
 11
3479.565
 21
0.001
 31
0
 0
LINE
 8
TOOL_0
 5
5E
 10
3479.565
 20
0.001
 30
0
 11
406.562
 21
1897.018
 31
0
 0
LINE
 8
TOOL_0
 5
5F
 10
406.562
 20
1897.018
 30
0
 11
406.807
 21
1869.019
 31
0
 0
LINE
 8
TOOL_0
 5
60
 10
406.807
 20
1869.019
 30
0
 11
372.899
 21
1869.85
 31
0
 0
LINE
 8
TOOL_0
 5
61
 10
372.899
 20
1869.85
 30
0
 11
40.899
 21
1869.85
 31
0
 0
ARC
 8
TOOL_0
 5
62
 10
40.899
 20
1890.75
 30
0
 40
20.9
 50
180.0
 51
270.0
210
0
220
0
230
1.0
 0
LINE
 8
TOOL_0
 5
63
 10
19.999
 20
1890.75
 30
0
 11
19.999
 21
2181.65
 31
0
 0
LINE
 8
TOOL_0
 5
64
 10
19.999
 20
2181.65
 30
0
 11
393.799
 21
2181.65
 31
0
 0
LINE
 8
TOOL_0
 5
65
 10
393.799
 20
2181.65
 30
0
 11
393.799
 21
1890.75
 31
0
 0
ARC
 8
TOOL_0
 5
66
 10
372.899
 20
1890.75
 30
0
 40
20.9
 50
270.0
 51
0
210
0
220
0
230
1.0
 0
LINE
 8
TOOL_0
 5
67
 10
372.899
 20
1869.85
 30
0
 11
368.857
 21
1866.808
 31
0
 0
LINE
 8
TOOL_0
 5
68
 10
368.857
 20
1866.808
 30
0
 11
800.604
 21
1876.97
 31
0
 0
LINE
 8
TOOL_0
 5
69
 10
800.604
 20
1876.97
 30
0
 11
800.849
 21
1848.971
 31
0
 0
LINE
 8
TOOL_0
 5
6A
 10
800.849
 20
1848.971
 30
0
 11
766.941
 21
1849.802
 31
0
 0
LINE
 8
TOOL_0
 5
6B
 10
766.941
 20
1849.802
 30
0
 11
434.941
 21
1849.802
 31
0
 0
ARC
 8
TOOL_0
 5
6C
 10
434.941
 20
1870.702
 30
0
 40
20.9
 50
180.0
 51
270.0
210
0
220
0
230
1.0
 0
LINE
 8
TOOL_0
 5
6D
 10
414.041
 20
1870.702
 30
0
 11
414.041
 21
2161.602
 31
0
 0
LINE
 8
TOOL_0
 5
6E
 10
414.041
 20
2161.602
 30
0
 11
787.841
 21
2161.602
 31
0
 0
LINE
 8
TOOL_0
 5
6F
 10
787.841
 20
2161.602
 30
0
 11
787.841
 21
1870.702
 31
0
 0
ARC
 8
TOOL_0
 5
70
 10
766.941
 20
1870.702
 30
0
 40
20.9
 50
270.0
 51
0
210
0
220
0
230
1.0
 0
LINE
 8
TOOL_0
 5
71
 10
766.941
 20
1849.802
 30
0
 11
762.899
 21
1846.76
 31
0
 0
LINE
 8
TOOL_0
 5
72
 10
762.899
 20
1846.76
 30
0
 11
762.899
 21
-0.001
 31
0
 0
LINE
 8
TOOL_0
 5
73
 10
762.899
 20
-0.001
 30
0
 11
1195.094
 21
1844.493
 31
0
 0
LINE
 8
TOOL_0
 5
74
 10
1195.094
 20
1844.493
 30
0
 11
1195.339
 21
1816.494
 31
0
 0
LINE
 8
TOOL_0
 5
75
 10
1195.339
 20
1816.494
 30
0
 11
1161.431
 21
1817.325
 31
0
 0
LINE
 8
TOOL_0
 5
76
 10
1161.431
 20
1817.325
 30
0
 11
829.431
 21
1817.325
 31
0
 0
ARC
 8
TOOL_0
 5
77
 10
829.431
 20
1838.225
 30
0
 40
20.9
 50
180.0
 51
270.0
210
0
220
0
230
1.0
 0
LINE
 8
TOOL_0
 5
78
 10
808.531
 20
1838.225
 30
0
 11
808.531
 21
2129.125
 31
0
 0
LINE
 8
TOOL_0
 5
79
 10
808.531
 20
2129.125
 30
0
 11
1182.331
 21
2129.125
 31
0
 0
LINE
 8
TOOL_0
 5
7A
 10
1182.331
 20
2129.125
 30
0
 11
1182.331
 21
1838.225
 31
0
 0
ARC
 8
TOOL_0
 5
7B
 10
1161.431
 20
1838.225
 30
0
 40
20.9
 50
270.0
 51
0
210
0
220
0
230
1.0
 0
LINE
 8
TOOL_0
 5
7C
 10
1161.431
 20
1817.325
 30
0
 11
1157.389
 21
1814.283
 31
0
 0
ENDSEC
 0
EOF

