0
SECTION
2
TABLES
0
TABLE
2
LAYER
70
0
0
LAYER
2
LAYER_NAME
70
0
62
1
6
CONTINUOUS
0
ENDTAB
0
ENDSEC
 0
SECTION
 2
ENTITIES
 0
LINE
 8
TOOL_0
 5
1
 10
1824.067
 20
716.934
 30
0
 11
1824.067
 21
683.653
 31
0
 0
LINE
 8
TOOL_0
 5
2
 10
1824.067
 20
683.653
 30
0
 11
1824.067
 21
412.153
 31
0
 0
ARC
 8
TOOL_0
 5
3
 10
1802.567
 20
412.153
 30
0
 40
21.5
 50
270.0
 51
0
210
0
220
0
230
1.0
 0
LINE
 8
TOOL_0
 5
4
 10
1802.567
 20
390.653
 30
0
 11
1088.567
 21
390.653
 31
0
 0
ARC
 8
TOOL_0
 5
5
 10
1088.567
 20
412.153
 30
0
 40
21.5
 50
180.0
 51
270.0
210
0
220
0
230
1.0
 0
LINE
 8
TOOL_0
 5
6
 10
1067.067
 20
412.153
 30
0
 11
1067.067
 21
683.653
 31
0
 0
LINE
 8
TOOL_0
 5
7
 10
1067.067
 20
683.653
 30
0
 11
1824.067
 21
683.653
 31
0
 0
LINE
 8
TOOL_0
 5
8
 10
1824.067
 20
683.653
 30
0
 11
1830.837
 21
680.548
 31
0
 0
LINE
 8
TOOL_0
 5
9
 10
1830.837
 20
680.548
 30
0
 11
629.647
 21
360.842
 31
0
 0
LINE
 8
TOOL_0
 5
A
 10
629.647
 20
360.842
 30
0
 11
659.647
 21
360.842
 31
0
 0
LINE
 8
TOOL_0
 5
B
 10
659.647
 20
360.842
 30
0
 11
659.647
 21
440.842
 31
0
 0
ARC
 8
TOOL_0
 5
C
 10
639.647
 20
440.842
 30
0
 40
20.0
 50
0
 51
90.0
210
0
220
0
230
1.0
 0
LINE
 8
TOOL_0
 5
D
 10
639.647
 20
460.842
 30
0
 11
379.647
 21
460.842
 31
0
 0
ARC
 8
TOOL_0
 5
E
 10
379.647
 20
440.842
 30
0
 40
20.0
 50
90.0
 51
180.0
210
0
220
0
230
1.0
 0
LINE
 8
TOOL_0
 5
F
 10
359.647
 20
440.842
 30
0
 11
359.647
 21
280.842
 31
0
 0
ARC
 8
TOOL_0
 5
10
 10
379.647
 20
280.842
 30
0
 40
20.0
 50
180.0
 51
270.0
210
0
220
0
230
1.0
 0
LINE
 8
TOOL_0
 5
11
 10
379.647
 20
260.842
 30
0
 11
639.647
 21
260.842
 31
0
 0
ARC
 8
TOOL_0
 5
12
 10
639.647
 20
280.842
 30
0
 40
20.0
 50
270.0
 51
0
210
0
220
0
230
1.0
 0
LINE
 8
TOOL_0
 5
13
 10
659.647
 20
280.842
 30
0
 11
659.647
 21
360.842
 31
0
 0
LINE
 8
TOOL_0
 5
14
 10
659.647
 20
360.842
 30
0
 11
656.111
 21
364.378
 31
0
 0
LINE
 8
TOOL_0
 5
15
 10
656.111
 20
364.378
 30
0
 11
1733.646
 21
175.842
 31
0
 0
LINE
 8
TOOL_0
 5
16
 10
1733.646
 20
175.842
 30
0
 11
1763.646
 21
175.842
 31
0
 0
LINE
 8
TOOL_0
 5
17
 10
1763.646
 20
175.842
 30
0
 11
1763.646
 21
230.842
 31
0
 0
ARC
 8
TOOL_0
 5
18
 10
1743.646
 20
230.842
 30
0
 40
20.0
 50
0
 51
90.0
210
0
220
0
230
1.0
 0
LINE
 8
TOOL_0
 5
19
 10
1743.646
 20
250.842
 30
0
 11
1133.646
 21
250.842
 31
0
 0
ARC
 8
TOOL_0
 5
1A
 10
1133.646
 20
230.842
 30
0
 40
20.0
 50
90.0
 51
180.0
210
0
220
0
230
1.0
 0
LINE
 8
TOOL_0
 5
1B
 10
1113.646
 20
230.842
 30
0
 11
1113.646
 21
120.842
 31
0
 0
ARC
 8
TOOL_0
 5
1C
 10
1133.646
 20
120.842
 30
0
 40
20.0
 50
180.0
 51
270.0
210
0
220
0
230
1.0
 0
LINE
 8
TOOL_0
 5
1D
 10
1133.646
 20
100.842
 30
0
 11
1743.646
 21
100.842
 31
0
 0
ARC
 8
TOOL_0
 5
1E
 10
1743.646
 20
120.842
 30
0
 40
20.0
 50
270.0
 51
0
210
0
220
0
230
1.0
 0
LINE
 8
TOOL_0
 5
1F
 10
1763.646
 20
120.842
 30
0
 11
1763.646
 21
175.842
 31
0
 0
LINE
 8
TOOL_0
 5
20
 10
1763.646
 20
175.842
 30
0
 11
1760.11
 21
179.378
 31
0
 0
LINE
 8
TOOL_0
 5
21
 10
1760.11
 20
179.378
 30
0
 11
2487.645
 21
360.842
 31
0
 0
LINE
 8
TOOL_0
 5
22
 10
2487.645
 20
360.842
 30
0
 11
2517.645
 21
360.842
 31
0
 0
LINE
 8
TOOL_0
 5
23
 10
2517.645
 20
360.842
 30
0
 11
2517.645
 21
440.842
 31
0
 0
ARC
 8
TOOL_0
 5
24
 10
2497.645
 20
440.842
 30
0
 40
20.0
 50
0
 51
90.0
210
0
220
0
230
1.0
 0
LINE
 8
TOOL_0
 5
25
 10
2497.645
 20
460.842
 30
0
 11
2237.645
 21
460.842
 31
0
 0
ARC
 8
TOOL_0
 5
26
 10
2237.645
 20
440.842
 30
0
 40
20.0
 50
90.0
 51
180.0
210
0
220
0
230
1.0
 0
LINE
 8
TOOL_0
 5
27
 10
2217.645
 20
440.842
 30
0
 11
2217.645
 21
280.842
 31
0
 0
ARC
 8
TOOL_0
 5
28
 10
2237.645
 20
280.842
 30
0
 40
20.0
 50
180.0
 51
270.0
210
0
220
0
230
1.0
 0
LINE
 8
TOOL_0
 5
29
 10
2237.645
 20
260.842
 30
0
 11
2497.645
 21
260.842
 31
0
 0
ARC
 8
TOOL_0
 5
2A
 10
2497.645
 20
280.842
 30
0
 40
20.0
 50
270.0
 51
0
210
0
220
0
230
1.0
 0
LINE
 8
TOOL_0
 5
2B
 10
2517.645
 20
280.842
 30
0
 11
2517.645
 21
360.842
 31
0
 0
LINE
 8
TOOL_0
 5
2C
 10
2517.645
 20
360.842
 30
0
 11
2514.109
 21
364.378
 31
0
 0
LINE
 8
TOOL_0
 5
2D
 10
2514.109
 20
364.378
 30
0
 11
2701.717
 21
802.683
 31
0
 0
LINE
 8
TOOL_0
 5
2E
 10
2701.717
 20
802.683
 30
0
 11
2701.717
 21
764.887
 31
0
 0
LINE
 8
TOOL_0
 5
2F
 10
2701.717
 20
764.887
 30
0
 11
2699.144
 21
763.342
 31
0
 0
LINE
 8
TOOL_0
 5
30
 10
2699.144
 20
763.342
 30
0
 11
2699.144
 21
170.842
 31
0
 0
ARC
 8
TOOL_0
 5
31
 10
2677.644
 20
170.842
 30
0
 40
21.5
 50
270.0
 51
0
210
0
220
0
230
1.0
 0
LINE
 8
TOOL_0
 5
32
 10
2677.644
 20
149.342
 30
0
 11
2567.644
 21
149.342
 31
0
 0
ARC
 8
TOOL_0
 5
33
 10
2567.644
 20
130.842
 30
0
 40
18.5
 50
90.0
 51
180.0
210
0
220
0
230
1.0
 0
LINE
 8
TOOL_0
 5
34
 10
2549.144
 20
130.842
 30
0
 11
2549.144
 21
40.842
 31
0
 0
ARC
 8
TOOL_0
 5
35
 10
2527.644
 20
40.842
 30
0
 40
21.5
 50
270.0
 51
0
210
0
220
0
230
1.0
 0
LINE
 8
TOOL_0
 5
36
 10
2527.644
 20
19.342
 30
0
 11
349.644
 21
19.342
 31
0
 0
ARC
 8
TOOL_0
 5
37
 10
349.644
 20
40.842
 30
0
 40
21.5
 50
180.0
 51
270.0
210
0
220
0
230
1.0
 0
LINE
 8
TOOL_0
 5
38
 10
328.144
 20
40.842
 30
0
 11
328.144
 21
130.842
 31
0
 0
ARC
 8
TOOL_0
 5
39
 10
309.644
 20
130.842
 30
0
 40
18.5
 50
0
 51
90.0
210
0
220
0
230
1.0
 0
LINE
 8
TOOL_0
 5
3A
 10
309.644
 20
149.342
 30
0
 11
199.644
 21
149.342
 31
0
 0
ARC
 8
TOOL_0
 5
3B
 10
199.644
 20
170.842
 30
0
 40
21.5
 50
180.0
 51
270.0
210
0
220
0
230
1.0
 0
LINE
 8
TOOL_0
 5
3C
 10
178.144
 20
170.842
 30
0
 11
178.144
 21
764.842
 31
0
 0
ARC
 8
TOOL_0
 5
3D
 10
199.644
 20
764.842
 30
0
 40
21.5
 50
90.0
 51
180.0
210
0
220
0
230
1.0
 0
LINE
 8
TOOL_0
 5
3E
 10
199.644
 20
786.342
 30
0
 11
618.644
 21
786.342
 31
0
 0
ARC
 8
TOOL_0
 5
3F
 10
618.644
 20
764.842
 30
0
 40
21.5
 50
0
 51
90.0
210
0
220
0
230
1.0
 0
LINE
 8
TOOL_0
 5
40
 10
640.144
 20
764.842
 30
0
 11
640.144
 21
694.842
 31
0
 0
ARC
 8
TOOL_0
 5
41
 10
658.644
 20
694.842
 30
0
 40
18.5
 50
180.0
 51
270.0
210
0
220
0
230
1.0
 0
LINE
 8
TOOL_0
 5
42
 10
658.644
 20
676.342
 30
0
 11
918.644
 21
676.342
 31
0
 0
ARC
 8
TOOL_0
 5
43
 10
918.644
 20
654.842
 30
0
 40
21.5
 50
0
 51
90.0
210
0
220
0
230
1.0
 0
LINE
 8
TOOL_0
 5
44
 10
940.144
 20
654.842
 30
0
 11
940.144
 21
360.842
 31
0
 0
ARC
 8
TOOL_0
 5
45
 10
958.644
 20
360.842
 30
0
 40
18.5
 50
180.0
 51
270.0
210
0
220
0
230
1.0
 0
LINE
 8
TOOL_0
 5
46
 10
958.644
 20
342.342
 30
0
 11
1918.644
 21
342.342
 31
0
 0
ARC
 8
TOOL_0
 5
47
 10
1918.644
 20
360.842
 30
0
 40
18.5
 50
270.0
 51
0
210
0
220
0
230
1.0
 0
LINE
 8
TOOL_0
 5
48
 10
1937.144
 20
360.842
 30
0
 11
1937.144
 21
654.842
 31
0
 0
ARC
 8
TOOL_0
 5
49
 10
1958.644
 20
654.842
 30
0
 40
21.5
 50
90.0
 51
180.0
210
0
220
0
230
1.0
 0
LINE
 8
TOOL_0
 5
4A
 10
1958.644
 20
676.342
 30
0
 11
2218.644
 21
676.342
 31
0
 0
ARC
 8
TOOL_0
 5
4B
 10
2218.644
 20
694.842
 30
0
 40
18.5
 50
270.0
 51
0
210
0
220
0
230
1.0
 0
LINE
 8
TOOL_0
 5
4C
 10
2237.144
 20
694.842
 30
0
 11
2237.144
 21
764.842
 31
0
 0
ARC
 8
TOOL_0
 5
4D
 10
2258.644
 20
764.842
 30
0
 40
21.5
 50
90.0
 51
180.0
210
0
220
0
230
1.0
 0
LINE
 8
TOOL_0
 5
4E
 10
2258.644
 20
786.342
 30
0
 11
2677.644
 21
786.342
 31
0
 0
ARC
 8
TOOL_0
 5
4F
 10
2677.644
 20
764.842
 30
0
 40
21.5
 50
4.000557561874
 51
90.0
210
0
220
0
230
1.0
 0
LINE
 8
TOOL_0
 5
50
 10
2699.092
 20
766.342
 30
0
 11
2701.718
 21
764.888
 31
0
 0
LINE
 8
TOOL_0
 5
51
 10
2701.718
 20
764.888
 30
0
 11
2708.1
 21
760.416
 31
0
 0
LINE
 8
TOOL_0
 5
52
 10
2708.1
 20
760.416
 30
0
 11
2937.255
 21
142.914
 31
0
 0
LINE
 8
TOOL_0
 5
53
 10
2937.255
 20
142.914
 30
0
 11
2967.255
 21
142.914
 31
0
 0
LINE
 8
TOOL_0
 5
54
 10
2967.255
 20
142.914
 30
0
 11
2967.255
 21
192.914
 31
0
 0
ARC
 8
TOOL_0
 5
55
 10
2947.255
 20
192.914
 30
0
 40
20.0
 50
0
 51
90.0
210
0
220
0
230
1.0
 0
LINE
 8
TOOL_0
 5
56
 10
2947.255
 20
212.914
 30
0
 11
2827.255
 21
212.914
 31
0
 0
ARC
 8
TOOL_0
 5
57
 10
2827.255
 20
192.914
 30
0
 40
20.0
 50
90.0
 51
180.0
210
0
220
0
230
1.0
 0
LINE
 8
TOOL_0
 5
58
 10
2807.255
 20
192.914
 30
0
 11
2807.255
 21
92.914
 31
0
 0
ARC
 8
TOOL_0
 5
59
 10
2827.255
 20
92.914
 30
0
 40
20.0
 50
180.0
 51
270.0
210
0
220
0
230
1.0
 0
LINE
 8
TOOL_0
 5
5A
 10
2827.255
 20
72.914
 30
0
 11
2947.255
 21
72.914
 31
0
 0
ARC
 8
TOOL_0
 5
5B
 10
2947.255
 20
92.914
 30
0
 40
20.0
 50
270.0
 51
0
210
0
220
0
230
1.0
 0
LINE
 8
TOOL_0
 5
5C
 10
2967.255
 20
92.914
 30
0
 11
2967.255
 21
142.914
 31
0
 0
LINE
 8
TOOL_0
 5
5D
 10
2967.255
 20
142.914
 30
0
 11
2963.719
 21
146.45
 31
0
 0
LINE
 8
TOOL_0
 5
5E
 10
2963.719
 20
146.45
 30
0
 11
3868.255
 21
162.914
 31
0
 0
LINE
 8
TOOL_0
 5
5F
 10
3868.255
 20
162.914
 30
0
 11
3898.255
 21
162.914
 31
0
 0
LINE
 8
TOOL_0
 5
60
 10
3898.255
 20
162.914
 30
0
 11
3898.255
 21
197.914
 31
0
 0
ARC
 8
TOOL_0
 5
61
 10
3878.255
 20
197.914
 30
0
 40
20.0
 50
0
 51
90.0
210
0
220
0
230
1.0
 0
LINE
 8
TOOL_0
 5
62
 10
3878.255
 20
217.914
 30
0
 11
3468.255
 21
217.914
 31
0
 0
ARC
 8
TOOL_0
 5
63
 10
3468.255
 20
197.914
 30
0
 40
20.0
 50
90.0
 51
180.0
210
0
220
0
230
1.0
 0
LINE
 8
TOOL_0
 5
64
 10
3448.255
 20
197.914
 30
0
 11
3448.255
 21
127.914
 31
0
 0
ARC
 8
TOOL_0
 5
65
 10
3468.255
 20
127.914
 30
0
 40
20.0
 50
180.0
 51
270.0
210
0
220
0
230
1.0
 0
LINE
 8
TOOL_0
 5
66
 10
3468.255
 20
107.914
 30
0
 11
3878.255
 21
107.914
 31
0
 0
ARC
 8
TOOL_0
 5
67
 10
3878.255
 20
127.914
 30
0
 40
20.0
 50
270.0
 51
0
210
0
220
0
230
1.0
 0
LINE
 8
TOOL_0
 5
68
 10
3898.255
 20
127.914
 30
0
 11
3898.255
 21
162.914
 31
0
 0
LINE
 8
TOOL_0
 5
69
 10
3898.255
 20
162.914
 30
0
 11
3894.719
 21
166.45
 31
0
 0
LINE
 8
TOOL_0
 5
6A
 10
3894.719
 20
166.45
 30
0
 11
4509.255
 21
142.914
 31
0
 0
LINE
 8
TOOL_0
 5
6B
 10
4509.255
 20
142.914
 30
0
 11
4539.255
 21
142.914
 31
0
 0
LINE
 8
TOOL_0
 5
6C
 10
4539.255
 20
142.914
 30
0
 11
4539.255
 21
192.914
 31
0
 0
ARC
 8
TOOL_0
 5
6D
 10
4519.255
 20
192.914
 30
0
 40
20.0
 50
0
 51
90.0
210
0
220
0
230
1.0
 0
LINE
 8
TOOL_0
 5
6E
 10
4519.255
 20
212.914
 30
0
 11
4399.255
 21
212.914
 31
0
 0
ARC
 8
TOOL_0
 5
6F
 10
4399.255
 20
192.914
 30
0
 40
20.0
 50
90.0
 51
180.0
210
0
220
0
230
1.0
 0
LINE
 8
TOOL_0
 5
70
 10
4379.255
 20
192.914
 30
0
 11
4379.255
 21
92.914
 31
0
 0
ARC
 8
TOOL_0
 5
71
 10
4399.255
 20
92.914
 30
0
 40
20.0
 50
180.0
 51
270.0
210
0
220
0
230
1.0
 0
LINE
 8
TOOL_0
 5
72
 10
4399.255
 20
72.914
 30
0
 11
4519.255
 21
72.914
 31
0
 0
ARC
 8
TOOL_0
 5
73
 10
4519.255
 20
92.914
 30
0
 40
20.0
 50
270.0
 51
0
210
0
220
0
230
1.0
 0
LINE
 8
TOOL_0
 5
74
 10
4539.255
 20
92.914
 30
0
 11
4539.255
 21
142.914
 31
0
 0
LINE
 8
TOOL_0
 5
75
 10
4539.255
 20
142.914
 30
0
 11
4535.719
 21
146.45
 31
0
 0
LINE
 8
TOOL_0
 5
76
 10
4535.719
 20
146.45
 30
0
 11
4635.503
 21
399.163
 31
0
 0
LINE
 8
TOOL_0
 5
77
 10
4635.503
 20
399.163
 30
0
 11
4610.755
 21
374.414
 31
0
 0
LINE
 8
TOOL_0
 5
78
 10
4610.755
 20
374.414
 30
0
 11
4610.755
 21
21.414
 31
0
 0
LINE
 8
TOOL_0
 5
79
 10
4610.755
 20
21.414
 30
0
 11
2735.755
 21
21.414
 31
0
 0
LINE
 8
TOOL_0
 5
7A
 10
2735.755
 20
21.414
 30
0
 11
2735.755
 21
374.414
 31
0
 0
LINE
 8
TOOL_0
 5
7B
 10
2735.755
 20
374.414
 30
0
 11
2967.657
 21
374.414
 31
0
 0
LINE
 8
TOOL_0
 5
7C
 10
2967.657
 20
374.414
 30
0
 11
3002.298
 21
354.414
 31
0
 0
LINE
 8
TOOL_0
 5
7D
 10
3002.298
 20
354.414
 30
0
 11
3308.876
 21
354.414
 31
0
 0
LINE
 8
TOOL_0
 5
7E
 10
3308.876
 20
354.414
 30
0
 11
3348.876
 21
314.414
 31
0
 0
LINE
 8
TOOL_0
 5
7F
 10
3348.876
 20
314.414
 30
0
 11
3997.633
 21
314.414
 31
0
 0
LINE
 8
TOOL_0
 5
80
 10
3997.633
 20
314.414
 30
0
 11
4037.633
 21
354.414
 31
0
 0
LINE
 8
TOOL_0
 5
81
 10
4037.633
 20
354.414
 30
0
 11
4344.211
 21
354.414
 31
0
 0
LINE
 8
TOOL_0
 5
82
 10
4344.211
 20
354.414
 30
0
 11
4378.852
 21
374.414
 31
0
 0
LINE
 8
TOOL_0
 5
83
 10
4378.852
 20
374.414
 30
0
 11
4610.754
 21
374.414
 31
0
 0
LINE
 8
TOOL_0
 5
84
 10
4610.754
 20
374.414
 30
0
 11
4614.29
 21
370.878
 31
0
 0
LINE
 8
TOOL_0
 5
85
 10
4614.29
 20
370.878
 30
0
 11
2934.422
 21
548.44
 31
0
 0
LINE
 8
TOOL_0
 5
86
 10
2934.422
 20
548.44
 30
0
 11
2964.422
 21
548.44
 31
0
 0
LINE
 8
TOOL_0
 5
87
 10
2964.422
 20
548.44
 30
0
 11
2964.422
 21
598.44
 31
0
 0
ARC
 8
TOOL_0
 5
88
 10
2944.422
 20
598.44
 30
0
 40
20.0
 50
0
 51
90.0
210
0
220
0
230
1.0
 0
LINE
 8
TOOL_0
 5
89
 10
2944.422
 20
618.44
 30
0
 11
2814.422
 21
618.44
 31
0
 0
ARC
 8
TOOL_0
 5
8A
 10
2814.422
 20
598.44
 30
0
 40
20.0
 50
90.0
 51
180.0
210
0
220
0
230
1.0
 0
LINE
 8
TOOL_0
 5
8B
 10
2794.422
 20
598.44
 30
0
 11
2794.422
 21
498.44
 31
0
 0
ARC
 8
TOOL_0
 5
8C
 10
2814.422
 20
498.44
 30
0
 40
20.0
 50
180.0
 51
270.0
210
0
220
0
230
1.0
 0
LINE
 8
TOOL_0
 5
8D
 10
2814.422
 20
478.44
 30
0
 11
2944.422
 21
478.44
 31
0
 0
ARC
 8
TOOL_0
 5
8E
 10
2944.422
 20
498.44
 30
0
 40
20.0
 50
270.0
 51
0
210
0
220
0
230
1.0
 0
LINE
 8
TOOL_0
 5
8F
 10
2964.422
 20
498.44
 30
0
 11
2964.422
 21
548.44
 31
0
 0
LINE
 8
TOOL_0
 5
90
 10
2964.422
 20
548.44
 30
0
 11
2960.886
 21
551.976
 31
0
 0
LINE
 8
TOOL_0
 5
91
 10
2960.886
 20
551.976
 30
0
 11
3976.922
 21
555.44
 31
0
 0
LINE
 8
TOOL_0
 5
92
 10
3976.922
 20
555.44
 30
0
 11
4006.922
 21
555.44
 31
0
 0
LINE
 8
TOOL_0
 5
93
 10
4006.922
 20
555.44
 30
0
 11
4006.922
 21
590.44
 31
0
 0
ARC
 8
TOOL_0
 5
94
 10
3986.922
 20
590.44
 30
0
 40
20.0
 50
0
 51
90.0
210
0
220
0
230
1.0
 0
LINE
 8
TOOL_0
 5
95
 10
3986.922
 20
610.44
 30
0
 11
3576.922
 21
610.44
 31
0
 0
ARC
 8
TOOL_0
 5
96
 10
3576.922
 20
590.44
 30
0
 40
20.0
 50
90.0
 51
180.0
210
0
220
0
230
1.0
 0
LINE
 8
TOOL_0
 5
97
 10
3556.922
 20
590.44
 30
0
 11
3556.922
 21
520.44
 31
0
 0
ARC
 8
TOOL_0
 5
98
 10
3576.922
 20
520.44
 30
0
 40
20.0
 50
180.0
 51
270.0
210
0
220
0
230
1.0
 0
LINE
 8
TOOL_0
 5
99
 10
3576.922
 20
500.44
 30
0
 11
3986.922
 21
500.44
 31
0
 0
ARC
 8
TOOL_0
 5
9A
 10
3986.922
 20
520.44
 30
0
 40
20.0
 50
270.0
 51
0
210
0
220
0
230
1.0
 0
LINE
 8
TOOL_0
 5
9B
 10
4006.922
 20
520.44
 30
0
 11
4006.922
 21
555.44
 31
0
 0
LINE
 8
TOOL_0
 5
9C
 10
4006.922
 20
555.44
 30
0
 11
4003.386
 21
558.976
 31
0
 0
LINE
 8
TOOL_0
 5
9D
 10
4003.386
 20
558.976
 30
0
 11
4739.422
 21
548.44
 31
0
 0
LINE
 8
TOOL_0
 5
9E
 10
4739.422
 20
548.44
 30
0
 11
4769.422
 21
548.44
 31
0
 0
LINE
 8
TOOL_0
 5
9F
 10
4769.422
 20
548.44
 30
0
 11
4769.422
 21
598.44
 31
0
 0
ARC
 8
TOOL_0
 5
A0
 10
4749.422
 20
598.44
 30
0
 40
20.0
 50
0
 51
90.0
210
0
220
0
230
1.0
 0
LINE
 8
TOOL_0
 5
A1
 10
4749.422
 20
618.44
 30
0
 11
4619.422
 21
618.44
 31
0
 0
ARC
 8
TOOL_0
 5
A2
 10
4619.422
 20
598.44
 30
0
 40
20.0
 50
90.0
 51
180.0
210
0
220
0
230
1.0
 0
LINE
 8
TOOL_0
 5
A3
 10
4599.422
 20
598.44
 30
0
 11
4599.422
 21
498.44
 31
0
 0
ARC
 8
TOOL_0
 5
A4
 10
4619.422
 20
498.44
 30
0
 40
20.0
 50
180.0
 51
270.0
210
0
220
0
230
1.0
 0
LINE
 8
TOOL_0
 5
A5
 10
4619.422
 20
478.44
 30
0
 11
4749.422
 21
478.44
 31
0
 0
ARC
 8
TOOL_0
 5
A6
 10
4749.422
 20
498.44
 30
0
 40
20.0
 50
270.0
 51
0
210
0
220
0
230
1.0
 0
LINE
 8
TOOL_0
 5
A7
 10
4769.422
 20
498.44
 30
0
 11
4769.422
 21
548.44
 31
0
 0
LINE
 8
TOOL_0
 5
A8
 10
4769.422
 20
548.44
 30
0
 11
4765.886
 21
551.976
 31
0
 0
LINE
 8
TOOL_0
 5
A9
 10
4765.886
 20
551.976
 30
0
 11
4875.671
 21
790.989
 31
0
 0
LINE
 8
TOOL_0
 5
AA
 10
4875.671
 20
790.989
 30
0
 11
4850.922
 21
766.24
 31
0
 0
LINE
 8
TOOL_0
 5
AB
 10
4850.922
 20
766.24
 30
0
 11
4850.922
 21
414.64
 31
0
 0
LINE
 8
TOOL_0
 5
AC
 10
4850.922
 20
414.64
 30
0
 11
2712.922
 21
414.64
 31
0
 0
LINE
 8
TOOL_0
 5
AD
 10
2712.922
 20
414.64
 30
0
 11
2712.922
 21
766.24
 31
0
 0
LINE
 8
TOOL_0
 5
AE
 10
2712.922
 20
766.24
 30
0
 11
3014.753
 21
766.24
 31
0
 0
LINE
 8
TOOL_0
 5
AF
 10
3014.753
 20
766.24
 30
0
 11
3034.753
 21
746.24
 31
0
 0
LINE
 8
TOOL_0
 5
B0
 10
3034.753
 20
746.24
 30
0
 11
3414.753
 21
746.24
 31
0
 0
LINE
 8
TOOL_0
 5
B1
 10
3414.753
 20
746.24
 30
0
 11
3454.753
 21
706.24
 31
0
 0
LINE
 8
TOOL_0
 5
B2
 10
3454.753
 20
706.24
 30
0
 11
4109.09
 21
706.24
 31
0
 0
LINE
 8
TOOL_0
 5
B3
 10
4109.09
 20
706.24
 30
0
 11
4149.09
 21
746.24
 31
0
 0
LINE
 8
TOOL_0
 5
B4
 10
4149.09
 20
746.24
 30
0
 11
4529.09
 21
746.24
 31
0
 0
LINE
 8
TOOL_0
 5
B5
 10
4529.09
 20
746.24
 30
0
 11
4549.09
 21
766.24
 31
0
 0
LINE
 8
TOOL_0
 5
B6
 10
4549.09
 20
766.24
 30
0
 11
4850.921
 21
766.24
 31
0
 0
LINE
 8
TOOL_0
 5
B7
 10
4850.921
 20
766.24
 30
0
 11
4854.457
 21
762.704
 31
0
 0
LINE
 8
TOOL_0
 5
B8
 10
4854.457
 20
762.704
 30
0
 11
5017.816
 21
361.84
 31
0
 0
LINE
 8
TOOL_0
 5
B9
 10
5017.816
 20
361.84
 30
0
 11
5017.821
 21
317.435
 31
0
 0
LINE
 8
TOOL_0
 5
BA
 10
5017.821
 20
317.435
 30
0
 11
5015.25
 21
315.887
 31
0
 0
LINE
 8
TOOL_0
 5
BB
 10
5015.25
 20
315.887
 30
0
 11
5015.246
 21
191.987
 31
0
 0
ARC
 8
TOOL_0
 5
BC
 10
5045.246
 20
191.986
 30
0
 40
30.000000016667
 50
179.998090140683
 51
270.0
210
0
220
0
230
1.0
 0
LINE
 8
TOOL_0
 5
BD
 10
5045.246
 20
161.986
 30
0
 11
5115.345
 21
161.983
 31
0
 0
ARC
 8
TOOL_0
 5
BE
 10
5115.343
 20
111.983
 30
0
 40
50.00000004
 50
359.997708168821
 51
89.99770816882
210
0
220
0
230
1.0
 0
LINE
 8
TOOL_0
 5
BF
 10
5165.343
 20
111.981
 30
0
 11
5165.342
 21
70.581
 31
0
 0
ARC
 8
TOOL_0
 5
C0
 10
5115.342
 20
70.583
 30
0
 40
50.00000004
 50
269.998854084409
 51
359.997708168821
210
0
220
0
230
1.0
 0
LINE
 8
TOOL_0
 5
C1
 10
5115.341
 20
20.583
 30
0
 11
4651.34
 21
20.6
 31
0
 0
ARC
 8
TOOL_0
 5
C2
 10
4651.341
 20
40.6
 30
0
 40
20.000000025
 50
179.997135211027
 51
269.997135211026
210
0
220
0
230
1.0
 0
LINE
 8
TOOL_0
 5
C3
 10
4631.341
 20
40.601
 30
0
 11
4631.351
 21
317.401
 31
0
 0
ARC
 8
TOOL_0
 5
C4
 10
4651.351
 20
317.4
 30
0
 40
20.000000025
 50
90.0
 51
179.997135211027
210
0
220
0
230
1.0
 0
LINE
 8
TOOL_0
 5
C5
 10
4651.351
 20
337.4
 30
0
 11
4995.252
 21
337.388
 31
0
 0
ARC
 8
TOOL_0
 5
C6
 10
4995.251
 20
317.388
 30
0
 40
20.000000025
 50
4.29829486291
 51
89.997135211026
210
0
220
0
230
1.0
 0
LINE
 8
TOOL_0
 5
C7
 10
5015.195
 20
318.887
 30
0
 11
5017.823
 21
317.436
 31
0
 0
LINE
 8
TOOL_0
 5
C8
 10
5017.823
 20
317.436
 30
0
 11
5027.762
 21
315.151
 31
0
 0
LINE
 8
TOOL_0
 5
C9
 10
5027.762
 20
315.151
 30
0
 11
5600.292
 21
363.329
 31
0
 0
LINE
 8
TOOL_0
 5
CA
 10
5600.292
 20
363.329
 30
0
 11
5600.292
 21
327.461
 31
0
 0
LINE
 8
TOOL_0
 5
CB
 10
5600.292
 20
327.461
 30
0
 11
5597.721
 21
325.913
 31
0
 0
LINE
 8
TOOL_0
 5
CC
 10
5597.721
 20
325.913
 30
0
 11
5597.721
 21
50.614
 31
0
 0
ARC
 8
TOOL_0
 5
CD
 10
5577.721
 20
50.614
 30
0
 40
20.0
 50
270.0
 51
0
210
0
220
0
230
1.0
 0
LINE
 8
TOOL_0
 5
CE
 10
5577.721
 20
30.614
 30
0
 11
5233.821
 21
30.614
 31
0
 0
ARC
 8
TOOL_0
 5
CF
 10
5233.821
 20
50.614
 30
0
 40
20.0
 50
180.0
 51
270.0
210
0
220
0
230
1.0
 0
LINE
 8
TOOL_0
 5
D0
 10
5213.821
 20
50.614
 30
0
 11
5213.821
 21
176.014
 31
0
 0
ARC
 8
TOOL_0
 5
D1
 10
5183.821
 20
176.014
 30
0
 40
30.0
 50
0
 51
90.0
210
0
220
0
230
1.0
 0
LINE
 8
TOOL_0
 5
D2
 10
5183.821
 20
206.014
 30
0
 11
5113.721
 21
206.014
 31
0
 0
ARC
 8
TOOL_0
 5
D3
 10
5113.721
 20
256.014
 30
0
 40
50.0
 50
179.99885408441
 51
270.0
210
0
220
0
230
1.0
 0
LINE
 8
TOOL_0
 5
D4
 10
5063.721
 20
256.015
 30
0
 11
5063.721
 21
297.414
 31
0
 0
ARC
 8
TOOL_0
 5
D5
 10
5113.721
 20
297.414
 30
0
 40
50.0
 50
90.0
 51
180.0
210
0
220
0
230
1.0
 0
LINE
 8
TOOL_0
 5
D6
 10
5113.721
 20
347.414
 30
0
 11
5577.721
 21
347.414
 31
0
 0
ARC
 8
TOOL_0
 5
D7
 10
5577.721
 20
327.414
 30
0
 40
20.0
 50
4.29829486291
 51
90.0
210
0
220
0
230
1.0
 0
LINE
 8
TOOL_0
 5
D8
 10
5597.665
 20
328.913
 30
0
 11
5600.293
 21
327.462
 31
0
 0
LINE
 8
TOOL_0
 5
D9
 10
5600.293
 20
327.462
 30
0
 11
5606.675
 21
325.82
 31
0
 0
LINE
 8
TOOL_0
 5
DA
 10
5606.675
 20
325.82
 30
0
 11
5625.931
 21
768.334
 31
0
 0
LINE
 8
TOOL_0
 5
DB
 10
5625.931
 20
768.334
 30
0
 11
5625.931
 21
724.259
 31
0
 0
LINE
 8
TOOL_0
 5
DC
 10
5625.931
 20
724.259
 30
0
 11
5625.931
 21
452.759
 31
0
 0
ARC
 8
TOOL_0
 5
DD
 10
5604.431
 20
452.759
 30
0
 40
21.5
 50
270.0
 51
0
210
0
220
0
230
1.0
 0
LINE
 8
TOOL_0
 5
DE
 10
5604.431
 20
431.259
 30
0
 11
4890.431
 21
431.259
 31
0
 0
ARC
 8
TOOL_0
 5
DF
 10
4890.431
 20
452.759
 30
0
 40
21.5
 50
180.0
 51
270.0
210
0
220
0
230
1.0
 0
LINE
 8
TOOL_0
 5
E0
 10
4868.931
 20
452.759
 30
0
 11
4868.931
 21
724.259
 31
0
 0
LINE
 8
TOOL_0
 5
E1
 10
4868.931
 20
724.259
 30
0
 11
5625.931
 21
724.259
 31
0
 0
LINE
 8
TOOL_0
 5
E2
 10
5625.931
 20
724.259
 30
0
 11
5639.385
 21
719.392
 31
0
 0
LINE
 8
TOOL_0
 5
E3
 10
5639.385
 20
719.392
 30
0
 11
5998.759
 21
349.949
 31
0
 0
LINE
 8
TOOL_0
 5
E4
 10
5998.759
 20
349.949
 30
0
 11
5998.759
 21
311.262
 31
0
 0
LINE
 8
TOOL_0
 5
E5
 10
5998.759
 20
311.262
 30
0
 11
5996.186
 21
309.716
 31
0
 0
LINE
 8
TOOL_0
 5
E6
 10
5996.186
 20
309.716
 30
0
 11
5996.186
 21
20.316
 31
0
 0
LINE
 8
TOOL_0
 5
E7
 10
5996.186
 20
20.316
 30
0
 11
5622.386
 21
20.316
 31
0
 0
LINE
 8
TOOL_0
 5
E8
 10
5622.386
 20
20.316
 30
0
 11
5622.386
 21
311.216
 31
0
 0
ARC
 8
TOOL_0
 5
E9
 10
5643.286
 20
311.216
 30
0
 40
20.9
 50
90.0
 51
180.0
210
0
220
0
230
1.0
 0
LINE
 8
TOOL_0
 5
EA
 10
5643.286
 20
332.116
 30
0
 11
5975.286
 21
332.116
 31
0
 0
ARC
 8
TOOL_0
 5
EB
 10
5975.286
 20
311.216
 30
0
 40
20.9
 50
4.112961589712
 51
90.0
210
0
220
0
230
1.0
 0
LINE
 8
TOOL_0
 5
EC
 10
5996.132
 20
312.715
 30
0
 11
5998.758
 21
311.262
 31
0
 0
LINE
 8
TOOL_0
 5
ED
 10
5998.758
 20
311.262
 30
0
 11
6007.726
 21
310.117
 31
0
 0
LINE
 8
TOOL_0
 5
EE
 10
6007.726
 20
310.117
 30
0
 11
6019.172
 21
711.203
 31
0
 0
LINE
 8
TOOL_0
 5
EF
 10
6019.172
 20
711.203
 30
0
 11
6019.172
 21
673.588
 31
0
 0
LINE
 8
TOOL_0
 5
F0
 10
6019.172
 20
673.588
 30
0
 11
6016.599
 21
672.042
 31
0
 0
LINE
 8
TOOL_0
 5
F1
 10
6016.599
 20
672.042
 30
0
 11
6016.599
 21
382.642
 31
0
 0
LINE
 8
TOOL_0
 5
F2
 10
6016.599
 20
382.642
 30
0
 11
5642.799
 21
382.642
 31
0
 0
LINE
 8
TOOL_0
 5
F3
 10
5642.799
 20
382.642
 30
0
 11
5642.799
 21
673.542
 31
0
 0
ARC
 8
TOOL_0
 5
F4
 10
5663.699
 20
673.542
 30
0
 40
20.9
 50
90.0
 51
180.0
210
0
220
0
230
1.0
 0
LINE
 8
TOOL_0
 5
F5
 10
5663.699
 20
694.442
 30
0
 11
5995.699
 21
694.442
 31
0
 0
ARC
 8
TOOL_0
 5
F6
 10
5995.699
 20
673.542
 30
0
 40
20.9
 50
4.112961589712
 51
90.0
210
0
220
0
230
1.0
 0
LINE
 8
TOOL_0
 5
F7
 10
6016.545
 20
675.041
 30
0
 11
6019.171
 21
673.588
 31
0
 0
LINE
 8
TOOL_0
 5
F8
 10
6019.171
 20
673.588
 30
0
 11
6026.572
 21
670.756
 31
0
 0
LINE
 8
TOOL_0
 5
F9
 10
6026.572
 20
670.756
 30
0
 11
-0.001
 21
833.715
 31
0
 0
LINE
 8
TOOL_0
 5
FA
 10
-0.001
 20
833.715
 30
0
 11
0.999
 21
833.715
 31
0
 0
LINE
 8
TOOL_0
 5
FB
 10
0.999
 20
833.715
 30
0
 11
-0.001
 21
833.715
 31
0
 0
LINE
 8
TOOL_0
 5
FC
 10
-0.001
 20
833.715
 30
0
 11
0.999
 21
833.715
 31
0
 0
LINE
 8
TOOL_0
 5
FD
 10
0.999
 20
833.715
 30
0
 11
6034.999
 21
833.715
 31
0
 0
LINE
 8
TOOL_0
 5
FE
 10
6034.999
 20
833.715
 30
0
 11
6035.999
 21
833.715
 31
0
 0
ENDSEC
 0
EOF

