0
SECTION
2
TABLES
0
TABLE
2
LAYER
70
0
0
LAYER
2
LAYER_NAME
70
0
62
1
6
CONTINUOUS
0
ENDTAB
0
ENDSEC
 0
SECTION
 2
ENTITIES
 0
LINE
 8
TOOL_0
 5
1
 10
214.23
 20
478.766
 30
0
 11
244.23
 21
478.766
 31
0
 0
ARC
 8
TOOL_0
 5
2
 10
204.23
 20
478.766
 30
0
 40
40.0
 50
0
 51
180.0
210
0
220
0
230
1.0
 0
ARC
 8
TOOL_0
 5
3
 10
204.23
 20
478.766
 30
0
 40
40.0
 50
180.0
 51
0
210
0
220
0
230
1.0
 0
LINE
 8
TOOL_0
 5
4
 10
244.23
 20
478.766
 30
0
 11
318.23
 21
478.766
 31
0
 0
LINE
 8
TOOL_0
 5
5
 10
318.23
 20
478.766
 30
0
 11
348.23
 21
478.766
 31
0
 0
ARC
 8
TOOL_0
 5
6
 10
308.23
 20
478.766
 30
0
 40
40.0
 50
0
 51
180.0
210
0
220
0
230
1.0
 0
ARC
 8
TOOL_0
 5
7
 10
308.23
 20
478.766
 30
0
 40
40.0
 50
180.0
 51
0
210
0
220
0
230
1.0
 0
LINE
 8
TOOL_0
 5
8
 10
348.23
 20
478.766
 30
0
 11
393.98
 21
547.897
 31
0
 0
LINE
 8
TOOL_0
 5
9
 10
393.98
 20
547.897
 30
0
 11
393.98
 21
525.766
 31
0
 0
LINE
 8
TOOL_0
 5
A
 10
393.98
 20
525.766
 30
0
 11
393.98
 21
431.766
 31
0
 0
ARC
 8
TOOL_0
 5
B
 10
351.23
 20
431.766
 30
0
 40
42.75
 50
270.0
 51
0
210
0
220
0
230
1.0
 0
LINE
 8
TOOL_0
 5
C
 10
351.23
 20
389.016
 30
0
 11
161.23
 21
389.016
 31
0
 0
ARC
 8
TOOL_0
 5
D
 10
161.23
 20
431.766
 30
0
 40
42.75
 50
180.0
 51
270.0
210
0
220
0
230
1.0
 0
LINE
 8
TOOL_0
 5
E
 10
118.48
 20
431.766
 30
0
 11
118.48
 21
525.766
 31
0
 0
ARC
 8
TOOL_0
 5
F
 10
161.23
 20
525.766
 30
0
 40
42.75
 50
90.0
 51
180.0
210
0
220
0
230
1.0
 0
LINE
 8
TOOL_0
 5
10
 10
161.23
 20
568.516
 30
0
 11
351.23
 21
568.516
 31
0
 0
ARC
 8
TOOL_0
 5
11
 10
351.23
 20
525.766
 30
0
 40
42.75
 50
0
 51
90.0
210
0
220
0
230
1.0
 0
LINE
 8
TOOL_0
 5
12
 10
393.98
 20
525.766
 30
0
 11
404.025
 21
525.766
 31
0
 0
LINE
 8
TOOL_0
 5
13
 10
404.025
 20
525.766
 30
0
 11
202.0
 21
731.476
 31
0
 0
LINE
 8
TOOL_0
 5
14
 10
202.0
 20
731.476
 30
0
 11
232.0
 21
731.476
 31
0
 0
ARC
 8
TOOL_0
 5
15
 10
192.0
 20
731.476
 30
0
 40
40.0
 50
0
 51
180.0
210
0
220
0
230
1.0
 0
ARC
 8
TOOL_0
 5
16
 10
192.0
 20
731.476
 30
0
 40
40.0
 50
180.0
 51
0
210
0
220
0
230
1.0
 0
LINE
 8
TOOL_0
 5
17
 10
232.0
 20
731.476
 30
0
 11
306.0
 21
731.476
 31
0
 0
LINE
 8
TOOL_0
 5
18
 10
306.0
 20
731.476
 30
0
 11
336.0
 21
731.476
 31
0
 0
ARC
 8
TOOL_0
 5
19
 10
296.0
 20
731.476
 30
0
 40
40.0
 50
0
 51
180.0
210
0
220
0
230
1.0
 0
ARC
 8
TOOL_0
 5
1A
 10
296.0
 20
731.476
 30
0
 40
40.0
 50
180.0
 51
0
210
0
220
0
230
1.0
 0
LINE
 8
TOOL_0
 5
1B
 10
336.0
 20
731.476
 30
0
 11
381.75
 21
807.452
 31
0
 0
LINE
 8
TOOL_0
 5
1C
 10
381.75
 20
807.452
 30
0
 11
381.75
 21
778.476
 31
0
 0
LINE
 8
TOOL_0
 5
1D
 10
381.75
 20
778.476
 30
0
 11
381.75
 21
684.476
 31
0
 0
ARC
 8
TOOL_0
 5
1E
 10
339.0
 20
684.476
 30
0
 40
42.75
 50
270.0
 51
0
210
0
220
0
230
1.0
 0
LINE
 8
TOOL_0
 5
1F
 10
339.0
 20
641.726
 30
0
 11
149.0
 21
641.726
 31
0
 0
ARC
 8
TOOL_0
 5
20
 10
149.0
 20
684.476
 30
0
 40
42.75
 50
180.0
 51
270.0
210
0
220
0
230
1.0
 0
LINE
 8
TOOL_0
 5
21
 10
106.25
 20
684.476
 30
0
 11
106.25
 21
778.476
 31
0
 0
ARC
 8
TOOL_0
 5
22
 10
149.0
 20
778.476
 30
0
 40
42.75
 50
90.0
 51
180.0
210
0
220
0
230
1.0
 0
LINE
 8
TOOL_0
 5
23
 10
149.0
 20
821.226
 30
0
 11
339.0
 21
821.226
 31
0
 0
ARC
 8
TOOL_0
 5
24
 10
339.0
 20
778.476
 30
0
 40
42.75
 50
0
 51
90.0
210
0
220
0
230
1.0
 0
LINE
 8
TOOL_0
 5
25
 10
381.75
 20
778.476
 30
0
 11
391.166
 21
778.476
 31
0
 0
LINE
 8
TOOL_0
 5
26
 10
391.166
 20
778.476
 30
0
 11
204.446
 21
984.186
 31
0
 0
LINE
 8
TOOL_0
 5
27
 10
204.446
 20
984.186
 30
0
 11
234.446
 21
984.186
 31
0
 0
ARC
 8
TOOL_0
 5
28
 10
194.446
 20
984.186
 30
0
 40
40.0
 50
0
 51
180.0
210
0
220
0
230
1.0
 0
ARC
 8
TOOL_0
 5
29
 10
194.446
 20
984.186
 30
0
 40
40.0
 50
180.0
 51
0
210
0
220
0
230
1.0
 0
LINE
 8
TOOL_0
 5
2A
 10
234.446
 20
984.186
 30
0
 11
308.446
 21
984.186
 31
0
 0
LINE
 8
TOOL_0
 5
2B
 10
308.446
 20
984.186
 30
0
 11
338.446
 21
984.186
 31
0
 0
ARC
 8
TOOL_0
 5
2C
 10
298.446
 20
984.186
 30
0
 40
40.0
 50
0
 51
180.0
210
0
220
0
230
1.0
 0
ARC
 8
TOOL_0
 5
2D
 10
298.446
 20
984.186
 30
0
 40
40.0
 50
180.0
 51
0
210
0
220
0
230
1.0
 0
LINE
 8
TOOL_0
 5
2E
 10
338.446
 20
984.186
 30
0
 11
384.196
 21
1070.571
 31
0
 0
LINE
 8
TOOL_0
 5
2F
 10
384.196
 20
1070.571
 30
0
 11
384.196
 21
1031.186
 31
0
 0
LINE
 8
TOOL_0
 5
30
 10
384.196
 20
1031.186
 30
0
 11
384.196
 21
937.186
 31
0
 0
ARC
 8
TOOL_0
 5
31
 10
341.446
 20
937.186
 30
0
 40
42.75
 50
270.0
 51
0
210
0
220
0
230
1.0
 0
LINE
 8
TOOL_0
 5
32
 10
341.446
 20
894.436
 30
0
 11
151.446
 21
894.436
 31
0
 0
ARC
 8
TOOL_0
 5
33
 10
151.446
 20
937.186
 30
0
 40
42.75
 50
180.0
 51
270.0
210
0
220
0
230
1.0
 0
LINE
 8
TOOL_0
 5
34
 10
108.696
 20
937.186
 30
0
 11
108.696
 21
1031.186
 31
0
 0
ARC
 8
TOOL_0
 5
35
 10
151.446
 20
1031.186
 30
0
 40
42.75
 50
90.0
 51
180.0
210
0
220
0
230
1.0
 0
LINE
 8
TOOL_0
 5
36
 10
151.446
 20
1073.936
 30
0
 11
341.446
 21
1073.936
 31
0
 0
ARC
 8
TOOL_0
 5
37
 10
341.446
 20
1031.186
 30
0
 40
42.75
 50
0
 51
90.0
210
0
220
0
230
1.0
 0
LINE
 8
TOOL_0
 5
38
 10
384.196
 20
1031.186
 30
0
 11
394.922
 21
1031.186
 31
0
 0
LINE
 8
TOOL_0
 5
39
 10
394.922
 20
1031.186
 30
0
 11
593.335
 21
792.813
 31
0
 0
LINE
 8
TOOL_0
 5
3A
 10
593.335
 20
792.813
 30
0
 11
623.335
 21
792.813
 31
0
 0
ARC
 8
TOOL_0
 5
3B
 10
583.335
 20
792.813
 30
0
 40
40.0
 50
0
 51
180.0
210
0
220
0
230
1.0
 0
ARC
 8
TOOL_0
 5
3C
 10
583.335
 20
792.813
 30
0
 40
40.0
 50
180.0
 51
0
210
0
220
0
230
1.0
 0
LINE
 8
TOOL_0
 5
3D
 10
623.335
 20
792.813
 30
0
 11
697.335
 21
792.813
 31
0
 0
LINE
 8
TOOL_0
 5
3E
 10
697.335
 20
792.813
 30
0
 11
727.335
 21
792.813
 31
0
 0
ARC
 8
TOOL_0
 5
3F
 10
687.335
 20
792.813
 30
0
 40
40.0
 50
0
 51
180.0
210
0
220
0
230
1.0
 0
ARC
 8
TOOL_0
 5
40
 10
687.335
 20
792.813
 30
0
 40
40.0
 50
180.0
 51
0
210
0
220
0
230
1.0
 0
LINE
 8
TOOL_0
 5
41
 10
727.335
 20
792.813
 30
0
 11
773.085
 21
872.182
 31
0
 0
LINE
 8
TOOL_0
 5
42
 10
773.085
 20
872.182
 30
0
 11
773.085
 21
839.813
 31
0
 0
LINE
 8
TOOL_0
 5
43
 10
773.085
 20
839.813
 30
0
 11
773.085
 21
745.813
 31
0
 0
ARC
 8
TOOL_0
 5
44
 10
730.335
 20
745.813
 30
0
 40
42.75
 50
270.0
 51
0
210
0
220
0
230
1.0
 0
LINE
 8
TOOL_0
 5
45
 10
730.335
 20
703.063
 30
0
 11
540.335
 21
703.063
 31
0
 0
ARC
 8
TOOL_0
 5
46
 10
540.335
 20
745.813
 30
0
 40
42.75
 50
180.0
 51
270.0
210
0
220
0
230
1.0
 0
LINE
 8
TOOL_0
 5
47
 10
497.585
 20
745.813
 30
0
 11
497.585
 21
839.813
 31
0
 0
ARC
 8
TOOL_0
 5
48
 10
540.335
 20
839.813
 30
0
 40
42.75
 50
90.0
 51
180.0
210
0
220
0
230
1.0
 0
LINE
 8
TOOL_0
 5
49
 10
540.335
 20
882.563
 30
0
 11
730.335
 21
882.563
 31
0
 0
ARC
 8
TOOL_0
 5
4A
 10
730.335
 20
839.813
 30
0
 40
42.75
 50
0
 51
90.0
210
0
220
0
230
1.0
 0
LINE
 8
TOOL_0
 5
4B
 10
773.085
 20
839.813
 30
0
 11
784.139
 21
839.813
 31
0
 0
LINE
 8
TOOL_0
 5
4C
 10
784.139
 20
839.813
 30
0
 11
578.66
 21
1030.803
 31
0
 0
LINE
 8
TOOL_0
 5
4D
 10
578.66
 20
1030.803
 30
0
 11
608.66
 21
1030.803
 31
0
 0
ARC
 8
TOOL_0
 5
4E
 10
568.66
 20
1030.803
 30
0
 40
40.0
 50
0
 51
180.0
210
0
220
0
230
1.0
 0
ARC
 8
TOOL_0
 5
4F
 10
568.66
 20
1030.803
 30
0
 40
40.0
 50
180.0
 51
0
210
0
220
0
230
1.0
 0
LINE
 8
TOOL_0
 5
50
 10
608.66
 20
1030.803
 30
0
 11
682.66
 21
1030.803
 31
0
 0
LINE
 8
TOOL_0
 5
51
 10
682.66
 20
1030.803
 30
0
 11
712.66
 21
1030.803
 31
0
 0
ARC
 8
TOOL_0
 5
52
 10
672.66
 20
1030.803
 30
0
 40
40.0
 50
0
 51
180.0
210
0
220
0
230
1.0
 0
ARC
 8
TOOL_0
 5
53
 10
672.66
 20
1030.803
 30
0
 40
40.0
 50
180.0
 51
0
210
0
220
0
230
1.0
 0
LINE
 8
TOOL_0
 5
54
 10
712.66
 20
1030.803
 30
0
 11
758.41
 21
1101.049
 31
0
 0
LINE
 8
TOOL_0
 5
55
 10
758.41
 20
1101.049
 30
0
 11
758.41
 21
1077.803
 31
0
 0
LINE
 8
TOOL_0
 5
56
 10
758.41
 20
1077.803
 30
0
 11
758.41
 21
983.803
 31
0
 0
ARC
 8
TOOL_0
 5
57
 10
715.66
 20
983.803
 30
0
 40
42.75
 50
270.0
 51
0
210
0
220
0
230
1.0
 0
LINE
 8
TOOL_0
 5
58
 10
715.66
 20
941.053
 30
0
 11
525.66
 21
941.053
 31
0
 0
ARC
 8
TOOL_0
 5
59
 10
525.66
 20
983.803
 30
0
 40
42.75
 50
180.0
 51
270.0
210
0
220
0
230
1.0
 0
LINE
 8
TOOL_0
 5
5A
 10
482.91
 20
983.803
 30
0
 11
482.91
 21
1077.803
 31
0
 0
ARC
 8
TOOL_0
 5
5B
 10
525.66
 20
1077.803
 30
0
 40
42.75
 50
90.0
 51
180.0
210
0
220
0
230
1.0
 0
LINE
 8
TOOL_0
 5
5C
 10
525.66
 20
1120.553
 30
0
 11
715.66
 21
1120.553
 31
0
 0
ARC
 8
TOOL_0
 5
5D
 10
715.66
 20
1077.803
 30
0
 40
42.75
 50
0
 51
90.0
210
0
220
0
230
1.0
 0
LINE
 8
TOOL_0
 5
5E
 10
758.41
 20
1077.803
 30
0
 11
766.573
 21
1077.803
 31
0
 0
LINE
 8
TOOL_0
 5
5F
 10
766.573
 20
1077.803
 30
0
 11
581.105
 21
1281.06
 31
0
 0
LINE
 8
TOOL_0
 5
60
 10
581.105
 20
1281.06
 30
0
 11
611.105
 21
1281.06
 31
0
 0
ARC
 8
TOOL_0
 5
61
 10
571.105
 20
1281.06
 30
0
 40
40.0
 50
0
 51
180.0
210
0
220
0
230
1.0
 0
ARC
 8
TOOL_0
 5
62
 10
571.105
 20
1281.06
 30
0
 40
40.0
 50
180.0
 51
0
210
0
220
0
230
1.0
 0
LINE
 8
TOOL_0
 5
63
 10
611.105
 20
1281.06
 30
0
 11
685.105
 21
1281.06
 31
0
 0
LINE
 8
TOOL_0
 5
64
 10
685.105
 20
1281.06
 30
0
 11
715.105
 21
1281.06
 31
0
 0
ARC
 8
TOOL_0
 5
65
 10
675.105
 20
1281.06
 30
0
 40
40.0
 50
0
 51
180.0
210
0
220
0
230
1.0
 0
ARC
 8
TOOL_0
 5
66
 10
675.105
 20
1281.06
 30
0
 40
40.0
 50
180.0
 51
0
210
0
220
0
230
1.0
 0
LINE
 8
TOOL_0
 5
67
 10
715.105
 20
1281.06
 30
0
 11
748.95
 21
1191.31
 31
0
 0
LINE
 8
TOOL_0
 5
68
 10
748.95
 20
1191.31
 30
0
 11
718.105
 21
1191.31
 31
0
 0
LINE
 8
TOOL_0
 5
69
 10
718.105
 20
1191.31
 30
0
 11
528.105
 21
1191.31
 31
0
 0
ARC
 8
TOOL_0
 5
6A
 10
528.105
 20
1234.06
 30
0
 40
42.75
 50
180.0
 51
270.0
210
0
220
0
230
1.0
 0
LINE
 8
TOOL_0
 5
6B
 10
485.355
 20
1234.06
 30
0
 11
485.355
 21
1328.06
 31
0
 0
ARC
 8
TOOL_0
 5
6C
 10
528.105
 20
1328.06
 30
0
 40
42.75
 50
90.0
 51
180.0
210
0
220
0
230
1.0
 0
LINE
 8
TOOL_0
 5
6D
 10
528.105
 20
1370.81
 30
0
 11
718.105
 21
1370.81
 31
0
 0
ARC
 8
TOOL_0
 5
6E
 10
718.105
 20
1328.06
 30
0
 40
42.75
 50
0
 51
90.0
210
0
220
0
230
1.0
 0
LINE
 8
TOOL_0
 5
6F
 10
760.855
 20
1328.06
 30
0
 11
760.855
 21
1234.06
 31
0
 0
ARC
 8
TOOL_0
 5
70
 10
718.105
 20
1234.06
 30
0
 40
42.75
 50
270.0
 51
0
210
0
220
0
230
1.0
 0
LINE
 8
TOOL_0
 5
71
 10
718.105
 20
1191.31
 30
0
 11
718.105
 21
1179.472
 31
0
 0
LINE
 8
TOOL_0
 5
72
 10
718.105
 20
1179.472
 30
0
 11
804.547
 21
1410.405
 31
0
 0
LINE
 8
TOOL_0
 5
73
 10
804.547
 20
1410.405
 30
0
 11
803.547
 21
1410.405
 31
0
 0
LINE
 8
TOOL_0
 5
74
 10
803.547
 20
1410.405
 30
0
 11
804.547
 21
1410.405
 31
0
 0
LINE
 8
TOOL_0
 5
75
 10
804.547
 20
1410.405
 30
0
 11
803.547
 21
1410.405
 31
0
 0
LINE
 8
TOOL_0
 5
76
 10
803.547
 20
1410.405
 30
0
 11
286.498
 21
1410.405
 31
0
 0
LINE
 8
TOOL_0
 5
77
 10
286.498
 20
1410.405
 30
0
 11
285.498
 21
1410.405
 31
0
 0
ENDSEC
 0
EOF

