0
SECTION
2
TABLES
0
TABLE
2
LAYER
70
0
0
LAYER
2
LAYER_NAME
70
0
62
1
6
CONTINUOUS
0
ENDTAB
0
ENDSEC
 0
SECTION
 2
ENTITIES
 0
LINE
 8
TOOL_0
 5
1
 10
345.948
 20
2771.313
 30
0
 11
375.948
 21
2771.313
 31
0
 0
LINE
 8
TOOL_0
 5
2
 10
375.948
 20
2771.313
 30
0
 11
375.948
 21
2801.313
 31
0
 0
ARC
 8
TOOL_0
 5
3
 10
365.948
 20
2801.313
 30
0
 40
10.0
 50
0
 51
90.0
210
0
220
0
230
1.0
 0
LINE
 8
TOOL_0
 5
4
 10
365.948
 20
2811.313
 30
0
 11
319.948
 21
2811.313
 31
0
 0
ARC
 8
TOOL_0
 5
5
 10
319.948
 20
2801.313
 30
0
 40
10.0
 50
90.0
 51
180.0
210
0
220
0
230
1.0
 0
LINE
 8
TOOL_0
 5
6
 10
309.948
 20
2801.313
 30
0
 11
309.948
 21
2741.313
 31
0
 0
ARC
 8
TOOL_0
 5
7
 10
319.948
 20
2741.313
 30
0
 40
10.0
 50
180.0
 51
270.0
210
0
220
0
230
1.0
 0
LINE
 8
TOOL_0
 5
8
 10
319.948
 20
2731.313
 30
0
 11
365.948
 21
2731.313
 31
0
 0
ARC
 8
TOOL_0
 5
9
 10
365.948
 20
2741.313
 30
0
 40
10.0
 50
270.0
 51
0
210
0
220
0
230
1.0
 0
LINE
 8
TOOL_0
 5
A
 10
375.948
 20
2741.313
 30
0
 11
375.948
 21
2771.313
 31
0
 0
LINE
 8
TOOL_0
 5
B
 10
375.948
 20
2771.313
 30
0
 11
372.412
 21
2774.849
 31
0
 0
LINE
 8
TOOL_0
 5
C
 10
372.412
 20
2774.849
 30
0
 11
345.947
 21
2517.314
 31
0
 0
LINE
 8
TOOL_0
 5
D
 10
345.947
 20
2517.314
 30
0
 11
375.947
 21
2517.314
 31
0
 0
LINE
 8
TOOL_0
 5
E
 10
375.947
 20
2517.314
 30
0
 11
375.947
 21
2547.314
 31
0
 0
ARC
 8
TOOL_0
 5
F
 10
365.947
 20
2547.314
 30
0
 40
10.0
 50
0
 51
90.0
210
0
220
0
230
1.0
 0
LINE
 8
TOOL_0
 5
10
 10
365.947
 20
2557.314
 30
0
 11
319.947
 21
2557.314
 31
0
 0
ARC
 8
TOOL_0
 5
11
 10
319.947
 20
2547.314
 30
0
 40
10.0
 50
90.0
 51
180.0
210
0
220
0
230
1.0
 0
LINE
 8
TOOL_0
 5
12
 10
309.947
 20
2547.314
 30
0
 11
309.947
 21
2487.314
 31
0
 0
ARC
 8
TOOL_0
 5
13
 10
319.947
 20
2487.314
 30
0
 40
10.0
 50
180.0
 51
270.0
210
0
220
0
230
1.0
 0
LINE
 8
TOOL_0
 5
14
 10
319.947
 20
2477.314
 30
0
 11
365.947
 21
2477.314
 31
0
 0
ARC
 8
TOOL_0
 5
15
 10
365.947
 20
2487.314
 30
0
 40
10.0
 50
270.0
 51
0
210
0
220
0
230
1.0
 0
LINE
 8
TOOL_0
 5
16
 10
375.947
 20
2487.314
 30
0
 11
375.947
 21
2517.314
 31
0
 0
LINE
 8
TOOL_0
 5
17
 10
375.947
 20
2517.314
 30
0
 11
372.411
 21
2520.85
 31
0
 0
LINE
 8
TOOL_0
 5
18
 10
372.411
 20
2520.85
 30
0
 11
722.246
 21
2719.929
 31
0
 0
LINE
 8
TOOL_0
 5
19
 10
722.246
 20
2719.929
 30
0
 11
722.246
 21
2689.915
 31
0
 0
LINE
 8
TOOL_0
 5
1A
 10
722.246
 20
2689.915
 30
0
 11
722.246
 21
2598.715
 31
0
 0
ARC
 8
TOOL_0
 5
1B
 10
717.246
 20
2598.715
 30
0
 40
5.0
 50
270.0
 51
0
210
0
220
0
230
1.0
 0
LINE
 8
TOOL_0
 5
1C
 10
717.246
 20
2593.715
 30
0
 11
646.246
 21
2593.715
 31
0
 0
ARC
 8
TOOL_0
 5
1D
 10
646.261
 20
2599.336
 30
0
 40
5.621020014197
 50
197.616124986688
 51
269.847102890478
210
0
220
0
230
1.0
 0
ARC
 8
TOOL_0
 5
1E
 10
622.398
 20
2591.815
 30
0
 40
19.399598861832
 50
17.457975708298
 51
90.0
210
0
220
0
230
1.0
 0
LINE
 8
TOOL_0
 5
1F
 10
622.398
 20
2611.215
 30
0
 11
499.084
 21
2611.215
 31
0
 0
ARC
 8
TOOL_0
 5
20
 10
499.109
 20
2531.754
 30
0
 40
79.461003932747
 50
90.018026383264
 51
134.981644793351
210
0
220
0
230
1.0
 0
LINE
 8
TOOL_0
 5
21
 10
442.94
 20
2587.959
 30
0
 11
420.634
 21
2565.653
 31
0
 0
ARC
 8
TOOL_0
 5
22
 10
441.847
 20
2544.44
 30
0
 40
29.999712298621
 50
135.0
 51
180.0
210
0
220
0
230
1.0
 0
LINE
 8
TOOL_0
 5
23
 10
411.847
 20
2544.44
 30
0
 11
411.847
 21
2467.465
 31
0
 0
ARC
 8
TOOL_0
 5
24
 10
381.847
 20
2467.465
 30
0
 40
30.0
 50
270.0
 51
0
210
0
220
0
230
1.0
 0
LINE
 8
TOOL_0
 5
25
 10
381.847
 20
2437.465
 30
0
 11
307.598
 21
2437.465
 31
0
 0
ARC
 8
TOOL_0
 5
26
 10
307.638
 20
2468.495
 30
0
 40
31.030025781491
 50
245.07345968913
 51
269.926141478857
210
0
220
0
230
1.0
 0
LINE
 8
TOOL_0
 5
27
 10
294.56
 20
2440.355
 30
0
 11
257.355
 21
2457.704
 31
0
 0
ARC
 8
TOOL_0
 5
28
 10
251.795
 20
2445.738
 30
0
 40
13.194648763798
 50
65.078070366006
 51
151.751006707178
210
0
220
0
230
1.0
 0
ARC
 8
TOOL_0
 5
29
 10
236.986
 20
2454.278
 30
0
 40
3.926527855498
 50
285.406152710803
 51
324.233323509277
210
0
220
0
230
1.0
 0
LINE
 8
TOOL_0
 5
2A
 10
238.029
 20
2450.493
 30
0
 11
123.971
 21
2419.931
 31
0
 0
ARC
 8
TOOL_0
 5
2B
 10
122.677
 20
2424.761
 30
0
 40
5.000333588872
 50
194.997846181893
 51
284.997846181895
210
0
220
0
230
1.0
 0
LINE
 8
TOOL_0
 5
2C
 10
117.847
 20
2423.467
 30
0
 11
110.003
 21
2452.741
 31
0
 0
ARC
 8
TOOL_0
 5
2D
 10
139.947
 20
2460.764
 30
0
 40
31.00018814459
 50
179.998151749049
 51
194.999159823055
210
0
220
0
230
1.0
 0
LINE
 8
TOOL_0
 5
2E
 10
108.947
 20
2460.765
 30
0
 11
108.947
 21
2551.768
 31
0
 0
ARC
 8
TOOL_0
 5
2F
 10
88.947
 20
2551.768
 30
0
 40
20.0
 50
0
 51
60.000704614663
210
0
220
0
230
1.0
 0
LINE
 8
TOOL_0
 5
30
 10
98.947
 20
2569.089
 30
0
 11
79.997
 21
2580.03
 31
0
 0
ARC
 8
TOOL_0
 5
31
 10
64.94
 20
2553.749
 30
0
 40
30.288681219228
 50
60.190595134986
 51
89.023881067348
210
0
220
0
230
1.0
 0
ARC
 8
TOOL_0
 5
32
 10
69.605
 20
2634.401
 30
0
 40
50.537598775565
 50
210.022468551701
 51
265.290871632399
210
0
220
0
230
1.0
 0
LINE
 8
TOOL_0
 5
33
 10
25.848
 20
2609.115
 30
0
 11
19.917
 21
2619.388
 31
0
 0
ARC
 8
TOOL_0
 5
34
 10
24.247
 20
2621.888
 30
0
 40
4.99988999879
 50
180.0
 51
210.000727780827
210
0
220
0
230
1.0
 0
LINE
 8
TOOL_0
 5
35
 10
19.247
 20
2621.888
 30
0
 11
19.247
 21
2666.744
 31
0
 0
ARC
 8
TOOL_0
 5
36
 10
24.247
 20
2666.744
 30
0
 40
5.0
 50
149.999272219172
 51
180.0
210
0
220
0
230
1.0
 0
ARC
 8
TOOL_0
 5
37
 10
439.031
 20
2434.117
 30
0
 40
480.563472524702
 50
149.126824335742
 51
150.707154178525
210
0
220
0
230
1.0
 0
ARC
 8
TOOL_0
 5
38
 10
69.675
 20
2654.171
 30
0
 40
50.628991299452
 50
92.000089241305
 51
148.382563158053
210
0
220
0
230
1.0
 0
ARC
 8
TOOL_0
 5
39
 10
65.247
 20
2734.149
 30
0
 40
29.500259676823
 50
275.175262382546
 51
299.999756651699
210
0
220
0
230
1.0
 0
LINE
 8
TOOL_0
 5
3A
 10
79.997
 20
2708.601
 30
0
 11
98.947
 21
2719.542
 31
0
 0
ARC
 8
TOOL_0
 5
3B
 10
88.947
 20
2736.863
 30
0
 40
20.000426020463
 50
299.999295385337
 51
359.997135211028
210
0
220
0
230
1.0
 0
LINE
 8
TOOL_0
 5
3C
 10
108.947
 20
2736.862
 30
0
 11
108.947
 21
2827.866
 31
0
 0
ARC
 8
TOOL_0
 5
3D
 10
139.947
 20
2827.866
 30
0
 40
31.0
 50
165.000840176945
 51
180.0
210
0
220
0
230
1.0
 0
LINE
 8
TOOL_0
 5
3E
 10
110.003
 20
2835.889
 30
0
 11
117.847
 21
2865.163
 31
0
 0
ARC
 8
TOOL_0
 5
3F
 10
122.677
 20
2863.869
 30
0
 40
5.000333588872
 50
75.002153818105
 51
165.002153818107
210
0
220
0
230
1.0
 0
LINE
 8
TOOL_0
 5
40
 10
123.971
 20
2868.699
 30
0
 11
238.029
 21
2838.137
 31
0
 0
ARC
 8
TOOL_0
 5
41
 10
236.821
 20
2834.041
 30
0
 40
4.270419183172
 50
22.962516747952
 51
73.568058737392
210
0
220
0
230
1.0
 0
ARC
 8
TOOL_0
 5
42
 10
251.798
 20
2842.844
 30
0
 40
13.150239313412
 50
212.869523440027
 51
294.998204550411
210
0
220
0
230
1.0
 0
LINE
 8
TOOL_0
 5
43
 10
257.355
 20
2830.926
 30
0
 11
294.56
 21
2848.275
 31
0
 0
ARC
 8
TOOL_0
 5
44
 10
307.638
 20
2820.135
 30
0
 40
31.030528258475
 50
90.073858521143
 51
114.92654031087
210
0
220
0
230
1.0
 0
LINE
 8
TOOL_0
 5
45
 10
307.598
 20
2851.165
 30
0
 11
381.847
 21
2851.165
 31
0
 0
ARC
 8
TOOL_0
 5
46
 10
381.847
 20
2821.165
 30
0
 40
30.0
 50
0
 51
90.0
210
0
220
0
230
1.0
 0
LINE
 8
TOOL_0
 5
47
 10
411.847
 20
2821.165
 30
0
 11
411.847
 21
2744.19
 31
0
 0
ARC
 8
TOOL_0
 5
48
 10
441.847
 20
2744.19
 30
0
 40
30.0
 50
180.0
 51
225.0
210
0
220
0
230
1.0
 0
LINE
 8
TOOL_0
 5
49
 10
420.634
 20
2722.977
 30
0
 11
442.94
 21
2700.671
 31
0
 0
ARC
 8
TOOL_0
 5
4A
 10
499.109
 20
2756.876
 30
0
 40
79.460421506559
 50
225.018355206648
 51
269.981973616736
210
0
220
0
230
1.0
 0
LINE
 8
TOOL_0
 5
4B
 10
499.084
 20
2677.415
 30
0
 11
622.399
 21
2677.415
 31
0
 0
ARC
 8
TOOL_0
 5
4C
 10
622.362
 20
2696.9
 30
0
 40
19.485035129555
 50
270.108798629405
 51
343.723798868174
210
0
220
0
230
1.0
 0
ARC
 8
TOOL_0
 5
4D
 10
646.247
 20
2689.315
 30
0
 40
5.599476493388
 50
90.0
 51
157.708359014763
210
0
220
0
230
1.0
 0
LINE
 8
TOOL_0
 5
4E
 10
646.247
 20
2694.915
 30
0
 11
717.247
 21
2694.915
 31
0
 0
ARC
 8
TOOL_0
 5
4F
 10
717.247
 20
2689.915
 30
0
 40
5.0
 50
0
 51
90.0
210
0
220
0
230
1.0
 0
LINE
 8
TOOL_0
 5
50
 10
722.247
 20
2689.915
 30
0
 11
724.265
 21
2685.392
 31
0
 0
LINE
 8
TOOL_0
 5
51
 10
724.265
 20
2685.392
 30
0
 11
1067.622
 21
2771.316
 31
0
 0
LINE
 8
TOOL_0
 5
52
 10
1067.622
 20
2771.316
 30
0
 11
1097.622
 21
2771.316
 31
0
 0
LINE
 8
TOOL_0
 5
53
 10
1097.622
 20
2771.316
 30
0
 11
1097.622
 21
2801.316
 31
0
 0
ARC
 8
TOOL_0
 5
54
 10
1087.622
 20
2801.316
 30
0
 40
10.0
 50
0
 51
90.0
210
0
220
0
230
1.0
 0
LINE
 8
TOOL_0
 5
55
 10
1087.622
 20
2811.316
 30
0
 11
1041.622
 21
2811.316
 31
0
 0
ARC
 8
TOOL_0
 5
56
 10
1041.622
 20
2801.316
 30
0
 40
10.0
 50
90.0
 51
180.0
210
0
220
0
230
1.0
 0
LINE
 8
TOOL_0
 5
57
 10
1031.622
 20
2801.316
 30
0
 11
1031.622
 21
2741.316
 31
0
 0
ARC
 8
TOOL_0
 5
58
 10
1041.622
 20
2741.316
 30
0
 40
10.0
 50
180.0
 51
270.0
210
0
220
0
230
1.0
 0
LINE
 8
TOOL_0
 5
59
 10
1041.622
 20
2731.316
 30
0
 11
1087.622
 21
2731.316
 31
0
 0
ARC
 8
TOOL_0
 5
5A
 10
1087.622
 20
2741.316
 30
0
 40
10.0
 50
270.0
 51
0
210
0
220
0
230
1.0
 0
LINE
 8
TOOL_0
 5
5B
 10
1097.622
 20
2741.316
 30
0
 11
1097.622
 21
2771.316
 31
0
 0
LINE
 8
TOOL_0
 5
5C
 10
1097.622
 20
2771.316
 30
0
 11
1094.086
 21
2774.852
 31
0
 0
LINE
 8
TOOL_0
 5
5D
 10
1094.086
 20
2774.852
 30
0
 11
1067.622
 21
2517.317
 31
0
 0
LINE
 8
TOOL_0
 5
5E
 10
1067.622
 20
2517.317
 30
0
 11
1097.622
 21
2517.317
 31
0
 0
LINE
 8
TOOL_0
 5
5F
 10
1097.622
 20
2517.317
 30
0
 11
1097.622
 21
2547.317
 31
0
 0
ARC
 8
TOOL_0
 5
60
 10
1087.622
 20
2547.317
 30
0
 40
10.0
 50
0
 51
90.0
210
0
220
0
230
1.0
 0
LINE
 8
TOOL_0
 5
61
 10
1087.622
 20
2557.317
 30
0
 11
1041.622
 21
2557.317
 31
0
 0
ARC
 8
TOOL_0
 5
62
 10
1041.622
 20
2547.317
 30
0
 40
10.0
 50
90.0
 51
180.0
210
0
220
0
230
1.0
 0
LINE
 8
TOOL_0
 5
63
 10
1031.622
 20
2547.317
 30
0
 11
1031.622
 21
2487.317
 31
0
 0
ARC
 8
TOOL_0
 5
64
 10
1041.622
 20
2487.317
 30
0
 40
10.0
 50
180.0
 51
270.0
210
0
220
0
230
1.0
 0
LINE
 8
TOOL_0
 5
65
 10
1041.622
 20
2477.317
 30
0
 11
1087.622
 21
2477.317
 31
0
 0
ARC
 8
TOOL_0
 5
66
 10
1087.622
 20
2487.317
 30
0
 40
10.0
 50
270.0
 51
0
210
0
220
0
230
1.0
 0
LINE
 8
TOOL_0
 5
67
 10
1097.622
 20
2487.317
 30
0
 11
1097.622
 21
2517.317
 31
0
 0
LINE
 8
TOOL_0
 5
68
 10
1097.622
 20
2517.317
 30
0
 11
1094.086
 21
2520.853
 31
0
 0
LINE
 8
TOOL_0
 5
69
 10
1094.086
 20
2520.853
 30
0
 11
1443.922
 21
2719.932
 31
0
 0
LINE
 8
TOOL_0
 5
6A
 10
1443.922
 20
2719.932
 30
0
 11
1443.922
 21
2689.918
 31
0
 0
LINE
 8
TOOL_0
 5
6B
 10
1443.922
 20
2689.918
 30
0
 11
1443.922
 21
2598.718
 31
0
 0
ARC
 8
TOOL_0
 5
6C
 10
1438.922
 20
2598.718
 30
0
 40
5.0
 50
270.0
 51
0
210
0
220
0
230
1.0
 0
LINE
 8
TOOL_0
 5
6D
 10
1438.922
 20
2593.718
 30
0
 11
1367.922
 21
2593.718
 31
0
 0
ARC
 8
TOOL_0
 5
6E
 10
1367.937
 20
2599.339
 30
0
 40
5.621020014197
 50
197.616124986688
 51
269.847102890477
210
0
220
0
230
1.0
 0
ARC
 8
TOOL_0
 5
6F
 10
1344.074
 20
2591.818
 30
0
 40
19.399598861832
 50
17.457975708298
 51
90.0
210
0
220
0
230
1.0
 0
LINE
 8
TOOL_0
 5
70
 10
1344.074
 20
2611.218
 30
0
 11
1220.76
 21
2611.218
 31
0
 0
ARC
 8
TOOL_0
 5
71
 10
1220.785
 20
2531.757
 30
0
 40
79.461003932747
 50
90.018026383264
 51
134.981644793351
210
0
220
0
230
1.0
 0
LINE
 8
TOOL_0
 5
72
 10
1164.616
 20
2587.962
 30
0
 11
1142.31
 21
2565.656
 31
0
 0
ARC
 8
TOOL_0
 5
73
 10
1163.523
 20
2544.443
 30
0
 40
29.999712298621
 50
134.999999999999
 51
180.0
210
0
220
0
230
1.0
 0
LINE
 8
TOOL_0
 5
74
 10
1133.523
 20
2544.443
 30
0
 11
1133.523
 21
2467.468
 31
0
 0
ARC
 8
TOOL_0
 5
75
 10
1103.523
 20
2467.468
 30
0
 40
30.0
 50
270.0
 51
0
210
0
220
0
230
1.0
 0
LINE
 8
TOOL_0
 5
76
 10
1103.523
 20
2437.468
 30
0
 11
1029.274
 21
2437.468
 31
0
 0
ARC
 8
TOOL_0
 5
77
 10
1029.314
 20
2468.498
 30
0
 40
31.030025781491
 50
245.07345968913
 51
269.926141478857
210
0
220
0
230
1.0
 0
LINE
 8
TOOL_0
 5
78
 10
1016.236
 20
2440.358
 30
0
 11
979.031
 21
2457.707
 31
0
 0
ARC
 8
TOOL_0
 5
79
 10
973.471
 20
2445.741
 30
0
 40
13.194648763798
 50
65.078070366006
 51
151.751006707178
210
0
220
0
230
1.0
 0
ARC
 8
TOOL_0
 5
7A
 10
958.662
 20
2454.281
 30
0
 40
3.926527855498
 50
285.406152710803
 51
324.233323509277
210
0
220
0
230
1.0
 0
LINE
 8
TOOL_0
 5
7B
 10
959.705
 20
2450.496
 30
0
 11
845.647
 21
2419.934
 31
0
 0
ARC
 8
TOOL_0
 5
7C
 10
844.353
 20
2424.764
 30
0
 40
5.000333588872
 50
194.997846181893
 51
284.997846181895
210
0
220
0
230
1.0
 0
LINE
 8
TOOL_0
 5
7D
 10
839.523
 20
2423.47
 30
0
 11
831.679
 21
2452.744
 31
0
 0
ARC
 8
TOOL_0
 5
7E
 10
861.623
 20
2460.767
 30
0
 40
31.00018814459
 50
179.998151749049
 51
194.999159823055
210
0
220
0
230
1.0
 0
LINE
 8
TOOL_0
 5
7F
 10
830.623
 20
2460.768
 30
0
 11
830.623
 21
2551.771
 31
0
 0
ARC
 8
TOOL_0
 5
80
 10
810.623
 20
2551.771
 30
0
 40
20.0
 50
0
 51
60.000704614663
210
0
220
0
230
1.0
 0
LINE
 8
TOOL_0
 5
81
 10
820.623
 20
2569.092
 30
0
 11
801.673
 21
2580.033
 31
0
 0
ARC
 8
TOOL_0
 5
82
 10
786.616
 20
2553.752
 30
0
 40
30.288681219228
 50
60.190595134986
 51
89.023881067348
210
0
220
0
230
1.0
 0
ARC
 8
TOOL_0
 5
83
 10
791.281
 20
2634.404
 30
0
 40
50.537598775565
 50
210.022468551701
 51
265.290871632399
210
0
220
0
230
1.0
 0
LINE
 8
TOOL_0
 5
84
 10
747.524
 20
2609.118
 30
0
 11
741.593
 21
2619.391
 31
0
 0
ARC
 8
TOOL_0
 5
85
 10
745.923
 20
2621.891
 30
0
 40
4.99988999879
 50
180.0
 51
210.000727780827
210
0
220
0
230
1.0
 0
LINE
 8
TOOL_0
 5
86
 10
740.923
 20
2621.891
 30
0
 11
740.923
 21
2666.747
 31
0
 0
ARC
 8
TOOL_0
 5
87
 10
745.923
 20
2666.747
 30
0
 40
5.0
 50
149.999272219173
 51
180.0
210
0
220
0
230
1.0
 0
ARC
 8
TOOL_0
 5
88
 10
1160.707
 20
2434.12
 30
0
 40
480.563472524702
 50
149.126824335742
 51
150.707154178525
210
0
220
0
230
1.0
 0
ARC
 8
TOOL_0
 5
89
 10
791.351
 20
2654.174
 30
0
 40
50.628991299452
 50
92.000089241305
 51
148.382563158053
210
0
220
0
230
1.0
 0
ARC
 8
TOOL_0
 5
8A
 10
786.923
 20
2734.152
 30
0
 40
29.500259676823
 50
275.175262382546
 51
299.999756651699
210
0
220
0
230
1.0
 0
LINE
 8
TOOL_0
 5
8B
 10
801.673
 20
2708.604
 30
0
 11
820.623
 21
2719.545
 31
0
 0
ARC
 8
TOOL_0
 5
8C
 10
810.623
 20
2736.866
 30
0
 40
20.000426020463
 50
299.999295385337
 51
359.997135211028
210
0
220
0
230
1.0
 0
LINE
 8
TOOL_0
 5
8D
 10
830.623
 20
2736.865
 30
0
 11
830.623
 21
2827.869
 31
0
 0
ARC
 8
TOOL_0
 5
8E
 10
861.623
 20
2827.869
 30
0
 40
31.0
 50
165.000840176945
 51
180.0
210
0
220
0
230
1.0
 0
LINE
 8
TOOL_0
 5
8F
 10
831.679
 20
2835.892
 30
0
 11
839.523
 21
2865.166
 31
0
 0
ARC
 8
TOOL_0
 5
90
 10
844.353
 20
2863.872
 30
0
 40
5.000333588872
 50
75.002153818106
 51
165.002153818107
210
0
220
0
230
1.0
 0
LINE
 8
TOOL_0
 5
91
 10
845.647
 20
2868.702
 30
0
 11
959.705
 21
2838.14
 31
0
 0
ARC
 8
TOOL_0
 5
92
 10
958.497
 20
2834.044
 30
0
 40
4.270419183172
 50
22.962516747952
 51
73.568058737392
210
0
220
0
230
1.0
 0
ARC
 8
TOOL_0
 5
93
 10
973.474
 20
2842.847
 30
0
 40
13.150239313412
 50
212.869523440027
 51
294.998204550411
210
0
220
0
230
1.0
 0
LINE
 8
TOOL_0
 5
94
 10
979.031
 20
2830.929
 30
0
 11
1016.236
 21
2848.278
 31
0
 0
ARC
 8
TOOL_0
 5
95
 10
1029.314
 20
2820.138
 30
0
 40
31.030528258475
 50
90.073858521143
 51
114.92654031087
210
0
220
0
230
1.0
 0
LINE
 8
TOOL_0
 5
96
 10
1029.274
 20
2851.168
 30
0
 11
1103.523
 21
2851.168
 31
0
 0
ARC
 8
TOOL_0
 5
97
 10
1103.523
 20
2821.168
 30
0
 40
30.0
 50
0
 51
90.0
210
0
220
0
230
1.0
 0
LINE
 8
TOOL_0
 5
98
 10
1133.523
 20
2821.168
 30
0
 11
1133.523
 21
2744.193
 31
0
 0
ARC
 8
TOOL_0
 5
99
 10
1163.523
 20
2744.193
 30
0
 40
30.0
 50
180.0
 51
225.0
210
0
220
0
230
1.0
 0
LINE
 8
TOOL_0
 5
9A
 10
1142.31
 20
2722.98
 30
0
 11
1164.616
 21
2700.674
 31
0
 0
ARC
 8
TOOL_0
 5
9B
 10
1220.785
 20
2756.879
 30
0
 40
79.460421506559
 50
225.018355206648
 51
269.981973616735
210
0
220
0
230
1.0
 0
LINE
 8
TOOL_0
 5
9C
 10
1220.76
 20
2677.418
 30
0
 11
1344.075
 21
2677.418
 31
0
 0
ARC
 8
TOOL_0
 5
9D
 10
1344.038
 20
2696.903
 30
0
 40
19.485035129555
 50
270.108798629405
 51
343.723798868174
210
0
220
0
230
1.0
 0
ARC
 8
TOOL_0
 5
9E
 10
1367.923
 20
2689.318
 30
0
 40
5.599476493388
 50
90.0
 51
157.708359014763
210
0
220
0
230
1.0
 0
LINE
 8
TOOL_0
 5
9F
 10
1367.923
 20
2694.918
 30
0
 11
1438.923
 21
2694.918
 31
0
 0
ARC
 8
TOOL_0
 5
A0
 10
1438.923
 20
2689.918
 30
0
 40
5.0
 50
0
 51
90.0
210
0
220
0
230
1.0
 0
LINE
 8
TOOL_0
 5
A1
 10
1443.923
 20
2689.918
 30
0
 11
1445.941
 21
2685.395
 31
0
 0
LINE
 8
TOOL_0
 5
A2
 10
1445.941
 20
2685.395
 30
0
 11
1795.803
 21
2825.563
 31
0
 0
LINE
 8
TOOL_0
 5
A3
 10
1795.803
 20
2825.563
 30
0
 11
1825.803
 21
2825.563
 31
0
 0
LINE
 8
TOOL_0
 5
A4
 10
1825.803
 20
2825.563
 30
0
 11
1825.803
 21
2855.563
 31
0
 0
ARC
 8
TOOL_0
 5
A5
 10
1815.803
 20
2855.563
 30
0
 40
10.0
 50
0
 51
90.0
210
0
220
0
230
1.0
 0
LINE
 8
TOOL_0
 5
A6
 10
1815.803
 20
2865.563
 30
0
 11
1769.803
 21
2865.563
 31
0
 0
ARC
 8
TOOL_0
 5
A7
 10
1769.803
 20
2855.563
 30
0
 40
10.0
 50
90.0
 51
180.0
210
0
220
0
230
1.0
 0
LINE
 8
TOOL_0
 5
A8
 10
1759.803
 20
2855.563
 30
0
 11
1759.803
 21
2795.563
 31
0
 0
ARC
 8
TOOL_0
 5
A9
 10
1769.803
 20
2795.563
 30
0
 40
10.0
 50
180.0
 51
270.0
210
0
220
0
230
1.0
 0
LINE
 8
TOOL_0
 5
AA
 10
1769.803
 20
2785.563
 30
0
 11
1815.803
 21
2785.563
 31
0
 0
ARC
 8
TOOL_0
 5
AB
 10
1815.803
 20
2795.563
 30
0
 40
10.0
 50
270.0
 51
0
210
0
220
0
230
1.0
 0
LINE
 8
TOOL_0
 5
AC
 10
1825.803
 20
2795.563
 30
0
 11
1825.803
 21
2825.563
 31
0
 0
LINE
 8
TOOL_0
 5
AD
 10
1825.803
 20
2825.563
 30
0
 11
1822.267
 21
2829.099
 31
0
 0
LINE
 8
TOOL_0
 5
AE
 10
1822.267
 20
2829.099
 30
0
 11
1795.803
 21
2571.563
 31
0
 0
LINE
 8
TOOL_0
 5
AF
 10
1795.803
 20
2571.563
 30
0
 11
1825.803
 21
2571.563
 31
0
 0
LINE
 8
TOOL_0
 5
B0
 10
1825.803
 20
2571.563
 30
0
 11
1825.803
 21
2601.563
 31
0
 0
ARC
 8
TOOL_0
 5
B1
 10
1815.803
 20
2601.563
 30
0
 40
10.0
 50
0
 51
90.0
210
0
220
0
230
1.0
 0
LINE
 8
TOOL_0
 5
B2
 10
1815.803
 20
2611.563
 30
0
 11
1769.803
 21
2611.563
 31
0
 0
ARC
 8
TOOL_0
 5
B3
 10
1769.803
 20
2601.563
 30
0
 40
10.0
 50
90.0
 51
180.0
210
0
220
0
230
1.0
 0
LINE
 8
TOOL_0
 5
B4
 10
1759.803
 20
2601.563
 30
0
 11
1759.803
 21
2541.563
 31
0
 0
ARC
 8
TOOL_0
 5
B5
 10
1769.803
 20
2541.563
 30
0
 40
10.0
 50
180.0
 51
270.0
210
0
220
0
230
1.0
 0
LINE
 8
TOOL_0
 5
B6
 10
1769.803
 20
2531.563
 30
0
 11
1815.803
 21
2531.563
 31
0
 0
ARC
 8
TOOL_0
 5
B7
 10
1815.803
 20
2541.563
 30
0
 40
10.0
 50
270.0
 51
0
210
0
220
0
230
1.0
 0
LINE
 8
TOOL_0
 5
B8
 10
1825.803
 20
2541.563
 30
0
 11
1825.803
 21
2571.563
 31
0
 0
LINE
 8
TOOL_0
 5
B9
 10
1825.803
 20
2571.563
 30
0
 11
1822.267
 21
2575.099
 31
0
 0
LINE
 8
TOOL_0
 5
BA
 10
1822.267
 20
2575.099
 30
0
 11
2172.103
 21
2774.178
 31
0
 0
LINE
 8
TOOL_0
 5
BB
 10
2172.103
 20
2774.178
 30
0
 11
2172.103
 21
2744.163
 31
0
 0
LINE
 8
TOOL_0
 5
BC
 10
2172.103
 20
2744.163
 30
0
 11
2172.103
 21
2652.963
 31
0
 0
ARC
 8
TOOL_0
 5
BD
 10
2167.103
 20
2652.963
 30
0
 40
5.0
 50
270.0
 51
0
210
0
220
0
230
1.0
 0
LINE
 8
TOOL_0
 5
BE
 10
2167.103
 20
2647.963
 30
0
 11
2096.103
 21
2647.963
 31
0
 0
ARC
 8
TOOL_0
 5
BF
 10
2096.118
 20
2653.584
 30
0
 40
5.621020014197
 50
197.616124986688
 51
269.847102890479
210
0
220
0
230
1.0
 0
ARC
 8
TOOL_0
 5
C0
 10
2072.255
 20
2646.063
 30
0
 40
19.399598861832
 50
17.457975708298
 51
90.0
210
0
220
0
230
1.0
 0
LINE
 8
TOOL_0
 5
C1
 10
2072.255
 20
2665.463
 30
0
 11
1948.941
 21
2665.463
 31
0
 0
ARC
 8
TOOL_0
 5
C2
 10
1948.966
 20
2586.002
 30
0
 40
79.461003932747
 50
90.018026383264
 51
134.981644793351
210
0
220
0
230
1.0
 0
LINE
 8
TOOL_0
 5
C3
 10
1892.797
 20
2642.207
 30
0
 11
1870.491
 21
2619.901
 31
0
 0
ARC
 8
TOOL_0
 5
C4
 10
1891.704
 20
2598.688
 30
0
 40
29.999712298621
 50
134.999999999999
 51
180.0
210
0
220
0
230
1.0
 0
LINE
 8
TOOL_0
 5
C5
 10
1861.704
 20
2598.688
 30
0
 11
1861.704
 21
2521.713
 31
0
 0
ARC
 8
TOOL_0
 5
C6
 10
1831.704
 20
2521.713
 30
0
 40
30.0
 50
270.0
 51
0
210
0
220
0
230
1.0
 0
LINE
 8
TOOL_0
 5
C7
 10
1831.704
 20
2491.713
 30
0
 11
1757.455
 21
2491.713
 31
0
 0
ARC
 8
TOOL_0
 5
C8
 10
1757.495
 20
2522.743
 30
0
 40
31.030025781491
 50
245.07345968913
 51
269.926141478857
210
0
220
0
230
1.0
 0
LINE
 8
TOOL_0
 5
C9
 10
1744.417
 20
2494.603
 30
0
 11
1707.212
 21
2511.952
 31
0
 0
ARC
 8
TOOL_0
 5
CA
 10
1701.652
 20
2499.986
 30
0
 40
13.194648763798
 50
65.078070366006
 51
151.751006707178
210
0
220
0
230
1.0
 0
ARC
 8
TOOL_0
 5
CB
 10
1686.843
 20
2508.526
 30
0
 40
3.926527855498
 50
285.406152710802
 51
324.233323509276
210
0
220
0
230
1.0
 0
LINE
 8
TOOL_0
 5
CC
 10
1687.886
 20
2504.741
 30
0
 11
1573.828
 21
2474.179
 31
0
 0
ARC
 8
TOOL_0
 5
CD
 10
1572.534
 20
2479.009
 30
0
 40
5.000333588872
 50
194.997846181893
 51
284.997846181896
210
0
220
0
230
1.0
 0
LINE
 8
TOOL_0
 5
CE
 10
1567.704
 20
2477.715
 30
0
 11
1559.86
 21
2506.989
 31
0
 0
ARC
 8
TOOL_0
 5
CF
 10
1589.804
 20
2515.012
 30
0
 40
31.00018814459
 50
179.998151749049
 51
194.999159823055
210
0
220
0
230
1.0
 0
LINE
 8
TOOL_0
 5
D0
 10
1558.804
 20
2515.013
 30
0
 11
1558.804
 21
2606.016
 31
0
 0
ARC
 8
TOOL_0
 5
D1
 10
1538.804
 20
2606.016
 30
0
 40
20.0
 50
0
 51
60.000704614663
210
0
220
0
230
1.0
 0
LINE
 8
TOOL_0
 5
D2
 10
1548.804
 20
2623.337
 30
0
 11
1529.854
 21
2634.278
 31
0
 0
ARC
 8
TOOL_0
 5
D3
 10
1514.797
 20
2607.997
 30
0
 40
30.288681219228
 50
60.190595134986
 51
89.023881067348
210
0
220
0
230
1.0
 0
ARC
 8
TOOL_0
 5
D4
 10
1519.462
 20
2688.649
 30
0
 40
50.537598775565
 50
210.022468551702
 51
265.290871632399
210
0
220
0
230
1.0
 0
LINE
 8
TOOL_0
 5
D5
 10
1475.705
 20
2663.363
 30
0
 11
1469.774
 21
2673.636
 31
0
 0
ARC
 8
TOOL_0
 5
D6
 10
1474.104
 20
2676.136
 30
0
 40
4.99988999879
 50
180.0
 51
210.000727780828
210
0
220
0
230
1.0
 0
LINE
 8
TOOL_0
 5
D7
 10
1469.104
 20
2676.136
 30
0
 11
1469.104
 21
2720.992
 31
0
 0
ARC
 8
TOOL_0
 5
D8
 10
1474.104
 20
2720.992
 30
0
 40
5.0
 50
149.999272219172
 51
180.0
210
0
220
0
230
1.0
 0
ARC
 8
TOOL_0
 5
D9
 10
1888.888
 20
2488.365
 30
0
 40
480.563472524702
 50
149.126824335742
 51
150.707154178525
210
0
220
0
230
1.0
 0
ARC
 8
TOOL_0
 5
DA
 10
1519.532
 20
2708.419
 30
0
 40
50.628991299452
 50
92.000089241305
 51
148.382563158053
210
0
220
0
230
1.0
 0
ARC
 8
TOOL_0
 5
DB
 10
1515.104
 20
2788.397
 30
0
 40
29.500259676823
 50
275.175262382546
 51
299.999756651699
210
0
220
0
230
1.0
 0
LINE
 8
TOOL_0
 5
DC
 10
1529.854
 20
2762.849
 30
0
 11
1548.804
 21
2773.79
 31
0
 0
ARC
 8
TOOL_0
 5
DD
 10
1538.804
 20
2791.111
 30
0
 40
20.000426020463
 50
299.999295385337
 51
359.997135211028
210
0
220
0
230
1.0
 0
LINE
 8
TOOL_0
 5
DE
 10
1558.804
 20
2791.11
 30
0
 11
1558.804
 21
2882.114
 31
0
 0
ARC
 8
TOOL_0
 5
DF
 10
1589.804
 20
2882.114
 30
0
 40
31.0
 50
165.000840176945
 51
180.0
210
0
220
0
230
1.0
 0
LINE
 8
TOOL_0
 5
E0
 10
1559.86
 20
2890.137
 30
0
 11
1567.704
 21
2919.411
 31
0
 0
ARC
 8
TOOL_0
 5
E1
 10
1572.534
 20
2918.117
 30
0
 40
5.000333588872
 50
75.002153818104
 51
165.002153818107
210
0
220
0
230
1.0
 0
LINE
 8
TOOL_0
 5
E2
 10
1573.828
 20
2922.947
 30
0
 11
1687.886
 21
2892.385
 31
0
 0
ARC
 8
TOOL_0
 5
E3
 10
1686.678
 20
2888.289
 30
0
 40
4.270419183172
 50
22.962516747952
 51
73.568058737391
210
0
220
0
230
1.0
 0
ARC
 8
TOOL_0
 5
E4
 10
1701.655
 20
2897.092
 30
0
 40
13.150239313412
 50
212.869523440027
 51
294.998204550411
210
0
220
0
230
1.0
 0
LINE
 8
TOOL_0
 5
E5
 10
1707.212
 20
2885.174
 30
0
 11
1744.417
 21
2902.523
 31
0
 0
ARC
 8
TOOL_0
 5
E6
 10
1757.495
 20
2874.383
 30
0
 40
31.030528258475
 50
90.073858521143
 51
114.92654031087
210
0
220
0
230
1.0
 0
LINE
 8
TOOL_0
 5
E7
 10
1757.455
 20
2905.413
 30
0
 11
1831.704
 21
2905.413
 31
0
 0
ARC
 8
TOOL_0
 5
E8
 10
1831.704
 20
2875.413
 30
0
 40
30.0
 50
0
 51
90.0
210
0
220
0
230
1.0
 0
LINE
 8
TOOL_0
 5
E9
 10
1861.704
 20
2875.413
 30
0
 11
1861.704
 21
2798.438
 31
0
 0
ARC
 8
TOOL_0
 5
EA
 10
1891.704
 20
2798.438
 30
0
 40
30.0
 50
180.0
 51
225.0
210
0
220
0
230
1.0
 0
LINE
 8
TOOL_0
 5
EB
 10
1870.491
 20
2777.225
 30
0
 11
1892.797
 21
2754.919
 31
0
 0
ARC
 8
TOOL_0
 5
EC
 10
1948.966
 20
2811.124
 30
0
 40
79.460421506559
 50
225.018355206648
 51
269.981973616735
210
0
220
0
230
1.0
 0
LINE
 8
TOOL_0
 5
ED
 10
1948.941
 20
2731.663
 30
0
 11
2072.256
 21
2731.663
 31
0
 0
ARC
 8
TOOL_0
 5
EE
 10
2072.219
 20
2751.148
 30
0
 40
19.485035129555
 50
270.108798629404
 51
343.723798868173
210
0
220
0
230
1.0
 0
ARC
 8
TOOL_0
 5
EF
 10
2096.104
 20
2743.563
 30
0
 40
5.599476493388
 50
90.0
 51
157.708359014763
210
0
220
0
230
1.0
 0
LINE
 8
TOOL_0
 5
F0
 10
2096.104
 20
2749.163
 30
0
 11
2167.104
 21
2749.163
 31
0
 0
ARC
 8
TOOL_0
 5
F1
 10
2167.104
 20
2744.163
 30
0
 40
5.0
 50
0
 51
90.0
210
0
220
0
230
1.0
 0
LINE
 8
TOOL_0
 5
F2
 10
2172.104
 20
2744.163
 30
0
 11
2174.122
 21
2739.64
 31
0
 0
LINE
 8
TOOL_0
 5
F3
 10
2174.122
 20
2739.64
 30
0
 11
2521.137
 21
2806.802
 31
0
 0
LINE
 8
TOOL_0
 5
F4
 10
2521.137
 20
2806.802
 30
0
 11
2551.137
 21
2806.802
 31
0
 0
LINE
 8
TOOL_0
 5
F5
 10
2551.137
 20
2806.802
 30
0
 11
2551.137
 21
2836.802
 31
0
 0
ARC
 8
TOOL_0
 5
F6
 10
2541.137
 20
2836.802
 30
0
 40
10.0
 50
0
 51
90.0
210
0
220
0
230
1.0
 0
LINE
 8
TOOL_0
 5
F7
 10
2541.137
 20
2846.802
 30
0
 11
2495.137
 21
2846.802
 31
0
 0
ARC
 8
TOOL_0
 5
F8
 10
2495.137
 20
2836.802
 30
0
 40
10.0
 50
90.0
 51
180.0
210
0
220
0
230
1.0
 0
LINE
 8
TOOL_0
 5
F9
 10
2485.137
 20
2836.802
 30
0
 11
2485.137
 21
2776.802
 31
0
 0
ARC
 8
TOOL_0
 5
FA
 10
2495.137
 20
2776.802
 30
0
 40
10.0
 50
180.0
 51
270.0
210
0
220
0
230
1.0
 0
LINE
 8
TOOL_0
 5
FB
 10
2495.137
 20
2766.802
 30
0
 11
2541.137
 21
2766.802
 31
0
 0
ARC
 8
TOOL_0
 5
FC
 10
2541.137
 20
2776.802
 30
0
 40
10.0
 50
270.0
 51
0
210
0
220
0
230
1.0
 0
LINE
 8
TOOL_0
 5
FD
 10
2551.137
 20
2776.802
 30
0
 11
2551.137
 21
2806.802
 31
0
 0
LINE
 8
TOOL_0
 5
FE
 10
2551.137
 20
2806.802
 30
0
 11
2547.601
 21
2810.338
 31
0
 0
LINE
 8
TOOL_0
 5
FF
 10
2547.601
 20
2810.338
 30
0
 11
2521.136
 21
2552.802
 31
0
 0
LINE
 8
TOOL_0
 5
100
 10
2521.136
 20
2552.802
 30
0
 11
2551.136
 21
2552.802
 31
0
 0
LINE
 8
TOOL_0
 5
101
 10
2551.136
 20
2552.802
 30
0
 11
2551.136
 21
2582.802
 31
0
 0
ARC
 8
TOOL_0
 5
102
 10
2541.136
 20
2582.802
 30
0
 40
10.0
 50
0
 51
90.0
210
0
220
0
230
1.0
 0
LINE
 8
TOOL_0
 5
103
 10
2541.136
 20
2592.802
 30
0
 11
2495.136
 21
2592.802
 31
0
 0
ARC
 8
TOOL_0
 5
104
 10
2495.136
 20
2582.802
 30
0
 40
10.0
 50
90.0
 51
180.0
210
0
220
0
230
1.0
 0
LINE
 8
TOOL_0
 5
105
 10
2485.136
 20
2582.802
 30
0
 11
2485.136
 21
2522.802
 31
0
 0
ARC
 8
TOOL_0
 5
106
 10
2495.136
 20
2522.802
 30
0
 40
10.0
 50
180.0
 51
270.0
210
0
220
0
230
1.0
 0
LINE
 8
TOOL_0
 5
107
 10
2495.136
 20
2512.802
 30
0
 11
2541.136
 21
2512.802
 31
0
 0
ARC
 8
TOOL_0
 5
108
 10
2541.136
 20
2522.802
 30
0
 40
10.0
 50
270.0
 51
0
210
0
220
0
230
1.0
 0
LINE
 8
TOOL_0
 5
109
 10
2551.136
 20
2522.802
 30
0
 11
2551.136
 21
2552.802
 31
0
 0
LINE
 8
TOOL_0
 5
10A
 10
2551.136
 20
2552.802
 30
0
 11
2547.6
 21
2556.338
 31
0
 0
LINE
 8
TOOL_0
 5
10B
 10
2547.6
 20
2556.338
 30
0
 11
2897.435
 21
2755.417
 31
0
 0
LINE
 8
TOOL_0
 5
10C
 10
2897.435
 20
2755.417
 30
0
 11
2897.435
 21
2725.402
 31
0
 0
LINE
 8
TOOL_0
 5
10D
 10
2897.435
 20
2725.402
 30
0
 11
2897.435
 21
2634.202
 31
0
 0
ARC
 8
TOOL_0
 5
10E
 10
2892.435
 20
2634.202
 30
0
 40
5.0
 50
270.0
 51
0
210
0
220
0
230
1.0
 0
LINE
 8
TOOL_0
 5
10F
 10
2892.435
 20
2629.202
 30
0
 11
2821.435
 21
2629.202
 31
0
 0
ARC
 8
TOOL_0
 5
110
 10
2821.45
 20
2634.823
 30
0
 40
5.621020014197
 50
197.616124986688
 51
269.847102890479
210
0
220
0
230
1.0
 0
ARC
 8
TOOL_0
 5
111
 10
2797.587
 20
2627.302
 30
0
 40
19.399598861832
 50
17.457975708298
 51
90.0
210
0
220
0
230
1.0
 0
LINE
 8
TOOL_0
 5
112
 10
2797.587
 20
2646.702
 30
0
 11
2674.273
 21
2646.702
 31
0
 0
ARC
 8
TOOL_0
 5
113
 10
2674.298
 20
2567.241
 30
0
 40
79.461003932747
 50
90.018026383264
 51
134.981644793351
210
0
220
0
230
1.0
 0
LINE
 8
TOOL_0
 5
114
 10
2618.129
 20
2623.446
 30
0
 11
2595.823
 21
2601.14
 31
0
 0
ARC
 8
TOOL_0
 5
115
 10
2617.036
 20
2579.927
 30
0
 40
29.999712298621
 50
135.0
 51
180.0
210
0
220
0
230
1.0
 0
LINE
 8
TOOL_0
 5
116
 10
2587.036
 20
2579.927
 30
0
 11
2587.036
 21
2502.952
 31
0
 0
ARC
 8
TOOL_0
 5
117
 10
2557.036
 20
2502.952
 30
0
 40
30.0
 50
270.0
 51
0
210
0
220
0
230
1.0
 0
LINE
 8
TOOL_0
 5
118
 10
2557.036
 20
2472.952
 30
0
 11
2482.787
 21
2472.952
 31
0
 0
ARC
 8
TOOL_0
 5
119
 10
2482.827
 20
2503.982
 30
0
 40
31.030025781491
 50
245.07345968913
 51
269.926141478857
210
0
220
0
230
1.0
 0
LINE
 8
TOOL_0
 5
11A
 10
2469.749
 20
2475.842
 30
0
 11
2432.544
 21
2493.191
 31
0
 0
ARC
 8
TOOL_0
 5
11B
 10
2426.984
 20
2481.225
 30
0
 40
13.194648763798
 50
65.078070366006
 51
151.751006707178
210
0
220
0
230
1.0
 0
ARC
 8
TOOL_0
 5
11C
 10
2412.175
 20
2489.765
 30
0
 40
3.926527855498
 50
285.406152710805
 51
324.233323509278
210
0
220
0
230
1.0
 0
LINE
 8
TOOL_0
 5
11D
 10
2413.218
 20
2485.98
 30
0
 11
2299.16
 21
2455.418
 31
0
 0
ARC
 8
TOOL_0
 5
11E
 10
2297.866
 20
2460.248
 30
0
 40
5.000333588872
 50
194.997846181893
 51
284.997846181893
210
0
220
0
230
1.0
 0
LINE
 8
TOOL_0
 5
11F
 10
2293.036
 20
2458.954
 30
0
 11
2285.192
 21
2488.228
 31
0
 0
ARC
 8
TOOL_0
 5
120
 10
2315.136
 20
2496.251
 30
0
 40
31.00018814459
 50
179.998151749049
 51
194.999159823055
210
0
220
0
230
1.0
 0
LINE
 8
TOOL_0
 5
121
 10
2284.136
 20
2496.252
 30
0
 11
2284.136
 21
2587.255
 31
0
 0
ARC
 8
TOOL_0
 5
122
 10
2264.136
 20
2587.255
 30
0
 40
20.0
 50
0
 51
60.000704614663
210
0
220
0
230
1.0
 0
LINE
 8
TOOL_0
 5
123
 10
2274.136
 20
2604.576
 30
0
 11
2255.186
 21
2615.517
 31
0
 0
ARC
 8
TOOL_0
 5
124
 10
2240.129
 20
2589.236
 30
0
 40
30.288681219228
 50
60.190595134986
 51
89.023881067349
210
0
220
0
230
1.0
 0
ARC
 8
TOOL_0
 5
125
 10
2244.794
 20
2669.888
 30
0
 40
50.537598775565
 50
210.022468551701
 51
265.290871632399
210
0
220
0
230
1.0
 0
LINE
 8
TOOL_0
 5
126
 10
2201.037
 20
2644.602
 30
0
 11
2195.106
 21
2654.875
 31
0
 0
ARC
 8
TOOL_0
 5
127
 10
2199.436
 20
2657.375
 30
0
 40
4.99988999879
 50
180.0
 51
210.000727780828
210
0
220
0
230
1.0
 0
LINE
 8
TOOL_0
 5
128
 10
2194.436
 20
2657.375
 30
0
 11
2194.436
 21
2702.231
 31
0
 0
ARC
 8
TOOL_0
 5
129
 10
2199.436
 20
2702.231
 30
0
 40
5.0
 50
149.999272219172
 51
180.0
210
0
220
0
230
1.0
 0
ARC
 8
TOOL_0
 5
12A
 10
2614.22
 20
2469.604
 30
0
 40
480.563472524702
 50
149.126824335742
 51
150.707154178525
210
0
220
0
230
1.0
 0
ARC
 8
TOOL_0
 5
12B
 10
2244.864
 20
2689.658
 30
0
 40
50.628991299452
 50
92.000089241305
 51
148.382563158053
210
0
220
0
230
1.0
 0
ARC
 8
TOOL_0
 5
12C
 10
2240.436
 20
2769.636
 30
0
 40
29.500259676823
 50
275.175262382546
 51
299.999756651699
210
0
220
0
230
1.0
 0
LINE
 8
TOOL_0
 5
12D
 10
2255.186
 20
2744.088
 30
0
 11
2274.136
 21
2755.029
 31
0
 0
ARC
 8
TOOL_0
 5
12E
 10
2264.136
 20
2772.35
 30
0
 40
20.000426020463
 50
299.999295385337
 51
359.997135211028
210
0
220
0
230
1.0
 0
LINE
 8
TOOL_0
 5
12F
 10
2284.136
 20
2772.349
 30
0
 11
2284.136
 21
2863.353
 31
0
 0
ARC
 8
TOOL_0
 5
130
 10
2315.136
 20
2863.353
 30
0
 40
31.0
 50
165.000840176945
 51
180.0
210
0
220
0
230
1.0
 0
LINE
 8
TOOL_0
 5
131
 10
2285.192
 20
2871.376
 30
0
 11
2293.036
 21
2900.65
 31
0
 0
ARC
 8
TOOL_0
 5
132
 10
2297.866
 20
2899.356
 30
0
 40
5.000333588872
 50
75.002153818107
 51
165.002153818107
210
0
220
0
230
1.0
 0
LINE
 8
TOOL_0
 5
133
 10
2299.16
 20
2904.186
 30
0
 11
2413.218
 21
2873.624
 31
0
 0
ARC
 8
TOOL_0
 5
134
 10
2412.01
 20
2869.528
 30
0
 40
4.270419183172
 50
22.962516747951
 51
73.568058737391
210
0
220
0
230
1.0
 0
ARC
 8
TOOL_0
 5
135
 10
2426.987
 20
2878.331
 30
0
 40
13.150239313412
 50
212.869523440027
 51
294.99820455041
210
0
220
0
230
1.0
 0
LINE
 8
TOOL_0
 5
136
 10
2432.544
 20
2866.413
 30
0
 11
2469.749
 21
2883.762
 31
0
 0
ARC
 8
TOOL_0
 5
137
 10
2482.827
 20
2855.622
 30
0
 40
31.030528258475
 50
90.073858521143
 51
114.92654031087
210
0
220
0
230
1.0
 0
LINE
 8
TOOL_0
 5
138
 10
2482.787
 20
2886.652
 30
0
 11
2557.036
 21
2886.652
 31
0
 0
ARC
 8
TOOL_0
 5
139
 10
2557.036
 20
2856.652
 30
0
 40
30.0
 50
0
 51
90.0
210
0
220
0
230
1.0
 0
LINE
 8
TOOL_0
 5
13A
 10
2587.036
 20
2856.652
 30
0
 11
2587.036
 21
2779.677
 31
0
 0
ARC
 8
TOOL_0
 5
13B
 10
2617.036
 20
2779.677
 30
0
 40
30.0
 50
180.0
 51
225.0
210
0
220
0
230
1.0
 0
LINE
 8
TOOL_0
 5
13C
 10
2595.823
 20
2758.464
 30
0
 11
2618.129
 21
2736.158
 31
0
 0
ARC
 8
TOOL_0
 5
13D
 10
2674.298
 20
2792.363
 30
0
 40
79.460421506559
 50
225.018355206648
 51
269.981973616735
210
0
220
0
230
1.0
 0
LINE
 8
TOOL_0
 5
13E
 10
2674.273
 20
2712.902
 30
0
 11
2797.588
 21
2712.902
 31
0
 0
ARC
 8
TOOL_0
 5
13F
 10
2797.551
 20
2732.387
 30
0
 40
19.485035129555
 50
270.108798629404
 51
343.723798868173
210
0
220
0
230
1.0
 0
ARC
 8
TOOL_0
 5
140
 10
2821.436
 20
2724.802
 30
0
 40
5.599476493388
 50
90.0
 51
157.708359014763
210
0
220
0
230
1.0
 0
LINE
 8
TOOL_0
 5
141
 10
2821.436
 20
2730.402
 30
0
 11
2892.436
 21
2730.402
 31
0
 0
ARC
 8
TOOL_0
 5
142
 10
2892.436
 20
2725.402
 30
0
 40
5.0
 50
0
 51
90.0
210
0
220
0
230
1.0
 0
LINE
 8
TOOL_0
 5
143
 10
2897.436
 20
2725.402
 30
0
 11
2899.454
 21
2720.879
 31
0
 0
LINE
 8
TOOL_0
 5
144
 10
2899.454
 20
2720.879
 30
0
 11
3243.218
 21
2822.708
 31
0
 0
LINE
 8
TOOL_0
 5
145
 10
3243.218
 20
2822.708
 30
0
 11
3273.218
 21
2822.708
 31
0
 0
LINE
 8
TOOL_0
 5
146
 10
3273.218
 20
2822.708
 30
0
 11
3273.218
 21
2852.708
 31
0
 0
ARC
 8
TOOL_0
 5
147
 10
3263.218
 20
2852.708
 30
0
 40
10.0
 50
0
 51
90.0
210
0
220
0
230
1.0
 0
LINE
 8
TOOL_0
 5
148
 10
3263.218
 20
2862.708
 30
0
 11
3217.218
 21
2862.708
 31
0
 0
ARC
 8
TOOL_0
 5
149
 10
3217.218
 20
2852.708
 30
0
 40
10.0
 50
90.0
 51
180.0
210
0
220
0
230
1.0
 0
LINE
 8
TOOL_0
 5
14A
 10
3207.218
 20
2852.708
 30
0
 11
3207.218
 21
2792.708
 31
0
 0
ARC
 8
TOOL_0
 5
14B
 10
3217.218
 20
2792.708
 30
0
 40
10.0
 50
180.0
 51
270.0
210
0
220
0
230
1.0
 0
LINE
 8
TOOL_0
 5
14C
 10
3217.218
 20
2782.708
 30
0
 11
3263.218
 21
2782.708
 31
0
 0
ARC
 8
TOOL_0
 5
14D
 10
3263.218
 20
2792.708
 30
0
 40
10.0
 50
270.0
 51
0
210
0
220
0
230
1.0
 0
LINE
 8
TOOL_0
 5
14E
 10
3273.218
 20
2792.708
 30
0
 11
3273.218
 21
2822.708
 31
0
 0
LINE
 8
TOOL_0
 5
14F
 10
3273.218
 20
2822.708
 30
0
 11
3269.682
 21
2826.244
 31
0
 0
LINE
 8
TOOL_0
 5
150
 10
3269.682
 20
2826.244
 30
0
 11
3243.218
 21
2568.709
 31
0
 0
LINE
 8
TOOL_0
 5
151
 10
3243.218
 20
2568.709
 30
0
 11
3273.218
 21
2568.709
 31
0
 0
LINE
 8
TOOL_0
 5
152
 10
3273.218
 20
2568.709
 30
0
 11
3273.218
 21
2598.709
 31
0
 0
ARC
 8
TOOL_0
 5
153
 10
3263.218
 20
2598.709
 30
0
 40
10.0
 50
0
 51
90.0
210
0
220
0
230
1.0
 0
LINE
 8
TOOL_0
 5
154
 10
3263.218
 20
2608.709
 30
0
 11
3217.218
 21
2608.709
 31
0
 0
ARC
 8
TOOL_0
 5
155
 10
3217.218
 20
2598.709
 30
0
 40
10.0
 50
90.0
 51
180.0
210
0
220
0
230
1.0
 0
LINE
 8
TOOL_0
 5
156
 10
3207.218
 20
2598.709
 30
0
 11
3207.218
 21
2538.709
 31
0
 0
ARC
 8
TOOL_0
 5
157
 10
3217.218
 20
2538.709
 30
0
 40
10.0
 50
180.0
 51
270.0
210
0
220
0
230
1.0
 0
LINE
 8
TOOL_0
 5
158
 10
3217.218
 20
2528.709
 30
0
 11
3263.218
 21
2528.709
 31
0
 0
ARC
 8
TOOL_0
 5
159
 10
3263.218
 20
2538.709
 30
0
 40
10.0
 50
270.0
 51
0
210
0
220
0
230
1.0
 0
LINE
 8
TOOL_0
 5
15A
 10
3273.218
 20
2538.709
 30
0
 11
3273.218
 21
2568.709
 31
0
 0
LINE
 8
TOOL_0
 5
15B
 10
3273.218
 20
2568.709
 30
0
 11
3269.682
 21
2572.245
 31
0
 0
LINE
 8
TOOL_0
 5
15C
 10
3269.682
 20
2572.245
 30
0
 11
3619.518
 21
2771.325
 31
0
 0
LINE
 8
TOOL_0
 5
15D
 10
3619.518
 20
2771.325
 30
0
 11
3619.518
 21
2741.31
 31
0
 0
LINE
 8
TOOL_0
 5
15E
 10
3619.518
 20
2741.31
 30
0
 11
3619.518
 21
2650.11
 31
0
 0
ARC
 8
TOOL_0
 5
15F
 10
3614.518
 20
2650.11
 30
0
 40
5.0
 50
270.0
 51
0
210
0
220
0
230
1.0
 0
LINE
 8
TOOL_0
 5
160
 10
3614.518
 20
2645.11
 30
0
 11
3543.518
 21
2645.11
 31
0
 0
ARC
 8
TOOL_0
 5
161
 10
3543.533
 20
2650.731
 30
0
 40
5.621020014197
 50
197.616124986688
 51
269.847102890479
210
0
220
0
230
1.0
 0
ARC
 8
TOOL_0
 5
162
 10
3519.67
 20
2643.21
 30
0
 40
19.399598861832
 50
17.457975708298
 51
90.0
210
0
220
0
230
1.0
 0
LINE
 8
TOOL_0
 5
163
 10
3519.67
 20
2662.61
 30
0
 11
3396.356
 21
2662.61
 31
0
 0
ARC
 8
TOOL_0
 5
164
 10
3396.381
 20
2583.149
 30
0
 40
79.461003932747
 50
90.018026383264
 51
134.981644793351
210
0
220
0
230
1.0
 0
LINE
 8
TOOL_0
 5
165
 10
3340.212
 20
2639.354
 30
0
 11
3317.906
 21
2617.048
 31
0
 0
ARC
 8
TOOL_0
 5
166
 10
3339.119
 20
2595.835
 30
0
 40
29.999712298621
 50
135.0
 51
180.0
210
0
220
0
230
1.0
 0
LINE
 8
TOOL_0
 5
167
 10
3309.119
 20
2595.835
 30
0
 11
3309.119
 21
2518.86
 31
0
 0
ARC
 8
TOOL_0
 5
168
 10
3279.119
 20
2518.86
 30
0
 40
30.0
 50
270.0
 51
0
210
0
220
0
230
1.0
 0
LINE
 8
TOOL_0
 5
169
 10
3279.119
 20
2488.86
 30
0
 11
3204.87
 21
2488.86
 31
0
 0
ARC
 8
TOOL_0
 5
16A
 10
3204.91
 20
2519.89
 30
0
 40
31.030025781491
 50
245.07345968913
 51
269.926141478857
210
0
220
0
230
1.0
 0
LINE
 8
TOOL_0
 5
16B
 10
3191.832
 20
2491.75
 30
0
 11
3154.627
 21
2509.099
 31
0
 0
ARC
 8
TOOL_0
 5
16C
 10
3149.067
 20
2497.133
 30
0
 40
13.194648763798
 50
65.078070366006
 51
151.751006707178
210
0
220
0
230
1.0
 0
ARC
 8
TOOL_0
 5
16D
 10
3134.258
 20
2505.673
 30
0
 40
3.926527855498
 50
285.406152710805
 51
324.233323509278
210
0
220
0
230
1.0
 0
LINE
 8
TOOL_0
 5
16E
 10
3135.301
 20
2501.888
 30
0
 11
3021.243
 21
2471.326
 31
0
 0
ARC
 8
TOOL_0
 5
16F
 10
3019.949
 20
2476.156
 30
0
 40
5.000333588872
 50
194.997846181893
 51
284.997846181893
210
0
220
0
230
1.0
 0
LINE
 8
TOOL_0
 5
170
 10
3015.119
 20
2474.862
 30
0
 11
3007.275
 21
2504.136
 31
0
 0
ARC
 8
TOOL_0
 5
171
 10
3037.219
 20
2512.159
 30
0
 40
31.00018814459
 50
179.998151749049
 51
194.999159823055
210
0
220
0
230
1.0
 0
LINE
 8
TOOL_0
 5
172
 10
3006.219
 20
2512.16
 30
0
 11
3006.219
 21
2603.163
 31
0
 0
ARC
 8
TOOL_0
 5
173
 10
2986.219
 20
2603.163
 30
0
 40
20.0
 50
0
 51
60.000704614663
210
0
220
0
230
1.0
 0
LINE
 8
TOOL_0
 5
174
 10
2996.219
 20
2620.484
 30
0
 11
2977.269
 21
2631.425
 31
0
 0
ARC
 8
TOOL_0
 5
175
 10
2962.212
 20
2605.144
 30
0
 40
30.288681219228
 50
60.190595134986
 51
89.023881067349
210
0
220
0
230
1.0
 0
ARC
 8
TOOL_0
 5
176
 10
2966.877
 20
2685.796
 30
0
 40
50.537598775565
 50
210.022468551701
 51
265.290871632399
210
0
220
0
230
1.0
 0
LINE
 8
TOOL_0
 5
177
 10
2923.12
 20
2660.51
 30
0
 11
2917.189
 21
2670.783
 31
0
 0
ARC
 8
TOOL_0
 5
178
 10
2921.519
 20
2673.283
 30
0
 40
4.99988999879
 50
180.0
 51
210.000727780828
210
0
220
0
230
1.0
 0
LINE
 8
TOOL_0
 5
179
 10
2916.519
 20
2673.283
 30
0
 11
2916.519
 21
2718.139
 31
0
 0
ARC
 8
TOOL_0
 5
17A
 10
2921.519
 20
2718.139
 30
0
 40
5.0
 50
149.999272219172
 51
180.0
210
0
220
0
230
1.0
 0
ARC
 8
TOOL_0
 5
17B
 10
3336.303
 20
2485.512
 30
0
 40
480.563472524702
 50
149.126824335742
 51
150.707154178525
210
0
220
0
230
1.0
 0
ARC
 8
TOOL_0
 5
17C
 10
2966.947
 20
2705.566
 30
0
 40
50.628991299452
 50
92.000089241305
 51
148.382563158053
210
0
220
0
230
1.0
 0
ARC
 8
TOOL_0
 5
17D
 10
2962.519
 20
2785.544
 30
0
 40
29.500259676823
 50
275.175262382546
 51
299.999756651699
210
0
220
0
230
1.0
 0
LINE
 8
TOOL_0
 5
17E
 10
2977.269
 20
2759.996
 30
0
 11
2996.219
 21
2770.937
 31
0
 0
ARC
 8
TOOL_0
 5
17F
 10
2986.219
 20
2788.258
 30
0
 40
20.000426020463
 50
299.999295385337
 51
359.997135211028
210
0
220
0
230
1.0
 0
LINE
 8
TOOL_0
 5
180
 10
3006.219
 20
2788.257
 30
0
 11
3006.219
 21
2879.261
 31
0
 0
ARC
 8
TOOL_0
 5
181
 10
3037.219
 20
2879.261
 30
0
 40
31.0
 50
165.000840176945
 51
180.0
210
0
220
0
230
1.0
 0
LINE
 8
TOOL_0
 5
182
 10
3007.275
 20
2887.284
 30
0
 11
3015.119
 21
2916.558
 31
0
 0
ARC
 8
TOOL_0
 5
183
 10
3019.949
 20
2915.264
 30
0
 40
5.000333588872
 50
75.002153818107
 51
165.002153818107
210
0
220
0
230
1.0
 0
LINE
 8
TOOL_0
 5
184
 10
3021.243
 20
2920.094
 30
0
 11
3135.301
 21
2889.532
 31
0
 0
ARC
 8
TOOL_0
 5
185
 10
3134.093
 20
2885.436
 30
0
 40
4.270419183172
 50
22.962516747951
 51
73.568058737391
210
0
220
0
230
1.0
 0
ARC
 8
TOOL_0
 5
186
 10
3149.07
 20
2894.239
 30
0
 40
13.150239313412
 50
212.869523440027
 51
294.99820455041
210
0
220
0
230
1.0
 0
LINE
 8
TOOL_0
 5
187
 10
3154.627
 20
2882.321
 30
0
 11
3191.832
 21
2899.67
 31
0
 0
ARC
 8
TOOL_0
 5
188
 10
3204.91
 20
2871.53
 30
0
 40
31.030528258475
 50
90.073858521143
 51
114.92654031087
210
0
220
0
230
1.0
 0
LINE
 8
TOOL_0
 5
189
 10
3204.87
 20
2902.56
 30
0
 11
3279.119
 21
2902.56
 31
0
 0
ARC
 8
TOOL_0
 5
18A
 10
3279.119
 20
2872.56
 30
0
 40
30.0
 50
0
 51
90.0
210
0
220
0
230
1.0
 0
LINE
 8
TOOL_0
 5
18B
 10
3309.119
 20
2872.56
 30
0
 11
3309.119
 21
2795.585
 31
0
 0
ARC
 8
TOOL_0
 5
18C
 10
3339.119
 20
2795.585
 30
0
 40
30.0
 50
180.0
 51
225.0
210
0
220
0
230
1.0
 0
LINE
 8
TOOL_0
 5
18D
 10
3317.906
 20
2774.372
 30
0
 11
3340.212
 21
2752.066
 31
0
 0
ARC
 8
TOOL_0
 5
18E
 10
3396.381
 20
2808.271
 30
0
 40
79.460421506559
 50
225.018355206648
 51
269.981973616735
210
0
220
0
230
1.0
 0
LINE
 8
TOOL_0
 5
18F
 10
3396.356
 20
2728.81
 30
0
 11
3519.671
 21
2728.81
 31
0
 0
ARC
 8
TOOL_0
 5
190
 10
3519.634
 20
2748.295
 30
0
 40
19.485035129555
 50
270.108798629404
 51
343.723798868173
210
0
220
0
230
1.0
 0
ARC
 8
TOOL_0
 5
191
 10
3543.519
 20
2740.71
 30
0
 40
5.599476493388
 50
90.0
 51
157.708359014763
210
0
220
0
230
1.0
 0
LINE
 8
TOOL_0
 5
192
 10
3543.519
 20
2746.31
 30
0
 11
3614.519
 21
2746.31
 31
0
 0
ARC
 8
TOOL_0
 5
193
 10
3614.519
 20
2741.31
 30
0
 40
5.0
 50
0
 51
90.0
210
0
220
0
230
1.0
 0
LINE
 8
TOOL_0
 5
194
 10
3619.519
 20
2741.31
 30
0
 11
3621.537
 21
2736.787
 31
0
 0
LINE
 8
TOOL_0
 5
195
 10
3621.537
 20
2736.787
 30
0
 11
1881.329
 21
2366.165
 31
0
 0
LINE
 8
TOOL_0
 5
196
 10
1881.329
 20
2366.165
 30
0
 11
3675.007
 21
2366.165
 31
0
 0
LINE
 8
TOOL_0
 5
197
 10
3675.007
 20
2366.165
 30
0
 11
3675.007
 21
2949.008
 31
0
 0
LINE
 8
TOOL_0
 5
198
 10
3675.007
 20
2949.008
 30
0
 11
3675.007
 21
2950.008
 31
0
 0
ENDSEC
 0
EOF

