0
SECTION
2
TABLES
0
TABLE
2
LAYER
70
0
0
LAYER
2
LAYER_NAME
70
0
62
1
6
CONTINUOUS
0
ENDTAB
0
ENDSEC
 0
SECTION
 2
ENTITIES
 0
LINE
 8
TOOL_0
 5
1
 10
941.751
 20
238.25
 30
0
 11
966.5
 21
213.501
 31
0
 0
ARC
 8
TOOL_0
 5
2
 10
966.5
 20
203.001
 30
0
 40
10.5
 50
0
 51
90.0
210
0
220
0
230
1.0
 0
LINE
 8
TOOL_0
 5
3
 10
977.0
 20
203.001
 30
0
 11
977.0
 21
120.001
 31
0
 0
ARC
 8
TOOL_0
 5
4
 10
966.5
 20
120.001
 30
0
 40
10.5
 50
270.0
 51
0
210
0
220
0
230
1.0
 0
LINE
 8
TOOL_0
 5
5
 10
966.5
 20
109.501
 30
0
 11
668.252
 21
109.501
 31
0
 0
ARC
 8
TOOL_0
 5
6
 10
668.252
 20
60.001
 30
0
 40
49.5
 50
90.0
 51
130.797523909564
210
0
220
0
230
1.0
 0
LINE
 8
TOOL_0
 5
7
 10
635.909
 20
97.474
 30
0
 11
559.205
 21
31.271
 31
0
 0
ARC
 8
TOOL_0
 5
8
 10
526.209
 20
69.501
 30
0
 40
50.500187286781
 50
270.0
 51
310.797208021899
210
0
220
0
230
1.0
 0
LINE
 8
TOOL_0
 5
9
 10
526.209
 20
19.001
 30
0
 11
195.184
 21
19.001
 31
0
 0
ARC
 8
TOOL_0
 5
A
 10
195.184
 20
69.501
 30
0
 40
50.5
 50
250.075925995321
 51
270.0
210
0
220
0
230
1.0
 0
LINE
 8
TOOL_0
 5
B
 10
177.975
 20
22.024
 30
0
 11
88.712
 21
54.378
 31
0
 0
ARC
 8
TOOL_0
 5
C
 10
95.698
 20
73.651
 30
0
 40
20.500066463307
 50
222.797857570943
 51
250.075634603523
210
0
220
0
230
1.0
 0
LINE
 8
TOOL_0
 5
D
 10
80.656
 20
59.723
 30
0
 11
37.771
 21
106.034
 31
0
 0
ARC
 8
TOOL_0
 5
E
 10
89.499
 20
153.935
 30
0
 40
70.500296346895
 50
180.0
 51
222.8002067944
210
0
220
0
230
1.0
 0
LINE
 8
TOOL_0
 5
F
 10
18.999
 20
153.935
 30
0
 11
18.999
 21
169.069
 31
0
 0
ARC
 8
TOOL_0
 5
10
 10
89.499
 20
169.069
 30
0
 40
70.5
 50
137.199793205599
 51
180.0
210
0
220
0
230
1.0
 0
LINE
 8
TOOL_0
 5
11
 10
37.771
 20
216.97
 30
0
 11
80.656
 21
263.281
 31
0
 0
ARC
 8
TOOL_0
 5
12
 10
95.697
 20
249.352
 30
0
 40
20.499968829245
 50
109.920785441378
 51
137.19819273391
210
0
220
0
230
1.0
 0
LINE
 8
TOOL_0
 5
13
 10
88.712
 20
268.626
 30
0
 11
177.975
 21
300.98
 31
0
 0
ARC
 8
TOOL_0
 5
14
 10
195.183
 20
253.502
 30
0
 40
50.50025493005
 50
90.0
 51
109.922620719172
210
0
220
0
230
1.0
 0
LINE
 8
TOOL_0
 5
15
 10
195.183
 20
304.002
 30
0
 11
526.209
 21
304.002
 31
0
 0
ARC
 8
TOOL_0
 5
16
 10
526.209
 20
253.502
 30
0
 40
50.5
 50
49.202791978102
 51
90.0
210
0
220
0
230
1.0
 0
LINE
 8
TOOL_0
 5
17
 10
559.205
 20
291.732
 30
0
 11
635.909
 21
225.529
 31
0
 0
ARC
 8
TOOL_0
 5
18
 10
668.252
 20
263.002
 30
0
 40
49.500458361514
 50
229.202476090435
 51
269.998842509505
210
0
220
0
230
1.0
 0
LINE
 8
TOOL_0
 5
19
 10
668.251
 20
213.502
 30
0
 11
966.499
 21
213.502
 31
0
 0
LINE
 8
TOOL_0
 5
1A
 10
966.499
 20
213.502
 30
0
 11
970.035
 21
217.038
 31
0
 0
LINE
 8
TOOL_0
 5
1B
 10
970.035
 20
217.038
 30
0
 11
607.014
 21
327.914
 31
0
 0
LINE
 8
TOOL_0
 5
1C
 10
607.014
 20
327.914
 30
0
 11
614.33
 21
357.568
 31
0
 0
ARC
 8
TOOL_0
 5
1D
 10
624.83
 20
357.568
 30
0
 40
10.5
 50
90.0
 51
180.0
210
0
220
0
230
1.0
 0
LINE
 8
TOOL_0
 5
1E
 10
624.83
 20
368.068
 30
0
 11
923.078
 21
368.068
 31
0
 0
ARC
 8
TOOL_0
 5
1F
 10
923.078
 20
417.568
 30
0
 40
49.5
 50
270.0
 51
310.796647658846
210
0
220
0
230
1.0
 0
LINE
 8
TOOL_0
 5
20
 10
955.42
 20
380.095
 30
0
 11
1032.124
 21
446.298
 31
0
 0
ARC
 8
TOOL_0
 5
21
 10
1065.12
 20
408.068
 30
0
 40
50.500187286782
 50
90.0
 51
130.797208021898
210
0
220
0
230
1.0
 0
LINE
 8
TOOL_0
 5
22
 10
1065.12
 20
458.568
 30
0
 11
1396.146
 21
458.568
 31
0
 0
ARC
 8
TOOL_0
 5
23
 10
1396.146
 20
408.068
 30
0
 40
50.5
 50
70.077379280828
 51
90.0
210
0
220
0
230
1.0
 0
LINE
 8
TOOL_0
 5
24
 10
1413.354
 20
455.546
 30
0
 11
1502.617
 21
423.192
 31
0
 0
ARC
 8
TOOL_0
 5
25
 10
1495.631
 20
403.919
 30
0
 40
20.500066463307
 50
42.797857570943
 51
70.075634603523
210
0
220
0
230
1.0
 0
LINE
 8
TOOL_0
 5
26
 10
1510.673
 20
417.847
 30
0
 11
1553.558
 21
371.536
 31
0
 0
ARC
 8
TOOL_0
 5
27
 10
1501.83
 20
323.635
 30
0
 40
70.500296346895
 50
0
 51
42.8002067944
210
0
220
0
230
1.0
 0
LINE
 8
TOOL_0
 5
28
 10
1572.33
 20
323.635
 30
0
 11
1572.33
 21
308.5
 31
0
 0
ARC
 8
TOOL_0
 5
29
 10
1501.83
 20
308.5
 30
0
 40
70.5
 50
317.1997932056
 51
0
210
0
220
0
230
1.0
 0
LINE
 8
TOOL_0
 5
2A
 10
1553.558
 20
260.599
 30
0
 11
1510.673
 21
214.288
 31
0
 0
ARC
 8
TOOL_0
 5
2B
 10
1495.632
 20
228.217
 30
0
 40
20.499968829245
 50
289.920785441378
 51
317.19819273391
210
0
220
0
230
1.0
 0
LINE
 8
TOOL_0
 5
2C
 10
1502.617
 20
208.943
 30
0
 11
1413.354
 21
176.589
 31
0
 0
ARC
 8
TOOL_0
 5
2D
 10
1396.146
 20
224.067
 30
0
 40
50.50025493005
 50
269.998865430109
 51
289.922620719172
210
0
220
0
230
1.0
 0
LINE
 8
TOOL_0
 5
2E
 10
1396.145
 20
173.567
 30
0
 11
1065.12
 21
173.567
 31
0
 0
ARC
 8
TOOL_0
 5
2F
 10
1065.12
 20
224.067
 30
0
 40
50.5
 50
229.202791978101
 51
270.0
210
0
220
0
230
1.0
 0
LINE
 8
TOOL_0
 5
30
 10
1032.124
 20
185.837
 30
0
 11
955.421
 21
252.039
 31
0
 0
ARC
 8
TOOL_0
 5
31
 10
923.078
 20
214.566
 30
0
 40
49.500458361514
 50
49.202476090436
 51
90.0
210
0
220
0
230
1.0
 0
LINE
 8
TOOL_0
 5
32
 10
923.078
 20
264.066
 30
0
 11
624.83
 21
264.066
 31
0
 0
ARC
 8
TOOL_0
 5
33
 10
624.83
 20
274.566
 30
0
 40
10.5
 50
180.0
 51
270.0
210
0
220
0
230
1.0
 0
LINE
 8
TOOL_0
 5
34
 10
614.33
 20
274.566
 30
0
 11
614.33
 21
357.566
 31
0
 0
LINE
 8
TOOL_0
 5
35
 10
614.33
 20
357.566
 30
0
 11
612.627
 21
362.362
 31
0
 0
LINE
 8
TOOL_0
 5
36
 10
612.627
 20
362.362
 30
0
 11
2441.67
 21
238.249
 31
0
 0
LINE
 8
TOOL_0
 5
37
 10
2441.67
 20
238.249
 30
0
 11
2466.419
 21
213.5
 31
0
 0
ARC
 8
TOOL_0
 5
38
 10
2466.419
 20
203.0
 30
0
 40
10.5
 50
0
 51
90.0
210
0
220
0
230
1.0
 0
LINE
 8
TOOL_0
 5
39
 10
2476.919
 20
203.0
 30
0
 11
2476.919
 21
120.0
 31
0
 0
ARC
 8
TOOL_0
 5
3A
 10
2466.419
 20
120.0
 30
0
 40
10.5
 50
270.0
 51
0
210
0
220
0
230
1.0
 0
LINE
 8
TOOL_0
 5
3B
 10
2466.419
 20
109.5
 30
0
 11
2168.171
 21
109.5
 31
0
 0
ARC
 8
TOOL_0
 5
3C
 10
2168.171
 20
60.0
 30
0
 40
49.5
 50
90.0
 51
130.797523909564
210
0
220
0
230
1.0
 0
LINE
 8
TOOL_0
 5
3D
 10
2135.828
 20
97.473
 30
0
 11
2059.124
 21
31.27
 31
0
 0
ARC
 8
TOOL_0
 5
3E
 10
2026.128
 20
69.5
 30
0
 40
50.500187286782
 50
270.0
 51
310.797208021899
210
0
220
0
230
1.0
 0
LINE
 8
TOOL_0
 5
3F
 10
2026.128
 20
19.0
 30
0
 11
1695.103
 21
19.0
 31
0
 0
ARC
 8
TOOL_0
 5
40
 10
1695.103
 20
69.5
 30
0
 40
50.5
 50
250.075925995321
 51
270.0
210
0
220
0
230
1.0
 0
LINE
 8
TOOL_0
 5
41
 10
1677.894
 20
22.023
 30
0
 11
1588.631
 21
54.377
 31
0
 0
ARC
 8
TOOL_0
 5
42
 10
1595.617
 20
73.65
 30
0
 40
20.500066463307
 50
222.797857570942
 51
250.075634603523
210
0
220
0
230
1.0
 0
LINE
 8
TOOL_0
 5
43
 10
1580.575
 20
59.722
 30
0
 11
1537.69
 21
106.033
 31
0
 0
ARC
 8
TOOL_0
 5
44
 10
1589.418
 20
153.934
 30
0
 40
70.500296346895
 50
180.0
 51
222.8002067944
210
0
220
0
230
1.0
 0
LINE
 8
TOOL_0
 5
45
 10
1518.918
 20
153.934
 30
0
 11
1518.918
 21
169.068
 31
0
 0
ARC
 8
TOOL_0
 5
46
 10
1589.418
 20
169.068
 30
0
 40
70.5
 50
137.199793205599
 51
180.0
210
0
220
0
230
1.0
 0
LINE
 8
TOOL_0
 5
47
 10
1537.69
 20
216.969
 30
0
 11
1580.575
 21
263.28
 31
0
 0
ARC
 8
TOOL_0
 5
48
 10
1595.616
 20
249.351
 30
0
 40
20.499968829245
 50
109.920785441378
 51
137.19819273391
210
0
220
0
230
1.0
 0
LINE
 8
TOOL_0
 5
49
 10
1588.631
 20
268.625
 30
0
 11
1677.894
 21
300.979
 31
0
 0
ARC
 8
TOOL_0
 5
4A
 10
1695.102
 20
253.501
 30
0
 40
50.50025493005
 50
90.0
 51
109.922620719172
210
0
220
0
230
1.0
 0
LINE
 8
TOOL_0
 5
4B
 10
1695.102
 20
304.001
 30
0
 11
2026.128
 21
304.001
 31
0
 0
ARC
 8
TOOL_0
 5
4C
 10
2026.128
 20
253.501
 30
0
 40
50.5
 50
49.202791978101
 51
90.0
210
0
220
0
230
1.0
 0
LINE
 8
TOOL_0
 5
4D
 10
2059.124
 20
291.731
 30
0
 11
2135.828
 21
225.528
 31
0
 0
ARC
 8
TOOL_0
 5
4E
 10
2168.171
 20
263.001
 30
0
 40
49.500458361514
 50
229.202476090436
 51
269.998842509505
210
0
220
0
230
1.0
 0
LINE
 8
TOOL_0
 5
4F
 10
2168.17
 20
213.501
 30
0
 11
2466.418
 21
213.501
 31
0
 0
LINE
 8
TOOL_0
 5
50
 10
2466.418
 20
213.501
 30
0
 11
2469.954
 21
217.037
 31
0
 0
LINE
 8
TOOL_0
 5
51
 10
2469.954
 20
217.037
 30
0
 11
2113.668
 21
320.438
 31
0
 0
LINE
 8
TOOL_0
 5
52
 10
2113.668
 20
320.438
 30
0
 11
2120.985
 21
350.092
 31
0
 0
ARC
 8
TOOL_0
 5
53
 10
2131.485
 20
350.092
 30
0
 40
10.5
 50
90.0
 51
180.0
210
0
220
0
230
1.0
 0
LINE
 8
TOOL_0
 5
54
 10
2131.485
 20
360.592
 30
0
 11
2429.733
 21
360.592
 31
0
 0
ARC
 8
TOOL_0
 5
55
 10
2429.733
 20
410.092
 30
0
 40
49.5
 50
270.0
 51
310.796647658846
210
0
220
0
230
1.0
 0
LINE
 8
TOOL_0
 5
56
 10
2462.075
 20
372.619
 30
0
 11
2538.779
 21
438.822
 31
0
 0
ARC
 8
TOOL_0
 5
57
 10
2571.775
 20
400.592
 30
0
 40
50.500187286782
 50
90.0
 51
130.797208021898
210
0
220
0
230
1.0
 0
LINE
 8
TOOL_0
 5
58
 10
2571.775
 20
451.092
 30
0
 11
2902.801
 21
451.092
 31
0
 0
ARC
 8
TOOL_0
 5
59
 10
2902.801
 20
400.592
 30
0
 40
50.5
 50
70.077379280828
 51
90.0
210
0
220
0
230
1.0
 0
LINE
 8
TOOL_0
 5
5A
 10
2920.009
 20
448.07
 30
0
 11
3009.272
 21
415.716
 31
0
 0
ARC
 8
TOOL_0
 5
5B
 10
3002.286
 20
396.443
 30
0
 40
20.500066463307
 50
42.797857570943
 51
70.075634603524
210
0
220
0
230
1.0
 0
LINE
 8
TOOL_0
 5
5C
 10
3017.328
 20
410.371
 30
0
 11
3060.213
 21
364.06
 31
0
 0
ARC
 8
TOOL_0
 5
5D
 10
3008.485
 20
316.159
 30
0
 40
70.500296346895
 50
0
 51
42.8002067944
210
0
220
0
230
1.0
 0
LINE
 8
TOOL_0
 5
5E
 10
3078.985
 20
316.159
 30
0
 11
3078.985
 21
301.024
 31
0
 0
ARC
 8
TOOL_0
 5
5F
 10
3008.485
 20
301.024
 30
0
 40
70.5
 50
317.1997932056
 51
0
210
0
220
0
230
1.0
 0
LINE
 8
TOOL_0
 5
60
 10
3060.213
 20
253.123
 30
0
 11
3017.328
 21
206.812
 31
0
 0
ARC
 8
TOOL_0
 5
61
 10
3002.287
 20
220.741
 30
0
 40
20.499968829245
 50
289.920785441379
 51
317.198192733911
210
0
220
0
230
1.0
 0
LINE
 8
TOOL_0
 5
62
 10
3009.272
 20
201.467
 30
0
 11
2920.009
 21
169.113
 31
0
 0
ARC
 8
TOOL_0
 5
63
 10
2902.801
 20
216.591
 30
0
 40
50.50025493005
 50
269.998865430109
 51
289.922620719172
210
0
220
0
230
1.0
 0
LINE
 8
TOOL_0
 5
64
 10
2902.8
 20
166.091
 30
0
 11
2571.775
 21
166.091
 31
0
 0
ARC
 8
TOOL_0
 5
65
 10
2571.775
 20
216.591
 30
0
 40
50.5
 50
229.202791978101
 51
270.0
210
0
220
0
230
1.0
 0
LINE
 8
TOOL_0
 5
66
 10
2538.779
 20
178.361
 30
0
 11
2462.076
 21
244.563
 31
0
 0
ARC
 8
TOOL_0
 5
67
 10
2429.733
 20
207.09
 30
0
 40
49.500458361514
 50
49.202476090436
 51
90.0
210
0
220
0
230
1.0
 0
LINE
 8
TOOL_0
 5
68
 10
2429.733
 20
256.59
 30
0
 11
2131.485
 21
256.59
 31
0
 0
ARC
 8
TOOL_0
 5
69
 10
2131.485
 20
267.09
 30
0
 40
10.5
 50
180.0
 51
270.0
210
0
220
0
230
1.0
 0
LINE
 8
TOOL_0
 5
6A
 10
2120.985
 20
267.09
 30
0
 11
2120.985
 21
350.09
 31
0
 0
LINE
 8
TOOL_0
 5
6B
 10
2120.985
 20
350.09
 30
0
 11
2119.282
 21
354.886
 31
0
 0
LINE
 8
TOOL_0
 5
6C
 10
2119.282
 20
354.886
 30
0
 11
3955.777
 21
238.248
 31
0
 0
LINE
 8
TOOL_0
 5
6D
 10
3955.777
 20
238.248
 30
0
 11
3980.526
 21
213.499
 31
0
 0
ARC
 8
TOOL_0
 5
6E
 10
3980.526
 20
202.999
 30
0
 40
10.5
 50
0
 51
90.0
210
0
220
0
230
1.0
 0
LINE
 8
TOOL_0
 5
6F
 10
3991.026
 20
202.999
 30
0
 11
3991.026
 21
119.999
 31
0
 0
ARC
 8
TOOL_0
 5
70
 10
3980.526
 20
119.999
 30
0
 40
10.5
 50
270.0
 51
0
210
0
220
0
230
1.0
 0
LINE
 8
TOOL_0
 5
71
 10
3980.526
 20
109.499
 30
0
 11
3682.278
 21
109.499
 31
0
 0
ARC
 8
TOOL_0
 5
72
 10
3682.278
 20
59.999
 30
0
 40
49.5
 50
90.0
 51
130.797523909564
210
0
220
0
230
1.0
 0
LINE
 8
TOOL_0
 5
73
 10
3649.935
 20
97.472
 30
0
 11
3573.231
 21
31.269
 31
0
 0
ARC
 8
TOOL_0
 5
74
 10
3540.235
 20
69.499
 30
0
 40
50.500187286782
 50
270.0
 51
310.797208021899
210
0
220
0
230
1.0
 0
LINE
 8
TOOL_0
 5
75
 10
3540.235
 20
18.999
 30
0
 11
3209.21
 21
18.999
 31
0
 0
ARC
 8
TOOL_0
 5
76
 10
3209.21
 20
69.499
 30
0
 40
50.5
 50
250.075925995321
 51
270.0
210
0
220
0
230
1.0
 0
LINE
 8
TOOL_0
 5
77
 10
3192.001
 20
22.022
 30
0
 11
3102.738
 21
54.376
 31
0
 0
ARC
 8
TOOL_0
 5
78
 10
3109.724
 20
73.649
 30
0
 40
20.500066463307
 50
222.797857570943
 51
250.075634603523
210
0
220
0
230
1.0
 0
LINE
 8
TOOL_0
 5
79
 10
3094.682
 20
59.721
 30
0
 11
3051.797
 21
106.032
 31
0
 0
ARC
 8
TOOL_0
 5
7A
 10
3103.525
 20
153.933
 30
0
 40
70.500296346895
 50
180.0
 51
222.8002067944
210
0
220
0
230
1.0
 0
LINE
 8
TOOL_0
 5
7B
 10
3033.025
 20
153.933
 30
0
 11
3033.025
 21
169.067
 31
0
 0
ARC
 8
TOOL_0
 5
7C
 10
3103.525
 20
169.067
 30
0
 40
70.5
 50
137.199793205599
 51
180.0
210
0
220
0
230
1.0
 0
LINE
 8
TOOL_0
 5
7D
 10
3051.797
 20
216.968
 30
0
 11
3094.682
 21
263.279
 31
0
 0
ARC
 8
TOOL_0
 5
7E
 10
3109.723
 20
249.35
 30
0
 40
20.499968829245
 50
109.920785441379
 51
137.19819273391
210
0
220
0
230
1.0
 0
LINE
 8
TOOL_0
 5
7F
 10
3102.738
 20
268.624
 30
0
 11
3192.001
 21
300.978
 31
0
 0
ARC
 8
TOOL_0
 5
80
 10
3209.209
 20
253.5
 30
0
 40
50.50025493005
 50
90.0
 51
109.922620719172
210
0
220
0
230
1.0
 0
LINE
 8
TOOL_0
 5
81
 10
3209.209
 20
304.0
 30
0
 11
3540.235
 21
304.0
 31
0
 0
ARC
 8
TOOL_0
 5
82
 10
3540.235
 20
253.5
 30
0
 40
50.5
 50
49.202791978101
 51
90.0
210
0
220
0
230
1.0
 0
LINE
 8
TOOL_0
 5
83
 10
3573.231
 20
291.73
 30
0
 11
3649.935
 21
225.527
 31
0
 0
ARC
 8
TOOL_0
 5
84
 10
3682.278
 20
263.0
 30
0
 40
49.500458361514
 50
229.202476090436
 51
269.998842509505
210
0
220
0
230
1.0
 0
LINE
 8
TOOL_0
 5
85
 10
3682.277
 20
213.5
 30
0
 11
3980.525
 21
213.5
 31
0
 0
LINE
 8
TOOL_0
 5
86
 10
3980.525
 20
213.5
 30
0
 11
3984.061
 21
217.036
 31
0
 0
LINE
 8
TOOL_0
 5
87
 10
3984.061
 20
217.036
 30
0
 11
3625.54
 21
322.68
 31
0
 0
LINE
 8
TOOL_0
 5
88
 10
3625.54
 20
322.68
 30
0
 11
3632.857
 21
352.334
 31
0
 0
ARC
 8
TOOL_0
 5
89
 10
3643.357
 20
352.334
 30
0
 40
10.5
 50
90.0
 51
180.0
210
0
220
0
230
1.0
 0
LINE
 8
TOOL_0
 5
8A
 10
3643.357
 20
362.834
 30
0
 11
3941.605
 21
362.834
 31
0
 0
ARC
 8
TOOL_0
 5
8B
 10
3941.605
 20
412.334
 30
0
 40
49.5
 50
270.0
 51
310.796647658846
210
0
220
0
230
1.0
 0
LINE
 8
TOOL_0
 5
8C
 10
3973.947
 20
374.861
 30
0
 11
4050.651
 21
441.064
 31
0
 0
ARC
 8
TOOL_0
 5
8D
 10
4083.647
 20
402.834
 30
0
 40
50.500187286782
 50
90.0
 51
130.797208021898
210
0
220
0
230
1.0
 0
LINE
 8
TOOL_0
 5
8E
 10
4083.647
 20
453.334
 30
0
 11
4414.673
 21
453.334
 31
0
 0
ARC
 8
TOOL_0
 5
8F
 10
4414.673
 20
402.834
 30
0
 40
50.5
 50
70.077379280829
 51
90.0
210
0
220
0
230
1.0
 0
LINE
 8
TOOL_0
 5
90
 10
4431.881
 20
450.312
 30
0
 11
4521.144
 21
417.958
 31
0
 0
ARC
 8
TOOL_0
 5
91
 10
4514.158
 20
398.685
 30
0
 40
20.500066463307
 50
42.797857570944
 51
70.075634603524
210
0
220
0
230
1.0
 0
LINE
 8
TOOL_0
 5
92
 10
4529.2
 20
412.613
 30
0
 11
4572.085
 21
366.302
 31
0
 0
ARC
 8
TOOL_0
 5
93
 10
4520.357
 20
318.401
 30
0
 40
70.500296346895
 50
0
 51
42.8002067944
210
0
220
0
230
1.0
 0
LINE
 8
TOOL_0
 5
94
 10
4590.857
 20
318.401
 30
0
 11
4590.857
 21
303.266
 31
0
 0
ARC
 8
TOOL_0
 5
95
 10
4520.357
 20
303.266
 30
0
 40
70.5
 50
317.1997932056
 51
0
210
0
220
0
230
1.0
 0
LINE
 8
TOOL_0
 5
96
 10
4572.085
 20
255.365
 30
0
 11
4529.2
 21
209.054
 31
0
 0
ARC
 8
TOOL_0
 5
97
 10
4514.159
 20
222.983
 30
0
 40
20.499968829245
 50
289.92078544138
 51
317.198192733911
210
0
220
0
230
1.0
 0
LINE
 8
TOOL_0
 5
98
 10
4521.144
 20
203.709
 30
0
 11
4431.881
 21
171.355
 31
0
 0
ARC
 8
TOOL_0
 5
99
 10
4414.673
 20
218.833
 30
0
 40
50.50025493005
 50
269.998865430108
 51
289.922620719171
210
0
220
0
230
1.0
 0
LINE
 8
TOOL_0
 5
9A
 10
4414.672
 20
168.333
 30
0
 11
4083.647
 21
168.333
 31
0
 0
ARC
 8
TOOL_0
 5
9B
 10
4083.647
 20
218.833
 30
0
 40
50.5
 50
229.202791978101
 51
270.0
210
0
220
0
230
1.0
 0
LINE
 8
TOOL_0
 5
9C
 10
4050.651
 20
180.603
 30
0
 11
3973.948
 21
246.805
 31
0
 0
ARC
 8
TOOL_0
 5
9D
 10
3941.605
 20
209.332
 30
0
 40
49.500458361514
 50
49.202476090436
 51
90.0
210
0
220
0
230
1.0
 0
LINE
 8
TOOL_0
 5
9E
 10
3941.605
 20
258.832
 30
0
 11
3643.357
 21
258.832
 31
0
 0
ARC
 8
TOOL_0
 5
9F
 10
3643.357
 20
269.332
 30
0
 40
10.5
 50
180.0
 51
270.0
210
0
220
0
230
1.0
 0
LINE
 8
TOOL_0
 5
A0
 10
3632.857
 20
269.332
 30
0
 11
3632.857
 21
352.332
 31
0
 0
LINE
 8
TOOL_0
 5
A1
 10
3632.857
 20
352.332
 30
0
 11
3631.154
 21
357.128
 31
0
 0
LINE
 8
TOOL_0
 5
A2
 10
3631.154
 20
357.128
 30
0
 11
5465.413
 21
238.248
 31
0
 0
LINE
 8
TOOL_0
 5
A3
 10
5465.413
 20
238.248
 30
0
 11
5490.161
 21
213.499
 31
0
 0
ARC
 8
TOOL_0
 5
A4
 10
5490.161
 20
202.999
 30
0
 40
10.5
 50
0
 51
90.0
210
0
220
0
230
1.0
 0
LINE
 8
TOOL_0
 5
A5
 10
5500.661
 20
202.999
 30
0
 11
5500.661
 21
119.999
 31
0
 0
ARC
 8
TOOL_0
 5
A6
 10
5490.161
 20
119.999
 30
0
 40
10.5
 50
270.0
 51
0
210
0
220
0
230
1.0
 0
LINE
 8
TOOL_0
 5
A7
 10
5490.161
 20
109.499
 30
0
 11
5191.913
 21
109.499
 31
0
 0
ARC
 8
TOOL_0
 5
A8
 10
5191.913
 20
59.999
 30
0
 40
49.5
 50
90.0
 51
130.797523909564
210
0
220
0
230
1.0
 0
LINE
 8
TOOL_0
 5
A9
 10
5159.57
 20
97.472
 30
0
 11
5082.866
 21
31.269
 31
0
 0
ARC
 8
TOOL_0
 5
AA
 10
5049.87
 20
69.499
 30
0
 40
50.500187286782
 50
270.0
 51
310.797208021899
210
0
220
0
230
1.0
 0
LINE
 8
TOOL_0
 5
AB
 10
5049.87
 20
18.999
 30
0
 11
4718.845
 21
18.999
 31
0
 0
ARC
 8
TOOL_0
 5
AC
 10
4718.845
 20
69.499
 30
0
 40
50.5
 50
250.075925995321
 51
270.0
210
0
220
0
230
1.0
 0
LINE
 8
TOOL_0
 5
AD
 10
4701.636
 20
22.022
 30
0
 11
4612.373
 21
54.376
 31
0
 0
ARC
 8
TOOL_0
 5
AE
 10
4619.359
 20
73.649
 30
0
 40
20.500066463307
 50
222.797857570944
 51
250.075634603523
210
0
220
0
230
1.0
 0
LINE
 8
TOOL_0
 5
AF
 10
4604.317
 20
59.721
 30
0
 11
4561.432
 21
106.032
 31
0
 0
ARC
 8
TOOL_0
 5
B0
 10
4613.16
 20
153.933
 30
0
 40
70.500296346895
 50
180.0
 51
222.8002067944
210
0
220
0
230
1.0
 0
LINE
 8
TOOL_0
 5
B1
 10
4542.66
 20
153.933
 30
0
 11
4542.66
 21
169.067
 31
0
 0
ARC
 8
TOOL_0
 5
B2
 10
4613.16
 20
169.067
 30
0
 40
70.5
 50
137.199793205599
 51
180.0
210
0
220
0
230
1.0
 0
LINE
 8
TOOL_0
 5
B3
 10
4561.432
 20
216.968
 30
0
 11
4604.317
 21
263.279
 31
0
 0
ARC
 8
TOOL_0
 5
B4
 10
4619.358
 20
249.35
 30
0
 40
20.499968829245
 50
109.92078544138
 51
137.19819273391
210
0
220
0
230
1.0
 0
LINE
 8
TOOL_0
 5
B5
 10
4612.373
 20
268.624
 30
0
 11
4701.636
 21
300.978
 31
0
 0
ARC
 8
TOOL_0
 5
B6
 10
4718.844
 20
253.5
 30
0
 40
50.50025493005
 50
90.0
 51
109.922620719171
210
0
220
0
230
1.0
 0
LINE
 8
TOOL_0
 5
B7
 10
4718.844
 20
304.0
 30
0
 11
5049.87
 21
304.0
 31
0
 0
ARC
 8
TOOL_0
 5
B8
 10
5049.87
 20
253.5
 30
0
 40
50.5
 50
49.202791978101
 51
90.0
210
0
220
0
230
1.0
 0
LINE
 8
TOOL_0
 5
B9
 10
5082.866
 20
291.73
 30
0
 11
5159.57
 21
225.527
 31
0
 0
ARC
 8
TOOL_0
 5
BA
 10
5191.913
 20
263.0
 30
0
 40
49.500458361514
 50
229.202476090436
 51
269.998842509504
210
0
220
0
230
1.0
 0
LINE
 8
TOOL_0
 5
BB
 10
5191.912
 20
213.5
 30
0
 11
5490.16
 21
213.5
 31
0
 0
LINE
 8
TOOL_0
 5
BC
 10
5490.16
 20
213.5
 30
0
 11
5493.696
 21
217.036
 31
0
 0
LINE
 8
TOOL_0
 5
BD
 10
5493.696
 20
217.036
 30
0
 11
5128.468
 21
328.659
 31
0
 0
LINE
 8
TOOL_0
 5
BE
 10
5128.468
 20
328.659
 30
0
 11
5135.784
 21
358.313
 31
0
 0
ARC
 8
TOOL_0
 5
BF
 10
5146.284
 20
358.313
 30
0
 40
10.5
 50
90.0
 51
180.0
210
0
220
0
230
1.0
 0
LINE
 8
TOOL_0
 5
C0
 10
5146.284
 20
368.813
 30
0
 11
5444.532
 21
368.813
 31
0
 0
ARC
 8
TOOL_0
 5
C1
 10
5444.532
 20
418.313
 30
0
 40
49.5
 50
270.0
 51
310.796647658845
210
0
220
0
230
1.0
 0
LINE
 8
TOOL_0
 5
C2
 10
5476.874
 20
380.84
 30
0
 11
5553.578
 21
447.043
 31
0
 0
ARC
 8
TOOL_0
 5
C3
 10
5586.574
 20
408.813
 30
0
 40
50.500187286782
 50
90.0
 51
130.797208021898
210
0
220
0
230
1.0
 0
LINE
 8
TOOL_0
 5
C4
 10
5586.574
 20
459.313
 30
0
 11
5917.6
 21
459.313
 31
0
 0
ARC
 8
TOOL_0
 5
C5
 10
5917.6
 20
408.813
 30
0
 40
50.5
 50
70.077379280829
 51
90.0
210
0
220
0
230
1.0
 0
LINE
 8
TOOL_0
 5
C6
 10
5934.808
 20
456.291
 30
0
 11
6024.071
 21
423.937
 31
0
 0
ARC
 8
TOOL_0
 5
C7
 10
6017.085
 20
404.664
 30
0
 40
20.500066463307
 50
42.797857570944
 51
70.075634603524
210
0
220
0
230
1.0
 0
LINE
 8
TOOL_0
 5
C8
 10
6032.127
 20
418.592
 30
0
 11
6075.012
 21
372.281
 31
0
 0
ARC
 8
TOOL_0
 5
C9
 10
6023.284
 20
324.38
 30
0
 40
70.500296346895
 50
0
 51
42.8002067944
210
0
220
0
230
1.0
 0
LINE
 8
TOOL_0
 5
CA
 10
6093.784
 20
324.38
 30
0
 11
6093.784
 21
309.245
 31
0
 0
ARC
 8
TOOL_0
 5
CB
 10
6023.284
 20
309.245
 30
0
 40
70.5
 50
317.1997932056
 51
0
210
0
220
0
230
1.0
 0
LINE
 8
TOOL_0
 5
CC
 10
6075.012
 20
261.344
 30
0
 11
6032.127
 21
215.033
 31
0
 0
ARC
 8
TOOL_0
 5
CD
 10
6017.086
 20
228.962
 30
0
 40
20.499968829245
 50
289.92078544138
 51
317.198192733911
210
0
220
0
230
1.0
 0
LINE
 8
TOOL_0
 5
CE
 10
6024.071
 20
209.688
 30
0
 11
5934.808
 21
177.334
 31
0
 0
ARC
 8
TOOL_0
 5
CF
 10
5917.6
 20
224.812
 30
0
 40
50.50025493005
 50
269.998865430108
 51
289.922620719171
210
0
220
0
230
1.0
 0
LINE
 8
TOOL_0
 5
D0
 10
5917.599
 20
174.312
 30
0
 11
5586.574
 21
174.312
 31
0
 0
ARC
 8
TOOL_0
 5
D1
 10
5586.574
 20
224.812
 30
0
 40
50.5
 50
229.202791978101
 51
270.0
210
0
220
0
230
1.0
 0
LINE
 8
TOOL_0
 5
D2
 10
5553.578
 20
186.582
 30
0
 11
5476.875
 21
252.784
 31
0
 0
ARC
 8
TOOL_0
 5
D3
 10
5444.532
 20
215.311
 30
0
 40
49.500458361514
 50
49.202476090436
 51
90.0
210
0
220
0
230
1.0
 0
LINE
 8
TOOL_0
 5
D4
 10
5444.532
 20
264.811
 30
0
 11
5146.284
 21
264.811
 31
0
 0
ARC
 8
TOOL_0
 5
D5
 10
5146.284
 20
275.311
 30
0
 40
10.5
 50
180.0
 51
270.0
210
0
220
0
230
1.0
 0
LINE
 8
TOOL_0
 5
D6
 10
5135.784
 20
275.311
 30
0
 11
5135.784
 21
358.311
 31
0
 0
LINE
 8
TOOL_0
 5
D7
 10
5135.784
 20
358.311
 30
0
 11
5134.081
 21
363.107
 31
0
 0
LINE
 8
TOOL_0
 5
D8
 10
5134.081
 20
363.107
 30
0
 11
6964.615
 21
238.247
 31
0
 0
LINE
 8
TOOL_0
 5
D9
 10
6964.615
 20
238.247
 30
0
 11
6989.364
 21
213.498
 31
0
 0
ARC
 8
TOOL_0
 5
DA
 10
6989.364
 20
202.998
 30
0
 40
10.5
 50
0
 51
90.0
210
0
220
0
230
1.0
 0
LINE
 8
TOOL_0
 5
DB
 10
6999.864
 20
202.998
 30
0
 11
6999.864
 21
119.998
 31
0
 0
ARC
 8
TOOL_0
 5
DC
 10
6989.364
 20
119.998
 30
0
 40
10.5
 50
270.0
 51
0
210
0
220
0
230
1.0
 0
LINE
 8
TOOL_0
 5
DD
 10
6989.364
 20
109.498
 30
0
 11
6691.116
 21
109.498
 31
0
 0
ARC
 8
TOOL_0
 5
DE
 10
6691.116
 20
59.998
 30
0
 40
49.5
 50
90.0
 51
130.797523909564
210
0
220
0
230
1.0
 0
LINE
 8
TOOL_0
 5
DF
 10
6658.773
 20
97.471
 30
0
 11
6582.069
 21
31.268
 31
0
 0
ARC
 8
TOOL_0
 5
E0
 10
6549.073
 20
69.498
 30
0
 40
50.500187286782
 50
270.0
 51
310.797208021899
210
0
220
0
230
1.0
 0
LINE
 8
TOOL_0
 5
E1
 10
6549.073
 20
18.998
 30
0
 11
6218.048
 21
18.998
 31
0
 0
ARC
 8
TOOL_0
 5
E2
 10
6218.048
 20
69.498
 30
0
 40
50.5
 50
250.075925995321
 51
270.0
210
0
220
0
230
1.0
 0
LINE
 8
TOOL_0
 5
E3
 10
6200.839
 20
22.021
 30
0
 11
6111.576
 21
54.375
 31
0
 0
ARC
 8
TOOL_0
 5
E4
 10
6118.562
 20
73.648
 30
0
 40
20.500066463307
 50
222.797857570944
 51
250.075634603523
210
0
220
0
230
1.0
 0
LINE
 8
TOOL_0
 5
E5
 10
6103.52
 20
59.72
 30
0
 11
6060.635
 21
106.031
 31
0
 0
ARC
 8
TOOL_0
 5
E6
 10
6112.363
 20
153.932
 30
0
 40
70.500296346895
 50
180.0
 51
222.8002067944
210
0
220
0
230
1.0
 0
LINE
 8
TOOL_0
 5
E7
 10
6041.863
 20
153.932
 30
0
 11
6041.863
 21
169.066
 31
0
 0
ARC
 8
TOOL_0
 5
E8
 10
6112.363
 20
169.066
 30
0
 40
70.5
 50
137.199793205599
 51
180.0
210
0
220
0
230
1.0
 0
LINE
 8
TOOL_0
 5
E9
 10
6060.635
 20
216.967
 30
0
 11
6103.52
 21
263.278
 31
0
 0
ARC
 8
TOOL_0
 5
EA
 10
6118.561
 20
249.349
 30
0
 40
20.499968829245
 50
109.92078544138
 51
137.19819273391
210
0
220
0
230
1.0
 0
LINE
 8
TOOL_0
 5
EB
 10
6111.576
 20
268.623
 30
0
 11
6200.839
 21
300.977
 31
0
 0
ARC
 8
TOOL_0
 5
EC
 10
6218.047
 20
253.499
 30
0
 40
50.50025493005
 50
90.0
 51
109.922620719171
210
0
220
0
230
1.0
 0
LINE
 8
TOOL_0
 5
ED
 10
6218.047
 20
303.999
 30
0
 11
6549.073
 21
303.999
 31
0
 0
ARC
 8
TOOL_0
 5
EE
 10
6549.073
 20
253.499
 30
0
 40
50.5
 50
49.202791978101
 51
90.0
210
0
220
0
230
1.0
 0
LINE
 8
TOOL_0
 5
EF
 10
6582.069
 20
291.729
 30
0
 11
6658.773
 21
225.526
 31
0
 0
ARC
 8
TOOL_0
 5
F0
 10
6691.116
 20
262.999
 30
0
 40
49.500458361514
 50
229.202476090436
 51
269.998842509504
210
0
220
0
230
1.0
 0
LINE
 8
TOOL_0
 5
F1
 10
6691.115
 20
213.499
 30
0
 11
6989.363
 21
213.499
 31
0
 0
LINE
 8
TOOL_0
 5
F2
 10
6989.363
 20
213.499
 30
0
 11
6992.899
 21
217.035
 31
0
 0
LINE
 8
TOOL_0
 5
F3
 10
6992.899
 20
217.035
 30
0
 11
6628.416
 21
327.911
 31
0
 0
LINE
 8
TOOL_0
 5
F4
 10
6628.416
 20
327.911
 30
0
 11
6635.733
 21
357.565
 31
0
 0
ARC
 8
TOOL_0
 5
F5
 10
6646.233
 20
357.565
 30
0
 40
10.5
 50
90.0
 51
180.0
210
0
220
0
230
1.0
 0
LINE
 8
TOOL_0
 5
F6
 10
6646.233
 20
368.065
 30
0
 11
6944.481
 21
368.065
 31
0
 0
ARC
 8
TOOL_0
 5
F7
 10
6944.481
 20
417.565
 30
0
 40
49.5
 50
270.0
 51
310.796647658845
210
0
220
0
230
1.0
 0
LINE
 8
TOOL_0
 5
F8
 10
6976.823
 20
380.092
 30
0
 11
7053.527
 21
446.295
 31
0
 0
ARC
 8
TOOL_0
 5
F9
 10
7086.523
 20
408.065
 30
0
 40
50.500187286782
 50
90.0
 51
130.797208021898
210
0
220
0
230
1.0
 0
LINE
 8
TOOL_0
 5
FA
 10
7086.523
 20
458.565
 30
0
 11
7417.549
 21
458.565
 31
0
 0
ARC
 8
TOOL_0
 5
FB
 10
7417.549
 20
408.065
 30
0
 40
50.5
 50
70.077379280829
 51
90.0
210
0
220
0
230
1.0
 0
LINE
 8
TOOL_0
 5
FC
 10
7434.757
 20
455.543
 30
0
 11
7524.02
 21
423.189
 31
0
 0
ARC
 8
TOOL_0
 5
FD
 10
7517.034
 20
403.916
 30
0
 40
20.500066463307
 50
42.797857570944
 51
70.075634603524
210
0
220
0
230
1.0
 0
LINE
 8
TOOL_0
 5
FE
 10
7532.076
 20
417.844
 30
0
 11
7574.961
 21
371.533
 31
0
 0
ARC
 8
TOOL_0
 5
FF
 10
7523.233
 20
323.632
 30
0
 40
70.500296346895
 50
0
 51
42.8002067944
210
0
220
0
230
1.0
 0
LINE
 8
TOOL_0
 5
100
 10
7593.733
 20
323.632
 30
0
 11
7593.733
 21
308.497
 31
0
 0
ARC
 8
TOOL_0
 5
101
 10
7523.233
 20
308.497
 30
0
 40
70.5
 50
317.1997932056
 51
0
210
0
220
0
230
1.0
 0
LINE
 8
TOOL_0
 5
102
 10
7574.961
 20
260.596
 30
0
 11
7532.076
 21
214.285
 31
0
 0
ARC
 8
TOOL_0
 5
103
 10
7517.035
 20
228.214
 30
0
 40
20.499968829245
 50
289.92078544138
 51
317.198192733911
210
0
220
0
230
1.0
 0
LINE
 8
TOOL_0
 5
104
 10
7524.02
 20
208.94
 30
0
 11
7434.757
 21
176.586
 31
0
 0
ARC
 8
TOOL_0
 5
105
 10
7417.549
 20
224.064
 30
0
 40
50.50025493005
 50
269.998865430108
 51
289.922620719171
210
0
220
0
230
1.0
 0
LINE
 8
TOOL_0
 5
106
 10
7417.548
 20
173.564
 30
0
 11
7086.523
 21
173.564
 31
0
 0
ARC
 8
TOOL_0
 5
107
 10
7086.523
 20
224.064
 30
0
 40
50.5
 50
229.202791978101
 51
270.0
210
0
220
0
230
1.0
 0
LINE
 8
TOOL_0
 5
108
 10
7053.527
 20
185.834
 30
0
 11
6976.824
 21
252.036
 31
0
 0
ARC
 8
TOOL_0
 5
109
 10
6944.481
 20
214.563
 30
0
 40
49.500458361514
 50
49.202476090436
 51
90.0
210
0
220
0
230
1.0
 0
LINE
 8
TOOL_0
 5
10A
 10
6944.481
 20
264.063
 30
0
 11
6646.233
 21
264.063
 31
0
 0
ARC
 8
TOOL_0
 5
10B
 10
6646.233
 20
274.563
 30
0
 40
10.5
 50
180.0
 51
270.0
210
0
220
0
230
1.0
 0
LINE
 8
TOOL_0
 5
10C
 10
6635.733
 20
274.563
 30
0
 11
6635.733
 21
357.563
 31
0
 0
LINE
 8
TOOL_0
 5
10D
 10
6635.733
 20
357.563
 30
0
 11
6634.03
 21
362.359
 31
0
 0
LINE
 8
TOOL_0
 5
10E
 10
6634.03
 20
362.359
 30
0
 11
6634.03
 21
-0.004
 31
0
 0
LINE
 8
TOOL_0
 5
10F
 10
6634.03
 20
-0.004
 30
0
 11
977.001
 21
1780.524
 31
0
 0
LINE
 8
TOOL_0
 5
110
 10
977.001
 20
1780.524
 30
0
 11
977.001
 21
1750.843
 31
0
 0
LINE
 8
TOOL_0
 5
111
 10
977.001
 20
1750.843
 30
0
 11
977.001
 21
1667.843
 31
0
 0
ARC
 8
TOOL_0
 5
112
 10
966.501
 20
1667.843
 30
0
 40
10.5
 50
270.0
 51
0
210
0
220
0
230
1.0
 0
LINE
 8
TOOL_0
 5
113
 10
966.501
 20
1657.343
 30
0
 11
668.253
 21
1657.343
 31
0
 0
ARC
 8
TOOL_0
 5
114
 10
668.253
 20
1607.843
 30
0
 40
49.5
 50
90.0
 51
130.797523909564
210
0
220
0
230
1.0
 0
LINE
 8
TOOL_0
 5
115
 10
635.91
 20
1645.316
 30
0
 11
559.206
 21
1579.113
 31
0
 0
ARC
 8
TOOL_0
 5
116
 10
526.21
 20
1617.343
 30
0
 40
50.500187286781
 50
270.0
 51
310.797208021899
210
0
220
0
230
1.0
 0
LINE
 8
TOOL_0
 5
117
 10
526.21
 20
1566.843
 30
0
 11
195.185
 21
1566.843
 31
0
 0
ARC
 8
TOOL_0
 5
118
 10
195.185
 20
1617.343
 30
0
 40
50.5
 50
250.075925995321
 51
270.0
210
0
220
0
230
1.0
 0
LINE
 8
TOOL_0
 5
119
 10
177.976
 20
1569.866
 30
0
 11
88.713
 21
1602.22
 31
0
 0
ARC
 8
TOOL_0
 5
11A
 10
95.699
 20
1621.493
 30
0
 40
20.500066463307
 50
222.797857570942
 51
250.075634603523
210
0
220
0
230
1.0
 0
LINE
 8
TOOL_0
 5
11B
 10
80.657
 20
1607.565
 30
0
 11
37.772
 21
1653.876
 31
0
 0
ARC
 8
TOOL_0
 5
11C
 10
89.5
 20
1701.777
 30
0
 40
70.500296346895
 50
180.0
 51
222.8002067944
210
0
220
0
230
1.0
 0
LINE
 8
TOOL_0
 5
11D
 10
19.0
 20
1701.777
 30
0
 11
19.0
 21
1716.911
 31
0
 0
ARC
 8
TOOL_0
 5
11E
 10
89.5
 20
1716.911
 30
0
 40
70.5
 50
137.199793205599
 51
180.0
210
0
220
0
230
1.0
 0
LINE
 8
TOOL_0
 5
11F
 10
37.772
 20
1764.812
 30
0
 11
80.657
 21
1811.123
 31
0
 0
ARC
 8
TOOL_0
 5
120
 10
95.698
 20
1797.194
 30
0
 40
20.499968829245
 50
109.920785441378
 51
137.19819273391
210
0
220
0
230
1.0
 0
LINE
 8
TOOL_0
 5
121
 10
88.713
 20
1816.468
 30
0
 11
177.976
 21
1848.822
 31
0
 0
ARC
 8
TOOL_0
 5
122
 10
195.184
 20
1801.344
 30
0
 40
50.50025493005
 50
90.0
 51
109.922620719171
210
0
220
0
230
1.0
 0
LINE
 8
TOOL_0
 5
123
 10
195.184
 20
1851.844
 30
0
 11
526.21
 21
1851.844
 31
0
 0
ARC
 8
TOOL_0
 5
124
 10
526.21
 20
1801.344
 30
0
 40
50.5
 50
49.202791978102
 51
90.0
210
0
220
0
230
1.0
 0
LINE
 8
TOOL_0
 5
125
 10
559.206
 20
1839.574
 30
0
 11
635.91
 21
1773.371
 31
0
 0
ARC
 8
TOOL_0
 5
126
 10
668.253
 20
1810.844
 30
0
 40
49.500458361514
 50
229.202476090435
 51
269.998842509505
210
0
220
0
230
1.0
 0
LINE
 8
TOOL_0
 5
127
 10
668.252
 20
1761.344
 30
0
 11
966.5
 21
1761.344
 31
0
 0
ARC
 8
TOOL_0
 5
128
 10
966.5
 20
1750.844
 30
0
 40
10.5
 50
0
 51
90.0
210
0
220
0
230
1.0
 0
LINE
 8
TOOL_0
 5
129
 10
977.0
 20
1750.844
 30
0
 11
979.316
 21
1745.608
 31
0
 0
LINE
 8
TOOL_0
 5
12A
 10
979.316
 20
1745.608
 30
0
 11
1497.245
 21
1770.871
 31
0
 0
LINE
 8
TOOL_0
 5
12B
 10
1497.245
 20
1770.871
 30
0
 11
1465.005
 21
1757.247
 31
0
 0
ARC
 8
TOOL_0
 5
12C
 10
1455.717
 20
1761.017
 30
0
 40
10.023963487563
 50
270.091453680535
 51
337.907762266919
210
0
220
0
230
1.0
 0
LINE
 8
TOOL_0
 5
12D
 10
1455.733
 20
1750.993
 30
0
 11
1368.556
 21
1750.993
 31
0
 0
ARC
 8
TOOL_0
 5
12E
 10
1368.556
 20
1731.793
 30
0
 40
19.2
 50
90.0
 51
148.07970508667
210
0
220
0
230
1.0
 0
ARC
 8
TOOL_0
 5
12F
 10
1332.903
 20
1754.017
 30
0
 40
22.812012624931
 50
239.849505978008
 51
328.048928599655
210
0
220
0
230
1.0
 0
ARC
 8
TOOL_0
 5
130
 10
1286.657
 20
1674.471
 30
0
 40
69.199980809246
 50
59.820087804485
 51
90.0
210
0
220
0
230
1.0
 0
LINE
 8
TOOL_0
 5
131
 10
1286.657
 20
1743.671
 30
0
 11
1259.157
 21
1743.671
 31
0
 0
ARC
 8
TOOL_0
 5
132
 10
1259.157
 20
1674.471
 30
0
 40
69.2
 50
90.0
 51
120.179912195515
210
0
220
0
230
1.0
 0
ARC
 8
TOOL_0
 5
133
 10
1212.911
 20
1754.017
 30
0
 40
22.812295807306
 50
211.951071400345
 51
300.150494021992
210
0
220
0
230
1.0
 0
ARC
 8
TOOL_0
 5
134
 10
1177.258
 20
1731.793
 30
0
 40
19.200398771901
 50
31.92029491333
 51
90.0
210
0
220
0
230
1.0
 0
LINE
 8
TOOL_0
 5
135
 10
1177.258
 20
1750.993
 30
0
 11
1090.081
 21
1750.993
 31
0
 0
ARC
 8
TOOL_0
 5
136
 10
1090.097
 20
1761.017
 30
0
 40
10.024012769345
 50
202.09223773308
 51
269.908546319465
210
0
220
0
230
1.0
 0
LINE
 8
TOOL_0
 5
137
 10
1080.809
 20
1757.247
 30
0
 11
1059.566
 21
1809.826
 31
0
 0
ARC
 8
TOOL_0
 5
138
 10
1051.407
 20
1806.529
 30
0
 40
8.79997102268
 50
22.003320384869
 51
75.523198505332
210
0
220
0
230
1.0
 0
ARC
 8
TOOL_0
 5
139
 10
1055.907
 20
1823.958
 30
0
 40
9.200133912069
 50
180.0
 51
255.52270314299
210
0
220
0
230
1.0
 0
LINE
 8
TOOL_0
 5
13A
 10
1046.707
 20
1823.958
 30
0
 11
1046.707
 21
1903.593
 31
0
 0
ARC
 8
TOOL_0
 5
13B
 10
1056.707
 20
1903.593
 30
0
 40
10.0
 50
90.0
 51
180.0
210
0
220
0
230
1.0
 0
LINE
 8
TOOL_0
 5
13C
 10
1056.707
 20
1913.593
 30
0
 11
1119.212
 21
1913.593
 31
0
 0
ARC
 8
TOOL_0
 5
13D
 10
1119.212
 20
1902.793
 30
0
 40
10.8
 50
48.460740534169
 51
90.0
210
0
220
0
230
1.0
 0
ARC
 8
TOOL_0
 5
13E
 10
1061.769
 20
1841.77
 30
0
 40
94.602238208195
 50
43.466652314864
 51
46.928384843842
210
0
220
0
230
1.0
 0
LINE
 8
TOOL_0
 5
13F
 10
1130.429
 20
1906.85
 30
0
 11
1131.031
 21
1906.272
 31
0
 0
ARC
 8
TOOL_0
 5
140
 10
1138.258
 20
1912.174
 30
0
 40
9.330762723379
 50
219.237129311716
 51
272.739746583199
210
0
220
0
230
1.0
 0
LINE
 8
TOOL_0
 5
141
 10
1138.704
 20
1902.854
 30
0
 11
1176.001
 21
1904.809
 31
0
 0
ARC
 8
TOOL_0
 5
142
 10
1174.734
 20
1928.976
 30
0
 40
24.200189627356
 50
273.001090424869
 51
320.000123438967
210
0
220
0
230
1.0
 0
LINE
 8
TOOL_0
 5
143
 10
1193.273
 20
1913.42
 30
0
 11
1203.244
 21
1925.303
 31
0
 0
ARC
 8
TOOL_0
 5
144
 10
1257.502
 20
1879.746
 30
0
 40
70.847518044036
 50
90.017791710546
 51
139.981952152145
210
0
220
0
230
1.0
 0
LINE
 8
TOOL_0
 5
145
 10
1257.48
 20
1950.594
 30
0
 11
1288.336
 21
1950.594
 31
0
 0
ARC
 8
TOOL_0
 5
146
 10
1288.336
 20
1879.794
 30
0
 40
70.8
 50
41.351276536947
 51
90.0
210
0
220
0
230
1.0
 0
ARC
 8
TOOL_0
 5
147
 10
789.527
 20
1451.119
 30
0
 40
728.498581501708
 50
39.389999123718
 51
40.741326157114
210
0
220
0
230
1.0
 0
ARC
 8
TOOL_0
 5
148
 10
1371.081
 20
1928.976
 30
0
 40
24.199493155849
 50
219.999584725572
 51
267.001150046702
210
0
220
0
230
1.0
 0
LINE
 8
TOOL_0
 5
149
 10
1369.815
 20
1904.81
 30
0
 11
1407.112
 21
1902.855
 31
0
 0
ARC
 8
TOOL_0
 5
14A
 10
1407.593
 20
1912.042
 30
0
 40
9.19958314273
 50
267.002924856545
 51
303.800613645744
210
0
220
0
230
1.0
 0
ARC
 8
TOOL_0
 5
14B
 10
1399.667
 20
1921.333
 30
0
 40
21.376950951901
 50
307.603236713993
 51
317.477862862891
210
0
220
0
230
1.0
 0
LINE
 8
TOOL_0
 5
14C
 10
1415.422
 20
1906.885
 30
0
 11
1418.966
 21
1910.431
 31
0
 0
ARC
 8
TOOL_0
 5
14D
 10
1426.628
 20
1902.734
 30
0
 40
10.860481250847
 50
90.131896128692
 51
134.869434936404
210
0
220
0
230
1.0
 0
LINE
 8
TOOL_0
 5
14E
 10
1426.603
 20
1913.594
 30
0
 11
1489.108
 21
1913.594
 31
0
 0
ARC
 8
TOOL_0
 5
14F
 10
1489.108
 20
1903.594
 30
0
 40
10.0
 50
0
 51
90.0
210
0
220
0
230
1.0
 0
LINE
 8
TOOL_0
 5
150
 10
1499.108
 20
1903.594
 30
0
 11
1499.108
 21
1823.959
 31
0
 0
ARC
 8
TOOL_0
 5
151
 10
1489.908
 20
1823.959
 30
0
 40
9.2
 50
284.477296857009
 51
0
210
0
220
0
230
1.0
 0
ARC
 8
TOOL_0
 5
152
 10
1494.408
 20
1806.53
 30
0
 40
8.800422773935
 50
104.476801494668
 51
157.996679615131
210
0
220
0
230
1.0
 0
LINE
 8
TOOL_0
 5
153
 10
1486.249
 20
1809.827
 30
0
 11
1465.006
 21
1757.248
 31
0
 0
LINE
 8
TOOL_0
 5
154
 10
1465.006
 20
1757.248
 30
0
 11
1466.96
 21
1752.645
 31
0
 0
LINE
 8
TOOL_0
 5
155
 10
1466.96
 20
1752.645
 30
0
 11
2494.948
 21
1691.298
 31
0
 0
LINE
 8
TOOL_0
 5
156
 10
2494.948
 20
1691.298
 30
0
 11
2482.882
 21
1663.36
 31
0
 0
ARC
 8
TOOL_0
 5
157
 10
2472.382
 20
1663.36
 30
0
 40
10.5
 50
270.0
 51
0
210
0
220
0
230
1.0
 0
LINE
 8
TOOL_0
 5
158
 10
2472.382
 20
1652.86
 30
0
 11
2174.134
 21
1652.86
 31
0
 0
ARC
 8
TOOL_0
 5
159
 10
2174.134
 20
1603.36
 30
0
 40
49.5
 50
90.0
 51
130.797523909564
210
0
220
0
230
1.0
 0
LINE
 8
TOOL_0
 5
15A
 10
2141.791
 20
1640.833
 30
0
 11
2065.087
 21
1574.63
 31
0
 0
ARC
 8
TOOL_0
 5
15B
 10
2032.091
 20
1612.86
 30
0
 40
50.500187286782
 50
270.0
 51
310.797208021899
210
0
220
0
230
1.0
 0
LINE
 8
TOOL_0
 5
15C
 10
2032.091
 20
1562.36
 30
0
 11
1701.066
 21
1562.36
 31
0
 0
ARC
 8
TOOL_0
 5
15D
 10
1701.066
 20
1612.86
 30
0
 40
50.5
 50
250.075925995321
 51
270.0
210
0
220
0
230
1.0
 0
LINE
 8
TOOL_0
 5
15E
 10
1683.857
 20
1565.383
 30
0
 11
1594.594
 21
1597.737
 31
0
 0
ARC
 8
TOOL_0
 5
15F
 10
1601.58
 20
1617.01
 30
0
 40
20.500066463307
 50
222.797857570942
 51
250.075634603523
210
0
220
0
230
1.0
 0
LINE
 8
TOOL_0
 5
160
 10
1586.538
 20
1603.082
 30
0
 11
1543.653
 21
1649.393
 31
0
 0
ARC
 8
TOOL_0
 5
161
 10
1595.381
 20
1697.294
 30
0
 40
70.500296346895
 50
180.0
 51
222.8002067944
210
0
220
0
230
1.0
 0
LINE
 8
TOOL_0
 5
162
 10
1524.881
 20
1697.294
 30
0
 11
1524.881
 21
1712.428
 31
0
 0
ARC
 8
TOOL_0
 5
163
 10
1595.381
 20
1712.428
 30
0
 40
70.5
 50
137.199793205599
 51
180.0
210
0
220
0
230
1.0
 0
LINE
 8
TOOL_0
 5
164
 10
1543.653
 20
1760.329
 30
0
 11
1586.538
 21
1806.64
 31
0
 0
ARC
 8
TOOL_0
 5
165
 10
1601.579
 20
1792.711
 30
0
 40
20.499968829245
 50
109.920785441378
 51
137.19819273391
210
0
220
0
230
1.0
 0
LINE
 8
TOOL_0
 5
166
 10
1594.594
 20
1811.985
 30
0
 11
1683.857
 21
1844.339
 31
0
 0
ARC
 8
TOOL_0
 5
167
 10
1701.065
 20
1796.861
 30
0
 40
50.50025493005
 50
90.0
 51
109.922620719172
210
0
220
0
230
1.0
 0
LINE
 8
TOOL_0
 5
168
 10
1701.065
 20
1847.361
 30
0
 11
2032.091
 21
1847.361
 31
0
 0
ARC
 8
TOOL_0
 5
169
 10
2032.091
 20
1796.861
 30
0
 40
50.5
 50
49.202791978101
 51
90.0
210
0
220
0
230
1.0
 0
LINE
 8
TOOL_0
 5
16A
 10
2065.087
 20
1835.091
 30
0
 11
2141.791
 21
1768.888
 31
0
 0
ARC
 8
TOOL_0
 5
16B
 10
2174.134
 20
1806.361
 30
0
 40
49.500458361514
 50
229.202476090436
 51
269.998842509505
210
0
220
0
230
1.0
 0
LINE
 8
TOOL_0
 5
16C
 10
2174.133
 20
1756.861
 30
0
 11
2472.381
 21
1756.861
 31
0
 0
ARC
 8
TOOL_0
 5
16D
 10
2472.381
 20
1746.361
 30
0
 40
10.5
 50
0
 51
90.0
210
0
220
0
230
1.0
 0
LINE
 8
TOOL_0
 5
16E
 10
2482.881
 20
1746.361
 30
0
 11
2482.881
 21
1663.361
 31
0
 0
LINE
 8
TOOL_0
 5
16F
 10
2482.881
 20
1663.361
 30
0
 11
2484.4
 21
1658.579
 31
0
 0
LINE
 8
TOOL_0
 5
170
 10
2484.4
 20
1658.579
 30
0
 11
2416.815
 21
1867.466
 31
0
 0
LINE
 8
TOOL_0
 5
171
 10
2416.815
 20
1867.466
 30
0
 11
2448.346
 21
1867.466
 31
0
 0
LINE
 8
TOOL_0
 5
172
 10
2448.346
 20
1867.466
 30
0
 11
2734.942
 21
1867.466
 31
0
 0
ARC
 8
TOOL_0
 5
173
 10
2734.942
 20
2066.466
 30
0
 40
199.0
 50
270.0
 51
289.79851876797
210
0
220
0
230
1.0
 0
LINE
 8
TOOL_0
 5
174
 10
2802.346
 20
1879.229
 30
0
 11
2986.666
 21
1945.584
 31
0
 0
ARC
 8
TOOL_0
 5
175
 10
3054.749
 20
1756.466
 30
0
 40
200.999783116798
 50
90.0
 51
109.799015820428
210
0
220
0
230
1.0
 0
LINE
 8
TOOL_0
 5
176
 10
3054.749
 20
1957.466
 30
0
 11
3289.017
 21
1957.466
 31
0
 0
ARC
 8
TOOL_0
 5
177
 10
3288.993
 20
1907.411
 30
0
 40
50.055005753671
 50
43.29111574087
 51
89.97252824687
210
0
220
0
230
1.0
 0
LINE
 8
TOOL_0
 5
178
 10
3325.427
 20
1941.734
 30
0
 11
3363.576
 21
1901.201
 31
0
 0
ARC
 8
TOOL_0
 5
179
 10
3289.776
 20
1831.78
 30
0
 40
101.319865974053
 50
1.153678119168
 51
43.248719955695
210
0
220
0
230
1.0
 0
ARC
 8
TOOL_0
 5
17A
 10
2248.854
 20
1821.465
 30
0
 40
1142.28881781667
 50
359.481301274596
 51
0.619723442751
210
0
220
0
230
1.0
 0
ARC
 8
TOOL_0
 5
17B
 10
3289.846
 20
1811.124
 30
0
 40
101.25
 50
316.735268273862
 51
0
210
0
220
0
230
1.0
 0
LINE
 8
TOOL_0
 5
17C
 10
3363.576
 20
1741.73
 30
0
 11
3325.428
 21
1701.198
 31
0
 0
ARC
 8
TOOL_0
 5
17D
 10
3288.994
 20
1735.522
 30
0
 40
50.055702292546
 50
270.027471204311
 51
316.70805109931
210
0
220
0
230
1.0
 0
LINE
 8
TOOL_0
 5
17E
 10
3289.018
 20
1685.466
 30
0
 11
3054.75
 21
1685.466
 31
0
 0
ARC
 8
TOOL_0
 5
17F
 10
3054.75
 20
1886.466
 30
0
 40
201.0
 50
250.200715976597
 51
270.0
210
0
220
0
230
1.0
 0
LINE
 8
TOOL_0
 5
180
 10
2986.666
 20
1697.348
 30
0
 11
2802.348
 21
1763.703
 31
0
 0
ARC
 8
TOOL_0
 5
181
 10
2734.943
 20
1576.466
 30
0
 40
199.000322095217
 50
70.201210332977
 51
90.0
210
0
220
0
230
1.0
 0
LINE
 8
TOOL_0
 5
182
 10
2734.943
 20
1775.466
 30
0
 11
2448.347
 21
1775.466
 31
0
 0
ARC
 8
TOOL_0
 5
183
 10
2448.347
 20
1805.466
 30
0
 40
30.0
 50
180.0
 51
270.0
210
0
220
0
230
1.0
 0
LINE
 8
TOOL_0
 5
184
 10
2418.347
 20
1805.466
 30
0
 11
2418.347
 21
1837.466
 31
0
 0
ARC
 8
TOOL_0
 5
185
 10
2448.347
 20
1837.466
 30
0
 40
30.0
 50
90.0
 51
180.0
210
0
220
0
230
1.0
 0
LINE
 8
TOOL_0
 5
186
 10
2448.347
 20
1867.466
 30
0
 11
2453.295
 21
1869.012
 31
0
 0
LINE
 8
TOOL_0
 5
187
 10
2453.295
 20
1869.012
 30
0
 11
4401.595
 21
1861.775
 31
0
 0
LINE
 8
TOOL_0
 5
188
 10
4401.595
 20
1861.775
 30
0
 11
4401.595
 21
1830.824
 31
0
 0
LINE
 8
TOOL_0
 5
189
 10
4401.595
 20
1830.824
 30
0
 11
4401.595
 21
1747.824
 31
0
 0
ARC
 8
TOOL_0
 5
18A
 10
4391.095
 20
1747.824
 30
0
 40
10.5
 50
270.0
 51
0
210
0
220
0
230
1.0
 0
LINE
 8
TOOL_0
 5
18B
 10
4391.095
 20
1737.324
 30
0
 11
4092.847
 21
1737.324
 31
0
 0
ARC
 8
TOOL_0
 5
18C
 10
4092.847
 20
1687.824
 30
0
 40
49.5
 50
90.0
 51
130.797523909564
210
0
220
0
230
1.0
 0
LINE
 8
TOOL_0
 5
18D
 10
4060.504
 20
1725.297
 30
0
 11
3983.8
 21
1659.094
 31
0
 0
ARC
 8
TOOL_0
 5
18E
 10
3950.804
 20
1697.324
 30
0
 40
50.500187286782
 50
270.0
 51
310.797208021899
210
0
220
0
230
1.0
 0
LINE
 8
TOOL_0
 5
18F
 10
3950.804
 20
1646.824
 30
0
 11
3619.779
 21
1646.824
 31
0
 0
ARC
 8
TOOL_0
 5
190
 10
3619.779
 20
1697.324
 30
0
 40
50.5
 50
250.075925995321
 51
270.0
210
0
220
0
230
1.0
 0
LINE
 8
TOOL_0
 5
191
 10
3602.57
 20
1649.847
 30
0
 11
3513.307
 21
1682.201
 31
0
 0
ARC
 8
TOOL_0
 5
192
 10
3520.293
 20
1701.474
 30
0
 40
20.500066463307
 50
222.797857570943
 51
250.075634603523
210
0
220
0
230
1.0
 0
LINE
 8
TOOL_0
 5
193
 10
3505.251
 20
1687.546
 30
0
 11
3462.366
 21
1733.857
 31
0
 0
ARC
 8
TOOL_0
 5
194
 10
3514.094
 20
1781.758
 30
0
 40
70.500296346895
 50
180.0
 51
222.8002067944
210
0
220
0
230
1.0
 0
LINE
 8
TOOL_0
 5
195
 10
3443.594
 20
1781.758
 30
0
 11
3443.594
 21
1796.892
 31
0
 0
ARC
 8
TOOL_0
 5
196
 10
3514.094
 20
1796.892
 30
0
 40
70.5
 50
137.199793205599
 51
180.0
210
0
220
0
230
1.0
 0
LINE
 8
TOOL_0
 5
197
 10
3462.366
 20
1844.793
 30
0
 11
3505.251
 21
1891.104
 31
0
 0
ARC
 8
TOOL_0
 5
198
 10
3520.292
 20
1877.175
 30
0
 40
20.499968829245
 50
109.920785441379
 51
137.19819273391
210
0
220
0
230
1.0
 0
LINE
 8
TOOL_0
 5
199
 10
3513.307
 20
1896.449
 30
0
 11
3602.57
 21
1928.803
 31
0
 0
ARC
 8
TOOL_0
 5
19A
 10
3619.778
 20
1881.325
 30
0
 40
50.50025493005
 50
90.0
 51
109.922620719172
210
0
220
0
230
1.0
 0
LINE
 8
TOOL_0
 5
19B
 10
3619.778
 20
1931.825
 30
0
 11
3950.804
 21
1931.825
 31
0
 0
ARC
 8
TOOL_0
 5
19C
 10
3950.804
 20
1881.325
 30
0
 40
50.5
 50
49.202791978101
 51
90.0
210
0
220
0
230
1.0
 0
LINE
 8
TOOL_0
 5
19D
 10
3983.8
 20
1919.555
 30
0
 11
4060.504
 21
1853.352
 31
0
 0
ARC
 8
TOOL_0
 5
19E
 10
4092.847
 20
1890.825
 30
0
 40
49.500458361514
 50
229.202476090436
 51
269.998842509505
210
0
220
0
230
1.0
 0
LINE
 8
TOOL_0
 5
19F
 10
4092.846
 20
1841.325
 30
0
 11
4391.094
 21
1841.325
 31
0
 0
ARC
 8
TOOL_0
 5
1A0
 10
4391.094
 20
1830.825
 30
0
 40
10.5
 50
0
 51
90.0
210
0
220
0
230
1.0
 0
LINE
 8
TOOL_0
 5
1A1
 10
4401.594
 20
1830.825
 30
0
 11
4404.062
 21
1825.905
 31
0
 0
LINE
 8
TOOL_0
 5
1A2
 10
4404.062
 20
1825.905
 30
0
 11
5506.055
 21
1787.68
 31
0
 0
LINE
 8
TOOL_0
 5
1A3
 10
5506.055
 20
1787.68
 30
0
 11
5505.132
 21
1756.827
 31
0
 0
LINE
 8
TOOL_0
 5
1A4
 10
5505.132
 20
1756.827
 30
0
 11
5505.132
 21
1673.827
 31
0
 0
ARC
 8
TOOL_0
 5
1A5
 10
5494.632
 20
1673.827
 30
0
 40
10.5
 50
270.0
 51
0
210
0
220
0
230
1.0
 0
LINE
 8
TOOL_0
 5
1A6
 10
5494.632
 20
1663.327
 30
0
 11
5196.384
 21
1663.327
 31
0
 0
ARC
 8
TOOL_0
 5
1A7
 10
5196.384
 20
1613.827
 30
0
 40
49.5
 50
90.0
 51
130.797523909564
210
0
220
0
230
1.0
 0
LINE
 8
TOOL_0
 5
1A8
 10
5164.041
 20
1651.3
 30
0
 11
5087.337
 21
1585.097
 31
0
 0
ARC
 8
TOOL_0
 5
1A9
 10
5054.341
 20
1623.327
 30
0
 40
50.500187286782
 50
270.0
 51
310.797208021899
210
0
220
0
230
1.0
 0
LINE
 8
TOOL_0
 5
1AA
 10
5054.341
 20
1572.827
 30
0
 11
4723.316
 21
1572.827
 31
0
 0
ARC
 8
TOOL_0
 5
1AB
 10
4723.316
 20
1623.327
 30
0
 40
50.5
 50
250.075925995321
 51
270.0
210
0
220
0
230
1.0
 0
LINE
 8
TOOL_0
 5
1AC
 10
4706.107
 20
1575.85
 30
0
 11
4616.844
 21
1608.204
 31
0
 0
ARC
 8
TOOL_0
 5
1AD
 10
4623.83
 20
1627.477
 30
0
 40
20.500066463307
 50
222.797857570943
 51
250.075634603523
210
0
220
0
230
1.0
 0
LINE
 8
TOOL_0
 5
1AE
 10
4608.788
 20
1613.549
 30
0
 11
4565.903
 21
1659.86
 31
0
 0
ARC
 8
TOOL_0
 5
1AF
 10
4617.631
 20
1707.761
 30
0
 40
70.500296346895
 50
180.0
 51
222.8002067944
210
0
220
0
230
1.0
 0
LINE
 8
TOOL_0
 5
1B0
 10
4547.131
 20
1707.761
 30
0
 11
4547.131
 21
1722.895
 31
0
 0
ARC
 8
TOOL_0
 5
1B1
 10
4617.631
 20
1722.895
 30
0
 40
70.5
 50
137.199793205599
 51
180.0
210
0
220
0
230
1.0
 0
LINE
 8
TOOL_0
 5
1B2
 10
4565.903
 20
1770.796
 30
0
 11
4608.788
 21
1817.107
 31
0
 0
ARC
 8
TOOL_0
 5
1B3
 10
4623.829
 20
1803.178
 30
0
 40
20.499968829245
 50
109.92078544138
 51
137.19819273391
210
0
220
0
230
1.0
 0
LINE
 8
TOOL_0
 5
1B4
 10
4616.844
 20
1822.452
 30
0
 11
4706.107
 21
1854.806
 31
0
 0
ARC
 8
TOOL_0
 5
1B5
 10
4723.315
 20
1807.328
 30
0
 40
50.50025493005
 50
90.0
 51
109.922620719171
210
0
220
0
230
1.0
 0
LINE
 8
TOOL_0
 5
1B6
 10
4723.315
 20
1857.828
 30
0
 11
5054.341
 21
1857.828
 31
0
 0
ARC
 8
TOOL_0
 5
1B7
 10
5054.341
 20
1807.328
 30
0
 40
50.5
 50
49.202791978101
 51
90.0
210
0
220
0
230
1.0
 0
LINE
 8
TOOL_0
 5
1B8
 10
5087.337
 20
1845.558
 30
0
 11
5164.041
 21
1779.355
 31
0
 0
ARC
 8
TOOL_0
 5
1B9
 10
5196.384
 20
1816.828
 30
0
 40
49.500458361514
 50
229.202476090436
 51
269.998842509504
210
0
220
0
230
1.0
 0
LINE
 8
TOOL_0
 5
1BA
 10
5196.383
 20
1767.328
 30
0
 11
5494.631
 21
1767.328
 31
0
 0
ARC
 8
TOOL_0
 5
1BB
 10
5494.631
 20
1756.828
 30
0
 40
10.5
 50
0
 51
90.0
210
0
220
0
230
1.0
 0
LINE
 8
TOOL_0
 5
1BC
 10
5505.131
 20
1756.828
 30
0
 11
5507.455
 21
1752.029
 31
0
 0
LINE
 8
TOOL_0
 5
1BD
 10
5507.455
 20
1752.029
 30
0
 11
5727.989
 21
1818.148
 31
0
 0
LINE
 8
TOOL_0
 5
1BE
 10
5727.989
 20
1818.148
 30
0
 11
5758.782
 21
1819.398
 31
0
 0
LINE
 8
TOOL_0
 5
1BF
 10
5758.782
 20
1819.398
 30
0
 11
6064.224
 21
1819.398
 31
0
 0
ARC
 8
TOOL_0
 5
1C0
 10
6064.224
 20
1888.398
 30
0
 40
69.0
 50
270.0
 51
283.133348427405
210
0
220
0
230
1.0
 0
LINE
 8
TOOL_0
 5
1C1
 10
6079.902
 20
1821.203
 30
0
 11
6368.691
 21
1888.587
 31
0
 0
ARC
 8
TOOL_0
 5
1C2
 10
6375.885
 20
1857.1
 30
0
 40
32.298371553377
 50
90.266094034831
 51
102.869764091241
210
0
220
0
230
1.0
 0
LINE
 8
TOOL_0
 5
1C3
 10
6375.735
 20
1889.398
 30
0
 11
6771.726
 21
1889.398
 31
0
 0
ARC
 8
TOOL_0
 5
1C4
 10
6771.748
 20
1794.738
 30
0
 40
94.660002556518
 50
46.896790256649
 51
90.013316153883
210
0
220
0
230
1.0
 0
ARC
 8
TOOL_0
 5
1C5
 10
6823.094
 20
1848.855
 30
0
 40
20.069518629006
 50
26.133515227266
 51
48.352946893058
210
0
220
0
230
1.0
 0
LINE
 8
TOOL_0
 5
1C6
 10
6841.112
 20
1857.695
 30
0
 11
6866.049
 21
1807.189
 31
0
 0
ARC
 8
TOOL_0
 5
1C7
 10
6803.282
 20
1776.199
 30
0
 40
70.000545633588
 50
0
 51
26.276971403369
210
0
220
0
230
1.0
 0
ARC
 8
TOOL_0
 5
1C8
 10
6122.937
 20
1768.398
 30
0
 40
750.385550651131
 50
359.28178530896
 51
0.595657028643
210
0
220
0
230
1.0
 0
ARC
 8
TOOL_0
 5
1C9
 10
6802.903
 20
1760.69
 30
0
 40
70.381485669173
 50
333.791734450591
 51
358.617567206893
210
0
220
0
230
1.0
 0
LINE
 8
TOOL_0
 5
1CA
 10
6866.049
 20
1729.607
 30
0
 11
6841.113
 21
1679.101
 31
0
 0
ARC
 8
TOOL_0
 5
1CB
 10
6821.173
 20
1689.091
 30
0
 40
22.302549181652
 50
315.697586790106
 51
333.388992723282
210
0
220
0
230
1.0
 0
ARC
 8
TOOL_0
 5
1CC
 10
6771.676
 20
1742.491
 30
0
 40
95.092461809546
 50
270.030728702165
 51
313.500555536013
210
0
220
0
230
1.0
 0
LINE
 8
TOOL_0
 5
1CD
 10
6771.727
 20
1647.398
 30
0
 11
6375.736
 21
1647.398
 31
0
 0
ARC
 8
TOOL_0
 5
1CE
 10
6375.885
 20
1679.696
 30
0
 40
32.298343688183
 50
257.131965309572
 51
269.735679900148
210
0
220
0
230
1.0
 0
LINE
 8
TOOL_0
 5
1CF
 10
6368.692
 20
1648.209
 30
0
 11
6079.903
 21
1715.593
 31
0
 0
ARC
 8
TOOL_0
 5
1D0
 10
6064.224
 20
1648.398
 30
0
 40
68.999993231884
 50
76.865842918249
 51
90.0
210
0
220
0
230
1.0
 0
LINE
 8
TOOL_0
 5
1D1
 10
6064.224
 20
1717.398
 30
0
 11
5758.782
 21
1717.398
 31
0
 0
ARC
 8
TOOL_0
 5
1D2
 10
5758.782
 20
1747.398
 30
0
 40
30.0
 50
180.0
 51
270.0
210
0
220
0
230
1.0
 0
LINE
 8
TOOL_0
 5
1D3
 10
5728.782
 20
1747.398
 30
0
 11
5728.782
 21
1789.398
 31
0
 0
ARC
 8
TOOL_0
 5
1D4
 10
5758.782
 20
1789.398
 30
0
 40
30.0
 50
90.0
 51
180.0
210
0
220
0
230
1.0
 0
LINE
 8
TOOL_0
 5
1D5
 10
5758.782
 20
1819.398
 30
0
 11
5764.402
 21
1821.192
 31
0
 0
LINE
 8
TOOL_0
 5
1D6
 10
5764.402
 20
1821.192
 30
0
 11
6901.108
 21
1876.29
 31
0
 0
LINE
 8
TOOL_0
 5
1D7
 10
6901.108
 20
1876.29
 30
0
 11
6934.578
 21
1871.205
 31
0
 0
LINE
 8
TOOL_0
 5
1D8
 10
6934.578
 20
1871.205
 30
0
 11
7221.174
 21
1871.205
 31
0
 0
ARC
 8
TOOL_0
 5
1D9
 10
7221.174
 20
2070.205
 30
0
 40
199.0
 50
270.0
 51
289.79851876797
210
0
220
0
230
1.0
 0
LINE
 8
TOOL_0
 5
1DA
 10
7288.578
 20
1882.968
 30
0
 11
7472.898
 21
1949.323
 31
0
 0
ARC
 8
TOOL_0
 5
1DB
 10
7540.981
 20
1760.205
 30
0
 40
200.999783116798
 50
90.0
 51
109.799015820428
210
0
220
0
230
1.0
 0
LINE
 8
TOOL_0
 5
1DC
 10
7540.981
 20
1961.205
 30
0
 11
7875.592
 21
1961.205
 31
0
 0
ARC
 8
TOOL_0
 5
1DD
 10
7875.568
 20
1911.15
 30
0
 40
50.055005753671
 50
43.29111574087
 51
89.972528246869
210
0
220
0
230
1.0
 0
LINE
 8
TOOL_0
 5
1DE
 10
7912.002
 20
1945.473
 30
0
 11
7949.989
 21
1905.112
 31
0
 0
ARC
 8
TOOL_0
 5
1DF
 10
7876.077
 20
1835.547
 30
0
 40
101.50011314772
 50
1.109857149388
 51
43.2646097522
210
0
220
0
230
1.0
 0
ARC
 8
TOOL_0
 5
1E0
 10
6807.687
 20
1825.205
 30
0
 40
1169.93574332311
 50
359.493510059238
 51
0.602776235275
210
0
220
0
230
1.0
 0
ARC
 8
TOOL_0
 5
1E1
 10
7876.014
 20
1814.888
 30
0
 40
101.563003076908
 50
316.749478687234
 51
359.985896493222
210
0
220
0
230
1.0
 0
LINE
 8
TOOL_0
 5
1E2
 10
7949.989
 20
1745.298
 30
0
 11
7912.002
 21
1704.937
 31
0
 0
ARC
 8
TOOL_0
 5
1E3
 10
7875.568
 20
1739.261
 30
0
 40
50.055702292546
 50
270.027471204311
 51
316.70805109931
210
0
220
0
230
1.0
 0
LINE
 8
TOOL_0
 5
1E4
 10
7875.592
 20
1689.205
 30
0
 11
7540.981
 21
1689.205
 31
0
 0
ARC
 8
TOOL_0
 5
1E5
 10
7540.981
 20
1890.205
 30
0
 40
201.0
 50
250.200715976597
 51
270.0
210
0
220
0
230
1.0
 0
LINE
 8
TOOL_0
 5
1E6
 10
7472.897
 20
1701.087
 30
0
 11
7288.579
 21
1767.442
 31
0
 0
ARC
 8
TOOL_0
 5
1E7
 10
7221.174
 20
1580.205
 30
0
 40
199.000322095217
 50
70.201210332977
 51
90.0
210
0
220
0
230
1.0
 0
LINE
 8
TOOL_0
 5
1E8
 10
7221.174
 20
1779.205
 30
0
 11
6934.578
 21
1779.205
 31
0
 0
ARC
 8
TOOL_0
 5
1E9
 10
6934.578
 20
1809.205
 30
0
 40
30.0
 50
180.0
 51
270.0
210
0
220
0
230
1.0
 0
LINE
 8
TOOL_0
 5
1EA
 10
6904.578
 20
1809.205
 30
0
 11
6904.578
 21
1841.205
 31
0
 0
ARC
 8
TOOL_0
 5
1EB
 10
6934.578
 20
1841.205
 30
0
 40
30.0
 50
90.0
 51
180.0
210
0
220
0
230
1.0
 0
LINE
 8
TOOL_0
 5
1EC
 10
6934.578
 20
1871.205
 30
0
 11
6940.017
 21
1872.771
 31
0
 0
LINE
 8
TOOL_0
 5
1ED
 10
6940.017
 20
1872.771
 30
0
 11
6940.017
 21
0.001
 31
0
 0
LINE
 8
TOOL_0
 5
1EE
 10
6940.017
 20
0.001
 30
0
 11
8062.592
 21
58.669
 31
0
 0
LINE
 8
TOOL_0
 5
1EF
 10
8062.592
 20
58.669
 30
0
 11
8030.353
 21
45.044
 31
0
 0
ARC
 8
TOOL_0
 5
1F0
 10
8021.065
 20
48.814
 30
0
 40
10.023963487563
 50
270.091453680532
 51
337.907762266918
210
0
220
0
230
1.0
 0
LINE
 8
TOOL_0
 5
1F1
 10
8021.081
 20
38.79
 30
0
 11
7933.904
 21
38.79
 31
0
 0
ARC
 8
TOOL_0
 5
1F2
 10
7933.904
 20
19.59
 30
0
 40
19.2
 50
90.0
 51
148.07970508667
210
0
220
0
230
1.0
 0
ARC
 8
TOOL_0
 5
1F3
 10
7898.251
 20
41.814
 30
0
 40
22.812012624931
 50
239.849505978007
 51
328.048928599655
210
0
220
0
230
1.0
 0
ARC
 8
TOOL_0
 5
1F4
 10
7852.005
 20
-37.732
 30
0
 40
69.199980809246
 50
59.820087804485
 51
90.0
210
0
220
0
230
1.0
 0
LINE
 8
TOOL_0
 5
1F5
 10
7852.005
 20
31.468
 30
0
 11
7824.505
 21
31.468
 31
0
 0
ARC
 8
TOOL_0
 5
1F6
 10
7824.505
 20
-37.732
 30
0
 40
69.2
 50
90.0
 51
120.179912195515
210
0
220
0
230
1.0
 0
ARC
 8
TOOL_0
 5
1F7
 10
7778.259
 20
41.814
 30
0
 40
22.812295807305
 50
211.951071400344
 51
300.150494021991
210
0
220
0
230
1.0
 0
ARC
 8
TOOL_0
 5
1F8
 10
7742.606
 20
19.59
 30
0
 40
19.2003987719
 50
31.92029491333
 51
90.0
210
0
220
0
230
1.0
 0
LINE
 8
TOOL_0
 5
1F9
 10
7742.606
 20
38.79
 30
0
 11
7655.429
 21
38.79
 31
0
 0
ARC
 8
TOOL_0
 5
1FA
 10
7655.445
 20
48.814
 30
0
 40
10.024012769345
 50
202.092237733082
 51
269.908546319468
210
0
220
0
230
1.0
 0
LINE
 8
TOOL_0
 5
1FB
 10
7646.157
 20
45.044
 30
0
 11
7624.914
 21
97.623
 31
0
 0
ARC
 8
TOOL_0
 5
1FC
 10
7616.755
 20
94.326
 30
0
 40
8.799971022679
 50
22.00332038487
 51
75.523198505333
210
0
220
0
230
1.0
 0
ARC
 8
TOOL_0
 5
1FD
 10
7621.255
 20
111.755
 30
0
 40
9.200133912069
 50
180.0
 51
255.522703142989
210
0
220
0
230
1.0
 0
LINE
 8
TOOL_0
 5
1FE
 10
7612.055
 20
111.755
 30
0
 11
7612.055
 21
191.39
 31
0
 0
ARC
 8
TOOL_0
 5
1FF
 10
7622.055
 20
191.39
 30
0
 40
10.0
 50
90.0
 51
180.0
210
0
220
0
230
1.0
 0
LINE
 8
TOOL_0
 5
200
 10
7622.055
 20
201.39
 30
0
 11
7684.56
 21
201.39
 31
0
 0
ARC
 8
TOOL_0
 5
201
 10
7684.56
 20
190.59
 30
0
 40
10.8
 50
48.460740534168
 51
90.0
210
0
220
0
230
1.0
 0
ARC
 8
TOOL_0
 5
202
 10
7627.117
 20
129.567
 30
0
 40
94.602238208194
 50
43.466652314864
 51
46.928384843842
210
0
220
0
230
1.0
 0
LINE
 8
TOOL_0
 5
203
 10
7695.777
 20
194.647
 30
0
 11
7696.379
 21
194.069
 31
0
 0
ARC
 8
TOOL_0
 5
204
 10
7703.606
 20
199.971
 30
0
 40
9.330762723379
 50
219.237129311717
 51
272.739746583199
210
0
220
0
230
1.0
 0
LINE
 8
TOOL_0
 5
205
 10
7704.052
 20
190.651
 30
0
 11
7741.349
 21
192.606
 31
0
 0
ARC
 8
TOOL_0
 5
206
 10
7740.082
 20
216.773
 30
0
 40
24.200189627356
 50
273.001090424869
 51
320.000123438966
210
0
220
0
230
1.0
 0
LINE
 8
TOOL_0
 5
207
 10
7758.621
 20
201.217
 30
0
 11
7768.592
 21
213.1
 31
0
 0
ARC
 8
TOOL_0
 5
208
 10
7822.85
 20
167.543
 30
0
 40
70.847518044036
 50
90.017791710546
 51
139.981952152145
210
0
220
0
230
1.0
 0
LINE
 8
TOOL_0
 5
209
 10
7822.828
 20
238.391
 30
0
 11
7853.684
 21
238.391
 31
0
 0
ARC
 8
TOOL_0
 5
20A
 10
7853.684
 20
167.591
 30
0
 40
70.8
 50
41.351276536947
 51
90.0
210
0
220
0
230
1.0
 0
ARC
 8
TOOL_0
 5
20B
 10
7354.875
 20
-261.084
 30
0
 40
728.498581501708
 50
39.389999123718
 51
40.741326157114
210
0
220
0
230
1.0
 0
ARC
 8
TOOL_0
 5
20C
 10
7936.429
 20
216.773
 30
0
 40
24.199493155849
 50
219.999584725572
 51
267.001150046703
210
0
220
0
230
1.0
 0
LINE
 8
TOOL_0
 5
20D
 10
7935.163
 20
192.607
 30
0
 11
7972.46
 21
190.652
 31
0
 0
ARC
 8
TOOL_0
 5
20E
 10
7972.941
 20
199.839
 30
0
 40
9.19958314273
 50
267.002924856546
 51
303.800613645747
210
0
220
0
230
1.0
 0
ARC
 8
TOOL_0
 5
20F
 10
7965.015
 20
209.13
 30
0
 40
21.376950951901
 50
307.603236713993
 51
317.477862862891
210
0
220
0
230
1.0
 0
LINE
 8
TOOL_0
 5
210
 10
7980.77
 20
194.682
 30
0
 11
7984.314
 21
198.228
 31
0
 0
ARC
 8
TOOL_0
 5
211
 10
7991.976
 20
190.531
 30
0
 40
10.860481250847
 50
90.131896128695
 51
134.869434936405
210
0
220
0
230
1.0
 0
LINE
 8
TOOL_0
 5
212
 10
7991.951
 20
201.391
 30
0
 11
8054.456
 21
201.391
 31
0
 0
ARC
 8
TOOL_0
 5
213
 10
8054.456
 20
191.391
 30
0
 40
10.0
 50
0
 51
90.0
210
0
220
0
230
1.0
 0
LINE
 8
TOOL_0
 5
214
 10
8064.456
 20
191.391
 30
0
 11
8064.456
 21
111.756
 31
0
 0
ARC
 8
TOOL_0
 5
215
 10
8055.256
 20
111.756
 30
0
 40
9.2
 50
284.477296857011
 51
0
210
0
220
0
230
1.0
 0
ARC
 8
TOOL_0
 5
216
 10
8059.756
 20
94.327
 30
0
 40
8.800422773935
 50
104.476801494667
 51
157.99667961513
210
0
220
0
230
1.0
 0
LINE
 8
TOOL_0
 5
217
 10
8051.597
 20
97.624
 30
0
 11
8030.354
 21
45.045
 31
0
 0
LINE
 8
TOOL_0
 5
218
 10
8030.354
 20
45.045
 30
0
 11
8032.308
 21
40.442
 31
0
 0
LINE
 8
TOOL_0
 5
219
 10
8032.308
 20
40.442
 30
0
 11
8533.516
 21
58.669
 31
0
 0
LINE
 8
TOOL_0
 5
21A
 10
8533.516
 20
58.669
 30
0
 11
8501.276
 21
45.044
 31
0
 0
ARC
 8
TOOL_0
 5
21B
 10
8491.988
 20
48.814
 30
0
 40
10.023963487564
 50
270.091453680532
 51
337.90776226692
210
0
220
0
230
1.0
 0
LINE
 8
TOOL_0
 5
21C
 10
8492.004
 20
38.79
 30
0
 11
8404.827
 21
38.79
 31
0
 0
ARC
 8
TOOL_0
 5
21D
 10
8404.827
 20
19.59
 30
0
 40
19.2
 50
90.0
 51
148.079705086671
210
0
220
0
230
1.0
 0
ARC
 8
TOOL_0
 5
21E
 10
8369.174
 20
41.814
 30
0
 40
22.812012624931
 50
239.849505978007
 51
328.048928599655
210
0
220
0
230
1.0
 0
ARC
 8
TOOL_0
 5
21F
 10
8322.928
 20
-37.732
 30
0
 40
69.199980809246
 50
59.820087804484
 51
90.0
210
0
220
0
230
1.0
 0
LINE
 8
TOOL_0
 5
220
 10
8322.928
 20
31.468
 30
0
 11
8295.428
 21
31.468
 31
0
 0
ARC
 8
TOOL_0
 5
221
 10
8295.428
 20
-37.732
 30
0
 40
69.2
 50
90.0
 51
120.179912195516
210
0
220
0
230
1.0
 0
ARC
 8
TOOL_0
 5
222
 10
8249.182
 20
41.814
 30
0
 40
22.812295807306
 50
211.951071400345
 51
300.150494021993
210
0
220
0
230
1.0
 0
ARC
 8
TOOL_0
 5
223
 10
8213.529
 20
19.59
 30
0
 40
19.200398771901
 50
31.920294913329
 51
90.0
210
0
220
0
230
1.0
 0
LINE
 8
TOOL_0
 5
224
 10
8213.529
 20
38.79
 30
0
 11
8126.352
 21
38.79
 31
0
 0
ARC
 8
TOOL_0
 5
225
 10
8126.368
 20
48.814
 30
0
 40
10.024012769345
 50
202.092237733082
 51
269.908546319468
210
0
220
0
230
1.0
 0
LINE
 8
TOOL_0
 5
226
 10
8117.08
 20
45.044
 30
0
 11
8095.837
 21
97.623
 31
0
 0
ARC
 8
TOOL_0
 5
227
 10
8087.678
 20
94.326
 30
0
 40
8.799971022679
 50
22.00332038487
 51
75.523198505333
210
0
220
0
230
1.0
 0
ARC
 8
TOOL_0
 5
228
 10
8092.178
 20
111.755
 30
0
 40
9.200133912069
 50
180.0
 51
255.522703142989
210
0
220
0
230
1.0
 0
LINE
 8
TOOL_0
 5
229
 10
8082.978
 20
111.755
 30
0
 11
8082.978
 21
191.39
 31
0
 0
ARC
 8
TOOL_0
 5
22A
 10
8092.978
 20
191.39
 30
0
 40
10.0
 50
90.0
 51
180.0
210
0
220
0
230
1.0
 0
LINE
 8
TOOL_0
 5
22B
 10
8092.978
 20
201.39
 30
0
 11
8155.483
 21
201.39
 31
0
 0
ARC
 8
TOOL_0
 5
22C
 10
8155.483
 20
190.59
 30
0
 40
10.8
 50
48.460740534168
 51
90.0
210
0
220
0
230
1.0
 0
ARC
 8
TOOL_0
 5
22D
 10
8098.04
 20
129.567
 30
0
 40
94.602238208194
 50
43.466652314864
 51
46.928384843842
210
0
220
0
230
1.0
 0
LINE
 8
TOOL_0
 5
22E
 10
8166.7
 20
194.647
 30
0
 11
8167.302
 21
194.069
 31
0
 0
ARC
 8
TOOL_0
 5
22F
 10
8174.529
 20
199.971
 30
0
 40
9.330762723379
 50
219.237129311717
 51
272.739746583199
210
0
220
0
230
1.0
 0
LINE
 8
TOOL_0
 5
230
 10
8174.975
 20
190.651
 30
0
 11
8212.272
 21
192.606
 31
0
 0
ARC
 8
TOOL_0
 5
231
 10
8211.005
 20
216.773
 30
0
 40
24.200189627356
 50
273.001090424869
 51
320.000123438968
210
0
220
0
230
1.0
 0
LINE
 8
TOOL_0
 5
232
 10
8229.544
 20
201.217
 30
0
 11
8239.515
 21
213.1
 31
0
 0
ARC
 8
TOOL_0
 5
233
 10
8293.773
 20
167.543
 30
0
 40
70.847518044036
 50
90.017791710545
 51
139.981952152145
210
0
220
0
230
1.0
 0
LINE
 8
TOOL_0
 5
234
 10
8293.751
 20
238.391
 30
0
 11
8324.607
 21
238.391
 31
0
 0
ARC
 8
TOOL_0
 5
235
 10
8324.607
 20
167.591
 30
0
 40
70.8
 50
41.351276536948
 51
90.0
210
0
220
0
230
1.0
 0
ARC
 8
TOOL_0
 5
236
 10
7825.798
 20
-261.084
 30
0
 40
728.498581501708
 50
39.389999123718
 51
40.741326157114
210
0
220
0
230
1.0
 0
ARC
 8
TOOL_0
 5
237
 10
8407.352
 20
216.773
 30
0
 40
24.19949315585
 50
219.999584725571
 51
267.001150046703
210
0
220
0
230
1.0
 0
LINE
 8
TOOL_0
 5
238
 10
8406.086
 20
192.607
 30
0
 11
8443.383
 21
190.652
 31
0
 0
ARC
 8
TOOL_0
 5
239
 10
8443.864
 20
199.839
 30
0
 40
9.19958314273
 50
267.002924856546
 51
303.800613645747
210
0
220
0
230
1.0
 0
ARC
 8
TOOL_0
 5
23A
 10
8435.938
 20
209.13
 30
0
 40
21.376950951901
 50
307.603236713993
 51
317.477862862889
210
0
220
0
230
1.0
 0
LINE
 8
TOOL_0
 5
23B
 10
8451.693
 20
194.682
 30
0
 11
8455.237
 21
198.228
 31
0
 0
ARC
 8
TOOL_0
 5
23C
 10
8462.899
 20
190.531
 30
0
 40
10.860481250847
 50
90.13189612869
 51
134.869434936405
210
0
220
0
230
1.0
 0
LINE
 8
TOOL_0
 5
23D
 10
8462.874
 20
201.391
 30
0
 11
8525.379
 21
201.391
 31
0
 0
ARC
 8
TOOL_0
 5
23E
 10
8525.379
 20
191.391
 30
0
 40
10.0
 50
0
 51
90.0
210
0
220
0
230
1.0
 0
LINE
 8
TOOL_0
 5
23F
 10
8535.379
 20
191.391
 30
0
 11
8535.379
 21
111.756
 31
0
 0
ARC
 8
TOOL_0
 5
240
 10
8526.179
 20
111.756
 30
0
 40
9.200000000001
 50
284.477296857016
 51
0
210
0
220
0
230
1.0
 0
ARC
 8
TOOL_0
 5
241
 10
8530.679
 20
94.327
 30
0
 40
8.800422773936
 50
104.476801494672
 51
157.996679615135
210
0
220
0
230
1.0
 0
LINE
 8
TOOL_0
 5
242
 10
8522.52
 20
97.624
 30
0
 11
8501.277
 21
45.045
 31
0
 0
LINE
 8
TOOL_0
 5
243
 10
8501.277
 20
45.045
 30
0
 11
8503.231
 21
40.442
 31
0
 0
LINE
 8
TOOL_0
 5
244
 10
8503.231
 20
40.442
 30
0
 11
9004.44
 21
58.669
 31
0
 0
LINE
 8
TOOL_0
 5
245
 10
9004.44
 20
58.669
 30
0
 11
8972.2
 21
45.044
 31
0
 0
ARC
 8
TOOL_0
 5
246
 10
8962.912
 20
48.814
 30
0
 40
10.023963487564
 50
270.091453680532
 51
337.90776226692
210
0
220
0
230
1.0
 0
LINE
 8
TOOL_0
 5
247
 10
8962.928
 20
38.79
 30
0
 11
8875.751
 21
38.79
 31
0
 0
ARC
 8
TOOL_0
 5
248
 10
8875.751
 20
19.59
 30
0
 40
19.2
 50
90.0
 51
148.079705086671
210
0
220
0
230
1.0
 0
ARC
 8
TOOL_0
 5
249
 10
8840.098
 20
41.814
 30
0
 40
22.812012624931
 50
239.849505978007
 51
328.048928599655
210
0
220
0
230
1.0
 0
ARC
 8
TOOL_0
 5
24A
 10
8793.852
 20
-37.732
 30
0
 40
69.199980809246
 50
59.820087804484
 51
90.0
210
0
220
0
230
1.0
 0
LINE
 8
TOOL_0
 5
24B
 10
8793.852
 20
31.468
 30
0
 11
8766.352
 21
31.468
 31
0
 0
ARC
 8
TOOL_0
 5
24C
 10
8766.352
 20
-37.732
 30
0
 40
69.2
 50
90.0
 51
120.179912195516
210
0
220
0
230
1.0
 0
ARC
 8
TOOL_0
 5
24D
 10
8720.106
 20
41.814
 30
0
 40
22.812295807306
 50
211.951071400345
 51
300.150494021993
210
0
220
0
230
1.0
 0
ARC
 8
TOOL_0
 5
24E
 10
8684.453
 20
19.59
 30
0
 40
19.200398771901
 50
31.920294913329
 51
90.0
210
0
220
0
230
1.0
 0
LINE
 8
TOOL_0
 5
24F
 10
8684.453
 20
38.79
 30
0
 11
8597.276
 21
38.79
 31
0
 0
ARC
 8
TOOL_0
 5
250
 10
8597.292
 20
48.814
 30
0
 40
10.024012769345
 50
202.09223773308
 51
269.908546319468
210
0
220
0
230
1.0
 0
LINE
 8
TOOL_0
 5
251
 10
8588.004
 20
45.044
 30
0
 11
8566.761
 21
97.623
 31
0
 0
ARC
 8
TOOL_0
 5
252
 10
8558.602
 20
94.326
 30
0
 40
8.799971022679
 50
22.00332038487
 51
75.523198505339
210
0
220
0
230
1.0
 0
ARC
 8
TOOL_0
 5
253
 10
8563.102
 20
111.755
 30
0
 40
9.200133912069
 50
180.0
 51
255.522703142995
210
0
220
0
230
1.0
 0
LINE
 8
TOOL_0
 5
254
 10
8553.902
 20
111.755
 30
0
 11
8553.902
 21
191.39
 31
0
 0
ARC
 8
TOOL_0
 5
255
 10
8563.902
 20
191.39
 30
0
 40
10.0
 50
90.0
 51
180.0
210
0
220
0
230
1.0
 0
LINE
 8
TOOL_0
 5
256
 10
8563.902
 20
201.39
 30
0
 11
8626.407
 21
201.39
 31
0
 0
ARC
 8
TOOL_0
 5
257
 10
8626.407
 20
190.59
 30
0
 40
10.8
 50
48.460740534168
 51
90.0
210
0
220
0
230
1.0
 0
ARC
 8
TOOL_0
 5
258
 10
8568.964
 20
129.567
 30
0
 40
94.602238208194
 50
43.466652314864
 51
46.928384843842
210
0
220
0
230
1.0
 0
LINE
 8
TOOL_0
 5
259
 10
8637.624
 20
194.647
 30
0
 11
8638.226
 21
194.069
 31
0
 0
ARC
 8
TOOL_0
 5
25A
 10
8645.453
 20
199.971
 30
0
 40
9.33076272338
 50
219.237129311713
 51
272.739746583199
210
0
220
0
230
1.0
 0
LINE
 8
TOOL_0
 5
25B
 10
8645.899
 20
190.651
 30
0
 11
8683.196
 21
192.606
 31
0
 0
ARC
 8
TOOL_0
 5
25C
 10
8681.929
 20
216.773
 30
0
 40
24.200189627356
 50
273.001090424869
 51
320.000123438968
210
0
220
0
230
1.0
 0
LINE
 8
TOOL_0
 5
25D
 10
8700.468
 20
201.217
 30
0
 11
8710.439
 21
213.1
 31
0
 0
ARC
 8
TOOL_0
 5
25E
 10
8764.697
 20
167.543
 30
0
 40
70.847518044036
 50
90.017791710545
 51
139.981952152145
210
0
220
0
230
1.0
 0
LINE
 8
TOOL_0
 5
25F
 10
8764.675
 20
238.391
 30
0
 11
8795.531
 21
238.391
 31
0
 0
ARC
 8
TOOL_0
 5
260
 10
8795.531
 20
167.591
 30
0
 40
70.8
 50
41.351276536948
 51
90.0
210
0
220
0
230
1.0
 0
ARC
 8
TOOL_0
 5
261
 10
8296.722
 20
-261.084
 30
0
 40
728.498581501708
 50
39.389999123718
 51
40.741326157114
210
0
220
0
230
1.0
 0
ARC
 8
TOOL_0
 5
262
 10
8878.276
 20
216.773
 30
0
 40
24.19949315585
 50
219.999584725571
 51
267.001150046703
210
0
220
0
230
1.0
 0
LINE
 8
TOOL_0
 5
263
 10
8877.01
 20
192.607
 30
0
 11
8914.307
 21
190.652
 31
0
 0
ARC
 8
TOOL_0
 5
264
 10
8914.788
 20
199.839
 30
0
 40
9.19958314273
 50
267.002924856546
 51
303.800613645747
210
0
220
0
230
1.0
 0
ARC
 8
TOOL_0
 5
265
 10
8906.862
 20
209.13
 30
0
 40
21.376950951901
 50
307.603236713993
 51
317.477862862889
210
0
220
0
230
1.0
 0
LINE
 8
TOOL_0
 5
266
 10
8922.617
 20
194.682
 30
0
 11
8926.161
 21
198.228
 31
0
 0
ARC
 8
TOOL_0
 5
267
 10
8933.823
 20
190.531
 30
0
 40
10.860481250847
 50
90.13189612869
 51
134.869434936405
210
0
220
0
230
1.0
 0
LINE
 8
TOOL_0
 5
268
 10
8933.798
 20
201.391
 30
0
 11
8996.303
 21
201.391
 31
0
 0
ARC
 8
TOOL_0
 5
269
 10
8996.303
 20
191.391
 30
0
 40
10.0
 50
0
 51
90.0
210
0
220
0
230
1.0
 0
LINE
 8
TOOL_0
 5
26A
 10
9006.303
 20
191.391
 30
0
 11
9006.303
 21
111.756
 31
0
 0
ARC
 8
TOOL_0
 5
26B
 10
8997.103
 20
111.756
 30
0
 40
9.200000000001
 50
284.477296857016
 51
0
210
0
220
0
230
1.0
 0
ARC
 8
TOOL_0
 5
26C
 10
9001.603
 20
94.327
 30
0
 40
8.800422773936
 50
104.476801494672
 51
157.996679615135
210
0
220
0
230
1.0
 0
LINE
 8
TOOL_0
 5
26D
 10
8993.444
 20
97.624
 30
0
 11
8972.201
 21
45.045
 31
0
 0
LINE
 8
TOOL_0
 5
26E
 10
8972.201
 20
45.045
 30
0
 11
8974.155
 21
40.442
 31
0
 0
LINE
 8
TOOL_0
 5
26F
 10
8974.155
 20
40.442
 30
0
 11
9475.364
 21
58.669
 31
0
 0
LINE
 8
TOOL_0
 5
270
 10
9475.364
 20
58.669
 30
0
 11
9443.124
 21
45.044
 31
0
 0
ARC
 8
TOOL_0
 5
271
 10
9433.836
 20
48.814
 30
0
 40
10.023963487564
 50
270.091453680532
 51
337.90776226692
210
0
220
0
230
1.0
 0
LINE
 8
TOOL_0
 5
272
 10
9433.852
 20
38.79
 30
0
 11
9346.675
 21
38.79
 31
0
 0
ARC
 8
TOOL_0
 5
273
 10
9346.675
 20
19.59
 30
0
 40
19.2
 50
90.0
 51
148.079705086671
210
0
220
0
230
1.0
 0
ARC
 8
TOOL_0
 5
274
 10
9311.022
 20
41.814
 30
0
 40
22.812012624931
 50
239.849505978007
 51
328.048928599655
210
0
220
0
230
1.0
 0
ARC
 8
TOOL_0
 5
275
 10
9264.776
 20
-37.732
 30
0
 40
69.199980809246
 50
59.820087804484
 51
90.0
210
0
220
0
230
1.0
 0
LINE
 8
TOOL_0
 5
276
 10
9264.776
 20
31.468
 30
0
 11
9237.276
 21
31.468
 31
0
 0
ARC
 8
TOOL_0
 5
277
 10
9237.276
 20
-37.732
 30
0
 40
69.2
 50
90.0
 51
120.179912195516
210
0
220
0
230
1.0
 0
ARC
 8
TOOL_0
 5
278
 10
9191.03
 20
41.814
 30
0
 40
22.812295807306
 50
211.951071400345
 51
300.150494021993
210
0
220
0
230
1.0
 0
ARC
 8
TOOL_0
 5
279
 10
9155.377
 20
19.59
 30
0
 40
19.200398771901
 50
31.920294913329
 51
90.0
210
0
220
0
230
1.0
 0
LINE
 8
TOOL_0
 5
27A
 10
9155.377
 20
38.79
 30
0
 11
9068.2
 21
38.79
 31
0
 0
ARC
 8
TOOL_0
 5
27B
 10
9068.216
 20
48.814
 30
0
 40
10.024012769345
 50
202.09223773308
 51
269.908546319468
210
0
220
0
230
1.0
 0
LINE
 8
TOOL_0
 5
27C
 10
9058.928
 20
45.044
 30
0
 11
9037.685
 21
97.623
 31
0
 0
ARC
 8
TOOL_0
 5
27D
 10
9029.526
 20
94.326
 30
0
 40
8.799971022679
 50
22.00332038487
 51
75.523198505339
210
0
220
0
230
1.0
 0
ARC
 8
TOOL_0
 5
27E
 10
9034.026
 20
111.755
 30
0
 40
9.200133912069
 50
180.0
 51
255.522703142995
210
0
220
0
230
1.0
 0
LINE
 8
TOOL_0
 5
27F
 10
9024.826
 20
111.755
 30
0
 11
9024.826
 21
191.39
 31
0
 0
ARC
 8
TOOL_0
 5
280
 10
9034.826
 20
191.39
 30
0
 40
10.0
 50
90.0
 51
180.0
210
0
220
0
230
1.0
 0
LINE
 8
TOOL_0
 5
281
 10
9034.826
 20
201.39
 30
0
 11
9097.331
 21
201.39
 31
0
 0
ARC
 8
TOOL_0
 5
282
 10
9097.331
 20
190.59
 30
0
 40
10.8
 50
48.460740534168
 51
90.0
210
0
220
0
230
1.0
 0
ARC
 8
TOOL_0
 5
283
 10
9039.888
 20
129.567
 30
0
 40
94.602238208194
 50
43.466652314864
 51
46.928384843842
210
0
220
0
230
1.0
 0
LINE
 8
TOOL_0
 5
284
 10
9108.548
 20
194.647
 30
0
 11
9109.15
 21
194.069
 31
0
 0
ARC
 8
TOOL_0
 5
285
 10
9116.377
 20
199.971
 30
0
 40
9.33076272338
 50
219.237129311713
 51
272.739746583199
210
0
220
0
230
1.0
 0
LINE
 8
TOOL_0
 5
286
 10
9116.823
 20
190.651
 30
0
 11
9154.12
 21
192.606
 31
0
 0
ARC
 8
TOOL_0
 5
287
 10
9152.853
 20
216.773
 30
0
 40
24.200189627356
 50
273.001090424869
 51
320.000123438968
210
0
220
0
230
1.0
 0
LINE
 8
TOOL_0
 5
288
 10
9171.392
 20
201.217
 30
0
 11
9181.363
 21
213.1
 31
0
 0
ARC
 8
TOOL_0
 5
289
 10
9235.621
 20
167.543
 30
0
 40
70.847518044036
 50
90.017791710545
 51
139.981952152145
210
0
220
0
230
1.0
 0
LINE
 8
TOOL_0
 5
28A
 10
9235.599
 20
238.391
 30
0
 11
9266.455
 21
238.391
 31
0
 0
ARC
 8
TOOL_0
 5
28B
 10
9266.455
 20
167.591
 30
0
 40
70.8
 50
41.351276536948
 51
90.0
210
0
220
0
230
1.0
 0
ARC
 8
TOOL_0
 5
28C
 10
8767.646
 20
-261.084
 30
0
 40
728.498581501708
 50
39.389999123718
 51
40.741326157114
210
0
220
0
230
1.0
 0
ARC
 8
TOOL_0
 5
28D
 10
9349.2
 20
216.773
 30
0
 40
24.19949315585
 50
219.999584725571
 51
267.001150046703
210
0
220
0
230
1.0
 0
LINE
 8
TOOL_0
 5
28E
 10
9347.934
 20
192.607
 30
0
 11
9385.231
 21
190.652
 31
0
 0
ARC
 8
TOOL_0
 5
28F
 10
9385.712
 20
199.839
 30
0
 40
9.19958314273
 50
267.002924856546
 51
303.800613645747
210
0
220
0
230
1.0
 0
ARC
 8
TOOL_0
 5
290
 10
9377.786
 20
209.13
 30
0
 40
21.376950951901
 50
307.603236713993
 51
317.477862862889
210
0
220
0
230
1.0
 0
LINE
 8
TOOL_0
 5
291
 10
9393.541
 20
194.682
 30
0
 11
9397.085
 21
198.228
 31
0
 0
ARC
 8
TOOL_0
 5
292
 10
9404.747
 20
190.531
 30
0
 40
10.860481250847
 50
90.13189612869
 51
134.869434936405
210
0
220
0
230
1.0
 0
LINE
 8
TOOL_0
 5
293
 10
9404.722
 20
201.391
 30
0
 11
9467.227
 21
201.391
 31
0
 0
ARC
 8
TOOL_0
 5
294
 10
9467.227
 20
191.391
 30
0
 40
10.0
 50
0
 51
90.0
210
0
220
0
230
1.0
 0
LINE
 8
TOOL_0
 5
295
 10
9477.227
 20
191.391
 30
0
 11
9477.227
 21
111.756
 31
0
 0
ARC
 8
TOOL_0
 5
296
 10
9468.027
 20
111.756
 30
0
 40
9.200000000001
 50
284.477296857016
 51
0
210
0
220
0
230
1.0
 0
ARC
 8
TOOL_0
 5
297
 10
9472.527
 20
94.327
 30
0
 40
8.800422773936
 50
104.476801494672
 51
157.996679615135
210
0
220
0
230
1.0
 0
LINE
 8
TOOL_0
 5
298
 10
9464.368
 20
97.624
 30
0
 11
9443.125
 21
45.045
 31
0
 0
LINE
 8
TOOL_0
 5
299
 10
9443.125
 20
45.045
 30
0
 11
9445.079
 21
40.442
 31
0
 0
LINE
 8
TOOL_0
 5
29A
 10
9445.079
 20
40.442
 30
0
 11
9445.079
 21
0.001
 31
0
 0
LINE
 8
TOOL_0
 5
29B
 10
9445.079
 20
0.001
 30
0
 11
8533.518
 21
1206.735
 31
0
 0
LINE
 8
TOOL_0
 5
29C
 10
8533.518
 20
1206.735
 30
0
 11
8501.279
 21
1193.111
 31
0
 0
ARC
 8
TOOL_0
 5
29D
 10
8491.991
 20
1196.881
 30
0
 40
10.023963487564
 50
270.091453680532
 51
337.90776226692
210
0
220
0
230
1.0
 0
LINE
 8
TOOL_0
 5
29E
 10
8492.007
 20
1186.857
 30
0
 11
8404.83
 21
1186.857
 31
0
 0
ARC
 8
TOOL_0
 5
29F
 10
8404.83
 20
1167.657
 30
0
 40
19.2
 50
90.0
 51
148.079705086671
210
0
220
0
230
1.0
 0
ARC
 8
TOOL_0
 5
2A0
 10
8369.177
 20
1189.881
 30
0
 40
22.812012624931
 50
239.849505978007
 51
328.048928599655
210
0
220
0
230
1.0
 0
ARC
 8
TOOL_0
 5
2A1
 10
8322.931
 20
1110.335
 30
0
 40
69.199980809246
 50
59.820087804484
 51
90.0
210
0
220
0
230
1.0
 0
LINE
 8
TOOL_0
 5
2A2
 10
8322.931
 20
1179.535
 30
0
 11
8295.431
 21
1179.535
 31
0
 0
ARC
 8
TOOL_0
 5
2A3
 10
8295.431
 20
1110.335
 30
0
 40
69.2
 50
90.0
 51
120.179912195516
210
0
220
0
230
1.0
 0
ARC
 8
TOOL_0
 5
2A4
 10
8249.185
 20
1189.881
 30
0
 40
22.812295807306
 50
211.951071400345
 51
300.150494021993
210
0
220
0
230
1.0
 0
ARC
 8
TOOL_0
 5
2A5
 10
8213.532
 20
1167.657
 30
0
 40
19.200398771901
 50
31.920294913329
 51
90.0
210
0
220
0
230
1.0
 0
LINE
 8
TOOL_0
 5
2A6
 10
8213.532
 20
1186.857
 30
0
 11
8126.355
 21
1186.857
 31
0
 0
ARC
 8
TOOL_0
 5
2A7
 10
8126.371
 20
1196.881
 30
0
 40
10.024012769345
 50
202.092237733081
 51
269.908546319468
210
0
220
0
230
1.0
 0
LINE
 8
TOOL_0
 5
2A8
 10
8117.083
 20
1193.111
 30
0
 11
8095.84
 21
1245.69
 31
0
 0
ARC
 8
TOOL_0
 5
2A9
 10
8087.681
 20
1242.393
 30
0
 40
8.799971022679
 50
22.00332038487
 51
75.523198505333
210
0
220
0
230
1.0
 0
ARC
 8
TOOL_0
 5
2AA
 10
8092.181
 20
1259.822
 30
0
 40
9.200133912069
 50
180.0
 51
255.522703142989
210
0
220
0
230
1.0
 0
LINE
 8
TOOL_0
 5
2AB
 10
8082.981
 20
1259.822
 30
0
 11
8082.981
 21
1339.457
 31
0
 0
ARC
 8
TOOL_0
 5
2AC
 10
8092.981
 20
1339.457
 30
0
 40
10.0
 50
90.0
 51
180.0
210
0
220
0
230
1.0
 0
LINE
 8
TOOL_0
 5
2AD
 10
8092.981
 20
1349.457
 30
0
 11
8155.486
 21
1349.457
 31
0
 0
ARC
 8
TOOL_0
 5
2AE
 10
8155.486
 20
1338.657
 30
0
 40
10.8
 50
48.460740534168
 51
90.0
210
0
220
0
230
1.0
 0
ARC
 8
TOOL_0
 5
2AF
 10
8098.043
 20
1277.634
 30
0
 40
94.602238208194
 50
43.466652314864
 51
46.928384843842
210
0
220
0
230
1.0
 0
LINE
 8
TOOL_0
 5
2B0
 10
8166.703
 20
1342.714
 30
0
 11
8167.305
 21
1342.136
 31
0
 0
ARC
 8
TOOL_0
 5
2B1
 10
8174.532
 20
1348.038
 30
0
 40
9.330762723379
 50
219.237129311717
 51
272.739746583199
210
0
220
0
230
1.0
 0
LINE
 8
TOOL_0
 5
2B2
 10
8174.978
 20
1338.718
 30
0
 11
8212.275
 21
1340.673
 31
0
 0
ARC
 8
TOOL_0
 5
2B3
 10
8211.008
 20
1364.84
 30
0
 40
24.200189627356
 50
273.001090424869
 51
320.000123438968
210
0
220
0
230
1.0
 0
LINE
 8
TOOL_0
 5
2B4
 10
8229.547
 20
1349.284
 30
0
 11
8239.518
 21
1361.167
 31
0
 0
ARC
 8
TOOL_0
 5
2B5
 10
8293.776
 20
1315.61
 30
0
 40
70.847518044036
 50
90.017791710545
 51
139.981952152145
210
0
220
0
230
1.0
 0
LINE
 8
TOOL_0
 5
2B6
 10
8293.754
 20
1386.458
 30
0
 11
8324.61
 21
1386.458
 31
0
 0
ARC
 8
TOOL_0
 5
2B7
 10
8324.61
 20
1315.658
 30
0
 40
70.8
 50
41.351276536948
 51
90.0
210
0
220
0
230
1.0
 0
ARC
 8
TOOL_0
 5
2B8
 10
7825.801
 20
886.983
 30
0
 40
728.498581501708
 50
39.389999123718
 51
40.741326157114
210
0
220
0
230
1.0
 0
ARC
 8
TOOL_0
 5
2B9
 10
8407.355
 20
1364.84
 30
0
 40
24.19949315585
 50
219.999584725571
 51
267.001150046703
210
0
220
0
230
1.0
 0
LINE
 8
TOOL_0
 5
2BA
 10
8406.089
 20
1340.674
 30
0
 11
8443.386
 21
1338.719
 31
0
 0
ARC
 8
TOOL_0
 5
2BB
 10
8443.867
 20
1347.906
 30
0
 40
9.19958314273
 50
267.002924856546
 51
303.800613645747
210
0
220
0
230
1.0
 0
ARC
 8
TOOL_0
 5
2BC
 10
8435.941
 20
1357.197
 30
0
 40
21.376950951901
 50
307.603236713993
 51
317.47786286289
210
0
220
0
230
1.0
 0
LINE
 8
TOOL_0
 5
2BD
 10
8451.696
 20
1342.749
 30
0
 11
8455.24
 21
1346.295
 31
0
 0
ARC
 8
TOOL_0
 5
2BE
 10
8462.902
 20
1338.598
 30
0
 40
10.860481250847
 50
90.13189612869
 51
134.869434936405
210
0
220
0
230
1.0
 0
LINE
 8
TOOL_0
 5
2BF
 10
8462.877
 20
1349.458
 30
0
 11
8525.382
 21
1349.458
 31
0
 0
ARC
 8
TOOL_0
 5
2C0
 10
8525.382
 20
1339.458
 30
0
 40
10.0
 50
0
 51
90.0
210
0
220
0
230
1.0
 0
LINE
 8
TOOL_0
 5
2C1
 10
8535.382
 20
1339.458
 30
0
 11
8535.382
 21
1259.823
 31
0
 0
ARC
 8
TOOL_0
 5
2C2
 10
8526.182
 20
1259.823
 30
0
 40
9.200000000001
 50
284.477296857016
 51
0
210
0
220
0
230
1.0
 0
ARC
 8
TOOL_0
 5
2C3
 10
8530.682
 20
1242.394
 30
0
 40
8.800422773935
 50
104.476801494672
 51
157.996679615135
210
0
220
0
230
1.0
 0
LINE
 8
TOOL_0
 5
2C4
 10
8522.523
 20
1245.691
 30
0
 11
8501.28
 21
1193.112
 31
0
 0
LINE
 8
TOOL_0
 5
2C5
 10
8501.28
 20
1193.112
 30
0
 11
8503.234
 21
1188.509
 31
0
 0
LINE
 8
TOOL_0
 5
2C6
 10
8503.234
 20
1188.509
 30
0
 11
8503.234
 21
0.002
 31
0
 0
LINE
 8
TOOL_0
 5
2C7
 10
8503.234
 20
0.002
 30
0
 11
8062.598
 21
1206.537
 31
0
 0
LINE
 8
TOOL_0
 5
2C8
 10
8062.598
 20
1206.537
 30
0
 11
8030.359
 21
1192.913
 31
0
 0
ARC
 8
TOOL_0
 5
2C9
 10
8021.071
 20
1196.683
 30
0
 40
10.023963487563
 50
270.091453680532
 51
337.907762266919
210
0
220
0
230
1.0
 0
LINE
 8
TOOL_0
 5
2CA
 10
8021.087
 20
1186.659
 30
0
 11
7933.91
 21
1186.659
 31
0
 0
ARC
 8
TOOL_0
 5
2CB
 10
7933.91
 20
1167.459
 30
0
 40
19.2
 50
90.0
 51
148.079705086669
210
0
220
0
230
1.0
 0
ARC
 8
TOOL_0
 5
2CC
 10
7898.257
 20
1189.683
 30
0
 40
22.812012624931
 50
239.849505978007
 51
328.048928599655
210
0
220
0
230
1.0
 0
ARC
 8
TOOL_0
 5
2CD
 10
7852.011
 20
1110.137
 30
0
 40
69.199980809246
 50
59.820087804485
 51
90.0
210
0
220
0
230
1.0
 0
LINE
 8
TOOL_0
 5
2CE
 10
7852.011
 20
1179.337
 30
0
 11
7824.511
 21
1179.337
 31
0
 0
ARC
 8
TOOL_0
 5
2CF
 10
7824.511
 20
1110.137
 30
0
 40
69.2
 50
90.0
 51
120.179912195515
210
0
220
0
230
1.0
 0
ARC
 8
TOOL_0
 5
2D0
 10
7778.265
 20
1189.683
 30
0
 40
22.812295807305
 50
211.951071400344
 51
300.150494021991
210
0
220
0
230
1.0
 0
ARC
 8
TOOL_0
 5
2D1
 10
7742.612
 20
1167.459
 30
0
 40
19.2003987719
 50
31.92029491333
 51
90.0
210
0
220
0
230
1.0
 0
LINE
 8
TOOL_0
 5
2D2
 10
7742.612
 20
1186.659
 30
0
 11
7655.435
 21
1186.659
 31
0
 0
ARC
 8
TOOL_0
 5
2D3
 10
7655.451
 20
1196.683
 30
0
 40
10.024012769345
 50
202.092237733081
 51
269.908546319468
210
0
220
0
230
1.0
 0
LINE
 8
TOOL_0
 5
2D4
 10
7646.163
 20
1192.913
 30
0
 11
7624.92
 21
1245.492
 31
0
 0
ARC
 8
TOOL_0
 5
2D5
 10
7616.761
 20
1242.195
 30
0
 40
8.799971022679
 50
22.00332038487
 51
75.523198505333
210
0
220
0
230
1.0
 0
ARC
 8
TOOL_0
 5
2D6
 10
7621.261
 20
1259.624
 30
0
 40
9.200133912069
 50
180.0
 51
255.522703142989
210
0
220
0
230
1.0
 0
LINE
 8
TOOL_0
 5
2D7
 10
7612.061
 20
1259.624
 30
0
 11
7612.061
 21
1339.259
 31
0
 0
ARC
 8
TOOL_0
 5
2D8
 10
7622.061
 20
1339.259
 30
0
 40
10.0
 50
90.0
 51
180.0
210
0
220
0
230
1.0
 0
LINE
 8
TOOL_0
 5
2D9
 10
7622.061
 20
1349.259
 30
0
 11
7684.566
 21
1349.259
 31
0
 0
ARC
 8
TOOL_0
 5
2DA
 10
7684.566
 20
1338.459
 30
0
 40
10.8
 50
48.460740534168
 51
90.0
210
0
220
0
230
1.0
 0
ARC
 8
TOOL_0
 5
2DB
 10
7627.123
 20
1277.436
 30
0
 40
94.602238208194
 50
43.466652314864
 51
46.928384843842
210
0
220
0
230
1.0
 0
LINE
 8
TOOL_0
 5
2DC
 10
7695.783
 20
1342.516
 30
0
 11
7696.385
 21
1341.938
 31
0
 0
ARC
 8
TOOL_0
 5
2DD
 10
7703.612
 20
1347.84
 30
0
 40
9.330762723379
 50
219.237129311717
 51
272.739746583199
210
0
220
0
230
1.0
 0
LINE
 8
TOOL_0
 5
2DE
 10
7704.058
 20
1338.52
 30
0
 11
7741.355
 21
1340.475
 31
0
 0
ARC
 8
TOOL_0
 5
2DF
 10
7740.088
 20
1364.642
 30
0
 40
24.200189627356
 50
273.001090424869
 51
320.000123438967
210
0
220
0
230
1.0
 0
LINE
 8
TOOL_0
 5
2E0
 10
7758.627
 20
1349.086
 30
0
 11
7768.598
 21
1360.969
 31
0
 0
ARC
 8
TOOL_0
 5
2E1
 10
7822.856
 20
1315.412
 30
0
 40
70.847518044036
 50
90.017791710546
 51
139.981952152145
210
0
220
0
230
1.0
 0
LINE
 8
TOOL_0
 5
2E2
 10
7822.834
 20
1386.26
 30
0
 11
7853.69
 21
1386.26
 31
0
 0
ARC
 8
TOOL_0
 5
2E3
 10
7853.69
 20
1315.46
 30
0
 40
70.8
 50
41.351276536947
 51
90.0
210
0
220
0
230
1.0
 0
ARC
 8
TOOL_0
 5
2E4
 10
7354.881
 20
886.785
 30
0
 40
728.498581501708
 50
39.389999123718
 51
40.741326157114
210
0
220
0
230
1.0
 0
ARC
 8
TOOL_0
 5
2E5
 10
7936.435
 20
1364.642
 30
0
 40
24.199493155849
 50
219.999584725572
 51
267.001150046703
210
0
220
0
230
1.0
 0
LINE
 8
TOOL_0
 5
2E6
 10
7935.169
 20
1340.476
 30
0
 11
7972.466
 21
1338.521
 31
0
 0
ARC
 8
TOOL_0
 5
2E7
 10
7972.947
 20
1347.708
 30
0
 40
9.19958314273
 50
267.002924856546
 51
303.800613645747
210
0
220
0
230
1.0
 0
ARC
 8
TOOL_0
 5
2E8
 10
7965.021
 20
1356.999
 30
0
 40
21.376950951901
 50
307.603236713993
 51
317.477862862891
210
0
220
0
230
1.0
 0
LINE
 8
TOOL_0
 5
2E9
 10
7980.776
 20
1342.551
 30
0
 11
7984.32
 21
1346.097
 31
0
 0
ARC
 8
TOOL_0
 5
2EA
 10
7991.982
 20
1338.4
 30
0
 40
10.860481250847
 50
90.131896128695
 51
134.869434936405
210
0
220
0
230
1.0
 0
LINE
 8
TOOL_0
 5
2EB
 10
7991.957
 20
1349.26
 30
0
 11
8054.462
 21
1349.26
 31
0
 0
ARC
 8
TOOL_0
 5
2EC
 10
8054.462
 20
1339.26
 30
0
 40
10.0
 50
0
 51
90.0
210
0
220
0
230
1.0
 0
LINE
 8
TOOL_0
 5
2ED
 10
8064.462
 20
1339.26
 30
0
 11
8064.462
 21
1259.625
 31
0
 0
ARC
 8
TOOL_0
 5
2EE
 10
8055.262
 20
1259.625
 30
0
 40
9.2
 50
284.477296857011
 51
0
210
0
220
0
230
1.0
 0
ARC
 8
TOOL_0
 5
2EF
 10
8059.762
 20
1242.196
 30
0
 40
8.800422773935
 50
104.476801494667
 51
157.99667961513
210
0
220
0
230
1.0
 0
LINE
 8
TOOL_0
 5
2F0
 10
8051.603
 20
1245.493
 30
0
 11
8030.36
 21
1192.914
 31
0
 0
LINE
 8
TOOL_0
 5
2F1
 10
8030.36
 20
1192.914
 30
0
 11
8032.314
 21
1188.311
 31
0
 0
LINE
 8
TOOL_0
 5
2F2
 10
8032.314
 20
1188.311
 30
0
 11
8032.314
 21
0.002
 31
0
 0
LINE
 8
TOOL_0
 5
2F3
 10
8032.314
 20
0.002
 30
0
 11
9475.367
 21
1206.537
 31
0
 0
LINE
 8
TOOL_0
 5
2F4
 10
9475.367
 20
1206.537
 30
0
 11
9443.127
 21
1192.913
 31
0
 0
ARC
 8
TOOL_0
 5
2F5
 10
9433.839
 20
1196.683
 30
0
 40
10.023963487564
 50
270.091453680532
 51
337.90776226692
210
0
220
0
230
1.0
 0
LINE
 8
TOOL_0
 5
2F6
 10
9433.855
 20
1186.659
 30
0
 11
9346.678
 21
1186.659
 31
0
 0
ARC
 8
TOOL_0
 5
2F7
 10
9346.678
 20
1167.459
 30
0
 40
19.2
 50
90.0
 51
148.079705086671
210
0
220
0
230
1.0
 0
ARC
 8
TOOL_0
 5
2F8
 10
9311.025
 20
1189.683
 30
0
 40
22.812012624931
 50
239.849505978007
 51
328.048928599655
210
0
220
0
230
1.0
 0
ARC
 8
TOOL_0
 5
2F9
 10
9264.779
 20
1110.137
 30
0
 40
69.199980809246
 50
59.820087804484
 51
90.0
210
0
220
0
230
1.0
 0
LINE
 8
TOOL_0
 5
2FA
 10
9264.779
 20
1179.337
 30
0
 11
9237.279
 21
1179.337
 31
0
 0
ARC
 8
TOOL_0
 5
2FB
 10
9237.279
 20
1110.137
 30
0
 40
69.2
 50
90.0
 51
120.179912195516
210
0
220
0
230
1.0
 0
ARC
 8
TOOL_0
 5
2FC
 10
9191.033
 20
1189.683
 30
0
 40
22.812295807306
 50
211.951071400345
 51
300.150494021993
210
0
220
0
230
1.0
 0
ARC
 8
TOOL_0
 5
2FD
 10
9155.38
 20
1167.459
 30
0
 40
19.200398771901
 50
31.920294913329
 51
90.0
210
0
220
0
230
1.0
 0
LINE
 8
TOOL_0
 5
2FE
 10
9155.38
 20
1186.659
 30
0
 11
9068.203
 21
1186.659
 31
0
 0
ARC
 8
TOOL_0
 5
2FF
 10
9068.219
 20
1196.683
 30
0
 40
10.024012769345
 50
202.092237733079
 51
269.908546319468
210
0
220
0
230
1.0
 0
LINE
 8
TOOL_0
 5
300
 10
9058.931
 20
1192.913
 30
0
 11
9037.688
 21
1245.492
 31
0
 0
ARC
 8
TOOL_0
 5
301
 10
9029.529
 20
1242.195
 30
0
 40
8.799971022679
 50
22.00332038487
 51
75.523198505339
210
0
220
0
230
1.0
 0
ARC
 8
TOOL_0
 5
302
 10
9034.029
 20
1259.624
 30
0
 40
9.200133912069
 50
180.0
 51
255.522703142995
210
0
220
0
230
1.0
 0
LINE
 8
TOOL_0
 5
303
 10
9024.829
 20
1259.624
 30
0
 11
9024.829
 21
1339.259
 31
0
 0
ARC
 8
TOOL_0
 5
304
 10
9034.829
 20
1339.259
 30
0
 40
10.0
 50
90.0
 51
180.0
210
0
220
0
230
1.0
 0
LINE
 8
TOOL_0
 5
305
 10
9034.829
 20
1349.259
 30
0
 11
9097.334
 21
1349.259
 31
0
 0
ARC
 8
TOOL_0
 5
306
 10
9097.334
 20
1338.459
 30
0
 40
10.8
 50
48.460740534168
 51
90.0
210
0
220
0
230
1.0
 0
ARC
 8
TOOL_0
 5
307
 10
9039.891
 20
1277.436
 30
0
 40
94.602238208194
 50
43.466652314864
 51
46.928384843842
210
0
220
0
230
1.0
 0
LINE
 8
TOOL_0
 5
308
 10
9108.551
 20
1342.516
 30
0
 11
9109.153
 21
1341.938
 31
0
 0
ARC
 8
TOOL_0
 5
309
 10
9116.38
 20
1347.84
 30
0
 40
9.33076272338
 50
219.237129311713
 51
272.739746583199
210
0
220
0
230
1.0
 0
LINE
 8
TOOL_0
 5
30A
 10
9116.826
 20
1338.52
 30
0
 11
9154.123
 21
1340.475
 31
0
 0
ARC
 8
TOOL_0
 5
30B
 10
9152.856
 20
1364.642
 30
0
 40
24.200189627356
 50
273.001090424869
 51
320.000123438968
210
0
220
0
230
1.0
 0
LINE
 8
TOOL_0
 5
30C
 10
9171.395
 20
1349.086
 30
0
 11
9181.366
 21
1360.969
 31
0
 0
ARC
 8
TOOL_0
 5
30D
 10
9235.624
 20
1315.412
 30
0
 40
70.847518044036
 50
90.017791710545
 51
139.981952152145
210
0
220
0
230
1.0
 0
LINE
 8
TOOL_0
 5
30E
 10
9235.602
 20
1386.26
 30
0
 11
9266.458
 21
1386.26
 31
0
 0
ARC
 8
TOOL_0
 5
30F
 10
9266.458
 20
1315.46
 30
0
 40
70.8
 50
41.351276536948
 51
90.0
210
0
220
0
230
1.0
 0
ARC
 8
TOOL_0
 5
310
 10
8767.649
 20
886.785
 30
0
 40
728.498581501708
 50
39.389999123718
 51
40.741326157114
210
0
220
0
230
1.0
 0
ARC
 8
TOOL_0
 5
311
 10
9349.203
 20
1364.642
 30
0
 40
24.19949315585
 50
219.999584725571
 51
267.001150046703
210
0
220
0
230
1.0
 0
LINE
 8
TOOL_0
 5
312
 10
9347.937
 20
1340.476
 30
0
 11
9385.234
 21
1338.521
 31
0
 0
ARC
 8
TOOL_0
 5
313
 10
9385.715
 20
1347.708
 30
0
 40
9.19958314273
 50
267.002924856546
 51
303.800613645747
210
0
220
0
230
1.0
 0
ARC
 8
TOOL_0
 5
314
 10
9377.789
 20
1356.999
 30
0
 40
21.376950951901
 50
307.603236713993
 51
317.47786286289
210
0
220
0
230
1.0
 0
LINE
 8
TOOL_0
 5
315
 10
9393.544
 20
1342.551
 30
0
 11
9397.088
 21
1346.097
 31
0
 0
ARC
 8
TOOL_0
 5
316
 10
9404.75
 20
1338.4
 30
0
 40
10.860481250847
 50
90.13189612869
 51
134.869434936405
210
0
220
0
230
1.0
 0
LINE
 8
TOOL_0
 5
317
 10
9404.725
 20
1349.26
 30
0
 11
9467.23
 21
1349.26
 31
0
 0
ARC
 8
TOOL_0
 5
318
 10
9467.23
 20
1339.26
 30
0
 40
10.0
 50
0
 51
90.0
210
0
220
0
230
1.0
 0
LINE
 8
TOOL_0
 5
319
 10
9477.23
 20
1339.26
 30
0
 11
9477.23
 21
1259.625
 31
0
 0
ARC
 8
TOOL_0
 5
31A
 10
9468.03
 20
1259.625
 30
0
 40
9.200000000001
 50
284.477296857016
 51
0
210
0
220
0
230
1.0
 0
ARC
 8
TOOL_0
 5
31B
 10
9472.53
 20
1242.196
 30
0
 40
8.800422773935
 50
104.476801494672
 51
157.996679615135
210
0
220
0
230
1.0
 0
LINE
 8
TOOL_0
 5
31C
 10
9464.371
 20
1245.493
 30
0
 11
9443.128
 21
1192.914
 31
0
 0
LINE
 8
TOOL_0
 5
31D
 10
9443.128
 20
1192.914
 30
0
 11
9445.082
 21
1188.311
 31
0
 0
LINE
 8
TOOL_0
 5
31E
 10
9445.082
 20
1188.311
 30
0
 11
9445.082
 21
0.003
 31
0
 0
LINE
 8
TOOL_0
 5
31F
 10
9445.082
 20
0.003
 30
0
 11
9004.446
 21
1206.538
 31
0
 0
LINE
 8
TOOL_0
 5
320
 10
9004.446
 20
1206.538
 30
0
 11
8972.206
 21
1192.914
 31
0
 0
ARC
 8
TOOL_0
 5
321
 10
8962.918
 20
1196.684
 30
0
 40
10.023963487564
 50
270.091453680532
 51
337.90776226692
210
0
220
0
230
1.0
 0
LINE
 8
TOOL_0
 5
322
 10
8962.934
 20
1186.66
 30
0
 11
8875.757
 21
1186.66
 31
0
 0
ARC
 8
TOOL_0
 5
323
 10
8875.757
 20
1167.46
 30
0
 40
19.2
 50
90.0
 51
148.079705086671
210
0
220
0
230
1.0
 0
ARC
 8
TOOL_0
 5
324
 10
8840.104
 20
1189.684
 30
0
 40
22.812012624931
 50
239.849505978007
 51
328.048928599655
210
0
220
0
230
1.0
 0
ARC
 8
TOOL_0
 5
325
 10
8793.858
 20
1110.138
 30
0
 40
69.199980809246
 50
59.820087804484
 51
90.0
210
0
220
0
230
1.0
 0
LINE
 8
TOOL_0
 5
326
 10
8793.858
 20
1179.338
 30
0
 11
8766.358
 21
1179.338
 31
0
 0
ARC
 8
TOOL_0
 5
327
 10
8766.358
 20
1110.138
 30
0
 40
69.2
 50
90.0
 51
120.179912195516
210
0
220
0
230
1.0
 0
ARC
 8
TOOL_0
 5
328
 10
8720.112
 20
1189.684
 30
0
 40
22.812295807306
 50
211.951071400345
 51
300.150494021993
210
0
220
0
230
1.0
 0
ARC
 8
TOOL_0
 5
329
 10
8684.459
 20
1167.46
 30
0
 40
19.200398771901
 50
31.920294913329
 51
90.0
210
0
220
0
230
1.0
 0
LINE
 8
TOOL_0
 5
32A
 10
8684.459
 20
1186.66
 30
0
 11
8597.282
 21
1186.66
 31
0
 0
ARC
 8
TOOL_0
 5
32B
 10
8597.298
 20
1196.684
 30
0
 40
10.024012769345
 50
202.092237733079
 51
269.908546319468
210
0
220
0
230
1.0
 0
LINE
 8
TOOL_0
 5
32C
 10
8588.01
 20
1192.914
 30
0
 11
8566.767
 21
1245.493
 31
0
 0
ARC
 8
TOOL_0
 5
32D
 10
8558.608
 20
1242.196
 30
0
 40
8.799971022679
 50
22.00332038487
 51
75.523198505339
210
0
220
0
230
1.0
 0
ARC
 8
TOOL_0
 5
32E
 10
8563.108
 20
1259.625
 30
0
 40
9.200133912069
 50
180.0
 51
255.522703142995
210
0
220
0
230
1.0
 0
LINE
 8
TOOL_0
 5
32F
 10
8553.908
 20
1259.625
 30
0
 11
8553.908
 21
1339.26
 31
0
 0
ARC
 8
TOOL_0
 5
330
 10
8563.908
 20
1339.26
 30
0
 40
10.0
 50
90.0
 51
180.0
210
0
220
0
230
1.0
 0
LINE
 8
TOOL_0
 5
331
 10
8563.908
 20
1349.26
 30
0
 11
8626.413
 21
1349.26
 31
0
 0
ARC
 8
TOOL_0
 5
332
 10
8626.413
 20
1338.46
 30
0
 40
10.8
 50
48.460740534168
 51
90.0
210
0
220
0
230
1.0
 0
ARC
 8
TOOL_0
 5
333
 10
8568.97
 20
1277.437
 30
0
 40
94.602238208194
 50
43.466652314864
 51
46.928384843842
210
0
220
0
230
1.0
 0
LINE
 8
TOOL_0
 5
334
 10
8637.63
 20
1342.517
 30
0
 11
8638.232
 21
1341.939
 31
0
 0
ARC
 8
TOOL_0
 5
335
 10
8645.459
 20
1347.841
 30
0
 40
9.33076272338
 50
219.237129311713
 51
272.739746583199
210
0
220
0
230
1.0
 0
LINE
 8
TOOL_0
 5
336
 10
8645.905
 20
1338.521
 30
0
 11
8683.202
 21
1340.476
 31
0
 0
ARC
 8
TOOL_0
 5
337
 10
8681.935
 20
1364.643
 30
0
 40
24.200189627356
 50
273.001090424869
 51
320.000123438968
210
0
220
0
230
1.0
 0
LINE
 8
TOOL_0
 5
338
 10
8700.474
 20
1349.087
 30
0
 11
8710.445
 21
1360.97
 31
0
 0
ARC
 8
TOOL_0
 5
339
 10
8764.703
 20
1315.413
 30
0
 40
70.847518044036
 50
90.017791710545
 51
139.981952152145
210
0
220
0
230
1.0
 0
LINE
 8
TOOL_0
 5
33A
 10
8764.681
 20
1386.261
 30
0
 11
8795.537
 21
1386.261
 31
0
 0
ARC
 8
TOOL_0
 5
33B
 10
8795.537
 20
1315.461
 30
0
 40
70.8
 50
41.351276536948
 51
90.0
210
0
220
0
230
1.0
 0
ARC
 8
TOOL_0
 5
33C
 10
8296.728
 20
886.786
 30
0
 40
728.498581501708
 50
39.389999123718
 51
40.741326157114
210
0
220
0
230
1.0
 0
ARC
 8
TOOL_0
 5
33D
 10
8878.282
 20
1364.643
 30
0
 40
24.19949315585
 50
219.999584725571
 51
267.001150046703
210
0
220
0
230
1.0
 0
LINE
 8
TOOL_0
 5
33E
 10
8877.016
 20
1340.477
 30
0
 11
8914.313
 21
1338.522
 31
0
 0
ARC
 8
TOOL_0
 5
33F
 10
8914.794
 20
1347.709
 30
0
 40
9.19958314273
 50
267.002924856546
 51
303.800613645747
210
0
220
0
230
1.0
 0
ARC
 8
TOOL_0
 5
340
 10
8906.868
 20
1357.0
 30
0
 40
21.376950951901
 50
307.603236713993
 51
317.47786286289
210
0
220
0
230
1.0
 0
LINE
 8
TOOL_0
 5
341
 10
8922.623
 20
1342.552
 30
0
 11
8926.167
 21
1346.098
 31
0
 0
ARC
 8
TOOL_0
 5
342
 10
8933.829
 20
1338.401
 30
0
 40
10.860481250847
 50
90.13189612869
 51
134.869434936405
210
0
220
0
230
1.0
 0
LINE
 8
TOOL_0
 5
343
 10
8933.804
 20
1349.261
 30
0
 11
8996.309
 21
1349.261
 31
0
 0
ARC
 8
TOOL_0
 5
344
 10
8996.309
 20
1339.261
 30
0
 40
10.0
 50
0
 51
90.0
210
0
220
0
230
1.0
 0
LINE
 8
TOOL_0
 5
345
 10
9006.309
 20
1339.261
 30
0
 11
9006.309
 21
1259.626
 31
0
 0
ARC
 8
TOOL_0
 5
346
 10
8997.109
 20
1259.626
 30
0
 40
9.200000000001
 50
284.477296857016
 51
0
210
0
220
0
230
1.0
 0
ARC
 8
TOOL_0
 5
347
 10
9001.609
 20
1242.197
 30
0
 40
8.800422773935
 50
104.476801494672
 51
157.996679615135
210
0
220
0
230
1.0
 0
LINE
 8
TOOL_0
 5
348
 10
8993.45
 20
1245.494
 30
0
 11
8972.207
 21
1192.915
 31
0
 0
LINE
 8
TOOL_0
 5
349
 10
8972.207
 20
1192.915
 30
0
 11
8974.161
 21
1188.312
 31
0
 0
LINE
 8
TOOL_0
 5
34A
 10
8974.161
 20
1188.312
 30
0
 11
9502.755
 21
0.003
 31
0
 0
LINE
 8
TOOL_0
 5
34B
 10
9502.755
 20
0.003
 30
0
 11
9502.755
 21
1.003
 31
0
 0
LINE
 8
TOOL_0
 5
34C
 10
9502.755
 20
1.003
 30
0
 11
9502.755
 21
0.003
 31
0
 0
LINE
 8
TOOL_0
 5
34D
 10
9502.755
 20
0.003
 30
0
 11
9502.755
 21
0.003
 31
0
 0
LINE
 8
TOOL_0
 5
34E
 10
9502.755
 20
0.003
 30
0
 11
9502.755
 21
1.003
 31
0
 0
LINE
 8
TOOL_0
 5
34F
 10
9502.755
 20
1.003
 30
0
 11
9502.755
 21
1404.978
 31
0
 0
LINE
 8
TOOL_0
 5
350
 10
9502.755
 20
1404.978
 30
0
 11
9081.888
 21
1404.978
 31
0
 0
LINE
 8
TOOL_0
 5
351
 10
9081.888
 20
1404.978
 30
0
 11
9081.888
 21
1999.003
 31
0
 0
LINE
 8
TOOL_0
 5
352
 10
9081.888
 20
1999.003
 30
0
 11
9081.888
 21
2000.003
 31
0
 0
ENDSEC
 0
EOF

