0
SECTION
2
TABLES
0
TABLE
2
LAYER
70
0
0
LAYER
2
LAYER_NAME
70
0
62
1
6
CONTINUOUS
0
ENDTAB
0
ENDSEC
 0
SECTION
 2
ENTITIES
 0
LINE
 8
TOOL_0
 5
1
 10
7423.732
 20
19.0
 30
0
 11
7403.0
 21
19.0
 31
0
 0
LINE
 8
TOOL_0
 5
2
 10
7403.0
 20
19.0
 30
0
 11
6987.25
 21
19.0
 31
0
 0
LINE
 8
TOOL_0
 5
3
 10
6987.25
 20
19.0
 30
0
 11
6987.25
 21
479.75
 31
0
 0
ARC
 8
TOOL_0
 5
4
 10
6948.0
 20
479.75
 30
0
 40
39.25
 50
0
 51
90.0
210
0
220
0
230
1.0
 0
LINE
 8
TOOL_0
 5
5
 10
6948.0
 20
519.0
 30
0
 11
473.928
 21
519.0
 31
0
 0
ARC
 8
TOOL_0
 5
6
 10
473.999
 20
479.75
 30
0
 40
39.250064216508
 50
90.103643207856
 51
180.0
210
0
220
0
230
1.0
 0
LINE
 8
TOOL_0
 5
7
 10
434.749
 20
479.75
 30
0
 11
434.749
 21
19.0
 31
0
 0
LINE
 8
TOOL_0
 5
8
 10
434.749
 20
19.0
 30
0
 11
18.999
 21
19.0
 31
0
 0
LINE
 8
TOOL_0
 5
9
 10
18.999
 20
19.0
 30
0
 11
18.999
 21
919.75
 31
0
 0
LINE
 8
TOOL_0
 5
A
 10
18.999
 20
919.75
 30
0
 11
103.999
 21
919.75
 31
0
 0
ARC
 8
TOOL_0
 5
B
 10
103.999
 20
959.75
 30
0
 40
40.0
 50
270.0
 51
0
210
0
220
0
230
1.0
 0
LINE
 8
TOOL_0
 5
C
 10
143.999
 20
959.75
 30
0
 11
143.999
 21
1129.75
 31
0
 0
ARC
 8
TOOL_0
 5
D
 10
103.999
 20
1129.75
 30
0
 40
40.0
 50
0
 51
90.0
210
0
220
0
230
1.0
 0
LINE
 8
TOOL_0
 5
E
 10
103.999
 20
1169.75
 30
0
 11
18.999
 21
1169.75
 31
0
 0
LINE
 8
TOOL_0
 5
F
 10
18.999
 20
1169.75
 30
0
 11
18.999
 21
2070.5
 31
0
 0
LINE
 8
TOOL_0
 5
10
 10
18.999
 20
2070.5
 30
0
 11
434.749
 21
2070.5
 31
0
 0
LINE
 8
TOOL_0
 5
11
 10
434.749
 20
2070.5
 30
0
 11
434.749
 21
1609.75
 31
0
 0
ARC
 8
TOOL_0
 5
12
 10
473.999
 20
1609.75
 30
0
 40
39.25
 50
180.0
 51
269.894897031905
210
0
220
0
230
1.0
 0
LINE
 8
TOOL_0
 5
13
 10
473.927
 20
1570.5
 30
0
 11
6947.999
 21
1570.5
 31
0
 0
ARC
 8
TOOL_0
 5
14
 10
6947.999
 20
1609.75
 30
0
 40
39.25
 50
270.0
 51
0
210
0
220
0
230
1.0
 0
LINE
 8
TOOL_0
 5
15
 10
6987.249
 20
1609.75
 30
0
 11
6987.249
 21
2070.5
 31
0
 0
LINE
 8
TOOL_0
 5
16
 10
6987.249
 20
2070.5
 30
0
 11
7402.999
 21
2070.5
 31
0
 0
LINE
 8
TOOL_0
 5
17
 10
7402.999
 20
2070.5
 30
0
 11
7402.999
 21
1169.75
 31
0
 0
LINE
 8
TOOL_0
 5
18
 10
7402.999
 20
1169.75
 30
0
 11
7317.999
 21
1169.75
 31
0
 0
ARC
 8
TOOL_0
 5
19
 10
7317.999
 20
1129.75
 30
0
 40
40.0
 50
90.0
 51
180.0
210
0
220
0
230
1.0
 0
LINE
 8
TOOL_0
 5
1A
 10
7277.999
 20
1129.75
 30
0
 11
7277.999
 21
959.75
 31
0
 0
ARC
 8
TOOL_0
 5
1B
 10
7317.999
 20
959.75
 30
0
 40
40.0
 50
180.0
 51
270.0
210
0
220
0
230
1.0
 0
LINE
 8
TOOL_0
 5
1C
 10
7317.999
 20
919.75
 30
0
 11
7402.999
 21
919.75
 31
0
 0
LINE
 8
TOOL_0
 5
1D
 10
7402.999
 20
919.75
 30
0
 11
7402.999
 21
19.0
 31
0
 0
LINE
 8
TOOL_0
 5
1E
 10
7402.999
 20
19.0
 30
0
 11
7397.482
 21
11.715
 31
0
 0
LINE
 8
TOOL_0
 5
1F
 10
7397.482
 20
11.715
 30
0
 11
5133.0
 21
2460.742
 31
0
 0
LINE
 8
TOOL_0
 5
20
 10
5133.0
 20
2460.742
 30
0
 11
5163.0
 21
2460.742
 31
0
 0
ARC
 8
TOOL_0
 5
21
 10
5118.0
 20
2460.742
 30
0
 40
45.0
 50
0
 51
180.0
210
0
220
0
230
1.0
 0
ARC
 8
TOOL_0
 5
22
 10
5118.0
 20
2460.742
 30
0
 40
45.0
 50
180.0
 51
0
210
0
220
0
230
1.0
 0
LINE
 8
TOOL_0
 5
23
 10
5163.0
 20
2460.742
 30
0
 11
5159.464
 21
2464.278
 31
0
 0
LINE
 8
TOOL_0
 5
24
 10
5159.464
 20
2464.278
 30
0
 11
8396.525
 21
2157.492
 31
0
 0
LINE
 8
TOOL_0
 5
25
 10
8396.525
 20
2157.492
 30
0
 11
8185.0
 21
2157.492
 31
0
 0
LINE
 8
TOOL_0
 5
26
 10
8185.0
 20
2157.492
 30
0
 11
20.0
 21
2157.492
 31
0
 0
LINE
 8
TOOL_0
 5
27
 10
20.0
 20
2157.492
 30
0
 11
20.0
 21
2888.992
 31
0
 0
LINE
 8
TOOL_0
 5
28
 10
20.0
 20
2888.992
 30
0
 11
8185.0
 21
2888.992
 31
0
 0
LINE
 8
TOOL_0
 5
29
 10
8185.0
 20
2888.992
 30
0
 11
8185.0
 21
2788.242
 31
0
 0
LINE
 8
TOOL_0
 5
2A
 10
8185.0
 20
2788.242
 30
0
 11
8435.0
 21
2788.242
 31
0
 0
LINE
 8
TOOL_0
 5
2B
 10
8435.0
 20
2788.242
 30
0
 11
8435.0
 21
2593.242
 31
0
 0
LINE
 8
TOOL_0
 5
2C
 10
8435.0
 20
2593.242
 30
0
 11
8185.0
 21
2593.242
 31
0
 0
LINE
 8
TOOL_0
 5
2D
 10
8185.0
 20
2593.242
 30
0
 11
8185.0
 21
2453.242
 31
0
 0
LINE
 8
TOOL_0
 5
2E
 10
8185.0
 20
2453.242
 30
0
 11
8435.0
 21
2453.242
 31
0
 0
LINE
 8
TOOL_0
 5
2F
 10
8435.0
 20
2453.242
 30
0
 11
8435.0
 21
2258.242
 31
0
 0
LINE
 8
TOOL_0
 5
30
 10
8435.0
 20
2258.242
 30
0
 11
8185.0
 21
2258.242
 31
0
 0
LINE
 8
TOOL_0
 5
31
 10
8185.0
 20
2258.242
 30
0
 11
8185.0
 21
2157.492
 31
0
 0
LINE
 8
TOOL_0
 5
32
 10
8185.0
 20
2157.492
 30
0
 11
8162.737
 21
2106.735
 31
0
 0
LINE
 8
TOOL_0
 5
33
 10
8162.737
 20
2106.735
 30
0
 11
7516.628
 21
0
 31
0
 0
LINE
 8
TOOL_0
 5
34
 10
7516.628
 20
0
 30
0
 11
7516.628
 21
1.0
 31
0
 0
LINE
 8
TOOL_0
 5
35
 10
7516.628
 20
1.0
 30
0
 11
7516.628
 21
0
 31
0
 0
LINE
 8
TOOL_0
 5
36
 10
7516.628
 20
0
 30
0
 11
7516.628
 21
1.0
 31
0
 0
LINE
 8
TOOL_0
 5
37
 10
7516.628
 20
1.0
 30
0
 11
7516.628
 21
2010.379
 31
0
 0
LINE
 8
TOOL_0
 5
38
 10
7516.628
 20
2010.379
 30
0
 11
8507.078
 21
2010.379
 31
0
 0
LINE
 8
TOOL_0
 5
39
 10
8507.078
 20
2010.379
 30
0
 11
8507.078
 21
2999.0
 31
0
 0
LINE
 8
TOOL_0
 5
3A
 10
8507.078
 20
2999.0
 30
0
 11
8507.078
 21
3000.0
 31
0
 0
ENDSEC
 0
EOF

