0
SECTION
2
TABLES
0
TABLE
2
LAYER
70
0
0
LAYER
2
LAYER_NAME
70
0
62
1
6
CONTINUOUS
0
ENDTAB
0
ENDSEC
 0
SECTION
 2
ENTITIES
 0
LINE
 8
TOOL_0
 5
1
 10
1738.1
 20
372.601
 30
0
 11
1783.1
 21
372.601
 31
0
 0
LINE
 8
TOOL_0
 5
2
 10
1783.1
 20
372.601
 30
0
 11
1783.1
 21
537.601
 31
0
 0
ARC
 8
TOOL_0
 5
3
 10
1748.1
 20
537.601
 30
0
 40
35.0
 50
0
 51
90.0
210
0
220
0
230
1.0
 0
LINE
 8
TOOL_0
 5
4
 10
1748.1
 20
572.601
 30
0
 11
1593.1
 21
572.601
 31
0
 0
ARC
 8
TOOL_0
 5
5
 10
1593.1
 20
537.601
 30
0
 40
35.0
 50
90.0
 51
180.0
210
0
220
0
230
1.0
 0
LINE
 8
TOOL_0
 5
6
 10
1558.1
 20
537.601
 30
0
 11
1558.1
 21
207.601
 31
0
 0
ARC
 8
TOOL_0
 5
7
 10
1593.1
 20
207.601
 30
0
 40
35.0
 50
180.0
 51
270.0
210
0
220
0
230
1.0
 0
LINE
 8
TOOL_0
 5
8
 10
1593.1
 20
172.601
 30
0
 11
1748.1
 21
172.601
 31
0
 0
ARC
 8
TOOL_0
 5
9
 10
1748.1
 20
207.601
 30
0
 40
35.0
 50
270.0
 51
0
210
0
220
0
230
1.0
 0
LINE
 8
TOOL_0
 5
A
 10
1783.1
 20
207.601
 30
0
 11
1783.1
 21
372.601
 31
0
 0
LINE
 8
TOOL_0
 5
B
 10
1783.1
 20
372.601
 30
0
 11
2583.1
 21
372.601
 31
0
 0
LINE
 8
TOOL_0
 5
C
 10
2583.1
 20
372.601
 30
0
 11
2628.1
 21
372.601
 31
0
 0
LINE
 8
TOOL_0
 5
D
 10
2628.1
 20
372.601
 30
0
 11
2628.1
 21
537.601
 31
0
 0
ARC
 8
TOOL_0
 5
E
 10
2593.1
 20
537.601
 30
0
 40
35.0
 50
0
 51
90.0
210
0
220
0
230
1.0
 0
LINE
 8
TOOL_0
 5
F
 10
2593.1
 20
572.601
 30
0
 11
2438.1
 21
572.601
 31
0
 0
ARC
 8
TOOL_0
 5
10
 10
2438.1
 20
537.601
 30
0
 40
35.0
 50
90.0
 51
180.0
210
0
220
0
230
1.0
 0
LINE
 8
TOOL_0
 5
11
 10
2403.1
 20
537.601
 30
0
 11
2403.1
 21
207.601
 31
0
 0
ARC
 8
TOOL_0
 5
12
 10
2438.1
 20
207.601
 30
0
 40
35.0
 50
180.0
 51
270.0
210
0
220
0
230
1.0
 0
LINE
 8
TOOL_0
 5
13
 10
2438.1
 20
172.601
 30
0
 11
2593.1
 21
172.601
 31
0
 0
ARC
 8
TOOL_0
 5
14
 10
2593.1
 20
207.601
 30
0
 40
35.0
 50
270.0
 51
0
210
0
220
0
230
1.0
 0
LINE
 8
TOOL_0
 5
15
 10
2628.1
 20
207.601
 30
0
 11
2628.1
 21
372.601
 31
0
 0
LINE
 8
TOOL_0
 5
16
 10
2628.1
 20
372.601
 30
0
 11
3067.208
 21
164.621
 31
0
 0
LINE
 8
TOOL_0
 5
17
 10
3067.208
 20
164.621
 30
0
 11
3089.1
 21
93.601
 31
0
 0
LINE
 8
TOOL_0
 5
18
 10
3089.1
 20
93.601
 30
0
 11
3089.1
 21
22.187
 31
0
 0
LINE
 8
TOOL_0
 5
19
 10
3089.1
 20
22.187
 30
0
 11
3078.514
 21
11.601
 31
0
 0
LINE
 8
TOOL_0
 5
1A
 10
3078.514
 20
11.601
 30
0
 11
2948.1
 21
11.601
 31
0
 0
ARC
 8
TOOL_0
 5
1B
 10
2948.1
 20
2.601
 30
0
 40
9.0
 50
90.0
 51
153.611470741544
210
0
220
0
230
1.0
 0
LINE
 8
TOOL_0
 5
1C
 10
2940.038
 20
6.601
 30
0
 11
6.6
 21
6.601
 31
0
 0
LINE
 8
TOOL_0
 5
1D
 10
6.6
 20
6.601
 30
0
 11
6.6
 21
425.601
 31
0
 0
ARC
 8
TOOL_0
 5
1E
 10
14.6
 20
425.601
 30
0
 40
8.0
 50
90.0
 51
180.0
210
0
220
0
230
1.0
 0
LINE
 8
TOOL_0
 5
1F
 10
14.6
 20
433.601
 30
0
 11
292.724
 21
433.601
 31
0
 0
ARC
 8
TOOL_0
 5
20
 10
292.725
 20
532.598
 30
0
 40
98.997000005051
 50
269.999421237214
 51
287.481910083977
210
0
220
0
230
1.0
 0
LINE
 8
TOOL_0
 5
21
 10
322.464
 20
438.174
 30
0
 11
1606.521
 21
842.601
 31
0
 0
LINE
 8
TOOL_0
 5
22
 10
1606.521
 20
842.601
 30
0
 11
2649.1
 21
842.601
 31
0
 0
LINE
 8
TOOL_0
 5
23
 10
2649.1
 20
842.601
 30
0
 11
2649.1
 21
767.601
 31
0
 0
ARC
 8
TOOL_0
 5
24
 10
2698.1
 20
767.601
 30
0
 40
49.0
 50
180.0
 51
270.0
210
0
220
0
230
1.0
 0
LINE
 8
TOOL_0
 5
25
 10
2698.1
 20
718.601
 30
0
 11
2765.226
 21
718.601
 31
0
 0
ARC
 8
TOOL_0
 5
26
 10
2765.226
 20
667.601
 30
0
 40
51.0
 50
40.000047858101
 51
90.0
210
0
220
0
230
1.0
 0
LINE
 8
TOOL_0
 5
27
 10
2804.294
 20
700.383
 30
0
 11
3089.1
 21
360.965
 31
0
 0
LINE
 8
TOOL_0
 5
28
 10
3089.1
 20
360.965
 30
0
 11
3089.1
 21
251.601
 31
0
 0
LINE
 8
TOOL_0
 5
29
 10
3089.1
 20
251.601
 30
0
 11
3068.1
 21
251.601
 31
0
 0
ARC
 8
TOOL_0
 5
2A
 10
3068.1
 20
172.601
 30
0
 40
79.0
 50
90.0
 51
270.0
210
0
220
0
230
1.0
 0
LINE
 8
TOOL_0
 5
2B
 10
3068.1
 20
93.601
 30
0
 11
3089.1
 21
93.601
 31
0
 0
LINE
 8
TOOL_0
 5
2C
 10
3089.1
 20
93.601
 30
0
 11
3098.181
 21
93.399
 31
0
 0
LINE
 8
TOOL_0
 5
2D
 10
3098.181
 20
93.399
 30
0
 11
4846.767
 21
372.601
 31
0
 0
LINE
 8
TOOL_0
 5
2E
 10
4846.767
 20
372.601
 30
0
 11
4891.767
 21
372.601
 31
0
 0
LINE
 8
TOOL_0
 5
2F
 10
4891.767
 20
372.601
 30
0
 11
4891.767
 21
537.601
 31
0
 0
ARC
 8
TOOL_0
 5
30
 10
4856.767
 20
537.601
 30
0
 40
35.0
 50
0
 51
90.0
210
0
220
0
230
1.0
 0
LINE
 8
TOOL_0
 5
31
 10
4856.767
 20
572.601
 30
0
 11
4701.767
 21
572.601
 31
0
 0
ARC
 8
TOOL_0
 5
32
 10
4701.767
 20
537.601
 30
0
 40
35.0
 50
90.0
 51
180.0
210
0
220
0
230
1.0
 0
LINE
 8
TOOL_0
 5
33
 10
4666.767
 20
537.601
 30
0
 11
4666.767
 21
207.601
 31
0
 0
ARC
 8
TOOL_0
 5
34
 10
4701.767
 20
207.601
 30
0
 40
35.0
 50
180.0
 51
270.0
210
0
220
0
230
1.0
 0
LINE
 8
TOOL_0
 5
35
 10
4701.767
 20
172.601
 30
0
 11
4856.767
 21
172.601
 31
0
 0
ARC
 8
TOOL_0
 5
36
 10
4856.767
 20
207.601
 30
0
 40
35.0
 50
270.0
 51
0
210
0
220
0
230
1.0
 0
LINE
 8
TOOL_0
 5
37
 10
4891.767
 20
207.601
 30
0
 11
4891.767
 21
372.601
 31
0
 0
LINE
 8
TOOL_0
 5
38
 10
4891.767
 20
372.601
 30
0
 11
5691.767
 21
372.601
 31
0
 0
LINE
 8
TOOL_0
 5
39
 10
5691.767
 20
372.601
 30
0
 11
5736.767
 21
372.601
 31
0
 0
LINE
 8
TOOL_0
 5
3A
 10
5736.767
 20
372.601
 30
0
 11
5736.767
 21
537.601
 31
0
 0
ARC
 8
TOOL_0
 5
3B
 10
5701.767
 20
537.601
 30
0
 40
35.0
 50
0
 51
90.0
210
0
220
0
230
1.0
 0
LINE
 8
TOOL_0
 5
3C
 10
5701.767
 20
572.601
 30
0
 11
5546.767
 21
572.601
 31
0
 0
ARC
 8
TOOL_0
 5
3D
 10
5546.767
 20
537.601
 30
0
 40
35.0
 50
90.0
 51
180.0
210
0
220
0
230
1.0
 0
LINE
 8
TOOL_0
 5
3E
 10
5511.767
 20
537.601
 30
0
 11
5511.767
 21
207.601
 31
0
 0
ARC
 8
TOOL_0
 5
3F
 10
5546.767
 20
207.601
 30
0
 40
35.0
 50
180.0
 51
270.0
210
0
220
0
230
1.0
 0
LINE
 8
TOOL_0
 5
40
 10
5546.767
 20
172.601
 30
0
 11
5701.767
 21
172.601
 31
0
 0
ARC
 8
TOOL_0
 5
41
 10
5701.767
 20
207.601
 30
0
 40
35.0
 50
270.0
 51
0
210
0
220
0
230
1.0
 0
LINE
 8
TOOL_0
 5
42
 10
5736.767
 20
207.601
 30
0
 11
5736.767
 21
372.601
 31
0
 0
LINE
 8
TOOL_0
 5
43
 10
5736.767
 20
372.601
 30
0
 11
6233.122
 21
128.956
 31
0
 0
LINE
 8
TOOL_0
 5
44
 10
6233.122
 20
128.956
 30
0
 11
6197.767
 21
93.601
 31
0
 0
LINE
 8
TOOL_0
 5
45
 10
6197.767
 20
93.601
 30
0
 11
6197.767
 21
22.187
 31
0
 0
LINE
 8
TOOL_0
 5
46
 10
6197.767
 20
22.187
 30
0
 11
6187.181
 21
11.601
 31
0
 0
LINE
 8
TOOL_0
 5
47
 10
6187.181
 20
11.601
 30
0
 11
6056.767
 21
11.601
 31
0
 0
ARC
 8
TOOL_0
 5
48
 10
6056.767
 20
2.601
 30
0
 40
9.0
 50
90.0
 51
153.611470741544
210
0
220
0
230
1.0
 0
LINE
 8
TOOL_0
 5
49
 10
6048.705
 20
6.601
 30
0
 11
3115.267
 21
6.601
 31
0
 0
LINE
 8
TOOL_0
 5
4A
 10
3115.267
 20
6.601
 30
0
 11
3115.267
 21
425.601
 31
0
 0
ARC
 8
TOOL_0
 5
4B
 10
3123.267
 20
425.601
 30
0
 40
8.0
 50
90.0
 51
180.0
210
0
220
0
230
1.0
 0
LINE
 8
TOOL_0
 5
4C
 10
3123.267
 20
433.601
 30
0
 11
3401.391
 21
433.601
 31
0
 0
ARC
 8
TOOL_0
 5
4D
 10
3401.392
 20
532.598
 30
0
 40
98.997000005051
 50
269.999421237214
 51
287.481910083977
210
0
220
0
230
1.0
 0
LINE
 8
TOOL_0
 5
4E
 10
3431.131
 20
438.174
 30
0
 11
4715.188
 21
842.601
 31
0
 0
LINE
 8
TOOL_0
 5
4F
 10
4715.188
 20
842.601
 30
0
 11
5757.767
 21
842.601
 31
0
 0
LINE
 8
TOOL_0
 5
50
 10
5757.767
 20
842.601
 30
0
 11
5757.767
 21
767.601
 31
0
 0
ARC
 8
TOOL_0
 5
51
 10
5806.767
 20
767.601
 30
0
 40
49.0
 50
180.0
 51
270.0
210
0
220
0
230
1.0
 0
LINE
 8
TOOL_0
 5
52
 10
5806.767
 20
718.601
 30
0
 11
5873.893
 21
718.601
 31
0
 0
ARC
 8
TOOL_0
 5
53
 10
5873.893
 20
667.601
 30
0
 40
51.0
 50
40.000047858101
 51
90.0
210
0
220
0
230
1.0
 0
LINE
 8
TOOL_0
 5
54
 10
5912.961
 20
700.383
 30
0
 11
6197.767
 21
360.965
 31
0
 0
LINE
 8
TOOL_0
 5
55
 10
6197.767
 20
360.965
 30
0
 11
6197.767
 21
251.601
 31
0
 0
LINE
 8
TOOL_0
 5
56
 10
6197.767
 20
251.601
 30
0
 11
6176.767
 21
251.601
 31
0
 0
ARC
 8
TOOL_0
 5
57
 10
6176.767
 20
172.601
 30
0
 40
79.0
 50
90.0
 51
270.0
210
0
220
0
230
1.0
 0
LINE
 8
TOOL_0
 5
58
 10
6176.767
 20
93.601
 30
0
 11
6197.767
 21
93.601
 31
0
 0
LINE
 8
TOOL_0
 5
59
 10
6197.767
 20
93.601
 30
0
 11
6204.838
 21
86.53
 31
0
 0
LINE
 8
TOOL_0
 5
5A
 10
6204.838
 20
86.53
 30
0
 11
6204.838
 21
0
 31
0
 0
LINE
 8
TOOL_0
 5
5B
 10
6204.838
 20
0
 30
0
 11
548.1
 21
2137.952
 31
0
 0
LINE
 8
TOOL_0
 5
5C
 10
548.1
 20
2137.952
 30
0
 11
593.1
 21
2137.952
 31
0
 0
LINE
 8
TOOL_0
 5
5D
 10
593.1
 20
2137.952
 30
0
 11
593.1
 21
2282.4
 31
0
 0
ARC
 8
TOOL_0
 5
5E
 10
558.1
 20
2282.4
 30
0
 40
35.0
 50
0
 51
90.0
210
0
220
0
230
1.0
 0
LINE
 8
TOOL_0
 5
5F
 10
558.1
 20
2317.4
 30
0
 11
403.1
 21
2317.4
 31
0
 0
ARC
 8
TOOL_0
 5
60
 10
403.1
 20
2282.4
 30
0
 40
35.0
 50
90.0
 51
180.0
210
0
220
0
230
1.0
 0
LINE
 8
TOOL_0
 5
61
 10
368.1
 20
2282.4
 30
0
 11
368.1
 21
1952.4
 31
0
 0
ARC
 8
TOOL_0
 5
62
 10
403.1
 20
1952.4
 30
0
 40
35.0
 50
180.0
 51
270.0
210
0
220
0
230
1.0
 0
LINE
 8
TOOL_0
 5
63
 10
403.1
 20
1917.4
 30
0
 11
558.1
 21
1917.4
 31
0
 0
ARC
 8
TOOL_0
 5
64
 10
558.1
 20
1952.4
 30
0
 40
35.0
 50
270.0
 51
0
210
0
220
0
230
1.0
 0
LINE
 8
TOOL_0
 5
65
 10
593.1
 20
1952.4
 30
0
 11
593.1
 21
2137.952
 31
0
 0
LINE
 8
TOOL_0
 5
66
 10
593.1
 20
2137.952
 30
0
 11
1293.1
 21
2117.4
 31
0
 0
LINE
 8
TOOL_0
 5
67
 10
1293.1
 20
2117.4
 30
0
 11
1338.1
 21
2117.4
 31
0
 0
LINE
 8
TOOL_0
 5
68
 10
1338.1
 20
2117.4
 30
0
 11
1338.1
 21
2282.4
 31
0
 0
ARC
 8
TOOL_0
 5
69
 10
1303.1
 20
2282.4
 30
0
 40
35.0
 50
0
 51
90.0
210
0
220
0
230
1.0
 0
LINE
 8
TOOL_0
 5
6A
 10
1303.1
 20
2317.4
 30
0
 11
1148.1
 21
2317.4
 31
0
 0
ARC
 8
TOOL_0
 5
6B
 10
1148.1
 20
2282.4
 30
0
 40
35.0
 50
90.0
 51
180.0
210
0
220
0
230
1.0
 0
LINE
 8
TOOL_0
 5
6C
 10
1113.1
 20
2282.4
 30
0
 11
1113.1
 21
1952.4
 31
0
 0
ARC
 8
TOOL_0
 5
6D
 10
1148.1
 20
1952.4
 30
0
 40
35.0
 50
180.0
 51
270.0
210
0
220
0
230
1.0
 0
LINE
 8
TOOL_0
 5
6E
 10
1148.1
 20
1917.4
 30
0
 11
1303.1
 21
1917.4
 31
0
 0
ARC
 8
TOOL_0
 5
6F
 10
1303.1
 20
1952.4
 30
0
 40
35.0
 50
270.0
 51
0
210
0
220
0
230
1.0
 0
LINE
 8
TOOL_0
 5
70
 10
1338.1
 20
1952.4
 30
0
 11
1338.1
 21
2117.4
 31
0
 0
LINE
 8
TOOL_0
 5
71
 10
1338.1
 20
2117.4
 30
0
 11
2766.6
 21
2001.4
 31
0
 0
LINE
 8
TOOL_0
 5
72
 10
2766.6
 20
2001.4
 30
0
 11
2741.6
 21
2026.4
 31
0
 0
LINE
 8
TOOL_0
 5
73
 10
2741.6
 20
2026.4
 30
0
 11
2464.055
 21
2026.4
 31
0
 0
ARC
 8
TOOL_0
 5
74
 10
2464.055
 20
1927.4
 30
0
 40
99.0
 50
90.0
 51
108.130410810383
210
0
220
0
230
1.0
 0
LINE
 8
TOOL_0
 5
75
 10
2433.248
 20
2021.485
 30
0
 11
1290.773
 21
1647.4
 31
0
 0
LINE
 8
TOOL_0
 5
76
 10
1290.773
 20
1647.4
 30
0
 11
396.6
 21
1647.4
 31
0
 0
LINE
 8
TOOL_0
 5
77
 10
396.6
 20
1647.4
 30
0
 11
396.6
 21
1691.4
 31
0
 0
ARC
 8
TOOL_0
 5
78
 10
346.6
 20
1691.4
 30
0
 40
50.0
 50
0
 51
90.0
210
0
220
0
230
1.0
 0
LINE
 8
TOOL_0
 5
79
 10
346.6
 20
1741.4
 30
0
 11
329.855
 21
1741.4
 31
0
 0
ARC
 8
TOOL_0
 5
7A
 10
329.877
 20
1791.448
 30
0
 40
50.048004835358
 50
220.025735995627
 51
269.974814037162
210
0
220
0
230
1.0
 0
LINE
 8
TOOL_0
 5
7B
 10
291.553
 20
1759.261
 30
0
 11
6.6
 21
2098.854
 31
0
 0
LINE
 8
TOOL_0
 5
7C
 10
6.6
 20
2098.854
 30
0
 11
6.6
 21
2207.4
 31
0
 0
LINE
 8
TOOL_0
 5
7D
 10
6.6
 20
2207.4
 30
0
 11
28.1
 21
2207.4
 31
0
 0
ARC
 8
TOOL_0
 5
7E
 10
28.1
 20
2287.4
 30
0
 40
80.0
 50
270.0
 51
90.0
210
0
220
0
230
1.0
 0
LINE
 8
TOOL_0
 5
7F
 10
28.1
 20
2367.4
 30
0
 11
6.6
 21
2367.4
 31
0
 0
LINE
 8
TOOL_0
 5
80
 10
6.6
 20
2367.4
 30
0
 11
6.6
 21
2437.314
 31
0
 0
LINE
 8
TOOL_0
 5
81
 10
6.6
 20
2437.314
 30
0
 11
17.686
 21
2448.4
 31
0
 0
LINE
 8
TOOL_0
 5
82
 10
17.686
 20
2448.4
 30
0
 11
148.1
 21
2448.4
 31
0
 0
ARC
 8
TOOL_0
 5
83
 10
148.083
 20
2457.427
 30
0
 40
9.027016007519
 50
270.107901528773
 51
333.505912100376
210
0
220
0
230
1.0
 0
LINE
 8
TOOL_0
 5
84
 10
156.162
 20
2453.4
 30
0
 11
2749.6
 21
2453.4
 31
0
 0
LINE
 8
TOOL_0
 5
85
 10
2749.6
 20
2453.4
 30
0
 11
2749.6
 21
2034.4
 31
0
 0
ARC
 8
TOOL_0
 5
86
 10
2741.6
 20
2034.4
 30
0
 40
8.0
 50
270.0
 51
0
210
0
220
0
230
1.0
 0
LINE
 8
TOOL_0
 5
87
 10
2741.6
 20
2026.4
 30
0
 11
2736.6
 21
2021.4
 31
0
 0
LINE
 8
TOOL_0
 5
88
 10
2736.6
 20
2021.4
 30
0
 11
3443.279
 21
2033.936
 31
0
 0
LINE
 8
TOOL_0
 5
89
 10
3443.279
 20
2033.936
 30
0
 11
3488.279
 21
2033.936
 31
0
 0
LINE
 8
TOOL_0
 5
8A
 10
3488.279
 20
2033.936
 30
0
 11
3488.279
 21
2198.936
 31
0
 0
ARC
 8
TOOL_0
 5
8B
 10
3453.279
 20
2198.936
 30
0
 40
35.0
 50
0
 51
90.0
210
0
220
0
230
1.0
 0
LINE
 8
TOOL_0
 5
8C
 10
3453.279
 20
2233.936
 30
0
 11
3298.279
 21
2233.936
 31
0
 0
ARC
 8
TOOL_0
 5
8D
 10
3298.279
 20
2198.936
 30
0
 40
35.0
 50
90.0
 51
180.0
210
0
220
0
230
1.0
 0
LINE
 8
TOOL_0
 5
8E
 10
3263.279
 20
2198.936
 30
0
 11
3263.279
 21
1868.936
 31
0
 0
ARC
 8
TOOL_0
 5
8F
 10
3298.279
 20
1868.936
 30
0
 40
35.0
 50
180.0
 51
270.0
210
0
220
0
230
1.0
 0
LINE
 8
TOOL_0
 5
90
 10
3298.279
 20
1833.936
 30
0
 11
3453.279
 21
1833.936
 31
0
 0
ARC
 8
TOOL_0
 5
91
 10
3453.279
 20
1868.936
 30
0
 40
35.0
 50
270.0
 51
0
210
0
220
0
230
1.0
 0
LINE
 8
TOOL_0
 5
92
 10
3488.279
 20
1868.936
 30
0
 11
3488.279
 21
2033.936
 31
0
 0
LINE
 8
TOOL_0
 5
93
 10
3488.279
 20
2033.936
 30
0
 11
4188.279
 21
2033.936
 31
0
 0
LINE
 8
TOOL_0
 5
94
 10
4188.279
 20
2033.936
 30
0
 11
4233.279
 21
2033.936
 31
0
 0
LINE
 8
TOOL_0
 5
95
 10
4233.279
 20
2033.936
 30
0
 11
4233.279
 21
2198.936
 31
0
 0
ARC
 8
TOOL_0
 5
96
 10
4198.279
 20
2198.936
 30
0
 40
35.0
 50
0
 51
90.0
210
0
220
0
230
1.0
 0
LINE
 8
TOOL_0
 5
97
 10
4198.279
 20
2233.936
 30
0
 11
4043.279
 21
2233.936
 31
0
 0
ARC
 8
TOOL_0
 5
98
 10
4043.279
 20
2198.936
 30
0
 40
35.0
 50
90.0
 51
180.0
210
0
220
0
230
1.0
 0
LINE
 8
TOOL_0
 5
99
 10
4008.279
 20
2198.936
 30
0
 11
4008.279
 21
1868.936
 31
0
 0
ARC
 8
TOOL_0
 5
9A
 10
4043.279
 20
1868.936
 30
0
 40
35.0
 50
180.0
 51
270.0
210
0
220
0
230
1.0
 0
LINE
 8
TOOL_0
 5
9B
 10
4043.279
 20
1833.936
 30
0
 11
4198.279
 21
1833.936
 31
0
 0
ARC
 8
TOOL_0
 5
9C
 10
4198.279
 20
1868.936
 30
0
 40
35.0
 50
270.0
 51
0
210
0
220
0
230
1.0
 0
LINE
 8
TOOL_0
 5
9D
 10
4233.279
 20
1868.936
 30
0
 11
4233.279
 21
2033.936
 31
0
 0
LINE
 8
TOOL_0
 5
9E
 10
4233.279
 20
2033.936
 30
0
 11
5682.661
 21
1986.17
 31
0
 0
LINE
 8
TOOL_0
 5
9F
 10
5682.661
 20
1986.17
 30
0
 11
5647.306
 21
1950.815
 31
0
 0
LINE
 8
TOOL_0
 5
A0
 10
5647.306
 20
1950.815
 30
0
 11
5644.638
 21
1949.439
 31
0
 0
ARC
 8
TOOL_0
 5
A1
 10
5636.779
 20
1950.936
 30
0
 40
8.000305619163
 50
270.0
 51
349.215367122296
210
0
220
0
230
1.0
 0
LINE
 8
TOOL_0
 5
A2
 10
5636.779
 20
1942.936
 30
0
 11
5359.234
 21
1942.936
 31
0
 0
ARC
 8
TOOL_0
 5
A3
 10
5359.234
 20
1843.936
 30
0
 40
99.0
 50
90.0
 51
108.130410810383
210
0
220
0
230
1.0
 0
LINE
 8
TOOL_0
 5
A4
 10
5328.427
 20
1938.021
 30
0
 11
4185.952
 21
1563.936
 31
0
 0
LINE
 8
TOOL_0
 5
A5
 10
4185.952
 20
1563.936
 30
0
 11
3291.779
 21
1563.936
 31
0
 0
LINE
 8
TOOL_0
 5
A6
 10
3291.779
 20
1563.936
 30
0
 11
3291.779
 21
1607.936
 31
0
 0
ARC
 8
TOOL_0
 5
A7
 10
3241.779
 20
1607.936
 30
0
 40
50.0
 50
0
 51
90.0
210
0
220
0
230
1.0
 0
LINE
 8
TOOL_0
 5
A8
 10
3241.779
 20
1657.936
 30
0
 11
3225.034
 21
1657.936
 31
0
 0
ARC
 8
TOOL_0
 5
A9
 10
3225.056
 20
1707.984
 30
0
 40
50.048004835358
 50
220.024999728801
 51
269.974814037162
210
0
220
0
230
1.0
 0
LINE
 8
TOOL_0
 5
AA
 10
3186.731
 20
1675.797
 30
0
 11
2901.778
 21
2015.39
 31
0
 0
LINE
 8
TOOL_0
 5
AB
 10
2901.778
 20
2015.39
 30
0
 11
2901.778
 21
2123.936
 31
0
 0
LINE
 8
TOOL_0
 5
AC
 10
2901.778
 20
2123.936
 30
0
 11
2923.278
 21
2123.936
 31
0
 0
ARC
 8
TOOL_0
 5
AD
 10
2923.278
 20
2203.936
 30
0
 40
80.0
 50
270.0
 51
89.999283802756
210
0
220
0
230
1.0
 0
LINE
 8
TOOL_0
 5
AE
 10
2923.279
 20
2283.936
 30
0
 11
2901.778
 21
2283.936
 31
0
 0
LINE
 8
TOOL_0
 5
AF
 10
2901.778
 20
2283.936
 30
0
 11
2901.778
 21
2353.85
 31
0
 0
LINE
 8
TOOL_0
 5
B0
 10
2901.778
 20
2353.85
 30
0
 11
2912.864
 21
2364.936
 31
0
 0
LINE
 8
TOOL_0
 5
B1
 10
2912.864
 20
2364.936
 30
0
 11
3043.278
 21
2364.936
 31
0
 0
ARC
 8
TOOL_0
 5
B2
 10
3043.261
 20
2373.963
 30
0
 40
9.027016007519
 50
270.107901528772
 51
333.505912100375
210
0
220
0
230
1.0
 0
LINE
 8
TOOL_0
 5
B3
 10
3051.34
 20
2369.936
 30
0
 11
5644.778
 21
2369.936
 31
0
 0
LINE
 8
TOOL_0
 5
B4
 10
5644.778
 20
2369.936
 30
0
 11
5644.778
 21
1952.436
 31
0
 0
LINE
 8
TOOL_0
 5
B5
 10
5644.778
 20
1952.436
 30
0
 11
5647.304
 21
1950.815
 31
0
 0
LINE
 8
TOOL_0
 5
B6
 10
5647.304
 20
1950.815
 30
0
 11
5654.375
 21
1943.744
 31
0
 0
ENDSEC
 0
EOF

