0
SECTION
2
TABLES
0
TABLE
2
LAYER
70
0
0
LAYER
2
LAYER_NAME
70
0
62
1
6
CONTINUOUS
0
ENDTAB
0
ENDSEC
 0
SECTION
 2
ENTITIES
 0
LINE
 8
TOOL_0
 5
1
 10
710.172
 20
276.341
 30
0
 11
681.023
 21
276.341
 31
0
 0
LINE
 8
TOOL_0
 5
2
 10
681.023
 20
276.341
 30
0
 11
611.023
 21
276.341
 31
0
 0
LINE
 8
TOOL_0
 5
3
 10
611.023
 20
276.341
 30
0
 11
611.023
 21
476.341
 31
0
 0
LINE
 8
TOOL_0
 5
4
 10
611.023
 20
476.341
 30
0
 11
681.023
 21
476.341
 31
0
 0
LINE
 8
TOOL_0
 5
5
 10
681.023
 20
476.341
 30
0
 11
681.023
 21
276.341
 31
0
 0
LINE
 8
TOOL_0
 5
6
 10
681.023
 20
276.341
 30
0
 11
681.023
 21
270.574
 31
0
 0
LINE
 8
TOOL_0
 5
7
 10
681.023
 20
270.574
 30
0
 11
811.75
 21
368.252
 31
0
 0
LINE
 8
TOOL_0
 5
8
 10
811.75
 20
368.252
 30
0
 11
846.75
 21
368.252
 31
0
 0
LINE
 8
TOOL_0
 5
9
 10
846.75
 20
368.252
 30
0
 11
846.75
 21
525.752
 31
0
 0
ARC
 8
TOOL_0
 5
A
 10
806.75
 20
525.752
 30
0
 40
40.0
 50
0
 51
90.0
210
0
220
0
230
1.0
 0
LINE
 8
TOOL_0
 5
B
 10
806.75
 20
565.752
 30
0
 11
505.75
 21
565.752
 31
0
 0
ARC
 8
TOOL_0
 5
C
 10
505.75
 20
545.752
 30
0
 40
20.0
 50
90.0
 51
180.0
210
0
220
0
230
1.0
 0
LINE
 8
TOOL_0
 5
D
 10
485.75
 20
545.752
 30
0
 11
485.75
 21
470.752
 31
0
 0
ARC
 8
TOOL_0
 5
E
 10
465.75
 20
470.752
 30
0
 40
20.0
 50
270.0
 51
0
210
0
220
0
230
1.0
 0
LINE
 8
TOOL_0
 5
F
 10
465.75
 20
450.752
 30
0
 11
295.75
 21
450.752
 31
0
 0
ARC
 8
TOOL_0
 5
10
 10
295.75
 20
410.752
 30
0
 40
40.0
 50
90.0
 51
180.0
210
0
220
0
230
1.0
 0
LINE
 8
TOOL_0
 5
11
 10
255.75
 20
410.752
 30
0
 11
255.75
 21
210.752
 31
0
 0
ARC
 8
TOOL_0
 5
12
 10
295.75
 20
210.752
 30
0
 40
40.0
 50
180.0
 51
270.0
210
0
220
0
230
1.0
 0
LINE
 8
TOOL_0
 5
13
 10
295.75
 20
170.752
 30
0
 11
806.75
 21
170.752
 31
0
 0
ARC
 8
TOOL_0
 5
14
 10
806.75
 20
210.752
 30
0
 40
40.0
 50
270.0
 51
0
210
0
220
0
230
1.0
 0
LINE
 8
TOOL_0
 5
15
 10
846.75
 20
210.752
 30
0
 11
846.75
 21
368.252
 31
0
 0
LINE
 8
TOOL_0
 5
16
 10
846.75
 20
368.252
 30
0
 11
843.214
 21
371.788
 31
0
 0
LINE
 8
TOOL_0
 5
17
 10
843.214
 20
371.788
 30
0
 11
1520.75
 21
345.752
 31
0
 0
LINE
 8
TOOL_0
 5
18
 10
1520.75
 20
345.752
 30
0
 11
1555.75
 21
345.752
 31
0
 0
LINE
 8
TOOL_0
 5
19
 10
1555.75
 20
345.752
 30
0
 11
1555.75
 21
480.752
 31
0
 0
ARC
 8
TOOL_0
 5
1A
 10
1515.75
 20
480.752
 30
0
 40
40.0
 50
0
 51
90.0
210
0
220
0
230
1.0
 0
LINE
 8
TOOL_0
 5
1B
 10
1515.75
 20
520.752
 30
0
 11
1270.75
 21
520.752
 31
0
 0
ARC
 8
TOOL_0
 5
1C
 10
1270.75
 20
500.752
 30
0
 40
20.0
 50
90.0
 51
180.0
210
0
220
0
230
1.0
 0
LINE
 8
TOOL_0
 5
1D
 10
1250.75
 20
500.752
 30
0
 11
1250.75
 21
470.752
 31
0
 0
ARC
 8
TOOL_0
 5
1E
 10
1230.75
 20
470.752
 30
0
 40
20.0
 50
270.0
 51
0
210
0
220
0
230
1.0
 0
LINE
 8
TOOL_0
 5
1F
 10
1230.75
 20
450.752
 30
0
 11
1026.75
 21
450.752
 31
0
 0
ARC
 8
TOOL_0
 5
20
 10
1026.75
 20
410.752
 30
0
 40
40.0
 50
90.0
 51
180.0
210
0
220
0
230
1.0
 0
LINE
 8
TOOL_0
 5
21
 10
986.75
 20
410.752
 30
0
 11
986.75
 21
210.752
 31
0
 0
ARC
 8
TOOL_0
 5
22
 10
1026.75
 20
210.752
 30
0
 40
40.0
 50
180.0
 51
270.0
210
0
220
0
230
1.0
 0
LINE
 8
TOOL_0
 5
23
 10
1026.75
 20
170.752
 30
0
 11
1515.75
 21
170.752
 31
0
 0
ARC
 8
TOOL_0
 5
24
 10
1515.75
 20
210.752
 30
0
 40
40.0
 50
270.0
 51
0
210
0
220
0
230
1.0
 0
LINE
 8
TOOL_0
 5
25
 10
1555.75
 20
210.752
 30
0
 11
1555.75
 21
345.752
 31
0
 0
LINE
 8
TOOL_0
 5
26
 10
1555.75
 20
345.752
 30
0
 11
1552.214
 21
349.288
 31
0
 0
LINE
 8
TOOL_0
 5
27
 10
1552.214
 20
349.288
 30
0
 11
1955.75
 21
345.752
 31
0
 0
LINE
 8
TOOL_0
 5
28
 10
1955.75
 20
345.752
 30
0
 11
1990.75
 21
345.752
 31
0
 0
LINE
 8
TOOL_0
 5
29
 10
1990.75
 20
345.752
 30
0
 11
1990.75
 21
480.752
 31
0
 0
ARC
 8
TOOL_0
 5
2A
 10
1950.75
 20
480.752
 30
0
 40
40.0
 50
0
 51
90.0
210
0
220
0
230
1.0
 0
LINE
 8
TOOL_0
 5
2B
 10
1950.75
 20
520.752
 30
0
 11
1735.75
 21
520.752
 31
0
 0
ARC
 8
TOOL_0
 5
2C
 10
1735.75
 20
480.752
 30
0
 40
40.0
 50
90.0
 51
180.0
210
0
220
0
230
1.0
 0
LINE
 8
TOOL_0
 5
2D
 10
1695.75
 20
480.752
 30
0
 11
1695.75
 21
210.752
 31
0
 0
ARC
 8
TOOL_0
 5
2E
 10
1735.75
 20
210.752
 30
0
 40
40.0
 50
180.0
 51
270.0
210
0
220
0
230
1.0
 0
LINE
 8
TOOL_0
 5
2F
 10
1735.75
 20
170.752
 30
0
 11
1950.75
 21
170.752
 31
0
 0
ARC
 8
TOOL_0
 5
30
 10
1950.75
 20
210.752
 30
0
 40
40.0
 50
270.0
 51
0
210
0
220
0
230
1.0
 0
LINE
 8
TOOL_0
 5
31
 10
1990.75
 20
210.752
 30
0
 11
1990.75
 21
345.752
 31
0
 0
LINE
 8
TOOL_0
 5
32
 10
1990.75
 20
345.752
 30
0
 11
1987.214
 21
349.288
 31
0
 0
LINE
 8
TOOL_0
 5
33
 10
1987.214
 20
349.288
 30
0
 11
2655.75
 21
308.363
 31
0
 0
LINE
 8
TOOL_0
 5
34
 10
2655.75
 20
308.363
 30
0
 11
2690.75
 21
308.363
 31
0
 0
LINE
 8
TOOL_0
 5
35
 10
2690.75
 20
308.363
 30
0
 11
2690.75
 21
405.974
 31
0
 0
ARC
 8
TOOL_0
 5
36
 10
2650.75
 20
405.974
 30
0
 40
40.0
 50
0
 51
82.010075978474
210
0
220
0
230
1.0
 0
LINE
 8
TOOL_0
 5
37
 10
2656.31
 20
445.586
 30
0
 11
2273.53
 21
499.309
 31
0
 0
ARC
 8
TOOL_0
 5
38
 10
2270.75
 20
479.503
 30
0
 40
20.000150899431
 50
82.010075978473
 51
180.0
210
0
220
0
230
1.0
 0
LINE
 8
TOOL_0
 5
39
 10
2250.75
 20
479.503
 30
0
 11
2250.75
 21
470.752
 31
0
 0
ARC
 8
TOOL_0
 5
3A
 10
2230.75
 20
470.752
 30
0
 40
20.0
 50
270.0
 51
0
210
0
220
0
230
1.0
 0
LINE
 8
TOOL_0
 5
3B
 10
2230.75
 20
450.752
 30
0
 11
2160.75
 21
450.752
 31
0
 0
ARC
 8
TOOL_0
 5
3C
 10
2160.75
 20
410.752
 30
0
 40
40.0
 50
90.0
 51
180.0
210
0
220
0
230
1.0
 0
LINE
 8
TOOL_0
 5
3D
 10
2120.75
 20
410.752
 30
0
 11
2120.75
 21
210.752
 31
0
 0
ARC
 8
TOOL_0
 5
3E
 10
2160.75
 20
210.752
 30
0
 40
40.0
 50
180.0
 51
270.0
210
0
220
0
230
1.0
 0
LINE
 8
TOOL_0
 5
3F
 10
2160.75
 20
170.752
 30
0
 11
2650.75
 21
170.752
 31
0
 0
ARC
 8
TOOL_0
 5
40
 10
2650.75
 20
210.752
 30
0
 40
40.0
 50
270.0
 51
0
210
0
220
0
230
1.0
 0
LINE
 8
TOOL_0
 5
41
 10
2690.75
 20
210.752
 30
0
 11
2690.75
 21
308.363
 31
0
 0
LINE
 8
TOOL_0
 5
42
 10
2690.75
 20
308.363
 30
0
 11
2687.214
 21
311.899
 31
0
 0
LINE
 8
TOOL_0
 5
43
 10
2687.214
 20
311.899
 30
0
 11
3577.75
 21
300.752
 31
0
 0
LINE
 8
TOOL_0
 5
44
 10
3577.75
 20
300.752
 30
0
 11
3612.75
 21
300.752
 31
0
 0
LINE
 8
TOOL_0
 5
45
 10
3612.75
 20
300.752
 30
0
 11
3612.75
 21
450.752
 31
0
 0
ARC
 8
TOOL_0
 5
46
 10
3562.75
 20
450.752
 30
0
 40
50.0
 50
0
 51
90.0
210
0
220
0
230
1.0
 0
LINE
 8
TOOL_0
 5
47
 10
3562.75
 20
500.752
 30
0
 11
3292.75
 21
500.752
 31
0
 0
ARC
 8
TOOL_0
 5
48
 10
3292.75
 20
450.752
 30
0
 40
50.0
 50
90.0
 51
180.0
210
0
220
0
230
1.0
 0
LINE
 8
TOOL_0
 5
49
 10
3242.75
 20
450.752
 30
0
 11
3242.75
 21
150.752
 31
0
 0
ARC
 8
TOOL_0
 5
4A
 10
3292.75
 20
150.752
 30
0
 40
50.0
 50
180.0
 51
270.0
210
0
220
0
230
1.0
 0
LINE
 8
TOOL_0
 5
4B
 10
3292.75
 20
100.752
 30
0
 11
3562.75
 21
100.752
 31
0
 0
ARC
 8
TOOL_0
 5
4C
 10
3562.75
 20
150.752
 30
0
 40
50.0
 50
270.0
 51
0
210
0
220
0
230
1.0
 0
LINE
 8
TOOL_0
 5
4D
 10
3612.75
 20
150.752
 30
0
 11
3612.75
 21
300.752
 31
0
 0
LINE
 8
TOOL_0
 5
4E
 10
3612.75
 20
300.752
 30
0
 11
3609.214
 21
304.288
 31
0
 0
LINE
 8
TOOL_0
 5
4F
 10
3609.214
 20
304.288
 30
0
 11
4110.75
 21
383.252
 31
0
 0
LINE
 8
TOOL_0
 5
50
 10
4110.75
 20
383.252
 30
0
 11
4145.75
 21
383.252
 31
0
 0
LINE
 8
TOOL_0
 5
51
 10
4145.75
 20
383.252
 30
0
 11
4145.75
 21
570.752
 31
0
 0
ARC
 8
TOOL_0
 5
52
 10
4095.75
 20
570.752
 30
0
 40
50.0
 50
0
 51
90.0
210
0
220
0
230
1.0
 0
LINE
 8
TOOL_0
 5
53
 10
4095.75
 20
620.752
 30
0
 11
3845.75
 21
620.752
 31
0
 0
ARC
 8
TOOL_0
 5
54
 10
3845.75
 20
570.752
 30
0
 40
50.0
 50
90.0
 51
180.0
210
0
220
0
230
1.0
 0
LINE
 8
TOOL_0
 5
55
 10
3795.75
 20
570.752
 30
0
 11
3795.75
 21
195.752
 31
0
 0
ARC
 8
TOOL_0
 5
56
 10
3845.75
 20
195.752
 30
0
 40
50.0
 50
180.0
 51
270.0
210
0
220
0
230
1.0
 0
LINE
 8
TOOL_0
 5
57
 10
3845.75
 20
145.752
 30
0
 11
4095.75
 21
145.752
 31
0
 0
ARC
 8
TOOL_0
 5
58
 10
4095.75
 20
195.752
 30
0
 40
50.0
 50
270.0
 51
0
210
0
220
0
230
1.0
 0
LINE
 8
TOOL_0
 5
59
 10
4145.75
 20
195.752
 30
0
 11
4145.75
 21
383.252
 31
0
 0
LINE
 8
TOOL_0
 5
5A
 10
4145.75
 20
383.252
 30
0
 11
4142.214
 21
386.788
 31
0
 0
LINE
 8
TOOL_0
 5
5B
 10
4142.214
 20
386.788
 30
0
 11
4755.75
 21
160.752
 31
0
 0
LINE
 8
TOOL_0
 5
5C
 10
4755.75
 20
160.752
 30
0
 11
4790.75
 21
160.752
 31
0
 0
ARC
 8
TOOL_0
 5
5D
 10
4740.75
 20
160.752
 30
0
 40
50.0
 50
0
 51
90.0
210
0
220
0
230
1.0
 0
LINE
 8
TOOL_0
 5
5E
 10
4740.75
 20
210.752
 30
0
 11
4640.75
 21
210.752
 31
0
 0
ARC
 8
TOOL_0
 5
5F
 10
4640.75
 20
160.752
 30
0
 40
50.0
 50
90.0
 51
270.0
210
0
220
0
230
1.0
 0
LINE
 8
TOOL_0
 5
60
 10
4640.75
 20
110.752
 30
0
 11
4740.75
 21
110.752
 31
0
 0
ARC
 8
TOOL_0
 5
61
 10
4740.75
 20
160.752
 30
0
 40
50.0
 50
270.0
 51
0
210
0
220
0
230
1.0
 0
LINE
 8
TOOL_0
 5
62
 10
4790.75
 20
160.752
 30
0
 11
4787.214
 21
164.288
 31
0
 0
LINE
 8
TOOL_0
 5
63
 10
4787.214
 20
164.288
 30
0
 11
5980.75
 21
283.252
 31
0
 0
LINE
 8
TOOL_0
 5
64
 10
5980.75
 20
283.252
 30
0
 11
6015.75
 21
283.252
 31
0
 0
LINE
 8
TOOL_0
 5
65
 10
6015.75
 20
283.252
 30
0
 11
6015.75
 21
385.752
 31
0
 0
ARC
 8
TOOL_0
 5
66
 10
5945.75
 20
385.752
 30
0
 40
70.0
 50
0
 51
90.0
210
0
220
0
230
1.0
 0
LINE
 8
TOOL_0
 5
67
 10
5945.75
 20
455.752
 30
0
 11
5640.75
 21
455.752
 31
0
 0
ARC
 8
TOOL_0
 5
68
 10
5640.75
 20
385.752
 30
0
 40
70.0
 50
90.0
 51
180.0
210
0
220
0
230
1.0
 0
LINE
 8
TOOL_0
 5
69
 10
5570.75
 20
385.752
 30
0
 11
5570.75
 21
180.752
 31
0
 0
ARC
 8
TOOL_0
 5
6A
 10
5640.75
 20
180.752
 30
0
 40
70.0
 50
180.0
 51
270.0
210
0
220
0
230
1.0
 0
LINE
 8
TOOL_0
 5
6B
 10
5640.75
 20
110.752
 30
0
 11
5945.75
 21
110.752
 31
0
 0
ARC
 8
TOOL_0
 5
6C
 10
5945.75
 20
180.752
 30
0
 40
70.0
 50
270.0
 51
0
210
0
220
0
230
1.0
 0
LINE
 8
TOOL_0
 5
6D
 10
6015.75
 20
180.752
 30
0
 11
6015.75
 21
283.252
 31
0
 0
LINE
 8
TOOL_0
 5
6E
 10
6015.75
 20
283.252
 30
0
 11
6012.214
 21
286.788
 31
0
 0
LINE
 8
TOOL_0
 5
6F
 10
6012.214
 20
286.788
 30
0
 11
7140.75
 21
283.252
 31
0
 0
LINE
 8
TOOL_0
 5
70
 10
7140.75
 20
283.252
 30
0
 11
7175.75
 21
283.252
 31
0
 0
LINE
 8
TOOL_0
 5
71
 10
7175.75
 20
283.252
 30
0
 11
7175.75
 21
405.752
 31
0
 0
ARC
 8
TOOL_0
 5
72
 10
7125.75
 20
405.752
 30
0
 40
50.0
 50
0
 51
90.0
210
0
220
0
230
1.0
 0
LINE
 8
TOOL_0
 5
73
 10
7125.75
 20
455.752
 30
0
 11
6890.75
 21
455.752
 31
0
 0
ARC
 8
TOOL_0
 5
74
 10
6890.75
 20
405.752
 30
0
 40
50.0
 50
90.0
 51
180.0
210
0
220
0
230
1.0
 0
LINE
 8
TOOL_0
 5
75
 10
6840.75
 20
405.752
 30
0
 11
6840.75
 21
160.752
 31
0
 0
ARC
 8
TOOL_0
 5
76
 10
6890.75
 20
160.752
 30
0
 40
50.0
 50
180.0
 51
270.0
210
0
220
0
230
1.0
 0
LINE
 8
TOOL_0
 5
77
 10
6890.75
 20
110.752
 30
0
 11
7125.75
 21
110.752
 31
0
 0
ARC
 8
TOOL_0
 5
78
 10
7125.75
 20
160.752
 30
0
 40
50.0
 50
270.0
 51
0
210
0
220
0
230
1.0
 0
LINE
 8
TOOL_0
 5
79
 10
7175.75
 20
160.752
 30
0
 11
7175.75
 21
283.252
 31
0
 0
LINE
 8
TOOL_0
 5
7A
 10
7175.75
 20
283.252
 30
0
 11
7172.214
 21
286.788
 31
0
 0
LINE
 8
TOOL_0
 5
7B
 10
7172.214
 20
286.788
 30
0
 11
7421.919
 21
30.002
 31
0
 0
LINE
 8
TOOL_0
 5
7C
 10
7421.919
 20
30.002
 30
0
 11
7391.061
 21
30.002
 31
0
 0
LINE
 8
TOOL_0
 5
7D
 10
7391.061
 20
30.002
 30
0
 11
7200.75
 21
30.002
 31
0
 0
ARC
 8
TOOL_0
 5
7E
 10
7200.75
 20
25.752
 30
0
 40
4.25
 50
90.0
 51
180.0
210
0
220
0
230
1.0
 0
LINE
 8
TOOL_0
 5
7F
 10
7196.5
 20
25.752
 30
0
 11
7196.5
 21
20.002
 31
0
 0
LINE
 8
TOOL_0
 5
80
 10
7196.5
 20
20.002
 30
0
 11
6840.75
 21
20.002
 31
0
 0
LINE
 8
TOOL_0
 5
81
 10
6840.75
 20
20.002
 30
0
 11
6840.75
 21
22.752
 31
0
 0
ARC
 8
TOOL_0
 5
82
 10
6832.75
 20
22.752
 30
0
 40
8.0
 50
0
 51
90.0
210
0
220
0
230
1.0
 0
LINE
 8
TOOL_0
 5
83
 10
6832.75
 20
30.752
 30
0
 11
6628.75
 21
30.752
 31
0
 0
ARC
 8
TOOL_0
 5
84
 10
6628.75
 20
22.752
 30
0
 40
8.0
 50
90.0
 51
180.0
210
0
220
0
230
1.0
 0
LINE
 8
TOOL_0
 5
85
 10
6620.75
 20
22.752
 30
0
 11
6620.75
 21
20.002
 31
0
 0
LINE
 8
TOOL_0
 5
86
 10
6620.75
 20
20.002
 30
0
 11
5925.75
 21
20.002
 31
0
 0
LINE
 8
TOOL_0
 5
87
 10
5925.75
 20
20.002
 30
0
 11
5925.75
 21
22.752
 31
0
 0
ARC
 8
TOOL_0
 5
88
 10
5917.75
 20
22.752
 30
0
 40
8.0
 50
0
 51
90.0
210
0
220
0
230
1.0
 0
LINE
 8
TOOL_0
 5
89
 10
5917.75
 20
30.752
 30
0
 11
5713.75
 21
30.752
 31
0
 0
ARC
 8
TOOL_0
 5
8A
 10
5713.75
 20
22.752
 30
0
 40
8.0
 50
90.0
 51
180.0
210
0
220
0
230
1.0
 0
LINE
 8
TOOL_0
 5
8B
 10
5705.75
 20
22.752
 30
0
 11
5705.75
 21
20.002
 31
0
 0
LINE
 8
TOOL_0
 5
8C
 10
5705.75
 20
20.002
 30
0
 11
5010.75
 21
20.002
 31
0
 0
LINE
 8
TOOL_0
 5
8D
 10
5010.75
 20
20.002
 30
0
 11
5010.75
 21
22.752
 31
0
 0
ARC
 8
TOOL_0
 5
8E
 10
5002.75
 20
22.752
 30
0
 40
8.0
 50
0
 51
90.0
210
0
220
0
230
1.0
 0
LINE
 8
TOOL_0
 5
8F
 10
5002.75
 20
30.752
 30
0
 11
4798.75
 21
30.752
 31
0
 0
ARC
 8
TOOL_0
 5
90
 10
4798.75
 20
22.752
 30
0
 40
8.0
 50
90.0
 51
180.0
210
0
220
0
230
1.0
 0
LINE
 8
TOOL_0
 5
91
 10
4790.75
 20
22.752
 30
0
 11
4790.75
 21
20.002
 31
0
 0
LINE
 8
TOOL_0
 5
92
 10
4790.75
 20
20.002
 30
0
 11
4095.75
 21
20.002
 31
0
 0
LINE
 8
TOOL_0
 5
93
 10
4095.75
 20
20.002
 30
0
 11
4095.75
 21
22.752
 31
0
 0
ARC
 8
TOOL_0
 5
94
 10
4087.75
 20
22.752
 30
0
 40
8.0
 50
0
 51
90.0
210
0
220
0
230
1.0
 0
LINE
 8
TOOL_0
 5
95
 10
4087.75
 20
30.752
 30
0
 11
3883.75
 21
30.752
 31
0
 0
ARC
 8
TOOL_0
 5
96
 10
3883.75
 20
22.752
 30
0
 40
8.0
 50
90.0
 51
180.0
210
0
220
0
230
1.0
 0
LINE
 8
TOOL_0
 5
97
 10
3875.75
 20
22.752
 30
0
 11
3875.75
 21
20.002
 31
0
 0
LINE
 8
TOOL_0
 5
98
 10
3875.75
 20
20.002
 30
0
 11
3145.75
 21
20.002
 31
0
 0
LINE
 8
TOOL_0
 5
99
 10
3145.75
 20
20.002
 30
0
 11
3145.75
 21
22.752
 31
0
 0
ARC
 8
TOOL_0
 5
9A
 10
3137.75
 20
22.752
 30
0
 40
8.0
 50
0
 51
90.0
210
0
220
0
230
1.0
 0
LINE
 8
TOOL_0
 5
9B
 10
3137.75
 20
30.752
 30
0
 11
2960.75
 21
30.752
 31
0
 0
LINE
 8
TOOL_0
 5
9C
 10
2960.75
 20
30.752
 30
0
 11
2952.466
 21
39.036
 31
0
 0
ARC
 8
TOOL_0
 5
9D
 10
2919.254
 20
8.719
 30
0
 40
44.968404830503
 50
42.390851290463
 51
47.028462127096
210
0
220
0
230
1.0
 0
ARC
 8
TOOL_0
 5
9E
 10
3213.678
 20
314.394
 30
0
 40
379.447271657077
 50
224.221823871639
 51
225.960990450411
210
0
220
0
230
1.0
 0
LINE
 8
TOOL_0
 5
9F
 10
2941.749
 20
49.753
 30
0
 11
2941.75
 21
380.785
 31
0
 0
ARC
 8
TOOL_0
 5
A0
 10
2940.75
 20
395.752
 30
0
 40
15.000369628779
 50
273.822459396542
 51
90.0
210
0
220
0
230
1.0
 0
LINE
 8
TOOL_0
 5
A1
 10
2940.75
 20
410.752
 30
0
 11
2880.75
 21
410.752
 31
0
 0
ARC
 8
TOOL_0
 5
A2
 10
2880.75
 20
395.752
 30
0
 40
15.0
 50
90.0
 51
266.177540603458
210
0
220
0
230
1.0
 0
LINE
 8
TOOL_0
 5
A3
 10
2879.75
 20
380.785
 30
0
 11
2879.75
 21
48.691
 31
0
 0
LINE
 8
TOOL_0
 5
A4
 10
2879.75
 20
48.691
 30
0
 11
2851.061
 21
20.002
 31
0
 0
LINE
 8
TOOL_0
 5
A5
 10
2851.061
 20
20.002
 30
0
 11
137.319
 21
20.002
 31
0
 0
ARC
 8
TOOL_0
 5
A6
 10
137.319
 20
60.752
 30
0
 40
40.75
 50
224.999005782167
 51
270.0
210
0
220
0
230
1.0
 0
LINE
 8
TOOL_0
 5
A7
 10
108.504
 20
31.938
 30
0
 11
31.936
 21
108.506
 31
0
 0
ARC
 8
TOOL_0
 5
A8
 10
60.811
 20
137.347
 30
0
 40
40.811382064321
 50
181.765003233528
 51
224.966247552185
210
0
220
0
230
1.0
 0
LINE
 8
TOOL_0
 5
A9
 10
20.019
 20
136.09
 30
0
 11
20.0
 21
749.493
 31
0
 0
LINE
 8
TOOL_0
 5
AA
 10
20.0
 20
749.493
 30
0
 11
7401.5
 21
749.493
 31
0
 0
LINE
 8
TOOL_0
 5
AB
 10
7401.5
 20
749.493
 30
0
 11
7401.5
 21
40.441
 31
0
 0
LINE
 8
TOOL_0
 5
AC
 10
7401.5
 20
40.441
 30
0
 11
7391.061
 21
30.002
 31
0
 0
LINE
 8
TOOL_0
 5
AD
 10
7391.061
 20
30.002
 30
0
 11
7386.97
 21
26.64
 31
0
 0
LINE
 8
TOOL_0
 5
AE
 10
7386.97
 20
26.64
 30
0
 11
7450.987
 21
0.001
 31
0
 0
LINE
 8
TOOL_0
 5
AF
 10
7450.987
 20
0.001
 30
0
 11
7450.987
 21
1.001
 31
0
 0
LINE
 8
TOOL_0
 5
B0
 10
7450.987
 20
1.001
 30
0
 11
7450.987
 21
0.001
 31
0
 0
LINE
 8
TOOL_0
 5
B1
 10
7450.987
 20
0.001
 30
0
 11
7450.987
 21
0.001
 31
0
 0
LINE
 8
TOOL_0
 5
B2
 10
7450.987
 20
0.001
 30
0
 11
7450.987
 21
1.001
 31
0
 0
LINE
 8
TOOL_0
 5
B3
 10
7450.987
 20
1.001
 30
0
 11
7450.987
 21
1535.192
 31
0
 0
LINE
 8
TOOL_0
 5
B4
 10
7450.987
 20
1535.192
 30
0
 11
1.0
 21
1535.192
 31
0
 0
LINE
 8
TOOL_0
 5
B5
 10
1.0
 20
1535.192
 30
0
 11
0
 21
1535.192
 31
0
 0
ENDSEC
 0
EOF

