0
SECTION
2
TABLES
0
TABLE
2
LAYER
70
0
0
LAYER
2
LAYER_NAME
70
0
62
1
6
CONTINUOUS
0
ENDTAB
0
ENDSEC
 0
SECTION
 2
ENTITIES
 0
LINE
 8
TOOL_0
 5
1
 10
278.206
 20
54.285
 30
0
 11
253.206
 21
54.285
 31
0
 0
ARC
 8
TOOL_0
 5
2
 10
153.681
 20
153.81
 30
0
 40
140.749604795182
 50
134.999712155279
 51
315.0
210
0
220
0
230
1.0
 0
ARC
 8
TOOL_0
 5
3
 10
153.681
 20
153.81
 30
0
 40
140.75031190374
 50
315.0
 51
134.999712155279
210
0
220
0
230
1.0
 0
LINE
 8
TOOL_0
 5
4
 10
253.206
 20
54.285
 30
0
 11
253.206
 21
49.285
 31
0
 0
LINE
 8
TOOL_0
 5
5
 10
253.206
 20
49.285
 30
0
 11
575.65
 21
54.285
 31
0
 0
LINE
 8
TOOL_0
 5
6
 10
575.65
 20
54.285
 30
0
 11
550.65
 21
54.285
 31
0
 0
ARC
 8
TOOL_0
 5
7
 10
451.125
 20
153.81
 30
0
 40
140.749604795182
 50
134.999712155279
 51
315.0
210
0
220
0
230
1.0
 0
ARC
 8
TOOL_0
 5
8
 10
451.125
 20
153.81
 30
0
 40
140.75031190374
 50
315.0
 51
134.999712155279
210
0
220
0
230
1.0
 0
LINE
 8
TOOL_0
 5
9
 10
550.65
 20
54.285
 30
0
 11
550.65
 21
49.285
 31
0
 0
LINE
 8
TOOL_0
 5
A
 10
550.65
 20
49.285
 30
0
 11
873.095
 21
54.285
 31
0
 0
LINE
 8
TOOL_0
 5
B
 10
873.095
 20
54.285
 30
0
 11
848.095
 21
54.285
 31
0
 0
ARC
 8
TOOL_0
 5
C
 10
748.57
 20
153.81
 30
0
 40
140.749604795182
 50
134.999712155279
 51
315.0
210
0
220
0
230
1.0
 0
ARC
 8
TOOL_0
 5
D
 10
748.57
 20
153.81
 30
0
 40
140.75031190374
 50
315.0
 51
134.999712155279
210
0
220
0
230
1.0
 0
LINE
 8
TOOL_0
 5
E
 10
848.095
 20
54.285
 30
0
 11
848.095
 21
49.285
 31
0
 0
LINE
 8
TOOL_0
 5
F
 10
848.095
 20
49.285
 30
0
 11
1171.073
 21
54.285
 31
0
 0
LINE
 8
TOOL_0
 5
10
 10
1171.073
 20
54.285
 30
0
 11
1146.073
 21
54.285
 31
0
 0
ARC
 8
TOOL_0
 5
11
 10
1046.548
 20
153.81
 30
0
 40
140.749604795182
 50
134.999712155279
 51
315.0
210
0
220
0
230
1.0
 0
ARC
 8
TOOL_0
 5
12
 10
1046.548
 20
153.81
 30
0
 40
140.75031190374
 50
315.0
 51
134.999712155279
210
0
220
0
230
1.0
 0
LINE
 8
TOOL_0
 5
13
 10
1146.073
 20
54.285
 30
0
 11
1146.073
 21
49.285
 31
0
 0
LINE
 8
TOOL_0
 5
14
 10
1146.073
 20
49.285
 30
0
 11
1468.518
 21
54.285
 31
0
 0
LINE
 8
TOOL_0
 5
15
 10
1468.518
 20
54.285
 30
0
 11
1443.518
 21
54.285
 31
0
 0
ARC
 8
TOOL_0
 5
16
 10
1343.993
 20
153.81
 30
0
 40
140.749604795182
 50
134.999712155279
 51
315.0
210
0
220
0
230
1.0
 0
ARC
 8
TOOL_0
 5
17
 10
1343.993
 20
153.81
 30
0
 40
140.75031190374
 50
315.0
 51
134.999712155279
210
0
220
0
230
1.0
 0
LINE
 8
TOOL_0
 5
18
 10
1443.518
 20
54.285
 30
0
 11
1443.518
 21
49.285
 31
0
 0
LINE
 8
TOOL_0
 5
19
 10
1443.518
 20
49.285
 30
0
 11
1765.962
 21
54.82
 31
0
 0
LINE
 8
TOOL_0
 5
1A
 10
1765.962
 20
54.82
 30
0
 11
1740.962
 21
54.82
 31
0
 0
ARC
 8
TOOL_0
 5
1B
 10
1641.437
 20
154.345
 30
0
 40
140.749604795182
 50
134.999712155279
 51
315.0
210
0
220
0
230
1.0
 0
ARC
 8
TOOL_0
 5
1C
 10
1641.437
 20
154.345
 30
0
 40
140.75031190374
 50
315.0
 51
134.999712155279
210
0
220
0
230
1.0
 0
LINE
 8
TOOL_0
 5
1D
 10
1740.962
 20
54.82
 30
0
 11
1740.962
 21
49.82
 31
0
 0
LINE
 8
TOOL_0
 5
1E
 10
1740.962
 20
49.82
 30
0
 11
2063.407
 21
54.285
 31
0
 0
LINE
 8
TOOL_0
 5
1F
 10
2063.407
 20
54.285
 30
0
 11
2038.407
 21
54.285
 31
0
 0
ARC
 8
TOOL_0
 5
20
 10
1938.882
 20
153.81
 30
0
 40
140.749604795182
 50
134.999712155279
 51
315.0
210
0
220
0
230
1.0
 0
ARC
 8
TOOL_0
 5
21
 10
1938.882
 20
153.81
 30
0
 40
140.75031190374
 50
315.0
 51
134.999712155279
210
0
220
0
230
1.0
 0
LINE
 8
TOOL_0
 5
22
 10
2038.407
 20
54.285
 30
0
 11
2038.407
 21
49.285
 31
0
 0
LINE
 8
TOOL_0
 5
23
 10
2038.407
 20
49.285
 30
0
 11
2038.407
 21
0
 31
0
 0
LINE
 8
TOOL_0
 5
24
 10
2038.407
 20
0
 30
0
 11
2365.116
 21
54.285
 31
0
 0
LINE
 8
TOOL_0
 5
25
 10
2365.116
 20
54.285
 30
0
 11
2340.116
 21
54.285
 31
0
 0
ARC
 8
TOOL_0
 5
26
 10
2240.591
 20
153.81
 30
0
 40
140.749604795182
 50
134.999712155279
 51
315.0
210
0
220
0
230
1.0
 0
ARC
 8
TOOL_0
 5
27
 10
2240.591
 20
153.81
 30
0
 40
140.75031190374
 50
315.0
 51
134.999712155279
210
0
220
0
230
1.0
 0
LINE
 8
TOOL_0
 5
28
 10
2340.116
 20
54.285
 30
0
 11
2340.116
 21
49.285
 31
0
 0
LINE
 8
TOOL_0
 5
29
 10
2340.116
 20
49.285
 30
0
 11
2419.678
 21
0
 31
0
 0
LINE
 8
TOOL_0
 5
2A
 10
2419.678
 20
0
 30
0
 11
2419.678
 21
1.0
 31
0
 0
LINE
 8
TOOL_0
 5
2B
 10
2419.678
 20
1.0
 30
0
 11
2419.678
 21
0
 31
0
 0
LINE
 8
TOOL_0
 5
2C
 10
2419.678
 20
0
 30
0
 11
2419.678
 21
0
 31
0
 0
LINE
 8
TOOL_0
 5
2D
 10
2419.678
 20
0
 30
0
 11
2419.678
 21
1.0
 31
0
 0
LINE
 8
TOOL_0
 5
2E
 10
2419.678
 20
1.0
 30
0
 11
2419.678
 21
941.838
 31
0
 0
LINE
 8
TOOL_0
 5
2F
 10
2419.678
 20
941.838
 30
0
 11
2130.067
 21
941.838
 31
0
 0
LINE
 8
TOOL_0
 5
30
 10
2130.067
 20
941.838
 30
0
 11
2130.067
 21
1209.038
 31
0
 0
LINE
 8
TOOL_0
 5
31
 10
2130.067
 20
1209.038
 30
0
 11
1.0
 21
1209.038
 31
0
 0
LINE
 8
TOOL_0
 5
32
 10
1.0
 20
1209.038
 30
0
 11
0
 21
1209.038
 31
0
 0
ENDSEC
 0
EOF

