0
SECTION
2
TABLES
0
TABLE
2
LAYER
70
0
0
LAYER
2
LAYER_NAME
70
0
62
1
6
CONTINUOUS
0
ENDTAB
0
ENDSEC
 0
SECTION
 2
ENTITIES
 0
LINE
 8
TOOL_0
 5
1
 10
2226.145
 20
141.294
 30
0
 11
2256.145
 21
141.294
 31
0
 0
LINE
 8
TOOL_0
 5
2
 10
2256.145
 20
141.294
 30
0
 11
2256.145
 21
191.294
 31
0
 0
ARC
 8
TOOL_0
 5
3
 10
2236.145
 20
191.294
 30
0
 40
20.0
 50
0
 51
90.0
210
0
220
0
230
1.0
 0
LINE
 8
TOOL_0
 5
4
 10
2236.145
 20
211.294
 30
0
 11
2106.145
 21
211.294
 31
0
 0
ARC
 8
TOOL_0
 5
5
 10
2106.145
 20
191.294
 30
0
 40
20.0
 50
90.0
 51
180.0
210
0
220
0
230
1.0
 0
LINE
 8
TOOL_0
 5
6
 10
2086.145
 20
191.294
 30
0
 11
2086.145
 21
91.294
 31
0
 0
ARC
 8
TOOL_0
 5
7
 10
2106.145
 20
91.294
 30
0
 40
20.0
 50
180.0
 51
270.0
210
0
220
0
230
1.0
 0
LINE
 8
TOOL_0
 5
8
 10
2106.145
 20
71.294
 30
0
 11
2236.145
 21
71.294
 31
0
 0
ARC
 8
TOOL_0
 5
9
 10
2236.145
 20
91.294
 30
0
 40
20.0
 50
270.0
 51
0
210
0
220
0
230
1.0
 0
LINE
 8
TOOL_0
 5
A
 10
2256.145
 20
91.294
 30
0
 11
2256.145
 21
141.294
 31
0
 0
LINE
 8
TOOL_0
 5
B
 10
2256.145
 20
141.294
 30
0
 11
2252.609
 21
144.83
 31
0
 0
LINE
 8
TOOL_0
 5
C
 10
2252.609
 20
144.83
 30
0
 11
3377.644
 21
148.294
 31
0
 0
LINE
 8
TOOL_0
 5
D
 10
3377.644
 20
148.294
 30
0
 11
3407.644
 21
148.294
 31
0
 0
LINE
 8
TOOL_0
 5
E
 10
3407.644
 20
148.294
 30
0
 11
3407.644
 21
183.294
 31
0
 0
ARC
 8
TOOL_0
 5
F
 10
3387.644
 20
183.294
 30
0
 40
20.0
 50
0
 51
90.0
210
0
220
0
230
1.0
 0
LINE
 8
TOOL_0
 5
10
 10
3387.644
 20
203.294
 30
0
 11
2977.644
 21
203.294
 31
0
 0
ARC
 8
TOOL_0
 5
11
 10
2977.644
 20
183.294
 30
0
 40
20.0
 50
90.0
 51
180.0
210
0
220
0
230
1.0
 0
LINE
 8
TOOL_0
 5
12
 10
2957.644
 20
183.294
 30
0
 11
2957.644
 21
113.294
 31
0
 0
ARC
 8
TOOL_0
 5
13
 10
2977.644
 20
113.294
 30
0
 40
20.0
 50
180.0
 51
270.0
210
0
220
0
230
1.0
 0
LINE
 8
TOOL_0
 5
14
 10
2977.644
 20
93.294
 30
0
 11
3387.644
 21
93.294
 31
0
 0
ARC
 8
TOOL_0
 5
15
 10
3387.644
 20
113.294
 30
0
 40
20.0
 50
270.0
 51
0
210
0
220
0
230
1.0
 0
LINE
 8
TOOL_0
 5
16
 10
3407.644
 20
113.294
 30
0
 11
3407.644
 21
148.294
 31
0
 0
LINE
 8
TOOL_0
 5
17
 10
3407.644
 20
148.294
 30
0
 11
3404.108
 21
151.83
 31
0
 0
LINE
 8
TOOL_0
 5
18
 10
3404.108
 20
151.83
 30
0
 11
4249.143
 21
141.294
 31
0
 0
LINE
 8
TOOL_0
 5
19
 10
4249.143
 20
141.294
 30
0
 11
4279.143
 21
141.294
 31
0
 0
LINE
 8
TOOL_0
 5
1A
 10
4279.143
 20
141.294
 30
0
 11
4279.143
 21
191.294
 31
0
 0
ARC
 8
TOOL_0
 5
1B
 10
4259.143
 20
191.294
 30
0
 40
20.0
 50
0
 51
90.0
210
0
220
0
230
1.0
 0
LINE
 8
TOOL_0
 5
1C
 10
4259.143
 20
211.294
 30
0
 11
4129.143
 21
211.294
 31
0
 0
ARC
 8
TOOL_0
 5
1D
 10
4129.143
 20
191.294
 30
0
 40
20.0
 50
90.0
 51
180.0
210
0
220
0
230
1.0
 0
LINE
 8
TOOL_0
 5
1E
 10
4109.143
 20
191.294
 30
0
 11
4109.143
 21
91.294
 31
0
 0
ARC
 8
TOOL_0
 5
1F
 10
4129.143
 20
91.294
 30
0
 40
20.0
 50
180.0
 51
270.0
210
0
220
0
230
1.0
 0
LINE
 8
TOOL_0
 5
20
 10
4129.143
 20
71.294
 30
0
 11
4259.143
 21
71.294
 31
0
 0
ARC
 8
TOOL_0
 5
21
 10
4259.143
 20
91.294
 30
0
 40
20.0
 50
270.0
 51
0
210
0
220
0
230
1.0
 0
LINE
 8
TOOL_0
 5
22
 10
4279.143
 20
91.294
 30
0
 11
4279.143
 21
141.294
 31
0
 0
LINE
 8
TOOL_0
 5
23
 10
4279.143
 20
141.294
 30
0
 11
4275.607
 21
144.83
 31
0
 0
LINE
 8
TOOL_0
 5
24
 10
4275.607
 20
144.83
 30
0
 11
4385.515
 21
57.588
 31
0
 0
LINE
 8
TOOL_0
 5
25
 10
4385.515
 20
57.588
 30
0
 11
4385.515
 21
7.017
 31
0
 0
LINE
 8
TOOL_0
 5
26
 10
4385.515
 20
7.017
 30
0
 11
4360.393
 21
7.394
 31
0
 0
LINE
 8
TOOL_0
 5
27
 10
4360.393
 20
7.394
 30
0
 11
2004.893
 21
7.394
 31
0
 0
LINE
 8
TOOL_0
 5
28
 10
2004.893
 20
7.394
 30
0
 11
2004.893
 21
359.194
 31
0
 0
LINE
 8
TOOL_0
 5
29
 10
2004.893
 20
359.194
 30
0
 11
2406.516
 21
359.194
 31
0
 0
LINE
 8
TOOL_0
 5
2A
 10
2406.516
 20
359.194
 30
0
 11
2426.516
 21
339.194
 31
0
 0
LINE
 8
TOOL_0
 5
2B
 10
2426.516
 20
339.194
 30
0
 11
2806.516
 21
339.194
 31
0
 0
LINE
 8
TOOL_0
 5
2C
 10
2806.516
 20
339.194
 30
0
 11
2846.516
 21
299.194
 31
0
 0
LINE
 8
TOOL_0
 5
2D
 10
2846.516
 20
299.194
 30
0
 11
3518.77
 21
299.194
 31
0
 0
LINE
 8
TOOL_0
 5
2E
 10
3518.77
 20
299.194
 30
0
 11
3558.77
 21
339.194
 31
0
 0
LINE
 8
TOOL_0
 5
2F
 10
3558.77
 20
339.194
 30
0
 11
3938.77
 21
339.194
 31
0
 0
LINE
 8
TOOL_0
 5
30
 10
3938.77
 20
339.194
 30
0
 11
3958.77
 21
359.194
 31
0
 0
LINE
 8
TOOL_0
 5
31
 10
3958.77
 20
359.194
 30
0
 11
4360.393
 21
359.194
 31
0
 0
LINE
 8
TOOL_0
 5
32
 10
4360.393
 20
359.194
 30
0
 11
4360.393
 21
7.394
 31
0
 0
LINE
 8
TOOL_0
 5
33
 10
4360.393
 20
7.394
 30
0
 11
4360.607
 21
3.666
 31
0
 0
LINE
 8
TOOL_0
 5
34
 10
4360.607
 20
3.666
 30
0
 11
4812.561
 21
47.155
 31
0
 0
LINE
 8
TOOL_0
 5
35
 10
4812.561
 20
47.155
 30
0
 11
4812.76
 21
8.894
 31
0
 0
LINE
 8
TOOL_0
 5
36
 10
4812.76
 20
8.894
 30
0
 11
4785.361
 21
9.507
 31
0
 0
LINE
 8
TOOL_0
 5
37
 10
4785.361
 20
9.507
 30
0
 11
4411.761
 21
9.507
 31
0
 0
LINE
 8
TOOL_0
 5
38
 10
4411.761
 20
9.507
 30
0
 11
4411.761
 21
300.307
 31
0
 0
ARC
 8
TOOL_0
 5
39
 10
4432.561
 20
300.307
 30
0
 40
20.8
 50
90.0
 51
180.0
210
0
220
0
230
1.0
 0
LINE
 8
TOOL_0
 5
3A
 10
4432.561
 20
321.107
 30
0
 11
4764.561
 21
321.107
 31
0
 0
ARC
 8
TOOL_0
 5
3B
 10
4764.561
 20
300.307
 30
0
 40
20.8
 50
0
 51
90.0
210
0
220
0
230
1.0
 0
LINE
 8
TOOL_0
 5
3C
 10
4785.361
 20
300.307
 30
0
 11
4785.361
 21
9.507
 31
0
 0
LINE
 8
TOOL_0
 5
3D
 10
4785.361
 20
9.507
 30
0
 11
4785.545
 21
5.108
 31
0
 0
LINE
 8
TOOL_0
 5
3E
 10
4785.545
 20
5.108
 30
0
 11
5022.611
 21
164.36
 31
0
 0
LINE
 8
TOOL_0
 5
3F
 10
5022.611
 20
164.36
 30
0
 11
5022.611
 21
0
 31
0
 0
LINE
 8
TOOL_0
 5
40
 10
5022.611
 20
0
 30
0
 11
730.793
 21
1249.275
 31
0
 0
LINE
 8
TOOL_0
 5
41
 10
730.793
 20
1249.275
 30
0
 11
760.793
 21
1249.275
 31
0
 0
LINE
 8
TOOL_0
 5
42
 10
760.793
 20
1249.275
 30
0
 11
760.793
 21
1299.275
 31
0
 0
ARC
 8
TOOL_0
 5
43
 10
740.793
 20
1299.275
 30
0
 40
20.0
 50
0
 51
90.0
210
0
220
0
230
1.0
 0
LINE
 8
TOOL_0
 5
44
 10
740.793
 20
1319.275
 30
0
 11
610.793
 21
1319.275
 31
0
 0
ARC
 8
TOOL_0
 5
45
 10
610.793
 20
1299.275
 30
0
 40
20.0
 50
90.0
 51
180.0
210
0
220
0
230
1.0
 0
LINE
 8
TOOL_0
 5
46
 10
590.793
 20
1299.275
 30
0
 11
590.793
 21
1199.275
 31
0
 0
ARC
 8
TOOL_0
 5
47
 10
610.793
 20
1199.275
 30
0
 40
20.0
 50
180.0
 51
270.0
210
0
220
0
230
1.0
 0
LINE
 8
TOOL_0
 5
48
 10
610.793
 20
1179.275
 30
0
 11
740.793
 21
1179.275
 31
0
 0
ARC
 8
TOOL_0
 5
49
 10
740.793
 20
1199.275
 30
0
 40
20.0
 50
270.0
 51
0
210
0
220
0
230
1.0
 0
LINE
 8
TOOL_0
 5
4A
 10
760.793
 20
1199.275
 30
0
 11
760.793
 21
1249.275
 31
0
 0
LINE
 8
TOOL_0
 5
4B
 10
760.793
 20
1249.275
 30
0
 11
757.257
 21
1252.811
 31
0
 0
LINE
 8
TOOL_0
 5
4C
 10
757.257
 20
1252.811
 30
0
 11
1773.293
 21
1256.276
 31
0
 0
LINE
 8
TOOL_0
 5
4D
 10
1773.293
 20
1256.276
 30
0
 11
1803.293
 21
1256.276
 31
0
 0
LINE
 8
TOOL_0
 5
4E
 10
1803.293
 20
1256.276
 30
0
 11
1803.293
 21
1291.276
 31
0
 0
ARC
 8
TOOL_0
 5
4F
 10
1783.293
 20
1291.276
 30
0
 40
20.0
 50
0
 51
90.0
210
0
220
0
230
1.0
 0
LINE
 8
TOOL_0
 5
50
 10
1783.293
 20
1311.276
 30
0
 11
1373.293
 21
1311.276
 31
0
 0
ARC
 8
TOOL_0
 5
51
 10
1373.293
 20
1291.276
 30
0
 40
20.0
 50
90.0
 51
180.0
210
0
220
0
230
1.0
 0
LINE
 8
TOOL_0
 5
52
 10
1353.293
 20
1291.276
 30
0
 11
1353.293
 21
1221.276
 31
0
 0
ARC
 8
TOOL_0
 5
53
 10
1373.293
 20
1221.276
 30
0
 40
20.0
 50
180.0
 51
270.0
210
0
220
0
230
1.0
 0
LINE
 8
TOOL_0
 5
54
 10
1373.293
 20
1201.276
 30
0
 11
1783.293
 21
1201.276
 31
0
 0
ARC
 8
TOOL_0
 5
55
 10
1783.293
 20
1221.276
 30
0
 40
20.0
 50
270.0
 51
0
210
0
220
0
230
1.0
 0
LINE
 8
TOOL_0
 5
56
 10
1803.293
 20
1221.276
 30
0
 11
1803.293
 21
1256.276
 31
0
 0
LINE
 8
TOOL_0
 5
57
 10
1803.293
 20
1256.276
 30
0
 11
1799.757
 21
1259.812
 31
0
 0
LINE
 8
TOOL_0
 5
58
 10
1799.757
 20
1259.812
 30
0
 11
2535.793
 21
1249.277
 31
0
 0
LINE
 8
TOOL_0
 5
59
 10
2535.793
 20
1249.277
 30
0
 11
2565.793
 21
1249.277
 31
0
 0
LINE
 8
TOOL_0
 5
5A
 10
2565.793
 20
1249.277
 30
0
 11
2565.793
 21
1299.277
 31
0
 0
ARC
 8
TOOL_0
 5
5B
 10
2545.793
 20
1299.277
 30
0
 40
20.0
 50
0
 51
90.0
210
0
220
0
230
1.0
 0
LINE
 8
TOOL_0
 5
5C
 10
2545.793
 20
1319.277
 30
0
 11
2415.793
 21
1319.277
 31
0
 0
ARC
 8
TOOL_0
 5
5D
 10
2415.793
 20
1299.277
 30
0
 40
20.0
 50
90.0
 51
180.0
210
0
220
0
230
1.0
 0
LINE
 8
TOOL_0
 5
5E
 10
2395.793
 20
1299.277
 30
0
 11
2395.793
 21
1199.277
 31
0
 0
ARC
 8
TOOL_0
 5
5F
 10
2415.793
 20
1199.277
 30
0
 40
20.0
 50
180.0
 51
270.0
210
0
220
0
230
1.0
 0
LINE
 8
TOOL_0
 5
60
 10
2415.793
 20
1179.277
 30
0
 11
2545.793
 21
1179.277
 31
0
 0
ARC
 8
TOOL_0
 5
61
 10
2545.793
 20
1199.277
 30
0
 40
20.0
 50
270.0
 51
0
210
0
220
0
230
1.0
 0
LINE
 8
TOOL_0
 5
62
 10
2565.793
 20
1199.277
 30
0
 11
2565.793
 21
1249.277
 31
0
 0
LINE
 8
TOOL_0
 5
63
 10
2565.793
 20
1249.277
 30
0
 11
2562.257
 21
1252.813
 31
0
 0
LINE
 8
TOOL_0
 5
64
 10
2562.257
 20
1252.813
 30
0
 11
2679.55
 21
1162.689
 31
0
 0
LINE
 8
TOOL_0
 5
65
 10
2679.55
 20
1162.689
 30
0
 11
2679.212
 21
1112.401
 31
0
 0
LINE
 8
TOOL_0
 5
66
 10
2679.212
 20
1112.401
 30
0
 11
2647.293
 21
1114.778
 31
0
 0
LINE
 8
TOOL_0
 5
67
 10
2647.293
 20
1114.778
 30
0
 11
509.293
 21
1114.778
 31
0
 0
LINE
 8
TOOL_0
 5
68
 10
509.293
 20
1114.778
 30
0
 11
509.293
 21
1467.778
 31
0
 0
LINE
 8
TOOL_0
 5
69
 10
509.293
 20
1467.778
 30
0
 11
811.414
 21
1467.778
 31
0
 0
LINE
 8
TOOL_0
 5
6A
 10
811.414
 20
1467.778
 30
0
 11
831.414
 21
1447.778
 31
0
 0
LINE
 8
TOOL_0
 5
6B
 10
831.414
 20
1447.778
 30
0
 11
1211.414
 21
1447.778
 31
0
 0
LINE
 8
TOOL_0
 5
6C
 10
1211.414
 20
1447.778
 30
0
 11
1251.414
 21
1407.778
 31
0
 0
LINE
 8
TOOL_0
 5
6D
 10
1251.414
 20
1407.778
 30
0
 11
1905.171
 21
1407.778
 31
0
 0
LINE
 8
TOOL_0
 5
6E
 10
1905.171
 20
1407.778
 30
0
 11
1945.171
 21
1447.778
 31
0
 0
LINE
 8
TOOL_0
 5
6F
 10
1945.171
 20
1447.778
 30
0
 11
2325.171
 21
1447.778
 31
0
 0
LINE
 8
TOOL_0
 5
70
 10
2325.171
 20
1447.778
 30
0
 11
2345.171
 21
1467.778
 31
0
 0
LINE
 8
TOOL_0
 5
71
 10
2345.171
 20
1467.778
 30
0
 11
2647.292
 21
1467.778
 31
0
 0
LINE
 8
TOOL_0
 5
72
 10
2647.292
 20
1467.778
 30
0
 11
2647.292
 21
1114.778
 31
0
 0
LINE
 8
TOOL_0
 5
73
 10
2647.292
 20
1114.778
 30
0
 11
2647.372
 21
1105.266
 31
0
 0
LINE
 8
TOOL_0
 5
74
 10
2647.372
 20
1105.266
 30
0
 11
140.811
 21
1738.98
 31
0
 0
LINE
 8
TOOL_0
 5
75
 10
140.811
 20
1738.98
 30
0
 11
170.811
 21
1738.98
 31
0
 0
ARC
 8
TOOL_0
 5
76
 10
118.311
 20
1738.98
 30
0
 40
52.5
 50
0
 51
180.0
210
0
220
0
230
1.0
 0
ARC
 8
TOOL_0
 5
77
 10
118.311
 20
1738.98
 30
0
 40
52.5
 50
180.0
 51
0
210
0
220
0
230
1.0
 0
LINE
 8
TOOL_0
 5
78
 10
170.811
 20
1738.98
 30
0
 11
167.275
 21
1742.516
 31
0
 0
LINE
 8
TOOL_0
 5
79
 10
167.275
 20
1742.516
 30
0
 11
513.707
 21
1544.643
 31
0
 0
LINE
 8
TOOL_0
 5
7A
 10
513.707
 20
1544.643
 30
0
 11
488.958
 21
1519.895
 31
0
 0
LINE
 8
TOOL_0
 5
7B
 10
488.958
 20
1519.895
 30
0
 11
486.309
 21
1518.484
 31
0
 0
ARC
 8
TOOL_0
 5
7C
 10
475.31
 20
1519.981
 30
0
 40
11.100405848436
 50
270.0
 51
352.249479369151
210
0
220
0
230
1.0
 0
LINE
 8
TOOL_0
 5
7D
 10
475.31
 20
1508.881
 30
0
 11
19.31
 21
1508.881
 31
0
 0
ARC
 8
TOOL_0
 5
7E
 10
19.31
 20
1519.981
 30
0
 40
11.1
 50
180.0
 51
270.0
210
0
220
0
230
1.0
 0
LINE
 8
TOOL_0
 5
7F
 10
8.21
 20
1519.981
 30
0
 11
8.21
 21
1937.981
 31
0
 0
ARC
 8
TOOL_0
 5
80
 10
19.31
 20
1937.981
 30
0
 40
11.1
 50
90.0
 51
180.0
210
0
220
0
230
1.0
 0
LINE
 8
TOOL_0
 5
81
 10
19.31
 20
1949.081
 30
0
 11
475.31
 21
1949.081
 31
0
 0
ARC
 8
TOOL_0
 5
82
 10
475.31
 20
1937.981
 30
0
 40
11.1
 50
0
 51
90.0
210
0
220
0
230
1.0
 0
LINE
 8
TOOL_0
 5
83
 10
486.41
 20
1937.981
 30
0
 11
486.41
 21
1521.483
 31
0
 0
LINE
 8
TOOL_0
 5
84
 10
486.41
 20
1521.483
 30
0
 11
488.958
 21
1519.896
 31
0
 0
LINE
 8
TOOL_0
 5
85
 10
488.958
 20
1519.896
 30
0
 11
492.494
 21
1516.36
 31
0
 0
LINE
 8
TOOL_0
 5
86
 10
492.494
 20
1516.36
 30
0
 11
679.684
 21
1716.26
 31
0
 0
LINE
 8
TOOL_0
 5
87
 10
679.684
 20
1716.26
 30
0
 11
709.684
 21
1716.26
 31
0
 0
ARC
 8
TOOL_0
 5
88
 10
657.184
 20
1716.26
 30
0
 40
52.5
 50
0
 51
180.0
210
0
220
0
230
1.0
 0
ARC
 8
TOOL_0
 5
89
 10
657.184
 20
1716.26
 30
0
 40
52.5
 50
180.0
 51
0
210
0
220
0
230
1.0
 0
LINE
 8
TOOL_0
 5
8A
 10
709.684
 20
1716.26
 30
0
 11
706.148
 21
1719.796
 31
0
 0
LINE
 8
TOOL_0
 5
8B
 10
706.148
 20
1719.796
 30
0
 11
1052.58
 21
1521.924
 31
0
 0
LINE
 8
TOOL_0
 5
8C
 10
1052.58
 20
1521.924
 30
0
 11
1027.831
 21
1497.175
 31
0
 0
LINE
 8
TOOL_0
 5
8D
 10
1027.831
 20
1497.175
 30
0
 11
1025.182
 21
1495.764
 31
0
 0
ARC
 8
TOOL_0
 5
8E
 10
1014.183
 20
1497.261
 30
0
 40
11.100405848436
 50
270.0
 51
352.249479369151
210
0
220
0
230
1.0
 0
LINE
 8
TOOL_0
 5
8F
 10
1014.183
 20
1486.161
 30
0
 11
558.183
 21
1486.161
 31
0
 0
ARC
 8
TOOL_0
 5
90
 10
558.183
 20
1497.261
 30
0
 40
11.1
 50
180.0
 51
270.0
210
0
220
0
230
1.0
 0
LINE
 8
TOOL_0
 5
91
 10
547.083
 20
1497.261
 30
0
 11
547.083
 21
1915.261
 31
0
 0
ARC
 8
TOOL_0
 5
92
 10
558.183
 20
1915.261
 30
0
 40
11.1
 50
90.0
 51
180.0
210
0
220
0
230
1.0
 0
LINE
 8
TOOL_0
 5
93
 10
558.183
 20
1926.361
 30
0
 11
1014.183
 21
1926.361
 31
0
 0
ARC
 8
TOOL_0
 5
94
 10
1014.183
 20
1915.261
 30
0
 40
11.1
 50
0
 51
90.0
210
0
220
0
230
1.0
 0
LINE
 8
TOOL_0
 5
95
 10
1025.283
 20
1915.261
 30
0
 11
1025.283
 21
1498.763
 31
0
 0
LINE
 8
TOOL_0
 5
96
 10
1025.283
 20
1498.763
 30
0
 11
1027.831
 21
1497.176
 31
0
 0
LINE
 8
TOOL_0
 5
97
 10
1027.831
 20
1497.176
 30
0
 11
1031.367
 21
1493.64
 31
0
 0
LINE
 8
TOOL_0
 5
98
 10
1031.367
 20
1493.64
 30
0
 11
1223.59
 21
1694.171
 31
0
 0
LINE
 8
TOOL_0
 5
99
 10
1223.59
 20
1694.171
 30
0
 11
1253.59
 21
1694.171
 31
0
 0
ARC
 8
TOOL_0
 5
9A
 10
1201.09
 20
1694.171
 30
0
 40
52.5
 50
0
 51
180.0
210
0
220
0
230
1.0
 0
ARC
 8
TOOL_0
 5
9B
 10
1201.09
 20
1694.171
 30
0
 40
52.5
 50
180.0
 51
0
210
0
220
0
230
1.0
 0
LINE
 8
TOOL_0
 5
9C
 10
1253.59
 20
1694.171
 30
0
 11
1250.054
 21
1697.707
 31
0
 0
LINE
 8
TOOL_0
 5
9D
 10
1250.054
 20
1697.707
 30
0
 11
1596.486
 21
1499.835
 31
0
 0
LINE
 8
TOOL_0
 5
9E
 10
1596.486
 20
1499.835
 30
0
 11
1571.737
 21
1475.086
 31
0
 0
LINE
 8
TOOL_0
 5
9F
 10
1571.737
 20
1475.086
 30
0
 11
1569.088
 21
1473.675
 31
0
 0
ARC
 8
TOOL_0
 5
A0
 10
1558.089
 20
1475.172
 30
0
 40
11.100405848436
 50
270.0
 51
352.249479369151
210
0
220
0
230
1.0
 0
LINE
 8
TOOL_0
 5
A1
 10
1558.089
 20
1464.072
 30
0
 11
1102.089
 21
1464.072
 31
0
 0
ARC
 8
TOOL_0
 5
A2
 10
1102.089
 20
1475.172
 30
0
 40
11.1
 50
180.0
 51
270.0
210
0
220
0
230
1.0
 0
LINE
 8
TOOL_0
 5
A3
 10
1090.989
 20
1475.172
 30
0
 11
1090.989
 21
1893.172
 31
0
 0
ARC
 8
TOOL_0
 5
A4
 10
1102.089
 20
1893.172
 30
0
 40
11.1
 50
90.0
 51
180.0
210
0
220
0
230
1.0
 0
LINE
 8
TOOL_0
 5
A5
 10
1102.089
 20
1904.272
 30
0
 11
1558.089
 21
1904.272
 31
0
 0
ARC
 8
TOOL_0
 5
A6
 10
1558.089
 20
1893.172
 30
0
 40
11.1
 50
0
 51
90.0
210
0
220
0
230
1.0
 0
LINE
 8
TOOL_0
 5
A7
 10
1569.189
 20
1893.172
 30
0
 11
1569.189
 21
1476.674
 31
0
 0
LINE
 8
TOOL_0
 5
A8
 10
1569.189
 20
1476.674
 30
0
 11
1571.737
 21
1475.087
 31
0
 0
LINE
 8
TOOL_0
 5
A9
 10
1571.737
 20
1475.087
 30
0
 11
1575.273
 21
1471.551
 31
0
 0
LINE
 8
TOOL_0
 5
AA
 10
1575.273
 20
1471.551
 30
0
 11
2204.066
 21
1540.811
 31
0
 0
LINE
 8
TOOL_0
 5
AB
 10
2204.066
 20
1540.811
 30
0
 11
2179.318
 21
1516.062
 31
0
 0
LINE
 8
TOOL_0
 5
AC
 10
2179.318
 20
1516.062
 30
0
 11
2176.707
 21
1514.581
 31
0
 0
ARC
 8
TOOL_0
 5
AD
 10
2125.229
 20
1516.081
 30
0
 40
51.499849359003
 50
269.998887460592
 51
358.330949962486
210
0
220
0
230
1.0
 0
LINE
 8
TOOL_0
 5
AE
 10
2125.228
 20
1464.581
 30
0
 11
1663.229
 21
1464.581
 31
0
 0
ARC
 8
TOOL_0
 5
AF
 10
1663.229
 20
1486.081
 30
0
 40
21.5
 50
180.0
 51
270.0
210
0
220
0
230
1.0
 0
LINE
 8
TOOL_0
 5
B0
 10
1641.729
 20
1486.081
 30
0
 11
1641.729
 21
1761.081
 31
0
 0
ARC
 8
TOOL_0
 5
B1
 10
1663.229
 20
1761.081
 30
0
 40
21.5
 50
90.0
 51
180.0
210
0
220
0
230
1.0
 0
LINE
 8
TOOL_0
 5
B2
 10
1663.229
 20
1782.581
 30
0
 11
2005.229
 21
1782.581
 31
0
 0
ARC
 8
TOOL_0
 5
B3
 10
2005.229
 20
1761.081
 30
0
 40
21.5
 50
0
 51
90.0
210
0
220
0
230
1.0
 0
LINE
 8
TOOL_0
 5
B4
 10
2026.729
 20
1761.081
 30
0
 11
2026.729
 21
1636.081
 31
0
 0
ARC
 8
TOOL_0
 5
B5
 10
2055.229
 20
1636.081
 30
0
 40
28.5
 50
180.0
 51
270.0
210
0
220
0
230
1.0
 0
LINE
 8
TOOL_0
 5
B6
 10
2055.229
 20
1607.581
 30
0
 11
2125.229
 21
1607.581
 31
0
 0
ARC
 8
TOOL_0
 5
B7
 10
2125.229
 20
1556.081
 30
0
 40
51.5
 50
0
 51
90.0
210
0
220
0
230
1.0
 0
LINE
 8
TOOL_0
 5
B8
 10
2176.729
 20
1556.081
 30
0
 11
2176.729
 21
1517.581
 31
0
 0
LINE
 8
TOOL_0
 5
B9
 10
2176.729
 20
1517.581
 30
0
 11
2179.318
 21
1516.062
 31
0
 0
LINE
 8
TOOL_0
 5
BA
 10
2179.318
 20
1516.062
 30
0
 11
2182.854
 21
1512.526
 31
0
 0
LINE
 8
TOOL_0
 5
BB
 10
2182.854
 20
1512.526
 30
0
 11
2644.777
 21
1529.719
 31
0
 0
LINE
 8
TOOL_0
 5
BC
 10
2644.777
 20
1529.719
 30
0
 11
2620.028
 21
1504.97
 31
0
 0
LINE
 8
TOOL_0
 5
BD
 10
2620.028
 20
1504.97
 30
0
 11
2617.402
 21
1503.516
 31
0
 0
ARC
 8
TOOL_0
 5
BE
 10
2595.954
 20
1505.015
 30
0
 40
21.500318718568
 50
270.0
 51
356.002100825276
210
0
220
0
230
1.0
 0
LINE
 8
TOOL_0
 5
BF
 10
2595.954
 20
1483.515
 30
0
 11
2253.954
 21
1483.515
 31
0
 0
ARC
 8
TOOL_0
 5
C0
 10
2253.954
 20
1505.015
 30
0
 40
21.5
 50
180.0
 51
270.0
210
0
220
0
230
1.0
 0
LINE
 8
TOOL_0
 5
C1
 10
2232.454
 20
1505.015
 30
0
 11
2232.454
 21
1630.015
 31
0
 0
ARC
 8
TOOL_0
 5
C2
 10
2203.954
 20
1630.015
 30
0
 40
28.5
 50
0
 51
90.0
210
0
220
0
230
1.0
 0
LINE
 8
TOOL_0
 5
C3
 10
2203.954
 20
1658.515
 30
0
 11
2133.954
 21
1658.515
 31
0
 0
ARC
 8
TOOL_0
 5
C4
 10
2133.954
 20
1710.015
 30
0
 40
51.5
 50
180.0
 51
270.0
210
0
220
0
230
1.0
 0
LINE
 8
TOOL_0
 5
C5
 10
2082.454
 20
1710.015
 30
0
 11
2082.454
 21
1750.015
 31
0
 0
ARC
 8
TOOL_0
 5
C6
 10
2133.954
 20
1750.015
 30
0
 40
51.5
 50
90.0
 51
180.0
210
0
220
0
230
1.0
 0
LINE
 8
TOOL_0
 5
C7
 10
2133.954
 20
1801.515
 30
0
 11
2595.954
 21
1801.515
 31
0
 0
ARC
 8
TOOL_0
 5
C8
 10
2595.954
 20
1780.015
 30
0
 40
21.5
 50
0
 51
90.0
210
0
220
0
230
1.0
 0
LINE
 8
TOOL_0
 5
C9
 10
2617.454
 20
1780.015
 30
0
 11
2617.454
 21
1506.515
 31
0
 0
LINE
 8
TOOL_0
 5
CA
 10
2617.454
 20
1506.515
 30
0
 11
2620.027
 21
1504.97
 31
0
 0
LINE
 8
TOOL_0
 5
CB
 10
2620.027
 20
1504.97
 30
0
 11
2623.563
 21
1501.434
 31
0
 0
LINE
 8
TOOL_0
 5
CC
 10
2623.563
 20
1501.434
 30
0
 11
2623.563
 21
0.005
 31
0
 0
LINE
 8
TOOL_0
 5
CD
 10
2623.563
 20
0.005
 30
0
 11
3273.134
 21
1170.787
 31
0
 0
LINE
 8
TOOL_0
 5
CE
 10
3273.134
 20
1170.787
 30
0
 11
3248.385
 21
1146.038
 31
0
 0
LINE
 8
TOOL_0
 5
CF
 10
3248.385
 20
1146.038
 30
0
 11
3245.774
 21
1144.558
 31
0
 0
ARC
 8
TOOL_0
 5
D0
 10
3195.797
 20
1146.058
 30
0
 40
49.999505287553
 50
269.998854084409
 51
358.280851664334
210
0
220
0
230
1.0
 0
LINE
 8
TOOL_0
 5
D1
 10
3195.796
 20
1096.058
 30
0
 11
2741.797
 21
1096.058
 31
0
 0
ARC
 8
TOOL_0
 5
D2
 10
2741.797
 20
1126.058
 30
0
 40
30.0
 50
180.0
 51
270.0
210
0
220
0
230
1.0
 0
LINE
 8
TOOL_0
 5
D3
 10
2711.797
 20
1126.058
 30
0
 11
2711.797
 21
1382.658
 31
0
 0
ARC
 8
TOOL_0
 5
D4
 10
2741.797
 20
1382.658
 30
0
 40
30.0
 50
90.0
 51
180.0
210
0
220
0
230
1.0
 0
LINE
 8
TOOL_0
 5
D5
 10
2741.797
 20
1412.658
 30
0
 11
3065.797
 21
1412.658
 31
0
 0
ARC
 8
TOOL_0
 5
D6
 10
3065.797
 20
1382.658
 30
0
 40
30.0
 50
0
 51
90.0
210
0
220
0
230
1.0
 0
LINE
 8
TOOL_0
 5
D7
 10
3095.797
 20
1382.658
 30
0
 11
3095.797
 21
1266.858
 31
0
 0
ARC
 8
TOOL_0
 5
D8
 10
3125.797
 20
1266.858
 30
0
 40
30.0
 50
180.0
 51
270.0
210
0
220
0
230
1.0
 0
LINE
 8
TOOL_0
 5
D9
 10
3125.797
 20
1236.858
 30
0
 11
3195.797
 21
1236.858
 31
0
 0
ARC
 8
TOOL_0
 5
DA
 10
3195.797
 20
1186.858
 30
0
 40
50.0
 50
0
 51
90.0
210
0
220
0
230
1.0
 0
LINE
 8
TOOL_0
 5
DB
 10
3245.797
 20
1186.858
 30
0
 11
3245.797
 21
1147.558
 31
0
 0
LINE
 8
TOOL_0
 5
DC
 10
3245.797
 20
1147.558
 30
0
 11
3248.386
 21
1146.039
 31
0
 0
LINE
 8
TOOL_0
 5
DD
 10
3248.386
 20
1146.039
 30
0
 11
3251.922
 21
1142.503
 31
0
 0
LINE
 8
TOOL_0
 5
DE
 10
3251.922
 20
1142.503
 30
0
 11
3713.537
 21
1151.09
 31
0
 0
LINE
 8
TOOL_0
 5
DF
 10
3713.537
 20
1151.09
 30
0
 11
3688.788
 21
1126.341
 31
0
 0
LINE
 8
TOOL_0
 5
E0
 10
3688.788
 20
1126.341
 30
0
 11
3686.169
 21
1124.874
 31
0
 0
ARC
 8
TOOL_0
 5
E1
 10
3656.207
 20
1126.374
 30
0
 40
29.999524062891
 50
269.998090140683
 51
357.133970511115
210
0
220
0
230
1.0
 0
LINE
 8
TOOL_0
 5
E2
 10
3656.206
 20
1096.374
 30
0
 11
3332.206
 21
1096.374
 31
0
 0
ARC
 8
TOOL_0
 5
E3
 10
3332.206
 20
1126.374
 30
0
 40
30.0
 50
180.0
 51
270.0
210
0
220
0
230
1.0
 0
LINE
 8
TOOL_0
 5
E4
 10
3302.206
 20
1126.374
 30
0
 11
3302.206
 21
1242.174
 31
0
 0
ARC
 8
TOOL_0
 5
E5
 10
3272.206
 20
1242.174
 30
0
 40
30.0
 50
0
 51
90.0
210
0
220
0
230
1.0
 0
LINE
 8
TOOL_0
 5
E6
 10
3272.206
 20
1272.174
 30
0
 11
3202.206
 21
1272.174
 31
0
 0
ARC
 8
TOOL_0
 5
E7
 10
3202.206
 20
1322.174
 30
0
 40
50.0
 50
180.0
 51
270.0
210
0
220
0
230
1.0
 0
LINE
 8
TOOL_0
 5
E8
 10
3152.206
 20
1322.174
 30
0
 11
3152.206
 21
1362.974
 31
0
 0
ARC
 8
TOOL_0
 5
E9
 10
3202.206
 20
1362.974
 30
0
 40
50.0
 50
90.0
 51
180.0
210
0
220
0
230
1.0
 0
LINE
 8
TOOL_0
 5
EA
 10
3202.206
 20
1412.974
 30
0
 11
3656.206
 21
1412.974
 31
0
 0
ARC
 8
TOOL_0
 5
EB
 10
3656.206
 20
1382.974
 30
0
 40
30.0
 50
0
 51
90.0
210
0
220
0
230
1.0
 0
LINE
 8
TOOL_0
 5
EC
 10
3686.206
 20
1382.974
 30
0
 11
3686.206
 21
1127.874
 31
0
 0
LINE
 8
TOOL_0
 5
ED
 10
3686.206
 20
1127.874
 30
0
 11
3688.787
 21
1126.342
 31
0
 0
LINE
 8
TOOL_0
 5
EE
 10
3688.787
 20
1126.342
 30
0
 11
3692.323
 21
1122.806
 31
0
 0
LINE
 8
TOOL_0
 5
EF
 10
3692.323
 20
1122.806
 30
0
 11
4311.557
 21
1189.407
 31
0
 0
LINE
 8
TOOL_0
 5
F0
 10
4311.557
 20
1189.407
 30
0
 11
4286.808
 21
1164.658
 31
0
 0
LINE
 8
TOOL_0
 5
F1
 10
4286.808
 20
1164.658
 30
0
 11
4284.197
 21
1163.178
 31
0
 0
ARC
 8
TOOL_0
 5
F2
 10
4234.22
 20
1164.678
 30
0
 40
49.999505287553
 50
269.998854084409
 51
358.280851664334
210
0
220
0
230
1.0
 0
LINE
 8
TOOL_0
 5
F3
 10
4234.219
 20
1114.678
 30
0
 11
3780.22
 21
1114.678
 31
0
 0
ARC
 8
TOOL_0
 5
F4
 10
3780.22
 20
1144.678
 30
0
 40
30.0
 50
180.0
 51
270.0
210
0
220
0
230
1.0
 0
LINE
 8
TOOL_0
 5
F5
 10
3750.22
 20
1144.678
 30
0
 11
3750.22
 21
1401.278
 31
0
 0
ARC
 8
TOOL_0
 5
F6
 10
3780.22
 20
1401.278
 30
0
 40
30.0
 50
90.0
 51
180.0
210
0
220
0
230
1.0
 0
LINE
 8
TOOL_0
 5
F7
 10
3780.22
 20
1431.278
 30
0
 11
4104.22
 21
1431.278
 31
0
 0
ARC
 8
TOOL_0
 5
F8
 10
4104.22
 20
1401.278
 30
0
 40
30.0
 50
0
 51
90.0
210
0
220
0
230
1.0
 0
LINE
 8
TOOL_0
 5
F9
 10
4134.22
 20
1401.278
 30
0
 11
4134.22
 21
1285.478
 31
0
 0
ARC
 8
TOOL_0
 5
FA
 10
4164.22
 20
1285.478
 30
0
 40
30.0
 50
180.0
 51
270.0
210
0
220
0
230
1.0
 0
LINE
 8
TOOL_0
 5
FB
 10
4164.22
 20
1255.478
 30
0
 11
4234.22
 21
1255.478
 31
0
 0
ARC
 8
TOOL_0
 5
FC
 10
4234.22
 20
1205.478
 30
0
 40
50.0
 50
0
 51
90.0
210
0
220
0
230
1.0
 0
LINE
 8
TOOL_0
 5
FD
 10
4284.22
 20
1205.478
 30
0
 11
4284.22
 21
1166.178
 31
0
 0
LINE
 8
TOOL_0
 5
FE
 10
4284.22
 20
1166.178
 30
0
 11
4286.809
 21
1164.659
 31
0
 0
LINE
 8
TOOL_0
 5
FF
 10
4286.809
 20
1164.659
 30
0
 11
4290.345
 21
1161.123
 31
0
 0
LINE
 8
TOOL_0
 5
100
 10
4290.345
 20
1161.123
 30
0
 11
4810.105
 21
1132.417
 31
0
 0
LINE
 8
TOOL_0
 5
101
 10
4810.105
 20
1132.417
 30
0
 11
4810.105
 21
1085.551
 31
0
 0
LINE
 8
TOOL_0
 5
102
 10
4810.105
 20
1085.551
 30
0
 11
4783.231
 21
1086.499
 31
0
 0
LINE
 8
TOOL_0
 5
103
 10
4783.231
 20
1086.499
 30
0
 11
4408.231
 21
1086.499
 31
0
 0
LINE
 8
TOOL_0
 5
104
 10
4408.231
 20
1086.499
 30
0
 11
4408.231
 21
1377.999
 31
0
 0
ARC
 8
TOOL_0
 5
105
 10
4429.731
 20
1377.999
 30
0
 40
21.5
 50
90.0
 51
180.0
210
0
220
0
230
1.0
 0
LINE
 8
TOOL_0
 5
106
 10
4429.731
 20
1399.499
 30
0
 11
4761.731
 21
1399.499
 31
0
 0
ARC
 8
TOOL_0
 5
107
 10
4761.731
 20
1377.999
 30
0
 40
21.5
 50
0
 51
90.0
210
0
220
0
230
1.0
 0
LINE
 8
TOOL_0
 5
108
 10
4783.231
 20
1377.999
 30
0
 11
4783.231
 21
1086.499
 31
0
 0
LINE
 8
TOOL_0
 5
109
 10
4783.231
 20
1086.499
 30
0
 11
4782.868
 21
1080.303
 31
0
 0
LINE
 8
TOOL_0
 5
10A
 10
4782.868
 20
1080.303
 30
0
 11
5259.086
 21
1080.422
 31
0
 0
LINE
 8
TOOL_0
 5
10B
 10
5259.086
 20
1080.422
 30
0
 11
5210.358
 21
1080.888
 31
0
 0
LINE
 8
TOOL_0
 5
10C
 10
5210.358
 20
1080.888
 30
0
 11
4836.758
 21
1080.888
 31
0
 0
LINE
 8
TOOL_0
 5
10D
 10
4836.758
 20
1080.888
 30
0
 11
4836.758
 21
1371.688
 31
0
 0
ARC
 8
TOOL_0
 5
10E
 10
4857.558
 20
1371.688
 30
0
 40
20.8
 50
90.0
 51
180.0
210
0
220
0
230
1.0
 0
LINE
 8
TOOL_0
 5
10F
 10
4857.558
 20
1392.488
 30
0
 11
5189.558
 21
1392.488
 31
0
 0
ARC
 8
TOOL_0
 5
110
 10
5189.558
 20
1371.688
 30
0
 40
20.8
 50
0
 51
90.0
210
0
220
0
230
1.0
 0
LINE
 8
TOOL_0
 5
111
 10
5210.358
 20
1371.688
 30
0
 11
5210.358
 21
1080.888
 31
0
 0
LINE
 8
TOOL_0
 5
112
 10
5210.358
 20
1080.888
 30
0
 11
5210.702
 21
1073.068
 31
0
 0
LINE
 8
TOOL_0
 5
113
 10
5210.702
 20
1073.068
 30
0
 11
5210.702
 21
0.007
 31
0
 0
LINE
 8
TOOL_0
 5
114
 10
5210.702
 20
0.007
 30
0
 11
5245.27
 21
7.718
 31
0
 0
LINE
 8
TOOL_0
 5
115
 10
5245.27
 20
7.718
 30
0
 11
5209.412
 21
8.567
 31
0
 0
LINE
 8
TOOL_0
 5
116
 10
5209.412
 20
8.567
 30
0
 11
4835.812
 21
8.567
 31
0
 0
LINE
 8
TOOL_0
 5
117
 10
4835.812
 20
8.567
 30
0
 11
4835.812
 21
299.367
 31
0
 0
ARC
 8
TOOL_0
 5
118
 10
4856.612
 20
299.367
 30
0
 40
20.8
 50
90.0
 51
180.0
210
0
220
0
230
1.0
 0
LINE
 8
TOOL_0
 5
119
 10
4856.612
 20
320.167
 30
0
 11
5188.612
 21
320.167
 31
0
 0
ARC
 8
TOOL_0
 5
11A
 10
5188.612
 20
299.367
 30
0
 40
20.8
 50
0
 51
90.0
210
0
220
0
230
1.0
 0
LINE
 8
TOOL_0
 5
11B
 10
5209.412
 20
299.367
 30
0
 11
5209.412
 21
8.567
 31
0
 0
LINE
 8
TOOL_0
 5
11C
 10
5209.412
 20
8.567
 30
0
 11
5209.375
 21
4.511
 31
0
 0
ENDSEC
 0
EOF

