0
SECTION
2
TABLES
0
TABLE
2
LAYER
70
0
0
LAYER
2
LAYER_NAME
70
0
62
1
6
CONTINUOUS
0
ENDTAB
0
ENDSEC
 0
SECTION
 2
ENTITIES
 0
LINE
 8
TOOL_0
 5
1
 10
180.5
 20
370.547
 30
0
 11
210.5
 21
370.547
 31
0
 0
LINE
 8
TOOL_0
 5
2
 10
210.5
 20
370.547
 30
0
 11
210.5
 21
400.547
 31
0
 0
ARC
 8
TOOL_0
 5
3
 10
200.5
 20
400.547
 30
0
 40
10.0
 50
0
 51
90.0
210
0
220
0
230
1.0
 0
LINE
 8
TOOL_0
 5
4
 10
200.5
 20
410.547
 30
0
 11
154.5
 21
410.547
 31
0
 0
ARC
 8
TOOL_0
 5
5
 10
154.5
 20
400.547
 30
0
 40
10.0
 50
90.0
 51
180.0
210
0
220
0
230
1.0
 0
LINE
 8
TOOL_0
 5
6
 10
144.5
 20
400.547
 30
0
 11
144.5
 21
340.547
 31
0
 0
ARC
 8
TOOL_0
 5
7
 10
154.5
 20
340.547
 30
0
 40
10.0
 50
180.0
 51
270.0
210
0
220
0
230
1.0
 0
LINE
 8
TOOL_0
 5
8
 10
154.5
 20
330.547
 30
0
 11
200.5
 21
330.547
 31
0
 0
ARC
 8
TOOL_0
 5
9
 10
200.5
 20
340.547
 30
0
 40
10.0
 50
270.0
 51
0
210
0
220
0
230
1.0
 0
LINE
 8
TOOL_0
 5
A
 10
210.5
 20
340.547
 30
0
 11
210.5
 21
370.547
 31
0
 0
LINE
 8
TOOL_0
 5
B
 10
210.5
 20
370.547
 30
0
 11
206.964
 21
374.083
 31
0
 0
LINE
 8
TOOL_0
 5
C
 10
206.964
 20
374.083
 30
0
 11
180.5
 21
116.547
 31
0
 0
LINE
 8
TOOL_0
 5
D
 10
180.5
 20
116.547
 30
0
 11
210.5
 21
116.547
 31
0
 0
LINE
 8
TOOL_0
 5
E
 10
210.5
 20
116.547
 30
0
 11
210.5
 21
146.547
 31
0
 0
ARC
 8
TOOL_0
 5
F
 10
200.5
 20
146.547
 30
0
 40
10.0
 50
0
 51
90.0
210
0
220
0
230
1.0
 0
LINE
 8
TOOL_0
 5
10
 10
200.5
 20
156.547
 30
0
 11
154.5
 21
156.547
 31
0
 0
ARC
 8
TOOL_0
 5
11
 10
154.5
 20
146.547
 30
0
 40
10.0
 50
90.0
 51
180.0
210
0
220
0
230
1.0
 0
LINE
 8
TOOL_0
 5
12
 10
144.5
 20
146.547
 30
0
 11
144.5
 21
86.547
 31
0
 0
ARC
 8
TOOL_0
 5
13
 10
154.5
 20
86.547
 30
0
 40
10.0
 50
180.0
 51
270.0
210
0
220
0
230
1.0
 0
LINE
 8
TOOL_0
 5
14
 10
154.5
 20
76.547
 30
0
 11
200.5
 21
76.547
 31
0
 0
ARC
 8
TOOL_0
 5
15
 10
200.5
 20
86.547
 30
0
 40
10.0
 50
270.0
 51
0
210
0
220
0
230
1.0
 0
LINE
 8
TOOL_0
 5
16
 10
210.5
 20
86.547
 30
0
 11
210.5
 21
116.547
 31
0
 0
LINE
 8
TOOL_0
 5
17
 10
210.5
 20
116.547
 30
0
 11
206.964
 21
120.083
 31
0
 0
LINE
 8
TOOL_0
 5
18
 10
206.964
 20
120.083
 30
0
 11
582.951
 21
190.447
 31
0
 0
LINE
 8
TOOL_0
 5
19
 10
582.951
 20
190.447
 30
0
 11
553.8
 21
190.447
 31
0
 0
LINE
 8
TOOL_0
 5
1A
 10
553.8
 20
190.447
 30
0
 11
488.4
 21
190.447
 31
0
 0
ARC
 8
TOOL_0
 5
1B
 10
488.4
 20
193.447
 30
0
 40
3.0
 50
180.0
 51
270.0
210
0
220
0
230
1.0
 0
LINE
 8
TOOL_0
 5
1C
 10
485.4
 20
193.447
 30
0
 11
485.4
 21
200.447
 31
0
 0
ARC
 8
TOOL_0
 5
1D
 10
470.4
 20
200.447
 30
0
 40
15.0
 50
0
 51
90.0
210
0
220
0
230
1.0
 0
LINE
 8
TOOL_0
 5
1E
 10
470.4
 20
215.447
 30
0
 11
317.084
 21
215.447
 31
0
 0
ARC
 8
TOOL_0
 5
1F
 10
317.084
 20
196.047
 30
0
 40
19.4
 50
90.0
 51
135.0
210
0
220
0
230
1.0
 0
LINE
 8
TOOL_0
 5
20
 10
303.366
 20
209.765
 30
0
 11
293.088
 21
199.487
 31
0
 0
ARC
 8
TOOL_0
 5
21
 10
335.239
 20
157.414
 30
0
 40
59.555387077913
 50
135.053061710728
 51
173.745757649056
210
0
220
0
230
1.0
 0
ARC
 8
TOOL_0
 5
22
 10
265.5
 20
165.047
 30
0
 40
10.600022122618
 50
270.0
 51
353.798888446261
210
0
220
0
230
1.0
 0
ARC
 8
TOOL_0
 5
23
 10
265.5
 20
135.047
 30
0
 40
19.4
 50
90.0
 51
180.0
210
0
220
0
230
1.0
 0
LINE
 8
TOOL_0
 5
24
 10
246.1
 20
135.047
 30
0
 11
246.1
 21
54.397
 31
0
 0
ARC
 8
TOOL_0
 5
25
 10
243.1
 20
54.397
 30
0
 40
3.0
 50
284.99046721556
 51
0
210
0
220
0
230
1.0
 0
LINE
 8
TOOL_0
 5
26
 10
243.876
 20
51.499
 30
0
 11
212.482
 21
43.087
 31
0
 0
ARC
 8
TOOL_0
 5
27
 10
211.706
 20
45.985
 30
0
 40
3.000096665109
 50
195.008913676658
 51
284.99046721556
210
0
220
0
230
1.0
 0
LINE
 8
TOOL_0
 5
28
 10
208.808
 20
45.208
 30
0
 11
208.316
 21
47.043
 31
0
 0
ARC
 8
TOOL_0
 5
29
 10
205.418
 20
46.267
 30
0
 40
3.000096665109
 50
14.99046721556
 51
104.995408657677
210
0
220
0
230
1.0
 0
LINE
 8
TOOL_0
 5
2A
 10
204.642
 20
49.164
 30
0
 11
152.868
 21
35.291
 31
0
 0
ARC
 8
TOOL_0
 5
2B
 10
153.644
 20
32.393
 30
0
 40
3.000096665109
 50
104.99046721556
 51
194.995408657677
210
0
220
0
230
1.0
 0
LINE
 8
TOOL_0
 5
2C
 10
150.747
 20
31.617
 30
0
 11
151.239
 21
29.782
 31
0
 0
ARC
 8
TOOL_0
 5
2D
 10
148.341
 20
29.006
 30
0
 40
3.000096665109
 50
285.008913676659
 51
14.99046721556
210
0
220
0
230
1.0
 0
LINE
 8
TOOL_0
 5
2E
 10
149.118
 20
26.108
 30
0
 11
121.445
 21
18.693
 31
0
 0
ARC
 8
TOOL_0
 5
2F
 10
120.72
 20
21.398
 30
0
 40
2.800473174305
 50
195.009200172029
 51
285.003901736897
210
0
220
0
230
1.0
 0
LINE
 8
TOOL_0
 5
30
 10
118.016
 20
20.673
 30
0
 11
108.7
 21
55.441
 31
0
 0
LINE
 8
TOOL_0
 5
31
 10
108.7
 20
55.441
 30
0
 11
108.7
 21
151.546
 31
0
 0
ARC
 8
TOOL_0
 5
32
 10
89.5
 20
151.546
 30
0
 40
19.2
 50
0
 51
55.608896625223
210
0
220
0
230
1.0
 0
LINE
 8
TOOL_0
 5
33
 10
100.345
 20
167.39
 30
0
 11
85.368
 21
177.642
 31
0
 0
ARC
 8
TOOL_0
 5
34
 10
68.874
 20
153.547
 30
0
 40
29.199675700254
 50
55.606785125803
 51
87.976512547702
210
0
220
0
230
1.0
 0
ARC
 8
TOOL_0
 5
35
 10
68.952
 20
233.628
 30
0
 40
50.908920721225
 50
214.740495244392
 51
271.072622767533
210
0
220
0
230
1.0
 0
ARC
 8
TOOL_0
 5
36
 10
169.304
 20
296.837
 30
0
 40
169.473853428781
 50
208.555470792514
 51
212.966920169158
210
0
220
0
230
1.0
 0
ARC
 8
TOOL_0
 5
37
 10
30.063
 20
221.297
 30
0
 40
11.063796319528
 50
180.367707176702
 51
209.630545539638
210
0
220
0
230
1.0
 0
LINE
 8
TOOL_0
 5
38
 10
19.0
 20
221.226
 30
0
 11
19.0
 21
265.867
 31
0
 0
ARC
 8
TOOL_0
 5
39
 10
30.064
 20
265.796
 30
0
 40
11.064227808573
 50
150.36495319624
 51
179.632326056946
210
0
220
0
230
1.0
 0
LINE
 8
TOOL_0
 5
3A
 10
20.447
 20
271.267
 30
0
 11
24.881
 21
278.946
 31
0
 0
ARC
 8
TOOL_0
 5
3B
 10
68.914
 20
253.481
 30
0
 40
50.866209943341
 50
91.62110342507
 51
149.958506845517
210
0
220
0
230
1.0
 0
ARC
 8
TOOL_0
 5
3C
 10
68.656
 20
334.01
 30
0
 40
29.706484982239
 50
267.721569789111
 51
304.236244747272
210
0
220
0
230
1.0
 0
LINE
 8
TOOL_0
 5
3D
 10
85.369
 20
309.451
 30
0
 11
100.346
 21
319.703
 31
0
 0
ARC
 8
TOOL_0
 5
3E
 10
89.501
 20
335.547
 30
0
 40
19.200165650327
 50
304.391103374777
 51
359.99701584482
210
0
220
0
230
1.0
 0
LINE
 8
TOOL_0
 5
3F
 10
108.701
 20
335.546
 30
0
 11
108.701
 21
431.651
 31
0
 0
LINE
 8
TOOL_0
 5
40
 10
108.701
 20
431.651
 30
0
 11
118.017
 21
466.419
 31
0
 0
ARC
 8
TOOL_0
 5
41
 10
120.722
 20
465.694
 30
0
 40
2.800473174305
 50
75.015861915196
 51
164.996098263103
210
0
220
0
230
1.0
 0
LINE
 8
TOOL_0
 5
42
 10
121.446
 20
468.399
 30
0
 11
149.119
 21
460.984
 31
0
 0
ARC
 8
TOOL_0
 5
43
 10
148.343
 20
458.086
 30
0
 40
3.000096665109
 50
345.004591342324
 51
75.00953278444
210
0
220
0
230
1.0
 0
LINE
 8
TOOL_0
 5
44
 10
151.24
 20
457.31
 30
0
 11
150.748
 21
455.475
 31
0
 0
ARC
 8
TOOL_0
 5
45
 10
153.646
 20
454.699
 30
0
 40
3.000096665109
 50
165.00953278444
 51
254.991086323341
210
0
220
0
230
1.0
 0
LINE
 8
TOOL_0
 5
46
 10
152.869
 20
451.801
 30
0
 11
204.643
 21
437.928
 31
0
 0
ARC
 8
TOOL_0
 5
47
 10
205.419
 20
440.826
 30
0
 40
3.000096665109
 50
255.00953278444
 51
344.991086323341
210
0
220
0
230
1.0
 0
LINE
 8
TOOL_0
 5
48
 10
208.317
 20
440.049
 30
0
 11
208.809
 21
441.884
 31
0
 0
ARC
 8
TOOL_0
 5
49
 10
211.707
 20
441.108
 30
0
 40
3.000096665109
 50
75.004591342323
 51
165.00953278444
210
0
220
0
230
1.0
 0
LINE
 8
TOOL_0
 5
4A
 10
212.483
 20
444.005
 30
0
 11
243.877
 21
435.593
 31
0
 0
ARC
 8
TOOL_0
 5
4B
 10
243.101
 20
432.695
 30
0
 40
3.000096665109
 50
0
 51
75.00953278444
210
0
220
0
230
1.0
 0
LINE
 8
TOOL_0
 5
4C
 10
246.101
 20
432.695
 30
0
 11
246.101
 21
352.045
 31
0
 0
ARC
 8
TOOL_0
 5
4D
 10
265.501
 20
352.045
 30
0
 40
19.4
 50
180.0
 51
270.0
210
0
220
0
230
1.0
 0
ARC
 8
TOOL_0
 5
4E
 10
265.474
 20
322.013
 30
0
 40
10.63203428324
 50
9.83972311836
 51
89.854497486708
210
0
220
0
230
1.0
 0
ARC
 8
TOOL_0
 5
4F
 10
335.442
 20
329.806
 30
0
 40
59.791392691591
 50
185.736147090083
 51
222.017911442877
210
0
220
0
230
1.0
 0
ARC
 8
TOOL_0
 5
50
 10
646.695
 20
629.98
 30
0
 40
492.176099269357
 50
223.72579954476
 51
225.76737739596
210
0
220
0
230
1.0
 0
ARC
 8
TOOL_0
 5
51
 10
317.086
 20
291.045
 30
0
 40
19.400181854818
 50
224.991646627918
 51
270.0
210
0
220
0
230
1.0
 0
LINE
 8
TOOL_0
 5
52
 10
317.086
 20
271.645
 30
0
 11
470.402
 21
271.645
 31
0
 0
ARC
 8
TOOL_0
 5
53
 10
470.402
 20
286.645
 30
0
 40
15.0
 50
270.0
 51
0
210
0
220
0
230
1.0
 0
LINE
 8
TOOL_0
 5
54
 10
485.402
 20
286.645
 30
0
 11
485.402
 21
293.645
 31
0
 0
ARC
 8
TOOL_0
 5
55
 10
488.402
 20
293.645
 30
0
 40
3.0
 50
90.0
 51
180.0
210
0
220
0
230
1.0
 0
LINE
 8
TOOL_0
 5
56
 10
488.402
 20
296.645
 30
0
 11
553.802
 21
296.645
 31
0
 0
ARC
 8
TOOL_0
 5
57
 10
553.802
 20
293.645
 30
0
 40
3.0
 50
0
 51
90.0
210
0
220
0
230
1.0
 0
LINE
 8
TOOL_0
 5
58
 10
556.802
 20
293.645
 30
0
 11
556.802
 21
193.445
 31
0
 0
ARC
 8
TOOL_0
 5
59
 10
553.802
 20
193.445
 30
0
 40
3.0
 50
270.0
 51
0
210
0
220
0
230
1.0
 0
LINE
 8
TOOL_0
 5
5A
 10
553.802
 20
190.445
 30
0
 11
550.561
 21
186.628
 31
0
 0
LINE
 8
TOOL_0
 5
5B
 10
550.561
 20
186.628
 30
0
 11
705.9
 21
601.425
 31
0
 0
LINE
 8
TOOL_0
 5
5C
 10
705.9
 20
601.425
 30
0
 11
735.9
 21
601.425
 31
0
 0
LINE
 8
TOOL_0
 5
5D
 10
735.9
 20
601.425
 30
0
 11
735.9
 21
631.425
 31
0
 0
ARC
 8
TOOL_0
 5
5E
 10
725.9
 20
631.425
 30
0
 40
10.0
 50
0
 51
90.0
210
0
220
0
230
1.0
 0
LINE
 8
TOOL_0
 5
5F
 10
725.9
 20
641.425
 30
0
 11
679.9
 21
641.425
 31
0
 0
ARC
 8
TOOL_0
 5
60
 10
679.9
 20
631.425
 30
0
 40
10.0
 50
90.0
 51
180.0
210
0
220
0
230
1.0
 0
LINE
 8
TOOL_0
 5
61
 10
669.9
 20
631.425
 30
0
 11
669.9
 21
571.425
 31
0
 0
ARC
 8
TOOL_0
 5
62
 10
679.9
 20
571.425
 30
0
 40
10.0
 50
180.0
 51
270.0
210
0
220
0
230
1.0
 0
LINE
 8
TOOL_0
 5
63
 10
679.9
 20
561.425
 30
0
 11
725.9
 21
561.425
 31
0
 0
ARC
 8
TOOL_0
 5
64
 10
725.9
 20
571.425
 30
0
 40
10.0
 50
270.0
 51
0
210
0
220
0
230
1.0
 0
LINE
 8
TOOL_0
 5
65
 10
735.9
 20
571.425
 30
0
 11
735.9
 21
601.425
 31
0
 0
LINE
 8
TOOL_0
 5
66
 10
735.9
 20
601.425
 30
0
 11
732.364
 21
604.961
 31
0
 0
LINE
 8
TOOL_0
 5
67
 10
732.364
 20
604.961
 30
0
 11
705.899
 21
347.426
 31
0
 0
LINE
 8
TOOL_0
 5
68
 10
705.899
 20
347.426
 30
0
 11
735.899
 21
347.426
 31
0
 0
LINE
 8
TOOL_0
 5
69
 10
735.899
 20
347.426
 30
0
 11
735.899
 21
377.426
 31
0
 0
ARC
 8
TOOL_0
 5
6A
 10
725.899
 20
377.426
 30
0
 40
10.0
 50
0
 51
90.0
210
0
220
0
230
1.0
 0
LINE
 8
TOOL_0
 5
6B
 10
725.899
 20
387.426
 30
0
 11
679.899
 21
387.426
 31
0
 0
ARC
 8
TOOL_0
 5
6C
 10
679.899
 20
377.426
 30
0
 40
10.0
 50
90.0
 51
180.0
210
0
220
0
230
1.0
 0
LINE
 8
TOOL_0
 5
6D
 10
669.899
 20
377.426
 30
0
 11
669.899
 21
317.426
 31
0
 0
ARC
 8
TOOL_0
 5
6E
 10
679.899
 20
317.426
 30
0
 40
10.0
 50
180.0
 51
270.0
210
0
220
0
230
1.0
 0
LINE
 8
TOOL_0
 5
6F
 10
679.899
 20
307.426
 30
0
 11
725.899
 21
307.426
 31
0
 0
ARC
 8
TOOL_0
 5
70
 10
725.899
 20
317.426
 30
0
 40
10.0
 50
270.0
 51
0
210
0
220
0
230
1.0
 0
LINE
 8
TOOL_0
 5
71
 10
735.899
 20
317.426
 30
0
 11
735.899
 21
347.426
 31
0
 0
LINE
 8
TOOL_0
 5
72
 10
735.899
 20
347.426
 30
0
 11
732.363
 21
350.962
 31
0
 0
LINE
 8
TOOL_0
 5
73
 10
732.363
 20
350.962
 30
0
 11
785.617
 21
313.501
 31
0
 0
LINE
 8
TOOL_0
 5
74
 10
785.617
 20
313.501
 30
0
 11
771.698
 21
286.321
 31
0
 0
LINE
 8
TOOL_0
 5
75
 10
771.698
 20
286.321
 30
0
 11
762.382
 21
251.553
 31
0
 0
ARC
 8
TOOL_0
 5
76
 10
759.677
 20
252.278
 30
0
 40
2.800473174305
 50
255.015861915197
 51
344.996098263104
210
0
220
0
230
1.0
 0
LINE
 8
TOOL_0
 5
77
 10
758.953
 20
249.573
 30
0
 11
731.28
 21
256.988
 31
0
 0
ARC
 8
TOOL_0
 5
78
 10
732.056
 20
259.886
 30
0
 40
3.000096665109
 50
165.004591342323
 51
255.009532784441
210
0
220
0
230
1.0
 0
LINE
 8
TOOL_0
 5
79
 10
729.159
 20
260.662
 30
0
 11
729.651
 21
262.497
 31
0
 0
ARC
 8
TOOL_0
 5
7A
 10
726.753
 20
263.273
 30
0
 40
3.000096665109
 50
345.00953278444
 51
74.99108632334
210
0
220
0
230
1.0
 0
LINE
 8
TOOL_0
 5
7B
 10
727.53
 20
266.171
 30
0
 11
675.756
 21
280.044
 31
0
 0
ARC
 8
TOOL_0
 5
7C
 10
674.98
 20
277.146
 30
0
 40
3.000096665109
 50
75.009532784441
 51
164.99108632334
210
0
220
0
230
1.0
 0
LINE
 8
TOOL_0
 5
7D
 10
672.082
 20
277.923
 30
0
 11
671.59
 21
276.088
 31
0
 0
ARC
 8
TOOL_0
 5
7E
 10
668.692
 20
276.864
 30
0
 40
3.000096665109
 50
255.004591342324
 51
345.00953278444
210
0
220
0
230
1.0
 0
LINE
 8
TOOL_0
 5
7F
 10
667.916
 20
273.967
 30
0
 11
636.522
 21
282.379
 31
0
 0
ARC
 8
TOOL_0
 5
80
 10
637.298
 20
285.277
 30
0
 40
3.000096665109
 50
180.0
 51
255.009532784441
210
0
220
0
230
1.0
 0
LINE
 8
TOOL_0
 5
81
 10
634.298
 20
285.277
 30
0
 11
634.298
 21
365.927
 31
0
 0
ARC
 8
TOOL_0
 5
82
 10
614.898
 20
365.927
 30
0
 40
19.4
 50
0
 51
90.0
210
0
220
0
230
1.0
 0
ARC
 8
TOOL_0
 5
83
 10
614.925
 20
395.959
 30
0
 40
10.63203428324
 50
189.83972311836
 51
269.854497486707
210
0
220
0
230
1.0
 0
ARC
 8
TOOL_0
 5
84
 10
544.957
 20
388.166
 30
0
 40
59.791392691591
 50
5.736147090083
 51
42.017911442877
210
0
220
0
230
1.0
 0
ARC
 8
TOOL_0
 5
85
 10
233.704
 20
87.992
 30
0
 40
492.176099269357
 50
43.72579954476
 51
45.767625426121
210
0
220
0
230
1.0
 0
ARC
 8
TOOL_0
 5
86
 10
563.313
 20
426.926
 30
0
 40
19.400181648634
 50
45.0
 51
90.0
210
0
220
0
230
1.0
 0
LINE
 8
TOOL_0
 5
87
 10
563.313
 20
446.326
 30
0
 11
409.997
 21
446.326
 31
0
 0
ARC
 8
TOOL_0
 5
88
 10
409.997
 20
431.326
 30
0
 40
15.0
 50
90.0
 51
180.0
210
0
220
0
230
1.0
 0
LINE
 8
TOOL_0
 5
89
 10
394.997
 20
431.326
 30
0
 11
394.997
 21
424.326
 31
0
 0
ARC
 8
TOOL_0
 5
8A
 10
391.997
 20
424.326
 30
0
 40
3.0
 50
270.0
 51
0
210
0
220
0
230
1.0
 0
LINE
 8
TOOL_0
 5
8B
 10
391.997
 20
421.326
 30
0
 11
326.597
 21
421.326
 31
0
 0
ARC
 8
TOOL_0
 5
8C
 10
326.597
 20
424.326
 30
0
 40
3.0
 50
180.0
 51
270.0
210
0
220
0
230
1.0
 0
LINE
 8
TOOL_0
 5
8D
 10
323.597
 20
424.326
 30
0
 11
323.597
 21
524.526
 31
0
 0
ARC
 8
TOOL_0
 5
8E
 10
326.597
 20
524.526
 30
0
 40
3.0
 50
90.0
 51
180.0
210
0
220
0
230
1.0
 0
LINE
 8
TOOL_0
 5
8F
 10
326.597
 20
527.526
 30
0
 11
391.997
 21
527.526
 31
0
 0
ARC
 8
TOOL_0
 5
90
 10
391.997
 20
524.526
 30
0
 40
3.0
 50
0
 51
90.0
210
0
220
0
230
1.0
 0
LINE
 8
TOOL_0
 5
91
 10
394.997
 20
524.526
 30
0
 11
394.997
 21
517.526
 31
0
 0
ARC
 8
TOOL_0
 5
92
 10
409.997
 20
517.526
 30
0
 40
15.0
 50
180.0
 51
270.0
210
0
220
0
230
1.0
 0
LINE
 8
TOOL_0
 5
93
 10
409.997
 20
502.526
 30
0
 11
563.313
 21
502.526
 31
0
 0
ARC
 8
TOOL_0
 5
94
 10
563.313
 20
521.926
 30
0
 40
19.4
 50
270.0
 51
315.0
210
0
220
0
230
1.0
 0
LINE
 8
TOOL_0
 5
95
 10
577.031
 20
508.208
 30
0
 11
587.309
 21
518.486
 31
0
 0
ARC
 8
TOOL_0
 5
96
 10
545.158
 20
560.559
 30
0
 40
59.555387077913
 50
315.053061710728
 51
353.744801319129
210
0
220
0
230
1.0
 0
ARC
 8
TOOL_0
 5
97
 10
614.897
 20
552.925
 30
0
 40
10.600022122618
 50
90.0
 51
173.798888446261
210
0
220
0
230
1.0
 0
ARC
 8
TOOL_0
 5
98
 10
614.897
 20
582.925
 30
0
 40
19.4
 50
270.0
 51
0
210
0
220
0
230
1.0
 0
LINE
 8
TOOL_0
 5
99
 10
634.297
 20
582.925
 30
0
 11
634.297
 21
663.575
 31
0
 0
ARC
 8
TOOL_0
 5
9A
 10
637.297
 20
663.575
 30
0
 40
3.0
 50
104.990467215559
 51
180.0
210
0
220
0
230
1.0
 0
LINE
 8
TOOL_0
 5
9B
 10
636.521
 20
666.473
 30
0
 11
667.915
 21
674.885
 31
0
 0
ARC
 8
TOOL_0
 5
9C
 10
668.691
 20
671.987
 30
0
 40
3.000096665109
 50
15.008913676659
 51
104.990467215559
210
0
220
0
230
1.0
 0
LINE
 8
TOOL_0
 5
9D
 10
671.589
 20
672.764
 30
0
 11
672.081
 21
670.929
 31
0
 0
ARC
 8
TOOL_0
 5
9E
 10
674.979
 20
671.705
 30
0
 40
3.000096665109
 50
194.990467215559
 51
284.995408657676
210
0
220
0
230
1.0
 0
LINE
 8
TOOL_0
 5
9F
 10
675.755
 20
668.808
 30
0
 11
727.529
 21
682.681
 31
0
 0
ARC
 8
TOOL_0
 5
A0
 10
726.753
 20
685.579
 30
0
 40
3.000096665109
 50
284.990467215559
 51
14.995408657676
210
0
220
0
230
1.0
 0
LINE
 8
TOOL_0
 5
A1
 10
729.65
 20
686.355
 30
0
 11
729.158
 21
688.19
 31
0
 0
ARC
 8
TOOL_0
 5
A2
 10
732.056
 20
688.966
 30
0
 40
3.000096665109
 50
105.008913676659
 51
194.990467215559
210
0
220
0
230
1.0
 0
LINE
 8
TOOL_0
 5
A3
 10
731.279
 20
691.864
 30
0
 11
758.952
 21
699.279
 31
0
 0
ARC
 8
TOOL_0
 5
A4
 10
759.677
 20
696.574
 30
0
 40
2.800473174305
 50
15.00920017203
 51
105.003901736897
210
0
220
0
230
1.0
 0
LINE
 8
TOOL_0
 5
A5
 10
762.381
 20
697.299
 30
0
 11
771.697
 21
662.531
 31
0
 0
LINE
 8
TOOL_0
 5
A6
 10
771.697
 20
662.531
 30
0
 11
771.697
 21
566.426
 31
0
 0
ARC
 8
TOOL_0
 5
A7
 10
790.897
 20
566.426
 30
0
 40
19.2
 50
180.0
 51
235.608896625223
210
0
220
0
230
1.0
 0
LINE
 8
TOOL_0
 5
A8
 10
780.052
 20
550.582
 30
0
 11
795.029
 21
540.33
 31
0
 0
ARC
 8
TOOL_0
 5
A9
 10
811.523
 20
564.425
 30
0
 40
29.199675700254
 50
235.606785125802
 51
267.976512547702
210
0
220
0
230
1.0
 0
ARC
 8
TOOL_0
 5
AA
 10
811.445
 20
484.344
 30
0
 40
50.908920721225
 50
34.740495244392
 51
91.072622767533
210
0
220
0
230
1.0
 0
ARC
 8
TOOL_0
 5
AB
 10
711.093
 20
421.135
 30
0
 40
169.473853428781
 50
28.555767746478
 51
32.966920169159
210
0
220
0
230
1.0
 0
ARC
 8
TOOL_0
 5
AC
 10
850.334
 20
496.675
 30
0
 40
11.064290759014
 50
0.367673943054
 51
29.635046803759
210
0
220
0
230
1.0
 0
LINE
 8
TOOL_0
 5
AD
 10
861.398
 20
496.746
 30
0
 11
861.398
 21
452.105
 31
0
 0
ARC
 8
TOOL_0
 5
AE
 10
850.334
 20
452.176
 30
0
 40
11.064227808573
 50
330.364953196241
 51
359.632326056946
210
0
220
0
230
1.0
 0
LINE
 8
TOOL_0
 5
AF
 10
859.951
 20
446.705
 30
0
 11
855.517
 21
439.026
 31
0
 0
ARC
 8
TOOL_0
 5
B0
 10
811.484
 20
464.491
 30
0
 40
50.866209943341
 50
271.619977476978
 51
329.958506845517
210
0
220
0
230
1.0
 0
ARC
 8
TOOL_0
 5
B1
 10
811.741
 20
383.962
 30
0
 40
29.706484982239
 50
87.721569789111
 51
124.234650182548
210
0
220
0
230
1.0
 0
LINE
 8
TOOL_0
 5
B2
 10
795.029
 20
408.521
 30
0
 11
780.052
 21
398.269
 31
0
 0
ARC
 8
TOOL_0
 5
B3
 10
790.897
 20
382.425
 30
0
 40
19.200165650327
 50
124.391103374777
 51
180.0
210
0
220
0
230
1.0
 0
LINE
 8
TOOL_0
 5
B4
 10
771.697
 20
382.425
 30
0
 11
771.697
 21
286.32
 31
0
 0
LINE
 8
TOOL_0
 5
B5
 10
771.697
 20
286.32
 30
0
 11
772.029
 21
281.286
 31
0
 0
LINE
 8
TOOL_0
 5
B6
 10
772.029
 20
281.286
 30
0
 11
946.727
 21
370.546
 31
0
 0
LINE
 8
TOOL_0
 5
B7
 10
946.727
 20
370.546
 30
0
 11
976.727
 21
370.546
 31
0
 0
LINE
 8
TOOL_0
 5
B8
 10
976.727
 20
370.546
 30
0
 11
976.727
 21
400.546
 31
0
 0
ARC
 8
TOOL_0
 5
B9
 10
966.727
 20
400.546
 30
0
 40
10.0
 50
0
 51
90.0
210
0
220
0
230
1.0
 0
LINE
 8
TOOL_0
 5
BA
 10
966.727
 20
410.546
 30
0
 11
920.727
 21
410.546
 31
0
 0
ARC
 8
TOOL_0
 5
BB
 10
920.727
 20
400.546
 30
0
 40
10.0
 50
90.0
 51
180.0
210
0
220
0
230
1.0
 0
LINE
 8
TOOL_0
 5
BC
 10
910.727
 20
400.546
 30
0
 11
910.727
 21
340.546
 31
0
 0
ARC
 8
TOOL_0
 5
BD
 10
920.727
 20
340.546
 30
0
 40
10.0
 50
180.0
 51
270.0
210
0
220
0
230
1.0
 0
LINE
 8
TOOL_0
 5
BE
 10
920.727
 20
330.546
 30
0
 11
966.727
 21
330.546
 31
0
 0
ARC
 8
TOOL_0
 5
BF
 10
966.727
 20
340.546
 30
0
 40
10.0
 50
270.0
 51
0
210
0
220
0
230
1.0
 0
LINE
 8
TOOL_0
 5
C0
 10
976.727
 20
340.546
 30
0
 11
976.727
 21
370.546
 31
0
 0
LINE
 8
TOOL_0
 5
C1
 10
976.727
 20
370.546
 30
0
 11
973.191
 21
374.082
 31
0
 0
LINE
 8
TOOL_0
 5
C2
 10
973.191
 20
374.082
 30
0
 11
946.727
 21
116.546
 31
0
 0
LINE
 8
TOOL_0
 5
C3
 10
946.727
 20
116.546
 30
0
 11
976.727
 21
116.546
 31
0
 0
LINE
 8
TOOL_0
 5
C4
 10
976.727
 20
116.546
 30
0
 11
976.727
 21
146.546
 31
0
 0
ARC
 8
TOOL_0
 5
C5
 10
966.727
 20
146.546
 30
0
 40
10.0
 50
0
 51
90.0
210
0
220
0
230
1.0
 0
LINE
 8
TOOL_0
 5
C6
 10
966.727
 20
156.546
 30
0
 11
920.727
 21
156.546
 31
0
 0
ARC
 8
TOOL_0
 5
C7
 10
920.727
 20
146.546
 30
0
 40
10.0
 50
90.0
 51
180.0
210
0
220
0
230
1.0
 0
LINE
 8
TOOL_0
 5
C8
 10
910.727
 20
146.546
 30
0
 11
910.727
 21
86.546
 31
0
 0
ARC
 8
TOOL_0
 5
C9
 10
920.727
 20
86.546
 30
0
 40
10.0
 50
180.0
 51
270.0
210
0
220
0
230
1.0
 0
LINE
 8
TOOL_0
 5
CA
 10
920.727
 20
76.546
 30
0
 11
966.727
 21
76.546
 31
0
 0
ARC
 8
TOOL_0
 5
CB
 10
966.727
 20
86.546
 30
0
 40
10.0
 50
270.0
 51
0
210
0
220
0
230
1.0
 0
LINE
 8
TOOL_0
 5
CC
 10
976.727
 20
86.546
 30
0
 11
976.727
 21
116.546
 31
0
 0
LINE
 8
TOOL_0
 5
CD
 10
976.727
 20
116.546
 30
0
 11
973.191
 21
120.082
 31
0
 0
LINE
 8
TOOL_0
 5
CE
 10
973.191
 20
120.082
 30
0
 11
1349.178
 21
190.446
 31
0
 0
LINE
 8
TOOL_0
 5
CF
 10
1349.178
 20
190.446
 30
0
 11
1320.027
 21
190.446
 31
0
 0
LINE
 8
TOOL_0
 5
D0
 10
1320.027
 20
190.446
 30
0
 11
1254.627
 21
190.446
 31
0
 0
ARC
 8
TOOL_0
 5
D1
 10
1254.627
 20
193.446
 30
0
 40
3.0
 50
180.0
 51
270.0
210
0
220
0
230
1.0
 0
LINE
 8
TOOL_0
 5
D2
 10
1251.627
 20
193.446
 30
0
 11
1251.627
 21
200.446
 31
0
 0
ARC
 8
TOOL_0
 5
D3
 10
1236.627
 20
200.446
 30
0
 40
15.0
 50
0
 51
90.0
210
0
220
0
230
1.0
 0
LINE
 8
TOOL_0
 5
D4
 10
1236.627
 20
215.446
 30
0
 11
1083.311
 21
215.446
 31
0
 0
ARC
 8
TOOL_0
 5
D5
 10
1083.311
 20
196.046
 30
0
 40
19.4
 50
90.0
 51
135.0
210
0
220
0
230
1.0
 0
LINE
 8
TOOL_0
 5
D6
 10
1069.593
 20
209.764
 30
0
 11
1059.315
 21
199.486
 31
0
 0
ARC
 8
TOOL_0
 5
D7
 10
1101.466
 20
157.413
 30
0
 40
59.555387077913
 50
135.053061710728
 51
173.745757649056
210
0
220
0
230
1.0
 0
ARC
 8
TOOL_0
 5
D8
 10
1031.727
 20
165.046
 30
0
 40
10.600022122618
 50
270.0
 51
353.798888446261
210
0
220
0
230
1.0
 0
ARC
 8
TOOL_0
 5
D9
 10
1031.727
 20
135.046
 30
0
 40
19.4
 50
90.0
 51
180.0
210
0
220
0
230
1.0
 0
LINE
 8
TOOL_0
 5
DA
 10
1012.327
 20
135.046
 30
0
 11
1012.327
 21
54.396
 31
0
 0
ARC
 8
TOOL_0
 5
DB
 10
1009.327
 20
54.396
 30
0
 40
3.0
 50
284.990467215559
 51
0
210
0
220
0
230
1.0
 0
LINE
 8
TOOL_0
 5
DC
 10
1010.103
 20
51.498
 30
0
 11
978.709
 21
43.086
 31
0
 0
ARC
 8
TOOL_0
 5
DD
 10
977.933
 20
45.984
 30
0
 40
3.000096665109
 50
195.008913676658
 51
284.990467215559
210
0
220
0
230
1.0
 0
LINE
 8
TOOL_0
 5
DE
 10
975.035
 20
45.207
 30
0
 11
974.543
 21
47.042
 31
0
 0
ARC
 8
TOOL_0
 5
DF
 10
971.645
 20
46.266
 30
0
 40
3.000096665109
 50
14.99046721556
 51
104.995408657676
210
0
220
0
230
1.0
 0
LINE
 8
TOOL_0
 5
E0
 10
970.869
 20
49.163
 30
0
 11
919.095
 21
35.29
 31
0
 0
ARC
 8
TOOL_0
 5
E1
 10
919.871
 20
32.392
 30
0
 40
3.000096665109
 50
104.990467215559
 51
194.995408657677
210
0
220
0
230
1.0
 0
LINE
 8
TOOL_0
 5
E2
 10
916.974
 20
31.616
 30
0
 11
917.466
 21
29.781
 31
0
 0
ARC
 8
TOOL_0
 5
E3
 10
914.568
 20
29.005
 30
0
 40
3.000096665109
 50
285.00891367666
 51
14.99046721556
210
0
220
0
230
1.0
 0
LINE
 8
TOOL_0
 5
E4
 10
915.345
 20
26.107
 30
0
 11
887.672
 21
18.692
 31
0
 0
ARC
 8
TOOL_0
 5
E5
 10
886.947
 20
21.397
 30
0
 40
2.800473174305
 50
195.00920017203
 51
285.003901736897
210
0
220
0
230
1.0
 0
LINE
 8
TOOL_0
 5
E6
 10
884.243
 20
20.672
 30
0
 11
874.927
 21
55.44
 31
0
 0
LINE
 8
TOOL_0
 5
E7
 10
874.927
 20
55.44
 30
0
 11
874.927
 21
151.545
 31
0
 0
ARC
 8
TOOL_0
 5
E8
 10
855.727
 20
151.545
 30
0
 40
19.2
 50
0
 51
55.608896625223
210
0
220
0
230
1.0
 0
LINE
 8
TOOL_0
 5
E9
 10
866.572
 20
167.389
 30
0
 11
851.595
 21
177.641
 31
0
 0
ARC
 8
TOOL_0
 5
EA
 10
835.101
 20
153.546
 30
0
 40
29.199675700254
 50
55.606785125803
 51
87.976512547702
210
0
220
0
230
1.0
 0
ARC
 8
TOOL_0
 5
EB
 10
835.179
 20
233.627
 30
0
 40
50.908920721225
 50
214.740495244391
 51
271.072622767533
210
0
220
0
230
1.0
 0
ARC
 8
TOOL_0
 5
EC
 10
935.531
 20
296.836
 30
0
 40
169.473853428781
 50
208.555470792514
 51
212.966920169158
210
0
220
0
230
1.0
 0
ARC
 8
TOOL_0
 5
ED
 10
796.29
 20
221.296
 30
0
 40
11.063796319528
 50
180.367707176702
 51
209.630545539638
210
0
220
0
230
1.0
 0
LINE
 8
TOOL_0
 5
EE
 10
785.227
 20
221.225
 30
0
 11
785.227
 21
265.866
 31
0
 0
ARC
 8
TOOL_0
 5
EF
 10
796.291
 20
265.795
 30
0
 40
11.064227808573
 50
150.36495319624
 51
179.632326056946
210
0
220
0
230
1.0
 0
LINE
 8
TOOL_0
 5
F0
 10
786.674
 20
271.266
 30
0
 11
791.108
 21
278.945
 31
0
 0
ARC
 8
TOOL_0
 5
F1
 10
835.141
 20
253.48
 30
0
 40
50.866209943341
 50
91.62110342507
 51
149.958506845517
210
0
220
0
230
1.0
 0
ARC
 8
TOOL_0
 5
F2
 10
834.883
 20
334.009
 30
0
 40
29.706484982239
 50
267.721569789111
 51
304.236244747272
210
0
220
0
230
1.0
 0
LINE
 8
TOOL_0
 5
F3
 10
851.596
 20
309.45
 30
0
 11
866.573
 21
319.702
 31
0
 0
ARC
 8
TOOL_0
 5
F4
 10
855.728
 20
335.546
 30
0
 40
19.200165650327
 50
304.391103374777
 51
359.99701584482
210
0
220
0
230
1.0
 0
LINE
 8
TOOL_0
 5
F5
 10
874.928
 20
335.545
 30
0
 11
874.928
 21
431.65
 31
0
 0
LINE
 8
TOOL_0
 5
F6
 10
874.928
 20
431.65
 30
0
 11
884.244
 21
466.418
 31
0
 0
ARC
 8
TOOL_0
 5
F7
 10
886.949
 20
465.693
 30
0
 40
2.800473174305
 50
75.015861915197
 51
164.996098263103
210
0
220
0
230
1.0
 0
LINE
 8
TOOL_0
 5
F8
 10
887.673
 20
468.398
 30
0
 11
915.346
 21
460.983
 31
0
 0
ARC
 8
TOOL_0
 5
F9
 10
914.57
 20
458.085
 30
0
 40
3.000096665109
 50
345.004591342324
 51
75.009532784441
210
0
220
0
230
1.0
 0
LINE
 8
TOOL_0
 5
FA
 10
917.467
 20
457.309
 30
0
 11
916.975
 21
455.474
 31
0
 0
ARC
 8
TOOL_0
 5
FB
 10
919.873
 20
454.698
 30
0
 40
3.000096665109
 50
165.00953278444
 51
254.99108632334
210
0
220
0
230
1.0
 0
LINE
 8
TOOL_0
 5
FC
 10
919.096
 20
451.8
 30
0
 11
970.87
 21
437.927
 31
0
 0
ARC
 8
TOOL_0
 5
FD
 10
971.646
 20
440.825
 30
0
 40
3.000096665109
 50
255.009532784441
 51
344.991086323341
210
0
220
0
230
1.0
 0
LINE
 8
TOOL_0
 5
FE
 10
974.544
 20
440.048
 30
0
 11
975.036
 21
441.883
 31
0
 0
ARC
 8
TOOL_0
 5
FF
 10
977.934
 20
441.107
 30
0
 40
3.000096665109
 50
75.004591342324
 51
165.00953278444
210
0
220
0
230
1.0
 0
LINE
 8
TOOL_0
 5
100
 10
978.71
 20
444.004
 30
0
 11
1010.104
 21
435.592
 31
0
 0
ARC
 8
TOOL_0
 5
101
 10
1009.328
 20
432.694
 30
0
 40
3.000096665109
 50
0
 51
75.009532784441
210
0
220
0
230
1.0
 0
LINE
 8
TOOL_0
 5
102
 10
1012.328
 20
432.694
 30
0
 11
1012.328
 21
352.044
 31
0
 0
ARC
 8
TOOL_0
 5
103
 10
1031.728
 20
352.044
 30
0
 40
19.4
 50
180.0
 51
270.0
210
0
220
0
230
1.0
 0
ARC
 8
TOOL_0
 5
104
 10
1031.701
 20
322.012
 30
0
 40
10.63203428324
 50
9.83972311836
 51
89.854497486708
210
0
220
0
230
1.0
 0
ARC
 8
TOOL_0
 5
105
 10
1101.669
 20
329.805
 30
0
 40
59.791392691591
 50
185.736147090083
 51
222.017911442877
210
0
220
0
230
1.0
 0
ARC
 8
TOOL_0
 5
106
 10
1412.922
 20
629.979
 30
0
 40
492.176099269357
 50
223.72579954476
 51
225.76737739596
210
0
220
0
230
1.0
 0
ARC
 8
TOOL_0
 5
107
 10
1083.313
 20
291.044
 30
0
 40
19.400181854818
 50
224.991646627918
 51
270.0
210
0
220
0
230
1.0
 0
LINE
 8
TOOL_0
 5
108
 10
1083.313
 20
271.644
 30
0
 11
1236.629
 21
271.644
 31
0
 0
ARC
 8
TOOL_0
 5
109
 10
1236.629
 20
286.644
 30
0
 40
15.0
 50
270.0
 51
0
210
0
220
0
230
1.0
 0
LINE
 8
TOOL_0
 5
10A
 10
1251.629
 20
286.644
 30
0
 11
1251.629
 21
293.644
 31
0
 0
ARC
 8
TOOL_0
 5
10B
 10
1254.629
 20
293.644
 30
0
 40
3.0
 50
90.0
 51
180.0
210
0
220
0
230
1.0
 0
LINE
 8
TOOL_0
 5
10C
 10
1254.629
 20
296.644
 30
0
 11
1320.029
 21
296.644
 31
0
 0
ARC
 8
TOOL_0
 5
10D
 10
1320.029
 20
293.644
 30
0
 40
3.0
 50
0
 51
90.0
210
0
220
0
230
1.0
 0
LINE
 8
TOOL_0
 5
10E
 10
1323.029
 20
293.644
 30
0
 11
1323.029
 21
193.444
 31
0
 0
ARC
 8
TOOL_0
 5
10F
 10
1320.029
 20
193.444
 30
0
 40
3.0
 50
270.0
 51
0
210
0
220
0
230
1.0
 0
LINE
 8
TOOL_0
 5
110
 10
1320.029
 20
190.444
 30
0
 11
1316.788
 21
186.627
 31
0
 0
LINE
 8
TOOL_0
 5
111
 10
1316.788
 20
186.627
 30
0
 11
1316.788
 21
-0.003
 31
0
 0
LINE
 8
TOOL_0
 5
112
 10
1316.788
 20
-0.003
 30
0
 11
709.869
 21
2476.826
 31
0
 0
LINE
 8
TOOL_0
 5
113
 10
709.869
 20
2476.826
 30
0
 11
739.869
 21
2476.826
 31
0
 0
LINE
 8
TOOL_0
 5
114
 10
739.869
 20
2476.826
 30
0
 11
739.869
 21
2506.826
 31
0
 0
ARC
 8
TOOL_0
 5
115
 10
729.869
 20
2506.826
 30
0
 40
10.0
 50
0
 51
90.0
210
0
220
0
230
1.0
 0
LINE
 8
TOOL_0
 5
116
 10
729.869
 20
2516.826
 30
0
 11
683.869
 21
2516.826
 31
0
 0
ARC
 8
TOOL_0
 5
117
 10
683.869
 20
2506.826
 30
0
 40
10.0
 50
90.0
 51
180.0
210
0
220
0
230
1.0
 0
LINE
 8
TOOL_0
 5
118
 10
673.869
 20
2506.826
 30
0
 11
673.869
 21
2446.826
 31
0
 0
ARC
 8
TOOL_0
 5
119
 10
683.869
 20
2446.826
 30
0
 40
10.0
 50
180.0
 51
270.0
210
0
220
0
230
1.0
 0
LINE
 8
TOOL_0
 5
11A
 10
683.869
 20
2436.826
 30
0
 11
729.869
 21
2436.826
 31
0
 0
ARC
 8
TOOL_0
 5
11B
 10
729.869
 20
2446.826
 30
0
 40
10.0
 50
270.0
 51
0
210
0
220
0
230
1.0
 0
LINE
 8
TOOL_0
 5
11C
 10
739.869
 20
2446.826
 30
0
 11
739.869
 21
2476.826
 31
0
 0
LINE
 8
TOOL_0
 5
11D
 10
739.869
 20
2476.826
 30
0
 11
736.333
 21
2480.362
 31
0
 0
LINE
 8
TOOL_0
 5
11E
 10
736.333
 20
2480.362
 30
0
 11
709.869
 21
2222.827
 31
0
 0
LINE
 8
TOOL_0
 5
11F
 10
709.869
 20
2222.827
 30
0
 11
739.869
 21
2222.827
 31
0
 0
LINE
 8
TOOL_0
 5
120
 10
739.869
 20
2222.827
 30
0
 11
739.869
 21
2252.827
 31
0
 0
ARC
 8
TOOL_0
 5
121
 10
729.869
 20
2252.827
 30
0
 40
10.0
 50
0
 51
90.0
210
0
220
0
230
1.0
 0
LINE
 8
TOOL_0
 5
122
 10
729.869
 20
2262.827
 30
0
 11
683.869
 21
2262.827
 31
0
 0
ARC
 8
TOOL_0
 5
123
 10
683.869
 20
2252.827
 30
0
 40
10.0
 50
90.0
 51
180.0
210
0
220
0
230
1.0
 0
LINE
 8
TOOL_0
 5
124
 10
673.869
 20
2252.827
 30
0
 11
673.869
 21
2192.827
 31
0
 0
ARC
 8
TOOL_0
 5
125
 10
683.869
 20
2192.827
 30
0
 40
10.0
 50
180.0
 51
270.0
210
0
220
0
230
1.0
 0
LINE
 8
TOOL_0
 5
126
 10
683.869
 20
2182.827
 30
0
 11
729.869
 21
2182.827
 31
0
 0
ARC
 8
TOOL_0
 5
127
 10
729.869
 20
2192.827
 30
0
 40
10.0
 50
270.0
 51
0
210
0
220
0
230
1.0
 0
LINE
 8
TOOL_0
 5
128
 10
739.869
 20
2192.827
 30
0
 11
739.869
 21
2222.827
 31
0
 0
LINE
 8
TOOL_0
 5
129
 10
739.869
 20
2222.827
 30
0
 11
736.333
 21
2226.363
 31
0
 0
LINE
 8
TOOL_0
 5
12A
 10
736.333
 20
2226.363
 30
0
 11
789.587
 21
2188.902
 31
0
 0
LINE
 8
TOOL_0
 5
12B
 10
789.587
 20
2188.902
 30
0
 11
775.669
 21
2161.722
 31
0
 0
LINE
 8
TOOL_0
 5
12C
 10
775.669
 20
2161.722
 30
0
 11
766.353
 21
2126.954
 31
0
 0
ARC
 8
TOOL_0
 5
12D
 10
763.648
 20
2127.679
 30
0
 40
2.800473174305
 50
255.015861915197
 51
344.996098263105
210
0
220
0
230
1.0
 0
LINE
 8
TOOL_0
 5
12E
 10
762.924
 20
2124.974
 30
0
 11
735.251
 21
2132.389
 31
0
 0
ARC
 8
TOOL_0
 5
12F
 10
736.027
 20
2135.287
 30
0
 40
3.000096665109
 50
165.004591342326
 51
255.009532784442
210
0
220
0
230
1.0
 0
LINE
 8
TOOL_0
 5
130
 10
733.13
 20
2136.063
 30
0
 11
733.622
 21
2137.898
 31
0
 0
ARC
 8
TOOL_0
 5
131
 10
730.724
 20
2138.674
 30
0
 40
3.000096665109
 50
345.009532784443
 51
74.991086323341
210
0
220
0
230
1.0
 0
LINE
 8
TOOL_0
 5
132
 10
731.501
 20
2141.572
 30
0
 11
679.727
 21
2155.445
 31
0
 0
ARC
 8
TOOL_0
 5
133
 10
678.951
 20
2152.547
 30
0
 40
3.000096665109
 50
75.009532784442
 51
164.99108632334
210
0
220
0
230
1.0
 0
LINE
 8
TOOL_0
 5
134
 10
676.053
 20
2153.324
 30
0
 11
675.561
 21
2151.489
 31
0
 0
ARC
 8
TOOL_0
 5
135
 10
672.663
 20
2152.265
 30
0
 40
3.000096665109
 50
255.004591342323
 51
345.009532784443
210
0
220
0
230
1.0
 0
LINE
 8
TOOL_0
 5
136
 10
671.887
 20
2149.368
 30
0
 11
640.493
 21
2157.78
 31
0
 0
ARC
 8
TOOL_0
 5
137
 10
641.269
 20
2160.678
 30
0
 40
3.000096665109
 50
180.0
 51
255.009532784442
210
0
220
0
230
1.0
 0
LINE
 8
TOOL_0
 5
138
 10
638.269
 20
2160.678
 30
0
 11
638.269
 21
2241.328
 31
0
 0
ARC
 8
TOOL_0
 5
139
 10
618.869
 20
2241.328
 30
0
 40
19.4
 50
0
 51
90.0
210
0
220
0
230
1.0
 0
ARC
 8
TOOL_0
 5
13A
 10
618.896
 20
2271.36
 30
0
 40
10.632034283241
 50
189.83972311836
 51
269.854497486707
210
0
220
0
230
1.0
 0
ARC
 8
TOOL_0
 5
13B
 10
548.928
 20
2263.567
 30
0
 40
59.791392691591
 50
5.736147090083
 51
42.017911442877
210
0
220
0
230
1.0
 0
ARC
 8
TOOL_0
 5
13C
 10
237.675
 20
1963.393
 30
0
 40
492.176099269357
 50
43.72579954476
 51
45.767625426121
210
0
220
0
230
1.0
 0
ARC
 8
TOOL_0
 5
13D
 10
567.284
 20
2302.327
 30
0
 40
19.400181648634
 50
45.0
 51
90.0
210
0
220
0
230
1.0
 0
LINE
 8
TOOL_0
 5
13E
 10
567.284
 20
2321.727
 30
0
 11
413.968
 21
2321.727
 31
0
 0
ARC
 8
TOOL_0
 5
13F
 10
413.968
 20
2306.727
 30
0
 40
15.0
 50
90.0
 51
180.0
210
0
220
0
230
1.0
 0
LINE
 8
TOOL_0
 5
140
 10
398.968
 20
2306.727
 30
0
 11
398.968
 21
2299.727
 31
0
 0
ARC
 8
TOOL_0
 5
141
 10
395.968
 20
2299.727
 30
0
 40
3.0
 50
270.0
 51
0
210
0
220
0
230
1.0
 0
LINE
 8
TOOL_0
 5
142
 10
395.968
 20
2296.727
 30
0
 11
330.568
 21
2296.727
 31
0
 0
ARC
 8
TOOL_0
 5
143
 10
330.568
 20
2299.727
 30
0
 40
3.0
 50
180.0
 51
270.0
210
0
220
0
230
1.0
 0
LINE
 8
TOOL_0
 5
144
 10
327.568
 20
2299.727
 30
0
 11
327.568
 21
2399.927
 31
0
 0
ARC
 8
TOOL_0
 5
145
 10
330.568
 20
2399.927
 30
0
 40
3.0
 50
90.0
 51
180.0
210
0
220
0
230
1.0
 0
LINE
 8
TOOL_0
 5
146
 10
330.568
 20
2402.927
 30
0
 11
395.968
 21
2402.927
 31
0
 0
ARC
 8
TOOL_0
 5
147
 10
395.968
 20
2399.927
 30
0
 40
3.0
 50
0
 51
90.0
210
0
220
0
230
1.0
 0
LINE
 8
TOOL_0
 5
148
 10
398.968
 20
2399.927
 30
0
 11
398.968
 21
2392.927
 31
0
 0
ARC
 8
TOOL_0
 5
149
 10
413.968
 20
2392.927
 30
0
 40
15.0
 50
180.0
 51
270.0
210
0
220
0
230
1.0
 0
LINE
 8
TOOL_0
 5
14A
 10
413.968
 20
2377.927
 30
0
 11
567.284
 21
2377.927
 31
0
 0
ARC
 8
TOOL_0
 5
14B
 10
567.284
 20
2397.327
 30
0
 40
19.4
 50
270.0
 51
314.999999999999
210
0
220
0
230
1.0
 0
LINE
 8
TOOL_0
 5
14C
 10
581.002
 20
2383.609
 30
0
 11
591.28
 21
2393.887
 31
0
 0
ARC
 8
TOOL_0
 5
14D
 10
549.129
 20
2435.96
 30
0
 40
59.555387077913
 50
315.053061710728
 51
353.744801319129
210
0
220
0
230
1.0
 0
ARC
 8
TOOL_0
 5
14E
 10
618.868
 20
2428.326
 30
0
 40
10.600022122618
 50
90.0
 51
173.798888446261
210
0
220
0
230
1.0
 0
ARC
 8
TOOL_0
 5
14F
 10
618.868
 20
2458.326
 30
0
 40
19.4
 50
270.0
 51
0
210
0
220
0
230
1.0
 0
LINE
 8
TOOL_0
 5
150
 10
638.268
 20
2458.326
 30
0
 11
638.268
 21
2538.976
 31
0
 0
ARC
 8
TOOL_0
 5
151
 10
641.268
 20
2538.976
 30
0
 40
3.0
 50
104.990467215558
 51
180.0
210
0
220
0
230
1.0
 0
LINE
 8
TOOL_0
 5
152
 10
640.492
 20
2541.874
 30
0
 11
671.886
 21
2550.286
 31
0
 0
ARC
 8
TOOL_0
 5
153
 10
672.662
 20
2547.388
 30
0
 40
3.000096665109
 50
15.008913676659
 51
104.990467215558
210
0
220
0
230
1.0
 0
LINE
 8
TOOL_0
 5
154
 10
675.56
 20
2548.165
 30
0
 11
676.052
 21
2546.33
 31
0
 0
ARC
 8
TOOL_0
 5
155
 10
678.95
 20
2547.106
 30
0
 40
3.000096665109
 50
194.990467215556
 51
284.995408657676
210
0
220
0
230
1.0
 0
LINE
 8
TOOL_0
 5
156
 10
679.726
 20
2544.209
 30
0
 11
731.5
 21
2558.082
 31
0
 0
ARC
 8
TOOL_0
 5
157
 10
730.724
 20
2560.98
 30
0
 40
3.000096665109
 50
284.990467215558
 51
14.995408657674
210
0
220
0
230
1.0
 0
LINE
 8
TOOL_0
 5
158
 10
733.621
 20
2561.756
 30
0
 11
733.129
 21
2563.591
 31
0
 0
ARC
 8
TOOL_0
 5
159
 10
736.027
 20
2564.367
 30
0
 40
3.000096665109
 50
105.008913676659
 51
194.990467215556
210
0
220
0
230
1.0
 0
LINE
 8
TOOL_0
 5
15A
 10
735.25
 20
2567.265
 30
0
 11
762.923
 21
2574.68
 31
0
 0
ARC
 8
TOOL_0
 5
15B
 10
763.648
 20
2571.975
 30
0
 40
2.800473174305
 50
15.009200172028
 51
105.003901736897
210
0
220
0
230
1.0
 0
LINE
 8
TOOL_0
 5
15C
 10
766.352
 20
2572.7
 30
0
 11
775.668
 21
2537.932
 31
0
 0
LINE
 8
TOOL_0
 5
15D
 10
775.668
 20
2537.932
 30
0
 11
775.668
 21
2441.827
 31
0
 0
ARC
 8
TOOL_0
 5
15E
 10
794.868
 20
2441.827
 30
0
 40
19.2
 50
180.0
 51
235.608896625223
210
0
220
0
230
1.0
 0
LINE
 8
TOOL_0
 5
15F
 10
784.023
 20
2425.983
 30
0
 11
799.0
 21
2415.731
 31
0
 0
ARC
 8
TOOL_0
 5
160
 10
815.494
 20
2439.826
 30
0
 40
29.199675700254
 50
235.606785125802
 51
267.976512547702
210
0
220
0
230
1.0
 0
ARC
 8
TOOL_0
 5
161
 10
815.416
 20
2359.745
 30
0
 40
50.908920721225
 50
34.740495244392
 51
91.072622767533
210
0
220
0
230
1.0
 0
ARC
 8
TOOL_0
 5
162
 10
715.064
 20
2296.536
 30
0
 40
169.473853428781
 50
28.555767746478
 51
32.966920169158
210
0
220
0
230
1.0
 0
ARC
 8
TOOL_0
 5
163
 10
854.305
 20
2372.076
 30
0
 40
11.064290759014
 50
0.367673943054
 51
29.635046803759
210
0
220
0
230
1.0
 0
LINE
 8
TOOL_0
 5
164
 10
865.369
 20
2372.147
 30
0
 11
865.369
 21
2327.506
 31
0
 0
ARC
 8
TOOL_0
 5
165
 10
854.305
 20
2327.577
 30
0
 40
11.064227808573
 50
330.364953196241
 51
359.632326056947
210
0
220
0
230
1.0
 0
LINE
 8
TOOL_0
 5
166
 10
863.922
 20
2322.106
 30
0
 11
859.488
 21
2314.427
 31
0
 0
ARC
 8
TOOL_0
 5
167
 10
815.455
 20
2339.892
 30
0
 40
50.866209943341
 50
271.619977476978
 51
329.958506845517
210
0
220
0
230
1.0
 0
ARC
 8
TOOL_0
 5
168
 10
815.712
 20
2259.363
 30
0
 40
29.706484982239
 50
87.721569789111
 51
124.234650182547
210
0
220
0
230
1.0
 0
LINE
 8
TOOL_0
 5
169
 10
799.0
 20
2283.922
 30
0
 11
784.023
 21
2273.67
 31
0
 0
ARC
 8
TOOL_0
 5
16A
 10
794.868
 20
2257.826
 30
0
 40
19.200165650327
 50
124.391103374777
 51
180.0
210
0
220
0
230
1.0
 0
LINE
 8
TOOL_0
 5
16B
 10
775.668
 20
2257.826
 30
0
 11
775.668
 21
2161.721
 31
0
 0
LINE
 8
TOOL_0
 5
16C
 10
775.668
 20
2161.721
 30
0
 11
776.0
 21
2156.687
 31
0
 0
LINE
 8
TOOL_0
 5
16D
 10
776.0
 20
2156.687
 30
0
 11
776.0
 21
-0.002
 31
0
 0
LINE
 8
TOOL_0
 5
16E
 10
776.0
 20
-0.002
 30
0
 11
180.5
 21
2238.718
 31
0
 0
LINE
 8
TOOL_0
 5
16F
 10
180.5
 20
2238.718
 30
0
 11
210.5
 21
2238.718
 31
0
 0
LINE
 8
TOOL_0
 5
170
 10
210.5
 20
2238.718
 30
0
 11
210.5
 21
2268.718
 31
0
 0
ARC
 8
TOOL_0
 5
171
 10
200.5
 20
2268.718
 30
0
 40
10.0
 50
0
 51
90.0
210
0
220
0
230
1.0
 0
LINE
 8
TOOL_0
 5
172
 10
200.5
 20
2278.718
 30
0
 11
154.5
 21
2278.718
 31
0
 0
ARC
 8
TOOL_0
 5
173
 10
154.5
 20
2268.718
 30
0
 40
10.0
 50
90.0
 51
180.0
210
0
220
0
230
1.0
 0
LINE
 8
TOOL_0
 5
174
 10
144.5
 20
2268.718
 30
0
 11
144.5
 21
2208.718
 31
0
 0
ARC
 8
TOOL_0
 5
175
 10
154.5
 20
2208.718
 30
0
 40
10.0
 50
180.0
 51
270.0
210
0
220
0
230
1.0
 0
LINE
 8
TOOL_0
 5
176
 10
154.5
 20
2198.718
 30
0
 11
200.5
 21
2198.718
 31
0
 0
ARC
 8
TOOL_0
 5
177
 10
200.5
 20
2208.718
 30
0
 40
10.0
 50
270.0
 51
0
210
0
220
0
230
1.0
 0
LINE
 8
TOOL_0
 5
178
 10
210.5
 20
2208.718
 30
0
 11
210.5
 21
2238.718
 31
0
 0
LINE
 8
TOOL_0
 5
179
 10
210.5
 20
2238.718
 30
0
 11
206.964
 21
2242.254
 31
0
 0
LINE
 8
TOOL_0
 5
17A
 10
206.964
 20
2242.254
 30
0
 11
180.5
 21
1984.718
 31
0
 0
LINE
 8
TOOL_0
 5
17B
 10
180.5
 20
1984.718
 30
0
 11
210.5
 21
1984.718
 31
0
 0
LINE
 8
TOOL_0
 5
17C
 10
210.5
 20
1984.718
 30
0
 11
210.5
 21
2014.718
 31
0
 0
ARC
 8
TOOL_0
 5
17D
 10
200.5
 20
2014.718
 30
0
 40
10.0
 50
0
 51
90.0
210
0
220
0
230
1.0
 0
LINE
 8
TOOL_0
 5
17E
 10
200.5
 20
2024.718
 30
0
 11
154.5
 21
2024.718
 31
0
 0
ARC
 8
TOOL_0
 5
17F
 10
154.5
 20
2014.718
 30
0
 40
10.0
 50
90.0
 51
180.0
210
0
220
0
230
1.0
 0
LINE
 8
TOOL_0
 5
180
 10
144.5
 20
2014.718
 30
0
 11
144.5
 21
1954.718
 31
0
 0
ARC
 8
TOOL_0
 5
181
 10
154.5
 20
1954.718
 30
0
 40
10.0
 50
180.0
 51
270.0
210
0
220
0
230
1.0
 0
LINE
 8
TOOL_0
 5
182
 10
154.5
 20
1944.718
 30
0
 11
200.5
 21
1944.718
 31
0
 0
ARC
 8
TOOL_0
 5
183
 10
200.5
 20
1954.718
 30
0
 40
10.0
 50
270.0
 51
0
210
0
220
0
230
1.0
 0
LINE
 8
TOOL_0
 5
184
 10
210.5
 20
1954.718
 30
0
 11
210.5
 21
1984.718
 31
0
 0
LINE
 8
TOOL_0
 5
185
 10
210.5
 20
1984.718
 30
0
 11
206.964
 21
1988.254
 31
0
 0
LINE
 8
TOOL_0
 5
186
 10
206.964
 20
1988.254
 30
0
 11
582.951
 21
2058.618
 31
0
 0
LINE
 8
TOOL_0
 5
187
 10
582.951
 20
2058.618
 30
0
 11
553.8
 21
2058.618
 31
0
 0
LINE
 8
TOOL_0
 5
188
 10
553.8
 20
2058.618
 30
0
 11
488.4
 21
2058.618
 31
0
 0
ARC
 8
TOOL_0
 5
189
 10
488.4
 20
2061.618
 30
0
 40
3.0
 50
180.0
 51
270.0
210
0
220
0
230
1.0
 0
LINE
 8
TOOL_0
 5
18A
 10
485.4
 20
2061.618
 30
0
 11
485.4
 21
2068.618
 31
0
 0
ARC
 8
TOOL_0
 5
18B
 10
470.4
 20
2068.618
 30
0
 40
15.0
 50
0
 51
90.0
210
0
220
0
230
1.0
 0
LINE
 8
TOOL_0
 5
18C
 10
470.4
 20
2083.618
 30
0
 11
317.084
 21
2083.618
 31
0
 0
ARC
 8
TOOL_0
 5
18D
 10
317.084
 20
2064.218
 30
0
 40
19.4
 50
90.0
 51
134.999999999999
210
0
220
0
230
1.0
 0
LINE
 8
TOOL_0
 5
18E
 10
303.366
 20
2077.936
 30
0
 11
293.088
 21
2067.658
 31
0
 0
ARC
 8
TOOL_0
 5
18F
 10
335.239
 20
2025.585
 30
0
 40
59.555387077913
 50
135.053061710728
 51
173.745757649056
210
0
220
0
230
1.0
 0
ARC
 8
TOOL_0
 5
190
 10
265.5
 20
2033.218
 30
0
 40
10.600022122618
 50
270.0
 51
353.798888446262
210
0
220
0
230
1.0
 0
ARC
 8
TOOL_0
 5
191
 10
265.5
 20
2003.218
 30
0
 40
19.4
 50
90.0
 51
180.0
210
0
220
0
230
1.0
 0
LINE
 8
TOOL_0
 5
192
 10
246.1
 20
2003.218
 30
0
 11
246.1
 21
1922.568
 31
0
 0
ARC
 8
TOOL_0
 5
193
 10
243.1
 20
1922.568
 30
0
 40
3.0
 50
284.990467215561
 51
0
210
0
220
0
230
1.0
 0
LINE
 8
TOOL_0
 5
194
 10
243.876
 20
1919.67
 30
0
 11
212.482
 21
1911.258
 31
0
 0
ARC
 8
TOOL_0
 5
195
 10
211.706
 20
1914.156
 30
0
 40
3.000096665109
 50
195.008913676655
 51
284.990467215561
210
0
220
0
230
1.0
 0
LINE
 8
TOOL_0
 5
196
 10
208.808
 20
1913.379
 30
0
 11
208.316
 21
1915.214
 31
0
 0
ARC
 8
TOOL_0
 5
197
 10
205.418
 20
1914.438
 30
0
 40
3.000096665109
 50
14.990467215561
 51
104.995408657676
210
0
220
0
230
1.0
 0
LINE
 8
TOOL_0
 5
198
 10
204.642
 20
1917.335
 30
0
 11
152.868
 21
1903.462
 31
0
 0
ARC
 8
TOOL_0
 5
199
 10
153.644
 20
1900.564
 30
0
 40
3.000096665109
 50
104.99046721556
 51
194.995408657678
210
0
220
0
230
1.0
 0
LINE
 8
TOOL_0
 5
19A
 10
150.747
 20
1899.788
 30
0
 11
151.239
 21
1897.953
 31
0
 0
ARC
 8
TOOL_0
 5
19B
 10
148.341
 20
1897.177
 30
0
 40
3.000096665109
 50
285.008913676659
 51
14.990467215561
210
0
220
0
230
1.0
 0
LINE
 8
TOOL_0
 5
19C
 10
149.118
 20
1894.279
 30
0
 11
121.445
 21
1886.864
 31
0
 0
ARC
 8
TOOL_0
 5
19D
 10
120.72
 20
1889.569
 30
0
 40
2.800473174305
 50
195.009200172028
 51
285.003901736897
210
0
220
0
230
1.0
 0
LINE
 8
TOOL_0
 5
19E
 10
118.016
 20
1888.844
 30
0
 11
108.7
 21
1923.612
 31
0
 0
LINE
 8
TOOL_0
 5
19F
 10
108.7
 20
1923.612
 30
0
 11
108.7
 21
2019.717
 31
0
 0
ARC
 8
TOOL_0
 5
1A0
 10
89.5
 20
2019.717
 30
0
 40
19.2
 50
0
 51
55.608896625223
210
0
220
0
230
1.0
 0
LINE
 8
TOOL_0
 5
1A1
 10
100.345
 20
2035.561
 30
0
 11
85.368
 21
2045.813
 31
0
 0
ARC
 8
TOOL_0
 5
1A2
 10
68.874
 20
2021.718
 30
0
 40
29.199675700254
 50
55.606785125803
 51
87.976512547702
210
0
220
0
230
1.0
 0
ARC
 8
TOOL_0
 5
1A3
 10
68.952
 20
2101.799
 30
0
 40
50.908920721225
 50
214.740495244391
 51
271.072622767533
210
0
220
0
230
1.0
 0
ARC
 8
TOOL_0
 5
1A4
 10
169.304
 20
2165.008
 30
0
 40
169.473853428781
 50
208.555470792514
 51
212.966920169158
210
0
220
0
230
1.0
 0
ARC
 8
TOOL_0
 5
1A5
 10
30.063
 20
2089.468
 30
0
 40
11.063796319528
 50
180.367707176701
 51
209.630545539637
210
0
220
0
230
1.0
 0
LINE
 8
TOOL_0
 5
1A6
 10
19.0
 20
2089.397
 30
0
 11
19.0
 21
2134.038
 31
0
 0
ARC
 8
TOOL_0
 5
1A7
 10
30.064
 20
2133.967
 30
0
 40
11.064227808573
 50
150.36495319624
 51
179.632326056946
210
0
220
0
230
1.0
 0
LINE
 8
TOOL_0
 5
1A8
 10
20.447
 20
2139.438
 30
0
 11
24.881
 21
2147.117
 31
0
 0
ARC
 8
TOOL_0
 5
1A9
 10
68.914
 20
2121.652
 30
0
 40
50.866209943341
 50
91.62110342507
 51
149.958506845517
210
0
220
0
230
1.0
 0
ARC
 8
TOOL_0
 5
1AA
 10
68.656
 20
2202.181
 30
0
 40
29.706484982239
 50
267.721569789111
 51
304.236244747272
210
0
220
0
230
1.0
 0
LINE
 8
TOOL_0
 5
1AB
 10
85.369
 20
2177.622
 30
0
 11
100.346
 21
2187.874
 31
0
 0
ARC
 8
TOOL_0
 5
1AC
 10
89.501
 20
2203.718
 30
0
 40
19.200165650327
 50
304.391103374777
 51
359.997015844819
210
0
220
0
230
1.0
 0
LINE
 8
TOOL_0
 5
1AD
 10
108.701
 20
2203.717
 30
0
 11
108.701
 21
2299.822
 31
0
 0
LINE
 8
TOOL_0
 5
1AE
 10
108.701
 20
2299.822
 30
0
 11
118.017
 21
2334.59
 31
0
 0
ARC
 8
TOOL_0
 5
1AF
 10
120.722
 20
2333.865
 30
0
 40
2.800473174305
 50
75.015861915195
 51
164.996098263105
210
0
220
0
230
1.0
 0
LINE
 8
TOOL_0
 5
1B0
 10
121.446
 20
2336.57
 30
0
 11
149.119
 21
2329.155
 31
0
 0
ARC
 8
TOOL_0
 5
1B1
 10
148.343
 20
2326.257
 30
0
 40
3.000096665109
 50
345.004591342326
 51
75.009532784441
210
0
220
0
230
1.0
 0
LINE
 8
TOOL_0
 5
1B2
 10
151.24
 20
2325.481
 30
0
 11
150.748
 21
2323.646
 31
0
 0
ARC
 8
TOOL_0
 5
1B3
 10
153.646
 20
2322.87
 30
0
 40
3.000096665109
 50
165.009532784443
 51
254.991086323342
210
0
220
0
230
1.0
 0
LINE
 8
TOOL_0
 5
1B4
 10
152.869
 20
2319.972
 30
0
 11
204.643
 21
2306.099
 31
0
 0
ARC
 8
TOOL_0
 5
1B5
 10
205.419
 20
2308.997
 30
0
 40
3.000096665109
 50
255.009532784441
 51
344.991086323341
210
0
220
0
230
1.0
 0
LINE
 8
TOOL_0
 5
1B6
 10
208.317
 20
2308.22
 30
0
 11
208.809
 21
2310.055
 31
0
 0
ARC
 8
TOOL_0
 5
1B7
 10
211.707
 20
2309.279
 30
0
 40
3.000096665109
 50
75.004591342323
 51
165.009532784443
210
0
220
0
230
1.0
 0
LINE
 8
TOOL_0
 5
1B8
 10
212.483
 20
2312.176
 30
0
 11
243.877
 21
2303.764
 31
0
 0
ARC
 8
TOOL_0
 5
1B9
 10
243.101
 20
2300.866
 30
0
 40
3.000096665109
 50
0
 51
75.009532784441
210
0
220
0
230
1.0
 0
LINE
 8
TOOL_0
 5
1BA
 10
246.101
 20
2300.866
 30
0
 11
246.101
 21
2220.216
 31
0
 0
ARC
 8
TOOL_0
 5
1BB
 10
265.501
 20
2220.216
 30
0
 40
19.4
 50
180.0
 51
270.0
210
0
220
0
230
1.0
 0
ARC
 8
TOOL_0
 5
1BC
 10
265.474
 20
2190.184
 30
0
 40
10.632034283241
 50
9.83972311836
 51
89.854497486708
210
0
220
0
230
1.0
 0
ARC
 8
TOOL_0
 5
1BD
 10
335.442
 20
2197.977
 30
0
 40
59.791392691591
 50
185.736147090083
 51
222.017911442877
210
0
220
0
230
1.0
 0
ARC
 8
TOOL_0
 5
1BE
 10
646.695
 20
2498.151
 30
0
 40
492.176099269357
 50
223.72579954476
 51
225.76737739596
210
0
220
0
230
1.0
 0
ARC
 8
TOOL_0
 5
1BF
 10
317.086
 20
2159.216
 30
0
 40
19.400181854818
 50
224.991646627918
 51
270.0
210
0
220
0
230
1.0
 0
LINE
 8
TOOL_0
 5
1C0
 10
317.086
 20
2139.816
 30
0
 11
470.402
 21
2139.816
 31
0
 0
ARC
 8
TOOL_0
 5
1C1
 10
470.402
 20
2154.816
 30
0
 40
15.0
 50
270.0
 51
0
210
0
220
0
230
1.0
 0
LINE
 8
TOOL_0
 5
1C2
 10
485.402
 20
2154.816
 30
0
 11
485.402
 21
2161.816
 31
0
 0
ARC
 8
TOOL_0
 5
1C3
 10
488.402
 20
2161.816
 30
0
 40
3.0
 50
90.0
 51
180.0
210
0
220
0
230
1.0
 0
LINE
 8
TOOL_0
 5
1C4
 10
488.402
 20
2164.816
 30
0
 11
553.802
 21
2164.816
 31
0
 0
ARC
 8
TOOL_0
 5
1C5
 10
553.802
 20
2161.816
 30
0
 40
3.0
 50
0
 51
90.0
210
0
220
0
230
1.0
 0
LINE
 8
TOOL_0
 5
1C6
 10
556.802
 20
2161.816
 30
0
 11
556.802
 21
2061.616
 31
0
 0
ARC
 8
TOOL_0
 5
1C7
 10
553.802
 20
2061.616
 30
0
 40
3.0
 50
270.0
 51
0
210
0
220
0
230
1.0
 0
LINE
 8
TOOL_0
 5
1C8
 10
553.802
 20
2058.616
 30
0
 11
550.561
 21
2054.799
 31
0
 0
LINE
 8
TOOL_0
 5
1C9
 10
550.561
 20
2054.799
 30
0
 11
1177.453
 21
2228.362
 31
0
 0
LINE
 8
TOOL_0
 5
1CA
 10
1177.453
 20
2228.362
 30
0
 11
1207.453
 21
2228.362
 31
0
 0
LINE
 8
TOOL_0
 5
1CB
 10
1207.453
 20
2228.362
 30
0
 11
1207.453
 21
2258.362
 31
0
 0
ARC
 8
TOOL_0
 5
1CC
 10
1197.453
 20
2258.362
 30
0
 40
10.0
 50
0
 51
90.0
210
0
220
0
230
1.0
 0
LINE
 8
TOOL_0
 5
1CD
 10
1197.453
 20
2268.362
 30
0
 11
1151.453
 21
2268.362
 31
0
 0
ARC
 8
TOOL_0
 5
1CE
 10
1151.453
 20
2258.362
 30
0
 40
10.0
 50
90.0
 51
180.0
210
0
220
0
230
1.0
 0
LINE
 8
TOOL_0
 5
1CF
 10
1141.453
 20
2258.362
 30
0
 11
1141.453
 21
2198.362
 31
0
 0
ARC
 8
TOOL_0
 5
1D0
 10
1151.453
 20
2198.362
 30
0
 40
10.0
 50
180.0
 51
270.0
210
0
220
0
230
1.0
 0
LINE
 8
TOOL_0
 5
1D1
 10
1151.453
 20
2188.362
 30
0
 11
1197.453
 21
2188.362
 31
0
 0
ARC
 8
TOOL_0
 5
1D2
 10
1197.453
 20
2198.362
 30
0
 40
10.0
 50
270.0
 51
0
210
0
220
0
230
1.0
 0
LINE
 8
TOOL_0
 5
1D3
 10
1207.453
 20
2198.362
 30
0
 11
1207.453
 21
2228.362
 31
0
 0
LINE
 8
TOOL_0
 5
1D4
 10
1207.453
 20
2228.362
 30
0
 11
1203.917
 21
2231.898
 31
0
 0
LINE
 8
TOOL_0
 5
1D5
 10
1203.917
 20
2231.898
 30
0
 11
1177.453
 21
1974.362
 31
0
 0
LINE
 8
TOOL_0
 5
1D6
 10
1177.453
 20
1974.362
 30
0
 11
1207.453
 21
1974.362
 31
0
 0
LINE
 8
TOOL_0
 5
1D7
 10
1207.453
 20
1974.362
 30
0
 11
1207.453
 21
2004.362
 31
0
 0
ARC
 8
TOOL_0
 5
1D8
 10
1197.453
 20
2004.362
 30
0
 40
10.0
 50
0
 51
90.0
210
0
220
0
230
1.0
 0
LINE
 8
TOOL_0
 5
1D9
 10
1197.453
 20
2014.362
 30
0
 11
1151.453
 21
2014.362
 31
0
 0
ARC
 8
TOOL_0
 5
1DA
 10
1151.453
 20
2004.362
 30
0
 40
10.0
 50
90.0
 51
180.0
210
0
220
0
230
1.0
 0
LINE
 8
TOOL_0
 5
1DB
 10
1141.453
 20
2004.362
 30
0
 11
1141.453
 21
1944.362
 31
0
 0
ARC
 8
TOOL_0
 5
1DC
 10
1151.453
 20
1944.362
 30
0
 40
10.0
 50
180.0
 51
270.0
210
0
220
0
230
1.0
 0
LINE
 8
TOOL_0
 5
1DD
 10
1151.453
 20
1934.362
 30
0
 11
1197.453
 21
1934.362
 31
0
 0
ARC
 8
TOOL_0
 5
1DE
 10
1197.453
 20
1944.362
 30
0
 40
10.0
 50
270.0
 51
0
210
0
220
0
230
1.0
 0
LINE
 8
TOOL_0
 5
1DF
 10
1207.453
 20
1944.362
 30
0
 11
1207.453
 21
1974.362
 31
0
 0
LINE
 8
TOOL_0
 5
1E0
 10
1207.453
 20
1974.362
 30
0
 11
1203.917
 21
1977.898
 31
0
 0
LINE
 8
TOOL_0
 5
1E1
 10
1203.917
 20
1977.898
 30
0
 11
1257.171
 21
1940.436
 31
0
 0
LINE
 8
TOOL_0
 5
1E2
 10
1257.171
 20
1940.436
 30
0
 11
1243.253
 21
1913.257
 31
0
 0
LINE
 8
TOOL_0
 5
1E3
 10
1243.253
 20
1913.257
 30
0
 11
1233.937
 21
1878.489
 31
0
 0
ARC
 8
TOOL_0
 5
1E4
 10
1231.232
 20
1879.214
 30
0
 40
2.800473174305
 50
255.015861915192
 51
344.996098263105
210
0
220
0
230
1.0
 0
LINE
 8
TOOL_0
 5
1E5
 10
1230.508
 20
1876.509
 30
0
 11
1202.835
 21
1883.924
 31
0
 0
ARC
 8
TOOL_0
 5
1E6
 10
1203.611
 20
1886.822
 30
0
 40
3.000096665109
 50
165.004591342322
 51
255.009532784438
210
0
220
0
230
1.0
 0
LINE
 8
TOOL_0
 5
1E7
 10
1200.714
 20
1887.598
 30
0
 11
1201.206
 21
1889.433
 31
0
 0
ARC
 8
TOOL_0
 5
1E8
 10
1198.308
 20
1890.209
 30
0
 40
3.000096665109
 50
345.009532784439
 51
74.991086323344
210
0
220
0
230
1.0
 0
LINE
 8
TOOL_0
 5
1E9
 10
1199.085
 20
1893.107
 30
0
 11
1147.311
 21
1906.98
 31
0
 0
ARC
 8
TOOL_0
 5
1EA
 10
1146.535
 20
1904.082
 30
0
 40
3.000096665109
 50
75.009532784439
 51
164.991086323344
210
0
220
0
230
1.0
 0
LINE
 8
TOOL_0
 5
1EB
 10
1143.637
 20
1904.859
 30
0
 11
1143.145
 21
1903.024
 31
0
 0
ARC
 8
TOOL_0
 5
1EC
 10
1140.247
 20
1903.8
 30
0
 40
3.000096665109
 50
255.004591342322
 51
345.009532784439
210
0
220
0
230
1.0
 0
LINE
 8
TOOL_0
 5
1ED
 10
1139.471
 20
1900.903
 30
0
 11
1108.077
 21
1909.315
 31
0
 0
ARC
 8
TOOL_0
 5
1EE
 10
1108.853
 20
1912.213
 30
0
 40
3.000096665109
 50
180.0
 51
255.009532784438
210
0
220
0
230
1.0
 0
LINE
 8
TOOL_0
 5
1EF
 10
1105.853
 20
1912.213
 30
0
 11
1105.853
 21
1992.863
 31
0
 0
ARC
 8
TOOL_0
 5
1F0
 10
1086.453
 20
1992.863
 30
0
 40
19.4
 50
0
 51
90.0
210
0
220
0
230
1.0
 0
ARC
 8
TOOL_0
 5
1F1
 10
1086.48
 20
2022.895
 30
0
 40
10.632034283241
 50
189.83972311836
 51
269.854497486707
210
0
220
0
230
1.0
 0
ARC
 8
TOOL_0
 5
1F2
 10
1016.512
 20
2015.102
 30
0
 40
59.791392691591
 50
5.736147090083
 51
42.017911442877
210
0
220
0
230
1.0
 0
ARC
 8
TOOL_0
 5
1F3
 10
705.259
 20
1714.928
 30
0
 40
492.176099269357
 50
43.72579954476
 51
45.767625426121
210
0
220
0
230
1.0
 0
ARC
 8
TOOL_0
 5
1F4
 10
1034.868
 20
2053.862
 30
0
 40
19.400181648634
 50
45.0
 51
90.0
210
0
220
0
230
1.0
 0
LINE
 8
TOOL_0
 5
1F5
 10
1034.868
 20
2073.262
 30
0
 11
881.552
 21
2073.262
 31
0
 0
ARC
 8
TOOL_0
 5
1F6
 10
881.552
 20
2058.262
 30
0
 40
15.0
 50
90.0
 51
180.0
210
0
220
0
230
1.0
 0
LINE
 8
TOOL_0
 5
1F7
 10
866.552
 20
2058.262
 30
0
 11
866.552
 21
2051.262
 31
0
 0
ARC
 8
TOOL_0
 5
1F8
 10
863.552
 20
2051.262
 30
0
 40
3.0
 50
270.0
 51
0
210
0
220
0
230
1.0
 0
LINE
 8
TOOL_0
 5
1F9
 10
863.552
 20
2048.262
 30
0
 11
798.152
 21
2048.262
 31
0
 0
ARC
 8
TOOL_0
 5
1FA
 10
798.152
 20
2051.262
 30
0
 40
3.0
 50
180.0
 51
270.0
210
0
220
0
230
1.0
 0
LINE
 8
TOOL_0
 5
1FB
 10
795.152
 20
2051.262
 30
0
 11
795.152
 21
2151.462
 31
0
 0
ARC
 8
TOOL_0
 5
1FC
 10
798.152
 20
2151.462
 30
0
 40
3.0
 50
90.0
 51
180.0
210
0
220
0
230
1.0
 0
LINE
 8
TOOL_0
 5
1FD
 10
798.152
 20
2154.462
 30
0
 11
863.552
 21
2154.462
 31
0
 0
ARC
 8
TOOL_0
 5
1FE
 10
863.552
 20
2151.462
 30
0
 40
3.0
 50
0
 51
90.0
210
0
220
0
230
1.0
 0
LINE
 8
TOOL_0
 5
1FF
 10
866.552
 20
2151.462
 30
0
 11
866.552
 21
2144.462
 31
0
 0
ARC
 8
TOOL_0
 5
200
 10
881.552
 20
2144.462
 30
0
 40
15.0
 50
180.0
 51
270.0
210
0
220
0
230
1.0
 0
LINE
 8
TOOL_0
 5
201
 10
881.552
 20
2129.462
 30
0
 11
1034.868
 21
2129.462
 31
0
 0
ARC
 8
TOOL_0
 5
202
 10
1034.868
 20
2148.862
 30
0
 40
19.4
 50
270.0
 51
315.0
210
0
220
0
230
1.0
 0
LINE
 8
TOOL_0
 5
203
 10
1048.586
 20
2135.144
 30
0
 11
1058.864
 21
2145.422
 31
0
 0
ARC
 8
TOOL_0
 5
204
 10
1016.713
 20
2187.495
 30
0
 40
59.555387077913
 50
315.053061710728
 51
353.744801319129
210
0
220
0
230
1.0
 0
ARC
 8
TOOL_0
 5
205
 10
1086.452
 20
2179.861
 30
0
 40
10.600022122618
 50
90.0
 51
173.798888446261
210
0
220
0
230
1.0
 0
ARC
 8
TOOL_0
 5
206
 10
1086.452
 20
2209.861
 30
0
 40
19.4
 50
270.0
 51
0
210
0
220
0
230
1.0
 0
LINE
 8
TOOL_0
 5
207
 10
1105.852
 20
2209.861
 30
0
 11
1105.852
 21
2290.511
 31
0
 0
ARC
 8
TOOL_0
 5
208
 10
1108.852
 20
2290.511
 30
0
 40
3.0
 50
104.99046721556
 51
180.0
210
0
220
0
230
1.0
 0
LINE
 8
TOOL_0
 5
209
 10
1108.076
 20
2293.409
 30
0
 11
1139.47
 21
2301.821
 31
0
 0
ARC
 8
TOOL_0
 5
20A
 10
1140.246
 20
2298.923
 30
0
 40
3.000096665109
 50
15.00891367666
 51
104.99046721556
210
0
220
0
230
1.0
 0
LINE
 8
TOOL_0
 5
20B
 10
1143.144
 20
2299.7
 30
0
 11
1143.636
 21
2297.865
 31
0
 0
ARC
 8
TOOL_0
 5
20C
 10
1146.534
 20
2298.641
 30
0
 40
3.000096665109
 50
194.990467215557
 51
284.995408657679
210
0
220
0
230
1.0
 0
LINE
 8
TOOL_0
 5
20D
 10
1147.31
 20
2295.744
 30
0
 11
1199.084
 21
2309.617
 31
0
 0
ARC
 8
TOOL_0
 5
20E
 10
1198.308
 20
2312.515
 30
0
 40
3.000096665109
 50
284.99046721556
 51
14.995408657673
210
0
220
0
230
1.0
 0
LINE
 8
TOOL_0
 5
20F
 10
1201.205
 20
2313.291
 30
0
 11
1200.713
 21
2315.126
 31
0
 0
ARC
 8
TOOL_0
 5
210
 10
1203.611
 20
2315.902
 30
0
 40
3.000096665109
 50
105.008913676654
 51
194.990467215557
210
0
220
0
230
1.0
 0
LINE
 8
TOOL_0
 5
211
 10
1202.834
 20
2318.8
 30
0
 11
1230.507
 21
2326.215
 31
0
 0
ARC
 8
TOOL_0
 5
212
 10
1231.232
 20
2323.51
 30
0
 40
2.800473174305
 50
15.009200172027
 51
105.003901736895
210
0
220
0
230
1.0
 0
LINE
 8
TOOL_0
 5
213
 10
1233.936
 20
2324.235
 30
0
 11
1243.252
 21
2289.467
 31
0
 0
LINE
 8
TOOL_0
 5
214
 10
1243.252
 20
2289.467
 30
0
 11
1243.252
 21
2193.362
 31
0
 0
ARC
 8
TOOL_0
 5
215
 10
1262.452
 20
2193.362
 30
0
 40
19.2
 50
180.0
 51
235.608896625223
210
0
220
0
230
1.0
 0
LINE
 8
TOOL_0
 5
216
 10
1251.607
 20
2177.518
 30
0
 11
1266.584
 21
2167.266
 31
0
 0
ARC
 8
TOOL_0
 5
217
 10
1283.078
 20
2191.361
 30
0
 40
29.199675700254
 50
235.606785125802
 51
267.976512547702
210
0
220
0
230
1.0
 0
ARC
 8
TOOL_0
 5
218
 10
1283.0
 20
2111.28
 30
0
 40
50.908920721225
 50
34.740495244392
 51
91.072622767533
210
0
220
0
230
1.0
 0
ARC
 8
TOOL_0
 5
219
 10
1182.648
 20
2048.071
 30
0
 40
169.473853428781
 50
28.555767746478
 51
32.966920169158
210
0
220
0
230
1.0
 0
ARC
 8
TOOL_0
 5
21A
 10
1321.889
 20
2123.611
 30
0
 40
11.064290759014
 50
0.367673943054
 51
29.635046803759
210
0
220
0
230
1.0
 0
LINE
 8
TOOL_0
 5
21B
 10
1332.953
 20
2123.682
 30
0
 11
1332.953
 21
2079.041
 31
0
 0
ARC
 8
TOOL_0
 5
21C
 10
1321.889
 20
2079.112
 30
0
 40
11.064227808573
 50
330.364953196241
 51
359.632326056947
210
0
220
0
230
1.0
 0
LINE
 8
TOOL_0
 5
21D
 10
1331.506
 20
2073.641
 30
0
 11
1327.072
 21
2065.962
 31
0
 0
ARC
 8
TOOL_0
 5
21E
 10
1283.039
 20
2091.427
 30
0
 40
50.866209943341
 50
271.619977476978
 51
329.958506845517
210
0
220
0
230
1.0
 0
ARC
 8
TOOL_0
 5
21F
 10
1283.296
 20
2010.898
 30
0
 40
29.706484982239
 50
87.721569789111
 51
124.234650182548
210
0
220
0
230
1.0
 0
LINE
 8
TOOL_0
 5
220
 10
1266.584
 20
2035.457
 30
0
 11
1251.607
 21
2025.205
 31
0
 0
ARC
 8
TOOL_0
 5
221
 10
1262.452
 20
2009.361
 30
0
 40
19.200165650327
 50
124.391103374777
 51
180.0
210
0
220
0
230
1.0
 0
LINE
 8
TOOL_0
 5
222
 10
1243.252
 20
2009.361
 30
0
 11
1243.252
 21
1913.256
 31
0
 0
LINE
 8
TOOL_0
 5
223
 10
1243.252
 20
1913.256
 30
0
 11
1243.584
 21
1908.222
 31
0
 0
LINE
 8
TOOL_0
 5
224
 10
1243.584
 20
1908.222
 30
0
 11
1430.091
 21
-0.004
 31
0
 0
LINE
 8
TOOL_0
 5
225
 10
1430.091
 20
-0.004
 30
0
 11
1430.091
 21
0.996
 31
0
 0
LINE
 8
TOOL_0
 5
226
 10
1430.091
 20
0.996
 30
0
 11
1430.091
 21
-0.004
 31
0
 0
LINE
 8
TOOL_0
 5
227
 10
1430.091
 20
-0.004
 30
0
 11
1430.091
 21
-0.004
 31
0
 0
LINE
 8
TOOL_0
 5
228
 10
1430.091
 20
-0.004
 30
0
 11
1430.091
 21
0.996
 31
0
 0
LINE
 8
TOOL_0
 5
229
 10
1430.091
 20
0.996
 30
0
 11
1430.091
 21
2878.996
 31
0
 0
LINE
 8
TOOL_0
 5
22A
 10
1430.091
 20
2878.996
 30
0
 11
1430.091
 21
2879.996
 31
0
 0
ENDSEC
 0
EOF

