0
SECTION
2
TABLES
0
TABLE
2
LAYER
70
0
0
LAYER
2
LAYER_NAME
70
0
62
1
6
CONTINUOUS
0
ENDTAB
0
ENDSEC
 0
SECTION
 2
ENTITIES
 0
LINE
 8
TOOL_0
 5
1
 10
865.724
 20
910.095
 30
0
 11
865.724
 21
881.827
 31
0
 0
LINE
 8
TOOL_0
 5
2
 10
865.724
 20
881.827
 30
0
 11
837.354
 21
883.295
 31
0
 0
LINE
 8
TOOL_0
 5
3
 10
837.354
 20
883.295
 30
0
 11
325.854
 21
883.295
 31
0
 0
LINE
 8
TOOL_0
 5
4
 10
325.854
 20
883.295
 30
0
 11
325.854
 21
1143.795
 31
0
 0
LINE
 8
TOOL_0
 5
5
 10
325.854
 20
1143.795
 30
0
 11
837.354
 21
1143.795
 31
0
 0
LINE
 8
TOOL_0
 5
6
 10
837.354
 20
1143.795
 30
0
 11
837.354
 21
883.295
 31
0
 0
LINE
 8
TOOL_0
 5
7
 10
837.354
 20
883.295
 30
0
 11
837.354
 21
874.117
 31
0
 0
LINE
 8
TOOL_0
 5
8
 10
837.354
 20
874.117
 30
0
 11
941.005
 21
1022.876
 31
0
 0
LINE
 8
TOOL_0
 5
9
 10
941.005
 20
1022.876
 30
0
 11
971.005
 21
1022.876
 31
0
 0
LINE
 8
TOOL_0
 5
A
 10
971.005
 20
1022.876
 30
0
 11
971.005
 21
1122.876
 31
0
 0
ARC
 8
TOOL_0
 5
B
 10
871.005
 20
1122.876
 30
0
 40
100.0
 50
0
 51
90.0
210
0
220
0
230
1.0
 0
LINE
 8
TOOL_0
 5
C
 10
871.005
 20
1222.876
 30
0
 11
306.005
 21
1222.876
 31
0
 0
ARC
 8
TOOL_0
 5
D
 10
306.005
 20
1122.876
 30
0
 40
100.0
 50
90.0
 51
180.0
210
0
220
0
230
1.0
 0
LINE
 8
TOOL_0
 5
E
 10
206.005
 20
1122.876
 30
0
 11
206.005
 21
922.876
 31
0
 0
ARC
 8
TOOL_0
 5
F
 10
306.005
 20
922.876
 30
0
 40
100.0
 50
180.0
 51
270.0
210
0
220
0
230
1.0
 0
LINE
 8
TOOL_0
 5
10
 10
306.005
 20
822.876
 30
0
 11
871.005
 21
822.876
 31
0
 0
ARC
 8
TOOL_0
 5
11
 10
871.005
 20
922.876
 30
0
 40
100.0
 50
270.0
 51
359.999427042205
210
0
220
0
230
1.0
 0
LINE
 8
TOOL_0
 5
12
 10
971.005
 20
922.875
 30
0
 11
971.005
 21
1022.876
 31
0
 0
LINE
 8
TOOL_0
 5
13
 10
971.005
 20
1022.876
 30
0
 11
967.469
 21
1026.412
 31
0
 0
LINE
 8
TOOL_0
 5
14
 10
967.469
 20
1026.412
 30
0
 11
1176.587
 21
725.544
 31
0
 0
LINE
 8
TOOL_0
 5
15
 10
1176.587
 20
725.544
 30
0
 11
1175.65
 21
724.134
 31
0
 0
LINE
 8
TOOL_0
 5
16
 10
1175.65
 20
724.134
 30
0
 11
1176.118
 21
695.929
 31
0
 0
LINE
 8
TOOL_0
 5
17
 10
1176.118
 20
695.929
 30
0
 11
1156.754
 21
697.127
 31
0
 0
LINE
 8
TOOL_0
 5
18
 10
1156.754
 20
697.127
 30
0
 11
20.254
 21
697.127
 31
0
 0
LINE
 8
TOOL_0
 5
19
 10
20.254
 20
697.127
 30
0
 11
20.254
 21
1348.627
 31
0
 0
LINE
 8
TOOL_0
 5
1A
 10
20.254
 20
1348.627
 30
0
 11
1156.754
 21
1348.627
 31
0
 0
LINE
 8
TOOL_0
 5
1B
 10
1156.754
 20
1348.627
 30
0
 11
1156.754
 21
697.127
 31
0
 0
LINE
 8
TOOL_0
 5
1C
 10
1156.754
 20
697.127
 30
0
 11
1156.754
 21
688.878
 31
0
 0
LINE
 8
TOOL_0
 5
1D
 10
1156.754
 20
688.878
 30
0
 11
654.654
 21
1410.97
 31
0
 0
LINE
 8
TOOL_0
 5
1E
 10
654.654
 20
1410.97
 30
0
 11
654.009
 21
1383.766
 31
0
 0
LINE
 8
TOOL_0
 5
1F
 10
654.009
 20
1383.766
 30
0
 11
629.229
 21
1385.001
 31
0
 0
LINE
 8
TOOL_0
 5
20
 10
629.229
 20
1385.001
 30
0
 11
117.729
 21
1385.001
 31
0
 0
LINE
 8
TOOL_0
 5
21
 10
117.729
 20
1385.001
 30
0
 11
117.729
 21
1886.501
 31
0
 0
LINE
 8
TOOL_0
 5
22
 10
117.729
 20
1886.501
 30
0
 11
629.229
 21
1886.501
 31
0
 0
LINE
 8
TOOL_0
 5
23
 10
629.229
 20
1886.501
 30
0
 11
629.229
 21
1385.001
 31
0
 0
LINE
 8
TOOL_0
 5
24
 10
629.229
 20
1385.001
 30
0
 11
628.857
 21
1371.46
 31
0
 0
LINE
 8
TOOL_0
 5
25
 10
628.857
 20
1371.46
 30
0
 11
1299.917
 21
1421.832
 31
0
 0
LINE
 8
TOOL_0
 5
26
 10
1299.917
 20
1421.832
 30
0
 11
1299.272
 21
1394.628
 31
0
 0
LINE
 8
TOOL_0
 5
27
 10
1299.272
 20
1394.628
 30
0
 11
1274.492
 21
1395.863
 31
0
 0
LINE
 8
TOOL_0
 5
28
 10
1274.492
 20
1395.863
 30
0
 11
762.992
 21
1395.863
 31
0
 0
LINE
 8
TOOL_0
 5
29
 10
762.992
 20
1395.863
 30
0
 11
762.992
 21
1897.363
 31
0
 0
LINE
 8
TOOL_0
 5
2A
 10
762.992
 20
1897.363
 30
0
 11
1274.492
 21
1897.363
 31
0
 0
LINE
 8
TOOL_0
 5
2B
 10
1274.492
 20
1897.363
 30
0
 11
1274.492
 21
1395.863
 31
0
 0
LINE
 8
TOOL_0
 5
2C
 10
1274.492
 20
1395.863
 30
0
 11
1274.12
 21
1382.322
 31
0
 0
LINE
 8
TOOL_0
 5
2D
 10
1274.12
 20
1382.322
 30
0
 11
2050.955
 21
919.126
 31
0
 0
LINE
 8
TOOL_0
 5
2E
 10
2050.955
 20
919.126
 30
0
 11
2050.955
 21
890.858
 31
0
 0
LINE
 8
TOOL_0
 5
2F
 10
2050.955
 20
890.858
 30
0
 11
2022.585
 21
892.326
 31
0
 0
LINE
 8
TOOL_0
 5
30
 10
2022.585
 20
892.326
 30
0
 11
1511.085
 21
892.326
 31
0
 0
LINE
 8
TOOL_0
 5
31
 10
1511.085
 20
892.326
 30
0
 11
1511.085
 21
1152.826
 31
0
 0
LINE
 8
TOOL_0
 5
32
 10
1511.085
 20
1152.826
 30
0
 11
2022.585
 21
1152.826
 31
0
 0
LINE
 8
TOOL_0
 5
33
 10
2022.585
 20
1152.826
 30
0
 11
2022.585
 21
892.326
 31
0
 0
LINE
 8
TOOL_0
 5
34
 10
2022.585
 20
892.326
 30
0
 11
2022.585
 21
883.148
 31
0
 0
LINE
 8
TOOL_0
 5
35
 10
2022.585
 20
883.148
 30
0
 11
1881.523
 21
1397.063
 31
0
 0
LINE
 8
TOOL_0
 5
36
 10
1881.523
 20
1397.063
 30
0
 11
1881.523
 21
1368.794
 31
0
 0
LINE
 8
TOOL_0
 5
37
 10
1881.523
 20
1368.794
 30
0
 11
1853.153
 21
1370.262
 31
0
 0
LINE
 8
TOOL_0
 5
38
 10
1853.153
 20
1370.262
 30
0
 11
1341.653
 21
1370.262
 31
0
 0
LINE
 8
TOOL_0
 5
39
 10
1341.653
 20
1370.262
 30
0
 11
1341.653
 21
1630.762
 31
0
 0
LINE
 8
TOOL_0
 5
3A
 10
1341.653
 20
1630.762
 30
0
 11
1853.153
 21
1630.762
 31
0
 0
LINE
 8
TOOL_0
 5
3B
 10
1853.153
 20
1630.762
 30
0
 11
1853.153
 21
1370.262
 31
0
 0
LINE
 8
TOOL_0
 5
3C
 10
1853.153
 20
1370.262
 30
0
 11
1853.153
 21
1361.084
 31
0
 0
LINE
 8
TOOL_0
 5
3D
 10
1853.153
 20
1361.084
 30
0
 11
1882.423
 21
1677.593
 31
0
 0
LINE
 8
TOOL_0
 5
3E
 10
1882.423
 20
1677.593
 30
0
 11
1882.423
 21
1649.325
 31
0
 0
LINE
 8
TOOL_0
 5
3F
 10
1882.423
 20
1649.325
 30
0
 11
1854.053
 21
1650.793
 31
0
 0
LINE
 8
TOOL_0
 5
40
 10
1854.053
 20
1650.793
 30
0
 11
1342.553
 21
1650.793
 31
0
 0
LINE
 8
TOOL_0
 5
41
 10
1342.553
 20
1650.793
 30
0
 11
1342.553
 21
1911.293
 31
0
 0
LINE
 8
TOOL_0
 5
42
 10
1342.553
 20
1911.293
 30
0
 11
1854.053
 21
1911.293
 31
0
 0
LINE
 8
TOOL_0
 5
43
 10
1854.053
 20
1911.293
 30
0
 11
1854.053
 21
1650.793
 31
0
 0
LINE
 8
TOOL_0
 5
44
 10
1854.053
 20
1650.793
 30
0
 11
1854.053
 21
1641.615
 31
0
 0
LINE
 8
TOOL_0
 5
45
 10
1854.053
 20
1641.615
 30
0
 11
2119.362
 21
1022.876
 31
0
 0
LINE
 8
TOOL_0
 5
46
 10
2119.362
 20
1022.876
 30
0
 11
2149.362
 21
1022.876
 31
0
 0
LINE
 8
TOOL_0
 5
47
 10
2149.362
 20
1022.876
 30
0
 11
2149.362
 21
1122.876
 31
0
 0
ARC
 8
TOOL_0
 5
48
 10
2049.362
 20
1122.876
 30
0
 40
100.0
 50
0
 51
90.0
210
0
220
0
230
1.0
 0
LINE
 8
TOOL_0
 5
49
 10
2049.362
 20
1222.876
 30
0
 11
1484.362
 21
1222.876
 31
0
 0
ARC
 8
TOOL_0
 5
4A
 10
1484.362
 20
1122.876
 30
0
 40
100.0
 50
90.0
 51
180.0
210
0
220
0
230
1.0
 0
LINE
 8
TOOL_0
 5
4B
 10
1384.362
 20
1122.876
 30
0
 11
1384.362
 21
922.876
 31
0
 0
ARC
 8
TOOL_0
 5
4C
 10
1484.362
 20
922.876
 30
0
 40
100.0
 50
180.0
 51
270.0
210
0
220
0
230
1.0
 0
LINE
 8
TOOL_0
 5
4D
 10
1484.362
 20
822.876
 30
0
 11
2049.362
 21
822.876
 31
0
 0
ARC
 8
TOOL_0
 5
4E
 10
2049.362
 20
922.876
 30
0
 40
100.0
 50
270.0
 51
359.999427042205
210
0
220
0
230
1.0
 0
LINE
 8
TOOL_0
 5
4F
 10
2149.362
 20
922.875
 30
0
 11
2149.362
 21
1022.876
 31
0
 0
LINE
 8
TOOL_0
 5
50
 10
2149.362
 20
1022.876
 30
0
 11
2145.826
 21
1026.412
 31
0
 0
LINE
 8
TOOL_0
 5
51
 10
2145.826
 20
1026.412
 30
0
 11
2375.782
 21
731.022
 31
0
 0
LINE
 8
TOOL_0
 5
52
 10
2375.782
 20
731.022
 30
0
 11
2375.782
 21
695.932
 31
0
 0
LINE
 8
TOOL_0
 5
53
 10
2375.782
 20
695.932
 30
0
 11
2335.112
 21
697.126
 31
0
 0
LINE
 8
TOOL_0
 5
54
 10
2335.112
 20
697.126
 30
0
 11
1198.612
 21
697.126
 31
0
 0
LINE
 8
TOOL_0
 5
55
 10
1198.612
 20
697.126
 30
0
 11
1198.612
 21
1348.626
 31
0
 0
LINE
 8
TOOL_0
 5
56
 10
1198.612
 20
1348.626
 30
0
 11
2335.112
 21
1348.626
 31
0
 0
LINE
 8
TOOL_0
 5
57
 10
2335.112
 20
1348.626
 30
0
 11
2335.112
 21
697.126
 31
0
 0
LINE
 8
TOOL_0
 5
58
 10
2335.112
 20
697.126
 30
0
 11
2335.112
 21
687.72
 31
0
 0
LINE
 8
TOOL_0
 5
59
 10
2335.112
 20
687.72
 30
0
 11
2247.192
 21
1404.055
 31
0
 0
LINE
 8
TOOL_0
 5
5A
 10
2247.192
 20
1404.055
 30
0
 11
2247.192
 21
1377.713
 31
0
 0
LINE
 8
TOOL_0
 5
5B
 10
2247.192
 20
1377.713
 30
0
 11
2214.736
 21
1379.702
 31
0
 0
LINE
 8
TOOL_0
 5
5C
 10
2214.736
 20
1379.702
 30
0
 11
1933.236
 21
1379.702
 31
0
 0
LINE
 8
TOOL_0
 5
5D
 10
1933.236
 20
1379.702
 30
0
 11
1933.236
 21
1661.202
 31
0
 0
LINE
 8
TOOL_0
 5
5E
 10
1933.236
 20
1661.202
 30
0
 11
2214.736
 21
1661.202
 31
0
 0
LINE
 8
TOOL_0
 5
5F
 10
2214.736
 20
1661.202
 30
0
 11
2214.736
 21
1379.702
 31
0
 0
LINE
 8
TOOL_0
 5
60
 10
2214.736
 20
1379.702
 30
0
 11
2214.736
 21
1367.899
 31
0
 0
LINE
 8
TOOL_0
 5
61
 10
2214.736
 20
1367.899
 30
0
 11
2246.592
 21
1705.657
 31
0
 0
LINE
 8
TOOL_0
 5
62
 10
2246.592
 20
1705.657
 30
0
 11
2246.592
 21
1679.315
 31
0
 0
LINE
 8
TOOL_0
 5
63
 10
2246.592
 20
1679.315
 30
0
 11
2214.136
 21
1681.304
 31
0
 0
LINE
 8
TOOL_0
 5
64
 10
2214.136
 20
1681.304
 30
0
 11
1932.636
 21
1681.304
 31
0
 0
LINE
 8
TOOL_0
 5
65
 10
1932.636
 20
1681.304
 30
0
 11
1932.636
 21
1962.804
 31
0
 0
LINE
 8
TOOL_0
 5
66
 10
1932.636
 20
1962.804
 30
0
 11
2214.136
 21
1962.804
 31
0
 0
LINE
 8
TOOL_0
 5
67
 10
2214.136
 20
1962.804
 30
0
 11
2214.136
 21
1681.304
 31
0
 0
LINE
 8
TOOL_0
 5
68
 10
2214.136
 20
1681.304
 30
0
 11
2214.136
 21
1669.501
 31
0
 0
LINE
 8
TOOL_0
 5
69
 10
2214.136
 20
1669.501
 30
0
 11
2582.462
 21
1406.797
 31
0
 0
LINE
 8
TOOL_0
 5
6A
 10
2582.462
 20
1406.797
 30
0
 11
2582.462
 21
1380.455
 31
0
 0
LINE
 8
TOOL_0
 5
6B
 10
2582.462
 20
1380.455
 30
0
 11
2550.006
 21
1382.444
 31
0
 0
LINE
 8
TOOL_0
 5
6C
 10
2550.006
 20
1382.444
 30
0
 11
2268.506
 21
1382.444
 31
0
 0
LINE
 8
TOOL_0
 5
6D
 10
2268.506
 20
1382.444
 30
0
 11
2268.506
 21
1663.944
 31
0
 0
LINE
 8
TOOL_0
 5
6E
 10
2268.506
 20
1663.944
 30
0
 11
2550.006
 21
1663.944
 31
0
 0
LINE
 8
TOOL_0
 5
6F
 10
2550.006
 20
1663.944
 30
0
 11
2550.006
 21
1382.444
 31
0
 0
LINE
 8
TOOL_0
 5
70
 10
2550.006
 20
1382.444
 30
0
 11
2550.006
 21
1370.641
 31
0
 0
LINE
 8
TOOL_0
 5
71
 10
2550.006
 20
1370.641
 30
0
 11
2581.862
 21
1708.398
 31
0
 0
LINE
 8
TOOL_0
 5
72
 10
2581.862
 20
1708.398
 30
0
 11
2581.862
 21
1682.056
 31
0
 0
LINE
 8
TOOL_0
 5
73
 10
2581.862
 20
1682.056
 30
0
 11
2549.406
 21
1684.045
 31
0
 0
LINE
 8
TOOL_0
 5
74
 10
2549.406
 20
1684.045
 30
0
 11
2267.906
 21
1684.045
 31
0
 0
LINE
 8
TOOL_0
 5
75
 10
2267.906
 20
1684.045
 30
0
 11
2267.906
 21
1965.545
 31
0
 0
LINE
 8
TOOL_0
 5
76
 10
2267.906
 20
1965.545
 30
0
 11
2549.406
 21
1965.545
 31
0
 0
LINE
 8
TOOL_0
 5
77
 10
2549.406
 20
1965.545
 30
0
 11
2549.406
 21
1684.045
 31
0
 0
LINE
 8
TOOL_0
 5
78
 10
2549.406
 20
1684.045
 30
0
 11
2549.406
 21
1672.242
 31
0
 0
LINE
 8
TOOL_0
 5
79
 10
2549.406
 20
1672.242
 30
0
 11
2926.175
 21
1408.928
 31
0
 0
LINE
 8
TOOL_0
 5
7A
 10
2926.175
 20
1408.928
 30
0
 11
2926.175
 21
1382.586
 31
0
 0
LINE
 8
TOOL_0
 5
7B
 10
2926.175
 20
1382.586
 30
0
 11
2893.719
 21
1384.575
 31
0
 0
LINE
 8
TOOL_0
 5
7C
 10
2893.719
 20
1384.575
 30
0
 11
2612.219
 21
1384.575
 31
0
 0
LINE
 8
TOOL_0
 5
7D
 10
2612.219
 20
1384.575
 30
0
 11
2612.219
 21
1666.075
 31
0
 0
LINE
 8
TOOL_0
 5
7E
 10
2612.219
 20
1666.075
 30
0
 11
2893.719
 21
1666.075
 31
0
 0
LINE
 8
TOOL_0
 5
7F
 10
2893.719
 20
1666.075
 30
0
 11
2893.719
 21
1384.575
 31
0
 0
LINE
 8
TOOL_0
 5
80
 10
2893.719
 20
1384.575
 30
0
 11
2893.719
 21
1372.772
 31
0
 0
LINE
 8
TOOL_0
 5
81
 10
2893.719
 20
1372.772
 30
0
 11
2925.575
 21
1710.529
 31
0
 0
LINE
 8
TOOL_0
 5
82
 10
2925.575
 20
1710.529
 30
0
 11
2925.575
 21
1684.187
 31
0
 0
LINE
 8
TOOL_0
 5
83
 10
2925.575
 20
1684.187
 30
0
 11
2893.119
 21
1686.176
 31
0
 0
LINE
 8
TOOL_0
 5
84
 10
2893.119
 20
1686.176
 30
0
 11
2611.619
 21
1686.176
 31
0
 0
LINE
 8
TOOL_0
 5
85
 10
2611.619
 20
1686.176
 30
0
 11
2611.619
 21
1967.676
 31
0
 0
LINE
 8
TOOL_0
 5
86
 10
2611.619
 20
1967.676
 30
0
 11
2893.119
 21
1967.676
 31
0
 0
LINE
 8
TOOL_0
 5
87
 10
2893.119
 20
1967.676
 30
0
 11
2893.119
 21
1686.176
 31
0
 0
LINE
 8
TOOL_0
 5
88
 10
2893.119
 20
1686.176
 30
0
 11
2893.119
 21
1674.373
 31
0
 0
LINE
 8
TOOL_0
 5
89
 10
2893.119
 20
1674.373
 30
0
 11
3442.392
 21
722.623
 31
0
 0
LINE
 8
TOOL_0
 5
8A
 10
3442.392
 20
722.623
 30
0
 11
3442.392
 21
696.816
 31
0
 0
LINE
 8
TOOL_0
 5
8B
 10
3442.392
 20
696.816
 30
0
 11
3409.606
 21
696.942
 31
0
 0
LINE
 8
TOOL_0
 5
8C
 10
3409.606
 20
696.942
 30
0
 11
2428.106
 21
696.942
 31
0
 0
LINE
 8
TOOL_0
 5
8D
 10
2428.106
 20
696.942
 30
0
 11
2428.106
 21
1358.442
 31
0
 0
LINE
 8
TOOL_0
 5
8E
 10
2428.106
 20
1358.442
 30
0
 11
3409.606
 21
1358.442
 31
0
 0
LINE
 8
TOOL_0
 5
8F
 10
3409.606
 20
1358.442
 30
0
 11
3409.606
 21
696.942
 31
0
 0
LINE
 8
TOOL_0
 5
90
 10
3409.606
 20
696.942
 30
0
 11
3409.606
 21
687.497
 31
0
 0
LINE
 8
TOOL_0
 5
91
 10
3409.606
 20
687.497
 30
0
 11
3255.882
 21
1404.232
 31
0
 0
LINE
 8
TOOL_0
 5
92
 10
3255.882
 20
1404.232
 30
0
 11
3255.882
 21
1377.89
 31
0
 0
LINE
 8
TOOL_0
 5
93
 10
3255.882
 20
1377.89
 30
0
 11
3223.426
 21
1379.879
 31
0
 0
LINE
 8
TOOL_0
 5
94
 10
3223.426
 20
1379.879
 30
0
 11
2941.926
 21
1379.879
 31
0
 0
LINE
 8
TOOL_0
 5
95
 10
2941.926
 20
1379.879
 30
0
 11
2941.926
 21
1661.379
 31
0
 0
LINE
 8
TOOL_0
 5
96
 10
2941.926
 20
1661.379
 30
0
 11
3223.426
 21
1661.379
 31
0
 0
LINE
 8
TOOL_0
 5
97
 10
3223.426
 20
1661.379
 30
0
 11
3223.426
 21
1379.879
 31
0
 0
LINE
 8
TOOL_0
 5
98
 10
3223.426
 20
1379.879
 30
0
 11
3223.426
 21
1368.076
 31
0
 0
LINE
 8
TOOL_0
 5
99
 10
3223.426
 20
1368.076
 30
0
 11
3254.982
 21
1705.833
 31
0
 0
LINE
 8
TOOL_0
 5
9A
 10
3254.982
 20
1705.833
 30
0
 11
3254.982
 21
1679.491
 31
0
 0
LINE
 8
TOOL_0
 5
9B
 10
3254.982
 20
1679.491
 30
0
 11
3222.526
 21
1681.48
 31
0
 0
LINE
 8
TOOL_0
 5
9C
 10
3222.526
 20
1681.48
 30
0
 11
2941.026
 21
1681.48
 31
0
 0
LINE
 8
TOOL_0
 5
9D
 10
2941.026
 20
1681.48
 30
0
 11
2941.026
 21
1962.98
 31
0
 0
LINE
 8
TOOL_0
 5
9E
 10
2941.026
 20
1962.98
 30
0
 11
3222.526
 21
1962.98
 31
0
 0
LINE
 8
TOOL_0
 5
9F
 10
3222.526
 20
1962.98
 30
0
 11
3222.526
 21
1681.48
 31
0
 0
LINE
 8
TOOL_0
 5
A0
 10
3222.526
 20
1681.48
 30
0
 11
3222.526
 21
1669.677
 31
0
 0
LINE
 8
TOOL_0
 5
A1
 10
3222.526
 20
1669.677
 30
0
 11
3586.88
 21
1404.966
 31
0
 0
LINE
 8
TOOL_0
 5
A2
 10
3586.88
 20
1404.966
 30
0
 11
3586.88
 21
1378.624
 31
0
 0
LINE
 8
TOOL_0
 5
A3
 10
3586.88
 20
1378.624
 30
0
 11
3554.424
 21
1380.613
 31
0
 0
LINE
 8
TOOL_0
 5
A4
 10
3554.424
 20
1380.613
 30
0
 11
3272.924
 21
1380.613
 31
0
 0
LINE
 8
TOOL_0
 5
A5
 10
3272.924
 20
1380.613
 30
0
 11
3272.924
 21
1662.113
 31
0
 0
LINE
 8
TOOL_0
 5
A6
 10
3272.924
 20
1662.113
 30
0
 11
3554.424
 21
1662.113
 31
0
 0
LINE
 8
TOOL_0
 5
A7
 10
3554.424
 20
1662.113
 30
0
 11
3554.424
 21
1380.613
 31
0
 0
LINE
 8
TOOL_0
 5
A8
 10
3554.424
 20
1380.613
 30
0
 11
3554.424
 21
1368.81
 31
0
 0
LINE
 8
TOOL_0
 5
A9
 10
3554.424
 20
1368.81
 30
0
 11
3576.804
 21
1709.597
 31
0
 0
LINE
 8
TOOL_0
 5
AA
 10
3576.804
 20
1709.597
 30
0
 11
3576.804
 21
1685.409
 31
0
 0
LINE
 8
TOOL_0
 5
AB
 10
3576.804
 20
1685.409
 30
0
 11
3556.788
 21
1685.683
 31
0
 0
LINE
 8
TOOL_0
 5
AC
 10
3556.788
 20
1685.683
 30
0
 11
3275.288
 21
1685.683
 31
0
 0
LINE
 8
TOOL_0
 5
AD
 10
3275.288
 20
1685.683
 30
0
 11
3275.288
 21
1967.183
 31
0
 0
LINE
 8
TOOL_0
 5
AE
 10
3275.288
 20
1967.183
 30
0
 11
3556.788
 21
1967.183
 31
0
 0
LINE
 8
TOOL_0
 5
AF
 10
3556.788
 20
1967.183
 30
0
 11
3556.788
 21
1685.683
 31
0
 0
LINE
 8
TOOL_0
 5
B0
 10
3556.788
 20
1685.683
 30
0
 11
3556.788
 21
1677.548
 31
0
 0
LINE
 8
TOOL_0
 5
B1
 10
3556.788
 20
1677.548
 30
0
 11
3918.533
 21
1411.384
 31
0
 0
LINE
 8
TOOL_0
 5
B2
 10
3918.533
 20
1411.384
 30
0
 11
3918.533
 21
1385.042
 31
0
 0
LINE
 8
TOOL_0
 5
B3
 10
3918.533
 20
1385.042
 30
0
 11
3886.077
 21
1387.031
 31
0
 0
LINE
 8
TOOL_0
 5
B4
 10
3886.077
 20
1387.031
 30
0
 11
3604.577
 21
1387.031
 31
0
 0
LINE
 8
TOOL_0
 5
B5
 10
3604.577
 20
1387.031
 30
0
 11
3604.577
 21
1668.531
 31
0
 0
LINE
 8
TOOL_0
 5
B6
 10
3604.577
 20
1668.531
 30
0
 11
3886.077
 21
1668.531
 31
0
 0
LINE
 8
TOOL_0
 5
B7
 10
3886.077
 20
1668.531
 30
0
 11
3886.077
 21
1387.031
 31
0
 0
LINE
 8
TOOL_0
 5
B8
 10
3886.077
 20
1387.031
 30
0
 11
3886.077
 21
1375.228
 31
0
 0
LINE
 8
TOOL_0
 5
B9
 10
3886.077
 20
1375.228
 30
0
 11
3917.632
 21
1712.985
 31
0
 0
LINE
 8
TOOL_0
 5
BA
 10
3917.632
 20
1712.985
 30
0
 11
3917.632
 21
1686.643
 31
0
 0
LINE
 8
TOOL_0
 5
BB
 10
3917.632
 20
1686.643
 30
0
 11
3885.176
 21
1688.632
 31
0
 0
LINE
 8
TOOL_0
 5
BC
 10
3885.176
 20
1688.632
 30
0
 11
3603.676
 21
1688.632
 31
0
 0
LINE
 8
TOOL_0
 5
BD
 10
3603.676
 20
1688.632
 30
0
 11
3603.676
 21
1970.132
 31
0
 0
LINE
 8
TOOL_0
 5
BE
 10
3603.676
 20
1970.132
 30
0
 11
3885.176
 21
1970.132
 31
0
 0
LINE
 8
TOOL_0
 5
BF
 10
3885.176
 20
1970.132
 30
0
 11
3885.176
 21
1688.632
 31
0
 0
LINE
 8
TOOL_0
 5
C0
 10
3885.176
 20
1688.632
 30
0
 11
3885.176
 21
1676.829
 31
0
 0
LINE
 8
TOOL_0
 5
C1
 10
3885.176
 20
1676.829
 30
0
 11
4515.787
 21
727.67
 31
0
 0
LINE
 8
TOOL_0
 5
C2
 10
4515.787
 20
727.67
 30
0
 11
4515.787
 21
695.932
 31
0
 0
LINE
 8
TOOL_0
 5
C3
 10
4515.787
 20
695.932
 30
0
 11
4479.383
 21
696.941
 31
0
 0
LINE
 8
TOOL_0
 5
C4
 10
4479.383
 20
696.941
 30
0
 11
3497.883
 21
696.941
 31
0
 0
LINE
 8
TOOL_0
 5
C5
 10
3497.883
 20
696.941
 30
0
 11
3497.883
 21
1358.441
 31
0
 0
LINE
 8
TOOL_0
 5
C6
 10
3497.883
 20
1358.441
 30
0
 11
4479.383
 21
1358.441
 31
0
 0
LINE
 8
TOOL_0
 5
C7
 10
4479.383
 20
1358.441
 30
0
 11
4479.383
 21
696.941
 31
0
 0
LINE
 8
TOOL_0
 5
C8
 10
4479.383
 20
696.941
 30
0
 11
4479.383
 21
687.863
 31
0
 0
LINE
 8
TOOL_0
 5
C9
 10
4479.383
 20
687.863
 30
0
 11
4257.226
 21
1404.261
 31
0
 0
LINE
 8
TOOL_0
 5
CA
 10
4257.226
 20
1404.261
 30
0
 11
4257.226
 21
1377.919
 31
0
 0
LINE
 8
TOOL_0
 5
CB
 10
4257.226
 20
1377.919
 30
0
 11
4224.77
 21
1379.908
 31
0
 0
LINE
 8
TOOL_0
 5
CC
 10
4224.77
 20
1379.908
 30
0
 11
3943.27
 21
1379.908
 31
0
 0
LINE
 8
TOOL_0
 5
CD
 10
3943.27
 20
1379.908
 30
0
 11
3943.27
 21
1661.408
 31
0
 0
LINE
 8
TOOL_0
 5
CE
 10
3943.27
 20
1661.408
 30
0
 11
4224.77
 21
1661.408
 31
0
 0
LINE
 8
TOOL_0
 5
CF
 10
4224.77
 20
1661.408
 30
0
 11
4224.77
 21
1379.908
 31
0
 0
LINE
 8
TOOL_0
 5
D0
 10
4224.77
 20
1379.908
 30
0
 11
4224.77
 21
1368.105
 31
0
 0
LINE
 8
TOOL_0
 5
D1
 10
4224.77
 20
1368.105
 30
0
 11
4254.526
 21
1709.521
 31
0
 0
LINE
 8
TOOL_0
 5
D2
 10
4254.526
 20
1709.521
 30
0
 11
4254.526
 21
1683.178
 31
0
 0
LINE
 8
TOOL_0
 5
D3
 10
4254.526
 20
1683.178
 30
0
 11
4222.07
 21
1685.167
 31
0
 0
LINE
 8
TOOL_0
 5
D4
 10
4222.07
 20
1685.167
 30
0
 11
3940.57
 21
1685.167
 31
0
 0
LINE
 8
TOOL_0
 5
D5
 10
3940.57
 20
1685.167
 30
0
 11
3940.57
 21
1966.667
 31
0
 0
LINE
 8
TOOL_0
 5
D6
 10
3940.57
 20
1966.667
 30
0
 11
4222.07
 21
1966.667
 31
0
 0
LINE
 8
TOOL_0
 5
D7
 10
4222.07
 20
1966.667
 30
0
 11
4222.07
 21
1685.167
 31
0
 0
LINE
 8
TOOL_0
 5
D8
 10
4222.07
 20
1685.167
 30
0
 11
4222.07
 21
1673.364
 31
0
 0
LINE
 8
TOOL_0
 5
D9
 10
4222.07
 20
1673.364
 30
0
 11
4600.382
 21
1405.31
 31
0
 0
LINE
 8
TOOL_0
 5
DA
 10
4600.382
 20
1405.31
 30
0
 11
4600.382
 21
1378.967
 31
0
 0
LINE
 8
TOOL_0
 5
DB
 10
4600.382
 20
1378.967
 30
0
 11
4567.926
 21
1380.956
 31
0
 0
LINE
 8
TOOL_0
 5
DC
 10
4567.926
 20
1380.956
 30
0
 11
4286.426
 21
1380.956
 31
0
 0
LINE
 8
TOOL_0
 5
DD
 10
4286.426
 20
1380.956
 30
0
 11
4286.426
 21
1662.456
 31
0
 0
LINE
 8
TOOL_0
 5
DE
 10
4286.426
 20
1662.456
 30
0
 11
4567.926
 21
1662.456
 31
0
 0
LINE
 8
TOOL_0
 5
DF
 10
4567.926
 20
1662.456
 30
0
 11
4567.926
 21
1380.956
 31
0
 0
LINE
 8
TOOL_0
 5
E0
 10
4567.926
 20
1380.956
 30
0
 11
4567.926
 21
1369.153
 31
0
 0
LINE
 8
TOOL_0
 5
E1
 10
4567.926
 20
1369.153
 30
0
 11
4597.547
 21
1710.111
 31
0
 0
LINE
 8
TOOL_0
 5
E2
 10
4597.547
 20
1710.111
 30
0
 11
4597.547
 21
1683.769
 31
0
 0
LINE
 8
TOOL_0
 5
E3
 10
4597.547
 20
1683.769
 30
0
 11
4565.091
 21
1685.758
 31
0
 0
LINE
 8
TOOL_0
 5
E4
 10
4565.091
 20
1685.758
 30
0
 11
4283.591
 21
1685.758
 31
0
 0
LINE
 8
TOOL_0
 5
E5
 10
4283.591
 20
1685.758
 30
0
 11
4283.591
 21
1967.258
 31
0
 0
LINE
 8
TOOL_0
 5
E6
 10
4283.591
 20
1967.258
 30
0
 11
4565.091
 21
1967.258
 31
0
 0
LINE
 8
TOOL_0
 5
E7
 10
4565.091
 20
1967.258
 30
0
 11
4565.091
 21
1685.758
 31
0
 0
LINE
 8
TOOL_0
 5
E8
 10
4565.091
 20
1685.758
 30
0
 11
4565.091
 21
1673.955
 31
0
 0
LINE
 8
TOOL_0
 5
E9
 10
4565.091
 20
1673.955
 30
0
 11
3410.579
 21
627.016
 31
0
 0
LINE
 8
TOOL_0
 5
EA
 10
3410.579
 20
627.016
 30
0
 11
4742.88
 21
627.016
 31
0
 0
LINE
 8
TOOL_0
 5
EB
 10
4742.88
 20
627.016
 30
0
 11
4742.88
 21
1998.996
 31
0
 0
LINE
 8
TOOL_0
 5
EC
 10
4742.88
 20
1998.996
 30
0
 11
4742.88
 21
1999.996
 31
0
 0
ENDSEC
 0
EOF

