0
SECTION
2
TABLES
0
TABLE
2
LAYER
70
0
0
LAYER
2
LAYER_NAME
70
0
62
1
6
CONTINUOUS
0
ENDTAB
0
ENDSEC
 0
SECTION
 2
ENTITIES
 0
LINE
 8
TOOL_0
 5
1
 10
431.55
 20
8.3
 30
0
 11
408.0
 21
8.001
 31
0
 0
LINE
 8
TOOL_0
 5
2
 10
408.0
 20
8.001
 30
0
 11
8.0
 21
8.001
 31
0
 0
LINE
 8
TOOL_0
 5
3
 10
8.0
 20
8.001
 30
0
 11
8.0
 21
408.001
 31
0
 0
LINE
 8
TOOL_0
 5
4
 10
8.0
 20
408.001
 30
0
 11
408.0
 21
408.001
 31
0
 0
LINE
 8
TOOL_0
 5
5
 10
408.0
 20
408.001
 30
0
 11
408.0
 21
8.001
 31
0
 0
LINE
 8
TOOL_0
 5
6
 10
408.0
 20
8.001
 30
0
 11
408.126
 21
4.268
 31
0
 0
LINE
 8
TOOL_0
 5
7
 10
408.126
 20
4.268
 30
0
 11
425.678
 21
410.579
 31
0
 0
LINE
 8
TOOL_0
 5
8
 10
425.678
 20
410.579
 30
0
 11
408.0
 21
428.257
 31
0
 0
LINE
 8
TOOL_0
 5
9
 10
408.0
 20
428.257
 30
0
 11
8.0
 21
428.257
 31
0
 0
LINE
 8
TOOL_0
 5
A
 10
8.0
 20
428.257
 30
0
 11
8.0
 21
713.257
 31
0
 0
LINE
 8
TOOL_0
 5
B
 10
8.0
 20
713.257
 30
0
 11
408.0
 21
713.257
 31
0
 0
LINE
 8
TOOL_0
 5
C
 10
408.0
 20
713.257
 30
0
 11
408.0
 21
428.257
 31
0
 0
LINE
 8
TOOL_0
 5
D
 10
408.0
 20
428.257
 30
0
 11
404.464
 21
424.721
 31
0
 0
LINE
 8
TOOL_0
 5
E
 10
404.464
 20
424.721
 30
0
 11
425.678
 21
715.853
 31
0
 0
LINE
 8
TOOL_0
 5
F
 10
425.678
 20
715.853
 30
0
 11
408.0
 21
733.53
 31
0
 0
LINE
 8
TOOL_0
 5
10
 10
408.0
 20
733.53
 30
0
 11
8.0
 21
733.53
 31
0
 0
LINE
 8
TOOL_0
 5
11
 10
8.0
 20
733.53
 30
0
 11
8.0
 21
983.53
 31
0
 0
LINE
 8
TOOL_0
 5
12
 10
8.0
 20
983.53
 30
0
 11
408.0
 21
983.53
 31
0
 0
LINE
 8
TOOL_0
 5
13
 10
408.0
 20
983.53
 30
0
 11
408.0
 21
733.53
 31
0
 0
LINE
 8
TOOL_0
 5
14
 10
408.0
 20
733.53
 30
0
 11
404.464
 21
729.994
 31
0
 0
LINE
 8
TOOL_0
 5
15
 10
404.464
 20
729.994
 30
0
 11
326.59
 21
1004.869
 31
0
 0
LINE
 8
TOOL_0
 5
16
 10
326.59
 20
1004.869
 30
0
 11
293.0
 21
1003.556
 31
0
 0
LINE
 8
TOOL_0
 5
17
 10
293.0
 20
1003.556
 30
0
 11
8.0
 21
1003.556
 31
0
 0
LINE
 8
TOOL_0
 5
18
 10
8.0
 20
1003.556
 30
0
 11
8.0
 21
1253.556
 31
0
 0
LINE
 8
TOOL_0
 5
19
 10
8.0
 20
1253.556
 30
0
 11
293.0
 21
1253.556
 31
0
 0
LINE
 8
TOOL_0
 5
1A
 10
293.0
 20
1253.556
 30
0
 11
293.0
 21
1003.556
 31
0
 0
LINE
 8
TOOL_0
 5
1B
 10
293.0
 20
1003.556
 30
0
 11
292.861
 21
997.467
 31
0
 0
LINE
 8
TOOL_0
 5
1C
 10
292.861
 20
997.467
 30
0
 11
0
 21
1288.189
 31
0
 0
LINE
 8
TOOL_0
 5
1D
 10
0
 20
1288.189
 30
0
 11
1.0
 21
1288.189
 31
0
 0
LINE
 8
TOOL_0
 5
1E
 10
1.0
 20
1288.189
 30
0
 11
0
 21
1288.189
 31
0
 0
LINE
 8
TOOL_0
 5
1F
 10
0
 20
1288.189
 30
0
 11
1.0
 21
1288.189
 31
0
 0
LINE
 8
TOOL_0
 5
20
 10
1.0
 20
1288.189
 30
0
 11
488.801
 21
1288.189
 31
0
 0
LINE
 8
TOOL_0
 5
21
 10
488.801
 20
1288.189
 30
0
 11
488.801
 21
0.998
 31
0
 0
LINE
 8
TOOL_0
 5
22
 10
488.801
 20
0.998
 30
0
 11
488.801
 21
-0.002
 31
0
 0
ENDSEC
 0
EOF

