0
SECTION
2
TABLES
0
TABLE
2
LAYER
70
0
0
LAYER
2
LAYER_NAME
70
0
62
1
6
CONTINUOUS
0
ENDTAB
0
ENDSEC
 0
SECTION
 2
ENTITIES
 0
LINE
 8
TOOL_0
 5
1
 10
366.178
 20
472.135
 30
0
 11
393.087
 21
464.895
 31
0
 0
LINE
 8
TOOL_0
 5
2
 10
393.087
 20
464.895
 30
0
 11
669.918
 21
390.718
 31
0
 0
ARC
 8
TOOL_0
 5
3
 10
721.423
 20
582.937
 30
0
 40
198.999771321477
 50
254.999979369909
 51
274.798598679837
210
0
220
0
230
1.0
 0
LINE
 8
TOOL_0
 5
4
 10
738.07
 20
384.635
 30
0
 11
933.284
 21
401.024
 31
0
 0
ARC
 8
TOOL_0
 5
5
 10
950.099
 20
200.729
 30
0
 40
200.999580223442
 50
74.999890871402
 51
94.798795303275
210
0
220
0
230
1.0
 0
LINE
 8
TOOL_0
 5
6
 10
1002.122
 20
394.88
 30
0
 11
1325.332
 21
308.276
 31
0
 0
ARC
 8
TOOL_0
 5
7
 10
1312.354
 20
259.932
 30
0
 40
50.055677200494
 50
28.292460602583
 51
74.973172525056
210
0
220
0
230
1.0
 0
LINE
 8
TOOL_0
 5
8
 10
1356.43
 20
283.657
 30
0
 11
1382.677
 21
234.839
 31
0
 0
ARC
 8
TOOL_0
 5
9
 10
1293.279
 20
186.775
 30
0
 40
101.499509851033
 50
346.109291997916
 51
28.264282148061
210
0
220
0
230
1.0
 0
ARC
 8
TOOL_0
 5
A
 10
258.615
 20
453.304
 30
0
 40
1169.93649008867
 50
344.49324323751
 51
345.60279978273
210
0
220
0
230
1.0
 0
ARC
 8
TOOL_0
 5
B
 10
1287.871
 20
166.836
 30
0
 40
101.562873753158
 50
301.749384210159
 51
344.98213108218
210
0
220
0
230
1.0
 0
LINE
 8
TOOL_0
 5
C
 10
1341.314
 20
80.471
 30
0
 11
1294.175
 21
51.317
 31
0
 0
ARC
 8
TOOL_0
 5
D
 10
1267.866
 20
93.901
 30
0
 40
50.055574484766
 50
255.027587120105
 51
301.708361263093
210
0
220
0
230
1.0
 0
LINE
 8
TOOL_0
 5
E
 10
1254.934
 20
45.545
 30
0
 11
931.724
 21
132.149
 31
0
 0
ARC
 8
TOOL_0
 5
F
 10
983.747
 20
326.3
 30
0
 40
201.000008283582
 50
235.200894941248
 51
254.999890871402
210
0
220
0
230
1.0
 0
LINE
 8
TOOL_0
 5
10
 10
869.036
 20
161.247
 30
0
 11
708.172
 21
273.046
 31
0
 0
ARC
 8
TOOL_0
 5
11
 10
594.603
 20
109.635
 30
0
 40
199.000182618007
 50
55.201088410582
 51
74.999979369909
210
0
220
0
230
1.0
 0
LINE
 8
TOOL_0
 5
12
 10
646.108
 20
301.854
 30
0
 11
369.277
 21
376.031
 31
0
 0
ARC
 8
TOOL_0
 5
13
 10
377.042
 20
405.009
 30
0
 40
30.000328481535
 50
164.999320570874
 51
254.999320570874
210
0
220
0
230
1.0
 0
LINE
 8
TOOL_0
 5
14
 10
348.064
 20
412.774
 30
0
 11
356.346
 21
443.683
 31
0
 0
ARC
 8
TOOL_0
 5
15
 10
385.324
 20
435.918
 30
0
 40
30.000328481535
 50
75.001165343167
 51
164.999320570874
210
0
220
0
230
1.0
 0
LINE
 8
TOOL_0
 5
16
 10
393.088
 20
464.896
 30
0
 11
398.155
 21
464.747
 31
0
 0
LINE
 8
TOOL_0
 5
17
 10
398.155
 20
464.747
 30
0
 11
1418.26
 21
454.449
 31
0
 0
LINE
 8
TOOL_0
 5
18
 10
1418.26
 20
454.449
 30
0
 11
1409.783
 21
425.316
 31
0
 0
LINE
 8
TOOL_0
 5
19
 10
1409.783
 20
425.316
 30
0
 11
1401.501
 21
394.406
 31
0
 0
ARC
 8
TOOL_0
 5
1A
 10
1372.523
 20
402.171
 30
0
 40
30.000328481535
 50
255.001165343167
 51
344.999320570874
210
0
220
0
230
1.0
 0
LINE
 8
TOOL_0
 5
1B
 10
1364.759
 20
373.193
 30
0
 11
1087.928
 21
447.37
 31
0
 0
ARC
 8
TOOL_0
 5
1C
 10
1036.423
 20
255.151
 30
0
 40
198.999771321477
 50
74.999979369909
 51
94.798885589729
210
0
220
0
230
1.0
 0
LINE
 8
TOOL_0
 5
1D
 10
1019.775
 20
453.453
 30
0
 11
824.562
 21
437.064
 31
0
 0
ARC
 8
TOOL_0
 5
1E
 10
807.747
 20
637.359
 30
0
 40
200.999580223442
 50
254.999541751834
 51
274.798795303275
210
0
220
0
230
1.0
 0
LINE
 8
TOOL_0
 5
1F
 10
755.723
 20
443.209
 30
0
 11
432.514
 21
529.813
 31
0
 0
ARC
 8
TOOL_0
 5
20
 10
445.492
 20
578.157
 30
0
 40
50.055677200494
 50
208.291452690893
 51
254.973172525056
210
0
220
0
230
1.0
 0
LINE
 8
TOOL_0
 5
21
 10
401.416
 20
554.433
 30
0
 11
375.17
 21
603.251
 31
0
 0
ARC
 8
TOOL_0
 5
22
 10
464.568
 20
651.315
 30
0
 40
101.499509851033
 50
166.108744013295
 51
208.264282148061
210
0
220
0
230
1.0
 0
ARC
 8
TOOL_0
 5
23
 10
1499.232
 20
384.786
 30
0
 40
1169.93673873163
 50
164.493539475048
 51
165.602752347324
210
0
220
0
230
1.0
 0
ARC
 8
TOOL_0
 5
24
 10
469.977
 20
671.254
 30
0
 40
101.563250917839
 50
121.749863928238
 51
164.985692666389
210
0
220
0
230
1.0
 0
LINE
 8
TOOL_0
 5
25
 10
416.533
 20
757.619
 30
0
 11
463.672
 21
786.773
 31
0
 0
ARC
 8
TOOL_0
 5
26
 10
489.981
 20
744.189
 30
0
 40
50.055574484767
 50
75.027587120106
 51
121.708361263093
210
0
220
0
230
1.0
 0
LINE
 8
TOOL_0
 5
27
 10
502.913
 20
792.545
 30
0
 11
826.123
 21
705.941
 31
0
 0
ARC
 8
TOOL_0
 5
28
 10
774.1
 20
511.79
 30
0
 40
201.000008283582
 50
55.200894941248
 51
74.999890871402
210
0
220
0
230
1.0
 0
LINE
 8
TOOL_0
 5
29
 10
888.811
 20
676.843
 30
0
 11
1049.676
 21
565.044
 31
0
 0
ARC
 8
TOOL_0
 5
2A
 10
1163.245
 20
728.455
 30
0
 40
199.000182618007
 50
235.201088410582
 51
254.999701262072
210
0
220
0
230
1.0
 0
LINE
 8
TOOL_0
 5
2B
 10
1111.739
 20
536.236
 30
0
 11
1388.571
 21
462.059
 31
0
 0
ARC
 8
TOOL_0
 5
2C
 10
1380.806
 20
433.081
 30
0
 40
30.000328481535
 50
345.001165343168
 51
74.999320570874
210
0
220
0
230
1.0
 0
LINE
 8
TOOL_0
 5
2D
 10
1409.784
 20
425.317
 30
0
 11
1409.408
 21
419.959
 31
0
 0
ENDSEC
 0
EOF

