0
SECTION
2
TABLES
0
TABLE
2
LAYER
70
0
0
LAYER
2
LAYER_NAME
70
0
62
1
6
CONTINUOUS
0
ENDTAB
0
ENDSEC
 0
SECTION
 2
ENTITIES
 0
LINE
 8
TOOL_0
 5
1
 10
233.868
 20
474.531
 30
0
 11
263.868
 21
474.531
 31
0
 0
ARC
 8
TOOL_0
 5
2
 10
207.008
 20
474.531
 30
0
 40
56.86
 50
0
 51
180.0
210
0
220
0
230
1.0
 0
ARC
 8
TOOL_0
 5
3
 10
207.008
 20
474.531
 30
0
 40
56.86
 50
180.0
 51
0
210
0
220
0
230
1.0
 0
LINE
 8
TOOL_0
 5
4
 10
263.868
 20
474.531
 30
0
 11
318.297
 21
398.241
 31
0
 0
LINE
 8
TOOL_0
 5
5
 10
318.297
 20
398.241
 30
0
 11
283.297
 21
398.241
 31
0
 0
LINE
 8
TOOL_0
 5
6
 10
283.297
 20
398.241
 30
0
 11
280.398
 21
399.019
 31
0
 0
ARC
 8
TOOL_0
 5
7
 10
207.008
 20
474.531
 30
0
 40
105.30030505179
 50
134.999615250243
 51
314.183534039599
210
0
220
0
230
1.0
 0
ARC
 8
TOOL_0
 5
8
 10
207.008
 20
474.531
 30
0
 40
105.300220536331
 50
315.815696539485
 51
134.999615250243
210
0
220
0
230
1.0
 0
LINE
 8
TOOL_0
 5
9
 10
282.519
 20
401.14
 30
0
 11
283.297
 21
398.241
 31
0
 0
LINE
 8
TOOL_0
 5
A
 10
283.297
 20
398.241
 30
0
 11
283.297
 21
393.241
 31
0
 0
LINE
 8
TOOL_0
 5
B
 10
283.297
 20
393.241
 30
0
 11
202.03
 21
727.58
 31
0
 0
LINE
 8
TOOL_0
 5
C
 10
202.03
 20
727.58
 30
0
 11
232.03
 21
727.58
 31
0
 0
ARC
 8
TOOL_0
 5
D
 10
175.17
 20
727.58
 30
0
 40
56.86
 50
0
 51
180.0
210
0
220
0
230
1.0
 0
ARC
 8
TOOL_0
 5
E
 10
175.17
 20
727.58
 30
0
 40
56.86
 50
180.0
 51
0
210
0
220
0
230
1.0
 0
LINE
 8
TOOL_0
 5
F
 10
232.03
 20
727.58
 30
0
 11
286.459
 21
651.29
 31
0
 0
LINE
 8
TOOL_0
 5
10
 10
286.459
 20
651.29
 30
0
 11
251.459
 21
651.29
 31
0
 0
LINE
 8
TOOL_0
 5
11
 10
251.459
 20
651.29
 30
0
 11
248.56
 21
652.068
 31
0
 0
ARC
 8
TOOL_0
 5
12
 10
175.17
 20
727.58
 30
0
 40
105.30030505179
 50
134.999615250243
 51
314.183534039599
210
0
220
0
230
1.0
 0
ARC
 8
TOOL_0
 5
13
 10
175.17
 20
727.58
 30
0
 40
105.300220536331
 50
315.815696539485
 51
134.999615250243
210
0
220
0
230
1.0
 0
LINE
 8
TOOL_0
 5
14
 10
250.681
 20
654.189
 30
0
 11
251.459
 21
651.29
 31
0
 0
LINE
 8
TOOL_0
 5
15
 10
251.459
 20
651.29
 30
0
 11
251.459
 21
646.29
 31
0
 0
LINE
 8
TOOL_0
 5
16
 10
251.459
 20
646.29
 30
0
 11
214.275
 21
978.173
 31
0
 0
LINE
 8
TOOL_0
 5
17
 10
214.275
 20
978.173
 30
0
 11
244.275
 21
978.173
 31
0
 0
ARC
 8
TOOL_0
 5
18
 10
187.415
 20
978.173
 30
0
 40
56.86
 50
0
 51
180.0
210
0
220
0
230
1.0
 0
ARC
 8
TOOL_0
 5
19
 10
187.415
 20
978.173
 30
0
 40
56.86
 50
180.0
 51
0
210
0
220
0
230
1.0
 0
LINE
 8
TOOL_0
 5
1A
 10
244.275
 20
978.173
 30
0
 11
298.704
 21
901.883
 31
0
 0
LINE
 8
TOOL_0
 5
1B
 10
298.704
 20
901.883
 30
0
 11
263.704
 21
901.883
 31
0
 0
LINE
 8
TOOL_0
 5
1C
 10
263.704
 20
901.883
 30
0
 11
260.805
 21
902.661
 31
0
 0
ARC
 8
TOOL_0
 5
1D
 10
187.415
 20
978.173
 30
0
 40
105.30030505179
 50
134.999615250243
 51
314.183534039599
210
0
220
0
230
1.0
 0
ARC
 8
TOOL_0
 5
1E
 10
187.415
 20
978.173
 30
0
 40
105.300220536331
 50
315.815696539485
 51
134.999615250243
210
0
220
0
230
1.0
 0
LINE
 8
TOOL_0
 5
1F
 10
262.926
 20
904.782
 30
0
 11
263.704
 21
901.883
 31
0
 0
LINE
 8
TOOL_0
 5
20
 10
263.704
 20
901.883
 30
0
 11
263.704
 21
896.883
 31
0
 0
LINE
 8
TOOL_0
 5
21
 10
263.704
 20
896.883
 30
0
 11
488.576
 21
459.79
 31
0
 0
LINE
 8
TOOL_0
 5
22
 10
488.576
 20
459.79
 30
0
 11
518.576
 21
459.79
 31
0
 0
ARC
 8
TOOL_0
 5
23
 10
461.716
 20
459.79
 30
0
 40
56.86
 50
0
 51
180.0
210
0
220
0
230
1.0
 0
ARC
 8
TOOL_0
 5
24
 10
461.716
 20
459.79
 30
0
 40
56.86
 50
180.0
 51
0
210
0
220
0
230
1.0
 0
LINE
 8
TOOL_0
 5
25
 10
518.576
 20
459.79
 30
0
 11
573.004
 21
383.5
 31
0
 0
LINE
 8
TOOL_0
 5
26
 10
573.004
 20
383.5
 30
0
 11
538.004
 21
383.5
 31
0
 0
LINE
 8
TOOL_0
 5
27
 10
538.004
 20
383.5
 30
0
 11
535.105
 21
384.278
 31
0
 0
ARC
 8
TOOL_0
 5
28
 10
461.715
 20
459.79
 30
0
 40
105.30030505179
 50
134.999615250243
 51
314.183534039599
210
0
220
0
230
1.0
 0
ARC
 8
TOOL_0
 5
29
 10
461.715
 20
459.79
 30
0
 40
105.300220536331
 50
315.815696539485
 51
134.999615250243
210
0
220
0
230
1.0
 0
LINE
 8
TOOL_0
 5
2A
 10
537.226
 20
386.399
 30
0
 11
538.004
 21
383.5
 31
0
 0
LINE
 8
TOOL_0
 5
2B
 10
538.004
 20
383.5
 30
0
 11
538.004
 21
378.5
 31
0
 0
LINE
 8
TOOL_0
 5
2C
 10
538.004
 20
378.5
 30
0
 11
454.288
 21
727.58
 31
0
 0
LINE
 8
TOOL_0
 5
2D
 10
454.288
 20
727.58
 30
0
 11
484.288
 21
727.58
 31
0
 0
ARC
 8
TOOL_0
 5
2E
 10
427.428
 20
727.58
 30
0
 40
56.86
 50
0
 51
180.0
210
0
220
0
230
1.0
 0
ARC
 8
TOOL_0
 5
2F
 10
427.428
 20
727.58
 30
0
 40
56.86
 50
180.0
 51
0
210
0
220
0
230
1.0
 0
LINE
 8
TOOL_0
 5
30
 10
484.288
 20
727.58
 30
0
 11
538.717
 21
651.29
 31
0
 0
LINE
 8
TOOL_0
 5
31
 10
538.717
 20
651.29
 30
0
 11
503.717
 21
651.29
 31
0
 0
LINE
 8
TOOL_0
 5
32
 10
503.717
 20
651.29
 30
0
 11
500.818
 21
652.068
 31
0
 0
ARC
 8
TOOL_0
 5
33
 10
427.428
 20
727.58
 30
0
 40
105.30030505179
 50
134.999615250243
 51
314.183534039599
210
0
220
0
230
1.0
 0
ARC
 8
TOOL_0
 5
34
 10
427.428
 20
727.58
 30
0
 40
105.300220536331
 50
315.815696539485
 51
134.999615250243
210
0
220
0
230
1.0
 0
LINE
 8
TOOL_0
 5
35
 10
502.939
 20
654.189
 30
0
 11
503.717
 21
651.29
 31
0
 0
LINE
 8
TOOL_0
 5
36
 10
503.717
 20
651.29
 30
0
 11
503.717
 21
646.29
 31
0
 0
LINE
 8
TOOL_0
 5
37
 10
503.717
 20
646.29
 30
0
 11
468.983
 21
980.63
 31
0
 0
LINE
 8
TOOL_0
 5
38
 10
468.983
 20
980.63
 30
0
 11
498.983
 21
980.63
 31
0
 0
ARC
 8
TOOL_0
 5
39
 10
442.123
 20
980.63
 30
0
 40
56.86
 50
0
 51
180.0
210
0
220
0
230
1.0
 0
ARC
 8
TOOL_0
 5
3A
 10
442.123
 20
980.63
 30
0
 40
56.86
 50
180.0
 51
0
210
0
220
0
230
1.0
 0
LINE
 8
TOOL_0
 5
3B
 10
498.983
 20
980.63
 30
0
 11
553.412
 21
904.34
 31
0
 0
LINE
 8
TOOL_0
 5
3C
 10
553.412
 20
904.34
 30
0
 11
518.412
 21
904.34
 31
0
 0
LINE
 8
TOOL_0
 5
3D
 10
518.412
 20
904.34
 30
0
 11
515.513
 21
905.118
 31
0
 0
ARC
 8
TOOL_0
 5
3E
 10
442.123
 20
980.63
 30
0
 40
105.30030505179
 50
134.999615250243
 51
314.183534039599
210
0
220
0
230
1.0
 0
ARC
 8
TOOL_0
 5
3F
 10
442.123
 20
980.63
 30
0
 40
105.300220536331
 50
315.815696539485
 51
134.999615250243
210
0
220
0
230
1.0
 0
LINE
 8
TOOL_0
 5
40
 10
517.634
 20
907.239
 30
0
 11
518.412
 21
904.34
 31
0
 0
LINE
 8
TOOL_0
 5
41
 10
518.412
 20
904.34
 30
0
 11
518.412
 21
899.34
 31
0
 0
LINE
 8
TOOL_0
 5
42
 10
518.412
 20
899.34
 30
0
 11
456.737
 21
1258.247
 31
0
 0
LINE
 8
TOOL_0
 5
43
 10
456.737
 20
1258.247
 30
0
 11
486.737
 21
1258.247
 31
0
 0
ARC
 8
TOOL_0
 5
44
 10
429.877
 20
1258.247
 30
0
 40
56.86
 50
0
 51
180.0
210
0
220
0
230
1.0
 0
ARC
 8
TOOL_0
 5
45
 10
429.877
 20
1258.247
 30
0
 40
56.86
 50
180.0
 51
0
210
0
220
0
230
1.0
 0
LINE
 8
TOOL_0
 5
46
 10
486.737
 20
1258.247
 30
0
 11
541.166
 21
1181.958
 31
0
 0
LINE
 8
TOOL_0
 5
47
 10
541.166
 20
1181.958
 30
0
 11
506.166
 21
1181.958
 31
0
 0
LINE
 8
TOOL_0
 5
48
 10
506.166
 20
1181.958
 30
0
 11
503.267
 21
1182.736
 31
0
 0
ARC
 8
TOOL_0
 5
49
 10
429.877
 20
1258.248
 30
0
 40
105.30030505179
 50
134.999615250243
 51
314.183534039599
210
0
220
0
230
1.0
 0
ARC
 8
TOOL_0
 5
4A
 10
429.877
 20
1258.248
 30
0
 40
105.300220536331
 50
315.815696539485
 51
134.999615250243
210
0
220
0
230
1.0
 0
LINE
 8
TOOL_0
 5
4B
 10
505.388
 20
1184.857
 30
0
 11
506.166
 21
1181.958
 31
0
 0
LINE
 8
TOOL_0
 5
4C
 10
506.166
 20
1181.958
 30
0
 11
506.166
 21
1176.958
 31
0
 0
LINE
 8
TOOL_0
 5
4D
 10
506.166
 20
1176.958
 30
0
 11
704.097
 21
771.802
 31
0
 0
LINE
 8
TOOL_0
 5
4E
 10
704.097
 20
771.802
 30
0
 11
734.097
 21
771.802
 31
0
 0
ARC
 8
TOOL_0
 5
4F
 10
677.237
 20
771.802
 30
0
 40
56.86
 50
0
 51
180.0
210
0
220
0
230
1.0
 0
ARC
 8
TOOL_0
 5
50
 10
677.237
 20
771.802
 30
0
 40
56.86
 50
180.0
 51
0
210
0
220
0
230
1.0
 0
LINE
 8
TOOL_0
 5
51
 10
734.097
 20
771.802
 30
0
 11
788.526
 21
695.513
 31
0
 0
LINE
 8
TOOL_0
 5
52
 10
788.526
 20
695.513
 30
0
 11
753.526
 21
695.513
 31
0
 0
LINE
 8
TOOL_0
 5
53
 10
753.526
 20
695.513
 30
0
 11
750.627
 21
696.291
 31
0
 0
ARC
 8
TOOL_0
 5
54
 10
677.237
 20
771.803
 30
0
 40
105.30030505179
 50
134.999615250243
 51
314.183534039599
210
0
220
0
230
1.0
 0
ARC
 8
TOOL_0
 5
55
 10
677.237
 20
771.803
 30
0
 40
105.300220536331
 50
315.815696539485
 51
134.999615250243
210
0
220
0
230
1.0
 0
LINE
 8
TOOL_0
 5
56
 10
752.748
 20
698.412
 30
0
 11
753.526
 21
695.513
 31
0
 0
LINE
 8
TOOL_0
 5
57
 10
753.526
 20
695.513
 30
0
 11
753.526
 21
690.513
 31
0
 0
LINE
 8
TOOL_0
 5
58
 10
753.526
 20
690.513
 30
0
 11
716.343
 21
1015.025
 31
0
 0
LINE
 8
TOOL_0
 5
59
 10
716.343
 20
1015.025
 30
0
 11
746.343
 21
1015.025
 31
0
 0
ARC
 8
TOOL_0
 5
5A
 10
689.483
 20
1015.025
 30
0
 40
56.86
 50
0
 51
180.0
210
0
220
0
230
1.0
 0
ARC
 8
TOOL_0
 5
5B
 10
689.483
 20
1015.025
 30
0
 40
56.86
 50
180.0
 51
0
210
0
220
0
230
1.0
 0
LINE
 8
TOOL_0
 5
5C
 10
746.343
 20
1015.025
 30
0
 11
800.772
 21
938.735
 31
0
 0
LINE
 8
TOOL_0
 5
5D
 10
800.772
 20
938.735
 30
0
 11
765.772
 21
938.735
 31
0
 0
LINE
 8
TOOL_0
 5
5E
 10
765.772
 20
938.735
 30
0
 11
762.873
 21
939.513
 31
0
 0
ARC
 8
TOOL_0
 5
5F
 10
689.483
 20
1015.025
 30
0
 40
105.30030505179
 50
134.999615250243
 51
314.183534039599
210
0
220
0
230
1.0
 0
ARC
 8
TOOL_0
 5
60
 10
689.483
 20
1015.025
 30
0
 40
105.300220536331
 50
315.815696539485
 51
134.999615250243
210
0
220
0
230
1.0
 0
LINE
 8
TOOL_0
 5
61
 10
764.994
 20
941.634
 30
0
 11
765.772
 21
938.735
 31
0
 0
LINE
 8
TOOL_0
 5
62
 10
765.772
 20
938.735
 30
0
 11
765.772
 21
933.735
 31
0
 0
LINE
 8
TOOL_0
 5
63
 10
765.772
 20
933.735
 30
0
 11
713.894
 21
1275.445
 31
0
 0
LINE
 8
TOOL_0
 5
64
 10
713.894
 20
1275.445
 30
0
 11
743.894
 21
1275.445
 31
0
 0
ARC
 8
TOOL_0
 5
65
 10
687.034
 20
1275.445
 30
0
 40
56.86
 50
0
 51
180.0
210
0
220
0
230
1.0
 0
ARC
 8
TOOL_0
 5
66
 10
687.034
 20
1275.445
 30
0
 40
56.86
 50
180.0
 51
0
210
0
220
0
230
1.0
 0
LINE
 8
TOOL_0
 5
67
 10
743.894
 20
1275.445
 30
0
 11
798.323
 21
1199.155
 31
0
 0
LINE
 8
TOOL_0
 5
68
 10
798.323
 20
1199.155
 30
0
 11
763.323
 21
1199.155
 31
0
 0
LINE
 8
TOOL_0
 5
69
 10
763.323
 20
1199.155
 30
0
 11
760.424
 21
1199.933
 31
0
 0
ARC
 8
TOOL_0
 5
6A
 10
687.034
 20
1275.445
 30
0
 40
105.30030505179
 50
134.999615250243
 51
314.183534039599
210
0
220
0
230
1.0
 0
ARC
 8
TOOL_0
 5
6B
 10
687.034
 20
1275.445
 30
0
 40
105.300220536331
 50
315.815696539485
 51
134.999615250243
210
0
220
0
230
1.0
 0
LINE
 8
TOOL_0
 5
6C
 10
762.545
 20
1202.054
 30
0
 11
763.323
 21
1199.155
 31
0
 0
LINE
 8
TOOL_0
 5
6D
 10
763.323
 20
1199.155
 30
0
 11
763.323
 21
1194.155
 31
0
 0
ENDSEC
 0
EOF

