0
SECTION
2
TABLES
0
TABLE
2
LAYER
70
0
0
LAYER
2
LAYER_NAME
70
0
62
1
6
CONTINUOUS
0
ENDTAB
0
ENDSEC
 0
SECTION
 2
ENTITIES
 0
LINE
 8
TOOL_0
 5
1
 10
6814.749
 20
485.75
 30
0
 11
6790.0
 21
461.001
 31
0
 0
LINE
 8
TOOL_0
 5
2
 10
6790.0
 20
461.001
 30
0
 11
6790.0
 21
15.001
 31
0
 0
LINE
 8
TOOL_0
 5
3
 10
6790.0
 20
15.001
 30
0
 11
15.0
 21
15.001
 31
0
 0
LINE
 8
TOOL_0
 5
4
 10
15.0
 20
15.001
 30
0
 11
15.0
 21
461.001
 31
0
 0
LINE
 8
TOOL_0
 5
5
 10
15.0
 20
461.001
 30
0
 11
6790.0
 21
461.001
 31
0
 0
LINE
 8
TOOL_0
 5
6
 10
6790.0
 20
461.001
 30
0
 11
6793.536
 21
464.537
 31
0
 0
LINE
 8
TOOL_0
 5
7
 10
6793.536
 20
464.537
 30
0
 11
6814.749
 21
947.185
 31
0
 0
LINE
 8
TOOL_0
 5
8
 10
6814.749
 20
947.185
 30
0
 11
6790.0
 21
922.436
 31
0
 0
LINE
 8
TOOL_0
 5
9
 10
6790.0
 20
922.436
 30
0
 11
6790.0
 21
476.436
 31
0
 0
LINE
 8
TOOL_0
 5
A
 10
6790.0
 20
476.436
 30
0
 11
15.0
 21
476.436
 31
0
 0
LINE
 8
TOOL_0
 5
B
 10
15.0
 20
476.436
 30
0
 11
15.0
 21
922.436
 31
0
 0
LINE
 8
TOOL_0
 5
C
 10
15.0
 20
922.436
 30
0
 11
6790.0
 21
922.436
 31
0
 0
LINE
 8
TOOL_0
 5
D
 10
6790.0
 20
922.436
 30
0
 11
6793.536
 21
925.972
 31
0
 0
LINE
 8
TOOL_0
 5
E
 10
6793.536
 20
925.972
 30
0
 11
6814.749
 21
1408.373
 31
0
 0
LINE
 8
TOOL_0
 5
F
 10
6814.749
 20
1408.373
 30
0
 11
6790.0
 21
1383.624
 31
0
 0
LINE
 8
TOOL_0
 5
10
 10
6790.0
 20
1383.624
 30
0
 11
6790.0
 21
937.624
 31
0
 0
LINE
 8
TOOL_0
 5
11
 10
6790.0
 20
937.624
 30
0
 11
15.0
 21
937.624
 31
0
 0
LINE
 8
TOOL_0
 5
12
 10
15.0
 20
937.624
 30
0
 11
15.0
 21
1383.624
 31
0
 0
LINE
 8
TOOL_0
 5
13
 10
15.0
 20
1383.624
 30
0
 11
6790.0
 21
1383.624
 31
0
 0
LINE
 8
TOOL_0
 5
14
 10
6790.0
 20
1383.624
 30
0
 11
6793.536
 21
1387.16
 31
0
 0
LINE
 8
TOOL_0
 5
15
 10
6793.536
 20
1387.16
 30
0
 11
6814.749
 21
1869.561
 31
0
 0
LINE
 8
TOOL_0
 5
16
 10
6814.749
 20
1869.561
 30
0
 11
6790.0
 21
1844.812
 31
0
 0
LINE
 8
TOOL_0
 5
17
 10
6790.0
 20
1844.812
 30
0
 11
6790.0
 21
1398.812
 31
0
 0
LINE
 8
TOOL_0
 5
18
 10
6790.0
 20
1398.812
 30
0
 11
15.0
 21
1398.812
 31
0
 0
LINE
 8
TOOL_0
 5
19
 10
15.0
 20
1398.812
 30
0
 11
15.0
 21
1844.812
 31
0
 0
LINE
 8
TOOL_0
 5
1A
 10
15.0
 20
1844.812
 30
0
 11
6790.0
 21
1844.812
 31
0
 0
LINE
 8
TOOL_0
 5
1B
 10
6790.0
 20
1844.812
 30
0
 11
6793.536
 21
1848.348
 31
0
 0
LINE
 8
TOOL_0
 5
1C
 10
6793.536
 20
1848.348
 30
0
 11
6790.0
 21
2341.0
 31
0
 0
LINE
 8
TOOL_0
 5
1D
 10
6790.0
 20
2341.0
 30
0
 11
6790.0
 21
2306.0
 31
0
 0
LINE
 8
TOOL_0
 5
1E
 10
6790.0
 20
2306.0
 30
0
 11
6790.0
 21
1860.0
 31
0
 0
LINE
 8
TOOL_0
 5
1F
 10
6790.0
 20
1860.0
 30
0
 11
15.0
 21
1860.0
 31
0
 0
LINE
 8
TOOL_0
 5
20
 10
15.0
 20
1860.0
 30
0
 11
15.0
 21
2306.0
 31
0
 0
LINE
 8
TOOL_0
 5
21
 10
15.0
 20
2306.0
 30
0
 11
6790.0
 21
2306.0
 31
0
 0
LINE
 8
TOOL_0
 5
22
 10
6790.0
 20
2306.0
 30
0
 11
6795.0
 21
2306.0
 31
0
 0
LINE
 8
TOOL_0
 5
23
 10
6795.0
 20
2306.0
 30
0
 11
6820.532
 21
0.001
 31
0
 0
LINE
 8
TOOL_0
 5
24
 10
6820.532
 20
0.001
 30
0
 11
6820.532
 21
1.001
 31
0
 0
LINE
 8
TOOL_0
 5
25
 10
6820.532
 20
1.001
 30
0
 11
6820.532
 21
0.001
 31
0
 0
LINE
 8
TOOL_0
 5
26
 10
6820.532
 20
0.001
 30
0
 11
6820.532
 21
1.001
 31
0
 0
LINE
 8
TOOL_0
 5
27
 10
6820.532
 20
1.001
 30
0
 11
6820.532
 21
2349.001
 31
0
 0
LINE
 8
TOOL_0
 5
28
 10
6820.532
 20
2349.001
 30
0
 11
6820.532
 21
2350.001
 31
0
 0
ENDSEC
 0
EOF

