0
SECTION
2
TABLES
0
TABLE
2
LAYER
70
0
0
LAYER
2
LAYER_NAME
70
0
62
1
6
CONTINUOUS
0
ENDTAB
0
ENDSEC
 0
SECTION
 2
ENTITIES
 0
LINE
 8
TOOL_0
 5
1
 10
1025.504
 20
1454.751
 30
0
 11
1025.504
 21
1419.751
 31
0
 0
ARC
 8
TOOL_0
 5
2
 10
1025.504
 20
1454.751
 30
0
 40
35.0
 50
270.0
 51
90.0
210
0
220
0
230
1.0
 0
ARC
 8
TOOL_0
 5
3
 10
1025.504
 20
1454.751
 30
0
 40
35.0
 50
90.0
 51
270.0
210
0
220
0
230
1.0
 0
LINE
 8
TOOL_0
 5
4
 10
1025.504
 20
1419.751
 30
0
 11
710.504
 21
414.751
 31
0
 0
LINE
 8
TOOL_0
 5
5
 10
710.504
 20
414.751
 30
0
 11
745.504
 21
414.751
 31
0
 0
ARC
 8
TOOL_0
 5
6
 10
710.504
 20
414.751
 30
0
 40
35.0
 50
0
 51
180.0
210
0
220
0
230
1.0
 0
ARC
 8
TOOL_0
 5
7
 10
710.504
 20
414.751
 30
0
 40
35.0
 50
180.0
 51
0
210
0
220
0
230
1.0
 0
LINE
 8
TOOL_0
 5
8
 10
745.504
 20
414.751
 30
0
 11
2175.504
 21
414.751
 31
0
 0
LINE
 8
TOOL_0
 5
9
 10
2175.504
 20
414.751
 30
0
 11
2210.504
 21
414.751
 31
0
 0
ARC
 8
TOOL_0
 5
A
 10
2175.504
 20
414.751
 30
0
 40
35.0
 50
0
 51
180.0
210
0
220
0
230
1.0
 0
ARC
 8
TOOL_0
 5
B
 10
2175.504
 20
414.751
 30
0
 40
35.0
 50
180.0
 51
0
210
0
220
0
230
1.0
 0
LINE
 8
TOOL_0
 5
C
 10
2210.504
 20
414.751
 30
0
 11
3640.504
 21
414.751
 31
0
 0
LINE
 8
TOOL_0
 5
D
 10
3640.504
 20
414.751
 30
0
 11
3640.504
 21
449.751
 31
0
 0
ARC
 8
TOOL_0
 5
E
 10
3640.504
 20
414.751
 30
0
 40
35.0
 50
90.0
 51
270.0
210
0
220
0
230
1.0
 0
ARC
 8
TOOL_0
 5
F
 10
3640.504
 20
414.751
 30
0
 40
35.0
 50
270.0
 51
90.0
210
0
220
0
230
1.0
 0
LINE
 8
TOOL_0
 5
10
 10
3640.504
 20
449.751
 30
0
 11
3325.504
 21
1454.751
 31
0
 0
LINE
 8
TOOL_0
 5
11
 10
3325.504
 20
1454.751
 30
0
 11
3360.504
 21
1454.751
 31
0
 0
ARC
 8
TOOL_0
 5
12
 10
3325.504
 20
1454.751
 30
0
 40
35.0
 50
0
 51
180.0
210
0
220
0
230
1.0
 0
ARC
 8
TOOL_0
 5
13
 10
3325.504
 20
1454.751
 30
0
 40
35.0
 50
180.0
 51
0
210
0
220
0
230
1.0
 0
LINE
 8
TOOL_0
 5
14
 10
3360.504
 20
1454.751
 30
0
 11
4298.729
 21
778.76
 31
0
 0
LINE
 8
TOOL_0
 5
15
 10
4298.729
 20
778.76
 30
0
 11
4303.004
 21
636.751
 31
0
 0
LINE
 8
TOOL_0
 5
16
 10
4303.004
 20
636.751
 30
0
 11
4303.004
 21
114.751
 31
0
 0
LINE
 8
TOOL_0
 5
17
 10
4303.004
 20
114.751
 30
0
 11
4313.004
 21
114.751
 31
0
 0
LINE
 8
TOOL_0
 5
18
 10
4313.004
 20
114.751
 30
0
 11
4313.004
 21
6.751
 31
0
 0
LINE
 8
TOOL_0
 5
19
 10
4313.004
 20
6.751
 30
0
 11
38.004
 21
6.751
 31
0
 0
LINE
 8
TOOL_0
 5
1A
 10
38.004
 20
6.751
 30
0
 11
38.004
 21
114.751
 31
0
 0
LINE
 8
TOOL_0
 5
1B
 10
38.004
 20
114.751
 30
0
 11
48.004
 21
114.751
 31
0
 0
LINE
 8
TOOL_0
 5
1C
 10
48.004
 20
114.751
 30
0
 11
48.004
 21
636.751
 31
0
 0
LINE
 8
TOOL_0
 5
1D
 10
48.004
 20
636.751
 30
0
 11
535.004
 21
636.751
 31
0
 0
ARC
 8
TOOL_0
 5
1E
 10
535.004
 20
699.751
 30
0
 40
63.0
 50
270.0
 51
314.999356913637
210
0
220
0
230
1.0
 0
LINE
 8
TOOL_0
 5
1F
 10
579.551
 20
655.203
 30
0
 11
607.051
 21
682.703
 31
0
 0
ARC
 8
TOOL_0
 5
20
 10
562.503
 20
727.251
 30
0
 40
63.000385776597
 50
315.0
 51
359.999090543183
210
0
220
0
230
1.0
 0
LINE
 8
TOOL_0
 5
21
 10
625.503
 20
727.25
 30
0
 11
625.503
 21
1520.75
 31
0
 0
ARC
 8
TOOL_0
 5
22
 10
660.503
 20
1520.75
 30
0
 40
35.0
 50
90.0
 51
180.0
210
0
220
0
230
1.0
 0
LINE
 8
TOOL_0
 5
23
 10
660.503
 20
1555.75
 30
0
 11
3690.503
 21
1555.75
 31
0
 0
ARC
 8
TOOL_0
 5
24
 10
3690.503
 20
1520.75
 30
0
 40
35.0
 50
0
 51
90.0
210
0
220
0
230
1.0
 0
LINE
 8
TOOL_0
 5
25
 10
3725.503
 20
1520.75
 30
0
 11
3725.503
 21
727.25
 31
0
 0
ARC
 8
TOOL_0
 5
26
 10
3788.503
 20
727.25
 30
0
 40
63.0
 50
180.0
 51
225.0
210
0
220
0
230
1.0
 0
LINE
 8
TOOL_0
 5
27
 10
3743.955
 20
682.702
 30
0
 11
3771.455
 21
655.202
 31
0
 0
ARC
 8
TOOL_0
 5
28
 10
3816.003
 20
699.75
 30
0
 40
63.000385776597
 50
225.0
 51
269.999090543182
210
0
220
0
230
1.0
 0
LINE
 8
TOOL_0
 5
29
 10
3816.002
 20
636.75
 30
0
 11
4303.002
 21
636.75
 31
0
 0
LINE
 8
TOOL_0
 5
2A
 10
4303.002
 20
636.75
 30
0
 11
4311.567
 21
636.386
 31
0
 0
LINE
 8
TOOL_0
 5
2B
 10
4311.567
 20
636.386
 30
0
 11
4735.873
 21
107.75
 31
0
 0
LINE
 8
TOOL_0
 5
2C
 10
4735.873
 20
107.75
 30
0
 11
4735.873
 21
142.75
 31
0
 0
ARC
 8
TOOL_0
 5
2D
 10
4735.873
 20
107.75
 30
0
 40
35.0
 50
90.0
 51
270.0
210
0
220
0
230
1.0
 0
ARC
 8
TOOL_0
 5
2E
 10
4735.873
 20
107.75
 30
0
 40
35.0
 50
270.0
 51
90.0
210
0
220
0
230
1.0
 0
LINE
 8
TOOL_0
 5
2F
 10
4735.873
 20
142.75
 30
0
 11
4420.872
 21
1147.75
 31
0
 0
LINE
 8
TOOL_0
 5
30
 10
4420.872
 20
1147.75
 30
0
 11
4455.872
 21
1147.75
 31
0
 0
ARC
 8
TOOL_0
 5
31
 10
4420.872
 20
1147.75
 30
0
 40
35.0
 50
0
 51
180.0
210
0
220
0
230
1.0
 0
ARC
 8
TOOL_0
 5
32
 10
4420.872
 20
1147.75
 30
0
 40
35.0
 50
180.0
 51
0
210
0
220
0
230
1.0
 0
LINE
 8
TOOL_0
 5
33
 10
4455.872
 20
1147.75
 30
0
 11
5885.872
 21
1147.75
 31
0
 0
LINE
 8
TOOL_0
 5
34
 10
5885.872
 20
1147.75
 30
0
 11
5910.621
 21
1123.001
 31
0
 0
ARC
 8
TOOL_0
 5
35
 10
5885.872
 20
1147.75
 30
0
 40
35.000371455172
 50
315.0
 51
134.99884243935
210
0
220
0
230
1.0
 0
ARC
 8
TOOL_0
 5
36
 10
5885.873
 20
1147.75
 30
0
 40
35.000371455172
 50
135.0
 51
314.99884243935
210
0
220
0
230
1.0
 0
LINE
 8
TOOL_0
 5
37
 10
5910.621
 20
1123.001
 30
0
 11
7035.872
 21
107.75
 31
0
 0
LINE
 8
TOOL_0
 5
38
 10
7035.872
 20
107.75
 30
0
 11
7035.872
 21
142.75
 31
0
 0
ARC
 8
TOOL_0
 5
39
 10
7035.872
 20
107.75
 30
0
 40
35.0
 50
90.0
 51
270.0
210
0
220
0
230
1.0
 0
ARC
 8
TOOL_0
 5
3A
 10
7035.872
 20
107.75
 30
0
 40
35.0
 50
270.0
 51
90.0
210
0
220
0
230
1.0
 0
LINE
 8
TOOL_0
 5
3B
 10
7035.872
 20
142.75
 30
0
 11
7350.871
 21
1147.75
 31
0
 0
LINE
 8
TOOL_0
 5
3C
 10
7350.871
 20
1147.75
 30
0
 11
7375.62
 21
1172.499
 31
0
 0
ARC
 8
TOOL_0
 5
3D
 10
7350.871
 20
1147.75
 30
0
 40
35.000371455172
 50
45.0
 51
224.999999999999
210
0
220
0
230
1.0
 0
ARC
 8
TOOL_0
 5
3E
 10
7350.872
 20
1147.751
 30
0
 40
35.000371455172
 50
225.0
 51
44.99884243935
210
0
220
0
230
1.0
 0
LINE
 8
TOOL_0
 5
3F
 10
7375.621
 20
1172.499
 30
0
 11
8023.289
 21
1645.961
 31
0
 0
LINE
 8
TOOL_0
 5
40
 10
8023.289
 20
1645.961
 30
0
 11
8023.372
 21
1555.75
 31
0
 0
LINE
 8
TOOL_0
 5
41
 10
8023.372
 20
1555.75
 30
0
 11
8023.372
 21
1447.75
 31
0
 0
LINE
 8
TOOL_0
 5
42
 10
8023.372
 20
1447.75
 30
0
 11
8013.372
 21
1447.75
 31
0
 0
LINE
 8
TOOL_0
 5
43
 10
8013.372
 20
1447.75
 30
0
 11
8013.372
 21
925.75
 31
0
 0
LINE
 8
TOOL_0
 5
44
 10
8013.372
 20
925.75
 30
0
 11
7526.372
 21
925.75
 31
0
 0
ARC
 8
TOOL_0
 5
45
 10
7526.372
 20
862.75
 30
0
 40
63.0
 50
90.0
 51
135.0
210
0
220
0
230
1.0
 0
LINE
 8
TOOL_0
 5
46
 10
7481.824
 20
907.298
 30
0
 11
7454.324
 21
879.798
 31
0
 0
ARC
 8
TOOL_0
 5
47
 10
7498.872
 20
835.25
 30
0
 40
63.000385776597
 50
135.0
 51
180.0
210
0
220
0
230
1.0
 0
LINE
 8
TOOL_0
 5
48
 10
7435.872
 20
835.25
 30
0
 11
7435.872
 21
41.75
 31
0
 0
ARC
 8
TOOL_0
 5
49
 10
7400.872
 20
41.75
 30
0
 40
35.0
 50
270.0
 51
0
210
0
220
0
230
1.0
 0
LINE
 8
TOOL_0
 5
4A
 10
7400.872
 20
6.75
 30
0
 11
4370.872
 21
6.75
 31
0
 0
ARC
 8
TOOL_0
 5
4B
 10
4370.872
 20
41.75
 30
0
 40
35.0
 50
180.0
 51
270.0
210
0
220
0
230
1.0
 0
LINE
 8
TOOL_0
 5
4C
 10
4335.872
 20
41.75
 30
0
 11
4335.872
 21
835.25
 31
0
 0
ARC
 8
TOOL_0
 5
4D
 10
4272.872
 20
835.25
 30
0
 40
63.0
 50
0
 51
45.0
210
0
220
0
230
1.0
 0
LINE
 8
TOOL_0
 5
4E
 10
4317.42
 20
879.798
 30
0
 11
4289.92
 21
907.298
 31
0
 0
ARC
 8
TOOL_0
 5
4F
 10
4245.372
 20
862.75
 30
0
 40
63.000385776597
 50
45.0
 51
90.0
210
0
220
0
230
1.0
 0
LINE
 8
TOOL_0
 5
50
 10
4245.372
 20
925.75
 30
0
 11
3758.372
 21
925.75
 31
0
 0
LINE
 8
TOOL_0
 5
51
 10
3758.372
 20
925.75
 30
0
 11
3758.372
 21
1447.75
 31
0
 0
LINE
 8
TOOL_0
 5
52
 10
3758.372
 20
1447.75
 30
0
 11
3748.372
 21
1447.75
 31
0
 0
LINE
 8
TOOL_0
 5
53
 10
3748.372
 20
1447.75
 30
0
 11
3748.372
 21
1555.75
 31
0
 0
LINE
 8
TOOL_0
 5
54
 10
3748.372
 20
1555.75
 30
0
 11
8023.372
 21
1555.75
 31
0
 0
LINE
 8
TOOL_0
 5
55
 10
8023.372
 20
1555.75
 30
0
 11
8045.324
 21
1555.797
 31
0
 0
LINE
 8
TOOL_0
 5
56
 10
8045.324
 20
1555.797
 30
0
 11
402.748
 21
1435.272
 31
0
 0
LINE
 8
TOOL_0
 5
57
 10
402.748
 20
1435.272
 30
0
 11
437.748
 21
1435.272
 31
0
 0
LINE
 8
TOOL_0
 5
58
 10
437.748
 20
1435.272
 30
0
 11
437.748
 21
1500.272
 31
0
 0
ARC
 8
TOOL_0
 5
59
 10
402.748
 20
1500.272
 30
0
 40
35.0
 50
0
 51
90.0
210
0
220
0
230
1.0
 0
LINE
 8
TOOL_0
 5
5A
 10
402.748
 20
1535.272
 30
0
 11
177.748
 21
1535.272
 31
0
 0
ARC
 8
TOOL_0
 5
5B
 10
177.748
 20
1500.272
 30
0
 40
35.0
 50
90.0
 51
180.0
210
0
220
0
230
1.0
 0
LINE
 8
TOOL_0
 5
5C
 10
142.748
 20
1500.272
 30
0
 11
142.748
 21
1370.272
 31
0
 0
ARC
 8
TOOL_0
 5
5D
 10
177.748
 20
1370.272
 30
0
 40
35.0
 50
180.0
 51
270.0
210
0
220
0
230
1.0
 0
LINE
 8
TOOL_0
 5
5E
 10
177.748
 20
1335.272
 30
0
 11
402.748
 21
1335.272
 31
0
 0
ARC
 8
TOOL_0
 5
5F
 10
402.748
 20
1370.272
 30
0
 40
35.0
 50
270.0
 51
0
210
0
220
0
230
1.0
 0
LINE
 8
TOOL_0
 5
60
 10
437.748
 20
1370.272
 30
0
 11
437.748
 21
1435.272
 31
0
 0
LINE
 8
TOOL_0
 5
61
 10
437.748
 20
1435.272
 30
0
 11
402.748
 21
1045.272
 31
0
 0
LINE
 8
TOOL_0
 5
62
 10
402.748
 20
1045.272
 30
0
 11
437.748
 21
1045.272
 31
0
 0
LINE
 8
TOOL_0
 5
63
 10
437.748
 20
1045.272
 30
0
 11
437.748
 21
1110.272
 31
0
 0
ARC
 8
TOOL_0
 5
64
 10
402.748
 20
1110.272
 30
0
 40
35.0
 50
0
 51
90.0
210
0
220
0
230
1.0
 0
LINE
 8
TOOL_0
 5
65
 10
402.748
 20
1145.272
 30
0
 11
137.748
 21
1145.272
 31
0
 0
ARC
 8
TOOL_0
 5
66
 10
137.748
 20
1110.272
 30
0
 40
35.0
 50
90.0
 51
180.0
210
0
220
0
230
1.0
 0
LINE
 8
TOOL_0
 5
67
 10
102.748
 20
1110.272
 30
0
 11
102.748
 21
980.272
 31
0
 0
ARC
 8
TOOL_0
 5
68
 10
137.748
 20
980.272
 30
0
 40
35.0
 50
180.0
 51
270.0
210
0
220
0
230
1.0
 0
LINE
 8
TOOL_0
 5
69
 10
137.748
 20
945.272
 30
0
 11
402.748
 21
945.272
 31
0
 0
ARC
 8
TOOL_0
 5
6A
 10
402.748
 20
980.272
 30
0
 40
35.0
 50
270.0
 51
0
210
0
220
0
230
1.0
 0
LINE
 8
TOOL_0
 5
6B
 10
437.748
 20
980.272
 30
0
 11
437.748
 21
1045.272
 31
0
 0
LINE
 8
TOOL_0
 5
6C
 10
437.748
 20
1045.272
 30
0
 11
420.74
 21
660.866
 31
0
 0
LINE
 8
TOOL_0
 5
6D
 10
420.74
 20
660.866
 30
0
 11
358.218
 21
659.272
 31
0
 0
LINE
 8
TOOL_0
 5
6E
 10
358.218
 20
659.272
 30
0
 11
251.748
 21
659.272
 31
0
 0
LINE
 8
TOOL_0
 5
6F
 10
251.748
 20
659.272
 30
0
 11
251.748
 21
740.272
 31
0
 0
ARC
 8
TOOL_0
 5
70
 10
202.748
 20
740.272
 30
0
 40
49.0
 50
0
 51
90.0
210
0
220
0
230
1.0
 0
LINE
 8
TOOL_0
 5
71
 10
202.748
 20
789.272
 30
0
 11
142.748
 21
789.272
 31
0
 0
ARC
 8
TOOL_0
 5
72
 10
142.748
 20
740.272
 30
0
 40
49.0
 50
90.0
 51
180.0
210
0
220
0
230
1.0
 0
LINE
 8
TOOL_0
 5
73
 10
93.748
 20
740.272
 30
0
 11
93.748
 21
659.272
 31
0
 0
LINE
 8
TOOL_0
 5
74
 10
93.748
 20
659.272
 30
0
 11
37.334
 21
659.272
 31
0
 0
LINE
 8
TOOL_0
 5
75
 10
37.334
 20
659.272
 30
0
 11
26.748
 21
669.858
 31
0
 0
LINE
 8
TOOL_0
 5
76
 10
26.748
 20
669.858
 30
0
 11
26.748
 21
792.272
 31
0
 0
ARC
 8
TOOL_0
 5
77
 10
19.748
 20
792.272
 30
0
 40
7.0
 50
0
 51
90.0
210
0
220
0
230
1.0
 0
LINE
 8
TOOL_0
 5
78
 10
19.748
 20
799.272
 30
0
 11
6.748
 21
799.272
 31
0
 0
LINE
 8
TOOL_0
 5
79
 10
6.748
 20
799.272
 30
0
 11
6.748
 21
1341.272
 31
0
 0
LINE
 8
TOOL_0
 5
7A
 10
6.748
 20
1341.272
 30
0
 11
19.748
 21
1341.272
 31
0
 0
ARC
 8
TOOL_0
 5
7B
 10
19.748
 20
1348.272
 30
0
 40
7.0
 50
270.0
 51
0
210
0
220
0
230
1.0
 0
LINE
 8
TOOL_0
 5
7C
 10
26.748
 20
1348.272
 30
0
 11
26.748
 21
1502.272
 31
0
 0
ARC
 8
TOOL_0
 5
7D
 10
19.748
 20
1502.272
 30
0
 40
7.0
 50
0
 51
90.0
210
0
220
0
230
1.0
 0
LINE
 8
TOOL_0
 5
7E
 10
19.748
 20
1509.272
 30
0
 11
6.748
 21
1509.272
 31
0
 0
LINE
 8
TOOL_0
 5
7F
 10
6.748
 20
1509.272
 30
0
 11
6.748
 21
1926.272
 31
0
 0
LINE
 8
TOOL_0
 5
80
 10
6.748
 20
1926.272
 30
0
 11
14.748
 21
1926.272
 31
0
 0
ARC
 8
TOOL_0
 5
81
 10
14.748
 20
1933.272
 30
0
 40
7.0
 50
270.0
 51
0
210
0
220
0
230
1.0
 0
LINE
 8
TOOL_0
 5
82
 10
21.748
 20
1933.272
 30
0
 11
21.748
 21
2111.772
 31
0
 0
LINE
 8
TOOL_0
 5
83
 10
21.748
 20
2111.772
 30
0
 11
350.241
 21
2111.772
 31
0
 0
LINE
 8
TOOL_0
 5
84
 10
350.241
 20
2111.772
 30
0
 11
602.748
 21
1457.125
 31
0
 0
LINE
 8
TOOL_0
 5
85
 10
602.748
 20
1457.125
 30
0
 11
602.748
 21
983.556
 31
0
 0
ARC
 8
TOOL_0
 5
86
 10
522.748
 20
983.556
 30
0
 40
80.0
 50
320.389749357743
 51
0
210
0
220
0
230
1.0
 0
LINE
 8
TOOL_0
 5
87
 10
584.38
 20
932.551
 30
0
 11
358.219
 21
659.273
 31
0
 0
LINE
 8
TOOL_0
 5
88
 10
358.219
 20
659.273
 30
0
 11
357.97
 21
645.447
 31
0
 0
LINE
 8
TOOL_0
 5
89
 10
357.97
 20
645.447
 30
0
 11
1315.924
 21
1862.059
 31
0
 0
LINE
 8
TOOL_0
 5
8A
 10
1315.924
 20
1862.059
 30
0
 11
1350.924
 21
1862.059
 31
0
 0
LINE
 8
TOOL_0
 5
8B
 10
1350.924
 20
1862.059
 30
0
 11
1350.924
 21
1974.559
 31
0
 0
ARC
 8
TOOL_0
 5
8C
 10
1315.924
 20
1974.559
 30
0
 40
35.0
 50
0
 51
90.0
210
0
220
0
230
1.0
 0
LINE
 8
TOOL_0
 5
8D
 10
1315.924
 20
2009.559
 30
0
 11
1185.924
 21
2009.559
 31
0
 0
ARC
 8
TOOL_0
 5
8E
 10
1185.924
 20
1974.559
 30
0
 40
35.0
 50
90.0
 51
180.0
210
0
220
0
230
1.0
 0
LINE
 8
TOOL_0
 5
8F
 10
1150.924
 20
1974.559
 30
0
 11
1150.924
 21
1749.559
 31
0
 0
ARC
 8
TOOL_0
 5
90
 10
1185.924
 20
1749.559
 30
0
 40
35.0
 50
180.0
 51
270.0
210
0
220
0
230
1.0
 0
LINE
 8
TOOL_0
 5
91
 10
1185.924
 20
1714.559
 30
0
 11
1315.924
 21
1714.559
 31
0
 0
ARC
 8
TOOL_0
 5
92
 10
1315.924
 20
1749.559
 30
0
 40
35.0
 50
270.0
 51
0
210
0
220
0
230
1.0
 0
LINE
 8
TOOL_0
 5
93
 10
1350.924
 20
1749.559
 30
0
 11
1350.924
 21
1862.059
 31
0
 0
LINE
 8
TOOL_0
 5
94
 10
1350.924
 20
1862.059
 30
0
 11
1705.924
 21
1842.059
 31
0
 0
LINE
 8
TOOL_0
 5
95
 10
1705.924
 20
1842.059
 30
0
 11
1740.924
 21
1842.059
 31
0
 0
LINE
 8
TOOL_0
 5
96
 10
1740.924
 20
1842.059
 30
0
 11
1740.924
 21
1974.559
 31
0
 0
ARC
 8
TOOL_0
 5
97
 10
1705.924
 20
1974.559
 30
0
 40
35.0
 50
0
 51
90.0
210
0
220
0
230
1.0
 0
LINE
 8
TOOL_0
 5
98
 10
1705.924
 20
2009.559
 30
0
 11
1575.924
 21
2009.559
 31
0
 0
ARC
 8
TOOL_0
 5
99
 10
1575.924
 20
1974.559
 30
0
 40
35.0
 50
90.0
 51
180.0
210
0
220
0
230
1.0
 0
LINE
 8
TOOL_0
 5
9A
 10
1540.924
 20
1974.559
 30
0
 11
1540.924
 21
1709.559
 31
0
 0
ARC
 8
TOOL_0
 5
9B
 10
1575.924
 20
1709.559
 30
0
 40
35.0
 50
180.0
 51
270.0
210
0
220
0
230
1.0
 0
LINE
 8
TOOL_0
 5
9C
 10
1575.924
 20
1674.559
 30
0
 11
1705.924
 21
1674.559
 31
0
 0
ARC
 8
TOOL_0
 5
9D
 10
1705.924
 20
1709.559
 30
0
 40
35.0
 50
270.0
 51
0
210
0
220
0
230
1.0
 0
LINE
 8
TOOL_0
 5
9E
 10
1740.924
 20
1709.559
 30
0
 11
1740.924
 21
1842.059
 31
0
 0
LINE
 8
TOOL_0
 5
9F
 10
1740.924
 20
1842.059
 30
0
 11
2024.057
 21
1718.321
 31
0
 0
LINE
 8
TOOL_0
 5
A0
 10
2024.057
 20
1718.321
 30
0
 11
2026.924
 21
1665.559
 31
0
 0
LINE
 8
TOOL_0
 5
A1
 10
2026.924
 20
1665.559
 30
0
 11
2026.924
 21
1609.145
 31
0
 0
LINE
 8
TOOL_0
 5
A2
 10
2026.924
 20
1609.145
 30
0
 11
2016.338
 21
1598.559
 31
0
 0
LINE
 8
TOOL_0
 5
A3
 10
2016.338
 20
1598.559
 30
0
 11
1893.924
 21
1598.559
 31
0
 0
ARC
 8
TOOL_0
 5
A4
 10
1893.924
 20
1591.559
 30
0
 40
7.0
 50
90.0
 51
180.0
210
0
220
0
230
1.0
 0
LINE
 8
TOOL_0
 5
A5
 10
1886.924
 20
1591.559
 30
0
 11
1886.924
 21
1578.559
 31
0
 0
LINE
 8
TOOL_0
 5
A6
 10
1886.924
 20
1578.559
 30
0
 11
1344.924
 21
1578.559
 31
0
 0
LINE
 8
TOOL_0
 5
A7
 10
1344.924
 20
1578.559
 30
0
 11
1344.924
 21
1591.559
 31
0
 0
ARC
 8
TOOL_0
 5
A8
 10
1337.924
 20
1591.559
 30
0
 40
7.0
 50
0
 51
90.0
210
0
220
0
230
1.0
 0
LINE
 8
TOOL_0
 5
A9
 10
1337.924
 20
1598.559
 30
0
 11
1183.924
 21
1598.559
 31
0
 0
ARC
 8
TOOL_0
 5
AA
 10
1183.924
 20
1591.559
 30
0
 40
7.0
 50
90.0
 51
180.0
210
0
220
0
230
1.0
 0
LINE
 8
TOOL_0
 5
AB
 10
1176.924
 20
1591.559
 30
0
 11
1176.924
 21
1578.559
 31
0
 0
LINE
 8
TOOL_0
 5
AC
 10
1176.924
 20
1578.559
 30
0
 11
759.924
 21
1578.559
 31
0
 0
LINE
 8
TOOL_0
 5
AD
 10
759.924
 20
1578.559
 30
0
 11
759.924
 21
1586.559
 31
0
 0
ARC
 8
TOOL_0
 5
AE
 10
752.924
 20
1586.559
 30
0
 40
7.0
 50
0
 51
90.0
210
0
220
0
230
1.0
 0
LINE
 8
TOOL_0
 5
AF
 10
752.924
 20
1593.559
 30
0
 11
574.424
 21
1593.559
 31
0
 0
LINE
 8
TOOL_0
 5
B0
 10
574.424
 20
1593.559
 30
0
 11
574.424
 21
1922.052
 31
0
 0
LINE
 8
TOOL_0
 5
B1
 10
574.424
 20
1922.052
 30
0
 11
1229.071
 21
2174.559
 31
0
 0
LINE
 8
TOOL_0
 5
B2
 10
1229.071
 20
2174.559
 30
0
 11
1702.64
 21
2174.559
 31
0
 0
ARC
 8
TOOL_0
 5
B3
 10
1702.64
 20
2094.559
 30
0
 40
80.0
 50
50.389749357743
 51
90.0
210
0
220
0
230
1.0
 0
LINE
 8
TOOL_0
 5
B4
 10
1753.645
 20
2156.191
 30
0
 11
2026.923
 21
1930.03
 31
0
 0
LINE
 8
TOOL_0
 5
B5
 10
2026.923
 20
1930.03
 30
0
 11
2026.923
 21
1823.56
 31
0
 0
LINE
 8
TOOL_0
 5
B6
 10
2026.923
 20
1823.56
 30
0
 11
1945.923
 21
1823.56
 31
0
 0
ARC
 8
TOOL_0
 5
B7
 10
1945.923
 20
1774.56
 30
0
 40
49.0
 50
90.0
 51
180.0
210
0
220
0
230
1.0
 0
LINE
 8
TOOL_0
 5
B8
 10
1896.923
 20
1774.56
 30
0
 11
1896.923
 21
1714.56
 31
0
 0
ARC
 8
TOOL_0
 5
B9
 10
1945.923
 20
1714.56
 30
0
 40
49.0
 50
180.0
 51
270.0
210
0
220
0
230
1.0
 0
LINE
 8
TOOL_0
 5
BA
 10
1945.923
 20
1665.56
 30
0
 11
2026.923
 21
1665.56
 31
0
 0
LINE
 8
TOOL_0
 5
BB
 10
2026.923
 20
1665.56
 30
0
 11
2037.628
 21
1666.699
 31
0
 0
LINE
 8
TOOL_0
 5
BC
 10
2037.628
 20
1666.699
 30
0
 11
2791.204
 21
1864.497
 31
0
 0
LINE
 8
TOOL_0
 5
BD
 10
2791.204
 20
1864.497
 30
0
 11
2826.204
 21
1864.497
 31
0
 0
LINE
 8
TOOL_0
 5
BE
 10
2826.204
 20
1864.497
 30
0
 11
2826.204
 21
1976.997
 31
0
 0
ARC
 8
TOOL_0
 5
BF
 10
2791.204
 20
1976.997
 30
0
 40
35.0
 50
0
 51
90.0
210
0
220
0
230
1.0
 0
LINE
 8
TOOL_0
 5
C0
 10
2791.204
 20
2011.997
 30
0
 11
2661.204
 21
2011.997
 31
0
 0
ARC
 8
TOOL_0
 5
C1
 10
2661.204
 20
1976.997
 30
0
 40
35.0
 50
90.0
 51
180.0
210
0
220
0
230
1.0
 0
LINE
 8
TOOL_0
 5
C2
 10
2626.204
 20
1976.997
 30
0
 11
2626.204
 21
1751.997
 31
0
 0
ARC
 8
TOOL_0
 5
C3
 10
2661.204
 20
1751.997
 30
0
 40
35.0
 50
180.0
 51
270.0
210
0
220
0
230
1.0
 0
LINE
 8
TOOL_0
 5
C4
 10
2661.204
 20
1716.997
 30
0
 11
2791.204
 21
1716.997
 31
0
 0
ARC
 8
TOOL_0
 5
C5
 10
2791.204
 20
1751.997
 30
0
 40
35.0
 50
270.0
 51
0
210
0
220
0
230
1.0
 0
LINE
 8
TOOL_0
 5
C6
 10
2826.204
 20
1751.997
 30
0
 11
2826.204
 21
1864.497
 31
0
 0
LINE
 8
TOOL_0
 5
C7
 10
2826.204
 20
1864.497
 30
0
 11
3181.204
 21
1844.497
 31
0
 0
LINE
 8
TOOL_0
 5
C8
 10
3181.204
 20
1844.497
 30
0
 11
3216.204
 21
1844.497
 31
0
 0
LINE
 8
TOOL_0
 5
C9
 10
3216.204
 20
1844.497
 30
0
 11
3216.204
 21
1976.997
 31
0
 0
ARC
 8
TOOL_0
 5
CA
 10
3181.204
 20
1976.997
 30
0
 40
35.0
 50
0
 51
90.0
210
0
220
0
230
1.0
 0
LINE
 8
TOOL_0
 5
CB
 10
3181.204
 20
2011.997
 30
0
 11
3051.204
 21
2011.997
 31
0
 0
ARC
 8
TOOL_0
 5
CC
 10
3051.204
 20
1976.997
 30
0
 40
35.0
 50
90.0
 51
180.0
210
0
220
0
230
1.0
 0
LINE
 8
TOOL_0
 5
CD
 10
3016.204
 20
1976.997
 30
0
 11
3016.204
 21
1711.997
 31
0
 0
ARC
 8
TOOL_0
 5
CE
 10
3051.204
 20
1711.997
 30
0
 40
35.0
 50
180.0
 51
270.0
210
0
220
0
230
1.0
 0
LINE
 8
TOOL_0
 5
CF
 10
3051.204
 20
1676.997
 30
0
 11
3181.204
 21
1676.997
 31
0
 0
ARC
 8
TOOL_0
 5
D0
 10
3181.204
 20
1711.997
 30
0
 40
35.0
 50
270.0
 51
0
210
0
220
0
230
1.0
 0
LINE
 8
TOOL_0
 5
D1
 10
3216.204
 20
1711.997
 30
0
 11
3216.204
 21
1844.497
 31
0
 0
LINE
 8
TOOL_0
 5
D2
 10
3216.204
 20
1844.497
 30
0
 11
3503.627
 21
1711.16
 31
0
 0
LINE
 8
TOOL_0
 5
D3
 10
3503.627
 20
1711.16
 30
0
 11
3502.204
 21
1667.997
 31
0
 0
LINE
 8
TOOL_0
 5
D4
 10
3502.204
 20
1667.997
 30
0
 11
3502.204
 21
1611.583
 31
0
 0
LINE
 8
TOOL_0
 5
D5
 10
3502.204
 20
1611.583
 30
0
 11
3491.618
 21
1600.997
 31
0
 0
LINE
 8
TOOL_0
 5
D6
 10
3491.618
 20
1600.997
 30
0
 11
3369.204
 21
1600.997
 31
0
 0
ARC
 8
TOOL_0
 5
D7
 10
3369.204
 20
1593.997
 30
0
 40
7.0
 50
90.0
 51
180.0
210
0
220
0
230
1.0
 0
LINE
 8
TOOL_0
 5
D8
 10
3362.204
 20
1593.997
 30
0
 11
3362.204
 21
1580.997
 31
0
 0
LINE
 8
TOOL_0
 5
D9
 10
3362.204
 20
1580.997
 30
0
 11
2820.204
 21
1580.997
 31
0
 0
LINE
 8
TOOL_0
 5
DA
 10
2820.204
 20
1580.997
 30
0
 11
2820.204
 21
1593.997
 31
0
 0
ARC
 8
TOOL_0
 5
DB
 10
2813.204
 20
1593.997
 30
0
 40
7.0
 50
0
 51
90.0
210
0
220
0
230
1.0
 0
LINE
 8
TOOL_0
 5
DC
 10
2813.204
 20
1600.997
 30
0
 11
2659.204
 21
1600.997
 31
0
 0
ARC
 8
TOOL_0
 5
DD
 10
2659.204
 20
1593.997
 30
0
 40
7.0
 50
90.0
 51
180.0
210
0
220
0
230
1.0
 0
LINE
 8
TOOL_0
 5
DE
 10
2652.204
 20
1593.997
 30
0
 11
2652.204
 21
1580.997
 31
0
 0
LINE
 8
TOOL_0
 5
DF
 10
2652.204
 20
1580.997
 30
0
 11
2235.204
 21
1580.997
 31
0
 0
LINE
 8
TOOL_0
 5
E0
 10
2235.204
 20
1580.997
 30
0
 11
2235.204
 21
1588.997
 31
0
 0
ARC
 8
TOOL_0
 5
E1
 10
2228.204
 20
1588.997
 30
0
 40
7.0
 50
0
 51
90.0
210
0
220
0
230
1.0
 0
LINE
 8
TOOL_0
 5
E2
 10
2228.204
 20
1595.997
 30
0
 11
2049.704
 21
1595.997
 31
0
 0
LINE
 8
TOOL_0
 5
E3
 10
2049.704
 20
1595.997
 30
0
 11
2049.704
 21
1924.49
 31
0
 0
LINE
 8
TOOL_0
 5
E4
 10
2049.704
 20
1924.49
 30
0
 11
2704.351
 21
2176.997
 31
0
 0
LINE
 8
TOOL_0
 5
E5
 10
2704.351
 20
2176.997
 30
0
 11
3177.92
 21
2176.997
 31
0
 0
ARC
 8
TOOL_0
 5
E6
 10
3177.92
 20
2096.997
 30
0
 40
80.0
 50
50.389749357743
 51
90.0
210
0
220
0
230
1.0
 0
LINE
 8
TOOL_0
 5
E7
 10
3228.925
 20
2158.629
 30
0
 11
3502.203
 21
1932.468
 31
0
 0
LINE
 8
TOOL_0
 5
E8
 10
3502.203
 20
1932.468
 30
0
 11
3502.203
 21
1825.998
 31
0
 0
LINE
 8
TOOL_0
 5
E9
 10
3502.203
 20
1825.998
 30
0
 11
3421.203
 21
1825.998
 31
0
 0
ARC
 8
TOOL_0
 5
EA
 10
3421.203
 20
1776.998
 30
0
 40
49.0
 50
90.0
 51
180.0
210
0
220
0
230
1.0
 0
LINE
 8
TOOL_0
 5
EB
 10
3372.203
 20
1776.998
 30
0
 11
3372.203
 21
1716.998
 31
0
 0
ARC
 8
TOOL_0
 5
EC
 10
3421.203
 20
1716.998
 30
0
 40
49.0
 50
180.0
 51
270.0
210
0
220
0
230
1.0
 0
LINE
 8
TOOL_0
 5
ED
 10
3421.203
 20
1667.998
 30
0
 11
3502.203
 21
1667.998
 31
0
 0
LINE
 8
TOOL_0
 5
EE
 10
3502.203
 20
1667.998
 30
0
 11
3511.985
 21
1667.739
 31
0
 0
LINE
 8
TOOL_0
 5
EF
 10
3511.985
 20
1667.739
 30
0
 11
4266.483
 21
1864.031
 31
0
 0
LINE
 8
TOOL_0
 5
F0
 10
4266.483
 20
1864.031
 30
0
 11
4301.483
 21
1864.031
 31
0
 0
LINE
 8
TOOL_0
 5
F1
 10
4301.483
 20
1864.031
 30
0
 11
4301.483
 21
1976.531
 31
0
 0
ARC
 8
TOOL_0
 5
F2
 10
4266.483
 20
1976.531
 30
0
 40
35.0
 50
0
 51
90.0
210
0
220
0
230
1.0
 0
LINE
 8
TOOL_0
 5
F3
 10
4266.483
 20
2011.531
 30
0
 11
4136.483
 21
2011.531
 31
0
 0
ARC
 8
TOOL_0
 5
F4
 10
4136.483
 20
1976.531
 30
0
 40
35.0
 50
90.0
 51
180.0
210
0
220
0
230
1.0
 0
LINE
 8
TOOL_0
 5
F5
 10
4101.483
 20
1976.531
 30
0
 11
4101.483
 21
1751.531
 31
0
 0
ARC
 8
TOOL_0
 5
F6
 10
4136.483
 20
1751.531
 30
0
 40
35.0
 50
180.0
 51
270.0
210
0
220
0
230
1.0
 0
LINE
 8
TOOL_0
 5
F7
 10
4136.483
 20
1716.531
 30
0
 11
4266.483
 21
1716.531
 31
0
 0
ARC
 8
TOOL_0
 5
F8
 10
4266.483
 20
1751.531
 30
0
 40
35.0
 50
270.0
 51
0
210
0
220
0
230
1.0
 0
LINE
 8
TOOL_0
 5
F9
 10
4301.483
 20
1751.531
 30
0
 11
4301.483
 21
1864.031
 31
0
 0
LINE
 8
TOOL_0
 5
FA
 10
4301.483
 20
1864.031
 30
0
 11
4656.483
 21
1844.031
 31
0
 0
LINE
 8
TOOL_0
 5
FB
 10
4656.483
 20
1844.031
 30
0
 11
4691.483
 21
1844.031
 31
0
 0
LINE
 8
TOOL_0
 5
FC
 10
4691.483
 20
1844.031
 30
0
 11
4691.483
 21
1976.531
 31
0
 0
ARC
 8
TOOL_0
 5
FD
 10
4656.483
 20
1976.531
 30
0
 40
35.0
 50
0
 51
90.0
210
0
220
0
230
1.0
 0
LINE
 8
TOOL_0
 5
FE
 10
4656.483
 20
2011.531
 30
0
 11
4526.483
 21
2011.531
 31
0
 0
ARC
 8
TOOL_0
 5
FF
 10
4526.483
 20
1976.531
 30
0
 40
35.0
 50
90.0
 51
180.0
210
0
220
0
230
1.0
 0
LINE
 8
TOOL_0
 5
100
 10
4491.483
 20
1976.531
 30
0
 11
4491.483
 21
1711.531
 31
0
 0
ARC
 8
TOOL_0
 5
101
 10
4526.483
 20
1711.531
 30
0
 40
35.0
 50
180.0
 51
270.0
210
0
220
0
230
1.0
 0
LINE
 8
TOOL_0
 5
102
 10
4526.483
 20
1676.531
 30
0
 11
4656.483
 21
1676.531
 31
0
 0
ARC
 8
TOOL_0
 5
103
 10
4656.483
 20
1711.531
 30
0
 40
35.0
 50
270.0
 51
0
210
0
220
0
230
1.0
 0
LINE
 8
TOOL_0
 5
104
 10
4691.483
 20
1711.531
 30
0
 11
4691.483
 21
1844.031
 31
0
 0
LINE
 8
TOOL_0
 5
105
 10
4691.483
 20
1844.031
 30
0
 11
4977.042
 21
1722.154
 31
0
 0
LINE
 8
TOOL_0
 5
106
 10
4977.042
 20
1722.154
 30
0
 11
4977.483
 21
1667.531
 31
0
 0
LINE
 8
TOOL_0
 5
107
 10
4977.483
 20
1667.531
 30
0
 11
4977.483
 21
1611.117
 31
0
 0
LINE
 8
TOOL_0
 5
108
 10
4977.483
 20
1611.117
 30
0
 11
4966.897
 21
1600.531
 31
0
 0
LINE
 8
TOOL_0
 5
109
 10
4966.897
 20
1600.531
 30
0
 11
4844.483
 21
1600.531
 31
0
 0
ARC
 8
TOOL_0
 5
10A
 10
4844.483
 20
1593.531
 30
0
 40
7.0
 50
90.0
 51
180.0
210
0
220
0
230
1.0
 0
LINE
 8
TOOL_0
 5
10B
 10
4837.483
 20
1593.531
 30
0
 11
4837.483
 21
1580.531
 31
0
 0
LINE
 8
TOOL_0
 5
10C
 10
4837.483
 20
1580.531
 30
0
 11
4295.483
 21
1580.531
 31
0
 0
LINE
 8
TOOL_0
 5
10D
 10
4295.483
 20
1580.531
 30
0
 11
4295.483
 21
1593.531
 31
0
 0
ARC
 8
TOOL_0
 5
10E
 10
4288.483
 20
1593.531
 30
0
 40
7.0
 50
0
 51
90.0
210
0
220
0
230
1.0
 0
LINE
 8
TOOL_0
 5
10F
 10
4288.483
 20
1600.531
 30
0
 11
4134.483
 21
1600.531
 31
0
 0
ARC
 8
TOOL_0
 5
110
 10
4134.483
 20
1593.531
 30
0
 40
7.0
 50
90.0
 51
180.0
210
0
220
0
230
1.0
 0
LINE
 8
TOOL_0
 5
111
 10
4127.483
 20
1593.531
 30
0
 11
4127.483
 21
1580.531
 31
0
 0
LINE
 8
TOOL_0
 5
112
 10
4127.483
 20
1580.531
 30
0
 11
3710.483
 21
1580.531
 31
0
 0
LINE
 8
TOOL_0
 5
113
 10
3710.483
 20
1580.531
 30
0
 11
3710.483
 21
1588.531
 31
0
 0
ARC
 8
TOOL_0
 5
114
 10
3703.483
 20
1588.531
 30
0
 40
7.0
 50
0
 51
90.0
210
0
220
0
230
1.0
 0
LINE
 8
TOOL_0
 5
115
 10
3703.483
 20
1595.531
 30
0
 11
3524.983
 21
1595.531
 31
0
 0
LINE
 8
TOOL_0
 5
116
 10
3524.983
 20
1595.531
 30
0
 11
3524.983
 21
1924.024
 31
0
 0
LINE
 8
TOOL_0
 5
117
 10
3524.983
 20
1924.024
 30
0
 11
4179.63
 21
2176.531
 31
0
 0
LINE
 8
TOOL_0
 5
118
 10
4179.63
 20
2176.531
 30
0
 11
4653.199
 21
2176.531
 31
0
 0
ARC
 8
TOOL_0
 5
119
 10
4653.199
 20
2096.531
 30
0
 40
80.0
 50
50.389749357743
 51
90.0
210
0
220
0
230
1.0
 0
LINE
 8
TOOL_0
 5
11A
 10
4704.204
 20
2158.163
 30
0
 11
4977.482
 21
1932.002
 31
0
 0
LINE
 8
TOOL_0
 5
11B
 10
4977.482
 20
1932.002
 30
0
 11
4977.482
 21
1825.532
 31
0
 0
LINE
 8
TOOL_0
 5
11C
 10
4977.482
 20
1825.532
 30
0
 11
4896.482
 21
1825.532
 31
0
 0
ARC
 8
TOOL_0
 5
11D
 10
4896.482
 20
1776.532
 30
0
 40
49.0
 50
90.0
 51
180.0
210
0
220
0
230
1.0
 0
LINE
 8
TOOL_0
 5
11E
 10
4847.482
 20
1776.532
 30
0
 11
4847.482
 21
1716.532
 31
0
 0
ARC
 8
TOOL_0
 5
11F
 10
4896.482
 20
1716.532
 30
0
 40
49.0
 50
180.0
 51
270.0
210
0
220
0
230
1.0
 0
LINE
 8
TOOL_0
 5
120
 10
4896.482
 20
1667.532
 30
0
 11
4977.482
 21
1667.532
 31
0
 0
LINE
 8
TOOL_0
 5
121
 10
4977.482
 20
1667.532
 30
0
 11
4993.288
 21
1668.374
 31
0
 0
LINE
 8
TOOL_0
 5
122
 10
4993.288
 20
1668.374
 30
0
 11
5741.764
 21
1862.063
 31
0
 0
LINE
 8
TOOL_0
 5
123
 10
5741.764
 20
1862.063
 30
0
 11
5776.764
 21
1862.063
 31
0
 0
LINE
 8
TOOL_0
 5
124
 10
5776.764
 20
1862.063
 30
0
 11
5776.764
 21
1974.563
 31
0
 0
ARC
 8
TOOL_0
 5
125
 10
5741.764
 20
1974.563
 30
0
 40
35.0
 50
0
 51
90.0
210
0
220
0
230
1.0
 0
LINE
 8
TOOL_0
 5
126
 10
5741.764
 20
2009.563
 30
0
 11
5611.764
 21
2009.563
 31
0
 0
ARC
 8
TOOL_0
 5
127
 10
5611.764
 20
1974.563
 30
0
 40
35.0
 50
90.0
 51
180.0
210
0
220
0
230
1.0
 0
LINE
 8
TOOL_0
 5
128
 10
5576.764
 20
1974.563
 30
0
 11
5576.764
 21
1749.563
 31
0
 0
ARC
 8
TOOL_0
 5
129
 10
5611.764
 20
1749.563
 30
0
 40
35.0
 50
180.0
 51
270.0
210
0
220
0
230
1.0
 0
LINE
 8
TOOL_0
 5
12A
 10
5611.764
 20
1714.563
 30
0
 11
5741.764
 21
1714.563
 31
0
 0
ARC
 8
TOOL_0
 5
12B
 10
5741.764
 20
1749.563
 30
0
 40
35.0
 50
270.0
 51
0
210
0
220
0
230
1.0
 0
LINE
 8
TOOL_0
 5
12C
 10
5776.764
 20
1749.563
 30
0
 11
5776.764
 21
1862.063
 31
0
 0
LINE
 8
TOOL_0
 5
12D
 10
5776.764
 20
1862.063
 30
0
 11
6131.764
 21
1842.063
 31
0
 0
LINE
 8
TOOL_0
 5
12E
 10
6131.764
 20
1842.063
 30
0
 11
6166.764
 21
1842.063
 31
0
 0
LINE
 8
TOOL_0
 5
12F
 10
6166.764
 20
1842.063
 30
0
 11
6166.764
 21
1974.563
 31
0
 0
ARC
 8
TOOL_0
 5
130
 10
6131.764
 20
1974.563
 30
0
 40
35.0
 50
0
 51
90.0
210
0
220
0
230
1.0
 0
LINE
 8
TOOL_0
 5
131
 10
6131.764
 20
2009.563
 30
0
 11
6001.764
 21
2009.563
 31
0
 0
ARC
 8
TOOL_0
 5
132
 10
6001.764
 20
1974.563
 30
0
 40
35.0
 50
90.0
 51
180.0
210
0
220
0
230
1.0
 0
LINE
 8
TOOL_0
 5
133
 10
5966.764
 20
1974.563
 30
0
 11
5966.764
 21
1709.563
 31
0
 0
ARC
 8
TOOL_0
 5
134
 10
6001.764
 20
1709.563
 30
0
 40
35.0
 50
180.0
 51
270.0
210
0
220
0
230
1.0
 0
LINE
 8
TOOL_0
 5
135
 10
6001.764
 20
1674.563
 30
0
 11
6131.764
 21
1674.563
 31
0
 0
ARC
 8
TOOL_0
 5
136
 10
6131.764
 20
1709.563
 30
0
 40
35.0
 50
270.0
 51
0
210
0
220
0
230
1.0
 0
LINE
 8
TOOL_0
 5
137
 10
6166.764
 20
1709.563
 30
0
 11
6166.764
 21
1842.063
 31
0
 0
LINE
 8
TOOL_0
 5
138
 10
6166.764
 20
1842.063
 30
0
 11
6451.918
 21
1699.718
 31
0
 0
LINE
 8
TOOL_0
 5
139
 10
6451.918
 20
1699.718
 30
0
 11
6452.764
 21
1665.563
 31
0
 0
LINE
 8
TOOL_0
 5
13A
 10
6452.764
 20
1665.563
 30
0
 11
6452.764
 21
1609.149
 31
0
 0
LINE
 8
TOOL_0
 5
13B
 10
6452.764
 20
1609.149
 30
0
 11
6442.178
 21
1598.563
 31
0
 0
LINE
 8
TOOL_0
 5
13C
 10
6442.178
 20
1598.563
 30
0
 11
6319.764
 21
1598.563
 31
0
 0
ARC
 8
TOOL_0
 5
13D
 10
6319.764
 20
1591.563
 30
0
 40
7.0
 50
90.0
 51
180.0
210
0
220
0
230
1.0
 0
LINE
 8
TOOL_0
 5
13E
 10
6312.764
 20
1591.563
 30
0
 11
6312.764
 21
1578.563
 31
0
 0
LINE
 8
TOOL_0
 5
13F
 10
6312.764
 20
1578.563
 30
0
 11
5770.764
 21
1578.563
 31
0
 0
LINE
 8
TOOL_0
 5
140
 10
5770.764
 20
1578.563
 30
0
 11
5770.764
 21
1591.563
 31
0
 0
ARC
 8
TOOL_0
 5
141
 10
5763.764
 20
1591.563
 30
0
 40
7.0
 50
0
 51
90.0
210
0
220
0
230
1.0
 0
LINE
 8
TOOL_0
 5
142
 10
5763.764
 20
1598.563
 30
0
 11
5609.764
 21
1598.563
 31
0
 0
ARC
 8
TOOL_0
 5
143
 10
5609.764
 20
1591.563
 30
0
 40
7.0
 50
90.0
 51
180.0
210
0
220
0
230
1.0
 0
LINE
 8
TOOL_0
 5
144
 10
5602.764
 20
1591.563
 30
0
 11
5602.764
 21
1578.563
 31
0
 0
LINE
 8
TOOL_0
 5
145
 10
5602.764
 20
1578.563
 30
0
 11
5185.764
 21
1578.563
 31
0
 0
LINE
 8
TOOL_0
 5
146
 10
5185.764
 20
1578.563
 30
0
 11
5185.764
 21
1586.563
 31
0
 0
ARC
 8
TOOL_0
 5
147
 10
5178.764
 20
1586.563
 30
0
 40
7.0
 50
0
 51
90.0
210
0
220
0
230
1.0
 0
LINE
 8
TOOL_0
 5
148
 10
5178.764
 20
1593.563
 30
0
 11
5000.264
 21
1593.563
 31
0
 0
LINE
 8
TOOL_0
 5
149
 10
5000.264
 20
1593.563
 30
0
 11
5000.264
 21
1922.056
 31
0
 0
LINE
 8
TOOL_0
 5
14A
 10
5000.264
 20
1922.056
 30
0
 11
5654.911
 21
2174.563
 31
0
 0
LINE
 8
TOOL_0
 5
14B
 10
5654.911
 20
2174.563
 30
0
 11
6128.48
 21
2174.563
 31
0
 0
ARC
 8
TOOL_0
 5
14C
 10
6128.48
 20
2094.563
 30
0
 40
80.0
 50
50.389749357743
 51
90.0
210
0
220
0
230
1.0
 0
LINE
 8
TOOL_0
 5
14D
 10
6179.485
 20
2156.195
 30
0
 11
6452.763
 21
1930.034
 31
0
 0
LINE
 8
TOOL_0
 5
14E
 10
6452.763
 20
1930.034
 30
0
 11
6452.763
 21
1823.564
 31
0
 0
LINE
 8
TOOL_0
 5
14F
 10
6452.763
 20
1823.564
 30
0
 11
6371.763
 21
1823.564
 31
0
 0
ARC
 8
TOOL_0
 5
150
 10
6371.763
 20
1774.564
 30
0
 40
49.0
 50
90.0
 51
180.0
210
0
220
0
230
1.0
 0
LINE
 8
TOOL_0
 5
151
 10
6322.763
 20
1774.564
 30
0
 11
6322.763
 21
1714.564
 31
0
 0
ARC
 8
TOOL_0
 5
152
 10
6371.763
 20
1714.564
 30
0
 40
49.0
 50
180.0
 51
270.0
210
0
220
0
230
1.0
 0
LINE
 8
TOOL_0
 5
153
 10
6371.763
 20
1665.564
 30
0
 11
6452.763
 21
1665.564
 31
0
 0
LINE
 8
TOOL_0
 5
154
 10
6452.763
 20
1665.564
 30
0
 11
6461.42
 21
1665.401
 31
0
 0
LINE
 8
TOOL_0
 5
155
 10
6461.42
 20
1665.401
 30
0
 11
7217.043
 21
1868.606
 31
0
 0
LINE
 8
TOOL_0
 5
156
 10
7217.043
 20
1868.606
 30
0
 11
7252.043
 21
1868.606
 31
0
 0
LINE
 8
TOOL_0
 5
157
 10
7252.043
 20
1868.606
 30
0
 11
7252.043
 21
1981.106
 31
0
 0
ARC
 8
TOOL_0
 5
158
 10
7217.043
 20
1981.106
 30
0
 40
35.0
 50
0
 51
90.0
210
0
220
0
230
1.0
 0
LINE
 8
TOOL_0
 5
159
 10
7217.043
 20
2016.106
 30
0
 11
7087.043
 21
2016.106
 31
0
 0
ARC
 8
TOOL_0
 5
15A
 10
7087.043
 20
1981.106
 30
0
 40
35.0
 50
90.0
 51
180.0
210
0
220
0
230
1.0
 0
LINE
 8
TOOL_0
 5
15B
 10
7052.043
 20
1981.106
 30
0
 11
7052.043
 21
1756.106
 31
0
 0
ARC
 8
TOOL_0
 5
15C
 10
7087.043
 20
1756.106
 30
0
 40
35.0
 50
180.0
 51
270.0
210
0
220
0
230
1.0
 0
LINE
 8
TOOL_0
 5
15D
 10
7087.043
 20
1721.106
 30
0
 11
7217.043
 21
1721.106
 31
0
 0
ARC
 8
TOOL_0
 5
15E
 10
7217.043
 20
1756.106
 30
0
 40
35.0
 50
270.0
 51
0
210
0
220
0
230
1.0
 0
LINE
 8
TOOL_0
 5
15F
 10
7252.043
 20
1756.106
 30
0
 11
7252.043
 21
1868.606
 31
0
 0
LINE
 8
TOOL_0
 5
160
 10
7252.043
 20
1868.606
 30
0
 11
7607.043
 21
1848.606
 31
0
 0
LINE
 8
TOOL_0
 5
161
 10
7607.043
 20
1848.606
 30
0
 11
7642.043
 21
1848.606
 31
0
 0
LINE
 8
TOOL_0
 5
162
 10
7642.043
 20
1848.606
 30
0
 11
7642.043
 21
1981.106
 31
0
 0
ARC
 8
TOOL_0
 5
163
 10
7607.043
 20
1981.106
 30
0
 40
35.0
 50
0
 51
90.0
210
0
220
0
230
1.0
 0
LINE
 8
TOOL_0
 5
164
 10
7607.043
 20
2016.106
 30
0
 11
7477.043
 21
2016.106
 31
0
 0
ARC
 8
TOOL_0
 5
165
 10
7477.043
 20
1981.106
 30
0
 40
35.0
 50
90.0
 51
180.0
210
0
220
0
230
1.0
 0
LINE
 8
TOOL_0
 5
166
 10
7442.043
 20
1981.106
 30
0
 11
7442.043
 21
1716.106
 31
0
 0
ARC
 8
TOOL_0
 5
167
 10
7477.043
 20
1716.106
 30
0
 40
35.0
 50
180.0
 51
270.0
210
0
220
0
230
1.0
 0
LINE
 8
TOOL_0
 5
168
 10
7477.043
 20
1681.106
 30
0
 11
7607.043
 21
1681.106
 31
0
 0
ARC
 8
TOOL_0
 5
169
 10
7607.043
 20
1716.106
 30
0
 40
35.0
 50
270.0
 51
0
210
0
220
0
230
1.0
 0
LINE
 8
TOOL_0
 5
16A
 10
7642.043
 20
1716.106
 30
0
 11
7642.043
 21
1848.606
 31
0
 0
LINE
 8
TOOL_0
 5
16B
 10
7642.043
 20
1848.606
 30
0
 11
7952.792
 21
1696.855
 31
0
 0
LINE
 8
TOOL_0
 5
16C
 10
7952.792
 20
1696.855
 30
0
 11
7928.043
 21
1672.106
 31
0
 0
LINE
 8
TOOL_0
 5
16D
 10
7928.043
 20
1672.106
 30
0
 11
7928.043
 21
1615.692
 31
0
 0
LINE
 8
TOOL_0
 5
16E
 10
7928.043
 20
1615.692
 30
0
 11
7917.457
 21
1605.106
 31
0
 0
LINE
 8
TOOL_0
 5
16F
 10
7917.457
 20
1605.106
 30
0
 11
7795.043
 21
1605.106
 31
0
 0
ARC
 8
TOOL_0
 5
170
 10
7795.043
 20
1598.106
 30
0
 40
7.0
 50
90.0
 51
180.0
210
0
220
0
230
1.0
 0
LINE
 8
TOOL_0
 5
171
 10
7788.043
 20
1598.106
 30
0
 11
7788.043
 21
1585.106
 31
0
 0
LINE
 8
TOOL_0
 5
172
 10
7788.043
 20
1585.106
 30
0
 11
7246.043
 21
1585.106
 31
0
 0
LINE
 8
TOOL_0
 5
173
 10
7246.043
 20
1585.106
 30
0
 11
7246.043
 21
1598.106
 31
0
 0
ARC
 8
TOOL_0
 5
174
 10
7239.043
 20
1598.106
 30
0
 40
7.0
 50
0
 51
90.0
210
0
220
0
230
1.0
 0
LINE
 8
TOOL_0
 5
175
 10
7239.043
 20
1605.106
 30
0
 11
7085.043
 21
1605.106
 31
0
 0
ARC
 8
TOOL_0
 5
176
 10
7085.043
 20
1598.106
 30
0
 40
7.0
 50
90.0
 51
180.0
210
0
220
0
230
1.0
 0
LINE
 8
TOOL_0
 5
177
 10
7078.043
 20
1598.106
 30
0
 11
7078.043
 21
1585.106
 31
0
 0
LINE
 8
TOOL_0
 5
178
 10
7078.043
 20
1585.106
 30
0
 11
6661.043
 21
1585.106
 31
0
 0
LINE
 8
TOOL_0
 5
179
 10
6661.043
 20
1585.106
 30
0
 11
6661.043
 21
1593.106
 31
0
 0
ARC
 8
TOOL_0
 5
17A
 10
6654.043
 20
1593.106
 30
0
 40
7.0
 50
0
 51
90.0
210
0
220
0
230
1.0
 0
LINE
 8
TOOL_0
 5
17B
 10
6654.043
 20
1600.106
 30
0
 11
6475.543
 21
1600.106
 31
0
 0
LINE
 8
TOOL_0
 5
17C
 10
6475.543
 20
1600.106
 30
0
 11
6475.543
 21
1928.599
 31
0
 0
LINE
 8
TOOL_0
 5
17D
 10
6475.543
 20
1928.599
 30
0
 11
7130.19
 21
2181.106
 31
0
 0
LINE
 8
TOOL_0
 5
17E
 10
7130.19
 20
2181.106
 30
0
 11
7603.759
 21
2181.106
 31
0
 0
ARC
 8
TOOL_0
 5
17F
 10
7603.759
 20
2101.106
 30
0
 40
80.0
 50
50.389749357743
 51
90.0
210
0
220
0
230
1.0
 0
LINE
 8
TOOL_0
 5
180
 10
7654.764
 20
2162.738
 30
0
 11
7928.042
 21
1936.577
 31
0
 0
LINE
 8
TOOL_0
 5
181
 10
7928.042
 20
1936.577
 30
0
 11
7928.042
 21
1830.107
 31
0
 0
LINE
 8
TOOL_0
 5
182
 10
7928.042
 20
1830.107
 30
0
 11
7847.042
 21
1830.107
 31
0
 0
ARC
 8
TOOL_0
 5
183
 10
7847.042
 20
1781.107
 30
0
 40
49.0
 50
90.0
 51
180.0
210
0
220
0
230
1.0
 0
LINE
 8
TOOL_0
 5
184
 10
7798.042
 20
1781.107
 30
0
 11
7798.042
 21
1721.107
 31
0
 0
ARC
 8
TOOL_0
 5
185
 10
7847.042
 20
1721.107
 30
0
 40
49.0
 50
180.0
 51
270.0
210
0
220
0
230
1.0
 0
LINE
 8
TOOL_0
 5
186
 10
7847.042
 20
1672.107
 30
0
 11
7928.042
 21
1672.107
 31
0
 0
LINE
 8
TOOL_0
 5
187
 10
7928.042
 20
1672.107
 30
0
 11
7931.578
 21
1668.571
 31
0
 0
ENDSEC
 0
EOF

