0
SECTION
2
TABLES
0
TABLE
2
LAYER
70
0
0
LAYER
2
LAYER_NAME
70
0
62
1
6
CONTINUOUS
0
ENDTAB
0
ENDSEC
 0
SECTION
 2
ENTITIES
 0
LINE
 8
TOOL_0
 5
1
 10
581.434
 20
18.146
 30
0
 11
546.434
 21
18.146
 31
0
 0
LINE
 8
TOOL_0
 5
2
 10
546.434
 20
18.146
 30
0
 11
543.563
 21
19.022
 31
0
 0
ARC
 8
TOOL_0
 5
3
 10
543.294
 20
21.507
 30
0
 40
2.499517153372
 50
270.0
 51
276.178182374341
210
0
220
0
230
1.0
 0
LINE
 8
TOOL_0
 5
4
 10
543.294
 20
19.007
 30
0
 11
443.294
 21
19.007
 31
0
 0
ARC
 8
TOOL_0
 5
5
 10
443.294
 20
119.507
 30
0
 40
100.5
 50
231.786353568122
 51
270.0
210
0
220
0
230
1.0
 0
ARC
 8
TOOL_0
 5
6
 10
356.692
 20
9.507
 30
0
 40
39.499427654081
 50
51.788513824525
 51
128.214662883307
210
0
220
0
230
1.0
 0
ARC
 8
TOOL_0
 5
7
 10
270.089
 20
119.506
 30
0
 40
100.499619501767
 50
269.999429892741
 51
308.213198491447
210
0
220
0
230
1.0
 0
LINE
 8
TOOL_0
 5
8
 10
270.088
 20
19.006
 30
0
 11
213.294
 21
19.006
 31
0
 0
ARC
 8
TOOL_0
 5
9
 10
213.294
 20
39.506
 30
0
 40
20.5
 50
180.0
 51
270.0
210
0
220
0
230
1.0
 0
LINE
 8
TOOL_0
 5
A
 10
192.794
 20
39.506
 30
0
 11
192.794
 21
65.506
 31
0
 0
ARC
 8
TOOL_0
 5
B
 10
195.294
 20
65.506
 30
0
 40
2.5
 50
90.0
 51
180.0
210
0
220
0
230
1.0
 0
LINE
 8
TOOL_0
 5
C
 10
195.294
 20
68.006
 30
0
 11
213.294
 21
68.006
 31
0
 0
ARC
 8
TOOL_0
 5
D
 10
213.294
 20
65.506
 30
0
 40
2.5
 50
0
 51
90.0
210
0
220
0
230
1.0
 0
LINE
 8
TOOL_0
 5
E
 10
215.794
 20
65.506
 30
0
 11
215.794
 21
64.557
 31
0
 0
ARC
 8
TOOL_0
 5
F
 10
225.092
 20
66.506
 30
0
 40
9.500073947081
 50
191.838648724992
 51
270.0
210
0
220
0
230
1.0
 0
LINE
 8
TOOL_0
 5
10
 10
225.092
 20
57.006
 30
0
 11
267.096
 21
57.006
 31
0
 0
ARC
 8
TOOL_0
 5
11
 10
267.096
 20
106.506
 30
0
 40
49.5
 50
270.0
 51
309.999416553228
210
0
220
0
230
1.0
 0
LINE
 8
TOOL_0
 5
12
 10
298.914
 20
68.586
 30
0
 11
356.075
 21
116.55
 31
0
 0
ARC
 8
TOOL_0
 5
13
 10
333.899
 20
142.979
 30
0
 40
34.500246622307
 50
309.999282286976
 51
349.341475787484
210
0
220
0
230
1.0
 0
ARC
 8
TOOL_0
 5
14
 10
371.913
 20
135.825
 30
0
 40
4.181077612291
 50
90.0
 51
169.345830719527
210
0
220
0
230
1.0
 0
LINE
 8
TOOL_0
 5
15
 10
371.913
 20
140.006
 30
0
 11
420.296
 21
140.006
 31
0
 0
ARC
 8
TOOL_0
 5
16
 10
420.296
 20
136.506
 30
0
 40
3.5
 50
0
 51
90.0
210
0
220
0
230
1.0
 0
LINE
 8
TOOL_0
 5
17
 10
423.796
 20
136.506
 30
0
 11
423.796
 21
64.506
 31
0
 0
ARC
 8
TOOL_0
 5
18
 10
443.296
 20
64.506
 30
0
 40
19.5
 50
180.0
 51
270.0
210
0
220
0
230
1.0
 0
LINE
 8
TOOL_0
 5
19
 10
443.296
 20
45.006
 30
0
 11
543.296
 21
45.006
 31
0
 0
ARC
 8
TOOL_0
 5
1A
 10
543.296
 20
42.506
 30
0
 40
2.5
 50
0
 51
90.0
210
0
220
0
230
1.0
 0
LINE
 8
TOOL_0
 5
1B
 10
545.796
 20
42.506
 30
0
 11
545.796
 21
21.506
 31
0
 0
ARC
 8
TOOL_0
 5
1C
 10
543.296
 20
21.506
 30
0
 40
2.5
 50
349.908369030693
 51
0
210
0
220
0
230
1.0
 0
LINE
 8
TOOL_0
 5
1D
 10
545.757
 20
21.068
 30
0
 11
546.435
 21
18.144
 31
0
 0
LINE
 8
TOOL_0
 5
1E
 10
546.435
 20
18.144
 30
0
 11
546.435
 21
13.144
 31
0
 0
LINE
 8
TOOL_0
 5
1F
 10
546.435
 20
13.144
 30
0
 11
535.987
 21
157.301
 31
0
 0
LINE
 8
TOOL_0
 5
20
 10
535.987
 20
157.301
 30
0
 11
500.987
 21
157.301
 31
0
 0
LINE
 8
TOOL_0
 5
21
 10
500.987
 20
157.301
 30
0
 11
498.116
 21
158.177
 31
0
 0
ARC
 8
TOOL_0
 5
22
 10
497.847
 20
160.662
 30
0
 40
2.499517153372
 50
270.0
 51
276.178182374341
210
0
220
0
230
1.0
 0
LINE
 8
TOOL_0
 5
23
 10
497.847
 20
158.162
 30
0
 11
397.847
 21
158.162
 31
0
 0
ARC
 8
TOOL_0
 5
24
 10
397.847
 20
258.662
 30
0
 40
100.5
 50
231.786353568122
 51
270.0
210
0
220
0
230
1.0
 0
ARC
 8
TOOL_0
 5
25
 10
311.245
 20
148.662
 30
0
 40
39.499427654081
 50
51.788513824525
 51
128.214662883307
210
0
220
0
230
1.0
 0
ARC
 8
TOOL_0
 5
26
 10
224.642
 20
258.661
 30
0
 40
100.499619501767
 50
269.999429892741
 51
308.213198491447
210
0
220
0
230
1.0
 0
LINE
 8
TOOL_0
 5
27
 10
224.641
 20
158.161
 30
0
 11
167.847
 21
158.161
 31
0
 0
ARC
 8
TOOL_0
 5
28
 10
167.847
 20
178.661
 30
0
 40
20.5
 50
180.0
 51
270.0
210
0
220
0
230
1.0
 0
LINE
 8
TOOL_0
 5
29
 10
147.347
 20
178.661
 30
0
 11
147.347
 21
204.661
 31
0
 0
ARC
 8
TOOL_0
 5
2A
 10
149.847
 20
204.661
 30
0
 40
2.5
 50
90.0
 51
180.0
210
0
220
0
230
1.0
 0
LINE
 8
TOOL_0
 5
2B
 10
149.847
 20
207.161
 30
0
 11
167.847
 21
207.161
 31
0
 0
ARC
 8
TOOL_0
 5
2C
 10
167.847
 20
204.661
 30
0
 40
2.5
 50
0
 51
90.0
210
0
220
0
230
1.0
 0
LINE
 8
TOOL_0
 5
2D
 10
170.347
 20
204.661
 30
0
 11
170.347
 21
203.712
 31
0
 0
ARC
 8
TOOL_0
 5
2E
 10
179.645
 20
205.661
 30
0
 40
9.500073947081
 50
191.838648724992
 51
270.0
210
0
220
0
230
1.0
 0
LINE
 8
TOOL_0
 5
2F
 10
179.645
 20
196.161
 30
0
 11
221.649
 21
196.161
 31
0
 0
ARC
 8
TOOL_0
 5
30
 10
221.649
 20
245.661
 30
0
 40
49.5
 50
270.0
 51
309.999416553228
210
0
220
0
230
1.0
 0
LINE
 8
TOOL_0
 5
31
 10
253.467
 20
207.741
 30
0
 11
310.628
 21
255.705
 31
0
 0
ARC
 8
TOOL_0
 5
32
 10
288.452
 20
282.134
 30
0
 40
34.500246622307
 50
309.999282286976
 51
349.341475787484
210
0
220
0
230
1.0
 0
ARC
 8
TOOL_0
 5
33
 10
326.466
 20
274.98
 30
0
 40
4.181077612291
 50
90.0
 51
169.345830719526
210
0
220
0
230
1.0
 0
LINE
 8
TOOL_0
 5
34
 10
326.466
 20
279.161
 30
0
 11
374.849
 21
279.161
 31
0
 0
ARC
 8
TOOL_0
 5
35
 10
374.849
 20
275.661
 30
0
 40
3.5
 50
0
 51
90.0
210
0
220
0
230
1.0
 0
LINE
 8
TOOL_0
 5
36
 10
378.349
 20
275.661
 30
0
 11
378.349
 21
203.661
 31
0
 0
ARC
 8
TOOL_0
 5
37
 10
397.849
 20
203.661
 30
0
 40
19.5
 50
180.0
 51
270.0
210
0
220
0
230
1.0
 0
LINE
 8
TOOL_0
 5
38
 10
397.849
 20
184.161
 30
0
 11
497.849
 21
184.161
 31
0
 0
ARC
 8
TOOL_0
 5
39
 10
497.849
 20
181.661
 30
0
 40
2.5
 50
0
 51
90.0
210
0
220
0
230
1.0
 0
LINE
 8
TOOL_0
 5
3A
 10
500.349
 20
181.661
 30
0
 11
500.349
 21
160.661
 31
0
 0
ARC
 8
TOOL_0
 5
3B
 10
497.849
 20
160.661
 30
0
 40
2.5
 50
349.908369030693
 51
0
210
0
220
0
230
1.0
 0
LINE
 8
TOOL_0
 5
3C
 10
500.31
 20
160.223
 30
0
 11
500.988
 21
157.299
 31
0
 0
LINE
 8
TOOL_0
 5
3D
 10
500.988
 20
157.299
 30
0
 11
500.988
 21
152.299
 31
0
 0
LINE
 8
TOOL_0
 5
3E
 10
500.988
 20
152.299
 30
0
 11
519.518
 21
305.193
 31
0
 0
LINE
 8
TOOL_0
 5
3F
 10
519.518
 20
305.193
 30
0
 11
484.518
 21
305.193
 31
0
 0
LINE
 8
TOOL_0
 5
40
 10
484.518
 20
305.193
 30
0
 11
481.647
 21
306.069
 31
0
 0
ARC
 8
TOOL_0
 5
41
 10
481.378
 20
308.554
 30
0
 40
2.499517153372
 50
270.0
 51
276.178182374341
210
0
220
0
230
1.0
 0
LINE
 8
TOOL_0
 5
42
 10
481.378
 20
306.054
 30
0
 11
381.378
 21
306.054
 31
0
 0
ARC
 8
TOOL_0
 5
43
 10
381.378
 20
406.554
 30
0
 40
100.5
 50
231.786353568122
 51
270.0
210
0
220
0
230
1.0
 0
ARC
 8
TOOL_0
 5
44
 10
294.776
 20
296.554
 30
0
 40
39.499427654081
 50
51.788513824525
 51
128.214662883307
210
0
220
0
230
1.0
 0
ARC
 8
TOOL_0
 5
45
 10
208.173
 20
406.553
 30
0
 40
100.499619501767
 50
269.999429892741
 51
308.213198491447
210
0
220
0
230
1.0
 0
LINE
 8
TOOL_0
 5
46
 10
208.172
 20
306.053
 30
0
 11
151.378
 21
306.053
 31
0
 0
ARC
 8
TOOL_0
 5
47
 10
151.378
 20
326.553
 30
0
 40
20.5
 50
180.0
 51
270.0
210
0
220
0
230
1.0
 0
LINE
 8
TOOL_0
 5
48
 10
130.878
 20
326.553
 30
0
 11
130.878
 21
352.553
 31
0
 0
ARC
 8
TOOL_0
 5
49
 10
133.378
 20
352.553
 30
0
 40
2.5
 50
90.0
 51
180.0
210
0
220
0
230
1.0
 0
LINE
 8
TOOL_0
 5
4A
 10
133.378
 20
355.053
 30
0
 11
151.378
 21
355.053
 31
0
 0
ARC
 8
TOOL_0
 5
4B
 10
151.378
 20
352.553
 30
0
 40
2.5
 50
0
 51
90.0
210
0
220
0
230
1.0
 0
LINE
 8
TOOL_0
 5
4C
 10
153.878
 20
352.553
 30
0
 11
153.878
 21
351.604
 31
0
 0
ARC
 8
TOOL_0
 5
4D
 10
163.176
 20
353.553
 30
0
 40
9.500073947081
 50
191.838648724992
 51
270.0
210
0
220
0
230
1.0
 0
LINE
 8
TOOL_0
 5
4E
 10
163.176
 20
344.053
 30
0
 11
205.18
 21
344.053
 31
0
 0
ARC
 8
TOOL_0
 5
4F
 10
205.18
 20
393.553
 30
0
 40
49.5
 50
270.0
 51
309.999416553228
210
0
220
0
230
1.0
 0
LINE
 8
TOOL_0
 5
50
 10
236.998
 20
355.633
 30
0
 11
294.159
 21
403.597
 31
0
 0
ARC
 8
TOOL_0
 5
51
 10
271.983
 20
430.026
 30
0
 40
34.500246622307
 50
309.999282286976
 51
349.341475787484
210
0
220
0
230
1.0
 0
ARC
 8
TOOL_0
 5
52
 10
309.997
 20
422.872
 30
0
 40
4.181077612291
 50
90.0
 51
169.345830719526
210
0
220
0
230
1.0
 0
LINE
 8
TOOL_0
 5
53
 10
309.997
 20
427.053
 30
0
 11
358.38
 21
427.053
 31
0
 0
ARC
 8
TOOL_0
 5
54
 10
358.38
 20
423.553
 30
0
 40
3.5
 50
0
 51
90.0
210
0
220
0
230
1.0
 0
LINE
 8
TOOL_0
 5
55
 10
361.88
 20
423.553
 30
0
 11
361.88
 21
351.553
 31
0
 0
ARC
 8
TOOL_0
 5
56
 10
381.38
 20
351.553
 30
0
 40
19.5
 50
180.0
 51
270.0
210
0
220
0
230
1.0
 0
LINE
 8
TOOL_0
 5
57
 10
381.38
 20
332.053
 30
0
 11
481.38
 21
332.053
 31
0
 0
ARC
 8
TOOL_0
 5
58
 10
481.38
 20
329.553
 30
0
 40
2.5
 50
0
 51
90.0
210
0
220
0
230
1.0
 0
LINE
 8
TOOL_0
 5
59
 10
483.88
 20
329.553
 30
0
 11
483.88
 21
308.553
 31
0
 0
ARC
 8
TOOL_0
 5
5A
 10
481.38
 20
308.553
 30
0
 40
2.5
 50
349.908369030693
 51
0
210
0
220
0
230
1.0
 0
LINE
 8
TOOL_0
 5
5B
 10
483.841
 20
308.115
 30
0
 11
484.519
 21
305.191
 31
0
 0
LINE
 8
TOOL_0
 5
5C
 10
484.519
 20
305.191
 30
0
 11
484.519
 21
300.191
 31
0
 0
LINE
 8
TOOL_0
 5
5D
 10
484.519
 20
300.191
 30
0
 11
459.818
 21
444.348
 31
0
 0
LINE
 8
TOOL_0
 5
5E
 10
459.818
 20
444.348
 30
0
 11
424.818
 21
444.348
 31
0
 0
LINE
 8
TOOL_0
 5
5F
 10
424.818
 20
444.348
 30
0
 11
421.947
 21
445.224
 31
0
 0
ARC
 8
TOOL_0
 5
60
 10
421.678
 20
447.709
 30
0
 40
2.499517153372
 50
270.0
 51
276.178182374341
210
0
220
0
230
1.0
 0
LINE
 8
TOOL_0
 5
61
 10
421.678
 20
445.209
 30
0
 11
321.678
 21
445.209
 31
0
 0
ARC
 8
TOOL_0
 5
62
 10
321.678
 20
545.709
 30
0
 40
100.5
 50
231.786353568122
 51
270.0
210
0
220
0
230
1.0
 0
ARC
 8
TOOL_0
 5
63
 10
235.076
 20
435.709
 30
0
 40
39.499427654081
 50
51.788513824525
 51
128.214662883307
210
0
220
0
230
1.0
 0
ARC
 8
TOOL_0
 5
64
 10
148.473
 20
545.708
 30
0
 40
100.499619501767
 50
269.999429892741
 51
308.213198491447
210
0
220
0
230
1.0
 0
LINE
 8
TOOL_0
 5
65
 10
148.472
 20
445.208
 30
0
 11
91.678
 21
445.208
 31
0
 0
ARC
 8
TOOL_0
 5
66
 10
91.678
 20
465.708
 30
0
 40
20.5
 50
180.0
 51
270.0
210
0
220
0
230
1.0
 0
LINE
 8
TOOL_0
 5
67
 10
71.178
 20
465.708
 30
0
 11
71.178
 21
491.708
 31
0
 0
ARC
 8
TOOL_0
 5
68
 10
73.678
 20
491.708
 30
0
 40
2.5
 50
90.0
 51
180.0
210
0
220
0
230
1.0
 0
LINE
 8
TOOL_0
 5
69
 10
73.678
 20
494.208
 30
0
 11
91.678
 21
494.208
 31
0
 0
ARC
 8
TOOL_0
 5
6A
 10
91.678
 20
491.708
 30
0
 40
2.5
 50
0
 51
90.0
210
0
220
0
230
1.0
 0
LINE
 8
TOOL_0
 5
6B
 10
94.178
 20
491.708
 30
0
 11
94.178
 21
490.759
 31
0
 0
ARC
 8
TOOL_0
 5
6C
 10
103.476
 20
492.708
 30
0
 40
9.500073947081
 50
191.838648724992
 51
270.0
210
0
220
0
230
1.0
 0
LINE
 8
TOOL_0
 5
6D
 10
103.476
 20
483.208
 30
0
 11
145.48
 21
483.208
 31
0
 0
ARC
 8
TOOL_0
 5
6E
 10
145.48
 20
532.708
 30
0
 40
49.5
 50
270.0
 51
309.999416553228
210
0
220
0
230
1.0
 0
LINE
 8
TOOL_0
 5
6F
 10
177.298
 20
494.788
 30
0
 11
234.459
 21
542.752
 31
0
 0
ARC
 8
TOOL_0
 5
70
 10
212.283
 20
569.181
 30
0
 40
34.500246622307
 50
309.999282286976
 51
349.341475787484
210
0
220
0
230
1.0
 0
ARC
 8
TOOL_0
 5
71
 10
250.297
 20
562.027
 30
0
 40
4.181077612291
 50
90.0
 51
169.345830719526
210
0
220
0
230
1.0
 0
LINE
 8
TOOL_0
 5
72
 10
250.297
 20
566.208
 30
0
 11
298.68
 21
566.208
 31
0
 0
ARC
 8
TOOL_0
 5
73
 10
298.68
 20
562.708
 30
0
 40
3.5
 50
0
 51
90.0
210
0
220
0
230
1.0
 0
LINE
 8
TOOL_0
 5
74
 10
302.18
 20
562.708
 30
0
 11
302.18
 21
490.708
 31
0
 0
ARC
 8
TOOL_0
 5
75
 10
321.68
 20
490.708
 30
0
 40
19.5
 50
180.0
 51
270.0
210
0
220
0
230
1.0
 0
LINE
 8
TOOL_0
 5
76
 10
321.68
 20
471.208
 30
0
 11
421.68
 21
471.208
 31
0
 0
ARC
 8
TOOL_0
 5
77
 10
421.68
 20
468.708
 30
0
 40
2.5
 50
0
 51
90.0
210
0
220
0
230
1.0
 0
LINE
 8
TOOL_0
 5
78
 10
424.18
 20
468.708
 30
0
 11
424.18
 21
447.708
 31
0
 0
ARC
 8
TOOL_0
 5
79
 10
421.68
 20
447.708
 30
0
 40
2.5
 50
349.908369030693
 51
0
210
0
220
0
230
1.0
 0
LINE
 8
TOOL_0
 5
7A
 10
424.141
 20
447.27
 30
0
 11
424.819
 21
444.346
 31
0
 0
LINE
 8
TOOL_0
 5
7B
 10
424.819
 20
444.346
 30
0
 11
424.819
 21
439.346
 31
0
 0
LINE
 8
TOOL_0
 5
7C
 10
424.819
 20
439.346
 30
0
 11
450.159
 21
582.232
 31
0
 0
LINE
 8
TOOL_0
 5
7D
 10
450.159
 20
582.232
 30
0
 11
415.159
 21
582.232
 31
0
 0
LINE
 8
TOOL_0
 5
7E
 10
415.159
 20
582.232
 30
0
 11
412.288
 21
583.108
 31
0
 0
ARC
 8
TOOL_0
 5
7F
 10
412.019
 20
585.593
 30
0
 40
2.499517153372
 50
270.0
 51
276.178182374341
210
0
220
0
230
1.0
 0
LINE
 8
TOOL_0
 5
80
 10
412.019
 20
583.093
 30
0
 11
312.019
 21
583.093
 31
0
 0
ARC
 8
TOOL_0
 5
81
 10
312.019
 20
683.593
 30
0
 40
100.5
 50
231.786353568122
 51
270.0
210
0
220
0
230
1.0
 0
ARC
 8
TOOL_0
 5
82
 10
225.417
 20
573.593
 30
0
 40
39.499427654081
 50
51.788513824525
 51
128.214662883307
210
0
220
0
230
1.0
 0
ARC
 8
TOOL_0
 5
83
 10
138.814
 20
683.592
 30
0
 40
100.499619501767
 50
269.999429892741
 51
308.213198491447
210
0
220
0
230
1.0
 0
LINE
 8
TOOL_0
 5
84
 10
138.813
 20
583.092
 30
0
 11
82.019
 21
583.092
 31
0
 0
ARC
 8
TOOL_0
 5
85
 10
82.019
 20
603.592
 30
0
 40
20.5
 50
180.0
 51
270.0
210
0
220
0
230
1.0
 0
LINE
 8
TOOL_0
 5
86
 10
61.519
 20
603.592
 30
0
 11
61.519
 21
629.592
 31
0
 0
ARC
 8
TOOL_0
 5
87
 10
64.019
 20
629.592
 30
0
 40
2.5
 50
90.0
 51
180.0
210
0
220
0
230
1.0
 0
LINE
 8
TOOL_0
 5
88
 10
64.019
 20
632.092
 30
0
 11
82.019
 21
632.092
 31
0
 0
ARC
 8
TOOL_0
 5
89
 10
82.019
 20
629.592
 30
0
 40
2.5
 50
0
 51
90.0
210
0
220
0
230
1.0
 0
LINE
 8
TOOL_0
 5
8A
 10
84.519
 20
629.592
 30
0
 11
84.519
 21
628.643
 31
0
 0
ARC
 8
TOOL_0
 5
8B
 10
93.817
 20
630.592
 30
0
 40
9.500073947081
 50
191.838648724992
 51
270.0
210
0
220
0
230
1.0
 0
LINE
 8
TOOL_0
 5
8C
 10
93.817
 20
621.092
 30
0
 11
135.821
 21
621.092
 31
0
 0
ARC
 8
TOOL_0
 5
8D
 10
135.821
 20
670.592
 30
0
 40
49.5
 50
270.0
 51
309.999416553228
210
0
220
0
230
1.0
 0
LINE
 8
TOOL_0
 5
8E
 10
167.639
 20
632.672
 30
0
 11
224.8
 21
680.636
 31
0
 0
ARC
 8
TOOL_0
 5
8F
 10
202.624
 20
707.065
 30
0
 40
34.500246622307
 50
309.999282286976
 51
349.341475787484
210
0
220
0
230
1.0
 0
ARC
 8
TOOL_0
 5
90
 10
240.638
 20
699.911
 30
0
 40
4.181077612291
 50
90.0
 51
169.345830719526
210
0
220
0
230
1.0
 0
LINE
 8
TOOL_0
 5
91
 10
240.638
 20
704.092
 30
0
 11
289.021
 21
704.092
 31
0
 0
ARC
 8
TOOL_0
 5
92
 10
289.021
 20
700.592
 30
0
 40
3.5
 50
0
 51
90.0
210
0
220
0
230
1.0
 0
LINE
 8
TOOL_0
 5
93
 10
292.521
 20
700.592
 30
0
 11
292.521
 21
628.592
 31
0
 0
ARC
 8
TOOL_0
 5
94
 10
312.021
 20
628.592
 30
0
 40
19.5
 50
180.0
 51
270.0
210
0
220
0
230
1.0
 0
LINE
 8
TOOL_0
 5
95
 10
312.021
 20
609.092
 30
0
 11
412.021
 21
609.092
 31
0
 0
ARC
 8
TOOL_0
 5
96
 10
412.021
 20
606.592
 30
0
 40
2.5
 50
0
 51
90.0
210
0
220
0
230
1.0
 0
LINE
 8
TOOL_0
 5
97
 10
414.521
 20
606.592
 30
0
 11
414.521
 21
585.592
 31
0
 0
ARC
 8
TOOL_0
 5
98
 10
412.021
 20
585.592
 30
0
 40
2.5
 50
349.908369030693
 51
0
210
0
220
0
230
1.0
 0
LINE
 8
TOOL_0
 5
99
 10
414.482
 20
585.154
 30
0
 11
415.16
 21
582.23
 31
0
 0
LINE
 8
TOOL_0
 5
9A
 10
415.16
 20
582.23
 30
0
 11
415.16
 21
577.23
 31
0
 0
LINE
 8
TOOL_0
 5
9B
 10
415.16
 20
577.23
 30
0
 11
430.999
 21
720.911
 31
0
 0
LINE
 8
TOOL_0
 5
9C
 10
430.999
 20
720.911
 30
0
 11
395.999
 21
720.911
 31
0
 0
LINE
 8
TOOL_0
 5
9D
 10
395.999
 20
720.911
 30
0
 11
393.128
 21
721.787
 31
0
 0
ARC
 8
TOOL_0
 5
9E
 10
392.859
 20
724.272
 30
0
 40
2.499517153372
 50
270.0
 51
276.178182374341
210
0
220
0
230
1.0
 0
LINE
 8
TOOL_0
 5
9F
 10
392.859
 20
721.772
 30
0
 11
292.859
 21
721.772
 31
0
 0
ARC
 8
TOOL_0
 5
A0
 10
292.859
 20
822.272
 30
0
 40
100.5
 50
231.786353568122
 51
270.0
210
0
220
0
230
1.0
 0
ARC
 8
TOOL_0
 5
A1
 10
206.257
 20
712.272
 30
0
 40
39.499427654081
 50
51.788513824525
 51
128.214662883307
210
0
220
0
230
1.0
 0
ARC
 8
TOOL_0
 5
A2
 10
119.654
 20
822.271
 30
0
 40
100.499619501767
 50
269.999429892741
 51
308.213198491447
210
0
220
0
230
1.0
 0
LINE
 8
TOOL_0
 5
A3
 10
119.653
 20
721.771
 30
0
 11
62.859
 21
721.771
 31
0
 0
ARC
 8
TOOL_0
 5
A4
 10
62.859
 20
742.271
 30
0
 40
20.5
 50
180.0
 51
270.0
210
0
220
0
230
1.0
 0
LINE
 8
TOOL_0
 5
A5
 10
42.359
 20
742.271
 30
0
 11
42.359
 21
768.271
 31
0
 0
ARC
 8
TOOL_0
 5
A6
 10
44.859
 20
768.271
 30
0
 40
2.5
 50
90.0
 51
180.0
210
0
220
0
230
1.0
 0
LINE
 8
TOOL_0
 5
A7
 10
44.859
 20
770.771
 30
0
 11
62.859
 21
770.771
 31
0
 0
ARC
 8
TOOL_0
 5
A8
 10
62.859
 20
768.271
 30
0
 40
2.5
 50
0
 51
90.0
210
0
220
0
230
1.0
 0
LINE
 8
TOOL_0
 5
A9
 10
65.359
 20
768.271
 30
0
 11
65.359
 21
767.322
 31
0
 0
ARC
 8
TOOL_0
 5
AA
 10
74.657
 20
769.271
 30
0
 40
9.500073947081
 50
191.838648724992
 51
270.0
210
0
220
0
230
1.0
 0
LINE
 8
TOOL_0
 5
AB
 10
74.657
 20
759.771
 30
0
 11
116.661
 21
759.771
 31
0
 0
ARC
 8
TOOL_0
 5
AC
 10
116.661
 20
809.271
 30
0
 40
49.5
 50
270.0
 51
309.999416553228
210
0
220
0
230
1.0
 0
LINE
 8
TOOL_0
 5
AD
 10
148.479
 20
771.351
 30
0
 11
205.64
 21
819.315
 31
0
 0
ARC
 8
TOOL_0
 5
AE
 10
183.464
 20
845.744
 30
0
 40
34.500246622307
 50
309.999282286976
 51
349.341475787484
210
0
220
0
230
1.0
 0
ARC
 8
TOOL_0
 5
AF
 10
221.478
 20
838.59
 30
0
 40
4.181077612291
 50
90.0
 51
169.345830719526
210
0
220
0
230
1.0
 0
LINE
 8
TOOL_0
 5
B0
 10
221.478
 20
842.771
 30
0
 11
269.861
 21
842.771
 31
0
 0
ARC
 8
TOOL_0
 5
B1
 10
269.861
 20
839.271
 30
0
 40
3.5
 50
0
 51
90.0
210
0
220
0
230
1.0
 0
LINE
 8
TOOL_0
 5
B2
 10
273.361
 20
839.271
 30
0
 11
273.361
 21
767.271
 31
0
 0
ARC
 8
TOOL_0
 5
B3
 10
292.861
 20
767.271
 30
0
 40
19.5
 50
180.0
 51
270.0
210
0
220
0
230
1.0
 0
LINE
 8
TOOL_0
 5
B4
 10
292.861
 20
747.771
 30
0
 11
392.861
 21
747.771
 31
0
 0
ARC
 8
TOOL_0
 5
B5
 10
392.861
 20
745.271
 30
0
 40
2.5
 50
0
 51
90.0
210
0
220
0
230
1.0
 0
LINE
 8
TOOL_0
 5
B6
 10
395.361
 20
745.271
 30
0
 11
395.361
 21
724.271
 31
0
 0
ARC
 8
TOOL_0
 5
B7
 10
392.861
 20
724.271
 30
0
 40
2.5
 50
349.908369030693
 51
0
210
0
220
0
230
1.0
 0
LINE
 8
TOOL_0
 5
B8
 10
395.322
 20
723.833
 30
0
 11
396.0
 21
720.909
 31
0
 0
LINE
 8
TOOL_0
 5
B9
 10
396.0
 20
720.909
 30
0
 11
396.0
 21
715.909
 31
0
 0
LINE
 8
TOOL_0
 5
BA
 10
396.0
 20
715.909
 30
0
 11
415.164
 21
867.532
 31
0
 0
LINE
 8
TOOL_0
 5
BB
 10
415.164
 20
867.532
 30
0
 11
380.164
 21
867.532
 31
0
 0
LINE
 8
TOOL_0
 5
BC
 10
380.164
 20
867.532
 30
0
 11
377.293
 21
868.408
 31
0
 0
ARC
 8
TOOL_0
 5
BD
 10
377.024
 20
870.893
 30
0
 40
2.499517153372
 50
270.0
 51
276.178182374341
210
0
220
0
230
1.0
 0
LINE
 8
TOOL_0
 5
BE
 10
377.024
 20
868.393
 30
0
 11
277.024
 21
868.393
 31
0
 0
ARC
 8
TOOL_0
 5
BF
 10
277.024
 20
968.893
 30
0
 40
100.5
 50
231.786353568122
 51
270.0
210
0
220
0
230
1.0
 0
ARC
 8
TOOL_0
 5
C0
 10
190.422
 20
858.893
 30
0
 40
39.499427654081
 50
51.788513824525
 51
128.214662883307
210
0
220
0
230
1.0
 0
ARC
 8
TOOL_0
 5
C1
 10
103.819
 20
968.892
 30
0
 40
100.499619501767
 50
269.999429892741
 51
308.213198491447
210
0
220
0
230
1.0
 0
LINE
 8
TOOL_0
 5
C2
 10
103.818
 20
868.392
 30
0
 11
47.024
 21
868.392
 31
0
 0
ARC
 8
TOOL_0
 5
C3
 10
47.024
 20
888.892
 30
0
 40
20.5
 50
180.0
 51
270.0
210
0
220
0
230
1.0
 0
LINE
 8
TOOL_0
 5
C4
 10
26.524
 20
888.892
 30
0
 11
26.524
 21
914.892
 31
0
 0
ARC
 8
TOOL_0
 5
C5
 10
29.024
 20
914.892
 30
0
 40
2.5
 50
90.0
 51
180.0
210
0
220
0
230
1.0
 0
LINE
 8
TOOL_0
 5
C6
 10
29.024
 20
917.392
 30
0
 11
47.024
 21
917.392
 31
0
 0
ARC
 8
TOOL_0
 5
C7
 10
47.024
 20
914.892
 30
0
 40
2.5
 50
0
 51
90.0
210
0
220
0
230
1.0
 0
LINE
 8
TOOL_0
 5
C8
 10
49.524
 20
914.892
 30
0
 11
49.524
 21
913.943
 31
0
 0
ARC
 8
TOOL_0
 5
C9
 10
58.822
 20
915.892
 30
0
 40
9.500073947081
 50
191.838648724992
 51
270.0
210
0
220
0
230
1.0
 0
LINE
 8
TOOL_0
 5
CA
 10
58.822
 20
906.392
 30
0
 11
100.826
 21
906.392
 31
0
 0
ARC
 8
TOOL_0
 5
CB
 10
100.826
 20
955.892
 30
0
 40
49.5
 50
270.0
 51
309.999416553228
210
0
220
0
230
1.0
 0
LINE
 8
TOOL_0
 5
CC
 10
132.644
 20
917.972
 30
0
 11
189.805
 21
965.936
 31
0
 0
ARC
 8
TOOL_0
 5
CD
 10
167.629
 20
992.365
 30
0
 40
34.500246622307
 50
309.999282286976
 51
349.341475787484
210
0
220
0
230
1.0
 0
ARC
 8
TOOL_0
 5
CE
 10
205.643
 20
985.211
 30
0
 40
4.181077612291
 50
90.0
 51
169.345830719526
210
0
220
0
230
1.0
 0
LINE
 8
TOOL_0
 5
CF
 10
205.643
 20
989.392
 30
0
 11
254.026
 21
989.392
 31
0
 0
ARC
 8
TOOL_0
 5
D0
 10
254.026
 20
985.892
 30
0
 40
3.5
 50
0
 51
90.0
210
0
220
0
230
1.0
 0
LINE
 8
TOOL_0
 5
D1
 10
257.526
 20
985.892
 30
0
 11
257.526
 21
913.892
 31
0
 0
ARC
 8
TOOL_0
 5
D2
 10
277.026
 20
913.892
 30
0
 40
19.5
 50
180.0
 51
270.0
210
0
220
0
230
1.0
 0
LINE
 8
TOOL_0
 5
D3
 10
277.026
 20
894.392
 30
0
 11
377.026
 21
894.392
 31
0
 0
ARC
 8
TOOL_0
 5
D4
 10
377.026
 20
891.892
 30
0
 40
2.5
 50
0
 51
90.0
210
0
220
0
230
1.0
 0
LINE
 8
TOOL_0
 5
D5
 10
379.526
 20
891.892
 30
0
 11
379.526
 21
870.892
 31
0
 0
ARC
 8
TOOL_0
 5
D6
 10
377.026
 20
870.892
 30
0
 40
2.5
 50
349.908369030693
 51
0
210
0
220
0
230
1.0
 0
LINE
 8
TOOL_0
 5
D7
 10
379.487
 20
870.454
 30
0
 11
380.165
 21
867.53
 31
0
 0
LINE
 8
TOOL_0
 5
D8
 10
380.165
 20
867.53
 30
0
 11
380.165
 21
862.53
 31
0
 0
LINE
 8
TOOL_0
 5
D9
 10
380.165
 20
862.53
 30
0
 11
413.74
 21
1004.145
 31
0
 0
LINE
 8
TOOL_0
 5
DA
 10
413.74
 20
1004.145
 30
0
 11
378.74
 21
1004.145
 31
0
 0
LINE
 8
TOOL_0
 5
DB
 10
378.74
 20
1004.145
 30
0
 11
375.869
 21
1005.021
 31
0
 0
ARC
 8
TOOL_0
 5
DC
 10
375.6
 20
1007.506
 30
0
 40
2.499517153372
 50
270.0
 51
276.178182374341
210
0
220
0
230
1.0
 0
LINE
 8
TOOL_0
 5
DD
 10
375.6
 20
1005.006
 30
0
 11
275.6
 21
1005.006
 31
0
 0
ARC
 8
TOOL_0
 5
DE
 10
275.6
 20
1105.506
 30
0
 40
100.5
 50
231.786353568122
 51
270.0
210
0
220
0
230
1.0
 0
ARC
 8
TOOL_0
 5
DF
 10
188.998
 20
995.506
 30
0
 40
39.499427654081
 50
51.788513824525
 51
128.214662883307
210
0
220
0
230
1.0
 0
ARC
 8
TOOL_0
 5
E0
 10
102.395
 20
1105.505
 30
0
 40
100.499619501767
 50
269.999429892741
 51
308.213198491447
210
0
220
0
230
1.0
 0
LINE
 8
TOOL_0
 5
E1
 10
102.394
 20
1005.005
 30
0
 11
45.6
 21
1005.005
 31
0
 0
ARC
 8
TOOL_0
 5
E2
 10
45.6
 20
1025.505
 30
0
 40
20.5
 50
180.0
 51
270.0
210
0
220
0
230
1.0
 0
LINE
 8
TOOL_0
 5
E3
 10
25.1
 20
1025.505
 30
0
 11
25.1
 21
1051.505
 31
0
 0
ARC
 8
TOOL_0
 5
E4
 10
27.6
 20
1051.505
 30
0
 40
2.5
 50
90.0
 51
180.0
210
0
220
0
230
1.0
 0
LINE
 8
TOOL_0
 5
E5
 10
27.6
 20
1054.005
 30
0
 11
45.6
 21
1054.005
 31
0
 0
ARC
 8
TOOL_0
 5
E6
 10
45.6
 20
1051.505
 30
0
 40
2.5
 50
0
 51
90.0
210
0
220
0
230
1.0
 0
LINE
 8
TOOL_0
 5
E7
 10
48.1
 20
1051.505
 30
0
 11
48.1
 21
1050.556
 31
0
 0
ARC
 8
TOOL_0
 5
E8
 10
57.398
 20
1052.505
 30
0
 40
9.500073947081
 50
191.838648724992
 51
270.0
210
0
220
0
230
1.0
 0
LINE
 8
TOOL_0
 5
E9
 10
57.398
 20
1043.005
 30
0
 11
99.402
 21
1043.005
 31
0
 0
ARC
 8
TOOL_0
 5
EA
 10
99.402
 20
1092.505
 30
0
 40
49.5
 50
270.0
 51
309.999416553228
210
0
220
0
230
1.0
 0
LINE
 8
TOOL_0
 5
EB
 10
131.22
 20
1054.585
 30
0
 11
188.381
 21
1102.549
 31
0
 0
ARC
 8
TOOL_0
 5
EC
 10
166.205
 20
1128.978
 30
0
 40
34.500246622307
 50
309.999282286976
 51
349.341475787484
210
0
220
0
230
1.0
 0
ARC
 8
TOOL_0
 5
ED
 10
204.219
 20
1121.824
 30
0
 40
4.181077612291
 50
90.0
 51
169.345830719528
210
0
220
0
230
1.0
 0
LINE
 8
TOOL_0
 5
EE
 10
204.219
 20
1126.005
 30
0
 11
252.602
 21
1126.005
 31
0
 0
ARC
 8
TOOL_0
 5
EF
 10
252.602
 20
1122.505
 30
0
 40
3.5
 50
0
 51
90.0
210
0
220
0
230
1.0
 0
LINE
 8
TOOL_0
 5
F0
 10
256.102
 20
1122.505
 30
0
 11
256.102
 21
1050.505
 31
0
 0
ARC
 8
TOOL_0
 5
F1
 10
275.602
 20
1050.505
 30
0
 40
19.5
 50
180.0
 51
270.0
210
0
220
0
230
1.0
 0
LINE
 8
TOOL_0
 5
F2
 10
275.602
 20
1031.005
 30
0
 11
375.602
 21
1031.005
 31
0
 0
ARC
 8
TOOL_0
 5
F3
 10
375.602
 20
1028.505
 30
0
 40
2.5
 50
0
 51
90.0
210
0
220
0
230
1.0
 0
LINE
 8
TOOL_0
 5
F4
 10
378.102
 20
1028.505
 30
0
 11
378.102
 21
1007.505
 31
0
 0
ARC
 8
TOOL_0
 5
F5
 10
375.602
 20
1007.505
 30
0
 40
2.5
 50
349.908369030693
 51
0
210
0
220
0
230
1.0
 0
LINE
 8
TOOL_0
 5
F6
 10
378.063
 20
1007.067
 30
0
 11
378.741
 21
1004.143
 31
0
 0
LINE
 8
TOOL_0
 5
F7
 10
378.741
 20
1004.143
 30
0
 11
378.741
 21
999.143
 31
0
 0
LINE
 8
TOOL_0
 5
F8
 10
378.741
 20
999.143
 30
0
 11
768.464
 21
645.766
 31
0
 0
LINE
 8
TOOL_0
 5
F9
 10
768.464
 20
645.766
 30
0
 11
733.464
 21
645.766
 31
0
 0
LINE
 8
TOOL_0
 5
FA
 10
733.464
 20
645.766
 30
0
 11
730.593
 21
646.642
 31
0
 0
ARC
 8
TOOL_0
 5
FB
 10
730.324
 20
649.127
 30
0
 40
2.499517153372
 50
270.0
 51
276.178182374341
210
0
220
0
230
1.0
 0
LINE
 8
TOOL_0
 5
FC
 10
730.324
 20
646.627
 30
0
 11
630.324
 21
646.627
 31
0
 0
ARC
 8
TOOL_0
 5
FD
 10
630.324
 20
747.127
 30
0
 40
100.5
 50
231.786353568122
 51
270.0
210
0
220
0
230
1.0
 0
ARC
 8
TOOL_0
 5
FE
 10
543.722
 20
637.127
 30
0
 40
39.499427654081
 50
51.788513824525
 51
128.214662883307
210
0
220
0
230
1.0
 0
ARC
 8
TOOL_0
 5
FF
 10
457.119
 20
747.126
 30
0
 40
100.499619501767
 50
269.999429892741
 51
308.213198491447
210
0
220
0
230
1.0
 0
LINE
 8
TOOL_0
 5
100
 10
457.118
 20
646.626
 30
0
 11
400.324
 21
646.626
 31
0
 0
ARC
 8
TOOL_0
 5
101
 10
400.324
 20
667.126
 30
0
 40
20.5
 50
180.0
 51
270.0
210
0
220
0
230
1.0
 0
LINE
 8
TOOL_0
 5
102
 10
379.824
 20
667.126
 30
0
 11
379.824
 21
693.126
 31
0
 0
ARC
 8
TOOL_0
 5
103
 10
382.324
 20
693.126
 30
0
 40
2.5
 50
90.0
 51
180.0
210
0
220
0
230
1.0
 0
LINE
 8
TOOL_0
 5
104
 10
382.324
 20
695.626
 30
0
 11
400.324
 21
695.626
 31
0
 0
ARC
 8
TOOL_0
 5
105
 10
400.324
 20
693.126
 30
0
 40
2.5
 50
0
 51
90.0
210
0
220
0
230
1.0
 0
LINE
 8
TOOL_0
 5
106
 10
402.824
 20
693.126
 30
0
 11
402.824
 21
692.177
 31
0
 0
ARC
 8
TOOL_0
 5
107
 10
412.122
 20
694.126
 30
0
 40
9.500073947081
 50
191.838648724992
 51
270.0
210
0
220
0
230
1.0
 0
LINE
 8
TOOL_0
 5
108
 10
412.122
 20
684.626
 30
0
 11
454.126
 21
684.626
 31
0
 0
ARC
 8
TOOL_0
 5
109
 10
454.126
 20
734.126
 30
0
 40
49.5
 50
270.0
 51
309.999416553228
210
0
220
0
230
1.0
 0
LINE
 8
TOOL_0
 5
10A
 10
485.944
 20
696.206
 30
0
 11
543.105
 21
744.17
 31
0
 0
ARC
 8
TOOL_0
 5
10B
 10
520.929
 20
770.599
 30
0
 40
34.500246622307
 50
309.999282286976
 51
349.341475787484
210
0
220
0
230
1.0
 0
ARC
 8
TOOL_0
 5
10C
 10
558.943
 20
763.445
 30
0
 40
4.181077612291
 50
90.0
 51
169.345830719526
210
0
220
0
230
1.0
 0
LINE
 8
TOOL_0
 5
10D
 10
558.943
 20
767.626
 30
0
 11
607.326
 21
767.626
 31
0
 0
ARC
 8
TOOL_0
 5
10E
 10
607.326
 20
764.126
 30
0
 40
3.5
 50
0
 51
90.0
210
0
220
0
230
1.0
 0
LINE
 8
TOOL_0
 5
10F
 10
610.826
 20
764.126
 30
0
 11
610.826
 21
692.126
 31
0
 0
ARC
 8
TOOL_0
 5
110
 10
630.326
 20
692.126
 30
0
 40
19.5
 50
180.0
 51
270.0
210
0
220
0
230
1.0
 0
LINE
 8
TOOL_0
 5
111
 10
630.326
 20
672.626
 30
0
 11
730.326
 21
672.626
 31
0
 0
ARC
 8
TOOL_0
 5
112
 10
730.326
 20
670.126
 30
0
 40
2.5
 50
0
 51
90.0
210
0
220
0
230
1.0
 0
LINE
 8
TOOL_0
 5
113
 10
732.826
 20
670.126
 30
0
 11
732.826
 21
649.126
 31
0
 0
ARC
 8
TOOL_0
 5
114
 10
730.326
 20
649.126
 30
0
 40
2.5
 50
349.908369030693
 51
0
210
0
220
0
230
1.0
 0
LINE
 8
TOOL_0
 5
115
 10
732.787
 20
648.688
 30
0
 11
733.465
 21
645.764
 31
0
 0
LINE
 8
TOOL_0
 5
116
 10
733.465
 20
645.764
 30
0
 11
733.465
 21
640.764
 31
0
 0
ENDSEC
 0
EOF

