0
SECTION
2
TABLES
0
TABLE
2
LAYER
70
0
0
LAYER
2
LAYER_NAME
70
0
62
1
6
CONTINUOUS
0
ENDTAB
0
ENDSEC
 0
SECTION
 2
ENTITIES
 0
LINE
 8
TOOL_0
 5
1
 10
319.558
 20
29.496
 30
0
 11
301.88
 21
11.819
 31
0
 0
LINE
 8
TOOL_0
 5
2
 10
301.88
 20
11.819
 30
0
 11
299.175
 21
10.518
 31
0
 0
ARC
 8
TOOL_0
 5
3
 10
294.4
 20
12.001
 30
0
 40
4.999991399993
 50
270.0
 51
342.746464189754
210
0
220
0
230
1.0
 0
LINE
 8
TOOL_0
 5
4
 10
294.4
 20
7.001
 30
0
 11
236.188
 21
7.001
 31
0
 0
ARC
 8
TOOL_0
 5
5
 10
236.216
 20
27.589
 30
0
 40
20.588019040209
 50
234.365268932506
 51
269.922076897355
210
0
220
0
230
1.0
 0
ARC
 8
TOOL_0
 5
6
 10
241.967
 20
34.203
 30
0
 40
29.325806468024
 50
215.495887892338
 51
232.761619444092
210
0
220
0
230
1.0
 0
ARC
 8
TOOL_0
 5
7
 10
164.823
 20
-27.468
 30
0
 40
69.501635038321
 50
39.965797844957
 51
88.246267223444
210
0
220
0
230
1.0
 0
LINE
 8
TOOL_0
 5
8
 10
166.95
 20
42.001
 30
0
 11
139.465
 21
42.001
 31
0
 0
ARC
 8
TOOL_0
 5
9
 10
141.577
 20
-27.476
 30
0
 40
69.509093455461
 50
91.741172379534
 51
139.997385733126
210
0
220
0
230
1.0
 0
ARC
 8
TOOL_0
 5
A
 10
64.413
 20
34.228
 30
0
 40
29.357572191855
 50
307.250869813267
 51
324.562374132182
210
0
220
0
230
1.0
 0
ARC
 8
TOOL_0
 5
B
 10
70.183
 20
27.589
 30
0
 40
20.587846924824
 50
270.077923102645
 51
305.652526069449
210
0
220
0
230
1.0
 0
LINE
 8
TOOL_0
 5
C
 10
70.211
 20
7.001
 30
0
 11
11.999
 21
7.001
 31
0
 0
ARC
 8
TOOL_0
 5
D
 10
11.999
 20
12.001
 30
0
 40
5.0
 50
180.0
 51
270.0
210
0
220
0
230
1.0
 0
LINE
 8
TOOL_0
 5
E
 10
6.999
 20
12.001
 30
0
 11
6.999
 21
142.04
 31
0
 0
ARC
 8
TOOL_0
 5
F
 10
10.013
 20
142.028
 30
0
 40
3.014023888426
 50
97.339606280031
 51
179.771882640594
210
0
220
0
230
1.0
 0
ARC
 8
TOOL_0
 5
10
 10
8.699
 20
152.459
 30
0
 40
7.499760329504
 50
277.115540490308
 51
334.627299750044
210
0
220
0
230
1.0
 0
ARC
 8
TOOL_0
 5
11
 10
18.47
 20
147.622
 30
0
 40
3.405607875255
 50
78.482200075797
 51
151.538579919279
210
0
220
0
230
1.0
 0
LINE
 8
TOOL_0
 5
12
 10
19.15
 20
150.959
 30
0
 11
39.316
 21
150.959
 31
0
 0
ARC
 8
TOOL_0
 5
13
 10
39.316
 20
175.459
 30
0
 40
24.5
 50
270.0
 51
320.000397492753
210
0
220
0
230
1.0
 0
LINE
 8
TOOL_0
 5
14
 10
58.084
 20
159.711
 30
0
 11
85.444
 21
192.317
 31
0
 0
ARC
 8
TOOL_0
 5
15
 10
139.472
 20
146.953
 30
0
 40
70.547269826691
 50
90.017867621705
 51
139.981879748588
210
0
220
0
230
1.0
 0
LINE
 8
TOOL_0
 5
16
 10
139.45
 20
217.5
 30
0
 11
166.95
 21
217.5
 31
0
 0
ARC
 8
TOOL_0
 5
17
 10
166.928
 20
146.953
 30
0
 40
70.547003430337
 50
40.018120251412
 51
89.982132378295
210
0
220
0
230
1.0
 0
LINE
 8
TOOL_0
 5
18
 10
220.956
 20
192.317
 30
0
 11
248.316
 21
159.711
 31
0
 0
ARC
 8
TOOL_0
 5
19
 10
267.084
 20
175.459
 30
0
 40
24.49974138639
 50
219.999602507247
 51
270.0
210
0
220
0
230
1.0
 0
LINE
 8
TOOL_0
 5
1A
 10
267.084
 20
150.959
 30
0
 11
288.213
 21
150.959
 31
0
 0
ARC
 8
TOOL_0
 5
1B
 10
288.072
 20
147.737
 30
0
 40
3.225083719844
 50
27.867725704438
 51
87.494241556731
210
0
220
0
230
1.0
 0
ARC
 8
TOOL_0
 5
1C
 10
297.7
 20
152.459
 30
0
 40
7.499598122566
 50
205.375973959936
 51
262.892040478314
210
0
220
0
230
1.0
 0
ARC
 8
TOOL_0
 5
1D
 10
296.387
 20
142.028
 30
0
 40
3.013693083245
 50
0.228117359406
 51
82.660393719969
210
0
220
0
230
1.0
 0
LINE
 8
TOOL_0
 5
1E
 10
299.401
 20
142.04
 30
0
 11
299.401
 21
13.509
 31
0
 0
LINE
 8
TOOL_0
 5
1F
 10
299.401
 20
13.509
 30
0
 11
301.881
 21
11.818
 31
0
 0
LINE
 8
TOOL_0
 5
20
 10
301.881
 20
11.818
 30
0
 11
305.417
 21
8.282
 31
0
 0
LINE
 8
TOOL_0
 5
21
 10
305.417
 20
8.282
 30
0
 11
269.824
 21
375.173
 31
0
 0
LINE
 8
TOOL_0
 5
22
 10
269.824
 20
375.173
 30
0
 11
286.714
 21
356.742
 31
0
 0
LINE
 8
TOOL_0
 5
23
 10
286.714
 20
356.742
 30
0
 11
288.214
 21
354.142
 31
0
 0
ARC
 8
TOOL_0
 5
24
 10
288.073
 20
350.92
 30
0
 40
3.225083719844
 50
27.867725704437
 51
87.494241556731
210
0
220
0
230
1.0
 0
ARC
 8
TOOL_0
 5
25
 10
297.701
 20
355.642
 30
0
 40
7.499598122566
 50
205.375973959936
 51
262.892040478314
210
0
220
0
230
1.0
 0
ARC
 8
TOOL_0
 5
26
 10
296.388
 20
345.211
 30
0
 40
3.013693083245
 50
0.228117359406
 51
82.660393719969
210
0
220
0
230
1.0
 0
LINE
 8
TOOL_0
 5
27
 10
299.402
 20
345.223
 30
0
 11
299.402
 21
215.184
 31
0
 0
ARC
 8
TOOL_0
 5
28
 10
294.402
 20
215.184
 30
0
 40
5.0
 50
270.0
 51
0
210
0
220
0
230
1.0
 0
LINE
 8
TOOL_0
 5
29
 10
294.402
 20
210.184
 30
0
 11
236.19
 21
210.184
 31
0
 0
ARC
 8
TOOL_0
 5
2A
 10
236.218
 20
230.772
 30
0
 40
20.588019040209
 50
234.365268932506
 51
269.922076897355
210
0
220
0
230
1.0
 0
ARC
 8
TOOL_0
 5
2B
 10
241.969
 20
237.386
 30
0
 40
29.325806468024
 50
215.495887892338
 51
232.761619444092
210
0
220
0
230
1.0
 0
ARC
 8
TOOL_0
 5
2C
 10
164.825
 20
175.715
 30
0
 40
69.501635038321
 50
39.965797844957
 51
88.246267223444
210
0
220
0
230
1.0
 0
LINE
 8
TOOL_0
 5
2D
 10
166.952
 20
245.184
 30
0
 11
139.467
 21
245.184
 31
0
 0
ARC
 8
TOOL_0
 5
2E
 10
141.579
 20
175.707
 30
0
 40
69.509093455461
 50
91.741172379534
 51
139.997385733126
210
0
220
0
230
1.0
 0
ARC
 8
TOOL_0
 5
2F
 10
64.415
 20
237.411
 30
0
 40
29.357572191855
 50
307.250869813267
 51
324.562374132182
210
0
220
0
230
1.0
 0
ARC
 8
TOOL_0
 5
30
 10
70.185
 20
230.772
 30
0
 40
20.587846924824
 50
270.077923102645
 51
305.652526069449
210
0
220
0
230
1.0
 0
LINE
 8
TOOL_0
 5
31
 10
70.213
 20
210.184
 30
0
 11
12.001
 21
210.184
 31
0
 0
ARC
 8
TOOL_0
 5
32
 10
12.001
 20
215.184
 30
0
 40
5.0
 50
180.0
 51
270.0
210
0
220
0
230
1.0
 0
LINE
 8
TOOL_0
 5
33
 10
7.001
 20
215.184
 30
0
 11
7.001
 21
345.223
 31
0
 0
ARC
 8
TOOL_0
 5
34
 10
10.015
 20
345.211
 30
0
 40
3.014023888426
 50
97.339606280031
 51
179.771882640594
210
0
220
0
230
1.0
 0
ARC
 8
TOOL_0
 5
35
 10
8.701
 20
355.642
 30
0
 40
7.499760329504
 50
277.115540490308
 51
334.627299750044
210
0
220
0
230
1.0
 0
ARC
 8
TOOL_0
 5
36
 10
18.472
 20
350.805
 30
0
 40
3.405607875255
 50
78.482200075797
 51
151.538579919279
210
0
220
0
230
1.0
 0
LINE
 8
TOOL_0
 5
37
 10
19.152
 20
354.142
 30
0
 11
39.318
 21
354.142
 31
0
 0
ARC
 8
TOOL_0
 5
38
 10
39.318
 20
378.642
 30
0
 40
24.5
 50
270.0
 51
320.000397492753
210
0
220
0
230
1.0
 0
LINE
 8
TOOL_0
 5
39
 10
58.086
 20
362.894
 30
0
 11
85.446
 21
395.5
 31
0
 0
ARC
 8
TOOL_0
 5
3A
 10
139.474
 20
350.136
 30
0
 40
70.547269826691
 50
90.017867621705
 51
139.981879748588
210
0
220
0
230
1.0
 0
LINE
 8
TOOL_0
 5
3B
 10
139.452
 20
420.683
 30
0
 11
166.952
 21
420.683
 31
0
 0
ARC
 8
TOOL_0
 5
3C
 10
166.93
 20
350.136
 30
0
 40
70.547003430337
 50
40.018120251412
 51
89.982132378295
210
0
220
0
230
1.0
 0
LINE
 8
TOOL_0
 5
3D
 10
220.958
 20
395.5
 30
0
 11
248.318
 21
362.894
 31
0
 0
ARC
 8
TOOL_0
 5
3E
 10
267.086
 20
378.642
 30
0
 40
24.49974138639
 50
219.999602507247
 51
270.0
210
0
220
0
230
1.0
 0
LINE
 8
TOOL_0
 5
3F
 10
267.086
 20
354.142
 30
0
 11
285.215
 21
354.142
 31
0
 0
LINE
 8
TOOL_0
 5
40
 10
285.215
 20
354.142
 30
0
 11
286.715
 21
356.742
 31
0
 0
LINE
 8
TOOL_0
 5
41
 10
286.715
 20
356.742
 30
0
 11
290.401
 21
360.12
 31
0
 0
LINE
 8
TOOL_0
 5
42
 10
290.401
 20
360.12
 30
0
 11
642.135
 21
29.495
 31
0
 0
LINE
 8
TOOL_0
 5
43
 10
642.135
 20
29.495
 30
0
 11
624.457
 21
11.818
 31
0
 0
LINE
 8
TOOL_0
 5
44
 10
624.457
 20
11.818
 30
0
 11
621.752
 21
10.517
 31
0
 0
ARC
 8
TOOL_0
 5
45
 10
616.977
 20
12.0
 30
0
 40
4.999991399993
 50
270.0
 51
342.746464189754
210
0
220
0
230
1.0
 0
LINE
 8
TOOL_0
 5
46
 10
616.977
 20
7.0
 30
0
 11
558.765
 21
7.0
 31
0
 0
ARC
 8
TOOL_0
 5
47
 10
558.793
 20
27.588
 30
0
 40
20.588019040209
 50
234.365268932506
 51
269.922076897355
210
0
220
0
230
1.0
 0
ARC
 8
TOOL_0
 5
48
 10
564.544
 20
34.202
 30
0
 40
29.325806468024
 50
215.495887892338
 51
232.761619444092
210
0
220
0
230
1.0
 0
ARC
 8
TOOL_0
 5
49
 10
487.4
 20
-27.469
 30
0
 40
69.501635038321
 50
39.965797844957
 51
88.246267223444
210
0
220
0
230
1.0
 0
LINE
 8
TOOL_0
 5
4A
 10
489.527
 20
42.0
 30
0
 11
462.042
 21
42.0
 31
0
 0
ARC
 8
TOOL_0
 5
4B
 10
464.154
 20
-27.477
 30
0
 40
69.509093455461
 50
91.741172379534
 51
139.997385733126
210
0
220
0
230
1.0
 0
ARC
 8
TOOL_0
 5
4C
 10
386.99
 20
34.227
 30
0
 40
29.357572191855
 50
307.250869813266
 51
324.562374132182
210
0
220
0
230
1.0
 0
ARC
 8
TOOL_0
 5
4D
 10
392.76
 20
27.588
 30
0
 40
20.587846924824
 50
270.077923102645
 51
305.652526069449
210
0
220
0
230
1.0
 0
LINE
 8
TOOL_0
 5
4E
 10
392.788
 20
7.0
 30
0
 11
334.576
 21
7.0
 31
0
 0
ARC
 8
TOOL_0
 5
4F
 10
334.576
 20
12.0
 30
0
 40
5.0
 50
180.0
 51
270.0
210
0
220
0
230
1.0
 0
LINE
 8
TOOL_0
 5
50
 10
329.576
 20
12.0
 30
0
 11
329.576
 21
142.039
 31
0
 0
ARC
 8
TOOL_0
 5
51
 10
332.59
 20
142.027
 30
0
 40
3.014023888426
 50
97.339606280031
 51
179.771882640594
210
0
220
0
230
1.0
 0
ARC
 8
TOOL_0
 5
52
 10
331.276
 20
152.458
 30
0
 40
7.499760329504
 50
277.115540490307
 51
334.627299750044
210
0
220
0
230
1.0
 0
ARC
 8
TOOL_0
 5
53
 10
341.047
 20
147.621
 30
0
 40
3.405607875255
 50
78.482200075798
 51
151.538579919279
210
0
220
0
230
1.0
 0
LINE
 8
TOOL_0
 5
54
 10
341.727
 20
150.958
 30
0
 11
361.893
 21
150.958
 31
0
 0
ARC
 8
TOOL_0
 5
55
 10
361.893
 20
175.458
 30
0
 40
24.5
 50
270.0
 51
320.000397492753
210
0
220
0
230
1.0
 0
LINE
 8
TOOL_0
 5
56
 10
380.661
 20
159.71
 30
0
 11
408.021
 21
192.316
 31
0
 0
ARC
 8
TOOL_0
 5
57
 10
462.049
 20
146.952
 30
0
 40
70.547269826691
 50
90.017867621705
 51
139.981879748588
210
0
220
0
230
1.0
 0
LINE
 8
TOOL_0
 5
58
 10
462.027
 20
217.499
 30
0
 11
489.527
 21
217.499
 31
0
 0
ARC
 8
TOOL_0
 5
59
 10
489.505
 20
146.952
 30
0
 40
70.547003430337
 50
40.018120251412
 51
89.982132378295
210
0
220
0
230
1.0
 0
LINE
 8
TOOL_0
 5
5A
 10
543.533
 20
192.316
 30
0
 11
570.893
 21
159.71
 31
0
 0
ARC
 8
TOOL_0
 5
5B
 10
589.661
 20
175.458
 30
0
 40
24.49974138639
 50
219.999602507247
 51
270.0
210
0
220
0
230
1.0
 0
LINE
 8
TOOL_0
 5
5C
 10
589.661
 20
150.958
 30
0
 11
610.79
 21
150.958
 31
0
 0
ARC
 8
TOOL_0
 5
5D
 10
610.649
 20
147.736
 30
0
 40
3.225083719844
 50
27.867725704438
 51
87.494241556732
210
0
220
0
230
1.0
 0
ARC
 8
TOOL_0
 5
5E
 10
620.277
 20
152.458
 30
0
 40
7.499598122566
 50
205.375973959937
 51
262.892040478314
210
0
220
0
230
1.0
 0
ARC
 8
TOOL_0
 5
5F
 10
618.964
 20
142.027
 30
0
 40
3.013693083245
 50
0.228117359406
 51
82.660393719969
210
0
220
0
230
1.0
 0
LINE
 8
TOOL_0
 5
60
 10
621.978
 20
142.039
 30
0
 11
621.978
 21
13.508
 31
0
 0
LINE
 8
TOOL_0
 5
61
 10
621.978
 20
13.508
 30
0
 11
624.458
 21
11.817
 31
0
 0
LINE
 8
TOOL_0
 5
62
 10
624.458
 20
11.817
 30
0
 11
627.994
 21
8.281
 31
0
 0
LINE
 8
TOOL_0
 5
63
 10
627.994
 20
8.281
 30
0
 11
598.152
 21
379.931
 31
0
 0
LINE
 8
TOOL_0
 5
64
 10
598.152
 20
379.931
 30
0
 11
615.043
 21
361.5
 31
0
 0
LINE
 8
TOOL_0
 5
65
 10
615.043
 20
361.5
 30
0
 11
616.543
 21
358.9
 31
0
 0
ARC
 8
TOOL_0
 5
66
 10
616.402
 20
355.678
 30
0
 40
3.225083719844
 50
27.867725704438
 51
87.494241556732
210
0
220
0
230
1.0
 0
ARC
 8
TOOL_0
 5
67
 10
626.03
 20
360.4
 30
0
 40
7.499598122566
 50
205.375973959937
 51
262.892040478314
210
0
220
0
230
1.0
 0
ARC
 8
TOOL_0
 5
68
 10
624.717
 20
349.969
 30
0
 40
3.013693083245
 50
0.228117359406
 51
82.660393719969
210
0
220
0
230
1.0
 0
LINE
 8
TOOL_0
 5
69
 10
627.731
 20
349.981
 30
0
 11
627.731
 21
219.942
 31
0
 0
ARC
 8
TOOL_0
 5
6A
 10
622.731
 20
219.942
 30
0
 40
5.0
 50
270.0
 51
0
210
0
220
0
230
1.0
 0
LINE
 8
TOOL_0
 5
6B
 10
622.731
 20
214.942
 30
0
 11
564.519
 21
214.942
 31
0
 0
ARC
 8
TOOL_0
 5
6C
 10
564.547
 20
235.53
 30
0
 40
20.588019040209
 50
234.365268932506
 51
269.922076897355
210
0
220
0
230
1.0
 0
ARC
 8
TOOL_0
 5
6D
 10
570.298
 20
242.144
 30
0
 40
29.325806468024
 50
215.495887892338
 51
232.761619444092
210
0
220
0
230
1.0
 0
ARC
 8
TOOL_0
 5
6E
 10
493.154
 20
180.473
 30
0
 40
69.501635038321
 50
39.965797844957
 51
88.246267223444
210
0
220
0
230
1.0
 0
LINE
 8
TOOL_0
 5
6F
 10
495.281
 20
249.942
 30
0
 11
467.796
 21
249.942
 31
0
 0
ARC
 8
TOOL_0
 5
70
 10
469.908
 20
180.465
 30
0
 40
69.509093455461
 50
91.741172379534
 51
139.997385733126
210
0
220
0
230
1.0
 0
ARC
 8
TOOL_0
 5
71
 10
392.744
 20
242.169
 30
0
 40
29.357572191855
 50
307.250869813266
 51
324.562374132182
210
0
220
0
230
1.0
 0
ARC
 8
TOOL_0
 5
72
 10
398.514
 20
235.53
 30
0
 40
20.587846924824
 50
270.077923102645
 51
305.652526069449
210
0
220
0
230
1.0
 0
LINE
 8
TOOL_0
 5
73
 10
398.542
 20
214.942
 30
0
 11
340.33
 21
214.942
 31
0
 0
ARC
 8
TOOL_0
 5
74
 10
340.33
 20
219.942
 30
0
 40
5.0
 50
180.0
 51
270.0
210
0
220
0
230
1.0
 0
LINE
 8
TOOL_0
 5
75
 10
335.33
 20
219.942
 30
0
 11
335.33
 21
349.981
 31
0
 0
ARC
 8
TOOL_0
 5
76
 10
338.344
 20
349.969
 30
0
 40
3.014023888426
 50
97.339606280031
 51
179.771882640594
210
0
220
0
230
1.0
 0
ARC
 8
TOOL_0
 5
77
 10
337.03
 20
360.4
 30
0
 40
7.499760329504
 50
277.115540490307
 51
334.627299750044
210
0
220
0
230
1.0
 0
ARC
 8
TOOL_0
 5
78
 10
346.801
 20
355.563
 30
0
 40
3.405607875255
 50
78.482200075798
 51
151.538579919279
210
0
220
0
230
1.0
 0
LINE
 8
TOOL_0
 5
79
 10
347.481
 20
358.9
 30
0
 11
367.647
 21
358.9
 31
0
 0
ARC
 8
TOOL_0
 5
7A
 10
367.647
 20
383.4
 30
0
 40
24.5
 50
270.0
 51
320.000397492753
210
0
220
0
230
1.0
 0
LINE
 8
TOOL_0
 5
7B
 10
386.415
 20
367.652
 30
0
 11
413.775
 21
400.258
 31
0
 0
ARC
 8
TOOL_0
 5
7C
 10
467.803
 20
354.894
 30
0
 40
70.547269826691
 50
90.017867621705
 51
139.981879748588
210
0
220
0
230
1.0
 0
LINE
 8
TOOL_0
 5
7D
 10
467.781
 20
425.441
 30
0
 11
495.281
 21
425.441
 31
0
 0
ARC
 8
TOOL_0
 5
7E
 10
495.259
 20
354.894
 30
0
 40
70.547003430337
 50
40.018120251412
 51
89.982132378295
210
0
220
0
230
1.0
 0
LINE
 8
TOOL_0
 5
7F
 10
549.287
 20
400.258
 30
0
 11
576.647
 21
367.652
 31
0
 0
ARC
 8
TOOL_0
 5
80
 10
595.415
 20
383.4
 30
0
 40
24.49974138639
 50
219.999602507247
 51
270.0
210
0
220
0
230
1.0
 0
LINE
 8
TOOL_0
 5
81
 10
595.415
 20
358.9
 30
0
 11
613.544
 21
358.9
 31
0
 0
LINE
 8
TOOL_0
 5
82
 10
613.544
 20
358.9
 30
0
 11
615.044
 21
361.5
 31
0
 0
LINE
 8
TOOL_0
 5
83
 10
615.044
 20
361.5
 30
0
 11
618.73
 21
364.878
 31
0
 0
LINE
 8
TOOL_0
 5
84
 10
618.73
 20
364.878
 30
0
 11
964.192
 21
29.494
 31
0
 0
LINE
 8
TOOL_0
 5
85
 10
964.192
 20
29.494
 30
0
 11
946.515
 21
11.817
 31
0
 0
LINE
 8
TOOL_0
 5
86
 10
946.515
 20
11.817
 30
0
 11
943.81
 21
10.516
 31
0
 0
ARC
 8
TOOL_0
 5
87
 10
939.035
 20
11.999
 30
0
 40
4.999991399993
 50
270.0
 51
342.746464189754
210
0
220
0
230
1.0
 0
LINE
 8
TOOL_0
 5
88
 10
939.035
 20
6.999
 30
0
 11
880.823
 21
6.999
 31
0
 0
ARC
 8
TOOL_0
 5
89
 10
880.851
 20
27.587
 30
0
 40
20.588019040209
 50
234.365268932506
 51
269.922076897355
210
0
220
0
230
1.0
 0
ARC
 8
TOOL_0
 5
8A
 10
886.602
 20
34.201
 30
0
 40
29.325806468024
 50
215.495887892338
 51
232.761619444092
210
0
220
0
230
1.0
 0
ARC
 8
TOOL_0
 5
8B
 10
809.458
 20
-27.47
 30
0
 40
69.501635038321
 50
39.965797844957
 51
88.246267223444
210
0
220
0
230
1.0
 0
LINE
 8
TOOL_0
 5
8C
 10
811.585
 20
41.999
 30
0
 11
784.1
 21
41.999
 31
0
 0
ARC
 8
TOOL_0
 5
8D
 10
786.212
 20
-27.478
 30
0
 40
69.509093455461
 50
91.741172379534
 51
139.997385733126
210
0
220
0
230
1.0
 0
ARC
 8
TOOL_0
 5
8E
 10
709.048
 20
34.226
 30
0
 40
29.357572191855
 50
307.250869813266
 51
324.562374132182
210
0
220
0
230
1.0
 0
ARC
 8
TOOL_0
 5
8F
 10
714.818
 20
27.587
 30
0
 40
20.587846924824
 50
270.077923102645
 51
305.652526069449
210
0
220
0
230
1.0
 0
LINE
 8
TOOL_0
 5
90
 10
714.846
 20
6.999
 30
0
 11
656.634
 21
6.999
 31
0
 0
ARC
 8
TOOL_0
 5
91
 10
656.634
 20
11.999
 30
0
 40
5.0
 50
180.0
 51
270.0
210
0
220
0
230
1.0
 0
LINE
 8
TOOL_0
 5
92
 10
651.634
 20
11.999
 30
0
 11
651.634
 21
142.038
 31
0
 0
ARC
 8
TOOL_0
 5
93
 10
654.648
 20
142.026
 30
0
 40
3.014023888426
 50
97.339606280031
 51
179.771882640594
210
0
220
0
230
1.0
 0
ARC
 8
TOOL_0
 5
94
 10
653.334
 20
152.457
 30
0
 40
7.499760329504
 50
277.115540490307
 51
334.627299750044
210
0
220
0
230
1.0
 0
ARC
 8
TOOL_0
 5
95
 10
663.105
 20
147.62
 30
0
 40
3.405607875255
 50
78.482200075798
 51
151.538579919279
210
0
220
0
230
1.0
 0
LINE
 8
TOOL_0
 5
96
 10
663.785
 20
150.957
 30
0
 11
683.951
 21
150.957
 31
0
 0
ARC
 8
TOOL_0
 5
97
 10
683.951
 20
175.457
 30
0
 40
24.5
 50
270.0
 51
320.000397492753
210
0
220
0
230
1.0
 0
LINE
 8
TOOL_0
 5
98
 10
702.719
 20
159.709
 30
0
 11
730.079
 21
192.315
 31
0
 0
ARC
 8
TOOL_0
 5
99
 10
784.107
 20
146.951
 30
0
 40
70.547269826691
 50
90.017867621705
 51
139.981879748588
210
0
220
0
230
1.0
 0
LINE
 8
TOOL_0
 5
9A
 10
784.085
 20
217.498
 30
0
 11
811.585
 21
217.498
 31
0
 0
ARC
 8
TOOL_0
 5
9B
 10
811.563
 20
146.951
 30
0
 40
70.547003430337
 50
40.018120251412
 51
89.982132378295
210
0
220
0
230
1.0
 0
LINE
 8
TOOL_0
 5
9C
 10
865.591
 20
192.315
 30
0
 11
892.951
 21
159.709
 31
0
 0
ARC
 8
TOOL_0
 5
9D
 10
911.719
 20
175.457
 30
0
 40
24.49974138639
 50
219.999602507247
 51
270.0
210
0
220
0
230
1.0
 0
LINE
 8
TOOL_0
 5
9E
 10
911.719
 20
150.957
 30
0
 11
932.848
 21
150.957
 31
0
 0
ARC
 8
TOOL_0
 5
9F
 10
932.707
 20
147.735
 30
0
 40
3.225083719844
 50
27.867725704438
 51
87.494241556732
210
0
220
0
230
1.0
 0
ARC
 8
TOOL_0
 5
A0
 10
942.335
 20
152.457
 30
0
 40
7.499598122566
 50
205.375973959937
 51
262.892040478314
210
0
220
0
230
1.0
 0
ARC
 8
TOOL_0
 5
A1
 10
941.022
 20
142.026
 30
0
 40
3.013693083245
 50
0.228117359406
 51
82.660393719969
210
0
220
0
230
1.0
 0
LINE
 8
TOOL_0
 5
A2
 10
944.036
 20
142.038
 30
0
 11
944.036
 21
13.507
 31
0
 0
LINE
 8
TOOL_0
 5
A3
 10
944.036
 20
13.507
 30
0
 11
946.516
 21
11.816
 31
0
 0
LINE
 8
TOOL_0
 5
A4
 10
946.516
 20
11.816
 30
0
 11
950.052
 21
8.28
 31
0
 0
LINE
 8
TOOL_0
 5
A5
 10
950.052
 20
8.28
 30
0
 11
920.21
 21
379.93
 31
0
 0
LINE
 8
TOOL_0
 5
A6
 10
920.21
 20
379.93
 30
0
 11
937.101
 21
361.499
 31
0
 0
LINE
 8
TOOL_0
 5
A7
 10
937.101
 20
361.499
 30
0
 11
938.601
 21
358.899
 31
0
 0
ARC
 8
TOOL_0
 5
A8
 10
938.46
 20
355.677
 30
0
 40
3.225083719844
 50
27.867725704438
 51
87.494241556732
210
0
220
0
230
1.0
 0
ARC
 8
TOOL_0
 5
A9
 10
948.088
 20
360.399
 30
0
 40
7.499598122566
 50
205.375973959937
 51
262.892040478314
210
0
220
0
230
1.0
 0
ARC
 8
TOOL_0
 5
AA
 10
946.775
 20
349.968
 30
0
 40
3.013693083245
 50
0.228117359406
 51
82.660393719969
210
0
220
0
230
1.0
 0
LINE
 8
TOOL_0
 5
AB
 10
949.789
 20
349.98
 30
0
 11
949.789
 21
219.941
 31
0
 0
ARC
 8
TOOL_0
 5
AC
 10
944.789
 20
219.941
 30
0
 40
5.0
 50
270.0
 51
0
210
0
220
0
230
1.0
 0
LINE
 8
TOOL_0
 5
AD
 10
944.789
 20
214.941
 30
0
 11
886.577
 21
214.941
 31
0
 0
ARC
 8
TOOL_0
 5
AE
 10
886.605
 20
235.529
 30
0
 40
20.588019040209
 50
234.365268932506
 51
269.922076897355
210
0
220
0
230
1.0
 0
ARC
 8
TOOL_0
 5
AF
 10
892.356
 20
242.143
 30
0
 40
29.325806468024
 50
215.495887892338
 51
232.761619444092
210
0
220
0
230
1.0
 0
ARC
 8
TOOL_0
 5
B0
 10
815.212
 20
180.472
 30
0
 40
69.501635038321
 50
39.965797844957
 51
88.246267223444
210
0
220
0
230
1.0
 0
LINE
 8
TOOL_0
 5
B1
 10
817.339
 20
249.941
 30
0
 11
789.854
 21
249.941
 31
0
 0
ARC
 8
TOOL_0
 5
B2
 10
791.966
 20
180.464
 30
0
 40
69.509093455461
 50
91.741172379534
 51
139.997385733126
210
0
220
0
230
1.0
 0
ARC
 8
TOOL_0
 5
B3
 10
714.802
 20
242.168
 30
0
 40
29.357572191855
 50
307.250869813266
 51
324.562374132182
210
0
220
0
230
1.0
 0
ARC
 8
TOOL_0
 5
B4
 10
720.572
 20
235.529
 30
0
 40
20.587846924824
 50
270.077923102645
 51
305.652526069449
210
0
220
0
230
1.0
 0
LINE
 8
TOOL_0
 5
B5
 10
720.6
 20
214.941
 30
0
 11
662.388
 21
214.941
 31
0
 0
ARC
 8
TOOL_0
 5
B6
 10
662.388
 20
219.941
 30
0
 40
5.0
 50
180.0
 51
270.0
210
0
220
0
230
1.0
 0
LINE
 8
TOOL_0
 5
B7
 10
657.388
 20
219.941
 30
0
 11
657.388
 21
349.98
 31
0
 0
ARC
 8
TOOL_0
 5
B8
 10
660.402
 20
349.968
 30
0
 40
3.014023888426
 50
97.339606280031
 51
179.771882640594
210
0
220
0
230
1.0
 0
ARC
 8
TOOL_0
 5
B9
 10
659.088
 20
360.399
 30
0
 40
7.499760329504
 50
277.115540490307
 51
334.627299750044
210
0
220
0
230
1.0
 0
ARC
 8
TOOL_0
 5
BA
 10
668.859
 20
355.562
 30
0
 40
3.405607875255
 50
78.482200075798
 51
151.538579919279
210
0
220
0
230
1.0
 0
LINE
 8
TOOL_0
 5
BB
 10
669.539
 20
358.899
 30
0
 11
689.705
 21
358.899
 31
0
 0
ARC
 8
TOOL_0
 5
BC
 10
689.705
 20
383.399
 30
0
 40
24.5
 50
270.0
 51
320.000397492753
210
0
220
0
230
1.0
 0
LINE
 8
TOOL_0
 5
BD
 10
708.473
 20
367.651
 30
0
 11
735.833
 21
400.257
 31
0
 0
ARC
 8
TOOL_0
 5
BE
 10
789.861
 20
354.893
 30
0
 40
70.547269826691
 50
90.017867621705
 51
139.981879748588
210
0
220
0
230
1.0
 0
LINE
 8
TOOL_0
 5
BF
 10
789.839
 20
425.44
 30
0
 11
817.339
 21
425.44
 31
0
 0
ARC
 8
TOOL_0
 5
C0
 10
817.317
 20
354.893
 30
0
 40
70.547003430337
 50
40.018120251412
 51
89.982132378295
210
0
220
0
230
1.0
 0
LINE
 8
TOOL_0
 5
C1
 10
871.345
 20
400.257
 30
0
 11
898.705
 21
367.651
 31
0
 0
ARC
 8
TOOL_0
 5
C2
 10
917.473
 20
383.399
 30
0
 40
24.49974138639
 50
219.999602507247
 51
270.0
210
0
220
0
230
1.0
 0
LINE
 8
TOOL_0
 5
C3
 10
917.473
 20
358.899
 30
0
 11
935.602
 21
358.899
 31
0
 0
LINE
 8
TOOL_0
 5
C4
 10
935.602
 20
358.899
 30
0
 11
937.102
 21
361.499
 31
0
 0
LINE
 8
TOOL_0
 5
C5
 10
937.102
 20
361.499
 30
0
 11
940.788
 21
364.877
 31
0
 0
LINE
 8
TOOL_0
 5
C6
 10
940.788
 20
364.877
 30
0
 11
1294.876
 21
29.493
 31
0
 0
LINE
 8
TOOL_0
 5
C7
 10
1294.876
 20
29.493
 30
0
 11
1277.199
 21
11.816
 31
0
 0
LINE
 8
TOOL_0
 5
C8
 10
1277.199
 20
11.816
 30
0
 11
1274.494
 21
10.515
 31
0
 0
ARC
 8
TOOL_0
 5
C9
 10
1269.719
 20
11.998
 30
0
 40
4.999991399993
 50
270.0
 51
342.746464189755
210
0
220
0
230
1.0
 0
LINE
 8
TOOL_0
 5
CA
 10
1269.719
 20
6.998
 30
0
 11
1211.507
 21
6.998
 31
0
 0
ARC
 8
TOOL_0
 5
CB
 10
1211.535
 20
27.586
 30
0
 40
20.588019040209
 50
234.365268932506
 51
269.922076897355
210
0
220
0
230
1.0
 0
ARC
 8
TOOL_0
 5
CC
 10
1217.286
 20
34.2
 30
0
 40
29.325806468024
 50
215.495887892338
 51
232.761619444092
210
0
220
0
230
1.0
 0
ARC
 8
TOOL_0
 5
CD
 10
1140.142
 20
-27.471
 30
0
 40
69.501635038321
 50
39.965797844957
 51
88.246267223444
210
0
220
0
230
1.0
 0
LINE
 8
TOOL_0
 5
CE
 10
1142.269
 20
41.998
 30
0
 11
1114.784
 21
41.998
 31
0
 0
ARC
 8
TOOL_0
 5
CF
 10
1116.896
 20
-27.479
 30
0
 40
69.509093455461
 50
91.741172379534
 51
139.997385733126
210
0
220
0
230
1.0
 0
ARC
 8
TOOL_0
 5
D0
 10
1039.732
 20
34.225
 30
0
 40
29.357572191856
 50
307.250869813267
 51
324.562374132182
210
0
220
0
230
1.0
 0
ARC
 8
TOOL_0
 5
D1
 10
1045.502
 20
27.586
 30
0
 40
20.587846924824
 50
270.077923102645
 51
305.652526069449
210
0
220
0
230
1.0
 0
LINE
 8
TOOL_0
 5
D2
 10
1045.53
 20
6.998
 30
0
 11
987.318
 21
6.998
 31
0
 0
ARC
 8
TOOL_0
 5
D3
 10
987.318
 20
11.998
 30
0
 40
5.0
 50
180.0
 51
270.0
210
0
220
0
230
1.0
 0
LINE
 8
TOOL_0
 5
D4
 10
982.318
 20
11.998
 30
0
 11
982.318
 21
142.037
 31
0
 0
ARC
 8
TOOL_0
 5
D5
 10
985.332
 20
142.025
 30
0
 40
3.014023888426
 50
97.339606280031
 51
179.771882640594
210
0
220
0
230
1.0
 0
ARC
 8
TOOL_0
 5
D6
 10
984.018
 20
152.456
 30
0
 40
7.499760329504
 50
277.115540490307
 51
334.627299750044
210
0
220
0
230
1.0
 0
ARC
 8
TOOL_0
 5
D7
 10
993.789
 20
147.619
 30
0
 40
3.405607875255
 50
78.482200075798
 51
151.538579919279
210
0
220
0
230
1.0
 0
LINE
 8
TOOL_0
 5
D8
 10
994.469
 20
150.956
 30
0
 11
1014.635
 21
150.956
 31
0
 0
ARC
 8
TOOL_0
 5
D9
 10
1014.635
 20
175.456
 30
0
 40
24.5
 50
270.0
 51
320.000397492753
210
0
220
0
230
1.0
 0
LINE
 8
TOOL_0
 5
DA
 10
1033.403
 20
159.708
 30
0
 11
1060.763
 21
192.314
 31
0
 0
ARC
 8
TOOL_0
 5
DB
 10
1114.791
 20
146.95
 30
0
 40
70.547269826691
 50
90.017867621705
 51
139.981879748588
210
0
220
0
230
1.0
 0
LINE
 8
TOOL_0
 5
DC
 10
1114.769
 20
217.497
 30
0
 11
1142.269
 21
217.497
 31
0
 0
ARC
 8
TOOL_0
 5
DD
 10
1142.247
 20
146.95
 30
0
 40
70.547003430337
 50
40.018120251412
 51
89.982132378295
210
0
220
0
230
1.0
 0
LINE
 8
TOOL_0
 5
DE
 10
1196.275
 20
192.314
 30
0
 11
1223.635
 21
159.708
 31
0
 0
ARC
 8
TOOL_0
 5
DF
 10
1242.403
 20
175.456
 30
0
 40
24.49974138639
 50
219.999602507247
 51
270.0
210
0
220
0
230
1.0
 0
LINE
 8
TOOL_0
 5
E0
 10
1242.403
 20
150.956
 30
0
 11
1263.532
 21
150.956
 31
0
 0
ARC
 8
TOOL_0
 5
E1
 10
1263.391
 20
147.734
 30
0
 40
3.225083719844
 50
27.867725704437
 51
87.49424155673
210
0
220
0
230
1.0
 0
ARC
 8
TOOL_0
 5
E2
 10
1273.019
 20
152.456
 30
0
 40
7.499598122566
 50
205.375973959936
 51
262.892040478313
210
0
220
0
230
1.0
 0
ARC
 8
TOOL_0
 5
E3
 10
1271.706
 20
142.025
 30
0
 40
3.013693083245
 50
0.228117359406
 51
82.660393719969
210
0
220
0
230
1.0
 0
LINE
 8
TOOL_0
 5
E4
 10
1274.72
 20
142.037
 30
0
 11
1274.72
 21
13.506
 31
0
 0
LINE
 8
TOOL_0
 5
E5
 10
1274.72
 20
13.506
 30
0
 11
1277.2
 21
11.815
 31
0
 0
LINE
 8
TOOL_0
 5
E6
 10
1277.2
 20
11.815
 30
0
 11
1280.736
 21
8.279
 31
0
 0
LINE
 8
TOOL_0
 5
E7
 10
1280.736
 20
8.279
 30
0
 11
1245.143
 21
375.458
 31
0
 0
LINE
 8
TOOL_0
 5
E8
 10
1245.143
 20
375.458
 30
0
 11
1262.034
 21
357.027
 31
0
 0
LINE
 8
TOOL_0
 5
E9
 10
1262.034
 20
357.027
 30
0
 11
1263.534
 21
354.427
 31
0
 0
ARC
 8
TOOL_0
 5
EA
 10
1263.393
 20
351.205
 30
0
 40
3.225083719844
 50
27.867725704437
 51
87.49424155673
210
0
220
0
230
1.0
 0
ARC
 8
TOOL_0
 5
EB
 10
1273.021
 20
355.927
 30
0
 40
7.499598122566
 50
205.375973959936
 51
262.892040478313
210
0
220
0
230
1.0
 0
ARC
 8
TOOL_0
 5
EC
 10
1271.708
 20
345.496
 30
0
 40
3.013693083245
 50
0.228117359406
 51
82.660393719969
210
0
220
0
230
1.0
 0
LINE
 8
TOOL_0
 5
ED
 10
1274.722
 20
345.508
 30
0
 11
1274.722
 21
215.469
 31
0
 0
ARC
 8
TOOL_0
 5
EE
 10
1269.722
 20
215.469
 30
0
 40
5.0
 50
270.0
 51
0
210
0
220
0
230
1.0
 0
LINE
 8
TOOL_0
 5
EF
 10
1269.722
 20
210.469
 30
0
 11
1211.51
 21
210.469
 31
0
 0
ARC
 8
TOOL_0
 5
F0
 10
1211.538
 20
231.057
 30
0
 40
20.588019040209
 50
234.365268932506
 51
269.922076897355
210
0
220
0
230
1.0
 0
ARC
 8
TOOL_0
 5
F1
 10
1217.289
 20
237.671
 30
0
 40
29.325806468024
 50
215.495887892338
 51
232.761619444092
210
0
220
0
230
1.0
 0
ARC
 8
TOOL_0
 5
F2
 10
1140.145
 20
176.0
 30
0
 40
69.501635038321
 50
39.965797844957
 51
88.246267223444
210
0
220
0
230
1.0
 0
LINE
 8
TOOL_0
 5
F3
 10
1142.272
 20
245.469
 30
0
 11
1114.787
 21
245.469
 31
0
 0
ARC
 8
TOOL_0
 5
F4
 10
1116.899
 20
175.992
 30
0
 40
69.509093455461
 50
91.741172379534
 51
139.997385733126
210
0
220
0
230
1.0
 0
ARC
 8
TOOL_0
 5
F5
 10
1039.735
 20
237.696
 30
0
 40
29.357572191855
 50
307.250869813267
 51
324.562374132182
210
0
220
0
230
1.0
 0
ARC
 8
TOOL_0
 5
F6
 10
1045.505
 20
231.057
 30
0
 40
20.587846924824
 50
270.077923102645
 51
305.652526069449
210
0
220
0
230
1.0
 0
LINE
 8
TOOL_0
 5
F7
 10
1045.533
 20
210.469
 30
0
 11
987.321
 21
210.469
 31
0
 0
ARC
 8
TOOL_0
 5
F8
 10
987.321
 20
215.469
 30
0
 40
5.0
 50
180.0
 51
270.0
210
0
220
0
230
1.0
 0
LINE
 8
TOOL_0
 5
F9
 10
982.321
 20
215.469
 30
0
 11
982.321
 21
345.508
 31
0
 0
ARC
 8
TOOL_0
 5
FA
 10
985.335
 20
345.496
 30
0
 40
3.014023888426
 50
97.339606280031
 51
179.771882640594
210
0
220
0
230
1.0
 0
ARC
 8
TOOL_0
 5
FB
 10
984.021
 20
355.927
 30
0
 40
7.499760329504
 50
277.115540490307
 51
334.627299750044
210
0
220
0
230
1.0
 0
ARC
 8
TOOL_0
 5
FC
 10
993.792
 20
351.09
 30
0
 40
3.405607875255
 50
78.482200075798
 51
151.538579919279
210
0
220
0
230
1.0
 0
LINE
 8
TOOL_0
 5
FD
 10
994.472
 20
354.427
 30
0
 11
1014.638
 21
354.427
 31
0
 0
ARC
 8
TOOL_0
 5
FE
 10
1014.638
 20
378.927
 30
0
 40
24.5
 50
270.0
 51
320.000397492753
210
0
220
0
230
1.0
 0
LINE
 8
TOOL_0
 5
FF
 10
1033.406
 20
363.179
 30
0
 11
1060.766
 21
395.785
 31
0
 0
ARC
 8
TOOL_0
 5
100
 10
1114.794
 20
350.421
 30
0
 40
70.547269826691
 50
90.017867621705
 51
139.981879748588
210
0
220
0
230
1.0
 0
LINE
 8
TOOL_0
 5
101
 10
1114.772
 20
420.968
 30
0
 11
1142.272
 21
420.968
 31
0
 0
ARC
 8
TOOL_0
 5
102
 10
1142.25
 20
350.421
 30
0
 40
70.547003430337
 50
40.018120251412
 51
89.982132378295
210
0
220
0
230
1.0
 0
LINE
 8
TOOL_0
 5
103
 10
1196.278
 20
395.785
 30
0
 11
1223.638
 21
363.179
 31
0
 0
ARC
 8
TOOL_0
 5
104
 10
1242.406
 20
378.927
 30
0
 40
24.49974138639
 50
219.999602507247
 51
270.0
210
0
220
0
230
1.0
 0
LINE
 8
TOOL_0
 5
105
 10
1242.406
 20
354.427
 30
0
 11
1260.535
 21
354.427
 31
0
 0
LINE
 8
TOOL_0
 5
106
 10
1260.535
 20
354.427
 30
0
 11
1262.035
 21
357.027
 31
0
 0
LINE
 8
TOOL_0
 5
107
 10
1262.035
 20
357.027
 30
0
 11
1265.721
 21
360.405
 31
0
 0
LINE
 8
TOOL_0
 5
108
 10
1265.721
 20
360.405
 30
0
 11
1635.625
 21
29.492
 31
0
 0
LINE
 8
TOOL_0
 5
109
 10
1635.625
 20
29.492
 30
0
 11
1617.947
 21
11.815
 31
0
 0
LINE
 8
TOOL_0
 5
10A
 10
1617.947
 20
11.815
 30
0
 11
1615.242
 21
10.514
 31
0
 0
ARC
 8
TOOL_0
 5
10B
 10
1610.467
 20
11.997
 30
0
 40
4.999991399993
 50
270.0
 51
342.746464189755
210
0
220
0
230
1.0
 0
LINE
 8
TOOL_0
 5
10C
 10
1610.467
 20
6.997
 30
0
 11
1552.255
 21
6.997
 31
0
 0
ARC
 8
TOOL_0
 5
10D
 10
1552.283
 20
27.585
 30
0
 40
20.588019040209
 50
234.365268932506
 51
269.922076897355
210
0
220
0
230
1.0
 0
ARC
 8
TOOL_0
 5
10E
 10
1558.034
 20
34.199
 30
0
 40
29.325806468024
 50
215.495887892338
 51
232.761619444092
210
0
220
0
230
1.0
 0
ARC
 8
TOOL_0
 5
10F
 10
1480.89
 20
-27.472
 30
0
 40
69.501635038321
 50
39.965797844957
 51
88.246267223444
210
0
220
0
230
1.0
 0
LINE
 8
TOOL_0
 5
110
 10
1483.017
 20
41.997
 30
0
 11
1455.532
 21
41.997
 31
0
 0
ARC
 8
TOOL_0
 5
111
 10
1457.644
 20
-27.48
 30
0
 40
69.509093455461
 50
91.741172379534
 51
139.997385733126
210
0
220
0
230
1.0
 0
ARC
 8
TOOL_0
 5
112
 10
1380.48
 20
34.224
 30
0
 40
29.357572191856
 50
307.250869813267
 51
324.562374132182
210
0
220
0
230
1.0
 0
ARC
 8
TOOL_0
 5
113
 10
1386.25
 20
27.585
 30
0
 40
20.587846924824
 50
270.077923102645
 51
305.652526069449
210
0
220
0
230
1.0
 0
LINE
 8
TOOL_0
 5
114
 10
1386.278
 20
6.997
 30
0
 11
1328.066
 21
6.997
 31
0
 0
ARC
 8
TOOL_0
 5
115
 10
1328.066
 20
11.997
 30
0
 40
5.0
 50
180.0
 51
270.0
210
0
220
0
230
1.0
 0
LINE
 8
TOOL_0
 5
116
 10
1323.066
 20
11.997
 30
0
 11
1323.066
 21
142.036
 31
0
 0
ARC
 8
TOOL_0
 5
117
 10
1326.08
 20
142.024
 30
0
 40
3.014023888425
 50
97.339606280031
 51
179.771882640594
210
0
220
0
230
1.0
 0
ARC
 8
TOOL_0
 5
118
 10
1324.766
 20
152.455
 30
0
 40
7.499760329504
 50
277.115540490308
 51
334.627299750044
210
0
220
0
230
1.0
 0
ARC
 8
TOOL_0
 5
119
 10
1334.537
 20
147.618
 30
0
 40
3.405607875255
 50
78.482200075796
 51
151.538579919278
210
0
220
0
230
1.0
 0
LINE
 8
TOOL_0
 5
11A
 10
1335.217
 20
150.955
 30
0
 11
1355.383
 21
150.955
 31
0
 0
ARC
 8
TOOL_0
 5
11B
 10
1355.383
 20
175.455
 30
0
 40
24.5
 50
270.0
 51
320.000397492753
210
0
220
0
230
1.0
 0
LINE
 8
TOOL_0
 5
11C
 10
1374.151
 20
159.707
 30
0
 11
1401.511
 21
192.313
 31
0
 0
ARC
 8
TOOL_0
 5
11D
 10
1455.539
 20
146.949
 30
0
 40
70.547269826691
 50
90.017867621705
 51
139.981879748588
210
0
220
0
230
1.0
 0
LINE
 8
TOOL_0
 5
11E
 10
1455.517
 20
217.496
 30
0
 11
1483.017
 21
217.496
 31
0
 0
ARC
 8
TOOL_0
 5
11F
 10
1482.995
 20
146.949
 30
0
 40
70.547003430337
 50
40.018120251412
 51
89.982132378295
210
0
220
0
230
1.0
 0
LINE
 8
TOOL_0
 5
120
 10
1537.023
 20
192.313
 30
0
 11
1564.383
 21
159.707
 31
0
 0
ARC
 8
TOOL_0
 5
121
 10
1583.151
 20
175.455
 30
0
 40
24.49974138639
 50
219.999602507247
 51
270.0
210
0
220
0
230
1.0
 0
LINE
 8
TOOL_0
 5
122
 10
1583.151
 20
150.955
 30
0
 11
1604.28
 21
150.955
 31
0
 0
ARC
 8
TOOL_0
 5
123
 10
1604.139
 20
147.733
 30
0
 40
3.225083719844
 50
27.867725704437
 51
87.49424155673
210
0
220
0
230
1.0
 0
ARC
 8
TOOL_0
 5
124
 10
1613.767
 20
152.455
 30
0
 40
7.499598122566
 50
205.375973959936
 51
262.892040478313
210
0
220
0
230
1.0
 0
ARC
 8
TOOL_0
 5
125
 10
1612.454
 20
142.024
 30
0
 40
3.013693083245
 50
0.228117359406
 51
82.660393719969
210
0
220
0
230
1.0
 0
LINE
 8
TOOL_0
 5
126
 10
1615.468
 20
142.036
 30
0
 11
1615.468
 21
13.505
 31
0
 0
LINE
 8
TOOL_0
 5
127
 10
1615.468
 20
13.505
 30
0
 11
1617.948
 21
11.814
 31
0
 0
LINE
 8
TOOL_0
 5
128
 10
1617.948
 20
11.814
 30
0
 11
1621.484
 21
8.278
 31
0
 0
LINE
 8
TOOL_0
 5
129
 10
1621.484
 20
8.278
 30
0
 11
1584.453
 21
376.467
 31
0
 0
LINE
 8
TOOL_0
 5
12A
 10
1584.453
 20
376.467
 30
0
 11
1601.343
 21
358.036
 31
0
 0
LINE
 8
TOOL_0
 5
12B
 10
1601.343
 20
358.036
 30
0
 11
1602.843
 21
355.436
 31
0
 0
ARC
 8
TOOL_0
 5
12C
 10
1602.702
 20
352.214
 30
0
 40
3.225083719844
 50
27.867725704437
 51
87.49424155673
210
0
220
0
230
1.0
 0
ARC
 8
TOOL_0
 5
12D
 10
1612.33
 20
356.936
 30
0
 40
7.499598122566
 50
205.375973959936
 51
262.892040478313
210
0
220
0
230
1.0
 0
ARC
 8
TOOL_0
 5
12E
 10
1611.017
 20
346.505
 30
0
 40
3.013693083245
 50
0.228117359406
 51
82.660393719969
210
0
220
0
230
1.0
 0
LINE
 8
TOOL_0
 5
12F
 10
1614.031
 20
346.517
 30
0
 11
1614.031
 21
216.478
 31
0
 0
ARC
 8
TOOL_0
 5
130
 10
1609.031
 20
216.478
 30
0
 40
5.0
 50
270.0
 51
0
210
0
220
0
230
1.0
 0
LINE
 8
TOOL_0
 5
131
 10
1609.031
 20
211.478
 30
0
 11
1550.819
 21
211.478
 31
0
 0
ARC
 8
TOOL_0
 5
132
 10
1550.847
 20
232.066
 30
0
 40
20.588019040209
 50
234.365268932506
 51
269.922076897355
210
0
220
0
230
1.0
 0
ARC
 8
TOOL_0
 5
133
 10
1556.598
 20
238.68
 30
0
 40
29.325806468024
 50
215.495887892338
 51
232.761619444092
210
0
220
0
230
1.0
 0
ARC
 8
TOOL_0
 5
134
 10
1479.454
 20
177.009
 30
0
 40
69.501635038321
 50
39.965797844957
 51
88.246267223444
210
0
220
0
230
1.0
 0
LINE
 8
TOOL_0
 5
135
 10
1481.581
 20
246.478
 30
0
 11
1454.096
 21
246.478
 31
0
 0
ARC
 8
TOOL_0
 5
136
 10
1456.208
 20
177.001
 30
0
 40
69.509093455461
 50
91.741172379534
 51
139.997385733126
210
0
220
0
230
1.0
 0
ARC
 8
TOOL_0
 5
137
 10
1379.044
 20
238.705
 30
0
 40
29.357572191855
 50
307.250869813267
 51
324.562374132182
210
0
220
0
230
1.0
 0
ARC
 8
TOOL_0
 5
138
 10
1384.814
 20
232.066
 30
0
 40
20.587846924824
 50
270.077923102645
 51
305.652526069449
210
0
220
0
230
1.0
 0
LINE
 8
TOOL_0
 5
139
 10
1384.842
 20
211.478
 30
0
 11
1326.63
 21
211.478
 31
0
 0
ARC
 8
TOOL_0
 5
13A
 10
1326.63
 20
216.478
 30
0
 40
5.0
 50
180.0
 51
270.0
210
0
220
0
230
1.0
 0
LINE
 8
TOOL_0
 5
13B
 10
1321.63
 20
216.478
 30
0
 11
1321.63
 21
346.517
 31
0
 0
ARC
 8
TOOL_0
 5
13C
 10
1324.644
 20
346.505
 30
0
 40
3.014023888425
 50
97.339606280031
 51
179.771882640594
210
0
220
0
230
1.0
 0
ARC
 8
TOOL_0
 5
13D
 10
1323.33
 20
356.936
 30
0
 40
7.499760329504
 50
277.115540490308
 51
334.627299750044
210
0
220
0
230
1.0
 0
ARC
 8
TOOL_0
 5
13E
 10
1333.101
 20
352.099
 30
0
 40
3.405607875255
 50
78.482200075796
 51
151.538579919278
210
0
220
0
230
1.0
 0
LINE
 8
TOOL_0
 5
13F
 10
1333.781
 20
355.436
 30
0
 11
1353.947
 21
355.436
 31
0
 0
ARC
 8
TOOL_0
 5
140
 10
1353.947
 20
379.936
 30
0
 40
24.5
 50
270.0
 51
320.000397492753
210
0
220
0
230
1.0
 0
LINE
 8
TOOL_0
 5
141
 10
1372.715
 20
364.188
 30
0
 11
1400.075
 21
396.794
 31
0
 0
ARC
 8
TOOL_0
 5
142
 10
1454.103
 20
351.43
 30
0
 40
70.547269826691
 50
90.017867621705
 51
139.981879748588
210
0
220
0
230
1.0
 0
LINE
 8
TOOL_0
 5
143
 10
1454.081
 20
421.977
 30
0
 11
1481.581
 21
421.977
 31
0
 0
ARC
 8
TOOL_0
 5
144
 10
1481.559
 20
351.43
 30
0
 40
70.547003430337
 50
40.018120251412
 51
89.982132378295
210
0
220
0
230
1.0
 0
LINE
 8
TOOL_0
 5
145
 10
1535.587
 20
396.794
 30
0
 11
1562.947
 21
364.188
 31
0
 0
ARC
 8
TOOL_0
 5
146
 10
1581.715
 20
379.936
 30
0
 40
24.49974138639
 50
219.999602507247
 51
270.0
210
0
220
0
230
1.0
 0
LINE
 8
TOOL_0
 5
147
 10
1581.715
 20
355.436
 30
0
 11
1599.844
 21
355.436
 31
0
 0
LINE
 8
TOOL_0
 5
148
 10
1599.844
 20
355.436
 30
0
 11
1601.344
 21
358.036
 31
0
 0
LINE
 8
TOOL_0
 5
149
 10
1601.344
 20
358.036
 30
0
 11
1605.03
 21
361.414
 31
0
 0
LINE
 8
TOOL_0
 5
14A
 10
1605.03
 20
361.414
 30
0
 11
1961.994
 21
29.491
 31
0
 0
LINE
 8
TOOL_0
 5
14B
 10
1961.994
 20
29.491
 30
0
 11
1944.316
 21
11.814
 31
0
 0
LINE
 8
TOOL_0
 5
14C
 10
1944.316
 20
11.814
 30
0
 11
1941.611
 21
10.513
 31
0
 0
ARC
 8
TOOL_0
 5
14D
 10
1936.836
 20
11.996
 30
0
 40
4.999991399993
 50
270.0
 51
342.746464189755
210
0
220
0
230
1.0
 0
LINE
 8
TOOL_0
 5
14E
 10
1936.836
 20
6.996
 30
0
 11
1878.624
 21
6.996
 31
0
 0
ARC
 8
TOOL_0
 5
14F
 10
1878.652
 20
27.584
 30
0
 40
20.588019040209
 50
234.365268932506
 51
269.922076897355
210
0
220
0
230
1.0
 0
ARC
 8
TOOL_0
 5
150
 10
1884.403
 20
34.198
 30
0
 40
29.325806468024
 50
215.495887892338
 51
232.761619444092
210
0
220
0
230
1.0
 0
ARC
 8
TOOL_0
 5
151
 10
1807.259
 20
-27.473
 30
0
 40
69.501635038321
 50
39.965797844957
 51
88.246267223444
210
0
220
0
230
1.0
 0
LINE
 8
TOOL_0
 5
152
 10
1809.386
 20
41.996
 30
0
 11
1781.901
 21
41.996
 31
0
 0
ARC
 8
TOOL_0
 5
153
 10
1784.013
 20
-27.481
 30
0
 40
69.509093455461
 50
91.741172379534
 51
139.997385733126
210
0
220
0
230
1.0
 0
ARC
 8
TOOL_0
 5
154
 10
1706.849
 20
34.223
 30
0
 40
29.357572191856
 50
307.250869813267
 51
324.562374132182
210
0
220
0
230
1.0
 0
ARC
 8
TOOL_0
 5
155
 10
1712.619
 20
27.584
 30
0
 40
20.587846924824
 50
270.077923102645
 51
305.652526069449
210
0
220
0
230
1.0
 0
LINE
 8
TOOL_0
 5
156
 10
1712.647
 20
6.996
 30
0
 11
1654.435
 21
6.996
 31
0
 0
ARC
 8
TOOL_0
 5
157
 10
1654.435
 20
11.996
 30
0
 40
5.0
 50
180.0
 51
270.0
210
0
220
0
230
1.0
 0
LINE
 8
TOOL_0
 5
158
 10
1649.435
 20
11.996
 30
0
 11
1649.435
 21
142.035
 31
0
 0
ARC
 8
TOOL_0
 5
159
 10
1652.449
 20
142.023
 30
0
 40
3.014023888425
 50
97.339606280031
 51
179.771882640594
210
0
220
0
230
1.0
 0
ARC
 8
TOOL_0
 5
15A
 10
1651.135
 20
152.454
 30
0
 40
7.499760329504
 50
277.115540490308
 51
334.627299750044
210
0
220
0
230
1.0
 0
ARC
 8
TOOL_0
 5
15B
 10
1660.906
 20
147.617
 30
0
 40
3.405607875255
 50
78.482200075796
 51
151.538579919278
210
0
220
0
230
1.0
 0
LINE
 8
TOOL_0
 5
15C
 10
1661.586
 20
150.954
 30
0
 11
1681.752
 21
150.954
 31
0
 0
ARC
 8
TOOL_0
 5
15D
 10
1681.752
 20
175.454
 30
0
 40
24.5
 50
270.0
 51
320.000397492753
210
0
220
0
230
1.0
 0
LINE
 8
TOOL_0
 5
15E
 10
1700.52
 20
159.706
 30
0
 11
1727.88
 21
192.312
 31
0
 0
ARC
 8
TOOL_0
 5
15F
 10
1781.908
 20
146.948
 30
0
 40
70.547269826691
 50
90.017867621705
 51
139.981879748588
210
0
220
0
230
1.0
 0
LINE
 8
TOOL_0
 5
160
 10
1781.886
 20
217.495
 30
0
 11
1809.386
 21
217.495
 31
0
 0
ARC
 8
TOOL_0
 5
161
 10
1809.364
 20
146.948
 30
0
 40
70.547003430337
 50
40.018120251412
 51
89.982132378295
210
0
220
0
230
1.0
 0
LINE
 8
TOOL_0
 5
162
 10
1863.392
 20
192.312
 30
0
 11
1890.752
 21
159.706
 31
0
 0
ARC
 8
TOOL_0
 5
163
 10
1909.52
 20
175.454
 30
0
 40
24.49974138639
 50
219.999602507247
 51
270.0
210
0
220
0
230
1.0
 0
LINE
 8
TOOL_0
 5
164
 10
1909.52
 20
150.954
 30
0
 11
1930.649
 21
150.954
 31
0
 0
ARC
 8
TOOL_0
 5
165
 10
1930.508
 20
147.732
 30
0
 40
3.225083719844
 50
27.867725704437
 51
87.49424155673
210
0
220
0
230
1.0
 0
ARC
 8
TOOL_0
 5
166
 10
1940.136
 20
152.454
 30
0
 40
7.499598122566
 50
205.375973959936
 51
262.892040478313
210
0
220
0
230
1.0
 0
ARC
 8
TOOL_0
 5
167
 10
1938.823
 20
142.023
 30
0
 40
3.013693083245
 50
0.228117359406
 51
82.660393719969
210
0
220
0
230
1.0
 0
LINE
 8
TOOL_0
 5
168
 10
1941.837
 20
142.035
 30
0
 11
1941.837
 21
13.504
 31
0
 0
LINE
 8
TOOL_0
 5
169
 10
1941.837
 20
13.504
 30
0
 11
1944.317
 21
11.813
 31
0
 0
LINE
 8
TOOL_0
 5
16A
 10
1944.317
 20
11.813
 30
0
 11
1947.853
 21
8.277
 31
0
 0
LINE
 8
TOOL_0
 5
16B
 10
1947.853
 20
8.277
 30
0
 11
1912.26
 21
375.168
 31
0
 0
LINE
 8
TOOL_0
 5
16C
 10
1912.26
 20
375.168
 30
0
 11
1929.15
 21
356.737
 31
0
 0
LINE
 8
TOOL_0
 5
16D
 10
1929.15
 20
356.737
 30
0
 11
1930.65
 21
354.137
 31
0
 0
ARC
 8
TOOL_0
 5
16E
 10
1930.509
 20
350.915
 30
0
 40
3.225083719844
 50
27.867725704437
 51
87.49424155673
210
0
220
0
230
1.0
 0
ARC
 8
TOOL_0
 5
16F
 10
1940.137
 20
355.637
 30
0
 40
7.499598122566
 50
205.375973959936
 51
262.892040478313
210
0
220
0
230
1.0
 0
ARC
 8
TOOL_0
 5
170
 10
1938.824
 20
345.206
 30
0
 40
3.013693083245
 50
0.228117359406
 51
82.660393719969
210
0
220
0
230
1.0
 0
LINE
 8
TOOL_0
 5
171
 10
1941.838
 20
345.218
 30
0
 11
1941.838
 21
215.179
 31
0
 0
ARC
 8
TOOL_0
 5
172
 10
1936.838
 20
215.179
 30
0
 40
5.0
 50
270.0
 51
0
210
0
220
0
230
1.0
 0
LINE
 8
TOOL_0
 5
173
 10
1936.838
 20
210.179
 30
0
 11
1878.626
 21
210.179
 31
0
 0
ARC
 8
TOOL_0
 5
174
 10
1878.654
 20
230.767
 30
0
 40
20.588019040209
 50
234.365268932506
 51
269.922076897355
210
0
220
0
230
1.0
 0
ARC
 8
TOOL_0
 5
175
 10
1884.405
 20
237.381
 30
0
 40
29.325806468024
 50
215.495887892338
 51
232.761619444092
210
0
220
0
230
1.0
 0
ARC
 8
TOOL_0
 5
176
 10
1807.261
 20
175.71
 30
0
 40
69.501635038321
 50
39.965797844957
 51
88.246267223444
210
0
220
0
230
1.0
 0
LINE
 8
TOOL_0
 5
177
 10
1809.388
 20
245.179
 30
0
 11
1781.903
 21
245.179
 31
0
 0
ARC
 8
TOOL_0
 5
178
 10
1784.015
 20
175.702
 30
0
 40
69.509093455461
 50
91.741172379534
 51
139.997385733126
210
0
220
0
230
1.0
 0
ARC
 8
TOOL_0
 5
179
 10
1706.851
 20
237.406
 30
0
 40
29.357572191855
 50
307.250869813267
 51
324.562374132182
210
0
220
0
230
1.0
 0
ARC
 8
TOOL_0
 5
17A
 10
1712.621
 20
230.767
 30
0
 40
20.587846924824
 50
270.077923102645
 51
305.652526069449
210
0
220
0
230
1.0
 0
LINE
 8
TOOL_0
 5
17B
 10
1712.649
 20
210.179
 30
0
 11
1654.437
 21
210.179
 31
0
 0
ARC
 8
TOOL_0
 5
17C
 10
1654.437
 20
215.179
 30
0
 40
5.0
 50
180.0
 51
270.0
210
0
220
0
230
1.0
 0
LINE
 8
TOOL_0
 5
17D
 10
1649.437
 20
215.179
 30
0
 11
1649.437
 21
345.218
 31
0
 0
ARC
 8
TOOL_0
 5
17E
 10
1652.451
 20
345.206
 30
0
 40
3.014023888425
 50
97.339606280031
 51
179.771882640594
210
0
220
0
230
1.0
 0
ARC
 8
TOOL_0
 5
17F
 10
1651.137
 20
355.637
 30
0
 40
7.499760329504
 50
277.115540490308
 51
334.627299750044
210
0
220
0
230
1.0
 0
ARC
 8
TOOL_0
 5
180
 10
1660.908
 20
350.8
 30
0
 40
3.405607875255
 50
78.482200075796
 51
151.538579919278
210
0
220
0
230
1.0
 0
LINE
 8
TOOL_0
 5
181
 10
1661.588
 20
354.137
 30
0
 11
1681.754
 21
354.137
 31
0
 0
ARC
 8
TOOL_0
 5
182
 10
1681.754
 20
378.637
 30
0
 40
24.5
 50
270.0
 51
320.000397492753
210
0
220
0
230
1.0
 0
LINE
 8
TOOL_0
 5
183
 10
1700.522
 20
362.889
 30
0
 11
1727.882
 21
395.495
 31
0
 0
ARC
 8
TOOL_0
 5
184
 10
1781.91
 20
350.131
 30
0
 40
70.547269826691
 50
90.017867621705
 51
139.981879748588
210
0
220
0
230
1.0
 0
LINE
 8
TOOL_0
 5
185
 10
1781.888
 20
420.678
 30
0
 11
1809.388
 21
420.678
 31
0
 0
ARC
 8
TOOL_0
 5
186
 10
1809.366
 20
350.131
 30
0
 40
70.547003430337
 50
40.018120251412
 51
89.982132378295
210
0
220
0
230
1.0
 0
LINE
 8
TOOL_0
 5
187
 10
1863.394
 20
395.495
 30
0
 11
1890.754
 21
362.889
 31
0
 0
ARC
 8
TOOL_0
 5
188
 10
1909.522
 20
378.637
 30
0
 40
24.49974138639
 50
219.999602507247
 51
270.0
210
0
220
0
230
1.0
 0
LINE
 8
TOOL_0
 5
189
 10
1909.522
 20
354.137
 30
0
 11
1927.651
 21
354.137
 31
0
 0
LINE
 8
TOOL_0
 5
18A
 10
1927.651
 20
354.137
 30
0
 11
1929.151
 21
356.737
 31
0
 0
LINE
 8
TOOL_0
 5
18B
 10
1929.151
 20
356.737
 30
0
 11
1932.837
 21
360.115
 31
0
 0
LINE
 8
TOOL_0
 5
18C
 10
1932.837
 20
360.115
 30
0
 11
2288.364
 21
29.49
 31
0
 0
LINE
 8
TOOL_0
 5
18D
 10
2288.364
 20
29.49
 30
0
 11
2270.686
 21
11.813
 31
0
 0
LINE
 8
TOOL_0
 5
18E
 10
2270.686
 20
11.813
 30
0
 11
2267.981
 21
10.512
 31
0
 0
ARC
 8
TOOL_0
 5
18F
 10
2263.206
 20
11.995
 30
0
 40
4.999991399993
 50
270.0
 51
342.746464189755
210
0
220
0
230
1.0
 0
LINE
 8
TOOL_0
 5
190
 10
2263.206
 20
6.995
 30
0
 11
2204.994
 21
6.995
 31
0
 0
ARC
 8
TOOL_0
 5
191
 10
2205.022
 20
27.583
 30
0
 40
20.588019040209
 50
234.365268932507
 51
269.922076897356
210
0
220
0
230
1.0
 0
ARC
 8
TOOL_0
 5
192
 10
2210.773
 20
34.197
 30
0
 40
29.325806468024
 50
215.495887892338
 51
232.761619444092
210
0
220
0
230
1.0
 0
ARC
 8
TOOL_0
 5
193
 10
2133.629
 20
-27.474
 30
0
 40
69.501635038321
 50
39.965797844957
 51
88.246267223444
210
0
220
0
230
1.0
 0
LINE
 8
TOOL_0
 5
194
 10
2135.756
 20
41.995
 30
0
 11
2108.271
 21
41.995
 31
0
 0
ARC
 8
TOOL_0
 5
195
 10
2110.383
 20
-27.482
 30
0
 40
69.509093455461
 50
91.741172379534
 51
139.997385733126
210
0
220
0
230
1.0
 0
ARC
 8
TOOL_0
 5
196
 10
2033.219
 20
34.222
 30
0
 40
29.357572191856
 50
307.250869813267
 51
324.562374132182
210
0
220
0
230
1.0
 0
ARC
 8
TOOL_0
 5
197
 10
2038.989
 20
27.583
 30
0
 40
20.587846924824
 50
270.077923102645
 51
305.652526069449
210
0
220
0
230
1.0
 0
LINE
 8
TOOL_0
 5
198
 10
2039.017
 20
6.995
 30
0
 11
1980.805
 21
6.995
 31
0
 0
ARC
 8
TOOL_0
 5
199
 10
1980.805
 20
11.995
 30
0
 40
5.0
 50
180.0
 51
270.0
210
0
220
0
230
1.0
 0
LINE
 8
TOOL_0
 5
19A
 10
1975.805
 20
11.995
 30
0
 11
1975.805
 21
142.034
 31
0
 0
ARC
 8
TOOL_0
 5
19B
 10
1978.819
 20
142.022
 30
0
 40
3.014023888425
 50
97.339606280031
 51
179.771882640594
210
0
220
0
230
1.0
 0
ARC
 8
TOOL_0
 5
19C
 10
1977.505
 20
152.453
 30
0
 40
7.499760329504
 50
277.115540490308
 51
334.627299750044
210
0
220
0
230
1.0
 0
ARC
 8
TOOL_0
 5
19D
 10
1987.276
 20
147.616
 30
0
 40
3.405607875255
 50
78.482200075796
 51
151.538579919278
210
0
220
0
230
1.0
 0
LINE
 8
TOOL_0
 5
19E
 10
1987.956
 20
150.953
 30
0
 11
2008.122
 21
150.953
 31
0
 0
ARC
 8
TOOL_0
 5
19F
 10
2008.122
 20
175.453
 30
0
 40
24.5
 50
270.0
 51
320.000397492753
210
0
220
0
230
1.0
 0
LINE
 8
TOOL_0
 5
1A0
 10
2026.89
 20
159.705
 30
0
 11
2054.25
 21
192.311
 31
0
 0
ARC
 8
TOOL_0
 5
1A1
 10
2108.278
 20
146.947
 30
0
 40
70.547269826691
 50
90.017867621705
 51
139.981879748588
210
0
220
0
230
1.0
 0
LINE
 8
TOOL_0
 5
1A2
 10
2108.256
 20
217.494
 30
0
 11
2135.756
 21
217.494
 31
0
 0
ARC
 8
TOOL_0
 5
1A3
 10
2135.734
 20
146.947
 30
0
 40
70.547003430337
 50
40.018120251412
 51
89.982132378295
210
0
220
0
230
1.0
 0
LINE
 8
TOOL_0
 5
1A4
 10
2189.762
 20
192.311
 30
0
 11
2217.122
 21
159.705
 31
0
 0
ARC
 8
TOOL_0
 5
1A5
 10
2235.89
 20
175.453
 30
0
 40
24.49974138639
 50
219.999602507247
 51
270.0
210
0
220
0
230
1.0
 0
LINE
 8
TOOL_0
 5
1A6
 10
2235.89
 20
150.953
 30
0
 11
2257.019
 21
150.953
 31
0
 0
ARC
 8
TOOL_0
 5
1A7
 10
2256.878
 20
147.731
 30
0
 40
3.225083719844
 50
27.867725704439
 51
87.49424155673
210
0
220
0
230
1.0
 0
ARC
 8
TOOL_0
 5
1A8
 10
2266.506
 20
152.453
 30
0
 40
7.499598122566
 50
205.375973959937
 51
262.892040478315
210
0
220
0
230
1.0
 0
ARC
 8
TOOL_0
 5
1A9
 10
2265.193
 20
142.022
 30
0
 40
3.013693083245
 50
0.228117359406
 51
82.660393719965
210
0
220
0
230
1.0
 0
LINE
 8
TOOL_0
 5
1AA
 10
2268.207
 20
142.034
 30
0
 11
2268.207
 21
13.503
 31
0
 0
LINE
 8
TOOL_0
 5
1AB
 10
2268.207
 20
13.503
 30
0
 11
2270.687
 21
11.812
 31
0
 0
LINE
 8
TOOL_0
 5
1AC
 10
2270.687
 20
11.812
 30
0
 11
2274.223
 21
8.276
 31
0
 0
LINE
 8
TOOL_0
 5
1AD
 10
2274.223
 20
8.276
 30
0
 11
2238.486
 21
375.455
 31
0
 0
LINE
 8
TOOL_0
 5
1AE
 10
2238.486
 20
375.455
 30
0
 11
2255.376
 21
357.024
 31
0
 0
LINE
 8
TOOL_0
 5
1AF
 10
2255.376
 20
357.024
 30
0
 11
2256.876
 21
354.424
 31
0
 0
ARC
 8
TOOL_0
 5
1B0
 10
2256.735
 20
351.202
 30
0
 40
3.225083719844
 50
27.867725704438
 51
87.49424155673
210
0
220
0
230
1.0
 0
ARC
 8
TOOL_0
 5
1B1
 10
2266.363
 20
355.924
 30
0
 40
7.499598122566
 50
205.375973959937
 51
262.892040478315
210
0
220
0
230
1.0
 0
ARC
 8
TOOL_0
 5
1B2
 10
2265.05
 20
345.493
 30
0
 40
3.013693083245
 50
0.228117359406
 51
82.660393719965
210
0
220
0
230
1.0
 0
LINE
 8
TOOL_0
 5
1B3
 10
2268.064
 20
345.505
 30
0
 11
2268.064
 21
215.466
 31
0
 0
ARC
 8
TOOL_0
 5
1B4
 10
2263.064
 20
215.466
 30
0
 40
5.0
 50
270.0
 51
0
210
0
220
0
230
1.0
 0
LINE
 8
TOOL_0
 5
1B5
 10
2263.064
 20
210.466
 30
0
 11
2204.852
 21
210.466
 31
0
 0
ARC
 8
TOOL_0
 5
1B6
 10
2204.88
 20
231.054
 30
0
 40
20.588019040209
 50
234.365268932507
 51
269.922076897356
210
0
220
0
230
1.0
 0
ARC
 8
TOOL_0
 5
1B7
 10
2210.631
 20
237.668
 30
0
 40
29.325806468024
 50
215.495887892338
 51
232.761619444092
210
0
220
0
230
1.0
 0
ARC
 8
TOOL_0
 5
1B8
 10
2133.487
 20
175.997
 30
0
 40
69.501635038321
 50
39.965797844957
 51
88.246267223444
210
0
220
0
230
1.0
 0
LINE
 8
TOOL_0
 5
1B9
 10
2135.614
 20
245.466
 30
0
 11
2108.129
 21
245.466
 31
0
 0
ARC
 8
TOOL_0
 5
1BA
 10
2110.241
 20
175.989
 30
0
 40
69.509093455461
 50
91.741172379534
 51
139.997385733126
210
0
220
0
230
1.0
 0
ARC
 8
TOOL_0
 5
1BB
 10
2033.077
 20
237.693
 30
0
 40
29.357572191855
 50
307.250869813267
 51
324.562374132182
210
0
220
0
230
1.0
 0
ARC
 8
TOOL_0
 5
1BC
 10
2038.847
 20
231.054
 30
0
 40
20.587846924824
 50
270.077923102645
 51
305.652526069449
210
0
220
0
230
1.0
 0
LINE
 8
TOOL_0
 5
1BD
 10
2038.875
 20
210.466
 30
0
 11
1980.663
 21
210.466
 31
0
 0
ARC
 8
TOOL_0
 5
1BE
 10
1980.663
 20
215.466
 30
0
 40
5.0
 50
180.0
 51
270.0
210
0
220
0
230
1.0
 0
LINE
 8
TOOL_0
 5
1BF
 10
1975.663
 20
215.466
 30
0
 11
1975.663
 21
345.505
 31
0
 0
ARC
 8
TOOL_0
 5
1C0
 10
1978.677
 20
345.493
 30
0
 40
3.014023888425
 50
97.339606280031
 51
179.771882640594
210
0
220
0
230
1.0
 0
ARC
 8
TOOL_0
 5
1C1
 10
1977.363
 20
355.924
 30
0
 40
7.499760329504
 50
277.115540490308
 51
334.627299750044
210
0
220
0
230
1.0
 0
ARC
 8
TOOL_0
 5
1C2
 10
1987.134
 20
351.087
 30
0
 40
3.405607875255
 50
78.482200075796
 51
151.538579919278
210
0
220
0
230
1.0
 0
LINE
 8
TOOL_0
 5
1C3
 10
1987.814
 20
354.424
 30
0
 11
2007.98
 21
354.424
 31
0
 0
ARC
 8
TOOL_0
 5
1C4
 10
2007.98
 20
378.924
 30
0
 40
24.5
 50
270.0
 51
320.000397492753
210
0
220
0
230
1.0
 0
LINE
 8
TOOL_0
 5
1C5
 10
2026.748
 20
363.176
 30
0
 11
2054.108
 21
395.782
 31
0
 0
ARC
 8
TOOL_0
 5
1C6
 10
2108.136
 20
350.418
 30
0
 40
70.547269826691
 50
90.017867621705
 51
139.981879748588
210
0
220
0
230
1.0
 0
LINE
 8
TOOL_0
 5
1C7
 10
2108.114
 20
420.965
 30
0
 11
2135.614
 21
420.965
 31
0
 0
ARC
 8
TOOL_0
 5
1C8
 10
2135.592
 20
350.418
 30
0
 40
70.547003430337
 50
40.018120251412
 51
89.982132378295
210
0
220
0
230
1.0
 0
LINE
 8
TOOL_0
 5
1C9
 10
2189.62
 20
395.782
 30
0
 11
2216.98
 21
363.176
 31
0
 0
ARC
 8
TOOL_0
 5
1CA
 10
2235.748
 20
378.924
 30
0
 40
24.49974138639
 50
219.999602507247
 51
270.0
210
0
220
0
230
1.0
 0
LINE
 8
TOOL_0
 5
1CB
 10
2235.748
 20
354.424
 30
0
 11
2253.877
 21
354.424
 31
0
 0
LINE
 8
TOOL_0
 5
1CC
 10
2253.877
 20
354.424
 30
0
 11
2255.377
 21
357.024
 31
0
 0
LINE
 8
TOOL_0
 5
1CD
 10
2255.377
 20
357.024
 30
0
 11
2259.063
 21
360.402
 31
0
 0
ENDSEC
 0
EOF

