0
SECTION
2
TABLES
0
TABLE
2
LAYER
70
0
0
LAYER
2
LAYER_NAME
70
0
62
1
6
CONTINUOUS
0
ENDTAB
0
ENDSEC
 0
SECTION
 2
ENTITIES
 0
LINE
 8
TOOL_0
 5
1
 10
2220.0
 20
940.149
 30
0
 11
2220.0
 21
913.001
 31
0
 0
LINE
 8
TOOL_0
 5
2
 10
2220.0
 20
913.001
 30
0
 11
2220.0
 21
58.001
 31
0
 0
LINE
 8
TOOL_0
 5
3
 10
2220.0
 20
58.001
 30
0
 11
2170.0
 21
58.001
 31
0
 0
ARC
 8
TOOL_0
 5
4
 10
2170.0
 20
53.001
 30
0
 40
5.0
 50
90.0
 51
180.0
210
0
220
0
230
1.0
 0
LINE
 8
TOOL_0
 5
5
 10
2165.0
 20
53.001
 30
0
 11
2165.0
 21
8.001
 31
0
 0
LINE
 8
TOOL_0
 5
6
 10
2165.0
 20
8.001
 30
0
 11
63.0
 21
8.001
 31
0
 0
LINE
 8
TOOL_0
 5
7
 10
63.0
 20
8.001
 30
0
 11
63.0
 21
70.501
 31
0
 0
ARC
 8
TOOL_0
 5
8
 10
50.5
 20
70.501
 30
0
 40
12.5
 50
0
 51
180.0
210
0
220
0
230
1.0
 0
LINE
 8
TOOL_0
 5
9
 10
38.0
 20
70.501
 30
0
 11
38.0
 21
58.001
 31
0
 0
LINE
 8
TOOL_0
 5
A
 10
38.0
 20
58.001
 30
0
 11
8.0
 21
58.001
 31
0
 0
LINE
 8
TOOL_0
 5
B
 10
8.0
 20
58.001
 30
0
 11
8.0
 21
913.001
 31
0
 0
LINE
 8
TOOL_0
 5
C
 10
8.0
 20
913.001
 30
0
 11
2220.0
 21
913.001
 31
0
 0
LINE
 8
TOOL_0
 5
D
 10
2220.0
 20
913.001
 30
0
 11
2224.988
 21
913.001
 31
0
 0
LINE
 8
TOOL_0
 5
E
 10
2224.988
 20
913.001
 30
0
 11
4457.612
 21
940.149
 31
0
 0
LINE
 8
TOOL_0
 5
F
 10
4457.612
 20
940.149
 30
0
 11
4457.612
 21
913.001
 31
0
 0
LINE
 8
TOOL_0
 5
10
 10
4457.612
 20
913.001
 30
0
 11
4457.612
 21
58.001
 31
0
 0
LINE
 8
TOOL_0
 5
11
 10
4457.612
 20
58.001
 30
0
 11
4407.612
 21
58.001
 31
0
 0
ARC
 8
TOOL_0
 5
12
 10
4407.612
 20
53.001
 30
0
 40
5.0
 50
90.0
 51
180.0
210
0
220
0
230
1.0
 0
LINE
 8
TOOL_0
 5
13
 10
4402.612
 20
53.001
 30
0
 11
4402.612
 21
8.001
 31
0
 0
LINE
 8
TOOL_0
 5
14
 10
4402.612
 20
8.001
 30
0
 11
2300.612
 21
8.001
 31
0
 0
LINE
 8
TOOL_0
 5
15
 10
2300.612
 20
8.001
 30
0
 11
2300.612
 21
70.501
 31
0
 0
ARC
 8
TOOL_0
 5
16
 10
2288.112
 20
70.501
 30
0
 40
12.5
 50
0
 51
180.0
210
0
220
0
230
1.0
 0
LINE
 8
TOOL_0
 5
17
 10
2275.612
 20
70.501
 30
0
 11
2275.612
 21
58.001
 31
0
 0
LINE
 8
TOOL_0
 5
18
 10
2275.612
 20
58.001
 30
0
 11
2245.612
 21
58.001
 31
0
 0
LINE
 8
TOOL_0
 5
19
 10
2245.612
 20
58.001
 30
0
 11
2245.612
 21
913.001
 31
0
 0
LINE
 8
TOOL_0
 5
1A
 10
2245.612
 20
913.001
 30
0
 11
4457.612
 21
913.001
 31
0
 0
LINE
 8
TOOL_0
 5
1B
 10
4457.612
 20
913.001
 30
0
 11
4462.6
 21
913.001
 31
0
 0
LINE
 8
TOOL_0
 5
1C
 10
4462.6
 20
913.001
 30
0
 11
2245.613
 21
971.386
 31
0
 0
LINE
 8
TOOL_0
 5
1D
 10
2245.613
 20
971.386
 30
0
 11
2245.613
 21
988.069
 31
0
 0
LINE
 8
TOOL_0
 5
1E
 10
2245.613
 20
988.069
 30
0
 11
2245.613
 21
1843.069
 31
0
 0
LINE
 8
TOOL_0
 5
1F
 10
2245.613
 20
1843.069
 30
0
 11
4457.613
 21
1843.069
 31
0
 0
LINE
 8
TOOL_0
 5
20
 10
4457.613
 20
1843.069
 30
0
 11
4457.613
 21
988.069
 31
0
 0
LINE
 8
TOOL_0
 5
21
 10
4457.613
 20
988.069
 30
0
 11
4407.613
 21
988.069
 31
0
 0
ARC
 8
TOOL_0
 5
22
 10
4407.613
 20
983.069
 30
0
 40
5.0
 50
90.0
 51
180.0
210
0
220
0
230
1.0
 0
LINE
 8
TOOL_0
 5
23
 10
4402.613
 20
983.069
 30
0
 11
4402.613
 21
938.069
 31
0
 0
LINE
 8
TOOL_0
 5
24
 10
4402.613
 20
938.069
 30
0
 11
2300.613
 21
938.069
 31
0
 0
LINE
 8
TOOL_0
 5
25
 10
2300.613
 20
938.069
 30
0
 11
2300.613
 21
1000.569
 31
0
 0
ARC
 8
TOOL_0
 5
26
 10
2288.113
 20
1000.569
 30
0
 40
12.5
 50
0
 51
180.0
210
0
220
0
230
1.0
 0
LINE
 8
TOOL_0
 5
27
 10
2275.613
 20
1000.569
 30
0
 11
2275.613
 21
988.069
 31
0
 0
LINE
 8
TOOL_0
 5
28
 10
2275.613
 20
988.069
 30
0
 11
2245.613
 21
988.069
 31
0
 0
LINE
 8
TOOL_0
 5
29
 10
2245.613
 20
988.069
 30
0
 11
2239.016
 21
988.069
 31
0
 0
LINE
 8
TOOL_0
 5
2A
 10
2239.016
 20
988.069
 30
0
 11
2182.509
 21
938.063
 31
0
 0
LINE
 8
TOOL_0
 5
2B
 10
2182.509
 20
938.063
 30
0
 11
2165.001
 21
938.063
 31
0
 0
LINE
 8
TOOL_0
 5
2C
 10
2165.001
 20
938.063
 30
0
 11
63.001
 21
938.063
 31
0
 0
LINE
 8
TOOL_0
 5
2D
 10
63.001
 20
938.063
 30
0
 11
63.001
 21
1000.563
 31
0
 0
ARC
 8
TOOL_0
 5
2E
 10
50.501
 20
1000.563
 30
0
 40
12.5
 50
0
 51
180.0
210
0
220
0
230
1.0
 0
LINE
 8
TOOL_0
 5
2F
 10
38.001
 20
1000.563
 30
0
 11
38.001
 21
988.063
 31
0
 0
LINE
 8
TOOL_0
 5
30
 10
38.001
 20
988.063
 30
0
 11
8.001
 21
988.063
 31
0
 0
LINE
 8
TOOL_0
 5
31
 10
8.001
 20
988.063
 30
0
 11
8.001
 21
1843.063
 31
0
 0
LINE
 8
TOOL_0
 5
32
 10
8.001
 20
1843.063
 30
0
 11
2220.001
 21
1843.063
 31
0
 0
LINE
 8
TOOL_0
 5
33
 10
2220.001
 20
1843.063
 30
0
 11
2220.001
 21
988.063
 31
0
 0
LINE
 8
TOOL_0
 5
34
 10
2220.001
 20
988.063
 30
0
 11
2170.001
 21
988.063
 31
0
 0
ARC
 8
TOOL_0
 5
35
 10
2170.001
 20
983.063
 30
0
 40
5.0
 50
90.0
 51
180.0
210
0
220
0
230
1.0
 0
LINE
 8
TOOL_0
 5
36
 10
2165.001
 20
983.063
 30
0
 11
2165.001
 21
938.063
 31
0
 0
LINE
 8
TOOL_0
 5
37
 10
2165.001
 20
938.063
 30
0
 11
2165.001
 21
932.919
 31
0
 0
ENDSEC
 0
EOF

