0
SECTION
2
TABLES
0
TABLE
2
LAYER
70
0
0
LAYER
2
LAYER_NAME
70
0
62
1
6
CONTINUOUS
0
ENDTAB
0
ENDSEC
 0
SECTION
 2
ENTITIES
 0
LINE
 8
TOOL_0
 5
1
 10
2713.467
 20
15.001
 30
0
 11
2682.5
 21
15.001
 31
0
 0
LINE
 8
TOOL_0
 5
2
 10
2682.5
 20
15.001
 30
0
 11
70.0
 21
15.001
 31
0
 0
LINE
 8
TOOL_0
 5
3
 10
70.0
 20
15.001
 30
0
 11
70.0
 21
77.501
 31
0
 0
ARC
 8
TOOL_0
 5
4
 10
58.75
 20
77.501
 30
0
 40
11.25
 50
0
 51
180.0
210
0
220
0
230
1.0
 0
LINE
 8
TOOL_0
 5
5
 10
47.5
 20
77.501
 30
0
 11
47.5
 21
63.751
 31
0
 0
LINE
 8
TOOL_0
 5
6
 10
47.5
 20
63.751
 30
0
 11
15.0
 21
63.751
 31
0
 0
LINE
 8
TOOL_0
 5
7
 10
15.0
 20
63.751
 30
0
 11
15.0
 21
919.001
 31
0
 0
LINE
 8
TOOL_0
 5
8
 10
15.0
 20
919.001
 30
0
 11
2737.5
 21
919.001
 31
0
 0
LINE
 8
TOOL_0
 5
9
 10
2737.5
 20
919.001
 30
0
 11
2737.5
 21
63.751
 31
0
 0
LINE
 8
TOOL_0
 5
A
 10
2737.5
 20
63.751
 30
0
 11
2705.0
 21
63.751
 31
0
 0
LINE
 8
TOOL_0
 5
B
 10
2705.0
 20
63.751
 30
0
 11
2705.0
 21
77.501
 31
0
 0
ARC
 8
TOOL_0
 5
C
 10
2693.75
 20
77.501
 30
0
 40
11.25
 50
0
 51
180.0
210
0
220
0
230
1.0
 0
LINE
 8
TOOL_0
 5
D
 10
2682.5
 20
77.501
 30
0
 11
2682.5
 21
15.001
 31
0
 0
LINE
 8
TOOL_0
 5
E
 10
2682.5
 20
15.001
 30
0
 11
2682.5
 21
9.66
 31
0
 0
LINE
 8
TOOL_0
 5
F
 10
2682.5
 20
9.66
 30
0
 11
2713.467
 21
939.103
 31
0
 0
LINE
 8
TOOL_0
 5
10
 10
2713.467
 20
939.103
 30
0
 11
2682.5
 21
939.103
 31
0
 0
LINE
 8
TOOL_0
 5
11
 10
2682.5
 20
939.103
 30
0
 11
70.0
 21
939.103
 31
0
 0
LINE
 8
TOOL_0
 5
12
 10
70.0
 20
939.103
 30
0
 11
70.0
 21
1001.603
 31
0
 0
ARC
 8
TOOL_0
 5
13
 10
58.75
 20
1001.603
 30
0
 40
11.25
 50
0
 51
180.0
210
0
220
0
230
1.0
 0
LINE
 8
TOOL_0
 5
14
 10
47.5
 20
1001.603
 30
0
 11
47.5
 21
987.853
 31
0
 0
LINE
 8
TOOL_0
 5
15
 10
47.5
 20
987.853
 30
0
 11
15.0
 21
987.853
 31
0
 0
LINE
 8
TOOL_0
 5
16
 10
15.0
 20
987.853
 30
0
 11
15.0
 21
1843.103
 31
0
 0
LINE
 8
TOOL_0
 5
17
 10
15.0
 20
1843.103
 30
0
 11
2737.5
 21
1843.103
 31
0
 0
LINE
 8
TOOL_0
 5
18
 10
2737.5
 20
1843.103
 30
0
 11
2737.5
 21
987.853
 31
0
 0
LINE
 8
TOOL_0
 5
19
 10
2737.5
 20
987.853
 30
0
 11
2705.0
 21
987.853
 31
0
 0
LINE
 8
TOOL_0
 5
1A
 10
2705.0
 20
987.853
 30
0
 11
2705.0
 21
1001.603
 31
0
 0
ARC
 8
TOOL_0
 5
1B
 10
2693.75
 20
1001.603
 30
0
 40
11.25
 50
0
 51
180.0
210
0
220
0
230
1.0
 0
LINE
 8
TOOL_0
 5
1C
 10
2682.5
 20
1001.603
 30
0
 11
2682.5
 21
939.103
 31
0
 0
LINE
 8
TOOL_0
 5
1D
 10
2682.5
 20
939.103
 30
0
 11
2682.5
 21
933.762
 31
0
 0
LINE
 8
TOOL_0
 5
1E
 10
2682.5
 20
933.762
 30
0
 11
5456.023
 21
15.002
 31
0
 0
LINE
 8
TOOL_0
 5
1F
 10
5456.023
 20
15.002
 30
0
 11
5425.056
 21
15.002
 31
0
 0
LINE
 8
TOOL_0
 5
20
 10
5425.056
 20
15.002
 30
0
 11
2812.556
 21
15.002
 31
0
 0
LINE
 8
TOOL_0
 5
21
 10
2812.556
 20
15.002
 30
0
 11
2812.556
 21
77.502
 31
0
 0
ARC
 8
TOOL_0
 5
22
 10
2801.306
 20
77.502
 30
0
 40
11.25
 50
0
 51
180.0
210
0
220
0
230
1.0
 0
LINE
 8
TOOL_0
 5
23
 10
2790.056
 20
77.502
 30
0
 11
2790.056
 21
63.752
 31
0
 0
LINE
 8
TOOL_0
 5
24
 10
2790.056
 20
63.752
 30
0
 11
2757.556
 21
63.752
 31
0
 0
LINE
 8
TOOL_0
 5
25
 10
2757.556
 20
63.752
 30
0
 11
2757.556
 21
919.002
 31
0
 0
LINE
 8
TOOL_0
 5
26
 10
2757.556
 20
919.002
 30
0
 11
5480.056
 21
919.002
 31
0
 0
LINE
 8
TOOL_0
 5
27
 10
5480.056
 20
919.002
 30
0
 11
5480.056
 21
63.752
 31
0
 0
LINE
 8
TOOL_0
 5
28
 10
5480.056
 20
63.752
 30
0
 11
5447.556
 21
63.752
 31
0
 0
LINE
 8
TOOL_0
 5
29
 10
5447.556
 20
63.752
 30
0
 11
5447.556
 21
77.502
 31
0
 0
ARC
 8
TOOL_0
 5
2A
 10
5436.306
 20
77.502
 30
0
 40
11.25
 50
0
 51
180.0
210
0
220
0
230
1.0
 0
LINE
 8
TOOL_0
 5
2B
 10
5425.056
 20
77.502
 30
0
 11
5425.056
 21
15.002
 31
0
 0
LINE
 8
TOOL_0
 5
2C
 10
5425.056
 20
15.002
 30
0
 11
5425.056
 21
9.661
 31
0
 0
LINE
 8
TOOL_0
 5
2D
 10
5425.056
 20
9.661
 30
0
 11
5457.235
 21
939.052
 31
0
 0
LINE
 8
TOOL_0
 5
2E
 10
5457.235
 20
939.052
 30
0
 11
5425.585
 21
939.052
 31
0
 0
LINE
 8
TOOL_0
 5
2F
 10
5425.585
 20
939.052
 30
0
 11
2812.585
 21
939.052
 31
0
 0
LINE
 8
TOOL_0
 5
30
 10
2812.585
 20
939.052
 30
0
 11
2812.585
 21
1001.552
 31
0
 0
ARC
 8
TOOL_0
 5
31
 10
2800.085
 20
1001.552
 30
0
 40
12.5
 50
0
 51
180.0
210
0
220
0
230
1.0
 0
LINE
 8
TOOL_0
 5
32
 10
2787.585
 20
1001.552
 30
0
 11
2787.585
 21
989.052
 31
0
 0
LINE
 8
TOOL_0
 5
33
 10
2787.585
 20
989.052
 30
0
 11
2757.585
 21
989.052
 31
0
 0
LINE
 8
TOOL_0
 5
34
 10
2757.585
 20
989.052
 30
0
 11
2757.585
 21
1844.052
 31
0
 0
LINE
 8
TOOL_0
 5
35
 10
2757.585
 20
1844.052
 30
0
 11
5480.585
 21
1844.052
 31
0
 0
LINE
 8
TOOL_0
 5
36
 10
5480.585
 20
1844.052
 30
0
 11
5480.585
 21
989.052
 31
0
 0
LINE
 8
TOOL_0
 5
37
 10
5480.585
 20
989.052
 30
0
 11
5430.585
 21
989.052
 31
0
 0
ARC
 8
TOOL_0
 5
38
 10
5430.585
 20
984.052
 30
0
 40
5.0
 50
90.0
 51
180.0
210
0
220
0
230
1.0
 0
LINE
 8
TOOL_0
 5
39
 10
5425.585
 20
984.052
 30
0
 11
5425.585
 21
939.052
 31
0
 0
LINE
 8
TOOL_0
 5
3A
 10
5425.585
 20
939.052
 30
0
 11
5425.585
 21
933.937
 31
0
 0
ENDSEC
 0
EOF

