0
SECTION
2
TABLES
0
TABLE
2
LAYER
70
0
0
LAYER
2
LAYER_NAME
70
0
62
1
6
CONTINUOUS
0
ENDTAB
0
ENDSEC
 0
SECTION
 2
ENTITIES
 0
LINE
 8
TOOL_0
 5
1
 10
708.124
 20
258.732
 30
0
 11
679.026
 21
258.732
 31
0
 0
LINE
 8
TOOL_0
 5
2
 10
679.026
 20
258.732
 30
0
 11
609.026
 21
258.732
 31
0
 0
LINE
 8
TOOL_0
 5
3
 10
609.026
 20
258.732
 30
0
 11
609.026
 21
458.732
 31
0
 0
LINE
 8
TOOL_0
 5
4
 10
609.026
 20
458.732
 30
0
 11
679.026
 21
458.732
 31
0
 0
LINE
 8
TOOL_0
 5
5
 10
679.026
 20
458.732
 30
0
 11
679.026
 21
258.732
 31
0
 0
LINE
 8
TOOL_0
 5
6
 10
679.026
 20
258.732
 30
0
 11
679.026
 21
254.79
 31
0
 0
LINE
 8
TOOL_0
 5
7
 10
679.026
 20
254.79
 30
0
 11
811.75
 21
368.251
 31
0
 0
LINE
 8
TOOL_0
 5
8
 10
811.75
 20
368.251
 30
0
 11
846.75
 21
368.251
 31
0
 0
LINE
 8
TOOL_0
 5
9
 10
846.75
 20
368.251
 30
0
 11
846.75
 21
525.751
 31
0
 0
ARC
 8
TOOL_0
 5
A
 10
806.75
 20
525.751
 30
0
 40
40.0
 50
0
 51
90.0
210
0
220
0
230
1.0
 0
LINE
 8
TOOL_0
 5
B
 10
806.75
 20
565.751
 30
0
 11
505.75
 21
565.751
 31
0
 0
ARC
 8
TOOL_0
 5
C
 10
505.75
 20
545.751
 30
0
 40
20.0
 50
90.0
 51
180.0
210
0
220
0
230
1.0
 0
LINE
 8
TOOL_0
 5
D
 10
485.75
 20
545.751
 30
0
 11
485.75
 21
470.751
 31
0
 0
ARC
 8
TOOL_0
 5
E
 10
465.75
 20
470.751
 30
0
 40
20.0
 50
270.0
 51
0
210
0
220
0
230
1.0
 0
LINE
 8
TOOL_0
 5
F
 10
465.75
 20
450.751
 30
0
 11
295.75
 21
450.751
 31
0
 0
ARC
 8
TOOL_0
 5
10
 10
295.75
 20
410.751
 30
0
 40
40.0
 50
90.0
 51
180.0
210
0
220
0
230
1.0
 0
LINE
 8
TOOL_0
 5
11
 10
255.75
 20
410.751
 30
0
 11
255.75
 21
210.751
 31
0
 0
ARC
 8
TOOL_0
 5
12
 10
295.75
 20
210.751
 30
0
 40
40.0
 50
180.0
 51
270.0
210
0
220
0
230
1.0
 0
LINE
 8
TOOL_0
 5
13
 10
295.75
 20
170.751
 30
0
 11
806.75
 21
170.751
 31
0
 0
ARC
 8
TOOL_0
 5
14
 10
806.75
 20
210.751
 30
0
 40
40.0
 50
270.0
 51
0
210
0
220
0
230
1.0
 0
LINE
 8
TOOL_0
 5
15
 10
846.75
 20
210.751
 30
0
 11
846.75
 21
368.251
 31
0
 0
LINE
 8
TOOL_0
 5
16
 10
846.75
 20
368.251
 30
0
 11
843.214
 21
371.787
 31
0
 0
LINE
 8
TOOL_0
 5
17
 10
843.214
 20
371.787
 30
0
 11
1520.75
 21
345.751
 31
0
 0
LINE
 8
TOOL_0
 5
18
 10
1520.75
 20
345.751
 30
0
 11
1555.75
 21
345.751
 31
0
 0
LINE
 8
TOOL_0
 5
19
 10
1555.75
 20
345.751
 30
0
 11
1555.75
 21
480.751
 31
0
 0
ARC
 8
TOOL_0
 5
1A
 10
1515.75
 20
480.751
 30
0
 40
40.0
 50
0
 51
90.0
210
0
220
0
230
1.0
 0
LINE
 8
TOOL_0
 5
1B
 10
1515.75
 20
520.751
 30
0
 11
1270.75
 21
520.751
 31
0
 0
ARC
 8
TOOL_0
 5
1C
 10
1270.75
 20
500.751
 30
0
 40
20.0
 50
90.0
 51
180.0
210
0
220
0
230
1.0
 0
LINE
 8
TOOL_0
 5
1D
 10
1250.75
 20
500.751
 30
0
 11
1250.75
 21
470.751
 31
0
 0
ARC
 8
TOOL_0
 5
1E
 10
1230.75
 20
470.751
 30
0
 40
20.0
 50
270.0
 51
0
210
0
220
0
230
1.0
 0
LINE
 8
TOOL_0
 5
1F
 10
1230.75
 20
450.751
 30
0
 11
1026.75
 21
450.751
 31
0
 0
ARC
 8
TOOL_0
 5
20
 10
1026.75
 20
410.751
 30
0
 40
40.0
 50
90.0
 51
180.0
210
0
220
0
230
1.0
 0
LINE
 8
TOOL_0
 5
21
 10
986.75
 20
410.751
 30
0
 11
986.75
 21
210.751
 31
0
 0
ARC
 8
TOOL_0
 5
22
 10
1026.75
 20
210.751
 30
0
 40
40.0
 50
180.0
 51
270.0
210
0
220
0
230
1.0
 0
LINE
 8
TOOL_0
 5
23
 10
1026.75
 20
170.751
 30
0
 11
1515.75
 21
170.751
 31
0
 0
ARC
 8
TOOL_0
 5
24
 10
1515.75
 20
210.751
 30
0
 40
40.0
 50
270.0
 51
0
210
0
220
0
230
1.0
 0
LINE
 8
TOOL_0
 5
25
 10
1555.75
 20
210.751
 30
0
 11
1555.75
 21
345.751
 31
0
 0
LINE
 8
TOOL_0
 5
26
 10
1555.75
 20
345.751
 30
0
 11
1552.214
 21
349.287
 31
0
 0
LINE
 8
TOOL_0
 5
27
 10
1552.214
 20
349.287
 30
0
 11
1955.75
 21
345.751
 31
0
 0
LINE
 8
TOOL_0
 5
28
 10
1955.75
 20
345.751
 30
0
 11
1990.75
 21
345.751
 31
0
 0
LINE
 8
TOOL_0
 5
29
 10
1990.75
 20
345.751
 30
0
 11
1990.75
 21
480.751
 31
0
 0
ARC
 8
TOOL_0
 5
2A
 10
1950.75
 20
480.751
 30
0
 40
40.0
 50
0
 51
90.0
210
0
220
0
230
1.0
 0
LINE
 8
TOOL_0
 5
2B
 10
1950.75
 20
520.751
 30
0
 11
1735.75
 21
520.751
 31
0
 0
ARC
 8
TOOL_0
 5
2C
 10
1735.75
 20
480.751
 30
0
 40
40.0
 50
90.0
 51
180.0
210
0
220
0
230
1.0
 0
LINE
 8
TOOL_0
 5
2D
 10
1695.75
 20
480.751
 30
0
 11
1695.75
 21
210.751
 31
0
 0
ARC
 8
TOOL_0
 5
2E
 10
1735.75
 20
210.751
 30
0
 40
40.0
 50
180.0
 51
270.0
210
0
220
0
230
1.0
 0
LINE
 8
TOOL_0
 5
2F
 10
1735.75
 20
170.751
 30
0
 11
1950.75
 21
170.751
 31
0
 0
ARC
 8
TOOL_0
 5
30
 10
1950.75
 20
210.751
 30
0
 40
40.0
 50
270.0
 51
0
210
0
220
0
230
1.0
 0
LINE
 8
TOOL_0
 5
31
 10
1990.75
 20
210.751
 30
0
 11
1990.75
 21
345.751
 31
0
 0
LINE
 8
TOOL_0
 5
32
 10
1990.75
 20
345.751
 30
0
 11
1987.214
 21
349.287
 31
0
 0
LINE
 8
TOOL_0
 5
33
 10
1987.214
 20
349.287
 30
0
 11
2655.75
 21
308.362
 31
0
 0
LINE
 8
TOOL_0
 5
34
 10
2655.75
 20
308.362
 30
0
 11
2690.75
 21
308.362
 31
0
 0
LINE
 8
TOOL_0
 5
35
 10
2690.75
 20
308.362
 30
0
 11
2690.75
 21
405.973
 31
0
 0
ARC
 8
TOOL_0
 5
36
 10
2650.75
 20
405.973
 30
0
 40
40.0
 50
0
 51
82.010075978474
210
0
220
0
230
1.0
 0
LINE
 8
TOOL_0
 5
37
 10
2656.31
 20
445.585
 30
0
 11
2273.53
 21
499.308
 31
0
 0
ARC
 8
TOOL_0
 5
38
 10
2270.75
 20
479.502
 30
0
 40
20.000150899431
 50
82.010075978473
 51
180.0
210
0
220
0
230
1.0
 0
LINE
 8
TOOL_0
 5
39
 10
2250.75
 20
479.502
 30
0
 11
2250.75
 21
470.751
 31
0
 0
ARC
 8
TOOL_0
 5
3A
 10
2230.75
 20
470.751
 30
0
 40
20.0
 50
270.0
 51
0
210
0
220
0
230
1.0
 0
LINE
 8
TOOL_0
 5
3B
 10
2230.75
 20
450.751
 30
0
 11
2160.75
 21
450.751
 31
0
 0
ARC
 8
TOOL_0
 5
3C
 10
2160.75
 20
410.751
 30
0
 40
40.0
 50
90.0
 51
180.0
210
0
220
0
230
1.0
 0
LINE
 8
TOOL_0
 5
3D
 10
2120.75
 20
410.751
 30
0
 11
2120.75
 21
210.751
 31
0
 0
ARC
 8
TOOL_0
 5
3E
 10
2160.75
 20
210.751
 30
0
 40
40.0
 50
180.0
 51
270.0
210
0
220
0
230
1.0
 0
LINE
 8
TOOL_0
 5
3F
 10
2160.75
 20
170.751
 30
0
 11
2650.75
 21
170.751
 31
0
 0
ARC
 8
TOOL_0
 5
40
 10
2650.75
 20
210.751
 30
0
 40
40.0
 50
270.0
 51
0
210
0
220
0
230
1.0
 0
LINE
 8
TOOL_0
 5
41
 10
2690.75
 20
210.751
 30
0
 11
2690.75
 21
308.362
 31
0
 0
LINE
 8
TOOL_0
 5
42
 10
2690.75
 20
308.362
 30
0
 11
2687.214
 21
311.898
 31
0
 0
LINE
 8
TOOL_0
 5
43
 10
2687.214
 20
311.898
 30
0
 11
3577.75
 21
300.751
 31
0
 0
LINE
 8
TOOL_0
 5
44
 10
3577.75
 20
300.751
 30
0
 11
3612.75
 21
300.751
 31
0
 0
LINE
 8
TOOL_0
 5
45
 10
3612.75
 20
300.751
 30
0
 11
3612.75
 21
450.751
 31
0
 0
ARC
 8
TOOL_0
 5
46
 10
3562.75
 20
450.751
 30
0
 40
50.0
 50
0
 51
90.0
210
0
220
0
230
1.0
 0
LINE
 8
TOOL_0
 5
47
 10
3562.75
 20
500.751
 30
0
 11
3292.75
 21
500.751
 31
0
 0
ARC
 8
TOOL_0
 5
48
 10
3292.75
 20
450.751
 30
0
 40
50.0
 50
90.0
 51
180.0
210
0
220
0
230
1.0
 0
LINE
 8
TOOL_0
 5
49
 10
3242.75
 20
450.751
 30
0
 11
3242.75
 21
150.751
 31
0
 0
ARC
 8
TOOL_0
 5
4A
 10
3292.75
 20
150.751
 30
0
 40
50.0
 50
180.0
 51
270.0
210
0
220
0
230
1.0
 0
LINE
 8
TOOL_0
 5
4B
 10
3292.75
 20
100.751
 30
0
 11
3562.75
 21
100.751
 31
0
 0
ARC
 8
TOOL_0
 5
4C
 10
3562.75
 20
150.751
 30
0
 40
50.0
 50
270.0
 51
0
210
0
220
0
230
1.0
 0
LINE
 8
TOOL_0
 5
4D
 10
3612.75
 20
150.751
 30
0
 11
3612.75
 21
300.751
 31
0
 0
LINE
 8
TOOL_0
 5
4E
 10
3612.75
 20
300.751
 30
0
 11
3609.214
 21
304.287
 31
0
 0
LINE
 8
TOOL_0
 5
4F
 10
3609.214
 20
304.287
 30
0
 11
4110.75
 21
383.251
 31
0
 0
LINE
 8
TOOL_0
 5
50
 10
4110.75
 20
383.251
 30
0
 11
4145.75
 21
383.251
 31
0
 0
LINE
 8
TOOL_0
 5
51
 10
4145.75
 20
383.251
 30
0
 11
4145.75
 21
570.751
 31
0
 0
ARC
 8
TOOL_0
 5
52
 10
4095.75
 20
570.751
 30
0
 40
50.0
 50
0
 51
90.0
210
0
220
0
230
1.0
 0
LINE
 8
TOOL_0
 5
53
 10
4095.75
 20
620.751
 30
0
 11
3845.75
 21
620.751
 31
0
 0
ARC
 8
TOOL_0
 5
54
 10
3845.75
 20
570.751
 30
0
 40
50.0
 50
90.0
 51
180.0
210
0
220
0
230
1.0
 0
LINE
 8
TOOL_0
 5
55
 10
3795.75
 20
570.751
 30
0
 11
3795.75
 21
195.751
 31
0
 0
ARC
 8
TOOL_0
 5
56
 10
3845.75
 20
195.751
 30
0
 40
50.0
 50
180.0
 51
270.0
210
0
220
0
230
1.0
 0
LINE
 8
TOOL_0
 5
57
 10
3845.75
 20
145.751
 30
0
 11
4095.75
 21
145.751
 31
0
 0
ARC
 8
TOOL_0
 5
58
 10
4095.75
 20
195.751
 30
0
 40
50.0
 50
270.0
 51
0
210
0
220
0
230
1.0
 0
LINE
 8
TOOL_0
 5
59
 10
4145.75
 20
195.751
 30
0
 11
4145.75
 21
383.251
 31
0
 0
LINE
 8
TOOL_0
 5
5A
 10
4145.75
 20
383.251
 30
0
 11
4142.214
 21
386.787
 31
0
 0
LINE
 8
TOOL_0
 5
5B
 10
4142.214
 20
386.787
 30
0
 11
4755.75
 21
160.751
 31
0
 0
LINE
 8
TOOL_0
 5
5C
 10
4755.75
 20
160.751
 30
0
 11
4790.75
 21
160.751
 31
0
 0
ARC
 8
TOOL_0
 5
5D
 10
4740.75
 20
160.751
 30
0
 40
50.0
 50
0
 51
90.0
210
0
220
0
230
1.0
 0
LINE
 8
TOOL_0
 5
5E
 10
4740.75
 20
210.751
 30
0
 11
4640.75
 21
210.751
 31
0
 0
ARC
 8
TOOL_0
 5
5F
 10
4640.75
 20
160.751
 30
0
 40
50.0
 50
90.0
 51
270.0
210
0
220
0
230
1.0
 0
LINE
 8
TOOL_0
 5
60
 10
4640.75
 20
110.751
 30
0
 11
4740.75
 21
110.751
 31
0
 0
ARC
 8
TOOL_0
 5
61
 10
4740.75
 20
160.751
 30
0
 40
50.0
 50
270.0
 51
0
210
0
220
0
230
1.0
 0
LINE
 8
TOOL_0
 5
62
 10
4790.75
 20
160.751
 30
0
 11
4787.214
 21
164.287
 31
0
 0
LINE
 8
TOOL_0
 5
63
 10
4787.214
 20
164.287
 30
0
 11
5980.75
 21
283.251
 31
0
 0
LINE
 8
TOOL_0
 5
64
 10
5980.75
 20
283.251
 30
0
 11
6015.75
 21
283.251
 31
0
 0
LINE
 8
TOOL_0
 5
65
 10
6015.75
 20
283.251
 30
0
 11
6015.75
 21
385.751
 31
0
 0
ARC
 8
TOOL_0
 5
66
 10
5945.75
 20
385.751
 30
0
 40
70.0
 50
0
 51
90.0
210
0
220
0
230
1.0
 0
LINE
 8
TOOL_0
 5
67
 10
5945.75
 20
455.751
 30
0
 11
5640.75
 21
455.751
 31
0
 0
ARC
 8
TOOL_0
 5
68
 10
5640.75
 20
385.751
 30
0
 40
70.0
 50
90.0
 51
180.0
210
0
220
0
230
1.0
 0
LINE
 8
TOOL_0
 5
69
 10
5570.75
 20
385.751
 30
0
 11
5570.75
 21
180.751
 31
0
 0
ARC
 8
TOOL_0
 5
6A
 10
5640.75
 20
180.751
 30
0
 40
70.0
 50
180.0
 51
270.0
210
0
220
0
230
1.0
 0
LINE
 8
TOOL_0
 5
6B
 10
5640.75
 20
110.751
 30
0
 11
5945.75
 21
110.751
 31
0
 0
ARC
 8
TOOL_0
 5
6C
 10
5945.75
 20
180.751
 30
0
 40
70.0
 50
270.0
 51
0
210
0
220
0
230
1.0
 0
LINE
 8
TOOL_0
 5
6D
 10
6015.75
 20
180.751
 30
0
 11
6015.75
 21
283.251
 31
0
 0
LINE
 8
TOOL_0
 5
6E
 10
6015.75
 20
283.251
 30
0
 11
6012.214
 21
286.787
 31
0
 0
LINE
 8
TOOL_0
 5
6F
 10
6012.214
 20
286.787
 30
0
 11
7140.75
 21
283.251
 31
0
 0
LINE
 8
TOOL_0
 5
70
 10
7140.75
 20
283.251
 30
0
 11
7175.75
 21
283.251
 31
0
 0
LINE
 8
TOOL_0
 5
71
 10
7175.75
 20
283.251
 30
0
 11
7175.75
 21
405.751
 31
0
 0
ARC
 8
TOOL_0
 5
72
 10
7125.75
 20
405.751
 30
0
 40
50.0
 50
0
 51
90.0
210
0
220
0
230
1.0
 0
LINE
 8
TOOL_0
 5
73
 10
7125.75
 20
455.751
 30
0
 11
6890.75
 21
455.751
 31
0
 0
ARC
 8
TOOL_0
 5
74
 10
6890.75
 20
405.751
 30
0
 40
50.0
 50
90.0
 51
180.0
210
0
220
0
230
1.0
 0
LINE
 8
TOOL_0
 5
75
 10
6840.75
 20
405.751
 30
0
 11
6840.75
 21
160.751
 31
0
 0
ARC
 8
TOOL_0
 5
76
 10
6890.75
 20
160.751
 30
0
 40
50.0
 50
180.0
 51
270.0
210
0
220
0
230
1.0
 0
LINE
 8
TOOL_0
 5
77
 10
6890.75
 20
110.751
 30
0
 11
7125.75
 21
110.751
 31
0
 0
ARC
 8
TOOL_0
 5
78
 10
7125.75
 20
160.751
 30
0
 40
50.0
 50
270.0
 51
0
210
0
220
0
230
1.0
 0
LINE
 8
TOOL_0
 5
79
 10
7175.75
 20
160.751
 30
0
 11
7175.75
 21
283.251
 31
0
 0
LINE
 8
TOOL_0
 5
7A
 10
7175.75
 20
283.251
 30
0
 11
7172.214
 21
286.787
 31
0
 0
LINE
 8
TOOL_0
 5
7B
 10
7172.214
 20
286.787
 30
0
 11
7426.104
 21
30.001
 31
0
 0
LINE
 8
TOOL_0
 5
7C
 10
7426.104
 20
30.001
 30
0
 11
7391.061
 21
30.001
 31
0
 0
LINE
 8
TOOL_0
 5
7D
 10
7391.061
 20
30.001
 30
0
 11
7200.75
 21
30.001
 31
0
 0
ARC
 8
TOOL_0
 5
7E
 10
7200.75
 20
25.751
 30
0
 40
4.25
 50
90.0
 51
180.0
210
0
220
0
230
1.0
 0
LINE
 8
TOOL_0
 5
7F
 10
7196.5
 20
25.751
 30
0
 11
7196.5
 21
20.001
 31
0
 0
LINE
 8
TOOL_0
 5
80
 10
7196.5
 20
20.001
 30
0
 11
6840.75
 21
20.001
 31
0
 0
LINE
 8
TOOL_0
 5
81
 10
6840.75
 20
20.001
 30
0
 11
6840.75
 21
22.751
 31
0
 0
ARC
 8
TOOL_0
 5
82
 10
6832.75
 20
22.751
 30
0
 40
8.0
 50
0
 51
90.0
210
0
220
0
230
1.0
 0
LINE
 8
TOOL_0
 5
83
 10
6832.75
 20
30.751
 30
0
 11
6628.75
 21
30.751
 31
0
 0
ARC
 8
TOOL_0
 5
84
 10
6628.75
 20
22.751
 30
0
 40
8.0
 50
90.0
 51
180.0
210
0
220
0
230
1.0
 0
LINE
 8
TOOL_0
 5
85
 10
6620.75
 20
22.751
 30
0
 11
6620.75
 21
20.001
 31
0
 0
LINE
 8
TOOL_0
 5
86
 10
6620.75
 20
20.001
 30
0
 11
5925.75
 21
20.001
 31
0
 0
LINE
 8
TOOL_0
 5
87
 10
5925.75
 20
20.001
 30
0
 11
5925.75
 21
22.751
 31
0
 0
ARC
 8
TOOL_0
 5
88
 10
5917.75
 20
22.751
 30
0
 40
8.0
 50
0
 51
90.0
210
0
220
0
230
1.0
 0
LINE
 8
TOOL_0
 5
89
 10
5917.75
 20
30.751
 30
0
 11
5713.75
 21
30.751
 31
0
 0
ARC
 8
TOOL_0
 5
8A
 10
5713.75
 20
22.751
 30
0
 40
8.0
 50
90.0
 51
180.0
210
0
220
0
230
1.0
 0
LINE
 8
TOOL_0
 5
8B
 10
5705.75
 20
22.751
 30
0
 11
5705.75
 21
20.001
 31
0
 0
LINE
 8
TOOL_0
 5
8C
 10
5705.75
 20
20.001
 30
0
 11
5010.75
 21
20.001
 31
0
 0
LINE
 8
TOOL_0
 5
8D
 10
5010.75
 20
20.001
 30
0
 11
5010.75
 21
22.751
 31
0
 0
ARC
 8
TOOL_0
 5
8E
 10
5002.75
 20
22.751
 30
0
 40
8.0
 50
0
 51
90.0
210
0
220
0
230
1.0
 0
LINE
 8
TOOL_0
 5
8F
 10
5002.75
 20
30.751
 30
0
 11
4798.75
 21
30.751
 31
0
 0
ARC
 8
TOOL_0
 5
90
 10
4798.75
 20
22.751
 30
0
 40
8.0
 50
90.0
 51
180.0
210
0
220
0
230
1.0
 0
LINE
 8
TOOL_0
 5
91
 10
4790.75
 20
22.751
 30
0
 11
4790.75
 21
20.001
 31
0
 0
LINE
 8
TOOL_0
 5
92
 10
4790.75
 20
20.001
 30
0
 11
4095.75
 21
20.001
 31
0
 0
LINE
 8
TOOL_0
 5
93
 10
4095.75
 20
20.001
 30
0
 11
4095.75
 21
22.751
 31
0
 0
ARC
 8
TOOL_0
 5
94
 10
4087.75
 20
22.751
 30
0
 40
8.0
 50
0
 51
90.0
210
0
220
0
230
1.0
 0
LINE
 8
TOOL_0
 5
95
 10
4087.75
 20
30.751
 30
0
 11
3883.75
 21
30.751
 31
0
 0
ARC
 8
TOOL_0
 5
96
 10
3883.75
 20
22.751
 30
0
 40
8.0
 50
90.0
 51
180.0
210
0
220
0
230
1.0
 0
LINE
 8
TOOL_0
 5
97
 10
3875.75
 20
22.751
 30
0
 11
3875.75
 21
20.001
 31
0
 0
LINE
 8
TOOL_0
 5
98
 10
3875.75
 20
20.001
 30
0
 11
3145.75
 21
20.001
 31
0
 0
LINE
 8
TOOL_0
 5
99
 10
3145.75
 20
20.001
 30
0
 11
3145.75
 21
22.751
 31
0
 0
ARC
 8
TOOL_0
 5
9A
 10
3137.75
 20
22.751
 30
0
 40
8.0
 50
0
 51
90.0
210
0
220
0
230
1.0
 0
LINE
 8
TOOL_0
 5
9B
 10
3137.75
 20
30.751
 30
0
 11
2960.75
 21
30.751
 31
0
 0
LINE
 8
TOOL_0
 5
9C
 10
2960.75
 20
30.751
 30
0
 11
2952.466
 21
39.035
 31
0
 0
ARC
 8
TOOL_0
 5
9D
 10
2919.254
 20
8.718
 30
0
 40
44.968404830503
 50
42.390851290463
 51
47.028462127096
210
0
220
0
230
1.0
 0
ARC
 8
TOOL_0
 5
9E
 10
3213.678
 20
314.393
 30
0
 40
379.447271657077
 50
224.221823871639
 51
225.960990450411
210
0
220
0
230
1.0
 0
LINE
 8
TOOL_0
 5
9F
 10
2941.749
 20
49.752
 30
0
 11
2941.75
 21
380.784
 31
0
 0
ARC
 8
TOOL_0
 5
A0
 10
2940.75
 20
395.751
 30
0
 40
15.000369628779
 50
273.822459396542
 51
90.0
210
0
220
0
230
1.0
 0
LINE
 8
TOOL_0
 5
A1
 10
2940.75
 20
410.751
 30
0
 11
2880.75
 21
410.751
 31
0
 0
ARC
 8
TOOL_0
 5
A2
 10
2880.75
 20
395.751
 30
0
 40
15.0
 50
90.0
 51
266.177540603458
210
0
220
0
230
1.0
 0
LINE
 8
TOOL_0
 5
A3
 10
2879.75
 20
380.784
 30
0
 11
2879.75
 21
48.69
 31
0
 0
LINE
 8
TOOL_0
 5
A4
 10
2879.75
 20
48.69
 30
0
 11
2851.061
 21
20.001
 31
0
 0
LINE
 8
TOOL_0
 5
A5
 10
2851.061
 20
20.001
 30
0
 11
137.319
 21
20.001
 31
0
 0
ARC
 8
TOOL_0
 5
A6
 10
137.319
 20
60.751
 30
0
 40
40.75
 50
224.999005782167
 51
270.0
210
0
220
0
230
1.0
 0
LINE
 8
TOOL_0
 5
A7
 10
108.504
 20
31.937
 30
0
 11
31.936
 21
108.505
 31
0
 0
ARC
 8
TOOL_0
 5
A8
 10
60.811
 20
137.346
 30
0
 40
40.811382064321
 50
181.765003233528
 51
224.966247552185
210
0
220
0
230
1.0
 0
LINE
 8
TOOL_0
 5
A9
 10
20.019
 20
136.089
 30
0
 11
20.0
 21
749.492
 31
0
 0
LINE
 8
TOOL_0
 5
AA
 10
20.0
 20
749.492
 30
0
 11
7401.5
 21
749.492
 31
0
 0
LINE
 8
TOOL_0
 5
AB
 10
7401.5
 20
749.492
 30
0
 11
7401.5
 21
40.44
 31
0
 0
LINE
 8
TOOL_0
 5
AC
 10
7401.5
 20
40.44
 30
0
 11
7391.061
 21
30.001
 31
0
 0
LINE
 8
TOOL_0
 5
AD
 10
7391.061
 20
30.001
 30
0
 11
7391.061
 21
20.176
 31
0
 0
LINE
 8
TOOL_0
 5
AE
 10
7391.061
 20
20.176
 30
0
 11
2808.056
 21
812.612
 31
0
 0
LINE
 8
TOOL_0
 5
AF
 10
2808.056
 20
812.612
 30
0
 11
2779.5
 21
804.611
 31
0
 0
LINE
 8
TOOL_0
 5
B0
 10
2779.5
 20
804.611
 30
0
 11
2658.851
 21
771.433
 31
0
 0
LINE
 8
TOOL_0
 5
B1
 10
2658.851
 20
771.433
 30
0
 11
19.0
 21
771.433
 31
0
 0
LINE
 8
TOOL_0
 5
B2
 10
19.0
 20
771.433
 30
0
 11
19.0
 21
801.113
 31
0
 0
LINE
 8
TOOL_0
 5
B3
 10
19.0
 20
801.113
 30
0
 11
169.618
 21
855.933
 31
0
 0
LINE
 8
TOOL_0
 5
B4
 10
169.618
 20
855.933
 30
0
 11
2779.5
 21
855.933
 31
0
 0
LINE
 8
TOOL_0
 5
B5
 10
2779.5
 20
855.933
 30
0
 11
2779.5
 21
804.611
 31
0
 0
LINE
 8
TOOL_0
 5
B6
 10
2779.5
 20
804.611
 30
0
 11
2779.651
 21
796.062
 31
0
 0
LINE
 8
TOOL_0
 5
B7
 10
2779.651
 20
796.062
 30
0
 11
510.95
 21
1156.497
 31
0
 0
LINE
 8
TOOL_0
 5
B8
 10
510.95
 20
1156.497
 30
0
 11
545.95
 21
1156.497
 31
0
 0
ARC
 8
TOOL_0
 5
B9
 10
475.95
 20
1156.497
 30
0
 40
70.0
 50
0
 51
180.0
210
0
220
0
230
1.0
 0
ARC
 8
TOOL_0
 5
BA
 10
475.95
 20
1156.497
 30
0
 40
70.0
 50
180.0
 51
0
210
0
220
0
230
1.0
 0
LINE
 8
TOOL_0
 5
BB
 10
545.95
 20
1156.497
 30
0
 11
542.414
 21
1160.033
 31
0
 0
LINE
 8
TOOL_0
 5
BC
 10
542.414
 20
1160.033
 30
0
 11
646.291
 21
908.463
 31
0
 0
LINE
 8
TOOL_0
 5
BD
 10
646.291
 20
908.463
 30
0
 11
646.291
 21
878.836
 31
0
 0
LINE
 8
TOOL_0
 5
BE
 10
646.291
 20
878.836
 30
0
 11
618.4
 21
881.297
 31
0
 0
LINE
 8
TOOL_0
 5
BF
 10
618.4
 20
881.297
 30
0
 11
30.0
 21
881.297
 31
0
 0
ARC
 8
TOOL_0
 5
C0
 10
30.0
 20
891.297
 30
0
 40
10.0
 50
180.0
 51
270.0
210
0
220
0
230
1.0
 0
LINE
 8
TOOL_0
 5
C1
 10
20.0
 20
891.297
 30
0
 11
20.0
 21
1421.697
 31
0
 0
ARC
 8
TOOL_0
 5
C2
 10
30.0
 20
1421.697
 30
0
 40
10.0
 50
90.0
 51
180.0
210
0
220
0
230
1.0
 0
LINE
 8
TOOL_0
 5
C3
 10
30.0
 20
1431.697
 30
0
 11
618.4
 21
1431.697
 31
0
 0
ARC
 8
TOOL_0
 5
C4
 10
618.4
 20
1421.697
 30
0
 40
10.0
 50
0
 51
90.0
210
0
220
0
230
1.0
 0
LINE
 8
TOOL_0
 5
C5
 10
628.4
 20
1421.697
 30
0
 11
628.4
 21
891.297
 31
0
 0
ARC
 8
TOOL_0
 5
C6
 10
618.4
 20
891.297
 30
0
 40
10.0
 50
270.0
 51
0
210
0
220
0
230
1.0
 0
LINE
 8
TOOL_0
 5
C7
 10
618.4
 20
881.297
 30
0
 11
618.4
 21
875.293
 31
0
 0
LINE
 8
TOOL_0
 5
C8
 10
618.4
 20
875.293
 30
0
 11
1246.987
 21
1179.912
 31
0
 0
LINE
 8
TOOL_0
 5
C9
 10
1246.987
 20
1179.912
 30
0
 11
1281.987
 21
1179.912
 31
0
 0
ARC
 8
TOOL_0
 5
CA
 10
1211.987
 20
1179.912
 30
0
 40
70.0
 50
0
 51
180.0
210
0
220
0
230
1.0
 0
ARC
 8
TOOL_0
 5
CB
 10
1211.987
 20
1179.912
 30
0
 40
70.0
 50
180.0
 51
0
210
0
220
0
230
1.0
 0
LINE
 8
TOOL_0
 5
CC
 10
1281.987
 20
1179.912
 30
0
 11
1278.451
 21
1183.448
 31
0
 0
LINE
 8
TOOL_0
 5
CD
 10
1278.451
 20
1183.448
 30
0
 11
1382.327
 21
931.878
 31
0
 0
LINE
 8
TOOL_0
 5
CE
 10
1382.327
 20
931.878
 30
0
 11
1382.327
 21
902.251
 31
0
 0
LINE
 8
TOOL_0
 5
CF
 10
1382.327
 20
902.251
 30
0
 11
1354.436
 21
904.712
 31
0
 0
LINE
 8
TOOL_0
 5
D0
 10
1354.436
 20
904.712
 30
0
 11
766.036
 21
904.712
 31
0
 0
ARC
 8
TOOL_0
 5
D1
 10
766.036
 20
914.712
 30
0
 40
10.0
 50
180.0
 51
270.0
210
0
220
0
230
1.0
 0
LINE
 8
TOOL_0
 5
D2
 10
756.036
 20
914.712
 30
0
 11
756.036
 21
1445.112
 31
0
 0
ARC
 8
TOOL_0
 5
D3
 10
766.036
 20
1445.112
 30
0
 40
10.0
 50
90.0
 51
180.0
210
0
220
0
230
1.0
 0
LINE
 8
TOOL_0
 5
D4
 10
766.036
 20
1455.112
 30
0
 11
1354.436
 21
1455.112
 31
0
 0
ARC
 8
TOOL_0
 5
D5
 10
1354.436
 20
1445.112
 30
0
 40
10.0
 50
0
 51
90.0
210
0
220
0
230
1.0
 0
LINE
 8
TOOL_0
 5
D6
 10
1364.436
 20
1445.112
 30
0
 11
1364.436
 21
914.712
 31
0
 0
ARC
 8
TOOL_0
 5
D7
 10
1354.436
 20
914.712
 30
0
 40
10.0
 50
270.0
 51
0
210
0
220
0
230
1.0
 0
LINE
 8
TOOL_0
 5
D8
 10
1354.436
 20
904.712
 30
0
 11
1354.436
 21
898.708
 31
0
 0
LINE
 8
TOOL_0
 5
D9
 10
1354.436
 20
898.708
 30
0
 11
4713.908
 21
1191.835
 31
0
 0
LINE
 8
TOOL_0
 5
DA
 10
4713.908
 20
1191.835
 30
0
 11
4683.586
 21
1191.835
 31
0
 0
LINE
 8
TOOL_0
 5
DB
 10
4683.586
 20
1191.835
 30
0
 11
3548.836
 21
1191.835
 31
0
 0
ARC
 8
TOOL_0
 5
DC
 10
3548.836
 20
1142.585
 30
0
 40
49.25
 50
90.0
 51
180.0
210
0
220
0
230
1.0
 0
LINE
 8
TOOL_0
 5
DD
 10
3499.586
 20
1142.585
 30
0
 11
3499.586
 21
1057.06
 31
0
 0
LINE
 8
TOOL_0
 5
DE
 10
3499.586
 20
1057.06
 30
0
 11
3086.847
 21
906.835
 31
0
 0
LINE
 8
TOOL_0
 5
DF
 10
3086.847
 20
906.835
 30
0
 11
1874.708
 21
906.835
 31
0
 0
LINE
 8
TOOL_0
 5
E0
 10
1874.708
 20
906.835
 30
0
 11
1838.086
 21
1007.453
 31
0
 0
LINE
 8
TOOL_0
 5
E1
 10
1838.086
 20
1007.453
 30
0
 11
1838.086
 21
1142.585
 31
0
 0
ARC
 8
TOOL_0
 5
E2
 10
1788.836
 20
1142.585
 30
0
 40
49.25
 50
0
 51
90.0
210
0
220
0
230
1.0
 0
LINE
 8
TOOL_0
 5
E3
 10
1788.836
 20
1191.835
 30
0
 11
1688.086
 21
1191.835
 31
0
 0
LINE
 8
TOOL_0
 5
E4
 10
1688.086
 20
1191.835
 30
0
 11
1688.086
 21
2113.335
 31
0
 0
LINE
 8
TOOL_0
 5
E5
 10
1688.086
 20
2113.335
 30
0
 11
4385.586
 21
2113.335
 31
0
 0
LINE
 8
TOOL_0
 5
E6
 10
4385.586
 20
2113.335
 30
0
 11
4385.586
 21
1497.988
 31
0
 0
LINE
 8
TOOL_0
 5
E7
 10
4385.586
 20
1497.988
 30
0
 11
4547.231
 21
1391.031
 31
0
 0
ARC
 8
TOOL_0
 5
E8
 10
4557.887
 20
1407.195
 30
0
 40
19.360403714799
 50
236.605421239065
 51
269.899377350172
210
0
220
0
230
1.0
 0
LINE
 8
TOOL_0
 5
E9
 10
4557.853
 20
1387.835
 30
0
 11
4683.585
 21
1387.835
 31
0
 0
LINE
 8
TOOL_0
 5
EA
 10
4683.585
 20
1387.835
 30
0
 11
4683.585
 21
1191.835
 31
0
 0
LINE
 8
TOOL_0
 5
EB
 10
4683.585
 20
1191.835
 30
0
 11
4683.585
 21
1179.819
 31
0
 0
LINE
 8
TOOL_0
 5
EC
 10
4683.585
 20
1179.819
 30
0
 11
510.948
 21
1801.132
 31
0
 0
LINE
 8
TOOL_0
 5
ED
 10
510.948
 20
1801.132
 30
0
 11
545.948
 21
1801.132
 31
0
 0
ARC
 8
TOOL_0
 5
EE
 10
475.948
 20
1801.132
 30
0
 40
70.0
 50
0
 51
180.0
210
0
220
0
230
1.0
 0
ARC
 8
TOOL_0
 5
EF
 10
475.948
 20
1801.132
 30
0
 40
70.0
 50
180.0
 51
0
210
0
220
0
230
1.0
 0
LINE
 8
TOOL_0
 5
F0
 10
545.948
 20
1801.132
 30
0
 11
542.412
 21
1804.668
 31
0
 0
LINE
 8
TOOL_0
 5
F1
 10
542.412
 20
1804.668
 30
0
 11
646.289
 21
1553.099
 31
0
 0
LINE
 8
TOOL_0
 5
F2
 10
646.289
 20
1553.099
 30
0
 11
646.289
 21
1523.471
 31
0
 0
LINE
 8
TOOL_0
 5
F3
 10
646.289
 20
1523.471
 30
0
 11
618.398
 21
1525.932
 31
0
 0
LINE
 8
TOOL_0
 5
F4
 10
618.398
 20
1525.932
 30
0
 11
29.998
 21
1525.932
 31
0
 0
ARC
 8
TOOL_0
 5
F5
 10
29.998
 20
1535.932
 30
0
 40
10.0
 50
180.0
 51
270.0
210
0
220
0
230
1.0
 0
LINE
 8
TOOL_0
 5
F6
 10
19.998
 20
1535.932
 30
0
 11
19.998
 21
2066.332
 31
0
 0
ARC
 8
TOOL_0
 5
F7
 10
29.998
 20
2066.332
 30
0
 40
10.0
 50
90.0
 51
180.0
210
0
220
0
230
1.0
 0
LINE
 8
TOOL_0
 5
F8
 10
29.998
 20
2076.332
 30
0
 11
618.398
 21
2076.332
 31
0
 0
ARC
 8
TOOL_0
 5
F9
 10
618.398
 20
2066.332
 30
0
 40
10.0
 50
0
 51
90.0
210
0
220
0
230
1.0
 0
LINE
 8
TOOL_0
 5
FA
 10
628.398
 20
2066.332
 30
0
 11
628.398
 21
1535.932
 31
0
 0
ARC
 8
TOOL_0
 5
FB
 10
618.398
 20
1535.932
 30
0
 40
10.0
 50
270.0
 51
0
210
0
220
0
230
1.0
 0
LINE
 8
TOOL_0
 5
FC
 10
618.398
 20
1525.932
 30
0
 11
618.398
 21
1519.928
 31
0
 0
LINE
 8
TOOL_0
 5
FD
 10
618.398
 20
1519.928
 30
0
 11
1261.314
 21
1800.064
 31
0
 0
LINE
 8
TOOL_0
 5
FE
 10
1261.314
 20
1800.064
 30
0
 11
1296.314
 21
1800.064
 31
0
 0
ARC
 8
TOOL_0
 5
FF
 10
1226.314
 20
1800.064
 30
0
 40
70.0
 50
0
 51
180.0
210
0
220
0
230
1.0
 0
ARC
 8
TOOL_0
 5
100
 10
1226.314
 20
1800.064
 30
0
 40
70.0
 50
180.0
 51
0
210
0
220
0
230
1.0
 0
LINE
 8
TOOL_0
 5
101
 10
1296.314
 20
1800.064
 30
0
 11
1292.778
 21
1803.6
 31
0
 0
LINE
 8
TOOL_0
 5
102
 10
1292.778
 20
1803.6
 30
0
 11
1396.654
 21
1552.031
 31
0
 0
LINE
 8
TOOL_0
 5
103
 10
1396.654
 20
1552.031
 30
0
 11
1396.654
 21
1522.403
 31
0
 0
LINE
 8
TOOL_0
 5
104
 10
1396.654
 20
1522.403
 30
0
 11
1368.763
 21
1524.864
 31
0
 0
LINE
 8
TOOL_0
 5
105
 10
1368.763
 20
1524.864
 30
0
 11
780.363
 21
1524.864
 31
0
 0
ARC
 8
TOOL_0
 5
106
 10
780.363
 20
1534.864
 30
0
 40
10.0
 50
180.0
 51
270.0
210
0
220
0
230
1.0
 0
LINE
 8
TOOL_0
 5
107
 10
770.363
 20
1534.864
 30
0
 11
770.363
 21
2065.264
 31
0
 0
ARC
 8
TOOL_0
 5
108
 10
780.363
 20
2065.264
 30
0
 40
10.0
 50
90.0
 51
180.0
210
0
220
0
230
1.0
 0
LINE
 8
TOOL_0
 5
109
 10
780.363
 20
2075.264
 30
0
 11
1368.763
 21
2075.264
 31
0
 0
ARC
 8
TOOL_0
 5
10A
 10
1368.763
 20
2065.264
 30
0
 40
10.0
 50
0
 51
90.0
210
0
220
0
230
1.0
 0
LINE
 8
TOOL_0
 5
10B
 10
1378.763
 20
2065.264
 30
0
 11
1378.763
 21
1534.864
 31
0
 0
ARC
 8
TOOL_0
 5
10C
 10
1368.763
 20
1534.864
 30
0
 40
10.0
 50
270.0
 51
0
210
0
220
0
230
1.0
 0
LINE
 8
TOOL_0
 5
10D
 10
1368.763
 20
1524.864
 30
0
 11
1368.763
 21
1518.86
 31
0
 0
LINE
 8
TOOL_0
 5
10E
 10
1368.763
 20
1518.86
 30
0
 11
2808.053
 21
2187.075
 31
0
 0
LINE
 8
TOOL_0
 5
10F
 10
2808.053
 20
2187.075
 30
0
 11
2779.497
 21
2179.075
 31
0
 0
LINE
 8
TOOL_0
 5
110
 10
2779.497
 20
2179.075
 30
0
 11
2658.848
 21
2145.897
 31
0
 0
LINE
 8
TOOL_0
 5
111
 10
2658.848
 20
2145.897
 30
0
 11
18.997
 21
2145.897
 31
0
 0
LINE
 8
TOOL_0
 5
112
 10
18.997
 20
2145.897
 30
0
 11
18.997
 21
2175.577
 31
0
 0
LINE
 8
TOOL_0
 5
113
 10
18.997
 20
2175.577
 30
0
 11
169.615
 21
2230.397
 31
0
 0
LINE
 8
TOOL_0
 5
114
 10
169.615
 20
2230.397
 30
0
 11
2779.497
 21
2230.397
 31
0
 0
LINE
 8
TOOL_0
 5
115
 10
2779.497
 20
2230.397
 30
0
 11
2779.497
 21
2179.075
 31
0
 0
LINE
 8
TOOL_0
 5
116
 10
2779.497
 20
2179.075
 30
0
 11
2779.648
 21
2170.526
 31
0
 0
LINE
 8
TOOL_0
 5
117
 10
2779.648
 20
2170.526
 30
0
 11
756.238
 21
2501.446
 31
0
 0
LINE
 8
TOOL_0
 5
118
 10
756.238
 20
2501.446
 30
0
 11
721.608
 21
2501.446
 31
0
 0
LINE
 8
TOOL_0
 5
119
 10
721.608
 20
2501.446
 30
0
 11
651.608
 21
2501.446
 31
0
 0
LINE
 8
TOOL_0
 5
11A
 10
651.608
 20
2501.446
 30
0
 11
651.608
 21
2701.446
 31
0
 0
LINE
 8
TOOL_0
 5
11B
 10
651.608
 20
2701.446
 30
0
 11
721.608
 21
2701.446
 31
0
 0
LINE
 8
TOOL_0
 5
11C
 10
721.608
 20
2701.446
 30
0
 11
721.608
 21
2501.446
 31
0
 0
LINE
 8
TOOL_0
 5
11D
 10
721.608
 20
2501.446
 30
0
 11
721.608
 21
2490.78
 31
0
 0
LINE
 8
TOOL_0
 5
11E
 10
721.608
 20
2490.78
 30
0
 11
811.747
 21
2598.757
 31
0
 0
LINE
 8
TOOL_0
 5
11F
 10
811.747
 20
2598.757
 30
0
 11
846.747
 21
2598.757
 31
0
 0
LINE
 8
TOOL_0
 5
120
 10
846.747
 20
2598.757
 30
0
 11
846.747
 21
2756.257
 31
0
 0
ARC
 8
TOOL_0
 5
121
 10
806.747
 20
2756.257
 30
0
 40
40.0
 50
0
 51
90.0
210
0
220
0
230
1.0
 0
LINE
 8
TOOL_0
 5
122
 10
806.747
 20
2796.257
 30
0
 11
505.747
 21
2796.257
 31
0
 0
ARC
 8
TOOL_0
 5
123
 10
505.747
 20
2776.257
 30
0
 40
20.0
 50
90.0
 51
180.0
210
0
220
0
230
1.0
 0
LINE
 8
TOOL_0
 5
124
 10
485.747
 20
2776.257
 30
0
 11
485.747
 21
2701.257
 31
0
 0
ARC
 8
TOOL_0
 5
125
 10
465.747
 20
2701.257
 30
0
 40
20.0
 50
270.0
 51
0
210
0
220
0
230
1.0
 0
LINE
 8
TOOL_0
 5
126
 10
465.747
 20
2681.257
 30
0
 11
295.747
 21
2681.257
 31
0
 0
ARC
 8
TOOL_0
 5
127
 10
295.747
 20
2641.257
 30
0
 40
40.0
 50
90.0
 51
180.0
210
0
220
0
230
1.0
 0
LINE
 8
TOOL_0
 5
128
 10
255.747
 20
2641.257
 30
0
 11
255.747
 21
2441.257
 31
0
 0
ARC
 8
TOOL_0
 5
129
 10
295.747
 20
2441.257
 30
0
 40
40.0
 50
180.0
 51
270.0
210
0
220
0
230
1.0
 0
LINE
 8
TOOL_0
 5
12A
 10
295.747
 20
2401.257
 30
0
 11
806.747
 21
2401.257
 31
0
 0
ARC
 8
TOOL_0
 5
12B
 10
806.747
 20
2441.257
 30
0
 40
40.0
 50
270.0
 51
0
210
0
220
0
230
1.0
 0
LINE
 8
TOOL_0
 5
12C
 10
846.747
 20
2441.257
 30
0
 11
846.747
 21
2598.757
 31
0
 0
LINE
 8
TOOL_0
 5
12D
 10
846.747
 20
2598.757
 30
0
 11
843.211
 21
2602.293
 31
0
 0
LINE
 8
TOOL_0
 5
12E
 10
843.211
 20
2602.293
 30
0
 11
1520.747
 21
2576.258
 31
0
 0
LINE
 8
TOOL_0
 5
12F
 10
1520.747
 20
2576.258
 30
0
 11
1555.747
 21
2576.258
 31
0
 0
LINE
 8
TOOL_0
 5
130
 10
1555.747
 20
2576.258
 30
0
 11
1555.747
 21
2711.258
 31
0
 0
ARC
 8
TOOL_0
 5
131
 10
1515.747
 20
2711.258
 30
0
 40
40.0
 50
0
 51
90.0
210
0
220
0
230
1.0
 0
LINE
 8
TOOL_0
 5
132
 10
1515.747
 20
2751.258
 30
0
 11
1270.747
 21
2751.258
 31
0
 0
ARC
 8
TOOL_0
 5
133
 10
1270.747
 20
2731.258
 30
0
 40
20.0
 50
90.0
 51
180.0
210
0
220
0
230
1.0
 0
LINE
 8
TOOL_0
 5
134
 10
1250.747
 20
2731.258
 30
0
 11
1250.747
 21
2701.258
 31
0
 0
ARC
 8
TOOL_0
 5
135
 10
1230.747
 20
2701.258
 30
0
 40
20.0
 50
270.0
 51
0
210
0
220
0
230
1.0
 0
LINE
 8
TOOL_0
 5
136
 10
1230.747
 20
2681.258
 30
0
 11
1026.747
 21
2681.258
 31
0
 0
ARC
 8
TOOL_0
 5
137
 10
1026.747
 20
2641.258
 30
0
 40
40.0
 50
90.0
 51
180.0
210
0
220
0
230
1.0
 0
LINE
 8
TOOL_0
 5
138
 10
986.747
 20
2641.258
 30
0
 11
986.747
 21
2441.258
 31
0
 0
ARC
 8
TOOL_0
 5
139
 10
1026.747
 20
2441.258
 30
0
 40
40.0
 50
180.0
 51
270.0
210
0
220
0
230
1.0
 0
LINE
 8
TOOL_0
 5
13A
 10
1026.747
 20
2401.258
 30
0
 11
1515.747
 21
2401.258
 31
0
 0
ARC
 8
TOOL_0
 5
13B
 10
1515.747
 20
2441.258
 30
0
 40
40.0
 50
270.0
 51
0
210
0
220
0
230
1.0
 0
LINE
 8
TOOL_0
 5
13C
 10
1555.747
 20
2441.258
 30
0
 11
1555.747
 21
2576.258
 31
0
 0
LINE
 8
TOOL_0
 5
13D
 10
1555.747
 20
2576.258
 30
0
 11
1552.211
 21
2579.794
 31
0
 0
LINE
 8
TOOL_0
 5
13E
 10
1552.211
 20
2579.794
 30
0
 11
1955.747
 21
2576.259
 31
0
 0
LINE
 8
TOOL_0
 5
13F
 10
1955.747
 20
2576.259
 30
0
 11
1990.747
 21
2576.259
 31
0
 0
LINE
 8
TOOL_0
 5
140
 10
1990.747
 20
2576.259
 30
0
 11
1990.747
 21
2711.259
 31
0
 0
ARC
 8
TOOL_0
 5
141
 10
1950.747
 20
2711.259
 30
0
 40
40.0
 50
0
 51
90.0
210
0
220
0
230
1.0
 0
LINE
 8
TOOL_0
 5
142
 10
1950.747
 20
2751.259
 30
0
 11
1735.747
 21
2751.259
 31
0
 0
ARC
 8
TOOL_0
 5
143
 10
1735.747
 20
2711.259
 30
0
 40
40.0
 50
90.0
 51
180.0
210
0
220
0
230
1.0
 0
LINE
 8
TOOL_0
 5
144
 10
1695.747
 20
2711.259
 30
0
 11
1695.747
 21
2441.259
 31
0
 0
ARC
 8
TOOL_0
 5
145
 10
1735.747
 20
2441.259
 30
0
 40
40.0
 50
180.0
 51
270.0
210
0
220
0
230
1.0
 0
LINE
 8
TOOL_0
 5
146
 10
1735.747
 20
2401.259
 30
0
 11
1950.747
 21
2401.259
 31
0
 0
ARC
 8
TOOL_0
 5
147
 10
1950.747
 20
2441.259
 30
0
 40
40.0
 50
270.0
 51
0
210
0
220
0
230
1.0
 0
LINE
 8
TOOL_0
 5
148
 10
1990.747
 20
2441.259
 30
0
 11
1990.747
 21
2576.259
 31
0
 0
LINE
 8
TOOL_0
 5
149
 10
1990.747
 20
2576.259
 30
0
 11
1987.211
 21
2579.795
 31
0
 0
LINE
 8
TOOL_0
 5
14A
 10
1987.211
 20
2579.795
 30
0
 11
2655.747
 21
2538.871
 31
0
 0
LINE
 8
TOOL_0
 5
14B
 10
2655.747
 20
2538.871
 30
0
 11
2690.747
 21
2538.871
 31
0
 0
LINE
 8
TOOL_0
 5
14C
 10
2690.747
 20
2538.871
 30
0
 11
2690.747
 21
2636.482
 31
0
 0
ARC
 8
TOOL_0
 5
14D
 10
2650.747
 20
2636.482
 30
0
 40
40.0
 50
0
 51
82.010075978474
210
0
220
0
230
1.0
 0
LINE
 8
TOOL_0
 5
14E
 10
2656.307
 20
2676.094
 30
0
 11
2273.527
 21
2729.817
 31
0
 0
ARC
 8
TOOL_0
 5
14F
 10
2270.747
 20
2710.011
 30
0
 40
20.000150899431
 50
82.010075978473
 51
180.0
210
0
220
0
230
1.0
 0
LINE
 8
TOOL_0
 5
150
 10
2250.747
 20
2710.011
 30
0
 11
2250.747
 21
2701.26
 31
0
 0
ARC
 8
TOOL_0
 5
151
 10
2230.747
 20
2701.26
 30
0
 40
20.0
 50
270.0
 51
0
210
0
220
0
230
1.0
 0
LINE
 8
TOOL_0
 5
152
 10
2230.747
 20
2681.26
 30
0
 11
2160.747
 21
2681.26
 31
0
 0
ARC
 8
TOOL_0
 5
153
 10
2160.747
 20
2641.26
 30
0
 40
40.0
 50
90.0
 51
180.0
210
0
220
0
230
1.0
 0
LINE
 8
TOOL_0
 5
154
 10
2120.747
 20
2641.26
 30
0
 11
2120.747
 21
2441.26
 31
0
 0
ARC
 8
TOOL_0
 5
155
 10
2160.747
 20
2441.26
 30
0
 40
40.0
 50
180.0
 51
270.0
210
0
220
0
230
1.0
 0
LINE
 8
TOOL_0
 5
156
 10
2160.747
 20
2401.26
 30
0
 11
2650.747
 21
2401.26
 31
0
 0
ARC
 8
TOOL_0
 5
157
 10
2650.747
 20
2441.26
 30
0
 40
40.0
 50
270.0
 51
0
210
0
220
0
230
1.0
 0
LINE
 8
TOOL_0
 5
158
 10
2690.747
 20
2441.26
 30
0
 11
2690.747
 21
2538.871
 31
0
 0
LINE
 8
TOOL_0
 5
159
 10
2690.747
 20
2538.871
 30
0
 11
2687.211
 21
2542.407
 31
0
 0
LINE
 8
TOOL_0
 5
15A
 10
2687.211
 20
2542.407
 30
0
 11
3577.747
 21
2531.261
 31
0
 0
LINE
 8
TOOL_0
 5
15B
 10
3577.747
 20
2531.261
 30
0
 11
3612.747
 21
2531.261
 31
0
 0
LINE
 8
TOOL_0
 5
15C
 10
3612.747
 20
2531.261
 30
0
 11
3612.747
 21
2681.261
 31
0
 0
ARC
 8
TOOL_0
 5
15D
 10
3562.747
 20
2681.261
 30
0
 40
50.0
 50
0
 51
90.0
210
0
220
0
230
1.0
 0
LINE
 8
TOOL_0
 5
15E
 10
3562.747
 20
2731.261
 30
0
 11
3292.747
 21
2731.261
 31
0
 0
ARC
 8
TOOL_0
 5
15F
 10
3292.747
 20
2681.261
 30
0
 40
50.0
 50
90.0
 51
180.0
210
0
220
0
230
1.0
 0
LINE
 8
TOOL_0
 5
160
 10
3242.747
 20
2681.261
 30
0
 11
3242.747
 21
2381.261
 31
0
 0
ARC
 8
TOOL_0
 5
161
 10
3292.747
 20
2381.261
 30
0
 40
50.0
 50
180.0
 51
270.0
210
0
220
0
230
1.0
 0
LINE
 8
TOOL_0
 5
162
 10
3292.747
 20
2331.261
 30
0
 11
3562.747
 21
2331.261
 31
0
 0
ARC
 8
TOOL_0
 5
163
 10
3562.747
 20
2381.261
 30
0
 40
50.0
 50
270.0
 51
0
210
0
220
0
230
1.0
 0
LINE
 8
TOOL_0
 5
164
 10
3612.747
 20
2381.261
 30
0
 11
3612.747
 21
2531.261
 31
0
 0
LINE
 8
TOOL_0
 5
165
 10
3612.747
 20
2531.261
 30
0
 11
3609.211
 21
2534.797
 31
0
 0
LINE
 8
TOOL_0
 5
166
 10
3609.211
 20
2534.797
 30
0
 11
4110.747
 21
2613.762
 31
0
 0
LINE
 8
TOOL_0
 5
167
 10
4110.747
 20
2613.762
 30
0
 11
4145.747
 21
2613.762
 31
0
 0
LINE
 8
TOOL_0
 5
168
 10
4145.747
 20
2613.762
 30
0
 11
4145.747
 21
2801.262
 31
0
 0
ARC
 8
TOOL_0
 5
169
 10
4095.747
 20
2801.262
 30
0
 40
50.0
 50
0
 51
90.0
210
0
220
0
230
1.0
 0
LINE
 8
TOOL_0
 5
16A
 10
4095.747
 20
2851.262
 30
0
 11
3845.747
 21
2851.262
 31
0
 0
ARC
 8
TOOL_0
 5
16B
 10
3845.747
 20
2801.262
 30
0
 40
50.0
 50
90.0
 51
180.0
210
0
220
0
230
1.0
 0
LINE
 8
TOOL_0
 5
16C
 10
3795.747
 20
2801.262
 30
0
 11
3795.747
 21
2426.262
 31
0
 0
ARC
 8
TOOL_0
 5
16D
 10
3845.747
 20
2426.262
 30
0
 40
50.0
 50
180.0
 51
270.0
210
0
220
0
230
1.0
 0
LINE
 8
TOOL_0
 5
16E
 10
3845.747
 20
2376.262
 30
0
 11
4095.747
 21
2376.262
 31
0
 0
ARC
 8
TOOL_0
 5
16F
 10
4095.747
 20
2426.262
 30
0
 40
50.0
 50
270.0
 51
0
210
0
220
0
230
1.0
 0
LINE
 8
TOOL_0
 5
170
 10
4145.747
 20
2426.262
 30
0
 11
4145.747
 21
2613.762
 31
0
 0
LINE
 8
TOOL_0
 5
171
 10
4145.747
 20
2613.762
 30
0
 11
4142.211
 21
2617.298
 31
0
 0
LINE
 8
TOOL_0
 5
172
 10
4142.211
 20
2617.298
 30
0
 11
4755.747
 21
2391.263
 31
0
 0
LINE
 8
TOOL_0
 5
173
 10
4755.747
 20
2391.263
 30
0
 11
4790.747
 21
2391.263
 31
0
 0
ARC
 8
TOOL_0
 5
174
 10
4740.747
 20
2391.263
 30
0
 40
50.0
 50
0
 51
90.0
210
0
220
0
230
1.0
 0
LINE
 8
TOOL_0
 5
175
 10
4740.747
 20
2441.263
 30
0
 11
4640.747
 21
2441.263
 31
0
 0
ARC
 8
TOOL_0
 5
176
 10
4640.747
 20
2391.263
 30
0
 40
50.0
 50
90.0
 51
270.0
210
0
220
0
230
1.0
 0
LINE
 8
TOOL_0
 5
177
 10
4640.747
 20
2341.263
 30
0
 11
4740.747
 21
2341.263
 31
0
 0
ARC
 8
TOOL_0
 5
178
 10
4740.747
 20
2391.263
 30
0
 40
50.0
 50
270.0
 51
0
210
0
220
0
230
1.0
 0
LINE
 8
TOOL_0
 5
179
 10
4790.747
 20
2391.263
 30
0
 11
4787.211
 21
2394.799
 31
0
 0
LINE
 8
TOOL_0
 5
17A
 10
4787.211
 20
2394.799
 30
0
 11
5980.747
 21
2513.764
 31
0
 0
LINE
 8
TOOL_0
 5
17B
 10
5980.747
 20
2513.764
 30
0
 11
6015.747
 21
2513.764
 31
0
 0
LINE
 8
TOOL_0
 5
17C
 10
6015.747
 20
2513.764
 30
0
 11
6015.747
 21
2616.264
 31
0
 0
ARC
 8
TOOL_0
 5
17D
 10
5945.747
 20
2616.264
 30
0
 40
70.0
 50
0
 51
90.0
210
0
220
0
230
1.0
 0
LINE
 8
TOOL_0
 5
17E
 10
5945.747
 20
2686.264
 30
0
 11
5640.747
 21
2686.264
 31
0
 0
ARC
 8
TOOL_0
 5
17F
 10
5640.747
 20
2616.264
 30
0
 40
70.0
 50
90.0
 51
180.0
210
0
220
0
230
1.0
 0
LINE
 8
TOOL_0
 5
180
 10
5570.747
 20
2616.264
 30
0
 11
5570.747
 21
2411.264
 31
0
 0
ARC
 8
TOOL_0
 5
181
 10
5640.747
 20
2411.264
 30
0
 40
70.0
 50
180.0
 51
270.0
210
0
220
0
230
1.0
 0
LINE
 8
TOOL_0
 5
182
 10
5640.747
 20
2341.264
 30
0
 11
5945.747
 21
2341.264
 31
0
 0
ARC
 8
TOOL_0
 5
183
 10
5945.747
 20
2411.264
 30
0
 40
70.0
 50
270.0
 51
0
210
0
220
0
230
1.0
 0
LINE
 8
TOOL_0
 5
184
 10
6015.747
 20
2411.264
 30
0
 11
6015.747
 21
2513.764
 31
0
 0
LINE
 8
TOOL_0
 5
185
 10
6015.747
 20
2513.764
 30
0
 11
6012.211
 21
2517.3
 31
0
 0
LINE
 8
TOOL_0
 5
186
 10
6012.211
 20
2517.3
 30
0
 11
7140.747
 21
2513.765
 31
0
 0
LINE
 8
TOOL_0
 5
187
 10
7140.747
 20
2513.765
 30
0
 11
7175.747
 21
2513.765
 31
0
 0
LINE
 8
TOOL_0
 5
188
 10
7175.747
 20
2513.765
 30
0
 11
7175.747
 21
2636.265
 31
0
 0
ARC
 8
TOOL_0
 5
189
 10
7125.747
 20
2636.265
 30
0
 40
50.0
 50
0
 51
90.0
210
0
220
0
230
1.0
 0
LINE
 8
TOOL_0
 5
18A
 10
7125.747
 20
2686.265
 30
0
 11
6890.747
 21
2686.265
 31
0
 0
ARC
 8
TOOL_0
 5
18B
 10
6890.747
 20
2636.265
 30
0
 40
50.0
 50
90.0
 51
180.0
210
0
220
0
230
1.0
 0
LINE
 8
TOOL_0
 5
18C
 10
6840.747
 20
2636.265
 30
0
 11
6840.747
 21
2391.265
 31
0
 0
ARC
 8
TOOL_0
 5
18D
 10
6890.747
 20
2391.265
 30
0
 40
50.0
 50
180.0
 51
270.0
210
0
220
0
230
1.0
 0
LINE
 8
TOOL_0
 5
18E
 10
6890.747
 20
2341.265
 30
0
 11
7125.747
 21
2341.265
 31
0
 0
ARC
 8
TOOL_0
 5
18F
 10
7125.747
 20
2391.265
 30
0
 40
50.0
 50
270.0
 51
0
210
0
220
0
230
1.0
 0
LINE
 8
TOOL_0
 5
190
 10
7175.747
 20
2391.265
 30
0
 11
7175.747
 21
2513.765
 31
0
 0
LINE
 8
TOOL_0
 5
191
 10
7175.747
 20
2513.765
 30
0
 11
7172.211
 21
2517.301
 31
0
 0
LINE
 8
TOOL_0
 5
192
 10
7172.211
 20
2517.301
 30
0
 11
7426.101
 21
2260.516
 31
0
 0
LINE
 8
TOOL_0
 5
193
 10
7426.101
 20
2260.516
 30
0
 11
7391.058
 21
2260.516
 31
0
 0
LINE
 8
TOOL_0
 5
194
 10
7391.058
 20
2260.516
 30
0
 11
7200.747
 21
2260.516
 31
0
 0
ARC
 8
TOOL_0
 5
195
 10
7200.747
 20
2256.266
 30
0
 40
4.25
 50
90.0
 51
180.0
210
0
220
0
230
1.0
 0
LINE
 8
TOOL_0
 5
196
 10
7196.497
 20
2256.266
 30
0
 11
7196.497
 21
2250.516
 31
0
 0
LINE
 8
TOOL_0
 5
197
 10
7196.497
 20
2250.516
 30
0
 11
6840.747
 21
2250.516
 31
0
 0
LINE
 8
TOOL_0
 5
198
 10
6840.747
 20
2250.516
 30
0
 11
6840.747
 21
2253.266
 31
0
 0
ARC
 8
TOOL_0
 5
199
 10
6832.747
 20
2253.266
 30
0
 40
8.0
 50
0
 51
90.0
210
0
220
0
230
1.0
 0
LINE
 8
TOOL_0
 5
19A
 10
6832.747
 20
2261.266
 30
0
 11
6628.747
 21
2261.266
 31
0
 0
ARC
 8
TOOL_0
 5
19B
 10
6628.747
 20
2253.266
 30
0
 40
8.0
 50
90.0
 51
180.0
210
0
220
0
230
1.0
 0
LINE
 8
TOOL_0
 5
19C
 10
6620.747
 20
2253.266
 30
0
 11
6620.747
 21
2250.516
 31
0
 0
LINE
 8
TOOL_0
 5
19D
 10
6620.747
 20
2250.516
 30
0
 11
5925.747
 21
2250.516
 31
0
 0
LINE
 8
TOOL_0
 5
19E
 10
5925.747
 20
2250.516
 30
0
 11
5925.747
 21
2253.266
 31
0
 0
ARC
 8
TOOL_0
 5
19F
 10
5917.747
 20
2253.266
 30
0
 40
8.0
 50
0
 51
90.0
210
0
220
0
230
1.0
 0
LINE
 8
TOOL_0
 5
1A0
 10
5917.747
 20
2261.266
 30
0
 11
5713.747
 21
2261.266
 31
0
 0
ARC
 8
TOOL_0
 5
1A1
 10
5713.747
 20
2253.266
 30
0
 40
8.0
 50
90.0
 51
180.0
210
0
220
0
230
1.0
 0
LINE
 8
TOOL_0
 5
1A2
 10
5705.747
 20
2253.266
 30
0
 11
5705.747
 21
2250.516
 31
0
 0
LINE
 8
TOOL_0
 5
1A3
 10
5705.747
 20
2250.516
 30
0
 11
5010.747
 21
2250.516
 31
0
 0
LINE
 8
TOOL_0
 5
1A4
 10
5010.747
 20
2250.516
 30
0
 11
5010.747
 21
2253.266
 31
0
 0
ARC
 8
TOOL_0
 5
1A5
 10
5002.747
 20
2253.266
 30
0
 40
8.0
 50
0
 51
90.0
210
0
220
0
230
1.0
 0
LINE
 8
TOOL_0
 5
1A6
 10
5002.747
 20
2261.266
 30
0
 11
4798.747
 21
2261.266
 31
0
 0
ARC
 8
TOOL_0
 5
1A7
 10
4798.747
 20
2253.266
 30
0
 40
8.0
 50
90.0
 51
180.0
210
0
220
0
230
1.0
 0
LINE
 8
TOOL_0
 5
1A8
 10
4790.747
 20
2253.266
 30
0
 11
4790.747
 21
2250.516
 31
0
 0
LINE
 8
TOOL_0
 5
1A9
 10
4790.747
 20
2250.516
 30
0
 11
4095.747
 21
2250.516
 31
0
 0
LINE
 8
TOOL_0
 5
1AA
 10
4095.747
 20
2250.516
 30
0
 11
4095.747
 21
2253.266
 31
0
 0
ARC
 8
TOOL_0
 5
1AB
 10
4087.747
 20
2253.266
 30
0
 40
8.0
 50
0
 51
90.0
210
0
220
0
230
1.0
 0
LINE
 8
TOOL_0
 5
1AC
 10
4087.747
 20
2261.266
 30
0
 11
3883.747
 21
2261.266
 31
0
 0
ARC
 8
TOOL_0
 5
1AD
 10
3883.747
 20
2253.266
 30
0
 40
8.0
 50
90.0
 51
180.0
210
0
220
0
230
1.0
 0
LINE
 8
TOOL_0
 5
1AE
 10
3875.747
 20
2253.266
 30
0
 11
3875.747
 21
2250.516
 31
0
 0
LINE
 8
TOOL_0
 5
1AF
 10
3875.747
 20
2250.516
 30
0
 11
3145.747
 21
2250.516
 31
0
 0
LINE
 8
TOOL_0
 5
1B0
 10
3145.747
 20
2250.516
 30
0
 11
3145.747
 21
2253.266
 31
0
 0
ARC
 8
TOOL_0
 5
1B1
 10
3137.747
 20
2253.266
 30
0
 40
8.0
 50
0
 51
90.0
210
0
220
0
230
1.0
 0
LINE
 8
TOOL_0
 5
1B2
 10
3137.747
 20
2261.266
 30
0
 11
2960.747
 21
2261.266
 31
0
 0
LINE
 8
TOOL_0
 5
1B3
 10
2960.747
 20
2261.266
 30
0
 11
2952.463
 21
2269.55
 31
0
 0
ARC
 8
TOOL_0
 5
1B4
 10
2919.251
 20
2239.233
 30
0
 40
44.968404830503
 50
42.390851290463
 51
47.028462127096
210
0
220
0
230
1.0
 0
ARC
 8
TOOL_0
 5
1B5
 10
3213.675
 20
2544.908
 30
0
 40
379.447271657077
 50
224.221823871639
 51
225.960990450411
210
0
220
0
230
1.0
 0
LINE
 8
TOOL_0
 5
1B6
 10
2941.746
 20
2280.267
 30
0
 11
2941.747
 21
2611.299
 31
0
 0
ARC
 8
TOOL_0
 5
1B7
 10
2940.747
 20
2626.266
 30
0
 40
15.000369628779
 50
273.822459396542
 51
90.0
210
0
220
0
230
1.0
 0
LINE
 8
TOOL_0
 5
1B8
 10
2940.747
 20
2641.266
 30
0
 11
2880.747
 21
2641.266
 31
0
 0
ARC
 8
TOOL_0
 5
1B9
 10
2880.747
 20
2626.266
 30
0
 40
15.0
 50
90.0
 51
266.177540603458
210
0
220
0
230
1.0
 0
LINE
 8
TOOL_0
 5
1BA
 10
2879.747
 20
2611.299
 30
0
 11
2879.747
 21
2279.205
 31
0
 0
LINE
 8
TOOL_0
 5
1BB
 10
2879.747
 20
2279.205
 30
0
 11
2851.058
 21
2250.516
 31
0
 0
LINE
 8
TOOL_0
 5
1BC
 10
2851.058
 20
2250.516
 30
0
 11
137.316
 21
2250.516
 31
0
 0
ARC
 8
TOOL_0
 5
1BD
 10
137.316
 20
2291.266
 30
0
 40
40.75
 50
224.999005782166
 51
270.0
210
0
220
0
230
1.0
 0
LINE
 8
TOOL_0
 5
1BE
 10
108.501
 20
2262.452
 30
0
 11
31.933
 21
2339.02
 31
0
 0
ARC
 8
TOOL_0
 5
1BF
 10
60.808
 20
2367.861
 30
0
 40
40.811382064321
 50
181.765003233528
 51
224.966247552184
210
0
220
0
230
1.0
 0
LINE
 8
TOOL_0
 5
1C0
 10
20.016
 20
2366.604
 30
0
 11
19.997
 21
2980.007
 31
0
 0
LINE
 8
TOOL_0
 5
1C1
 10
19.997
 20
2980.007
 30
0
 11
7401.497
 21
2980.007
 31
0
 0
LINE
 8
TOOL_0
 5
1C2
 10
7401.497
 20
2980.007
 30
0
 11
7401.497
 21
2270.955
 31
0
 0
LINE
 8
TOOL_0
 5
1C3
 10
7401.497
 20
2270.955
 30
0
 11
7391.058
 21
2260.516
 31
0
 0
LINE
 8
TOOL_0
 5
1C4
 10
7391.058
 20
2260.516
 30
0
 11
7391.058
 21
2250.691
 31
0
 0
LINE
 8
TOOL_0
 5
1C5
 10
7391.058
 20
2250.691
 30
0
 11
7492.332
 21
0.007
 31
0
 0
LINE
 8
TOOL_0
 5
1C6
 10
7492.332
 20
0.007
 30
0
 11
7492.332
 21
1.007
 31
0
 0
LINE
 8
TOOL_0
 5
1C7
 10
7492.332
 20
1.007
 30
0
 11
7492.332
 21
0.007
 31
0
 0
LINE
 8
TOOL_0
 5
1C8
 10
7492.332
 20
0.007
 30
0
 11
7492.332
 21
1.007
 31
0
 0
LINE
 8
TOOL_0
 5
1C9
 10
7492.332
 20
1.007
 30
0
 11
7492.332
 21
2999.007
 31
0
 0
LINE
 8
TOOL_0
 5
1CA
 10
7492.332
 20
2999.007
 30
0
 11
7492.332
 21
3000.007
 31
0
 0
ENDSEC
 0
EOF

