0
SECTION
2
TABLES
0
TABLE
2
LAYER
70
0
0
LAYER
2
LAYER_NAME
70
0
62
1
6
CONTINUOUS
0
ENDTAB
0
ENDSEC
 0
SECTION
 2
ENTITIES
 0
LINE
 8
TOOL_0
 5
1
 10
397.491
 20
1993.572
 30
0
 11
397.491
 21
1952.788
 31
0
 0
LINE
 8
TOOL_0
 5
2
 10
397.491
 20
1952.788
 30
0
 11
379.583
 21
1953.084
 31
0
 0
LINE
 8
TOOL_0
 5
3
 10
379.583
 20
1953.084
 30
0
 11
52.083
 21
1953.084
 31
0
 0
LINE
 8
TOOL_0
 5
4
 10
52.083
 20
1953.084
 30
0
 11
52.083
 21
2052.723
 31
0
 0
ARC
 8
TOOL_0
 5
5
 10
-75.167
 20
2218.834
 30
0
 40
209.249675796642
 50
307.454065498524
 51
52.545717136196
210
0
220
0
230
1.0
 0
LINE
 8
TOOL_0
 5
6
 10
52.084
 20
2384.945
 30
0
 11
52.083
 21
2418.645
 31
0
 0
LINE
 8
TOOL_0
 5
7
 10
52.083
 20
2418.645
 30
0
 11
61.522
 21
2428.084
 31
0
 0
LINE
 8
TOOL_0
 5
8
 10
61.522
 20
2428.084
 30
0
 11
312.143
 21
2428.084
 31
0
 0
LINE
 8
TOOL_0
 5
9
 10
312.143
 20
2428.084
 30
0
 11
379.582
 21
2360.645
 31
0
 0
LINE
 8
TOOL_0
 5
A
 10
379.582
 20
2360.645
 30
0
 11
379.582
 21
1953.084
 31
0
 0
LINE
 8
TOOL_0
 5
B
 10
379.582
 20
1953.084
 30
0
 11
379.582
 21
1947.969
 31
0
 0
LINE
 8
TOOL_0
 5
C
 10
379.582
 20
1947.969
 30
0
 11
908.254
 21
1830.568
 31
0
 0
LINE
 8
TOOL_0
 5
D
 10
908.254
 20
1830.568
 30
0
 11
943.254
 21
1830.568
 31
0
 0
ARC
 8
TOOL_0
 5
E
 10
873.254
 20
1830.568
 30
0
 40
70.0
 50
0
 51
180.0
210
0
220
0
230
1.0
 0
ARC
 8
TOOL_0
 5
F
 10
873.254
 20
1830.568
 30
0
 40
70.0
 50
180.0
 51
0
210
0
220
0
230
1.0
 0
LINE
 8
TOOL_0
 5
10
 10
943.254
 20
1830.568
 30
0
 11
939.718
 21
1834.104
 31
0
 0
LINE
 8
TOOL_0
 5
11
 10
939.718
 20
1834.104
 30
0
 11
1037.581
 21
1581.91
 31
0
 0
LINE
 8
TOOL_0
 5
12
 10
1037.581
 20
1581.91
 30
0
 11
1037.255
 21
1551.711
 31
0
 0
LINE
 8
TOOL_0
 5
13
 10
1037.255
 20
1551.711
 30
0
 11
1015.798
 21
1552.827
 31
0
 0
LINE
 8
TOOL_0
 5
14
 10
1015.798
 20
1552.827
 30
0
 11
1014.202
 21
1555.369
 31
0
 0
LINE
 8
TOOL_0
 5
15
 10
1014.202
 20
1555.369
 30
0
 11
427.304
 21
1555.369
 31
0
 0
ARC
 8
TOOL_0
 5
16
 10
427.304
 20
1565.369
 30
0
 40
10.0
 50
180.0
 51
270.0
210
0
220
0
230
1.0
 0
LINE
 8
TOOL_0
 5
17
 10
417.304
 20
1565.369
 30
0
 11
417.304
 21
2095.769
 31
0
 0
ARC
 8
TOOL_0
 5
18
 10
427.304
 20
2095.769
 30
0
 40
10.0
 50
90.0
 51
180.0
210
0
220
0
230
1.0
 0
LINE
 8
TOOL_0
 5
19
 10
427.304
 20
2105.769
 30
0
 11
1015.704
 21
2105.769
 31
0
 0
ARC
 8
TOOL_0
 5
1A
 10
1015.704
 20
2095.769
 30
0
 40
10.0
 50
0
 51
90.0
210
0
220
0
230
1.0
 0
LINE
 8
TOOL_0
 5
1B
 10
1025.704
 20
2095.769
 30
0
 11
1025.704
 21
1565.369
 31
0
 0
ARC
 8
TOOL_0
 5
1C
 10
1015.704
 20
1565.369
 30
0
 40
10.0
 50
278.603289005591
 51
0
210
0
220
0
230
1.0
 0
LINE
 8
TOOL_0
 5
1D
 10
1017.2
 20
1555.481
 30
0
 11
1015.799
 21
1552.827
 31
0
 0
LINE
 8
TOOL_0
 5
1E
 10
1015.799
 20
1552.827
 30
0
 11
1011.94
 21
1549.52
 31
0
 0
LINE
 8
TOOL_0
 5
1F
 10
1011.94
 20
1549.52
 30
0
 11
910.322
 21
2401.286
 31
0
 0
LINE
 8
TOOL_0
 5
20
 10
910.322
 20
2401.286
 30
0
 11
945.322
 21
2401.286
 31
0
 0
ARC
 8
TOOL_0
 5
21
 10
875.322
 20
2401.286
 30
0
 40
70.0
 50
0
 51
180.0
210
0
220
0
230
1.0
 0
ARC
 8
TOOL_0
 5
22
 10
875.322
 20
2401.286
 30
0
 40
70.0
 50
180.0
 51
0
210
0
220
0
230
1.0
 0
LINE
 8
TOOL_0
 5
23
 10
945.322
 20
2401.286
 30
0
 11
941.786
 21
2404.822
 31
0
 0
LINE
 8
TOOL_0
 5
24
 10
941.786
 20
2404.822
 30
0
 11
1039.649
 21
2152.627
 31
0
 0
LINE
 8
TOOL_0
 5
25
 10
1039.649
 20
2152.627
 30
0
 11
1039.324
 21
2122.429
 31
0
 0
LINE
 8
TOOL_0
 5
26
 10
1039.324
 20
2122.429
 30
0
 11
1017.867
 21
2123.545
 31
0
 0
LINE
 8
TOOL_0
 5
27
 10
1017.867
 20
2123.545
 30
0
 11
1016.271
 21
2126.087
 31
0
 0
LINE
 8
TOOL_0
 5
28
 10
1016.271
 20
2126.087
 30
0
 11
429.373
 21
2126.087
 31
0
 0
ARC
 8
TOOL_0
 5
29
 10
429.373
 20
2136.087
 30
0
 40
10.0
 50
180.0
 51
270.0
210
0
220
0
230
1.0
 0
LINE
 8
TOOL_0
 5
2A
 10
419.373
 20
2136.087
 30
0
 11
419.373
 21
2666.487
 31
0
 0
ARC
 8
TOOL_0
 5
2B
 10
429.373
 20
2666.487
 30
0
 40
10.0
 50
90.0
 51
180.0
210
0
220
0
230
1.0
 0
LINE
 8
TOOL_0
 5
2C
 10
429.373
 20
2676.487
 30
0
 11
1017.773
 21
2676.487
 31
0
 0
ARC
 8
TOOL_0
 5
2D
 10
1017.773
 20
2666.487
 30
0
 40
10.0
 50
0
 51
90.0
210
0
220
0
230
1.0
 0
LINE
 8
TOOL_0
 5
2E
 10
1027.773
 20
2666.487
 30
0
 11
1027.773
 21
2136.087
 31
0
 0
ARC
 8
TOOL_0
 5
2F
 10
1017.773
 20
2136.087
 30
0
 40
10.0
 50
278.603289005591
 51
0
210
0
220
0
230
1.0
 0
LINE
 8
TOOL_0
 5
30
 10
1019.269
 20
2126.199
 30
0
 11
1017.868
 21
2123.545
 31
0
 0
LINE
 8
TOOL_0
 5
31
 10
1017.868
 20
2123.545
 30
0
 11
1014.009
 21
2120.238
 31
0
 0
LINE
 8
TOOL_0
 5
32
 10
1014.009
 20
2120.238
 30
0
 11
1537.969
 21
1830.571
 31
0
 0
LINE
 8
TOOL_0
 5
33
 10
1537.969
 20
1830.571
 30
0
 11
1572.969
 21
1830.571
 31
0
 0
ARC
 8
TOOL_0
 5
34
 10
1502.969
 20
1830.571
 30
0
 40
70.0
 50
0
 51
180.0
210
0
220
0
230
1.0
 0
ARC
 8
TOOL_0
 5
35
 10
1502.969
 20
1830.571
 30
0
 40
70.0
 50
180.0
 51
0
210
0
220
0
230
1.0
 0
LINE
 8
TOOL_0
 5
36
 10
1572.969
 20
1830.571
 30
0
 11
1569.433
 21
1834.107
 31
0
 0
LINE
 8
TOOL_0
 5
37
 10
1569.433
 20
1834.107
 30
0
 11
1667.296
 21
1581.913
 31
0
 0
LINE
 8
TOOL_0
 5
38
 10
1667.296
 20
1581.913
 30
0
 11
1666.971
 21
1551.714
 31
0
 0
LINE
 8
TOOL_0
 5
39
 10
1666.971
 20
1551.714
 30
0
 11
1645.514
 21
1552.83
 31
0
 0
LINE
 8
TOOL_0
 5
3A
 10
1645.514
 20
1552.83
 30
0
 11
1643.918
 21
1555.372
 31
0
 0
LINE
 8
TOOL_0
 5
3B
 10
1643.918
 20
1555.372
 30
0
 11
1057.02
 21
1555.372
 31
0
 0
ARC
 8
TOOL_0
 5
3C
 10
1057.02
 20
1565.372
 30
0
 40
10.0
 50
180.0
 51
270.0
210
0
220
0
230
1.0
 0
LINE
 8
TOOL_0
 5
3D
 10
1047.02
 20
1565.372
 30
0
 11
1047.02
 21
2095.772
 31
0
 0
ARC
 8
TOOL_0
 5
3E
 10
1057.02
 20
2095.772
 30
0
 40
10.0
 50
90.0
 51
180.0
210
0
220
0
230
1.0
 0
LINE
 8
TOOL_0
 5
3F
 10
1057.02
 20
2105.772
 30
0
 11
1645.42
 21
2105.772
 31
0
 0
ARC
 8
TOOL_0
 5
40
 10
1645.42
 20
2095.772
 30
0
 40
10.0
 50
0
 51
90.0
210
0
220
0
230
1.0
 0
LINE
 8
TOOL_0
 5
41
 10
1655.42
 20
2095.772
 30
0
 11
1655.42
 21
1565.372
 31
0
 0
ARC
 8
TOOL_0
 5
42
 10
1645.42
 20
1565.372
 30
0
 40
10.0
 50
278.603289005591
 51
0
210
0
220
0
230
1.0
 0
LINE
 8
TOOL_0
 5
43
 10
1646.916
 20
1555.484
 30
0
 11
1645.515
 21
1552.83
 31
0
 0
LINE
 8
TOOL_0
 5
44
 10
1645.515
 20
1552.83
 30
0
 11
1641.656
 21
1549.523
 31
0
 0
LINE
 8
TOOL_0
 5
45
 10
1641.656
 20
1549.523
 30
0
 11
1538.798
 21
2401.289
 31
0
 0
LINE
 8
TOOL_0
 5
46
 10
1538.798
 20
2401.289
 30
0
 11
1573.798
 21
2401.289
 31
0
 0
ARC
 8
TOOL_0
 5
47
 10
1503.798
 20
2401.289
 30
0
 40
70.0
 50
0
 51
180.0
210
0
220
0
230
1.0
 0
ARC
 8
TOOL_0
 5
48
 10
1503.798
 20
2401.289
 30
0
 40
70.0
 50
180.0
 51
0
210
0
220
0
230
1.0
 0
LINE
 8
TOOL_0
 5
49
 10
1573.798
 20
2401.289
 30
0
 11
1570.262
 21
2404.825
 31
0
 0
LINE
 8
TOOL_0
 5
4A
 10
1570.262
 20
2404.825
 30
0
 11
1668.125
 21
2152.63
 31
0
 0
LINE
 8
TOOL_0
 5
4B
 10
1668.125
 20
2152.63
 30
0
 11
1667.8
 21
2122.432
 31
0
 0
LINE
 8
TOOL_0
 5
4C
 10
1667.8
 20
2122.432
 30
0
 11
1646.343
 21
2123.548
 31
0
 0
LINE
 8
TOOL_0
 5
4D
 10
1646.343
 20
2123.548
 30
0
 11
1644.747
 21
2126.09
 31
0
 0
LINE
 8
TOOL_0
 5
4E
 10
1644.747
 20
2126.09
 30
0
 11
1057.849
 21
2126.09
 31
0
 0
ARC
 8
TOOL_0
 5
4F
 10
1057.849
 20
2136.09
 30
0
 40
10.0
 50
180.0
 51
270.0
210
0
220
0
230
1.0
 0
LINE
 8
TOOL_0
 5
50
 10
1047.849
 20
2136.09
 30
0
 11
1047.849
 21
2666.49
 31
0
 0
ARC
 8
TOOL_0
 5
51
 10
1057.849
 20
2666.49
 30
0
 40
10.0
 50
90.0
 51
180.0
210
0
220
0
230
1.0
 0
LINE
 8
TOOL_0
 5
52
 10
1057.849
 20
2676.49
 30
0
 11
1646.249
 21
2676.49
 31
0
 0
ARC
 8
TOOL_0
 5
53
 10
1646.249
 20
2666.49
 30
0
 40
10.0
 50
0
 51
90.0
210
0
220
0
230
1.0
 0
LINE
 8
TOOL_0
 5
54
 10
1656.249
 20
2666.49
 30
0
 11
1656.249
 21
2136.09
 31
0
 0
ARC
 8
TOOL_0
 5
55
 10
1646.249
 20
2136.09
 30
0
 40
10.0
 50
278.603289005591
 51
0
210
0
220
0
230
1.0
 0
LINE
 8
TOOL_0
 5
56
 10
1647.745
 20
2126.202
 30
0
 11
1646.344
 21
2123.548
 31
0
 0
LINE
 8
TOOL_0
 5
57
 10
1646.344
 20
2123.548
 30
0
 11
1642.485
 21
2120.241
 31
0
 0
LINE
 8
TOOL_0
 5
58
 10
1642.485
 20
2120.241
 30
0
 11
2166.445
 21
1830.989
 31
0
 0
LINE
 8
TOOL_0
 5
59
 10
2166.445
 20
1830.989
 30
0
 11
2201.445
 21
1830.989
 31
0
 0
ARC
 8
TOOL_0
 5
5A
 10
2131.445
 20
1830.989
 30
0
 40
70.0
 50
0
 51
180.0
210
0
220
0
230
1.0
 0
ARC
 8
TOOL_0
 5
5B
 10
2131.445
 20
1830.989
 30
0
 40
70.0
 50
180.0
 51
0
210
0
220
0
230
1.0
 0
LINE
 8
TOOL_0
 5
5C
 10
2201.445
 20
1830.989
 30
0
 11
2197.909
 21
1834.525
 31
0
 0
LINE
 8
TOOL_0
 5
5D
 10
2197.909
 20
1834.525
 30
0
 11
2295.772
 21
1582.33
 31
0
 0
LINE
 8
TOOL_0
 5
5E
 10
2295.772
 20
1582.33
 30
0
 11
2295.447
 21
1552.132
 31
0
 0
LINE
 8
TOOL_0
 5
5F
 10
2295.447
 20
1552.132
 30
0
 11
2273.99
 21
1553.248
 31
0
 0
LINE
 8
TOOL_0
 5
60
 10
2273.99
 20
1553.248
 30
0
 11
2272.394
 21
1555.79
 31
0
 0
LINE
 8
TOOL_0
 5
61
 10
2272.394
 20
1555.79
 30
0
 11
1685.496
 21
1555.79
 31
0
 0
ARC
 8
TOOL_0
 5
62
 10
1685.496
 20
1565.79
 30
0
 40
10.0
 50
180.0
 51
270.0
210
0
220
0
230
1.0
 0
LINE
 8
TOOL_0
 5
63
 10
1675.496
 20
1565.79
 30
0
 11
1675.496
 21
2096.19
 31
0
 0
ARC
 8
TOOL_0
 5
64
 10
1685.496
 20
2096.19
 30
0
 40
10.0
 50
90.0
 51
180.0
210
0
220
0
230
1.0
 0
LINE
 8
TOOL_0
 5
65
 10
1685.496
 20
2106.19
 30
0
 11
2273.896
 21
2106.19
 31
0
 0
ARC
 8
TOOL_0
 5
66
 10
2273.896
 20
2096.19
 30
0
 40
10.0
 50
0
 51
90.0
210
0
220
0
230
1.0
 0
LINE
 8
TOOL_0
 5
67
 10
2283.896
 20
2096.19
 30
0
 11
2283.896
 21
1565.79
 31
0
 0
ARC
 8
TOOL_0
 5
68
 10
2273.896
 20
1565.79
 30
0
 40
10.0
 50
278.603289005591
 51
0
210
0
220
0
230
1.0
 0
LINE
 8
TOOL_0
 5
69
 10
2275.392
 20
1555.902
 30
0
 11
2273.991
 21
1553.248
 31
0
 0
LINE
 8
TOOL_0
 5
6A
 10
2273.991
 20
1553.248
 30
0
 11
2270.132
 21
1549.941
 31
0
 0
LINE
 8
TOOL_0
 5
6B
 10
2270.132
 20
1549.941
 30
0
 11
2167.274
 21
2401.707
 31
0
 0
LINE
 8
TOOL_0
 5
6C
 10
2167.274
 20
2401.707
 30
0
 11
2202.274
 21
2401.707
 31
0
 0
ARC
 8
TOOL_0
 5
6D
 10
2132.274
 20
2401.707
 30
0
 40
70.0
 50
0
 51
180.0
210
0
220
0
230
1.0
 0
ARC
 8
TOOL_0
 5
6E
 10
2132.274
 20
2401.707
 30
0
 40
70.0
 50
180.0
 51
0
210
0
220
0
230
1.0
 0
LINE
 8
TOOL_0
 5
6F
 10
2202.274
 20
2401.707
 30
0
 11
2198.738
 21
2405.243
 31
0
 0
LINE
 8
TOOL_0
 5
70
 10
2198.738
 20
2405.243
 30
0
 11
2296.601
 21
2153.048
 31
0
 0
LINE
 8
TOOL_0
 5
71
 10
2296.601
 20
2153.048
 30
0
 11
2296.276
 21
2122.85
 31
0
 0
LINE
 8
TOOL_0
 5
72
 10
2296.276
 20
2122.85
 30
0
 11
2274.819
 21
2123.966
 31
0
 0
LINE
 8
TOOL_0
 5
73
 10
2274.819
 20
2123.966
 30
0
 11
2273.223
 21
2126.508
 31
0
 0
LINE
 8
TOOL_0
 5
74
 10
2273.223
 20
2126.508
 30
0
 11
1686.325
 21
2126.508
 31
0
 0
ARC
 8
TOOL_0
 5
75
 10
1686.325
 20
2136.508
 30
0
 40
10.0
 50
180.0
 51
270.0
210
0
220
0
230
1.0
 0
LINE
 8
TOOL_0
 5
76
 10
1676.325
 20
2136.508
 30
0
 11
1676.325
 21
2666.908
 31
0
 0
ARC
 8
TOOL_0
 5
77
 10
1686.325
 20
2666.908
 30
0
 40
10.0
 50
90.0
 51
180.0
210
0
220
0
230
1.0
 0
LINE
 8
TOOL_0
 5
78
 10
1686.325
 20
2676.908
 30
0
 11
2274.725
 21
2676.908
 31
0
 0
ARC
 8
TOOL_0
 5
79
 10
2274.725
 20
2666.908
 30
0
 40
10.0
 50
0
 51
90.0
210
0
220
0
230
1.0
 0
LINE
 8
TOOL_0
 5
7A
 10
2284.725
 20
2666.908
 30
0
 11
2284.725
 21
2136.508
 31
0
 0
ARC
 8
TOOL_0
 5
7B
 10
2274.725
 20
2136.508
 30
0
 40
10.0
 50
278.603289005591
 51
0
210
0
220
0
230
1.0
 0
LINE
 8
TOOL_0
 5
7C
 10
2276.221
 20
2126.62
 30
0
 11
2274.82
 21
2123.966
 31
0
 0
LINE
 8
TOOL_0
 5
7D
 10
2274.82
 20
2123.966
 30
0
 11
2270.961
 21
2120.659
 31
0
 0
LINE
 8
TOOL_0
 5
7E
 10
2270.961
 20
2120.659
 30
0
 11
2794.921
 21
1830.577
 31
0
 0
LINE
 8
TOOL_0
 5
7F
 10
2794.921
 20
1830.577
 30
0
 11
2829.921
 21
1830.577
 31
0
 0
ARC
 8
TOOL_0
 5
80
 10
2759.921
 20
1830.577
 30
0
 40
70.0
 50
0
 51
180.0
210
0
220
0
230
1.0
 0
ARC
 8
TOOL_0
 5
81
 10
2759.921
 20
1830.577
 30
0
 40
70.0
 50
180.0
 51
0
210
0
220
0
230
1.0
 0
LINE
 8
TOOL_0
 5
82
 10
2829.921
 20
1830.577
 30
0
 11
2826.385
 21
1834.113
 31
0
 0
LINE
 8
TOOL_0
 5
83
 10
2826.385
 20
1834.113
 30
0
 11
2924.248
 21
1581.919
 31
0
 0
LINE
 8
TOOL_0
 5
84
 10
2924.248
 20
1581.919
 30
0
 11
2923.922
 21
1551.72
 31
0
 0
LINE
 8
TOOL_0
 5
85
 10
2923.922
 20
1551.72
 30
0
 11
2902.465
 21
1552.836
 31
0
 0
LINE
 8
TOOL_0
 5
86
 10
2902.465
 20
1552.836
 30
0
 11
2900.869
 21
1555.378
 31
0
 0
LINE
 8
TOOL_0
 5
87
 10
2900.869
 20
1555.378
 30
0
 11
2313.971
 21
1555.378
 31
0
 0
ARC
 8
TOOL_0
 5
88
 10
2313.971
 20
1565.378
 30
0
 40
10.0
 50
180.0
 51
270.0
210
0
220
0
230
1.0
 0
LINE
 8
TOOL_0
 5
89
 10
2303.971
 20
1565.378
 30
0
 11
2303.971
 21
2095.778
 31
0
 0
ARC
 8
TOOL_0
 5
8A
 10
2313.971
 20
2095.778
 30
0
 40
10.0
 50
90.0
 51
180.0
210
0
220
0
230
1.0
 0
LINE
 8
TOOL_0
 5
8B
 10
2313.971
 20
2105.778
 30
0
 11
2902.371
 21
2105.778
 31
0
 0
ARC
 8
TOOL_0
 5
8C
 10
2902.371
 20
2095.778
 30
0
 40
10.0
 50
0
 51
90.0
210
0
220
0
230
1.0
 0
LINE
 8
TOOL_0
 5
8D
 10
2912.371
 20
2095.778
 30
0
 11
2912.371
 21
1565.378
 31
0
 0
ARC
 8
TOOL_0
 5
8E
 10
2902.371
 20
1565.378
 30
0
 40
10.0
 50
278.603289005591
 51
0
210
0
220
0
230
1.0
 0
LINE
 8
TOOL_0
 5
8F
 10
2903.867
 20
1555.49
 30
0
 11
2902.466
 21
1552.836
 31
0
 0
LINE
 8
TOOL_0
 5
90
 10
2902.466
 20
1552.836
 30
0
 11
2898.607
 21
1549.529
 31
0
 0
LINE
 8
TOOL_0
 5
91
 10
2898.607
 20
1549.529
 30
0
 11
2339.323
 21
1528.566
 31
0
 0
LINE
 8
TOOL_0
 5
92
 10
2339.323
 20
1528.566
 30
0
 11
2950.081
 21
1528.566
 31
0
 0
LINE
 8
TOOL_0
 5
93
 10
2950.081
 20
1528.566
 30
0
 11
2950.081
 21
2130.478
 31
0
 0
LINE
 8
TOOL_0
 5
94
 10
2950.081
 20
2130.478
 30
0
 11
2363.04
 21
2130.478
 31
0
 0
LINE
 8
TOOL_0
 5
95
 10
2363.04
 20
2130.478
 30
0
 11
2363.04
 21
2999.009
 31
0
 0
LINE
 8
TOOL_0
 5
96
 10
2363.04
 20
2999.009
 30
0
 11
2363.04
 21
3000.009
 31
0
 0
ENDSEC
 0
EOF

