0
SECTION
2
TABLES
0
TABLE
2
LAYER
70
0
0
LAYER
2
LAYER_NAME
70
0
62
1
6
CONTINUOUS
0
ENDTAB
0
ENDSEC
 0
SECTION
 2
ENTITIES
 0
LINE
 8
TOOL_0
 5
1
 10
91.386
 20
1024.315
 30
0
 11
112.599
 21
1003.102
 31
0
 0
ARC
 8
TOOL_0
 5
2
 10
87.85
 20
1027.851
 30
0
 40
35.000371455172
 50
315.0
 51
134.99884243935
210
0
220
0
230
1.0
 0
ARC
 8
TOOL_0
 5
3
 10
87.851
 20
1027.851
 30
0
 40
35.000371455172
 50
135.0
 51
314.99884243935
210
0
220
0
230
1.0
 0
LINE
 8
TOOL_0
 5
4
 10
112.599
 20
1003.102
 30
0
 11
338.708
 21
643.709
 31
0
 0
LINE
 8
TOOL_0
 5
5
 10
338.708
 20
643.709
 30
0
 11
359.921
 21
664.922
 31
0
 0
ARC
 8
TOOL_0
 5
6
 10
352.85
 20
657.851
 30
0
 40
9.99990409954
 50
45.0
 51
90.0
210
0
220
0
230
1.0
 0
LINE
 8
TOOL_0
 5
7
 10
352.85
 20
667.851
 30
0
 11
292.85
 21
667.851
 31
0
 0
ARC
 8
TOOL_0
 5
8
 10
292.85
 20
657.851
 30
0
 40
10.0
 50
90.0
 51
180.0
210
0
220
0
230
1.0
 0
LINE
 8
TOOL_0
 5
9
 10
282.85
 20
657.851
 30
0
 11
282.85
 21
477.851
 31
0
 0
ARC
 8
TOOL_0
 5
A
 10
292.85
 20
477.851
 30
0
 40
10.0
 50
180.0
 51
270.0
210
0
220
0
230
1.0
 0
LINE
 8
TOOL_0
 5
B
 10
292.85
 20
467.851
 30
0
 11
352.85
 21
467.851
 31
0
 0
ARC
 8
TOOL_0
 5
C
 10
352.85
 20
477.851
 30
0
 40
10.0
 50
270.0
 51
0
210
0
220
0
230
1.0
 0
LINE
 8
TOOL_0
 5
D
 10
362.85
 20
477.851
 30
0
 11
362.85
 21
657.851
 31
0
 0
ARC
 8
TOOL_0
 5
E
 10
352.85
 20
657.851
 30
0
 40
10.0
 50
0
 51
45.0
210
0
220
0
230
1.0
 0
LINE
 8
TOOL_0
 5
F
 10
359.921
 20
664.922
 30
0
 11
733.836
 21
1027.851
 31
0
 0
LINE
 8
TOOL_0
 5
10
 10
733.836
 20
1027.851
 30
0
 11
763.836
 21
1027.851
 31
0
 0
ARC
 8
TOOL_0
 5
11
 10
732.671
 20
1027.851
 30
0
 40
31.165
 50
0
 51
23.003538517807
210
0
220
0
230
1.0
 0
LINE
 8
TOOL_0
 5
12
 10
761.358
 20
1040.03
 30
0
 11
751.242
 21
1063.709
 31
0
 0
ARC
 8
TOOL_0
 5
13
 10
732.85
 20
1055.852
 30
0
 40
19.999952824944
 50
23.132009097446
 51
156.867990902554
210
0
220
0
230
1.0
 0
LINE
 8
TOOL_0
 5
14
 10
714.458
 20
1063.709
 30
0
 11
704.342
 21
1040.03
 31
0
 0
ARC
 8
TOOL_0
 5
15
 10
733.028
 20
1027.851
 30
0
 40
31.164316726025
 50
156.9957430162
 51
203.002564662372
210
0
220
0
230
1.0
 0
LINE
 8
TOOL_0
 5
16
 10
704.342
 20
1015.673
 30
0
 11
714.458
 21
991.994
 31
0
 0
ARC
 8
TOOL_0
 5
17
 10
732.85
 20
999.851
 30
0
 40
19.999952824944
 50
203.132009097445
 51
336.867990902554
210
0
220
0
230
1.0
 0
LINE
 8
TOOL_0
 5
18
 10
751.242
 20
991.994
 30
0
 11
761.358
 21
1015.673
 31
0
 0
ARC
 8
TOOL_0
 5
19
 10
732.672
 20
1027.852
 30
0
 40
31.164316726025
 50
336.9957430162
 51
359.998161475437
210
0
220
0
230
1.0
 0
LINE
 8
TOOL_0
 5
1A
 10
763.836
 20
1027.851
 30
0
 11
2520.85
 21
367.851
 31
0
 0
LINE
 8
TOOL_0
 5
1B
 10
2520.85
 20
367.851
 30
0
 11
2499.637
 21
389.064
 31
0
 0
ARC
 8
TOOL_0
 5
1C
 10
2520.85
 20
367.851
 30
0
 40
29.999712298621
 50
135.0
 51
180.0
210
0
220
0
230
1.0
 0
LINE
 8
TOOL_0
 5
1D
 10
2490.85
 20
367.851
 30
0
 11
2490.85
 21
297.851
 31
0
 0
ARC
 8
TOOL_0
 5
1E
 10
2520.85
 20
297.851
 30
0
 40
30.0
 50
180.0
 51
270.0
210
0
220
0
230
1.0
 0
LINE
 8
TOOL_0
 5
1F
 10
2520.85
 20
267.851
 30
0
 11
2540.85
 21
267.851
 31
0
 0
ARC
 8
TOOL_0
 5
20
 10
2540.85
 20
277.851
 30
0
 40
10.0
 50
270.0
 51
0
210
0
220
0
230
1.0
 0
LINE
 8
TOOL_0
 5
21
 10
2550.85
 20
277.851
 30
0
 11
2550.85
 21
387.851
 31
0
 0
ARC
 8
TOOL_0
 5
22
 10
2540.85
 20
387.851
 30
0
 40
10.0
 50
0
 51
90.0
210
0
220
0
230
1.0
 0
LINE
 8
TOOL_0
 5
23
 10
2540.85
 20
397.851
 30
0
 11
2520.85
 21
397.851
 31
0
 0
ARC
 8
TOOL_0
 5
24
 10
2520.85
 20
367.851
 30
0
 40
30.0
 50
90.0
 51
135.0
210
0
220
0
230
1.0
 0
LINE
 8
TOOL_0
 5
25
 10
2499.637
 20
389.064
 30
0
 11
2443.779
 21
450.78
 31
0
 0
LINE
 8
TOOL_0
 5
26
 10
2443.779
 20
450.78
 30
0
 11
2464.992
 21
471.993
 31
0
 0
ARC
 8
TOOL_0
 5
27
 10
2450.85
 20
457.851
 30
0
 40
19.99980819908
 50
45.0
 51
90.0
210
0
220
0
230
1.0
 0
LINE
 8
TOOL_0
 5
28
 10
2450.85
 20
477.851
 30
0
 11
2390.85
 21
477.851
 31
0
 0
ARC
 8
TOOL_0
 5
29
 10
2390.85
 20
457.851
 30
0
 40
20.0
 50
90.0
 51
180.0
210
0
220
0
230
1.0
 0
LINE
 8
TOOL_0
 5
2A
 10
2370.85
 20
457.851
 30
0
 11
2370.85
 21
397.851
 31
0
 0
ARC
 8
TOOL_0
 5
2B
 10
2390.85
 20
397.851
 30
0
 40
20.0
 50
180.0
 51
270.0
210
0
220
0
230
1.0
 0
LINE
 8
TOOL_0
 5
2C
 10
2390.85
 20
377.851
 30
0
 11
2450.85
 21
377.851
 31
0
 0
ARC
 8
TOOL_0
 5
2D
 10
2450.85
 20
397.851
 30
0
 40
20.0
 50
270.0
 51
0
210
0
220
0
230
1.0
 0
LINE
 8
TOOL_0
 5
2E
 10
2470.85
 20
397.851
 30
0
 11
2470.85
 21
457.851
 31
0
 0
ARC
 8
TOOL_0
 5
2F
 10
2450.85
 20
457.851
 30
0
 40
20.0
 50
0
 51
45.0
210
0
220
0
230
1.0
 0
LINE
 8
TOOL_0
 5
30
 10
2464.992
 20
471.993
 30
0
 11
2470.779
 21
1445.78
 31
0
 0
LINE
 8
TOOL_0
 5
31
 10
2470.779
 20
1445.78
 30
0
 11
2491.992
 21
1466.993
 31
0
 0
ARC
 8
TOOL_0
 5
32
 10
2477.85
 20
1452.851
 30
0
 40
19.99980819908
 50
45.0
 51
90.0
210
0
220
0
230
1.0
 0
LINE
 8
TOOL_0
 5
33
 10
2477.85
 20
1472.851
 30
0
 11
2417.85
 21
1472.851
 31
0
 0
ARC
 8
TOOL_0
 5
34
 10
2417.85
 20
1452.851
 30
0
 40
20.0
 50
90.0
 51
180.0
210
0
220
0
230
1.0
 0
LINE
 8
TOOL_0
 5
35
 10
2397.85
 20
1452.851
 30
0
 11
2397.85
 21
1392.851
 31
0
 0
ARC
 8
TOOL_0
 5
36
 10
2417.85
 20
1392.851
 30
0
 40
20.0
 50
180.0
 51
270.0
210
0
220
0
230
1.0
 0
LINE
 8
TOOL_0
 5
37
 10
2417.85
 20
1372.851
 30
0
 11
2477.85
 21
1372.851
 31
0
 0
ARC
 8
TOOL_0
 5
38
 10
2477.85
 20
1392.851
 30
0
 40
20.0
 50
270.0
 51
0
210
0
220
0
230
1.0
 0
LINE
 8
TOOL_0
 5
39
 10
2497.85
 20
1392.851
 30
0
 11
2497.85
 21
1452.851
 31
0
 0
ARC
 8
TOOL_0
 5
3A
 10
2477.85
 20
1452.851
 30
0
 40
20.0
 50
0
 51
45.0
210
0
220
0
230
1.0
 0
LINE
 8
TOOL_0
 5
3B
 10
2491.992
 20
1466.993
 30
0
 11
2625.264
 21
1533.851
 31
0
 0
LINE
 8
TOOL_0
 5
3C
 10
2625.264
 20
1533.851
 30
0
 11
2625.264
 21
1498.851
 31
0
 0
LINE
 8
TOOL_0
 5
3D
 10
2625.264
 20
1498.851
 30
0
 11
2633.85
 21
1490.265
 31
0
 0
LINE
 8
TOOL_0
 5
3E
 10
2633.85
 20
1490.265
 30
0
 11
2633.85
 21
13.851
 31
0
 0
ARC
 8
TOOL_0
 5
3F
 10
2626.85
 20
13.851
 30
0
 40
7.0
 50
270.0
 51
0
210
0
220
0
230
1.0
 0
LINE
 8
TOOL_0
 5
40
 10
2626.85
 20
6.851
 30
0
 11
6.85
 21
6.851
 31
0
 0
LINE
 8
TOOL_0
 5
41
 10
6.85
 20
6.851
 30
0
 11
6.85
 21
1624.851
 31
0
 0
ARC
 8
TOOL_0
 5
42
 10
13.85
 20
1624.851
 30
0
 40
7.0
 50
90.0
 51
180.0
210
0
220
0
230
1.0
 0
LINE
 8
TOOL_0
 5
43
 10
13.85
 20
1631.851
 30
0
 11
487.85
 21
1631.851
 31
0
 0
LINE
 8
TOOL_0
 5
44
 10
487.85
 20
1631.851
 30
0
 11
487.85
 21
1483.851
 31
0
 0
LINE
 8
TOOL_0
 5
45
 10
487.85
 20
1483.851
 30
0
 11
452.85
 21
1483.851
 31
0
 0
ARC
 8
TOOL_0
 5
46
 10
452.85
 20
1462.851
 30
0
 40
21.0
 50
90.0
 51
237.688053502426
210
0
220
0
230
1.0
 0
LINE
 8
TOOL_0
 5
47
 10
441.625
 20
1445.103
 30
0
 11
494.294
 21
1411.793
 31
0
 0
ARC
 8
TOOL_0
 5
48
 10
504.45
 20
1427.851
 30
0
 40
19.000097368172
 50
237.688392683242
 51
333.424159673344
210
0
220
0
230
1.0
 0
LINE
 8
TOOL_0
 5
49
 10
521.442
 20
1419.351
 30
0
 11
1066.849
 21
1419.351
 31
0
 0
LINE
 8
TOOL_0
 5
4A
 10
1066.849
 20
1419.351
 30
0
 11
1066.849
 21
1382.25
 31
0
 0
ARC
 8
TOOL_0
 5
4B
 10
1065.849
 20
1377.351
 30
0
 40
5.000020099959
 50
78.463087982614
 51
180.0
210
0
220
0
230
1.0
 0
LINE
 8
TOOL_0
 5
4C
 10
1060.849
 20
1377.351
 30
0
 11
1060.849
 21
1332.851
 31
0
 0
ARC
 8
TOOL_0
 5
4D
 10
1259.849
 20
1332.851
 30
0
 40
199.0
 50
180.0
 51
270.0
210
0
220
0
230
1.0
 0
LINE
 8
TOOL_0
 5
4E
 10
1259.849
 20
1133.851
 30
0
 11
1692.849
 21
1133.851
 31
0
 0
ARC
 8
TOOL_0
 5
4F
 10
1692.849
 20
1332.851
 30
0
 40
199.0
 50
270.0
 51
359.99971208151
210
0
220
0
230
1.0
 0
LINE
 8
TOOL_0
 5
50
 10
1891.849
 20
1332.85
 30
0
 11
1891.849
 21
1490.265
 31
0
 0
LINE
 8
TOOL_0
 5
51
 10
1891.849
 20
1490.265
 30
0
 11
1900.435
 21
1498.851
 31
0
 0
LINE
 8
TOOL_0
 5
52
 10
1900.435
 20
1498.851
 30
0
 11
2625.263
 21
1498.851
 31
0
 0
LINE
 8
TOOL_0
 5
53
 10
2625.263
 20
1498.851
 30
0
 11
2630.263
 21
1498.851
 31
0
 0
LINE
 8
TOOL_0
 5
54
 10
2630.263
 20
1498.851
 30
0
 11
2739.089
 21
1024.315
 31
0
 0
LINE
 8
TOOL_0
 5
55
 10
2739.089
 20
1024.315
 30
0
 11
2760.303
 21
1003.102
 31
0
 0
ARC
 8
TOOL_0
 5
56
 10
2735.554
 20
1027.851
 30
0
 40
35.000371455172
 50
315.0
 51
134.99884243935
210
0
220
0
230
1.0
 0
ARC
 8
TOOL_0
 5
57
 10
2735.555
 20
1027.851
 30
0
 40
35.000371455172
 50
135.0
 51
314.99884243935
210
0
220
0
230
1.0
 0
LINE
 8
TOOL_0
 5
58
 10
2760.303
 20
1003.102
 30
0
 11
2986.412
 21
643.709
 31
0
 0
LINE
 8
TOOL_0
 5
59
 10
2986.412
 20
643.709
 30
0
 11
3007.625
 21
664.922
 31
0
 0
ARC
 8
TOOL_0
 5
5A
 10
3000.554
 20
657.851
 30
0
 40
9.99990409954
 50
45.0
 51
90.0
210
0
220
0
230
1.0
 0
LINE
 8
TOOL_0
 5
5B
 10
3000.554
 20
667.851
 30
0
 11
2940.554
 21
667.851
 31
0
 0
ARC
 8
TOOL_0
 5
5C
 10
2940.554
 20
657.851
 30
0
 40
10.0
 50
90.0
 51
180.0
210
0
220
0
230
1.0
 0
LINE
 8
TOOL_0
 5
5D
 10
2930.554
 20
657.851
 30
0
 11
2930.554
 21
477.851
 31
0
 0
ARC
 8
TOOL_0
 5
5E
 10
2940.554
 20
477.851
 30
0
 40
10.0
 50
180.0
 51
270.0
210
0
220
0
230
1.0
 0
LINE
 8
TOOL_0
 5
5F
 10
2940.554
 20
467.851
 30
0
 11
3000.554
 21
467.851
 31
0
 0
ARC
 8
TOOL_0
 5
60
 10
3000.554
 20
477.851
 30
0
 40
10.0
 50
270.0
 51
0
210
0
220
0
230
1.0
 0
LINE
 8
TOOL_0
 5
61
 10
3010.554
 20
477.851
 30
0
 11
3010.554
 21
657.851
 31
0
 0
ARC
 8
TOOL_0
 5
62
 10
3000.554
 20
657.851
 30
0
 40
10.0
 50
0
 51
45.0
210
0
220
0
230
1.0
 0
LINE
 8
TOOL_0
 5
63
 10
3007.625
 20
664.922
 30
0
 11
3381.54
 21
1027.851
 31
0
 0
LINE
 8
TOOL_0
 5
64
 10
3381.54
 20
1027.851
 30
0
 11
3411.54
 21
1027.851
 31
0
 0
ARC
 8
TOOL_0
 5
65
 10
3380.375
 20
1027.851
 30
0
 40
31.165
 50
0
 51
23.003538517807
210
0
220
0
230
1.0
 0
LINE
 8
TOOL_0
 5
66
 10
3409.062
 20
1040.03
 30
0
 11
3398.946
 21
1063.709
 31
0
 0
ARC
 8
TOOL_0
 5
67
 10
3380.554
 20
1055.852
 30
0
 40
19.999952824944
 50
23.132009097446
 51
156.867990902554
210
0
220
0
230
1.0
 0
LINE
 8
TOOL_0
 5
68
 10
3362.162
 20
1063.709
 30
0
 11
3352.046
 21
1040.03
 31
0
 0
ARC
 8
TOOL_0
 5
69
 10
3380.732
 20
1027.851
 30
0
 40
31.164316726025
 50
156.9957430162
 51
203.002564662371
210
0
220
0
230
1.0
 0
LINE
 8
TOOL_0
 5
6A
 10
3352.046
 20
1015.673
 30
0
 11
3362.162
 21
991.994
 31
0
 0
ARC
 8
TOOL_0
 5
6B
 10
3380.554
 20
999.851
 30
0
 40
19.999952824944
 50
203.132009097446
 51
336.867990902555
210
0
220
0
230
1.0
 0
LINE
 8
TOOL_0
 5
6C
 10
3398.946
 20
991.994
 30
0
 11
3409.062
 21
1015.673
 31
0
 0
ARC
 8
TOOL_0
 5
6D
 10
3380.376
 20
1027.852
 30
0
 40
31.164316726025
 50
336.9957430162
 51
359.998161475437
210
0
220
0
230
1.0
 0
LINE
 8
TOOL_0
 5
6E
 10
3411.54
 20
1027.851
 30
0
 11
5168.554
 21
367.851
 31
0
 0
LINE
 8
TOOL_0
 5
6F
 10
5168.554
 20
367.851
 30
0
 11
5147.341
 21
389.064
 31
0
 0
ARC
 8
TOOL_0
 5
70
 10
5168.554
 20
367.851
 30
0
 40
29.99971229862
 50
134.999999999999
 51
180.0
210
0
220
0
230
1.0
 0
LINE
 8
TOOL_0
 5
71
 10
5138.554
 20
367.851
 30
0
 11
5138.554
 21
297.851
 31
0
 0
ARC
 8
TOOL_0
 5
72
 10
5168.554
 20
297.851
 30
0
 40
30.0
 50
180.0
 51
270.0
210
0
220
0
230
1.0
 0
LINE
 8
TOOL_0
 5
73
 10
5168.554
 20
267.851
 30
0
 11
5188.554
 21
267.851
 31
0
 0
ARC
 8
TOOL_0
 5
74
 10
5188.554
 20
277.851
 30
0
 40
10.0
 50
270.0
 51
0
210
0
220
0
230
1.0
 0
LINE
 8
TOOL_0
 5
75
 10
5198.554
 20
277.851
 30
0
 11
5198.554
 21
387.851
 31
0
 0
ARC
 8
TOOL_0
 5
76
 10
5188.554
 20
387.851
 30
0
 40
10.0
 50
0
 51
90.0
210
0
220
0
230
1.0
 0
LINE
 8
TOOL_0
 5
77
 10
5188.554
 20
397.851
 30
0
 11
5168.554
 21
397.851
 31
0
 0
ARC
 8
TOOL_0
 5
78
 10
5168.554
 20
367.851
 30
0
 40
30.0
 50
90.0
 51
134.999999999999
210
0
220
0
230
1.0
 0
LINE
 8
TOOL_0
 5
79
 10
5147.341
 20
389.064
 30
0
 11
5091.483
 21
450.78
 31
0
 0
LINE
 8
TOOL_0
 5
7A
 10
5091.483
 20
450.78
 30
0
 11
5112.696
 21
471.993
 31
0
 0
ARC
 8
TOOL_0
 5
7B
 10
5098.554
 20
457.851
 30
0
 40
19.99980819908
 50
45.0
 51
90.0
210
0
220
0
230
1.0
 0
LINE
 8
TOOL_0
 5
7C
 10
5098.554
 20
477.851
 30
0
 11
5038.554
 21
477.851
 31
0
 0
ARC
 8
TOOL_0
 5
7D
 10
5038.554
 20
457.851
 30
0
 40
20.0
 50
90.0
 51
180.0
210
0
220
0
230
1.0
 0
LINE
 8
TOOL_0
 5
7E
 10
5018.554
 20
457.851
 30
0
 11
5018.554
 21
397.851
 31
0
 0
ARC
 8
TOOL_0
 5
7F
 10
5038.554
 20
397.851
 30
0
 40
20.0
 50
180.0
 51
270.0
210
0
220
0
230
1.0
 0
LINE
 8
TOOL_0
 5
80
 10
5038.554
 20
377.851
 30
0
 11
5098.554
 21
377.851
 31
0
 0
ARC
 8
TOOL_0
 5
81
 10
5098.554
 20
397.851
 30
0
 40
20.0
 50
270.0
 51
0
210
0
220
0
230
1.0
 0
LINE
 8
TOOL_0
 5
82
 10
5118.554
 20
397.851
 30
0
 11
5118.554
 21
457.851
 31
0
 0
ARC
 8
TOOL_0
 5
83
 10
5098.554
 20
457.851
 30
0
 40
20.0
 50
0
 51
45.0
210
0
220
0
230
1.0
 0
LINE
 8
TOOL_0
 5
84
 10
5112.696
 20
471.993
 30
0
 11
5118.483
 21
1445.78
 31
0
 0
LINE
 8
TOOL_0
 5
85
 10
5118.483
 20
1445.78
 30
0
 11
5139.696
 21
1466.993
 31
0
 0
ARC
 8
TOOL_0
 5
86
 10
5125.554
 20
1452.851
 30
0
 40
19.99980819908
 50
45.0
 51
90.0
210
0
220
0
230
1.0
 0
LINE
 8
TOOL_0
 5
87
 10
5125.554
 20
1472.851
 30
0
 11
5065.554
 21
1472.851
 31
0
 0
ARC
 8
TOOL_0
 5
88
 10
5065.554
 20
1452.851
 30
0
 40
20.0
 50
90.0
 51
180.0
210
0
220
0
230
1.0
 0
LINE
 8
TOOL_0
 5
89
 10
5045.554
 20
1452.851
 30
0
 11
5045.554
 21
1392.851
 31
0
 0
ARC
 8
TOOL_0
 5
8A
 10
5065.554
 20
1392.851
 30
0
 40
20.0
 50
180.0
 51
270.0
210
0
220
0
230
1.0
 0
LINE
 8
TOOL_0
 5
8B
 10
5065.554
 20
1372.851
 30
0
 11
5125.554
 21
1372.851
 31
0
 0
ARC
 8
TOOL_0
 5
8C
 10
5125.554
 20
1392.851
 30
0
 40
20.0
 50
270.0
 51
0
210
0
220
0
230
1.0
 0
LINE
 8
TOOL_0
 5
8D
 10
5145.554
 20
1392.851
 30
0
 11
5145.554
 21
1452.851
 31
0
 0
ARC
 8
TOOL_0
 5
8E
 10
5125.554
 20
1452.851
 30
0
 40
20.0
 50
0
 51
45.0
210
0
220
0
230
1.0
 0
LINE
 8
TOOL_0
 5
8F
 10
5139.696
 20
1466.993
 30
0
 11
5272.968
 21
1533.851
 31
0
 0
LINE
 8
TOOL_0
 5
90
 10
5272.968
 20
1533.851
 30
0
 11
5272.968
 21
1498.851
 31
0
 0
LINE
 8
TOOL_0
 5
91
 10
5272.968
 20
1498.851
 30
0
 11
5281.554
 21
1490.265
 31
0
 0
LINE
 8
TOOL_0
 5
92
 10
5281.554
 20
1490.265
 30
0
 11
5281.554
 21
13.851
 31
0
 0
ARC
 8
TOOL_0
 5
93
 10
5274.554
 20
13.851
 30
0
 40
7.0
 50
270.0
 51
0
210
0
220
0
230
1.0
 0
LINE
 8
TOOL_0
 5
94
 10
5274.554
 20
6.851
 30
0
 11
2654.554
 21
6.851
 31
0
 0
LINE
 8
TOOL_0
 5
95
 10
2654.554
 20
6.851
 30
0
 11
2654.554
 21
1624.851
 31
0
 0
ARC
 8
TOOL_0
 5
96
 10
2661.554
 20
1624.851
 30
0
 40
7.0
 50
90.0
 51
180.0
210
0
220
0
230
1.0
 0
LINE
 8
TOOL_0
 5
97
 10
2661.554
 20
1631.851
 30
0
 11
3135.554
 21
1631.851
 31
0
 0
LINE
 8
TOOL_0
 5
98
 10
3135.554
 20
1631.851
 30
0
 11
3135.554
 21
1483.851
 31
0
 0
LINE
 8
TOOL_0
 5
99
 10
3135.554
 20
1483.851
 30
0
 11
3100.554
 21
1483.851
 31
0
 0
ARC
 8
TOOL_0
 5
9A
 10
3100.554
 20
1462.851
 30
0
 40
21.0
 50
90.0
 51
237.688053502426
210
0
220
0
230
1.0
 0
LINE
 8
TOOL_0
 5
9B
 10
3089.329
 20
1445.103
 30
0
 11
3141.998
 21
1411.793
 31
0
 0
ARC
 8
TOOL_0
 5
9C
 10
3152.154
 20
1427.851
 30
0
 40
19.000097368172
 50
237.688392683242
 51
333.424159673344
210
0
220
0
230
1.0
 0
LINE
 8
TOOL_0
 5
9D
 10
3169.146
 20
1419.351
 30
0
 11
3714.553
 21
1419.351
 31
0
 0
LINE
 8
TOOL_0
 5
9E
 10
3714.553
 20
1419.351
 30
0
 11
3714.553
 21
1382.25
 31
0
 0
ARC
 8
TOOL_0
 5
9F
 10
3713.553
 20
1377.351
 30
0
 40
5.000020099959
 50
78.463087982614
 51
180.0
210
0
220
0
230
1.0
 0
LINE
 8
TOOL_0
 5
A0
 10
3708.553
 20
1377.351
 30
0
 11
3708.553
 21
1332.851
 31
0
 0
ARC
 8
TOOL_0
 5
A1
 10
3907.553
 20
1332.851
 30
0
 40
199.0
 50
180.0
 51
270.0
210
0
220
0
230
1.0
 0
LINE
 8
TOOL_0
 5
A2
 10
3907.553
 20
1133.851
 30
0
 11
4340.553
 21
1133.851
 31
0
 0
ARC
 8
TOOL_0
 5
A3
 10
4340.553
 20
1332.851
 30
0
 40
199.0
 50
270.0
 51
359.99971208151
210
0
220
0
230
1.0
 0
LINE
 8
TOOL_0
 5
A4
 10
4539.553
 20
1332.85
 30
0
 11
4539.553
 21
1490.265
 31
0
 0
LINE
 8
TOOL_0
 5
A5
 10
4539.553
 20
1490.265
 30
0
 11
4548.139
 21
1498.851
 31
0
 0
LINE
 8
TOOL_0
 5
A6
 10
4548.139
 20
1498.851
 30
0
 11
5272.967
 21
1498.851
 31
0
 0
LINE
 8
TOOL_0
 5
A7
 10
5272.967
 20
1498.851
 30
0
 11
5277.967
 21
1498.851
 31
0
 0
LINE
 8
TOOL_0
 5
A8
 10
5277.967
 20
1498.851
 30
0
 11
748.098
 21
1877.129
 31
0
 0
LINE
 8
TOOL_0
 5
A9
 10
748.098
 20
1877.129
 30
0
 11
778.098
 21
1877.129
 31
0
 0
LINE
 8
TOOL_0
 5
AA
 10
778.098
 20
1877.129
 30
0
 11
778.098
 21
1912.129
 31
0
 0
ARC
 8
TOOL_0
 5
AB
 10
758.098
 20
1912.129
 30
0
 40
20.0
 50
0
 51
90.0
210
0
220
0
230
1.0
 0
LINE
 8
TOOL_0
 5
AC
 10
758.098
 20
1932.129
 30
0
 11
348.098
 21
1932.129
 31
0
 0
ARC
 8
TOOL_0
 5
AD
 10
348.098
 20
1912.129
 30
0
 40
20.0
 50
90.0
 51
180.0
210
0
220
0
230
1.0
 0
LINE
 8
TOOL_0
 5
AE
 10
328.098
 20
1912.129
 30
0
 11
328.098
 21
1842.129
 31
0
 0
ARC
 8
TOOL_0
 5
AF
 10
348.098
 20
1842.129
 30
0
 40
20.0
 50
180.0
 51
270.0
210
0
220
0
230
1.0
 0
LINE
 8
TOOL_0
 5
B0
 10
348.098
 20
1822.129
 30
0
 11
758.098
 21
1822.129
 31
0
 0
ARC
 8
TOOL_0
 5
B1
 10
758.098
 20
1842.129
 30
0
 40
20.0
 50
270.0
 51
0
210
0
220
0
230
1.0
 0
LINE
 8
TOOL_0
 5
B2
 10
778.098
 20
1842.129
 30
0
 11
778.098
 21
1877.129
 31
0
 0
LINE
 8
TOOL_0
 5
B3
 10
778.098
 20
1877.129
 30
0
 11
1116.848
 21
2090.529
 31
0
 0
LINE
 8
TOOL_0
 5
B4
 10
1116.848
 20
2090.529
 30
0
 11
1099.348
 21
2073.029
 31
0
 0
LINE
 8
TOOL_0
 5
B5
 10
1099.348
 20
2073.029
 30
0
 11
1099.348
 21
1975.879
 31
0
 0
LINE
 8
TOOL_0
 5
B6
 10
1099.348
 20
1975.879
 30
0
 11
1068.098
 21
1975.879
 31
0
 0
ARC
 8
TOOL_0
 5
B7
 10
1068.098
 20
1957.129
 30
0
 40
18.75
 50
90.0
 51
180.0
210
0
220
0
230
1.0
 0
LINE
 8
TOOL_0
 5
B8
 10
1049.348
 20
1957.129
 30
0
 11
1049.348
 21
1817.129
 31
0
 0
ARC
 8
TOOL_0
 5
B9
 10
1068.098
 20
1817.129
 30
0
 40
18.75
 50
180.0
 51
270.0
210
0
220
0
230
1.0
 0
LINE
 8
TOOL_0
 5
BA
 10
1068.098
 20
1798.379
 30
0
 11
1099.348
 21
1798.379
 31
0
 0
LINE
 8
TOOL_0
 5
BB
 10
1099.348
 20
1798.379
 30
0
 11
1099.348
 21
1737.129
 31
0
 0
LINE
 8
TOOL_0
 5
BC
 10
1099.348
 20
1737.129
 30
0
 11
6.848
 21
1737.129
 31
0
 0
LINE
 8
TOOL_0
 5
BD
 10
6.848
 20
1737.129
 30
0
 11
6.848
 21
1798.379
 31
0
 0
LINE
 8
TOOL_0
 5
BE
 10
6.848
 20
1798.379
 30
0
 11
38.098
 21
1798.379
 31
0
 0
ARC
 8
TOOL_0
 5
BF
 10
38.098
 20
1817.129
 30
0
 40
18.75
 50
270.0
 51
0
210
0
220
0
230
1.0
 0
LINE
 8
TOOL_0
 5
C0
 10
56.848
 20
1817.129
 30
0
 11
56.848
 21
1957.129
 31
0
 0
ARC
 8
TOOL_0
 5
C1
 10
38.098
 20
1957.129
 30
0
 40
18.75
 50
0
 51
90.0
210
0
220
0
230
1.0
 0
LINE
 8
TOOL_0
 5
C2
 10
38.098
 20
1975.879
 30
0
 11
6.848
 21
1975.879
 31
0
 0
LINE
 8
TOOL_0
 5
C3
 10
6.848
 20
1975.879
 30
0
 11
6.848
 21
2073.029
 31
0
 0
LINE
 8
TOOL_0
 5
C4
 10
6.848
 20
2073.029
 30
0
 11
188.339
 21
2073.029
 31
0
 0
LINE
 8
TOOL_0
 5
C5
 10
188.339
 20
2073.029
 30
0
 11
257.621
 21
2033.029
 31
0
 0
LINE
 8
TOOL_0
 5
C6
 10
257.621
 20
2033.029
 30
0
 11
388.471
 21
2033.029
 31
0
 0
LINE
 8
TOOL_0
 5
C7
 10
388.471
 20
2033.029
 30
0
 11
418.471
 21
2003.029
 31
0
 0
LINE
 8
TOOL_0
 5
C8
 10
418.471
 20
2003.029
 30
0
 11
687.725
 21
2003.029
 31
0
 0
LINE
 8
TOOL_0
 5
C9
 10
687.725
 20
2003.029
 30
0
 11
717.725
 21
2033.029
 31
0
 0
LINE
 8
TOOL_0
 5
CA
 10
717.725
 20
2033.029
 30
0
 11
848.575
 21
2033.029
 31
0
 0
LINE
 8
TOOL_0
 5
CB
 10
848.575
 20
2033.029
 30
0
 11
917.857
 21
2073.029
 31
0
 0
LINE
 8
TOOL_0
 5
CC
 10
917.857
 20
2073.029
 30
0
 11
1099.348
 21
2073.029
 31
0
 0
LINE
 8
TOOL_0
 5
CD
 10
1099.348
 20
2073.029
 30
0
 11
1101.848
 21
2070.529
 31
0
 0
LINE
 8
TOOL_0
 5
CE
 10
1101.848
 20
2070.529
 30
0
 11
1812.816
 21
1749.399
 31
0
 0
LINE
 8
TOOL_0
 5
CF
 10
1812.816
 20
1749.399
 30
0
 11
1842.816
 21
1749.399
 31
0
 0
LINE
 8
TOOL_0
 5
D0
 10
1842.816
 20
1749.399
 30
0
 11
1842.816
 21
1784.399
 31
0
 0
ARC
 8
TOOL_0
 5
D1
 10
1822.816
 20
1784.399
 30
0
 40
20.0
 50
0
 51
90.0
210
0
220
0
230
1.0
 0
LINE
 8
TOOL_0
 5
D2
 10
1822.816
 20
1804.399
 30
0
 11
1412.816
 21
1804.399
 31
0
 0
ARC
 8
TOOL_0
 5
D3
 10
1412.816
 20
1784.399
 30
0
 40
20.0
 50
90.0
 51
180.0
210
0
220
0
230
1.0
 0
LINE
 8
TOOL_0
 5
D4
 10
1392.816
 20
1784.399
 30
0
 11
1392.816
 21
1714.399
 31
0
 0
ARC
 8
TOOL_0
 5
D5
 10
1412.816
 20
1714.399
 30
0
 40
20.0
 50
180.0
 51
270.0
210
0
220
0
230
1.0
 0
LINE
 8
TOOL_0
 5
D6
 10
1412.816
 20
1694.399
 30
0
 11
1822.816
 21
1694.399
 31
0
 0
ARC
 8
TOOL_0
 5
D7
 10
1822.816
 20
1714.399
 30
0
 40
20.0
 50
270.0
 51
0
210
0
220
0
230
1.0
 0
LINE
 8
TOOL_0
 5
D8
 10
1842.816
 20
1714.399
 30
0
 11
1842.816
 21
1749.399
 31
0
 0
LINE
 8
TOOL_0
 5
D9
 10
1842.816
 20
1749.399
 30
0
 11
2188.814
 21
1584.65
 31
0
 0
LINE
 8
TOOL_0
 5
DA
 10
2188.814
 20
1584.65
 30
0
 11
2164.066
 21
1609.399
 31
0
 0
LINE
 8
TOOL_0
 5
DB
 10
2164.066
 20
1609.399
 30
0
 11
1071.566
 21
1609.399
 31
0
 0
LINE
 8
TOOL_0
 5
DC
 10
1071.566
 20
1609.399
 30
0
 11
1071.566
 21
1670.649
 31
0
 0
LINE
 8
TOOL_0
 5
DD
 10
1071.566
 20
1670.649
 30
0
 11
1102.816
 21
1670.649
 31
0
 0
ARC
 8
TOOL_0
 5
DE
 10
1102.816
 20
1689.399
 30
0
 40
18.75
 50
270.0
 51
0
210
0
220
0
230
1.0
 0
LINE
 8
TOOL_0
 5
DF
 10
1121.566
 20
1689.399
 30
0
 11
1121.566
 21
1829.399
 31
0
 0
ARC
 8
TOOL_0
 5
E0
 10
1102.816
 20
1829.399
 30
0
 40
18.75
 50
0
 51
90.0
210
0
220
0
230
1.0
 0
LINE
 8
TOOL_0
 5
E1
 10
1102.816
 20
1848.149
 30
0
 11
1071.566
 21
1848.149
 31
0
 0
LINE
 8
TOOL_0
 5
E2
 10
1071.566
 20
1848.149
 30
0
 11
1071.566
 21
1945.299
 31
0
 0
LINE
 8
TOOL_0
 5
E3
 10
1071.566
 20
1945.299
 30
0
 11
1253.057
 21
1945.299
 31
0
 0
LINE
 8
TOOL_0
 5
E4
 10
1253.057
 20
1945.299
 30
0
 11
1322.339
 21
1905.299
 31
0
 0
LINE
 8
TOOL_0
 5
E5
 10
1322.339
 20
1905.299
 30
0
 11
1453.189
 21
1905.299
 31
0
 0
LINE
 8
TOOL_0
 5
E6
 10
1453.189
 20
1905.299
 30
0
 11
1483.189
 21
1875.299
 31
0
 0
LINE
 8
TOOL_0
 5
E7
 10
1483.189
 20
1875.299
 30
0
 11
1752.443
 21
1875.299
 31
0
 0
LINE
 8
TOOL_0
 5
E8
 10
1752.443
 20
1875.299
 30
0
 11
1782.443
 21
1905.299
 31
0
 0
LINE
 8
TOOL_0
 5
E9
 10
1782.443
 20
1905.299
 30
0
 11
1913.293
 21
1905.299
 31
0
 0
LINE
 8
TOOL_0
 5
EA
 10
1913.293
 20
1905.299
 30
0
 11
1982.575
 21
1945.299
 31
0
 0
LINE
 8
TOOL_0
 5
EB
 10
1982.575
 20
1945.299
 30
0
 11
2164.066
 21
1945.299
 31
0
 0
LINE
 8
TOOL_0
 5
EC
 10
2164.066
 20
1945.299
 30
0
 11
2164.066
 21
1848.149
 31
0
 0
LINE
 8
TOOL_0
 5
ED
 10
2164.066
 20
1848.149
 30
0
 11
2132.816
 21
1848.149
 31
0
 0
ARC
 8
TOOL_0
 5
EE
 10
2132.816
 20
1829.399
 30
0
 40
18.75
 50
90.0
 51
180.0
210
0
220
0
230
1.0
 0
LINE
 8
TOOL_0
 5
EF
 10
2114.066
 20
1829.399
 30
0
 11
2114.066
 21
1689.399
 31
0
 0
ARC
 8
TOOL_0
 5
F0
 10
2132.816
 20
1689.399
 30
0
 40
18.75
 50
180.0
 51
270.0
210
0
220
0
230
1.0
 0
LINE
 8
TOOL_0
 5
F1
 10
2132.816
 20
1670.649
 30
0
 11
2164.066
 21
1670.649
 31
0
 0
LINE
 8
TOOL_0
 5
F2
 10
2164.066
 20
1670.649
 30
0
 11
2164.066
 21
1609.399
 31
0
 0
LINE
 8
TOOL_0
 5
F3
 10
2164.066
 20
1609.399
 30
0
 11
2160.53
 21
1605.863
 31
0
 0
LINE
 8
TOOL_0
 5
F4
 10
2160.53
 20
1605.863
 30
0
 11
1011.996
 21
1495.478
 31
0
 0
LINE
 8
TOOL_0
 5
F5
 10
1011.996
 20
1495.478
 30
0
 11
987.247
 21
1470.729
 31
0
 0
LINE
 8
TOOL_0
 5
F6
 10
987.247
 20
1470.729
 30
0
 11
984.628
 21
1469.262
 31
0
 0
ARC
 8
TOOL_0
 5
F7
 10
954.666
 20
1470.762
 30
0
 40
29.999524062891
 50
269.998090140683
 51
357.133970511115
210
0
220
0
230
1.0
 0
LINE
 8
TOOL_0
 5
F8
 10
954.665
 20
1440.762
 30
0
 11
572.665
 21
1440.762
 31
0
 0
ARC
 8
TOOL_0
 5
F9
 10
572.665
 20
1470.762
 30
0
 40
30.0
 50
180.0
 51
270.0
210
0
220
0
230
1.0
 0
LINE
 8
TOOL_0
 5
FA
 10
542.665
 20
1470.762
 30
0
 11
542.665
 21
1672.362
 31
0
 0
ARC
 8
TOOL_0
 5
FB
 10
572.665
 20
1672.362
 30
0
 40
30.0
 50
90.0
 51
180.0
210
0
220
0
230
1.0
 0
LINE
 8
TOOL_0
 5
FC
 10
572.665
 20
1702.362
 30
0
 11
841.665
 21
1702.362
 31
0
 0
ARC
 8
TOOL_0
 5
FD
 10
841.665
 20
1672.362
 30
0
 40
30.0
 50
0
 51
90.0
210
0
220
0
230
1.0
 0
LINE
 8
TOOL_0
 5
FE
 10
871.665
 20
1672.362
 30
0
 11
871.665
 21
1581.562
 31
0
 0
ARC
 8
TOOL_0
 5
FF
 10
901.665
 20
1581.562
 30
0
 40
30.0
 50
180.0
 51
270.0
210
0
220
0
230
1.0
 0
LINE
 8
TOOL_0
 5
100
 10
901.665
 20
1551.562
 30
0
 11
954.665
 21
1551.562
 31
0
 0
ARC
 8
TOOL_0
 5
101
 10
954.665
 20
1521.562
 30
0
 40
30.0
 50
0
 51
90.0
210
0
220
0
230
1.0
 0
LINE
 8
TOOL_0
 5
102
 10
984.665
 20
1521.562
 30
0
 11
984.665
 21
1472.262
 31
0
 0
LINE
 8
TOOL_0
 5
103
 10
984.665
 20
1472.262
 30
0
 11
987.246
 21
1470.73
 31
0
 0
LINE
 8
TOOL_0
 5
104
 10
987.246
 20
1470.73
 30
0
 11
990.782
 21
1467.194
 31
0
 0
LINE
 8
TOOL_0
 5
105
 10
990.782
 20
1467.194
 30
0
 11
1641.554
 21
1236.471
 31
0
 0
LINE
 8
TOOL_0
 5
106
 10
1641.554
 20
1236.471
 30
0
 11
1616.805
 21
1211.722
 31
0
 0
LINE
 8
TOOL_0
 5
107
 10
1616.805
 20
1211.722
 30
0
 11
1614.186
 21
1210.255
 31
0
 0
ARC
 8
TOOL_0
 5
108
 10
1584.224
 20
1211.755
 30
0
 40
29.999524062891
 50
269.998090140683
 51
357.133970511115
210
0
220
0
230
1.0
 0
LINE
 8
TOOL_0
 5
109
 10
1584.223
 20
1181.755
 30
0
 11
1202.223
 21
1181.755
 31
0
 0
ARC
 8
TOOL_0
 5
10A
 10
1202.223
 20
1211.755
 30
0
 40
30.0
 50
180.0
 51
270.0
210
0
220
0
230
1.0
 0
LINE
 8
TOOL_0
 5
10B
 10
1172.223
 20
1211.755
 30
0
 11
1172.223
 21
1413.355
 31
0
 0
ARC
 8
TOOL_0
 5
10C
 10
1202.223
 20
1413.355
 30
0
 40
30.0
 50
90.0
 51
180.0
210
0
220
0
230
1.0
 0
LINE
 8
TOOL_0
 5
10D
 10
1202.223
 20
1443.355
 30
0
 11
1471.223
 21
1443.355
 31
0
 0
ARC
 8
TOOL_0
 5
10E
 10
1471.223
 20
1413.355
 30
0
 40
30.0
 50
0
 51
90.0
210
0
220
0
230
1.0
 0
LINE
 8
TOOL_0
 5
10F
 10
1501.223
 20
1413.355
 30
0
 11
1501.223
 21
1322.555
 31
0
 0
ARC
 8
TOOL_0
 5
110
 10
1531.223
 20
1322.555
 30
0
 40
30.0
 50
180.0
 51
270.0
210
0
220
0
230
1.0
 0
LINE
 8
TOOL_0
 5
111
 10
1531.223
 20
1292.555
 30
0
 11
1584.223
 21
1292.555
 31
0
 0
ARC
 8
TOOL_0
 5
112
 10
1584.223
 20
1262.555
 30
0
 40
30.0
 50
0
 51
90.0
210
0
220
0
230
1.0
 0
LINE
 8
TOOL_0
 5
113
 10
1614.223
 20
1262.555
 30
0
 11
1614.223
 21
1213.255
 31
0
 0
LINE
 8
TOOL_0
 5
114
 10
1614.223
 20
1213.255
 30
0
 11
1616.804
 21
1211.723
 31
0
 0
LINE
 8
TOOL_0
 5
115
 10
1616.804
 20
1211.723
 30
0
 11
1620.34
 21
1208.187
 31
0
 0
LINE
 8
TOOL_0
 5
116
 10
1620.34
 20
1208.187
 30
0
 11
1864.365
 21
1298.831
 31
0
 0
LINE
 8
TOOL_0
 5
117
 10
1864.365
 20
1298.831
 30
0
 11
1839.616
 21
1323.58
 31
0
 0
LINE
 8
TOOL_0
 5
118
 10
1839.616
 20
1323.58
 30
0
 11
1838.084
 21
1326.161
 31
0
 0
LINE
 8
TOOL_0
 5
119
 10
1838.084
 20
1326.161
 30
0
 11
1570.584
 21
1326.161
 31
0
 0
ARC
 8
TOOL_0
 5
11A
 10
1570.584
 20
1356.161
 30
0
 40
30.0
 50
180.0
 51
270.0
210
0
220
0
230
1.0
 0
LINE
 8
TOOL_0
 5
11B
 10
1540.584
 20
1356.161
 30
0
 11
1540.584
 21
1446.961
 31
0
 0
ARC
 8
TOOL_0
 5
11C
 10
1510.584
 20
1446.961
 30
0
 40
30.0
 50
0
 51
90.0
210
0
220
0
230
1.0
 0
LINE
 8
TOOL_0
 5
11D
 10
1510.584
 20
1476.961
 30
0
 11
1457.584
 21
1476.961
 31
0
 0
ARC
 8
TOOL_0
 5
11E
 10
1457.584
 20
1506.961
 30
0
 40
30.0
 50
180.0
 51
270.0
210
0
220
0
230
1.0
 0
LINE
 8
TOOL_0
 5
11F
 10
1427.584
 20
1506.961
 30
0
 11
1427.584
 21
1557.761
 31
0
 0
ARC
 8
TOOL_0
 5
120
 10
1457.584
 20
1557.761
 30
0
 40
30.0
 50
90.0
 51
180.0
210
0
220
0
230
1.0
 0
LINE
 8
TOOL_0
 5
121
 10
1457.584
 20
1587.761
 30
0
 11
1839.584
 21
1587.761
 31
0
 0
ARC
 8
TOOL_0
 5
122
 10
1839.584
 20
1557.761
 30
0
 40
30.0
 50
0
 51
90.0
210
0
220
0
230
1.0
 0
LINE
 8
TOOL_0
 5
123
 10
1869.584
 20
1557.761
 30
0
 11
1869.584
 21
1356.161
 31
0
 0
ARC
 8
TOOL_0
 5
124
 10
1839.584
 20
1356.161
 30
0
 40
30.0
 50
272.866029488885
 51
0
210
0
220
0
230
1.0
 0
LINE
 8
TOOL_0
 5
125
 10
1841.084
 20
1326.199
 30
0
 11
1839.617
 21
1323.58
 31
0
 0
LINE
 8
TOOL_0
 5
126
 10
1839.617
 20
1323.58
 30
0
 11
1836.081
 21
1320.044
 31
0
 0
LINE
 8
TOOL_0
 5
127
 10
1836.081
 20
1320.044
 30
0
 11
2879.274
 21
1896.897
 31
0
 0
LINE
 8
TOOL_0
 5
128
 10
2879.274
 20
1896.897
 30
0
 11
2900.487
 21
1918.111
 31
0
 0
ARC
 8
TOOL_0
 5
129
 10
2886.345
 20
1903.969
 30
0
 40
19.99980819908
 50
45.0
 51
90.0
210
0
220
0
230
1.0
 0
LINE
 8
TOOL_0
 5
12A
 10
2886.345
 20
1923.969
 30
0
 11
2476.345
 21
1923.969
 31
0
 0
ARC
 8
TOOL_0
 5
12B
 10
2476.345
 20
1903.969
 30
0
 40
20.0
 50
90.0
 51
180.0
210
0
220
0
230
1.0
 0
LINE
 8
TOOL_0
 5
12C
 10
2456.345
 20
1903.969
 30
0
 11
2456.345
 21
1833.969
 31
0
 0
ARC
 8
TOOL_0
 5
12D
 10
2476.345
 20
1833.969
 30
0
 40
20.0
 50
180.0
 51
270.0
210
0
220
0
230
1.0
 0
LINE
 8
TOOL_0
 5
12E
 10
2476.345
 20
1813.969
 30
0
 11
2886.345
 21
1813.969
 31
0
 0
ARC
 8
TOOL_0
 5
12F
 10
2886.345
 20
1833.969
 30
0
 40
20.0
 50
270.0
 51
0
210
0
220
0
230
1.0
 0
LINE
 8
TOOL_0
 5
130
 10
2906.345
 20
1833.969
 30
0
 11
2906.345
 21
1903.969
 31
0
 0
ARC
 8
TOOL_0
 5
131
 10
2886.345
 20
1903.969
 30
0
 40
20.0
 50
0
 51
45.0
210
0
220
0
230
1.0
 0
LINE
 8
TOOL_0
 5
132
 10
2900.487
 20
1918.111
 30
0
 11
3252.344
 21
2089.617
 31
0
 0
LINE
 8
TOOL_0
 5
133
 10
3252.344
 20
2089.617
 30
0
 11
3227.595
 21
2064.869
 31
0
 0
LINE
 8
TOOL_0
 5
134
 10
3227.595
 20
2064.869
 30
0
 11
3227.595
 21
1967.719
 31
0
 0
LINE
 8
TOOL_0
 5
135
 10
3227.595
 20
1967.719
 30
0
 11
3196.345
 21
1967.719
 31
0
 0
ARC
 8
TOOL_0
 5
136
 10
3196.345
 20
1948.969
 30
0
 40
18.75
 50
90.0
 51
180.0
210
0
220
0
230
1.0
 0
LINE
 8
TOOL_0
 5
137
 10
3177.595
 20
1948.969
 30
0
 11
3177.595
 21
1808.969
 31
0
 0
ARC
 8
TOOL_0
 5
138
 10
3196.345
 20
1808.969
 30
0
 40
18.75
 50
180.0
 51
270.0
210
0
220
0
230
1.0
 0
LINE
 8
TOOL_0
 5
139
 10
3196.345
 20
1790.219
 30
0
 11
3227.595
 21
1790.219
 31
0
 0
LINE
 8
TOOL_0
 5
13A
 10
3227.595
 20
1790.219
 30
0
 11
3227.595
 21
1728.969
 31
0
 0
LINE
 8
TOOL_0
 5
13B
 10
3227.595
 20
1728.969
 30
0
 11
2135.095
 21
1728.969
 31
0
 0
LINE
 8
TOOL_0
 5
13C
 10
2135.095
 20
1728.969
 30
0
 11
2135.095
 21
1790.219
 31
0
 0
LINE
 8
TOOL_0
 5
13D
 10
2135.095
 20
1790.219
 30
0
 11
2166.345
 21
1790.219
 31
0
 0
ARC
 8
TOOL_0
 5
13E
 10
2166.345
 20
1808.969
 30
0
 40
18.75
 50
270.0
 51
0
210
0
220
0
230
1.0
 0
LINE
 8
TOOL_0
 5
13F
 10
2185.095
 20
1808.969
 30
0
 11
2185.095
 21
1948.969
 31
0
 0
ARC
 8
TOOL_0
 5
140
 10
2166.345
 20
1948.969
 30
0
 40
18.75
 50
0
 51
90.0
210
0
220
0
230
1.0
 0
LINE
 8
TOOL_0
 5
141
 10
2166.345
 20
1967.719
 30
0
 11
2135.095
 21
1967.719
 31
0
 0
LINE
 8
TOOL_0
 5
142
 10
2135.095
 20
1967.719
 30
0
 11
2135.095
 21
2064.869
 31
0
 0
LINE
 8
TOOL_0
 5
143
 10
2135.095
 20
2064.869
 30
0
 11
2316.586
 21
2064.869
 31
0
 0
LINE
 8
TOOL_0
 5
144
 10
2316.586
 20
2064.869
 30
0
 11
2385.868
 21
2024.869
 31
0
 0
LINE
 8
TOOL_0
 5
145
 10
2385.868
 20
2024.869
 30
0
 11
2516.718
 21
2024.869
 31
0
 0
LINE
 8
TOOL_0
 5
146
 10
2516.718
 20
2024.869
 30
0
 11
2546.718
 21
1994.869
 31
0
 0
LINE
 8
TOOL_0
 5
147
 10
2546.718
 20
1994.869
 30
0
 11
2815.972
 21
1994.869
 31
0
 0
LINE
 8
TOOL_0
 5
148
 10
2815.972
 20
1994.869
 30
0
 11
2845.972
 21
2024.869
 31
0
 0
LINE
 8
TOOL_0
 5
149
 10
2845.972
 20
2024.869
 30
0
 11
2976.822
 21
2024.869
 31
0
 0
LINE
 8
TOOL_0
 5
14A
 10
2976.822
 20
2024.869
 30
0
 11
3046.104
 21
2064.869
 31
0
 0
LINE
 8
TOOL_0
 5
14B
 10
3046.104
 20
2064.869
 30
0
 11
3227.595
 21
2064.869
 31
0
 0
LINE
 8
TOOL_0
 5
14C
 10
3227.595
 20
2064.869
 30
0
 11
3231.131
 21
2061.333
 31
0
 0
LINE
 8
TOOL_0
 5
14D
 10
3231.131
 20
2061.333
 30
0
 11
3942.806
 21
1773.425
 31
0
 0
LINE
 8
TOOL_0
 5
14E
 10
3942.806
 20
1773.425
 30
0
 11
3964.019
 21
1794.638
 31
0
 0
ARC
 8
TOOL_0
 5
14F
 10
3949.877
 20
1780.496
 30
0
 40
19.99980819908
 50
45.0
 51
90.0
210
0
220
0
230
1.0
 0
LINE
 8
TOOL_0
 5
150
 10
3949.877
 20
1800.496
 30
0
 11
3539.877
 21
1800.496
 31
0
 0
ARC
 8
TOOL_0
 5
151
 10
3539.877
 20
1780.496
 30
0
 40
20.0
 50
90.0
 51
180.0
210
0
220
0
230
1.0
 0
LINE
 8
TOOL_0
 5
152
 10
3519.877
 20
1780.496
 30
0
 11
3519.877
 21
1710.496
 31
0
 0
ARC
 8
TOOL_0
 5
153
 10
3539.877
 20
1710.496
 30
0
 40
20.0
 50
180.0
 51
270.0
210
0
220
0
230
1.0
 0
LINE
 8
TOOL_0
 5
154
 10
3539.877
 20
1690.496
 30
0
 11
3949.877
 21
1690.496
 31
0
 0
ARC
 8
TOOL_0
 5
155
 10
3949.877
 20
1710.496
 30
0
 40
20.0
 50
270.0
 51
0
210
0
220
0
230
1.0
 0
LINE
 8
TOOL_0
 5
156
 10
3969.877
 20
1710.496
 30
0
 11
3969.877
 21
1780.496
 31
0
 0
ARC
 8
TOOL_0
 5
157
 10
3949.877
 20
1780.496
 30
0
 40
20.0
 50
0
 51
45.0
210
0
220
0
230
1.0
 0
LINE
 8
TOOL_0
 5
158
 10
3964.019
 20
1794.638
 30
0
 11
4308.627
 21
1910.321
 31
0
 0
LINE
 8
TOOL_0
 5
159
 10
4308.627
 20
1910.321
 30
0
 11
4291.127
 21
1892.821
 31
0
 0
LINE
 8
TOOL_0
 5
15A
 10
4291.127
 20
1892.821
 30
0
 11
4291.127
 21
1844.246
 31
0
 0
LINE
 8
TOOL_0
 5
15B
 10
4291.127
 20
1844.246
 30
0
 11
4259.877
 21
1844.246
 31
0
 0
ARC
 8
TOOL_0
 5
15C
 10
4259.877
 20
1825.496
 30
0
 40
18.75
 50
90.0
 51
180.0
210
0
220
0
230
1.0
 0
LINE
 8
TOOL_0
 5
15D
 10
4241.127
 20
1825.496
 30
0
 11
4241.127
 21
1685.496
 31
0
 0
ARC
 8
TOOL_0
 5
15E
 10
4259.877
 20
1685.496
 30
0
 40
18.75
 50
180.0
 51
270.0
210
0
220
0
230
1.0
 0
LINE
 8
TOOL_0
 5
15F
 10
4259.877
 20
1666.746
 30
0
 11
4291.127
 21
1666.746
 31
0
 0
LINE
 8
TOOL_0
 5
160
 10
4291.127
 20
1666.746
 30
0
 11
4291.127
 21
1605.496
 31
0
 0
LINE
 8
TOOL_0
 5
161
 10
4291.127
 20
1605.496
 30
0
 11
3198.627
 21
1605.496
 31
0
 0
LINE
 8
TOOL_0
 5
162
 10
3198.627
 20
1605.496
 30
0
 11
3198.627
 21
1666.746
 31
0
 0
LINE
 8
TOOL_0
 5
163
 10
3198.627
 20
1666.746
 30
0
 11
3229.877
 21
1666.746
 31
0
 0
ARC
 8
TOOL_0
 5
164
 10
3229.877
 20
1685.496
 30
0
 40
18.75
 50
270.0
 51
0
210
0
220
0
230
1.0
 0
LINE
 8
TOOL_0
 5
165
 10
3248.627
 20
1685.496
 30
0
 11
3248.627
 21
1825.496
 31
0
 0
ARC
 8
TOOL_0
 5
166
 10
3229.877
 20
1825.496
 30
0
 40
18.75
 50
0
 51
90.0
210
0
220
0
230
1.0
 0
LINE
 8
TOOL_0
 5
167
 10
3229.877
 20
1844.246
 30
0
 11
3198.627
 21
1844.246
 31
0
 0
LINE
 8
TOOL_0
 5
168
 10
3198.627
 20
1844.246
 30
0
 11
3198.627
 21
1941.396
 31
0
 0
LINE
 8
TOOL_0
 5
169
 10
3198.627
 20
1941.396
 30
0
 11
3380.118
 21
1941.396
 31
0
 0
LINE
 8
TOOL_0
 5
16A
 10
3380.118
 20
1941.396
 30
0
 11
3449.4
 21
1901.396
 31
0
 0
LINE
 8
TOOL_0
 5
16B
 10
3449.4
 20
1901.396
 30
0
 11
3580.25
 21
1901.396
 31
0
 0
LINE
 8
TOOL_0
 5
16C
 10
3580.25
 20
1901.396
 30
0
 11
3610.25
 21
1871.396
 31
0
 0
LINE
 8
TOOL_0
 5
16D
 10
3610.25
 20
1871.396
 30
0
 11
3879.504
 21
1871.396
 31
0
 0
LINE
 8
TOOL_0
 5
16E
 10
3879.504
 20
1871.396
 30
0
 11
3909.504
 21
1901.396
 31
0
 0
LINE
 8
TOOL_0
 5
16F
 10
3909.504
 20
1901.396
 30
0
 11
4040.354
 21
1901.396
 31
0
 0
LINE
 8
TOOL_0
 5
170
 10
4040.354
 20
1901.396
 30
0
 11
4109.636
 21
1941.396
 31
0
 0
LINE
 8
TOOL_0
 5
171
 10
4109.636
 20
1941.396
 30
0
 11
4291.127
 21
1941.396
 31
0
 0
LINE
 8
TOOL_0
 5
172
 10
4291.127
 20
1941.396
 30
0
 11
4291.127
 21
1892.821
 31
0
 0
LINE
 8
TOOL_0
 5
173
 10
4291.127
 20
1892.821
 30
0
 11
4293.627
 21
1890.321
 31
0
 0
LINE
 8
TOOL_0
 5
174
 10
4293.627
 20
1890.321
 30
0
 11
4063.195
 21
1597.691
 31
0
 0
LINE
 8
TOOL_0
 5
175
 10
4063.195
 20
1597.691
 30
0
 11
4063.195
 21
1572.942
 31
0
 0
ARC
 8
TOOL_0
 5
176
 10
4041.982
 20
1551.729
 30
0
 40
29.999712298621
 50
0
 51
45.0
210
0
220
0
230
1.0
 0
LINE
 8
TOOL_0
 5
177
 10
4071.982
 20
1551.729
 30
0
 11
4071.982
 21
1350.129
 31
0
 0
ARC
 8
TOOL_0
 5
178
 10
4041.982
 20
1350.129
 30
0
 40
30.0
 50
270.0
 51
0
210
0
220
0
230
1.0
 0
LINE
 8
TOOL_0
 5
179
 10
4041.982
 20
1320.129
 30
0
 11
3772.982
 21
1320.129
 31
0
 0
ARC
 8
TOOL_0
 5
17A
 10
3772.982
 20
1350.129
 30
0
 40
30.0
 50
180.0
 51
270.0
210
0
220
0
230
1.0
 0
LINE
 8
TOOL_0
 5
17B
 10
3742.982
 20
1350.129
 30
0
 11
3742.982
 21
1440.929
 31
0
 0
ARC
 8
TOOL_0
 5
17C
 10
3712.982
 20
1440.929
 30
0
 40
30.0
 50
0
 51
90.0
210
0
220
0
230
1.0
 0
LINE
 8
TOOL_0
 5
17D
 10
3712.982
 20
1470.929
 30
0
 11
3659.982
 21
1470.929
 31
0
 0
ARC
 8
TOOL_0
 5
17E
 10
3659.982
 20
1500.929
 30
0
 40
30.0
 50
180.0
 51
270.0
210
0
220
0
230
1.0
 0
LINE
 8
TOOL_0
 5
17F
 10
3629.982
 20
1500.929
 30
0
 11
3629.982
 21
1551.729
 31
0
 0
ARC
 8
TOOL_0
 5
180
 10
3659.982
 20
1551.729
 30
0
 40
30.0
 50
90.0
 51
180.0
210
0
220
0
230
1.0
 0
LINE
 8
TOOL_0
 5
181
 10
3659.982
 20
1581.729
 30
0
 11
4041.982
 21
1581.729
 31
0
 0
ARC
 8
TOOL_0
 5
182
 10
4041.982
 20
1551.729
 30
0
 40
30.0
 50
45.0
 51
90.0
210
0
220
0
230
1.0
 0
LINE
 8
TOOL_0
 5
183
 10
4063.195
 20
1572.942
 30
0
 11
4066.731
 21
1572.942
 31
0
 0
LINE
 8
TOOL_0
 5
184
 10
4066.731
 20
1572.942
 30
0
 11
4466.415
 21
1204.972
 31
0
 0
LINE
 8
TOOL_0
 5
185
 10
4466.415
 20
1204.972
 30
0
 11
4431.415
 21
1204.972
 31
0
 0
LINE
 8
TOOL_0
 5
186
 10
4431.415
 20
1204.972
 30
0
 11
4428.516
 21
1205.75
 31
0
 0
ARC
 8
TOOL_0
 5
187
 10
4408.39
 20
1227.997
 30
0
 40
29.999748082276
 50
270.0
 51
312.134425091852
210
0
220
0
230
1.0
 0
LINE
 8
TOOL_0
 5
188
 10
4408.39
 20
1197.997
 30
0
 11
4206.79
 21
1197.997
 31
0
 0
ARC
 8
TOOL_0
 5
189
 10
4206.79
 20
1227.997
 30
0
 40
30.0
 50
180.0
 51
270.0
210
0
220
0
230
1.0
 0
LINE
 8
TOOL_0
 5
18A
 10
4176.79
 20
1227.997
 30
0
 11
4176.79
 21
1496.997
 31
0
 0
ARC
 8
TOOL_0
 5
18B
 10
4206.79
 20
1496.997
 30
0
 40
30.0
 50
90.0
 51
180.0
210
0
220
0
230
1.0
 0
LINE
 8
TOOL_0
 5
18C
 10
4206.79
 20
1526.997
 30
0
 11
4297.59
 21
1526.997
 31
0
 0
ARC
 8
TOOL_0
 5
18D
 10
4297.59
 20
1556.997
 30
0
 40
30.0
 50
270.0
 51
0
210
0
220
0
230
1.0
 0
LINE
 8
TOOL_0
 5
18E
 10
4327.59
 20
1556.997
 30
0
 11
4327.59
 21
1609.997
 31
0
 0
ARC
 8
TOOL_0
 5
18F
 10
4357.59
 20
1609.997
 30
0
 40
30.0
 50
90.0
 51
180.0
210
0
220
0
230
1.0
 0
LINE
 8
TOOL_0
 5
190
 10
4357.59
 20
1639.997
 30
0
 11
4408.39
 21
1639.997
 31
0
 0
ARC
 8
TOOL_0
 5
191
 10
4408.39
 20
1609.997
 30
0
 40
30.0
 50
0
 51
90.0
210
0
220
0
230
1.0
 0
LINE
 8
TOOL_0
 5
192
 10
4438.39
 20
1609.997
 30
0
 11
4438.39
 21
1227.997
 31
0
 0
ARC
 8
TOOL_0
 5
193
 10
4408.39
 20
1227.997
 30
0
 40
30.0
 50
317.865574908149
 51
0
210
0
220
0
230
1.0
 0
LINE
 8
TOOL_0
 5
194
 10
4430.637
 20
1207.871
 30
0
 11
4431.415
 21
1204.972
 31
0
 0
LINE
 8
TOOL_0
 5
195
 10
4431.415
 20
1204.972
 30
0
 11
4431.415
 21
1199.972
 31
0
 0
LINE
 8
TOOL_0
 5
196
 10
4431.415
 20
1199.972
 30
0
 11
5006.337
 21
1894.059
 31
0
 0
LINE
 8
TOOL_0
 5
197
 10
5006.337
 20
1894.059
 30
0
 11
5027.55
 21
1915.272
 31
0
 0
ARC
 8
TOOL_0
 5
198
 10
5013.408
 20
1901.13
 30
0
 40
19.99980819908
 50
45.0
 51
90.0
210
0
220
0
230
1.0
 0
LINE
 8
TOOL_0
 5
199
 10
5013.408
 20
1921.13
 30
0
 11
4603.408
 21
1921.13
 31
0
 0
ARC
 8
TOOL_0
 5
19A
 10
4603.408
 20
1901.13
 30
0
 40
20.0
 50
90.0
 51
180.0
210
0
220
0
230
1.0
 0
LINE
 8
TOOL_0
 5
19B
 10
4583.408
 20
1901.13
 30
0
 11
4583.408
 21
1831.13
 31
0
 0
ARC
 8
TOOL_0
 5
19C
 10
4603.408
 20
1831.13
 30
0
 40
20.0
 50
180.0
 51
270.0
210
0
220
0
230
1.0
 0
LINE
 8
TOOL_0
 5
19D
 10
4603.408
 20
1811.13
 30
0
 11
5013.408
 21
1811.13
 31
0
 0
ARC
 8
TOOL_0
 5
19E
 10
5013.408
 20
1831.13
 30
0
 40
20.0
 50
270.0
 51
0
210
0
220
0
230
1.0
 0
LINE
 8
TOOL_0
 5
19F
 10
5033.408
 20
1831.13
 30
0
 11
5033.408
 21
1901.13
 31
0
 0
ARC
 8
TOOL_0
 5
1A0
 10
5013.408
 20
1901.13
 30
0
 40
20.0
 50
0
 51
45.0
210
0
220
0
230
1.0
 0
LINE
 8
TOOL_0
 5
1A1
 10
5027.55
 20
1915.272
 30
0
 11
5379.407
 21
2086.779
 31
0
 0
LINE
 8
TOOL_0
 5
1A2
 10
5379.407
 20
2086.779
 30
0
 11
5354.658
 21
2062.03
 31
0
 0
LINE
 8
TOOL_0
 5
1A3
 10
5354.658
 20
2062.03
 30
0
 11
5354.658
 21
1964.88
 31
0
 0
LINE
 8
TOOL_0
 5
1A4
 10
5354.658
 20
1964.88
 30
0
 11
5323.408
 21
1964.88
 31
0
 0
ARC
 8
TOOL_0
 5
1A5
 10
5323.408
 20
1946.13
 30
0
 40
18.75
 50
90.0
 51
180.0
210
0
220
0
230
1.0
 0
LINE
 8
TOOL_0
 5
1A6
 10
5304.658
 20
1946.13
 30
0
 11
5304.658
 21
1806.13
 31
0
 0
ARC
 8
TOOL_0
 5
1A7
 10
5323.408
 20
1806.13
 30
0
 40
18.75
 50
180.0
 51
270.0
210
0
220
0
230
1.0
 0
LINE
 8
TOOL_0
 5
1A8
 10
5323.408
 20
1787.38
 30
0
 11
5354.658
 21
1787.38
 31
0
 0
LINE
 8
TOOL_0
 5
1A9
 10
5354.658
 20
1787.38
 30
0
 11
5354.658
 21
1726.13
 31
0
 0
LINE
 8
TOOL_0
 5
1AA
 10
5354.658
 20
1726.13
 30
0
 11
4262.158
 21
1726.13
 31
0
 0
LINE
 8
TOOL_0
 5
1AB
 10
4262.158
 20
1726.13
 30
0
 11
4262.158
 21
1787.38
 31
0
 0
LINE
 8
TOOL_0
 5
1AC
 10
4262.158
 20
1787.38
 30
0
 11
4293.408
 21
1787.38
 31
0
 0
ARC
 8
TOOL_0
 5
1AD
 10
4293.408
 20
1806.13
 30
0
 40
18.75
 50
270.0
 51
0
210
0
220
0
230
1.0
 0
LINE
 8
TOOL_0
 5
1AE
 10
4312.158
 20
1806.13
 30
0
 11
4312.158
 21
1946.13
 31
0
 0
ARC
 8
TOOL_0
 5
1AF
 10
4293.408
 20
1946.13
 30
0
 40
18.75
 50
0
 51
90.0
210
0
220
0
230
1.0
 0
LINE
 8
TOOL_0
 5
1B0
 10
4293.408
 20
1964.88
 30
0
 11
4262.158
 21
1964.88
 31
0
 0
LINE
 8
TOOL_0
 5
1B1
 10
4262.158
 20
1964.88
 30
0
 11
4262.158
 21
2062.03
 31
0
 0
LINE
 8
TOOL_0
 5
1B2
 10
4262.158
 20
2062.03
 30
0
 11
4443.649
 21
2062.03
 31
0
 0
LINE
 8
TOOL_0
 5
1B3
 10
4443.649
 20
2062.03
 30
0
 11
4512.931
 21
2022.03
 31
0
 0
LINE
 8
TOOL_0
 5
1B4
 10
4512.931
 20
2022.03
 30
0
 11
4643.781
 21
2022.03
 31
0
 0
LINE
 8
TOOL_0
 5
1B5
 10
4643.781
 20
2022.03
 30
0
 11
4673.781
 21
1992.03
 31
0
 0
LINE
 8
TOOL_0
 5
1B6
 10
4673.781
 20
1992.03
 30
0
 11
4943.035
 21
1992.03
 31
0
 0
LINE
 8
TOOL_0
 5
1B7
 10
4943.035
 20
1992.03
 30
0
 11
4973.035
 21
2022.03
 31
0
 0
LINE
 8
TOOL_0
 5
1B8
 10
4973.035
 20
2022.03
 30
0
 11
5103.885
 21
2022.03
 31
0
 0
LINE
 8
TOOL_0
 5
1B9
 10
5103.885
 20
2022.03
 30
0
 11
5173.167
 21
2062.03
 31
0
 0
LINE
 8
TOOL_0
 5
1BA
 10
5173.167
 20
2062.03
 30
0
 11
5354.658
 21
2062.03
 31
0
 0
LINE
 8
TOOL_0
 5
1BB
 10
5354.658
 20
2062.03
 30
0
 11
5358.194
 21
2058.494
 31
0
 0
LINE
 8
TOOL_0
 5
1BC
 10
5358.194
 20
2058.494
 30
0
 11
5526.74
 21
355.172
 31
0
 0
LINE
 8
TOOL_0
 5
1BD
 10
5526.74
 20
355.172
 30
0
 11
5547.953
 21
333.959
 31
0
 0
ARC
 8
TOOL_0
 5
1BE
 10
5533.811
 20
348.101
 30
0
 40
19.99980819908
 50
315.0
 51
0
210
0
220
0
230
1.0
 0
LINE
 8
TOOL_0
 5
1BF
 10
5553.811
 20
348.101
 30
0
 11
5553.811
 21
758.101
 31
0
 0
ARC
 8
TOOL_0
 5
1C0
 10
5533.811
 20
758.101
 30
0
 40
20.0
 50
0
 51
90.0
210
0
220
0
230
1.0
 0
LINE
 8
TOOL_0
 5
1C1
 10
5533.811
 20
778.101
 30
0
 11
5463.811
 21
778.101
 31
0
 0
ARC
 8
TOOL_0
 5
1C2
 10
5463.811
 20
758.101
 30
0
 40
20.0
 50
90.0
 51
180.0
210
0
220
0
230
1.0
 0
LINE
 8
TOOL_0
 5
1C3
 10
5443.811
 20
758.101
 30
0
 11
5443.811
 21
348.101
 31
0
 0
ARC
 8
TOOL_0
 5
1C4
 10
5463.811
 20
348.101
 30
0
 40
20.0
 50
180.0
 51
270.0
210
0
220
0
230
1.0
 0
LINE
 8
TOOL_0
 5
1C5
 10
5463.811
 20
328.101
 30
0
 11
5533.811
 21
328.101
 31
0
 0
ARC
 8
TOOL_0
 5
1C6
 10
5533.811
 20
348.101
 30
0
 40
20.0
 50
270.0
 51
315.0
210
0
220
0
230
1.0
 0
LINE
 8
TOOL_0
 5
1C7
 10
5547.953
 20
333.959
 30
0
 11
5560.061
 21
4.976
 31
0
 0
LINE
 8
TOOL_0
 5
1C8
 10
5560.061
 20
4.976
 30
0
 11
5577.561
 21
22.476
 31
0
 0
LINE
 8
TOOL_0
 5
1C9
 10
5577.561
 20
22.476
 30
0
 11
5577.561
 21
38.101
 31
0
 0
ARC
 8
TOOL_0
 5
1CA
 10
5558.811
 20
38.101
 30
0
 40
18.75
 50
0
 51
90.0
210
0
220
0
230
1.0
 0
LINE
 8
TOOL_0
 5
1CB
 10
5558.811
 20
56.851
 30
0
 11
5418.811
 21
56.851
 31
0
 0
ARC
 8
TOOL_0
 5
1CC
 10
5418.811
 20
38.101
 30
0
 40
18.75
 50
90.0
 51
180.0
210
0
220
0
230
1.0
 0
LINE
 8
TOOL_0
 5
1CD
 10
5400.061
 20
38.101
 30
0
 11
5400.061
 21
6.851
 31
0
 0
LINE
 8
TOOL_0
 5
1CE
 10
5400.061
 20
6.851
 30
0
 11
5302.911
 21
6.851
 31
0
 0
LINE
 8
TOOL_0
 5
1CF
 10
5302.911
 20
6.851
 30
0
 11
5302.911
 21
188.342
 31
0
 0
LINE
 8
TOOL_0
 5
1D0
 10
5302.911
 20
188.342
 30
0
 11
5342.911
 21
257.624
 31
0
 0
LINE
 8
TOOL_0
 5
1D1
 10
5342.911
 20
257.624
 30
0
 11
5342.911
 21
388.474
 31
0
 0
LINE
 8
TOOL_0
 5
1D2
 10
5342.911
 20
388.474
 30
0
 11
5372.911
 21
418.474
 31
0
 0
LINE
 8
TOOL_0
 5
1D3
 10
5372.911
 20
418.474
 30
0
 11
5372.911
 21
687.728
 31
0
 0
LINE
 8
TOOL_0
 5
1D4
 10
5372.911
 20
687.728
 30
0
 11
5342.911
 21
717.728
 31
0
 0
LINE
 8
TOOL_0
 5
1D5
 10
5342.911
 20
717.728
 30
0
 11
5342.911
 21
848.578
 31
0
 0
LINE
 8
TOOL_0
 5
1D6
 10
5342.911
 20
848.578
 30
0
 11
5302.911
 21
917.86
 31
0
 0
LINE
 8
TOOL_0
 5
1D7
 10
5302.911
 20
917.86
 30
0
 11
5302.911
 21
1099.351
 31
0
 0
LINE
 8
TOOL_0
 5
1D8
 10
5302.911
 20
1099.351
 30
0
 11
5400.061
 21
1099.351
 31
0
 0
LINE
 8
TOOL_0
 5
1D9
 10
5400.061
 20
1099.351
 30
0
 11
5400.061
 21
1068.101
 31
0
 0
ARC
 8
TOOL_0
 5
1DA
 10
5418.811
 20
1068.101
 30
0
 40
18.75
 50
180.0
 51
270.0
210
0
220
0
230
1.0
 0
LINE
 8
TOOL_0
 5
1DB
 10
5418.811
 20
1049.351
 30
0
 11
5558.811
 21
1049.351
 31
0
 0
ARC
 8
TOOL_0
 5
1DC
 10
5558.811
 20
1068.101
 30
0
 40
18.75
 50
270.0
 51
0
210
0
220
0
230
1.0
 0
LINE
 8
TOOL_0
 5
1DD
 10
5577.561
 20
1068.101
 30
0
 11
5577.561
 21
1099.351
 31
0
 0
LINE
 8
TOOL_0
 5
1DE
 10
5577.561
 20
1099.351
 30
0
 11
5638.811
 21
1099.351
 31
0
 0
LINE
 8
TOOL_0
 5
1DF
 10
5638.811
 20
1099.351
 30
0
 11
5638.811
 21
6.851
 31
0
 0
LINE
 8
TOOL_0
 5
1E0
 10
5638.811
 20
6.851
 30
0
 11
5577.561
 21
6.851
 31
0
 0
LINE
 8
TOOL_0
 5
1E1
 10
5577.561
 20
6.851
 30
0
 11
5577.561
 21
22.476
 31
0
 0
LINE
 8
TOOL_0
 5
1E2
 10
5577.561
 20
22.476
 30
0
 11
5575.061
 21
24.976
 31
0
 0
LINE
 8
TOOL_0
 5
1E3
 10
5575.061
 20
24.976
 30
0
 11
5883.962
 21
355.172
 31
0
 0
LINE
 8
TOOL_0
 5
1E4
 10
5883.962
 20
355.172
 30
0
 11
5905.175
 21
333.959
 31
0
 0
ARC
 8
TOOL_0
 5
1E5
 10
5891.033
 20
348.101
 30
0
 40
19.99980819908
 50
315.0
 51
0
210
0
220
0
230
1.0
 0
LINE
 8
TOOL_0
 5
1E6
 10
5911.033
 20
348.101
 30
0
 11
5911.033
 21
758.101
 31
0
 0
ARC
 8
TOOL_0
 5
1E7
 10
5891.033
 20
758.101
 30
0
 40
20.0
 50
0
 51
90.0
210
0
220
0
230
1.0
 0
LINE
 8
TOOL_0
 5
1E8
 10
5891.033
 20
778.101
 30
0
 11
5821.033
 21
778.101
 31
0
 0
ARC
 8
TOOL_0
 5
1E9
 10
5821.033
 20
758.101
 30
0
 40
20.0
 50
90.0
 51
180.0
210
0
220
0
230
1.0
 0
LINE
 8
TOOL_0
 5
1EA
 10
5801.033
 20
758.101
 30
0
 11
5801.033
 21
348.101
 31
0
 0
ARC
 8
TOOL_0
 5
1EB
 10
5821.033
 20
348.101
 30
0
 40
20.0
 50
180.0
 51
270.0
210
0
220
0
230
1.0
 0
LINE
 8
TOOL_0
 5
1EC
 10
5821.033
 20
328.101
 30
0
 11
5891.033
 21
328.101
 31
0
 0
ARC
 8
TOOL_0
 5
1ED
 10
5891.033
 20
348.101
 30
0
 40
20.0
 50
270.0
 51
315.0
210
0
220
0
230
1.0
 0
LINE
 8
TOOL_0
 5
1EE
 10
5905.175
 20
333.959
 30
0
 11
5917.283
 21
4.976
 31
0
 0
LINE
 8
TOOL_0
 5
1EF
 10
5917.283
 20
4.976
 30
0
 11
5934.783
 21
22.476
 31
0
 0
LINE
 8
TOOL_0
 5
1F0
 10
5934.783
 20
22.476
 30
0
 11
5934.783
 21
38.101
 31
0
 0
ARC
 8
TOOL_0
 5
1F1
 10
5916.033
 20
38.101
 30
0
 40
18.75
 50
0
 51
90.0
210
0
220
0
230
1.0
 0
LINE
 8
TOOL_0
 5
1F2
 10
5916.033
 20
56.851
 30
0
 11
5776.033
 21
56.851
 31
0
 0
ARC
 8
TOOL_0
 5
1F3
 10
5776.033
 20
38.101
 30
0
 40
18.75
 50
90.0
 51
180.0
210
0
220
0
230
1.0
 0
LINE
 8
TOOL_0
 5
1F4
 10
5757.283
 20
38.101
 30
0
 11
5757.283
 21
6.851
 31
0
 0
LINE
 8
TOOL_0
 5
1F5
 10
5757.283
 20
6.851
 30
0
 11
5660.133
 21
6.851
 31
0
 0
LINE
 8
TOOL_0
 5
1F6
 10
5660.133
 20
6.851
 30
0
 11
5660.133
 21
188.342
 31
0
 0
LINE
 8
TOOL_0
 5
1F7
 10
5660.133
 20
188.342
 30
0
 11
5700.133
 21
257.624
 31
0
 0
LINE
 8
TOOL_0
 5
1F8
 10
5700.133
 20
257.624
 30
0
 11
5700.133
 21
388.474
 31
0
 0
LINE
 8
TOOL_0
 5
1F9
 10
5700.133
 20
388.474
 30
0
 11
5730.133
 21
418.474
 31
0
 0
LINE
 8
TOOL_0
 5
1FA
 10
5730.133
 20
418.474
 30
0
 11
5730.133
 21
687.728
 31
0
 0
LINE
 8
TOOL_0
 5
1FB
 10
5730.133
 20
687.728
 30
0
 11
5700.133
 21
717.728
 31
0
 0
LINE
 8
TOOL_0
 5
1FC
 10
5700.133
 20
717.728
 30
0
 11
5700.133
 21
848.578
 31
0
 0
LINE
 8
TOOL_0
 5
1FD
 10
5700.133
 20
848.578
 30
0
 11
5660.133
 21
917.86
 31
0
 0
LINE
 8
TOOL_0
 5
1FE
 10
5660.133
 20
917.86
 30
0
 11
5660.133
 21
1099.351
 31
0
 0
LINE
 8
TOOL_0
 5
1FF
 10
5660.133
 20
1099.351
 30
0
 11
5757.283
 21
1099.351
 31
0
 0
LINE
 8
TOOL_0
 5
200
 10
5757.283
 20
1099.351
 30
0
 11
5757.283
 21
1068.101
 31
0
 0
ARC
 8
TOOL_0
 5
201
 10
5776.033
 20
1068.101
 30
0
 40
18.75
 50
180.0
 51
270.0
210
0
220
0
230
1.0
 0
LINE
 8
TOOL_0
 5
202
 10
5776.033
 20
1049.351
 30
0
 11
5916.033
 21
1049.351
 31
0
 0
ARC
 8
TOOL_0
 5
203
 10
5916.033
 20
1068.101
 30
0
 40
18.75
 50
270.0
 51
0
210
0
220
0
230
1.0
 0
LINE
 8
TOOL_0
 5
204
 10
5934.783
 20
1068.101
 30
0
 11
5934.783
 21
1099.351
 31
0
 0
LINE
 8
TOOL_0
 5
205
 10
5934.783
 20
1099.351
 30
0
 11
5996.033
 21
1099.351
 31
0
 0
LINE
 8
TOOL_0
 5
206
 10
5996.033
 20
1099.351
 30
0
 11
5996.033
 21
6.851
 31
0
 0
LINE
 8
TOOL_0
 5
207
 10
5996.033
 20
6.851
 30
0
 11
5934.783
 21
6.851
 31
0
 0
LINE
 8
TOOL_0
 5
208
 10
5934.783
 20
6.851
 30
0
 11
5934.783
 21
22.476
 31
0
 0
LINE
 8
TOOL_0
 5
209
 10
5934.783
 20
22.476
 30
0
 11
5932.283
 21
24.976
 31
0
 0
LINE
 8
TOOL_0
 5
20A
 10
5932.283
 20
24.976
 30
0
 11
5932.283
 21
0
 31
0
 0
LINE
 8
TOOL_0
 5
20B
 10
5932.283
 20
0
 30
0
 11
5658.89
 21
1381.368
 31
0
 0
LINE
 8
TOOL_0
 5
20C
 10
5658.89
 20
1381.368
 30
0
 11
5634.141
 21
1356.619
 31
0
 0
LINE
 8
TOOL_0
 5
20D
 10
5634.141
 20
1356.619
 30
0
 11
5631.56
 21
1355.087
 31
0
 0
LINE
 8
TOOL_0
 5
20E
 10
5631.56
 20
1355.087
 30
0
 11
5631.56
 21
1265.787
 31
0
 0
ARC
 8
TOOL_0
 5
20F
 10
5661.56
 20
1265.787
 30
0
 40
30.0
 50
180.0
 51
270.0
210
0
220
0
230
1.0
 0
LINE
 8
TOOL_0
 5
210
 10
5661.56
 20
1235.787
 30
0
 11
5714.56
 21
1235.787
 31
0
 0
ARC
 8
TOOL_0
 5
211
 10
5714.56
 20
1205.787
 30
0
 40
30.0
 50
0
 51
90.0
210
0
220
0
230
1.0
 0
LINE
 8
TOOL_0
 5
212
 10
5744.56
 20
1205.787
 30
0
 11
5744.56
 21
1154.987
 31
0
 0
ARC
 8
TOOL_0
 5
213
 10
5714.56
 20
1154.987
 30
0
 40
30.0
 50
270.0
 51
0
210
0
220
0
230
1.0
 0
LINE
 8
TOOL_0
 5
214
 10
5714.56
 20
1124.987
 30
0
 11
5332.56
 21
1124.987
 31
0
 0
ARC
 8
TOOL_0
 5
215
 10
5332.56
 20
1154.987
 30
0
 40
30.0
 50
180.0
 51
270.0
210
0
220
0
230
1.0
 0
LINE
 8
TOOL_0
 5
216
 10
5302.56
 20
1154.987
 30
0
 11
5302.56
 21
1356.587
 31
0
 0
ARC
 8
TOOL_0
 5
217
 10
5332.56
 20
1356.587
 30
0
 40
30.0
 50
90.0
 51
180.0
210
0
220
0
230
1.0
 0
LINE
 8
TOOL_0
 5
218
 10
5332.56
 20
1386.587
 30
0
 11
5601.56
 21
1386.587
 31
0
 0
ARC
 8
TOOL_0
 5
219
 10
5601.56
 20
1356.587
 30
0
 40
30.0
 50
2.866029488885
 51
90.0
210
0
220
0
230
1.0
 0
LINE
 8
TOOL_0
 5
21A
 10
5631.522
 20
1358.087
 30
0
 11
5634.141
 21
1356.62
 31
0
 0
LINE
 8
TOOL_0
 5
21B
 10
5634.141
 20
1356.62
 30
0
 11
5637.677
 21
1353.084
 31
0
 0
LINE
 8
TOOL_0
 5
21C
 10
5637.677
 20
1353.084
 30
0
 11
6088.44
 21
1411.065
 31
0
 0
LINE
 8
TOOL_0
 5
21D
 10
6088.44
 20
1411.065
 30
0
 11
6088.44
 21
1376.065
 31
0
 0
LINE
 8
TOOL_0
 5
21E
 10
6088.44
 20
1376.065
 30
0
 11
6087.662
 21
1373.166
 31
0
 0
ARC
 8
TOOL_0
 5
21F
 10
6065.415
 20
1353.04
 30
0
 40
29.999748082276
 50
0
 51
42.134425091851
210
0
220
0
230
1.0
 0
LINE
 8
TOOL_0
 5
220
 10
6095.415
 20
1353.04
 30
0
 11
6095.415
 21
1151.44
 31
0
 0
ARC
 8
TOOL_0
 5
221
 10
6065.415
 20
1151.44
 30
0
 40
30.0
 50
270.0
 51
0
210
0
220
0
230
1.0
 0
LINE
 8
TOOL_0
 5
222
 10
6065.415
 20
1121.44
 30
0
 11
5796.415
 21
1121.44
 31
0
 0
ARC
 8
TOOL_0
 5
223
 10
5796.415
 20
1151.44
 30
0
 40
30.0
 50
180.0
 51
270.0
210
0
220
0
230
1.0
 0
LINE
 8
TOOL_0
 5
224
 10
5766.415
 20
1151.44
 30
0
 11
5766.415
 21
1242.24
 31
0
 0
ARC
 8
TOOL_0
 5
225
 10
5736.415
 20
1242.24
 30
0
 40
30.0
 50
0
 51
90.0
210
0
220
0
230
1.0
 0
LINE
 8
TOOL_0
 5
226
 10
5736.415
 20
1272.24
 30
0
 11
5683.415
 21
1272.24
 31
0
 0
ARC
 8
TOOL_0
 5
227
 10
5683.415
 20
1302.24
 30
0
 40
30.0
 50
180.0
 51
270.0
210
0
220
0
230
1.0
 0
LINE
 8
TOOL_0
 5
228
 10
5653.415
 20
1302.24
 30
0
 11
5653.415
 21
1353.04
 31
0
 0
ARC
 8
TOOL_0
 5
229
 10
5683.415
 20
1353.04
 30
0
 40
30.0
 50
90.0
 51
180.0
210
0
220
0
230
1.0
 0
LINE
 8
TOOL_0
 5
22A
 10
5683.415
 20
1383.04
 30
0
 11
6065.415
 21
1383.04
 31
0
 0
ARC
 8
TOOL_0
 5
22B
 10
6065.415
 20
1353.04
 30
0
 40
30.0
 50
47.866856158949
 51
90.0
210
0
220
0
230
1.0
 0
LINE
 8
TOOL_0
 5
22C
 10
6085.541
 20
1375.288
 30
0
 11
6088.44
 21
1376.066
 31
0
 0
LINE
 8
TOOL_0
 5
22D
 10
6088.44
 20
1376.066
 30
0
 11
6093.44
 21
1376.066
 31
0
 0
LINE
 8
TOOL_0
 5
22E
 10
6093.44
 20
1376.066
 30
0
 11
6093.44
 21
0.002
 31
0
 0
LINE
 8
TOOL_0
 5
22F
 10
6093.44
 20
0.002
 30
0
 11
5804.608
 21
2009.374
 31
0
 0
LINE
 8
TOOL_0
 5
230
 10
5804.608
 20
2009.374
 30
0
 11
5779.859
 21
1984.625
 31
0
 0
LINE
 8
TOOL_0
 5
231
 10
5779.859
 20
1984.625
 30
0
 11
5777.278
 21
1983.093
 31
0
 0
LINE
 8
TOOL_0
 5
232
 10
5777.278
 20
1983.093
 30
0
 11
5777.278
 21
1893.793
 31
0
 0
ARC
 8
TOOL_0
 5
233
 10
5807.278
 20
1893.793
 30
0
 40
30.0
 50
180.0
 51
270.0
210
0
220
0
230
1.0
 0
LINE
 8
TOOL_0
 5
234
 10
5807.278
 20
1863.793
 30
0
 11
5860.278
 21
1863.793
 31
0
 0
ARC
 8
TOOL_0
 5
235
 10
5860.278
 20
1833.793
 30
0
 40
30.0
 50
0
 51
90.0
210
0
220
0
230
1.0
 0
LINE
 8
TOOL_0
 5
236
 10
5890.278
 20
1833.793
 30
0
 11
5890.278
 21
1782.993
 31
0
 0
ARC
 8
TOOL_0
 5
237
 10
5860.278
 20
1782.993
 30
0
 40
30.0
 50
270.0
 51
0
210
0
220
0
230
1.0
 0
LINE
 8
TOOL_0
 5
238
 10
5860.278
 20
1752.993
 30
0
 11
5478.278
 21
1752.993
 31
0
 0
ARC
 8
TOOL_0
 5
239
 10
5478.278
 20
1782.993
 30
0
 40
30.0
 50
180.0
 51
270.0
210
0
220
0
230
1.0
 0
LINE
 8
TOOL_0
 5
23A
 10
5448.278
 20
1782.993
 30
0
 11
5448.278
 21
1984.593
 31
0
 0
ARC
 8
TOOL_0
 5
23B
 10
5478.278
 20
1984.593
 30
0
 40
30.0
 50
90.0
 51
180.0
210
0
220
0
230
1.0
 0
LINE
 8
TOOL_0
 5
23C
 10
5478.278
 20
2014.593
 30
0
 11
5747.278
 21
2014.593
 31
0
 0
ARC
 8
TOOL_0
 5
23D
 10
5747.278
 20
1984.593
 30
0
 40
30.0
 50
2.866029488885
 51
90.0
210
0
220
0
230
1.0
 0
LINE
 8
TOOL_0
 5
23E
 10
5777.24
 20
1986.093
 30
0
 11
5779.859
 21
1984.626
 31
0
 0
LINE
 8
TOOL_0
 5
23F
 10
5779.859
 20
1984.626
 30
0
 11
5783.395
 21
1981.09
 31
0
 0
ENDSEC
 0
EOF

