0
SECTION
2
TABLES
0
TABLE
2
LAYER
70
0
0
LAYER
2
LAYER_NAME
70
0
62
1
6
CONTINUOUS
0
ENDTAB
0
ENDSEC
 0
SECTION
 2
ENTITIES
 0
LINE
 8
TOOL_0
 5
1
 10
945.983
 20
1716.198
 30
0
 11
975.983
 21
1716.198
 31
0
 0
LINE
 8
TOOL_0
 5
2
 10
975.983
 20
1716.198
 30
0
 11
975.983
 21
1801.198
 31
0
 0
ARC
 8
TOOL_0
 5
3
 10
875.983
 20
1801.198
 30
0
 40
100.0
 50
0
 51
89.999427042205
210
0
220
0
230
1.0
 0
LINE
 8
TOOL_0
 5
4
 10
875.984
 20
1901.198
 30
0
 11
475.983
 21
1901.198
 31
0
 0
ARC
 8
TOOL_0
 5
5
 10
475.983
 20
1801.198
 30
0
 40
100.0
 50
90.0
 51
180.0
210
0
220
0
230
1.0
 0
LINE
 8
TOOL_0
 5
6
 10
375.983
 20
1801.198
 30
0
 11
375.983
 21
1631.198
 31
0
 0
ARC
 8
TOOL_0
 5
7
 10
475.983
 20
1631.198
 30
0
 40
100.0
 50
180.0
 51
270.0
210
0
220
0
230
1.0
 0
LINE
 8
TOOL_0
 5
8
 10
475.983
 20
1531.198
 30
0
 11
875.983
 21
1531.198
 31
0
 0
ARC
 8
TOOL_0
 5
9
 10
875.983
 20
1631.198
 30
0
 40
100.0
 50
270.0
 51
359.999427042205
210
0
220
0
230
1.0
 0
LINE
 8
TOOL_0
 5
A
 10
975.983
 20
1631.197
 30
0
 11
975.983
 21
1716.198
 31
0
 0
LINE
 8
TOOL_0
 5
B
 10
975.983
 20
1716.198
 30
0
 11
972.447
 21
1719.734
 31
0
 0
LINE
 8
TOOL_0
 5
C
 10
972.447
 20
1719.734
 30
0
 11
1276.732
 21
1275.449
 31
0
 0
LINE
 8
TOOL_0
 5
D
 10
1276.732
 20
1275.449
 30
0
 11
1246.732
 21
1275.449
 31
0
 0
LINE
 8
TOOL_0
 5
E
 10
1246.732
 20
1275.449
 30
0
 11
20.232
 21
1275.449
 31
0
 0
LINE
 8
TOOL_0
 5
F
 10
20.232
 20
1275.449
 30
0
 11
20.232
 21
2156.949
 31
0
 0
LINE
 8
TOOL_0
 5
10
 10
20.232
 20
2156.949
 30
0
 11
1246.732
 21
2156.949
 31
0
 0
LINE
 8
TOOL_0
 5
11
 10
1246.732
 20
2156.949
 30
0
 11
1246.732
 21
1275.449
 31
0
 0
LINE
 8
TOOL_0
 5
12
 10
1246.732
 20
1275.449
 30
0
 11
1246.732
 21
1270.449
 31
0
 0
LINE
 8
TOOL_0
 5
13
 10
1246.732
 20
1270.449
 30
0
 11
771.825
 21
2325.123
 31
0
 0
LINE
 8
TOOL_0
 5
14
 10
771.825
 20
2325.123
 30
0
 11
771.825
 21
2295.123
 31
0
 0
LINE
 8
TOOL_0
 5
15
 10
771.825
 20
2295.123
 30
0
 11
771.825
 21
2213.623
 31
0
 0
LINE
 8
TOOL_0
 5
16
 10
771.825
 20
2213.623
 30
0
 11
20.325
 21
2213.623
 31
0
 0
LINE
 8
TOOL_0
 5
17
 10
20.325
 20
2213.623
 30
0
 11
20.325
 21
2295.123
 31
0
 0
LINE
 8
TOOL_0
 5
18
 10
20.325
 20
2295.123
 30
0
 11
771.825
 21
2295.123
 31
0
 0
LINE
 8
TOOL_0
 5
19
 10
771.825
 20
2295.123
 30
0
 11
776.825
 21
2295.123
 31
0
 0
LINE
 8
TOOL_0
 5
1A
 10
776.825
 20
2295.123
 30
0
 11
722.203
 21
1217.106
 31
0
 0
LINE
 8
TOOL_0
 5
1B
 10
722.203
 20
1217.106
 30
0
 11
1300.083
 21
1217.106
 31
0
 0
LINE
 8
TOOL_0
 5
1C
 10
1300.083
 20
1217.106
 30
0
 11
1300.083
 21
2197.296
 31
0
 0
LINE
 8
TOOL_0
 5
1D
 10
1300.083
 20
2197.296
 30
0
 11
819.692
 21
2197.296
 31
0
 0
LINE
 8
TOOL_0
 5
1E
 10
819.692
 20
2197.296
 30
0
 11
819.692
 21
2449.002
 31
0
 0
LINE
 8
TOOL_0
 5
1F
 10
819.692
 20
2449.002
 30
0
 11
819.692
 21
2450.002
 31
0
 0
ENDSEC
 0
EOF

