0
SECTION
2
TABLES
0
TABLE
2
LAYER
70
0
0
LAYER
2
LAYER_NAME
70
0
62
1
6
CONTINUOUS
0
ENDTAB
0
ENDSEC
 0
SECTION
 2
ENTITIES
 0
LINE
 8
TOOL_0
 5
1
 10
727.487
 20
91.735
 30
0
 11
695.725
 21
92.819
 31
0
 0
LINE
 8
TOOL_0
 5
2
 10
695.725
 20
92.819
 30
0
 11
523.679
 21
30.882
 31
0
 0
ARC
 8
TOOL_0
 5
3
 10
455.596
 20
220.0
 30
0
 40
200.999783116798
 50
269.99971494637
 51
289.799015820429
210
0
220
0
230
1.0
 0
LINE
 8
TOOL_0
 5
4
 10
455.595
 20
19.0
 30
0
 11
120.985
 21
19.0
 31
0
 0
ARC
 8
TOOL_0
 5
5
 10
121.009
 20
69.055
 30
0
 40
50.055005753671
 50
223.29111574087
 51
269.972528246869
210
0
220
0
230
1.0
 0
LINE
 8
TOOL_0
 5
6
 10
84.575
 20
34.732
 30
0
 11
46.588
 21
75.093
 31
0
 0
ARC
 8
TOOL_0
 5
7
 10
120.5
 20
144.658
 30
0
 40
101.50011314772
 50
181.109292764977
 51
223.264609752199
210
0
220
0
230
1.0
 0
ARC
 8
TOOL_0
 5
8
 10
1188.89
 20
155.001
 30
0
 40
1169.93574332311
 50
179.493265201601
 51
180.602776235275
210
0
220
0
230
1.0
 0
ARC
 8
TOOL_0
 5
9
 10
120.563
 20
165.317
 30
0
 40
101.563004731054
 50
136.74988958938
 51
179.982511651785
210
0
220
0
230
1.0
 0
LINE
 8
TOOL_0
 5
A
 10
46.588
 20
234.906
 30
0
 11
84.575
 21
275.267
 31
0
 0
ARC
 8
TOOL_0
 5
B
 10
121.009
 20
240.943
 30
0
 40
50.055702292546
 50
90.02747120431
 51
136.708051099309
210
0
220
0
230
1.0
 0
LINE
 8
TOOL_0
 5
C
 10
120.985
 20
290.999
 30
0
 11
455.596
 21
290.999
 31
0
 0
ARC
 8
TOOL_0
 5
D
 10
455.596
 20
89.999
 30
0
 40
201.0
 50
70.200984179571
 51
90.0
210
0
220
0
230
1.0
 0
LINE
 8
TOOL_0
 5
E
 10
523.679
 20
279.117
 30
0
 11
707.998
 21
212.762
 31
0
 0
ARC
 8
TOOL_0
 5
F
 10
775.403
 20
399.999
 30
0
 40
199.000322095217
 50
250.201210332977
 51
269.99971208151
210
0
220
0
230
1.0
 0
LINE
 8
TOOL_0
 5
10
 10
775.402
 20
200.999
 30
0
 11
1061.999
 21
200.999
 31
0
 0
ARC
 8
TOOL_0
 5
11
 10
1061.999
 20
170.999
 30
0
 40
30.0
 50
0
 51
90.0
210
0
220
0
230
1.0
 0
LINE
 8
TOOL_0
 5
12
 10
1091.999
 20
170.999
 30
0
 11
1091.999
 21
138.999
 31
0
 0
ARC
 8
TOOL_0
 5
13
 10
1061.999
 20
138.999
 30
0
 40
30.0
 50
270.0
 51
0
210
0
220
0
230
1.0
 0
LINE
 8
TOOL_0
 5
14
 10
1061.999
 20
108.999
 30
0
 11
775.403
 21
108.999
 31
0
 0
ARC
 8
TOOL_0
 5
15
 10
775.403
 20
-90.001
 30
0
 40
199.0
 50
90.0
 51
109.798789667023
210
0
220
0
230
1.0
 0
LINE
 8
TOOL_0
 5
16
 10
707.998
 20
97.236
 30
0
 11
695.725
 21
92.818
 31
0
 0
LINE
 8
TOOL_0
 5
17
 10
695.725
 20
92.818
 30
0
 11
693.392
 21
88.193
 31
0
 0
LINE
 8
TOOL_0
 5
18
 10
693.392
 20
88.193
 30
0
 11
573.706
 21
396.62
 31
0
 0
LINE
 8
TOOL_0
 5
19
 10
573.706
 20
396.62
 30
0
 11
542.954
 21
396.824
 31
0
 0
LINE
 8
TOOL_0
 5
1A
 10
542.954
 20
396.824
 30
0
 11
430.496
 21
344.384
 31
0
 0
ARC
 8
TOOL_0
 5
1B
 10
409.048
 20
390.379
 30
0
 40
50.749943142825
 50
270.0
 51
295.000183423018
210
0
220
0
230
1.0
 0
LINE
 8
TOOL_0
 5
1C
 10
409.048
 20
339.629
 30
0
 11
266.426
 21
339.629
 31
0
 0
ARC
 8
TOOL_0
 5
1D
 10
266.426
 20
289.629
 30
0
 40
50.0
 50
90.0
 51
115.000278822611
210
0
220
0
230
1.0
 0
LINE
 8
TOOL_0
 5
1E
 10
245.295
 20
334.944
 30
0
 11
200.717
 21
314.157
 31
0
 0
ARC
 8
TOOL_0
 5
1F
 10
179.163
 20
360.379
 30
0
 40
51.00047254683
 50
270.0
 51
295.000333377021
210
0
220
0
230
1.0
 0
LINE
 8
TOOL_0
 5
20
 10
179.163
 20
309.379
 30
0
 11
139.324
 21
309.379
 31
0
 0
ARC
 8
TOOL_0
 5
21
 10
139.324
 20
360.379
 30
0
 40
51.0
 50
222.799752759984
 51
270.0
210
0
220
0
230
1.0
 0
LINE
 8
TOOL_0
 5
22
 10
101.904
 20
325.728
 30
0
 11
37.638
 21
395.129
 31
0
 0
ARC
 8
TOOL_0
 5
23
 10
88.999
 20
442.69
 30
0
 40
70.000007442857
 50
180.0
 51
222.80011562078
210
0
220
0
230
1.0
 0
ARC
 8
TOOL_0
 5
24
 10
747.75
 20
450.379
 30
0
 40
728.791561917398
 50
179.26671457002
 51
180.604501266165
210
0
220
0
230
1.0
 0
ARC
 8
TOOL_0
 5
25
 10
89.067
 20
458.041
 30
0
 40
70.068784961636
 50
137.221465025895
 51
178.638388650238
210
0
220
0
230
1.0
 0
LINE
 8
TOOL_0
 5
26
 10
37.638
 20
505.629
 30
0
 11
101.904
 21
575.03
 31
0
 0
ARC
 8
TOOL_0
 5
27
 10
139.324
 20
540.378
 30
0
 40
51.000171607554
 50
90.0
 51
137.199422933132
210
0
220
0
230
1.0
 0
LINE
 8
TOOL_0
 5
28
 10
139.324
 20
591.378
 30
0
 11
179.164
 21
591.378
 31
0
 0
ARC
 8
TOOL_0
 5
29
 10
179.164
 20
540.378
 30
0
 40
51.0
 50
64.999666622979
 51
90.0
210
0
220
0
230
1.0
 0
LINE
 8
TOOL_0
 5
2A
 10
200.718
 20
586.6
 30
0
 11
245.296
 21
565.813
 31
0
 0
ARC
 8
TOOL_0
 5
2B
 10
266.427
 20
611.128
 30
0
 40
49.999683859001
 50
244.999721177388
 51
270.0
210
0
220
0
230
1.0
 0
LINE
 8
TOOL_0
 5
2C
 10
266.427
 20
561.128
 30
0
 11
409.049
 21
561.128
 31
0
 0
ARC
 8
TOOL_0
 5
2D
 10
409.049
 20
510.378
 30
0
 40
50.75
 50
64.999816576983
 51
90.0
210
0
220
0
230
1.0
 0
LINE
 8
TOOL_0
 5
2E
 10
430.497
 20
556.373
 30
0
 11
560.52
 21
495.742
 31
0
 0
ARC
 8
TOOL_0
 5
2F
 10
581.334
 20
540.378
 30
0
 40
49.250330882137
 50
245.000114534572
 51
270.0
210
0
220
0
230
1.0
 0
LINE
 8
TOOL_0
 5
30
 10
581.334
 20
491.128
 30
0
 11
671.5
 21
491.128
 31
0
 0
ARC
 8
TOOL_0
 5
31
 10
671.5
 20
471.128
 30
0
 40
20.0
 50
0
 51
90.0
210
0
220
0
230
1.0
 0
LINE
 8
TOOL_0
 5
32
 10
691.5
 20
471.128
 30
0
 11
691.5
 21
429.628
 31
0
 0
ARC
 8
TOOL_0
 5
33
 10
671.5
 20
429.628
 30
0
 40
20.0
 50
270.0
 51
0
210
0
220
0
230
1.0
 0
LINE
 8
TOOL_0
 5
34
 10
671.5
 20
409.628
 30
0
 11
581.335
 21
409.628
 31
0
 0
ARC
 8
TOOL_0
 5
35
 10
581.335
 20
360.378
 30
0
 40
49.25
 50
90.0
 51
114.999885465428
210
0
220
0
230
1.0
 0
LINE
 8
TOOL_0
 5
36
 10
560.521
 20
405.014
 30
0
 11
542.956
 21
396.823
 31
0
 0
LINE
 8
TOOL_0
 5
37
 10
542.956
 20
396.823
 30
0
 11
541.795
 21
391.829
 31
0
 0
LINE
 8
TOOL_0
 5
38
 10
541.795
 20
391.829
 30
0
 11
573.708
 21
696.625
 31
0
 0
LINE
 8
TOOL_0
 5
39
 10
573.708
 20
696.625
 30
0
 11
542.956
 21
696.829
 31
0
 0
LINE
 8
TOOL_0
 5
3A
 10
542.956
 20
696.829
 30
0
 11
430.498
 21
644.389
 31
0
 0
ARC
 8
TOOL_0
 5
3B
 10
409.05
 20
690.384
 30
0
 40
50.749943142825
 50
270.0
 51
295.000183423018
210
0
220
0
230
1.0
 0
LINE
 8
TOOL_0
 5
3C
 10
409.05
 20
639.634
 30
0
 11
266.428
 21
639.634
 31
0
 0
ARC
 8
TOOL_0
 5
3D
 10
266.428
 20
589.634
 30
0
 40
50.0
 50
90.0
 51
115.000278822611
210
0
220
0
230
1.0
 0
LINE
 8
TOOL_0
 5
3E
 10
245.297
 20
634.949
 30
0
 11
200.719
 21
614.162
 31
0
 0
ARC
 8
TOOL_0
 5
3F
 10
179.165
 20
660.384
 30
0
 40
51.00047254683
 50
270.0
 51
295.000333377021
210
0
220
0
230
1.0
 0
LINE
 8
TOOL_0
 5
40
 10
179.165
 20
609.384
 30
0
 11
139.326
 21
609.384
 31
0
 0
ARC
 8
TOOL_0
 5
41
 10
139.326
 20
660.384
 30
0
 40
51.0
 50
222.799752759984
 51
270.0
210
0
220
0
230
1.0
 0
LINE
 8
TOOL_0
 5
42
 10
101.906
 20
625.733
 30
0
 11
37.64
 21
695.134
 31
0
 0
ARC
 8
TOOL_0
 5
43
 10
89.001
 20
742.695
 30
0
 40
70.000007442857
 50
180.0
 51
222.80011562078
210
0
220
0
230
1.0
 0
ARC
 8
TOOL_0
 5
44
 10
747.752
 20
750.384
 30
0
 40
728.791561917398
 50
179.26671457002
 51
180.604501266165
210
0
220
0
230
1.0
 0
ARC
 8
TOOL_0
 5
45
 10
89.069
 20
758.046
 30
0
 40
70.068784961636
 50
137.221465025895
 51
178.638388650238
210
0
220
0
230
1.0
 0
LINE
 8
TOOL_0
 5
46
 10
37.64
 20
805.634
 30
0
 11
101.906
 21
875.035
 31
0
 0
ARC
 8
TOOL_0
 5
47
 10
139.326
 20
840.383
 30
0
 40
51.000171607554
 50
90.0
 51
137.199422933132
210
0
220
0
230
1.0
 0
LINE
 8
TOOL_0
 5
48
 10
139.326
 20
891.383
 30
0
 11
179.166
 21
891.383
 31
0
 0
ARC
 8
TOOL_0
 5
49
 10
179.166
 20
840.383
 30
0
 40
51.0
 50
64.999666622979
 51
90.0
210
0
220
0
230
1.0
 0
LINE
 8
TOOL_0
 5
4A
 10
200.72
 20
886.605
 30
0
 11
245.298
 21
865.818
 31
0
 0
ARC
 8
TOOL_0
 5
4B
 10
266.429
 20
911.133
 30
0
 40
49.999683859001
 50
244.999721177388
 51
270.0
210
0
220
0
230
1.0
 0
LINE
 8
TOOL_0
 5
4C
 10
266.429
 20
861.133
 30
0
 11
409.051
 21
861.133
 31
0
 0
ARC
 8
TOOL_0
 5
4D
 10
409.051
 20
810.383
 30
0
 40
50.75
 50
64.999816576983
 51
90.0
210
0
220
0
230
1.0
 0
LINE
 8
TOOL_0
 5
4E
 10
430.499
 20
856.378
 30
0
 11
560.522
 21
795.747
 31
0
 0
ARC
 8
TOOL_0
 5
4F
 10
581.336
 20
840.383
 30
0
 40
49.250330882137
 50
245.000114534572
 51
270.0
210
0
220
0
230
1.0
 0
LINE
 8
TOOL_0
 5
50
 10
581.336
 20
791.133
 30
0
 11
671.502
 21
791.133
 31
0
 0
ARC
 8
TOOL_0
 5
51
 10
671.502
 20
771.133
 30
0
 40
20.0
 50
0
 51
90.0
210
0
220
0
230
1.0
 0
LINE
 8
TOOL_0
 5
52
 10
691.502
 20
771.133
 30
0
 11
691.502
 21
729.633
 31
0
 0
ARC
 8
TOOL_0
 5
53
 10
671.502
 20
729.633
 30
0
 40
20.0
 50
270.0
 51
0
210
0
220
0
230
1.0
 0
LINE
 8
TOOL_0
 5
54
 10
671.502
 20
709.633
 30
0
 11
581.337
 21
709.633
 31
0
 0
ARC
 8
TOOL_0
 5
55
 10
581.337
 20
660.383
 30
0
 40
49.25
 50
90.0
 51
114.999885465428
210
0
220
0
230
1.0
 0
LINE
 8
TOOL_0
 5
56
 10
560.523
 20
705.019
 30
0
 11
542.958
 21
696.828
 31
0
 0
LINE
 8
TOOL_0
 5
57
 10
542.958
 20
696.828
 30
0
 11
541.797
 21
691.834
 31
0
 0
LINE
 8
TOOL_0
 5
58
 10
541.797
 20
691.834
 30
0
 11
1062.435
 21
228.982
 31
0
 0
LINE
 8
TOOL_0
 5
59
 10
1062.435
 20
228.982
 30
0
 11
1027.435
 21
228.982
 31
0
 0
ARC
 8
TOOL_0
 5
5A
 10
1009.757
 20
246.66
 30
0
 40
25.000467355632
 50
270.0
 51
315.0
210
0
220
0
230
1.0
 0
LINE
 8
TOOL_0
 5
5B
 10
1009.757
 20
221.66
 30
0
 11
779.757
 21
221.66
 31
0
 0
ARC
 8
TOOL_0
 5
5C
 10
779.757
 20
246.66
 30
0
 40
25.0
 50
180.0
 51
270.0
210
0
220
0
230
1.0
 0
LINE
 8
TOOL_0
 5
5D
 10
754.757
 20
246.66
 30
0
 11
754.757
 21
344.66
 31
0
 0
ARC
 8
TOOL_0
 5
5E
 10
779.757
 20
344.66
 30
0
 40
25.0
 50
90.0
 51
180.0
210
0
220
0
230
1.0
 0
LINE
 8
TOOL_0
 5
5F
 10
779.757
 20
369.66
 30
0
 11
1009.757
 21
369.66
 31
0
 0
ARC
 8
TOOL_0
 5
60
 10
1009.757
 20
344.66
 30
0
 40
25.0
 50
0
 51
90.0
210
0
220
0
230
1.0
 0
LINE
 8
TOOL_0
 5
61
 10
1034.757
 20
344.66
 30
0
 11
1034.757
 21
246.66
 31
0
 0
ARC
 8
TOOL_0
 5
62
 10
1009.757
 20
246.66
 30
0
 40
25.0
 50
315.0
 51
0
210
0
220
0
230
1.0
 0
LINE
 8
TOOL_0
 5
63
 10
1027.435
 20
228.982
 30
0
 11
1027.435
 21
223.982
 31
0
 0
LINE
 8
TOOL_0
 5
64
 10
1027.435
 20
223.982
 30
0
 11
1064.093
 21
395.159
 31
0
 0
LINE
 8
TOOL_0
 5
65
 10
1064.093
 20
395.159
 30
0
 11
1029.093
 21
395.159
 31
0
 0
ARC
 8
TOOL_0
 5
66
 10
1011.415
 20
412.837
 30
0
 40
25.000467355632
 50
270.0
 51
315.0
210
0
220
0
230
1.0
 0
LINE
 8
TOOL_0
 5
67
 10
1011.415
 20
387.837
 30
0
 11
781.415
 21
387.837
 31
0
 0
ARC
 8
TOOL_0
 5
68
 10
781.415
 20
412.837
 30
0
 40
25.0
 50
180.0
 51
270.0
210
0
220
0
230
1.0
 0
LINE
 8
TOOL_0
 5
69
 10
756.415
 20
412.837
 30
0
 11
756.415
 21
510.837
 31
0
 0
ARC
 8
TOOL_0
 5
6A
 10
781.415
 20
510.837
 30
0
 40
25.0
 50
90.0
 51
180.0
210
0
220
0
230
1.0
 0
LINE
 8
TOOL_0
 5
6B
 10
781.415
 20
535.837
 30
0
 11
1011.415
 21
535.837
 31
0
 0
ARC
 8
TOOL_0
 5
6C
 10
1011.415
 20
510.837
 30
0
 40
25.0
 50
0
 51
90.0
210
0
220
0
230
1.0
 0
LINE
 8
TOOL_0
 5
6D
 10
1036.415
 20
510.837
 30
0
 11
1036.415
 21
412.837
 31
0
 0
ARC
 8
TOOL_0
 5
6E
 10
1011.415
 20
412.837
 30
0
 40
25.0
 50
315.0
 51
0
210
0
220
0
230
1.0
 0
LINE
 8
TOOL_0
 5
6F
 10
1029.093
 20
395.159
 30
0
 11
1029.093
 21
390.159
 31
0
 0
LINE
 8
TOOL_0
 5
70
 10
1029.093
 20
390.159
 30
0
 11
1063.54
 21
561.337
 31
0
 0
LINE
 8
TOOL_0
 5
71
 10
1063.54
 20
561.337
 30
0
 11
1028.54
 21
561.337
 31
0
 0
ARC
 8
TOOL_0
 5
72
 10
1010.862
 20
579.015
 30
0
 40
25.000467355632
 50
270.0
 51
315.0
210
0
220
0
230
1.0
 0
LINE
 8
TOOL_0
 5
73
 10
1010.862
 20
554.015
 30
0
 11
780.862
 21
554.015
 31
0
 0
ARC
 8
TOOL_0
 5
74
 10
780.862
 20
579.015
 30
0
 40
25.0
 50
180.0
 51
270.0
210
0
220
0
230
1.0
 0
LINE
 8
TOOL_0
 5
75
 10
755.862
 20
579.015
 30
0
 11
755.862
 21
677.015
 31
0
 0
ARC
 8
TOOL_0
 5
76
 10
780.862
 20
677.015
 30
0
 40
25.0
 50
90.0
 51
180.0
210
0
220
0
230
1.0
 0
LINE
 8
TOOL_0
 5
77
 10
780.862
 20
702.015
 30
0
 11
1010.862
 21
702.015
 31
0
 0
ARC
 8
TOOL_0
 5
78
 10
1010.862
 20
677.015
 30
0
 40
25.0
 50
0
 51
90.0
210
0
220
0
230
1.0
 0
LINE
 8
TOOL_0
 5
79
 10
1035.862
 20
677.015
 30
0
 11
1035.862
 21
579.015
 31
0
 0
ARC
 8
TOOL_0
 5
7A
 10
1010.862
 20
579.015
 30
0
 40
25.0
 50
315.0
 51
0
210
0
220
0
230
1.0
 0
LINE
 8
TOOL_0
 5
7B
 10
1028.54
 20
561.337
 30
0
 11
1028.54
 21
556.337
 31
0
 0
LINE
 8
TOOL_0
 5
7C
 10
1028.54
 20
556.337
 30
0
 11
1062.435
 21
727.884
 31
0
 0
LINE
 8
TOOL_0
 5
7D
 10
1062.435
 20
727.884
 30
0
 11
1027.435
 21
727.884
 31
0
 0
ARC
 8
TOOL_0
 5
7E
 10
1009.757
 20
745.562
 30
0
 40
25.000467355632
 50
270.0
 51
315.0
210
0
220
0
230
1.0
 0
LINE
 8
TOOL_0
 5
7F
 10
1009.757
 20
720.562
 30
0
 11
779.757
 21
720.562
 31
0
 0
ARC
 8
TOOL_0
 5
80
 10
779.757
 20
745.562
 30
0
 40
25.0
 50
180.0
 51
270.0
210
0
220
0
230
1.0
 0
LINE
 8
TOOL_0
 5
81
 10
754.757
 20
745.562
 30
0
 11
754.757
 21
843.562
 31
0
 0
ARC
 8
TOOL_0
 5
82
 10
779.757
 20
843.562
 30
0
 40
25.0
 50
90.0
 51
180.0
210
0
220
0
230
1.0
 0
LINE
 8
TOOL_0
 5
83
 10
779.757
 20
868.562
 30
0
 11
1009.757
 21
868.562
 31
0
 0
ARC
 8
TOOL_0
 5
84
 10
1009.757
 20
843.562
 30
0
 40
25.0
 50
0
 51
90.0
210
0
220
0
230
1.0
 0
LINE
 8
TOOL_0
 5
85
 10
1034.757
 20
843.562
 30
0
 11
1034.757
 21
745.562
 31
0
 0
ARC
 8
TOOL_0
 5
86
 10
1009.757
 20
745.562
 30
0
 40
25.0
 50
315.0
 51
0
210
0
220
0
230
1.0
 0
LINE
 8
TOOL_0
 5
87
 10
1027.435
 20
727.884
 30
0
 11
1027.435
 21
722.884
 31
0
 0
LINE
 8
TOOL_0
 5
88
 10
1027.435
 20
722.884
 30
0
 11
1139.669
 21
-0.004
 31
0
 0
LINE
 8
TOOL_0
 5
89
 10
1139.669
 20
-0.004
 30
0
 11
1139.669
 21
0.996
 31
0
 0
LINE
 8
TOOL_0
 5
8A
 10
1139.669
 20
0.996
 30
0
 11
1139.669
 21
-0.004
 31
0
 0
LINE
 8
TOOL_0
 5
8B
 10
1139.669
 20
-0.004
 30
0
 11
1139.669
 21
0.996
 31
0
 0
LINE
 8
TOOL_0
 5
8C
 10
1139.669
 20
0.996
 30
0
 11
1139.669
 21
924.267
 31
0
 0
LINE
 8
TOOL_0
 5
8D
 10
1139.669
 20
924.267
 30
0
 11
1.003
 21
924.267
 31
0
 0
LINE
 8
TOOL_0
 5
8E
 10
1.003
 20
924.267
 30
0
 11
0.003
 21
924.267
 31
0
 0
ENDSEC
 0
EOF

