0
SECTION
2
TABLES
0
TABLE
2
LAYER
70
0
0
LAYER
2
LAYER_NAME
70
0
62
1
6
CONTINUOUS
0
ENDTAB
0
ENDSEC
 0
SECTION
 2
ENTITIES
 0
LINE
 8
TOOL_0
 5
1
 10
353.043
 20
25.543
 30
0
 11
322.348
 21
26.773
 31
0
 0
ARC
 8
TOOL_0
 5
2
 10
305.196
 20
41.814
 30
0
 40
22.812776792841
 50
239.85076744822
 51
318.751700019068
210
0
220
0
230
1.0
 0
ARC
 8
TOOL_0
 5
3
 10
258.95
 20
-37.733
 30
0
 40
69.199980809246
 50
59.820087804485
 51
90.0
210
0
220
0
230
1.0
 0
LINE
 8
TOOL_0
 5
4
 10
258.95
 20
31.467
 30
0
 11
231.45
 21
31.467
 31
0
 0
ARC
 8
TOOL_0
 5
5
 10
231.45
 20
-37.733
 30
0
 40
69.2
 50
90.0
 51
120.179912195515
210
0
220
0
230
1.0
 0
ARC
 8
TOOL_0
 5
6
 10
185.204
 20
41.813
 30
0
 40
22.812295807305
 50
211.951071400345
 51
300.150494021992
210
0
220
0
230
1.0
 0
ARC
 8
TOOL_0
 5
7
 10
149.551
 20
19.589
 30
0
 40
19.200398771901
 50
31.92029491333
 51
90.0
210
0
220
0
230
1.0
 0
LINE
 8
TOOL_0
 5
8
 10
149.551
 20
38.789
 30
0
 11
62.374
 21
38.789
 31
0
 0
ARC
 8
TOOL_0
 5
9
 10
62.39
 20
48.813
 30
0
 40
10.024012769345
 50
202.092237733081
 51
269.908546319466
210
0
220
0
230
1.0
 0
LINE
 8
TOOL_0
 5
A
 10
53.102
 20
45.043
 30
0
 11
31.859
 21
97.622
 31
0
 0
ARC
 8
TOOL_0
 5
B
 10
23.7
 20
94.325
 30
0
 40
8.79997102268
 50
22.003320384869
 51
75.523198505332
210
0
220
0
230
1.0
 0
ARC
 8
TOOL_0
 5
C
 10
28.2
 20
111.754
 30
0
 40
9.200133912069
 50
180.0
 51
255.52270314299
210
0
220
0
230
1.0
 0
LINE
 8
TOOL_0
 5
D
 10
19.0
 20
111.754
 30
0
 11
19.0
 21
191.389
 31
0
 0
ARC
 8
TOOL_0
 5
E
 10
29.0
 20
191.389
 30
0
 40
10.0
 50
90.0
 51
180.0
210
0
220
0
230
1.0
 0
LINE
 8
TOOL_0
 5
F
 10
29.0
 20
201.389
 30
0
 11
91.505
 21
201.389
 31
0
 0
ARC
 8
TOOL_0
 5
10
 10
91.505
 20
190.589
 30
0
 40
10.8
 50
48.460740534169
 51
90.0
210
0
220
0
230
1.0
 0
ARC
 8
TOOL_0
 5
11
 10
34.062
 20
129.566
 30
0
 40
94.602238208195
 50
43.466652314864
 51
46.928384843842
210
0
220
0
230
1.0
 0
LINE
 8
TOOL_0
 5
12
 10
102.722
 20
194.646
 30
0
 11
103.324
 21
194.068
 31
0
 0
ARC
 8
TOOL_0
 5
13
 10
110.551
 20
199.97
 30
0
 40
9.330762723379
 50
219.237129311716
 51
272.7397465832
210
0
220
0
230
1.0
 0
LINE
 8
TOOL_0
 5
14
 10
110.997
 20
190.65
 30
0
 11
148.294
 21
192.605
 31
0
 0
ARC
 8
TOOL_0
 5
15
 10
147.027
 20
216.772
 30
0
 40
24.200189627356
 50
273.001090424869
 51
320.000123438967
210
0
220
0
230
1.0
 0
LINE
 8
TOOL_0
 5
16
 10
165.566
 20
201.216
 30
0
 11
175.537
 21
213.099
 31
0
 0
ARC
 8
TOOL_0
 5
17
 10
229.795
 20
167.542
 30
0
 40
70.847518044036
 50
90.017791710546
 51
139.981952152145
210
0
220
0
230
1.0
 0
LINE
 8
TOOL_0
 5
18
 10
229.773
 20
238.39
 30
0
 11
260.629
 21
238.39
 31
0
 0
ARC
 8
TOOL_0
 5
19
 10
260.629
 20
167.59
 30
0
 40
70.8
 50
41.351276536947
 51
90.0
210
0
220
0
230
1.0
 0
ARC
 8
TOOL_0
 5
1A
 10
-238.18
 20
-261.085
 30
0
 40
728.498581501708
 50
39.389999123718
 51
40.741326157114
210
0
220
0
230
1.0
 0
ARC
 8
TOOL_0
 5
1B
 10
343.374
 20
216.772
 30
0
 40
24.199493155849
 50
219.999584725572
 51
267.001150046702
210
0
220
0
230
1.0
 0
LINE
 8
TOOL_0
 5
1C
 10
342.108
 20
192.606
 30
0
 11
379.405
 21
190.651
 31
0
 0
ARC
 8
TOOL_0
 5
1D
 10
379.886
 20
199.838
 30
0
 40
9.19958314273
 50
267.002924856545
 51
303.800613645745
210
0
220
0
230
1.0
 0
ARC
 8
TOOL_0
 5
1E
 10
371.96
 20
209.129
 30
0
 40
21.376950951901
 50
307.603236713993
 51
317.477862862891
210
0
220
0
230
1.0
 0
LINE
 8
TOOL_0
 5
1F
 10
387.715
 20
194.681
 30
0
 11
391.259
 21
198.227
 31
0
 0
ARC
 8
TOOL_0
 5
20
 10
398.921
 20
190.53
 30
0
 40
10.860481250847
 50
90.131896128692
 51
134.869434936404
210
0
220
0
230
1.0
 0
LINE
 8
TOOL_0
 5
21
 10
398.896
 20
201.39
 30
0
 11
461.401
 21
201.39
 31
0
 0
ARC
 8
TOOL_0
 5
22
 10
461.401
 20
191.39
 30
0
 40
10.0
 50
0
 51
90.0
210
0
220
0
230
1.0
 0
LINE
 8
TOOL_0
 5
23
 10
471.401
 20
191.39
 30
0
 11
471.401
 21
111.755
 31
0
 0
ARC
 8
TOOL_0
 5
24
 10
462.201
 20
111.755
 30
0
 40
9.2
 50
284.47729685701
 51
0
210
0
220
0
230
1.0
 0
ARC
 8
TOOL_0
 5
25
 10
466.701
 20
94.326
 30
0
 40
8.800422773935
 50
104.476801494668
 51
157.996679615131
210
0
220
0
230
1.0
 0
LINE
 8
TOOL_0
 5
26
 10
458.542
 20
97.623
 30
0
 11
437.299
 21
45.044
 31
0
 0
ARC
 8
TOOL_0
 5
27
 10
428.011
 20
48.814
 30
0
 40
10.023963487563
 50
270.091453680534
 51
337.907762266919
210
0
220
0
230
1.0
 0
LINE
 8
TOOL_0
 5
28
 10
428.027
 20
38.79
 30
0
 11
340.85
 21
38.79
 31
0
 0
ARC
 8
TOOL_0
 5
29
 10
340.85
 20
19.59
 30
0
 40
19.2
 50
90.0
 51
148.07970508667
210
0
220
0
230
1.0
 0
ARC
 8
TOOL_0
 5
2A
 10
305.197
 20
41.814
 30
0
 40
22.812012624931
 50
318.751932443313
 51
328.048928599655
210
0
220
0
230
1.0
 0
LINE
 8
TOOL_0
 5
2B
 10
322.348
 20
26.774
 30
0
 11
321.627
 21
21.589
 31
0
 0
LINE
 8
TOOL_0
 5
2C
 10
321.627
 20
21.589
 30
0
 11
353.043
 21
253.342
 31
0
 0
LINE
 8
TOOL_0
 5
2D
 10
353.043
 20
253.342
 30
0
 11
322.348
 21
254.571
 31
0
 0
ARC
 8
TOOL_0
 5
2E
 10
305.196
 20
269.612
 30
0
 40
22.812776792841
 50
239.85076744822
 51
318.751700019068
210
0
220
0
230
1.0
 0
ARC
 8
TOOL_0
 5
2F
 10
258.95
 20
190.065
 30
0
 40
69.199980809246
 50
59.820087804485
 51
90.0
210
0
220
0
230
1.0
 0
LINE
 8
TOOL_0
 5
30
 10
258.95
 20
259.265
 30
0
 11
231.45
 21
259.265
 31
0
 0
ARC
 8
TOOL_0
 5
31
 10
231.45
 20
190.065
 30
0
 40
69.2
 50
90.0
 51
120.179912195515
210
0
220
0
230
1.0
 0
ARC
 8
TOOL_0
 5
32
 10
185.204
 20
269.611
 30
0
 40
22.812295807305
 50
211.951071400345
 51
300.150494021992
210
0
220
0
230
1.0
 0
ARC
 8
TOOL_0
 5
33
 10
149.551
 20
247.387
 30
0
 40
19.200398771901
 50
31.92029491333
 51
90.0
210
0
220
0
230
1.0
 0
LINE
 8
TOOL_0
 5
34
 10
149.551
 20
266.587
 30
0
 11
62.374
 21
266.587
 31
0
 0
ARC
 8
TOOL_0
 5
35
 10
62.39
 20
276.611
 30
0
 40
10.024012769345
 50
202.09223773308
 51
269.908546319466
210
0
220
0
230
1.0
 0
LINE
 8
TOOL_0
 5
36
 10
53.102
 20
272.841
 30
0
 11
31.859
 21
325.42
 31
0
 0
ARC
 8
TOOL_0
 5
37
 10
23.7
 20
322.123
 30
0
 40
8.79997102268
 50
22.003320384869
 51
75.523198505332
210
0
220
0
230
1.0
 0
ARC
 8
TOOL_0
 5
38
 10
28.2
 20
339.552
 30
0
 40
9.200133912069
 50
180.0
 51
255.52270314299
210
0
220
0
230
1.0
 0
LINE
 8
TOOL_0
 5
39
 10
19.0
 20
339.552
 30
0
 11
19.0
 21
419.187
 31
0
 0
ARC
 8
TOOL_0
 5
3A
 10
29.0
 20
419.187
 30
0
 40
10.0
 50
90.0
 51
180.0
210
0
220
0
230
1.0
 0
LINE
 8
TOOL_0
 5
3B
 10
29.0
 20
429.187
 30
0
 11
91.505
 21
429.187
 31
0
 0
ARC
 8
TOOL_0
 5
3C
 10
91.505
 20
418.387
 30
0
 40
10.8
 50
48.460740534169
 51
90.0
210
0
220
0
230
1.0
 0
ARC
 8
TOOL_0
 5
3D
 10
34.062
 20
357.364
 30
0
 40
94.602238208195
 50
43.466652314864
 51
46.928384843842
210
0
220
0
230
1.0
 0
LINE
 8
TOOL_0
 5
3E
 10
102.722
 20
422.444
 30
0
 11
103.324
 21
421.866
 31
0
 0
ARC
 8
TOOL_0
 5
3F
 10
110.551
 20
427.768
 30
0
 40
9.330762723379
 50
219.237129311716
 51
272.7397465832
210
0
220
0
230
1.0
 0
LINE
 8
TOOL_0
 5
40
 10
110.997
 20
418.448
 30
0
 11
148.294
 21
420.403
 31
0
 0
ARC
 8
TOOL_0
 5
41
 10
147.027
 20
444.57
 30
0
 40
24.200189627356
 50
273.001090424869
 51
320.000123438967
210
0
220
0
230
1.0
 0
LINE
 8
TOOL_0
 5
42
 10
165.566
 20
429.014
 30
0
 11
175.537
 21
440.897
 31
0
 0
ARC
 8
TOOL_0
 5
43
 10
229.795
 20
395.34
 30
0
 40
70.847518044036
 50
90.017791710546
 51
139.981952152145
210
0
220
0
230
1.0
 0
LINE
 8
TOOL_0
 5
44
 10
229.773
 20
466.188
 30
0
 11
260.629
 21
466.188
 31
0
 0
ARC
 8
TOOL_0
 5
45
 10
260.629
 20
395.388
 30
0
 40
70.8
 50
41.351276536947
 51
90.0
210
0
220
0
230
1.0
 0
ARC
 8
TOOL_0
 5
46
 10
-238.18
 20
-33.287
 30
0
 40
728.498581501708
 50
39.389999123718
 51
40.741326157114
210
0
220
0
230
1.0
 0
ARC
 8
TOOL_0
 5
47
 10
343.374
 20
444.57
 30
0
 40
24.199493155849
 50
219.999584725572
 51
267.001150046702
210
0
220
0
230
1.0
 0
LINE
 8
TOOL_0
 5
48
 10
342.108
 20
420.404
 30
0
 11
379.405
 21
418.449
 31
0
 0
ARC
 8
TOOL_0
 5
49
 10
379.886
 20
427.636
 30
0
 40
9.19958314273
 50
267.002924856545
 51
303.800613645744
210
0
220
0
230
1.0
 0
ARC
 8
TOOL_0
 5
4A
 10
371.96
 20
436.927
 30
0
 40
21.376950951901
 50
307.603236713993
 51
317.477862862891
210
0
220
0
230
1.0
 0
LINE
 8
TOOL_0
 5
4B
 10
387.715
 20
422.479
 30
0
 11
391.259
 21
426.025
 31
0
 0
ARC
 8
TOOL_0
 5
4C
 10
398.921
 20
418.328
 30
0
 40
10.860481250847
 50
90.131896128692
 51
134.869434936404
210
0
220
0
230
1.0
 0
LINE
 8
TOOL_0
 5
4D
 10
398.896
 20
429.188
 30
0
 11
461.401
 21
429.188
 31
0
 0
ARC
 8
TOOL_0
 5
4E
 10
461.401
 20
419.188
 30
0
 40
10.0
 50
0
 51
90.0
210
0
220
0
230
1.0
 0
LINE
 8
TOOL_0
 5
4F
 10
471.401
 20
419.188
 30
0
 11
471.401
 21
339.553
 31
0
 0
ARC
 8
TOOL_0
 5
50
 10
462.201
 20
339.553
 30
0
 40
9.2
 50
284.47729685701
 51
0
210
0
220
0
230
1.0
 0
ARC
 8
TOOL_0
 5
51
 10
466.701
 20
322.124
 30
0
 40
8.800422773935
 50
104.476801494668
 51
157.996679615131
210
0
220
0
230
1.0
 0
LINE
 8
TOOL_0
 5
52
 10
458.542
 20
325.421
 30
0
 11
437.299
 21
272.842
 31
0
 0
ARC
 8
TOOL_0
 5
53
 10
428.011
 20
276.612
 30
0
 40
10.023963487563
 50
270.091453680534
 51
337.907762266919
210
0
220
0
230
1.0
 0
LINE
 8
TOOL_0
 5
54
 10
428.027
 20
266.588
 30
0
 11
340.85
 21
266.588
 31
0
 0
ARC
 8
TOOL_0
 5
55
 10
340.85
 20
247.388
 30
0
 40
19.2
 50
90.0
 51
148.07970508667
210
0
220
0
230
1.0
 0
ARC
 8
TOOL_0
 5
56
 10
305.197
 20
269.612
 30
0
 40
22.812012624931
 50
318.751932443313
 51
328.048928599655
210
0
220
0
230
1.0
 0
LINE
 8
TOOL_0
 5
57
 10
322.348
 20
254.572
 30
0
 11
321.627
 21
249.387
 31
0
 0
LINE
 8
TOOL_0
 5
58
 10
321.627
 20
249.387
 30
0
 11
823.678
 21
25.545
 31
0
 0
LINE
 8
TOOL_0
 5
59
 10
823.678
 20
25.545
 30
0
 11
792.983
 21
26.775
 31
0
 0
ARC
 8
TOOL_0
 5
5A
 10
775.831
 20
41.816
 30
0
 40
22.812776792841
 50
239.85076744822
 51
318.751700019068
210
0
220
0
230
1.0
 0
ARC
 8
TOOL_0
 5
5B
 10
729.585
 20
-37.731
 30
0
 40
69.199980809246
 50
59.820087804485
 51
90.0
210
0
220
0
230
1.0
 0
LINE
 8
TOOL_0
 5
5C
 10
729.585
 20
31.469
 30
0
 11
702.085
 21
31.469
 31
0
 0
ARC
 8
TOOL_0
 5
5D
 10
702.085
 20
-37.731
 30
0
 40
69.2
 50
90.0
 51
120.179912195515
210
0
220
0
230
1.0
 0
ARC
 8
TOOL_0
 5
5E
 10
655.839
 20
41.815
 30
0
 40
22.812295807305
 50
211.951071400345
 51
300.150494021992
210
0
220
0
230
1.0
 0
ARC
 8
TOOL_0
 5
5F
 10
620.186
 20
19.591
 30
0
 40
19.200398771901
 50
31.92029491333
 51
90.0
210
0
220
0
230
1.0
 0
LINE
 8
TOOL_0
 5
60
 10
620.186
 20
38.791
 30
0
 11
533.009
 21
38.791
 31
0
 0
ARC
 8
TOOL_0
 5
61
 10
533.025
 20
48.815
 30
0
 40
10.024012769345
 50
202.092237733081
 51
269.908546319466
210
0
220
0
230
1.0
 0
LINE
 8
TOOL_0
 5
62
 10
523.737
 20
45.045
 30
0
 11
502.494
 21
97.624
 31
0
 0
ARC
 8
TOOL_0
 5
63
 10
494.335
 20
94.327
 30
0
 40
8.79997102268
 50
22.003320384869
 51
75.523198505332
210
0
220
0
230
1.0
 0
ARC
 8
TOOL_0
 5
64
 10
498.835
 20
111.756
 30
0
 40
9.200133912069
 50
180.0
 51
255.52270314299
210
0
220
0
230
1.0
 0
LINE
 8
TOOL_0
 5
65
 10
489.635
 20
111.756
 30
0
 11
489.635
 21
191.391
 31
0
 0
ARC
 8
TOOL_0
 5
66
 10
499.635
 20
191.391
 30
0
 40
10.0
 50
90.0
 51
180.0
210
0
220
0
230
1.0
 0
LINE
 8
TOOL_0
 5
67
 10
499.635
 20
201.391
 30
0
 11
562.14
 21
201.391
 31
0
 0
ARC
 8
TOOL_0
 5
68
 10
562.14
 20
190.591
 30
0
 40
10.8
 50
48.460740534169
 51
90.0
210
0
220
0
230
1.0
 0
ARC
 8
TOOL_0
 5
69
 10
504.697
 20
129.568
 30
0
 40
94.602238208195
 50
43.466652314864
 51
46.928384843842
210
0
220
0
230
1.0
 0
LINE
 8
TOOL_0
 5
6A
 10
573.357
 20
194.648
 30
0
 11
573.959
 21
194.07
 31
0
 0
ARC
 8
TOOL_0
 5
6B
 10
581.186
 20
199.972
 30
0
 40
9.330762723379
 50
219.237129311716
 51
272.7397465832
210
0
220
0
230
1.0
 0
LINE
 8
TOOL_0
 5
6C
 10
581.632
 20
190.652
 30
0
 11
618.929
 21
192.607
 31
0
 0
ARC
 8
TOOL_0
 5
6D
 10
617.662
 20
216.774
 30
0
 40
24.200189627356
 50
273.001090424869
 51
320.000123438967
210
0
220
0
230
1.0
 0
LINE
 8
TOOL_0
 5
6E
 10
636.201
 20
201.218
 30
0
 11
646.172
 21
213.101
 31
0
 0
ARC
 8
TOOL_0
 5
6F
 10
700.43
 20
167.544
 30
0
 40
70.847518044036
 50
90.017791710546
 51
139.981952152145
210
0
220
0
230
1.0
 0
LINE
 8
TOOL_0
 5
70
 10
700.408
 20
238.392
 30
0
 11
731.264
 21
238.392
 31
0
 0
ARC
 8
TOOL_0
 5
71
 10
731.264
 20
167.592
 30
0
 40
70.8
 50
41.351276536947
 51
90.0
210
0
220
0
230
1.0
 0
ARC
 8
TOOL_0
 5
72
 10
232.455
 20
-261.083
 30
0
 40
728.498581501708
 50
39.389999123718
 51
40.741326157114
210
0
220
0
230
1.0
 0
ARC
 8
TOOL_0
 5
73
 10
814.009
 20
216.774
 30
0
 40
24.199493155849
 50
219.999584725572
 51
267.001150046702
210
0
220
0
230
1.0
 0
LINE
 8
TOOL_0
 5
74
 10
812.743
 20
192.608
 30
0
 11
850.04
 21
190.653
 31
0
 0
ARC
 8
TOOL_0
 5
75
 10
850.521
 20
199.84
 30
0
 40
9.19958314273
 50
267.002924856545
 51
303.800613645745
210
0
220
0
230
1.0
 0
ARC
 8
TOOL_0
 5
76
 10
842.595
 20
209.131
 30
0
 40
21.376950951901
 50
307.603236713993
 51
317.477862862891
210
0
220
0
230
1.0
 0
LINE
 8
TOOL_0
 5
77
 10
858.35
 20
194.683
 30
0
 11
861.894
 21
198.229
 31
0
 0
ARC
 8
TOOL_0
 5
78
 10
869.556
 20
190.532
 30
0
 40
10.860481250847
 50
90.131896128692
 51
134.869434936404
210
0
220
0
230
1.0
 0
LINE
 8
TOOL_0
 5
79
 10
869.531
 20
201.392
 30
0
 11
932.036
 21
201.392
 31
0
 0
ARC
 8
TOOL_0
 5
7A
 10
932.036
 20
191.392
 30
0
 40
10.0
 50
0
 51
90.0
210
0
220
0
230
1.0
 0
LINE
 8
TOOL_0
 5
7B
 10
942.036
 20
191.392
 30
0
 11
942.036
 21
111.757
 31
0
 0
ARC
 8
TOOL_0
 5
7C
 10
932.836
 20
111.757
 30
0
 40
9.2
 50
284.47729685701
 51
0
210
0
220
0
230
1.0
 0
ARC
 8
TOOL_0
 5
7D
 10
937.336
 20
94.328
 30
0
 40
8.800422773935
 50
104.476801494668
 51
157.996679615131
210
0
220
0
230
1.0
 0
LINE
 8
TOOL_0
 5
7E
 10
929.177
 20
97.625
 30
0
 11
907.934
 21
45.046
 31
0
 0
ARC
 8
TOOL_0
 5
7F
 10
898.646
 20
48.816
 30
0
 40
10.023963487563
 50
270.091453680534
 51
337.907762266919
210
0
220
0
230
1.0
 0
LINE
 8
TOOL_0
 5
80
 10
898.662
 20
38.792
 30
0
 11
811.485
 21
38.792
 31
0
 0
ARC
 8
TOOL_0
 5
81
 10
811.485
 20
19.592
 30
0
 40
19.2
 50
90.0
 51
148.07970508667
210
0
220
0
230
1.0
 0
ARC
 8
TOOL_0
 5
82
 10
775.832
 20
41.816
 30
0
 40
22.812012624931
 50
318.751932443313
 51
328.048928599655
210
0
220
0
230
1.0
 0
LINE
 8
TOOL_0
 5
83
 10
792.983
 20
26.776
 30
0
 11
792.262
 21
21.591
 31
0
 0
LINE
 8
TOOL_0
 5
84
 10
792.262
 20
21.591
 30
0
 11
824.091
 21
254.173
 31
0
 0
LINE
 8
TOOL_0
 5
85
 10
824.091
 20
254.173
 30
0
 11
793.396
 21
255.403
 31
0
 0
ARC
 8
TOOL_0
 5
86
 10
776.244
 20
270.444
 30
0
 40
22.812776792841
 50
239.85076744822
 51
318.751700019068
210
0
220
0
230
1.0
 0
ARC
 8
TOOL_0
 5
87
 10
729.998
 20
190.897
 30
0
 40
69.199980809246
 50
59.820087804485
 51
90.0
210
0
220
0
230
1.0
 0
LINE
 8
TOOL_0
 5
88
 10
729.998
 20
260.097
 30
0
 11
702.498
 21
260.097
 31
0
 0
ARC
 8
TOOL_0
 5
89
 10
702.498
 20
190.897
 30
0
 40
69.2
 50
90.0
 51
120.179912195515
210
0
220
0
230
1.0
 0
ARC
 8
TOOL_0
 5
8A
 10
656.252
 20
270.443
 30
0
 40
22.812295807305
 50
211.951071400345
 51
300.150494021992
210
0
220
0
230
1.0
 0
ARC
 8
TOOL_0
 5
8B
 10
620.599
 20
248.219
 30
0
 40
19.200398771901
 50
31.92029491333
 51
90.0
210
0
220
0
230
1.0
 0
LINE
 8
TOOL_0
 5
8C
 10
620.599
 20
267.419
 30
0
 11
533.422
 21
267.419
 31
0
 0
ARC
 8
TOOL_0
 5
8D
 10
533.438
 20
277.443
 30
0
 40
10.024012769345
 50
202.09223773308
 51
269.908546319466
210
0
220
0
230
1.0
 0
LINE
 8
TOOL_0
 5
8E
 10
524.15
 20
273.673
 30
0
 11
502.907
 21
326.252
 31
0
 0
ARC
 8
TOOL_0
 5
8F
 10
494.748
 20
322.955
 30
0
 40
8.79997102268
 50
22.003320384869
 51
75.523198505332
210
0
220
0
230
1.0
 0
ARC
 8
TOOL_0
 5
90
 10
499.248
 20
340.384
 30
0
 40
9.200133912069
 50
180.0
 51
255.52270314299
210
0
220
0
230
1.0
 0
LINE
 8
TOOL_0
 5
91
 10
490.048
 20
340.384
 30
0
 11
490.048
 21
420.019
 31
0
 0
ARC
 8
TOOL_0
 5
92
 10
500.048
 20
420.019
 30
0
 40
10.0
 50
90.0
 51
180.0
210
0
220
0
230
1.0
 0
LINE
 8
TOOL_0
 5
93
 10
500.048
 20
430.019
 30
0
 11
562.553
 21
430.019
 31
0
 0
ARC
 8
TOOL_0
 5
94
 10
562.553
 20
419.219
 30
0
 40
10.8
 50
48.460740534169
 51
90.0
210
0
220
0
230
1.0
 0
ARC
 8
TOOL_0
 5
95
 10
505.11
 20
358.196
 30
0
 40
94.602238208195
 50
43.466652314864
 51
46.928384843842
210
0
220
0
230
1.0
 0
LINE
 8
TOOL_0
 5
96
 10
573.77
 20
423.276
 30
0
 11
574.372
 21
422.698
 31
0
 0
ARC
 8
TOOL_0
 5
97
 10
581.599
 20
428.6
 30
0
 40
9.330762723379
 50
219.237129311716
 51
272.7397465832
210
0
220
0
230
1.0
 0
LINE
 8
TOOL_0
 5
98
 10
582.045
 20
419.28
 30
0
 11
619.342
 21
421.235
 31
0
 0
ARC
 8
TOOL_0
 5
99
 10
618.075
 20
445.402
 30
0
 40
24.200189627356
 50
273.001090424869
 51
320.000123438967
210
0
220
0
230
1.0
 0
LINE
 8
TOOL_0
 5
9A
 10
636.614
 20
429.846
 30
0
 11
646.585
 21
441.729
 31
0
 0
ARC
 8
TOOL_0
 5
9B
 10
700.843
 20
396.172
 30
0
 40
70.847518044036
 50
90.017791710546
 51
139.981952152145
210
0
220
0
230
1.0
 0
LINE
 8
TOOL_0
 5
9C
 10
700.821
 20
467.02
 30
0
 11
731.677
 21
467.02
 31
0
 0
ARC
 8
TOOL_0
 5
9D
 10
731.677
 20
396.22
 30
0
 40
70.8
 50
41.351276536947
 51
90.0
210
0
220
0
230
1.0
 0
ARC
 8
TOOL_0
 5
9E
 10
232.868
 20
-32.455
 30
0
 40
728.498581501708
 50
39.389999123718
 51
40.741326157114
210
0
220
0
230
1.0
 0
ARC
 8
TOOL_0
 5
9F
 10
814.422
 20
445.402
 30
0
 40
24.199493155849
 50
219.999584725572
 51
267.001150046702
210
0
220
0
230
1.0
 0
LINE
 8
TOOL_0
 5
A0
 10
813.156
 20
421.236
 30
0
 11
850.453
 21
419.281
 31
0
 0
ARC
 8
TOOL_0
 5
A1
 10
850.934
 20
428.468
 30
0
 40
9.19958314273
 50
267.002924856545
 51
303.800613645745
210
0
220
0
230
1.0
 0
ARC
 8
TOOL_0
 5
A2
 10
843.008
 20
437.759
 30
0
 40
21.376950951901
 50
307.603236713993
 51
317.477862862891
210
0
220
0
230
1.0
 0
LINE
 8
TOOL_0
 5
A3
 10
858.763
 20
423.311
 30
0
 11
862.307
 21
426.857
 31
0
 0
ARC
 8
TOOL_0
 5
A4
 10
869.969
 20
419.16
 30
0
 40
10.860481250847
 50
90.131896128692
 51
134.869434936404
210
0
220
0
230
1.0
 0
LINE
 8
TOOL_0
 5
A5
 10
869.944
 20
430.02
 30
0
 11
932.449
 21
430.02
 31
0
 0
ARC
 8
TOOL_0
 5
A6
 10
932.449
 20
420.02
 30
0
 40
10.0
 50
0
 51
90.0
210
0
220
0
230
1.0
 0
LINE
 8
TOOL_0
 5
A7
 10
942.449
 20
420.02
 30
0
 11
942.449
 21
340.385
 31
0
 0
ARC
 8
TOOL_0
 5
A8
 10
933.249
 20
340.385
 30
0
 40
9.2
 50
284.47729685701
 51
0
210
0
220
0
230
1.0
 0
ARC
 8
TOOL_0
 5
A9
 10
937.749
 20
322.956
 30
0
 40
8.800422773935
 50
104.476801494668
 51
157.996679615131
210
0
220
0
230
1.0
 0
LINE
 8
TOOL_0
 5
AA
 10
929.59
 20
326.253
 30
0
 11
908.347
 21
273.674
 31
0
 0
ARC
 8
TOOL_0
 5
AB
 10
899.059
 20
277.444
 30
0
 40
10.023963487563
 50
270.091453680534
 51
337.907762266919
210
0
220
0
230
1.0
 0
LINE
 8
TOOL_0
 5
AC
 10
899.075
 20
267.42
 30
0
 11
811.898
 21
267.42
 31
0
 0
ARC
 8
TOOL_0
 5
AD
 10
811.898
 20
248.22
 30
0
 40
19.2
 50
90.0
 51
148.07970508667
210
0
220
0
230
1.0
 0
ARC
 8
TOOL_0
 5
AE
 10
776.245
 20
270.444
 30
0
 40
22.812012624931
 50
318.751932443313
 51
328.048928599655
210
0
220
0
230
1.0
 0
LINE
 8
TOOL_0
 5
AF
 10
793.396
 20
255.404
 30
0
 11
792.675
 21
250.219
 31
0
 0
LINE
 8
TOOL_0
 5
B0
 10
792.675
 20
250.219
 30
0
 11
1294.205
 21
25.548
 31
0
 0
LINE
 8
TOOL_0
 5
B1
 10
1294.205
 20
25.548
 30
0
 11
1263.51
 21
26.778
 31
0
 0
ARC
 8
TOOL_0
 5
B2
 10
1246.358
 20
41.819
 30
0
 40
22.812776792841
 50
239.85076744822
 51
318.751700019068
210
0
220
0
230
1.0
 0
ARC
 8
TOOL_0
 5
B3
 10
1200.112
 20
-37.728
 30
0
 40
69.199980809246
 50
59.820087804485
 51
90.0
210
0
220
0
230
1.0
 0
LINE
 8
TOOL_0
 5
B4
 10
1200.112
 20
31.472
 30
0
 11
1172.612
 21
31.472
 31
0
 0
ARC
 8
TOOL_0
 5
B5
 10
1172.612
 20
-37.728
 30
0
 40
69.2
 50
90.0
 51
120.179912195515
210
0
220
0
230
1.0
 0
ARC
 8
TOOL_0
 5
B6
 10
1126.366
 20
41.818
 30
0
 40
22.812295807305
 50
211.951071400345
 51
300.150494021992
210
0
220
0
230
1.0
 0
ARC
 8
TOOL_0
 5
B7
 10
1090.713
 20
19.594
 30
0
 40
19.200398771901
 50
31.92029491333
 51
90.0
210
0
220
0
230
1.0
 0
LINE
 8
TOOL_0
 5
B8
 10
1090.713
 20
38.794
 30
0
 11
1003.536
 21
38.794
 31
0
 0
ARC
 8
TOOL_0
 5
B9
 10
1003.552
 20
48.818
 30
0
 40
10.024012769345
 50
202.092237733081
 51
269.908546319466
210
0
220
0
230
1.0
 0
LINE
 8
TOOL_0
 5
BA
 10
994.264
 20
45.048
 30
0
 11
973.021
 21
97.627
 31
0
 0
ARC
 8
TOOL_0
 5
BB
 10
964.862
 20
94.33
 30
0
 40
8.79997102268
 50
22.003320384869
 51
75.523198505332
210
0
220
0
230
1.0
 0
ARC
 8
TOOL_0
 5
BC
 10
969.362
 20
111.759
 30
0
 40
9.200133912069
 50
180.0
 51
255.522703142991
210
0
220
0
230
1.0
 0
LINE
 8
TOOL_0
 5
BD
 10
960.162
 20
111.759
 30
0
 11
960.162
 21
191.394
 31
0
 0
ARC
 8
TOOL_0
 5
BE
 10
970.162
 20
191.394
 30
0
 40
10.0
 50
90.0
 51
180.0
210
0
220
0
230
1.0
 0
LINE
 8
TOOL_0
 5
BF
 10
970.162
 20
201.394
 30
0
 11
1032.667
 21
201.394
 31
0
 0
ARC
 8
TOOL_0
 5
C0
 10
1032.667
 20
190.594
 30
0
 40
10.8
 50
48.460740534169
 51
90.0
210
0
220
0
230
1.0
 0
ARC
 8
TOOL_0
 5
C1
 10
975.224
 20
129.571
 30
0
 40
94.602238208195
 50
43.466652314864
 51
46.928384843842
210
0
220
0
230
1.0
 0
LINE
 8
TOOL_0
 5
C2
 10
1043.884
 20
194.651
 30
0
 11
1044.486
 21
194.073
 31
0
 0
ARC
 8
TOOL_0
 5
C3
 10
1051.713
 20
199.975
 30
0
 40
9.330762723379
 50
219.237129311716
 51
272.739746583199
210
0
220
0
230
1.0
 0
LINE
 8
TOOL_0
 5
C4
 10
1052.159
 20
190.655
 30
0
 11
1089.456
 21
192.61
 31
0
 0
ARC
 8
TOOL_0
 5
C5
 10
1088.189
 20
216.777
 30
0
 40
24.200189627356
 50
273.001090424869
 51
320.000123438967
210
0
220
0
230
1.0
 0
LINE
 8
TOOL_0
 5
C6
 10
1106.728
 20
201.221
 30
0
 11
1116.699
 21
213.104
 31
0
 0
ARC
 8
TOOL_0
 5
C7
 10
1170.957
 20
167.547
 30
0
 40
70.847518044036
 50
90.017791710546
 51
139.981952152145
210
0
220
0
230
1.0
 0
LINE
 8
TOOL_0
 5
C8
 10
1170.935
 20
238.395
 30
0
 11
1201.791
 21
238.395
 31
0
 0
ARC
 8
TOOL_0
 5
C9
 10
1201.791
 20
167.595
 30
0
 40
70.8
 50
41.351276536947
 51
90.0
210
0
220
0
230
1.0
 0
ARC
 8
TOOL_0
 5
CA
 10
702.982
 20
-261.08
 30
0
 40
728.498581501708
 50
39.389999123718
 51
40.741326157114
210
0
220
0
230
1.0
 0
ARC
 8
TOOL_0
 5
CB
 10
1284.536
 20
216.777
 30
0
 40
24.199493155849
 50
219.999584725572
 51
267.001150046702
210
0
220
0
230
1.0
 0
LINE
 8
TOOL_0
 5
CC
 10
1283.27
 20
192.611
 30
0
 11
1320.567
 21
190.656
 31
0
 0
ARC
 8
TOOL_0
 5
CD
 10
1321.048
 20
199.843
 30
0
 40
9.19958314273
 50
267.002924856545
 51
303.800613645744
210
0
220
0
230
1.0
 0
ARC
 8
TOOL_0
 5
CE
 10
1313.122
 20
209.134
 30
0
 40
21.376950951902
 50
307.603236713993
 51
317.477862862891
210
0
220
0
230
1.0
 0
LINE
 8
TOOL_0
 5
CF
 10
1328.877
 20
194.686
 30
0
 11
1332.421
 21
198.232
 31
0
 0
ARC
 8
TOOL_0
 5
D0
 10
1340.083
 20
190.535
 30
0
 40
10.860481250847
 50
90.131896128692
 51
134.869434936404
210
0
220
0
230
1.0
 0
LINE
 8
TOOL_0
 5
D1
 10
1340.058
 20
201.395
 30
0
 11
1402.563
 21
201.395
 31
0
 0
ARC
 8
TOOL_0
 5
D2
 10
1402.563
 20
191.395
 30
0
 40
10.0
 50
0
 51
90.0
210
0
220
0
230
1.0
 0
LINE
 8
TOOL_0
 5
D3
 10
1412.563
 20
191.395
 30
0
 11
1412.563
 21
111.76
 31
0
 0
ARC
 8
TOOL_0
 5
D4
 10
1403.363
 20
111.76
 30
0
 40
9.2
 50
284.477296857009
 51
0
210
0
220
0
230
1.0
 0
ARC
 8
TOOL_0
 5
D5
 10
1407.863
 20
94.331
 30
0
 40
8.800422773935
 50
104.476801494668
 51
157.996679615131
210
0
220
0
230
1.0
 0
LINE
 8
TOOL_0
 5
D6
 10
1399.704
 20
97.628
 30
0
 11
1378.461
 21
45.049
 31
0
 0
ARC
 8
TOOL_0
 5
D7
 10
1369.173
 20
48.819
 30
0
 40
10.023963487563
 50
270.091453680535
 51
337.907762266919
210
0
220
0
230
1.0
 0
LINE
 8
TOOL_0
 5
D8
 10
1369.189
 20
38.795
 30
0
 11
1282.012
 21
38.795
 31
0
 0
ARC
 8
TOOL_0
 5
D9
 10
1282.012
 20
19.595
 30
0
 40
19.2
 50
90.0
 51
148.07970508667
210
0
220
0
230
1.0
 0
ARC
 8
TOOL_0
 5
DA
 10
1246.359
 20
41.819
 30
0
 40
22.812012624931
 50
318.751932443313
 51
328.048928599655
210
0
220
0
230
1.0
 0
LINE
 8
TOOL_0
 5
DB
 10
1263.51
 20
26.779
 30
0
 11
1262.789
 21
21.594
 31
0
 0
LINE
 8
TOOL_0
 5
DC
 10
1262.789
 20
21.594
 30
0
 11
1294.618
 21
253.347
 31
0
 0
LINE
 8
TOOL_0
 5
DD
 10
1294.618
 20
253.347
 30
0
 11
1263.923
 21
254.576
 31
0
 0
ARC
 8
TOOL_0
 5
DE
 10
1246.771
 20
269.617
 30
0
 40
22.812776792841
 50
239.85076744822
 51
318.751700019068
210
0
220
0
230
1.0
 0
ARC
 8
TOOL_0
 5
DF
 10
1200.525
 20
190.07
 30
0
 40
69.199980809246
 50
59.820087804485
 51
90.0
210
0
220
0
230
1.0
 0
LINE
 8
TOOL_0
 5
E0
 10
1200.525
 20
259.27
 30
0
 11
1173.025
 21
259.27
 31
0
 0
ARC
 8
TOOL_0
 5
E1
 10
1173.025
 20
190.07
 30
0
 40
69.2
 50
90.0
 51
120.179912195515
210
0
220
0
230
1.0
 0
ARC
 8
TOOL_0
 5
E2
 10
1126.779
 20
269.616
 30
0
 40
22.812295807305
 50
211.951071400345
 51
300.150494021992
210
0
220
0
230
1.0
 0
ARC
 8
TOOL_0
 5
E3
 10
1091.126
 20
247.392
 30
0
 40
19.200398771901
 50
31.92029491333
 51
90.0
210
0
220
0
230
1.0
 0
LINE
 8
TOOL_0
 5
E4
 10
1091.126
 20
266.592
 30
0
 11
1003.949
 21
266.592
 31
0
 0
ARC
 8
TOOL_0
 5
E5
 10
1003.965
 20
276.616
 30
0
 40
10.024012769345
 50
202.09223773308
 51
269.908546319466
210
0
220
0
230
1.0
 0
LINE
 8
TOOL_0
 5
E6
 10
994.677
 20
272.846
 30
0
 11
973.434
 21
325.425
 31
0
 0
ARC
 8
TOOL_0
 5
E7
 10
965.275
 20
322.128
 30
0
 40
8.79997102268
 50
22.003320384869
 51
75.523198505332
210
0
220
0
230
1.0
 0
ARC
 8
TOOL_0
 5
E8
 10
969.775
 20
339.557
 30
0
 40
9.200133912069
 50
180.0
 51
255.522703142991
210
0
220
0
230
1.0
 0
LINE
 8
TOOL_0
 5
E9
 10
960.575
 20
339.557
 30
0
 11
960.575
 21
419.192
 31
0
 0
ARC
 8
TOOL_0
 5
EA
 10
970.575
 20
419.192
 30
0
 40
10.0
 50
90.0
 51
180.0
210
0
220
0
230
1.0
 0
LINE
 8
TOOL_0
 5
EB
 10
970.575
 20
429.192
 30
0
 11
1033.08
 21
429.192
 31
0
 0
ARC
 8
TOOL_0
 5
EC
 10
1033.08
 20
418.392
 30
0
 40
10.8
 50
48.460740534169
 51
90.0
210
0
220
0
230
1.0
 0
ARC
 8
TOOL_0
 5
ED
 10
975.637
 20
357.369
 30
0
 40
94.602238208195
 50
43.466652314864
 51
46.928384843842
210
0
220
0
230
1.0
 0
LINE
 8
TOOL_0
 5
EE
 10
1044.297
 20
422.449
 30
0
 11
1044.899
 21
421.871
 31
0
 0
ARC
 8
TOOL_0
 5
EF
 10
1052.126
 20
427.773
 30
0
 40
9.330762723379
 50
219.237129311716
 51
272.739746583199
210
0
220
0
230
1.0
 0
LINE
 8
TOOL_0
 5
F0
 10
1052.572
 20
418.453
 30
0
 11
1089.869
 21
420.408
 31
0
 0
ARC
 8
TOOL_0
 5
F1
 10
1088.602
 20
444.575
 30
0
 40
24.200189627356
 50
273.001090424869
 51
320.000123438967
210
0
220
0
230
1.0
 0
LINE
 8
TOOL_0
 5
F2
 10
1107.141
 20
429.019
 30
0
 11
1117.112
 21
440.902
 31
0
 0
ARC
 8
TOOL_0
 5
F3
 10
1171.37
 20
395.345
 30
0
 40
70.847518044036
 50
90.017791710546
 51
139.981952152145
210
0
220
0
230
1.0
 0
LINE
 8
TOOL_0
 5
F4
 10
1171.348
 20
466.193
 30
0
 11
1202.204
 21
466.193
 31
0
 0
ARC
 8
TOOL_0
 5
F5
 10
1202.204
 20
395.393
 30
0
 40
70.8
 50
41.351276536947
 51
90.0
210
0
220
0
230
1.0
 0
ARC
 8
TOOL_0
 5
F6
 10
703.395
 20
-33.282
 30
0
 40
728.498581501708
 50
39.389999123718
 51
40.741326157114
210
0
220
0
230
1.0
 0
ARC
 8
TOOL_0
 5
F7
 10
1284.949
 20
444.575
 30
0
 40
24.199493155849
 50
219.999584725572
 51
267.001150046702
210
0
220
0
230
1.0
 0
LINE
 8
TOOL_0
 5
F8
 10
1283.683
 20
420.409
 30
0
 11
1320.98
 21
418.454
 31
0
 0
ARC
 8
TOOL_0
 5
F9
 10
1321.461
 20
427.641
 30
0
 40
9.19958314273
 50
267.002924856545
 51
303.800613645744
210
0
220
0
230
1.0
 0
ARC
 8
TOOL_0
 5
FA
 10
1313.535
 20
436.932
 30
0
 40
21.376950951902
 50
307.603236713993
 51
317.477862862891
210
0
220
0
230
1.0
 0
LINE
 8
TOOL_0
 5
FB
 10
1329.29
 20
422.484
 30
0
 11
1332.834
 21
426.03
 31
0
 0
ARC
 8
TOOL_0
 5
FC
 10
1340.496
 20
418.333
 30
0
 40
10.860481250847
 50
90.131896128692
 51
134.869434936404
210
0
220
0
230
1.0
 0
LINE
 8
TOOL_0
 5
FD
 10
1340.471
 20
429.193
 30
0
 11
1402.976
 21
429.193
 31
0
 0
ARC
 8
TOOL_0
 5
FE
 10
1402.976
 20
419.193
 30
0
 40
10.0
 50
0
 51
90.0
210
0
220
0
230
1.0
 0
LINE
 8
TOOL_0
 5
FF
 10
1412.976
 20
419.193
 30
0
 11
1412.976
 21
339.558
 31
0
 0
ARC
 8
TOOL_0
 5
100
 10
1403.776
 20
339.558
 30
0
 40
9.2
 50
284.477296857009
 51
0
210
0
220
0
230
1.0
 0
ARC
 8
TOOL_0
 5
101
 10
1408.276
 20
322.129
 30
0
 40
8.800422773935
 50
104.476801494668
 51
157.996679615131
210
0
220
0
230
1.0
 0
LINE
 8
TOOL_0
 5
102
 10
1400.117
 20
325.426
 30
0
 11
1378.874
 21
272.847
 31
0
 0
ARC
 8
TOOL_0
 5
103
 10
1369.586
 20
276.617
 30
0
 40
10.023963487563
 50
270.091453680535
 51
337.907762266919
210
0
220
0
230
1.0
 0
LINE
 8
TOOL_0
 5
104
 10
1369.602
 20
266.593
 30
0
 11
1282.425
 21
266.593
 31
0
 0
ARC
 8
TOOL_0
 5
105
 10
1282.425
 20
247.393
 30
0
 40
19.2
 50
90.0
 51
148.07970508667
210
0
220
0
230
1.0
 0
ARC
 8
TOOL_0
 5
106
 10
1246.772
 20
269.617
 30
0
 40
22.812012624931
 50
318.751932443313
 51
328.048928599655
210
0
220
0
230
1.0
 0
LINE
 8
TOOL_0
 5
107
 10
1263.923
 20
254.577
 30
0
 11
1263.202
 21
249.392
 31
0
 0
LINE
 8
TOOL_0
 5
108
 10
1263.202
 20
249.392
 30
0
 11
1771.761
 21
25.55
 31
0
 0
LINE
 8
TOOL_0
 5
109
 10
1771.761
 20
25.55
 30
0
 11
1741.066
 21
26.78
 31
0
 0
ARC
 8
TOOL_0
 5
10A
 10
1723.914
 20
41.821
 30
0
 40
22.812776792841
 50
239.85076744822
 51
318.751700019068
210
0
220
0
230
1.0
 0
ARC
 8
TOOL_0
 5
10B
 10
1677.668
 20
-37.726
 30
0
 40
69.199980809246
 50
59.820087804485
 51
90.0
210
0
220
0
230
1.0
 0
LINE
 8
TOOL_0
 5
10C
 10
1677.668
 20
31.474
 30
0
 11
1650.168
 21
31.474
 31
0
 0
ARC
 8
TOOL_0
 5
10D
 10
1650.168
 20
-37.726
 30
0
 40
69.2
 50
90.0
 51
120.179912195515
210
0
220
0
230
1.0
 0
ARC
 8
TOOL_0
 5
10E
 10
1603.922
 20
41.82
 30
0
 40
22.812295807305
 50
211.951071400345
 51
300.150494021992
210
0
220
0
230
1.0
 0
ARC
 8
TOOL_0
 5
10F
 10
1568.269
 20
19.596
 30
0
 40
19.200398771901
 50
31.92029491333
 51
90.0
210
0
220
0
230
1.0
 0
LINE
 8
TOOL_0
 5
110
 10
1568.269
 20
38.796
 30
0
 11
1481.092
 21
38.796
 31
0
 0
ARC
 8
TOOL_0
 5
111
 10
1481.108
 20
48.82
 30
0
 40
10.024012769345
 50
202.092237733081
 51
269.908546319465
210
0
220
0
230
1.0
 0
LINE
 8
TOOL_0
 5
112
 10
1471.82
 20
45.05
 30
0
 11
1450.577
 21
97.629
 31
0
 0
ARC
 8
TOOL_0
 5
113
 10
1442.418
 20
94.332
 30
0
 40
8.79997102268
 50
22.003320384868
 51
75.523198505332
210
0
220
0
230
1.0
 0
ARC
 8
TOOL_0
 5
114
 10
1446.918
 20
111.761
 30
0
 40
9.200133912069
 50
180.0
 51
255.522703142991
210
0
220
0
230
1.0
 0
LINE
 8
TOOL_0
 5
115
 10
1437.718
 20
111.761
 30
0
 11
1437.718
 21
191.396
 31
0
 0
ARC
 8
TOOL_0
 5
116
 10
1447.718
 20
191.396
 30
0
 40
10.0
 50
90.0
 51
180.0
210
0
220
0
230
1.0
 0
LINE
 8
TOOL_0
 5
117
 10
1447.718
 20
201.396
 30
0
 11
1510.223
 21
201.396
 31
0
 0
ARC
 8
TOOL_0
 5
118
 10
1510.223
 20
190.596
 30
0
 40
10.8
 50
48.460740534169
 51
90.0
210
0
220
0
230
1.0
 0
ARC
 8
TOOL_0
 5
119
 10
1452.78
 20
129.573
 30
0
 40
94.602238208195
 50
43.466652314864
 51
46.928384843842
210
0
220
0
230
1.0
 0
LINE
 8
TOOL_0
 5
11A
 10
1521.44
 20
194.653
 30
0
 11
1522.042
 21
194.075
 31
0
 0
ARC
 8
TOOL_0
 5
11B
 10
1529.269
 20
199.977
 30
0
 40
9.330762723379
 50
219.237129311716
 51
272.739746583199
210
0
220
0
230
1.0
 0
LINE
 8
TOOL_0
 5
11C
 10
1529.715
 20
190.657
 30
0
 11
1567.012
 21
192.612
 31
0
 0
ARC
 8
TOOL_0
 5
11D
 10
1565.745
 20
216.779
 30
0
 40
24.200189627356
 50
273.001090424869
 51
320.000123438967
210
0
220
0
230
1.0
 0
LINE
 8
TOOL_0
 5
11E
 10
1584.284
 20
201.223
 30
0
 11
1594.255
 21
213.106
 31
0
 0
ARC
 8
TOOL_0
 5
11F
 10
1648.513
 20
167.549
 30
0
 40
70.847518044036
 50
90.017791710546
 51
139.981952152145
210
0
220
0
230
1.0
 0
LINE
 8
TOOL_0
 5
120
 10
1648.491
 20
238.397
 30
0
 11
1679.347
 21
238.397
 31
0
 0
ARC
 8
TOOL_0
 5
121
 10
1679.347
 20
167.597
 30
0
 40
70.8
 50
41.351276536947
 51
90.0
210
0
220
0
230
1.0
 0
ARC
 8
TOOL_0
 5
122
 10
1180.538
 20
-261.078
 30
0
 40
728.498581501708
 50
39.389999123718
 51
40.741326157114
210
0
220
0
230
1.0
 0
ARC
 8
TOOL_0
 5
123
 10
1762.092
 20
216.779
 30
0
 40
24.199493155849
 50
219.999584725572
 51
267.001150046702
210
0
220
0
230
1.0
 0
LINE
 8
TOOL_0
 5
124
 10
1760.826
 20
192.613
 30
0
 11
1798.123
 21
190.658
 31
0
 0
ARC
 8
TOOL_0
 5
125
 10
1798.604
 20
199.845
 30
0
 40
9.19958314273
 50
267.002924856545
 51
303.800613645744
210
0
220
0
230
1.0
 0
ARC
 8
TOOL_0
 5
126
 10
1790.678
 20
209.136
 30
0
 40
21.376950951902
 50
307.603236713993
 51
317.477862862891
210
0
220
0
230
1.0
 0
LINE
 8
TOOL_0
 5
127
 10
1806.433
 20
194.688
 30
0
 11
1809.977
 21
198.234
 31
0
 0
ARC
 8
TOOL_0
 5
128
 10
1817.639
 20
190.537
 30
0
 40
10.860481250847
 50
90.131896128692
 51
134.869434936404
210
0
220
0
230
1.0
 0
LINE
 8
TOOL_0
 5
129
 10
1817.614
 20
201.397
 30
0
 11
1880.119
 21
201.397
 31
0
 0
ARC
 8
TOOL_0
 5
12A
 10
1880.119
 20
191.397
 30
0
 40
10.0
 50
0
 51
90.0
210
0
220
0
230
1.0
 0
LINE
 8
TOOL_0
 5
12B
 10
1890.119
 20
191.397
 30
0
 11
1890.119
 21
111.762
 31
0
 0
ARC
 8
TOOL_0
 5
12C
 10
1880.919
 20
111.762
 30
0
 40
9.2
 50
284.477296857009
 51
0
210
0
220
0
230
1.0
 0
ARC
 8
TOOL_0
 5
12D
 10
1885.419
 20
94.333
 30
0
 40
8.800422773935
 50
104.476801494668
 51
157.996679615131
210
0
220
0
230
1.0
 0
LINE
 8
TOOL_0
 5
12E
 10
1877.26
 20
97.63
 30
0
 11
1856.017
 21
45.051
 31
0
 0
ARC
 8
TOOL_0
 5
12F
 10
1846.729
 20
48.821
 30
0
 40
10.023963487563
 50
270.091453680535
 51
337.907762266919
210
0
220
0
230
1.0
 0
LINE
 8
TOOL_0
 5
130
 10
1846.745
 20
38.797
 30
0
 11
1759.568
 21
38.797
 31
0
 0
ARC
 8
TOOL_0
 5
131
 10
1759.568
 20
19.597
 30
0
 40
19.2
 50
90.0
 51
148.07970508667
210
0
220
0
230
1.0
 0
ARC
 8
TOOL_0
 5
132
 10
1723.915
 20
41.821
 30
0
 40
22.812012624931
 50
318.751932443313
 51
328.048928599655
210
0
220
0
230
1.0
 0
LINE
 8
TOOL_0
 5
133
 10
1741.066
 20
26.781
 30
0
 11
1740.345
 21
21.596
 31
0
 0
LINE
 8
TOOL_0
 5
134
 10
1740.345
 20
21.596
 30
0
 11
1772.174
 21
253.349
 31
0
 0
LINE
 8
TOOL_0
 5
135
 10
1772.174
 20
253.349
 30
0
 11
1741.479
 21
254.578
 31
0
 0
ARC
 8
TOOL_0
 5
136
 10
1724.327
 20
269.619
 30
0
 40
22.812776792841
 50
239.85076744822
 51
318.751700019068
210
0
220
0
230
1.0
 0
ARC
 8
TOOL_0
 5
137
 10
1678.081
 20
190.072
 30
0
 40
69.199980809246
 50
59.820087804485
 51
90.0
210
0
220
0
230
1.0
 0
LINE
 8
TOOL_0
 5
138
 10
1678.081
 20
259.272
 30
0
 11
1650.581
 21
259.272
 31
0
 0
ARC
 8
TOOL_0
 5
139
 10
1650.581
 20
190.072
 30
0
 40
69.2
 50
90.0
 51
120.179912195515
210
0
220
0
230
1.0
 0
ARC
 8
TOOL_0
 5
13A
 10
1604.335
 20
269.618
 30
0
 40
22.812295807305
 50
211.951071400345
 51
300.150494021992
210
0
220
0
230
1.0
 0
ARC
 8
TOOL_0
 5
13B
 10
1568.682
 20
247.394
 30
0
 40
19.200398771901
 50
31.92029491333
 51
90.0
210
0
220
0
230
1.0
 0
LINE
 8
TOOL_0
 5
13C
 10
1568.682
 20
266.594
 30
0
 11
1481.505
 21
266.594
 31
0
 0
ARC
 8
TOOL_0
 5
13D
 10
1481.521
 20
276.618
 30
0
 40
10.024012769345
 50
202.09223773308
 51
269.908546319465
210
0
220
0
230
1.0
 0
LINE
 8
TOOL_0
 5
13E
 10
1472.233
 20
272.848
 30
0
 11
1450.99
 21
325.427
 31
0
 0
ARC
 8
TOOL_0
 5
13F
 10
1442.831
 20
322.13
 30
0
 40
8.79997102268
 50
22.003320384869
 51
75.523198505332
210
0
220
0
230
1.0
 0
ARC
 8
TOOL_0
 5
140
 10
1447.331
 20
339.559
 30
0
 40
9.200133912069
 50
180.0
 51
255.522703142991
210
0
220
0
230
1.0
 0
LINE
 8
TOOL_0
 5
141
 10
1438.131
 20
339.559
 30
0
 11
1438.131
 21
419.194
 31
0
 0
ARC
 8
TOOL_0
 5
142
 10
1448.131
 20
419.194
 30
0
 40
10.0
 50
90.0
 51
180.0
210
0
220
0
230
1.0
 0
LINE
 8
TOOL_0
 5
143
 10
1448.131
 20
429.194
 30
0
 11
1510.636
 21
429.194
 31
0
 0
ARC
 8
TOOL_0
 5
144
 10
1510.636
 20
418.394
 30
0
 40
10.8
 50
48.460740534169
 51
90.0
210
0
220
0
230
1.0
 0
ARC
 8
TOOL_0
 5
145
 10
1453.193
 20
357.371
 30
0
 40
94.602238208195
 50
43.466652314864
 51
46.928384843842
210
0
220
0
230
1.0
 0
LINE
 8
TOOL_0
 5
146
 10
1521.853
 20
422.451
 30
0
 11
1522.455
 21
421.873
 31
0
 0
ARC
 8
TOOL_0
 5
147
 10
1529.682
 20
427.775
 30
0
 40
9.330762723379
 50
219.237129311716
 51
272.739746583199
210
0
220
0
230
1.0
 0
LINE
 8
TOOL_0
 5
148
 10
1530.128
 20
418.455
 30
0
 11
1567.425
 21
420.41
 31
0
 0
ARC
 8
TOOL_0
 5
149
 10
1566.158
 20
444.577
 30
0
 40
24.200189627356
 50
273.001090424869
 51
320.000123438967
210
0
220
0
230
1.0
 0
LINE
 8
TOOL_0
 5
14A
 10
1584.697
 20
429.021
 30
0
 11
1594.668
 21
440.904
 31
0
 0
ARC
 8
TOOL_0
 5
14B
 10
1648.926
 20
395.347
 30
0
 40
70.847518044036
 50
90.017791710546
 51
139.981952152145
210
0
220
0
230
1.0
 0
LINE
 8
TOOL_0
 5
14C
 10
1648.904
 20
466.195
 30
0
 11
1679.76
 21
466.195
 31
0
 0
ARC
 8
TOOL_0
 5
14D
 10
1679.76
 20
395.395
 30
0
 40
70.8
 50
41.351276536947
 51
90.0
210
0
220
0
230
1.0
 0
ARC
 8
TOOL_0
 5
14E
 10
1180.951
 20
-33.28
 30
0
 40
728.498581501708
 50
39.389999123718
 51
40.741326157114
210
0
220
0
230
1.0
 0
ARC
 8
TOOL_0
 5
14F
 10
1762.505
 20
444.577
 30
0
 40
24.199493155849
 50
219.999584725572
 51
267.001150046702
210
0
220
0
230
1.0
 0
LINE
 8
TOOL_0
 5
150
 10
1761.239
 20
420.411
 30
0
 11
1798.536
 21
418.456
 31
0
 0
ARC
 8
TOOL_0
 5
151
 10
1799.017
 20
427.643
 30
0
 40
9.19958314273
 50
267.002924856545
 51
303.800613645744
210
0
220
0
230
1.0
 0
ARC
 8
TOOL_0
 5
152
 10
1791.091
 20
436.934
 30
0
 40
21.376950951902
 50
307.603236713993
 51
317.477862862891
210
0
220
0
230
1.0
 0
LINE
 8
TOOL_0
 5
153
 10
1806.846
 20
422.486
 30
0
 11
1810.39
 21
426.032
 31
0
 0
ARC
 8
TOOL_0
 5
154
 10
1818.052
 20
418.335
 30
0
 40
10.860481250847
 50
90.131896128692
 51
134.869434936404
210
0
220
0
230
1.0
 0
LINE
 8
TOOL_0
 5
155
 10
1818.027
 20
429.195
 30
0
 11
1880.532
 21
429.195
 31
0
 0
ARC
 8
TOOL_0
 5
156
 10
1880.532
 20
419.195
 30
0
 40
10.0
 50
0
 51
90.0
210
0
220
0
230
1.0
 0
LINE
 8
TOOL_0
 5
157
 10
1890.532
 20
419.195
 30
0
 11
1890.532
 21
339.56
 31
0
 0
ARC
 8
TOOL_0
 5
158
 10
1881.332
 20
339.56
 30
0
 40
9.2
 50
284.477296857009
 51
0
210
0
220
0
230
1.0
 0
ARC
 8
TOOL_0
 5
159
 10
1885.832
 20
322.131
 30
0
 40
8.800422773935
 50
104.476801494668
 51
157.996679615131
210
0
220
0
230
1.0
 0
LINE
 8
TOOL_0
 5
15A
 10
1877.673
 20
325.428
 30
0
 11
1856.43
 21
272.849
 31
0
 0
ARC
 8
TOOL_0
 5
15B
 10
1847.142
 20
276.619
 30
0
 40
10.023963487563
 50
270.091453680535
 51
337.907762266919
210
0
220
0
230
1.0
 0
LINE
 8
TOOL_0
 5
15C
 10
1847.158
 20
266.595
 30
0
 11
1759.981
 21
266.595
 31
0
 0
ARC
 8
TOOL_0
 5
15D
 10
1759.981
 20
247.395
 30
0
 40
19.2
 50
90.0
 51
148.07970508667
210
0
220
0
230
1.0
 0
ARC
 8
TOOL_0
 5
15E
 10
1724.328
 20
269.619
 30
0
 40
22.812012624931
 50
318.751932443313
 51
328.048928599655
210
0
220
0
230
1.0
 0
LINE
 8
TOOL_0
 5
15F
 10
1741.479
 20
254.579
 30
0
 11
1740.758
 21
249.394
 31
0
 0
LINE
 8
TOOL_0
 5
160
 10
1740.758
 20
249.394
 30
0
 11
2246.423
 21
25.552
 31
0
 0
LINE
 8
TOOL_0
 5
161
 10
2246.423
 20
25.552
 30
0
 11
2215.728
 21
26.782
 31
0
 0
ARC
 8
TOOL_0
 5
162
 10
2198.576
 20
41.823
 30
0
 40
22.812776792841
 50
239.85076744822
 51
318.751700019068
210
0
220
0
230
1.0
 0
ARC
 8
TOOL_0
 5
163
 10
2152.33
 20
-37.724
 30
0
 40
69.199980809246
 50
59.820087804485
 51
90.0
210
0
220
0
230
1.0
 0
LINE
 8
TOOL_0
 5
164
 10
2152.33
 20
31.476
 30
0
 11
2124.83
 21
31.476
 31
0
 0
ARC
 8
TOOL_0
 5
165
 10
2124.83
 20
-37.724
 30
0
 40
69.2
 50
90.0
 51
120.179912195515
210
0
220
0
230
1.0
 0
ARC
 8
TOOL_0
 5
166
 10
2078.584
 20
41.822
 30
0
 40
22.812295807305
 50
211.951071400345
 51
300.150494021992
210
0
220
0
230
1.0
 0
ARC
 8
TOOL_0
 5
167
 10
2042.931
 20
19.598
 30
0
 40
19.200398771901
 50
31.92029491333
 51
90.0
210
0
220
0
230
1.0
 0
LINE
 8
TOOL_0
 5
168
 10
2042.931
 20
38.798
 30
0
 11
1955.754
 21
38.798
 31
0
 0
ARC
 8
TOOL_0
 5
169
 10
1955.77
 20
48.822
 30
0
 40
10.024012769345
 50
202.092237733081
 51
269.908546319465
210
0
220
0
230
1.0
 0
LINE
 8
TOOL_0
 5
16A
 10
1946.482
 20
45.052
 30
0
 11
1925.239
 21
97.631
 31
0
 0
ARC
 8
TOOL_0
 5
16B
 10
1917.08
 20
94.334
 30
0
 40
8.79997102268
 50
22.003320384868
 51
75.523198505332
210
0
220
0
230
1.0
 0
ARC
 8
TOOL_0
 5
16C
 10
1921.58
 20
111.763
 30
0
 40
9.200133912069
 50
180.0
 51
255.522703142991
210
0
220
0
230
1.0
 0
LINE
 8
TOOL_0
 5
16D
 10
1912.38
 20
111.763
 30
0
 11
1912.38
 21
191.398
 31
0
 0
ARC
 8
TOOL_0
 5
16E
 10
1922.38
 20
191.398
 30
0
 40
10.0
 50
90.0
 51
180.0
210
0
220
0
230
1.0
 0
LINE
 8
TOOL_0
 5
16F
 10
1922.38
 20
201.398
 30
0
 11
1984.885
 21
201.398
 31
0
 0
ARC
 8
TOOL_0
 5
170
 10
1984.885
 20
190.598
 30
0
 40
10.8
 50
48.460740534169
 51
90.0
210
0
220
0
230
1.0
 0
ARC
 8
TOOL_0
 5
171
 10
1927.442
 20
129.575
 30
0
 40
94.602238208195
 50
43.466652314864
 51
46.928384843842
210
0
220
0
230
1.0
 0
LINE
 8
TOOL_0
 5
172
 10
1996.102
 20
194.655
 30
0
 11
1996.704
 21
194.077
 31
0
 0
ARC
 8
TOOL_0
 5
173
 10
2003.931
 20
199.979
 30
0
 40
9.330762723379
 50
219.237129311716
 51
272.739746583199
210
0
220
0
230
1.0
 0
LINE
 8
TOOL_0
 5
174
 10
2004.377
 20
190.659
 30
0
 11
2041.674
 21
192.614
 31
0
 0
ARC
 8
TOOL_0
 5
175
 10
2040.407
 20
216.781
 30
0
 40
24.200189627356
 50
273.001090424869
 51
320.000123438967
210
0
220
0
230
1.0
 0
LINE
 8
TOOL_0
 5
176
 10
2058.946
 20
201.225
 30
0
 11
2068.917
 21
213.108
 31
0
 0
ARC
 8
TOOL_0
 5
177
 10
2123.175
 20
167.551
 30
0
 40
70.847518044036
 50
90.017791710546
 51
139.981952152145
210
0
220
0
230
1.0
 0
LINE
 8
TOOL_0
 5
178
 10
2123.153
 20
238.399
 30
0
 11
2154.009
 21
238.399
 31
0
 0
ARC
 8
TOOL_0
 5
179
 10
2154.009
 20
167.599
 30
0
 40
70.8
 50
41.351276536947
 51
90.0
210
0
220
0
230
1.0
 0
ARC
 8
TOOL_0
 5
17A
 10
1655.2
 20
-261.076
 30
0
 40
728.498581501707
 50
39.389999123718
 51
40.741326157114
210
0
220
0
230
1.0
 0
ARC
 8
TOOL_0
 5
17B
 10
2236.754
 20
216.781
 30
0
 40
24.199493155849
 50
219.999584725572
 51
267.001150046702
210
0
220
0
230
1.0
 0
LINE
 8
TOOL_0
 5
17C
 10
2235.488
 20
192.615
 30
0
 11
2272.785
 21
190.66
 31
0
 0
ARC
 8
TOOL_0
 5
17D
 10
2273.266
 20
199.847
 30
0
 40
9.19958314273
 50
267.002924856543
 51
303.800613645744
210
0
220
0
230
1.0
 0
ARC
 8
TOOL_0
 5
17E
 10
2265.34
 20
209.138
 30
0
 40
21.376950951901
 50
307.603236713993
 51
317.47786286289
210
0
220
0
230
1.0
 0
LINE
 8
TOOL_0
 5
17F
 10
2281.095
 20
194.69
 30
0
 11
2284.639
 21
198.236
 31
0
 0
ARC
 8
TOOL_0
 5
180
 10
2292.301
 20
190.539
 30
0
 40
10.860481250847
 50
90.13189612869
 51
134.869434936403
210
0
220
0
230
1.0
 0
LINE
 8
TOOL_0
 5
181
 10
2292.276
 20
201.399
 30
0
 11
2354.781
 21
201.399
 31
0
 0
ARC
 8
TOOL_0
 5
182
 10
2354.781
 20
191.399
 30
0
 40
10.0
 50
0
 51
90.0
210
0
220
0
230
1.0
 0
LINE
 8
TOOL_0
 5
183
 10
2364.781
 20
191.399
 30
0
 11
2364.781
 21
111.764
 31
0
 0
ARC
 8
TOOL_0
 5
184
 10
2355.581
 20
111.764
 30
0
 40
9.2
 50
284.477296857008
 51
0
210
0
220
0
230
1.0
 0
ARC
 8
TOOL_0
 5
185
 10
2360.081
 20
94.335
 30
0
 40
8.800422773935
 50
104.476801494667
 51
157.99667961513
210
0
220
0
230
1.0
 0
LINE
 8
TOOL_0
 5
186
 10
2351.922
 20
97.632
 30
0
 11
2330.679
 21
45.053
 31
0
 0
ARC
 8
TOOL_0
 5
187
 10
2321.391
 20
48.823
 30
0
 40
10.023963487563
 50
270.091453680535
 51
337.907762266919
210
0
220
0
230
1.0
 0
LINE
 8
TOOL_0
 5
188
 10
2321.407
 20
38.799
 30
0
 11
2234.23
 21
38.799
 31
0
 0
ARC
 8
TOOL_0
 5
189
 10
2234.23
 20
19.599
 30
0
 40
19.2
 50
90.0
 51
148.07970508667
210
0
220
0
230
1.0
 0
ARC
 8
TOOL_0
 5
18A
 10
2198.577
 20
41.823
 30
0
 40
22.812012624931
 50
318.751932443314
 51
328.048928599656
210
0
220
0
230
1.0
 0
LINE
 8
TOOL_0
 5
18B
 10
2215.728
 20
26.783
 30
0
 11
2215.007
 21
21.598
 31
0
 0
LINE
 8
TOOL_0
 5
18C
 10
2215.007
 20
21.598
 30
0
 11
2245.596
 21
253.765
 31
0
 0
LINE
 8
TOOL_0
 5
18D
 10
2245.596
 20
253.765
 30
0
 11
2214.901
 21
254.995
 31
0
 0
ARC
 8
TOOL_0
 5
18E
 10
2197.749
 20
270.036
 30
0
 40
22.812776792841
 50
239.85076744822
 51
318.751700019068
210
0
220
0
230
1.0
 0
ARC
 8
TOOL_0
 5
18F
 10
2151.503
 20
190.489
 30
0
 40
69.199980809246
 50
59.820087804485
 51
90.0
210
0
220
0
230
1.0
 0
LINE
 8
TOOL_0
 5
190
 10
2151.503
 20
259.689
 30
0
 11
2124.003
 21
259.689
 31
0
 0
ARC
 8
TOOL_0
 5
191
 10
2124.003
 20
190.489
 30
0
 40
69.2
 50
90.0
 51
120.179912195515
210
0
220
0
230
1.0
 0
ARC
 8
TOOL_0
 5
192
 10
2077.757
 20
270.035
 30
0
 40
22.812295807305
 50
211.951071400345
 51
300.150494021992
210
0
220
0
230
1.0
 0
ARC
 8
TOOL_0
 5
193
 10
2042.104
 20
247.811
 30
0
 40
19.200398771901
 50
31.92029491333
 51
90.0
210
0
220
0
230
1.0
 0
LINE
 8
TOOL_0
 5
194
 10
2042.104
 20
267.011
 30
0
 11
1954.927
 21
267.011
 31
0
 0
ARC
 8
TOOL_0
 5
195
 10
1954.943
 20
277.035
 30
0
 40
10.024012769345
 50
202.09223773308
 51
269.908546319465
210
0
220
0
230
1.0
 0
LINE
 8
TOOL_0
 5
196
 10
1945.655
 20
273.265
 30
0
 11
1924.412
 21
325.844
 31
0
 0
ARC
 8
TOOL_0
 5
197
 10
1916.253
 20
322.547
 30
0
 40
8.79997102268
 50
22.003320384869
 51
75.523198505332
210
0
220
0
230
1.0
 0
ARC
 8
TOOL_0
 5
198
 10
1920.753
 20
339.976
 30
0
 40
9.200133912069
 50
180.0
 51
255.522703142991
210
0
220
0
230
1.0
 0
LINE
 8
TOOL_0
 5
199
 10
1911.553
 20
339.976
 30
0
 11
1911.553
 21
419.611
 31
0
 0
ARC
 8
TOOL_0
 5
19A
 10
1921.553
 20
419.611
 30
0
 40
10.0
 50
90.0
 51
180.0
210
0
220
0
230
1.0
 0
LINE
 8
TOOL_0
 5
19B
 10
1921.553
 20
429.611
 30
0
 11
1984.058
 21
429.611
 31
0
 0
ARC
 8
TOOL_0
 5
19C
 10
1984.058
 20
418.811
 30
0
 40
10.8
 50
48.460740534169
 51
90.0
210
0
220
0
230
1.0
 0
ARC
 8
TOOL_0
 5
19D
 10
1926.615
 20
357.788
 30
0
 40
94.602238208195
 50
43.466652314864
 51
46.928384843842
210
0
220
0
230
1.0
 0
LINE
 8
TOOL_0
 5
19E
 10
1995.275
 20
422.868
 30
0
 11
1995.877
 21
422.29
 31
0
 0
ARC
 8
TOOL_0
 5
19F
 10
2003.104
 20
428.192
 30
0
 40
9.330762723379
 50
219.237129311716
 51
272.739746583199
210
0
220
0
230
1.0
 0
LINE
 8
TOOL_0
 5
1A0
 10
2003.55
 20
418.872
 30
0
 11
2040.847
 21
420.827
 31
0
 0
ARC
 8
TOOL_0
 5
1A1
 10
2039.58
 20
444.994
 30
0
 40
24.200189627356
 50
273.001090424869
 51
320.000123438967
210
0
220
0
230
1.0
 0
LINE
 8
TOOL_0
 5
1A2
 10
2058.119
 20
429.438
 30
0
 11
2068.09
 21
441.321
 31
0
 0
ARC
 8
TOOL_0
 5
1A3
 10
2122.348
 20
395.764
 30
0
 40
70.847518044036
 50
90.017791710546
 51
139.981952152145
210
0
220
0
230
1.0
 0
LINE
 8
TOOL_0
 5
1A4
 10
2122.326
 20
466.612
 30
0
 11
2153.182
 21
466.612
 31
0
 0
ARC
 8
TOOL_0
 5
1A5
 10
2153.182
 20
395.812
 30
0
 40
70.8
 50
41.351276536947
 51
90.0
210
0
220
0
230
1.0
 0
ARC
 8
TOOL_0
 5
1A6
 10
1654.373
 20
-32.863
 30
0
 40
728.498581501707
 50
39.389999123718
 51
40.741326157114
210
0
220
0
230
1.0
 0
ARC
 8
TOOL_0
 5
1A7
 10
2235.927
 20
444.994
 30
0
 40
24.199493155849
 50
219.999584725572
 51
267.001150046702
210
0
220
0
230
1.0
 0
LINE
 8
TOOL_0
 5
1A8
 10
2234.661
 20
420.828
 30
0
 11
2271.958
 21
418.873
 31
0
 0
ARC
 8
TOOL_0
 5
1A9
 10
2272.439
 20
428.06
 30
0
 40
9.19958314273
 50
267.002924856543
 51
303.800613645744
210
0
220
0
230
1.0
 0
ARC
 8
TOOL_0
 5
1AA
 10
2264.513
 20
437.351
 30
0
 40
21.376950951901
 50
307.603236713993
 51
317.47786286289
210
0
220
0
230
1.0
 0
LINE
 8
TOOL_0
 5
1AB
 10
2280.268
 20
422.903
 30
0
 11
2283.812
 21
426.449
 31
0
 0
ARC
 8
TOOL_0
 5
1AC
 10
2291.474
 20
418.752
 30
0
 40
10.860481250847
 50
90.13189612869
 51
134.869434936403
210
0
220
0
230
1.0
 0
LINE
 8
TOOL_0
 5
1AD
 10
2291.449
 20
429.612
 30
0
 11
2353.954
 21
429.612
 31
0
 0
ARC
 8
TOOL_0
 5
1AE
 10
2353.954
 20
419.612
 30
0
 40
10.0
 50
0
 51
90.0
210
0
220
0
230
1.0
 0
LINE
 8
TOOL_0
 5
1AF
 10
2363.954
 20
419.612
 30
0
 11
2363.954
 21
339.977
 31
0
 0
ARC
 8
TOOL_0
 5
1B0
 10
2354.754
 20
339.977
 30
0
 40
9.2
 50
284.477296857008
 51
0
210
0
220
0
230
1.0
 0
ARC
 8
TOOL_0
 5
1B1
 10
2359.254
 20
322.548
 30
0
 40
8.800422773935
 50
104.476801494667
 51
157.99667961513
210
0
220
0
230
1.0
 0
LINE
 8
TOOL_0
 5
1B2
 10
2351.095
 20
325.845
 30
0
 11
2329.852
 21
273.266
 31
0
 0
ARC
 8
TOOL_0
 5
1B3
 10
2320.564
 20
277.036
 30
0
 40
10.023963487563
 50
270.091453680535
 51
337.907762266919
210
0
220
0
230
1.0
 0
LINE
 8
TOOL_0
 5
1B4
 10
2320.58
 20
267.012
 30
0
 11
2233.403
 21
267.012
 31
0
 0
ARC
 8
TOOL_0
 5
1B5
 10
2233.403
 20
247.812
 30
0
 40
19.2
 50
90.0
 51
148.07970508667
210
0
220
0
230
1.0
 0
ARC
 8
TOOL_0
 5
1B6
 10
2197.75
 20
270.036
 30
0
 40
22.812012624931
 50
318.751932443314
 51
328.048928599656
210
0
220
0
230
1.0
 0
LINE
 8
TOOL_0
 5
1B7
 10
2214.901
 20
254.996
 30
0
 11
2214.18
 21
249.811
 31
0
 0
LINE
 8
TOOL_0
 5
1B8
 10
2214.18
 20
249.811
 30
0
 11
2214.18
 21
0.011
 31
0
 0
LINE
 8
TOOL_0
 5
1B9
 10
2214.18
 20
0.011
 30
0
 11
2742.238
 21
105.525
 31
0
 0
LINE
 8
TOOL_0
 5
1BA
 10
2742.238
 20
105.525
 30
0
 11
2735.507
 21
76.224
 31
0
 0
ARC
 8
TOOL_0
 5
1BB
 10
2726.847
 20
71.224
 30
0
 40
9.99977999758
 50
300.000727780828
 51
30.000727780828
210
0
220
0
230
1.0
 0
LINE
 8
TOOL_0
 5
1BC
 10
2731.847
 20
62.564
 30
0
 11
2662.881
 21
22.746
 31
0
 0
ARC
 8
TOOL_0
 5
1BD
 10
2658.281
 20
30.713
 30
0
 40
9.199624394507
 50
224.475900715183
 51
300.001350600168
210
0
220
0
230
1.0
 0
ARC
 8
TOOL_0
 5
1BE
 10
2645.438
 20
18.102
 30
0
 40
8.800306642385
 50
44.479771380899
 51
98.001203180137
210
0
220
0
230
1.0
 0
LINE
 8
TOOL_0
 5
1BF
 10
2644.213
 20
26.817
 30
0
 11
2588.056
 21
18.925
 31
0
 0
ARC
 8
TOOL_0
 5
1C0
 10
2586.677
 20
28.853
 30
0
 40
10.023314072701
 50
210.087328884234
 51
277.907791803235
210
0
220
0
230
1.0
 0
LINE
 8
TOOL_0
 5
1C1
 10
2578.004
 20
23.828
 30
0
 11
2534.416
 21
99.325
 31
0
 0
ARC
 8
TOOL_0
 5
1C2
 10
2517.788
 20
89.725
 30
0
 40
19.200270414763
 50
29.999534109304
 51
88.077823855993
210
0
220
0
230
1.0
 0
ARC
 8
TOOL_0
 5
1C3
 10
2519.209
 20
131.713
 30
0
 40
22.812236409436
 50
179.849307901453
 51
268.048089967633
210
0
220
0
230
1.0
 0
ARC
 8
TOOL_0
 5
1C4
 10
2427.196
 20
131.99
 30
0
 40
69.200340237603
 50
359.820330297677
 51
29.999982588502
210
0
220
0
230
1.0
 0
LINE
 8
TOOL_0
 5
1C5
 10
2487.125
 20
166.59
 30
0
 11
2473.375
 21
190.406
 31
0
 0
ARC
 8
TOOL_0
 5
1C6
 10
2413.446
 20
155.806
 30
0
 40
69.200036423401
 50
29.999982588502
 51
60.179533221501
210
0
220
0
230
1.0
 0
ARC
 8
TOOL_0
 5
1C7
 10
2459.213
 20
235.629
 30
0
 40
22.812755664321
 50
151.9510039616
 51
240.148889766732
210
0
220
0
230
1.0
 0
ARC
 8
TOOL_0
 5
1C8
 10
2422.14
 20
255.393
 30
0
 40
19.199764816268
 50
331.921369139971
 51
29.999534109304
210
0
220
0
230
1.0
 0
LINE
 8
TOOL_0
 5
1C9
 10
2438.768
 20
264.993
 30
0
 11
2395.179
 21
340.491
 31
0
 0
ARC
 8
TOOL_0
 5
1CA
 10
2403.868
 20
345.489
 30
0
 40
10.023907671163
 50
142.09092783553
 51
209.907945006756
210
0
220
0
230
1.0
 0
LINE
 8
TOOL_0
 5
1CB
 10
2395.959
 20
351.648
 30
0
 11
2430.872
 21
396.335
 31
0
 0
ARC
 8
TOOL_0
 5
1CC
 10
2423.938
 20
401.753
 30
0
 40
8.799720450105
 50
321.997098702617
 51
15.522368392586
210
0
220
0
230
1.0
 0
ARC
 8
TOOL_0
 5
1CD
 10
2441.281
 20
406.57
 30
0
 40
9.199561946093
 50
119.995956725371
 51
195.52277746684
210
0
220
0
230
1.0
 0
LINE
 8
TOOL_0
 5
1CE
 10
2436.682
 20
414.537
 30
0
 11
2505.648
 21
454.355
 31
0
 0
ARC
 8
TOOL_0
 5
1CF
 10
2510.648
 20
445.695
 30
0
 40
9.99977999758
 50
30.000727780828
 51
120.000727780827
210
0
220
0
230
1.0
 0
LINE
 8
TOOL_0
 5
1D0
 10
2519.308
 20
450.695
 30
0
 11
2550.561
 21
396.564
 31
0
 0
ARC
 8
TOOL_0
 5
1D1
 10
2541.208
 20
391.164
 30
0
 40
10.79993560166
 50
348.463257744058
 51
30.000197249515
210
0
220
0
230
1.0
 0
ARC
 8
TOOL_0
 5
1D2
 10
2459.639
 20
410.4
 30
0
 40
94.602302387415
 50
343.466840449194
 51
346.928438145336
210
0
220
0
230
1.0
 0
LINE
 8
TOOL_0
 5
1D3
 10
2550.33
 20
383.479
 30
0
 11
2550.13
 21
382.669
 31
0
 0
ARC
 8
TOOL_0
 5
1D4
 10
2558.855
 20
379.361
 30
0
 40
9.331049726585
 50
159.236258130097
 51
212.73633308047
210
0
220
0
230
1.0
 0
LINE
 8
TOOL_0
 5
1D5
 10
2551.006
 20
374.315
 30
0
 11
2571.347
 21
342.992
 31
0
 0
ARC
 8
TOOL_0
 5
1D6
 10
2591.643
 20
356.172
 30
0
 40
24.200000330578
 50
212.999252386817
 51
259.998192051467
210
0
220
0
230
1.0
 0
LINE
 8
TOOL_0
 5
1D7
 10
2587.44
 20
332.34
 30
0
 11
2602.716
 21
329.646
 31
0
 0
ARC
 8
TOOL_0
 5
1D8
 10
2590.392
 20
259.879
 30
0
 40
70.847126017927
 50
30.018227378099
 51
79.982322635539
210
0
220
0
230
1.0
 0
LINE
 8
TOOL_0
 5
1D9
 10
2651.736
 20
295.322
 30
0
 11
2667.164
 21
268.6
 31
0
 0
ARC
 8
TOOL_0
 5
1DA
 10
2605.849
 20
233.2
 30
0
 40
70.800347633327
 50
341.35162098389
 51
29.999837576949
210
0
220
0
230
1.0
 0
ARC
 8
TOOL_0
 5
1DB
 10
1985.201
 20
450.844
 30
0
 40
728.49835171399
 50
339.389681015514
 51
340.741343486282
210
0
220
0
230
1.0
 0
ARC
 8
TOOL_0
 5
1DC
 10
2689.815
 20
186.132
 30
0
 40
24.200022582634
 50
160.009813781881
 51
207.001291590493
210
0
220
0
230
1.0
 0
LINE
 8
TOOL_0
 5
1DD
 10
2668.253
 20
175.145
 30
0
 11
2685.209
 21
141.868
 31
0
 0
ARC
 8
TOOL_0
 5
1DE
 10
2693.406
 20
146.045
 30
0
 40
9.199898803791
 50
207.002330003155
 51
243.799796463711
210
0
220
0
230
1.0
 0
ARC
 8
TOOL_0
 5
1DF
 10
2697.49
 20
157.554
 30
0
 40
21.376927094417
 50
247.600329480349
 51
257.474680901559
210
0
220
0
230
1.0
 0
LINE
 8
TOOL_0
 5
1E0
 10
2692.854
 20
136.686
 30
0
 11
2697.697
 21
135.39
 31
0
 0
ARC
 8
TOOL_0
 5
1E1
 10
2694.862
 20
124.906
 30
0
 40
10.860546993591
 50
30.132261059565
 51
74.868422223723
210
0
220
0
230
1.0
 0
LINE
 8
TOOL_0
 5
1E2
 10
2704.255
 20
130.358
 30
0
 11
2735.508
 21
76.227
 31
0
 0
LINE
 8
TOOL_0
 5
1E3
 10
2735.508
 20
76.227
 30
0
 11
2739.633
 21
73.155
 31
0
 0
LINE
 8
TOOL_0
 5
1E4
 10
2739.633
 20
73.155
 30
0
 11
2754.553
 21
492.904
 31
0
 0
LINE
 8
TOOL_0
 5
1E5
 10
2754.553
 20
492.904
 30
0
 11
2747.822
 21
463.603
 31
0
 0
ARC
 8
TOOL_0
 5
1E6
 10
2739.162
 20
458.603
 30
0
 40
9.99977999758
 50
300.000727780827
 51
30.000727780828
210
0
220
0
230
1.0
 0
LINE
 8
TOOL_0
 5
1E7
 10
2744.162
 20
449.943
 30
0
 11
2675.196
 21
410.125
 31
0
 0
ARC
 8
TOOL_0
 5
1E8
 10
2670.596
 20
418.092
 30
0
 40
9.199624394506
 50
224.475900715183
 51
300.001350600168
210
0
220
0
230
1.0
 0
ARC
 8
TOOL_0
 5
1E9
 10
2657.753
 20
405.481
 30
0
 40
8.800306642385
 50
44.479771380899
 51
98.001203180137
210
0
220
0
230
1.0
 0
LINE
 8
TOOL_0
 5
1EA
 10
2656.528
 20
414.196
 30
0
 11
2600.371
 21
406.304
 31
0
 0
ARC
 8
TOOL_0
 5
1EB
 10
2598.992
 20
416.232
 30
0
 40
10.023314072701
 50
210.087328884234
 51
277.907791803235
210
0
220
0
230
1.0
 0
LINE
 8
TOOL_0
 5
1EC
 10
2590.319
 20
411.207
 30
0
 11
2546.731
 21
486.704
 31
0
 0
ARC
 8
TOOL_0
 5
1ED
 10
2530.103
 20
477.104
 30
0
 40
19.200270414763
 50
29.999534109304
 51
88.077823855993
210
0
220
0
230
1.0
 0
ARC
 8
TOOL_0
 5
1EE
 10
2531.524
 20
519.092
 30
0
 40
22.812236409436
 50
179.849307901453
 51
268.048089967633
210
0
220
0
230
1.0
 0
ARC
 8
TOOL_0
 5
1EF
 10
2439.511
 20
519.369
 30
0
 40
69.200340237603
 50
359.820330297677
 51
29.999982588502
210
0
220
0
230
1.0
 0
LINE
 8
TOOL_0
 5
1F0
 10
2499.44
 20
553.969
 30
0
 11
2485.69
 21
577.785
 31
0
 0
ARC
 8
TOOL_0
 5
1F1
 10
2425.761
 20
543.185
 30
0
 40
69.200036423401
 50
29.999982588502
 51
60.179533221501
210
0
220
0
230
1.0
 0
ARC
 8
TOOL_0
 5
1F2
 10
2471.528
 20
623.008
 30
0
 40
22.812755664321
 50
151.951003961599
 51
240.148889766731
210
0
220
0
230
1.0
 0
ARC
 8
TOOL_0
 5
1F3
 10
2434.455
 20
642.772
 30
0
 40
19.199764816268
 50
331.921369139971
 51
29.999534109304
210
0
220
0
230
1.0
 0
LINE
 8
TOOL_0
 5
1F4
 10
2451.083
 20
652.372
 30
0
 11
2407.494
 21
727.87
 31
0
 0
ARC
 8
TOOL_0
 5
1F5
 10
2416.183
 20
732.868
 30
0
 40
10.023907671163
 50
142.09092783553
 51
209.907945006756
210
0
220
0
230
1.0
 0
LINE
 8
TOOL_0
 5
1F6
 10
2408.274
 20
739.027
 30
0
 11
2443.187
 21
783.714
 31
0
 0
ARC
 8
TOOL_0
 5
1F7
 10
2436.253
 20
789.132
 30
0
 40
8.799720450105
 50
321.997098702617
 51
15.522368392586
210
0
220
0
230
1.0
 0
ARC
 8
TOOL_0
 5
1F8
 10
2453.596
 20
793.949
 30
0
 40
9.199561946093
 50
119.995956725371
 51
195.52277746684
210
0
220
0
230
1.0
 0
LINE
 8
TOOL_0
 5
1F9
 10
2448.997
 20
801.916
 30
0
 11
2517.963
 21
841.734
 31
0
 0
ARC
 8
TOOL_0
 5
1FA
 10
2522.963
 20
833.074
 30
0
 40
9.99977999758
 50
30.000727780828
 51
120.000727780827
210
0
220
0
230
1.0
 0
LINE
 8
TOOL_0
 5
1FB
 10
2531.623
 20
838.074
 30
0
 11
2562.876
 21
783.943
 31
0
 0
ARC
 8
TOOL_0
 5
1FC
 10
2553.523
 20
778.543
 30
0
 40
10.79993560166
 50
348.463257744058
 51
30.000197249515
210
0
220
0
230
1.0
 0
ARC
 8
TOOL_0
 5
1FD
 10
2471.954
 20
797.779
 30
0
 40
94.602302387415
 50
343.466840449194
 51
346.928438145336
210
0
220
0
230
1.0
 0
LINE
 8
TOOL_0
 5
1FE
 10
2562.645
 20
770.858
 30
0
 11
2562.445
 21
770.048
 31
0
 0
ARC
 8
TOOL_0
 5
1FF
 10
2571.17
 20
766.74
 30
0
 40
9.331049726585
 50
159.236258130097
 51
212.73633308047
210
0
220
0
230
1.0
 0
LINE
 8
TOOL_0
 5
200
 10
2563.321
 20
761.694
 30
0
 11
2583.662
 21
730.371
 31
0
 0
ARC
 8
TOOL_0
 5
201
 10
2603.958
 20
743.551
 30
0
 40
24.200000330578
 50
212.999252386817
 51
259.998192051467
210
0
220
0
230
1.0
 0
LINE
 8
TOOL_0
 5
202
 10
2599.755
 20
719.719
 30
0
 11
2615.031
 21
717.025
 31
0
 0
ARC
 8
TOOL_0
 5
203
 10
2602.707
 20
647.258
 30
0
 40
70.847126017927
 50
30.018227378099
 51
79.982322635539
210
0
220
0
230
1.0
 0
LINE
 8
TOOL_0
 5
204
 10
2664.051
 20
682.701
 30
0
 11
2679.479
 21
655.979
 31
0
 0
ARC
 8
TOOL_0
 5
205
 10
2618.164
 20
620.579
 30
0
 40
70.800347633327
 50
341.35162098389
 51
29.999837576949
210
0
220
0
230
1.0
 0
ARC
 8
TOOL_0
 5
206
 10
1997.516
 20
838.223
 30
0
 40
728.49835171399
 50
339.389681015514
 51
340.741343486282
210
0
220
0
230
1.0
 0
ARC
 8
TOOL_0
 5
207
 10
2702.13
 20
573.511
 30
0
 40
24.200022582634
 50
160.009813781881
 51
207.001291590493
210
0
220
0
230
1.0
 0
LINE
 8
TOOL_0
 5
208
 10
2680.568
 20
562.524
 30
0
 11
2697.524
 21
529.247
 31
0
 0
ARC
 8
TOOL_0
 5
209
 10
2705.721
 20
533.424
 30
0
 40
9.199898803791
 50
207.002330003155
 51
243.799796463711
210
0
220
0
230
1.0
 0
ARC
 8
TOOL_0
 5
20A
 10
2709.805
 20
544.933
 30
0
 40
21.376927094417
 50
247.600329480349
 51
257.474680901559
210
0
220
0
230
1.0
 0
LINE
 8
TOOL_0
 5
20B
 10
2705.169
 20
524.065
 30
0
 11
2710.012
 21
522.769
 31
0
 0
ARC
 8
TOOL_0
 5
20C
 10
2707.177
 20
512.285
 30
0
 40
10.860546993591
 50
30.132261059565
 51
74.868422223723
210
0
220
0
230
1.0
 0
LINE
 8
TOOL_0
 5
20D
 10
2716.57
 20
517.737
 30
0
 11
2747.823
 21
463.606
 31
0
 0
LINE
 8
TOOL_0
 5
20E
 10
2747.823
 20
463.606
 30
0
 11
2751.948
 21
460.534
 31
0
 0
LINE
 8
TOOL_0
 5
20F
 10
2751.948
 20
460.534
 30
0
 11
353.044
 21
938.55
 31
0
 0
LINE
 8
TOOL_0
 5
210
 10
353.044
 20
938.55
 30
0
 11
322.349
 21
939.779
 31
0
 0
ARC
 8
TOOL_0
 5
211
 10
305.197
 20
954.82
 30
0
 40
22.812776792841
 50
239.85076744822
 51
318.751700019068
210
0
220
0
230
1.0
 0
ARC
 8
TOOL_0
 5
212
 10
258.951
 20
875.273
 30
0
 40
69.199980809246
 50
59.820087804485
 51
90.0
210
0
220
0
230
1.0
 0
LINE
 8
TOOL_0
 5
213
 10
258.951
 20
944.473
 30
0
 11
231.451
 21
944.473
 31
0
 0
ARC
 8
TOOL_0
 5
214
 10
231.451
 20
875.273
 30
0
 40
69.2
 50
90.0
 51
120.179912195515
210
0
220
0
230
1.0
 0
ARC
 8
TOOL_0
 5
215
 10
185.205
 20
954.819
 30
0
 40
22.812295807305
 50
211.951071400345
 51
300.150494021992
210
0
220
0
230
1.0
 0
ARC
 8
TOOL_0
 5
216
 10
149.552
 20
932.595
 30
0
 40
19.200398771901
 50
31.92029491333
 51
90.0
210
0
220
0
230
1.0
 0
LINE
 8
TOOL_0
 5
217
 10
149.552
 20
951.795
 30
0
 11
62.375
 21
951.795
 31
0
 0
ARC
 8
TOOL_0
 5
218
 10
62.391
 20
961.819
 30
0
 40
10.024012769345
 50
202.09223773308
 51
269.908546319466
210
0
220
0
230
1.0
 0
LINE
 8
TOOL_0
 5
219
 10
53.103
 20
958.049
 30
0
 11
31.86
 21
1010.628
 31
0
 0
ARC
 8
TOOL_0
 5
21A
 10
23.701
 20
1007.331
 30
0
 40
8.79997102268
 50
22.003320384869
 51
75.523198505332
210
0
220
0
230
1.0
 0
ARC
 8
TOOL_0
 5
21B
 10
28.201
 20
1024.76
 30
0
 40
9.200133912069
 50
180.0
 51
255.52270314299
210
0
220
0
230
1.0
 0
LINE
 8
TOOL_0
 5
21C
 10
19.001
 20
1024.76
 30
0
 11
19.001
 21
1104.395
 31
0
 0
ARC
 8
TOOL_0
 5
21D
 10
29.001
 20
1104.395
 30
0
 40
10.0
 50
90.0
 51
180.0
210
0
220
0
230
1.0
 0
LINE
 8
TOOL_0
 5
21E
 10
29.001
 20
1114.395
 30
0
 11
91.506
 21
1114.395
 31
0
 0
ARC
 8
TOOL_0
 5
21F
 10
91.506
 20
1103.595
 30
0
 40
10.8
 50
48.460740534169
 51
90.0
210
0
220
0
230
1.0
 0
ARC
 8
TOOL_0
 5
220
 10
34.063
 20
1042.572
 30
0
 40
94.602238208195
 50
43.466652314864
 51
46.928384843842
210
0
220
0
230
1.0
 0
LINE
 8
TOOL_0
 5
221
 10
102.723
 20
1107.652
 30
0
 11
103.325
 21
1107.074
 31
0
 0
ARC
 8
TOOL_0
 5
222
 10
110.552
 20
1112.976
 30
0
 40
9.330762723379
 50
219.237129311716
 51
272.7397465832
210
0
220
0
230
1.0
 0
LINE
 8
TOOL_0
 5
223
 10
110.998
 20
1103.656
 30
0
 11
148.295
 21
1105.611
 31
0
 0
ARC
 8
TOOL_0
 5
224
 10
147.028
 20
1129.778
 30
0
 40
24.200189627356
 50
273.001090424869
 51
320.000123438967
210
0
220
0
230
1.0
 0
LINE
 8
TOOL_0
 5
225
 10
165.567
 20
1114.222
 30
0
 11
175.538
 21
1126.105
 31
0
 0
ARC
 8
TOOL_0
 5
226
 10
229.796
 20
1080.548
 30
0
 40
70.847518044036
 50
90.017791710546
 51
139.981952152145
210
0
220
0
230
1.0
 0
LINE
 8
TOOL_0
 5
227
 10
229.774
 20
1151.396
 30
0
 11
260.63
 21
1151.396
 31
0
 0
ARC
 8
TOOL_0
 5
228
 10
260.63
 20
1080.596
 30
0
 40
70.8
 50
41.351276536947
 51
90.0
210
0
220
0
230
1.0
 0
ARC
 8
TOOL_0
 5
229
 10
-238.179
 20
651.921
 30
0
 40
728.498581501708
 50
39.389999123718
 51
40.741326157114
210
0
220
0
230
1.0
 0
ARC
 8
TOOL_0
 5
22A
 10
343.375
 20
1129.778
 30
0
 40
24.199493155849
 50
219.999584725572
 51
267.001150046702
210
0
220
0
230
1.0
 0
LINE
 8
TOOL_0
 5
22B
 10
342.109
 20
1105.612
 30
0
 11
379.406
 21
1103.657
 31
0
 0
ARC
 8
TOOL_0
 5
22C
 10
379.887
 20
1112.844
 30
0
 40
9.19958314273
 50
267.002924856545
 51
303.800613645745
210
0
220
0
230
1.0
 0
ARC
 8
TOOL_0
 5
22D
 10
371.961
 20
1122.135
 30
0
 40
21.376950951901
 50
307.603236713993
 51
317.477862862891
210
0
220
0
230
1.0
 0
LINE
 8
TOOL_0
 5
22E
 10
387.716
 20
1107.687
 30
0
 11
391.26
 21
1111.233
 31
0
 0
ARC
 8
TOOL_0
 5
22F
 10
398.922
 20
1103.536
 30
0
 40
10.860481250847
 50
90.131896128692
 51
134.869434936404
210
0
220
0
230
1.0
 0
LINE
 8
TOOL_0
 5
230
 10
398.897
 20
1114.396
 30
0
 11
461.402
 21
1114.396
 31
0
 0
ARC
 8
TOOL_0
 5
231
 10
461.402
 20
1104.396
 30
0
 40
10.0
 50
0
 51
90.0
210
0
220
0
230
1.0
 0
LINE
 8
TOOL_0
 5
232
 10
471.402
 20
1104.396
 30
0
 11
471.402
 21
1024.761
 31
0
 0
ARC
 8
TOOL_0
 5
233
 10
462.202
 20
1024.761
 30
0
 40
9.2
 50
284.47729685701
 51
0
210
0
220
0
230
1.0
 0
ARC
 8
TOOL_0
 5
234
 10
466.702
 20
1007.332
 30
0
 40
8.800422773935
 50
104.476801494668
 51
157.996679615132
210
0
220
0
230
1.0
 0
LINE
 8
TOOL_0
 5
235
 10
458.543
 20
1010.629
 30
0
 11
437.3
 21
958.05
 31
0
 0
ARC
 8
TOOL_0
 5
236
 10
428.012
 20
961.82
 30
0
 40
10.023963487563
 50
270.091453680534
 51
337.907762266919
210
0
220
0
230
1.0
 0
LINE
 8
TOOL_0
 5
237
 10
428.028
 20
951.796
 30
0
 11
340.851
 21
951.796
 31
0
 0
ARC
 8
TOOL_0
 5
238
 10
340.851
 20
932.596
 30
0
 40
19.2
 50
90.0
 51
148.07970508667
210
0
220
0
230
1.0
 0
ARC
 8
TOOL_0
 5
239
 10
305.198
 20
954.82
 30
0
 40
22.812012624931
 50
318.751932443313
 51
328.048928599655
210
0
220
0
230
1.0
 0
LINE
 8
TOOL_0
 5
23A
 10
322.349
 20
939.78
 30
0
 11
321.628
 21
934.595
 31
0
 0
LINE
 8
TOOL_0
 5
23B
 10
321.628
 20
934.595
 30
0
 11
588.002
 21
1148.837
 31
0
 0
LINE
 8
TOOL_0
 5
23C
 10
588.002
 20
1148.837
 30
0
 11
557.307
 21
1150.066
 31
0
 0
ARC
 8
TOOL_0
 5
23D
 10
540.155
 20
1165.107
 30
0
 40
22.812776792841
 50
239.85076744822
 51
318.751700019068
210
0
220
0
230
1.0
 0
ARC
 8
TOOL_0
 5
23E
 10
493.909
 20
1085.56
 30
0
 40
69.199980809246
 50
59.820087804485
 51
90.0
210
0
220
0
230
1.0
 0
LINE
 8
TOOL_0
 5
23F
 10
493.909
 20
1154.76
 30
0
 11
466.409
 21
1154.76
 31
0
 0
ARC
 8
TOOL_0
 5
240
 10
466.409
 20
1085.56
 30
0
 40
69.2
 50
90.0
 51
120.179912195515
210
0
220
0
230
1.0
 0
ARC
 8
TOOL_0
 5
241
 10
420.163
 20
1165.106
 30
0
 40
22.812295807305
 50
211.951071400345
 51
300.150494021992
210
0
220
0
230
1.0
 0
ARC
 8
TOOL_0
 5
242
 10
384.51
 20
1142.882
 30
0
 40
19.200398771901
 50
31.92029491333
 51
90.0
210
0
220
0
230
1.0
 0
LINE
 8
TOOL_0
 5
243
 10
384.51
 20
1162.082
 30
0
 11
297.333
 21
1162.082
 31
0
 0
ARC
 8
TOOL_0
 5
244
 10
297.349
 20
1172.106
 30
0
 40
10.024012769345
 50
202.09223773308
 51
269.908546319466
210
0
220
0
230
1.0
 0
LINE
 8
TOOL_0
 5
245
 10
288.061
 20
1168.336
 30
0
 11
266.818
 21
1220.915
 31
0
 0
ARC
 8
TOOL_0
 5
246
 10
258.659
 20
1217.618
 30
0
 40
8.79997102268
 50
22.003320384869
 51
75.523198505332
210
0
220
0
230
1.0
 0
ARC
 8
TOOL_0
 5
247
 10
263.159
 20
1235.047
 30
0
 40
9.200133912069
 50
180.0
 51
255.52270314299
210
0
220
0
230
1.0
 0
LINE
 8
TOOL_0
 5
248
 10
253.959
 20
1235.047
 30
0
 11
253.959
 21
1314.682
 31
0
 0
ARC
 8
TOOL_0
 5
249
 10
263.959
 20
1314.682
 30
0
 40
10.0
 50
90.0
 51
180.0
210
0
220
0
230
1.0
 0
LINE
 8
TOOL_0
 5
24A
 10
263.959
 20
1324.682
 30
0
 11
326.464
 21
1324.682
 31
0
 0
ARC
 8
TOOL_0
 5
24B
 10
326.464
 20
1313.882
 30
0
 40
10.8
 50
48.460740534169
 51
90.0
210
0
220
0
230
1.0
 0
ARC
 8
TOOL_0
 5
24C
 10
269.021
 20
1252.859
 30
0
 40
94.602238208195
 50
43.466652314864
 51
46.928384843842
210
0
220
0
230
1.0
 0
LINE
 8
TOOL_0
 5
24D
 10
337.681
 20
1317.939
 30
0
 11
338.283
 21
1317.361
 31
0
 0
ARC
 8
TOOL_0
 5
24E
 10
345.51
 20
1323.263
 30
0
 40
9.330762723379
 50
219.237129311716
 51
272.7397465832
210
0
220
0
230
1.0
 0
LINE
 8
TOOL_0
 5
24F
 10
345.956
 20
1313.943
 30
0
 11
383.253
 21
1315.898
 31
0
 0
ARC
 8
TOOL_0
 5
250
 10
381.986
 20
1340.065
 30
0
 40
24.200189627356
 50
273.001090424869
 51
320.000123438967
210
0
220
0
230
1.0
 0
LINE
 8
TOOL_0
 5
251
 10
400.525
 20
1324.509
 30
0
 11
410.496
 21
1336.392
 31
0
 0
ARC
 8
TOOL_0
 5
252
 10
464.754
 20
1290.835
 30
0
 40
70.847518044036
 50
90.017791710546
 51
139.981952152145
210
0
220
0
230
1.0
 0
LINE
 8
TOOL_0
 5
253
 10
464.732
 20
1361.683
 30
0
 11
495.588
 21
1361.683
 31
0
 0
ARC
 8
TOOL_0
 5
254
 10
495.588
 20
1290.883
 30
0
 40
70.8
 50
41.351276536947
 51
90.0
210
0
220
0
230
1.0
 0
ARC
 8
TOOL_0
 5
255
 10
-3.221
 20
862.208
 30
0
 40
728.498581501708
 50
39.389999123718
 51
40.741326157114
210
0
220
0
230
1.0
 0
ARC
 8
TOOL_0
 5
256
 10
578.333
 20
1340.065
 30
0
 40
24.199493155849
 50
219.999584725572
 51
267.001150046702
210
0
220
0
230
1.0
 0
LINE
 8
TOOL_0
 5
257
 10
577.067
 20
1315.899
 30
0
 11
614.364
 21
1313.944
 31
0
 0
ARC
 8
TOOL_0
 5
258
 10
614.845
 20
1323.131
 30
0
 40
9.19958314273
 50
267.002924856545
 51
303.800613645745
210
0
220
0
230
1.0
 0
ARC
 8
TOOL_0
 5
259
 10
606.919
 20
1332.422
 30
0
 40
21.376950951901
 50
307.603236713993
 51
317.477862862891
210
0
220
0
230
1.0
 0
LINE
 8
TOOL_0
 5
25A
 10
622.674
 20
1317.974
 30
0
 11
626.218
 21
1321.52
 31
0
 0
ARC
 8
TOOL_0
 5
25B
 10
633.88
 20
1313.823
 30
0
 40
10.860481250847
 50
90.131896128692
 51
134.869434936404
210
0
220
0
230
1.0
 0
LINE
 8
TOOL_0
 5
25C
 10
633.855
 20
1324.683
 30
0
 11
696.36
 21
1324.683
 31
0
 0
ARC
 8
TOOL_0
 5
25D
 10
696.36
 20
1314.683
 30
0
 40
10.0
 50
0
 51
90.0
210
0
220
0
230
1.0
 0
LINE
 8
TOOL_0
 5
25E
 10
706.36
 20
1314.683
 30
0
 11
706.36
 21
1235.048
 31
0
 0
ARC
 8
TOOL_0
 5
25F
 10
697.16
 20
1235.048
 30
0
 40
9.2
 50
284.47729685701
 51
0
210
0
220
0
230
1.0
 0
ARC
 8
TOOL_0
 5
260
 10
701.66
 20
1217.619
 30
0
 40
8.800422773935
 50
104.476801494668
 51
157.996679615131
210
0
220
0
230
1.0
 0
LINE
 8
TOOL_0
 5
261
 10
693.501
 20
1220.916
 30
0
 11
672.258
 21
1168.337
 31
0
 0
ARC
 8
TOOL_0
 5
262
 10
662.97
 20
1172.107
 30
0
 40
10.023963487563
 50
270.091453680534
 51
337.907762266919
210
0
220
0
230
1.0
 0
LINE
 8
TOOL_0
 5
263
 10
662.986
 20
1162.083
 30
0
 11
575.809
 21
1162.083
 31
0
 0
ARC
 8
TOOL_0
 5
264
 10
575.809
 20
1142.883
 30
0
 40
19.2
 50
90.0
 51
148.07970508667
210
0
220
0
230
1.0
 0
ARC
 8
TOOL_0
 5
265
 10
540.156
 20
1165.107
 30
0
 40
22.812012624931
 50
318.751932443313
 51
328.048928599655
210
0
220
0
230
1.0
 0
LINE
 8
TOOL_0
 5
266
 10
557.307
 20
1150.067
 30
0
 11
556.586
 21
1144.882
 31
0
 0
LINE
 8
TOOL_0
 5
267
 10
556.586
 20
1144.882
 30
0
 11
824.506
 21
938.966
 31
0
 0
LINE
 8
TOOL_0
 5
268
 10
824.506
 20
938.966
 30
0
 11
793.811
 21
940.196
 31
0
 0
ARC
 8
TOOL_0
 5
269
 10
776.659
 20
955.237
 30
0
 40
22.812776792841
 50
239.85076744822
 51
318.751700019068
210
0
220
0
230
1.0
 0
ARC
 8
TOOL_0
 5
26A
 10
730.413
 20
875.69
 30
0
 40
69.199980809246
 50
59.820087804485
 51
90.0
210
0
220
0
230
1.0
 0
LINE
 8
TOOL_0
 5
26B
 10
730.413
 20
944.89
 30
0
 11
702.913
 21
944.89
 31
0
 0
ARC
 8
TOOL_0
 5
26C
 10
702.913
 20
875.69
 30
0
 40
69.2
 50
90.0
 51
120.179912195515
210
0
220
0
230
1.0
 0
ARC
 8
TOOL_0
 5
26D
 10
656.667
 20
955.236
 30
0
 40
22.812295807305
 50
211.951071400345
 51
300.150494021992
210
0
220
0
230
1.0
 0
ARC
 8
TOOL_0
 5
26E
 10
621.014
 20
933.012
 30
0
 40
19.200398771901
 50
31.92029491333
 51
90.0
210
0
220
0
230
1.0
 0
LINE
 8
TOOL_0
 5
26F
 10
621.014
 20
952.212
 30
0
 11
533.837
 21
952.212
 31
0
 0
ARC
 8
TOOL_0
 5
270
 10
533.853
 20
962.236
 30
0
 40
10.024012769345
 50
202.09223773308
 51
269.908546319466
210
0
220
0
230
1.0
 0
LINE
 8
TOOL_0
 5
271
 10
524.565
 20
958.466
 30
0
 11
503.322
 21
1011.045
 31
0
 0
ARC
 8
TOOL_0
 5
272
 10
495.163
 20
1007.748
 30
0
 40
8.79997102268
 50
22.003320384869
 51
75.523198505332
210
0
220
0
230
1.0
 0
ARC
 8
TOOL_0
 5
273
 10
499.663
 20
1025.177
 30
0
 40
9.200133912069
 50
180.0
 51
255.52270314299
210
0
220
0
230
1.0
 0
LINE
 8
TOOL_0
 5
274
 10
490.463
 20
1025.177
 30
0
 11
490.463
 21
1104.812
 31
0
 0
ARC
 8
TOOL_0
 5
275
 10
500.463
 20
1104.812
 30
0
 40
10.0
 50
90.0
 51
180.0
210
0
220
0
230
1.0
 0
LINE
 8
TOOL_0
 5
276
 10
500.463
 20
1114.812
 30
0
 11
562.968
 21
1114.812
 31
0
 0
ARC
 8
TOOL_0
 5
277
 10
562.968
 20
1104.012
 30
0
 40
10.8
 50
48.460740534169
 51
90.0
210
0
220
0
230
1.0
 0
ARC
 8
TOOL_0
 5
278
 10
505.525
 20
1042.989
 30
0
 40
94.602238208195
 50
43.466652314864
 51
46.928384843842
210
0
220
0
230
1.0
 0
LINE
 8
TOOL_0
 5
279
 10
574.185
 20
1108.069
 30
0
 11
574.787
 21
1107.491
 31
0
 0
ARC
 8
TOOL_0
 5
27A
 10
582.014
 20
1113.393
 30
0
 40
9.330762723379
 50
219.237129311716
 51
272.7397465832
210
0
220
0
230
1.0
 0
LINE
 8
TOOL_0
 5
27B
 10
582.46
 20
1104.073
 30
0
 11
619.757
 21
1106.028
 31
0
 0
ARC
 8
TOOL_0
 5
27C
 10
618.49
 20
1130.195
 30
0
 40
24.200189627356
 50
273.001090424869
 51
320.000123438967
210
0
220
0
230
1.0
 0
LINE
 8
TOOL_0
 5
27D
 10
637.029
 20
1114.639
 30
0
 11
647.0
 21
1126.522
 31
0
 0
ARC
 8
TOOL_0
 5
27E
 10
701.258
 20
1080.965
 30
0
 40
70.847518044036
 50
90.017791710546
 51
139.981952152145
210
0
220
0
230
1.0
 0
LINE
 8
TOOL_0
 5
27F
 10
701.236
 20
1151.813
 30
0
 11
732.092
 21
1151.813
 31
0
 0
ARC
 8
TOOL_0
 5
280
 10
732.092
 20
1081.013
 30
0
 40
70.8
 50
41.351276536947
 51
90.0
210
0
220
0
230
1.0
 0
ARC
 8
TOOL_0
 5
281
 10
233.283
 20
652.338
 30
0
 40
728.498581501708
 50
39.389999123718
 51
40.741326157114
210
0
220
0
230
1.0
 0
ARC
 8
TOOL_0
 5
282
 10
814.837
 20
1130.195
 30
0
 40
24.199493155849
 50
219.999584725572
 51
267.001150046702
210
0
220
0
230
1.0
 0
LINE
 8
TOOL_0
 5
283
 10
813.571
 20
1106.029
 30
0
 11
850.868
 21
1104.074
 31
0
 0
ARC
 8
TOOL_0
 5
284
 10
851.349
 20
1113.261
 30
0
 40
9.19958314273
 50
267.002924856545
 51
303.800613645745
210
0
220
0
230
1.0
 0
ARC
 8
TOOL_0
 5
285
 10
843.423
 20
1122.552
 30
0
 40
21.376950951901
 50
307.603236713993
 51
317.477862862891
210
0
220
0
230
1.0
 0
LINE
 8
TOOL_0
 5
286
 10
859.178
 20
1108.104
 30
0
 11
862.722
 21
1111.65
 31
0
 0
ARC
 8
TOOL_0
 5
287
 10
870.384
 20
1103.953
 30
0
 40
10.860481250847
 50
90.131896128692
 51
134.869434936404
210
0
220
0
230
1.0
 0
LINE
 8
TOOL_0
 5
288
 10
870.359
 20
1114.813
 30
0
 11
932.864
 21
1114.813
 31
0
 0
ARC
 8
TOOL_0
 5
289
 10
932.864
 20
1104.813
 30
0
 40
10.0
 50
0
 51
90.0
210
0
220
0
230
1.0
 0
LINE
 8
TOOL_0
 5
28A
 10
942.864
 20
1104.813
 30
0
 11
942.864
 21
1025.178
 31
0
 0
ARC
 8
TOOL_0
 5
28B
 10
933.664
 20
1025.178
 30
0
 40
9.2
 50
284.47729685701
 51
0
210
0
220
0
230
1.0
 0
ARC
 8
TOOL_0
 5
28C
 10
938.164
 20
1007.749
 30
0
 40
8.800422773935
 50
104.476801494668
 51
157.996679615132
210
0
220
0
230
1.0
 0
LINE
 8
TOOL_0
 5
28D
 10
930.005
 20
1011.046
 30
0
 11
908.762
 21
958.467
 31
0
 0
ARC
 8
TOOL_0
 5
28E
 10
899.474
 20
962.237
 30
0
 40
10.023963487563
 50
270.091453680534
 51
337.907762266919
210
0
220
0
230
1.0
 0
LINE
 8
TOOL_0
 5
28F
 10
899.49
 20
952.213
 30
0
 11
812.313
 21
952.213
 31
0
 0
ARC
 8
TOOL_0
 5
290
 10
812.313
 20
933.013
 30
0
 40
19.2
 50
90.0
 51
148.07970508667
210
0
220
0
230
1.0
 0
ARC
 8
TOOL_0
 5
291
 10
776.66
 20
955.237
 30
0
 40
22.812012624931
 50
318.751932443313
 51
328.048928599655
210
0
220
0
230
1.0
 0
LINE
 8
TOOL_0
 5
292
 10
793.811
 20
940.197
 30
0
 11
793.09
 21
935.012
 31
0
 0
LINE
 8
TOOL_0
 5
293
 10
793.09
 20
935.012
 30
0
 11
1058.942
 21
1150.912
 31
0
 0
LINE
 8
TOOL_0
 5
294
 10
1058.942
 20
1150.912
 30
0
 11
1028.247
 21
1152.142
 31
0
 0
ARC
 8
TOOL_0
 5
295
 10
1011.095
 20
1167.183
 30
0
 40
22.812776792841
 50
239.85076744822
 51
318.751700019068
210
0
220
0
230
1.0
 0
ARC
 8
TOOL_0
 5
296
 10
964.849
 20
1087.636
 30
0
 40
69.199980809246
 50
59.820087804485
 51
90.0
210
0
220
0
230
1.0
 0
LINE
 8
TOOL_0
 5
297
 10
964.849
 20
1156.836
 30
0
 11
937.349
 21
1156.836
 31
0
 0
ARC
 8
TOOL_0
 5
298
 10
937.349
 20
1087.636
 30
0
 40
69.2
 50
90.0
 51
120.179912195515
210
0
220
0
230
1.0
 0
ARC
 8
TOOL_0
 5
299
 10
891.103
 20
1167.182
 30
0
 40
22.812295807305
 50
211.951071400345
 51
300.150494021991
210
0
220
0
230
1.0
 0
ARC
 8
TOOL_0
 5
29A
 10
855.45
 20
1144.958
 30
0
 40
19.200398771901
 50
31.92029491333
 51
90.0
210
0
220
0
230
1.0
 0
LINE
 8
TOOL_0
 5
29B
 10
855.45
 20
1164.158
 30
0
 11
768.273
 21
1164.158
 31
0
 0
ARC
 8
TOOL_0
 5
29C
 10
768.289
 20
1174.182
 30
0
 40
10.024012769345
 50
202.09223773308
 51
269.908546319466
210
0
220
0
230
1.0
 0
LINE
 8
TOOL_0
 5
29D
 10
759.001
 20
1170.412
 30
0
 11
737.758
 21
1222.991
 31
0
 0
ARC
 8
TOOL_0
 5
29E
 10
729.599
 20
1219.694
 30
0
 40
8.79997102268
 50
22.003320384869
 51
75.523198505332
210
0
220
0
230
1.0
 0
ARC
 8
TOOL_0
 5
29F
 10
734.099
 20
1237.123
 30
0
 40
9.200133912069
 50
180.0
 51
255.52270314299
210
0
220
0
230
1.0
 0
LINE
 8
TOOL_0
 5
2A0
 10
724.899
 20
1237.123
 30
0
 11
724.899
 21
1316.758
 31
0
 0
ARC
 8
TOOL_0
 5
2A1
 10
734.899
 20
1316.758
 30
0
 40
10.0
 50
90.0
 51
180.0
210
0
220
0
230
1.0
 0
LINE
 8
TOOL_0
 5
2A2
 10
734.899
 20
1326.758
 30
0
 11
797.404
 21
1326.758
 31
0
 0
ARC
 8
TOOL_0
 5
2A3
 10
797.404
 20
1315.958
 30
0
 40
10.8
 50
48.460740534169
 51
90.0
210
0
220
0
230
1.0
 0
ARC
 8
TOOL_0
 5
2A4
 10
739.961
 20
1254.935
 30
0
 40
94.602238208195
 50
43.466652314864
 51
46.928384843842
210
0
220
0
230
1.0
 0
LINE
 8
TOOL_0
 5
2A5
 10
808.621
 20
1320.015
 30
0
 11
809.223
 21
1319.437
 31
0
 0
ARC
 8
TOOL_0
 5
2A6
 10
816.45
 20
1325.339
 30
0
 40
9.330762723379
 50
219.237129311716
 51
272.7397465832
210
0
220
0
230
1.0
 0
LINE
 8
TOOL_0
 5
2A7
 10
816.896
 20
1316.019
 30
0
 11
854.193
 21
1317.974
 31
0
 0
ARC
 8
TOOL_0
 5
2A8
 10
852.926
 20
1342.141
 30
0
 40
24.200189627356
 50
273.001090424869
 51
320.000123438967
210
0
220
0
230
1.0
 0
LINE
 8
TOOL_0
 5
2A9
 10
871.465
 20
1326.585
 30
0
 11
881.436
 21
1338.468
 31
0
 0
ARC
 8
TOOL_0
 5
2AA
 10
935.694
 20
1292.911
 30
0
 40
70.847518044036
 50
90.017791710546
 51
139.981952152145
210
0
220
0
230
1.0
 0
LINE
 8
TOOL_0
 5
2AB
 10
935.672
 20
1363.759
 30
0
 11
966.528
 21
1363.759
 31
0
 0
ARC
 8
TOOL_0
 5
2AC
 10
966.528
 20
1292.959
 30
0
 40
70.8
 50
41.351276536947
 51
90.0
210
0
220
0
230
1.0
 0
ARC
 8
TOOL_0
 5
2AD
 10
467.719
 20
864.284
 30
0
 40
728.498581501708
 50
39.389999123718
 51
40.741326157114
210
0
220
0
230
1.0
 0
ARC
 8
TOOL_0
 5
2AE
 10
1049.273
 20
1342.141
 30
0
 40
24.199493155849
 50
219.999584725572
 51
267.001150046702
210
0
220
0
230
1.0
 0
LINE
 8
TOOL_0
 5
2AF
 10
1048.007
 20
1317.975
 30
0
 11
1085.304
 21
1316.02
 31
0
 0
ARC
 8
TOOL_0
 5
2B0
 10
1085.785
 20
1325.207
 30
0
 40
9.19958314273
 50
267.002924856545
 51
303.800613645744
210
0
220
0
230
1.0
 0
ARC
 8
TOOL_0
 5
2B1
 10
1077.859
 20
1334.498
 30
0
 40
21.376950951901
 50
307.603236713993
 51
317.477862862891
210
0
220
0
230
1.0
 0
LINE
 8
TOOL_0
 5
2B2
 10
1093.614
 20
1320.05
 30
0
 11
1097.158
 21
1323.596
 31
0
 0
ARC
 8
TOOL_0
 5
2B3
 10
1104.82
 20
1315.899
 30
0
 40
10.860481250847
 50
90.131896128692
 51
134.869434936404
210
0
220
0
230
1.0
 0
LINE
 8
TOOL_0
 5
2B4
 10
1104.795
 20
1326.759
 30
0
 11
1167.3
 21
1326.759
 31
0
 0
ARC
 8
TOOL_0
 5
2B5
 10
1167.3
 20
1316.759
 30
0
 40
10.0
 50
0
 51
90.0
210
0
220
0
230
1.0
 0
LINE
 8
TOOL_0
 5
2B6
 10
1177.3
 20
1316.759
 30
0
 11
1177.3
 21
1237.124
 31
0
 0
ARC
 8
TOOL_0
 5
2B7
 10
1168.1
 20
1237.124
 30
0
 40
9.2
 50
284.477296857009
 51
0
210
0
220
0
230
1.0
 0
ARC
 8
TOOL_0
 5
2B8
 10
1172.6
 20
1219.695
 30
0
 40
8.800422773935
 50
104.476801494668
 51
157.996679615131
210
0
220
0
230
1.0
 0
LINE
 8
TOOL_0
 5
2B9
 10
1164.441
 20
1222.992
 30
0
 11
1143.198
 21
1170.413
 31
0
 0
ARC
 8
TOOL_0
 5
2BA
 10
1133.91
 20
1174.183
 30
0
 40
10.023963487563
 50
270.091453680535
 51
337.907762266919
210
0
220
0
230
1.0
 0
LINE
 8
TOOL_0
 5
2BB
 10
1133.926
 20
1164.159
 30
0
 11
1046.749
 21
1164.159
 31
0
 0
ARC
 8
TOOL_0
 5
2BC
 10
1046.749
 20
1144.959
 30
0
 40
19.2
 50
90.0
 51
148.07970508667
210
0
220
0
230
1.0
 0
ARC
 8
TOOL_0
 5
2BD
 10
1011.096
 20
1167.183
 30
0
 40
22.812012624931
 50
318.751932443313
 51
328.048928599655
210
0
220
0
230
1.0
 0
LINE
 8
TOOL_0
 5
2BE
 10
1028.247
 20
1152.143
 30
0
 11
1027.526
 21
1146.958
 31
0
 0
LINE
 8
TOOL_0
 5
2BF
 10
1027.526
 20
1146.958
 30
0
 11
1295.033
 21
938.139
 31
0
 0
LINE
 8
TOOL_0
 5
2C0
 10
1295.033
 20
938.139
 30
0
 11
1264.338
 21
939.369
 31
0
 0
ARC
 8
TOOL_0
 5
2C1
 10
1247.186
 20
954.41
 30
0
 40
22.812776792841
 50
239.85076744822
 51
318.751700019068
210
0
220
0
230
1.0
 0
ARC
 8
TOOL_0
 5
2C2
 10
1200.94
 20
874.863
 30
0
 40
69.199980809246
 50
59.820087804485
 51
90.0
210
0
220
0
230
1.0
 0
LINE
 8
TOOL_0
 5
2C3
 10
1200.94
 20
944.063
 30
0
 11
1173.44
 21
944.063
 31
0
 0
ARC
 8
TOOL_0
 5
2C4
 10
1173.44
 20
874.863
 30
0
 40
69.2
 50
90.0
 51
120.179912195515
210
0
220
0
230
1.0
 0
ARC
 8
TOOL_0
 5
2C5
 10
1127.194
 20
954.409
 30
0
 40
22.812295807305
 50
211.951071400345
 51
300.150494021992
210
0
220
0
230
1.0
 0
ARC
 8
TOOL_0
 5
2C6
 10
1091.541
 20
932.185
 30
0
 40
19.200398771901
 50
31.92029491333
 51
90.0
210
0
220
0
230
1.0
 0
LINE
 8
TOOL_0
 5
2C7
 10
1091.541
 20
951.385
 30
0
 11
1004.364
 21
951.385
 31
0
 0
ARC
 8
TOOL_0
 5
2C8
 10
1004.38
 20
961.409
 30
0
 40
10.024012769345
 50
202.09223773308
 51
269.908546319466
210
0
220
0
230
1.0
 0
LINE
 8
TOOL_0
 5
2C9
 10
995.092
 20
957.639
 30
0
 11
973.849
 21
1010.218
 31
0
 0
ARC
 8
TOOL_0
 5
2CA
 10
965.69
 20
1006.921
 30
0
 40
8.79997102268
 50
22.003320384869
 51
75.523198505332
210
0
220
0
230
1.0
 0
ARC
 8
TOOL_0
 5
2CB
 10
970.19
 20
1024.35
 30
0
 40
9.200133912069
 50
180.0
 51
255.522703142991
210
0
220
0
230
1.0
 0
LINE
 8
TOOL_0
 5
2CC
 10
960.99
 20
1024.35
 30
0
 11
960.99
 21
1103.985
 31
0
 0
ARC
 8
TOOL_0
 5
2CD
 10
970.99
 20
1103.985
 30
0
 40
10.0
 50
90.0
 51
180.0
210
0
220
0
230
1.0
 0
LINE
 8
TOOL_0
 5
2CE
 10
970.99
 20
1113.985
 30
0
 11
1033.495
 21
1113.985
 31
0
 0
ARC
 8
TOOL_0
 5
2CF
 10
1033.495
 20
1103.185
 30
0
 40
10.8
 50
48.460740534169
 51
90.0
210
0
220
0
230
1.0
 0
ARC
 8
TOOL_0
 5
2D0
 10
976.052
 20
1042.162
 30
0
 40
94.602238208195
 50
43.466652314864
 51
46.928384843842
210
0
220
0
230
1.0
 0
LINE
 8
TOOL_0
 5
2D1
 10
1044.712
 20
1107.242
 30
0
 11
1045.314
 21
1106.664
 31
0
 0
ARC
 8
TOOL_0
 5
2D2
 10
1052.541
 20
1112.566
 30
0
 40
9.330762723379
 50
219.237129311716
 51
272.739746583199
210
0
220
0
230
1.0
 0
LINE
 8
TOOL_0
 5
2D3
 10
1052.987
 20
1103.246
 30
0
 11
1090.284
 21
1105.201
 31
0
 0
ARC
 8
TOOL_0
 5
2D4
 10
1089.017
 20
1129.368
 30
0
 40
24.200189627356
 50
273.001090424869
 51
320.000123438967
210
0
220
0
230
1.0
 0
LINE
 8
TOOL_0
 5
2D5
 10
1107.556
 20
1113.812
 30
0
 11
1117.527
 21
1125.695
 31
0
 0
ARC
 8
TOOL_0
 5
2D6
 10
1171.785
 20
1080.138
 30
0
 40
70.847518044036
 50
90.017791710546
 51
139.981952152145
210
0
220
0
230
1.0
 0
LINE
 8
TOOL_0
 5
2D7
 10
1171.763
 20
1150.986
 30
0
 11
1202.619
 21
1150.986
 31
0
 0
ARC
 8
TOOL_0
 5
2D8
 10
1202.619
 20
1080.186
 30
0
 40
70.8
 50
41.351276536947
 51
90.0
210
0
220
0
230
1.0
 0
ARC
 8
TOOL_0
 5
2D9
 10
703.81
 20
651.511
 30
0
 40
728.498581501708
 50
39.389999123718
 51
40.741326157114
210
0
220
0
230
1.0
 0
ARC
 8
TOOL_0
 5
2DA
 10
1285.364
 20
1129.368
 30
0
 40
24.199493155849
 50
219.999584725572
 51
267.001150046702
210
0
220
0
230
1.0
 0
LINE
 8
TOOL_0
 5
2DB
 10
1284.098
 20
1105.202
 30
0
 11
1321.395
 21
1103.247
 31
0
 0
ARC
 8
TOOL_0
 5
2DC
 10
1321.876
 20
1112.434
 30
0
 40
9.19958314273
 50
267.002924856545
 51
303.800613645744
210
0
220
0
230
1.0
 0
ARC
 8
TOOL_0
 5
2DD
 10
1313.95
 20
1121.725
 30
0
 40
21.376950951901
 50
307.603236713993
 51
317.477862862891
210
0
220
0
230
1.0
 0
LINE
 8
TOOL_0
 5
2DE
 10
1329.705
 20
1107.277
 30
0
 11
1333.249
 21
1110.823
 31
0
 0
ARC
 8
TOOL_0
 5
2DF
 10
1340.911
 20
1103.126
 30
0
 40
10.860481250847
 50
90.131896128692
 51
134.869434936404
210
0
220
0
230
1.0
 0
LINE
 8
TOOL_0
 5
2E0
 10
1340.886
 20
1113.986
 30
0
 11
1403.391
 21
1113.986
 31
0
 0
ARC
 8
TOOL_0
 5
2E1
 10
1403.391
 20
1103.986
 30
0
 40
10.0
 50
0
 51
90.0
210
0
220
0
230
1.0
 0
LINE
 8
TOOL_0
 5
2E2
 10
1413.391
 20
1103.986
 30
0
 11
1413.391
 21
1024.351
 31
0
 0
ARC
 8
TOOL_0
 5
2E3
 10
1404.191
 20
1024.351
 30
0
 40
9.2
 50
284.477296857009
 51
0
210
0
220
0
230
1.0
 0
ARC
 8
TOOL_0
 5
2E4
 10
1408.691
 20
1006.922
 30
0
 40
8.800422773935
 50
104.476801494668
 51
157.996679615132
210
0
220
0
230
1.0
 0
LINE
 8
TOOL_0
 5
2E5
 10
1400.532
 20
1010.219
 30
0
 11
1379.289
 21
957.64
 31
0
 0
ARC
 8
TOOL_0
 5
2E6
 10
1370.001
 20
961.41
 30
0
 40
10.023963487563
 50
270.091453680535
 51
337.907762266919
210
0
220
0
230
1.0
 0
LINE
 8
TOOL_0
 5
2E7
 10
1370.017
 20
951.386
 30
0
 11
1282.84
 21
951.386
 31
0
 0
ARC
 8
TOOL_0
 5
2E8
 10
1282.84
 20
932.186
 30
0
 40
19.2
 50
90.0
 51
148.07970508667
210
0
220
0
230
1.0
 0
ARC
 8
TOOL_0
 5
2E9
 10
1247.187
 20
954.41
 30
0
 40
22.812012624931
 50
318.751932443313
 51
328.048928599655
210
0
220
0
230
1.0
 0
LINE
 8
TOOL_0
 5
2EA
 10
1264.338
 20
939.37
 30
0
 11
1263.617
 21
934.185
 31
0
 0
LINE
 8
TOOL_0
 5
2EB
 10
1263.617
 20
934.185
 30
0
 11
1765.56
 21
940.63
 31
0
 0
LINE
 8
TOOL_0
 5
2EC
 10
1765.56
 20
940.63
 30
0
 11
1734.865
 21
941.859
 31
0
 0
ARC
 8
TOOL_0
 5
2ED
 10
1717.713
 20
956.9
 30
0
 40
22.812776792841
 50
239.85076744822
 51
318.751700019068
210
0
220
0
230
1.0
 0
ARC
 8
TOOL_0
 5
2EE
 10
1671.467
 20
877.353
 30
0
 40
69.199980809246
 50
59.820087804485
 51
90.0
210
0
220
0
230
1.0
 0
LINE
 8
TOOL_0
 5
2EF
 10
1671.467
 20
946.553
 30
0
 11
1643.967
 21
946.553
 31
0
 0
ARC
 8
TOOL_0
 5
2F0
 10
1643.967
 20
877.353
 30
0
 40
69.2
 50
90.0
 51
120.179912195515
210
0
220
0
230
1.0
 0
ARC
 8
TOOL_0
 5
2F1
 10
1597.721
 20
956.899
 30
0
 40
22.812295807305
 50
211.951071400345
 51
300.150494021992
210
0
220
0
230
1.0
 0
ARC
 8
TOOL_0
 5
2F2
 10
1562.068
 20
934.675
 30
0
 40
19.200398771901
 50
31.92029491333
 51
90.0
210
0
220
0
230
1.0
 0
LINE
 8
TOOL_0
 5
2F3
 10
1562.068
 20
953.875
 30
0
 11
1474.891
 21
953.875
 31
0
 0
ARC
 8
TOOL_0
 5
2F4
 10
1474.907
 20
963.899
 30
0
 40
10.024012769345
 50
202.09223773308
 51
269.908546319465
210
0
220
0
230
1.0
 0
LINE
 8
TOOL_0
 5
2F5
 10
1465.619
 20
960.129
 30
0
 11
1444.376
 21
1012.708
 31
0
 0
ARC
 8
TOOL_0
 5
2F6
 10
1436.217
 20
1009.411
 30
0
 40
8.79997102268
 50
22.003320384869
 51
75.523198505332
210
0
220
0
230
1.0
 0
ARC
 8
TOOL_0
 5
2F7
 10
1440.717
 20
1026.84
 30
0
 40
9.200133912069
 50
180.0
 51
255.52270314299
210
0
220
0
230
1.0
 0
LINE
 8
TOOL_0
 5
2F8
 10
1431.517
 20
1026.84
 30
0
 11
1431.517
 21
1106.475
 31
0
 0
ARC
 8
TOOL_0
 5
2F9
 10
1441.517
 20
1106.475
 30
0
 40
10.0
 50
90.0
 51
180.0
210
0
220
0
230
1.0
 0
LINE
 8
TOOL_0
 5
2FA
 10
1441.517
 20
1116.475
 30
0
 11
1504.022
 21
1116.475
 31
0
 0
ARC
 8
TOOL_0
 5
2FB
 10
1504.022
 20
1105.675
 30
0
 40
10.8
 50
48.460740534169
 51
90.0
210
0
220
0
230
1.0
 0
ARC
 8
TOOL_0
 5
2FC
 10
1446.579
 20
1044.652
 30
0
 40
94.602238208195
 50
43.466652314864
 51
46.928384843842
210
0
220
0
230
1.0
 0
LINE
 8
TOOL_0
 5
2FD
 10
1515.239
 20
1109.732
 30
0
 11
1515.841
 21
1109.154
 31
0
 0
ARC
 8
TOOL_0
 5
2FE
 10
1523.068
 20
1115.056
 30
0
 40
9.330762723379
 50
219.237129311716
 51
272.739746583199
210
0
220
0
230
1.0
 0
LINE
 8
TOOL_0
 5
2FF
 10
1523.514
 20
1105.736
 30
0
 11
1560.811
 21
1107.691
 31
0
 0
ARC
 8
TOOL_0
 5
300
 10
1559.544
 20
1131.858
 30
0
 40
24.200189627356
 50
273.001090424869
 51
320.000123438967
210
0
220
0
230
1.0
 0
LINE
 8
TOOL_0
 5
301
 10
1578.083
 20
1116.302
 30
0
 11
1588.054
 21
1128.185
 31
0
 0
ARC
 8
TOOL_0
 5
302
 10
1642.312
 20
1082.628
 30
0
 40
70.847518044036
 50
90.017791710546
 51
139.981952152145
210
0
220
0
230
1.0
 0
LINE
 8
TOOL_0
 5
303
 10
1642.29
 20
1153.476
 30
0
 11
1673.146
 21
1153.476
 31
0
 0
ARC
 8
TOOL_0
 5
304
 10
1673.146
 20
1082.676
 30
0
 40
70.8
 50
41.351276536947
 51
90.0
210
0
220
0
230
1.0
 0
ARC
 8
TOOL_0
 5
305
 10
1174.337
 20
654.001
 30
0
 40
728.498581501708
 50
39.389999123718
 51
40.741326157114
210
0
220
0
230
1.0
 0
ARC
 8
TOOL_0
 5
306
 10
1755.891
 20
1131.858
 30
0
 40
24.199493155849
 50
219.999584725572
 51
267.001150046702
210
0
220
0
230
1.0
 0
LINE
 8
TOOL_0
 5
307
 10
1754.625
 20
1107.692
 30
0
 11
1791.922
 21
1105.737
 31
0
 0
ARC
 8
TOOL_0
 5
308
 10
1792.403
 20
1114.924
 30
0
 40
9.19958314273
 50
267.002924856545
 51
303.800613645744
210
0
220
0
230
1.0
 0
ARC
 8
TOOL_0
 5
309
 10
1784.477
 20
1124.215
 30
0
 40
21.376950951901
 50
307.603236713993
 51
317.477862862891
210
0
220
0
230
1.0
 0
LINE
 8
TOOL_0
 5
30A
 10
1800.232
 20
1109.767
 30
0
 11
1803.776
 21
1113.313
 31
0
 0
ARC
 8
TOOL_0
 5
30B
 10
1811.438
 20
1105.616
 30
0
 40
10.860481250847
 50
90.131896128692
 51
134.869434936404
210
0
220
0
230
1.0
 0
LINE
 8
TOOL_0
 5
30C
 10
1811.413
 20
1116.476
 30
0
 11
1873.918
 21
1116.476
 31
0
 0
ARC
 8
TOOL_0
 5
30D
 10
1873.918
 20
1106.476
 30
0
 40
10.0
 50
0
 51
90.0
210
0
220
0
230
1.0
 0
LINE
 8
TOOL_0
 5
30E
 10
1883.918
 20
1106.476
 30
0
 11
1883.918
 21
1026.841
 31
0
 0
ARC
 8
TOOL_0
 5
30F
 10
1874.718
 20
1026.841
 30
0
 40
9.2
 50
284.477296857009
 51
0
210
0
220
0
230
1.0
 0
ARC
 8
TOOL_0
 5
310
 10
1879.218
 20
1009.412
 30
0
 40
8.800422773935
 50
104.476801494668
 51
157.996679615132
210
0
220
0
230
1.0
 0
LINE
 8
TOOL_0
 5
311
 10
1871.059
 20
1012.709
 30
0
 11
1849.816
 21
960.13
 31
0
 0
ARC
 8
TOOL_0
 5
312
 10
1840.528
 20
963.9
 30
0
 40
10.023963487563
 50
270.091453680535
 51
337.907762266919
210
0
220
0
230
1.0
 0
LINE
 8
TOOL_0
 5
313
 10
1840.544
 20
953.876
 30
0
 11
1753.367
 21
953.876
 31
0
 0
ARC
 8
TOOL_0
 5
314
 10
1753.367
 20
934.676
 30
0
 40
19.2
 50
90.0
 51
148.07970508667
210
0
220
0
230
1.0
 0
ARC
 8
TOOL_0
 5
315
 10
1717.714
 20
956.9
 30
0
 40
22.812012624931
 50
318.751932443313
 51
328.048928599655
210
0
220
0
230
1.0
 0
LINE
 8
TOOL_0
 5
316
 10
1734.865
 20
941.86
 30
0
 11
1734.144
 21
936.675
 31
0
 0
LINE
 8
TOOL_0
 5
317
 10
1734.144
 20
936.675
 30
0
 11
2241.875
 21
940.216
 31
0
 0
LINE
 8
TOOL_0
 5
318
 10
2241.875
 20
940.216
 30
0
 11
2211.18
 21
941.445
 31
0
 0
ARC
 8
TOOL_0
 5
319
 10
2194.028
 20
956.486
 30
0
 40
22.812776792841
 50
239.85076744822
 51
318.751700019068
210
0
220
0
230
1.0
 0
ARC
 8
TOOL_0
 5
31A
 10
2147.782
 20
876.939
 30
0
 40
69.199980809246
 50
59.820087804485
 51
90.0
210
0
220
0
230
1.0
 0
LINE
 8
TOOL_0
 5
31B
 10
2147.782
 20
946.139
 30
0
 11
2120.282
 21
946.139
 31
0
 0
ARC
 8
TOOL_0
 5
31C
 10
2120.282
 20
876.939
 30
0
 40
69.2
 50
90.0
 51
120.179912195515
210
0
220
0
230
1.0
 0
ARC
 8
TOOL_0
 5
31D
 10
2074.036
 20
956.485
 30
0
 40
22.812295807305
 50
211.951071400345
 51
300.150494021992
210
0
220
0
230
1.0
 0
ARC
 8
TOOL_0
 5
31E
 10
2038.383
 20
934.261
 30
0
 40
19.200398771901
 50
31.92029491333
 51
90.0
210
0
220
0
230
1.0
 0
LINE
 8
TOOL_0
 5
31F
 10
2038.383
 20
953.461
 30
0
 11
1951.206
 21
953.461
 31
0
 0
ARC
 8
TOOL_0
 5
320
 10
1951.222
 20
963.485
 30
0
 40
10.024012769345
 50
202.09223773308
 51
269.908546319465
210
0
220
0
230
1.0
 0
LINE
 8
TOOL_0
 5
321
 10
1941.934
 20
959.715
 30
0
 11
1920.691
 21
1012.294
 31
0
 0
ARC
 8
TOOL_0
 5
322
 10
1912.532
 20
1008.997
 30
0
 40
8.79997102268
 50
22.003320384869
 51
75.523198505332
210
0
220
0
230
1.0
 0
ARC
 8
TOOL_0
 5
323
 10
1917.032
 20
1026.426
 30
0
 40
9.200133912069
 50
180.0
 51
255.52270314299
210
0
220
0
230
1.0
 0
LINE
 8
TOOL_0
 5
324
 10
1907.832
 20
1026.426
 30
0
 11
1907.832
 21
1106.061
 31
0
 0
ARC
 8
TOOL_0
 5
325
 10
1917.832
 20
1106.061
 30
0
 40
10.0
 50
90.0
 51
180.0
210
0
220
0
230
1.0
 0
LINE
 8
TOOL_0
 5
326
 10
1917.832
 20
1116.061
 30
0
 11
1980.337
 21
1116.061
 31
0
 0
ARC
 8
TOOL_0
 5
327
 10
1980.337
 20
1105.261
 30
0
 40
10.8
 50
48.460740534169
 51
90.0
210
0
220
0
230
1.0
 0
ARC
 8
TOOL_0
 5
328
 10
1922.894
 20
1044.238
 30
0
 40
94.602238208195
 50
43.466652314864
 51
46.928384843842
210
0
220
0
230
1.0
 0
LINE
 8
TOOL_0
 5
329
 10
1991.554
 20
1109.318
 30
0
 11
1992.156
 21
1108.74
 31
0
 0
ARC
 8
TOOL_0
 5
32A
 10
1999.383
 20
1114.642
 30
0
 40
9.330762723379
 50
219.237129311716
 51
272.739746583199
210
0
220
0
230
1.0
 0
LINE
 8
TOOL_0
 5
32B
 10
1999.829
 20
1105.322
 30
0
 11
2037.126
 21
1107.277
 31
0
 0
ARC
 8
TOOL_0
 5
32C
 10
2035.859
 20
1131.444
 30
0
 40
24.200189627356
 50
273.001090424869
 51
320.000123438967
210
0
220
0
230
1.0
 0
LINE
 8
TOOL_0
 5
32D
 10
2054.398
 20
1115.888
 30
0
 11
2064.369
 21
1127.771
 31
0
 0
ARC
 8
TOOL_0
 5
32E
 10
2118.627
 20
1082.214
 30
0
 40
70.847518044036
 50
90.017791710546
 51
139.981952152145
210
0
220
0
230
1.0
 0
LINE
 8
TOOL_0
 5
32F
 10
2118.605
 20
1153.062
 30
0
 11
2149.461
 21
1153.062
 31
0
 0
ARC
 8
TOOL_0
 5
330
 10
2149.461
 20
1082.262
 30
0
 40
70.8
 50
41.351276536947
 51
90.0
210
0
220
0
230
1.0
 0
ARC
 8
TOOL_0
 5
331
 10
1650.652
 20
653.587
 30
0
 40
728.498581501707
 50
39.389999123718
 51
40.741326157114
210
0
220
0
230
1.0
 0
ARC
 8
TOOL_0
 5
332
 10
2232.206
 20
1131.444
 30
0
 40
24.199493155849
 50
219.999584725572
 51
267.001150046702
210
0
220
0
230
1.0
 0
LINE
 8
TOOL_0
 5
333
 10
2230.94
 20
1107.278
 30
0
 11
2268.237
 21
1105.323
 31
0
 0
ARC
 8
TOOL_0
 5
334
 10
2268.718
 20
1114.51
 30
0
 40
9.19958314273
 50
267.002924856543
 51
303.800613645744
210
0
220
0
230
1.0
 0
ARC
 8
TOOL_0
 5
335
 10
2260.792
 20
1123.801
 30
0
 40
21.376950951901
 50
307.603236713993
 51
317.477862862891
210
0
220
0
230
1.0
 0
LINE
 8
TOOL_0
 5
336
 10
2276.547
 20
1109.353
 30
0
 11
2280.091
 21
1112.899
 31
0
 0
ARC
 8
TOOL_0
 5
337
 10
2287.753
 20
1105.202
 30
0
 40
10.860481250847
 50
90.13189612869
 51
134.869434936404
210
0
220
0
230
1.0
 0
LINE
 8
TOOL_0
 5
338
 10
2287.728
 20
1116.062
 30
0
 11
2350.233
 21
1116.062
 31
0
 0
ARC
 8
TOOL_0
 5
339
 10
2350.233
 20
1106.062
 30
0
 40
10.0
 50
0
 51
90.0
210
0
220
0
230
1.0
 0
LINE
 8
TOOL_0
 5
33A
 10
2360.233
 20
1106.062
 30
0
 11
2360.233
 21
1026.427
 31
0
 0
ARC
 8
TOOL_0
 5
33B
 10
2351.033
 20
1026.427
 30
0
 40
9.2
 50
284.477296857008
 51
0
210
0
220
0
230
1.0
 0
ARC
 8
TOOL_0
 5
33C
 10
2355.533
 20
1008.998
 30
0
 40
8.800422773935
 50
104.476801494667
 51
157.996679615131
210
0
220
0
230
1.0
 0
LINE
 8
TOOL_0
 5
33D
 10
2347.374
 20
1012.295
 30
0
 11
2326.131
 21
959.716
 31
0
 0
ARC
 8
TOOL_0
 5
33E
 10
2316.843
 20
963.486
 30
0
 40
10.023963487563
 50
270.091453680535
 51
337.907762266919
210
0
220
0
230
1.0
 0
LINE
 8
TOOL_0
 5
33F
 10
2316.859
 20
953.462
 30
0
 11
2229.682
 21
953.462
 31
0
 0
ARC
 8
TOOL_0
 5
340
 10
2229.682
 20
934.262
 30
0
 40
19.2
 50
90.0
 51
148.07970508667
210
0
220
0
230
1.0
 0
ARC
 8
TOOL_0
 5
341
 10
2194.029
 20
956.486
 30
0
 40
22.812012624931
 50
318.751932443314
 51
328.048928599656
210
0
220
0
230
1.0
 0
LINE
 8
TOOL_0
 5
342
 10
2211.18
 20
941.446
 30
0
 11
2210.459
 21
936.261
 31
0
 0
LINE
 8
TOOL_0
 5
343
 10
2210.459
 20
936.261
 30
0
 11
2750.294
 21
894.479
 31
0
 0
LINE
 8
TOOL_0
 5
344
 10
2750.294
 20
894.479
 30
0
 11
2747.48
 21
864.828
 31
0
 0
ARC
 8
TOOL_0
 5
345
 10
2739.288
 20
859.092
 30
0
 40
10.000527986062
 50
305.0028163752
 51
34.999529967113
210
0
220
0
230
1.0
 0
LINE
 8
TOOL_0
 5
346
 10
2745.024
 20
850.901
 30
0
 11
2679.791
 21
805.224
 31
0
 0
ARC
 8
TOOL_0
 5
347
 10
2674.514
 20
812.76
 30
0
 40
9.199892662417
 50
229.479096253653
 51
305.001203931472
210
0
220
0
230
1.0
 0
ARC
 8
TOOL_0
 5
348
 10
2662.819
 20
799.078
 30
0
 40
8.799900283526
 50
49.474976330731
 51
102.997057007741
210
0
220
0
230
1.0
 0
LINE
 8
TOOL_0
 5
349
 10
2660.84
 20
807.652
 30
0
 11
2605.585
 21
794.895
 31
0
 0
ARC
 8
TOOL_0
 5
34A
 10
2603.346
 20
804.665
 30
0
 40
10.023273966125
 50
215.088485532159
 51
282.907640831138
210
0
220
0
230
1.0
 0
LINE
 8
TOOL_0
 5
34B
 10
2595.144
 20
798.903
 30
0
 11
2545.141
 21
870.314
 31
0
 0
ARC
 8
TOOL_0
 5
34C
 10
2529.413
 20
859.301
 30
0
 40
19.200420646434
 50
35.000332048104
 51
93.078032123871
210
0
220
0
230
1.0
 0
ARC
 8
TOOL_0
 5
34D
 10
2527.169
 20
901.254
 30
0
 40
22.812272333111
 50
184.850617426907
 51
273.048033605748
210
0
220
0
230
1.0
 0
ARC
 8
TOOL_0
 5
34E
 10
2435.483
 20
893.51
 30
0
 40
69.199756141189
 50
4.820368464784
 51
35.000498975947
210
0
220
0
230
1.0
 0
LINE
 8
TOOL_0
 5
34F
 10
2492.168
 20
933.202
 30
0
 11
2476.395
 21
955.729
 31
0
 0
ARC
 8
TOOL_0
 5
350
 10
2419.71
 20
916.038
 30
0
 40
69.19945596607
 50
34.999820738408
 51
65.179984708915
210
0
220
0
230
1.0
 0
ARC
 8
TOOL_0
 5
351
 10
2458.345
 20
999.546
 30
0
 40
22.812289867525
 50
156.949485831808
 51
245.149253787222
210
0
220
0
230
1.0
 0
ARC
 8
TOOL_0
 5
352
 10
2419.691
 20
1016.004
 30
0
 40
19.199537624641
 50
336.921706974802
 51
35.002043738893
210
0
220
0
230
1.0
 0
LINE
 8
TOOL_0
 5
353
 10
2435.418
 20
1027.017
 30
0
 11
2385.415
 21
1098.428
 31
0
 0
ARC
 8
TOOL_0
 5
354
 10
2393.635
 20
1104.164
 30
0
 40
10.023477240958
 50
147.089957986303
 51
214.907728704575
210
0
220
0
230
1.0
 0
LINE
 8
TOOL_0
 5
355
 10
2385.22
 20
1109.61
 30
0
 11
2416.106
 21
1157.17
 31
0
 0
ARC
 8
TOOL_0
 5
356
 10
2408.726
 20
1161.963
 30
0
 40
8.799843691794
 50
326.997968869223
 51
20.523275600781
210
0
220
0
230
1.0
 0
ARC
 8
TOOL_0
 5
357
 10
2425.583
 20
1168.273
 30
0
 40
9.199787008404
 50
125.001203931472
 51
200.521056770353
210
0
220
0
230
1.0
 0
LINE
 8
TOOL_0
 5
358
 10
2420.306
 20
1175.809
 30
0
 11
2485.539
 21
1221.486
 31
0
 0
ARC
 8
TOOL_0
 5
359
 10
2491.275
 20
1213.294
 30
0
 40
10.000527986062
 50
35.0028163752
 51
124.999529967112
210
0
220
0
230
1.0
 0
LINE
 8
TOOL_0
 5
35A
 10
2499.466
 20
1219.03
 30
0
 11
2535.318
 21
1167.829
 31
0
 0
ARC
 8
TOOL_0
 5
35B
 10
2526.471
 20
1161.634
 30
0
 40
10.800344161183
 50
353.465891847927
 51
35.001146844438
210
0
220
0
230
1.0
 0
ARC
 8
TOOL_0
 5
35C
 10
2443.536
 20
1173.688
 30
0
 40
94.602168653789
 50
348.467002165328
 51
351.928483493155
210
0
220
0
230
1.0
 0
LINE
 8
TOOL_0
 5
35D
 10
2536.228
 20
1154.774
 30
0
 11
2536.1
 21
1153.95
 31
0
 0
ARC
 8
TOOL_0
 5
35E
 10
2545.08
 20
1151.415
 30
0
 40
9.330949844469
 50
164.235945943067
 51
217.73819096447
210
0
220
0
230
1.0
 0
LINE
 8
TOOL_0
 5
35F
 10
2537.701
 20
1145.704
 30
0
 11
2560.695
 21
1116.273
 31
0
 0
ARC
 8
TOOL_0
 5
360
 10
2579.765
 20
1131.172
 30
0
 40
24.200105392333
 50
217.999781906521
 51
265.000416761336
210
0
220
0
230
1.0
 0
LINE
 8
TOOL_0
 5
361
 10
2577.656
 20
1107.064
 30
0
 11
2593.109
 21
1105.712
 31
0
 0
ARC
 8
TOOL_0
 5
362
 10
2586.912
 20
1035.136
 30
0
 40
70.847544664582
 50
35.018256317801
 51
84.981953553873
210
0
220
0
230
1.0
 0
LINE
 8
TOOL_0
 5
363
 10
2644.934
 20
1075.791
 30
0
 11
2662.633
 21
1050.515
 31
0
 0
ARC
 8
TOOL_0
 5
364
 10
2604.637
 20
1009.906
 30
0
 40
70.799907464629
 50
346.351007617599
 51
34.999843297389
210
0
220
0
230
1.0
 0
ARC
 8
TOOL_0
 5
365
 10
1967.382
 20
1172.628
 30
0
 40
728.498346722215
 50
344.38968094381
 51
345.741338884848
210
0
220
0
230
1.0
 0
ARC
 8
TOOL_0
 5
366
 10
2692.385
 20
970.334
 30
0
 40
24.199689584786
 50
165.008188017018
 51
212.000865721885
210
0
220
0
230
1.0
 0
LINE
 8
TOOL_0
 5
367
 10
2671.863
 20
957.51
 30
0
 11
2691.655
 21
925.837
 31
0
 0
ARC
 8
TOOL_0
 5
368
 10
2699.457
 20
930.712
 30
0
 40
9.199827661429
 50
211.998781627359
 51
248.798833184852
210
0
220
0
230
1.0
 0
ARC
 8
TOOL_0
 5
369
 10
2702.522
 20
942.534
 30
0
 40
21.377017214757
 50
252.601685720926
 51
262.476380102756
210
0
220
0
230
1.0
 0
LINE
 8
TOOL_0
 5
36A
 10
2699.723
 20
921.341
 30
0
 11
2704.66
 21
920.472
 31
0
 0
ARC
 8
TOOL_0
 5
36B
 10
2702.75
 20
909.781
 30
0
 40
10.860275364833
 50
35.135950904989
 51
79.870691233049
210
0
220
0
230
1.0
 0
LINE
 8
TOOL_0
 5
36C
 10
2711.631
 20
916.031
 30
0
 11
2747.483
 21
864.83
 31
0
 0
LINE
 8
TOOL_0
 5
36D
 10
2747.483
 20
864.83
 30
0
 11
2752.344
 21
862.649
 31
0
 0
LINE
 8
TOOL_0
 5
36E
 10
2752.344
 20
862.649
 30
0
 11
2752.344
 21
0.027
 31
0
 0
LINE
 8
TOOL_0
 5
36F
 10
2752.344
 20
0.027
 30
0
 11
2552.244
 21
1286.095
 31
0
 0
LINE
 8
TOOL_0
 5
370
 10
2552.244
 20
1286.095
 30
0
 11
2534.387
 21
1262.088
 31
0
 0
ARC
 8
TOOL_0
 5
371
 10
2513.887
 20
1262.088
 30
0
 40
20.5
 50
270.0
 51
0
210
0
220
0
230
1.0
 0
LINE
 8
TOOL_0
 5
372
 10
2513.887
 20
1241.588
 30
0
 11
1964.133
 21
1241.588
 31
0
 0
ARC
 8
TOOL_0
 5
373
 10
1964.133
 20
1192.088
 30
0
 40
49.5
 50
90.0
 51
106.000090186573
210
0
220
0
230
1.0
 0
LINE
 8
TOOL_0
 5
374
 10
1950.489
 20
1239.67
 30
0
 11
1719.88
 21
1173.544
 31
0
 0
ARC
 8
TOOL_0
 5
375
 10
1705.96
 20
1222.088
 30
0
 40
50.500359761095
 50
270.0
 51
286.000253014864
210
0
220
0
230
1.0
 0
LINE
 8
TOOL_0
 5
376
 10
1705.96
 20
1171.588
 30
0
 11
1310.333
 21
1171.588
 31
0
 0
ARC
 8
TOOL_0
 5
377
 10
1310.333
 20
1222.088
 30
0
 40
50.5
 50
222.799683484637
 51
270.0
210
0
220
0
230
1.0
 0
LINE
 8
TOOL_0
 5
378
 10
1273.279
 20
1187.776
 30
0
 11
1214.159
 21
1251.62
 31
0
 0
ARC
 8
TOOL_0
 5
379
 10
1265.956
 20
1299.549
 30
0
 40
70.569952883646
 50
181.359250757383
 51
222.778823555331
210
0
220
0
230
1.0
 0
ARC
 8
TOOL_0
 5
37A
 10
1914.193
 20
1307.088
 30
0
 40
718.846041053298
 50
179.396540503934
 51
180.734344266698
210
0
220
0
230
1.0
 0
ARC
 8
TOOL_0
 5
37B
 10
1265.887
 20
1314.655
 30
0
 40
70.500000113475
 50
137.199793205599
 51
179.996749175634
210
0
220
0
230
1.0
 0
LINE
 8
TOOL_0
 5
37C
 10
1214.159
 20
1362.556
 30
0
 11
1273.279
 21
1426.4
 31
0
 0
ARC
 8
TOOL_0
 5
37D
 10
1310.332
 20
1392.088
 30
0
 40
50.499882702834
 50
90.0
 51
137.199545644524
210
0
220
0
230
1.0
 0
LINE
 8
TOOL_0
 5
37E
 10
1310.332
 20
1442.588
 30
0
 11
1705.959
 21
1442.588
 31
0
 0
ARC
 8
TOOL_0
 5
37F
 10
1705.959
 20
1392.088
 30
0
 40
50.5
 50
73.999746985137
 51
90.0
210
0
220
0
230
1.0
 0
LINE
 8
TOOL_0
 5
380
 10
1719.879
 20
1440.632
 30
0
 11
1950.488
 21
1374.506
 31
0
 0
ARC
 8
TOOL_0
 5
381
 10
1964.132
 20
1422.088
 30
0
 40
49.499550098966
 50
253.999909813426
 51
270.0
210
0
220
0
230
1.0
 0
LINE
 8
TOOL_0
 5
382
 10
1964.132
 20
1372.588
 30
0
 11
2513.886
 21
1372.588
 31
0
 0
ARC
 8
TOOL_0
 5
383
 10
2513.886
 20
1352.088
 30
0
 40
20.5
 50
0
 51
90.0
210
0
220
0
230
1.0
 0
LINE
 8
TOOL_0
 5
384
 10
2534.386
 20
1352.088
 30
0
 11
2534.386
 21
1262.088
 31
0
 0
LINE
 8
TOOL_0
 5
385
 10
2534.386
 20
1262.088
 30
0
 11
2536.655
 21
1256.697
 31
0
 0
LINE
 8
TOOL_0
 5
386
 10
2536.655
 20
1256.697
 30
0
 11
2536.655
 21
0.027
 31
0
 0
LINE
 8
TOOL_0
 5
387
 10
2536.655
 20
0.027
 30
0
 11
566.632
 21
1422.363
 31
0
 0
LINE
 8
TOOL_0
 5
388
 10
566.632
 20
1422.363
 30
0
 11
536.536
 21
1422.324
 31
0
 0
LINE
 8
TOOL_0
 5
389
 10
536.536
 20
1422.324
 30
0
 11
430.5
 21
1372.879
 31
0
 0
ARC
 8
TOOL_0
 5
38A
 10
409.052
 20
1418.874
 30
0
 40
50.749943142825
 50
270.0
 51
295.000183423018
210
0
220
0
230
1.0
 0
LINE
 8
TOOL_0
 5
38B
 10
409.052
 20
1368.124
 30
0
 11
266.43
 21
1368.124
 31
0
 0
ARC
 8
TOOL_0
 5
38C
 10
266.43
 20
1318.124
 30
0
 40
50.0
 50
90.0
 51
115.000278822611
210
0
220
0
230
1.0
 0
LINE
 8
TOOL_0
 5
38D
 10
245.299
 20
1363.439
 30
0
 11
200.721
 21
1342.652
 31
0
 0
ARC
 8
TOOL_0
 5
38E
 10
179.167
 20
1388.874
 30
0
 40
51.00047254683
 50
270.0
 51
295.000333377021
210
0
220
0
230
1.0
 0
LINE
 8
TOOL_0
 5
38F
 10
179.167
 20
1337.874
 30
0
 11
139.328
 21
1337.874
 31
0
 0
ARC
 8
TOOL_0
 5
390
 10
139.328
 20
1388.874
 30
0
 40
51.0
 50
222.799752759984
 51
270.0
210
0
220
0
230
1.0
 0
LINE
 8
TOOL_0
 5
391
 10
101.908
 20
1354.223
 30
0
 11
37.642
 21
1423.624
 31
0
 0
ARC
 8
TOOL_0
 5
392
 10
89.003
 20
1471.185
 30
0
 40
70.000007442857
 50
180.0
 51
222.80011562078
210
0
220
0
230
1.0
 0
ARC
 8
TOOL_0
 5
393
 10
747.754
 20
1478.874
 30
0
 40
728.791561917398
 50
179.26671457002
 51
180.604501266165
210
0
220
0
230
1.0
 0
ARC
 8
TOOL_0
 5
394
 10
89.071
 20
1486.536
 30
0
 40
70.068784961636
 50
137.221465025895
 51
178.638388650238
210
0
220
0
230
1.0
 0
LINE
 8
TOOL_0
 5
395
 10
37.642
 20
1534.124
 30
0
 11
101.908
 21
1603.525
 31
0
 0
ARC
 8
TOOL_0
 5
396
 10
139.328
 20
1568.873
 30
0
 40
51.000171607554
 50
90.0
 51
137.199422933132
210
0
220
0
230
1.0
 0
LINE
 8
TOOL_0
 5
397
 10
139.328
 20
1619.873
 30
0
 11
179.168
 21
1619.873
 31
0
 0
ARC
 8
TOOL_0
 5
398
 10
179.168
 20
1568.873
 30
0
 40
51.0
 50
64.999666622979
 51
90.0
210
0
220
0
230
1.0
 0
LINE
 8
TOOL_0
 5
399
 10
200.722
 20
1615.095
 30
0
 11
245.3
 21
1594.308
 31
0
 0
ARC
 8
TOOL_0
 5
39A
 10
266.431
 20
1639.623
 30
0
 40
49.999683859001
 50
244.999721177388
 51
270.0
210
0
220
0
230
1.0
 0
LINE
 8
TOOL_0
 5
39B
 10
266.431
 20
1589.623
 30
0
 11
409.053
 21
1589.623
 31
0
 0
ARC
 8
TOOL_0
 5
39C
 10
409.053
 20
1538.873
 30
0
 40
50.75
 50
64.999816576983
 51
90.0
210
0
220
0
230
1.0
 0
LINE
 8
TOOL_0
 5
39D
 10
430.501
 20
1584.868
 30
0
 11
560.524
 21
1524.237
 31
0
 0
ARC
 8
TOOL_0
 5
39E
 10
581.338
 20
1568.873
 30
0
 40
49.250330882137
 50
245.000114534572
 51
270.0
210
0
220
0
230
1.0
 0
LINE
 8
TOOL_0
 5
39F
 10
581.338
 20
1519.623
 30
0
 11
671.504
 21
1519.623
 31
0
 0
ARC
 8
TOOL_0
 5
3A0
 10
671.504
 20
1499.623
 30
0
 40
20.0
 50
0
 51
90.0
210
0
220
0
230
1.0
 0
LINE
 8
TOOL_0
 5
3A1
 10
691.504
 20
1499.623
 30
0
 11
691.504
 21
1458.123
 31
0
 0
ARC
 8
TOOL_0
 5
3A2
 10
671.504
 20
1458.123
 30
0
 40
20.0
 50
270.0
 51
0
210
0
220
0
230
1.0
 0
LINE
 8
TOOL_0
 5
3A3
 10
671.504
 20
1438.123
 30
0
 11
581.339
 21
1438.123
 31
0
 0
ARC
 8
TOOL_0
 5
3A4
 10
581.339
 20
1388.873
 30
0
 40
49.25
 50
90.0
 51
114.999885465428
210
0
220
0
230
1.0
 0
LINE
 8
TOOL_0
 5
3A5
 10
560.525
 20
1433.509
 30
0
 11
536.538
 21
1422.324
 31
0
 0
LINE
 8
TOOL_0
 5
3A6
 10
536.538
 20
1422.324
 30
0
 11
535.543
 21
1417.301
 31
0
 0
LINE
 8
TOOL_0
 5
3A7
 10
535.543
 20
1417.301
 30
0
 11
1168.761
 21
1689.151
 31
0
 0
LINE
 8
TOOL_0
 5
3A8
 10
1168.761
 20
1689.151
 30
0
 11
1158.711
 21
1658.968
 31
0
 0
ARC
 8
TOOL_0
 5
3A9
 10
1107.35
 20
1611.407
 30
0
 40
70.000007442857
 50
0
 51
42.80011562078
210
0
220
0
230
1.0
 0
ARC
 8
TOOL_0
 5
3AA
 10
448.599
 20
1603.718
 30
0
 40
728.791561917398
 50
359.267029014284
 51
0.604501266166
210
0
220
0
230
1.0
 0
ARC
 8
TOOL_0
 5
3AB
 10
1107.282
 20
1596.057
 30
0
 40
70.068713738729
 50
317.220864842537
 51
358.640841082922
210
0
220
0
230
1.0
 0
LINE
 8
TOOL_0
 5
3AC
 10
1158.711
 20
1548.468
 30
0
 11
1094.445
 21
1479.067
 31
0
 0
ARC
 8
TOOL_0
 5
3AD
 10
1057.025
 20
1513.719
 30
0
 40
51.000171607555
 50
270.0
 51
317.199422933132
210
0
220
0
230
1.0
 0
LINE
 8
TOOL_0
 5
3AE
 10
1057.025
 20
1462.719
 30
0
 11
1017.186
 21
1462.719
 31
0
 0
ARC
 8
TOOL_0
 5
3AF
 10
1017.186
 20
1513.719
 30
0
 40
51.0
 50
244.999666622979
 51
270.0
210
0
220
0
230
1.0
 0
LINE
 8
TOOL_0
 5
3B0
 10
995.632
 20
1467.497
 30
0
 11
951.054
 21
1488.284
 31
0
 0
ARC
 8
TOOL_0
 5
3B1
 10
929.923
 20
1442.969
 30
0
 40
49.999683859001
 50
64.999721177388
 51
90.0
210
0
220
0
230
1.0
 0
LINE
 8
TOOL_0
 5
3B2
 10
929.923
 20
1492.969
 30
0
 11
787.301
 21
1492.969
 31
0
 0
ARC
 8
TOOL_0
 5
3B3
 10
787.301
 20
1543.719
 30
0
 40
50.75
 50
244.999816576982
 51
270.0
210
0
220
0
230
1.0
 0
LINE
 8
TOOL_0
 5
3B4
 10
765.853
 20
1497.724
 30
0
 11
635.83
 21
1558.355
 31
0
 0
ARC
 8
TOOL_0
 5
3B5
 10
615.016
 20
1513.719
 30
0
 40
49.250330882137
 50
65.000114534572
 51
90.0
210
0
220
0
230
1.0
 0
LINE
 8
TOOL_0
 5
3B6
 10
615.016
 20
1562.969
 30
0
 11
524.851
 21
1562.969
 31
0
 0
ARC
 8
TOOL_0
 5
3B7
 10
524.851
 20
1582.969
 30
0
 40
20.0
 50
180.0
 51
270.0
210
0
220
0
230
1.0
 0
LINE
 8
TOOL_0
 5
3B8
 10
504.851
 20
1582.969
 30
0
 11
504.851
 21
1624.469
 31
0
 0
ARC
 8
TOOL_0
 5
3B9
 10
524.851
 20
1624.469
 30
0
 40
20.0
 50
90.0
 51
180.0
210
0
220
0
230
1.0
 0
LINE
 8
TOOL_0
 5
3BA
 10
524.851
 20
1644.469
 30
0
 11
615.016
 21
1644.469
 31
0
 0
ARC
 8
TOOL_0
 5
3BB
 10
615.016
 20
1693.719
 30
0
 40
49.25
 50
270.0
 51
294.999885465428
210
0
220
0
230
1.0
 0
LINE
 8
TOOL_0
 5
3BC
 10
635.83
 20
1649.083
 30
0
 11
765.853
 21
1709.714
 31
0
 0
ARC
 8
TOOL_0
 5
3BD
 10
787.301
 20
1663.719
 30
0
 40
50.749943142825
 50
90.0
 51
115.000183423017
210
0
220
0
230
1.0
 0
LINE
 8
TOOL_0
 5
3BE
 10
787.301
 20
1714.469
 30
0
 11
929.923
 21
1714.469
 31
0
 0
ARC
 8
TOOL_0
 5
3BF
 10
929.923
 20
1764.469
 30
0
 40
50.0
 50
270.0
 51
294.999794538419
210
0
220
0
230
1.0
 0
LINE
 8
TOOL_0
 5
3C0
 10
951.054
 20
1719.153
 30
0
 11
995.632
 21
1739.94
 31
0
 0
ARC
 8
TOOL_0
 5
3C1
 10
1017.186
 20
1693.718
 30
0
 40
51.00047254683
 50
90.0
 51
115.000333377021
210
0
220
0
230
1.0
 0
LINE
 8
TOOL_0
 5
3C2
 10
1017.186
 20
1744.718
 30
0
 11
1057.026
 21
1744.718
 31
0
 0
ARC
 8
TOOL_0
 5
3C3
 10
1057.026
 20
1693.718
 30
0
 40
51.0
 50
42.800577066868
 51
90.0
210
0
220
0
230
1.0
 0
LINE
 8
TOOL_0
 5
3C4
 10
1094.446
 20
1728.37
 30
0
 11
1158.712
 21
1658.969
 31
0
 0
LINE
 8
TOOL_0
 5
3C5
 10
1158.712
 20
1658.969
 30
0
 11
1163.617
 21
1657.609
 31
0
 0
LINE
 8
TOOL_0
 5
3C6
 10
1163.617
 20
1657.609
 30
0
 11
0.005
 21
1790.565
 31
0
 0
LINE
 8
TOOL_0
 5
3C7
 10
0.005
 20
1790.565
 30
0
 11
1.005
 21
1790.565
 31
0
 0
LINE
 8
TOOL_0
 5
3C8
 10
1.005
 20
1790.565
 30
0
 11
0.005
 21
1790.565
 31
0
 0
LINE
 8
TOOL_0
 5
3C9
 10
0.005
 20
1790.565
 30
0
 11
1.005
 21
1790.565
 31
0
 0
LINE
 8
TOOL_0
 5
3CA
 10
1.005
 20
1790.565
 30
0
 11
2767.005
 21
1790.565
 31
0
 0
LINE
 8
TOOL_0
 5
3CB
 10
2767.005
 20
1790.565
 30
0
 11
2768.005
 21
1790.565
 31
0
 0
ENDSEC
 0
EOF

