0
SECTION
2
TABLES
0
TABLE
2
LAYER
70
0
0
LAYER
2
LAYER_NAME
70
0
62
1
6
CONTINUOUS
0
ENDTAB
0
ENDSEC
 0
SECTION
 2
ENTITIES
 0
LINE
 8
TOOL_0
 5
1
 10
240.5
 20
152.801
 30
0
 11
270.5
 21
152.801
 31
0
 0
LINE
 8
TOOL_0
 5
2
 10
270.5
 20
152.801
 30
0
 11
270.5
 21
202.801
 31
0
 0
ARC
 8
TOOL_0
 5
3
 10
250.5
 20
202.801
 30
0
 40
20.0
 50
0
 51
90.0
210
0
220
0
230
1.0
 0
LINE
 8
TOOL_0
 5
4
 10
250.5
 20
222.801
 30
0
 11
120.5
 21
222.801
 31
0
 0
ARC
 8
TOOL_0
 5
5
 10
120.5
 20
202.801
 30
0
 40
20.0
 50
90.0
 51
180.0
210
0
220
0
230
1.0
 0
LINE
 8
TOOL_0
 5
6
 10
100.5
 20
202.801
 30
0
 11
100.5
 21
102.801
 31
0
 0
ARC
 8
TOOL_0
 5
7
 10
120.5
 20
102.801
 30
0
 40
20.0
 50
180.0
 51
270.0
210
0
220
0
230
1.0
 0
LINE
 8
TOOL_0
 5
8
 10
120.5
 20
82.801
 30
0
 11
250.5
 21
82.801
 31
0
 0
ARC
 8
TOOL_0
 5
9
 10
250.5
 20
102.801
 30
0
 40
20.0
 50
270.0
 51
0
210
0
220
0
230
1.0
 0
LINE
 8
TOOL_0
 5
A
 10
270.5
 20
102.801
 30
0
 11
270.5
 21
152.801
 31
0
 0
LINE
 8
TOOL_0
 5
B
 10
270.5
 20
152.801
 30
0
 11
266.964
 21
156.337
 31
0
 0
LINE
 8
TOOL_0
 5
C
 10
266.964
 20
156.337
 30
0
 11
1283.0
 21
159.801
 31
0
 0
LINE
 8
TOOL_0
 5
D
 10
1283.0
 20
159.801
 30
0
 11
1313.0
 21
159.801
 31
0
 0
LINE
 8
TOOL_0
 5
E
 10
1313.0
 20
159.801
 30
0
 11
1313.0
 21
194.801
 31
0
 0
ARC
 8
TOOL_0
 5
F
 10
1293.0
 20
194.801
 30
0
 40
20.0
 50
0
 51
90.0
210
0
220
0
230
1.0
 0
LINE
 8
TOOL_0
 5
10
 10
1293.0
 20
214.801
 30
0
 11
883.0
 21
214.801
 31
0
 0
ARC
 8
TOOL_0
 5
11
 10
883.0
 20
194.801
 30
0
 40
20.0
 50
90.0
 51
180.0
210
0
220
0
230
1.0
 0
LINE
 8
TOOL_0
 5
12
 10
863.0
 20
194.801
 30
0
 11
863.0
 21
124.801
 31
0
 0
ARC
 8
TOOL_0
 5
13
 10
883.0
 20
124.801
 30
0
 40
20.0
 50
180.0
 51
270.0
210
0
220
0
230
1.0
 0
LINE
 8
TOOL_0
 5
14
 10
883.0
 20
104.801
 30
0
 11
1293.0
 21
104.801
 31
0
 0
ARC
 8
TOOL_0
 5
15
 10
1293.0
 20
124.801
 30
0
 40
20.0
 50
270.0
 51
0
210
0
220
0
230
1.0
 0
LINE
 8
TOOL_0
 5
16
 10
1313.0
 20
124.801
 30
0
 11
1313.0
 21
159.801
 31
0
 0
LINE
 8
TOOL_0
 5
17
 10
1313.0
 20
159.801
 30
0
 11
1309.464
 21
163.337
 31
0
 0
LINE
 8
TOOL_0
 5
18
 10
1309.464
 20
163.337
 30
0
 11
2045.5
 21
152.801
 31
0
 0
LINE
 8
TOOL_0
 5
19
 10
2045.5
 20
152.801
 30
0
 11
2075.5
 21
152.801
 31
0
 0
LINE
 8
TOOL_0
 5
1A
 10
2075.5
 20
152.801
 30
0
 11
2075.5
 21
202.801
 31
0
 0
ARC
 8
TOOL_0
 5
1B
 10
2055.5
 20
202.801
 30
0
 40
20.0
 50
0
 51
90.0
210
0
220
0
230
1.0
 0
LINE
 8
TOOL_0
 5
1C
 10
2055.5
 20
222.801
 30
0
 11
1925.5
 21
222.801
 31
0
 0
ARC
 8
TOOL_0
 5
1D
 10
1925.5
 20
202.801
 30
0
 40
20.0
 50
90.0
 51
180.0
210
0
220
0
230
1.0
 0
LINE
 8
TOOL_0
 5
1E
 10
1905.5
 20
202.801
 30
0
 11
1905.5
 21
102.801
 31
0
 0
ARC
 8
TOOL_0
 5
1F
 10
1925.5
 20
102.801
 30
0
 40
20.0
 50
180.0
 51
270.0
210
0
220
0
230
1.0
 0
LINE
 8
TOOL_0
 5
20
 10
1925.5
 20
82.801
 30
0
 11
2055.5
 21
82.801
 31
0
 0
ARC
 8
TOOL_0
 5
21
 10
2055.5
 20
102.801
 30
0
 40
20.0
 50
270.0
 51
0
210
0
220
0
230
1.0
 0
LINE
 8
TOOL_0
 5
22
 10
2075.5
 20
102.801
 30
0
 11
2075.5
 21
152.801
 31
0
 0
LINE
 8
TOOL_0
 5
23
 10
2075.5
 20
152.801
 30
0
 11
2071.964
 21
156.337
 31
0
 0
LINE
 8
TOOL_0
 5
24
 10
2071.964
 20
156.337
 30
0
 11
2187.513
 21
19.001
 31
0
 0
LINE
 8
TOOL_0
 5
25
 10
2187.513
 20
19.001
 30
0
 11
2157.0
 21
19.001
 31
0
 0
LINE
 8
TOOL_0
 5
26
 10
2157.0
 20
19.001
 30
0
 11
19.0
 21
19.001
 31
0
 0
LINE
 8
TOOL_0
 5
27
 10
19.0
 20
19.001
 30
0
 11
19.0
 21
370.601
 31
0
 0
LINE
 8
TOOL_0
 5
28
 10
19.0
 20
370.601
 30
0
 11
320.831
 21
370.601
 31
0
 0
LINE
 8
TOOL_0
 5
29
 10
320.831
 20
370.601
 30
0
 11
340.831
 21
350.601
 31
0
 0
LINE
 8
TOOL_0
 5
2A
 10
340.831
 20
350.601
 30
0
 11
720.831
 21
350.601
 31
0
 0
LINE
 8
TOOL_0
 5
2B
 10
720.831
 20
350.601
 30
0
 11
760.831
 21
310.601
 31
0
 0
LINE
 8
TOOL_0
 5
2C
 10
760.831
 20
310.601
 30
0
 11
1415.168
 21
310.601
 31
0
 0
LINE
 8
TOOL_0
 5
2D
 10
1415.168
 20
310.601
 30
0
 11
1455.168
 21
350.601
 31
0
 0
LINE
 8
TOOL_0
 5
2E
 10
1455.168
 20
350.601
 30
0
 11
1835.168
 21
350.601
 31
0
 0
LINE
 8
TOOL_0
 5
2F
 10
1835.168
 20
350.601
 30
0
 11
1855.168
 21
370.601
 31
0
 0
LINE
 8
TOOL_0
 5
30
 10
1855.168
 20
370.601
 30
0
 11
2156.999
 21
370.601
 31
0
 0
LINE
 8
TOOL_0
 5
31
 10
2156.999
 20
370.601
 30
0
 11
2156.999
 21
19.001
 31
0
 0
LINE
 8
TOOL_0
 5
32
 10
2156.999
 20
19.001
 30
0
 11
2156.999
 21
13.76
 31
0
 0
LINE
 8
TOOL_0
 5
33
 10
2156.999
 20
13.76
 30
0
 11
219.749
 21
514.683
 31
0
 0
LINE
 8
TOOL_0
 5
34
 10
219.749
 20
514.683
 30
0
 11
249.749
 21
514.683
 31
0
 0
LINE
 8
TOOL_0
 5
35
 10
249.749
 20
514.683
 30
0
 11
249.749
 21
564.683
 31
0
 0
ARC
 8
TOOL_0
 5
36
 10
229.749
 20
564.683
 30
0
 40
20.0
 50
0
 51
90.0
210
0
220
0
230
1.0
 0
LINE
 8
TOOL_0
 5
37
 10
229.749
 20
584.683
 30
0
 11
109.749
 21
584.683
 31
0
 0
ARC
 8
TOOL_0
 5
38
 10
109.749
 20
564.683
 30
0
 40
20.0
 50
90.0
 51
180.0
210
0
220
0
230
1.0
 0
LINE
 8
TOOL_0
 5
39
 10
89.749
 20
564.683
 30
0
 11
89.749
 21
464.683
 31
0
 0
ARC
 8
TOOL_0
 5
3A
 10
109.749
 20
464.683
 30
0
 40
20.0
 50
180.0
 51
270.0
210
0
220
0
230
1.0
 0
LINE
 8
TOOL_0
 5
3B
 10
109.749
 20
444.683
 30
0
 11
229.749
 21
444.683
 31
0
 0
ARC
 8
TOOL_0
 5
3C
 10
229.749
 20
464.683
 30
0
 40
20.0
 50
270.0
 51
0
210
0
220
0
230
1.0
 0
LINE
 8
TOOL_0
 5
3D
 10
249.749
 20
464.683
 30
0
 11
249.749
 21
514.683
 31
0
 0
LINE
 8
TOOL_0
 5
3E
 10
249.749
 20
514.683
 30
0
 11
246.213
 21
518.219
 31
0
 0
LINE
 8
TOOL_0
 5
3F
 10
246.213
 20
518.219
 30
0
 11
1150.749
 21
534.683
 31
0
 0
LINE
 8
TOOL_0
 5
40
 10
1150.749
 20
534.683
 30
0
 11
1180.749
 21
534.683
 31
0
 0
LINE
 8
TOOL_0
 5
41
 10
1180.749
 20
534.683
 30
0
 11
1180.749
 21
569.683
 31
0
 0
ARC
 8
TOOL_0
 5
42
 10
1160.749
 20
569.683
 30
0
 40
20.0
 50
0
 51
90.0
210
0
220
0
230
1.0
 0
LINE
 8
TOOL_0
 5
43
 10
1160.749
 20
589.683
 30
0
 11
750.749
 21
589.683
 31
0
 0
ARC
 8
TOOL_0
 5
44
 10
750.749
 20
569.683
 30
0
 40
20.0
 50
90.0
 51
180.0
210
0
220
0
230
1.0
 0
LINE
 8
TOOL_0
 5
45
 10
730.749
 20
569.683
 30
0
 11
730.749
 21
499.683
 31
0
 0
ARC
 8
TOOL_0
 5
46
 10
750.749
 20
499.683
 30
0
 40
20.0
 50
180.0
 51
270.0
210
0
220
0
230
1.0
 0
LINE
 8
TOOL_0
 5
47
 10
750.749
 20
479.683
 30
0
 11
1160.749
 21
479.683
 31
0
 0
ARC
 8
TOOL_0
 5
48
 10
1160.749
 20
499.683
 30
0
 40
20.0
 50
270.0
 51
0
210
0
220
0
230
1.0
 0
LINE
 8
TOOL_0
 5
49
 10
1180.749
 20
499.683
 30
0
 11
1180.749
 21
534.683
 31
0
 0
LINE
 8
TOOL_0
 5
4A
 10
1180.749
 20
534.683
 30
0
 11
1177.213
 21
538.219
 31
0
 0
LINE
 8
TOOL_0
 5
4B
 10
1177.213
 20
538.219
 30
0
 11
1791.749
 21
514.683
 31
0
 0
LINE
 8
TOOL_0
 5
4C
 10
1791.749
 20
514.683
 30
0
 11
1821.749
 21
514.683
 31
0
 0
LINE
 8
TOOL_0
 5
4D
 10
1821.749
 20
514.683
 30
0
 11
1821.749
 21
564.683
 31
0
 0
ARC
 8
TOOL_0
 5
4E
 10
1801.749
 20
564.683
 30
0
 40
20.0
 50
0
 51
90.0
210
0
220
0
230
1.0
 0
LINE
 8
TOOL_0
 5
4F
 10
1801.749
 20
584.683
 30
0
 11
1681.749
 21
584.683
 31
0
 0
ARC
 8
TOOL_0
 5
50
 10
1681.749
 20
564.683
 30
0
 40
20.0
 50
90.0
 51
180.0
210
0
220
0
230
1.0
 0
LINE
 8
TOOL_0
 5
51
 10
1661.749
 20
564.683
 30
0
 11
1661.749
 21
464.683
 31
0
 0
ARC
 8
TOOL_0
 5
52
 10
1681.749
 20
464.683
 30
0
 40
20.0
 50
180.0
 51
270.0
210
0
220
0
230
1.0
 0
LINE
 8
TOOL_0
 5
53
 10
1681.749
 20
444.683
 30
0
 11
1801.749
 21
444.683
 31
0
 0
ARC
 8
TOOL_0
 5
54
 10
1801.749
 20
464.683
 30
0
 40
20.0
 50
270.0
 51
0
210
0
220
0
230
1.0
 0
LINE
 8
TOOL_0
 5
55
 10
1821.749
 20
464.683
 30
0
 11
1821.749
 21
514.683
 31
0
 0
LINE
 8
TOOL_0
 5
56
 10
1821.749
 20
514.683
 30
0
 11
1818.213
 21
518.219
 31
0
 0
LINE
 8
TOOL_0
 5
57
 10
1818.213
 20
518.219
 30
0
 11
1922.536
 21
393.933
 31
0
 0
LINE
 8
TOOL_0
 5
58
 10
1922.536
 20
393.933
 30
0
 11
1892.499
 21
393.933
 31
0
 0
LINE
 8
TOOL_0
 5
59
 10
1892.499
 20
393.933
 30
0
 11
18.999
 21
393.933
 31
0
 0
LINE
 8
TOOL_0
 5
5A
 10
18.999
 20
393.933
 30
0
 11
18.999
 21
745.433
 31
0
 0
LINE
 8
TOOL_0
 5
5B
 10
18.999
 20
745.433
 30
0
 11
249.95
 21
745.433
 31
0
 0
LINE
 8
TOOL_0
 5
5C
 10
249.95
 20
745.433
 30
0
 11
284.591
 21
725.433
 31
0
 0
LINE
 8
TOOL_0
 5
5D
 10
284.591
 20
725.433
 30
0
 11
591.06
 21
725.433
 31
0
 0
LINE
 8
TOOL_0
 5
5E
 10
591.06
 20
725.433
 30
0
 11
631.06
 21
685.433
 31
0
 0
LINE
 8
TOOL_0
 5
5F
 10
631.06
 20
685.433
 30
0
 11
1280.439
 21
685.433
 31
0
 0
LINE
 8
TOOL_0
 5
60
 10
1280.439
 20
685.433
 30
0
 11
1320.439
 21
725.433
 31
0
 0
LINE
 8
TOOL_0
 5
61
 10
1320.439
 20
725.433
 30
0
 11
1626.908
 21
725.433
 31
0
 0
LINE
 8
TOOL_0
 5
62
 10
1626.908
 20
725.433
 30
0
 11
1661.549
 21
745.433
 31
0
 0
LINE
 8
TOOL_0
 5
63
 10
1661.549
 20
745.433
 30
0
 11
1892.5
 21
745.433
 31
0
 0
LINE
 8
TOOL_0
 5
64
 10
1892.5
 20
745.433
 30
0
 11
1892.5
 21
393.933
 31
0
 0
LINE
 8
TOOL_0
 5
65
 10
1892.5
 20
393.933
 30
0
 11
1892.5
 21
388.553
 31
0
 0
LINE
 8
TOOL_0
 5
66
 10
1892.5
 20
388.553
 30
0
 11
186.25
 21
987.977
 31
0
 0
LINE
 8
TOOL_0
 5
67
 10
186.25
 20
987.977
 30
0
 11
216.25
 21
987.977
 31
0
 0
ARC
 8
TOOL_0
 5
68
 10
156.25
 20
987.977
 30
0
 40
60.0
 50
0
 51
180.0
210
0
220
0
230
1.0
 0
ARC
 8
TOOL_0
 5
69
 10
156.25
 20
987.977
 30
0
 40
60.0
 50
180.0
 51
0
210
0
220
0
230
1.0
 0
LINE
 8
TOOL_0
 5
6A
 10
216.25
 20
987.977
 30
0
 11
212.714
 21
991.513
 31
0
 0
LINE
 8
TOOL_0
 5
6B
 10
212.714
 20
991.513
 30
0
 11
580.008
 21
764.728
 31
0
 0
LINE
 8
TOOL_0
 5
6C
 10
580.008
 20
764.728
 30
0
 11
549.25
 21
764.728
 31
0
 0
LINE
 8
TOOL_0
 5
6D
 10
549.25
 20
764.728
 30
0
 11
30.25
 21
764.728
 31
0
 0
ARC
 8
TOOL_0
 5
6E
 10
30.25
 20
774.978
 30
0
 40
10.25
 50
180.0
 51
270.0
210
0
220
0
230
1.0
 0
LINE
 8
TOOL_0
 5
6F
 10
20.0
 20
774.978
 30
0
 11
20.0
 21
1200.978
 31
0
 0
ARC
 8
TOOL_0
 5
70
 10
30.25
 20
1200.978
 30
0
 40
10.25
 50
90.0
 51
180.0
210
0
220
0
230
1.0
 0
LINE
 8
TOOL_0
 5
71
 10
30.25
 20
1211.228
 30
0
 11
549.25
 21
1211.228
 31
0
 0
ARC
 8
TOOL_0
 5
72
 10
549.25
 20
1200.978
 30
0
 40
10.25
 50
0
 51
90.0
210
0
220
0
230
1.0
 0
LINE
 8
TOOL_0
 5
73
 10
559.5
 20
1200.978
 30
0
 11
559.5
 21
774.978
 31
0
 0
ARC
 8
TOOL_0
 5
74
 10
549.25
 20
774.978
 30
0
 40
10.25
 50
270.0
 51
0
210
0
220
0
230
1.0
 0
LINE
 8
TOOL_0
 5
75
 10
549.25
 20
764.728
 30
0
 11
544.83
 21
762.164
 31
0
 0
LINE
 8
TOOL_0
 5
76
 10
544.83
 20
762.164
 30
0
 11
186.25
 21
1455.146
 31
0
 0
LINE
 8
TOOL_0
 5
77
 10
186.25
 20
1455.146
 30
0
 11
216.25
 21
1455.146
 31
0
 0
ARC
 8
TOOL_0
 5
78
 10
156.25
 20
1455.146
 30
0
 40
60.0
 50
0
 51
180.0
210
0
220
0
230
1.0
 0
ARC
 8
TOOL_0
 5
79
 10
156.25
 20
1455.146
 30
0
 40
60.0
 50
180.0
 51
0
210
0
220
0
230
1.0
 0
LINE
 8
TOOL_0
 5
7A
 10
216.25
 20
1455.146
 30
0
 11
212.714
 21
1458.682
 31
0
 0
LINE
 8
TOOL_0
 5
7B
 10
212.714
 20
1458.682
 30
0
 11
580.008
 21
1231.896
 31
0
 0
LINE
 8
TOOL_0
 5
7C
 10
580.008
 20
1231.896
 30
0
 11
549.25
 21
1231.896
 31
0
 0
LINE
 8
TOOL_0
 5
7D
 10
549.25
 20
1231.896
 30
0
 11
30.25
 21
1231.896
 31
0
 0
ARC
 8
TOOL_0
 5
7E
 10
30.25
 20
1242.146
 30
0
 40
10.25
 50
180.0
 51
270.0
210
0
220
0
230
1.0
 0
LINE
 8
TOOL_0
 5
7F
 10
20.0
 20
1242.146
 30
0
 11
20.0
 21
1668.146
 31
0
 0
ARC
 8
TOOL_0
 5
80
 10
30.25
 20
1668.146
 30
0
 40
10.25
 50
90.0
 51
180.0
210
0
220
0
230
1.0
 0
LINE
 8
TOOL_0
 5
81
 10
30.25
 20
1678.396
 30
0
 11
549.25
 21
1678.396
 31
0
 0
ARC
 8
TOOL_0
 5
82
 10
549.25
 20
1668.146
 30
0
 40
10.25
 50
0
 51
90.0
210
0
220
0
230
1.0
 0
LINE
 8
TOOL_0
 5
83
 10
559.5
 20
1668.146
 30
0
 11
559.5
 21
1242.146
 31
0
 0
ARC
 8
TOOL_0
 5
84
 10
549.25
 20
1242.146
 30
0
 40
10.25
 50
270.0
 51
0
210
0
220
0
230
1.0
 0
LINE
 8
TOOL_0
 5
85
 10
549.25
 20
1231.896
 30
0
 11
544.83
 21
1229.332
 31
0
 0
LINE
 8
TOOL_0
 5
86
 10
544.83
 20
1229.332
 30
0
 11
186.25
 21
1922.314
 31
0
 0
LINE
 8
TOOL_0
 5
87
 10
186.25
 20
1922.314
 30
0
 11
216.25
 21
1922.314
 31
0
 0
ARC
 8
TOOL_0
 5
88
 10
156.25
 20
1922.314
 30
0
 40
60.0
 50
0
 51
180.0
210
0
220
0
230
1.0
 0
ARC
 8
TOOL_0
 5
89
 10
156.25
 20
1922.314
 30
0
 40
60.0
 50
180.0
 51
0
210
0
220
0
230
1.0
 0
LINE
 8
TOOL_0
 5
8A
 10
216.25
 20
1922.314
 30
0
 11
212.714
 21
1925.85
 31
0
 0
LINE
 8
TOOL_0
 5
8B
 10
212.714
 20
1925.85
 30
0
 11
580.008
 21
1699.064
 31
0
 0
LINE
 8
TOOL_0
 5
8C
 10
580.008
 20
1699.064
 30
0
 11
549.25
 21
1699.064
 31
0
 0
LINE
 8
TOOL_0
 5
8D
 10
549.25
 20
1699.064
 30
0
 11
30.25
 21
1699.064
 31
0
 0
ARC
 8
TOOL_0
 5
8E
 10
30.25
 20
1709.314
 30
0
 40
10.25
 50
180.0
 51
270.0
210
0
220
0
230
1.0
 0
LINE
 8
TOOL_0
 5
8F
 10
20.0
 20
1709.314
 30
0
 11
20.0
 21
2135.314
 31
0
 0
ARC
 8
TOOL_0
 5
90
 10
30.25
 20
2135.314
 30
0
 40
10.25
 50
90.0
 51
180.0
210
0
220
0
230
1.0
 0
LINE
 8
TOOL_0
 5
91
 10
30.25
 20
2145.564
 30
0
 11
549.25
 21
2145.564
 31
0
 0
ARC
 8
TOOL_0
 5
92
 10
549.25
 20
2135.314
 30
0
 40
10.25
 50
0
 51
90.0
210
0
220
0
230
1.0
 0
LINE
 8
TOOL_0
 5
93
 10
559.5
 20
2135.314
 30
0
 11
559.5
 21
1709.314
 31
0
 0
ARC
 8
TOOL_0
 5
94
 10
549.25
 20
1709.314
 30
0
 40
10.25
 50
270.0
 51
0
210
0
220
0
230
1.0
 0
LINE
 8
TOOL_0
 5
95
 10
549.25
 20
1699.064
 30
0
 11
544.83
 21
1696.5
 31
0
 0
LINE
 8
TOOL_0
 5
96
 10
544.83
 20
1696.5
 30
0
 11
1603.919
 21
770.753
 31
0
 0
LINE
 8
TOOL_0
 5
97
 10
1603.919
 20
770.753
 30
0
 11
1568.919
 21
770.753
 31
0
 0
ARC
 8
TOOL_0
 5
98
 10
1554.777
 20
784.895
 30
0
 40
19.99980819908
 50
270.0
 51
315.0
210
0
220
0
230
1.0
 0
LINE
 8
TOOL_0
 5
99
 10
1554.777
 20
764.895
 30
0
 11
1210.877
 21
764.895
 31
0
 0
ARC
 8
TOOL_0
 5
9A
 10
1210.877
 20
784.895
 30
0
 40
20.0
 50
180.0
 51
270.0
210
0
220
0
230
1.0
 0
LINE
 8
TOOL_0
 5
9B
 10
1190.877
 20
784.895
 30
0
 11
1190.877
 21
910.295
 31
0
 0
ARC
 8
TOOL_0
 5
9C
 10
1160.877
 20
910.295
 30
0
 40
30.0
 50
0
 51
90.0
210
0
220
0
230
1.0
 0
LINE
 8
TOOL_0
 5
9D
 10
1160.877
 20
940.295
 30
0
 11
1090.777
 21
940.295
 31
0
 0
ARC
 8
TOOL_0
 5
9E
 10
1090.777
 20
990.295
 30
0
 40
50.0
 50
180.0
 51
270.0
210
0
220
0
230
1.0
 0
LINE
 8
TOOL_0
 5
9F
 10
1040.777
 20
990.295
 30
0
 11
1040.777
 21
1031.695
 31
0
 0
ARC
 8
TOOL_0
 5
A0
 10
1090.777
 20
1031.695
 30
0
 40
50.0
 50
90.0
 51
180.0
210
0
220
0
230
1.0
 0
LINE
 8
TOOL_0
 5
A1
 10
1090.777
 20
1081.695
 30
0
 11
1554.777
 21
1081.695
 31
0
 0
ARC
 8
TOOL_0
 5
A2
 10
1554.777
 20
1061.695
 30
0
 40
20.0
 50
0
 51
90.0
210
0
220
0
230
1.0
 0
LINE
 8
TOOL_0
 5
A3
 10
1574.777
 20
1061.695
 30
0
 11
1574.777
 21
784.895
 31
0
 0
ARC
 8
TOOL_0
 5
A4
 10
1554.777
 20
784.895
 30
0
 40
20.0
 50
315.0
 51
0
210
0
220
0
230
1.0
 0
LINE
 8
TOOL_0
 5
A5
 10
1568.919
 20
770.753
 30
0
 11
1568.919
 21
765.753
 31
0
 0
LINE
 8
TOOL_0
 5
A6
 10
1568.919
 20
765.753
 30
0
 11
1148.378
 21
767.317
 31
0
 0
LINE
 8
TOOL_0
 5
A7
 10
1148.378
 20
767.317
 30
0
 11
1118.537
 21
772.082
 31
0
 0
LINE
 8
TOOL_0
 5
A8
 10
1118.537
 20
772.082
 30
0
 11
654.537
 21
772.082
 31
0
 0
ARC
 8
TOOL_0
 5
A9
 10
654.537
 20
792.082
 30
0
 40
20.0
 50
180.0
 51
270.0
210
0
220
0
230
1.0
 0
LINE
 8
TOOL_0
 5
AA
 10
634.537
 20
792.082
 30
0
 11
634.537
 21
1068.882
 31
0
 0
ARC
 8
TOOL_0
 5
AB
 10
654.537
 20
1068.882
 30
0
 40
20.0
 50
90.0
 51
180.0
210
0
220
0
230
1.0
 0
LINE
 8
TOOL_0
 5
AC
 10
654.537
 20
1088.882
 30
0
 11
998.437
 21
1088.882
 31
0
 0
ARC
 8
TOOL_0
 5
AD
 10
998.437
 20
1068.882
 30
0
 40
20.0
 50
0
 51
90.0
210
0
220
0
230
1.0
 0
LINE
 8
TOOL_0
 5
AE
 10
1018.437
 20
1068.882
 30
0
 11
1018.437
 21
943.482
 31
0
 0
ARC
 8
TOOL_0
 5
AF
 10
1048.437
 20
943.482
 30
0
 40
30.0
 50
180.0
 51
270.0
210
0
220
0
230
1.0
 0
LINE
 8
TOOL_0
 5
B0
 10
1048.437
 20
913.482
 30
0
 11
1118.537
 21
913.482
 31
0
 0
ARC
 8
TOOL_0
 5
B1
 10
1118.537
 20
863.482
 30
0
 40
50.0
 50
0
 51
90.0
210
0
220
0
230
1.0
 0
LINE
 8
TOOL_0
 5
B2
 10
1168.537
 20
863.482
 30
0
 11
1168.537
 21
822.082
 31
0
 0
ARC
 8
TOOL_0
 5
B3
 10
1118.537
 20
822.082
 30
0
 40
50.0
 50
270.0
 51
0
210
0
220
0
230
1.0
 0
LINE
 8
TOOL_0
 5
B4
 10
1118.537
 20
772.082
 30
0
 11
1114.051
 21
768.841
 31
0
 0
LINE
 8
TOOL_0
 5
B5
 10
1114.051
 20
768.841
 30
0
 11
1122.213
 21
1144.341
 31
0
 0
LINE
 8
TOOL_0
 5
B6
 10
1122.213
 20
1144.341
 30
0
 11
1091.873
 21
1144.341
 31
0
 0
LINE
 8
TOOL_0
 5
B7
 10
1091.873
 20
1144.341
 30
0
 11
666.873
 21
1144.341
 31
0
 0
ARC
 8
TOOL_0
 5
B8
 10
666.873
 20
1164.841
 30
0
 40
20.5
 50
180.0
 51
270.0
210
0
220
0
230
1.0
 0
LINE
 8
TOOL_0
 5
B9
 10
646.373
 20
1164.841
 30
0
 11
646.373
 21
1414.841
 31
0
 0
ARC
 8
TOOL_0
 5
BA
 10
666.873
 20
1414.841
 30
0
 40
20.5
 50
90.0
 51
180.0
210
0
220
0
230
1.0
 0
LINE
 8
TOOL_0
 5
BB
 10
666.873
 20
1435.341
 30
0
 11
971.873
 21
1435.341
 31
0
 0
ARC
 8
TOOL_0
 5
BC
 10
971.873
 20
1414.841
 30
0
 40
20.5
 50
0
 51
90.0
210
0
220
0
230
1.0
 0
LINE
 8
TOOL_0
 5
BD
 10
992.373
 20
1414.841
 30
0
 11
992.373
 21
1314.841
 31
0
 0
ARC
 8
TOOL_0
 5
BE
 10
1021.873
 20
1314.841
 30
0
 40
29.5
 50
180.0
 51
270.0
210
0
220
0
230
1.0
 0
LINE
 8
TOOL_0
 5
BF
 10
1021.873
 20
1285.341
 30
0
 11
1091.873
 21
1285.341
 31
0
 0
ARC
 8
TOOL_0
 5
C0
 10
1091.873
 20
1234.841
 30
0
 40
50.5
 50
0
 51
90.0
210
0
220
0
230
1.0
 0
LINE
 8
TOOL_0
 5
C1
 10
1142.373
 20
1234.841
 30
0
 11
1142.373
 21
1194.841
 31
0
 0
ARC
 8
TOOL_0
 5
C2
 10
1091.873
 20
1194.841
 30
0
 40
50.5
 50
270.0
 51
0
210
0
220
0
230
1.0
 0
LINE
 8
TOOL_0
 5
C3
 10
1091.873
 20
1144.341
 30
0
 11
1087.499
 21
1141.967
 31
0
 0
LINE
 8
TOOL_0
 5
C4
 10
1087.499
 20
1141.967
 30
0
 11
1536.053
 21
1159.688
 31
0
 0
LINE
 8
TOOL_0
 5
C5
 10
1536.053
 20
1159.688
 30
0
 11
1501.053
 21
1159.688
 31
0
 0
ARC
 8
TOOL_0
 5
C6
 10
1486.557
 20
1174.184
 30
0
 40
20.500439800161
 50
270.0
 51
315.0
210
0
220
0
230
1.0
 0
LINE
 8
TOOL_0
 5
C7
 10
1486.557
 20
1153.684
 30
0
 11
1181.557
 21
1153.684
 31
0
 0
ARC
 8
TOOL_0
 5
C8
 10
1181.557
 20
1174.184
 30
0
 40
20.5
 50
180.0
 51
270.0
210
0
220
0
230
1.0
 0
LINE
 8
TOOL_0
 5
C9
 10
1161.057
 20
1174.184
 30
0
 11
1161.057
 21
1274.184
 31
0
 0
ARC
 8
TOOL_0
 5
CA
 10
1131.557
 20
1274.184
 30
0
 40
29.5
 50
0
 51
90.0
210
0
220
0
230
1.0
 0
LINE
 8
TOOL_0
 5
CB
 10
1131.557
 20
1303.684
 30
0
 11
1061.557
 21
1303.684
 31
0
 0
ARC
 8
TOOL_0
 5
CC
 10
1061.557
 20
1354.184
 30
0
 40
50.5
 50
180.0
 51
270.0
210
0
220
0
230
1.0
 0
LINE
 8
TOOL_0
 5
CD
 10
1011.057
 20
1354.184
 30
0
 11
1011.057
 21
1394.184
 31
0
 0
ARC
 8
TOOL_0
 5
CE
 10
1061.557
 20
1394.184
 30
0
 40
50.5
 50
90.0
 51
180.0
210
0
220
0
230
1.0
 0
LINE
 8
TOOL_0
 5
CF
 10
1061.557
 20
1444.684
 30
0
 11
1486.557
 21
1444.684
 31
0
 0
ARC
 8
TOOL_0
 5
D0
 10
1486.557
 20
1424.184
 30
0
 40
20.5
 50
0
 51
90.0
210
0
220
0
230
1.0
 0
LINE
 8
TOOL_0
 5
D1
 10
1507.057
 20
1424.184
 30
0
 11
1507.057
 21
1174.184
 31
0
 0
ARC
 8
TOOL_0
 5
D2
 10
1486.557
 20
1174.184
 30
0
 40
20.5
 50
315.0
 51
0
210
0
220
0
230
1.0
 0
LINE
 8
TOOL_0
 5
D3
 10
1501.053
 20
1159.688
 30
0
 11
1501.053
 21
1154.688
 31
0
 0
LINE
 8
TOOL_0
 5
D4
 10
1501.053
 20
1154.688
 30
0
 11
992.132
 21
1476.675
 31
0
 0
LINE
 8
TOOL_0
 5
D5
 10
992.132
 20
1476.675
 30
0
 11
957.132
 21
1476.675
 31
0
 0
LINE
 8
TOOL_0
 5
D6
 10
957.132
 20
1476.675
 30
0
 11
666.232
 21
1476.675
 31
0
 0
ARC
 8
TOOL_0
 5
D7
 10
666.232
 20
1497.575
 30
0
 40
20.9
 50
180.0
 51
270.0
210
0
220
0
230
1.0
 0
LINE
 8
TOOL_0
 5
D8
 10
645.332
 20
1497.575
 30
0
 11
645.332
 21
1829.575
 31
0
 0
ARC
 8
TOOL_0
 5
D9
 10
666.232
 20
1829.575
 30
0
 40
20.9
 50
90.0
 51
180.0
210
0
220
0
230
1.0
 0
LINE
 8
TOOL_0
 5
DA
 10
666.232
 20
1850.475
 30
0
 11
957.132
 21
1850.475
 31
0
 0
LINE
 8
TOOL_0
 5
DB
 10
957.132
 20
1850.475
 30
0
 11
957.132
 21
1476.675
 31
0
 0
LINE
 8
TOOL_0
 5
DC
 10
957.132
 20
1476.675
 30
0
 11
957.132
 21
1471.675
 31
0
 0
LINE
 8
TOOL_0
 5
DD
 10
957.132
 20
1471.675
 30
0
 11
984.968
 21
1871.97
 31
0
 0
LINE
 8
TOOL_0
 5
DE
 10
984.968
 20
1871.97
 30
0
 11
949.968
 21
1871.97
 31
0
 0
LINE
 8
TOOL_0
 5
DF
 10
949.968
 20
1871.97
 30
0
 11
659.068
 21
1871.97
 31
0
 0
ARC
 8
TOOL_0
 5
E0
 10
659.068
 20
1892.87
 30
0
 40
20.9
 50
180.0
 51
270.0
210
0
220
0
230
1.0
 0
LINE
 8
TOOL_0
 5
E1
 10
638.168
 20
1892.87
 30
0
 11
638.168
 21
2224.87
 31
0
 0
ARC
 8
TOOL_0
 5
E2
 10
659.068
 20
2224.87
 30
0
 40
20.9
 50
90.0
 51
180.0
210
0
220
0
230
1.0
 0
LINE
 8
TOOL_0
 5
E3
 10
659.068
 20
2245.77
 30
0
 11
949.968
 21
2245.77
 31
0
 0
LINE
 8
TOOL_0
 5
E4
 10
949.968
 20
2245.77
 30
0
 11
949.968
 21
1871.97
 31
0
 0
LINE
 8
TOOL_0
 5
E5
 10
949.968
 20
1871.97
 30
0
 11
949.968
 21
1866.97
 31
0
 0
LINE
 8
TOOL_0
 5
E6
 10
949.968
 20
1866.97
 30
0
 11
1963.299
 21
768.231
 31
0
 0
LINE
 8
TOOL_0
 5
E7
 10
1963.299
 20
768.231
 30
0
 11
1928.299
 21
768.231
 31
0
 0
LINE
 8
TOOL_0
 5
E8
 10
1928.299
 20
768.231
 30
0
 11
1657.799
 21
768.231
 31
0
 0
ARC
 8
TOOL_0
 5
E9
 10
1657.799
 20
788.731
 30
0
 40
20.5
 50
180.0
 51
270.0
210
0
220
0
230
1.0
 0
LINE
 8
TOOL_0
 5
EA
 10
1637.299
 20
788.731
 30
0
 11
1637.299
 21
1083.731
 31
0
 0
ARC
 8
TOOL_0
 5
EB
 10
1657.799
 20
1083.731
 30
0
 40
20.5
 50
90.0
 51
180.0
210
0
220
0
230
1.0
 0
LINE
 8
TOOL_0
 5
EC
 10
1657.799
 20
1104.231
 30
0
 11
1928.299
 21
1104.231
 31
0
 0
LINE
 8
TOOL_0
 5
ED
 10
1928.299
 20
1104.231
 30
0
 11
1928.299
 21
768.231
 31
0
 0
LINE
 8
TOOL_0
 5
EE
 10
1928.299
 20
768.231
 30
0
 11
1928.299
 21
763.231
 31
0
 0
LINE
 8
TOOL_0
 5
EF
 10
1928.299
 20
763.231
 30
0
 11
1970.464
 21
1128.309
 31
0
 0
LINE
 8
TOOL_0
 5
F0
 10
1970.464
 20
1128.309
 30
0
 11
1935.464
 21
1128.309
 31
0
 0
LINE
 8
TOOL_0
 5
F1
 10
1935.464
 20
1128.309
 30
0
 11
1664.964
 21
1128.309
 31
0
 0
ARC
 8
TOOL_0
 5
F2
 10
1664.964
 20
1148.809
 30
0
 40
20.5
 50
180.0
 51
270.0
210
0
220
0
230
1.0
 0
LINE
 8
TOOL_0
 5
F3
 10
1644.464
 20
1148.809
 30
0
 11
1644.464
 21
1443.809
 31
0
 0
ARC
 8
TOOL_0
 5
F4
 10
1664.964
 20
1443.809
 30
0
 40
20.5
 50
90.0
 51
180.0
210
0
220
0
230
1.0
 0
LINE
 8
TOOL_0
 5
F5
 10
1664.964
 20
1464.309
 30
0
 11
1935.464
 21
1464.309
 31
0
 0
LINE
 8
TOOL_0
 5
F6
 10
1935.464
 20
1464.309
 30
0
 11
1935.464
 21
1128.309
 31
0
 0
LINE
 8
TOOL_0
 5
F7
 10
1935.464
 20
1128.309
 30
0
 11
1935.464
 21
1123.309
 31
0
 0
LINE
 8
TOOL_0
 5
F8
 10
1935.464
 20
1123.309
 30
0
 11
1346.856
 21
1723.813
 31
0
 0
LINE
 8
TOOL_0
 5
F9
 10
1346.856
 20
1723.813
 30
0
 11
1376.856
 21
1723.813
 31
0
 0
ARC
 8
TOOL_0
 5
FA
 10
1316.856
 20
1723.813
 30
0
 40
60.0
 50
0
 51
180.0
210
0
220
0
230
1.0
 0
ARC
 8
TOOL_0
 5
FB
 10
1316.856
 20
1723.813
 30
0
 40
60.0
 50
180.0
 51
0
210
0
220
0
230
1.0
 0
LINE
 8
TOOL_0
 5
FC
 10
1376.856
 20
1723.813
 30
0
 11
1373.32
 21
1727.349
 31
0
 0
LINE
 8
TOOL_0
 5
FD
 10
1373.32
 20
1727.349
 30
0
 11
1740.614
 21
1500.563
 31
0
 0
LINE
 8
TOOL_0
 5
FE
 10
1740.614
 20
1500.563
 30
0
 11
1709.856
 21
1500.563
 31
0
 0
LINE
 8
TOOL_0
 5
FF
 10
1709.856
 20
1500.563
 30
0
 11
1190.856
 21
1500.563
 31
0
 0
ARC
 8
TOOL_0
 5
100
 10
1190.856
 20
1510.813
 30
0
 40
10.25
 50
180.0
 51
270.0
210
0
220
0
230
1.0
 0
LINE
 8
TOOL_0
 5
101
 10
1180.606
 20
1510.813
 30
0
 11
1180.606
 21
1936.813
 31
0
 0
ARC
 8
TOOL_0
 5
102
 10
1190.856
 20
1936.813
 30
0
 40
10.25
 50
90.0
 51
180.0
210
0
220
0
230
1.0
 0
LINE
 8
TOOL_0
 5
103
 10
1190.856
 20
1947.063
 30
0
 11
1709.856
 21
1947.063
 31
0
 0
ARC
 8
TOOL_0
 5
104
 10
1709.856
 20
1936.813
 30
0
 40
10.25
 50
0
 51
90.0
210
0
220
0
230
1.0
 0
LINE
 8
TOOL_0
 5
105
 10
1720.106
 20
1936.813
 30
0
 11
1720.106
 21
1510.813
 31
0
 0
ARC
 8
TOOL_0
 5
106
 10
1709.856
 20
1510.813
 30
0
 40
10.25
 50
270.0
 51
0
210
0
220
0
230
1.0
 0
LINE
 8
TOOL_0
 5
107
 10
1709.856
 20
1500.563
 30
0
 11
1705.436
 21
1497.999
 31
0
 0
LINE
 8
TOOL_0
 5
108
 10
1705.436
 20
1497.999
 30
0
 11
2216.574
 21
0.001
 31
0
 0
LINE
 8
TOOL_0
 5
109
 10
2216.574
 20
0.001
 30
0
 11
2216.574
 21
1.001
 31
0
 0
LINE
 8
TOOL_0
 5
10A
 10
2216.574
 20
1.001
 30
0
 11
2216.574
 21
0.001
 31
0
 0
LINE
 8
TOOL_0
 5
10B
 10
2216.574
 20
0.001
 30
0
 11
2216.574
 21
1.001
 31
0
 0
LINE
 8
TOOL_0
 5
10C
 10
2216.574
 20
1.001
 30
0
 11
2216.574
 21
2399.001
 31
0
 0
LINE
 8
TOOL_0
 5
10D
 10
2216.574
 20
2399.001
 30
0
 11
2216.574
 21
2400.001
 31
0
 0
ENDSEC
 0
EOF

