0
SECTION
2
TABLES
0
TABLE
2
LAYER
70
0
0
LAYER
2
LAYER_NAME
70
0
62
1
6
CONTINUOUS
0
ENDTAB
0
ENDSEC
 0
SECTION
 2
ENTITIES
 0
LINE
 8
TOOL_0
 5
1
 10
1470.5
 20
337.501
 30
0
 11
1515.5
 21
337.501
 31
0
 0
LINE
 8
TOOL_0
 5
2
 10
1515.5
 20
337.501
 30
0
 11
1515.5
 21
450.001
 31
0
 0
ARC
 8
TOOL_0
 5
3
 10
1480.5
 20
450.001
 30
0
 40
35.0
 50
0
 51
90.0
210
0
220
0
230
1.0
 0
LINE
 8
TOOL_0
 5
4
 10
1480.5
 20
485.001
 30
0
 11
1325.5
 21
485.001
 31
0
 0
ARC
 8
TOOL_0
 5
5
 10
1325.5
 20
450.001
 30
0
 40
35.0
 50
90.0
 51
180.0
210
0
220
0
230
1.0
 0
LINE
 8
TOOL_0
 5
6
 10
1290.5
 20
450.001
 30
0
 11
1290.5
 21
225.001
 31
0
 0
ARC
 8
TOOL_0
 5
7
 10
1325.5
 20
225.001
 30
0
 40
35.0
 50
180.0
 51
270.0
210
0
220
0
230
1.0
 0
LINE
 8
TOOL_0
 5
8
 10
1325.5
 20
190.001
 30
0
 11
1480.5
 21
190.001
 31
0
 0
ARC
 8
TOOL_0
 5
9
 10
1480.5
 20
225.001
 30
0
 40
35.0
 50
270.0
 51
0
210
0
220
0
230
1.0
 0
LINE
 8
TOOL_0
 5
A
 10
1515.5
 20
225.001
 30
0
 11
1515.5
 21
337.501
 31
0
 0
LINE
 8
TOOL_0
 5
B
 10
1515.5
 20
337.501
 30
0
 11
2085.5
 21
317.501
 31
0
 0
LINE
 8
TOOL_0
 5
C
 10
2085.5
 20
317.501
 30
0
 11
2130.5
 21
317.501
 31
0
 0
LINE
 8
TOOL_0
 5
D
 10
2130.5
 20
317.501
 30
0
 11
2130.5
 21
450.001
 31
0
 0
ARC
 8
TOOL_0
 5
E
 10
2095.5
 20
450.001
 30
0
 40
35.0
 50
0
 51
90.0
210
0
220
0
230
1.0
 0
LINE
 8
TOOL_0
 5
F
 10
2095.5
 20
485.001
 30
0
 11
1940.5
 21
485.001
 31
0
 0
ARC
 8
TOOL_0
 5
10
 10
1940.5
 20
450.001
 30
0
 40
35.0
 50
90.0
 51
180.0
210
0
220
0
230
1.0
 0
LINE
 8
TOOL_0
 5
11
 10
1905.5
 20
450.001
 30
0
 11
1905.5
 21
185.001
 31
0
 0
ARC
 8
TOOL_0
 5
12
 10
1940.5
 20
185.001
 30
0
 40
35.0
 50
180.0
 51
270.0
210
0
220
0
230
1.0
 0
LINE
 8
TOOL_0
 5
13
 10
1940.5
 20
150.001
 30
0
 11
2095.5
 21
150.001
 31
0
 0
ARC
 8
TOOL_0
 5
14
 10
2095.5
 20
185.001
 30
0
 40
35.0
 50
270.0
 51
0
210
0
220
0
230
1.0
 0
LINE
 8
TOOL_0
 5
15
 10
2130.5
 20
185.001
 30
0
 11
2130.5
 21
317.501
 31
0
 0
LINE
 8
TOOL_0
 5
16
 10
2130.5
 20
317.501
 30
0
 11
2321.5
 21
136.414
 31
0
 0
LINE
 8
TOOL_0
 5
17
 10
2321.5
 20
136.414
 30
0
 11
2321.5
 21
106.001
 31
0
 0
LINE
 8
TOOL_0
 5
18
 10
2321.5
 20
106.001
 30
0
 11
2321.5
 21
34.587
 31
0
 0
LINE
 8
TOOL_0
 5
19
 10
2321.5
 20
34.587
 30
0
 11
2310.914
 21
24.001
 31
0
 0
LINE
 8
TOOL_0
 5
1A
 10
2310.914
 20
24.001
 30
0
 11
2189.162
 21
24.001
 31
0
 0
ARC
 8
TOOL_0
 5
1B
 10
2189.196
 20
14.94
 30
0
 40
9.061063789644
 50
90.214992535105
 51
153.375569119078
210
0
220
0
230
1.0
 0
LINE
 8
TOOL_0
 5
1C
 10
2181.095
 20
19.001
 30
0
 11
19.0
 21
19.001
 31
0
 0
LINE
 8
TOOL_0
 5
1D
 10
19.0
 20
19.001
 30
0
 11
19.0
 21
448.791
 31
0
 0
ARC
 8
TOOL_0
 5
1E
 10
27.0
 20
448.791
 30
0
 40
8.0
 50
90.0
 51
180.0
210
0
220
0
230
1.0
 0
LINE
 8
TOOL_0
 5
1F
 10
27.0
 20
456.791
 30
0
 11
309.663
 21
456.791
 31
0
 0
ARC
 8
TOOL_0
 5
20
 10
309.483
 20
557.456
 30
0
 40
100.665160929688
 50
270.102450994097
 51
282.266925903661
210
0
220
0
230
1.0
 0
LINE
 8
TOOL_0
 5
21
 10
330.871
 20
459.089
 30
0
 11
1201.432
 21
650.001
 31
0
 0
LINE
 8
TOOL_0
 5
22
 10
1201.432
 20
650.001
 30
0
 11
2131.764
 21
650.001
 31
0
 0
ARC
 8
TOOL_0
 5
23
 10
2131.764
 20
549.001
 30
0
 40
101.0
 50
24.201180888537
 51
90.0
210
0
220
0
230
1.0
 0
LINE
 8
TOOL_0
 5
24
 10
2223.887
 20
590.405
 30
0
 11
2321.5
 21
373.216
 31
0
 0
LINE
 8
TOOL_0
 5
25
 10
2321.5
 20
373.216
 30
0
 11
2321.5
 21
264.002
 31
0
 0
LINE
 8
TOOL_0
 5
26
 10
2321.5
 20
264.002
 30
0
 11
2300.5
 21
264.002
 31
0
 0
ARC
 8
TOOL_0
 5
27
 10
2300.5
 20
185.002
 30
0
 40
79.0
 50
90.0
 51
270.0
210
0
220
0
230
1.0
 0
LINE
 8
TOOL_0
 5
28
 10
2300.5
 20
106.002
 30
0
 11
2321.5
 21
106.002
 31
0
 0
LINE
 8
TOOL_0
 5
29
 10
2321.5
 20
106.002
 30
0
 11
2332.125
 21
106.002
 31
0
 0
LINE
 8
TOOL_0
 5
2A
 10
2332.125
 20
106.002
 30
0
 11
919.938
 21
970.908
 31
0
 0
LINE
 8
TOOL_0
 5
2B
 10
919.938
 20
970.908
 30
0
 11
964.938
 21
970.908
 31
0
 0
LINE
 8
TOOL_0
 5
2C
 10
964.938
 20
970.908
 30
0
 11
964.938
 21
1083.408
 31
0
 0
ARC
 8
TOOL_0
 5
2D
 10
929.938
 20
1083.408
 30
0
 40
35.0
 50
0
 51
90.0
210
0
220
0
230
1.0
 0
LINE
 8
TOOL_0
 5
2E
 10
929.938
 20
1118.408
 30
0
 11
774.938
 21
1118.408
 31
0
 0
ARC
 8
TOOL_0
 5
2F
 10
774.938
 20
1083.408
 30
0
 40
35.0
 50
90.0
 51
180.0
210
0
220
0
230
1.0
 0
LINE
 8
TOOL_0
 5
30
 10
739.938
 20
1083.408
 30
0
 11
739.938
 21
858.408
 31
0
 0
ARC
 8
TOOL_0
 5
31
 10
774.938
 20
858.408
 30
0
 40
35.0
 50
180.0
 51
270.0
210
0
220
0
230
1.0
 0
LINE
 8
TOOL_0
 5
32
 10
774.938
 20
823.408
 30
0
 11
929.938
 21
823.408
 31
0
 0
ARC
 8
TOOL_0
 5
33
 10
929.938
 20
858.408
 30
0
 40
35.0
 50
270.0
 51
0
210
0
220
0
230
1.0
 0
LINE
 8
TOOL_0
 5
34
 10
964.938
 20
858.408
 30
0
 11
964.938
 21
970.908
 31
0
 0
LINE
 8
TOOL_0
 5
35
 10
964.938
 20
970.908
 30
0
 11
1284.938
 21
950.908
 31
0
 0
LINE
 8
TOOL_0
 5
36
 10
1284.938
 20
950.908
 30
0
 11
1329.938
 21
950.908
 31
0
 0
LINE
 8
TOOL_0
 5
37
 10
1329.938
 20
950.908
 30
0
 11
1329.938
 21
1083.408
 31
0
 0
ARC
 8
TOOL_0
 5
38
 10
1294.938
 20
1083.408
 30
0
 40
35.0
 50
0
 51
90.0
210
0
220
0
230
1.0
 0
LINE
 8
TOOL_0
 5
39
 10
1294.938
 20
1118.408
 30
0
 11
1139.938
 21
1118.408
 31
0
 0
ARC
 8
TOOL_0
 5
3A
 10
1139.938
 20
1083.408
 30
0
 40
35.0
 50
90.0
 51
180.0
210
0
220
0
230
1.0
 0
LINE
 8
TOOL_0
 5
3B
 10
1104.938
 20
1083.408
 30
0
 11
1104.938
 21
818.408
 31
0
 0
ARC
 8
TOOL_0
 5
3C
 10
1139.938
 20
818.408
 30
0
 40
35.0
 50
180.0
 51
270.0
210
0
220
0
230
1.0
 0
LINE
 8
TOOL_0
 5
3D
 10
1139.938
 20
783.408
 30
0
 11
1294.938
 21
783.408
 31
0
 0
ARC
 8
TOOL_0
 5
3E
 10
1294.938
 20
818.408
 30
0
 40
35.0
 50
270.0
 51
0
210
0
220
0
230
1.0
 0
LINE
 8
TOOL_0
 5
3F
 10
1329.938
 20
818.408
 30
0
 11
1329.938
 21
950.908
 31
0
 0
LINE
 8
TOOL_0
 5
40
 10
1329.938
 20
950.908
 30
0
 11
1571.338
 21
804.293
 31
0
 0
LINE
 8
TOOL_0
 5
41
 10
1571.338
 20
804.293
 30
0
 11
1571.338
 21
773.408
 31
0
 0
LINE
 8
TOOL_0
 5
42
 10
1571.338
 20
773.408
 30
0
 11
1571.338
 21
718.394
 31
0
 0
LINE
 8
TOOL_0
 5
43
 10
1571.338
 20
718.394
 30
0
 11
1563.352
 21
710.408
 31
0
 0
LINE
 8
TOOL_0
 5
44
 10
1563.352
 20
710.408
 30
0
 11
1446.938
 21
710.408
 31
0
 0
ARC
 8
TOOL_0
 5
45
 10
1446.938
 20
703.408
 30
0
 40
7.0
 50
90.0
 51
180.0
210
0
220
0
230
1.0
 0
LINE
 8
TOOL_0
 5
46
 10
1439.938
 20
703.408
 30
0
 11
1439.938
 21
687.408
 31
0
 0
LINE
 8
TOOL_0
 5
47
 10
1439.938
 20
687.408
 30
0
 11
970.938
 21
687.408
 31
0
 0
LINE
 8
TOOL_0
 5
48
 10
970.938
 20
687.408
 30
0
 11
970.938
 21
703.408
 31
0
 0
ARC
 8
TOOL_0
 5
49
 10
963.938
 20
703.408
 30
0
 40
7.0
 50
0
 51
90.0
210
0
220
0
230
1.0
 0
LINE
 8
TOOL_0
 5
4A
 10
963.938
 20
710.408
 30
0
 11
805.938
 21
710.408
 31
0
 0
ARC
 8
TOOL_0
 5
4B
 10
805.938
 20
703.408
 30
0
 40
7.0
 50
90.0
 51
180.0
210
0
220
0
230
1.0
 0
LINE
 8
TOOL_0
 5
4C
 10
798.938
 20
703.408
 30
0
 11
798.938
 21
687.408
 31
0
 0
LINE
 8
TOOL_0
 5
4D
 10
798.938
 20
687.408
 30
0
 11
274.938
 21
687.408
 31
0
 0
LINE
 8
TOOL_0
 5
4E
 10
274.938
 20
687.408
 30
0
 11
274.938
 21
698.408
 31
0
 0
ARC
 8
TOOL_0
 5
4F
 10
267.938
 20
698.408
 30
0
 40
7.0
 50
0
 51
90.0
210
0
220
0
230
1.0
 0
LINE
 8
TOOL_0
 5
50
 10
267.938
 20
705.408
 30
0
 11
28.538
 21
705.408
 31
0
 0
LINE
 8
TOOL_0
 5
51
 10
28.538
 20
705.408
 30
0
 11
28.538
 21
1030.996
 31
0
 0
LINE
 8
TOOL_0
 5
52
 10
28.538
 20
1030.996
 30
0
 11
786.813
 21
1283.408
 31
0
 0
LINE
 8
TOOL_0
 5
53
 10
786.813
 20
1283.408
 30
0
 11
1291.651
 21
1283.408
 31
0
 0
ARC
 8
TOOL_0
 5
54
 10
1291.651
 20
1183.408
 30
0
 40
100.0
 50
46.665781797872
 51
90.0
210
0
220
0
230
1.0
 0
LINE
 8
TOOL_0
 5
55
 10
1360.276
 20
1256.144
 30
0
 11
1571.338
 21
1057.012
 31
0
 0
LINE
 8
TOOL_0
 5
56
 10
1571.338
 20
1057.012
 30
0
 11
1571.338
 21
933.408
 31
0
 0
LINE
 8
TOOL_0
 5
57
 10
1571.338
 20
933.408
 30
0
 11
1549.938
 21
933.408
 31
0
 0
ARC
 8
TOOL_0
 5
58
 10
1549.938
 20
853.408
 30
0
 40
80.0
 50
90.0
 51
270.0
210
0
220
0
230
1.0
 0
LINE
 8
TOOL_0
 5
59
 10
1549.938
 20
773.408
 30
0
 11
1571.338
 21
773.408
 31
0
 0
LINE
 8
TOOL_0
 5
5A
 10
1571.338
 20
773.408
 30
0
 11
1581.716
 21
773.408
 31
0
 0
LINE
 8
TOOL_0
 5
5B
 10
1581.716
 20
773.408
 30
0
 11
1269.75
 21
1631.885
 31
0
 0
LINE
 8
TOOL_0
 5
5C
 10
1269.75
 20
1631.885
 30
0
 11
1314.75
 21
1631.885
 31
0
 0
LINE
 8
TOOL_0
 5
5D
 10
1314.75
 20
1631.885
 30
0
 11
1314.75
 21
1744.385
 31
0
 0
ARC
 8
TOOL_0
 5
5E
 10
1279.75
 20
1744.385
 30
0
 40
35.0
 50
0
 51
90.0
210
0
220
0
230
1.0
 0
LINE
 8
TOOL_0
 5
5F
 10
1279.75
 20
1779.385
 30
0
 11
1124.75
 21
1779.385
 31
0
 0
ARC
 8
TOOL_0
 5
60
 10
1124.75
 20
1744.385
 30
0
 40
35.0
 50
90.0
 51
180.0
210
0
220
0
230
1.0
 0
LINE
 8
TOOL_0
 5
61
 10
1089.75
 20
1744.385
 30
0
 11
1089.75
 21
1519.385
 31
0
 0
ARC
 8
TOOL_0
 5
62
 10
1124.75
 20
1519.385
 30
0
 40
35.0
 50
180.0
 51
270.0
210
0
220
0
230
1.0
 0
LINE
 8
TOOL_0
 5
63
 10
1124.75
 20
1484.385
 30
0
 11
1279.75
 21
1484.385
 31
0
 0
ARC
 8
TOOL_0
 5
64
 10
1279.75
 20
1519.385
 30
0
 40
35.0
 50
270.0
 51
0
210
0
220
0
230
1.0
 0
LINE
 8
TOOL_0
 5
65
 10
1314.75
 20
1519.385
 30
0
 11
1314.75
 21
1631.885
 31
0
 0
LINE
 8
TOOL_0
 5
66
 10
1314.75
 20
1631.885
 30
0
 11
1739.75
 21
1611.885
 31
0
 0
LINE
 8
TOOL_0
 5
67
 10
1739.75
 20
1611.885
 30
0
 11
1784.75
 21
1611.885
 31
0
 0
LINE
 8
TOOL_0
 5
68
 10
1784.75
 20
1611.885
 30
0
 11
1784.75
 21
1744.385
 31
0
 0
ARC
 8
TOOL_0
 5
69
 10
1749.75
 20
1744.385
 30
0
 40
35.0
 50
0
 51
90.0
210
0
220
0
230
1.0
 0
LINE
 8
TOOL_0
 5
6A
 10
1749.75
 20
1779.385
 30
0
 11
1594.75
 21
1779.385
 31
0
 0
ARC
 8
TOOL_0
 5
6B
 10
1594.75
 20
1744.385
 30
0
 40
35.0
 50
90.0
 51
180.0
210
0
220
0
230
1.0
 0
LINE
 8
TOOL_0
 5
6C
 10
1559.75
 20
1744.385
 30
0
 11
1559.75
 21
1479.385
 31
0
 0
ARC
 8
TOOL_0
 5
6D
 10
1594.75
 20
1479.385
 30
0
 40
35.0
 50
180.0
 51
270.0
210
0
220
0
230
1.0
 0
LINE
 8
TOOL_0
 5
6E
 10
1594.75
 20
1444.385
 30
0
 11
1749.75
 21
1444.385
 31
0
 0
ARC
 8
TOOL_0
 5
6F
 10
1749.75
 20
1479.385
 30
0
 40
35.0
 50
270.0
 51
0
210
0
220
0
230
1.0
 0
LINE
 8
TOOL_0
 5
70
 10
1784.75
 20
1479.385
 30
0
 11
1784.75
 21
1611.885
 31
0
 0
LINE
 8
TOOL_0
 5
71
 10
1784.75
 20
1611.885
 30
0
 11
2020.5
 21
1460.301
 31
0
 0
LINE
 8
TOOL_0
 5
72
 10
2020.5
 20
1460.301
 30
0
 11
2020.5
 21
1430.135
 31
0
 0
LINE
 8
TOOL_0
 5
73
 10
2020.5
 20
1430.135
 30
0
 11
2020.5
 21
1359.074
 31
0
 0
LINE
 8
TOOL_0
 5
74
 10
2020.5
 20
1359.074
 30
0
 11
2013.061
 21
1351.635
 31
0
 0
LINE
 8
TOOL_0
 5
75
 10
2013.061
 20
1351.635
 30
0
 11
1896.5
 21
1351.635
 31
0
 0
ARC
 8
TOOL_0
 5
76
 10
1896.5
 20
1344.635
 30
0
 40
7.0
 50
90.0
 51
180.0
210
0
220
0
230
1.0
 0
LINE
 8
TOOL_0
 5
77
 10
1889.5
 20
1344.635
 30
0
 11
1889.5
 21
1328.635
 31
0
 0
LINE
 8
TOOL_0
 5
78
 10
1889.5
 20
1328.635
 30
0
 11
1240.0
 21
1328.635
 31
0
 0
LINE
 8
TOOL_0
 5
79
 10
1240.0
 20
1328.635
 30
0
 11
1240.0
 21
1344.635
 31
0
 0
ARC
 8
TOOL_0
 5
7A
 10
1233.0
 20
1344.635
 30
0
 40
7.0
 50
0
 51
90.0
210
0
220
0
230
1.0
 0
LINE
 8
TOOL_0
 5
7B
 10
1233.0
 20
1351.635
 30
0
 11
1076.5
 21
1351.635
 31
0
 0
ARC
 8
TOOL_0
 5
7C
 10
1076.5
 20
1344.635
 30
0
 40
7.0
 50
90.0
 51
180.0
210
0
220
0
230
1.0
 0
LINE
 8
TOOL_0
 5
7D
 10
1069.5
 20
1344.635
 30
0
 11
1069.5
 21
1328.635
 31
0
 0
LINE
 8
TOOL_0
 5
7E
 10
1069.5
 20
1328.635
 30
0
 11
835.0
 21
1328.635
 31
0
 0
LINE
 8
TOOL_0
 5
7F
 10
835.0
 20
1328.635
 30
0
 11
835.0
 21
1344.635
 31
0
 0
ARC
 8
TOOL_0
 5
80
 10
828.0
 20
1344.635
 30
0
 40
7.0
 50
0
 51
90.0
210
0
220
0
230
1.0
 0
LINE
 8
TOOL_0
 5
81
 10
828.0
 20
1351.635
 30
0
 11
571.5
 21
1351.635
 31
0
 0
ARC
 8
TOOL_0
 5
82
 10
571.5
 20
1344.635
 30
0
 40
7.0
 50
90.0
 51
180.0
210
0
220
0
230
1.0
 0
LINE
 8
TOOL_0
 5
83
 10
564.5
 20
1344.635
 30
0
 11
564.5
 21
1328.635
 31
0
 0
LINE
 8
TOOL_0
 5
84
 10
564.5
 20
1328.635
 30
0
 11
265.0
 21
1328.635
 31
0
 0
LINE
 8
TOOL_0
 5
85
 10
265.0
 20
1328.635
 30
0
 11
265.0
 21
1342.635
 31
0
 0
ARC
 8
TOOL_0
 5
86
 10
258.0
 20
1342.635
 30
0
 40
7.0
 50
0
 51
90.0
210
0
220
0
230
1.0
 0
LINE
 8
TOOL_0
 5
87
 10
258.0
 20
1349.635
 30
0
 11
19.0
 21
1349.635
 31
0
 0
LINE
 8
TOOL_0
 5
88
 10
19.0
 20
1349.635
 30
0
 11
19.0
 21
1754.13
 31
0
 0
ARC
 8
TOOL_0
 5
89
 10
27.75
 20
1754.13
 30
0
 40
8.75
 50
90.0
 51
180.0
210
0
220
0
230
1.0
 0
LINE
 8
TOOL_0
 5
8A
 10
27.75
 20
1762.88
 30
0
 11
306.528
 21
1762.88
 31
0
 0
ARC
 8
TOOL_0
 5
8B
 10
306.528
 20
1862.132
 30
0
 40
99.252
 50
270.0
 51
285.063685741874
210
0
220
0
230
1.0
 0
LINE
 8
TOOL_0
 5
8C
 10
332.323
 20
1766.29
 30
0
 11
978.229
 21
1940.135
 31
0
 0
LINE
 8
TOOL_0
 5
8D
 10
978.229
 20
1940.135
 30
0
 11
1794.829
 21
1940.135
 31
0
 0
ARC
 8
TOOL_0
 5
8E
 10
1794.829
 20
1839.385
 30
0
 40
100.75
 50
35.651782107621
 51
90.0
210
0
220
0
230
1.0
 0
LINE
 8
TOOL_0
 5
8F
 10
1876.696
 20
1898.108
 30
0
 11
2020.502
 21
1697.626
 31
0
 0
LINE
 8
TOOL_0
 5
90
 10
2020.502
 20
1697.626
 30
0
 11
2020.502
 21
1588.635
 31
0
 0
LINE
 8
TOOL_0
 5
91
 10
2020.502
 20
1588.635
 30
0
 11
1999.752
 21
1588.635
 31
0
 0
ARC
 8
TOOL_0
 5
92
 10
1999.752
 20
1509.385
 30
0
 40
79.25
 50
90.0
 51
270.0
210
0
220
0
230
1.0
 0
LINE
 8
TOOL_0
 5
93
 10
1999.752
 20
1430.135
 30
0
 11
2020.502
 21
1430.135
 31
0
 0
LINE
 8
TOOL_0
 5
94
 10
2020.502
 20
1430.135
 30
0
 11
2029.963
 21
1430.135
 31
0
 0
LINE
 8
TOOL_0
 5
95
 10
2029.963
 20
1430.135
 30
0
 11
3271.219
 21
302.502
 31
0
 0
LINE
 8
TOOL_0
 5
96
 10
3271.219
 20
302.502
 30
0
 11
3316.219
 21
302.502
 31
0
 0
LINE
 8
TOOL_0
 5
97
 10
3316.219
 20
302.502
 30
0
 11
3316.219
 21
415.002
 31
0
 0
ARC
 8
TOOL_0
 5
98
 10
3281.219
 20
415.002
 30
0
 40
35.0
 50
0
 51
90.0
210
0
220
0
230
1.0
 0
LINE
 8
TOOL_0
 5
99
 10
3281.219
 20
450.002
 30
0
 11
3126.219
 21
450.002
 31
0
 0
ARC
 8
TOOL_0
 5
9A
 10
3126.219
 20
415.002
 30
0
 40
35.0
 50
90.0
 51
180.0
210
0
220
0
230
1.0
 0
LINE
 8
TOOL_0
 5
9B
 10
3091.219
 20
415.002
 30
0
 11
3091.219
 21
190.002
 31
0
 0
ARC
 8
TOOL_0
 5
9C
 10
3126.219
 20
190.002
 30
0
 40
35.0
 50
180.0
 51
270.0
210
0
220
0
230
1.0
 0
LINE
 8
TOOL_0
 5
9D
 10
3126.219
 20
155.002
 30
0
 11
3281.219
 21
155.002
 31
0
 0
ARC
 8
TOOL_0
 5
9E
 10
3281.219
 20
190.002
 30
0
 40
35.0
 50
270.0
 51
0
210
0
220
0
230
1.0
 0
LINE
 8
TOOL_0
 5
9F
 10
3316.219
 20
190.002
 30
0
 11
3316.219
 21
302.502
 31
0
 0
LINE
 8
TOOL_0
 5
A0
 10
3316.219
 20
302.502
 30
0
 11
3636.219
 21
282.502
 31
0
 0
LINE
 8
TOOL_0
 5
A1
 10
3636.219
 20
282.502
 30
0
 11
3681.219
 21
282.502
 31
0
 0
LINE
 8
TOOL_0
 5
A2
 10
3681.219
 20
282.502
 30
0
 11
3681.219
 21
415.002
 31
0
 0
ARC
 8
TOOL_0
 5
A3
 10
3646.219
 20
415.002
 30
0
 40
35.0
 50
0
 51
90.0
210
0
220
0
230
1.0
 0
LINE
 8
TOOL_0
 5
A4
 10
3646.219
 20
450.002
 30
0
 11
3491.219
 21
450.002
 31
0
 0
ARC
 8
TOOL_0
 5
A5
 10
3491.219
 20
415.002
 30
0
 40
35.0
 50
90.0
 51
180.0
210
0
220
0
230
1.0
 0
LINE
 8
TOOL_0
 5
A6
 10
3456.219
 20
415.002
 30
0
 11
3456.219
 21
150.002
 31
0
 0
ARC
 8
TOOL_0
 5
A7
 10
3491.219
 20
150.002
 30
0
 40
35.0
 50
180.0
 51
270.0
210
0
220
0
230
1.0
 0
LINE
 8
TOOL_0
 5
A8
 10
3491.219
 20
115.002
 30
0
 11
3646.219
 21
115.002
 31
0
 0
ARC
 8
TOOL_0
 5
A9
 10
3646.219
 20
150.002
 30
0
 40
35.0
 50
270.0
 51
0
210
0
220
0
230
1.0
 0
LINE
 8
TOOL_0
 5
AA
 10
3681.219
 20
150.002
 30
0
 11
3681.219
 21
282.502
 31
0
 0
LINE
 8
TOOL_0
 5
AB
 10
3681.219
 20
282.502
 30
0
 11
3922.619
 21
140.088
 31
0
 0
LINE
 8
TOOL_0
 5
AC
 10
3922.619
 20
140.088
 30
0
 11
3922.619
 21
105.002
 31
0
 0
LINE
 8
TOOL_0
 5
AD
 10
3922.619
 20
105.002
 30
0
 11
3922.619
 21
49.988
 31
0
 0
LINE
 8
TOOL_0
 5
AE
 10
3922.619
 20
49.988
 30
0
 11
3914.633
 21
42.002
 31
0
 0
LINE
 8
TOOL_0
 5
AF
 10
3914.633
 20
42.002
 30
0
 11
3798.219
 21
42.002
 31
0
 0
ARC
 8
TOOL_0
 5
B0
 10
3798.219
 20
35.002
 30
0
 40
7.0
 50
90.0
 51
180.0
210
0
220
0
230
1.0
 0
LINE
 8
TOOL_0
 5
B1
 10
3791.219
 20
35.002
 30
0
 11
3791.219
 21
19.002
 31
0
 0
LINE
 8
TOOL_0
 5
B2
 10
3791.219
 20
19.002
 30
0
 11
3322.219
 21
19.002
 31
0
 0
LINE
 8
TOOL_0
 5
B3
 10
3322.219
 20
19.002
 30
0
 11
3322.219
 21
35.002
 31
0
 0
ARC
 8
TOOL_0
 5
B4
 10
3315.219
 20
35.002
 30
0
 40
7.0
 50
0
 51
90.0
210
0
220
0
230
1.0
 0
LINE
 8
TOOL_0
 5
B5
 10
3315.219
 20
42.002
 30
0
 11
3157.219
 21
42.002
 31
0
 0
ARC
 8
TOOL_0
 5
B6
 10
3157.219
 20
35.002
 30
0
 40
7.0
 50
90.0
 51
180.0
210
0
220
0
230
1.0
 0
LINE
 8
TOOL_0
 5
B7
 10
3150.219
 20
35.002
 30
0
 11
3150.219
 21
19.002
 31
0
 0
LINE
 8
TOOL_0
 5
B8
 10
3150.219
 20
19.002
 30
0
 11
2626.219
 21
19.002
 31
0
 0
LINE
 8
TOOL_0
 5
B9
 10
2626.219
 20
19.002
 30
0
 11
2626.219
 21
30.002
 31
0
 0
ARC
 8
TOOL_0
 5
BA
 10
2619.219
 20
30.002
 30
0
 40
7.0
 50
0
 51
90.0
210
0
220
0
230
1.0
 0
LINE
 8
TOOL_0
 5
BB
 10
2619.219
 20
37.002
 30
0
 11
2379.819
 21
37.002
 31
0
 0
LINE
 8
TOOL_0
 5
BC
 10
2379.819
 20
37.002
 30
0
 11
2379.819
 21
362.59
 31
0
 0
LINE
 8
TOOL_0
 5
BD
 10
2379.819
 20
362.59
 30
0
 11
3138.094
 21
615.002
 31
0
 0
LINE
 8
TOOL_0
 5
BE
 10
3138.094
 20
615.002
 30
0
 11
3642.932
 21
615.002
 31
0
 0
ARC
 8
TOOL_0
 5
BF
 10
3642.932
 20
515.002
 30
0
 40
100.0
 50
46.665781797872
 51
90.0
210
0
220
0
230
1.0
 0
LINE
 8
TOOL_0
 5
C0
 10
3711.557
 20
587.738
 30
0
 11
3922.619
 21
388.606
 31
0
 0
LINE
 8
TOOL_0
 5
C1
 10
3922.619
 20
388.606
 30
0
 11
3922.619
 21
265.002
 31
0
 0
LINE
 8
TOOL_0
 5
C2
 10
3922.619
 20
265.002
 30
0
 11
3901.219
 21
265.002
 31
0
 0
ARC
 8
TOOL_0
 5
C3
 10
3901.219
 20
185.002
 30
0
 40
80.0
 50
90.0
 51
270.0
210
0
220
0
230
1.0
 0
LINE
 8
TOOL_0
 5
C4
 10
3901.219
 20
105.002
 30
0
 11
3922.619
 21
105.002
 31
0
 0
LINE
 8
TOOL_0
 5
C5
 10
3922.619
 20
105.002
 30
0
 11
3929.938
 21
105.002
 31
0
 0
LINE
 8
TOOL_0
 5
C6
 10
3929.938
 20
105.002
 30
0
 11
2930.345
 21
991.826
 31
0
 0
LINE
 8
TOOL_0
 5
C7
 10
2930.345
 20
991.826
 30
0
 11
2975.345
 21
991.826
 31
0
 0
LINE
 8
TOOL_0
 5
C8
 10
2975.345
 20
991.826
 30
0
 11
2975.345
 21
1104.326
 31
0
 0
ARC
 8
TOOL_0
 5
C9
 10
2940.345
 20
1104.326
 30
0
 40
35.0
 50
0
 51
90.0
210
0
220
0
230
1.0
 0
LINE
 8
TOOL_0
 5
CA
 10
2940.345
 20
1139.326
 30
0
 11
2785.345
 21
1139.326
 31
0
 0
ARC
 8
TOOL_0
 5
CB
 10
2785.345
 20
1104.326
 30
0
 40
35.0
 50
90.0
 51
180.0
210
0
220
0
230
1.0
 0
LINE
 8
TOOL_0
 5
CC
 10
2750.345
 20
1104.326
 30
0
 11
2750.345
 21
879.326
 31
0
 0
ARC
 8
TOOL_0
 5
CD
 10
2785.345
 20
879.326
 30
0
 40
35.0
 50
180.0
 51
270.0
210
0
220
0
230
1.0
 0
LINE
 8
TOOL_0
 5
CE
 10
2785.345
 20
844.326
 30
0
 11
2940.345
 21
844.326
 31
0
 0
ARC
 8
TOOL_0
 5
CF
 10
2940.345
 20
879.326
 30
0
 40
35.0
 50
270.0
 51
0
210
0
220
0
230
1.0
 0
LINE
 8
TOOL_0
 5
D0
 10
2975.345
 20
879.326
 30
0
 11
2975.345
 21
991.826
 31
0
 0
LINE
 8
TOOL_0
 5
D1
 10
2975.345
 20
991.826
 30
0
 11
3400.345
 21
971.826
 31
0
 0
LINE
 8
TOOL_0
 5
D2
 10
3400.345
 20
971.826
 30
0
 11
3445.345
 21
971.826
 31
0
 0
LINE
 8
TOOL_0
 5
D3
 10
3445.345
 20
971.826
 30
0
 11
3445.345
 21
1104.326
 31
0
 0
ARC
 8
TOOL_0
 5
D4
 10
3410.345
 20
1104.326
 30
0
 40
35.0
 50
0
 51
90.0
210
0
220
0
230
1.0
 0
LINE
 8
TOOL_0
 5
D5
 10
3410.345
 20
1139.326
 30
0
 11
3255.345
 21
1139.326
 31
0
 0
ARC
 8
TOOL_0
 5
D6
 10
3255.345
 20
1104.326
 30
0
 40
35.0
 50
90.0
 51
180.0
210
0
220
0
230
1.0
 0
LINE
 8
TOOL_0
 5
D7
 10
3220.345
 20
1104.326
 30
0
 11
3220.345
 21
839.326
 31
0
 0
ARC
 8
TOOL_0
 5
D8
 10
3255.345
 20
839.326
 30
0
 40
35.0
 50
180.0
 51
270.0
210
0
220
0
230
1.0
 0
LINE
 8
TOOL_0
 5
D9
 10
3255.345
 20
804.326
 30
0
 11
3410.345
 21
804.326
 31
0
 0
ARC
 8
TOOL_0
 5
DA
 10
3410.345
 20
839.326
 30
0
 40
35.0
 50
270.0
 51
0
210
0
220
0
230
1.0
 0
LINE
 8
TOOL_0
 5
DB
 10
3445.345
 20
839.326
 30
0
 11
3445.345
 21
971.826
 31
0
 0
LINE
 8
TOOL_0
 5
DC
 10
3445.345
 20
971.826
 30
0
 11
3681.095
 21
823.646
 31
0
 0
LINE
 8
TOOL_0
 5
DD
 10
3681.095
 20
823.646
 30
0
 11
3681.095
 21
790.076
 31
0
 0
LINE
 8
TOOL_0
 5
DE
 10
3681.095
 20
790.076
 30
0
 11
3681.095
 21
719.015
 31
0
 0
LINE
 8
TOOL_0
 5
DF
 10
3681.095
 20
719.015
 30
0
 11
3673.656
 21
711.576
 31
0
 0
LINE
 8
TOOL_0
 5
E0
 10
3673.656
 20
711.576
 30
0
 11
3557.095
 21
711.576
 31
0
 0
ARC
 8
TOOL_0
 5
E1
 10
3557.095
 20
704.576
 30
0
 40
7.0
 50
90.0
 51
180.0
210
0
220
0
230
1.0
 0
LINE
 8
TOOL_0
 5
E2
 10
3550.095
 20
704.576
 30
0
 11
3550.095
 21
688.576
 31
0
 0
LINE
 8
TOOL_0
 5
E3
 10
3550.095
 20
688.576
 30
0
 11
2900.595
 21
688.576
 31
0
 0
LINE
 8
TOOL_0
 5
E4
 10
2900.595
 20
688.576
 30
0
 11
2900.595
 21
704.576
 31
0
 0
ARC
 8
TOOL_0
 5
E5
 10
2893.595
 20
704.576
 30
0
 40
7.0
 50
0
 51
90.0
210
0
220
0
230
1.0
 0
LINE
 8
TOOL_0
 5
E6
 10
2893.595
 20
711.576
 30
0
 11
2737.095
 21
711.576
 31
0
 0
ARC
 8
TOOL_0
 5
E7
 10
2737.095
 20
704.576
 30
0
 40
7.0
 50
90.0
 51
180.0
210
0
220
0
230
1.0
 0
LINE
 8
TOOL_0
 5
E8
 10
2730.095
 20
704.576
 30
0
 11
2730.095
 21
688.576
 31
0
 0
LINE
 8
TOOL_0
 5
E9
 10
2730.095
 20
688.576
 30
0
 11
2495.595
 21
688.576
 31
0
 0
LINE
 8
TOOL_0
 5
EA
 10
2495.595
 20
688.576
 30
0
 11
2495.595
 21
704.576
 31
0
 0
ARC
 8
TOOL_0
 5
EB
 10
2488.595
 20
704.576
 30
0
 40
7.0
 50
0
 51
90.0
210
0
220
0
230
1.0
 0
LINE
 8
TOOL_0
 5
EC
 10
2488.595
 20
711.576
 30
0
 11
2232.095
 21
711.576
 31
0
 0
ARC
 8
TOOL_0
 5
ED
 10
2232.095
 20
704.576
 30
0
 40
7.0
 50
90.0
 51
180.0
210
0
220
0
230
1.0
 0
LINE
 8
TOOL_0
 5
EE
 10
2225.095
 20
704.576
 30
0
 11
2225.095
 21
688.576
 31
0
 0
LINE
 8
TOOL_0
 5
EF
 10
2225.095
 20
688.576
 30
0
 11
1925.595
 21
688.576
 31
0
 0
LINE
 8
TOOL_0
 5
F0
 10
1925.595
 20
688.576
 30
0
 11
1925.595
 21
702.576
 31
0
 0
ARC
 8
TOOL_0
 5
F1
 10
1918.595
 20
702.576
 30
0
 40
7.0
 50
0
 51
90.0
210
0
220
0
230
1.0
 0
LINE
 8
TOOL_0
 5
F2
 10
1918.595
 20
709.576
 30
0
 11
1679.595
 21
709.576
 31
0
 0
LINE
 8
TOOL_0
 5
F3
 10
1679.595
 20
709.576
 30
0
 11
1679.595
 21
1114.071
 31
0
 0
ARC
 8
TOOL_0
 5
F4
 10
1688.345
 20
1114.071
 30
0
 40
8.75
 50
90.0
 51
180.0
210
0
220
0
230
1.0
 0
LINE
 8
TOOL_0
 5
F5
 10
1688.345
 20
1122.821
 30
0
 11
1967.123
 21
1122.821
 31
0
 0
ARC
 8
TOOL_0
 5
F6
 10
1967.123
 20
1222.073
 30
0
 40
99.252
 50
270.0
 51
285.063685741874
210
0
220
0
230
1.0
 0
LINE
 8
TOOL_0
 5
F7
 10
1992.918
 20
1126.231
 30
0
 11
2638.824
 21
1300.076
 31
0
 0
LINE
 8
TOOL_0
 5
F8
 10
2638.824
 20
1300.076
 30
0
 11
3455.424
 21
1300.076
 31
0
 0
ARC
 8
TOOL_0
 5
F9
 10
3455.424
 20
1199.326
 30
0
 40
100.75
 50
35.651782107621
 51
90.0
210
0
220
0
230
1.0
 0
LINE
 8
TOOL_0
 5
FA
 10
3537.291
 20
1258.049
 30
0
 11
3681.097
 21
1057.567
 31
0
 0
LINE
 8
TOOL_0
 5
FB
 10
3681.097
 20
1057.567
 30
0
 11
3681.097
 21
948.576
 31
0
 0
LINE
 8
TOOL_0
 5
FC
 10
3681.097
 20
948.576
 30
0
 11
3660.347
 21
948.576
 31
0
 0
ARC
 8
TOOL_0
 5
FD
 10
3660.347
 20
869.326
 30
0
 40
79.25
 50
90.0
 51
270.0
210
0
220
0
230
1.0
 0
LINE
 8
TOOL_0
 5
FE
 10
3660.347
 20
790.076
 30
0
 11
3681.097
 21
790.076
 31
0
 0
LINE
 8
TOOL_0
 5
FF
 10
3681.097
 20
790.076
 30
0
 11
3691.39
 21
790.076
 31
0
 0
LINE
 8
TOOL_0
 5
100
 10
3691.39
 20
790.076
 30
0
 11
4015.388
 21
0.001
 31
0
 0
LINE
 8
TOOL_0
 5
101
 10
4015.388
 20
0.001
 30
0
 11
4015.388
 21
1.001
 31
0
 0
LINE
 8
TOOL_0
 5
102
 10
4015.388
 20
1.001
 30
0
 11
4015.388
 21
0.001
 31
0
 0
LINE
 8
TOOL_0
 5
103
 10
4015.388
 20
0.001
 30
0
 11
4015.388
 21
1.001
 31
0
 0
LINE
 8
TOOL_0
 5
104
 10
4015.388
 20
1.001
 30
0
 11
4015.388
 21
650.735
 31
0
 0
LINE
 8
TOOL_0
 5
105
 10
4015.388
 20
650.735
 30
0
 11
3797.7
 21
650.735
 31
0
 0
LINE
 8
TOOL_0
 5
106
 10
3797.7
 20
650.735
 30
0
 11
3797.7
 21
1361.321
 31
0
 0
LINE
 8
TOOL_0
 5
107
 10
3797.7
 20
1361.321
 30
0
 11
2055.44
 21
1361.321
 31
0
 0
LINE
 8
TOOL_0
 5
108
 10
2055.44
 20
1361.321
 30
0
 11
2055.44
 21
1999.001
 31
0
 0
LINE
 8
TOOL_0
 5
109
 10
2055.44
 20
1999.001
 30
0
 11
2055.44
 21
2000.001
 31
0
 0
ENDSEC
 0
EOF

