0
SECTION
2
TABLES
0
TABLE
2
LAYER
70
0
0
LAYER
2
LAYER_NAME
70
0
62
1
6
CONTINUOUS
0
ENDTAB
0
ENDSEC
 0
SECTION
 2
ENTITIES
 0
LINE
 8
TOOL_0
 5
1
 10
376.862
 20
18.266
 30
0
 11
353.683
 21
8.901
 31
0
 0
LINE
 8
TOOL_0
 5
2
 10
353.683
 20
8.901
 30
0
 11
350.684
 21
8.763
 31
0
 0
ARC
 8
TOOL_0
 5
3
 10
346.874
 20
12.001
 30
0
 40
5.000074399446
 50
270.0
 51
319.639828952664
210
0
220
0
230
1.0
 0
LINE
 8
TOOL_0
 5
4
 10
346.874
 20
7.001
 30
0
 11
282.5
 21
7.001
 31
0
 0
ARC
 8
TOOL_0
 5
5
 10
282.552
 20
13.144
 30
0
 40
6.143220083962
 50
230.190846354153
 51
269.515007427092
210
0
220
0
230
1.0
 0
LINE
 8
TOOL_0
 5
6
 10
278.619
 20
8.425
 30
0
 11
261.883
 21
22.62
 31
0
 0
ARC
 8
TOOL_0
 5
7
 10
217.25
 20
-30.0
 30
0
 40
68.999776006883
 50
49.694936895467
 51
90.0
210
0
220
0
230
1.0
 0
LINE
 8
TOOL_0
 5
8
 10
217.25
 20
39.0
 30
0
 11
173.25
 21
39.0
 31
0
 0
ARC
 8
TOOL_0
 5
9
 10
173.25
 20
-30.0
 30
0
 40
69.0
 50
90.0
 51
130.305063104533
210
0
220
0
230
1.0
 0
LINE
 8
TOOL_0
 5
A
 10
128.617
 20
22.62
 30
0
 11
111.881
 21
8.424
 31
0
 0
ARC
 8
TOOL_0
 5
B
 10
107.947
 20
13.143
 30
0
 40
6.143721754767
 50
270.494318894712
 51
309.816317632978
210
0
220
0
230
1.0
 0
LINE
 8
TOOL_0
 5
C
 10
108.0
 20
7.0
 30
0
 11
43.626
 21
7.0
 31
0
 0
ARC
 8
TOOL_0
 5
D
 10
43.626
 20
12.0
 30
0
 40
5.0
 50
203.001502114303
 51
270.0
210
0
220
0
230
1.0
 0
LINE
 8
TOOL_0
 5
E
 10
39.023
 20
10.046
 30
0
 11
7.397
 21
84.552
 31
0
 0
ARC
 8
TOOL_0
 5
F
 10
12.417
 20
86.591
 30
0
 40
5.418295027036
 50
180.898973899173
 51
202.105774497239
210
0
220
0
230
1.0
 0
LINE
 8
TOOL_0
 5
10
 10
7.0
 20
86.506
 30
0
 11
7.0
 21
176.372
 31
0
 0
ARC
 8
TOOL_0
 5
11
 10
12.027
 20
176.348
 30
0
 40
5.027057290304
 50
96.281037017964
 51
179.726459466712
210
0
220
0
230
1.0
 0
LINE
 8
TOOL_0
 5
12
 10
11.477
 20
181.345
 30
0
 11
22.136
 21
182.465
 31
0
 0
ARC
 8
TOOL_0
 5
13
 10
19.105
 20
211.306
 30
0
 40
28.999831758133
 50
275.999388424777
 51
310.303417565473
210
0
220
0
230
1.0
 0
LINE
 8
TOOL_0
 5
14
 10
37.863
 20
189.19
 30
0
 11
129.513
 21
266.93
 31
0
 0
ARC
 8
TOOL_0
 5
15
 10
173.249
 20
211.0
 30
0
 40
71.000018281688
 50
90.0
 51
128.024606518121
210
0
220
0
230
1.0
 0
LINE
 8
TOOL_0
 5
16
 10
173.249
 20
282.0
 30
0
 11
217.249
 21
282.0
 31
0
 0
ARC
 8
TOOL_0
 5
17
 10
217.249
 20
211.0
 30
0
 40
71.0
 50
51.975393481879
 51
90.0
210
0
220
0
230
1.0
 0
LINE
 8
TOOL_0
 5
18
 10
260.985
 20
266.93
 30
0
 11
352.634
 21
189.191
 31
0
 0
ARC
 8
TOOL_0
 5
19
 10
371.393
 20
211.307
 30
0
 40
29.000302360493
 50
229.695075710032
 51
263.998646675349
210
0
220
0
230
1.0
 0
LINE
 8
TOOL_0
 5
1A
 10
368.361
 20
182.466
 30
0
 11
379.021
 21
181.346
 31
0
 0
ARC
 8
TOOL_0
 5
1B
 10
378.471
 20
176.349
 30
0
 40
5.027177040845
 50
0.273540533288
 51
83.718962982036
210
0
220
0
230
1.0
 0
LINE
 8
TOOL_0
 5
1C
 10
383.498
 20
176.373
 30
0
 11
383.498
 21
86.507
 31
0
 0
ARC
 8
TOOL_0
 5
1D
 10
378.08
 20
86.592
 30
0
 40
5.41866671793
 50
337.898204194617
 51
359.101191997174
210
0
220
0
230
1.0
 0
LINE
 8
TOOL_0
 5
1E
 10
383.101
 20
84.553
 30
0
 11
352.061
 21
11.428
 31
0
 0
LINE
 8
TOOL_0
 5
1F
 10
352.061
 20
11.428
 30
0
 11
353.681
 21
8.901
 31
0
 0
LINE
 8
TOOL_0
 5
20
 10
353.681
 20
8.901
 30
0
 11
355.554
 21
4.265
 31
0
 0
LINE
 8
TOOL_0
 5
21
 10
355.554
 20
4.265
 30
0
 11
771.486
 21
18.266
 31
0
 0
LINE
 8
TOOL_0
 5
22
 10
771.486
 20
18.266
 30
0
 11
748.306
 21
8.901
 31
0
 0
LINE
 8
TOOL_0
 5
23
 10
748.306
 20
8.901
 30
0
 11
745.307
 21
8.763
 31
0
 0
ARC
 8
TOOL_0
 5
24
 10
741.497
 20
12.001
 30
0
 40
5.000074399446
 50
270.0
 51
319.639828952663
210
0
220
0
230
1.0
 0
LINE
 8
TOOL_0
 5
25
 10
741.497
 20
7.001
 30
0
 11
677.123
 21
7.001
 31
0
 0
ARC
 8
TOOL_0
 5
26
 10
677.175
 20
13.144
 30
0
 40
6.143220083962
 50
230.190846354153
 51
269.515007427092
210
0
220
0
230
1.0
 0
LINE
 8
TOOL_0
 5
27
 10
673.242
 20
8.425
 30
0
 11
656.506
 21
22.62
 31
0
 0
ARC
 8
TOOL_0
 5
28
 10
611.873
 20
-30.0
 30
0
 40
68.999776006883
 50
49.694936895467
 51
90.0
210
0
220
0
230
1.0
 0
LINE
 8
TOOL_0
 5
29
 10
611.873
 20
39.0
 30
0
 11
567.873
 21
39.0
 31
0
 0
ARC
 8
TOOL_0
 5
2A
 10
567.873
 20
-30.0
 30
0
 40
69.0
 50
90.0
 51
130.305063104533
210
0
220
0
230
1.0
 0
LINE
 8
TOOL_0
 5
2B
 10
523.24
 20
22.62
 30
0
 11
506.504
 21
8.424
 31
0
 0
ARC
 8
TOOL_0
 5
2C
 10
502.57
 20
13.143
 30
0
 40
6.143721754767
 50
270.494318894712
 51
309.816317632979
210
0
220
0
230
1.0
 0
LINE
 8
TOOL_0
 5
2D
 10
502.623
 20
7.0
 30
0
 11
438.249
 21
7.0
 31
0
 0
ARC
 8
TOOL_0
 5
2E
 10
438.249
 20
12.0
 30
0
 40
5.0
 50
203.001502114303
 51
270.0
210
0
220
0
230
1.0
 0
LINE
 8
TOOL_0
 5
2F
 10
433.646
 20
10.046
 30
0
 11
402.02
 21
84.552
 31
0
 0
ARC
 8
TOOL_0
 5
30
 10
407.04
 20
86.591
 30
0
 40
5.418295027036
 50
180.898973899173
 51
202.105774497239
210
0
220
0
230
1.0
 0
LINE
 8
TOOL_0
 5
31
 10
401.623
 20
86.506
 30
0
 11
401.623
 21
176.372
 31
0
 0
ARC
 8
TOOL_0
 5
32
 10
406.65
 20
176.348
 30
0
 40
5.027057290304
 50
96.281037017964
 51
179.726459466712
210
0
220
0
230
1.0
 0
LINE
 8
TOOL_0
 5
33
 10
406.1
 20
181.345
 30
0
 11
416.759
 21
182.465
 31
0
 0
ARC
 8
TOOL_0
 5
34
 10
413.728
 20
211.306
 30
0
 40
28.999831758133
 50
275.999388424777
 51
310.303417565473
210
0
220
0
230
1.0
 0
LINE
 8
TOOL_0
 5
35
 10
432.486
 20
189.19
 30
0
 11
524.136
 21
266.93
 31
0
 0
ARC
 8
TOOL_0
 5
36
 10
567.872
 20
211.0
 30
0
 40
71.000018281688
 50
90.0
 51
128.024606518121
210
0
220
0
230
1.0
 0
LINE
 8
TOOL_0
 5
37
 10
567.872
 20
282.0
 30
0
 11
611.872
 21
282.0
 31
0
 0
ARC
 8
TOOL_0
 5
38
 10
611.872
 20
211.0
 30
0
 40
71.0
 50
51.975393481879
 51
90.0
210
0
220
0
230
1.0
 0
LINE
 8
TOOL_0
 5
39
 10
655.608
 20
266.93
 30
0
 11
747.257
 21
189.191
 31
0
 0
ARC
 8
TOOL_0
 5
3A
 10
766.016
 20
211.307
 30
0
 40
29.000302360493
 50
229.695075710032
 51
263.998646675349
210
0
220
0
230
1.0
 0
LINE
 8
TOOL_0
 5
3B
 10
762.984
 20
182.466
 30
0
 11
773.644
 21
181.346
 31
0
 0
ARC
 8
TOOL_0
 5
3C
 10
773.094
 20
176.349
 30
0
 40
5.027177040845
 50
0.273540533288
 51
83.718962982037
210
0
220
0
230
1.0
 0
LINE
 8
TOOL_0
 5
3D
 10
778.121
 20
176.373
 30
0
 11
778.121
 21
86.507
 31
0
 0
ARC
 8
TOOL_0
 5
3E
 10
772.703
 20
86.592
 30
0
 40
5.41866671793
 50
337.898204194617
 51
359.101191997174
210
0
220
0
230
1.0
 0
LINE
 8
TOOL_0
 5
3F
 10
777.724
 20
84.553
 30
0
 11
746.684
 21
11.428
 31
0
 0
LINE
 8
TOOL_0
 5
40
 10
746.684
 20
11.428
 30
0
 11
748.304
 21
8.901
 31
0
 0
LINE
 8
TOOL_0
 5
41
 10
748.304
 20
8.901
 30
0
 11
750.177
 21
4.265
 31
0
 0
LINE
 8
TOOL_0
 5
42
 10
750.177
 20
4.265
 30
0
 11
1166.146
 21
18.266
 31
0
 0
LINE
 8
TOOL_0
 5
43
 10
1166.146
 20
18.266
 30
0
 11
1142.966
 21
8.901
 31
0
 0
LINE
 8
TOOL_0
 5
44
 10
1142.966
 20
8.901
 30
0
 11
1139.967
 21
8.763
 31
0
 0
ARC
 8
TOOL_0
 5
45
 10
1136.157
 20
12.001
 30
0
 40
5.000074399446
 50
270.0
 51
319.639828952663
210
0
220
0
230
1.0
 0
LINE
 8
TOOL_0
 5
46
 10
1136.157
 20
7.001
 30
0
 11
1071.783
 21
7.001
 31
0
 0
ARC
 8
TOOL_0
 5
47
 10
1071.835
 20
13.144
 30
0
 40
6.143220083962
 50
230.190846354153
 51
269.515007427093
210
0
220
0
230
1.0
 0
LINE
 8
TOOL_0
 5
48
 10
1067.902
 20
8.425
 30
0
 11
1051.166
 21
22.62
 31
0
 0
ARC
 8
TOOL_0
 5
49
 10
1006.533
 20
-30.0
 30
0
 40
68.999776006883
 50
49.694936895467
 51
90.0
210
0
220
0
230
1.0
 0
LINE
 8
TOOL_0
 5
4A
 10
1006.533
 20
39.0
 30
0
 11
962.533
 21
39.0
 31
0
 0
ARC
 8
TOOL_0
 5
4B
 10
962.533
 20
-30.0
 30
0
 40
69.0
 50
90.0
 51
130.305063104533
210
0
220
0
230
1.0
 0
LINE
 8
TOOL_0
 5
4C
 10
917.9
 20
22.62
 30
0
 11
901.164
 21
8.424
 31
0
 0
ARC
 8
TOOL_0
 5
4D
 10
897.23
 20
13.143
 30
0
 40
6.143721754767
 50
270.494318894712
 51
309.816317632978
210
0
220
0
230
1.0
 0
LINE
 8
TOOL_0
 5
4E
 10
897.283
 20
7.0
 30
0
 11
832.909
 21
7.0
 31
0
 0
ARC
 8
TOOL_0
 5
4F
 10
832.909
 20
12.0
 30
0
 40
5.0
 50
203.001502114303
 51
270.0
210
0
220
0
230
1.0
 0
LINE
 8
TOOL_0
 5
50
 10
828.306
 20
10.046
 30
0
 11
796.68
 21
84.552
 31
0
 0
ARC
 8
TOOL_0
 5
51
 10
801.7
 20
86.591
 30
0
 40
5.418295027036
 50
180.898973899173
 51
202.105774497239
210
0
220
0
230
1.0
 0
LINE
 8
TOOL_0
 5
52
 10
796.283
 20
86.506
 30
0
 11
796.283
 21
176.372
 31
0
 0
ARC
 8
TOOL_0
 5
53
 10
801.31
 20
176.348
 30
0
 40
5.027057290304
 50
96.281037017964
 51
179.726459466712
210
0
220
0
230
1.0
 0
LINE
 8
TOOL_0
 5
54
 10
800.76
 20
181.345
 30
0
 11
811.419
 21
182.465
 31
0
 0
ARC
 8
TOOL_0
 5
55
 10
808.388
 20
211.306
 30
0
 40
28.999831758133
 50
275.999388424776
 51
310.303417565473
210
0
220
0
230
1.0
 0
LINE
 8
TOOL_0
 5
56
 10
827.146
 20
189.19
 30
0
 11
918.796
 21
266.93
 31
0
 0
ARC
 8
TOOL_0
 5
57
 10
962.532
 20
211.0
 30
0
 40
71.000018281688
 50
90.0
 51
128.024606518121
210
0
220
0
230
1.0
 0
LINE
 8
TOOL_0
 5
58
 10
962.532
 20
282.0
 30
0
 11
1006.532
 21
282.0
 31
0
 0
ARC
 8
TOOL_0
 5
59
 10
1006.532
 20
211.0
 30
0
 40
71.0
 50
51.975393481879
 51
90.0
210
0
220
0
230
1.0
 0
LINE
 8
TOOL_0
 5
5A
 10
1050.268
 20
266.93
 30
0
 11
1141.917
 21
189.191
 31
0
 0
ARC
 8
TOOL_0
 5
5B
 10
1160.676
 20
211.307
 30
0
 40
29.000302360493
 50
229.695075710032
 51
263.998646675349
210
0
220
0
230
1.0
 0
LINE
 8
TOOL_0
 5
5C
 10
1157.644
 20
182.466
 30
0
 11
1168.304
 21
181.346
 31
0
 0
ARC
 8
TOOL_0
 5
5D
 10
1167.754
 20
176.349
 30
0
 40
5.027177040845
 50
0.273540533288
 51
83.718962982037
210
0
220
0
230
1.0
 0
LINE
 8
TOOL_0
 5
5E
 10
1172.781
 20
176.373
 30
0
 11
1172.781
 21
86.507
 31
0
 0
ARC
 8
TOOL_0
 5
5F
 10
1167.363
 20
86.592
 30
0
 40
5.41866671793
 50
337.898204194617
 51
359.101191997174
210
0
220
0
230
1.0
 0
LINE
 8
TOOL_0
 5
60
 10
1172.384
 20
84.553
 30
0
 11
1141.344
 21
11.428
 31
0
 0
LINE
 8
TOOL_0
 5
61
 10
1141.344
 20
11.428
 30
0
 11
1142.964
 21
8.901
 31
0
 0
LINE
 8
TOOL_0
 5
62
 10
1142.964
 20
8.901
 30
0
 11
1144.837
 21
4.265
 31
0
 0
LINE
 8
TOOL_0
 5
63
 10
1144.837
 20
4.265
 30
0
 11
1565.592
 21
18.266
 31
0
 0
LINE
 8
TOOL_0
 5
64
 10
1565.592
 20
18.266
 30
0
 11
1542.412
 21
8.901
 31
0
 0
LINE
 8
TOOL_0
 5
65
 10
1542.412
 20
8.901
 30
0
 11
1539.413
 21
8.763
 31
0
 0
ARC
 8
TOOL_0
 5
66
 10
1535.603
 20
12.001
 30
0
 40
5.000074399446
 50
270.0
 51
319.639828952663
210
0
220
0
230
1.0
 0
LINE
 8
TOOL_0
 5
67
 10
1535.603
 20
7.001
 30
0
 11
1471.229
 21
7.001
 31
0
 0
ARC
 8
TOOL_0
 5
68
 10
1471.281
 20
13.144
 30
0
 40
6.143220083962
 50
230.190846354153
 51
269.515007427093
210
0
220
0
230
1.0
 0
LINE
 8
TOOL_0
 5
69
 10
1467.348
 20
8.425
 30
0
 11
1450.612
 21
22.62
 31
0
 0
ARC
 8
TOOL_0
 5
6A
 10
1405.979
 20
-30.0
 30
0
 40
68.999776006883
 50
49.694936895467
 51
90.0
210
0
220
0
230
1.0
 0
LINE
 8
TOOL_0
 5
6B
 10
1405.979
 20
39.0
 30
0
 11
1361.979
 21
39.0
 31
0
 0
ARC
 8
TOOL_0
 5
6C
 10
1361.979
 20
-30.0
 30
0
 40
69.0
 50
90.0
 51
130.305063104533
210
0
220
0
230
1.0
 0
LINE
 8
TOOL_0
 5
6D
 10
1317.346
 20
22.62
 30
0
 11
1300.61
 21
8.424
 31
0
 0
ARC
 8
TOOL_0
 5
6E
 10
1296.676
 20
13.143
 30
0
 40
6.143721754767
 50
270.494318894711
 51
309.816317632978
210
0
220
0
230
1.0
 0
LINE
 8
TOOL_0
 5
6F
 10
1296.729
 20
7.0
 30
0
 11
1232.355
 21
7.0
 31
0
 0
ARC
 8
TOOL_0
 5
70
 10
1232.355
 20
12.0
 30
0
 40
5.0
 50
203.001502114303
 51
270.0
210
0
220
0
230
1.0
 0
LINE
 8
TOOL_0
 5
71
 10
1227.752
 20
10.046
 30
0
 11
1196.126
 21
84.552
 31
0
 0
ARC
 8
TOOL_0
 5
72
 10
1201.146
 20
86.591
 30
0
 40
5.418295027036
 50
180.898973899173
 51
202.105774497239
210
0
220
0
230
1.0
 0
LINE
 8
TOOL_0
 5
73
 10
1195.729
 20
86.506
 30
0
 11
1195.729
 21
176.372
 31
0
 0
ARC
 8
TOOL_0
 5
74
 10
1200.756
 20
176.348
 30
0
 40
5.027057290304
 50
96.281037017963
 51
179.726459466712
210
0
220
0
230
1.0
 0
LINE
 8
TOOL_0
 5
75
 10
1200.206
 20
181.345
 30
0
 11
1210.865
 21
182.465
 31
0
 0
ARC
 8
TOOL_0
 5
76
 10
1207.834
 20
211.306
 30
0
 40
28.999831758133
 50
275.999388424776
 51
310.303417565473
210
0
220
0
230
1.0
 0
LINE
 8
TOOL_0
 5
77
 10
1226.592
 20
189.19
 30
0
 11
1318.242
 21
266.93
 31
0
 0
ARC
 8
TOOL_0
 5
78
 10
1361.978
 20
211.0
 30
0
 40
71.000018281688
 50
90.0
 51
128.024606518121
210
0
220
0
230
1.0
 0
LINE
 8
TOOL_0
 5
79
 10
1361.978
 20
282.0
 30
0
 11
1405.978
 21
282.0
 31
0
 0
ARC
 8
TOOL_0
 5
7A
 10
1405.978
 20
211.0
 30
0
 40
71.0
 50
51.975393481879
 51
90.0
210
0
220
0
230
1.0
 0
LINE
 8
TOOL_0
 5
7B
 10
1449.714
 20
266.93
 30
0
 11
1541.363
 21
189.191
 31
0
 0
ARC
 8
TOOL_0
 5
7C
 10
1560.122
 20
211.307
 30
0
 40
29.000302360493
 50
229.695075710032
 51
263.998646675349
210
0
220
0
230
1.0
 0
LINE
 8
TOOL_0
 5
7D
 10
1557.09
 20
182.466
 30
0
 11
1567.75
 21
181.346
 31
0
 0
ARC
 8
TOOL_0
 5
7E
 10
1567.2
 20
176.349
 30
0
 40
5.027177040845
 50
0.273540533288
 51
83.718962982037
210
0
220
0
230
1.0
 0
LINE
 8
TOOL_0
 5
7F
 10
1572.227
 20
176.373
 30
0
 11
1572.227
 21
86.507
 31
0
 0
ARC
 8
TOOL_0
 5
80
 10
1566.809
 20
86.592
 30
0
 40
5.41866671793
 50
337.898204194617
 51
359.101191997174
210
0
220
0
230
1.0
 0
LINE
 8
TOOL_0
 5
81
 10
1571.83
 20
84.553
 30
0
 11
1540.79
 21
11.428
 31
0
 0
LINE
 8
TOOL_0
 5
82
 10
1540.79
 20
11.428
 30
0
 11
1542.41
 21
8.901
 31
0
 0
LINE
 8
TOOL_0
 5
83
 10
1542.41
 20
8.901
 30
0
 11
1544.283
 21
4.265
 31
0
 0
LINE
 8
TOOL_0
 5
84
 10
1544.283
 20
4.265
 30
0
 11
1960.224
 21
18.266
 31
0
 0
LINE
 8
TOOL_0
 5
85
 10
1960.224
 20
18.266
 30
0
 11
1937.044
 21
8.901
 31
0
 0
LINE
 8
TOOL_0
 5
86
 10
1937.044
 20
8.901
 30
0
 11
1934.045
 21
8.763
 31
0
 0
ARC
 8
TOOL_0
 5
87
 10
1930.235
 20
12.001
 30
0
 40
5.000074399446
 50
270.0
 51
319.639828952663
210
0
220
0
230
1.0
 0
LINE
 8
TOOL_0
 5
88
 10
1930.235
 20
7.001
 30
0
 11
1865.861
 21
7.001
 31
0
 0
ARC
 8
TOOL_0
 5
89
 10
1865.913
 20
13.144
 30
0
 40
6.143220083962
 50
230.190846354153
 51
269.515007427093
210
0
220
0
230
1.0
 0
LINE
 8
TOOL_0
 5
8A
 10
1861.98
 20
8.425
 30
0
 11
1845.244
 21
22.62
 31
0
 0
ARC
 8
TOOL_0
 5
8B
 10
1800.611
 20
-30.0
 30
0
 40
68.999776006883
 50
49.694936895467
 51
90.0
210
0
220
0
230
1.0
 0
LINE
 8
TOOL_0
 5
8C
 10
1800.611
 20
39.0
 30
0
 11
1756.611
 21
39.0
 31
0
 0
ARC
 8
TOOL_0
 5
8D
 10
1756.611
 20
-30.0
 30
0
 40
69.0
 50
90.0
 51
130.305063104533
210
0
220
0
230
1.0
 0
LINE
 8
TOOL_0
 5
8E
 10
1711.978
 20
22.62
 30
0
 11
1695.242
 21
8.424
 31
0
 0
ARC
 8
TOOL_0
 5
8F
 10
1691.308
 20
13.143
 30
0
 40
6.143721754767
 50
270.494318894711
 51
309.816317632978
210
0
220
0
230
1.0
 0
LINE
 8
TOOL_0
 5
90
 10
1691.361
 20
7.0
 30
0
 11
1626.987
 21
7.0
 31
0
 0
ARC
 8
TOOL_0
 5
91
 10
1626.987
 20
12.0
 30
0
 40
5.0
 50
203.001502114303
 51
270.0
210
0
220
0
230
1.0
 0
LINE
 8
TOOL_0
 5
92
 10
1622.384
 20
10.046
 30
0
 11
1590.758
 21
84.552
 31
0
 0
ARC
 8
TOOL_0
 5
93
 10
1595.778
 20
86.591
 30
0
 40
5.418295027036
 50
180.898973899173
 51
202.105774497239
210
0
220
0
230
1.0
 0
LINE
 8
TOOL_0
 5
94
 10
1590.361
 20
86.506
 30
0
 11
1590.361
 21
176.372
 31
0
 0
ARC
 8
TOOL_0
 5
95
 10
1595.388
 20
176.348
 30
0
 40
5.027057290304
 50
96.281037017963
 51
179.726459466712
210
0
220
0
230
1.0
 0
LINE
 8
TOOL_0
 5
96
 10
1594.838
 20
181.345
 30
0
 11
1605.497
 21
182.465
 31
0
 0
ARC
 8
TOOL_0
 5
97
 10
1602.466
 20
211.306
 30
0
 40
28.999831758133
 50
275.999388424776
 51
310.303417565473
210
0
220
0
230
1.0
 0
LINE
 8
TOOL_0
 5
98
 10
1621.224
 20
189.19
 30
0
 11
1712.874
 21
266.93
 31
0
 0
ARC
 8
TOOL_0
 5
99
 10
1756.61
 20
211.0
 30
0
 40
71.000018281688
 50
90.0
 51
128.024606518121
210
0
220
0
230
1.0
 0
LINE
 8
TOOL_0
 5
9A
 10
1756.61
 20
282.0
 30
0
 11
1800.61
 21
282.0
 31
0
 0
ARC
 8
TOOL_0
 5
9B
 10
1800.61
 20
211.0
 30
0
 40
71.0
 50
51.975393481879
 51
90.0
210
0
220
0
230
1.0
 0
LINE
 8
TOOL_0
 5
9C
 10
1844.346
 20
266.93
 30
0
 11
1935.995
 21
189.191
 31
0
 0
ARC
 8
TOOL_0
 5
9D
 10
1954.754
 20
211.307
 30
0
 40
29.000302360493
 50
229.695075710032
 51
263.998646675349
210
0
220
0
230
1.0
 0
LINE
 8
TOOL_0
 5
9E
 10
1951.722
 20
182.466
 30
0
 11
1962.382
 21
181.346
 31
0
 0
ARC
 8
TOOL_0
 5
9F
 10
1961.832
 20
176.349
 30
0
 40
5.027177040845
 50
0.273540533288
 51
83.718962982037
210
0
220
0
230
1.0
 0
LINE
 8
TOOL_0
 5
A0
 10
1966.859
 20
176.373
 30
0
 11
1966.859
 21
86.507
 31
0
 0
ARC
 8
TOOL_0
 5
A1
 10
1961.441
 20
86.592
 30
0
 40
5.41866671793
 50
337.898204194617
 51
359.101191997174
210
0
220
0
230
1.0
 0
LINE
 8
TOOL_0
 5
A2
 10
1966.462
 20
84.553
 30
0
 11
1935.422
 21
11.428
 31
0
 0
LINE
 8
TOOL_0
 5
A3
 10
1935.422
 20
11.428
 30
0
 11
1937.042
 21
8.901
 31
0
 0
LINE
 8
TOOL_0
 5
A4
 10
1937.042
 20
8.901
 30
0
 11
1938.915
 21
4.265
 31
0
 0
LINE
 8
TOOL_0
 5
A5
 10
1938.915
 20
4.265
 30
0
 11
2354.857
 21
18.266
 31
0
 0
LINE
 8
TOOL_0
 5
A6
 10
2354.857
 20
18.266
 30
0
 11
2331.677
 21
8.901
 31
0
 0
LINE
 8
TOOL_0
 5
A7
 10
2331.677
 20
8.901
 30
0
 11
2328.678
 21
8.763
 31
0
 0
ARC
 8
TOOL_0
 5
A8
 10
2324.868
 20
12.001
 30
0
 40
5.000074399446
 50
270.0
 51
319.639828952663
210
0
220
0
230
1.0
 0
LINE
 8
TOOL_0
 5
A9
 10
2324.868
 20
7.001
 30
0
 11
2260.494
 21
7.001
 31
0
 0
ARC
 8
TOOL_0
 5
AA
 10
2260.546
 20
13.144
 30
0
 40
6.143220083962
 50
230.190846354153
 51
269.515007427091
210
0
220
0
230
1.0
 0
LINE
 8
TOOL_0
 5
AB
 10
2256.613
 20
8.425
 30
0
 11
2239.877
 21
22.62
 31
0
 0
ARC
 8
TOOL_0
 5
AC
 10
2195.244
 20
-30.0
 30
0
 40
68.999776006883
 50
49.694936895467
 51
90.0
210
0
220
0
230
1.0
 0
LINE
 8
TOOL_0
 5
AD
 10
2195.244
 20
39.0
 30
0
 11
2151.244
 21
39.0
 31
0
 0
ARC
 8
TOOL_0
 5
AE
 10
2151.244
 20
-30.0
 30
0
 40
69.0
 50
90.0
 51
130.305063104533
210
0
220
0
230
1.0
 0
LINE
 8
TOOL_0
 5
AF
 10
2106.611
 20
22.62
 30
0
 11
2089.875
 21
8.424
 31
0
 0
ARC
 8
TOOL_0
 5
B0
 10
2085.941
 20
13.143
 30
0
 40
6.143721754767
 50
270.494318894715
 51
309.81631763298
210
0
220
0
230
1.0
 0
LINE
 8
TOOL_0
 5
B1
 10
2085.994
 20
7.0
 30
0
 11
2021.62
 21
7.0
 31
0
 0
ARC
 8
TOOL_0
 5
B2
 10
2021.62
 20
12.0
 30
0
 40
5.0
 50
203.001502114303
 51
270.0
210
0
220
0
230
1.0
 0
LINE
 8
TOOL_0
 5
B3
 10
2017.017
 20
10.046
 30
0
 11
1985.391
 21
84.552
 31
0
 0
ARC
 8
TOOL_0
 5
B4
 10
1990.411
 20
86.591
 30
0
 40
5.418295027036
 50
180.898973899173
 51
202.105774497239
210
0
220
0
230
1.0
 0
LINE
 8
TOOL_0
 5
B5
 10
1984.994
 20
86.506
 30
0
 11
1984.994
 21
176.372
 31
0
 0
ARC
 8
TOOL_0
 5
B6
 10
1990.021
 20
176.348
 30
0
 40
5.027057290304
 50
96.281037017963
 51
179.726459466712
210
0
220
0
230
1.0
 0
LINE
 8
TOOL_0
 5
B7
 10
1989.471
 20
181.345
 30
0
 11
2000.13
 21
182.465
 31
0
 0
ARC
 8
TOOL_0
 5
B8
 10
1997.099
 20
211.306
 30
0
 40
28.999831758133
 50
275.999388424776
 51
310.303417565473
210
0
220
0
230
1.0
 0
LINE
 8
TOOL_0
 5
B9
 10
2015.857
 20
189.19
 30
0
 11
2107.507
 21
266.93
 31
0
 0
ARC
 8
TOOL_0
 5
BA
 10
2151.243
 20
211.0
 30
0
 40
71.000018281688
 50
90.0
 51
128.024606518121
210
0
220
0
230
1.0
 0
LINE
 8
TOOL_0
 5
BB
 10
2151.243
 20
282.0
 30
0
 11
2195.243
 21
282.0
 31
0
 0
ARC
 8
TOOL_0
 5
BC
 10
2195.243
 20
211.0
 30
0
 40
71.0
 50
51.975393481879
 51
90.0
210
0
220
0
230
1.0
 0
LINE
 8
TOOL_0
 5
BD
 10
2238.979
 20
266.93
 30
0
 11
2330.628
 21
189.191
 31
0
 0
ARC
 8
TOOL_0
 5
BE
 10
2349.387
 20
211.307
 30
0
 40
29.000302360493
 50
229.695075710032
 51
263.998646675349
210
0
220
0
230
1.0
 0
LINE
 8
TOOL_0
 5
BF
 10
2346.355
 20
182.466
 30
0
 11
2357.015
 21
181.346
 31
0
 0
ARC
 8
TOOL_0
 5
C0
 10
2356.465
 20
176.349
 30
0
 40
5.027177040845
 50
0.273540533288
 51
83.718962982034
210
0
220
0
230
1.0
 0
LINE
 8
TOOL_0
 5
C1
 10
2361.492
 20
176.373
 30
0
 11
2361.492
 21
86.507
 31
0
 0
ARC
 8
TOOL_0
 5
C2
 10
2356.074
 20
86.592
 30
0
 40
5.41866671793
 50
337.898204194618
 51
359.101191997174
210
0
220
0
230
1.0
 0
LINE
 8
TOOL_0
 5
C3
 10
2361.095
 20
84.553
 30
0
 11
2330.055
 21
11.428
 31
0
 0
LINE
 8
TOOL_0
 5
C4
 10
2330.055
 20
11.428
 30
0
 11
2331.675
 21
8.901
 31
0
 0
LINE
 8
TOOL_0
 5
C5
 10
2331.675
 20
8.901
 30
0
 11
2333.548
 21
4.265
 31
0
 0
LINE
 8
TOOL_0
 5
C6
 10
2333.548
 20
4.265
 30
0
 11
2750.33
 21
18.266
 31
0
 0
LINE
 8
TOOL_0
 5
C7
 10
2750.33
 20
18.266
 30
0
 11
2727.151
 21
8.901
 31
0
 0
LINE
 8
TOOL_0
 5
C8
 10
2727.151
 20
8.901
 30
0
 11
2724.152
 21
8.763
 31
0
 0
ARC
 8
TOOL_0
 5
C9
 10
2720.342
 20
12.001
 30
0
 40
5.000074399446
 50
270.0
 51
319.639828952663
210
0
220
0
230
1.0
 0
LINE
 8
TOOL_0
 5
CA
 10
2720.342
 20
7.001
 30
0
 11
2655.968
 21
7.001
 31
0
 0
ARC
 8
TOOL_0
 5
CB
 10
2656.02
 20
13.144
 30
0
 40
6.143220083962
 50
230.190846354153
 51
269.515007427091
210
0
220
0
230
1.0
 0
LINE
 8
TOOL_0
 5
CC
 10
2652.087
 20
8.425
 30
0
 11
2635.351
 21
22.62
 31
0
 0
ARC
 8
TOOL_0
 5
CD
 10
2590.718
 20
-30.0
 30
0
 40
68.999776006883
 50
49.694936895467
 51
90.0
210
0
220
0
230
1.0
 0
LINE
 8
TOOL_0
 5
CE
 10
2590.718
 20
39.0
 30
0
 11
2546.718
 21
39.0
 31
0
 0
ARC
 8
TOOL_0
 5
CF
 10
2546.718
 20
-30.0
 30
0
 40
69.0
 50
90.0
 51
130.305063104533
210
0
220
0
230
1.0
 0
LINE
 8
TOOL_0
 5
D0
 10
2502.085
 20
22.62
 30
0
 11
2485.349
 21
8.424
 31
0
 0
ARC
 8
TOOL_0
 5
D1
 10
2481.415
 20
13.143
 30
0
 40
6.143721754767
 50
270.494318894715
 51
309.81631763298
210
0
220
0
230
1.0
 0
LINE
 8
TOOL_0
 5
D2
 10
2481.468
 20
7.0
 30
0
 11
2417.094
 21
7.0
 31
0
 0
ARC
 8
TOOL_0
 5
D3
 10
2417.094
 20
12.0
 30
0
 40
5.0
 50
203.001502114303
 51
270.0
210
0
220
0
230
1.0
 0
LINE
 8
TOOL_0
 5
D4
 10
2412.491
 20
10.046
 30
0
 11
2380.865
 21
84.552
 31
0
 0
ARC
 8
TOOL_0
 5
D5
 10
2385.885
 20
86.591
 30
0
 40
5.418295027036
 50
180.898973899173
 51
202.105774497239
210
0
220
0
230
1.0
 0
LINE
 8
TOOL_0
 5
D6
 10
2380.468
 20
86.506
 30
0
 11
2380.468
 21
176.372
 31
0
 0
ARC
 8
TOOL_0
 5
D7
 10
2385.495
 20
176.348
 30
0
 40
5.027057290304
 50
96.281037017966
 51
179.726459466712
210
0
220
0
230
1.0
 0
LINE
 8
TOOL_0
 5
D8
 10
2384.945
 20
181.345
 30
0
 11
2395.604
 21
182.465
 31
0
 0
ARC
 8
TOOL_0
 5
D9
 10
2392.573
 20
211.306
 30
0
 40
28.999831758133
 50
275.999388424776
 51
310.303417565473
210
0
220
0
230
1.0
 0
LINE
 8
TOOL_0
 5
DA
 10
2411.331
 20
189.19
 30
0
 11
2502.981
 21
266.93
 31
0
 0
ARC
 8
TOOL_0
 5
DB
 10
2546.717
 20
211.0
 30
0
 40
71.000018281688
 50
90.0
 51
128.024606518121
210
0
220
0
230
1.0
 0
LINE
 8
TOOL_0
 5
DC
 10
2546.717
 20
282.0
 30
0
 11
2590.717
 21
282.0
 31
0
 0
ARC
 8
TOOL_0
 5
DD
 10
2590.717
 20
211.0
 30
0
 40
71.0
 50
51.975393481879
 51
90.0
210
0
220
0
230
1.0
 0
LINE
 8
TOOL_0
 5
DE
 10
2634.453
 20
266.93
 30
0
 11
2726.102
 21
189.191
 31
0
 0
ARC
 8
TOOL_0
 5
DF
 10
2744.861
 20
211.307
 30
0
 40
29.000302360493
 50
229.695075710032
 51
263.998646675349
210
0
220
0
230
1.0
 0
LINE
 8
TOOL_0
 5
E0
 10
2741.829
 20
182.466
 30
0
 11
2752.489
 21
181.346
 31
0
 0
ARC
 8
TOOL_0
 5
E1
 10
2751.939
 20
176.349
 30
0
 40
5.027177040845
 50
0.273540533288
 51
83.718962982034
210
0
220
0
230
1.0
 0
LINE
 8
TOOL_0
 5
E2
 10
2756.966
 20
176.373
 30
0
 11
2756.966
 21
86.507
 31
0
 0
ARC
 8
TOOL_0
 5
E3
 10
2751.548
 20
86.592
 30
0
 40
5.41866671793
 50
337.898204194618
 51
359.101191997174
210
0
220
0
230
1.0
 0
LINE
 8
TOOL_0
 5
E4
 10
2756.569
 20
84.553
 30
0
 11
2725.529
 21
11.428
 31
0
 0
LINE
 8
TOOL_0
 5
E5
 10
2725.529
 20
11.428
 30
0
 11
2727.149
 21
8.901
 31
0
 0
LINE
 8
TOOL_0
 5
E6
 10
2727.149
 20
8.901
 30
0
 11
2729.022
 21
4.265
 31
0
 0
LINE
 8
TOOL_0
 5
E7
 10
2729.022
 20
4.265
 30
0
 11
3145.804
 21
18.266
 31
0
 0
LINE
 8
TOOL_0
 5
E8
 10
3145.804
 20
18.266
 30
0
 11
3122.625
 21
8.901
 31
0
 0
LINE
 8
TOOL_0
 5
E9
 10
3122.625
 20
8.901
 30
0
 11
3119.626
 21
8.763
 31
0
 0
ARC
 8
TOOL_0
 5
EA
 10
3115.816
 20
12.001
 30
0
 40
5.000074399446
 50
270.0
 51
319.639828952663
210
0
220
0
230
1.0
 0
LINE
 8
TOOL_0
 5
EB
 10
3115.816
 20
7.001
 30
0
 11
3051.442
 21
7.001
 31
0
 0
ARC
 8
TOOL_0
 5
EC
 10
3051.494
 20
13.144
 30
0
 40
6.143220083962
 50
230.190846354153
 51
269.515007427091
210
0
220
0
230
1.0
 0
LINE
 8
TOOL_0
 5
ED
 10
3047.561
 20
8.425
 30
0
 11
3030.825
 21
22.62
 31
0
 0
ARC
 8
TOOL_0
 5
EE
 10
2986.192
 20
-30.0
 30
0
 40
68.999776006883
 50
49.694936895467
 51
90.0
210
0
220
0
230
1.0
 0
LINE
 8
TOOL_0
 5
EF
 10
2986.192
 20
39.0
 30
0
 11
2942.192
 21
39.0
 31
0
 0
ARC
 8
TOOL_0
 5
F0
 10
2942.192
 20
-30.0
 30
0
 40
69.0
 50
90.0
 51
130.305063104533
210
0
220
0
230
1.0
 0
LINE
 8
TOOL_0
 5
F1
 10
2897.559
 20
22.62
 30
0
 11
2880.823
 21
8.424
 31
0
 0
ARC
 8
TOOL_0
 5
F2
 10
2876.889
 20
13.143
 30
0
 40
6.143721754767
 50
270.494318894715
 51
309.81631763298
210
0
220
0
230
1.0
 0
LINE
 8
TOOL_0
 5
F3
 10
2876.942
 20
7.0
 30
0
 11
2812.568
 21
7.0
 31
0
 0
ARC
 8
TOOL_0
 5
F4
 10
2812.568
 20
12.0
 30
0
 40
5.0
 50
203.001502114303
 51
270.0
210
0
220
0
230
1.0
 0
LINE
 8
TOOL_0
 5
F5
 10
2807.965
 20
10.046
 30
0
 11
2776.339
 21
84.552
 31
0
 0
ARC
 8
TOOL_0
 5
F6
 10
2781.359
 20
86.591
 30
0
 40
5.418295027036
 50
180.898973899173
 51
202.105774497239
210
0
220
0
230
1.0
 0
LINE
 8
TOOL_0
 5
F7
 10
2775.942
 20
86.506
 30
0
 11
2775.942
 21
176.372
 31
0
 0
ARC
 8
TOOL_0
 5
F8
 10
2780.969
 20
176.348
 30
0
 40
5.027057290304
 50
96.281037017966
 51
179.726459466712
210
0
220
0
230
1.0
 0
LINE
 8
TOOL_0
 5
F9
 10
2780.419
 20
181.345
 30
0
 11
2791.078
 21
182.465
 31
0
 0
ARC
 8
TOOL_0
 5
FA
 10
2788.047
 20
211.306
 30
0
 40
28.999831758133
 50
275.999388424776
 51
310.303417565473
210
0
220
0
230
1.0
 0
LINE
 8
TOOL_0
 5
FB
 10
2806.805
 20
189.19
 30
0
 11
2898.455
 21
266.93
 31
0
 0
ARC
 8
TOOL_0
 5
FC
 10
2942.191
 20
211.0
 30
0
 40
71.000018281688
 50
90.0
 51
128.024606518121
210
0
220
0
230
1.0
 0
LINE
 8
TOOL_0
 5
FD
 10
2942.191
 20
282.0
 30
0
 11
2986.191
 21
282.0
 31
0
 0
ARC
 8
TOOL_0
 5
FE
 10
2986.191
 20
211.0
 30
0
 40
71.0
 50
51.975393481879
 51
90.0
210
0
220
0
230
1.0
 0
LINE
 8
TOOL_0
 5
FF
 10
3029.927
 20
266.93
 30
0
 11
3121.576
 21
189.191
 31
0
 0
ARC
 8
TOOL_0
 5
100
 10
3140.335
 20
211.307
 30
0
 40
29.000302360493
 50
229.695075710032
 51
263.998646675349
210
0
220
0
230
1.0
 0
LINE
 8
TOOL_0
 5
101
 10
3137.303
 20
182.466
 30
0
 11
3147.963
 21
181.346
 31
0
 0
ARC
 8
TOOL_0
 5
102
 10
3147.413
 20
176.349
 30
0
 40
5.027177040845
 50
0.273540533288
 51
83.718962982034
210
0
220
0
230
1.0
 0
LINE
 8
TOOL_0
 5
103
 10
3152.44
 20
176.373
 30
0
 11
3152.44
 21
86.507
 31
0
 0
ARC
 8
TOOL_0
 5
104
 10
3147.022
 20
86.592
 30
0
 40
5.41866671793
 50
337.898204194618
 51
359.101191997174
210
0
220
0
230
1.0
 0
LINE
 8
TOOL_0
 5
105
 10
3152.043
 20
84.553
 30
0
 11
3121.003
 21
11.428
 31
0
 0
LINE
 8
TOOL_0
 5
106
 10
3121.003
 20
11.428
 30
0
 11
3122.623
 21
8.901
 31
0
 0
LINE
 8
TOOL_0
 5
107
 10
3122.623
 20
8.901
 30
0
 11
3124.496
 21
4.265
 31
0
 0
LINE
 8
TOOL_0
 5
108
 10
3124.496
 20
4.265
 30
0
 11
3542.12
 21
18.266
 31
0
 0
LINE
 8
TOOL_0
 5
109
 10
3542.12
 20
18.266
 30
0
 11
3518.94
 21
8.901
 31
0
 0
LINE
 8
TOOL_0
 5
10A
 10
3518.94
 20
8.901
 30
0
 11
3515.941
 21
8.763
 31
0
 0
ARC
 8
TOOL_0
 5
10B
 10
3512.131
 20
12.001
 30
0
 40
5.000074399446
 50
270.0
 51
319.639828952663
210
0
220
0
230
1.0
 0
LINE
 8
TOOL_0
 5
10C
 10
3512.131
 20
7.001
 30
0
 11
3447.757
 21
7.001
 31
0
 0
ARC
 8
TOOL_0
 5
10D
 10
3447.809
 20
13.144
 30
0
 40
6.143220083962
 50
230.190846354153
 51
269.515007427091
210
0
220
0
230
1.0
 0
LINE
 8
TOOL_0
 5
10E
 10
3443.876
 20
8.425
 30
0
 11
3427.14
 21
22.62
 31
0
 0
ARC
 8
TOOL_0
 5
10F
 10
3382.507
 20
-30.0
 30
0
 40
68.999776006883
 50
49.694936895467
 51
90.0
210
0
220
0
230
1.0
 0
LINE
 8
TOOL_0
 5
110
 10
3382.507
 20
39.0
 30
0
 11
3338.507
 21
39.0
 31
0
 0
ARC
 8
TOOL_0
 5
111
 10
3338.507
 20
-30.0
 30
0
 40
69.0
 50
90.0
 51
130.305063104533
210
0
220
0
230
1.0
 0
LINE
 8
TOOL_0
 5
112
 10
3293.874
 20
22.62
 30
0
 11
3277.138
 21
8.424
 31
0
 0
ARC
 8
TOOL_0
 5
113
 10
3273.204
 20
13.143
 30
0
 40
6.143721754767
 50
270.494318894715
 51
309.81631763298
210
0
220
0
230
1.0
 0
LINE
 8
TOOL_0
 5
114
 10
3273.257
 20
7.0
 30
0
 11
3208.883
 21
7.0
 31
0
 0
ARC
 8
TOOL_0
 5
115
 10
3208.883
 20
12.0
 30
0
 40
5.0
 50
203.001502114303
 51
270.0
210
0
220
0
230
1.0
 0
LINE
 8
TOOL_0
 5
116
 10
3204.28
 20
10.046
 30
0
 11
3172.654
 21
84.552
 31
0
 0
ARC
 8
TOOL_0
 5
117
 10
3177.674
 20
86.591
 30
0
 40
5.418295027036
 50
180.898973899173
 51
202.105774497239
210
0
220
0
230
1.0
 0
LINE
 8
TOOL_0
 5
118
 10
3172.257
 20
86.506
 30
0
 11
3172.257
 21
176.372
 31
0
 0
ARC
 8
TOOL_0
 5
119
 10
3177.284
 20
176.348
 30
0
 40
5.027057290304
 50
96.281037017966
 51
179.726459466712
210
0
220
0
230
1.0
 0
LINE
 8
TOOL_0
 5
11A
 10
3176.734
 20
181.345
 30
0
 11
3187.393
 21
182.465
 31
0
 0
ARC
 8
TOOL_0
 5
11B
 10
3184.362
 20
211.306
 30
0
 40
28.999831758133
 50
275.999388424776
 51
310.303417565473
210
0
220
0
230
1.0
 0
LINE
 8
TOOL_0
 5
11C
 10
3203.12
 20
189.19
 30
0
 11
3294.77
 21
266.93
 31
0
 0
ARC
 8
TOOL_0
 5
11D
 10
3338.506
 20
211.0
 30
0
 40
71.000018281688
 50
90.0
 51
128.024606518121
210
0
220
0
230
1.0
 0
LINE
 8
TOOL_0
 5
11E
 10
3338.506
 20
282.0
 30
0
 11
3382.506
 21
282.0
 31
0
 0
ARC
 8
TOOL_0
 5
11F
 10
3382.506
 20
211.0
 30
0
 40
71.0
 50
51.975393481879
 51
90.0
210
0
220
0
230
1.0
 0
LINE
 8
TOOL_0
 5
120
 10
3426.242
 20
266.93
 30
0
 11
3517.891
 21
189.191
 31
0
 0
ARC
 8
TOOL_0
 5
121
 10
3536.65
 20
211.307
 30
0
 40
29.000302360493
 50
229.695075710032
 51
263.998646675349
210
0
220
0
230
1.0
 0
LINE
 8
TOOL_0
 5
122
 10
3533.618
 20
182.466
 30
0
 11
3544.278
 21
181.346
 31
0
 0
ARC
 8
TOOL_0
 5
123
 10
3543.728
 20
176.349
 30
0
 40
5.027177040845
 50
0.273540533288
 51
83.718962982034
210
0
220
0
230
1.0
 0
LINE
 8
TOOL_0
 5
124
 10
3548.755
 20
176.373
 30
0
 11
3548.755
 21
86.507
 31
0
 0
ARC
 8
TOOL_0
 5
125
 10
3543.337
 20
86.592
 30
0
 40
5.41866671793
 50
337.898204194618
 51
359.101191997174
210
0
220
0
230
1.0
 0
LINE
 8
TOOL_0
 5
126
 10
3548.358
 20
84.553
 30
0
 11
3517.318
 21
11.428
 31
0
 0
LINE
 8
TOOL_0
 5
127
 10
3517.318
 20
11.428
 30
0
 11
3518.938
 21
8.901
 31
0
 0
LINE
 8
TOOL_0
 5
128
 10
3518.938
 20
8.901
 30
0
 11
3520.811
 21
4.265
 31
0
 0
LINE
 8
TOOL_0
 5
129
 10
3520.811
 20
4.265
 30
0
 11
3937.203
 21
18.266
 31
0
 0
LINE
 8
TOOL_0
 5
12A
 10
3937.203
 20
18.266
 30
0
 11
3914.024
 21
8.901
 31
0
 0
LINE
 8
TOOL_0
 5
12B
 10
3914.024
 20
8.901
 30
0
 11
3911.025
 21
8.763
 31
0
 0
ARC
 8
TOOL_0
 5
12C
 10
3907.215
 20
12.001
 30
0
 40
5.000074399446
 50
270.0
 51
319.639828952663
210
0
220
0
230
1.0
 0
LINE
 8
TOOL_0
 5
12D
 10
3907.215
 20
7.001
 30
0
 11
3842.841
 21
7.001
 31
0
 0
ARC
 8
TOOL_0
 5
12E
 10
3842.893
 20
13.144
 30
0
 40
6.143220083962
 50
230.190846354153
 51
269.515007427091
210
0
220
0
230
1.0
 0
LINE
 8
TOOL_0
 5
12F
 10
3838.96
 20
8.425
 30
0
 11
3822.224
 21
22.62
 31
0
 0
ARC
 8
TOOL_0
 5
130
 10
3777.591
 20
-30.0
 30
0
 40
68.999776006883
 50
49.694936895467
 51
90.0
210
0
220
0
230
1.0
 0
LINE
 8
TOOL_0
 5
131
 10
3777.591
 20
39.0
 30
0
 11
3733.591
 21
39.0
 31
0
 0
ARC
 8
TOOL_0
 5
132
 10
3733.591
 20
-30.0
 30
0
 40
69.0
 50
90.0
 51
130.305063104533
210
0
220
0
230
1.0
 0
LINE
 8
TOOL_0
 5
133
 10
3688.958
 20
22.62
 30
0
 11
3672.222
 21
8.424
 31
0
 0
ARC
 8
TOOL_0
 5
134
 10
3668.288
 20
13.143
 30
0
 40
6.143721754767
 50
270.494318894715
 51
309.81631763298
210
0
220
0
230
1.0
 0
LINE
 8
TOOL_0
 5
135
 10
3668.341
 20
7.0
 30
0
 11
3603.967
 21
7.0
 31
0
 0
ARC
 8
TOOL_0
 5
136
 10
3603.967
 20
12.0
 30
0
 40
5.0
 50
203.001502114303
 51
270.0
210
0
220
0
230
1.0
 0
LINE
 8
TOOL_0
 5
137
 10
3599.364
 20
10.046
 30
0
 11
3567.738
 21
84.552
 31
0
 0
ARC
 8
TOOL_0
 5
138
 10
3572.758
 20
86.591
 30
0
 40
5.418295027036
 50
180.898973899173
 51
202.105774497239
210
0
220
0
230
1.0
 0
LINE
 8
TOOL_0
 5
139
 10
3567.341
 20
86.506
 30
0
 11
3567.341
 21
176.372
 31
0
 0
ARC
 8
TOOL_0
 5
13A
 10
3572.368
 20
176.348
 30
0
 40
5.027057290304
 50
96.281037017966
 51
179.726459466712
210
0
220
0
230
1.0
 0
LINE
 8
TOOL_0
 5
13B
 10
3571.818
 20
181.345
 30
0
 11
3582.477
 21
182.465
 31
0
 0
ARC
 8
TOOL_0
 5
13C
 10
3579.446
 20
211.306
 30
0
 40
28.999831758133
 50
275.999388424776
 51
310.303417565473
210
0
220
0
230
1.0
 0
LINE
 8
TOOL_0
 5
13D
 10
3598.204
 20
189.19
 30
0
 11
3689.854
 21
266.93
 31
0
 0
ARC
 8
TOOL_0
 5
13E
 10
3733.59
 20
211.0
 30
0
 40
71.000018281688
 50
90.0
 51
128.024606518121
210
0
220
0
230
1.0
 0
LINE
 8
TOOL_0
 5
13F
 10
3733.59
 20
282.0
 30
0
 11
3777.59
 21
282.0
 31
0
 0
ARC
 8
TOOL_0
 5
140
 10
3777.59
 20
211.0
 30
0
 40
71.0
 50
51.975393481879
 51
90.0
210
0
220
0
230
1.0
 0
LINE
 8
TOOL_0
 5
141
 10
3821.326
 20
266.93
 30
0
 11
3912.975
 21
189.191
 31
0
 0
ARC
 8
TOOL_0
 5
142
 10
3931.734
 20
211.307
 30
0
 40
29.000302360493
 50
229.695075710032
 51
263.998646675349
210
0
220
0
230
1.0
 0
LINE
 8
TOOL_0
 5
143
 10
3928.702
 20
182.466
 30
0
 11
3939.362
 21
181.346
 31
0
 0
ARC
 8
TOOL_0
 5
144
 10
3938.812
 20
176.349
 30
0
 40
5.027177040845
 50
0.273540533288
 51
83.718962982034
210
0
220
0
230
1.0
 0
LINE
 8
TOOL_0
 5
145
 10
3943.839
 20
176.373
 30
0
 11
3943.839
 21
86.507
 31
0
 0
ARC
 8
TOOL_0
 5
146
 10
3938.421
 20
86.592
 30
0
 40
5.41866671793
 50
337.898204194618
 51
359.101191997174
210
0
220
0
230
1.0
 0
LINE
 8
TOOL_0
 5
147
 10
3943.442
 20
84.553
 30
0
 11
3912.402
 21
11.428
 31
0
 0
LINE
 8
TOOL_0
 5
148
 10
3912.402
 20
11.428
 30
0
 11
3914.022
 21
8.901
 31
0
 0
LINE
 8
TOOL_0
 5
149
 10
3914.022
 20
8.901
 30
0
 11
3915.895
 21
4.265
 31
0
 0
LINE
 8
TOOL_0
 5
14A
 10
3915.895
 20
4.265
 30
0
 11
3915.895
 21
0
 31
0
 0
LINE
 8
TOOL_0
 5
14B
 10
3915.895
 20
0
 30
0
 11
376.842
 21
1369.52
 31
0
 0
LINE
 8
TOOL_0
 5
14C
 10
376.842
 20
1369.52
 30
0
 11
353.663
 21
1360.154
 31
0
 0
LINE
 8
TOOL_0
 5
14D
 10
353.663
 20
1360.154
 30
0
 11
350.664
 21
1360.016
 31
0
 0
ARC
 8
TOOL_0
 5
14E
 10
346.854
 20
1363.254
 30
0
 40
5.000074399447
 50
270.0
 51
319.639828952663
210
0
220
0
230
1.0
 0
LINE
 8
TOOL_0
 5
14F
 10
346.854
 20
1358.254
 30
0
 11
282.48
 21
1358.254
 31
0
 0
ARC
 8
TOOL_0
 5
150
 10
282.532
 20
1364.397
 30
0
 40
6.143220083963
 50
230.190846354153
 51
269.515007427092
210
0
220
0
230
1.0
 0
LINE
 8
TOOL_0
 5
151
 10
278.599
 20
1359.678
 30
0
 11
261.863
 21
1373.873
 31
0
 0
ARC
 8
TOOL_0
 5
152
 10
217.23
 20
1321.253
 30
0
 40
68.999776006883
 50
49.694936895467
 51
90.0
210
0
220
0
230
1.0
 0
LINE
 8
TOOL_0
 5
153
 10
217.23
 20
1390.253
 30
0
 11
173.23
 21
1390.253
 31
0
 0
ARC
 8
TOOL_0
 5
154
 10
173.23
 20
1321.253
 30
0
 40
69.0
 50
90.0
 51
130.305063104533
210
0
220
0
230
1.0
 0
LINE
 8
TOOL_0
 5
155
 10
128.597
 20
1373.873
 30
0
 11
111.861
 21
1359.677
 31
0
 0
ARC
 8
TOOL_0
 5
156
 10
107.927
 20
1364.396
 30
0
 40
6.143721754767
 50
270.494318894712
 51
309.816317632978
210
0
220
0
230
1.0
 0
LINE
 8
TOOL_0
 5
157
 10
107.98
 20
1358.253
 30
0
 11
43.606
 21
1358.253
 31
0
 0
ARC
 8
TOOL_0
 5
158
 10
43.606
 20
1363.253
 30
0
 40
5.0
 50
203.001502114303
 51
270.0
210
0
220
0
230
1.0
 0
LINE
 8
TOOL_0
 5
159
 10
39.003
 20
1361.299
 30
0
 11
7.377
 21
1435.805
 31
0
 0
ARC
 8
TOOL_0
 5
15A
 10
12.397
 20
1437.844
 30
0
 40
5.418295027036
 50
180.898973899173
 51
202.105774497239
210
0
220
0
230
1.0
 0
LINE
 8
TOOL_0
 5
15B
 10
6.98
 20
1437.759
 30
0
 11
6.98
 21
1527.625
 31
0
 0
ARC
 8
TOOL_0
 5
15C
 10
12.007
 20
1527.601
 30
0
 40
5.027057290304
 50
96.281037017964
 51
179.726459466713
210
0
220
0
230
1.0
 0
LINE
 8
TOOL_0
 5
15D
 10
11.457
 20
1532.598
 30
0
 11
22.116
 21
1533.718
 31
0
 0
ARC
 8
TOOL_0
 5
15E
 10
19.085
 20
1562.559
 30
0
 40
28.999831758133
 50
275.999388424777
 51
310.303417565473
210
0
220
0
230
1.0
 0
LINE
 8
TOOL_0
 5
15F
 10
37.843
 20
1540.443
 30
0
 11
129.493
 21
1618.183
 31
0
 0
ARC
 8
TOOL_0
 5
160
 10
173.229
 20
1562.253
 30
0
 40
71.000018281688
 50
90.0
 51
128.024606518121
210
0
220
0
230
1.0
 0
LINE
 8
TOOL_0
 5
161
 10
173.229
 20
1633.253
 30
0
 11
217.229
 21
1633.253
 31
0
 0
ARC
 8
TOOL_0
 5
162
 10
217.229
 20
1562.253
 30
0
 40
71.0
 50
51.975393481879
 51
90.0
210
0
220
0
230
1.0
 0
LINE
 8
TOOL_0
 5
163
 10
260.965
 20
1618.183
 30
0
 11
352.614
 21
1540.444
 31
0
 0
ARC
 8
TOOL_0
 5
164
 10
371.373
 20
1562.56
 30
0
 40
29.000302360493
 50
229.695075710032
 51
263.998646675349
210
0
220
0
230
1.0
 0
LINE
 8
TOOL_0
 5
165
 10
368.341
 20
1533.719
 30
0
 11
379.001
 21
1532.599
 31
0
 0
ARC
 8
TOOL_0
 5
166
 10
378.451
 20
1527.602
 30
0
 40
5.027177040845
 50
0.273540533289
 51
83.718962982036
210
0
220
0
230
1.0
 0
LINE
 8
TOOL_0
 5
167
 10
383.478
 20
1527.626
 30
0
 11
383.478
 21
1437.76
 31
0
 0
ARC
 8
TOOL_0
 5
168
 10
378.06
 20
1437.845
 30
0
 40
5.41866671793
 50
337.898204194617
 51
359.101191997174
210
0
220
0
230
1.0
 0
LINE
 8
TOOL_0
 5
169
 10
383.081
 20
1435.806
 30
0
 11
352.041
 21
1362.681
 31
0
 0
LINE
 8
TOOL_0
 5
16A
 10
352.041
 20
1362.681
 30
0
 11
353.661
 21
1360.154
 31
0
 0
LINE
 8
TOOL_0
 5
16B
 10
353.661
 20
1360.154
 30
0
 11
355.534
 21
1355.518
 31
0
 0
LINE
 8
TOOL_0
 5
16C
 10
355.534
 20
1355.518
 30
0
 11
775.465
 21
1369.519
 31
0
 0
LINE
 8
TOOL_0
 5
16D
 10
775.465
 20
1369.519
 30
0
 11
752.285
 21
1360.153
 31
0
 0
LINE
 8
TOOL_0
 5
16E
 10
752.285
 20
1360.153
 30
0
 11
749.286
 21
1360.015
 31
0
 0
ARC
 8
TOOL_0
 5
16F
 10
745.476
 20
1363.253
 30
0
 40
5.000074399446
 50
270.0
 51
319.639828952663
210
0
220
0
230
1.0
 0
LINE
 8
TOOL_0
 5
170
 10
745.476
 20
1358.253
 30
0
 11
681.102
 21
1358.253
 31
0
 0
ARC
 8
TOOL_0
 5
171
 10
681.154
 20
1364.396
 30
0
 40
6.143220083963
 50
230.190846354153
 51
269.515007427092
210
0
220
0
230
1.0
 0
LINE
 8
TOOL_0
 5
172
 10
677.221
 20
1359.677
 30
0
 11
660.485
 21
1373.872
 31
0
 0
ARC
 8
TOOL_0
 5
173
 10
615.852
 20
1321.252
 30
0
 40
68.999776006883
 50
49.694936895467
 51
90.0
210
0
220
0
230
1.0
 0
LINE
 8
TOOL_0
 5
174
 10
615.852
 20
1390.252
 30
0
 11
571.852
 21
1390.252
 31
0
 0
ARC
 8
TOOL_0
 5
175
 10
571.852
 20
1321.252
 30
0
 40
69.0
 50
90.0
 51
130.305063104533
210
0
220
0
230
1.0
 0
LINE
 8
TOOL_0
 5
176
 10
527.219
 20
1373.872
 30
0
 11
510.483
 21
1359.676
 31
0
 0
ARC
 8
TOOL_0
 5
177
 10
506.549
 20
1364.395
 30
0
 40
6.143721754767
 50
270.494318894712
 51
309.816317632978
210
0
220
0
230
1.0
 0
LINE
 8
TOOL_0
 5
178
 10
506.602
 20
1358.252
 30
0
 11
442.228
 21
1358.252
 31
0
 0
ARC
 8
TOOL_0
 5
179
 10
442.228
 20
1363.252
 30
0
 40
5.0
 50
203.001502114303
 51
270.0
210
0
220
0
230
1.0
 0
LINE
 8
TOOL_0
 5
17A
 10
437.625
 20
1361.298
 30
0
 11
405.999
 21
1435.804
 31
0
 0
ARC
 8
TOOL_0
 5
17B
 10
411.019
 20
1437.843
 30
0
 40
5.418295027036
 50
180.898973899173
 51
202.105774497239
210
0
220
0
230
1.0
 0
LINE
 8
TOOL_0
 5
17C
 10
405.602
 20
1437.758
 30
0
 11
405.602
 21
1527.624
 31
0
 0
ARC
 8
TOOL_0
 5
17D
 10
410.629
 20
1527.6
 30
0
 40
5.027057290304
 50
96.281037017964
 51
179.726459466713
210
0
220
0
230
1.0
 0
LINE
 8
TOOL_0
 5
17E
 10
410.079
 20
1532.597
 30
0
 11
420.738
 21
1533.717
 31
0
 0
ARC
 8
TOOL_0
 5
17F
 10
417.707
 20
1562.558
 30
0
 40
28.999831758133
 50
275.999388424777
 51
310.303417565473
210
0
220
0
230
1.0
 0
LINE
 8
TOOL_0
 5
180
 10
436.465
 20
1540.442
 30
0
 11
528.115
 21
1618.182
 31
0
 0
ARC
 8
TOOL_0
 5
181
 10
571.851
 20
1562.252
 30
0
 40
71.000018281688
 50
90.0
 51
128.024606518121
210
0
220
0
230
1.0
 0
LINE
 8
TOOL_0
 5
182
 10
571.851
 20
1633.252
 30
0
 11
615.851
 21
1633.252
 31
0
 0
ARC
 8
TOOL_0
 5
183
 10
615.851
 20
1562.252
 30
0
 40
71.0
 50
51.975393481879
 51
90.0
210
0
220
0
230
1.0
 0
LINE
 8
TOOL_0
 5
184
 10
659.587
 20
1618.182
 30
0
 11
751.236
 21
1540.443
 31
0
 0
ARC
 8
TOOL_0
 5
185
 10
769.995
 20
1562.559
 30
0
 40
29.000302360493
 50
229.695075710032
 51
263.998646675349
210
0
220
0
230
1.0
 0
LINE
 8
TOOL_0
 5
186
 10
766.963
 20
1533.718
 30
0
 11
777.623
 21
1532.598
 31
0
 0
ARC
 8
TOOL_0
 5
187
 10
777.073
 20
1527.601
 30
0
 40
5.027177040845
 50
0.273540533289
 51
83.718962982037
210
0
220
0
230
1.0
 0
LINE
 8
TOOL_0
 5
188
 10
782.1
 20
1527.625
 30
0
 11
782.1
 21
1437.759
 31
0
 0
ARC
 8
TOOL_0
 5
189
 10
776.682
 20
1437.844
 30
0
 40
5.41866671793
 50
337.898204194617
 51
359.101191997174
210
0
220
0
230
1.0
 0
LINE
 8
TOOL_0
 5
18A
 10
781.703
 20
1435.805
 30
0
 11
750.663
 21
1362.68
 31
0
 0
LINE
 8
TOOL_0
 5
18B
 10
750.663
 20
1362.68
 30
0
 11
752.283
 21
1360.153
 31
0
 0
LINE
 8
TOOL_0
 5
18C
 10
752.283
 20
1360.153
 30
0
 11
754.156
 21
1355.517
 31
0
 0
LINE
 8
TOOL_0
 5
18D
 10
754.156
 20
1355.517
 30
0
 11
1170.939
 21
1369.518
 31
0
 0
LINE
 8
TOOL_0
 5
18E
 10
1170.939
 20
1369.518
 30
0
 11
1147.759
 21
1360.152
 31
0
 0
LINE
 8
TOOL_0
 5
18F
 10
1147.759
 20
1360.152
 30
0
 11
1144.76
 21
1360.014
 31
0
 0
ARC
 8
TOOL_0
 5
190
 10
1140.95
 20
1363.252
 30
0
 40
5.000074399446
 50
270.0
 51
319.639828952663
210
0
220
0
230
1.0
 0
LINE
 8
TOOL_0
 5
191
 10
1140.95
 20
1358.252
 30
0
 11
1076.576
 21
1358.252
 31
0
 0
ARC
 8
TOOL_0
 5
192
 10
1076.628
 20
1364.395
 30
0
 40
6.143220083963
 50
230.190846354153
 51
269.515007427093
210
0
220
0
230
1.0
 0
LINE
 8
TOOL_0
 5
193
 10
1072.695
 20
1359.676
 30
0
 11
1055.959
 21
1373.871
 31
0
 0
ARC
 8
TOOL_0
 5
194
 10
1011.326
 20
1321.251
 30
0
 40
68.999776006883
 50
49.694936895467
 51
90.0
210
0
220
0
230
1.0
 0
LINE
 8
TOOL_0
 5
195
 10
1011.326
 20
1390.251
 30
0
 11
967.326
 21
1390.251
 31
0
 0
ARC
 8
TOOL_0
 5
196
 10
967.326
 20
1321.251
 30
0
 40
69.0
 50
90.0
 51
130.305063104533
210
0
220
0
230
1.0
 0
LINE
 8
TOOL_0
 5
197
 10
922.693
 20
1373.871
 30
0
 11
905.957
 21
1359.675
 31
0
 0
ARC
 8
TOOL_0
 5
198
 10
902.023
 20
1364.394
 30
0
 40
6.143721754767
 50
270.494318894712
 51
309.816317632978
210
0
220
0
230
1.0
 0
LINE
 8
TOOL_0
 5
199
 10
902.076
 20
1358.251
 30
0
 11
837.702
 21
1358.251
 31
0
 0
ARC
 8
TOOL_0
 5
19A
 10
837.702
 20
1363.251
 30
0
 40
5.0
 50
203.001502114303
 51
270.0
210
0
220
0
230
1.0
 0
LINE
 8
TOOL_0
 5
19B
 10
833.099
 20
1361.297
 30
0
 11
801.473
 21
1435.803
 31
0
 0
ARC
 8
TOOL_0
 5
19C
 10
806.493
 20
1437.842
 30
0
 40
5.418295027036
 50
180.898973899173
 51
202.105774497239
210
0
220
0
230
1.0
 0
LINE
 8
TOOL_0
 5
19D
 10
801.076
 20
1437.757
 30
0
 11
801.076
 21
1527.623
 31
0
 0
ARC
 8
TOOL_0
 5
19E
 10
806.103
 20
1527.599
 30
0
 40
5.027057290304
 50
96.281037017965
 51
179.726459466713
210
0
220
0
230
1.0
 0
LINE
 8
TOOL_0
 5
19F
 10
805.553
 20
1532.596
 30
0
 11
816.212
 21
1533.716
 31
0
 0
ARC
 8
TOOL_0
 5
1A0
 10
813.181
 20
1562.557
 30
0
 40
28.999831758133
 50
275.999388424776
 51
310.303417565473
210
0
220
0
230
1.0
 0
LINE
 8
TOOL_0
 5
1A1
 10
831.939
 20
1540.441
 30
0
 11
923.589
 21
1618.181
 31
0
 0
ARC
 8
TOOL_0
 5
1A2
 10
967.325
 20
1562.251
 30
0
 40
71.000018281688
 50
90.0
 51
128.024606518121
210
0
220
0
230
1.0
 0
LINE
 8
TOOL_0
 5
1A3
 10
967.325
 20
1633.251
 30
0
 11
1011.325
 21
1633.251
 31
0
 0
ARC
 8
TOOL_0
 5
1A4
 10
1011.325
 20
1562.251
 30
0
 40
71.0
 50
51.975393481879
 51
90.0
210
0
220
0
230
1.0
 0
LINE
 8
TOOL_0
 5
1A5
 10
1055.061
 20
1618.181
 30
0
 11
1146.71
 21
1540.442
 31
0
 0
ARC
 8
TOOL_0
 5
1A6
 10
1165.469
 20
1562.558
 30
0
 40
29.000302360493
 50
229.695075710032
 51
263.998646675349
210
0
220
0
230
1.0
 0
LINE
 8
TOOL_0
 5
1A7
 10
1162.437
 20
1533.717
 30
0
 11
1173.097
 21
1532.597
 31
0
 0
ARC
 8
TOOL_0
 5
1A8
 10
1172.547
 20
1527.6
 30
0
 40
5.027177040845
 50
0.273540533289
 51
83.718962982037
210
0
220
0
230
1.0
 0
LINE
 8
TOOL_0
 5
1A9
 10
1177.574
 20
1527.624
 30
0
 11
1177.574
 21
1437.758
 31
0
 0
ARC
 8
TOOL_0
 5
1AA
 10
1172.156
 20
1437.843
 30
0
 40
5.41866671793
 50
337.898204194617
 51
359.101191997174
210
0
220
0
230
1.0
 0
LINE
 8
TOOL_0
 5
1AB
 10
1177.177
 20
1435.804
 30
0
 11
1146.137
 21
1362.679
 31
0
 0
LINE
 8
TOOL_0
 5
1AC
 10
1146.137
 20
1362.679
 30
0
 11
1147.757
 21
1360.152
 31
0
 0
LINE
 8
TOOL_0
 5
1AD
 10
1147.757
 20
1360.152
 30
0
 11
1149.63
 21
1355.516
 31
0
 0
LINE
 8
TOOL_0
 5
1AE
 10
1149.63
 20
1355.516
 30
0
 11
1566.413
 21
1366.14
 31
0
 0
LINE
 8
TOOL_0
 5
1AF
 10
1566.413
 20
1366.14
 30
0
 11
1543.233
 21
1356.775
 31
0
 0
LINE
 8
TOOL_0
 5
1B0
 10
1543.233
 20
1356.775
 30
0
 11
1540.234
 21
1356.637
 31
0
 0
ARC
 8
TOOL_0
 5
1B1
 10
1536.424
 20
1359.875
 30
0
 40
5.000074399446
 50
270.0
 51
319.639828952663
210
0
220
0
230
1.0
 0
LINE
 8
TOOL_0
 5
1B2
 10
1536.424
 20
1354.875
 30
0
 11
1472.05
 21
1354.875
 31
0
 0
ARC
 8
TOOL_0
 5
1B3
 10
1472.102
 20
1361.018
 30
0
 40
6.143220083963
 50
230.190846354153
 51
269.515007427093
210
0
220
0
230
1.0
 0
LINE
 8
TOOL_0
 5
1B4
 10
1468.169
 20
1356.299
 30
0
 11
1451.433
 21
1370.494
 31
0
 0
ARC
 8
TOOL_0
 5
1B5
 10
1406.8
 20
1317.874
 30
0
 40
68.999776006883
 50
49.694936895467
 51
90.0
210
0
220
0
230
1.0
 0
LINE
 8
TOOL_0
 5
1B6
 10
1406.8
 20
1386.874
 30
0
 11
1362.8
 21
1386.874
 31
0
 0
ARC
 8
TOOL_0
 5
1B7
 10
1362.8
 20
1317.874
 30
0
 40
69.0
 50
90.0
 51
130.305063104533
210
0
220
0
230
1.0
 0
LINE
 8
TOOL_0
 5
1B8
 10
1318.167
 20
1370.494
 30
0
 11
1301.431
 21
1356.298
 31
0
 0
ARC
 8
TOOL_0
 5
1B9
 10
1297.497
 20
1361.017
 30
0
 40
6.143721754767
 50
270.494318894711
 51
309.816317632978
210
0
220
0
230
1.0
 0
LINE
 8
TOOL_0
 5
1BA
 10
1297.55
 20
1354.874
 30
0
 11
1233.176
 21
1354.874
 31
0
 0
ARC
 8
TOOL_0
 5
1BB
 10
1233.176
 20
1359.874
 30
0
 40
5.0
 50
203.001502114302
 51
270.0
210
0
220
0
230
1.0
 0
LINE
 8
TOOL_0
 5
1BC
 10
1228.573
 20
1357.92
 30
0
 11
1196.947
 21
1432.426
 31
0
 0
ARC
 8
TOOL_0
 5
1BD
 10
1201.967
 20
1434.465
 30
0
 40
5.418295027036
 50
180.898973899173
 51
202.105774497239
210
0
220
0
230
1.0
 0
LINE
 8
TOOL_0
 5
1BE
 10
1196.55
 20
1434.38
 30
0
 11
1196.55
 21
1524.246
 31
0
 0
ARC
 8
TOOL_0
 5
1BF
 10
1201.577
 20
1524.222
 30
0
 40
5.027057290304
 50
96.281037017963
 51
179.726459466713
210
0
220
0
230
1.0
 0
LINE
 8
TOOL_0
 5
1C0
 10
1201.027
 20
1529.219
 30
0
 11
1211.686
 21
1530.339
 31
0
 0
ARC
 8
TOOL_0
 5
1C1
 10
1208.655
 20
1559.18
 30
0
 40
28.999831758133
 50
275.999388424776
 51
310.303417565473
210
0
220
0
230
1.0
 0
LINE
 8
TOOL_0
 5
1C2
 10
1227.413
 20
1537.064
 30
0
 11
1319.063
 21
1614.804
 31
0
 0
ARC
 8
TOOL_0
 5
1C3
 10
1362.799
 20
1558.874
 30
0
 40
71.000018281688
 50
90.0
 51
128.024606518121
210
0
220
0
230
1.0
 0
LINE
 8
TOOL_0
 5
1C4
 10
1362.799
 20
1629.874
 30
0
 11
1406.799
 21
1629.874
 31
0
 0
ARC
 8
TOOL_0
 5
1C5
 10
1406.799
 20
1558.874
 30
0
 40
71.0
 50
51.975393481879
 51
90.0
210
0
220
0
230
1.0
 0
LINE
 8
TOOL_0
 5
1C6
 10
1450.535
 20
1614.804
 30
0
 11
1542.184
 21
1537.065
 31
0
 0
ARC
 8
TOOL_0
 5
1C7
 10
1560.943
 20
1559.181
 30
0
 40
29.000302360493
 50
229.695075710032
 51
263.998646675349
210
0
220
0
230
1.0
 0
LINE
 8
TOOL_0
 5
1C8
 10
1557.911
 20
1530.34
 30
0
 11
1568.571
 21
1529.22
 31
0
 0
ARC
 8
TOOL_0
 5
1C9
 10
1568.021
 20
1524.223
 30
0
 40
5.027177040845
 50
0.273540533289
 51
83.718962982037
210
0
220
0
230
1.0
 0
LINE
 8
TOOL_0
 5
1CA
 10
1573.048
 20
1524.247
 30
0
 11
1573.048
 21
1434.381
 31
0
 0
ARC
 8
TOOL_0
 5
1CB
 10
1567.63
 20
1434.466
 30
0
 40
5.41866671793
 50
337.898204194617
 51
359.101191997174
210
0
220
0
230
1.0
 0
LINE
 8
TOOL_0
 5
1CC
 10
1572.651
 20
1432.427
 30
0
 11
1541.611
 21
1359.302
 31
0
 0
LINE
 8
TOOL_0
 5
1CD
 10
1541.611
 20
1359.302
 30
0
 11
1543.231
 21
1356.775
 31
0
 0
LINE
 8
TOOL_0
 5
1CE
 10
1543.231
 20
1356.775
 30
0
 11
1545.104
 21
1352.139
 31
0
 0
LINE
 8
TOOL_0
 5
1CF
 10
1545.104
 20
1352.139
 30
0
 11
1961.045
 21
1368.673
 31
0
 0
LINE
 8
TOOL_0
 5
1D0
 10
1961.045
 20
1368.673
 30
0
 11
1937.866
 21
1359.307
 31
0
 0
LINE
 8
TOOL_0
 5
1D1
 10
1937.866
 20
1359.307
 30
0
 11
1934.867
 21
1359.169
 31
0
 0
ARC
 8
TOOL_0
 5
1D2
 10
1931.057
 20
1362.407
 30
0
 40
5.000074399446
 50
270.0
 51
319.639828952663
210
0
220
0
230
1.0
 0
LINE
 8
TOOL_0
 5
1D3
 10
1931.057
 20
1357.407
 30
0
 11
1866.683
 21
1357.407
 31
0
 0
ARC
 8
TOOL_0
 5
1D4
 10
1866.735
 20
1363.55
 30
0
 40
6.143220083963
 50
230.190846354153
 51
269.515007427093
210
0
220
0
230
1.0
 0
LINE
 8
TOOL_0
 5
1D5
 10
1862.802
 20
1358.831
 30
0
 11
1846.066
 21
1373.026
 31
0
 0
ARC
 8
TOOL_0
 5
1D6
 10
1801.433
 20
1320.406
 30
0
 40
68.999776006883
 50
49.694936895467
 51
90.0
210
0
220
0
230
1.0
 0
LINE
 8
TOOL_0
 5
1D7
 10
1801.433
 20
1389.406
 30
0
 11
1757.433
 21
1389.406
 31
0
 0
ARC
 8
TOOL_0
 5
1D8
 10
1757.433
 20
1320.406
 30
0
 40
69.0
 50
90.0
 51
130.305063104533
210
0
220
0
230
1.0
 0
LINE
 8
TOOL_0
 5
1D9
 10
1712.8
 20
1373.026
 30
0
 11
1696.064
 21
1358.83
 31
0
 0
ARC
 8
TOOL_0
 5
1DA
 10
1692.13
 20
1363.549
 30
0
 40
6.143721754767
 50
270.494318894711
 51
309.816317632978
210
0
220
0
230
1.0
 0
LINE
 8
TOOL_0
 5
1DB
 10
1692.183
 20
1357.406
 30
0
 11
1627.809
 21
1357.406
 31
0
 0
ARC
 8
TOOL_0
 5
1DC
 10
1627.809
 20
1362.406
 30
0
 40
5.0
 50
203.001502114302
 51
270.0
210
0
220
0
230
1.0
 0
LINE
 8
TOOL_0
 5
1DD
 10
1623.206
 20
1360.452
 30
0
 11
1591.58
 21
1434.958
 31
0
 0
ARC
 8
TOOL_0
 5
1DE
 10
1596.6
 20
1436.997
 30
0
 40
5.418295027036
 50
180.898973899173
 51
202.105774497239
210
0
220
0
230
1.0
 0
LINE
 8
TOOL_0
 5
1DF
 10
1591.183
 20
1436.912
 30
0
 11
1591.183
 21
1526.778
 31
0
 0
ARC
 8
TOOL_0
 5
1E0
 10
1596.21
 20
1526.754
 30
0
 40
5.027057290304
 50
96.281037017963
 51
179.726459466713
210
0
220
0
230
1.0
 0
LINE
 8
TOOL_0
 5
1E1
 10
1595.66
 20
1531.751
 30
0
 11
1606.319
 21
1532.871
 31
0
 0
ARC
 8
TOOL_0
 5
1E2
 10
1603.288
 20
1561.712
 30
0
 40
28.999831758133
 50
275.999388424776
 51
310.303417565473
210
0
220
0
230
1.0
 0
LINE
 8
TOOL_0
 5
1E3
 10
1622.046
 20
1539.596
 30
0
 11
1713.696
 21
1617.336
 31
0
 0
ARC
 8
TOOL_0
 5
1E4
 10
1757.432
 20
1561.406
 30
0
 40
71.000018281688
 50
90.0
 51
128.024606518121
210
0
220
0
230
1.0
 0
LINE
 8
TOOL_0
 5
1E5
 10
1757.432
 20
1632.406
 30
0
 11
1801.432
 21
1632.406
 31
0
 0
ARC
 8
TOOL_0
 5
1E6
 10
1801.432
 20
1561.406
 30
0
 40
71.0
 50
51.975393481879
 51
90.0
210
0
220
0
230
1.0
 0
LINE
 8
TOOL_0
 5
1E7
 10
1845.168
 20
1617.336
 30
0
 11
1936.817
 21
1539.597
 31
0
 0
ARC
 8
TOOL_0
 5
1E8
 10
1955.576
 20
1561.713
 30
0
 40
29.000302360493
 50
229.695075710032
 51
263.998646675349
210
0
220
0
230
1.0
 0
LINE
 8
TOOL_0
 5
1E9
 10
1952.544
 20
1532.872
 30
0
 11
1963.204
 21
1531.752
 31
0
 0
ARC
 8
TOOL_0
 5
1EA
 10
1962.654
 20
1526.755
 30
0
 40
5.027177040845
 50
0.273540533289
 51
83.718962982037
210
0
220
0
230
1.0
 0
LINE
 8
TOOL_0
 5
1EB
 10
1967.681
 20
1526.779
 30
0
 11
1967.681
 21
1436.913
 31
0
 0
ARC
 8
TOOL_0
 5
1EC
 10
1962.263
 20
1436.998
 30
0
 40
5.41866671793
 50
337.898204194617
 51
359.101191997174
210
0
220
0
230
1.0
 0
LINE
 8
TOOL_0
 5
1ED
 10
1967.284
 20
1434.959
 30
0
 11
1936.244
 21
1361.834
 31
0
 0
LINE
 8
TOOL_0
 5
1EE
 10
1936.244
 20
1361.834
 30
0
 11
1937.864
 21
1359.307
 31
0
 0
LINE
 8
TOOL_0
 5
1EF
 10
1937.864
 20
1359.307
 30
0
 11
1939.737
 21
1354.671
 31
0
 0
LINE
 8
TOOL_0
 5
1F0
 10
1939.737
 20
1354.671
 30
0
 11
2753.678
 21
1370.36
 31
0
 0
LINE
 8
TOOL_0
 5
1F1
 10
2753.678
 20
1370.36
 30
0
 11
2730.499
 21
1360.995
 31
0
 0
LINE
 8
TOOL_0
 5
1F2
 10
2730.499
 20
1360.995
 30
0
 11
2727.5
 21
1360.857
 31
0
 0
ARC
 8
TOOL_0
 5
1F3
 10
2723.69
 20
1364.095
 30
0
 40
5.000074399446
 50
270.0
 51
319.639828952663
210
0
220
0
230
1.0
 0
LINE
 8
TOOL_0
 5
1F4
 10
2723.69
 20
1359.095
 30
0
 11
2659.316
 21
1359.095
 31
0
 0
ARC
 8
TOOL_0
 5
1F5
 10
2659.368
 20
1365.238
 30
0
 40
6.143220083963
 50
230.190846354153
 51
269.515007427091
210
0
220
0
230
1.0
 0
LINE
 8
TOOL_0
 5
1F6
 10
2655.435
 20
1360.519
 30
0
 11
2638.699
 21
1374.714
 31
0
 0
ARC
 8
TOOL_0
 5
1F7
 10
2594.066
 20
1322.094
 30
0
 40
68.999776006883
 50
49.694936895467
 51
90.0
210
0
220
0
230
1.0
 0
LINE
 8
TOOL_0
 5
1F8
 10
2594.066
 20
1391.094
 30
0
 11
2550.066
 21
1391.094
 31
0
 0
ARC
 8
TOOL_0
 5
1F9
 10
2550.066
 20
1322.094
 30
0
 40
69.0
 50
90.0
 51
130.305063104533
210
0
220
0
230
1.0
 0
LINE
 8
TOOL_0
 5
1FA
 10
2505.433
 20
1374.714
 30
0
 11
2488.697
 21
1360.518
 31
0
 0
ARC
 8
TOOL_0
 5
1FB
 10
2484.763
 20
1365.237
 30
0
 40
6.143721754767
 50
270.494318894715
 51
309.816317632979
210
0
220
0
230
1.0
 0
LINE
 8
TOOL_0
 5
1FC
 10
2484.816
 20
1359.094
 30
0
 11
2420.442
 21
1359.094
 31
0
 0
ARC
 8
TOOL_0
 5
1FD
 10
2420.442
 20
1364.094
 30
0
 40
5.0
 50
203.001502114302
 51
270.0
210
0
220
0
230
1.0
 0
LINE
 8
TOOL_0
 5
1FE
 10
2415.839
 20
1362.14
 30
0
 11
2384.213
 21
1436.646
 31
0
 0
ARC
 8
TOOL_0
 5
1FF
 10
2389.233
 20
1438.685
 30
0
 40
5.418295027036
 50
180.898973899173
 51
202.105774497239
210
0
220
0
230
1.0
 0
LINE
 8
TOOL_0
 5
200
 10
2383.816
 20
1438.6
 30
0
 11
2383.816
 21
1528.466
 31
0
 0
ARC
 8
TOOL_0
 5
201
 10
2388.843
 20
1528.442
 30
0
 40
5.027057290304
 50
96.281037017966
 51
179.726459466713
210
0
220
0
230
1.0
 0
LINE
 8
TOOL_0
 5
202
 10
2388.293
 20
1533.439
 30
0
 11
2398.952
 21
1534.559
 31
0
 0
ARC
 8
TOOL_0
 5
203
 10
2395.921
 20
1563.4
 30
0
 40
28.999831758133
 50
275.999388424776
 51
310.303417565473
210
0
220
0
230
1.0
 0
LINE
 8
TOOL_0
 5
204
 10
2414.679
 20
1541.284
 30
0
 11
2506.329
 21
1619.024
 31
0
 0
ARC
 8
TOOL_0
 5
205
 10
2550.065
 20
1563.094
 30
0
 40
71.000018281688
 50
90.0
 51
128.024606518121
210
0
220
0
230
1.0
 0
LINE
 8
TOOL_0
 5
206
 10
2550.065
 20
1634.094
 30
0
 11
2594.065
 21
1634.094
 31
0
 0
ARC
 8
TOOL_0
 5
207
 10
2594.065
 20
1563.094
 30
0
 40
71.0
 50
51.975393481879
 51
90.0
210
0
220
0
230
1.0
 0
LINE
 8
TOOL_0
 5
208
 10
2637.801
 20
1619.024
 30
0
 11
2729.45
 21
1541.285
 31
0
 0
ARC
 8
TOOL_0
 5
209
 10
2748.209
 20
1563.401
 30
0
 40
29.000302360493
 50
229.695075710032
 51
263.998646675349
210
0
220
0
230
1.0
 0
LINE
 8
TOOL_0
 5
20A
 10
2745.177
 20
1534.56
 30
0
 11
2755.837
 21
1533.44
 31
0
 0
ARC
 8
TOOL_0
 5
20B
 10
2755.287
 20
1528.443
 30
0
 40
5.027177040845
 50
0.273540533289
 51
83.718962982034
210
0
220
0
230
1.0
 0
LINE
 8
TOOL_0
 5
20C
 10
2760.314
 20
1528.467
 30
0
 11
2760.314
 21
1438.601
 31
0
 0
ARC
 8
TOOL_0
 5
20D
 10
2754.896
 20
1438.686
 30
0
 40
5.41866671793
 50
337.898204194618
 51
359.101191997174
210
0
220
0
230
1.0
 0
LINE
 8
TOOL_0
 5
20E
 10
2759.917
 20
1436.647
 30
0
 11
2728.877
 21
1363.522
 31
0
 0
LINE
 8
TOOL_0
 5
20F
 10
2728.877
 20
1363.522
 30
0
 11
2730.497
 21
1360.995
 31
0
 0
LINE
 8
TOOL_0
 5
210
 10
2730.497
 20
1360.995
 30
0
 11
2732.37
 21
1356.359
 31
0
 0
LINE
 8
TOOL_0
 5
211
 10
2732.37
 20
1356.359
 30
0
 11
2359.042
 21
1370.433
 31
0
 0
LINE
 8
TOOL_0
 5
212
 10
2359.042
 20
1370.433
 30
0
 11
2335.862
 21
1361.068
 31
0
 0
LINE
 8
TOOL_0
 5
213
 10
2335.862
 20
1361.068
 30
0
 11
2332.863
 21
1360.93
 31
0
 0
ARC
 8
TOOL_0
 5
214
 10
2329.053
 20
1364.168
 30
0
 40
5.000074399446
 50
270.0
 51
319.639828952663
210
0
220
0
230
1.0
 0
LINE
 8
TOOL_0
 5
215
 10
2329.053
 20
1359.168
 30
0
 11
2264.679
 21
1359.168
 31
0
 0
ARC
 8
TOOL_0
 5
216
 10
2264.731
 20
1365.311
 30
0
 40
6.143220083963
 50
230.190846354153
 51
269.515007427091
210
0
220
0
230
1.0
 0
LINE
 8
TOOL_0
 5
217
 10
2260.798
 20
1360.592
 30
0
 11
2244.062
 21
1374.787
 31
0
 0
ARC
 8
TOOL_0
 5
218
 10
2199.429
 20
1322.167
 30
0
 40
68.999776006883
 50
49.694936895467
 51
90.0
210
0
220
0
230
1.0
 0
LINE
 8
TOOL_0
 5
219
 10
2199.429
 20
1391.167
 30
0
 11
2155.429
 21
1391.167
 31
0
 0
ARC
 8
TOOL_0
 5
21A
 10
2155.429
 20
1322.167
 30
0
 40
69.0
 50
90.0
 51
130.305063104533
210
0
220
0
230
1.0
 0
LINE
 8
TOOL_0
 5
21B
 10
2110.796
 20
1374.787
 30
0
 11
2094.06
 21
1360.591
 31
0
 0
ARC
 8
TOOL_0
 5
21C
 10
2090.126
 20
1365.31
 30
0
 40
6.143721754767
 50
270.494318894715
 51
309.816317632979
210
0
220
0
230
1.0
 0
LINE
 8
TOOL_0
 5
21D
 10
2090.179
 20
1359.167
 30
0
 11
2025.805
 21
1359.167
 31
0
 0
ARC
 8
TOOL_0
 5
21E
 10
2025.805
 20
1364.167
 30
0
 40
5.0
 50
203.001502114302
 51
270.0
210
0
220
0
230
1.0
 0
LINE
 8
TOOL_0
 5
21F
 10
2021.202
 20
1362.213
 30
0
 11
1989.576
 21
1436.719
 31
0
 0
ARC
 8
TOOL_0
 5
220
 10
1994.596
 20
1438.758
 30
0
 40
5.418295027036
 50
180.898973899173
 51
202.105774497239
210
0
220
0
230
1.0
 0
LINE
 8
TOOL_0
 5
221
 10
1989.179
 20
1438.673
 30
0
 11
1989.179
 21
1528.539
 31
0
 0
ARC
 8
TOOL_0
 5
222
 10
1994.206
 20
1528.515
 30
0
 40
5.027057290304
 50
96.281037017963
 51
179.726459466713
210
0
220
0
230
1.0
 0
LINE
 8
TOOL_0
 5
223
 10
1993.656
 20
1533.512
 30
0
 11
2004.315
 21
1534.632
 31
0
 0
ARC
 8
TOOL_0
 5
224
 10
2001.284
 20
1563.473
 30
0
 40
28.999831758133
 50
275.999388424776
 51
310.303417565473
210
0
220
0
230
1.0
 0
LINE
 8
TOOL_0
 5
225
 10
2020.042
 20
1541.357
 30
0
 11
2111.692
 21
1619.097
 31
0
 0
ARC
 8
TOOL_0
 5
226
 10
2155.428
 20
1563.167
 30
0
 40
71.000018281688
 50
90.0
 51
128.024606518121
210
0
220
0
230
1.0
 0
LINE
 8
TOOL_0
 5
227
 10
2155.428
 20
1634.167
 30
0
 11
2199.428
 21
1634.167
 31
0
 0
ARC
 8
TOOL_0
 5
228
 10
2199.428
 20
1563.167
 30
0
 40
71.0
 50
51.975393481879
 51
90.0
210
0
220
0
230
1.0
 0
LINE
 8
TOOL_0
 5
229
 10
2243.164
 20
1619.097
 30
0
 11
2334.813
 21
1541.358
 31
0
 0
ARC
 8
TOOL_0
 5
22A
 10
2353.572
 20
1563.474
 30
0
 40
29.000302360493
 50
229.695075710032
 51
263.998646675349
210
0
220
0
230
1.0
 0
LINE
 8
TOOL_0
 5
22B
 10
2350.54
 20
1534.633
 30
0
 11
2361.2
 21
1533.513
 31
0
 0
ARC
 8
TOOL_0
 5
22C
 10
2360.65
 20
1528.516
 30
0
 40
5.027177040845
 50
0.273540533289
 51
83.718962982034
210
0
220
0
230
1.0
 0
LINE
 8
TOOL_0
 5
22D
 10
2365.677
 20
1528.54
 30
0
 11
2365.677
 21
1438.674
 31
0
 0
ARC
 8
TOOL_0
 5
22E
 10
2360.259
 20
1438.759
 30
0
 40
5.41866671793
 50
337.898204194618
 51
359.101191997174
210
0
220
0
230
1.0
 0
LINE
 8
TOOL_0
 5
22F
 10
2365.28
 20
1436.72
 30
0
 11
2334.24
 21
1363.595
 31
0
 0
LINE
 8
TOOL_0
 5
230
 10
2334.24
 20
1363.595
 30
0
 11
2335.86
 21
1361.068
 31
0
 0
LINE
 8
TOOL_0
 5
231
 10
2335.86
 20
1361.068
 30
0
 11
2337.733
 21
1356.432
 31
0
 0
LINE
 8
TOOL_0
 5
232
 10
2337.733
 20
1356.432
 30
0
 11
3148.309
 21
1372.892
 31
0
 0
LINE
 8
TOOL_0
 5
233
 10
3148.309
 20
1372.892
 30
0
 11
3125.129
 21
1363.527
 31
0
 0
LINE
 8
TOOL_0
 5
234
 10
3125.129
 20
1363.527
 30
0
 11
3122.13
 21
1363.389
 31
0
 0
ARC
 8
TOOL_0
 5
235
 10
3118.32
 20
1366.627
 30
0
 40
5.000074399446
 50
270.0
 51
319.639828952663
210
0
220
0
230
1.0
 0
LINE
 8
TOOL_0
 5
236
 10
3118.32
 20
1361.627
 30
0
 11
3053.946
 21
1361.627
 31
0
 0
ARC
 8
TOOL_0
 5
237
 10
3053.998
 20
1367.77
 30
0
 40
6.143220083963
 50
230.190846354153
 51
269.515007427091
210
0
220
0
230
1.0
 0
LINE
 8
TOOL_0
 5
238
 10
3050.065
 20
1363.051
 30
0
 11
3033.329
 21
1377.246
 31
0
 0
ARC
 8
TOOL_0
 5
239
 10
2988.696
 20
1324.626
 30
0
 40
68.999776006883
 50
49.694936895467
 51
90.0
210
0
220
0
230
1.0
 0
LINE
 8
TOOL_0
 5
23A
 10
2988.696
 20
1393.626
 30
0
 11
2944.696
 21
1393.626
 31
0
 0
ARC
 8
TOOL_0
 5
23B
 10
2944.696
 20
1324.626
 30
0
 40
69.0
 50
90.0
 51
130.305063104533
210
0
220
0
230
1.0
 0
LINE
 8
TOOL_0
 5
23C
 10
2900.063
 20
1377.246
 30
0
 11
2883.327
 21
1363.05
 31
0
 0
ARC
 8
TOOL_0
 5
23D
 10
2879.393
 20
1367.769
 30
0
 40
6.143721754767
 50
270.494318894715
 51
309.816317632979
210
0
220
0
230
1.0
 0
LINE
 8
TOOL_0
 5
23E
 10
2879.446
 20
1361.626
 30
0
 11
2815.072
 21
1361.626
 31
0
 0
ARC
 8
TOOL_0
 5
23F
 10
2815.072
 20
1366.626
 30
0
 40
5.0
 50
203.001502114302
 51
270.0
210
0
220
0
230
1.0
 0
LINE
 8
TOOL_0
 5
240
 10
2810.469
 20
1364.672
 30
0
 11
2778.843
 21
1439.178
 31
0
 0
ARC
 8
TOOL_0
 5
241
 10
2783.863
 20
1441.217
 30
0
 40
5.418295027036
 50
180.898973899173
 51
202.105774497239
210
0
220
0
230
1.0
 0
LINE
 8
TOOL_0
 5
242
 10
2778.446
 20
1441.132
 30
0
 11
2778.446
 21
1530.998
 31
0
 0
ARC
 8
TOOL_0
 5
243
 10
2783.473
 20
1530.974
 30
0
 40
5.027057290304
 50
96.281037017966
 51
179.726459466713
210
0
220
0
230
1.0
 0
LINE
 8
TOOL_0
 5
244
 10
2782.923
 20
1535.971
 30
0
 11
2793.582
 21
1537.091
 31
0
 0
ARC
 8
TOOL_0
 5
245
 10
2790.551
 20
1565.932
 30
0
 40
28.999831758133
 50
275.999388424776
 51
310.303417565473
210
0
220
0
230
1.0
 0
LINE
 8
TOOL_0
 5
246
 10
2809.309
 20
1543.816
 30
0
 11
2900.959
 21
1621.556
 31
0
 0
ARC
 8
TOOL_0
 5
247
 10
2944.695
 20
1565.626
 30
0
 40
71.000018281688
 50
90.0
 51
128.024606518121
210
0
220
0
230
1.0
 0
LINE
 8
TOOL_0
 5
248
 10
2944.695
 20
1636.626
 30
0
 11
2988.695
 21
1636.626
 31
0
 0
ARC
 8
TOOL_0
 5
249
 10
2988.695
 20
1565.626
 30
0
 40
71.0
 50
51.975393481879
 51
90.0
210
0
220
0
230
1.0
 0
LINE
 8
TOOL_0
 5
24A
 10
3032.431
 20
1621.556
 30
0
 11
3124.08
 21
1543.817
 31
0
 0
ARC
 8
TOOL_0
 5
24B
 10
3142.839
 20
1565.933
 30
0
 40
29.000302360493
 50
229.695075710032
 51
263.998646675349
210
0
220
0
230
1.0
 0
LINE
 8
TOOL_0
 5
24C
 10
3139.807
 20
1537.092
 30
0
 11
3150.467
 21
1535.972
 31
0
 0
ARC
 8
TOOL_0
 5
24D
 10
3149.917
 20
1530.975
 30
0
 40
5.027177040845
 50
0.273540533289
 51
83.718962982034
210
0
220
0
230
1.0
 0
LINE
 8
TOOL_0
 5
24E
 10
3154.944
 20
1530.999
 30
0
 11
3154.944
 21
1441.133
 31
0
 0
ARC
 8
TOOL_0
 5
24F
 10
3149.526
 20
1441.218
 30
0
 40
5.41866671793
 50
337.898204194618
 51
359.101191997174
210
0
220
0
230
1.0
 0
LINE
 8
TOOL_0
 5
250
 10
3154.547
 20
1439.179
 30
0
 11
3123.507
 21
1366.054
 31
0
 0
LINE
 8
TOOL_0
 5
251
 10
3123.507
 20
1366.054
 30
0
 11
3125.127
 21
1363.527
 31
0
 0
LINE
 8
TOOL_0
 5
252
 10
3125.127
 20
1363.527
 30
0
 11
3127.0
 21
1358.891
 31
0
 0
LINE
 8
TOOL_0
 5
253
 10
3127.0
 20
1358.891
 30
0
 11
3542.884
 21
1366.653
 31
0
 0
LINE
 8
TOOL_0
 5
254
 10
3542.884
 20
1366.653
 30
0
 11
3519.705
 21
1357.288
 31
0
 0
LINE
 8
TOOL_0
 5
255
 10
3519.705
 20
1357.288
 30
0
 11
3516.706
 21
1357.15
 31
0
 0
ARC
 8
TOOL_0
 5
256
 10
3512.896
 20
1360.388
 30
0
 40
5.000074399446
 50
270.0
 51
319.639828952663
210
0
220
0
230
1.0
 0
LINE
 8
TOOL_0
 5
257
 10
3512.896
 20
1355.388
 30
0
 11
3448.522
 21
1355.388
 31
0
 0
ARC
 8
TOOL_0
 5
258
 10
3448.574
 20
1361.531
 30
0
 40
6.143220083963
 50
230.190846354153
 51
269.515007427091
210
0
220
0
230
1.0
 0
LINE
 8
TOOL_0
 5
259
 10
3444.641
 20
1356.812
 30
0
 11
3427.905
 21
1371.007
 31
0
 0
ARC
 8
TOOL_0
 5
25A
 10
3383.272
 20
1318.387
 30
0
 40
68.999776006883
 50
49.694936895467
 51
90.0
210
0
220
0
230
1.0
 0
LINE
 8
TOOL_0
 5
25B
 10
3383.272
 20
1387.387
 30
0
 11
3339.272
 21
1387.387
 31
0
 0
ARC
 8
TOOL_0
 5
25C
 10
3339.272
 20
1318.387
 30
0
 40
69.0
 50
90.0
 51
130.305063104533
210
0
220
0
230
1.0
 0
LINE
 8
TOOL_0
 5
25D
 10
3294.639
 20
1371.007
 30
0
 11
3277.903
 21
1356.811
 31
0
 0
ARC
 8
TOOL_0
 5
25E
 10
3273.969
 20
1361.53
 30
0
 40
6.143721754767
 50
270.494318894715
 51
309.816317632979
210
0
220
0
230
1.0
 0
LINE
 8
TOOL_0
 5
25F
 10
3274.022
 20
1355.387
 30
0
 11
3209.648
 21
1355.387
 31
0
 0
ARC
 8
TOOL_0
 5
260
 10
3209.648
 20
1360.387
 30
0
 40
5.0
 50
203.001502114302
 51
270.0
210
0
220
0
230
1.0
 0
LINE
 8
TOOL_0
 5
261
 10
3205.045
 20
1358.433
 30
0
 11
3173.419
 21
1432.939
 31
0
 0
ARC
 8
TOOL_0
 5
262
 10
3178.439
 20
1434.978
 30
0
 40
5.418295027036
 50
180.898973899173
 51
202.105774497239
210
0
220
0
230
1.0
 0
LINE
 8
TOOL_0
 5
263
 10
3173.022
 20
1434.893
 30
0
 11
3173.022
 21
1524.759
 31
0
 0
ARC
 8
TOOL_0
 5
264
 10
3178.049
 20
1524.735
 30
0
 40
5.027057290304
 50
96.281037017966
 51
179.726459466713
210
0
220
0
230
1.0
 0
LINE
 8
TOOL_0
 5
265
 10
3177.499
 20
1529.732
 30
0
 11
3188.158
 21
1530.852
 31
0
 0
ARC
 8
TOOL_0
 5
266
 10
3185.127
 20
1559.693
 30
0
 40
28.999831758133
 50
275.999388424776
 51
310.303417565473
210
0
220
0
230
1.0
 0
LINE
 8
TOOL_0
 5
267
 10
3203.885
 20
1537.577
 30
0
 11
3295.535
 21
1615.317
 31
0
 0
ARC
 8
TOOL_0
 5
268
 10
3339.271
 20
1559.387
 30
0
 40
71.000018281688
 50
90.0
 51
128.024606518121
210
0
220
0
230
1.0
 0
LINE
 8
TOOL_0
 5
269
 10
3339.271
 20
1630.387
 30
0
 11
3383.271
 21
1630.387
 31
0
 0
ARC
 8
TOOL_0
 5
26A
 10
3383.271
 20
1559.387
 30
0
 40
71.0
 50
51.975393481879
 51
90.0
210
0
220
0
230
1.0
 0
LINE
 8
TOOL_0
 5
26B
 10
3427.007
 20
1615.317
 30
0
 11
3518.656
 21
1537.578
 31
0
 0
ARC
 8
TOOL_0
 5
26C
 10
3537.415
 20
1559.694
 30
0
 40
29.000302360493
 50
229.695075710032
 51
263.998646675349
210
0
220
0
230
1.0
 0
LINE
 8
TOOL_0
 5
26D
 10
3534.383
 20
1530.853
 30
0
 11
3545.043
 21
1529.733
 31
0
 0
ARC
 8
TOOL_0
 5
26E
 10
3544.493
 20
1524.736
 30
0
 40
5.027177040845
 50
0.273540533289
 51
83.718962982034
210
0
220
0
230
1.0
 0
LINE
 8
TOOL_0
 5
26F
 10
3549.52
 20
1524.76
 30
0
 11
3549.52
 21
1434.894
 31
0
 0
ARC
 8
TOOL_0
 5
270
 10
3544.102
 20
1434.979
 30
0
 40
5.41866671793
 50
337.898204194618
 51
359.101191997174
210
0
220
0
230
1.0
 0
LINE
 8
TOOL_0
 5
271
 10
3549.123
 20
1432.94
 30
0
 11
3518.083
 21
1359.815
 31
0
 0
LINE
 8
TOOL_0
 5
272
 10
3518.083
 20
1359.815
 30
0
 11
3519.703
 21
1357.288
 31
0
 0
LINE
 8
TOOL_0
 5
273
 10
3519.703
 20
1357.288
 30
0
 11
3521.576
 21
1352.652
 31
0
 0
LINE
 8
TOOL_0
 5
274
 10
3521.576
 20
1352.652
 30
0
 11
3937.891
 21
1366.498
 31
0
 0
LINE
 8
TOOL_0
 5
275
 10
3937.891
 20
1366.498
 30
0
 11
3914.711
 21
1357.133
 31
0
 0
LINE
 8
TOOL_0
 5
276
 10
3914.711
 20
1357.133
 30
0
 11
3911.712
 21
1356.995
 31
0
 0
ARC
 8
TOOL_0
 5
277
 10
3907.902
 20
1360.233
 30
0
 40
5.000074399446
 50
270.0
 51
319.639828952663
210
0
220
0
230
1.0
 0
LINE
 8
TOOL_0
 5
278
 10
3907.902
 20
1355.233
 30
0
 11
3843.528
 21
1355.233
 31
0
 0
ARC
 8
TOOL_0
 5
279
 10
3843.58
 20
1361.376
 30
0
 40
6.143220083963
 50
230.190846354153
 51
269.515007427091
210
0
220
0
230
1.0
 0
LINE
 8
TOOL_0
 5
27A
 10
3839.647
 20
1356.657
 30
0
 11
3822.911
 21
1370.852
 31
0
 0
ARC
 8
TOOL_0
 5
27B
 10
3778.278
 20
1318.232
 30
0
 40
68.999776006883
 50
49.694936895467
 51
90.0
210
0
220
0
230
1.0
 0
LINE
 8
TOOL_0
 5
27C
 10
3778.278
 20
1387.232
 30
0
 11
3734.278
 21
1387.232
 31
0
 0
ARC
 8
TOOL_0
 5
27D
 10
3734.278
 20
1318.232
 30
0
 40
69.0
 50
90.0
 51
130.305063104533
210
0
220
0
230
1.0
 0
LINE
 8
TOOL_0
 5
27E
 10
3689.645
 20
1370.852
 30
0
 11
3672.909
 21
1356.656
 31
0
 0
ARC
 8
TOOL_0
 5
27F
 10
3668.975
 20
1361.375
 30
0
 40
6.143721754767
 50
270.494318894715
 51
309.816317632979
210
0
220
0
230
1.0
 0
LINE
 8
TOOL_0
 5
280
 10
3669.028
 20
1355.232
 30
0
 11
3604.654
 21
1355.232
 31
0
 0
ARC
 8
TOOL_0
 5
281
 10
3604.654
 20
1360.232
 30
0
 40
5.0
 50
203.001502114302
 51
270.0
210
0
220
0
230
1.0
 0
LINE
 8
TOOL_0
 5
282
 10
3600.051
 20
1358.278
 30
0
 11
3568.425
 21
1432.784
 31
0
 0
ARC
 8
TOOL_0
 5
283
 10
3573.445
 20
1434.823
 30
0
 40
5.418295027036
 50
180.898973899173
 51
202.105774497239
210
0
220
0
230
1.0
 0
LINE
 8
TOOL_0
 5
284
 10
3568.028
 20
1434.738
 30
0
 11
3568.028
 21
1524.604
 31
0
 0
ARC
 8
TOOL_0
 5
285
 10
3573.055
 20
1524.58
 30
0
 40
5.027057290304
 50
96.281037017966
 51
179.726459466713
210
0
220
0
230
1.0
 0
LINE
 8
TOOL_0
 5
286
 10
3572.505
 20
1529.577
 30
0
 11
3583.164
 21
1530.697
 31
0
 0
ARC
 8
TOOL_0
 5
287
 10
3580.133
 20
1559.538
 30
0
 40
28.999831758133
 50
275.999388424776
 51
310.303417565473
210
0
220
0
230
1.0
 0
LINE
 8
TOOL_0
 5
288
 10
3598.891
 20
1537.422
 30
0
 11
3690.541
 21
1615.162
 31
0
 0
ARC
 8
TOOL_0
 5
289
 10
3734.277
 20
1559.232
 30
0
 40
71.000018281688
 50
90.0
 51
128.024606518121
210
0
220
0
230
1.0
 0
LINE
 8
TOOL_0
 5
28A
 10
3734.277
 20
1630.232
 30
0
 11
3778.277
 21
1630.232
 31
0
 0
ARC
 8
TOOL_0
 5
28B
 10
3778.277
 20
1559.232
 30
0
 40
71.0
 50
51.975393481879
 51
90.0
210
0
220
0
230
1.0
 0
LINE
 8
TOOL_0
 5
28C
 10
3822.013
 20
1615.162
 30
0
 11
3913.662
 21
1537.423
 31
0
 0
ARC
 8
TOOL_0
 5
28D
 10
3932.421
 20
1559.539
 30
0
 40
29.000302360493
 50
229.695075710032
 51
263.998646675349
210
0
220
0
230
1.0
 0
LINE
 8
TOOL_0
 5
28E
 10
3929.389
 20
1530.698
 30
0
 11
3940.049
 21
1529.578
 31
0
 0
ARC
 8
TOOL_0
 5
28F
 10
3939.499
 20
1524.581
 30
0
 40
5.027177040845
 50
0.273540533289
 51
83.718962982034
210
0
220
0
230
1.0
 0
LINE
 8
TOOL_0
 5
290
 10
3944.526
 20
1524.605
 30
0
 11
3944.526
 21
1434.739
 31
0
 0
ARC
 8
TOOL_0
 5
291
 10
3939.108
 20
1434.824
 30
0
 40
5.41866671793
 50
337.898204194618
 51
359.101191997174
210
0
220
0
230
1.0
 0
LINE
 8
TOOL_0
 5
292
 10
3944.129
 20
1432.785
 30
0
 11
3913.089
 21
1359.66
 31
0
 0
LINE
 8
TOOL_0
 5
293
 10
3913.089
 20
1359.66
 30
0
 11
3914.709
 21
1357.133
 31
0
 0
LINE
 8
TOOL_0
 5
294
 10
3914.709
 20
1357.133
 30
0
 11
3916.582
 21
1352.497
 31
0
 0
LINE
 8
TOOL_0
 5
295
 10
3916.582
 20
1352.497
 30
0
 11
4038.848
 21
-0.004
 31
0
 0
LINE
 8
TOOL_0
 5
296
 10
4038.848
 20
-0.004
 30
0
 11
4038.848
 21
0.996
 31
0
 0
LINE
 8
TOOL_0
 5
297
 10
4038.848
 20
0.996
 30
0
 11
4038.848
 21
-0.004
 31
0
 0
LINE
 8
TOOL_0
 5
298
 10
4038.848
 20
-0.004
 30
0
 11
4038.848
 21
-0.004
 31
0
 0
LINE
 8
TOOL_0
 5
299
 10
4038.848
 20
-0.004
 30
0
 11
4038.848
 21
0.996
 31
0
 0
LINE
 8
TOOL_0
 5
29A
 10
4038.848
 20
0.996
 30
0
 11
4038.848
 21
2488.996
 31
0
 0
LINE
 8
TOOL_0
 5
29B
 10
4038.848
 20
2488.996
 30
0
 11
4038.848
 21
2489.996
 31
0
 0
ENDSEC
 0
EOF

