0
SECTION
2
TABLES
0
TABLE
2
LAYER
70
0
0
LAYER
2
LAYER_NAME
70
0
62
1
6
CONTINUOUS
0
ENDTAB
0
ENDSEC
 0
SECTION
 2
ENTITIES
 0
LINE
 8
TOOL_0
 5
1
 10
315.602
 20
492.452
 30
0
 11
285.267
 21
492.452
 31
0
 0
LINE
 8
TOOL_0
 5
2
 10
285.267
 20
492.452
 30
0
 11
45.267
 21
492.452
 31
0
 0
ARC
 8
TOOL_0
 5
3
 10
45.267
 20
518.552
 30
0
 40
26.1
 50
180.0
 51
270.0
210
0
220
0
230
1.0
 0
LINE
 8
TOOL_0
 5
4
 10
19.167
 20
518.552
 30
0
 11
19.167
 21
783.552
 31
0
 0
ARC
 8
TOOL_0
 5
5
 10
45.267
 20
783.552
 30
0
 40
26.1
 50
90.0
 51
180.0
210
0
220
0
230
1.0
 0
LINE
 8
TOOL_0
 5
6
 10
45.267
 20
809.652
 30
0
 11
249.912
 21
809.652
 31
0
 0
ARC
 8
TOOL_0
 5
7
 10
249.889
 20
783.496
 30
0
 40
26.156010112401
 50
45.051116824523
 51
89.949617579556
210
0
220
0
230
1.0
 0
LINE
 8
TOOL_0
 5
8
 10
268.367
 20
802.007
 30
0
 11
303.722
 21
766.652
 31
0
 0
ARC
 8
TOOL_0
 5
9
 10
285.211
 20
748.174
 30
0
 40
26.155183138338
 50
0.050382420444
 51
44.948883175477
210
0
220
0
230
1.0
 0
LINE
 8
TOOL_0
 5
A
 10
311.367
 20
748.197
 30
0
 11
311.367
 21
518.552
 31
0
 0
ARC
 8
TOOL_0
 5
B
 10
285.267
 20
518.552
 30
0
 40
26.1
 50
270.0
 51
0
210
0
220
0
230
1.0
 0
LINE
 8
TOOL_0
 5
C
 10
285.267
 20
492.452
 30
0
 11
280.535
 21
490.563
 31
0
 0
LINE
 8
TOOL_0
 5
D
 10
280.535
 20
490.563
 30
0
 11
315.602
 21
833.258
 31
0
 0
LINE
 8
TOOL_0
 5
E
 10
315.602
 20
833.258
 30
0
 11
285.267
 21
833.258
 31
0
 0
LINE
 8
TOOL_0
 5
F
 10
285.267
 20
833.258
 30
0
 11
45.267
 21
833.258
 31
0
 0
ARC
 8
TOOL_0
 5
10
 10
45.267
 20
859.358
 30
0
 40
26.1
 50
180.0
 51
270.0
210
0
220
0
230
1.0
 0
LINE
 8
TOOL_0
 5
11
 10
19.167
 20
859.358
 30
0
 11
19.167
 21
1124.358
 31
0
 0
ARC
 8
TOOL_0
 5
12
 10
45.267
 20
1124.358
 30
0
 40
26.1
 50
90.0
 51
180.0
210
0
220
0
230
1.0
 0
LINE
 8
TOOL_0
 5
13
 10
45.267
 20
1150.458
 30
0
 11
249.912
 21
1150.458
 31
0
 0
ARC
 8
TOOL_0
 5
14
 10
249.889
 20
1124.302
 30
0
 40
26.156010112401
 50
45.051116824523
 51
89.949617579556
210
0
220
0
230
1.0
 0
LINE
 8
TOOL_0
 5
15
 10
268.367
 20
1142.813
 30
0
 11
303.722
 21
1107.458
 31
0
 0
ARC
 8
TOOL_0
 5
16
 10
285.211
 20
1088.98
 30
0
 40
26.155183138338
 50
0.050382420445
 51
44.948883175477
210
0
220
0
230
1.0
 0
LINE
 8
TOOL_0
 5
17
 10
311.367
 20
1089.003
 30
0
 11
311.367
 21
859.358
 31
0
 0
ARC
 8
TOOL_0
 5
18
 10
285.267
 20
859.358
 30
0
 40
26.1
 50
270.0
 51
0
210
0
220
0
230
1.0
 0
LINE
 8
TOOL_0
 5
19
 10
285.267
 20
833.258
 30
0
 11
280.535
 21
831.369
 31
0
 0
LINE
 8
TOOL_0
 5
1A
 10
280.535
 20
831.369
 30
0
 11
315.602
 21
1168.6
 31
0
 0
LINE
 8
TOOL_0
 5
1B
 10
315.602
 20
1168.6
 30
0
 11
285.267
 21
1168.6
 31
0
 0
LINE
 8
TOOL_0
 5
1C
 10
285.267
 20
1168.6
 30
0
 11
45.267
 21
1168.6
 31
0
 0
ARC
 8
TOOL_0
 5
1D
 10
45.267
 20
1194.7
 30
0
 40
26.1
 50
180.0
 51
270.0
210
0
220
0
230
1.0
 0
LINE
 8
TOOL_0
 5
1E
 10
19.167
 20
1194.7
 30
0
 11
19.167
 21
1459.7
 31
0
 0
ARC
 8
TOOL_0
 5
1F
 10
45.267
 20
1459.7
 30
0
 40
26.1
 50
90.0
 51
180.0
210
0
220
0
230
1.0
 0
LINE
 8
TOOL_0
 5
20
 10
45.267
 20
1485.8
 30
0
 11
249.912
 21
1485.8
 31
0
 0
ARC
 8
TOOL_0
 5
21
 10
249.889
 20
1459.644
 30
0
 40
26.156010112401
 50
45.051116824523
 51
89.949617579556
210
0
220
0
230
1.0
 0
LINE
 8
TOOL_0
 5
22
 10
268.367
 20
1478.155
 30
0
 11
303.722
 21
1442.8
 31
0
 0
ARC
 8
TOOL_0
 5
23
 10
285.211
 20
1424.322
 30
0
 40
26.155183138338
 50
0.050382420445
 51
44.948883175477
210
0
220
0
230
1.0
 0
LINE
 8
TOOL_0
 5
24
 10
311.367
 20
1424.345
 30
0
 11
311.367
 21
1194.7
 31
0
 0
ARC
 8
TOOL_0
 5
25
 10
285.267
 20
1194.7
 30
0
 40
26.1
 50
270.0
 51
0
210
0
220
0
230
1.0
 0
LINE
 8
TOOL_0
 5
26
 10
285.267
 20
1168.6
 30
0
 11
280.535
 21
1166.711
 31
0
 0
ENDSEC
 0
EOF

