0
SECTION
2
TABLES
0
TABLE
2
LAYER
70
0
0
LAYER
2
LAYER_NAME
70
0
62
1
6
CONTINUOUS
0
ENDTAB
0
ENDSEC
 0
SECTION
 2
ENTITIES
 0
LINE
 8
TOOL_0
 5
1
 10
496.401
 20
-1924.999
 30
0
 11
496.401
 21
-1939.999
 31
0
 0
LINE
 8
TOOL_0
 5
2
 10
496.401
 20
-1939.999
 30
0
 11
496.401
 21
-2089.999
 31
0
 0
LINE
 8
TOOL_0
 5
3
 10
496.401
 20
-2089.999
 30
0
 11
11.401
 21
-2089.999
 31
0
 0
LINE
 8
TOOL_0
 5
4
 10
11.401
 20
-2089.999
 30
0
 11
11.401
 21
-1939.999
 31
0
 0
LINE
 8
TOOL_0
 5
5
 10
11.401
 20
-1939.999
 30
0
 11
496.401
 21
-1939.999
 31
0
 0
LINE
 8
TOOL_0
 5
6
 10
496.401
 20
-1939.999
 30
0
 11
504.401
 21
-1939.999
 31
0
 0
LINE
 8
TOOL_0
 5
7
 10
504.401
 20
-1939.999
 30
0
 11
507.272
 21
-1759.628
 31
0
 0
ARC
 8
TOOL_0
 5
8
 10
505.0
 20
-1769.367
 30
0
 40
10.000505237237
 50
76.868395441071
 51
180.0
210
0
220
0
230
1.0
 0
LINE
 8
TOOL_0
 5
9
 10
495.0
 20
-1769.367
 30
0
 11
495.0
 21
-1919.367
 31
0
 0
LINE
 8
TOOL_0
 5
A
 10
495.0
 20
-1919.367
 30
0
 11
10.0
 21
-1919.367
 31
0
 0
LINE
 8
TOOL_0
 5
B
 10
10.0
 20
-1919.367
 30
0
 11
10.0
 21
-1769.367
 31
0
 0
LINE
 8
TOOL_0
 5
C
 10
10.0
 20
-1769.367
 30
0
 11
495.0
 21
-1769.367
 31
0
 0
LINE
 8
TOOL_0
 5
D
 10
495.0
 20
-1769.367
 30
0
 11
500.657
 21
-1763.71
 31
0
 0
LINE
 8
TOOL_0
 5
E
 10
500.657
 20
-1763.71
 30
0
 11
507.272
 21
-1590.831
 31
0
 0
ARC
 8
TOOL_0
 5
F
 10
505.0
 20
-1600.57
 30
0
 40
10.000505237237
 50
76.868395441071
 51
180.0
210
0
220
0
230
1.0
 0
LINE
 8
TOOL_0
 5
10
 10
495.0
 20
-1600.57
 30
0
 11
495.0
 21
-1750.57
 31
0
 0
LINE
 8
TOOL_0
 5
11
 10
495.0
 20
-1750.57
 30
0
 11
10.0
 21
-1750.57
 31
0
 0
LINE
 8
TOOL_0
 5
12
 10
10.0
 20
-1750.57
 30
0
 11
10.0
 21
-1600.57
 31
0
 0
LINE
 8
TOOL_0
 5
13
 10
10.0
 20
-1600.57
 30
0
 11
495.0
 21
-1600.57
 31
0
 0
LINE
 8
TOOL_0
 5
14
 10
495.0
 20
-1600.57
 30
0
 11
500.657
 21
-1594.913
 31
0
 0
LINE
 8
TOOL_0
 5
15
 10
500.657
 20
-1594.913
 30
0
 11
507.272
 21
-1422.713
 31
0
 0
ARC
 8
TOOL_0
 5
16
 10
505.0
 20
-1432.451
 30
0
 40
9.99953138902
 50
76.867093685725
 51
180.0
210
0
220
0
230
1.0
 0
LINE
 8
TOOL_0
 5
17
 10
495.0
 20
-1432.451
 30
0
 11
495.0
 21
-1582.451
 31
0
 0
LINE
 8
TOOL_0
 5
18
 10
495.0
 20
-1582.451
 30
0
 11
10.0
 21
-1582.451
 31
0
 0
LINE
 8
TOOL_0
 5
19
 10
10.0
 20
-1582.451
 30
0
 11
10.0
 21
-1432.451
 31
0
 0
LINE
 8
TOOL_0
 5
1A
 10
10.0
 20
-1432.451
 30
0
 11
495.0
 21
-1432.451
 31
0
 0
LINE
 8
TOOL_0
 5
1B
 10
495.0
 20
-1432.451
 30
0
 11
500.657
 21
-1426.794
 31
0
 0
LINE
 8
TOOL_0
 5
1C
 10
500.657
 20
-1426.794
 30
0
 11
507.272
 21
-1254.63
 31
0
 0
ARC
 8
TOOL_0
 5
1D
 10
505.0
 20
-1264.369
 30
0
 40
10.000505237237
 50
76.868395441071
 51
180.0
210
0
220
0
230
1.0
 0
LINE
 8
TOOL_0
 5
1E
 10
495.0
 20
-1264.369
 30
0
 11
495.0
 21
-1414.369
 31
0
 0
LINE
 8
TOOL_0
 5
1F
 10
495.0
 20
-1414.369
 30
0
 11
10.0
 21
-1414.369
 31
0
 0
LINE
 8
TOOL_0
 5
20
 10
10.0
 20
-1414.369
 30
0
 11
10.0
 21
-1264.369
 31
0
 0
LINE
 8
TOOL_0
 5
21
 10
10.0
 20
-1264.369
 30
0
 11
495.0
 21
-1264.369
 31
0
 0
LINE
 8
TOOL_0
 5
22
 10
495.0
 20
-1264.369
 30
0
 11
500.657
 21
-1258.712
 31
0
 0
LINE
 8
TOOL_0
 5
23
 10
500.657
 20
-1258.712
 30
0
 11
495.0
 21
-1081.066
 31
0
 0
LINE
 8
TOOL_0
 5
24
 10
495.0
 20
-1081.066
 30
0
 11
495.0
 21
-1096.066
 31
0
 0
LINE
 8
TOOL_0
 5
25
 10
495.0
 20
-1096.066
 30
0
 11
495.0
 21
-1246.066
 31
0
 0
LINE
 8
TOOL_0
 5
26
 10
495.0
 20
-1246.066
 30
0
 11
10.0
 21
-1246.066
 31
0
 0
LINE
 8
TOOL_0
 5
27
 10
10.0
 20
-1246.066
 30
0
 11
10.0
 21
-1096.066
 31
0
 0
LINE
 8
TOOL_0
 5
28
 10
10.0
 20
-1096.066
 30
0
 11
495.0
 21
-1096.066
 31
0
 0
LINE
 8
TOOL_0
 5
29
 10
495.0
 20
-1096.066
 30
0
 11
503.0
 21
-1096.066
 31
0
 0
LINE
 8
TOOL_0
 5
2A
 10
503.0
 20
-1096.066
 30
0
 11
507.272
 21
-917.133
 31
0
 0
ARC
 8
TOOL_0
 5
2B
 10
505.0
 20
-926.872
 30
0
 40
10.000505237237
 50
76.868395441071
 51
180.0
210
0
220
0
230
1.0
 0
LINE
 8
TOOL_0
 5
2C
 10
495.0
 20
-926.872
 30
0
 11
495.0
 21
-1076.872
 31
0
 0
LINE
 8
TOOL_0
 5
2D
 10
495.0
 20
-1076.872
 30
0
 11
10.0
 21
-1076.872
 31
0
 0
LINE
 8
TOOL_0
 5
2E
 10
10.0
 20
-1076.872
 30
0
 11
10.0
 21
-926.872
 31
0
 0
LINE
 8
TOOL_0
 5
2F
 10
10.0
 20
-926.872
 30
0
 11
495.0
 21
-926.872
 31
0
 0
LINE
 8
TOOL_0
 5
30
 10
495.0
 20
-926.872
 30
0
 11
500.657
 21
-921.215
 31
0
 0
LINE
 8
TOOL_0
 5
31
 10
500.657
 20
-921.215
 30
0
 11
507.272
 21
-748.83
 31
0
 0
ARC
 8
TOOL_0
 5
32
 10
505.0
 20
-758.569
 30
0
 40
10.000505237237
 50
76.868395441071
 51
180.0
210
0
220
0
230
1.0
 0
LINE
 8
TOOL_0
 5
33
 10
495.0
 20
-758.569
 30
0
 11
495.0
 21
-908.569
 31
0
 0
LINE
 8
TOOL_0
 5
34
 10
495.0
 20
-908.569
 30
0
 11
10.0
 21
-908.569
 31
0
 0
LINE
 8
TOOL_0
 5
35
 10
10.0
 20
-908.569
 30
0
 11
10.0
 21
-758.569
 31
0
 0
LINE
 8
TOOL_0
 5
36
 10
10.0
 20
-758.569
 30
0
 11
495.0
 21
-758.569
 31
0
 0
LINE
 8
TOOL_0
 5
37
 10
495.0
 20
-758.569
 30
0
 11
500.657
 21
-752.912
 31
0
 0
LINE
 8
TOOL_0
 5
38
 10
500.657
 20
-752.912
 30
0
 11
495.0
 21
-575.266
 31
0
 0
LINE
 8
TOOL_0
 5
39
 10
495.0
 20
-575.266
 30
0
 11
495.0
 21
-590.266
 31
0
 0
LINE
 8
TOOL_0
 5
3A
 10
495.0
 20
-590.266
 30
0
 11
495.0
 21
-740.266
 31
0
 0
LINE
 8
TOOL_0
 5
3B
 10
495.0
 20
-740.266
 30
0
 11
10.0
 21
-740.266
 31
0
 0
LINE
 8
TOOL_0
 5
3C
 10
10.0
 20
-740.266
 30
0
 11
10.0
 21
-590.266
 31
0
 0
LINE
 8
TOOL_0
 5
3D
 10
10.0
 20
-590.266
 30
0
 11
495.0
 21
-590.266
 31
0
 0
LINE
 8
TOOL_0
 5
3E
 10
495.0
 20
-590.266
 30
0
 11
503.0
 21
-590.266
 31
0
 0
LINE
 8
TOOL_0
 5
3F
 10
503.0
 20
-590.266
 30
0
 11
507.272
 21
-411.333
 31
0
 0
ARC
 8
TOOL_0
 5
40
 10
505.0
 20
-421.072
 30
0
 40
10.000505237237
 50
76.868395441071
 51
180.0
210
0
220
0
230
1.0
 0
LINE
 8
TOOL_0
 5
41
 10
495.0
 20
-421.072
 30
0
 11
495.0
 21
-571.072
 31
0
 0
LINE
 8
TOOL_0
 5
42
 10
495.0
 20
-571.072
 30
0
 11
10.0
 21
-571.072
 31
0
 0
LINE
 8
TOOL_0
 5
43
 10
10.0
 20
-571.072
 30
0
 11
10.0
 21
-421.072
 31
0
 0
LINE
 8
TOOL_0
 5
44
 10
10.0
 20
-421.072
 30
0
 11
495.0
 21
-421.072
 31
0
 0
LINE
 8
TOOL_0
 5
45
 10
495.0
 20
-421.072
 30
0
 11
500.657
 21
-415.415
 31
0
 0
LINE
 8
TOOL_0
 5
46
 10
500.657
 20
-415.415
 30
0
 11
495.0
 21
-237.657
 31
0
 0
LINE
 8
TOOL_0
 5
47
 10
495.0
 20
-237.657
 30
0
 11
495.0
 21
-252.657
 31
0
 0
LINE
 8
TOOL_0
 5
48
 10
495.0
 20
-252.657
 30
0
 11
495.0
 21
-402.657
 31
0
 0
LINE
 8
TOOL_0
 5
49
 10
495.0
 20
-402.657
 30
0
 11
10.0
 21
-402.657
 31
0
 0
LINE
 8
TOOL_0
 5
4A
 10
10.0
 20
-402.657
 30
0
 11
10.0
 21
-252.657
 31
0
 0
LINE
 8
TOOL_0
 5
4B
 10
10.0
 20
-252.657
 30
0
 11
495.0
 21
-252.657
 31
0
 0
LINE
 8
TOOL_0
 5
4C
 10
495.0
 20
-252.657
 30
0
 11
503.0
 21
-252.657
 31
0
 0
LINE
 8
TOOL_0
 5
4D
 10
503.0
 20
-252.657
 30
0
 11
495.0
 21
-68.188
 31
0
 0
LINE
 8
TOOL_0
 5
4E
 10
495.0
 20
-68.188
 30
0
 11
495.0
 21
-83.188
 31
0
 0
LINE
 8
TOOL_0
 5
4F
 10
495.0
 20
-83.188
 30
0
 11
495.0
 21
-233.188
 31
0
 0
LINE
 8
TOOL_0
 5
50
 10
495.0
 20
-233.188
 30
0
 11
10.0
 21
-233.188
 31
0
 0
LINE
 8
TOOL_0
 5
51
 10
10.0
 20
-233.188
 30
0
 11
10.0
 21
-83.188
 31
0
 0
LINE
 8
TOOL_0
 5
52
 10
10.0
 20
-83.188
 30
0
 11
495.0
 21
-83.188
 31
0
 0
LINE
 8
TOOL_0
 5
53
 10
495.0
 20
-83.188
 30
0
 11
503.0
 21
-83.188
 31
0
 0
LINE
 8
TOOL_0
 5
54
 10
503.0
 20
-83.188
 30
0
 11
1460.323
 21
-1718.559
 31
0
 0
LINE
 8
TOOL_0
 5
55
 10
1460.323
 20
-1718.559
 30
0
 11
1445.323
 21
-1718.559
 31
0
 0
LINE
 8
TOOL_0
 5
56
 10
1445.323
 20
-1718.559
 30
0
 11
905.323
 21
-1718.559
 31
0
 0
LINE
 8
TOOL_0
 5
57
 10
905.323
 20
-1718.559
 30
0
 11
905.323
 21
-1233.559
 31
0
 0
LINE
 8
TOOL_0
 5
58
 10
905.323
 20
-1233.559
 30
0
 11
1445.323
 21
-1233.559
 31
0
 0
LINE
 8
TOOL_0
 5
59
 10
1445.323
 20
-1233.559
 30
0
 11
1445.323
 21
-1718.559
 31
0
 0
LINE
 8
TOOL_0
 5
5A
 10
1445.323
 20
-1718.559
 30
0
 11
1445.323
 21
-1726.559
 31
0
 0
LINE
 8
TOOL_0
 5
5B
 10
1445.323
 20
-1726.559
 30
0
 11
1409.591
 21
-1005.195
 31
0
 0
LINE
 8
TOOL_0
 5
5C
 10
1409.591
 20
-1005.195
 30
0
 11
1409.591
 21
-1020.195
 31
0
 0
LINE
 8
TOOL_0
 5
5D
 10
1409.591
 20
-1020.195
 30
0
 11
1409.591
 21
-1170.195
 31
0
 0
LINE
 8
TOOL_0
 5
5E
 10
1409.591
 20
-1170.195
 30
0
 11
924.591
 21
-1170.195
 31
0
 0
LINE
 8
TOOL_0
 5
5F
 10
924.591
 20
-1170.195
 30
0
 11
924.591
 21
-1020.195
 31
0
 0
LINE
 8
TOOL_0
 5
60
 10
924.591
 20
-1020.195
 30
0
 11
1409.591
 21
-1020.195
 31
0
 0
LINE
 8
TOOL_0
 5
61
 10
1409.591
 20
-1020.195
 30
0
 11
1417.591
 21
-1020.195
 31
0
 0
LINE
 8
TOOL_0
 5
62
 10
1417.591
 20
-1020.195
 30
0
 11
818.608
 21
-477.209
 31
0
 0
LINE
 8
TOOL_0
 5
63
 10
818.608
 20
-477.209
 30
0
 11
868.608
 21
-477.209
 31
0
 0
ARC
 8
TOOL_0
 5
64
 10
828.608
 20
-477.209
 30
0
 40
40.0
 50
0
 51
90.0
210
0
220
0
230
1.0
 0
LINE
 8
TOOL_0
 5
65
 10
828.608
 20
-437.209
 30
0
 11
758.608
 21
-437.209
 31
0
 0
ARC
 8
TOOL_0
 5
66
 10
758.608
 20
-477.209
 30
0
 40
40.0
 50
90.0
 51
270.0
210
0
220
0
230
1.0
 0
LINE
 8
TOOL_0
 5
67
 10
758.608
 20
-517.209
 30
0
 11
828.608
 21
-517.209
 31
0
 0
ARC
 8
TOOL_0
 5
68
 10
828.608
 20
-477.209
 30
0
 40
40.0
 50
270.0
 51
0
210
0
220
0
230
1.0
 0
ARC
 8
TOOL_0
 5
69
 10
860.608
 20
-477.209
 30
0
 40
8.0
 50
0
 51
57.299199559757
210
0
220
0
230
1.0
 0
LINE
 8
TOOL_0
 5
6A
 10
864.93
 20
-470.477
 30
0
 11
1058.608
 21
-737.209
 31
0
 0
LINE
 8
TOOL_0
 5
6B
 10
1058.608
 20
-737.209
 30
0
 11
1043.608
 21
-737.209
 31
0
 0
LINE
 8
TOOL_0
 5
6C
 10
1043.608
 20
-737.209
 30
0
 11
543.608
 21
-737.209
 31
0
 0
LINE
 8
TOOL_0
 5
6D
 10
543.608
 20
-737.209
 30
0
 11
543.608
 21
-407.209
 31
0
 0
LINE
 8
TOOL_0
 5
6E
 10
543.608
 20
-407.209
 30
0
 11
1043.608
 21
-407.209
 31
0
 0
LINE
 8
TOOL_0
 5
6F
 10
1043.608
 20
-407.209
 30
0
 11
1043.608
 21
-737.209
 31
0
 0
LINE
 8
TOOL_0
 5
70
 10
1043.608
 20
-737.209
 30
0
 11
1043.608
 21
-745.209
 31
0
 0
LINE
 8
TOOL_0
 5
71
 10
1043.608
 20
-745.209
 30
0
 11
1036.108
 21
-215.061
 31
0
 0
LINE
 8
TOOL_0
 5
72
 10
1036.108
 20
-215.061
 30
0
 11
1036.108
 21
-230.061
 31
0
 0
LINE
 8
TOOL_0
 5
73
 10
1036.108
 20
-230.061
 30
0
 11
1036.108
 21
-380.061
 31
0
 0
LINE
 8
TOOL_0
 5
74
 10
1036.108
 20
-380.061
 30
0
 11
551.108
 21
-380.061
 31
0
 0
LINE
 8
TOOL_0
 5
75
 10
551.108
 20
-380.061
 30
0
 11
551.108
 21
-230.061
 31
0
 0
LINE
 8
TOOL_0
 5
76
 10
551.108
 20
-230.061
 30
0
 11
1036.108
 21
-230.061
 31
0
 0
LINE
 8
TOOL_0
 5
77
 10
1036.108
 20
-230.061
 30
0
 11
1044.108
 21
-230.061
 31
0
 0
LINE
 8
TOOL_0
 5
78
 10
1044.108
 20
-230.061
 30
0
 11
1036.108
 21
-32.51
 31
0
 0
LINE
 8
TOOL_0
 5
79
 10
1036.108
 20
-32.51
 30
0
 11
1036.108
 21
-47.51
 31
0
 0
LINE
 8
TOOL_0
 5
7A
 10
1036.108
 20
-47.51
 30
0
 11
1036.108
 21
-197.51
 31
0
 0
LINE
 8
TOOL_0
 5
7B
 10
1036.108
 20
-197.51
 30
0
 11
551.108
 21
-197.51
 31
0
 0
LINE
 8
TOOL_0
 5
7C
 10
551.108
 20
-197.51
 30
0
 11
551.108
 21
-47.51
 31
0
 0
LINE
 8
TOOL_0
 5
7D
 10
551.108
 20
-47.51
 30
0
 11
1036.108
 21
-47.51
 31
0
 0
LINE
 8
TOOL_0
 5
7E
 10
1036.108
 20
-47.51
 30
0
 11
1044.108
 21
-47.51
 31
0
 0
LINE
 8
TOOL_0
 5
7F
 10
1044.108
 20
-47.51
 30
0
 11
1268.964
 21
-1970.899
 31
0
 0
LINE
 8
TOOL_0
 5
80
 10
1268.964
 20
-1970.899
 30
0
 11
1318.964
 21
-1970.899
 31
0
 0
ARC
 8
TOOL_0
 5
81
 10
1293.964
 20
-1970.899
 30
0
 40
25.0
 50
0
 51
90.0
210
0
220
0
230
1.0
 0
LINE
 8
TOOL_0
 5
82
 10
1293.964
 20
-1945.899
 30
0
 11
1093.964
 21
-1945.899
 31
0
 0
ARC
 8
TOOL_0
 5
83
 10
1093.964
 20
-1970.899
 30
0
 40
25.0
 50
90.0
 51
270.0
210
0
220
0
230
1.0
 0
LINE
 8
TOOL_0
 5
84
 10
1093.964
 20
-1995.899
 30
0
 11
1293.964
 21
-1995.899
 31
0
 0
ARC
 8
TOOL_0
 5
85
 10
1293.964
 20
-1970.899
 30
0
 40
25.0
 50
270.0
 51
0
210
0
220
0
230
1.0
 0
ARC
 8
TOOL_0
 5
86
 10
1310.964
 20
-1970.899
 30
0
 40
8.0
 50
0
 51
57.299199559758
210
0
220
0
230
1.0
 0
LINE
 8
TOOL_0
 5
87
 10
1315.286
 20
-1964.167
 30
0
 11
1586.745
 21
-1823.681
 31
0
 0
LINE
 8
TOOL_0
 5
88
 10
1586.745
 20
-1823.681
 30
0
 11
1622.1
 21
-1859.036
 31
0
 0
ARC
 8
TOOL_0
 5
89
 10
1508.963
 20
-1745.899
 30
0
 40
159.999879806205
 50
315.0
 51
359.999641901378
210
0
220
0
230
1.0
 0
LINE
 8
TOOL_0
 5
8A
 10
1668.963
 20
-1745.9
 30
0
 11
1668.963
 21
-1115.899
 31
0
 0
ARC
 8
TOOL_0
 5
8B
 10
1508.963
 20
-1115.899
 30
0
 40
160.0
 50
0
 51
90.0
210
0
220
0
230
1.0
 0
LINE
 8
TOOL_0
 5
8C
 10
1508.963
 20
-955.899
 30
0
 11
878.963
 21
-955.899
 31
0
 0
ARC
 8
TOOL_0
 5
8D
 10
878.963
 20
-1115.899
 30
0
 40
160.0
 50
90.0
 51
180.0
210
0
220
0
230
1.0
 0
LINE
 8
TOOL_0
 5
8E
 10
718.963
 20
-1115.899
 30
0
 11
718.963
 21
-1745.899
 31
0
 0
ARC
 8
TOOL_0
 5
8F
 10
878.963
 20
-1745.899
 30
0
 40
160.0
 50
180.0
 51
270.0
210
0
220
0
230
1.0
 0
LINE
 8
TOOL_0
 5
90
 10
878.963
 20
-1905.899
 30
0
 11
1508.963
 21
-1905.899
 31
0
 0
ARC
 8
TOOL_0
 5
91
 10
1508.963
 20
-1745.899
 30
0
 40
160.0
 50
270.0
 51
314.999493571692
210
0
220
0
230
1.0
 0
ARC
 8
TOOL_0
 5
92
 10
1616.443
 20
-1853.38
 30
0
 40
7.999499046815
 50
314.994935403575
 51
12.298855169879
210
0
220
0
230
1.0
 0
LINE
 8
TOOL_0
 5
93
 10
1624.259
 20
-1851.676
 30
0
 11
1836.462
 21
-2090.899
 31
0
 0
LINE
 8
TOOL_0
 5
94
 10
1836.462
 20
-2090.899
 30
0
 11
1828.962
 21
-2090.899
 31
0
 0
LINE
 8
TOOL_0
 5
95
 10
1828.962
 20
-2090.899
 30
0
 11
1678.962
 21
-2090.899
 31
0
 0
LINE
 8
TOOL_0
 5
96
 10
1678.962
 20
-2090.899
 30
0
 11
1678.962
 21
-2060.899
 31
0
 0
LINE
 8
TOOL_0
 5
97
 10
1678.962
 20
-2060.899
 30
0
 11
1648.962
 21
-2060.899
 31
0
 0
LINE
 8
TOOL_0
 5
98
 10
1648.962
 20
-2060.899
 30
0
 11
1648.962
 21
-2090.899
 31
0
 0
LINE
 8
TOOL_0
 5
99
 10
1648.962
 20
-2090.899
 30
0
 11
1208.962
 21
-2090.899
 31
0
 0
LINE
 8
TOOL_0
 5
9A
 10
1208.962
 20
-2090.899
 30
0
 11
1208.962
 21
-2060.899
 31
0
 0
LINE
 8
TOOL_0
 5
9B
 10
1208.962
 20
-2060.899
 30
0
 11
1178.962
 21
-2060.899
 31
0
 0
LINE
 8
TOOL_0
 5
9C
 10
1178.962
 20
-2060.899
 30
0
 11
1178.962
 21
-2090.899
 31
0
 0
LINE
 8
TOOL_0
 5
9D
 10
1178.962
 20
-2090.899
 30
0
 11
738.962
 21
-2090.899
 31
0
 0
LINE
 8
TOOL_0
 5
9E
 10
738.962
 20
-2090.899
 30
0
 11
738.962
 21
-2060.899
 31
0
 0
LINE
 8
TOOL_0
 5
9F
 10
738.962
 20
-2060.899
 30
0
 11
708.962
 21
-2060.899
 31
0
 0
LINE
 8
TOOL_0
 5
A0
 10
708.962
 20
-2060.899
 30
0
 11
708.962
 21
-2090.899
 31
0
 0
LINE
 8
TOOL_0
 5
A1
 10
708.962
 20
-2090.899
 30
0
 11
558.962
 21
-2090.899
 31
0
 0
LINE
 8
TOOL_0
 5
A2
 10
558.962
 20
-2090.899
 30
0
 11
558.962
 21
-1940.899
 31
0
 0
LINE
 8
TOOL_0
 5
A3
 10
558.962
 20
-1940.899
 30
0
 11
588.962
 21
-1940.899
 31
0
 0
LINE
 8
TOOL_0
 5
A4
 10
588.962
 20
-1940.899
 30
0
 11
588.962
 21
-1910.899
 31
0
 0
LINE
 8
TOOL_0
 5
A5
 10
588.962
 20
-1910.899
 30
0
 11
558.962
 21
-1910.899
 31
0
 0
LINE
 8
TOOL_0
 5
A6
 10
558.962
 20
-1910.899
 30
0
 11
558.962
 21
-1050.899
 31
0
 0
LINE
 8
TOOL_0
 5
A7
 10
558.962
 20
-1050.899
 30
0
 11
578.962
 21
-1030.899
 31
0
 0
LINE
 8
TOOL_0
 5
A8
 10
578.962
 20
-1030.899
 30
0
 11
593.962
 21
-1030.899
 31
0
 0
LINE
 8
TOOL_0
 5
A9
 10
593.962
 20
-1030.899
 30
0
 11
593.962
 21
-910.899
 31
0
 0
LINE
 8
TOOL_0
 5
AA
 10
593.962
 20
-910.899
 30
0
 11
613.962
 21
-890.899
 31
0
 0
LINE
 8
TOOL_0
 5
AB
 10
613.962
 20
-890.899
 30
0
 11
648.962
 21
-890.899
 31
0
 0
LINE
 8
TOOL_0
 5
AC
 10
648.962
 20
-890.899
 30
0
 11
648.962
 21
-790.899
 31
0
 0
LINE
 8
TOOL_0
 5
AD
 10
648.962
 20
-790.899
 30
0
 11
668.962
 21
-770.899
 31
0
 0
LINE
 8
TOOL_0
 5
AE
 10
668.962
 20
-770.899
 30
0
 11
808.962
 21
-770.899
 31
0
 0
LINE
 8
TOOL_0
 5
AF
 10
808.962
 20
-770.899
 30
0
 11
828.962
 21
-790.899
 31
0
 0
LINE
 8
TOOL_0
 5
B0
 10
828.962
 20
-790.899
 30
0
 11
1558.962
 21
-790.899
 31
0
 0
LINE
 8
TOOL_0
 5
B1
 10
1558.962
 20
-790.899
 30
0
 11
1578.962
 21
-770.899
 31
0
 0
LINE
 8
TOOL_0
 5
B2
 10
1578.962
 20
-770.899
 30
0
 11
1718.962
 21
-770.899
 31
0
 0
LINE
 8
TOOL_0
 5
B3
 10
1718.962
 20
-770.899
 30
0
 11
1738.962
 21
-790.899
 31
0
 0
LINE
 8
TOOL_0
 5
B4
 10
1738.962
 20
-790.899
 30
0
 11
1738.962
 21
-890.899
 31
0
 0
LINE
 8
TOOL_0
 5
B5
 10
1738.962
 20
-890.899
 30
0
 11
1773.962
 21
-890.899
 31
0
 0
LINE
 8
TOOL_0
 5
B6
 10
1773.962
 20
-890.899
 30
0
 11
1793.962
 21
-910.899
 31
0
 0
LINE
 8
TOOL_0
 5
B7
 10
1793.962
 20
-910.899
 30
0
 11
1793.962
 21
-1030.899
 31
0
 0
LINE
 8
TOOL_0
 5
B8
 10
1793.962
 20
-1030.899
 30
0
 11
1808.962
 21
-1030.899
 31
0
 0
LINE
 8
TOOL_0
 5
B9
 10
1808.962
 20
-1030.899
 30
0
 11
1828.962
 21
-1050.899
 31
0
 0
LINE
 8
TOOL_0
 5
BA
 10
1828.962
 20
-1050.899
 30
0
 11
1828.962
 21
-1910.899
 31
0
 0
LINE
 8
TOOL_0
 5
BB
 10
1828.962
 20
-1910.899
 30
0
 11
1798.962
 21
-1910.899
 31
0
 0
LINE
 8
TOOL_0
 5
BC
 10
1798.962
 20
-1910.899
 30
0
 11
1798.962
 21
-1940.899
 31
0
 0
LINE
 8
TOOL_0
 5
BD
 10
1798.962
 20
-1940.899
 30
0
 11
1828.962
 21
-1940.899
 31
0
 0
LINE
 8
TOOL_0
 5
BE
 10
1828.962
 20
-1940.899
 30
0
 11
1828.962
 21
-2090.899
 31
0
 0
LINE
 8
TOOL_0
 5
BF
 10
1828.962
 20
-2090.899
 30
0
 11
1828.962
 21
-2094.899
 31
0
 0
LINE
 8
TOOL_0
 5
C0
 10
1828.962
 20
-2094.899
 30
0
 11
1676.485
 21
-761.439
 31
0
 0
ARC
 8
TOOL_0
 5
C1
 10
1666.747
 20
-759.167
 30
0
 40
9.99953138902
 50
346.867093685725
 51
90.0
210
0
220
0
230
1.0
 0
LINE
 8
TOOL_0
 5
C2
 10
1666.747
 20
-749.167
 30
0
 11
1181.747
 21
-749.167
 31
0
 0
LINE
 8
TOOL_0
 5
C3
 10
1181.747
 20
-749.167
 30
0
 11
1181.747
 21
-209.167
 31
0
 0
LINE
 8
TOOL_0
 5
C4
 10
1181.747
 20
-209.167
 30
0
 11
1666.747
 21
-209.167
 31
0
 0
LINE
 8
TOOL_0
 5
C5
 10
1666.747
 20
-209.167
 30
0
 11
1666.747
 21
-749.167
 31
0
 0
LINE
 8
TOOL_0
 5
C6
 10
1666.747
 20
-749.167
 30
0
 11
1672.404
 21
-754.824
 31
0
 0
LINE
 8
TOOL_0
 5
C7
 10
1672.404
 20
-754.824
 30
0
 11
1666.746
 21
-26.167
 31
0
 0
LINE
 8
TOOL_0
 5
C8
 10
1666.746
 20
-26.167
 30
0
 11
1666.746
 21
-41.167
 31
0
 0
LINE
 8
TOOL_0
 5
C9
 10
1666.746
 20
-41.167
 30
0
 11
1666.746
 21
-191.167
 31
0
 0
LINE
 8
TOOL_0
 5
CA
 10
1666.746
 20
-191.167
 30
0
 11
1181.746
 21
-191.167
 31
0
 0
LINE
 8
TOOL_0
 5
CB
 10
1181.746
 20
-191.167
 30
0
 11
1181.746
 21
-41.167
 31
0
 0
LINE
 8
TOOL_0
 5
CC
 10
1181.746
 20
-41.167
 30
0
 11
1666.746
 21
-41.167
 31
0
 0
LINE
 8
TOOL_0
 5
CD
 10
1666.746
 20
-41.167
 30
0
 11
1674.746
 21
-41.167
 31
0
 0
LINE
 8
TOOL_0
 5
CE
 10
1674.746
 20
-41.167
 30
0
 11
2179.485
 21
-761.439
 31
0
 0
ARC
 8
TOOL_0
 5
CF
 10
2169.746
 20
-759.167
 30
0
 40
10.000505237237
 50
346.868395441071
 51
90.0
210
0
220
0
230
1.0
 0
LINE
 8
TOOL_0
 5
D0
 10
2169.746
 20
-749.167
 30
0
 11
1684.746
 21
-749.167
 31
0
 0
LINE
 8
TOOL_0
 5
D1
 10
1684.746
 20
-749.167
 30
0
 11
1684.746
 21
-209.167
 31
0
 0
LINE
 8
TOOL_0
 5
D2
 10
1684.746
 20
-209.167
 30
0
 11
2169.746
 21
-209.167
 31
0
 0
LINE
 8
TOOL_0
 5
D3
 10
2169.746
 20
-209.167
 30
0
 11
2169.746
 21
-749.167
 31
0
 0
LINE
 8
TOOL_0
 5
D4
 10
2169.746
 20
-749.167
 30
0
 11
2175.403
 21
-754.824
 31
0
 0
LINE
 8
TOOL_0
 5
D5
 10
2175.403
 20
-754.824
 30
0
 11
2169.746
 21
-26.167
 31
0
 0
LINE
 8
TOOL_0
 5
D6
 10
2169.746
 20
-26.167
 30
0
 11
2169.746
 21
-41.167
 31
0
 0
LINE
 8
TOOL_0
 5
D7
 10
2169.746
 20
-41.167
 30
0
 11
2169.746
 21
-191.167
 31
0
 0
LINE
 8
TOOL_0
 5
D8
 10
2169.746
 20
-191.167
 30
0
 11
1684.746
 21
-191.167
 31
0
 0
LINE
 8
TOOL_0
 5
D9
 10
1684.746
 20
-191.167
 30
0
 11
1684.746
 21
-41.167
 31
0
 0
LINE
 8
TOOL_0
 5
DA
 10
1684.746
 20
-41.167
 30
0
 11
2169.746
 21
-41.167
 31
0
 0
LINE
 8
TOOL_0
 5
DB
 10
2169.746
 20
-41.167
 30
0
 11
2177.746
 21
-41.167
 31
0
 0
LINE
 8
TOOL_0
 5
DC
 10
2177.746
 20
-41.167
 30
0
 11
2745.141
 21
-1715.042
 31
0
 0
LINE
 8
TOOL_0
 5
DD
 10
2745.141
 20
-1715.042
 30
0
 11
2730.141
 21
-1715.042
 31
0
 0
LINE
 8
TOOL_0
 5
DE
 10
2730.141
 20
-1715.042
 30
0
 11
2190.141
 21
-1715.042
 31
0
 0
LINE
 8
TOOL_0
 5
DF
 10
2190.141
 20
-1715.042
 30
0
 11
2190.141
 21
-1230.042
 31
0
 0
LINE
 8
TOOL_0
 5
E0
 10
2190.141
 20
-1230.042
 30
0
 11
2730.141
 21
-1230.042
 31
0
 0
LINE
 8
TOOL_0
 5
E1
 10
2730.141
 20
-1230.042
 30
0
 11
2730.141
 21
-1715.042
 31
0
 0
LINE
 8
TOOL_0
 5
E2
 10
2730.141
 20
-1715.042
 30
0
 11
2730.141
 21
-1723.042
 31
0
 0
LINE
 8
TOOL_0
 5
E3
 10
2730.141
 20
-1723.042
 30
0
 11
2686.429
 21
-1014.634
 31
0
 0
LINE
 8
TOOL_0
 5
E4
 10
2686.429
 20
-1014.634
 30
0
 11
2686.429
 21
-1029.634
 31
0
 0
LINE
 8
TOOL_0
 5
E5
 10
2686.429
 20
-1029.634
 30
0
 11
2686.429
 21
-1179.634
 31
0
 0
LINE
 8
TOOL_0
 5
E6
 10
2686.429
 20
-1179.634
 30
0
 11
2201.429
 21
-1179.634
 31
0
 0
LINE
 8
TOOL_0
 5
E7
 10
2201.429
 20
-1179.634
 30
0
 11
2201.429
 21
-1029.634
 31
0
 0
LINE
 8
TOOL_0
 5
E8
 10
2201.429
 20
-1029.634
 30
0
 11
2686.429
 21
-1029.634
 31
0
 0
LINE
 8
TOOL_0
 5
E9
 10
2686.429
 20
-1029.634
 30
0
 11
2694.429
 21
-1029.634
 31
0
 0
LINE
 8
TOOL_0
 5
EA
 10
2694.429
 20
-1029.634
 30
0
 11
2555.39
 21
-1970.899
 31
0
 0
LINE
 8
TOOL_0
 5
EB
 10
2555.39
 20
-1970.899
 30
0
 11
2605.39
 21
-1970.899
 31
0
 0
ARC
 8
TOOL_0
 5
EC
 10
2580.39
 20
-1970.899
 30
0
 40
25.0
 50
0
 51
90.0
210
0
220
0
230
1.0
 0
LINE
 8
TOOL_0
 5
ED
 10
2580.39
 20
-1945.899
 30
0
 11
2380.39
 21
-1945.899
 31
0
 0
ARC
 8
TOOL_0
 5
EE
 10
2380.39
 20
-1970.899
 30
0
 40
25.0
 50
90.0
 51
270.0
210
0
220
0
230
1.0
 0
LINE
 8
TOOL_0
 5
EF
 10
2380.39
 20
-1995.899
 30
0
 11
2580.39
 21
-1995.899
 31
0
 0
ARC
 8
TOOL_0
 5
F0
 10
2580.39
 20
-1970.899
 30
0
 40
25.0
 50
270.0
 51
0
210
0
220
0
230
1.0
 0
ARC
 8
TOOL_0
 5
F1
 10
2597.39
 20
-1970.899
 30
0
 40
8.0
 50
0
 51
57.299199559756
210
0
220
0
230
1.0
 0
LINE
 8
TOOL_0
 5
F2
 10
2601.712
 20
-1964.167
 30
0
 11
2873.171
 21
-1823.681
 31
0
 0
LINE
 8
TOOL_0
 5
F3
 10
2873.171
 20
-1823.681
 30
0
 11
2908.527
 21
-1859.036
 31
0
 0
ARC
 8
TOOL_0
 5
F4
 10
2795.39
 20
-1745.899
 30
0
 40
159.999879806205
 50
315.0
 51
359.999641901378
210
0
220
0
230
1.0
 0
LINE
 8
TOOL_0
 5
F5
 10
2955.39
 20
-1745.9
 30
0
 11
2955.39
 21
-1115.899
 31
0
 0
ARC
 8
TOOL_0
 5
F6
 10
2795.39
 20
-1115.899
 30
0
 40
160.0
 50
0
 51
90.0
210
0
220
0
230
1.0
 0
LINE
 8
TOOL_0
 5
F7
 10
2795.39
 20
-955.899
 30
0
 11
2165.39
 21
-955.899
 31
0
 0
ARC
 8
TOOL_0
 5
F8
 10
2165.39
 20
-1115.899
 30
0
 40
160.0
 50
90.0
 51
180.0
210
0
220
0
230
1.0
 0
LINE
 8
TOOL_0
 5
F9
 10
2005.39
 20
-1115.899
 30
0
 11
2005.39
 21
-1745.899
 31
0
 0
ARC
 8
TOOL_0
 5
FA
 10
2165.39
 20
-1745.899
 30
0
 40
160.0
 50
180.0
 51
270.0
210
0
220
0
230
1.0
 0
LINE
 8
TOOL_0
 5
FB
 10
2165.39
 20
-1905.899
 30
0
 11
2795.39
 21
-1905.899
 31
0
 0
ARC
 8
TOOL_0
 5
FC
 10
2795.39
 20
-1745.899
 30
0
 40
160.0
 50
270.0
 51
314.999493571692
210
0
220
0
230
1.0
 0
ARC
 8
TOOL_0
 5
FD
 10
2902.87
 20
-1853.38
 30
0
 40
7.999499046815
 50
314.994935403575
 51
12.29885516988
210
0
220
0
230
1.0
 0
LINE
 8
TOOL_0
 5
FE
 10
2910.686
 20
-1851.676
 30
0
 11
3130.39
 21
-2090.899
 31
0
 0
LINE
 8
TOOL_0
 5
FF
 10
3130.39
 20
-2090.899
 30
0
 11
3115.39
 21
-2090.899
 31
0
 0
LINE
 8
TOOL_0
 5
100
 10
3115.39
 20
-2090.899
 30
0
 11
2965.39
 21
-2090.899
 31
0
 0
LINE
 8
TOOL_0
 5
101
 10
2965.39
 20
-2090.899
 30
0
 11
2965.39
 21
-2060.899
 31
0
 0
LINE
 8
TOOL_0
 5
102
 10
2965.39
 20
-2060.899
 30
0
 11
2935.39
 21
-2060.899
 31
0
 0
LINE
 8
TOOL_0
 5
103
 10
2935.39
 20
-2060.899
 30
0
 11
2935.39
 21
-2090.899
 31
0
 0
LINE
 8
TOOL_0
 5
104
 10
2935.39
 20
-2090.899
 30
0
 11
2495.39
 21
-2090.899
 31
0
 0
LINE
 8
TOOL_0
 5
105
 10
2495.39
 20
-2090.899
 30
0
 11
2495.39
 21
-2060.899
 31
0
 0
LINE
 8
TOOL_0
 5
106
 10
2495.39
 20
-2060.899
 30
0
 11
2465.39
 21
-2060.899
 31
0
 0
LINE
 8
TOOL_0
 5
107
 10
2465.39
 20
-2060.899
 30
0
 11
2465.39
 21
-2090.899
 31
0
 0
LINE
 8
TOOL_0
 5
108
 10
2465.39
 20
-2090.899
 30
0
 11
2025.39
 21
-2090.899
 31
0
 0
LINE
 8
TOOL_0
 5
109
 10
2025.39
 20
-2090.899
 30
0
 11
2025.39
 21
-2060.899
 31
0
 0
LINE
 8
TOOL_0
 5
10A
 10
2025.39
 20
-2060.899
 30
0
 11
1995.39
 21
-2060.899
 31
0
 0
LINE
 8
TOOL_0
 5
10B
 10
1995.39
 20
-2060.899
 30
0
 11
1995.39
 21
-2090.899
 31
0
 0
LINE
 8
TOOL_0
 5
10C
 10
1995.39
 20
-2090.899
 30
0
 11
1845.39
 21
-2090.899
 31
0
 0
LINE
 8
TOOL_0
 5
10D
 10
1845.39
 20
-2090.899
 30
0
 11
1845.39
 21
-1940.899
 31
0
 0
LINE
 8
TOOL_0
 5
10E
 10
1845.39
 20
-1940.899
 30
0
 11
1875.39
 21
-1940.899
 31
0
 0
LINE
 8
TOOL_0
 5
10F
 10
1875.39
 20
-1940.899
 30
0
 11
1875.39
 21
-1910.899
 31
0
 0
LINE
 8
TOOL_0
 5
110
 10
1875.39
 20
-1910.899
 30
0
 11
1845.39
 21
-1910.899
 31
0
 0
LINE
 8
TOOL_0
 5
111
 10
1845.39
 20
-1910.899
 30
0
 11
1845.39
 21
-1050.899
 31
0
 0
LINE
 8
TOOL_0
 5
112
 10
1845.39
 20
-1050.899
 30
0
 11
1865.39
 21
-1030.899
 31
0
 0
LINE
 8
TOOL_0
 5
113
 10
1865.39
 20
-1030.899
 30
0
 11
1880.39
 21
-1030.899
 31
0
 0
LINE
 8
TOOL_0
 5
114
 10
1880.39
 20
-1030.899
 30
0
 11
1880.39
 21
-910.899
 31
0
 0
LINE
 8
TOOL_0
 5
115
 10
1880.39
 20
-910.899
 30
0
 11
1900.39
 21
-890.899
 31
0
 0
LINE
 8
TOOL_0
 5
116
 10
1900.39
 20
-890.899
 30
0
 11
1935.39
 21
-890.899
 31
0
 0
LINE
 8
TOOL_0
 5
117
 10
1935.39
 20
-890.899
 30
0
 11
1935.39
 21
-790.899
 31
0
 0
LINE
 8
TOOL_0
 5
118
 10
1935.39
 20
-790.899
 30
0
 11
1955.39
 21
-770.899
 31
0
 0
LINE
 8
TOOL_0
 5
119
 10
1955.39
 20
-770.899
 30
0
 11
2095.39
 21
-770.899
 31
0
 0
LINE
 8
TOOL_0
 5
11A
 10
2095.39
 20
-770.899
 30
0
 11
2115.39
 21
-790.899
 31
0
 0
LINE
 8
TOOL_0
 5
11B
 10
2115.39
 20
-790.899
 30
0
 11
2845.39
 21
-790.899
 31
0
 0
LINE
 8
TOOL_0
 5
11C
 10
2845.39
 20
-790.899
 30
0
 11
2865.39
 21
-770.899
 31
0
 0
LINE
 8
TOOL_0
 5
11D
 10
2865.39
 20
-770.899
 30
0
 11
3005.39
 21
-770.899
 31
0
 0
LINE
 8
TOOL_0
 5
11E
 10
3005.39
 20
-770.899
 30
0
 11
3025.39
 21
-790.899
 31
0
 0
LINE
 8
TOOL_0
 5
11F
 10
3025.39
 20
-790.899
 30
0
 11
3025.39
 21
-890.899
 31
0
 0
LINE
 8
TOOL_0
 5
120
 10
3025.39
 20
-890.899
 30
0
 11
3060.39
 21
-890.899
 31
0
 0
LINE
 8
TOOL_0
 5
121
 10
3060.39
 20
-890.899
 30
0
 11
3080.39
 21
-910.899
 31
0
 0
LINE
 8
TOOL_0
 5
122
 10
3080.39
 20
-910.899
 30
0
 11
3080.39
 21
-1030.899
 31
0
 0
LINE
 8
TOOL_0
 5
123
 10
3080.39
 20
-1030.899
 30
0
 11
3095.39
 21
-1030.899
 31
0
 0
LINE
 8
TOOL_0
 5
124
 10
3095.39
 20
-1030.899
 30
0
 11
3115.39
 21
-1050.899
 31
0
 0
LINE
 8
TOOL_0
 5
125
 10
3115.39
 20
-1050.899
 30
0
 11
3115.39
 21
-1910.899
 31
0
 0
LINE
 8
TOOL_0
 5
126
 10
3115.39
 20
-1910.899
 30
0
 11
3085.39
 21
-1910.899
 31
0
 0
LINE
 8
TOOL_0
 5
127
 10
3085.39
 20
-1910.899
 30
0
 11
3085.39
 21
-1940.899
 31
0
 0
LINE
 8
TOOL_0
 5
128
 10
3085.39
 20
-1940.899
 30
0
 11
3115.39
 21
-1940.899
 31
0
 0
LINE
 8
TOOL_0
 5
129
 10
3115.39
 20
-1940.899
 30
0
 11
3115.39
 21
-2090.899
 31
0
 0
LINE
 8
TOOL_0
 5
12A
 10
3115.39
 20
-2090.899
 30
0
 11
3115.39
 21
-2098.899
 31
0
 0
LINE
 8
TOOL_0
 5
12B
 10
3115.39
 20
-2098.899
 30
0
 11
2682.485
 21
-761.439
 31
0
 0
ARC
 8
TOOL_0
 5
12C
 10
2672.746
 20
-759.167
 30
0
 40
10.000505237237
 50
346.868395441071
 51
90.0
210
0
220
0
230
1.0
 0
LINE
 8
TOOL_0
 5
12D
 10
2672.746
 20
-749.167
 30
0
 11
2187.746
 21
-749.167
 31
0
 0
LINE
 8
TOOL_0
 5
12E
 10
2187.746
 20
-749.167
 30
0
 11
2187.746
 21
-209.167
 31
0
 0
LINE
 8
TOOL_0
 5
12F
 10
2187.746
 20
-209.167
 30
0
 11
2672.746
 21
-209.167
 31
0
 0
LINE
 8
TOOL_0
 5
130
 10
2672.746
 20
-209.167
 30
0
 11
2672.746
 21
-749.167
 31
0
 0
LINE
 8
TOOL_0
 5
131
 10
2672.746
 20
-749.167
 30
0
 11
2678.403
 21
-754.824
 31
0
 0
LINE
 8
TOOL_0
 5
132
 10
2678.403
 20
-754.824
 30
0
 11
2672.746
 21
-26.167
 31
0
 0
LINE
 8
TOOL_0
 5
133
 10
2672.746
 20
-26.167
 30
0
 11
2672.746
 21
-41.167
 31
0
 0
LINE
 8
TOOL_0
 5
134
 10
2672.746
 20
-41.167
 30
0
 11
2672.746
 21
-191.167
 31
0
 0
LINE
 8
TOOL_0
 5
135
 10
2672.746
 20
-191.167
 30
0
 11
2187.746
 21
-191.167
 31
0
 0
LINE
 8
TOOL_0
 5
136
 10
2187.746
 20
-191.167
 30
0
 11
2187.746
 21
-41.167
 31
0
 0
LINE
 8
TOOL_0
 5
137
 10
2187.746
 20
-41.167
 30
0
 11
2672.746
 21
-41.167
 31
0
 0
LINE
 8
TOOL_0
 5
138
 10
2672.746
 20
-41.167
 30
0
 11
2680.746
 21
-41.167
 31
0
 0
LINE
 8
TOOL_0
 5
139
 10
2680.746
 20
-41.167
 30
0
 11
3185.484
 21
-761.439
 31
0
 0
ARC
 8
TOOL_0
 5
13A
 10
3175.746
 20
-759.167
 30
0
 40
9.99953138902
 50
346.867093685725
 51
90.0
210
0
220
0
230
1.0
 0
LINE
 8
TOOL_0
 5
13B
 10
3175.746
 20
-749.167
 30
0
 11
2690.746
 21
-749.167
 31
0
 0
LINE
 8
TOOL_0
 5
13C
 10
2690.746
 20
-749.167
 30
0
 11
2690.746
 21
-209.167
 31
0
 0
LINE
 8
TOOL_0
 5
13D
 10
2690.746
 20
-209.167
 30
0
 11
3175.746
 21
-209.167
 31
0
 0
LINE
 8
TOOL_0
 5
13E
 10
3175.746
 20
-209.167
 30
0
 11
3175.746
 21
-749.167
 31
0
 0
LINE
 8
TOOL_0
 5
13F
 10
3175.746
 20
-749.167
 30
0
 11
3181.403
 21
-754.824
 31
0
 0
LINE
 8
TOOL_0
 5
140
 10
3181.403
 20
-754.824
 30
0
 11
3175.746
 21
-26.167
 31
0
 0
LINE
 8
TOOL_0
 5
141
 10
3175.746
 20
-26.167
 30
0
 11
3175.746
 21
-41.167
 31
0
 0
LINE
 8
TOOL_0
 5
142
 10
3175.746
 20
-41.167
 30
0
 11
3175.746
 21
-191.167
 31
0
 0
LINE
 8
TOOL_0
 5
143
 10
3175.746
 20
-191.167
 30
0
 11
2690.746
 21
-191.167
 31
0
 0
LINE
 8
TOOL_0
 5
144
 10
2690.746
 20
-191.167
 30
0
 11
2690.746
 21
-41.167
 31
0
 0
LINE
 8
TOOL_0
 5
145
 10
2690.746
 20
-41.167
 30
0
 11
3175.746
 21
-41.167
 31
0
 0
LINE
 8
TOOL_0
 5
146
 10
3175.746
 20
-41.167
 30
0
 11
3183.746
 21
-41.167
 31
0
 0
LINE
 8
TOOL_0
 5
147
 10
3183.746
 20
-41.167
 30
0
 11
3959.024
 21
-1822.203
 31
0
 0
LINE
 8
TOOL_0
 5
148
 10
3959.024
 20
-1822.203
 30
0
 11
3944.024
 21
-1822.203
 31
0
 0
LINE
 8
TOOL_0
 5
149
 10
3944.024
 20
-1822.203
 30
0
 11
3459.024
 21
-1822.203
 31
0
 0
LINE
 8
TOOL_0
 5
14A
 10
3459.024
 20
-1822.203
 30
0
 11
3459.024
 21
-1282.203
 31
0
 0
LINE
 8
TOOL_0
 5
14B
 10
3459.024
 20
-1282.203
 30
0
 11
3944.024
 21
-1282.203
 31
0
 0
LINE
 8
TOOL_0
 5
14C
 10
3944.024
 20
-1282.203
 30
0
 11
3944.024
 21
-1822.203
 31
0
 0
LINE
 8
TOOL_0
 5
14D
 10
3944.024
 20
-1822.203
 30
0
 11
3944.024
 21
-1830.203
 31
0
 0
LINE
 8
TOOL_0
 5
14E
 10
3944.024
 20
-1830.203
 30
0
 11
3947.375
 21
-1032.416
 31
0
 0
LINE
 8
TOOL_0
 5
14F
 10
3947.375
 20
-1032.416
 30
0
 11
3947.375
 21
-1047.416
 31
0
 0
LINE
 8
TOOL_0
 5
150
 10
3947.375
 20
-1047.416
 30
0
 11
3947.375
 21
-1197.416
 31
0
 0
LINE
 8
TOOL_0
 5
151
 10
3947.375
 20
-1197.416
 30
0
 11
3462.375
 21
-1197.416
 31
0
 0
LINE
 8
TOOL_0
 5
152
 10
3462.375
 20
-1197.416
 30
0
 11
3462.375
 21
-1047.416
 31
0
 0
LINE
 8
TOOL_0
 5
153
 10
3462.375
 20
-1047.416
 30
0
 11
3947.375
 21
-1047.416
 31
0
 0
LINE
 8
TOOL_0
 5
154
 10
3947.375
 20
-1047.416
 30
0
 11
3955.375
 21
-1047.416
 31
0
 0
LINE
 8
TOOL_0
 5
155
 10
3955.375
 20
-1047.416
 30
0
 11
3688.484
 21
-761.439
 31
0
 0
ARC
 8
TOOL_0
 5
156
 10
3678.746
 20
-759.167
 30
0
 40
9.99953138902
 50
346.867093685725
 51
90.0
210
0
220
0
230
1.0
 0
LINE
 8
TOOL_0
 5
157
 10
3678.746
 20
-749.167
 30
0
 11
3193.746
 21
-749.167
 31
0
 0
LINE
 8
TOOL_0
 5
158
 10
3193.746
 20
-749.167
 30
0
 11
3193.746
 21
-209.167
 31
0
 0
LINE
 8
TOOL_0
 5
159
 10
3193.746
 20
-209.167
 30
0
 11
3678.746
 21
-209.167
 31
0
 0
LINE
 8
TOOL_0
 5
15A
 10
3678.746
 20
-209.167
 30
0
 11
3678.746
 21
-749.167
 31
0
 0
LINE
 8
TOOL_0
 5
15B
 10
3678.746
 20
-749.167
 30
0
 11
3684.403
 21
-754.824
 31
0
 0
LINE
 8
TOOL_0
 5
15C
 10
3684.403
 20
-754.824
 30
0
 11
3678.747
 21
-26.167
 31
0
 0
LINE
 8
TOOL_0
 5
15D
 10
3678.747
 20
-26.167
 30
0
 11
3678.747
 21
-41.167
 31
0
 0
LINE
 8
TOOL_0
 5
15E
 10
3678.747
 20
-41.167
 30
0
 11
3678.747
 21
-191.167
 31
0
 0
LINE
 8
TOOL_0
 5
15F
 10
3678.747
 20
-191.167
 30
0
 11
3193.747
 21
-191.167
 31
0
 0
LINE
 8
TOOL_0
 5
160
 10
3193.747
 20
-191.167
 30
0
 11
3193.747
 21
-41.167
 31
0
 0
LINE
 8
TOOL_0
 5
161
 10
3193.747
 20
-41.167
 30
0
 11
3678.747
 21
-41.167
 31
0
 0
LINE
 8
TOOL_0
 5
162
 10
3678.747
 20
-41.167
 30
0
 11
3686.747
 21
-41.167
 31
0
 0
LINE
 8
TOOL_0
 5
163
 10
3686.747
 20
-41.167
 30
0
 11
4185.118
 21
-1722.432
 31
0
 0
LINE
 8
TOOL_0
 5
164
 10
4185.118
 20
-1722.432
 30
0
 11
4170.118
 21
-1722.432
 31
0
 0
LINE
 8
TOOL_0
 5
165
 10
4170.118
 20
-1722.432
 30
0
 11
4020.118
 21
-1722.432
 31
0
 0
LINE
 8
TOOL_0
 5
166
 10
4020.118
 20
-1722.432
 30
0
 11
4020.118
 21
-1237.432
 31
0
 0
LINE
 8
TOOL_0
 5
167
 10
4020.118
 20
-1237.432
 30
0
 11
4170.118
 21
-1237.432
 31
0
 0
LINE
 8
TOOL_0
 5
168
 10
4170.118
 20
-1237.432
 30
0
 11
4170.118
 21
-1722.432
 31
0
 0
LINE
 8
TOOL_0
 5
169
 10
4170.118
 20
-1722.432
 30
0
 11
4170.118
 21
-1730.432
 31
0
 0
LINE
 8
TOOL_0
 5
16A
 10
4170.118
 20
-1730.432
 30
0
 11
3845.053
 21
-1970.899
 31
0
 0
LINE
 8
TOOL_0
 5
16B
 10
3845.053
 20
-1970.899
 30
0
 11
3895.053
 21
-1970.899
 31
0
 0
ARC
 8
TOOL_0
 5
16C
 10
3870.053
 20
-1970.899
 30
0
 40
25.0
 50
0
 51
90.0
210
0
220
0
230
1.0
 0
LINE
 8
TOOL_0
 5
16D
 10
3870.053
 20
-1945.899
 30
0
 11
3670.053
 21
-1945.899
 31
0
 0
ARC
 8
TOOL_0
 5
16E
 10
3670.053
 20
-1970.899
 30
0
 40
25.0
 50
90.0
 51
270.0
210
0
220
0
230
1.0
 0
LINE
 8
TOOL_0
 5
16F
 10
3670.053
 20
-1995.899
 30
0
 11
3870.053
 21
-1995.899
 31
0
 0
ARC
 8
TOOL_0
 5
170
 10
3870.053
 20
-1970.899
 30
0
 40
25.0
 50
270.0
 51
0
210
0
220
0
230
1.0
 0
ARC
 8
TOOL_0
 5
171
 10
3887.053
 20
-1970.899
 30
0
 40
8.0
 50
0
 51
57.299199559756
210
0
220
0
230
1.0
 0
LINE
 8
TOOL_0
 5
172
 10
3891.375
 20
-1964.167
 30
0
 11
4162.834
 21
-1823.681
 31
0
 0
LINE
 8
TOOL_0
 5
173
 10
4162.834
 20
-1823.681
 30
0
 11
4198.189
 21
-1859.036
 31
0
 0
ARC
 8
TOOL_0
 5
174
 10
4085.052
 20
-1745.899
 30
0
 40
159.999879806205
 50
315.0
 51
359.999641901378
210
0
220
0
230
1.0
 0
LINE
 8
TOOL_0
 5
175
 10
4245.052
 20
-1745.9
 30
0
 11
4245.052
 21
-1115.899
 31
0
 0
ARC
 8
TOOL_0
 5
176
 10
4085.052
 20
-1115.899
 30
0
 40
160.0
 50
0
 51
90.0
210
0
220
0
230
1.0
 0
LINE
 8
TOOL_0
 5
177
 10
4085.052
 20
-955.899
 30
0
 11
3455.052
 21
-955.899
 31
0
 0
ARC
 8
TOOL_0
 5
178
 10
3455.052
 20
-1115.899
 30
0
 40
160.0
 50
90.0
 51
180.0
210
0
220
0
230
1.0
 0
LINE
 8
TOOL_0
 5
179
 10
3295.052
 20
-1115.899
 30
0
 11
3295.052
 21
-1745.899
 31
0
 0
ARC
 8
TOOL_0
 5
17A
 10
3455.052
 20
-1745.899
 30
0
 40
160.0
 50
180.0
 51
270.0
210
0
220
0
230
1.0
 0
LINE
 8
TOOL_0
 5
17B
 10
3455.052
 20
-1905.899
 30
0
 11
4085.052
 21
-1905.899
 31
0
 0
ARC
 8
TOOL_0
 5
17C
 10
4085.052
 20
-1745.899
 30
0
 40
160.0
 50
270.0
 51
314.999493571692
210
0
220
0
230
1.0
 0
ARC
 8
TOOL_0
 5
17D
 10
4192.532
 20
-1853.38
 30
0
 40
7.999499046815
 50
314.994935403575
 51
12.29885516988
210
0
220
0
230
1.0
 0
LINE
 8
TOOL_0
 5
17E
 10
4200.348
 20
-1851.676
 30
0
 11
4412.551
 21
-2090.899
 31
0
 0
LINE
 8
TOOL_0
 5
17F
 10
4412.551
 20
-2090.899
 30
0
 11
4405.051
 21
-2090.899
 31
0
 0
LINE
 8
TOOL_0
 5
180
 10
4405.051
 20
-2090.899
 30
0
 11
4255.051
 21
-2090.899
 31
0
 0
LINE
 8
TOOL_0
 5
181
 10
4255.051
 20
-2090.899
 30
0
 11
4255.051
 21
-2060.899
 31
0
 0
LINE
 8
TOOL_0
 5
182
 10
4255.051
 20
-2060.899
 30
0
 11
4225.051
 21
-2060.899
 31
0
 0
LINE
 8
TOOL_0
 5
183
 10
4225.051
 20
-2060.899
 30
0
 11
4225.051
 21
-2090.899
 31
0
 0
LINE
 8
TOOL_0
 5
184
 10
4225.051
 20
-2090.899
 30
0
 11
3785.051
 21
-2090.899
 31
0
 0
LINE
 8
TOOL_0
 5
185
 10
3785.051
 20
-2090.899
 30
0
 11
3785.051
 21
-2060.899
 31
0
 0
LINE
 8
TOOL_0
 5
186
 10
3785.051
 20
-2060.899
 30
0
 11
3755.051
 21
-2060.899
 31
0
 0
LINE
 8
TOOL_0
 5
187
 10
3755.051
 20
-2060.899
 30
0
 11
3755.051
 21
-2090.899
 31
0
 0
LINE
 8
TOOL_0
 5
188
 10
3755.051
 20
-2090.899
 30
0
 11
3315.051
 21
-2090.899
 31
0
 0
LINE
 8
TOOL_0
 5
189
 10
3315.051
 20
-2090.899
 30
0
 11
3315.051
 21
-2060.899
 31
0
 0
LINE
 8
TOOL_0
 5
18A
 10
3315.051
 20
-2060.899
 30
0
 11
3285.051
 21
-2060.899
 31
0
 0
LINE
 8
TOOL_0
 5
18B
 10
3285.051
 20
-2060.899
 30
0
 11
3285.051
 21
-2090.899
 31
0
 0
LINE
 8
TOOL_0
 5
18C
 10
3285.051
 20
-2090.899
 30
0
 11
3135.051
 21
-2090.899
 31
0
 0
LINE
 8
TOOL_0
 5
18D
 10
3135.051
 20
-2090.899
 30
0
 11
3135.051
 21
-1940.899
 31
0
 0
LINE
 8
TOOL_0
 5
18E
 10
3135.051
 20
-1940.899
 30
0
 11
3165.051
 21
-1940.899
 31
0
 0
LINE
 8
TOOL_0
 5
18F
 10
3165.051
 20
-1940.899
 30
0
 11
3165.051
 21
-1910.899
 31
0
 0
LINE
 8
TOOL_0
 5
190
 10
3165.051
 20
-1910.899
 30
0
 11
3135.051
 21
-1910.899
 31
0
 0
LINE
 8
TOOL_0
 5
191
 10
3135.051
 20
-1910.899
 30
0
 11
3135.051
 21
-1050.899
 31
0
 0
LINE
 8
TOOL_0
 5
192
 10
3135.051
 20
-1050.899
 30
0
 11
3155.051
 21
-1030.899
 31
0
 0
LINE
 8
TOOL_0
 5
193
 10
3155.051
 20
-1030.899
 30
0
 11
3170.051
 21
-1030.899
 31
0
 0
LINE
 8
TOOL_0
 5
194
 10
3170.051
 20
-1030.899
 30
0
 11
3170.051
 21
-910.899
 31
0
 0
LINE
 8
TOOL_0
 5
195
 10
3170.051
 20
-910.899
 30
0
 11
3190.051
 21
-890.899
 31
0
 0
LINE
 8
TOOL_0
 5
196
 10
3190.051
 20
-890.899
 30
0
 11
3225.051
 21
-890.899
 31
0
 0
LINE
 8
TOOL_0
 5
197
 10
3225.051
 20
-890.899
 30
0
 11
3225.051
 21
-790.899
 31
0
 0
LINE
 8
TOOL_0
 5
198
 10
3225.051
 20
-790.899
 30
0
 11
3245.051
 21
-770.899
 31
0
 0
LINE
 8
TOOL_0
 5
199
 10
3245.051
 20
-770.899
 30
0
 11
3385.051
 21
-770.899
 31
0
 0
LINE
 8
TOOL_0
 5
19A
 10
3385.051
 20
-770.899
 30
0
 11
3405.051
 21
-790.899
 31
0
 0
LINE
 8
TOOL_0
 5
19B
 10
3405.051
 20
-790.899
 30
0
 11
4135.051
 21
-790.899
 31
0
 0
LINE
 8
TOOL_0
 5
19C
 10
4135.051
 20
-790.899
 30
0
 11
4155.051
 21
-770.899
 31
0
 0
LINE
 8
TOOL_0
 5
19D
 10
4155.051
 20
-770.899
 30
0
 11
4295.051
 21
-770.899
 31
0
 0
LINE
 8
TOOL_0
 5
19E
 10
4295.051
 20
-770.899
 30
0
 11
4315.051
 21
-790.899
 31
0
 0
LINE
 8
TOOL_0
 5
19F
 10
4315.051
 20
-790.899
 30
0
 11
4315.051
 21
-890.899
 31
0
 0
LINE
 8
TOOL_0
 5
1A0
 10
4315.051
 20
-890.899
 30
0
 11
4350.051
 21
-890.899
 31
0
 0
LINE
 8
TOOL_0
 5
1A1
 10
4350.051
 20
-890.899
 30
0
 11
4370.051
 21
-910.899
 31
0
 0
LINE
 8
TOOL_0
 5
1A2
 10
4370.051
 20
-910.899
 30
0
 11
4370.051
 21
-1030.899
 31
0
 0
LINE
 8
TOOL_0
 5
1A3
 10
4370.051
 20
-1030.899
 30
0
 11
4385.051
 21
-1030.899
 31
0
 0
LINE
 8
TOOL_0
 5
1A4
 10
4385.051
 20
-1030.899
 30
0
 11
4405.051
 21
-1050.899
 31
0
 0
LINE
 8
TOOL_0
 5
1A5
 10
4405.051
 20
-1050.899
 30
0
 11
4405.051
 21
-1910.899
 31
0
 0
LINE
 8
TOOL_0
 5
1A6
 10
4405.051
 20
-1910.899
 30
0
 11
4375.051
 21
-1910.899
 31
0
 0
LINE
 8
TOOL_0
 5
1A7
 10
4375.051
 20
-1910.899
 30
0
 11
4375.051
 21
-1940.899
 31
0
 0
LINE
 8
TOOL_0
 5
1A8
 10
4375.051
 20
-1940.899
 30
0
 11
4405.051
 21
-1940.899
 31
0
 0
LINE
 8
TOOL_0
 5
1A9
 10
4405.051
 20
-1940.899
 30
0
 11
4405.051
 21
-2090.899
 31
0
 0
LINE
 8
TOOL_0
 5
1AA
 10
4405.051
 20
-2090.899
 30
0
 11
4405.051
 21
-2094.899
 31
0
 0
LINE
 8
TOOL_0
 5
1AB
 10
4405.051
 20
-2094.899
 30
0
 11
4191.483
 21
-761.439
 31
0
 0
ARC
 8
TOOL_0
 5
1AC
 10
4181.744
 20
-759.167
 30
0
 40
10.000505237236
 50
346.86839544107
 51
90.0
210
0
220
0
230
1.0
 0
LINE
 8
TOOL_0
 5
1AD
 10
4181.744
 20
-749.167
 30
0
 11
3696.744
 21
-749.167
 31
0
 0
LINE
 8
TOOL_0
 5
1AE
 10
3696.744
 20
-749.167
 30
0
 11
3696.744
 21
-209.167
 31
0
 0
LINE
 8
TOOL_0
 5
1AF
 10
3696.744
 20
-209.167
 30
0
 11
4181.744
 21
-209.167
 31
0
 0
LINE
 8
TOOL_0
 5
1B0
 10
4181.744
 20
-209.167
 30
0
 11
4181.744
 21
-749.167
 31
0
 0
LINE
 8
TOOL_0
 5
1B1
 10
4181.744
 20
-749.167
 30
0
 11
4187.401
 21
-754.824
 31
0
 0
LINE
 8
TOOL_0
 5
1B2
 10
4187.401
 20
-754.824
 30
0
 11
4181.745
 21
-26.167
 31
0
 0
LINE
 8
TOOL_0
 5
1B3
 10
4181.745
 20
-26.167
 30
0
 11
4181.745
 21
-41.167
 31
0
 0
LINE
 8
TOOL_0
 5
1B4
 10
4181.745
 20
-41.167
 30
0
 11
4181.745
 21
-191.167
 31
0
 0
LINE
 8
TOOL_0
 5
1B5
 10
4181.745
 20
-191.167
 30
0
 11
3696.745
 21
-191.167
 31
0
 0
LINE
 8
TOOL_0
 5
1B6
 10
3696.745
 20
-191.167
 30
0
 11
3696.745
 21
-41.167
 31
0
 0
LINE
 8
TOOL_0
 5
1B7
 10
3696.745
 20
-41.167
 30
0
 11
4181.745
 21
-41.167
 31
0
 0
LINE
 8
TOOL_0
 5
1B8
 10
4181.745
 20
-41.167
 30
0
 11
4189.745
 21
-41.167
 31
0
 0
LINE
 8
TOOL_0
 5
1B9
 10
4189.745
 20
-41.167
 30
0
 11
4694.483
 21
-761.439
 31
0
 0
ARC
 8
TOOL_0
 5
1BA
 10
4684.744
 20
-759.167
 30
0
 40
10.000505237236
 50
346.86839544107
 51
90.0
210
0
220
0
230
1.0
 0
LINE
 8
TOOL_0
 5
1BB
 10
4684.744
 20
-749.167
 30
0
 11
4199.744
 21
-749.167
 31
0
 0
LINE
 8
TOOL_0
 5
1BC
 10
4199.744
 20
-749.167
 30
0
 11
4199.744
 21
-209.167
 31
0
 0
LINE
 8
TOOL_0
 5
1BD
 10
4199.744
 20
-209.167
 30
0
 11
4684.744
 21
-209.167
 31
0
 0
LINE
 8
TOOL_0
 5
1BE
 10
4684.744
 20
-209.167
 30
0
 11
4684.744
 21
-749.167
 31
0
 0
LINE
 8
TOOL_0
 5
1BF
 10
4684.744
 20
-749.167
 30
0
 11
4690.401
 21
-754.824
 31
0
 0
LINE
 8
TOOL_0
 5
1C0
 10
4690.401
 20
-754.824
 30
0
 11
4684.745
 21
-26.167
 31
0
 0
LINE
 8
TOOL_0
 5
1C1
 10
4684.745
 20
-26.167
 30
0
 11
4684.745
 21
-41.167
 31
0
 0
LINE
 8
TOOL_0
 5
1C2
 10
4684.745
 20
-41.167
 30
0
 11
4684.745
 21
-191.167
 31
0
 0
LINE
 8
TOOL_0
 5
1C3
 10
4684.745
 20
-191.167
 30
0
 11
4199.745
 21
-191.167
 31
0
 0
LINE
 8
TOOL_0
 5
1C4
 10
4199.745
 20
-191.167
 30
0
 11
4199.745
 21
-41.167
 31
0
 0
LINE
 8
TOOL_0
 5
1C5
 10
4199.745
 20
-41.167
 30
0
 11
4684.745
 21
-41.167
 31
0
 0
LINE
 8
TOOL_0
 5
1C6
 10
4684.745
 20
-41.167
 30
0
 11
4692.745
 21
-41.167
 31
0
 0
LINE
 8
TOOL_0
 5
1C7
 10
4692.745
 20
-41.167
 30
0
 11
5238.033
 21
-1766.366
 31
0
 0
LINE
 8
TOOL_0
 5
1C8
 10
5238.033
 20
-1766.366
 30
0
 11
5223.033
 21
-1766.366
 31
0
 0
LINE
 8
TOOL_0
 5
1C9
 10
5223.033
 20
-1766.366
 30
0
 11
4738.033
 21
-1766.366
 31
0
 0
LINE
 8
TOOL_0
 5
1CA
 10
4738.033
 20
-1766.366
 30
0
 11
4738.033
 21
-1226.366
 31
0
 0
LINE
 8
TOOL_0
 5
1CB
 10
4738.033
 20
-1226.366
 30
0
 11
5223.033
 21
-1226.366
 31
0
 0
LINE
 8
TOOL_0
 5
1CC
 10
5223.033
 20
-1226.366
 30
0
 11
5223.033
 21
-1766.366
 31
0
 0
LINE
 8
TOOL_0
 5
1CD
 10
5223.033
 20
-1766.366
 30
0
 11
5223.033
 21
-1774.366
 31
0
 0
LINE
 8
TOOL_0
 5
1CE
 10
5223.033
 20
-1774.366
 30
0
 11
5250.749
 21
-1013.259
 31
0
 0
LINE
 8
TOOL_0
 5
1CF
 10
5250.749
 20
-1013.259
 30
0
 11
5250.749
 21
-1028.259
 31
0
 0
LINE
 8
TOOL_0
 5
1D0
 10
5250.749
 20
-1028.259
 30
0
 11
5250.749
 21
-1178.259
 31
0
 0
LINE
 8
TOOL_0
 5
1D1
 10
5250.749
 20
-1178.259
 30
0
 11
4765.749
 21
-1178.259
 31
0
 0
LINE
 8
TOOL_0
 5
1D2
 10
4765.749
 20
-1178.259
 30
0
 11
4765.749
 21
-1028.259
 31
0
 0
LINE
 8
TOOL_0
 5
1D3
 10
4765.749
 20
-1028.259
 30
0
 11
5250.749
 21
-1028.259
 31
0
 0
LINE
 8
TOOL_0
 5
1D4
 10
5250.749
 20
-1028.259
 30
0
 11
5258.749
 21
-1028.259
 31
0
 0
LINE
 8
TOOL_0
 5
1D5
 10
5258.749
 20
-1028.259
 30
0
 11
5197.482
 21
-761.439
 31
0
 0
ARC
 8
TOOL_0
 5
1D6
 10
5187.744
 20
-759.167
 30
0
 40
9.99953138902
 50
346.867093685725
 51
90.0
210
0
220
0
230
1.0
 0
LINE
 8
TOOL_0
 5
1D7
 10
5187.744
 20
-749.167
 30
0
 11
4702.744
 21
-749.167
 31
0
 0
LINE
 8
TOOL_0
 5
1D8
 10
4702.744
 20
-749.167
 30
0
 11
4702.744
 21
-209.167
 31
0
 0
LINE
 8
TOOL_0
 5
1D9
 10
4702.744
 20
-209.167
 30
0
 11
5187.744
 21
-209.167
 31
0
 0
LINE
 8
TOOL_0
 5
1DA
 10
5187.744
 20
-209.167
 30
0
 11
5187.744
 21
-749.167
 31
0
 0
LINE
 8
TOOL_0
 5
1DB
 10
5187.744
 20
-749.167
 30
0
 11
5193.401
 21
-754.824
 31
0
 0
LINE
 8
TOOL_0
 5
1DC
 10
5193.401
 20
-754.824
 30
0
 11
5187.746
 21
-26.167
 31
0
 0
LINE
 8
TOOL_0
 5
1DD
 10
5187.746
 20
-26.167
 30
0
 11
5187.746
 21
-41.167
 31
0
 0
LINE
 8
TOOL_0
 5
1DE
 10
5187.746
 20
-41.167
 30
0
 11
5187.746
 21
-191.167
 31
0
 0
LINE
 8
TOOL_0
 5
1DF
 10
5187.746
 20
-191.167
 30
0
 11
4702.746
 21
-191.167
 31
0
 0
LINE
 8
TOOL_0
 5
1E0
 10
4702.746
 20
-191.167
 30
0
 11
4702.746
 21
-41.167
 31
0
 0
LINE
 8
TOOL_0
 5
1E1
 10
4702.746
 20
-41.167
 30
0
 11
5187.746
 21
-41.167
 31
0
 0
LINE
 8
TOOL_0
 5
1E2
 10
5187.746
 20
-41.167
 30
0
 11
5195.746
 21
-41.167
 31
0
 0
LINE
 8
TOOL_0
 5
1E3
 10
5195.746
 20
-41.167
 30
0
 11
5459.433
 21
-1752.888
 31
0
 0
LINE
 8
TOOL_0
 5
1E4
 10
5459.433
 20
-1752.888
 30
0
 11
5444.433
 21
-1752.888
 31
0
 0
LINE
 8
TOOL_0
 5
1E5
 10
5444.433
 20
-1752.888
 30
0
 11
5294.433
 21
-1752.888
 31
0
 0
LINE
 8
TOOL_0
 5
1E6
 10
5294.433
 20
-1752.888
 30
0
 11
5294.433
 21
-1267.888
 31
0
 0
LINE
 8
TOOL_0
 5
1E7
 10
5294.433
 20
-1267.888
 30
0
 11
5444.433
 21
-1267.888
 31
0
 0
LINE
 8
TOOL_0
 5
1E8
 10
5444.433
 20
-1267.888
 30
0
 11
5444.433
 21
-1752.888
 31
0
 0
LINE
 8
TOOL_0
 5
1E9
 10
5444.433
 20
-1752.888
 30
0
 11
5444.433
 21
-1760.888
 31
0
 0
LINE
 8
TOOL_0
 5
1EA
 10
5444.433
 20
-1760.888
 30
0
 11
5132.939
 21
-1970.899
 31
0
 0
LINE
 8
TOOL_0
 5
1EB
 10
5132.939
 20
-1970.899
 30
0
 11
5182.939
 21
-1970.899
 31
0
 0
ARC
 8
TOOL_0
 5
1EC
 10
5157.939
 20
-1970.899
 30
0
 40
25.0
 50
0
 51
90.0
210
0
220
0
230
1.0
 0
LINE
 8
TOOL_0
 5
1ED
 10
5157.939
 20
-1945.899
 30
0
 11
4957.939
 21
-1945.899
 31
0
 0
ARC
 8
TOOL_0
 5
1EE
 10
4957.939
 20
-1970.899
 30
0
 40
25.0
 50
90.0
 51
270.0
210
0
220
0
230
1.0
 0
LINE
 8
TOOL_0
 5
1EF
 10
4957.939
 20
-1995.899
 30
0
 11
5157.939
 21
-1995.899
 31
0
 0
ARC
 8
TOOL_0
 5
1F0
 10
5157.939
 20
-1970.899
 30
0
 40
25.0
 50
270.0
 51
0
210
0
220
0
230
1.0
 0
ARC
 8
TOOL_0
 5
1F1
 10
5174.939
 20
-1970.899
 30
0
 40
8.0
 50
0
 51
57.299199559756
210
0
220
0
230
1.0
 0
LINE
 8
TOOL_0
 5
1F2
 10
5179.261
 20
-1964.167
 30
0
 11
5450.721
 21
-1823.681
 31
0
 0
LINE
 8
TOOL_0
 5
1F3
 10
5450.721
 20
-1823.681
 30
0
 11
5486.076
 21
-1859.036
 31
0
 0
ARC
 8
TOOL_0
 5
1F4
 10
5372.939
 20
-1745.899
 30
0
 40
159.999879806205
 50
315.0
 51
359.999641901378
210
0
220
0
230
1.0
 0
LINE
 8
TOOL_0
 5
1F5
 10
5532.939
 20
-1745.9
 30
0
 11
5532.939
 21
-1115.899
 31
0
 0
ARC
 8
TOOL_0
 5
1F6
 10
5372.939
 20
-1115.899
 30
0
 40
160.0
 50
0
 51
90.0
210
0
220
0
230
1.0
 0
LINE
 8
TOOL_0
 5
1F7
 10
5372.939
 20
-955.899
 30
0
 11
4742.939
 21
-955.899
 31
0
 0
ARC
 8
TOOL_0
 5
1F8
 10
4742.939
 20
-1115.899
 30
0
 40
160.0
 50
90.0
 51
180.0
210
0
220
0
230
1.0
 0
LINE
 8
TOOL_0
 5
1F9
 10
4582.939
 20
-1115.899
 30
0
 11
4582.939
 21
-1745.899
 31
0
 0
ARC
 8
TOOL_0
 5
1FA
 10
4742.939
 20
-1745.899
 30
0
 40
160.0
 50
180.0
 51
270.0
210
0
220
0
230
1.0
 0
LINE
 8
TOOL_0
 5
1FB
 10
4742.939
 20
-1905.899
 30
0
 11
5372.939
 21
-1905.899
 31
0
 0
ARC
 8
TOOL_0
 5
1FC
 10
5372.939
 20
-1745.899
 30
0
 40
160.0
 50
270.0
 51
314.999493571692
210
0
220
0
230
1.0
 0
ARC
 8
TOOL_0
 5
1FD
 10
5480.419
 20
-1853.38
 30
0
 40
7.999499046815
 50
314.994935403575
 51
12.29885516988
210
0
220
0
230
1.0
 0
LINE
 8
TOOL_0
 5
1FE
 10
5488.235
 20
-1851.676
 30
0
 11
5700.438
 21
-2090.899
 31
0
 0
LINE
 8
TOOL_0
 5
1FF
 10
5700.438
 20
-2090.899
 30
0
 11
5692.938
 21
-2090.899
 31
0
 0
LINE
 8
TOOL_0
 5
200
 10
5692.938
 20
-2090.899
 30
0
 11
5542.938
 21
-2090.899
 31
0
 0
LINE
 8
TOOL_0
 5
201
 10
5542.938
 20
-2090.899
 30
0
 11
5542.938
 21
-2060.899
 31
0
 0
LINE
 8
TOOL_0
 5
202
 10
5542.938
 20
-2060.899
 30
0
 11
5512.938
 21
-2060.899
 31
0
 0
LINE
 8
TOOL_0
 5
203
 10
5512.938
 20
-2060.899
 30
0
 11
5512.938
 21
-2090.899
 31
0
 0
LINE
 8
TOOL_0
 5
204
 10
5512.938
 20
-2090.899
 30
0
 11
5072.938
 21
-2090.899
 31
0
 0
LINE
 8
TOOL_0
 5
205
 10
5072.938
 20
-2090.899
 30
0
 11
5072.938
 21
-2060.899
 31
0
 0
LINE
 8
TOOL_0
 5
206
 10
5072.938
 20
-2060.899
 30
0
 11
5042.938
 21
-2060.899
 31
0
 0
LINE
 8
TOOL_0
 5
207
 10
5042.938
 20
-2060.899
 30
0
 11
5042.938
 21
-2090.899
 31
0
 0
LINE
 8
TOOL_0
 5
208
 10
5042.938
 20
-2090.899
 30
0
 11
4602.938
 21
-2090.899
 31
0
 0
LINE
 8
TOOL_0
 5
209
 10
4602.938
 20
-2090.899
 30
0
 11
4602.938
 21
-2060.899
 31
0
 0
LINE
 8
TOOL_0
 5
20A
 10
4602.938
 20
-2060.899
 30
0
 11
4572.938
 21
-2060.899
 31
0
 0
LINE
 8
TOOL_0
 5
20B
 10
4572.938
 20
-2060.899
 30
0
 11
4572.938
 21
-2090.899
 31
0
 0
LINE
 8
TOOL_0
 5
20C
 10
4572.938
 20
-2090.899
 30
0
 11
4422.938
 21
-2090.899
 31
0
 0
LINE
 8
TOOL_0
 5
20D
 10
4422.938
 20
-2090.899
 30
0
 11
4422.938
 21
-1940.899
 31
0
 0
LINE
 8
TOOL_0
 5
20E
 10
4422.938
 20
-1940.899
 30
0
 11
4452.938
 21
-1940.899
 31
0
 0
LINE
 8
TOOL_0
 5
20F
 10
4452.938
 20
-1940.899
 30
0
 11
4452.938
 21
-1910.899
 31
0
 0
LINE
 8
TOOL_0
 5
210
 10
4452.938
 20
-1910.899
 30
0
 11
4422.938
 21
-1910.899
 31
0
 0
LINE
 8
TOOL_0
 5
211
 10
4422.938
 20
-1910.899
 30
0
 11
4422.938
 21
-1050.899
 31
0
 0
LINE
 8
TOOL_0
 5
212
 10
4422.938
 20
-1050.899
 30
0
 11
4442.938
 21
-1030.899
 31
0
 0
LINE
 8
TOOL_0
 5
213
 10
4442.938
 20
-1030.899
 30
0
 11
4457.938
 21
-1030.899
 31
0
 0
LINE
 8
TOOL_0
 5
214
 10
4457.938
 20
-1030.899
 30
0
 11
4457.938
 21
-910.899
 31
0
 0
LINE
 8
TOOL_0
 5
215
 10
4457.938
 20
-910.899
 30
0
 11
4477.938
 21
-890.899
 31
0
 0
LINE
 8
TOOL_0
 5
216
 10
4477.938
 20
-890.899
 30
0
 11
4512.938
 21
-890.899
 31
0
 0
LINE
 8
TOOL_0
 5
217
 10
4512.938
 20
-890.899
 30
0
 11
4512.938
 21
-790.899
 31
0
 0
LINE
 8
TOOL_0
 5
218
 10
4512.938
 20
-790.899
 30
0
 11
4532.938
 21
-770.899
 31
0
 0
LINE
 8
TOOL_0
 5
219
 10
4532.938
 20
-770.899
 30
0
 11
4672.938
 21
-770.899
 31
0
 0
LINE
 8
TOOL_0
 5
21A
 10
4672.938
 20
-770.899
 30
0
 11
4692.938
 21
-790.899
 31
0
 0
LINE
 8
TOOL_0
 5
21B
 10
4692.938
 20
-790.899
 30
0
 11
5422.938
 21
-790.899
 31
0
 0
LINE
 8
TOOL_0
 5
21C
 10
5422.938
 20
-790.899
 30
0
 11
5442.938
 21
-770.899
 31
0
 0
LINE
 8
TOOL_0
 5
21D
 10
5442.938
 20
-770.899
 30
0
 11
5582.938
 21
-770.899
 31
0
 0
LINE
 8
TOOL_0
 5
21E
 10
5582.938
 20
-770.899
 30
0
 11
5602.938
 21
-790.899
 31
0
 0
LINE
 8
TOOL_0
 5
21F
 10
5602.938
 20
-790.899
 30
0
 11
5602.938
 21
-890.899
 31
0
 0
LINE
 8
TOOL_0
 5
220
 10
5602.938
 20
-890.899
 30
0
 11
5637.938
 21
-890.899
 31
0
 0
LINE
 8
TOOL_0
 5
221
 10
5637.938
 20
-890.899
 30
0
 11
5657.938
 21
-910.899
 31
0
 0
LINE
 8
TOOL_0
 5
222
 10
5657.938
 20
-910.899
 30
0
 11
5657.938
 21
-1030.899
 31
0
 0
LINE
 8
TOOL_0
 5
223
 10
5657.938
 20
-1030.899
 30
0
 11
5672.938
 21
-1030.899
 31
0
 0
LINE
 8
TOOL_0
 5
224
 10
5672.938
 20
-1030.899
 30
0
 11
5692.938
 21
-1050.899
 31
0
 0
LINE
 8
TOOL_0
 5
225
 10
5692.938
 20
-1050.899
 30
0
 11
5692.938
 21
-1910.899
 31
0
 0
LINE
 8
TOOL_0
 5
226
 10
5692.938
 20
-1910.899
 30
0
 11
5662.938
 21
-1910.899
 31
0
 0
LINE
 8
TOOL_0
 5
227
 10
5662.938
 20
-1910.899
 30
0
 11
5662.938
 21
-1940.899
 31
0
 0
LINE
 8
TOOL_0
 5
228
 10
5662.938
 20
-1940.899
 30
0
 11
5692.938
 21
-1940.899
 31
0
 0
LINE
 8
TOOL_0
 5
229
 10
5692.938
 20
-1940.899
 30
0
 11
5692.938
 21
-2090.899
 31
0
 0
LINE
 8
TOOL_0
 5
22A
 10
5692.938
 20
-2090.899
 30
0
 11
5692.938
 21
-2094.899
 31
0
 0
LINE
 8
TOOL_0
 5
22B
 10
5692.938
 20
-2094.899
 30
0
 11
5705.743
 21
-749.167
 31
0
 0
LINE
 8
TOOL_0
 5
22C
 10
5705.743
 20
-749.167
 30
0
 11
5690.743
 21
-749.167
 31
0
 0
LINE
 8
TOOL_0
 5
22D
 10
5690.743
 20
-749.167
 30
0
 11
5205.743
 21
-749.167
 31
0
 0
LINE
 8
TOOL_0
 5
22E
 10
5205.743
 20
-749.167
 30
0
 11
5205.743
 21
-209.167
 31
0
 0
LINE
 8
TOOL_0
 5
22F
 10
5205.743
 20
-209.167
 30
0
 11
5690.743
 21
-209.167
 31
0
 0
LINE
 8
TOOL_0
 5
230
 10
5690.743
 20
-209.167
 30
0
 11
5690.743
 21
-749.167
 31
0
 0
LINE
 8
TOOL_0
 5
231
 10
5690.743
 20
-749.167
 30
0
 11
5690.743
 21
-757.167
 31
0
 0
LINE
 8
TOOL_0
 5
232
 10
5690.743
 20
-757.167
 30
0
 11
5690.745
 21
-26.167
 31
0
 0
LINE
 8
TOOL_0
 5
233
 10
5690.745
 20
-26.167
 30
0
 11
5690.745
 21
-41.167
 31
0
 0
LINE
 8
TOOL_0
 5
234
 10
5690.745
 20
-41.167
 30
0
 11
5690.745
 21
-191.167
 31
0
 0
LINE
 8
TOOL_0
 5
235
 10
5690.745
 20
-191.167
 30
0
 11
5205.745
 21
-191.167
 31
0
 0
LINE
 8
TOOL_0
 5
236
 10
5205.745
 20
-191.167
 30
0
 11
5205.745
 21
-41.167
 31
0
 0
LINE
 8
TOOL_0
 5
237
 10
5205.745
 20
-41.167
 30
0
 11
5690.745
 21
-41.167
 31
0
 0
LINE
 8
TOOL_0
 5
238
 10
5690.745
 20
-41.167
 30
0
 11
5698.745
 21
-41.167
 31
0
 0
LINE
 8
TOOL_0
 5
239
 10
5698.745
 20
-41.167
 30
0
 11
5875.55
 21
-2089.999
 31
0
 0
LINE
 8
TOOL_0
 5
23A
 10
5875.55
 20
-2089.999
 30
0
 11
5860.55
 21
-2089.999
 31
0
 0
LINE
 8
TOOL_0
 5
23B
 10
5860.55
 20
-2089.999
 30
0
 11
5710.55
 21
-2089.999
 31
0
 0
LINE
 8
TOOL_0
 5
23C
 10
5710.55
 20
-2089.999
 30
0
 11
5710.55
 21
-1604.999
 31
0
 0
LINE
 8
TOOL_0
 5
23D
 10
5710.55
 20
-1604.999
 30
0
 11
5860.55
 21
-1604.999
 31
0
 0
LINE
 8
TOOL_0
 5
23E
 10
5860.55
 20
-1604.999
 30
0
 11
5860.55
 21
-2089.999
 31
0
 0
LINE
 8
TOOL_0
 5
23F
 10
5860.55
 20
-2089.999
 30
0
 11
5860.55
 21
-2097.999
 31
0
 0
LINE
 8
TOOL_0
 5
240
 10
5860.55
 20
-2097.999
 30
0
 11
5875.55
 21
-1586.999
 31
0
 0
LINE
 8
TOOL_0
 5
241
 10
5875.55
 20
-1586.999
 30
0
 11
5860.55
 21
-1586.999
 31
0
 0
LINE
 8
TOOL_0
 5
242
 10
5860.55
 20
-1586.999
 30
0
 11
5710.55
 21
-1586.999
 31
0
 0
LINE
 8
TOOL_0
 5
243
 10
5710.55
 20
-1586.999
 30
0
 11
5710.55
 21
-1101.999
 31
0
 0
LINE
 8
TOOL_0
 5
244
 10
5710.55
 20
-1101.999
 30
0
 11
5860.55
 21
-1101.999
 31
0
 0
LINE
 8
TOOL_0
 5
245
 10
5860.55
 20
-1101.999
 30
0
 11
5860.55
 21
-1586.999
 31
0
 0
LINE
 8
TOOL_0
 5
246
 10
5860.55
 20
-1586.999
 30
0
 11
5860.55
 21
-1594.999
 31
0
 0
LINE
 8
TOOL_0
 5
247
 10
5860.55
 20
-1594.999
 30
0
 11
5875.55
 21
-1083.999
 31
0
 0
LINE
 8
TOOL_0
 5
248
 10
5875.55
 20
-1083.999
 30
0
 11
5860.55
 21
-1083.999
 31
0
 0
LINE
 8
TOOL_0
 5
249
 10
5860.55
 20
-1083.999
 30
0
 11
5710.55
 21
-1083.999
 31
0
 0
LINE
 8
TOOL_0
 5
24A
 10
5710.55
 20
-1083.999
 30
0
 11
5710.55
 21
-598.999
 31
0
 0
LINE
 8
TOOL_0
 5
24B
 10
5710.55
 20
-598.999
 30
0
 11
5860.55
 21
-598.999
 31
0
 0
LINE
 8
TOOL_0
 5
24C
 10
5860.55
 20
-598.999
 30
0
 11
5860.55
 21
-1083.999
 31
0
 0
LINE
 8
TOOL_0
 5
24D
 10
5860.55
 20
-1083.999
 30
0
 11
5860.55
 21
-1091.999
 31
0
 0
LINE
 8
TOOL_0
 5
24E
 10
5860.55
 20
-1091.999
 30
0
 11
5875.551
 21
-580.999
 31
0
 0
LINE
 8
TOOL_0
 5
24F
 10
5875.551
 20
-580.999
 30
0
 11
5860.551
 21
-580.999
 31
0
 0
LINE
 8
TOOL_0
 5
250
 10
5860.551
 20
-580.999
 30
0
 11
5710.551
 21
-580.999
 31
0
 0
LINE
 8
TOOL_0
 5
251
 10
5710.551
 20
-580.999
 30
0
 11
5710.551
 21
-95.999
 31
0
 0
LINE
 8
TOOL_0
 5
252
 10
5710.551
 20
-95.999
 30
0
 11
5860.551
 21
-95.999
 31
0
 0
LINE
 8
TOOL_0
 5
253
 10
5860.551
 20
-95.999
 30
0
 11
5860.551
 21
-580.999
 31
0
 0
LINE
 8
TOOL_0
 5
254
 10
5860.551
 20
-580.999
 30
0
 11
5860.551
 21
-588.999
 31
0
 0
ENDSEC
 0
EOF

