0
SECTION
2
TABLES
0
TABLE
2
LAYER
70
0
0
LAYER
2
LAYER_NAME
70
0
62
1
6
CONTINUOUS
0
ENDTAB
0
ENDSEC
 0
SECTION
 2
ENTITIES
 0
LINE
 8
TOOL_0
 5
1
 10
656.486
 20
29.722
 30
0
 11
638.808
 21
12.044
 31
0
 0
LINE
 8
TOOL_0
 5
2
 10
638.808
 20
12.044
 30
0
 11
636.103
 21
10.743
 31
0
 0
ARC
 8
TOOL_0
 5
3
 10
631.328
 20
12.226
 30
0
 40
4.999991399993
 50
270.0
 51
342.746464189754
210
0
220
0
230
1.0
 0
LINE
 8
TOOL_0
 5
4
 10
631.328
 20
7.226
 30
0
 11
573.116
 21
7.226
 31
0
 0
ARC
 8
TOOL_0
 5
5
 10
573.144
 20
27.814
 30
0
 40
20.588019040209
 50
234.365268932506
 51
269.922076897355
210
0
220
0
230
1.0
 0
ARC
 8
TOOL_0
 5
6
 10
578.895
 20
34.428
 30
0
 40
29.325806468024
 50
215.495887892338
 51
232.761619444092
210
0
220
0
230
1.0
 0
ARC
 8
TOOL_0
 5
7
 10
501.751
 20
-27.243
 30
0
 40
69.501635038321
 50
39.965797844957
 51
88.246267223444
210
0
220
0
230
1.0
 0
LINE
 8
TOOL_0
 5
8
 10
503.878
 20
42.226
 30
0
 11
476.393
 21
42.226
 31
0
 0
ARC
 8
TOOL_0
 5
9
 10
478.505
 20
-27.251
 30
0
 40
69.509093455461
 50
91.741172379534
 51
139.997385733126
210
0
220
0
230
1.0
 0
ARC
 8
TOOL_0
 5
A
 10
401.341
 20
34.453
 30
0
 40
29.357572191855
 50
307.250869813266
 51
324.562374132182
210
0
220
0
230
1.0
 0
ARC
 8
TOOL_0
 5
B
 10
407.111
 20
27.814
 30
0
 40
20.587846924824
 50
270.077923102645
 51
305.652526069449
210
0
220
0
230
1.0
 0
LINE
 8
TOOL_0
 5
C
 10
407.139
 20
7.226
 30
0
 11
348.927
 21
7.226
 31
0
 0
ARC
 8
TOOL_0
 5
D
 10
348.927
 20
12.226
 30
0
 40
5.0
 50
180.0
 51
270.0
210
0
220
0
230
1.0
 0
LINE
 8
TOOL_0
 5
E
 10
343.927
 20
12.226
 30
0
 11
343.927
 21
142.265
 31
0
 0
ARC
 8
TOOL_0
 5
F
 10
346.941
 20
142.253
 30
0
 40
3.014023888426
 50
97.339606280031
 51
179.771882640594
210
0
220
0
230
1.0
 0
ARC
 8
TOOL_0
 5
10
 10
345.627
 20
152.684
 30
0
 40
7.499760329504
 50
277.115540490307
 51
334.627299750044
210
0
220
0
230
1.0
 0
ARC
 8
TOOL_0
 5
11
 10
355.398
 20
147.847
 30
0
 40
3.405607875255
 50
78.482200075798
 51
151.538579919279
210
0
220
0
230
1.0
 0
LINE
 8
TOOL_0
 5
12
 10
356.078
 20
151.184
 30
0
 11
376.244
 21
151.184
 31
0
 0
ARC
 8
TOOL_0
 5
13
 10
376.244
 20
175.684
 30
0
 40
24.5
 50
270.0
 51
320.000397492753
210
0
220
0
230
1.0
 0
LINE
 8
TOOL_0
 5
14
 10
395.012
 20
159.936
 30
0
 11
422.372
 21
192.542
 31
0
 0
ARC
 8
TOOL_0
 5
15
 10
476.4
 20
147.178
 30
0
 40
70.547269826691
 50
90.017867621705
 51
139.981879748588
210
0
220
0
230
1.0
 0
LINE
 8
TOOL_0
 5
16
 10
476.378
 20
217.725
 30
0
 11
503.878
 21
217.725
 31
0
 0
ARC
 8
TOOL_0
 5
17
 10
503.856
 20
147.178
 30
0
 40
70.547003430337
 50
40.018120251412
 51
89.982132378295
210
0
220
0
230
1.0
 0
LINE
 8
TOOL_0
 5
18
 10
557.884
 20
192.542
 30
0
 11
585.244
 21
159.936
 31
0
 0
ARC
 8
TOOL_0
 5
19
 10
604.012
 20
175.684
 30
0
 40
24.49974138639
 50
219.999602507247
 51
270.0
210
0
220
0
230
1.0
 0
LINE
 8
TOOL_0
 5
1A
 10
604.012
 20
151.184
 30
0
 11
625.141
 21
151.184
 31
0
 0
ARC
 8
TOOL_0
 5
1B
 10
625.0
 20
147.962
 30
0
 40
3.225083719844
 50
27.867725704438
 51
87.494241556732
210
0
220
0
230
1.0
 0
ARC
 8
TOOL_0
 5
1C
 10
634.628
 20
152.684
 30
0
 40
7.499598122566
 50
205.375973959937
 51
262.892040478314
210
0
220
0
230
1.0
 0
ARC
 8
TOOL_0
 5
1D
 10
633.315
 20
142.253
 30
0
 40
3.013693083245
 50
0.228117359406
 51
82.660393719969
210
0
220
0
230
1.0
 0
LINE
 8
TOOL_0
 5
1E
 10
636.329
 20
142.265
 30
0
 11
636.329
 21
13.734
 31
0
 0
LINE
 8
TOOL_0
 5
1F
 10
636.329
 20
13.734
 30
0
 11
638.809
 21
12.043
 31
0
 0
LINE
 8
TOOL_0
 5
20
 10
638.809
 20
12.043
 30
0
 11
642.345
 21
8.507
 31
0
 0
LINE
 8
TOOL_0
 5
21
 10
642.345
 20
8.507
 30
0
 11
654.406
 21
237.808
 31
0
 0
LINE
 8
TOOL_0
 5
22
 10
654.406
 20
237.808
 30
0
 11
636.728
 21
220.131
 31
0
 0
LINE
 8
TOOL_0
 5
23
 10
636.728
 20
220.131
 30
0
 11
634.023
 21
218.83
 31
0
 0
ARC
 8
TOOL_0
 5
24
 10
629.248
 20
220.313
 30
0
 40
4.999991399993
 50
270.0
 51
342.746464189754
210
0
220
0
230
1.0
 0
LINE
 8
TOOL_0
 5
25
 10
629.248
 20
215.313
 30
0
 11
571.036
 21
215.313
 31
0
 0
ARC
 8
TOOL_0
 5
26
 10
571.064
 20
235.901
 30
0
 40
20.588019040209
 50
234.365268932506
 51
269.922076897355
210
0
220
0
230
1.0
 0
ARC
 8
TOOL_0
 5
27
 10
576.815
 20
242.515
 30
0
 40
29.325806468024
 50
215.495887892338
 51
232.761619444092
210
0
220
0
230
1.0
 0
ARC
 8
TOOL_0
 5
28
 10
499.671
 20
180.844
 30
0
 40
69.501635038321
 50
39.965797844957
 51
88.246267223444
210
0
220
0
230
1.0
 0
LINE
 8
TOOL_0
 5
29
 10
501.798
 20
250.313
 30
0
 11
474.313
 21
250.313
 31
0
 0
ARC
 8
TOOL_0
 5
2A
 10
476.425
 20
180.836
 30
0
 40
69.509093455461
 50
91.741172379534
 51
139.997385733126
210
0
220
0
230
1.0
 0
ARC
 8
TOOL_0
 5
2B
 10
399.261
 20
242.54
 30
0
 40
29.357572191855
 50
307.250869813266
 51
324.562374132182
210
0
220
0
230
1.0
 0
ARC
 8
TOOL_0
 5
2C
 10
405.031
 20
235.901
 30
0
 40
20.587846924824
 50
270.077923102645
 51
305.652526069449
210
0
220
0
230
1.0
 0
LINE
 8
TOOL_0
 5
2D
 10
405.059
 20
215.313
 30
0
 11
346.847
 21
215.313
 31
0
 0
ARC
 8
TOOL_0
 5
2E
 10
346.847
 20
220.313
 30
0
 40
5.0
 50
180.0
 51
270.0
210
0
220
0
230
1.0
 0
LINE
 8
TOOL_0
 5
2F
 10
341.847
 20
220.313
 30
0
 11
341.847
 21
350.352
 31
0
 0
ARC
 8
TOOL_0
 5
30
 10
344.861
 20
350.34
 30
0
 40
3.014023888426
 50
97.339606280031
 51
179.771882640594
210
0
220
0
230
1.0
 0
ARC
 8
TOOL_0
 5
31
 10
343.547
 20
360.771
 30
0
 40
7.499760329504
 50
277.115540490307
 51
334.627299750044
210
0
220
0
230
1.0
 0
ARC
 8
TOOL_0
 5
32
 10
353.318
 20
355.934
 30
0
 40
3.405607875255
 50
78.482200075798
 51
151.538579919279
210
0
220
0
230
1.0
 0
LINE
 8
TOOL_0
 5
33
 10
353.998
 20
359.271
 30
0
 11
374.164
 21
359.271
 31
0
 0
ARC
 8
TOOL_0
 5
34
 10
374.164
 20
383.771
 30
0
 40
24.5
 50
270.0
 51
320.000397492753
210
0
220
0
230
1.0
 0
LINE
 8
TOOL_0
 5
35
 10
392.932
 20
368.023
 30
0
 11
420.292
 21
400.629
 31
0
 0
ARC
 8
TOOL_0
 5
36
 10
474.32
 20
355.265
 30
0
 40
70.547269826691
 50
90.017867621705
 51
139.981879748588
210
0
220
0
230
1.0
 0
LINE
 8
TOOL_0
 5
37
 10
474.298
 20
425.812
 30
0
 11
501.798
 21
425.812
 31
0
 0
ARC
 8
TOOL_0
 5
38
 10
501.776
 20
355.265
 30
0
 40
70.547003430337
 50
40.018120251412
 51
89.982132378295
210
0
220
0
230
1.0
 0
LINE
 8
TOOL_0
 5
39
 10
555.804
 20
400.629
 30
0
 11
583.164
 21
368.023
 31
0
 0
ARC
 8
TOOL_0
 5
3A
 10
601.932
 20
383.771
 30
0
 40
24.49974138639
 50
219.999602507247
 51
270.0
210
0
220
0
230
1.0
 0
LINE
 8
TOOL_0
 5
3B
 10
601.932
 20
359.271
 30
0
 11
623.061
 21
359.271
 31
0
 0
ARC
 8
TOOL_0
 5
3C
 10
622.92
 20
356.049
 30
0
 40
3.225083719844
 50
27.867725704438
 51
87.494241556732
210
0
220
0
230
1.0
 0
ARC
 8
TOOL_0
 5
3D
 10
632.548
 20
360.771
 30
0
 40
7.499598122566
 50
205.375973959937
 51
262.892040478314
210
0
220
0
230
1.0
 0
ARC
 8
TOOL_0
 5
3E
 10
631.235
 20
350.34
 30
0
 40
3.013693083245
 50
0.228117359406
 51
82.660393719969
210
0
220
0
230
1.0
 0
LINE
 8
TOOL_0
 5
3F
 10
634.249
 20
350.352
 30
0
 11
634.249
 21
221.821
 31
0
 0
LINE
 8
TOOL_0
 5
40
 10
634.249
 20
221.821
 30
0
 11
636.729
 21
220.13
 31
0
 0
LINE
 8
TOOL_0
 5
41
 10
636.729
 20
220.13
 30
0
 11
640.265
 21
216.594
 31
0
 0
LINE
 8
TOOL_0
 5
42
 10
640.265
 20
216.594
 30
0
 11
993.998
 21
30.068
 31
0
 0
LINE
 8
TOOL_0
 5
43
 10
993.998
 20
30.068
 30
0
 11
976.321
 21
12.39
 31
0
 0
LINE
 8
TOOL_0
 5
44
 10
976.321
 20
12.39
 30
0
 11
973.616
 21
11.089
 31
0
 0
ARC
 8
TOOL_0
 5
45
 10
968.841
 20
12.572
 30
0
 40
4.999991399993
 50
270.0
 51
342.746464189754
210
0
220
0
230
1.0
 0
LINE
 8
TOOL_0
 5
46
 10
968.841
 20
7.572
 30
0
 11
910.629
 21
7.572
 31
0
 0
ARC
 8
TOOL_0
 5
47
 10
910.657
 20
28.16
 30
0
 40
20.588019040209
 50
234.365268932506
 51
269.922076897355
210
0
220
0
230
1.0
 0
ARC
 8
TOOL_0
 5
48
 10
916.408
 20
34.774
 30
0
 40
29.325806468024
 50
215.495887892338
 51
232.761619444092
210
0
220
0
230
1.0
 0
ARC
 8
TOOL_0
 5
49
 10
839.264
 20
-26.897
 30
0
 40
69.501635038321
 50
39.965797844957
 51
88.246267223444
210
0
220
0
230
1.0
 0
LINE
 8
TOOL_0
 5
4A
 10
841.391
 20
42.572
 30
0
 11
813.906
 21
42.572
 31
0
 0
ARC
 8
TOOL_0
 5
4B
 10
816.018
 20
-26.905
 30
0
 40
69.509093455461
 50
91.741172379534
 51
139.997385733126
210
0
220
0
230
1.0
 0
ARC
 8
TOOL_0
 5
4C
 10
738.854
 20
34.799
 30
0
 40
29.357572191855
 50
307.250869813266
 51
324.562374132182
210
0
220
0
230
1.0
 0
ARC
 8
TOOL_0
 5
4D
 10
744.624
 20
28.16
 30
0
 40
20.587846924824
 50
270.077923102645
 51
305.652526069449
210
0
220
0
230
1.0
 0
LINE
 8
TOOL_0
 5
4E
 10
744.652
 20
7.572
 30
0
 11
686.44
 21
7.572
 31
0
 0
ARC
 8
TOOL_0
 5
4F
 10
686.44
 20
12.572
 30
0
 40
5.0
 50
180.0
 51
270.0
210
0
220
0
230
1.0
 0
LINE
 8
TOOL_0
 5
50
 10
681.44
 20
12.572
 30
0
 11
681.44
 21
142.611
 31
0
 0
ARC
 8
TOOL_0
 5
51
 10
684.454
 20
142.599
 30
0
 40
3.014023888426
 50
97.339606280031
 51
179.771882640594
210
0
220
0
230
1.0
 0
ARC
 8
TOOL_0
 5
52
 10
683.14
 20
153.03
 30
0
 40
7.499760329504
 50
277.115540490307
 51
334.627299750044
210
0
220
0
230
1.0
 0
ARC
 8
TOOL_0
 5
53
 10
692.911
 20
148.193
 30
0
 40
3.405607875255
 50
78.482200075798
 51
151.538579919279
210
0
220
0
230
1.0
 0
LINE
 8
TOOL_0
 5
54
 10
693.591
 20
151.53
 30
0
 11
713.757
 21
151.53
 31
0
 0
ARC
 8
TOOL_0
 5
55
 10
713.757
 20
176.03
 30
0
 40
24.5
 50
270.0
 51
320.000397492753
210
0
220
0
230
1.0
 0
LINE
 8
TOOL_0
 5
56
 10
732.525
 20
160.282
 30
0
 11
759.885
 21
192.888
 31
0
 0
ARC
 8
TOOL_0
 5
57
 10
813.913
 20
147.524
 30
0
 40
70.547269826691
 50
90.017867621705
 51
139.981879748588
210
0
220
0
230
1.0
 0
LINE
 8
TOOL_0
 5
58
 10
813.891
 20
218.071
 30
0
 11
841.391
 21
218.071
 31
0
 0
ARC
 8
TOOL_0
 5
59
 10
841.369
 20
147.524
 30
0
 40
70.547003430337
 50
40.018120251412
 51
89.982132378295
210
0
220
0
230
1.0
 0
LINE
 8
TOOL_0
 5
5A
 10
895.397
 20
192.888
 30
0
 11
922.757
 21
160.282
 31
0
 0
ARC
 8
TOOL_0
 5
5B
 10
941.525
 20
176.03
 30
0
 40
24.49974138639
 50
219.999602507247
 51
270.0
210
0
220
0
230
1.0
 0
LINE
 8
TOOL_0
 5
5C
 10
941.525
 20
151.53
 30
0
 11
962.654
 21
151.53
 31
0
 0
ARC
 8
TOOL_0
 5
5D
 10
962.513
 20
148.308
 30
0
 40
3.225083719844
 50
27.867725704438
 51
87.494241556732
210
0
220
0
230
1.0
 0
ARC
 8
TOOL_0
 5
5E
 10
972.141
 20
153.03
 30
0
 40
7.499598122566
 50
205.375973959937
 51
262.892040478314
210
0
220
0
230
1.0
 0
ARC
 8
TOOL_0
 5
5F
 10
970.828
 20
142.599
 30
0
 40
3.013693083245
 50
0.228117359406
 51
82.660393719969
210
0
220
0
230
1.0
 0
LINE
 8
TOOL_0
 5
60
 10
973.842
 20
142.611
 30
0
 11
973.842
 21
14.08
 31
0
 0
LINE
 8
TOOL_0
 5
61
 10
973.842
 20
14.08
 30
0
 11
976.322
 21
12.389
 31
0
 0
LINE
 8
TOOL_0
 5
62
 10
976.322
 20
12.389
 30
0
 11
979.858
 21
8.853
 31
0
 0
LINE
 8
TOOL_0
 5
63
 10
979.858
 20
8.853
 30
0
 11
994.347
 21
233.631
 31
0
 0
LINE
 8
TOOL_0
 5
64
 10
994.347
 20
233.631
 30
0
 11
976.669
 21
215.953
 31
0
 0
LINE
 8
TOOL_0
 5
65
 10
976.669
 20
215.953
 30
0
 11
973.964
 21
214.652
 31
0
 0
ARC
 8
TOOL_0
 5
66
 10
969.189
 20
216.135
 30
0
 40
4.999991399993
 50
270.0
 51
342.746464189754
210
0
220
0
230
1.0
 0
LINE
 8
TOOL_0
 5
67
 10
969.189
 20
211.135
 30
0
 11
910.977
 21
211.135
 31
0
 0
ARC
 8
TOOL_0
 5
68
 10
911.005
 20
231.723
 30
0
 40
20.588019040209
 50
234.365268932506
 51
269.922076897355
210
0
220
0
230
1.0
 0
ARC
 8
TOOL_0
 5
69
 10
916.756
 20
238.337
 30
0
 40
29.325806468024
 50
215.495887892338
 51
232.761619444092
210
0
220
0
230
1.0
 0
ARC
 8
TOOL_0
 5
6A
 10
839.612
 20
176.666
 30
0
 40
69.501635038321
 50
39.965797844957
 51
88.246267223444
210
0
220
0
230
1.0
 0
LINE
 8
TOOL_0
 5
6B
 10
841.739
 20
246.135
 30
0
 11
814.254
 21
246.135
 31
0
 0
ARC
 8
TOOL_0
 5
6C
 10
816.366
 20
176.658
 30
0
 40
69.509093455461
 50
91.741172379534
 51
139.997385733126
210
0
220
0
230
1.0
 0
ARC
 8
TOOL_0
 5
6D
 10
739.202
 20
238.362
 30
0
 40
29.357572191855
 50
307.250869813266
 51
324.562374132182
210
0
220
0
230
1.0
 0
ARC
 8
TOOL_0
 5
6E
 10
744.972
 20
231.723
 30
0
 40
20.587846924824
 50
270.077923102645
 51
305.652526069449
210
0
220
0
230
1.0
 0
LINE
 8
TOOL_0
 5
6F
 10
745.0
 20
211.135
 30
0
 11
686.788
 21
211.135
 31
0
 0
ARC
 8
TOOL_0
 5
70
 10
686.788
 20
216.135
 30
0
 40
5.0
 50
180.0
 51
270.0
210
0
220
0
230
1.0
 0
LINE
 8
TOOL_0
 5
71
 10
681.788
 20
216.135
 30
0
 11
681.788
 21
346.174
 31
0
 0
ARC
 8
TOOL_0
 5
72
 10
684.802
 20
346.162
 30
0
 40
3.014023888426
 50
97.339606280031
 51
179.771882640594
210
0
220
0
230
1.0
 0
ARC
 8
TOOL_0
 5
73
 10
683.488
 20
356.593
 30
0
 40
7.499760329504
 50
277.115540490307
 51
334.627299750044
210
0
220
0
230
1.0
 0
ARC
 8
TOOL_0
 5
74
 10
693.259
 20
351.756
 30
0
 40
3.405607875255
 50
78.482200075798
 51
151.538579919279
210
0
220
0
230
1.0
 0
LINE
 8
TOOL_0
 5
75
 10
693.939
 20
355.093
 30
0
 11
714.105
 21
355.093
 31
0
 0
ARC
 8
TOOL_0
 5
76
 10
714.105
 20
379.593
 30
0
 40
24.5
 50
270.0
 51
320.000397492753
210
0
220
0
230
1.0
 0
LINE
 8
TOOL_0
 5
77
 10
732.873
 20
363.845
 30
0
 11
760.233
 21
396.451
 31
0
 0
ARC
 8
TOOL_0
 5
78
 10
814.261
 20
351.087
 30
0
 40
70.547269826691
 50
90.017867621705
 51
139.981879748588
210
0
220
0
230
1.0
 0
LINE
 8
TOOL_0
 5
79
 10
814.239
 20
421.634
 30
0
 11
841.739
 21
421.634
 31
0
 0
ARC
 8
TOOL_0
 5
7A
 10
841.717
 20
351.087
 30
0
 40
70.547003430337
 50
40.018120251412
 51
89.982132378295
210
0
220
0
230
1.0
 0
LINE
 8
TOOL_0
 5
7B
 10
895.745
 20
396.451
 30
0
 11
923.105
 21
363.845
 31
0
 0
ARC
 8
TOOL_0
 5
7C
 10
941.873
 20
379.593
 30
0
 40
24.49974138639
 50
219.999602507247
 51
270.0
210
0
220
0
230
1.0
 0
LINE
 8
TOOL_0
 5
7D
 10
941.873
 20
355.093
 30
0
 11
963.002
 21
355.093
 31
0
 0
ARC
 8
TOOL_0
 5
7E
 10
962.861
 20
351.871
 30
0
 40
3.225083719844
 50
27.867725704438
 51
87.494241556732
210
0
220
0
230
1.0
 0
ARC
 8
TOOL_0
 5
7F
 10
972.489
 20
356.593
 30
0
 40
7.499598122566
 50
205.375973959937
 51
262.892040478314
210
0
220
0
230
1.0
 0
ARC
 8
TOOL_0
 5
80
 10
971.176
 20
346.162
 30
0
 40
3.013693083245
 50
0.228117359406
 51
82.660393719969
210
0
220
0
230
1.0
 0
LINE
 8
TOOL_0
 5
81
 10
974.19
 20
346.174
 30
0
 11
974.19
 21
217.643
 31
0
 0
LINE
 8
TOOL_0
 5
82
 10
974.19
 20
217.643
 30
0
 11
976.67
 21
215.952
 31
0
 0
LINE
 8
TOOL_0
 5
83
 10
976.67
 20
215.952
 30
0
 11
980.206
 21
212.416
 31
0
 0
LINE
 8
TOOL_0
 5
84
 10
980.206
 20
212.416
 30
0
 11
1330.817
 21
31.804
 31
0
 0
LINE
 8
TOOL_0
 5
85
 10
1330.817
 20
31.804
 30
0
 11
1313.139
 21
14.127
 31
0
 0
LINE
 8
TOOL_0
 5
86
 10
1313.139
 20
14.127
 30
0
 11
1310.434
 21
12.826
 31
0
 0
ARC
 8
TOOL_0
 5
87
 10
1305.659
 20
14.309
 30
0
 40
4.999991399993
 50
270.0
 51
342.746464189755
210
0
220
0
230
1.0
 0
LINE
 8
TOOL_0
 5
88
 10
1305.659
 20
9.309
 30
0
 11
1247.447
 21
9.309
 31
0
 0
ARC
 8
TOOL_0
 5
89
 10
1247.475
 20
29.897
 30
0
 40
20.588019040209
 50
234.365268932506
 51
269.922076897355
210
0
220
0
230
1.0
 0
ARC
 8
TOOL_0
 5
8A
 10
1253.226
 20
36.511
 30
0
 40
29.325806468024
 50
215.495887892338
 51
232.761619444092
210
0
220
0
230
1.0
 0
ARC
 8
TOOL_0
 5
8B
 10
1176.082
 20
-25.16
 30
0
 40
69.501635038321
 50
39.965797844957
 51
88.246267223444
210
0
220
0
230
1.0
 0
LINE
 8
TOOL_0
 5
8C
 10
1178.209
 20
44.309
 30
0
 11
1150.724
 21
44.309
 31
0
 0
ARC
 8
TOOL_0
 5
8D
 10
1152.836
 20
-25.168
 30
0
 40
69.509093455461
 50
91.741172379534
 51
139.997385733126
210
0
220
0
230
1.0
 0
ARC
 8
TOOL_0
 5
8E
 10
1075.672
 20
36.536
 30
0
 40
29.357572191856
 50
307.250869813267
 51
324.562374132182
210
0
220
0
230
1.0
 0
ARC
 8
TOOL_0
 5
8F
 10
1081.442
 20
29.897
 30
0
 40
20.587846924824
 50
270.077923102645
 51
305.652526069449
210
0
220
0
230
1.0
 0
LINE
 8
TOOL_0
 5
90
 10
1081.47
 20
9.309
 30
0
 11
1023.258
 21
9.309
 31
0
 0
ARC
 8
TOOL_0
 5
91
 10
1023.258
 20
14.309
 30
0
 40
5.0
 50
180.0
 51
270.0
210
0
220
0
230
1.0
 0
LINE
 8
TOOL_0
 5
92
 10
1018.258
 20
14.309
 30
0
 11
1018.258
 21
144.348
 31
0
 0
ARC
 8
TOOL_0
 5
93
 10
1021.272
 20
144.336
 30
0
 40
3.014023888426
 50
97.339606280031
 51
179.771882640594
210
0
220
0
230
1.0
 0
ARC
 8
TOOL_0
 5
94
 10
1019.958
 20
154.767
 30
0
 40
7.499760329504
 50
277.115540490307
 51
334.627299750044
210
0
220
0
230
1.0
 0
ARC
 8
TOOL_0
 5
95
 10
1029.729
 20
149.93
 30
0
 40
3.405607875255
 50
78.482200075796
 51
151.538579919278
210
0
220
0
230
1.0
 0
LINE
 8
TOOL_0
 5
96
 10
1030.409
 20
153.267
 30
0
 11
1050.575
 21
153.267
 31
0
 0
ARC
 8
TOOL_0
 5
97
 10
1050.575
 20
177.767
 30
0
 40
24.5
 50
270.0
 51
320.000397492753
210
0
220
0
230
1.0
 0
LINE
 8
TOOL_0
 5
98
 10
1069.343
 20
162.019
 30
0
 11
1096.703
 21
194.625
 31
0
 0
ARC
 8
TOOL_0
 5
99
 10
1150.731
 20
149.261
 30
0
 40
70.547269826691
 50
90.017867621705
 51
139.981879748588
210
0
220
0
230
1.0
 0
LINE
 8
TOOL_0
 5
9A
 10
1150.709
 20
219.808
 30
0
 11
1178.209
 21
219.808
 31
0
 0
ARC
 8
TOOL_0
 5
9B
 10
1178.187
 20
149.261
 30
0
 40
70.547003430337
 50
40.018120251412
 51
89.982132378295
210
0
220
0
230
1.0
 0
LINE
 8
TOOL_0
 5
9C
 10
1232.215
 20
194.625
 30
0
 11
1259.575
 21
162.019
 31
0
 0
ARC
 8
TOOL_0
 5
9D
 10
1278.343
 20
177.767
 30
0
 40
24.49974138639
 50
219.999602507247
 51
270.0
210
0
220
0
230
1.0
 0
LINE
 8
TOOL_0
 5
9E
 10
1278.343
 20
153.267
 30
0
 11
1299.472
 21
153.267
 31
0
 0
ARC
 8
TOOL_0
 5
9F
 10
1299.331
 20
150.045
 30
0
 40
3.225083719844
 50
27.867725704437
 51
87.49424155673
210
0
220
0
230
1.0
 0
ARC
 8
TOOL_0
 5
A0
 10
1308.959
 20
154.767
 30
0
 40
7.499598122566
 50
205.375973959936
 51
262.892040478313
210
0
220
0
230
1.0
 0
ARC
 8
TOOL_0
 5
A1
 10
1307.646
 20
144.336
 30
0
 40
3.013693083245
 50
0.228117359406
 51
82.660393719969
210
0
220
0
230
1.0
 0
LINE
 8
TOOL_0
 5
A2
 10
1310.66
 20
144.348
 30
0
 11
1310.66
 21
15.817
 31
0
 0
LINE
 8
TOOL_0
 5
A3
 10
1310.66
 20
15.817
 30
0
 11
1313.14
 21
14.126
 31
0
 0
LINE
 8
TOOL_0
 5
A4
 10
1313.14
 20
14.126
 30
0
 11
1316.676
 21
10.59
 31
0
 0
LINE
 8
TOOL_0
 5
A5
 10
1316.676
 20
10.59
 30
0
 11
1330.818
 21
235.716
 31
0
 0
LINE
 8
TOOL_0
 5
A6
 10
1330.818
 20
235.716
 30
0
 11
1313.14
 21
218.038
 31
0
 0
LINE
 8
TOOL_0
 5
A7
 10
1313.14
 20
218.038
 30
0
 11
1310.435
 21
216.737
 31
0
 0
ARC
 8
TOOL_0
 5
A8
 10
1305.66
 20
218.22
 30
0
 40
4.999991399993
 50
270.0
 51
342.746464189755
210
0
220
0
230
1.0
 0
LINE
 8
TOOL_0
 5
A9
 10
1305.66
 20
213.22
 30
0
 11
1247.448
 21
213.22
 31
0
 0
ARC
 8
TOOL_0
 5
AA
 10
1247.476
 20
233.808
 30
0
 40
20.588019040209
 50
234.365268932506
 51
269.922076897355
210
0
220
0
230
1.0
 0
ARC
 8
TOOL_0
 5
AB
 10
1253.227
 20
240.422
 30
0
 40
29.325806468024
 50
215.495887892338
 51
232.761619444092
210
0
220
0
230
1.0
 0
ARC
 8
TOOL_0
 5
AC
 10
1176.083
 20
178.751
 30
0
 40
69.501635038321
 50
39.965797844957
 51
88.246267223444
210
0
220
0
230
1.0
 0
LINE
 8
TOOL_0
 5
AD
 10
1178.21
 20
248.22
 30
0
 11
1150.725
 21
248.22
 31
0
 0
ARC
 8
TOOL_0
 5
AE
 10
1152.837
 20
178.743
 30
0
 40
69.509093455461
 50
91.741172379534
 51
139.997385733126
210
0
220
0
230
1.0
 0
ARC
 8
TOOL_0
 5
AF
 10
1075.673
 20
240.447
 30
0
 40
29.357572191855
 50
307.250869813267
 51
324.562374132182
210
0
220
0
230
1.0
 0
ARC
 8
TOOL_0
 5
B0
 10
1081.443
 20
233.808
 30
0
 40
20.587846924824
 50
270.077923102645
 51
305.652526069449
210
0
220
0
230
1.0
 0
LINE
 8
TOOL_0
 5
B1
 10
1081.471
 20
213.22
 30
0
 11
1023.259
 21
213.22
 31
0
 0
ARC
 8
TOOL_0
 5
B2
 10
1023.259
 20
218.22
 30
0
 40
5.0
 50
180.0
 51
270.0
210
0
220
0
230
1.0
 0
LINE
 8
TOOL_0
 5
B3
 10
1018.259
 20
218.22
 30
0
 11
1018.259
 21
348.259
 31
0
 0
ARC
 8
TOOL_0
 5
B4
 10
1021.273
 20
348.247
 30
0
 40
3.014023888426
 50
97.339606280031
 51
179.771882640594
210
0
220
0
230
1.0
 0
ARC
 8
TOOL_0
 5
B5
 10
1019.959
 20
358.678
 30
0
 40
7.499760329504
 50
277.115540490307
 51
334.627299750044
210
0
220
0
230
1.0
 0
ARC
 8
TOOL_0
 5
B6
 10
1029.73
 20
353.841
 30
0
 40
3.405607875255
 50
78.482200075796
 51
151.538579919278
210
0
220
0
230
1.0
 0
LINE
 8
TOOL_0
 5
B7
 10
1030.41
 20
357.178
 30
0
 11
1050.576
 21
357.178
 31
0
 0
ARC
 8
TOOL_0
 5
B8
 10
1050.576
 20
381.678
 30
0
 40
24.5
 50
270.0
 51
320.000397492753
210
0
220
0
230
1.0
 0
LINE
 8
TOOL_0
 5
B9
 10
1069.344
 20
365.93
 30
0
 11
1096.704
 21
398.536
 31
0
 0
ARC
 8
TOOL_0
 5
BA
 10
1150.732
 20
353.172
 30
0
 40
70.547269826691
 50
90.017867621705
 51
139.981879748588
210
0
220
0
230
1.0
 0
LINE
 8
TOOL_0
 5
BB
 10
1150.71
 20
423.719
 30
0
 11
1178.21
 21
423.719
 31
0
 0
ARC
 8
TOOL_0
 5
BC
 10
1178.188
 20
353.172
 30
0
 40
70.547003430337
 50
40.018120251412
 51
89.982132378295
210
0
220
0
230
1.0
 0
LINE
 8
TOOL_0
 5
BD
 10
1232.216
 20
398.536
 30
0
 11
1259.576
 21
365.93
 31
0
 0
ARC
 8
TOOL_0
 5
BE
 10
1278.344
 20
381.678
 30
0
 40
24.49974138639
 50
219.999602507247
 51
270.0
210
0
220
0
230
1.0
 0
LINE
 8
TOOL_0
 5
BF
 10
1278.344
 20
357.178
 30
0
 11
1299.473
 21
357.178
 31
0
 0
ARC
 8
TOOL_0
 5
C0
 10
1299.332
 20
353.956
 30
0
 40
3.225083719844
 50
27.867725704437
 51
87.49424155673
210
0
220
0
230
1.0
 0
ARC
 8
TOOL_0
 5
C1
 10
1308.96
 20
358.678
 30
0
 40
7.499598122566
 50
205.375973959936
 51
262.892040478313
210
0
220
0
230
1.0
 0
ARC
 8
TOOL_0
 5
C2
 10
1307.647
 20
348.247
 30
0
 40
3.013693083245
 50
0.228117359406
 51
82.660393719969
210
0
220
0
230
1.0
 0
LINE
 8
TOOL_0
 5
C3
 10
1310.661
 20
348.259
 30
0
 11
1310.661
 21
219.728
 31
0
 0
LINE
 8
TOOL_0
 5
C4
 10
1310.661
 20
219.728
 30
0
 11
1313.141
 21
218.037
 31
0
 0
LINE
 8
TOOL_0
 5
C5
 10
1313.141
 20
218.037
 30
0
 11
1316.677
 21
214.501
 31
0
 0
LINE
 8
TOOL_0
 5
C6
 10
1316.677
 20
214.501
 30
0
 11
1670.757
 21
31.802
 31
0
 0
LINE
 8
TOOL_0
 5
C7
 10
1670.757
 20
31.802
 30
0
 11
1653.079
 21
14.125
 31
0
 0
LINE
 8
TOOL_0
 5
C8
 10
1653.079
 20
14.125
 30
0
 11
1650.374
 21
12.824
 31
0
 0
ARC
 8
TOOL_0
 5
C9
 10
1645.599
 20
14.307
 30
0
 40
4.999991399993
 50
270.0
 51
342.746464189755
210
0
220
0
230
1.0
 0
LINE
 8
TOOL_0
 5
CA
 10
1645.599
 20
9.307
 30
0
 11
1587.387
 21
9.307
 31
0
 0
ARC
 8
TOOL_0
 5
CB
 10
1587.415
 20
29.895
 30
0
 40
20.588019040209
 50
234.365268932506
 51
269.922076897355
210
0
220
0
230
1.0
 0
ARC
 8
TOOL_0
 5
CC
 10
1593.166
 20
36.509
 30
0
 40
29.325806468024
 50
215.495887892338
 51
232.761619444092
210
0
220
0
230
1.0
 0
ARC
 8
TOOL_0
 5
CD
 10
1516.022
 20
-25.162
 30
0
 40
69.501635038321
 50
39.965797844957
 51
88.246267223444
210
0
220
0
230
1.0
 0
LINE
 8
TOOL_0
 5
CE
 10
1518.149
 20
44.307
 30
0
 11
1490.664
 21
44.307
 31
0
 0
ARC
 8
TOOL_0
 5
CF
 10
1492.776
 20
-25.17
 30
0
 40
69.509093455461
 50
91.741172379534
 51
139.997385733126
210
0
220
0
230
1.0
 0
ARC
 8
TOOL_0
 5
D0
 10
1415.612
 20
36.534
 30
0
 40
29.357572191856
 50
307.250869813267
 51
324.562374132182
210
0
220
0
230
1.0
 0
ARC
 8
TOOL_0
 5
D1
 10
1421.382
 20
29.895
 30
0
 40
20.587846924824
 50
270.077923102645
 51
305.652526069449
210
0
220
0
230
1.0
 0
LINE
 8
TOOL_0
 5
D2
 10
1421.41
 20
9.307
 30
0
 11
1363.198
 21
9.307
 31
0
 0
ARC
 8
TOOL_0
 5
D3
 10
1363.198
 20
14.307
 30
0
 40
5.0
 50
180.0
 51
270.0
210
0
220
0
230
1.0
 0
LINE
 8
TOOL_0
 5
D4
 10
1358.198
 20
14.307
 30
0
 11
1358.198
 21
144.346
 31
0
 0
ARC
 8
TOOL_0
 5
D5
 10
1361.212
 20
144.334
 30
0
 40
3.014023888425
 50
97.339606280031
 51
179.771882640594
210
0
220
0
230
1.0
 0
ARC
 8
TOOL_0
 5
D6
 10
1359.898
 20
154.765
 30
0
 40
7.499760329504
 50
277.115540490308
 51
334.627299750044
210
0
220
0
230
1.0
 0
ARC
 8
TOOL_0
 5
D7
 10
1369.669
 20
149.928
 30
0
 40
3.405607875255
 50
78.482200075796
 51
151.538579919278
210
0
220
0
230
1.0
 0
LINE
 8
TOOL_0
 5
D8
 10
1370.349
 20
153.265
 30
0
 11
1390.515
 21
153.265
 31
0
 0
ARC
 8
TOOL_0
 5
D9
 10
1390.515
 20
177.765
 30
0
 40
24.5
 50
270.0
 51
320.000397492753
210
0
220
0
230
1.0
 0
LINE
 8
TOOL_0
 5
DA
 10
1409.283
 20
162.017
 30
0
 11
1436.643
 21
194.623
 31
0
 0
ARC
 8
TOOL_0
 5
DB
 10
1490.671
 20
149.259
 30
0
 40
70.547269826691
 50
90.017867621705
 51
139.981879748588
210
0
220
0
230
1.0
 0
LINE
 8
TOOL_0
 5
DC
 10
1490.649
 20
219.806
 30
0
 11
1518.149
 21
219.806
 31
0
 0
ARC
 8
TOOL_0
 5
DD
 10
1518.127
 20
149.259
 30
0
 40
70.547003430337
 50
40.018120251412
 51
89.982132378295
210
0
220
0
230
1.0
 0
LINE
 8
TOOL_0
 5
DE
 10
1572.155
 20
194.623
 30
0
 11
1599.515
 21
162.017
 31
0
 0
ARC
 8
TOOL_0
 5
DF
 10
1618.283
 20
177.765
 30
0
 40
24.49974138639
 50
219.999602507247
 51
270.0
210
0
220
0
230
1.0
 0
LINE
 8
TOOL_0
 5
E0
 10
1618.283
 20
153.265
 30
0
 11
1639.412
 21
153.265
 31
0
 0
ARC
 8
TOOL_0
 5
E1
 10
1639.271
 20
150.043
 30
0
 40
3.225083719844
 50
27.867725704437
 51
87.49424155673
210
0
220
0
230
1.0
 0
ARC
 8
TOOL_0
 5
E2
 10
1648.899
 20
154.765
 30
0
 40
7.499598122566
 50
205.375973959936
 51
262.892040478313
210
0
220
0
230
1.0
 0
ARC
 8
TOOL_0
 5
E3
 10
1647.586
 20
144.334
 30
0
 40
3.013693083245
 50
0.228117359406
 51
82.660393719969
210
0
220
0
230
1.0
 0
LINE
 8
TOOL_0
 5
E4
 10
1650.6
 20
144.346
 30
0
 11
1650.6
 21
15.815
 31
0
 0
LINE
 8
TOOL_0
 5
E5
 10
1650.6
 20
15.815
 30
0
 11
1653.08
 21
14.124
 31
0
 0
LINE
 8
TOOL_0
 5
E6
 10
1653.08
 20
14.124
 30
0
 11
1656.616
 21
10.588
 31
0
 0
LINE
 8
TOOL_0
 5
E7
 10
1656.616
 20
10.588
 30
0
 11
1670.064
 21
235.714
 31
0
 0
LINE
 8
TOOL_0
 5
E8
 10
1670.064
 20
235.714
 30
0
 11
1652.386
 21
218.036
 31
0
 0
LINE
 8
TOOL_0
 5
E9
 10
1652.386
 20
218.036
 30
0
 11
1649.681
 21
216.735
 31
0
 0
ARC
 8
TOOL_0
 5
EA
 10
1644.906
 20
218.218
 30
0
 40
4.999991399993
 50
270.0
 51
342.746464189755
210
0
220
0
230
1.0
 0
LINE
 8
TOOL_0
 5
EB
 10
1644.906
 20
213.218
 30
0
 11
1586.694
 21
213.218
 31
0
 0
ARC
 8
TOOL_0
 5
EC
 10
1586.722
 20
233.806
 30
0
 40
20.588019040209
 50
234.365268932506
 51
269.922076897355
210
0
220
0
230
1.0
 0
ARC
 8
TOOL_0
 5
ED
 10
1592.473
 20
240.42
 30
0
 40
29.325806468024
 50
215.495887892338
 51
232.761619444092
210
0
220
0
230
1.0
 0
ARC
 8
TOOL_0
 5
EE
 10
1515.329
 20
178.749
 30
0
 40
69.501635038321
 50
39.965797844957
 51
88.246267223444
210
0
220
0
230
1.0
 0
LINE
 8
TOOL_0
 5
EF
 10
1517.456
 20
248.218
 30
0
 11
1489.971
 21
248.218
 31
0
 0
ARC
 8
TOOL_0
 5
F0
 10
1492.083
 20
178.741
 30
0
 40
69.509093455461
 50
91.741172379534
 51
139.997385733126
210
0
220
0
230
1.0
 0
ARC
 8
TOOL_0
 5
F1
 10
1414.919
 20
240.445
 30
0
 40
29.357572191855
 50
307.250869813267
 51
324.562374132182
210
0
220
0
230
1.0
 0
ARC
 8
TOOL_0
 5
F2
 10
1420.689
 20
233.806
 30
0
 40
20.587846924824
 50
270.077923102645
 51
305.652526069449
210
0
220
0
230
1.0
 0
LINE
 8
TOOL_0
 5
F3
 10
1420.717
 20
213.218
 30
0
 11
1362.505
 21
213.218
 31
0
 0
ARC
 8
TOOL_0
 5
F4
 10
1362.505
 20
218.218
 30
0
 40
5.0
 50
180.0
 51
270.0
210
0
220
0
230
1.0
 0
LINE
 8
TOOL_0
 5
F5
 10
1357.505
 20
218.218
 30
0
 11
1357.505
 21
348.257
 31
0
 0
ARC
 8
TOOL_0
 5
F6
 10
1360.519
 20
348.245
 30
0
 40
3.014023888425
 50
97.339606280031
 51
179.771882640594
210
0
220
0
230
1.0
 0
ARC
 8
TOOL_0
 5
F7
 10
1359.205
 20
358.676
 30
0
 40
7.499760329504
 50
277.115540490308
 51
334.627299750044
210
0
220
0
230
1.0
 0
ARC
 8
TOOL_0
 5
F8
 10
1368.976
 20
353.839
 30
0
 40
3.405607875255
 50
78.482200075796
 51
151.538579919278
210
0
220
0
230
1.0
 0
LINE
 8
TOOL_0
 5
F9
 10
1369.656
 20
357.176
 30
0
 11
1389.822
 21
357.176
 31
0
 0
ARC
 8
TOOL_0
 5
FA
 10
1389.822
 20
381.676
 30
0
 40
24.5
 50
270.0
 51
320.000397492753
210
0
220
0
230
1.0
 0
LINE
 8
TOOL_0
 5
FB
 10
1408.59
 20
365.928
 30
0
 11
1435.95
 21
398.534
 31
0
 0
ARC
 8
TOOL_0
 5
FC
 10
1489.978
 20
353.17
 30
0
 40
70.547269826691
 50
90.017867621705
 51
139.981879748588
210
0
220
0
230
1.0
 0
LINE
 8
TOOL_0
 5
FD
 10
1489.956
 20
423.717
 30
0
 11
1517.456
 21
423.717
 31
0
 0
ARC
 8
TOOL_0
 5
FE
 10
1517.434
 20
353.17
 30
0
 40
70.547003430337
 50
40.018120251412
 51
89.982132378295
210
0
220
0
230
1.0
 0
LINE
 8
TOOL_0
 5
FF
 10
1571.462
 20
398.534
 30
0
 11
1598.822
 21
365.928
 31
0
 0
ARC
 8
TOOL_0
 5
100
 10
1617.59
 20
381.676
 30
0
 40
24.49974138639
 50
219.999602507247
 51
270.0
210
0
220
0
230
1.0
 0
LINE
 8
TOOL_0
 5
101
 10
1617.59
 20
357.176
 30
0
 11
1638.719
 21
357.176
 31
0
 0
ARC
 8
TOOL_0
 5
102
 10
1638.578
 20
353.954
 30
0
 40
3.225083719844
 50
27.867725704437
 51
87.49424155673
210
0
220
0
230
1.0
 0
ARC
 8
TOOL_0
 5
103
 10
1648.206
 20
358.676
 30
0
 40
7.499598122566
 50
205.375973959936
 51
262.892040478313
210
0
220
0
230
1.0
 0
ARC
 8
TOOL_0
 5
104
 10
1646.893
 20
348.245
 30
0
 40
3.013693083245
 50
0.228117359406
 51
82.660393719969
210
0
220
0
230
1.0
 0
LINE
 8
TOOL_0
 5
105
 10
1649.907
 20
348.257
 30
0
 11
1649.907
 21
219.726
 31
0
 0
LINE
 8
TOOL_0
 5
106
 10
1649.907
 20
219.726
 30
0
 11
1652.387
 21
218.035
 31
0
 0
LINE
 8
TOOL_0
 5
107
 10
1652.387
 20
218.035
 30
0
 11
1655.923
 21
214.499
 31
0
 0
LINE
 8
TOOL_0
 5
108
 10
1655.923
 20
214.499
 30
0
 11
1655.923
 21
-0.009
 31
0
 0
LINE
 8
TOOL_0
 5
109
 10
1655.923
 20
-0.009
 30
0
 11
652.333
 21
1688.152
 31
0
 0
LINE
 8
TOOL_0
 5
10A
 10
652.333
 20
1688.152
 30
0
 11
634.656
 21
1670.474
 31
0
 0
LINE
 8
TOOL_0
 5
10B
 10
634.656
 20
1670.474
 30
0
 11
631.951
 21
1669.173
 31
0
 0
ARC
 8
TOOL_0
 5
10C
 10
627.176
 20
1670.656
 30
0
 40
4.999991399993
 50
270.0
 51
342.746464189755
210
0
220
0
230
1.0
 0
LINE
 8
TOOL_0
 5
10D
 10
627.176
 20
1665.656
 30
0
 11
568.964
 21
1665.656
 31
0
 0
ARC
 8
TOOL_0
 5
10E
 10
568.992
 20
1686.244
 30
0
 40
20.588019040209
 50
234.365268932506
 51
269.922076897355
210
0
220
0
230
1.0
 0
ARC
 8
TOOL_0
 5
10F
 10
574.743
 20
1692.858
 30
0
 40
29.325806468024
 50
215.495887892338
 51
232.761619444092
210
0
220
0
230
1.0
 0
ARC
 8
TOOL_0
 5
110
 10
497.599
 20
1631.187
 30
0
 40
69.501635038321
 50
39.965797844957
 51
88.246267223444
210
0
220
0
230
1.0
 0
LINE
 8
TOOL_0
 5
111
 10
499.726
 20
1700.656
 30
0
 11
472.241
 21
1700.656
 31
0
 0
ARC
 8
TOOL_0
 5
112
 10
474.353
 20
1631.179
 30
0
 40
69.509093455461
 50
91.741172379534
 51
139.997385733126
210
0
220
0
230
1.0
 0
ARC
 8
TOOL_0
 5
113
 10
397.189
 20
1692.883
 30
0
 40
29.357572191855
 50
307.250869813267
 51
324.562374132182
210
0
220
0
230
1.0
 0
ARC
 8
TOOL_0
 5
114
 10
402.959
 20
1686.244
 30
0
 40
20.587846924824
 50
270.077923102645
 51
305.652526069448
210
0
220
0
230
1.0
 0
LINE
 8
TOOL_0
 5
115
 10
402.987
 20
1665.656
 30
0
 11
344.775
 21
1665.656
 31
0
 0
ARC
 8
TOOL_0
 5
116
 10
344.775
 20
1670.656
 30
0
 40
5.0
 50
180.0
 51
270.0
210
0
220
0
230
1.0
 0
LINE
 8
TOOL_0
 5
117
 10
339.775
 20
1670.656
 30
0
 11
339.775
 21
1800.695
 31
0
 0
ARC
 8
TOOL_0
 5
118
 10
342.789
 20
1800.683
 30
0
 40
3.014023888426
 50
97.339606280031
 51
179.771882640595
210
0
220
0
230
1.0
 0
ARC
 8
TOOL_0
 5
119
 10
341.475
 20
1811.114
 30
0
 40
7.499760329504
 50
277.115540490307
 51
334.627299750045
210
0
220
0
230
1.0
 0
ARC
 8
TOOL_0
 5
11A
 10
351.246
 20
1806.277
 30
0
 40
3.405607875255
 50
78.482200075798
 51
151.538579919278
210
0
220
0
230
1.0
 0
LINE
 8
TOOL_0
 5
11B
 10
351.926
 20
1809.614
 30
0
 11
372.092
 21
1809.614
 31
0
 0
ARC
 8
TOOL_0
 5
11C
 10
372.092
 20
1834.114
 30
0
 40
24.5
 50
270.0
 51
320.000397492753
210
0
220
0
230
1.0
 0
LINE
 8
TOOL_0
 5
11D
 10
390.86
 20
1818.366
 30
0
 11
418.22
 21
1850.972
 31
0
 0
ARC
 8
TOOL_0
 5
11E
 10
472.248
 20
1805.608
 30
0
 40
70.547269826691
 50
90.017867621705
 51
139.981879748588
210
0
220
0
230
1.0
 0
LINE
 8
TOOL_0
 5
11F
 10
472.226
 20
1876.155
 30
0
 11
499.726
 21
1876.155
 31
0
 0
ARC
 8
TOOL_0
 5
120
 10
499.704
 20
1805.608
 30
0
 40
70.547003430337
 50
40.018120251412
 51
89.982132378295
210
0
220
0
230
1.0
 0
LINE
 8
TOOL_0
 5
121
 10
553.732
 20
1850.972
 30
0
 11
581.092
 21
1818.366
 31
0
 0
ARC
 8
TOOL_0
 5
122
 10
599.86
 20
1834.114
 30
0
 40
24.49974138639
 50
219.999602507247
 51
270.0
210
0
220
0
230
1.0
 0
LINE
 8
TOOL_0
 5
123
 10
599.86
 20
1809.614
 30
0
 11
620.989
 21
1809.614
 31
0
 0
ARC
 8
TOOL_0
 5
124
 10
620.848
 20
1806.392
 30
0
 40
3.225083719844
 50
27.867725704438
 51
87.494241556732
210
0
220
0
230
1.0
 0
ARC
 8
TOOL_0
 5
125
 10
630.476
 20
1811.114
 30
0
 40
7.499598122566
 50
205.375973959936
 51
262.892040478314
210
0
220
0
230
1.0
 0
ARC
 8
TOOL_0
 5
126
 10
629.163
 20
1800.683
 30
0
 40
3.013693083245
 50
0.228117359404
 51
82.660393719969
210
0
220
0
230
1.0
 0
LINE
 8
TOOL_0
 5
127
 10
632.177
 20
1800.695
 30
0
 11
632.177
 21
1672.164
 31
0
 0
LINE
 8
TOOL_0
 5
128
 10
632.177
 20
1672.164
 30
0
 11
634.657
 21
1670.473
 31
0
 0
LINE
 8
TOOL_0
 5
129
 10
634.657
 20
1670.473
 30
0
 11
638.193
 21
1666.937
 31
0
 0
LINE
 8
TOOL_0
 5
12A
 10
638.193
 20
1666.937
 30
0
 11
994.354
 21
1681.886
 31
0
 0
LINE
 8
TOOL_0
 5
12B
 10
994.354
 20
1681.886
 30
0
 11
976.676
 21
1664.209
 31
0
 0
LINE
 8
TOOL_0
 5
12C
 10
976.676
 20
1664.209
 30
0
 11
973.971
 21
1662.908
 31
0
 0
ARC
 8
TOOL_0
 5
12D
 10
969.196
 20
1664.391
 30
0
 40
4.999991399993
 50
270.0
 51
342.746464189755
210
0
220
0
230
1.0
 0
LINE
 8
TOOL_0
 5
12E
 10
969.196
 20
1659.391
 30
0
 11
910.984
 21
1659.391
 31
0
 0
ARC
 8
TOOL_0
 5
12F
 10
911.012
 20
1679.979
 30
0
 40
20.588019040209
 50
234.365268932506
 51
269.922076897355
210
0
220
0
230
1.0
 0
ARC
 8
TOOL_0
 5
130
 10
916.763
 20
1686.593
 30
0
 40
29.325806468024
 50
215.495887892338
 51
232.761619444092
210
0
220
0
230
1.0
 0
ARC
 8
TOOL_0
 5
131
 10
839.619
 20
1624.922
 30
0
 40
69.501635038321
 50
39.965797844957
 51
88.246267223444
210
0
220
0
230
1.0
 0
LINE
 8
TOOL_0
 5
132
 10
841.746
 20
1694.391
 30
0
 11
814.261
 21
1694.391
 31
0
 0
ARC
 8
TOOL_0
 5
133
 10
816.373
 20
1624.914
 30
0
 40
69.509093455461
 50
91.741172379534
 51
139.997385733126
210
0
220
0
230
1.0
 0
ARC
 8
TOOL_0
 5
134
 10
739.209
 20
1686.618
 30
0
 40
29.357572191855
 50
307.250869813267
 51
324.562374132182
210
0
220
0
230
1.0
 0
ARC
 8
TOOL_0
 5
135
 10
744.979
 20
1679.979
 30
0
 40
20.587846924824
 50
270.077923102645
 51
305.652526069448
210
0
220
0
230
1.0
 0
LINE
 8
TOOL_0
 5
136
 10
745.007
 20
1659.391
 30
0
 11
686.795
 21
1659.391
 31
0
 0
ARC
 8
TOOL_0
 5
137
 10
686.795
 20
1664.391
 30
0
 40
5.0
 50
180.0
 51
270.0
210
0
220
0
230
1.0
 0
LINE
 8
TOOL_0
 5
138
 10
681.795
 20
1664.391
 30
0
 11
681.795
 21
1794.43
 31
0
 0
ARC
 8
TOOL_0
 5
139
 10
684.809
 20
1794.418
 30
0
 40
3.014023888426
 50
97.339606280031
 51
179.771882640595
210
0
220
0
230
1.0
 0
ARC
 8
TOOL_0
 5
13A
 10
683.495
 20
1804.849
 30
0
 40
7.499760329504
 50
277.115540490307
 51
334.627299750044
210
0
220
0
230
1.0
 0
ARC
 8
TOOL_0
 5
13B
 10
693.266
 20
1800.012
 30
0
 40
3.405607875255
 50
78.482200075798
 51
151.538579919278
210
0
220
0
230
1.0
 0
LINE
 8
TOOL_0
 5
13C
 10
693.946
 20
1803.349
 30
0
 11
714.112
 21
1803.349
 31
0
 0
ARC
 8
TOOL_0
 5
13D
 10
714.112
 20
1827.849
 30
0
 40
24.5
 50
270.0
 51
320.000397492753
210
0
220
0
230
1.0
 0
LINE
 8
TOOL_0
 5
13E
 10
732.88
 20
1812.101
 30
0
 11
760.24
 21
1844.707
 31
0
 0
ARC
 8
TOOL_0
 5
13F
 10
814.268
 20
1799.343
 30
0
 40
70.547269826691
 50
90.017867621705
 51
139.981879748588
210
0
220
0
230
1.0
 0
LINE
 8
TOOL_0
 5
140
 10
814.246
 20
1869.89
 30
0
 11
841.746
 21
1869.89
 31
0
 0
ARC
 8
TOOL_0
 5
141
 10
841.724
 20
1799.343
 30
0
 40
70.547003430337
 50
40.018120251412
 51
89.982132378295
210
0
220
0
230
1.0
 0
LINE
 8
TOOL_0
 5
142
 10
895.752
 20
1844.707
 30
0
 11
923.112
 21
1812.101
 31
0
 0
ARC
 8
TOOL_0
 5
143
 10
941.88
 20
1827.849
 30
0
 40
24.49974138639
 50
219.999602507247
 51
270.0
210
0
220
0
230
1.0
 0
LINE
 8
TOOL_0
 5
144
 10
941.88
 20
1803.349
 30
0
 11
963.009
 21
1803.349
 31
0
 0
ARC
 8
TOOL_0
 5
145
 10
962.868
 20
1800.127
 30
0
 40
3.225083719844
 50
27.867725704438
 51
87.494241556732
210
0
220
0
230
1.0
 0
ARC
 8
TOOL_0
 5
146
 10
972.496
 20
1804.849
 30
0
 40
7.499598122566
 50
205.375973959936
 51
262.892040478314
210
0
220
0
230
1.0
 0
ARC
 8
TOOL_0
 5
147
 10
971.183
 20
1794.418
 30
0
 40
3.013693083245
 50
0.228117359404
 51
82.660393719969
210
0
220
0
230
1.0
 0
LINE
 8
TOOL_0
 5
148
 10
974.197
 20
1794.43
 30
0
 11
974.197
 21
1665.899
 31
0
 0
LINE
 8
TOOL_0
 5
149
 10
974.197
 20
1665.899
 30
0
 11
976.677
 21
1664.208
 31
0
 0
LINE
 8
TOOL_0
 5
14A
 10
976.677
 20
1664.208
 30
0
 11
980.213
 21
1660.672
 31
0
 0
LINE
 8
TOOL_0
 5
14B
 10
980.213
 20
1660.672
 30
0
 11
1328.396
 21
1686.409
 31
0
 0
LINE
 8
TOOL_0
 5
14C
 10
1328.396
 20
1686.409
 30
0
 11
1310.718
 21
1668.731
 31
0
 0
LINE
 8
TOOL_0
 5
14D
 10
1310.718
 20
1668.731
 30
0
 11
1308.013
 21
1667.43
 31
0
 0
ARC
 8
TOOL_0
 5
14E
 10
1303.238
 20
1668.913
 30
0
 40
4.999991399993
 50
270.0
 51
342.746464189755
210
0
220
0
230
1.0
 0
LINE
 8
TOOL_0
 5
14F
 10
1303.238
 20
1663.913
 30
0
 11
1245.026
 21
1663.913
 31
0
 0
ARC
 8
TOOL_0
 5
150
 10
1245.054
 20
1684.501
 30
0
 40
20.588019040209
 50
234.365268932506
 51
269.922076897355
210
0
220
0
230
1.0
 0
ARC
 8
TOOL_0
 5
151
 10
1250.805
 20
1691.115
 30
0
 40
29.325806468024
 50
215.495887892338
 51
232.761619444092
210
0
220
0
230
1.0
 0
ARC
 8
TOOL_0
 5
152
 10
1173.661
 20
1629.444
 30
0
 40
69.501635038321
 50
39.965797844957
 51
88.246267223444
210
0
220
0
230
1.0
 0
LINE
 8
TOOL_0
 5
153
 10
1175.788
 20
1698.913
 30
0
 11
1148.303
 21
1698.913
 31
0
 0
ARC
 8
TOOL_0
 5
154
 10
1150.415
 20
1629.436
 30
0
 40
69.509093455461
 50
91.741172379534
 51
139.997385733126
210
0
220
0
230
1.0
 0
ARC
 8
TOOL_0
 5
155
 10
1073.251
 20
1691.14
 30
0
 40
29.357572191855
 50
307.250869813267
 51
324.562374132183
210
0
220
0
230
1.0
 0
ARC
 8
TOOL_0
 5
156
 10
1079.021
 20
1684.501
 30
0
 40
20.587846924824
 50
270.077923102645
 51
305.652526069448
210
0
220
0
230
1.0
 0
LINE
 8
TOOL_0
 5
157
 10
1079.049
 20
1663.913
 30
0
 11
1020.837
 21
1663.913
 31
0
 0
ARC
 8
TOOL_0
 5
158
 10
1020.837
 20
1668.913
 30
0
 40
5.0
 50
180.0
 51
270.0
210
0
220
0
230
1.0
 0
LINE
 8
TOOL_0
 5
159
 10
1015.837
 20
1668.913
 30
0
 11
1015.837
 21
1798.952
 31
0
 0
ARC
 8
TOOL_0
 5
15A
 10
1018.851
 20
1798.94
 30
0
 40
3.014023888426
 50
97.339606280031
 51
179.771882640595
210
0
220
0
230
1.0
 0
ARC
 8
TOOL_0
 5
15B
 10
1017.537
 20
1809.371
 30
0
 40
7.499760329504
 50
277.115540490307
 51
334.627299750045
210
0
220
0
230
1.0
 0
ARC
 8
TOOL_0
 5
15C
 10
1027.308
 20
1804.534
 30
0
 40
3.405607875255
 50
78.482200075796
 51
151.538579919278
210
0
220
0
230
1.0
 0
LINE
 8
TOOL_0
 5
15D
 10
1027.988
 20
1807.871
 30
0
 11
1048.154
 21
1807.871
 31
0
 0
ARC
 8
TOOL_0
 5
15E
 10
1048.154
 20
1832.371
 30
0
 40
24.5
 50
270.0
 51
320.000397492753
210
0
220
0
230
1.0
 0
LINE
 8
TOOL_0
 5
15F
 10
1066.922
 20
1816.623
 30
0
 11
1094.282
 21
1849.229
 31
0
 0
ARC
 8
TOOL_0
 5
160
 10
1148.31
 20
1803.865
 30
0
 40
70.547269826691
 50
90.017867621705
 51
139.981879748588
210
0
220
0
230
1.0
 0
LINE
 8
TOOL_0
 5
161
 10
1148.288
 20
1874.412
 30
0
 11
1175.788
 21
1874.412
 31
0
 0
ARC
 8
TOOL_0
 5
162
 10
1175.766
 20
1803.865
 30
0
 40
70.547003430337
 50
40.018120251412
 51
89.982132378295
210
0
220
0
230
1.0
 0
LINE
 8
TOOL_0
 5
163
 10
1229.794
 20
1849.229
 30
0
 11
1257.154
 21
1816.623
 31
0
 0
ARC
 8
TOOL_0
 5
164
 10
1275.922
 20
1832.371
 30
0
 40
24.49974138639
 50
219.999602507247
 51
270.0
210
0
220
0
230
1.0
 0
LINE
 8
TOOL_0
 5
165
 10
1275.922
 20
1807.871
 30
0
 11
1297.051
 21
1807.871
 31
0
 0
ARC
 8
TOOL_0
 5
166
 10
1296.91
 20
1804.649
 30
0
 40
3.225083719844
 50
27.867725704437
 51
87.49424155673
210
0
220
0
230
1.0
 0
ARC
 8
TOOL_0
 5
167
 10
1306.538
 20
1809.371
 30
0
 40
7.499598122566
 50
205.375973959936
 51
262.892040478313
210
0
220
0
230
1.0
 0
ARC
 8
TOOL_0
 5
168
 10
1305.225
 20
1798.94
 30
0
 40
3.013693083245
 50
0.228117359404
 51
82.660393719969
210
0
220
0
230
1.0
 0
LINE
 8
TOOL_0
 5
169
 10
1308.239
 20
1798.952
 30
0
 11
1308.239
 21
1670.421
 31
0
 0
LINE
 8
TOOL_0
 5
16A
 10
1308.239
 20
1670.421
 30
0
 11
1310.719
 21
1668.73
 31
0
 0
LINE
 8
TOOL_0
 5
16B
 10
1310.719
 20
1668.73
 30
0
 11
1314.255
 21
1665.194
 31
0
 0
LINE
 8
TOOL_0
 5
16C
 10
1314.255
 20
1665.194
 30
0
 11
1667.988
 21
1686.059
 31
0
 0
LINE
 8
TOOL_0
 5
16D
 10
1667.988
 20
1686.059
 30
0
 11
1650.31
 21
1668.381
 31
0
 0
LINE
 8
TOOL_0
 5
16E
 10
1650.31
 20
1668.381
 30
0
 11
1647.605
 21
1667.08
 31
0
 0
ARC
 8
TOOL_0
 5
16F
 10
1642.83
 20
1668.563
 30
0
 40
4.999991399993
 50
270.0
 51
342.746464189755
210
0
220
0
230
1.0
 0
LINE
 8
TOOL_0
 5
170
 10
1642.83
 20
1663.563
 30
0
 11
1584.618
 21
1663.563
 31
0
 0
ARC
 8
TOOL_0
 5
171
 10
1584.646
 20
1684.151
 30
0
 40
20.588019040209
 50
234.365268932506
 51
269.922076897355
210
0
220
0
230
1.0
 0
ARC
 8
TOOL_0
 5
172
 10
1590.397
 20
1690.765
 30
0
 40
29.325806468024
 50
215.495887892338
 51
232.761619444092
210
0
220
0
230
1.0
 0
ARC
 8
TOOL_0
 5
173
 10
1513.253
 20
1629.094
 30
0
 40
69.501635038321
 50
39.965797844957
 51
88.246267223444
210
0
220
0
230
1.0
 0
LINE
 8
TOOL_0
 5
174
 10
1515.38
 20
1698.563
 30
0
 11
1487.895
 21
1698.563
 31
0
 0
ARC
 8
TOOL_0
 5
175
 10
1490.007
 20
1629.086
 30
0
 40
69.509093455461
 50
91.741172379534
 51
139.997385733126
210
0
220
0
230
1.0
 0
ARC
 8
TOOL_0
 5
176
 10
1412.843
 20
1690.79
 30
0
 40
29.357572191855
 50
307.250869813267
 51
324.562374132183
210
0
220
0
230
1.0
 0
ARC
 8
TOOL_0
 5
177
 10
1418.613
 20
1684.151
 30
0
 40
20.587846924824
 50
270.077923102645
 51
305.652526069448
210
0
220
0
230
1.0
 0
LINE
 8
TOOL_0
 5
178
 10
1418.641
 20
1663.563
 30
0
 11
1360.429
 21
1663.563
 31
0
 0
ARC
 8
TOOL_0
 5
179
 10
1360.429
 20
1668.563
 30
0
 40
5.0
 50
180.0
 51
270.0
210
0
220
0
230
1.0
 0
LINE
 8
TOOL_0
 5
17A
 10
1355.429
 20
1668.563
 30
0
 11
1355.429
 21
1798.602
 31
0
 0
ARC
 8
TOOL_0
 5
17B
 10
1358.443
 20
1798.59
 30
0
 40
3.014023888425
 50
97.339606280031
 51
179.771882640595
210
0
220
0
230
1.0
 0
ARC
 8
TOOL_0
 5
17C
 10
1357.129
 20
1809.021
 30
0
 40
7.499760329504
 50
277.115540490308
 51
334.627299750045
210
0
220
0
230
1.0
 0
ARC
 8
TOOL_0
 5
17D
 10
1366.9
 20
1804.184
 30
0
 40
3.405607875255
 50
78.482200075796
 51
151.538579919278
210
0
220
0
230
1.0
 0
LINE
 8
TOOL_0
 5
17E
 10
1367.58
 20
1807.521
 30
0
 11
1387.746
 21
1807.521
 31
0
 0
ARC
 8
TOOL_0
 5
17F
 10
1387.746
 20
1832.021
 30
0
 40
24.5
 50
270.0
 51
320.000397492753
210
0
220
0
230
1.0
 0
LINE
 8
TOOL_0
 5
180
 10
1406.514
 20
1816.273
 30
0
 11
1433.874
 21
1848.879
 31
0
 0
ARC
 8
TOOL_0
 5
181
 10
1487.902
 20
1803.515
 30
0
 40
70.547269826691
 50
90.017867621705
 51
139.981879748588
210
0
220
0
230
1.0
 0
LINE
 8
TOOL_0
 5
182
 10
1487.88
 20
1874.062
 30
0
 11
1515.38
 21
1874.062
 31
0
 0
ARC
 8
TOOL_0
 5
183
 10
1515.358
 20
1803.515
 30
0
 40
70.547003430337
 50
40.018120251412
 51
89.982132378295
210
0
220
0
230
1.0
 0
LINE
 8
TOOL_0
 5
184
 10
1569.386
 20
1848.879
 30
0
 11
1596.746
 21
1816.273
 31
0
 0
ARC
 8
TOOL_0
 5
185
 10
1615.514
 20
1832.021
 30
0
 40
24.49974138639
 50
219.999602507247
 51
270.0
210
0
220
0
230
1.0
 0
LINE
 8
TOOL_0
 5
186
 10
1615.514
 20
1807.521
 30
0
 11
1636.643
 21
1807.521
 31
0
 0
ARC
 8
TOOL_0
 5
187
 10
1636.502
 20
1804.299
 30
0
 40
3.225083719844
 50
27.867725704437
 51
87.49424155673
210
0
220
0
230
1.0
 0
ARC
 8
TOOL_0
 5
188
 10
1646.13
 20
1809.021
 30
0
 40
7.499598122566
 50
205.375973959936
 51
262.892040478313
210
0
220
0
230
1.0
 0
ARC
 8
TOOL_0
 5
189
 10
1644.817
 20
1798.59
 30
0
 40
3.013693083245
 50
0.228117359404
 51
82.660393719969
210
0
220
0
230
1.0
 0
LINE
 8
TOOL_0
 5
18A
 10
1647.831
 20
1798.602
 30
0
 11
1647.831
 21
1670.071
 31
0
 0
LINE
 8
TOOL_0
 5
18B
 10
1647.831
 20
1670.071
 30
0
 11
1650.311
 21
1668.38
 31
0
 0
LINE
 8
TOOL_0
 5
18C
 10
1650.311
 20
1668.38
 30
0
 11
1653.847
 21
1664.844
 31
0
 0
ENDSEC
 0
EOF

