0
SECTION
2
TABLES
0
TABLE
2
LAYER
70
0
0
LAYER
2
LAYER_NAME
70
0
62
1
6
CONTINUOUS
0
ENDTAB
0
ENDSEC
 0
SECTION
 2
ENTITIES
 0
LINE
 8
TOOL_0
 5
1
 10
1611.339
 20
887.625
 30
0
 11
1576.339
 21
887.625
 31
0
 0
LINE
 8
TOOL_0
 5
2
 10
1576.339
 20
887.625
 30
0
 11
1305.539
 21
887.625
 31
0
 0
ARC
 8
TOOL_0
 5
3
 10
1305.539
 20
908.425
 30
0
 40
20.8
 50
180.0
 51
270.0
210
0
220
0
230
1.0
 0
LINE
 8
TOOL_0
 5
4
 10
1284.739
 20
908.425
 30
0
 11
1284.739
 21
1185.425
 31
0
 0
ARC
 8
TOOL_0
 5
5
 10
1305.539
 20
1185.425
 30
0
 40
20.8
 50
90.0
 51
180.0
210
0
220
0
230
1.0
 0
LINE
 8
TOOL_0
 5
6
 10
1305.539
 20
1206.225
 30
0
 11
1576.339
 21
1206.225
 31
0
 0
LINE
 8
TOOL_0
 5
7
 10
1576.339
 20
1206.225
 30
0
 11
1576.339
 21
887.625
 31
0
 0
LINE
 8
TOOL_0
 5
8
 10
1576.339
 20
887.625
 30
0
 11
1576.339
 21
882.625
 31
0
 0
LINE
 8
TOOL_0
 5
9
 10
1576.339
 20
882.625
 30
0
 11
1872.049
 21
1353.221
 31
0
 0
LINE
 8
TOOL_0
 5
A
 10
1872.049
 20
1353.221
 30
0
 11
1840.715
 21
1353.221
 31
0
 0
LINE
 8
TOOL_0
 5
B
 10
1840.715
 20
1353.221
 30
0
 11
1569.915
 21
1353.221
 31
0
 0
LINE
 8
TOOL_0
 5
C
 10
1569.915
 20
1353.221
 30
0
 11
1569.915
 21
1671.821
 31
0
 0
LINE
 8
TOOL_0
 5
D
 10
1569.915
 20
1671.821
 30
0
 11
1840.715
 21
1671.821
 31
0
 0
ARC
 8
TOOL_0
 5
E
 10
1840.715
 20
1651.021
 30
0
 40
20.8
 50
0
 51
90.0
210
0
220
0
230
1.0
 0
LINE
 8
TOOL_0
 5
F
 10
1861.515
 20
1651.021
 30
0
 11
1861.515
 21
1374.021
 31
0
 0
ARC
 8
TOOL_0
 5
10
 10
1840.715
 20
1374.021
 30
0
 40
20.8
 50
270.0
 51
0
210
0
220
0
230
1.0
 0
LINE
 8
TOOL_0
 5
11
 10
1840.715
 20
1353.221
 30
0
 11
1840.715
 21
1343.616
 31
0
 0
LINE
 8
TOOL_0
 5
12
 10
1840.715
 20
1343.616
 30
0
 11
1028.75
 21
2548.751
 31
0
 0
LINE
 8
TOOL_0
 5
13
 10
1028.75
 20
2548.751
 30
0
 11
1058.75
 21
2548.751
 31
0
 0
ARC
 8
TOOL_0
 5
14
 10
1023.75
 20
2548.751
 30
0
 40
35.0
 50
0
 51
180.0
210
0
220
0
230
1.0
 0
ARC
 8
TOOL_0
 5
15
 10
1023.75
 20
2548.751
 30
0
 40
35.0
 50
180.0
 51
0
210
0
220
0
230
1.0
 0
LINE
 8
TOOL_0
 5
16
 10
1058.75
 20
2548.751
 30
0
 11
1051.679
 21
2555.822
 31
0
 0
LINE
 8
TOOL_0
 5
17
 10
1051.679
 20
2555.822
 30
0
 11
633.75
 21
2313.751
 31
0
 0
LINE
 8
TOOL_0
 5
18
 10
633.75
 20
2313.751
 30
0
 11
663.75
 21
2313.751
 31
0
 0
LINE
 8
TOOL_0
 5
19
 10
663.75
 20
2313.751
 30
0
 11
663.75
 21
2343.751
 31
0
 0
ARC
 8
TOOL_0
 5
1A
 10
653.75
 20
2343.751
 30
0
 40
10.0
 50
0
 51
90.0
210
0
220
0
230
1.0
 0
LINE
 8
TOOL_0
 5
1B
 10
653.75
 20
2353.751
 30
0
 11
473.75
 21
2353.751
 31
0
 0
ARC
 8
TOOL_0
 5
1C
 10
473.75
 20
2343.751
 30
0
 40
10.0
 50
90.0
 51
180.0
210
0
220
0
230
1.0
 0
LINE
 8
TOOL_0
 5
1D
 10
463.75
 20
2343.751
 30
0
 11
463.75
 21
2283.751
 31
0
 0
ARC
 8
TOOL_0
 5
1E
 10
473.75
 20
2283.751
 30
0
 40
10.0
 50
180.0
 51
270.0
210
0
220
0
230
1.0
 0
LINE
 8
TOOL_0
 5
1F
 10
473.75
 20
2273.751
 30
0
 11
653.75
 21
2273.751
 31
0
 0
ARC
 8
TOOL_0
 5
20
 10
653.75
 20
2283.751
 30
0
 40
10.0
 50
270.0
 51
0
210
0
220
0
230
1.0
 0
LINE
 8
TOOL_0
 5
21
 10
663.75
 20
2283.751
 30
0
 11
663.75
 21
2313.751
 31
0
 0
LINE
 8
TOOL_0
 5
22
 10
663.75
 20
2313.751
 30
0
 11
656.679
 21
2320.822
 31
0
 0
LINE
 8
TOOL_0
 5
23
 10
656.679
 20
2320.822
 30
0
 11
1041.75
 21
1903.751
 31
0
 0
LINE
 8
TOOL_0
 5
24
 10
1041.75
 20
1903.751
 30
0
 11
1071.75
 21
1903.751
 31
0
 0
ARC
 8
TOOL_0
 5
25
 10
1051.75
 20
1903.751
 30
0
 40
20.0
 50
0
 51
66.867990902554
210
0
220
0
230
1.0
 0
LINE
 8
TOOL_0
 5
26
 10
1059.607
 20
1922.143
 30
0
 11
1035.928
 21
1932.259
 31
0
 0
ARC
 8
TOOL_0
 5
27
 10
1023.749
 20
1903.573
 30
0
 40
31.164316726025
 50
66.9957430162
 51
113.002564662372
210
0
220
0
230
1.0
 0
LINE
 8
TOOL_0
 5
28
 10
1011.571
 20
1932.259
 30
0
 11
987.892
 21
1922.143
 31
0
 0
ARC
 8
TOOL_0
 5
29
 10
995.749
 20
1903.751
 30
0
 40
19.999952824944
 50
113.132009097445
 51
246.867990902554
210
0
220
0
230
1.0
 0
LINE
 8
TOOL_0
 5
2A
 10
987.892
 20
1885.359
 30
0
 11
1011.571
 21
1875.243
 31
0
 0
ARC
 8
TOOL_0
 5
2B
 10
1023.75
 20
1903.929
 30
0
 40
31.164316726025
 50
246.9957430162
 51
293.002564662372
210
0
220
0
230
1.0
 0
LINE
 8
TOOL_0
 5
2C
 10
1035.928
 20
1875.243
 30
0
 11
1059.607
 21
1885.359
 31
0
 0
ARC
 8
TOOL_0
 5
2D
 10
1051.75
 20
1903.751
 30
0
 40
19.999952824944
 50
293.132009097446
 51
0
210
0
220
0
230
1.0
 0
LINE
 8
TOOL_0
 5
2E
 10
1071.75
 20
1903.751
 30
0
 11
1064.679
 21
1910.822
 31
0
 0
LINE
 8
TOOL_0
 5
2F
 10
1064.679
 20
1910.822
 30
0
 11
363.75
 21
105.751
 31
0
 0
LINE
 8
TOOL_0
 5
30
 10
363.75
 20
105.751
 30
0
 11
393.75
 21
105.751
 31
0
 0
LINE
 8
TOOL_0
 5
31
 10
393.75
 20
105.751
 30
0
 11
393.75
 21
115.751
 31
0
 0
ARC
 8
TOOL_0
 5
32
 10
363.75
 20
115.751
 30
0
 40
30.0
 50
0
 51
90.0
210
0
220
0
230
1.0
 0
LINE
 8
TOOL_0
 5
33
 10
363.75
 20
145.751
 30
0
 11
293.75
 21
145.751
 31
0
 0
ARC
 8
TOOL_0
 5
34
 10
293.75
 20
115.751
 30
0
 40
30.0
 50
90.0
 51
180.0
210
0
220
0
230
1.0
 0
LINE
 8
TOOL_0
 5
35
 10
263.75
 20
115.751
 30
0
 11
263.75
 21
95.751
 31
0
 0
ARC
 8
TOOL_0
 5
36
 10
273.75
 20
95.751
 30
0
 40
10.0
 50
180.0
 51
270.0
210
0
220
0
230
1.0
 0
LINE
 8
TOOL_0
 5
37
 10
273.75
 20
85.751
 30
0
 11
383.75
 21
85.751
 31
0
 0
ARC
 8
TOOL_0
 5
38
 10
383.75
 20
95.751
 30
0
 40
10.0
 50
270.0
 51
0
210
0
220
0
230
1.0
 0
LINE
 8
TOOL_0
 5
39
 10
393.75
 20
95.751
 30
0
 11
393.75
 21
105.751
 31
0
 0
LINE
 8
TOOL_0
 5
3A
 10
393.75
 20
105.751
 30
0
 11
386.679
 21
112.822
 31
0
 0
LINE
 8
TOOL_0
 5
3B
 10
386.679
 20
112.822
 30
0
 11
443.75
 21
215.751
 31
0
 0
LINE
 8
TOOL_0
 5
3C
 10
443.75
 20
215.751
 30
0
 11
473.75
 21
215.751
 31
0
 0
LINE
 8
TOOL_0
 5
3D
 10
473.75
 20
215.751
 30
0
 11
473.75
 21
245.751
 31
0
 0
ARC
 8
TOOL_0
 5
3E
 10
453.75
 20
245.751
 30
0
 40
20.0
 50
0
 51
90.0
210
0
220
0
230
1.0
 0
LINE
 8
TOOL_0
 5
3F
 10
453.75
 20
265.751
 30
0
 11
393.75
 21
265.751
 31
0
 0
ARC
 8
TOOL_0
 5
40
 10
393.75
 20
245.751
 30
0
 40
20.0
 50
90.0
 51
180.0
210
0
220
0
230
1.0
 0
LINE
 8
TOOL_0
 5
41
 10
373.75
 20
245.751
 30
0
 11
373.75
 21
185.751
 31
0
 0
ARC
 8
TOOL_0
 5
42
 10
393.75
 20
185.751
 30
0
 40
20.0
 50
180.0
 51
270.0
210
0
220
0
230
1.0
 0
LINE
 8
TOOL_0
 5
43
 10
393.75
 20
165.751
 30
0
 11
453.75
 21
165.751
 31
0
 0
ARC
 8
TOOL_0
 5
44
 10
453.75
 20
185.751
 30
0
 40
20.0
 50
270.0
 51
0
210
0
220
0
230
1.0
 0
LINE
 8
TOOL_0
 5
45
 10
473.75
 20
185.751
 30
0
 11
473.75
 21
215.751
 31
0
 0
LINE
 8
TOOL_0
 5
46
 10
473.75
 20
215.751
 30
0
 11
466.679
 21
222.822
 31
0
 0
LINE
 8
TOOL_0
 5
47
 10
466.679
 20
222.822
 30
0
 11
1438.75
 21
188.751
 31
0
 0
LINE
 8
TOOL_0
 5
48
 10
1438.75
 20
188.751
 30
0
 11
1468.75
 21
188.751
 31
0
 0
LINE
 8
TOOL_0
 5
49
 10
1468.75
 20
188.751
 30
0
 11
1468.75
 21
218.751
 31
0
 0
ARC
 8
TOOL_0
 5
4A
 10
1448.75
 20
218.751
 30
0
 40
20.0
 50
0
 51
90.0
210
0
220
0
230
1.0
 0
LINE
 8
TOOL_0
 5
4B
 10
1448.75
 20
238.751
 30
0
 11
1388.75
 21
238.751
 31
0
 0
ARC
 8
TOOL_0
 5
4C
 10
1388.75
 20
218.751
 30
0
 40
20.0
 50
90.0
 51
180.0
210
0
220
0
230
1.0
 0
LINE
 8
TOOL_0
 5
4D
 10
1368.75
 20
218.751
 30
0
 11
1368.75
 21
158.751
 31
0
 0
ARC
 8
TOOL_0
 5
4E
 10
1388.75
 20
158.751
 30
0
 40
20.0
 50
180.0
 51
270.0
210
0
220
0
230
1.0
 0
LINE
 8
TOOL_0
 5
4F
 10
1388.75
 20
138.751
 30
0
 11
1448.75
 21
138.751
 31
0
 0
ARC
 8
TOOL_0
 5
50
 10
1448.75
 20
158.751
 30
0
 40
20.0
 50
270.0
 51
0
210
0
220
0
230
1.0
 0
LINE
 8
TOOL_0
 5
51
 10
1468.75
 20
158.751
 30
0
 11
1468.75
 21
188.751
 31
0
 0
LINE
 8
TOOL_0
 5
52
 10
1468.75
 20
188.751
 30
0
 11
1461.679
 21
195.822
 31
0
 0
LINE
 8
TOOL_0
 5
53
 10
1461.679
 20
195.822
 30
0
 11
1494.75
 21
767.319
 31
0
 0
LINE
 8
TOOL_0
 5
54
 10
1494.75
 20
767.319
 30
0
 11
1494.75
 21
736.165
 31
0
 0
LINE
 8
TOOL_0
 5
55
 10
1494.75
 20
736.165
 30
0
 11
1494.75
 21
11.337
 31
0
 0
LINE
 8
TOOL_0
 5
56
 10
1494.75
 20
11.337
 30
0
 11
1486.164
 21
2.751
 31
0
 0
LINE
 8
TOOL_0
 5
57
 10
1486.164
 20
2.751
 30
0
 11
9.75
 21
2.751
 31
0
 0
ARC
 8
TOOL_0
 5
58
 10
9.75
 20
9.751
 30
0
 40
7.0
 50
180.0
 51
270.0
210
0
220
0
230
1.0
 0
LINE
 8
TOOL_0
 5
59
 10
2.75
 20
9.751
 30
0
 11
2.75
 21
2629.751
 31
0
 0
LINE
 8
TOOL_0
 5
5A
 10
2.75
 20
2629.751
 30
0
 11
1620.75
 21
2629.751
 31
0
 0
ARC
 8
TOOL_0
 5
5B
 10
1620.75
 20
2622.751
 30
0
 40
7.0
 50
0
 51
90.0
210
0
220
0
230
1.0
 0
LINE
 8
TOOL_0
 5
5C
 10
1627.75
 20
2622.751
 30
0
 11
1627.75
 21
2148.751
 31
0
 0
LINE
 8
TOOL_0
 5
5D
 10
1627.75
 20
2148.751
 30
0
 11
1479.75
 21
2148.751
 31
0
 0
LINE
 8
TOOL_0
 5
5E
 10
1479.75
 20
2148.751
 30
0
 11
1479.75
 21
2183.751
 31
0
 0
ARC
 8
TOOL_0
 5
5F
 10
1458.75
 20
2183.751
 30
0
 40
21.0
 50
0
 51
147.688053502426
210
0
220
0
230
1.0
 0
LINE
 8
TOOL_0
 5
60
 10
1441.002
 20
2194.976
 30
0
 11
1407.692
 21
2142.307
 31
0
 0
ARC
 8
TOOL_0
 5
61
 10
1423.75
 20
2132.151
 30
0
 40
19.000097368172
 50
147.688392683242
 51
243.424159673344
210
0
220
0
230
1.0
 0
LINE
 8
TOOL_0
 5
62
 10
1415.25
 20
2115.159
 30
0
 11
1415.25
 21
1569.752
 31
0
 0
LINE
 8
TOOL_0
 5
63
 10
1415.25
 20
1569.752
 30
0
 11
1378.149
 21
1569.752
 31
0
 0
ARC
 8
TOOL_0
 5
64
 10
1373.25
 20
1570.752
 30
0
 40
5.000020099959
 50
348.463087982614
 51
90.0
210
0
220
0
230
1.0
 0
LINE
 8
TOOL_0
 5
65
 10
1373.25
 20
1575.752
 30
0
 11
1328.75
 21
1575.752
 31
0
 0
ARC
 8
TOOL_0
 5
66
 10
1328.75
 20
1376.752
 30
0
 40
199.0
 50
90.0
 51
180.0
210
0
220
0
230
1.0
 0
LINE
 8
TOOL_0
 5
67
 10
1129.75
 20
1376.752
 30
0
 11
1129.75
 21
943.752
 31
0
 0
ARC
 8
TOOL_0
 5
68
 10
1328.75
 20
943.752
 30
0
 40
199.0
 50
180.0
 51
270.0
210
0
220
0
230
1.0
 0
LINE
 8
TOOL_0
 5
69
 10
1328.75
 20
744.752
 30
0
 11
1486.164
 21
744.752
 31
0
 0
LINE
 8
TOOL_0
 5
6A
 10
1486.164
 20
744.752
 30
0
 11
1494.75
 21
736.166
 31
0
 0
LINE
 8
TOOL_0
 5
6B
 10
1494.75
 20
736.166
 30
0
 11
1504.365
 21
736.166
 31
0
 0
LINE
 8
TOOL_0
 5
6C
 10
1504.365
 20
736.166
 30
0
 11
2849.544
 21
2516.752
 31
0
 0
LINE
 8
TOOL_0
 5
6D
 10
2849.544
 20
2516.752
 30
0
 11
2879.544
 21
2516.752
 31
0
 0
LINE
 8
TOOL_0
 5
6E
 10
2879.544
 20
2516.752
 30
0
 11
2879.544
 21
2536.752
 31
0
 0
ARC
 8
TOOL_0
 5
6F
 10
2869.544
 20
2536.752
 30
0
 40
10.0
 50
0
 51
90.0
210
0
220
0
230
1.0
 0
LINE
 8
TOOL_0
 5
70
 10
2869.544
 20
2546.752
 30
0
 11
2759.544
 21
2546.752
 31
0
 0
ARC
 8
TOOL_0
 5
71
 10
2759.544
 20
2536.752
 30
0
 40
10.0
 50
90.0
 51
180.0
210
0
220
0
230
1.0
 0
LINE
 8
TOOL_0
 5
72
 10
2749.544
 20
2536.752
 30
0
 11
2749.544
 21
2516.752
 31
0
 0
ARC
 8
TOOL_0
 5
73
 10
2779.544
 20
2516.752
 30
0
 40
30.0
 50
180.0
 51
270.0
210
0
220
0
230
1.0
 0
LINE
 8
TOOL_0
 5
74
 10
2779.544
 20
2486.752
 30
0
 11
2849.544
 21
2486.752
 31
0
 0
ARC
 8
TOOL_0
 5
75
 10
2849.544
 20
2516.752
 30
0
 40
30.0
 50
270.0
 51
0
210
0
220
0
230
1.0
 0
LINE
 8
TOOL_0
 5
76
 10
2879.544
 20
2516.752
 30
0
 11
2872.473
 21
2523.823
 31
0
 0
LINE
 8
TOOL_0
 5
77
 10
2872.473
 20
2523.823
 30
0
 11
2739.544
 21
2416.752
 31
0
 0
LINE
 8
TOOL_0
 5
78
 10
2739.544
 20
2416.752
 30
0
 11
2769.544
 21
2416.752
 31
0
 0
LINE
 8
TOOL_0
 5
79
 10
2769.544
 20
2416.752
 30
0
 11
2769.544
 21
2446.752
 31
0
 0
ARC
 8
TOOL_0
 5
7A
 10
2749.544
 20
2446.752
 30
0
 40
20.0
 50
0
 51
90.0
210
0
220
0
230
1.0
 0
LINE
 8
TOOL_0
 5
7B
 10
2749.544
 20
2466.752
 30
0
 11
2689.544
 21
2466.752
 31
0
 0
ARC
 8
TOOL_0
 5
7C
 10
2689.544
 20
2446.752
 30
0
 40
20.0
 50
90.0
 51
180.0
210
0
220
0
230
1.0
 0
LINE
 8
TOOL_0
 5
7D
 10
2669.544
 20
2446.752
 30
0
 11
2669.544
 21
2386.752
 31
0
 0
ARC
 8
TOOL_0
 5
7E
 10
2689.544
 20
2386.752
 30
0
 40
20.0
 50
180.0
 51
270.0
210
0
220
0
230
1.0
 0
LINE
 8
TOOL_0
 5
7F
 10
2689.544
 20
2366.752
 30
0
 11
2749.544
 21
2366.752
 31
0
 0
ARC
 8
TOOL_0
 5
80
 10
2749.544
 20
2386.752
 30
0
 40
20.0
 50
270.0
 51
0
210
0
220
0
230
1.0
 0
LINE
 8
TOOL_0
 5
81
 10
2769.544
 20
2386.752
 30
0
 11
2769.544
 21
2416.752
 31
0
 0
LINE
 8
TOOL_0
 5
82
 10
2769.544
 20
2416.752
 30
0
 11
2762.473
 21
2423.823
 31
0
 0
LINE
 8
TOOL_0
 5
83
 10
2762.473
 20
2423.823
 30
0
 11
1744.544
 21
2443.752
 31
0
 0
LINE
 8
TOOL_0
 5
84
 10
1744.544
 20
2443.752
 30
0
 11
1774.544
 21
2443.752
 31
0
 0
LINE
 8
TOOL_0
 5
85
 10
1774.544
 20
2443.752
 30
0
 11
1774.544
 21
2473.752
 31
0
 0
ARC
 8
TOOL_0
 5
86
 10
1754.544
 20
2473.752
 30
0
 40
20.0
 50
0
 51
90.0
210
0
220
0
230
1.0
 0
LINE
 8
TOOL_0
 5
87
 10
1754.544
 20
2493.752
 30
0
 11
1694.544
 21
2493.752
 31
0
 0
ARC
 8
TOOL_0
 5
88
 10
1694.544
 20
2473.752
 30
0
 40
20.0
 50
90.0
 51
180.0
210
0
220
0
230
1.0
 0
LINE
 8
TOOL_0
 5
89
 10
1674.544
 20
2473.752
 30
0
 11
1674.544
 21
2413.752
 31
0
 0
ARC
 8
TOOL_0
 5
8A
 10
1694.544
 20
2413.752
 30
0
 40
20.0
 50
180.0
 51
270.0
210
0
220
0
230
1.0
 0
LINE
 8
TOOL_0
 5
8B
 10
1694.544
 20
2393.752
 30
0
 11
1754.544
 21
2393.752
 31
0
 0
ARC
 8
TOOL_0
 5
8C
 10
1754.544
 20
2413.752
 30
0
 40
20.0
 50
270.0
 51
0
210
0
220
0
230
1.0
 0
LINE
 8
TOOL_0
 5
8D
 10
1774.544
 20
2413.752
 30
0
 11
1774.544
 21
2443.752
 31
0
 0
LINE
 8
TOOL_0
 5
8E
 10
1774.544
 20
2443.752
 30
0
 11
1767.473
 21
2450.823
 31
0
 0
LINE
 8
TOOL_0
 5
8F
 10
1767.473
 20
2450.823
 30
0
 11
2137.544
 21
728.752
 31
0
 0
LINE
 8
TOOL_0
 5
90
 10
2137.544
 20
728.752
 30
0
 11
2167.544
 21
728.752
 31
0
 0
ARC
 8
TOOL_0
 5
91
 10
2147.544
 20
728.752
 30
0
 40
20.0
 50
0
 51
66.867990902554
210
0
220
0
230
1.0
 0
LINE
 8
TOOL_0
 5
92
 10
2155.401
 20
747.144
 30
0
 11
2131.722
 21
757.26
 31
0
 0
ARC
 8
TOOL_0
 5
93
 10
2119.543
 20
728.574
 30
0
 40
31.164316726025
 50
66.9957430162
 51
113.002564662372
210
0
220
0
230
1.0
 0
LINE
 8
TOOL_0
 5
94
 10
2107.365
 20
757.26
 30
0
 11
2083.686
 21
747.144
 31
0
 0
ARC
 8
TOOL_0
 5
95
 10
2091.543
 20
728.752
 30
0
 40
19.999952824944
 50
113.132009097445
 51
246.867990902554
210
0
220
0
230
1.0
 0
LINE
 8
TOOL_0
 5
96
 10
2083.686
 20
710.36
 30
0
 11
2107.365
 21
700.244
 31
0
 0
ARC
 8
TOOL_0
 5
97
 10
2119.544
 20
728.93
 30
0
 40
31.164316726025
 50
246.9957430162
 51
293.002564662372
210
0
220
0
230
1.0
 0
LINE
 8
TOOL_0
 5
98
 10
2131.722
 20
700.244
 30
0
 11
2155.401
 21
710.36
 31
0
 0
ARC
 8
TOOL_0
 5
99
 10
2147.544
 20
728.752
 30
0
 40
19.999952824944
 50
293.132009097446
 51
0
210
0
220
0
230
1.0
 0
LINE
 8
TOOL_0
 5
9A
 10
2167.544
 20
728.752
 30
0
 11
2160.473
 21
735.823
 31
0
 0
LINE
 8
TOOL_0
 5
9B
 10
2160.473
 20
735.823
 30
0
 11
2124.544
 21
83.752
 31
0
 0
LINE
 8
TOOL_0
 5
9C
 10
2124.544
 20
83.752
 30
0
 11
2154.544
 21
83.752
 31
0
 0
ARC
 8
TOOL_0
 5
9D
 10
2119.544
 20
83.752
 30
0
 40
35.0
 50
0
 51
180.0
210
0
220
0
230
1.0
 0
ARC
 8
TOOL_0
 5
9E
 10
2119.544
 20
83.752
 30
0
 40
35.0
 50
180.0
 51
0
210
0
220
0
230
1.0
 0
LINE
 8
TOOL_0
 5
9F
 10
2154.544
 20
83.752
 30
0
 11
2147.473
 21
90.823
 31
0
 0
LINE
 8
TOOL_0
 5
A0
 10
2147.473
 20
90.823
 30
0
 11
2649.544
 21
318.752
 31
0
 0
LINE
 8
TOOL_0
 5
A1
 10
2649.544
 20
318.752
 30
0
 11
2679.544
 21
318.752
 31
0
 0
LINE
 8
TOOL_0
 5
A2
 10
2679.544
 20
318.752
 30
0
 11
2679.544
 21
348.752
 31
0
 0
ARC
 8
TOOL_0
 5
A3
 10
2669.544
 20
348.752
 30
0
 40
10.0
 50
0
 51
90.0
210
0
220
0
230
1.0
 0
LINE
 8
TOOL_0
 5
A4
 10
2669.544
 20
358.752
 30
0
 11
2489.544
 21
358.752
 31
0
 0
ARC
 8
TOOL_0
 5
A5
 10
2489.544
 20
348.752
 30
0
 40
10.0
 50
90.0
 51
180.0
210
0
220
0
230
1.0
 0
LINE
 8
TOOL_0
 5
A6
 10
2479.544
 20
348.752
 30
0
 11
2479.544
 21
288.752
 31
0
 0
ARC
 8
TOOL_0
 5
A7
 10
2489.544
 20
288.752
 30
0
 40
10.0
 50
180.0
 51
270.0
210
0
220
0
230
1.0
 0
LINE
 8
TOOL_0
 5
A8
 10
2489.544
 20
278.752
 30
0
 11
2669.544
 21
278.752
 31
0
 0
ARC
 8
TOOL_0
 5
A9
 10
2669.544
 20
288.752
 30
0
 40
10.0
 50
270.0
 51
0
210
0
220
0
230
1.0
 0
LINE
 8
TOOL_0
 5
AA
 10
2679.544
 20
288.752
 30
0
 11
2679.544
 21
318.752
 31
0
 0
LINE
 8
TOOL_0
 5
AB
 10
2679.544
 20
318.752
 30
0
 11
2672.473
 21
325.823
 31
0
 0
LINE
 8
TOOL_0
 5
AC
 10
2672.473
 20
325.823
 30
0
 11
1648.544
 21
1864.68
 31
0
 0
LINE
 8
TOOL_0
 5
AD
 10
1648.544
 20
1864.68
 30
0
 11
1648.544
 21
1896.338
 31
0
 0
LINE
 8
TOOL_0
 5
AE
 10
1648.544
 20
1896.338
 30
0
 11
1648.544
 21
2621.166
 31
0
 0
LINE
 8
TOOL_0
 5
AF
 10
1648.544
 20
2621.166
 30
0
 11
1657.13
 21
2629.752
 31
0
 0
LINE
 8
TOOL_0
 5
B0
 10
1657.13
 20
2629.752
 30
0
 11
3133.544
 21
2629.752
 31
0
 0
ARC
 8
TOOL_0
 5
B1
 10
3133.544
 20
2622.752
 30
0
 40
7.0
 50
0
 51
90.0
210
0
220
0
230
1.0
 0
LINE
 8
TOOL_0
 5
B2
 10
3140.544
 20
2622.752
 30
0
 11
3140.544
 21
2.752
 31
0
 0
LINE
 8
TOOL_0
 5
B3
 10
3140.544
 20
2.752
 30
0
 11
1522.544
 21
2.752
 31
0
 0
ARC
 8
TOOL_0
 5
B4
 10
1522.544
 20
9.752
 30
0
 40
7.0
 50
180.0
 51
270.0
210
0
220
0
230
1.0
 0
LINE
 8
TOOL_0
 5
B5
 10
1515.544
 20
9.752
 30
0
 11
1515.544
 21
483.752
 31
0
 0
LINE
 8
TOOL_0
 5
B6
 10
1515.544
 20
483.752
 30
0
 11
1663.544
 21
483.752
 31
0
 0
LINE
 8
TOOL_0
 5
B7
 10
1663.544
 20
483.752
 30
0
 11
1663.544
 21
448.752
 31
0
 0
ARC
 8
TOOL_0
 5
B8
 10
1684.544
 20
448.752
 30
0
 40
21.0
 50
180.0
 51
327.688053502427
210
0
220
0
230
1.0
 0
LINE
 8
TOOL_0
 5
B9
 10
1702.292
 20
437.527
 30
0
 11
1735.602
 21
490.196
 31
0
 0
ARC
 8
TOOL_0
 5
BA
 10
1719.544
 20
500.352
 30
0
 40
19.000097368172
 50
327.688392683242
 51
63.424159673344
210
0
220
0
230
1.0
 0
LINE
 8
TOOL_0
 5
BB
 10
1728.044
 20
517.344
 30
0
 11
1728.044
 21
1062.751
 31
0
 0
LINE
 8
TOOL_0
 5
BC
 10
1728.044
 20
1062.751
 30
0
 11
1765.145
 21
1062.751
 31
0
 0
ARC
 8
TOOL_0
 5
BD
 10
1770.044
 20
1061.751
 30
0
 40
5.000020099959
 50
168.463087982614
 51
270.0
210
0
220
0
230
1.0
 0
LINE
 8
TOOL_0
 5
BE
 10
1770.044
 20
1056.751
 30
0
 11
1814.544
 21
1056.751
 31
0
 0
ARC
 8
TOOL_0
 5
BF
 10
1814.544
 20
1255.751
 30
0
 40
199.0
 50
270.0
 51
359.99971208151
210
0
220
0
230
1.0
 0
LINE
 8
TOOL_0
 5
C0
 10
2013.544
 20
1255.75
 30
0
 11
2013.544
 21
1688.751
 31
0
 0
ARC
 8
TOOL_0
 5
C1
 10
1814.544
 20
1688.751
 30
0
 40
199.0
 50
0
 51
90.0
210
0
220
0
230
1.0
 0
LINE
 8
TOOL_0
 5
C2
 10
1814.544
 20
1887.751
 30
0
 11
1657.13
 21
1887.751
 31
0
 0
LINE
 8
TOOL_0
 5
C3
 10
1657.13
 20
1887.751
 30
0
 11
1648.544
 21
1896.337
 31
0
 0
LINE
 8
TOOL_0
 5
C4
 10
1648.544
 20
1896.337
 30
0
 11
1638.774
 21
1896.337
 31
0
 0
LINE
 8
TOOL_0
 5
C5
 10
1638.774
 20
1896.337
 30
0
 11
4186.9
 21
2548.751
 31
0
 0
LINE
 8
TOOL_0
 5
C6
 10
4186.9
 20
2548.751
 30
0
 11
4216.9
 21
2548.751
 31
0
 0
ARC
 8
TOOL_0
 5
C7
 10
4181.9
 20
2548.751
 30
0
 40
35.0
 50
0
 51
180.0
210
0
220
0
230
1.0
 0
ARC
 8
TOOL_0
 5
C8
 10
4181.9
 20
2548.751
 30
0
 40
35.0
 50
180.0
 51
0
210
0
220
0
230
1.0
 0
LINE
 8
TOOL_0
 5
C9
 10
4216.9
 20
2548.751
 30
0
 11
4209.829
 21
2555.822
 31
0
 0
LINE
 8
TOOL_0
 5
CA
 10
4209.829
 20
2555.822
 30
0
 11
3791.9
 21
2313.751
 31
0
 0
LINE
 8
TOOL_0
 5
CB
 10
3791.9
 20
2313.751
 30
0
 11
3821.9
 21
2313.751
 31
0
 0
LINE
 8
TOOL_0
 5
CC
 10
3821.9
 20
2313.751
 30
0
 11
3821.9
 21
2343.751
 31
0
 0
ARC
 8
TOOL_0
 5
CD
 10
3811.9
 20
2343.751
 30
0
 40
10.0
 50
0
 51
90.0
210
0
220
0
230
1.0
 0
LINE
 8
TOOL_0
 5
CE
 10
3811.9
 20
2353.751
 30
0
 11
3631.9
 21
2353.751
 31
0
 0
ARC
 8
TOOL_0
 5
CF
 10
3631.9
 20
2343.751
 30
0
 40
10.0
 50
90.0
 51
180.0
210
0
220
0
230
1.0
 0
LINE
 8
TOOL_0
 5
D0
 10
3621.9
 20
2343.751
 30
0
 11
3621.9
 21
2283.751
 31
0
 0
ARC
 8
TOOL_0
 5
D1
 10
3631.9
 20
2283.751
 30
0
 40
10.0
 50
180.0
 51
270.0
210
0
220
0
230
1.0
 0
LINE
 8
TOOL_0
 5
D2
 10
3631.9
 20
2273.751
 30
0
 11
3811.9
 21
2273.751
 31
0
 0
ARC
 8
TOOL_0
 5
D3
 10
3811.9
 20
2283.751
 30
0
 40
10.0
 50
270.0
 51
0
210
0
220
0
230
1.0
 0
LINE
 8
TOOL_0
 5
D4
 10
3821.9
 20
2283.751
 30
0
 11
3821.9
 21
2313.751
 31
0
 0
LINE
 8
TOOL_0
 5
D5
 10
3821.9
 20
2313.751
 30
0
 11
3814.829
 21
2320.822
 31
0
 0
LINE
 8
TOOL_0
 5
D6
 10
3814.829
 20
2320.822
 30
0
 11
4199.9
 21
1903.751
 31
0
 0
LINE
 8
TOOL_0
 5
D7
 10
4199.9
 20
1903.751
 30
0
 11
4229.9
 21
1903.751
 31
0
 0
ARC
 8
TOOL_0
 5
D8
 10
4209.9
 20
1903.751
 30
0
 40
20.0
 50
0
 51
66.867990902554
210
0
220
0
230
1.0
 0
LINE
 8
TOOL_0
 5
D9
 10
4217.757
 20
1922.143
 30
0
 11
4194.078
 21
1932.259
 31
0
 0
ARC
 8
TOOL_0
 5
DA
 10
4181.899
 20
1903.573
 30
0
 40
31.164316726025
 50
66.9957430162
 51
113.002564662372
210
0
220
0
230
1.0
 0
LINE
 8
TOOL_0
 5
DB
 10
4169.721
 20
1932.259
 30
0
 11
4146.042
 21
1922.143
 31
0
 0
ARC
 8
TOOL_0
 5
DC
 10
4153.899
 20
1903.751
 30
0
 40
19.999952824944
 50
113.132009097445
 51
246.867990902554
210
0
220
0
230
1.0
 0
LINE
 8
TOOL_0
 5
DD
 10
4146.042
 20
1885.359
 30
0
 11
4169.721
 21
1875.243
 31
0
 0
ARC
 8
TOOL_0
 5
DE
 10
4181.9
 20
1903.929
 30
0
 40
31.164316726025
 50
246.995743016199
 51
293.002564662372
210
0
220
0
230
1.0
 0
LINE
 8
TOOL_0
 5
DF
 10
4194.078
 20
1875.243
 30
0
 11
4217.757
 21
1885.359
 31
0
 0
ARC
 8
TOOL_0
 5
E0
 10
4209.9
 20
1903.751
 30
0
 40
19.999952824944
 50
293.132009097446
 51
0
210
0
220
0
230
1.0
 0
LINE
 8
TOOL_0
 5
E1
 10
4229.9
 20
1903.751
 30
0
 11
4222.829
 21
1910.822
 31
0
 0
LINE
 8
TOOL_0
 5
E2
 10
4222.829
 20
1910.822
 30
0
 11
3521.9
 21
105.751
 31
0
 0
LINE
 8
TOOL_0
 5
E3
 10
3521.9
 20
105.751
 30
0
 11
3551.9
 21
105.751
 31
0
 0
LINE
 8
TOOL_0
 5
E4
 10
3551.9
 20
105.751
 30
0
 11
3551.9
 21
115.751
 31
0
 0
ARC
 8
TOOL_0
 5
E5
 10
3521.9
 20
115.751
 30
0
 40
30.0
 50
0
 51
90.0
210
0
220
0
230
1.0
 0
LINE
 8
TOOL_0
 5
E6
 10
3521.9
 20
145.751
 30
0
 11
3451.9
 21
145.751
 31
0
 0
ARC
 8
TOOL_0
 5
E7
 10
3451.9
 20
115.751
 30
0
 40
30.0
 50
90.0
 51
180.0
210
0
220
0
230
1.0
 0
LINE
 8
TOOL_0
 5
E8
 10
3421.9
 20
115.751
 30
0
 11
3421.9
 21
95.751
 31
0
 0
ARC
 8
TOOL_0
 5
E9
 10
3431.9
 20
95.751
 30
0
 40
10.0
 50
180.0
 51
270.0
210
0
220
0
230
1.0
 0
LINE
 8
TOOL_0
 5
EA
 10
3431.9
 20
85.751
 30
0
 11
3541.9
 21
85.751
 31
0
 0
ARC
 8
TOOL_0
 5
EB
 10
3541.9
 20
95.751
 30
0
 40
10.0
 50
270.0
 51
0
210
0
220
0
230
1.0
 0
LINE
 8
TOOL_0
 5
EC
 10
3551.9
 20
95.751
 30
0
 11
3551.9
 21
105.751
 31
0
 0
LINE
 8
TOOL_0
 5
ED
 10
3551.9
 20
105.751
 30
0
 11
3544.829
 21
112.822
 31
0
 0
LINE
 8
TOOL_0
 5
EE
 10
3544.829
 20
112.822
 30
0
 11
3601.9
 21
215.751
 31
0
 0
LINE
 8
TOOL_0
 5
EF
 10
3601.9
 20
215.751
 30
0
 11
3631.9
 21
215.751
 31
0
 0
LINE
 8
TOOL_0
 5
F0
 10
3631.9
 20
215.751
 30
0
 11
3631.9
 21
245.751
 31
0
 0
ARC
 8
TOOL_0
 5
F1
 10
3611.9
 20
245.751
 30
0
 40
20.0
 50
0
 51
90.0
210
0
220
0
230
1.0
 0
LINE
 8
TOOL_0
 5
F2
 10
3611.9
 20
265.751
 30
0
 11
3551.9
 21
265.751
 31
0
 0
ARC
 8
TOOL_0
 5
F3
 10
3551.9
 20
245.751
 30
0
 40
20.0
 50
90.0
 51
180.0
210
0
220
0
230
1.0
 0
LINE
 8
TOOL_0
 5
F4
 10
3531.9
 20
245.751
 30
0
 11
3531.9
 21
185.751
 31
0
 0
ARC
 8
TOOL_0
 5
F5
 10
3551.9
 20
185.751
 30
0
 40
20.0
 50
180.0
 51
270.0
210
0
220
0
230
1.0
 0
LINE
 8
TOOL_0
 5
F6
 10
3551.9
 20
165.751
 30
0
 11
3611.9
 21
165.751
 31
0
 0
ARC
 8
TOOL_0
 5
F7
 10
3611.9
 20
185.751
 30
0
 40
20.0
 50
270.0
 51
0
210
0
220
0
230
1.0
 0
LINE
 8
TOOL_0
 5
F8
 10
3631.9
 20
185.751
 30
0
 11
3631.9
 21
215.751
 31
0
 0
LINE
 8
TOOL_0
 5
F9
 10
3631.9
 20
215.751
 30
0
 11
3624.829
 21
222.822
 31
0
 0
LINE
 8
TOOL_0
 5
FA
 10
3624.829
 20
222.822
 30
0
 11
4596.9
 21
188.751
 31
0
 0
LINE
 8
TOOL_0
 5
FB
 10
4596.9
 20
188.751
 30
0
 11
4626.9
 21
188.751
 31
0
 0
LINE
 8
TOOL_0
 5
FC
 10
4626.9
 20
188.751
 30
0
 11
4626.9
 21
218.751
 31
0
 0
ARC
 8
TOOL_0
 5
FD
 10
4606.9
 20
218.751
 30
0
 40
20.0
 50
0
 51
90.0
210
0
220
0
230
1.0
 0
LINE
 8
TOOL_0
 5
FE
 10
4606.9
 20
238.751
 30
0
 11
4546.9
 21
238.751
 31
0
 0
ARC
 8
TOOL_0
 5
FF
 10
4546.9
 20
218.751
 30
0
 40
20.0
 50
90.0
 51
180.0
210
0
220
0
230
1.0
 0
LINE
 8
TOOL_0
 5
100
 10
4526.9
 20
218.751
 30
0
 11
4526.9
 21
158.751
 31
0
 0
ARC
 8
TOOL_0
 5
101
 10
4546.9
 20
158.751
 30
0
 40
20.0
 50
180.0
 51
270.0
210
0
220
0
230
1.0
 0
LINE
 8
TOOL_0
 5
102
 10
4546.9
 20
138.751
 30
0
 11
4606.9
 21
138.751
 31
0
 0
ARC
 8
TOOL_0
 5
103
 10
4606.9
 20
158.751
 30
0
 40
20.0
 50
270.0
 51
0
210
0
220
0
230
1.0
 0
LINE
 8
TOOL_0
 5
104
 10
4626.9
 20
158.751
 30
0
 11
4626.9
 21
188.751
 31
0
 0
LINE
 8
TOOL_0
 5
105
 10
4626.9
 20
188.751
 30
0
 11
4619.829
 21
195.822
 31
0
 0
LINE
 8
TOOL_0
 5
106
 10
4619.829
 20
195.822
 30
0
 11
4652.9
 21
767.319
 31
0
 0
LINE
 8
TOOL_0
 5
107
 10
4652.9
 20
767.319
 30
0
 11
4652.9
 21
736.165
 31
0
 0
LINE
 8
TOOL_0
 5
108
 10
4652.9
 20
736.165
 30
0
 11
4652.9
 21
11.337
 31
0
 0
LINE
 8
TOOL_0
 5
109
 10
4652.9
 20
11.337
 30
0
 11
4644.314
 21
2.751
 31
0
 0
LINE
 8
TOOL_0
 5
10A
 10
4644.314
 20
2.751
 30
0
 11
3167.9
 21
2.751
 31
0
 0
ARC
 8
TOOL_0
 5
10B
 10
3167.9
 20
9.751
 30
0
 40
7.0
 50
180.0
 51
270.0
210
0
220
0
230
1.0
 0
LINE
 8
TOOL_0
 5
10C
 10
3160.9
 20
9.751
 30
0
 11
3160.9
 21
2629.751
 31
0
 0
LINE
 8
TOOL_0
 5
10D
 10
3160.9
 20
2629.751
 30
0
 11
4778.9
 21
2629.751
 31
0
 0
ARC
 8
TOOL_0
 5
10E
 10
4778.9
 20
2622.751
 30
0
 40
7.0
 50
0
 51
90.0
210
0
220
0
230
1.0
 0
LINE
 8
TOOL_0
 5
10F
 10
4785.9
 20
2622.751
 30
0
 11
4785.9
 21
2148.751
 31
0
 0
LINE
 8
TOOL_0
 5
110
 10
4785.9
 20
2148.751
 30
0
 11
4637.9
 21
2148.751
 31
0
 0
LINE
 8
TOOL_0
 5
111
 10
4637.9
 20
2148.751
 30
0
 11
4637.9
 21
2183.751
 31
0
 0
ARC
 8
TOOL_0
 5
112
 10
4616.9
 20
2183.751
 30
0
 40
21.0
 50
0
 51
147.688053502426
210
0
220
0
230
1.0
 0
LINE
 8
TOOL_0
 5
113
 10
4599.152
 20
2194.976
 30
0
 11
4565.842
 21
2142.307
 31
0
 0
ARC
 8
TOOL_0
 5
114
 10
4581.9
 20
2132.151
 30
0
 40
19.000097368172
 50
147.688392683242
 51
243.424159673344
210
0
220
0
230
1.0
 0
LINE
 8
TOOL_0
 5
115
 10
4573.4
 20
2115.159
 30
0
 11
4573.4
 21
1569.752
 31
0
 0
LINE
 8
TOOL_0
 5
116
 10
4573.4
 20
1569.752
 30
0
 11
4536.299
 21
1569.752
 31
0
 0
ARC
 8
TOOL_0
 5
117
 10
4531.4
 20
1570.752
 30
0
 40
5.00002009996
 50
348.463087982615
 51
90.0
210
0
220
0
230
1.0
 0
LINE
 8
TOOL_0
 5
118
 10
4531.4
 20
1575.752
 30
0
 11
4486.9
 21
1575.752
 31
0
 0
ARC
 8
TOOL_0
 5
119
 10
4486.9
 20
1376.752
 30
0
 40
199.0
 50
90.0
 51
180.0
210
0
220
0
230
1.0
 0
LINE
 8
TOOL_0
 5
11A
 10
4287.9
 20
1376.752
 30
0
 11
4287.9
 21
943.752
 31
0
 0
ARC
 8
TOOL_0
 5
11B
 10
4486.9
 20
943.752
 30
0
 40
199.0
 50
180.0
 51
270.0
210
0
220
0
230
1.0
 0
LINE
 8
TOOL_0
 5
11C
 10
4486.9
 20
744.752
 30
0
 11
4644.314
 21
744.752
 31
0
 0
LINE
 8
TOOL_0
 5
11D
 10
4644.314
 20
744.752
 30
0
 11
4652.9
 21
736.166
 31
0
 0
LINE
 8
TOOL_0
 5
11E
 10
4652.9
 20
736.166
 30
0
 11
4662.515
 21
736.166
 31
0
 0
LINE
 8
TOOL_0
 5
11F
 10
4662.515
 20
736.166
 30
0
 11
6007.199
 21
2526.752
 31
0
 0
LINE
 8
TOOL_0
 5
120
 10
6007.199
 20
2526.752
 30
0
 11
6037.199
 21
2526.752
 31
0
 0
LINE
 8
TOOL_0
 5
121
 10
6037.199
 20
2526.752
 30
0
 11
6037.199
 21
2536.752
 31
0
 0
ARC
 8
TOOL_0
 5
122
 10
6027.199
 20
2536.752
 30
0
 40
10.0
 50
0
 51
90.0
210
0
220
0
230
1.0
 0
LINE
 8
TOOL_0
 5
123
 10
6027.199
 20
2546.752
 30
0
 11
5917.199
 21
2546.752
 31
0
 0
ARC
 8
TOOL_0
 5
124
 10
5917.199
 20
2536.752
 30
0
 40
10.0
 50
90.0
 51
180.0
210
0
220
0
230
1.0
 0
LINE
 8
TOOL_0
 5
125
 10
5907.199
 20
2536.752
 30
0
 11
5907.199
 21
2516.752
 31
0
 0
ARC
 8
TOOL_0
 5
126
 10
5937.199
 20
2516.752
 30
0
 40
30.0
 50
180.0
 51
270.0
210
0
220
0
230
1.0
 0
LINE
 8
TOOL_0
 5
127
 10
5937.199
 20
2486.752
 30
0
 11
6007.199
 21
2486.752
 31
0
 0
ARC
 8
TOOL_0
 5
128
 10
6007.199
 20
2516.752
 30
0
 40
30.0
 50
270.0
 51
0
210
0
220
0
230
1.0
 0
LINE
 8
TOOL_0
 5
129
 10
6037.199
 20
2516.752
 30
0
 11
6037.199
 21
2526.752
 31
0
 0
LINE
 8
TOOL_0
 5
12A
 10
6037.199
 20
2526.752
 30
0
 11
6030.128
 21
2533.823
 31
0
 0
LINE
 8
TOOL_0
 5
12B
 10
6030.128
 20
2533.823
 30
0
 11
5897.199
 21
2416.752
 31
0
 0
LINE
 8
TOOL_0
 5
12C
 10
5897.199
 20
2416.752
 30
0
 11
5927.199
 21
2416.752
 31
0
 0
LINE
 8
TOOL_0
 5
12D
 10
5927.199
 20
2416.752
 30
0
 11
5927.199
 21
2446.752
 31
0
 0
ARC
 8
TOOL_0
 5
12E
 10
5907.199
 20
2446.752
 30
0
 40
20.0
 50
0
 51
90.0
210
0
220
0
230
1.0
 0
LINE
 8
TOOL_0
 5
12F
 10
5907.199
 20
2466.752
 30
0
 11
5847.199
 21
2466.752
 31
0
 0
ARC
 8
TOOL_0
 5
130
 10
5847.199
 20
2446.752
 30
0
 40
20.0
 50
90.0
 51
180.0
210
0
220
0
230
1.0
 0
LINE
 8
TOOL_0
 5
131
 10
5827.199
 20
2446.752
 30
0
 11
5827.199
 21
2386.752
 31
0
 0
ARC
 8
TOOL_0
 5
132
 10
5847.199
 20
2386.752
 30
0
 40
20.0
 50
180.0
 51
270.0
210
0
220
0
230
1.0
 0
LINE
 8
TOOL_0
 5
133
 10
5847.199
 20
2366.752
 30
0
 11
5907.199
 21
2366.752
 31
0
 0
ARC
 8
TOOL_0
 5
134
 10
5907.199
 20
2386.752
 30
0
 40
20.0
 50
270.0
 51
0
210
0
220
0
230
1.0
 0
LINE
 8
TOOL_0
 5
135
 10
5927.199
 20
2386.752
 30
0
 11
5927.199
 21
2416.752
 31
0
 0
LINE
 8
TOOL_0
 5
136
 10
5927.199
 20
2416.752
 30
0
 11
5920.128
 21
2423.823
 31
0
 0
LINE
 8
TOOL_0
 5
137
 10
5920.128
 20
2423.823
 30
0
 11
4902.199
 21
2443.752
 31
0
 0
LINE
 8
TOOL_0
 5
138
 10
4902.199
 20
2443.752
 30
0
 11
4932.199
 21
2443.752
 31
0
 0
LINE
 8
TOOL_0
 5
139
 10
4932.199
 20
2443.752
 30
0
 11
4932.199
 21
2473.752
 31
0
 0
ARC
 8
TOOL_0
 5
13A
 10
4912.199
 20
2473.752
 30
0
 40
20.0
 50
0
 51
90.0
210
0
220
0
230
1.0
 0
LINE
 8
TOOL_0
 5
13B
 10
4912.199
 20
2493.752
 30
0
 11
4852.199
 21
2493.752
 31
0
 0
ARC
 8
TOOL_0
 5
13C
 10
4852.199
 20
2473.752
 30
0
 40
20.0
 50
90.0
 51
180.0
210
0
220
0
230
1.0
 0
LINE
 8
TOOL_0
 5
13D
 10
4832.199
 20
2473.752
 30
0
 11
4832.199
 21
2413.752
 31
0
 0
ARC
 8
TOOL_0
 5
13E
 10
4852.199
 20
2413.752
 30
0
 40
20.0
 50
180.0
 51
270.0
210
0
220
0
230
1.0
 0
LINE
 8
TOOL_0
 5
13F
 10
4852.199
 20
2393.752
 30
0
 11
4912.199
 21
2393.752
 31
0
 0
ARC
 8
TOOL_0
 5
140
 10
4912.199
 20
2413.752
 30
0
 40
20.0
 50
270.0
 51
0
210
0
220
0
230
1.0
 0
LINE
 8
TOOL_0
 5
141
 10
4932.199
 20
2413.752
 30
0
 11
4932.199
 21
2443.752
 31
0
 0
LINE
 8
TOOL_0
 5
142
 10
4932.199
 20
2443.752
 30
0
 11
4925.128
 21
2450.823
 31
0
 0
LINE
 8
TOOL_0
 5
143
 10
4925.128
 20
2450.823
 30
0
 11
5295.199
 21
728.752
 31
0
 0
LINE
 8
TOOL_0
 5
144
 10
5295.199
 20
728.752
 30
0
 11
5325.199
 21
728.752
 31
0
 0
ARC
 8
TOOL_0
 5
145
 10
5305.199
 20
728.752
 30
0
 40
20.0
 50
0
 51
66.867990902554
210
0
220
0
230
1.0
 0
LINE
 8
TOOL_0
 5
146
 10
5313.056
 20
747.144
 30
0
 11
5289.377
 21
757.26
 31
0
 0
ARC
 8
TOOL_0
 5
147
 10
5277.198
 20
728.574
 30
0
 40
31.164316726025
 50
66.9957430162
 51
113.002564662372
210
0
220
0
230
1.0
 0
LINE
 8
TOOL_0
 5
148
 10
5265.02
 20
757.26
 30
0
 11
5241.341
 21
747.144
 31
0
 0
ARC
 8
TOOL_0
 5
149
 10
5249.198
 20
728.752
 30
0
 40
19.999952824944
 50
113.132009097445
 51
246.867990902554
210
0
220
0
230
1.0
 0
LINE
 8
TOOL_0
 5
14A
 10
5241.341
 20
710.36
 30
0
 11
5265.02
 21
700.244
 31
0
 0
ARC
 8
TOOL_0
 5
14B
 10
5277.199
 20
728.93
 30
0
 40
31.164316726025
 50
246.9957430162
 51
293.002564662372
210
0
220
0
230
1.0
 0
LINE
 8
TOOL_0
 5
14C
 10
5289.377
 20
700.244
 30
0
 11
5313.056
 21
710.36
 31
0
 0
ARC
 8
TOOL_0
 5
14D
 10
5305.199
 20
728.752
 30
0
 40
19.999952824944
 50
293.132009097446
 51
0
210
0
220
0
230
1.0
 0
LINE
 8
TOOL_0
 5
14E
 10
5325.199
 20
728.752
 30
0
 11
5318.128
 21
735.823
 31
0
 0
LINE
 8
TOOL_0
 5
14F
 10
5318.128
 20
735.823
 30
0
 11
5282.199
 21
83.752
 31
0
 0
LINE
 8
TOOL_0
 5
150
 10
5282.199
 20
83.752
 30
0
 11
5312.199
 21
83.752
 31
0
 0
ARC
 8
TOOL_0
 5
151
 10
5277.199
 20
83.752
 30
0
 40
35.0
 50
0
 51
180.0
210
0
220
0
230
1.0
 0
ARC
 8
TOOL_0
 5
152
 10
5277.199
 20
83.752
 30
0
 40
35.0
 50
180.0
 51
0
210
0
220
0
230
1.0
 0
LINE
 8
TOOL_0
 5
153
 10
5312.199
 20
83.752
 30
0
 11
5305.128
 21
90.823
 31
0
 0
LINE
 8
TOOL_0
 5
154
 10
5305.128
 20
90.823
 30
0
 11
5807.199
 21
318.752
 31
0
 0
LINE
 8
TOOL_0
 5
155
 10
5807.199
 20
318.752
 30
0
 11
5837.199
 21
318.752
 31
0
 0
LINE
 8
TOOL_0
 5
156
 10
5837.199
 20
318.752
 30
0
 11
5837.199
 21
348.752
 31
0
 0
ARC
 8
TOOL_0
 5
157
 10
5827.199
 20
348.752
 30
0
 40
10.0
 50
0
 51
90.0
210
0
220
0
230
1.0
 0
LINE
 8
TOOL_0
 5
158
 10
5827.199
 20
358.752
 30
0
 11
5647.199
 21
358.752
 31
0
 0
ARC
 8
TOOL_0
 5
159
 10
5647.199
 20
348.752
 30
0
 40
10.0
 50
90.0
 51
180.0
210
0
220
0
230
1.0
 0
LINE
 8
TOOL_0
 5
15A
 10
5637.199
 20
348.752
 30
0
 11
5637.199
 21
288.752
 31
0
 0
ARC
 8
TOOL_0
 5
15B
 10
5647.199
 20
288.752
 30
0
 40
10.0
 50
180.0
 51
270.0
210
0
220
0
230
1.0
 0
LINE
 8
TOOL_0
 5
15C
 10
5647.199
 20
278.752
 30
0
 11
5827.199
 21
278.752
 31
0
 0
ARC
 8
TOOL_0
 5
15D
 10
5827.199
 20
288.752
 30
0
 40
10.0
 50
270.0
 51
0
210
0
220
0
230
1.0
 0
LINE
 8
TOOL_0
 5
15E
 10
5837.199
 20
288.752
 30
0
 11
5837.199
 21
318.752
 31
0
 0
LINE
 8
TOOL_0
 5
15F
 10
5837.199
 20
318.752
 30
0
 11
5830.128
 21
325.823
 31
0
 0
LINE
 8
TOOL_0
 5
160
 10
5830.128
 20
325.823
 30
0
 11
4806.199
 21
1864.68
 31
0
 0
LINE
 8
TOOL_0
 5
161
 10
4806.199
 20
1864.68
 30
0
 11
4806.199
 21
1896.338
 31
0
 0
LINE
 8
TOOL_0
 5
162
 10
4806.199
 20
1896.338
 30
0
 11
4806.199
 21
2621.166
 31
0
 0
LINE
 8
TOOL_0
 5
163
 10
4806.199
 20
2621.166
 30
0
 11
4814.785
 21
2629.752
 31
0
 0
LINE
 8
TOOL_0
 5
164
 10
4814.785
 20
2629.752
 30
0
 11
6291.199
 21
2629.752
 31
0
 0
ARC
 8
TOOL_0
 5
165
 10
6291.199
 20
2622.752
 30
0
 40
7.0
 50
0
 51
90.0
210
0
220
0
230
1.0
 0
LINE
 8
TOOL_0
 5
166
 10
6298.199
 20
2622.752
 30
0
 11
6298.199
 21
2.752
 31
0
 0
LINE
 8
TOOL_0
 5
167
 10
6298.199
 20
2.752
 30
0
 11
4680.199
 21
2.752
 31
0
 0
ARC
 8
TOOL_0
 5
168
 10
4680.199
 20
9.752
 30
0
 40
7.0
 50
180.0
 51
270.0
210
0
220
0
230
1.0
 0
LINE
 8
TOOL_0
 5
169
 10
4673.199
 20
9.752
 30
0
 11
4673.199
 21
483.752
 31
0
 0
LINE
 8
TOOL_0
 5
16A
 10
4673.199
 20
483.752
 30
0
 11
4821.199
 21
483.752
 31
0
 0
LINE
 8
TOOL_0
 5
16B
 10
4821.199
 20
483.752
 30
0
 11
4821.199
 21
448.752
 31
0
 0
ARC
 8
TOOL_0
 5
16C
 10
4842.199
 20
448.752
 30
0
 40
21.0
 50
180.0
 51
327.688053502426
210
0
220
0
230
1.0
 0
LINE
 8
TOOL_0
 5
16D
 10
4859.947
 20
437.527
 30
0
 11
4893.257
 21
490.196
 31
0
 0
ARC
 8
TOOL_0
 5
16E
 10
4877.199
 20
500.352
 30
0
 40
19.000097368172
 50
327.688392683242
 51
63.424159673344
210
0
220
0
230
1.0
 0
LINE
 8
TOOL_0
 5
16F
 10
4885.699
 20
517.344
 30
0
 11
4885.699
 21
1062.751
 31
0
 0
LINE
 8
TOOL_0
 5
170
 10
4885.699
 20
1062.751
 30
0
 11
4922.8
 21
1062.751
 31
0
 0
ARC
 8
TOOL_0
 5
171
 10
4927.699
 20
1061.751
 30
0
 40
5.00002009996
 50
168.463087982615
 51
270.0
210
0
220
0
230
1.0
 0
LINE
 8
TOOL_0
 5
172
 10
4927.699
 20
1056.751
 30
0
 11
4972.199
 21
1056.751
 31
0
 0
ARC
 8
TOOL_0
 5
173
 10
4972.199
 20
1255.751
 30
0
 40
199.0
 50
270.0
 51
359.99971208151
210
0
220
0
230
1.0
 0
LINE
 8
TOOL_0
 5
174
 10
5171.199
 20
1255.75
 30
0
 11
5171.199
 21
1688.751
 31
0
 0
ARC
 8
TOOL_0
 5
175
 10
4972.199
 20
1688.751
 30
0
 40
199.0
 50
0
 51
90.0
210
0
220
0
230
1.0
 0
LINE
 8
TOOL_0
 5
176
 10
4972.199
 20
1887.751
 30
0
 11
4814.785
 21
1887.751
 31
0
 0
LINE
 8
TOOL_0
 5
177
 10
4814.785
 20
1887.751
 30
0
 11
4806.199
 21
1896.337
 31
0
 0
LINE
 8
TOOL_0
 5
178
 10
4806.199
 20
1896.337
 30
0
 11
4796.429
 21
1896.337
 31
0
 0
LINE
 8
TOOL_0
 5
179
 10
4796.429
 20
1896.337
 30
0
 11
7346.418
 21
2548.751
 31
0
 0
LINE
 8
TOOL_0
 5
17A
 10
7346.418
 20
2548.751
 30
0
 11
7376.418
 21
2548.751
 31
0
 0
ARC
 8
TOOL_0
 5
17B
 10
7341.418
 20
2548.751
 30
0
 40
35.0
 50
0
 51
180.0
210
0
220
0
230
1.0
 0
ARC
 8
TOOL_0
 5
17C
 10
7341.418
 20
2548.751
 30
0
 40
35.0
 50
180.0
 51
0
210
0
220
0
230
1.0
 0
LINE
 8
TOOL_0
 5
17D
 10
7376.418
 20
2548.751
 30
0
 11
7369.347
 21
2555.822
 31
0
 0
LINE
 8
TOOL_0
 5
17E
 10
7369.347
 20
2555.822
 30
0
 11
6951.418
 21
2313.751
 31
0
 0
LINE
 8
TOOL_0
 5
17F
 10
6951.418
 20
2313.751
 30
0
 11
6981.418
 21
2313.751
 31
0
 0
LINE
 8
TOOL_0
 5
180
 10
6981.418
 20
2313.751
 30
0
 11
6981.418
 21
2343.751
 31
0
 0
ARC
 8
TOOL_0
 5
181
 10
6971.418
 20
2343.751
 30
0
 40
10.0
 50
0
 51
90.0
210
0
220
0
230
1.0
 0
LINE
 8
TOOL_0
 5
182
 10
6971.418
 20
2353.751
 30
0
 11
6791.418
 21
2353.751
 31
0
 0
ARC
 8
TOOL_0
 5
183
 10
6791.418
 20
2343.751
 30
0
 40
10.0
 50
90.0
 51
180.0
210
0
220
0
230
1.0
 0
LINE
 8
TOOL_0
 5
184
 10
6781.418
 20
2343.751
 30
0
 11
6781.418
 21
2283.751
 31
0
 0
ARC
 8
TOOL_0
 5
185
 10
6791.418
 20
2283.751
 30
0
 40
10.0
 50
180.0
 51
270.0
210
0
220
0
230
1.0
 0
LINE
 8
TOOL_0
 5
186
 10
6791.418
 20
2273.751
 30
0
 11
6971.418
 21
2273.751
 31
0
 0
ARC
 8
TOOL_0
 5
187
 10
6971.418
 20
2283.751
 30
0
 40
10.0
 50
270.0
 51
0
210
0
220
0
230
1.0
 0
LINE
 8
TOOL_0
 5
188
 10
6981.418
 20
2283.751
 30
0
 11
6981.418
 21
2313.751
 31
0
 0
LINE
 8
TOOL_0
 5
189
 10
6981.418
 20
2313.751
 30
0
 11
6974.347
 21
2320.822
 31
0
 0
LINE
 8
TOOL_0
 5
18A
 10
6974.347
 20
2320.822
 30
0
 11
7359.418
 21
1903.751
 31
0
 0
LINE
 8
TOOL_0
 5
18B
 10
7359.418
 20
1903.751
 30
0
 11
7389.418
 21
1903.751
 31
0
 0
ARC
 8
TOOL_0
 5
18C
 10
7369.418
 20
1903.751
 30
0
 40
20.0
 50
0
 51
66.867990902554
210
0
220
0
230
1.0
 0
LINE
 8
TOOL_0
 5
18D
 10
7377.275
 20
1922.143
 30
0
 11
7353.596
 21
1932.259
 31
0
 0
ARC
 8
TOOL_0
 5
18E
 10
7341.417
 20
1903.573
 30
0
 40
31.164316726025
 50
66.9957430162
 51
113.002564662372
210
0
220
0
230
1.0
 0
LINE
 8
TOOL_0
 5
18F
 10
7329.239
 20
1932.259
 30
0
 11
7305.56
 21
1922.143
 31
0
 0
ARC
 8
TOOL_0
 5
190
 10
7313.417
 20
1903.751
 30
0
 40
19.999952824944
 50
113.132009097445
 51
246.867990902554
210
0
220
0
230
1.0
 0
LINE
 8
TOOL_0
 5
191
 10
7305.56
 20
1885.359
 30
0
 11
7329.239
 21
1875.243
 31
0
 0
ARC
 8
TOOL_0
 5
192
 10
7341.418
 20
1903.929
 30
0
 40
31.164316726025
 50
246.995743016199
 51
293.002564662372
210
0
220
0
230
1.0
 0
LINE
 8
TOOL_0
 5
193
 10
7353.596
 20
1875.243
 30
0
 11
7377.275
 21
1885.359
 31
0
 0
ARC
 8
TOOL_0
 5
194
 10
7369.418
 20
1903.751
 30
0
 40
19.999952824944
 50
293.132009097446
 51
0
210
0
220
0
230
1.0
 0
LINE
 8
TOOL_0
 5
195
 10
7389.418
 20
1903.751
 30
0
 11
7382.347
 21
1910.822
 31
0
 0
LINE
 8
TOOL_0
 5
196
 10
7382.347
 20
1910.822
 30
0
 11
6681.418
 21
115.751
 31
0
 0
LINE
 8
TOOL_0
 5
197
 10
6681.418
 20
115.751
 30
0
 11
6702.631
 21
136.964
 31
0
 0
ARC
 8
TOOL_0
 5
198
 10
6681.418
 20
115.751
 30
0
 40
29.99971229862
 50
45.0
 51
90.0
210
0
220
0
230
1.0
 0
LINE
 8
TOOL_0
 5
199
 10
6681.418
 20
145.751
 30
0
 11
6611.418
 21
145.751
 31
0
 0
ARC
 8
TOOL_0
 5
19A
 10
6611.418
 20
115.751
 30
0
 40
30.0
 50
90.0
 51
180.0
210
0
220
0
230
1.0
 0
LINE
 8
TOOL_0
 5
19B
 10
6581.418
 20
115.751
 30
0
 11
6581.418
 21
95.751
 31
0
 0
ARC
 8
TOOL_0
 5
19C
 10
6591.418
 20
95.751
 30
0
 40
10.0
 50
180.0
 51
270.0
210
0
220
0
230
1.0
 0
LINE
 8
TOOL_0
 5
19D
 10
6591.418
 20
85.751
 30
0
 11
6701.418
 21
85.751
 31
0
 0
ARC
 8
TOOL_0
 5
19E
 10
6701.418
 20
95.751
 30
0
 40
10.0
 50
270.0
 51
0
210
0
220
0
230
1.0
 0
LINE
 8
TOOL_0
 5
19F
 10
6711.418
 20
95.751
 30
0
 11
6711.418
 21
115.751
 31
0
 0
ARC
 8
TOOL_0
 5
1A0
 10
6681.418
 20
115.751
 30
0
 40
30.0
 50
0
 51
45.0
210
0
220
0
230
1.0
 0
LINE
 8
TOOL_0
 5
1A1
 10
6702.631
 20
136.964
 30
0
 11
6692.631
 21
136.964
 31
0
 0
LINE
 8
TOOL_0
 5
1A2
 10
6692.631
 20
136.964
 30
0
 11
6761.418
 21
215.751
 31
0
 0
LINE
 8
TOOL_0
 5
1A3
 10
6761.418
 20
215.751
 30
0
 11
6791.418
 21
215.751
 31
0
 0
LINE
 8
TOOL_0
 5
1A4
 10
6791.418
 20
215.751
 30
0
 11
6791.418
 21
245.751
 31
0
 0
ARC
 8
TOOL_0
 5
1A5
 10
6771.418
 20
245.751
 30
0
 40
20.0
 50
0
 51
90.0
210
0
220
0
230
1.0
 0
LINE
 8
TOOL_0
 5
1A6
 10
6771.418
 20
265.751
 30
0
 11
6711.418
 21
265.751
 31
0
 0
ARC
 8
TOOL_0
 5
1A7
 10
6711.418
 20
245.751
 30
0
 40
20.0
 50
90.0
 51
180.0
210
0
220
0
230
1.0
 0
LINE
 8
TOOL_0
 5
1A8
 10
6691.418
 20
245.751
 30
0
 11
6691.418
 21
185.751
 31
0
 0
ARC
 8
TOOL_0
 5
1A9
 10
6711.418
 20
185.751
 30
0
 40
20.0
 50
180.0
 51
270.0
210
0
220
0
230
1.0
 0
LINE
 8
TOOL_0
 5
1AA
 10
6711.418
 20
165.751
 30
0
 11
6771.418
 21
165.751
 31
0
 0
ARC
 8
TOOL_0
 5
1AB
 10
6771.418
 20
185.751
 30
0
 40
20.0
 50
270.0
 51
0
210
0
220
0
230
1.0
 0
LINE
 8
TOOL_0
 5
1AC
 10
6791.418
 20
185.751
 30
0
 11
6791.418
 21
215.751
 31
0
 0
LINE
 8
TOOL_0
 5
1AD
 10
6791.418
 20
215.751
 30
0
 11
6784.347
 21
222.822
 31
0
 0
LINE
 8
TOOL_0
 5
1AE
 10
6784.347
 20
222.822
 30
0
 11
7756.418
 21
188.751
 31
0
 0
LINE
 8
TOOL_0
 5
1AF
 10
7756.418
 20
188.751
 30
0
 11
7786.418
 21
188.751
 31
0
 0
LINE
 8
TOOL_0
 5
1B0
 10
7786.418
 20
188.751
 30
0
 11
7786.418
 21
218.751
 31
0
 0
ARC
 8
TOOL_0
 5
1B1
 10
7766.418
 20
218.751
 30
0
 40
20.0
 50
0
 51
90.0
210
0
220
0
230
1.0
 0
LINE
 8
TOOL_0
 5
1B2
 10
7766.418
 20
238.751
 30
0
 11
7706.418
 21
238.751
 31
0
 0
ARC
 8
TOOL_0
 5
1B3
 10
7706.418
 20
218.751
 30
0
 40
20.0
 50
90.0
 51
180.0
210
0
220
0
230
1.0
 0
LINE
 8
TOOL_0
 5
1B4
 10
7686.418
 20
218.751
 30
0
 11
7686.418
 21
158.751
 31
0
 0
ARC
 8
TOOL_0
 5
1B5
 10
7706.418
 20
158.751
 30
0
 40
20.0
 50
180.0
 51
270.0
210
0
220
0
230
1.0
 0
LINE
 8
TOOL_0
 5
1B6
 10
7706.418
 20
138.751
 30
0
 11
7766.418
 21
138.751
 31
0
 0
ARC
 8
TOOL_0
 5
1B7
 10
7766.418
 20
158.751
 30
0
 40
20.0
 50
270.0
 51
0
210
0
220
0
230
1.0
 0
LINE
 8
TOOL_0
 5
1B8
 10
7786.418
 20
158.751
 30
0
 11
7786.418
 21
188.751
 31
0
 0
LINE
 8
TOOL_0
 5
1B9
 10
7786.418
 20
188.751
 30
0
 11
7779.347
 21
195.822
 31
0
 0
LINE
 8
TOOL_0
 5
1BA
 10
7779.347
 20
195.822
 30
0
 11
7812.418
 21
767.319
 31
0
 0
LINE
 8
TOOL_0
 5
1BB
 10
7812.418
 20
767.319
 30
0
 11
7812.418
 21
736.165
 31
0
 0
LINE
 8
TOOL_0
 5
1BC
 10
7812.418
 20
736.165
 30
0
 11
7812.418
 21
11.337
 31
0
 0
LINE
 8
TOOL_0
 5
1BD
 10
7812.418
 20
11.337
 30
0
 11
7803.832
 21
2.751
 31
0
 0
LINE
 8
TOOL_0
 5
1BE
 10
7803.832
 20
2.751
 30
0
 11
6327.418
 21
2.751
 31
0
 0
ARC
 8
TOOL_0
 5
1BF
 10
6327.418
 20
9.751
 30
0
 40
7.0
 50
180.0
 51
270.0
210
0
220
0
230
1.0
 0
LINE
 8
TOOL_0
 5
1C0
 10
6320.418
 20
9.751
 30
0
 11
6320.418
 21
2629.751
 31
0
 0
LINE
 8
TOOL_0
 5
1C1
 10
6320.418
 20
2629.751
 30
0
 11
7938.418
 21
2629.751
 31
0
 0
ARC
 8
TOOL_0
 5
1C2
 10
7938.418
 20
2622.751
 30
0
 40
7.0
 50
0
 51
90.0
210
0
220
0
230
1.0
 0
LINE
 8
TOOL_0
 5
1C3
 10
7945.418
 20
2622.751
 30
0
 11
7945.418
 21
2148.751
 31
0
 0
LINE
 8
TOOL_0
 5
1C4
 10
7945.418
 20
2148.751
 30
0
 11
7797.418
 21
2148.751
 31
0
 0
LINE
 8
TOOL_0
 5
1C5
 10
7797.418
 20
2148.751
 30
0
 11
7797.418
 21
2183.751
 31
0
 0
ARC
 8
TOOL_0
 5
1C6
 10
7776.418
 20
2183.751
 30
0
 40
21.0
 50
0
 51
147.688053502426
210
0
220
0
230
1.0
 0
LINE
 8
TOOL_0
 5
1C7
 10
7758.67
 20
2194.976
 30
0
 11
7725.36
 21
2142.307
 31
0
 0
ARC
 8
TOOL_0
 5
1C8
 10
7741.418
 20
2132.151
 30
0
 40
19.000097368172
 50
147.688392683242
 51
243.424159673344
210
0
220
0
230
1.0
 0
LINE
 8
TOOL_0
 5
1C9
 10
7732.918
 20
2115.159
 30
0
 11
7732.918
 21
1569.752
 31
0
 0
LINE
 8
TOOL_0
 5
1CA
 10
7732.918
 20
1569.752
 30
0
 11
7695.817
 21
1569.752
 31
0
 0
ARC
 8
TOOL_0
 5
1CB
 10
7690.918
 20
1570.752
 30
0
 40
5.00002009996
 50
348.463087982615
 51
90.0
210
0
220
0
230
1.0
 0
LINE
 8
TOOL_0
 5
1CC
 10
7690.918
 20
1575.752
 30
0
 11
7646.418
 21
1575.752
 31
0
 0
ARC
 8
TOOL_0
 5
1CD
 10
7646.418
 20
1376.752
 30
0
 40
199.0
 50
90.0
 51
180.0
210
0
220
0
230
1.0
 0
LINE
 8
TOOL_0
 5
1CE
 10
7447.418
 20
1376.752
 30
0
 11
7447.418
 21
943.752
 31
0
 0
ARC
 8
TOOL_0
 5
1CF
 10
7646.418
 20
943.752
 30
0
 40
199.0
 50
180.0
 51
270.0
210
0
220
0
230
1.0
 0
LINE
 8
TOOL_0
 5
1D0
 10
7646.418
 20
744.752
 30
0
 11
7803.832
 21
744.752
 31
0
 0
LINE
 8
TOOL_0
 5
1D1
 10
7803.832
 20
744.752
 30
0
 11
7812.418
 21
736.166
 31
0
 0
LINE
 8
TOOL_0
 5
1D2
 10
7812.418
 20
736.166
 30
0
 11
7822.033
 21
736.166
 31
0
 0
LINE
 8
TOOL_0
 5
1D3
 10
7822.033
 20
736.166
 30
0
 11
8059.914
 21
2443.752
 31
0
 0
LINE
 8
TOOL_0
 5
1D4
 10
8059.914
 20
2443.752
 30
0
 11
8089.914
 21
2443.752
 31
0
 0
LINE
 8
TOOL_0
 5
1D5
 10
8089.914
 20
2443.752
 30
0
 11
8089.914
 21
2473.752
 31
0
 0
ARC
 8
TOOL_0
 5
1D6
 10
8069.914
 20
2473.752
 30
0
 40
20.0
 50
0
 51
90.0
210
0
220
0
230
1.0
 0
LINE
 8
TOOL_0
 5
1D7
 10
8069.914
 20
2493.752
 30
0
 11
8009.914
 21
2493.752
 31
0
 0
ARC
 8
TOOL_0
 5
1D8
 10
8009.914
 20
2473.752
 30
0
 40
20.0
 50
90.0
 51
180.0
210
0
220
0
230
1.0
 0
LINE
 8
TOOL_0
 5
1D9
 10
7989.914
 20
2473.752
 30
0
 11
7989.914
 21
2413.752
 31
0
 0
ARC
 8
TOOL_0
 5
1DA
 10
8009.914
 20
2413.752
 30
0
 40
20.0
 50
180.0
 51
270.0
210
0
220
0
230
1.0
 0
LINE
 8
TOOL_0
 5
1DB
 10
8009.914
 20
2393.752
 30
0
 11
8069.914
 21
2393.752
 31
0
 0
ARC
 8
TOOL_0
 5
1DC
 10
8069.914
 20
2413.752
 30
0
 40
20.0
 50
270.0
 51
0
210
0
220
0
230
1.0
 0
LINE
 8
TOOL_0
 5
1DD
 10
8089.914
 20
2413.752
 30
0
 11
8089.914
 21
2443.752
 31
0
 0
LINE
 8
TOOL_0
 5
1DE
 10
8089.914
 20
2443.752
 30
0
 11
8082.843
 21
2450.823
 31
0
 0
LINE
 8
TOOL_0
 5
1DF
 10
8082.843
 20
2450.823
 30
0
 11
9164.915
 21
2516.752
 31
0
 0
LINE
 8
TOOL_0
 5
1E0
 10
9164.915
 20
2516.752
 30
0
 11
9194.915
 21
2516.752
 31
0
 0
LINE
 8
TOOL_0
 5
1E1
 10
9194.915
 20
2516.752
 30
0
 11
9194.915
 21
2536.752
 31
0
 0
ARC
 8
TOOL_0
 5
1E2
 10
9184.915
 20
2536.752
 30
0
 40
10.0
 50
0
 51
90.0
210
0
220
0
230
1.0
 0
LINE
 8
TOOL_0
 5
1E3
 10
9184.915
 20
2546.752
 30
0
 11
9074.915
 21
2546.752
 31
0
 0
ARC
 8
TOOL_0
 5
1E4
 10
9074.915
 20
2536.752
 30
0
 40
10.0
 50
90.0
 51
180.0
210
0
220
0
230
1.0
 0
LINE
 8
TOOL_0
 5
1E5
 10
9064.915
 20
2536.752
 30
0
 11
9064.915
 21
2516.752
 31
0
 0
ARC
 8
TOOL_0
 5
1E6
 10
9094.915
 20
2516.752
 30
0
 40
30.0
 50
180.0
 51
270.0
210
0
220
0
230
1.0
 0
LINE
 8
TOOL_0
 5
1E7
 10
9094.915
 20
2486.752
 30
0
 11
9164.915
 21
2486.752
 31
0
 0
ARC
 8
TOOL_0
 5
1E8
 10
9164.915
 20
2516.752
 30
0
 40
30.0
 50
270.0
 51
0
210
0
220
0
230
1.0
 0
LINE
 8
TOOL_0
 5
1E9
 10
9194.915
 20
2516.752
 30
0
 11
9187.844
 21
2523.823
 31
0
 0
LINE
 8
TOOL_0
 5
1EA
 10
9187.844
 20
2523.823
 30
0
 11
9054.916
 21
2416.752
 31
0
 0
LINE
 8
TOOL_0
 5
1EB
 10
9054.916
 20
2416.752
 30
0
 11
9084.916
 21
2416.752
 31
0
 0
LINE
 8
TOOL_0
 5
1EC
 10
9084.916
 20
2416.752
 30
0
 11
9084.916
 21
2446.752
 31
0
 0
ARC
 8
TOOL_0
 5
1ED
 10
9064.916
 20
2446.752
 30
0
 40
20.0
 50
0
 51
90.0
210
0
220
0
230
1.0
 0
LINE
 8
TOOL_0
 5
1EE
 10
9064.916
 20
2466.752
 30
0
 11
9004.916
 21
2466.752
 31
0
 0
ARC
 8
TOOL_0
 5
1EF
 10
9004.916
 20
2446.752
 30
0
 40
20.0
 50
90.0
 51
180.0
210
0
220
0
230
1.0
 0
LINE
 8
TOOL_0
 5
1F0
 10
8984.916
 20
2446.752
 30
0
 11
8984.916
 21
2386.752
 31
0
 0
ARC
 8
TOOL_0
 5
1F1
 10
9004.916
 20
2386.752
 30
0
 40
20.0
 50
180.0
 51
270.0
210
0
220
0
230
1.0
 0
LINE
 8
TOOL_0
 5
1F2
 10
9004.916
 20
2366.752
 30
0
 11
9064.916
 21
2366.752
 31
0
 0
ARC
 8
TOOL_0
 5
1F3
 10
9064.916
 20
2386.752
 30
0
 40
20.0
 50
270.0
 51
0
210
0
220
0
230
1.0
 0
LINE
 8
TOOL_0
 5
1F4
 10
9084.916
 20
2386.752
 30
0
 11
9084.916
 21
2416.752
 31
0
 0
LINE
 8
TOOL_0
 5
1F5
 10
9084.916
 20
2416.752
 30
0
 11
9077.845
 21
2423.823
 31
0
 0
LINE
 8
TOOL_0
 5
1F6
 10
9077.845
 20
2423.823
 30
0
 11
8964.917
 21
318.752
 31
0
 0
LINE
 8
TOOL_0
 5
1F7
 10
8964.917
 20
318.752
 30
0
 11
8994.917
 21
318.752
 31
0
 0
LINE
 8
TOOL_0
 5
1F8
 10
8994.917
 20
318.752
 30
0
 11
8994.917
 21
348.752
 31
0
 0
ARC
 8
TOOL_0
 5
1F9
 10
8984.917
 20
348.752
 30
0
 40
10.0
 50
0
 51
90.0
210
0
220
0
230
1.0
 0
LINE
 8
TOOL_0
 5
1FA
 10
8984.917
 20
358.752
 30
0
 11
8804.917
 21
358.752
 31
0
 0
ARC
 8
TOOL_0
 5
1FB
 10
8804.917
 20
348.752
 30
0
 40
10.0
 50
90.0
 51
180.0
210
0
220
0
230
1.0
 0
LINE
 8
TOOL_0
 5
1FC
 10
8794.917
 20
348.752
 30
0
 11
8794.917
 21
288.752
 31
0
 0
ARC
 8
TOOL_0
 5
1FD
 10
8804.917
 20
288.752
 30
0
 40
10.0
 50
180.0
 51
270.0
210
0
220
0
230
1.0
 0
LINE
 8
TOOL_0
 5
1FE
 10
8804.917
 20
278.752
 30
0
 11
8984.917
 21
278.752
 31
0
 0
ARC
 8
TOOL_0
 5
1FF
 10
8984.917
 20
288.752
 30
0
 40
10.0
 50
270.0
 51
0
210
0
220
0
230
1.0
 0
LINE
 8
TOOL_0
 5
200
 10
8994.917
 20
288.752
 30
0
 11
8994.917
 21
318.752
 31
0
 0
LINE
 8
TOOL_0
 5
201
 10
8994.917
 20
318.752
 30
0
 11
8987.846
 21
325.823
 31
0
 0
LINE
 8
TOOL_0
 5
202
 10
8987.846
 20
325.823
 30
0
 11
8439.918
 21
83.752
 31
0
 0
LINE
 8
TOOL_0
 5
203
 10
8439.918
 20
83.752
 30
0
 11
8469.918
 21
83.752
 31
0
 0
ARC
 8
TOOL_0
 5
204
 10
8434.918
 20
83.752
 30
0
 40
35.0
 50
0
 51
180.0
210
0
220
0
230
1.0
 0
ARC
 8
TOOL_0
 5
205
 10
8434.918
 20
83.752
 30
0
 40
35.0
 50
180.0
 51
0
210
0
220
0
230
1.0
 0
LINE
 8
TOOL_0
 5
206
 10
8469.918
 20
83.752
 30
0
 11
8462.847
 21
90.823
 31
0
 0
LINE
 8
TOOL_0
 5
207
 10
8462.847
 20
90.823
 30
0
 11
8452.919
 21
728.752
 31
0
 0
LINE
 8
TOOL_0
 5
208
 10
8452.919
 20
728.752
 30
0
 11
8482.919
 21
728.752
 31
0
 0
ARC
 8
TOOL_0
 5
209
 10
8462.919
 20
728.752
 30
0
 40
20.0
 50
0
 51
66.867990902554
210
0
220
0
230
1.0
 0
LINE
 8
TOOL_0
 5
20A
 10
8470.776
 20
747.144
 30
0
 11
8447.097
 21
757.26
 31
0
 0
ARC
 8
TOOL_0
 5
20B
 10
8434.918
 20
728.574
 30
0
 40
31.164316726025
 50
66.9957430162
 51
113.002564662372
210
0
220
0
230
1.0
 0
LINE
 8
TOOL_0
 5
20C
 10
8422.74
 20
757.26
 30
0
 11
8399.061
 21
747.144
 31
0
 0
ARC
 8
TOOL_0
 5
20D
 10
8406.918
 20
728.752
 30
0
 40
19.999952824944
 50
113.132009097445
 51
246.867990902554
210
0
220
0
230
1.0
 0
LINE
 8
TOOL_0
 5
20E
 10
8399.061
 20
710.36
 30
0
 11
8422.74
 21
700.244
 31
0
 0
ARC
 8
TOOL_0
 5
20F
 10
8434.919
 20
728.93
 30
0
 40
31.164316726025
 50
246.9957430162
 51
293.002564662372
210
0
220
0
230
1.0
 0
LINE
 8
TOOL_0
 5
210
 10
8447.097
 20
700.244
 30
0
 11
8470.776
 21
710.36
 31
0
 0
ARC
 8
TOOL_0
 5
211
 10
8462.919
 20
728.752
 30
0
 40
19.999952824944
 50
293.132009097446
 51
0
210
0
220
0
230
1.0
 0
LINE
 8
TOOL_0
 5
212
 10
8482.919
 20
728.752
 30
0
 11
8475.848
 21
735.823
 31
0
 0
LINE
 8
TOOL_0
 5
213
 10
8475.848
 20
735.823
 30
0
 11
7963.92
 21
1864.68
 31
0
 0
LINE
 8
TOOL_0
 5
214
 10
7963.92
 20
1864.68
 30
0
 11
7963.92
 21
1896.338
 31
0
 0
LINE
 8
TOOL_0
 5
215
 10
7963.92
 20
1896.338
 30
0
 11
7963.92
 21
2621.166
 31
0
 0
LINE
 8
TOOL_0
 5
216
 10
7963.92
 20
2621.166
 30
0
 11
7972.506
 21
2629.752
 31
0
 0
LINE
 8
TOOL_0
 5
217
 10
7972.506
 20
2629.752
 30
0
 11
9448.92
 21
2629.752
 31
0
 0
ARC
 8
TOOL_0
 5
218
 10
9448.92
 20
2622.752
 30
0
 40
7.0
 50
0
 51
90.0
210
0
220
0
230
1.0
 0
LINE
 8
TOOL_0
 5
219
 10
9455.92
 20
2622.752
 30
0
 11
9455.92
 21
2.752
 31
0
 0
LINE
 8
TOOL_0
 5
21A
 10
9455.92
 20
2.752
 30
0
 11
7837.92
 21
2.752
 31
0
 0
ARC
 8
TOOL_0
 5
21B
 10
7837.92
 20
9.752
 30
0
 40
7.0
 50
180.0
 51
270.0
210
0
220
0
230
1.0
 0
LINE
 8
TOOL_0
 5
21C
 10
7830.92
 20
9.752
 30
0
 11
7830.92
 21
483.752
 31
0
 0
LINE
 8
TOOL_0
 5
21D
 10
7830.92
 20
483.752
 30
0
 11
7978.92
 21
483.752
 31
0
 0
LINE
 8
TOOL_0
 5
21E
 10
7978.92
 20
483.752
 30
0
 11
7978.92
 21
448.752
 31
0
 0
ARC
 8
TOOL_0
 5
21F
 10
7999.92
 20
448.752
 30
0
 40
21.0
 50
180.0
 51
327.688053502426
210
0
220
0
230
1.0
 0
LINE
 8
TOOL_0
 5
220
 10
8017.668
 20
437.527
 30
0
 11
8050.978
 21
490.196
 31
0
 0
ARC
 8
TOOL_0
 5
221
 10
8034.92
 20
500.352
 30
0
 40
19.000097368172
 50
327.688392683242
 51
63.424159673344
210
0
220
0
230
1.0
 0
LINE
 8
TOOL_0
 5
222
 10
8043.42
 20
517.344
 30
0
 11
8043.42
 21
1062.751
 31
0
 0
LINE
 8
TOOL_0
 5
223
 10
8043.42
 20
1062.751
 30
0
 11
8080.521
 21
1062.751
 31
0
 0
ARC
 8
TOOL_0
 5
224
 10
8085.42
 20
1061.751
 30
0
 40
5.00002009996
 50
168.463087982615
 51
270.0
210
0
220
0
230
1.0
 0
LINE
 8
TOOL_0
 5
225
 10
8085.42
 20
1056.751
 30
0
 11
8129.92
 21
1056.751
 31
0
 0
ARC
 8
TOOL_0
 5
226
 10
8129.92
 20
1255.751
 30
0
 40
199.0
 50
270.0
 51
359.99971208151
210
0
220
0
230
1.0
 0
LINE
 8
TOOL_0
 5
227
 10
8328.92
 20
1255.75
 30
0
 11
8328.92
 21
1688.751
 31
0
 0
ARC
 8
TOOL_0
 5
228
 10
8129.92
 20
1688.751
 30
0
 40
199.0
 50
0
 51
90.0
210
0
220
0
230
1.0
 0
LINE
 8
TOOL_0
 5
229
 10
8129.92
 20
1887.751
 30
0
 11
7972.506
 21
1887.751
 31
0
 0
LINE
 8
TOOL_0
 5
22A
 10
7972.506
 20
1887.751
 30
0
 11
7963.92
 21
1896.337
 31
0
 0
LINE
 8
TOOL_0
 5
22B
 10
7963.92
 20
1896.337
 30
0
 11
7954.15
 21
1896.337
 31
0
 0
ENDSEC
 0
EOF

