0
SECTION
2
TABLES
0
TABLE
2
LAYER
70
0
0
LAYER
2
LAYER_NAME
70
0
62
1
6
CONTINUOUS
0
ENDTAB
0
ENDSEC
 0
SECTION
 2
ENTITIES
 0
LINE
 8
TOOL_0
 5
1
 10
458.039
 20
591.852
 30
0
 11
488.039
 21
591.852
 31
0
 0
ARC
 8
TOOL_0
 5
2
 10
430.539
 20
591.852
 30
0
 40
57.5
 50
0
 51
180.0
210
0
220
0
230
1.0
 0
ARC
 8
TOOL_0
 5
3
 10
430.539
 20
591.852
 30
0
 40
57.5
 50
180.0
 51
0
210
0
220
0
230
1.0
 0
LINE
 8
TOOL_0
 5
4
 10
488.039
 20
591.852
 30
0
 11
553.759
 21
427.63
 31
0
 0
LINE
 8
TOOL_0
 5
5
 10
553.759
 20
427.63
 30
0
 11
553.759
 21
400.321
 31
0
 0
LINE
 8
TOOL_0
 5
6
 10
553.759
 20
400.321
 30
0
 11
529.125
 21
402.752
 31
0
 0
LINE
 8
TOOL_0
 5
7
 10
529.125
 20
402.752
 30
0
 11
66.125
 21
402.752
 31
0
 0
ARC
 8
TOOL_0
 5
8
 10
66.125
 20
411.852
 30
0
 40
9.1
 50
180.0
 51
270.0
210
0
220
0
230
1.0
 0
LINE
 8
TOOL_0
 5
9
 10
57.025
 20
411.852
 30
0
 11
57.025
 21
841.852
 31
0
 0
ARC
 8
TOOL_0
 5
A
 10
66.125
 20
841.852
 30
0
 40
9.1
 50
90.0
 51
180.0
210
0
220
0
230
1.0
 0
LINE
 8
TOOL_0
 5
B
 10
66.125
 20
850.952
 30
0
 11
529.125
 21
850.952
 31
0
 0
ARC
 8
TOOL_0
 5
C
 10
529.125
 20
841.852
 30
0
 40
9.1
 50
0
 51
90.0
210
0
220
0
230
1.0
 0
LINE
 8
TOOL_0
 5
D
 10
538.225
 20
841.852
 30
0
 11
538.225
 21
411.852
 31
0
 0
ARC
 8
TOOL_0
 5
E
 10
529.125
 20
411.852
 30
0
 40
9.1
 50
270.0
 51
0
210
0
220
0
230
1.0
 0
LINE
 8
TOOL_0
 5
F
 10
529.125
 20
402.752
 30
0
 11
529.125
 21
392.198
 31
0
 0
LINE
 8
TOOL_0
 5
10
 10
529.125
 20
392.198
 30
0
 11
712.746
 21
1115.149
 31
0
 0
LINE
 8
TOOL_0
 5
11
 10
712.746
 20
1115.149
 30
0
 11
742.746
 21
1115.149
 31
0
 0
ARC
 8
TOOL_0
 5
12
 10
685.246
 20
1115.149
 30
0
 40
57.5
 50
0
 51
180.0
210
0
220
0
230
1.0
 0
ARC
 8
TOOL_0
 5
13
 10
685.246
 20
1115.149
 30
0
 40
57.5
 50
180.0
 51
0
210
0
220
0
230
1.0
 0
LINE
 8
TOOL_0
 5
14
 10
742.746
 20
1115.149
 30
0
 11
812.343
 21
954.266
 31
0
 0
LINE
 8
TOOL_0
 5
15
 10
812.343
 20
954.266
 30
0
 11
812.343
 21
926.285
 31
0
 0
LINE
 8
TOOL_0
 5
16
 10
812.343
 20
926.285
 30
0
 11
783.833
 21
926.05
 31
0
 0
LINE
 8
TOOL_0
 5
17
 10
783.833
 20
926.05
 30
0
 11
320.833
 21
926.05
 31
0
 0
ARC
 8
TOOL_0
 5
18
 10
320.833
 20
935.15
 30
0
 40
9.1
 50
180.0
 51
270.0
210
0
220
0
230
1.0
 0
LINE
 8
TOOL_0
 5
19
 10
311.733
 20
935.15
 30
0
 11
311.733
 21
1365.15
 31
0
 0
ARC
 8
TOOL_0
 5
1A
 10
320.833
 20
1365.15
 30
0
 40
9.1
 50
90.0
 51
180.0
210
0
220
0
230
1.0
 0
LINE
 8
TOOL_0
 5
1B
 10
320.833
 20
1374.25
 30
0
 11
783.833
 21
1374.25
 31
0
 0
ARC
 8
TOOL_0
 5
1C
 10
783.833
 20
1365.15
 30
0
 40
9.1
 50
0
 51
90.0
210
0
220
0
230
1.0
 0
LINE
 8
TOOL_0
 5
1D
 10
792.933
 20
1365.15
 30
0
 11
792.933
 21
935.15
 31
0
 0
ARC
 8
TOOL_0
 5
1E
 10
783.833
 20
935.15
 30
0
 40
9.1
 50
270.0
 51
0
210
0
220
0
230
1.0
 0
LINE
 8
TOOL_0
 5
1F
 10
783.833
 20
926.05
 30
0
 11
783.725
 21
917.564
 31
0
 0
ENDSEC
 0
EOF

