0
SECTION
2
TABLES
0
TABLE
2
LAYER
70
0
0
LAYER
2
LAYER_NAME
70
0
62
1
6
CONTINUOUS
0
ENDTAB
0
ENDSEC
 0
SECTION
 2
ENTITIES
 0
LINE
 8
TOOL_0
 5
1
 10
373.05
 20
548.719
 30
0
 11
348.301
 21
523.97
 31
0
 0
LINE
 8
TOOL_0
 5
2
 10
348.301
 20
523.97
 30
0
 11
345.682
 21
522.503
 31
0
 0
ARC
 8
TOOL_0
 5
3
 10
315.72
 20
524.003
 30
0
 40
29.999524062891
 50
269.998090140683
 51
357.133970511115
210
0
220
0
230
1.0
 0
LINE
 8
TOOL_0
 5
4
 10
315.719
 20
494.003
 30
0
 11
264.919
 21
494.003
 31
0
 0
ARC
 8
TOOL_0
 5
5
 10
264.919
 20
524.003
 30
0
 40
30.0
 50
180.0
 51
270.0
210
0
220
0
230
1.0
 0
LINE
 8
TOOL_0
 5
6
 10
234.919
 20
524.003
 30
0
 11
234.919
 21
906.003
 31
0
 0
ARC
 8
TOOL_0
 5
7
 10
264.919
 20
906.003
 30
0
 40
30.0
 50
90.0
 51
180.0
210
0
220
0
230
1.0
 0
LINE
 8
TOOL_0
 5
8
 10
264.919
 20
936.003
 30
0
 11
466.519
 21
936.003
 31
0
 0
ARC
 8
TOOL_0
 5
9
 10
466.519
 20
906.003
 30
0
 40
30.0
 50
0
 51
90.0
210
0
220
0
230
1.0
 0
LINE
 8
TOOL_0
 5
A
 10
496.519
 20
906.003
 30
0
 11
496.519
 21
637.003
 31
0
 0
ARC
 8
TOOL_0
 5
B
 10
466.519
 20
637.003
 30
0
 40
30.0
 50
270.0
 51
0
210
0
220
0
230
1.0
 0
LINE
 8
TOOL_0
 5
C
 10
466.519
 20
607.003
 30
0
 11
375.719
 21
607.003
 31
0
 0
ARC
 8
TOOL_0
 5
D
 10
375.719
 20
577.003
 30
0
 40
30.0
 50
90.0
 51
180.0
210
0
220
0
230
1.0
 0
LINE
 8
TOOL_0
 5
E
 10
345.719
 20
577.003
 30
0
 11
345.719
 21
525.503
 31
0
 0
LINE
 8
TOOL_0
 5
F
 10
345.719
 20
525.503
 30
0
 11
348.3
 21
523.971
 31
0
 0
LINE
 8
TOOL_0
 5
10
 10
348.3
 20
523.971
 30
0
 11
351.836
 21
520.435
 31
0
 0
LINE
 8
TOOL_0
 5
11
 10
351.836
 20
520.435
 30
0
 11
2892.552
 21
563.719
 31
0
 0
LINE
 8
TOOL_0
 5
12
 10
2892.552
 20
563.719
 30
0
 11
2867.803
 21
538.97
 31
0
 0
LINE
 8
TOOL_0
 5
13
 10
2867.803
 20
538.97
 30
0
 11
2865.184
 21
537.503
 31
0
 0
ARC
 8
TOOL_0
 5
14
 10
2835.222
 20
539.003
 30
0
 40
29.999524062891
 50
269.998090140683
 51
357.133970511115
210
0
220
0
230
1.0
 0
LINE
 8
TOOL_0
 5
15
 10
2835.221
 20
509.003
 30
0
 11
2784.421
 21
509.003
 31
0
 0
ARC
 8
TOOL_0
 5
16
 10
2784.421
 20
539.003
 30
0
 40
30.0
 50
180.0
 51
270.0
210
0
220
0
230
1.0
 0
LINE
 8
TOOL_0
 5
17
 10
2754.421
 20
539.003
 30
0
 11
2754.421
 21
921.003
 31
0
 0
ARC
 8
TOOL_0
 5
18
 10
2784.421
 20
921.003
 30
0
 40
30.0
 50
90.0
 51
180.0
210
0
220
0
230
1.0
 0
LINE
 8
TOOL_0
 5
19
 10
2784.421
 20
951.003
 30
0
 11
2986.021
 21
951.003
 31
0
 0
ARC
 8
TOOL_0
 5
1A
 10
2986.021
 20
921.003
 30
0
 40
30.0
 50
0
 51
90.0
210
0
220
0
230
1.0
 0
LINE
 8
TOOL_0
 5
1B
 10
3016.021
 20
921.003
 30
0
 11
3016.021
 21
652.003
 31
0
 0
ARC
 8
TOOL_0
 5
1C
 10
2986.021
 20
652.003
 30
0
 40
30.0
 50
270.0
 51
0
210
0
220
0
230
1.0
 0
LINE
 8
TOOL_0
 5
1D
 10
2986.021
 20
622.003
 30
0
 11
2895.221
 21
622.003
 31
0
 0
ARC
 8
TOOL_0
 5
1E
 10
2895.221
 20
592.003
 30
0
 40
30.0
 50
90.0
 51
180.0
210
0
220
0
230
1.0
 0
LINE
 8
TOOL_0
 5
1F
 10
2865.221
 20
592.003
 30
0
 11
2865.221
 21
540.503
 31
0
 0
LINE
 8
TOOL_0
 5
20
 10
2865.221
 20
540.503
 30
0
 11
2867.802
 21
538.971
 31
0
 0
LINE
 8
TOOL_0
 5
21
 10
2867.802
 20
538.971
 30
0
 11
2871.338
 21
535.435
 31
0
 0
LINE
 8
TOOL_0
 5
22
 10
2871.338
 20
535.435
 30
0
 11
324.998
 21
274.942
 31
0
 0
LINE
 8
TOOL_0
 5
23
 10
324.998
 20
274.942
 30
0
 11
354.998
 21
274.942
 31
0
 0
LINE
 8
TOOL_0
 5
24
 10
354.998
 20
274.942
 30
0
 11
354.998
 21
321.591
 31
0
 0
ARC
 8
TOOL_0
 5
25
 10
346.998
 20
321.591
 30
0
 40
8.0
 50
0
 51
180.0
210
0
220
0
230
1.0
 0
LINE
 8
TOOL_0
 5
26
 10
338.998
 20
321.591
 30
0
 11
338.998
 21
308.591
 31
0
 0
LINE
 8
TOOL_0
 5
27
 10
338.998
 20
308.591
 30
0
 11
284.998
 21
308.591
 31
0
 0
LINE
 8
TOOL_0
 5
28
 10
284.998
 20
308.591
 30
0
 11
284.998
 21
321.591
 31
0
 0
ARC
 8
TOOL_0
 5
29
 10
276.998
 20
321.591
 30
0
 40
8.0
 50
0
 51
180.0
210
0
220
0
230
1.0
 0
LINE
 8
TOOL_0
 5
2A
 10
268.998
 20
321.591
 30
0
 11
268.998
 21
256.591
 31
0
 0
ARC
 8
TOOL_0
 5
2B
 10
283.998
 20
256.591
 30
0
 40
15.0
 50
180.0
 51
270.0
210
0
220
0
230
1.0
 0
LINE
 8
TOOL_0
 5
2C
 10
283.998
 20
241.591
 30
0
 11
339.998
 21
241.591
 31
0
 0
ARC
 8
TOOL_0
 5
2D
 10
339.998
 20
256.591
 30
0
 40
15.0
 50
270.0
 51
0
210
0
220
0
230
1.0
 0
LINE
 8
TOOL_0
 5
2E
 10
354.998
 20
256.591
 30
0
 11
354.998
 21
274.942
 31
0
 0
LINE
 8
TOOL_0
 5
2F
 10
354.998
 20
274.942
 30
0
 11
766.998
 21
236.501
 31
0
 0
LINE
 8
TOOL_0
 5
30
 10
766.998
 20
236.501
 30
0
 11
796.998
 21
236.501
 31
0
 0
ARC
 8
TOOL_0
 5
31
 10
761.998
 20
236.501
 30
0
 40
35.0
 50
0
 51
180.0
210
0
220
0
230
1.0
 0
ARC
 8
TOOL_0
 5
32
 10
761.998
 20
236.501
 30
0
 40
35.0
 50
180.0
 51
0
210
0
220
0
230
1.0
 0
LINE
 8
TOOL_0
 5
33
 10
796.998
 20
236.501
 30
0
 11
1071.998
 21
836.501
 31
0
 0
LINE
 8
TOOL_0
 5
34
 10
1071.998
 20
836.501
 30
0
 11
1101.998
 21
836.501
 31
0
 0
ARC
 8
TOOL_0
 5
35
 10
1066.998
 20
836.501
 30
0
 40
35.0
 50
0
 51
180.0
210
0
220
0
230
1.0
 0
ARC
 8
TOOL_0
 5
36
 10
1066.998
 20
836.501
 30
0
 40
35.0
 50
180.0
 51
0
210
0
220
0
230
1.0
 0
LINE
 8
TOOL_0
 5
37
 10
1101.998
 20
836.501
 30
0
 11
1621.998
 21
236.501
 31
0
 0
LINE
 8
TOOL_0
 5
38
 10
1621.998
 20
236.501
 30
0
 11
1651.998
 21
236.501
 31
0
 0
ARC
 8
TOOL_0
 5
39
 10
1616.998
 20
236.501
 30
0
 40
35.0
 50
0
 51
180.0
210
0
220
0
230
1.0
 0
ARC
 8
TOOL_0
 5
3A
 10
1616.998
 20
236.501
 30
0
 40
35.0
 50
180.0
 51
0
210
0
220
0
230
1.0
 0
LINE
 8
TOOL_0
 5
3B
 10
1651.998
 20
236.501
 30
0
 11
2171.998
 21
836.501
 31
0
 0
LINE
 8
TOOL_0
 5
3C
 10
2171.998
 20
836.501
 30
0
 11
2201.998
 21
836.501
 31
0
 0
ARC
 8
TOOL_0
 5
3D
 10
2166.998
 20
836.501
 30
0
 40
35.0
 50
0
 51
180.0
210
0
220
0
230
1.0
 0
ARC
 8
TOOL_0
 5
3E
 10
2166.998
 20
836.501
 30
0
 40
35.0
 50
180.0
 51
0
210
0
220
0
230
1.0
 0
LINE
 8
TOOL_0
 5
3F
 10
2201.998
 20
836.501
 30
0
 11
2476.998
 21
236.501
 31
0
 0
LINE
 8
TOOL_0
 5
40
 10
2476.998
 20
236.501
 30
0
 11
2506.998
 21
236.501
 31
0
 0
ARC
 8
TOOL_0
 5
41
 10
2471.998
 20
236.501
 30
0
 40
35.0
 50
0
 51
180.0
210
0
220
0
230
1.0
 0
ARC
 8
TOOL_0
 5
42
 10
2471.998
 20
236.501
 30
0
 40
35.0
 50
180.0
 51
0
210
0
220
0
230
1.0
 0
LINE
 8
TOOL_0
 5
43
 10
2506.998
 20
236.501
 30
0
 11
2934.998
 21
280.101
 31
0
 0
LINE
 8
TOOL_0
 5
44
 10
2934.998
 20
280.101
 30
0
 11
2964.998
 21
280.101
 31
0
 0
LINE
 8
TOOL_0
 5
45
 10
2964.998
 20
280.101
 30
0
 11
2964.998
 21
321.591
 31
0
 0
ARC
 8
TOOL_0
 5
46
 10
2956.998
 20
321.591
 30
0
 40
8.0
 50
0
 51
180.0
210
0
220
0
230
1.0
 0
LINE
 8
TOOL_0
 5
47
 10
2948.998
 20
321.591
 30
0
 11
2948.998
 21
308.591
 31
0
 0
LINE
 8
TOOL_0
 5
48
 10
2948.998
 20
308.591
 30
0
 11
2894.998
 21
308.591
 31
0
 0
LINE
 8
TOOL_0
 5
49
 10
2894.998
 20
308.591
 30
0
 11
2894.998
 21
321.591
 31
0
 0
ARC
 8
TOOL_0
 5
4A
 10
2886.998
 20
321.591
 30
0
 40
8.0
 50
0
 51
180.0
210
0
220
0
230
1.0
 0
LINE
 8
TOOL_0
 5
4B
 10
2878.998
 20
321.591
 30
0
 11
2878.998
 21
256.591
 31
0
 0
ARC
 8
TOOL_0
 5
4C
 10
2893.998
 20
256.591
 30
0
 40
15.0
 50
180.0
 51
270.0
210
0
220
0
230
1.0
 0
LINE
 8
TOOL_0
 5
4D
 10
2893.998
 20
241.591
 30
0
 11
2949.998
 21
241.591
 31
0
 0
ARC
 8
TOOL_0
 5
4E
 10
2949.998
 20
256.591
 30
0
 40
15.0
 50
270.0
 51
0
210
0
220
0
230
1.0
 0
LINE
 8
TOOL_0
 5
4F
 10
2964.998
 20
256.591
 30
0
 11
2964.998
 21
280.101
 31
0
 0
LINE
 8
TOOL_0
 5
50
 10
2964.998
 20
280.101
 30
0
 11
3194.981
 21
9.267
 31
0
 0
LINE
 8
TOOL_0
 5
51
 10
3194.981
 20
9.267
 30
0
 11
3154.748
 21
7.751
 31
0
 0
LINE
 8
TOOL_0
 5
52
 10
3154.748
 20
7.751
 30
0
 11
79.248
 21
7.751
 31
0
 0
LINE
 8
TOOL_0
 5
53
 10
79.248
 20
7.751
 30
0
 11
79.248
 21
110.501
 31
0
 0
LINE
 8
TOOL_0
 5
54
 10
79.248
 20
110.501
 30
0
 11
85.248
 21
110.501
 31
0
 0
LINE
 8
TOOL_0
 5
55
 10
85.248
 20
110.501
 30
0
 11
85.248
 21
188.501
 31
0
 0
ARC
 8
TOOL_0
 5
56
 10
60.248
 20
188.501
 30
0
 40
25.0
 50
0
 51
90.0
210
0
220
0
230
1.0
 0
LINE
 8
TOOL_0
 5
57
 10
60.248
 20
213.501
 30
0
 11
7.748
 21
213.501
 31
0
 0
LINE
 8
TOOL_0
 5
58
 10
7.748
 20
213.501
 30
0
 11
7.748
 21
988.251
 31
0
 0
LINE
 8
TOOL_0
 5
59
 10
7.748
 20
988.251
 30
0
 11
91.251
 21
988.251
 31
0
 0
LINE
 8
TOOL_0
 5
5A
 10
91.251
 20
988.251
 30
0
 11
163.092
 21
489.802
 31
0
 0
ARC
 8
TOOL_0
 5
5B
 10
237.325
 20
500.501
 30
0
 40
75.000045933319
 50
188.201407381131
 51
270.0
210
0
220
0
230
1.0
 0
LINE
 8
TOOL_0
 5
5C
 10
237.325
 20
425.501
 30
0
 11
427.865
 21
425.501
 31
0
 0
ARC
 8
TOOL_0
 5
5D
 10
427.865
 20
500.501
 30
0
 40
75.0
 50
270.0
 51
319.999877753997
210
0
220
0
230
1.0
 0
LINE
 8
TOOL_0
 5
5E
 10
485.318
 20
452.292
 30
0
 11
875.722
 21
917.557
 31
0
 0
LINE
 8
TOOL_0
 5
5F
 10
875.722
 20
917.557
 30
0
 11
871.126
 21
921.414
 31
0
 0
LINE
 8
TOOL_0
 5
60
 10
871.126
 20
921.414
 30
0
 11
616.249
 21
617.664
 31
0
 0
LINE
 8
TOOL_0
 5
61
 10
616.249
 20
617.664
 30
0
 11
616.249
 21
988.252
 31
0
 0
LINE
 8
TOOL_0
 5
62
 10
616.249
 20
988.252
 30
0
 11
2617.749
 21
988.252
 31
0
 0
LINE
 8
TOOL_0
 5
63
 10
2617.749
 20
988.252
 30
0
 11
2617.749
 21
617.664
 31
0
 0
LINE
 8
TOOL_0
 5
64
 10
2617.749
 20
617.664
 30
0
 11
2362.872
 21
921.414
 31
0
 0
LINE
 8
TOOL_0
 5
65
 10
2362.872
 20
921.414
 30
0
 11
2358.276
 21
917.557
 31
0
 0
LINE
 8
TOOL_0
 5
66
 10
2358.276
 20
917.557
 30
0
 11
2748.68
 21
452.292
 31
0
 0
ARC
 8
TOOL_0
 5
67
 10
2806.133
 20
500.501
 30
0
 40
74.999699266064
 50
220.000122246003
 51
270.0
210
0
220
0
230
1.0
 0
LINE
 8
TOOL_0
 5
68
 10
2806.133
 20
425.501
 30
0
 11
2996.673
 21
425.501
 31
0
 0
ARC
 8
TOOL_0
 5
69
 10
2996.673
 20
500.501
 30
0
 40
75.0
 50
270.0
 51
351.798592618869
210
0
220
0
230
1.0
 0
LINE
 8
TOOL_0
 5
6A
 10
3070.906
 20
489.802
 30
0
 11
3142.747
 21
988.251
 31
0
 0
LINE
 8
TOOL_0
 5
6B
 10
3142.747
 20
988.251
 30
0
 11
3226.25
 21
988.251
 31
0
 0
LINE
 8
TOOL_0
 5
6C
 10
3226.25
 20
988.251
 30
0
 11
3226.25
 21
213.501
 31
0
 0
LINE
 8
TOOL_0
 5
6D
 10
3226.25
 20
213.501
 30
0
 11
3173.75
 21
213.501
 31
0
 0
ARC
 8
TOOL_0
 5
6E
 10
3173.75
 20
188.501
 30
0
 40
25.0
 50
90.0
 51
180.0
210
0
220
0
230
1.0
 0
LINE
 8
TOOL_0
 5
6F
 10
3148.75
 20
188.501
 30
0
 11
3148.75
 21
110.501
 31
0
 0
LINE
 8
TOOL_0
 5
70
 10
3148.75
 20
110.501
 30
0
 11
3154.75
 21
110.501
 31
0
 0
LINE
 8
TOOL_0
 5
71
 10
3154.75
 20
110.501
 30
0
 11
3154.75
 21
7.751
 31
0
 0
LINE
 8
TOOL_0
 5
72
 10
3154.75
 20
7.751
 30
0
 11
3154.894
 21
4.441
 31
0
 0
LINE
 8
TOOL_0
 5
73
 10
3154.894
 20
4.441
 30
0
 11
3617.751
 21
563.719
 31
0
 0
LINE
 8
TOOL_0
 5
74
 10
3617.751
 20
563.719
 30
0
 11
3593.002
 21
538.97
 31
0
 0
LINE
 8
TOOL_0
 5
75
 10
3593.002
 20
538.97
 30
0
 11
3590.383
 21
537.503
 31
0
 0
ARC
 8
TOOL_0
 5
76
 10
3560.421
 20
539.003
 30
0
 40
29.999524062891
 50
269.998090140683
 51
357.133970511115
210
0
220
0
230
1.0
 0
LINE
 8
TOOL_0
 5
77
 10
3560.42
 20
509.003
 30
0
 11
3509.62
 21
509.003
 31
0
 0
ARC
 8
TOOL_0
 5
78
 10
3509.62
 20
539.003
 30
0
 40
30.0
 50
180.0
 51
270.0
210
0
220
0
230
1.0
 0
LINE
 8
TOOL_0
 5
79
 10
3479.62
 20
539.003
 30
0
 11
3479.62
 21
921.003
 31
0
 0
ARC
 8
TOOL_0
 5
7A
 10
3509.62
 20
921.003
 30
0
 40
30.0
 50
90.0
 51
180.0
210
0
220
0
230
1.0
 0
LINE
 8
TOOL_0
 5
7B
 10
3509.62
 20
951.003
 30
0
 11
3711.22
 21
951.003
 31
0
 0
ARC
 8
TOOL_0
 5
7C
 10
3711.22
 20
921.003
 30
0
 40
30.0
 50
0
 51
90.0
210
0
220
0
230
1.0
 0
LINE
 8
TOOL_0
 5
7D
 10
3741.22
 20
921.003
 30
0
 11
3741.22
 21
652.003
 31
0
 0
ARC
 8
TOOL_0
 5
7E
 10
3711.22
 20
652.003
 30
0
 40
30.0
 50
270.0
 51
0
210
0
220
0
230
1.0
 0
LINE
 8
TOOL_0
 5
7F
 10
3711.22
 20
622.003
 30
0
 11
3620.42
 21
622.003
 31
0
 0
ARC
 8
TOOL_0
 5
80
 10
3620.42
 20
592.003
 30
0
 40
30.0
 50
90.0
 51
180.0
210
0
220
0
230
1.0
 0
LINE
 8
TOOL_0
 5
81
 10
3590.42
 20
592.003
 30
0
 11
3590.42
 21
540.503
 31
0
 0
LINE
 8
TOOL_0
 5
82
 10
3590.42
 20
540.503
 30
0
 11
3593.001
 21
538.971
 31
0
 0
LINE
 8
TOOL_0
 5
83
 10
3593.001
 20
538.971
 30
0
 11
3596.537
 21
535.435
 31
0
 0
LINE
 8
TOOL_0
 5
84
 10
3596.537
 20
535.435
 30
0
 11
6152.206
 21
563.719
 31
0
 0
LINE
 8
TOOL_0
 5
85
 10
6152.206
 20
563.719
 30
0
 11
6127.457
 21
538.97
 31
0
 0
LINE
 8
TOOL_0
 5
86
 10
6127.457
 20
538.97
 30
0
 11
6124.838
 21
537.503
 31
0
 0
ARC
 8
TOOL_0
 5
87
 10
6094.876
 20
539.003
 30
0
 40
29.999524062892
 50
269.998090140685
 51
357.133970511115
210
0
220
0
230
1.0
 0
LINE
 8
TOOL_0
 5
88
 10
6094.875
 20
509.003
 30
0
 11
6044.075
 21
509.003
 31
0
 0
ARC
 8
TOOL_0
 5
89
 10
6044.075
 20
539.003
 30
0
 40
30.0
 50
180.0
 51
270.0
210
0
220
0
230
1.0
 0
LINE
 8
TOOL_0
 5
8A
 10
6014.075
 20
539.003
 30
0
 11
6014.075
 21
921.003
 31
0
 0
ARC
 8
TOOL_0
 5
8B
 10
6044.075
 20
921.003
 30
0
 40
30.0
 50
90.0
 51
180.0
210
0
220
0
230
1.0
 0
LINE
 8
TOOL_0
 5
8C
 10
6044.075
 20
951.003
 30
0
 11
6245.675
 21
951.003
 31
0
 0
ARC
 8
TOOL_0
 5
8D
 10
6245.675
 20
921.003
 30
0
 40
30.0
 50
0
 51
90.0
210
0
220
0
230
1.0
 0
LINE
 8
TOOL_0
 5
8E
 10
6275.675
 20
921.003
 30
0
 11
6275.675
 21
652.003
 31
0
 0
ARC
 8
TOOL_0
 5
8F
 10
6245.675
 20
652.003
 30
0
 40
30.0
 50
270.0
 51
0
210
0
220
0
230
1.0
 0
LINE
 8
TOOL_0
 5
90
 10
6245.675
 20
622.003
 30
0
 11
6154.875
 21
622.003
 31
0
 0
ARC
 8
TOOL_0
 5
91
 10
6154.875
 20
592.003
 30
0
 40
30.0
 50
90.0
 51
180.0
210
0
220
0
230
1.0
 0
LINE
 8
TOOL_0
 5
92
 10
6124.875
 20
592.003
 30
0
 11
6124.875
 21
540.503
 31
0
 0
LINE
 8
TOOL_0
 5
93
 10
6124.875
 20
540.503
 30
0
 11
6127.456
 21
538.971
 31
0
 0
LINE
 8
TOOL_0
 5
94
 10
6127.456
 20
538.971
 30
0
 11
6130.992
 21
535.435
 31
0
 0
LINE
 8
TOOL_0
 5
95
 10
6130.992
 20
535.435
 30
0
 11
3577.189
 21
275.946
 31
0
 0
LINE
 8
TOOL_0
 5
96
 10
3577.189
 20
275.946
 30
0
 11
3607.189
 21
275.946
 31
0
 0
LINE
 8
TOOL_0
 5
97
 10
3607.189
 20
275.946
 30
0
 11
3607.189
 21
321.591
 31
0
 0
ARC
 8
TOOL_0
 5
98
 10
3599.189
 20
321.591
 30
0
 40
8.0
 50
0
 51
180.0
210
0
220
0
230
1.0
 0
LINE
 8
TOOL_0
 5
99
 10
3591.189
 20
321.591
 30
0
 11
3591.189
 21
308.591
 31
0
 0
LINE
 8
TOOL_0
 5
9A
 10
3591.189
 20
308.591
 30
0
 11
3537.189
 21
308.591
 31
0
 0
LINE
 8
TOOL_0
 5
9B
 10
3537.189
 20
308.591
 30
0
 11
3537.189
 21
321.591
 31
0
 0
ARC
 8
TOOL_0
 5
9C
 10
3529.189
 20
321.591
 30
0
 40
8.0
 50
0
 51
180.0
210
0
220
0
230
1.0
 0
LINE
 8
TOOL_0
 5
9D
 10
3521.189
 20
321.591
 30
0
 11
3521.189
 21
256.591
 31
0
 0
ARC
 8
TOOL_0
 5
9E
 10
3536.189
 20
256.591
 30
0
 40
15.0
 50
180.0
 51
270.0
210
0
220
0
230
1.0
 0
LINE
 8
TOOL_0
 5
9F
 10
3536.189
 20
241.591
 30
0
 11
3592.189
 21
241.591
 31
0
 0
ARC
 8
TOOL_0
 5
A0
 10
3592.189
 20
256.591
 30
0
 40
15.0
 50
270.0
 51
0
210
0
220
0
230
1.0
 0
LINE
 8
TOOL_0
 5
A1
 10
3607.189
 20
256.591
 30
0
 11
3607.189
 21
275.946
 31
0
 0
LINE
 8
TOOL_0
 5
A2
 10
3607.189
 20
275.946
 30
0
 11
4019.189
 21
236.501
 31
0
 0
LINE
 8
TOOL_0
 5
A3
 10
4019.189
 20
236.501
 30
0
 11
4049.189
 21
236.501
 31
0
 0
ARC
 8
TOOL_0
 5
A4
 10
4014.189
 20
236.501
 30
0
 40
35.0
 50
0
 51
180.0
210
0
220
0
230
1.0
 0
ARC
 8
TOOL_0
 5
A5
 10
4014.189
 20
236.501
 30
0
 40
35.0
 50
180.0
 51
0
210
0
220
0
230
1.0
 0
LINE
 8
TOOL_0
 5
A6
 10
4049.189
 20
236.501
 30
0
 11
4324.189
 21
836.501
 31
0
 0
LINE
 8
TOOL_0
 5
A7
 10
4324.189
 20
836.501
 30
0
 11
4354.189
 21
836.501
 31
0
 0
ARC
 8
TOOL_0
 5
A8
 10
4319.189
 20
836.501
 30
0
 40
35.0
 50
0
 51
180.0
210
0
220
0
230
1.0
 0
ARC
 8
TOOL_0
 5
A9
 10
4319.189
 20
836.501
 30
0
 40
35.0
 50
180.0
 51
0
210
0
220
0
230
1.0
 0
LINE
 8
TOOL_0
 5
AA
 10
4354.189
 20
836.501
 30
0
 11
4874.189
 21
236.501
 31
0
 0
LINE
 8
TOOL_0
 5
AB
 10
4874.189
 20
236.501
 30
0
 11
4904.189
 21
236.501
 31
0
 0
ARC
 8
TOOL_0
 5
AC
 10
4869.189
 20
236.501
 30
0
 40
35.0
 50
0
 51
180.0
210
0
220
0
230
1.0
 0
ARC
 8
TOOL_0
 5
AD
 10
4869.189
 20
236.501
 30
0
 40
35.0
 50
180.0
 51
0
210
0
220
0
230
1.0
 0
LINE
 8
TOOL_0
 5
AE
 10
4904.189
 20
236.501
 30
0
 11
5424.189
 21
836.501
 31
0
 0
LINE
 8
TOOL_0
 5
AF
 10
5424.189
 20
836.501
 30
0
 11
5454.189
 21
836.501
 31
0
 0
ARC
 8
TOOL_0
 5
B0
 10
5419.189
 20
836.501
 30
0
 40
35.0
 50
0
 51
180.0
210
0
220
0
230
1.0
 0
ARC
 8
TOOL_0
 5
B1
 10
5419.189
 20
836.501
 30
0
 40
35.0
 50
180.0
 51
0
210
0
220
0
230
1.0
 0
LINE
 8
TOOL_0
 5
B2
 10
5454.189
 20
836.501
 30
0
 11
5729.189
 21
236.501
 31
0
 0
LINE
 8
TOOL_0
 5
B3
 10
5729.189
 20
236.501
 30
0
 11
5759.189
 21
236.501
 31
0
 0
ARC
 8
TOOL_0
 5
B4
 10
5724.189
 20
236.501
 30
0
 40
35.0
 50
0
 51
180.0
210
0
220
0
230
1.0
 0
ARC
 8
TOOL_0
 5
B5
 10
5724.189
 20
236.501
 30
0
 40
35.0
 50
180.0
 51
0
210
0
220
0
230
1.0
 0
LINE
 8
TOOL_0
 5
B6
 10
5759.189
 20
236.501
 30
0
 11
6187.189
 21
282.408
 31
0
 0
LINE
 8
TOOL_0
 5
B7
 10
6187.189
 20
282.408
 30
0
 11
6217.189
 21
282.408
 31
0
 0
LINE
 8
TOOL_0
 5
B8
 10
6217.189
 20
282.408
 30
0
 11
6217.189
 21
321.591
 31
0
 0
ARC
 8
TOOL_0
 5
B9
 10
6209.189
 20
321.591
 30
0
 40
8.0
 50
0
 51
180.0
210
0
220
0
230
1.0
 0
LINE
 8
TOOL_0
 5
BA
 10
6201.189
 20
321.591
 30
0
 11
6201.189
 21
308.591
 31
0
 0
LINE
 8
TOOL_0
 5
BB
 10
6201.189
 20
308.591
 30
0
 11
6147.189
 21
308.591
 31
0
 0
LINE
 8
TOOL_0
 5
BC
 10
6147.189
 20
308.591
 30
0
 11
6147.189
 21
321.591
 31
0
 0
ARC
 8
TOOL_0
 5
BD
 10
6139.189
 20
321.591
 30
0
 40
8.0
 50
0
 51
180.0
210
0
220
0
230
1.0
 0
LINE
 8
TOOL_0
 5
BE
 10
6131.189
 20
321.591
 30
0
 11
6131.189
 21
256.591
 31
0
 0
ARC
 8
TOOL_0
 5
BF
 10
6146.189
 20
256.591
 30
0
 40
15.0
 50
180.0
 51
270.0
210
0
220
0
230
1.0
 0
LINE
 8
TOOL_0
 5
C0
 10
6146.189
 20
241.591
 30
0
 11
6202.189
 21
241.591
 31
0
 0
ARC
 8
TOOL_0
 5
C1
 10
6202.189
 20
256.591
 30
0
 40
15.0
 50
270.0
 51
0
210
0
220
0
230
1.0
 0
LINE
 8
TOOL_0
 5
C2
 10
6217.189
 20
256.591
 30
0
 11
6217.189
 21
282.408
 31
0
 0
LINE
 8
TOOL_0
 5
C3
 10
6217.189
 20
282.408
 30
0
 11
6452.102
 21
9.809
 31
0
 0
LINE
 8
TOOL_0
 5
C4
 10
6452.102
 20
9.809
 30
0
 11
6406.939
 21
7.751
 31
0
 0
LINE
 8
TOOL_0
 5
C5
 10
6406.939
 20
7.751
 30
0
 11
3331.439
 21
7.751
 31
0
 0
LINE
 8
TOOL_0
 5
C6
 10
3331.439
 20
7.751
 30
0
 11
3331.439
 21
110.501
 31
0
 0
LINE
 8
TOOL_0
 5
C7
 10
3331.439
 20
110.501
 30
0
 11
3337.439
 21
110.501
 31
0
 0
LINE
 8
TOOL_0
 5
C8
 10
3337.439
 20
110.501
 30
0
 11
3337.439
 21
188.501
 31
0
 0
ARC
 8
TOOL_0
 5
C9
 10
3312.439
 20
188.501
 30
0
 40
25.0
 50
0
 51
90.0
210
0
220
0
230
1.0
 0
LINE
 8
TOOL_0
 5
CA
 10
3312.439
 20
213.501
 30
0
 11
3259.939
 21
213.501
 31
0
 0
LINE
 8
TOOL_0
 5
CB
 10
3259.939
 20
213.501
 30
0
 11
3259.939
 21
988.251
 31
0
 0
LINE
 8
TOOL_0
 5
CC
 10
3259.939
 20
988.251
 30
0
 11
3343.442
 21
988.251
 31
0
 0
LINE
 8
TOOL_0
 5
CD
 10
3343.442
 20
988.251
 30
0
 11
3415.283
 21
489.802
 31
0
 0
ARC
 8
TOOL_0
 5
CE
 10
3489.516
 20
500.501
 30
0
 40
75.000045933319
 50
188.201407381131
 51
270.0
210
0
220
0
230
1.0
 0
LINE
 8
TOOL_0
 5
CF
 10
3489.516
 20
425.501
 30
0
 11
3680.056
 21
425.501
 31
0
 0
ARC
 8
TOOL_0
 5
D0
 10
3680.056
 20
500.501
 30
0
 40
75.0
 50
270.0
 51
319.999877753997
210
0
220
0
230
1.0
 0
LINE
 8
TOOL_0
 5
D1
 10
3737.509
 20
452.292
 30
0
 11
4127.913
 21
917.557
 31
0
 0
LINE
 8
TOOL_0
 5
D2
 10
4127.913
 20
917.557
 30
0
 11
4123.317
 21
921.414
 31
0
 0
LINE
 8
TOOL_0
 5
D3
 10
4123.317
 20
921.414
 30
0
 11
3868.44
 21
617.664
 31
0
 0
LINE
 8
TOOL_0
 5
D4
 10
3868.44
 20
617.664
 30
0
 11
3868.44
 21
988.252
 31
0
 0
LINE
 8
TOOL_0
 5
D5
 10
3868.44
 20
988.252
 30
0
 11
5869.94
 21
988.252
 31
0
 0
LINE
 8
TOOL_0
 5
D6
 10
5869.94
 20
988.252
 30
0
 11
5869.94
 21
617.664
 31
0
 0
LINE
 8
TOOL_0
 5
D7
 10
5869.94
 20
617.664
 30
0
 11
5615.063
 21
921.414
 31
0
 0
LINE
 8
TOOL_0
 5
D8
 10
5615.063
 20
921.414
 30
0
 11
5610.467
 21
917.557
 31
0
 0
LINE
 8
TOOL_0
 5
D9
 10
5610.467
 20
917.557
 30
0
 11
6000.871
 21
452.292
 31
0
 0
ARC
 8
TOOL_0
 5
DA
 10
6058.324
 20
500.501
 30
0
 40
74.999699266064
 50
220.000122246003
 51
270.0
210
0
220
0
230
1.0
 0
LINE
 8
TOOL_0
 5
DB
 10
6058.324
 20
425.501
 30
0
 11
6248.864
 21
425.501
 31
0
 0
ARC
 8
TOOL_0
 5
DC
 10
6248.864
 20
500.501
 30
0
 40
75.0
 50
270.0
 51
351.798592618869
210
0
220
0
230
1.0
 0
LINE
 8
TOOL_0
 5
DD
 10
6323.097
 20
489.802
 30
0
 11
6394.938
 21
988.251
 31
0
 0
LINE
 8
TOOL_0
 5
DE
 10
6394.938
 20
988.251
 30
0
 11
6478.441
 21
988.251
 31
0
 0
LINE
 8
TOOL_0
 5
DF
 10
6478.441
 20
988.251
 30
0
 11
6478.441
 21
213.501
 31
0
 0
LINE
 8
TOOL_0
 5
E0
 10
6478.441
 20
213.501
 30
0
 11
6425.941
 21
213.501
 31
0
 0
ARC
 8
TOOL_0
 5
E1
 10
6425.941
 20
188.501
 30
0
 40
25.0
 50
90.0
 51
180.0
210
0
220
0
230
1.0
 0
LINE
 8
TOOL_0
 5
E2
 10
6400.941
 20
188.501
 30
0
 11
6400.941
 21
110.501
 31
0
 0
LINE
 8
TOOL_0
 5
E3
 10
6400.941
 20
110.501
 30
0
 11
6406.941
 21
110.501
 31
0
 0
LINE
 8
TOOL_0
 5
E4
 10
6406.941
 20
110.501
 30
0
 11
6406.941
 21
7.751
 31
0
 0
LINE
 8
TOOL_0
 5
E5
 10
6406.941
 20
7.751
 30
0
 11
6407.929
 21
4.048
 31
0
 0
LINE
 8
TOOL_0
 5
E6
 10
6407.929
 20
4.048
 30
0
 11
6877.405
 21
563.719
 31
0
 0
LINE
 8
TOOL_0
 5
E7
 10
6877.405
 20
563.719
 30
0
 11
6852.656
 21
538.97
 31
0
 0
LINE
 8
TOOL_0
 5
E8
 10
6852.656
 20
538.97
 30
0
 11
6850.037
 21
537.503
 31
0
 0
ARC
 8
TOOL_0
 5
E9
 10
6820.075
 20
539.003
 30
0
 40
29.999524062892
 50
269.998090140685
 51
357.133970511115
210
0
220
0
230
1.0
 0
LINE
 8
TOOL_0
 5
EA
 10
6820.074
 20
509.003
 30
0
 11
6769.274
 21
509.003
 31
0
 0
ARC
 8
TOOL_0
 5
EB
 10
6769.274
 20
539.003
 30
0
 40
30.0
 50
180.0
 51
270.0
210
0
220
0
230
1.0
 0
LINE
 8
TOOL_0
 5
EC
 10
6739.274
 20
539.003
 30
0
 11
6739.274
 21
921.003
 31
0
 0
ARC
 8
TOOL_0
 5
ED
 10
6769.274
 20
921.003
 30
0
 40
30.0
 50
90.0
 51
180.0
210
0
220
0
230
1.0
 0
LINE
 8
TOOL_0
 5
EE
 10
6769.274
 20
951.003
 30
0
 11
6970.874
 21
951.003
 31
0
 0
ARC
 8
TOOL_0
 5
EF
 10
6970.874
 20
921.003
 30
0
 40
30.0
 50
0
 51
90.0
210
0
220
0
230
1.0
 0
LINE
 8
TOOL_0
 5
F0
 10
7000.874
 20
921.003
 30
0
 11
7000.874
 21
652.003
 31
0
 0
ARC
 8
TOOL_0
 5
F1
 10
6970.874
 20
652.003
 30
0
 40
30.0
 50
270.0
 51
0
210
0
220
0
230
1.0
 0
LINE
 8
TOOL_0
 5
F2
 10
6970.874
 20
622.003
 30
0
 11
6880.074
 21
622.003
 31
0
 0
ARC
 8
TOOL_0
 5
F3
 10
6880.074
 20
592.003
 30
0
 40
30.0
 50
90.0
 51
180.0
210
0
220
0
230
1.0
 0
LINE
 8
TOOL_0
 5
F4
 10
6850.074
 20
592.003
 30
0
 11
6850.074
 21
540.503
 31
0
 0
LINE
 8
TOOL_0
 5
F5
 10
6850.074
 20
540.503
 30
0
 11
6852.655
 21
538.971
 31
0
 0
LINE
 8
TOOL_0
 5
F6
 10
6852.655
 20
538.971
 30
0
 11
6856.191
 21
535.435
 31
0
 0
LINE
 8
TOOL_0
 5
F7
 10
6856.191
 20
535.435
 30
0
 11
9389.43
 21
563.719
 31
0
 0
LINE
 8
TOOL_0
 5
F8
 10
9389.43
 20
563.719
 30
0
 11
9364.682
 21
538.97
 31
0
 0
LINE
 8
TOOL_0
 5
F9
 10
9364.682
 20
538.97
 30
0
 11
9362.063
 21
537.503
 31
0
 0
ARC
 8
TOOL_0
 5
FA
 10
9332.101
 20
539.003
 30
0
 40
29.999524062891
 50
269.998090140683
 51
357.133970511115
210
0
220
0
230
1.0
 0
LINE
 8
TOOL_0
 5
FB
 10
9332.1
 20
509.003
 30
0
 11
9281.3
 21
509.003
 31
0
 0
ARC
 8
TOOL_0
 5
FC
 10
9281.3
 20
539.003
 30
0
 40
30.0
 50
180.0
 51
270.0
210
0
220
0
230
1.0
 0
LINE
 8
TOOL_0
 5
FD
 10
9251.3
 20
539.003
 30
0
 11
9251.3
 21
921.003
 31
0
 0
ARC
 8
TOOL_0
 5
FE
 10
9281.3
 20
921.003
 30
0
 40
30.0
 50
90.0
 51
180.0
210
0
220
0
230
1.0
 0
LINE
 8
TOOL_0
 5
FF
 10
9281.3
 20
951.003
 30
0
 11
9482.9
 21
951.003
 31
0
 0
ARC
 8
TOOL_0
 5
100
 10
9482.9
 20
921.003
 30
0
 40
30.0
 50
0
 51
90.0
210
0
220
0
230
1.0
 0
LINE
 8
TOOL_0
 5
101
 10
9512.9
 20
921.003
 30
0
 11
9512.9
 21
652.003
 31
0
 0
ARC
 8
TOOL_0
 5
102
 10
9482.9
 20
652.003
 30
0
 40
30.0
 50
270.0
 51
0
210
0
220
0
230
1.0
 0
LINE
 8
TOOL_0
 5
103
 10
9482.9
 20
622.003
 30
0
 11
9392.1
 21
622.003
 31
0
 0
ARC
 8
TOOL_0
 5
104
 10
9392.1
 20
592.003
 30
0
 40
30.0
 50
90.0
 51
180.0
210
0
220
0
230
1.0
 0
LINE
 8
TOOL_0
 5
105
 10
9362.1
 20
592.003
 30
0
 11
9362.1
 21
540.503
 31
0
 0
LINE
 8
TOOL_0
 5
106
 10
9362.1
 20
540.503
 30
0
 11
9364.681
 21
538.971
 31
0
 0
LINE
 8
TOOL_0
 5
107
 10
9364.681
 20
538.971
 30
0
 11
9368.217
 21
535.435
 31
0
 0
LINE
 8
TOOL_0
 5
108
 10
9368.217
 20
535.435
 30
0
 11
6826.818
 21
274.728
 31
0
 0
LINE
 8
TOOL_0
 5
109
 10
6826.818
 20
274.728
 30
0
 11
6856.818
 21
274.728
 31
0
 0
LINE
 8
TOOL_0
 5
10A
 10
6856.818
 20
274.728
 30
0
 11
6856.818
 21
321.591
 31
0
 0
ARC
 8
TOOL_0
 5
10B
 10
6848.818
 20
321.591
 30
0
 40
8.0
 50
0
 51
180.0
210
0
220
0
230
1.0
 0
LINE
 8
TOOL_0
 5
10C
 10
6840.818
 20
321.591
 30
0
 11
6840.818
 21
308.591
 31
0
 0
LINE
 8
TOOL_0
 5
10D
 10
6840.818
 20
308.591
 30
0
 11
6786.818
 21
308.591
 31
0
 0
LINE
 8
TOOL_0
 5
10E
 10
6786.818
 20
308.591
 30
0
 11
6786.818
 21
321.591
 31
0
 0
ARC
 8
TOOL_0
 5
10F
 10
6778.818
 20
321.591
 30
0
 40
8.0
 50
0
 51
180.0
210
0
220
0
230
1.0
 0
LINE
 8
TOOL_0
 5
110
 10
6770.818
 20
321.591
 30
0
 11
6770.818
 21
256.591
 31
0
 0
ARC
 8
TOOL_0
 5
111
 10
6785.818
 20
256.591
 30
0
 40
15.0
 50
180.0
 51
270.0
210
0
220
0
230
1.0
 0
LINE
 8
TOOL_0
 5
112
 10
6785.818
 20
241.591
 30
0
 11
6841.818
 21
241.591
 31
0
 0
ARC
 8
TOOL_0
 5
113
 10
6841.818
 20
256.591
 30
0
 40
15.0
 50
270.0
 51
0
210
0
220
0
230
1.0
 0
LINE
 8
TOOL_0
 5
114
 10
6856.818
 20
256.591
 30
0
 11
6856.818
 21
274.728
 31
0
 0
LINE
 8
TOOL_0
 5
115
 10
6856.818
 20
274.728
 30
0
 11
7268.818
 21
236.501
 31
0
 0
LINE
 8
TOOL_0
 5
116
 10
7268.818
 20
236.501
 30
0
 11
7298.818
 21
236.501
 31
0
 0
ARC
 8
TOOL_0
 5
117
 10
7263.818
 20
236.501
 30
0
 40
35.0
 50
0
 51
180.0
210
0
220
0
230
1.0
 0
ARC
 8
TOOL_0
 5
118
 10
7263.818
 20
236.501
 30
0
 40
35.0
 50
180.0
 51
0
210
0
220
0
230
1.0
 0
LINE
 8
TOOL_0
 5
119
 10
7298.818
 20
236.501
 30
0
 11
7573.818
 21
836.501
 31
0
 0
LINE
 8
TOOL_0
 5
11A
 10
7573.818
 20
836.501
 30
0
 11
7603.818
 21
836.501
 31
0
 0
ARC
 8
TOOL_0
 5
11B
 10
7568.818
 20
836.501
 30
0
 40
35.0
 50
0
 51
180.0
210
0
220
0
230
1.0
 0
ARC
 8
TOOL_0
 5
11C
 10
7568.818
 20
836.501
 30
0
 40
35.0
 50
180.0
 51
0
210
0
220
0
230
1.0
 0
LINE
 8
TOOL_0
 5
11D
 10
7603.818
 20
836.501
 30
0
 11
8123.818
 21
236.501
 31
0
 0
LINE
 8
TOOL_0
 5
11E
 10
8123.818
 20
236.501
 30
0
 11
8153.818
 21
236.501
 31
0
 0
ARC
 8
TOOL_0
 5
11F
 10
8118.818
 20
236.501
 30
0
 40
35.0
 50
0
 51
180.0
210
0
220
0
230
1.0
 0
ARC
 8
TOOL_0
 5
120
 10
8118.818
 20
236.501
 30
0
 40
35.0
 50
180.0
 51
0
210
0
220
0
230
1.0
 0
LINE
 8
TOOL_0
 5
121
 10
8153.818
 20
236.501
 30
0
 11
8673.818
 21
836.501
 31
0
 0
LINE
 8
TOOL_0
 5
122
 10
8673.818
 20
836.501
 30
0
 11
8703.818
 21
836.501
 31
0
 0
ARC
 8
TOOL_0
 5
123
 10
8668.818
 20
836.501
 30
0
 40
35.0
 50
0
 51
180.0
210
0
220
0
230
1.0
 0
ARC
 8
TOOL_0
 5
124
 10
8668.818
 20
836.501
 30
0
 40
35.0
 50
180.0
 51
0
210
0
220
0
230
1.0
 0
LINE
 8
TOOL_0
 5
125
 10
8703.818
 20
836.501
 30
0
 11
8978.818
 21
236.501
 31
0
 0
LINE
 8
TOOL_0
 5
126
 10
8978.818
 20
236.501
 30
0
 11
9008.818
 21
236.501
 31
0
 0
ARC
 8
TOOL_0
 5
127
 10
8973.818
 20
236.501
 30
0
 40
35.0
 50
0
 51
180.0
210
0
220
0
230
1.0
 0
ARC
 8
TOOL_0
 5
128
 10
8973.818
 20
236.501
 30
0
 40
35.0
 50
180.0
 51
0
210
0
220
0
230
1.0
 0
LINE
 8
TOOL_0
 5
129
 10
9008.818
 20
236.501
 30
0
 11
9436.818
 21
275.738
 31
0
 0
LINE
 8
TOOL_0
 5
12A
 10
9436.818
 20
275.738
 30
0
 11
9466.818
 21
275.738
 31
0
 0
LINE
 8
TOOL_0
 5
12B
 10
9466.818
 20
275.738
 30
0
 11
9466.818
 21
321.591
 31
0
 0
ARC
 8
TOOL_0
 5
12C
 10
9458.818
 20
321.591
 30
0
 40
8.0
 50
0
 51
180.0
210
0
220
0
230
1.0
 0
LINE
 8
TOOL_0
 5
12D
 10
9450.818
 20
321.591
 30
0
 11
9450.818
 21
308.591
 31
0
 0
LINE
 8
TOOL_0
 5
12E
 10
9450.818
 20
308.591
 30
0
 11
9396.818
 21
308.591
 31
0
 0
LINE
 8
TOOL_0
 5
12F
 10
9396.818
 20
308.591
 30
0
 11
9396.818
 21
321.591
 31
0
 0
ARC
 8
TOOL_0
 5
130
 10
9388.818
 20
321.591
 30
0
 40
8.0
 50
0
 51
180.0
210
0
220
0
230
1.0
 0
LINE
 8
TOOL_0
 5
131
 10
9380.818
 20
321.591
 30
0
 11
9380.818
 21
256.591
 31
0
 0
ARC
 8
TOOL_0
 5
132
 10
9395.818
 20
256.591
 30
0
 40
15.0
 50
180.0
 51
270.0
210
0
220
0
230
1.0
 0
LINE
 8
TOOL_0
 5
133
 10
9395.818
 20
241.591
 30
0
 11
9451.818
 21
241.591
 31
0
 0
ARC
 8
TOOL_0
 5
134
 10
9451.818
 20
256.591
 30
0
 40
15.0
 50
270.0
 51
0
210
0
220
0
230
1.0
 0
LINE
 8
TOOL_0
 5
135
 10
9466.818
 20
256.591
 30
0
 11
9466.818
 21
275.738
 31
0
 0
LINE
 8
TOOL_0
 5
136
 10
9466.818
 20
275.738
 30
0
 11
9697.092
 21
10.217
 31
0
 0
LINE
 8
TOOL_0
 5
137
 10
9697.092
 20
10.217
 30
0
 11
9656.568
 21
7.751
 31
0
 0
LINE
 8
TOOL_0
 5
138
 10
9656.568
 20
7.751
 30
0
 11
6581.068
 21
7.751
 31
0
 0
LINE
 8
TOOL_0
 5
139
 10
6581.068
 20
7.751
 30
0
 11
6581.068
 21
110.501
 31
0
 0
LINE
 8
TOOL_0
 5
13A
 10
6581.068
 20
110.501
 30
0
 11
6587.068
 21
110.501
 31
0
 0
LINE
 8
TOOL_0
 5
13B
 10
6587.068
 20
110.501
 30
0
 11
6587.068
 21
188.501
 31
0
 0
ARC
 8
TOOL_0
 5
13C
 10
6562.068
 20
188.501
 30
0
 40
25.0
 50
0
 51
90.0
210
0
220
0
230
1.0
 0
LINE
 8
TOOL_0
 5
13D
 10
6562.068
 20
213.501
 30
0
 11
6509.568
 21
213.501
 31
0
 0
LINE
 8
TOOL_0
 5
13E
 10
6509.568
 20
213.501
 30
0
 11
6509.568
 21
988.251
 31
0
 0
LINE
 8
TOOL_0
 5
13F
 10
6509.568
 20
988.251
 30
0
 11
6593.071
 21
988.251
 31
0
 0
LINE
 8
TOOL_0
 5
140
 10
6593.071
 20
988.251
 30
0
 11
6664.912
 21
489.802
 31
0
 0
ARC
 8
TOOL_0
 5
141
 10
6739.145
 20
500.501
 30
0
 40
75.000045933319
 50
188.201407381131
 51
270.0
210
0
220
0
230
1.0
 0
LINE
 8
TOOL_0
 5
142
 10
6739.145
 20
425.501
 30
0
 11
6929.685
 21
425.501
 31
0
 0
ARC
 8
TOOL_0
 5
143
 10
6929.685
 20
500.501
 30
0
 40
75.0
 50
270.0
 51
319.999877753997
210
0
220
0
230
1.0
 0
LINE
 8
TOOL_0
 5
144
 10
6987.138
 20
452.292
 30
0
 11
7377.542
 21
917.557
 31
0
 0
LINE
 8
TOOL_0
 5
145
 10
7377.542
 20
917.557
 30
0
 11
7372.946
 21
921.414
 31
0
 0
LINE
 8
TOOL_0
 5
146
 10
7372.946
 20
921.414
 30
0
 11
7118.069
 21
617.664
 31
0
 0
LINE
 8
TOOL_0
 5
147
 10
7118.069
 20
617.664
 30
0
 11
7118.069
 21
988.252
 31
0
 0
LINE
 8
TOOL_0
 5
148
 10
7118.069
 20
988.252
 30
0
 11
9119.569
 21
988.252
 31
0
 0
LINE
 8
TOOL_0
 5
149
 10
9119.569
 20
988.252
 30
0
 11
9119.569
 21
617.664
 31
0
 0
LINE
 8
TOOL_0
 5
14A
 10
9119.569
 20
617.664
 30
0
 11
8864.692
 21
921.414
 31
0
 0
LINE
 8
TOOL_0
 5
14B
 10
8864.692
 20
921.414
 30
0
 11
8860.096
 21
917.557
 31
0
 0
LINE
 8
TOOL_0
 5
14C
 10
8860.096
 20
917.557
 30
0
 11
9250.5
 21
452.292
 31
0
 0
ARC
 8
TOOL_0
 5
14D
 10
9307.953
 20
500.501
 30
0
 40
74.999699266063
 50
220.000122246003
 51
270.0
210
0
220
0
230
1.0
 0
LINE
 8
TOOL_0
 5
14E
 10
9307.953
 20
425.501
 30
0
 11
9498.493
 21
425.501
 31
0
 0
ARC
 8
TOOL_0
 5
14F
 10
9498.493
 20
500.501
 30
0
 40
75.0
 50
270.0
 51
351.798592618869
210
0
220
0
230
1.0
 0
LINE
 8
TOOL_0
 5
150
 10
9572.726
 20
489.802
 30
0
 11
9644.567
 21
988.251
 31
0
 0
LINE
 8
TOOL_0
 5
151
 10
9644.567
 20
988.251
 30
0
 11
9728.07
 21
988.251
 31
0
 0
LINE
 8
TOOL_0
 5
152
 10
9728.07
 20
988.251
 30
0
 11
9728.07
 21
213.501
 31
0
 0
LINE
 8
TOOL_0
 5
153
 10
9728.07
 20
213.501
 30
0
 11
9675.57
 21
213.501
 31
0
 0
ARC
 8
TOOL_0
 5
154
 10
9675.57
 20
188.501
 30
0
 40
25.0
 50
90.0
 51
180.0
210
0
220
0
230
1.0
 0
LINE
 8
TOOL_0
 5
155
 10
9650.57
 20
188.501
 30
0
 11
9650.57
 21
110.501
 31
0
 0
LINE
 8
TOOL_0
 5
156
 10
9650.57
 20
110.501
 30
0
 11
9656.57
 21
110.501
 31
0
 0
LINE
 8
TOOL_0
 5
157
 10
9656.57
 20
110.501
 30
0
 11
9656.57
 21
7.751
 31
0
 0
LINE
 8
TOOL_0
 5
158
 10
9656.57
 20
7.751
 30
0
 11
9656.754
 21
3.992
 31
0
 0
LINE
 8
TOOL_0
 5
159
 10
9656.754
 20
3.992
 30
0
 11
10107.154
 21
563.719
 31
0
 0
LINE
 8
TOOL_0
 5
15A
 10
10107.154
 20
563.719
 30
0
 11
10082.405
 21
538.97
 31
0
 0
LINE
 8
TOOL_0
 5
15B
 10
10082.405
 20
538.97
 30
0
 11
10079.786
 21
537.503
 31
0
 0
ARC
 8
TOOL_0
 5
15C
 10
10049.824
 20
539.003
 30
0
 40
29.999524062891
 50
269.998090140683
 51
357.133970511115
210
0
220
0
230
1.0
 0
LINE
 8
TOOL_0
 5
15D
 10
10049.823
 20
509.003
 30
0
 11
9999.023
 21
509.003
 31
0
 0
ARC
 8
TOOL_0
 5
15E
 10
9999.023
 20
539.003
 30
0
 40
30.0
 50
180.0
 51
270.0
210
0
220
0
230
1.0
 0
LINE
 8
TOOL_0
 5
15F
 10
9969.023
 20
539.003
 30
0
 11
9969.023
 21
921.003
 31
0
 0
ARC
 8
TOOL_0
 5
160
 10
9999.023
 20
921.003
 30
0
 40
30.0
 50
90.0
 51
180.0
210
0
220
0
230
1.0
 0
LINE
 8
TOOL_0
 5
161
 10
9999.023
 20
951.003
 30
0
 11
10200.623
 21
951.003
 31
0
 0
ARC
 8
TOOL_0
 5
162
 10
10200.623
 20
921.003
 30
0
 40
30.0
 50
0
 51
90.0
210
0
220
0
230
1.0
 0
LINE
 8
TOOL_0
 5
163
 10
10230.623
 20
921.003
 30
0
 11
10230.623
 21
652.003
 31
0
 0
ARC
 8
TOOL_0
 5
164
 10
10200.623
 20
652.003
 30
0
 40
30.0
 50
270.0
 51
0
210
0
220
0
230
1.0
 0
LINE
 8
TOOL_0
 5
165
 10
10200.623
 20
622.003
 30
0
 11
10109.823
 21
622.003
 31
0
 0
ARC
 8
TOOL_0
 5
166
 10
10109.823
 20
592.003
 30
0
 40
30.0
 50
90.0
 51
180.0
210
0
220
0
230
1.0
 0
LINE
 8
TOOL_0
 5
167
 10
10079.823
 20
592.003
 30
0
 11
10079.823
 21
540.503
 31
0
 0
LINE
 8
TOOL_0
 5
168
 10
10079.823
 20
540.503
 30
0
 11
10082.404
 21
538.971
 31
0
 0
LINE
 8
TOOL_0
 5
169
 10
10082.404
 20
538.971
 30
0
 11
10085.94
 21
535.435
 31
0
 0
LINE
 8
TOOL_0
 5
16A
 10
10085.94
 20
535.435
 30
0
 11
12626.656
 21
578.719
 31
0
 0
LINE
 8
TOOL_0
 5
16B
 10
12626.656
 20
578.719
 30
0
 11
12601.907
 21
553.97
 31
0
 0
LINE
 8
TOOL_0
 5
16C
 10
12601.907
 20
553.97
 30
0
 11
12599.288
 21
552.503
 31
0
 0
ARC
 8
TOOL_0
 5
16D
 10
12569.326
 20
554.003
 30
0
 40
29.999524062891
 50
269.998090140683
 51
357.133970511115
210
0
220
0
230
1.0
 0
LINE
 8
TOOL_0
 5
16E
 10
12569.325
 20
524.003
 30
0
 11
12518.525
 21
524.003
 31
0
 0
ARC
 8
TOOL_0
 5
16F
 10
12518.525
 20
554.003
 30
0
 40
30.0
 50
180.0
 51
270.0
210
0
220
0
230
1.0
 0
LINE
 8
TOOL_0
 5
170
 10
12488.525
 20
554.003
 30
0
 11
12488.525
 21
936.003
 31
0
 0
ARC
 8
TOOL_0
 5
171
 10
12518.525
 20
936.003
 30
0
 40
30.0
 50
90.0
 51
180.0
210
0
220
0
230
1.0
 0
LINE
 8
TOOL_0
 5
172
 10
12518.525
 20
966.003
 30
0
 11
12720.125
 21
966.003
 31
0
 0
ARC
 8
TOOL_0
 5
173
 10
12720.125
 20
936.003
 30
0
 40
30.0
 50
0
 51
90.0
210
0
220
0
230
1.0
 0
LINE
 8
TOOL_0
 5
174
 10
12750.125
 20
936.003
 30
0
 11
12750.125
 21
667.003
 31
0
 0
ARC
 8
TOOL_0
 5
175
 10
12720.125
 20
667.003
 30
0
 40
30.0
 50
270.0
 51
0
210
0
220
0
230
1.0
 0
LINE
 8
TOOL_0
 5
176
 10
12720.125
 20
637.003
 30
0
 11
12629.325
 21
637.003
 31
0
 0
ARC
 8
TOOL_0
 5
177
 10
12629.325
 20
607.003
 30
0
 40
30.0
 50
90.0
 51
180.0
210
0
220
0
230
1.0
 0
LINE
 8
TOOL_0
 5
178
 10
12599.325
 20
607.003
 30
0
 11
12599.325
 21
555.503
 31
0
 0
LINE
 8
TOOL_0
 5
179
 10
12599.325
 20
555.503
 30
0
 11
12601.906
 21
553.971
 31
0
 0
LINE
 8
TOOL_0
 5
17A
 10
12601.906
 20
553.971
 30
0
 11
12605.442
 21
550.435
 31
0
 0
LINE
 8
TOOL_0
 5
17B
 10
12605.442
 20
550.435
 30
0
 11
10072.708
 21
279.22
 31
0
 0
LINE
 8
TOOL_0
 5
17C
 10
10072.708
 20
279.22
 30
0
 11
10102.708
 21
279.22
 31
0
 0
LINE
 8
TOOL_0
 5
17D
 10
10102.708
 20
279.22
 30
0
 11
10102.708
 21
321.592
 31
0
 0
ARC
 8
TOOL_0
 5
17E
 10
10094.708
 20
321.592
 30
0
 40
8.0
 50
0
 51
180.0
210
0
220
0
230
1.0
 0
LINE
 8
TOOL_0
 5
17F
 10
10086.708
 20
321.592
 30
0
 11
10086.708
 21
308.592
 31
0
 0
LINE
 8
TOOL_0
 5
180
 10
10086.708
 20
308.592
 30
0
 11
10032.708
 21
308.592
 31
0
 0
LINE
 8
TOOL_0
 5
181
 10
10032.708
 20
308.592
 30
0
 11
10032.708
 21
321.592
 31
0
 0
ARC
 8
TOOL_0
 5
182
 10
10024.708
 20
321.592
 30
0
 40
8.0
 50
0
 51
180.0
210
0
220
0
230
1.0
 0
LINE
 8
TOOL_0
 5
183
 10
10016.708
 20
321.592
 30
0
 11
10016.708
 21
256.592
 31
0
 0
ARC
 8
TOOL_0
 5
184
 10
10031.708
 20
256.592
 30
0
 40
15.0
 50
180.0
 51
270.0
210
0
220
0
230
1.0
 0
LINE
 8
TOOL_0
 5
185
 10
10031.708
 20
241.592
 30
0
 11
10087.708
 21
241.592
 31
0
 0
ARC
 8
TOOL_0
 5
186
 10
10087.708
 20
256.592
 30
0
 40
15.0
 50
270.0
 51
0
210
0
220
0
230
1.0
 0
LINE
 8
TOOL_0
 5
187
 10
10102.708
 20
256.592
 30
0
 11
10102.708
 21
279.22
 31
0
 0
LINE
 8
TOOL_0
 5
188
 10
10102.708
 20
279.22
 30
0
 11
10514.708
 21
236.502
 31
0
 0
LINE
 8
TOOL_0
 5
189
 10
10514.708
 20
236.502
 30
0
 11
10544.708
 21
236.502
 31
0
 0
ARC
 8
TOOL_0
 5
18A
 10
10509.708
 20
236.502
 30
0
 40
35.0
 50
0
 51
180.0
210
0
220
0
230
1.0
 0
ARC
 8
TOOL_0
 5
18B
 10
10509.708
 20
236.502
 30
0
 40
35.0
 50
180.0
 51
0
210
0
220
0
230
1.0
 0
LINE
 8
TOOL_0
 5
18C
 10
10544.708
 20
236.502
 30
0
 11
10819.708
 21
836.502
 31
0
 0
LINE
 8
TOOL_0
 5
18D
 10
10819.708
 20
836.502
 30
0
 11
10849.708
 21
836.502
 31
0
 0
ARC
 8
TOOL_0
 5
18E
 10
10814.708
 20
836.502
 30
0
 40
35.0
 50
0
 51
180.0
210
0
220
0
230
1.0
 0
ARC
 8
TOOL_0
 5
18F
 10
10814.708
 20
836.502
 30
0
 40
35.0
 50
180.0
 51
0
210
0
220
0
230
1.0
 0
LINE
 8
TOOL_0
 5
190
 10
10849.708
 20
836.502
 30
0
 11
11369.708
 21
236.502
 31
0
 0
LINE
 8
TOOL_0
 5
191
 10
11369.708
 20
236.502
 30
0
 11
11399.708
 21
236.502
 31
0
 0
ARC
 8
TOOL_0
 5
192
 10
11364.708
 20
236.502
 30
0
 40
35.0
 50
0
 51
180.0
210
0
220
0
230
1.0
 0
ARC
 8
TOOL_0
 5
193
 10
11364.708
 20
236.502
 30
0
 40
35.0
 50
180.0
 51
0
210
0
220
0
230
1.0
 0
LINE
 8
TOOL_0
 5
194
 10
11399.708
 20
236.502
 30
0
 11
11919.708
 21
836.502
 31
0
 0
LINE
 8
TOOL_0
 5
195
 10
11919.708
 20
836.502
 30
0
 11
11949.708
 21
836.502
 31
0
 0
ARC
 8
TOOL_0
 5
196
 10
11914.708
 20
836.502
 30
0
 40
35.0
 50
0
 51
180.0
210
0
220
0
230
1.0
 0
ARC
 8
TOOL_0
 5
197
 10
11914.708
 20
836.502
 30
0
 40
35.0
 50
180.0
 51
0
210
0
220
0
230
1.0
 0
LINE
 8
TOOL_0
 5
198
 10
11949.708
 20
836.502
 30
0
 11
12224.708
 21
236.502
 31
0
 0
LINE
 8
TOOL_0
 5
199
 10
12224.708
 20
236.502
 30
0
 11
12254.708
 21
236.502
 31
0
 0
ARC
 8
TOOL_0
 5
19A
 10
12219.708
 20
236.502
 30
0
 40
35.0
 50
0
 51
180.0
210
0
220
0
230
1.0
 0
ARC
 8
TOOL_0
 5
19B
 10
12219.708
 20
236.502
 30
0
 40
35.0
 50
180.0
 51
0
210
0
220
0
230
1.0
 0
LINE
 8
TOOL_0
 5
19C
 10
12254.708
 20
236.502
 30
0
 11
12682.708
 21
280.942
 31
0
 0
LINE
 8
TOOL_0
 5
19D
 10
12682.708
 20
280.942
 30
0
 11
12712.708
 21
280.942
 31
0
 0
LINE
 8
TOOL_0
 5
19E
 10
12712.708
 20
280.942
 30
0
 11
12712.708
 21
321.592
 31
0
 0
ARC
 8
TOOL_0
 5
19F
 10
12704.708
 20
321.592
 30
0
 40
8.0
 50
0
 51
180.0
210
0
220
0
230
1.0
 0
LINE
 8
TOOL_0
 5
1A0
 10
12696.708
 20
321.592
 30
0
 11
12696.708
 21
308.592
 31
0
 0
LINE
 8
TOOL_0
 5
1A1
 10
12696.708
 20
308.592
 30
0
 11
12642.708
 21
308.592
 31
0
 0
LINE
 8
TOOL_0
 5
1A2
 10
12642.708
 20
308.592
 30
0
 11
12642.708
 21
321.592
 31
0
 0
ARC
 8
TOOL_0
 5
1A3
 10
12634.708
 20
321.592
 30
0
 40
8.0
 50
0
 51
180.0
210
0
220
0
230
1.0
 0
LINE
 8
TOOL_0
 5
1A4
 10
12626.708
 20
321.592
 30
0
 11
12626.708
 21
256.592
 31
0
 0
ARC
 8
TOOL_0
 5
1A5
 10
12641.708
 20
256.592
 30
0
 40
15.0
 50
180.0
 51
270.0
210
0
220
0
230
1.0
 0
LINE
 8
TOOL_0
 5
1A6
 10
12641.708
 20
241.592
 30
0
 11
12697.708
 21
241.592
 31
0
 0
ARC
 8
TOOL_0
 5
1A7
 10
12697.708
 20
256.592
 30
0
 40
15.0
 50
270.0
 51
0
210
0
220
0
230
1.0
 0
LINE
 8
TOOL_0
 5
1A8
 10
12712.708
 20
256.592
 30
0
 11
12712.708
 21
280.942
 31
0
 0
LINE
 8
TOOL_0
 5
1A9
 10
12712.708
 20
280.942
 30
0
 11
12939.315
 21
7.638
 31
0
 0
LINE
 8
TOOL_0
 5
1AA
 10
12939.315
 20
7.638
 30
0
 11
12902.458
 21
7.752
 31
0
 0
LINE
 8
TOOL_0
 5
1AB
 10
12902.458
 20
7.752
 30
0
 11
9826.958
 21
7.752
 31
0
 0
LINE
 8
TOOL_0
 5
1AC
 10
9826.958
 20
7.752
 30
0
 11
9826.958
 21
110.502
 31
0
 0
LINE
 8
TOOL_0
 5
1AD
 10
9826.958
 20
110.502
 30
0
 11
9832.958
 21
110.502
 31
0
 0
LINE
 8
TOOL_0
 5
1AE
 10
9832.958
 20
110.502
 30
0
 11
9832.958
 21
188.502
 31
0
 0
ARC
 8
TOOL_0
 5
1AF
 10
9807.958
 20
188.502
 30
0
 40
25.0
 50
0
 51
90.0
210
0
220
0
230
1.0
 0
LINE
 8
TOOL_0
 5
1B0
 10
9807.958
 20
213.502
 30
0
 11
9755.458
 21
213.502
 31
0
 0
LINE
 8
TOOL_0
 5
1B1
 10
9755.458
 20
213.502
 30
0
 11
9755.458
 21
988.252
 31
0
 0
LINE
 8
TOOL_0
 5
1B2
 10
9755.458
 20
988.252
 30
0
 11
9838.961
 21
988.252
 31
0
 0
LINE
 8
TOOL_0
 5
1B3
 10
9838.961
 20
988.252
 30
0
 11
9910.802
 21
489.803
 31
0
 0
ARC
 8
TOOL_0
 5
1B4
 10
9985.035
 20
500.502
 30
0
 40
75.000045933319
 50
188.201407381131
 51
270.0
210
0
220
0
230
1.0
 0
LINE
 8
TOOL_0
 5
1B5
 10
9985.035
 20
425.502
 30
0
 11
10175.575
 21
425.502
 31
0
 0
ARC
 8
TOOL_0
 5
1B6
 10
10175.575
 20
500.502
 30
0
 40
75.0
 50
270.0
 51
319.999877753997
210
0
220
0
230
1.0
 0
LINE
 8
TOOL_0
 5
1B7
 10
10233.028
 20
452.293
 30
0
 11
10623.432
 21
917.558
 31
0
 0
LINE
 8
TOOL_0
 5
1B8
 10
10623.432
 20
917.558
 30
0
 11
10618.836
 21
921.415
 31
0
 0
LINE
 8
TOOL_0
 5
1B9
 10
10618.836
 20
921.415
 30
0
 11
10363.959
 21
617.665
 31
0
 0
LINE
 8
TOOL_0
 5
1BA
 10
10363.959
 20
617.665
 30
0
 11
10363.959
 21
988.253
 31
0
 0
LINE
 8
TOOL_0
 5
1BB
 10
10363.959
 20
988.253
 30
0
 11
12365.459
 21
988.253
 31
0
 0
LINE
 8
TOOL_0
 5
1BC
 10
12365.459
 20
988.253
 30
0
 11
12365.459
 21
617.665
 31
0
 0
LINE
 8
TOOL_0
 5
1BD
 10
12365.459
 20
617.665
 30
0
 11
12110.582
 21
921.415
 31
0
 0
LINE
 8
TOOL_0
 5
1BE
 10
12110.582
 20
921.415
 30
0
 11
12105.986
 21
917.558
 31
0
 0
LINE
 8
TOOL_0
 5
1BF
 10
12105.986
 20
917.558
 30
0
 11
12496.39
 21
452.293
 31
0
 0
ARC
 8
TOOL_0
 5
1C0
 10
12553.843
 20
500.502
 30
0
 40
74.999699266063
 50
220.000122246003
 51
270.0
210
0
220
0
230
1.0
 0
LINE
 8
TOOL_0
 5
1C1
 10
12553.843
 20
425.502
 30
0
 11
12744.383
 21
425.502
 31
0
 0
ARC
 8
TOOL_0
 5
1C2
 10
12744.383
 20
500.502
 30
0
 40
75.0
 50
270.0
 51
351.798592618869
210
0
220
0
230
1.0
 0
LINE
 8
TOOL_0
 5
1C3
 10
12818.616
 20
489.803
 30
0
 11
12890.457
 21
988.252
 31
0
 0
LINE
 8
TOOL_0
 5
1C4
 10
12890.457
 20
988.252
 30
0
 11
12973.96
 21
988.252
 31
0
 0
LINE
 8
TOOL_0
 5
1C5
 10
12973.96
 20
988.252
 30
0
 11
12973.96
 21
213.502
 31
0
 0
LINE
 8
TOOL_0
 5
1C6
 10
12973.96
 20
213.502
 30
0
 11
12921.46
 21
213.502
 31
0
 0
ARC
 8
TOOL_0
 5
1C7
 10
12921.46
 20
188.502
 30
0
 40
25.0
 50
90.0
 51
180.0
210
0
220
0
230
1.0
 0
LINE
 8
TOOL_0
 5
1C8
 10
12896.46
 20
188.502
 30
0
 11
12896.46
 21
110.502
 31
0
 0
LINE
 8
TOOL_0
 5
1C9
 10
12896.46
 20
110.502
 30
0
 11
12902.46
 21
110.502
 31
0
 0
LINE
 8
TOOL_0
 5
1CA
 10
12902.46
 20
110.502
 30
0
 11
12902.46
 21
7.752
 31
0
 0
LINE
 8
TOOL_0
 5
1CB
 10
12902.46
 20
7.752
 30
0
 11
12902.31
 21
3.487
 31
0
 0
ENDSEC
 0
EOF

