0
SECTION
2
TABLES
0
TABLE
2
LAYER
70
0
0
LAYER
2
LAYER_NAME
70
0
62
1
6
CONTINUOUS
0
ENDTAB
0
ENDSEC
 0
SECTION
 2
ENTITIES
 0
LINE
 8
TOOL_0
 5
1
 10
1582.06
 20
476.36
 30
0
 11
1547.06
 21
476.36
 31
0
 0
LINE
 8
TOOL_0
 5
2
 10
1547.06
 20
476.36
 30
0
 11
1512.189
 21
441.489
 31
0
 0
ARC
 8
TOOL_0
 5
3
 10
1476.103
 20
477.608
 30
0
 40
51.056650467887
 50
270.025810424421
 51
314.973813993598
210
0
220
0
230
1.0
 0
LINE
 8
TOOL_0
 5
4
 10
1476.126
 20
426.551
 30
0
 11
1270.792
 21
426.551
 31
0
 0
ARC
 8
TOOL_0
 5
5
 10
1270.792
 20
727.551
 30
0
 40
301.0
 50
252.581726502958
 51
270.0
210
0
220
0
230
1.0
 0
LINE
 8
TOOL_0
 5
6
 10
1180.689
 20
440.353
 30
0
 11
1013.535
 21
493.317
 31
0
 0
ARC
 8
TOOL_0
 5
7
 10
923.883
 20
207.55
 30
0
 40
299.500015681135
 50
72.582100789275
 51
90.0
210
0
220
0
230
1.0
 0
LINE
 8
TOOL_0
 5
8
 10
923.883
 20
507.05
 30
0
 11
663.438
 21
507.05
 31
0
 0
ARC
 8
TOOL_0
 5
9
 10
663.438
 20
527.05
 30
0
 40
20.0
 50
180.0
 51
270.0
210
0
220
0
230
1.0
 0
LINE
 8
TOOL_0
 5
A
 10
643.438
 20
527.05
 30
0
 11
643.438
 21
588.05
 31
0
 0
ARC
 8
TOOL_0
 5
B
 10
663.438
 20
588.05
 30
0
 40
20.0
 50
90.0
 51
180.0
210
0
220
0
230
1.0
 0
LINE
 8
TOOL_0
 5
C
 10
663.438
 20
608.05
 30
0
 11
923.883
 21
608.05
 31
0
 0
ARC
 8
TOOL_0
 5
D
 10
923.883
 20
907.55
 30
0
 40
299.5
 50
270.0
 51
287.417716677704
210
0
220
0
230
1.0
 0
LINE
 8
TOOL_0
 5
E
 10
1013.534
 20
621.783
 30
0
 11
1180.691
 21
674.748
 31
0
 0
ARC
 8
TOOL_0
 5
F
 10
1270.792
 20
387.55
 30
0
 40
300.999802998274
 50
90.0
 51
107.417910251115
210
0
220
0
230
1.0
 0
LINE
 8
TOOL_0
 5
10
 10
1270.792
 20
688.55
 30
0
 11
1476.127
 21
688.55
 31
0
 0
ARC
 8
TOOL_0
 5
11
 10
1476.103
 20
637.493
 30
0
 40
51.057005640754
 50
45.026186006403
 51
89.973067383375
210
0
220
0
230
1.0
 0
LINE
 8
TOOL_0
 5
12
 10
1512.189
 20
673.612
 30
0
 11
1570.664
 21
615.137
 31
0
 0
ARC
 8
TOOL_0
 5
13
 10
1528.179
 20
572.686
 30
0
 40
60.05882637881
 50
0.023849787794
 51
44.977064420277
210
0
220
0
230
1.0
 0
LINE
 8
TOOL_0
 5
14
 10
1588.238
 20
572.711
 30
0
 11
1588.238
 21
542.388
 31
0
 0
ARC
 8
TOOL_0
 5
15
 10
1528.18
 20
542.412
 30
0
 40
60.058004795364
 50
315.022261266013
 51
359.977103822387
210
0
220
0
230
1.0
 0
LINE
 8
TOOL_0
 5
16
 10
1570.664
 20
499.961
 30
0
 11
1547.06
 21
476.357
 31
0
 0
LINE
 8
TOOL_0
 5
17
 10
1547.06
 20
476.357
 30
0
 11
1547.06
 21
471.357
 31
0
 0
LINE
 8
TOOL_0
 5
18
 10
1547.06
 20
471.357
 30
0
 11
1547.06
 21
-0.003
 31
0
 0
LINE
 8
TOOL_0
 5
19
 10
1547.06
 20
-0.003
 30
0
 11
1582.06
 21
1596.906
 31
0
 0
LINE
 8
TOOL_0
 5
1A
 10
1582.06
 20
1596.906
 30
0
 11
1547.06
 21
1596.906
 31
0
 0
LINE
 8
TOOL_0
 5
1B
 10
1547.06
 20
1596.906
 30
0
 11
1512.189
 21
1562.035
 31
0
 0
ARC
 8
TOOL_0
 5
1C
 10
1476.103
 20
1598.154
 30
0
 40
51.056650467887
 50
270.025810424421
 51
314.973813993598
210
0
220
0
230
1.0
 0
LINE
 8
TOOL_0
 5
1D
 10
1476.126
 20
1547.097
 30
0
 11
1270.792
 21
1547.097
 31
0
 0
ARC
 8
TOOL_0
 5
1E
 10
1270.792
 20
1848.097
 30
0
 40
301.0
 50
252.581726502958
 51
270.0
210
0
220
0
230
1.0
 0
LINE
 8
TOOL_0
 5
1F
 10
1180.689
 20
1560.899
 30
0
 11
1013.535
 21
1613.863
 31
0
 0
ARC
 8
TOOL_0
 5
20
 10
923.883
 20
1328.096
 30
0
 40
299.500015681135
 50
72.582100789275
 51
90.0
210
0
220
0
230
1.0
 0
LINE
 8
TOOL_0
 5
21
 10
923.883
 20
1627.596
 30
0
 11
663.438
 21
1627.596
 31
0
 0
ARC
 8
TOOL_0
 5
22
 10
663.438
 20
1647.596
 30
0
 40
20.0
 50
180.0
 51
270.0
210
0
220
0
230
1.0
 0
LINE
 8
TOOL_0
 5
23
 10
643.438
 20
1647.596
 30
0
 11
643.438
 21
1708.596
 31
0
 0
ARC
 8
TOOL_0
 5
24
 10
663.438
 20
1708.596
 30
0
 40
20.0
 50
90.0
 51
180.0
210
0
220
0
230
1.0
 0
LINE
 8
TOOL_0
 5
25
 10
663.438
 20
1728.596
 30
0
 11
923.883
 21
1728.596
 31
0
 0
ARC
 8
TOOL_0
 5
26
 10
923.883
 20
2028.096
 30
0
 40
299.5
 50
270.0
 51
287.417716677704
210
0
220
0
230
1.0
 0
LINE
 8
TOOL_0
 5
27
 10
1013.534
 20
1742.329
 30
0
 11
1180.691
 21
1795.294
 31
0
 0
ARC
 8
TOOL_0
 5
28
 10
1270.792
 20
1508.096
 30
0
 40
300.999802998275
 50
90.0
 51
107.417910251115
210
0
220
0
230
1.0
 0
LINE
 8
TOOL_0
 5
29
 10
1270.792
 20
1809.096
 30
0
 11
1476.127
 21
1809.096
 31
0
 0
ARC
 8
TOOL_0
 5
2A
 10
1476.103
 20
1758.039
 30
0
 40
51.057005640754
 50
45.026186006403
 51
89.973067383375
210
0
220
0
230
1.0
 0
LINE
 8
TOOL_0
 5
2B
 10
1512.189
 20
1794.158
 30
0
 11
1570.664
 21
1735.683
 31
0
 0
ARC
 8
TOOL_0
 5
2C
 10
1528.179
 20
1693.232
 30
0
 40
60.05882637881
 50
0.023849787794
 51
44.977064420277
210
0
220
0
230
1.0
 0
LINE
 8
TOOL_0
 5
2D
 10
1588.238
 20
1693.257
 30
0
 11
1588.238
 21
1662.934
 31
0
 0
ARC
 8
TOOL_0
 5
2E
 10
1528.18
 20
1662.958
 30
0
 40
60.058004795364
 50
315.022261266013
 51
359.977103822387
210
0
220
0
230
1.0
 0
LINE
 8
TOOL_0
 5
2F
 10
1570.664
 20
1620.507
 30
0
 11
1547.06
 21
1596.903
 31
0
 0
LINE
 8
TOOL_0
 5
30
 10
1547.06
 20
1596.903
 30
0
 11
1547.06
 21
1591.903
 31
0
 0
LINE
 8
TOOL_0
 5
31
 10
1547.06
 20
1591.903
 30
0
 11
1547.06
 21
-0.006
 31
0
 0
LINE
 8
TOOL_0
 5
32
 10
1547.06
 20
-0.006
 30
0
 11
1667.525
 21
399.441
 31
0
 0
LINE
 8
TOOL_0
 5
33
 10
1667.525
 20
399.441
 30
0
 11
1667.525
 21
2398.994
 31
0
 0
LINE
 8
TOOL_0
 5
34
 10
1667.525
 20
2398.994
 30
0
 11
1667.525
 21
2399.994
 31
0
 0
ENDSEC
 0
EOF

