0
SECTION
2
TABLES
0
TABLE
2
LAYER
70
0
0
LAYER
2
LAYER_NAME
70
0
62
1
6
CONTINUOUS
0
ENDTAB
0
ENDSEC
 0
SECTION
 2
ENTITIES
 0
LINE
 8
TOOL_0
 5
1
 10
511.054
 20
2150.04
 30
0
 11
546.054
 21
2150.04
 31
0
 0
ARC
 8
TOOL_0
 5
2
 10
476.054
 20
2150.04
 30
0
 40
70.0
 50
0
 51
180.0
210
0
220
0
230
1.0
 0
ARC
 8
TOOL_0
 5
3
 10
476.054
 20
2150.04
 30
0
 40
70.0
 50
180.0
 51
0
210
0
220
0
230
1.0
 0
LINE
 8
TOOL_0
 5
4
 10
546.054
 20
2150.04
 30
0
 11
542.518
 21
2153.576
 31
0
 0
LINE
 8
TOOL_0
 5
5
 10
542.518
 20
2153.576
 30
0
 11
640.598
 21
1898.824
 31
0
 0
LINE
 8
TOOL_0
 5
6
 10
640.598
 20
1898.824
 30
0
 11
640.598
 21
1870.609
 31
0
 0
LINE
 8
TOOL_0
 5
7
 10
640.598
 20
1870.609
 30
0
 11
618.598
 21
1872.298
 31
0
 0
LINE
 8
TOOL_0
 5
8
 10
618.598
 20
1872.298
 30
0
 11
617.002
 21
1874.84
 31
0
 0
LINE
 8
TOOL_0
 5
9
 10
617.002
 20
1874.84
 30
0
 11
30.104
 21
1874.84
 31
0
 0
ARC
 8
TOOL_0
 5
A
 10
30.104
 20
1884.84
 30
0
 40
10.0
 50
180.0
 51
270.0
210
0
220
0
230
1.0
 0
LINE
 8
TOOL_0
 5
B
 10
20.104
 20
1884.84
 30
0
 11
20.104
 21
2415.24
 31
0
 0
ARC
 8
TOOL_0
 5
C
 10
30.104
 20
2415.24
 30
0
 40
10.0
 50
90.0
 51
180.0
210
0
220
0
230
1.0
 0
LINE
 8
TOOL_0
 5
D
 10
30.104
 20
2425.24
 30
0
 11
618.504
 21
2425.24
 31
0
 0
ARC
 8
TOOL_0
 5
E
 10
618.504
 20
2415.24
 30
0
 40
10.0
 50
0
 51
90.0
210
0
220
0
230
1.0
 0
LINE
 8
TOOL_0
 5
F
 10
628.504
 20
2415.24
 30
0
 11
628.504
 21
1884.84
 31
0
 0
ARC
 8
TOOL_0
 5
10
 10
618.504
 20
1884.84
 30
0
 40
10.0
 50
278.603289005591
 51
0
210
0
220
0
230
1.0
 0
LINE
 8
TOOL_0
 5
11
 10
620.0
 20
1874.952
 30
0
 11
618.599
 21
1872.298
 31
0
 0
LINE
 8
TOOL_0
 5
12
 10
618.599
 20
1872.298
 30
0
 11
614.263
 21
1869.998
 31
0
 0
LINE
 8
TOOL_0
 5
13
 10
614.263
 20
1869.998
 30
0
 11
943.19
 21
2039.782
 31
0
 0
LINE
 8
TOOL_0
 5
14
 10
943.19
 20
2039.782
 30
0
 11
978.19
 21
2039.782
 31
0
 0
ARC
 8
TOOL_0
 5
15
 10
938.19
 20
2039.782
 30
0
 40
40.0
 50
0
 51
180.0
210
0
220
0
230
1.0
 0
ARC
 8
TOOL_0
 5
16
 10
938.19
 20
2039.782
 30
0
 40
40.0
 50
180.0
 51
0
210
0
220
0
230
1.0
 0
LINE
 8
TOOL_0
 5
17
 10
978.19
 20
2039.782
 30
0
 11
974.654
 21
2043.318
 31
0
 0
LINE
 8
TOOL_0
 5
18
 10
974.654
 20
2043.318
 30
0
 11
1115.49
 21
1906.119
 31
0
 0
LINE
 8
TOOL_0
 5
19
 10
1115.49
 20
1906.119
 30
0
 11
1115.49
 21
1868.836
 31
0
 0
LINE
 8
TOOL_0
 5
1A
 10
1115.49
 20
1868.836
 30
0
 11
1088.25
 21
1871.119
 31
0
 0
LINE
 8
TOOL_0
 5
1B
 10
1088.25
 20
1871.119
 30
0
 11
1086.69
 21
1873.683
 31
0
 0
LINE
 8
TOOL_0
 5
1C
 10
1086.69
 20
1873.683
 30
0
 11
708.691
 21
1873.683
 31
0
 0
ARC
 8
TOOL_0
 5
1D
 10
708.691
 20
1934.783
 30
0
 40
61.1
 50
179.999062262201
 51
270.0
210
0
220
0
230
1.0
 0
LINE
 8
TOOL_0
 5
1E
 10
647.591
 20
1934.784
 30
0
 11
647.591
 21
2144.783
 31
0
 0
ARC
 8
TOOL_0
 5
1F
 10
708.691
 20
2144.783
 30
0
 40
61.1
 50
90.0
 51
180.0
210
0
220
0
230
1.0
 0
LINE
 8
TOOL_0
 5
20
 10
708.691
 20
2205.883
 30
0
 11
1088.191
 21
2205.883
 31
0
 0
ARC
 8
TOOL_0
 5
21
 10
1088.191
 20
2189.783
 30
0
 40
16.1
 50
0
 51
90.0
210
0
220
0
230
1.0
 0
LINE
 8
TOOL_0
 5
22
 10
1104.291
 20
2189.783
 30
0
 11
1104.291
 21
1889.783
 31
0
 0
ARC
 8
TOOL_0
 5
23
 10
1088.191
 20
1889.783
 30
0
 40
16.1
 50
275.338773189387
 51
0
210
0
220
0
230
1.0
 0
LINE
 8
TOOL_0
 5
24
 10
1089.689
 20
1873.753
 30
0
 11
1088.25
 21
1871.119
 31
0
 0
LINE
 8
TOOL_0
 5
25
 10
1088.25
 20
1871.119
 30
0
 11
1084.242
 21
1866.708
 31
0
 0
LINE
 8
TOOL_0
 5
26
 10
1084.242
 20
1866.708
 30
0
 11
1501.713
 21
1886.899
 31
0
 0
LINE
 8
TOOL_0
 5
27
 10
1501.713
 20
1886.899
 30
0
 11
1501.713
 21
1868.368
 31
0
 0
LINE
 8
TOOL_0
 5
28
 10
1501.713
 20
1868.368
 30
0
 11
1435.788
 21
1871.339
 31
0
 0
LINE
 8
TOOL_0
 5
29
 10
1435.788
 20
1871.339
 30
0
 11
1434.272
 21
1873.93
 31
0
 0
LINE
 8
TOOL_0
 5
2A
 10
1434.272
 20
1873.93
 30
0
 11
1185.772
 21
1873.93
 31
0
 0
ARC
 8
TOOL_0
 5
2B
 10
1185.772
 20
1935.13
 30
0
 40
61.2
 50
179.999063794452
 51
270.0
210
0
220
0
230
1.0
 0
LINE
 8
TOOL_0
 5
2C
 10
1124.572
 20
1935.131
 30
0
 11
1124.572
 21
2145.13
 31
0
 0
ARC
 8
TOOL_0
 5
2D
 10
1185.772
 20
2145.13
 30
0
 40
61.2
 50
90.0
 51
180.0
210
0
220
0
230
1.0
 0
LINE
 8
TOOL_0
 5
2E
 10
1185.772
 20
2206.33
 30
0
 11
1435.772
 21
2206.33
 31
0
 0
ARC
 8
TOOL_0
 5
2F
 10
1435.772
 20
2145.13
 30
0
 40
61.2
 50
0
 51
90.0
210
0
220
0
230
1.0
 0
LINE
 8
TOOL_0
 5
30
 10
1496.972
 20
2145.13
 30
0
 11
1496.972
 21
1935.13
 31
0
 0
ARC
 8
TOOL_0
 5
31
 10
1435.772
 20
1935.13
 30
0
 40
61.2
 50
271.404440124362
 51
0
210
0
220
0
230
1.0
 0
LINE
 8
TOOL_0
 5
32
 10
1437.272
 20
1873.948
 30
0
 11
1435.788
 21
1871.339
 31
0
 0
LINE
 8
TOOL_0
 5
33
 10
1435.788
 20
1871.339
 30
0
 11
1430.751
 21
1868.79
 31
0
 0
LINE
 8
TOOL_0
 5
34
 10
1430.751
 20
1868.79
 30
0
 11
1815.746
 21
1901.891
 31
0
 0
LINE
 8
TOOL_0
 5
35
 10
1815.746
 20
1901.891
 30
0
 11
1815.746
 21
1870.571
 31
0
 0
LINE
 8
TOOL_0
 5
36
 10
1815.746
 20
1870.571
 30
0
 11
1781.225
 21
1871.347
 31
0
 0
LINE
 8
TOOL_0
 5
37
 10
1781.225
 20
1871.347
 30
0
 11
1779.688
 21
1873.925
 31
0
 0
LINE
 8
TOOL_0
 5
38
 10
1779.688
 20
1873.925
 30
0
 11
1541.188
 21
1873.925
 31
0
 0
ARC
 8
TOOL_0
 5
39
 10
1541.188
 20
1900.025
 30
0
 40
26.1
 50
180.0
 51
270.0
210
0
220
0
230
1.0
 0
LINE
 8
TOOL_0
 5
3A
 10
1515.088
 20
1900.025
 30
0
 11
1515.088
 21
2165.025
 31
0
 0
ARC
 8
TOOL_0
 5
3B
 10
1541.188
 20
2165.025
 30
0
 40
26.1
 50
90.0
 51
180.0
210
0
220
0
230
1.0
 0
LINE
 8
TOOL_0
 5
3C
 10
1541.188
 20
2191.125
 30
0
 11
1745.833
 21
2191.125
 31
0
 0
ARC
 8
TOOL_0
 5
3D
 10
1745.81
 20
2164.969
 30
0
 40
26.156010112401
 50
45.051116824523
 51
89.949617579556
210
0
220
0
230
1.0
 0
LINE
 8
TOOL_0
 5
3E
 10
1764.288
 20
2183.48
 30
0
 11
1799.643
 21
2148.125
 31
0
 0
ARC
 8
TOOL_0
 5
3F
 10
1781.132
 20
2129.647
 30
0
 40
26.155183138338
 50
0.050382420445
 51
44.948883175477
210
0
220
0
230
1.0
 0
LINE
 8
TOOL_0
 5
40
 10
1807.288
 20
2129.67
 30
0
 11
1807.288
 21
1900.025
 31
0
 0
ARC
 8
TOOL_0
 5
41
 10
1781.188
 20
1900.025
 30
0
 40
26.1
 50
273.292467126983
 51
0
210
0
220
0
230
1.0
 0
LINE
 8
TOOL_0
 5
42
 10
1782.687
 20
1873.968
 30
0
 11
1781.225
 21
1871.347
 31
0
 0
LINE
 8
TOOL_0
 5
43
 10
1781.225
 20
1871.347
 30
0
 11
1777.873
 21
1868.372
 31
0
 0
LINE
 8
TOOL_0
 5
44
 10
1777.873
 20
1868.372
 30
0
 11
2254.023
 21
1360.968
 31
0
 0
LINE
 8
TOOL_0
 5
45
 10
2254.023
 20
1360.968
 30
0
 11
2254.023
 21
1329.649
 31
0
 0
LINE
 8
TOOL_0
 5
46
 10
2254.023
 20
1329.649
 30
0
 11
2219.502
 21
1330.425
 31
0
 0
LINE
 8
TOOL_0
 5
47
 10
2219.502
 20
1330.425
 30
0
 11
2217.965
 21
1333.003
 31
0
 0
LINE
 8
TOOL_0
 5
48
 10
2217.965
 20
1333.003
 30
0
 11
1979.465
 21
1333.003
 31
0
 0
ARC
 8
TOOL_0
 5
49
 10
1979.465
 20
1359.103
 30
0
 40
26.1
 50
180.0
 51
270.0
210
0
220
0
230
1.0
 0
LINE
 8
TOOL_0
 5
4A
 10
1953.365
 20
1359.103
 30
0
 11
1953.365
 21
1624.103
 31
0
 0
ARC
 8
TOOL_0
 5
4B
 10
1979.465
 20
1624.103
 30
0
 40
26.1
 50
90.0
 51
180.0
210
0
220
0
230
1.0
 0
LINE
 8
TOOL_0
 5
4C
 10
1979.465
 20
1650.203
 30
0
 11
2184.11
 21
1650.203
 31
0
 0
ARC
 8
TOOL_0
 5
4D
 10
2184.087
 20
1624.047
 30
0
 40
26.156010112401
 50
45.051116824523
 51
89.949617579555
210
0
220
0
230
1.0
 0
LINE
 8
TOOL_0
 5
4E
 10
2202.565
 20
1642.558
 30
0
 11
2237.92
 21
1607.203
 31
0
 0
ARC
 8
TOOL_0
 5
4F
 10
2219.409
 20
1588.725
 30
0
 40
26.155183138338
 50
0.050382420445
 51
44.948883175477
210
0
220
0
230
1.0
 0
LINE
 8
TOOL_0
 5
50
 10
2245.565
 20
1588.748
 30
0
 11
2245.565
 21
1359.103
 31
0
 0
ARC
 8
TOOL_0
 5
51
 10
2219.465
 20
1359.103
 30
0
 40
26.1
 50
273.292467126983
 51
0
210
0
220
0
230
1.0
 0
LINE
 8
TOOL_0
 5
52
 10
2220.964
 20
1333.046
 30
0
 11
2219.502
 21
1330.425
 31
0
 0
LINE
 8
TOOL_0
 5
53
 10
2219.502
 20
1330.425
 30
0
 11
2216.15
 21
1327.45
 31
0
 0
LINE
 8
TOOL_0
 5
54
 10
2216.15
 20
1327.45
 30
0
 11
2126.192
 21
1706.951
 31
0
 0
LINE
 8
TOOL_0
 5
55
 10
2126.192
 20
1706.951
 30
0
 11
2126.192
 21
1675.632
 31
0
 0
LINE
 8
TOOL_0
 5
56
 10
2126.192
 20
1675.632
 30
0
 11
2091.671
 21
1676.408
 31
0
 0
LINE
 8
TOOL_0
 5
57
 10
2091.671
 20
1676.408
 30
0
 11
2090.134
 21
1678.986
 31
0
 0
LINE
 8
TOOL_0
 5
58
 10
2090.134
 20
1678.986
 30
0
 11
1851.634
 21
1678.986
 31
0
 0
ARC
 8
TOOL_0
 5
59
 10
1851.634
 20
1705.086
 30
0
 40
26.1
 50
180.0
 51
270.0
210
0
220
0
230
1.0
 0
LINE
 8
TOOL_0
 5
5A
 10
1825.534
 20
1705.086
 30
0
 11
1825.534
 21
1970.086
 31
0
 0
ARC
 8
TOOL_0
 5
5B
 10
1851.634
 20
1970.086
 30
0
 40
26.1
 50
90.0
 51
180.0
210
0
220
0
230
1.0
 0
LINE
 8
TOOL_0
 5
5C
 10
1851.634
 20
1996.186
 30
0
 11
2056.279
 21
1996.186
 31
0
 0
ARC
 8
TOOL_0
 5
5D
 10
2056.256
 20
1970.03
 30
0
 40
26.156010112401
 50
45.051116824523
 51
89.949617579555
210
0
220
0
230
1.0
 0
LINE
 8
TOOL_0
 5
5E
 10
2074.734
 20
1988.541
 30
0
 11
2110.089
 21
1953.186
 31
0
 0
ARC
 8
TOOL_0
 5
5F
 10
2091.578
 20
1934.708
 30
0
 40
26.155183138338
 50
0.050382420445
 51
44.948883175477
210
0
220
0
230
1.0
 0
LINE
 8
TOOL_0
 5
60
 10
2117.734
 20
1934.731
 30
0
 11
2117.734
 21
1705.086
 31
0
 0
ARC
 8
TOOL_0
 5
61
 10
2091.634
 20
1705.086
 30
0
 40
26.1
 50
273.292467126983
 51
0
210
0
220
0
230
1.0
 0
LINE
 8
TOOL_0
 5
62
 10
2093.133
 20
1679.029
 30
0
 11
2091.671
 21
1676.408
 31
0
 0
LINE
 8
TOOL_0
 5
63
 10
2091.671
 20
1676.408
 30
0
 11
2088.319
 21
1673.433
 31
0
 0
LINE
 8
TOOL_0
 5
64
 10
2088.319
 20
1673.433
 30
0
 11
2127.571
 21
2042.22
 31
0
 0
LINE
 8
TOOL_0
 5
65
 10
2127.571
 20
2042.22
 30
0
 11
2127.571
 21
2010.9
 31
0
 0
LINE
 8
TOOL_0
 5
66
 10
2127.571
 20
2010.9
 30
0
 11
2093.05
 21
2011.676
 31
0
 0
LINE
 8
TOOL_0
 5
67
 10
2093.05
 20
2011.676
 30
0
 11
2091.513
 21
2014.254
 31
0
 0
LINE
 8
TOOL_0
 5
68
 10
2091.513
 20
2014.254
 30
0
 11
1853.013
 21
2014.254
 31
0
 0
ARC
 8
TOOL_0
 5
69
 10
1853.013
 20
2040.354
 30
0
 40
26.1
 50
180.0
 51
270.0
210
0
220
0
230
1.0
 0
LINE
 8
TOOL_0
 5
6A
 10
1826.913
 20
2040.354
 30
0
 11
1826.913
 21
2305.354
 31
0
 0
ARC
 8
TOOL_0
 5
6B
 10
1853.013
 20
2305.354
 30
0
 40
26.1
 50
90.0
 51
180.0
210
0
220
0
230
1.0
 0
LINE
 8
TOOL_0
 5
6C
 10
1853.013
 20
2331.454
 30
0
 11
2057.658
 21
2331.454
 31
0
 0
ARC
 8
TOOL_0
 5
6D
 10
2057.635
 20
2305.298
 30
0
 40
26.156010112401
 50
45.051116824523
 51
89.949617579555
210
0
220
0
230
1.0
 0
LINE
 8
TOOL_0
 5
6E
 10
2076.113
 20
2323.809
 30
0
 11
2111.468
 21
2288.454
 31
0
 0
ARC
 8
TOOL_0
 5
6F
 10
2092.957
 20
2269.976
 30
0
 40
26.155183138338
 50
0.050382420445
 51
44.948883175477
210
0
220
0
230
1.0
 0
LINE
 8
TOOL_0
 5
70
 10
2119.113
 20
2269.999
 30
0
 11
2119.113
 21
2040.354
 31
0
 0
ARC
 8
TOOL_0
 5
71
 10
2093.013
 20
2040.354
 30
0
 40
26.1
 50
273.292467126983
 51
0
210
0
220
0
230
1.0
 0
LINE
 8
TOOL_0
 5
72
 10
2094.512
 20
2014.297
 30
0
 11
2093.05
 21
2011.676
 31
0
 0
LINE
 8
TOOL_0
 5
73
 10
2093.05
 20
2011.676
 30
0
 11
2089.698
 21
2008.701
 31
0
 0
LINE
 8
TOOL_0
 5
74
 10
2089.698
 20
2008.701
 30
0
 11
2315.928
 21
1248.137
 31
0
 0
LINE
 8
TOOL_0
 5
75
 10
2315.928
 20
1248.137
 30
0
 11
2315.928
 21
2499.002
 31
0
 0
LINE
 8
TOOL_0
 5
76
 10
2315.928
 20
2499.002
 30
0
 11
2315.928
 21
2500.002
 31
0
 0
ENDSEC
 0
EOF

