0
SECTION
2
TABLES
0
TABLE
2
LAYER
70
0
0
LAYER
2
LAYER_NAME
70
0
62
1
6
CONTINUOUS
0
ENDTAB
0
ENDSEC
 0
SECTION
 2
ENTITIES
 0
LINE
 8
TOOL_0
 5
1
 10
977.893
 20
445.538
 30
0
 11
1004.332
 21
445.308
 31
0
 0
LINE
 8
TOOL_0
 5
2
 10
1004.332
 20
445.308
 30
0
 11
1076.326
 21
445.308
 31
0
 0
ARC
 8
TOOL_0
 5
3
 10
1076.326
 20
494.708
 30
0
 40
49.4
 50
270.0
 51
279.162199300029
210
0
220
0
230
1.0
 0
LINE
 8
TOOL_0
 5
4
 10
1084.192
 20
445.938
 30
0
 11
1541.282
 21
519.662
 31
0
 0
ARC
 8
TOOL_0
 5
5
 10
1549.339
 20
469.708
 30
0
 40
50.59957870378
 50
90.0
 51
99.162238862844
210
0
220
0
230
1.0
 0
LINE
 8
TOOL_0
 5
6
 10
1549.339
 20
520.308
 30
0
 11
1790.215
 21
520.308
 31
0
 0
ARC
 8
TOOL_0
 5
7
 10
1790.215
 20
470.308
 30
0
 40
50.0
 50
42.800329188418
 51
90.0
210
0
220
0
230
1.0
 0
LINE
 8
TOOL_0
 5
8
 10
1826.901
 20
504.28
 30
0
 11
1867.427
 21
460.516
 31
0
 0
ARC
 8
TOOL_0
 5
9
 10
1815.332
 20
412.276
 30
0
 40
70.999905809797
 50
0
 51
42.79970457782
210
0
220
0
230
1.0
 0
ARC
 8
TOOL_0
 5
A
 10
1167.023
 20
404.709
 30
0
 40
719.348800631516
 50
359.265213489326
 51
0.602718958345
210
0
220
0
230
1.0
 0
ARC
 8
TOOL_0
 5
B
 10
1815.263
 20
397.169
 30
0
 40
71.069977662864
 50
317.221527847693
 51
358.641445533845
210
0
220
0
230
1.0
 0
LINE
 8
TOOL_0
 5
C
 10
1867.427
 20
348.901
 30
0
 11
1826.901
 21
305.137
 31
0
 0
ARC
 8
TOOL_0
 5
D
 10
1790.215
 20
339.109
 30
0
 40
49.99959379835
 50
269.99885408441
 51
317.199670811582
210
0
220
0
230
1.0
 0
LINE
 8
TOOL_0
 5
E
 10
1790.214
 20
289.109
 30
0
 11
1549.339
 21
289.109
 31
0
 0
ARC
 8
TOOL_0
 5
F
 10
1549.339
 20
339.709
 30
0
 40
50.6
 50
260.837761137156
 51
270.0
210
0
220
0
230
1.0
 0
LINE
 8
TOOL_0
 5
10
 10
1541.282
 20
289.755
 30
0
 11
1084.193
 21
363.479
 31
0
 0
ARC
 8
TOOL_0
 5
11
 10
1076.327
 20
314.709
 30
0
 40
49.400271821115
 50
80.837800699971
 51
90.0
210
0
220
0
230
1.0
 0
LINE
 8
TOOL_0
 5
12
 10
1076.327
 20
364.109
 30
0
 11
1004.333
 21
364.109
 31
0
 0
ARC
 8
TOOL_0
 5
13
 10
1004.333
 20
384.109
 30
0
 40
20.0
 50
180.0
 51
270.0
210
0
220
0
230
1.0
 0
LINE
 8
TOOL_0
 5
14
 10
984.333
 20
384.109
 30
0
 11
984.333
 21
425.309
 31
0
 0
ARC
 8
TOOL_0
 5
15
 10
1004.333
 20
425.309
 30
0
 40
20.0
 50
90.0
 51
180.0
210
0
220
0
230
1.0
 0
LINE
 8
TOOL_0
 5
16
 10
1004.333
 20
445.309
 30
0
 11
1008.83
 21
447.608
 31
0
 0
LINE
 8
TOOL_0
 5
17
 10
1008.83
 20
447.608
 30
0
 11
1918.144
 21
0.001
 31
0
 0
LINE
 8
TOOL_0
 5
18
 10
1918.144
 20
0.001
 30
0
 11
1918.144
 21
1.001
 31
0
 0
LINE
 8
TOOL_0
 5
19
 10
1918.144
 20
1.001
 30
0
 11
1918.144
 21
0.001
 31
0
 0
LINE
 8
TOOL_0
 5
1A
 10
1918.144
 20
0.001
 30
0
 11
1918.144
 21
0.001
 31
0
 0
LINE
 8
TOOL_0
 5
1B
 10
1918.144
 20
0.001
 30
0
 11
1918.144
 21
1.001
 31
0
 0
LINE
 8
TOOL_0
 5
1C
 10
1918.144
 20
1.001
 30
0
 11
1918.144
 21
1282.636
 31
0
 0
LINE
 8
TOOL_0
 5
1D
 10
1918.144
 20
1282.636
 30
0
 11
941.129
 21
1282.636
 31
0
 0
LINE
 8
TOOL_0
 5
1E
 10
941.129
 20
1282.636
 30
0
 11
940.129
 21
1282.636
 31
0
 0
ENDSEC
 0
EOF

