0
SECTION
2
TABLES
0
TABLE
2
LAYER
70
0
0
LAYER
2
LAYER_NAME
70
0
62
1
6
CONTINUOUS
0
ENDTAB
0
ENDSEC
 0
SECTION
 2
ENTITIES
 0
LINE
 8
TOOL_0
 5
1
 10
1664.389
 20
302.652
 30
0
 11
1709.389
 21
302.652
 31
0
 0
LINE
 8
TOOL_0
 5
2
 10
1709.389
 20
302.652
 30
0
 11
1709.389
 21
415.152
 31
0
 0
ARC
 8
TOOL_0
 5
3
 10
1674.389
 20
415.152
 30
0
 40
35.0
 50
0
 51
90.0
210
0
220
0
230
1.0
 0
LINE
 8
TOOL_0
 5
4
 10
1674.389
 20
450.152
 30
0
 11
1519.389
 21
450.152
 31
0
 0
ARC
 8
TOOL_0
 5
5
 10
1519.389
 20
415.152
 30
0
 40
35.0
 50
90.0
 51
180.0
210
0
220
0
230
1.0
 0
LINE
 8
TOOL_0
 5
6
 10
1484.389
 20
415.152
 30
0
 11
1484.389
 21
190.152
 31
0
 0
ARC
 8
TOOL_0
 5
7
 10
1519.389
 20
190.152
 30
0
 40
35.0
 50
180.0
 51
270.0
210
0
220
0
230
1.0
 0
LINE
 8
TOOL_0
 5
8
 10
1519.389
 20
155.152
 30
0
 11
1674.389
 21
155.152
 31
0
 0
ARC
 8
TOOL_0
 5
9
 10
1674.389
 20
190.152
 30
0
 40
35.0
 50
270.0
 51
0
210
0
220
0
230
1.0
 0
LINE
 8
TOOL_0
 5
A
 10
1709.389
 20
190.152
 30
0
 11
1709.389
 21
302.652
 31
0
 0
LINE
 8
TOOL_0
 5
B
 10
1709.389
 20
302.652
 30
0
 11
2029.389
 21
282.652
 31
0
 0
LINE
 8
TOOL_0
 5
C
 10
2029.389
 20
282.652
 30
0
 11
2074.389
 21
282.652
 31
0
 0
LINE
 8
TOOL_0
 5
D
 10
2074.389
 20
282.652
 30
0
 11
2074.389
 21
415.152
 31
0
 0
ARC
 8
TOOL_0
 5
E
 10
2039.389
 20
415.152
 30
0
 40
35.0
 50
0
 51
90.0
210
0
220
0
230
1.0
 0
LINE
 8
TOOL_0
 5
F
 10
2039.389
 20
450.152
 30
0
 11
1884.389
 21
450.152
 31
0
 0
ARC
 8
TOOL_0
 5
10
 10
1884.389
 20
415.152
 30
0
 40
35.0
 50
90.0
 51
180.0
210
0
220
0
230
1.0
 0
LINE
 8
TOOL_0
 5
11
 10
1849.389
 20
415.152
 30
0
 11
1849.389
 21
150.152
 31
0
 0
ARC
 8
TOOL_0
 5
12
 10
1884.389
 20
150.152
 30
0
 40
35.0
 50
180.0
 51
270.0
210
0
220
0
230
1.0
 0
LINE
 8
TOOL_0
 5
13
 10
1884.389
 20
115.152
 30
0
 11
2039.389
 21
115.152
 31
0
 0
ARC
 8
TOOL_0
 5
14
 10
2039.389
 20
150.152
 30
0
 40
35.0
 50
270.0
 51
0
210
0
220
0
230
1.0
 0
LINE
 8
TOOL_0
 5
15
 10
2074.389
 20
150.152
 30
0
 11
2074.389
 21
282.652
 31
0
 0
LINE
 8
TOOL_0
 5
16
 10
2074.389
 20
282.652
 30
0
 11
2315.789
 21
135.902
 31
0
 0
LINE
 8
TOOL_0
 5
17
 10
2315.789
 20
135.902
 30
0
 11
2315.789
 21
105.152
 31
0
 0
LINE
 8
TOOL_0
 5
18
 10
2315.789
 20
105.152
 30
0
 11
2315.789
 21
50.138
 31
0
 0
LINE
 8
TOOL_0
 5
19
 10
2315.789
 20
50.138
 30
0
 11
2304.803
 21
39.152
 31
0
 0
LINE
 8
TOOL_0
 5
1A
 10
2304.803
 20
39.152
 30
0
 11
2193.389
 21
39.152
 31
0
 0
ARC
 8
TOOL_0
 5
1B
 10
2193.389
 20
31.152
 30
0
 40
8.0
 50
90.0
 51
180.0
210
0
220
0
230
1.0
 0
LINE
 8
TOOL_0
 5
1C
 10
2185.389
 20
31.152
 30
0
 11
2185.389
 21
19.152
 31
0
 0
LINE
 8
TOOL_0
 5
1D
 10
2185.389
 20
19.152
 30
0
 11
1714.389
 21
19.152
 31
0
 0
LINE
 8
TOOL_0
 5
1E
 10
1714.389
 20
19.152
 30
0
 11
1714.389
 21
35.152
 31
0
 0
ARC
 8
TOOL_0
 5
1F
 10
1707.389
 20
35.152
 30
0
 40
7.0
 50
0
 51
90.0
210
0
220
0
230
1.0
 0
LINE
 8
TOOL_0
 5
20
 10
1707.389
 20
42.152
 30
0
 11
1551.389
 21
42.152
 31
0
 0
ARC
 8
TOOL_0
 5
21
 10
1551.389
 20
35.152
 30
0
 40
7.0
 50
90.0
 51
180.0
210
0
220
0
230
1.0
 0
LINE
 8
TOOL_0
 5
22
 10
1544.389
 20
35.152
 30
0
 11
1544.389
 21
19.152
 31
0
 0
LINE
 8
TOOL_0
 5
23
 10
1544.389
 20
19.152
 30
0
 11
1018.389
 21
19.152
 31
0
 0
LINE
 8
TOOL_0
 5
24
 10
1018.389
 20
19.152
 30
0
 11
1018.389
 21
26.152
 31
0
 0
ARC
 8
TOOL_0
 5
25
 10
1010.389
 20
26.152
 30
0
 40
8.0
 50
0
 51
90.0
210
0
220
0
230
1.0
 0
LINE
 8
TOOL_0
 5
26
 10
1010.389
 20
34.152
 30
0
 11
772.989
 21
34.152
 31
0
 0
LINE
 8
TOOL_0
 5
27
 10
772.989
 20
34.152
 30
0
 11
772.989
 21
362.74
 31
0
 0
LINE
 8
TOOL_0
 5
28
 10
772.989
 20
362.74
 30
0
 11
1531.264
 21
615.152
 31
0
 0
LINE
 8
TOOL_0
 5
29
 10
1531.264
 20
615.152
 30
0
 11
2036.102
 21
615.152
 31
0
 0
ARC
 8
TOOL_0
 5
2A
 10
2036.102
 20
515.152
 30
0
 40
100.0
 50
46.665781797872
 51
90.0
210
0
220
0
230
1.0
 0
LINE
 8
TOOL_0
 5
2B
 10
2104.727
 20
587.888
 30
0
 11
2315.789
 21
388.756
 31
0
 0
LINE
 8
TOOL_0
 5
2C
 10
2315.789
 20
388.756
 30
0
 11
2315.789
 21
265.152
 31
0
 0
LINE
 8
TOOL_0
 5
2D
 10
2315.789
 20
265.152
 30
0
 11
2294.389
 21
265.152
 31
0
 0
ARC
 8
TOOL_0
 5
2E
 10
2294.389
 20
185.152
 30
0
 40
80.0
 50
90.0
 51
270.0
210
0
220
0
230
1.0
 0
LINE
 8
TOOL_0
 5
2F
 10
2294.389
 20
105.152
 30
0
 11
2315.789
 21
105.152
 31
0
 0
LINE
 8
TOOL_0
 5
30
 10
2315.789
 20
105.152
 30
0
 11
2321.301
 21
105.152
 31
0
 0
LINE
 8
TOOL_0
 5
31
 10
2321.301
 20
105.152
 30
0
 11
2626.839
 21
1284.374
 31
0
 0
LINE
 8
TOOL_0
 5
32
 10
2626.839
 20
1284.374
 30
0
 11
2625.839
 21
1284.374
 31
0
 0
LINE
 8
TOOL_0
 5
33
 10
2625.839
 20
1284.374
 30
0
 11
2625.839
 21
0
 31
0
 0
LINE
 8
TOOL_0
 5
34
 10
2625.839
 20
0
 30
0
 11
2626.839
 21
1284.374
 31
0
 0
LINE
 8
TOOL_0
 5
35
 10
2626.839
 20
1284.374
 30
0
 11
2625.839
 21
1284.374
 31
0
 0
LINE
 8
TOOL_0
 5
36
 10
2625.839
 20
1284.374
 30
0
 11
754.895
 21
1284.374
 31
0
 0
LINE
 8
TOOL_0
 5
37
 10
754.895
 20
1284.374
 30
0
 11
753.895
 21
1284.374
 31
0
 0
ENDSEC
 0
EOF

