0
SECTION
2
TABLES
0
TABLE
2
LAYER
70
0
0
LAYER
2
LAYER_NAME
70
0
62
1
6
CONTINUOUS
0
ENDTAB
0
ENDSEC
 0
SECTION
 2
ENTITIES
 0
LINE
 8
TOOL_0
 5
1
 10
678.18
 20
108.313
 30
0
 11
708.18
 21
108.313
 31
0
 0
LINE
 8
TOOL_0
 5
2
 10
708.18
 20
108.313
 30
0
 11
708.18
 21
138.313
 31
0
 0
ARC
 8
TOOL_0
 5
3
 10
688.18
 20
138.313
 30
0
 40
20.0
 50
0
 51
90.0
210
0
220
0
230
1.0
 0
LINE
 8
TOOL_0
 5
4
 10
688.18
 20
158.313
 30
0
 11
278.18
 21
158.313
 31
0
 0
ARC
 8
TOOL_0
 5
5
 10
278.18
 20
138.313
 30
0
 40
20.0
 50
90.0
 51
180.0
210
0
220
0
230
1.0
 0
LINE
 8
TOOL_0
 5
6
 10
258.18
 20
138.313
 30
0
 11
258.18
 21
78.313
 31
0
 0
ARC
 8
TOOL_0
 5
7
 10
278.18
 20
78.313
 30
0
 40
20.0
 50
180.0
 51
270.0
210
0
220
0
230
1.0
 0
LINE
 8
TOOL_0
 5
8
 10
278.18
 20
58.313
 30
0
 11
688.18
 21
58.313
 31
0
 0
ARC
 8
TOOL_0
 5
9
 10
688.18
 20
78.313
 30
0
 40
20.0
 50
270.0
 51
0
210
0
220
0
230
1.0
 0
LINE
 8
TOOL_0
 5
A
 10
708.18
 20
78.313
 30
0
 11
708.18
 21
108.313
 31
0
 0
LINE
 8
TOOL_0
 5
B
 10
708.18
 20
108.313
 30
0
 11
704.644
 21
111.849
 31
0
 0
LINE
 8
TOOL_0
 5
C
 10
704.644
 20
111.849
 30
0
 11
989.83
 21
11.665
 31
0
 0
LINE
 8
TOOL_0
 5
D
 10
989.83
 20
11.665
 30
0
 11
954.83
 21
11.665
 31
0
 0
LINE
 8
TOOL_0
 5
E
 10
954.83
 20
11.665
 30
0
 11
951.931
 21
12.443
 31
0
 0
ARC
 8
TOOL_0
 5
F
 10
938.18
 20
28.314
 30
0
 40
20.999491470033
 50
270.0
 51
310.906410734515
210
0
220
0
230
1.0
 0
LINE
 8
TOOL_0
 5
10
 10
938.18
 20
7.314
 30
0
 11
28.18
 21
7.314
 31
0
 0
ARC
 8
TOOL_0
 5
11
 10
28.18
 20
28.314
 30
0
 40
21.0
 50
180.0
 51
270.0
210
0
220
0
230
1.0
 0
LINE
 8
TOOL_0
 5
12
 10
7.18
 20
28.314
 30
0
 11
7.18
 21
337.314
 31
0
 0
ARC
 8
TOOL_0
 5
13
 10
28.18
 20
337.314
 30
0
 40
21.0
 50
90.0
 51
180.0
210
0
220
0
230
1.0
 0
LINE
 8
TOOL_0
 5
14
 10
28.18
 20
358.314
 30
0
 11
238.18
 21
358.314
 31
0
 0
ARC
 8
TOOL_0
 5
15
 10
238.18
 20
337.314
 30
0
 40
21.0
 50
0
 51
90.0
210
0
220
0
230
1.0
 0
LINE
 8
TOOL_0
 5
16
 10
259.18
 20
337.314
 30
0
 11
259.18
 21
228.314
 31
0
 0
ARC
 8
TOOL_0
 5
17
 10
278.18
 20
228.314
 30
0
 40
19.0
 50
180.0
 51
270.0
210
0
220
0
230
1.0
 0
LINE
 8
TOOL_0
 5
18
 10
278.18
 20
209.314
 30
0
 11
688.18
 21
209.314
 31
0
 0
ARC
 8
TOOL_0
 5
19
 10
688.18
 20
228.314
 30
0
 40
19.0
 50
270.0
 51
0
210
0
220
0
230
1.0
 0
LINE
 8
TOOL_0
 5
1A
 10
707.18
 20
228.314
 30
0
 11
707.18
 21
337.314
 31
0
 0
ARC
 8
TOOL_0
 5
1B
 10
728.18
 20
337.314
 30
0
 40
21.0
 50
90.0
 51
180.0
210
0
220
0
230
1.0
 0
LINE
 8
TOOL_0
 5
1C
 10
728.18
 20
358.314
 30
0
 11
938.18
 21
358.314
 31
0
 0
ARC
 8
TOOL_0
 5
1D
 10
938.18
 20
337.314
 30
0
 40
21.0
 50
0
 51
90.0
210
0
220
0
230
1.0
 0
LINE
 8
TOOL_0
 5
1E
 10
959.18
 20
337.314
 30
0
 11
959.18
 21
28.314
 31
0
 0
ARC
 8
TOOL_0
 5
1F
 10
938.18
 20
28.314
 30
0
 40
21.0
 50
319.097437994782
 51
0
210
0
220
0
230
1.0
 0
LINE
 8
TOOL_0
 5
20
 10
954.052
 20
14.564
 30
0
 11
954.83
 21
11.665
 31
0
 0
LINE
 8
TOOL_0
 5
21
 10
954.83
 20
11.665
 30
0
 11
954.83
 21
6.665
 31
0
 0
ENDSEC
 0
EOF

