0
SECTION
2
TABLES
0
TABLE
2
LAYER
70
0
0
LAYER
2
LAYER_NAME
70
0
62
1
6
CONTINUOUS
0
ENDTAB
0
ENDSEC
 0
SECTION
 2
ENTITIES
 0
LINE
 8
TOOL_0
 5
1
 10
463.854
 20
876.238
 30
0
 11
436.196
 21
876.238
 31
0
 0
LINE
 8
TOOL_0
 5
2
 10
436.196
 20
876.238
 30
0
 11
202.196
 21
876.238
 31
0
 0
ARC
 8
TOOL_0
 5
3
 10
202.196
 20
908.938
 30
0
 40
32.7
 50
180.0
 51
270.0
210
0
220
0
230
1.0
 0
LINE
 8
TOOL_0
 5
4
 10
169.496
 20
908.938
 30
0
 11
169.496
 21
1036.938
 31
0
 0
ARC
 8
TOOL_0
 5
5
 10
202.196
 20
1036.938
 30
0
 40
32.7
 50
90.0
 51
180.0
210
0
220
0
230
1.0
 0
LINE
 8
TOOL_0
 5
6
 10
202.196
 20
1069.638
 30
0
 11
436.196
 21
1069.638
 31
0
 0
ARC
 8
TOOL_0
 5
7
 10
436.196
 20
1036.938
 30
0
 40
32.7
 50
0
 51
90.0
210
0
220
0
230
1.0
 0
LINE
 8
TOOL_0
 5
8
 10
468.896
 20
1036.938
 30
0
 11
468.896
 21
908.938
 31
0
 0
ARC
 8
TOOL_0
 5
9
 10
436.196
 20
908.938
 30
0
 40
32.7
 50
270.0
 51
0
210
0
220
0
230
1.0
 0
LINE
 8
TOOL_0
 5
A
 10
436.196
 20
876.238
 30
0
 11
436.196
 21
866.602
 31
0
 0
LINE
 8
TOOL_0
 5
B
 10
436.196
 20
866.602
 30
0
 11
375.532
 21
1120.622
 31
0
 0
LINE
 8
TOOL_0
 5
C
 10
375.532
 20
1120.622
 30
0
 11
344.891
 21
1120.622
 31
0
 0
LINE
 8
TOOL_0
 5
D
 10
344.891
 20
1120.622
 30
0
 11
110.891
 21
1120.622
 31
0
 0
ARC
 8
TOOL_0
 5
E
 10
110.891
 20
1153.322
 30
0
 40
32.7
 50
180.0
 51
270.0
210
0
220
0
230
1.0
 0
LINE
 8
TOOL_0
 5
F
 10
78.191
 20
1153.322
 30
0
 11
78.191
 21
1281.322
 31
0
 0
ARC
 8
TOOL_0
 5
10
 10
110.891
 20
1281.322
 30
0
 40
32.7
 50
90.0
 51
180.0
210
0
220
0
230
1.0
 0
LINE
 8
TOOL_0
 5
11
 10
110.891
 20
1314.022
 30
0
 11
344.891
 21
1314.022
 31
0
 0
ARC
 8
TOOL_0
 5
12
 10
344.891
 20
1281.322
 30
0
 40
32.7
 50
0
 51
90.0
210
0
220
0
230
1.0
 0
LINE
 8
TOOL_0
 5
13
 10
377.591
 20
1281.322
 30
0
 11
377.591
 21
1153.322
 31
0
 0
ARC
 8
TOOL_0
 5
14
 10
344.891
 20
1153.322
 30
0
 40
32.7
 50
270.0
 51
0
210
0
220
0
230
1.0
 0
LINE
 8
TOOL_0
 5
15
 10
344.891
 20
1120.622
 30
0
 11
344.891
 21
1110.307
 31
0
 0
LINE
 8
TOOL_0
 5
16
 10
344.891
 20
1110.307
 30
0
 11
483.418
 21
1347.663
 31
0
 0
LINE
 8
TOOL_0
 5
17
 10
483.418
 20
1347.663
 30
0
 11
458.161
 21
1347.663
 31
0
 0
LINE
 8
TOOL_0
 5
18
 10
458.161
 20
1347.663
 30
0
 11
224.161
 21
1347.663
 31
0
 0
ARC
 8
TOOL_0
 5
19
 10
224.161
 20
1380.363
 30
0
 40
32.7
 50
180.0
 51
270.0
210
0
220
0
230
1.0
 0
LINE
 8
TOOL_0
 5
1A
 10
191.461
 20
1380.363
 30
0
 11
191.461
 21
1508.363
 31
0
 0
ARC
 8
TOOL_0
 5
1B
 10
224.161
 20
1508.363
 30
0
 40
32.7
 50
90.0
 51
180.0
210
0
220
0
230
1.0
 0
LINE
 8
TOOL_0
 5
1C
 10
224.161
 20
1541.063
 30
0
 11
458.161
 21
1541.063
 31
0
 0
ARC
 8
TOOL_0
 5
1D
 10
458.161
 20
1508.363
 30
0
 40
32.7
 50
0
 51
90.0
210
0
220
0
230
1.0
 0
LINE
 8
TOOL_0
 5
1E
 10
490.861
 20
1508.363
 30
0
 11
490.861
 21
1380.363
 31
0
 0
ARC
 8
TOOL_0
 5
1F
 10
458.161
 20
1380.363
 30
0
 40
32.7
 50
270.0
 51
0
210
0
220
0
230
1.0
 0
LINE
 8
TOOL_0
 5
20
 10
458.161
 20
1347.663
 30
0
 11
466.536
 21
1347.663
 31
0
 0
LINE
 8
TOOL_0
 5
21
 10
466.536
 20
1347.663
 30
0
 11
255.499
 21
1604.48
 31
0
 0
LINE
 8
TOOL_0
 5
22
 10
255.499
 20
1604.48
 30
0
 11
520.0
 21
1604.48
 31
0
 0
LINE
 8
TOOL_0
 5
23
 10
520.0
 20
1604.48
 30
0
 11
521.0
 21
1604.48
 31
0
 0
ENDSEC
 0
EOF

