0
SECTION
2
TABLES
0
TABLE
2
LAYER
70
0
0
LAYER
2
LAYER_NAME
70
0
62
1
6
CONTINUOUS
0
ENDTAB
0
ENDSEC
 0
SECTION
 2
ENTITIES
 0
LINE
 8
TOOL_0
 5
1
 10
6810.402
 20
23.643
 30
0
 11
6787.5
 21
23.643
 31
0
 0
LINE
 8
TOOL_0
 5
2
 10
6787.5
 20
23.643
 30
0
 11
12.5
 21
23.643
 31
0
 0
LINE
 8
TOOL_0
 5
3
 10
12.5
 20
23.643
 30
0
 11
12.5
 21
469.643
 31
0
 0
LINE
 8
TOOL_0
 5
4
 10
12.5
 20
469.643
 30
0
 11
6787.5
 21
469.643
 31
0
 0
LINE
 8
TOOL_0
 5
5
 10
6787.5
 20
469.643
 30
0
 11
6787.5
 21
23.643
 31
0
 0
LINE
 8
TOOL_0
 5
6
 10
6787.5
 20
23.643
 30
0
 11
6787.5
 21
15.009
 31
0
 0
LINE
 8
TOOL_0
 5
7
 10
6787.5
 20
15.009
 30
0
 11
6814.53
 21
492.399
 31
0
 0
LINE
 8
TOOL_0
 5
8
 10
6814.53
 20
492.399
 30
0
 11
6787.5
 21
492.399
 31
0
 0
LINE
 8
TOOL_0
 5
9
 10
6787.5
 20
492.399
 30
0
 11
12.5
 21
492.399
 31
0
 0
LINE
 8
TOOL_0
 5
A
 10
12.5
 20
492.399
 30
0
 11
12.5
 21
938.399
 31
0
 0
LINE
 8
TOOL_0
 5
B
 10
12.5
 20
938.399
 30
0
 11
6787.5
 21
938.399
 31
0
 0
LINE
 8
TOOL_0
 5
C
 10
6787.5
 20
938.399
 30
0
 11
6787.5
 21
492.399
 31
0
 0
LINE
 8
TOOL_0
 5
D
 10
6787.5
 20
492.399
 30
0
 11
6787.5
 21
485.446
 31
0
 0
LINE
 8
TOOL_0
 5
E
 10
6787.5
 20
485.446
 30
0
 11
6134.071
 21
985.891
 31
0
 0
LINE
 8
TOOL_0
 5
F
 10
6134.071
 20
985.891
 30
0
 11
6134.071
 21
965.353
 31
0
 0
LINE
 8
TOOL_0
 5
10
 10
6134.071
 20
965.353
 30
0
 11
6110.0
 21
967.181
 31
0
 0
LINE
 8
TOOL_0
 5
11
 10
6110.0
 20
967.181
 30
0
 11
20.0
 21
967.181
 31
0
 0
LINE
 8
TOOL_0
 5
12
 10
20.0
 20
967.181
 30
0
 11
20.0
 21
1357.181
 31
0
 0
LINE
 8
TOOL_0
 5
13
 10
20.0
 20
1357.181
 30
0
 11
6110.0
 21
1357.181
 31
0
 0
LINE
 8
TOOL_0
 5
14
 10
6110.0
 20
1357.181
 30
0
 11
6110.0
 21
967.181
 31
0
 0
LINE
 8
TOOL_0
 5
15
 10
6110.0
 20
967.181
 30
0
 11
6110.0
 21
958.895
 31
0
 0
LINE
 8
TOOL_0
 5
16
 10
6110.0
 20
958.895
 30
0
 11
6143.082
 21
1416.987
 31
0
 0
LINE
 8
TOOL_0
 5
17
 10
6143.082
 20
1416.987
 30
0
 11
6143.082
 21
1381.608
 31
0
 0
LINE
 8
TOOL_0
 5
18
 10
6143.082
 20
1381.608
 30
0
 11
6110.0
 21
1381.005
 31
0
 0
LINE
 8
TOOL_0
 5
19
 10
6110.0
 20
1381.005
 30
0
 11
20.0
 21
1381.005
 31
0
 0
LINE
 8
TOOL_0
 5
1A
 10
20.0
 20
1381.005
 30
0
 11
20.0
 21
1771.005
 31
0
 0
LINE
 8
TOOL_0
 5
1B
 10
20.0
 20
1771.005
 30
0
 11
6110.0
 21
1771.005
 31
0
 0
LINE
 8
TOOL_0
 5
1C
 10
6110.0
 20
1771.005
 30
0
 11
6110.0
 21
1381.005
 31
0
 0
LINE
 8
TOOL_0
 5
1D
 10
6110.0
 20
1381.005
 30
0
 11
6110.0
 21
1373.581
 31
0
 0
LINE
 8
TOOL_0
 5
1E
 10
6110.0
 20
1373.581
 30
0
 11
782.816
 21
1939.906
 31
0
 0
LINE
 8
TOOL_0
 5
1F
 10
782.816
 20
1939.906
 30
0
 11
812.816
 21
1939.906
 31
0
 0
LINE
 8
TOOL_0
 5
20
 10
812.816
 20
1939.906
 30
0
 11
812.816
 21
1974.906
 31
0
 0
ARC
 8
TOOL_0
 5
21
 10
792.816
 20
1974.906
 30
0
 40
20.0
 50
0
 51
90.0
210
0
220
0
230
1.0
 0
LINE
 8
TOOL_0
 5
22
 10
792.816
 20
1994.906
 30
0
 11
382.816
 21
1994.906
 31
0
 0
ARC
 8
TOOL_0
 5
23
 10
382.816
 20
1974.906
 30
0
 40
20.0
 50
90.0
 51
180.0
210
0
220
0
230
1.0
 0
LINE
 8
TOOL_0
 5
24
 10
362.816
 20
1974.906
 30
0
 11
362.816
 21
1904.906
 31
0
 0
ARC
 8
TOOL_0
 5
25
 10
382.816
 20
1904.906
 30
0
 40
20.0
 50
180.0
 51
270.0
210
0
220
0
230
1.0
 0
LINE
 8
TOOL_0
 5
26
 10
382.816
 20
1884.906
 30
0
 11
792.816
 21
1884.906
 31
0
 0
ARC
 8
TOOL_0
 5
27
 10
792.816
 20
1904.906
 30
0
 40
20.0
 50
270.0
 51
0
210
0
220
0
230
1.0
 0
LINE
 8
TOOL_0
 5
28
 10
812.816
 20
1904.906
 30
0
 11
812.816
 21
1939.906
 31
0
 0
LINE
 8
TOOL_0
 5
29
 10
812.816
 20
1939.906
 30
0
 11
805.745
 21
1946.977
 31
0
 0
LINE
 8
TOOL_0
 5
2A
 10
805.745
 20
1946.977
 30
0
 11
1134.067
 21
1896.232
 31
0
 0
LINE
 8
TOOL_0
 5
2B
 10
1134.067
 20
1896.232
 30
0
 11
1134.067
 21
1861.156
 31
0
 0
LINE
 8
TOOL_0
 5
2C
 10
1134.067
 20
1861.156
 30
0
 11
1134.067
 21
1799.906
 31
0
 0
LINE
 8
TOOL_0
 5
2D
 10
1134.067
 20
1799.906
 30
0
 11
41.567
 21
1799.906
 31
0
 0
LINE
 8
TOOL_0
 5
2E
 10
41.567
 20
1799.906
 30
0
 11
41.567
 21
1861.156
 31
0
 0
LINE
 8
TOOL_0
 5
2F
 10
41.567
 20
1861.156
 30
0
 11
72.817
 21
1861.156
 31
0
 0
ARC
 8
TOOL_0
 5
30
 10
72.817
 20
1879.906
 30
0
 40
18.75
 50
270.0
 51
0
210
0
220
0
230
1.0
 0
LINE
 8
TOOL_0
 5
31
 10
91.567
 20
1879.906
 30
0
 11
91.567
 21
2019.906
 31
0
 0
ARC
 8
TOOL_0
 5
32
 10
72.817
 20
2019.906
 30
0
 40
18.75
 50
0
 51
90.0
210
0
220
0
230
1.0
 0
LINE
 8
TOOL_0
 5
33
 10
72.817
 20
2038.656
 30
0
 11
41.567
 21
2038.656
 31
0
 0
LINE
 8
TOOL_0
 5
34
 10
41.567
 20
2038.656
 30
0
 11
41.567
 21
2135.806
 31
0
 0
LINE
 8
TOOL_0
 5
35
 10
41.567
 20
2135.806
 30
0
 11
223.058
 21
2135.806
 31
0
 0
LINE
 8
TOOL_0
 5
36
 10
223.058
 20
2135.806
 30
0
 11
292.34
 21
2095.806
 31
0
 0
LINE
 8
TOOL_0
 5
37
 10
292.34
 20
2095.806
 30
0
 11
423.19
 21
2095.806
 31
0
 0
LINE
 8
TOOL_0
 5
38
 10
423.19
 20
2095.806
 30
0
 11
453.19
 21
2065.806
 31
0
 0
LINE
 8
TOOL_0
 5
39
 10
453.19
 20
2065.806
 30
0
 11
722.444
 21
2065.806
 31
0
 0
LINE
 8
TOOL_0
 5
3A
 10
722.444
 20
2065.806
 30
0
 11
752.444
 21
2095.806
 31
0
 0
LINE
 8
TOOL_0
 5
3B
 10
752.444
 20
2095.806
 30
0
 11
883.294
 21
2095.806
 31
0
 0
LINE
 8
TOOL_0
 5
3C
 10
883.294
 20
2095.806
 30
0
 11
952.576
 21
2135.806
 31
0
 0
LINE
 8
TOOL_0
 5
3D
 10
952.576
 20
2135.806
 30
0
 11
1134.067
 21
2135.806
 31
0
 0
LINE
 8
TOOL_0
 5
3E
 10
1134.067
 20
2135.806
 30
0
 11
1134.067
 21
2038.656
 31
0
 0
LINE
 8
TOOL_0
 5
3F
 10
1134.067
 20
2038.656
 30
0
 11
1102.817
 21
2038.656
 31
0
 0
ARC
 8
TOOL_0
 5
40
 10
1102.817
 20
2019.906
 30
0
 40
18.75
 50
90.0
 51
180.0
210
0
220
0
230
1.0
 0
LINE
 8
TOOL_0
 5
41
 10
1084.067
 20
2019.906
 30
0
 11
1084.067
 21
1879.906
 31
0
 0
ARC
 8
TOOL_0
 5
42
 10
1102.817
 20
1879.906
 30
0
 40
18.75
 50
180.0
 51
270.0
210
0
220
0
230
1.0
 0
LINE
 8
TOOL_0
 5
43
 10
1102.817
 20
1861.156
 30
0
 11
1134.067
 21
1861.156
 31
0
 0
LINE
 8
TOOL_0
 5
44
 10
1134.067
 20
1861.156
 30
0
 11
1143.619
 21
1861.156
 31
0
 0
LINE
 8
TOOL_0
 5
45
 10
1143.619
 20
1861.156
 30
0
 11
0.002
 21
2166.167
 31
0
 0
LINE
 8
TOOL_0
 5
46
 10
0.002
 20
2166.167
 30
0
 11
1.002
 21
2166.167
 31
0
 0
LINE
 8
TOOL_0
 5
47
 10
1.002
 20
2166.167
 30
0
 11
0.002
 21
2166.167
 31
0
 0
LINE
 8
TOOL_0
 5
48
 10
0.002
 20
2166.167
 30
0
 11
1.002
 21
2166.167
 31
0
 0
LINE
 8
TOOL_0
 5
49
 10
1.002
 20
2166.167
 30
0
 11
1193.422
 21
2166.167
 31
0
 0
LINE
 8
TOOL_0
 5
4A
 10
1193.422
 20
2166.167
 30
0
 11
1193.422
 21
1819.182
 31
0
 0
LINE
 8
TOOL_0
 5
4B
 10
1193.422
 20
1819.182
 30
0
 11
6183.13
 21
1819.182
 31
0
 0
LINE
 8
TOOL_0
 5
4C
 10
6183.13
 20
1819.182
 30
0
 11
6257.168
 21
972.924
 31
0
 0
LINE
 8
TOOL_0
 5
4D
 10
6257.168
 20
972.924
 30
0
 11
6799.001
 21
972.924
 31
0
 0
LINE
 8
TOOL_0
 5
4E
 10
6799.001
 20
972.924
 30
0
 11
6800.001
 21
972.924
 31
0
 0
ENDSEC
 0
EOF

