0
SECTION
2
TABLES
0
TABLE
2
LAYER
70
0
0
LAYER
2
LAYER_NAME
70
0
62
1
6
CONTINUOUS
0
ENDTAB
0
ENDSEC
 0
SECTION
 2
ENTITIES
 0
LINE
 8
TOOL_0
 5
1
 10
1669.37
 20
857.142
 30
0
 11
1634.396
 21
858.485
 31
0
 0
LINE
 8
TOOL_0
 5
2
 10
1634.396
 20
858.485
 30
0
 11
1588.085
 21
815.6
 31
0
 0
ARC
 8
TOOL_0
 5
3
 10
1540.184
 20
867.328
 30
0
 40
70.500296346895
 50
270.0
 51
312.800206794401
210
0
220
0
230
1.0
 0
LINE
 8
TOOL_0
 5
4
 10
1540.184
 20
796.828
 30
0
 11
1525.05
 21
796.828
 31
0
 0
ARC
 8
TOOL_0
 5
5
 10
1525.05
 20
867.328
 30
0
 40
70.5
 50
227.199793205599
 51
270.0
210
0
220
0
230
1.0
 0
LINE
 8
TOOL_0
 5
6
 10
1477.149
 20
815.6
 30
0
 11
1430.838
 21
858.484
 31
0
 0
ARC
 8
TOOL_0
 5
7
 10
1444.767
 20
873.525
 30
0
 40
20.499968829245
 50
199.920785441378
 51
227.19819273391
210
0
220
0
230
1.0
 0
LINE
 8
TOOL_0
 5
8
 10
1425.493
 20
866.54
 30
0
 11
1393.139
 21
955.803
 31
0
 0
ARC
 8
TOOL_0
 5
9
 10
1440.617
 20
973.011
 30
0
 40
50.50025493005
 50
179.998865430109
 51
199.922620719171
210
0
220
0
230
1.0
 0
LINE
 8
TOOL_0
 5
A
 10
1390.117
 20
973.012
 30
0
 11
1390.117
 21
1304.037
 31
0
 0
ARC
 8
TOOL_0
 5
B
 10
1440.617
 20
1304.037
 30
0
 40
50.5
 50
139.202791978101
 51
180.0
210
0
220
0
230
1.0
 0
LINE
 8
TOOL_0
 5
C
 10
1402.387
 20
1337.033
 30
0
 11
1468.59
 21
1413.737
 31
0
 0
ARC
 8
TOOL_0
 5
D
 10
1431.117
 20
1446.08
 30
0
 40
49.500458361514
 50
319.202476090436
 51
359.998842509505
210
0
220
0
230
1.0
 0
LINE
 8
TOOL_0
 5
E
 10
1480.617
 20
1446.079
 30
0
 11
1480.617
 21
1744.327
 31
0
 0
ARC
 8
TOOL_0
 5
F
 10
1491.117
 20
1744.327
 30
0
 40
10.5
 50
90.0
 51
180.0
210
0
220
0
230
1.0
 0
LINE
 8
TOOL_0
 5
10
 10
1491.117
 20
1754.827
 30
0
 11
1574.117
 21
1754.827
 31
0
 0
ARC
 8
TOOL_0
 5
11
 10
1574.117
 20
1744.327
 30
0
 40
10.5
 50
0
 51
90.0
210
0
220
0
230
1.0
 0
LINE
 8
TOOL_0
 5
12
 10
1584.617
 20
1744.327
 30
0
 11
1584.617
 21
1446.079
 31
0
 0
ARC
 8
TOOL_0
 5
13
 10
1634.117
 20
1446.079
 30
0
 40
49.5
 50
180.0
 51
220.797523909564
210
0
220
0
230
1.0
 0
LINE
 8
TOOL_0
 5
14
 10
1596.644
 20
1413.736
 30
0
 11
1662.847
 21
1337.032
 31
0
 0
ARC
 8
TOOL_0
 5
15
 10
1624.617
 20
1304.036
 30
0
 40
50.500187286782
 50
0
 51
40.797208021899
210
0
220
0
230
1.0
 0
LINE
 8
TOOL_0
 5
16
 10
1675.117
 20
1304.036
 30
0
 11
1675.117
 21
973.01
 31
0
 0
ARC
 8
TOOL_0
 5
17
 10
1624.617
 20
973.01
 30
0
 40
50.5
 50
340.077379280828
 51
0
210
0
220
0
230
1.0
 0
LINE
 8
TOOL_0
 5
18
 10
1672.095
 20
955.802
 30
0
 11
1639.741
 21
866.539
 31
0
 0
ARC
 8
TOOL_0
 5
19
 10
1620.468
 20
873.525
 30
0
 40
20.500066463307
 50
312.797857570943
 51
340.075634603523
210
0
220
0
230
1.0
 0
LINE
 8
TOOL_0
 5
1A
 10
1634.396
 20
858.483
 30
0
 11
1634.204
 21
853.487
 31
0
 0
LINE
 8
TOOL_0
 5
1B
 10
1634.204
 20
853.487
 30
0
 11
1071.0
 21
2143.499
 31
0
 0
LINE
 8
TOOL_0
 5
1C
 10
1071.0
 20
2143.499
 30
0
 11
1101.0
 21
2143.499
 31
0
 0
ARC
 8
TOOL_0
 5
1D
 10
1066.0
 20
2143.499
 30
0
 40
35.0
 50
0
 51
180.0
210
0
220
0
230
1.0
 0
ARC
 8
TOOL_0
 5
1E
 10
1066.0
 20
2143.499
 30
0
 40
35.0
 50
180.0
 51
0
210
0
220
0
230
1.0
 0
LINE
 8
TOOL_0
 5
1F
 10
1101.0
 20
2143.499
 30
0
 11
1093.929
 21
2150.57
 31
0
 0
LINE
 8
TOOL_0
 5
20
 10
1093.929
 20
2150.57
 30
0
 11
1084.0
 21
1903.499
 31
0
 0
LINE
 8
TOOL_0
 5
21
 10
1084.0
 20
1903.499
 30
0
 11
1114.0
 21
1903.499
 31
0
 0
ARC
 8
TOOL_0
 5
22
 10
1094.0
 20
1903.499
 30
0
 40
20.0
 50
0
 51
66.867990902554
210
0
220
0
230
1.0
 0
LINE
 8
TOOL_0
 5
23
 10
1101.857
 20
1921.891
 30
0
 11
1078.178
 21
1932.007
 31
0
 0
ARC
 8
TOOL_0
 5
24
 10
1065.999
 20
1903.321
 30
0
 40
31.164316726025
 50
66.9957430162
 51
113.002564662372
210
0
220
0
230
1.0
 0
LINE
 8
TOOL_0
 5
25
 10
1053.821
 20
1932.007
 30
0
 11
1030.142
 21
1921.891
 31
0
 0
ARC
 8
TOOL_0
 5
26
 10
1037.999
 20
1903.499
 30
0
 40
19.999952824944
 50
113.132009097445
 51
246.867990902554
210
0
220
0
230
1.0
 0
LINE
 8
TOOL_0
 5
27
 10
1030.142
 20
1885.107
 30
0
 11
1053.821
 21
1874.991
 31
0
 0
ARC
 8
TOOL_0
 5
28
 10
1066.0
 20
1903.678
 30
0
 40
31.165237204295
 50
246.996461482193
 51
293.001846237354
210
0
220
0
230
1.0
 0
LINE
 8
TOOL_0
 5
29
 10
1078.178
 20
1874.991
 30
0
 11
1101.857
 21
1885.107
 31
0
 0
ARC
 8
TOOL_0
 5
2A
 10
1094.0
 20
1903.499
 30
0
 40
19.999952824944
 50
293.132009097446
 51
0
210
0
220
0
230
1.0
 0
LINE
 8
TOOL_0
 5
2B
 10
1114.0
 20
1903.499
 30
0
 11
1106.929
 21
1910.57
 31
0
 0
LINE
 8
TOOL_0
 5
2C
 10
1106.929
 20
1910.57
 30
0
 11
633.5
 21
1853.499
 31
0
 0
LINE
 8
TOOL_0
 5
2D
 10
633.5
 20
1853.499
 30
0
 11
663.5
 21
1853.499
 31
0
 0
LINE
 8
TOOL_0
 5
2E
 10
663.5
 20
1853.499
 30
0
 11
663.5
 21
1883.499
 31
0
 0
ARC
 8
TOOL_0
 5
2F
 10
653.5
 20
1883.499
 30
0
 40
10.0
 50
0
 51
90.0
210
0
220
0
230
1.0
 0
LINE
 8
TOOL_0
 5
30
 10
653.5
 20
1893.499
 30
0
 11
473.5
 21
1893.499
 31
0
 0
ARC
 8
TOOL_0
 5
31
 10
473.5
 20
1883.499
 30
0
 40
10.0
 50
90.0
 51
180.0
210
0
220
0
230
1.0
 0
LINE
 8
TOOL_0
 5
32
 10
463.5
 20
1883.499
 30
0
 11
463.5
 21
1823.499
 31
0
 0
ARC
 8
TOOL_0
 5
33
 10
473.5
 20
1823.499
 30
0
 40
10.0
 50
180.0
 51
270.0
210
0
220
0
230
1.0
 0
LINE
 8
TOOL_0
 5
34
 10
473.5
 20
1813.499
 30
0
 11
653.5
 21
1813.499
 31
0
 0
ARC
 8
TOOL_0
 5
35
 10
653.5
 20
1823.499
 30
0
 40
10.0
 50
270.0
 51
0
210
0
220
0
230
1.0
 0
LINE
 8
TOOL_0
 5
36
 10
663.5
 20
1823.499
 30
0
 11
663.5
 21
1853.499
 31
0
 0
LINE
 8
TOOL_0
 5
37
 10
663.5
 20
1853.499
 30
0
 11
656.429
 21
1860.57
 31
0
 0
LINE
 8
TOOL_0
 5
38
 10
656.429
 20
1860.57
 30
0
 11
363.5
 21
95.499
 31
0
 0
LINE
 8
TOOL_0
 5
39
 10
363.5
 20
95.499
 30
0
 11
393.5
 21
95.499
 31
0
 0
LINE
 8
TOOL_0
 5
3A
 10
393.5
 20
95.499
 30
0
 11
393.5
 21
125.499
 31
0
 0
ARC
 8
TOOL_0
 5
3B
 10
363.5
 20
125.499
 30
0
 40
30.0
 50
0
 51
90.0
210
0
220
0
230
1.0
 0
LINE
 8
TOOL_0
 5
3C
 10
363.5
 20
155.499
 30
0
 11
293.5
 21
155.499
 31
0
 0
ARC
 8
TOOL_0
 5
3D
 10
293.5
 20
125.499
 30
0
 40
30.0
 50
90.0
 51
180.0
210
0
220
0
230
1.0
 0
LINE
 8
TOOL_0
 5
3E
 10
263.5
 20
125.499
 30
0
 11
263.5
 21
65.499
 31
0
 0
ARC
 8
TOOL_0
 5
3F
 10
273.5
 20
65.499
 30
0
 40
10.0
 50
180.0
 51
270.0
210
0
220
0
230
1.0
 0
LINE
 8
TOOL_0
 5
40
 10
273.5
 20
55.499
 30
0
 11
383.5
 21
55.499
 31
0
 0
ARC
 8
TOOL_0
 5
41
 10
383.5
 20
65.499
 30
0
 40
10.0
 50
270.0
 51
0
210
0
220
0
230
1.0
 0
LINE
 8
TOOL_0
 5
42
 10
393.5
 20
65.499
 30
0
 11
393.5
 21
95.499
 31
0
 0
LINE
 8
TOOL_0
 5
43
 10
393.5
 20
95.499
 30
0
 11
386.429
 21
102.57
 31
0
 0
LINE
 8
TOOL_0
 5
44
 10
386.429
 20
102.57
 30
0
 11
443.5
 21
215.499
 31
0
 0
LINE
 8
TOOL_0
 5
45
 10
443.5
 20
215.499
 30
0
 11
473.5
 21
215.499
 31
0
 0
LINE
 8
TOOL_0
 5
46
 10
473.5
 20
215.499
 30
0
 11
473.5
 21
245.499
 31
0
 0
ARC
 8
TOOL_0
 5
47
 10
453.5
 20
245.499
 30
0
 40
20.0
 50
0
 51
90.0
210
0
220
0
230
1.0
 0
LINE
 8
TOOL_0
 5
48
 10
453.5
 20
265.499
 30
0
 11
393.5
 21
265.499
 31
0
 0
ARC
 8
TOOL_0
 5
49
 10
393.5
 20
245.499
 30
0
 40
20.0
 50
90.0
 51
180.0
210
0
220
0
230
1.0
 0
LINE
 8
TOOL_0
 5
4A
 10
373.5
 20
245.499
 30
0
 11
373.5
 21
185.499
 31
0
 0
ARC
 8
TOOL_0
 5
4B
 10
393.5
 20
185.499
 30
0
 40
20.0
 50
180.0
 51
270.0
210
0
220
0
230
1.0
 0
LINE
 8
TOOL_0
 5
4C
 10
393.5
 20
165.499
 30
0
 11
453.5
 21
165.499
 31
0
 0
ARC
 8
TOOL_0
 5
4D
 10
453.5
 20
185.499
 30
0
 40
20.0
 50
270.0
 51
0
210
0
220
0
230
1.0
 0
LINE
 8
TOOL_0
 5
4E
 10
473.5
 20
185.499
 30
0
 11
473.5
 21
215.499
 31
0
 0
LINE
 8
TOOL_0
 5
4F
 10
473.5
 20
215.499
 30
0
 11
466.429
 21
222.57
 31
0
 0
LINE
 8
TOOL_0
 5
50
 10
466.429
 20
222.57
 30
0
 11
1438.5
 21
188.499
 31
0
 0
LINE
 8
TOOL_0
 5
51
 10
1438.5
 20
188.499
 30
0
 11
1468.5
 21
188.499
 31
0
 0
LINE
 8
TOOL_0
 5
52
 10
1468.5
 20
188.499
 30
0
 11
1468.5
 21
218.499
 31
0
 0
ARC
 8
TOOL_0
 5
53
 10
1448.5
 20
218.499
 30
0
 40
20.0
 50
0
 51
90.0
210
0
220
0
230
1.0
 0
LINE
 8
TOOL_0
 5
54
 10
1448.5
 20
238.499
 30
0
 11
1388.5
 21
238.499
 31
0
 0
ARC
 8
TOOL_0
 5
55
 10
1388.5
 20
218.499
 30
0
 40
20.0
 50
90.0
 51
180.0
210
0
220
0
230
1.0
 0
LINE
 8
TOOL_0
 5
56
 10
1368.5
 20
218.499
 30
0
 11
1368.5
 21
158.499
 31
0
 0
ARC
 8
TOOL_0
 5
57
 10
1388.5
 20
158.499
 30
0
 40
20.0
 50
180.0
 51
270.0
210
0
220
0
230
1.0
 0
LINE
 8
TOOL_0
 5
58
 10
1388.5
 20
138.499
 30
0
 11
1448.5
 21
138.499
 31
0
 0
ARC
 8
TOOL_0
 5
59
 10
1448.5
 20
158.499
 30
0
 40
20.0
 50
270.0
 51
0
210
0
220
0
230
1.0
 0
LINE
 8
TOOL_0
 5
5A
 10
1468.5
 20
158.499
 30
0
 11
1468.5
 21
188.499
 31
0
 0
LINE
 8
TOOL_0
 5
5B
 10
1468.5
 20
188.499
 30
0
 11
1461.429
 21
195.57
 31
0
 0
LINE
 8
TOOL_0
 5
5C
 10
1461.429
 20
195.57
 30
0
 11
1519.249
 21
35.834
 31
0
 0
LINE
 8
TOOL_0
 5
5D
 10
1519.249
 20
35.834
 30
0
 11
1494.5
 21
11.085
 31
0
 0
LINE
 8
TOOL_0
 5
5E
 10
1494.5
 20
11.085
 30
0
 11
1485.914
 21
2.499
 31
0
 0
LINE
 8
TOOL_0
 5
5F
 10
1485.914
 20
2.499
 30
0
 11
7.5
 21
2.499
 31
0
 0
ARC
 8
TOOL_0
 5
60
 10
7.5
 20
7.499
 30
0
 40
5.0
 50
180.0
 51
270.0
210
0
220
0
230
1.0
 0
LINE
 8
TOOL_0
 5
61
 10
2.5
 20
7.499
 30
0
 11
2.5
 21
2376.499
 31
0
 0
LINE
 8
TOOL_0
 5
62
 10
2.5
 20
2376.499
 30
0
 11
881.5
 21
2376.499
 31
0
 0
LINE
 8
TOOL_0
 5
63
 10
881.5
 20
2376.499
 30
0
 11
881.5
 21
2278.499
 31
0
 0
ARC
 8
TOOL_0
 5
64
 10
910.5
 20
2278.499
 30
0
 40
29.0
 50
180.0
 51
270.0
210
0
220
0
230
1.0
 0
LINE
 8
TOOL_0
 5
65
 10
910.5
 20
2249.499
 30
0
 11
1627.5
 21
2249.499
 31
0
 0
LINE
 8
TOOL_0
 5
66
 10
1627.5
 20
2249.499
 30
0
 11
1627.5
 21
1917.499
 31
0
 0
LINE
 8
TOOL_0
 5
67
 10
1627.5
 20
1917.499
 30
0
 11
1491.513
 21
1917.499
 31
0
 0
ARC
 8
TOOL_0
 5
68
 10
1492.68
 20
1878.804
 30
0
 40
38.712593738989
 50
91.727456089702
 51
133.085513150769
210
0
220
0
230
1.0
 0
ARC
 8
TOOL_0
 5
69
 10
1524.861
 20
1841.424
 30
0
 40
88.018219897928
 50
131.763334521565
 51
154.797213300508
210
0
220
0
230
1.0
 0
ARC
 8
TOOL_0
 5
6A
 10
1624.026
 20
1791.088
 30
0
 40
199.204719502325
 50
153.842962626577
 51
171.509383253368
210
0
220
0
230
1.0
 0
ARC
 8
TOOL_0
 5
6B
 10
1720.14
 20
1771.881
 30
0
 40
297.139589058745
 50
170.582723702997
 51
180.072887749413
210
0
220
0
230
1.0
 0
LINE
 8
TOOL_0
 5
6C
 10
1423.001
 20
1771.503
 30
0
 11
1423.001
 21
1760.638
 31
0
 0
ARC
 8
TOOL_0
 5
6D
 10
1416.943
 20
1760.666
 30
0
 40
6.058064707479
 50
315.160491959836
 51
359.73518151163
210
0
220
0
230
1.0
 0
LINE
 8
TOOL_0
 5
6E
 10
1421.239
 20
1756.394
 30
0
 11
1416.173
 21
1751.328
 31
0
 0
ARC
 8
TOOL_0
 5
6F
 10
1419.06
 20
1748.475
 30
0
 40
4.058864126822
 50
135.339378696992
 51
179.703572152138
210
0
220
0
230
1.0
 0
LINE
 8
TOOL_0
 5
70
 10
1415.001
 20
1748.496
 30
0
 11
1415.001
 21
1454.5
 31
0
 0
LINE
 8
TOOL_0
 5
71
 10
1415.001
 20
1454.5
 30
0
 11
1386.001
 21
1454.5
 31
0
 0
LINE
 8
TOOL_0
 5
72
 10
1386.001
 20
1454.5
 30
0
 11
1386.001
 21
1458.0
 31
0
 0
ARC
 8
TOOL_0
 5
73
 10
1383.001
 20
1458.0
 30
0
 40
3.0
 50
0
 51
90.0
210
0
220
0
230
1.0
 0
LINE
 8
TOOL_0
 5
74
 10
1383.001
 20
1461.0
 30
0
 11
1328.501
 21
1461.0
 31
0
 0
ARC
 8
TOOL_0
 5
75
 10
1328.501
 20
1262.0
 30
0
 40
199.0
 50
90.0
 51
180.0
210
0
220
0
230
1.0
 0
LINE
 8
TOOL_0
 5
76
 10
1129.501
 20
1262.0
 30
0
 11
1129.501
 21
943.5
 31
0
 0
ARC
 8
TOOL_0
 5
77
 10
1328.501
 20
943.5
 30
0
 40
199.0
 50
180.0
 51
269.99971208151
210
0
220
0
230
1.0
 0
LINE
 8
TOOL_0
 5
78
 10
1328.5
 20
744.5
 30
0
 11
1485.915
 21
744.5
 31
0
 0
LINE
 8
TOOL_0
 5
79
 10
1485.915
 20
744.5
 30
0
 11
1494.501
 21
735.914
 31
0
 0
LINE
 8
TOOL_0
 5
7A
 10
1494.501
 20
735.914
 30
0
 11
1494.501
 21
11.086
 31
0
 0
LINE
 8
TOOL_0
 5
7B
 10
1494.501
 20
11.086
 30
0
 11
1494.501
 21
6.086
 31
0
 0
LINE
 8
TOOL_0
 5
7C
 10
1494.501
 20
6.086
 30
0
 11
1732.964
 21
2190.5
 31
0
 0
LINE
 8
TOOL_0
 5
7D
 10
1732.964
 20
2190.5
 30
0
 11
1762.964
 21
2190.5
 31
0
 0
LINE
 8
TOOL_0
 5
7E
 10
1762.964
 20
2190.5
 30
0
 11
1762.964
 21
2220.5
 31
0
 0
ARC
 8
TOOL_0
 5
7F
 10
1742.964
 20
2220.5
 30
0
 40
20.0
 50
0
 51
90.0
210
0
220
0
230
1.0
 0
LINE
 8
TOOL_0
 5
80
 10
1742.964
 20
2240.5
 30
0
 11
1682.964
 21
2240.5
 31
0
 0
ARC
 8
TOOL_0
 5
81
 10
1682.964
 20
2220.5
 30
0
 40
20.0
 50
90.0
 51
180.0
210
0
220
0
230
1.0
 0
LINE
 8
TOOL_0
 5
82
 10
1662.964
 20
2220.5
 30
0
 11
1662.964
 21
2160.5
 31
0
 0
ARC
 8
TOOL_0
 5
83
 10
1682.964
 20
2160.5
 30
0
 40
20.0
 50
180.0
 51
270.0
210
0
220
0
230
1.0
 0
LINE
 8
TOOL_0
 5
84
 10
1682.964
 20
2140.5
 30
0
 11
1742.964
 21
2140.5
 31
0
 0
ARC
 8
TOOL_0
 5
85
 10
1742.964
 20
2160.5
 30
0
 40
20.0
 50
270.0
 51
0
210
0
220
0
230
1.0
 0
LINE
 8
TOOL_0
 5
86
 10
1762.964
 20
2160.5
 30
0
 11
1762.964
 21
2190.5
 31
0
 0
LINE
 8
TOOL_0
 5
87
 10
1762.964
 20
2190.5
 30
0
 11
1755.893
 21
2197.571
 31
0
 0
LINE
 8
TOOL_0
 5
88
 10
1755.893
 20
2197.571
 30
0
 11
2837.964
 21
2283.5
 31
0
 0
LINE
 8
TOOL_0
 5
89
 10
2837.964
 20
2283.5
 30
0
 11
2867.964
 21
2283.5
 31
0
 0
LINE
 8
TOOL_0
 5
8A
 10
2867.964
 20
2283.5
 30
0
 11
2867.964
 21
2313.5
 31
0
 0
ARC
 8
TOOL_0
 5
8B
 10
2857.964
 20
2313.5
 30
0
 40
10.0
 50
0
 51
90.0
210
0
220
0
230
1.0
 0
LINE
 8
TOOL_0
 5
8C
 10
2857.964
 20
2323.5
 30
0
 11
2747.964
 21
2323.5
 31
0
 0
ARC
 8
TOOL_0
 5
8D
 10
2747.964
 20
2313.5
 30
0
 40
10.0
 50
90.0
 51
180.0
210
0
220
0
230
1.0
 0
LINE
 8
TOOL_0
 5
8E
 10
2737.964
 20
2313.5
 30
0
 11
2737.964
 21
2253.5
 31
0
 0
ARC
 8
TOOL_0
 5
8F
 10
2767.964
 20
2253.5
 30
0
 40
30.0
 50
180.0
 51
270.0
210
0
220
0
230
1.0
 0
LINE
 8
TOOL_0
 5
90
 10
2767.964
 20
2223.5
 30
0
 11
2837.964
 21
2223.5
 31
0
 0
ARC
 8
TOOL_0
 5
91
 10
2837.964
 20
2253.5
 30
0
 40
30.0
 50
270.0
 51
0
210
0
220
0
230
1.0
 0
LINE
 8
TOOL_0
 5
92
 10
2867.964
 20
2253.5
 30
0
 11
2867.964
 21
2283.5
 31
0
 0
LINE
 8
TOOL_0
 5
93
 10
2867.964
 20
2283.5
 30
0
 11
2860.893
 21
2290.571
 31
0
 0
LINE
 8
TOOL_0
 5
94
 10
2860.893
 20
2290.571
 30
0
 11
2727.964
 21
2163.5
 31
0
 0
LINE
 8
TOOL_0
 5
95
 10
2727.964
 20
2163.5
 30
0
 11
2757.964
 21
2163.5
 31
0
 0
LINE
 8
TOOL_0
 5
96
 10
2757.964
 20
2163.5
 30
0
 11
2757.964
 21
2193.5
 31
0
 0
ARC
 8
TOOL_0
 5
97
 10
2737.964
 20
2193.5
 30
0
 40
20.0
 50
0
 51
90.0
210
0
220
0
230
1.0
 0
LINE
 8
TOOL_0
 5
98
 10
2737.964
 20
2213.5
 30
0
 11
2677.964
 21
2213.5
 31
0
 0
ARC
 8
TOOL_0
 5
99
 10
2677.964
 20
2193.5
 30
0
 40
20.0
 50
90.0
 51
180.0
210
0
220
0
230
1.0
 0
LINE
 8
TOOL_0
 5
9A
 10
2657.964
 20
2193.5
 30
0
 11
2657.964
 21
2133.5
 31
0
 0
ARC
 8
TOOL_0
 5
9B
 10
2677.964
 20
2133.5
 30
0
 40
20.0
 50
180.0
 51
270.0
210
0
220
0
230
1.0
 0
LINE
 8
TOOL_0
 5
9C
 10
2677.964
 20
2113.5
 30
0
 11
2737.964
 21
2113.5
 31
0
 0
ARC
 8
TOOL_0
 5
9D
 10
2737.964
 20
2133.5
 30
0
 40
20.0
 50
270.0
 51
0
210
0
220
0
230
1.0
 0
LINE
 8
TOOL_0
 5
9E
 10
2757.964
 20
2133.5
 30
0
 11
2757.964
 21
2163.5
 31
0
 0
LINE
 8
TOOL_0
 5
9F
 10
2757.964
 20
2163.5
 30
0
 11
2750.893
 21
2170.571
 31
0
 0
LINE
 8
TOOL_0
 5
A0
 10
2750.893
 20
2170.571
 30
0
 11
2637.964
 21
525.5
 31
0
 0
LINE
 8
TOOL_0
 5
A1
 10
2637.964
 20
525.5
 30
0
 11
2667.964
 21
525.5
 31
0
 0
LINE
 8
TOOL_0
 5
A2
 10
2667.964
 20
525.5
 30
0
 11
2667.964
 21
555.5
 31
0
 0
ARC
 8
TOOL_0
 5
A3
 10
2657.964
 20
555.5
 30
0
 40
10.0
 50
0
 51
90.0
210
0
220
0
230
1.0
 0
LINE
 8
TOOL_0
 5
A4
 10
2657.964
 20
565.5
 30
0
 11
2477.964
 21
565.5
 31
0
 0
ARC
 8
TOOL_0
 5
A5
 10
2477.964
 20
555.5
 30
0
 40
10.0
 50
90.0
 51
180.0
210
0
220
0
230
1.0
 0
LINE
 8
TOOL_0
 5
A6
 10
2467.964
 20
555.5
 30
0
 11
2467.964
 21
495.5
 31
0
 0
ARC
 8
TOOL_0
 5
A7
 10
2477.964
 20
495.5
 30
0
 40
10.0
 50
180.0
 51
270.0
210
0
220
0
230
1.0
 0
LINE
 8
TOOL_0
 5
A8
 10
2477.964
 20
485.5
 30
0
 11
2657.964
 21
485.5
 31
0
 0
ARC
 8
TOOL_0
 5
A9
 10
2657.964
 20
495.5
 30
0
 40
10.0
 50
270.0
 51
0
210
0
220
0
230
1.0
 0
LINE
 8
TOOL_0
 5
AA
 10
2667.964
 20
495.5
 30
0
 11
2667.964
 21
525.5
 31
0
 0
LINE
 8
TOOL_0
 5
AB
 10
2667.964
 20
525.5
 30
0
 11
2660.893
 21
532.571
 31
0
 0
LINE
 8
TOOL_0
 5
AC
 10
2660.893
 20
532.571
 30
0
 11
2083.464
 21
475.5
 31
0
 0
LINE
 8
TOOL_0
 5
AD
 10
2083.464
 20
475.5
 30
0
 11
2113.464
 21
475.5
 31
0
 0
ARC
 8
TOOL_0
 5
AE
 10
2093.464
 20
475.5
 30
0
 40
20.0
 50
0
 51
66.867990902554
210
0
220
0
230
1.0
 0
LINE
 8
TOOL_0
 5
AF
 10
2101.321
 20
493.892
 30
0
 11
2077.642
 21
504.008
 31
0
 0
ARC
 8
TOOL_0
 5
B0
 10
2065.463
 20
475.321
 30
0
 40
31.165237204296
 50
66.996461482193
 51
113.001846237354
210
0
220
0
230
1.0
 0
LINE
 8
TOOL_0
 5
B1
 10
2053.285
 20
504.008
 30
0
 11
2029.606
 21
493.892
 31
0
 0
ARC
 8
TOOL_0
 5
B2
 10
2037.463
 20
475.5
 30
0
 40
19.999952824944
 50
113.132009097445
 51
246.867990902554
210
0
220
0
230
1.0
 0
LINE
 8
TOOL_0
 5
B3
 10
2029.606
 20
457.108
 30
0
 11
2053.285
 21
446.992
 31
0
 0
ARC
 8
TOOL_0
 5
B4
 10
2065.464
 20
475.678
 30
0
 40
31.164316726025
 50
246.9957430162
 51
293.002564662372
210
0
220
0
230
1.0
 0
LINE
 8
TOOL_0
 5
B5
 10
2077.642
 20
446.992
 30
0
 11
2101.321
 21
457.108
 31
0
 0
ARC
 8
TOOL_0
 5
B6
 10
2093.464
 20
475.5
 30
0
 40
19.999952824944
 50
293.132009097446
 51
0
210
0
220
0
230
1.0
 0
LINE
 8
TOOL_0
 5
B7
 10
2113.464
 20
475.5
 30
0
 11
2106.393
 21
482.571
 31
0
 0
LINE
 8
TOOL_0
 5
B8
 10
2106.393
 20
482.571
 30
0
 11
2070.464
 21
235.5
 31
0
 0
LINE
 8
TOOL_0
 5
B9
 10
2070.464
 20
235.5
 30
0
 11
2100.464
 21
235.5
 31
0
 0
ARC
 8
TOOL_0
 5
BA
 10
2065.464
 20
235.5
 30
0
 40
35.0
 50
0
 51
180.0
210
0
220
0
230
1.0
 0
ARC
 8
TOOL_0
 5
BB
 10
2065.464
 20
235.5
 30
0
 40
35.0
 50
180.0
 51
0
210
0
220
0
230
1.0
 0
LINE
 8
TOOL_0
 5
BC
 10
2100.464
 20
235.5
 30
0
 11
2093.393
 21
242.571
 31
0
 0
LINE
 8
TOOL_0
 5
BD
 10
2093.393
 20
242.571
 30
0
 11
2225.215
 21
26.751
 31
0
 0
LINE
 8
TOOL_0
 5
BE
 10
2225.215
 20
26.751
 30
0
 11
2249.964
 21
51.5
 31
0
 0
LINE
 8
TOOL_0
 5
BF
 10
2249.964
 20
51.5
 30
0
 11
2249.964
 21
100.5
 31
0
 0
ARC
 8
TOOL_0
 5
C0
 10
2220.964
 20
100.5
 30
0
 40
29.0
 50
0
 51
90.0
210
0
220
0
230
1.0
 0
LINE
 8
TOOL_0
 5
C1
 10
2220.964
 20
129.5
 30
0
 11
1503.964
 21
129.5
 31
0
 0
LINE
 8
TOOL_0
 5
C2
 10
1503.964
 20
129.5
 30
0
 11
1503.964
 21
461.5
 31
0
 0
LINE
 8
TOOL_0
 5
C3
 10
1503.964
 20
461.5
 30
0
 11
1639.951
 21
461.5
 31
0
 0
ARC
 8
TOOL_0
 5
C4
 10
1638.784
 20
500.195
 30
0
 40
38.712593738989
 50
271.727456089703
 51
313.085513150769
210
0
220
0
230
1.0
 0
ARC
 8
TOOL_0
 5
C5
 10
1606.604
 20
537.575
 30
0
 40
88.01755384581
 50
311.762848970029
 51
334.796347112778
210
0
220
0
230
1.0
 0
ARC
 8
TOOL_0
 5
C6
 10
1507.438
 20
587.91
 30
0
 40
199.204719502325
 50
333.842962626577
 51
351.509141250667
210
0
220
0
230
1.0
 0
ARC
 8
TOOL_0
 5
C7
 10
1411.325
 20
607.117
 30
0
 40
297.139752683817
 50
350.582533477366
 51
0.072694924886
210
0
220
0
230
1.0
 0
LINE
 8
TOOL_0
 5
C8
 10
1708.464
 20
607.494
 30
0
 11
1708.464
 21
618.361
 31
0
 0
ARC
 8
TOOL_0
 5
C9
 10
1714.522
 20
618.333
 30
0
 40
6.058064707479
 50
135.160491959834
 51
179.73518151163
210
0
220
0
230
1.0
 0
LINE
 8
TOOL_0
 5
CA
 10
1710.226
 20
622.605
 30
0
 11
1715.292
 21
627.671
 31
0
 0
ARC
 8
TOOL_0
 5
CB
 10
1712.405
 20
630.524
 30
0
 40
4.058864126822
 50
315.339378696994
 51
359.703572152138
210
0
220
0
230
1.0
 0
LINE
 8
TOOL_0
 5
CC
 10
1716.464
 20
630.503
 30
0
 11
1716.464
 21
924.499
 31
0
 0
LINE
 8
TOOL_0
 5
CD
 10
1716.464
 20
924.499
 30
0
 11
1745.464
 21
924.499
 31
0
 0
LINE
 8
TOOL_0
 5
CE
 10
1745.464
 20
924.499
 30
0
 11
1745.464
 21
920.999
 31
0
 0
ARC
 8
TOOL_0
 5
CF
 10
1748.464
 20
920.999
 30
0
 40
3.0
 50
180.0
 51
270.0
210
0
220
0
230
1.0
 0
LINE
 8
TOOL_0
 5
D0
 10
1748.464
 20
917.999
 30
0
 11
1802.964
 21
917.999
 31
0
 0
ARC
 8
TOOL_0
 5
D1
 10
1802.964
 20
1116.999
 30
0
 40
199.0
 50
270.0
 51
359.99971208151
210
0
220
0
230
1.0
 0
LINE
 8
TOOL_0
 5
D2
 10
2001.964
 20
1116.998
 30
0
 11
2001.964
 21
1435.499
 31
0
 0
ARC
 8
TOOL_0
 5
D3
 10
1802.964
 20
1435.499
 30
0
 40
199.0
 50
0
 51
90.0
210
0
220
0
230
1.0
 0
LINE
 8
TOOL_0
 5
D4
 10
1802.964
 20
1634.499
 30
0
 11
1645.55
 21
1634.499
 31
0
 0
LINE
 8
TOOL_0
 5
D5
 10
1645.55
 20
1634.499
 30
0
 11
1636.964
 21
1643.085
 31
0
 0
LINE
 8
TOOL_0
 5
D6
 10
1636.964
 20
1643.085
 30
0
 11
1636.964
 21
2367.913
 31
0
 0
LINE
 8
TOOL_0
 5
D7
 10
1636.964
 20
2367.913
 30
0
 11
1645.55
 21
2376.499
 31
0
 0
LINE
 8
TOOL_0
 5
D8
 10
1645.55
 20
2376.499
 30
0
 11
3123.964
 21
2376.499
 31
0
 0
ARC
 8
TOOL_0
 5
D9
 10
3123.964
 20
2371.499
 30
0
 40
5.0
 50
0
 51
90.0
210
0
220
0
230
1.0
 0
LINE
 8
TOOL_0
 5
DA
 10
3128.964
 20
2371.499
 30
0
 11
3128.964
 21
2.499
 31
0
 0
LINE
 8
TOOL_0
 5
DB
 10
3128.964
 20
2.499
 30
0
 11
2249.964
 21
2.499
 31
0
 0
LINE
 8
TOOL_0
 5
DC
 10
2249.964
 20
2.499
 30
0
 11
2249.964
 21
51.499
 31
0
 0
LINE
 8
TOOL_0
 5
DD
 10
2249.964
 20
51.499
 30
0
 11
2246.428
 21
55.035
 31
0
 0
LINE
 8
TOOL_0
 5
DE
 10
2246.428
 20
55.035
 30
0
 11
4818.42
 21
852.08
 31
0
 0
LINE
 8
TOOL_0
 5
DF
 10
4818.42
 20
852.08
 30
0
 11
4783.446
 21
853.423
 31
0
 0
LINE
 8
TOOL_0
 5
E0
 10
4783.446
 20
853.423
 30
0
 11
4737.135
 21
810.538
 31
0
 0
ARC
 8
TOOL_0
 5
E1
 10
4689.234
 20
862.266
 30
0
 40
70.500296346895
 50
270.0
 51
312.800206794401
210
0
220
0
230
1.0
 0
LINE
 8
TOOL_0
 5
E2
 10
4689.234
 20
791.766
 30
0
 11
4674.1
 21
791.766
 31
0
 0
ARC
 8
TOOL_0
 5
E3
 10
4674.1
 20
862.266
 30
0
 40
70.5
 50
227.199793205599
 51
270.0
210
0
220
0
230
1.0
 0
LINE
 8
TOOL_0
 5
E4
 10
4626.199
 20
810.538
 30
0
 11
4579.888
 21
853.422
 31
0
 0
ARC
 8
TOOL_0
 5
E5
 10
4593.817
 20
868.463
 30
0
 40
20.499968829245
 50
199.920785441378
 51
227.19819273391
210
0
220
0
230
1.0
 0
LINE
 8
TOOL_0
 5
E6
 10
4574.543
 20
861.478
 30
0
 11
4542.189
 21
950.741
 31
0
 0
ARC
 8
TOOL_0
 5
E7
 10
4589.667
 20
967.949
 30
0
 40
50.50025493005
 50
179.998865430109
 51
199.922620719171
210
0
220
0
230
1.0
 0
LINE
 8
TOOL_0
 5
E8
 10
4539.167
 20
967.95
 30
0
 11
4539.167
 21
1298.975
 31
0
 0
ARC
 8
TOOL_0
 5
E9
 10
4589.667
 20
1298.975
 30
0
 40
50.5
 50
139.202791978101
 51
180.0
210
0
220
0
230
1.0
 0
LINE
 8
TOOL_0
 5
EA
 10
4551.437
 20
1331.971
 30
0
 11
4617.64
 21
1408.675
 31
0
 0
ARC
 8
TOOL_0
 5
EB
 10
4580.167
 20
1441.018
 30
0
 40
49.500458361514
 50
319.202476090436
 51
359.998842509505
210
0
220
0
230
1.0
 0
LINE
 8
TOOL_0
 5
EC
 10
4629.667
 20
1441.017
 30
0
 11
4629.667
 21
1739.265
 31
0
 0
ARC
 8
TOOL_0
 5
ED
 10
4640.167
 20
1739.265
 30
0
 40
10.5
 50
90.0
 51
180.0
210
0
220
0
230
1.0
 0
LINE
 8
TOOL_0
 5
EE
 10
4640.167
 20
1749.765
 30
0
 11
4723.167
 21
1749.765
 31
0
 0
ARC
 8
TOOL_0
 5
EF
 10
4723.167
 20
1739.265
 30
0
 40
10.5
 50
0
 51
90.0
210
0
220
0
230
1.0
 0
LINE
 8
TOOL_0
 5
F0
 10
4733.667
 20
1739.265
 30
0
 11
4733.667
 21
1441.017
 31
0
 0
ARC
 8
TOOL_0
 5
F1
 10
4783.167
 20
1441.017
 30
0
 40
49.5
 50
180.0
 51
220.797523909564
210
0
220
0
230
1.0
 0
LINE
 8
TOOL_0
 5
F2
 10
4745.694
 20
1408.674
 30
0
 11
4811.897
 21
1331.97
 31
0
 0
ARC
 8
TOOL_0
 5
F3
 10
4773.667
 20
1298.974
 30
0
 40
50.500187286781
 50
0
 51
40.797208021899
210
0
220
0
230
1.0
 0
LINE
 8
TOOL_0
 5
F4
 10
4824.167
 20
1298.974
 30
0
 11
4824.167
 21
967.948
 31
0
 0
ARC
 8
TOOL_0
 5
F5
 10
4773.667
 20
967.948
 30
0
 40
50.5
 50
340.077379280828
 51
0
210
0
220
0
230
1.0
 0
LINE
 8
TOOL_0
 5
F6
 10
4821.145
 20
950.74
 30
0
 11
4788.791
 21
861.477
 31
0
 0
ARC
 8
TOOL_0
 5
F7
 10
4769.518
 20
868.463
 30
0
 40
20.500066463307
 50
312.797857570943
 51
340.075634603524
210
0
220
0
230
1.0
 0
LINE
 8
TOOL_0
 5
F8
 10
4783.446
 20
853.421
 30
0
 11
4783.254
 21
848.425
 31
0
 0
LINE
 8
TOOL_0
 5
F9
 10
4783.254
 20
848.425
 30
0
 11
4206.634
 21
2143.498
 31
0
 0
LINE
 8
TOOL_0
 5
FA
 10
4206.634
 20
2143.498
 30
0
 11
4236.634
 21
2143.498
 31
0
 0
ARC
 8
TOOL_0
 5
FB
 10
4201.634
 20
2143.498
 30
0
 40
35.0
 50
0
 51
180.0
210
0
220
0
230
1.0
 0
ARC
 8
TOOL_0
 5
FC
 10
4201.634
 20
2143.498
 30
0
 40
35.0
 50
180.0
 51
0
210
0
220
0
230
1.0
 0
LINE
 8
TOOL_0
 5
FD
 10
4236.634
 20
2143.498
 30
0
 11
4229.563
 21
2150.569
 31
0
 0
LINE
 8
TOOL_0
 5
FE
 10
4229.563
 20
2150.569
 30
0
 11
4219.634
 21
1903.498
 31
0
 0
LINE
 8
TOOL_0
 5
FF
 10
4219.634
 20
1903.498
 30
0
 11
4249.634
 21
1903.498
 31
0
 0
ARC
 8
TOOL_0
 5
100
 10
4229.634
 20
1903.498
 30
0
 40
20.0
 50
0
 51
66.867990902554
210
0
220
0
230
1.0
 0
LINE
 8
TOOL_0
 5
101
 10
4237.491
 20
1921.89
 30
0
 11
4213.812
 21
1932.006
 31
0
 0
ARC
 8
TOOL_0
 5
102
 10
4201.633
 20
1903.32
 30
0
 40
31.164316726025
 50
66.9957430162
 51
113.002564662372
210
0
220
0
230
1.0
 0
LINE
 8
TOOL_0
 5
103
 10
4189.455
 20
1932.006
 30
0
 11
4165.776
 21
1921.89
 31
0
 0
ARC
 8
TOOL_0
 5
104
 10
4173.633
 20
1903.498
 30
0
 40
19.999952824944
 50
113.132009097445
 51
246.867990902554
210
0
220
0
230
1.0
 0
LINE
 8
TOOL_0
 5
105
 10
4165.776
 20
1885.106
 30
0
 11
4189.455
 21
1874.99
 31
0
 0
ARC
 8
TOOL_0
 5
106
 10
4201.634
 20
1903.677
 30
0
 40
31.165237204295
 50
246.996461482193
 51
293.001846237354
210
0
220
0
230
1.0
 0
LINE
 8
TOOL_0
 5
107
 10
4213.812
 20
1874.99
 30
0
 11
4237.491
 21
1885.106
 31
0
 0
ARC
 8
TOOL_0
 5
108
 10
4229.634
 20
1903.498
 30
0
 40
19.999952824944
 50
293.132009097446
 51
0
210
0
220
0
230
1.0
 0
LINE
 8
TOOL_0
 5
109
 10
4249.634
 20
1903.498
 30
0
 11
4242.563
 21
1910.569
 31
0
 0
LINE
 8
TOOL_0
 5
10A
 10
4242.563
 20
1910.569
 30
0
 11
3769.134
 21
1853.498
 31
0
 0
LINE
 8
TOOL_0
 5
10B
 10
3769.134
 20
1853.498
 30
0
 11
3799.134
 21
1853.498
 31
0
 0
LINE
 8
TOOL_0
 5
10C
 10
3799.134
 20
1853.498
 30
0
 11
3799.134
 21
1883.498
 31
0
 0
ARC
 8
TOOL_0
 5
10D
 10
3789.134
 20
1883.498
 30
0
 40
10.0
 50
0
 51
90.0
210
0
220
0
230
1.0
 0
LINE
 8
TOOL_0
 5
10E
 10
3789.134
 20
1893.498
 30
0
 11
3609.134
 21
1893.498
 31
0
 0
ARC
 8
TOOL_0
 5
10F
 10
3609.134
 20
1883.498
 30
0
 40
10.0
 50
90.0
 51
180.0
210
0
220
0
230
1.0
 0
LINE
 8
TOOL_0
 5
110
 10
3599.134
 20
1883.498
 30
0
 11
3599.134
 21
1823.498
 31
0
 0
ARC
 8
TOOL_0
 5
111
 10
3609.134
 20
1823.498
 30
0
 40
10.0
 50
180.0
 51
270.0
210
0
220
0
230
1.0
 0
LINE
 8
TOOL_0
 5
112
 10
3609.134
 20
1813.498
 30
0
 11
3789.134
 21
1813.498
 31
0
 0
ARC
 8
TOOL_0
 5
113
 10
3789.134
 20
1823.498
 30
0
 40
10.0
 50
270.0
 51
0
210
0
220
0
230
1.0
 0
LINE
 8
TOOL_0
 5
114
 10
3799.134
 20
1823.498
 30
0
 11
3799.134
 21
1853.498
 31
0
 0
LINE
 8
TOOL_0
 5
115
 10
3799.134
 20
1853.498
 30
0
 11
3792.063
 21
1860.569
 31
0
 0
LINE
 8
TOOL_0
 5
116
 10
3792.063
 20
1860.569
 30
0
 11
3499.134
 21
95.498
 31
0
 0
LINE
 8
TOOL_0
 5
117
 10
3499.134
 20
95.498
 30
0
 11
3529.134
 21
95.498
 31
0
 0
LINE
 8
TOOL_0
 5
118
 10
3529.134
 20
95.498
 30
0
 11
3529.134
 21
125.498
 31
0
 0
ARC
 8
TOOL_0
 5
119
 10
3499.134
 20
125.498
 30
0
 40
30.0
 50
0
 51
90.0
210
0
220
0
230
1.0
 0
LINE
 8
TOOL_0
 5
11A
 10
3499.134
 20
155.498
 30
0
 11
3429.134
 21
155.498
 31
0
 0
ARC
 8
TOOL_0
 5
11B
 10
3429.134
 20
125.498
 30
0
 40
30.0
 50
90.0
 51
180.0
210
0
220
0
230
1.0
 0
LINE
 8
TOOL_0
 5
11C
 10
3399.134
 20
125.498
 30
0
 11
3399.134
 21
65.498
 31
0
 0
ARC
 8
TOOL_0
 5
11D
 10
3409.134
 20
65.498
 30
0
 40
10.0
 50
180.0
 51
270.0
210
0
220
0
230
1.0
 0
LINE
 8
TOOL_0
 5
11E
 10
3409.134
 20
55.498
 30
0
 11
3519.134
 21
55.498
 31
0
 0
ARC
 8
TOOL_0
 5
11F
 10
3519.134
 20
65.498
 30
0
 40
10.0
 50
270.0
 51
0
210
0
220
0
230
1.0
 0
LINE
 8
TOOL_0
 5
120
 10
3529.134
 20
65.498
 30
0
 11
3529.134
 21
95.498
 31
0
 0
LINE
 8
TOOL_0
 5
121
 10
3529.134
 20
95.498
 30
0
 11
3522.063
 21
102.569
 31
0
 0
LINE
 8
TOOL_0
 5
122
 10
3522.063
 20
102.569
 30
0
 11
3579.134
 21
215.498
 31
0
 0
LINE
 8
TOOL_0
 5
123
 10
3579.134
 20
215.498
 30
0
 11
3609.134
 21
215.498
 31
0
 0
LINE
 8
TOOL_0
 5
124
 10
3609.134
 20
215.498
 30
0
 11
3609.134
 21
245.498
 31
0
 0
ARC
 8
TOOL_0
 5
125
 10
3589.134
 20
245.498
 30
0
 40
20.0
 50
0
 51
90.0
210
0
220
0
230
1.0
 0
LINE
 8
TOOL_0
 5
126
 10
3589.134
 20
265.498
 30
0
 11
3529.134
 21
265.498
 31
0
 0
ARC
 8
TOOL_0
 5
127
 10
3529.134
 20
245.498
 30
0
 40
20.0
 50
90.0
 51
180.0
210
0
220
0
230
1.0
 0
LINE
 8
TOOL_0
 5
128
 10
3509.134
 20
245.498
 30
0
 11
3509.134
 21
185.498
 31
0
 0
ARC
 8
TOOL_0
 5
129
 10
3529.134
 20
185.498
 30
0
 40
20.0
 50
180.0
 51
270.0
210
0
220
0
230
1.0
 0
LINE
 8
TOOL_0
 5
12A
 10
3529.134
 20
165.498
 30
0
 11
3589.134
 21
165.498
 31
0
 0
ARC
 8
TOOL_0
 5
12B
 10
3589.134
 20
185.498
 30
0
 40
20.0
 50
270.0
 51
0
210
0
220
0
230
1.0
 0
LINE
 8
TOOL_0
 5
12C
 10
3609.134
 20
185.498
 30
0
 11
3609.134
 21
215.498
 31
0
 0
LINE
 8
TOOL_0
 5
12D
 10
3609.134
 20
215.498
 30
0
 11
3602.063
 21
222.569
 31
0
 0
LINE
 8
TOOL_0
 5
12E
 10
3602.063
 20
222.569
 30
0
 11
4574.134
 21
188.498
 31
0
 0
LINE
 8
TOOL_0
 5
12F
 10
4574.134
 20
188.498
 30
0
 11
4604.134
 21
188.498
 31
0
 0
LINE
 8
TOOL_0
 5
130
 10
4604.134
 20
188.498
 30
0
 11
4604.134
 21
218.498
 31
0
 0
ARC
 8
TOOL_0
 5
131
 10
4584.134
 20
218.498
 30
0
 40
20.0
 50
0
 51
90.0
210
0
220
0
230
1.0
 0
LINE
 8
TOOL_0
 5
132
 10
4584.134
 20
238.498
 30
0
 11
4524.134
 21
238.498
 31
0
 0
ARC
 8
TOOL_0
 5
133
 10
4524.134
 20
218.498
 30
0
 40
20.0
 50
90.0
 51
180.0
210
0
220
0
230
1.0
 0
LINE
 8
TOOL_0
 5
134
 10
4504.134
 20
218.498
 30
0
 11
4504.134
 21
158.498
 31
0
 0
ARC
 8
TOOL_0
 5
135
 10
4524.134
 20
158.498
 30
0
 40
20.0
 50
180.0
 51
270.0
210
0
220
0
230
1.0
 0
LINE
 8
TOOL_0
 5
136
 10
4524.134
 20
138.498
 30
0
 11
4584.134
 21
138.498
 31
0
 0
ARC
 8
TOOL_0
 5
137
 10
4584.134
 20
158.498
 30
0
 40
20.0
 50
270.0
 51
0
210
0
220
0
230
1.0
 0
LINE
 8
TOOL_0
 5
138
 10
4604.134
 20
158.498
 30
0
 11
4604.134
 21
188.498
 31
0
 0
LINE
 8
TOOL_0
 5
139
 10
4604.134
 20
188.498
 30
0
 11
4597.063
 21
195.569
 31
0
 0
LINE
 8
TOOL_0
 5
13A
 10
4597.063
 20
195.569
 30
0
 11
4654.883
 21
35.833
 31
0
 0
LINE
 8
TOOL_0
 5
13B
 10
4654.883
 20
35.833
 30
0
 11
4630.134
 21
11.084
 31
0
 0
LINE
 8
TOOL_0
 5
13C
 10
4630.134
 20
11.084
 30
0
 11
4621.548
 21
2.498
 31
0
 0
LINE
 8
TOOL_0
 5
13D
 10
4621.548
 20
2.498
 30
0
 11
3143.134
 21
2.498
 31
0
 0
ARC
 8
TOOL_0
 5
13E
 10
3143.134
 20
7.498
 30
0
 40
5.0
 50
180.0
 51
270.0
210
0
220
0
230
1.0
 0
LINE
 8
TOOL_0
 5
13F
 10
3138.134
 20
7.498
 30
0
 11
3138.134
 21
2376.498
 31
0
 0
LINE
 8
TOOL_0
 5
140
 10
3138.134
 20
2376.498
 30
0
 11
4017.134
 21
2376.498
 31
0
 0
LINE
 8
TOOL_0
 5
141
 10
4017.134
 20
2376.498
 30
0
 11
4017.134
 21
2278.498
 31
0
 0
ARC
 8
TOOL_0
 5
142
 10
4046.134
 20
2278.498
 30
0
 40
29.0
 50
180.0
 51
270.0
210
0
220
0
230
1.0
 0
LINE
 8
TOOL_0
 5
143
 10
4046.134
 20
2249.498
 30
0
 11
4763.134
 21
2249.498
 31
0
 0
LINE
 8
TOOL_0
 5
144
 10
4763.134
 20
2249.498
 30
0
 11
4763.134
 21
1917.498
 31
0
 0
LINE
 8
TOOL_0
 5
145
 10
4763.134
 20
1917.498
 30
0
 11
4627.147
 21
1917.498
 31
0
 0
ARC
 8
TOOL_0
 5
146
 10
4628.314
 20
1878.803
 30
0
 40
38.712593738989
 50
91.727456089703
 51
133.08551315077
210
0
220
0
230
1.0
 0
ARC
 8
TOOL_0
 5
147
 10
4660.495
 20
1841.423
 30
0
 40
88.018219897928
 50
131.763334521565
 51
154.797213300508
210
0
220
0
230
1.0
 0
ARC
 8
TOOL_0
 5
148
 10
4759.66
 20
1791.087
 30
0
 40
199.204719502325
 50
153.842962626577
 51
171.509383253368
210
0
220
0
230
1.0
 0
ARC
 8
TOOL_0
 5
149
 10
4855.774
 20
1771.88
 30
0
 40
297.139589058745
 50
170.582723702997
 51
180.072887749413
210
0
220
0
230
1.0
 0
LINE
 8
TOOL_0
 5
14A
 10
4558.635
 20
1771.502
 30
0
 11
4558.635
 21
1760.637
 31
0
 0
ARC
 8
TOOL_0
 5
14B
 10
4552.577
 20
1760.665
 30
0
 40
6.058064707479
 50
315.160491959837
 51
359.73518151163
210
0
220
0
230
1.0
 0
LINE
 8
TOOL_0
 5
14C
 10
4556.873
 20
1756.393
 30
0
 11
4551.807
 21
1751.327
 31
0
 0
ARC
 8
TOOL_0
 5
14D
 10
4554.694
 20
1748.474
 30
0
 40
4.058864126822
 50
135.33937869699
 51
179.703572152138
210
0
220
0
230
1.0
 0
LINE
 8
TOOL_0
 5
14E
 10
4550.635
 20
1748.495
 30
0
 11
4550.635
 21
1454.499
 31
0
 0
LINE
 8
TOOL_0
 5
14F
 10
4550.635
 20
1454.499
 30
0
 11
4521.635
 21
1454.499
 31
0
 0
LINE
 8
TOOL_0
 5
150
 10
4521.635
 20
1454.499
 30
0
 11
4521.635
 21
1457.999
 31
0
 0
ARC
 8
TOOL_0
 5
151
 10
4518.635
 20
1457.999
 30
0
 40
3.0
 50
0
 51
90.0
210
0
220
0
230
1.0
 0
LINE
 8
TOOL_0
 5
152
 10
4518.635
 20
1460.999
 30
0
 11
4464.135
 21
1460.999
 31
0
 0
ARC
 8
TOOL_0
 5
153
 10
4464.135
 20
1261.999
 30
0
 40
199.0
 50
90.0
 51
180.0
210
0
220
0
230
1.0
 0
LINE
 8
TOOL_0
 5
154
 10
4265.135
 20
1261.999
 30
0
 11
4265.135
 21
943.499
 31
0
 0
ARC
 8
TOOL_0
 5
155
 10
4464.135
 20
943.499
 30
0
 40
199.0
 50
180.0
 51
269.99971208151
210
0
220
0
230
1.0
 0
LINE
 8
TOOL_0
 5
156
 10
4464.134
 20
744.499
 30
0
 11
4621.549
 21
744.499
 31
0
 0
LINE
 8
TOOL_0
 5
157
 10
4621.549
 20
744.499
 30
0
 11
4630.135
 21
735.913
 31
0
 0
LINE
 8
TOOL_0
 5
158
 10
4630.135
 20
735.913
 30
0
 11
4630.135
 21
11.085
 31
0
 0
LINE
 8
TOOL_0
 5
159
 10
4630.135
 20
11.085
 30
0
 11
4630.135
 21
6.085
 31
0
 0
LINE
 8
TOOL_0
 5
15A
 10
4630.135
 20
6.085
 30
0
 11
4868.694
 21
2190.499
 31
0
 0
LINE
 8
TOOL_0
 5
15B
 10
4868.694
 20
2190.499
 30
0
 11
4898.694
 21
2190.499
 31
0
 0
LINE
 8
TOOL_0
 5
15C
 10
4898.694
 20
2190.499
 30
0
 11
4898.694
 21
2220.499
 31
0
 0
ARC
 8
TOOL_0
 5
15D
 10
4878.694
 20
2220.499
 30
0
 40
20.0
 50
0
 51
90.0
210
0
220
0
230
1.0
 0
LINE
 8
TOOL_0
 5
15E
 10
4878.694
 20
2240.499
 30
0
 11
4818.694
 21
2240.499
 31
0
 0
ARC
 8
TOOL_0
 5
15F
 10
4818.694
 20
2220.499
 30
0
 40
20.0
 50
90.0
 51
180.0
210
0
220
0
230
1.0
 0
LINE
 8
TOOL_0
 5
160
 10
4798.694
 20
2220.499
 30
0
 11
4798.694
 21
2160.499
 31
0
 0
ARC
 8
TOOL_0
 5
161
 10
4818.694
 20
2160.499
 30
0
 40
20.0
 50
180.0
 51
270.0
210
0
220
0
230
1.0
 0
LINE
 8
TOOL_0
 5
162
 10
4818.694
 20
2140.499
 30
0
 11
4878.694
 21
2140.499
 31
0
 0
ARC
 8
TOOL_0
 5
163
 10
4878.694
 20
2160.499
 30
0
 40
20.0
 50
270.0
 51
0
210
0
220
0
230
1.0
 0
LINE
 8
TOOL_0
 5
164
 10
4898.694
 20
2160.499
 30
0
 11
4898.694
 21
2190.499
 31
0
 0
LINE
 8
TOOL_0
 5
165
 10
4898.694
 20
2190.499
 30
0
 11
4891.623
 21
2197.57
 31
0
 0
LINE
 8
TOOL_0
 5
166
 10
4891.623
 20
2197.57
 30
0
 11
5973.694
 21
2283.499
 31
0
 0
LINE
 8
TOOL_0
 5
167
 10
5973.694
 20
2283.499
 30
0
 11
6003.694
 21
2283.499
 31
0
 0
LINE
 8
TOOL_0
 5
168
 10
6003.694
 20
2283.499
 30
0
 11
6003.694
 21
2313.499
 31
0
 0
ARC
 8
TOOL_0
 5
169
 10
5993.694
 20
2313.499
 30
0
 40
10.0
 50
0
 51
90.0
210
0
220
0
230
1.0
 0
LINE
 8
TOOL_0
 5
16A
 10
5993.694
 20
2323.499
 30
0
 11
5883.694
 21
2323.499
 31
0
 0
ARC
 8
TOOL_0
 5
16B
 10
5883.694
 20
2313.499
 30
0
 40
10.0
 50
90.0
 51
180.0
210
0
220
0
230
1.0
 0
LINE
 8
TOOL_0
 5
16C
 10
5873.694
 20
2313.499
 30
0
 11
5873.694
 21
2253.499
 31
0
 0
ARC
 8
TOOL_0
 5
16D
 10
5903.694
 20
2253.499
 30
0
 40
30.0
 50
180.0
 51
270.0
210
0
220
0
230
1.0
 0
LINE
 8
TOOL_0
 5
16E
 10
5903.694
 20
2223.499
 30
0
 11
5973.694
 21
2223.499
 31
0
 0
ARC
 8
TOOL_0
 5
16F
 10
5973.694
 20
2253.499
 30
0
 40
30.0
 50
270.0
 51
0
210
0
220
0
230
1.0
 0
LINE
 8
TOOL_0
 5
170
 10
6003.694
 20
2253.499
 30
0
 11
6003.694
 21
2283.499
 31
0
 0
LINE
 8
TOOL_0
 5
171
 10
6003.694
 20
2283.499
 30
0
 11
5996.623
 21
2290.57
 31
0
 0
LINE
 8
TOOL_0
 5
172
 10
5996.623
 20
2290.57
 30
0
 11
5863.694
 21
2163.499
 31
0
 0
LINE
 8
TOOL_0
 5
173
 10
5863.694
 20
2163.499
 30
0
 11
5893.694
 21
2163.499
 31
0
 0
LINE
 8
TOOL_0
 5
174
 10
5893.694
 20
2163.499
 30
0
 11
5893.694
 21
2193.499
 31
0
 0
ARC
 8
TOOL_0
 5
175
 10
5873.694
 20
2193.499
 30
0
 40
20.0
 50
0
 51
90.0
210
0
220
0
230
1.0
 0
LINE
 8
TOOL_0
 5
176
 10
5873.694
 20
2213.499
 30
0
 11
5813.694
 21
2213.499
 31
0
 0
ARC
 8
TOOL_0
 5
177
 10
5813.694
 20
2193.499
 30
0
 40
20.0
 50
90.0
 51
180.0
210
0
220
0
230
1.0
 0
LINE
 8
TOOL_0
 5
178
 10
5793.694
 20
2193.499
 30
0
 11
5793.694
 21
2133.499
 31
0
 0
ARC
 8
TOOL_0
 5
179
 10
5813.694
 20
2133.499
 30
0
 40
20.0
 50
180.0
 51
270.0
210
0
220
0
230
1.0
 0
LINE
 8
TOOL_0
 5
17A
 10
5813.694
 20
2113.499
 30
0
 11
5873.694
 21
2113.499
 31
0
 0
ARC
 8
TOOL_0
 5
17B
 10
5873.694
 20
2133.499
 30
0
 40
20.0
 50
270.0
 51
0
210
0
220
0
230
1.0
 0
LINE
 8
TOOL_0
 5
17C
 10
5893.694
 20
2133.499
 30
0
 11
5893.694
 21
2163.499
 31
0
 0
LINE
 8
TOOL_0
 5
17D
 10
5893.694
 20
2163.499
 30
0
 11
5886.623
 21
2170.57
 31
0
 0
LINE
 8
TOOL_0
 5
17E
 10
5886.623
 20
2170.57
 30
0
 11
5773.694
 21
525.499
 31
0
 0
LINE
 8
TOOL_0
 5
17F
 10
5773.694
 20
525.499
 30
0
 11
5803.694
 21
525.499
 31
0
 0
LINE
 8
TOOL_0
 5
180
 10
5803.694
 20
525.499
 30
0
 11
5803.694
 21
555.499
 31
0
 0
ARC
 8
TOOL_0
 5
181
 10
5793.694
 20
555.499
 30
0
 40
10.0
 50
0
 51
90.0
210
0
220
0
230
1.0
 0
LINE
 8
TOOL_0
 5
182
 10
5793.694
 20
565.499
 30
0
 11
5613.694
 21
565.499
 31
0
 0
ARC
 8
TOOL_0
 5
183
 10
5613.694
 20
555.499
 30
0
 40
10.0
 50
90.0
 51
180.0
210
0
220
0
230
1.0
 0
LINE
 8
TOOL_0
 5
184
 10
5603.694
 20
555.499
 30
0
 11
5603.694
 21
495.499
 31
0
 0
ARC
 8
TOOL_0
 5
185
 10
5613.694
 20
495.499
 30
0
 40
10.0
 50
180.0
 51
270.0
210
0
220
0
230
1.0
 0
LINE
 8
TOOL_0
 5
186
 10
5613.694
 20
485.499
 30
0
 11
5793.694
 21
485.499
 31
0
 0
ARC
 8
TOOL_0
 5
187
 10
5793.694
 20
495.499
 30
0
 40
10.0
 50
270.0
 51
0
210
0
220
0
230
1.0
 0
LINE
 8
TOOL_0
 5
188
 10
5803.694
 20
495.499
 30
0
 11
5803.694
 21
525.499
 31
0
 0
LINE
 8
TOOL_0
 5
189
 10
5803.694
 20
525.499
 30
0
 11
5796.623
 21
532.57
 31
0
 0
LINE
 8
TOOL_0
 5
18A
 10
5796.623
 20
532.57
 30
0
 11
5219.194
 21
475.499
 31
0
 0
LINE
 8
TOOL_0
 5
18B
 10
5219.194
 20
475.499
 30
0
 11
5249.194
 21
475.499
 31
0
 0
ARC
 8
TOOL_0
 5
18C
 10
5229.194
 20
475.499
 30
0
 40
20.0
 50
0
 51
66.867990902554
210
0
220
0
230
1.0
 0
LINE
 8
TOOL_0
 5
18D
 10
5237.051
 20
493.891
 30
0
 11
5213.372
 21
504.007
 31
0
 0
ARC
 8
TOOL_0
 5
18E
 10
5201.193
 20
475.32
 30
0
 40
31.165237204296
 50
66.996461482193
 51
113.001846237354
210
0
220
0
230
1.0
 0
LINE
 8
TOOL_0
 5
18F
 10
5189.015
 20
504.007
 30
0
 11
5165.336
 21
493.891
 31
0
 0
ARC
 8
TOOL_0
 5
190
 10
5173.193
 20
475.499
 30
0
 40
19.999952824944
 50
113.132009097445
 51
246.867990902554
210
0
220
0
230
1.0
 0
LINE
 8
TOOL_0
 5
191
 10
5165.336
 20
457.107
 30
0
 11
5189.015
 21
446.991
 31
0
 0
ARC
 8
TOOL_0
 5
192
 10
5201.194
 20
475.677
 30
0
 40
31.164316726025
 50
246.9957430162
 51
293.002564662372
210
0
220
0
230
1.0
 0
LINE
 8
TOOL_0
 5
193
 10
5213.372
 20
446.991
 30
0
 11
5237.051
 21
457.107
 31
0
 0
ARC
 8
TOOL_0
 5
194
 10
5229.194
 20
475.499
 30
0
 40
19.999952824944
 50
293.132009097446
 51
0
210
0
220
0
230
1.0
 0
LINE
 8
TOOL_0
 5
195
 10
5249.194
 20
475.499
 30
0
 11
5242.123
 21
482.57
 31
0
 0
LINE
 8
TOOL_0
 5
196
 10
5242.123
 20
482.57
 30
0
 11
5206.194
 21
235.499
 31
0
 0
LINE
 8
TOOL_0
 5
197
 10
5206.194
 20
235.499
 30
0
 11
5236.194
 21
235.499
 31
0
 0
ARC
 8
TOOL_0
 5
198
 10
5201.194
 20
235.499
 30
0
 40
35.0
 50
0
 51
180.0
210
0
220
0
230
1.0
 0
ARC
 8
TOOL_0
 5
199
 10
5201.194
 20
235.499
 30
0
 40
35.0
 50
180.0
 51
0
210
0
220
0
230
1.0
 0
LINE
 8
TOOL_0
 5
19A
 10
5236.194
 20
235.499
 30
0
 11
5229.123
 21
242.57
 31
0
 0
LINE
 8
TOOL_0
 5
19B
 10
5229.123
 20
242.57
 30
0
 11
5360.945
 21
26.75
 31
0
 0
LINE
 8
TOOL_0
 5
19C
 10
5360.945
 20
26.75
 30
0
 11
5385.694
 21
51.499
 31
0
 0
LINE
 8
TOOL_0
 5
19D
 10
5385.694
 20
51.499
 30
0
 11
5385.694
 21
100.499
 31
0
 0
ARC
 8
TOOL_0
 5
19E
 10
5356.694
 20
100.499
 30
0
 40
29.0
 50
0
 51
90.0
210
0
220
0
230
1.0
 0
LINE
 8
TOOL_0
 5
19F
 10
5356.694
 20
129.499
 30
0
 11
4639.694
 21
129.499
 31
0
 0
LINE
 8
TOOL_0
 5
1A0
 10
4639.694
 20
129.499
 30
0
 11
4639.694
 21
461.499
 31
0
 0
LINE
 8
TOOL_0
 5
1A1
 10
4639.694
 20
461.499
 30
0
 11
4775.681
 21
461.499
 31
0
 0
ARC
 8
TOOL_0
 5
1A2
 10
4774.514
 20
500.194
 30
0
 40
38.712593738989
 50
271.727456089703
 51
313.08551315077
210
0
220
0
230
1.0
 0
ARC
 8
TOOL_0
 5
1A3
 10
4742.334
 20
537.574
 30
0
 40
88.01755384581
 50
311.762848970029
 51
334.796347112778
210
0
220
0
230
1.0
 0
ARC
 8
TOOL_0
 5
1A4
 10
4643.168
 20
587.909
 30
0
 40
199.204719502325
 50
333.842962626577
 51
351.509141250667
210
0
220
0
230
1.0
 0
ARC
 8
TOOL_0
 5
1A5
 10
4547.055
 20
607.116
 30
0
 40
297.139752683817
 50
350.582533477366
 51
0.072694924886
210
0
220
0
230
1.0
 0
LINE
 8
TOOL_0
 5
1A6
 10
4844.194
 20
607.493
 30
0
 11
4844.194
 21
618.36
 31
0
 0
ARC
 8
TOOL_0
 5
1A7
 10
4850.252
 20
618.332
 30
0
 40
6.058064707479
 50
135.160491959836
 51
179.73518151163
210
0
220
0
230
1.0
 0
LINE
 8
TOOL_0
 5
1A8
 10
4845.956
 20
622.604
 30
0
 11
4851.022
 21
627.67
 31
0
 0
ARC
 8
TOOL_0
 5
1A9
 10
4848.135
 20
630.523
 30
0
 40
4.058864126821
 50
315.339378696992
 51
359.703572152138
210
0
220
0
230
1.0
 0
LINE
 8
TOOL_0
 5
1AA
 10
4852.194
 20
630.502
 30
0
 11
4852.194
 21
924.498
 31
0
 0
LINE
 8
TOOL_0
 5
1AB
 10
4852.194
 20
924.498
 30
0
 11
4881.194
 21
924.498
 31
0
 0
LINE
 8
TOOL_0
 5
1AC
 10
4881.194
 20
924.498
 30
0
 11
4881.194
 21
920.998
 31
0
 0
ARC
 8
TOOL_0
 5
1AD
 10
4884.194
 20
920.998
 30
0
 40
3.0
 50
180.0
 51
270.0
210
0
220
0
230
1.0
 0
LINE
 8
TOOL_0
 5
1AE
 10
4884.194
 20
917.998
 30
0
 11
4938.694
 21
917.998
 31
0
 0
ARC
 8
TOOL_0
 5
1AF
 10
4938.694
 20
1116.998
 30
0
 40
199.0
 50
270.0
 51
359.99971208151
210
0
220
0
230
1.0
 0
LINE
 8
TOOL_0
 5
1B0
 10
5137.694
 20
1116.997
 30
0
 11
5137.694
 21
1435.498
 31
0
 0
ARC
 8
TOOL_0
 5
1B1
 10
4938.694
 20
1435.498
 30
0
 40
199.0
 50
0
 51
90.0
210
0
220
0
230
1.0
 0
LINE
 8
TOOL_0
 5
1B2
 10
4938.694
 20
1634.498
 30
0
 11
4781.28
 21
1634.498
 31
0
 0
LINE
 8
TOOL_0
 5
1B3
 10
4781.28
 20
1634.498
 30
0
 11
4772.694
 21
1643.084
 31
0
 0
LINE
 8
TOOL_0
 5
1B4
 10
4772.694
 20
1643.084
 30
0
 11
4772.694
 21
2367.912
 31
0
 0
LINE
 8
TOOL_0
 5
1B5
 10
4772.694
 20
2367.912
 30
0
 11
4781.28
 21
2376.498
 31
0
 0
LINE
 8
TOOL_0
 5
1B6
 10
4781.28
 20
2376.498
 30
0
 11
6259.694
 21
2376.498
 31
0
 0
ARC
 8
TOOL_0
 5
1B7
 10
6259.694
 20
2371.498
 30
0
 40
5.0
 50
0
 51
90.0
210
0
220
0
230
1.0
 0
LINE
 8
TOOL_0
 5
1B8
 10
6264.694
 20
2371.498
 30
0
 11
6264.694
 21
2.498
 31
0
 0
LINE
 8
TOOL_0
 5
1B9
 10
6264.694
 20
2.498
 30
0
 11
5385.694
 21
2.498
 31
0
 0
LINE
 8
TOOL_0
 5
1BA
 10
5385.694
 20
2.498
 30
0
 11
5385.694
 21
51.498
 31
0
 0
LINE
 8
TOOL_0
 5
1BB
 10
5385.694
 20
51.498
 30
0
 11
5382.158
 21
55.034
 31
0
 0
LINE
 8
TOOL_0
 5
1BC
 10
5382.158
 20
55.034
 30
0
 11
7947.54
 21
852.079
 31
0
 0
LINE
 8
TOOL_0
 5
1BD
 10
7947.54
 20
852.079
 30
0
 11
7912.566
 21
853.422
 31
0
 0
LINE
 8
TOOL_0
 5
1BE
 10
7912.566
 20
853.422
 30
0
 11
7866.255
 21
810.537
 31
0
 0
ARC
 8
TOOL_0
 5
1BF
 10
7818.354
 20
862.265
 30
0
 40
70.500296346895
 50
270.0
 51
312.800206794401
210
0
220
0
230
1.0
 0
LINE
 8
TOOL_0
 5
1C0
 10
7818.354
 20
791.765
 30
0
 11
7803.22
 21
791.765
 31
0
 0
ARC
 8
TOOL_0
 5
1C1
 10
7803.22
 20
862.265
 30
0
 40
70.5
 50
227.199793205599
 51
270.0
210
0
220
0
230
1.0
 0
LINE
 8
TOOL_0
 5
1C2
 10
7755.319
 20
810.537
 30
0
 11
7709.008
 21
853.421
 31
0
 0
ARC
 8
TOOL_0
 5
1C3
 10
7722.937
 20
868.462
 30
0
 40
20.499968829245
 50
199.920785441378
 51
227.19819273391
210
0
220
0
230
1.0
 0
LINE
 8
TOOL_0
 5
1C4
 10
7703.663
 20
861.477
 30
0
 11
7671.309
 21
950.74
 31
0
 0
ARC
 8
TOOL_0
 5
1C5
 10
7718.787
 20
967.948
 30
0
 40
50.50025493005
 50
179.998865430109
 51
199.922620719171
210
0
220
0
230
1.0
 0
LINE
 8
TOOL_0
 5
1C6
 10
7668.287
 20
967.949
 30
0
 11
7668.287
 21
1298.974
 31
0
 0
ARC
 8
TOOL_0
 5
1C7
 10
7718.787
 20
1298.974
 30
0
 40
50.5
 50
139.202791978101
 51
180.0
210
0
220
0
230
1.0
 0
LINE
 8
TOOL_0
 5
1C8
 10
7680.557
 20
1331.97
 30
0
 11
7746.76
 21
1408.674
 31
0
 0
ARC
 8
TOOL_0
 5
1C9
 10
7709.287
 20
1441.017
 30
0
 40
49.500458361514
 50
319.202476090436
 51
359.998842509505
210
0
220
0
230
1.0
 0
LINE
 8
TOOL_0
 5
1CA
 10
7758.787
 20
1441.016
 30
0
 11
7758.787
 21
1739.264
 31
0
 0
ARC
 8
TOOL_0
 5
1CB
 10
7769.287
 20
1739.264
 30
0
 40
10.5
 50
90.0
 51
180.0
210
0
220
0
230
1.0
 0
LINE
 8
TOOL_0
 5
1CC
 10
7769.287
 20
1749.764
 30
0
 11
7852.287
 21
1749.764
 31
0
 0
ARC
 8
TOOL_0
 5
1CD
 10
7852.287
 20
1739.264
 30
0
 40
10.5
 50
0
 51
90.0
210
0
220
0
230
1.0
 0
LINE
 8
TOOL_0
 5
1CE
 10
7862.787
 20
1739.264
 30
0
 11
7862.787
 21
1441.016
 31
0
 0
ARC
 8
TOOL_0
 5
1CF
 10
7912.287
 20
1441.016
 30
0
 40
49.5
 50
180.0
 51
220.797523909564
210
0
220
0
230
1.0
 0
LINE
 8
TOOL_0
 5
1D0
 10
7874.814
 20
1408.673
 30
0
 11
7941.017
 21
1331.969
 31
0
 0
ARC
 8
TOOL_0
 5
1D1
 10
7902.787
 20
1298.973
 30
0
 40
50.500187286781
 50
0
 51
40.797208021899
210
0
220
0
230
1.0
 0
LINE
 8
TOOL_0
 5
1D2
 10
7953.287
 20
1298.973
 30
0
 11
7953.287
 21
967.947
 31
0
 0
ARC
 8
TOOL_0
 5
1D3
 10
7902.787
 20
967.947
 30
0
 40
50.5
 50
340.077379280828
 51
0
210
0
220
0
230
1.0
 0
LINE
 8
TOOL_0
 5
1D4
 10
7950.265
 20
950.739
 30
0
 11
7917.911
 21
861.476
 31
0
 0
ARC
 8
TOOL_0
 5
1D5
 10
7898.638
 20
868.462
 30
0
 40
20.500066463307
 50
312.797857570943
 51
340.075634603524
210
0
220
0
230
1.0
 0
LINE
 8
TOOL_0
 5
1D6
 10
7912.566
 20
853.42
 30
0
 11
7912.374
 21
848.424
 31
0
 0
LINE
 8
TOOL_0
 5
1D7
 10
7912.374
 20
848.424
 30
0
 11
7342.365
 21
2143.497
 31
0
 0
LINE
 8
TOOL_0
 5
1D8
 10
7342.365
 20
2143.497
 30
0
 11
7372.365
 21
2143.497
 31
0
 0
ARC
 8
TOOL_0
 5
1D9
 10
7337.365
 20
2143.497
 30
0
 40
35.0
 50
0
 51
180.0
210
0
220
0
230
1.0
 0
ARC
 8
TOOL_0
 5
1DA
 10
7337.365
 20
2143.497
 30
0
 40
35.0
 50
180.0
 51
0
210
0
220
0
230
1.0
 0
LINE
 8
TOOL_0
 5
1DB
 10
7372.365
 20
2143.497
 30
0
 11
7365.294
 21
2150.568
 31
0
 0
LINE
 8
TOOL_0
 5
1DC
 10
7365.294
 20
2150.568
 30
0
 11
7355.365
 21
1903.497
 31
0
 0
LINE
 8
TOOL_0
 5
1DD
 10
7355.365
 20
1903.497
 30
0
 11
7385.365
 21
1903.497
 31
0
 0
ARC
 8
TOOL_0
 5
1DE
 10
7365.365
 20
1903.497
 30
0
 40
20.0
 50
0
 51
66.867990902554
210
0
220
0
230
1.0
 0
LINE
 8
TOOL_0
 5
1DF
 10
7373.222
 20
1921.889
 30
0
 11
7349.543
 21
1932.005
 31
0
 0
ARC
 8
TOOL_0
 5
1E0
 10
7337.364
 20
1903.319
 30
0
 40
31.164316726025
 50
66.9957430162
 51
113.002564662372
210
0
220
0
230
1.0
 0
LINE
 8
TOOL_0
 5
1E1
 10
7325.186
 20
1932.005
 30
0
 11
7301.507
 21
1921.889
 31
0
 0
ARC
 8
TOOL_0
 5
1E2
 10
7309.364
 20
1903.497
 30
0
 40
19.999952824944
 50
113.132009097445
 51
246.867990902554
210
0
220
0
230
1.0
 0
LINE
 8
TOOL_0
 5
1E3
 10
7301.507
 20
1885.105
 30
0
 11
7325.186
 21
1874.989
 31
0
 0
ARC
 8
TOOL_0
 5
1E4
 10
7337.365
 20
1903.676
 30
0
 40
31.165237204295
 50
246.996461482193
 51
293.001846237354
210
0
220
0
230
1.0
 0
LINE
 8
TOOL_0
 5
1E5
 10
7349.543
 20
1874.989
 30
0
 11
7373.222
 21
1885.105
 31
0
 0
ARC
 8
TOOL_0
 5
1E6
 10
7365.365
 20
1903.497
 30
0
 40
19.999952824944
 50
293.132009097446
 51
0
210
0
220
0
230
1.0
 0
LINE
 8
TOOL_0
 5
1E7
 10
7385.365
 20
1903.497
 30
0
 11
7378.294
 21
1910.568
 31
0
 0
LINE
 8
TOOL_0
 5
1E8
 10
7378.294
 20
1910.568
 30
0
 11
6904.865
 21
1853.497
 31
0
 0
LINE
 8
TOOL_0
 5
1E9
 10
6904.865
 20
1853.497
 30
0
 11
6934.865
 21
1853.497
 31
0
 0
LINE
 8
TOOL_0
 5
1EA
 10
6934.865
 20
1853.497
 30
0
 11
6934.865
 21
1883.497
 31
0
 0
ARC
 8
TOOL_0
 5
1EB
 10
6924.865
 20
1883.497
 30
0
 40
10.0
 50
0
 51
90.0
210
0
220
0
230
1.0
 0
LINE
 8
TOOL_0
 5
1EC
 10
6924.865
 20
1893.497
 30
0
 11
6744.865
 21
1893.497
 31
0
 0
ARC
 8
TOOL_0
 5
1ED
 10
6744.865
 20
1883.497
 30
0
 40
10.0
 50
90.0
 51
180.0
210
0
220
0
230
1.0
 0
LINE
 8
TOOL_0
 5
1EE
 10
6734.865
 20
1883.497
 30
0
 11
6734.865
 21
1823.497
 31
0
 0
ARC
 8
TOOL_0
 5
1EF
 10
6744.865
 20
1823.497
 30
0
 40
10.0
 50
180.0
 51
270.0
210
0
220
0
230
1.0
 0
LINE
 8
TOOL_0
 5
1F0
 10
6744.865
 20
1813.497
 30
0
 11
6924.865
 21
1813.497
 31
0
 0
ARC
 8
TOOL_0
 5
1F1
 10
6924.865
 20
1823.497
 30
0
 40
10.0
 50
270.0
 51
0
210
0
220
0
230
1.0
 0
LINE
 8
TOOL_0
 5
1F2
 10
6934.865
 20
1823.497
 30
0
 11
6934.865
 21
1853.497
 31
0
 0
LINE
 8
TOOL_0
 5
1F3
 10
6934.865
 20
1853.497
 30
0
 11
6927.794
 21
1860.568
 31
0
 0
LINE
 8
TOOL_0
 5
1F4
 10
6927.794
 20
1860.568
 30
0
 11
6634.865
 21
95.497
 31
0
 0
LINE
 8
TOOL_0
 5
1F5
 10
6634.865
 20
95.497
 30
0
 11
6664.865
 21
95.497
 31
0
 0
LINE
 8
TOOL_0
 5
1F6
 10
6664.865
 20
95.497
 30
0
 11
6664.865
 21
125.497
 31
0
 0
ARC
 8
TOOL_0
 5
1F7
 10
6634.865
 20
125.497
 30
0
 40
30.0
 50
0
 51
90.0
210
0
220
0
230
1.0
 0
LINE
 8
TOOL_0
 5
1F8
 10
6634.865
 20
155.497
 30
0
 11
6564.865
 21
155.497
 31
0
 0
ARC
 8
TOOL_0
 5
1F9
 10
6564.865
 20
125.497
 30
0
 40
30.0
 50
90.0
 51
180.0
210
0
220
0
230
1.0
 0
LINE
 8
TOOL_0
 5
1FA
 10
6534.865
 20
125.497
 30
0
 11
6534.865
 21
65.497
 31
0
 0
ARC
 8
TOOL_0
 5
1FB
 10
6544.865
 20
65.497
 30
0
 40
10.0
 50
180.0
 51
270.0
210
0
220
0
230
1.0
 0
LINE
 8
TOOL_0
 5
1FC
 10
6544.865
 20
55.497
 30
0
 11
6654.865
 21
55.497
 31
0
 0
ARC
 8
TOOL_0
 5
1FD
 10
6654.865
 20
65.497
 30
0
 40
10.0
 50
270.0
 51
0
210
0
220
0
230
1.0
 0
LINE
 8
TOOL_0
 5
1FE
 10
6664.865
 20
65.497
 30
0
 11
6664.865
 21
95.497
 31
0
 0
LINE
 8
TOOL_0
 5
1FF
 10
6664.865
 20
95.497
 30
0
 11
6657.794
 21
102.568
 31
0
 0
LINE
 8
TOOL_0
 5
200
 10
6657.794
 20
102.568
 30
0
 11
6714.865
 21
215.497
 31
0
 0
LINE
 8
TOOL_0
 5
201
 10
6714.865
 20
215.497
 30
0
 11
6744.865
 21
215.497
 31
0
 0
LINE
 8
TOOL_0
 5
202
 10
6744.865
 20
215.497
 30
0
 11
6744.865
 21
245.497
 31
0
 0
ARC
 8
TOOL_0
 5
203
 10
6724.865
 20
245.497
 30
0
 40
20.0
 50
0
 51
90.0
210
0
220
0
230
1.0
 0
LINE
 8
TOOL_0
 5
204
 10
6724.865
 20
265.497
 30
0
 11
6664.865
 21
265.497
 31
0
 0
ARC
 8
TOOL_0
 5
205
 10
6664.865
 20
245.497
 30
0
 40
20.0
 50
90.0
 51
180.0
210
0
220
0
230
1.0
 0
LINE
 8
TOOL_0
 5
206
 10
6644.865
 20
245.497
 30
0
 11
6644.865
 21
185.497
 31
0
 0
ARC
 8
TOOL_0
 5
207
 10
6664.865
 20
185.497
 30
0
 40
20.0
 50
180.0
 51
270.0
210
0
220
0
230
1.0
 0
LINE
 8
TOOL_0
 5
208
 10
6664.865
 20
165.497
 30
0
 11
6724.865
 21
165.497
 31
0
 0
ARC
 8
TOOL_0
 5
209
 10
6724.865
 20
185.497
 30
0
 40
20.0
 50
270.0
 51
0
210
0
220
0
230
1.0
 0
LINE
 8
TOOL_0
 5
20A
 10
6744.865
 20
185.497
 30
0
 11
6744.865
 21
215.497
 31
0
 0
LINE
 8
TOOL_0
 5
20B
 10
6744.865
 20
215.497
 30
0
 11
6737.794
 21
222.568
 31
0
 0
LINE
 8
TOOL_0
 5
20C
 10
6737.794
 20
222.568
 30
0
 11
7709.865
 21
188.497
 31
0
 0
LINE
 8
TOOL_0
 5
20D
 10
7709.865
 20
188.497
 30
0
 11
7739.865
 21
188.497
 31
0
 0
LINE
 8
TOOL_0
 5
20E
 10
7739.865
 20
188.497
 30
0
 11
7739.865
 21
218.497
 31
0
 0
ARC
 8
TOOL_0
 5
20F
 10
7719.865
 20
218.497
 30
0
 40
20.0
 50
0
 51
90.0
210
0
220
0
230
1.0
 0
LINE
 8
TOOL_0
 5
210
 10
7719.865
 20
238.497
 30
0
 11
7659.865
 21
238.497
 31
0
 0
ARC
 8
TOOL_0
 5
211
 10
7659.865
 20
218.497
 30
0
 40
20.0
 50
90.0
 51
180.0
210
0
220
0
230
1.0
 0
LINE
 8
TOOL_0
 5
212
 10
7639.865
 20
218.497
 30
0
 11
7639.865
 21
158.497
 31
0
 0
ARC
 8
TOOL_0
 5
213
 10
7659.865
 20
158.497
 30
0
 40
20.0
 50
180.0
 51
270.0
210
0
220
0
230
1.0
 0
LINE
 8
TOOL_0
 5
214
 10
7659.865
 20
138.497
 30
0
 11
7719.865
 21
138.497
 31
0
 0
ARC
 8
TOOL_0
 5
215
 10
7719.865
 20
158.497
 30
0
 40
20.0
 50
270.0
 51
0
210
0
220
0
230
1.0
 0
LINE
 8
TOOL_0
 5
216
 10
7739.865
 20
158.497
 30
0
 11
7739.865
 21
188.497
 31
0
 0
LINE
 8
TOOL_0
 5
217
 10
7739.865
 20
188.497
 30
0
 11
7732.794
 21
195.568
 31
0
 0
LINE
 8
TOOL_0
 5
218
 10
7732.794
 20
195.568
 30
0
 11
7790.614
 21
35.832
 31
0
 0
LINE
 8
TOOL_0
 5
219
 10
7790.614
 20
35.832
 30
0
 11
7765.865
 21
11.083
 31
0
 0
LINE
 8
TOOL_0
 5
21A
 10
7765.865
 20
11.083
 30
0
 11
7757.279
 21
2.497
 31
0
 0
LINE
 8
TOOL_0
 5
21B
 10
7757.279
 20
2.497
 30
0
 11
6278.865
 21
2.497
 31
0
 0
ARC
 8
TOOL_0
 5
21C
 10
6278.865
 20
7.497
 30
0
 40
5.0
 50
180.0
 51
270.0
210
0
220
0
230
1.0
 0
LINE
 8
TOOL_0
 5
21D
 10
6273.865
 20
7.497
 30
0
 11
6273.865
 21
2376.497
 31
0
 0
LINE
 8
TOOL_0
 5
21E
 10
6273.865
 20
2376.497
 30
0
 11
7152.865
 21
2376.497
 31
0
 0
LINE
 8
TOOL_0
 5
21F
 10
7152.865
 20
2376.497
 30
0
 11
7152.865
 21
2278.497
 31
0
 0
ARC
 8
TOOL_0
 5
220
 10
7181.865
 20
2278.497
 30
0
 40
29.0
 50
180.0
 51
270.0
210
0
220
0
230
1.0
 0
LINE
 8
TOOL_0
 5
221
 10
7181.865
 20
2249.497
 30
0
 11
7898.865
 21
2249.497
 31
0
 0
LINE
 8
TOOL_0
 5
222
 10
7898.865
 20
2249.497
 30
0
 11
7898.865
 21
1917.497
 31
0
 0
LINE
 8
TOOL_0
 5
223
 10
7898.865
 20
1917.497
 30
0
 11
7762.878
 21
1917.497
 31
0
 0
ARC
 8
TOOL_0
 5
224
 10
7764.045
 20
1878.802
 30
0
 40
38.712593738989
 50
91.727456089703
 51
133.08551315077
210
0
220
0
230
1.0
 0
ARC
 8
TOOL_0
 5
225
 10
7796.226
 20
1841.422
 30
0
 40
88.018219897928
 50
131.763334521565
 51
154.797213300508
210
0
220
0
230
1.0
 0
ARC
 8
TOOL_0
 5
226
 10
7895.391
 20
1791.086
 30
0
 40
199.204719502325
 50
153.842962626577
 51
171.509383253368
210
0
220
0
230
1.0
 0
ARC
 8
TOOL_0
 5
227
 10
7991.505
 20
1771.879
 30
0
 40
297.139589058745
 50
170.582723702997
 51
180.072887749413
210
0
220
0
230
1.0
 0
LINE
 8
TOOL_0
 5
228
 10
7694.366
 20
1771.501
 30
0
 11
7694.366
 21
1760.636
 31
0
 0
ARC
 8
TOOL_0
 5
229
 10
7688.308
 20
1760.664
 30
0
 40
6.058064707479
 50
315.160491959837
 51
359.73518151163
210
0
220
0
230
1.0
 0
LINE
 8
TOOL_0
 5
22A
 10
7692.604
 20
1756.392
 30
0
 11
7687.538
 21
1751.326
 31
0
 0
ARC
 8
TOOL_0
 5
22B
 10
7690.425
 20
1748.473
 30
0
 40
4.058864126822
 50
135.33937869699
 51
179.703572152138
210
0
220
0
230
1.0
 0
LINE
 8
TOOL_0
 5
22C
 10
7686.366
 20
1748.494
 30
0
 11
7686.366
 21
1454.498
 31
0
 0
LINE
 8
TOOL_0
 5
22D
 10
7686.366
 20
1454.498
 30
0
 11
7657.366
 21
1454.498
 31
0
 0
LINE
 8
TOOL_0
 5
22E
 10
7657.366
 20
1454.498
 30
0
 11
7657.366
 21
1457.998
 31
0
 0
ARC
 8
TOOL_0
 5
22F
 10
7654.366
 20
1457.998
 30
0
 40
3.0
 50
0
 51
90.0
210
0
220
0
230
1.0
 0
LINE
 8
TOOL_0
 5
230
 10
7654.366
 20
1460.998
 30
0
 11
7599.866
 21
1460.998
 31
0
 0
ARC
 8
TOOL_0
 5
231
 10
7599.866
 20
1261.998
 30
0
 40
199.0
 50
90.0
 51
180.0
210
0
220
0
230
1.0
 0
LINE
 8
TOOL_0
 5
232
 10
7400.866
 20
1261.998
 30
0
 11
7400.866
 21
943.498
 31
0
 0
ARC
 8
TOOL_0
 5
233
 10
7599.866
 20
943.498
 30
0
 40
199.0
 50
180.0
 51
269.99971208151
210
0
220
0
230
1.0
 0
LINE
 8
TOOL_0
 5
234
 10
7599.865
 20
744.498
 30
0
 11
7757.28
 21
744.498
 31
0
 0
LINE
 8
TOOL_0
 5
235
 10
7757.28
 20
744.498
 30
0
 11
7765.866
 21
735.912
 31
0
 0
LINE
 8
TOOL_0
 5
236
 10
7765.866
 20
735.912
 30
0
 11
7765.866
 21
11.084
 31
0
 0
LINE
 8
TOOL_0
 5
237
 10
7765.866
 20
11.084
 30
0
 11
7765.866
 21
6.084
 31
0
 0
LINE
 8
TOOL_0
 5
238
 10
7765.866
 20
6.084
 30
0
 11
8004.764
 21
2190.498
 31
0
 0
LINE
 8
TOOL_0
 5
239
 10
8004.764
 20
2190.498
 30
0
 11
8034.764
 21
2190.498
 31
0
 0
LINE
 8
TOOL_0
 5
23A
 10
8034.764
 20
2190.498
 30
0
 11
8034.764
 21
2220.498
 31
0
 0
ARC
 8
TOOL_0
 5
23B
 10
8014.764
 20
2220.498
 30
0
 40
20.0
 50
0
 51
90.0
210
0
220
0
230
1.0
 0
LINE
 8
TOOL_0
 5
23C
 10
8014.764
 20
2240.498
 30
0
 11
7954.764
 21
2240.498
 31
0
 0
ARC
 8
TOOL_0
 5
23D
 10
7954.764
 20
2220.498
 30
0
 40
20.0
 50
90.0
 51
180.0
210
0
220
0
230
1.0
 0
LINE
 8
TOOL_0
 5
23E
 10
7934.764
 20
2220.498
 30
0
 11
7934.764
 21
2160.498
 31
0
 0
ARC
 8
TOOL_0
 5
23F
 10
7954.764
 20
2160.498
 30
0
 40
20.0
 50
180.0
 51
270.0
210
0
220
0
230
1.0
 0
LINE
 8
TOOL_0
 5
240
 10
7954.764
 20
2140.498
 30
0
 11
8014.764
 21
2140.498
 31
0
 0
ARC
 8
TOOL_0
 5
241
 10
8014.764
 20
2160.498
 30
0
 40
20.0
 50
270.0
 51
0
210
0
220
0
230
1.0
 0
LINE
 8
TOOL_0
 5
242
 10
8034.764
 20
2160.498
 30
0
 11
8034.764
 21
2190.498
 31
0
 0
LINE
 8
TOOL_0
 5
243
 10
8034.764
 20
2190.498
 30
0
 11
8027.693
 21
2197.569
 31
0
 0
LINE
 8
TOOL_0
 5
244
 10
8027.693
 20
2197.569
 30
0
 11
9109.764
 21
2283.498
 31
0
 0
LINE
 8
TOOL_0
 5
245
 10
9109.764
 20
2283.498
 30
0
 11
9139.764
 21
2283.498
 31
0
 0
LINE
 8
TOOL_0
 5
246
 10
9139.764
 20
2283.498
 30
0
 11
9139.764
 21
2313.498
 31
0
 0
ARC
 8
TOOL_0
 5
247
 10
9129.764
 20
2313.498
 30
0
 40
10.0
 50
0
 51
90.0
210
0
220
0
230
1.0
 0
LINE
 8
TOOL_0
 5
248
 10
9129.764
 20
2323.498
 30
0
 11
9019.764
 21
2323.498
 31
0
 0
ARC
 8
TOOL_0
 5
249
 10
9019.764
 20
2313.498
 30
0
 40
10.0
 50
90.0
 51
180.0
210
0
220
0
230
1.0
 0
LINE
 8
TOOL_0
 5
24A
 10
9009.764
 20
2313.498
 30
0
 11
9009.764
 21
2253.498
 31
0
 0
ARC
 8
TOOL_0
 5
24B
 10
9039.764
 20
2253.498
 30
0
 40
30.0
 50
180.0
 51
270.0
210
0
220
0
230
1.0
 0
LINE
 8
TOOL_0
 5
24C
 10
9039.764
 20
2223.498
 30
0
 11
9109.764
 21
2223.498
 31
0
 0
ARC
 8
TOOL_0
 5
24D
 10
9109.764
 20
2253.498
 30
0
 40
30.0
 50
270.0
 51
0
210
0
220
0
230
1.0
 0
LINE
 8
TOOL_0
 5
24E
 10
9139.764
 20
2253.498
 30
0
 11
9139.764
 21
2283.498
 31
0
 0
LINE
 8
TOOL_0
 5
24F
 10
9139.764
 20
2283.498
 30
0
 11
9132.693
 21
2290.569
 31
0
 0
LINE
 8
TOOL_0
 5
250
 10
9132.693
 20
2290.569
 30
0
 11
8999.764
 21
2163.498
 31
0
 0
LINE
 8
TOOL_0
 5
251
 10
8999.764
 20
2163.498
 30
0
 11
9029.764
 21
2163.498
 31
0
 0
LINE
 8
TOOL_0
 5
252
 10
9029.764
 20
2163.498
 30
0
 11
9029.764
 21
2193.498
 31
0
 0
ARC
 8
TOOL_0
 5
253
 10
9009.764
 20
2193.498
 30
0
 40
20.0
 50
0
 51
90.0
210
0
220
0
230
1.0
 0
LINE
 8
TOOL_0
 5
254
 10
9009.764
 20
2213.498
 30
0
 11
8949.764
 21
2213.498
 31
0
 0
ARC
 8
TOOL_0
 5
255
 10
8949.764
 20
2193.498
 30
0
 40
20.0
 50
90.0
 51
180.0
210
0
220
0
230
1.0
 0
LINE
 8
TOOL_0
 5
256
 10
8929.764
 20
2193.498
 30
0
 11
8929.764
 21
2133.498
 31
0
 0
ARC
 8
TOOL_0
 5
257
 10
8949.764
 20
2133.498
 30
0
 40
20.0
 50
180.0
 51
270.0
210
0
220
0
230
1.0
 0
LINE
 8
TOOL_0
 5
258
 10
8949.764
 20
2113.498
 30
0
 11
9009.764
 21
2113.498
 31
0
 0
ARC
 8
TOOL_0
 5
259
 10
9009.764
 20
2133.498
 30
0
 40
20.0
 50
270.0
 51
0
210
0
220
0
230
1.0
 0
LINE
 8
TOOL_0
 5
25A
 10
9029.764
 20
2133.498
 30
0
 11
9029.764
 21
2163.498
 31
0
 0
LINE
 8
TOOL_0
 5
25B
 10
9029.764
 20
2163.498
 30
0
 11
9022.693
 21
2170.569
 31
0
 0
LINE
 8
TOOL_0
 5
25C
 10
9022.693
 20
2170.569
 30
0
 11
8909.764
 21
525.498
 31
0
 0
LINE
 8
TOOL_0
 5
25D
 10
8909.764
 20
525.498
 30
0
 11
8939.764
 21
525.498
 31
0
 0
LINE
 8
TOOL_0
 5
25E
 10
8939.764
 20
525.498
 30
0
 11
8939.764
 21
555.498
 31
0
 0
ARC
 8
TOOL_0
 5
25F
 10
8929.764
 20
555.498
 30
0
 40
10.0
 50
0
 51
90.0
210
0
220
0
230
1.0
 0
LINE
 8
TOOL_0
 5
260
 10
8929.764
 20
565.498
 30
0
 11
8749.764
 21
565.498
 31
0
 0
ARC
 8
TOOL_0
 5
261
 10
8749.764
 20
555.498
 30
0
 40
10.0
 50
90.0
 51
180.0
210
0
220
0
230
1.0
 0
LINE
 8
TOOL_0
 5
262
 10
8739.764
 20
555.498
 30
0
 11
8739.764
 21
495.498
 31
0
 0
ARC
 8
TOOL_0
 5
263
 10
8749.764
 20
495.498
 30
0
 40
10.0
 50
180.0
 51
270.0
210
0
220
0
230
1.0
 0
LINE
 8
TOOL_0
 5
264
 10
8749.764
 20
485.498
 30
0
 11
8929.764
 21
485.498
 31
0
 0
ARC
 8
TOOL_0
 5
265
 10
8929.764
 20
495.498
 30
0
 40
10.0
 50
270.0
 51
0
210
0
220
0
230
1.0
 0
LINE
 8
TOOL_0
 5
266
 10
8939.764
 20
495.498
 30
0
 11
8939.764
 21
525.498
 31
0
 0
LINE
 8
TOOL_0
 5
267
 10
8939.764
 20
525.498
 30
0
 11
8932.693
 21
532.569
 31
0
 0
LINE
 8
TOOL_0
 5
268
 10
8932.693
 20
532.569
 30
0
 11
8355.264
 21
475.498
 31
0
 0
LINE
 8
TOOL_0
 5
269
 10
8355.264
 20
475.498
 30
0
 11
8385.264
 21
475.498
 31
0
 0
ARC
 8
TOOL_0
 5
26A
 10
8365.264
 20
475.498
 30
0
 40
20.0
 50
0
 51
66.867990902554
210
0
220
0
230
1.0
 0
LINE
 8
TOOL_0
 5
26B
 10
8373.121
 20
493.89
 30
0
 11
8349.442
 21
504.006
 31
0
 0
ARC
 8
TOOL_0
 5
26C
 10
8337.263
 20
475.319
 30
0
 40
31.165237204296
 50
66.996461482193
 51
113.001846237354
210
0
220
0
230
1.0
 0
LINE
 8
TOOL_0
 5
26D
 10
8325.085
 20
504.006
 30
0
 11
8301.406
 21
493.89
 31
0
 0
ARC
 8
TOOL_0
 5
26E
 10
8309.263
 20
475.498
 30
0
 40
19.999952824944
 50
113.132009097445
 51
246.867990902554
210
0
220
0
230
1.0
 0
LINE
 8
TOOL_0
 5
26F
 10
8301.406
 20
457.106
 30
0
 11
8325.085
 21
446.99
 31
0
 0
ARC
 8
TOOL_0
 5
270
 10
8337.264
 20
475.676
 30
0
 40
31.164316726025
 50
246.9957430162
 51
293.002564662372
210
0
220
0
230
1.0
 0
LINE
 8
TOOL_0
 5
271
 10
8349.442
 20
446.99
 30
0
 11
8373.121
 21
457.106
 31
0
 0
ARC
 8
TOOL_0
 5
272
 10
8365.264
 20
475.498
 30
0
 40
19.999952824944
 50
293.132009097446
 51
0
210
0
220
0
230
1.0
 0
LINE
 8
TOOL_0
 5
273
 10
8385.264
 20
475.498
 30
0
 11
8378.193
 21
482.569
 31
0
 0
LINE
 8
TOOL_0
 5
274
 10
8378.193
 20
482.569
 30
0
 11
8342.264
 21
235.498
 31
0
 0
LINE
 8
TOOL_0
 5
275
 10
8342.264
 20
235.498
 30
0
 11
8372.264
 21
235.498
 31
0
 0
ARC
 8
TOOL_0
 5
276
 10
8337.264
 20
235.498
 30
0
 40
35.0
 50
0
 51
180.0
210
0
220
0
230
1.0
 0
ARC
 8
TOOL_0
 5
277
 10
8337.264
 20
235.498
 30
0
 40
35.0
 50
180.0
 51
0
210
0
220
0
230
1.0
 0
LINE
 8
TOOL_0
 5
278
 10
8372.264
 20
235.498
 30
0
 11
8365.193
 21
242.569
 31
0
 0
LINE
 8
TOOL_0
 5
279
 10
8365.193
 20
242.569
 30
0
 11
8497.015
 21
26.749
 31
0
 0
LINE
 8
TOOL_0
 5
27A
 10
8497.015
 20
26.749
 30
0
 11
8521.764
 21
51.498
 31
0
 0
LINE
 8
TOOL_0
 5
27B
 10
8521.764
 20
51.498
 30
0
 11
8521.764
 21
100.498
 31
0
 0
ARC
 8
TOOL_0
 5
27C
 10
8492.764
 20
100.498
 30
0
 40
29.0
 50
0
 51
90.0
210
0
220
0
230
1.0
 0
LINE
 8
TOOL_0
 5
27D
 10
8492.764
 20
129.498
 30
0
 11
7775.764
 21
129.498
 31
0
 0
LINE
 8
TOOL_0
 5
27E
 10
7775.764
 20
129.498
 30
0
 11
7775.764
 21
461.498
 31
0
 0
LINE
 8
TOOL_0
 5
27F
 10
7775.764
 20
461.498
 30
0
 11
7911.751
 21
461.498
 31
0
 0
ARC
 8
TOOL_0
 5
280
 10
7910.584
 20
500.193
 30
0
 40
38.712593738989
 50
271.727456089703
 51
313.08551315077
210
0
220
0
230
1.0
 0
ARC
 8
TOOL_0
 5
281
 10
7878.404
 20
537.573
 30
0
 40
88.01755384581
 50
311.762848970029
 51
334.796347112778
210
0
220
0
230
1.0
 0
ARC
 8
TOOL_0
 5
282
 10
7779.238
 20
587.908
 30
0
 40
199.204719502325
 50
333.842962626577
 51
351.509141250667
210
0
220
0
230
1.0
 0
ARC
 8
TOOL_0
 5
283
 10
7683.125
 20
607.115
 30
0
 40
297.139752683817
 50
350.582533477366
 51
0.072694924886
210
0
220
0
230
1.0
 0
LINE
 8
TOOL_0
 5
284
 10
7980.264
 20
607.492
 30
0
 11
7980.264
 21
618.359
 31
0
 0
ARC
 8
TOOL_0
 5
285
 10
7986.322
 20
618.331
 30
0
 40
6.058064707479
 50
135.160491959836
 51
179.73518151163
210
0
220
0
230
1.0
 0
LINE
 8
TOOL_0
 5
286
 10
7982.026
 20
622.603
 30
0
 11
7987.092
 21
627.669
 31
0
 0
ARC
 8
TOOL_0
 5
287
 10
7984.205
 20
630.522
 30
0
 40
4.058864126821
 50
315.339378696992
 51
359.703572152138
210
0
220
0
230
1.0
 0
LINE
 8
TOOL_0
 5
288
 10
7988.264
 20
630.501
 30
0
 11
7988.264
 21
924.497
 31
0
 0
LINE
 8
TOOL_0
 5
289
 10
7988.264
 20
924.497
 30
0
 11
8017.264
 21
924.497
 31
0
 0
LINE
 8
TOOL_0
 5
28A
 10
8017.264
 20
924.497
 30
0
 11
8017.264
 21
920.997
 31
0
 0
ARC
 8
TOOL_0
 5
28B
 10
8020.264
 20
920.997
 30
0
 40
3.0
 50
180.0
 51
270.0
210
0
220
0
230
1.0
 0
LINE
 8
TOOL_0
 5
28C
 10
8020.264
 20
917.997
 30
0
 11
8074.764
 21
917.997
 31
0
 0
ARC
 8
TOOL_0
 5
28D
 10
8074.764
 20
1116.997
 30
0
 40
199.0
 50
270.0
 51
359.99971208151
210
0
220
0
230
1.0
 0
LINE
 8
TOOL_0
 5
28E
 10
8273.764
 20
1116.996
 30
0
 11
8273.764
 21
1435.497
 31
0
 0
ARC
 8
TOOL_0
 5
28F
 10
8074.764
 20
1435.497
 30
0
 40
199.0
 50
0
 51
90.0
210
0
220
0
230
1.0
 0
LINE
 8
TOOL_0
 5
290
 10
8074.764
 20
1634.497
 30
0
 11
7917.35
 21
1634.497
 31
0
 0
LINE
 8
TOOL_0
 5
291
 10
7917.35
 20
1634.497
 30
0
 11
7908.764
 21
1643.083
 31
0
 0
LINE
 8
TOOL_0
 5
292
 10
7908.764
 20
1643.083
 30
0
 11
7908.764
 21
2367.911
 31
0
 0
LINE
 8
TOOL_0
 5
293
 10
7908.764
 20
2367.911
 30
0
 11
7917.35
 21
2376.497
 31
0
 0
LINE
 8
TOOL_0
 5
294
 10
7917.35
 20
2376.497
 30
0
 11
9395.764
 21
2376.497
 31
0
 0
ARC
 8
TOOL_0
 5
295
 10
9395.764
 20
2371.497
 30
0
 40
5.0
 50
0
 51
90.0
210
0
220
0
230
1.0
 0
LINE
 8
TOOL_0
 5
296
 10
9400.764
 20
2371.497
 30
0
 11
9400.764
 21
2.497
 31
0
 0
LINE
 8
TOOL_0
 5
297
 10
9400.764
 20
2.497
 30
0
 11
8521.764
 21
2.497
 31
0
 0
LINE
 8
TOOL_0
 5
298
 10
8521.764
 20
2.497
 30
0
 11
8521.764
 21
51.497
 31
0
 0
LINE
 8
TOOL_0
 5
299
 10
8521.764
 20
51.497
 30
0
 11
8518.228
 21
55.033
 31
0
 0
LINE
 8
TOOL_0
 5
29A
 10
8518.228
 20
55.033
 30
0
 11
11069.467
 21
844.862
 31
0
 0
LINE
 8
TOOL_0
 5
29B
 10
11069.467
 20
844.862
 30
0
 11
11034.493
 21
846.205
 31
0
 0
LINE
 8
TOOL_0
 5
29C
 10
11034.493
 20
846.205
 30
0
 11
10988.182
 21
803.32
 31
0
 0
ARC
 8
TOOL_0
 5
29D
 10
10940.281
 20
855.048
 30
0
 40
70.500296346895
 50
270.0
 51
312.800206794401
210
0
220
0
230
1.0
 0
LINE
 8
TOOL_0
 5
29E
 10
10940.281
 20
784.548
 30
0
 11
10925.147
 21
784.548
 31
0
 0
ARC
 8
TOOL_0
 5
29F
 10
10925.147
 20
855.048
 30
0
 40
70.5
 50
227.199793205599
 51
270.0
210
0
220
0
230
1.0
 0
LINE
 8
TOOL_0
 5
2A0
 10
10877.246
 20
803.32
 30
0
 11
10830.935
 21
846.204
 31
0
 0
ARC
 8
TOOL_0
 5
2A1
 10
10844.864
 20
861.245
 30
0
 40
20.499968829245
 50
199.920785441379
 51
227.19819273391
210
0
220
0
230
1.0
 0
LINE
 8
TOOL_0
 5
2A2
 10
10825.59
 20
854.26
 30
0
 11
10793.236
 21
943.523
 31
0
 0
ARC
 8
TOOL_0
 5
2A3
 10
10840.714
 20
960.731
 30
0
 40
50.500254930049
 50
179.998865430109
 51
199.922620719172
210
0
220
0
230
1.0
 0
LINE
 8
TOOL_0
 5
2A4
 10
10790.214
 20
960.732
 30
0
 11
10790.214
 21
1291.757
 31
0
 0
ARC
 8
TOOL_0
 5
2A5
 10
10840.714
 20
1291.757
 30
0
 40
50.5
 50
139.202791978101
 51
180.0
210
0
220
0
230
1.0
 0
LINE
 8
TOOL_0
 5
2A6
 10
10802.484
 20
1324.753
 30
0
 11
10868.687
 21
1401.457
 31
0
 0
ARC
 8
TOOL_0
 5
2A7
 10
10831.214
 20
1433.8
 30
0
 40
49.500458361514
 50
319.202476090436
 51
359.998842509505
210
0
220
0
230
1.0
 0
LINE
 8
TOOL_0
 5
2A8
 10
10880.714
 20
1433.799
 30
0
 11
10880.714
 21
1732.047
 31
0
 0
ARC
 8
TOOL_0
 5
2A9
 10
10891.214
 20
1732.047
 30
0
 40
10.5
 50
90.0
 51
180.0
210
0
220
0
230
1.0
 0
LINE
 8
TOOL_0
 5
2AA
 10
10891.214
 20
1742.547
 30
0
 11
10974.214
 21
1742.547
 31
0
 0
ARC
 8
TOOL_0
 5
2AB
 10
10974.214
 20
1732.047
 30
0
 40
10.5
 50
0
 51
90.0
210
0
220
0
230
1.0
 0
LINE
 8
TOOL_0
 5
2AC
 10
10984.714
 20
1732.047
 30
0
 11
10984.714
 21
1433.799
 31
0
 0
ARC
 8
TOOL_0
 5
2AD
 10
11034.214
 20
1433.799
 30
0
 40
49.5
 50
180.0
 51
220.797523909564
210
0
220
0
230
1.0
 0
LINE
 8
TOOL_0
 5
2AE
 10
10996.741
 20
1401.456
 30
0
 11
11062.944
 21
1324.752
 31
0
 0
ARC
 8
TOOL_0
 5
2AF
 10
11024.714
 20
1291.756
 30
0
 40
50.500187286781
 50
0
 51
40.797208021899
210
0
220
0
230
1.0
 0
LINE
 8
TOOL_0
 5
2B0
 10
11075.214
 20
1291.756
 30
0
 11
11075.214
 21
960.73
 31
0
 0
ARC
 8
TOOL_0
 5
2B1
 10
11024.714
 20
960.73
 30
0
 40
50.5
 50
340.077379280828
 51
0
210
0
220
0
230
1.0
 0
LINE
 8
TOOL_0
 5
2B2
 10
11072.192
 20
943.522
 30
0
 11
11039.838
 21
854.259
 31
0
 0
ARC
 8
TOOL_0
 5
2B3
 10
11020.565
 20
861.245
 30
0
 40
20.500066463306
 50
312.797857570943
 51
340.075634603523
210
0
220
0
230
1.0
 0
LINE
 8
TOOL_0
 5
2B4
 10
11034.493
 20
846.203
 30
0
 11
11034.301
 21
841.207
 31
0
 0
LINE
 8
TOOL_0
 5
2B5
 10
11034.301
 20
841.207
 30
0
 11
10478.274
 21
2143.496
 31
0
 0
LINE
 8
TOOL_0
 5
2B6
 10
10478.274
 20
2143.496
 30
0
 11
10508.274
 21
2143.496
 31
0
 0
ARC
 8
TOOL_0
 5
2B7
 10
10473.274
 20
2143.496
 30
0
 40
35.0
 50
0
 51
180.0
210
0
220
0
230
1.0
 0
ARC
 8
TOOL_0
 5
2B8
 10
10473.274
 20
2143.496
 30
0
 40
35.0
 50
180.0
 51
0
210
0
220
0
230
1.0
 0
LINE
 8
TOOL_0
 5
2B9
 10
10508.274
 20
2143.496
 30
0
 11
10501.203
 21
2150.567
 31
0
 0
LINE
 8
TOOL_0
 5
2BA
 10
10501.203
 20
2150.567
 30
0
 11
10491.274
 21
1903.496
 31
0
 0
LINE
 8
TOOL_0
 5
2BB
 10
10491.274
 20
1903.496
 30
0
 11
10521.274
 21
1903.496
 31
0
 0
ARC
 8
TOOL_0
 5
2BC
 10
10501.274
 20
1903.496
 30
0
 40
20.0
 50
0
 51
66.867990902554
210
0
220
0
230
1.0
 0
LINE
 8
TOOL_0
 5
2BD
 10
10509.131
 20
1921.888
 30
0
 11
10485.452
 21
1932.004
 31
0
 0
ARC
 8
TOOL_0
 5
2BE
 10
10473.273
 20
1903.318
 30
0
 40
31.164316726025
 50
66.9957430162
 51
113.002564662372
210
0
220
0
230
1.0
 0
LINE
 8
TOOL_0
 5
2BF
 10
10461.095
 20
1932.004
 30
0
 11
10437.416
 21
1921.888
 31
0
 0
ARC
 8
TOOL_0
 5
2C0
 10
10445.273
 20
1903.496
 30
0
 40
19.999952824944
 50
113.132009097445
 51
246.867990902554
210
0
220
0
230
1.0
 0
LINE
 8
TOOL_0
 5
2C1
 10
10437.416
 20
1885.104
 30
0
 11
10461.095
 21
1874.988
 31
0
 0
ARC
 8
TOOL_0
 5
2C2
 10
10473.274
 20
1903.675
 30
0
 40
31.165237204295
 50
246.996461482193
 51
293.001846237354
210
0
220
0
230
1.0
 0
LINE
 8
TOOL_0
 5
2C3
 10
10485.452
 20
1874.988
 30
0
 11
10509.131
 21
1885.104
 31
0
 0
ARC
 8
TOOL_0
 5
2C4
 10
10501.274
 20
1903.496
 30
0
 40
19.999952824944
 50
293.132009097446
 51
0
210
0
220
0
230
1.0
 0
LINE
 8
TOOL_0
 5
2C5
 10
10521.274
 20
1903.496
 30
0
 11
10514.203
 21
1910.567
 31
0
 0
LINE
 8
TOOL_0
 5
2C6
 10
10514.203
 20
1910.567
 30
0
 11
10040.774
 21
1853.496
 31
0
 0
LINE
 8
TOOL_0
 5
2C7
 10
10040.774
 20
1853.496
 30
0
 11
10070.774
 21
1853.496
 31
0
 0
LINE
 8
TOOL_0
 5
2C8
 10
10070.774
 20
1853.496
 30
0
 11
10070.774
 21
1883.496
 31
0
 0
ARC
 8
TOOL_0
 5
2C9
 10
10060.774
 20
1883.496
 30
0
 40
10.0
 50
0
 51
90.0
210
0
220
0
230
1.0
 0
LINE
 8
TOOL_0
 5
2CA
 10
10060.774
 20
1893.496
 30
0
 11
9880.774
 21
1893.496
 31
0
 0
ARC
 8
TOOL_0
 5
2CB
 10
9880.774
 20
1883.496
 30
0
 40
10.0
 50
90.0
 51
180.0
210
0
220
0
230
1.0
 0
LINE
 8
TOOL_0
 5
2CC
 10
9870.774
 20
1883.496
 30
0
 11
9870.774
 21
1823.496
 31
0
 0
ARC
 8
TOOL_0
 5
2CD
 10
9880.774
 20
1823.496
 30
0
 40
10.0
 50
180.0
 51
270.0
210
0
220
0
230
1.0
 0
LINE
 8
TOOL_0
 5
2CE
 10
9880.774
 20
1813.496
 30
0
 11
10060.774
 21
1813.496
 31
0
 0
ARC
 8
TOOL_0
 5
2CF
 10
10060.774
 20
1823.496
 30
0
 40
10.0
 50
270.0
 51
0
210
0
220
0
230
1.0
 0
LINE
 8
TOOL_0
 5
2D0
 10
10070.774
 20
1823.496
 30
0
 11
10070.774
 21
1853.496
 31
0
 0
LINE
 8
TOOL_0
 5
2D1
 10
10070.774
 20
1853.496
 30
0
 11
10063.703
 21
1860.567
 31
0
 0
LINE
 8
TOOL_0
 5
2D2
 10
10063.703
 20
1860.567
 30
0
 11
9770.774
 21
95.496
 31
0
 0
LINE
 8
TOOL_0
 5
2D3
 10
9770.774
 20
95.496
 30
0
 11
9800.774
 21
95.496
 31
0
 0
LINE
 8
TOOL_0
 5
2D4
 10
9800.774
 20
95.496
 30
0
 11
9800.774
 21
125.496
 31
0
 0
ARC
 8
TOOL_0
 5
2D5
 10
9770.774
 20
125.496
 30
0
 40
30.0
 50
0
 51
90.0
210
0
220
0
230
1.0
 0
LINE
 8
TOOL_0
 5
2D6
 10
9770.774
 20
155.496
 30
0
 11
9700.774
 21
155.496
 31
0
 0
ARC
 8
TOOL_0
 5
2D7
 10
9700.774
 20
125.496
 30
0
 40
30.0
 50
90.0
 51
180.0
210
0
220
0
230
1.0
 0
LINE
 8
TOOL_0
 5
2D8
 10
9670.774
 20
125.496
 30
0
 11
9670.774
 21
65.496
 31
0
 0
ARC
 8
TOOL_0
 5
2D9
 10
9680.774
 20
65.496
 30
0
 40
10.0
 50
180.0
 51
270.0
210
0
220
0
230
1.0
 0
LINE
 8
TOOL_0
 5
2DA
 10
9680.774
 20
55.496
 30
0
 11
9790.774
 21
55.496
 31
0
 0
ARC
 8
TOOL_0
 5
2DB
 10
9790.774
 20
65.496
 30
0
 40
10.0
 50
270.0
 51
0
210
0
220
0
230
1.0
 0
LINE
 8
TOOL_0
 5
2DC
 10
9800.774
 20
65.496
 30
0
 11
9800.774
 21
95.496
 31
0
 0
LINE
 8
TOOL_0
 5
2DD
 10
9800.774
 20
95.496
 30
0
 11
9793.703
 21
102.567
 31
0
 0
LINE
 8
TOOL_0
 5
2DE
 10
9793.703
 20
102.567
 30
0
 11
9850.774
 21
215.496
 31
0
 0
LINE
 8
TOOL_0
 5
2DF
 10
9850.774
 20
215.496
 30
0
 11
9880.774
 21
215.496
 31
0
 0
LINE
 8
TOOL_0
 5
2E0
 10
9880.774
 20
215.496
 30
0
 11
9880.774
 21
245.496
 31
0
 0
ARC
 8
TOOL_0
 5
2E1
 10
9860.774
 20
245.496
 30
0
 40
20.0
 50
0
 51
90.0
210
0
220
0
230
1.0
 0
LINE
 8
TOOL_0
 5
2E2
 10
9860.774
 20
265.496
 30
0
 11
9800.774
 21
265.496
 31
0
 0
ARC
 8
TOOL_0
 5
2E3
 10
9800.774
 20
245.496
 30
0
 40
20.0
 50
90.0
 51
180.0
210
0
220
0
230
1.0
 0
LINE
 8
TOOL_0
 5
2E4
 10
9780.774
 20
245.496
 30
0
 11
9780.774
 21
185.496
 31
0
 0
ARC
 8
TOOL_0
 5
2E5
 10
9800.774
 20
185.496
 30
0
 40
20.0
 50
180.0
 51
270.0
210
0
220
0
230
1.0
 0
LINE
 8
TOOL_0
 5
2E6
 10
9800.774
 20
165.496
 30
0
 11
9860.774
 21
165.496
 31
0
 0
ARC
 8
TOOL_0
 5
2E7
 10
9860.774
 20
185.496
 30
0
 40
20.0
 50
270.0
 51
0
210
0
220
0
230
1.0
 0
LINE
 8
TOOL_0
 5
2E8
 10
9880.774
 20
185.496
 30
0
 11
9880.774
 21
215.496
 31
0
 0
LINE
 8
TOOL_0
 5
2E9
 10
9880.774
 20
215.496
 30
0
 11
9873.703
 21
222.567
 31
0
 0
LINE
 8
TOOL_0
 5
2EA
 10
9873.703
 20
222.567
 30
0
 11
10845.774
 21
188.496
 31
0
 0
LINE
 8
TOOL_0
 5
2EB
 10
10845.774
 20
188.496
 30
0
 11
10875.774
 21
188.496
 31
0
 0
LINE
 8
TOOL_0
 5
2EC
 10
10875.774
 20
188.496
 30
0
 11
10875.774
 21
218.496
 31
0
 0
ARC
 8
TOOL_0
 5
2ED
 10
10855.774
 20
218.496
 30
0
 40
20.0
 50
0
 51
90.0
210
0
220
0
230
1.0
 0
LINE
 8
TOOL_0
 5
2EE
 10
10855.774
 20
238.496
 30
0
 11
10795.774
 21
238.496
 31
0
 0
ARC
 8
TOOL_0
 5
2EF
 10
10795.774
 20
218.496
 30
0
 40
20.0
 50
90.0
 51
180.0
210
0
220
0
230
1.0
 0
LINE
 8
TOOL_0
 5
2F0
 10
10775.774
 20
218.496
 30
0
 11
10775.774
 21
158.496
 31
0
 0
ARC
 8
TOOL_0
 5
2F1
 10
10795.774
 20
158.496
 30
0
 40
20.0
 50
180.0
 51
270.0
210
0
220
0
230
1.0
 0
LINE
 8
TOOL_0
 5
2F2
 10
10795.774
 20
138.496
 30
0
 11
10855.774
 21
138.496
 31
0
 0
ARC
 8
TOOL_0
 5
2F3
 10
10855.774
 20
158.496
 30
0
 40
20.0
 50
270.0
 51
0
210
0
220
0
230
1.0
 0
LINE
 8
TOOL_0
 5
2F4
 10
10875.774
 20
158.496
 30
0
 11
10875.774
 21
188.496
 31
0
 0
LINE
 8
TOOL_0
 5
2F5
 10
10875.774
 20
188.496
 30
0
 11
10868.703
 21
195.567
 31
0
 0
LINE
 8
TOOL_0
 5
2F6
 10
10868.703
 20
195.567
 30
0
 11
10926.523
 21
35.831
 31
0
 0
LINE
 8
TOOL_0
 5
2F7
 10
10926.523
 20
35.831
 30
0
 11
10901.774
 21
11.082
 31
0
 0
LINE
 8
TOOL_0
 5
2F8
 10
10901.774
 20
11.082
 30
0
 11
10893.188
 21
2.496
 31
0
 0
LINE
 8
TOOL_0
 5
2F9
 10
10893.188
 20
2.496
 30
0
 11
9414.774
 21
2.496
 31
0
 0
ARC
 8
TOOL_0
 5
2FA
 10
9414.774
 20
7.496
 30
0
 40
5.0
 50
180.0
 51
270.0
210
0
220
0
230
1.0
 0
LINE
 8
TOOL_0
 5
2FB
 10
9409.774
 20
7.496
 30
0
 11
9409.774
 21
2376.496
 31
0
 0
LINE
 8
TOOL_0
 5
2FC
 10
9409.774
 20
2376.496
 30
0
 11
10288.774
 21
2376.496
 31
0
 0
LINE
 8
TOOL_0
 5
2FD
 10
10288.774
 20
2376.496
 30
0
 11
10288.774
 21
2278.496
 31
0
 0
ARC
 8
TOOL_0
 5
2FE
 10
10317.774
 20
2278.496
 30
0
 40
29.0
 50
180.0
 51
270.0
210
0
220
0
230
1.0
 0
LINE
 8
TOOL_0
 5
2FF
 10
10317.774
 20
2249.496
 30
0
 11
11034.774
 21
2249.496
 31
0
 0
LINE
 8
TOOL_0
 5
300
 10
11034.774
 20
2249.496
 30
0
 11
11034.774
 21
1917.496
 31
0
 0
LINE
 8
TOOL_0
 5
301
 10
11034.774
 20
1917.496
 30
0
 11
10898.787
 21
1917.496
 31
0
 0
ARC
 8
TOOL_0
 5
302
 10
10899.954
 20
1878.801
 30
0
 40
38.712593738989
 50
91.727456089702
 51
133.085513150769
210
0
220
0
230
1.0
 0
ARC
 8
TOOL_0
 5
303
 10
10932.135
 20
1841.421
 30
0
 40
88.018219897928
 50
131.763334521565
 51
154.797213300508
210
0
220
0
230
1.0
 0
ARC
 8
TOOL_0
 5
304
 10
11031.3
 20
1791.085
 30
0
 40
199.204719502325
 50
153.842962626577
 51
171.509383253368
210
0
220
0
230
1.0
 0
ARC
 8
TOOL_0
 5
305
 10
11127.414
 20
1771.878
 30
0
 40
297.139589058745
 50
170.582723702997
 51
180.072887749413
210
0
220
0
230
1.0
 0
LINE
 8
TOOL_0
 5
306
 10
10830.275
 20
1771.5
 30
0
 11
10830.275
 21
1760.635
 31
0
 0
ARC
 8
TOOL_0
 5
307
 10
10824.217
 20
1760.663
 30
0
 40
6.05806470748
 50
315.160491959837
 51
359.73518151163
210
0
220
0
230
1.0
 0
LINE
 8
TOOL_0
 5
308
 10
10828.513
 20
1756.391
 30
0
 11
10823.447
 21
1751.325
 31
0
 0
ARC
 8
TOOL_0
 5
309
 10
10826.334
 20
1748.472
 30
0
 40
4.058864126822
 50
135.339378696999
 51
179.703572152138
210
0
220
0
230
1.0
 0
LINE
 8
TOOL_0
 5
30A
 10
10822.275
 20
1748.493
 30
0
 11
10822.275
 21
1454.497
 31
0
 0
LINE
 8
TOOL_0
 5
30B
 10
10822.275
 20
1454.497
 30
0
 11
10793.275
 21
1454.497
 31
0
 0
LINE
 8
TOOL_0
 5
30C
 10
10793.275
 20
1454.497
 30
0
 11
10793.275
 21
1457.997
 31
0
 0
ARC
 8
TOOL_0
 5
30D
 10
10790.275
 20
1457.997
 30
0
 40
3.0
 50
0
 51
90.0
210
0
220
0
230
1.0
 0
LINE
 8
TOOL_0
 5
30E
 10
10790.275
 20
1460.997
 30
0
 11
10735.775
 21
1460.997
 31
0
 0
ARC
 8
TOOL_0
 5
30F
 10
10735.775
 20
1261.997
 30
0
 40
199.0
 50
90.0
 51
180.0
210
0
220
0
230
1.0
 0
LINE
 8
TOOL_0
 5
310
 10
10536.775
 20
1261.997
 30
0
 11
10536.775
 21
943.497
 31
0
 0
ARC
 8
TOOL_0
 5
311
 10
10735.775
 20
943.497
 30
0
 40
199.0
 50
180.0
 51
269.99971208151
210
0
220
0
230
1.0
 0
LINE
 8
TOOL_0
 5
312
 10
10735.774
 20
744.497
 30
0
 11
10893.189
 21
744.497
 31
0
 0
LINE
 8
TOOL_0
 5
313
 10
10893.189
 20
744.497
 30
0
 11
10901.775
 21
735.911
 31
0
 0
LINE
 8
TOOL_0
 5
314
 10
10901.775
 20
735.911
 30
0
 11
10901.775
 21
11.083
 31
0
 0
LINE
 8
TOOL_0
 5
315
 10
10901.775
 20
11.083
 30
0
 11
10901.775
 21
6.083
 31
0
 0
LINE
 8
TOOL_0
 5
316
 10
10901.775
 20
6.083
 30
0
 11
11140.808
 21
2190.497
 31
0
 0
LINE
 8
TOOL_0
 5
317
 10
11140.808
 20
2190.497
 30
0
 11
11170.808
 21
2190.497
 31
0
 0
LINE
 8
TOOL_0
 5
318
 10
11170.808
 20
2190.497
 30
0
 11
11170.808
 21
2220.497
 31
0
 0
ARC
 8
TOOL_0
 5
319
 10
11150.808
 20
2220.497
 30
0
 40
20.0
 50
0
 51
90.0
210
0
220
0
230
1.0
 0
LINE
 8
TOOL_0
 5
31A
 10
11150.808
 20
2240.497
 30
0
 11
11090.808
 21
2240.497
 31
0
 0
ARC
 8
TOOL_0
 5
31B
 10
11090.808
 20
2220.497
 30
0
 40
20.0
 50
90.0
 51
180.0
210
0
220
0
230
1.0
 0
LINE
 8
TOOL_0
 5
31C
 10
11070.808
 20
2220.497
 30
0
 11
11070.808
 21
2160.497
 31
0
 0
ARC
 8
TOOL_0
 5
31D
 10
11090.808
 20
2160.497
 30
0
 40
20.0
 50
180.0
 51
270.0
210
0
220
0
230
1.0
 0
LINE
 8
TOOL_0
 5
31E
 10
11090.808
 20
2140.497
 30
0
 11
11150.808
 21
2140.497
 31
0
 0
ARC
 8
TOOL_0
 5
31F
 10
11150.808
 20
2160.497
 30
0
 40
20.0
 50
270.0
 51
0
210
0
220
0
230
1.0
 0
LINE
 8
TOOL_0
 5
320
 10
11170.808
 20
2160.497
 30
0
 11
11170.808
 21
2190.497
 31
0
 0
LINE
 8
TOOL_0
 5
321
 10
11170.808
 20
2190.497
 30
0
 11
11163.737
 21
2197.568
 31
0
 0
LINE
 8
TOOL_0
 5
322
 10
11163.737
 20
2197.568
 30
0
 11
12245.808
 21
2283.497
 31
0
 0
LINE
 8
TOOL_0
 5
323
 10
12245.808
 20
2283.497
 30
0
 11
12275.808
 21
2283.497
 31
0
 0
LINE
 8
TOOL_0
 5
324
 10
12275.808
 20
2283.497
 30
0
 11
12275.808
 21
2313.497
 31
0
 0
ARC
 8
TOOL_0
 5
325
 10
12265.808
 20
2313.497
 30
0
 40
10.0
 50
0
 51
90.0
210
0
220
0
230
1.0
 0
LINE
 8
TOOL_0
 5
326
 10
12265.808
 20
2323.497
 30
0
 11
12155.808
 21
2323.497
 31
0
 0
ARC
 8
TOOL_0
 5
327
 10
12155.808
 20
2313.497
 30
0
 40
10.0
 50
90.0
 51
180.0
210
0
220
0
230
1.0
 0
LINE
 8
TOOL_0
 5
328
 10
12145.808
 20
2313.497
 30
0
 11
12145.808
 21
2253.497
 31
0
 0
ARC
 8
TOOL_0
 5
329
 10
12175.808
 20
2253.497
 30
0
 40
30.0
 50
180.0
 51
270.0
210
0
220
0
230
1.0
 0
LINE
 8
TOOL_0
 5
32A
 10
12175.808
 20
2223.497
 30
0
 11
12245.808
 21
2223.497
 31
0
 0
ARC
 8
TOOL_0
 5
32B
 10
12245.808
 20
2253.497
 30
0
 40
30.0
 50
270.0
 51
0
210
0
220
0
230
1.0
 0
LINE
 8
TOOL_0
 5
32C
 10
12275.808
 20
2253.497
 30
0
 11
12275.808
 21
2283.497
 31
0
 0
LINE
 8
TOOL_0
 5
32D
 10
12275.808
 20
2283.497
 30
0
 11
12268.737
 21
2290.568
 31
0
 0
LINE
 8
TOOL_0
 5
32E
 10
12268.737
 20
2290.568
 30
0
 11
12135.809
 21
2163.497
 31
0
 0
LINE
 8
TOOL_0
 5
32F
 10
12135.809
 20
2163.497
 30
0
 11
12165.809
 21
2163.497
 31
0
 0
LINE
 8
TOOL_0
 5
330
 10
12165.809
 20
2163.497
 30
0
 11
12165.809
 21
2193.497
 31
0
 0
ARC
 8
TOOL_0
 5
331
 10
12145.809
 20
2193.497
 30
0
 40
20.0
 50
0
 51
90.0
210
0
220
0
230
1.0
 0
LINE
 8
TOOL_0
 5
332
 10
12145.809
 20
2213.497
 30
0
 11
12085.809
 21
2213.497
 31
0
 0
ARC
 8
TOOL_0
 5
333
 10
12085.809
 20
2193.497
 30
0
 40
20.0
 50
90.0
 51
180.0
210
0
220
0
230
1.0
 0
LINE
 8
TOOL_0
 5
334
 10
12065.809
 20
2193.497
 30
0
 11
12065.809
 21
2133.497
 31
0
 0
ARC
 8
TOOL_0
 5
335
 10
12085.809
 20
2133.497
 30
0
 40
20.0
 50
180.0
 51
270.0
210
0
220
0
230
1.0
 0
LINE
 8
TOOL_0
 5
336
 10
12085.809
 20
2113.497
 30
0
 11
12145.809
 21
2113.497
 31
0
 0
ARC
 8
TOOL_0
 5
337
 10
12145.809
 20
2133.497
 30
0
 40
20.0
 50
270.0
 51
0
210
0
220
0
230
1.0
 0
LINE
 8
TOOL_0
 5
338
 10
12165.809
 20
2133.497
 30
0
 11
12165.809
 21
2163.497
 31
0
 0
LINE
 8
TOOL_0
 5
339
 10
12165.809
 20
2163.497
 30
0
 11
12158.738
 21
2170.568
 31
0
 0
LINE
 8
TOOL_0
 5
33A
 10
12158.738
 20
2170.568
 30
0
 11
12045.809
 21
525.497
 31
0
 0
LINE
 8
TOOL_0
 5
33B
 10
12045.809
 20
525.497
 30
0
 11
12075.809
 21
525.497
 31
0
 0
LINE
 8
TOOL_0
 5
33C
 10
12075.809
 20
525.497
 30
0
 11
12075.809
 21
555.497
 31
0
 0
ARC
 8
TOOL_0
 5
33D
 10
12065.809
 20
555.497
 30
0
 40
10.0
 50
0
 51
90.0
210
0
220
0
230
1.0
 0
LINE
 8
TOOL_0
 5
33E
 10
12065.809
 20
565.497
 30
0
 11
11885.809
 21
565.497
 31
0
 0
ARC
 8
TOOL_0
 5
33F
 10
11885.809
 20
555.497
 30
0
 40
10.0
 50
90.0
 51
180.0
210
0
220
0
230
1.0
 0
LINE
 8
TOOL_0
 5
340
 10
11875.809
 20
555.497
 30
0
 11
11875.809
 21
495.497
 31
0
 0
ARC
 8
TOOL_0
 5
341
 10
11885.809
 20
495.497
 30
0
 40
10.0
 50
180.0
 51
270.0
210
0
220
0
230
1.0
 0
LINE
 8
TOOL_0
 5
342
 10
11885.809
 20
485.497
 30
0
 11
12065.809
 21
485.497
 31
0
 0
ARC
 8
TOOL_0
 5
343
 10
12065.809
 20
495.497
 30
0
 40
10.0
 50
270.0
 51
0
210
0
220
0
230
1.0
 0
LINE
 8
TOOL_0
 5
344
 10
12075.809
 20
495.497
 30
0
 11
12075.809
 21
525.497
 31
0
 0
LINE
 8
TOOL_0
 5
345
 10
12075.809
 20
525.497
 30
0
 11
12068.738
 21
532.568
 31
0
 0
LINE
 8
TOOL_0
 5
346
 10
12068.738
 20
532.568
 30
0
 11
11491.309
 21
475.497
 31
0
 0
LINE
 8
TOOL_0
 5
347
 10
11491.309
 20
475.497
 30
0
 11
11521.309
 21
475.497
 31
0
 0
ARC
 8
TOOL_0
 5
348
 10
11501.309
 20
475.497
 30
0
 40
20.0
 50
0
 51
66.867990902554
210
0
220
0
230
1.0
 0
LINE
 8
TOOL_0
 5
349
 10
11509.166
 20
493.889
 30
0
 11
11485.487
 21
504.005
 31
0
 0
ARC
 8
TOOL_0
 5
34A
 10
11473.308
 20
475.318
 30
0
 40
31.165237204296
 50
66.996461482193
 51
113.001846237354
210
0
220
0
230
1.0
 0
LINE
 8
TOOL_0
 5
34B
 10
11461.13
 20
504.005
 30
0
 11
11437.451
 21
493.889
 31
0
 0
ARC
 8
TOOL_0
 5
34C
 10
11445.308
 20
475.497
 30
0
 40
19.999952824944
 50
113.132009097445
 51
246.867990902554
210
0
220
0
230
1.0
 0
LINE
 8
TOOL_0
 5
34D
 10
11437.451
 20
457.105
 30
0
 11
11461.13
 21
446.989
 31
0
 0
ARC
 8
TOOL_0
 5
34E
 10
11473.309
 20
475.675
 30
0
 40
31.164316726025
 50
246.9957430162
 51
293.002564662372
210
0
220
0
230
1.0
 0
LINE
 8
TOOL_0
 5
34F
 10
11485.487
 20
446.989
 30
0
 11
11509.166
 21
457.105
 31
0
 0
ARC
 8
TOOL_0
 5
350
 10
11501.309
 20
475.497
 30
0
 40
19.999952824944
 50
293.132009097446
 51
0
210
0
220
0
230
1.0
 0
LINE
 8
TOOL_0
 5
351
 10
11521.309
 20
475.497
 30
0
 11
11514.238
 21
482.568
 31
0
 0
LINE
 8
TOOL_0
 5
352
 10
11514.238
 20
482.568
 30
0
 11
11478.309
 21
235.497
 31
0
 0
LINE
 8
TOOL_0
 5
353
 10
11478.309
 20
235.497
 30
0
 11
11508.309
 21
235.497
 31
0
 0
ARC
 8
TOOL_0
 5
354
 10
11473.309
 20
235.497
 30
0
 40
35.0
 50
0
 51
180.0
210
0
220
0
230
1.0
 0
ARC
 8
TOOL_0
 5
355
 10
11473.309
 20
235.497
 30
0
 40
35.0
 50
180.0
 51
0
210
0
220
0
230
1.0
 0
LINE
 8
TOOL_0
 5
356
 10
11508.309
 20
235.497
 30
0
 11
11501.238
 21
242.568
 31
0
 0
LINE
 8
TOOL_0
 5
357
 10
11501.238
 20
242.568
 30
0
 11
11633.06
 21
26.748
 31
0
 0
LINE
 8
TOOL_0
 5
358
 10
11633.06
 20
26.748
 30
0
 11
11657.809
 21
51.497
 31
0
 0
LINE
 8
TOOL_0
 5
359
 10
11657.809
 20
51.497
 30
0
 11
11657.809
 21
100.497
 31
0
 0
ARC
 8
TOOL_0
 5
35A
 10
11628.809
 20
100.497
 30
0
 40
29.0
 50
0
 51
90.0
210
0
220
0
230
1.0
 0
LINE
 8
TOOL_0
 5
35B
 10
11628.809
 20
129.497
 30
0
 11
10911.809
 21
129.497
 31
0
 0
LINE
 8
TOOL_0
 5
35C
 10
10911.809
 20
129.497
 30
0
 11
10911.809
 21
461.497
 31
0
 0
LINE
 8
TOOL_0
 5
35D
 10
10911.809
 20
461.497
 30
0
 11
11047.796
 21
461.497
 31
0
 0
ARC
 8
TOOL_0
 5
35E
 10
11046.629
 20
500.192
 30
0
 40
38.712593738989
 50
271.727456089702
 51
313.085513150769
210
0
220
0
230
1.0
 0
ARC
 8
TOOL_0
 5
35F
 10
11014.449
 20
537.572
 30
0
 40
88.01755384581
 50
311.762848970029
 51
334.796347112778
210
0
220
0
230
1.0
 0
ARC
 8
TOOL_0
 5
360
 10
10915.283
 20
587.907
 30
0
 40
199.204719502325
 50
333.842962626577
 51
351.509141250667
210
0
220
0
230
1.0
 0
ARC
 8
TOOL_0
 5
361
 10
10819.17
 20
607.114
 30
0
 40
297.139752683817
 50
350.582533477366
 51
0.072694924886
210
0
220
0
230
1.0
 0
LINE
 8
TOOL_0
 5
362
 10
11116.309
 20
607.491
 30
0
 11
11116.309
 21
618.358
 31
0
 0
ARC
 8
TOOL_0
 5
363
 10
11122.367
 20
618.33
 30
0
 40
6.05806470748
 50
135.160491959836
 51
179.73518151163
210
0
220
0
230
1.0
 0
LINE
 8
TOOL_0
 5
364
 10
11118.071
 20
622.602
 30
0
 11
11123.137
 21
627.668
 31
0
 0
ARC
 8
TOOL_0
 5
365
 10
11120.25
 20
630.521
 30
0
 40
4.058864126822
 50
315.339378697001
 51
359.703572152138
210
0
220
0
230
1.0
 0
LINE
 8
TOOL_0
 5
366
 10
11124.309
 20
630.5
 30
0
 11
11124.309
 21
924.496
 31
0
 0
LINE
 8
TOOL_0
 5
367
 10
11124.309
 20
924.496
 30
0
 11
11153.309
 21
924.496
 31
0
 0
LINE
 8
TOOL_0
 5
368
 10
11153.309
 20
924.496
 30
0
 11
11153.309
 21
920.996
 31
0
 0
ARC
 8
TOOL_0
 5
369
 10
11156.309
 20
920.996
 30
0
 40
3.0
 50
180.0
 51
270.0
210
0
220
0
230
1.0
 0
LINE
 8
TOOL_0
 5
36A
 10
11156.309
 20
917.996
 30
0
 11
11210.809
 21
917.996
 31
0
 0
ARC
 8
TOOL_0
 5
36B
 10
11210.809
 20
1116.996
 30
0
 40
199.0
 50
270.0
 51
359.99971208151
210
0
220
0
230
1.0
 0
LINE
 8
TOOL_0
 5
36C
 10
11409.809
 20
1116.995
 30
0
 11
11409.809
 21
1435.496
 31
0
 0
ARC
 8
TOOL_0
 5
36D
 10
11210.809
 20
1435.496
 30
0
 40
199.0
 50
0
 51
90.0
210
0
220
0
230
1.0
 0
LINE
 8
TOOL_0
 5
36E
 10
11210.809
 20
1634.496
 30
0
 11
11053.395
 21
1634.496
 31
0
 0
LINE
 8
TOOL_0
 5
36F
 10
11053.395
 20
1634.496
 30
0
 11
11044.809
 21
1643.082
 31
0
 0
LINE
 8
TOOL_0
 5
370
 10
11044.809
 20
1643.082
 30
0
 11
11044.809
 21
2367.91
 31
0
 0
LINE
 8
TOOL_0
 5
371
 10
11044.809
 20
2367.91
 30
0
 11
11053.395
 21
2376.496
 31
0
 0
LINE
 8
TOOL_0
 5
372
 10
11053.395
 20
2376.496
 30
0
 11
12531.809
 21
2376.496
 31
0
 0
ARC
 8
TOOL_0
 5
373
 10
12531.809
 20
2371.496
 30
0
 40
5.0
 50
0
 51
90.0
210
0
220
0
230
1.0
 0
LINE
 8
TOOL_0
 5
374
 10
12536.809
 20
2371.496
 30
0
 11
12536.809
 21
2.496
 31
0
 0
LINE
 8
TOOL_0
 5
375
 10
12536.809
 20
2.496
 30
0
 11
11657.809
 21
2.496
 31
0
 0
LINE
 8
TOOL_0
 5
376
 10
11657.809
 20
2.496
 30
0
 11
11657.809
 21
51.496
 31
0
 0
LINE
 8
TOOL_0
 5
377
 10
11657.809
 20
51.496
 30
0
 11
11654.273
 21
55.032
 31
0
 0
ENDSEC
 0
EOF

