0
SECTION
2
TABLES
0
TABLE
2
LAYER
70
0
0
LAYER
2
LAYER_NAME
70
0
62
1
6
CONTINUOUS
0
ENDTAB
0
ENDSEC
 0
SECTION
 2
ENTITIES
 0
LINE
 8
TOOL_0
 5
1
 10
3409.394
 20
621.372
 30
0
 11
3438.561
 21
616.442
 31
0
 0
ARC
 8
TOOL_0
 5
2
 10
3439.394
 20
621.372
 30
0
 40
4.999878898533
 50
260.409571175906
 51
0
210
0
220
0
230
1.0
 0
LINE
 8
TOOL_0
 5
3
 10
3444.394
 20
621.372
 30
0
 11
3444.394
 21
821.372
 31
0
 0
ARC
 8
TOOL_0
 5
4
 10
3394.394
 20
821.372
 30
0
 40
50.0
 50
0
 51
90.0
210
0
220
0
230
1.0
 0
LINE
 8
TOOL_0
 5
5
 10
3394.394
 20
871.372
 30
0
 11
2049.394
 21
871.372
 31
0
 0
ARC
 8
TOOL_0
 5
6
 10
2049.394
 20
821.372
 30
0
 40
50.0
 50
90.0
 51
180.0
210
0
220
0
230
1.0
 0
LINE
 8
TOOL_0
 5
7
 10
1999.394
 20
821.372
 30
0
 11
1999.394
 21
421.372
 31
0
 0
ARC
 8
TOOL_0
 5
8
 10
2049.394
 20
421.372
 30
0
 40
50.0
 50
180.0
 51
270.0
210
0
220
0
230
1.0
 0
LINE
 8
TOOL_0
 5
9
 10
2049.394
 20
371.372
 30
0
 11
3394.394
 21
371.372
 31
0
 0
ARC
 8
TOOL_0
 5
A
 10
3394.394
 20
421.372
 30
0
 40
50.0
 50
270.0
 51
0
210
0
220
0
230
1.0
 0
LINE
 8
TOOL_0
 5
B
 10
3444.394
 20
421.372
 30
0
 11
3444.394
 21
621.372
 31
0
 0
LINE
 8
TOOL_0
 5
C
 10
3444.394
 20
621.372
 30
0
 11
3433.787
 21
631.979
 31
0
 0
LINE
 8
TOOL_0
 5
D
 10
3433.787
 20
631.979
 30
0
 11
3990.744
 21
275.623
 31
0
 0
LINE
 8
TOOL_0
 5
E
 10
3990.744
 20
275.623
 30
0
 11
3960.143
 21
275.623
 31
0
 0
LINE
 8
TOOL_0
 5
F
 10
3960.143
 20
275.623
 30
0
 11
3727.559
 21
275.623
 31
0
 0
LINE
 8
TOOL_0
 5
10
 10
3727.559
 20
275.623
 30
0
 11
3609.559
 21
220.623
 31
0
 0
LINE
 8
TOOL_0
 5
11
 10
3609.559
 20
220.623
 30
0
 11
1658.643
 21
220.623
 31
0
 0
LINE
 8
TOOL_0
 5
12
 10
1658.643
 20
220.623
 30
0
 11
1658.643
 21
1022.123
 31
0
 0
LINE
 8
TOOL_0
 5
13
 10
1658.643
 20
1022.123
 30
0
 11
3609.559
 21
1022.123
 31
0
 0
LINE
 8
TOOL_0
 5
14
 10
3609.559
 20
1022.123
 30
0
 11
3727.559
 21
967.123
 31
0
 0
LINE
 8
TOOL_0
 5
15
 10
3727.559
 20
967.123
 30
0
 11
3960.143
 21
967.123
 31
0
 0
LINE
 8
TOOL_0
 5
16
 10
3960.143
 20
967.123
 30
0
 11
3960.143
 21
875.623
 31
0
 0
LINE
 8
TOOL_0
 5
17
 10
3960.143
 20
875.623
 30
0
 11
3714.393
 21
875.623
 31
0
 0
ARC
 8
TOOL_0
 5
18
 10
3714.393
 20
826.373
 30
0
 40
49.25
 50
90.0
 51
180.0
210
0
220
0
230
1.0
 0
LINE
 8
TOOL_0
 5
19
 10
3665.143
 20
826.373
 30
0
 11
3665.143
 21
416.373
 31
0
 0
ARC
 8
TOOL_0
 5
1A
 10
3714.393
 20
416.373
 30
0
 40
49.25
 50
180.0
 51
270.0
210
0
220
0
230
1.0
 0
LINE
 8
TOOL_0
 5
1B
 10
3714.393
 20
367.123
 30
0
 11
3960.143
 21
367.123
 31
0
 0
LINE
 8
TOOL_0
 5
1C
 10
3960.143
 20
367.123
 30
0
 11
3960.143
 21
275.623
 31
0
 0
LINE
 8
TOOL_0
 5
1D
 10
3960.143
 20
275.623
 30
0
 11
3960.143
 21
270.476
 31
0
 0
LINE
 8
TOOL_0
 5
1E
 10
3960.143
 20
270.476
 30
0
 11
78.962
 21
1424.096
 31
0
 0
LINE
 8
TOOL_0
 5
1F
 10
78.962
 20
1424.096
 30
0
 11
74.032
 21
1394.93
 31
0
 0
ARC
 8
TOOL_0
 5
20
 10
78.962
 20
1394.097
 30
0
 40
4.999878898533
 50
170.409571175906
 51
270.0
210
0
220
0
230
1.0
 0
ARC
 8
TOOL_0
 5
21
 10
78.962
 20
1413.097
 30
0
 40
24.0
 50
270.0
 51
0
210
0
220
0
230
1.0
 0
LINE
 8
TOOL_0
 5
22
 10
102.962
 20
1413.097
 30
0
 11
102.962
 21
1430.097
 31
0
 0
ARC
 8
TOOL_0
 5
23
 10
78.962
 20
1430.097
 30
0
 40
24.0
 50
0
 51
180.0
210
0
220
0
230
1.0
 0
LINE
 8
TOOL_0
 5
24
 10
54.962
 20
1430.097
 30
0
 11
54.962
 21
1413.097
 31
0
 0
ARC
 8
TOOL_0
 5
25
 10
78.962
 20
1413.097
 30
0
 40
24.0
 50
180.0
 51
270.0
210
0
220
0
230
1.0
 0
LINE
 8
TOOL_0
 5
26
 10
78.962
 20
1389.097
 30
0
 11
89.569
 21
1399.704
 31
0
 0
LINE
 8
TOOL_0
 5
27
 10
89.569
 20
1399.704
 30
0
 11
1218.963
 21
1421.597
 31
0
 0
LINE
 8
TOOL_0
 5
28
 10
1218.963
 20
1421.597
 30
0
 11
1238.963
 21
1418.217
 31
0
 0
ARC
 8
TOOL_0
 5
29
 10
1239.534
 20
1421.598
 30
0
 40
3.428877658943
 50
260.414059530605
 51
0
210
0
220
0
230
1.0
 0
ARC
 8
TOOL_0
 5
2A
 10
1218.963
 20
1421.598
 30
0
 40
24.0
 50
0
 51
180.0
210
0
220
0
230
1.0
 0
ARC
 8
TOOL_0
 5
2B
 10
1218.963
 20
1421.598
 30
0
 40
24.0
 50
180.0
 51
0
210
0
220
0
230
1.0
 0
LINE
 8
TOOL_0
 5
2C
 10
1242.963
 20
1421.598
 30
0
 11
1235.69
 21
1428.871
 31
0
 0
LINE
 8
TOOL_0
 5
2D
 10
1235.69
 20
1428.871
 30
0
 11
2378.963
 21
1424.098
 31
0
 0
LINE
 8
TOOL_0
 5
2E
 10
2378.963
 20
1424.098
 30
0
 11
2374.033
 21
1394.932
 31
0
 0
ARC
 8
TOOL_0
 5
2F
 10
2378.963
 20
1394.099
 30
0
 40
4.999878898533
 50
170.409571175906
 51
270.0
210
0
220
0
230
1.0
 0
ARC
 8
TOOL_0
 5
30
 10
2378.963
 20
1413.099
 30
0
 40
24.0
 50
270.0
 51
0
210
0
220
0
230
1.0
 0
LINE
 8
TOOL_0
 5
31
 10
2402.963
 20
1413.099
 30
0
 11
2402.963
 21
1430.099
 31
0
 0
ARC
 8
TOOL_0
 5
32
 10
2378.963
 20
1430.099
 30
0
 40
24.0
 50
0
 51
180.0
210
0
220
0
230
1.0
 0
LINE
 8
TOOL_0
 5
33
 10
2354.963
 20
1430.099
 30
0
 11
2354.963
 21
1413.099
 31
0
 0
ARC
 8
TOOL_0
 5
34
 10
2378.963
 20
1413.099
 30
0
 40
24.0
 50
180.0
 51
270.0
210
0
220
0
230
1.0
 0
LINE
 8
TOOL_0
 5
35
 10
2378.963
 20
1389.099
 30
0
 11
2389.57
 21
1399.706
 31
0
 0
LINE
 8
TOOL_0
 5
36
 10
2389.57
 20
1399.706
 30
0
 11
2713.964
 21
1243.599
 31
0
 0
LINE
 8
TOOL_0
 5
37
 10
2713.964
 20
1243.599
 30
0
 11
2743.131
 21
1238.669
 31
0
 0
ARC
 8
TOOL_0
 5
38
 10
2743.964
 20
1243.599
 30
0
 40
4.999878898534
 50
260.409571175906
 51
0
210
0
220
0
230
1.0
 0
LINE
 8
TOOL_0
 5
39
 10
2748.964
 20
1243.599
 30
0
 11
2748.964
 21
1323.599
 31
0
 0
ARC
 8
TOOL_0
 5
3A
 10
2738.964
 20
1323.599
 30
0
 40
10.0
 50
0
 51
90.0
210
0
220
0
230
1.0
 0
LINE
 8
TOOL_0
 5
3B
 10
2738.964
 20
1333.599
 30
0
 11
2608.964
 21
1333.599
 31
0
 0
ARC
 8
TOOL_0
 5
3C
 10
2608.964
 20
1323.599
 30
0
 40
10.0
 50
90.0
 51
180.0
210
0
220
0
230
1.0
 0
LINE
 8
TOOL_0
 5
3D
 10
2598.964
 20
1323.599
 30
0
 11
2598.964
 21
1163.599
 31
0
 0
ARC
 8
TOOL_0
 5
3E
 10
2608.964
 20
1163.599
 30
0
 40
10.0
 50
180.0
 51
270.0
210
0
220
0
230
1.0
 0
LINE
 8
TOOL_0
 5
3F
 10
2608.964
 20
1153.599
 30
0
 11
2738.964
 21
1153.599
 31
0
 0
ARC
 8
TOOL_0
 5
40
 10
2738.964
 20
1163.599
 30
0
 40
10.0
 50
270.0
 51
0
210
0
220
0
230
1.0
 0
LINE
 8
TOOL_0
 5
41
 10
2748.964
 20
1163.599
 30
0
 11
2748.964
 21
1243.599
 31
0
 0
LINE
 8
TOOL_0
 5
42
 10
2748.964
 20
1243.599
 30
0
 11
2738.357
 21
1254.206
 31
0
 0
LINE
 8
TOOL_0
 5
43
 10
2738.357
 20
1254.206
 30
0
 11
2698.964
 21
1421.599
 31
0
 0
LINE
 8
TOOL_0
 5
44
 10
2698.964
 20
1421.599
 30
0
 11
2718.964
 21
1418.219
 31
0
 0
ARC
 8
TOOL_0
 5
45
 10
2719.535
 20
1421.6
 30
0
 40
3.428877658943
 50
260.414059530605
 51
0
210
0
220
0
230
1.0
 0
ARC
 8
TOOL_0
 5
46
 10
2698.964
 20
1421.6
 30
0
 40
24.0
 50
0
 51
180.0
210
0
220
0
230
1.0
 0
ARC
 8
TOOL_0
 5
47
 10
2698.964
 20
1421.6
 30
0
 40
24.0
 50
180.0
 51
0
210
0
220
0
230
1.0
 0
LINE
 8
TOOL_0
 5
48
 10
2722.964
 20
1421.6
 30
0
 11
2715.691
 21
1428.873
 31
0
 0
LINE
 8
TOOL_0
 5
49
 10
2715.691
 20
1428.873
 30
0
 11
2850.726
 21
1055.85
 31
0
 0
LINE
 8
TOOL_0
 5
4A
 10
2850.726
 20
1055.85
 30
0
 11
2819.714
 21
1055.85
 31
0
 0
LINE
 8
TOOL_0
 5
4B
 10
2819.714
 20
1055.85
 30
0
 11
18.214
 21
1055.85
 31
0
 0
LINE
 8
TOOL_0
 5
4C
 10
18.214
 20
1055.85
 30
0
 11
18.214
 21
1492.35
 31
0
 0
LINE
 8
TOOL_0
 5
4D
 10
18.214
 20
1492.35
 30
0
 11
2819.714
 21
1492.35
 31
0
 0
LINE
 8
TOOL_0
 5
4E
 10
2819.714
 20
1492.35
 30
0
 11
2819.714
 21
1055.85
 31
0
 0
LINE
 8
TOOL_0
 5
4F
 10
2819.714
 20
1055.85
 30
0
 11
2819.714
 21
1050.227
 31
0
 0
LINE
 8
TOOL_0
 5
50
 10
2819.714
 20
1050.227
 30
0
 11
79.288
 21
1585.909
 31
0
 0
LINE
 8
TOOL_0
 5
51
 10
79.288
 20
1585.909
 30
0
 11
74.358
 21
1556.742
 31
0
 0
ARC
 8
TOOL_0
 5
52
 10
79.288
 20
1555.909
 30
0
 40
4.999878898533
 50
170.409571175906
 51
270.0
210
0
220
0
230
1.0
 0
ARC
 8
TOOL_0
 5
53
 10
79.288
 20
1574.909
 30
0
 40
24.0
 50
270.0
 51
0
210
0
220
0
230
1.0
 0
LINE
 8
TOOL_0
 5
54
 10
103.288
 20
1574.909
 30
0
 11
103.288
 21
1591.909
 31
0
 0
ARC
 8
TOOL_0
 5
55
 10
79.288
 20
1591.909
 30
0
 40
24.0
 50
0
 51
180.0
210
0
220
0
230
1.0
 0
LINE
 8
TOOL_0
 5
56
 10
55.288
 20
1591.909
 30
0
 11
55.288
 21
1574.909
 31
0
 0
ARC
 8
TOOL_0
 5
57
 10
79.288
 20
1574.909
 30
0
 40
24.0
 50
180.0
 51
270.0
210
0
220
0
230
1.0
 0
LINE
 8
TOOL_0
 5
58
 10
79.288
 20
1550.909
 30
0
 11
89.895
 21
1561.516
 31
0
 0
LINE
 8
TOOL_0
 5
59
 10
89.895
 20
1561.516
 30
0
 11
1219.289
 21
1583.41
 31
0
 0
LINE
 8
TOOL_0
 5
5A
 10
1219.289
 20
1583.41
 30
0
 11
1239.289
 21
1580.029
 31
0
 0
ARC
 8
TOOL_0
 5
5B
 10
1239.86
 20
1583.41
 30
0
 40
3.428877658943
 50
260.414059530605
 51
0
210
0
220
0
230
1.0
 0
ARC
 8
TOOL_0
 5
5C
 10
1219.289
 20
1583.41
 30
0
 40
24.0
 50
0
 51
180.0
210
0
220
0
230
1.0
 0
ARC
 8
TOOL_0
 5
5D
 10
1219.289
 20
1583.41
 30
0
 40
24.0
 50
180.0
 51
0
210
0
220
0
230
1.0
 0
LINE
 8
TOOL_0
 5
5E
 10
1243.289
 20
1583.41
 30
0
 11
1236.016
 21
1590.683
 31
0
 0
LINE
 8
TOOL_0
 5
5F
 10
1236.016
 20
1590.683
 30
0
 11
2379.29
 21
1585.91
 31
0
 0
LINE
 8
TOOL_0
 5
60
 10
2379.29
 20
1585.91
 30
0
 11
2374.36
 21
1556.743
 31
0
 0
ARC
 8
TOOL_0
 5
61
 10
2379.29
 20
1555.91
 30
0
 40
4.999878898533
 50
170.409571175906
 51
270.0
210
0
220
0
230
1.0
 0
ARC
 8
TOOL_0
 5
62
 10
2379.29
 20
1574.91
 30
0
 40
24.0
 50
270.0
 51
0
210
0
220
0
230
1.0
 0
LINE
 8
TOOL_0
 5
63
 10
2403.29
 20
1574.91
 30
0
 11
2403.29
 21
1591.91
 31
0
 0
ARC
 8
TOOL_0
 5
64
 10
2379.29
 20
1591.91
 30
0
 40
24.0
 50
0
 51
180.0
210
0
220
0
230
1.0
 0
LINE
 8
TOOL_0
 5
65
 10
2355.29
 20
1591.91
 30
0
 11
2355.29
 21
1574.91
 31
0
 0
ARC
 8
TOOL_0
 5
66
 10
2379.29
 20
1574.91
 30
0
 40
24.0
 50
180.0
 51
270.0
210
0
220
0
230
1.0
 0
LINE
 8
TOOL_0
 5
67
 10
2379.29
 20
1550.91
 30
0
 11
2389.897
 21
1561.517
 31
0
 0
LINE
 8
TOOL_0
 5
68
 10
2389.897
 20
1561.517
 30
0
 11
2699.291
 21
1583.411
 31
0
 0
LINE
 8
TOOL_0
 5
69
 10
2699.291
 20
1583.411
 30
0
 11
2719.291
 21
1580.03
 31
0
 0
ARC
 8
TOOL_0
 5
6A
 10
2719.862
 20
1583.411
 30
0
 40
3.428877658943
 50
260.414059530605
 51
0
210
0
220
0
230
1.0
 0
ARC
 8
TOOL_0
 5
6B
 10
2699.291
 20
1583.411
 30
0
 40
24.0
 50
0
 51
180.0
210
0
220
0
230
1.0
 0
ARC
 8
TOOL_0
 5
6C
 10
2699.291
 20
1583.411
 30
0
 40
24.0
 50
180.0
 51
0
210
0
220
0
230
1.0
 0
LINE
 8
TOOL_0
 5
6D
 10
2723.291
 20
1583.411
 30
0
 11
2716.018
 21
1590.684
 31
0
 0
LINE
 8
TOOL_0
 5
6E
 10
2716.018
 20
1590.684
 30
0
 11
2850.394
 21
1512.661
 31
0
 0
LINE
 8
TOOL_0
 5
6F
 10
2850.394
 20
1512.661
 30
0
 11
2820.042
 21
1512.661
 31
0
 0
LINE
 8
TOOL_0
 5
70
 10
2820.042
 20
1512.661
 30
0
 11
18.542
 21
1512.661
 31
0
 0
LINE
 8
TOOL_0
 5
71
 10
18.542
 20
1512.661
 30
0
 11
18.542
 21
1949.161
 31
0
 0
LINE
 8
TOOL_0
 5
72
 10
18.542
 20
1949.161
 30
0
 11
2820.042
 21
1949.161
 31
0
 0
LINE
 8
TOOL_0
 5
73
 10
2820.042
 20
1949.161
 30
0
 11
2820.042
 21
1512.661
 31
0
 0
LINE
 8
TOOL_0
 5
74
 10
2820.042
 20
1512.661
 30
0
 11
2820.042
 21
1507.27
 31
0
 0
ENDSEC
 0
EOF

