0
SECTION
2
TABLES
0
TABLE
2
LAYER
70
0
0
LAYER
2
LAYER_NAME
70
0
62
1
6
CONTINUOUS
0
ENDTAB
0
ENDSEC
 0
SECTION
 2
ENTITIES
 0
LINE
 8
TOOL_0
 5
1
 10
574.49
 20
1680.909
 30
0
 11
605.664
 21
1680.909
 31
0
 0
LINE
 8
TOOL_0
 5
2
 10
605.664
 20
1680.909
 30
0
 11
605.664
 21
1845.909
 31
0
 0
ARC
 8
TOOL_0
 5
3
 10
570.664
 20
1845.909
 30
0
 40
35.0
 50
0
 51
90.0
210
0
220
0
230
1.0
 0
LINE
 8
TOOL_0
 5
4
 10
570.664
 20
1880.909
 30
0
 11
415.664
 21
1880.909
 31
0
 0
ARC
 8
TOOL_0
 5
5
 10
415.664
 20
1845.909
 30
0
 40
35.0
 50
90.0
 51
180.0
210
0
220
0
230
1.0
 0
LINE
 8
TOOL_0
 5
6
 10
380.664
 20
1845.909
 30
0
 11
380.664
 21
1515.909
 31
0
 0
ARC
 8
TOOL_0
 5
7
 10
415.664
 20
1515.909
 30
0
 40
35.0
 50
180.0
 51
270.0
210
0
220
0
230
1.0
 0
LINE
 8
TOOL_0
 5
8
 10
415.664
 20
1480.909
 30
0
 11
570.664
 21
1480.909
 31
0
 0
ARC
 8
TOOL_0
 5
9
 10
570.664
 20
1515.909
 30
0
 40
35.0
 50
270.0
 51
0
210
0
220
0
230
1.0
 0
LINE
 8
TOOL_0
 5
A
 10
605.664
 20
1515.909
 30
0
 11
605.664
 21
1680.909
 31
0
 0
LINE
 8
TOOL_0
 5
B
 10
605.664
 20
1680.909
 30
0
 11
603.613
 21
1685.471
 31
0
 0
LINE
 8
TOOL_0
 5
C
 10
603.613
 20
1685.471
 30
0
 11
1320.05
 21
1680.909
 31
0
 0
LINE
 8
TOOL_0
 5
D
 10
1320.05
 20
1680.909
 30
0
 11
1350.664
 21
1680.909
 31
0
 0
LINE
 8
TOOL_0
 5
E
 10
1350.664
 20
1680.909
 30
0
 11
1350.664
 21
1845.909
 31
0
 0
ARC
 8
TOOL_0
 5
F
 10
1315.664
 20
1845.909
 30
0
 40
35.0
 50
0
 51
90.0
210
0
220
0
230
1.0
 0
LINE
 8
TOOL_0
 5
10
 10
1315.664
 20
1880.909
 30
0
 11
1160.664
 21
1880.909
 31
0
 0
ARC
 8
TOOL_0
 5
11
 10
1160.664
 20
1845.909
 30
0
 40
35.0
 50
90.0
 51
180.0
210
0
220
0
230
1.0
 0
LINE
 8
TOOL_0
 5
12
 10
1125.664
 20
1845.909
 30
0
 11
1125.664
 21
1515.909
 31
0
 0
ARC
 8
TOOL_0
 5
13
 10
1160.664
 20
1515.909
 30
0
 40
35.0
 50
180.0
 51
270.0
210
0
220
0
230
1.0
 0
LINE
 8
TOOL_0
 5
14
 10
1160.664
 20
1480.909
 30
0
 11
1315.664
 21
1480.909
 31
0
 0
ARC
 8
TOOL_0
 5
15
 10
1315.664
 20
1515.909
 30
0
 40
35.0
 50
270.0
 51
0
210
0
220
0
230
1.0
 0
LINE
 8
TOOL_0
 5
16
 10
1350.664
 20
1515.909
 30
0
 11
1350.664
 21
1680.909
 31
0
 0
LINE
 8
TOOL_0
 5
17
 10
1350.664
 20
1680.909
 30
0
 11
1347.313
 21
1685.124
 31
0
 0
LINE
 8
TOOL_0
 5
18
 10
1347.313
 20
1685.124
 30
0
 11
19.164
 21
1560.238
 31
0
 0
LINE
 8
TOOL_0
 5
19
 10
19.164
 20
1560.238
 30
0
 11
19.164
 21
1590.909
 31
0
 0
LINE
 8
TOOL_0
 5
1A
 10
19.164
 20
1590.909
 30
0
 11
19.164
 21
1699.455
 31
0
 0
LINE
 8
TOOL_0
 5
1B
 10
19.164
 20
1699.455
 30
0
 11
304.117
 21
2039.048
 31
0
 0
ARC
 8
TOOL_0
 5
1C
 10
342.464
 20
2006.813
 30
0
 40
50.095784593117
 50
90.051467370341
 51
139.949142959142
210
0
220
0
230
1.0
 0
LINE
 8
TOOL_0
 5
1D
 10
342.419
 20
2056.909
 30
0
 11
359.164
 21
2056.909
 31
0
 0
ARC
 8
TOOL_0
 5
1E
 10
359.164
 20
2106.909
 30
0
 40
50.0
 50
270.0
 51
0
210
0
220
0
230
1.0
 0
LINE
 8
TOOL_0
 5
1F
 10
409.164
 20
2106.909
 30
0
 11
409.164
 21
2150.909
 31
0
 0
LINE
 8
TOOL_0
 5
20
 10
409.164
 20
2150.909
 30
0
 11
1303.337
 21
2150.909
 31
0
 0
LINE
 8
TOOL_0
 5
21
 10
1303.337
 20
2150.909
 30
0
 11
2445.812
 21
1776.824
 31
0
 0
ARC
 8
TOOL_0
 5
22
 10
2476.619
 20
1870.909
 30
0
 40
99.000295322792
 50
251.869589189617
 51
269.999421254752
210
0
220
0
230
1.0
 0
LINE
 8
TOOL_0
 5
23
 10
2476.618
 20
1771.909
 30
0
 11
2754.164
 21
1771.909
 31
0
 0
ARC
 8
TOOL_0
 5
24
 10
2754.164
 20
1763.909
 30
0
 40
8.0
 50
0
 51
90.0
210
0
220
0
230
1.0
 0
LINE
 8
TOOL_0
 5
25
 10
2762.164
 20
1763.909
 30
0
 11
2762.164
 21
1344.909
 31
0
 0
LINE
 8
TOOL_0
 5
26
 10
2762.164
 20
1344.909
 30
0
 11
168.726
 21
1344.909
 31
0
 0
ARC
 8
TOOL_0
 5
27
 10
160.63
 20
1340.854
 30
0
 40
9.054735832701
 50
26.60466893701
 51
89.784865008453
210
0
220
0
230
1.0
 0
LINE
 8
TOOL_0
 5
28
 10
160.664
 20
1349.909
 30
0
 11
30.25
 21
1349.909
 31
0
 0
LINE
 8
TOOL_0
 5
29
 10
30.25
 20
1349.909
 30
0
 11
19.164
 21
1360.995
 31
0
 0
LINE
 8
TOOL_0
 5
2A
 10
19.164
 20
1360.995
 30
0
 11
19.164
 21
1430.909
 31
0
 0
LINE
 8
TOOL_0
 5
2B
 10
19.164
 20
1430.909
 30
0
 11
40.664
 21
1430.909
 31
0
 0
ARC
 8
TOOL_0
 5
2C
 10
40.664
 20
1510.909
 30
0
 40
80.0
 50
270.0
 51
90.0
210
0
220
0
230
1.0
 0
LINE
 8
TOOL_0
 5
2D
 10
40.664
 20
1590.909
 30
0
 11
19.164
 21
1590.909
 31
0
 0
LINE
 8
TOOL_0
 5
2E
 10
19.164
 20
1590.909
 30
0
 11
13.953
 21
1590.909
 31
0
 0
LINE
 8
TOOL_0
 5
2F
 10
13.953
 20
1590.909
 30
0
 11
574.383
 21
2505.053
 31
0
 0
LINE
 8
TOOL_0
 5
30
 10
574.383
 20
2505.053
 30
0
 11
605.557
 21
2505.053
 31
0
 0
LINE
 8
TOOL_0
 5
31
 10
605.557
 20
2505.053
 30
0
 11
605.557
 21
2670.053
 31
0
 0
ARC
 8
TOOL_0
 5
32
 10
570.557
 20
2670.053
 30
0
 40
35.0
 50
0
 51
90.0
210
0
220
0
230
1.0
 0
LINE
 8
TOOL_0
 5
33
 10
570.557
 20
2705.053
 30
0
 11
415.557
 21
2705.053
 31
0
 0
ARC
 8
TOOL_0
 5
34
 10
415.557
 20
2670.053
 30
0
 40
35.0
 50
90.0
 51
180.0
210
0
220
0
230
1.0
 0
LINE
 8
TOOL_0
 5
35
 10
380.557
 20
2670.053
 30
0
 11
380.557
 21
2340.053
 31
0
 0
ARC
 8
TOOL_0
 5
36
 10
415.557
 20
2340.053
 30
0
 40
35.0
 50
180.0
 51
270.0
210
0
220
0
230
1.0
 0
LINE
 8
TOOL_0
 5
37
 10
415.557
 20
2305.053
 30
0
 11
570.557
 21
2305.053
 31
0
 0
ARC
 8
TOOL_0
 5
38
 10
570.557
 20
2340.053
 30
0
 40
35.0
 50
270.0
 51
0
210
0
220
0
230
1.0
 0
LINE
 8
TOOL_0
 5
39
 10
605.557
 20
2340.053
 30
0
 11
605.557
 21
2505.053
 31
0
 0
LINE
 8
TOOL_0
 5
3A
 10
605.557
 20
2505.053
 30
0
 11
603.506
 21
2509.615
 31
0
 0
LINE
 8
TOOL_0
 5
3B
 10
603.506
 20
2509.615
 30
0
 11
1319.943
 21
2505.053
 31
0
 0
LINE
 8
TOOL_0
 5
3C
 10
1319.943
 20
2505.053
 30
0
 11
1350.557
 21
2505.053
 31
0
 0
LINE
 8
TOOL_0
 5
3D
 10
1350.557
 20
2505.053
 30
0
 11
1350.557
 21
2670.053
 31
0
 0
ARC
 8
TOOL_0
 5
3E
 10
1315.557
 20
2670.053
 30
0
 40
35.0
 50
0
 51
90.0
210
0
220
0
230
1.0
 0
LINE
 8
TOOL_0
 5
3F
 10
1315.557
 20
2705.053
 30
0
 11
1160.557
 21
2705.053
 31
0
 0
ARC
 8
TOOL_0
 5
40
 10
1160.557
 20
2670.053
 30
0
 40
35.0
 50
90.0
 51
180.0
210
0
220
0
230
1.0
 0
LINE
 8
TOOL_0
 5
41
 10
1125.557
 20
2670.053
 30
0
 11
1125.557
 21
2340.053
 31
0
 0
ARC
 8
TOOL_0
 5
42
 10
1160.557
 20
2340.053
 30
0
 40
35.0
 50
180.0
 51
270.0
210
0
220
0
230
1.0
 0
LINE
 8
TOOL_0
 5
43
 10
1160.557
 20
2305.053
 30
0
 11
1315.557
 21
2305.053
 31
0
 0
ARC
 8
TOOL_0
 5
44
 10
1315.557
 20
2340.053
 30
0
 40
35.0
 50
270.0
 51
0
210
0
220
0
230
1.0
 0
LINE
 8
TOOL_0
 5
45
 10
1350.557
 20
2340.053
 30
0
 11
1350.557
 21
2505.053
 31
0
 0
LINE
 8
TOOL_0
 5
46
 10
1350.557
 20
2505.053
 30
0
 11
1347.206
 21
2509.268
 31
0
 0
LINE
 8
TOOL_0
 5
47
 10
1347.206
 20
2509.268
 30
0
 11
19.057
 21
2384.382
 31
0
 0
LINE
 8
TOOL_0
 5
48
 10
19.057
 20
2384.382
 30
0
 11
19.057
 21
2415.053
 31
0
 0
LINE
 8
TOOL_0
 5
49
 10
19.057
 20
2415.053
 30
0
 11
19.057
 21
2523.599
 31
0
 0
LINE
 8
TOOL_0
 5
4A
 10
19.057
 20
2523.599
 30
0
 11
304.01
 21
2863.192
 31
0
 0
ARC
 8
TOOL_0
 5
4B
 10
342.357
 20
2830.957
 30
0
 40
50.095784593117
 50
90.051467370341
 51
139.949142959142
210
0
220
0
230
1.0
 0
LINE
 8
TOOL_0
 5
4C
 10
342.312
 20
2881.053
 30
0
 11
359.057
 21
2881.053
 31
0
 0
ARC
 8
TOOL_0
 5
4D
 10
359.057
 20
2931.053
 30
0
 40
50.0
 50
270.0
 51
0
210
0
220
0
230
1.0
 0
LINE
 8
TOOL_0
 5
4E
 10
409.057
 20
2931.053
 30
0
 11
409.057
 21
2975.053
 31
0
 0
LINE
 8
TOOL_0
 5
4F
 10
409.057
 20
2975.053
 30
0
 11
1303.23
 21
2975.053
 31
0
 0
LINE
 8
TOOL_0
 5
50
 10
1303.23
 20
2975.053
 30
0
 11
2445.705
 21
2600.968
 31
0
 0
ARC
 8
TOOL_0
 5
51
 10
2476.512
 20
2695.053
 30
0
 40
99.000295322792
 50
251.869589189617
 51
269.999421254752
210
0
220
0
230
1.0
 0
LINE
 8
TOOL_0
 5
52
 10
2476.511
 20
2596.053
 30
0
 11
2754.057
 21
2596.053
 31
0
 0
ARC
 8
TOOL_0
 5
53
 10
2754.057
 20
2588.053
 30
0
 40
8.0
 50
0
 51
90.0
210
0
220
0
230
1.0
 0
LINE
 8
TOOL_0
 5
54
 10
2762.057
 20
2588.053
 30
0
 11
2762.057
 21
2169.053
 31
0
 0
LINE
 8
TOOL_0
 5
55
 10
2762.057
 20
2169.053
 30
0
 11
168.619
 21
2169.053
 31
0
 0
ARC
 8
TOOL_0
 5
56
 10
160.523
 20
2164.998
 30
0
 40
9.054735832701
 50
26.604668937009
 51
89.784865008453
210
0
220
0
230
1.0
 0
LINE
 8
TOOL_0
 5
57
 10
160.557
 20
2174.053
 30
0
 11
30.143
 21
2174.053
 31
0
 0
LINE
 8
TOOL_0
 5
58
 10
30.143
 20
2174.053
 30
0
 11
19.057
 21
2185.139
 31
0
 0
LINE
 8
TOOL_0
 5
59
 10
19.057
 20
2185.139
 30
0
 11
19.057
 21
2255.053
 31
0
 0
LINE
 8
TOOL_0
 5
5A
 10
19.057
 20
2255.053
 30
0
 11
40.557
 21
2255.053
 31
0
 0
ARC
 8
TOOL_0
 5
5B
 10
40.557
 20
2335.053
 30
0
 40
80.0
 50
270.0
 51
90.0
210
0
220
0
230
1.0
 0
LINE
 8
TOOL_0
 5
5C
 10
40.557
 20
2415.053
 30
0
 11
19.057
 21
2415.053
 31
0
 0
LINE
 8
TOOL_0
 5
5D
 10
19.057
 20
2415.053
 30
0
 11
13.846
 21
2415.053
 31
0
 0
LINE
 8
TOOL_0
 5
5E
 10
13.846
 20
2415.053
 30
0
 11
2363.248
 21
1288.497
 31
0
 0
LINE
 8
TOOL_0
 5
5F
 10
2363.248
 20
1288.497
 30
0
 11
2836.804
 21
1288.497
 31
0
 0
LINE
 8
TOOL_0
 5
60
 10
2836.804
 20
1288.497
 30
0
 11
2836.804
 21
2999.0
 31
0
 0
LINE
 8
TOOL_0
 5
61
 10
2836.804
 20
2999.0
 30
0
 11
2836.804
 21
3000.0
 31
0
 0
ENDSEC
 0
EOF

