0
SECTION
2
TABLES
0
TABLE
2
LAYER
70
0
0
LAYER
2
LAYER_NAME
70
0
62
1
6
CONTINUOUS
0
ENDTAB
0
ENDSEC
 0
SECTION
 2
ENTITIES
 0
LINE
 8
TOOL_0
 5
1
 10
746.956
 20
439.22
 30
0
 11
781.956
 21
439.22
 31
0
 0
LINE
 8
TOOL_0
 5
2
 10
781.956
 20
439.22
 30
0
 11
781.956
 21
551.72
 31
0
 0
ARC
 8
TOOL_0
 5
3
 10
746.956
 20
551.72
 30
0
 40
35.0
 50
0
 51
90.0
210
0
220
0
230
1.0
 0
LINE
 8
TOOL_0
 5
4
 10
746.956
 20
586.72
 30
0
 11
616.956
 21
586.72
 31
0
 0
ARC
 8
TOOL_0
 5
5
 10
616.956
 20
551.72
 30
0
 40
35.0
 50
90.0
 51
180.0
210
0
220
0
230
1.0
 0
LINE
 8
TOOL_0
 5
6
 10
581.956
 20
551.72
 30
0
 11
581.956
 21
326.72
 31
0
 0
ARC
 8
TOOL_0
 5
7
 10
616.956
 20
326.72
 30
0
 40
35.0
 50
180.0
 51
270.0
210
0
220
0
230
1.0
 0
LINE
 8
TOOL_0
 5
8
 10
616.956
 20
291.72
 30
0
 11
746.956
 21
291.72
 31
0
 0
ARC
 8
TOOL_0
 5
9
 10
746.956
 20
326.72
 30
0
 40
35.0
 50
270.0
 51
0
210
0
220
0
230
1.0
 0
LINE
 8
TOOL_0
 5
A
 10
781.956
 20
326.72
 30
0
 11
781.956
 21
439.22
 31
0
 0
LINE
 8
TOOL_0
 5
B
 10
781.956
 20
439.22
 30
0
 11
1161.956
 21
181.719
 31
0
 0
LINE
 8
TOOL_0
 5
C
 10
1161.956
 20
181.719
 30
0
 11
1196.956
 21
181.719
 31
0
 0
LINE
 8
TOOL_0
 5
D
 10
1196.956
 20
181.719
 30
0
 11
1196.956
 21
236.719
 31
0
 0
ARC
 8
TOOL_0
 5
E
 10
1161.956
 20
236.719
 30
0
 40
35.0
 50
0
 51
90.0
210
0
220
0
230
1.0
 0
LINE
 8
TOOL_0
 5
F
 10
1161.956
 20
271.719
 30
0
 11
951.956
 21
271.719
 31
0
 0
ARC
 8
TOOL_0
 5
10
 10
951.956
 20
236.719
 30
0
 40
35.0
 50
90.0
 51
180.0
210
0
220
0
230
1.0
 0
LINE
 8
TOOL_0
 5
11
 10
916.956
 20
236.719
 30
0
 11
916.956
 21
126.719
 31
0
 0
ARC
 8
TOOL_0
 5
12
 10
951.956
 20
126.719
 30
0
 40
35.0
 50
180.0
 51
270.0
210
0
220
0
230
1.0
 0
LINE
 8
TOOL_0
 5
13
 10
951.956
 20
91.719
 30
0
 11
1161.956
 21
91.719
 31
0
 0
ARC
 8
TOOL_0
 5
14
 10
1161.956
 20
126.719
 30
0
 40
35.0
 50
270.0
 51
0
210
0
220
0
230
1.0
 0
LINE
 8
TOOL_0
 5
15
 10
1196.956
 20
126.719
 30
0
 11
1196.956
 21
181.719
 31
0
 0
LINE
 8
TOOL_0
 5
16
 10
1196.956
 20
181.719
 30
0
 11
1136.956
 21
469.22
 31
0
 0
LINE
 8
TOOL_0
 5
17
 10
1136.956
 20
469.22
 30
0
 11
1171.956
 21
469.22
 31
0
 0
LINE
 8
TOOL_0
 5
18
 10
1171.956
 20
469.22
 30
0
 11
1171.956
 21
551.72
 31
0
 0
ARC
 8
TOOL_0
 5
19
 10
1136.956
 20
551.72
 30
0
 40
35.0
 50
0
 51
90.0
210
0
220
0
230
1.0
 0
LINE
 8
TOOL_0
 5
1A
 10
1136.956
 20
586.72
 30
0
 11
1006.956
 21
586.72
 31
0
 0
ARC
 8
TOOL_0
 5
1B
 10
1006.956
 20
551.72
 30
0
 40
35.0
 50
90.0
 51
180.0
210
0
220
0
230
1.0
 0
LINE
 8
TOOL_0
 5
1C
 10
971.956
 20
551.72
 30
0
 11
971.956
 21
386.72
 31
0
 0
ARC
 8
TOOL_0
 5
1D
 10
1006.956
 20
386.72
 30
0
 40
35.0
 50
180.0
 51
270.0
210
0
220
0
230
1.0
 0
LINE
 8
TOOL_0
 5
1E
 10
1006.956
 20
351.72
 30
0
 11
1136.956
 21
351.72
 31
0
 0
ARC
 8
TOOL_0
 5
1F
 10
1136.956
 20
386.72
 30
0
 40
35.0
 50
270.0
 51
0
210
0
220
0
230
1.0
 0
LINE
 8
TOOL_0
 5
20
 10
1171.956
 20
386.72
 30
0
 11
1171.956
 21
469.22
 31
0
 0
LINE
 8
TOOL_0
 5
21
 10
1171.956
 20
469.22
 30
0
 11
1463.291
 21
186.687
 31
0
 0
LINE
 8
TOOL_0
 5
22
 10
1463.291
 20
186.687
 30
0
 11
1456.156
 21
93.919
 31
0
 0
LINE
 8
TOOL_0
 5
23
 10
1456.156
 20
93.919
 30
0
 11
1456.156
 21
40.05
 31
0
 0
LINE
 8
TOOL_0
 5
24
 10
1456.156
 20
40.05
 30
0
 11
1446.625
 21
30.519
 31
0
 0
LINE
 8
TOOL_0
 5
25
 10
1446.625
 20
30.519
 30
0
 11
1324.956
 21
30.519
 31
0
 0
ARC
 8
TOOL_0
 5
26
 10
1324.956
 20
21.719
 30
0
 40
8.8
 50
90.0
 51
180.0
210
0
220
0
230
1.0
 0
LINE
 8
TOOL_0
 5
27
 10
1316.156
 20
21.719
 30
0
 11
1316.156
 21
10.519
 31
0
 0
LINE
 8
TOOL_0
 5
28
 10
1316.156
 20
10.519
 30
0
 11
777.756
 21
10.519
 31
0
 0
LINE
 8
TOOL_0
 5
29
 10
777.756
 20
10.519
 30
0
 11
777.756
 21
16.719
 31
0
 0
ARC
 8
TOOL_0
 5
2A
 10
768.956
 20
16.719
 30
0
 40
8.8
 50
0
 51
90.0
210
0
220
0
230
1.0
 0
LINE
 8
TOOL_0
 5
2B
 10
768.956
 20
25.519
 30
0
 11
564.956
 21
25.519
 31
0
 0
ARC
 8
TOOL_0
 5
2C
 10
564.956
 20
16.719
 30
0
 40
8.8
 50
90.0
 51
180.0
210
0
220
0
230
1.0
 0
LINE
 8
TOOL_0
 5
2D
 10
556.156
 20
16.719
 30
0
 11
556.156
 21
10.519
 31
0
 0
LINE
 8
TOOL_0
 5
2E
 10
556.156
 20
10.519
 30
0
 11
192.756
 21
10.519
 31
0
 0
LINE
 8
TOOL_0
 5
2F
 10
192.756
 20
10.519
 30
0
 11
192.756
 21
16.719
 31
0
 0
ARC
 8
TOOL_0
 5
30
 10
183.956
 20
16.719
 30
0
 40
8.8
 50
0
 51
90.0
210
0
220
0
230
1.0
 0
LINE
 8
TOOL_0
 5
31
 10
183.956
 20
25.519
 30
0
 11
6.756
 21
25.519
 31
0
 0
LINE
 8
TOOL_0
 5
32
 10
6.756
 20
25.519
 30
0
 11
6.756
 21
350.654
 31
0
 0
LINE
 8
TOOL_0
 5
33
 10
6.756
 20
350.654
 30
0
 11
650.107
 21
748.919
 31
0
 0
LINE
 8
TOOL_0
 5
34
 10
650.107
 20
748.919
 30
0
 11
1124.287
 21
748.919
 31
0
 0
ARC
 8
TOOL_0
 5
35
 10
1124.287
 20
668.919
 30
0
 40
80.0
 50
36.846406495016
 51
90.0
210
0
220
0
230
1.0
 0
LINE
 8
TOOL_0
 5
36
 10
1188.307
 20
716.893
 30
0
 11
1456.156
 21
359.453
 31
0
 0
LINE
 8
TOOL_0
 5
37
 10
1456.156
 20
359.453
 30
0
 11
1456.156
 21
255.519
 31
0
 0
LINE
 8
TOOL_0
 5
38
 10
1456.156
 20
255.519
 30
0
 11
1376.956
 21
255.519
 31
0
 0
ARC
 8
TOOL_0
 5
39
 10
1376.956
 20
204.719
 30
0
 40
50.8
 50
90.0
 51
180.0
210
0
220
0
230
1.0
 0
LINE
 8
TOOL_0
 5
3A
 10
1326.156
 20
204.719
 30
0
 11
1326.156
 21
144.719
 31
0
 0
ARC
 8
TOOL_0
 5
3B
 10
1376.956
 20
144.719
 30
0
 40
50.8
 50
180.0
 51
270.0
210
0
220
0
230
1.0
 0
LINE
 8
TOOL_0
 5
3C
 10
1376.956
 20
93.919
 30
0
 11
1456.156
 21
93.919
 31
0
 0
LINE
 8
TOOL_0
 5
3D
 10
1456.156
 20
93.919
 30
0
 11
1470.076
 21
93.431
 31
0
 0
LINE
 8
TOOL_0
 5
3E
 10
1470.076
 20
93.431
 30
0
 11
1877.581
 21
527.517
 31
0
 0
LINE
 8
TOOL_0
 5
3F
 10
1877.581
 20
527.517
 30
0
 11
1912.581
 21
527.517
 31
0
 0
ARC
 8
TOOL_0
 5
40
 10
1827.581
 20
527.517
 30
0
 40
85.0
 50
0
 51
180.0
210
0
220
0
230
1.0
 0
ARC
 8
TOOL_0
 5
41
 10
1827.581
 20
527.517
 30
0
 40
85.0
 50
180.0
 51
0
210
0
220
0
230
1.0
 0
LINE
 8
TOOL_0
 5
42
 10
1912.581
 20
527.517
 30
0
 11
1482.991
 21
693.295
 31
0
 0
LINE
 8
TOOL_0
 5
43
 10
1482.991
 20
693.295
 30
0
 11
1512.291
 21
708.113
 31
0
 0
LINE
 8
TOOL_0
 5
44
 10
1512.291
 20
708.113
 30
0
 11
1514.947
 21
709.512
 31
0
 0
ARC
 8
TOOL_0
 5
45
 10
1524.582
 20
708.016
 30
0
 40
9.750448246106
 50
90.0
 51
171.174314300604
210
0
220
0
230
1.0
 0
LINE
 8
TOOL_0
 5
46
 10
1524.582
 20
717.766
 30
0
 11
2130.582
 21
717.766
 31
0
 0
ARC
 8
TOOL_0
 5
47
 10
2130.582
 20
708.016
 30
0
 40
9.75
 50
0
 51
90.0
210
0
220
0
230
1.0
 0
LINE
 8
TOOL_0
 5
48
 10
2140.332
 20
708.016
 30
0
 11
2140.332
 21
18.016
 31
0
 0
ARC
 8
TOOL_0
 5
49
 10
2130.582
 20
18.016
 30
0
 40
9.75
 50
270.0
 51
0
210
0
220
0
230
1.0
 0
LINE
 8
TOOL_0
 5
4A
 10
2130.582
 20
8.266
 30
0
 11
1524.582
 21
8.266
 31
0
 0
ARC
 8
TOOL_0
 5
4B
 10
1524.582
 20
18.016
 30
0
 40
9.75
 50
180.0
 51
270.0
210
0
220
0
230
1.0
 0
LINE
 8
TOOL_0
 5
4C
 10
1514.832
 20
18.016
 30
0
 11
1514.832
 21
706.514
 31
0
 0
LINE
 8
TOOL_0
 5
4D
 10
1514.832
 20
706.514
 30
0
 11
1512.292
 21
708.113
 31
0
 0
LINE
 8
TOOL_0
 5
4E
 10
1512.292
 20
708.113
 30
0
 11
1508.523
 21
716.778
 31
0
 0
LINE
 8
TOOL_0
 5
4F
 10
1508.523
 20
716.778
 30
0
 11
43.982
 21
565.802
 31
0
 0
LINE
 8
TOOL_0
 5
50
 10
43.982
 20
565.802
 30
0
 11
38.963
 21
609.293
 31
0
 0
LINE
 8
TOOL_0
 5
51
 10
38.963
 20
609.293
 30
0
 11
40.744
 21
611.709
 31
0
 0
LINE
 8
TOOL_0
 5
52
 10
40.744
 20
611.709
 30
0
 11
35.706
 21
630.511
 31
0
 0
ARC
 8
TOOL_0
 5
53
 10
38.121
 20
631.158
 30
0
 40
2.500166794436
 50
104.997846181894
 51
194.997846181895
210
0
220
0
230
1.0
 0
LINE
 8
TOOL_0
 5
54
 10
37.474
 20
633.573
 30
0
 11
134.067
 21
659.455
 31
0
 0
ARC
 8
TOOL_0
 5
55
 10
160.078
 20
562.379
 30
0
 40
100.500357695881
 50
66.786512630426
 51
104.999760011485
210
0
220
0
230
1.0
 0
ARC
 8
TOOL_0
 5
56
 10
215.26
 20
691.045
 30
0
 40
39.49973373328
 50
246.786743705285
 51
323.21307322721
210
0
220
0
230
1.0
 0
ARC
 8
TOOL_0
 5
57
 10
327.382
 20
607.208
 30
0
 40
100.500306631373
 50
105.00031069005
 51
143.213565831716
210
0
220
0
230
1.0
 0
LINE
 8
TOOL_0
 5
58
 10
301.37
 20
704.284
 30
0
 11
356.23
 21
718.984
 31
0
 0
ARC
 8
TOOL_0
 5
59
 10
361.536
 20
699.183
 30
0
 40
20.499591142264
 50
14.998212862363
 51
105.000912620388
210
0
220
0
230
1.0
 0
LINE
 8
TOOL_0
 5
5A
 10
381.337
 20
704.488
 30
0
 11
388.066
 21
679.374
 31
0
 0
ARC
 8
TOOL_0
 5
5B
 10
385.651
 20
678.727
 30
0
 40
2.500166794436
 50
284.997846181896
 51
14.997846181895
210
0
220
0
230
1.0
 0
LINE
 8
TOOL_0
 5
5C
 10
386.298
 20
676.312
 30
0
 11
368.911
 21
671.653
 31
0
 0
ARC
 8
TOOL_0
 5
5D
 10
368.264
 20
674.068
 30
0
 40
2.500166794436
 50
194.997846181893
 51
284.997846181895
210
0
220
0
230
1.0
 0
LINE
 8
TOOL_0
 5
5E
 10
365.849
 20
673.421
 30
0
 11
365.603
 21
674.337
 31
0
 0
ARC
 8
TOOL_0
 5
5F
 10
357.126
 20
670.048
 30
0
 40
9.500265785756
 50
26.837462330242
 51
105.001737304021
210
0
220
0
230
1.0
 0
LINE
 8
TOOL_0
 5
60
 10
354.667
 20
679.224
 30
0
 11
314.095
 21
668.353
 31
0
 0
ARC
 8
TOOL_0
 5
61
 10
326.907
 20
620.54
 30
0
 40
49.499801141015
 50
105.000609632933
 51
145.000014468306
210
0
220
0
230
1.0
 0
LINE
 8
TOOL_0
 5
62
 10
286.359
 20
648.932
 30
0
 11
243.56
 21
587.809
 31
0
 0
ARC
 8
TOOL_0
 5
63
 10
271.821
 20
568.021
 30
0
 40
34.499986449273
 50
145.000768951724
 51
184.343680147159
210
0
220
0
230
1.0
 0
ARC
 8
TOOL_0
 5
64
 10
233.251
 20
565.091
 30
0
 40
4.181034560967
 50
285.00028014233
 51
4.348255989587
210
0
220
0
230
1.0
 0
LINE
 8
TOOL_0
 5
65
 10
234.333
 20
561.053
 30
0
 11
187.599
 21
548.531
 31
0
 0
ARC
 8
TOOL_0
 5
66
 10
186.693
 20
551.912
 30
0
 40
3.500285274088
 50
195.001008440182
 51
285.001008440184
210
0
220
0
230
1.0
 0
LINE
 8
TOOL_0
 5
67
 10
183.312
 20
551.006
 30
0
 11
164.677
 21
620.553
 31
0
 0
ARC
 8
TOOL_0
 5
68
 10
145.841
 20
615.506
 30
0
 40
19.500438584811
 50
14.999741768529
 51
104.999741768528
210
0
220
0
230
1.0
 0
LINE
 8
TOOL_0
 5
69
 10
140.794
 20
634.342
 30
0
 11
44.201
 21
608.46
 31
0
 0
ARC
 8
TOOL_0
 5
6A
 10
43.554
 20
610.875
 30
0
 40
2.500166794436
 50
229.915698053839
 51
284.997846181895
210
0
220
0
230
1.0
 0
LINE
 8
TOOL_0
 5
6B
 10
41.944
 20
608.962
 30
0
 11
38.961
 21
609.294
 31
0
 0
LINE
 8
TOOL_0
 5
6C
 10
38.961
 20
609.294
 30
0
 11
32.153
 21
613.1
 31
0
 0
LINE
 8
TOOL_0
 5
6D
 10
32.153
 20
613.1
 30
0
 11
32.153
 21
0.001
 31
0
 0
LINE
 8
TOOL_0
 5
6E
 10
32.153
 20
0.001
 30
0
 11
1093.989
 21
2053.031
 31
0
 0
LINE
 8
TOOL_0
 5
6F
 10
1093.989
 20
2053.031
 30
0
 11
1128.989
 21
2053.031
 31
0
 0
ARC
 8
TOOL_0
 5
70
 10
1043.989
 20
2053.031
 30
0
 40
85.0
 50
0
 51
180.0
210
0
220
0
230
1.0
 0
ARC
 8
TOOL_0
 5
71
 10
1043.989
 20
2053.031
 30
0
 40
85.0
 50
180.0
 51
0
210
0
220
0
230
1.0
 0
LINE
 8
TOOL_0
 5
72
 10
1128.989
 20
2053.031
 30
0
 11
1365.731
 21
2303.817
 31
0
 0
LINE
 8
TOOL_0
 5
73
 10
1365.731
 20
2303.817
 30
0
 11
1359.28
 21
2233.631
 31
0
 0
LINE
 8
TOOL_0
 5
74
 10
1359.28
 20
2233.631
 30
0
 11
1356.74
 21
2232.032
 31
0
 0
LINE
 8
TOOL_0
 5
75
 10
1356.74
 20
2232.032
 30
0
 11
1356.74
 21
1543.532
 31
0
 0
ARC
 8
TOOL_0
 5
76
 10
1346.99
 20
1543.532
 30
0
 40
9.75
 50
270.0
 51
0
210
0
220
0
230
1.0
 0
LINE
 8
TOOL_0
 5
77
 10
1346.99
 20
1533.782
 30
0
 11
740.99
 21
1533.782
 31
0
 0
ARC
 8
TOOL_0
 5
78
 10
740.99
 20
1543.532
 30
0
 40
9.75
 50
180.0
 51
270.0
210
0
220
0
230
1.0
 0
LINE
 8
TOOL_0
 5
79
 10
731.24
 20
1543.532
 30
0
 11
731.24
 21
2233.532
 31
0
 0
ARC
 8
TOOL_0
 5
7A
 10
740.99
 20
2233.532
 30
0
 40
9.75
 50
90.0
 51
180.0
210
0
220
0
230
1.0
 0
LINE
 8
TOOL_0
 5
7B
 10
740.99
 20
2243.282
 30
0
 11
1346.99
 21
2243.282
 31
0
 0
ARC
 8
TOOL_0
 5
7C
 10
1346.99
 20
2233.532
 30
0
 40
9.75
 50
8.838201443042
 51
90.0
210
0
220
0
230
1.0
 0
LINE
 8
TOOL_0
 5
7D
 10
1356.624
 20
2235.03
 30
0
 11
1359.28
 21
2233.631
 31
0
 0
LINE
 8
TOOL_0
 5
7E
 10
1359.28
 20
2233.631
 30
0
 11
1365.083
 21
2225.282
 31
0
 0
LINE
 8
TOOL_0
 5
7F
 10
1365.083
 20
2225.282
 30
0
 11
1701.931
 21
1922.604
 31
0
 0
LINE
 8
TOOL_0
 5
80
 10
1701.931
 20
1922.604
 30
0
 11
1736.931
 21
1922.604
 31
0
 0
ARC
 8
TOOL_0
 5
81
 10
1664.431
 20
1922.604
 30
0
 40
72.5
 50
0
 51
180.0
210
0
220
0
230
1.0
 0
ARC
 8
TOOL_0
 5
82
 10
1664.431
 20
1922.604
 30
0
 40
72.5
 50
180.0
 51
0
210
0
220
0
230
1.0
 0
LINE
 8
TOOL_0
 5
83
 10
1736.931
 20
1922.604
 30
0
 11
1701.931
 21
1672.604
 31
0
 0
LINE
 8
TOOL_0
 5
84
 10
1701.931
 20
1672.604
 30
0
 11
1736.931
 21
1672.604
 31
0
 0
ARC
 8
TOOL_0
 5
85
 10
1664.431
 20
1672.604
 30
0
 40
72.5
 50
0
 51
180.0
210
0
220
0
230
1.0
 0
ARC
 8
TOOL_0
 5
86
 10
1664.431
 20
1672.604
 30
0
 40
72.5
 50
180.0
 51
0
210
0
220
0
230
1.0
 0
LINE
 8
TOOL_0
 5
87
 10
1736.931
 20
1672.604
 30
0
 11
1958.441
 21
2291.067
 31
0
 0
LINE
 8
TOOL_0
 5
88
 10
1958.441
 20
2291.067
 30
0
 11
1960.681
 21
2206.354
 31
0
 0
LINE
 8
TOOL_0
 5
89
 10
1960.681
 20
2206.354
 30
0
 11
1960.681
 21
2086.354
 31
0
 0
LINE
 8
TOOL_0
 5
8A
 10
1960.681
 20
2086.354
 30
0
 11
1948.181
 21
2086.354
 31
0
 0
LINE
 8
TOOL_0
 5
8B
 10
1948.181
 20
2086.354
 30
0
 11
1948.181
 21
1638.854
 31
0
 0
LINE
 8
TOOL_0
 5
8C
 10
1948.181
 20
1638.854
 30
0
 11
1960.681
 21
1638.854
 31
0
 0
LINE
 8
TOOL_0
 5
8D
 10
1960.681
 20
1638.854
 30
0
 11
1960.681
 21
1506.354
 31
0
 0
LINE
 8
TOOL_0
 5
8E
 10
1960.681
 20
1506.354
 30
0
 11
1828.181
 21
1506.354
 31
0
 0
LINE
 8
TOOL_0
 5
8F
 10
1828.181
 20
1506.354
 30
0
 11
1828.181
 21
1518.854
 31
0
 0
LINE
 8
TOOL_0
 5
90
 10
1828.181
 20
1518.854
 30
0
 11
1500.681
 21
1518.854
 31
0
 0
LINE
 8
TOOL_0
 5
91
 10
1500.681
 20
1518.854
 30
0
 11
1500.681
 21
1506.354
 31
0
 0
LINE
 8
TOOL_0
 5
92
 10
1500.681
 20
1506.354
 30
0
 11
1380.681
 21
1506.354
 31
0
 0
LINE
 8
TOOL_0
 5
93
 10
1380.681
 20
1506.354
 30
0
 11
1380.681
 21
2195.622
 31
0
 0
LINE
 8
TOOL_0
 5
94
 10
1380.681
 20
2195.622
 30
0
 11
1391.413
 21
2206.354
 31
0
 0
LINE
 8
TOOL_0
 5
95
 10
1391.413
 20
2206.354
 30
0
 11
1960.681
 21
2206.354
 31
0
 0
LINE
 8
TOOL_0
 5
96
 10
1960.681
 20
2206.354
 30
0
 11
1972.313
 21
2205.672
 31
0
 0
LINE
 8
TOOL_0
 5
97
 10
1972.313
 20
2205.672
 30
0
 11
2304.565
 21
1918.939
 31
0
 0
LINE
 8
TOOL_0
 5
98
 10
2304.565
 20
1918.939
 30
0
 11
2339.565
 21
1918.939
 31
0
 0
ARC
 8
TOOL_0
 5
99
 10
2267.065
 20
1918.939
 30
0
 40
72.5
 50
0
 51
180.0
210
0
220
0
230
1.0
 0
ARC
 8
TOOL_0
 5
9A
 10
2267.065
 20
1918.939
 30
0
 40
72.5
 50
180.0
 51
0
210
0
220
0
230
1.0
 0
LINE
 8
TOOL_0
 5
9B
 10
2339.565
 20
1918.939
 30
0
 11
2304.565
 21
1668.939
 31
0
 0
LINE
 8
TOOL_0
 5
9C
 10
2304.565
 20
1668.939
 30
0
 11
2339.565
 21
1668.939
 31
0
 0
ARC
 8
TOOL_0
 5
9D
 10
2267.065
 20
1668.939
 30
0
 40
72.5
 50
0
 51
180.0
210
0
220
0
230
1.0
 0
ARC
 8
TOOL_0
 5
9E
 10
2267.065
 20
1668.939
 30
0
 40
72.5
 50
180.0
 51
0
210
0
220
0
230
1.0
 0
LINE
 8
TOOL_0
 5
9F
 10
2339.565
 20
1668.939
 30
0
 11
2563.377
 21
2289.012
 31
0
 0
LINE
 8
TOOL_0
 5
A0
 10
2563.377
 20
2289.012
 30
0
 11
2563.315
 21
2202.689
 31
0
 0
LINE
 8
TOOL_0
 5
A1
 10
2563.315
 20
2202.689
 30
0
 11
2563.315
 21
2082.689
 31
0
 0
LINE
 8
TOOL_0
 5
A2
 10
2563.315
 20
2082.689
 30
0
 11
2550.815
 21
2082.689
 31
0
 0
LINE
 8
TOOL_0
 5
A3
 10
2550.815
 20
2082.689
 30
0
 11
2550.815
 21
1635.189
 31
0
 0
LINE
 8
TOOL_0
 5
A4
 10
2550.815
 20
1635.189
 30
0
 11
2563.315
 21
1635.189
 31
0
 0
LINE
 8
TOOL_0
 5
A5
 10
2563.315
 20
1635.189
 30
0
 11
2563.315
 21
1502.689
 31
0
 0
LINE
 8
TOOL_0
 5
A6
 10
2563.315
 20
1502.689
 30
0
 11
2430.815
 21
1502.689
 31
0
 0
LINE
 8
TOOL_0
 5
A7
 10
2430.815
 20
1502.689
 30
0
 11
2430.815
 21
1515.189
 31
0
 0
LINE
 8
TOOL_0
 5
A8
 10
2430.815
 20
1515.189
 30
0
 11
2103.315
 21
1515.189
 31
0
 0
LINE
 8
TOOL_0
 5
A9
 10
2103.315
 20
1515.189
 30
0
 11
2103.315
 21
1502.689
 31
0
 0
LINE
 8
TOOL_0
 5
AA
 10
2103.315
 20
1502.689
 30
0
 11
1983.315
 21
1502.689
 31
0
 0
LINE
 8
TOOL_0
 5
AB
 10
1983.315
 20
1502.689
 30
0
 11
1983.315
 21
2191.957
 31
0
 0
LINE
 8
TOOL_0
 5
AC
 10
1983.315
 20
2191.957
 30
0
 11
1994.047
 21
2202.689
 31
0
 0
LINE
 8
TOOL_0
 5
AD
 10
1994.047
 20
2202.689
 30
0
 11
2563.315
 21
2202.689
 31
0
 0
LINE
 8
TOOL_0
 5
AE
 10
2563.315
 20
2202.689
 30
0
 11
2576.601
 21
2202.786
 31
0
 0
LINE
 8
TOOL_0
 5
AF
 10
2576.601
 20
2202.786
 30
0
 11
2451.71
 21
309.337
 31
0
 0
LINE
 8
TOOL_0
 5
B0
 10
2451.71
 20
309.337
 30
0
 11
2486.71
 21
309.337
 31
0
 0
LINE
 8
TOOL_0
 5
B1
 10
2486.71
 20
309.337
 30
0
 11
2486.71
 21
419.337
 31
0
 0
ARC
 8
TOOL_0
 5
B2
 10
2466.71
 20
419.337
 30
0
 40
20.0
 50
0
 51
90.0
210
0
220
0
230
1.0
 0
LINE
 8
TOOL_0
 5
B3
 10
2466.71
 20
439.337
 30
0
 11
2396.71
 21
439.337
 31
0
 0
LINE
 8
TOOL_0
 5
B4
 10
2396.71
 20
439.337
 30
0
 11
2326.71
 21
439.337
 31
0
 0
ARC
 8
TOOL_0
 5
B5
 10
2326.71
 20
419.337
 30
0
 40
20.0
 50
90.0
 51
180.0
210
0
220
0
230
1.0
 0
LINE
 8
TOOL_0
 5
B6
 10
2306.71
 20
419.337
 30
0
 11
2306.71
 21
199.337
 31
0
 0
ARC
 8
TOOL_0
 5
B7
 10
2326.71
 20
199.337
 30
0
 40
20.0
 50
180.0
 51
270.0
210
0
220
0
230
1.0
 0
LINE
 8
TOOL_0
 5
B8
 10
2326.71
 20
179.337
 30
0
 11
2396.71
 21
179.337
 31
0
 0
LINE
 8
TOOL_0
 5
B9
 10
2396.71
 20
179.337
 30
0
 11
2466.71
 21
179.337
 31
0
 0
ARC
 8
TOOL_0
 5
BA
 10
2466.71
 20
199.337
 30
0
 40
20.0
 50
270.0
 51
0
210
0
220
0
230
1.0
 0
LINE
 8
TOOL_0
 5
BB
 10
2486.71
 20
199.337
 30
0
 11
2486.71
 21
309.337
 31
0
 0
LINE
 8
TOOL_0
 5
BC
 10
2486.71
 20
309.337
 30
0
 11
2625.627
 21
653.157
 31
0
 0
LINE
 8
TOOL_0
 5
BD
 10
2625.627
 20
653.157
 30
0
 11
2630.533
 21
589.383
 31
0
 0
LINE
 8
TOOL_0
 5
BE
 10
2630.533
 20
589.383
 30
0
 11
2627.96
 21
587.837
 31
0
 0
LINE
 8
TOOL_0
 5
BF
 10
2627.96
 20
587.837
 30
0
 11
2627.96
 21
29.337
 31
0
 0
ARC
 8
TOOL_0
 5
C0
 10
2606.71
 20
29.337
 30
0
 40
21.25
 50
270.0
 51
0
210
0
220
0
230
1.0
 0
LINE
 8
TOOL_0
 5
C1
 10
2606.71
 20
8.087
 30
0
 11
2186.71
 21
8.087
 31
0
 0
ARC
 8
TOOL_0
 5
C2
 10
2186.71
 20
29.337
 30
0
 40
21.25
 50
180.0
 51
270.0
210
0
220
0
230
1.0
 0
LINE
 8
TOOL_0
 5
C3
 10
2165.46
 20
29.337
 30
0
 11
2165.46
 21
589.337
 31
0
 0
ARC
 8
TOOL_0
 5
C4
 10
2186.71
 20
589.337
 30
0
 40
21.25
 50
90.0
 51
180.0
210
0
220
0
230
1.0
 0
LINE
 8
TOOL_0
 5
C5
 10
2186.71
 20
610.587
 30
0
 11
2606.71
 21
610.587
 31
0
 0
ARC
 8
TOOL_0
 5
C6
 10
2606.71
 20
589.337
 30
0
 40
21.25
 50
4.047772809578
 51
90.0
210
0
220
0
230
1.0
 0
LINE
 8
TOOL_0
 5
C7
 10
2627.907
 20
590.837
 30
0
 11
2630.533
 21
589.383
 31
0
 0
LINE
 8
TOOL_0
 5
C8
 10
2630.533
 20
589.383
 30
0
 11
2635.442
 21
580.169
 31
0
 0
LINE
 8
TOOL_0
 5
C9
 10
2635.442
 20
580.169
 30
0
 11
2210.212
 21
691.766
 31
0
 0
LINE
 8
TOOL_0
 5
CA
 10
2210.212
 20
691.766
 30
0
 11
2210.673
 21
748.696
 31
0
 0
LINE
 8
TOOL_0
 5
CB
 10
2210.673
 20
748.696
 30
0
 11
2213.019
 21
750.569
 31
0
 0
LINE
 8
TOOL_0
 5
CC
 10
2213.019
 20
750.569
 30
0
 11
2213.019
 21
770.034
 31
0
 0
ARC
 8
TOOL_0
 5
CD
 10
2215.519
 20
770.034
 30
0
 40
2.5
 50
90.0
 51
180.0
210
0
220
0
230
1.0
 0
LINE
 8
TOOL_0
 5
CE
 10
2215.519
 20
772.534
 30
0
 11
2315.519
 21
772.534
 31
0
 0
ARC
 8
TOOL_0
 5
CF
 10
2315.519
 20
672.034
 30
0
 40
100.5
 50
51.786801508554
 51
90.0
210
0
220
0
230
1.0
 0
ARC
 8
TOOL_0
 5
D0
 10
2402.121
 20
782.034
 30
0
 40
39.500046227821
 50
231.787374099802
 51
308.212625900197
210
0
220
0
230
1.0
 0
ARC
 8
TOOL_0
 5
D1
 10
2488.724
 20
672.034
 30
0
 40
100.500238094245
 50
90.0
 51
128.213646431878
210
0
220
0
230
1.0
 0
LINE
 8
TOOL_0
 5
D2
 10
2488.724
 20
772.534
 30
0
 11
2545.519
 21
772.534
 31
0
 0
ARC
 8
TOOL_0
 5
D3
 10
2545.519
 20
752.034
 30
0
 40
20.5
 50
0
 51
90.0
210
0
220
0
230
1.0
 0
LINE
 8
TOOL_0
 5
D4
 10
2566.019
 20
752.034
 30
0
 11
2566.019
 21
726.034
 31
0
 0
ARC
 8
TOOL_0
 5
D5
 10
2563.519
 20
726.034
 30
0
 40
2.5
 50
270.0
 51
0
210
0
220
0
230
1.0
 0
LINE
 8
TOOL_0
 5
D6
 10
2563.519
 20
723.534
 30
0
 11
2545.519
 21
723.534
 31
0
 0
ARC
 8
TOOL_0
 5
D7
 10
2545.519
 20
726.034
 30
0
 40
2.5
 50
180.0
 51
270.0
210
0
220
0
230
1.0
 0
LINE
 8
TOOL_0
 5
D8
 10
2543.019
 20
726.034
 30
0
 11
2543.019
 21
726.983
 31
0
 0
ARC
 8
TOOL_0
 5
D9
 10
2533.721
 20
725.034
 30
0
 40
9.50007394708
 50
11.838648724992
 51
90.0
210
0
220
0
230
1.0
 0
LINE
 8
TOOL_0
 5
DA
 10
2533.721
 20
734.534
 30
0
 11
2491.717
 21
734.534
 31
0
 0
ARC
 8
TOOL_0
 5
DB
 10
2491.717
 20
685.034
 30
0
 40
49.5
 50
90.0
 51
130.000160566921
210
0
220
0
230
1.0
 0
LINE
 8
TOOL_0
 5
DC
 10
2459.899
 20
722.953
 30
0
 11
2402.739
 21
674.99
 31
0
 0
ARC
 8
TOOL_0
 5
DD
 10
2424.915
 20
648.561
 30
0
 40
34.500246622307
 50
129.999282286976
 51
169.341475787484
210
0
220
0
230
1.0
 0
ARC
 8
TOOL_0
 5
DE
 10
2386.901
 20
655.715
 30
0
 40
4.181077612291
 50
270.0
 51
349.345830719526
210
0
220
0
230
1.0
 0
LINE
 8
TOOL_0
 5
DF
 10
2386.901
 20
651.534
 30
0
 11
2338.518
 21
651.534
 31
0
 0
ARC
 8
TOOL_0
 5
E0
 10
2338.518
 20
655.034
 30
0
 40
3.5
 50
180.0
 51
270.0
210
0
220
0
230
1.0
 0
LINE
 8
TOOL_0
 5
E1
 10
2335.018
 20
655.034
 30
0
 11
2335.018
 21
727.034
 31
0
 0
ARC
 8
TOOL_0
 5
E2
 10
2315.518
 20
727.034
 30
0
 40
19.5
 50
0
 51
90.0
210
0
220
0
230
1.0
 0
LINE
 8
TOOL_0
 5
E3
 10
2315.518
 20
746.534
 30
0
 11
2215.518
 21
746.534
 31
0
 0
ARC
 8
TOOL_0
 5
E4
 10
2215.518
 20
749.034
 30
0
 40
2.5
 50
214.916920094745
 51
270.0
210
0
220
0
230
1.0
 0
LINE
 8
TOOL_0
 5
E5
 10
2213.468
 20
747.603
 30
0
 11
2210.672
 21
748.696
 31
0
 0
LINE
 8
TOOL_0
 5
E6
 10
2210.672
 20
748.696
 30
0
 11
2203.018
 21
750.127
 31
0
 0
ENDSEC
 0
EOF

