0
SECTION
2
TABLES
0
TABLE
2
LAYER
70
0
0
LAYER
2
LAYER_NAME
70
0
62
1
6
CONTINUOUS
0
ENDTAB
0
ENDSEC
 0
SECTION
 2
ENTITIES
 0
LINE
 8
TOOL_0
 5
1
 10
21.27
 20
89.199
 30
0
 11
19.0
 21
132.001
 31
0
 0
LINE
 8
TOOL_0
 5
2
 10
19.0
 20
132.001
 30
0
 11
19.0
 21
203.001
 31
0
 0
ARC
 8
TOOL_0
 5
3
 10
24.0
 20
203.001
 30
0
 40
5.0
 50
90.0
 51
180.0
210
0
220
0
230
1.0
 0
LINE
 8
TOOL_0
 5
4
 10
24.0
 20
208.001
 30
0
 11
383.784
 21
208.001
 31
0
 0
ARC
 8
TOOL_0
 5
5
 10
383.784
 20
237.501
 30
0
 40
29.5
 50
270.0
 51
285.999553963966
210
0
220
0
230
1.0
 0
LINE
 8
TOOL_0
 5
6
 10
391.915
 20
209.144
 30
0
 11
530.131
 21
248.777
 31
0
 0
ARC
 8
TOOL_0
 5
7
 10
521.921
 20
277.193
 30
0
 40
29.578254782864
 50
286.115155158088
 51
359.885714645253
210
0
220
0
230
1.0
 0
LINE
 8
TOOL_0
 5
8
 10
551.5
 20
277.134
 30
0
 11
551.5
 21
300.501
 31
0
 0
ARC
 8
TOOL_0
 5
9
 10
567.0
 20
300.501
 30
0
 40
15.5
 50
90.0
 51
180.0
210
0
220
0
230
1.0
 0
LINE
 8
TOOL_0
 5
A
 10
567.0
 20
316.001
 30
0
 11
954.179
 21
316.001
 31
0
 0
ARC
 8
TOOL_0
 5
B
 10
954.167
 20
310.988
 30
0
 40
5.013014362636
 50
4.140989165551
 51
89.862846989647
210
0
220
0
230
1.0
 0
LINE
 8
TOOL_0
 5
C
 10
959.167
 20
311.35
 30
0
 11
962.384
 21
265.349
 31
0
 0
ARC
 8
TOOL_0
 5
D
 10
986.403
 20
267.057
 30
0
 40
24.079651679374
 50
184.067477372201
 51
222.733060840556
210
0
220
0
230
1.0
 0
LINE
 8
TOOL_0
 5
E
 10
968.716
 20
250.717
 30
0
 11
994.095
 21
223.31
 31
0
 0
ARC
 8
TOOL_0
 5
F
 10
941.975
 20
175.07
 30
0
 40
71.018251175314
 50
3.614329952715
 51
42.786000740381
210
0
220
0
230
1.0
 0
ARC
 8
TOOL_0
 5
10
 10
632.764
 20
166.641
 30
0
 40
380.307050394809
 50
358.824042574058
 51
1.944747893435
210
0
220
0
230
1.0
 0
ARC
 8
TOOL_0
 5
11
 10
941.806
 20
160.012
 30
0
 40
71.194713293896
 50
317.260905930912
 51
359.053540662919
210
0
220
0
230
1.0
 0
LINE
 8
TOOL_0
 5
12
 10
994.095
 20
111.695
 30
0
 11
968.715
 21
84.288
 31
0
 0
ARC
 8
TOOL_0
 5
13
 10
986.402
 20
67.948
 30
0
 40
24.07956745874
 50
137.266939159444
 51
175.932522627799
210
0
220
0
230
1.0
 0
LINE
 8
TOOL_0
 5
14
 10
962.383
 20
69.656
 30
0
 11
959.166
 21
23.655
 31
0
 0
ARC
 8
TOOL_0
 5
15
 10
954.166
 20
24.017
 30
0
 40
5.01308727233
 50
270.137153010353
 51
355.859010834449
210
0
220
0
230
1.0
 0
LINE
 8
TOOL_0
 5
16
 10
954.178
 20
19.004
 30
0
 11
566.999
 21
19.004
 31
0
 0
ARC
 8
TOOL_0
 5
17
 10
566.999
 20
34.504
 30
0
 40
15.5
 50
180.0
 51
270.0
210
0
220
0
230
1.0
 0
LINE
 8
TOOL_0
 5
18
 10
551.499
 20
34.504
 30
0
 11
551.499
 21
57.871
 31
0
 0
ARC
 8
TOOL_0
 5
19
 10
521.921
 20
57.812
 30
0
 40
29.578058844353
 50
0.1142892186
 51
73.886705834146
210
0
220
0
230
1.0
 0
LINE
 8
TOOL_0
 5
1A
 10
530.13
 20
86.228
 30
0
 11
391.914
 21
125.861
 31
0
 0
ARC
 8
TOOL_0
 5
1B
 10
383.686
 20
96.896
 30
0
 40
30.110981534982
 50
74.141902526386
 51
87.856930583249
210
0
220
0
230
1.0
 0
LINE
 8
TOOL_0
 5
1C
 10
384.812
 20
126.986
 30
0
 11
23.999
 21
127.004
 31
0
 0
ARC
 8
TOOL_0
 5
1D
 10
23.999
 20
132.004
 30
0
 40
5.0
 50
180.0
 51
270.0
210
0
220
0
230
1.0
 0
LINE
 8
TOOL_0
 5
1E
 10
18.999
 20
132.004
 30
0
 11
11.303
 21
137.273
 31
0
 0
ENDSEC
 0
EOF

