0
SECTION
2
TABLES
0
TABLE
2
LAYER
70
0
0
LAYER
2
LAYER_NAME
70
0
62
1
6
CONTINUOUS
0
ENDTAB
0
ENDSEC
 0
SECTION
 2
ENTITIES
 0
LINE
 8
TOOL_0
 5
1
 10
296.982
 20
507.12
 30
0
 11
271.982
 21
507.12
 31
0
 0
ARC
 8
TOOL_0
 5
2
 10
175.992
 20
603.11
 30
0
 40
135.750359852193
 50
134.999701551839
 51
315.0
210
0
220
0
230
1.0
 0
ARC
 8
TOOL_0
 5
3
 10
175.992
 20
603.11
 30
0
 40
135.749652747254
 50
315.0
 51
134.999701551839
210
0
220
0
230
1.0
 0
LINE
 8
TOOL_0
 5
4
 10
271.982
 20
507.12
 30
0
 11
271.982
 21
502.12
 31
0
 0
LINE
 8
TOOL_0
 5
5
 10
271.982
 20
502.12
 30
0
 11
679.811
 21
190.598
 31
0
 0
LINE
 8
TOOL_0
 5
6
 10
679.811
 20
190.598
 30
0
 11
654.811
 21
190.598
 31
0
 0
ARC
 8
TOOL_0
 5
7
 10
527.001
 20
318.408
 30
0
 40
180.750635406905
 50
134.999551707786
 51
315.0
210
0
220
0
230
1.0
 0
ARC
 8
TOOL_0
 5
8
 10
527.002
 20
318.408
 30
0
 40
180.749928301507
 50
314.99977585477
 51
134.99977585477
210
0
220
0
230
1.0
 0
LINE
 8
TOOL_0
 5
9
 10
654.811
 20
190.598
 30
0
 11
654.811
 21
185.598
 31
0
 0
LINE
 8
TOOL_0
 5
A
 10
654.811
 20
185.598
 30
0
 11
486.481
 21
633.046
 31
0
 0
LINE
 8
TOOL_0
 5
B
 10
486.481
 20
633.046
 30
0
 11
516.481
 21
633.046
 31
0
 0
ARC
 8
TOOL_0
 5
C
 10
451.481
 20
633.046
 30
0
 40
65.0
 50
0
 51
180.0
210
0
220
0
230
1.0
 0
ARC
 8
TOOL_0
 5
D
 10
451.481
 20
633.046
 30
0
 40
65.0
 50
180.0
 51
0
210
0
220
0
230
1.0
 0
LINE
 8
TOOL_0
 5
E
 10
516.481
 20
633.046
 30
0
 11
512.238
 21
637.289
 31
0
 0
LINE
 8
TOOL_0
 5
F
 10
512.238
 20
637.289
 30
0
 11
565.399
 21
544.127
 31
0
 0
LINE
 8
TOOL_0
 5
10
 10
565.399
 20
544.127
 30
0
 11
540.399
 21
544.127
 31
0
 0
ARC
 8
TOOL_0
 5
11
 10
451.48
 20
633.046
 30
0
 40
125.750455752653
 50
134.999677818567
 51
315.0
210
0
220
0
230
1.0
 0
ARC
 8
TOOL_0
 5
12
 10
451.48
 20
633.046
 30
0
 40
125.74974864786
 50
315.0
 51
134.999677818567
210
0
220
0
230
1.0
 0
LINE
 8
TOOL_0
 5
13
 10
540.399
 20
544.127
 30
0
 11
540.399
 21
539.127
 31
0
 0
LINE
 8
TOOL_0
 5
14
 10
540.399
 20
539.127
 30
0
 11
549.82
 21
892.699
 31
0
 0
LINE
 8
TOOL_0
 5
15
 10
549.82
 20
892.699
 30
0
 11
579.82
 21
892.699
 31
0
 0
ARC
 8
TOOL_0
 5
16
 10
514.82
 20
892.699
 30
0
 40
65.0
 50
0
 51
180.0
210
0
220
0
230
1.0
 0
ARC
 8
TOOL_0
 5
17
 10
514.82
 20
892.699
 30
0
 40
65.0
 50
180.0
 51
0
210
0
220
0
230
1.0
 0
LINE
 8
TOOL_0
 5
18
 10
579.82
 20
892.699
 30
0
 11
575.577
 21
896.942
 31
0
 0
LINE
 8
TOOL_0
 5
19
 10
575.577
 20
896.942
 30
0
 11
628.738
 21
803.781
 31
0
 0
LINE
 8
TOOL_0
 5
1A
 10
628.738
 20
803.781
 30
0
 11
603.738
 21
803.781
 31
0
 0
ARC
 8
TOOL_0
 5
1B
 10
514.819
 20
892.7
 30
0
 40
125.750455752653
 50
134.999677818567
 51
315.0
210
0
220
0
230
1.0
 0
ARC
 8
TOOL_0
 5
1C
 10
514.819
 20
892.7
 30
0
 40
125.74974864786
 50
315.0
 51
134.999677818567
210
0
220
0
230
1.0
 0
LINE
 8
TOOL_0
 5
1D
 10
603.738
 20
803.781
 30
0
 11
603.738
 21
798.781
 31
0
 0
LINE
 8
TOOL_0
 5
1E
 10
603.738
 20
798.781
 30
0
 11
758.31
 21
0
 31
0
 0
LINE
 8
TOOL_0
 5
1F
 10
758.31
 20
0
 30
0
 11
758.31
 21
1.0
 31
0
 0
LINE
 8
TOOL_0
 5
20
 10
758.31
 20
1.0
 30
0
 11
758.31
 21
0
 31
0
 0
LINE
 8
TOOL_0
 5
21
 10
758.31
 20
0
 30
0
 11
758.31
 21
1.0
 31
0
 0
LINE
 8
TOOL_0
 5
22
 10
758.31
 20
1.0
 30
0
 11
758.31
 21
1472.462
 31
0
 0
LINE
 8
TOOL_0
 5
23
 10
758.31
 20
1472.462
 30
0
 11
758.31
 21
1473.462
 31
0
 0
ENDSEC
 0
EOF

