0
SECTION
2
TABLES
0
TABLE
2
LAYER
70
0
0
LAYER
2
LAYER_NAME
70
0
62
1
6
CONTINUOUS
0
ENDTAB
0
ENDSEC
 0
SECTION
 2
ENTITIES
 0
LINE
 8
TOOL_0
 5
1
 10
1754.84
 20
933.904
 30
0
 11
1782.84
 21
933.904
 31
0
 0
ARC
 8
TOOL_0
 5
2
 10
1682.84
 20
933.904
 30
0
 40
100.0
 50
0
 51
180.0
210
0
220
0
230
1.0
 0
ARC
 8
TOOL_0
 5
3
 10
1682.84
 20
933.904
 30
0
 40
100.0
 50
180.0
 51
0
210
0
220
0
230
1.0
 0
LINE
 8
TOOL_0
 5
4
 10
1782.84
 20
933.904
 30
0
 11
1777.183
 21
939.561
 31
0
 0
LINE
 8
TOOL_0
 5
5
 10
1777.183
 20
939.561
 30
0
 11
2054.84
 21
933.904
 31
0
 0
LINE
 8
TOOL_0
 5
6
 10
2054.84
 20
933.904
 30
0
 11
2082.84
 21
933.904
 31
0
 0
ARC
 8
TOOL_0
 5
7
 10
1982.84
 20
933.904
 30
0
 40
100.0
 50
0
 51
180.0
210
0
220
0
230
1.0
 0
ARC
 8
TOOL_0
 5
8
 10
1982.84
 20
933.904
 30
0
 40
100.0
 50
180.0
 51
0
210
0
220
0
230
1.0
 0
LINE
 8
TOOL_0
 5
9
 10
2082.84
 20
933.904
 30
0
 11
2077.183
 21
939.561
 31
0
 0
LINE
 8
TOOL_0
 5
A
 10
2077.183
 20
939.561
 30
0
 11
2354.84
 21
933.904
 31
0
 0
LINE
 8
TOOL_0
 5
B
 10
2354.84
 20
933.904
 30
0
 11
2382.84
 21
933.904
 31
0
 0
ARC
 8
TOOL_0
 5
C
 10
2282.84
 20
933.904
 30
0
 40
100.0
 50
0
 51
180.0
210
0
220
0
230
1.0
 0
ARC
 8
TOOL_0
 5
D
 10
2282.84
 20
933.904
 30
0
 40
100.0
 50
180.0
 51
0
210
0
220
0
230
1.0
 0
LINE
 8
TOOL_0
 5
E
 10
2382.84
 20
933.904
 30
0
 11
2377.183
 21
939.561
 31
0
 0
LINE
 8
TOOL_0
 5
F
 10
2377.183
 20
939.561
 30
0
 11
2814.722
 21
669.629
 31
0
 0
LINE
 8
TOOL_0
 5
10
 10
2814.722
 20
669.629
 30
0
 11
2783.34
 21
669.629
 31
0
 0
LINE
 8
TOOL_0
 5
11
 10
2783.34
 20
669.629
 30
0
 11
2357.34
 21
632.359
 31
0
 0
LINE
 8
TOOL_0
 5
12
 10
2357.34
 20
632.359
 30
0
 11
2357.34
 21
732.405
 31
0
 0
LINE
 8
TOOL_0
 5
13
 10
2357.34
 20
732.405
 30
0
 11
1608.34
 21
732.405
 31
0
 0
LINE
 8
TOOL_0
 5
14
 10
1608.34
 20
732.405
 30
0
 11
1608.34
 21
632.359
 31
0
 0
LINE
 8
TOOL_0
 5
15
 10
1608.34
 20
632.359
 30
0
 11
1182.34
 21
669.629
 31
0
 0
LINE
 8
TOOL_0
 5
16
 10
1182.34
 20
669.629
 30
0
 11
1182.34
 21
934.112
 31
0
 0
LINE
 8
TOOL_0
 5
17
 10
1182.34
 20
934.112
 30
0
 11
1359.633
 21
1111.405
 31
0
 0
LINE
 8
TOOL_0
 5
18
 10
1359.633
 20
1111.405
 30
0
 11
2605.047
 21
1111.405
 31
0
 0
LINE
 8
TOOL_0
 5
19
 10
2605.047
 20
1111.405
 30
0
 11
2783.34
 21
933.112
 31
0
 0
LINE
 8
TOOL_0
 5
1A
 10
2783.34
 20
933.112
 30
0
 11
2783.34
 21
669.629
 31
0
 0
LINE
 8
TOOL_0
 5
1B
 10
2783.34
 20
669.629
 30
0
 11
2783.34
 21
664.629
 31
0
 0
LINE
 8
TOOL_0
 5
1C
 10
2783.34
 20
664.629
 30
0
 11
1748.204
 21
1442.794
 31
0
 0
LINE
 8
TOOL_0
 5
1D
 10
1748.204
 20
1442.794
 30
0
 11
1776.204
 21
1442.794
 31
0
 0
ARC
 8
TOOL_0
 5
1E
 10
1676.204
 20
1442.794
 30
0
 40
100.0
 50
0
 51
180.0
210
0
220
0
230
1.0
 0
ARC
 8
TOOL_0
 5
1F
 10
1676.204
 20
1442.794
 30
0
 40
100.0
 50
180.0
 51
0
210
0
220
0
230
1.0
 0
LINE
 8
TOOL_0
 5
20
 10
1776.204
 20
1442.794
 30
0
 11
1770.547
 21
1448.451
 31
0
 0
LINE
 8
TOOL_0
 5
21
 10
1770.547
 20
1448.451
 30
0
 11
2048.204
 21
1442.794
 31
0
 0
LINE
 8
TOOL_0
 5
22
 10
2048.204
 20
1442.794
 30
0
 11
2076.204
 21
1442.794
 31
0
 0
ARC
 8
TOOL_0
 5
23
 10
1976.204
 20
1442.794
 30
0
 40
100.0
 50
0
 51
180.0
210
0
220
0
230
1.0
 0
ARC
 8
TOOL_0
 5
24
 10
1976.204
 20
1442.794
 30
0
 40
100.0
 50
180.0
 51
0
210
0
220
0
230
1.0
 0
LINE
 8
TOOL_0
 5
25
 10
2076.204
 20
1442.794
 30
0
 11
2070.547
 21
1448.451
 31
0
 0
LINE
 8
TOOL_0
 5
26
 10
2070.547
 20
1448.451
 30
0
 11
2348.204
 21
1442.794
 31
0
 0
LINE
 8
TOOL_0
 5
27
 10
2348.204
 20
1442.794
 30
0
 11
2376.204
 21
1442.794
 31
0
 0
ARC
 8
TOOL_0
 5
28
 10
2276.204
 20
1442.794
 30
0
 40
100.0
 50
0
 51
180.0
210
0
220
0
230
1.0
 0
ARC
 8
TOOL_0
 5
29
 10
2276.204
 20
1442.794
 30
0
 40
100.0
 50
180.0
 51
0
210
0
220
0
230
1.0
 0
LINE
 8
TOOL_0
 5
2A
 10
2376.204
 20
1442.794
 30
0
 11
2370.547
 21
1448.451
 31
0
 0
LINE
 8
TOOL_0
 5
2B
 10
2370.547
 20
1448.451
 30
0
 11
2808.087
 21
1178.519
 31
0
 0
LINE
 8
TOOL_0
 5
2C
 10
2808.087
 20
1178.519
 30
0
 11
2776.704
 21
1178.519
 31
0
 0
LINE
 8
TOOL_0
 5
2D
 10
2776.704
 20
1178.519
 30
0
 11
2350.704
 21
1141.249
 31
0
 0
LINE
 8
TOOL_0
 5
2E
 10
2350.704
 20
1141.249
 30
0
 11
2350.704
 21
1241.295
 31
0
 0
LINE
 8
TOOL_0
 5
2F
 10
2350.704
 20
1241.295
 30
0
 11
1601.704
 21
1241.295
 31
0
 0
LINE
 8
TOOL_0
 5
30
 10
1601.704
 20
1241.295
 30
0
 11
1601.704
 21
1141.249
 31
0
 0
LINE
 8
TOOL_0
 5
31
 10
1601.704
 20
1141.249
 30
0
 11
1175.704
 21
1178.519
 31
0
 0
LINE
 8
TOOL_0
 5
32
 10
1175.704
 20
1178.519
 30
0
 11
1175.704
 21
1443.002
 31
0
 0
LINE
 8
TOOL_0
 5
33
 10
1175.704
 20
1443.002
 30
0
 11
1352.997
 21
1620.295
 31
0
 0
LINE
 8
TOOL_0
 5
34
 10
1352.997
 20
1620.295
 30
0
 11
2598.411
 21
1620.295
 31
0
 0
LINE
 8
TOOL_0
 5
35
 10
2598.411
 20
1620.295
 30
0
 11
2776.704
 21
1442.002
 31
0
 0
LINE
 8
TOOL_0
 5
36
 10
2776.704
 20
1442.002
 30
0
 11
2776.704
 21
1178.519
 31
0
 0
LINE
 8
TOOL_0
 5
37
 10
2776.704
 20
1178.519
 30
0
 11
2776.704
 21
1173.519
 31
0
 0
LINE
 8
TOOL_0
 5
38
 10
2776.704
 20
1173.519
 30
0
 11
2368.582
 21
1654.451
 31
0
 0
LINE
 8
TOOL_0
 5
39
 10
2368.582
 20
1654.451
 30
0
 11
2332.362
 21
1654.451
 31
0
 0
LINE
 8
TOOL_0
 5
3A
 10
2332.362
 20
1654.451
 30
0
 11
1164.362
 21
1654.451
 31
0
 0
LINE
 8
TOOL_0
 5
3B
 10
1164.362
 20
1654.451
 30
0
 11
1164.362
 21
1904.451
 31
0
 0
LINE
 8
TOOL_0
 5
3C
 10
1164.362
 20
1904.451
 30
0
 11
2332.362
 21
1904.451
 31
0
 0
LINE
 8
TOOL_0
 5
3D
 10
2332.362
 20
1904.451
 30
0
 11
2332.362
 21
1654.451
 31
0
 0
LINE
 8
TOOL_0
 5
3E
 10
2332.362
 20
1654.451
 30
0
 11
2332.362
 21
1649.226
 31
0
 0
LINE
 8
TOOL_0
 5
3F
 10
2332.362
 20
1649.226
 30
0
 11
2372.637
 21
1937.742
 31
0
 0
LINE
 8
TOOL_0
 5
40
 10
2372.637
 20
1937.742
 30
0
 11
2336.418
 21
1937.742
 31
0
 0
LINE
 8
TOOL_0
 5
41
 10
2336.418
 20
1937.742
 30
0
 11
1168.418
 21
1937.742
 31
0
 0
LINE
 8
TOOL_0
 5
42
 10
1168.418
 20
1937.742
 30
0
 11
1168.418
 21
2187.742
 31
0
 0
LINE
 8
TOOL_0
 5
43
 10
1168.418
 20
2187.742
 30
0
 11
2336.418
 21
2187.742
 31
0
 0
LINE
 8
TOOL_0
 5
44
 10
2336.418
 20
2187.742
 30
0
 11
2336.418
 21
1937.742
 31
0
 0
LINE
 8
TOOL_0
 5
45
 10
2336.418
 20
1937.742
 30
0
 11
2336.418
 21
1932.517
 31
0
 0
ENDSEC
 0
EOF

