0
SECTION
2
TABLES
0
TABLE
2
LAYER
70
0
0
LAYER
2
LAYER_NAME
70
0
62
1
6
CONTINUOUS
0
ENDTAB
0
ENDSEC
 0
SECTION
 2
ENTITIES
 0
LINE
 8
TOOL_0
 5
1
 10
527.812
 20
80.236
 30
0
 11
457.0
 21
80.236
 31
0
 0
LINE
 8
TOOL_0
 5
2
 10
457.0
 20
80.236
 30
0
 11
238.583
 21
80.236
 31
0
 0
ARC
 8
TOOL_0
 5
3
 10
238.644
 20
92.938
 30
0
 40
12.702146472152
 50
236.716509381525
 51
269.724845246263
210
0
220
0
230
1.0
 0
ARC
 8
TOOL_0
 5
4
 10
222.0
 20
67.736
 30
0
 40
17.499451934275
 50
56.443421091965
 51
160.123743585995
210
0
220
0
230
1.0
 0
ARC
 8
TOOL_0
 5
5
 10
150.352
 20
93.839
 30
0
 40
58.754399911836
 50
308.60284937325
 51
339.939993930424
210
0
220
0
230
1.0
 0
ARC
 8
TOOL_0
 5
6
 10
107.759
 20
140.945
 30
0
 40
122.203983097933
 50
240.00697379198
 51
310.429661075473
210
0
220
0
230
1.0
 0
LINE
 8
TOOL_0
 5
7
 10
46.67
 20
35.106
 30
0
 11
18.999
 21
51.082
 31
0
 0
LINE
 8
TOOL_0
 5
8
 10
18.999
 20
51.082
 30
0
 11
18.999
 21
91.237
 31
0
 0
ARC
 8
TOOL_0
 5
9
 10
25.975
 20
91.812
 30
0
 40
6.999657205892
 50
81.58862403273
 51
184.711979179747
210
0
220
0
230
1.0
 0
LINE
 8
TOOL_0
 5
A
 10
26.999
 20
98.737
 30
0
 11
102.321
 21
98.737
 31
0
 0
ARC
 8
TOOL_0
 5
B
 10
102.201
 20
85.668
 30
0
 40
13.069550910418
 50
56.759816872611
 51
89.47392299888
210
0
220
0
230
1.0
 0
ARC
 8
TOOL_0
 5
C
 10
112.857
 20
103.237
 30
0
 40
7.500473851698
 50
242.252844409808
 51
314.994598304955
210
0
220
0
230
1.0
 0
LINE
 8
TOOL_0
 5
D
 10
118.16
 20
97.933
 30
0
 11
122.909
 21
102.682
 31
0
 0
ARC
 8
TOOL_0
 5
E
 10
106.882
 20
118.64
 30
0
 40
22.616863022975
 50
315.123601771257
 51
359.878401499423
210
0
220
0
230
1.0
 0
LINE
 8
TOOL_0
 5
F
 10
129.499
 20
118.592
 30
0
 11
129.499
 21
119.481
 31
0
 0
ARC
 8
TOOL_0
 5
10
 10
142.518
 20
119.39
 30
0
 40
13.019318031295
 50
160.485019627158
 51
179.599521389819
210
0
220
0
230
1.0
 0
LINE
 8
TOOL_0
 5
11
 10
130.247
 20
123.739
 30
0
 11
151.065
 21
181.198
 31
0
 0
ARC
 8
TOOL_0
 5
12
 10
167.518
 20
175.237
 30
0
 40
17.499563708847
 50
90.0
 51
160.084307815519
210
0
220
0
230
1.0
 0
LINE
 8
TOOL_0
 5
13
 10
167.518
 20
192.737
 30
0
 11
186.999
 21
192.737
 31
0
 0
ARC
 8
TOOL_0
 5
14
 10
186.955
 20
175.156
 30
0
 40
17.581055059353
 50
12.622834803499
 51
89.85660604999
210
0
220
0
230
1.0
 0
LINE
 8
TOOL_0
 5
15
 10
204.111
 20
178.998
 30
0
 11
204.499
 21
177.785
 31
0
 0
ARC
 8
TOOL_0
 5
16
 10
221.999
 20
177.738
 30
0
 40
17.500063114172
 50
179.846120276431
 51
303.556578908035
210
0
220
0
230
1.0
 0
ARC
 8
TOOL_0
 5
17
 10
238.642
 20
152.537
 30
0
 40
12.701292217723
 50
90.270665396289
 51
123.282195127772
210
0
220
0
230
1.0
 0
LINE
 8
TOOL_0
 5
18
 10
238.582
 20
165.238
 30
0
 11
456.999
 21
165.238
 31
0
 0
ARC
 8
TOOL_0
 5
19
 10
458.011
 20
153.281
 30
0
 40
11.999749705723
 50
357.406543412094
 51
94.837791181282
210
0
220
0
230
1.0
 0
LINE
 8
TOOL_0
 5
1A
 10
469.999
 20
152.738
 30
0
 11
469.999
 21
92.738
 31
0
 0
ARC
 8
TOOL_0
 5
1B
 10
458.011
 20
92.195
 30
0
 40
12.000291371463
 50
265.162208818717
 51
2.593456587906
210
0
220
0
230
1.0
 0
LINE
 8
TOOL_0
 5
1C
 10
456.999
 20
80.238
 30
0
 11
456.999
 21
61.264
 31
0
 0
LINE
 8
TOOL_0
 5
1D
 10
456.999
 20
61.264
 30
0
 11
527.811
 21
260.353
 31
0
 0
LINE
 8
TOOL_0
 5
1E
 10
527.811
 20
260.353
 30
0
 11
456.999
 21
260.353
 31
0
 0
LINE
 8
TOOL_0
 5
1F
 10
456.999
 20
260.353
 30
0
 11
238.582
 21
260.353
 31
0
 0
ARC
 8
TOOL_0
 5
20
 10
238.643
 20
273.055
 30
0
 40
12.702146472152
 50
236.716509381525
 51
269.724845246263
210
0
220
0
230
1.0
 0
ARC
 8
TOOL_0
 5
21
 10
221.999
 20
247.853
 30
0
 40
17.499451934275
 50
56.443421091965
 51
160.123743585996
210
0
220
0
230
1.0
 0
ARC
 8
TOOL_0
 5
22
 10
150.351
 20
273.956
 30
0
 40
58.754399911836
 50
308.60284937325
 51
339.939993930424
210
0
220
0
230
1.0
 0
ARC
 8
TOOL_0
 5
23
 10
107.758
 20
321.062
 30
0
 40
122.203983097933
 50
240.00697379198
 51
310.429661075473
210
0
220
0
230
1.0
 0
LINE
 8
TOOL_0
 5
24
 10
46.669
 20
215.223
 30
0
 11
18.998
 21
231.199
 31
0
 0
LINE
 8
TOOL_0
 5
25
 10
18.998
 20
231.199
 30
0
 11
18.998
 21
271.354
 31
0
 0
ARC
 8
TOOL_0
 5
26
 10
25.974
 20
271.929
 30
0
 40
6.999657205892
 50
81.58862403273
 51
184.711979179747
210
0
220
0
230
1.0
 0
LINE
 8
TOOL_0
 5
27
 10
26.998
 20
278.854
 30
0
 11
102.32
 21
278.854
 31
0
 0
ARC
 8
TOOL_0
 5
28
 10
102.2
 20
265.785
 30
0
 40
13.069550910418
 50
56.759816872611
 51
89.47392299888
210
0
220
0
230
1.0
 0
ARC
 8
TOOL_0
 5
29
 10
112.856
 20
283.354
 30
0
 40
7.500473851698
 50
242.252844409808
 51
314.994598304955
210
0
220
0
230
1.0
 0
LINE
 8
TOOL_0
 5
2A
 10
118.159
 20
278.05
 30
0
 11
122.908
 21
282.799
 31
0
 0
ARC
 8
TOOL_0
 5
2B
 10
106.881
 20
298.757
 30
0
 40
22.616863022975
 50
315.123601771257
 51
359.878401499423
210
0
220
0
230
1.0
 0
LINE
 8
TOOL_0
 5
2C
 10
129.498
 20
298.709
 30
0
 11
129.498
 21
299.598
 31
0
 0
ARC
 8
TOOL_0
 5
2D
 10
142.517
 20
299.507
 30
0
 40
13.019318031295
 50
160.485019627158
 51
179.599521389819
210
0
220
0
230
1.0
 0
LINE
 8
TOOL_0
 5
2E
 10
130.246
 20
303.856
 30
0
 11
151.064
 21
361.315
 31
0
 0
ARC
 8
TOOL_0
 5
2F
 10
167.517
 20
355.354
 30
0
 40
17.499563708847
 50
90.0
 51
160.084307815519
210
0
220
0
230
1.0
 0
LINE
 8
TOOL_0
 5
30
 10
167.517
 20
372.854
 30
0
 11
186.998
 21
372.854
 31
0
 0
ARC
 8
TOOL_0
 5
31
 10
186.954
 20
355.273
 30
0
 40
17.581055059353
 50
12.6228348035
 51
89.85660604999
210
0
220
0
230
1.0
 0
LINE
 8
TOOL_0
 5
32
 10
204.11
 20
359.115
 30
0
 11
204.498
 21
357.902
 31
0
 0
ARC
 8
TOOL_0
 5
33
 10
221.998
 20
357.855
 30
0
 40
17.500063114172
 50
179.846120276431
 51
303.556578908035
210
0
220
0
230
1.0
 0
ARC
 8
TOOL_0
 5
34
 10
238.641
 20
332.654
 30
0
 40
12.701292217723
 50
90.270665396289
 51
123.282195127772
210
0
220
0
230
1.0
 0
LINE
 8
TOOL_0
 5
35
 10
238.581
 20
345.355
 30
0
 11
456.998
 21
345.355
 31
0
 0
ARC
 8
TOOL_0
 5
36
 10
458.01
 20
333.398
 30
0
 40
11.999749705723
 50
357.406543412094
 51
94.837791181282
210
0
220
0
230
1.0
 0
LINE
 8
TOOL_0
 5
37
 10
469.998
 20
332.855
 30
0
 11
469.998
 21
272.855
 31
0
 0
ARC
 8
TOOL_0
 5
38
 10
458.01
 20
272.312
 30
0
 40
12.000291371463
 50
265.162208818717
 51
2.593456587906
210
0
220
0
230
1.0
 0
LINE
 8
TOOL_0
 5
39
 10
456.998
 20
260.355
 30
0
 11
456.998
 21
241.381
 31
0
 0
LINE
 8
TOOL_0
 5
3A
 10
456.998
 20
241.381
 30
0
 11
505.658
 21
440.446
 31
0
 0
LINE
 8
TOOL_0
 5
3B
 10
505.658
 20
440.446
 30
0
 11
456.998
 21
440.446
 31
0
 0
LINE
 8
TOOL_0
 5
3C
 10
456.998
 20
440.446
 30
0
 11
238.581
 21
440.446
 31
0
 0
ARC
 8
TOOL_0
 5
3D
 10
238.642
 20
453.148
 30
0
 40
12.702146472152
 50
236.716509381525
 51
269.724845246263
210
0
220
0
230
1.0
 0
ARC
 8
TOOL_0
 5
3E
 10
221.998
 20
427.946
 30
0
 40
17.499451934275
 50
56.443421091965
 51
160.123743585995
210
0
220
0
230
1.0
 0
ARC
 8
TOOL_0
 5
3F
 10
150.35
 20
454.049
 30
0
 40
58.754399911836
 50
308.60284937325
 51
339.939993930424
210
0
220
0
230
1.0
 0
ARC
 8
TOOL_0
 5
40
 10
107.757
 20
501.155
 30
0
 40
122.203983097933
 50
240.00697379198
 51
310.429661075473
210
0
220
0
230
1.0
 0
LINE
 8
TOOL_0
 5
41
 10
46.668
 20
395.316
 30
0
 11
18.997
 21
411.292
 31
0
 0
LINE
 8
TOOL_0
 5
42
 10
18.997
 20
411.292
 30
0
 11
18.997
 21
451.447
 31
0
 0
ARC
 8
TOOL_0
 5
43
 10
25.973
 20
452.022
 30
0
 40
6.999657205892
 50
81.58862403273
 51
184.711979179747
210
0
220
0
230
1.0
 0
LINE
 8
TOOL_0
 5
44
 10
26.997
 20
458.947
 30
0
 11
102.319
 21
458.947
 31
0
 0
ARC
 8
TOOL_0
 5
45
 10
102.199
 20
445.878
 30
0
 40
13.069550910418
 50
56.759816872611
 51
89.47392299888
210
0
220
0
230
1.0
 0
ARC
 8
TOOL_0
 5
46
 10
112.855
 20
463.447
 30
0
 40
7.500473851698
 50
242.252844409808
 51
314.994598304955
210
0
220
0
230
1.0
 0
LINE
 8
TOOL_0
 5
47
 10
118.158
 20
458.143
 30
0
 11
122.907
 21
462.892
 31
0
 0
ARC
 8
TOOL_0
 5
48
 10
106.88
 20
478.85
 30
0
 40
22.616863022975
 50
315.123601771257
 51
359.878401499423
210
0
220
0
230
1.0
 0
LINE
 8
TOOL_0
 5
49
 10
129.497
 20
478.802
 30
0
 11
129.497
 21
479.691
 31
0
 0
ARC
 8
TOOL_0
 5
4A
 10
142.516
 20
479.6
 30
0
 40
13.019318031295
 50
160.485019627158
 51
179.599521389819
210
0
220
0
230
1.0
 0
LINE
 8
TOOL_0
 5
4B
 10
130.245
 20
483.949
 30
0
 11
151.063
 21
541.408
 31
0
 0
ARC
 8
TOOL_0
 5
4C
 10
167.516
 20
535.447
 30
0
 40
17.499563708847
 50
90.0
 51
160.084307815519
210
0
220
0
230
1.0
 0
LINE
 8
TOOL_0
 5
4D
 10
167.516
 20
552.947
 30
0
 11
186.997
 21
552.947
 31
0
 0
ARC
 8
TOOL_0
 5
4E
 10
186.953
 20
535.366
 30
0
 40
17.581055059353
 50
12.622834803499
 51
89.85660604999
210
0
220
0
230
1.0
 0
LINE
 8
TOOL_0
 5
4F
 10
204.109
 20
539.208
 30
0
 11
204.497
 21
537.995
 31
0
 0
ARC
 8
TOOL_0
 5
50
 10
221.997
 20
537.948
 30
0
 40
17.500063114172
 50
179.846120276431
 51
303.556578908035
210
0
220
0
230
1.0
 0
ARC
 8
TOOL_0
 5
51
 10
238.64
 20
512.747
 30
0
 40
12.701292217723
 50
90.270665396289
 51
123.282195127772
210
0
220
0
230
1.0
 0
LINE
 8
TOOL_0
 5
52
 10
238.58
 20
525.448
 30
0
 11
456.997
 21
525.448
 31
0
 0
ARC
 8
TOOL_0
 5
53
 10
458.009
 20
513.491
 30
0
 40
11.999749705723
 50
357.406543412094
 51
94.837791181282
210
0
220
0
230
1.0
 0
LINE
 8
TOOL_0
 5
54
 10
469.997
 20
512.948
 30
0
 11
469.997
 21
452.948
 31
0
 0
ARC
 8
TOOL_0
 5
55
 10
458.009
 20
452.405
 30
0
 40
12.000291371463
 50
265.162208818717
 51
2.593456587906
210
0
220
0
230
1.0
 0
LINE
 8
TOOL_0
 5
56
 10
456.997
 20
440.448
 30
0
 11
456.997
 21
430.095
 31
0
 0
LINE
 8
TOOL_0
 5
57
 10
456.997
 20
430.095
 30
0
 11
995.663
 21
46.505
 31
0
 0
LINE
 8
TOOL_0
 5
58
 10
995.663
 20
46.505
 30
0
 11
926.055
 21
46.505
 31
0
 0
LINE
 8
TOOL_0
 5
59
 10
926.055
 20
46.505
 30
0
 11
707.638
 21
46.505
 31
0
 0
ARC
 8
TOOL_0
 5
5A
 10
707.699
 20
59.207
 30
0
 40
12.702146472152
 50
236.716509381525
 51
269.724845246262
210
0
220
0
230
1.0
 0
ARC
 8
TOOL_0
 5
5B
 10
691.055
 20
34.005
 30
0
 40
17.499451934275
 50
56.443421091965
 51
180.153879723569
210
0
220
0
230
1.0
 0
LINE
 8
TOOL_0
 5
5C
 10
673.555
 20
33.958
 30
0
 11
673.167
 21
32.745
 31
0
 0
ARC
 8
TOOL_0
 5
5D
 10
656.011
 20
36.587
 30
0
 40
17.580935697511
 50
270.14339395001
 51
347.377165196501
210
0
220
0
230
1.0
 0
LINE
 8
TOOL_0
 5
5E
 10
656.055
 20
19.006
 30
0
 11
636.575
 21
19.006
 31
0
 0
ARC
 8
TOOL_0
 5
5F
 10
636.575
 20
36.506
 30
0
 40
17.5
 50
199.91569218448
 51
270.0
210
0
220
0
230
1.0
 0
LINE
 8
TOOL_0
 5
60
 10
620.122
 20
30.545
 30
0
 11
599.304
 21
88.004
 31
0
 0
ARC
 8
TOOL_0
 5
61
 10
611.576
 20
92.353
 30
0
 40
13.019822771451
 50
180.400447852456
 51
199.513510318678
210
0
220
0
230
1.0
 0
LINE
 8
TOOL_0
 5
62
 10
598.556
 20
92.262
 30
0
 11
598.556
 21
93.151
 31
0
 0
ARC
 8
TOOL_0
 5
63
 10
575.939
 20
93.102
 30
0
 40
22.61705307948
 50
0.124131794826
 51
44.878193361555
210
0
220
0
230
1.0
 0
LINE
 8
TOOL_0
 5
64
 10
591.966
 20
109.061
 30
0
 11
587.217
 21
113.81
 31
0
 0
ARC
 8
TOOL_0
 5
65
 10
581.914
 20
108.507
 30
0
 40
7.499574521265
 50
45.0
 51
117.750712482459
210
0
220
0
230
1.0
 0
ARC
 8
TOOL_0
 5
66
 10
571.258
 20
126.075
 30
0
 40
13.069416857687
 50
270.52607700112
 51
303.240183127389
210
0
220
0
230
1.0
 0
LINE
 8
TOOL_0
 5
67
 10
571.378
 20
113.006
 30
0
 11
496.056
 21
113.006
 31
0
 0
ARC
 8
TOOL_0
 5
68
 10
495.032
 20
119.931
 30
0
 40
7.000300064997
 50
175.288020820253
 51
278.41137596727
210
0
220
0
230
1.0
 0
LINE
 8
TOOL_0
 5
69
 10
488.056
 20
120.506
 30
0
 11
488.056
 21
160.661
 31
0
 0
LINE
 8
TOOL_0
 5
6A
 10
488.056
 20
160.661
 30
0
 11
515.727
 21
176.637
 31
0
 0
ARC
 8
TOOL_0
 5
6B
 10
576.815
 20
70.798
 30
0
 40
122.203263724829
 50
49.569677973127
 51
119.992620137955
210
0
220
0
230
1.0
 0
ARC
 8
TOOL_0
 5
6C
 10
619.409
 20
117.903
 30
0
 40
58.75447234041
 50
20.060006069576
 51
51.39715062675
210
0
220
0
230
1.0
 0
ARC
 8
TOOL_0
 5
6D
 10
691.056
 20
144.006
 30
0
 40
17.499581394993
 50
199.877369582584
 51
303.559307300839
210
0
220
0
230
1.0
 0
ARC
 8
TOOL_0
 5
6E
 10
707.701
 20
118.805
 30
0
 40
12.701841008295
 50
90.275176417427
 51
123.285966077768
210
0
220
0
230
1.0
 0
LINE
 8
TOOL_0
 5
6F
 10
707.64
 20
131.506
 30
0
 11
926.057
 21
131.506
 31
0
 0
ARC
 8
TOOL_0
 5
70
 10
927.069
 20
119.549
 30
0
 40
11.999749705723
 50
357.406543412094
 51
94.837791181282
210
0
220
0
230
1.0
 0
LINE
 8
TOOL_0
 5
71
 10
939.057
 20
119.006
 30
0
 11
939.057
 21
59.006
 31
0
 0
ARC
 8
TOOL_0
 5
72
 10
927.069
 20
58.463
 30
0
 40
12.000291371463
 50
265.162208818717
 51
2.593456587906
210
0
220
0
230
1.0
 0
LINE
 8
TOOL_0
 5
73
 10
926.057
 20
46.506
 30
0
 11
926.057
 21
27.507
 31
0
 0
LINE
 8
TOOL_0
 5
74
 10
926.057
 20
27.507
 30
0
 11
1003.086
 21
0.005
 31
0
 0
LINE
 8
TOOL_0
 5
75
 10
1003.086
 20
0.005
 30
0
 11
1003.086
 21
1.005
 31
0
 0
LINE
 8
TOOL_0
 5
76
 10
1003.086
 20
1.005
 30
0
 11
1003.086
 21
0.005
 31
0
 0
LINE
 8
TOOL_0
 5
77
 10
1003.086
 20
0.005
 30
0
 11
1003.086
 21
1.005
 31
0
 0
LINE
 8
TOOL_0
 5
78
 10
1003.086
 20
1.005
 30
0
 11
1003.086
 21
212.967
 31
0
 0
LINE
 8
TOOL_0
 5
79
 10
1003.086
 20
212.967
 30
0
 11
551.117
 21
212.967
 31
0
 0
LINE
 8
TOOL_0
 5
7A
 10
551.117
 20
212.967
 30
0
 11
551.117
 21
567.718
 31
0
 0
LINE
 8
TOOL_0
 5
7B
 10
551.117
 20
567.718
 30
0
 11
0.999
 21
567.718
 31
0
 0
LINE
 8
TOOL_0
 5
7C
 10
0.999
 20
567.718
 30
0
 11
-0.001
 21
567.718
 31
0
 0
ENDSEC
 0
EOF

