0
SECTION
2
TABLES
0
TABLE
2
LAYER
70
0
0
LAYER
2
LAYER_NAME
70
0
62
1
6
CONTINUOUS
0
ENDTAB
0
ENDSEC
 0
SECTION
 2
ENTITIES
 0
LINE
 8
TOOL_0
 5
1
 10
161.117
 20
75.064
 30
0
 11
191.117
 21
75.064
 31
0
 0
ARC
 8
TOOL_0
 5
2
 10
153.617
 20
75.064
 30
0
 40
37.5
 50
0
 51
180.0
210
0
220
0
230
1.0
 0
ARC
 8
TOOL_0
 5
3
 10
153.617
 20
75.064
 30
0
 40
37.5
 50
180.0
 51
0
210
0
220
0
230
1.0
 0
LINE
 8
TOOL_0
 5
4
 10
191.117
 20
75.064
 30
0
 11
186.874
 21
79.307
 31
0
 0
LINE
 8
TOOL_0
 5
5
 10
186.874
 20
79.307
 30
0
 11
249.366
 21
24.814
 31
0
 0
LINE
 8
TOOL_0
 5
6
 10
249.366
 20
24.814
 30
0
 11
224.366
 21
24.814
 31
0
 0
LINE
 8
TOOL_0
 5
7
 10
224.366
 20
24.814
 30
0
 11
187.757
 21
24.814
 31
0
 0
ARC
 8
TOOL_0
 5
8
 10
153.438
 20
74.97
 30
0
 40
60.773498311353
 50
235.618303874641
 51
304.381696125359
210
0
220
0
230
1.0
 0
LINE
 8
TOOL_0
 5
9
 10
119.119
 20
24.814
 30
0
 11
92.866
 21
24.814
 31
0
 0
LINE
 8
TOOL_0
 5
A
 10
92.866
 20
24.814
 30
0
 11
92.866
 21
39.988
 31
0
 0
LINE
 8
TOOL_0
 5
B
 10
92.866
 20
39.988
 30
0
 11
14.11
 21
85.106
 31
0
 0
LINE
 8
TOOL_0
 5
C
 10
14.11
 20
85.106
 30
0
 11
49.247
 21
158.295
 31
0
 0
LINE
 8
TOOL_0
 5
D
 10
49.247
 20
158.295
 30
0
 11
53.375
 21
156.313
 31
0
 0
LINE
 8
TOOL_0
 5
E
 10
53.375
 20
156.313
 30
0
 11
84.367
 21
156.313
 31
0
 0
LINE
 8
TOOL_0
 5
F
 10
84.367
 20
156.313
 30
0
 11
84.367
 21
150.313
 31
0
 0
LINE
 8
TOOL_0
 5
10
 10
84.367
 20
150.313
 30
0
 11
224.367
 21
150.313
 31
0
 0
LINE
 8
TOOL_0
 5
11
 10
224.367
 20
150.313
 30
0
 11
224.367
 21
24.813
 31
0
 0
LINE
 8
TOOL_0
 5
12
 10
224.367
 20
24.813
 30
0
 11
224.367
 21
19.813
 31
0
 0
LINE
 8
TOOL_0
 5
13
 10
224.367
 20
19.813
 30
0
 11
161.32
 21
229.226
 31
0
 0
LINE
 8
TOOL_0
 5
14
 10
161.32
 20
229.226
 30
0
 11
191.32
 21
229.226
 31
0
 0
ARC
 8
TOOL_0
 5
15
 10
153.82
 20
229.226
 30
0
 40
37.5
 50
0
 51
180.0
210
0
220
0
230
1.0
 0
ARC
 8
TOOL_0
 5
16
 10
153.82
 20
229.226
 30
0
 40
37.5
 50
180.0
 51
0
210
0
220
0
230
1.0
 0
LINE
 8
TOOL_0
 5
17
 10
191.32
 20
229.226
 30
0
 11
187.077
 21
233.469
 31
0
 0
LINE
 8
TOOL_0
 5
18
 10
187.077
 20
233.469
 30
0
 11
249.569
 21
178.976
 31
0
 0
LINE
 8
TOOL_0
 5
19
 10
249.569
 20
178.976
 30
0
 11
224.569
 21
178.976
 31
0
 0
LINE
 8
TOOL_0
 5
1A
 10
224.569
 20
178.976
 30
0
 11
187.96
 21
178.976
 31
0
 0
ARC
 8
TOOL_0
 5
1B
 10
153.641
 20
229.132
 30
0
 40
60.773498311353
 50
235.618303874641
 51
304.381696125359
210
0
220
0
230
1.0
 0
LINE
 8
TOOL_0
 5
1C
 10
119.322
 20
178.976
 30
0
 11
93.069
 21
178.976
 31
0
 0
LINE
 8
TOOL_0
 5
1D
 10
93.069
 20
178.976
 30
0
 11
93.069
 21
194.15
 31
0
 0
LINE
 8
TOOL_0
 5
1E
 10
93.069
 20
194.15
 30
0
 11
14.313
 21
239.268
 31
0
 0
LINE
 8
TOOL_0
 5
1F
 10
14.313
 20
239.268
 30
0
 11
49.45
 21
312.457
 31
0
 0
LINE
 8
TOOL_0
 5
20
 10
49.45
 20
312.457
 30
0
 11
53.578
 21
310.475
 31
0
 0
LINE
 8
TOOL_0
 5
21
 10
53.578
 20
310.475
 30
0
 11
84.57
 21
310.475
 31
0
 0
LINE
 8
TOOL_0
 5
22
 10
84.57
 20
310.475
 30
0
 11
84.57
 21
304.475
 31
0
 0
LINE
 8
TOOL_0
 5
23
 10
84.57
 20
304.475
 30
0
 11
224.57
 21
304.475
 31
0
 0
LINE
 8
TOOL_0
 5
24
 10
224.57
 20
304.475
 30
0
 11
224.57
 21
178.975
 31
0
 0
LINE
 8
TOOL_0
 5
25
 10
224.57
 20
178.975
 30
0
 11
224.57
 21
173.975
 31
0
 0
LINE
 8
TOOL_0
 5
26
 10
224.57
 20
173.975
 30
0
 11
161.117
 21
383.388
 31
0
 0
LINE
 8
TOOL_0
 5
27
 10
161.117
 20
383.388
 30
0
 11
191.117
 21
383.388
 31
0
 0
ARC
 8
TOOL_0
 5
28
 10
153.617
 20
383.388
 30
0
 40
37.5
 50
0
 51
180.0
210
0
220
0
230
1.0
 0
ARC
 8
TOOL_0
 5
29
 10
153.617
 20
383.388
 30
0
 40
37.5
 50
180.0
 51
0
210
0
220
0
230
1.0
 0
LINE
 8
TOOL_0
 5
2A
 10
191.117
 20
383.388
 30
0
 11
186.874
 21
387.631
 31
0
 0
LINE
 8
TOOL_0
 5
2B
 10
186.874
 20
387.631
 30
0
 11
249.366
 21
333.138
 31
0
 0
LINE
 8
TOOL_0
 5
2C
 10
249.366
 20
333.138
 30
0
 11
224.366
 21
333.138
 31
0
 0
LINE
 8
TOOL_0
 5
2D
 10
224.366
 20
333.138
 30
0
 11
187.757
 21
333.138
 31
0
 0
ARC
 8
TOOL_0
 5
2E
 10
153.438
 20
383.294
 30
0
 40
60.773498311353
 50
235.618303874641
 51
304.381696125359
210
0
220
0
230
1.0
 0
LINE
 8
TOOL_0
 5
2F
 10
119.119
 20
333.138
 30
0
 11
92.866
 21
333.138
 31
0
 0
LINE
 8
TOOL_0
 5
30
 10
92.866
 20
333.138
 30
0
 11
92.866
 21
348.312
 31
0
 0
LINE
 8
TOOL_0
 5
31
 10
92.866
 20
348.312
 30
0
 11
14.11
 21
393.43
 31
0
 0
LINE
 8
TOOL_0
 5
32
 10
14.11
 20
393.43
 30
0
 11
49.247
 21
466.619
 31
0
 0
LINE
 8
TOOL_0
 5
33
 10
49.247
 20
466.619
 30
0
 11
53.375
 21
464.637
 31
0
 0
LINE
 8
TOOL_0
 5
34
 10
53.375
 20
464.637
 30
0
 11
84.367
 21
464.637
 31
0
 0
LINE
 8
TOOL_0
 5
35
 10
84.367
 20
464.637
 30
0
 11
84.367
 21
458.637
 31
0
 0
LINE
 8
TOOL_0
 5
36
 10
84.367
 20
458.637
 30
0
 11
224.367
 21
458.637
 31
0
 0
LINE
 8
TOOL_0
 5
37
 10
224.367
 20
458.637
 30
0
 11
224.367
 21
333.137
 31
0
 0
LINE
 8
TOOL_0
 5
38
 10
224.367
 20
333.137
 30
0
 11
224.367
 21
328.137
 31
0
 0
LINE
 8
TOOL_0
 5
39
 10
224.367
 20
328.137
 30
0
 11
161.117
 21
537.55
 31
0
 0
LINE
 8
TOOL_0
 5
3A
 10
161.117
 20
537.55
 30
0
 11
191.117
 21
537.55
 31
0
 0
ARC
 8
TOOL_0
 5
3B
 10
153.617
 20
537.55
 30
0
 40
37.5
 50
0
 51
180.0
210
0
220
0
230
1.0
 0
ARC
 8
TOOL_0
 5
3C
 10
153.617
 20
537.55
 30
0
 40
37.5
 50
180.0
 51
0
210
0
220
0
230
1.0
 0
LINE
 8
TOOL_0
 5
3D
 10
191.117
 20
537.55
 30
0
 11
186.874
 21
541.793
 31
0
 0
LINE
 8
TOOL_0
 5
3E
 10
186.874
 20
541.793
 30
0
 11
249.366
 21
487.301
 31
0
 0
LINE
 8
TOOL_0
 5
3F
 10
249.366
 20
487.301
 30
0
 11
224.366
 21
487.301
 31
0
 0
LINE
 8
TOOL_0
 5
40
 10
224.366
 20
487.301
 30
0
 11
187.757
 21
487.301
 31
0
 0
ARC
 8
TOOL_0
 5
41
 10
153.438
 20
537.457
 30
0
 40
60.773498311353
 50
235.618303874641
 51
304.381696125359
210
0
220
0
230
1.0
 0
LINE
 8
TOOL_0
 5
42
 10
119.119
 20
487.301
 30
0
 11
92.866
 21
487.301
 31
0
 0
LINE
 8
TOOL_0
 5
43
 10
92.866
 20
487.301
 30
0
 11
92.866
 21
502.475
 31
0
 0
LINE
 8
TOOL_0
 5
44
 10
92.866
 20
502.475
 30
0
 11
14.11
 21
547.593
 31
0
 0
LINE
 8
TOOL_0
 5
45
 10
14.11
 20
547.593
 30
0
 11
49.247
 21
620.782
 31
0
 0
LINE
 8
TOOL_0
 5
46
 10
49.247
 20
620.782
 30
0
 11
53.375
 21
618.8
 31
0
 0
LINE
 8
TOOL_0
 5
47
 10
53.375
 20
618.8
 30
0
 11
84.367
 21
618.8
 31
0
 0
LINE
 8
TOOL_0
 5
48
 10
84.367
 20
618.8
 30
0
 11
84.367
 21
612.8
 31
0
 0
LINE
 8
TOOL_0
 5
49
 10
84.367
 20
612.8
 30
0
 11
224.367
 21
612.8
 31
0
 0
LINE
 8
TOOL_0
 5
4A
 10
224.367
 20
612.8
 30
0
 11
224.367
 21
487.3
 31
0
 0
LINE
 8
TOOL_0
 5
4B
 10
224.367
 20
487.3
 30
0
 11
224.367
 21
482.3
 31
0
 0
LINE
 8
TOOL_0
 5
4C
 10
224.367
 20
482.3
 30
0
 11
161.117
 21
691.713
 31
0
 0
LINE
 8
TOOL_0
 5
4D
 10
161.117
 20
691.713
 30
0
 11
191.117
 21
691.713
 31
0
 0
ARC
 8
TOOL_0
 5
4E
 10
153.617
 20
691.713
 30
0
 40
37.5
 50
0
 51
180.0
210
0
220
0
230
1.0
 0
ARC
 8
TOOL_0
 5
4F
 10
153.617
 20
691.713
 30
0
 40
37.5
 50
180.0
 51
0
210
0
220
0
230
1.0
 0
LINE
 8
TOOL_0
 5
50
 10
191.117
 20
691.713
 30
0
 11
186.874
 21
695.956
 31
0
 0
LINE
 8
TOOL_0
 5
51
 10
186.874
 20
695.956
 30
0
 11
249.366
 21
641.464
 31
0
 0
LINE
 8
TOOL_0
 5
52
 10
249.366
 20
641.464
 30
0
 11
224.366
 21
641.464
 31
0
 0
LINE
 8
TOOL_0
 5
53
 10
224.366
 20
641.464
 30
0
 11
187.757
 21
641.464
 31
0
 0
ARC
 8
TOOL_0
 5
54
 10
153.438
 20
691.62
 30
0
 40
60.773498311353
 50
235.618303874641
 51
304.381696125359
210
0
220
0
230
1.0
 0
LINE
 8
TOOL_0
 5
55
 10
119.119
 20
641.464
 30
0
 11
92.866
 21
641.464
 31
0
 0
LINE
 8
TOOL_0
 5
56
 10
92.866
 20
641.464
 30
0
 11
92.866
 21
656.638
 31
0
 0
LINE
 8
TOOL_0
 5
57
 10
92.866
 20
656.638
 30
0
 11
14.11
 21
701.756
 31
0
 0
LINE
 8
TOOL_0
 5
58
 10
14.11
 20
701.756
 30
0
 11
49.247
 21
774.945
 31
0
 0
LINE
 8
TOOL_0
 5
59
 10
49.247
 20
774.945
 30
0
 11
53.375
 21
772.963
 31
0
 0
LINE
 8
TOOL_0
 5
5A
 10
53.375
 20
772.963
 30
0
 11
84.367
 21
772.963
 31
0
 0
LINE
 8
TOOL_0
 5
5B
 10
84.367
 20
772.963
 30
0
 11
84.367
 21
766.963
 31
0
 0
LINE
 8
TOOL_0
 5
5C
 10
84.367
 20
766.963
 30
0
 11
224.367
 21
766.963
 31
0
 0
LINE
 8
TOOL_0
 5
5D
 10
224.367
 20
766.963
 30
0
 11
224.367
 21
641.463
 31
0
 0
LINE
 8
TOOL_0
 5
5E
 10
224.367
 20
641.463
 30
0
 11
224.367
 21
636.463
 31
0
 0
LINE
 8
TOOL_0
 5
5F
 10
224.367
 20
636.463
 30
0
 11
161.726
 21
845.875
 31
0
 0
LINE
 8
TOOL_0
 5
60
 10
161.726
 20
845.875
 30
0
 11
191.726
 21
845.875
 31
0
 0
ARC
 8
TOOL_0
 5
61
 10
154.226
 20
845.875
 30
0
 40
37.5
 50
0
 51
180.0
210
0
220
0
230
1.0
 0
ARC
 8
TOOL_0
 5
62
 10
154.226
 20
845.875
 30
0
 40
37.5
 50
180.0
 51
0
210
0
220
0
230
1.0
 0
LINE
 8
TOOL_0
 5
63
 10
191.726
 20
845.875
 30
0
 11
187.483
 21
850.118
 31
0
 0
LINE
 8
TOOL_0
 5
64
 10
187.483
 20
850.118
 30
0
 11
249.975
 21
795.625
 31
0
 0
LINE
 8
TOOL_0
 5
65
 10
249.975
 20
795.625
 30
0
 11
224.975
 21
795.625
 31
0
 0
LINE
 8
TOOL_0
 5
66
 10
224.975
 20
795.625
 30
0
 11
188.366
 21
795.625
 31
0
 0
ARC
 8
TOOL_0
 5
67
 10
154.047
 20
845.781
 30
0
 40
60.773498311353
 50
235.618303874641
 51
304.381696125359
210
0
220
0
230
1.0
 0
LINE
 8
TOOL_0
 5
68
 10
119.728
 20
795.625
 30
0
 11
93.475
 21
795.625
 31
0
 0
LINE
 8
TOOL_0
 5
69
 10
93.475
 20
795.625
 30
0
 11
93.475
 21
810.799
 31
0
 0
LINE
 8
TOOL_0
 5
6A
 10
93.475
 20
810.799
 30
0
 11
14.719
 21
855.917
 31
0
 0
LINE
 8
TOOL_0
 5
6B
 10
14.719
 20
855.917
 30
0
 11
49.856
 21
929.106
 31
0
 0
LINE
 8
TOOL_0
 5
6C
 10
49.856
 20
929.106
 30
0
 11
53.984
 21
927.124
 31
0
 0
LINE
 8
TOOL_0
 5
6D
 10
53.984
 20
927.124
 30
0
 11
84.976
 21
927.124
 31
0
 0
LINE
 8
TOOL_0
 5
6E
 10
84.976
 20
927.124
 30
0
 11
84.976
 21
921.124
 31
0
 0
LINE
 8
TOOL_0
 5
6F
 10
84.976
 20
921.124
 30
0
 11
224.976
 21
921.124
 31
0
 0
LINE
 8
TOOL_0
 5
70
 10
224.976
 20
921.124
 30
0
 11
224.976
 21
795.624
 31
0
 0
LINE
 8
TOOL_0
 5
71
 10
224.976
 20
795.624
 30
0
 11
224.976
 21
790.624
 31
0
 0
LINE
 8
TOOL_0
 5
72
 10
224.976
 20
790.624
 30
0
 11
270.894
 21
-0.004
 31
0
 0
LINE
 8
TOOL_0
 5
73
 10
270.894
 20
-0.004
 30
0
 11
270.894
 21
0.996
 31
0
 0
LINE
 8
TOOL_0
 5
74
 10
270.894
 20
0.996
 30
0
 11
270.894
 21
-0.004
 31
0
 0
LINE
 8
TOOL_0
 5
75
 10
270.894
 20
-0.004
 30
0
 11
270.894
 21
0.996
 31
0
 0
LINE
 8
TOOL_0
 5
76
 10
270.894
 20
0.996
 30
0
 11
270.894
 21
1111.322
 31
0
 0
LINE
 8
TOOL_0
 5
77
 10
270.894
 20
1111.322
 30
0
 11
270.894
 21
1112.322
 31
0
 0
ENDSEC
 0
EOF

