0
SECTION
2
TABLES
0
TABLE
2
LAYER
70
0
0
LAYER
2
LAYER_NAME
70
0
62
1
6
CONTINUOUS
0
ENDTAB
0
ENDSEC
 0
SECTION
 2
ENTITIES
 0
LINE
 8
TOOL_0
 5
1
 10
458.891
 20
812.765
 30
0
 11
426.652
 21
799.141
 31
0
 0
LINE
 8
TOOL_0
 5
2
 10
426.652
 20
799.141
 30
0
 11
423.651
 21
799.178
 31
0
 0
ARC
 8
TOOL_0
 5
3
 10
415.895
 20
805.527
 30
0
 40
10.023239845479
 50
270.091462804901
 51
320.696516242418
210
0
220
0
230
1.0
 0
LINE
 8
TOOL_0
 5
4
 10
415.911
 20
795.504
 30
0
 11
328.734
 21
795.504
 31
0
 0
ARC
 8
TOOL_0
 5
5
 10
328.734
 20
776.304
 30
0
 40
19.2
 50
90.0
 51
148.07970508667
210
0
220
0
230
1.0
 0
ARC
 8
TOOL_0
 5
6
 10
293.081
 20
798.528
 30
0
 40
22.812012624931
 50
239.849505978008
 51
328.048928599655
210
0
220
0
230
1.0
 0
ARC
 8
TOOL_0
 5
7
 10
246.835
 20
718.982
 30
0
 40
69.199980809246
 50
59.820087804485
 51
90.0
210
0
220
0
230
1.0
 0
LINE
 8
TOOL_0
 5
8
 10
246.835
 20
788.182
 30
0
 11
219.335
 21
788.182
 31
0
 0
ARC
 8
TOOL_0
 5
9
 10
219.335
 20
718.982
 30
0
 40
69.2
 50
90.0
 51
120.179912195515
210
0
220
0
230
1.0
 0
ARC
 8
TOOL_0
 5
A
 10
173.089
 20
798.528
 30
0
 40
22.812295807305
 50
211.951071400345
 51
300.150494021992
210
0
220
0
230
1.0
 0
ARC
 8
TOOL_0
 5
B
 10
137.436
 20
776.304
 30
0
 40
19.200398771901
 50
31.92029491333
 51
90.0
210
0
220
0
230
1.0
 0
LINE
 8
TOOL_0
 5
C
 10
137.436
 20
795.504
 30
0
 11
50.259
 21
795.504
 31
0
 0
ARC
 8
TOOL_0
 5
D
 10
50.275
 20
805.528
 30
0
 40
10.024012769345
 50
202.09223773308
 51
269.908546319466
210
0
220
0
230
1.0
 0
LINE
 8
TOOL_0
 5
E
 10
40.987
 20
801.758
 30
0
 11
19.744
 21
854.337
 31
0
 0
ARC
 8
TOOL_0
 5
F
 10
11.585
 20
851.04
 30
0
 40
8.79997102268
 50
22.003320384869
 51
75.523198505332
210
0
220
0
230
1.0
 0
ARC
 8
TOOL_0
 5
10
 10
16.085
 20
868.469
 30
0
 40
9.200133912069
 50
180.0
 51
255.52270314299
210
0
220
0
230
1.0
 0
LINE
 8
TOOL_0
 5
11
 10
6.885
 20
868.469
 30
0
 11
6.885
 21
948.104
 31
0
 0
ARC
 8
TOOL_0
 5
12
 10
16.885
 20
948.104
 30
0
 40
10.0
 50
90.0
 51
180.0
210
0
220
0
230
1.0
 0
LINE
 8
TOOL_0
 5
13
 10
16.885
 20
958.104
 30
0
 11
79.39
 21
958.104
 31
0
 0
ARC
 8
TOOL_0
 5
14
 10
79.39
 20
947.304
 30
0
 40
10.8
 50
48.460740534169
 51
90.0
210
0
220
0
230
1.0
 0
ARC
 8
TOOL_0
 5
15
 10
21.947
 20
886.281
 30
0
 40
94.602238208195
 50
43.466652314864
 51
46.928384843842
210
0
220
0
230
1.0
 0
LINE
 8
TOOL_0
 5
16
 10
90.607
 20
951.361
 30
0
 11
91.209
 21
950.783
 31
0
 0
ARC
 8
TOOL_0
 5
17
 10
98.436
 20
956.685
 30
0
 40
9.330762723379
 50
219.237129311716
 51
272.7397465832
210
0
220
0
230
1.0
 0
LINE
 8
TOOL_0
 5
18
 10
98.882
 20
947.365
 30
0
 11
136.179
 21
949.32
 31
0
 0
ARC
 8
TOOL_0
 5
19
 10
134.912
 20
973.487
 30
0
 40
24.200189627356
 50
273.001090424869
 51
320.000123438967
210
0
220
0
230
1.0
 0
LINE
 8
TOOL_0
 5
1A
 10
153.451
 20
957.931
 30
0
 11
163.422
 21
969.814
 31
0
 0
ARC
 8
TOOL_0
 5
1B
 10
217.68
 20
924.257
 30
0
 40
70.847518044036
 50
90.017791710546
 51
139.981952152145
210
0
220
0
230
1.0
 0
LINE
 8
TOOL_0
 5
1C
 10
217.658
 20
995.105
 30
0
 11
248.514
 21
995.105
 31
0
 0
ARC
 8
TOOL_0
 5
1D
 10
248.514
 20
924.305
 30
0
 40
70.8
 50
41.351276536947
 51
90.0
210
0
220
0
230
1.0
 0
ARC
 8
TOOL_0
 5
1E
 10
-250.295
 20
495.63
 30
0
 40
728.498581501708
 50
39.389999123718
 51
40.741326157114
210
0
220
0
230
1.0
 0
ARC
 8
TOOL_0
 5
1F
 10
331.259
 20
973.487
 30
0
 40
24.199493155849
 50
219.999584725571
 51
266.998785615683
210
0
220
0
230
1.0
 0
LINE
 8
TOOL_0
 5
20
 10
329.992
 20
949.321
 30
0
 11
367.289
 21
947.366
 31
0
 0
ARC
 8
TOOL_0
 5
21
 10
367.77
 20
956.553
 30
0
 40
9.19958314273
 50
267.002924856545
 51
303.800613645745
210
0
220
0
230
1.0
 0
ARC
 8
TOOL_0
 5
22
 10
359.844
 20
965.845
 30
0
 40
21.377743215784
 50
307.601601307168
 51
317.47588751029
210
0
220
0
230
1.0
 0
LINE
 8
TOOL_0
 5
23
 10
375.599
 20
951.396
 30
0
 11
379.143
 21
954.942
 31
0
 0
ARC
 8
TOOL_0
 5
24
 10
386.805
 20
947.245
 30
0
 40
10.860481250847
 50
90.131896128692
 51
134.869434936404
210
0
220
0
230
1.0
 0
LINE
 8
TOOL_0
 5
25
 10
386.78
 20
958.105
 30
0
 11
449.285
 21
958.105
 31
0
 0
ARC
 8
TOOL_0
 5
26
 10
449.285
 20
948.105
 30
0
 40
10.0
 50
0
 51
90.0
210
0
220
0
230
1.0
 0
LINE
 8
TOOL_0
 5
27
 10
459.285
 20
948.105
 30
0
 11
459.285
 21
868.47
 31
0
 0
ARC
 8
TOOL_0
 5
28
 10
450.085
 20
868.47
 30
0
 40
9.2
 50
284.47729685701
 51
0
210
0
220
0
230
1.0
 0
ARC
 8
TOOL_0
 5
29
 10
454.585
 20
851.041
 30
0
 40
8.800422773935
 50
104.476801494668
 51
157.996679615132
210
0
220
0
230
1.0
 0
LINE
 8
TOOL_0
 5
2A
 10
446.426
 20
854.338
 30
0
 11
425.183
 21
801.759
 31
0
 0
LINE
 8
TOOL_0
 5
2B
 10
425.183
 20
801.759
 30
0
 11
426.653
 21
799.142
 31
0
 0
LINE
 8
TOOL_0
 5
2C
 10
426.653
 20
799.142
 30
0
 11
428.599
 21
794.536
 31
0
 0
LINE
 8
TOOL_0
 5
2D
 10
428.599
 20
794.536
 30
0
 11
932.152
 21
813.334
 31
0
 0
LINE
 8
TOOL_0
 5
2E
 10
932.152
 20
813.334
 30
0
 11
899.912
 21
799.71
 31
0
 0
LINE
 8
TOOL_0
 5
2F
 10
899.912
 20
799.71
 30
0
 11
896.911
 21
799.747
 31
0
 0
ARC
 8
TOOL_0
 5
30
 10
889.155
 20
806.096
 30
0
 40
10.023239845479
 50
270.091462804901
 51
320.696516242418
210
0
220
0
230
1.0
 0
LINE
 8
TOOL_0
 5
31
 10
889.171
 20
796.073
 30
0
 11
801.994
 21
796.073
 31
0
 0
ARC
 8
TOOL_0
 5
32
 10
801.994
 20
776.873
 30
0
 40
19.2
 50
90.0
 51
148.07970508667
210
0
220
0
230
1.0
 0
ARC
 8
TOOL_0
 5
33
 10
766.341
 20
799.097
 30
0
 40
22.812012624931
 50
239.849505978008
 51
328.048928599655
210
0
220
0
230
1.0
 0
ARC
 8
TOOL_0
 5
34
 10
720.095
 20
719.551
 30
0
 40
69.199980809246
 50
59.820087804485
 51
90.0
210
0
220
0
230
1.0
 0
LINE
 8
TOOL_0
 5
35
 10
720.095
 20
788.751
 30
0
 11
692.595
 21
788.751
 31
0
 0
ARC
 8
TOOL_0
 5
36
 10
692.595
 20
719.551
 30
0
 40
69.2
 50
90.0
 51
120.179912195515
210
0
220
0
230
1.0
 0
ARC
 8
TOOL_0
 5
37
 10
646.349
 20
799.097
 30
0
 40
22.812295807305
 50
211.951071400345
 51
300.150494021992
210
0
220
0
230
1.0
 0
ARC
 8
TOOL_0
 5
38
 10
610.696
 20
776.873
 30
0
 40
19.200398771901
 50
31.92029491333
 51
90.0
210
0
220
0
230
1.0
 0
LINE
 8
TOOL_0
 5
39
 10
610.696
 20
796.073
 30
0
 11
523.519
 21
796.073
 31
0
 0
ARC
 8
TOOL_0
 5
3A
 10
523.535
 20
806.097
 30
0
 40
10.024012769345
 50
202.09223773308
 51
269.908546319466
210
0
220
0
230
1.0
 0
LINE
 8
TOOL_0
 5
3B
 10
514.247
 20
802.327
 30
0
 11
493.004
 21
854.906
 31
0
 0
ARC
 8
TOOL_0
 5
3C
 10
484.845
 20
851.609
 30
0
 40
8.79997102268
 50
22.003320384869
 51
75.523198505332
210
0
220
0
230
1.0
 0
ARC
 8
TOOL_0
 5
3D
 10
489.345
 20
869.038
 30
0
 40
9.200133912069
 50
180.0
 51
255.52270314299
210
0
220
0
230
1.0
 0
LINE
 8
TOOL_0
 5
3E
 10
480.145
 20
869.038
 30
0
 11
480.145
 21
948.673
 31
0
 0
ARC
 8
TOOL_0
 5
3F
 10
490.145
 20
948.673
 30
0
 40
10.0
 50
90.0
 51
180.0
210
0
220
0
230
1.0
 0
LINE
 8
TOOL_0
 5
40
 10
490.145
 20
958.673
 30
0
 11
552.65
 21
958.673
 31
0
 0
ARC
 8
TOOL_0
 5
41
 10
552.65
 20
947.873
 30
0
 40
10.8
 50
48.460740534169
 51
90.0
210
0
220
0
230
1.0
 0
ARC
 8
TOOL_0
 5
42
 10
495.207
 20
886.85
 30
0
 40
94.602238208195
 50
43.466652314864
 51
46.928384843842
210
0
220
0
230
1.0
 0
LINE
 8
TOOL_0
 5
43
 10
563.867
 20
951.93
 30
0
 11
564.469
 21
951.352
 31
0
 0
ARC
 8
TOOL_0
 5
44
 10
571.696
 20
957.254
 30
0
 40
9.330762723379
 50
219.237129311716
 51
272.7397465832
210
0
220
0
230
1.0
 0
LINE
 8
TOOL_0
 5
45
 10
572.142
 20
947.934
 30
0
 11
609.439
 21
949.889
 31
0
 0
ARC
 8
TOOL_0
 5
46
 10
608.172
 20
974.056
 30
0
 40
24.200189627356
 50
273.001090424869
 51
320.000123438967
210
0
220
0
230
1.0
 0
LINE
 8
TOOL_0
 5
47
 10
626.711
 20
958.5
 30
0
 11
636.682
 21
970.383
 31
0
 0
ARC
 8
TOOL_0
 5
48
 10
690.94
 20
924.826
 30
0
 40
70.847518044036
 50
90.017791710546
 51
139.981952152145
210
0
220
0
230
1.0
 0
LINE
 8
TOOL_0
 5
49
 10
690.918
 20
995.674
 30
0
 11
721.774
 21
995.674
 31
0
 0
ARC
 8
TOOL_0
 5
4A
 10
721.774
 20
924.874
 30
0
 40
70.8
 50
41.351276536947
 51
90.0
210
0
220
0
230
1.0
 0
ARC
 8
TOOL_0
 5
4B
 10
222.965
 20
496.199
 30
0
 40
728.498581501708
 50
39.389999123718
 51
40.741326157114
210
0
220
0
230
1.0
 0
ARC
 8
TOOL_0
 5
4C
 10
804.519
 20
974.056
 30
0
 40
24.199493155849
 50
219.999584725571
 51
266.998785615683
210
0
220
0
230
1.0
 0
LINE
 8
TOOL_0
 5
4D
 10
803.252
 20
949.89
 30
0
 11
840.549
 21
947.935
 31
0
 0
ARC
 8
TOOL_0
 5
4E
 10
841.03
 20
957.122
 30
0
 40
9.19958314273
 50
267.002924856545
 51
303.800613645745
210
0
220
0
230
1.0
 0
ARC
 8
TOOL_0
 5
4F
 10
833.104
 20
966.414
 30
0
 40
21.377743215784
 50
307.601601307168
 51
317.47588751029
210
0
220
0
230
1.0
 0
LINE
 8
TOOL_0
 5
50
 10
848.859
 20
951.965
 30
0
 11
852.403
 21
955.511
 31
0
 0
ARC
 8
TOOL_0
 5
51
 10
860.065
 20
947.814
 30
0
 40
10.860481250847
 50
90.131896128692
 51
134.869434936404
210
0
220
0
230
1.0
 0
LINE
 8
TOOL_0
 5
52
 10
860.04
 20
958.674
 30
0
 11
922.545
 21
958.674
 31
0
 0
ARC
 8
TOOL_0
 5
53
 10
922.545
 20
948.674
 30
0
 40
10.0
 50
0
 51
90.0
210
0
220
0
230
1.0
 0
LINE
 8
TOOL_0
 5
54
 10
932.545
 20
948.674
 30
0
 11
932.545
 21
869.039
 31
0
 0
ARC
 8
TOOL_0
 5
55
 10
923.345
 20
869.039
 30
0
 40
9.2
 50
284.47729685701
 51
0
210
0
220
0
230
1.0
 0
ARC
 8
TOOL_0
 5
56
 10
927.845
 20
851.61
 30
0
 40
8.800422773935
 50
104.476801494668
 51
157.996679615132
210
0
220
0
230
1.0
 0
LINE
 8
TOOL_0
 5
57
 10
919.686
 20
854.907
 30
0
 11
898.443
 21
802.328
 31
0
 0
LINE
 8
TOOL_0
 5
58
 10
898.443
 20
802.328
 30
0
 11
899.913
 21
799.711
 31
0
 0
LINE
 8
TOOL_0
 5
59
 10
899.913
 20
799.711
 30
0
 11
901.859
 21
795.105
 31
0
 0
LINE
 8
TOOL_0
 5
5A
 10
901.859
 20
795.105
 30
0
 11
1524.576
 21
44.125
 31
0
 0
LINE
 8
TOOL_0
 5
5B
 10
1524.576
 20
44.125
 30
0
 11
1492.336
 21
30.501
 31
0
 0
LINE
 8
TOOL_0
 5
5C
 10
1492.336
 20
30.501
 30
0
 11
1489.335
 21
30.538
 31
0
 0
ARC
 8
TOOL_0
 5
5D
 10
1481.579
 20
36.887
 30
0
 40
10.023239845479
 50
270.091462804901
 51
320.696516242419
210
0
220
0
230
1.0
 0
LINE
 8
TOOL_0
 5
5E
 10
1481.595
 20
26.864
 30
0
 11
1394.418
 21
26.864
 31
0
 0
ARC
 8
TOOL_0
 5
5F
 10
1394.418
 20
7.664
 30
0
 40
19.2
 50
90.0
 51
148.07970508667
210
0
220
0
230
1.0
 0
ARC
 8
TOOL_0
 5
60
 10
1358.765
 20
29.888
 30
0
 40
22.812012624931
 50
239.849505978008
 51
328.048928599655
210
0
220
0
230
1.0
 0
ARC
 8
TOOL_0
 5
61
 10
1312.519
 20
-49.658
 30
0
 40
69.199980809246
 50
59.820087804485
 51
90.0
210
0
220
0
230
1.0
 0
LINE
 8
TOOL_0
 5
62
 10
1312.519
 20
19.542
 30
0
 11
1285.019
 21
19.542
 31
0
 0
ARC
 8
TOOL_0
 5
63
 10
1285.019
 20
-49.658
 30
0
 40
69.2
 50
90.0
 51
120.179912195515
210
0
220
0
230
1.0
 0
ARC
 8
TOOL_0
 5
64
 10
1238.773
 20
29.888
 30
0
 40
22.812295807305
 50
211.951071400345
 51
300.150494021992
210
0
220
0
230
1.0
 0
ARC
 8
TOOL_0
 5
65
 10
1203.12
 20
7.664
 30
0
 40
19.200398771901
 50
31.92029491333
 51
90.0
210
0
220
0
230
1.0
 0
LINE
 8
TOOL_0
 5
66
 10
1203.12
 20
26.864
 30
0
 11
1115.943
 21
26.864
 31
0
 0
ARC
 8
TOOL_0
 5
67
 10
1115.959
 20
36.888
 30
0
 40
10.024012769345
 50
202.092237733081
 51
269.908546319465
210
0
220
0
230
1.0
 0
LINE
 8
TOOL_0
 5
68
 10
1106.671
 20
33.118
 30
0
 11
1085.428
 21
85.697
 31
0
 0
ARC
 8
TOOL_0
 5
69
 10
1077.269
 20
82.4
 30
0
 40
8.79997102268
 50
22.003320384868
 51
75.523198505332
210
0
220
0
230
1.0
 0
ARC
 8
TOOL_0
 5
6A
 10
1081.769
 20
99.829
 30
0
 40
9.200133912069
 50
180.0
 51
255.522703142991
210
0
220
0
230
1.0
 0
LINE
 8
TOOL_0
 5
6B
 10
1072.569
 20
99.829
 30
0
 11
1072.569
 21
179.464
 31
0
 0
ARC
 8
TOOL_0
 5
6C
 10
1082.569
 20
179.464
 30
0
 40
10.0
 50
90.0
 51
180.0
210
0
220
0
230
1.0
 0
LINE
 8
TOOL_0
 5
6D
 10
1082.569
 20
189.464
 30
0
 11
1145.074
 21
189.464
 31
0
 0
ARC
 8
TOOL_0
 5
6E
 10
1145.074
 20
178.664
 30
0
 40
10.8
 50
48.460740534169
 51
90.0
210
0
220
0
230
1.0
 0
ARC
 8
TOOL_0
 5
6F
 10
1087.631
 20
117.641
 30
0
 40
94.602238208195
 50
43.466652314864
 51
46.928384843842
210
0
220
0
230
1.0
 0
LINE
 8
TOOL_0
 5
70
 10
1156.291
 20
182.721
 30
0
 11
1156.893
 21
182.143
 31
0
 0
ARC
 8
TOOL_0
 5
71
 10
1164.12
 20
188.045
 30
0
 40
9.330762723379
 50
219.237129311716
 51
272.739746583199
210
0
220
0
230
1.0
 0
LINE
 8
TOOL_0
 5
72
 10
1164.566
 20
178.725
 30
0
 11
1201.863
 21
180.68
 31
0
 0
ARC
 8
TOOL_0
 5
73
 10
1200.596
 20
204.847
 30
0
 40
24.200189627356
 50
273.001090424869
 51
320.000123438967
210
0
220
0
230
1.0
 0
LINE
 8
TOOL_0
 5
74
 10
1219.135
 20
189.291
 30
0
 11
1229.106
 21
201.174
 31
0
 0
ARC
 8
TOOL_0
 5
75
 10
1283.364
 20
155.617
 30
0
 40
70.847518044036
 50
90.017791710546
 51
139.981952152145
210
0
220
0
230
1.0
 0
LINE
 8
TOOL_0
 5
76
 10
1283.342
 20
226.465
 30
0
 11
1314.198
 21
226.465
 31
0
 0
ARC
 8
TOOL_0
 5
77
 10
1314.198
 20
155.665
 30
0
 40
70.8
 50
41.351276536947
 51
90.0
210
0
220
0
230
1.0
 0
ARC
 8
TOOL_0
 5
78
 10
815.389
 20
-273.01
 30
0
 40
728.498581501708
 50
39.389999123718
 51
40.741326157114
210
0
220
0
230
1.0
 0
ARC
 8
TOOL_0
 5
79
 10
1396.943
 20
204.847
 30
0
 40
24.199493155849
 50
219.999584725572
 51
266.998785615683
210
0
220
0
230
1.0
 0
LINE
 8
TOOL_0
 5
7A
 10
1395.676
 20
180.681
 30
0
 11
1432.973
 21
178.726
 31
0
 0
ARC
 8
TOOL_0
 5
7B
 10
1433.454
 20
187.913
 30
0
 40
9.19958314273
 50
267.002924856545
 51
303.800613645744
210
0
220
0
230
1.0
 0
ARC
 8
TOOL_0
 5
7C
 10
1425.528
 20
197.205
 30
0
 40
21.377743215784
 50
307.601601307169
 51
317.47588751029
210
0
220
0
230
1.0
 0
LINE
 8
TOOL_0
 5
7D
 10
1441.283
 20
182.756
 30
0
 11
1444.827
 21
186.302
 31
0
 0
ARC
 8
TOOL_0
 5
7E
 10
1452.489
 20
178.605
 30
0
 40
10.860481250847
 50
90.131896128692
 51
134.869434936404
210
0
220
0
230
1.0
 0
LINE
 8
TOOL_0
 5
7F
 10
1452.464
 20
189.465
 30
0
 11
1514.969
 21
189.465
 31
0
 0
ARC
 8
TOOL_0
 5
80
 10
1514.969
 20
179.465
 30
0
 40
10.0
 50
0
 51
90.0
210
0
220
0
230
1.0
 0
LINE
 8
TOOL_0
 5
81
 10
1524.969
 20
179.465
 30
0
 11
1524.969
 21
99.83
 31
0
 0
ARC
 8
TOOL_0
 5
82
 10
1515.769
 20
99.83
 30
0
 40
9.2
 50
284.477296857009
 51
0
210
0
220
0
230
1.0
 0
ARC
 8
TOOL_0
 5
83
 10
1520.269
 20
82.401
 30
0
 40
8.800422773935
 50
104.476801494668
 51
157.996679615131
210
0
220
0
230
1.0
 0
LINE
 8
TOOL_0
 5
84
 10
1512.11
 20
85.698
 30
0
 11
1490.867
 21
33.119
 31
0
 0
LINE
 8
TOOL_0
 5
85
 10
1490.867
 20
33.119
 30
0
 11
1492.337
 21
30.502
 31
0
 0
LINE
 8
TOOL_0
 5
86
 10
1492.337
 20
30.502
 30
0
 11
1494.283
 21
25.896
 31
0
 0
LINE
 8
TOOL_0
 5
87
 10
1494.283
 20
25.896
 30
0
 11
1997.835
 21
44.126
 31
0
 0
LINE
 8
TOOL_0
 5
88
 10
1997.835
 20
44.126
 30
0
 11
1965.596
 21
30.502
 31
0
 0
LINE
 8
TOOL_0
 5
89
 10
1965.596
 20
30.502
 30
0
 11
1962.595
 21
30.539
 31
0
 0
ARC
 8
TOOL_0
 5
8A
 10
1954.839
 20
36.888
 30
0
 40
10.023239845479
 50
270.091462804901
 51
320.696516242419
210
0
220
0
230
1.0
 0
LINE
 8
TOOL_0
 5
8B
 10
1954.855
 20
26.865
 30
0
 11
1867.678
 21
26.865
 31
0
 0
ARC
 8
TOOL_0
 5
8C
 10
1867.678
 20
7.665
 30
0
 40
19.2
 50
90.0
 51
148.07970508667
210
0
220
0
230
1.0
 0
ARC
 8
TOOL_0
 5
8D
 10
1832.025
 20
29.889
 30
0
 40
22.812012624931
 50
239.849505978008
 51
328.048928599655
210
0
220
0
230
1.0
 0
ARC
 8
TOOL_0
 5
8E
 10
1785.779
 20
-49.657
 30
0
 40
69.199980809246
 50
59.820087804485
 51
90.0
210
0
220
0
230
1.0
 0
LINE
 8
TOOL_0
 5
8F
 10
1785.779
 20
19.543
 30
0
 11
1758.279
 21
19.543
 31
0
 0
ARC
 8
TOOL_0
 5
90
 10
1758.279
 20
-49.657
 30
0
 40
69.2
 50
90.0
 51
120.179912195515
210
0
220
0
230
1.0
 0
ARC
 8
TOOL_0
 5
91
 10
1712.033
 20
29.889
 30
0
 40
22.812295807305
 50
211.951071400345
 51
300.150494021992
210
0
220
0
230
1.0
 0
ARC
 8
TOOL_0
 5
92
 10
1676.38
 20
7.665
 30
0
 40
19.200398771901
 50
31.92029491333
 51
90.0
210
0
220
0
230
1.0
 0
LINE
 8
TOOL_0
 5
93
 10
1676.38
 20
26.865
 30
0
 11
1589.203
 21
26.865
 31
0
 0
ARC
 8
TOOL_0
 5
94
 10
1589.219
 20
36.889
 30
0
 40
10.024012769345
 50
202.092237733081
 51
269.908546319465
210
0
220
0
230
1.0
 0
LINE
 8
TOOL_0
 5
95
 10
1579.931
 20
33.119
 30
0
 11
1558.688
 21
85.698
 31
0
 0
ARC
 8
TOOL_0
 5
96
 10
1550.529
 20
82.401
 30
0
 40
8.79997102268
 50
22.003320384868
 51
75.523198505332
210
0
220
0
230
1.0
 0
ARC
 8
TOOL_0
 5
97
 10
1555.029
 20
99.83
 30
0
 40
9.200133912069
 50
180.0
 51
255.522703142991
210
0
220
0
230
1.0
 0
LINE
 8
TOOL_0
 5
98
 10
1545.829
 20
99.83
 30
0
 11
1545.829
 21
179.465
 31
0
 0
ARC
 8
TOOL_0
 5
99
 10
1555.829
 20
179.465
 30
0
 40
10.0
 50
90.0
 51
180.0
210
0
220
0
230
1.0
 0
LINE
 8
TOOL_0
 5
9A
 10
1555.829
 20
189.465
 30
0
 11
1618.334
 21
189.465
 31
0
 0
ARC
 8
TOOL_0
 5
9B
 10
1618.334
 20
178.665
 30
0
 40
10.8
 50
48.460740534169
 51
90.0
210
0
220
0
230
1.0
 0
ARC
 8
TOOL_0
 5
9C
 10
1560.891
 20
117.642
 30
0
 40
94.602238208195
 50
43.466652314864
 51
46.928384843842
210
0
220
0
230
1.0
 0
LINE
 8
TOOL_0
 5
9D
 10
1629.551
 20
182.722
 30
0
 11
1630.153
 21
182.144
 31
0
 0
ARC
 8
TOOL_0
 5
9E
 10
1637.38
 20
188.046
 30
0
 40
9.330762723379
 50
219.237129311716
 51
272.739746583199
210
0
220
0
230
1.0
 0
LINE
 8
TOOL_0
 5
9F
 10
1637.826
 20
178.726
 30
0
 11
1675.123
 21
180.681
 31
0
 0
ARC
 8
TOOL_0
 5
A0
 10
1673.856
 20
204.848
 30
0
 40
24.200189627356
 50
273.001090424869
 51
320.000123438967
210
0
220
0
230
1.0
 0
LINE
 8
TOOL_0
 5
A1
 10
1692.395
 20
189.292
 30
0
 11
1702.366
 21
201.175
 31
0
 0
ARC
 8
TOOL_0
 5
A2
 10
1756.624
 20
155.618
 30
0
 40
70.847518044036
 50
90.017791710546
 51
139.981952152145
210
0
220
0
230
1.0
 0
LINE
 8
TOOL_0
 5
A3
 10
1756.602
 20
226.466
 30
0
 11
1787.458
 21
226.466
 31
0
 0
ARC
 8
TOOL_0
 5
A4
 10
1787.458
 20
155.666
 30
0
 40
70.8
 50
41.351276536947
 51
90.0
210
0
220
0
230
1.0
 0
ARC
 8
TOOL_0
 5
A5
 10
1288.649
 20
-273.009
 30
0
 40
728.498581501707
 50
39.389999123718
 51
40.741326157114
210
0
220
0
230
1.0
 0
ARC
 8
TOOL_0
 5
A6
 10
1870.203
 20
204.848
 30
0
 40
24.199493155849
 50
219.999584725572
 51
266.998785615683
210
0
220
0
230
1.0
 0
LINE
 8
TOOL_0
 5
A7
 10
1868.936
 20
180.682
 30
0
 11
1906.233
 21
178.727
 31
0
 0
ARC
 8
TOOL_0
 5
A8
 10
1906.714
 20
187.914
 30
0
 40
9.19958314273
 50
267.002924856545
 51
303.800613645744
210
0
220
0
230
1.0
 0
ARC
 8
TOOL_0
 5
A9
 10
1898.788
 20
197.206
 30
0
 40
21.377743215784
 50
307.601601307169
 51
317.47588751029
210
0
220
0
230
1.0
 0
LINE
 8
TOOL_0
 5
AA
 10
1914.543
 20
182.757
 30
0
 11
1918.087
 21
186.303
 31
0
 0
ARC
 8
TOOL_0
 5
AB
 10
1925.749
 20
178.606
 30
0
 40
10.860481250847
 50
90.131896128692
 51
134.869434936404
210
0
220
0
230
1.0
 0
LINE
 8
TOOL_0
 5
AC
 10
1925.724
 20
189.466
 30
0
 11
1988.229
 21
189.466
 31
0
 0
ARC
 8
TOOL_0
 5
AD
 10
1988.229
 20
179.466
 30
0
 40
10.0
 50
0
 51
90.0
210
0
220
0
230
1.0
 0
LINE
 8
TOOL_0
 5
AE
 10
1998.229
 20
179.466
 30
0
 11
1998.229
 21
99.831
 31
0
 0
ARC
 8
TOOL_0
 5
AF
 10
1989.029
 20
99.831
 30
0
 40
9.2
 50
284.477296857009
 51
0
210
0
220
0
230
1.0
 0
ARC
 8
TOOL_0
 5
B0
 10
1993.529
 20
82.402
 30
0
 40
8.800422773935
 50
104.476801494668
 51
157.996679615131
210
0
220
0
230
1.0
 0
LINE
 8
TOOL_0
 5
B1
 10
1985.37
 20
85.699
 30
0
 11
1964.127
 21
33.12
 31
0
 0
LINE
 8
TOOL_0
 5
B2
 10
1964.127
 20
33.12
 30
0
 11
1965.597
 21
30.503
 31
0
 0
LINE
 8
TOOL_0
 5
B3
 10
1965.597
 20
30.503
 30
0
 11
1967.543
 21
25.897
 31
0
 0
LINE
 8
TOOL_0
 5
B4
 10
1967.543
 20
25.897
 30
0
 11
2471.098
 21
44.127
 31
0
 0
LINE
 8
TOOL_0
 5
B5
 10
2471.098
 20
44.127
 30
0
 11
2438.858
 21
30.503
 31
0
 0
LINE
 8
TOOL_0
 5
B6
 10
2438.858
 20
30.503
 30
0
 11
2435.857
 21
30.54
 31
0
 0
ARC
 8
TOOL_0
 5
B7
 10
2428.101
 20
36.889
 30
0
 40
10.023239845479
 50
270.091462804901
 51
320.696516242418
210
0
220
0
230
1.0
 0
LINE
 8
TOOL_0
 5
B8
 10
2428.117
 20
26.866
 30
0
 11
2340.94
 21
26.866
 31
0
 0
ARC
 8
TOOL_0
 5
B9
 10
2340.94
 20
7.666
 30
0
 40
19.2
 50
90.0
 51
148.07970508667
210
0
220
0
230
1.0
 0
ARC
 8
TOOL_0
 5
BA
 10
2305.287
 20
29.89
 30
0
 40
22.812012624931
 50
239.849505978009
 51
328.048928599656
210
0
220
0
230
1.0
 0
ARC
 8
TOOL_0
 5
BB
 10
2259.041
 20
-49.656
 30
0
 40
69.199980809246
 50
59.820087804485
 51
90.0
210
0
220
0
230
1.0
 0
LINE
 8
TOOL_0
 5
BC
 10
2259.041
 20
19.544
 30
0
 11
2231.541
 21
19.544
 31
0
 0
ARC
 8
TOOL_0
 5
BD
 10
2231.541
 20
-49.656
 30
0
 40
69.2
 50
90.0
 51
120.179912195515
210
0
220
0
230
1.0
 0
ARC
 8
TOOL_0
 5
BE
 10
2185.295
 20
29.89
 30
0
 40
22.812295807305
 50
211.951071400345
 51
300.150494021992
210
0
220
0
230
1.0
 0
ARC
 8
TOOL_0
 5
BF
 10
2149.642
 20
7.666
 30
0
 40
19.200398771901
 50
31.92029491333
 51
90.0
210
0
220
0
230
1.0
 0
LINE
 8
TOOL_0
 5
C0
 10
2149.642
 20
26.866
 30
0
 11
2062.465
 21
26.866
 31
0
 0
ARC
 8
TOOL_0
 5
C1
 10
2062.481
 20
36.89
 30
0
 40
10.024012769345
 50
202.092237733081
 51
269.908546319465
210
0
220
0
230
1.0
 0
LINE
 8
TOOL_0
 5
C2
 10
2053.193
 20
33.12
 30
0
 11
2031.95
 21
85.699
 31
0
 0
ARC
 8
TOOL_0
 5
C3
 10
2023.791
 20
82.402
 30
0
 40
8.79997102268
 50
22.003320384868
 51
75.523198505332
210
0
220
0
230
1.0
 0
ARC
 8
TOOL_0
 5
C4
 10
2028.291
 20
99.831
 30
0
 40
9.200133912069
 50
180.0
 51
255.522703142991
210
0
220
0
230
1.0
 0
LINE
 8
TOOL_0
 5
C5
 10
2019.091
 20
99.831
 30
0
 11
2019.091
 21
179.466
 31
0
 0
ARC
 8
TOOL_0
 5
C6
 10
2029.091
 20
179.466
 30
0
 40
10.0
 50
90.0
 51
180.0
210
0
220
0
230
1.0
 0
LINE
 8
TOOL_0
 5
C7
 10
2029.091
 20
189.466
 30
0
 11
2091.596
 21
189.466
 31
0
 0
ARC
 8
TOOL_0
 5
C8
 10
2091.596
 20
178.666
 30
0
 40
10.8
 50
48.46074053417
 51
90.0
210
0
220
0
230
1.0
 0
ARC
 8
TOOL_0
 5
C9
 10
2034.153
 20
117.643
 30
0
 40
94.602238208195
 50
43.466652314864
 51
46.928384843842
210
0
220
0
230
1.0
 0
LINE
 8
TOOL_0
 5
CA
 10
2102.813
 20
182.723
 30
0
 11
2103.415
 21
182.145
 31
0
 0
ARC
 8
TOOL_0
 5
CB
 10
2110.642
 20
188.047
 30
0
 40
9.330762723379
 50
219.237129311717
 51
272.739746583199
210
0
220
0
230
1.0
 0
LINE
 8
TOOL_0
 5
CC
 10
2111.088
 20
178.727
 30
0
 11
2148.385
 21
180.682
 31
0
 0
ARC
 8
TOOL_0
 5
CD
 10
2147.118
 20
204.849
 30
0
 40
24.200189627356
 50
273.001090424869
 51
320.000123438966
210
0
220
0
230
1.0
 0
LINE
 8
TOOL_0
 5
CE
 10
2165.657
 20
189.293
 30
0
 11
2175.628
 21
201.176
 31
0
 0
ARC
 8
TOOL_0
 5
CF
 10
2229.886
 20
155.619
 30
0
 40
70.847518044036
 50
90.017791710546
 51
139.981952152145
210
0
220
0
230
1.0
 0
LINE
 8
TOOL_0
 5
D0
 10
2229.864
 20
226.467
 30
0
 11
2260.72
 21
226.467
 31
0
 0
ARC
 8
TOOL_0
 5
D1
 10
2260.72
 20
155.667
 30
0
 40
70.8
 50
41.351276536947
 51
90.0
210
0
220
0
230
1.0
 0
ARC
 8
TOOL_0
 5
D2
 10
1761.911
 20
-273.008
 30
0
 40
728.498581501707
 50
39.389999123718
 51
40.741326157114
210
0
220
0
230
1.0
 0
ARC
 8
TOOL_0
 5
D3
 10
2343.465
 20
204.849
 30
0
 40
24.199493155849
 50
219.999584725572
 51
266.998785615684
210
0
220
0
230
1.0
 0
LINE
 8
TOOL_0
 5
D4
 10
2342.198
 20
180.683
 30
0
 11
2379.495
 21
178.728
 31
0
 0
ARC
 8
TOOL_0
 5
D5
 10
2379.976
 20
187.915
 30
0
 40
9.19958314273
 50
267.002924856543
 51
303.800613645744
210
0
220
0
230
1.0
 0
ARC
 8
TOOL_0
 5
D6
 10
2372.05
 20
197.207
 30
0
 40
21.377743215784
 50
307.601601307168
 51
317.475887510289
210
0
220
0
230
1.0
 0
LINE
 8
TOOL_0
 5
D7
 10
2387.805
 20
182.758
 30
0
 11
2391.349
 21
186.304
 31
0
 0
ARC
 8
TOOL_0
 5
D8
 10
2399.011
 20
178.607
 30
0
 40
10.860481250847
 50
90.13189612869
 51
134.869434936403
210
0
220
0
230
1.0
 0
LINE
 8
TOOL_0
 5
D9
 10
2398.986
 20
189.467
 30
0
 11
2461.491
 21
189.467
 31
0
 0
ARC
 8
TOOL_0
 5
DA
 10
2461.491
 20
179.467
 30
0
 40
10.0
 50
0
 51
90.0
210
0
220
0
230
1.0
 0
LINE
 8
TOOL_0
 5
DB
 10
2471.491
 20
179.467
 30
0
 11
2471.491
 21
99.832
 31
0
 0
ARC
 8
TOOL_0
 5
DC
 10
2462.291
 20
99.832
 30
0
 40
9.2
 50
284.477296857008
 51
0
210
0
220
0
230
1.0
 0
ARC
 8
TOOL_0
 5
DD
 10
2466.791
 20
82.403
 30
0
 40
8.800422773935
 50
104.476801494667
 51
157.99667961513
210
0
220
0
230
1.0
 0
LINE
 8
TOOL_0
 5
DE
 10
2458.632
 20
85.7
 30
0
 11
2437.389
 21
33.121
 31
0
 0
LINE
 8
TOOL_0
 5
DF
 10
2437.389
 20
33.121
 30
0
 11
2438.859
 21
30.504
 31
0
 0
LINE
 8
TOOL_0
 5
E0
 10
2438.859
 20
30.504
 30
0
 11
2440.805
 21
25.898
 31
0
 0
LINE
 8
TOOL_0
 5
E1
 10
2440.805
 20
25.898
 30
0
 11
2944.356
 21
44.128
 31
0
 0
LINE
 8
TOOL_0
 5
E2
 10
2944.356
 20
44.128
 30
0
 11
2912.117
 21
30.504
 31
0
 0
LINE
 8
TOOL_0
 5
E3
 10
2912.117
 20
30.504
 30
0
 11
2909.116
 21
30.541
 31
0
 0
ARC
 8
TOOL_0
 5
E4
 10
2901.36
 20
36.89
 30
0
 40
10.023239845479
 50
270.091462804901
 51
320.696516242418
210
0
220
0
230
1.0
 0
LINE
 8
TOOL_0
 5
E5
 10
2901.376
 20
26.867
 30
0
 11
2814.199
 21
26.867
 31
0
 0
ARC
 8
TOOL_0
 5
E6
 10
2814.199
 20
7.667
 30
0
 40
19.2
 50
90.0
 51
148.07970508667
210
0
220
0
230
1.0
 0
ARC
 8
TOOL_0
 5
E7
 10
2778.546
 20
29.891
 30
0
 40
22.812012624931
 50
239.849505978009
 51
328.048928599656
210
0
220
0
230
1.0
 0
ARC
 8
TOOL_0
 5
E8
 10
2732.3
 20
-49.655
 30
0
 40
69.199980809246
 50
59.820087804485
 51
90.0
210
0
220
0
230
1.0
 0
LINE
 8
TOOL_0
 5
E9
 10
2732.3
 20
19.545
 30
0
 11
2704.8
 21
19.545
 31
0
 0
ARC
 8
TOOL_0
 5
EA
 10
2704.8
 20
-49.655
 30
0
 40
69.2
 50
90.0
 51
120.179912195515
210
0
220
0
230
1.0
 0
ARC
 8
TOOL_0
 5
EB
 10
2658.554
 20
29.891
 30
0
 40
22.812295807305
 50
211.951071400345
 51
300.150494021992
210
0
220
0
230
1.0
 0
ARC
 8
TOOL_0
 5
EC
 10
2622.901
 20
7.667
 30
0
 40
19.200398771901
 50
31.92029491333
 51
90.0
210
0
220
0
230
1.0
 0
LINE
 8
TOOL_0
 5
ED
 10
2622.901
 20
26.867
 30
0
 11
2535.724
 21
26.867
 31
0
 0
ARC
 8
TOOL_0
 5
EE
 10
2535.74
 20
36.891
 30
0
 40
10.024012769345
 50
202.092237733081
 51
269.908546319465
210
0
220
0
230
1.0
 0
LINE
 8
TOOL_0
 5
EF
 10
2526.452
 20
33.121
 30
0
 11
2505.209
 21
85.7
 31
0
 0
ARC
 8
TOOL_0
 5
F0
 10
2497.05
 20
82.403
 30
0
 40
8.79997102268
 50
22.003320384868
 51
75.52319850533
210
0
220
0
230
1.0
 0
ARC
 8
TOOL_0
 5
F1
 10
2501.55
 20
99.832
 30
0
 40
9.200133912069
 50
180.0
 51
255.522703142989
210
0
220
0
230
1.0
 0
LINE
 8
TOOL_0
 5
F2
 10
2492.35
 20
99.832
 30
0
 11
2492.35
 21
179.467
 31
0
 0
ARC
 8
TOOL_0
 5
F3
 10
2502.35
 20
179.467
 30
0
 40
10.0
 50
90.0
 51
180.0
210
0
220
0
230
1.0
 0
LINE
 8
TOOL_0
 5
F4
 10
2502.35
 20
189.467
 30
0
 11
2564.855
 21
189.467
 31
0
 0
ARC
 8
TOOL_0
 5
F5
 10
2564.855
 20
178.667
 30
0
 40
10.8
 50
48.46074053417
 51
90.0
210
0
220
0
230
1.0
 0
ARC
 8
TOOL_0
 5
F6
 10
2507.412
 20
117.644
 30
0
 40
94.602238208195
 50
43.466652314864
 51
46.928384843842
210
0
220
0
230
1.0
 0
LINE
 8
TOOL_0
 5
F7
 10
2576.072
 20
182.724
 30
0
 11
2576.674
 21
182.146
 31
0
 0
ARC
 8
TOOL_0
 5
F8
 10
2583.901
 20
188.048
 30
0
 40
9.330762723379
 50
219.237129311717
 51
272.739746583199
210
0
220
0
230
1.0
 0
LINE
 8
TOOL_0
 5
F9
 10
2584.347
 20
178.728
 30
0
 11
2621.644
 21
180.683
 31
0
 0
ARC
 8
TOOL_0
 5
FA
 10
2620.377
 20
204.85
 30
0
 40
24.200189627356
 50
273.001090424869
 51
320.000123438966
210
0
220
0
230
1.0
 0
LINE
 8
TOOL_0
 5
FB
 10
2638.916
 20
189.294
 30
0
 11
2648.887
 21
201.177
 31
0
 0
ARC
 8
TOOL_0
 5
FC
 10
2703.145
 20
155.62
 30
0
 40
70.847518044036
 50
90.017791710546
 51
139.981952152145
210
0
220
0
230
1.0
 0
LINE
 8
TOOL_0
 5
FD
 10
2703.123
 20
226.468
 30
0
 11
2733.979
 21
226.468
 31
0
 0
ARC
 8
TOOL_0
 5
FE
 10
2733.979
 20
155.668
 30
0
 40
70.8
 50
41.351276536947
 51
90.0
210
0
220
0
230
1.0
 0
ARC
 8
TOOL_0
 5
FF
 10
2235.17
 20
-273.007
 30
0
 40
728.498581501707
 50
39.389999123718
 51
40.741326157114
210
0
220
0
230
1.0
 0
ARC
 8
TOOL_0
 5
100
 10
2816.724
 20
204.85
 30
0
 40
24.199493155849
 50
219.999584725572
 51
266.998785615684
210
0
220
0
230
1.0
 0
LINE
 8
TOOL_0
 5
101
 10
2815.457
 20
180.684
 30
0
 11
2852.754
 21
178.729
 31
0
 0
ARC
 8
TOOL_0
 5
102
 10
2853.235
 20
187.916
 30
0
 40
9.19958314273
 50
267.002924856543
 51
303.800613645744
210
0
220
0
230
1.0
 0
ARC
 8
TOOL_0
 5
103
 10
2845.309
 20
197.208
 30
0
 40
21.377743215784
 50
307.601601307168
 51
317.475887510289
210
0
220
0
230
1.0
 0
LINE
 8
TOOL_0
 5
104
 10
2861.064
 20
182.759
 30
0
 11
2864.608
 21
186.305
 31
0
 0
ARC
 8
TOOL_0
 5
105
 10
2872.27
 20
178.608
 30
0
 40
10.860481250847
 50
90.13189612869
 51
134.869434936403
210
0
220
0
230
1.0
 0
LINE
 8
TOOL_0
 5
106
 10
2872.245
 20
189.468
 30
0
 11
2934.75
 21
189.468
 31
0
 0
ARC
 8
TOOL_0
 5
107
 10
2934.75
 20
179.468
 30
0
 40
10.0
 50
0
 51
90.0
210
0
220
0
230
1.0
 0
LINE
 8
TOOL_0
 5
108
 10
2944.75
 20
179.468
 30
0
 11
2944.75
 21
99.833
 31
0
 0
ARC
 8
TOOL_0
 5
109
 10
2935.55
 20
99.833
 30
0
 40
9.2
 50
284.477296857008
 51
0
210
0
220
0
230
1.0
 0
ARC
 8
TOOL_0
 5
10A
 10
2940.05
 20
82.404
 30
0
 40
8.800422773935
 50
104.476801494667
 51
157.99667961513
210
0
220
0
230
1.0
 0
LINE
 8
TOOL_0
 5
10B
 10
2931.891
 20
85.701
 30
0
 11
2910.648
 21
33.122
 31
0
 0
LINE
 8
TOOL_0
 5
10C
 10
2910.648
 20
33.122
 30
0
 11
2912.118
 21
30.505
 31
0
 0
LINE
 8
TOOL_0
 5
10D
 10
2912.118
 20
30.505
 30
0
 11
2914.064
 21
25.899
 31
0
 0
LINE
 8
TOOL_0
 5
10E
 10
2914.064
 20
25.899
 30
0
 11
3417.618
 21
44.129
 31
0
 0
LINE
 8
TOOL_0
 5
10F
 10
3417.618
 20
44.129
 30
0
 11
3385.378
 21
30.505
 31
0
 0
LINE
 8
TOOL_0
 5
110
 10
3385.378
 20
30.505
 30
0
 11
3382.377
 21
30.542
 31
0
 0
ARC
 8
TOOL_0
 5
111
 10
3374.621
 20
36.891
 30
0
 40
10.023239845479
 50
270.091462804901
 51
320.696516242418
210
0
220
0
230
1.0
 0
LINE
 8
TOOL_0
 5
112
 10
3374.637
 20
26.868
 30
0
 11
3287.46
 21
26.868
 31
0
 0
ARC
 8
TOOL_0
 5
113
 10
3287.46
 20
7.668
 30
0
 40
19.2
 50
90.0
 51
148.07970508667
210
0
220
0
230
1.0
 0
ARC
 8
TOOL_0
 5
114
 10
3251.807
 20
29.892
 30
0
 40
22.812012624931
 50
239.849505978009
 51
328.048928599656
210
0
220
0
230
1.0
 0
ARC
 8
TOOL_0
 5
115
 10
3205.561
 20
-49.654
 30
0
 40
69.199980809246
 50
59.820087804485
 51
90.0
210
0
220
0
230
1.0
 0
LINE
 8
TOOL_0
 5
116
 10
3205.561
 20
19.546
 30
0
 11
3178.061
 21
19.546
 31
0
 0
ARC
 8
TOOL_0
 5
117
 10
3178.061
 20
-49.654
 30
0
 40
69.2
 50
90.0
 51
120.179912195515
210
0
220
0
230
1.0
 0
ARC
 8
TOOL_0
 5
118
 10
3131.815
 20
29.892
 30
0
 40
22.812295807305
 50
211.951071400345
 51
300.150494021992
210
0
220
0
230
1.0
 0
ARC
 8
TOOL_0
 5
119
 10
3096.162
 20
7.668
 30
0
 40
19.200398771901
 50
31.92029491333
 51
90.0
210
0
220
0
230
1.0
 0
LINE
 8
TOOL_0
 5
11A
 10
3096.162
 20
26.868
 30
0
 11
3008.985
 21
26.868
 31
0
 0
ARC
 8
TOOL_0
 5
11B
 10
3009.001
 20
36.892
 30
0
 40
10.024012769345
 50
202.092237733081
 51
269.908546319465
210
0
220
0
230
1.0
 0
LINE
 8
TOOL_0
 5
11C
 10
2999.713
 20
33.122
 30
0
 11
2978.47
 21
85.701
 31
0
 0
ARC
 8
TOOL_0
 5
11D
 10
2970.311
 20
82.404
 30
0
 40
8.79997102268
 50
22.003320384868
 51
75.52319850533
210
0
220
0
230
1.0
 0
ARC
 8
TOOL_0
 5
11E
 10
2974.811
 20
99.833
 30
0
 40
9.200133912069
 50
180.0
 51
255.522703142989
210
0
220
0
230
1.0
 0
LINE
 8
TOOL_0
 5
11F
 10
2965.611
 20
99.833
 30
0
 11
2965.611
 21
179.468
 31
0
 0
ARC
 8
TOOL_0
 5
120
 10
2975.611
 20
179.468
 30
0
 40
10.0
 50
90.0
 51
180.0
210
0
220
0
230
1.0
 0
LINE
 8
TOOL_0
 5
121
 10
2975.611
 20
189.468
 30
0
 11
3038.116
 21
189.468
 31
0
 0
ARC
 8
TOOL_0
 5
122
 10
3038.116
 20
178.668
 30
0
 40
10.8
 50
48.46074053417
 51
90.0
210
0
220
0
230
1.0
 0
ARC
 8
TOOL_0
 5
123
 10
2980.673
 20
117.645
 30
0
 40
94.602238208195
 50
43.466652314864
 51
46.928384843842
210
0
220
0
230
1.0
 0
LINE
 8
TOOL_0
 5
124
 10
3049.333
 20
182.725
 30
0
 11
3049.935
 21
182.147
 31
0
 0
ARC
 8
TOOL_0
 5
125
 10
3057.162
 20
188.049
 30
0
 40
9.330762723379
 50
219.237129311717
 51
272.739746583199
210
0
220
0
230
1.0
 0
LINE
 8
TOOL_0
 5
126
 10
3057.608
 20
178.729
 30
0
 11
3094.905
 21
180.684
 31
0
 0
ARC
 8
TOOL_0
 5
127
 10
3093.638
 20
204.851
 30
0
 40
24.200189627356
 50
273.001090424869
 51
320.000123438966
210
0
220
0
230
1.0
 0
LINE
 8
TOOL_0
 5
128
 10
3112.177
 20
189.295
 30
0
 11
3122.148
 21
201.178
 31
0
 0
ARC
 8
TOOL_0
 5
129
 10
3176.406
 20
155.621
 30
0
 40
70.847518044036
 50
90.017791710546
 51
139.981952152145
210
0
220
0
230
1.0
 0
LINE
 8
TOOL_0
 5
12A
 10
3176.384
 20
226.469
 30
0
 11
3207.24
 21
226.469
 31
0
 0
ARC
 8
TOOL_0
 5
12B
 10
3207.24
 20
155.669
 30
0
 40
70.8
 50
41.351276536947
 51
90.0
210
0
220
0
230
1.0
 0
ARC
 8
TOOL_0
 5
12C
 10
2708.431
 20
-273.006
 30
0
 40
728.498581501707
 50
39.389999123718
 51
40.741326157114
210
0
220
0
230
1.0
 0
ARC
 8
TOOL_0
 5
12D
 10
3289.985
 20
204.851
 30
0
 40
24.199493155849
 50
219.999584725572
 51
266.998785615684
210
0
220
0
230
1.0
 0
LINE
 8
TOOL_0
 5
12E
 10
3288.718
 20
180.685
 30
0
 11
3326.015
 21
178.73
 31
0
 0
ARC
 8
TOOL_0
 5
12F
 10
3326.496
 20
187.917
 30
0
 40
9.19958314273
 50
267.002924856543
 51
303.800613645744
210
0
220
0
230
1.0
 0
ARC
 8
TOOL_0
 5
130
 10
3318.57
 20
197.209
 30
0
 40
21.377743215784
 50
307.601601307168
 51
317.475887510289
210
0
220
0
230
1.0
 0
LINE
 8
TOOL_0
 5
131
 10
3334.325
 20
182.76
 30
0
 11
3337.869
 21
186.306
 31
0
 0
ARC
 8
TOOL_0
 5
132
 10
3345.531
 20
178.609
 30
0
 40
10.860481250847
 50
90.13189612869
 51
134.869434936403
210
0
220
0
230
1.0
 0
LINE
 8
TOOL_0
 5
133
 10
3345.506
 20
189.469
 30
0
 11
3408.011
 21
189.469
 31
0
 0
ARC
 8
TOOL_0
 5
134
 10
3408.011
 20
179.469
 30
0
 40
10.0
 50
0
 51
90.0
210
0
220
0
230
1.0
 0
LINE
 8
TOOL_0
 5
135
 10
3418.011
 20
179.469
 30
0
 11
3418.011
 21
99.834
 31
0
 0
ARC
 8
TOOL_0
 5
136
 10
3408.811
 20
99.834
 30
0
 40
9.2
 50
284.477296857008
 51
0
210
0
220
0
230
1.0
 0
ARC
 8
TOOL_0
 5
137
 10
3413.311
 20
82.405
 30
0
 40
8.800422773935
 50
104.476801494667
 51
157.99667961513
210
0
220
0
230
1.0
 0
LINE
 8
TOOL_0
 5
138
 10
3405.152
 20
85.702
 30
0
 11
3383.909
 21
33.123
 31
0
 0
LINE
 8
TOOL_0
 5
139
 10
3383.909
 20
33.123
 30
0
 11
3385.379
 21
30.506
 31
0
 0
LINE
 8
TOOL_0
 5
13A
 10
3385.379
 20
30.506
 30
0
 11
3387.325
 21
25.9
 31
0
 0
LINE
 8
TOOL_0
 5
13B
 10
3387.325
 20
25.9
 30
0
 11
3387.325
 21
0.007
 31
0
 0
LINE
 8
TOOL_0
 5
13C
 10
3387.325
 20
0.007
 30
0
 11
3731.924
 21
1207.318
 31
0
 0
LINE
 8
TOOL_0
 5
13D
 10
3731.924
 20
1207.318
 30
0
 11
984.045
 21
1207.318
 31
0
 0
LINE
 8
TOOL_0
 5
13E
 10
984.045
 20
1207.318
 30
0
 11
984.045
 21
2039.007
 31
0
 0
LINE
 8
TOOL_0
 5
13F
 10
984.045
 20
2039.007
 30
0
 11
984.045
 21
2040.007
 31
0
 0
ENDSEC
 0
EOF

