0
SECTION
2
TABLES
0
TABLE
2
LAYER
70
0
0
LAYER
2
LAYER_NAME
70
0
62
1
6
CONTINUOUS
0
ENDTAB
0
ENDSEC
 0
SECTION
 2
ENTITIES
 0
LINE
 8
TOOL_0
 5
1
 10
1244.212
 20
-1628.478
 30
0
 11
1289.956
 21
-1648.665
 31
0
 0
ARC
 8
TOOL_0
 5
2
 10
1225.0
 20
-1619.999
 30
0
 40
71.000151351951
 50
336.187455019915
 51
156.187455019915
210
0
220
0
230
1.0
 0
ARC
 8
TOOL_0
 5
3
 10
1225.0
 20
-1619.999
 30
0
 40
71.000151351951
 50
156.187455019915
 51
336.187455019915
210
0
220
0
230
1.0
 0
ARC
 8
TOOL_0
 5
4
 10
1282.637
 20
-1645.435
 30
0
 40
8.000041312393
 50
336.187311176278
 51
33.481481773559
210
0
220
0
230
1.0
 0
LINE
 8
TOOL_0
 5
5
 10
1289.309
 20
-1641.022
 30
0
 11
2297.5
 21
-2090.0
 31
0
 0
LINE
 8
TOOL_0
 5
6
 10
2297.5
 20
-2090.0
 30
0
 11
2290.0
 21
-2090.0
 31
0
 0
LINE
 8
TOOL_0
 5
7
 10
2290.0
 20
-2090.0
 30
0
 11
10.0
 21
-2090.0
 31
0
 0
LINE
 8
TOOL_0
 5
8
 10
10.0
 20
-2090.0
 30
0
 11
10.0
 21
-1150.0
 31
0
 0
LINE
 8
TOOL_0
 5
9
 10
10.0
 20
-1150.0
 30
0
 11
2290.0
 21
-1150.0
 31
0
 0
LINE
 8
TOOL_0
 5
A
 10
2290.0
 20
-1150.0
 30
0
 11
2290.0
 21
-2090.0
 31
0
 0
LINE
 8
TOOL_0
 5
B
 10
2290.0
 20
-2090.0
 30
0
 11
2290.0
 21
-2094.0
 31
0
 0
LINE
 8
TOOL_0
 5
C
 10
2290.0
 20
-2094.0
 30
0
 11
1244.212
 21
-670.179
 31
0
 0
LINE
 8
TOOL_0
 5
D
 10
1244.212
 20
-670.179
 30
0
 11
1289.956
 21
-690.366
 31
0
 0
ARC
 8
TOOL_0
 5
E
 10
1225.0
 20
-661.7
 30
0
 40
71.000151351951
 50
336.187455019915
 51
156.187455019915
210
0
220
0
230
1.0
 0
ARC
 8
TOOL_0
 5
F
 10
1225.0
 20
-661.7
 30
0
 40
71.000151351951
 50
156.187455019915
 51
336.187455019915
210
0
220
0
230
1.0
 0
ARC
 8
TOOL_0
 5
10
 10
1282.637
 20
-687.136
 30
0
 40
8.000041312393
 50
336.187311176278
 51
33.481481773559
210
0
220
0
230
1.0
 0
LINE
 8
TOOL_0
 5
11
 10
1289.309
 20
-682.723
 30
0
 11
2297.5
 21
-1131.7
 31
0
 0
LINE
 8
TOOL_0
 5
12
 10
2297.5
 20
-1131.7
 30
0
 11
2290.0
 21
-1131.7
 31
0
 0
LINE
 8
TOOL_0
 5
13
 10
2290.0
 20
-1131.7
 30
0
 11
10.0
 21
-1131.7
 31
0
 0
LINE
 8
TOOL_0
 5
14
 10
10.0
 20
-1131.7
 30
0
 11
10.0
 21
-191.7
 31
0
 0
LINE
 8
TOOL_0
 5
15
 10
10.0
 20
-191.7
 30
0
 11
2290.0
 21
-191.7
 31
0
 0
LINE
 8
TOOL_0
 5
16
 10
2290.0
 20
-191.7
 30
0
 11
2290.0
 21
-1131.7
 31
0
 0
LINE
 8
TOOL_0
 5
17
 10
2290.0
 20
-1131.7
 30
0
 11
2290.0
 21
-1135.7
 31
0
 0
LINE
 8
TOOL_0
 5
18
 10
2290.0
 20
-1135.7
 30
0
 11
3542.283
 21
-1628.479
 31
0
 0
LINE
 8
TOOL_0
 5
19
 10
3542.283
 20
-1628.479
 30
0
 11
3588.026
 21
-1648.666
 31
0
 0
ARC
 8
TOOL_0
 5
1A
 10
3523.07
 20
-1620.0
 30
0
 40
71.000151351951
 50
336.187455019915
 51
156.187455019915
210
0
220
0
230
1.0
 0
ARC
 8
TOOL_0
 5
1B
 10
3523.07
 20
-1620.0
 30
0
 40
71.000151351951
 50
156.187455019915
 51
336.187455019915
210
0
220
0
230
1.0
 0
ARC
 8
TOOL_0
 5
1C
 10
3580.707
 20
-1645.436
 30
0
 40
8.000041312393
 50
336.187311176278
 51
33.481481773559
210
0
220
0
230
1.0
 0
LINE
 8
TOOL_0
 5
1D
 10
3587.379
 20
-1641.023
 30
0
 11
4595.57
 21
-2090.001
 31
0
 0
LINE
 8
TOOL_0
 5
1E
 10
4595.57
 20
-2090.001
 30
0
 11
4588.07
 21
-2090.001
 31
0
 0
LINE
 8
TOOL_0
 5
1F
 10
4588.07
 20
-2090.001
 30
0
 11
2308.07
 21
-2090.001
 31
0
 0
LINE
 8
TOOL_0
 5
20
 10
2308.07
 20
-2090.001
 30
0
 11
2308.07
 21
-1150.001
 31
0
 0
LINE
 8
TOOL_0
 5
21
 10
2308.07
 20
-1150.001
 30
0
 11
4588.07
 21
-1150.001
 31
0
 0
LINE
 8
TOOL_0
 5
22
 10
4588.07
 20
-1150.001
 30
0
 11
4588.07
 21
-2090.001
 31
0
 0
LINE
 8
TOOL_0
 5
23
 10
4588.07
 20
-2090.001
 30
0
 11
4588.07
 21
-2094.001
 31
0
 0
LINE
 8
TOOL_0
 5
24
 10
4588.07
 20
-2094.001
 30
0
 11
3542.281
 21
-670.18
 31
0
 0
LINE
 8
TOOL_0
 5
25
 10
3542.281
 20
-670.18
 30
0
 11
3588.025
 21
-690.367
 31
0
 0
ARC
 8
TOOL_0
 5
26
 10
3523.069
 20
-661.701
 30
0
 40
71.000151351952
 50
336.187455019915
 51
156.187455019915
210
0
220
0
230
1.0
 0
ARC
 8
TOOL_0
 5
27
 10
3523.069
 20
-661.701
 30
0
 40
71.000151351952
 50
156.187455019915
 51
336.187455019915
210
0
220
0
230
1.0
 0
ARC
 8
TOOL_0
 5
28
 10
3580.706
 20
-687.137
 30
0
 40
8.000041312393
 50
336.187311176278
 51
33.481481773559
210
0
220
0
230
1.0
 0
LINE
 8
TOOL_0
 5
29
 10
3587.378
 20
-682.724
 30
0
 11
4595.569
 21
-1131.701
 31
0
 0
LINE
 8
TOOL_0
 5
2A
 10
4595.569
 20
-1131.701
 30
0
 11
4588.069
 21
-1131.701
 31
0
 0
LINE
 8
TOOL_0
 5
2B
 10
4588.069
 20
-1131.701
 30
0
 11
2308.069
 21
-1131.701
 31
0
 0
LINE
 8
TOOL_0
 5
2C
 10
2308.069
 20
-1131.701
 30
0
 11
2308.069
 21
-191.701
 31
0
 0
LINE
 8
TOOL_0
 5
2D
 10
2308.069
 20
-191.701
 30
0
 11
4588.069
 21
-191.701
 31
0
 0
LINE
 8
TOOL_0
 5
2E
 10
4588.069
 20
-191.701
 30
0
 11
4588.069
 21
-1131.701
 31
0
 0
LINE
 8
TOOL_0
 5
2F
 10
4588.069
 20
-1131.701
 30
0
 11
4588.069
 21
-1135.701
 31
0
 0
LINE
 8
TOOL_0
 5
30
 10
4588.069
 20
-1135.701
 30
0
 11
4674.329
 21
-1865.001
 31
0
 0
LINE
 8
TOOL_0
 5
31
 10
4674.329
 20
-1865.001
 30
0
 11
4674.329
 21
-1915.001
 31
0
 0
ARC
 8
TOOL_0
 5
32
 10
4674.329
 20
-1875.001
 30
0
 40
40.0
 50
270.0
 51
0
210
0
220
0
230
1.0
 0
LINE
 8
TOOL_0
 5
33
 10
4714.329
 20
-1875.001
 30
0
 11
4714.329
 21
-1805.001
 31
0
 0
ARC
 8
TOOL_0
 5
34
 10
4674.329
 20
-1805.001
 30
0
 40
40.0
 50
0
 51
180.0
210
0
220
0
230
1.0
 0
LINE
 8
TOOL_0
 5
35
 10
4634.329
 20
-1805.001
 30
0
 11
4634.329
 21
-1875.001
 31
0
 0
ARC
 8
TOOL_0
 5
36
 10
4674.329
 20
-1875.001
 30
0
 40
40.0
 50
180.0
 51
270.0
210
0
220
0
230
1.0
 0
ARC
 8
TOOL_0
 5
37
 10
4674.329
 20
-1907.001
 30
0
 40
8.0
 50
270.0
 51
327.299199559758
210
0
220
0
230
1.0
 0
LINE
 8
TOOL_0
 5
38
 10
4681.061
 20
-1911.323
 30
0
 11
4961.829
 21
-2090.001
 31
0
 0
LINE
 8
TOOL_0
 5
39
 10
4961.829
 20
-2090.001
 30
0
 11
4954.329
 21
-2090.001
 31
0
 0
LINE
 8
TOOL_0
 5
3A
 10
4954.329
 20
-2090.001
 30
0
 11
4604.329
 21
-2090.001
 31
0
 0
LINE
 8
TOOL_0
 5
3B
 10
4604.329
 20
-2090.001
 30
0
 11
4604.329
 21
-1590.001
 31
0
 0
LINE
 8
TOOL_0
 5
3C
 10
4604.329
 20
-1590.001
 30
0
 11
4954.329
 21
-1590.001
 31
0
 0
LINE
 8
TOOL_0
 5
3D
 10
4954.329
 20
-1590.001
 30
0
 11
4954.329
 21
-2090.001
 31
0
 0
LINE
 8
TOOL_0
 5
3E
 10
4954.329
 20
-2090.001
 30
0
 11
4954.329
 21
-2094.001
 31
0
 0
LINE
 8
TOOL_0
 5
3F
 10
4954.329
 20
-2094.001
 30
0
 11
4674.19
 21
-1348.917
 31
0
 0
LINE
 8
TOOL_0
 5
40
 10
4674.19
 20
-1348.917
 30
0
 11
4674.19
 21
-1398.917
 31
0
 0
ARC
 8
TOOL_0
 5
41
 10
4674.19
 20
-1358.917
 30
0
 40
40.0
 50
270.0
 51
0
210
0
220
0
230
1.0
 0
LINE
 8
TOOL_0
 5
42
 10
4714.19
 20
-1358.917
 30
0
 11
4714.19
 21
-1288.917
 31
0
 0
ARC
 8
TOOL_0
 5
43
 10
4674.19
 20
-1288.917
 30
0
 40
40.0
 50
0
 51
180.0
210
0
220
0
230
1.0
 0
LINE
 8
TOOL_0
 5
44
 10
4634.19
 20
-1288.917
 30
0
 11
4634.19
 21
-1358.917
 31
0
 0
ARC
 8
TOOL_0
 5
45
 10
4674.19
 20
-1358.917
 30
0
 40
40.0
 50
180.0
 51
270.0
210
0
220
0
230
1.0
 0
ARC
 8
TOOL_0
 5
46
 10
4674.19
 20
-1390.917
 30
0
 40
8.0
 50
270.0
 51
327.299199559758
210
0
220
0
230
1.0
 0
LINE
 8
TOOL_0
 5
47
 10
4680.922
 20
-1395.239
 30
0
 11
4963.929
 21
-1586.189
 31
0
 0
ARC
 8
TOOL_0
 5
48
 10
4954.191
 20
-1583.917
 30
0
 40
9.99953138902
 50
346.867093685726
 51
90.0
210
0
220
0
230
1.0
 0
LINE
 8
TOOL_0
 5
49
 10
4954.191
 20
-1573.917
 30
0
 11
4604.191
 21
-1573.917
 31
0
 0
LINE
 8
TOOL_0
 5
4A
 10
4604.191
 20
-1573.917
 30
0
 11
4604.191
 21
-1073.917
 31
0
 0
LINE
 8
TOOL_0
 5
4B
 10
4604.191
 20
-1073.917
 30
0
 11
4954.191
 21
-1073.917
 31
0
 0
LINE
 8
TOOL_0
 5
4C
 10
4954.191
 20
-1073.917
 30
0
 11
4954.191
 21
-1573.917
 31
0
 0
LINE
 8
TOOL_0
 5
4D
 10
4954.191
 20
-1573.917
 30
0
 11
4959.848
 21
-1579.574
 31
0
 0
LINE
 8
TOOL_0
 5
4E
 10
4959.848
 20
-1579.574
 30
0
 11
4674.191
 21
-832.653
 31
0
 0
LINE
 8
TOOL_0
 5
4F
 10
4674.191
 20
-832.653
 30
0
 11
4674.191
 21
-882.653
 31
0
 0
ARC
 8
TOOL_0
 5
50
 10
4674.191
 20
-842.653
 30
0
 40
40.0
 50
270.0
 51
0
210
0
220
0
230
1.0
 0
LINE
 8
TOOL_0
 5
51
 10
4714.191
 20
-842.653
 30
0
 11
4714.191
 21
-772.653
 31
0
 0
ARC
 8
TOOL_0
 5
52
 10
4674.191
 20
-772.653
 30
0
 40
40.0
 50
0
 51
180.0
210
0
220
0
230
1.0
 0
LINE
 8
TOOL_0
 5
53
 10
4634.191
 20
-772.653
 30
0
 11
4634.191
 21
-842.653
 31
0
 0
ARC
 8
TOOL_0
 5
54
 10
4674.191
 20
-842.653
 30
0
 40
40.0
 50
180.0
 51
270.0
210
0
220
0
230
1.0
 0
ARC
 8
TOOL_0
 5
55
 10
4674.191
 20
-874.653
 30
0
 40
8.0
 50
270.0
 51
327.299199559757
210
0
220
0
230
1.0
 0
LINE
 8
TOOL_0
 5
56
 10
4680.923
 20
-878.975
 30
0
 11
4963.93
 21
-1069.924
 31
0
 0
ARC
 8
TOOL_0
 5
57
 10
4954.191
 20
-1067.652
 30
0
 40
10.000505237236
 50
346.868395441071
 51
90.0
210
0
220
0
230
1.0
 0
LINE
 8
TOOL_0
 5
58
 10
4954.191
 20
-1057.652
 30
0
 11
4604.191
 21
-1057.652
 31
0
 0
LINE
 8
TOOL_0
 5
59
 10
4604.191
 20
-1057.652
 30
0
 11
4604.191
 21
-557.652
 31
0
 0
LINE
 8
TOOL_0
 5
5A
 10
4604.191
 20
-557.652
 30
0
 11
4954.191
 21
-557.652
 31
0
 0
LINE
 8
TOOL_0
 5
5B
 10
4954.191
 20
-557.652
 30
0
 11
4954.191
 21
-1057.652
 31
0
 0
LINE
 8
TOOL_0
 5
5C
 10
4954.191
 20
-1057.652
 30
0
 11
4959.848
 21
-1063.309
 31
0
 0
LINE
 8
TOOL_0
 5
5D
 10
4959.848
 20
-1063.309
 30
0
 11
4675.884
 21
-316.389
 31
0
 0
LINE
 8
TOOL_0
 5
5E
 10
4675.884
 20
-316.389
 30
0
 11
4675.884
 21
-366.389
 31
0
 0
ARC
 8
TOOL_0
 5
5F
 10
4675.884
 20
-326.389
 30
0
 40
40.0
 50
270.0
 51
0
210
0
220
0
230
1.0
 0
LINE
 8
TOOL_0
 5
60
 10
4715.884
 20
-326.389
 30
0
 11
4715.884
 21
-256.389
 31
0
 0
ARC
 8
TOOL_0
 5
61
 10
4675.884
 20
-256.389
 30
0
 40
40.0
 50
0
 51
180.0
210
0
220
0
230
1.0
 0
LINE
 8
TOOL_0
 5
62
 10
4635.884
 20
-256.389
 30
0
 11
4635.884
 21
-326.389
 31
0
 0
ARC
 8
TOOL_0
 5
63
 10
4675.884
 20
-326.389
 30
0
 40
40.0
 50
180.0
 51
270.0
210
0
220
0
230
1.0
 0
ARC
 8
TOOL_0
 5
64
 10
4675.884
 20
-358.389
 30
0
 40
8.0
 50
270.0
 51
327.299199559757
210
0
220
0
230
1.0
 0
LINE
 8
TOOL_0
 5
65
 10
4682.616
 20
-362.711
 30
0
 11
4965.623
 21
-553.661
 31
0
 0
ARC
 8
TOOL_0
 5
66
 10
4955.885
 20
-551.389
 30
0
 40
9.99953138902
 50
346.867093685725
 51
90.0
210
0
220
0
230
1.0
 0
LINE
 8
TOOL_0
 5
67
 10
4955.885
 20
-541.389
 30
0
 11
4605.885
 21
-541.389
 31
0
 0
LINE
 8
TOOL_0
 5
68
 10
4605.885
 20
-541.389
 30
0
 11
4605.885
 21
-41.389
 31
0
 0
LINE
 8
TOOL_0
 5
69
 10
4605.885
 20
-41.389
 30
0
 11
4955.885
 21
-41.389
 31
0
 0
LINE
 8
TOOL_0
 5
6A
 10
4955.885
 20
-41.389
 30
0
 11
4955.885
 21
-541.389
 31
0
 0
LINE
 8
TOOL_0
 5
6B
 10
4955.885
 20
-541.389
 30
0
 11
4961.542
 21
-547.046
 31
0
 0
LINE
 8
TOOL_0
 5
6C
 10
4961.542
 20
-547.046
 30
0
 11
5040.641
 21
-1865.0
 31
0
 0
LINE
 8
TOOL_0
 5
6D
 10
5040.641
 20
-1865.0
 30
0
 11
5040.641
 21
-1915.0
 31
0
 0
ARC
 8
TOOL_0
 5
6E
 10
5040.641
 20
-1875.0
 30
0
 40
40.0
 50
270.0
 51
0
210
0
220
0
230
1.0
 0
LINE
 8
TOOL_0
 5
6F
 10
5080.641
 20
-1875.0
 30
0
 11
5080.641
 21
-1805.0
 31
0
 0
ARC
 8
TOOL_0
 5
70
 10
5040.641
 20
-1805.0
 30
0
 40
40.0
 50
0
 51
180.0
210
0
220
0
230
1.0
 0
LINE
 8
TOOL_0
 5
71
 10
5000.641
 20
-1805.0
 30
0
 11
5000.641
 21
-1875.0
 31
0
 0
ARC
 8
TOOL_0
 5
72
 10
5040.641
 20
-1875.0
 30
0
 40
40.0
 50
180.0
 51
270.0
210
0
220
0
230
1.0
 0
ARC
 8
TOOL_0
 5
73
 10
5040.641
 20
-1907.0
 30
0
 40
8.0
 50
270.0
 51
327.299199559758
210
0
220
0
230
1.0
 0
LINE
 8
TOOL_0
 5
74
 10
5047.373
 20
-1911.322
 30
0
 11
5328.142
 21
-2090.0
 31
0
 0
LINE
 8
TOOL_0
 5
75
 10
5328.142
 20
-2090.0
 30
0
 11
5320.642
 21
-2090.0
 31
0
 0
LINE
 8
TOOL_0
 5
76
 10
5320.642
 20
-2090.0
 30
0
 11
4970.642
 21
-2090.0
 31
0
 0
LINE
 8
TOOL_0
 5
77
 10
4970.642
 20
-2090.0
 30
0
 11
4970.642
 21
-1590.0
 31
0
 0
LINE
 8
TOOL_0
 5
78
 10
4970.642
 20
-1590.0
 30
0
 11
5320.642
 21
-1590.0
 31
0
 0
LINE
 8
TOOL_0
 5
79
 10
5320.642
 20
-1590.0
 30
0
 11
5320.642
 21
-2090.0
 31
0
 0
LINE
 8
TOOL_0
 5
7A
 10
5320.642
 20
-2090.0
 30
0
 11
5320.642
 21
-2094.0
 31
0
 0
LINE
 8
TOOL_0
 5
7B
 10
5320.642
 20
-2094.0
 30
0
 11
5040.304
 21
-1348.916
 31
0
 0
LINE
 8
TOOL_0
 5
7C
 10
5040.304
 20
-1348.916
 30
0
 11
5040.304
 21
-1398.916
 31
0
 0
ARC
 8
TOOL_0
 5
7D
 10
5040.304
 20
-1358.916
 30
0
 40
40.0
 50
270.0
 51
0
210
0
220
0
230
1.0
 0
LINE
 8
TOOL_0
 5
7E
 10
5080.304
 20
-1358.916
 30
0
 11
5080.304
 21
-1288.916
 31
0
 0
ARC
 8
TOOL_0
 5
7F
 10
5040.304
 20
-1288.916
 30
0
 40
40.0
 50
0
 51
180.0
210
0
220
0
230
1.0
 0
LINE
 8
TOOL_0
 5
80
 10
5000.304
 20
-1288.916
 30
0
 11
5000.304
 21
-1358.916
 31
0
 0
ARC
 8
TOOL_0
 5
81
 10
5040.304
 20
-1358.916
 30
0
 40
40.0
 50
180.0
 51
270.0
210
0
220
0
230
1.0
 0
ARC
 8
TOOL_0
 5
82
 10
5040.304
 20
-1390.916
 30
0
 40
8.0
 50
270.0
 51
327.299199559758
210
0
220
0
230
1.0
 0
LINE
 8
TOOL_0
 5
83
 10
5047.036
 20
-1395.238
 30
0
 11
5330.042
 21
-1586.187
 31
0
 0
ARC
 8
TOOL_0
 5
84
 10
5320.304
 20
-1583.915
 30
0
 40
9.99953138902
 50
346.867093685726
 51
90.0
210
0
220
0
230
1.0
 0
LINE
 8
TOOL_0
 5
85
 10
5320.304
 20
-1573.915
 30
0
 11
4970.304
 21
-1573.915
 31
0
 0
LINE
 8
TOOL_0
 5
86
 10
4970.304
 20
-1573.915
 30
0
 11
4970.304
 21
-1073.915
 31
0
 0
LINE
 8
TOOL_0
 5
87
 10
4970.304
 20
-1073.915
 30
0
 11
5320.304
 21
-1073.915
 31
0
 0
LINE
 8
TOOL_0
 5
88
 10
5320.304
 20
-1073.915
 30
0
 11
5320.304
 21
-1573.915
 31
0
 0
LINE
 8
TOOL_0
 5
89
 10
5320.304
 20
-1573.915
 30
0
 11
5325.961
 21
-1579.572
 31
0
 0
LINE
 8
TOOL_0
 5
8A
 10
5325.961
 20
-1579.572
 30
0
 11
5040.303
 21
-832.651
 31
0
 0
LINE
 8
TOOL_0
 5
8B
 10
5040.303
 20
-832.651
 30
0
 11
5040.303
 21
-882.651
 31
0
 0
ARC
 8
TOOL_0
 5
8C
 10
5040.303
 20
-842.651
 30
0
 40
40.0
 50
270.0
 51
0
210
0
220
0
230
1.0
 0
LINE
 8
TOOL_0
 5
8D
 10
5080.303
 20
-842.651
 30
0
 11
5080.303
 21
-772.651
 31
0
 0
ARC
 8
TOOL_0
 5
8E
 10
5040.303
 20
-772.651
 30
0
 40
40.0
 50
0
 51
180.0
210
0
220
0
230
1.0
 0
LINE
 8
TOOL_0
 5
8F
 10
5000.303
 20
-772.651
 30
0
 11
5000.303
 21
-842.651
 31
0
 0
ARC
 8
TOOL_0
 5
90
 10
5040.303
 20
-842.651
 30
0
 40
40.0
 50
180.0
 51
270.0
210
0
220
0
230
1.0
 0
ARC
 8
TOOL_0
 5
91
 10
5040.303
 20
-874.651
 30
0
 40
8.0
 50
270.0
 51
327.299199559757
210
0
220
0
230
1.0
 0
LINE
 8
TOOL_0
 5
92
 10
5047.035
 20
-878.973
 30
0
 11
5330.042
 21
-1069.922
 31
0
 0
ARC
 8
TOOL_0
 5
93
 10
5320.303
 20
-1067.65
 30
0
 40
10.000505237236
 50
346.868395441071
 51
90.0
210
0
220
0
230
1.0
 0
LINE
 8
TOOL_0
 5
94
 10
5320.303
 20
-1057.65
 30
0
 11
4970.303
 21
-1057.65
 31
0
 0
LINE
 8
TOOL_0
 5
95
 10
4970.303
 20
-1057.65
 30
0
 11
4970.303
 21
-557.65
 31
0
 0
LINE
 8
TOOL_0
 5
96
 10
4970.303
 20
-557.65
 30
0
 11
5320.303
 21
-557.65
 31
0
 0
LINE
 8
TOOL_0
 5
97
 10
5320.303
 20
-557.65
 30
0
 11
5320.303
 21
-1057.65
 31
0
 0
LINE
 8
TOOL_0
 5
98
 10
5320.303
 20
-1057.65
 30
0
 11
5325.96
 21
-1063.307
 31
0
 0
LINE
 8
TOOL_0
 5
99
 10
5325.96
 20
-1063.307
 30
0
 11
5041.996
 21
-316.387
 31
0
 0
LINE
 8
TOOL_0
 5
9A
 10
5041.996
 20
-316.387
 30
0
 11
5041.996
 21
-366.387
 31
0
 0
ARC
 8
TOOL_0
 5
9B
 10
5041.996
 20
-326.387
 30
0
 40
40.0
 50
270.0
 51
0
210
0
220
0
230
1.0
 0
LINE
 8
TOOL_0
 5
9C
 10
5081.996
 20
-326.387
 30
0
 11
5081.996
 21
-256.387
 31
0
 0
ARC
 8
TOOL_0
 5
9D
 10
5041.996
 20
-256.387
 30
0
 40
40.0
 50
0
 51
180.0
210
0
220
0
230
1.0
 0
LINE
 8
TOOL_0
 5
9E
 10
5001.996
 20
-256.387
 30
0
 11
5001.996
 21
-326.387
 31
0
 0
ARC
 8
TOOL_0
 5
9F
 10
5041.996
 20
-326.387
 30
0
 40
40.0
 50
180.0
 51
270.0
210
0
220
0
230
1.0
 0
ARC
 8
TOOL_0
 5
A0
 10
5041.996
 20
-358.387
 30
0
 40
8.0
 50
270.0
 51
327.299199559757
210
0
220
0
230
1.0
 0
LINE
 8
TOOL_0
 5
A1
 10
5048.728
 20
-362.709
 30
0
 11
5331.735
 21
-553.659
 31
0
 0
ARC
 8
TOOL_0
 5
A2
 10
5321.997
 20
-551.387
 30
0
 40
9.99953138902
 50
346.867093685725
 51
90.0
210
0
220
0
230
1.0
 0
LINE
 8
TOOL_0
 5
A3
 10
5321.997
 20
-541.387
 30
0
 11
4971.997
 21
-541.387
 31
0
 0
LINE
 8
TOOL_0
 5
A4
 10
4971.997
 20
-541.387
 30
0
 11
4971.997
 21
-41.387
 31
0
 0
LINE
 8
TOOL_0
 5
A5
 10
4971.997
 20
-41.387
 30
0
 11
5321.997
 21
-41.387
 31
0
 0
LINE
 8
TOOL_0
 5
A6
 10
5321.997
 20
-41.387
 30
0
 11
5321.997
 21
-541.387
 31
0
 0
LINE
 8
TOOL_0
 5
A7
 10
5321.997
 20
-541.387
 30
0
 11
5327.654
 21
-547.044
 31
0
 0
LINE
 8
TOOL_0
 5
A8
 10
5327.654
 20
-547.044
 30
0
 11
5406.752
 21
-1864.998
 31
0
 0
LINE
 8
TOOL_0
 5
A9
 10
5406.752
 20
-1864.998
 30
0
 11
5406.752
 21
-1914.998
 31
0
 0
ARC
 8
TOOL_0
 5
AA
 10
5406.752
 20
-1874.998
 30
0
 40
40.0
 50
270.0
 51
0
210
0
220
0
230
1.0
 0
LINE
 8
TOOL_0
 5
AB
 10
5446.752
 20
-1874.998
 30
0
 11
5446.752
 21
-1804.998
 31
0
 0
ARC
 8
TOOL_0
 5
AC
 10
5406.752
 20
-1804.998
 30
0
 40
40.0
 50
0
 51
180.0
210
0
220
0
230
1.0
 0
LINE
 8
TOOL_0
 5
AD
 10
5366.752
 20
-1804.998
 30
0
 11
5366.752
 21
-1874.998
 31
0
 0
ARC
 8
TOOL_0
 5
AE
 10
5406.752
 20
-1874.998
 30
0
 40
40.0
 50
180.0
 51
270.0
210
0
220
0
230
1.0
 0
ARC
 8
TOOL_0
 5
AF
 10
5406.752
 20
-1906.998
 30
0
 40
8.0
 50
270.0
 51
327.299199559758
210
0
220
0
230
1.0
 0
LINE
 8
TOOL_0
 5
B0
 10
5413.484
 20
-1911.32
 30
0
 11
5701.752
 21
-2089.998
 31
0
 0
LINE
 8
TOOL_0
 5
B1
 10
5701.752
 20
-2089.998
 30
0
 11
5686.752
 21
-2089.998
 31
0
 0
LINE
 8
TOOL_0
 5
B2
 10
5686.752
 20
-2089.998
 30
0
 11
5336.752
 21
-2089.998
 31
0
 0
LINE
 8
TOOL_0
 5
B3
 10
5336.752
 20
-2089.998
 30
0
 11
5336.752
 21
-1589.998
 31
0
 0
LINE
 8
TOOL_0
 5
B4
 10
5336.752
 20
-1589.998
 30
0
 11
5686.752
 21
-1589.998
 31
0
 0
LINE
 8
TOOL_0
 5
B5
 10
5686.752
 20
-1589.998
 30
0
 11
5686.752
 21
-2089.998
 31
0
 0
LINE
 8
TOOL_0
 5
B6
 10
5686.752
 20
-2089.998
 30
0
 11
5686.752
 21
-2097.998
 31
0
 0
LINE
 8
TOOL_0
 5
B7
 10
5686.752
 20
-2097.998
 30
0
 11
5406.414
 21
-1348.914
 31
0
 0
LINE
 8
TOOL_0
 5
B8
 10
5406.414
 20
-1348.914
 30
0
 11
5406.414
 21
-1398.914
 31
0
 0
ARC
 8
TOOL_0
 5
B9
 10
5406.414
 20
-1358.914
 30
0
 40
40.0
 50
270.0
 51
0
210
0
220
0
230
1.0
 0
LINE
 8
TOOL_0
 5
BA
 10
5446.414
 20
-1358.914
 30
0
 11
5446.414
 21
-1288.914
 31
0
 0
ARC
 8
TOOL_0
 5
BB
 10
5406.414
 20
-1288.914
 30
0
 40
40.0
 50
0
 51
180.0
210
0
220
0
230
1.0
 0
LINE
 8
TOOL_0
 5
BC
 10
5366.414
 20
-1288.914
 30
0
 11
5366.414
 21
-1358.914
 31
0
 0
ARC
 8
TOOL_0
 5
BD
 10
5406.414
 20
-1358.914
 30
0
 40
40.0
 50
180.0
 51
270.0
210
0
220
0
230
1.0
 0
ARC
 8
TOOL_0
 5
BE
 10
5406.414
 20
-1390.914
 30
0
 40
8.0
 50
270.0
 51
327.299199559758
210
0
220
0
230
1.0
 0
LINE
 8
TOOL_0
 5
BF
 10
5413.146
 20
-1395.236
 30
0
 11
5701.414
 21
-1573.914
 31
0
 0
LINE
 8
TOOL_0
 5
C0
 10
5701.414
 20
-1573.914
 30
0
 11
5686.414
 21
-1573.914
 31
0
 0
LINE
 8
TOOL_0
 5
C1
 10
5686.414
 20
-1573.914
 30
0
 11
5336.414
 21
-1573.914
 31
0
 0
LINE
 8
TOOL_0
 5
C2
 10
5336.414
 20
-1573.914
 30
0
 11
5336.414
 21
-1073.914
 31
0
 0
LINE
 8
TOOL_0
 5
C3
 10
5336.414
 20
-1073.914
 30
0
 11
5686.414
 21
-1073.914
 31
0
 0
LINE
 8
TOOL_0
 5
C4
 10
5686.414
 20
-1073.914
 30
0
 11
5686.414
 21
-1573.914
 31
0
 0
LINE
 8
TOOL_0
 5
C5
 10
5686.414
 20
-1573.914
 30
0
 11
5686.414
 21
-1581.914
 31
0
 0
LINE
 8
TOOL_0
 5
C6
 10
5686.414
 20
-1581.914
 30
0
 11
5407.429
 21
-832.65
 31
0
 0
LINE
 8
TOOL_0
 5
C7
 10
5407.429
 20
-832.65
 30
0
 11
5407.429
 21
-882.65
 31
0
 0
ARC
 8
TOOL_0
 5
C8
 10
5407.429
 20
-842.65
 30
0
 40
40.0
 50
270.0
 51
0
210
0
220
0
230
1.0
 0
LINE
 8
TOOL_0
 5
C9
 10
5447.429
 20
-842.65
 30
0
 11
5447.429
 21
-772.65
 31
0
 0
ARC
 8
TOOL_0
 5
CA
 10
5407.429
 20
-772.65
 30
0
 40
40.0
 50
0
 51
180.0
210
0
220
0
230
1.0
 0
LINE
 8
TOOL_0
 5
CB
 10
5367.429
 20
-772.65
 30
0
 11
5367.429
 21
-842.65
 31
0
 0
ARC
 8
TOOL_0
 5
CC
 10
5407.429
 20
-842.65
 30
0
 40
40.0
 50
180.0
 51
270.0
210
0
220
0
230
1.0
 0
ARC
 8
TOOL_0
 5
CD
 10
5407.429
 20
-874.65
 30
0
 40
8.0
 50
270.0
 51
327.299199559757
210
0
220
0
230
1.0
 0
LINE
 8
TOOL_0
 5
CE
 10
5414.161
 20
-878.972
 30
0
 11
5702.429
 21
-1057.649
 31
0
 0
LINE
 8
TOOL_0
 5
CF
 10
5702.429
 20
-1057.649
 30
0
 11
5687.429
 21
-1057.649
 31
0
 0
LINE
 8
TOOL_0
 5
D0
 10
5687.429
 20
-1057.649
 30
0
 11
5337.429
 21
-1057.649
 31
0
 0
LINE
 8
TOOL_0
 5
D1
 10
5337.429
 20
-1057.649
 30
0
 11
5337.429
 21
-557.649
 31
0
 0
LINE
 8
TOOL_0
 5
D2
 10
5337.429
 20
-557.649
 30
0
 11
5687.429
 21
-557.649
 31
0
 0
LINE
 8
TOOL_0
 5
D3
 10
5687.429
 20
-557.649
 30
0
 11
5687.429
 21
-1057.649
 31
0
 0
LINE
 8
TOOL_0
 5
D4
 10
5687.429
 20
-1057.649
 30
0
 11
5687.429
 21
-1065.649
 31
0
 0
LINE
 8
TOOL_0
 5
D5
 10
5687.429
 20
-1065.649
 30
0
 11
5408.106
 21
-316.386
 31
0
 0
LINE
 8
TOOL_0
 5
D6
 10
5408.106
 20
-316.386
 30
0
 11
5408.106
 21
-366.386
 31
0
 0
ARC
 8
TOOL_0
 5
D7
 10
5408.106
 20
-326.386
 30
0
 40
40.0
 50
270.0
 51
0
210
0
220
0
230
1.0
 0
LINE
 8
TOOL_0
 5
D8
 10
5448.106
 20
-326.386
 30
0
 11
5448.106
 21
-256.386
 31
0
 0
ARC
 8
TOOL_0
 5
D9
 10
5408.106
 20
-256.386
 30
0
 40
40.0
 50
0
 51
180.0
210
0
220
0
230
1.0
 0
LINE
 8
TOOL_0
 5
DA
 10
5368.106
 20
-256.386
 30
0
 11
5368.106
 21
-326.386
 31
0
 0
ARC
 8
TOOL_0
 5
DB
 10
5408.106
 20
-326.386
 30
0
 40
40.0
 50
180.0
 51
270.0
210
0
220
0
230
1.0
 0
ARC
 8
TOOL_0
 5
DC
 10
5408.106
 20
-358.386
 30
0
 40
8.0
 50
270.0
 51
327.299199559757
210
0
220
0
230
1.0
 0
LINE
 8
TOOL_0
 5
DD
 10
5414.838
 20
-362.708
 30
0
 11
5703.106
 21
-541.386
 31
0
 0
LINE
 8
TOOL_0
 5
DE
 10
5703.106
 20
-541.386
 30
0
 11
5688.106
 21
-541.386
 31
0
 0
LINE
 8
TOOL_0
 5
DF
 10
5688.106
 20
-541.386
 30
0
 11
5338.106
 21
-541.386
 31
0
 0
LINE
 8
TOOL_0
 5
E0
 10
5338.106
 20
-541.386
 30
0
 11
5338.106
 21
-41.386
 31
0
 0
LINE
 8
TOOL_0
 5
E1
 10
5338.106
 20
-41.386
 30
0
 11
5688.106
 21
-41.386
 31
0
 0
LINE
 8
TOOL_0
 5
E2
 10
5688.106
 20
-41.386
 30
0
 11
5688.106
 21
-541.386
 31
0
 0
LINE
 8
TOOL_0
 5
E3
 10
5688.106
 20
-541.386
 30
0
 11
5688.106
 21
-549.386
 31
0
 0
ENDSEC
 0
EOF

