0
SECTION
2
TABLES
0
TABLE
2
LAYER
70
0
0
LAYER
2
LAYER_NAME
70
0
62
1
6
CONTINUOUS
0
ENDTAB
0
ENDSEC
 0
SECTION
 2
ENTITIES
 0
LINE
 8
TOOL_0
 5
1
 10
150.293
 20
124.881
 30
0
 11
180.293
 21
124.881
 31
0
 0
ARC
 8
TOOL_0
 5
2
 10
123.433
 20
124.881
 30
0
 40
56.86
 50
0
 51
180.0
210
0
220
0
230
1.0
 0
ARC
 8
TOOL_0
 5
3
 10
123.433
 20
124.881
 30
0
 40
56.86
 50
180.0
 51
0
210
0
220
0
230
1.0
 0
LINE
 8
TOOL_0
 5
4
 10
180.293
 20
124.881
 30
0
 11
173.222
 21
131.952
 31
0
 0
LINE
 8
TOOL_0
 5
5
 10
173.222
 20
131.952
 30
0
 11
232.891
 21
50.422
 31
0
 0
LINE
 8
TOOL_0
 5
6
 10
232.891
 20
50.422
 30
0
 11
197.891
 21
50.422
 31
0
 0
ARC
 8
TOOL_0
 5
7
 10
123.433
 20
124.88
 30
0
 40
105.299513427176
 50
134.999615250243
 51
315.0
210
0
220
0
230
1.0
 0
ARC
 8
TOOL_0
 5
8
 10
123.433
 20
124.88
 30
0
 40
105.300220536331
 50
315.0
 51
134.999615250243
210
0
220
0
230
1.0
 0
LINE
 8
TOOL_0
 5
9
 10
197.891
 20
50.422
 30
0
 11
197.891
 21
45.422
 31
0
 0
LINE
 8
TOOL_0
 5
A
 10
197.891
 20
45.422
 30
0
 11
376.913
 21
124.881
 31
0
 0
LINE
 8
TOOL_0
 5
B
 10
376.913
 20
124.881
 30
0
 11
406.913
 21
124.881
 31
0
 0
ARC
 8
TOOL_0
 5
C
 10
350.053
 20
124.881
 30
0
 40
56.86
 50
0
 51
180.0
210
0
220
0
230
1.0
 0
ARC
 8
TOOL_0
 5
D
 10
350.053
 20
124.881
 30
0
 40
56.86
 50
180.0
 51
0
210
0
220
0
230
1.0
 0
LINE
 8
TOOL_0
 5
E
 10
406.913
 20
124.881
 30
0
 11
399.842
 21
131.952
 31
0
 0
LINE
 8
TOOL_0
 5
F
 10
399.842
 20
131.952
 30
0
 11
459.511
 21
50.422
 31
0
 0
LINE
 8
TOOL_0
 5
10
 10
459.511
 20
50.422
 30
0
 11
424.511
 21
50.422
 31
0
 0
ARC
 8
TOOL_0
 5
11
 10
350.053
 20
124.88
 30
0
 40
105.299513427176
 50
134.999615250243
 51
315.0
210
0
220
0
230
1.0
 0
ARC
 8
TOOL_0
 5
12
 10
350.053
 20
124.88
 30
0
 40
105.300220536331
 50
315.0
 51
134.999615250243
210
0
220
0
230
1.0
 0
LINE
 8
TOOL_0
 5
13
 10
424.511
 20
50.422
 30
0
 11
424.511
 21
45.422
 31
0
 0
LINE
 8
TOOL_0
 5
14
 10
424.511
 20
45.422
 30
0
 11
603.533
 21
124.881
 31
0
 0
LINE
 8
TOOL_0
 5
15
 10
603.533
 20
124.881
 30
0
 11
633.533
 21
124.881
 31
0
 0
ARC
 8
TOOL_0
 5
16
 10
576.673
 20
124.881
 30
0
 40
56.86
 50
0
 51
180.0
210
0
220
0
230
1.0
 0
ARC
 8
TOOL_0
 5
17
 10
576.673
 20
124.881
 30
0
 40
56.86
 50
180.0
 51
0
210
0
220
0
230
1.0
 0
LINE
 8
TOOL_0
 5
18
 10
633.533
 20
124.881
 30
0
 11
626.462
 21
131.952
 31
0
 0
LINE
 8
TOOL_0
 5
19
 10
626.462
 20
131.952
 30
0
 11
686.132
 21
50.422
 31
0
 0
LINE
 8
TOOL_0
 5
1A
 10
686.132
 20
50.422
 30
0
 11
651.132
 21
50.422
 31
0
 0
ARC
 8
TOOL_0
 5
1B
 10
576.674
 20
124.88
 30
0
 40
105.299513427176
 50
134.999615250243
 51
315.0
210
0
220
0
230
1.0
 0
ARC
 8
TOOL_0
 5
1C
 10
576.674
 20
124.88
 30
0
 40
105.300220536331
 50
315.0
 51
134.999615250243
210
0
220
0
230
1.0
 0
LINE
 8
TOOL_0
 5
1D
 10
651.132
 20
50.422
 30
0
 11
651.132
 21
45.422
 31
0
 0
LINE
 8
TOOL_0
 5
1E
 10
651.132
 20
45.422
 30
0
 11
830.153
 21
124.881
 31
0
 0
LINE
 8
TOOL_0
 5
1F
 10
830.153
 20
124.881
 30
0
 11
860.153
 21
124.881
 31
0
 0
ARC
 8
TOOL_0
 5
20
 10
803.293
 20
124.881
 30
0
 40
56.86
 50
0
 51
180.0
210
0
220
0
230
1.0
 0
ARC
 8
TOOL_0
 5
21
 10
803.293
 20
124.881
 30
0
 40
56.86
 50
180.0
 51
0
210
0
220
0
230
1.0
 0
LINE
 8
TOOL_0
 5
22
 10
860.153
 20
124.881
 30
0
 11
853.082
 21
131.952
 31
0
 0
LINE
 8
TOOL_0
 5
23
 10
853.082
 20
131.952
 30
0
 11
912.752
 21
50.422
 31
0
 0
LINE
 8
TOOL_0
 5
24
 10
912.752
 20
50.422
 30
0
 11
877.752
 21
50.422
 31
0
 0
ARC
 8
TOOL_0
 5
25
 10
803.294
 20
124.88
 30
0
 40
105.299513427176
 50
134.999615250243
 51
315.0
210
0
220
0
230
1.0
 0
ARC
 8
TOOL_0
 5
26
 10
803.294
 20
124.88
 30
0
 40
105.300220536331
 50
315.0
 51
134.999615250243
210
0
220
0
230
1.0
 0
LINE
 8
TOOL_0
 5
27
 10
877.752
 20
50.422
 30
0
 11
877.752
 21
45.422
 31
0
 0
LINE
 8
TOOL_0
 5
28
 10
877.752
 20
45.422
 30
0
 11
877.752
 21
0
 31
0
 0
LINE
 8
TOOL_0
 5
29
 10
877.752
 20
0
 30
0
 11
150.293
 21
1040.661
 31
0
 0
LINE
 8
TOOL_0
 5
2A
 10
150.293
 20
1040.661
 30
0
 11
180.293
 21
1040.661
 31
0
 0
ARC
 8
TOOL_0
 5
2B
 10
123.433
 20
1040.661
 30
0
 40
56.86
 50
0
 51
180.0
210
0
220
0
230
1.0
 0
ARC
 8
TOOL_0
 5
2C
 10
123.433
 20
1040.661
 30
0
 40
56.86
 50
180.0
 51
0
210
0
220
0
230
1.0
 0
LINE
 8
TOOL_0
 5
2D
 10
180.293
 20
1040.661
 30
0
 11
173.222
 21
1047.732
 31
0
 0
LINE
 8
TOOL_0
 5
2E
 10
173.222
 20
1047.732
 30
0
 11
232.891
 21
966.203
 31
0
 0
LINE
 8
TOOL_0
 5
2F
 10
232.891
 20
966.203
 30
0
 11
197.891
 21
966.203
 31
0
 0
ARC
 8
TOOL_0
 5
30
 10
123.433
 20
1040.661
 30
0
 40
105.299513427176
 50
134.999615250243
 51
315.0
210
0
220
0
230
1.0
 0
ARC
 8
TOOL_0
 5
31
 10
123.433
 20
1040.661
 30
0
 40
105.300220536331
 50
315.0
 51
134.999615250243
210
0
220
0
230
1.0
 0
LINE
 8
TOOL_0
 5
32
 10
197.891
 20
966.203
 30
0
 11
197.891
 21
961.203
 31
0
 0
LINE
 8
TOOL_0
 5
33
 10
197.891
 20
961.203
 30
0
 11
376.913
 21
1040.661
 31
0
 0
LINE
 8
TOOL_0
 5
34
 10
376.913
 20
1040.661
 30
0
 11
406.913
 21
1040.661
 31
0
 0
ARC
 8
TOOL_0
 5
35
 10
350.053
 20
1040.661
 30
0
 40
56.86
 50
0
 51
180.0
210
0
220
0
230
1.0
 0
ARC
 8
TOOL_0
 5
36
 10
350.053
 20
1040.661
 30
0
 40
56.86
 50
180.0
 51
0
210
0
220
0
230
1.0
 0
LINE
 8
TOOL_0
 5
37
 10
406.913
 20
1040.661
 30
0
 11
399.842
 21
1047.732
 31
0
 0
LINE
 8
TOOL_0
 5
38
 10
399.842
 20
1047.732
 30
0
 11
459.511
 21
966.203
 31
0
 0
LINE
 8
TOOL_0
 5
39
 10
459.511
 20
966.203
 30
0
 11
424.511
 21
966.203
 31
0
 0
ARC
 8
TOOL_0
 5
3A
 10
350.053
 20
1040.661
 30
0
 40
105.299513427176
 50
134.999615250243
 51
315.0
210
0
220
0
230
1.0
 0
ARC
 8
TOOL_0
 5
3B
 10
350.053
 20
1040.661
 30
0
 40
105.300220536331
 50
315.0
 51
134.999615250243
210
0
220
0
230
1.0
 0
LINE
 8
TOOL_0
 5
3C
 10
424.511
 20
966.203
 30
0
 11
424.511
 21
961.203
 31
0
 0
LINE
 8
TOOL_0
 5
3D
 10
424.511
 20
961.203
 30
0
 11
603.533
 21
1040.661
 31
0
 0
LINE
 8
TOOL_0
 5
3E
 10
603.533
 20
1040.661
 30
0
 11
633.533
 21
1040.661
 31
0
 0
ARC
 8
TOOL_0
 5
3F
 10
576.673
 20
1040.661
 30
0
 40
56.86
 50
0
 51
180.0
210
0
220
0
230
1.0
 0
ARC
 8
TOOL_0
 5
40
 10
576.673
 20
1040.661
 30
0
 40
56.86
 50
180.0
 51
0
210
0
220
0
230
1.0
 0
LINE
 8
TOOL_0
 5
41
 10
633.533
 20
1040.661
 30
0
 11
626.462
 21
1047.732
 31
0
 0
LINE
 8
TOOL_0
 5
42
 10
626.462
 20
1047.732
 30
0
 11
686.132
 21
966.203
 31
0
 0
LINE
 8
TOOL_0
 5
43
 10
686.132
 20
966.203
 30
0
 11
651.132
 21
966.203
 31
0
 0
ARC
 8
TOOL_0
 5
44
 10
576.674
 20
1040.661
 30
0
 40
105.299513427176
 50
134.999615250243
 51
315.0
210
0
220
0
230
1.0
 0
ARC
 8
TOOL_0
 5
45
 10
576.674
 20
1040.661
 30
0
 40
105.300220536331
 50
315.0
 51
134.999615250243
210
0
220
0
230
1.0
 0
LINE
 8
TOOL_0
 5
46
 10
651.132
 20
966.203
 30
0
 11
651.132
 21
961.203
 31
0
 0
LINE
 8
TOOL_0
 5
47
 10
651.132
 20
961.203
 30
0
 11
830.153
 21
1041.63
 31
0
 0
LINE
 8
TOOL_0
 5
48
 10
830.153
 20
1041.63
 30
0
 11
860.153
 21
1041.63
 31
0
 0
ARC
 8
TOOL_0
 5
49
 10
803.293
 20
1041.63
 30
0
 40
56.86
 50
0
 51
180.0
210
0
220
0
230
1.0
 0
ARC
 8
TOOL_0
 5
4A
 10
803.293
 20
1041.63
 30
0
 40
56.86
 50
180.0
 51
0
210
0
220
0
230
1.0
 0
LINE
 8
TOOL_0
 5
4B
 10
860.153
 20
1041.63
 30
0
 11
853.082
 21
1048.701
 31
0
 0
LINE
 8
TOOL_0
 5
4C
 10
853.082
 20
1048.701
 30
0
 11
912.752
 21
967.172
 31
0
 0
LINE
 8
TOOL_0
 5
4D
 10
912.752
 20
967.172
 30
0
 11
877.752
 21
967.172
 31
0
 0
ARC
 8
TOOL_0
 5
4E
 10
803.294
 20
1041.63
 30
0
 40
105.299513427176
 50
134.999615250243
 51
315.0
210
0
220
0
230
1.0
 0
ARC
 8
TOOL_0
 5
4F
 10
803.294
 20
1041.63
 30
0
 40
105.300220536331
 50
315.0
 51
134.999615250243
210
0
220
0
230
1.0
 0
LINE
 8
TOOL_0
 5
50
 10
877.752
 20
967.172
 30
0
 11
877.752
 21
962.172
 31
0
 0
LINE
 8
TOOL_0
 5
51
 10
877.752
 20
962.172
 30
0
 11
939.693
 21
1172.217
 31
0
 0
LINE
 8
TOOL_0
 5
52
 10
939.693
 20
1172.217
 30
0
 11
939.693
 21
1171.217
 31
0
 0
LINE
 8
TOOL_0
 5
53
 10
939.693
 20
1171.217
 30
0
 11
939.693
 21
1172.217
 31
0
 0
LINE
 8
TOOL_0
 5
54
 10
939.693
 20
1172.217
 30
0
 11
939.693
 21
1171.217
 31
0
 0
LINE
 8
TOOL_0
 5
55
 10
939.693
 20
1171.217
 30
0
 11
939.693
 21
2.799
 31
0
 0
LINE
 8
TOOL_0
 5
56
 10
939.693
 20
2.799
 30
0
 11
939.693
 21
1.799
 31
0
 0
ENDSEC
 0
EOF

