0
SECTION
2
TABLES
0
TABLE
2
LAYER
70
0
0
LAYER
2
LAYER_NAME
70
0
62
1
6
CONTINUOUS
0
ENDTAB
0
ENDSEC
 0
SECTION
 2
ENTITIES
 0
LINE
 8
TOOL_0
 5
1
 10
787.642
 20
19.41
 30
0
 11
741.715
 21
21.411
 31
0
 0
LINE
 8
TOOL_0
 5
2
 10
741.715
 20
21.411
 30
0
 11
740.153
 21
23.974
 31
0
 0
LINE
 8
TOOL_0
 5
3
 10
740.153
 20
23.974
 30
0
 11
521.654
 21
23.974
 31
0
 0
ARC
 8
TOOL_0
 5
4
 10
521.654
 20
39.474
 30
0
 40
15.5
 50
180.0
 51
270.0
210
0
220
0
230
1.0
 0
LINE
 8
TOOL_0
 5
5
 10
506.154
 20
39.474
 30
0
 11
506.154
 21
81.974
 31
0
 0
ARC
 8
TOOL_0
 5
6
 10
463.654
 20
81.974
 30
0
 40
42.5
 50
0
 51
90.0
210
0
220
0
230
1.0
 0
LINE
 8
TOOL_0
 5
7
 10
463.654
 20
124.474
 30
0
 11
444.154
 21
124.474
 31
0
 0
ARC
 8
TOOL_0
 5
8
 10
444.154
 20
139.974
 30
0
 40
15.5
 50
180.0
 51
270.0
210
0
220
0
230
1.0
 0
LINE
 8
TOOL_0
 5
9
 10
428.654
 20
139.974
 30
0
 11
428.654
 21
385.974
 31
0
 0
ARC
 8
TOOL_0
 5
A
 10
444.154
 20
385.974
 30
0
 40
15.5
 50
90.0
 51
180.0
210
0
220
0
230
1.0
 0
LINE
 8
TOOL_0
 5
B
 10
444.154
 20
401.474
 30
0
 11
463.654
 21
401.474
 31
0
 0
ARC
 8
TOOL_0
 5
C
 10
463.654
 20
443.974
 30
0
 40
42.5
 50
270.0
 51
0
210
0
220
0
230
1.0
 0
LINE
 8
TOOL_0
 5
D
 10
506.154
 20
443.974
 30
0
 11
506.154
 21
486.474
 31
0
 0
ARC
 8
TOOL_0
 5
E
 10
521.654
 20
486.474
 30
0
 40
15.5
 50
90.0
 51
180.0
210
0
220
0
230
1.0
 0
LINE
 8
TOOL_0
 5
F
 10
521.654
 20
501.974
 30
0
 11
741.654
 21
501.974
 31
0
 0
ARC
 8
TOOL_0
 5
10
 10
741.654
 20
486.474
 30
0
 40
15.5
 50
0
 51
90.0
210
0
220
0
230
1.0
 0
LINE
 8
TOOL_0
 5
11
 10
757.154
 20
486.474
 30
0
 11
757.154
 21
443.974
 31
0
 0
ARC
 8
TOOL_0
 5
12
 10
799.654
 20
443.974
 30
0
 40
42.5
 50
180.0
 51
270.0
210
0
220
0
230
1.0
 0
LINE
 8
TOOL_0
 5
13
 10
799.654
 20
401.474
 30
0
 11
819.154
 21
401.474
 31
0
 0
ARC
 8
TOOL_0
 5
14
 10
819.154
 20
385.974
 30
0
 40
15.5
 50
0
 51
90.0
210
0
220
0
230
1.0
 0
LINE
 8
TOOL_0
 5
15
 10
834.654
 20
385.974
 30
0
 11
834.654
 21
139.974
 31
0
 0
ARC
 8
TOOL_0
 5
16
 10
819.154
 20
139.974
 30
0
 40
15.5
 50
270.0
 51
0
210
0
220
0
230
1.0
 0
LINE
 8
TOOL_0
 5
17
 10
819.154
 20
124.474
 30
0
 11
799.654
 21
124.474
 31
0
 0
ARC
 8
TOOL_0
 5
18
 10
799.654
 20
81.974
 30
0
 40
42.5
 50
90.0
 51
180.0
210
0
220
0
230
1.0
 0
LINE
 8
TOOL_0
 5
19
 10
757.154
 20
81.974
 30
0
 11
757.154
 21
39.474
 31
0
 0
ARC
 8
TOOL_0
 5
1A
 10
741.654
 20
39.474
 30
0
 40
15.5
 50
275.546174623166
 51
0
210
0
220
0
230
1.0
 0
LINE
 8
TOOL_0
 5
1B
 10
743.152
 20
24.047
 30
0
 11
741.715
 21
21.411
 31
0
 0
LINE
 8
TOOL_0
 5
1C
 10
741.715
 20
21.411
 30
0
 11
738.367
 21
14.873
 31
0
 0
LINE
 8
TOOL_0
 5
1D
 10
738.367
 20
14.873
 30
0
 11
1223.816
 21
74.767
 31
0
 0
LINE
 8
TOOL_0
 5
1E
 10
1223.816
 20
74.767
 30
0
 11
1188.46
 21
39.412
 31
0
 0
LINE
 8
TOOL_0
 5
1F
 10
1188.46
 20
39.412
 30
0
 11
1185.824
 21
37.975
 31
0
 0
ARC
 8
TOOL_0
 5
20
 10
1170.397
 20
39.474
 30
0
 40
15.49965580263
 50
270.0
 51
354.450146097906
210
0
220
0
230
1.0
 0
LINE
 8
TOOL_0
 5
21
 10
1170.397
 20
23.974
 30
0
 11
950.397
 21
23.974
 31
0
 0
ARC
 8
TOOL_0
 5
22
 10
950.397
 20
39.474
 30
0
 40
15.5
 50
180.0
 51
270.0
210
0
220
0
230
1.0
 0
LINE
 8
TOOL_0
 5
23
 10
934.897
 20
39.474
 30
0
 11
934.897
 21
81.974
 31
0
 0
ARC
 8
TOOL_0
 5
24
 10
892.397
 20
81.974
 30
0
 40
42.5
 50
0
 51
90.0
210
0
220
0
230
1.0
 0
LINE
 8
TOOL_0
 5
25
 10
892.397
 20
124.474
 30
0
 11
872.897
 21
124.474
 31
0
 0
ARC
 8
TOOL_0
 5
26
 10
872.897
 20
139.974
 30
0
 40
15.5
 50
180.0
 51
270.0
210
0
220
0
230
1.0
 0
LINE
 8
TOOL_0
 5
27
 10
857.397
 20
139.974
 30
0
 11
857.397
 21
385.974
 31
0
 0
ARC
 8
TOOL_0
 5
28
 10
872.897
 20
385.974
 30
0
 40
15.5
 50
90.0
 51
180.0
210
0
220
0
230
1.0
 0
LINE
 8
TOOL_0
 5
29
 10
872.897
 20
401.474
 30
0
 11
892.397
 21
401.474
 31
0
 0
ARC
 8
TOOL_0
 5
2A
 10
892.397
 20
443.974
 30
0
 40
42.5
 50
270.0
 51
0
210
0
220
0
230
1.0
 0
LINE
 8
TOOL_0
 5
2B
 10
934.897
 20
443.974
 30
0
 11
934.897
 21
486.474
 31
0
 0
ARC
 8
TOOL_0
 5
2C
 10
950.397
 20
486.474
 30
0
 40
15.5
 50
90.0
 51
180.0
210
0
220
0
230
1.0
 0
LINE
 8
TOOL_0
 5
2D
 10
950.397
 20
501.974
 30
0
 11
1170.397
 21
501.974
 31
0
 0
ARC
 8
TOOL_0
 5
2E
 10
1170.397
 20
486.474
 30
0
 40
15.5
 50
0
 51
90.0
210
0
220
0
230
1.0
 0
LINE
 8
TOOL_0
 5
2F
 10
1185.897
 20
486.474
 30
0
 11
1185.897
 21
443.974
 31
0
 0
ARC
 8
TOOL_0
 5
30
 10
1228.397
 20
443.974
 30
0
 40
42.5
 50
180.0
 51
270.0
210
0
220
0
230
1.0
 0
LINE
 8
TOOL_0
 5
31
 10
1228.397
 20
401.474
 30
0
 11
1247.897
 21
401.474
 31
0
 0
ARC
 8
TOOL_0
 5
32
 10
1247.897
 20
385.974
 30
0
 40
15.5
 50
0
 51
90.0
210
0
220
0
230
1.0
 0
LINE
 8
TOOL_0
 5
33
 10
1263.397
 20
385.974
 30
0
 11
1263.397
 21
139.974
 31
0
 0
ARC
 8
TOOL_0
 5
34
 10
1247.897
 20
139.974
 30
0
 40
15.5
 50
270.0
 51
0
210
0
220
0
230
1.0
 0
LINE
 8
TOOL_0
 5
35
 10
1247.897
 20
124.474
 30
0
 11
1228.397
 21
124.474
 31
0
 0
ARC
 8
TOOL_0
 5
36
 10
1228.397
 20
81.974
 30
0
 40
42.5
 50
90.0
 51
180.0
210
0
220
0
230
1.0
 0
LINE
 8
TOOL_0
 5
37
 10
1185.897
 20
81.974
 30
0
 11
1185.897
 21
40.974
 31
0
 0
LINE
 8
TOOL_0
 5
38
 10
1185.897
 20
40.974
 30
0
 11
1188.46
 21
39.411
 31
0
 0
LINE
 8
TOOL_0
 5
39
 10
1188.46
 20
39.411
 30
0
 11
1195.531
 21
32.34
 31
0
 0
LINE
 8
TOOL_0
 5
3A
 10
1195.531
 20
32.34
 30
0
 11
1290.922
 21
-0.001
 31
0
 0
LINE
 8
TOOL_0
 5
3B
 10
1290.922
 20
-0.001
 30
0
 11
1290.922
 21
0.999
 31
0
 0
LINE
 8
TOOL_0
 5
3C
 10
1290.922
 20
0.999
 30
0
 11
1290.922
 21
-0.001
 31
0
 0
LINE
 8
TOOL_0
 5
3D
 10
1290.922
 20
-0.001
 30
0
 11
1290.922
 21
-0.001
 31
0
 0
LINE
 8
TOOL_0
 5
3E
 10
1290.922
 20
-0.001
 30
0
 11
1290.922
 21
0.999
 31
0
 0
LINE
 8
TOOL_0
 5
3F
 10
1290.922
 20
0.999
 30
0
 11
1290.922
 21
1842.857
 31
0
 0
LINE
 8
TOOL_0
 5
40
 10
1290.922
 20
1842.857
 30
0
 11
1290.922
 21
1843.857
 31
0
 0
ENDSEC
 0
EOF

