0
SECTION
2
TABLES
0
TABLE
2
LAYER
70
0
0
LAYER
2
LAYER_NAME
70
0
62
1
6
CONTINUOUS
0
ENDTAB
0
ENDSEC
 0
SECTION
 2
ENTITIES
 0
LINE
 8
TOOL_0
 5
1
 10
1029.25
 20
2549.251
 30
0
 11
1059.25
 21
2549.251
 31
0
 0
ARC
 8
TOOL_0
 5
2
 10
1024.25
 20
2549.251
 30
0
 40
35.0
 50
0
 51
180.0
210
0
220
0
230
1.0
 0
ARC
 8
TOOL_0
 5
3
 10
1024.25
 20
2549.251
 30
0
 40
35.0
 50
180.0
 51
0
210
0
220
0
230
1.0
 0
LINE
 8
TOOL_0
 5
4
 10
1059.25
 20
2549.251
 30
0
 11
1052.179
 21
2556.322
 31
0
 0
LINE
 8
TOOL_0
 5
5
 10
1052.179
 20
2556.322
 30
0
 11
634.25
 21
2314.251
 31
0
 0
LINE
 8
TOOL_0
 5
6
 10
634.25
 20
2314.251
 30
0
 11
664.25
 21
2314.251
 31
0
 0
LINE
 8
TOOL_0
 5
7
 10
664.25
 20
2314.251
 30
0
 11
664.25
 21
2344.251
 31
0
 0
ARC
 8
TOOL_0
 5
8
 10
654.25
 20
2344.251
 30
0
 40
10.0
 50
0
 51
90.0
210
0
220
0
230
1.0
 0
LINE
 8
TOOL_0
 5
9
 10
654.25
 20
2354.251
 30
0
 11
474.25
 21
2354.251
 31
0
 0
ARC
 8
TOOL_0
 5
A
 10
474.25
 20
2344.251
 30
0
 40
10.0
 50
90.0
 51
180.0
210
0
220
0
230
1.0
 0
LINE
 8
TOOL_0
 5
B
 10
464.25
 20
2344.251
 30
0
 11
464.25
 21
2284.251
 31
0
 0
ARC
 8
TOOL_0
 5
C
 10
474.25
 20
2284.251
 30
0
 40
10.0
 50
180.0
 51
270.0
210
0
220
0
230
1.0
 0
LINE
 8
TOOL_0
 5
D
 10
474.25
 20
2274.251
 30
0
 11
654.25
 21
2274.251
 31
0
 0
ARC
 8
TOOL_0
 5
E
 10
654.25
 20
2284.251
 30
0
 40
10.0
 50
270.0
 51
0
210
0
220
0
230
1.0
 0
LINE
 8
TOOL_0
 5
F
 10
664.25
 20
2284.251
 30
0
 11
664.25
 21
2314.251
 31
0
 0
LINE
 8
TOOL_0
 5
10
 10
664.25
 20
2314.251
 30
0
 11
657.179
 21
2321.322
 31
0
 0
LINE
 8
TOOL_0
 5
11
 10
657.179
 20
2321.322
 30
0
 11
1042.25
 21
1904.251
 31
0
 0
LINE
 8
TOOL_0
 5
12
 10
1042.25
 20
1904.251
 30
0
 11
1072.25
 21
1904.251
 31
0
 0
ARC
 8
TOOL_0
 5
13
 10
1052.25
 20
1904.251
 30
0
 40
20.0
 50
0
 51
66.867990902554
210
0
220
0
230
1.0
 0
LINE
 8
TOOL_0
 5
14
 10
1060.107
 20
1922.643
 30
0
 11
1036.428
 21
1932.759
 31
0
 0
ARC
 8
TOOL_0
 5
15
 10
1024.249
 20
1904.073
 30
0
 40
31.164316726025
 50
66.9957430162
 51
113.002564662372
210
0
220
0
230
1.0
 0
LINE
 8
TOOL_0
 5
16
 10
1012.071
 20
1932.759
 30
0
 11
988.392
 21
1922.643
 31
0
 0
ARC
 8
TOOL_0
 5
17
 10
996.249
 20
1904.251
 30
0
 40
19.999952824944
 50
113.132009097445
 51
246.867990902554
210
0
220
0
230
1.0
 0
LINE
 8
TOOL_0
 5
18
 10
988.392
 20
1885.859
 30
0
 11
1012.071
 21
1875.743
 31
0
 0
ARC
 8
TOOL_0
 5
19
 10
1024.25
 20
1904.429
 30
0
 40
31.164316726025
 50
246.995743016199
 51
293.002564662372
210
0
220
0
230
1.0
 0
LINE
 8
TOOL_0
 5
1A
 10
1036.428
 20
1875.743
 30
0
 11
1060.107
 21
1885.859
 31
0
 0
ARC
 8
TOOL_0
 5
1B
 10
1052.25
 20
1904.251
 30
0
 40
19.999952824944
 50
293.132009097446
 51
0
210
0
220
0
230
1.0
 0
LINE
 8
TOOL_0
 5
1C
 10
1072.25
 20
1904.251
 30
0
 11
1065.179
 21
1911.322
 31
0
 0
LINE
 8
TOOL_0
 5
1D
 10
1065.179
 20
1911.322
 30
0
 11
364.25
 21
96.251
 31
0
 0
LINE
 8
TOOL_0
 5
1E
 10
364.25
 20
96.251
 30
0
 11
394.25
 21
96.251
 31
0
 0
LINE
 8
TOOL_0
 5
1F
 10
394.25
 20
96.251
 30
0
 11
394.25
 21
126.251
 31
0
 0
ARC
 8
TOOL_0
 5
20
 10
364.25
 20
126.251
 30
0
 40
30.0
 50
0
 51
90.0
210
0
220
0
230
1.0
 0
LINE
 8
TOOL_0
 5
21
 10
364.25
 20
156.251
 30
0
 11
294.25
 21
156.251
 31
0
 0
ARC
 8
TOOL_0
 5
22
 10
294.25
 20
126.251
 30
0
 40
30.0
 50
90.0
 51
180.0
210
0
220
0
230
1.0
 0
LINE
 8
TOOL_0
 5
23
 10
264.25
 20
126.251
 30
0
 11
264.25
 21
66.251
 31
0
 0
ARC
 8
TOOL_0
 5
24
 10
274.25
 20
66.251
 30
0
 40
10.0
 50
180.0
 51
270.0
210
0
220
0
230
1.0
 0
LINE
 8
TOOL_0
 5
25
 10
274.25
 20
56.251
 30
0
 11
384.25
 21
56.251
 31
0
 0
ARC
 8
TOOL_0
 5
26
 10
384.25
 20
66.251
 30
0
 40
10.0
 50
270.0
 51
0
210
0
220
0
230
1.0
 0
LINE
 8
TOOL_0
 5
27
 10
394.25
 20
66.251
 30
0
 11
394.25
 21
96.251
 31
0
 0
LINE
 8
TOOL_0
 5
28
 10
394.25
 20
96.251
 30
0
 11
387.179
 21
103.322
 31
0
 0
LINE
 8
TOOL_0
 5
29
 10
387.179
 20
103.322
 30
0
 11
444.25
 21
216.251
 31
0
 0
LINE
 8
TOOL_0
 5
2A
 10
444.25
 20
216.251
 30
0
 11
474.25
 21
216.251
 31
0
 0
LINE
 8
TOOL_0
 5
2B
 10
474.25
 20
216.251
 30
0
 11
474.25
 21
246.251
 31
0
 0
ARC
 8
TOOL_0
 5
2C
 10
454.25
 20
246.251
 30
0
 40
20.0
 50
0
 51
90.0
210
0
220
0
230
1.0
 0
LINE
 8
TOOL_0
 5
2D
 10
454.25
 20
266.251
 30
0
 11
394.25
 21
266.251
 31
0
 0
ARC
 8
TOOL_0
 5
2E
 10
394.25
 20
246.251
 30
0
 40
20.0
 50
90.0
 51
180.0
210
0
220
0
230
1.0
 0
LINE
 8
TOOL_0
 5
2F
 10
374.25
 20
246.251
 30
0
 11
374.25
 21
186.251
 31
0
 0
ARC
 8
TOOL_0
 5
30
 10
394.25
 20
186.251
 30
0
 40
20.0
 50
180.0
 51
270.0
210
0
220
0
230
1.0
 0
LINE
 8
TOOL_0
 5
31
 10
394.25
 20
166.251
 30
0
 11
454.25
 21
166.251
 31
0
 0
ARC
 8
TOOL_0
 5
32
 10
454.25
 20
186.251
 30
0
 40
20.0
 50
270.0
 51
0
210
0
220
0
230
1.0
 0
LINE
 8
TOOL_0
 5
33
 10
474.25
 20
186.251
 30
0
 11
474.25
 21
216.251
 31
0
 0
LINE
 8
TOOL_0
 5
34
 10
474.25
 20
216.251
 30
0
 11
467.179
 21
223.322
 31
0
 0
LINE
 8
TOOL_0
 5
35
 10
467.179
 20
223.322
 30
0
 11
1439.25
 21
189.251
 31
0
 0
LINE
 8
TOOL_0
 5
36
 10
1439.25
 20
189.251
 30
0
 11
1469.25
 21
189.251
 31
0
 0
LINE
 8
TOOL_0
 5
37
 10
1469.25
 20
189.251
 30
0
 11
1469.25
 21
219.251
 31
0
 0
ARC
 8
TOOL_0
 5
38
 10
1449.25
 20
219.251
 30
0
 40
20.0
 50
0
 51
90.0
210
0
220
0
230
1.0
 0
LINE
 8
TOOL_0
 5
39
 10
1449.25
 20
239.251
 30
0
 11
1389.25
 21
239.251
 31
0
 0
ARC
 8
TOOL_0
 5
3A
 10
1389.25
 20
219.251
 30
0
 40
20.0
 50
90.0
 51
180.0
210
0
220
0
230
1.0
 0
LINE
 8
TOOL_0
 5
3B
 10
1369.25
 20
219.251
 30
0
 11
1369.25
 21
159.251
 31
0
 0
ARC
 8
TOOL_0
 5
3C
 10
1389.25
 20
159.251
 30
0
 40
20.0
 50
180.0
 51
270.0
210
0
220
0
230
1.0
 0
LINE
 8
TOOL_0
 5
3D
 10
1389.25
 20
139.251
 30
0
 11
1449.25
 21
139.251
 31
0
 0
ARC
 8
TOOL_0
 5
3E
 10
1449.25
 20
159.251
 30
0
 40
20.0
 50
270.0
 51
0
210
0
220
0
230
1.0
 0
LINE
 8
TOOL_0
 5
3F
 10
1469.25
 20
159.251
 30
0
 11
1469.25
 21
189.251
 31
0
 0
LINE
 8
TOOL_0
 5
40
 10
1469.25
 20
189.251
 30
0
 11
1462.179
 21
196.322
 31
0
 0
LINE
 8
TOOL_0
 5
41
 10
1462.179
 20
196.322
 30
0
 11
1495.25
 21
768.035
 31
0
 0
LINE
 8
TOOL_0
 5
42
 10
1495.25
 20
768.035
 30
0
 11
1495.25
 21
736.665
 31
0
 0
LINE
 8
TOOL_0
 5
43
 10
1495.25
 20
736.665
 30
0
 11
1495.25
 21
11.837
 31
0
 0
LINE
 8
TOOL_0
 5
44
 10
1495.25
 20
11.837
 30
0
 11
1486.664
 21
3.251
 31
0
 0
LINE
 8
TOOL_0
 5
45
 10
1486.664
 20
3.251
 30
0
 11
10.25
 21
3.251
 31
0
 0
ARC
 8
TOOL_0
 5
46
 10
10.25
 20
10.251
 30
0
 40
7.0
 50
180.0
 51
270.0
210
0
220
0
230
1.0
 0
LINE
 8
TOOL_0
 5
47
 10
3.25
 20
10.251
 30
0
 11
3.25
 21
2630.251
 31
0
 0
LINE
 8
TOOL_0
 5
48
 10
3.25
 20
2630.251
 30
0
 11
1621.25
 21
2630.251
 31
0
 0
ARC
 8
TOOL_0
 5
49
 10
1621.25
 20
2623.251
 30
0
 40
7.0
 50
0
 51
90.0
210
0
220
0
230
1.0
 0
LINE
 8
TOOL_0
 5
4A
 10
1628.25
 20
2623.251
 30
0
 11
1628.25
 21
2149.251
 31
0
 0
LINE
 8
TOOL_0
 5
4B
 10
1628.25
 20
2149.251
 30
0
 11
1480.25
 21
2149.251
 31
0
 0
LINE
 8
TOOL_0
 5
4C
 10
1480.25
 20
2149.251
 30
0
 11
1480.25
 21
2184.251
 31
0
 0
ARC
 8
TOOL_0
 5
4D
 10
1459.25
 20
2184.251
 30
0
 40
21.0
 50
0
 51
147.688053502426
210
0
220
0
230
1.0
 0
LINE
 8
TOOL_0
 5
4E
 10
1441.502
 20
2195.476
 30
0
 11
1408.192
 21
2142.807
 31
0
 0
ARC
 8
TOOL_0
 5
4F
 10
1424.25
 20
2132.651
 30
0
 40
19.000097368172
 50
147.688392683242
 51
243.424159673344
210
0
220
0
230
1.0
 0
LINE
 8
TOOL_0
 5
50
 10
1415.75
 20
2115.659
 30
0
 11
1415.75
 21
1570.252
 31
0
 0
LINE
 8
TOOL_0
 5
51
 10
1415.75
 20
1570.252
 30
0
 11
1378.649
 21
1570.252
 31
0
 0
ARC
 8
TOOL_0
 5
52
 10
1373.75
 20
1571.252
 30
0
 40
5.000020099959
 50
348.463087982614
 51
90.0
210
0
220
0
230
1.0
 0
LINE
 8
TOOL_0
 5
53
 10
1373.75
 20
1576.252
 30
0
 11
1329.25
 21
1576.252
 31
0
 0
ARC
 8
TOOL_0
 5
54
 10
1329.25
 20
1377.252
 30
0
 40
199.0
 50
90.0
 51
180.0
210
0
220
0
230
1.0
 0
LINE
 8
TOOL_0
 5
55
 10
1130.25
 20
1377.252
 30
0
 11
1130.25
 21
944.252
 31
0
 0
ARC
 8
TOOL_0
 5
56
 10
1329.25
 20
944.252
 30
0
 40
199.0
 50
180.0
 51
270.0
210
0
220
0
230
1.0
 0
LINE
 8
TOOL_0
 5
57
 10
1329.25
 20
745.252
 30
0
 11
1486.664
 21
745.252
 31
0
 0
LINE
 8
TOOL_0
 5
58
 10
1486.664
 20
745.252
 30
0
 11
1495.25
 21
736.666
 31
0
 0
LINE
 8
TOOL_0
 5
59
 10
1495.25
 20
736.666
 30
0
 11
1499.163
 21
733.571
 31
0
 0
LINE
 8
TOOL_0
 5
5A
 10
1499.163
 20
733.571
 30
0
 11
1738.219
 21
2444.252
 31
0
 0
LINE
 8
TOOL_0
 5
5B
 10
1738.219
 20
2444.252
 30
0
 11
1768.219
 21
2444.252
 31
0
 0
LINE
 8
TOOL_0
 5
5C
 10
1768.219
 20
2444.252
 30
0
 11
1768.219
 21
2474.252
 31
0
 0
ARC
 8
TOOL_0
 5
5D
 10
1748.219
 20
2474.252
 30
0
 40
20.0
 50
0
 51
90.0
210
0
220
0
230
1.0
 0
LINE
 8
TOOL_0
 5
5E
 10
1748.219
 20
2494.252
 30
0
 11
1688.219
 21
2494.252
 31
0
 0
ARC
 8
TOOL_0
 5
5F
 10
1688.219
 20
2474.252
 30
0
 40
20.0
 50
90.0
 51
180.0
210
0
220
0
230
1.0
 0
LINE
 8
TOOL_0
 5
60
 10
1668.219
 20
2474.252
 30
0
 11
1668.219
 21
2414.252
 31
0
 0
ARC
 8
TOOL_0
 5
61
 10
1688.219
 20
2414.252
 30
0
 40
20.0
 50
180.0
 51
270.0
210
0
220
0
230
1.0
 0
LINE
 8
TOOL_0
 5
62
 10
1688.219
 20
2394.252
 30
0
 11
1748.219
 21
2394.252
 31
0
 0
ARC
 8
TOOL_0
 5
63
 10
1748.219
 20
2414.252
 30
0
 40
20.0
 50
270.0
 51
0
210
0
220
0
230
1.0
 0
LINE
 8
TOOL_0
 5
64
 10
1768.219
 20
2414.252
 30
0
 11
1768.219
 21
2444.252
 31
0
 0
LINE
 8
TOOL_0
 5
65
 10
1768.219
 20
2444.252
 30
0
 11
1761.148
 21
2451.323
 31
0
 0
LINE
 8
TOOL_0
 5
66
 10
1761.148
 20
2451.323
 30
0
 11
2843.219
 21
2537.252
 31
0
 0
LINE
 8
TOOL_0
 5
67
 10
2843.219
 20
2537.252
 30
0
 11
2873.219
 21
2537.252
 31
0
 0
LINE
 8
TOOL_0
 5
68
 10
2873.219
 20
2537.252
 30
0
 11
2873.219
 21
2567.252
 31
0
 0
ARC
 8
TOOL_0
 5
69
 10
2863.219
 20
2567.252
 30
0
 40
10.0
 50
0
 51
90.0
210
0
220
0
230
1.0
 0
LINE
 8
TOOL_0
 5
6A
 10
2863.219
 20
2577.252
 30
0
 11
2753.219
 21
2577.252
 31
0
 0
ARC
 8
TOOL_0
 5
6B
 10
2753.219
 20
2567.252
 30
0
 40
10.0
 50
90.0
 51
180.0
210
0
220
0
230
1.0
 0
LINE
 8
TOOL_0
 5
6C
 10
2743.219
 20
2567.252
 30
0
 11
2743.219
 21
2507.252
 31
0
 0
ARC
 8
TOOL_0
 5
6D
 10
2773.219
 20
2507.252
 30
0
 40
30.0
 50
180.0
 51
270.0
210
0
220
0
230
1.0
 0
LINE
 8
TOOL_0
 5
6E
 10
2773.219
 20
2477.252
 30
0
 11
2843.219
 21
2477.252
 31
0
 0
ARC
 8
TOOL_0
 5
6F
 10
2843.219
 20
2507.252
 30
0
 40
30.0
 50
270.0
 51
0
210
0
220
0
230
1.0
 0
LINE
 8
TOOL_0
 5
70
 10
2873.219
 20
2507.252
 30
0
 11
2873.219
 21
2537.252
 31
0
 0
LINE
 8
TOOL_0
 5
71
 10
2873.219
 20
2537.252
 30
0
 11
2866.148
 21
2544.323
 31
0
 0
LINE
 8
TOOL_0
 5
72
 10
2866.148
 20
2544.323
 30
0
 11
2733.219
 21
2417.252
 31
0
 0
LINE
 8
TOOL_0
 5
73
 10
2733.219
 20
2417.252
 30
0
 11
2763.219
 21
2417.252
 31
0
 0
LINE
 8
TOOL_0
 5
74
 10
2763.219
 20
2417.252
 30
0
 11
2763.219
 21
2447.252
 31
0
 0
ARC
 8
TOOL_0
 5
75
 10
2743.219
 20
2447.252
 30
0
 40
20.0
 50
0
 51
90.0
210
0
220
0
230
1.0
 0
LINE
 8
TOOL_0
 5
76
 10
2743.219
 20
2467.252
 30
0
 11
2683.219
 21
2467.252
 31
0
 0
ARC
 8
TOOL_0
 5
77
 10
2683.219
 20
2447.252
 30
0
 40
20.0
 50
90.0
 51
180.0
210
0
220
0
230
1.0
 0
LINE
 8
TOOL_0
 5
78
 10
2663.219
 20
2447.252
 30
0
 11
2663.219
 21
2387.252
 31
0
 0
ARC
 8
TOOL_0
 5
79
 10
2683.219
 20
2387.252
 30
0
 40
20.0
 50
180.0
 51
270.0
210
0
220
0
230
1.0
 0
LINE
 8
TOOL_0
 5
7A
 10
2683.219
 20
2367.252
 30
0
 11
2743.219
 21
2367.252
 31
0
 0
ARC
 8
TOOL_0
 5
7B
 10
2743.219
 20
2387.252
 30
0
 40
20.0
 50
270.0
 51
0
210
0
220
0
230
1.0
 0
LINE
 8
TOOL_0
 5
7C
 10
2763.219
 20
2387.252
 30
0
 11
2763.219
 21
2417.252
 31
0
 0
LINE
 8
TOOL_0
 5
7D
 10
2763.219
 20
2417.252
 30
0
 11
2756.148
 21
2424.323
 31
0
 0
LINE
 8
TOOL_0
 5
7E
 10
2756.148
 20
2424.323
 30
0
 11
2643.219
 21
319.252
 31
0
 0
LINE
 8
TOOL_0
 5
7F
 10
2643.219
 20
319.252
 30
0
 11
2673.219
 21
319.252
 31
0
 0
LINE
 8
TOOL_0
 5
80
 10
2673.219
 20
319.252
 30
0
 11
2673.219
 21
349.252
 31
0
 0
ARC
 8
TOOL_0
 5
81
 10
2663.219
 20
349.252
 30
0
 40
10.0
 50
0
 51
90.0
210
0
220
0
230
1.0
 0
LINE
 8
TOOL_0
 5
82
 10
2663.219
 20
359.252
 30
0
 11
2483.219
 21
359.252
 31
0
 0
ARC
 8
TOOL_0
 5
83
 10
2483.219
 20
349.252
 30
0
 40
10.0
 50
90.0
 51
180.0
210
0
220
0
230
1.0
 0
LINE
 8
TOOL_0
 5
84
 10
2473.219
 20
349.252
 30
0
 11
2473.219
 21
289.252
 31
0
 0
ARC
 8
TOOL_0
 5
85
 10
2483.219
 20
289.252
 30
0
 40
10.0
 50
180.0
 51
270.0
210
0
220
0
230
1.0
 0
LINE
 8
TOOL_0
 5
86
 10
2483.219
 20
279.252
 30
0
 11
2663.219
 21
279.252
 31
0
 0
ARC
 8
TOOL_0
 5
87
 10
2663.219
 20
289.252
 30
0
 40
10.0
 50
270.0
 51
0
210
0
220
0
230
1.0
 0
LINE
 8
TOOL_0
 5
88
 10
2673.219
 20
289.252
 30
0
 11
2673.219
 21
319.252
 31
0
 0
LINE
 8
TOOL_0
 5
89
 10
2673.219
 20
319.252
 30
0
 11
2666.148
 21
326.323
 31
0
 0
LINE
 8
TOOL_0
 5
8A
 10
2666.148
 20
326.323
 30
0
 11
2118.219
 21
84.252
 31
0
 0
LINE
 8
TOOL_0
 5
8B
 10
2118.219
 20
84.252
 30
0
 11
2148.219
 21
84.252
 31
0
 0
ARC
 8
TOOL_0
 5
8C
 10
2113.219
 20
84.252
 30
0
 40
35.0
 50
0
 51
180.0
210
0
220
0
230
1.0
 0
ARC
 8
TOOL_0
 5
8D
 10
2113.219
 20
84.252
 30
0
 40
35.0
 50
180.0
 51
0
210
0
220
0
230
1.0
 0
LINE
 8
TOOL_0
 5
8E
 10
2148.219
 20
84.252
 30
0
 11
2141.148
 21
91.323
 31
0
 0
LINE
 8
TOOL_0
 5
8F
 10
2141.148
 20
91.323
 30
0
 11
2131.219
 21
729.252
 31
0
 0
LINE
 8
TOOL_0
 5
90
 10
2131.219
 20
729.252
 30
0
 11
2161.219
 21
729.252
 31
0
 0
ARC
 8
TOOL_0
 5
91
 10
2141.219
 20
729.252
 30
0
 40
20.0
 50
0
 51
66.867990902554
210
0
220
0
230
1.0
 0
LINE
 8
TOOL_0
 5
92
 10
2149.076
 20
747.644
 30
0
 11
2125.397
 21
757.76
 31
0
 0
ARC
 8
TOOL_0
 5
93
 10
2113.218
 20
729.074
 30
0
 40
31.164316726025
 50
66.9957430162
 51
113.002564662372
210
0
220
0
230
1.0
 0
LINE
 8
TOOL_0
 5
94
 10
2101.04
 20
757.76
 30
0
 11
2077.361
 21
747.644
 31
0
 0
ARC
 8
TOOL_0
 5
95
 10
2085.218
 20
729.252
 30
0
 40
19.999952824944
 50
113.132009097445
 51
246.867990902554
210
0
220
0
230
1.0
 0
LINE
 8
TOOL_0
 5
96
 10
2077.361
 20
710.86
 30
0
 11
2101.04
 21
700.744
 31
0
 0
ARC
 8
TOOL_0
 5
97
 10
2113.219
 20
729.43
 30
0
 40
31.164316726025
 50
246.9957430162
 51
293.002564662372
210
0
220
0
230
1.0
 0
LINE
 8
TOOL_0
 5
98
 10
2125.397
 20
700.744
 30
0
 11
2149.076
 21
710.86
 31
0
 0
ARC
 8
TOOL_0
 5
99
 10
2141.219
 20
729.252
 30
0
 40
19.999952824944
 50
293.132009097446
 51
0
210
0
220
0
230
1.0
 0
LINE
 8
TOOL_0
 5
9A
 10
2161.219
 20
729.252
 30
0
 11
2154.148
 21
736.323
 31
0
 0
LINE
 8
TOOL_0
 5
9B
 10
2154.148
 20
736.323
 30
0
 11
1642.219
 21
1865.883
 31
0
 0
LINE
 8
TOOL_0
 5
9C
 10
1642.219
 20
1865.883
 30
0
 11
1642.219
 21
1896.838
 31
0
 0
LINE
 8
TOOL_0
 5
9D
 10
1642.219
 20
1896.838
 30
0
 11
1642.219
 21
2621.666
 31
0
 0
LINE
 8
TOOL_0
 5
9E
 10
1642.219
 20
2621.666
 30
0
 11
1650.805
 21
2630.252
 31
0
 0
LINE
 8
TOOL_0
 5
9F
 10
1650.805
 20
2630.252
 30
0
 11
3127.219
 21
2630.252
 31
0
 0
ARC
 8
TOOL_0
 5
A0
 10
3127.219
 20
2623.252
 30
0
 40
7.0
 50
0
 51
90.0
210
0
220
0
230
1.0
 0
LINE
 8
TOOL_0
 5
A1
 10
3134.219
 20
2623.252
 30
0
 11
3134.219
 21
3.252
 31
0
 0
LINE
 8
TOOL_0
 5
A2
 10
3134.219
 20
3.252
 30
0
 11
1516.219
 21
3.252
 31
0
 0
ARC
 8
TOOL_0
 5
A3
 10
1516.219
 20
10.252
 30
0
 40
7.0
 50
180.0
 51
270.0
210
0
220
0
230
1.0
 0
LINE
 8
TOOL_0
 5
A4
 10
1509.219
 20
10.252
 30
0
 11
1509.219
 21
484.252
 31
0
 0
LINE
 8
TOOL_0
 5
A5
 10
1509.219
 20
484.252
 30
0
 11
1657.219
 21
484.252
 31
0
 0
LINE
 8
TOOL_0
 5
A6
 10
1657.219
 20
484.252
 30
0
 11
1657.219
 21
449.252
 31
0
 0
ARC
 8
TOOL_0
 5
A7
 10
1678.219
 20
449.252
 30
0
 40
21.0
 50
180.0
 51
327.688053502427
210
0
220
0
230
1.0
 0
LINE
 8
TOOL_0
 5
A8
 10
1695.967
 20
438.027
 30
0
 11
1729.277
 21
490.696
 31
0
 0
ARC
 8
TOOL_0
 5
A9
 10
1713.219
 20
500.852
 30
0
 40
19.000097368172
 50
327.688392683242
 51
63.424159673344
210
0
220
0
230
1.0
 0
LINE
 8
TOOL_0
 5
AA
 10
1721.719
 20
517.844
 30
0
 11
1721.719
 21
1063.251
 31
0
 0
LINE
 8
TOOL_0
 5
AB
 10
1721.719
 20
1063.251
 30
0
 11
1758.82
 21
1063.251
 31
0
 0
ARC
 8
TOOL_0
 5
AC
 10
1763.719
 20
1062.251
 30
0
 40
5.000020099959
 50
168.463087982614
 51
270.0
210
0
220
0
230
1.0
 0
LINE
 8
TOOL_0
 5
AD
 10
1763.719
 20
1057.251
 30
0
 11
1808.219
 21
1057.251
 31
0
 0
ARC
 8
TOOL_0
 5
AE
 10
1808.219
 20
1256.251
 30
0
 40
199.0
 50
270.0
 51
359.99971208151
210
0
220
0
230
1.0
 0
LINE
 8
TOOL_0
 5
AF
 10
2007.219
 20
1256.25
 30
0
 11
2007.219
 21
1689.251
 31
0
 0
ARC
 8
TOOL_0
 5
B0
 10
1808.219
 20
1689.251
 30
0
 40
199.0
 50
0
 51
90.0
210
0
220
0
230
1.0
 0
LINE
 8
TOOL_0
 5
B1
 10
1808.219
 20
1888.251
 30
0
 11
1650.805
 21
1888.251
 31
0
 0
LINE
 8
TOOL_0
 5
B2
 10
1650.805
 20
1888.251
 30
0
 11
1642.219
 21
1896.837
 31
0
 0
LINE
 8
TOOL_0
 5
B3
 10
1642.219
 20
1896.837
 30
0
 11
1639.136
 21
1900.567
 31
0
 0
LINE
 8
TOOL_0
 5
B4
 10
1639.136
 20
1900.567
 30
0
 11
4174.195
 21
2549.251
 31
0
 0
LINE
 8
TOOL_0
 5
B5
 10
4174.195
 20
2549.251
 30
0
 11
4204.195
 21
2549.251
 31
0
 0
ARC
 8
TOOL_0
 5
B6
 10
4169.195
 20
2549.251
 30
0
 40
35.0
 50
0
 51
180.0
210
0
220
0
230
1.0
 0
ARC
 8
TOOL_0
 5
B7
 10
4169.195
 20
2549.251
 30
0
 40
35.0
 50
180.0
 51
0
210
0
220
0
230
1.0
 0
LINE
 8
TOOL_0
 5
B8
 10
4204.195
 20
2549.251
 30
0
 11
4197.124
 21
2556.322
 31
0
 0
LINE
 8
TOOL_0
 5
B9
 10
4197.124
 20
2556.322
 30
0
 11
3779.195
 21
2314.251
 31
0
 0
LINE
 8
TOOL_0
 5
BA
 10
3779.195
 20
2314.251
 30
0
 11
3809.195
 21
2314.251
 31
0
 0
LINE
 8
TOOL_0
 5
BB
 10
3809.195
 20
2314.251
 30
0
 11
3809.195
 21
2344.251
 31
0
 0
ARC
 8
TOOL_0
 5
BC
 10
3799.195
 20
2344.251
 30
0
 40
10.0
 50
0
 51
90.0
210
0
220
0
230
1.0
 0
LINE
 8
TOOL_0
 5
BD
 10
3799.195
 20
2354.251
 30
0
 11
3619.195
 21
2354.251
 31
0
 0
ARC
 8
TOOL_0
 5
BE
 10
3619.195
 20
2344.251
 30
0
 40
10.0
 50
90.0
 51
180.0
210
0
220
0
230
1.0
 0
LINE
 8
TOOL_0
 5
BF
 10
3609.195
 20
2344.251
 30
0
 11
3609.195
 21
2284.251
 31
0
 0
ARC
 8
TOOL_0
 5
C0
 10
3619.195
 20
2284.251
 30
0
 40
10.0
 50
180.0
 51
270.0
210
0
220
0
230
1.0
 0
LINE
 8
TOOL_0
 5
C1
 10
3619.195
 20
2274.251
 30
0
 11
3799.195
 21
2274.251
 31
0
 0
ARC
 8
TOOL_0
 5
C2
 10
3799.195
 20
2284.251
 30
0
 40
10.0
 50
270.0
 51
0
210
0
220
0
230
1.0
 0
LINE
 8
TOOL_0
 5
C3
 10
3809.195
 20
2284.251
 30
0
 11
3809.195
 21
2314.251
 31
0
 0
LINE
 8
TOOL_0
 5
C4
 10
3809.195
 20
2314.251
 30
0
 11
3802.124
 21
2321.322
 31
0
 0
LINE
 8
TOOL_0
 5
C5
 10
3802.124
 20
2321.322
 30
0
 11
4187.195
 21
1904.251
 31
0
 0
LINE
 8
TOOL_0
 5
C6
 10
4187.195
 20
1904.251
 30
0
 11
4217.195
 21
1904.251
 31
0
 0
ARC
 8
TOOL_0
 5
C7
 10
4197.195
 20
1904.251
 30
0
 40
20.0
 50
0
 51
66.867990902554
210
0
220
0
230
1.0
 0
LINE
 8
TOOL_0
 5
C8
 10
4205.052
 20
1922.643
 30
0
 11
4181.373
 21
1932.759
 31
0
 0
ARC
 8
TOOL_0
 5
C9
 10
4169.194
 20
1904.073
 30
0
 40
31.164316726025
 50
66.9957430162
 51
113.002564662372
210
0
220
0
230
1.0
 0
LINE
 8
TOOL_0
 5
CA
 10
4157.016
 20
1932.759
 30
0
 11
4133.337
 21
1922.643
 31
0
 0
ARC
 8
TOOL_0
 5
CB
 10
4141.194
 20
1904.251
 30
0
 40
19.999952824944
 50
113.132009097445
 51
246.867990902554
210
0
220
0
230
1.0
 0
LINE
 8
TOOL_0
 5
CC
 10
4133.337
 20
1885.859
 30
0
 11
4157.016
 21
1875.743
 31
0
 0
ARC
 8
TOOL_0
 5
CD
 10
4169.195
 20
1904.429
 30
0
 40
31.164316726025
 50
246.995743016199
 51
293.002564662372
210
0
220
0
230
1.0
 0
LINE
 8
TOOL_0
 5
CE
 10
4181.373
 20
1875.743
 30
0
 11
4205.052
 21
1885.859
 31
0
 0
ARC
 8
TOOL_0
 5
CF
 10
4197.195
 20
1904.251
 30
0
 40
19.999952824944
 50
293.132009097446
 51
0
210
0
220
0
230
1.0
 0
LINE
 8
TOOL_0
 5
D0
 10
4217.195
 20
1904.251
 30
0
 11
4210.124
 21
1911.322
 31
0
 0
LINE
 8
TOOL_0
 5
D1
 10
4210.124
 20
1911.322
 30
0
 11
3509.195
 21
96.251
 31
0
 0
LINE
 8
TOOL_0
 5
D2
 10
3509.195
 20
96.251
 30
0
 11
3539.195
 21
96.251
 31
0
 0
LINE
 8
TOOL_0
 5
D3
 10
3539.195
 20
96.251
 30
0
 11
3539.195
 21
126.251
 31
0
 0
ARC
 8
TOOL_0
 5
D4
 10
3509.195
 20
126.251
 30
0
 40
30.0
 50
0
 51
90.0
210
0
220
0
230
1.0
 0
LINE
 8
TOOL_0
 5
D5
 10
3509.195
 20
156.251
 30
0
 11
3439.195
 21
156.251
 31
0
 0
ARC
 8
TOOL_0
 5
D6
 10
3439.195
 20
126.251
 30
0
 40
30.0
 50
90.0
 51
180.0
210
0
220
0
230
1.0
 0
LINE
 8
TOOL_0
 5
D7
 10
3409.195
 20
126.251
 30
0
 11
3409.195
 21
66.251
 31
0
 0
ARC
 8
TOOL_0
 5
D8
 10
3419.195
 20
66.251
 30
0
 40
10.0
 50
180.0
 51
270.0
210
0
220
0
230
1.0
 0
LINE
 8
TOOL_0
 5
D9
 10
3419.195
 20
56.251
 30
0
 11
3529.195
 21
56.251
 31
0
 0
ARC
 8
TOOL_0
 5
DA
 10
3529.195
 20
66.251
 30
0
 40
10.0
 50
270.0
 51
0
210
0
220
0
230
1.0
 0
LINE
 8
TOOL_0
 5
DB
 10
3539.195
 20
66.251
 30
0
 11
3539.195
 21
96.251
 31
0
 0
LINE
 8
TOOL_0
 5
DC
 10
3539.195
 20
96.251
 30
0
 11
3532.124
 21
103.322
 31
0
 0
LINE
 8
TOOL_0
 5
DD
 10
3532.124
 20
103.322
 30
0
 11
3589.195
 21
216.251
 31
0
 0
LINE
 8
TOOL_0
 5
DE
 10
3589.195
 20
216.251
 30
0
 11
3619.195
 21
216.251
 31
0
 0
LINE
 8
TOOL_0
 5
DF
 10
3619.195
 20
216.251
 30
0
 11
3619.195
 21
246.251
 31
0
 0
ARC
 8
TOOL_0
 5
E0
 10
3599.195
 20
246.251
 30
0
 40
20.0
 50
0
 51
90.0
210
0
220
0
230
1.0
 0
LINE
 8
TOOL_0
 5
E1
 10
3599.195
 20
266.251
 30
0
 11
3539.195
 21
266.251
 31
0
 0
ARC
 8
TOOL_0
 5
E2
 10
3539.195
 20
246.251
 30
0
 40
20.0
 50
90.0
 51
180.0
210
0
220
0
230
1.0
 0
LINE
 8
TOOL_0
 5
E3
 10
3519.195
 20
246.251
 30
0
 11
3519.195
 21
186.251
 31
0
 0
ARC
 8
TOOL_0
 5
E4
 10
3539.195
 20
186.251
 30
0
 40
20.0
 50
180.0
 51
270.0
210
0
220
0
230
1.0
 0
LINE
 8
TOOL_0
 5
E5
 10
3539.195
 20
166.251
 30
0
 11
3599.195
 21
166.251
 31
0
 0
ARC
 8
TOOL_0
 5
E6
 10
3599.195
 20
186.251
 30
0
 40
20.0
 50
270.0
 51
0
210
0
220
0
230
1.0
 0
LINE
 8
TOOL_0
 5
E7
 10
3619.195
 20
186.251
 30
0
 11
3619.195
 21
216.251
 31
0
 0
LINE
 8
TOOL_0
 5
E8
 10
3619.195
 20
216.251
 30
0
 11
3612.124
 21
223.322
 31
0
 0
LINE
 8
TOOL_0
 5
E9
 10
3612.124
 20
223.322
 30
0
 11
4584.195
 21
189.251
 31
0
 0
LINE
 8
TOOL_0
 5
EA
 10
4584.195
 20
189.251
 30
0
 11
4614.195
 21
189.251
 31
0
 0
LINE
 8
TOOL_0
 5
EB
 10
4614.195
 20
189.251
 30
0
 11
4614.195
 21
219.251
 31
0
 0
ARC
 8
TOOL_0
 5
EC
 10
4594.195
 20
219.251
 30
0
 40
20.0
 50
0
 51
90.0
210
0
220
0
230
1.0
 0
LINE
 8
TOOL_0
 5
ED
 10
4594.195
 20
239.251
 30
0
 11
4534.195
 21
239.251
 31
0
 0
ARC
 8
TOOL_0
 5
EE
 10
4534.195
 20
219.251
 30
0
 40
20.0
 50
90.0
 51
180.0
210
0
220
0
230
1.0
 0
LINE
 8
TOOL_0
 5
EF
 10
4514.195
 20
219.251
 30
0
 11
4514.195
 21
159.251
 31
0
 0
ARC
 8
TOOL_0
 5
F0
 10
4534.195
 20
159.251
 30
0
 40
20.0
 50
180.0
 51
270.0
210
0
220
0
230
1.0
 0
LINE
 8
TOOL_0
 5
F1
 10
4534.195
 20
139.251
 30
0
 11
4594.195
 21
139.251
 31
0
 0
ARC
 8
TOOL_0
 5
F2
 10
4594.195
 20
159.251
 30
0
 40
20.0
 50
270.0
 51
0
210
0
220
0
230
1.0
 0
LINE
 8
TOOL_0
 5
F3
 10
4614.195
 20
159.251
 30
0
 11
4614.195
 21
189.251
 31
0
 0
LINE
 8
TOOL_0
 5
F4
 10
4614.195
 20
189.251
 30
0
 11
4607.124
 21
196.322
 31
0
 0
LINE
 8
TOOL_0
 5
F5
 10
4607.124
 20
196.322
 30
0
 11
4640.195
 21
768.035
 31
0
 0
LINE
 8
TOOL_0
 5
F6
 10
4640.195
 20
768.035
 30
0
 11
4640.195
 21
736.665
 31
0
 0
LINE
 8
TOOL_0
 5
F7
 10
4640.195
 20
736.665
 30
0
 11
4640.195
 21
11.837
 31
0
 0
LINE
 8
TOOL_0
 5
F8
 10
4640.195
 20
11.837
 30
0
 11
4631.609
 21
3.251
 31
0
 0
LINE
 8
TOOL_0
 5
F9
 10
4631.609
 20
3.251
 30
0
 11
3155.195
 21
3.251
 31
0
 0
ARC
 8
TOOL_0
 5
FA
 10
3155.195
 20
10.251
 30
0
 40
7.0
 50
180.0
 51
270.0
210
0
220
0
230
1.0
 0
LINE
 8
TOOL_0
 5
FB
 10
3148.195
 20
10.251
 30
0
 11
3148.195
 21
2630.251
 31
0
 0
LINE
 8
TOOL_0
 5
FC
 10
3148.195
 20
2630.251
 30
0
 11
4766.195
 21
2630.251
 31
0
 0
ARC
 8
TOOL_0
 5
FD
 10
4766.195
 20
2623.251
 30
0
 40
7.0
 50
0
 51
90.0
210
0
220
0
230
1.0
 0
LINE
 8
TOOL_0
 5
FE
 10
4773.195
 20
2623.251
 30
0
 11
4773.195
 21
2149.251
 31
0
 0
LINE
 8
TOOL_0
 5
FF
 10
4773.195
 20
2149.251
 30
0
 11
4625.195
 21
2149.251
 31
0
 0
LINE
 8
TOOL_0
 5
100
 10
4625.195
 20
2149.251
 30
0
 11
4625.195
 21
2184.251
 31
0
 0
ARC
 8
TOOL_0
 5
101
 10
4604.195
 20
2184.251
 30
0
 40
21.0
 50
0
 51
147.688053502426
210
0
220
0
230
1.0
 0
LINE
 8
TOOL_0
 5
102
 10
4586.447
 20
2195.476
 30
0
 11
4553.137
 21
2142.807
 31
0
 0
ARC
 8
TOOL_0
 5
103
 10
4569.195
 20
2132.651
 30
0
 40
19.000097368172
 50
147.688392683242
 51
243.424159673344
210
0
220
0
230
1.0
 0
LINE
 8
TOOL_0
 5
104
 10
4560.695
 20
2115.659
 30
0
 11
4560.695
 21
1570.252
 31
0
 0
LINE
 8
TOOL_0
 5
105
 10
4560.695
 20
1570.252
 30
0
 11
4523.594
 21
1570.252
 31
0
 0
ARC
 8
TOOL_0
 5
106
 10
4518.695
 20
1571.252
 30
0
 40
5.00002009996
 50
348.463087982615
 51
90.0
210
0
220
0
230
1.0
 0
LINE
 8
TOOL_0
 5
107
 10
4518.695
 20
1576.252
 30
0
 11
4474.195
 21
1576.252
 31
0
 0
ARC
 8
TOOL_0
 5
108
 10
4474.195
 20
1377.252
 30
0
 40
199.0
 50
90.0
 51
180.0
210
0
220
0
230
1.0
 0
LINE
 8
TOOL_0
 5
109
 10
4275.195
 20
1377.252
 30
0
 11
4275.195
 21
944.252
 31
0
 0
ARC
 8
TOOL_0
 5
10A
 10
4474.195
 20
944.252
 30
0
 40
199.0
 50
180.0
 51
270.0
210
0
220
0
230
1.0
 0
LINE
 8
TOOL_0
 5
10B
 10
4474.195
 20
745.252
 30
0
 11
4631.609
 21
745.252
 31
0
 0
LINE
 8
TOOL_0
 5
10C
 10
4631.609
 20
745.252
 30
0
 11
4640.195
 21
736.666
 31
0
 0
LINE
 8
TOOL_0
 5
10D
 10
4640.195
 20
736.666
 30
0
 11
4644.108
 21
733.571
 31
0
 0
LINE
 8
TOOL_0
 5
10E
 10
4644.108
 20
733.571
 30
0
 11
4882.71
 21
2444.252
 31
0
 0
LINE
 8
TOOL_0
 5
10F
 10
4882.71
 20
2444.252
 30
0
 11
4912.71
 21
2444.252
 31
0
 0
LINE
 8
TOOL_0
 5
110
 10
4912.71
 20
2444.252
 30
0
 11
4912.71
 21
2474.252
 31
0
 0
ARC
 8
TOOL_0
 5
111
 10
4892.71
 20
2474.252
 30
0
 40
20.0
 50
0
 51
90.0
210
0
220
0
230
1.0
 0
LINE
 8
TOOL_0
 5
112
 10
4892.71
 20
2494.252
 30
0
 11
4832.71
 21
2494.252
 31
0
 0
ARC
 8
TOOL_0
 5
113
 10
4832.71
 20
2474.252
 30
0
 40
20.0
 50
90.0
 51
180.0
210
0
220
0
230
1.0
 0
LINE
 8
TOOL_0
 5
114
 10
4812.71
 20
2474.252
 30
0
 11
4812.71
 21
2414.252
 31
0
 0
ARC
 8
TOOL_0
 5
115
 10
4832.71
 20
2414.252
 30
0
 40
20.0
 50
180.0
 51
270.0
210
0
220
0
230
1.0
 0
LINE
 8
TOOL_0
 5
116
 10
4832.71
 20
2394.252
 30
0
 11
4892.71
 21
2394.252
 31
0
 0
ARC
 8
TOOL_0
 5
117
 10
4892.71
 20
2414.252
 30
0
 40
20.0
 50
270.0
 51
0
210
0
220
0
230
1.0
 0
LINE
 8
TOOL_0
 5
118
 10
4912.71
 20
2414.252
 30
0
 11
4912.71
 21
2444.252
 31
0
 0
LINE
 8
TOOL_0
 5
119
 10
4912.71
 20
2444.252
 30
0
 11
4905.639
 21
2451.323
 31
0
 0
LINE
 8
TOOL_0
 5
11A
 10
4905.639
 20
2451.323
 30
0
 11
5987.71
 21
2537.252
 31
0
 0
LINE
 8
TOOL_0
 5
11B
 10
5987.71
 20
2537.252
 30
0
 11
6017.71
 21
2537.252
 31
0
 0
LINE
 8
TOOL_0
 5
11C
 10
6017.71
 20
2537.252
 30
0
 11
6017.71
 21
2567.252
 31
0
 0
ARC
 8
TOOL_0
 5
11D
 10
6007.71
 20
2567.252
 30
0
 40
10.0
 50
0
 51
90.0
210
0
220
0
230
1.0
 0
LINE
 8
TOOL_0
 5
11E
 10
6007.71
 20
2577.252
 30
0
 11
5897.71
 21
2577.252
 31
0
 0
ARC
 8
TOOL_0
 5
11F
 10
5897.71
 20
2567.252
 30
0
 40
10.0
 50
90.0
 51
180.0
210
0
220
0
230
1.0
 0
LINE
 8
TOOL_0
 5
120
 10
5887.71
 20
2567.252
 30
0
 11
5887.71
 21
2507.252
 31
0
 0
ARC
 8
TOOL_0
 5
121
 10
5917.71
 20
2507.252
 30
0
 40
30.0
 50
180.0
 51
270.0
210
0
220
0
230
1.0
 0
LINE
 8
TOOL_0
 5
122
 10
5917.71
 20
2477.252
 30
0
 11
5987.71
 21
2477.252
 31
0
 0
ARC
 8
TOOL_0
 5
123
 10
5987.71
 20
2507.252
 30
0
 40
30.0
 50
270.0
 51
0
210
0
220
0
230
1.0
 0
LINE
 8
TOOL_0
 5
124
 10
6017.71
 20
2507.252
 30
0
 11
6017.71
 21
2537.252
 31
0
 0
LINE
 8
TOOL_0
 5
125
 10
6017.71
 20
2537.252
 30
0
 11
6010.639
 21
2544.323
 31
0
 0
LINE
 8
TOOL_0
 5
126
 10
6010.639
 20
2544.323
 30
0
 11
5877.71
 21
2417.252
 31
0
 0
LINE
 8
TOOL_0
 5
127
 10
5877.71
 20
2417.252
 30
0
 11
5907.71
 21
2417.252
 31
0
 0
LINE
 8
TOOL_0
 5
128
 10
5907.71
 20
2417.252
 30
0
 11
5907.71
 21
2447.252
 31
0
 0
ARC
 8
TOOL_0
 5
129
 10
5887.71
 20
2447.252
 30
0
 40
20.0
 50
0
 51
90.0
210
0
220
0
230
1.0
 0
LINE
 8
TOOL_0
 5
12A
 10
5887.71
 20
2467.252
 30
0
 11
5827.71
 21
2467.252
 31
0
 0
ARC
 8
TOOL_0
 5
12B
 10
5827.71
 20
2447.252
 30
0
 40
20.0
 50
90.0
 51
180.0
210
0
220
0
230
1.0
 0
LINE
 8
TOOL_0
 5
12C
 10
5807.71
 20
2447.252
 30
0
 11
5807.71
 21
2387.252
 31
0
 0
ARC
 8
TOOL_0
 5
12D
 10
5827.71
 20
2387.252
 30
0
 40
20.0
 50
180.0
 51
270.0
210
0
220
0
230
1.0
 0
LINE
 8
TOOL_0
 5
12E
 10
5827.71
 20
2367.252
 30
0
 11
5887.71
 21
2367.252
 31
0
 0
ARC
 8
TOOL_0
 5
12F
 10
5887.71
 20
2387.252
 30
0
 40
20.0
 50
270.0
 51
0
210
0
220
0
230
1.0
 0
LINE
 8
TOOL_0
 5
130
 10
5907.71
 20
2387.252
 30
0
 11
5907.71
 21
2417.252
 31
0
 0
LINE
 8
TOOL_0
 5
131
 10
5907.71
 20
2417.252
 30
0
 11
5900.639
 21
2424.323
 31
0
 0
LINE
 8
TOOL_0
 5
132
 10
5900.639
 20
2424.323
 30
0
 11
5787.71
 21
319.252
 31
0
 0
LINE
 8
TOOL_0
 5
133
 10
5787.71
 20
319.252
 30
0
 11
5817.71
 21
319.252
 31
0
 0
LINE
 8
TOOL_0
 5
134
 10
5817.71
 20
319.252
 30
0
 11
5817.71
 21
349.252
 31
0
 0
ARC
 8
TOOL_0
 5
135
 10
5807.71
 20
349.252
 30
0
 40
10.0
 50
0
 51
90.0
210
0
220
0
230
1.0
 0
LINE
 8
TOOL_0
 5
136
 10
5807.71
 20
359.252
 30
0
 11
5627.71
 21
359.252
 31
0
 0
ARC
 8
TOOL_0
 5
137
 10
5627.71
 20
349.252
 30
0
 40
10.0
 50
90.0
 51
180.0
210
0
220
0
230
1.0
 0
LINE
 8
TOOL_0
 5
138
 10
5617.71
 20
349.252
 30
0
 11
5617.71
 21
289.252
 31
0
 0
ARC
 8
TOOL_0
 5
139
 10
5627.71
 20
289.252
 30
0
 40
10.0
 50
180.0
 51
270.0
210
0
220
0
230
1.0
 0
LINE
 8
TOOL_0
 5
13A
 10
5627.71
 20
279.252
 30
0
 11
5807.71
 21
279.252
 31
0
 0
ARC
 8
TOOL_0
 5
13B
 10
5807.71
 20
289.252
 30
0
 40
10.0
 50
270.0
 51
0
210
0
220
0
230
1.0
 0
LINE
 8
TOOL_0
 5
13C
 10
5817.71
 20
289.252
 30
0
 11
5817.71
 21
319.252
 31
0
 0
LINE
 8
TOOL_0
 5
13D
 10
5817.71
 20
319.252
 30
0
 11
5810.639
 21
326.323
 31
0
 0
LINE
 8
TOOL_0
 5
13E
 10
5810.639
 20
326.323
 30
0
 11
5262.71
 21
84.252
 31
0
 0
LINE
 8
TOOL_0
 5
13F
 10
5262.71
 20
84.252
 30
0
 11
5292.71
 21
84.252
 31
0
 0
ARC
 8
TOOL_0
 5
140
 10
5257.71
 20
84.252
 30
0
 40
35.0
 50
0
 51
180.0
210
0
220
0
230
1.0
 0
ARC
 8
TOOL_0
 5
141
 10
5257.71
 20
84.252
 30
0
 40
35.0
 50
180.0
 51
0
210
0
220
0
230
1.0
 0
LINE
 8
TOOL_0
 5
142
 10
5292.71
 20
84.252
 30
0
 11
5285.639
 21
91.323
 31
0
 0
LINE
 8
TOOL_0
 5
143
 10
5285.639
 20
91.323
 30
0
 11
5275.71
 21
729.252
 31
0
 0
LINE
 8
TOOL_0
 5
144
 10
5275.71
 20
729.252
 30
0
 11
5305.71
 21
729.252
 31
0
 0
ARC
 8
TOOL_0
 5
145
 10
5285.71
 20
729.252
 30
0
 40
20.0
 50
0
 51
66.867990902554
210
0
220
0
230
1.0
 0
LINE
 8
TOOL_0
 5
146
 10
5293.567
 20
747.644
 30
0
 11
5269.888
 21
757.76
 31
0
 0
ARC
 8
TOOL_0
 5
147
 10
5257.709
 20
729.074
 30
0
 40
31.164316726025
 50
66.9957430162
 51
113.002564662372
210
0
220
0
230
1.0
 0
LINE
 8
TOOL_0
 5
148
 10
5245.531
 20
757.76
 30
0
 11
5221.852
 21
747.644
 31
0
 0
ARC
 8
TOOL_0
 5
149
 10
5229.709
 20
729.252
 30
0
 40
19.999952824944
 50
113.132009097445
 51
246.867990902554
210
0
220
0
230
1.0
 0
LINE
 8
TOOL_0
 5
14A
 10
5221.852
 20
710.86
 30
0
 11
5245.531
 21
700.744
 31
0
 0
ARC
 8
TOOL_0
 5
14B
 10
5257.71
 20
729.43
 30
0
 40
31.164316726025
 50
246.9957430162
 51
293.002564662372
210
0
220
0
230
1.0
 0
LINE
 8
TOOL_0
 5
14C
 10
5269.888
 20
700.744
 30
0
 11
5293.567
 21
710.86
 31
0
 0
ARC
 8
TOOL_0
 5
14D
 10
5285.71
 20
729.252
 30
0
 40
19.999952824944
 50
293.132009097446
 51
0
210
0
220
0
230
1.0
 0
LINE
 8
TOOL_0
 5
14E
 10
5305.71
 20
729.252
 30
0
 11
5298.639
 21
736.323
 31
0
 0
LINE
 8
TOOL_0
 5
14F
 10
5298.639
 20
736.323
 30
0
 11
4786.71
 21
1865.883
 31
0
 0
LINE
 8
TOOL_0
 5
150
 10
4786.71
 20
1865.883
 30
0
 11
4786.71
 21
1896.838
 31
0
 0
LINE
 8
TOOL_0
 5
151
 10
4786.71
 20
1896.838
 30
0
 11
4786.71
 21
2621.666
 31
0
 0
LINE
 8
TOOL_0
 5
152
 10
4786.71
 20
2621.666
 30
0
 11
4795.296
 21
2630.252
 31
0
 0
LINE
 8
TOOL_0
 5
153
 10
4795.296
 20
2630.252
 30
0
 11
6271.71
 21
2630.252
 31
0
 0
ARC
 8
TOOL_0
 5
154
 10
6271.71
 20
2623.252
 30
0
 40
7.0
 50
0
 51
90.0
210
0
220
0
230
1.0
 0
LINE
 8
TOOL_0
 5
155
 10
6278.71
 20
2623.252
 30
0
 11
6278.71
 21
3.252
 31
0
 0
LINE
 8
TOOL_0
 5
156
 10
6278.71
 20
3.252
 30
0
 11
4660.71
 21
3.252
 31
0
 0
ARC
 8
TOOL_0
 5
157
 10
4660.71
 20
10.252
 30
0
 40
7.0
 50
180.0
 51
270.0
210
0
220
0
230
1.0
 0
LINE
 8
TOOL_0
 5
158
 10
4653.71
 20
10.252
 30
0
 11
4653.71
 21
484.252
 31
0
 0
LINE
 8
TOOL_0
 5
159
 10
4653.71
 20
484.252
 30
0
 11
4801.71
 21
484.252
 31
0
 0
LINE
 8
TOOL_0
 5
15A
 10
4801.71
 20
484.252
 30
0
 11
4801.71
 21
449.252
 31
0
 0
ARC
 8
TOOL_0
 5
15B
 10
4822.71
 20
449.252
 30
0
 40
21.0
 50
180.0
 51
327.688053502426
210
0
220
0
230
1.0
 0
LINE
 8
TOOL_0
 5
15C
 10
4840.458
 20
438.027
 30
0
 11
4873.768
 21
490.696
 31
0
 0
ARC
 8
TOOL_0
 5
15D
 10
4857.71
 20
500.852
 30
0
 40
19.000097368172
 50
327.688392683242
 51
63.424159673344
210
0
220
0
230
1.0
 0
LINE
 8
TOOL_0
 5
15E
 10
4866.21
 20
517.844
 30
0
 11
4866.21
 21
1063.251
 31
0
 0
LINE
 8
TOOL_0
 5
15F
 10
4866.21
 20
1063.251
 30
0
 11
4903.311
 21
1063.251
 31
0
 0
ARC
 8
TOOL_0
 5
160
 10
4908.21
 20
1062.251
 30
0
 40
5.00002009996
 50
168.463087982615
 51
270.0
210
0
220
0
230
1.0
 0
LINE
 8
TOOL_0
 5
161
 10
4908.21
 20
1057.251
 30
0
 11
4952.71
 21
1057.251
 31
0
 0
ARC
 8
TOOL_0
 5
162
 10
4952.71
 20
1256.251
 30
0
 40
199.0
 50
270.0
 51
359.99971208151
210
0
220
0
230
1.0
 0
LINE
 8
TOOL_0
 5
163
 10
5151.71
 20
1256.25
 30
0
 11
5151.71
 21
1689.251
 31
0
 0
ARC
 8
TOOL_0
 5
164
 10
4952.71
 20
1689.251
 30
0
 40
199.0
 50
0
 51
90.0
210
0
220
0
230
1.0
 0
LINE
 8
TOOL_0
 5
165
 10
4952.71
 20
1888.251
 30
0
 11
4795.296
 21
1888.251
 31
0
 0
LINE
 8
TOOL_0
 5
166
 10
4795.296
 20
1888.251
 30
0
 11
4786.71
 21
1896.837
 31
0
 0
LINE
 8
TOOL_0
 5
167
 10
4786.71
 20
1896.837
 30
0
 11
4783.627
 21
1900.567
 31
0
 0
LINE
 8
TOOL_0
 5
168
 10
4783.627
 20
1900.567
 30
0
 11
7318.686
 21
2549.251
 31
0
 0
LINE
 8
TOOL_0
 5
169
 10
7318.686
 20
2549.251
 30
0
 11
7348.686
 21
2549.251
 31
0
 0
ARC
 8
TOOL_0
 5
16A
 10
7313.686
 20
2549.251
 30
0
 40
35.0
 50
0
 51
180.0
210
0
220
0
230
1.0
 0
ARC
 8
TOOL_0
 5
16B
 10
7313.686
 20
2549.251
 30
0
 40
35.0
 50
180.0
 51
0
210
0
220
0
230
1.0
 0
LINE
 8
TOOL_0
 5
16C
 10
7348.686
 20
2549.251
 30
0
 11
7341.615
 21
2556.322
 31
0
 0
LINE
 8
TOOL_0
 5
16D
 10
7341.615
 20
2556.322
 30
0
 11
6923.686
 21
2314.251
 31
0
 0
LINE
 8
TOOL_0
 5
16E
 10
6923.686
 20
2314.251
 30
0
 11
6953.686
 21
2314.251
 31
0
 0
LINE
 8
TOOL_0
 5
16F
 10
6953.686
 20
2314.251
 30
0
 11
6953.686
 21
2344.251
 31
0
 0
ARC
 8
TOOL_0
 5
170
 10
6943.686
 20
2344.251
 30
0
 40
10.0
 50
0
 51
90.0
210
0
220
0
230
1.0
 0
LINE
 8
TOOL_0
 5
171
 10
6943.686
 20
2354.251
 30
0
 11
6763.686
 21
2354.251
 31
0
 0
ARC
 8
TOOL_0
 5
172
 10
6763.686
 20
2344.251
 30
0
 40
10.0
 50
90.0
 51
180.0
210
0
220
0
230
1.0
 0
LINE
 8
TOOL_0
 5
173
 10
6753.686
 20
2344.251
 30
0
 11
6753.686
 21
2284.251
 31
0
 0
ARC
 8
TOOL_0
 5
174
 10
6763.686
 20
2284.251
 30
0
 40
10.0
 50
180.0
 51
270.0
210
0
220
0
230
1.0
 0
LINE
 8
TOOL_0
 5
175
 10
6763.686
 20
2274.251
 30
0
 11
6943.686
 21
2274.251
 31
0
 0
ARC
 8
TOOL_0
 5
176
 10
6943.686
 20
2284.251
 30
0
 40
10.0
 50
270.0
 51
0
210
0
220
0
230
1.0
 0
LINE
 8
TOOL_0
 5
177
 10
6953.686
 20
2284.251
 30
0
 11
6953.686
 21
2314.251
 31
0
 0
LINE
 8
TOOL_0
 5
178
 10
6953.686
 20
2314.251
 30
0
 11
6946.615
 21
2321.322
 31
0
 0
LINE
 8
TOOL_0
 5
179
 10
6946.615
 20
2321.322
 30
0
 11
7331.686
 21
1904.251
 31
0
 0
LINE
 8
TOOL_0
 5
17A
 10
7331.686
 20
1904.251
 30
0
 11
7361.686
 21
1904.251
 31
0
 0
ARC
 8
TOOL_0
 5
17B
 10
7341.686
 20
1904.251
 30
0
 40
20.0
 50
0
 51
66.867990902554
210
0
220
0
230
1.0
 0
LINE
 8
TOOL_0
 5
17C
 10
7349.543
 20
1922.643
 30
0
 11
7325.864
 21
1932.759
 31
0
 0
ARC
 8
TOOL_0
 5
17D
 10
7313.685
 20
1904.073
 30
0
 40
31.164316726025
 50
66.9957430162
 51
113.002564662372
210
0
220
0
230
1.0
 0
LINE
 8
TOOL_0
 5
17E
 10
7301.507
 20
1932.759
 30
0
 11
7277.828
 21
1922.643
 31
0
 0
ARC
 8
TOOL_0
 5
17F
 10
7285.685
 20
1904.251
 30
0
 40
19.999952824944
 50
113.132009097445
 51
246.867990902554
210
0
220
0
230
1.0
 0
LINE
 8
TOOL_0
 5
180
 10
7277.828
 20
1885.859
 30
0
 11
7301.507
 21
1875.743
 31
0
 0
ARC
 8
TOOL_0
 5
181
 10
7313.686
 20
1904.429
 30
0
 40
31.164316726025
 50
246.995743016199
 51
293.002564662372
210
0
220
0
230
1.0
 0
LINE
 8
TOOL_0
 5
182
 10
7325.864
 20
1875.743
 30
0
 11
7349.543
 21
1885.859
 31
0
 0
ARC
 8
TOOL_0
 5
183
 10
7341.686
 20
1904.251
 30
0
 40
19.999952824944
 50
293.132009097446
 51
0
210
0
220
0
230
1.0
 0
LINE
 8
TOOL_0
 5
184
 10
7361.686
 20
1904.251
 30
0
 11
7354.615
 21
1911.322
 31
0
 0
LINE
 8
TOOL_0
 5
185
 10
7354.615
 20
1911.322
 30
0
 11
6653.686
 21
96.251
 31
0
 0
LINE
 8
TOOL_0
 5
186
 10
6653.686
 20
96.251
 30
0
 11
6683.686
 21
96.251
 31
0
 0
LINE
 8
TOOL_0
 5
187
 10
6683.686
 20
96.251
 30
0
 11
6683.686
 21
126.251
 31
0
 0
ARC
 8
TOOL_0
 5
188
 10
6653.686
 20
126.251
 30
0
 40
30.0
 50
0
 51
90.0
210
0
220
0
230
1.0
 0
LINE
 8
TOOL_0
 5
189
 10
6653.686
 20
156.251
 30
0
 11
6583.686
 21
156.251
 31
0
 0
ARC
 8
TOOL_0
 5
18A
 10
6583.686
 20
126.251
 30
0
 40
30.0
 50
90.0
 51
180.0
210
0
220
0
230
1.0
 0
LINE
 8
TOOL_0
 5
18B
 10
6553.686
 20
126.251
 30
0
 11
6553.686
 21
66.251
 31
0
 0
ARC
 8
TOOL_0
 5
18C
 10
6563.686
 20
66.251
 30
0
 40
10.0
 50
180.0
 51
270.0
210
0
220
0
230
1.0
 0
LINE
 8
TOOL_0
 5
18D
 10
6563.686
 20
56.251
 30
0
 11
6673.686
 21
56.251
 31
0
 0
ARC
 8
TOOL_0
 5
18E
 10
6673.686
 20
66.251
 30
0
 40
10.0
 50
270.0
 51
0
210
0
220
0
230
1.0
 0
LINE
 8
TOOL_0
 5
18F
 10
6683.686
 20
66.251
 30
0
 11
6683.686
 21
96.251
 31
0
 0
LINE
 8
TOOL_0
 5
190
 10
6683.686
 20
96.251
 30
0
 11
6676.615
 21
103.322
 31
0
 0
LINE
 8
TOOL_0
 5
191
 10
6676.615
 20
103.322
 30
0
 11
6733.686
 21
216.251
 31
0
 0
LINE
 8
TOOL_0
 5
192
 10
6733.686
 20
216.251
 30
0
 11
6763.686
 21
216.251
 31
0
 0
LINE
 8
TOOL_0
 5
193
 10
6763.686
 20
216.251
 30
0
 11
6763.686
 21
246.251
 31
0
 0
ARC
 8
TOOL_0
 5
194
 10
6743.686
 20
246.251
 30
0
 40
20.0
 50
0
 51
90.0
210
0
220
0
230
1.0
 0
LINE
 8
TOOL_0
 5
195
 10
6743.686
 20
266.251
 30
0
 11
6683.686
 21
266.251
 31
0
 0
ARC
 8
TOOL_0
 5
196
 10
6683.686
 20
246.251
 30
0
 40
20.0
 50
90.0
 51
180.0
210
0
220
0
230
1.0
 0
LINE
 8
TOOL_0
 5
197
 10
6663.686
 20
246.251
 30
0
 11
6663.686
 21
186.251
 31
0
 0
ARC
 8
TOOL_0
 5
198
 10
6683.686
 20
186.251
 30
0
 40
20.0
 50
180.0
 51
270.0
210
0
220
0
230
1.0
 0
LINE
 8
TOOL_0
 5
199
 10
6683.686
 20
166.251
 30
0
 11
6743.686
 21
166.251
 31
0
 0
ARC
 8
TOOL_0
 5
19A
 10
6743.686
 20
186.251
 30
0
 40
20.0
 50
270.0
 51
0
210
0
220
0
230
1.0
 0
LINE
 8
TOOL_0
 5
19B
 10
6763.686
 20
186.251
 30
0
 11
6763.686
 21
216.251
 31
0
 0
LINE
 8
TOOL_0
 5
19C
 10
6763.686
 20
216.251
 30
0
 11
6756.615
 21
223.322
 31
0
 0
LINE
 8
TOOL_0
 5
19D
 10
6756.615
 20
223.322
 30
0
 11
7728.686
 21
189.251
 31
0
 0
LINE
 8
TOOL_0
 5
19E
 10
7728.686
 20
189.251
 30
0
 11
7758.686
 21
189.251
 31
0
 0
LINE
 8
TOOL_0
 5
19F
 10
7758.686
 20
189.251
 30
0
 11
7758.686
 21
219.251
 31
0
 0
ARC
 8
TOOL_0
 5
1A0
 10
7738.686
 20
219.251
 30
0
 40
20.0
 50
0
 51
90.0
210
0
220
0
230
1.0
 0
LINE
 8
TOOL_0
 5
1A1
 10
7738.686
 20
239.251
 30
0
 11
7678.686
 21
239.251
 31
0
 0
ARC
 8
TOOL_0
 5
1A2
 10
7678.686
 20
219.251
 30
0
 40
20.0
 50
90.0
 51
180.0
210
0
220
0
230
1.0
 0
LINE
 8
TOOL_0
 5
1A3
 10
7658.686
 20
219.251
 30
0
 11
7658.686
 21
159.251
 31
0
 0
ARC
 8
TOOL_0
 5
1A4
 10
7678.686
 20
159.251
 30
0
 40
20.0
 50
180.0
 51
270.0
210
0
220
0
230
1.0
 0
LINE
 8
TOOL_0
 5
1A5
 10
7678.686
 20
139.251
 30
0
 11
7738.686
 21
139.251
 31
0
 0
ARC
 8
TOOL_0
 5
1A6
 10
7738.686
 20
159.251
 30
0
 40
20.0
 50
270.0
 51
0
210
0
220
0
230
1.0
 0
LINE
 8
TOOL_0
 5
1A7
 10
7758.686
 20
159.251
 30
0
 11
7758.686
 21
189.251
 31
0
 0
LINE
 8
TOOL_0
 5
1A8
 10
7758.686
 20
189.251
 30
0
 11
7751.615
 21
196.322
 31
0
 0
LINE
 8
TOOL_0
 5
1A9
 10
7751.615
 20
196.322
 30
0
 11
7784.686
 21
768.035
 31
0
 0
LINE
 8
TOOL_0
 5
1AA
 10
7784.686
 20
768.035
 30
0
 11
7784.686
 21
736.665
 31
0
 0
LINE
 8
TOOL_0
 5
1AB
 10
7784.686
 20
736.665
 30
0
 11
7784.686
 21
11.837
 31
0
 0
LINE
 8
TOOL_0
 5
1AC
 10
7784.686
 20
11.837
 30
0
 11
7776.1
 21
3.251
 31
0
 0
LINE
 8
TOOL_0
 5
1AD
 10
7776.1
 20
3.251
 30
0
 11
6299.686
 21
3.251
 31
0
 0
ARC
 8
TOOL_0
 5
1AE
 10
6299.686
 20
10.251
 30
0
 40
7.0
 50
180.0
 51
270.0
210
0
220
0
230
1.0
 0
LINE
 8
TOOL_0
 5
1AF
 10
6292.686
 20
10.251
 30
0
 11
6292.686
 21
2630.251
 31
0
 0
LINE
 8
TOOL_0
 5
1B0
 10
6292.686
 20
2630.251
 30
0
 11
7910.686
 21
2630.251
 31
0
 0
ARC
 8
TOOL_0
 5
1B1
 10
7910.686
 20
2623.251
 30
0
 40
7.0
 50
0
 51
90.0
210
0
220
0
230
1.0
 0
LINE
 8
TOOL_0
 5
1B2
 10
7917.686
 20
2623.251
 30
0
 11
7917.686
 21
2149.251
 31
0
 0
LINE
 8
TOOL_0
 5
1B3
 10
7917.686
 20
2149.251
 30
0
 11
7769.686
 21
2149.251
 31
0
 0
LINE
 8
TOOL_0
 5
1B4
 10
7769.686
 20
2149.251
 30
0
 11
7769.686
 21
2184.251
 31
0
 0
ARC
 8
TOOL_0
 5
1B5
 10
7748.686
 20
2184.251
 30
0
 40
21.0
 50
0
 51
147.688053502426
210
0
220
0
230
1.0
 0
LINE
 8
TOOL_0
 5
1B6
 10
7730.938
 20
2195.476
 30
0
 11
7697.628
 21
2142.807
 31
0
 0
ARC
 8
TOOL_0
 5
1B7
 10
7713.686
 20
2132.651
 30
0
 40
19.000097368172
 50
147.688392683242
 51
243.424159673344
210
0
220
0
230
1.0
 0
LINE
 8
TOOL_0
 5
1B8
 10
7705.186
 20
2115.659
 30
0
 11
7705.186
 21
1570.252
 31
0
 0
LINE
 8
TOOL_0
 5
1B9
 10
7705.186
 20
1570.252
 30
0
 11
7668.085
 21
1570.252
 31
0
 0
ARC
 8
TOOL_0
 5
1BA
 10
7663.186
 20
1571.252
 30
0
 40
5.00002009996
 50
348.463087982615
 51
90.0
210
0
220
0
230
1.0
 0
LINE
 8
TOOL_0
 5
1BB
 10
7663.186
 20
1576.252
 30
0
 11
7618.686
 21
1576.252
 31
0
 0
ARC
 8
TOOL_0
 5
1BC
 10
7618.686
 20
1377.252
 30
0
 40
199.0
 50
90.0
 51
180.0
210
0
220
0
230
1.0
 0
LINE
 8
TOOL_0
 5
1BD
 10
7419.686
 20
1377.252
 30
0
 11
7419.686
 21
944.252
 31
0
 0
ARC
 8
TOOL_0
 5
1BE
 10
7618.686
 20
944.252
 30
0
 40
199.0
 50
180.0
 51
270.0
210
0
220
0
230
1.0
 0
LINE
 8
TOOL_0
 5
1BF
 10
7618.686
 20
745.252
 30
0
 11
7776.1
 21
745.252
 31
0
 0
LINE
 8
TOOL_0
 5
1C0
 10
7776.1
 20
745.252
 30
0
 11
7784.686
 21
736.666
 31
0
 0
LINE
 8
TOOL_0
 5
1C1
 10
7784.686
 20
736.666
 30
0
 11
7788.599
 21
733.571
 31
0
 0
LINE
 8
TOOL_0
 5
1C2
 10
7788.599
 20
733.571
 30
0
 11
8027.2
 21
2444.252
 31
0
 0
LINE
 8
TOOL_0
 5
1C3
 10
8027.2
 20
2444.252
 30
0
 11
8057.2
 21
2444.252
 31
0
 0
LINE
 8
TOOL_0
 5
1C4
 10
8057.2
 20
2444.252
 30
0
 11
8057.2
 21
2474.252
 31
0
 0
ARC
 8
TOOL_0
 5
1C5
 10
8037.2
 20
2474.252
 30
0
 40
20.0
 50
0
 51
90.0
210
0
220
0
230
1.0
 0
LINE
 8
TOOL_0
 5
1C6
 10
8037.2
 20
2494.252
 30
0
 11
7977.2
 21
2494.252
 31
0
 0
ARC
 8
TOOL_0
 5
1C7
 10
7977.2
 20
2474.252
 30
0
 40
20.0
 50
90.0
 51
180.0
210
0
220
0
230
1.0
 0
LINE
 8
TOOL_0
 5
1C8
 10
7957.2
 20
2474.252
 30
0
 11
7957.2
 21
2414.252
 31
0
 0
ARC
 8
TOOL_0
 5
1C9
 10
7977.2
 20
2414.252
 30
0
 40
20.0
 50
180.0
 51
270.0
210
0
220
0
230
1.0
 0
LINE
 8
TOOL_0
 5
1CA
 10
7977.2
 20
2394.252
 30
0
 11
8037.2
 21
2394.252
 31
0
 0
ARC
 8
TOOL_0
 5
1CB
 10
8037.2
 20
2414.252
 30
0
 40
20.0
 50
270.0
 51
0
210
0
220
0
230
1.0
 0
LINE
 8
TOOL_0
 5
1CC
 10
8057.2
 20
2414.252
 30
0
 11
8057.2
 21
2444.252
 31
0
 0
LINE
 8
TOOL_0
 5
1CD
 10
8057.2
 20
2444.252
 30
0
 11
8050.129
 21
2451.323
 31
0
 0
LINE
 8
TOOL_0
 5
1CE
 10
8050.129
 20
2451.323
 30
0
 11
9132.2
 21
2537.252
 31
0
 0
LINE
 8
TOOL_0
 5
1CF
 10
9132.2
 20
2537.252
 30
0
 11
9162.2
 21
2537.252
 31
0
 0
LINE
 8
TOOL_0
 5
1D0
 10
9162.2
 20
2537.252
 30
0
 11
9162.2
 21
2567.252
 31
0
 0
ARC
 8
TOOL_0
 5
1D1
 10
9152.2
 20
2567.252
 30
0
 40
10.0
 50
0
 51
90.0
210
0
220
0
230
1.0
 0
LINE
 8
TOOL_0
 5
1D2
 10
9152.2
 20
2577.252
 30
0
 11
9042.2
 21
2577.252
 31
0
 0
ARC
 8
TOOL_0
 5
1D3
 10
9042.2
 20
2567.252
 30
0
 40
10.0
 50
90.0
 51
180.0
210
0
220
0
230
1.0
 0
LINE
 8
TOOL_0
 5
1D4
 10
9032.2
 20
2567.252
 30
0
 11
9032.2
 21
2507.252
 31
0
 0
ARC
 8
TOOL_0
 5
1D5
 10
9062.2
 20
2507.252
 30
0
 40
30.0
 50
180.0
 51
270.0
210
0
220
0
230
1.0
 0
LINE
 8
TOOL_0
 5
1D6
 10
9062.2
 20
2477.252
 30
0
 11
9132.2
 21
2477.252
 31
0
 0
ARC
 8
TOOL_0
 5
1D7
 10
9132.2
 20
2507.252
 30
0
 40
30.0
 50
270.0
 51
0
210
0
220
0
230
1.0
 0
LINE
 8
TOOL_0
 5
1D8
 10
9162.2
 20
2507.252
 30
0
 11
9162.2
 21
2537.252
 31
0
 0
LINE
 8
TOOL_0
 5
1D9
 10
9162.2
 20
2537.252
 30
0
 11
9155.129
 21
2544.323
 31
0
 0
LINE
 8
TOOL_0
 5
1DA
 10
9155.129
 20
2544.323
 30
0
 11
9022.2
 21
2417.252
 31
0
 0
LINE
 8
TOOL_0
 5
1DB
 10
9022.2
 20
2417.252
 30
0
 11
9052.2
 21
2417.252
 31
0
 0
LINE
 8
TOOL_0
 5
1DC
 10
9052.2
 20
2417.252
 30
0
 11
9052.2
 21
2447.252
 31
0
 0
ARC
 8
TOOL_0
 5
1DD
 10
9032.2
 20
2447.252
 30
0
 40
20.0
 50
0
 51
90.0
210
0
220
0
230
1.0
 0
LINE
 8
TOOL_0
 5
1DE
 10
9032.2
 20
2467.252
 30
0
 11
8972.2
 21
2467.252
 31
0
 0
ARC
 8
TOOL_0
 5
1DF
 10
8972.2
 20
2447.252
 30
0
 40
20.0
 50
90.0
 51
180.0
210
0
220
0
230
1.0
 0
LINE
 8
TOOL_0
 5
1E0
 10
8952.2
 20
2447.252
 30
0
 11
8952.2
 21
2387.252
 31
0
 0
ARC
 8
TOOL_0
 5
1E1
 10
8972.2
 20
2387.252
 30
0
 40
20.0
 50
180.0
 51
270.0
210
0
220
0
230
1.0
 0
LINE
 8
TOOL_0
 5
1E2
 10
8972.2
 20
2367.252
 30
0
 11
9032.2
 21
2367.252
 31
0
 0
ARC
 8
TOOL_0
 5
1E3
 10
9032.2
 20
2387.252
 30
0
 40
20.0
 50
270.0
 51
0
210
0
220
0
230
1.0
 0
LINE
 8
TOOL_0
 5
1E4
 10
9052.2
 20
2387.252
 30
0
 11
9052.2
 21
2417.252
 31
0
 0
LINE
 8
TOOL_0
 5
1E5
 10
9052.2
 20
2417.252
 30
0
 11
9045.129
 21
2424.323
 31
0
 0
LINE
 8
TOOL_0
 5
1E6
 10
9045.129
 20
2424.323
 30
0
 11
8932.2
 21
319.252
 31
0
 0
LINE
 8
TOOL_0
 5
1E7
 10
8932.2
 20
319.252
 30
0
 11
8962.2
 21
319.252
 31
0
 0
LINE
 8
TOOL_0
 5
1E8
 10
8962.2
 20
319.252
 30
0
 11
8962.2
 21
349.252
 31
0
 0
ARC
 8
TOOL_0
 5
1E9
 10
8952.2
 20
349.252
 30
0
 40
10.0
 50
0
 51
90.0
210
0
220
0
230
1.0
 0
LINE
 8
TOOL_0
 5
1EA
 10
8952.2
 20
359.252
 30
0
 11
8772.2
 21
359.252
 31
0
 0
ARC
 8
TOOL_0
 5
1EB
 10
8772.2
 20
349.252
 30
0
 40
10.0
 50
90.0
 51
180.0
210
0
220
0
230
1.0
 0
LINE
 8
TOOL_0
 5
1EC
 10
8762.2
 20
349.252
 30
0
 11
8762.2
 21
289.252
 31
0
 0
ARC
 8
TOOL_0
 5
1ED
 10
8772.2
 20
289.252
 30
0
 40
10.0
 50
180.0
 51
270.0
210
0
220
0
230
1.0
 0
LINE
 8
TOOL_0
 5
1EE
 10
8772.2
 20
279.252
 30
0
 11
8952.2
 21
279.252
 31
0
 0
ARC
 8
TOOL_0
 5
1EF
 10
8952.2
 20
289.252
 30
0
 40
10.0
 50
270.0
 51
0
210
0
220
0
230
1.0
 0
LINE
 8
TOOL_0
 5
1F0
 10
8962.2
 20
289.252
 30
0
 11
8962.2
 21
319.252
 31
0
 0
LINE
 8
TOOL_0
 5
1F1
 10
8962.2
 20
319.252
 30
0
 11
8955.129
 21
326.323
 31
0
 0
LINE
 8
TOOL_0
 5
1F2
 10
8955.129
 20
326.323
 30
0
 11
8407.2
 21
84.252
 31
0
 0
LINE
 8
TOOL_0
 5
1F3
 10
8407.2
 20
84.252
 30
0
 11
8437.2
 21
84.252
 31
0
 0
ARC
 8
TOOL_0
 5
1F4
 10
8402.2
 20
84.252
 30
0
 40
35.0
 50
0
 51
180.0
210
0
220
0
230
1.0
 0
ARC
 8
TOOL_0
 5
1F5
 10
8402.2
 20
84.252
 30
0
 40
35.0
 50
180.0
 51
0
210
0
220
0
230
1.0
 0
LINE
 8
TOOL_0
 5
1F6
 10
8437.2
 20
84.252
 30
0
 11
8430.129
 21
91.323
 31
0
 0
LINE
 8
TOOL_0
 5
1F7
 10
8430.129
 20
91.323
 30
0
 11
8420.2
 21
729.252
 31
0
 0
LINE
 8
TOOL_0
 5
1F8
 10
8420.2
 20
729.252
 30
0
 11
8450.2
 21
729.252
 31
0
 0
ARC
 8
TOOL_0
 5
1F9
 10
8430.2
 20
729.252
 30
0
 40
20.0
 50
0
 51
66.867990902554
210
0
220
0
230
1.0
 0
LINE
 8
TOOL_0
 5
1FA
 10
8438.057
 20
747.644
 30
0
 11
8414.378
 21
757.76
 31
0
 0
ARC
 8
TOOL_0
 5
1FB
 10
8402.199
 20
729.074
 30
0
 40
31.164316726025
 50
66.9957430162
 51
113.002564662372
210
0
220
0
230
1.0
 0
LINE
 8
TOOL_0
 5
1FC
 10
8390.021
 20
757.76
 30
0
 11
8366.342
 21
747.644
 31
0
 0
ARC
 8
TOOL_0
 5
1FD
 10
8374.199
 20
729.252
 30
0
 40
19.999952824944
 50
113.132009097445
 51
246.867990902554
210
0
220
0
230
1.0
 0
LINE
 8
TOOL_0
 5
1FE
 10
8366.342
 20
710.86
 30
0
 11
8390.021
 21
700.744
 31
0
 0
ARC
 8
TOOL_0
 5
1FF
 10
8402.2
 20
729.43
 30
0
 40
31.164316726025
 50
246.9957430162
 51
293.002564662372
210
0
220
0
230
1.0
 0
LINE
 8
TOOL_0
 5
200
 10
8414.378
 20
700.744
 30
0
 11
8438.057
 21
710.86
 31
0
 0
ARC
 8
TOOL_0
 5
201
 10
8430.2
 20
729.252
 30
0
 40
19.999952824944
 50
293.132009097446
 51
0
210
0
220
0
230
1.0
 0
LINE
 8
TOOL_0
 5
202
 10
8450.2
 20
729.252
 30
0
 11
8443.129
 21
736.323
 31
0
 0
LINE
 8
TOOL_0
 5
203
 10
8443.129
 20
736.323
 30
0
 11
7931.2
 21
1865.883
 31
0
 0
LINE
 8
TOOL_0
 5
204
 10
7931.2
 20
1865.883
 30
0
 11
7931.2
 21
1896.838
 31
0
 0
LINE
 8
TOOL_0
 5
205
 10
7931.2
 20
1896.838
 30
0
 11
7931.2
 21
2621.666
 31
0
 0
LINE
 8
TOOL_0
 5
206
 10
7931.2
 20
2621.666
 30
0
 11
7939.786
 21
2630.252
 31
0
 0
LINE
 8
TOOL_0
 5
207
 10
7939.786
 20
2630.252
 30
0
 11
9416.2
 21
2630.252
 31
0
 0
ARC
 8
TOOL_0
 5
208
 10
9416.2
 20
2623.252
 30
0
 40
7.0
 50
0
 51
90.0
210
0
220
0
230
1.0
 0
LINE
 8
TOOL_0
 5
209
 10
9423.2
 20
2623.252
 30
0
 11
9423.2
 21
3.252
 31
0
 0
LINE
 8
TOOL_0
 5
20A
 10
9423.2
 20
3.252
 30
0
 11
7805.2
 21
3.252
 31
0
 0
ARC
 8
TOOL_0
 5
20B
 10
7805.2
 20
10.252
 30
0
 40
7.0
 50
180.0
 51
270.0
210
0
220
0
230
1.0
 0
LINE
 8
TOOL_0
 5
20C
 10
7798.2
 20
10.252
 30
0
 11
7798.2
 21
484.252
 31
0
 0
LINE
 8
TOOL_0
 5
20D
 10
7798.2
 20
484.252
 30
0
 11
7946.2
 21
484.252
 31
0
 0
LINE
 8
TOOL_0
 5
20E
 10
7946.2
 20
484.252
 30
0
 11
7946.2
 21
449.252
 31
0
 0
ARC
 8
TOOL_0
 5
20F
 10
7967.2
 20
449.252
 30
0
 40
21.0
 50
180.0
 51
327.688053502426
210
0
220
0
230
1.0
 0
LINE
 8
TOOL_0
 5
210
 10
7984.948
 20
438.027
 30
0
 11
8018.258
 21
490.696
 31
0
 0
ARC
 8
TOOL_0
 5
211
 10
8002.2
 20
500.852
 30
0
 40
19.000097368172
 50
327.688392683242
 51
63.424159673344
210
0
220
0
230
1.0
 0
LINE
 8
TOOL_0
 5
212
 10
8010.7
 20
517.844
 30
0
 11
8010.7
 21
1063.251
 31
0
 0
LINE
 8
TOOL_0
 5
213
 10
8010.7
 20
1063.251
 30
0
 11
8047.801
 21
1063.251
 31
0
 0
ARC
 8
TOOL_0
 5
214
 10
8052.7
 20
1062.251
 30
0
 40
5.00002009996
 50
168.463087982615
 51
270.0
210
0
220
0
230
1.0
 0
LINE
 8
TOOL_0
 5
215
 10
8052.7
 20
1057.251
 30
0
 11
8097.2
 21
1057.251
 31
0
 0
ARC
 8
TOOL_0
 5
216
 10
8097.2
 20
1256.251
 30
0
 40
199.0
 50
270.0
 51
359.99971208151
210
0
220
0
230
1.0
 0
LINE
 8
TOOL_0
 5
217
 10
8296.2
 20
1256.25
 30
0
 11
8296.2
 21
1689.251
 31
0
 0
ARC
 8
TOOL_0
 5
218
 10
8097.2
 20
1689.251
 30
0
 40
199.0
 50
0
 51
90.0
210
0
220
0
230
1.0
 0
LINE
 8
TOOL_0
 5
219
 10
8097.2
 20
1888.251
 30
0
 11
7939.786
 21
1888.251
 31
0
 0
LINE
 8
TOOL_0
 5
21A
 10
7939.786
 20
1888.251
 30
0
 11
7931.2
 21
1896.837
 31
0
 0
LINE
 8
TOOL_0
 5
21B
 10
7931.2
 20
1896.837
 30
0
 11
7928.117
 21
1900.567
 31
0
 0
ENDSEC
 0
EOF

