0
SECTION
2
TABLES
0
TABLE
2
LAYER
70
0
0
LAYER
2
LAYER_NAME
70
0
62
1
6
CONTINUOUS
0
ENDTAB
0
ENDSEC
 0
SECTION
 2
ENTITIES
 0
LINE
 8
TOOL_0
 5
1
 10
1094.586
 20
-1627.575
 30
0
 11
1141.218
 21
-1645.614
 31
0
 0
ARC
 8
TOOL_0
 5
2
 10
1075.0
 20
-1619.999
 30
0
 40
70.999660203412
 50
338.852116508598
 51
158.851363874405
210
0
220
0
230
1.0
 0
ARC
 8
TOOL_0
 5
3
 10
1075.0
 20
-1619.999
 30
0
 40
71.000020985912
 50
158.851363874405
 51
338.852116508598
210
0
220
0
230
1.0
 0
ARC
 8
TOOL_0
 5
4
 10
1133.757
 20
-1642.728
 30
0
 40
7.999719807593
 50
338.852960545345
 51
36.147954884731
210
0
220
0
230
1.0
 0
LINE
 8
TOOL_0
 5
5
 10
1140.217
 20
-1638.009
 30
0
 11
2297.5
 21
-2089.999
 31
0
 0
LINE
 8
TOOL_0
 5
6
 10
2297.5
 20
-2089.999
 30
0
 11
2290.0
 21
-2089.999
 31
0
 0
LINE
 8
TOOL_0
 5
7
 10
2290.0
 20
-2089.999
 30
0
 11
10.0
 21
-2089.999
 31
0
 0
LINE
 8
TOOL_0
 5
8
 10
10.0
 20
-2089.999
 30
0
 11
10.0
 21
-1149.999
 31
0
 0
LINE
 8
TOOL_0
 5
9
 10
10.0
 20
-1149.999
 30
0
 11
2290.0
 21
-1149.999
 31
0
 0
LINE
 8
TOOL_0
 5
A
 10
2290.0
 20
-1149.999
 30
0
 11
2290.0
 21
-2089.999
 31
0
 0
LINE
 8
TOOL_0
 5
B
 10
2290.0
 20
-2089.999
 30
0
 11
2290.0
 21
-2093.999
 31
0
 0
LINE
 8
TOOL_0
 5
C
 10
2290.0
 20
-2093.999
 30
0
 11
1094.586
 21
-668.936
 31
0
 0
LINE
 8
TOOL_0
 5
D
 10
1094.586
 20
-668.936
 30
0
 11
1141.218
 21
-686.975
 31
0
 0
ARC
 8
TOOL_0
 5
E
 10
1075.0
 20
-661.36
 30
0
 40
70.999660203412
 50
338.852116508598
 51
158.851363874405
210
0
220
0
230
1.0
 0
ARC
 8
TOOL_0
 5
F
 10
1075.0
 20
-661.36
 30
0
 40
71.000020985912
 50
158.851363874405
 51
338.852116508598
210
0
220
0
230
1.0
 0
ARC
 8
TOOL_0
 5
10
 10
1133.757
 20
-684.089
 30
0
 40
7.999719807593
 50
338.852960545345
 51
36.147954884731
210
0
220
0
230
1.0
 0
LINE
 8
TOOL_0
 5
11
 10
1140.217
 20
-679.37
 30
0
 11
2297.5
 21
-1131.36
 31
0
 0
LINE
 8
TOOL_0
 5
12
 10
2297.5
 20
-1131.36
 30
0
 11
2290.0
 21
-1131.36
 31
0
 0
LINE
 8
TOOL_0
 5
13
 10
2290.0
 20
-1131.36
 30
0
 11
10.0
 21
-1131.36
 31
0
 0
LINE
 8
TOOL_0
 5
14
 10
10.0
 20
-1131.36
 30
0
 11
10.0
 21
-191.36
 31
0
 0
LINE
 8
TOOL_0
 5
15
 10
10.0
 20
-191.36
 30
0
 11
2290.0
 21
-191.36
 31
0
 0
LINE
 8
TOOL_0
 5
16
 10
2290.0
 20
-191.36
 30
0
 11
2290.0
 21
-1131.36
 31
0
 0
LINE
 8
TOOL_0
 5
17
 10
2290.0
 20
-1131.36
 30
0
 11
2290.0
 21
-1135.36
 31
0
 0
LINE
 8
TOOL_0
 5
18
 10
2290.0
 20
-1135.36
 30
0
 11
3392.656
 21
-1627.575
 31
0
 0
LINE
 8
TOOL_0
 5
19
 10
3392.656
 20
-1627.575
 30
0
 11
3439.289
 21
-1645.614
 31
0
 0
ARC
 8
TOOL_0
 5
1A
 10
3373.071
 20
-1619.999
 30
0
 40
70.999660203412
 50
338.852116508598
 51
158.851363874405
210
0
220
0
230
1.0
 0
ARC
 8
TOOL_0
 5
1B
 10
3373.071
 20
-1619.999
 30
0
 40
71.000020985912
 50
158.851363874405
 51
338.852116508598
210
0
220
0
230
1.0
 0
ARC
 8
TOOL_0
 5
1C
 10
3431.828
 20
-1642.728
 30
0
 40
7.999719807593
 50
338.852960545345
 51
36.147954884733
210
0
220
0
230
1.0
 0
LINE
 8
TOOL_0
 5
1D
 10
3438.288
 20
-1638.009
 30
0
 11
4595.571
 21
-2089.999
 31
0
 0
LINE
 8
TOOL_0
 5
1E
 10
4595.571
 20
-2089.999
 30
0
 11
4588.071
 21
-2089.999
 31
0
 0
LINE
 8
TOOL_0
 5
1F
 10
4588.071
 20
-2089.999
 30
0
 11
2308.071
 21
-2089.999
 31
0
 0
LINE
 8
TOOL_0
 5
20
 10
2308.071
 20
-2089.999
 30
0
 11
2308.071
 21
-1149.999
 31
0
 0
LINE
 8
TOOL_0
 5
21
 10
2308.071
 20
-1149.999
 30
0
 11
4588.071
 21
-1149.999
 31
0
 0
LINE
 8
TOOL_0
 5
22
 10
4588.071
 20
-1149.999
 30
0
 11
4588.071
 21
-2089.999
 31
0
 0
LINE
 8
TOOL_0
 5
23
 10
4588.071
 20
-2089.999
 30
0
 11
4588.071
 21
-2093.999
 31
0
 0
LINE
 8
TOOL_0
 5
24
 10
4588.071
 20
-2093.999
 30
0
 11
3392.996
 21
-669.276
 31
0
 0
LINE
 8
TOOL_0
 5
25
 10
3392.996
 20
-669.276
 30
0
 11
3439.628
 21
-687.315
 31
0
 0
ARC
 8
TOOL_0
 5
26
 10
3373.41
 20
-661.7
 30
0
 40
70.999660203412
 50
338.852116508598
 51
158.851363874405
210
0
220
0
230
1.0
 0
ARC
 8
TOOL_0
 5
27
 10
3373.41
 20
-661.7
 30
0
 40
71.000020985912
 50
158.851363874405
 51
338.852116508598
210
0
220
0
230
1.0
 0
ARC
 8
TOOL_0
 5
28
 10
3432.167
 20
-684.429
 30
0
 40
7.999719807593
 50
338.852960545345
 51
36.147954884733
210
0
220
0
230
1.0
 0
LINE
 8
TOOL_0
 5
29
 10
3438.627
 20
-679.71
 30
0
 11
4595.91
 21
-1131.7
 31
0
 0
LINE
 8
TOOL_0
 5
2A
 10
4595.91
 20
-1131.7
 30
0
 11
4588.41
 21
-1131.7
 31
0
 0
LINE
 8
TOOL_0
 5
2B
 10
4588.41
 20
-1131.7
 30
0
 11
2308.41
 21
-1131.7
 31
0
 0
LINE
 8
TOOL_0
 5
2C
 10
2308.41
 20
-1131.7
 30
0
 11
2308.41
 21
-191.7
 31
0
 0
LINE
 8
TOOL_0
 5
2D
 10
2308.41
 20
-191.7
 30
0
 11
4588.41
 21
-191.7
 31
0
 0
LINE
 8
TOOL_0
 5
2E
 10
4588.41
 20
-191.7
 30
0
 11
4588.41
 21
-1131.7
 31
0
 0
LINE
 8
TOOL_0
 5
2F
 10
4588.41
 20
-1131.7
 30
0
 11
4588.41
 21
-1135.7
 31
0
 0
LINE
 8
TOOL_0
 5
30
 10
4588.41
 20
-1135.7
 30
0
 11
5528.679
 21
-2092.8
 31
0
 0
LINE
 8
TOOL_0
 5
31
 10
5528.679
 20
-2092.8
 30
0
 11
5513.679
 21
-2092.8
 31
0
 0
LINE
 8
TOOL_0
 5
32
 10
5513.679
 20
-2092.8
 30
0
 11
4603.679
 21
-2092.8
 31
0
 0
LINE
 8
TOOL_0
 5
33
 10
4603.679
 20
-2092.8
 30
0
 11
4603.679
 21
-477.8
 31
0
 0
LINE
 8
TOOL_0
 5
34
 10
4603.679
 20
-477.8
 30
0
 11
4778.679
 21
-477.8
 31
0
 0
LINE
 8
TOOL_0
 5
35
 10
4778.679
 20
-477.8
 30
0
 11
5513.679
 21
-745.318
 31
0
 0
LINE
 8
TOOL_0
 5
36
 10
5513.679
 20
-745.318
 30
0
 11
5513.679
 21
-2092.8
 31
0
 0
LINE
 8
TOOL_0
 5
37
 10
5513.679
 20
-2092.8
 30
0
 11
5513.679
 21
-2100.8
 31
0
 0
LINE
 8
TOOL_0
 5
38
 10
5513.679
 20
-2100.8
 30
0
 11
4916.867
 21
-180.958
 31
0
 0
LINE
 8
TOOL_0
 5
39
 10
4916.867
 20
-180.958
 30
0
 11
4966.867
 21
-180.958
 31
0
 0
ARC
 8
TOOL_0
 5
3A
 10
4926.867
 20
-180.958
 30
0
 40
40.0
 50
0
 51
90.0
210
0
220
0
230
1.0
 0
LINE
 8
TOOL_0
 5
3B
 10
4926.867
 20
-140.958
 30
0
 11
4856.867
 21
-140.958
 31
0
 0
ARC
 8
TOOL_0
 5
3C
 10
4856.867
 20
-180.958
 30
0
 40
40.0
 50
90.0
 51
270.0
210
0
220
0
230
1.0
 0
LINE
 8
TOOL_0
 5
3D
 10
4856.867
 20
-220.958
 30
0
 11
4926.867
 21
-220.958
 31
0
 0
ARC
 8
TOOL_0
 5
3E
 10
4926.867
 20
-180.958
 30
0
 40
40.0
 50
270.0
 51
0
210
0
220
0
230
1.0
 0
ARC
 8
TOOL_0
 5
3F
 10
4958.867
 20
-180.958
 30
0
 40
8.0
 50
0
 51
57.299199559756
210
0
220
0
230
1.0
 0
LINE
 8
TOOL_0
 5
40
 10
4963.189
 20
-174.226
 30
0
 11
5156.867
 21
-460.958
 31
0
 0
LINE
 8
TOOL_0
 5
41
 10
5156.867
 20
-460.958
 30
0
 11
5141.867
 21
-460.958
 31
0
 0
LINE
 8
TOOL_0
 5
42
 10
5141.867
 20
-460.958
 30
0
 11
4641.867
 21
-460.958
 31
0
 0
LINE
 8
TOOL_0
 5
43
 10
4641.867
 20
-460.958
 30
0
 11
4641.867
 21
-110.958
 31
0
 0
LINE
 8
TOOL_0
 5
44
 10
4641.867
 20
-110.958
 30
0
 11
5141.867
 21
-110.958
 31
0
 0
LINE
 8
TOOL_0
 5
45
 10
5141.867
 20
-110.958
 30
0
 11
5141.867
 21
-460.958
 31
0
 0
LINE
 8
TOOL_0
 5
46
 10
5141.867
 20
-460.958
 30
0
 11
5141.867
 21
-468.958
 31
0
 0
LINE
 8
TOOL_0
 5
47
 10
5141.867
 20
-468.958
 30
0
 11
5243.318
 21
-294.666
 31
0
 0
LINE
 8
TOOL_0
 5
48
 10
5243.318
 20
-294.666
 30
0
 11
5243.318
 21
-344.666
 31
0
 0
ARC
 8
TOOL_0
 5
49
 10
5243.318
 20
-304.666
 30
0
 40
40.0
 50
270.0
 51
0
210
0
220
0
230
1.0
 0
LINE
 8
TOOL_0
 5
4A
 10
5283.318
 20
-304.666
 30
0
 11
5283.318
 21
-234.666
 31
0
 0
ARC
 8
TOOL_0
 5
4B
 10
5243.318
 20
-234.666
 30
0
 40
40.0
 50
0
 51
180.0
210
0
220
0
230
1.0
 0
LINE
 8
TOOL_0
 5
4C
 10
5203.318
 20
-234.666
 30
0
 11
5203.318
 21
-304.666
 31
0
 0
ARC
 8
TOOL_0
 5
4D
 10
5243.318
 20
-304.666
 30
0
 40
40.0
 50
180.0
 51
270.0
210
0
220
0
230
1.0
 0
ARC
 8
TOOL_0
 5
4E
 10
5243.318
 20
-336.666
 30
0
 40
8.0
 50
270.0
 51
327.299199559757
210
0
220
0
230
1.0
 0
LINE
 8
TOOL_0
 5
4F
 10
5250.05
 20
-340.988
 30
0
 11
5533.057
 21
-531.938
 31
0
 0
ARC
 8
TOOL_0
 5
50
 10
5523.318
 20
-529.666
 30
0
 40
10.000505237236
 50
346.86839544107
 51
90.0
210
0
220
0
230
1.0
 0
LINE
 8
TOOL_0
 5
51
 10
5523.318
 20
-519.666
 30
0
 11
5173.318
 21
-519.666
 31
0
 0
LINE
 8
TOOL_0
 5
52
 10
5173.318
 20
-519.666
 30
0
 11
5173.318
 21
-19.666
 31
0
 0
LINE
 8
TOOL_0
 5
53
 10
5173.318
 20
-19.666
 30
0
 11
5523.318
 21
-19.666
 31
0
 0
LINE
 8
TOOL_0
 5
54
 10
5523.318
 20
-19.666
 30
0
 11
5523.318
 21
-519.666
 31
0
 0
LINE
 8
TOOL_0
 5
55
 10
5523.318
 20
-519.666
 30
0
 11
5528.975
 21
-525.323
 31
0
 0
LINE
 8
TOOL_0
 5
56
 10
5528.975
 20
-525.323
 30
0
 11
5610.0
 21
-1865.0
 31
0
 0
LINE
 8
TOOL_0
 5
57
 10
5610.0
 20
-1865.0
 30
0
 11
5610.0
 21
-1915.0
 31
0
 0
ARC
 8
TOOL_0
 5
58
 10
5610.0
 20
-1875.0
 30
0
 40
40.0
 50
270.0
 51
0
210
0
220
0
230
1.0
 0
LINE
 8
TOOL_0
 5
59
 10
5650.0
 20
-1875.0
 30
0
 11
5650.0
 21
-1805.0
 31
0
 0
ARC
 8
TOOL_0
 5
5A
 10
5610.0
 20
-1805.0
 30
0
 40
40.0
 50
0
 51
180.0
210
0
220
0
230
1.0
 0
LINE
 8
TOOL_0
 5
5B
 10
5570.0
 20
-1805.0
 30
0
 11
5570.0
 21
-1875.0
 31
0
 0
ARC
 8
TOOL_0
 5
5C
 10
5610.0
 20
-1875.0
 30
0
 40
40.0
 50
180.0
 51
270.0
210
0
220
0
230
1.0
 0
ARC
 8
TOOL_0
 5
5D
 10
5610.0
 20
-1907.0
 30
0
 40
8.0
 50
270.0
 51
327.299199559758
210
0
220
0
230
1.0
 0
LINE
 8
TOOL_0
 5
5E
 10
5616.732
 20
-1911.322
 30
0
 11
5897.5
 21
-2090.0
 31
0
 0
LINE
 8
TOOL_0
 5
5F
 10
5897.5
 20
-2090.0
 30
0
 11
5890.0
 21
-2090.0
 31
0
 0
LINE
 8
TOOL_0
 5
60
 10
5890.0
 20
-2090.0
 30
0
 11
5540.0
 21
-2090.0
 31
0
 0
LINE
 8
TOOL_0
 5
61
 10
5540.0
 20
-2090.0
 30
0
 11
5540.0
 21
-1590.0
 31
0
 0
LINE
 8
TOOL_0
 5
62
 10
5540.0
 20
-1590.0
 30
0
 11
5890.0
 21
-1590.0
 31
0
 0
LINE
 8
TOOL_0
 5
63
 10
5890.0
 20
-1590.0
 30
0
 11
5890.0
 21
-2090.0
 31
0
 0
LINE
 8
TOOL_0
 5
64
 10
5890.0
 20
-2090.0
 30
0
 11
5890.0
 21
-2094.0
 31
0
 0
LINE
 8
TOOL_0
 5
65
 10
5890.0
 20
-2094.0
 30
0
 11
5610.0
 21
-1348.916
 31
0
 0
LINE
 8
TOOL_0
 5
66
 10
5610.0
 20
-1348.916
 30
0
 11
5610.0
 21
-1398.916
 31
0
 0
ARC
 8
TOOL_0
 5
67
 10
5610.0
 20
-1358.916
 30
0
 40
40.0
 50
270.0
 51
0
210
0
220
0
230
1.0
 0
LINE
 8
TOOL_0
 5
68
 10
5650.0
 20
-1358.916
 30
0
 11
5650.0
 21
-1288.916
 31
0
 0
ARC
 8
TOOL_0
 5
69
 10
5610.0
 20
-1288.916
 30
0
 40
40.0
 50
0
 51
180.0
210
0
220
0
230
1.0
 0
LINE
 8
TOOL_0
 5
6A
 10
5570.0
 20
-1288.916
 30
0
 11
5570.0
 21
-1358.916
 31
0
 0
ARC
 8
TOOL_0
 5
6B
 10
5610.0
 20
-1358.916
 30
0
 40
40.0
 50
180.0
 51
270.0
210
0
220
0
230
1.0
 0
ARC
 8
TOOL_0
 5
6C
 10
5610.0
 20
-1390.916
 30
0
 40
8.0
 50
270.0
 51
327.299199559758
210
0
220
0
230
1.0
 0
LINE
 8
TOOL_0
 5
6D
 10
5616.732
 20
-1395.238
 30
0
 11
5897.5
 21
-1573.915
 31
0
 0
LINE
 8
TOOL_0
 5
6E
 10
5897.5
 20
-1573.915
 30
0
 11
5890.0
 21
-1573.915
 31
0
 0
LINE
 8
TOOL_0
 5
6F
 10
5890.0
 20
-1573.915
 30
0
 11
5540.0
 21
-1573.915
 31
0
 0
LINE
 8
TOOL_0
 5
70
 10
5540.0
 20
-1573.915
 30
0
 11
5540.0
 21
-1073.915
 31
0
 0
LINE
 8
TOOL_0
 5
71
 10
5540.0
 20
-1073.915
 30
0
 11
5890.0
 21
-1073.915
 31
0
 0
LINE
 8
TOOL_0
 5
72
 10
5890.0
 20
-1073.915
 30
0
 11
5890.0
 21
-1573.915
 31
0
 0
LINE
 8
TOOL_0
 5
73
 10
5890.0
 20
-1573.915
 30
0
 11
5890.0
 21
-1577.915
 31
0
 0
LINE
 8
TOOL_0
 5
74
 10
5890.0
 20
-1577.915
 30
0
 11
5606.616
 21
-832.652
 31
0
 0
LINE
 8
TOOL_0
 5
75
 10
5606.616
 20
-832.652
 30
0
 11
5606.616
 21
-882.652
 31
0
 0
ARC
 8
TOOL_0
 5
76
 10
5606.616
 20
-842.652
 30
0
 40
40.0
 50
270.0
 51
0
210
0
220
0
230
1.0
 0
LINE
 8
TOOL_0
 5
77
 10
5646.616
 20
-842.652
 30
0
 11
5646.616
 21
-772.652
 31
0
 0
ARC
 8
TOOL_0
 5
78
 10
5606.616
 20
-772.652
 30
0
 40
40.0
 50
0
 51
180.0
210
0
220
0
230
1.0
 0
LINE
 8
TOOL_0
 5
79
 10
5566.616
 20
-772.652
 30
0
 11
5566.616
 21
-842.652
 31
0
 0
ARC
 8
TOOL_0
 5
7A
 10
5606.616
 20
-842.652
 30
0
 40
40.0
 50
180.0
 51
270.0
210
0
220
0
230
1.0
 0
ARC
 8
TOOL_0
 5
7B
 10
5606.616
 20
-874.652
 30
0
 40
8.0
 50
270.0
 51
327.299199559757
210
0
220
0
230
1.0
 0
LINE
 8
TOOL_0
 5
7C
 10
5613.348
 20
-878.974
 30
0
 11
5894.116
 21
-1057.652
 31
0
 0
LINE
 8
TOOL_0
 5
7D
 10
5894.116
 20
-1057.652
 30
0
 11
5886.616
 21
-1057.652
 31
0
 0
LINE
 8
TOOL_0
 5
7E
 10
5886.616
 20
-1057.652
 30
0
 11
5536.616
 21
-1057.652
 31
0
 0
LINE
 8
TOOL_0
 5
7F
 10
5536.616
 20
-1057.652
 30
0
 11
5536.616
 21
-557.652
 31
0
 0
LINE
 8
TOOL_0
 5
80
 10
5536.616
 20
-557.652
 30
0
 11
5886.616
 21
-557.652
 31
0
 0
LINE
 8
TOOL_0
 5
81
 10
5886.616
 20
-557.652
 30
0
 11
5886.616
 21
-1057.652
 31
0
 0
LINE
 8
TOOL_0
 5
82
 10
5886.616
 20
-1057.652
 30
0
 11
5886.616
 21
-1061.652
 31
0
 0
LINE
 8
TOOL_0
 5
83
 10
5886.616
 20
-1061.652
 30
0
 11
5609.427
 21
-316.388
 31
0
 0
LINE
 8
TOOL_0
 5
84
 10
5609.427
 20
-316.388
 30
0
 11
5609.427
 21
-366.388
 31
0
 0
ARC
 8
TOOL_0
 5
85
 10
5609.427
 20
-326.388
 30
0
 40
40.0
 50
270.0
 51
0
210
0
220
0
230
1.0
 0
LINE
 8
TOOL_0
 5
86
 10
5649.427
 20
-326.388
 30
0
 11
5649.427
 21
-256.388
 31
0
 0
ARC
 8
TOOL_0
 5
87
 10
5609.427
 20
-256.388
 30
0
 40
40.0
 50
0
 51
180.0
210
0
220
0
230
1.0
 0
LINE
 8
TOOL_0
 5
88
 10
5569.427
 20
-256.388
 30
0
 11
5569.427
 21
-326.388
 31
0
 0
ARC
 8
TOOL_0
 5
89
 10
5609.427
 20
-326.388
 30
0
 40
40.0
 50
180.0
 51
270.0
210
0
220
0
230
1.0
 0
ARC
 8
TOOL_0
 5
8A
 10
5609.427
 20
-358.388
 30
0
 40
8.0
 50
270.0
 51
327.299199559757
210
0
220
0
230
1.0
 0
LINE
 8
TOOL_0
 5
8B
 10
5616.159
 20
-362.71
 30
0
 11
5896.927
 21
-541.388
 31
0
 0
LINE
 8
TOOL_0
 5
8C
 10
5896.927
 20
-541.388
 30
0
 11
5889.427
 21
-541.388
 31
0
 0
LINE
 8
TOOL_0
 5
8D
 10
5889.427
 20
-541.388
 30
0
 11
5539.427
 21
-541.388
 31
0
 0
LINE
 8
TOOL_0
 5
8E
 10
5539.427
 20
-541.388
 30
0
 11
5539.427
 21
-41.388
 31
0
 0
LINE
 8
TOOL_0
 5
8F
 10
5539.427
 20
-41.388
 30
0
 11
5889.427
 21
-41.388
 31
0
 0
LINE
 8
TOOL_0
 5
90
 10
5889.427
 20
-41.388
 30
0
 11
5889.427
 21
-541.388
 31
0
 0
LINE
 8
TOOL_0
 5
91
 10
5889.427
 20
-541.388
 30
0
 11
5889.427
 21
-545.388
 31
0
 0
ENDSEC
 0
EOF

