0
SECTION
2
TABLES
0
TABLE
2
LAYER
70
0
0
LAYER
2
LAYER_NAME
70
0
62
1
6
CONTINUOUS
0
ENDTAB
0
ENDSEC
 0
SECTION
 2
ENTITIES
 0
LINE
 8
TOOL_0
 5
1
 10
852.643
 20
-1591.389
 30
0
 11
894.65
 21
-1618.507
 31
0
 0
ARC
 8
TOOL_0
 5
2
 10
835.0
 20
-1579.999
 30
0
 40
70.999919464743
 50
327.155096173582
 51
147.154418198003
210
0
220
0
230
1.0
 0
ARC
 8
TOOL_0
 5
3
 10
835.0
 20
-1579.999
 30
0
 40
71.000461836526
 50
147.154418198003
 51
327.155096173582
210
0
220
0
230
1.0
 0
ARC
 8
TOOL_0
 5
4
 10
887.929
 20
-1614.168
 30
0
 40
7.999922624626
 50
327.154180036447
 51
24.450475297006
210
0
220
0
230
1.0
 0
LINE
 8
TOOL_0
 5
5
 10
895.211
 20
-1610.857
 30
0
 11
1632.499
 21
-2089.999
 31
0
 0
LINE
 8
TOOL_0
 5
6
 10
1632.499
 20
-2089.999
 30
0
 11
1624.999
 21
-2089.999
 31
0
 0
LINE
 8
TOOL_0
 5
7
 10
1624.999
 20
-2089.999
 30
0
 11
9.999
 21
-2089.999
 31
0
 0
LINE
 8
TOOL_0
 5
8
 10
9.999
 20
-2089.999
 30
0
 11
9.999
 21
-1064.999
 31
0
 0
LINE
 8
TOOL_0
 5
9
 10
9.999
 20
-1064.999
 30
0
 11
1624.999
 21
-1064.999
 31
0
 0
LINE
 8
TOOL_0
 5
A
 10
1624.999
 20
-1064.999
 30
0
 11
1624.999
 21
-2089.999
 31
0
 0
LINE
 8
TOOL_0
 5
B
 10
1624.999
 20
-2089.999
 30
0
 11
1624.999
 21
-2093.999
 31
0
 0
LINE
 8
TOOL_0
 5
C
 10
1624.999
 20
-2093.999
 30
0
 11
852.642
 21
-548.305
 31
0
 0
LINE
 8
TOOL_0
 5
D
 10
852.642
 20
-548.305
 30
0
 11
894.649
 21
-575.424
 31
0
 0
ARC
 8
TOOL_0
 5
E
 10
834.999
 20
-536.916
 30
0
 40
70.999919464743
 50
327.155096173582
 51
147.154418198003
210
0
220
0
230
1.0
 0
ARC
 8
TOOL_0
 5
F
 10
834.999
 20
-536.916
 30
0
 40
71.000461836526
 50
147.154418198003
 51
327.155096173582
210
0
220
0
230
1.0
 0
ARC
 8
TOOL_0
 5
10
 10
887.928
 20
-571.085
 30
0
 40
7.999922624626
 50
327.154180036446
 51
24.450475297005
210
0
220
0
230
1.0
 0
LINE
 8
TOOL_0
 5
11
 10
895.21
 20
-567.774
 30
0
 11
1632.498
 21
-1046.916
 31
0
 0
LINE
 8
TOOL_0
 5
12
 10
1632.498
 20
-1046.916
 30
0
 11
1624.998
 21
-1046.916
 31
0
 0
LINE
 8
TOOL_0
 5
13
 10
1624.998
 20
-1046.916
 30
0
 11
9.998
 21
-1046.916
 31
0
 0
LINE
 8
TOOL_0
 5
14
 10
9.998
 20
-1046.916
 30
0
 11
9.998
 21
-21.916
 31
0
 0
LINE
 8
TOOL_0
 5
15
 10
9.998
 20
-21.916
 30
0
 11
1624.998
 21
-21.916
 31
0
 0
LINE
 8
TOOL_0
 5
16
 10
1624.998
 20
-21.916
 30
0
 11
1624.998
 21
-1046.916
 31
0
 0
LINE
 8
TOOL_0
 5
17
 10
1624.998
 20
-1046.916
 30
0
 11
1624.998
 21
-1050.916
 31
0
 0
LINE
 8
TOOL_0
 5
18
 10
1624.998
 20
-1050.916
 30
0
 11
2485.717
 21
-1591.39
 31
0
 0
LINE
 8
TOOL_0
 5
19
 10
2485.717
 20
-1591.39
 30
0
 11
2527.724
 21
-1618.508
 31
0
 0
ARC
 8
TOOL_0
 5
1A
 10
2468.074
 20
-1580.0
 30
0
 40
70.999919464743
 50
327.155096173582
 51
147.154418198003
210
0
220
0
230
1.0
 0
ARC
 8
TOOL_0
 5
1B
 10
2468.074
 20
-1580.0
 30
0
 40
71.000461836526
 50
147.154418198003
 51
327.155096173582
210
0
220
0
230
1.0
 0
ARC
 8
TOOL_0
 5
1C
 10
2521.003
 20
-1614.169
 30
0
 40
7.999922624626
 50
327.154180036447
 51
24.450475297006
210
0
220
0
230
1.0
 0
LINE
 8
TOOL_0
 5
1D
 10
2528.285
 20
-1610.858
 30
0
 11
3265.573
 21
-2090.0
 31
0
 0
LINE
 8
TOOL_0
 5
1E
 10
3265.573
 20
-2090.0
 30
0
 11
3258.073
 21
-2090.0
 31
0
 0
LINE
 8
TOOL_0
 5
1F
 10
3258.073
 20
-2090.0
 30
0
 11
1643.073
 21
-2090.0
 31
0
 0
LINE
 8
TOOL_0
 5
20
 10
1643.073
 20
-2090.0
 30
0
 11
1643.073
 21
-1065.0
 31
0
 0
LINE
 8
TOOL_0
 5
21
 10
1643.073
 20
-1065.0
 30
0
 11
3258.073
 21
-1065.0
 31
0
 0
LINE
 8
TOOL_0
 5
22
 10
3258.073
 20
-1065.0
 30
0
 11
3258.073
 21
-2090.0
 31
0
 0
LINE
 8
TOOL_0
 5
23
 10
3258.073
 20
-2090.0
 30
0
 11
3258.073
 21
-2094.0
 31
0
 0
LINE
 8
TOOL_0
 5
24
 10
3258.073
 20
-2094.0
 30
0
 11
2485.716
 21
-548.306
 31
0
 0
LINE
 8
TOOL_0
 5
25
 10
2485.716
 20
-548.306
 30
0
 11
2527.723
 21
-575.424
 31
0
 0
ARC
 8
TOOL_0
 5
26
 10
2468.073
 20
-536.916
 30
0
 40
70.999919464743
 50
327.155096173582
 51
147.154418198003
210
0
220
0
230
1.0
 0
ARC
 8
TOOL_0
 5
27
 10
2468.073
 20
-536.916
 30
0
 40
71.000461836526
 50
147.154418198003
 51
327.155096173582
210
0
220
0
230
1.0
 0
ARC
 8
TOOL_0
 5
28
 10
2521.002
 20
-571.085
 30
0
 40
7.999922624626
 50
327.154180036446
 51
24.450475297004
210
0
220
0
230
1.0
 0
LINE
 8
TOOL_0
 5
29
 10
2528.284
 20
-567.774
 30
0
 11
3265.572
 21
-1046.916
 31
0
 0
LINE
 8
TOOL_0
 5
2A
 10
3265.572
 20
-1046.916
 30
0
 11
3258.072
 21
-1046.916
 31
0
 0
LINE
 8
TOOL_0
 5
2B
 10
3258.072
 20
-1046.916
 30
0
 11
1643.072
 21
-1046.916
 31
0
 0
LINE
 8
TOOL_0
 5
2C
 10
1643.072
 20
-1046.916
 30
0
 11
1643.072
 21
-21.916
 31
0
 0
LINE
 8
TOOL_0
 5
2D
 10
1643.072
 20
-21.916
 30
0
 11
3258.072
 21
-21.916
 31
0
 0
LINE
 8
TOOL_0
 5
2E
 10
3258.072
 20
-21.916
 30
0
 11
3258.072
 21
-1046.916
 31
0
 0
LINE
 8
TOOL_0
 5
2F
 10
3258.072
 20
-1046.916
 30
0
 11
3258.072
 21
-1050.916
 31
0
 0
LINE
 8
TOOL_0
 5
30
 10
3258.072
 20
-1050.916
 30
0
 11
4118.994
 21
-1591.39
 31
0
 0
LINE
 8
TOOL_0
 5
31
 10
4118.994
 20
-1591.39
 30
0
 11
4161.001
 21
-1618.508
 31
0
 0
ARC
 8
TOOL_0
 5
32
 10
4101.351
 20
-1580.0
 30
0
 40
70.999919464743
 50
327.155096173582
 51
147.154418198003
210
0
220
0
230
1.0
 0
ARC
 8
TOOL_0
 5
33
 10
4101.351
 20
-1580.0
 30
0
 40
71.000461836526
 50
147.154418198002
 51
327.155096173582
210
0
220
0
230
1.0
 0
ARC
 8
TOOL_0
 5
34
 10
4154.28
 20
-1614.169
 30
0
 40
7.999922624625
 50
327.154180036445
 51
24.450475297009
210
0
220
0
230
1.0
 0
LINE
 8
TOOL_0
 5
35
 10
4161.562
 20
-1610.858
 30
0
 11
4898.851
 21
-2090.0
 31
0
 0
LINE
 8
TOOL_0
 5
36
 10
4898.851
 20
-2090.0
 30
0
 11
4891.351
 21
-2090.0
 31
0
 0
LINE
 8
TOOL_0
 5
37
 10
4891.351
 20
-2090.0
 30
0
 11
3276.351
 21
-2090.0
 31
0
 0
LINE
 8
TOOL_0
 5
38
 10
3276.351
 20
-2090.0
 30
0
 11
3276.351
 21
-1065.0
 31
0
 0
LINE
 8
TOOL_0
 5
39
 10
3276.351
 20
-1065.0
 30
0
 11
4891.351
 21
-1065.0
 31
0
 0
LINE
 8
TOOL_0
 5
3A
 10
4891.351
 20
-1065.0
 30
0
 11
4891.351
 21
-2090.0
 31
0
 0
LINE
 8
TOOL_0
 5
3B
 10
4891.351
 20
-2090.0
 30
0
 11
4891.351
 21
-2094.0
 31
0
 0
LINE
 8
TOOL_0
 5
3C
 10
4891.351
 20
-2094.0
 30
0
 11
4084.164
 21
-543.037
 31
0
 0
LINE
 8
TOOL_0
 5
3D
 10
4084.164
 20
-543.037
 30
0
 11
4126.578
 21
-569.514
 31
0
 0
ARC
 8
TOOL_0
 5
3E
 10
4066.35
 20
-531.917
 30
0
 40
70.999622484912
 50
328.025753521476
 51
148.025496300803
210
0
220
0
230
1.0
 0
ARC
 8
TOOL_0
 5
3F
 10
4066.349
 20
-531.916
 30
0
 40
70.999622484912
 50
148.025753521476
 51
328.025496300803
210
0
220
0
230
1.0
 0
ARC
 8
TOOL_0
 5
40
 10
4119.792
 20
-565.278
 30
0
 40
7.999593239659
 50
328.02650345237
 51
25.325395249046
210
0
220
0
230
1.0
 0
LINE
 8
TOOL_0
 5
41
 10
4127.023
 20
-561.856
 30
0
 11
4901.088
 21
-1059.188
 31
0
 0
ARC
 8
TOOL_0
 5
42
 10
4891.349
 20
-1056.916
 30
0
 40
10.000505237236
 50
346.868395441071
 51
90.0
210
0
220
0
230
1.0
 0
LINE
 8
TOOL_0
 5
43
 10
4891.349
 20
-1046.916
 30
0
 11
3276.349
 21
-1046.916
 31
0
 0
LINE
 8
TOOL_0
 5
44
 10
3276.349
 20
-1046.916
 30
0
 11
3276.349
 21
-21.916
 31
0
 0
LINE
 8
TOOL_0
 5
45
 10
3276.349
 20
-21.916
 30
0
 11
4891.349
 21
-21.916
 31
0
 0
LINE
 8
TOOL_0
 5
46
 10
4891.349
 20
-21.916
 30
0
 11
4891.349
 21
-1046.916
 31
0
 0
LINE
 8
TOOL_0
 5
47
 10
4891.349
 20
-1046.916
 30
0
 11
4897.006
 21
-1052.573
 31
0
 0
LINE
 8
TOOL_0
 5
48
 10
4897.006
 20
-1052.573
 30
0
 11
5831.847
 21
-2092.8
 31
0
 0
LINE
 8
TOOL_0
 5
49
 10
5831.847
 20
-2092.8
 30
0
 11
5816.847
 21
-2092.8
 31
0
 0
LINE
 8
TOOL_0
 5
4A
 10
5816.847
 20
-2092.8
 30
0
 11
4906.847
 21
-2092.8
 31
0
 0
LINE
 8
TOOL_0
 5
4B
 10
4906.847
 20
-2092.8
 30
0
 11
4906.847
 21
-477.8
 31
0
 0
LINE
 8
TOOL_0
 5
4C
 10
4906.847
 20
-477.8
 30
0
 11
5081.847
 21
-477.8
 31
0
 0
LINE
 8
TOOL_0
 5
4D
 10
5081.847
 20
-477.8
 30
0
 11
5816.847
 21
-745.318
 31
0
 0
LINE
 8
TOOL_0
 5
4E
 10
5816.847
 20
-745.318
 30
0
 11
5816.847
 21
-2092.8
 31
0
 0
LINE
 8
TOOL_0
 5
4F
 10
5816.847
 20
-2092.8
 30
0
 11
5816.847
 21
-2100.8
 31
0
 0
LINE
 8
TOOL_0
 5
50
 10
5816.847
 20
-2100.8
 30
0
 11
5221.262
 21
-356.103
 31
0
 0
LINE
 8
TOOL_0
 5
51
 10
5221.262
 20
-356.103
 30
0
 11
5256.617
 21
-391.458
 31
0
 0
ARC
 8
TOOL_0
 5
52
 10
5242.475
 20
-377.316
 30
0
 40
19.99980819908
 50
315.0
 51
0
210
0
220
0
230
1.0
 0
LINE
 8
TOOL_0
 5
53
 10
5262.475
 20
-377.316
 30
0
 11
5262.475
 21
-247.316
 31
0
 0
ARC
 8
TOOL_0
 5
54
 10
5242.475
 20
-247.316
 30
0
 40
20.0
 50
0
 51
90.0
210
0
220
0
230
1.0
 0
LINE
 8
TOOL_0
 5
55
 10
5242.475
 20
-227.316
 30
0
 11
5072.475
 21
-227.316
 31
0
 0
ARC
 8
TOOL_0
 5
56
 10
5072.475
 20
-247.316
 30
0
 40
20.0
 50
90.0
 51
180.0
210
0
220
0
230
1.0
 0
LINE
 8
TOOL_0
 5
57
 10
5052.475
 20
-247.316
 30
0
 11
5052.475
 21
-377.316
 31
0
 0
ARC
 8
TOOL_0
 5
58
 10
5072.475
 20
-377.316
 30
0
 40
20.0
 50
180.0
 51
270.0
210
0
220
0
230
1.0
 0
LINE
 8
TOOL_0
 5
59
 10
5072.475
 20
-397.316
 30
0
 11
5242.475
 21
-397.316
 31
0
 0
ARC
 8
TOOL_0
 5
5A
 10
5242.475
 20
-377.316
 30
0
 40
20.0
 50
270.0
 51
315.0
210
0
220
0
230
1.0
 0
ARC
 8
TOOL_0
 5
5B
 10
5250.96
 20
-385.801
 30
0
 40
8.000206122345
 50
315.000000000001
 51
12.297329700449
210
0
220
0
230
1.0
 0
LINE
 8
TOOL_0
 5
5C
 10
5258.777
 20
-384.097
 30
0
 11
5422.475
 21
-462.315
 31
0
 0
LINE
 8
TOOL_0
 5
5D
 10
5422.475
 20
-462.315
 30
0
 11
5407.475
 21
-462.315
 31
0
 0
LINE
 8
TOOL_0
 5
5E
 10
5407.475
 20
-462.315
 30
0
 11
4907.475
 21
-462.315
 31
0
 0
LINE
 8
TOOL_0
 5
5F
 10
4907.475
 20
-462.315
 30
0
 11
4907.475
 21
-112.315
 31
0
 0
LINE
 8
TOOL_0
 5
60
 10
4907.475
 20
-112.315
 30
0
 11
5407.475
 21
-112.315
 31
0
 0
LINE
 8
TOOL_0
 5
61
 10
5407.475
 20
-112.315
 30
0
 11
5407.475
 21
-462.315
 31
0
 0
LINE
 8
TOOL_0
 5
62
 10
5407.475
 20
-462.315
 30
0
 11
5407.475
 21
-470.315
 31
0
 0
LINE
 8
TOOL_0
 5
63
 10
5407.475
 20
-470.315
 30
0
 11
5783.781
 21
-196.213
 31
0
 0
LINE
 8
TOOL_0
 5
64
 10
5783.781
 20
-196.213
 30
0
 11
5819.136
 21
-160.858
 31
0
 0
ARC
 8
TOOL_0
 5
65
 10
5804.994
 20
-175.0
 30
0
 40
19.99980819908
 50
45.0
 51
90.0
210
0
220
0
230
1.0
 0
LINE
 8
TOOL_0
 5
66
 10
5804.994
 20
-155.0
 30
0
 11
5674.994
 21
-155.0
 31
0
 0
ARC
 8
TOOL_0
 5
67
 10
5674.994
 20
-175.0
 30
0
 40
20.0
 50
90.0
 51
180.0
210
0
220
0
230
1.0
 0
LINE
 8
TOOL_0
 5
68
 10
5654.994
 20
-175.0
 30
0
 11
5654.994
 21
-345.0
 31
0
 0
ARC
 8
TOOL_0
 5
69
 10
5674.994
 20
-345.0
 30
0
 40
20.0
 50
180.0
 51
270.0
210
0
220
0
230
1.0
 0
LINE
 8
TOOL_0
 5
6A
 10
5674.994
 20
-365.0
 30
0
 11
5804.994
 21
-365.0
 31
0
 0
ARC
 8
TOOL_0
 5
6B
 10
5804.994
 20
-345.0
 30
0
 40
20.0
 50
270.0
 51
0
210
0
220
0
230
1.0
 0
LINE
 8
TOOL_0
 5
6C
 10
5824.994
 20
-345.0
 30
0
 11
5824.994
 21
-175.0
 31
0
 0
ARC
 8
TOOL_0
 5
6D
 10
5804.994
 20
-175.0
 30
0
 40
20.0
 50
0
 51
45.0
210
0
220
0
230
1.0
 0
ARC
 8
TOOL_0
 5
6E
 10
5813.479
 20
-166.515
 30
0
 40
8.000206122345
 50
44.999999999999
 51
102.290332367337
210
0
220
0
230
1.0
 0
LINE
 8
TOOL_0
 5
6F
 10
5811.776
 20
-158.698
 30
0
 11
5889.994
 21
-2.5
 31
0
 0
LINE
 8
TOOL_0
 5
70
 10
5889.994
 20
-2.5
 30
0
 11
5889.994
 21
-10.0
 31
0
 0
LINE
 8
TOOL_0
 5
71
 10
5889.994
 20
-10.0
 30
0
 11
5889.994
 21
-510.0
 31
0
 0
LINE
 8
TOOL_0
 5
72
 10
5889.994
 20
-510.0
 30
0
 11
5539.994
 21
-510.0
 31
0
 0
LINE
 8
TOOL_0
 5
73
 10
5539.994
 20
-510.0
 30
0
 11
5539.994
 21
-10.0
 31
0
 0
LINE
 8
TOOL_0
 5
74
 10
5539.994
 20
-10.0
 30
0
 11
5889.994
 21
-10.0
 31
0
 0
LINE
 8
TOOL_0
 5
75
 10
5889.994
 20
-10.0
 30
0
 11
5893.994
 21
-10.0
 31
0
 0
ENDSEC
 0
EOF

