0
SECTION
2
TABLES
0
TABLE
2
LAYER
70
0
0
LAYER
2
LAYER_NAME
70
0
62
1
6
CONTINUOUS
0
ENDTAB
0
ENDSEC
 0
SECTION
 2
ENTITIES
 0
LINE
 8
TOOL_0
 5
1
 10
1033.3
 20
2550.301
 30
0
 11
1063.3
 21
2550.301
 31
0
 0
ARC
 8
TOOL_0
 5
2
 10
1028.3
 20
2550.301
 30
0
 40
35.0
 50
0
 51
180.0
210
0
220
0
230
1.0
 0
ARC
 8
TOOL_0
 5
3
 10
1028.3
 20
2550.301
 30
0
 40
35.0
 50
180.0
 51
0
210
0
220
0
230
1.0
 0
LINE
 8
TOOL_0
 5
4
 10
1063.3
 20
2550.301
 30
0
 11
1056.229
 21
2557.372
 31
0
 0
LINE
 8
TOOL_0
 5
5
 10
1056.229
 20
2557.372
 30
0
 11
513.3
 21
2328.301
 31
0
 0
LINE
 8
TOOL_0
 5
6
 10
513.3
 20
2328.301
 30
0
 11
543.3
 21
2328.301
 31
0
 0
LINE
 8
TOOL_0
 5
7
 10
543.3
 20
2328.301
 30
0
 11
543.3
 21
2343.301
 31
0
 0
ARC
 8
TOOL_0
 5
8
 10
533.3
 20
2343.301
 30
0
 40
10.0
 50
0
 51
90.0
210
0
220
0
230
1.0
 0
LINE
 8
TOOL_0
 5
9
 10
533.3
 20
2353.301
 30
0
 11
353.3
 21
2353.301
 31
0
 0
ARC
 8
TOOL_0
 5
A
 10
353.3
 20
2343.301
 30
0
 40
10.0
 50
90.0
 51
180.0
210
0
220
0
230
1.0
 0
LINE
 8
TOOL_0
 5
B
 10
343.3
 20
2343.301
 30
0
 11
343.3
 21
2313.301
 31
0
 0
ARC
 8
TOOL_0
 5
C
 10
353.3
 20
2313.301
 30
0
 40
10.0
 50
180.0
 51
270.0
210
0
220
0
230
1.0
 0
LINE
 8
TOOL_0
 5
D
 10
353.3
 20
2303.301
 30
0
 11
533.3
 21
2303.301
 31
0
 0
ARC
 8
TOOL_0
 5
E
 10
533.3
 20
2313.301
 30
0
 40
10.0
 50
270.0
 51
0
210
0
220
0
230
1.0
 0
LINE
 8
TOOL_0
 5
F
 10
543.3
 20
2313.301
 30
0
 11
543.3
 21
2328.301
 31
0
 0
LINE
 8
TOOL_0
 5
10
 10
543.3
 20
2328.301
 30
0
 11
536.229
 21
2335.372
 31
0
 0
LINE
 8
TOOL_0
 5
11
 10
536.229
 20
2335.372
 30
0
 11
310.3
 21
107.301
 31
0
 0
LINE
 8
TOOL_0
 5
12
 10
310.3
 20
107.301
 30
0
 11
340.3
 21
107.301
 31
0
 0
LINE
 8
TOOL_0
 5
13
 10
340.3
 20
107.301
 30
0
 11
340.3
 21
117.301
 31
0
 0
ARC
 8
TOOL_0
 5
14
 10
310.3
 20
117.301
 30
0
 40
30.0
 50
0
 51
90.0
210
0
220
0
230
1.0
 0
LINE
 8
TOOL_0
 5
15
 10
310.3
 20
147.301
 30
0
 11
270.3
 21
147.301
 31
0
 0
ARC
 8
TOOL_0
 5
16
 10
270.3
 20
117.301
 30
0
 40
30.0
 50
90.0
 51
180.0
210
0
220
0
230
1.0
 0
LINE
 8
TOOL_0
 5
17
 10
240.3
 20
117.301
 30
0
 11
240.3
 21
97.301
 31
0
 0
ARC
 8
TOOL_0
 5
18
 10
250.3
 20
97.301
 30
0
 40
10.0
 50
180.0
 51
270.0
210
0
220
0
230
1.0
 0
LINE
 8
TOOL_0
 5
19
 10
250.3
 20
87.301
 30
0
 11
330.3
 21
87.301
 31
0
 0
ARC
 8
TOOL_0
 5
1A
 10
330.3
 20
97.301
 30
0
 40
10.0
 50
270.0
 51
0
210
0
220
0
230
1.0
 0
LINE
 8
TOOL_0
 5
1B
 10
340.3
 20
97.301
 30
0
 11
340.3
 21
107.301
 31
0
 0
LINE
 8
TOOL_0
 5
1C
 10
340.3
 20
107.301
 30
0
 11
333.229
 21
114.372
 31
0
 0
LINE
 8
TOOL_0
 5
1D
 10
333.229
 20
114.372
 30
0
 11
420.3
 21
217.301
 31
0
 0
LINE
 8
TOOL_0
 5
1E
 10
420.3
 20
217.301
 30
0
 11
450.3
 21
217.301
 31
0
 0
LINE
 8
TOOL_0
 5
1F
 10
450.3
 20
217.301
 30
0
 11
450.3
 21
247.301
 31
0
 0
ARC
 8
TOOL_0
 5
20
 10
430.3
 20
247.301
 30
0
 40
20.0
 50
0
 51
90.0
210
0
220
0
230
1.0
 0
LINE
 8
TOOL_0
 5
21
 10
430.3
 20
267.301
 30
0
 11
340.3
 21
267.301
 31
0
 0
ARC
 8
TOOL_0
 5
22
 10
340.3
 20
247.301
 30
0
 40
20.0
 50
90.0
 51
180.0
210
0
220
0
230
1.0
 0
LINE
 8
TOOL_0
 5
23
 10
320.3
 20
247.301
 30
0
 11
320.3
 21
187.301
 31
0
 0
ARC
 8
TOOL_0
 5
24
 10
340.3
 20
187.301
 30
0
 40
20.0
 50
180.0
 51
270.0
210
0
220
0
230
1.0
 0
LINE
 8
TOOL_0
 5
25
 10
340.3
 20
167.301
 30
0
 11
430.3
 21
167.301
 31
0
 0
ARC
 8
TOOL_0
 5
26
 10
430.3
 20
187.301
 30
0
 40
20.0
 50
270.0
 51
0
210
0
220
0
230
1.0
 0
LINE
 8
TOOL_0
 5
27
 10
450.3
 20
187.301
 30
0
 11
450.3
 21
217.301
 31
0
 0
LINE
 8
TOOL_0
 5
28
 10
450.3
 20
217.301
 30
0
 11
443.229
 21
224.372
 31
0
 0
LINE
 8
TOOL_0
 5
29
 10
443.229
 20
224.372
 30
0
 11
1400.3
 21
200.301
 31
0
 0
LINE
 8
TOOL_0
 5
2A
 10
1400.3
 20
200.301
 30
0
 11
1430.3
 21
200.301
 31
0
 0
LINE
 8
TOOL_0
 5
2B
 10
1430.3
 20
200.301
 30
0
 11
1430.3
 21
240.301
 31
0
 0
ARC
 8
TOOL_0
 5
2C
 10
1410.3
 20
240.301
 30
0
 40
20.0
 50
0
 51
90.0
210
0
220
0
230
1.0
 0
LINE
 8
TOOL_0
 5
2D
 10
1410.3
 20
260.301
 30
0
 11
1350.3
 21
260.301
 31
0
 0
ARC
 8
TOOL_0
 5
2E
 10
1350.3
 20
240.301
 30
0
 40
20.0
 50
90.0
 51
180.0
210
0
220
0
230
1.0
 0
LINE
 8
TOOL_0
 5
2F
 10
1330.3
 20
240.301
 30
0
 11
1330.3
 21
160.301
 31
0
 0
ARC
 8
TOOL_0
 5
30
 10
1350.3
 20
160.301
 30
0
 40
20.0
 50
180.0
 51
270.0
210
0
220
0
230
1.0
 0
LINE
 8
TOOL_0
 5
31
 10
1350.3
 20
140.301
 30
0
 11
1410.3
 21
140.301
 31
0
 0
ARC
 8
TOOL_0
 5
32
 10
1410.3
 20
160.301
 30
0
 40
20.0
 50
270.0
 51
0
210
0
220
0
230
1.0
 0
LINE
 8
TOOL_0
 5
33
 10
1430.3
 20
160.301
 30
0
 11
1430.3
 21
200.301
 31
0
 0
LINE
 8
TOOL_0
 5
34
 10
1430.3
 20
200.301
 30
0
 11
1423.229
 21
207.372
 31
0
 0
LINE
 8
TOOL_0
 5
35
 10
1423.229
 20
207.372
 30
0
 11
1456.3
 21
855.715
 31
0
 0
LINE
 8
TOOL_0
 5
36
 10
1456.3
 20
855.715
 30
0
 11
1456.3
 21
820.715
 31
0
 0
LINE
 8
TOOL_0
 5
37
 10
1456.3
 20
820.715
 30
0
 11
1456.3
 21
9.887
 31
0
 0
LINE
 8
TOOL_0
 5
38
 10
1456.3
 20
9.887
 30
0
 11
1450.714
 21
4.301
 31
0
 0
LINE
 8
TOOL_0
 5
39
 10
1450.714
 20
4.301
 30
0
 11
66.3
 21
4.301
 31
0
 0
ARC
 8
TOOL_0
 5
3A
 10
66.3
 20
9.301
 30
0
 40
5.0
 50
180.0
 51
270.0
210
0
220
0
230
1.0
 0
LINE
 8
TOOL_0
 5
3B
 10
61.3
 20
9.301
 30
0
 11
61.3
 21
41.301
 31
0
 0
ARC
 8
TOOL_0
 5
3C
 10
58.3
 20
41.301
 30
0
 40
3.0
 50
0
 51
90.0
210
0
220
0
230
1.0
 0
LINE
 8
TOOL_0
 5
3D
 10
58.3
 20
44.301
 30
0
 11
9.3
 21
44.301
 31
0
 0
ARC
 8
TOOL_0
 5
3E
 10
9.3
 20
49.301
 30
0
 40
5.0
 50
180.0
 51
270.0
210
0
220
0
230
1.0
 0
LINE
 8
TOOL_0
 5
3F
 10
4.3
 20
49.301
 30
0
 11
4.3
 21
141.301
 31
0
 0
LINE
 8
TOOL_0
 5
40
 10
4.3
 20
141.301
 30
0
 11
58.3
 21
141.301
 31
0
 0
ARC
 8
TOOL_0
 5
41
 10
58.3
 20
144.301
 30
0
 40
3.0
 50
270.0
 51
0
210
0
220
0
230
1.0
 0
LINE
 8
TOOL_0
 5
42
 10
61.3
 20
144.301
 30
0
 11
61.3
 21
898.301
 31
0
 0
ARC
 8
TOOL_0
 5
43
 10
58.3
 20
898.301
 30
0
 40
3.0
 50
0
 51
90.0
210
0
220
0
230
1.0
 0
LINE
 8
TOOL_0
 5
44
 10
58.3
 20
901.301
 30
0
 11
4.3
 21
901.301
 31
0
 0
LINE
 8
TOOL_0
 5
45
 10
4.3
 20
901.301
 30
0
 11
4.3
 21
2631.301
 31
0
 0
LINE
 8
TOOL_0
 5
46
 10
4.3
 20
2631.301
 30
0
 11
1589.3
 21
2631.301
 31
0
 0
LINE
 8
TOOL_0
 5
47
 10
1589.3
 20
2631.301
 30
0
 11
1589.3
 21
2150.301
 31
0
 0
LINE
 8
TOOL_0
 5
48
 10
1589.3
 20
2150.301
 30
0
 11
1441.3
 21
2150.301
 31
0
 0
LINE
 8
TOOL_0
 5
49
 10
1441.3
 20
2150.301
 30
0
 11
1441.3
 21
2185.301
 31
0
 0
ARC
 8
TOOL_0
 5
4A
 10
1420.3
 20
2185.301
 30
0
 40
21.0
 50
0
 51
147.725934078207
210
0
220
0
230
1.0
 0
LINE
 8
TOOL_0
 5
4B
 10
1402.545
 20
2196.514
 30
0
 11
1369.272
 21
2143.829
 31
0
 0
ARC
 8
TOOL_0
 5
4C
 10
1385.336
 20
2133.683
 30
0
 40
18.999826630788
 50
147.723550532162
 51
243.305476199261
210
0
220
0
230
1.0
 0
LINE
 8
TOOL_0
 5
4D
 10
1376.801
 20
2116.709
 30
0
 11
1376.801
 21
1571.3
 31
0
 0
LINE
 8
TOOL_0
 5
4E
 10
1376.801
 20
1571.3
 30
0
 11
1339.801
 21
1571.3
 31
0
 0
LINE
 8
TOOL_0
 5
4F
 10
1339.801
 20
1571.3
 30
0
 11
1339.801
 21
1574.3
 31
0
 0
ARC
 8
TOOL_0
 5
50
 10
1336.801
 20
1574.3
 30
0
 40
3.0
 50
0
 51
90.0
210
0
220
0
230
1.0
 0
LINE
 8
TOOL_0
 5
51
 10
1336.801
 20
1577.3
 30
0
 11
1290.301
 21
1577.3
 31
0
 0
ARC
 8
TOOL_0
 5
52
 10
1290.301
 20
1378.3
 30
0
 40
199.0
 50
90.0
 51
180.0
210
0
220
0
230
1.0
 0
LINE
 8
TOOL_0
 5
53
 10
1091.301
 20
1378.3
 30
0
 11
1091.301
 21
1025.3
 31
0
 0
ARC
 8
TOOL_0
 5
54
 10
1290.301
 20
1025.3
 30
0
 40
199.0
 50
180.0
 51
269.99971208151
210
0
220
0
230
1.0
 0
LINE
 8
TOOL_0
 5
55
 10
1290.3
 20
826.3
 30
0
 11
1450.715
 21
826.3
 31
0
 0
LINE
 8
TOOL_0
 5
56
 10
1450.715
 20
826.3
 30
0
 11
1456.301
 21
820.714
 31
0
 0
LINE
 8
TOOL_0
 5
57
 10
1456.301
 20
820.714
 30
0
 11
1459.837
 21
817.178
 31
0
 0
LINE
 8
TOOL_0
 5
58
 10
1459.837
 20
817.178
 30
0
 11
2787.999
 21
2528.299
 31
0
 0
LINE
 8
TOOL_0
 5
59
 10
2787.999
 20
2528.299
 30
0
 11
2817.999
 21
2528.299
 31
0
 0
LINE
 8
TOOL_0
 5
5A
 10
2817.999
 20
2528.299
 30
0
 11
2817.999
 21
2538.299
 31
0
 0
ARC
 8
TOOL_0
 5
5B
 10
2807.999
 20
2538.299
 30
0
 40
10.0
 50
0
 51
90.0
210
0
220
0
230
1.0
 0
LINE
 8
TOOL_0
 5
5C
 10
2807.999
 20
2548.299
 30
0
 11
2727.999
 21
2548.299
 31
0
 0
ARC
 8
TOOL_0
 5
5D
 10
2727.999
 20
2538.299
 30
0
 40
10.0
 50
90.0
 51
180.0
210
0
220
0
230
1.0
 0
LINE
 8
TOOL_0
 5
5E
 10
2717.999
 20
2538.299
 30
0
 11
2717.999
 21
2518.299
 31
0
 0
ARC
 8
TOOL_0
 5
5F
 10
2747.999
 20
2518.299
 30
0
 40
30.0
 50
180.0
 51
270.0
210
0
220
0
230
1.0
 0
LINE
 8
TOOL_0
 5
60
 10
2747.999
 20
2488.299
 30
0
 11
2787.999
 21
2488.299
 31
0
 0
ARC
 8
TOOL_0
 5
61
 10
2787.999
 20
2518.299
 30
0
 40
30.0
 50
270.0
 51
0
210
0
220
0
230
1.0
 0
LINE
 8
TOOL_0
 5
62
 10
2817.999
 20
2518.299
 30
0
 11
2817.999
 21
2528.299
 31
0
 0
LINE
 8
TOOL_0
 5
63
 10
2817.999
 20
2528.299
 30
0
 11
2810.928
 21
2535.37
 31
0
 0
LINE
 8
TOOL_0
 5
64
 10
2810.928
 20
2535.37
 30
0
 11
2707.999
 21
2418.299
 31
0
 0
LINE
 8
TOOL_0
 5
65
 10
2707.999
 20
2418.299
 30
0
 11
2737.999
 21
2418.299
 31
0
 0
LINE
 8
TOOL_0
 5
66
 10
2737.999
 20
2418.299
 30
0
 11
2737.999
 21
2448.299
 31
0
 0
ARC
 8
TOOL_0
 5
67
 10
2717.999
 20
2448.299
 30
0
 40
20.0
 50
0
 51
90.0
210
0
220
0
230
1.0
 0
LINE
 8
TOOL_0
 5
68
 10
2717.999
 20
2468.299
 30
0
 11
2627.999
 21
2468.299
 31
0
 0
ARC
 8
TOOL_0
 5
69
 10
2627.999
 20
2448.299
 30
0
 40
20.0
 50
90.0
 51
180.0
210
0
220
0
230
1.0
 0
LINE
 8
TOOL_0
 5
6A
 10
2607.999
 20
2448.299
 30
0
 11
2607.999
 21
2388.299
 31
0
 0
ARC
 8
TOOL_0
 5
6B
 10
2627.999
 20
2388.299
 30
0
 40
20.0
 50
180.0
 51
270.0
210
0
220
0
230
1.0
 0
LINE
 8
TOOL_0
 5
6C
 10
2627.999
 20
2368.299
 30
0
 11
2717.999
 21
2368.299
 31
0
 0
ARC
 8
TOOL_0
 5
6D
 10
2717.999
 20
2388.299
 30
0
 40
20.0
 50
270.0
 51
0
210
0
220
0
230
1.0
 0
LINE
 8
TOOL_0
 5
6E
 10
2737.999
 20
2388.299
 30
0
 11
2737.999
 21
2418.299
 31
0
 0
LINE
 8
TOOL_0
 5
6F
 10
2737.999
 20
2418.299
 30
0
 11
2730.928
 21
2425.37
 31
0
 0
LINE
 8
TOOL_0
 5
70
 10
2730.928
 20
2425.37
 30
0
 11
1697.999
 21
2435.299
 31
0
 0
LINE
 8
TOOL_0
 5
71
 10
1697.999
 20
2435.299
 30
0
 11
1727.999
 21
2435.299
 31
0
 0
LINE
 8
TOOL_0
 5
72
 10
1727.999
 20
2435.299
 30
0
 11
1727.999
 21
2475.299
 31
0
 0
ARC
 8
TOOL_0
 5
73
 10
1707.999
 20
2475.299
 30
0
 40
20.0
 50
0
 51
90.0
210
0
220
0
230
1.0
 0
LINE
 8
TOOL_0
 5
74
 10
1707.999
 20
2495.299
 30
0
 11
1647.999
 21
2495.299
 31
0
 0
ARC
 8
TOOL_0
 5
75
 10
1647.999
 20
2475.299
 30
0
 40
20.0
 50
90.0
 51
180.0
210
0
220
0
230
1.0
 0
LINE
 8
TOOL_0
 5
76
 10
1627.999
 20
2475.299
 30
0
 11
1627.999
 21
2395.299
 31
0
 0
ARC
 8
TOOL_0
 5
77
 10
1647.999
 20
2395.299
 30
0
 40
20.0
 50
180.0
 51
270.0
210
0
220
0
230
1.0
 0
LINE
 8
TOOL_0
 5
78
 10
1647.999
 20
2375.299
 30
0
 11
1707.999
 21
2375.299
 31
0
 0
ARC
 8
TOOL_0
 5
79
 10
1707.999
 20
2395.299
 30
0
 40
20.0
 50
270.0
 51
0
210
0
220
0
230
1.0
 0
LINE
 8
TOOL_0
 5
7A
 10
1727.999
 20
2395.299
 30
0
 11
1727.999
 21
2435.299
 31
0
 0
LINE
 8
TOOL_0
 5
7B
 10
1727.999
 20
2435.299
 30
0
 11
1720.928
 21
2442.37
 31
0
 0
LINE
 8
TOOL_0
 5
7C
 10
1720.928
 20
2442.37
 30
0
 11
2034.999
 21
85.299
 31
0
 0
LINE
 8
TOOL_0
 5
7D
 10
2034.999
 20
85.299
 30
0
 11
2064.999
 21
85.299
 31
0
 0
ARC
 8
TOOL_0
 5
7E
 10
2029.999
 20
85.299
 30
0
 40
35.0
 50
0
 51
180.0
210
0
220
0
230
1.0
 0
ARC
 8
TOOL_0
 5
7F
 10
2029.999
 20
85.299
 30
0
 40
35.0
 50
180.0
 51
0
210
0
220
0
230
1.0
 0
LINE
 8
TOOL_0
 5
80
 10
2064.999
 20
85.299
 30
0
 11
2057.928
 21
92.37
 31
0
 0
LINE
 8
TOOL_0
 5
81
 10
2057.928
 20
92.37
 30
0
 11
2684.999
 21
307.299
 31
0
 0
LINE
 8
TOOL_0
 5
82
 10
2684.999
 20
307.299
 30
0
 11
2714.999
 21
307.299
 31
0
 0
LINE
 8
TOOL_0
 5
83
 10
2714.999
 20
307.299
 30
0
 11
2714.999
 21
322.299
 31
0
 0
ARC
 8
TOOL_0
 5
84
 10
2704.999
 20
322.299
 30
0
 40
10.0
 50
0
 51
90.0
210
0
220
0
230
1.0
 0
LINE
 8
TOOL_0
 5
85
 10
2704.999
 20
332.299
 30
0
 11
2524.999
 21
332.299
 31
0
 0
ARC
 8
TOOL_0
 5
86
 10
2524.999
 20
322.299
 30
0
 40
10.0
 50
90.0
 51
180.0
210
0
220
0
230
1.0
 0
LINE
 8
TOOL_0
 5
87
 10
2514.999
 20
322.299
 30
0
 11
2514.999
 21
292.299
 31
0
 0
ARC
 8
TOOL_0
 5
88
 10
2524.999
 20
292.299
 30
0
 40
10.0
 50
180.0
 51
270.0
210
0
220
0
230
1.0
 0
LINE
 8
TOOL_0
 5
89
 10
2524.999
 20
282.299
 30
0
 11
2704.999
 21
282.299
 31
0
 0
ARC
 8
TOOL_0
 5
8A
 10
2704.999
 20
292.299
 30
0
 40
10.0
 50
270.0
 51
0
210
0
220
0
230
1.0
 0
LINE
 8
TOOL_0
 5
8B
 10
2714.999
 20
292.299
 30
0
 11
2714.999
 21
307.299
 31
0
 0
LINE
 8
TOOL_0
 5
8C
 10
2714.999
 20
307.299
 30
0
 11
2707.928
 21
314.37
 31
0
 0
LINE
 8
TOOL_0
 5
8D
 10
2707.928
 20
314.37
 30
0
 11
1601.999
 21
1784.882
 31
0
 0
LINE
 8
TOOL_0
 5
8E
 10
1601.999
 20
1784.882
 30
0
 11
1601.999
 21
1814.885
 31
0
 0
LINE
 8
TOOL_0
 5
8F
 10
1601.999
 20
1814.885
 30
0
 11
1601.999
 21
2625.713
 31
0
 0
LINE
 8
TOOL_0
 5
90
 10
1601.999
 20
2625.713
 30
0
 11
1607.585
 21
2631.299
 31
0
 0
LINE
 8
TOOL_0
 5
91
 10
1607.585
 20
2631.299
 30
0
 11
2991.999
 21
2631.299
 31
0
 0
ARC
 8
TOOL_0
 5
92
 10
2991.999
 20
2626.299
 30
0
 40
5.0
 50
0
 51
90.0
210
0
220
0
230
1.0
 0
LINE
 8
TOOL_0
 5
93
 10
2996.999
 20
2626.299
 30
0
 11
2996.999
 21
2594.299
 31
0
 0
ARC
 8
TOOL_0
 5
94
 10
2999.999
 20
2594.299
 30
0
 40
3.0
 50
180.0
 51
270.0
210
0
220
0
230
1.0
 0
LINE
 8
TOOL_0
 5
95
 10
2999.999
 20
2591.299
 30
0
 11
3048.999
 21
2591.299
 31
0
 0
ARC
 8
TOOL_0
 5
96
 10
3048.999
 20
2586.299
 30
0
 40
5.0
 50
0
 51
90.0
210
0
220
0
230
1.0
 0
LINE
 8
TOOL_0
 5
97
 10
3053.999
 20
2586.299
 30
0
 11
3053.999
 21
2494.299
 31
0
 0
LINE
 8
TOOL_0
 5
98
 10
3053.999
 20
2494.299
 30
0
 11
2999.999
 21
2494.299
 31
0
 0
ARC
 8
TOOL_0
 5
99
 10
2999.999
 20
2491.299
 30
0
 40
3.0
 50
90.0
 51
180.0
210
0
220
0
230
1.0
 0
LINE
 8
TOOL_0
 5
9A
 10
2996.999
 20
2491.299
 30
0
 11
2996.999
 21
1737.299
 31
0
 0
ARC
 8
TOOL_0
 5
9B
 10
2999.999
 20
1737.299
 30
0
 40
3.0
 50
180.0
 51
270.0
210
0
220
0
230
1.0
 0
LINE
 8
TOOL_0
 5
9C
 10
2999.999
 20
1734.299
 30
0
 11
3053.999
 21
1734.299
 31
0
 0
LINE
 8
TOOL_0
 5
9D
 10
3053.999
 20
1734.299
 30
0
 11
3053.999
 21
4.299
 31
0
 0
LINE
 8
TOOL_0
 5
9E
 10
3053.999
 20
4.299
 30
0
 11
1468.999
 21
4.299
 31
0
 0
LINE
 8
TOOL_0
 5
9F
 10
1468.999
 20
4.299
 30
0
 11
1468.999
 21
485.299
 31
0
 0
LINE
 8
TOOL_0
 5
A0
 10
1468.999
 20
485.299
 30
0
 11
1616.999
 21
485.299
 31
0
 0
LINE
 8
TOOL_0
 5
A1
 10
1616.999
 20
485.299
 30
0
 11
1616.999
 21
450.299
 31
0
 0
ARC
 8
TOOL_0
 5
A2
 10
1637.999
 20
450.299
 30
0
 40
21.0
 50
180.0
 51
327.723627214969
210
0
220
0
230
1.0
 0
LINE
 8
TOOL_0
 5
A3
 10
1655.754
 20
439.085
 30
0
 11
1689.027
 21
491.77
 31
0
 0
ARC
 8
TOOL_0
 5
A4
 10
1672.963
 20
501.916
 30
0
 40
18.999826630788
 50
327.723550532163
 51
63.305476199262
210
0
220
0
230
1.0
 0
LINE
 8
TOOL_0
 5
A5
 10
1681.498
 20
518.89
 30
0
 11
1681.498
 21
1064.299
 31
0
 0
LINE
 8
TOOL_0
 5
A6
 10
1681.498
 20
1064.299
 30
0
 11
1718.498
 21
1064.299
 31
0
 0
LINE
 8
TOOL_0
 5
A7
 10
1718.498
 20
1064.299
 30
0
 11
1718.498
 21
1061.299
 31
0
 0
ARC
 8
TOOL_0
 5
A8
 10
1721.498
 20
1061.299
 30
0
 40
3.0
 50
180.0
 51
270.0
210
0
220
0
230
1.0
 0
LINE
 8
TOOL_0
 5
A9
 10
1721.498
 20
1058.299
 30
0
 11
1767.998
 21
1058.299
 31
0
 0
ARC
 8
TOOL_0
 5
AA
 10
1767.998
 20
1257.299
 30
0
 40
199.0
 50
270.0
 51
359.99971208151
210
0
220
0
230
1.0
 0
LINE
 8
TOOL_0
 5
AB
 10
1966.998
 20
1257.298
 30
0
 11
1966.998
 21
1610.299
 31
0
 0
ARC
 8
TOOL_0
 5
AC
 10
1767.998
 20
1610.299
 30
0
 40
199.0
 50
0
 51
90.0
210
0
220
0
230
1.0
 0
LINE
 8
TOOL_0
 5
AD
 10
1767.998
 20
1809.299
 30
0
 11
1607.584
 21
1809.299
 31
0
 0
LINE
 8
TOOL_0
 5
AE
 10
1607.584
 20
1809.299
 30
0
 11
1601.998
 21
1814.885
 31
0
 0
LINE
 8
TOOL_0
 5
AF
 10
1601.998
 20
1814.885
 30
0
 11
1598.431
 21
1818.383
 31
0
 0
LINE
 8
TOOL_0
 5
B0
 10
1598.431
 20
1818.383
 30
0
 11
4095.743
 21
2550.299
 31
0
 0
LINE
 8
TOOL_0
 5
B1
 10
4095.743
 20
2550.299
 30
0
 11
4125.743
 21
2550.299
 31
0
 0
ARC
 8
TOOL_0
 5
B2
 10
4090.743
 20
2550.299
 30
0
 40
35.0
 50
0
 51
180.0
210
0
220
0
230
1.0
 0
ARC
 8
TOOL_0
 5
B3
 10
4090.743
 20
2550.299
 30
0
 40
35.0
 50
180.0
 51
0
210
0
220
0
230
1.0
 0
LINE
 8
TOOL_0
 5
B4
 10
4125.743
 20
2550.299
 30
0
 11
4118.672
 21
2557.37
 31
0
 0
LINE
 8
TOOL_0
 5
B5
 10
4118.672
 20
2557.37
 30
0
 11
3575.743
 21
2328.299
 31
0
 0
LINE
 8
TOOL_0
 5
B6
 10
3575.743
 20
2328.299
 30
0
 11
3605.743
 21
2328.299
 31
0
 0
LINE
 8
TOOL_0
 5
B7
 10
3605.743
 20
2328.299
 30
0
 11
3605.743
 21
2343.299
 31
0
 0
ARC
 8
TOOL_0
 5
B8
 10
3595.743
 20
2343.299
 30
0
 40
10.0
 50
0
 51
90.0
210
0
220
0
230
1.0
 0
LINE
 8
TOOL_0
 5
B9
 10
3595.743
 20
2353.299
 30
0
 11
3415.743
 21
2353.299
 31
0
 0
ARC
 8
TOOL_0
 5
BA
 10
3415.743
 20
2343.299
 30
0
 40
10.0
 50
90.0
 51
180.0
210
0
220
0
230
1.0
 0
LINE
 8
TOOL_0
 5
BB
 10
3405.743
 20
2343.299
 30
0
 11
3405.743
 21
2313.299
 31
0
 0
ARC
 8
TOOL_0
 5
BC
 10
3415.743
 20
2313.299
 30
0
 40
10.0
 50
180.0
 51
270.0
210
0
220
0
230
1.0
 0
LINE
 8
TOOL_0
 5
BD
 10
3415.743
 20
2303.299
 30
0
 11
3595.743
 21
2303.299
 31
0
 0
ARC
 8
TOOL_0
 5
BE
 10
3595.743
 20
2313.299
 30
0
 40
10.0
 50
270.0
 51
0
210
0
220
0
230
1.0
 0
LINE
 8
TOOL_0
 5
BF
 10
3605.743
 20
2313.299
 30
0
 11
3605.743
 21
2328.299
 31
0
 0
LINE
 8
TOOL_0
 5
C0
 10
3605.743
 20
2328.299
 30
0
 11
3598.672
 21
2335.37
 31
0
 0
LINE
 8
TOOL_0
 5
C1
 10
3598.672
 20
2335.37
 30
0
 11
3372.743
 21
107.299
 31
0
 0
LINE
 8
TOOL_0
 5
C2
 10
3372.743
 20
107.299
 30
0
 11
3402.743
 21
107.299
 31
0
 0
LINE
 8
TOOL_0
 5
C3
 10
3402.743
 20
107.299
 30
0
 11
3402.743
 21
117.299
 31
0
 0
ARC
 8
TOOL_0
 5
C4
 10
3372.743
 20
117.299
 30
0
 40
30.0
 50
0
 51
90.0
210
0
220
0
230
1.0
 0
LINE
 8
TOOL_0
 5
C5
 10
3372.743
 20
147.299
 30
0
 11
3332.743
 21
147.299
 31
0
 0
ARC
 8
TOOL_0
 5
C6
 10
3332.743
 20
117.299
 30
0
 40
30.0
 50
90.0
 51
180.0
210
0
220
0
230
1.0
 0
LINE
 8
TOOL_0
 5
C7
 10
3302.743
 20
117.299
 30
0
 11
3302.743
 21
97.299
 31
0
 0
ARC
 8
TOOL_0
 5
C8
 10
3312.743
 20
97.299
 30
0
 40
10.0
 50
180.0
 51
270.0
210
0
220
0
230
1.0
 0
LINE
 8
TOOL_0
 5
C9
 10
3312.743
 20
87.299
 30
0
 11
3392.743
 21
87.299
 31
0
 0
ARC
 8
TOOL_0
 5
CA
 10
3392.743
 20
97.299
 30
0
 40
10.0
 50
270.0
 51
0
210
0
220
0
230
1.0
 0
LINE
 8
TOOL_0
 5
CB
 10
3402.743
 20
97.299
 30
0
 11
3402.743
 21
107.299
 31
0
 0
LINE
 8
TOOL_0
 5
CC
 10
3402.743
 20
107.299
 30
0
 11
3395.672
 21
114.37
 31
0
 0
LINE
 8
TOOL_0
 5
CD
 10
3395.672
 20
114.37
 30
0
 11
3482.743
 21
217.299
 31
0
 0
LINE
 8
TOOL_0
 5
CE
 10
3482.743
 20
217.299
 30
0
 11
3512.743
 21
217.299
 31
0
 0
LINE
 8
TOOL_0
 5
CF
 10
3512.743
 20
217.299
 30
0
 11
3512.743
 21
247.299
 31
0
 0
ARC
 8
TOOL_0
 5
D0
 10
3492.743
 20
247.299
 30
0
 40
20.0
 50
0
 51
90.0
210
0
220
0
230
1.0
 0
LINE
 8
TOOL_0
 5
D1
 10
3492.743
 20
267.299
 30
0
 11
3402.743
 21
267.299
 31
0
 0
ARC
 8
TOOL_0
 5
D2
 10
3402.743
 20
247.299
 30
0
 40
20.0
 50
90.0
 51
180.0
210
0
220
0
230
1.0
 0
LINE
 8
TOOL_0
 5
D3
 10
3382.743
 20
247.299
 30
0
 11
3382.743
 21
187.299
 31
0
 0
ARC
 8
TOOL_0
 5
D4
 10
3402.743
 20
187.299
 30
0
 40
20.0
 50
180.0
 51
270.0
210
0
220
0
230
1.0
 0
LINE
 8
TOOL_0
 5
D5
 10
3402.743
 20
167.299
 30
0
 11
3492.743
 21
167.299
 31
0
 0
ARC
 8
TOOL_0
 5
D6
 10
3492.743
 20
187.299
 30
0
 40
20.0
 50
270.0
 51
0
210
0
220
0
230
1.0
 0
LINE
 8
TOOL_0
 5
D7
 10
3512.743
 20
187.299
 30
0
 11
3512.743
 21
217.299
 31
0
 0
LINE
 8
TOOL_0
 5
D8
 10
3512.743
 20
217.299
 30
0
 11
3505.672
 21
224.37
 31
0
 0
LINE
 8
TOOL_0
 5
D9
 10
3505.672
 20
224.37
 30
0
 11
4462.743
 21
200.299
 31
0
 0
LINE
 8
TOOL_0
 5
DA
 10
4462.743
 20
200.299
 30
0
 11
4492.743
 21
200.299
 31
0
 0
LINE
 8
TOOL_0
 5
DB
 10
4492.743
 20
200.299
 30
0
 11
4492.743
 21
240.299
 31
0
 0
ARC
 8
TOOL_0
 5
DC
 10
4472.743
 20
240.299
 30
0
 40
20.0
 50
0
 51
90.0
210
0
220
0
230
1.0
 0
LINE
 8
TOOL_0
 5
DD
 10
4472.743
 20
260.299
 30
0
 11
4412.743
 21
260.299
 31
0
 0
ARC
 8
TOOL_0
 5
DE
 10
4412.743
 20
240.299
 30
0
 40
20.0
 50
90.0
 51
180.0
210
0
220
0
230
1.0
 0
LINE
 8
TOOL_0
 5
DF
 10
4392.743
 20
240.299
 30
0
 11
4392.743
 21
160.299
 31
0
 0
ARC
 8
TOOL_0
 5
E0
 10
4412.743
 20
160.299
 30
0
 40
20.0
 50
180.0
 51
270.0
210
0
220
0
230
1.0
 0
LINE
 8
TOOL_0
 5
E1
 10
4412.743
 20
140.299
 30
0
 11
4472.743
 21
140.299
 31
0
 0
ARC
 8
TOOL_0
 5
E2
 10
4472.743
 20
160.299
 30
0
 40
20.0
 50
270.0
 51
0
210
0
220
0
230
1.0
 0
LINE
 8
TOOL_0
 5
E3
 10
4492.743
 20
160.299
 30
0
 11
4492.743
 21
200.299
 31
0
 0
LINE
 8
TOOL_0
 5
E4
 10
4492.743
 20
200.299
 30
0
 11
4485.672
 21
207.37
 31
0
 0
LINE
 8
TOOL_0
 5
E5
 10
4485.672
 20
207.37
 30
0
 11
4518.743
 21
855.713
 31
0
 0
LINE
 8
TOOL_0
 5
E6
 10
4518.743
 20
855.713
 30
0
 11
4518.743
 21
820.713
 31
0
 0
LINE
 8
TOOL_0
 5
E7
 10
4518.743
 20
820.713
 30
0
 11
4518.743
 21
9.885
 31
0
 0
LINE
 8
TOOL_0
 5
E8
 10
4518.743
 20
9.885
 30
0
 11
4513.157
 21
4.299
 31
0
 0
LINE
 8
TOOL_0
 5
E9
 10
4513.157
 20
4.299
 30
0
 11
3128.743
 21
4.299
 31
0
 0
ARC
 8
TOOL_0
 5
EA
 10
3128.743
 20
9.299
 30
0
 40
5.0
 50
180.0
 51
270.0
210
0
220
0
230
1.0
 0
LINE
 8
TOOL_0
 5
EB
 10
3123.743
 20
9.299
 30
0
 11
3123.743
 21
41.299
 31
0
 0
ARC
 8
TOOL_0
 5
EC
 10
3120.743
 20
41.299
 30
0
 40
3.0
 50
0
 51
90.0
210
0
220
0
230
1.0
 0
LINE
 8
TOOL_0
 5
ED
 10
3120.743
 20
44.299
 30
0
 11
3071.743
 21
44.299
 31
0
 0
ARC
 8
TOOL_0
 5
EE
 10
3071.743
 20
49.299
 30
0
 40
5.0
 50
180.0
 51
270.0
210
0
220
0
230
1.0
 0
LINE
 8
TOOL_0
 5
EF
 10
3066.743
 20
49.299
 30
0
 11
3066.743
 21
141.299
 31
0
 0
LINE
 8
TOOL_0
 5
F0
 10
3066.743
 20
141.299
 30
0
 11
3120.743
 21
141.299
 31
0
 0
ARC
 8
TOOL_0
 5
F1
 10
3120.743
 20
144.299
 30
0
 40
3.0
 50
270.0
 51
0
210
0
220
0
230
1.0
 0
LINE
 8
TOOL_0
 5
F2
 10
3123.743
 20
144.299
 30
0
 11
3123.743
 21
898.299
 31
0
 0
ARC
 8
TOOL_0
 5
F3
 10
3120.743
 20
898.299
 30
0
 40
3.0
 50
0
 51
90.0
210
0
220
0
230
1.0
 0
LINE
 8
TOOL_0
 5
F4
 10
3120.743
 20
901.299
 30
0
 11
3066.743
 21
901.299
 31
0
 0
LINE
 8
TOOL_0
 5
F5
 10
3066.743
 20
901.299
 30
0
 11
3066.743
 21
2631.299
 31
0
 0
LINE
 8
TOOL_0
 5
F6
 10
3066.743
 20
2631.299
 30
0
 11
4651.743
 21
2631.299
 31
0
 0
LINE
 8
TOOL_0
 5
F7
 10
4651.743
 20
2631.299
 30
0
 11
4651.743
 21
2150.299
 31
0
 0
LINE
 8
TOOL_0
 5
F8
 10
4651.743
 20
2150.299
 30
0
 11
4503.743
 21
2150.299
 31
0
 0
LINE
 8
TOOL_0
 5
F9
 10
4503.743
 20
2150.299
 30
0
 11
4503.743
 21
2185.299
 31
0
 0
ARC
 8
TOOL_0
 5
FA
 10
4482.743
 20
2185.299
 30
0
 40
21.0
 50
0
 51
147.725934078207
210
0
220
0
230
1.0
 0
LINE
 8
TOOL_0
 5
FB
 10
4464.988
 20
2196.512
 30
0
 11
4431.715
 21
2143.827
 31
0
 0
ARC
 8
TOOL_0
 5
FC
 10
4447.779
 20
2133.681
 30
0
 40
18.999826630788
 50
147.723550532162
 51
243.305476199262
210
0
220
0
230
1.0
 0
LINE
 8
TOOL_0
 5
FD
 10
4439.244
 20
2116.707
 30
0
 11
4439.244
 21
1571.298
 31
0
 0
LINE
 8
TOOL_0
 5
FE
 10
4439.244
 20
1571.298
 30
0
 11
4402.244
 21
1571.298
 31
0
 0
LINE
 8
TOOL_0
 5
FF
 10
4402.244
 20
1571.298
 30
0
 11
4402.244
 21
1574.298
 31
0
 0
ARC
 8
TOOL_0
 5
100
 10
4399.244
 20
1574.298
 30
0
 40
3.0
 50
0
 51
90.0
210
0
220
0
230
1.0
 0
LINE
 8
TOOL_0
 5
101
 10
4399.244
 20
1577.298
 30
0
 11
4352.744
 21
1577.298
 31
0
 0
ARC
 8
TOOL_0
 5
102
 10
4352.744
 20
1378.298
 30
0
 40
199.0
 50
90.0
 51
180.0
210
0
220
0
230
1.0
 0
LINE
 8
TOOL_0
 5
103
 10
4153.744
 20
1378.298
 30
0
 11
4153.744
 21
1025.298
 31
0
 0
ARC
 8
TOOL_0
 5
104
 10
4352.744
 20
1025.298
 30
0
 40
199.0
 50
180.0
 51
269.99971208151
210
0
220
0
230
1.0
 0
LINE
 8
TOOL_0
 5
105
 10
4352.743
 20
826.298
 30
0
 11
4513.158
 21
826.298
 31
0
 0
LINE
 8
TOOL_0
 5
106
 10
4513.158
 20
826.298
 30
0
 11
4518.744
 21
820.712
 31
0
 0
LINE
 8
TOOL_0
 5
107
 10
4518.744
 20
820.712
 30
0
 11
4522.28
 21
817.176
 31
0
 0
LINE
 8
TOOL_0
 5
108
 10
4522.28
 20
817.176
 30
0
 11
5097.57
 21
85.297
 31
0
 0
LINE
 8
TOOL_0
 5
109
 10
5097.57
 20
85.297
 30
0
 11
5127.57
 21
85.297
 31
0
 0
ARC
 8
TOOL_0
 5
10A
 10
5092.57
 20
85.297
 30
0
 40
35.0
 50
0
 51
180.0
210
0
220
0
230
1.0
 0
ARC
 8
TOOL_0
 5
10B
 10
5092.57
 20
85.297
 30
0
 40
35.0
 50
180.0
 51
0
210
0
220
0
230
1.0
 0
LINE
 8
TOOL_0
 5
10C
 10
5127.57
 20
85.297
 30
0
 11
5120.499
 21
92.368
 31
0
 0
LINE
 8
TOOL_0
 5
10D
 10
5120.499
 20
92.368
 30
0
 11
5747.57
 21
307.297
 31
0
 0
LINE
 8
TOOL_0
 5
10E
 10
5747.57
 20
307.297
 30
0
 11
5777.57
 21
307.297
 31
0
 0
LINE
 8
TOOL_0
 5
10F
 10
5777.57
 20
307.297
 30
0
 11
5777.57
 21
322.297
 31
0
 0
ARC
 8
TOOL_0
 5
110
 10
5767.57
 20
322.297
 30
0
 40
10.0
 50
0
 51
90.0
210
0
220
0
230
1.0
 0
LINE
 8
TOOL_0
 5
111
 10
5767.57
 20
332.297
 30
0
 11
5587.57
 21
332.297
 31
0
 0
ARC
 8
TOOL_0
 5
112
 10
5587.57
 20
322.297
 30
0
 40
10.0
 50
90.0
 51
180.0
210
0
220
0
230
1.0
 0
LINE
 8
TOOL_0
 5
113
 10
5577.57
 20
322.297
 30
0
 11
5577.57
 21
292.297
 31
0
 0
ARC
 8
TOOL_0
 5
114
 10
5587.57
 20
292.297
 30
0
 40
10.0
 50
180.0
 51
270.0
210
0
220
0
230
1.0
 0
LINE
 8
TOOL_0
 5
115
 10
5587.57
 20
282.297
 30
0
 11
5767.57
 21
282.297
 31
0
 0
ARC
 8
TOOL_0
 5
116
 10
5767.57
 20
292.297
 30
0
 40
10.0
 50
270.0
 51
0
210
0
220
0
230
1.0
 0
LINE
 8
TOOL_0
 5
117
 10
5777.57
 20
292.297
 30
0
 11
5777.57
 21
307.297
 31
0
 0
LINE
 8
TOOL_0
 5
118
 10
5777.57
 20
307.297
 30
0
 11
5770.499
 21
314.368
 31
0
 0
LINE
 8
TOOL_0
 5
119
 10
5770.499
 20
314.368
 30
0
 11
4760.57
 21
2435.297
 31
0
 0
LINE
 8
TOOL_0
 5
11A
 10
4760.57
 20
2435.297
 30
0
 11
4790.57
 21
2435.297
 31
0
 0
LINE
 8
TOOL_0
 5
11B
 10
4790.57
 20
2435.297
 30
0
 11
4790.57
 21
2475.297
 31
0
 0
ARC
 8
TOOL_0
 5
11C
 10
4770.57
 20
2475.297
 30
0
 40
20.0
 50
0
 51
90.0
210
0
220
0
230
1.0
 0
LINE
 8
TOOL_0
 5
11D
 10
4770.57
 20
2495.297
 30
0
 11
4710.57
 21
2495.297
 31
0
 0
ARC
 8
TOOL_0
 5
11E
 10
4710.57
 20
2475.297
 30
0
 40
20.0
 50
90.0
 51
180.0
210
0
220
0
230
1.0
 0
LINE
 8
TOOL_0
 5
11F
 10
4690.57
 20
2475.297
 30
0
 11
4690.57
 21
2395.297
 31
0
 0
ARC
 8
TOOL_0
 5
120
 10
4710.57
 20
2395.297
 30
0
 40
20.0
 50
180.0
 51
270.0
210
0
220
0
230
1.0
 0
LINE
 8
TOOL_0
 5
121
 10
4710.57
 20
2375.297
 30
0
 11
4770.57
 21
2375.297
 31
0
 0
ARC
 8
TOOL_0
 5
122
 10
4770.57
 20
2395.297
 30
0
 40
20.0
 50
270.0
 51
0
210
0
220
0
230
1.0
 0
LINE
 8
TOOL_0
 5
123
 10
4790.57
 20
2395.297
 30
0
 11
4790.57
 21
2435.297
 31
0
 0
LINE
 8
TOOL_0
 5
124
 10
4790.57
 20
2435.297
 30
0
 11
4783.499
 21
2442.368
 31
0
 0
LINE
 8
TOOL_0
 5
125
 10
4783.499
 20
2442.368
 30
0
 11
5850.57
 21
2528.297
 31
0
 0
LINE
 8
TOOL_0
 5
126
 10
5850.57
 20
2528.297
 30
0
 11
5880.57
 21
2528.297
 31
0
 0
LINE
 8
TOOL_0
 5
127
 10
5880.57
 20
2528.297
 30
0
 11
5880.57
 21
2538.297
 31
0
 0
ARC
 8
TOOL_0
 5
128
 10
5870.57
 20
2538.297
 30
0
 40
10.0
 50
0
 51
90.0
210
0
220
0
230
1.0
 0
LINE
 8
TOOL_0
 5
129
 10
5870.57
 20
2548.297
 30
0
 11
5790.57
 21
2548.297
 31
0
 0
ARC
 8
TOOL_0
 5
12A
 10
5790.57
 20
2538.297
 30
0
 40
10.0
 50
90.0
 51
180.0
210
0
220
0
230
1.0
 0
LINE
 8
TOOL_0
 5
12B
 10
5780.57
 20
2538.297
 30
0
 11
5780.57
 21
2518.297
 31
0
 0
ARC
 8
TOOL_0
 5
12C
 10
5810.57
 20
2518.297
 30
0
 40
30.0
 50
180.0
 51
270.0
210
0
220
0
230
1.0
 0
LINE
 8
TOOL_0
 5
12D
 10
5810.57
 20
2488.297
 30
0
 11
5850.57
 21
2488.297
 31
0
 0
ARC
 8
TOOL_0
 5
12E
 10
5850.57
 20
2518.297
 30
0
 40
30.0
 50
270.0
 51
0
210
0
220
0
230
1.0
 0
LINE
 8
TOOL_0
 5
12F
 10
5880.57
 20
2518.297
 30
0
 11
5880.57
 21
2528.297
 31
0
 0
LINE
 8
TOOL_0
 5
130
 10
5880.57
 20
2528.297
 30
0
 11
5873.499
 21
2535.368
 31
0
 0
LINE
 8
TOOL_0
 5
131
 10
5873.499
 20
2535.368
 30
0
 11
5770.57
 21
2418.297
 31
0
 0
LINE
 8
TOOL_0
 5
132
 10
5770.57
 20
2418.297
 30
0
 11
5800.57
 21
2418.297
 31
0
 0
LINE
 8
TOOL_0
 5
133
 10
5800.57
 20
2418.297
 30
0
 11
5800.57
 21
2448.297
 31
0
 0
ARC
 8
TOOL_0
 5
134
 10
5780.57
 20
2448.297
 30
0
 40
20.0
 50
0
 51
90.0
210
0
220
0
230
1.0
 0
LINE
 8
TOOL_0
 5
135
 10
5780.57
 20
2468.297
 30
0
 11
5690.57
 21
2468.297
 31
0
 0
ARC
 8
TOOL_0
 5
136
 10
5690.57
 20
2448.297
 30
0
 40
20.0
 50
90.0
 51
180.0
210
0
220
0
230
1.0
 0
LINE
 8
TOOL_0
 5
137
 10
5670.57
 20
2448.297
 30
0
 11
5670.57
 21
2388.297
 31
0
 0
ARC
 8
TOOL_0
 5
138
 10
5690.57
 20
2388.297
 30
0
 40
20.0
 50
180.0
 51
270.0
210
0
220
0
230
1.0
 0
LINE
 8
TOOL_0
 5
139
 10
5690.57
 20
2368.297
 30
0
 11
5780.57
 21
2368.297
 31
0
 0
ARC
 8
TOOL_0
 5
13A
 10
5780.57
 20
2388.297
 30
0
 40
20.0
 50
270.0
 51
0
210
0
220
0
230
1.0
 0
LINE
 8
TOOL_0
 5
13B
 10
5800.57
 20
2388.297
 30
0
 11
5800.57
 21
2418.297
 31
0
 0
LINE
 8
TOOL_0
 5
13C
 10
5800.57
 20
2418.297
 30
0
 11
5793.499
 21
2425.368
 31
0
 0
LINE
 8
TOOL_0
 5
13D
 10
5793.499
 20
2425.368
 30
0
 11
4664.57
 21
1784.88
 31
0
 0
LINE
 8
TOOL_0
 5
13E
 10
4664.57
 20
1784.88
 30
0
 11
4664.57
 21
1814.883
 31
0
 0
LINE
 8
TOOL_0
 5
13F
 10
4664.57
 20
1814.883
 30
0
 11
4664.57
 21
2625.711
 31
0
 0
LINE
 8
TOOL_0
 5
140
 10
4664.57
 20
2625.711
 30
0
 11
4670.156
 21
2631.297
 31
0
 0
LINE
 8
TOOL_0
 5
141
 10
4670.156
 20
2631.297
 30
0
 11
6054.57
 21
2631.297
 31
0
 0
ARC
 8
TOOL_0
 5
142
 10
6054.57
 20
2626.297
 30
0
 40
5.0
 50
0
 51
90.0
210
0
220
0
230
1.0
 0
LINE
 8
TOOL_0
 5
143
 10
6059.57
 20
2626.297
 30
0
 11
6059.57
 21
2594.297
 31
0
 0
ARC
 8
TOOL_0
 5
144
 10
6062.57
 20
2594.297
 30
0
 40
3.0
 50
180.0
 51
270.0
210
0
220
0
230
1.0
 0
LINE
 8
TOOL_0
 5
145
 10
6062.57
 20
2591.297
 30
0
 11
6111.57
 21
2591.297
 31
0
 0
ARC
 8
TOOL_0
 5
146
 10
6111.57
 20
2586.297
 30
0
 40
5.0
 50
0
 51
90.0
210
0
220
0
230
1.0
 0
LINE
 8
TOOL_0
 5
147
 10
6116.57
 20
2586.297
 30
0
 11
6116.57
 21
2494.297
 31
0
 0
LINE
 8
TOOL_0
 5
148
 10
6116.57
 20
2494.297
 30
0
 11
6062.57
 21
2494.297
 31
0
 0
ARC
 8
TOOL_0
 5
149
 10
6062.57
 20
2491.297
 30
0
 40
3.0
 50
90.0
 51
180.0
210
0
220
0
230
1.0
 0
LINE
 8
TOOL_0
 5
14A
 10
6059.57
 20
2491.297
 30
0
 11
6059.57
 21
1737.297
 31
0
 0
ARC
 8
TOOL_0
 5
14B
 10
6062.57
 20
1737.297
 30
0
 40
3.0
 50
180.0
 51
270.0
210
0
220
0
230
1.0
 0
LINE
 8
TOOL_0
 5
14C
 10
6062.57
 20
1734.297
 30
0
 11
6116.57
 21
1734.297
 31
0
 0
LINE
 8
TOOL_0
 5
14D
 10
6116.57
 20
1734.297
 30
0
 11
6116.57
 21
4.297
 31
0
 0
LINE
 8
TOOL_0
 5
14E
 10
6116.57
 20
4.297
 30
0
 11
4531.57
 21
4.297
 31
0
 0
LINE
 8
TOOL_0
 5
14F
 10
4531.57
 20
4.297
 30
0
 11
4531.57
 21
485.297
 31
0
 0
LINE
 8
TOOL_0
 5
150
 10
4531.57
 20
485.297
 30
0
 11
4679.57
 21
485.297
 31
0
 0
LINE
 8
TOOL_0
 5
151
 10
4679.57
 20
485.297
 30
0
 11
4679.57
 21
450.297
 31
0
 0
ARC
 8
TOOL_0
 5
152
 10
4700.57
 20
450.297
 30
0
 40
21.0
 50
180.0
 51
327.723627214969
210
0
220
0
230
1.0
 0
LINE
 8
TOOL_0
 5
153
 10
4718.325
 20
439.083
 30
0
 11
4751.598
 21
491.768
 31
0
 0
ARC
 8
TOOL_0
 5
154
 10
4735.534
 20
501.914
 30
0
 40
18.999826630788
 50
327.723550532163
 51
63.305476199263
210
0
220
0
230
1.0
 0
LINE
 8
TOOL_0
 5
155
 10
4744.069
 20
518.888
 30
0
 11
4744.069
 21
1064.297
 31
0
 0
LINE
 8
TOOL_0
 5
156
 10
4744.069
 20
1064.297
 30
0
 11
4781.069
 21
1064.297
 31
0
 0
LINE
 8
TOOL_0
 5
157
 10
4781.069
 20
1064.297
 30
0
 11
4781.069
 21
1061.297
 31
0
 0
ARC
 8
TOOL_0
 5
158
 10
4784.069
 20
1061.297
 30
0
 40
3.0
 50
180.0
 51
270.0
210
0
220
0
230
1.0
 0
LINE
 8
TOOL_0
 5
159
 10
4784.069
 20
1058.297
 30
0
 11
4830.569
 21
1058.297
 31
0
 0
ARC
 8
TOOL_0
 5
15A
 10
4830.569
 20
1257.297
 30
0
 40
199.0
 50
270.0
 51
359.99971208151
210
0
220
0
230
1.0
 0
LINE
 8
TOOL_0
 5
15B
 10
5029.569
 20
1257.296
 30
0
 11
5029.569
 21
1610.297
 31
0
 0
ARC
 8
TOOL_0
 5
15C
 10
4830.569
 20
1610.297
 30
0
 40
199.0
 50
0
 51
90.0
210
0
220
0
230
1.0
 0
LINE
 8
TOOL_0
 5
15D
 10
4830.569
 20
1809.297
 30
0
 11
4670.155
 21
1809.297
 31
0
 0
LINE
 8
TOOL_0
 5
15E
 10
4670.155
 20
1809.297
 30
0
 11
4664.569
 21
1814.883
 31
0
 0
LINE
 8
TOOL_0
 5
15F
 10
4664.569
 20
1814.883
 30
0
 11
4661.002
 21
1818.381
 31
0
 0
LINE
 8
TOOL_0
 5
160
 10
4661.002
 20
1818.381
 30
0
 11
7155.387
 21
2550.297
 31
0
 0
LINE
 8
TOOL_0
 5
161
 10
7155.387
 20
2550.297
 30
0
 11
7185.387
 21
2550.297
 31
0
 0
ARC
 8
TOOL_0
 5
162
 10
7150.387
 20
2550.297
 30
0
 40
35.0
 50
0
 51
180.0
210
0
220
0
230
1.0
 0
ARC
 8
TOOL_0
 5
163
 10
7150.387
 20
2550.297
 30
0
 40
35.0
 50
180.0
 51
0
210
0
220
0
230
1.0
 0
LINE
 8
TOOL_0
 5
164
 10
7185.387
 20
2550.297
 30
0
 11
7178.316
 21
2557.368
 31
0
 0
LINE
 8
TOOL_0
 5
165
 10
7178.316
 20
2557.368
 30
0
 11
6760.387
 21
2315.297
 31
0
 0
LINE
 8
TOOL_0
 5
166
 10
6760.387
 20
2315.297
 30
0
 11
6790.387
 21
2315.297
 31
0
 0
LINE
 8
TOOL_0
 5
167
 10
6790.387
 20
2315.297
 30
0
 11
6790.387
 21
2345.297
 31
0
 0
ARC
 8
TOOL_0
 5
168
 10
6780.387
 20
2345.297
 30
0
 40
10.0
 50
0
 51
90.0
210
0
220
0
230
1.0
 0
LINE
 8
TOOL_0
 5
169
 10
6780.387
 20
2355.297
 30
0
 11
6600.387
 21
2355.297
 31
0
 0
ARC
 8
TOOL_0
 5
16A
 10
6600.387
 20
2345.297
 30
0
 40
10.0
 50
90.0
 51
180.0
210
0
220
0
230
1.0
 0
LINE
 8
TOOL_0
 5
16B
 10
6590.387
 20
2345.297
 30
0
 11
6590.387
 21
2285.297
 31
0
 0
ARC
 8
TOOL_0
 5
16C
 10
6600.387
 20
2285.297
 30
0
 40
10.0
 50
180.0
 51
270.0
210
0
220
0
230
1.0
 0
LINE
 8
TOOL_0
 5
16D
 10
6600.387
 20
2275.297
 30
0
 11
6780.387
 21
2275.297
 31
0
 0
ARC
 8
TOOL_0
 5
16E
 10
6780.387
 20
2285.297
 30
0
 40
10.0
 50
270.0
 51
0
210
0
220
0
230
1.0
 0
LINE
 8
TOOL_0
 5
16F
 10
6790.387
 20
2285.297
 30
0
 11
6790.387
 21
2315.297
 31
0
 0
LINE
 8
TOOL_0
 5
170
 10
6790.387
 20
2315.297
 30
0
 11
6783.316
 21
2322.368
 31
0
 0
LINE
 8
TOOL_0
 5
171
 10
6783.316
 20
2322.368
 30
0
 11
7168.387
 21
1905.297
 31
0
 0
LINE
 8
TOOL_0
 5
172
 10
7168.387
 20
1905.297
 30
0
 11
7198.387
 21
1905.297
 31
0
 0
ARC
 8
TOOL_0
 5
173
 10
7178.387
 20
1905.297
 30
0
 40
20.0
 50
0
 51
66.867990902554
210
0
220
0
230
1.0
 0
LINE
 8
TOOL_0
 5
174
 10
7186.244
 20
1923.689
 30
0
 11
7162.565
 21
1933.805
 31
0
 0
ARC
 8
TOOL_0
 5
175
 10
7150.386
 20
1905.119
 30
0
 40
31.164316726025
 50
66.9957430162
 51
113.002564662372
210
0
220
0
230
1.0
 0
LINE
 8
TOOL_0
 5
176
 10
7138.208
 20
1933.805
 30
0
 11
7114.529
 21
1923.689
 31
0
 0
ARC
 8
TOOL_0
 5
177
 10
7122.386
 20
1905.297
 30
0
 40
19.999952824944
 50
113.132009097445
 51
246.867990902554
210
0
220
0
230
1.0
 0
LINE
 8
TOOL_0
 5
178
 10
7114.529
 20
1886.905
 30
0
 11
7138.208
 21
1876.789
 31
0
 0
ARC
 8
TOOL_0
 5
179
 10
7150.387
 20
1905.475
 30
0
 40
31.164316726025
 50
246.995743016199
 51
293.002564662372
210
0
220
0
230
1.0
 0
LINE
 8
TOOL_0
 5
17A
 10
7162.565
 20
1876.789
 30
0
 11
7186.244
 21
1886.905
 31
0
 0
ARC
 8
TOOL_0
 5
17B
 10
7178.387
 20
1905.297
 30
0
 40
19.999952824944
 50
293.132009097446
 51
0
210
0
220
0
230
1.0
 0
LINE
 8
TOOL_0
 5
17C
 10
7198.387
 20
1905.297
 30
0
 11
7191.316
 21
1912.368
 31
0
 0
LINE
 8
TOOL_0
 5
17D
 10
7191.316
 20
1912.368
 30
0
 11
6490.387
 21
97.297
 31
0
 0
LINE
 8
TOOL_0
 5
17E
 10
6490.387
 20
97.297
 30
0
 11
6520.387
 21
97.297
 31
0
 0
LINE
 8
TOOL_0
 5
17F
 10
6520.387
 20
97.297
 30
0
 11
6520.387
 21
127.297
 31
0
 0
ARC
 8
TOOL_0
 5
180
 10
6490.387
 20
127.297
 30
0
 40
30.0
 50
0
 51
90.0
210
0
220
0
230
1.0
 0
LINE
 8
TOOL_0
 5
181
 10
6490.387
 20
157.297
 30
0
 11
6420.387
 21
157.297
 31
0
 0
ARC
 8
TOOL_0
 5
182
 10
6420.387
 20
127.297
 30
0
 40
30.0
 50
90.0
 51
180.0
210
0
220
0
230
1.0
 0
LINE
 8
TOOL_0
 5
183
 10
6390.387
 20
127.297
 30
0
 11
6390.387
 21
67.297
 31
0
 0
ARC
 8
TOOL_0
 5
184
 10
6400.387
 20
67.297
 30
0
 40
10.0
 50
180.0
 51
270.0
210
0
220
0
230
1.0
 0
LINE
 8
TOOL_0
 5
185
 10
6400.387
 20
57.297
 30
0
 11
6510.387
 21
57.297
 31
0
 0
ARC
 8
TOOL_0
 5
186
 10
6510.387
 20
67.297
 30
0
 40
10.0
 50
270.0
 51
0
210
0
220
0
230
1.0
 0
LINE
 8
TOOL_0
 5
187
 10
6520.387
 20
67.297
 30
0
 11
6520.387
 21
97.297
 31
0
 0
LINE
 8
TOOL_0
 5
188
 10
6520.387
 20
97.297
 30
0
 11
6513.316
 21
104.368
 31
0
 0
LINE
 8
TOOL_0
 5
189
 10
6513.316
 20
104.368
 30
0
 11
6570.387
 21
217.297
 31
0
 0
LINE
 8
TOOL_0
 5
18A
 10
6570.387
 20
217.297
 30
0
 11
6600.387
 21
217.297
 31
0
 0
LINE
 8
TOOL_0
 5
18B
 10
6600.387
 20
217.297
 30
0
 11
6600.387
 21
247.297
 31
0
 0
ARC
 8
TOOL_0
 5
18C
 10
6580.387
 20
247.297
 30
0
 40
20.0
 50
0
 51
90.0
210
0
220
0
230
1.0
 0
LINE
 8
TOOL_0
 5
18D
 10
6580.387
 20
267.297
 30
0
 11
6520.387
 21
267.297
 31
0
 0
ARC
 8
TOOL_0
 5
18E
 10
6520.387
 20
247.297
 30
0
 40
20.0
 50
90.0
 51
180.0
210
0
220
0
230
1.0
 0
LINE
 8
TOOL_0
 5
18F
 10
6500.387
 20
247.297
 30
0
 11
6500.387
 21
187.297
 31
0
 0
ARC
 8
TOOL_0
 5
190
 10
6520.387
 20
187.297
 30
0
 40
20.0
 50
180.0
 51
270.0
210
0
220
0
230
1.0
 0
LINE
 8
TOOL_0
 5
191
 10
6520.387
 20
167.297
 30
0
 11
6580.387
 21
167.297
 31
0
 0
ARC
 8
TOOL_0
 5
192
 10
6580.387
 20
187.297
 30
0
 40
20.0
 50
270.0
 51
0
210
0
220
0
230
1.0
 0
LINE
 8
TOOL_0
 5
193
 10
6600.387
 20
187.297
 30
0
 11
6600.387
 21
217.297
 31
0
 0
LINE
 8
TOOL_0
 5
194
 10
6600.387
 20
217.297
 30
0
 11
6593.316
 21
224.368
 31
0
 0
LINE
 8
TOOL_0
 5
195
 10
6593.316
 20
224.368
 30
0
 11
7565.387
 21
190.297
 31
0
 0
LINE
 8
TOOL_0
 5
196
 10
7565.387
 20
190.297
 30
0
 11
7595.387
 21
190.297
 31
0
 0
LINE
 8
TOOL_0
 5
197
 10
7595.387
 20
190.297
 30
0
 11
7595.387
 21
220.297
 31
0
 0
ARC
 8
TOOL_0
 5
198
 10
7575.387
 20
220.297
 30
0
 40
20.0
 50
0
 51
90.0
210
0
220
0
230
1.0
 0
LINE
 8
TOOL_0
 5
199
 10
7575.387
 20
240.297
 30
0
 11
7515.387
 21
240.297
 31
0
 0
ARC
 8
TOOL_0
 5
19A
 10
7515.387
 20
220.297
 30
0
 40
20.0
 50
90.0
 51
180.0
210
0
220
0
230
1.0
 0
LINE
 8
TOOL_0
 5
19B
 10
7495.387
 20
220.297
 30
0
 11
7495.387
 21
160.297
 31
0
 0
ARC
 8
TOOL_0
 5
19C
 10
7515.387
 20
160.297
 30
0
 40
20.0
 50
180.0
 51
270.0
210
0
220
0
230
1.0
 0
LINE
 8
TOOL_0
 5
19D
 10
7515.387
 20
140.297
 30
0
 11
7575.387
 21
140.297
 31
0
 0
ARC
 8
TOOL_0
 5
19E
 10
7575.387
 20
160.297
 30
0
 40
20.0
 50
270.0
 51
0
210
0
220
0
230
1.0
 0
LINE
 8
TOOL_0
 5
19F
 10
7595.387
 20
160.297
 30
0
 11
7595.387
 21
190.297
 31
0
 0
LINE
 8
TOOL_0
 5
1A0
 10
7595.387
 20
190.297
 30
0
 11
7588.316
 21
197.368
 31
0
 0
LINE
 8
TOOL_0
 5
1A1
 10
7588.316
 20
197.368
 30
0
 11
7621.387
 21
769.008
 31
0
 0
LINE
 8
TOOL_0
 5
1A2
 10
7621.387
 20
769.008
 30
0
 11
7621.387
 21
737.711
 31
0
 0
LINE
 8
TOOL_0
 5
1A3
 10
7621.387
 20
737.711
 30
0
 11
7621.387
 21
12.883
 31
0
 0
LINE
 8
TOOL_0
 5
1A4
 10
7621.387
 20
12.883
 30
0
 11
7612.801
 21
4.297
 31
0
 0
LINE
 8
TOOL_0
 5
1A5
 10
7612.801
 20
4.297
 30
0
 11
6136.387
 21
4.297
 31
0
 0
ARC
 8
TOOL_0
 5
1A6
 10
6136.387
 20
11.297
 30
0
 40
7.0
 50
180.0
 51
270.0
210
0
220
0
230
1.0
 0
LINE
 8
TOOL_0
 5
1A7
 10
6129.387
 20
11.297
 30
0
 11
6129.387
 21
2631.297
 31
0
 0
LINE
 8
TOOL_0
 5
1A8
 10
6129.387
 20
2631.297
 30
0
 11
7747.387
 21
2631.297
 31
0
 0
ARC
 8
TOOL_0
 5
1A9
 10
7747.387
 20
2624.297
 30
0
 40
7.0
 50
0
 51
90.0
210
0
220
0
230
1.0
 0
LINE
 8
TOOL_0
 5
1AA
 10
7754.387
 20
2624.297
 30
0
 11
7754.387
 21
2150.297
 31
0
 0
LINE
 8
TOOL_0
 5
1AB
 10
7754.387
 20
2150.297
 30
0
 11
7606.387
 21
2150.297
 31
0
 0
LINE
 8
TOOL_0
 5
1AC
 10
7606.387
 20
2150.297
 30
0
 11
7606.387
 21
2185.297
 31
0
 0
ARC
 8
TOOL_0
 5
1AD
 10
7585.387
 20
2185.297
 30
0
 40
21.0
 50
0
 51
147.688053502426
210
0
220
0
230
1.0
 0
LINE
 8
TOOL_0
 5
1AE
 10
7567.639
 20
2196.522
 30
0
 11
7534.329
 21
2143.853
 31
0
 0
ARC
 8
TOOL_0
 5
1AF
 10
7550.387
 20
2133.697
 30
0
 40
19.000097368172
 50
147.688392683242
 51
243.424159673344
210
0
220
0
230
1.0
 0
LINE
 8
TOOL_0
 5
1B0
 10
7541.887
 20
2116.705
 30
0
 11
7541.887
 21
1571.298
 31
0
 0
LINE
 8
TOOL_0
 5
1B1
 10
7541.887
 20
1571.298
 30
0
 11
7504.786
 21
1571.298
 31
0
 0
ARC
 8
TOOL_0
 5
1B2
 10
7499.887
 20
1572.298
 30
0
 40
5.00002009996
 50
348.463087982615
 51
90.0
210
0
220
0
230
1.0
 0
LINE
 8
TOOL_0
 5
1B3
 10
7499.887
 20
1577.298
 30
0
 11
7455.387
 21
1577.298
 31
0
 0
ARC
 8
TOOL_0
 5
1B4
 10
7455.387
 20
1378.298
 30
0
 40
199.0
 50
90.0
 51
180.0
210
0
220
0
230
1.0
 0
LINE
 8
TOOL_0
 5
1B5
 10
7256.387
 20
1378.298
 30
0
 11
7256.387
 21
945.298
 31
0
 0
ARC
 8
TOOL_0
 5
1B6
 10
7455.387
 20
945.298
 30
0
 40
199.0
 50
180.0
 51
270.0
210
0
220
0
230
1.0
 0
LINE
 8
TOOL_0
 5
1B7
 10
7455.387
 20
746.298
 30
0
 11
7612.801
 21
746.298
 31
0
 0
LINE
 8
TOOL_0
 5
1B8
 10
7612.801
 20
746.298
 30
0
 11
7621.387
 21
737.712
 31
0
 0
LINE
 8
TOOL_0
 5
1B9
 10
7621.387
 20
737.712
 30
0
 11
7625.358
 21
734.373
 31
0
 0
LINE
 8
TOOL_0
 5
1BA
 10
7625.358
 20
734.373
 30
0
 11
8968.36
 21
2538.298
 31
0
 0
LINE
 8
TOOL_0
 5
1BB
 10
8968.36
 20
2538.298
 30
0
 11
8998.36
 21
2538.298
 31
0
 0
LINE
 8
TOOL_0
 5
1BC
 10
8998.36
 20
2538.298
 30
0
 11
8998.36
 21
2568.298
 31
0
 0
ARC
 8
TOOL_0
 5
1BD
 10
8988.36
 20
2568.298
 30
0
 40
10.0
 50
0
 51
90.0
210
0
220
0
230
1.0
 0
LINE
 8
TOOL_0
 5
1BE
 10
8988.36
 20
2578.298
 30
0
 11
8878.36
 21
2578.298
 31
0
 0
ARC
 8
TOOL_0
 5
1BF
 10
8878.36
 20
2568.298
 30
0
 40
10.0
 50
90.0
 51
180.0
210
0
220
0
230
1.0
 0
LINE
 8
TOOL_0
 5
1C0
 10
8868.36
 20
2568.298
 30
0
 11
8868.36
 21
2508.298
 31
0
 0
ARC
 8
TOOL_0
 5
1C1
 10
8898.36
 20
2508.298
 30
0
 40
30.0
 50
180.0
 51
270.0
210
0
220
0
230
1.0
 0
LINE
 8
TOOL_0
 5
1C2
 10
8898.36
 20
2478.298
 30
0
 11
8968.36
 21
2478.298
 31
0
 0
ARC
 8
TOOL_0
 5
1C3
 10
8968.36
 20
2508.298
 30
0
 40
30.0
 50
270.0
 51
0
210
0
220
0
230
1.0
 0
LINE
 8
TOOL_0
 5
1C4
 10
8998.36
 20
2508.298
 30
0
 11
8998.36
 21
2538.298
 31
0
 0
LINE
 8
TOOL_0
 5
1C5
 10
8998.36
 20
2538.298
 30
0
 11
8991.289
 21
2545.369
 31
0
 0
LINE
 8
TOOL_0
 5
1C6
 10
8991.289
 20
2545.369
 30
0
 11
8858.36
 21
2418.298
 31
0
 0
LINE
 8
TOOL_0
 5
1C7
 10
8858.36
 20
2418.298
 30
0
 11
8888.36
 21
2418.298
 31
0
 0
LINE
 8
TOOL_0
 5
1C8
 10
8888.36
 20
2418.298
 30
0
 11
8888.36
 21
2448.298
 31
0
 0
ARC
 8
TOOL_0
 5
1C9
 10
8868.36
 20
2448.298
 30
0
 40
20.0
 50
0
 51
90.0
210
0
220
0
230
1.0
 0
LINE
 8
TOOL_0
 5
1CA
 10
8868.36
 20
2468.298
 30
0
 11
8808.36
 21
2468.298
 31
0
 0
ARC
 8
TOOL_0
 5
1CB
 10
8808.36
 20
2448.298
 30
0
 40
20.0
 50
90.0
 51
180.0
210
0
220
0
230
1.0
 0
LINE
 8
TOOL_0
 5
1CC
 10
8788.36
 20
2448.298
 30
0
 11
8788.36
 21
2388.298
 31
0
 0
ARC
 8
TOOL_0
 5
1CD
 10
8808.36
 20
2388.298
 30
0
 40
20.0
 50
180.0
 51
270.0
210
0
220
0
230
1.0
 0
LINE
 8
TOOL_0
 5
1CE
 10
8808.36
 20
2368.298
 30
0
 11
8868.36
 21
2368.298
 31
0
 0
ARC
 8
TOOL_0
 5
1CF
 10
8868.36
 20
2388.298
 30
0
 40
20.0
 50
270.0
 51
0
210
0
220
0
230
1.0
 0
LINE
 8
TOOL_0
 5
1D0
 10
8888.36
 20
2388.298
 30
0
 11
8888.36
 21
2418.298
 31
0
 0
LINE
 8
TOOL_0
 5
1D1
 10
8888.36
 20
2418.298
 30
0
 11
8881.289
 21
2425.369
 31
0
 0
LINE
 8
TOOL_0
 5
1D2
 10
8881.289
 20
2425.369
 30
0
 11
7863.36
 21
2445.298
 31
0
 0
LINE
 8
TOOL_0
 5
1D3
 10
7863.36
 20
2445.298
 30
0
 11
7893.36
 21
2445.298
 31
0
 0
LINE
 8
TOOL_0
 5
1D4
 10
7893.36
 20
2445.298
 30
0
 11
7893.36
 21
2475.298
 31
0
 0
ARC
 8
TOOL_0
 5
1D5
 10
7873.36
 20
2475.298
 30
0
 40
20.0
 50
0
 51
90.0
210
0
220
0
230
1.0
 0
LINE
 8
TOOL_0
 5
1D6
 10
7873.36
 20
2495.298
 30
0
 11
7813.36
 21
2495.298
 31
0
 0
ARC
 8
TOOL_0
 5
1D7
 10
7813.36
 20
2475.298
 30
0
 40
20.0
 50
90.0
 51
180.0
210
0
220
0
230
1.0
 0
LINE
 8
TOOL_0
 5
1D8
 10
7793.36
 20
2475.298
 30
0
 11
7793.36
 21
2415.298
 31
0
 0
ARC
 8
TOOL_0
 5
1D9
 10
7813.36
 20
2415.298
 30
0
 40
20.0
 50
180.0
 51
270.0
210
0
220
0
230
1.0
 0
LINE
 8
TOOL_0
 5
1DA
 10
7813.36
 20
2395.298
 30
0
 11
7873.36
 21
2395.298
 31
0
 0
ARC
 8
TOOL_0
 5
1DB
 10
7873.36
 20
2415.298
 30
0
 40
20.0
 50
270.0
 51
0
210
0
220
0
230
1.0
 0
LINE
 8
TOOL_0
 5
1DC
 10
7893.36
 20
2415.298
 30
0
 11
7893.36
 21
2445.298
 31
0
 0
LINE
 8
TOOL_0
 5
1DD
 10
7893.36
 20
2445.298
 30
0
 11
7886.289
 21
2452.369
 31
0
 0
LINE
 8
TOOL_0
 5
1DE
 10
7886.289
 20
2452.369
 30
0
 11
8256.36
 21
730.298
 31
0
 0
LINE
 8
TOOL_0
 5
1DF
 10
8256.36
 20
730.298
 30
0
 11
8286.36
 21
730.298
 31
0
 0
ARC
 8
TOOL_0
 5
1E0
 10
8266.36
 20
730.298
 30
0
 40
20.0
 50
0
 51
66.867990902554
210
0
220
0
230
1.0
 0
LINE
 8
TOOL_0
 5
1E1
 10
8274.217
 20
748.69
 30
0
 11
8250.538
 21
758.806
 31
0
 0
ARC
 8
TOOL_0
 5
1E2
 10
8238.359
 20
730.12
 30
0
 40
31.164316726025
 50
66.9957430162
 51
113.002564662372
210
0
220
0
230
1.0
 0
LINE
 8
TOOL_0
 5
1E3
 10
8226.181
 20
758.806
 30
0
 11
8202.502
 21
748.69
 31
0
 0
ARC
 8
TOOL_0
 5
1E4
 10
8210.359
 20
730.298
 30
0
 40
19.999952824944
 50
113.132009097445
 51
246.867990902554
210
0
220
0
230
1.0
 0
LINE
 8
TOOL_0
 5
1E5
 10
8202.502
 20
711.906
 30
0
 11
8226.181
 21
701.79
 31
0
 0
ARC
 8
TOOL_0
 5
1E6
 10
8238.36
 20
730.476
 30
0
 40
31.164316726025
 50
246.9957430162
 51
293.002564662372
210
0
220
0
230
1.0
 0
LINE
 8
TOOL_0
 5
1E7
 10
8250.538
 20
701.79
 30
0
 11
8274.217
 21
711.906
 31
0
 0
ARC
 8
TOOL_0
 5
1E8
 10
8266.36
 20
730.298
 30
0
 40
19.999952824944
 50
293.132009097446
 51
0
210
0
220
0
230
1.0
 0
LINE
 8
TOOL_0
 5
1E9
 10
8286.36
 20
730.298
 30
0
 11
8279.289
 21
737.369
 31
0
 0
LINE
 8
TOOL_0
 5
1EA
 10
8279.289
 20
737.369
 30
0
 11
8243.36
 21
85.298
 31
0
 0
LINE
 8
TOOL_0
 5
1EB
 10
8243.36
 20
85.298
 30
0
 11
8273.36
 21
85.298
 31
0
 0
ARC
 8
TOOL_0
 5
1EC
 10
8238.36
 20
85.298
 30
0
 40
35.0
 50
0
 51
180.0
210
0
220
0
230
1.0
 0
ARC
 8
TOOL_0
 5
1ED
 10
8238.36
 20
85.298
 30
0
 40
35.0
 50
180.0
 51
0
210
0
220
0
230
1.0
 0
LINE
 8
TOOL_0
 5
1EE
 10
8273.36
 20
85.298
 30
0
 11
8266.289
 21
92.369
 31
0
 0
LINE
 8
TOOL_0
 5
1EF
 10
8266.289
 20
92.369
 30
0
 11
8768.36
 21
320.298
 31
0
 0
LINE
 8
TOOL_0
 5
1F0
 10
8768.36
 20
320.298
 30
0
 11
8798.36
 21
320.298
 31
0
 0
LINE
 8
TOOL_0
 5
1F1
 10
8798.36
 20
320.298
 30
0
 11
8798.36
 21
350.298
 31
0
 0
ARC
 8
TOOL_0
 5
1F2
 10
8788.36
 20
350.298
 30
0
 40
10.0
 50
0
 51
90.0
210
0
220
0
230
1.0
 0
LINE
 8
TOOL_0
 5
1F3
 10
8788.36
 20
360.298
 30
0
 11
8608.36
 21
360.298
 31
0
 0
ARC
 8
TOOL_0
 5
1F4
 10
8608.36
 20
350.298
 30
0
 40
10.0
 50
90.0
 51
180.0
210
0
220
0
230
1.0
 0
LINE
 8
TOOL_0
 5
1F5
 10
8598.36
 20
350.298
 30
0
 11
8598.36
 21
290.298
 31
0
 0
ARC
 8
TOOL_0
 5
1F6
 10
8608.36
 20
290.298
 30
0
 40
10.0
 50
180.0
 51
270.0
210
0
220
0
230
1.0
 0
LINE
 8
TOOL_0
 5
1F7
 10
8608.36
 20
280.298
 30
0
 11
8788.36
 21
280.298
 31
0
 0
ARC
 8
TOOL_0
 5
1F8
 10
8788.36
 20
290.298
 30
0
 40
10.0
 50
270.0
 51
0
210
0
220
0
230
1.0
 0
LINE
 8
TOOL_0
 5
1F9
 10
8798.36
 20
290.298
 30
0
 11
8798.36
 21
320.298
 31
0
 0
LINE
 8
TOOL_0
 5
1FA
 10
8798.36
 20
320.298
 30
0
 11
8791.289
 21
327.369
 31
0
 0
LINE
 8
TOOL_0
 5
1FB
 10
8791.289
 20
327.369
 30
0
 11
7767.36
 21
1867.144
 31
0
 0
LINE
 8
TOOL_0
 5
1FC
 10
7767.36
 20
1867.144
 30
0
 11
7767.36
 21
1897.884
 31
0
 0
LINE
 8
TOOL_0
 5
1FD
 10
7767.36
 20
1897.884
 30
0
 11
7767.36
 21
2622.712
 31
0
 0
LINE
 8
TOOL_0
 5
1FE
 10
7767.36
 20
2622.712
 30
0
 11
7775.946
 21
2631.298
 31
0
 0
LINE
 8
TOOL_0
 5
1FF
 10
7775.946
 20
2631.298
 30
0
 11
9252.36
 21
2631.298
 31
0
 0
ARC
 8
TOOL_0
 5
200
 10
9252.36
 20
2624.298
 30
0
 40
7.0
 50
0
 51
90.0
210
0
220
0
230
1.0
 0
LINE
 8
TOOL_0
 5
201
 10
9259.36
 20
2624.298
 30
0
 11
9259.36
 21
4.298
 31
0
 0
LINE
 8
TOOL_0
 5
202
 10
9259.36
 20
4.298
 30
0
 11
7641.36
 21
4.298
 31
0
 0
ARC
 8
TOOL_0
 5
203
 10
7641.36
 20
11.298
 30
0
 40
7.0
 50
180.0
 51
270.0
210
0
220
0
230
1.0
 0
LINE
 8
TOOL_0
 5
204
 10
7634.36
 20
11.298
 30
0
 11
7634.36
 21
485.298
 31
0
 0
LINE
 8
TOOL_0
 5
205
 10
7634.36
 20
485.298
 30
0
 11
7782.36
 21
485.298
 31
0
 0
LINE
 8
TOOL_0
 5
206
 10
7782.36
 20
485.298
 30
0
 11
7782.36
 21
450.298
 31
0
 0
ARC
 8
TOOL_0
 5
207
 10
7803.36
 20
450.298
 30
0
 40
21.0
 50
180.0
 51
327.688053502426
210
0
220
0
230
1.0
 0
LINE
 8
TOOL_0
 5
208
 10
7821.108
 20
439.073
 30
0
 11
7854.418
 21
491.742
 31
0
 0
ARC
 8
TOOL_0
 5
209
 10
7838.36
 20
501.898
 30
0
 40
19.000097368172
 50
327.688392683242
 51
63.424159673344
210
0
220
0
230
1.0
 0
LINE
 8
TOOL_0
 5
20A
 10
7846.86
 20
518.89
 30
0
 11
7846.86
 21
1064.297
 31
0
 0
LINE
 8
TOOL_0
 5
20B
 10
7846.86
 20
1064.297
 30
0
 11
7883.961
 21
1064.297
 31
0
 0
ARC
 8
TOOL_0
 5
20C
 10
7888.86
 20
1063.297
 30
0
 40
5.00002009996
 50
168.463087982615
 51
270.0
210
0
220
0
230
1.0
 0
LINE
 8
TOOL_0
 5
20D
 10
7888.86
 20
1058.297
 30
0
 11
7933.36
 21
1058.297
 31
0
 0
ARC
 8
TOOL_0
 5
20E
 10
7933.36
 20
1257.297
 30
0
 40
199.0
 50
270.0
 51
359.99971208151
210
0
220
0
230
1.0
 0
LINE
 8
TOOL_0
 5
20F
 10
8132.36
 20
1257.296
 30
0
 11
8132.36
 21
1690.297
 31
0
 0
ARC
 8
TOOL_0
 5
210
 10
7933.36
 20
1690.297
 30
0
 40
199.0
 50
0
 51
90.0
210
0
220
0
230
1.0
 0
LINE
 8
TOOL_0
 5
211
 10
7933.36
 20
1889.297
 30
0
 11
7775.946
 21
1889.297
 31
0
 0
LINE
 8
TOOL_0
 5
212
 10
7775.946
 20
1889.297
 30
0
 11
7767.36
 21
1897.883
 31
0
 0
LINE
 8
TOOL_0
 5
213
 10
7767.36
 20
1897.883
 30
0
 11
7764.041
 21
1901.819
 31
0
 0
ENDSEC
 0
EOF

