0
SECTION
2
TABLES
0
TABLE
2
LAYER
70
0
0
LAYER
2
LAYER_NAME
70
0
62
1
6
CONTINUOUS
0
ENDTAB
0
ENDSEC
 0
SECTION
 2
ENTITIES
 0
LINE
 8
TOOL_0
 5
1
 10
772.802
 20
342.179
 30
0
 11
753.247
 21
342.179
 31
0
 0
LINE
 8
TOOL_0
 5
2
 10
753.247
 20
342.179
 30
0
 11
551.747
 21
342.179
 31
0
 0
LINE
 8
TOOL_0
 5
3
 10
551.747
 20
342.179
 30
0
 11
551.747
 21
413.679
 31
0
 0
LINE
 8
TOOL_0
 5
4
 10
551.747
 20
413.679
 30
0
 11
753.247
 21
413.679
 31
0
 0
LINE
 8
TOOL_0
 5
5
 10
753.247
 20
413.679
 30
0
 11
753.247
 21
342.179
 31
0
 0
LINE
 8
TOOL_0
 5
6
 10
753.247
 20
342.179
 30
0
 11
753.247
 21
336.37
 31
0
 0
LINE
 8
TOOL_0
 5
7
 10
753.247
 20
336.37
 30
0
 11
753.247
 21
0
 31
0
 0
LINE
 8
TOOL_0
 5
8
 10
753.247
 20
0
 30
0
 11
812.0
 21
368.251
 31
0
 0
LINE
 8
TOOL_0
 5
9
 10
812.0
 20
368.251
 30
0
 11
847.0
 21
368.251
 31
0
 0
LINE
 8
TOOL_0
 5
A
 10
847.0
 20
368.251
 30
0
 11
847.0
 21
525.751
 31
0
 0
ARC
 8
TOOL_0
 5
B
 10
807.0
 20
525.751
 30
0
 40
40.0
 50
0
 51
90.0
210
0
220
0
230
1.0
 0
LINE
 8
TOOL_0
 5
C
 10
807.0
 20
565.751
 30
0
 11
506.0
 21
565.751
 31
0
 0
ARC
 8
TOOL_0
 5
D
 10
506.0
 20
545.751
 30
0
 40
20.0
 50
90.0
 51
180.0
210
0
220
0
230
1.0
 0
LINE
 8
TOOL_0
 5
E
 10
486.0
 20
545.751
 30
0
 11
486.0
 21
470.751
 31
0
 0
ARC
 8
TOOL_0
 5
F
 10
466.0
 20
470.751
 30
0
 40
20.0
 50
270.0
 51
0
210
0
220
0
230
1.0
 0
LINE
 8
TOOL_0
 5
10
 10
466.0
 20
450.751
 30
0
 11
296.0
 21
450.751
 31
0
 0
ARC
 8
TOOL_0
 5
11
 10
296.0
 20
410.751
 30
0
 40
40.0
 50
90.0
 51
180.0
210
0
220
0
230
1.0
 0
LINE
 8
TOOL_0
 5
12
 10
256.0
 20
410.751
 30
0
 11
256.0
 21
210.751
 31
0
 0
ARC
 8
TOOL_0
 5
13
 10
296.0
 20
210.751
 30
0
 40
40.0
 50
180.0
 51
270.0
210
0
220
0
230
1.0
 0
LINE
 8
TOOL_0
 5
14
 10
296.0
 20
170.751
 30
0
 11
807.0
 21
170.751
 31
0
 0
ARC
 8
TOOL_0
 5
15
 10
807.0
 20
210.751
 30
0
 40
40.0
 50
270.0
 51
0
210
0
220
0
230
1.0
 0
LINE
 8
TOOL_0
 5
16
 10
847.0
 20
210.751
 30
0
 11
847.0
 21
368.251
 31
0
 0
LINE
 8
TOOL_0
 5
17
 10
847.0
 20
368.251
 30
0
 11
843.464
 21
371.787
 31
0
 0
LINE
 8
TOOL_0
 5
18
 10
843.464
 20
371.787
 30
0
 11
1521.0
 21
345.751
 31
0
 0
LINE
 8
TOOL_0
 5
19
 10
1521.0
 20
345.751
 30
0
 11
1556.0
 21
345.751
 31
0
 0
LINE
 8
TOOL_0
 5
1A
 10
1556.0
 20
345.751
 30
0
 11
1556.0
 21
480.751
 31
0
 0
ARC
 8
TOOL_0
 5
1B
 10
1516.0
 20
480.751
 30
0
 40
40.0
 50
0
 51
90.0
210
0
220
0
230
1.0
 0
LINE
 8
TOOL_0
 5
1C
 10
1516.0
 20
520.751
 30
0
 11
1271.0
 21
520.751
 31
0
 0
ARC
 8
TOOL_0
 5
1D
 10
1271.0
 20
500.751
 30
0
 40
20.0
 50
90.0
 51
180.0
210
0
220
0
230
1.0
 0
LINE
 8
TOOL_0
 5
1E
 10
1251.0
 20
500.751
 30
0
 11
1251.0
 21
470.751
 31
0
 0
ARC
 8
TOOL_0
 5
1F
 10
1231.0
 20
470.751
 30
0
 40
20.0
 50
270.0
 51
0
210
0
220
0
230
1.0
 0
LINE
 8
TOOL_0
 5
20
 10
1231.0
 20
450.751
 30
0
 11
1027.0
 21
450.751
 31
0
 0
ARC
 8
TOOL_0
 5
21
 10
1027.0
 20
410.751
 30
0
 40
40.0
 50
90.0
 51
180.0
210
0
220
0
230
1.0
 0
LINE
 8
TOOL_0
 5
22
 10
987.0
 20
410.751
 30
0
 11
987.0
 21
210.751
 31
0
 0
ARC
 8
TOOL_0
 5
23
 10
1027.0
 20
210.751
 30
0
 40
40.0
 50
180.0
 51
270.0
210
0
220
0
230
1.0
 0
LINE
 8
TOOL_0
 5
24
 10
1027.0
 20
170.751
 30
0
 11
1516.0
 21
170.751
 31
0
 0
ARC
 8
TOOL_0
 5
25
 10
1516.0
 20
210.751
 30
0
 40
40.0
 50
270.0
 51
0
210
0
220
0
230
1.0
 0
LINE
 8
TOOL_0
 5
26
 10
1556.0
 20
210.751
 30
0
 11
1556.0
 21
345.751
 31
0
 0
LINE
 8
TOOL_0
 5
27
 10
1556.0
 20
345.751
 30
0
 11
1552.464
 21
349.287
 31
0
 0
LINE
 8
TOOL_0
 5
28
 10
1552.464
 20
349.287
 30
0
 11
1956.0
 21
345.751
 31
0
 0
LINE
 8
TOOL_0
 5
29
 10
1956.0
 20
345.751
 30
0
 11
1991.0
 21
345.751
 31
0
 0
LINE
 8
TOOL_0
 5
2A
 10
1991.0
 20
345.751
 30
0
 11
1991.0
 21
480.751
 31
0
 0
ARC
 8
TOOL_0
 5
2B
 10
1951.0
 20
480.751
 30
0
 40
40.0
 50
0
 51
90.0
210
0
220
0
230
1.0
 0
LINE
 8
TOOL_0
 5
2C
 10
1951.0
 20
520.751
 30
0
 11
1736.0
 21
520.751
 31
0
 0
ARC
 8
TOOL_0
 5
2D
 10
1736.0
 20
480.751
 30
0
 40
40.0
 50
90.0
 51
180.0
210
0
220
0
230
1.0
 0
LINE
 8
TOOL_0
 5
2E
 10
1696.0
 20
480.751
 30
0
 11
1696.0
 21
210.751
 31
0
 0
ARC
 8
TOOL_0
 5
2F
 10
1736.0
 20
210.751
 30
0
 40
40.0
 50
180.0
 51
270.0
210
0
220
0
230
1.0
 0
LINE
 8
TOOL_0
 5
30
 10
1736.0
 20
170.751
 30
0
 11
1951.0
 21
170.751
 31
0
 0
ARC
 8
TOOL_0
 5
31
 10
1951.0
 20
210.751
 30
0
 40
40.0
 50
270.0
 51
0
210
0
220
0
230
1.0
 0
LINE
 8
TOOL_0
 5
32
 10
1991.0
 20
210.751
 30
0
 11
1991.0
 21
345.751
 31
0
 0
LINE
 8
TOOL_0
 5
33
 10
1991.0
 20
345.751
 30
0
 11
1987.464
 21
349.287
 31
0
 0
LINE
 8
TOOL_0
 5
34
 10
1987.464
 20
349.287
 30
0
 11
2656.0
 21
308.362
 31
0
 0
LINE
 8
TOOL_0
 5
35
 10
2656.0
 20
308.362
 30
0
 11
2691.0
 21
308.362
 31
0
 0
LINE
 8
TOOL_0
 5
36
 10
2691.0
 20
308.362
 30
0
 11
2691.0
 21
405.973
 31
0
 0
ARC
 8
TOOL_0
 5
37
 10
2651.0
 20
405.973
 30
0
 40
40.0
 50
0
 51
82.010075978474
210
0
220
0
230
1.0
 0
LINE
 8
TOOL_0
 5
38
 10
2656.56
 20
445.585
 30
0
 11
2273.78
 21
499.308
 31
0
 0
ARC
 8
TOOL_0
 5
39
 10
2271.0
 20
479.502
 30
0
 40
20.000150899431
 50
82.010075978473
 51
180.0
210
0
220
0
230
1.0
 0
LINE
 8
TOOL_0
 5
3A
 10
2251.0
 20
479.502
 30
0
 11
2251.0
 21
470.751
 31
0
 0
ARC
 8
TOOL_0
 5
3B
 10
2231.0
 20
470.751
 30
0
 40
20.0
 50
270.0
 51
0
210
0
220
0
230
1.0
 0
LINE
 8
TOOL_0
 5
3C
 10
2231.0
 20
450.751
 30
0
 11
2161.0
 21
450.751
 31
0
 0
ARC
 8
TOOL_0
 5
3D
 10
2161.0
 20
410.751
 30
0
 40
40.0
 50
90.0
 51
180.0
210
0
220
0
230
1.0
 0
LINE
 8
TOOL_0
 5
3E
 10
2121.0
 20
410.751
 30
0
 11
2121.0
 21
210.751
 31
0
 0
ARC
 8
TOOL_0
 5
3F
 10
2161.0
 20
210.751
 30
0
 40
40.0
 50
180.0
 51
270.0
210
0
220
0
230
1.0
 0
LINE
 8
TOOL_0
 5
40
 10
2161.0
 20
170.751
 30
0
 11
2651.0
 21
170.751
 31
0
 0
ARC
 8
TOOL_0
 5
41
 10
2651.0
 20
210.751
 30
0
 40
40.0
 50
270.0
 51
0
210
0
220
0
230
1.0
 0
LINE
 8
TOOL_0
 5
42
 10
2691.0
 20
210.751
 30
0
 11
2691.0
 21
308.362
 31
0
 0
LINE
 8
TOOL_0
 5
43
 10
2691.0
 20
308.362
 30
0
 11
2687.464
 21
311.898
 31
0
 0
LINE
 8
TOOL_0
 5
44
 10
2687.464
 20
311.898
 30
0
 11
3578.0
 21
300.751
 31
0
 0
LINE
 8
TOOL_0
 5
45
 10
3578.0
 20
300.751
 30
0
 11
3613.0
 21
300.751
 31
0
 0
LINE
 8
TOOL_0
 5
46
 10
3613.0
 20
300.751
 30
0
 11
3613.0
 21
450.751
 31
0
 0
ARC
 8
TOOL_0
 5
47
 10
3563.0
 20
450.751
 30
0
 40
50.0
 50
0
 51
90.0
210
0
220
0
230
1.0
 0
LINE
 8
TOOL_0
 5
48
 10
3563.0
 20
500.751
 30
0
 11
3293.0
 21
500.751
 31
0
 0
ARC
 8
TOOL_0
 5
49
 10
3293.0
 20
450.751
 30
0
 40
50.0
 50
90.0
 51
180.0
210
0
220
0
230
1.0
 0
LINE
 8
TOOL_0
 5
4A
 10
3243.0
 20
450.751
 30
0
 11
3243.0
 21
150.751
 31
0
 0
ARC
 8
TOOL_0
 5
4B
 10
3293.0
 20
150.751
 30
0
 40
50.0
 50
180.0
 51
270.0
210
0
220
0
230
1.0
 0
LINE
 8
TOOL_0
 5
4C
 10
3293.0
 20
100.751
 30
0
 11
3563.0
 21
100.751
 31
0
 0
ARC
 8
TOOL_0
 5
4D
 10
3563.0
 20
150.751
 30
0
 40
50.0
 50
270.0
 51
0
210
0
220
0
230
1.0
 0
LINE
 8
TOOL_0
 5
4E
 10
3613.0
 20
150.751
 30
0
 11
3613.0
 21
300.751
 31
0
 0
LINE
 8
TOOL_0
 5
4F
 10
3613.0
 20
300.751
 30
0
 11
3609.464
 21
304.287
 31
0
 0
LINE
 8
TOOL_0
 5
50
 10
3609.464
 20
304.287
 30
0
 11
4111.0
 21
383.251
 31
0
 0
LINE
 8
TOOL_0
 5
51
 10
4111.0
 20
383.251
 30
0
 11
4146.0
 21
383.251
 31
0
 0
LINE
 8
TOOL_0
 5
52
 10
4146.0
 20
383.251
 30
0
 11
4146.0
 21
570.751
 31
0
 0
ARC
 8
TOOL_0
 5
53
 10
4096.0
 20
570.751
 30
0
 40
50.0
 50
0
 51
90.0
210
0
220
0
230
1.0
 0
LINE
 8
TOOL_0
 5
54
 10
4096.0
 20
620.751
 30
0
 11
3846.0
 21
620.751
 31
0
 0
ARC
 8
TOOL_0
 5
55
 10
3846.0
 20
570.751
 30
0
 40
50.0
 50
90.0
 51
180.0
210
0
220
0
230
1.0
 0
LINE
 8
TOOL_0
 5
56
 10
3796.0
 20
570.751
 30
0
 11
3796.0
 21
195.751
 31
0
 0
ARC
 8
TOOL_0
 5
57
 10
3846.0
 20
195.751
 30
0
 40
50.0
 50
180.0
 51
270.0
210
0
220
0
230
1.0
 0
LINE
 8
TOOL_0
 5
58
 10
3846.0
 20
145.751
 30
0
 11
4096.0
 21
145.751
 31
0
 0
ARC
 8
TOOL_0
 5
59
 10
4096.0
 20
195.751
 30
0
 40
50.0
 50
270.0
 51
0
210
0
220
0
230
1.0
 0
LINE
 8
TOOL_0
 5
5A
 10
4146.0
 20
195.751
 30
0
 11
4146.0
 21
383.251
 31
0
 0
LINE
 8
TOOL_0
 5
5B
 10
4146.0
 20
383.251
 30
0
 11
4142.464
 21
386.787
 31
0
 0
LINE
 8
TOOL_0
 5
5C
 10
4142.464
 20
386.787
 30
0
 11
4811.0
 21
565.751
 31
0
 0
LINE
 8
TOOL_0
 5
5D
 10
4811.0
 20
565.751
 30
0
 11
4846.0
 21
565.751
 31
0
 0
ARC
 8
TOOL_0
 5
5E
 10
4771.0
 20
565.751
 30
0
 40
75.0
 50
0
 51
90.0
210
0
220
0
230
1.0
 0
LINE
 8
TOOL_0
 5
5F
 10
4771.0
 20
640.751
 30
0
 11
4471.0
 21
640.751
 31
0
 0
ARC
 8
TOOL_0
 5
60
 10
4471.0
 20
565.751
 30
0
 40
75.0
 50
90.0
 51
270.0
210
0
220
0
230
1.0
 0
LINE
 8
TOOL_0
 5
61
 10
4471.0
 20
490.751
 30
0
 11
4771.0
 21
490.751
 31
0
 0
ARC
 8
TOOL_0
 5
62
 10
4771.0
 20
565.751
 30
0
 40
75.0
 50
270.0
 51
0
210
0
220
0
230
1.0
 0
LINE
 8
TOOL_0
 5
63
 10
4846.0
 20
565.751
 30
0
 11
4842.464
 21
569.287
 31
0
 0
LINE
 8
TOOL_0
 5
64
 10
4842.464
 20
569.287
 30
0
 11
4756.0
 21
160.751
 31
0
 0
LINE
 8
TOOL_0
 5
65
 10
4756.0
 20
160.751
 30
0
 11
4791.0
 21
160.751
 31
0
 0
ARC
 8
TOOL_0
 5
66
 10
4741.0
 20
160.751
 30
0
 40
50.0
 50
0
 51
90.0
210
0
220
0
230
1.0
 0
LINE
 8
TOOL_0
 5
67
 10
4741.0
 20
210.751
 30
0
 11
4641.0
 21
210.751
 31
0
 0
ARC
 8
TOOL_0
 5
68
 10
4641.0
 20
160.751
 30
0
 40
50.0
 50
90.0
 51
270.0
210
0
220
0
230
1.0
 0
LINE
 8
TOOL_0
 5
69
 10
4641.0
 20
110.751
 30
0
 11
4741.0
 21
110.751
 31
0
 0
ARC
 8
TOOL_0
 5
6A
 10
4741.0
 20
160.751
 30
0
 40
50.0
 50
270.0
 51
0
210
0
220
0
230
1.0
 0
LINE
 8
TOOL_0
 5
6B
 10
4791.0
 20
160.751
 30
0
 11
4787.464
 21
164.287
 31
0
 0
LINE
 8
TOOL_0
 5
6C
 10
4787.464
 20
164.287
 30
0
 11
5981.0
 21
283.251
 31
0
 0
LINE
 8
TOOL_0
 5
6D
 10
5981.0
 20
283.251
 30
0
 11
6016.0
 21
283.251
 31
0
 0
LINE
 8
TOOL_0
 5
6E
 10
6016.0
 20
283.251
 30
0
 11
6016.0
 21
385.751
 31
0
 0
ARC
 8
TOOL_0
 5
6F
 10
5946.0
 20
385.751
 30
0
 40
70.0
 50
0
 51
90.0
210
0
220
0
230
1.0
 0
LINE
 8
TOOL_0
 5
70
 10
5946.0
 20
455.751
 30
0
 11
5641.0
 21
455.751
 31
0
 0
ARC
 8
TOOL_0
 5
71
 10
5641.0
 20
385.751
 30
0
 40
70.0
 50
90.0
 51
180.0
210
0
220
0
230
1.0
 0
LINE
 8
TOOL_0
 5
72
 10
5571.0
 20
385.751
 30
0
 11
5571.0
 21
180.751
 31
0
 0
ARC
 8
TOOL_0
 5
73
 10
5641.0
 20
180.751
 30
0
 40
70.0
 50
180.0
 51
270.0
210
0
220
0
230
1.0
 0
LINE
 8
TOOL_0
 5
74
 10
5641.0
 20
110.751
 30
0
 11
5946.0
 21
110.751
 31
0
 0
ARC
 8
TOOL_0
 5
75
 10
5946.0
 20
180.751
 30
0
 40
70.0
 50
270.0
 51
0
210
0
220
0
230
1.0
 0
LINE
 8
TOOL_0
 5
76
 10
6016.0
 20
180.751
 30
0
 11
6016.0
 21
283.251
 31
0
 0
LINE
 8
TOOL_0
 5
77
 10
6016.0
 20
283.251
 30
0
 11
6012.464
 21
286.787
 31
0
 0
LINE
 8
TOOL_0
 5
78
 10
6012.464
 20
286.787
 30
0
 11
7141.0
 21
283.251
 31
0
 0
LINE
 8
TOOL_0
 5
79
 10
7141.0
 20
283.251
 30
0
 11
7176.0
 21
283.251
 31
0
 0
LINE
 8
TOOL_0
 5
7A
 10
7176.0
 20
283.251
 30
0
 11
7176.0
 21
405.751
 31
0
 0
ARC
 8
TOOL_0
 5
7B
 10
7126.0
 20
405.751
 30
0
 40
50.0
 50
0
 51
90.0
210
0
220
0
230
1.0
 0
LINE
 8
TOOL_0
 5
7C
 10
7126.0
 20
455.751
 30
0
 11
6891.0
 21
455.751
 31
0
 0
ARC
 8
TOOL_0
 5
7D
 10
6891.0
 20
405.751
 30
0
 40
50.0
 50
90.0
 51
180.0
210
0
220
0
230
1.0
 0
LINE
 8
TOOL_0
 5
7E
 10
6841.0
 20
405.751
 30
0
 11
6841.0
 21
160.751
 31
0
 0
ARC
 8
TOOL_0
 5
7F
 10
6891.0
 20
160.751
 30
0
 40
50.0
 50
180.0
 51
270.0
210
0
220
0
230
1.0
 0
LINE
 8
TOOL_0
 5
80
 10
6891.0
 20
110.751
 30
0
 11
7126.0
 21
110.751
 31
0
 0
ARC
 8
TOOL_0
 5
81
 10
7126.0
 20
160.751
 30
0
 40
50.0
 50
270.0
 51
0
210
0
220
0
230
1.0
 0
LINE
 8
TOOL_0
 5
82
 10
7176.0
 20
160.751
 30
0
 11
7176.0
 21
283.251
 31
0
 0
LINE
 8
TOOL_0
 5
83
 10
7176.0
 20
283.251
 30
0
 11
7172.464
 21
286.787
 31
0
 0
LINE
 8
TOOL_0
 5
84
 10
7172.464
 20
286.787
 30
0
 11
7417.158
 21
30.001
 31
0
 0
LINE
 8
TOOL_0
 5
85
 10
7417.158
 20
30.001
 30
0
 11
7391.311
 21
30.001
 31
0
 0
LINE
 8
TOOL_0
 5
86
 10
7391.311
 20
30.001
 30
0
 11
7201.0
 21
30.001
 31
0
 0
ARC
 8
TOOL_0
 5
87
 10
7201.0
 20
25.751
 30
0
 40
4.25
 50
90.0
 51
180.0
210
0
220
0
230
1.0
 0
LINE
 8
TOOL_0
 5
88
 10
7196.75
 20
25.751
 30
0
 11
7196.75
 21
20.001
 31
0
 0
LINE
 8
TOOL_0
 5
89
 10
7196.75
 20
20.001
 30
0
 11
6840.25
 21
20.001
 31
0
 0
LINE
 8
TOOL_0
 5
8A
 10
6840.25
 20
20.001
 30
0
 11
6840.25
 21
22.751
 31
0
 0
ARC
 8
TOOL_0
 5
8B
 10
6833.0
 20
22.751
 30
0
 40
7.25
 50
0
 51
90.0
210
0
220
0
230
1.0
 0
LINE
 8
TOOL_0
 5
8C
 10
6833.0
 20
30.001
 30
0
 11
6629.0
 21
30.001
 31
0
 0
ARC
 8
TOOL_0
 5
8D
 10
6629.0
 20
22.751
 30
0
 40
7.25
 50
90.0
 51
180.0
210
0
220
0
230
1.0
 0
LINE
 8
TOOL_0
 5
8E
 10
6621.75
 20
22.751
 30
0
 11
6621.75
 21
20.001
 31
0
 0
LINE
 8
TOOL_0
 5
8F
 10
6621.75
 20
20.001
 30
0
 11
5925.25
 21
20.001
 31
0
 0
LINE
 8
TOOL_0
 5
90
 10
5925.25
 20
20.001
 30
0
 11
5925.25
 21
22.751
 31
0
 0
ARC
 8
TOOL_0
 5
91
 10
5918.0
 20
22.751
 30
0
 40
7.25
 50
0
 51
90.0
210
0
220
0
230
1.0
 0
LINE
 8
TOOL_0
 5
92
 10
5918.0
 20
30.001
 30
0
 11
5714.0
 21
30.001
 31
0
 0
ARC
 8
TOOL_0
 5
93
 10
5714.0
 20
22.751
 30
0
 40
7.25
 50
90.0
 51
180.0
210
0
220
0
230
1.0
 0
LINE
 8
TOOL_0
 5
94
 10
5706.75
 20
22.751
 30
0
 11
5706.75
 21
20.001
 31
0
 0
LINE
 8
TOOL_0
 5
95
 10
5706.75
 20
20.001
 30
0
 11
5010.25
 21
20.001
 31
0
 0
LINE
 8
TOOL_0
 5
96
 10
5010.25
 20
20.001
 30
0
 11
5010.25
 21
22.751
 31
0
 0
ARC
 8
TOOL_0
 5
97
 10
5003.0
 20
22.751
 30
0
 40
7.25
 50
0
 51
90.0
210
0
220
0
230
1.0
 0
LINE
 8
TOOL_0
 5
98
 10
5003.0
 20
30.001
 30
0
 11
4799.0
 21
30.001
 31
0
 0
ARC
 8
TOOL_0
 5
99
 10
4799.0
 20
22.751
 30
0
 40
7.25
 50
90.0
 51
180.0
210
0
220
0
230
1.0
 0
LINE
 8
TOOL_0
 5
9A
 10
4791.75
 20
22.751
 30
0
 11
4791.75
 21
20.001
 31
0
 0
LINE
 8
TOOL_0
 5
9B
 10
4791.75
 20
20.001
 30
0
 11
4095.25
 21
20.001
 31
0
 0
LINE
 8
TOOL_0
 5
9C
 10
4095.25
 20
20.001
 30
0
 11
4095.25
 21
22.751
 31
0
 0
ARC
 8
TOOL_0
 5
9D
 10
4088.0
 20
22.751
 30
0
 40
7.25
 50
0
 51
90.0
210
0
220
0
230
1.0
 0
LINE
 8
TOOL_0
 5
9E
 10
4088.0
 20
30.001
 30
0
 11
3884.0
 21
30.001
 31
0
 0
ARC
 8
TOOL_0
 5
9F
 10
3884.0
 20
22.751
 30
0
 40
7.25
 50
90.0
 51
180.0
210
0
220
0
230
1.0
 0
LINE
 8
TOOL_0
 5
A0
 10
3876.75
 20
22.751
 30
0
 11
3876.75
 21
20.001
 31
0
 0
LINE
 8
TOOL_0
 5
A1
 10
3876.75
 20
20.001
 30
0
 11
3145.25
 21
20.001
 31
0
 0
LINE
 8
TOOL_0
 5
A2
 10
3145.25
 20
20.001
 30
0
 11
3145.25
 21
22.751
 31
0
 0
ARC
 8
TOOL_0
 5
A3
 10
3138.0
 20
22.751
 30
0
 40
7.25
 50
0
 51
90.0
210
0
220
0
230
1.0
 0
LINE
 8
TOOL_0
 5
A4
 10
3138.0
 20
30.001
 30
0
 11
2960.689
 21
30.001
 31
0
 0
LINE
 8
TOOL_0
 5
A5
 10
2960.689
 20
30.001
 30
0
 11
2940.25
 21
50.44
 31
0
 0
LINE
 8
TOOL_0
 5
A6
 10
2940.25
 20
50.44
 30
0
 11
2940.25
 21
381.52
 31
0
 0
ARC
 8
TOOL_0
 5
A7
 10
2941.0
 20
395.75
 30
0
 40
14.249750875015
 50
266.982985896568
 51
90.0
210
0
220
0
230
1.0
 0
LINE
 8
TOOL_0
 5
A8
 10
2941.0
 20
410.0
 30
0
 11
2881.0
 21
410.0
 31
0
 0
ARC
 8
TOOL_0
 5
A9
 10
2881.0
 20
395.75
 30
0
 40
14.25
 50
90.0
 51
273.017014103432
210
0
220
0
230
1.0
 0
LINE
 8
TOOL_0
 5
AA
 10
2881.75
 20
381.52
 30
0
 11
2881.75
 21
50.44
 31
0
 0
LINE
 8
TOOL_0
 5
AB
 10
2881.75
 20
50.44
 30
0
 11
2851.311
 21
20.001
 31
0
 0
LINE
 8
TOOL_0
 5
AC
 10
2851.311
 20
20.001
 30
0
 11
137.569
 21
20.001
 31
0
 0
ARC
 8
TOOL_0
 5
AD
 10
137.569
 20
60.751
 30
0
 40
40.75
 50
224.999005782167
 51
270.0
210
0
220
0
230
1.0
 0
LINE
 8
TOOL_0
 5
AE
 10
108.754
 20
31.937
 30
0
 11
31.716
 21
108.975
 31
0
 0
ARC
 8
TOOL_0
 5
AF
 10
60.06
 20
137.284
 30
0
 40
40.059728119397
 50
180.035756223212
 51
224.964602897855
210
0
220
0
230
1.0
 0
LINE
 8
TOOL_0
 5
B0
 10
20.0
 20
137.259
 30
0
 11
20.0
 21
746.492
 31
0
 0
LINE
 8
TOOL_0
 5
B1
 10
20.0
 20
746.492
 30
0
 11
7402.0
 21
746.492
 31
0
 0
LINE
 8
TOOL_0
 5
B2
 10
7402.0
 20
746.492
 30
0
 11
7402.0
 21
40.69
 31
0
 0
LINE
 8
TOOL_0
 5
B3
 10
7402.0
 20
40.69
 30
0
 11
7391.311
 21
30.001
 31
0
 0
LINE
 8
TOOL_0
 5
B4
 10
7391.311
 20
30.001
 30
0
 11
7385.237
 21
24.039
 31
0
 0
LINE
 8
TOOL_0
 5
B5
 10
7385.237
 20
24.039
 30
0
 11
7385.237
 21
0
 31
0
 0
LINE
 8
TOOL_0
 5
B6
 10
7385.237
 20
0
 30
0
 11
8.776
 21
1515.641
 31
0
 0
LINE
 8
TOOL_0
 5
B7
 10
8.776
 20
1515.641
 30
0
 11
17.191
 21
1529.655
 31
0
 0
LINE
 8
TOOL_0
 5
B8
 10
17.191
 20
1529.655
 30
0
 11
19.002
 21
1532.049
 31
0
 0
ARC
 8
TOOL_0
 5
B9
 10
23.002
 20
1532.111
 30
0
 40
4.000480471143
 50
180.0
 51
180.888013471928
210
0
220
0
230
1.0
 0
LINE
 8
TOOL_0
 5
BA
 10
19.002
 20
1532.111
 30
0
 11
19.002
 21
1631.688
 31
0
 0
ARC
 8
TOOL_0
 5
BB
 10
23.152
 20
1631.688
 30
0
 40
4.15
 50
135.0
 51
180.0
210
0
220
0
230
1.0
 0
ARC
 8
TOOL_0
 5
BC
 10
28.541
 20
1627.492
 30
0
 40
10.959435615031
 50
126.899174996138
 51
139.414582887732
210
0
220
0
230
1.0
 0
ARC
 8
TOOL_0
 5
BD
 10
24.183
 20
1632.93
 30
0
 40
3.999944999622
 50
90.0
 51
123.745686764727
210
0
220
0
230
1.0
 0
LINE
 8
TOOL_0
 5
BE
 10
24.183
 20
1636.93
 30
0
 11
598.028
 21
1636.93
 31
0
 0
ARC
 8
TOOL_0
 5
BF
 10
597.945
 20
1654.634
 30
0
 40
17.704194559482
 50
270.268612452489
 51
283.1940077448
210
0
220
0
230
1.0
 0
LINE
 8
TOOL_0
 5
C0
 10
601.986
 20
1637.397
 30
0
 11
643.412
 21
1647.315
 31
0
 0
ARC
 8
TOOL_0
 5
C1
 10
640.134
 20
1660.945
 30
0
 40
14.01863702362
 50
283.522758240135
 51
359.938690514718
210
0
220
0
230
1.0
 0
LINE
 8
TOOL_0
 5
C2
 10
654.152
 20
1660.93
 30
0
 11
654.152
 21
1685.93
 31
0
 0
ARC
 8
TOOL_0
 5
C3
 10
658.152
 20
1685.93
 30
0
 40
4.0
 50
90.0
 51
180.0
210
0
220
0
230
1.0
 0
LINE
 8
TOOL_0
 5
C4
 10
658.152
 20
1689.93
 30
0
 11
726.121
 21
1689.93
 31
0
 0
ARC
 8
TOOL_0
 5
C5
 10
726.121
 20
1685.93
 30
0
 40
4.0
 50
45.0
 51
90.0
210
0
220
0
230
1.0
 0
LINE
 8
TOOL_0
 5
C6
 10
728.949
 20
1688.758
 30
0
 11
750.13
 21
1667.577
 31
0
 0
ARC
 8
TOOL_0
 5
C7
 10
747.302
 20
1664.749
 30
0
 40
3.999395954391
 50
0
 51
45.0
210
0
220
0
230
1.0
 0
LINE
 8
TOOL_0
 5
C8
 10
751.302
 20
1664.749
 30
0
 11
751.302
 21
1535.867
 31
0
 0
ARC
 8
TOOL_0
 5
C9
 10
747.302
 20
1535.867
 30
0
 40
4.0
 50
315.0
 51
0
210
0
220
0
230
1.0
 0
LINE
 8
TOOL_0
 5
CA
 10
750.13
 20
1533.039
 30
0
 11
730.192
 21
1513.101
 31
0
 0
ARC
 8
TOOL_0
 5
CB
 10
727.364
 20
1515.929
 30
0
 40
3.999395954391
 50
270.0
 51
315.0
210
0
220
0
230
1.0
 0
LINE
 8
TOOL_0
 5
CC
 10
727.364
 20
1511.929
 30
0
 11
39.182
 21
1511.929
 31
0
 0
ARC
 8
TOOL_0
 5
CD
 10
39.182
 20
1515.929
 30
0
 40
4.0
 50
224.999999999999
 51
270.0
210
0
220
0
230
1.0
 0
LINE
 8
TOOL_0
 5
CE
 10
36.354
 20
1513.101
 30
0
 11
20.174
 21
1529.281
 31
0
 0
ARC
 8
TOOL_0
 5
CF
 10
23.002
 20
1532.109
 30
0
 40
3.999395954391
 50
224.939219492906
 51
225.0
210
0
220
0
230
1.0
 0
LINE
 8
TOOL_0
 5
D0
 10
20.171
 20
1529.284
 30
0
 11
17.192
 21
1529.654
 31
0
 0
LINE
 8
TOOL_0
 5
D1
 10
17.192
 20
1529.654
 30
0
 11
12.165
 21
1530.012
 31
0
 0
LINE
 8
TOOL_0
 5
D2
 10
12.165
 20
1530.012
 30
0
 11
0.002
 21
1974.085
 31
0
 0
LINE
 8
TOOL_0
 5
D3
 10
0.002
 20
1974.085
 30
0
 11
1.002
 21
1974.085
 31
0
 0
LINE
 8
TOOL_0
 5
D4
 10
1.002
 20
1974.085
 30
0
 11
1.002
 21
-0.001
 31
0
 0
LINE
 8
TOOL_0
 5
D5
 10
1.002
 20
-0.001
 30
0
 11
0.002
 21
1974.085
 31
0
 0
LINE
 8
TOOL_0
 5
D6
 10
0.002
 20
1974.085
 30
0
 11
1.002
 21
1974.085
 31
0
 0
LINE
 8
TOOL_0
 5
D7
 10
1.002
 20
1974.085
 30
0
 11
840.126
 21
1974.085
 31
0
 0
LINE
 8
TOOL_0
 5
D8
 10
840.126
 20
1974.085
 30
0
 11
840.126
 21
1525.579
 31
0
 0
LINE
 8
TOOL_0
 5
D9
 10
840.126
 20
1525.579
 30
0
 11
7499.697
 21
1525.579
 31
0
 0
LINE
 8
TOOL_0
 5
DA
 10
7499.697
 20
1525.579
 30
0
 11
7499.697
 21
0.999
 31
0
 0
LINE
 8
TOOL_0
 5
DB
 10
7499.697
 20
0.999
 30
0
 11
7499.697
 21
-0.001
 31
0
 0
ENDSEC
 0
EOF

