0
SECTION
2
TABLES
0
TABLE
2
LAYER
70
0
0
LAYER
2
LAYER_NAME
70
0
62
1
6
CONTINUOUS
0
ENDTAB
0
ENDSEC
 0
SECTION
 2
ENTITIES
 0
LINE
 8
TOOL_0
 5
1
 10
374.053
 20
692.732
 30
0
 11
374.053
 21
667.499
 31
0
 0
LINE
 8
TOOL_0
 5
2
 10
374.053
 20
667.499
 30
0
 11
366.058
 21
667.458
 31
0
 0
LINE
 8
TOOL_0
 5
3
 10
366.058
 20
667.458
 30
0
 11
15.058
 21
667.458
 31
0
 0
LINE
 8
TOOL_0
 5
4
 10
15.058
 20
667.458
 30
0
 11
15.058
 21
738.458
 31
0
 0
LINE
 8
TOOL_0
 5
5
 10
15.058
 20
738.458
 30
0
 11
366.058
 21
738.458
 31
0
 0
LINE
 8
TOOL_0
 5
6
 10
366.058
 20
738.458
 30
0
 11
366.058
 21
667.458
 31
0
 0
LINE
 8
TOOL_0
 5
7
 10
366.058
 20
667.458
 30
0
 11
366.058
 21
662.512
 31
0
 0
LINE
 8
TOOL_0
 5
8
 10
366.058
 20
662.512
 30
0
 11
374.328
 21
778.865
 31
0
 0
LINE
 8
TOOL_0
 5
9
 10
374.328
 20
778.865
 30
0
 11
374.328
 21
753.632
 31
0
 0
LINE
 8
TOOL_0
 5
A
 10
374.328
 20
753.632
 30
0
 11
366.333
 21
753.591
 31
0
 0
LINE
 8
TOOL_0
 5
B
 10
366.333
 20
753.591
 30
0
 11
15.333
 21
753.591
 31
0
 0
LINE
 8
TOOL_0
 5
C
 10
15.333
 20
753.591
 30
0
 11
15.333
 21
824.591
 31
0
 0
LINE
 8
TOOL_0
 5
D
 10
15.333
 20
824.591
 30
0
 11
366.333
 21
824.591
 31
0
 0
LINE
 8
TOOL_0
 5
E
 10
366.333
 20
824.591
 30
0
 11
366.333
 21
753.591
 31
0
 0
LINE
 8
TOOL_0
 5
F
 10
366.333
 20
753.591
 30
0
 11
366.333
 21
748.645
 31
0
 0
LINE
 8
TOOL_0
 5
10
 10
366.333
 20
748.645
 30
0
 11
374.19
 21
864.998
 31
0
 0
LINE
 8
TOOL_0
 5
11
 10
374.19
 20
864.998
 30
0
 11
374.19
 21
839.765
 31
0
 0
LINE
 8
TOOL_0
 5
12
 10
374.19
 20
839.765
 30
0
 11
366.195
 21
839.724
 31
0
 0
LINE
 8
TOOL_0
 5
13
 10
366.195
 20
839.724
 30
0
 11
15.195
 21
839.724
 31
0
 0
LINE
 8
TOOL_0
 5
14
 10
15.195
 20
839.724
 30
0
 11
15.195
 21
910.724
 31
0
 0
LINE
 8
TOOL_0
 5
15
 10
15.195
 20
910.724
 30
0
 11
366.195
 21
910.724
 31
0
 0
LINE
 8
TOOL_0
 5
16
 10
366.195
 20
910.724
 30
0
 11
366.195
 21
839.724
 31
0
 0
LINE
 8
TOOL_0
 5
17
 10
366.195
 20
839.724
 30
0
 11
366.195
 21
834.778
 31
0
 0
LINE
 8
TOOL_0
 5
18
 10
366.195
 20
834.778
 30
0
 11
740.11
 21
692.732
 31
0
 0
LINE
 8
TOOL_0
 5
19
 10
740.11
 20
692.732
 30
0
 11
740.11
 21
667.499
 31
0
 0
LINE
 8
TOOL_0
 5
1A
 10
740.11
 20
667.499
 30
0
 11
732.115
 21
667.458
 31
0
 0
LINE
 8
TOOL_0
 5
1B
 10
732.115
 20
667.458
 30
0
 11
381.115
 21
667.458
 31
0
 0
LINE
 8
TOOL_0
 5
1C
 10
381.115
 20
667.458
 30
0
 11
381.115
 21
738.458
 31
0
 0
LINE
 8
TOOL_0
 5
1D
 10
381.115
 20
738.458
 30
0
 11
732.115
 21
738.458
 31
0
 0
LINE
 8
TOOL_0
 5
1E
 10
732.115
 20
738.458
 30
0
 11
732.115
 21
667.458
 31
0
 0
LINE
 8
TOOL_0
 5
1F
 10
732.115
 20
667.458
 30
0
 11
732.115
 21
662.512
 31
0
 0
LINE
 8
TOOL_0
 5
20
 10
732.115
 20
662.512
 30
0
 11
758.456
 21
438.995
 31
0
 0
LINE
 8
TOOL_0
 5
21
 10
758.456
 20
438.995
 30
0
 11
758.456
 21
999.0
 31
0
 0
LINE
 8
TOOL_0
 5
22
 10
758.456
 20
999.0
 30
0
 11
758.456
 21
1000.0
 31
0
 0
ENDSEC
 0
EOF

