0
SECTION
2
TABLES
0
TABLE
2
LAYER
70
0
0
LAYER
2
LAYER_NAME
70
0
62
1
6
CONTINUOUS
0
ENDTAB
0
ENDSEC
 0
SECTION
 2
ENTITIES
 0
LINE
 8
TOOL_0
 5
1
 10
591.302
 20
82.501
 30
0
 11
561.5
 21
82.501
 31
0
 0
LINE
 8
TOOL_0
 5
2
 10
561.5
 20
82.501
 30
0
 11
233.327
 21
82.501
 31
0
 0
ARC
 8
TOOL_0
 5
3
 10
233.327
 20
93.251
 30
0
 40
10.75
 50
244.15718636942
 51
270.0
210
0
220
0
230
1.0
 0
ARC
 8
TOOL_0
 5
4
 10
220.25
 20
66.251
 30
0
 40
19.250052103826
 50
64.157747035203
 51
160.427061126801
210
0
220
0
230
1.0
 0
ARC
 8
TOOL_0
 5
5
 10
126.028
 20
99.751
 30
0
 40
80.749809021446
 50
269.999290454743
 51
340.427602141407
210
0
220
0
230
1.0
 0
ARC
 8
TOOL_0
 5
6
 10
126.027
 20
220.598
 30
0
 40
201.597
 50
239.999859408469
 51
270.0
210
0
220
0
230
1.0
 0
LINE
 8
TOOL_0
 5
7
 10
25.228
 20
46.01
 30
0
 11
21.499
 21
48.163
 31
0
 0
ARC
 8
TOOL_0
 5
8
 10
23.999
 20
52.493
 30
0
 40
4.99988999879
 50
180.0
 51
239.999272219172
210
0
220
0
230
1.0
 0
LINE
 8
TOOL_0
 5
9
 10
18.999
 20
52.493
 30
0
 11
18.999
 21
90.501
 31
0
 0
ARC
 8
TOOL_0
 5
A
 10
23.999
 20
90.501
 30
0
 40
5.0
 50
90.0
 51
180.0
210
0
220
0
230
1.0
 0
LINE
 8
TOOL_0
 5
B
 10
23.999
 20
95.501
 30
0
 11
114.107
 21
95.501
 31
0
 0
ARC
 8
TOOL_0
 5
C
 10
114.107
 20
104.751
 30
0
 40
9.25
 50
270.0
 51
307.497971693972
210
0
220
0
230
1.0
 0
ARC
 8
TOOL_0
 5
D
 10
103.607
 20
116.913
 30
0
 40
25.308065157179
 50
309.59715626195
 51
317.93723119454
210
0
220
0
230
1.0
 0
ARC
 8
TOOL_0
 5
E
 10
105.249
 20
117.105
 30
0
 40
24.249519954012
 50
315.0
 51
0
210
0
220
0
230
1.0
 0
ARC
 8
TOOL_0
 5
F
 10
141.267
 20
117.763
 30
0
 40
11.786381463367
 50
160.713394954987
 51
183.200323521928
210
0
220
0
230
1.0
 0
LINE
 8
TOOL_0
 5
10
 10
130.142
 20
121.656
 30
0
 11
150.96
 21
179.115
 31
0
 0
ARC
 8
TOOL_0
 5
11
 10
165.783
 20
173.728
 30
0
 40
15.77152808069
 50
90.054491277807
 51
160.027756649258
210
0
220
0
230
1.0
 0
LINE
 8
TOOL_0
 5
12
 10
165.768
 20
189.5
 30
0
 11
180.958
 21
189.5
 31
0
 0
ARC
 8
TOOL_0
 5
13
 10
180.958
 20
173.75
 30
0
 40
15.75
 50
10.806249424857
 51
90.0
210
0
220
0
230
1.0
 0
ARC
 8
TOOL_0
 5
14
 10
220.249
 20
181.25
 30
0
 40
24.250105339977
 50
190.807176036358
 51
233.130102354156
210
0
220
0
230
1.0
 0
ARC
 8
TOOL_0
 5
15
 10
211.249
 20
169.25
 30
0
 40
9.25
 50
233.130102354156
 51
270.0
210
0
220
0
230
1.0
 0
LINE
 8
TOOL_0
 5
16
 10
211.249
 20
160.0
 30
0
 11
561.499
 21
160.0
 31
0
 0
ARC
 8
TOOL_0
 5
17
 10
561.499
 20
155.0
 30
0
 40
5.0
 50
0
 51
90.0
210
0
220
0
230
1.0
 0
LINE
 8
TOOL_0
 5
18
 10
566.499
 20
155.0
 30
0
 11
566.499
 21
87.5
 31
0
 0
ARC
 8
TOOL_0
 5
19
 10
561.499
 20
87.5
 30
0
 40
5.0
 50
270.0
 51
0
210
0
220
0
230
1.0
 0
LINE
 8
TOOL_0
 5
1A
 10
561.499
 20
82.5
 30
0
 11
559.483
 21
77.943
 31
0
 0
LINE
 8
TOOL_0
 5
1B
 10
559.483
 20
77.943
 30
0
 11
-0.001
 21
220.421
 31
0
 0
LINE
 8
TOOL_0
 5
1C
 10
-0.001
 20
220.421
 30
0
 11
0.999
 21
220.421
 31
0
 0
LINE
 8
TOOL_0
 5
1D
 10
0.999
 20
220.421
 30
0
 11
-0.001
 21
220.421
 31
0
 0
LINE
 8
TOOL_0
 5
1E
 10
-0.001
 20
220.421
 30
0
 11
0.999
 21
220.421
 31
0
 0
LINE
 8
TOOL_0
 5
1F
 10
0.999
 20
220.421
 30
0
 11
897.999
 21
220.421
 31
0
 0
LINE
 8
TOOL_0
 5
20
 10
897.999
 20
220.421
 30
0
 11
898.999
 21
220.421
 31
0
 0
ENDSEC
 0
EOF

