0
SECTION
2
TABLES
0
TABLE
2
LAYER
70
0
0
LAYER
2
LAYER_NAME
70
0
62
1
6
CONTINUOUS
0
ENDTAB
0
ENDSEC
 0
SECTION
 2
ENTITIES
 0
LINE
 8
TOOL_0
 5
1
 10
1706.936
 20
258.031
 30
0
 11
1736.936
 21
258.031
 31
0
 0
LINE
 8
TOOL_0
 5
2
 10
1736.936
 20
258.031
 30
0
 11
1736.936
 21
330.531
 31
0
 0
ARC
 8
TOOL_0
 5
3
 10
1726.936
 20
330.531
 30
0
 40
10.0
 50
0
 51
90.0
210
0
220
0
230
1.0
 0
LINE
 8
TOOL_0
 5
4
 10
1726.936
 20
340.531
 30
0
 11
1696.936
 21
340.531
 31
0
 0
ARC
 8
TOOL_0
 5
5
 10
1696.936
 20
330.531
 30
0
 40
10.0
 50
90.0
 51
180.0
210
0
220
0
230
1.0
 0
LINE
 8
TOOL_0
 5
6
 10
1686.936
 20
330.531
 30
0
 11
1686.936
 21
185.531
 31
0
 0
ARC
 8
TOOL_0
 5
7
 10
1696.936
 20
185.531
 30
0
 40
10.0
 50
180.0
 51
270.0
210
0
220
0
230
1.0
 0
LINE
 8
TOOL_0
 5
8
 10
1696.936
 20
175.531
 30
0
 11
1726.936
 21
175.531
 31
0
 0
ARC
 8
TOOL_0
 5
9
 10
1726.936
 20
185.531
 30
0
 40
10.0
 50
270.0
 51
0
210
0
220
0
230
1.0
 0
LINE
 8
TOOL_0
 5
A
 10
1736.936
 20
185.531
 30
0
 11
1736.936
 21
258.031
 31
0
 0
LINE
 8
TOOL_0
 5
B
 10
1736.936
 20
258.031
 30
0
 11
1733.4
 21
261.567
 31
0
 0
LINE
 8
TOOL_0
 5
C
 10
1733.4
 20
261.567
 30
0
 11
1612.936
 21
466.531
 31
0
 0
LINE
 8
TOOL_0
 5
D
 10
1612.936
 20
466.531
 30
0
 11
1642.936
 21
466.531
 31
0
 0
LINE
 8
TOOL_0
 5
E
 10
1642.936
 20
466.531
 30
0
 11
1642.936
 21
481.531
 31
0
 0
ARC
 8
TOOL_0
 5
F
 10
1632.936
 20
481.531
 30
0
 40
10.0
 50
0
 51
90.0
210
0
220
0
230
1.0
 0
LINE
 8
TOOL_0
 5
10
 10
1632.936
 20
491.531
 30
0
 11
1502.936
 21
491.531
 31
0
 0
ARC
 8
TOOL_0
 5
11
 10
1502.936
 20
481.531
 30
0
 40
10.0
 50
90.0
 51
180.0
210
0
220
0
230
1.0
 0
LINE
 8
TOOL_0
 5
12
 10
1492.936
 20
481.531
 30
0
 11
1492.936
 21
451.531
 31
0
 0
ARC
 8
TOOL_0
 5
13
 10
1502.936
 20
451.531
 30
0
 40
10.0
 50
180.0
 51
270.0
210
0
220
0
230
1.0
 0
LINE
 8
TOOL_0
 5
14
 10
1502.936
 20
441.531
 30
0
 11
1632.936
 21
441.531
 31
0
 0
ARC
 8
TOOL_0
 5
15
 10
1632.936
 20
451.531
 30
0
 40
10.0
 50
270.0
 51
0
210
0
220
0
230
1.0
 0
LINE
 8
TOOL_0
 5
16
 10
1642.936
 20
451.531
 30
0
 11
1642.936
 21
466.531
 31
0
 0
LINE
 8
TOOL_0
 5
17
 10
1642.936
 20
466.531
 30
0
 11
1639.4
 21
470.067
 31
0
 0
LINE
 8
TOOL_0
 5
18
 10
1639.4
 20
470.067
 30
0
 11
1602.936
 21
403.531
 31
0
 0
LINE
 8
TOOL_0
 5
19
 10
1602.936
 20
403.531
 30
0
 11
1632.936
 21
403.531
 31
0
 0
LINE
 8
TOOL_0
 5
1A
 10
1632.936
 20
403.531
 30
0
 11
1632.936
 21
418.531
 31
0
 0
ARC
 8
TOOL_0
 5
1B
 10
1622.936
 20
418.531
 30
0
 40
10.0
 50
0
 51
90.0
210
0
220
0
230
1.0
 0
LINE
 8
TOOL_0
 5
1C
 10
1622.936
 20
428.531
 30
0
 11
1512.936
 21
428.531
 31
0
 0
ARC
 8
TOOL_0
 5
1D
 10
1512.936
 20
418.531
 30
0
 40
10.0
 50
90.0
 51
180.0
210
0
220
0
230
1.0
 0
LINE
 8
TOOL_0
 5
1E
 10
1502.936
 20
418.531
 30
0
 11
1502.936
 21
388.531
 31
0
 0
ARC
 8
TOOL_0
 5
1F
 10
1512.936
 20
388.531
 30
0
 40
10.0
 50
180.0
 51
270.0
210
0
220
0
230
1.0
 0
LINE
 8
TOOL_0
 5
20
 10
1512.936
 20
378.531
 30
0
 11
1622.936
 21
378.531
 31
0
 0
ARC
 8
TOOL_0
 5
21
 10
1622.936
 20
388.531
 30
0
 40
10.0
 50
270.0
 51
0
210
0
220
0
230
1.0
 0
LINE
 8
TOOL_0
 5
22
 10
1632.936
 20
388.531
 30
0
 11
1632.936
 21
403.531
 31
0
 0
LINE
 8
TOOL_0
 5
23
 10
1632.936
 20
403.531
 30
0
 11
1629.4
 21
407.067
 31
0
 0
LINE
 8
TOOL_0
 5
24
 10
1629.4
 20
407.067
 30
0
 11
1398.936
 21
358.531
 31
0
 0
LINE
 8
TOOL_0
 5
25
 10
1398.936
 20
358.531
 30
0
 11
1428.936
 21
358.531
 31
0
 0
LINE
 8
TOOL_0
 5
26
 10
1428.936
 20
358.531
 30
0
 11
1428.936
 21
453.531
 31
0
 0
ARC
 8
TOOL_0
 5
27
 10
1418.936
 20
453.531
 30
0
 40
10.0
 50
0
 51
90.0
210
0
220
0
230
1.0
 0
LINE
 8
TOOL_0
 5
28
 10
1418.936
 20
463.531
 30
0
 11
1368.936
 21
463.531
 31
0
 0
ARC
 8
TOOL_0
 5
29
 10
1368.936
 20
453.531
 30
0
 40
10.0
 50
90.0
 51
180.0
210
0
220
0
230
1.0
 0
LINE
 8
TOOL_0
 5
2A
 10
1358.936
 20
453.531
 30
0
 11
1358.936
 21
263.531
 31
0
 0
ARC
 8
TOOL_0
 5
2B
 10
1368.936
 20
263.531
 30
0
 40
10.0
 50
180.0
 51
270.0
210
0
220
0
230
1.0
 0
LINE
 8
TOOL_0
 5
2C
 10
1368.936
 20
253.531
 30
0
 11
1418.936
 21
253.531
 31
0
 0
ARC
 8
TOOL_0
 5
2D
 10
1418.936
 20
263.531
 30
0
 40
10.0
 50
270.0
 51
0
210
0
220
0
230
1.0
 0
LINE
 8
TOOL_0
 5
2E
 10
1428.936
 20
263.531
 30
0
 11
1428.936
 21
358.531
 31
0
 0
LINE
 8
TOOL_0
 5
2F
 10
1428.936
 20
358.531
 30
0
 11
1425.4
 21
362.067
 31
0
 0
LINE
 8
TOOL_0
 5
30
 10
1425.4
 20
362.067
 30
0
 11
1398.936
 21
148.531
 31
0
 0
LINE
 8
TOOL_0
 5
31
 10
1398.936
 20
148.531
 30
0
 11
1428.936
 21
148.531
 31
0
 0
LINE
 8
TOOL_0
 5
32
 10
1428.936
 20
148.531
 30
0
 11
1428.936
 21
183.531
 31
0
 0
ARC
 8
TOOL_0
 5
33
 10
1418.936
 20
183.531
 30
0
 40
10.0
 50
0
 51
90.0
210
0
220
0
230
1.0
 0
LINE
 8
TOOL_0
 5
34
 10
1418.936
 20
193.531
 30
0
 11
1368.936
 21
193.531
 31
0
 0
ARC
 8
TOOL_0
 5
35
 10
1368.936
 20
183.531
 30
0
 40
10.0
 50
90.0
 51
180.0
210
0
220
0
230
1.0
 0
LINE
 8
TOOL_0
 5
36
 10
1358.936
 20
183.531
 30
0
 11
1358.936
 21
113.531
 31
0
 0
ARC
 8
TOOL_0
 5
37
 10
1368.936
 20
113.531
 30
0
 40
10.0
 50
180.0
 51
270.0
210
0
220
0
230
1.0
 0
LINE
 8
TOOL_0
 5
38
 10
1368.936
 20
103.531
 30
0
 11
1418.936
 21
103.531
 31
0
 0
ARC
 8
TOOL_0
 5
39
 10
1418.936
 20
113.531
 30
0
 40
10.0
 50
270.0
 51
0
210
0
220
0
230
1.0
 0
LINE
 8
TOOL_0
 5
3A
 10
1428.936
 20
113.531
 30
0
 11
1428.936
 21
148.531
 31
0
 0
LINE
 8
TOOL_0
 5
3B
 10
1428.936
 20
148.531
 30
0
 11
1425.4
 21
152.067
 31
0
 0
LINE
 8
TOOL_0
 5
3C
 10
1425.4
 20
152.067
 30
0
 11
1502.936
 21
207.031
 31
0
 0
LINE
 8
TOOL_0
 5
3D
 10
1502.936
 20
207.031
 30
0
 11
1532.936
 21
207.031
 31
0
 0
LINE
 8
TOOL_0
 5
3E
 10
1532.936
 20
207.031
 30
0
 11
1532.936
 21
330.531
 31
0
 0
ARC
 8
TOOL_0
 5
3F
 10
1522.936
 20
330.531
 30
0
 40
10.0
 50
0
 51
90.0
210
0
220
0
230
1.0
 0
LINE
 8
TOOL_0
 5
40
 10
1522.936
 20
340.531
 30
0
 11
1492.936
 21
340.531
 31
0
 0
ARC
 8
TOOL_0
 5
41
 10
1492.936
 20
330.531
 30
0
 40
10.0
 50
90.0
 51
180.0
210
0
220
0
230
1.0
 0
LINE
 8
TOOL_0
 5
42
 10
1482.936
 20
330.531
 30
0
 11
1482.936
 21
83.531
 31
0
 0
ARC
 8
TOOL_0
 5
43
 10
1492.936
 20
83.531
 30
0
 40
10.0
 50
180.0
 51
270.0
210
0
220
0
230
1.0
 0
LINE
 8
TOOL_0
 5
44
 10
1492.936
 20
73.531
 30
0
 11
1522.936
 21
73.531
 31
0
 0
ARC
 8
TOOL_0
 5
45
 10
1522.936
 20
83.531
 30
0
 40
10.0
 50
270.0
 51
0
210
0
220
0
230
1.0
 0
LINE
 8
TOOL_0
 5
46
 10
1532.936
 20
83.531
 30
0
 11
1532.936
 21
207.031
 31
0
 0
LINE
 8
TOOL_0
 5
47
 10
1532.936
 20
207.031
 30
0
 11
1529.4
 21
210.567
 31
0
 0
LINE
 8
TOOL_0
 5
48
 10
1529.4
 20
210.567
 30
0
 11
1604.936
 21
207.031
 31
0
 0
LINE
 8
TOOL_0
 5
49
 10
1604.936
 20
207.031
 30
0
 11
1634.936
 21
207.031
 31
0
 0
LINE
 8
TOOL_0
 5
4A
 10
1634.936
 20
207.031
 30
0
 11
1634.936
 21
330.531
 31
0
 0
ARC
 8
TOOL_0
 5
4B
 10
1624.936
 20
330.531
 30
0
 40
10.0
 50
0
 51
90.0
210
0
220
0
230
1.0
 0
LINE
 8
TOOL_0
 5
4C
 10
1624.936
 20
340.531
 30
0
 11
1594.936
 21
340.531
 31
0
 0
ARC
 8
TOOL_0
 5
4D
 10
1594.936
 20
330.531
 30
0
 40
10.0
 50
90.0
 51
180.0
210
0
220
0
230
1.0
 0
LINE
 8
TOOL_0
 5
4E
 10
1584.936
 20
330.531
 30
0
 11
1584.936
 21
83.531
 31
0
 0
ARC
 8
TOOL_0
 5
4F
 10
1594.936
 20
83.531
 30
0
 40
10.0
 50
180.0
 51
270.0
210
0
220
0
230
1.0
 0
LINE
 8
TOOL_0
 5
50
 10
1594.936
 20
73.531
 30
0
 11
1624.936
 21
73.531
 31
0
 0
ARC
 8
TOOL_0
 5
51
 10
1624.936
 20
83.531
 30
0
 40
10.0
 50
270.0
 51
0
210
0
220
0
230
1.0
 0
LINE
 8
TOOL_0
 5
52
 10
1634.936
 20
83.531
 30
0
 11
1634.936
 21
207.031
 31
0
 0
LINE
 8
TOOL_0
 5
53
 10
1634.936
 20
207.031
 30
0
 11
1631.4
 21
210.567
 31
0
 0
LINE
 8
TOOL_0
 5
54
 10
1631.4
 20
210.567
 30
0
 11
1783.523
 21
42.161
 31
0
 0
LINE
 8
TOOL_0
 5
55
 10
1783.523
 20
42.161
 30
0
 11
1783.523
 21
19.728
 31
0
 0
LINE
 8
TOOL_0
 5
56
 10
1783.523
 20
19.728
 30
0
 11
1774.936
 21
20.032
 31
0
 0
LINE
 8
TOOL_0
 5
57
 10
1774.936
 20
20.032
 30
0
 11
1252.936
 21
20.032
 31
0
 0
LINE
 8
TOOL_0
 5
58
 10
1252.936
 20
20.032
 30
0
 11
1252.936
 21
522.032
 31
0
 0
LINE
 8
TOOL_0
 5
59
 10
1252.936
 20
522.032
 30
0
 11
1774.936
 21
522.032
 31
0
 0
LINE
 8
TOOL_0
 5
5A
 10
1774.936
 20
522.032
 30
0
 11
1774.936
 21
20.032
 31
0
 0
LINE
 8
TOOL_0
 5
5B
 10
1774.936
 20
20.032
 30
0
 11
1774.936
 21
14.663
 31
0
 0
LINE
 8
TOOL_0
 5
5C
 10
1774.936
 20
14.663
 30
0
 11
2249.335
 21
258.032
 31
0
 0
LINE
 8
TOOL_0
 5
5D
 10
2249.335
 20
258.032
 30
0
 11
2279.335
 21
258.032
 31
0
 0
LINE
 8
TOOL_0
 5
5E
 10
2279.335
 20
258.032
 30
0
 11
2279.335
 21
330.532
 31
0
 0
ARC
 8
TOOL_0
 5
5F
 10
2269.335
 20
330.532
 30
0
 40
10.0
 50
0
 51
90.0
210
0
220
0
230
1.0
 0
LINE
 8
TOOL_0
 5
60
 10
2269.335
 20
340.532
 30
0
 11
2239.335
 21
340.532
 31
0
 0
ARC
 8
TOOL_0
 5
61
 10
2239.335
 20
330.532
 30
0
 40
10.0
 50
90.0
 51
180.0
210
0
220
0
230
1.0
 0
LINE
 8
TOOL_0
 5
62
 10
2229.335
 20
330.532
 30
0
 11
2229.335
 21
185.532
 31
0
 0
ARC
 8
TOOL_0
 5
63
 10
2239.335
 20
185.532
 30
0
 40
10.0
 50
180.0
 51
270.0
210
0
220
0
230
1.0
 0
LINE
 8
TOOL_0
 5
64
 10
2239.335
 20
175.532
 30
0
 11
2269.335
 21
175.532
 31
0
 0
ARC
 8
TOOL_0
 5
65
 10
2269.335
 20
185.532
 30
0
 40
10.0
 50
270.0
 51
0
210
0
220
0
230
1.0
 0
LINE
 8
TOOL_0
 5
66
 10
2279.335
 20
185.532
 30
0
 11
2279.335
 21
258.032
 31
0
 0
LINE
 8
TOOL_0
 5
67
 10
2279.335
 20
258.032
 30
0
 11
2275.799
 21
261.568
 31
0
 0
LINE
 8
TOOL_0
 5
68
 10
2275.799
 20
261.568
 30
0
 11
2155.335
 21
466.532
 31
0
 0
LINE
 8
TOOL_0
 5
69
 10
2155.335
 20
466.532
 30
0
 11
2185.335
 21
466.532
 31
0
 0
LINE
 8
TOOL_0
 5
6A
 10
2185.335
 20
466.532
 30
0
 11
2185.335
 21
481.532
 31
0
 0
ARC
 8
TOOL_0
 5
6B
 10
2175.335
 20
481.532
 30
0
 40
10.0
 50
0
 51
90.0
210
0
220
0
230
1.0
 0
LINE
 8
TOOL_0
 5
6C
 10
2175.335
 20
491.532
 30
0
 11
2045.335
 21
491.532
 31
0
 0
ARC
 8
TOOL_0
 5
6D
 10
2045.335
 20
481.532
 30
0
 40
10.0
 50
90.0
 51
180.0
210
0
220
0
230
1.0
 0
LINE
 8
TOOL_0
 5
6E
 10
2035.335
 20
481.532
 30
0
 11
2035.335
 21
451.532
 31
0
 0
ARC
 8
TOOL_0
 5
6F
 10
2045.335
 20
451.532
 30
0
 40
10.0
 50
180.0
 51
270.0
210
0
220
0
230
1.0
 0
LINE
 8
TOOL_0
 5
70
 10
2045.335
 20
441.532
 30
0
 11
2175.335
 21
441.532
 31
0
 0
ARC
 8
TOOL_0
 5
71
 10
2175.335
 20
451.532
 30
0
 40
10.0
 50
270.0
 51
0
210
0
220
0
230
1.0
 0
LINE
 8
TOOL_0
 5
72
 10
2185.335
 20
451.532
 30
0
 11
2185.335
 21
466.532
 31
0
 0
LINE
 8
TOOL_0
 5
73
 10
2185.335
 20
466.532
 30
0
 11
2181.799
 21
470.068
 31
0
 0
LINE
 8
TOOL_0
 5
74
 10
2181.799
 20
470.068
 30
0
 11
2145.335
 21
403.532
 31
0
 0
LINE
 8
TOOL_0
 5
75
 10
2145.335
 20
403.532
 30
0
 11
2175.335
 21
403.532
 31
0
 0
LINE
 8
TOOL_0
 5
76
 10
2175.335
 20
403.532
 30
0
 11
2175.335
 21
418.532
 31
0
 0
ARC
 8
TOOL_0
 5
77
 10
2165.335
 20
418.532
 30
0
 40
10.0
 50
0
 51
90.0
210
0
220
0
230
1.0
 0
LINE
 8
TOOL_0
 5
78
 10
2165.335
 20
428.532
 30
0
 11
2055.335
 21
428.532
 31
0
 0
ARC
 8
TOOL_0
 5
79
 10
2055.335
 20
418.532
 30
0
 40
10.0
 50
90.0
 51
180.0
210
0
220
0
230
1.0
 0
LINE
 8
TOOL_0
 5
7A
 10
2045.335
 20
418.532
 30
0
 11
2045.335
 21
388.532
 31
0
 0
ARC
 8
TOOL_0
 5
7B
 10
2055.335
 20
388.532
 30
0
 40
10.0
 50
180.0
 51
270.0
210
0
220
0
230
1.0
 0
LINE
 8
TOOL_0
 5
7C
 10
2055.335
 20
378.532
 30
0
 11
2165.335
 21
378.532
 31
0
 0
ARC
 8
TOOL_0
 5
7D
 10
2165.335
 20
388.532
 30
0
 40
10.0
 50
270.0
 51
0
210
0
220
0
230
1.0
 0
LINE
 8
TOOL_0
 5
7E
 10
2175.335
 20
388.532
 30
0
 11
2175.335
 21
403.532
 31
0
 0
LINE
 8
TOOL_0
 5
7F
 10
2175.335
 20
403.532
 30
0
 11
2171.799
 21
407.068
 31
0
 0
LINE
 8
TOOL_0
 5
80
 10
2171.799
 20
407.068
 30
0
 11
1941.335
 21
358.532
 31
0
 0
LINE
 8
TOOL_0
 5
81
 10
1941.335
 20
358.532
 30
0
 11
1971.335
 21
358.532
 31
0
 0
LINE
 8
TOOL_0
 5
82
 10
1971.335
 20
358.532
 30
0
 11
1971.335
 21
453.532
 31
0
 0
ARC
 8
TOOL_0
 5
83
 10
1961.335
 20
453.532
 30
0
 40
10.0
 50
0
 51
90.0
210
0
220
0
230
1.0
 0
LINE
 8
TOOL_0
 5
84
 10
1961.335
 20
463.532
 30
0
 11
1911.335
 21
463.532
 31
0
 0
ARC
 8
TOOL_0
 5
85
 10
1911.335
 20
453.532
 30
0
 40
10.0
 50
90.0
 51
180.0
210
0
220
0
230
1.0
 0
LINE
 8
TOOL_0
 5
86
 10
1901.335
 20
453.532
 30
0
 11
1901.335
 21
263.532
 31
0
 0
ARC
 8
TOOL_0
 5
87
 10
1911.335
 20
263.532
 30
0
 40
10.0
 50
180.0
 51
270.0
210
0
220
0
230
1.0
 0
LINE
 8
TOOL_0
 5
88
 10
1911.335
 20
253.532
 30
0
 11
1961.335
 21
253.532
 31
0
 0
ARC
 8
TOOL_0
 5
89
 10
1961.335
 20
263.532
 30
0
 40
10.0
 50
270.0
 51
0
210
0
220
0
230
1.0
 0
LINE
 8
TOOL_0
 5
8A
 10
1971.335
 20
263.532
 30
0
 11
1971.335
 21
358.532
 31
0
 0
LINE
 8
TOOL_0
 5
8B
 10
1971.335
 20
358.532
 30
0
 11
1967.799
 21
362.068
 31
0
 0
LINE
 8
TOOL_0
 5
8C
 10
1967.799
 20
362.068
 30
0
 11
1941.335
 21
148.532
 31
0
 0
LINE
 8
TOOL_0
 5
8D
 10
1941.335
 20
148.532
 30
0
 11
1971.335
 21
148.532
 31
0
 0
LINE
 8
TOOL_0
 5
8E
 10
1971.335
 20
148.532
 30
0
 11
1971.335
 21
183.532
 31
0
 0
ARC
 8
TOOL_0
 5
8F
 10
1961.335
 20
183.532
 30
0
 40
10.0
 50
0
 51
90.0
210
0
220
0
230
1.0
 0
LINE
 8
TOOL_0
 5
90
 10
1961.335
 20
193.532
 30
0
 11
1911.335
 21
193.532
 31
0
 0
ARC
 8
TOOL_0
 5
91
 10
1911.335
 20
183.532
 30
0
 40
10.0
 50
90.0
 51
180.0
210
0
220
0
230
1.0
 0
LINE
 8
TOOL_0
 5
92
 10
1901.335
 20
183.532
 30
0
 11
1901.335
 21
113.532
 31
0
 0
ARC
 8
TOOL_0
 5
93
 10
1911.335
 20
113.532
 30
0
 40
10.0
 50
180.0
 51
270.0
210
0
220
0
230
1.0
 0
LINE
 8
TOOL_0
 5
94
 10
1911.335
 20
103.532
 30
0
 11
1961.335
 21
103.532
 31
0
 0
ARC
 8
TOOL_0
 5
95
 10
1961.335
 20
113.532
 30
0
 40
10.0
 50
270.0
 51
0
210
0
220
0
230
1.0
 0
LINE
 8
TOOL_0
 5
96
 10
1971.335
 20
113.532
 30
0
 11
1971.335
 21
148.532
 31
0
 0
LINE
 8
TOOL_0
 5
97
 10
1971.335
 20
148.532
 30
0
 11
1967.799
 21
152.068
 31
0
 0
LINE
 8
TOOL_0
 5
98
 10
1967.799
 20
152.068
 30
0
 11
2045.335
 21
207.032
 31
0
 0
LINE
 8
TOOL_0
 5
99
 10
2045.335
 20
207.032
 30
0
 11
2075.335
 21
207.032
 31
0
 0
LINE
 8
TOOL_0
 5
9A
 10
2075.335
 20
207.032
 30
0
 11
2075.335
 21
330.532
 31
0
 0
ARC
 8
TOOL_0
 5
9B
 10
2065.335
 20
330.532
 30
0
 40
10.0
 50
0
 51
90.0
210
0
220
0
230
1.0
 0
LINE
 8
TOOL_0
 5
9C
 10
2065.335
 20
340.532
 30
0
 11
2035.335
 21
340.532
 31
0
 0
ARC
 8
TOOL_0
 5
9D
 10
2035.335
 20
330.532
 30
0
 40
10.0
 50
90.0
 51
180.0
210
0
220
0
230
1.0
 0
LINE
 8
TOOL_0
 5
9E
 10
2025.335
 20
330.532
 30
0
 11
2025.335
 21
83.532
 31
0
 0
ARC
 8
TOOL_0
 5
9F
 10
2035.335
 20
83.532
 30
0
 40
10.0
 50
180.0
 51
270.0
210
0
220
0
230
1.0
 0
LINE
 8
TOOL_0
 5
A0
 10
2035.335
 20
73.532
 30
0
 11
2065.335
 21
73.532
 31
0
 0
ARC
 8
TOOL_0
 5
A1
 10
2065.335
 20
83.532
 30
0
 40
10.0
 50
270.0
 51
0
210
0
220
0
230
1.0
 0
LINE
 8
TOOL_0
 5
A2
 10
2075.335
 20
83.532
 30
0
 11
2075.335
 21
207.032
 31
0
 0
LINE
 8
TOOL_0
 5
A3
 10
2075.335
 20
207.032
 30
0
 11
2071.799
 21
210.568
 31
0
 0
LINE
 8
TOOL_0
 5
A4
 10
2071.799
 20
210.568
 30
0
 11
2147.335
 21
207.032
 31
0
 0
LINE
 8
TOOL_0
 5
A5
 10
2147.335
 20
207.032
 30
0
 11
2177.335
 21
207.032
 31
0
 0
LINE
 8
TOOL_0
 5
A6
 10
2177.335
 20
207.032
 30
0
 11
2177.335
 21
330.532
 31
0
 0
ARC
 8
TOOL_0
 5
A7
 10
2167.335
 20
330.532
 30
0
 40
10.0
 50
0
 51
90.0
210
0
220
0
230
1.0
 0
LINE
 8
TOOL_0
 5
A8
 10
2167.335
 20
340.532
 30
0
 11
2137.335
 21
340.532
 31
0
 0
ARC
 8
TOOL_0
 5
A9
 10
2137.335
 20
330.532
 30
0
 40
10.0
 50
90.0
 51
180.0
210
0
220
0
230
1.0
 0
LINE
 8
TOOL_0
 5
AA
 10
2127.335
 20
330.532
 30
0
 11
2127.335
 21
83.532
 31
0
 0
ARC
 8
TOOL_0
 5
AB
 10
2137.335
 20
83.532
 30
0
 40
10.0
 50
180.0
 51
270.0
210
0
220
0
230
1.0
 0
LINE
 8
TOOL_0
 5
AC
 10
2137.335
 20
73.532
 30
0
 11
2167.335
 21
73.532
 31
0
 0
ARC
 8
TOOL_0
 5
AD
 10
2167.335
 20
83.532
 30
0
 40
10.0
 50
270.0
 51
0
210
0
220
0
230
1.0
 0
LINE
 8
TOOL_0
 5
AE
 10
2177.335
 20
83.532
 30
0
 11
2177.335
 21
207.032
 31
0
 0
LINE
 8
TOOL_0
 5
AF
 10
2177.335
 20
207.032
 30
0
 11
2173.799
 21
210.568
 31
0
 0
LINE
 8
TOOL_0
 5
B0
 10
2173.799
 20
210.568
 30
0
 11
2325.921
 21
42.162
 31
0
 0
LINE
 8
TOOL_0
 5
B1
 10
2325.921
 20
42.162
 30
0
 11
2325.921
 21
19.729
 31
0
 0
LINE
 8
TOOL_0
 5
B2
 10
2325.921
 20
19.729
 30
0
 11
2317.334
 21
20.033
 31
0
 0
LINE
 8
TOOL_0
 5
B3
 10
2317.334
 20
20.033
 30
0
 11
1795.334
 21
20.033
 31
0
 0
LINE
 8
TOOL_0
 5
B4
 10
1795.334
 20
20.033
 30
0
 11
1795.334
 21
522.033
 31
0
 0
LINE
 8
TOOL_0
 5
B5
 10
1795.334
 20
522.033
 30
0
 11
2317.334
 21
522.033
 31
0
 0
LINE
 8
TOOL_0
 5
B6
 10
2317.334
 20
522.033
 30
0
 11
2317.334
 21
20.033
 31
0
 0
LINE
 8
TOOL_0
 5
B7
 10
2317.334
 20
20.033
 30
0
 11
2317.334
 21
14.664
 31
0
 0
LINE
 8
TOOL_0
 5
B8
 10
2317.334
 20
14.664
 30
0
 11
2464.448
 21
106.805
 31
0
 0
LINE
 8
TOOL_0
 5
B9
 10
2464.448
 20
106.805
 30
0
 11
2494.448
 21
106.805
 31
0
 0
LINE
 8
TOOL_0
 5
BA
 10
2494.448
 20
106.805
 30
0
 11
2494.448
 21
141.805
 31
0
 0
ARC
 8
TOOL_0
 5
BB
 10
2484.448
 20
141.805
 30
0
 40
10.0
 50
0
 51
90.0
210
0
220
0
230
1.0
 0
LINE
 8
TOOL_0
 5
BC
 10
2484.448
 20
151.805
 30
0
 11
2394.448
 21
151.805
 31
0
 0
ARC
 8
TOOL_0
 5
BD
 10
2394.448
 20
141.805
 30
0
 40
10.0
 50
90.0
 51
180.0
210
0
220
0
230
1.0
 0
LINE
 8
TOOL_0
 5
BE
 10
2384.448
 20
141.805
 30
0
 11
2384.448
 21
71.805
 31
0
 0
ARC
 8
TOOL_0
 5
BF
 10
2394.448
 20
71.805
 30
0
 40
10.0
 50
180.0
 51
270.0
210
0
220
0
230
1.0
 0
LINE
 8
TOOL_0
 5
C0
 10
2394.448
 20
61.805
 30
0
 11
2484.448
 21
61.805
 31
0
 0
ARC
 8
TOOL_0
 5
C1
 10
2484.448
 20
71.805
 30
0
 40
10.0
 50
270.0
 51
0
210
0
220
0
230
1.0
 0
LINE
 8
TOOL_0
 5
C2
 10
2494.448
 20
71.805
 30
0
 11
2494.448
 21
106.805
 31
0
 0
LINE
 8
TOOL_0
 5
C3
 10
2494.448
 20
106.805
 30
0
 11
2490.912
 21
110.341
 31
0
 0
LINE
 8
TOOL_0
 5
C4
 10
2490.912
 20
110.341
 30
0
 11
2699.448
 21
280.805
 31
0
 0
LINE
 8
TOOL_0
 5
C5
 10
2699.448
 20
280.805
 30
0
 11
2729.448
 21
280.805
 31
0
 0
LINE
 8
TOOL_0
 5
C6
 10
2729.448
 20
280.805
 30
0
 11
2729.448
 21
345.805
 31
0
 0
ARC
 8
TOOL_0
 5
C7
 10
2719.448
 20
345.805
 30
0
 40
10.0
 50
0
 51
90.0
210
0
220
0
230
1.0
 0
LINE
 8
TOOL_0
 5
C8
 10
2719.448
 20
355.805
 30
0
 11
2669.448
 21
355.805
 31
0
 0
ARC
 8
TOOL_0
 5
C9
 10
2669.448
 20
345.805
 30
0
 40
10.0
 50
90.0
 51
180.0
210
0
220
0
230
1.0
 0
LINE
 8
TOOL_0
 5
CA
 10
2659.448
 20
345.805
 30
0
 11
2659.448
 21
215.805
 31
0
 0
ARC
 8
TOOL_0
 5
CB
 10
2669.448
 20
215.805
 30
0
 40
10.0
 50
180.0
 51
270.0
210
0
220
0
230
1.0
 0
LINE
 8
TOOL_0
 5
CC
 10
2669.448
 20
205.805
 30
0
 11
2719.448
 21
205.805
 31
0
 0
ARC
 8
TOOL_0
 5
CD
 10
2719.448
 20
215.805
 30
0
 40
10.0
 50
270.0
 51
0
210
0
220
0
230
1.0
 0
LINE
 8
TOOL_0
 5
CE
 10
2729.448
 20
215.805
 30
0
 11
2729.448
 21
280.805
 31
0
 0
LINE
 8
TOOL_0
 5
CF
 10
2729.448
 20
280.805
 30
0
 11
2725.912
 21
284.341
 31
0
 0
LINE
 8
TOOL_0
 5
D0
 10
2725.912
 20
284.341
 30
0
 11
2734.448
 21
106.805
 31
0
 0
LINE
 8
TOOL_0
 5
D1
 10
2734.448
 20
106.805
 30
0
 11
2764.448
 21
106.805
 31
0
 0
LINE
 8
TOOL_0
 5
D2
 10
2764.448
 20
106.805
 30
0
 11
2764.448
 21
141.805
 31
0
 0
ARC
 8
TOOL_0
 5
D3
 10
2754.448
 20
141.805
 30
0
 40
10.0
 50
0
 51
90.0
210
0
220
0
230
1.0
 0
LINE
 8
TOOL_0
 5
D4
 10
2754.448
 20
151.805
 30
0
 11
2544.448
 21
151.805
 31
0
 0
ARC
 8
TOOL_0
 5
D5
 10
2544.448
 20
141.805
 30
0
 40
10.0
 50
90.0
 51
180.0
210
0
220
0
230
1.0
 0
LINE
 8
TOOL_0
 5
D6
 10
2534.448
 20
141.805
 30
0
 11
2534.448
 21
71.805
 31
0
 0
ARC
 8
TOOL_0
 5
D7
 10
2544.448
 20
71.805
 30
0
 40
10.0
 50
180.0
 51
270.0
210
0
220
0
230
1.0
 0
LINE
 8
TOOL_0
 5
D8
 10
2544.448
 20
61.805
 30
0
 11
2754.448
 21
61.805
 31
0
 0
ARC
 8
TOOL_0
 5
D9
 10
2754.448
 20
71.805
 30
0
 40
10.0
 50
270.0
 51
0
210
0
220
0
230
1.0
 0
LINE
 8
TOOL_0
 5
DA
 10
2764.448
 20
71.805
 30
0
 11
2764.448
 21
106.805
 31
0
 0
LINE
 8
TOOL_0
 5
DB
 10
2764.448
 20
106.805
 30
0
 11
2760.912
 21
110.341
 31
0
 0
LINE
 8
TOOL_0
 5
DC
 10
2760.912
 20
110.341
 30
0
 11
2797.14
 21
34.64
 31
0
 0
LINE
 8
TOOL_0
 5
DD
 10
2797.14
 20
34.64
 30
0
 11
2797.14
 21
18.945
 31
0
 0
LINE
 8
TOOL_0
 5
DE
 10
2797.14
 20
18.945
 30
0
 11
2784.198
 21
19.055
 31
0
 0
LINE
 8
TOOL_0
 5
DF
 10
2784.198
 20
19.055
 30
0
 11
2341.698
 21
19.055
 31
0
 0
ARC
 8
TOOL_0
 5
E0
 10
2341.698
 20
24.055
 30
0
 40
5.0
 50
180.0
 51
270.0
210
0
220
0
230
1.0
 0
LINE
 8
TOOL_0
 5
E1
 10
2336.698
 20
24.055
 30
0
 11
2336.698
 21
396.555
 31
0
 0
ARC
 8
TOOL_0
 5
E2
 10
2341.698
 20
396.555
 30
0
 40
5.0
 50
90.0
 51
180.0
210
0
220
0
230
1.0
 0
LINE
 8
TOOL_0
 5
E3
 10
2341.698
 20
401.555
 30
0
 11
2430.698
 21
401.555
 31
0
 0
ARC
 8
TOOL_0
 5
E4
 10
2430.698
 20
406.555
 30
0
 40
5.0
 50
270.0
 51
0
210
0
220
0
230
1.0
 0
LINE
 8
TOOL_0
 5
E5
 10
2435.698
 20
406.555
 30
0
 11
2435.698
 21
467.755
 31
0
 0
ARC
 8
TOOL_0
 5
E6
 10
2440.698
 20
467.755
 30
0
 40
5.0
 50
90.0
 51
180.0
210
0
220
0
230
1.0
 0
LINE
 8
TOOL_0
 5
E7
 10
2440.698
 20
472.755
 30
0
 11
2657.198
 21
472.755
 31
0
 0
ARC
 8
TOOL_0
 5
E8
 10
2657.198
 20
467.755
 30
0
 40
5.0
 50
0
 51
90.0
210
0
220
0
230
1.0
 0
LINE
 8
TOOL_0
 5
E9
 10
2662.198
 20
467.755
 30
0
 11
2662.198
 21
406.555
 31
0
 0
ARC
 8
TOOL_0
 5
EA
 10
2667.198
 20
406.555
 30
0
 40
5.0
 50
180.0
 51
270.0
210
0
220
0
230
1.0
 0
LINE
 8
TOOL_0
 5
EB
 10
2667.198
 20
401.555
 30
0
 11
2784.198
 21
401.555
 31
0
 0
ARC
 8
TOOL_0
 5
EC
 10
2784.198
 20
396.555
 30
0
 40
5.0
 50
0
 51
90.0
210
0
220
0
230
1.0
 0
LINE
 8
TOOL_0
 5
ED
 10
2789.198
 20
396.555
 30
0
 11
2789.198
 21
24.055
 31
0
 0
ARC
 8
TOOL_0
 5
EE
 10
2784.198
 20
24.055
 30
0
 40
5.0
 50
270.0
 51
0
210
0
220
0
230
1.0
 0
LINE
 8
TOOL_0
 5
EF
 10
2784.198
 20
19.055
 30
0
 11
2781.072
 21
15.269
 31
0
 0
LINE
 8
TOOL_0
 5
F0
 10
2781.072
 20
15.269
 30
0
 11
2935.277
 21
106.805
 31
0
 0
LINE
 8
TOOL_0
 5
F1
 10
2935.277
 20
106.805
 30
0
 11
2965.277
 21
106.805
 31
0
 0
LINE
 8
TOOL_0
 5
F2
 10
2965.277
 20
106.805
 30
0
 11
2965.277
 21
141.805
 31
0
 0
ARC
 8
TOOL_0
 5
F3
 10
2955.277
 20
141.805
 30
0
 40
10.0
 50
0
 51
90.0
210
0
220
0
230
1.0
 0
LINE
 8
TOOL_0
 5
F4
 10
2955.277
 20
151.805
 30
0
 11
2865.277
 21
151.805
 31
0
 0
ARC
 8
TOOL_0
 5
F5
 10
2865.277
 20
141.805
 30
0
 40
10.0
 50
90.0
 51
180.0
210
0
220
0
230
1.0
 0
LINE
 8
TOOL_0
 5
F6
 10
2855.277
 20
141.805
 30
0
 11
2855.277
 21
71.805
 31
0
 0
ARC
 8
TOOL_0
 5
F7
 10
2865.277
 20
71.805
 30
0
 40
10.0
 50
180.0
 51
270.0
210
0
220
0
230
1.0
 0
LINE
 8
TOOL_0
 5
F8
 10
2865.277
 20
61.805
 30
0
 11
2955.277
 21
61.805
 31
0
 0
ARC
 8
TOOL_0
 5
F9
 10
2955.277
 20
71.805
 30
0
 40
10.0
 50
270.0
 51
0
210
0
220
0
230
1.0
 0
LINE
 8
TOOL_0
 5
FA
 10
2965.277
 20
71.805
 30
0
 11
2965.277
 21
106.805
 31
0
 0
LINE
 8
TOOL_0
 5
FB
 10
2965.277
 20
106.805
 30
0
 11
2961.741
 21
110.341
 31
0
 0
LINE
 8
TOOL_0
 5
FC
 10
2961.741
 20
110.341
 30
0
 11
3170.277
 21
280.805
 31
0
 0
LINE
 8
TOOL_0
 5
FD
 10
3170.277
 20
280.805
 30
0
 11
3200.277
 21
280.805
 31
0
 0
LINE
 8
TOOL_0
 5
FE
 10
3200.277
 20
280.805
 30
0
 11
3200.277
 21
345.805
 31
0
 0
ARC
 8
TOOL_0
 5
FF
 10
3190.277
 20
345.805
 30
0
 40
10.0
 50
0
 51
90.0
210
0
220
0
230
1.0
 0
LINE
 8
TOOL_0
 5
100
 10
3190.277
 20
355.805
 30
0
 11
3140.277
 21
355.805
 31
0
 0
ARC
 8
TOOL_0
 5
101
 10
3140.277
 20
345.805
 30
0
 40
10.0
 50
90.0
 51
180.0
210
0
220
0
230
1.0
 0
LINE
 8
TOOL_0
 5
102
 10
3130.277
 20
345.805
 30
0
 11
3130.277
 21
215.805
 31
0
 0
ARC
 8
TOOL_0
 5
103
 10
3140.277
 20
215.805
 30
0
 40
10.0
 50
180.0
 51
270.0
210
0
220
0
230
1.0
 0
LINE
 8
TOOL_0
 5
104
 10
3140.277
 20
205.805
 30
0
 11
3190.277
 21
205.805
 31
0
 0
ARC
 8
TOOL_0
 5
105
 10
3190.277
 20
215.805
 30
0
 40
10.0
 50
270.0
 51
0
210
0
220
0
230
1.0
 0
LINE
 8
TOOL_0
 5
106
 10
3200.277
 20
215.805
 30
0
 11
3200.277
 21
280.805
 31
0
 0
LINE
 8
TOOL_0
 5
107
 10
3200.277
 20
280.805
 30
0
 11
3196.741
 21
284.341
 31
0
 0
LINE
 8
TOOL_0
 5
108
 10
3196.741
 20
284.341
 30
0
 11
3205.277
 21
106.805
 31
0
 0
LINE
 8
TOOL_0
 5
109
 10
3205.277
 20
106.805
 30
0
 11
3235.277
 21
106.805
 31
0
 0
LINE
 8
TOOL_0
 5
10A
 10
3235.277
 20
106.805
 30
0
 11
3235.277
 21
141.805
 31
0
 0
ARC
 8
TOOL_0
 5
10B
 10
3225.277
 20
141.805
 30
0
 40
10.0
 50
0
 51
90.0
210
0
220
0
230
1.0
 0
LINE
 8
TOOL_0
 5
10C
 10
3225.277
 20
151.805
 30
0
 11
3015.277
 21
151.805
 31
0
 0
ARC
 8
TOOL_0
 5
10D
 10
3015.277
 20
141.805
 30
0
 40
10.0
 50
90.0
 51
180.0
210
0
220
0
230
1.0
 0
LINE
 8
TOOL_0
 5
10E
 10
3005.277
 20
141.805
 30
0
 11
3005.277
 21
71.805
 31
0
 0
ARC
 8
TOOL_0
 5
10F
 10
3015.277
 20
71.805
 30
0
 40
10.0
 50
180.0
 51
270.0
210
0
220
0
230
1.0
 0
LINE
 8
TOOL_0
 5
110
 10
3015.277
 20
61.805
 30
0
 11
3225.277
 21
61.805
 31
0
 0
ARC
 8
TOOL_0
 5
111
 10
3225.277
 20
71.805
 30
0
 40
10.0
 50
270.0
 51
0
210
0
220
0
230
1.0
 0
LINE
 8
TOOL_0
 5
112
 10
3235.277
 20
71.805
 30
0
 11
3235.277
 21
106.805
 31
0
 0
LINE
 8
TOOL_0
 5
113
 10
3235.277
 20
106.805
 30
0
 11
3231.741
 21
110.341
 31
0
 0
LINE
 8
TOOL_0
 5
114
 10
3231.741
 20
110.341
 30
0
 11
3267.969
 21
34.64
 31
0
 0
LINE
 8
TOOL_0
 5
115
 10
3267.969
 20
34.64
 30
0
 11
3267.969
 21
18.945
 31
0
 0
LINE
 8
TOOL_0
 5
116
 10
3267.969
 20
18.945
 30
0
 11
3255.027
 21
19.055
 31
0
 0
LINE
 8
TOOL_0
 5
117
 10
3255.027
 20
19.055
 30
0
 11
2812.527
 21
19.055
 31
0
 0
ARC
 8
TOOL_0
 5
118
 10
2812.527
 20
24.055
 30
0
 40
5.0
 50
180.0
 51
270.0
210
0
220
0
230
1.0
 0
LINE
 8
TOOL_0
 5
119
 10
2807.527
 20
24.055
 30
0
 11
2807.527
 21
396.555
 31
0
 0
ARC
 8
TOOL_0
 5
11A
 10
2812.527
 20
396.555
 30
0
 40
5.0
 50
90.0
 51
180.0
210
0
220
0
230
1.0
 0
LINE
 8
TOOL_0
 5
11B
 10
2812.527
 20
401.555
 30
0
 11
2901.527
 21
401.555
 31
0
 0
ARC
 8
TOOL_0
 5
11C
 10
2901.527
 20
406.555
 30
0
 40
5.0
 50
270.0
 51
0
210
0
220
0
230
1.0
 0
LINE
 8
TOOL_0
 5
11D
 10
2906.527
 20
406.555
 30
0
 11
2906.527
 21
467.755
 31
0
 0
ARC
 8
TOOL_0
 5
11E
 10
2911.527
 20
467.755
 30
0
 40
5.0
 50
90.0
 51
180.0
210
0
220
0
230
1.0
 0
LINE
 8
TOOL_0
 5
11F
 10
2911.527
 20
472.755
 30
0
 11
3128.027
 21
472.755
 31
0
 0
ARC
 8
TOOL_0
 5
120
 10
3128.027
 20
467.755
 30
0
 40
5.0
 50
0
 51
90.0
210
0
220
0
230
1.0
 0
LINE
 8
TOOL_0
 5
121
 10
3133.027
 20
467.755
 30
0
 11
3133.027
 21
406.555
 31
0
 0
ARC
 8
TOOL_0
 5
122
 10
3138.027
 20
406.555
 30
0
 40
5.0
 50
180.0
 51
270.0
210
0
220
0
230
1.0
 0
LINE
 8
TOOL_0
 5
123
 10
3138.027
 20
401.555
 30
0
 11
3255.027
 21
401.555
 31
0
 0
ARC
 8
TOOL_0
 5
124
 10
3255.027
 20
396.555
 30
0
 40
5.0
 50
0
 51
90.0
210
0
220
0
230
1.0
 0
LINE
 8
TOOL_0
 5
125
 10
3260.027
 20
396.555
 30
0
 11
3260.027
 21
24.055
 31
0
 0
ARC
 8
TOOL_0
 5
126
 10
3255.027
 20
24.055
 30
0
 40
5.0
 50
270.0
 51
0
210
0
220
0
230
1.0
 0
LINE
 8
TOOL_0
 5
127
 10
3255.027
 20
19.055
 30
0
 11
3251.901
 21
15.269
 31
0
 0
LINE
 8
TOOL_0
 5
128
 10
3251.901
 20
15.269
 30
0
 11
3392.431
 21
221.29
 31
0
 0
LINE
 8
TOOL_0
 5
129
 10
3392.431
 20
221.29
 30
0
 11
3422.431
 21
221.29
 31
0
 0
LINE
 8
TOOL_0
 5
12A
 10
3422.431
 20
221.29
 30
0
 11
3422.431
 21
303.79
 31
0
 0
ARC
 8
TOOL_0
 5
12B
 10
3412.431
 20
303.79
 30
0
 40
10.0
 50
0
 51
90.0
210
0
220
0
230
1.0
 0
LINE
 8
TOOL_0
 5
12C
 10
3412.431
 20
313.79
 30
0
 11
3372.431
 21
313.79
 31
0
 0
ARC
 8
TOOL_0
 5
12D
 10
3372.431
 20
303.79
 30
0
 40
10.0
 50
90.0
 51
180.0
210
0
220
0
230
1.0
 0
LINE
 8
TOOL_0
 5
12E
 10
3362.431
 20
303.79
 30
0
 11
3362.431
 21
138.79
 31
0
 0
ARC
 8
TOOL_0
 5
12F
 10
3372.431
 20
138.79
 30
0
 40
10.0
 50
180.0
 51
270.0
210
0
220
0
230
1.0
 0
LINE
 8
TOOL_0
 5
130
 10
3372.431
 20
128.79
 30
0
 11
3412.431
 21
128.79
 31
0
 0
ARC
 8
TOOL_0
 5
131
 10
3412.431
 20
138.79
 30
0
 40
10.0
 50
270.0
 51
0
210
0
220
0
230
1.0
 0
LINE
 8
TOOL_0
 5
132
 10
3422.431
 20
138.79
 30
0
 11
3422.431
 21
221.29
 31
0
 0
LINE
 8
TOOL_0
 5
133
 10
3422.431
 20
221.29
 30
0
 11
3418.895
 21
224.826
 31
0
 0
LINE
 8
TOOL_0
 5
134
 10
3418.895
 20
224.826
 30
0
 11
3484.43
 21
221.291
 31
0
 0
LINE
 8
TOOL_0
 5
135
 10
3484.43
 20
221.291
 30
0
 11
3514.43
 21
221.291
 31
0
 0
LINE
 8
TOOL_0
 5
136
 10
3514.43
 20
221.291
 30
0
 11
3514.43
 21
303.791
 31
0
 0
ARC
 8
TOOL_0
 5
137
 10
3504.43
 20
303.791
 30
0
 40
10.0
 50
0
 51
90.0
210
0
220
0
230
1.0
 0
LINE
 8
TOOL_0
 5
138
 10
3504.43
 20
313.791
 30
0
 11
3464.43
 21
313.791
 31
0
 0
ARC
 8
TOOL_0
 5
139
 10
3464.43
 20
303.791
 30
0
 40
10.0
 50
90.0
 51
180.0
210
0
220
0
230
1.0
 0
LINE
 8
TOOL_0
 5
13A
 10
3454.43
 20
303.791
 30
0
 11
3454.43
 21
138.791
 31
0
 0
ARC
 8
TOOL_0
 5
13B
 10
3464.43
 20
138.791
 30
0
 40
10.0
 50
180.0
 51
270.0
210
0
220
0
230
1.0
 0
LINE
 8
TOOL_0
 5
13C
 10
3464.43
 20
128.791
 30
0
 11
3504.43
 21
128.791
 31
0
 0
ARC
 8
TOOL_0
 5
13D
 10
3504.43
 20
138.791
 30
0
 40
10.0
 50
270.0
 51
0
210
0
220
0
230
1.0
 0
LINE
 8
TOOL_0
 5
13E
 10
3514.43
 20
138.791
 30
0
 11
3514.43
 21
221.291
 31
0
 0
LINE
 8
TOOL_0
 5
13F
 10
3514.43
 20
221.291
 30
0
 11
3510.894
 21
224.827
 31
0
 0
LINE
 8
TOOL_0
 5
140
 10
3510.894
 20
224.827
 30
0
 11
3576.429
 21
221.292
 31
0
 0
LINE
 8
TOOL_0
 5
141
 10
3576.429
 20
221.292
 30
0
 11
3606.429
 21
221.292
 31
0
 0
LINE
 8
TOOL_0
 5
142
 10
3606.429
 20
221.292
 30
0
 11
3606.429
 21
303.792
 31
0
 0
ARC
 8
TOOL_0
 5
143
 10
3596.429
 20
303.792
 30
0
 40
10.0
 50
0
 51
90.0
210
0
220
0
230
1.0
 0
LINE
 8
TOOL_0
 5
144
 10
3596.429
 20
313.792
 30
0
 11
3556.429
 21
313.792
 31
0
 0
ARC
 8
TOOL_0
 5
145
 10
3556.429
 20
303.792
 30
0
 40
10.0
 50
90.0
 51
180.0
210
0
220
0
230
1.0
 0
LINE
 8
TOOL_0
 5
146
 10
3546.429
 20
303.792
 30
0
 11
3546.429
 21
138.792
 31
0
 0
ARC
 8
TOOL_0
 5
147
 10
3556.429
 20
138.792
 30
0
 40
10.0
 50
180.0
 51
270.0
210
0
220
0
230
1.0
 0
LINE
 8
TOOL_0
 5
148
 10
3556.429
 20
128.792
 30
0
 11
3596.429
 21
128.792
 31
0
 0
ARC
 8
TOOL_0
 5
149
 10
3596.429
 20
138.792
 30
0
 40
10.0
 50
270.0
 51
0
210
0
220
0
230
1.0
 0
LINE
 8
TOOL_0
 5
14A
 10
3606.429
 20
138.792
 30
0
 11
3606.429
 21
221.292
 31
0
 0
LINE
 8
TOOL_0
 5
14B
 10
3606.429
 20
221.292
 30
0
 11
3602.893
 21
224.828
 31
0
 0
LINE
 8
TOOL_0
 5
14C
 10
3602.893
 20
224.828
 30
0
 11
3668.428
 21
221.293
 31
0
 0
LINE
 8
TOOL_0
 5
14D
 10
3668.428
 20
221.293
 30
0
 11
3698.428
 21
221.293
 31
0
 0
LINE
 8
TOOL_0
 5
14E
 10
3698.428
 20
221.293
 30
0
 11
3698.428
 21
303.793
 31
0
 0
ARC
 8
TOOL_0
 5
14F
 10
3688.428
 20
303.793
 30
0
 40
10.0
 50
0
 51
90.0
210
0
220
0
230
1.0
 0
LINE
 8
TOOL_0
 5
150
 10
3688.428
 20
313.793
 30
0
 11
3648.428
 21
313.793
 31
0
 0
ARC
 8
TOOL_0
 5
151
 10
3648.428
 20
303.793
 30
0
 40
10.0
 50
90.0
 51
180.0
210
0
220
0
230
1.0
 0
LINE
 8
TOOL_0
 5
152
 10
3638.428
 20
303.793
 30
0
 11
3638.428
 21
138.793
 31
0
 0
ARC
 8
TOOL_0
 5
153
 10
3648.428
 20
138.793
 30
0
 40
10.0
 50
180.0
 51
270.0
210
0
220
0
230
1.0
 0
LINE
 8
TOOL_0
 5
154
 10
3648.428
 20
128.793
 30
0
 11
3688.428
 21
128.793
 31
0
 0
ARC
 8
TOOL_0
 5
155
 10
3688.428
 20
138.793
 30
0
 40
10.0
 50
270.0
 51
0
210
0
220
0
230
1.0
 0
LINE
 8
TOOL_0
 5
156
 10
3698.428
 20
138.793
 30
0
 11
3698.428
 21
221.293
 31
0
 0
LINE
 8
TOOL_0
 5
157
 10
3698.428
 20
221.293
 30
0
 11
3694.892
 21
224.829
 31
0
 0
LINE
 8
TOOL_0
 5
158
 10
3694.892
 20
224.829
 30
0
 11
3768.469
 21
39.76
 31
0
 0
LINE
 8
TOOL_0
 5
159
 10
3768.469
 20
39.76
 30
0
 11
3768.469
 21
19.914
 31
0
 0
LINE
 8
TOOL_0
 5
15A
 10
3768.469
 20
19.914
 30
0
 11
3759.427
 21
20.294
 31
0
 0
LINE
 8
TOOL_0
 5
15B
 10
3759.427
 20
20.294
 30
0
 11
3279.427
 21
20.294
 31
0
 0
LINE
 8
TOOL_0
 5
15C
 10
3279.427
 20
20.294
 30
0
 11
3279.427
 21
422.294
 31
0
 0
LINE
 8
TOOL_0
 5
15D
 10
3279.427
 20
422.294
 30
0
 11
3759.427
 21
422.294
 31
0
 0
LINE
 8
TOOL_0
 5
15E
 10
3759.427
 20
422.294
 30
0
 11
3759.427
 21
20.294
 31
0
 0
LINE
 8
TOOL_0
 5
15F
 10
3759.427
 20
20.294
 30
0
 11
3759.427
 21
15.294
 31
0
 0
LINE
 8
TOOL_0
 5
160
 10
3759.427
 20
15.294
 30
0
 11
3892.907
 21
221.294
 31
0
 0
LINE
 8
TOOL_0
 5
161
 10
3892.907
 20
221.294
 30
0
 11
3922.907
 21
221.294
 31
0
 0
LINE
 8
TOOL_0
 5
162
 10
3922.907
 20
221.294
 30
0
 11
3922.907
 21
303.794
 31
0
 0
ARC
 8
TOOL_0
 5
163
 10
3912.907
 20
303.794
 30
0
 40
10.0
 50
0
 51
90.0
210
0
220
0
230
1.0
 0
LINE
 8
TOOL_0
 5
164
 10
3912.907
 20
313.794
 30
0
 11
3872.907
 21
313.794
 31
0
 0
ARC
 8
TOOL_0
 5
165
 10
3872.907
 20
303.794
 30
0
 40
10.0
 50
90.0
 51
180.0
210
0
220
0
230
1.0
 0
LINE
 8
TOOL_0
 5
166
 10
3862.907
 20
303.794
 30
0
 11
3862.907
 21
138.794
 31
0
 0
ARC
 8
TOOL_0
 5
167
 10
3872.907
 20
138.794
 30
0
 40
10.0
 50
180.0
 51
270.0
210
0
220
0
230
1.0
 0
LINE
 8
TOOL_0
 5
168
 10
3872.907
 20
128.794
 30
0
 11
3912.907
 21
128.794
 31
0
 0
ARC
 8
TOOL_0
 5
169
 10
3912.907
 20
138.794
 30
0
 40
10.0
 50
270.0
 51
0
210
0
220
0
230
1.0
 0
LINE
 8
TOOL_0
 5
16A
 10
3922.907
 20
138.794
 30
0
 11
3922.907
 21
221.294
 31
0
 0
LINE
 8
TOOL_0
 5
16B
 10
3922.907
 20
221.294
 30
0
 11
3919.371
 21
224.83
 31
0
 0
LINE
 8
TOOL_0
 5
16C
 10
3919.371
 20
224.83
 30
0
 11
3984.906
 21
221.295
 31
0
 0
LINE
 8
TOOL_0
 5
16D
 10
3984.906
 20
221.295
 30
0
 11
4014.906
 21
221.295
 31
0
 0
LINE
 8
TOOL_0
 5
16E
 10
4014.906
 20
221.295
 30
0
 11
4014.906
 21
303.795
 31
0
 0
ARC
 8
TOOL_0
 5
16F
 10
4004.906
 20
303.795
 30
0
 40
10.0
 50
0
 51
90.0
210
0
220
0
230
1.0
 0
LINE
 8
TOOL_0
 5
170
 10
4004.906
 20
313.795
 30
0
 11
3964.906
 21
313.795
 31
0
 0
ARC
 8
TOOL_0
 5
171
 10
3964.906
 20
303.795
 30
0
 40
10.0
 50
90.0
 51
180.0
210
0
220
0
230
1.0
 0
LINE
 8
TOOL_0
 5
172
 10
3954.906
 20
303.795
 30
0
 11
3954.906
 21
138.795
 31
0
 0
ARC
 8
TOOL_0
 5
173
 10
3964.906
 20
138.795
 30
0
 40
10.0
 50
180.0
 51
270.0
210
0
220
0
230
1.0
 0
LINE
 8
TOOL_0
 5
174
 10
3964.906
 20
128.795
 30
0
 11
4004.906
 21
128.795
 31
0
 0
ARC
 8
TOOL_0
 5
175
 10
4004.906
 20
138.795
 30
0
 40
10.0
 50
270.0
 51
0
210
0
220
0
230
1.0
 0
LINE
 8
TOOL_0
 5
176
 10
4014.906
 20
138.795
 30
0
 11
4014.906
 21
221.295
 31
0
 0
LINE
 8
TOOL_0
 5
177
 10
4014.906
 20
221.295
 30
0
 11
4011.37
 21
224.831
 31
0
 0
LINE
 8
TOOL_0
 5
178
 10
4011.37
 20
224.831
 30
0
 11
4076.905
 21
221.296
 31
0
 0
LINE
 8
TOOL_0
 5
179
 10
4076.905
 20
221.296
 30
0
 11
4106.905
 21
221.296
 31
0
 0
LINE
 8
TOOL_0
 5
17A
 10
4106.905
 20
221.296
 30
0
 11
4106.905
 21
303.796
 31
0
 0
ARC
 8
TOOL_0
 5
17B
 10
4096.905
 20
303.796
 30
0
 40
10.0
 50
0
 51
90.0
210
0
220
0
230
1.0
 0
LINE
 8
TOOL_0
 5
17C
 10
4096.905
 20
313.796
 30
0
 11
4056.905
 21
313.796
 31
0
 0
ARC
 8
TOOL_0
 5
17D
 10
4056.905
 20
303.796
 30
0
 40
10.0
 50
90.0
 51
180.0
210
0
220
0
230
1.0
 0
LINE
 8
TOOL_0
 5
17E
 10
4046.905
 20
303.796
 30
0
 11
4046.905
 21
138.796
 31
0
 0
ARC
 8
TOOL_0
 5
17F
 10
4056.905
 20
138.796
 30
0
 40
10.0
 50
180.0
 51
270.0
210
0
220
0
230
1.0
 0
LINE
 8
TOOL_0
 5
180
 10
4056.905
 20
128.796
 30
0
 11
4096.905
 21
128.796
 31
0
 0
ARC
 8
TOOL_0
 5
181
 10
4096.905
 20
138.796
 30
0
 40
10.0
 50
270.0
 51
0
210
0
220
0
230
1.0
 0
LINE
 8
TOOL_0
 5
182
 10
4106.905
 20
138.796
 30
0
 11
4106.905
 21
221.296
 31
0
 0
LINE
 8
TOOL_0
 5
183
 10
4106.905
 20
221.296
 30
0
 11
4103.369
 21
224.832
 31
0
 0
LINE
 8
TOOL_0
 5
184
 10
4103.369
 20
224.832
 30
0
 11
4168.904
 21
221.297
 31
0
 0
LINE
 8
TOOL_0
 5
185
 10
4168.904
 20
221.297
 30
0
 11
4198.904
 21
221.297
 31
0
 0
LINE
 8
TOOL_0
 5
186
 10
4198.904
 20
221.297
 30
0
 11
4198.904
 21
303.797
 31
0
 0
ARC
 8
TOOL_0
 5
187
 10
4188.904
 20
303.797
 30
0
 40
10.0
 50
0
 51
90.0
210
0
220
0
230
1.0
 0
LINE
 8
TOOL_0
 5
188
 10
4188.904
 20
313.797
 30
0
 11
4148.904
 21
313.797
 31
0
 0
ARC
 8
TOOL_0
 5
189
 10
4148.904
 20
303.797
 30
0
 40
10.0
 50
90.0
 51
180.0
210
0
220
0
230
1.0
 0
LINE
 8
TOOL_0
 5
18A
 10
4138.904
 20
303.797
 30
0
 11
4138.904
 21
138.797
 31
0
 0
ARC
 8
TOOL_0
 5
18B
 10
4148.904
 20
138.797
 30
0
 40
10.0
 50
180.0
 51
270.0
210
0
220
0
230
1.0
 0
LINE
 8
TOOL_0
 5
18C
 10
4148.904
 20
128.797
 30
0
 11
4188.904
 21
128.797
 31
0
 0
ARC
 8
TOOL_0
 5
18D
 10
4188.904
 20
138.797
 30
0
 40
10.0
 50
270.0
 51
0
210
0
220
0
230
1.0
 0
LINE
 8
TOOL_0
 5
18E
 10
4198.904
 20
138.797
 30
0
 11
4198.904
 21
221.297
 31
0
 0
LINE
 8
TOOL_0
 5
18F
 10
4198.904
 20
221.297
 30
0
 11
4195.368
 21
224.833
 31
0
 0
LINE
 8
TOOL_0
 5
190
 10
4195.368
 20
224.833
 30
0
 11
4268.945
 21
39.764
 31
0
 0
LINE
 8
TOOL_0
 5
191
 10
4268.945
 20
39.764
 30
0
 11
4268.945
 21
19.918
 31
0
 0
LINE
 8
TOOL_0
 5
192
 10
4268.945
 20
19.918
 30
0
 11
4259.903
 21
20.298
 31
0
 0
LINE
 8
TOOL_0
 5
193
 10
4259.903
 20
20.298
 30
0
 11
3779.903
 21
20.298
 31
0
 0
LINE
 8
TOOL_0
 5
194
 10
3779.903
 20
20.298
 30
0
 11
3779.903
 21
422.298
 31
0
 0
LINE
 8
TOOL_0
 5
195
 10
3779.903
 20
422.298
 30
0
 11
4259.903
 21
422.298
 31
0
 0
LINE
 8
TOOL_0
 5
196
 10
4259.903
 20
422.298
 30
0
 11
4259.903
 21
20.298
 31
0
 0
LINE
 8
TOOL_0
 5
197
 10
4259.903
 20
20.298
 30
0
 11
4259.903
 21
15.298
 31
0
 0
LINE
 8
TOOL_0
 5
198
 10
4259.903
 20
15.298
 30
0
 11
4687.576
 21
20.356
 31
0
 0
LINE
 8
TOOL_0
 5
199
 10
4687.576
 20
20.356
 30
0
 11
4657.306
 21
20.356
 31
0
 0
LINE
 8
TOOL_0
 5
19A
 10
4657.306
 20
20.356
 30
0
 11
4285.306
 21
20.356
 31
0
 0
ARC
 8
TOOL_0
 5
19B
 10
4285.306
 20
25.356
 30
0
 40
5.0
 50
180.0
 51
270.0
210
0
220
0
230
1.0
 0
LINE
 8
TOOL_0
 5
19C
 10
4280.306
 20
25.356
 30
0
 11
4280.306
 21
241.856
 31
0
 0
ARC
 8
TOOL_0
 5
19D
 10
4285.306
 20
241.856
 30
0
 40
5.0
 50
90.0
 51
180.0
210
0
220
0
230
1.0
 0
LINE
 8
TOOL_0
 5
19E
 10
4285.306
 20
246.856
 30
0
 11
4657.306
 21
246.856
 31
0
 0
ARC
 8
TOOL_0
 5
19F
 10
4657.306
 20
241.856
 30
0
 40
5.0
 50
0
 51
90.0
210
0
220
0
230
1.0
 0
LINE
 8
TOOL_0
 5
1A0
 10
4662.306
 20
241.856
 30
0
 11
4662.306
 21
25.356
 31
0
 0
ARC
 8
TOOL_0
 5
1A1
 10
4657.306
 20
25.356
 30
0
 40
5.0
 50
270.0
 51
0
210
0
220
0
230
1.0
 0
LINE
 8
TOOL_0
 5
1A2
 10
4657.306
 20
20.356
 30
0
 11
4653.574
 21
16.7
 31
0
 0
LINE
 8
TOOL_0
 5
1A3
 10
4653.574
 20
16.7
 30
0
 11
4687.577
 21
267.021
 31
0
 0
LINE
 8
TOOL_0
 5
1A4
 10
4687.577
 20
267.021
 30
0
 11
4657.306
 21
267.021
 31
0
 0
LINE
 8
TOOL_0
 5
1A5
 10
4657.306
 20
267.021
 30
0
 11
4285.306
 21
267.021
 31
0
 0
ARC
 8
TOOL_0
 5
1A6
 10
4285.306
 20
272.021
 30
0
 40
5.0
 50
180.0
 51
270.0
210
0
220
0
230
1.0
 0
LINE
 8
TOOL_0
 5
1A7
 10
4280.306
 20
272.021
 30
0
 11
4280.306
 21
488.521
 31
0
 0
ARC
 8
TOOL_0
 5
1A8
 10
4285.306
 20
488.521
 30
0
 40
5.0
 50
90.0
 51
180.0
210
0
220
0
230
1.0
 0
LINE
 8
TOOL_0
 5
1A9
 10
4285.306
 20
493.521
 30
0
 11
4657.306
 21
493.521
 31
0
 0
ARC
 8
TOOL_0
 5
1AA
 10
4657.306
 20
488.521
 30
0
 40
5.0
 50
0
 51
90.0
210
0
220
0
230
1.0
 0
LINE
 8
TOOL_0
 5
1AB
 10
4662.306
 20
488.521
 30
0
 11
4662.306
 21
272.021
 31
0
 0
ARC
 8
TOOL_0
 5
1AC
 10
4657.306
 20
272.021
 30
0
 40
5.0
 50
270.0
 51
0
210
0
220
0
230
1.0
 0
LINE
 8
TOOL_0
 5
1AD
 10
4657.306
 20
267.021
 30
0
 11
4653.574
 21
263.365
 31
0
 0
LINE
 8
TOOL_0
 5
1AE
 10
4653.574
 20
263.365
 30
0
 11
4732.655
 21
0.01
 31
0
 0
LINE
 8
TOOL_0
 5
1AF
 10
4732.655
 20
0.01
 30
0
 11
4732.655
 21
1.01
 31
0
 0
LINE
 8
TOOL_0
 5
1B0
 10
4732.655
 20
1.01
 30
0
 11
4732.655
 21
0.01
 31
0
 0
LINE
 8
TOOL_0
 5
1B1
 10
4732.655
 20
0.01
 30
0
 11
4732.655
 21
0.01
 31
0
 0
LINE
 8
TOOL_0
 5
1B2
 10
4732.655
 20
0.01
 30
0
 11
4732.655
 21
1.01
 31
0
 0
LINE
 8
TOOL_0
 5
1B3
 10
4732.655
 20
1.01
 30
0
 11
4732.655
 21
2499.01
 31
0
 0
LINE
 8
TOOL_0
 5
1B4
 10
4732.655
 20
2499.01
 30
0
 11
4732.655
 21
2500.01
 31
0
 0
ENDSEC
 0
EOF

