0
SECTION
2
TABLES
0
TABLE
2
LAYER
70
0
0
LAYER
2
LAYER_NAME
70
0
62
1
6
CONTINUOUS
0
ENDTAB
0
ENDSEC
 0
SECTION
 2
ENTITIES
 0
LINE
 8
TOOL_0
 5
1
 10
743.933
 20
328.522
 30
0
 11
743.933
 21
297.494
 31
0
 0
LINE
 8
TOOL_0
 5
2
 10
743.933
 20
297.494
 30
0
 11
733.434
 21
297.834
 31
0
 0
LINE
 8
TOOL_0
 5
3
 10
733.434
 20
297.834
 30
0
 11
381.934
 21
297.834
 31
0
 0
LINE
 8
TOOL_0
 5
4
 10
381.934
 20
297.834
 30
0
 11
381.934
 21
449.334
 31
0
 0
LINE
 8
TOOL_0
 5
5
 10
381.934
 20
449.334
 30
0
 11
733.434
 21
449.334
 31
0
 0
LINE
 8
TOOL_0
 5
6
 10
733.434
 20
449.334
 30
0
 11
733.434
 21
297.834
 31
0
 0
LINE
 8
TOOL_0
 5
7
 10
733.434
 20
297.834
 30
0
 11
733.434
 21
292.545
 31
0
 0
LINE
 8
TOOL_0
 5
8
 10
733.434
 20
292.545
 30
0
 11
743.933
 21
500.023
 31
0
 0
LINE
 8
TOOL_0
 5
9
 10
743.933
 20
500.023
 30
0
 11
743.933
 21
468.994
 31
0
 0
LINE
 8
TOOL_0
 5
A
 10
743.933
 20
468.994
 30
0
 11
733.434
 21
469.334
 31
0
 0
LINE
 8
TOOL_0
 5
B
 10
733.434
 20
469.334
 30
0
 11
381.934
 21
469.334
 31
0
 0
LINE
 8
TOOL_0
 5
C
 10
381.934
 20
469.334
 30
0
 11
381.934
 21
620.834
 31
0
 0
LINE
 8
TOOL_0
 5
D
 10
381.934
 20
620.834
 30
0
 11
733.434
 21
620.834
 31
0
 0
LINE
 8
TOOL_0
 5
E
 10
733.434
 20
620.834
 30
0
 11
733.434
 21
469.334
 31
0
 0
LINE
 8
TOOL_0
 5
F
 10
733.434
 20
469.334
 30
0
 11
733.434
 21
464.045
 31
0
 0
LINE
 8
TOOL_0
 5
10
 10
733.434
 20
464.045
 30
0
 11
1992.603
 21
328.522
 31
0
 0
LINE
 8
TOOL_0
 5
11
 10
1992.603
 20
328.522
 30
0
 11
1992.603
 21
297.494
 31
0
 0
LINE
 8
TOOL_0
 5
12
 10
1992.603
 20
297.494
 30
0
 11
1982.104
 21
297.834
 31
0
 0
LINE
 8
TOOL_0
 5
13
 10
1982.104
 20
297.834
 30
0
 11
1630.604
 21
297.834
 31
0
 0
LINE
 8
TOOL_0
 5
14
 10
1630.604
 20
297.834
 30
0
 11
1630.604
 21
449.334
 31
0
 0
LINE
 8
TOOL_0
 5
15
 10
1630.604
 20
449.334
 30
0
 11
1982.104
 21
449.334
 31
0
 0
LINE
 8
TOOL_0
 5
16
 10
1982.104
 20
449.334
 30
0
 11
1982.104
 21
297.834
 31
0
 0
LINE
 8
TOOL_0
 5
17
 10
1982.104
 20
297.834
 30
0
 11
1982.104
 21
292.545
 31
0
 0
LINE
 8
TOOL_0
 5
18
 10
1982.104
 20
292.545
 30
0
 11
1992.603
 21
500.023
 31
0
 0
LINE
 8
TOOL_0
 5
19
 10
1992.603
 20
500.023
 30
0
 11
1992.603
 21
468.994
 31
0
 0
LINE
 8
TOOL_0
 5
1A
 10
1992.603
 20
468.994
 30
0
 11
1982.104
 21
469.334
 31
0
 0
LINE
 8
TOOL_0
 5
1B
 10
1982.104
 20
469.334
 30
0
 11
1630.604
 21
469.334
 31
0
 0
LINE
 8
TOOL_0
 5
1C
 10
1630.604
 20
469.334
 30
0
 11
1630.604
 21
620.834
 31
0
 0
LINE
 8
TOOL_0
 5
1D
 10
1630.604
 20
620.834
 30
0
 11
1982.104
 21
620.834
 31
0
 0
LINE
 8
TOOL_0
 5
1E
 10
1982.104
 20
620.834
 30
0
 11
1982.104
 21
469.334
 31
0
 0
LINE
 8
TOOL_0
 5
1F
 10
1982.104
 20
469.334
 30
0
 11
1982.104
 21
464.045
 31
0
 0
LINE
 8
TOOL_0
 5
20
 10
1982.104
 20
464.045
 30
0
 11
3241.274
 21
328.522
 31
0
 0
LINE
 8
TOOL_0
 5
21
 10
3241.274
 20
328.522
 30
0
 11
3241.274
 21
297.494
 31
0
 0
LINE
 8
TOOL_0
 5
22
 10
3241.274
 20
297.494
 30
0
 11
3230.775
 21
297.834
 31
0
 0
LINE
 8
TOOL_0
 5
23
 10
3230.775
 20
297.834
 30
0
 11
2879.275
 21
297.834
 31
0
 0
LINE
 8
TOOL_0
 5
24
 10
2879.275
 20
297.834
 30
0
 11
2879.275
 21
449.334
 31
0
 0
LINE
 8
TOOL_0
 5
25
 10
2879.275
 20
449.334
 30
0
 11
3230.775
 21
449.334
 31
0
 0
LINE
 8
TOOL_0
 5
26
 10
3230.775
 20
449.334
 30
0
 11
3230.775
 21
297.834
 31
0
 0
LINE
 8
TOOL_0
 5
27
 10
3230.775
 20
297.834
 30
0
 11
3230.775
 21
292.545
 31
0
 0
LINE
 8
TOOL_0
 5
28
 10
3230.775
 20
292.545
 30
0
 11
3241.274
 21
500.023
 31
0
 0
LINE
 8
TOOL_0
 5
29
 10
3241.274
 20
500.023
 30
0
 11
3241.274
 21
468.994
 31
0
 0
LINE
 8
TOOL_0
 5
2A
 10
3241.274
 20
468.994
 30
0
 11
3230.775
 21
469.334
 31
0
 0
LINE
 8
TOOL_0
 5
2B
 10
3230.775
 20
469.334
 30
0
 11
2879.275
 21
469.334
 31
0
 0
LINE
 8
TOOL_0
 5
2C
 10
2879.275
 20
469.334
 30
0
 11
2879.275
 21
620.834
 31
0
 0
LINE
 8
TOOL_0
 5
2D
 10
2879.275
 20
620.834
 30
0
 11
3230.775
 21
620.834
 31
0
 0
LINE
 8
TOOL_0
 5
2E
 10
3230.775
 20
620.834
 30
0
 11
3230.775
 21
469.334
 31
0
 0
LINE
 8
TOOL_0
 5
2F
 10
3230.775
 20
469.334
 30
0
 11
3230.775
 21
464.045
 31
0
 0
LINE
 8
TOOL_0
 5
30
 10
3230.775
 20
464.045
 30
0
 11
4489.944
 21
328.522
 31
0
 0
LINE
 8
TOOL_0
 5
31
 10
4489.944
 20
328.522
 30
0
 11
4489.944
 21
297.494
 31
0
 0
LINE
 8
TOOL_0
 5
32
 10
4489.944
 20
297.494
 30
0
 11
4479.445
 21
297.834
 31
0
 0
LINE
 8
TOOL_0
 5
33
 10
4479.445
 20
297.834
 30
0
 11
4127.945
 21
297.834
 31
0
 0
LINE
 8
TOOL_0
 5
34
 10
4127.945
 20
297.834
 30
0
 11
4127.945
 21
449.334
 31
0
 0
LINE
 8
TOOL_0
 5
35
 10
4127.945
 20
449.334
 30
0
 11
4479.445
 21
449.334
 31
0
 0
LINE
 8
TOOL_0
 5
36
 10
4479.445
 20
449.334
 30
0
 11
4479.445
 21
297.834
 31
0
 0
LINE
 8
TOOL_0
 5
37
 10
4479.445
 20
297.834
 30
0
 11
4479.445
 21
292.545
 31
0
 0
LINE
 8
TOOL_0
 5
38
 10
4479.445
 20
292.545
 30
0
 11
4489.944
 21
500.023
 31
0
 0
LINE
 8
TOOL_0
 5
39
 10
4489.944
 20
500.023
 30
0
 11
4489.944
 21
468.994
 31
0
 0
LINE
 8
TOOL_0
 5
3A
 10
4489.944
 20
468.994
 30
0
 11
4479.445
 21
469.334
 31
0
 0
LINE
 8
TOOL_0
 5
3B
 10
4479.445
 20
469.334
 30
0
 11
4127.945
 21
469.334
 31
0
 0
LINE
 8
TOOL_0
 5
3C
 10
4127.945
 20
469.334
 30
0
 11
4127.945
 21
620.834
 31
0
 0
LINE
 8
TOOL_0
 5
3D
 10
4127.945
 20
620.834
 30
0
 11
4479.445
 21
620.834
 31
0
 0
LINE
 8
TOOL_0
 5
3E
 10
4479.445
 20
620.834
 30
0
 11
4479.445
 21
469.334
 31
0
 0
LINE
 8
TOOL_0
 5
3F
 10
4479.445
 20
469.334
 30
0
 11
4479.445
 21
464.045
 31
0
 0
LINE
 8
TOOL_0
 5
40
 10
4479.445
 20
464.045
 30
0
 11
5774.808
 21
326.782
 31
0
 0
LINE
 8
TOOL_0
 5
41
 10
5774.808
 20
326.782
 30
0
 11
5774.808
 21
295.753
 31
0
 0
LINE
 8
TOOL_0
 5
42
 10
5774.808
 20
295.753
 30
0
 11
5764.309
 21
296.093
 31
0
 0
LINE
 8
TOOL_0
 5
43
 10
5764.309
 20
296.093
 30
0
 11
5412.809
 21
296.093
 31
0
 0
LINE
 8
TOOL_0
 5
44
 10
5412.809
 20
296.093
 30
0
 11
5412.809
 21
447.593
 31
0
 0
LINE
 8
TOOL_0
 5
45
 10
5412.809
 20
447.593
 30
0
 11
5764.309
 21
447.593
 31
0
 0
LINE
 8
TOOL_0
 5
46
 10
5764.309
 20
447.593
 30
0
 11
5764.309
 21
296.093
 31
0
 0
LINE
 8
TOOL_0
 5
47
 10
5764.309
 20
296.093
 30
0
 11
5764.309
 21
290.804
 31
0
 0
LINE
 8
TOOL_0
 5
48
 10
5764.309
 20
290.804
 30
0
 11
5774.808
 21
498.281
 31
0
 0
LINE
 8
TOOL_0
 5
49
 10
5774.808
 20
498.281
 30
0
 11
5774.808
 21
467.252
 31
0
 0
LINE
 8
TOOL_0
 5
4A
 10
5774.808
 20
467.252
 30
0
 11
5764.309
 21
467.592
 31
0
 0
LINE
 8
TOOL_0
 5
4B
 10
5764.309
 20
467.592
 30
0
 11
5412.809
 21
467.592
 31
0
 0
LINE
 8
TOOL_0
 5
4C
 10
5412.809
 20
467.592
 30
0
 11
5412.809
 21
619.092
 31
0
 0
LINE
 8
TOOL_0
 5
4D
 10
5412.809
 20
619.092
 30
0
 11
5764.309
 21
619.092
 31
0
 0
LINE
 8
TOOL_0
 5
4E
 10
5764.309
 20
619.092
 30
0
 11
5764.309
 21
467.592
 31
0
 0
LINE
 8
TOOL_0
 5
4F
 10
5764.309
 20
467.592
 30
0
 11
5764.309
 21
462.303
 31
0
 0
LINE
 8
TOOL_0
 5
50
 10
5764.309
 20
462.303
 30
0
 11
860.75
 21
460.748
 31
0
 0
LINE
 8
TOOL_0
 5
51
 10
860.75
 20
460.748
 30
0
 11
890.75
 21
460.748
 31
0
 0
LINE
 8
TOOL_0
 5
52
 10
890.75
 20
460.748
 30
0
 11
890.75
 21
545.748
 31
0
 0
ARC
 8
TOOL_0
 5
53
 10
790.75
 20
545.748
 30
0
 40
100.0
 50
0
 51
89.999427042205
210
0
220
0
230
1.0
 0
LINE
 8
TOOL_0
 5
54
 10
790.751
 20
645.748
 30
0
 11
390.75
 21
645.748
 31
0
 0
ARC
 8
TOOL_0
 5
55
 10
390.75
 20
545.748
 30
0
 40
100.0
 50
90.0
 51
180.0
210
0
220
0
230
1.0
 0
LINE
 8
TOOL_0
 5
56
 10
290.75
 20
545.748
 30
0
 11
290.75
 21
375.748
 31
0
 0
ARC
 8
TOOL_0
 5
57
 10
390.75
 20
375.748
 30
0
 40
100.0
 50
180.0
 51
270.0
210
0
220
0
230
1.0
 0
LINE
 8
TOOL_0
 5
58
 10
390.75
 20
275.748
 30
0
 11
790.75
 21
275.748
 31
0
 0
ARC
 8
TOOL_0
 5
59
 10
790.75
 20
375.748
 30
0
 40
100.0
 50
270.0
 51
359.999427042205
210
0
220
0
230
1.0
 0
LINE
 8
TOOL_0
 5
5A
 10
890.75
 20
375.747
 30
0
 11
890.75
 21
460.748
 31
0
 0
LINE
 8
TOOL_0
 5
5B
 10
890.75
 20
460.748
 30
0
 11
887.214
 21
464.284
 31
0
 0
LINE
 8
TOOL_0
 5
5C
 10
887.214
 20
464.284
 30
0
 11
1258.018
 21
43.382
 31
0
 0
LINE
 8
TOOL_0
 5
5D
 10
1258.018
 20
43.382
 30
0
 11
1258.018
 21
19.83
 31
0
 0
LINE
 8
TOOL_0
 5
5E
 10
1258.018
 20
19.83
 30
0
 11
1246.5
 21
19.999
 31
0
 0
LINE
 8
TOOL_0
 5
5F
 10
1246.5
 20
19.999
 30
0
 11
20.0
 21
19.999
 31
0
 0
LINE
 8
TOOL_0
 5
60
 10
20.0
 20
19.999
 30
0
 11
20.0
 21
901.499
 31
0
 0
LINE
 8
TOOL_0
 5
61
 10
20.0
 20
901.499
 30
0
 11
1246.5
 21
901.499
 31
0
 0
LINE
 8
TOOL_0
 5
62
 10
1246.5
 20
901.499
 30
0
 11
1246.5
 21
19.999
 31
0
 0
LINE
 8
TOOL_0
 5
63
 10
1246.5
 20
19.999
 30
0
 11
1246.5
 21
14.859
 31
0
 0
LINE
 8
TOOL_0
 5
64
 10
1246.5
 20
14.859
 30
0
 11
2109.42
 21
460.749
 31
0
 0
LINE
 8
TOOL_0
 5
65
 10
2109.42
 20
460.749
 30
0
 11
2139.42
 21
460.749
 31
0
 0
LINE
 8
TOOL_0
 5
66
 10
2139.42
 20
460.749
 30
0
 11
2139.42
 21
545.749
 31
0
 0
ARC
 8
TOOL_0
 5
67
 10
2039.42
 20
545.749
 30
0
 40
100.0
 50
0
 51
89.999427042205
210
0
220
0
230
1.0
 0
LINE
 8
TOOL_0
 5
68
 10
2039.421
 20
645.749
 30
0
 11
1639.42
 21
645.749
 31
0
 0
ARC
 8
TOOL_0
 5
69
 10
1639.42
 20
545.749
 30
0
 40
100.0
 50
90.0
 51
180.0
210
0
220
0
230
1.0
 0
LINE
 8
TOOL_0
 5
6A
 10
1539.42
 20
545.749
 30
0
 11
1539.42
 21
375.749
 31
0
 0
ARC
 8
TOOL_0
 5
6B
 10
1639.42
 20
375.749
 30
0
 40
100.0
 50
180.0
 51
270.0
210
0
220
0
230
1.0
 0
LINE
 8
TOOL_0
 5
6C
 10
1639.42
 20
275.749
 30
0
 11
2039.42
 21
275.749
 31
0
 0
ARC
 8
TOOL_0
 5
6D
 10
2039.42
 20
375.749
 30
0
 40
100.0
 50
270.0
 51
359.999427042205
210
0
220
0
230
1.0
 0
LINE
 8
TOOL_0
 5
6E
 10
2139.42
 20
375.748
 30
0
 11
2139.42
 21
460.749
 31
0
 0
LINE
 8
TOOL_0
 5
6F
 10
2139.42
 20
460.749
 30
0
 11
2135.884
 21
464.285
 31
0
 0
LINE
 8
TOOL_0
 5
70
 10
2135.884
 20
464.285
 30
0
 11
2506.688
 21
43.383
 31
0
 0
LINE
 8
TOOL_0
 5
71
 10
2506.688
 20
43.383
 30
0
 11
2506.688
 21
19.831
 31
0
 0
LINE
 8
TOOL_0
 5
72
 10
2506.688
 20
19.831
 30
0
 11
2495.17
 21
20.0
 31
0
 0
LINE
 8
TOOL_0
 5
73
 10
2495.17
 20
20.0
 30
0
 11
1268.67
 21
20.0
 31
0
 0
LINE
 8
TOOL_0
 5
74
 10
1268.67
 20
20.0
 30
0
 11
1268.67
 21
901.5
 31
0
 0
LINE
 8
TOOL_0
 5
75
 10
1268.67
 20
901.5
 30
0
 11
2495.17
 21
901.5
 31
0
 0
LINE
 8
TOOL_0
 5
76
 10
2495.17
 20
901.5
 30
0
 11
2495.17
 21
20.0
 31
0
 0
LINE
 8
TOOL_0
 5
77
 10
2495.17
 20
20.0
 30
0
 11
2495.17
 21
14.86
 31
0
 0
LINE
 8
TOOL_0
 5
78
 10
2495.17
 20
14.86
 30
0
 11
3358.091
 21
460.75
 31
0
 0
LINE
 8
TOOL_0
 5
79
 10
3358.091
 20
460.75
 30
0
 11
3388.091
 21
460.75
 31
0
 0
LINE
 8
TOOL_0
 5
7A
 10
3388.091
 20
460.75
 30
0
 11
3388.091
 21
545.75
 31
0
 0
ARC
 8
TOOL_0
 5
7B
 10
3288.091
 20
545.75
 30
0
 40
100.0
 50
0
 51
89.999427042205
210
0
220
0
230
1.0
 0
LINE
 8
TOOL_0
 5
7C
 10
3288.092
 20
645.75
 30
0
 11
2888.091
 21
645.75
 31
0
 0
ARC
 8
TOOL_0
 5
7D
 10
2888.091
 20
545.75
 30
0
 40
100.0
 50
90.0
 51
180.0
210
0
220
0
230
1.0
 0
LINE
 8
TOOL_0
 5
7E
 10
2788.091
 20
545.75
 30
0
 11
2788.091
 21
375.75
 31
0
 0
ARC
 8
TOOL_0
 5
7F
 10
2888.091
 20
375.75
 30
0
 40
100.0
 50
180.0
 51
270.0
210
0
220
0
230
1.0
 0
LINE
 8
TOOL_0
 5
80
 10
2888.091
 20
275.75
 30
0
 11
3288.091
 21
275.75
 31
0
 0
ARC
 8
TOOL_0
 5
81
 10
3288.091
 20
375.75
 30
0
 40
100.0
 50
270.0
 51
359.999427042205
210
0
220
0
230
1.0
 0
LINE
 8
TOOL_0
 5
82
 10
3388.091
 20
375.749
 30
0
 11
3388.091
 21
460.75
 31
0
 0
LINE
 8
TOOL_0
 5
83
 10
3388.091
 20
460.75
 30
0
 11
3384.555
 21
464.286
 31
0
 0
LINE
 8
TOOL_0
 5
84
 10
3384.555
 20
464.286
 30
0
 11
3755.359
 21
43.384
 31
0
 0
LINE
 8
TOOL_0
 5
85
 10
3755.359
 20
43.384
 30
0
 11
3755.359
 21
19.832
 31
0
 0
LINE
 8
TOOL_0
 5
86
 10
3755.359
 20
19.832
 30
0
 11
3743.841
 21
20.001
 31
0
 0
LINE
 8
TOOL_0
 5
87
 10
3743.841
 20
20.001
 30
0
 11
2517.341
 21
20.001
 31
0
 0
LINE
 8
TOOL_0
 5
88
 10
2517.341
 20
20.001
 30
0
 11
2517.341
 21
901.501
 31
0
 0
LINE
 8
TOOL_0
 5
89
 10
2517.341
 20
901.501
 30
0
 11
3743.841
 21
901.501
 31
0
 0
LINE
 8
TOOL_0
 5
8A
 10
3743.841
 20
901.501
 30
0
 11
3743.841
 21
20.001
 31
0
 0
LINE
 8
TOOL_0
 5
8B
 10
3743.841
 20
20.001
 30
0
 11
3743.841
 21
14.861
 31
0
 0
LINE
 8
TOOL_0
 5
8C
 10
3743.841
 20
14.861
 30
0
 11
4606.761
 21
460.751
 31
0
 0
LINE
 8
TOOL_0
 5
8D
 10
4606.761
 20
460.751
 30
0
 11
4636.761
 21
460.751
 31
0
 0
LINE
 8
TOOL_0
 5
8E
 10
4636.761
 20
460.751
 30
0
 11
4636.761
 21
545.751
 31
0
 0
ARC
 8
TOOL_0
 5
8F
 10
4536.761
 20
545.751
 30
0
 40
100.0
 50
0
 51
89.999427042205
210
0
220
0
230
1.0
 0
LINE
 8
TOOL_0
 5
90
 10
4536.762
 20
645.751
 30
0
 11
4136.761
 21
645.751
 31
0
 0
ARC
 8
TOOL_0
 5
91
 10
4136.761
 20
545.751
 30
0
 40
100.0
 50
90.0
 51
180.0
210
0
220
0
230
1.0
 0
LINE
 8
TOOL_0
 5
92
 10
4036.761
 20
545.751
 30
0
 11
4036.761
 21
375.751
 31
0
 0
ARC
 8
TOOL_0
 5
93
 10
4136.761
 20
375.751
 30
0
 40
100.0
 50
180.0
 51
270.0
210
0
220
0
230
1.0
 0
LINE
 8
TOOL_0
 5
94
 10
4136.761
 20
275.751
 30
0
 11
4536.761
 21
275.751
 31
0
 0
ARC
 8
TOOL_0
 5
95
 10
4536.761
 20
375.751
 30
0
 40
100.0
 50
270.0
 51
359.999427042205
210
0
220
0
230
1.0
 0
LINE
 8
TOOL_0
 5
96
 10
4636.761
 20
375.75
 30
0
 11
4636.761
 21
460.751
 31
0
 0
LINE
 8
TOOL_0
 5
97
 10
4636.761
 20
460.751
 30
0
 11
4633.225
 21
464.287
 31
0
 0
LINE
 8
TOOL_0
 5
98
 10
4633.225
 20
464.287
 30
0
 11
5004.029
 21
43.385
 31
0
 0
LINE
 8
TOOL_0
 5
99
 10
5004.029
 20
43.385
 30
0
 11
5004.029
 21
19.833
 31
0
 0
LINE
 8
TOOL_0
 5
9A
 10
5004.029
 20
19.833
 30
0
 11
4992.511
 21
20.002
 31
0
 0
LINE
 8
TOOL_0
 5
9B
 10
4992.511
 20
20.002
 30
0
 11
3766.011
 21
20.002
 31
0
 0
LINE
 8
TOOL_0
 5
9C
 10
3766.011
 20
20.002
 30
0
 11
3766.011
 21
901.502
 31
0
 0
LINE
 8
TOOL_0
 5
9D
 10
3766.011
 20
901.502
 30
0
 11
4992.511
 21
901.502
 31
0
 0
LINE
 8
TOOL_0
 5
9E
 10
4992.511
 20
901.502
 30
0
 11
4992.511
 21
20.002
 31
0
 0
LINE
 8
TOOL_0
 5
9F
 10
4992.511
 20
20.002
 30
0
 11
4992.511
 21
14.862
 31
0
 0
LINE
 8
TOOL_0
 5
A0
 10
4992.511
 20
14.862
 30
0
 11
5880.433
 21
460.753
 31
0
 0
LINE
 8
TOOL_0
 5
A1
 10
5880.433
 20
460.753
 30
0
 11
5910.433
 21
460.753
 31
0
 0
LINE
 8
TOOL_0
 5
A2
 10
5910.433
 20
460.753
 30
0
 11
5910.433
 21
545.753
 31
0
 0
ARC
 8
TOOL_0
 5
A3
 10
5810.433
 20
545.753
 30
0
 40
100.0
 50
0
 51
90.0
210
0
220
0
230
1.0
 0
LINE
 8
TOOL_0
 5
A4
 10
5810.433
 20
645.753
 30
0
 11
5410.433
 21
645.753
 31
0
 0
ARC
 8
TOOL_0
 5
A5
 10
5410.433
 20
545.753
 30
0
 40
100.0
 50
90.0
 51
180.0
210
0
220
0
230
1.0
 0
LINE
 8
TOOL_0
 5
A6
 10
5310.433
 20
545.753
 30
0
 11
5310.433
 21
375.753
 31
0
 0
ARC
 8
TOOL_0
 5
A7
 10
5410.433
 20
375.753
 30
0
 40
100.0
 50
180.0
 51
270.0
210
0
220
0
230
1.0
 0
LINE
 8
TOOL_0
 5
A8
 10
5410.433
 20
275.753
 30
0
 11
5810.433
 21
275.753
 31
0
 0
ARC
 8
TOOL_0
 5
A9
 10
5810.433
 20
375.753
 30
0
 40
100.0
 50
270.0
 51
359.999427042205
210
0
220
0
230
1.0
 0
LINE
 8
TOOL_0
 5
AA
 10
5910.433
 20
375.752
 30
0
 11
5910.433
 21
460.753
 31
0
 0
LINE
 8
TOOL_0
 5
AB
 10
5910.433
 20
460.753
 30
0
 11
5906.897
 21
464.289
 31
0
 0
LINE
 8
TOOL_0
 5
AC
 10
5906.897
 20
464.289
 30
0
 11
6276.895
 21
43.205
 31
0
 0
LINE
 8
TOOL_0
 5
AD
 10
6276.895
 20
43.205
 30
0
 11
6276.895
 21
19.54
 31
0
 0
LINE
 8
TOOL_0
 5
AE
 10
6276.895
 20
19.54
 30
0
 11
6266.182
 21
20.003
 31
0
 0
LINE
 8
TOOL_0
 5
AF
 10
6266.182
 20
20.003
 30
0
 11
5014.682
 21
20.003
 31
0
 0
LINE
 8
TOOL_0
 5
B0
 10
5014.682
 20
20.003
 30
0
 11
5014.682
 21
901.503
 31
0
 0
LINE
 8
TOOL_0
 5
B1
 10
5014.682
 20
901.503
 30
0
 11
6266.182
 21
901.503
 31
0
 0
LINE
 8
TOOL_0
 5
B2
 10
6266.182
 20
901.503
 30
0
 11
6266.182
 21
20.003
 31
0
 0
LINE
 8
TOOL_0
 5
B3
 10
6266.182
 20
20.003
 30
0
 11
6266.182
 21
14.968
 31
0
 0
LINE
 8
TOOL_0
 5
B4
 10
6266.182
 20
14.968
 30
0
 11
7154.436
 21
460.753
 31
0
 0
LINE
 8
TOOL_0
 5
B5
 10
7154.436
 20
460.753
 30
0
 11
7184.436
 21
460.753
 31
0
 0
LINE
 8
TOOL_0
 5
B6
 10
7184.436
 20
460.753
 30
0
 11
7184.436
 21
545.753
 31
0
 0
ARC
 8
TOOL_0
 5
B7
 10
7084.436
 20
545.753
 30
0
 40
100.0
 50
0
 51
90.0
210
0
220
0
230
1.0
 0
LINE
 8
TOOL_0
 5
B8
 10
7084.436
 20
645.753
 30
0
 11
6684.436
 21
645.753
 31
0
 0
ARC
 8
TOOL_0
 5
B9
 10
6684.436
 20
545.753
 30
0
 40
100.0
 50
90.0
 51
180.0
210
0
220
0
230
1.0
 0
LINE
 8
TOOL_0
 5
BA
 10
6584.436
 20
545.753
 30
0
 11
6584.436
 21
375.753
 31
0
 0
ARC
 8
TOOL_0
 5
BB
 10
6684.436
 20
375.753
 30
0
 40
100.0
 50
180.0
 51
270.0
210
0
220
0
230
1.0
 0
LINE
 8
TOOL_0
 5
BC
 10
6684.436
 20
275.753
 30
0
 11
7084.436
 21
275.753
 31
0
 0
ARC
 8
TOOL_0
 5
BD
 10
7084.436
 20
375.753
 30
0
 40
100.0
 50
270.0
 51
359.999427042205
210
0
220
0
230
1.0
 0
LINE
 8
TOOL_0
 5
BE
 10
7184.436
 20
375.752
 30
0
 11
7184.436
 21
460.753
 31
0
 0
LINE
 8
TOOL_0
 5
BF
 10
7184.436
 20
460.753
 30
0
 11
7180.9
 21
464.289
 31
0
 0
LINE
 8
TOOL_0
 5
C0
 10
7180.9
 20
464.289
 30
0
 11
7550.899
 21
43.205
 31
0
 0
LINE
 8
TOOL_0
 5
C1
 10
7550.899
 20
43.205
 30
0
 11
7550.899
 21
19.54
 31
0
 0
LINE
 8
TOOL_0
 5
C2
 10
7550.899
 20
19.54
 30
0
 11
7540.186
 21
20.003
 31
0
 0
LINE
 8
TOOL_0
 5
C3
 10
7540.186
 20
20.003
 30
0
 11
6288.686
 21
20.003
 31
0
 0
LINE
 8
TOOL_0
 5
C4
 10
6288.686
 20
20.003
 30
0
 11
6288.686
 21
901.503
 31
0
 0
LINE
 8
TOOL_0
 5
C5
 10
6288.686
 20
901.503
 30
0
 11
7540.186
 21
901.503
 31
0
 0
LINE
 8
TOOL_0
 5
C6
 10
7540.186
 20
901.503
 30
0
 11
7540.186
 21
20.003
 31
0
 0
LINE
 8
TOOL_0
 5
C7
 10
7540.186
 20
20.003
 30
0
 11
7540.186
 21
14.968
 31
0
 0
LINE
 8
TOOL_0
 5
C8
 10
7540.186
 20
14.968
 30
0
 11
8428.442
 21
460.753
 31
0
 0
LINE
 8
TOOL_0
 5
C9
 10
8428.442
 20
460.753
 30
0
 11
8458.442
 21
460.753
 31
0
 0
LINE
 8
TOOL_0
 5
CA
 10
8458.442
 20
460.753
 30
0
 11
8458.442
 21
545.753
 31
0
 0
ARC
 8
TOOL_0
 5
CB
 10
8358.442
 20
545.753
 30
0
 40
100.0
 50
0
 51
90.0
210
0
220
0
230
1.0
 0
LINE
 8
TOOL_0
 5
CC
 10
8358.442
 20
645.753
 30
0
 11
7958.442
 21
645.753
 31
0
 0
ARC
 8
TOOL_0
 5
CD
 10
7958.442
 20
545.753
 30
0
 40
100.0
 50
90.0
 51
180.0
210
0
220
0
230
1.0
 0
LINE
 8
TOOL_0
 5
CE
 10
7858.442
 20
545.753
 30
0
 11
7858.442
 21
375.753
 31
0
 0
ARC
 8
TOOL_0
 5
CF
 10
7958.442
 20
375.753
 30
0
 40
100.0
 50
180.0
 51
270.0
210
0
220
0
230
1.0
 0
LINE
 8
TOOL_0
 5
D0
 10
7958.442
 20
275.753
 30
0
 11
8358.442
 21
275.753
 31
0
 0
ARC
 8
TOOL_0
 5
D1
 10
8358.442
 20
375.753
 30
0
 40
100.0
 50
270.0
 51
359.999427042205
210
0
220
0
230
1.0
 0
LINE
 8
TOOL_0
 5
D2
 10
8458.442
 20
375.752
 30
0
 11
8458.442
 21
460.753
 31
0
 0
LINE
 8
TOOL_0
 5
D3
 10
8458.442
 20
460.753
 30
0
 11
8454.906
 21
464.289
 31
0
 0
LINE
 8
TOOL_0
 5
D4
 10
8454.906
 20
464.289
 30
0
 11
8824.904
 21
43.205
 31
0
 0
LINE
 8
TOOL_0
 5
D5
 10
8824.904
 20
43.205
 30
0
 11
8824.904
 21
19.54
 31
0
 0
LINE
 8
TOOL_0
 5
D6
 10
8824.904
 20
19.54
 30
0
 11
8814.191
 21
20.003
 31
0
 0
LINE
 8
TOOL_0
 5
D7
 10
8814.191
 20
20.003
 30
0
 11
7562.691
 21
20.003
 31
0
 0
LINE
 8
TOOL_0
 5
D8
 10
7562.691
 20
20.003
 30
0
 11
7562.691
 21
901.503
 31
0
 0
LINE
 8
TOOL_0
 5
D9
 10
7562.691
 20
901.503
 30
0
 11
8814.191
 21
901.503
 31
0
 0
LINE
 8
TOOL_0
 5
DA
 10
8814.191
 20
901.503
 30
0
 11
8814.191
 21
20.003
 31
0
 0
LINE
 8
TOOL_0
 5
DB
 10
8814.191
 20
20.003
 30
0
 11
8814.191
 21
14.968
 31
0
 0
LINE
 8
TOOL_0
 5
DC
 10
8814.191
 20
14.968
 30
0
 11
9702.446
 21
460.753
 31
0
 0
LINE
 8
TOOL_0
 5
DD
 10
9702.446
 20
460.753
 30
0
 11
9732.446
 21
460.753
 31
0
 0
LINE
 8
TOOL_0
 5
DE
 10
9732.446
 20
460.753
 30
0
 11
9732.446
 21
545.753
 31
0
 0
ARC
 8
TOOL_0
 5
DF
 10
9632.446
 20
545.753
 30
0
 40
100.0
 50
0
 51
90.0
210
0
220
0
230
1.0
 0
LINE
 8
TOOL_0
 5
E0
 10
9632.446
 20
645.753
 30
0
 11
9232.446
 21
645.753
 31
0
 0
ARC
 8
TOOL_0
 5
E1
 10
9232.446
 20
545.753
 30
0
 40
100.0
 50
90.0
 51
180.0
210
0
220
0
230
1.0
 0
LINE
 8
TOOL_0
 5
E2
 10
9132.446
 20
545.753
 30
0
 11
9132.446
 21
375.753
 31
0
 0
ARC
 8
TOOL_0
 5
E3
 10
9232.446
 20
375.753
 30
0
 40
100.0
 50
180.0
 51
270.0
210
0
220
0
230
1.0
 0
LINE
 8
TOOL_0
 5
E4
 10
9232.446
 20
275.753
 30
0
 11
9632.446
 21
275.753
 31
0
 0
ARC
 8
TOOL_0
 5
E5
 10
9632.446
 20
375.753
 30
0
 40
100.0
 50
270.0
 51
359.999427042205
210
0
220
0
230
1.0
 0
LINE
 8
TOOL_0
 5
E6
 10
9732.446
 20
375.752
 30
0
 11
9732.446
 21
460.753
 31
0
 0
LINE
 8
TOOL_0
 5
E7
 10
9732.446
 20
460.753
 30
0
 11
9728.91
 21
464.289
 31
0
 0
LINE
 8
TOOL_0
 5
E8
 10
9728.91
 20
464.289
 30
0
 11
10098.908
 21
43.205
 31
0
 0
LINE
 8
TOOL_0
 5
E9
 10
10098.908
 20
43.205
 30
0
 11
10098.908
 21
19.54
 31
0
 0
LINE
 8
TOOL_0
 5
EA
 10
10098.908
 20
19.54
 30
0
 11
10088.195
 21
20.003
 31
0
 0
LINE
 8
TOOL_0
 5
EB
 10
10088.195
 20
20.003
 30
0
 11
8836.695
 21
20.003
 31
0
 0
LINE
 8
TOOL_0
 5
EC
 10
8836.695
 20
20.003
 30
0
 11
8836.695
 21
901.503
 31
0
 0
LINE
 8
TOOL_0
 5
ED
 10
8836.695
 20
901.503
 30
0
 11
10088.195
 21
901.503
 31
0
 0
LINE
 8
TOOL_0
 5
EE
 10
10088.195
 20
901.503
 30
0
 11
10088.195
 21
20.003
 31
0
 0
LINE
 8
TOOL_0
 5
EF
 10
10088.195
 20
20.003
 30
0
 11
10088.195
 21
14.968
 31
0
 0
LINE
 8
TOOL_0
 5
F0
 10
10088.195
 20
14.968
 30
0
 11
10088.195
 21
0.002
 31
0
 0
LINE
 8
TOOL_0
 5
F1
 10
10088.195
 20
0.002
 30
0
 11
587.14
 21
1867.066
 31
0
 0
LINE
 8
TOOL_0
 5
F2
 10
587.14
 20
1867.066
 30
0
 11
564.426
 21
1846.115
 31
0
 0
LINE
 8
TOOL_0
 5
F3
 10
564.426
 20
1846.115
 30
0
 11
563.128
 21
1827.555
 31
0
 0
ARC
 8
TOOL_0
 5
F4
 10
558.128
 20
1827.917
 30
0
 40
5.01308727233
 50
270.137153010353
 51
355.859010834448
210
0
220
0
230
1.0
 0
LINE
 8
TOOL_0
 5
F5
 10
558.14
 20
1822.904
 30
0
 11
169.996
 21
1822.904
 31
0
 0
ARC
 8
TOOL_0
 5
F6
 10
169.996
 20
1837.904
 30
0
 40
15.0
 50
180.0
 51
270.0
210
0
220
0
230
1.0
 0
LINE
 8
TOOL_0
 5
F7
 10
154.996
 20
1837.904
 30
0
 11
154.996
 21
1898.221
 31
0
 0
ARC
 8
TOOL_0
 5
F8
 10
124.996
 20
1898.221
 30
0
 40
30.0
 50
0
 51
74.00030004417
210
0
220
0
230
1.0
 0
ARC
 8
TOOL_0
 5
F9
 10
42.561
 20
1628.649
 30
0
 40
311.890595747932
 50
73.092949827997
 51
75.093030743851
210
0
220
0
230
1.0
 0
ARC
 8
TOOL_0
 5
FA
 10
115.706
 20
1901.304
 30
0
 40
29.600406112079
 50
76.14356079703
 51
89.858696505923
210
0
220
0
230
1.0
 0
LINE
 8
TOOL_0
 5
FB
 10
115.779
 20
1930.904
 30
0
 11
23.995
 21
1930.904
 31
0
 0
ARC
 8
TOOL_0
 5
FC
 10
23.995
 20
1935.904
 30
0
 40
5.0
 50
180.0
 51
270.0
210
0
220
0
230
1.0
 0
LINE
 8
TOOL_0
 5
FD
 10
18.995
 20
1935.904
 30
0
 11
18.995
 21
2007.904
 31
0
 0
ARC
 8
TOOL_0
 5
FE
 10
23.995
 20
2007.904
 30
0
 40
5.0
 50
90.0
 51
180.0
210
0
220
0
230
1.0
 0
LINE
 8
TOOL_0
 5
FF
 10
23.995
 20
2012.904
 30
0
 11
115.779
 21
2012.904
 31
0
 0
ARC
 8
TOOL_0
 5
100
 10
115.779
 20
2041.904
 30
0
 40
29.0
 50
270.0
 51
285.998858377126
210
0
220
0
230
1.0
 0
ARC
 8
TOOL_0
 5
101
 10
44.392
 20
2308.77
 30
0
 40
305.245180877602
 50
285.073221574547
 51
287.128563046919
210
0
220
0
230
1.0
 0
ARC
 8
TOOL_0
 5
102
 10
124.975
 20
2045.601
 30
0
 40
30.020391952804
 50
288.080668409388
 51
359.971371198495
210
0
220
0
230
1.0
 0
LINE
 8
TOOL_0
 5
103
 10
154.995
 20
2045.586
 30
0
 11
154.995
 21
2105.903
 31
0
 0
ARC
 8
TOOL_0
 5
104
 10
169.995
 20
2105.903
 30
0
 40
15.0
 50
90.0
 51
180.0
210
0
220
0
230
1.0
 0
LINE
 8
TOOL_0
 5
105
 10
169.995
 20
2120.903
 30
0
 11
558.139
 21
2120.903
 31
0
 0
ARC
 8
TOOL_0
 5
106
 10
558.127
 20
2115.89
 30
0
 40
5.013014362636
 50
4.140989165552
 51
89.862846989647
210
0
220
0
230
1.0
 0
LINE
 8
TOOL_0
 5
107
 10
563.127
 20
2116.252
 30
0
 11
566.379
 21
2069.751
 31
0
 0
ARC
 8
TOOL_0
 5
108
 10
590.398
 20
2071.459
 30
0
 40
24.079651679374
 50
184.067477372201
 51
222.733060840556
210
0
220
0
230
1.0
 0
LINE
 8
TOOL_0
 5
109
 10
572.711
 20
2055.119
 30
0
 11
598.357
 21
2027.424
 31
0
 0
ARC
 8
TOOL_0
 5
10A
 10
546.996
 20
1979.863
 30
0
 40
70.000007442857
 50
0
 51
42.80011562078
210
0
220
0
230
1.0
 0
ARC
 8
TOOL_0
 5
10B
 10
-134.885
 20
1971.904
 30
0
 40
751.923123625015
 50
359.269003367329
 51
0.606479054237
210
0
220
0
230
1.0
 0
ARC
 8
TOOL_0
 5
10C
 10
546.928
 20
1963.973
 30
0
 40
70.068713738729
 50
317.220864842536
 51
358.640841082922
210
0
220
0
230
1.0
 0
LINE
 8
TOOL_0
 5
10D
 10
598.357
 20
1916.384
 30
0
 11
572.712
 21
1888.69
 31
0
 0
ARC
 8
TOOL_0
 5
10E
 10
590.399
 20
1872.35
 30
0
 40
24.07956745874
 50
137.266939159444
 51
175.932522627799
210
0
220
0
230
1.0
 0
LINE
 8
TOOL_0
 5
10F
 10
566.38
 20
1874.058
 30
0
 11
564.426
 21
1846.116
 31
0
 0
LINE
 8
TOOL_0
 5
110
 10
564.426
 20
1846.116
 30
0
 11
566.386
 21
1841.799
 31
0
 0
LINE
 8
TOOL_0
 5
111
 10
566.386
 20
1841.799
 30
0
 11
381.996
 21
2170.594
 31
0
 0
LINE
 8
TOOL_0
 5
112
 10
381.996
 20
2170.594
 30
0
 11
381.996
 21
2139.566
 31
0
 0
LINE
 8
TOOL_0
 5
113
 10
381.996
 20
2139.566
 30
0
 11
371.497
 21
2139.906
 31
0
 0
LINE
 8
TOOL_0
 5
114
 10
371.497
 20
2139.906
 30
0
 11
19.997
 21
2139.906
 31
0
 0
LINE
 8
TOOL_0
 5
115
 10
19.997
 20
2139.906
 30
0
 11
19.997
 21
2291.406
 31
0
 0
LINE
 8
TOOL_0
 5
116
 10
19.997
 20
2291.406
 30
0
 11
371.497
 21
2291.406
 31
0
 0
LINE
 8
TOOL_0
 5
117
 10
371.497
 20
2291.406
 30
0
 11
371.497
 21
2139.906
 31
0
 0
LINE
 8
TOOL_0
 5
118
 10
371.497
 20
2139.906
 30
0
 11
371.497
 21
2134.617
 31
0
 0
LINE
 8
TOOL_0
 5
119
 10
371.497
 20
2134.617
 30
0
 11
381.996
 21
2342.095
 31
0
 0
LINE
 8
TOOL_0
 5
11A
 10
381.996
 20
2342.095
 30
0
 11
381.996
 21
2311.066
 31
0
 0
LINE
 8
TOOL_0
 5
11B
 10
381.996
 20
2311.066
 30
0
 11
371.497
 21
2311.406
 31
0
 0
LINE
 8
TOOL_0
 5
11C
 10
371.497
 20
2311.406
 30
0
 11
19.997
 21
2311.406
 31
0
 0
LINE
 8
TOOL_0
 5
11D
 10
19.997
 20
2311.406
 30
0
 11
19.997
 21
2462.906
 31
0
 0
LINE
 8
TOOL_0
 5
11E
 10
19.997
 20
2462.906
 30
0
 11
371.497
 21
2462.906
 31
0
 0
LINE
 8
TOOL_0
 5
11F
 10
371.497
 20
2462.906
 30
0
 11
371.497
 21
2311.406
 31
0
 0
LINE
 8
TOOL_0
 5
120
 10
371.497
 20
2311.406
 30
0
 11
371.497
 21
2306.117
 31
0
 0
LINE
 8
TOOL_0
 5
121
 10
371.497
 20
2306.117
 30
0
 11
1418.989
 21
1851.845
 31
0
 0
LINE
 8
TOOL_0
 5
122
 10
1418.989
 20
1851.845
 30
0
 11
1418.989
 21
1823.72
 31
0
 0
LINE
 8
TOOL_0
 5
123
 10
1418.989
 20
1823.72
 30
0
 11
1404.881
 21
1823.905
 31
0
 0
LINE
 8
TOOL_0
 5
124
 10
1404.881
 20
1823.905
 30
0
 11
653.381
 21
1823.905
 31
0
 0
LINE
 8
TOOL_0
 5
125
 10
653.381
 20
1823.905
 30
0
 11
653.381
 21
1905.405
 31
0
 0
LINE
 8
TOOL_0
 5
126
 10
653.381
 20
1905.405
 30
0
 11
1404.881
 21
1905.405
 31
0
 0
LINE
 8
TOOL_0
 5
127
 10
1404.881
 20
1905.405
 30
0
 11
1404.881
 21
1823.905
 31
0
 0
LINE
 8
TOOL_0
 5
128
 10
1404.881
 20
1823.905
 30
0
 11
1404.881
 21
1818.785
 31
0
 0
LINE
 8
TOOL_0
 5
129
 10
1404.881
 20
1818.785
 30
0
 11
1418.989
 21
1953.344
 31
0
 0
LINE
 8
TOOL_0
 5
12A
 10
1418.989
 20
1953.344
 30
0
 11
1418.989
 21
1925.219
 31
0
 0
LINE
 8
TOOL_0
 5
12B
 10
1418.989
 20
1925.219
 30
0
 11
1404.881
 21
1925.404
 31
0
 0
LINE
 8
TOOL_0
 5
12C
 10
1404.881
 20
1925.404
 30
0
 11
653.381
 21
1925.404
 31
0
 0
LINE
 8
TOOL_0
 5
12D
 10
653.381
 20
1925.404
 30
0
 11
653.381
 21
2006.904
 31
0
 0
LINE
 8
TOOL_0
 5
12E
 10
653.381
 20
2006.904
 30
0
 11
1404.881
 21
2006.904
 31
0
 0
LINE
 8
TOOL_0
 5
12F
 10
1404.881
 20
2006.904
 30
0
 11
1404.881
 21
1925.404
 31
0
 0
LINE
 8
TOOL_0
 5
130
 10
1404.881
 20
1925.404
 30
0
 11
1404.881
 21
1920.284
 31
0
 0
LINE
 8
TOOL_0
 5
131
 10
1404.881
 20
1920.284
 30
0
 11
1418.989
 21
2054.842
 31
0
 0
LINE
 8
TOOL_0
 5
132
 10
1418.989
 20
2054.842
 30
0
 11
1418.989
 21
2026.718
 31
0
 0
LINE
 8
TOOL_0
 5
133
 10
1418.989
 20
2026.718
 30
0
 11
1404.881
 21
2026.903
 31
0
 0
LINE
 8
TOOL_0
 5
134
 10
1404.881
 20
2026.903
 30
0
 11
653.381
 21
2026.903
 31
0
 0
LINE
 8
TOOL_0
 5
135
 10
653.381
 20
2026.903
 30
0
 11
653.381
 21
2108.403
 31
0
 0
LINE
 8
TOOL_0
 5
136
 10
653.381
 20
2108.403
 30
0
 11
1404.881
 21
2108.403
 31
0
 0
LINE
 8
TOOL_0
 5
137
 10
1404.881
 20
2108.403
 30
0
 11
1404.881
 21
2026.903
 31
0
 0
LINE
 8
TOOL_0
 5
138
 10
1404.881
 20
2026.903
 30
0
 11
1404.881
 21
2021.783
 31
0
 0
LINE
 8
TOOL_0
 5
139
 10
1404.881
 20
2021.783
 30
0
 11
1418.989
 21
2156.341
 31
0
 0
LINE
 8
TOOL_0
 5
13A
 10
1418.989
 20
2156.341
 30
0
 11
1418.989
 21
2128.217
 31
0
 0
LINE
 8
TOOL_0
 5
13B
 10
1418.989
 20
2128.217
 30
0
 11
1404.881
 21
2128.402
 31
0
 0
LINE
 8
TOOL_0
 5
13C
 10
1404.881
 20
2128.402
 30
0
 11
653.381
 21
2128.402
 31
0
 0
LINE
 8
TOOL_0
 5
13D
 10
653.381
 20
2128.402
 30
0
 11
653.381
 21
2209.902
 31
0
 0
LINE
 8
TOOL_0
 5
13E
 10
653.381
 20
2209.902
 30
0
 11
1404.881
 21
2209.902
 31
0
 0
LINE
 8
TOOL_0
 5
13F
 10
1404.881
 20
2209.902
 30
0
 11
1404.881
 21
2128.402
 31
0
 0
LINE
 8
TOOL_0
 5
140
 10
1404.881
 20
2128.402
 30
0
 11
1404.881
 21
2123.282
 31
0
 0
LINE
 8
TOOL_0
 5
141
 10
1404.881
 20
2123.282
 30
0
 11
1418.989
 21
2257.84
 31
0
 0
LINE
 8
TOOL_0
 5
142
 10
1418.989
 20
2257.84
 30
0
 11
1418.989
 21
2229.716
 31
0
 0
LINE
 8
TOOL_0
 5
143
 10
1418.989
 20
2229.716
 30
0
 11
1404.881
 21
2229.901
 31
0
 0
LINE
 8
TOOL_0
 5
144
 10
1404.881
 20
2229.901
 30
0
 11
653.381
 21
2229.901
 31
0
 0
LINE
 8
TOOL_0
 5
145
 10
653.381
 20
2229.901
 30
0
 11
653.381
 21
2311.401
 31
0
 0
LINE
 8
TOOL_0
 5
146
 10
653.381
 20
2311.401
 30
0
 11
1404.881
 21
2311.401
 31
0
 0
LINE
 8
TOOL_0
 5
147
 10
1404.881
 20
2311.401
 30
0
 11
1404.881
 21
2229.901
 31
0
 0
LINE
 8
TOOL_0
 5
148
 10
1404.881
 20
2229.901
 30
0
 11
1404.881
 21
2224.781
 31
0
 0
LINE
 8
TOOL_0
 5
149
 10
1404.881
 20
2224.781
 30
0
 11
1418.989
 21
2359.34
 31
0
 0
LINE
 8
TOOL_0
 5
14A
 10
1418.989
 20
2359.34
 30
0
 11
1418.989
 21
2331.216
 31
0
 0
LINE
 8
TOOL_0
 5
14B
 10
1418.989
 20
2331.216
 30
0
 11
1404.881
 21
2331.401
 31
0
 0
LINE
 8
TOOL_0
 5
14C
 10
1404.881
 20
2331.401
 30
0
 11
653.381
 21
2331.401
 31
0
 0
LINE
 8
TOOL_0
 5
14D
 10
653.381
 20
2331.401
 30
0
 11
653.381
 21
2412.901
 31
0
 0
LINE
 8
TOOL_0
 5
14E
 10
653.381
 20
2412.901
 30
0
 11
1404.881
 21
2412.901
 31
0
 0
LINE
 8
TOOL_0
 5
14F
 10
1404.881
 20
2412.901
 30
0
 11
1404.881
 21
2331.401
 31
0
 0
LINE
 8
TOOL_0
 5
150
 10
1404.881
 20
2331.401
 30
0
 11
1404.881
 21
2326.281
 31
0
 0
LINE
 8
TOOL_0
 5
151
 10
1404.881
 20
2326.281
 30
0
 11
2950.488
 21
1855.25
 31
0
 0
LINE
 8
TOOL_0
 5
152
 10
2950.488
 20
1855.25
 30
0
 11
2950.488
 21
1822.676
 31
0
 0
LINE
 8
TOOL_0
 5
153
 10
2950.488
 20
1822.676
 30
0
 11
2933.039
 21
1823.903
 31
0
 0
LINE
 8
TOOL_0
 5
154
 10
2933.039
 20
1823.903
 30
0
 11
1431.539
 21
1823.903
 31
0
 0
LINE
 8
TOOL_0
 5
155
 10
1431.539
 20
1823.903
 30
0
 11
1431.539
 21
1985.403
 31
0
 0
LINE
 8
TOOL_0
 5
156
 10
1431.539
 20
1985.403
 30
0
 11
2933.039
 21
1985.403
 31
0
 0
LINE
 8
TOOL_0
 5
157
 10
2933.039
 20
1985.403
 30
0
 11
2933.039
 21
1823.903
 31
0
 0
LINE
 8
TOOL_0
 5
158
 10
2933.039
 20
1823.903
 30
0
 11
2933.039
 21
1818.972
 31
0
 0
LINE
 8
TOOL_0
 5
159
 10
2933.039
 20
1818.972
 30
0
 11
2950.489
 21
2036.752
 31
0
 0
LINE
 8
TOOL_0
 5
15A
 10
2950.489
 20
2036.752
 30
0
 11
2950.489
 21
2004.178
 31
0
 0
LINE
 8
TOOL_0
 5
15B
 10
2950.489
 20
2004.178
 30
0
 11
2933.04
 21
2005.405
 31
0
 0
LINE
 8
TOOL_0
 5
15C
 10
2933.04
 20
2005.405
 30
0
 11
1431.54
 21
2005.405
 31
0
 0
LINE
 8
TOOL_0
 5
15D
 10
1431.54
 20
2005.405
 30
0
 11
1431.54
 21
2166.905
 31
0
 0
LINE
 8
TOOL_0
 5
15E
 10
1431.54
 20
2166.905
 30
0
 11
2933.04
 21
2166.905
 31
0
 0
LINE
 8
TOOL_0
 5
15F
 10
2933.04
 20
2166.905
 30
0
 11
2933.04
 21
2005.405
 31
0
 0
LINE
 8
TOOL_0
 5
160
 10
2933.04
 20
2005.405
 30
0
 11
2933.04
 21
2000.474
 31
0
 0
LINE
 8
TOOL_0
 5
161
 10
2933.04
 20
2000.474
 30
0
 11
2950.49
 21
2218.253
 31
0
 0
LINE
 8
TOOL_0
 5
162
 10
2950.49
 20
2218.253
 30
0
 11
2950.49
 21
2185.679
 31
0
 0
LINE
 8
TOOL_0
 5
163
 10
2950.49
 20
2185.679
 30
0
 11
2933.041
 21
2186.906
 31
0
 0
LINE
 8
TOOL_0
 5
164
 10
2933.041
 20
2186.906
 30
0
 11
1431.541
 21
2186.906
 31
0
 0
LINE
 8
TOOL_0
 5
165
 10
1431.541
 20
2186.906
 30
0
 11
1431.541
 21
2348.406
 31
0
 0
LINE
 8
TOOL_0
 5
166
 10
1431.541
 20
2348.406
 30
0
 11
2933.041
 21
2348.406
 31
0
 0
LINE
 8
TOOL_0
 5
167
 10
2933.041
 20
2348.406
 30
0
 11
2933.041
 21
2186.906
 31
0
 0
LINE
 8
TOOL_0
 5
168
 10
2933.041
 20
2186.906
 30
0
 11
2933.041
 21
2181.975
 31
0
 0
LINE
 8
TOOL_0
 5
169
 10
2933.041
 20
2181.975
 30
0
 11
3331.757
 21
2057.591
 31
0
 0
LINE
 8
TOOL_0
 5
16A
 10
3331.757
 20
2057.591
 30
0
 11
3331.757
 21
2026.562
 31
0
 0
LINE
 8
TOOL_0
 5
16B
 10
3331.757
 20
2026.562
 30
0
 11
3321.258
 21
2026.902
 31
0
 0
LINE
 8
TOOL_0
 5
16C
 10
3321.258
 20
2026.902
 30
0
 11
2969.758
 21
2026.902
 31
0
 0
LINE
 8
TOOL_0
 5
16D
 10
2969.758
 20
2026.902
 30
0
 11
2969.758
 21
2178.402
 31
0
 0
LINE
 8
TOOL_0
 5
16E
 10
2969.758
 20
2178.402
 30
0
 11
3321.258
 21
2178.402
 31
0
 0
LINE
 8
TOOL_0
 5
16F
 10
3321.258
 20
2178.402
 30
0
 11
3321.258
 21
2026.902
 31
0
 0
LINE
 8
TOOL_0
 5
170
 10
3321.258
 20
2026.902
 30
0
 11
3321.258
 21
2021.613
 31
0
 0
LINE
 8
TOOL_0
 5
171
 10
3321.258
 20
2021.613
 30
0
 11
3331.757
 21
2229.091
 31
0
 0
LINE
 8
TOOL_0
 5
172
 10
3331.757
 20
2229.091
 30
0
 11
3331.757
 21
2198.062
 31
0
 0
LINE
 8
TOOL_0
 5
173
 10
3331.757
 20
2198.062
 30
0
 11
3321.258
 21
2198.402
 31
0
 0
LINE
 8
TOOL_0
 5
174
 10
3321.258
 20
2198.402
 30
0
 11
2969.758
 21
2198.402
 31
0
 0
LINE
 8
TOOL_0
 5
175
 10
2969.758
 20
2198.402
 30
0
 11
2969.758
 21
2349.902
 31
0
 0
LINE
 8
TOOL_0
 5
176
 10
2969.758
 20
2349.902
 30
0
 11
3321.258
 21
2349.902
 31
0
 0
LINE
 8
TOOL_0
 5
177
 10
3321.258
 20
2349.902
 30
0
 11
3321.258
 21
2198.402
 31
0
 0
LINE
 8
TOOL_0
 5
178
 10
3321.258
 20
2198.402
 30
0
 11
3321.258
 21
2193.113
 31
0
 0
LINE
 8
TOOL_0
 5
179
 10
3321.258
 20
2193.113
 30
0
 11
3735.366
 21
1851.841
 31
0
 0
LINE
 8
TOOL_0
 5
17A
 10
3735.366
 20
1851.841
 30
0
 11
3735.366
 21
1823.716
 31
0
 0
LINE
 8
TOOL_0
 5
17B
 10
3735.366
 20
1823.716
 30
0
 11
3721.258
 21
1823.901
 31
0
 0
LINE
 8
TOOL_0
 5
17C
 10
3721.258
 20
1823.901
 30
0
 11
2969.758
 21
1823.901
 31
0
 0
LINE
 8
TOOL_0
 5
17D
 10
2969.758
 20
1823.901
 30
0
 11
2969.758
 21
1905.401
 31
0
 0
LINE
 8
TOOL_0
 5
17E
 10
2969.758
 20
1905.401
 30
0
 11
3721.258
 21
1905.401
 31
0
 0
LINE
 8
TOOL_0
 5
17F
 10
3721.258
 20
1905.401
 30
0
 11
3721.258
 21
1823.901
 31
0
 0
LINE
 8
TOOL_0
 5
180
 10
3721.258
 20
1823.901
 30
0
 11
3721.258
 21
1818.781
 31
0
 0
LINE
 8
TOOL_0
 5
181
 10
3721.258
 20
1818.781
 30
0
 11
3735.366
 21
1953.34
 31
0
 0
LINE
 8
TOOL_0
 5
182
 10
3735.366
 20
1953.34
 30
0
 11
3735.366
 21
1925.215
 31
0
 0
LINE
 8
TOOL_0
 5
183
 10
3735.366
 20
1925.215
 30
0
 11
3721.258
 21
1925.4
 31
0
 0
LINE
 8
TOOL_0
 5
184
 10
3721.258
 20
1925.4
 30
0
 11
2969.758
 21
1925.4
 31
0
 0
LINE
 8
TOOL_0
 5
185
 10
2969.758
 20
1925.4
 30
0
 11
2969.758
 21
2006.9
 31
0
 0
LINE
 8
TOOL_0
 5
186
 10
2969.758
 20
2006.9
 30
0
 11
3721.258
 21
2006.9
 31
0
 0
LINE
 8
TOOL_0
 5
187
 10
3721.258
 20
2006.9
 30
0
 11
3721.258
 21
1925.4
 31
0
 0
LINE
 8
TOOL_0
 5
188
 10
3721.258
 20
1925.4
 30
0
 11
3721.258
 21
1920.28
 31
0
 0
LINE
 8
TOOL_0
 5
189
 10
3721.258
 20
1920.28
 30
0
 11
3711.787
 21
2057.588
 31
0
 0
LINE
 8
TOOL_0
 5
18A
 10
3711.787
 20
2057.588
 30
0
 11
3711.787
 21
2026.559
 31
0
 0
LINE
 8
TOOL_0
 5
18B
 10
3711.787
 20
2026.559
 30
0
 11
3701.288
 21
2026.899
 31
0
 0
LINE
 8
TOOL_0
 5
18C
 10
3701.288
 20
2026.899
 30
0
 11
3349.788
 21
2026.899
 31
0
 0
LINE
 8
TOOL_0
 5
18D
 10
3349.788
 20
2026.899
 30
0
 11
3349.788
 21
2178.399
 31
0
 0
LINE
 8
TOOL_0
 5
18E
 10
3349.788
 20
2178.399
 30
0
 11
3701.288
 21
2178.399
 31
0
 0
LINE
 8
TOOL_0
 5
18F
 10
3701.288
 20
2178.399
 30
0
 11
3701.288
 21
2026.899
 31
0
 0
LINE
 8
TOOL_0
 5
190
 10
3701.288
 20
2026.899
 30
0
 11
3701.288
 21
2021.61
 31
0
 0
LINE
 8
TOOL_0
 5
191
 10
3701.288
 20
2021.61
 30
0
 11
4721.088
 21
1853.809
 31
0
 0
LINE
 8
TOOL_0
 5
192
 10
4721.088
 20
1853.809
 30
0
 11
4721.088
 21
1824.009
 31
0
 0
LINE
 8
TOOL_0
 5
193
 10
4721.088
 20
1824.009
 30
0
 11
4709.415
 21
1823.899
 31
0
 0
LINE
 8
TOOL_0
 5
194
 10
4709.415
 20
1823.899
 30
0
 11
3747.915
 21
1823.899
 31
0
 0
LINE
 8
TOOL_0
 5
195
 10
3747.915
 20
1823.899
 30
0
 11
3747.915
 21
2475.399
 31
0
 0
LINE
 8
TOOL_0
 5
196
 10
3747.915
 20
2475.399
 30
0
 11
4709.415
 21
2475.399
 31
0
 0
LINE
 8
TOOL_0
 5
197
 10
4709.415
 20
2475.399
 30
0
 11
4709.415
 21
1823.899
 31
0
 0
LINE
 8
TOOL_0
 5
198
 10
4709.415
 20
1823.899
 30
0
 11
4709.415
 21
1818.9
 31
0
 0
LINE
 8
TOOL_0
 5
199
 10
4709.415
 20
1818.9
 30
0
 11
5716.405
 21
1853.811
 31
0
 0
LINE
 8
TOOL_0
 5
19A
 10
5716.405
 20
1853.811
 30
0
 11
5716.405
 21
1824.011
 31
0
 0
LINE
 8
TOOL_0
 5
19B
 10
5716.405
 20
1824.011
 30
0
 11
5704.732
 21
1823.901
 31
0
 0
LINE
 8
TOOL_0
 5
19C
 10
5704.732
 20
1823.901
 30
0
 11
4743.232
 21
1823.901
 31
0
 0
LINE
 8
TOOL_0
 5
19D
 10
4743.232
 20
1823.901
 30
0
 11
4743.232
 21
2475.401
 31
0
 0
LINE
 8
TOOL_0
 5
19E
 10
4743.232
 20
2475.401
 30
0
 11
5704.732
 21
2475.401
 31
0
 0
LINE
 8
TOOL_0
 5
19F
 10
5704.732
 20
2475.401
 30
0
 11
5704.732
 21
1823.901
 31
0
 0
LINE
 8
TOOL_0
 5
1A0
 10
5704.732
 20
1823.901
 30
0
 11
5704.732
 21
1818.902
 31
0
 0
LINE
 8
TOOL_0
 5
1A1
 10
5704.732
 20
1818.902
 30
0
 11
6711.723
 21
1853.811
 31
0
 0
LINE
 8
TOOL_0
 5
1A2
 10
6711.723
 20
1853.811
 30
0
 11
6711.723
 21
1824.011
 31
0
 0
LINE
 8
TOOL_0
 5
1A3
 10
6711.723
 20
1824.011
 30
0
 11
6700.05
 21
1823.901
 31
0
 0
LINE
 8
TOOL_0
 5
1A4
 10
6700.05
 20
1823.901
 30
0
 11
5738.55
 21
1823.901
 31
0
 0
LINE
 8
TOOL_0
 5
1A5
 10
5738.55
 20
1823.901
 30
0
 11
5738.55
 21
2475.401
 31
0
 0
LINE
 8
TOOL_0
 5
1A6
 10
5738.55
 20
2475.401
 30
0
 11
6700.05
 21
2475.401
 31
0
 0
LINE
 8
TOOL_0
 5
1A7
 10
6700.05
 20
2475.401
 30
0
 11
6700.05
 21
1823.901
 31
0
 0
LINE
 8
TOOL_0
 5
1A8
 10
6700.05
 20
1823.901
 30
0
 11
6700.05
 21
1818.902
 31
0
 0
LINE
 8
TOOL_0
 5
1A9
 10
6700.05
 20
1818.902
 30
0
 11
7707.041
 21
1853.811
 31
0
 0
LINE
 8
TOOL_0
 5
1AA
 10
7707.041
 20
1853.811
 30
0
 11
7707.041
 21
1824.011
 31
0
 0
LINE
 8
TOOL_0
 5
1AB
 10
7707.041
 20
1824.011
 30
0
 11
7695.368
 21
1823.901
 31
0
 0
LINE
 8
TOOL_0
 5
1AC
 10
7695.368
 20
1823.901
 30
0
 11
6733.868
 21
1823.901
 31
0
 0
LINE
 8
TOOL_0
 5
1AD
 10
6733.868
 20
1823.901
 30
0
 11
6733.868
 21
2475.401
 31
0
 0
LINE
 8
TOOL_0
 5
1AE
 10
6733.868
 20
2475.401
 30
0
 11
7695.368
 21
2475.401
 31
0
 0
LINE
 8
TOOL_0
 5
1AF
 10
7695.368
 20
2475.401
 30
0
 11
7695.368
 21
1823.901
 31
0
 0
LINE
 8
TOOL_0
 5
1B0
 10
7695.368
 20
1823.901
 30
0
 11
7695.368
 21
1818.902
 31
0
 0
LINE
 8
TOOL_0
 5
1B1
 10
7695.368
 20
1818.902
 30
0
 11
8702.359
 21
1853.811
 31
0
 0
LINE
 8
TOOL_0
 5
1B2
 10
8702.359
 20
1853.811
 30
0
 11
8702.359
 21
1824.011
 31
0
 0
LINE
 8
TOOL_0
 5
1B3
 10
8702.359
 20
1824.011
 30
0
 11
8690.686
 21
1823.901
 31
0
 0
LINE
 8
TOOL_0
 5
1B4
 10
8690.686
 20
1823.901
 30
0
 11
7729.186
 21
1823.901
 31
0
 0
LINE
 8
TOOL_0
 5
1B5
 10
7729.186
 20
1823.901
 30
0
 11
7729.186
 21
2475.401
 31
0
 0
LINE
 8
TOOL_0
 5
1B6
 10
7729.186
 20
2475.401
 30
0
 11
8690.686
 21
2475.401
 31
0
 0
LINE
 8
TOOL_0
 5
1B7
 10
8690.686
 20
2475.401
 30
0
 11
8690.686
 21
1823.901
 31
0
 0
LINE
 8
TOOL_0
 5
1B8
 10
8690.686
 20
1823.901
 30
0
 11
8690.686
 21
1818.902
 31
0
 0
LINE
 8
TOOL_0
 5
1B9
 10
8690.686
 20
1818.902
 30
0
 11
9697.677
 21
1853.811
 31
0
 0
LINE
 8
TOOL_0
 5
1BA
 10
9697.677
 20
1853.811
 30
0
 11
9697.677
 21
1824.011
 31
0
 0
LINE
 8
TOOL_0
 5
1BB
 10
9697.677
 20
1824.011
 30
0
 11
9686.004
 21
1823.901
 31
0
 0
LINE
 8
TOOL_0
 5
1BC
 10
9686.004
 20
1823.901
 30
0
 11
8724.504
 21
1823.901
 31
0
 0
LINE
 8
TOOL_0
 5
1BD
 10
8724.504
 20
1823.901
 30
0
 11
8724.504
 21
2475.401
 31
0
 0
LINE
 8
TOOL_0
 5
1BE
 10
8724.504
 20
2475.401
 30
0
 11
9686.004
 21
2475.401
 31
0
 0
LINE
 8
TOOL_0
 5
1BF
 10
9686.004
 20
2475.401
 30
0
 11
9686.004
 21
1823.901
 31
0
 0
LINE
 8
TOOL_0
 5
1C0
 10
9686.004
 20
1823.901
 30
0
 11
9686.004
 21
1818.902
 31
0
 0
LINE
 8
TOOL_0
 5
1C1
 10
9686.004
 20
1818.902
 30
0
 11
10081.819
 21
1854.589
 31
0
 0
LINE
 8
TOOL_0
 5
1C2
 10
10081.819
 20
1854.589
 30
0
 11
10081.819
 21
1823.561
 31
0
 0
LINE
 8
TOOL_0
 5
1C3
 10
10081.819
 20
1823.561
 30
0
 11
10071.32
 21
1823.901
 31
0
 0
LINE
 8
TOOL_0
 5
1C4
 10
10071.32
 20
1823.901
 30
0
 11
9719.82
 21
1823.901
 31
0
 0
LINE
 8
TOOL_0
 5
1C5
 10
9719.82
 20
1823.901
 30
0
 11
9719.82
 21
1975.401
 31
0
 0
LINE
 8
TOOL_0
 5
1C6
 10
9719.82
 20
1975.401
 30
0
 11
10071.32
 21
1975.401
 31
0
 0
LINE
 8
TOOL_0
 5
1C7
 10
10071.32
 20
1975.401
 30
0
 11
10071.32
 21
1823.901
 31
0
 0
LINE
 8
TOOL_0
 5
1C8
 10
10071.32
 20
1823.901
 30
0
 11
10071.32
 21
1818.612
 31
0
 0
LINE
 8
TOOL_0
 5
1C9
 10
10071.32
 20
1818.612
 30
0
 11
10081.819
 21
2026.09
 31
0
 0
LINE
 8
TOOL_0
 5
1CA
 10
10081.819
 20
2026.09
 30
0
 11
10081.819
 21
1995.061
 31
0
 0
LINE
 8
TOOL_0
 5
1CB
 10
10081.819
 20
1995.061
 30
0
 11
10071.32
 21
1995.401
 31
0
 0
LINE
 8
TOOL_0
 5
1CC
 10
10071.32
 20
1995.401
 30
0
 11
9719.82
 21
1995.401
 31
0
 0
LINE
 8
TOOL_0
 5
1CD
 10
9719.82
 20
1995.401
 30
0
 11
9719.82
 21
2146.901
 31
0
 0
LINE
 8
TOOL_0
 5
1CE
 10
9719.82
 20
2146.901
 30
0
 11
10071.32
 21
2146.901
 31
0
 0
LINE
 8
TOOL_0
 5
1CF
 10
10071.32
 20
2146.901
 30
0
 11
10071.32
 21
1995.401
 31
0
 0
LINE
 8
TOOL_0
 5
1D0
 10
10071.32
 20
1995.401
 30
0
 11
10071.32
 21
1990.112
 31
0
 0
LINE
 8
TOOL_0
 5
1D1
 10
10071.32
 20
1990.112
 30
0
 11
10081.819
 21
2197.59
 31
0
 0
LINE
 8
TOOL_0
 5
1D2
 10
10081.819
 20
2197.59
 30
0
 11
10081.819
 21
2166.561
 31
0
 0
LINE
 8
TOOL_0
 5
1D3
 10
10081.819
 20
2166.561
 30
0
 11
10071.32
 21
2166.901
 31
0
 0
LINE
 8
TOOL_0
 5
1D4
 10
10071.32
 20
2166.901
 30
0
 11
9719.82
 21
2166.901
 31
0
 0
LINE
 8
TOOL_0
 5
1D5
 10
9719.82
 20
2166.901
 30
0
 11
9719.82
 21
2318.401
 31
0
 0
LINE
 8
TOOL_0
 5
1D6
 10
9719.82
 20
2318.401
 30
0
 11
10071.32
 21
2318.401
 31
0
 0
LINE
 8
TOOL_0
 5
1D7
 10
10071.32
 20
2318.401
 30
0
 11
10071.32
 21
2166.901
 31
0
 0
LINE
 8
TOOL_0
 5
1D8
 10
10071.32
 20
2166.901
 30
0
 11
10071.32
 21
2161.612
 31
0
 0
LINE
 8
TOOL_0
 5
1D9
 10
10071.32
 20
2161.612
 30
0
 11
11086.135
 21
49.907
 31
0
 0
LINE
 8
TOOL_0
 5
1DA
 10
11086.135
 20
49.907
 30
0
 11
11086.135
 21
20.107
 31
0
 0
LINE
 8
TOOL_0
 5
1DB
 10
11086.135
 20
20.107
 30
0
 11
11074.462
 21
19.997
 31
0
 0
LINE
 8
TOOL_0
 5
1DC
 10
11074.462
 20
19.997
 30
0
 11
10112.962
 21
19.997
 31
0
 0
LINE
 8
TOOL_0
 5
1DD
 10
10112.962
 20
19.997
 30
0
 11
10112.962
 21
671.497
 31
0
 0
LINE
 8
TOOL_0
 5
1DE
 10
10112.962
 20
671.497
 30
0
 11
11074.462
 21
671.497
 31
0
 0
LINE
 8
TOOL_0
 5
1DF
 10
11074.462
 20
671.497
 30
0
 11
11074.462
 21
19.997
 31
0
 0
LINE
 8
TOOL_0
 5
1E0
 10
11074.462
 20
19.997
 30
0
 11
11074.462
 21
14.998
 31
0
 0
LINE
 8
TOOL_0
 5
1E1
 10
11074.462
 20
14.998
 30
0
 11
11086.823
 21
721.507
 31
0
 0
LINE
 8
TOOL_0
 5
1E2
 10
11086.823
 20
721.507
 30
0
 11
11086.823
 21
691.707
 31
0
 0
LINE
 8
TOOL_0
 5
1E3
 10
11086.823
 20
691.707
 30
0
 11
11075.15
 21
691.597
 31
0
 0
LINE
 8
TOOL_0
 5
1E4
 10
11075.15
 20
691.597
 30
0
 11
10113.65
 21
691.597
 31
0
 0
LINE
 8
TOOL_0
 5
1E5
 10
10113.65
 20
691.597
 30
0
 11
10113.65
 21
1343.097
 31
0
 0
LINE
 8
TOOL_0
 5
1E6
 10
10113.65
 20
1343.097
 30
0
 11
11075.15
 21
1343.097
 31
0
 0
LINE
 8
TOOL_0
 5
1E7
 10
11075.15
 20
1343.097
 30
0
 11
11075.15
 21
691.597
 31
0
 0
LINE
 8
TOOL_0
 5
1E8
 10
11075.15
 20
691.597
 30
0
 11
11075.15
 21
686.598
 31
0
 0
LINE
 8
TOOL_0
 5
1E9
 10
11075.15
 20
686.598
 30
0
 11
11457.167
 21
50.685
 31
0
 0
LINE
 8
TOOL_0
 5
1EA
 10
11457.167
 20
50.685
 30
0
 11
11457.167
 21
19.656
 31
0
 0
LINE
 8
TOOL_0
 5
1EB
 10
11457.167
 20
19.656
 30
0
 11
11446.668
 21
19.996
 31
0
 0
LINE
 8
TOOL_0
 5
1EC
 10
11446.668
 20
19.996
 30
0
 11
11095.168
 21
19.996
 31
0
 0
LINE
 8
TOOL_0
 5
1ED
 10
11095.168
 20
19.996
 30
0
 11
11095.168
 21
171.496
 31
0
 0
LINE
 8
TOOL_0
 5
1EE
 10
11095.168
 20
171.496
 30
0
 11
11446.668
 21
171.496
 31
0
 0
LINE
 8
TOOL_0
 5
1EF
 10
11446.668
 20
171.496
 30
0
 11
11446.668
 21
19.996
 31
0
 0
LINE
 8
TOOL_0
 5
1F0
 10
11446.668
 20
19.996
 30
0
 11
11446.668
 21
14.707
 31
0
 0
LINE
 8
TOOL_0
 5
1F1
 10
11446.668
 20
14.707
 30
0
 11
11457.167
 21
222.185
 31
0
 0
LINE
 8
TOOL_0
 5
1F2
 10
11457.167
 20
222.185
 30
0
 11
11457.167
 21
191.156
 31
0
 0
LINE
 8
TOOL_0
 5
1F3
 10
11457.167
 20
191.156
 30
0
 11
11446.668
 21
191.496
 31
0
 0
LINE
 8
TOOL_0
 5
1F4
 10
11446.668
 20
191.496
 30
0
 11
11095.168
 21
191.496
 31
0
 0
LINE
 8
TOOL_0
 5
1F5
 10
11095.168
 20
191.496
 30
0
 11
11095.168
 21
342.996
 31
0
 0
LINE
 8
TOOL_0
 5
1F6
 10
11095.168
 20
342.996
 30
0
 11
11446.668
 21
342.996
 31
0
 0
LINE
 8
TOOL_0
 5
1F7
 10
11446.668
 20
342.996
 30
0
 11
11446.668
 21
191.496
 31
0
 0
LINE
 8
TOOL_0
 5
1F8
 10
11446.668
 20
191.496
 30
0
 11
11446.668
 21
186.207
 31
0
 0
LINE
 8
TOOL_0
 5
1F9
 10
11446.668
 20
186.207
 30
0
 11
11457.167
 21
393.684
 31
0
 0
LINE
 8
TOOL_0
 5
1FA
 10
11457.167
 20
393.684
 30
0
 11
11457.167
 21
362.656
 31
0
 0
LINE
 8
TOOL_0
 5
1FB
 10
11457.167
 20
362.656
 30
0
 11
11446.668
 21
362.996
 31
0
 0
LINE
 8
TOOL_0
 5
1FC
 10
11446.668
 20
362.996
 30
0
 11
11095.168
 21
362.996
 31
0
 0
LINE
 8
TOOL_0
 5
1FD
 10
11095.168
 20
362.996
 30
0
 11
11095.168
 21
514.496
 31
0
 0
LINE
 8
TOOL_0
 5
1FE
 10
11095.168
 20
514.496
 30
0
 11
11446.668
 21
514.496
 31
0
 0
LINE
 8
TOOL_0
 5
1FF
 10
11446.668
 20
514.496
 30
0
 11
11446.668
 21
362.996
 31
0
 0
LINE
 8
TOOL_0
 5
200
 10
11446.668
 20
362.996
 30
0
 11
11446.668
 21
357.707
 31
0
 0
LINE
 8
TOOL_0
 5
201
 10
11446.668
 20
357.707
 30
0
 11
11457.167
 21
565.185
 31
0
 0
LINE
 8
TOOL_0
 5
202
 10
11457.167
 20
565.185
 30
0
 11
11457.167
 21
534.156
 31
0
 0
LINE
 8
TOOL_0
 5
203
 10
11457.167
 20
534.156
 30
0
 11
11446.668
 21
534.496
 31
0
 0
LINE
 8
TOOL_0
 5
204
 10
11446.668
 20
534.496
 30
0
 11
11095.168
 21
534.496
 31
0
 0
LINE
 8
TOOL_0
 5
205
 10
11095.168
 20
534.496
 30
0
 11
11095.168
 21
685.996
 31
0
 0
LINE
 8
TOOL_0
 5
206
 10
11095.168
 20
685.996
 30
0
 11
11446.668
 21
685.996
 31
0
 0
LINE
 8
TOOL_0
 5
207
 10
11446.668
 20
685.996
 30
0
 11
11446.668
 21
534.496
 31
0
 0
LINE
 8
TOOL_0
 5
208
 10
11446.668
 20
534.496
 30
0
 11
11446.668
 21
529.207
 31
0
 0
LINE
 8
TOOL_0
 5
209
 10
11446.668
 20
529.207
 30
0
 11
11457.167
 21
736.685
 31
0
 0
LINE
 8
TOOL_0
 5
20A
 10
11457.167
 20
736.685
 30
0
 11
11457.167
 21
705.656
 31
0
 0
LINE
 8
TOOL_0
 5
20B
 10
11457.167
 20
705.656
 30
0
 11
11446.668
 21
705.996
 31
0
 0
LINE
 8
TOOL_0
 5
20C
 10
11446.668
 20
705.996
 30
0
 11
11095.168
 21
705.996
 31
0
 0
LINE
 8
TOOL_0
 5
20D
 10
11095.168
 20
705.996
 30
0
 11
11095.168
 21
857.496
 31
0
 0
LINE
 8
TOOL_0
 5
20E
 10
11095.168
 20
857.496
 30
0
 11
11446.668
 21
857.496
 31
0
 0
LINE
 8
TOOL_0
 5
20F
 10
11446.668
 20
857.496
 30
0
 11
11446.668
 21
705.996
 31
0
 0
LINE
 8
TOOL_0
 5
210
 10
11446.668
 20
705.996
 30
0
 11
11446.668
 21
700.707
 31
0
 0
LINE
 8
TOOL_0
 5
211
 10
11446.668
 20
700.707
 30
0
 11
11457.167
 21
908.184
 31
0
 0
LINE
 8
TOOL_0
 5
212
 10
11457.167
 20
908.184
 30
0
 11
11457.167
 21
877.155
 31
0
 0
LINE
 8
TOOL_0
 5
213
 10
11457.167
 20
877.155
 30
0
 11
11446.668
 21
877.495
 31
0
 0
LINE
 8
TOOL_0
 5
214
 10
11446.668
 20
877.495
 30
0
 11
11095.168
 21
877.495
 31
0
 0
LINE
 8
TOOL_0
 5
215
 10
11095.168
 20
877.495
 30
0
 11
11095.168
 21
1028.995
 31
0
 0
LINE
 8
TOOL_0
 5
216
 10
11095.168
 20
1028.995
 30
0
 11
11446.668
 21
1028.995
 31
0
 0
LINE
 8
TOOL_0
 5
217
 10
11446.668
 20
1028.995
 30
0
 11
11446.668
 21
877.495
 31
0
 0
LINE
 8
TOOL_0
 5
218
 10
11446.668
 20
877.495
 30
0
 11
11446.668
 21
872.206
 31
0
 0
LINE
 8
TOOL_0
 5
219
 10
11446.668
 20
872.206
 30
0
 11
11627.262
 21
1395.356
 31
0
 0
LINE
 8
TOOL_0
 5
21A
 10
11627.262
 20
1395.356
 30
0
 11
11627.262
 21
1362.782
 31
0
 0
LINE
 8
TOOL_0
 5
21B
 10
11627.262
 20
1362.782
 30
0
 11
11609.813
 21
1364.009
 31
0
 0
LINE
 8
TOOL_0
 5
21C
 10
11609.813
 20
1364.009
 30
0
 11
10108.313
 21
1364.009
 31
0
 0
LINE
 8
TOOL_0
 5
21D
 10
10108.313
 20
1364.009
 30
0
 11
10108.313
 21
1525.509
 31
0
 0
LINE
 8
TOOL_0
 5
21E
 10
10108.313
 20
1525.509
 30
0
 11
11609.813
 21
1525.509
 31
0
 0
LINE
 8
TOOL_0
 5
21F
 10
11609.813
 20
1525.509
 30
0
 11
11609.813
 21
1364.009
 31
0
 0
LINE
 8
TOOL_0
 5
220
 10
11609.813
 20
1364.009
 30
0
 11
11609.813
 21
1359.078
 31
0
 0
LINE
 8
TOOL_0
 5
221
 10
11609.813
 20
1359.078
 30
0
 11
11627.262
 21
1578.239
 31
0
 0
LINE
 8
TOOL_0
 5
222
 10
11627.262
 20
1578.239
 30
0
 11
11627.262
 21
1545.665
 31
0
 0
LINE
 8
TOOL_0
 5
223
 10
11627.262
 20
1545.665
 30
0
 11
11609.813
 21
1546.892
 31
0
 0
LINE
 8
TOOL_0
 5
224
 10
11609.813
 20
1546.892
 30
0
 11
10108.313
 21
1546.892
 31
0
 0
LINE
 8
TOOL_0
 5
225
 10
10108.313
 20
1546.892
 30
0
 11
10108.313
 21
1708.392
 31
0
 0
LINE
 8
TOOL_0
 5
226
 10
10108.313
 20
1708.392
 30
0
 11
11609.813
 21
1708.392
 31
0
 0
LINE
 8
TOOL_0
 5
227
 10
11609.813
 20
1708.392
 30
0
 11
11609.813
 21
1546.892
 31
0
 0
LINE
 8
TOOL_0
 5
228
 10
11609.813
 20
1546.892
 30
0
 11
11609.813
 21
1541.961
 31
0
 0
LINE
 8
TOOL_0
 5
229
 10
11609.813
 20
1541.961
 30
0
 11
11627.265
 21
1759.741
 31
0
 0
LINE
 8
TOOL_0
 5
22A
 10
11627.265
 20
1759.741
 30
0
 11
11627.265
 21
1727.167
 31
0
 0
LINE
 8
TOOL_0
 5
22B
 10
11627.265
 20
1727.167
 30
0
 11
11609.816
 21
1728.394
 31
0
 0
LINE
 8
TOOL_0
 5
22C
 10
11609.816
 20
1728.394
 30
0
 11
10108.316
 21
1728.394
 31
0
 0
LINE
 8
TOOL_0
 5
22D
 10
10108.316
 20
1728.394
 30
0
 11
10108.316
 21
1889.894
 31
0
 0
LINE
 8
TOOL_0
 5
22E
 10
10108.316
 20
1889.894
 30
0
 11
11609.816
 21
1889.894
 31
0
 0
LINE
 8
TOOL_0
 5
22F
 10
11609.816
 20
1889.894
 30
0
 11
11609.816
 21
1728.394
 31
0
 0
LINE
 8
TOOL_0
 5
230
 10
11609.816
 20
1728.394
 30
0
 11
11609.816
 21
1723.463
 31
0
 0
LINE
 8
TOOL_0
 5
231
 10
11609.816
 20
1723.463
 30
0
 11
11613.501
 21
1941.243
 31
0
 0
LINE
 8
TOOL_0
 5
232
 10
11613.501
 20
1941.243
 30
0
 11
11613.501
 21
1908.669
 31
0
 0
LINE
 8
TOOL_0
 5
233
 10
11613.501
 20
1908.669
 30
0
 11
11596.052
 21
1909.896
 31
0
 0
LINE
 8
TOOL_0
 5
234
 10
11596.052
 20
1909.896
 30
0
 11
10094.552
 21
1909.896
 31
0
 0
LINE
 8
TOOL_0
 5
235
 10
10094.552
 20
1909.896
 30
0
 11
10094.552
 21
2071.396
 31
0
 0
LINE
 8
TOOL_0
 5
236
 10
10094.552
 20
2071.396
 30
0
 11
11596.052
 21
2071.396
 31
0
 0
LINE
 8
TOOL_0
 5
237
 10
11596.052
 20
2071.396
 30
0
 11
11596.052
 21
1909.896
 31
0
 0
LINE
 8
TOOL_0
 5
238
 10
11596.052
 20
1909.896
 30
0
 11
11596.052
 21
1904.965
 31
0
 0
LINE
 8
TOOL_0
 5
239
 10
11596.052
 20
1904.965
 30
0
 11
11610.352
 21
2122.904
 31
0
 0
LINE
 8
TOOL_0
 5
23A
 10
11610.352
 20
2122.904
 30
0
 11
11610.352
 21
2090.33
 31
0
 0
LINE
 8
TOOL_0
 5
23B
 10
11610.352
 20
2090.33
 30
0
 11
11592.903
 21
2091.557
 31
0
 0
LINE
 8
TOOL_0
 5
23C
 10
11592.903
 20
2091.557
 30
0
 11
10091.403
 21
2091.557
 31
0
 0
LINE
 8
TOOL_0
 5
23D
 10
10091.403
 20
2091.557
 30
0
 11
10091.403
 21
2253.057
 31
0
 0
LINE
 8
TOOL_0
 5
23E
 10
10091.403
 20
2253.057
 30
0
 11
11592.903
 21
2253.057
 31
0
 0
LINE
 8
TOOL_0
 5
23F
 10
11592.903
 20
2253.057
 30
0
 11
11592.903
 21
2091.557
 31
0
 0
LINE
 8
TOOL_0
 5
240
 10
11592.903
 20
2091.557
 30
0
 11
11592.903
 21
2086.626
 31
0
 0
LINE
 8
TOOL_0
 5
241
 10
11592.903
 20
2086.626
 30
0
 11
11837.2
 21
50.684
 31
0
 0
LINE
 8
TOOL_0
 5
242
 10
11837.2
 20
50.684
 30
0
 11
11837.2
 21
19.655
 31
0
 0
LINE
 8
TOOL_0
 5
243
 10
11837.2
 20
19.655
 30
0
 11
11826.701
 21
19.995
 31
0
 0
LINE
 8
TOOL_0
 5
244
 10
11826.701
 20
19.995
 30
0
 11
11475.201
 21
19.995
 31
0
 0
LINE
 8
TOOL_0
 5
245
 10
11475.201
 20
19.995
 30
0
 11
11475.201
 21
171.495
 31
0
 0
LINE
 8
TOOL_0
 5
246
 10
11475.201
 20
171.495
 30
0
 11
11826.701
 21
171.495
 31
0
 0
LINE
 8
TOOL_0
 5
247
 10
11826.701
 20
171.495
 30
0
 11
11826.701
 21
19.995
 31
0
 0
LINE
 8
TOOL_0
 5
248
 10
11826.701
 20
19.995
 30
0
 11
11826.701
 21
14.706
 31
0
 0
LINE
 8
TOOL_0
 5
249
 10
11826.701
 20
14.706
 30
0
 11
11837.2
 21
222.184
 31
0
 0
LINE
 8
TOOL_0
 5
24A
 10
11837.2
 20
222.184
 30
0
 11
11837.2
 21
191.155
 31
0
 0
LINE
 8
TOOL_0
 5
24B
 10
11837.2
 20
191.155
 30
0
 11
11826.701
 21
191.495
 31
0
 0
LINE
 8
TOOL_0
 5
24C
 10
11826.701
 20
191.495
 30
0
 11
11475.201
 21
191.495
 31
0
 0
LINE
 8
TOOL_0
 5
24D
 10
11475.201
 20
191.495
 30
0
 11
11475.201
 21
342.995
 31
0
 0
LINE
 8
TOOL_0
 5
24E
 10
11475.201
 20
342.995
 30
0
 11
11826.701
 21
342.995
 31
0
 0
LINE
 8
TOOL_0
 5
24F
 10
11826.701
 20
342.995
 30
0
 11
11826.701
 21
191.495
 31
0
 0
LINE
 8
TOOL_0
 5
250
 10
11826.701
 20
191.495
 30
0
 11
11826.701
 21
186.206
 31
0
 0
LINE
 8
TOOL_0
 5
251
 10
11826.701
 20
186.206
 30
0
 11
11837.2
 21
393.683
 31
0
 0
LINE
 8
TOOL_0
 5
252
 10
11837.2
 20
393.683
 30
0
 11
11837.2
 21
362.655
 31
0
 0
LINE
 8
TOOL_0
 5
253
 10
11837.2
 20
362.655
 30
0
 11
11826.701
 21
362.995
 31
0
 0
LINE
 8
TOOL_0
 5
254
 10
11826.701
 20
362.995
 30
0
 11
11475.201
 21
362.995
 31
0
 0
LINE
 8
TOOL_0
 5
255
 10
11475.201
 20
362.995
 30
0
 11
11475.201
 21
514.495
 31
0
 0
LINE
 8
TOOL_0
 5
256
 10
11475.201
 20
514.495
 30
0
 11
11826.701
 21
514.495
 31
0
 0
LINE
 8
TOOL_0
 5
257
 10
11826.701
 20
514.495
 30
0
 11
11826.701
 21
362.995
 31
0
 0
LINE
 8
TOOL_0
 5
258
 10
11826.701
 20
362.995
 30
0
 11
11826.701
 21
357.706
 31
0
 0
LINE
 8
TOOL_0
 5
259
 10
11826.701
 20
357.706
 30
0
 11
11837.2
 21
565.184
 31
0
 0
LINE
 8
TOOL_0
 5
25A
 10
11837.2
 20
565.184
 30
0
 11
11837.2
 21
534.155
 31
0
 0
LINE
 8
TOOL_0
 5
25B
 10
11837.2
 20
534.155
 30
0
 11
11826.701
 21
534.495
 31
0
 0
LINE
 8
TOOL_0
 5
25C
 10
11826.701
 20
534.495
 30
0
 11
11475.201
 21
534.495
 31
0
 0
LINE
 8
TOOL_0
 5
25D
 10
11475.201
 20
534.495
 30
0
 11
11475.201
 21
685.995
 31
0
 0
LINE
 8
TOOL_0
 5
25E
 10
11475.201
 20
685.995
 30
0
 11
11826.701
 21
685.995
 31
0
 0
LINE
 8
TOOL_0
 5
25F
 10
11826.701
 20
685.995
 30
0
 11
11826.701
 21
534.495
 31
0
 0
LINE
 8
TOOL_0
 5
260
 10
11826.701
 20
534.495
 30
0
 11
11826.701
 21
529.206
 31
0
 0
LINE
 8
TOOL_0
 5
261
 10
11826.701
 20
529.206
 30
0
 11
11837.2
 21
736.684
 31
0
 0
LINE
 8
TOOL_0
 5
262
 10
11837.2
 20
736.684
 30
0
 11
11837.2
 21
705.655
 31
0
 0
LINE
 8
TOOL_0
 5
263
 10
11837.2
 20
705.655
 30
0
 11
11826.701
 21
705.995
 31
0
 0
LINE
 8
TOOL_0
 5
264
 10
11826.701
 20
705.995
 30
0
 11
11475.201
 21
705.995
 31
0
 0
LINE
 8
TOOL_0
 5
265
 10
11475.201
 20
705.995
 30
0
 11
11475.201
 21
857.495
 31
0
 0
LINE
 8
TOOL_0
 5
266
 10
11475.201
 20
857.495
 30
0
 11
11826.701
 21
857.495
 31
0
 0
LINE
 8
TOOL_0
 5
267
 10
11826.701
 20
857.495
 30
0
 11
11826.701
 21
705.995
 31
0
 0
LINE
 8
TOOL_0
 5
268
 10
11826.701
 20
705.995
 30
0
 11
11826.701
 21
700.706
 31
0
 0
LINE
 8
TOOL_0
 5
269
 10
11826.701
 20
700.706
 30
0
 11
11837.2
 21
908.183
 31
0
 0
LINE
 8
TOOL_0
 5
26A
 10
11837.2
 20
908.183
 30
0
 11
11837.2
 21
877.154
 31
0
 0
LINE
 8
TOOL_0
 5
26B
 10
11837.2
 20
877.154
 30
0
 11
11826.701
 21
877.494
 31
0
 0
LINE
 8
TOOL_0
 5
26C
 10
11826.701
 20
877.494
 30
0
 11
11475.201
 21
877.494
 31
0
 0
LINE
 8
TOOL_0
 5
26D
 10
11475.201
 20
877.494
 30
0
 11
11475.201
 21
1028.994
 31
0
 0
LINE
 8
TOOL_0
 5
26E
 10
11475.201
 20
1028.994
 30
0
 11
11826.701
 21
1028.994
 31
0
 0
LINE
 8
TOOL_0
 5
26F
 10
11826.701
 20
1028.994
 30
0
 11
11826.701
 21
877.494
 31
0
 0
LINE
 8
TOOL_0
 5
270
 10
11826.701
 20
877.494
 30
0
 11
11826.701
 21
872.205
 31
0
 0
ENDSEC
 0
EOF

