0
SECTION
2
TABLES
0
TABLE
2
LAYER
70
0
0
LAYER
2
LAYER_NAME
70
0
62
1
6
CONTINUOUS
0
ENDTAB
0
ENDSEC
 0
SECTION
 2
ENTITIES
 0
LINE
 8
TOOL_0
 5
1
 10
285.0
 20
-425.239
 30
0
 11
335.0
 21
-425.239
 31
0
 0
ARC
 8
TOOL_0
 5
2
 10
295.0
 20
-425.239
 30
0
 40
40.0
 50
0
 51
90.0
210
0
220
0
230
1.0
 0
LINE
 8
TOOL_0
 5
3
 10
295.0
 20
-385.239
 30
0
 11
225.0
 21
-385.239
 31
0
 0
ARC
 8
TOOL_0
 5
4
 10
225.0
 20
-425.239
 30
0
 40
40.0
 50
90.0
 51
270.0
210
0
220
0
230
1.0
 0
LINE
 8
TOOL_0
 5
5
 10
225.0
 20
-465.239
 30
0
 11
295.0
 21
-465.239
 31
0
 0
ARC
 8
TOOL_0
 5
6
 10
295.0
 20
-425.239
 30
0
 40
40.0
 50
270.0
 51
0
210
0
220
0
230
1.0
 0
ARC
 8
TOOL_0
 5
7
 10
327.0
 20
-425.239
 30
0
 40
8.0
 50
0
 51
57.299199559757
210
0
220
0
230
1.0
 0
LINE
 8
TOOL_0
 5
8
 10
331.322
 20
-418.507
 30
0
 11
519.738
 21
-507.511
 31
0
 0
ARC
 8
TOOL_0
 5
9
 10
510.0
 20
-505.239
 30
0
 40
9.99953138902
 50
346.867093685725
 51
90.0
210
0
220
0
230
1.0
 0
LINE
 8
TOOL_0
 5
A
 10
510.0
 20
-495.239
 30
0
 11
10.0
 21
-495.239
 31
0
 0
LINE
 8
TOOL_0
 5
B
 10
10.0
 20
-495.239
 30
0
 11
10.0
 21
-145.239
 31
0
 0
LINE
 8
TOOL_0
 5
C
 10
10.0
 20
-145.239
 30
0
 11
510.0
 21
-145.239
 31
0
 0
LINE
 8
TOOL_0
 5
D
 10
510.0
 20
-145.239
 30
0
 11
510.0
 21
-495.239
 31
0
 0
LINE
 8
TOOL_0
 5
E
 10
510.0
 20
-495.239
 30
0
 11
515.657
 21
-500.896
 31
0
 0
LINE
 8
TOOL_0
 5
F
 10
515.657
 20
-500.896
 30
0
 11
802.709
 21
-425.578
 31
0
 0
LINE
 8
TOOL_0
 5
10
 10
802.709
 20
-425.578
 30
0
 11
852.709
 21
-425.578
 31
0
 0
ARC
 8
TOOL_0
 5
11
 10
812.709
 20
-425.578
 30
0
 40
40.0
 50
0
 51
90.0
210
0
220
0
230
1.0
 0
LINE
 8
TOOL_0
 5
12
 10
812.709
 20
-385.578
 30
0
 11
742.709
 21
-385.578
 31
0
 0
ARC
 8
TOOL_0
 5
13
 10
742.709
 20
-425.578
 30
0
 40
40.0
 50
90.0
 51
270.0
210
0
220
0
230
1.0
 0
LINE
 8
TOOL_0
 5
14
 10
742.709
 20
-465.578
 30
0
 11
812.709
 21
-465.578
 31
0
 0
ARC
 8
TOOL_0
 5
15
 10
812.709
 20
-425.578
 30
0
 40
40.0
 50
270.0
 51
0
210
0
220
0
230
1.0
 0
ARC
 8
TOOL_0
 5
16
 10
844.709
 20
-425.578
 30
0
 40
8.0
 50
0
 51
57.299199559757
210
0
220
0
230
1.0
 0
LINE
 8
TOOL_0
 5
17
 10
849.031
 20
-418.846
 30
0
 11
1035.208
 21
-495.577
 31
0
 0
LINE
 8
TOOL_0
 5
18
 10
1035.208
 20
-495.577
 30
0
 11
1027.708
 21
-495.577
 31
0
 0
LINE
 8
TOOL_0
 5
19
 10
1027.708
 20
-495.577
 30
0
 11
527.708
 21
-495.577
 31
0
 0
LINE
 8
TOOL_0
 5
1A
 10
527.708
 20
-495.577
 30
0
 11
527.708
 21
-145.577
 31
0
 0
LINE
 8
TOOL_0
 5
1B
 10
527.708
 20
-145.577
 30
0
 11
1027.708
 21
-145.577
 31
0
 0
LINE
 8
TOOL_0
 5
1C
 10
1027.708
 20
-145.577
 30
0
 11
1027.708
 21
-495.577
 31
0
 0
LINE
 8
TOOL_0
 5
1D
 10
1027.708
 20
-495.577
 30
0
 11
1027.708
 21
-499.577
 31
0
 0
LINE
 8
TOOL_0
 5
1E
 10
1027.708
 20
-499.577
 30
0
 11
1318.712
 21
-425.577
 31
0
 0
LINE
 8
TOOL_0
 5
1F
 10
1318.712
 20
-425.577
 30
0
 11
1368.712
 21
-425.577
 31
0
 0
ARC
 8
TOOL_0
 5
20
 10
1328.712
 20
-425.577
 30
0
 40
40.0
 50
0
 51
90.0
210
0
220
0
230
1.0
 0
LINE
 8
TOOL_0
 5
21
 10
1328.712
 20
-385.577
 30
0
 11
1258.712
 21
-385.577
 31
0
 0
ARC
 8
TOOL_0
 5
22
 10
1258.712
 20
-425.577
 30
0
 40
40.0
 50
90.0
 51
270.0
210
0
220
0
230
1.0
 0
LINE
 8
TOOL_0
 5
23
 10
1258.712
 20
-465.577
 30
0
 11
1328.712
 21
-465.577
 31
0
 0
ARC
 8
TOOL_0
 5
24
 10
1328.712
 20
-425.577
 30
0
 40
40.0
 50
270.0
 51
0
210
0
220
0
230
1.0
 0
ARC
 8
TOOL_0
 5
25
 10
1360.712
 20
-425.577
 30
0
 40
8.0
 50
0
 51
57.299199559758
210
0
220
0
230
1.0
 0
LINE
 8
TOOL_0
 5
26
 10
1365.034
 20
-418.845
 30
0
 11
1551.212
 21
-495.576
 31
0
 0
LINE
 8
TOOL_0
 5
27
 10
1551.212
 20
-495.576
 30
0
 11
1543.712
 21
-495.576
 31
0
 0
LINE
 8
TOOL_0
 5
28
 10
1543.712
 20
-495.576
 30
0
 11
1043.712
 21
-495.576
 31
0
 0
LINE
 8
TOOL_0
 5
29
 10
1043.712
 20
-495.576
 30
0
 11
1043.712
 21
-145.576
 31
0
 0
LINE
 8
TOOL_0
 5
2A
 10
1043.712
 20
-145.576
 30
0
 11
1543.712
 21
-145.576
 31
0
 0
LINE
 8
TOOL_0
 5
2B
 10
1543.712
 20
-145.576
 30
0
 11
1543.712
 21
-495.576
 31
0
 0
LINE
 8
TOOL_0
 5
2C
 10
1543.712
 20
-495.576
 30
0
 11
1543.712
 21
-499.576
 31
0
 0
LINE
 8
TOOL_0
 5
2D
 10
1543.712
 20
-499.576
 30
0
 11
1834.716
 21
-425.577
 31
0
 0
LINE
 8
TOOL_0
 5
2E
 10
1834.716
 20
-425.577
 30
0
 11
1884.716
 21
-425.577
 31
0
 0
ARC
 8
TOOL_0
 5
2F
 10
1844.716
 20
-425.577
 30
0
 40
40.0
 50
0
 51
90.0
210
0
220
0
230
1.0
 0
LINE
 8
TOOL_0
 5
30
 10
1844.716
 20
-385.577
 30
0
 11
1774.716
 21
-385.577
 31
0
 0
ARC
 8
TOOL_0
 5
31
 10
1774.716
 20
-425.577
 30
0
 40
40.0
 50
90.0
 51
270.0
210
0
220
0
230
1.0
 0
LINE
 8
TOOL_0
 5
32
 10
1774.716
 20
-465.577
 30
0
 11
1844.716
 21
-465.577
 31
0
 0
ARC
 8
TOOL_0
 5
33
 10
1844.716
 20
-425.577
 30
0
 40
40.0
 50
270.0
 51
0
210
0
220
0
230
1.0
 0
ARC
 8
TOOL_0
 5
34
 10
1876.716
 20
-425.577
 30
0
 40
8.0
 50
0
 51
57.299199559758
210
0
220
0
230
1.0
 0
LINE
 8
TOOL_0
 5
35
 10
1881.038
 20
-418.845
 30
0
 11
2067.216
 21
-495.577
 31
0
 0
LINE
 8
TOOL_0
 5
36
 10
2067.216
 20
-495.577
 30
0
 11
2059.716
 21
-495.577
 31
0
 0
LINE
 8
TOOL_0
 5
37
 10
2059.716
 20
-495.577
 30
0
 11
1559.716
 21
-495.577
 31
0
 0
LINE
 8
TOOL_0
 5
38
 10
1559.716
 20
-495.577
 30
0
 11
1559.716
 21
-145.577
 31
0
 0
LINE
 8
TOOL_0
 5
39
 10
1559.716
 20
-145.577
 30
0
 11
2059.716
 21
-145.577
 31
0
 0
LINE
 8
TOOL_0
 5
3A
 10
2059.716
 20
-145.577
 30
0
 11
2059.716
 21
-495.577
 31
0
 0
LINE
 8
TOOL_0
 5
3B
 10
2059.716
 20
-495.577
 30
0
 11
2059.716
 21
-499.577
 31
0
 0
LINE
 8
TOOL_0
 5
3C
 10
2059.716
 20
-499.577
 30
0
 11
2350.719
 21
-425.576
 31
0
 0
LINE
 8
TOOL_0
 5
3D
 10
2350.719
 20
-425.576
 30
0
 11
2400.719
 21
-425.576
 31
0
 0
ARC
 8
TOOL_0
 5
3E
 10
2360.719
 20
-425.576
 30
0
 40
40.0
 50
0
 51
90.0
210
0
220
0
230
1.0
 0
LINE
 8
TOOL_0
 5
3F
 10
2360.719
 20
-385.576
 30
0
 11
2290.719
 21
-385.576
 31
0
 0
ARC
 8
TOOL_0
 5
40
 10
2290.719
 20
-425.576
 30
0
 40
40.0
 50
90.0
 51
270.0
210
0
220
0
230
1.0
 0
LINE
 8
TOOL_0
 5
41
 10
2290.719
 20
-465.576
 30
0
 11
2360.719
 21
-465.576
 31
0
 0
ARC
 8
TOOL_0
 5
42
 10
2360.719
 20
-425.576
 30
0
 40
40.0
 50
270.0
 51
0
210
0
220
0
230
1.0
 0
ARC
 8
TOOL_0
 5
43
 10
2392.719
 20
-425.576
 30
0
 40
8.0
 50
0
 51
57.299199559757
210
0
220
0
230
1.0
 0
LINE
 8
TOOL_0
 5
44
 10
2397.041
 20
-418.844
 30
0
 11
2583.218
 21
-495.575
 31
0
 0
LINE
 8
TOOL_0
 5
45
 10
2583.218
 20
-495.575
 30
0
 11
2575.718
 21
-495.575
 31
0
 0
LINE
 8
TOOL_0
 5
46
 10
2575.718
 20
-495.575
 30
0
 11
2075.718
 21
-495.575
 31
0
 0
LINE
 8
TOOL_0
 5
47
 10
2075.718
 20
-495.575
 30
0
 11
2075.718
 21
-145.575
 31
0
 0
LINE
 8
TOOL_0
 5
48
 10
2075.718
 20
-145.575
 30
0
 11
2575.718
 21
-145.575
 31
0
 0
LINE
 8
TOOL_0
 5
49
 10
2575.718
 20
-145.575
 30
0
 11
2575.718
 21
-495.575
 31
0
 0
LINE
 8
TOOL_0
 5
4A
 10
2575.718
 20
-495.575
 30
0
 11
2575.718
 21
-499.575
 31
0
 0
LINE
 8
TOOL_0
 5
4B
 10
2575.718
 20
-499.575
 30
0
 11
2866.722
 21
-425.575
 31
0
 0
LINE
 8
TOOL_0
 5
4C
 10
2866.722
 20
-425.575
 30
0
 11
2916.722
 21
-425.575
 31
0
 0
ARC
 8
TOOL_0
 5
4D
 10
2876.722
 20
-425.575
 30
0
 40
40.0
 50
0
 51
90.0
210
0
220
0
230
1.0
 0
LINE
 8
TOOL_0
 5
4E
 10
2876.722
 20
-385.575
 30
0
 11
2806.722
 21
-385.575
 31
0
 0
ARC
 8
TOOL_0
 5
4F
 10
2806.722
 20
-425.575
 30
0
 40
40.0
 50
90.0
 51
270.0
210
0
220
0
230
1.0
 0
LINE
 8
TOOL_0
 5
50
 10
2806.722
 20
-465.575
 30
0
 11
2876.722
 21
-465.575
 31
0
 0
ARC
 8
TOOL_0
 5
51
 10
2876.722
 20
-425.575
 30
0
 40
40.0
 50
270.0
 51
0
210
0
220
0
230
1.0
 0
ARC
 8
TOOL_0
 5
52
 10
2908.722
 20
-425.575
 30
0
 40
8.0
 50
0
 51
57.299199559757
210
0
220
0
230
1.0
 0
LINE
 8
TOOL_0
 5
53
 10
2913.044
 20
-418.843
 30
0
 11
3099.222
 21
-495.574
 31
0
 0
LINE
 8
TOOL_0
 5
54
 10
3099.222
 20
-495.574
 30
0
 11
3091.722
 21
-495.574
 31
0
 0
LINE
 8
TOOL_0
 5
55
 10
3091.722
 20
-495.574
 30
0
 11
2591.722
 21
-495.574
 31
0
 0
LINE
 8
TOOL_0
 5
56
 10
2591.722
 20
-495.574
 30
0
 11
2591.722
 21
-145.574
 31
0
 0
LINE
 8
TOOL_0
 5
57
 10
2591.722
 20
-145.574
 30
0
 11
3091.722
 21
-145.574
 31
0
 0
LINE
 8
TOOL_0
 5
58
 10
3091.722
 20
-145.574
 30
0
 11
3091.722
 21
-495.574
 31
0
 0
LINE
 8
TOOL_0
 5
59
 10
3091.722
 20
-495.574
 30
0
 11
3091.722
 21
-499.574
 31
0
 0
LINE
 8
TOOL_0
 5
5A
 10
3091.722
 20
-499.574
 30
0
 11
3382.725
 21
-425.574
 31
0
 0
LINE
 8
TOOL_0
 5
5B
 10
3382.725
 20
-425.574
 30
0
 11
3432.725
 21
-425.574
 31
0
 0
ARC
 8
TOOL_0
 5
5C
 10
3392.725
 20
-425.574
 30
0
 40
40.0
 50
0
 51
90.0
210
0
220
0
230
1.0
 0
LINE
 8
TOOL_0
 5
5D
 10
3392.725
 20
-385.574
 30
0
 11
3322.725
 21
-385.574
 31
0
 0
ARC
 8
TOOL_0
 5
5E
 10
3322.725
 20
-425.574
 30
0
 40
40.0
 50
90.0
 51
270.0
210
0
220
0
230
1.0
 0
LINE
 8
TOOL_0
 5
5F
 10
3322.725
 20
-465.574
 30
0
 11
3392.725
 21
-465.574
 31
0
 0
ARC
 8
TOOL_0
 5
60
 10
3392.725
 20
-425.574
 30
0
 40
40.0
 50
270.0
 51
0
210
0
220
0
230
1.0
 0
ARC
 8
TOOL_0
 5
61
 10
3424.725
 20
-425.574
 30
0
 40
8.0
 50
0
 51
57.299199559757
210
0
220
0
230
1.0
 0
LINE
 8
TOOL_0
 5
62
 10
3429.047
 20
-418.842
 30
0
 11
3615.225
 21
-495.573
 31
0
 0
LINE
 8
TOOL_0
 5
63
 10
3615.225
 20
-495.573
 30
0
 11
3607.725
 21
-495.573
 31
0
 0
LINE
 8
TOOL_0
 5
64
 10
3607.725
 20
-495.573
 30
0
 11
3107.725
 21
-495.573
 31
0
 0
LINE
 8
TOOL_0
 5
65
 10
3107.725
 20
-495.573
 30
0
 11
3107.725
 21
-145.573
 31
0
 0
LINE
 8
TOOL_0
 5
66
 10
3107.725
 20
-145.573
 30
0
 11
3607.725
 21
-145.573
 31
0
 0
LINE
 8
TOOL_0
 5
67
 10
3607.725
 20
-145.573
 30
0
 11
3607.725
 21
-495.573
 31
0
 0
LINE
 8
TOOL_0
 5
68
 10
3607.725
 20
-495.573
 30
0
 11
3607.725
 21
-499.573
 31
0
 0
LINE
 8
TOOL_0
 5
69
 10
3607.725
 20
-499.573
 30
0
 11
3898.73
 21
-425.573
 31
0
 0
LINE
 8
TOOL_0
 5
6A
 10
3898.73
 20
-425.573
 30
0
 11
3948.73
 21
-425.573
 31
0
 0
ARC
 8
TOOL_0
 5
6B
 10
3908.73
 20
-425.573
 30
0
 40
40.0
 50
0
 51
90.0
210
0
220
0
230
1.0
 0
LINE
 8
TOOL_0
 5
6C
 10
3908.73
 20
-385.573
 30
0
 11
3838.73
 21
-385.573
 31
0
 0
ARC
 8
TOOL_0
 5
6D
 10
3838.73
 20
-425.573
 30
0
 40
40.0
 50
90.0
 51
270.0
210
0
220
0
230
1.0
 0
LINE
 8
TOOL_0
 5
6E
 10
3838.73
 20
-465.573
 30
0
 11
3908.73
 21
-465.573
 31
0
 0
ARC
 8
TOOL_0
 5
6F
 10
3908.73
 20
-425.573
 30
0
 40
40.0
 50
270.0
 51
0
210
0
220
0
230
1.0
 0
ARC
 8
TOOL_0
 5
70
 10
3940.73
 20
-425.573
 30
0
 40
8.0
 50
0
 51
57.299199559757
210
0
220
0
230
1.0
 0
LINE
 8
TOOL_0
 5
71
 10
3945.052
 20
-418.841
 30
0
 11
4131.23
 21
-495.572
 31
0
 0
LINE
 8
TOOL_0
 5
72
 10
4131.23
 20
-495.572
 30
0
 11
4123.73
 21
-495.572
 31
0
 0
LINE
 8
TOOL_0
 5
73
 10
4123.73
 20
-495.572
 30
0
 11
3623.73
 21
-495.572
 31
0
 0
LINE
 8
TOOL_0
 5
74
 10
3623.73
 20
-495.572
 30
0
 11
3623.73
 21
-145.572
 31
0
 0
LINE
 8
TOOL_0
 5
75
 10
3623.73
 20
-145.572
 30
0
 11
4123.73
 21
-145.572
 31
0
 0
LINE
 8
TOOL_0
 5
76
 10
4123.73
 20
-145.572
 30
0
 11
4123.73
 21
-495.572
 31
0
 0
LINE
 8
TOOL_0
 5
77
 10
4123.73
 20
-495.572
 30
0
 11
4123.73
 21
-499.572
 31
0
 0
LINE
 8
TOOL_0
 5
78
 10
4123.73
 20
-499.572
 30
0
 11
803.497
 21
-1699.78
 31
0
 0
LINE
 8
TOOL_0
 5
79
 10
803.497
 20
-1699.78
 30
0
 11
853.494
 21
-1699.274
 31
0
 0
ARC
 8
TOOL_0
 5
7A
 10
782.498
 20
-1699.993
 30
0
 40
70.999640682189
 50
0.580233494495
 51
180.580225322405
210
0
220
0
230
1.0
 0
ARC
 8
TOOL_0
 5
7B
 10
782.497
 20
-1699.993
 30
0
 40
70.999640682189
 50
180.580233494495
 51
0.580225322405
210
0
220
0
230
1.0
 0
ARC
 8
TOOL_0
 5
7C
 10
845.494
 20
-1699.354
 30
0
 40
8.000399990001
 50
0.572938697683
 51
57.875424736698
210
0
220
0
230
1.0
 0
LINE
 8
TOOL_0
 5
7D
 10
849.748
 20
-1692.579
 30
0
 11
3896.243
 21
-1690.528
 31
0
 0
LINE
 8
TOOL_0
 5
7E
 10
3896.243
 20
-1690.528
 30
0
 11
3940.878
 21
-1667.994
 31
0
 0
ARC
 8
TOOL_0
 5
7F
 10
3877.497
 20
-1699.992
 30
0
 40
71.000163133615
 50
26.787000837861
 51
206.78700083786
210
0
220
0
230
1.0
 0
ARC
 8
TOOL_0
 5
80
 10
3877.497
 20
-1699.992
 30
0
 40
71.000163133615
 50
206.787000837861
 51
26.787000837861
210
0
220
0
230
1.0
 0
ARC
 8
TOOL_0
 5
81
 10
3933.736
 20
-1671.599
 30
0
 40
8.000261808216
 50
26.782843912376
 51
84.080593017474
210
0
220
0
230
1.0
 0
LINE
 8
TOOL_0
 5
82
 10
3934.561
 20
-1663.642
 30
0
 11
4662.269
 21
-1300.254
 31
0
 0
ARC
 8
TOOL_0
 5
83
 10
4659.997
 20
-1309.992
 30
0
 40
9.99953138902
 50
76.867093685726
 51
180.0
210
0
220
0
230
1.0
 0
LINE
 8
TOOL_0
 5
84
 10
4649.997
 20
-1309.992
 30
0
 11
4649.997
 21
-2089.992
 31
0
 0
LINE
 8
TOOL_0
 5
85
 10
4649.997
 20
-2089.992
 30
0
 11
9.997
 21
-2089.992
 31
0
 0
LINE
 8
TOOL_0
 5
86
 10
9.997
 20
-2089.992
 30
0
 11
9.997
 21
-1309.992
 31
0
 0
LINE
 8
TOOL_0
 5
87
 10
9.997
 20
-1309.992
 30
0
 11
4649.997
 21
-1309.992
 31
0
 0
LINE
 8
TOOL_0
 5
88
 10
4649.997
 20
-1309.992
 30
0
 11
4655.654
 21
-1304.335
 31
0
 0
LINE
 8
TOOL_0
 5
89
 10
4655.654
 20
-1304.335
 30
0
 11
803.496
 21
-901.452
 31
0
 0
LINE
 8
TOOL_0
 5
8A
 10
803.496
 20
-901.452
 30
0
 11
853.493
 21
-900.946
 31
0
 0
ARC
 8
TOOL_0
 5
8B
 10
782.497
 20
-901.665
 30
0
 40
70.999640682189
 50
0.580233494495
 51
180.580225322405
210
0
220
0
230
1.0
 0
ARC
 8
TOOL_0
 5
8C
 10
782.496
 20
-901.665
 30
0
 40
70.999640682189
 50
180.580233494495
 51
0.580225322405
210
0
220
0
230
1.0
 0
ARC
 8
TOOL_0
 5
8D
 10
845.493
 20
-901.026
 30
0
 40
8.000399990001
 50
0.572938697684
 51
57.875424736699
210
0
220
0
230
1.0
 0
LINE
 8
TOOL_0
 5
8E
 10
849.747
 20
-894.251
 30
0
 11
3896.242
 21
-892.201
 31
0
 0
LINE
 8
TOOL_0
 5
8F
 10
3896.242
 20
-892.201
 30
0
 11
3940.877
 21
-869.667
 31
0
 0
ARC
 8
TOOL_0
 5
90
 10
3877.496
 20
-901.665
 30
0
 40
71.000163133615
 50
26.787000837861
 51
206.78700083786
210
0
220
0
230
1.0
 0
ARC
 8
TOOL_0
 5
91
 10
3877.496
 20
-901.665
 30
0
 40
71.000163133615
 50
206.787000837861
 51
26.787000837861
210
0
220
0
230
1.0
 0
ARC
 8
TOOL_0
 5
92
 10
3933.735
 20
-873.272
 30
0
 40
8.000261808216
 50
26.782843912376
 51
84.080593017474
210
0
220
0
230
1.0
 0
LINE
 8
TOOL_0
 5
93
 10
3934.56
 20
-865.315
 30
0
 11
4649.996
 21
-496.665
 31
0
 0
LINE
 8
TOOL_0
 5
94
 10
4649.996
 20
-496.665
 30
0
 11
4649.996
 21
-511.665
 31
0
 0
LINE
 8
TOOL_0
 5
95
 10
4649.996
 20
-511.665
 30
0
 11
4649.996
 21
-1291.665
 31
0
 0
LINE
 8
TOOL_0
 5
96
 10
4649.996
 20
-1291.665
 30
0
 11
9.996
 21
-1291.665
 31
0
 0
LINE
 8
TOOL_0
 5
97
 10
9.996
 20
-1291.665
 30
0
 11
9.996
 21
-511.665
 31
0
 0
LINE
 8
TOOL_0
 5
98
 10
9.996
 20
-511.665
 30
0
 11
4649.996
 21
-511.665
 31
0
 0
LINE
 8
TOOL_0
 5
99
 10
4649.996
 20
-511.665
 30
0
 11
4657.996
 21
-511.665
 31
0
 0
LINE
 8
TOOL_0
 5
9A
 10
4657.996
 20
-511.665
 30
0
 11
4414.731
 21
-425.571
 31
0
 0
LINE
 8
TOOL_0
 5
9B
 10
4414.731
 20
-425.571
 30
0
 11
4464.731
 21
-425.571
 31
0
 0
ARC
 8
TOOL_0
 5
9C
 10
4424.731
 20
-425.571
 30
0
 40
40.0
 50
0
 51
90.0
210
0
220
0
230
1.0
 0
LINE
 8
TOOL_0
 5
9D
 10
4424.731
 20
-385.571
 30
0
 11
4354.731
 21
-385.571
 31
0
 0
ARC
 8
TOOL_0
 5
9E
 10
4354.731
 20
-425.571
 30
0
 40
40.0
 50
90.0
 51
270.0
210
0
220
0
230
1.0
 0
LINE
 8
TOOL_0
 5
9F
 10
4354.731
 20
-465.571
 30
0
 11
4424.731
 21
-465.571
 31
0
 0
ARC
 8
TOOL_0
 5
A0
 10
4424.731
 20
-425.571
 30
0
 40
40.0
 50
270.0
 51
0
210
0
220
0
230
1.0
 0
ARC
 8
TOOL_0
 5
A1
 10
4456.731
 20
-425.571
 30
0
 40
8.0
 50
0
 51
57.299199559757
210
0
220
0
230
1.0
 0
LINE
 8
TOOL_0
 5
A2
 10
4461.053
 20
-418.839
 30
0
 11
4654.731
 21
-495.57
 31
0
 0
LINE
 8
TOOL_0
 5
A3
 10
4654.731
 20
-495.57
 30
0
 11
4639.731
 21
-495.57
 31
0
 0
LINE
 8
TOOL_0
 5
A4
 10
4639.731
 20
-495.57
 30
0
 11
4139.731
 21
-495.57
 31
0
 0
LINE
 8
TOOL_0
 5
A5
 10
4139.731
 20
-495.57
 30
0
 11
4139.731
 21
-145.57
 31
0
 0
LINE
 8
TOOL_0
 5
A6
 10
4139.731
 20
-145.57
 30
0
 11
4639.731
 21
-145.57
 31
0
 0
LINE
 8
TOOL_0
 5
A7
 10
4639.731
 20
-145.57
 30
0
 11
4639.731
 21
-495.57
 31
0
 0
LINE
 8
TOOL_0
 5
A8
 10
4639.731
 20
-495.57
 30
0
 11
4639.731
 21
-503.57
 31
0
 0
LINE
 8
TOOL_0
 5
A9
 10
4639.731
 20
-503.57
 30
0
 11
4921.299
 21
-626.991
 31
0
 0
LINE
 8
TOOL_0
 5
AA
 10
4921.299
 20
-626.991
 30
0
 11
4923.014
 21
-636.843
 31
0
 0
ARC
 8
TOOL_0
 5
AB
 10
4921.299
 20
-626.991
 30
0
 40
10.000156448776
 50
279.874887642764
 51
99.874887642764
210
0
220
0
230
1.0
 0
ARC
 8
TOOL_0
 5
AC
 10
4921.299
 20
-626.991
 30
0
 40
10.000156448776
 50
99.874887642764
 51
279.874887642764
210
0
220
0
230
1.0
 0
LINE
 8
TOOL_0
 5
AD
 10
4923.014
 20
-636.843
 30
0
 11
5183.799
 21
-2091.991
 31
0
 0
LINE
 8
TOOL_0
 5
AE
 10
5183.799
 20
-2091.991
 30
0
 11
5176.299
 21
-2091.991
 31
0
 0
LINE
 8
TOOL_0
 5
AF
 10
5176.299
 20
-2091.991
 30
0
 11
4666.299
 21
-2091.991
 31
0
 0
LINE
 8
TOOL_0
 5
B0
 10
4666.299
 20
-2091.991
 30
0
 11
4666.299
 21
-476.991
 31
0
 0
LINE
 8
TOOL_0
 5
B1
 10
4666.299
 20
-476.991
 30
0
 11
5176.299
 21
-476.991
 31
0
 0
LINE
 8
TOOL_0
 5
B2
 10
5176.299
 20
-476.991
 30
0
 11
5176.299
 21
-2091.991
 31
0
 0
LINE
 8
TOOL_0
 5
B3
 10
5176.299
 20
-2091.991
 30
0
 11
5176.299
 21
-2095.991
 31
0
 0
LINE
 8
TOOL_0
 5
B4
 10
5176.299
 20
-2095.991
 30
0
 11
4930.734
 21
-390.27
 31
0
 0
LINE
 8
TOOL_0
 5
B5
 10
4930.734
 20
-390.27
 30
0
 11
4980.734
 21
-390.27
 31
0
 0
ARC
 8
TOOL_0
 5
B6
 10
4940.734
 20
-390.27
 30
0
 40
40.0
 50
0
 51
90.0
210
0
220
0
230
1.0
 0
LINE
 8
TOOL_0
 5
B7
 10
4940.734
 20
-350.27
 30
0
 11
4870.734
 21
-350.27
 31
0
 0
ARC
 8
TOOL_0
 5
B8
 10
4870.734
 20
-390.27
 30
0
 40
40.0
 50
90.0
 51
270.0
210
0
220
0
230
1.0
 0
LINE
 8
TOOL_0
 5
B9
 10
4870.734
 20
-430.27
 30
0
 11
4940.734
 21
-430.27
 31
0
 0
ARC
 8
TOOL_0
 5
BA
 10
4940.734
 20
-390.27
 30
0
 40
40.0
 50
270.0
 51
0
210
0
220
0
230
1.0
 0
ARC
 8
TOOL_0
 5
BB
 10
4972.734
 20
-390.27
 30
0
 40
8.0
 50
0
 51
57.299199559757
210
0
220
0
230
1.0
 0
LINE
 8
TOOL_0
 5
BC
 10
4977.056
 20
-383.538
 30
0
 11
5165.472
 21
-472.541
 31
0
 0
ARC
 8
TOOL_0
 5
BD
 10
5155.734
 20
-470.269
 30
0
 40
9.99953138902
 50
346.867093685726
 51
90.0
210
0
220
0
230
1.0
 0
LINE
 8
TOOL_0
 5
BE
 10
5155.734
 20
-460.269
 30
0
 11
4655.734
 21
-460.269
 31
0
 0
LINE
 8
TOOL_0
 5
BF
 10
4655.734
 20
-460.269
 30
0
 11
4655.734
 21
-110.269
 31
0
 0
LINE
 8
TOOL_0
 5
C0
 10
4655.734
 20
-110.269
 30
0
 11
5155.734
 21
-110.269
 31
0
 0
LINE
 8
TOOL_0
 5
C1
 10
5155.734
 20
-110.269
 30
0
 11
5155.734
 21
-460.269
 31
0
 0
LINE
 8
TOOL_0
 5
C2
 10
5155.734
 20
-460.269
 30
0
 11
5161.391
 21
-465.926
 31
0
 0
LINE
 8
TOOL_0
 5
C3
 10
5161.391
 20
-465.926
 30
0
 11
5447.792
 21
-626.99
 31
0
 0
LINE
 8
TOOL_0
 5
C4
 10
5447.792
 20
-626.99
 30
0
 11
5449.507
 21
-636.842
 31
0
 0
ARC
 8
TOOL_0
 5
C5
 10
5447.792
 20
-626.99
 30
0
 40
10.000156448776
 50
279.874887642764
 51
99.874887642764
210
0
220
0
230
1.0
 0
ARC
 8
TOOL_0
 5
C6
 10
5447.792
 20
-626.99
 30
0
 40
10.000156448776
 50
99.874887642764
 51
279.874887642764
210
0
220
0
230
1.0
 0
LINE
 8
TOOL_0
 5
C7
 10
5449.507
 20
-636.842
 30
0
 11
5717.792
 21
-2091.99
 31
0
 0
LINE
 8
TOOL_0
 5
C8
 10
5717.792
 20
-2091.99
 30
0
 11
5702.792
 21
-2091.99
 31
0
 0
LINE
 8
TOOL_0
 5
C9
 10
5702.792
 20
-2091.99
 30
0
 11
5192.792
 21
-2091.99
 31
0
 0
LINE
 8
TOOL_0
 5
CA
 10
5192.792
 20
-2091.99
 30
0
 11
5192.792
 21
-476.99
 31
0
 0
LINE
 8
TOOL_0
 5
CB
 10
5192.792
 20
-476.99
 30
0
 11
5702.792
 21
-476.99
 31
0
 0
LINE
 8
TOOL_0
 5
CC
 10
5702.792
 20
-476.99
 30
0
 11
5702.792
 21
-2091.99
 31
0
 0
LINE
 8
TOOL_0
 5
CD
 10
5702.792
 20
-2091.99
 30
0
 11
5702.792
 21
-2099.99
 31
0
 0
LINE
 8
TOOL_0
 5
CE
 10
5702.792
 20
-2099.99
 30
0
 11
5446.738
 21
-390.948
 31
0
 0
LINE
 8
TOOL_0
 5
CF
 10
5446.738
 20
-390.948
 30
0
 11
5496.738
 21
-390.948
 31
0
 0
ARC
 8
TOOL_0
 5
D0
 10
5456.738
 20
-390.948
 30
0
 40
40.0
 50
0
 51
90.0
210
0
220
0
230
1.0
 0
LINE
 8
TOOL_0
 5
D1
 10
5456.738
 20
-350.948
 30
0
 11
5386.738
 21
-350.948
 31
0
 0
ARC
 8
TOOL_0
 5
D2
 10
5386.738
 20
-390.948
 30
0
 40
40.0
 50
90.0
 51
270.0
210
0
220
0
230
1.0
 0
LINE
 8
TOOL_0
 5
D3
 10
5386.738
 20
-430.948
 30
0
 11
5456.738
 21
-430.948
 31
0
 0
ARC
 8
TOOL_0
 5
D4
 10
5456.738
 20
-390.948
 30
0
 40
40.0
 50
270.0
 51
0
210
0
220
0
230
1.0
 0
ARC
 8
TOOL_0
 5
D5
 10
5488.738
 20
-390.948
 30
0
 40
8.0
 50
0
 51
57.299199559757
210
0
220
0
230
1.0
 0
LINE
 8
TOOL_0
 5
D6
 10
5493.06
 20
-384.216
 30
0
 11
5686.738
 21
-460.947
 31
0
 0
LINE
 8
TOOL_0
 5
D7
 10
5686.738
 20
-460.947
 30
0
 11
5671.738
 21
-460.947
 31
0
 0
LINE
 8
TOOL_0
 5
D8
 10
5671.738
 20
-460.947
 30
0
 11
5171.738
 21
-460.947
 31
0
 0
LINE
 8
TOOL_0
 5
D9
 10
5171.738
 20
-460.947
 30
0
 11
5171.738
 21
-110.947
 31
0
 0
LINE
 8
TOOL_0
 5
DA
 10
5171.738
 20
-110.947
 30
0
 11
5671.738
 21
-110.947
 31
0
 0
LINE
 8
TOOL_0
 5
DB
 10
5671.738
 20
-110.947
 30
0
 11
5671.738
 21
-460.947
 31
0
 0
LINE
 8
TOOL_0
 5
DC
 10
5671.738
 20
-460.947
 30
0
 11
5671.738
 21
-468.947
 31
0
 0
ENDSEC
 0
EOF

