0
SECTION
2
TABLES
0
TABLE
2
LAYER
70
0
0
LAYER
2
LAYER_NAME
70
0
62
1
6
CONTINUOUS
0
ENDTAB
0
ENDSEC
 0
SECTION
 2
ENTITIES
 0
LINE
 8
TOOL_0
 5
1
 10
1617.606
 20
347.251
 30
0
 11
1647.75
 21
347.251
 31
0
 0
LINE
 8
TOOL_0
 5
2
 10
1647.75
 20
347.251
 30
0
 11
1647.75
 21
512.251
 31
0
 0
ARC
 8
TOOL_0
 5
3
 10
1612.75
 20
512.251
 30
0
 40
35.0
 50
0
 51
90.0
210
0
220
0
230
1.0
 0
LINE
 8
TOOL_0
 5
4
 10
1612.75
 20
547.251
 30
0
 11
1457.75
 21
547.251
 31
0
 0
ARC
 8
TOOL_0
 5
5
 10
1457.75
 20
512.251
 30
0
 40
35.0
 50
90.0
 51
180.0
210
0
220
0
230
1.0
 0
LINE
 8
TOOL_0
 5
6
 10
1422.75
 20
512.251
 30
0
 11
1422.75
 21
182.251
 31
0
 0
ARC
 8
TOOL_0
 5
7
 10
1457.75
 20
182.251
 30
0
 40
35.0
 50
180.0
 51
270.0
210
0
220
0
230
1.0
 0
LINE
 8
TOOL_0
 5
8
 10
1457.75
 20
147.251
 30
0
 11
1612.75
 21
147.251
 31
0
 0
ARC
 8
TOOL_0
 5
9
 10
1612.75
 20
182.251
 30
0
 40
35.0
 50
270.0
 51
0
210
0
220
0
230
1.0
 0
LINE
 8
TOOL_0
 5
A
 10
1647.75
 20
182.251
 30
0
 11
1647.75
 21
347.251
 31
0
 0
LINE
 8
TOOL_0
 5
B
 10
1647.75
 20
347.251
 30
0
 11
1645.0
 21
351.65
 31
0
 0
LINE
 8
TOOL_0
 5
C
 10
1645.0
 20
351.65
 30
0
 11
2362.057
 21
347.251
 31
0
 0
LINE
 8
TOOL_0
 5
D
 10
2362.057
 20
347.251
 30
0
 11
2392.75
 21
347.251
 31
0
 0
LINE
 8
TOOL_0
 5
E
 10
2392.75
 20
347.251
 30
0
 11
2392.75
 21
512.251
 31
0
 0
ARC
 8
TOOL_0
 5
F
 10
2357.75
 20
512.251
 30
0
 40
35.0
 50
0
 51
90.0
210
0
220
0
230
1.0
 0
LINE
 8
TOOL_0
 5
10
 10
2357.75
 20
547.251
 30
0
 11
2202.75
 21
547.251
 31
0
 0
ARC
 8
TOOL_0
 5
11
 10
2202.75
 20
512.251
 30
0
 40
35.0
 50
90.0
 51
180.0
210
0
220
0
230
1.0
 0
LINE
 8
TOOL_0
 5
12
 10
2167.75
 20
512.251
 30
0
 11
2167.75
 21
182.251
 31
0
 0
ARC
 8
TOOL_0
 5
13
 10
2202.75
 20
182.251
 30
0
 40
35.0
 50
180.0
 51
270.0
210
0
220
0
230
1.0
 0
LINE
 8
TOOL_0
 5
14
 10
2202.75
 20
147.251
 30
0
 11
2357.75
 21
147.251
 31
0
 0
ARC
 8
TOOL_0
 5
15
 10
2357.75
 20
182.251
 30
0
 40
35.0
 50
270.0
 51
0
210
0
220
0
230
1.0
 0
LINE
 8
TOOL_0
 5
16
 10
2392.75
 20
182.251
 30
0
 11
2392.75
 21
347.251
 31
0
 0
LINE
 8
TOOL_0
 5
17
 10
2392.75
 20
347.251
 30
0
 11
2389.375
 21
351.371
 31
0
 0
LINE
 8
TOOL_0
 5
18
 10
2389.375
 20
351.371
 30
0
 11
2754.25
 21
128.286
 31
0
 0
LINE
 8
TOOL_0
 5
19
 10
2754.25
 20
128.286
 30
0
 11
2754.25
 21
97.251
 31
0
 0
LINE
 8
TOOL_0
 5
1A
 10
2754.25
 20
97.251
 30
0
 11
2754.25
 21
27.337
 31
0
 0
LINE
 8
TOOL_0
 5
1B
 10
2754.25
 20
27.337
 30
0
 11
2743.164
 21
16.251
 31
0
 0
LINE
 8
TOOL_0
 5
1C
 10
2743.164
 20
16.251
 30
0
 11
2612.75
 21
16.251
 31
0
 0
ARC
 8
TOOL_0
 5
1D
 10
2612.767
 20
7.224
 30
0
 40
9.027016007519
 50
90.107901528772
 51
153.505912100375
210
0
220
0
230
1.0
 0
LINE
 8
TOOL_0
 5
1E
 10
2604.688
 20
11.251
 30
0
 11
11.25
 21
11.251
 31
0
 0
LINE
 8
TOOL_0
 5
1F
 10
11.25
 20
11.251
 30
0
 11
11.25
 21
430.251
 31
0
 0
ARC
 8
TOOL_0
 5
20
 10
19.25
 20
430.251
 30
0
 40
8.0
 50
90.0
 51
180.0
210
0
220
0
230
1.0
 0
LINE
 8
TOOL_0
 5
21
 10
19.25
 20
438.251
 30
0
 11
296.795
 21
438.251
 31
0
 0
ARC
 8
TOOL_0
 5
22
 10
296.795
 20
537.251
 30
0
 40
99.0
 50
270.0
 51
288.129860799344
210
0
220
0
230
1.0
 0
LINE
 8
TOOL_0
 5
23
 10
327.601
 20
443.166
 30
0
 11
1470.077
 21
817.251
 31
0
 0
LINE
 8
TOOL_0
 5
24
 10
1470.077
 20
817.251
 30
0
 11
2364.25
 21
817.251
 31
0
 0
LINE
 8
TOOL_0
 5
25
 10
2364.25
 20
817.251
 30
0
 11
2364.25
 21
773.251
 31
0
 0
ARC
 8
TOOL_0
 5
26
 10
2414.25
 20
773.251
 30
0
 40
50.0
 50
180.0
 51
270.0
210
0
220
0
230
1.0
 0
LINE
 8
TOOL_0
 5
27
 10
2414.25
 20
723.251
 30
0
 11
2430.995
 21
723.251
 31
0
 0
ARC
 8
TOOL_0
 5
28
 10
2430.973
 20
673.203
 30
0
 40
50.048004835358
 50
40.025735995627
 51
89.974814037162
210
0
220
0
230
1.0
 0
LINE
 8
TOOL_0
 5
29
 10
2469.297
 20
705.39
 30
0
 11
2754.25
 21
365.797
 31
0
 0
LINE
 8
TOOL_0
 5
2A
 10
2754.25
 20
365.797
 30
0
 11
2754.25
 21
257.251
 31
0
 0
LINE
 8
TOOL_0
 5
2B
 10
2754.25
 20
257.251
 30
0
 11
2732.75
 21
257.251
 31
0
 0
ARC
 8
TOOL_0
 5
2C
 10
2732.75
 20
177.251
 30
0
 40
80.0
 50
90.0
 51
270.0
210
0
220
0
230
1.0
 0
LINE
 8
TOOL_0
 5
2D
 10
2732.75
 20
97.251
 30
0
 11
2754.25
 21
97.251
 31
0
 0
LINE
 8
TOOL_0
 5
2E
 10
2754.25
 20
97.251
 30
0
 11
2759.462
 21
97.251
 31
0
 0
LINE
 8
TOOL_0
 5
2F
 10
2759.462
 20
97.251
 30
0
 11
1617.606
 21
1166.813
 31
0
 0
LINE
 8
TOOL_0
 5
30
 10
1617.606
 20
1166.813
 30
0
 11
1647.75
 21
1166.813
 31
0
 0
LINE
 8
TOOL_0
 5
31
 10
1647.75
 20
1166.813
 30
0
 11
1647.75
 21
1331.813
 31
0
 0
ARC
 8
TOOL_0
 5
32
 10
1612.75
 20
1331.813
 30
0
 40
35.0
 50
0
 51
90.0
210
0
220
0
230
1.0
 0
LINE
 8
TOOL_0
 5
33
 10
1612.75
 20
1366.813
 30
0
 11
1457.75
 21
1366.813
 31
0
 0
ARC
 8
TOOL_0
 5
34
 10
1457.75
 20
1331.813
 30
0
 40
35.0
 50
90.0
 51
180.0
210
0
220
0
230
1.0
 0
LINE
 8
TOOL_0
 5
35
 10
1422.75
 20
1331.813
 30
0
 11
1422.75
 21
1001.813
 31
0
 0
ARC
 8
TOOL_0
 5
36
 10
1457.75
 20
1001.813
 30
0
 40
35.0
 50
180.0
 51
270.0
210
0
220
0
230
1.0
 0
LINE
 8
TOOL_0
 5
37
 10
1457.75
 20
966.813
 30
0
 11
1612.75
 21
966.813
 31
0
 0
ARC
 8
TOOL_0
 5
38
 10
1612.75
 20
1001.813
 30
0
 40
35.0
 50
270.0
 51
0
210
0
220
0
230
1.0
 0
LINE
 8
TOOL_0
 5
39
 10
1647.75
 20
1001.813
 30
0
 11
1647.75
 21
1166.813
 31
0
 0
LINE
 8
TOOL_0
 5
3A
 10
1647.75
 20
1166.813
 30
0
 11
1645.0
 21
1171.212
 31
0
 0
LINE
 8
TOOL_0
 5
3B
 10
1645.0
 20
1171.212
 30
0
 11
2362.057
 21
1166.813
 31
0
 0
LINE
 8
TOOL_0
 5
3C
 10
2362.057
 20
1166.813
 30
0
 11
2392.75
 21
1166.813
 31
0
 0
LINE
 8
TOOL_0
 5
3D
 10
2392.75
 20
1166.813
 30
0
 11
2392.75
 21
1331.813
 31
0
 0
ARC
 8
TOOL_0
 5
3E
 10
2357.75
 20
1331.813
 30
0
 40
35.0
 50
0
 51
90.0
210
0
220
0
230
1.0
 0
LINE
 8
TOOL_0
 5
3F
 10
2357.75
 20
1366.813
 30
0
 11
2202.75
 21
1366.813
 31
0
 0
ARC
 8
TOOL_0
 5
40
 10
2202.75
 20
1331.813
 30
0
 40
35.0
 50
90.0
 51
180.0
210
0
220
0
230
1.0
 0
LINE
 8
TOOL_0
 5
41
 10
2167.75
 20
1331.813
 30
0
 11
2167.75
 21
1001.813
 31
0
 0
ARC
 8
TOOL_0
 5
42
 10
2202.75
 20
1001.813
 30
0
 40
35.0
 50
180.0
 51
270.0
210
0
220
0
230
1.0
 0
LINE
 8
TOOL_0
 5
43
 10
2202.75
 20
966.813
 30
0
 11
2357.75
 21
966.813
 31
0
 0
ARC
 8
TOOL_0
 5
44
 10
2357.75
 20
1001.813
 30
0
 40
35.0
 50
270.0
 51
0
210
0
220
0
230
1.0
 0
LINE
 8
TOOL_0
 5
45
 10
2392.75
 20
1001.813
 30
0
 11
2392.75
 21
1166.813
 31
0
 0
LINE
 8
TOOL_0
 5
46
 10
2392.75
 20
1166.813
 30
0
 11
2389.375
 21
1170.933
 31
0
 0
LINE
 8
TOOL_0
 5
47
 10
2389.375
 20
1170.933
 30
0
 11
2754.25
 21
947.848
 31
0
 0
LINE
 8
TOOL_0
 5
48
 10
2754.25
 20
947.848
 30
0
 11
2754.25
 21
916.813
 31
0
 0
LINE
 8
TOOL_0
 5
49
 10
2754.25
 20
916.813
 30
0
 11
2754.25
 21
846.899
 31
0
 0
LINE
 8
TOOL_0
 5
4A
 10
2754.25
 20
846.899
 30
0
 11
2743.164
 21
835.813
 31
0
 0
LINE
 8
TOOL_0
 5
4B
 10
2743.164
 20
835.813
 30
0
 11
2612.75
 21
835.813
 31
0
 0
ARC
 8
TOOL_0
 5
4C
 10
2612.767
 20
826.786
 30
0
 40
9.027016007519
 50
90.107901528772
 51
153.505912100374
210
0
220
0
230
1.0
 0
LINE
 8
TOOL_0
 5
4D
 10
2604.688
 20
830.813
 30
0
 11
11.25
 21
830.813
 31
0
 0
LINE
 8
TOOL_0
 5
4E
 10
11.25
 20
830.813
 30
0
 11
11.25
 21
1249.813
 31
0
 0
ARC
 8
TOOL_0
 5
4F
 10
19.25
 20
1249.813
 30
0
 40
8.0
 50
90.0
 51
180.0
210
0
220
0
230
1.0
 0
LINE
 8
TOOL_0
 5
50
 10
19.25
 20
1257.813
 30
0
 11
296.795
 21
1257.813
 31
0
 0
ARC
 8
TOOL_0
 5
51
 10
296.795
 20
1356.813
 30
0
 40
99.0
 50
270.0
 51
288.129860799344
210
0
220
0
230
1.0
 0
LINE
 8
TOOL_0
 5
52
 10
327.601
 20
1262.728
 30
0
 11
1470.077
 21
1636.813
 31
0
 0
LINE
 8
TOOL_0
 5
53
 10
1470.077
 20
1636.813
 30
0
 11
2364.25
 21
1636.813
 31
0
 0
LINE
 8
TOOL_0
 5
54
 10
2364.25
 20
1636.813
 30
0
 11
2364.25
 21
1592.813
 31
0
 0
ARC
 8
TOOL_0
 5
55
 10
2414.25
 20
1592.813
 30
0
 40
50.0
 50
180.0
 51
270.0
210
0
220
0
230
1.0
 0
LINE
 8
TOOL_0
 5
56
 10
2414.25
 20
1542.813
 30
0
 11
2430.995
 21
1542.813
 31
0
 0
ARC
 8
TOOL_0
 5
57
 10
2430.973
 20
1492.765
 30
0
 40
50.048004835358
 50
40.025735995627
 51
89.974814037162
210
0
220
0
230
1.0
 0
LINE
 8
TOOL_0
 5
58
 10
2469.297
 20
1524.952
 30
0
 11
2754.25
 21
1185.359
 31
0
 0
LINE
 8
TOOL_0
 5
59
 10
2754.25
 20
1185.359
 30
0
 11
2754.25
 21
1076.813
 31
0
 0
LINE
 8
TOOL_0
 5
5A
 10
2754.25
 20
1076.813
 30
0
 11
2732.75
 21
1076.813
 31
0
 0
ARC
 8
TOOL_0
 5
5B
 10
2732.75
 20
996.813
 30
0
 40
80.0
 50
90.0
 51
270.0
210
0
220
0
230
1.0
 0
LINE
 8
TOOL_0
 5
5C
 10
2732.75
 20
916.813
 30
0
 11
2754.25
 21
916.813
 31
0
 0
LINE
 8
TOOL_0
 5
5D
 10
2754.25
 20
916.813
 30
0
 11
2759.462
 21
916.813
 31
0
 0
LINE
 8
TOOL_0
 5
5E
 10
2759.462
 20
916.813
 30
0
 11
4602.823
 21
329.751
 31
0
 0
LINE
 8
TOOL_0
 5
5F
 10
4602.823
 20
329.751
 30
0
 11
4633.283
 21
329.751
 31
0
 0
LINE
 8
TOOL_0
 5
60
 10
4633.283
 20
329.751
 30
0
 11
4633.283
 21
442.251
 31
0
 0
ARC
 8
TOOL_0
 5
61
 10
4598.283
 20
442.251
 30
0
 40
35.0
 50
0
 51
90.0
210
0
220
0
230
1.0
 0
LINE
 8
TOOL_0
 5
62
 10
4598.283
 20
477.251
 30
0
 11
4443.283
 21
477.251
 31
0
 0
ARC
 8
TOOL_0
 5
63
 10
4443.283
 20
442.251
 30
0
 40
35.0
 50
90.0
 51
180.0
210
0
220
0
230
1.0
 0
LINE
 8
TOOL_0
 5
64
 10
4408.283
 20
442.251
 30
0
 11
4408.283
 21
217.251
 31
0
 0
ARC
 8
TOOL_0
 5
65
 10
4443.283
 20
217.251
 30
0
 40
35.0
 50
180.0
 51
270.0
210
0
220
0
230
1.0
 0
LINE
 8
TOOL_0
 5
66
 10
4443.283
 20
182.251
 30
0
 11
4598.283
 21
182.251
 31
0
 0
ARC
 8
TOOL_0
 5
67
 10
4598.283
 20
217.251
 30
0
 40
35.0
 50
270.0
 51
0
210
0
220
0
230
1.0
 0
LINE
 8
TOOL_0
 5
68
 10
4633.283
 20
217.251
 30
0
 11
4633.283
 21
329.751
 31
0
 0
LINE
 8
TOOL_0
 5
69
 10
4633.283
 20
329.751
 30
0
 11
4630.231
 21
334.026
 31
0
 0
LINE
 8
TOOL_0
 5
6A
 10
4630.231
 20
334.026
 30
0
 11
5218.029
 21
309.751
 31
0
 0
LINE
 8
TOOL_0
 5
6B
 10
5218.029
 20
309.751
 30
0
 11
5248.283
 21
309.751
 31
0
 0
LINE
 8
TOOL_0
 5
6C
 10
5248.283
 20
309.751
 30
0
 11
5248.283
 21
442.251
 31
0
 0
ARC
 8
TOOL_0
 5
6D
 10
5213.283
 20
442.251
 30
0
 40
35.0
 50
0
 51
90.0
210
0
220
0
230
1.0
 0
LINE
 8
TOOL_0
 5
6E
 10
5213.283
 20
477.251
 30
0
 11
5058.283
 21
477.251
 31
0
 0
ARC
 8
TOOL_0
 5
6F
 10
5058.283
 20
442.251
 30
0
 40
35.0
 50
90.0
 51
180.0
210
0
220
0
230
1.0
 0
LINE
 8
TOOL_0
 5
70
 10
5023.283
 20
442.251
 30
0
 11
5023.283
 21
177.251
 31
0
 0
ARC
 8
TOOL_0
 5
71
 10
5058.283
 20
177.251
 30
0
 40
35.0
 50
180.0
 51
270.0
210
0
220
0
230
1.0
 0
LINE
 8
TOOL_0
 5
72
 10
5058.283
 20
142.251
 30
0
 11
5213.283
 21
142.251
 31
0
 0
ARC
 8
TOOL_0
 5
73
 10
5213.283
 20
177.251
 30
0
 40
35.0
 50
270.0
 51
0
210
0
220
0
230
1.0
 0
LINE
 8
TOOL_0
 5
74
 10
5248.283
 20
177.251
 30
0
 11
5248.283
 21
309.751
 31
0
 0
LINE
 8
TOOL_0
 5
75
 10
5248.283
 20
309.751
 30
0
 11
5244.982
 21
313.881
 31
0
 0
LINE
 8
TOOL_0
 5
76
 10
5244.982
 20
313.881
 30
0
 11
5439.283
 21
128.583
 31
0
 0
LINE
 8
TOOL_0
 5
77
 10
5439.283
 20
128.583
 30
0
 11
5439.283
 21
98.251
 31
0
 0
LINE
 8
TOOL_0
 5
78
 10
5439.283
 20
98.251
 30
0
 11
5439.283
 21
26.837
 31
0
 0
LINE
 8
TOOL_0
 5
79
 10
5439.283
 20
26.837
 30
0
 11
5428.697
 21
16.251
 31
0
 0
LINE
 8
TOOL_0
 5
7A
 10
5428.697
 20
16.251
 30
0
 11
5306.945
 21
16.251
 31
0
 0
ARC
 8
TOOL_0
 5
7B
 10
5306.979
 20
7.19
 30
0
 40
9.061063789644
 50
90.214992535102
 51
153.375569119076
210
0
220
0
230
1.0
 0
LINE
 8
TOOL_0
 5
7C
 10
5298.878
 20
11.251
 30
0
 11
3136.783
 21
11.251
 31
0
 0
LINE
 8
TOOL_0
 5
7D
 10
3136.783
 20
11.251
 30
0
 11
3136.783
 21
441.041
 31
0
 0
ARC
 8
TOOL_0
 5
7E
 10
3144.783
 20
441.041
 30
0
 40
8.0
 50
90.0
 51
180.0
210
0
220
0
230
1.0
 0
LINE
 8
TOOL_0
 5
7F
 10
3144.783
 20
449.041
 30
0
 11
3427.446
 21
449.041
 31
0
 0
ARC
 8
TOOL_0
 5
80
 10
3427.266
 20
549.706
 30
0
 40
100.665160929688
 50
270.102450994097
 51
282.266925903661
210
0
220
0
230
1.0
 0
LINE
 8
TOOL_0
 5
81
 10
3448.654
 20
451.339
 30
0
 11
4319.215
 21
642.251
 31
0
 0
LINE
 8
TOOL_0
 5
82
 10
4319.215
 20
642.251
 30
0
 11
5249.547
 21
642.251
 31
0
 0
ARC
 8
TOOL_0
 5
83
 10
5249.547
 20
541.251
 30
0
 40
101.0
 50
24.201180888537
 51
90.0
210
0
220
0
230
1.0
 0
LINE
 8
TOOL_0
 5
84
 10
5341.67
 20
582.655
 30
0
 11
5439.283
 21
365.466
 31
0
 0
LINE
 8
TOOL_0
 5
85
 10
5439.283
 20
365.466
 30
0
 11
5439.283
 21
256.252
 31
0
 0
LINE
 8
TOOL_0
 5
86
 10
5439.283
 20
256.252
 30
0
 11
5418.283
 21
256.252
 31
0
 0
ARC
 8
TOOL_0
 5
87
 10
5418.283
 20
177.252
 30
0
 40
79.0
 50
90.0
 51
270.0
210
0
220
0
230
1.0
 0
LINE
 8
TOOL_0
 5
88
 10
5418.283
 20
98.252
 30
0
 11
5439.283
 21
98.252
 31
0
 0
LINE
 8
TOOL_0
 5
89
 10
5439.283
 20
98.252
 30
0
 11
5444.882
 21
98.252
 31
0
 0
LINE
 8
TOOL_0
 5
8A
 10
5444.882
 20
98.252
 30
0
 11
3153.9
 21
894.055
 31
0
 0
LINE
 8
TOOL_0
 5
8B
 10
3153.9
 20
894.055
 30
0
 11
3184.116
 21
894.055
 31
0
 0
LINE
 8
TOOL_0
 5
8C
 10
3184.116
 20
894.055
 30
0
 11
3184.116
 21
1026.555
 31
0
 0
ARC
 8
TOOL_0
 5
8D
 10
3149.116
 20
1026.555
 30
0
 40
35.0
 50
0
 51
90.0
210
0
220
0
230
1.0
 0
LINE
 8
TOOL_0
 5
8E
 10
3149.116
 20
1061.555
 30
0
 11
2994.116
 21
1061.555
 31
0
 0
ARC
 8
TOOL_0
 5
8F
 10
2994.116
 20
1026.555
 30
0
 40
35.0
 50
90.0
 51
180.0
210
0
220
0
230
1.0
 0
LINE
 8
TOOL_0
 5
90
 10
2959.116
 20
1026.555
 30
0
 11
2959.116
 21
761.555
 31
0
 0
ARC
 8
TOOL_0
 5
91
 10
2994.116
 20
761.555
 30
0
 40
35.0
 50
180.0
 51
270.0
210
0
220
0
230
1.0
 0
LINE
 8
TOOL_0
 5
92
 10
2994.116
 20
726.555
 30
0
 11
3149.116
 21
726.555
 31
0
 0
ARC
 8
TOOL_0
 5
93
 10
3149.116
 20
761.555
 30
0
 40
35.0
 50
270.0
 51
0
210
0
220
0
230
1.0
 0
LINE
 8
TOOL_0
 5
94
 10
3184.116
 20
761.555
 30
0
 11
3184.116
 21
894.055
 31
0
 0
LINE
 8
TOOL_0
 5
95
 10
3184.116
 20
894.055
 30
0
 11
3180.39
 21
898.392
 31
0
 0
LINE
 8
TOOL_0
 5
96
 10
3180.39
 20
898.392
 30
0
 11
3768.369
 21
874.055
 31
0
 0
LINE
 8
TOOL_0
 5
97
 10
3768.369
 20
874.055
 30
0
 11
3799.116
 21
874.055
 31
0
 0
LINE
 8
TOOL_0
 5
98
 10
3799.116
 20
874.055
 30
0
 11
3799.116
 21
986.555
 31
0
 0
ARC
 8
TOOL_0
 5
99
 10
3764.116
 20
986.555
 30
0
 40
35.0
 50
0
 51
90.0
210
0
220
0
230
1.0
 0
LINE
 8
TOOL_0
 5
9A
 10
3764.116
 20
1021.555
 30
0
 11
3609.116
 21
1021.555
 31
0
 0
ARC
 8
TOOL_0
 5
9B
 10
3609.116
 20
986.555
 30
0
 40
35.0
 50
90.0
 51
180.0
210
0
220
0
230
1.0
 0
LINE
 8
TOOL_0
 5
9C
 10
3574.116
 20
986.555
 30
0
 11
3574.116
 21
761.555
 31
0
 0
ARC
 8
TOOL_0
 5
9D
 10
3609.116
 20
761.555
 30
0
 40
35.0
 50
180.0
 51
270.0
210
0
220
0
230
1.0
 0
LINE
 8
TOOL_0
 5
9E
 10
3609.116
 20
726.555
 30
0
 11
3764.116
 21
726.555
 31
0
 0
ARC
 8
TOOL_0
 5
9F
 10
3764.116
 20
761.555
 30
0
 40
35.0
 50
270.0
 51
0
210
0
220
0
230
1.0
 0
LINE
 8
TOOL_0
 5
A0
 10
3799.116
 20
761.555
 30
0
 11
3799.116
 21
874.055
 31
0
 0
LINE
 8
TOOL_0
 5
A1
 10
3799.116
 20
874.055
 30
0
 11
3795.705
 21
877.906
 31
0
 0
LINE
 8
TOOL_0
 5
A2
 10
3795.705
 20
877.906
 30
0
 11
2768.116
 21
1075.826
 31
0
 0
LINE
 8
TOOL_0
 5
A3
 10
2768.116
 20
1075.826
 30
0
 11
2768.116
 21
1105.555
 31
0
 0
LINE
 8
TOOL_0
 5
A4
 10
2768.116
 20
1105.555
 30
0
 11
2768.116
 21
1176.969
 31
0
 0
LINE
 8
TOOL_0
 5
A5
 10
2768.116
 20
1176.969
 30
0
 11
2778.702
 21
1187.555
 31
0
 0
LINE
 8
TOOL_0
 5
A6
 10
2778.702
 20
1187.555
 30
0
 11
2900.454
 21
1187.555
 31
0
 0
ARC
 8
TOOL_0
 5
A7
 10
2900.42
 20
1196.616
 30
0
 40
9.061063789644
 50
270.214992535105
 51
333.375569119079
210
0
220
0
230
1.0
 0
LINE
 8
TOOL_0
 5
A8
 10
2908.521
 20
1192.555
 30
0
 11
5070.616
 21
1192.555
 31
0
 0
LINE
 8
TOOL_0
 5
A9
 10
5070.616
 20
1192.555
 30
0
 11
5070.616
 21
762.765
 31
0
 0
ARC
 8
TOOL_0
 5
AA
 10
5062.616
 20
762.765
 30
0
 40
8.0
 50
270.0
 51
0
210
0
220
0
230
1.0
 0
LINE
 8
TOOL_0
 5
AB
 10
5062.616
 20
754.765
 30
0
 11
4779.953
 21
754.765
 31
0
 0
ARC
 8
TOOL_0
 5
AC
 10
4780.133
 20
654.1
 30
0
 40
100.665160929688
 50
90.102450994097
 51
102.266925903661
210
0
220
0
230
1.0
 0
LINE
 8
TOOL_0
 5
AD
 10
4758.745
 20
752.467
 30
0
 11
3888.185
 21
561.555
 31
0
 0
LINE
 8
TOOL_0
 5
AE
 10
3888.185
 20
561.555
 30
0
 11
2957.853
 21
561.555
 31
0
 0
ARC
 8
TOOL_0
 5
AF
 10
2957.853
 20
662.555
 30
0
 40
101.0
 50
204.200430908952
 51
270.0
210
0
220
0
230
1.0
 0
LINE
 8
TOOL_0
 5
B0
 10
2865.729
 20
621.152
 30
0
 11
2768.116
 21
838.341
 31
0
 0
LINE
 8
TOOL_0
 5
B1
 10
2768.116
 20
838.341
 30
0
 11
2768.116
 21
947.555
 31
0
 0
LINE
 8
TOOL_0
 5
B2
 10
2768.116
 20
947.555
 30
0
 11
2789.116
 21
947.555
 31
0
 0
ARC
 8
TOOL_0
 5
B3
 10
2789.116
 20
1026.555
 30
0
 40
79.0
 50
270.0
 51
90.0
210
0
220
0
230
1.0
 0
LINE
 8
TOOL_0
 5
B4
 10
2789.116
 20
1105.555
 30
0
 11
2768.116
 21
1105.555
 31
0
 0
LINE
 8
TOOL_0
 5
B5
 10
2768.116
 20
1105.555
 30
0
 11
2763.019
 21
1105.555
 31
0
 0
LINE
 8
TOOL_0
 5
B6
 10
2763.019
 20
1105.555
 30
0
 11
4220.57
 21
1524.929
 31
0
 0
LINE
 8
TOOL_0
 5
B7
 10
4220.57
 20
1524.929
 30
0
 11
4251.547
 21
1524.929
 31
0
 0
LINE
 8
TOOL_0
 5
B8
 10
4251.547
 20
1524.929
 30
0
 11
4251.547
 21
1637.429
 31
0
 0
ARC
 8
TOOL_0
 5
B9
 10
4216.547
 20
1637.429
 30
0
 40
35.0
 50
0
 51
90.0
210
0
220
0
230
1.0
 0
LINE
 8
TOOL_0
 5
BA
 10
4216.547
 20
1672.429
 30
0
 11
4061.547
 21
1672.429
 31
0
 0
ARC
 8
TOOL_0
 5
BB
 10
4061.547
 20
1637.429
 30
0
 40
35.0
 50
90.0
 51
180.0
210
0
220
0
230
1.0
 0
LINE
 8
TOOL_0
 5
BC
 10
4026.547
 20
1637.429
 30
0
 11
4026.547
 21
1412.429
 31
0
 0
ARC
 8
TOOL_0
 5
BD
 10
4061.547
 20
1412.429
 30
0
 40
35.0
 50
180.0
 51
270.0
210
0
220
0
230
1.0
 0
LINE
 8
TOOL_0
 5
BE
 10
4061.547
 20
1377.429
 30
0
 11
4216.547
 21
1377.429
 31
0
 0
ARC
 8
TOOL_0
 5
BF
 10
4216.547
 20
1412.429
 30
0
 40
35.0
 50
270.0
 51
0
210
0
220
0
230
1.0
 0
LINE
 8
TOOL_0
 5
C0
 10
4251.547
 20
1412.429
 30
0
 11
4251.547
 21
1524.929
 31
0
 0
LINE
 8
TOOL_0
 5
C1
 10
4251.547
 20
1524.929
 30
0
 11
4248.239
 21
1528.609
 31
0
 0
LINE
 8
TOOL_0
 5
C2
 10
4248.239
 20
1528.609
 30
0
 11
4835.367
 21
1504.929
 31
0
 0
LINE
 8
TOOL_0
 5
C3
 10
4835.367
 20
1504.929
 30
0
 11
4866.547
 21
1504.929
 31
0
 0
LINE
 8
TOOL_0
 5
C4
 10
4866.547
 20
1504.929
 30
0
 11
4866.547
 21
1637.429
 31
0
 0
ARC
 8
TOOL_0
 5
C5
 10
4831.547
 20
1637.429
 30
0
 40
35.0
 50
0
 51
90.0
210
0
220
0
230
1.0
 0
LINE
 8
TOOL_0
 5
C6
 10
4831.547
 20
1672.429
 30
0
 11
4676.547
 21
1672.429
 31
0
 0
ARC
 8
TOOL_0
 5
C7
 10
4676.547
 20
1637.429
 30
0
 40
35.0
 50
90.0
 51
180.0
210
0
220
0
230
1.0
 0
LINE
 8
TOOL_0
 5
C8
 10
4641.547
 20
1637.429
 30
0
 11
4641.547
 21
1372.429
 31
0
 0
ARC
 8
TOOL_0
 5
C9
 10
4676.547
 20
1372.429
 30
0
 40
35.0
 50
180.0
 51
270.0
210
0
220
0
230
1.0
 0
LINE
 8
TOOL_0
 5
CA
 10
4676.547
 20
1337.429
 30
0
 11
4831.547
 21
1337.429
 31
0
 0
ARC
 8
TOOL_0
 5
CB
 10
4831.547
 20
1372.429
 30
0
 40
35.0
 50
270.0
 51
0
210
0
220
0
230
1.0
 0
LINE
 8
TOOL_0
 5
CC
 10
4866.547
 20
1372.429
 30
0
 11
4866.547
 21
1504.929
 31
0
 0
LINE
 8
TOOL_0
 5
CD
 10
4866.547
 20
1504.929
 30
0
 11
4863.529
 21
1508.923
 31
0
 0
LINE
 8
TOOL_0
 5
CE
 10
4863.529
 20
1508.923
 30
0
 11
5057.547
 21
1324.708
 31
0
 0
LINE
 8
TOOL_0
 5
CF
 10
5057.547
 20
1324.708
 30
0
 11
5057.547
 21
1293.428
 31
0
 0
LINE
 8
TOOL_0
 5
D0
 10
5057.547
 20
1293.428
 30
0
 11
5057.547
 21
1222.014
 31
0
 0
LINE
 8
TOOL_0
 5
D1
 10
5057.547
 20
1222.014
 30
0
 11
5046.961
 21
1211.428
 31
0
 0
LINE
 8
TOOL_0
 5
D2
 10
5046.961
 20
1211.428
 30
0
 11
4925.209
 21
1211.428
 31
0
 0
ARC
 8
TOOL_0
 5
D3
 10
4925.243
 20
1202.367
 30
0
 40
9.061063789644
 50
90.214992535102
 51
153.375569119077
210
0
220
0
230
1.0
 0
LINE
 8
TOOL_0
 5
D4
 10
4917.142
 20
1206.428
 30
0
 11
2755.047
 21
1206.428
 31
0
 0
LINE
 8
TOOL_0
 5
D5
 10
2755.047
 20
1206.428
 30
0
 11
2755.047
 21
1636.218
 31
0
 0
ARC
 8
TOOL_0
 5
D6
 10
2763.047
 20
1636.218
 30
0
 40
8.0
 50
90.0
 51
180.0
210
0
220
0
230
1.0
 0
LINE
 8
TOOL_0
 5
D7
 10
2763.047
 20
1644.218
 30
0
 11
3045.71
 21
1644.218
 31
0
 0
ARC
 8
TOOL_0
 5
D8
 10
3045.53
 20
1744.883
 30
0
 40
100.665160929688
 50
270.102450994097
 51
282.266925903661
210
0
220
0
230
1.0
 0
LINE
 8
TOOL_0
 5
D9
 10
3066.918
 20
1646.516
 30
0
 11
3937.479
 21
1837.428
 31
0
 0
LINE
 8
TOOL_0
 5
DA
 10
3937.479
 20
1837.428
 30
0
 11
4867.811
 21
1837.428
 31
0
 0
ARC
 8
TOOL_0
 5
DB
 10
4867.811
 20
1736.428
 30
0
 40
101.0
 50
24.201180888537
 51
90.0
210
0
220
0
230
1.0
 0
LINE
 8
TOOL_0
 5
DC
 10
4959.934
 20
1777.832
 30
0
 11
5057.547
 21
1560.643
 31
0
 0
LINE
 8
TOOL_0
 5
DD
 10
5057.547
 20
1560.643
 30
0
 11
5057.547
 21
1451.429
 31
0
 0
LINE
 8
TOOL_0
 5
DE
 10
5057.547
 20
1451.429
 30
0
 11
5036.547
 21
1451.429
 31
0
 0
ARC
 8
TOOL_0
 5
DF
 10
5036.547
 20
1372.429
 30
0
 40
79.0
 50
90.0
 51
270.0
210
0
220
0
230
1.0
 0
LINE
 8
TOOL_0
 5
E0
 10
5036.547
 20
1293.429
 30
0
 11
5057.547
 21
1293.429
 31
0
 0
LINE
 8
TOOL_0
 5
E1
 10
5057.547
 20
1293.429
 30
0
 11
5063.094
 21
1293.429
 31
0
 0
LINE
 8
TOOL_0
 5
E2
 10
5063.094
 20
1293.429
 30
0
 11
397.035
 21
2090.251
 31
0
 0
LINE
 8
TOOL_0
 5
E3
 10
397.035
 20
2090.251
 30
0
 11
427.251
 21
2090.251
 31
0
 0
LINE
 8
TOOL_0
 5
E4
 10
427.251
 20
2090.251
 30
0
 11
427.251
 21
2222.751
 31
0
 0
ARC
 8
TOOL_0
 5
E5
 10
392.251
 20
2222.751
 30
0
 40
35.0
 50
0
 51
90.0
210
0
220
0
230
1.0
 0
LINE
 8
TOOL_0
 5
E6
 10
392.251
 20
2257.751
 30
0
 11
237.251
 21
2257.751
 31
0
 0
ARC
 8
TOOL_0
 5
E7
 10
237.251
 20
2222.751
 30
0
 40
35.0
 50
90.0
 51
180.0
210
0
220
0
230
1.0
 0
LINE
 8
TOOL_0
 5
E8
 10
202.251
 20
2222.751
 30
0
 11
202.251
 21
1957.751
 31
0
 0
ARC
 8
TOOL_0
 5
E9
 10
237.251
 20
1957.751
 30
0
 40
35.0
 50
180.0
 51
270.0
210
0
220
0
230
1.0
 0
LINE
 8
TOOL_0
 5
EA
 10
237.251
 20
1922.751
 30
0
 11
392.251
 21
1922.751
 31
0
 0
ARC
 8
TOOL_0
 5
EB
 10
392.251
 20
1957.751
 30
0
 40
35.0
 50
270.0
 51
0
210
0
220
0
230
1.0
 0
LINE
 8
TOOL_0
 5
EC
 10
427.251
 20
1957.751
 30
0
 11
427.251
 21
2090.251
 31
0
 0
LINE
 8
TOOL_0
 5
ED
 10
427.251
 20
2090.251
 30
0
 11
423.525
 21
2094.588
 31
0
 0
LINE
 8
TOOL_0
 5
EE
 10
423.525
 20
2094.588
 30
0
 11
1011.505
 21
2070.251
 31
0
 0
LINE
 8
TOOL_0
 5
EF
 10
1011.505
 20
2070.251
 30
0
 11
1042.251
 21
2070.251
 31
0
 0
LINE
 8
TOOL_0
 5
F0
 10
1042.251
 20
2070.251
 30
0
 11
1042.251
 21
2182.751
 31
0
 0
ARC
 8
TOOL_0
 5
F1
 10
1007.251
 20
2182.751
 30
0
 40
35.0
 50
0
 51
90.0
210
0
220
0
230
1.0
 0
LINE
 8
TOOL_0
 5
F2
 10
1007.251
 20
2217.751
 30
0
 11
852.251
 21
2217.751
 31
0
 0
ARC
 8
TOOL_0
 5
F3
 10
852.251
 20
2182.751
 30
0
 40
35.0
 50
90.0
 51
180.0
210
0
220
0
230
1.0
 0
LINE
 8
TOOL_0
 5
F4
 10
817.251
 20
2182.751
 30
0
 11
817.251
 21
1957.751
 31
0
 0
ARC
 8
TOOL_0
 5
F5
 10
852.251
 20
1957.751
 30
0
 40
35.0
 50
180.0
 51
270.0
210
0
220
0
230
1.0
 0
LINE
 8
TOOL_0
 5
F6
 10
852.251
 20
1922.751
 30
0
 11
1007.251
 21
1922.751
 31
0
 0
ARC
 8
TOOL_0
 5
F7
 10
1007.251
 20
1957.751
 30
0
 40
35.0
 50
270.0
 51
0
210
0
220
0
230
1.0
 0
LINE
 8
TOOL_0
 5
F8
 10
1042.251
 20
1957.751
 30
0
 11
1042.251
 21
2070.251
 31
0
 0
LINE
 8
TOOL_0
 5
F9
 10
1042.251
 20
2070.251
 30
0
 11
1038.84
 21
2074.102
 31
0
 0
LINE
 8
TOOL_0
 5
FA
 10
1038.84
 20
2074.102
 30
0
 11
11.251
 21
2272.022
 31
0
 0
LINE
 8
TOOL_0
 5
FB
 10
11.251
 20
2272.022
 30
0
 11
11.251
 21
2301.751
 31
0
 0
LINE
 8
TOOL_0
 5
FC
 10
11.251
 20
2301.751
 30
0
 11
11.251
 21
2373.165
 31
0
 0
LINE
 8
TOOL_0
 5
FD
 10
11.251
 20
2373.165
 30
0
 11
21.837
 21
2383.751
 31
0
 0
LINE
 8
TOOL_0
 5
FE
 10
21.837
 20
2383.751
 30
0
 11
143.589
 21
2383.751
 31
0
 0
ARC
 8
TOOL_0
 5
FF
 10
143.555
 20
2392.812
 30
0
 40
9.061063789644
 50
270.214992535105
 51
333.375569119077
210
0
220
0
230
1.0
 0
LINE
 8
TOOL_0
 5
100
 10
151.656
 20
2388.751
 30
0
 11
2313.751
 21
2388.751
 31
0
 0
LINE
 8
TOOL_0
 5
101
 10
2313.751
 20
2388.751
 30
0
 11
2313.751
 21
1958.961
 31
0
 0
ARC
 8
TOOL_0
 5
102
 10
2305.751
 20
1958.961
 30
0
 40
8.0
 50
270.0
 51
0
210
0
220
0
230
1.0
 0
LINE
 8
TOOL_0
 5
103
 10
2305.751
 20
1950.961
 30
0
 11
2023.088
 21
1950.961
 31
0
 0
ARC
 8
TOOL_0
 5
104
 10
2023.268
 20
1850.296
 30
0
 40
100.665160929688
 50
90.102450994097
 51
102.266925903661
210
0
220
0
230
1.0
 0
LINE
 8
TOOL_0
 5
105
 10
2001.88
 20
1948.663
 30
0
 11
1131.32
 21
1757.751
 31
0
 0
LINE
 8
TOOL_0
 5
106
 10
1131.32
 20
1757.751
 30
0
 11
200.988
 21
1757.751
 31
0
 0
ARC
 8
TOOL_0
 5
107
 10
200.988
 20
1858.751
 30
0
 40
101.0
 50
204.200430908951
 51
270.0
210
0
220
0
230
1.0
 0
LINE
 8
TOOL_0
 5
108
 10
108.864
 20
1817.348
 30
0
 11
11.251
 21
2034.537
 31
0
 0
LINE
 8
TOOL_0
 5
109
 10
11.251
 20
2034.537
 30
0
 11
11.251
 21
2143.751
 31
0
 0
LINE
 8
TOOL_0
 5
10A
 10
11.251
 20
2143.751
 30
0
 11
32.251
 21
2143.751
 31
0
 0
ARC
 8
TOOL_0
 5
10B
 10
32.251
 20
2222.751
 30
0
 40
79.0
 50
270.0
 51
90.0
210
0
220
0
230
1.0
 0
LINE
 8
TOOL_0
 5
10C
 10
32.251
 20
2301.751
 30
0
 11
11.251
 21
2301.751
 31
0
 0
LINE
 8
TOOL_0
 5
10D
 10
11.251
 20
2301.751
 30
0
 11
6.154
 21
2301.751
 31
0
 0
LINE
 8
TOOL_0
 5
10E
 10
6.154
 20
2301.751
 30
0
 11
2713.7
 21
2076.45
 31
0
 0
LINE
 8
TOOL_0
 5
10F
 10
2713.7
 20
2076.45
 30
0
 11
2743.916
 21
2076.45
 31
0
 0
LINE
 8
TOOL_0
 5
110
 10
2743.916
 20
2076.45
 30
0
 11
2743.916
 21
2208.95
 31
0
 0
ARC
 8
TOOL_0
 5
111
 10
2708.916
 20
2208.95
 30
0
 40
35.0
 50
0
 51
90.0
210
0
220
0
230
1.0
 0
LINE
 8
TOOL_0
 5
112
 10
2708.916
 20
2243.95
 30
0
 11
2553.916
 21
2243.95
 31
0
 0
ARC
 8
TOOL_0
 5
113
 10
2553.916
 20
2208.95
 30
0
 40
35.0
 50
90.0
 51
180.0
210
0
220
0
230
1.0
 0
LINE
 8
TOOL_0
 5
114
 10
2518.916
 20
2208.95
 30
0
 11
2518.916
 21
1943.95
 31
0
 0
ARC
 8
TOOL_0
 5
115
 10
2553.916
 20
1943.95
 30
0
 40
35.0
 50
180.0
 51
270.0
210
0
220
0
230
1.0
 0
LINE
 8
TOOL_0
 5
116
 10
2553.916
 20
1908.95
 30
0
 11
2708.916
 21
1908.95
 31
0
 0
ARC
 8
TOOL_0
 5
117
 10
2708.916
 20
1943.95
 30
0
 40
35.0
 50
270.0
 51
0
210
0
220
0
230
1.0
 0
LINE
 8
TOOL_0
 5
118
 10
2743.916
 20
1943.95
 30
0
 11
2743.916
 21
2076.45
 31
0
 0
LINE
 8
TOOL_0
 5
119
 10
2743.916
 20
2076.45
 30
0
 11
2740.19
 21
2080.787
 31
0
 0
LINE
 8
TOOL_0
 5
11A
 10
2740.19
 20
2080.787
 30
0
 11
3328.169
 21
2056.45
 31
0
 0
LINE
 8
TOOL_0
 5
11B
 10
3328.169
 20
2056.45
 30
0
 11
3358.915
 21
2056.45
 31
0
 0
LINE
 8
TOOL_0
 5
11C
 10
3358.915
 20
2056.45
 30
0
 11
3358.915
 21
2168.95
 31
0
 0
ARC
 8
TOOL_0
 5
11D
 10
3323.915
 20
2168.95
 30
0
 40
35.0
 50
0
 51
90.0
210
0
220
0
230
1.0
 0
LINE
 8
TOOL_0
 5
11E
 10
3323.915
 20
2203.95
 30
0
 11
3168.915
 21
2203.95
 31
0
 0
ARC
 8
TOOL_0
 5
11F
 10
3168.915
 20
2168.95
 30
0
 40
35.0
 50
90.0
 51
180.0
210
0
220
0
230
1.0
 0
LINE
 8
TOOL_0
 5
120
 10
3133.915
 20
2168.95
 30
0
 11
3133.915
 21
1943.95
 31
0
 0
ARC
 8
TOOL_0
 5
121
 10
3168.915
 20
1943.95
 30
0
 40
35.0
 50
180.0
 51
270.0
210
0
220
0
230
1.0
 0
LINE
 8
TOOL_0
 5
122
 10
3168.915
 20
1908.95
 30
0
 11
3323.915
 21
1908.95
 31
0
 0
ARC
 8
TOOL_0
 5
123
 10
3323.915
 20
1943.95
 30
0
 40
35.0
 50
270.0
 51
0
210
0
220
0
230
1.0
 0
LINE
 8
TOOL_0
 5
124
 10
3358.915
 20
1943.95
 30
0
 11
3358.915
 21
2056.45
 31
0
 0
LINE
 8
TOOL_0
 5
125
 10
3358.915
 20
2056.45
 30
0
 11
3355.504
 21
2060.301
 31
0
 0
LINE
 8
TOOL_0
 5
126
 10
3355.504
 20
2060.301
 30
0
 11
2327.914
 21
2258.221
 31
0
 0
LINE
 8
TOOL_0
 5
127
 10
2327.914
 20
2258.221
 30
0
 11
2327.914
 21
2287.95
 31
0
 0
LINE
 8
TOOL_0
 5
128
 10
2327.914
 20
2287.95
 30
0
 11
2327.914
 21
2359.364
 31
0
 0
LINE
 8
TOOL_0
 5
129
 10
2327.914
 20
2359.364
 30
0
 11
2338.5
 21
2369.95
 31
0
 0
LINE
 8
TOOL_0
 5
12A
 10
2338.5
 20
2369.95
 30
0
 11
2460.252
 21
2369.95
 31
0
 0
ARC
 8
TOOL_0
 5
12B
 10
2460.218
 20
2379.011
 30
0
 40
9.061063789644
 50
270.214992535105
 51
333.375569119077
210
0
220
0
230
1.0
 0
LINE
 8
TOOL_0
 5
12C
 10
2468.319
 20
2374.95
 30
0
 11
4630.414
 21
2374.95
 31
0
 0
LINE
 8
TOOL_0
 5
12D
 10
4630.414
 20
2374.95
 30
0
 11
4630.414
 21
1945.16
 31
0
 0
ARC
 8
TOOL_0
 5
12E
 10
4622.414
 20
1945.16
 30
0
 40
8.0
 50
270.0
 51
0
210
0
220
0
230
1.0
 0
LINE
 8
TOOL_0
 5
12F
 10
4622.414
 20
1937.16
 30
0
 11
4339.751
 21
1937.16
 31
0
 0
ARC
 8
TOOL_0
 5
130
 10
4339.931
 20
1836.495
 30
0
 40
100.665160929688
 50
90.102450994097
 51
102.266925903661
210
0
220
0
230
1.0
 0
LINE
 8
TOOL_0
 5
131
 10
4318.543
 20
1934.862
 30
0
 11
3447.983
 21
1743.95
 31
0
 0
LINE
 8
TOOL_0
 5
132
 10
3447.983
 20
1743.95
 30
0
 11
2517.651
 21
1743.95
 31
0
 0
ARC
 8
TOOL_0
 5
133
 10
2517.651
 20
1844.95
 30
0
 40
101.0
 50
204.200430908952
 51
270.0
210
0
220
0
230
1.0
 0
LINE
 8
TOOL_0
 5
134
 10
2425.527
 20
1803.547
 30
0
 11
2327.914
 21
2020.736
 31
0
 0
LINE
 8
TOOL_0
 5
135
 10
2327.914
 20
2020.736
 30
0
 11
2327.914
 21
2129.95
 31
0
 0
LINE
 8
TOOL_0
 5
136
 10
2327.914
 20
2129.95
 30
0
 11
2348.914
 21
2129.95
 31
0
 0
ARC
 8
TOOL_0
 5
137
 10
2348.914
 20
2208.95
 30
0
 40
79.0
 50
270.0
 51
90.0
210
0
220
0
230
1.0
 0
LINE
 8
TOOL_0
 5
138
 10
2348.914
 20
2287.95
 30
0
 11
2327.914
 21
2287.95
 31
0
 0
LINE
 8
TOOL_0
 5
139
 10
2327.914
 20
2287.95
 30
0
 11
2322.817
 21
2287.95
 31
0
 0
LINE
 8
TOOL_0
 5
13A
 10
2322.817
 20
2287.95
 30
0
 11
7574.166
 21
329.752
 31
0
 0
LINE
 8
TOOL_0
 5
13B
 10
7574.166
 20
329.752
 30
0
 11
7605.142
 21
329.752
 31
0
 0
LINE
 8
TOOL_0
 5
13C
 10
7605.142
 20
329.752
 30
0
 11
7605.142
 21
442.252
 31
0
 0
ARC
 8
TOOL_0
 5
13D
 10
7570.142
 20
442.252
 30
0
 40
35.0
 50
0
 51
90.0
210
0
220
0
230
1.0
 0
LINE
 8
TOOL_0
 5
13E
 10
7570.142
 20
477.252
 30
0
 11
7415.142
 21
477.252
 31
0
 0
ARC
 8
TOOL_0
 5
13F
 10
7415.142
 20
442.252
 30
0
 40
35.0
 50
90.0
 51
180.0
210
0
220
0
230
1.0
 0
LINE
 8
TOOL_0
 5
140
 10
7380.142
 20
442.252
 30
0
 11
7380.142
 21
217.252
 31
0
 0
ARC
 8
TOOL_0
 5
141
 10
7415.142
 20
217.252
 30
0
 40
35.0
 50
180.0
 51
270.0
210
0
220
0
230
1.0
 0
LINE
 8
TOOL_0
 5
142
 10
7415.142
 20
182.252
 30
0
 11
7570.142
 21
182.252
 31
0
 0
ARC
 8
TOOL_0
 5
143
 10
7570.142
 20
217.252
 30
0
 40
35.0
 50
270.0
 51
0
210
0
220
0
230
1.0
 0
LINE
 8
TOOL_0
 5
144
 10
7605.142
 20
217.252
 30
0
 11
7605.142
 21
329.752
 31
0
 0
LINE
 8
TOOL_0
 5
145
 10
7605.142
 20
329.752
 30
0
 11
7601.834
 21
333.432
 31
0
 0
LINE
 8
TOOL_0
 5
146
 10
7601.834
 20
333.432
 30
0
 11
8188.962
 21
309.752
 31
0
 0
LINE
 8
TOOL_0
 5
147
 10
8188.962
 20
309.752
 30
0
 11
8220.142
 21
309.752
 31
0
 0
LINE
 8
TOOL_0
 5
148
 10
8220.142
 20
309.752
 30
0
 11
8220.142
 21
442.252
 31
0
 0
ARC
 8
TOOL_0
 5
149
 10
8185.142
 20
442.252
 30
0
 40
35.0
 50
0
 51
90.0
210
0
220
0
230
1.0
 0
LINE
 8
TOOL_0
 5
14A
 10
8185.142
 20
477.252
 30
0
 11
8030.142
 21
477.252
 31
0
 0
ARC
 8
TOOL_0
 5
14B
 10
8030.142
 20
442.252
 30
0
 40
35.0
 50
90.0
 51
180.0
210
0
220
0
230
1.0
 0
LINE
 8
TOOL_0
 5
14C
 10
7995.142
 20
442.252
 30
0
 11
7995.142
 21
177.252
 31
0
 0
ARC
 8
TOOL_0
 5
14D
 10
8030.142
 20
177.252
 30
0
 40
35.0
 50
180.0
 51
270.0
210
0
220
0
230
1.0
 0
LINE
 8
TOOL_0
 5
14E
 10
8030.142
 20
142.252
 30
0
 11
8185.142
 21
142.252
 31
0
 0
ARC
 8
TOOL_0
 5
14F
 10
8185.142
 20
177.252
 30
0
 40
35.0
 50
270.0
 51
0
210
0
220
0
230
1.0
 0
LINE
 8
TOOL_0
 5
150
 10
8220.142
 20
177.252
 30
0
 11
8220.142
 21
309.752
 31
0
 0
LINE
 8
TOOL_0
 5
151
 10
8220.142
 20
309.752
 30
0
 11
8217.124
 21
313.746
 31
0
 0
LINE
 8
TOOL_0
 5
152
 10
8217.124
 20
313.746
 30
0
 11
8411.141
 21
129.532
 31
0
 0
LINE
 8
TOOL_0
 5
153
 10
8411.141
 20
129.532
 30
0
 11
8411.141
 21
98.252
 31
0
 0
LINE
 8
TOOL_0
 5
154
 10
8411.141
 20
98.252
 30
0
 11
8411.141
 21
26.838
 31
0
 0
LINE
 8
TOOL_0
 5
155
 10
8411.141
 20
26.838
 30
0
 11
8400.555
 21
16.252
 31
0
 0
LINE
 8
TOOL_0
 5
156
 10
8400.555
 20
16.252
 30
0
 11
8278.803
 21
16.252
 31
0
 0
ARC
 8
TOOL_0
 5
157
 10
8278.837
 20
7.191
 30
0
 40
9.061063789644
 50
90.214992535102
 51
153.375569119074
210
0
220
0
230
1.0
 0
LINE
 8
TOOL_0
 5
158
 10
8270.736
 20
11.252
 30
0
 11
6108.641
 21
11.252
 31
0
 0
LINE
 8
TOOL_0
 5
159
 10
6108.641
 20
11.252
 30
0
 11
6108.641
 21
441.042
 31
0
 0
ARC
 8
TOOL_0
 5
15A
 10
6116.641
 20
441.042
 30
0
 40
8.0
 50
90.0
 51
180.0
210
0
220
0
230
1.0
 0
LINE
 8
TOOL_0
 5
15B
 10
6116.641
 20
449.042
 30
0
 11
6399.304
 21
449.042
 31
0
 0
ARC
 8
TOOL_0
 5
15C
 10
6399.124
 20
549.707
 30
0
 40
100.665160929688
 50
270.102450994097
 51
282.266925903661
210
0
220
0
230
1.0
 0
LINE
 8
TOOL_0
 5
15D
 10
6420.512
 20
451.34
 30
0
 11
7291.073
 21
642.252
 31
0
 0
LINE
 8
TOOL_0
 5
15E
 10
7291.073
 20
642.252
 30
0
 11
8221.405
 21
642.252
 31
0
 0
ARC
 8
TOOL_0
 5
15F
 10
8221.405
 20
541.252
 30
0
 40
101.0
 50
24.201180888537
 51
90.0
210
0
220
0
230
1.0
 0
LINE
 8
TOOL_0
 5
160
 10
8313.528
 20
582.656
 30
0
 11
8411.141
 21
365.467
 31
0
 0
LINE
 8
TOOL_0
 5
161
 10
8411.141
 20
365.467
 30
0
 11
8411.141
 21
256.253
 31
0
 0
LINE
 8
TOOL_0
 5
162
 10
8411.141
 20
256.253
 30
0
 11
8390.141
 21
256.253
 31
0
 0
ARC
 8
TOOL_0
 5
163
 10
8390.141
 20
177.253
 30
0
 40
79.0
 50
90.0
 51
270.0
210
0
220
0
230
1.0
 0
LINE
 8
TOOL_0
 5
164
 10
8390.141
 20
98.253
 30
0
 11
8411.141
 21
98.253
 31
0
 0
LINE
 8
TOOL_0
 5
165
 10
8411.141
 20
98.253
 30
0
 11
8416.688
 21
98.253
 31
0
 0
LINE
 8
TOOL_0
 5
166
 10
8416.688
 20
98.253
 30
0
 11
5675.13
 21
795.706
 31
0
 0
LINE
 8
TOOL_0
 5
167
 10
5675.13
 20
795.706
 30
0
 11
5705.346
 21
795.706
 31
0
 0
LINE
 8
TOOL_0
 5
168
 10
5705.346
 20
795.706
 30
0
 11
5705.346
 21
928.206
 31
0
 0
ARC
 8
TOOL_0
 5
169
 10
5670.346
 20
928.206
 30
0
 40
35.0
 50
0
 51
90.0
210
0
220
0
230
1.0
 0
LINE
 8
TOOL_0
 5
16A
 10
5670.346
 20
963.206
 30
0
 11
5515.346
 21
963.206
 31
0
 0
ARC
 8
TOOL_0
 5
16B
 10
5515.346
 20
928.206
 30
0
 40
35.0
 50
90.0
 51
180.0
210
0
220
0
230
1.0
 0
LINE
 8
TOOL_0
 5
16C
 10
5480.346
 20
928.206
 30
0
 11
5480.346
 21
663.206
 31
0
 0
ARC
 8
TOOL_0
 5
16D
 10
5515.346
 20
663.206
 30
0
 40
35.0
 50
180.0
 51
270.0
210
0
220
0
230
1.0
 0
LINE
 8
TOOL_0
 5
16E
 10
5515.346
 20
628.206
 30
0
 11
5670.346
 21
628.206
 31
0
 0
ARC
 8
TOOL_0
 5
16F
 10
5670.346
 20
663.206
 30
0
 40
35.0
 50
270.0
 51
0
210
0
220
0
230
1.0
 0
LINE
 8
TOOL_0
 5
170
 10
5705.346
 20
663.206
 30
0
 11
5705.346
 21
795.706
 31
0
 0
LINE
 8
TOOL_0
 5
171
 10
5705.346
 20
795.706
 30
0
 11
5701.62
 21
800.043
 31
0
 0
LINE
 8
TOOL_0
 5
172
 10
5701.62
 20
800.043
 30
0
 11
6289.599
 21
775.706
 31
0
 0
LINE
 8
TOOL_0
 5
173
 10
6289.599
 20
775.706
 30
0
 11
6320.346
 21
775.706
 31
0
 0
LINE
 8
TOOL_0
 5
174
 10
6320.346
 20
775.706
 30
0
 11
6320.346
 21
888.206
 31
0
 0
ARC
 8
TOOL_0
 5
175
 10
6285.346
 20
888.206
 30
0
 40
35.0
 50
0
 51
90.0
210
0
220
0
230
1.0
 0
LINE
 8
TOOL_0
 5
176
 10
6285.346
 20
923.206
 30
0
 11
6130.346
 21
923.206
 31
0
 0
ARC
 8
TOOL_0
 5
177
 10
6130.346
 20
888.206
 30
0
 40
35.0
 50
90.0
 51
180.0
210
0
220
0
230
1.0
 0
LINE
 8
TOOL_0
 5
178
 10
6095.346
 20
888.206
 30
0
 11
6095.346
 21
663.206
 31
0
 0
ARC
 8
TOOL_0
 5
179
 10
6130.346
 20
663.206
 30
0
 40
35.0
 50
180.0
 51
270.0
210
0
220
0
230
1.0
 0
LINE
 8
TOOL_0
 5
17A
 10
6130.346
 20
628.206
 30
0
 11
6285.346
 21
628.206
 31
0
 0
ARC
 8
TOOL_0
 5
17B
 10
6285.346
 20
663.206
 30
0
 40
35.0
 50
270.0
 51
0
210
0
220
0
230
1.0
 0
LINE
 8
TOOL_0
 5
17C
 10
6320.346
 20
663.206
 30
0
 11
6320.346
 21
775.706
 31
0
 0
LINE
 8
TOOL_0
 5
17D
 10
6320.346
 20
775.706
 30
0
 11
6316.935
 21
779.557
 31
0
 0
LINE
 8
TOOL_0
 5
17E
 10
6316.935
 20
779.557
 30
0
 11
5289.346
 21
977.477
 31
0
 0
LINE
 8
TOOL_0
 5
17F
 10
5289.346
 20
977.477
 30
0
 11
5289.346
 21
1007.206
 31
0
 0
LINE
 8
TOOL_0
 5
180
 10
5289.346
 20
1007.206
 30
0
 11
5289.346
 21
1078.62
 31
0
 0
LINE
 8
TOOL_0
 5
181
 10
5289.346
 20
1078.62
 30
0
 11
5299.932
 21
1089.206
 31
0
 0
LINE
 8
TOOL_0
 5
182
 10
5299.932
 20
1089.206
 30
0
 11
5421.684
 21
1089.206
 31
0
 0
ARC
 8
TOOL_0
 5
183
 10
5421.65
 20
1098.267
 30
0
 40
9.061063789644
 50
270.214992535102
 51
333.375569119077
210
0
220
0
230
1.0
 0
LINE
 8
TOOL_0
 5
184
 10
5429.751
 20
1094.206
 30
0
 11
7591.846
 21
1094.206
 31
0
 0
LINE
 8
TOOL_0
 5
185
 10
7591.846
 20
1094.206
 30
0
 11
7591.846
 21
664.416
 31
0
 0
ARC
 8
TOOL_0
 5
186
 10
7583.846
 20
664.416
 30
0
 40
8.0
 50
270.0
 51
0
210
0
220
0
230
1.0
 0
LINE
 8
TOOL_0
 5
187
 10
7583.846
 20
656.416
 30
0
 11
7301.183
 21
656.416
 31
0
 0
ARC
 8
TOOL_0
 5
188
 10
7301.363
 20
555.751
 30
0
 40
100.665160929688
 50
90.102450994097
 51
102.266925903661
210
0
220
0
230
1.0
 0
LINE
 8
TOOL_0
 5
189
 10
7279.975
 20
654.118
 30
0
 11
6409.415
 21
463.206
 31
0
 0
LINE
 8
TOOL_0
 5
18A
 10
6409.415
 20
463.206
 30
0
 11
5479.083
 21
463.206
 31
0
 0
ARC
 8
TOOL_0
 5
18B
 10
5479.083
 20
564.206
 30
0
 40
101.0
 50
204.200430908952
 51
270.0
210
0
220
0
230
1.0
 0
LINE
 8
TOOL_0
 5
18C
 10
5386.959
 20
522.803
 30
0
 11
5289.346
 21
739.992
 31
0
 0
LINE
 8
TOOL_0
 5
18D
 10
5289.346
 20
739.992
 30
0
 11
5289.346
 21
849.206
 31
0
 0
LINE
 8
TOOL_0
 5
18E
 10
5289.346
 20
849.206
 30
0
 11
5310.346
 21
849.206
 31
0
 0
ARC
 8
TOOL_0
 5
18F
 10
5310.346
 20
928.206
 30
0
 40
79.0
 50
270.0
 51
90.0
210
0
220
0
230
1.0
 0
LINE
 8
TOOL_0
 5
190
 10
5310.346
 20
1007.206
 30
0
 11
5289.346
 21
1007.206
 31
0
 0
LINE
 8
TOOL_0
 5
191
 10
5289.346
 20
1007.206
 30
0
 11
5284.249
 21
1007.206
 31
0
 0
LINE
 8
TOOL_0
 5
192
 10
5284.249
 20
1007.206
 30
0
 11
5470.399
 21
1406.58
 31
0
 0
LINE
 8
TOOL_0
 5
193
 10
5470.399
 20
1406.58
 30
0
 11
5500.664
 21
1406.58
 31
0
 0
LINE
 8
TOOL_0
 5
194
 10
5500.664
 20
1406.58
 30
0
 11
5500.664
 21
1539.08
 31
0
 0
ARC
 8
TOOL_0
 5
195
 10
5465.664
 20
1539.08
 30
0
 40
35.0
 50
0
 51
90.0
210
0
220
0
230
1.0
 0
LINE
 8
TOOL_0
 5
196
 10
5465.664
 20
1574.08
 30
0
 11
5310.664
 21
1574.08
 31
0
 0
ARC
 8
TOOL_0
 5
197
 10
5310.664
 20
1539.08
 30
0
 40
35.0
 50
90.0
 51
180.0
210
0
220
0
230
1.0
 0
LINE
 8
TOOL_0
 5
198
 10
5275.664
 20
1539.08
 30
0
 11
5275.664
 21
1274.08
 31
0
 0
ARC
 8
TOOL_0
 5
199
 10
5310.664
 20
1274.08
 30
0
 40
35.0
 50
180.0
 51
270.0
210
0
220
0
230
1.0
 0
LINE
 8
TOOL_0
 5
19A
 10
5310.664
 20
1239.08
 30
0
 11
5465.664
 21
1239.08
 31
0
 0
ARC
 8
TOOL_0
 5
19B
 10
5465.664
 20
1274.08
 30
0
 40
35.0
 50
270.0
 51
0
210
0
220
0
230
1.0
 0
LINE
 8
TOOL_0
 5
19C
 10
5500.664
 20
1274.08
 30
0
 11
5500.664
 21
1406.58
 31
0
 0
LINE
 8
TOOL_0
 5
19D
 10
5500.664
 20
1406.58
 30
0
 11
5497.827
 21
1410.868
 31
0
 0
LINE
 8
TOOL_0
 5
19E
 10
5497.827
 20
1410.868
 30
0
 11
6085.299
 21
1426.58
 31
0
 0
LINE
 8
TOOL_0
 5
19F
 10
6085.299
 20
1426.58
 30
0
 11
6115.663
 21
1426.58
 31
0
 0
LINE
 8
TOOL_0
 5
1A0
 10
6115.663
 20
1426.58
 30
0
 11
6115.663
 21
1539.08
 31
0
 0
ARC
 8
TOOL_0
 5
1A1
 10
6080.663
 20
1539.08
 30
0
 40
35.0
 50
0
 51
90.0
210
0
220
0
230
1.0
 0
LINE
 8
TOOL_0
 5
1A2
 10
6080.663
 20
1574.08
 30
0
 11
5925.663
 21
1574.08
 31
0
 0
ARC
 8
TOOL_0
 5
1A3
 10
5925.663
 20
1539.08
 30
0
 40
35.0
 50
90.0
 51
180.0
210
0
220
0
230
1.0
 0
LINE
 8
TOOL_0
 5
1A4
 10
5890.663
 20
1539.08
 30
0
 11
5890.663
 21
1314.08
 31
0
 0
ARC
 8
TOOL_0
 5
1A5
 10
5925.663
 20
1314.08
 30
0
 40
35.0
 50
180.0
 51
270.0
210
0
220
0
230
1.0
 0
LINE
 8
TOOL_0
 5
1A6
 10
5925.663
 20
1279.08
 30
0
 11
6080.663
 21
1279.08
 31
0
 0
ARC
 8
TOOL_0
 5
1A7
 10
6080.663
 20
1314.08
 30
0
 40
35.0
 50
270.0
 51
0
210
0
220
0
230
1.0
 0
LINE
 8
TOOL_0
 5
1A8
 10
6115.663
 20
1314.08
 30
0
 11
6115.663
 21
1426.58
 31
0
 0
LINE
 8
TOOL_0
 5
1A9
 10
6115.663
 20
1426.58
 30
0
 11
6112.08
 21
1430.373
 31
0
 0
LINE
 8
TOOL_0
 5
1AA
 10
6112.08
 20
1430.373
 30
0
 11
5084.663
 21
1321.494
 31
0
 0
LINE
 8
TOOL_0
 5
1AB
 10
5084.663
 20
1321.494
 30
0
 11
5084.663
 21
1353.08
 31
0
 0
LINE
 8
TOOL_0
 5
1AC
 10
5084.663
 20
1353.08
 30
0
 11
5084.663
 21
1462.294
 31
0
 0
LINE
 8
TOOL_0
 5
1AD
 10
5084.663
 20
1462.294
 30
0
 11
5182.276
 21
1679.483
 31
0
 0
ARC
 8
TOOL_0
 5
1AE
 10
5274.399
 20
1638.079
 30
0
 40
100.999694776766
 50
90.0
 51
155.798819111462
210
0
220
0
230
1.0
 0
LINE
 8
TOOL_0
 5
1AF
 10
5274.399
 20
1739.079
 30
0
 11
6204.731
 21
1739.079
 31
0
 0
LINE
 8
TOOL_0
 5
1B0
 10
6204.731
 20
1739.079
 30
0
 11
7075.291
 21
1548.167
 31
0
 0
ARC
 8
TOOL_0
 5
1B1
 10
7096.679
 20
1646.534
 30
0
 40
100.665352693963
 50
257.733074096339
 51
269.897549005903
210
0
220
0
230
1.0
 0
LINE
 8
TOOL_0
 5
1B2
 10
7096.499
 20
1545.869
 30
0
 11
7379.162
 21
1545.869
 31
0
 0
ARC
 8
TOOL_0
 5
1B3
 10
7379.162
 20
1537.869
 30
0
 40
8.0
 50
0
 51
90.0
210
0
220
0
230
1.0
 0
LINE
 8
TOOL_0
 5
1B4
 10
7387.162
 20
1537.869
 30
0
 11
7387.162
 21
1108.079
 31
0
 0
LINE
 8
TOOL_0
 5
1B5
 10
7387.162
 20
1108.079
 30
0
 11
5225.067
 21
1108.079
 31
0
 0
ARC
 8
TOOL_0
 5
1B6
 10
5216.967
 20
1104.018
 30
0
 40
9.061
 50
26.627264624285
 51
89.791330717988
210
0
220
0
230
1.0
 0
LINE
 8
TOOL_0
 5
1B7
 10
5217.0
 20
1113.079
 30
0
 11
5095.248
 21
1113.079
 31
0
 0
LINE
 8
TOOL_0
 5
1B8
 10
5095.248
 20
1113.079
 30
0
 11
5084.662
 21
1123.665
 31
0
 0
LINE
 8
TOOL_0
 5
1B9
 10
5084.662
 20
1123.665
 30
0
 11
5084.662
 21
1195.079
 31
0
 0
LINE
 8
TOOL_0
 5
1BA
 10
5084.662
 20
1195.079
 30
0
 11
5105.662
 21
1195.079
 31
0
 0
ARC
 8
TOOL_0
 5
1BB
 10
5105.662
 20
1274.079
 30
0
 40
79.0
 50
270.0
 51
90.0
210
0
220
0
230
1.0
 0
LINE
 8
TOOL_0
 5
1BC
 10
5105.662
 20
1353.079
 30
0
 11
5084.662
 21
1353.079
 31
0
 0
LINE
 8
TOOL_0
 5
1BD
 10
5084.662
 20
1353.079
 30
0
 11
5079.264
 21
1353.079
 31
0
 0
LINE
 8
TOOL_0
 5
1BE
 10
5079.264
 20
1353.079
 30
0
 11
6109.673
 21
2070.251
 31
0
 0
LINE
 8
TOOL_0
 5
1BF
 10
6109.673
 20
2070.251
 30
0
 11
6140.964
 21
2070.251
 31
0
 0
LINE
 8
TOOL_0
 5
1C0
 10
6140.964
 20
2070.251
 30
0
 11
6140.964
 21
2182.751
 31
0
 0
ARC
 8
TOOL_0
 5
1C1
 10
6105.964
 20
2182.751
 30
0
 40
35.0
 50
0
 51
90.0
210
0
220
0
230
1.0
 0
LINE
 8
TOOL_0
 5
1C2
 10
6105.964
 20
2217.751
 30
0
 11
5950.964
 21
2217.751
 31
0
 0
ARC
 8
TOOL_0
 5
1C3
 10
5950.964
 20
2182.751
 30
0
 40
35.0
 50
90.0
 51
180.0
210
0
220
0
230
1.0
 0
LINE
 8
TOOL_0
 5
1C4
 10
5915.964
 20
2182.751
 30
0
 11
5915.964
 21
1957.751
 31
0
 0
ARC
 8
TOOL_0
 5
1C5
 10
5950.964
 20
1957.751
 30
0
 40
35.0
 50
180.0
 51
270.0
210
0
220
0
230
1.0
 0
LINE
 8
TOOL_0
 5
1C6
 10
5950.964
 20
1922.751
 30
0
 11
6105.964
 21
1922.751
 31
0
 0
ARC
 8
TOOL_0
 5
1C7
 10
6105.964
 20
1957.751
 30
0
 40
35.0
 50
270.0
 51
0
210
0
220
0
230
1.0
 0
LINE
 8
TOOL_0
 5
1C8
 10
6140.964
 20
1957.751
 30
0
 11
6140.964
 21
2070.251
 31
0
 0
LINE
 8
TOOL_0
 5
1C9
 10
6140.964
 20
2070.251
 30
0
 11
6137.829
 21
2074.271
 31
0
 0
LINE
 8
TOOL_0
 5
1CA
 10
6137.829
 20
2074.271
 30
0
 11
6725.75
 21
2090.251
 31
0
 0
LINE
 8
TOOL_0
 5
1CB
 10
6725.75
 20
2090.251
 30
0
 11
6755.964
 21
2090.251
 31
0
 0
LINE
 8
TOOL_0
 5
1CC
 10
6755.964
 20
2090.251
 30
0
 11
6755.964
 21
2222.751
 31
0
 0
ARC
 8
TOOL_0
 5
1CD
 10
6720.964
 20
2222.751
 30
0
 40
35.0
 50
0
 51
90.0
210
0
220
0
230
1.0
 0
LINE
 8
TOOL_0
 5
1CE
 10
6720.964
 20
2257.751
 30
0
 11
6565.964
 21
2257.751
 31
0
 0
ARC
 8
TOOL_0
 5
1CF
 10
6565.964
 20
2222.751
 30
0
 40
35.0
 50
90.0
 51
180.0
210
0
220
0
230
1.0
 0
LINE
 8
TOOL_0
 5
1D0
 10
6530.964
 20
2222.751
 30
0
 11
6530.964
 21
1957.751
 31
0
 0
ARC
 8
TOOL_0
 5
1D1
 10
6565.964
 20
1957.751
 30
0
 40
35.0
 50
180.0
 51
270.0
210
0
220
0
230
1.0
 0
LINE
 8
TOOL_0
 5
1D2
 10
6565.964
 20
1922.751
 30
0
 11
6720.964
 21
1922.751
 31
0
 0
ARC
 8
TOOL_0
 5
1D3
 10
6720.964
 20
1957.751
 30
0
 40
35.0
 50
270.0
 51
0
210
0
220
0
230
1.0
 0
LINE
 8
TOOL_0
 5
1D4
 10
6755.964
 20
1957.751
 30
0
 11
6755.964
 21
2090.251
 31
0
 0
LINE
 8
TOOL_0
 5
1D5
 10
6755.964
 20
2090.251
 30
0
 11
6753.551
 21
2094.573
 31
0
 0
LINE
 8
TOOL_0
 5
1D6
 10
6753.551
 20
2094.573
 30
0
 11
6946.964
 21
2175.458
 31
0
 0
LINE
 8
TOOL_0
 5
1D7
 10
6946.964
 20
2175.458
 30
0
 11
6946.964
 21
2143.751
 31
0
 0
LINE
 8
TOOL_0
 5
1D8
 10
6946.964
 20
2143.751
 30
0
 11
6946.964
 21
2034.537
 31
0
 0
LINE
 8
TOOL_0
 5
1D9
 10
6946.964
 20
2034.537
 30
0
 11
6849.351
 21
1817.348
 31
0
 0
ARC
 8
TOOL_0
 5
1DA
 10
6757.228
 20
1858.752
 30
0
 40
100.999694776766
 50
269.999432715054
 51
335.798819111463
210
0
220
0
230
1.0
 0
LINE
 8
TOOL_0
 5
1DB
 10
6757.227
 20
1757.752
 30
0
 11
5826.896
 21
1757.752
 31
0
 0
LINE
 8
TOOL_0
 5
1DC
 10
5826.896
 20
1757.752
 30
0
 11
4956.336
 21
1948.664
 31
0
 0
ARC
 8
TOOL_0
 5
1DD
 10
4934.948
 20
1850.297
 30
0
 40
100.665352693963
 50
77.733074096339
 51
89.897549005903
210
0
220
0
230
1.0
 0
LINE
 8
TOOL_0
 5
1DE
 10
4935.128
 20
1950.962
 30
0
 11
4652.465
 21
1950.962
 31
0
 0
ARC
 8
TOOL_0
 5
1DF
 10
4652.465
 20
1958.962
 30
0
 40
8.0
 50
180.0
 51
270.0
210
0
220
0
230
1.0
 0
LINE
 8
TOOL_0
 5
1E0
 10
4644.465
 20
1958.962
 30
0
 11
4644.465
 21
2388.751
 31
0
 0
LINE
 8
TOOL_0
 5
1E1
 10
4644.465
 20
2388.751
 30
0
 11
6806.56
 21
2388.751
 31
0
 0
ARC
 8
TOOL_0
 5
1E2
 10
6814.66
 20
2392.812
 30
0
 40
9.061
 50
206.627264624286
 51
269.791330717987
210
0
220
0
230
1.0
 0
LINE
 8
TOOL_0
 5
1E3
 10
6814.627
 20
2383.751
 30
0
 11
6936.379
 21
2383.751
 31
0
 0
LINE
 8
TOOL_0
 5
1E4
 10
6936.379
 20
2383.751
 30
0
 11
6946.965
 21
2373.165
 31
0
 0
LINE
 8
TOOL_0
 5
1E5
 10
6946.965
 20
2373.165
 30
0
 11
6946.965
 21
2301.751
 31
0
 0
LINE
 8
TOOL_0
 5
1E6
 10
6946.965
 20
2301.751
 30
0
 11
6925.965
 21
2301.751
 31
0
 0
ARC
 8
TOOL_0
 5
1E7
 10
6925.965
 20
2222.751
 30
0
 40
79.0
 50
90.0
 51
270.0
210
0
220
0
230
1.0
 0
LINE
 8
TOOL_0
 5
1E8
 10
6925.965
 20
2143.751
 30
0
 11
6946.965
 21
2143.751
 31
0
 0
LINE
 8
TOOL_0
 5
1E9
 10
6946.965
 20
2143.751
 30
0
 11
6951.982
 21
2143.751
 31
0
 0
LINE
 8
TOOL_0
 5
1EA
 10
6951.982
 20
2143.751
 30
0
 11
7628.796
 21
1997.179
 31
0
 0
LINE
 8
TOOL_0
 5
1EB
 10
7628.796
 20
1997.179
 30
0
 11
7661.318
 21
1997.179
 31
0
 0
ARC
 8
TOOL_0
 5
1EC
 10
7626.451
 20
2000.229
 30
0
 40
35.00014555684
 50
355.000761954091
 51
40.000076104433
210
0
220
0
230
1.0
 0
LINE
 8
TOOL_0
 5
1ED
 10
7653.263
 20
2022.727
 30
0
 11
7553.631
 21
2141.464
 31
0
 0
ARC
 8
TOOL_0
 5
1EE
 10
7526.819
 20
2118.966
 30
0
 40
35.000619251665
 50
40.000076104433
 51
129.998822073174
210
0
220
0
230
1.0
 0
LINE
 8
TOOL_0
 5
1EF
 10
7504.322
 20
2145.778
 30
0
 11
7301.32
 21
1975.439
 31
0
 0
ARC
 8
TOOL_0
 5
1F0
 10
7323.818
 20
1948.627
 30
0
 40
35.000619251664
 50
130.000076104433
 51
219.998822073173
210
0
220
0
230
1.0
 0
LINE
 8
TOOL_0
 5
1F1
 10
7297.006
 20
1926.13
 30
0
 11
7396.638
 21
1807.393
 31
0
 0
ARC
 8
TOOL_0
 5
1F2
 10
7423.45
 20
1829.891
 30
0
 40
35.000619251665
 50
220.000076104433
 51
309.998822073174
210
0
220
0
230
1.0
 0
LINE
 8
TOOL_0
 5
1F3
 10
7445.947
 20
1803.079
 30
0
 11
7648.949
 21
1973.418
 31
0
 0
ARC
 8
TOOL_0
 5
1F4
 10
7626.451
 20
2000.23
 30
0
 40
35.000619251664
 50
310.000076104433
 51
354.999131170129
210
0
220
0
230
1.0
 0
LINE
 8
TOOL_0
 5
1F5
 10
7661.318
 20
1997.179
 30
0
 11
7658.419
 21
2001.333
 31
0
 0
LINE
 8
TOOL_0
 5
1F6
 10
7658.419
 20
2001.333
 30
0
 11
7995.164
 21
1500.35
 31
0
 0
LINE
 8
TOOL_0
 5
1F7
 10
7995.164
 20
1500.35
 30
0
 11
8025.991
 21
1500.35
 31
0
 0
ARC
 8
TOOL_0
 5
1F8
 10
7991.124
 20
1503.4
 30
0
 40
35.00014555684
 50
355.000761954091
 51
40.000076104433
210
0
220
0
230
1.0
 0
LINE
 8
TOOL_0
 5
1F9
 10
8017.936
 20
1525.898
 30
0
 11
7918.304
 21
1644.635
 31
0
 0
ARC
 8
TOOL_0
 5
1FA
 10
7891.492
 20
1622.137
 30
0
 40
35.000619251665
 50
40.000076104433
 51
129.998822073173
210
0
220
0
230
1.0
 0
LINE
 8
TOOL_0
 5
1FB
 10
7868.995
 20
1648.949
 30
0
 11
7696.635
 21
1504.322
 31
0
 0
ARC
 8
TOOL_0
 5
1FC
 10
7719.133
 20
1477.51
 30
0
 40
35.000619251664
 50
130.000076104433
 51
219.998822073173
210
0
220
0
230
1.0
 0
LINE
 8
TOOL_0
 5
1FD
 10
7692.321
 20
1455.013
 30
0
 11
7791.953
 21
1336.276
 31
0
 0
ARC
 8
TOOL_0
 5
1FE
 10
7818.765
 20
1358.774
 30
0
 40
35.000619251665
 50
220.000076104433
 51
309.998822073174
210
0
220
0
230
1.0
 0
LINE
 8
TOOL_0
 5
1FF
 10
7841.262
 20
1331.962
 30
0
 11
8013.622
 21
1476.589
 31
0
 0
ARC
 8
TOOL_0
 5
200
 10
7991.124
 20
1503.401
 30
0
 40
35.000619251664
 50
310.000076104433
 51
354.999131170129
210
0
220
0
230
1.0
 0
LINE
 8
TOOL_0
 5
201
 10
8025.991
 20
1500.35
 30
0
 11
8022.306
 21
1504.147
 31
0
 0
LINE
 8
TOOL_0
 5
202
 10
8022.306
 20
1504.147
 30
0
 11
8988.731
 21
665.285
 31
0
 0
LINE
 8
TOOL_0
 5
203
 10
8988.731
 20
665.285
 30
0
 11
8988.731
 21
634.978
 31
0
 0
LINE
 8
TOOL_0
 5
204
 10
8988.731
 20
634.978
 30
0
 11
8659.493
 21
358.715
 31
0
 0
ARC
 8
TOOL_0
 5
205
 10
8654.351
 20
364.843
 30
0
 40
7.999534236441
 50
219.995382611546
 51
309.999986064558
210
0
220
0
230
1.0
 0
LINE
 8
TOOL_0
 5
206
 10
8648.222
 20
359.701
 30
0
 11
8466.53
 21
576.233
 31
0
 0
ARC
 8
TOOL_0
 5
207
 10
8389.532
 20
511.389
 30
0
 40
100.664970769379
 50
40.102465700975
 51
52.267088376912
210
0
220
0
230
1.0
 0
LINE
 8
TOOL_0
 5
208
 10
8451.137
 20
591.002
 30
0
 11
7745.304
 21
1135.174
 31
0
 0
LINE
 8
TOOL_0
 5
209
 10
7745.304
 20
1135.174
 30
0
 11
7147.298
 21
1847.849
 31
0
 0
ARC
 8
TOOL_0
 5
20A
 10
7224.668
 20
1912.771
 30
0
 40
100.999915762341
 50
154.200636551596
 51
220.000374394037
210
0
220
0
230
1.0
 0
LINE
 8
TOOL_0
 5
20B
 10
7133.736
 20
1956.728
 30
0
 11
7237.368
 21
2171.11
 31
0
 0
LINE
 8
TOOL_0
 5
20C
 10
7237.368
 20
2171.11
 30
0
 11
7321.031
 21
2241.312
 31
0
 0
LINE
 8
TOOL_0
 5
20D
 10
7321.031
 20
2241.312
 30
0
 11
7334.53
 21
2225.225
 31
0
 0
ARC
 8
TOOL_0
 5
20E
 10
7395.048
 20
2276.005
 30
0
 40
79.000232430038
 50
219.999649161257
 51
40.000115351095
210
0
220
0
230
1.0
 0
LINE
 8
TOOL_0
 5
20F
 10
7455.565
 20
2326.785
 30
0
 11
7442.066
 21
2342.872
 31
0
 0
LINE
 8
TOOL_0
 5
210
 10
7442.066
 20
2342.872
 30
0
 11
7496.772
 21
2388.776
 31
0
 0
LINE
 8
TOOL_0
 5
211
 10
7496.772
 20
2388.776
 30
0
 11
7511.686
 21
2387.471
 31
0
 0
LINE
 8
TOOL_0
 5
212
 10
7511.686
 20
2387.471
 30
0
 11
7589.947
 21
2294.203
 31
0
 0
ARC
 8
TOOL_0
 5
213
 10
7596.867
 20
2300.053
 30
0
 40
9.061396139669
 50
220.210367094894
 51
283.369062700297
210
0
220
0
230
1.0
 0
LINE
 8
TOOL_0
 5
214
 10
7598.962
 20
2291.238
 30
0
 11
8988.73
 21
634.977
 31
0
 0
LINE
 8
TOOL_0
 5
215
 10
8988.73
 20
634.977
 30
0
 11
8992.187
 21
631.176
 31
0
 0
LINE
 8
TOOL_0
 5
216
 10
8992.187
 20
631.176
 30
0
 11
9043.567
 21
0.001
 31
0
 0
LINE
 8
TOOL_0
 5
217
 10
9043.567
 20
0.001
 30
0
 11
9043.567
 21
1.001
 31
0
 0
LINE
 8
TOOL_0
 5
218
 10
9043.567
 20
1.001
 30
0
 11
9043.567
 21
0.001
 31
0
 0
LINE
 8
TOOL_0
 5
219
 10
9043.567
 20
0.001
 30
0
 11
9043.567
 21
1.001
 31
0
 0
LINE
 8
TOOL_0
 5
21A
 10
9043.567
 20
1.001
 30
0
 11
9043.567
 21
2399.001
 31
0
 0
LINE
 8
TOOL_0
 5
21B
 10
9043.567
 20
2399.001
 30
0
 11
9043.567
 21
2400.001
 31
0
 0
ENDSEC
 0
EOF

