0
SECTION
2
TABLES
0
TABLE
2
LAYER
70
0
0
LAYER
2
LAYER_NAME
70
0
62
1
6
CONTINUOUS
0
ENDTAB
0
ENDSEC
 0
SECTION
 2
ENTITIES
 0
LINE
 8
TOOL_0
 5
1
 10
1535.325
 20
240.001
 30
0
 11
1565.0
 21
240.001
 31
0
 0
LINE
 8
TOOL_0
 5
2
 10
1565.0
 20
240.001
 30
0
 11
1565.0
 21
305.001
 31
0
 0
ARC
 8
TOOL_0
 5
3
 10
1530.0
 20
305.001
 30
0
 40
35.0
 50
0
 51
90.0
210
0
220
0
230
1.0
 0
LINE
 8
TOOL_0
 5
4
 10
1530.0
 20
340.001
 30
0
 11
1325.0
 21
340.001
 31
0
 0
ARC
 8
TOOL_0
 5
5
 10
1325.0
 20
305.001
 30
0
 40
35.0
 50
90.0
 51
180.0
210
0
220
0
230
1.0
 0
LINE
 8
TOOL_0
 5
6
 10
1290.0
 20
305.001
 30
0
 11
1290.0
 21
175.001
 31
0
 0
ARC
 8
TOOL_0
 5
7
 10
1325.0
 20
175.001
 30
0
 40
35.0
 50
180.0
 51
270.0
210
0
220
0
230
1.0
 0
LINE
 8
TOOL_0
 5
8
 10
1325.0
 20
140.001
 30
0
 11
1530.0
 21
140.001
 31
0
 0
ARC
 8
TOOL_0
 5
9
 10
1530.0
 20
175.001
 30
0
 40
35.0
 50
270.0
 51
0
210
0
220
0
230
1.0
 0
LINE
 8
TOOL_0
 5
A
 10
1565.0
 20
175.001
 30
0
 11
1565.0
 21
240.001
 31
0
 0
LINE
 8
TOOL_0
 5
B
 10
1565.0
 20
240.001
 30
0
 11
1561.449
 21
243.802
 31
0
 0
LINE
 8
TOOL_0
 5
C
 10
1561.449
 20
243.802
 30
0
 11
652.967
 21
404.005
 31
0
 0
LINE
 8
TOOL_0
 5
D
 10
652.967
 20
404.005
 30
0
 11
685.0
 21
404.005
 31
0
 0
LINE
 8
TOOL_0
 5
E
 10
685.0
 20
404.005
 30
0
 11
685.0
 21
553.009
 31
0
 0
ARC
 8
TOOL_0
 5
F
 10
650.0
 20
553.009
 30
0
 40
35.0
 50
0
 51
102.368472417729
210
0
220
0
230
1.0
 0
LINE
 8
TOOL_0
 5
10
 10
642.503
 20
587.197
 30
0
 11
272.503
 21
506.057
 31
0
 0
ARC
 8
TOOL_0
 5
11
 10
280.034
 20
471.842
 30
0
 40
35.034014700003
 50
102.413328302356
 51
179.954207869932
210
0
220
0
230
1.0
 0
LINE
 8
TOOL_0
 5
12
 10
245.0
 20
471.87
 30
0
 11
245.0
 21
255.001
 31
0
 0
ARC
 8
TOOL_0
 5
13
 10
280.0
 20
255.001
 30
0
 40
35.0
 50
180.0
 51
270.0
210
0
220
0
230
1.0
 0
LINE
 8
TOOL_0
 5
14
 10
280.0
 20
220.001
 30
0
 11
650.0
 21
220.001
 31
0
 0
ARC
 8
TOOL_0
 5
15
 10
650.0
 20
255.001
 30
0
 40
35.0
 50
270.0
 51
0
210
0
220
0
230
1.0
 0
LINE
 8
TOOL_0
 5
16
 10
685.0
 20
255.001
 30
0
 11
685.0
 21
404.006
 31
0
 0
LINE
 8
TOOL_0
 5
17
 10
685.0
 20
404.006
 30
0
 11
681.771
 21
408.024
 31
0
 0
LINE
 8
TOOL_0
 5
18
 10
681.771
 20
408.024
 30
0
 11
1079.136
 21
450.607
 31
0
 0
LINE
 8
TOOL_0
 5
19
 10
1079.136
 20
450.607
 30
0
 11
1110.0
 21
450.607
 31
0
 0
LINE
 8
TOOL_0
 5
1A
 10
1110.0
 20
450.607
 30
0
 11
1110.0
 21
646.212
 31
0
 0
ARC
 8
TOOL_0
 5
1B
 10
1075.0
 20
646.212
 30
0
 40
35.0
 50
0
 51
102.368472417729
210
0
220
0
230
1.0
 0
LINE
 8
TOOL_0
 5
1C
 10
1067.503
 20
680.4
 30
0
 11
837.503
 21
629.961
 31
0
 0
ARC
 8
TOOL_0
 5
1D
 10
845.034
 20
595.746
 30
0
 40
35.034014700003
 50
102.413328302356
 51
179.955843302489
210
0
220
0
230
1.0
 0
LINE
 8
TOOL_0
 5
1E
 10
810.0
 20
595.773
 30
0
 11
810.0
 21
255.001
 31
0
 0
ARC
 8
TOOL_0
 5
1F
 10
845.0
 20
255.001
 30
0
 40
35.0
 50
180.0
 51
270.0
210
0
220
0
230
1.0
 0
LINE
 8
TOOL_0
 5
20
 10
845.0
 20
220.001
 30
0
 11
1075.0
 21
220.001
 31
0
 0
ARC
 8
TOOL_0
 5
21
 10
1075.0
 20
255.001
 30
0
 40
35.0
 50
270.0
 51
0
210
0
220
0
230
1.0
 0
LINE
 8
TOOL_0
 5
22
 10
1110.0
 20
255.001
 30
0
 11
1110.0
 21
450.607
 31
0
 0
LINE
 8
TOOL_0
 5
23
 10
1110.0
 20
450.607
 30
0
 11
1106.658
 21
454.429
 31
0
 0
LINE
 8
TOOL_0
 5
24
 10
1106.658
 20
454.429
 30
0
 11
1484.598
 21
756.501
 31
0
 0
LINE
 8
TOOL_0
 5
25
 10
1484.598
 20
756.501
 30
0
 11
1515.0
 21
756.501
 31
0
 0
LINE
 8
TOOL_0
 5
26
 10
1515.0
 20
756.501
 30
0
 11
1515.0
 21
869.001
 31
0
 0
ARC
 8
TOOL_0
 5
27
 10
1480.0
 20
869.001
 30
0
 40
35.0
 50
0
 51
90.0
210
0
220
0
230
1.0
 0
LINE
 8
TOOL_0
 5
28
 10
1480.0
 20
904.001
 30
0
 11
1325.0
 21
904.001
 31
0
 0
ARC
 8
TOOL_0
 5
29
 10
1325.0
 20
869.001
 30
0
 40
35.0
 50
90.0
 51
180.0
210
0
220
0
230
1.0
 0
LINE
 8
TOOL_0
 5
2A
 10
1290.0
 20
869.001
 30
0
 11
1290.0
 21
644.001
 31
0
 0
ARC
 8
TOOL_0
 5
2B
 10
1325.0
 20
644.001
 30
0
 40
35.0
 50
180.0
 51
270.0
210
0
220
0
230
1.0
 0
LINE
 8
TOOL_0
 5
2C
 10
1325.0
 20
609.001
 30
0
 11
1480.0
 21
609.001
 31
0
 0
ARC
 8
TOOL_0
 5
2D
 10
1480.0
 20
644.001
 30
0
 40
35.0
 50
270.0
 51
0
210
0
220
0
230
1.0
 0
LINE
 8
TOOL_0
 5
2E
 10
1515.0
 20
644.001
 30
0
 11
1515.0
 21
756.501
 31
0
 0
LINE
 8
TOOL_0
 5
2F
 10
1515.0
 20
756.501
 30
0
 11
1511.664
 21
760.318
 31
0
 0
LINE
 8
TOOL_0
 5
30
 10
1511.664
 20
760.318
 30
0
 11
2099.5
 21
736.501
 31
0
 0
LINE
 8
TOOL_0
 5
31
 10
2099.5
 20
736.501
 30
0
 11
2130.0
 21
736.501
 31
0
 0
LINE
 8
TOOL_0
 5
32
 10
2130.0
 20
736.501
 30
0
 11
2130.0
 21
869.001
 31
0
 0
ARC
 8
TOOL_0
 5
33
 10
2095.0
 20
869.001
 30
0
 40
35.0
 50
0
 51
90.0
210
0
220
0
230
1.0
 0
LINE
 8
TOOL_0
 5
34
 10
2095.0
 20
904.001
 30
0
 11
1940.0
 21
904.001
 31
0
 0
ARC
 8
TOOL_0
 5
35
 10
1940.0
 20
869.001
 30
0
 40
35.0
 50
90.0
 51
180.0
210
0
220
0
230
1.0
 0
LINE
 8
TOOL_0
 5
36
 10
1905.0
 20
869.001
 30
0
 11
1905.0
 21
604.001
 31
0
 0
ARC
 8
TOOL_0
 5
37
 10
1940.0
 20
604.001
 30
0
 40
35.0
 50
180.0
 51
270.0
210
0
220
0
230
1.0
 0
LINE
 8
TOOL_0
 5
38
 10
1940.0
 20
569.001
 30
0
 11
2095.0
 21
569.001
 31
0
 0
ARC
 8
TOOL_0
 5
39
 10
2095.0
 20
604.001
 30
0
 40
35.0
 50
270.0
 51
0
210
0
220
0
230
1.0
 0
LINE
 8
TOOL_0
 5
3A
 10
2130.0
 20
604.001
 30
0
 11
2130.0
 21
736.501
 31
0
 0
LINE
 8
TOOL_0
 5
3B
 10
2130.0
 20
736.501
 30
0
 11
2126.591
 21
740.211
 31
0
 0
LINE
 8
TOOL_0
 5
3C
 10
2126.591
 20
740.211
 30
0
 11
2039.205
 21
240.001
 31
0
 0
LINE
 8
TOOL_0
 5
3D
 10
2039.205
 20
240.001
 30
0
 11
2070.0
 21
240.001
 31
0
 0
LINE
 8
TOOL_0
 5
3E
 10
2070.0
 20
240.001
 30
0
 11
2070.0
 21
305.001
 31
0
 0
ARC
 8
TOOL_0
 5
3F
 10
2035.0
 20
305.001
 30
0
 40
35.0
 50
0
 51
90.0
210
0
220
0
230
1.0
 0
LINE
 8
TOOL_0
 5
40
 10
2035.0
 20
340.001
 30
0
 11
1755.0
 21
340.001
 31
0
 0
ARC
 8
TOOL_0
 5
41
 10
1755.0
 20
305.001
 30
0
 40
35.0
 50
90.0
 51
180.0
210
0
220
0
230
1.0
 0
LINE
 8
TOOL_0
 5
42
 10
1720.0
 20
305.001
 30
0
 11
1720.0
 21
175.001
 31
0
 0
ARC
 8
TOOL_0
 5
43
 10
1755.0
 20
175.001
 30
0
 40
35.0
 50
180.0
 51
270.0
210
0
220
0
230
1.0
 0
LINE
 8
TOOL_0
 5
44
 10
1755.0
 20
140.001
 30
0
 11
2035.0
 21
140.001
 31
0
 0
ARC
 8
TOOL_0
 5
45
 10
2035.0
 20
175.001
 30
0
 40
35.0
 50
270.0
 51
0
210
0
220
0
230
1.0
 0
LINE
 8
TOOL_0
 5
46
 10
2070.0
 20
175.001
 30
0
 11
2070.0
 21
240.001
 31
0
 0
LINE
 8
TOOL_0
 5
47
 10
2070.0
 20
240.001
 30
0
 11
2066.118
 21
243.352
 31
0
 0
LINE
 8
TOOL_0
 5
48
 10
2066.118
 20
243.352
 30
0
 11
2321.0
 21
136.049
 31
0
 0
LINE
 8
TOOL_0
 5
49
 10
2321.0
 20
136.049
 30
0
 11
2321.0
 21
106.001
 31
0
 0
LINE
 8
TOOL_0
 5
4A
 10
2321.0
 20
106.001
 30
0
 11
2321.0
 21
34.587
 31
0
 0
LINE
 8
TOOL_0
 5
4B
 10
2321.0
 20
34.587
 30
0
 11
2310.414
 21
24.001
 31
0
 0
LINE
 8
TOOL_0
 5
4C
 10
2310.414
 20
24.001
 30
0
 11
2188.66
 21
24.001
 31
0
 0
ARC
 8
TOOL_0
 5
4D
 10
2188.694
 20
14.946
 30
0
 40
9.055063831912
 50
90.215134991548
 51
153.39533106299
210
0
220
0
230
1.0
 0
LINE
 8
TOOL_0
 5
4E
 10
2180.598
 20
19.001
 30
0
 11
19.0
 21
19.001
 31
0
 0
LINE
 8
TOOL_0
 5
4F
 10
19.0
 20
19.001
 30
0
 11
19.0
 21
866.79
 31
0
 0
ARC
 8
TOOL_0
 5
50
 10
28.0
 20
866.79
 30
0
 40
9.0
 50
90.0
 51
180.0
210
0
220
0
230
1.0
 0
LINE
 8
TOOL_0
 5
51
 10
28.0
 20
875.79
 30
0
 11
309.164
 21
875.79
 31
0
 0
ARC
 8
TOOL_0
 5
52
 10
308.985
 20
976.439
 30
0
 40
100.649159171848
 50
270.101898019056
 51
282.267192293863
210
0
220
0
230
1.0
 0
LINE
 8
TOOL_0
 5
53
 10
330.37
 20
878.088
 30
0
 11
1205.492
 21
1070.001
 31
0
 0
LINE
 8
TOOL_0
 5
54
 10
1205.492
 20
1070.001
 30
0
 11
2131.461
 21
1070.001
 31
0
 0
ARC
 8
TOOL_0
 5
55
 10
2131.461
 20
970.001
 30
0
 40
100.0
 50
24.201124261854
 51
90.0
210
0
220
0
230
1.0
 0
LINE
 8
TOOL_0
 5
56
 10
2222.672
 20
1010.995
 30
0
 11
2321.0
 21
792.216
 31
0
 0
LINE
 8
TOOL_0
 5
57
 10
2321.0
 20
792.216
 30
0
 11
2321.0
 21
264.002
 31
0
 0
LINE
 8
TOOL_0
 5
58
 10
2321.0
 20
264.002
 30
0
 11
2300.0
 21
264.002
 31
0
 0
ARC
 8
TOOL_0
 5
59
 10
2300.0
 20
185.002
 30
0
 40
79.0
 50
90.0
 51
270.0
210
0
220
0
230
1.0
 0
LINE
 8
TOOL_0
 5
5A
 10
2300.0
 20
106.002
 30
0
 11
2321.0
 21
106.002
 31
0
 0
LINE
 8
TOOL_0
 5
5B
 10
2321.0
 20
106.002
 30
0
 11
2326.041
 21
106.002
 31
0
 0
LINE
 8
TOOL_0
 5
5C
 10
2326.041
 20
106.002
 30
0
 11
2326.041
 21
0.001
 31
0
 0
LINE
 8
TOOL_0
 5
5D
 10
2326.041
 20
0.001
 30
0
 11
3804.945
 21
337.252
 31
0
 0
LINE
 8
TOOL_0
 5
5E
 10
3804.945
 20
337.252
 30
0
 11
3835.334
 21
337.252
 31
0
 0
LINE
 8
TOOL_0
 5
5F
 10
3835.334
 20
337.252
 30
0
 11
3835.334
 21
449.752
 31
0
 0
ARC
 8
TOOL_0
 5
60
 10
3800.334
 20
449.752
 30
0
 40
35.0
 50
0
 51
90.0
210
0
220
0
230
1.0
 0
LINE
 8
TOOL_0
 5
61
 10
3800.334
 20
484.752
 30
0
 11
3645.334
 21
484.752
 31
0
 0
ARC
 8
TOOL_0
 5
62
 10
3645.334
 20
449.752
 30
0
 40
35.0
 50
90.0
 51
180.0
210
0
220
0
230
1.0
 0
LINE
 8
TOOL_0
 5
63
 10
3610.334
 20
449.752
 30
0
 11
3610.334
 21
224.752
 31
0
 0
ARC
 8
TOOL_0
 5
64
 10
3645.334
 20
224.752
 30
0
 40
35.0
 50
180.0
 51
270.0
210
0
220
0
230
1.0
 0
LINE
 8
TOOL_0
 5
65
 10
3645.334
 20
189.752
 30
0
 11
3800.334
 21
189.752
 31
0
 0
ARC
 8
TOOL_0
 5
66
 10
3800.334
 20
224.752
 30
0
 40
35.0
 50
270.0
 51
0
210
0
220
0
230
1.0
 0
LINE
 8
TOOL_0
 5
67
 10
3835.334
 20
224.752
 30
0
 11
3835.334
 21
337.252
 31
0
 0
LINE
 8
TOOL_0
 5
68
 10
3835.334
 20
337.252
 30
0
 11
3832.554
 21
341.595
 31
0
 0
LINE
 8
TOOL_0
 5
69
 10
3832.554
 20
341.595
 30
0
 11
4420.707
 21
317.252
 31
0
 0
LINE
 8
TOOL_0
 5
6A
 10
4420.707
 20
317.252
 30
0
 11
4450.334
 21
317.252
 31
0
 0
LINE
 8
TOOL_0
 5
6B
 10
4450.334
 20
317.252
 30
0
 11
4450.334
 21
449.752
 31
0
 0
ARC
 8
TOOL_0
 5
6C
 10
4415.334
 20
449.752
 30
0
 40
35.0
 50
0
 51
90.0
210
0
220
0
230
1.0
 0
LINE
 8
TOOL_0
 5
6D
 10
4415.334
 20
484.752
 30
0
 11
4260.334
 21
484.752
 31
0
 0
ARC
 8
TOOL_0
 5
6E
 10
4260.334
 20
449.752
 30
0
 40
35.0
 50
90.0
 51
180.0
210
0
220
0
230
1.0
 0
LINE
 8
TOOL_0
 5
6F
 10
4225.334
 20
449.752
 30
0
 11
4225.334
 21
184.752
 31
0
 0
ARC
 8
TOOL_0
 5
70
 10
4260.334
 20
184.752
 30
0
 40
35.0
 50
180.0
 51
270.0
210
0
220
0
230
1.0
 0
LINE
 8
TOOL_0
 5
71
 10
4260.334
 20
149.752
 30
0
 11
4415.334
 21
149.752
 31
0
 0
ARC
 8
TOOL_0
 5
72
 10
4415.334
 20
184.752
 30
0
 40
35.0
 50
270.0
 51
0
210
0
220
0
230
1.0
 0
LINE
 8
TOOL_0
 5
73
 10
4450.334
 20
184.752
 30
0
 11
4450.334
 21
317.252
 31
0
 0
LINE
 8
TOOL_0
 5
74
 10
4450.334
 20
317.252
 30
0
 11
4447.188
 21
321.213
 31
0
 0
LINE
 8
TOOL_0
 5
75
 10
4447.188
 20
321.213
 30
0
 11
4641.084
 21
136.033
 31
0
 0
LINE
 8
TOOL_0
 5
76
 10
4641.084
 20
136.033
 30
0
 11
4641.084
 21
105.502
 31
0
 0
LINE
 8
TOOL_0
 5
77
 10
4641.084
 20
105.502
 30
0
 11
4641.084
 21
34.441
 31
0
 0
LINE
 8
TOOL_0
 5
78
 10
4641.084
 20
34.441
 30
0
 11
4630.645
 21
24.002
 31
0
 0
LINE
 8
TOOL_0
 5
79
 10
4630.645
 20
24.002
 30
0
 11
4508.995
 21
24.002
 31
0
 0
ARC
 8
TOOL_0
 5
7A
 10
4509.012
 20
14.724
 30
0
 40
9.278015574464
 50
90.104982448985
 51
152.542881653088
210
0
220
0
230
1.0
 0
LINE
 8
TOOL_0
 5
7B
 10
4500.779
 20
19.002
 30
0
 11
2339.585
 21
19.002
 31
0
 0
LINE
 8
TOOL_0
 5
7C
 10
2339.585
 20
19.002
 30
0
 11
2339.585
 21
447.541
 31
0
 0
ARC
 8
TOOL_0
 5
7D
 10
2348.335
 20
447.541
 30
0
 40
8.75
 50
90.0
 51
180.0
210
0
220
0
230
1.0
 0
LINE
 8
TOOL_0
 5
7E
 10
2348.335
 20
456.291
 30
0
 11
2629.499
 21
456.291
 31
0
 0
ARC
 8
TOOL_0
 5
7F
 10
2629.41
 20
556.364
 30
0
 40
100.073039576102
 50
270.050956032419
 51
282.317850766472
210
0
220
0
230
1.0
 0
LINE
 8
TOOL_0
 5
80
 10
2650.759
 20
458.595
 30
0
 11
3527.164
 21
650.789
 31
0
 0
LINE
 8
TOOL_0
 5
81
 10
3527.164
 20
650.789
 30
0
 11
4456.085
 21
650.51
 31
0
 0
LINE
 8
TOOL_0
 5
82
 10
4456.085
 20
650.51
 30
0
 11
4456.085
 21
607.423
 31
0
 0
ARC
 8
TOOL_0
 5
83
 10
4490.409
 20
607.45
 30
0
 40
34.32401061939
 50
180.045070088794
 51
219.760261269023
210
0
220
0
230
1.0
 0
LINE
 8
TOOL_0
 5
84
 10
4464.023
 20
585.497
 30
0
 11
4641.085
 21
373.023
 31
0
 0
LINE
 8
TOOL_0
 5
85
 10
4641.085
 20
373.023
 30
0
 11
4641.085
 21
264.001
 31
0
 0
LINE
 8
TOOL_0
 5
86
 10
4641.085
 20
264.001
 30
0
 11
4620.335
 21
264.001
 31
0
 0
ARC
 8
TOOL_0
 5
87
 10
4620.335
 20
184.751
 30
0
 40
79.25
 50
90.0
 51
270.0
210
0
220
0
230
1.0
 0
LINE
 8
TOOL_0
 5
88
 10
4620.335
 20
105.501
 30
0
 11
4641.085
 21
105.501
 31
0
 0
LINE
 8
TOOL_0
 5
89
 10
4641.085
 20
105.501
 30
0
 11
4645.95
 21
105.501
 31
0
 0
LINE
 8
TOOL_0
 5
8A
 10
4645.95
 20
105.501
 30
0
 11
4645.95
 21
0
 31
0
 0
LINE
 8
TOOL_0
 5
8B
 10
4645.95
 20
0
 30
0
 11
6126.611
 21
337.501
 31
0
 0
LINE
 8
TOOL_0
 5
8C
 10
6126.611
 20
337.501
 30
0
 11
6156.74
 21
337.501
 31
0
 0
LINE
 8
TOOL_0
 5
8D
 10
6156.74
 20
337.501
 30
0
 11
6156.74
 21
450.001
 31
0
 0
ARC
 8
TOOL_0
 5
8E
 10
6121.74
 20
450.001
 30
0
 40
35.0
 50
0
 51
90.0
210
0
220
0
230
1.0
 0
LINE
 8
TOOL_0
 5
8F
 10
6121.74
 20
485.001
 30
0
 11
5966.74
 21
485.001
 31
0
 0
ARC
 8
TOOL_0
 5
90
 10
5966.74
 20
450.001
 30
0
 40
35.0
 50
90.0
 51
180.0
210
0
220
0
230
1.0
 0
LINE
 8
TOOL_0
 5
91
 10
5931.74
 20
450.001
 30
0
 11
5931.74
 21
225.001
 31
0
 0
ARC
 8
TOOL_0
 5
92
 10
5966.74
 20
225.001
 30
0
 40
35.0
 50
180.0
 51
270.0
210
0
220
0
230
1.0
 0
LINE
 8
TOOL_0
 5
93
 10
5966.74
 20
190.001
 30
0
 11
6121.74
 21
190.001
 31
0
 0
ARC
 8
TOOL_0
 5
94
 10
6121.74
 20
225.001
 30
0
 40
35.0
 50
270.0
 51
0
210
0
220
0
230
1.0
 0
LINE
 8
TOOL_0
 5
95
 10
6156.74
 20
225.001
 30
0
 11
6156.74
 21
337.501
 31
0
 0
LINE
 8
TOOL_0
 5
96
 10
6156.74
 20
337.501
 30
0
 11
6153.496
 21
341.681
 31
0
 0
LINE
 8
TOOL_0
 5
97
 10
6153.496
 20
341.681
 30
0
 11
6740.999
 21
317.501
 31
0
 0
LINE
 8
TOOL_0
 5
98
 10
6740.999
 20
317.501
 30
0
 11
6771.74
 21
317.501
 31
0
 0
LINE
 8
TOOL_0
 5
99
 10
6771.74
 20
317.501
 30
0
 11
6771.74
 21
450.001
 31
0
 0
ARC
 8
TOOL_0
 5
9A
 10
6736.74
 20
450.001
 30
0
 40
35.0
 50
0
 51
90.0
210
0
220
0
230
1.0
 0
LINE
 8
TOOL_0
 5
9B
 10
6736.74
 20
485.001
 30
0
 11
6581.74
 21
485.001
 31
0
 0
ARC
 8
TOOL_0
 5
9C
 10
6581.74
 20
450.001
 30
0
 40
35.0
 50
90.0
 51
180.0
210
0
220
0
230
1.0
 0
LINE
 8
TOOL_0
 5
9D
 10
6546.74
 20
450.001
 30
0
 11
6546.74
 21
185.001
 31
0
 0
ARC
 8
TOOL_0
 5
9E
 10
6581.74
 20
185.001
 30
0
 40
35.0
 50
180.0
 51
270.0
210
0
220
0
230
1.0
 0
LINE
 8
TOOL_0
 5
9F
 10
6581.74
 20
150.001
 30
0
 11
6736.74
 21
150.001
 31
0
 0
ARC
 8
TOOL_0
 5
A0
 10
6736.74
 20
185.001
 30
0
 40
35.0
 50
270.0
 51
0
210
0
220
0
230
1.0
 0
LINE
 8
TOOL_0
 5
A1
 10
6771.74
 20
185.001
 30
0
 11
6771.74
 21
317.501
 31
0
 0
LINE
 8
TOOL_0
 5
A2
 10
6771.74
 20
317.501
 30
0
 11
6768.469
 21
321.453
 31
0
 0
LINE
 8
TOOL_0
 5
A3
 10
6768.469
 20
321.453
 30
0
 11
6962.74
 21
136.838
 31
0
 0
LINE
 8
TOOL_0
 5
A4
 10
6962.74
 20
136.838
 30
0
 11
6962.74
 21
106.001
 31
0
 0
LINE
 8
TOOL_0
 5
A5
 10
6962.74
 20
106.001
 30
0
 11
6962.74
 21
34.587
 31
0
 0
LINE
 8
TOOL_0
 5
A6
 10
6962.74
 20
34.587
 30
0
 11
6952.154
 21
24.001
 31
0
 0
LINE
 8
TOOL_0
 5
A7
 10
6952.154
 20
24.001
 30
0
 11
6830.402
 21
24.001
 31
0
 0
ARC
 8
TOOL_0
 5
A8
 10
6830.436
 20
14.94
 30
0
 40
9.061063789644
 50
90.214992535102
 51
153.375569119076
210
0
220
0
230
1.0
 0
LINE
 8
TOOL_0
 5
A9
 10
6822.335
 20
19.001
 30
0
 11
4660.24
 21
19.001
 31
0
 0
LINE
 8
TOOL_0
 5
AA
 10
4660.24
 20
19.001
 30
0
 11
4660.24
 21
448.791
 31
0
 0
ARC
 8
TOOL_0
 5
AB
 10
4668.24
 20
448.791
 30
0
 40
8.0
 50
90.0
 51
180.0
210
0
220
0
230
1.0
 0
LINE
 8
TOOL_0
 5
AC
 10
4668.24
 20
456.791
 30
0
 11
4950.903
 21
456.791
 31
0
 0
ARC
 8
TOOL_0
 5
AD
 10
4950.723
 20
557.456
 30
0
 40
100.665160929688
 50
270.102450994097
 51
282.266925903661
210
0
220
0
230
1.0
 0
LINE
 8
TOOL_0
 5
AE
 10
4972.111
 20
459.089
 30
0
 11
5842.672
 21
650.001
 31
0
 0
LINE
 8
TOOL_0
 5
AF
 10
5842.672
 20
650.001
 30
0
 11
6773.004
 21
650.001
 31
0
 0
ARC
 8
TOOL_0
 5
B0
 10
6773.004
 20
549.001
 30
0
 40
101.0
 50
24.201180888537
 51
90.0
210
0
220
0
230
1.0
 0
LINE
 8
TOOL_0
 5
B1
 10
6865.127
 20
590.405
 30
0
 11
6962.74
 21
373.216
 31
0
 0
LINE
 8
TOOL_0
 5
B2
 10
6962.74
 20
373.216
 30
0
 11
6962.74
 21
264.002
 31
0
 0
LINE
 8
TOOL_0
 5
B3
 10
6962.74
 20
264.002
 30
0
 11
6941.74
 21
264.002
 31
0
 0
ARC
 8
TOOL_0
 5
B4
 10
6941.74
 20
185.002
 30
0
 40
79.0
 50
90.0
 51
270.0
210
0
220
0
230
1.0
 0
LINE
 8
TOOL_0
 5
B5
 10
6941.74
 20
106.002
 30
0
 11
6962.74
 21
106.002
 31
0
 0
LINE
 8
TOOL_0
 5
B6
 10
6962.74
 20
106.002
 30
0
 11
6967.845
 21
106.002
 31
0
 0
LINE
 8
TOOL_0
 5
B7
 10
6967.845
 20
106.002
 30
0
 11
8448.487
 21
337.502
 31
0
 0
LINE
 8
TOOL_0
 5
B8
 10
8448.487
 20
337.502
 30
0
 11
8478.616
 21
337.502
 31
0
 0
LINE
 8
TOOL_0
 5
B9
 10
8478.616
 20
337.502
 30
0
 11
8478.616
 21
450.002
 31
0
 0
ARC
 8
TOOL_0
 5
BA
 10
8443.616
 20
450.002
 30
0
 40
35.0
 50
0
 51
90.0
210
0
220
0
230
1.0
 0
LINE
 8
TOOL_0
 5
BB
 10
8443.616
 20
485.002
 30
0
 11
8288.616
 21
485.002
 31
0
 0
ARC
 8
TOOL_0
 5
BC
 10
8288.616
 20
450.002
 30
0
 40
35.0
 50
90.0
 51
180.0
210
0
220
0
230
1.0
 0
LINE
 8
TOOL_0
 5
BD
 10
8253.616
 20
450.002
 30
0
 11
8253.616
 21
225.002
 31
0
 0
ARC
 8
TOOL_0
 5
BE
 10
8288.616
 20
225.002
 30
0
 40
35.0
 50
180.0
 51
270.0
210
0
220
0
230
1.0
 0
LINE
 8
TOOL_0
 5
BF
 10
8288.616
 20
190.002
 30
0
 11
8443.616
 21
190.002
 31
0
 0
ARC
 8
TOOL_0
 5
C0
 10
8443.616
 20
225.002
 30
0
 40
35.0
 50
270.0
 51
0
210
0
220
0
230
1.0
 0
LINE
 8
TOOL_0
 5
C1
 10
8478.616
 20
225.002
 30
0
 11
8478.616
 21
337.502
 31
0
 0
LINE
 8
TOOL_0
 5
C2
 10
8478.616
 20
337.502
 30
0
 11
8475.372
 21
341.682
 31
0
 0
LINE
 8
TOOL_0
 5
C3
 10
8475.372
 20
341.682
 30
0
 11
9062.875
 21
317.502
 31
0
 0
LINE
 8
TOOL_0
 5
C4
 10
9062.875
 20
317.502
 30
0
 11
9093.616
 21
317.502
 31
0
 0
LINE
 8
TOOL_0
 5
C5
 10
9093.616
 20
317.502
 30
0
 11
9093.616
 21
450.002
 31
0
 0
ARC
 8
TOOL_0
 5
C6
 10
9058.616
 20
450.002
 30
0
 40
35.0
 50
0
 51
90.0
210
0
220
0
230
1.0
 0
LINE
 8
TOOL_0
 5
C7
 10
9058.616
 20
485.002
 30
0
 11
8903.616
 21
485.002
 31
0
 0
ARC
 8
TOOL_0
 5
C8
 10
8903.616
 20
450.002
 30
0
 40
35.0
 50
90.0
 51
180.0
210
0
220
0
230
1.0
 0
LINE
 8
TOOL_0
 5
C9
 10
8868.616
 20
450.002
 30
0
 11
8868.616
 21
185.002
 31
0
 0
ARC
 8
TOOL_0
 5
CA
 10
8903.616
 20
185.002
 30
0
 40
35.0
 50
180.0
 51
270.0
210
0
220
0
230
1.0
 0
LINE
 8
TOOL_0
 5
CB
 10
8903.616
 20
150.002
 30
0
 11
9058.616
 21
150.002
 31
0
 0
ARC
 8
TOOL_0
 5
CC
 10
9058.616
 20
185.002
 30
0
 40
35.0
 50
270.0
 51
0
210
0
220
0
230
1.0
 0
LINE
 8
TOOL_0
 5
CD
 10
9093.616
 20
185.002
 30
0
 11
9093.616
 21
317.502
 31
0
 0
LINE
 8
TOOL_0
 5
CE
 10
9093.616
 20
317.502
 30
0
 11
9090.345
 21
321.454
 31
0
 0
LINE
 8
TOOL_0
 5
CF
 10
9090.345
 20
321.454
 30
0
 11
9284.616
 21
136.839
 31
0
 0
LINE
 8
TOOL_0
 5
D0
 10
9284.616
 20
136.839
 30
0
 11
9284.616
 21
106.002
 31
0
 0
LINE
 8
TOOL_0
 5
D1
 10
9284.616
 20
106.002
 30
0
 11
9284.616
 21
34.588
 31
0
 0
LINE
 8
TOOL_0
 5
D2
 10
9284.616
 20
34.588
 30
0
 11
9274.03
 21
24.002
 31
0
 0
LINE
 8
TOOL_0
 5
D3
 10
9274.03
 20
24.002
 30
0
 11
9152.278
 21
24.002
 31
0
 0
ARC
 8
TOOL_0
 5
D4
 10
9152.312
 20
14.941
 30
0
 40
9.061063789644
 50
90.214992535102
 51
153.375569119074
210
0
220
0
230
1.0
 0
LINE
 8
TOOL_0
 5
D5
 10
9144.211
 20
19.002
 30
0
 11
6982.116
 21
19.002
 31
0
 0
LINE
 8
TOOL_0
 5
D6
 10
6982.116
 20
19.002
 30
0
 11
6982.116
 21
448.792
 31
0
 0
ARC
 8
TOOL_0
 5
D7
 10
6990.116
 20
448.792
 30
0
 40
8.0
 50
90.0
 51
180.0
210
0
220
0
230
1.0
 0
LINE
 8
TOOL_0
 5
D8
 10
6990.116
 20
456.792
 30
0
 11
7272.779
 21
456.792
 31
0
 0
ARC
 8
TOOL_0
 5
D9
 10
7272.599
 20
557.457
 30
0
 40
100.665160929688
 50
270.102450994097
 51
282.266925903661
210
0
220
0
230
1.0
 0
LINE
 8
TOOL_0
 5
DA
 10
7293.987
 20
459.09
 30
0
 11
8164.548
 21
650.002
 31
0
 0
LINE
 8
TOOL_0
 5
DB
 10
8164.548
 20
650.002
 30
0
 11
9094.88
 21
650.002
 31
0
 0
ARC
 8
TOOL_0
 5
DC
 10
9094.88
 20
549.002
 30
0
 40
101.0
 50
24.201180888537
 51
90.0
210
0
220
0
230
1.0
 0
LINE
 8
TOOL_0
 5
DD
 10
9187.003
 20
590.406
 30
0
 11
9284.616
 21
373.217
 31
0
 0
LINE
 8
TOOL_0
 5
DE
 10
9284.616
 20
373.217
 30
0
 11
9284.616
 21
264.003
 31
0
 0
LINE
 8
TOOL_0
 5
DF
 10
9284.616
 20
264.003
 30
0
 11
9263.616
 21
264.003
 31
0
 0
ARC
 8
TOOL_0
 5
E0
 10
9263.616
 20
185.003
 30
0
 40
79.0
 50
90.0
 51
270.0
210
0
220
0
230
1.0
 0
LINE
 8
TOOL_0
 5
E1
 10
9263.616
 20
106.003
 30
0
 11
9284.616
 21
106.003
 31
0
 0
LINE
 8
TOOL_0
 5
E2
 10
9284.616
 20
106.003
 30
0
 11
9289.721
 21
106.003
 31
0
 0
LINE
 8
TOOL_0
 5
E3
 10
9289.721
 20
106.003
 30
0
 11
10769.288
 21
337.503
 31
0
 0
LINE
 8
TOOL_0
 5
E4
 10
10769.288
 20
337.503
 30
0
 11
10799.417
 21
337.503
 31
0
 0
LINE
 8
TOOL_0
 5
E5
 10
10799.417
 20
337.503
 30
0
 11
10799.417
 21
450.003
 31
0
 0
ARC
 8
TOOL_0
 5
E6
 10
10764.417
 20
450.003
 30
0
 40
35.0
 50
0
 51
90.0
210
0
220
0
230
1.0
 0
LINE
 8
TOOL_0
 5
E7
 10
10764.417
 20
485.003
 30
0
 11
10609.417
 21
485.003
 31
0
 0
ARC
 8
TOOL_0
 5
E8
 10
10609.417
 20
450.003
 30
0
 40
35.0
 50
90.0
 51
180.0
210
0
220
0
230
1.0
 0
LINE
 8
TOOL_0
 5
E9
 10
10574.417
 20
450.003
 30
0
 11
10574.417
 21
225.003
 31
0
 0
ARC
 8
TOOL_0
 5
EA
 10
10609.417
 20
225.003
 30
0
 40
35.0
 50
180.0
 51
270.0
210
0
220
0
230
1.0
 0
LINE
 8
TOOL_0
 5
EB
 10
10609.417
 20
190.003
 30
0
 11
10764.417
 21
190.003
 31
0
 0
ARC
 8
TOOL_0
 5
EC
 10
10764.417
 20
225.003
 30
0
 40
35.0
 50
270.0
 51
0
210
0
220
0
230
1.0
 0
LINE
 8
TOOL_0
 5
ED
 10
10799.417
 20
225.003
 30
0
 11
10799.417
 21
337.503
 31
0
 0
LINE
 8
TOOL_0
 5
EE
 10
10799.417
 20
337.503
 30
0
 11
10796.173
 21
341.683
 31
0
 0
LINE
 8
TOOL_0
 5
EF
 10
10796.173
 20
341.683
 30
0
 11
11383.676
 21
317.503
 31
0
 0
LINE
 8
TOOL_0
 5
F0
 10
11383.676
 20
317.503
 30
0
 11
11414.417
 21
317.503
 31
0
 0
LINE
 8
TOOL_0
 5
F1
 10
11414.417
 20
317.503
 30
0
 11
11414.417
 21
450.003
 31
0
 0
ARC
 8
TOOL_0
 5
F2
 10
11379.417
 20
450.003
 30
0
 40
35.0
 50
0
 51
90.0
210
0
220
0
230
1.0
 0
LINE
 8
TOOL_0
 5
F3
 10
11379.417
 20
485.003
 30
0
 11
11224.417
 21
485.003
 31
0
 0
ARC
 8
TOOL_0
 5
F4
 10
11224.417
 20
450.003
 30
0
 40
35.0
 50
90.0
 51
180.0
210
0
220
0
230
1.0
 0
LINE
 8
TOOL_0
 5
F5
 10
11189.417
 20
450.003
 30
0
 11
11189.417
 21
185.003
 31
0
 0
ARC
 8
TOOL_0
 5
F6
 10
11224.417
 20
185.003
 30
0
 40
35.0
 50
180.0
 51
270.0
210
0
220
0
230
1.0
 0
LINE
 8
TOOL_0
 5
F7
 10
11224.417
 20
150.003
 30
0
 11
11379.417
 21
150.003
 31
0
 0
ARC
 8
TOOL_0
 5
F8
 10
11379.417
 20
185.003
 30
0
 40
35.0
 50
270.0
 51
0
210
0
220
0
230
1.0
 0
LINE
 8
TOOL_0
 5
F9
 10
11414.417
 20
185.003
 30
0
 11
11414.417
 21
317.503
 31
0
 0
LINE
 8
TOOL_0
 5
FA
 10
11414.417
 20
317.503
 30
0
 11
11411.146
 21
321.455
 31
0
 0
LINE
 8
TOOL_0
 5
FB
 10
11411.146
 20
321.455
 30
0
 11
11605.417
 21
136.84
 31
0
 0
LINE
 8
TOOL_0
 5
FC
 10
11605.417
 20
136.84
 30
0
 11
11605.417
 21
106.003
 31
0
 0
LINE
 8
TOOL_0
 5
FD
 10
11605.417
 20
106.003
 30
0
 11
11605.417
 21
34.589
 31
0
 0
LINE
 8
TOOL_0
 5
FE
 10
11605.417
 20
34.589
 30
0
 11
11594.831
 21
24.003
 31
0
 0
LINE
 8
TOOL_0
 5
FF
 10
11594.831
 20
24.003
 30
0
 11
11473.079
 21
24.003
 31
0
 0
ARC
 8
TOOL_0
 5
100
 10
11473.113
 20
14.942
 30
0
 40
9.061063789644
 50
90.214992535102
 51
153.375569119074
210
0
220
0
230
1.0
 0
LINE
 8
TOOL_0
 5
101
 10
11465.012
 20
19.003
 30
0
 11
9302.917
 21
19.003
 31
0
 0
LINE
 8
TOOL_0
 5
102
 10
9302.917
 20
19.003
 30
0
 11
9302.917
 21
448.793
 31
0
 0
ARC
 8
TOOL_0
 5
103
 10
9310.917
 20
448.793
 30
0
 40
8.0
 50
90.0
 51
180.0
210
0
220
0
230
1.0
 0
LINE
 8
TOOL_0
 5
104
 10
9310.917
 20
456.793
 30
0
 11
9593.58
 21
456.793
 31
0
 0
ARC
 8
TOOL_0
 5
105
 10
9593.4
 20
557.458
 30
0
 40
100.665160929688
 50
270.102450994097
 51
282.266925903661
210
0
220
0
230
1.0
 0
LINE
 8
TOOL_0
 5
106
 10
9614.788
 20
459.091
 30
0
 11
10485.349
 21
650.003
 31
0
 0
LINE
 8
TOOL_0
 5
107
 10
10485.349
 20
650.003
 30
0
 11
11415.681
 21
650.003
 31
0
 0
ARC
 8
TOOL_0
 5
108
 10
11415.681
 20
549.003
 30
0
 40
101.0
 50
24.201180888537
 51
90.0
210
0
220
0
230
1.0
 0
LINE
 8
TOOL_0
 5
109
 10
11507.804
 20
590.407
 30
0
 11
11605.417
 21
373.218
 31
0
 0
LINE
 8
TOOL_0
 5
10A
 10
11605.417
 20
373.218
 30
0
 11
11605.417
 21
264.004
 31
0
 0
LINE
 8
TOOL_0
 5
10B
 10
11605.417
 20
264.004
 30
0
 11
11584.417
 21
264.004
 31
0
 0
ARC
 8
TOOL_0
 5
10C
 10
11584.417
 20
185.004
 30
0
 40
79.0
 50
90.0
 51
270.0
210
0
220
0
230
1.0
 0
LINE
 8
TOOL_0
 5
10D
 10
11584.417
 20
106.004
 30
0
 11
11605.417
 21
106.004
 31
0
 0
LINE
 8
TOOL_0
 5
10E
 10
11605.417
 20
106.004
 30
0
 11
11610.522
 21
106.004
 31
0
 0
LINE
 8
TOOL_0
 5
10F
 10
11610.522
 20
106.004
 30
0
 11
11610.522
 21
0.003
 31
0
 0
LINE
 8
TOOL_0
 5
110
 10
11610.522
 20
0.003
 30
0
 11
3805.457
 21
1637.913
 31
0
 0
LINE
 8
TOOL_0
 5
111
 10
3805.457
 20
1637.913
 30
0
 11
3835.586
 21
1637.913
 31
0
 0
LINE
 8
TOOL_0
 5
112
 10
3835.586
 20
1637.913
 30
0
 11
3835.586
 21
1750.413
 31
0
 0
ARC
 8
TOOL_0
 5
113
 10
3800.586
 20
1750.413
 30
0
 40
35.0
 50
0
 51
90.0
210
0
220
0
230
1.0
 0
LINE
 8
TOOL_0
 5
114
 10
3800.586
 20
1785.413
 30
0
 11
3645.586
 21
1785.413
 31
0
 0
ARC
 8
TOOL_0
 5
115
 10
3645.586
 20
1750.413
 30
0
 40
35.0
 50
90.0
 51
180.0
210
0
220
0
230
1.0
 0
LINE
 8
TOOL_0
 5
116
 10
3610.586
 20
1750.413
 30
0
 11
3610.586
 21
1525.413
 31
0
 0
ARC
 8
TOOL_0
 5
117
 10
3645.586
 20
1525.413
 30
0
 40
35.0
 50
180.0
 51
270.0
210
0
220
0
230
1.0
 0
LINE
 8
TOOL_0
 5
118
 10
3645.586
 20
1490.413
 30
0
 11
3800.586
 21
1490.413
 31
0
 0
ARC
 8
TOOL_0
 5
119
 10
3800.586
 20
1525.413
 30
0
 40
35.0
 50
270.0
 51
0
210
0
220
0
230
1.0
 0
LINE
 8
TOOL_0
 5
11A
 10
3835.586
 20
1525.413
 30
0
 11
3835.586
 21
1637.913
 31
0
 0
LINE
 8
TOOL_0
 5
11B
 10
3835.586
 20
1637.913
 30
0
 11
3832.342
 21
1642.093
 31
0
 0
LINE
 8
TOOL_0
 5
11C
 10
3832.342
 20
1642.093
 30
0
 11
4419.845
 21
1617.912
 31
0
 0
LINE
 8
TOOL_0
 5
11D
 10
4419.845
 20
1617.912
 30
0
 11
4450.586
 21
1617.912
 31
0
 0
LINE
 8
TOOL_0
 5
11E
 10
4450.586
 20
1617.912
 30
0
 11
4450.586
 21
1750.412
 31
0
 0
ARC
 8
TOOL_0
 5
11F
 10
4415.586
 20
1750.412
 30
0
 40
35.0
 50
0
 51
90.0
210
0
220
0
230
1.0
 0
LINE
 8
TOOL_0
 5
120
 10
4415.586
 20
1785.412
 30
0
 11
4260.586
 21
1785.412
 31
0
 0
ARC
 8
TOOL_0
 5
121
 10
4260.586
 20
1750.412
 30
0
 40
35.0
 50
90.0
 51
180.0
210
0
220
0
230
1.0
 0
LINE
 8
TOOL_0
 5
122
 10
4225.586
 20
1750.412
 30
0
 11
4225.586
 21
1485.412
 31
0
 0
ARC
 8
TOOL_0
 5
123
 10
4260.586
 20
1485.412
 30
0
 40
35.0
 50
180.0
 51
270.0
210
0
220
0
230
1.0
 0
LINE
 8
TOOL_0
 5
124
 10
4260.586
 20
1450.412
 30
0
 11
4415.586
 21
1450.412
 31
0
 0
ARC
 8
TOOL_0
 5
125
 10
4415.586
 20
1485.412
 30
0
 40
35.0
 50
270.0
 51
0
210
0
220
0
230
1.0
 0
LINE
 8
TOOL_0
 5
126
 10
4450.586
 20
1485.412
 30
0
 11
4450.586
 21
1617.912
 31
0
 0
LINE
 8
TOOL_0
 5
127
 10
4450.586
 20
1617.912
 30
0
 11
4447.315
 21
1621.864
 31
0
 0
LINE
 8
TOOL_0
 5
128
 10
4447.315
 20
1621.864
 30
0
 11
4641.586
 21
1437.249
 31
0
 0
LINE
 8
TOOL_0
 5
129
 10
4641.586
 20
1437.249
 30
0
 11
4641.586
 21
1406.412
 31
0
 0
LINE
 8
TOOL_0
 5
12A
 10
4641.586
 20
1406.412
 30
0
 11
4641.586
 21
1334.998
 31
0
 0
LINE
 8
TOOL_0
 5
12B
 10
4641.586
 20
1334.998
 30
0
 11
4631.0
 21
1324.412
 31
0
 0
LINE
 8
TOOL_0
 5
12C
 10
4631.0
 20
1324.412
 30
0
 11
4509.248
 21
1324.412
 31
0
 0
ARC
 8
TOOL_0
 5
12D
 10
4509.282
 20
1315.351
 30
0
 40
9.061063789644
 50
90.214992535102
 51
153.375569119077
210
0
220
0
230
1.0
 0
LINE
 8
TOOL_0
 5
12E
 10
4501.181
 20
1319.412
 30
0
 11
2339.086
 21
1319.412
 31
0
 0
LINE
 8
TOOL_0
 5
12F
 10
2339.086
 20
1319.412
 30
0
 11
2339.086
 21
1749.202
 31
0
 0
ARC
 8
TOOL_0
 5
130
 10
2347.086
 20
1749.202
 30
0
 40
8.0
 50
90.0
 51
180.0
210
0
220
0
230
1.0
 0
LINE
 8
TOOL_0
 5
131
 10
2347.086
 20
1757.202
 30
0
 11
2629.749
 21
1757.202
 31
0
 0
ARC
 8
TOOL_0
 5
132
 10
2629.569
 20
1857.867
 30
0
 40
100.665160929688
 50
270.102450994097
 51
282.266925903661
210
0
220
0
230
1.0
 0
LINE
 8
TOOL_0
 5
133
 10
2650.957
 20
1759.5
 30
0
 11
3521.518
 21
1950.412
 31
0
 0
LINE
 8
TOOL_0
 5
134
 10
3521.518
 20
1950.412
 30
0
 11
4451.85
 21
1950.412
 31
0
 0
ARC
 8
TOOL_0
 5
135
 10
4451.85
 20
1849.412
 30
0
 40
101.0
 50
24.201180888537
 51
90.0
210
0
220
0
230
1.0
 0
LINE
 8
TOOL_0
 5
136
 10
4543.973
 20
1890.816
 30
0
 11
4641.586
 21
1673.627
 31
0
 0
LINE
 8
TOOL_0
 5
137
 10
4641.586
 20
1673.627
 30
0
 11
4641.586
 21
1564.413
 31
0
 0
LINE
 8
TOOL_0
 5
138
 10
4641.586
 20
1564.413
 30
0
 11
4620.586
 21
1564.413
 31
0
 0
ARC
 8
TOOL_0
 5
139
 10
4620.586
 20
1485.413
 30
0
 40
79.0
 50
90.0
 51
270.0
210
0
220
0
230
1.0
 0
LINE
 8
TOOL_0
 5
13A
 10
4620.586
 20
1406.413
 30
0
 11
4641.586
 21
1406.413
 31
0
 0
LINE
 8
TOOL_0
 5
13B
 10
4641.586
 20
1406.413
 30
0
 11
4646.691
 21
1406.413
 31
0
 0
LINE
 8
TOOL_0
 5
13C
 10
4646.691
 20
1406.413
 30
0
 11
11651.449
 21
0.003
 31
0
 0
LINE
 8
TOOL_0
 5
13D
 10
11651.449
 20
0.003
 30
0
 11
11651.449
 21
1.003
 31
0
 0
LINE
 8
TOOL_0
 5
13E
 10
11651.449
 20
1.003
 30
0
 11
11651.449
 21
0.003
 31
0
 0
LINE
 8
TOOL_0
 5
13F
 10
11651.449
 20
0.003
 30
0
 11
11651.449
 21
1.003
 31
0
 0
LINE
 8
TOOL_0
 5
140
 10
11651.449
 20
1.003
 30
0
 11
11651.449
 21
2349.003
 31
0
 0
LINE
 8
TOOL_0
 5
141
 10
11651.449
 20
2349.003
 30
0
 11
11651.449
 21
2350.003
 31
0
 0
ENDSEC
 0
EOF

