0
SECTION
2
TABLES
0
TABLE
2
LAYER
70
0
0
LAYER
2
LAYER_NAME
70
0
62
1
6
CONTINUOUS
0
ENDTAB
0
ENDSEC
 0
SECTION
 2
ENTITIES
 0
LINE
 8
TOOL_0
 5
1
 10
474.0
 20
258.001
 30
0
 11
504.0
 21
258.001
 31
0
 0
LINE
 8
TOOL_0
 5
2
 10
504.0
 20
258.001
 30
0
 11
504.0
 21
330.501
 31
0
 0
ARC
 8
TOOL_0
 5
3
 10
494.0
 20
330.501
 30
0
 40
10.0
 50
0
 51
90.0
210
0
220
0
230
1.0
 0
LINE
 8
TOOL_0
 5
4
 10
494.0
 20
340.501
 30
0
 11
464.0
 21
340.501
 31
0
 0
ARC
 8
TOOL_0
 5
5
 10
464.0
 20
330.501
 30
0
 40
10.0
 50
90.0
 51
180.0
210
0
220
0
230
1.0
 0
LINE
 8
TOOL_0
 5
6
 10
454.0
 20
330.501
 30
0
 11
454.0
 21
185.501
 31
0
 0
ARC
 8
TOOL_0
 5
7
 10
464.0
 20
185.501
 30
0
 40
10.0
 50
180.0
 51
270.0
210
0
220
0
230
1.0
 0
LINE
 8
TOOL_0
 5
8
 10
464.0
 20
175.501
 30
0
 11
494.0
 21
175.501
 31
0
 0
ARC
 8
TOOL_0
 5
9
 10
494.0
 20
185.501
 30
0
 40
10.0
 50
270.0
 51
0
210
0
220
0
230
1.0
 0
LINE
 8
TOOL_0
 5
A
 10
504.0
 20
185.501
 30
0
 11
504.0
 21
258.001
 31
0
 0
LINE
 8
TOOL_0
 5
B
 10
504.0
 20
258.001
 30
0
 11
500.464
 21
261.537
 31
0
 0
LINE
 8
TOOL_0
 5
C
 10
500.464
 20
261.537
 30
0
 11
380.0
 21
466.501
 31
0
 0
LINE
 8
TOOL_0
 5
D
 10
380.0
 20
466.501
 30
0
 11
410.0
 21
466.501
 31
0
 0
LINE
 8
TOOL_0
 5
E
 10
410.0
 20
466.501
 30
0
 11
410.0
 21
481.501
 31
0
 0
ARC
 8
TOOL_0
 5
F
 10
400.0
 20
481.501
 30
0
 40
10.0
 50
0
 51
90.0
210
0
220
0
230
1.0
 0
LINE
 8
TOOL_0
 5
10
 10
400.0
 20
491.501
 30
0
 11
270.0
 21
491.501
 31
0
 0
ARC
 8
TOOL_0
 5
11
 10
270.0
 20
481.501
 30
0
 40
10.0
 50
90.0
 51
180.0
210
0
220
0
230
1.0
 0
LINE
 8
TOOL_0
 5
12
 10
260.0
 20
481.501
 30
0
 11
260.0
 21
451.501
 31
0
 0
ARC
 8
TOOL_0
 5
13
 10
270.0
 20
451.501
 30
0
 40
10.0
 50
180.0
 51
270.0
210
0
220
0
230
1.0
 0
LINE
 8
TOOL_0
 5
14
 10
270.0
 20
441.501
 30
0
 11
400.0
 21
441.501
 31
0
 0
ARC
 8
TOOL_0
 5
15
 10
400.0
 20
451.501
 30
0
 40
10.0
 50
270.0
 51
0
210
0
220
0
230
1.0
 0
LINE
 8
TOOL_0
 5
16
 10
410.0
 20
451.501
 30
0
 11
410.0
 21
466.501
 31
0
 0
LINE
 8
TOOL_0
 5
17
 10
410.0
 20
466.501
 30
0
 11
406.464
 21
470.037
 31
0
 0
LINE
 8
TOOL_0
 5
18
 10
406.464
 20
470.037
 30
0
 11
370.0
 21
403.501
 31
0
 0
LINE
 8
TOOL_0
 5
19
 10
370.0
 20
403.501
 30
0
 11
400.0
 21
403.501
 31
0
 0
LINE
 8
TOOL_0
 5
1A
 10
400.0
 20
403.501
 30
0
 11
400.0
 21
418.501
 31
0
 0
ARC
 8
TOOL_0
 5
1B
 10
390.0
 20
418.501
 30
0
 40
10.0
 50
0
 51
90.0
210
0
220
0
230
1.0
 0
LINE
 8
TOOL_0
 5
1C
 10
390.0
 20
428.501
 30
0
 11
280.0
 21
428.501
 31
0
 0
ARC
 8
TOOL_0
 5
1D
 10
280.0
 20
418.501
 30
0
 40
10.0
 50
90.0
 51
180.0
210
0
220
0
230
1.0
 0
LINE
 8
TOOL_0
 5
1E
 10
270.0
 20
418.501
 30
0
 11
270.0
 21
388.501
 31
0
 0
ARC
 8
TOOL_0
 5
1F
 10
280.0
 20
388.501
 30
0
 40
10.0
 50
180.0
 51
270.0
210
0
220
0
230
1.0
 0
LINE
 8
TOOL_0
 5
20
 10
280.0
 20
378.501
 30
0
 11
390.0
 21
378.501
 31
0
 0
ARC
 8
TOOL_0
 5
21
 10
390.0
 20
388.501
 30
0
 40
10.0
 50
270.0
 51
0
210
0
220
0
230
1.0
 0
LINE
 8
TOOL_0
 5
22
 10
400.0
 20
388.501
 30
0
 11
400.0
 21
403.501
 31
0
 0
LINE
 8
TOOL_0
 5
23
 10
400.0
 20
403.501
 30
0
 11
396.464
 21
407.037
 31
0
 0
LINE
 8
TOOL_0
 5
24
 10
396.464
 20
407.037
 30
0
 11
166.0
 21
358.501
 31
0
 0
LINE
 8
TOOL_0
 5
25
 10
166.0
 20
358.501
 30
0
 11
196.0
 21
358.501
 31
0
 0
LINE
 8
TOOL_0
 5
26
 10
196.0
 20
358.501
 30
0
 11
196.0
 21
453.501
 31
0
 0
ARC
 8
TOOL_0
 5
27
 10
186.0
 20
453.501
 30
0
 40
10.0
 50
0
 51
90.0
210
0
220
0
230
1.0
 0
LINE
 8
TOOL_0
 5
28
 10
186.0
 20
463.501
 30
0
 11
136.0
 21
463.501
 31
0
 0
ARC
 8
TOOL_0
 5
29
 10
136.0
 20
453.501
 30
0
 40
10.0
 50
90.0
 51
180.0
210
0
220
0
230
1.0
 0
LINE
 8
TOOL_0
 5
2A
 10
126.0
 20
453.501
 30
0
 11
126.0
 21
263.501
 31
0
 0
ARC
 8
TOOL_0
 5
2B
 10
136.0
 20
263.501
 30
0
 40
10.0
 50
180.0
 51
270.0
210
0
220
0
230
1.0
 0
LINE
 8
TOOL_0
 5
2C
 10
136.0
 20
253.501
 30
0
 11
186.0
 21
253.501
 31
0
 0
ARC
 8
TOOL_0
 5
2D
 10
186.0
 20
263.501
 30
0
 40
10.0
 50
270.0
 51
0
210
0
220
0
230
1.0
 0
LINE
 8
TOOL_0
 5
2E
 10
196.0
 20
263.501
 30
0
 11
196.0
 21
358.501
 31
0
 0
LINE
 8
TOOL_0
 5
2F
 10
196.0
 20
358.501
 30
0
 11
192.464
 21
362.037
 31
0
 0
LINE
 8
TOOL_0
 5
30
 10
192.464
 20
362.037
 30
0
 11
166.0
 21
148.501
 31
0
 0
LINE
 8
TOOL_0
 5
31
 10
166.0
 20
148.501
 30
0
 11
196.0
 21
148.501
 31
0
 0
LINE
 8
TOOL_0
 5
32
 10
196.0
 20
148.501
 30
0
 11
196.0
 21
183.501
 31
0
 0
ARC
 8
TOOL_0
 5
33
 10
186.0
 20
183.501
 30
0
 40
10.0
 50
0
 51
90.0
210
0
220
0
230
1.0
 0
LINE
 8
TOOL_0
 5
34
 10
186.0
 20
193.501
 30
0
 11
136.0
 21
193.501
 31
0
 0
ARC
 8
TOOL_0
 5
35
 10
136.0
 20
183.501
 30
0
 40
10.0
 50
90.0
 51
180.0
210
0
220
0
230
1.0
 0
LINE
 8
TOOL_0
 5
36
 10
126.0
 20
183.501
 30
0
 11
126.0
 21
113.501
 31
0
 0
ARC
 8
TOOL_0
 5
37
 10
136.0
 20
113.501
 30
0
 40
10.0
 50
180.0
 51
270.0
210
0
220
0
230
1.0
 0
LINE
 8
TOOL_0
 5
38
 10
136.0
 20
103.501
 30
0
 11
186.0
 21
103.501
 31
0
 0
ARC
 8
TOOL_0
 5
39
 10
186.0
 20
113.501
 30
0
 40
10.0
 50
270.0
 51
0
210
0
220
0
230
1.0
 0
LINE
 8
TOOL_0
 5
3A
 10
196.0
 20
113.501
 30
0
 11
196.0
 21
148.501
 31
0
 0
LINE
 8
TOOL_0
 5
3B
 10
196.0
 20
148.501
 30
0
 11
192.464
 21
152.037
 31
0
 0
LINE
 8
TOOL_0
 5
3C
 10
192.464
 20
152.037
 30
0
 11
270.0
 21
207.001
 31
0
 0
LINE
 8
TOOL_0
 5
3D
 10
270.0
 20
207.001
 30
0
 11
300.0
 21
207.001
 31
0
 0
LINE
 8
TOOL_0
 5
3E
 10
300.0
 20
207.001
 30
0
 11
300.0
 21
330.501
 31
0
 0
ARC
 8
TOOL_0
 5
3F
 10
290.0
 20
330.501
 30
0
 40
10.0
 50
0
 51
90.0
210
0
220
0
230
1.0
 0
LINE
 8
TOOL_0
 5
40
 10
290.0
 20
340.501
 30
0
 11
260.0
 21
340.501
 31
0
 0
ARC
 8
TOOL_0
 5
41
 10
260.0
 20
330.501
 30
0
 40
10.0
 50
90.0
 51
180.0
210
0
220
0
230
1.0
 0
LINE
 8
TOOL_0
 5
42
 10
250.0
 20
330.501
 30
0
 11
250.0
 21
83.501
 31
0
 0
ARC
 8
TOOL_0
 5
43
 10
260.0
 20
83.501
 30
0
 40
10.0
 50
180.0
 51
270.0
210
0
220
0
230
1.0
 0
LINE
 8
TOOL_0
 5
44
 10
260.0
 20
73.501
 30
0
 11
290.0
 21
73.501
 31
0
 0
ARC
 8
TOOL_0
 5
45
 10
290.0
 20
83.501
 30
0
 40
10.0
 50
270.0
 51
0
210
0
220
0
230
1.0
 0
LINE
 8
TOOL_0
 5
46
 10
300.0
 20
83.501
 30
0
 11
300.0
 21
207.001
 31
0
 0
LINE
 8
TOOL_0
 5
47
 10
300.0
 20
207.001
 30
0
 11
296.464
 21
210.537
 31
0
 0
LINE
 8
TOOL_0
 5
48
 10
296.464
 20
210.537
 30
0
 11
372.0
 21
207.001
 31
0
 0
LINE
 8
TOOL_0
 5
49
 10
372.0
 20
207.001
 30
0
 11
402.0
 21
207.001
 31
0
 0
LINE
 8
TOOL_0
 5
4A
 10
402.0
 20
207.001
 30
0
 11
402.0
 21
330.501
 31
0
 0
ARC
 8
TOOL_0
 5
4B
 10
392.0
 20
330.501
 30
0
 40
10.0
 50
0
 51
90.0
210
0
220
0
230
1.0
 0
LINE
 8
TOOL_0
 5
4C
 10
392.0
 20
340.501
 30
0
 11
362.0
 21
340.501
 31
0
 0
ARC
 8
TOOL_0
 5
4D
 10
362.0
 20
330.501
 30
0
 40
10.0
 50
90.0
 51
180.0
210
0
220
0
230
1.0
 0
LINE
 8
TOOL_0
 5
4E
 10
352.0
 20
330.501
 30
0
 11
352.0
 21
83.501
 31
0
 0
ARC
 8
TOOL_0
 5
4F
 10
362.0
 20
83.501
 30
0
 40
10.0
 50
180.0
 51
270.0
210
0
220
0
230
1.0
 0
LINE
 8
TOOL_0
 5
50
 10
362.0
 20
73.501
 30
0
 11
392.0
 21
73.501
 31
0
 0
ARC
 8
TOOL_0
 5
51
 10
392.0
 20
83.501
 30
0
 40
10.0
 50
270.0
 51
0
210
0
220
0
230
1.0
 0
LINE
 8
TOOL_0
 5
52
 10
402.0
 20
83.501
 30
0
 11
402.0
 21
207.001
 31
0
 0
LINE
 8
TOOL_0
 5
53
 10
402.0
 20
207.001
 30
0
 11
398.464
 21
210.537
 31
0
 0
LINE
 8
TOOL_0
 5
54
 10
398.464
 20
210.537
 30
0
 11
551.592
 21
43.382
 31
0
 0
LINE
 8
TOOL_0
 5
55
 10
551.592
 20
43.382
 30
0
 11
551.592
 21
19.518
 31
0
 0
LINE
 8
TOOL_0
 5
56
 10
551.592
 20
19.518
 30
0
 11
542.0
 21
20.001
 31
0
 0
LINE
 8
TOOL_0
 5
57
 10
542.0
 20
20.001
 30
0
 11
20.0
 21
20.001
 31
0
 0
LINE
 8
TOOL_0
 5
58
 10
20.0
 20
20.001
 30
0
 11
20.0
 21
522.001
 31
0
 0
LINE
 8
TOOL_0
 5
59
 10
20.0
 20
522.001
 30
0
 11
542.0
 21
522.001
 31
0
 0
LINE
 8
TOOL_0
 5
5A
 10
542.0
 20
522.001
 30
0
 11
542.0
 21
20.001
 31
0
 0
LINE
 8
TOOL_0
 5
5B
 10
542.0
 20
20.001
 30
0
 11
542.0
 21
15.199
 31
0
 0
LINE
 8
TOOL_0
 5
5C
 10
542.0
 20
15.199
 30
0
 11
1016.39
 21
258.001
 31
0
 0
LINE
 8
TOOL_0
 5
5D
 10
1016.39
 20
258.001
 30
0
 11
1046.39
 21
258.001
 31
0
 0
LINE
 8
TOOL_0
 5
5E
 10
1046.39
 20
258.001
 30
0
 11
1046.39
 21
330.501
 31
0
 0
ARC
 8
TOOL_0
 5
5F
 10
1036.39
 20
330.501
 30
0
 40
10.0
 50
0
 51
90.0
210
0
220
0
230
1.0
 0
LINE
 8
TOOL_0
 5
60
 10
1036.39
 20
340.501
 30
0
 11
1006.39
 21
340.501
 31
0
 0
ARC
 8
TOOL_0
 5
61
 10
1006.39
 20
330.501
 30
0
 40
10.0
 50
90.0
 51
180.0
210
0
220
0
230
1.0
 0
LINE
 8
TOOL_0
 5
62
 10
996.39
 20
330.501
 30
0
 11
996.39
 21
185.501
 31
0
 0
ARC
 8
TOOL_0
 5
63
 10
1006.39
 20
185.501
 30
0
 40
10.0
 50
180.0
 51
270.0
210
0
220
0
230
1.0
 0
LINE
 8
TOOL_0
 5
64
 10
1006.39
 20
175.501
 30
0
 11
1036.39
 21
175.501
 31
0
 0
ARC
 8
TOOL_0
 5
65
 10
1036.39
 20
185.501
 30
0
 40
10.0
 50
270.0
 51
0
210
0
220
0
230
1.0
 0
LINE
 8
TOOL_0
 5
66
 10
1046.39
 20
185.501
 30
0
 11
1046.39
 21
258.001
 31
0
 0
LINE
 8
TOOL_0
 5
67
 10
1046.39
 20
258.001
 30
0
 11
1042.854
 21
261.537
 31
0
 0
LINE
 8
TOOL_0
 5
68
 10
1042.854
 20
261.537
 30
0
 11
922.39
 21
466.501
 31
0
 0
LINE
 8
TOOL_0
 5
69
 10
922.39
 20
466.501
 30
0
 11
952.39
 21
466.501
 31
0
 0
LINE
 8
TOOL_0
 5
6A
 10
952.39
 20
466.501
 30
0
 11
952.39
 21
481.501
 31
0
 0
ARC
 8
TOOL_0
 5
6B
 10
942.39
 20
481.501
 30
0
 40
10.0
 50
0
 51
90.0
210
0
220
0
230
1.0
 0
LINE
 8
TOOL_0
 5
6C
 10
942.39
 20
491.501
 30
0
 11
812.39
 21
491.501
 31
0
 0
ARC
 8
TOOL_0
 5
6D
 10
812.39
 20
481.501
 30
0
 40
10.0
 50
90.0
 51
180.0
210
0
220
0
230
1.0
 0
LINE
 8
TOOL_0
 5
6E
 10
802.39
 20
481.501
 30
0
 11
802.39
 21
451.501
 31
0
 0
ARC
 8
TOOL_0
 5
6F
 10
812.39
 20
451.501
 30
0
 40
10.0
 50
180.0
 51
270.0
210
0
220
0
230
1.0
 0
LINE
 8
TOOL_0
 5
70
 10
812.39
 20
441.501
 30
0
 11
942.39
 21
441.501
 31
0
 0
ARC
 8
TOOL_0
 5
71
 10
942.39
 20
451.501
 30
0
 40
10.0
 50
270.0
 51
0
210
0
220
0
230
1.0
 0
LINE
 8
TOOL_0
 5
72
 10
952.39
 20
451.501
 30
0
 11
952.39
 21
466.501
 31
0
 0
LINE
 8
TOOL_0
 5
73
 10
952.39
 20
466.501
 30
0
 11
948.854
 21
470.037
 31
0
 0
LINE
 8
TOOL_0
 5
74
 10
948.854
 20
470.037
 30
0
 11
912.39
 21
403.501
 31
0
 0
LINE
 8
TOOL_0
 5
75
 10
912.39
 20
403.501
 30
0
 11
942.39
 21
403.501
 31
0
 0
LINE
 8
TOOL_0
 5
76
 10
942.39
 20
403.501
 30
0
 11
942.39
 21
418.501
 31
0
 0
ARC
 8
TOOL_0
 5
77
 10
932.39
 20
418.501
 30
0
 40
10.0
 50
0
 51
90.0
210
0
220
0
230
1.0
 0
LINE
 8
TOOL_0
 5
78
 10
932.39
 20
428.501
 30
0
 11
822.39
 21
428.501
 31
0
 0
ARC
 8
TOOL_0
 5
79
 10
822.39
 20
418.501
 30
0
 40
10.0
 50
90.0
 51
180.0
210
0
220
0
230
1.0
 0
LINE
 8
TOOL_0
 5
7A
 10
812.39
 20
418.501
 30
0
 11
812.39
 21
388.501
 31
0
 0
ARC
 8
TOOL_0
 5
7B
 10
822.39
 20
388.501
 30
0
 40
10.0
 50
180.0
 51
270.0
210
0
220
0
230
1.0
 0
LINE
 8
TOOL_0
 5
7C
 10
822.39
 20
378.501
 30
0
 11
932.39
 21
378.501
 31
0
 0
ARC
 8
TOOL_0
 5
7D
 10
932.39
 20
388.501
 30
0
 40
10.0
 50
270.0
 51
0
210
0
220
0
230
1.0
 0
LINE
 8
TOOL_0
 5
7E
 10
942.39
 20
388.501
 30
0
 11
942.39
 21
403.501
 31
0
 0
LINE
 8
TOOL_0
 5
7F
 10
942.39
 20
403.501
 30
0
 11
938.854
 21
407.037
 31
0
 0
LINE
 8
TOOL_0
 5
80
 10
938.854
 20
407.037
 30
0
 11
708.39
 21
358.501
 31
0
 0
LINE
 8
TOOL_0
 5
81
 10
708.39
 20
358.501
 30
0
 11
738.39
 21
358.501
 31
0
 0
LINE
 8
TOOL_0
 5
82
 10
738.39
 20
358.501
 30
0
 11
738.39
 21
453.501
 31
0
 0
ARC
 8
TOOL_0
 5
83
 10
728.39
 20
453.501
 30
0
 40
10.0
 50
0
 51
90.0
210
0
220
0
230
1.0
 0
LINE
 8
TOOL_0
 5
84
 10
728.39
 20
463.501
 30
0
 11
678.39
 21
463.501
 31
0
 0
ARC
 8
TOOL_0
 5
85
 10
678.39
 20
453.501
 30
0
 40
10.0
 50
90.0
 51
180.0
210
0
220
0
230
1.0
 0
LINE
 8
TOOL_0
 5
86
 10
668.39
 20
453.501
 30
0
 11
668.39
 21
263.501
 31
0
 0
ARC
 8
TOOL_0
 5
87
 10
678.39
 20
263.501
 30
0
 40
10.0
 50
180.0
 51
270.0
210
0
220
0
230
1.0
 0
LINE
 8
TOOL_0
 5
88
 10
678.39
 20
253.501
 30
0
 11
728.39
 21
253.501
 31
0
 0
ARC
 8
TOOL_0
 5
89
 10
728.39
 20
263.501
 30
0
 40
10.0
 50
270.0
 51
0
210
0
220
0
230
1.0
 0
LINE
 8
TOOL_0
 5
8A
 10
738.39
 20
263.501
 30
0
 11
738.39
 21
358.501
 31
0
 0
LINE
 8
TOOL_0
 5
8B
 10
738.39
 20
358.501
 30
0
 11
734.854
 21
362.037
 31
0
 0
LINE
 8
TOOL_0
 5
8C
 10
734.854
 20
362.037
 30
0
 11
708.39
 21
148.501
 31
0
 0
LINE
 8
TOOL_0
 5
8D
 10
708.39
 20
148.501
 30
0
 11
738.39
 21
148.501
 31
0
 0
LINE
 8
TOOL_0
 5
8E
 10
738.39
 20
148.501
 30
0
 11
738.39
 21
183.501
 31
0
 0
ARC
 8
TOOL_0
 5
8F
 10
728.39
 20
183.501
 30
0
 40
10.0
 50
0
 51
90.0
210
0
220
0
230
1.0
 0
LINE
 8
TOOL_0
 5
90
 10
728.39
 20
193.501
 30
0
 11
678.39
 21
193.501
 31
0
 0
ARC
 8
TOOL_0
 5
91
 10
678.39
 20
183.501
 30
0
 40
10.0
 50
90.0
 51
180.0
210
0
220
0
230
1.0
 0
LINE
 8
TOOL_0
 5
92
 10
668.39
 20
183.501
 30
0
 11
668.39
 21
113.501
 31
0
 0
ARC
 8
TOOL_0
 5
93
 10
678.39
 20
113.501
 30
0
 40
10.0
 50
180.0
 51
270.0
210
0
220
0
230
1.0
 0
LINE
 8
TOOL_0
 5
94
 10
678.39
 20
103.501
 30
0
 11
728.39
 21
103.501
 31
0
 0
ARC
 8
TOOL_0
 5
95
 10
728.39
 20
113.501
 30
0
 40
10.0
 50
270.0
 51
0
210
0
220
0
230
1.0
 0
LINE
 8
TOOL_0
 5
96
 10
738.39
 20
113.501
 30
0
 11
738.39
 21
148.501
 31
0
 0
LINE
 8
TOOL_0
 5
97
 10
738.39
 20
148.501
 30
0
 11
734.854
 21
152.037
 31
0
 0
LINE
 8
TOOL_0
 5
98
 10
734.854
 20
152.037
 30
0
 11
812.39
 21
207.001
 31
0
 0
LINE
 8
TOOL_0
 5
99
 10
812.39
 20
207.001
 30
0
 11
842.39
 21
207.001
 31
0
 0
LINE
 8
TOOL_0
 5
9A
 10
842.39
 20
207.001
 30
0
 11
842.39
 21
330.501
 31
0
 0
ARC
 8
TOOL_0
 5
9B
 10
832.39
 20
330.501
 30
0
 40
10.0
 50
0
 51
90.0
210
0
220
0
230
1.0
 0
LINE
 8
TOOL_0
 5
9C
 10
832.39
 20
340.501
 30
0
 11
802.39
 21
340.501
 31
0
 0
ARC
 8
TOOL_0
 5
9D
 10
802.39
 20
330.501
 30
0
 40
10.0
 50
90.0
 51
180.0
210
0
220
0
230
1.0
 0
LINE
 8
TOOL_0
 5
9E
 10
792.39
 20
330.501
 30
0
 11
792.39
 21
83.501
 31
0
 0
ARC
 8
TOOL_0
 5
9F
 10
802.39
 20
83.501
 30
0
 40
10.0
 50
180.0
 51
270.0
210
0
220
0
230
1.0
 0
LINE
 8
TOOL_0
 5
A0
 10
802.39
 20
73.501
 30
0
 11
832.39
 21
73.501
 31
0
 0
ARC
 8
TOOL_0
 5
A1
 10
832.39
 20
83.501
 30
0
 40
10.0
 50
270.0
 51
0
210
0
220
0
230
1.0
 0
LINE
 8
TOOL_0
 5
A2
 10
842.39
 20
83.501
 30
0
 11
842.39
 21
207.001
 31
0
 0
LINE
 8
TOOL_0
 5
A3
 10
842.39
 20
207.001
 30
0
 11
838.854
 21
210.537
 31
0
 0
LINE
 8
TOOL_0
 5
A4
 10
838.854
 20
210.537
 30
0
 11
914.39
 21
207.001
 31
0
 0
LINE
 8
TOOL_0
 5
A5
 10
914.39
 20
207.001
 30
0
 11
944.39
 21
207.001
 31
0
 0
LINE
 8
TOOL_0
 5
A6
 10
944.39
 20
207.001
 30
0
 11
944.39
 21
330.501
 31
0
 0
ARC
 8
TOOL_0
 5
A7
 10
934.39
 20
330.501
 30
0
 40
10.0
 50
0
 51
90.0
210
0
220
0
230
1.0
 0
LINE
 8
TOOL_0
 5
A8
 10
934.39
 20
340.501
 30
0
 11
904.39
 21
340.501
 31
0
 0
ARC
 8
TOOL_0
 5
A9
 10
904.39
 20
330.501
 30
0
 40
10.0
 50
90.0
 51
180.0
210
0
220
0
230
1.0
 0
LINE
 8
TOOL_0
 5
AA
 10
894.39
 20
330.501
 30
0
 11
894.39
 21
83.501
 31
0
 0
ARC
 8
TOOL_0
 5
AB
 10
904.39
 20
83.501
 30
0
 40
10.0
 50
180.0
 51
270.0
210
0
220
0
230
1.0
 0
LINE
 8
TOOL_0
 5
AC
 10
904.39
 20
73.501
 30
0
 11
934.39
 21
73.501
 31
0
 0
ARC
 8
TOOL_0
 5
AD
 10
934.39
 20
83.501
 30
0
 40
10.0
 50
270.0
 51
0
210
0
220
0
230
1.0
 0
LINE
 8
TOOL_0
 5
AE
 10
944.39
 20
83.501
 30
0
 11
944.39
 21
207.001
 31
0
 0
LINE
 8
TOOL_0
 5
AF
 10
944.39
 20
207.001
 30
0
 11
940.854
 21
210.537
 31
0
 0
LINE
 8
TOOL_0
 5
B0
 10
940.854
 20
210.537
 30
0
 11
1093.982
 21
43.382
 31
0
 0
LINE
 8
TOOL_0
 5
B1
 10
1093.982
 20
43.382
 30
0
 11
1093.982
 21
19.518
 31
0
 0
LINE
 8
TOOL_0
 5
B2
 10
1093.982
 20
19.518
 30
0
 11
1084.39
 21
20.001
 31
0
 0
LINE
 8
TOOL_0
 5
B3
 10
1084.39
 20
20.001
 30
0
 11
562.39
 21
20.001
 31
0
 0
LINE
 8
TOOL_0
 5
B4
 10
562.39
 20
20.001
 30
0
 11
562.39
 21
522.001
 31
0
 0
LINE
 8
TOOL_0
 5
B5
 10
562.39
 20
522.001
 30
0
 11
1084.39
 21
522.001
 31
0
 0
LINE
 8
TOOL_0
 5
B6
 10
1084.39
 20
522.001
 30
0
 11
1084.39
 21
20.001
 31
0
 0
LINE
 8
TOOL_0
 5
B7
 10
1084.39
 20
20.001
 30
0
 11
1084.39
 21
15.199
 31
0
 0
LINE
 8
TOOL_0
 5
B8
 10
1084.39
 20
15.199
 30
0
 11
1231.402
 21
106.751
 31
0
 0
LINE
 8
TOOL_0
 5
B9
 10
1231.402
 20
106.751
 30
0
 11
1261.402
 21
106.751
 31
0
 0
LINE
 8
TOOL_0
 5
BA
 10
1261.402
 20
106.751
 30
0
 11
1261.402
 21
141.751
 31
0
 0
ARC
 8
TOOL_0
 5
BB
 10
1251.402
 20
141.751
 30
0
 40
10.0
 50
0
 51
90.0
210
0
220
0
230
1.0
 0
LINE
 8
TOOL_0
 5
BC
 10
1251.402
 20
151.751
 30
0
 11
1161.402
 21
151.751
 31
0
 0
ARC
 8
TOOL_0
 5
BD
 10
1161.402
 20
141.751
 30
0
 40
10.0
 50
90.0
 51
180.0
210
0
220
0
230
1.0
 0
LINE
 8
TOOL_0
 5
BE
 10
1151.402
 20
141.751
 30
0
 11
1151.402
 21
71.751
 31
0
 0
ARC
 8
TOOL_0
 5
BF
 10
1161.402
 20
71.751
 30
0
 40
10.0
 50
180.0
 51
270.0
210
0
220
0
230
1.0
 0
LINE
 8
TOOL_0
 5
C0
 10
1161.402
 20
61.751
 30
0
 11
1251.402
 21
61.751
 31
0
 0
ARC
 8
TOOL_0
 5
C1
 10
1251.402
 20
71.751
 30
0
 40
10.0
 50
270.0
 51
0
210
0
220
0
230
1.0
 0
LINE
 8
TOOL_0
 5
C2
 10
1261.402
 20
71.751
 30
0
 11
1261.402
 21
106.751
 31
0
 0
LINE
 8
TOOL_0
 5
C3
 10
1261.402
 20
106.751
 30
0
 11
1257.866
 21
110.287
 31
0
 0
LINE
 8
TOOL_0
 5
C4
 10
1257.866
 20
110.287
 30
0
 11
1466.402
 21
280.751
 31
0
 0
LINE
 8
TOOL_0
 5
C5
 10
1466.402
 20
280.751
 30
0
 11
1496.402
 21
280.751
 31
0
 0
LINE
 8
TOOL_0
 5
C6
 10
1496.402
 20
280.751
 30
0
 11
1496.402
 21
345.751
 31
0
 0
ARC
 8
TOOL_0
 5
C7
 10
1486.402
 20
345.751
 30
0
 40
10.0
 50
0
 51
90.0
210
0
220
0
230
1.0
 0
LINE
 8
TOOL_0
 5
C8
 10
1486.402
 20
355.751
 30
0
 11
1436.402
 21
355.751
 31
0
 0
ARC
 8
TOOL_0
 5
C9
 10
1436.402
 20
345.751
 30
0
 40
10.0
 50
90.0
 51
180.0
210
0
220
0
230
1.0
 0
LINE
 8
TOOL_0
 5
CA
 10
1426.402
 20
345.751
 30
0
 11
1426.402
 21
215.751
 31
0
 0
ARC
 8
TOOL_0
 5
CB
 10
1436.402
 20
215.751
 30
0
 40
10.0
 50
180.0
 51
270.0
210
0
220
0
230
1.0
 0
LINE
 8
TOOL_0
 5
CC
 10
1436.402
 20
205.751
 30
0
 11
1486.402
 21
205.751
 31
0
 0
ARC
 8
TOOL_0
 5
CD
 10
1486.402
 20
215.751
 30
0
 40
10.0
 50
270.0
 51
0
210
0
220
0
230
1.0
 0
LINE
 8
TOOL_0
 5
CE
 10
1496.402
 20
215.751
 30
0
 11
1496.402
 21
280.751
 31
0
 0
LINE
 8
TOOL_0
 5
CF
 10
1496.402
 20
280.751
 30
0
 11
1492.866
 21
284.287
 31
0
 0
LINE
 8
TOOL_0
 5
D0
 10
1492.866
 20
284.287
 30
0
 11
1501.402
 21
106.751
 31
0
 0
LINE
 8
TOOL_0
 5
D1
 10
1501.402
 20
106.751
 30
0
 11
1531.402
 21
106.751
 31
0
 0
LINE
 8
TOOL_0
 5
D2
 10
1531.402
 20
106.751
 30
0
 11
1531.402
 21
141.751
 31
0
 0
ARC
 8
TOOL_0
 5
D3
 10
1521.402
 20
141.751
 30
0
 40
10.0
 50
0
 51
90.0
210
0
220
0
230
1.0
 0
LINE
 8
TOOL_0
 5
D4
 10
1521.402
 20
151.751
 30
0
 11
1311.402
 21
151.751
 31
0
 0
ARC
 8
TOOL_0
 5
D5
 10
1311.402
 20
141.751
 30
0
 40
10.0
 50
90.0
 51
180.0
210
0
220
0
230
1.0
 0
LINE
 8
TOOL_0
 5
D6
 10
1301.402
 20
141.751
 30
0
 11
1301.402
 21
71.751
 31
0
 0
ARC
 8
TOOL_0
 5
D7
 10
1311.402
 20
71.751
 30
0
 40
10.0
 50
180.0
 51
270.0
210
0
220
0
230
1.0
 0
LINE
 8
TOOL_0
 5
D8
 10
1311.402
 20
61.751
 30
0
 11
1521.402
 21
61.751
 31
0
 0
ARC
 8
TOOL_0
 5
D9
 10
1521.402
 20
71.751
 30
0
 40
10.0
 50
270.0
 51
0
210
0
220
0
230
1.0
 0
LINE
 8
TOOL_0
 5
DA
 10
1531.402
 20
71.751
 30
0
 11
1531.402
 21
106.751
 31
0
 0
LINE
 8
TOOL_0
 5
DB
 10
1531.402
 20
106.751
 30
0
 11
1527.866
 21
110.287
 31
0
 0
LINE
 8
TOOL_0
 5
DC
 10
1527.866
 20
110.287
 30
0
 11
1564.987
 21
41.772
 31
0
 0
LINE
 8
TOOL_0
 5
DD
 10
1564.987
 20
41.772
 30
0
 11
1564.987
 21
19.061
 31
0
 0
LINE
 8
TOOL_0
 5
DE
 10
1564.987
 20
19.061
 30
0
 11
1551.152
 21
19.001
 31
0
 0
LINE
 8
TOOL_0
 5
DF
 10
1551.152
 20
19.001
 30
0
 11
1108.652
 21
19.001
 31
0
 0
ARC
 8
TOOL_0
 5
E0
 10
1108.652
 20
24.001
 30
0
 40
5.0
 50
180.0
 51
270.0
210
0
220
0
230
1.0
 0
LINE
 8
TOOL_0
 5
E1
 10
1103.652
 20
24.001
 30
0
 11
1103.652
 21
396.501
 31
0
 0
ARC
 8
TOOL_0
 5
E2
 10
1108.652
 20
396.501
 30
0
 40
5.0
 50
90.0
 51
180.0
210
0
220
0
230
1.0
 0
LINE
 8
TOOL_0
 5
E3
 10
1108.652
 20
401.501
 30
0
 11
1197.652
 21
401.501
 31
0
 0
ARC
 8
TOOL_0
 5
E4
 10
1197.652
 20
406.501
 30
0
 40
5.0
 50
270.0
 51
0
210
0
220
0
230
1.0
 0
LINE
 8
TOOL_0
 5
E5
 10
1202.652
 20
406.501
 30
0
 11
1202.652
 21
467.701
 31
0
 0
ARC
 8
TOOL_0
 5
E6
 10
1207.652
 20
467.701
 30
0
 40
5.0
 50
90.0
 51
180.0
210
0
220
0
230
1.0
 0
LINE
 8
TOOL_0
 5
E7
 10
1207.652
 20
472.701
 30
0
 11
1424.152
 21
472.701
 31
0
 0
ARC
 8
TOOL_0
 5
E8
 10
1424.152
 20
467.701
 30
0
 40
5.0
 50
0
 51
90.0
210
0
220
0
230
1.0
 0
LINE
 8
TOOL_0
 5
E9
 10
1429.152
 20
467.701
 30
0
 11
1429.152
 21
406.501
 31
0
 0
ARC
 8
TOOL_0
 5
EA
 10
1434.152
 20
406.501
 30
0
 40
5.0
 50
180.0
 51
270.0
210
0
220
0
230
1.0
 0
LINE
 8
TOOL_0
 5
EB
 10
1434.152
 20
401.501
 30
0
 11
1551.152
 21
401.501
 31
0
 0
ARC
 8
TOOL_0
 5
EC
 10
1551.152
 20
396.501
 30
0
 40
5.0
 50
0
 51
90.0
210
0
220
0
230
1.0
 0
LINE
 8
TOOL_0
 5
ED
 10
1556.152
 20
396.501
 30
0
 11
1556.152
 21
24.001
 31
0
 0
ARC
 8
TOOL_0
 5
EE
 10
1551.152
 20
24.001
 30
0
 40
5.0
 50
270.0
 51
0
210
0
220
0
230
1.0
 0
LINE
 8
TOOL_0
 5
EF
 10
1551.152
 20
19.001
 30
0
 11
1547.497
 21
15.456
 31
0
 0
LINE
 8
TOOL_0
 5
F0
 10
1547.497
 20
15.456
 30
0
 11
1702.128
 21
106.751
 31
0
 0
LINE
 8
TOOL_0
 5
F1
 10
1702.128
 20
106.751
 30
0
 11
1732.128
 21
106.751
 31
0
 0
LINE
 8
TOOL_0
 5
F2
 10
1732.128
 20
106.751
 30
0
 11
1732.128
 21
141.751
 31
0
 0
ARC
 8
TOOL_0
 5
F3
 10
1722.128
 20
141.751
 30
0
 40
10.0
 50
0
 51
90.0
210
0
220
0
230
1.0
 0
LINE
 8
TOOL_0
 5
F4
 10
1722.128
 20
151.751
 30
0
 11
1632.128
 21
151.751
 31
0
 0
ARC
 8
TOOL_0
 5
F5
 10
1632.128
 20
141.751
 30
0
 40
10.0
 50
90.0
 51
180.0
210
0
220
0
230
1.0
 0
LINE
 8
TOOL_0
 5
F6
 10
1622.128
 20
141.751
 30
0
 11
1622.128
 21
71.751
 31
0
 0
ARC
 8
TOOL_0
 5
F7
 10
1632.128
 20
71.751
 30
0
 40
10.0
 50
180.0
 51
270.0
210
0
220
0
230
1.0
 0
LINE
 8
TOOL_0
 5
F8
 10
1632.128
 20
61.751
 30
0
 11
1722.128
 21
61.751
 31
0
 0
ARC
 8
TOOL_0
 5
F9
 10
1722.128
 20
71.751
 30
0
 40
10.0
 50
270.0
 51
0
210
0
220
0
230
1.0
 0
LINE
 8
TOOL_0
 5
FA
 10
1732.128
 20
71.751
 30
0
 11
1732.128
 21
106.751
 31
0
 0
LINE
 8
TOOL_0
 5
FB
 10
1732.128
 20
106.751
 30
0
 11
1728.592
 21
110.287
 31
0
 0
LINE
 8
TOOL_0
 5
FC
 10
1728.592
 20
110.287
 30
0
 11
1937.128
 21
280.751
 31
0
 0
LINE
 8
TOOL_0
 5
FD
 10
1937.128
 20
280.751
 30
0
 11
1967.128
 21
280.751
 31
0
 0
LINE
 8
TOOL_0
 5
FE
 10
1967.128
 20
280.751
 30
0
 11
1967.128
 21
345.751
 31
0
 0
ARC
 8
TOOL_0
 5
FF
 10
1957.128
 20
345.751
 30
0
 40
10.0
 50
0
 51
90.0
210
0
220
0
230
1.0
 0
LINE
 8
TOOL_0
 5
100
 10
1957.128
 20
355.751
 30
0
 11
1907.128
 21
355.751
 31
0
 0
ARC
 8
TOOL_0
 5
101
 10
1907.128
 20
345.751
 30
0
 40
10.0
 50
90.0
 51
180.0
210
0
220
0
230
1.0
 0
LINE
 8
TOOL_0
 5
102
 10
1897.128
 20
345.751
 30
0
 11
1897.128
 21
215.751
 31
0
 0
ARC
 8
TOOL_0
 5
103
 10
1907.128
 20
215.751
 30
0
 40
10.0
 50
180.0
 51
270.0
210
0
220
0
230
1.0
 0
LINE
 8
TOOL_0
 5
104
 10
1907.128
 20
205.751
 30
0
 11
1957.128
 21
205.751
 31
0
 0
ARC
 8
TOOL_0
 5
105
 10
1957.128
 20
215.751
 30
0
 40
10.0
 50
270.0
 51
0
210
0
220
0
230
1.0
 0
LINE
 8
TOOL_0
 5
106
 10
1967.128
 20
215.751
 30
0
 11
1967.128
 21
280.751
 31
0
 0
LINE
 8
TOOL_0
 5
107
 10
1967.128
 20
280.751
 30
0
 11
1963.592
 21
284.287
 31
0
 0
LINE
 8
TOOL_0
 5
108
 10
1963.592
 20
284.287
 30
0
 11
1972.128
 21
106.751
 31
0
 0
LINE
 8
TOOL_0
 5
109
 10
1972.128
 20
106.751
 30
0
 11
2002.128
 21
106.751
 31
0
 0
LINE
 8
TOOL_0
 5
10A
 10
2002.128
 20
106.751
 30
0
 11
2002.128
 21
141.751
 31
0
 0
ARC
 8
TOOL_0
 5
10B
 10
1992.128
 20
141.751
 30
0
 40
10.0
 50
0
 51
90.0
210
0
220
0
230
1.0
 0
LINE
 8
TOOL_0
 5
10C
 10
1992.128
 20
151.751
 30
0
 11
1782.128
 21
151.751
 31
0
 0
ARC
 8
TOOL_0
 5
10D
 10
1782.128
 20
141.751
 30
0
 40
10.0
 50
90.0
 51
180.0
210
0
220
0
230
1.0
 0
LINE
 8
TOOL_0
 5
10E
 10
1772.128
 20
141.751
 30
0
 11
1772.128
 21
71.751
 31
0
 0
ARC
 8
TOOL_0
 5
10F
 10
1782.128
 20
71.751
 30
0
 40
10.0
 50
180.0
 51
270.0
210
0
220
0
230
1.0
 0
LINE
 8
TOOL_0
 5
110
 10
1782.128
 20
61.751
 30
0
 11
1992.128
 21
61.751
 31
0
 0
ARC
 8
TOOL_0
 5
111
 10
1992.128
 20
71.751
 30
0
 40
10.0
 50
270.0
 51
0
210
0
220
0
230
1.0
 0
LINE
 8
TOOL_0
 5
112
 10
2002.128
 20
71.751
 30
0
 11
2002.128
 21
106.751
 31
0
 0
LINE
 8
TOOL_0
 5
113
 10
2002.128
 20
106.751
 30
0
 11
1998.592
 21
110.287
 31
0
 0
LINE
 8
TOOL_0
 5
114
 10
1998.592
 20
110.287
 30
0
 11
2035.713
 21
41.772
 31
0
 0
LINE
 8
TOOL_0
 5
115
 10
2035.713
 20
41.772
 30
0
 11
2035.713
 21
19.061
 31
0
 0
LINE
 8
TOOL_0
 5
116
 10
2035.713
 20
19.061
 30
0
 11
2021.878
 21
19.001
 31
0
 0
LINE
 8
TOOL_0
 5
117
 10
2021.878
 20
19.001
 30
0
 11
1579.378
 21
19.001
 31
0
 0
ARC
 8
TOOL_0
 5
118
 10
1579.378
 20
24.001
 30
0
 40
5.0
 50
180.0
 51
270.0
210
0
220
0
230
1.0
 0
LINE
 8
TOOL_0
 5
119
 10
1574.378
 20
24.001
 30
0
 11
1574.378
 21
396.501
 31
0
 0
ARC
 8
TOOL_0
 5
11A
 10
1579.378
 20
396.501
 30
0
 40
5.0
 50
90.0
 51
180.0
210
0
220
0
230
1.0
 0
LINE
 8
TOOL_0
 5
11B
 10
1579.378
 20
401.501
 30
0
 11
1668.378
 21
401.501
 31
0
 0
ARC
 8
TOOL_0
 5
11C
 10
1668.378
 20
406.501
 30
0
 40
5.0
 50
270.0
 51
0
210
0
220
0
230
1.0
 0
LINE
 8
TOOL_0
 5
11D
 10
1673.378
 20
406.501
 30
0
 11
1673.378
 21
467.701
 31
0
 0
ARC
 8
TOOL_0
 5
11E
 10
1678.378
 20
467.701
 30
0
 40
5.0
 50
90.0
 51
180.0
210
0
220
0
230
1.0
 0
LINE
 8
TOOL_0
 5
11F
 10
1678.378
 20
472.701
 30
0
 11
1894.878
 21
472.701
 31
0
 0
ARC
 8
TOOL_0
 5
120
 10
1894.878
 20
467.701
 30
0
 40
5.0
 50
0
 51
90.0
210
0
220
0
230
1.0
 0
LINE
 8
TOOL_0
 5
121
 10
1899.878
 20
467.701
 30
0
 11
1899.878
 21
406.501
 31
0
 0
ARC
 8
TOOL_0
 5
122
 10
1904.878
 20
406.501
 30
0
 40
5.0
 50
180.0
 51
270.0
210
0
220
0
230
1.0
 0
LINE
 8
TOOL_0
 5
123
 10
1904.878
 20
401.501
 30
0
 11
2021.878
 21
401.501
 31
0
 0
ARC
 8
TOOL_0
 5
124
 10
2021.878
 20
396.501
 30
0
 40
5.0
 50
0
 51
90.0
210
0
220
0
230
1.0
 0
LINE
 8
TOOL_0
 5
125
 10
2026.878
 20
396.501
 30
0
 11
2026.878
 21
24.001
 31
0
 0
ARC
 8
TOOL_0
 5
126
 10
2021.878
 20
24.001
 30
0
 40
5.0
 50
270.0
 51
0
210
0
220
0
230
1.0
 0
LINE
 8
TOOL_0
 5
127
 10
2021.878
 20
19.001
 30
0
 11
2018.223
 21
15.456
 31
0
 0
LINE
 8
TOOL_0
 5
128
 10
2018.223
 20
15.456
 30
0
 11
2162.935
 21
221.001
 31
0
 0
LINE
 8
TOOL_0
 5
129
 10
2162.935
 20
221.001
 30
0
 11
2192.935
 21
221.001
 31
0
 0
LINE
 8
TOOL_0
 5
12A
 10
2192.935
 20
221.001
 30
0
 11
2192.935
 21
303.501
 31
0
 0
ARC
 8
TOOL_0
 5
12B
 10
2182.935
 20
303.501
 30
0
 40
10.0
 50
0
 51
90.0
210
0
220
0
230
1.0
 0
LINE
 8
TOOL_0
 5
12C
 10
2182.935
 20
313.501
 30
0
 11
2142.935
 21
313.501
 31
0
 0
ARC
 8
TOOL_0
 5
12D
 10
2142.935
 20
303.501
 30
0
 40
10.0
 50
90.0
 51
180.0
210
0
220
0
230
1.0
 0
LINE
 8
TOOL_0
 5
12E
 10
2132.935
 20
303.501
 30
0
 11
2132.935
 21
138.501
 31
0
 0
ARC
 8
TOOL_0
 5
12F
 10
2142.935
 20
138.501
 30
0
 40
10.0
 50
180.0
 51
270.0
210
0
220
0
230
1.0
 0
LINE
 8
TOOL_0
 5
130
 10
2142.935
 20
128.501
 30
0
 11
2182.935
 21
128.501
 31
0
 0
ARC
 8
TOOL_0
 5
131
 10
2182.935
 20
138.501
 30
0
 40
10.0
 50
270.0
 51
0
210
0
220
0
230
1.0
 0
LINE
 8
TOOL_0
 5
132
 10
2192.935
 20
138.501
 30
0
 11
2192.935
 21
221.001
 31
0
 0
LINE
 8
TOOL_0
 5
133
 10
2192.935
 20
221.001
 30
0
 11
2189.399
 21
224.537
 31
0
 0
LINE
 8
TOOL_0
 5
134
 10
2189.399
 20
224.537
 30
0
 11
2254.934
 21
221.001
 31
0
 0
LINE
 8
TOOL_0
 5
135
 10
2254.934
 20
221.001
 30
0
 11
2284.934
 21
221.001
 31
0
 0
LINE
 8
TOOL_0
 5
136
 10
2284.934
 20
221.001
 30
0
 11
2284.934
 21
303.501
 31
0
 0
ARC
 8
TOOL_0
 5
137
 10
2274.934
 20
303.501
 30
0
 40
10.0
 50
0
 51
90.0
210
0
220
0
230
1.0
 0
LINE
 8
TOOL_0
 5
138
 10
2274.934
 20
313.501
 30
0
 11
2234.934
 21
313.501
 31
0
 0
ARC
 8
TOOL_0
 5
139
 10
2234.934
 20
303.501
 30
0
 40
10.0
 50
90.0
 51
180.0
210
0
220
0
230
1.0
 0
LINE
 8
TOOL_0
 5
13A
 10
2224.934
 20
303.501
 30
0
 11
2224.934
 21
138.501
 31
0
 0
ARC
 8
TOOL_0
 5
13B
 10
2234.934
 20
138.501
 30
0
 40
10.0
 50
180.0
 51
270.0
210
0
220
0
230
1.0
 0
LINE
 8
TOOL_0
 5
13C
 10
2234.934
 20
128.501
 30
0
 11
2274.934
 21
128.501
 31
0
 0
ARC
 8
TOOL_0
 5
13D
 10
2274.934
 20
138.501
 30
0
 40
10.0
 50
270.0
 51
0
210
0
220
0
230
1.0
 0
LINE
 8
TOOL_0
 5
13E
 10
2284.934
 20
138.501
 30
0
 11
2284.934
 21
221.001
 31
0
 0
LINE
 8
TOOL_0
 5
13F
 10
2284.934
 20
221.001
 30
0
 11
2281.398
 21
224.537
 31
0
 0
LINE
 8
TOOL_0
 5
140
 10
2281.398
 20
224.537
 30
0
 11
2346.933
 21
221.001
 31
0
 0
LINE
 8
TOOL_0
 5
141
 10
2346.933
 20
221.001
 30
0
 11
2376.933
 21
221.001
 31
0
 0
LINE
 8
TOOL_0
 5
142
 10
2376.933
 20
221.001
 30
0
 11
2376.933
 21
303.501
 31
0
 0
ARC
 8
TOOL_0
 5
143
 10
2366.933
 20
303.501
 30
0
 40
10.0
 50
0
 51
90.0
210
0
220
0
230
1.0
 0
LINE
 8
TOOL_0
 5
144
 10
2366.933
 20
313.501
 30
0
 11
2326.933
 21
313.501
 31
0
 0
ARC
 8
TOOL_0
 5
145
 10
2326.933
 20
303.501
 30
0
 40
10.0
 50
90.0
 51
180.0
210
0
220
0
230
1.0
 0
LINE
 8
TOOL_0
 5
146
 10
2316.933
 20
303.501
 30
0
 11
2316.933
 21
138.501
 31
0
 0
ARC
 8
TOOL_0
 5
147
 10
2326.933
 20
138.501
 30
0
 40
10.0
 50
180.0
 51
270.0
210
0
220
0
230
1.0
 0
LINE
 8
TOOL_0
 5
148
 10
2326.933
 20
128.501
 30
0
 11
2366.933
 21
128.501
 31
0
 0
ARC
 8
TOOL_0
 5
149
 10
2366.933
 20
138.501
 30
0
 40
10.0
 50
270.0
 51
0
210
0
220
0
230
1.0
 0
LINE
 8
TOOL_0
 5
14A
 10
2376.933
 20
138.501
 30
0
 11
2376.933
 21
221.001
 31
0
 0
LINE
 8
TOOL_0
 5
14B
 10
2376.933
 20
221.001
 30
0
 11
2373.397
 21
224.537
 31
0
 0
LINE
 8
TOOL_0
 5
14C
 10
2373.397
 20
224.537
 30
0
 11
2438.932
 21
221.001
 31
0
 0
LINE
 8
TOOL_0
 5
14D
 10
2438.932
 20
221.001
 30
0
 11
2468.932
 21
221.001
 31
0
 0
LINE
 8
TOOL_0
 5
14E
 10
2468.932
 20
221.001
 30
0
 11
2468.932
 21
303.501
 31
0
 0
ARC
 8
TOOL_0
 5
14F
 10
2458.932
 20
303.501
 30
0
 40
10.0
 50
0
 51
90.0
210
0
220
0
230
1.0
 0
LINE
 8
TOOL_0
 5
150
 10
2458.932
 20
313.501
 30
0
 11
2418.932
 21
313.501
 31
0
 0
ARC
 8
TOOL_0
 5
151
 10
2418.932
 20
303.501
 30
0
 40
10.0
 50
90.0
 51
180.0
210
0
220
0
230
1.0
 0
LINE
 8
TOOL_0
 5
152
 10
2408.932
 20
303.501
 30
0
 11
2408.932
 21
138.501
 31
0
 0
ARC
 8
TOOL_0
 5
153
 10
2418.932
 20
138.501
 30
0
 40
10.0
 50
180.0
 51
270.0
210
0
220
0
230
1.0
 0
LINE
 8
TOOL_0
 5
154
 10
2418.932
 20
128.501
 30
0
 11
2458.932
 21
128.501
 31
0
 0
ARC
 8
TOOL_0
 5
155
 10
2458.932
 20
138.501
 30
0
 40
10.0
 50
270.0
 51
0
210
0
220
0
230
1.0
 0
LINE
 8
TOOL_0
 5
156
 10
2468.932
 20
138.501
 30
0
 11
2468.932
 21
221.001
 31
0
 0
LINE
 8
TOOL_0
 5
157
 10
2468.932
 20
221.001
 30
0
 11
2465.396
 21
224.537
 31
0
 0
LINE
 8
TOOL_0
 5
158
 10
2465.396
 20
224.537
 30
0
 11
2540.501
 21
37.644
 31
0
 0
LINE
 8
TOOL_0
 5
159
 10
2540.501
 20
37.644
 30
0
 11
2540.501
 21
19.377
 31
0
 0
LINE
 8
TOOL_0
 5
15A
 10
2540.501
 20
19.377
 30
0
 11
2529.931
 21
20.001
 31
0
 0
LINE
 8
TOOL_0
 5
15B
 10
2529.931
 20
20.001
 30
0
 11
2049.931
 21
20.001
 31
0
 0
LINE
 8
TOOL_0
 5
15C
 10
2049.931
 20
20.001
 30
0
 11
2049.931
 21
422.001
 31
0
 0
LINE
 8
TOOL_0
 5
15D
 10
2049.931
 20
422.001
 30
0
 11
2529.931
 21
422.001
 31
0
 0
LINE
 8
TOOL_0
 5
15E
 10
2529.931
 20
422.001
 30
0
 11
2529.931
 21
20.001
 31
0
 0
LINE
 8
TOOL_0
 5
15F
 10
2529.931
 20
20.001
 30
0
 11
2529.931
 21
14.996
 31
0
 0
LINE
 8
TOOL_0
 5
160
 10
2529.931
 20
14.996
 30
0
 11
2663.25
 21
221.001
 31
0
 0
LINE
 8
TOOL_0
 5
161
 10
2663.25
 20
221.001
 30
0
 11
2693.25
 21
221.001
 31
0
 0
LINE
 8
TOOL_0
 5
162
 10
2693.25
 20
221.001
 30
0
 11
2693.25
 21
303.501
 31
0
 0
ARC
 8
TOOL_0
 5
163
 10
2683.25
 20
303.501
 30
0
 40
10.0
 50
0
 51
90.0
210
0
220
0
230
1.0
 0
LINE
 8
TOOL_0
 5
164
 10
2683.25
 20
313.501
 30
0
 11
2643.25
 21
313.501
 31
0
 0
ARC
 8
TOOL_0
 5
165
 10
2643.25
 20
303.501
 30
0
 40
10.0
 50
90.0
 51
180.0
210
0
220
0
230
1.0
 0
LINE
 8
TOOL_0
 5
166
 10
2633.25
 20
303.501
 30
0
 11
2633.25
 21
138.501
 31
0
 0
ARC
 8
TOOL_0
 5
167
 10
2643.25
 20
138.501
 30
0
 40
10.0
 50
180.0
 51
270.0
210
0
220
0
230
1.0
 0
LINE
 8
TOOL_0
 5
168
 10
2643.25
 20
128.501
 30
0
 11
2683.25
 21
128.501
 31
0
 0
ARC
 8
TOOL_0
 5
169
 10
2683.25
 20
138.501
 30
0
 40
10.0
 50
270.0
 51
0
210
0
220
0
230
1.0
 0
LINE
 8
TOOL_0
 5
16A
 10
2693.25
 20
138.501
 30
0
 11
2693.25
 21
221.001
 31
0
 0
LINE
 8
TOOL_0
 5
16B
 10
2693.25
 20
221.001
 30
0
 11
2689.714
 21
224.537
 31
0
 0
LINE
 8
TOOL_0
 5
16C
 10
2689.714
 20
224.537
 30
0
 11
2755.25
 21
221.001
 31
0
 0
LINE
 8
TOOL_0
 5
16D
 10
2755.25
 20
221.001
 30
0
 11
2785.25
 21
221.001
 31
0
 0
LINE
 8
TOOL_0
 5
16E
 10
2785.25
 20
221.001
 30
0
 11
2785.25
 21
303.501
 31
0
 0
ARC
 8
TOOL_0
 5
16F
 10
2775.25
 20
303.501
 30
0
 40
10.0
 50
0
 51
90.0
210
0
220
0
230
1.0
 0
LINE
 8
TOOL_0
 5
170
 10
2775.25
 20
313.501
 30
0
 11
2735.25
 21
313.501
 31
0
 0
ARC
 8
TOOL_0
 5
171
 10
2735.25
 20
303.501
 30
0
 40
10.0
 50
90.0
 51
180.0
210
0
220
0
230
1.0
 0
LINE
 8
TOOL_0
 5
172
 10
2725.25
 20
303.501
 30
0
 11
2725.25
 21
138.501
 31
0
 0
ARC
 8
TOOL_0
 5
173
 10
2735.25
 20
138.501
 30
0
 40
10.0
 50
180.0
 51
270.0
210
0
220
0
230
1.0
 0
LINE
 8
TOOL_0
 5
174
 10
2735.25
 20
128.501
 30
0
 11
2775.25
 21
128.501
 31
0
 0
ARC
 8
TOOL_0
 5
175
 10
2775.25
 20
138.501
 30
0
 40
10.0
 50
270.0
 51
0
210
0
220
0
230
1.0
 0
LINE
 8
TOOL_0
 5
176
 10
2785.25
 20
138.501
 30
0
 11
2785.25
 21
221.001
 31
0
 0
LINE
 8
TOOL_0
 5
177
 10
2785.25
 20
221.001
 30
0
 11
2781.714
 21
224.537
 31
0
 0
LINE
 8
TOOL_0
 5
178
 10
2781.714
 20
224.537
 30
0
 11
2847.25
 21
221.001
 31
0
 0
LINE
 8
TOOL_0
 5
179
 10
2847.25
 20
221.001
 30
0
 11
2877.25
 21
221.001
 31
0
 0
LINE
 8
TOOL_0
 5
17A
 10
2877.25
 20
221.001
 30
0
 11
2877.25
 21
303.501
 31
0
 0
ARC
 8
TOOL_0
 5
17B
 10
2867.25
 20
303.501
 30
0
 40
10.0
 50
0
 51
90.0
210
0
220
0
230
1.0
 0
LINE
 8
TOOL_0
 5
17C
 10
2867.25
 20
313.501
 30
0
 11
2827.25
 21
313.501
 31
0
 0
ARC
 8
TOOL_0
 5
17D
 10
2827.25
 20
303.501
 30
0
 40
10.0
 50
90.0
 51
180.0
210
0
220
0
230
1.0
 0
LINE
 8
TOOL_0
 5
17E
 10
2817.25
 20
303.501
 30
0
 11
2817.25
 21
138.501
 31
0
 0
ARC
 8
TOOL_0
 5
17F
 10
2827.25
 20
138.501
 30
0
 40
10.0
 50
180.0
 51
270.0
210
0
220
0
230
1.0
 0
LINE
 8
TOOL_0
 5
180
 10
2827.25
 20
128.501
 30
0
 11
2867.25
 21
128.501
 31
0
 0
ARC
 8
TOOL_0
 5
181
 10
2867.25
 20
138.501
 30
0
 40
10.0
 50
270.0
 51
0
210
0
220
0
230
1.0
 0
LINE
 8
TOOL_0
 5
182
 10
2877.25
 20
138.501
 30
0
 11
2877.25
 21
221.001
 31
0
 0
LINE
 8
TOOL_0
 5
183
 10
2877.25
 20
221.001
 30
0
 11
2873.714
 21
224.537
 31
0
 0
LINE
 8
TOOL_0
 5
184
 10
2873.714
 20
224.537
 30
0
 11
2939.25
 21
221.001
 31
0
 0
LINE
 8
TOOL_0
 5
185
 10
2939.25
 20
221.001
 30
0
 11
2969.25
 21
221.001
 31
0
 0
LINE
 8
TOOL_0
 5
186
 10
2969.25
 20
221.001
 30
0
 11
2969.25
 21
303.501
 31
0
 0
ARC
 8
TOOL_0
 5
187
 10
2959.25
 20
303.501
 30
0
 40
10.0
 50
0
 51
90.0
210
0
220
0
230
1.0
 0
LINE
 8
TOOL_0
 5
188
 10
2959.25
 20
313.501
 30
0
 11
2919.25
 21
313.501
 31
0
 0
ARC
 8
TOOL_0
 5
189
 10
2919.25
 20
303.501
 30
0
 40
10.0
 50
90.0
 51
180.0
210
0
220
0
230
1.0
 0
LINE
 8
TOOL_0
 5
18A
 10
2909.25
 20
303.501
 30
0
 11
2909.25
 21
138.501
 31
0
 0
ARC
 8
TOOL_0
 5
18B
 10
2919.25
 20
138.501
 30
0
 40
10.0
 50
180.0
 51
270.0
210
0
220
0
230
1.0
 0
LINE
 8
TOOL_0
 5
18C
 10
2919.25
 20
128.501
 30
0
 11
2959.25
 21
128.501
 31
0
 0
ARC
 8
TOOL_0
 5
18D
 10
2959.25
 20
138.501
 30
0
 40
10.0
 50
270.0
 51
0
210
0
220
0
230
1.0
 0
LINE
 8
TOOL_0
 5
18E
 10
2969.25
 20
138.501
 30
0
 11
2969.25
 21
221.001
 31
0
 0
LINE
 8
TOOL_0
 5
18F
 10
2969.25
 20
221.001
 30
0
 11
2965.714
 21
224.537
 31
0
 0
LINE
 8
TOOL_0
 5
190
 10
2965.714
 20
224.537
 30
0
 11
3040.819
 21
37.644
 31
0
 0
LINE
 8
TOOL_0
 5
191
 10
3040.819
 20
37.644
 30
0
 11
3040.819
 21
19.377
 31
0
 0
LINE
 8
TOOL_0
 5
192
 10
3040.819
 20
19.377
 30
0
 11
3030.249
 21
20.001
 31
0
 0
LINE
 8
TOOL_0
 5
193
 10
3030.249
 20
20.001
 30
0
 11
2550.249
 21
20.001
 31
0
 0
LINE
 8
TOOL_0
 5
194
 10
2550.249
 20
20.001
 30
0
 11
2550.249
 21
422.001
 31
0
 0
LINE
 8
TOOL_0
 5
195
 10
2550.249
 20
422.001
 30
0
 11
3030.249
 21
422.001
 31
0
 0
LINE
 8
TOOL_0
 5
196
 10
3030.249
 20
422.001
 30
0
 11
3030.249
 21
20.001
 31
0
 0
LINE
 8
TOOL_0
 5
197
 10
3030.249
 20
20.001
 30
0
 11
3030.249
 21
14.996
 31
0
 0
LINE
 8
TOOL_0
 5
198
 10
3030.249
 20
14.996
 30
0
 11
3030.249
 21
0
 31
0
 0
LINE
 8
TOOL_0
 5
199
 10
3030.249
 20
0
 30
0
 11
411.481
 21
2133.22
 31
0
 0
LINE
 8
TOOL_0
 5
19A
 10
411.481
 20
2133.22
 30
0
 11
411.481
 21
2109.993
 31
0
 0
LINE
 8
TOOL_0
 5
19B
 10
411.481
 20
2109.993
 30
0
 11
396.995
 21
2110.839
 31
0
 0
LINE
 8
TOOL_0
 5
19C
 10
396.995
 20
2110.839
 30
0
 11
24.995
 21
2110.839
 31
0
 0
ARC
 8
TOOL_0
 5
19D
 10
24.995
 20
2115.839
 30
0
 40
5.0
 50
180.0
 51
270.0
210
0
220
0
230
1.0
 0
LINE
 8
TOOL_0
 5
19E
 10
19.995
 20
2115.839
 30
0
 11
19.995
 21
2332.339
 31
0
 0
ARC
 8
TOOL_0
 5
19F
 10
24.995
 20
2332.339
 30
0
 40
5.0
 50
90.0
 51
180.0
210
0
220
0
230
1.0
 0
LINE
 8
TOOL_0
 5
1A0
 10
24.995
 20
2337.339
 30
0
 11
396.995
 21
2337.339
 31
0
 0
ARC
 8
TOOL_0
 5
1A1
 10
396.995
 20
2332.339
 30
0
 40
5.0
 50
0
 51
90.0
210
0
220
0
230
1.0
 0
LINE
 8
TOOL_0
 5
1A2
 10
401.995
 20
2332.339
 30
0
 11
401.995
 21
2115.839
 31
0
 0
ARC
 8
TOOL_0
 5
1A3
 10
396.995
 20
2115.839
 30
0
 40
5.0
 50
270.0
 51
0
210
0
220
0
230
1.0
 0
LINE
 8
TOOL_0
 5
1A4
 10
396.995
 20
2110.839
 30
0
 11
393.49
 21
2107.483
 31
0
 0
LINE
 8
TOOL_0
 5
1A5
 10
393.49
 20
2107.483
 30
0
 11
813.971
 21
2131.84
 31
0
 0
LINE
 8
TOOL_0
 5
1A6
 10
813.971
 20
2131.84
 30
0
 11
813.971
 21
2108.613
 31
0
 0
LINE
 8
TOOL_0
 5
1A7
 10
813.971
 20
2108.613
 30
0
 11
799.485
 21
2109.459
 31
0
 0
LINE
 8
TOOL_0
 5
1A8
 10
799.485
 20
2109.459
 30
0
 11
427.485
 21
2109.459
 31
0
 0
ARC
 8
TOOL_0
 5
1A9
 10
427.485
 20
2114.459
 30
0
 40
5.0
 50
180.0
 51
270.0
210
0
220
0
230
1.0
 0
LINE
 8
TOOL_0
 5
1AA
 10
422.485
 20
2114.459
 30
0
 11
422.485
 21
2330.959
 31
0
 0
ARC
 8
TOOL_0
 5
1AB
 10
427.485
 20
2330.959
 30
0
 40
5.0
 50
90.0
 51
180.0
210
0
220
0
230
1.0
 0
LINE
 8
TOOL_0
 5
1AC
 10
427.485
 20
2335.959
 30
0
 11
799.485
 21
2335.959
 31
0
 0
ARC
 8
TOOL_0
 5
1AD
 10
799.485
 20
2330.959
 30
0
 40
5.0
 50
0
 51
90.0
210
0
220
0
230
1.0
 0
LINE
 8
TOOL_0
 5
1AE
 10
804.485
 20
2330.959
 30
0
 11
804.485
 21
2114.459
 31
0
 0
ARC
 8
TOOL_0
 5
1AF
 10
799.485
 20
2114.459
 30
0
 40
5.0
 50
270.0
 51
0
210
0
220
0
230
1.0
 0
LINE
 8
TOOL_0
 5
1B0
 10
799.485
 20
2109.459
 30
0
 11
795.98
 21
2106.103
 31
0
 0
LINE
 8
TOOL_0
 5
1B1
 10
795.98
 20
2106.103
 30
0
 11
1216.567
 21
2131.841
 31
0
 0
LINE
 8
TOOL_0
 5
1B2
 10
1216.567
 20
2131.841
 30
0
 11
1216.567
 21
2108.614
 31
0
 0
LINE
 8
TOOL_0
 5
1B3
 10
1216.567
 20
2108.614
 30
0
 11
1202.081
 21
2109.46
 31
0
 0
LINE
 8
TOOL_0
 5
1B4
 10
1202.081
 20
2109.46
 30
0
 11
830.081
 21
2109.46
 31
0
 0
ARC
 8
TOOL_0
 5
1B5
 10
830.081
 20
2114.46
 30
0
 40
5.0
 50
180.0
 51
270.0
210
0
220
0
230
1.0
 0
LINE
 8
TOOL_0
 5
1B6
 10
825.081
 20
2114.46
 30
0
 11
825.081
 21
2330.96
 31
0
 0
ARC
 8
TOOL_0
 5
1B7
 10
830.081
 20
2330.96
 30
0
 40
5.0
 50
90.0
 51
180.0
210
0
220
0
230
1.0
 0
LINE
 8
TOOL_0
 5
1B8
 10
830.081
 20
2335.96
 30
0
 11
1202.081
 21
2335.96
 31
0
 0
ARC
 8
TOOL_0
 5
1B9
 10
1202.081
 20
2330.96
 30
0
 40
5.0
 50
0
 51
90.0
210
0
220
0
230
1.0
 0
LINE
 8
TOOL_0
 5
1BA
 10
1207.081
 20
2330.96
 30
0
 11
1207.081
 21
2114.46
 31
0
 0
ARC
 8
TOOL_0
 5
1BB
 10
1202.081
 20
2114.46
 30
0
 40
5.0
 50
270.0
 51
0
210
0
220
0
230
1.0
 0
LINE
 8
TOOL_0
 5
1BC
 10
1202.081
 20
2109.46
 30
0
 11
1198.576
 21
2106.104
 31
0
 0
LINE
 8
TOOL_0
 5
1BD
 10
1198.576
 20
2106.104
 30
0
 11
1467.8
 21
2080.831
 31
0
 0
LINE
 8
TOOL_0
 5
1BE
 10
1467.8
 20
2080.831
 30
0
 11
1467.8
 21
2060.113
 31
0
 0
LINE
 8
TOOL_0
 5
1BF
 10
1467.8
 20
2060.113
 30
0
 11
1451.885
 21
2060.724
 31
0
 0
LINE
 8
TOOL_0
 5
1C0
 10
1451.885
 20
2060.724
 30
0
 11
1235.385
 21
2060.724
 31
0
 0
ARC
 8
TOOL_0
 5
1C1
 10
1235.385
 20
2065.724
 30
0
 40
5.0
 50
180.0
 51
270.0
210
0
220
0
230
1.0
 0
LINE
 8
TOOL_0
 5
1C2
 10
1230.385
 20
2065.724
 30
0
 11
1230.385
 21
2437.724
 31
0
 0
ARC
 8
TOOL_0
 5
1C3
 10
1235.385
 20
2437.724
 30
0
 40
5.0
 50
90.0
 51
180.0
210
0
220
0
230
1.0
 0
LINE
 8
TOOL_0
 5
1C4
 10
1235.385
 20
2442.724
 30
0
 11
1451.885
 21
2442.724
 31
0
 0
ARC
 8
TOOL_0
 5
1C5
 10
1451.885
 20
2437.724
 30
0
 40
5.0
 50
0
 51
90.0
210
0
220
0
230
1.0
 0
LINE
 8
TOOL_0
 5
1C6
 10
1456.885
 20
2437.724
 30
0
 11
1456.885
 21
2065.724
 31
0
 0
ARC
 8
TOOL_0
 5
1C7
 10
1451.885
 20
2065.724
 30
0
 40
5.0
 50
270.0
 51
0
210
0
220
0
230
1.0
 0
LINE
 8
TOOL_0
 5
1C8
 10
1451.885
 20
2060.724
 30
0
 11
1448.682
 21
2056.894
 31
0
 0
LINE
 8
TOOL_0
 5
1C9
 10
1448.682
 20
2056.894
 30
0
 11
1717.715
 21
2084.924
 31
0
 0
LINE
 8
TOOL_0
 5
1CA
 10
1717.715
 20
2084.924
 30
0
 11
1717.715
 21
2061.604
 31
0
 0
LINE
 8
TOOL_0
 5
1CB
 10
1717.715
 20
2061.604
 30
0
 11
1703.105
 21
2062.777
 31
0
 0
LINE
 8
TOOL_0
 5
1CC
 10
1703.105
 20
2062.777
 30
0
 11
1486.605
 21
2062.777
 31
0
 0
ARC
 8
TOOL_0
 5
1CD
 10
1486.605
 20
2067.777
 30
0
 40
5.0
 50
180.0
 51
270.0
210
0
220
0
230
1.0
 0
LINE
 8
TOOL_0
 5
1CE
 10
1481.605
 20
2067.777
 30
0
 11
1481.605
 21
2439.777
 31
0
 0
ARC
 8
TOOL_0
 5
1CF
 10
1486.605
 20
2439.777
 30
0
 40
5.0
 50
90.0
 51
180.0
210
0
220
0
230
1.0
 0
LINE
 8
TOOL_0
 5
1D0
 10
1486.605
 20
2444.777
 30
0
 11
1703.105
 21
2444.777
 31
0
 0
ARC
 8
TOOL_0
 5
1D1
 10
1703.105
 20
2439.777
 30
0
 40
5.0
 50
0
 51
90.0
210
0
220
0
230
1.0
 0
LINE
 8
TOOL_0
 5
1D2
 10
1708.105
 20
2439.777
 30
0
 11
1708.105
 21
2067.777
 31
0
 0
ARC
 8
TOOL_0
 5
1D3
 10
1703.105
 20
2067.777
 30
0
 40
5.0
 50
270.0
 51
0
210
0
220
0
230
1.0
 0
LINE
 8
TOOL_0
 5
1D4
 10
1703.105
 20
2062.777
 30
0
 11
1699.18
 21
2059.923
 31
0
 0
LINE
 8
TOOL_0
 5
1D5
 10
1699.18
 20
2059.923
 30
0
 11
1964.778
 21
2085.614
 31
0
 0
LINE
 8
TOOL_0
 5
1D6
 10
1964.778
 20
2085.614
 30
0
 11
1964.778
 21
2062.294
 31
0
 0
LINE
 8
TOOL_0
 5
1D7
 10
1964.778
 20
2062.294
 30
0
 11
1950.168
 21
2063.467
 31
0
 0
LINE
 8
TOOL_0
 5
1D8
 10
1950.168
 20
2063.467
 30
0
 11
1733.668
 21
2063.467
 31
0
 0
ARC
 8
TOOL_0
 5
1D9
 10
1733.668
 20
2068.467
 30
0
 40
5.0
 50
180.0
 51
270.0
210
0
220
0
230
1.0
 0
LINE
 8
TOOL_0
 5
1DA
 10
1728.668
 20
2068.467
 30
0
 11
1728.668
 21
2440.467
 31
0
 0
ARC
 8
TOOL_0
 5
1DB
 10
1733.668
 20
2440.467
 30
0
 40
5.0
 50
90.0
 51
180.0
210
0
220
0
230
1.0
 0
LINE
 8
TOOL_0
 5
1DC
 10
1733.668
 20
2445.467
 30
0
 11
1950.168
 21
2445.467
 31
0
 0
ARC
 8
TOOL_0
 5
1DD
 10
1950.168
 20
2440.467
 30
0
 40
5.0
 50
0
 51
90.0
210
0
220
0
230
1.0
 0
LINE
 8
TOOL_0
 5
1DE
 10
1955.168
 20
2440.467
 30
0
 11
1955.168
 21
2068.467
 31
0
 0
ARC
 8
TOOL_0
 5
1DF
 10
1950.168
 20
2068.467
 30
0
 40
5.0
 50
270.0
 51
0
210
0
220
0
230
1.0
 0
LINE
 8
TOOL_0
 5
1E0
 10
1950.168
 20
2063.467
 30
0
 11
1946.243
 21
2060.613
 31
0
 0
LINE
 8
TOOL_0
 5
1E1
 10
1946.243
 20
2060.613
 30
0
 11
2211.84
 21
2078.711
 31
0
 0
LINE
 8
TOOL_0
 5
1E2
 10
2211.84
 20
2078.711
 30
0
 11
2211.84
 21
2055.391
 31
0
 0
LINE
 8
TOOL_0
 5
1E3
 10
2211.84
 20
2055.391
 30
0
 11
2197.23
 21
2056.564
 31
0
 0
LINE
 8
TOOL_0
 5
1E4
 10
2197.23
 20
2056.564
 30
0
 11
1980.73
 21
2056.564
 31
0
 0
ARC
 8
TOOL_0
 5
1E5
 10
1980.73
 20
2061.564
 30
0
 40
5.0
 50
180.0
 51
270.0
210
0
220
0
230
1.0
 0
LINE
 8
TOOL_0
 5
1E6
 10
1975.73
 20
2061.564
 30
0
 11
1975.73
 21
2433.564
 31
0
 0
ARC
 8
TOOL_0
 5
1E7
 10
1980.73
 20
2433.564
 30
0
 40
5.0
 50
90.0
 51
180.0
210
0
220
0
230
1.0
 0
LINE
 8
TOOL_0
 5
1E8
 10
1980.73
 20
2438.564
 30
0
 11
2197.23
 21
2438.564
 31
0
 0
ARC
 8
TOOL_0
 5
1E9
 10
2197.23
 20
2433.564
 30
0
 40
5.0
 50
0
 51
90.0
210
0
220
0
230
1.0
 0
LINE
 8
TOOL_0
 5
1EA
 10
2202.23
 20
2433.564
 30
0
 11
2202.23
 21
2061.564
 31
0
 0
ARC
 8
TOOL_0
 5
1EB
 10
2197.23
 20
2061.564
 30
0
 40
5.0
 50
270.0
 51
0
210
0
220
0
230
1.0
 0
LINE
 8
TOOL_0
 5
1EC
 10
2197.23
 20
2056.564
 30
0
 11
2193.305
 21
2053.71
 31
0
 0
LINE
 8
TOOL_0
 5
1ED
 10
2193.305
 20
2053.71
 30
0
 11
2460.967
 21
2078.711
 31
0
 0
LINE
 8
TOOL_0
 5
1EE
 10
2460.967
 20
2078.711
 30
0
 11
2460.967
 21
2055.391
 31
0
 0
LINE
 8
TOOL_0
 5
1EF
 10
2460.967
 20
2055.391
 30
0
 11
2446.357
 21
2056.564
 31
0
 0
LINE
 8
TOOL_0
 5
1F0
 10
2446.357
 20
2056.564
 30
0
 11
2229.857
 21
2056.564
 31
0
 0
ARC
 8
TOOL_0
 5
1F1
 10
2229.857
 20
2061.564
 30
0
 40
5.0
 50
180.0
 51
270.0
210
0
220
0
230
1.0
 0
LINE
 8
TOOL_0
 5
1F2
 10
2224.857
 20
2061.564
 30
0
 11
2224.857
 21
2433.564
 31
0
 0
ARC
 8
TOOL_0
 5
1F3
 10
2229.857
 20
2433.564
 30
0
 40
5.0
 50
90.0
 51
180.0
210
0
220
0
230
1.0
 0
LINE
 8
TOOL_0
 5
1F4
 10
2229.857
 20
2438.564
 30
0
 11
2446.357
 21
2438.564
 31
0
 0
ARC
 8
TOOL_0
 5
1F5
 10
2446.357
 20
2433.564
 30
0
 40
5.0
 50
0
 51
90.0
210
0
220
0
230
1.0
 0
LINE
 8
TOOL_0
 5
1F6
 10
2451.357
 20
2433.564
 30
0
 11
2451.357
 21
2061.564
 31
0
 0
ARC
 8
TOOL_0
 5
1F7
 10
2446.357
 20
2061.564
 30
0
 40
5.0
 50
270.0
 51
0
210
0
220
0
230
1.0
 0
LINE
 8
TOOL_0
 5
1F8
 10
2446.357
 20
2056.564
 30
0
 11
2442.432
 21
2053.71
 31
0
 0
LINE
 8
TOOL_0
 5
1F9
 10
2442.432
 20
2053.71
 30
0
 11
3489.302
 21
2292.003
 31
0
 0
LINE
 8
TOOL_0
 5
1FA
 10
3489.302
 20
2292.003
 30
0
 11
3460.53
 21
2292.003
 31
0
 0
LINE
 8
TOOL_0
 5
1FB
 10
3460.53
 20
2292.003
 30
0
 11
3100.746
 21
2292.003
 31
0
 0
ARC
 8
TOOL_0
 5
1FC
 10
3100.746
 20
2262.503
 30
0
 40
29.5
 50
90.0
 51
105.999553963965
210
0
220
0
230
1.0
 0
LINE
 8
TOOL_0
 5
1FD
 10
3092.615
 20
2290.86
 30
0
 11
2954.399
 21
2251.227
 31
0
 0
ARC
 8
TOOL_0
 5
1FE
 10
2962.609
 20
2222.811
 30
0
 40
29.578254782864
 50
106.115155158087
 51
179.885714645253
210
0
220
0
230
1.0
 0
LINE
 8
TOOL_0
 5
1FF
 10
2933.03
 20
2222.87
 30
0
 11
2933.03
 21
2199.503
 31
0
 0
ARC
 8
TOOL_0
 5
200
 10
2917.53
 20
2199.503
 30
0
 40
15.5
 50
270.0
 51
0
210
0
220
0
230
1.0
 0
LINE
 8
TOOL_0
 5
201
 10
2917.53
 20
2184.003
 30
0
 11
2530.351
 21
2184.003
 31
0
 0
ARC
 8
TOOL_0
 5
202
 10
2530.363
 20
2189.016
 30
0
 40
5.013014362636
 50
184.140989165552
 51
269.862846989644
210
0
220
0
230
1.0
 0
LINE
 8
TOOL_0
 5
203
 10
2525.363
 20
2188.654
 30
0
 11
2522.146
 21
2234.655
 31
0
 0
ARC
 8
TOOL_0
 5
204
 10
2498.127
 20
2232.947
 30
0
 40
24.079651679374
 50
4.067477372201
 51
42.733060840556
210
0
220
0
230
1.0
 0
LINE
 8
TOOL_0
 5
205
 10
2515.814
 20
2249.287
 30
0
 11
2490.435
 21
2276.694
 31
0
 0
ARC
 8
TOOL_0
 5
206
 10
2542.555
 20
2324.934
 30
0
 40
71.018251175314
 50
183.614329952714
 51
222.786000740381
210
0
220
0
230
1.0
 0
ARC
 8
TOOL_0
 5
207
 10
2851.766
 20
2333.363
 30
0
 40
380.307050394809
 50
178.823741324326
 51
181.944747893435
210
0
220
0
230
1.0
 0
ARC
 8
TOOL_0
 5
208
 10
2542.724
 20
2339.992
 30
0
 40
71.194746358141
 50
137.261452095985
 51
179.051931331741
210
0
220
0
230
1.0
 0
LINE
 8
TOOL_0
 5
209
 10
2490.434
 20
2388.309
 30
0
 11
2515.814
 21
2415.717
 31
0
 0
ARC
 8
TOOL_0
 5
20A
 10
2498.127
 20
2432.057
 30
0
 40
24.07956745874
 50
317.266939159444
 51
355.932522627799
210
0
220
0
230
1.0
 0
LINE
 8
TOOL_0
 5
20B
 10
2522.146
 20
2430.349
 30
0
 11
2525.363
 21
2476.351
 31
0
 0
ARC
 8
TOOL_0
 5
20C
 10
2530.363
 20
2475.989
 30
0
 40
5.01308727233
 50
90.137153010356
 51
175.859010834448
210
0
220
0
230
1.0
 0
LINE
 8
TOOL_0
 5
20D
 10
2530.351
 20
2481.002
 30
0
 11
2917.53
 21
2481.002
 31
0
 0
ARC
 8
TOOL_0
 5
20E
 10
2917.53
 20
2465.502
 30
0
 40
15.5
 50
0
 51
90.0
210
0
220
0
230
1.0
 0
LINE
 8
TOOL_0
 5
20F
 10
2933.03
 20
2465.502
 30
0
 11
2933.03
 21
2442.135
 31
0
 0
ARC
 8
TOOL_0
 5
210
 10
2962.608
 20
2442.194
 30
0
 40
29.578058844353
 50
180.1142892186
 51
253.886705834146
210
0
220
0
230
1.0
 0
LINE
 8
TOOL_0
 5
211
 10
2954.399
 20
2413.778
 30
0
 11
3092.615
 21
2374.145
 31
0
 0
ARC
 8
TOOL_0
 5
212
 10
3100.843
 20
2403.11
 30
0
 40
30.110981534982
 50
254.141902526385
 51
267.856930583249
210
0
220
0
230
1.0
 0
LINE
 8
TOOL_0
 5
213
 10
3099.717
 20
2373.02
 30
0
 11
3460.53
 21
2373.002
 31
0
 0
ARC
 8
TOOL_0
 5
214
 10
3460.53
 20
2368.002
 30
0
 40
5.0
 50
0
 51
90.0
210
0
220
0
230
1.0
 0
LINE
 8
TOOL_0
 5
215
 10
3465.53
 20
2368.002
 30
0
 11
3465.53
 21
2297.002
 31
0
 0
ARC
 8
TOOL_0
 5
216
 10
3460.53
 20
2297.002
 30
0
 40
5.0
 50
270.0
 51
0
210
0
220
0
230
1.0
 0
LINE
 8
TOOL_0
 5
217
 10
3460.53
 20
2292.002
 30
0
 11
3456.469
 21
2289.079
 31
0
 0
LINE
 8
TOOL_0
 5
218
 10
3456.469
 20
2289.079
 30
0
 11
3085.799
 21
0.002
 31
0
 0
LINE
 8
TOOL_0
 5
219
 10
3085.799
 20
0.002
 30
0
 11
3085.799
 21
1.002
 31
0
 0
LINE
 8
TOOL_0
 5
21A
 10
3085.799
 20
1.002
 30
0
 11
3085.799
 21
0.002
 31
0
 0
LINE
 8
TOOL_0
 5
21B
 10
3085.799
 20
0.002
 30
0
 11
3085.799
 21
1.002
 31
0
 0
LINE
 8
TOOL_0
 5
21C
 10
3085.799
 20
1.002
 30
0
 11
3085.799
 21
2156.805
 31
0
 0
LINE
 8
TOOL_0
 5
21D
 10
3085.799
 20
2156.805
 30
0
 11
3563.042
 21
2156.805
 31
0
 0
LINE
 8
TOOL_0
 5
21E
 10
3563.042
 20
2156.805
 30
0
 11
3563.042
 21
2499.002
 31
0
 0
LINE
 8
TOOL_0
 5
21F
 10
3563.042
 20
2499.002
 30
0
 11
3563.042
 21
2500.002
 31
0
 0
ENDSEC
 0
EOF

