0
SECTION
2
TABLES
0
TABLE
2
LAYER
70
0
0
LAYER
2
LAYER_NAME
70
0
62
1
6
CONTINUOUS
0
ENDTAB
0
ENDSEC
 0
SECTION
 2
ENTITIES
 0
LINE
 8
TOOL_0
 5
1
 10
707.776
 20
573.963
 30
0
 11
752.776
 21
573.963
 31
0
 0
ARC
 8
TOOL_0
 5
2
 10
722.776
 20
573.963
 30
0
 40
30.0
 50
0
 51
180.0
210
0
220
0
230
1.0
 0
ARC
 8
TOOL_0
 5
3
 10
722.776
 20
573.963
 30
0
 40
30.0
 50
180.0
 51
0
210
0
220
0
230
1.0
 0
LINE
 8
TOOL_0
 5
4
 10
752.776
 20
573.963
 30
0
 11
1300.589
 21
131.098
 31
0
 0
LINE
 8
TOOL_0
 5
5
 10
1300.589
 20
131.098
 30
0
 11
1252.528
 21
144.885
 31
0
 0
LINE
 8
TOOL_0
 5
6
 10
1252.528
 20
144.885
 30
0
 11
1042.186
 21
28.32
 31
0
 0
ARC
 8
TOOL_0
 5
7
 10
1022.434
 20
63.963
 30
0
 40
40.750030098148
 50
271.054585618432
 51
298.993559201243
210
0
220
0
230
1.0
 0
LINE
 8
TOOL_0
 5
8
 10
1023.184
 20
23.22
 30
0
 11
1023.184
 21
19.213
 31
0
 0
LINE
 8
TOOL_0
 5
9
 10
1023.184
 20
19.213
 30
0
 11
432.026
 21
19.213
 31
0
 0
LINE
 8
TOOL_0
 5
A
 10
432.026
 20
19.213
 30
0
 11
432.026
 21
23.227
 31
0
 0
ARC
 8
TOOL_0
 5
B
 10
432.789
 20
43.976
 30
0
 40
20.763024105366
 50
180.033114158725
 51
267.894019444324
210
0
220
0
230
1.0
 0
LINE
 8
TOOL_0
 5
C
 10
412.026
 20
43.964
 30
0
 11
412.026
 21
78.964
 31
0
 0
ARC
 8
TOOL_0
 5
D
 10
392.776
 20
78.964
 30
0
 40
19.25
 50
0
 51
90.0
210
0
220
0
230
1.0
 0
LINE
 8
TOOL_0
 5
E
 10
392.776
 20
98.214
 30
0
 11
287.78
 21
98.214
 31
0
 0
ARC
 8
TOOL_0
 5
F
 10
287.816
 20
139.102
 30
0
 40
40.888015848168
 50
241.056048730066
 51
269.949553719197
210
0
220
0
230
1.0
 0
LINE
 8
TOOL_0
 5
10
 10
268.028
 20
103.321
 30
0
 11
193.024
 21
144.886
 31
0
 0
ARC
 8
TOOL_0
 5
11
 10
212.776
 20
180.529
 30
0
 40
40.750030098148
 50
180.0
 51
241.006440798756
210
0
220
0
230
1.0
 0
LINE
 8
TOOL_0
 5
12
 10
172.026
 20
180.529
 30
0
 11
172.026
 21
467.399
 31
0
 0
ARC
 8
TOOL_0
 5
13
 10
212.776
 20
467.399
 30
0
 40
40.75
 50
118.993559201243
 51
180.0
210
0
220
0
230
1.0
 0
LINE
 8
TOOL_0
 5
14
 10
193.024
 20
503.042
 30
0
 11
403.366
 21
619.607
 31
0
 0
ARC
 8
TOOL_0
 5
15
 10
423.154
 20
583.826
 30
0
 40
40.888200070436
 50
90.050446280803
 51
118.943951269934
210
0
220
0
230
1.0
 0
LINE
 8
TOOL_0
 5
16
 10
423.118
 20
624.714
 30
0
 11
1022.433
 21
624.714
 31
0
 0
ARC
 8
TOOL_0
 5
17
 10
1022.397
 20
583.826
 30
0
 40
40.888015848168
 50
61.056048730067
 51
89.949553719197
210
0
220
0
230
1.0
 0
LINE
 8
TOOL_0
 5
18
 10
1042.185
 20
619.607
 30
0
 11
1252.527
 21
503.042
 31
0
 0
ARC
 8
TOOL_0
 5
19
 10
1232.775
 20
467.399
 30
0
 40
40.750030098148
 50
0
 51
61.006440798757
210
0
220
0
230
1.0
 0
LINE
 8
TOOL_0
 5
1A
 10
1273.525
 20
467.399
 30
0
 11
1273.525
 21
180.528
 31
0
 0
ARC
 8
TOOL_0
 5
1B
 10
1232.775
 20
180.528
 30
0
 40
40.75
 50
298.993559201243
 51
0
210
0
220
0
230
1.0
 0
LINE
 8
TOOL_0
 5
1C
 10
1252.527
 20
144.885
 30
0
 11
1249.77
 21
135.273
 31
0
 0
LINE
 8
TOOL_0
 5
1D
 10
1249.77
 20
135.273
 30
0
 11
1797.117
 21
637.896
 31
0
 0
LINE
 8
TOOL_0
 5
1E
 10
1797.117
 20
637.896
 30
0
 11
1796.117
 21
637.896
 31
0
 0
LINE
 8
TOOL_0
 5
1F
 10
1796.117
 20
637.896
 30
0
 11
1797.117
 21
637.896
 31
0
 0
LINE
 8
TOOL_0
 5
20
 10
1797.117
 20
637.896
 30
0
 11
1796.117
 21
637.896
 31
0
 0
LINE
 8
TOOL_0
 5
21
 10
1796.117
 20
637.896
 30
0
 11
153.909
 21
637.896
 31
0
 0
LINE
 8
TOOL_0
 5
22
 10
153.909
 20
637.896
 30
0
 11
152.909
 21
637.896
 31
0
 0
ENDSEC
 0
EOF

