0
SECTION
2
TABLES
0
TABLE
2
LAYER
70
0
0
LAYER
2
LAYER_NAME
70
0
62
1
6
CONTINUOUS
0
ENDTAB
0
ENDSEC
 0
SECTION
 2
ENTITIES
 0
LINE
 8
TOOL_0
 5
1
 10
703.257
 20
698.628
 30
0
 11
733.257
 21
698.628
 31
0
 0
ARC
 8
TOOL_0
 5
2
 10
698.257
 20
698.628
 30
0
 40
35.0
 50
0
 51
180.0
210
0
220
0
230
1.0
 0
ARC
 8
TOOL_0
 5
3
 10
698.257
 20
698.628
 30
0
 40
35.0
 50
180.0
 51
0
210
0
220
0
230
1.0
 0
LINE
 8
TOOL_0
 5
4
 10
733.257
 20
698.628
 30
0
 11
729.721
 21
702.164
 31
0
 0
LINE
 8
TOOL_0
 5
5
 10
729.721
 20
702.164
 30
0
 11
1210.08
 21
217.266
 31
0
 0
LINE
 8
TOOL_0
 5
6
 10
1210.08
 20
217.266
 30
0
 11
1179.608
 21
217.255
 31
0
 0
ARC
 8
TOOL_0
 5
7
 10
698.256
 20
698.629
 30
0
 40
680.750083202345
 50
134.998512145745
 51
314.998690689616
210
0
220
0
230
1.0
 0
ARC
 8
TOOL_0
 5
8
 10
698.257
 20
698.629
 30
0
 40
680.750083236132
 50
314.998809717833
 51
134.998571661399
210
0
220
0
230
1.0
 0
LINE
 8
TOOL_0
 5
9
 10
1179.61
 20
217.256
 30
0
 11
1179.609
 21
212.179
 31
0
 0
LINE
 8
TOOL_0
 5
A
 10
1179.609
 20
212.179
 30
0
 11
869.001
 21
1519.19
 31
0
 0
LINE
 8
TOOL_0
 5
B
 10
869.001
 20
1519.19
 30
0
 11
838.671
 21
1518.93
 31
0
 0
ARC
 8
TOOL_0
 5
C
 10
498.751
 20
1858.893
 30
0
 40
480.749880674972
 50
134.996207715041
 51
314.996376261039
210
0
220
0
230
1.0
 0
ARC
 8
TOOL_0
 5
D
 10
498.751
 20
1858.893
 30
0
 40
480.749880766496
 50
314.996544807037
 51
134.996207715041
210
0
220
0
230
1.0
 0
LINE
 8
TOOL_0
 5
E
 10
838.672
 20
1518.931
 30
0
 11
838.671
 21
1513.821
 31
0
 0
LINE
 8
TOOL_0
 5
F
 10
838.671
 20
1513.821
 30
0
 11
1429.81
 21
123.252
 31
0
 0
LINE
 8
TOOL_0
 5
10
 10
1429.81
 20
123.252
 30
0
 11
1399.81
 21
123.252
 31
0
 0
LINE
 8
TOOL_0
 5
11
 10
1399.81
 20
123.252
 30
0
 11
1323.31
 21
123.252
 31
0
 0
LINE
 8
TOOL_0
 5
12
 10
1323.31
 20
123.252
 30
0
 11
1323.31
 21
229.752
 31
0
 0
LINE
 8
TOOL_0
 5
13
 10
1323.31
 20
229.752
 30
0
 11
1354.81
 21
229.752
 31
0
 0
LINE
 8
TOOL_0
 5
14
 10
1354.81
 20
229.752
 30
0
 11
1354.81
 21
159.752
 31
0
 0
LINE
 8
TOOL_0
 5
15
 10
1354.81
 20
159.752
 30
0
 11
1399.81
 21
159.752
 31
0
 0
LINE
 8
TOOL_0
 5
16
 10
1399.81
 20
159.752
 30
0
 11
1399.81
 21
123.252
 31
0
 0
LINE
 8
TOOL_0
 5
17
 10
1399.81
 20
123.252
 30
0
 11
1399.81
 21
118.252
 31
0
 0
LINE
 8
TOOL_0
 5
18
 10
1399.81
 20
118.252
 30
0
 11
2080.907
 21
698.63
 31
0
 0
LINE
 8
TOOL_0
 5
19
 10
2080.907
 20
698.63
 30
0
 11
2110.907
 21
698.63
 31
0
 0
ARC
 8
TOOL_0
 5
1A
 10
2075.907
 20
698.63
 30
0
 40
35.0
 50
0
 51
180.0
210
0
220
0
230
1.0
 0
ARC
 8
TOOL_0
 5
1B
 10
2075.907
 20
698.63
 30
0
 40
35.0
 50
180.0
 51
0
210
0
220
0
230
1.0
 0
LINE
 8
TOOL_0
 5
1C
 10
2110.907
 20
698.63
 30
0
 11
2107.371
 21
702.166
 31
0
 0
LINE
 8
TOOL_0
 5
1D
 10
2107.371
 20
702.166
 30
0
 11
2587.73
 21
217.268
 31
0
 0
LINE
 8
TOOL_0
 5
1E
 10
2587.73
 20
217.268
 30
0
 11
2557.258
 21
217.257
 31
0
 0
ARC
 8
TOOL_0
 5
1F
 10
2075.906
 20
698.631
 30
0
 40
680.750083202345
 50
134.998512145745
 51
314.998690689616
210
0
220
0
230
1.0
 0
ARC
 8
TOOL_0
 5
20
 10
2075.907
 20
698.631
 30
0
 40
680.750083236131
 50
314.998809717833
 51
134.998571661399
210
0
220
0
230
1.0
 0
LINE
 8
TOOL_0
 5
21
 10
2557.26
 20
217.258
 30
0
 11
2557.259
 21
212.181
 31
0
 0
LINE
 8
TOOL_0
 5
22
 10
2557.259
 20
212.181
 30
0
 11
1581.277
 21
1874.083
 31
0
 0
LINE
 8
TOOL_0
 5
23
 10
1581.277
 20
1874.083
 30
0
 11
1611.277
 21
1874.083
 31
0
 0
ARC
 8
TOOL_0
 5
24
 10
1576.277
 20
1874.083
 30
0
 40
35.0
 50
0
 51
180.0
210
0
220
0
230
1.0
 0
ARC
 8
TOOL_0
 5
25
 10
1576.277
 20
1874.083
 30
0
 40
35.0
 50
180.0
 51
0
210
0
220
0
230
1.0
 0
LINE
 8
TOOL_0
 5
26
 10
1611.277
 20
1874.083
 30
0
 11
1607.741
 21
1877.619
 31
0
 0
LINE
 8
TOOL_0
 5
27
 10
1607.741
 20
1877.619
 30
0
 11
2016.356
 21
1463.421
 31
0
 0
LINE
 8
TOOL_0
 5
28
 10
2016.356
 20
1463.421
 30
0
 11
1986.896
 21
1463.399
 31
0
 0
ARC
 8
TOOL_0
 5
29
 10
1576.277
 20
1874.084
 30
0
 40
580.749629690799
 50
134.995186430404
 51
314.995395710432
210
0
220
0
230
1.0
 0
ARC
 8
TOOL_0
 5
2A
 10
1576.276
 20
1874.084
 30
0
 40
580.749629924979
 50
314.995465477916
 51
134.99511666258
210
0
220
0
230
1.0
 0
LINE
 8
TOOL_0
 5
2B
 10
1986.896
 20
1463.399
 30
0
 11
1986.896
 21
1458.362
 31
0
 0
LINE
 8
TOOL_0
 5
2C
 10
1986.896
 20
1458.362
 30
0
 11
3354.069
 21
598.633
 31
0
 0
LINE
 8
TOOL_0
 5
2D
 10
3354.069
 20
598.633
 30
0
 11
3384.069
 21
598.633
 31
0
 0
ARC
 8
TOOL_0
 5
2E
 10
3349.069
 20
598.633
 30
0
 40
35.0
 50
0
 51
180.0
210
0
220
0
230
1.0
 0
ARC
 8
TOOL_0
 5
2F
 10
3349.069
 20
598.633
 30
0
 40
35.0
 50
180.0
 51
0
210
0
220
0
230
1.0
 0
LINE
 8
TOOL_0
 5
30
 10
3384.069
 20
598.633
 30
0
 11
3380.533
 21
602.169
 31
0
 0
LINE
 8
TOOL_0
 5
31
 10
3380.533
 20
602.169
 30
0
 11
3789.149
 21
187.971
 31
0
 0
LINE
 8
TOOL_0
 5
32
 10
3789.149
 20
187.971
 30
0
 11
3759.688
 21
187.948
 31
0
 0
ARC
 8
TOOL_0
 5
33
 10
3349.069
 20
598.633
 30
0
 40
580.749629690799
 50
134.995186430404
 51
314.995395710432
210
0
220
0
230
1.0
 0
ARC
 8
TOOL_0
 5
34
 10
3349.068
 20
598.633
 30
0
 40
580.749629924979
 50
314.995465477916
 51
134.99511666258
210
0
220
0
230
1.0
 0
LINE
 8
TOOL_0
 5
35
 10
3759.688
 20
187.948
 30
0
 11
3759.688
 21
182.911
 31
0
 0
LINE
 8
TOOL_0
 5
36
 10
3759.688
 20
182.911
 30
0
 11
2757.403
 21
1813.012
 31
0
 0
LINE
 8
TOOL_0
 5
37
 10
2757.403
 20
1813.012
 30
0
 11
2787.403
 21
1813.012
 31
0
 0
ARC
 8
TOOL_0
 5
38
 10
2752.403
 20
1813.012
 30
0
 40
35.0
 50
0
 51
180.0
210
0
220
0
230
1.0
 0
ARC
 8
TOOL_0
 5
39
 10
2752.403
 20
1813.012
 30
0
 40
35.0
 50
180.0
 51
0
210
0
220
0
230
1.0
 0
LINE
 8
TOOL_0
 5
3A
 10
2787.403
 20
1813.012
 30
0
 11
2783.867
 21
1816.548
 31
0
 0
LINE
 8
TOOL_0
 5
3B
 10
2783.867
 20
1816.548
 30
0
 11
3192.482
 21
1402.35
 31
0
 0
LINE
 8
TOOL_0
 5
3C
 10
3192.482
 20
1402.35
 30
0
 11
3163.022
 21
1402.327
 31
0
 0
ARC
 8
TOOL_0
 5
3D
 10
2752.403
 20
1813.012
 30
0
 40
580.749629690799
 50
134.995186430404
 51
314.995395710432
210
0
220
0
230
1.0
 0
ARC
 8
TOOL_0
 5
3E
 10
2752.402
 20
1813.012
 30
0
 40
580.749629924979
 50
314.995465477916
 51
134.99511666258
210
0
220
0
230
1.0
 0
LINE
 8
TOOL_0
 5
3F
 10
3163.022
 20
1402.327
 30
0
 11
3163.022
 21
1397.29
 31
0
 0
LINE
 8
TOOL_0
 5
40
 10
3163.022
 20
1397.29
 30
0
 11
3946.914
 21
0.005
 31
0
 0
LINE
 8
TOOL_0
 5
41
 10
3946.914
 20
0.005
 30
0
 11
3946.914
 21
1.005
 31
0
 0
LINE
 8
TOOL_0
 5
42
 10
3946.914
 20
1.005
 30
0
 11
3946.914
 21
0.005
 31
0
 0
LINE
 8
TOOL_0
 5
43
 10
3946.914
 20
0.005
 30
0
 11
3946.914
 21
1.005
 31
0
 0
LINE
 8
TOOL_0
 5
44
 10
3946.914
 20
1.005
 30
0
 11
3946.914
 21
1195.547
 31
0
 0
LINE
 8
TOOL_0
 5
45
 10
3946.914
 20
1195.547
 30
0
 11
3346.837
 21
1195.547
 31
0
 0
LINE
 8
TOOL_0
 5
46
 10
3346.837
 20
1195.547
 30
0
 11
3346.837
 21
2499.005
 31
0
 0
LINE
 8
TOOL_0
 5
47
 10
3346.837
 20
2499.005
 30
0
 11
3346.837
 21
2500.005
 31
0
 0
ENDSEC
 0
EOF

