0
SECTION
2
TABLES
0
TABLE
2
LAYER
70
0
0
LAYER
2
LAYER_NAME
70
0
62
1
6
CONTINUOUS
0
ENDTAB
0
ENDSEC
 0
SECTION
 2
ENTITIES
 0
LINE
 8
TOOL_0
 5
1
 10
2030.08
 20
19.429
 30
0
 11
2000.787
 21
19.429
 31
0
 0
LINE
 8
TOOL_0
 5
2
 10
2000.787
 20
19.429
 30
0
 11
1858.787
 21
19.429
 31
0
 0
LINE
 8
TOOL_0
 5
3
 10
1858.787
 20
19.429
 30
0
 11
1858.787
 21
151.429
 31
0
 0
LINE
 8
TOOL_0
 5
4
 10
1858.787
 20
151.429
 30
0
 11
2035.787
 21
151.429
 31
0
 0
LINE
 8
TOOL_0
 5
5
 10
2035.787
 20
151.429
 30
0
 11
2035.787
 21
66.813
 31
0
 0
LINE
 8
TOOL_0
 5
6
 10
2035.787
 20
66.813
 30
0
 11
2000.787
 21
42.306
 31
0
 0
LINE
 8
TOOL_0
 5
7
 10
2000.787
 20
42.306
 30
0
 11
2000.787
 21
19.429
 31
0
 0
LINE
 8
TOOL_0
 5
8
 10
2000.787
 20
19.429
 30
0
 11
2000.787
 21
9.272
 31
0
 0
LINE
 8
TOOL_0
 5
9
 10
2000.787
 20
9.272
 30
0
 11
2037.812
 21
179.799
 31
0
 0
LINE
 8
TOOL_0
 5
A
 10
2037.812
 20
179.799
 30
0
 11
2008.52
 21
179.799
 31
0
 0
LINE
 8
TOOL_0
 5
B
 10
2008.52
 20
179.799
 30
0
 11
1866.52
 21
179.799
 31
0
 0
LINE
 8
TOOL_0
 5
C
 10
1866.52
 20
179.799
 30
0
 11
1866.52
 21
311.799
 31
0
 0
LINE
 8
TOOL_0
 5
D
 10
1866.52
 20
311.799
 30
0
 11
2043.52
 21
311.799
 31
0
 0
LINE
 8
TOOL_0
 5
E
 10
2043.52
 20
311.799
 30
0
 11
2043.52
 21
227.183
 31
0
 0
LINE
 8
TOOL_0
 5
F
 10
2043.52
 20
227.183
 30
0
 11
2008.52
 21
202.676
 31
0
 0
LINE
 8
TOOL_0
 5
10
 10
2008.52
 20
202.676
 30
0
 11
2008.52
 21
179.799
 31
0
 0
LINE
 8
TOOL_0
 5
11
 10
2008.52
 20
179.799
 30
0
 11
2008.52
 21
169.642
 31
0
 0
LINE
 8
TOOL_0
 5
12
 10
2008.52
 20
169.642
 30
0
 11
2248.844
 21
19.195
 31
0
 0
LINE
 8
TOOL_0
 5
13
 10
2248.844
 20
19.195
 30
0
 11
2219.551
 21
19.195
 31
0
 0
LINE
 8
TOOL_0
 5
14
 10
2219.551
 20
19.195
 30
0
 11
2077.551
 21
19.195
 31
0
 0
LINE
 8
TOOL_0
 5
15
 10
2077.551
 20
19.195
 30
0
 11
2077.551
 21
151.195
 31
0
 0
LINE
 8
TOOL_0
 5
16
 10
2077.551
 20
151.195
 30
0
 11
2254.551
 21
151.195
 31
0
 0
LINE
 8
TOOL_0
 5
17
 10
2254.551
 20
151.195
 30
0
 11
2254.551
 21
66.579
 31
0
 0
LINE
 8
TOOL_0
 5
18
 10
2254.551
 20
66.579
 30
0
 11
2219.551
 21
42.072
 31
0
 0
LINE
 8
TOOL_0
 5
19
 10
2219.551
 20
42.072
 30
0
 11
2219.551
 21
19.195
 31
0
 0
LINE
 8
TOOL_0
 5
1A
 10
2219.551
 20
19.195
 30
0
 11
2219.551
 21
9.038
 31
0
 0
LINE
 8
TOOL_0
 5
1B
 10
2219.551
 20
9.038
 30
0
 11
2247.03
 21
181.549
 31
0
 0
LINE
 8
TOOL_0
 5
1C
 10
2247.03
 20
181.549
 30
0
 11
2217.738
 21
181.549
 31
0
 0
LINE
 8
TOOL_0
 5
1D
 10
2217.738
 20
181.549
 30
0
 11
2075.738
 21
181.549
 31
0
 0
LINE
 8
TOOL_0
 5
1E
 10
2075.738
 20
181.549
 30
0
 11
2075.738
 21
313.549
 31
0
 0
LINE
 8
TOOL_0
 5
1F
 10
2075.738
 20
313.549
 30
0
 11
2252.738
 21
313.549
 31
0
 0
LINE
 8
TOOL_0
 5
20
 10
2252.738
 20
313.549
 30
0
 11
2252.738
 21
228.933
 31
0
 0
LINE
 8
TOOL_0
 5
21
 10
2252.738
 20
228.933
 30
0
 11
2217.738
 21
204.426
 31
0
 0
LINE
 8
TOOL_0
 5
22
 10
2217.738
 20
204.426
 30
0
 11
2217.738
 21
181.549
 31
0
 0
LINE
 8
TOOL_0
 5
23
 10
2217.738
 20
181.549
 30
0
 11
2217.738
 21
171.392
 31
0
 0
LINE
 8
TOOL_0
 5
24
 10
2217.738
 20
171.392
 30
0
 11
2457.083
 21
19.007
 31
0
 0
LINE
 8
TOOL_0
 5
25
 10
2457.083
 20
19.007
 30
0
 11
2427.791
 21
19.007
 31
0
 0
LINE
 8
TOOL_0
 5
26
 10
2427.791
 20
19.007
 30
0
 11
2285.791
 21
19.007
 31
0
 0
LINE
 8
TOOL_0
 5
27
 10
2285.791
 20
19.007
 30
0
 11
2285.791
 21
151.007
 31
0
 0
LINE
 8
TOOL_0
 5
28
 10
2285.791
 20
151.007
 30
0
 11
2462.791
 21
151.007
 31
0
 0
LINE
 8
TOOL_0
 5
29
 10
2462.791
 20
151.007
 30
0
 11
2462.791
 21
66.391
 31
0
 0
LINE
 8
TOOL_0
 5
2A
 10
2462.791
 20
66.391
 30
0
 11
2427.791
 21
41.884
 31
0
 0
LINE
 8
TOOL_0
 5
2B
 10
2427.791
 20
41.884
 30
0
 11
2427.791
 21
19.007
 31
0
 0
LINE
 8
TOOL_0
 5
2C
 10
2427.791
 20
19.007
 30
0
 11
2427.791
 21
8.85
 31
0
 0
LINE
 8
TOOL_0
 5
2D
 10
2427.791
 20
8.85
 30
0
 11
2456.713
 21
179.401
 31
0
 0
LINE
 8
TOOL_0
 5
2E
 10
2456.713
 20
179.401
 30
0
 11
2427.42
 21
179.401
 31
0
 0
LINE
 8
TOOL_0
 5
2F
 10
2427.42
 20
179.401
 30
0
 11
2285.42
 21
179.401
 31
0
 0
LINE
 8
TOOL_0
 5
30
 10
2285.42
 20
179.401
 30
0
 11
2285.42
 21
311.401
 31
0
 0
LINE
 8
TOOL_0
 5
31
 10
2285.42
 20
311.401
 30
0
 11
2462.42
 21
311.401
 31
0
 0
LINE
 8
TOOL_0
 5
32
 10
2462.42
 20
311.401
 30
0
 11
2462.42
 21
226.785
 31
0
 0
LINE
 8
TOOL_0
 5
33
 10
2462.42
 20
226.785
 30
0
 11
2427.42
 21
202.278
 31
0
 0
LINE
 8
TOOL_0
 5
34
 10
2427.42
 20
202.278
 30
0
 11
2427.42
 21
179.401
 31
0
 0
LINE
 8
TOOL_0
 5
35
 10
2427.42
 20
179.401
 30
0
 11
2427.42
 21
169.244
 31
0
 0
LINE
 8
TOOL_0
 5
36
 10
2427.42
 20
169.244
 30
0
 11
2677.665
 21
19.085
 31
0
 0
LINE
 8
TOOL_0
 5
37
 10
2677.665
 20
19.085
 30
0
 11
2648.372
 21
19.085
 31
0
 0
LINE
 8
TOOL_0
 5
38
 10
2648.372
 20
19.085
 30
0
 11
2506.372
 21
19.085
 31
0
 0
LINE
 8
TOOL_0
 5
39
 10
2506.372
 20
19.085
 30
0
 11
2506.372
 21
151.085
 31
0
 0
LINE
 8
TOOL_0
 5
3A
 10
2506.372
 20
151.085
 30
0
 11
2683.372
 21
151.085
 31
0
 0
LINE
 8
TOOL_0
 5
3B
 10
2683.372
 20
151.085
 30
0
 11
2683.372
 21
66.469
 31
0
 0
LINE
 8
TOOL_0
 5
3C
 10
2683.372
 20
66.469
 30
0
 11
2648.372
 21
41.962
 31
0
 0
LINE
 8
TOOL_0
 5
3D
 10
2648.372
 20
41.962
 30
0
 11
2648.372
 21
19.085
 31
0
 0
LINE
 8
TOOL_0
 5
3E
 10
2648.372
 20
19.085
 30
0
 11
2648.372
 21
8.928
 31
0
 0
LINE
 8
TOOL_0
 5
3F
 10
2648.372
 20
8.928
 30
0
 11
2671.479
 21
179.384
 31
0
 0
LINE
 8
TOOL_0
 5
40
 10
2671.479
 20
179.384
 30
0
 11
2642.187
 21
179.384
 31
0
 0
LINE
 8
TOOL_0
 5
41
 10
2642.187
 20
179.384
 30
0
 11
2500.187
 21
179.384
 31
0
 0
LINE
 8
TOOL_0
 5
42
 10
2500.187
 20
179.384
 30
0
 11
2500.187
 21
311.384
 31
0
 0
LINE
 8
TOOL_0
 5
43
 10
2500.187
 20
311.384
 30
0
 11
2677.187
 21
311.384
 31
0
 0
LINE
 8
TOOL_0
 5
44
 10
2677.187
 20
311.384
 30
0
 11
2677.187
 21
226.768
 31
0
 0
LINE
 8
TOOL_0
 5
45
 10
2677.187
 20
226.768
 30
0
 11
2642.187
 21
202.261
 31
0
 0
LINE
 8
TOOL_0
 5
46
 10
2642.187
 20
202.261
 30
0
 11
2642.187
 21
179.384
 31
0
 0
LINE
 8
TOOL_0
 5
47
 10
2642.187
 20
179.384
 30
0
 11
2642.187
 21
169.227
 31
0
 0
LINE
 8
TOOL_0
 5
48
 10
2642.187
 20
169.227
 30
0
 11
2889.561
 21
19.093
 31
0
 0
LINE
 8
TOOL_0
 5
49
 10
2889.561
 20
19.093
 30
0
 11
2860.269
 21
19.093
 31
0
 0
LINE
 8
TOOL_0
 5
4A
 10
2860.269
 20
19.093
 30
0
 11
2718.269
 21
19.093
 31
0
 0
LINE
 8
TOOL_0
 5
4B
 10
2718.269
 20
19.093
 30
0
 11
2718.269
 21
151.093
 31
0
 0
LINE
 8
TOOL_0
 5
4C
 10
2718.269
 20
151.093
 30
0
 11
2895.269
 21
151.093
 31
0
 0
LINE
 8
TOOL_0
 5
4D
 10
2895.269
 20
151.093
 30
0
 11
2895.269
 21
66.477
 31
0
 0
LINE
 8
TOOL_0
 5
4E
 10
2895.269
 20
66.477
 30
0
 11
2860.269
 21
41.97
 31
0
 0
LINE
 8
TOOL_0
 5
4F
 10
2860.269
 20
41.97
 30
0
 11
2860.269
 21
19.093
 31
0
 0
LINE
 8
TOOL_0
 5
50
 10
2860.269
 20
19.093
 30
0
 11
2860.269
 21
8.936
 31
0
 0
LINE
 8
TOOL_0
 5
51
 10
2860.269
 20
8.936
 30
0
 11
1839.747
 21
326.407
 31
0
 0
LINE
 8
TOOL_0
 5
52
 10
1839.747
 20
326.407
 30
0
 11
2707.244
 21
326.407
 31
0
 0
LINE
 8
TOOL_0
 5
53
 10
2707.244
 20
326.407
 30
0
 11
2707.244
 21
155.332
 31
0
 0
LINE
 8
TOOL_0
 5
54
 10
2707.244
 20
155.332
 30
0
 11
2938.0
 21
155.332
 31
0
 0
LINE
 8
TOOL_0
 5
55
 10
2938.0
 20
155.332
 30
0
 11
2939.0
 21
155.332
 31
0
 0
ENDSEC
 0
EOF

