0
SECTION
2
TABLES
0
TABLE
2
LAYER
70
0
0
LAYER
2
LAYER_NAME
70
0
62
1
6
CONTINUOUS
0
ENDTAB
0
ENDSEC
 0
SECTION
 2
ENTITIES
 0
LINE
 8
TOOL_0
 5
1
 10
1245.798
 20
-1617.09
 30
0
 11
1295.315
 21
-1610.163
 31
0
 0
ARC
 8
TOOL_0
 5
2
 10
1225.0
 20
-1619.999
 30
0
 40
70.999620569409
 50
7.963136930711
 51
187.962225939239
210
0
220
0
230
1.0
 0
ARC
 8
TOOL_0
 5
3
 10
1224.999
 20
-1619.998
 30
0
 40
70.999620569409
 50
187.963136930711
 51
7.962225939239
210
0
220
0
230
1.0
 0
ARC
 8
TOOL_0
 5
4
 10
1287.392
 20
-1611.271
 30
0
 40
8.00009956188
 50
7.960957285618
 51
65.260873744908
210
0
220
0
230
1.0
 0
LINE
 8
TOOL_0
 5
5
 10
1290.74
 20
-1604.005
 30
0
 11
4597.271
 21
-1140.26
 31
0
 0
ARC
 8
TOOL_0
 5
6
 10
4594.999
 20
-1149.998
 30
0
 40
9.99953138902
 50
76.867093685726
 51
180.0
210
0
220
0
230
1.0
 0
LINE
 8
TOOL_0
 5
7
 10
4584.999
 20
-1149.998
 30
0
 11
4584.999
 21
-2089.998
 31
0
 0
LINE
 8
TOOL_0
 5
8
 10
4584.999
 20
-2089.998
 30
0
 11
9.999
 21
-2089.998
 31
0
 0
LINE
 8
TOOL_0
 5
9
 10
9.999
 20
-2089.998
 30
0
 11
9.999
 21
-1149.998
 31
0
 0
LINE
 8
TOOL_0
 5
A
 10
9.999
 20
-1149.998
 30
0
 11
4584.999
 21
-1149.998
 31
0
 0
LINE
 8
TOOL_0
 5
B
 10
4584.999
 20
-1149.998
 30
0
 11
4590.656
 21
-1144.341
 31
0
 0
LINE
 8
TOOL_0
 5
C
 10
4590.656
 20
-1144.341
 30
0
 11
1245.797
 21
-658.789
 31
0
 0
LINE
 8
TOOL_0
 5
D
 10
1245.797
 20
-658.789
 30
0
 11
1295.314
 21
-651.863
 31
0
 0
ARC
 8
TOOL_0
 5
E
 10
1224.999
 20
-661.699
 30
0
 40
70.999620569409
 50
7.963136930711
 51
187.962225939239
210
0
220
0
230
1.0
 0
ARC
 8
TOOL_0
 5
F
 10
1224.998
 20
-661.698
 30
0
 40
70.999620569409
 50
187.963136930711
 51
7.962225939239
210
0
220
0
230
1.0
 0
ARC
 8
TOOL_0
 5
10
 10
1287.391
 20
-652.971
 30
0
 40
8.00009956188
 50
7.960957285618
 51
65.260873744908
210
0
220
0
230
1.0
 0
LINE
 8
TOOL_0
 5
11
 10
1290.739
 20
-645.705
 30
0
 11
4584.998
 21
-176.698
 31
0
 0
LINE
 8
TOOL_0
 5
12
 10
4584.998
 20
-176.698
 30
0
 11
4584.998
 21
-191.698
 31
0
 0
LINE
 8
TOOL_0
 5
13
 10
4584.998
 20
-191.698
 30
0
 11
4584.998
 21
-1131.698
 31
0
 0
LINE
 8
TOOL_0
 5
14
 10
4584.998
 20
-1131.698
 30
0
 11
9.998
 21
-1131.698
 31
0
 0
LINE
 8
TOOL_0
 5
15
 10
9.998
 20
-1131.698
 30
0
 11
9.998
 21
-191.698
 31
0
 0
LINE
 8
TOOL_0
 5
16
 10
9.998
 20
-191.698
 30
0
 11
4584.998
 21
-191.698
 31
0
 0
LINE
 8
TOOL_0
 5
17
 10
4584.998
 20
-191.698
 30
0
 11
4592.998
 21
-191.698
 31
0
 0
LINE
 8
TOOL_0
 5
18
 10
4592.998
 20
-191.698
 30
0
 11
5129.146
 21
-1276.763
 31
0
 0
LINE
 8
TOOL_0
 5
19
 10
5129.146
 20
-1276.763
 30
0
 11
5155.437
 21
-1319.292
 31
0
 0
ARC
 8
TOOL_0
 5
1A
 10
5118.104
 20
-1258.9
 30
0
 40
70.999623611678
 50
301.723440713232
 51
121.723016388616
210
0
220
0
230
1.0
 0
ARC
 8
TOOL_0
 5
1B
 10
5118.104
 20
-1258.899
 30
0
 40
70.999623611678
 50
121.723440713232
 51
301.723016388617
210
0
220
0
230
1.0
 0
ARC
 8
TOOL_0
 5
1C
 10
5151.23
 20
-1312.487
 30
0
 40
8.000429613465
 50
301.72526430525
 51
359.018783047274
210
0
220
0
230
1.0
 0
LINE
 8
TOOL_0
 5
1D
 10
5159.229
 20
-1312.624
 30
0
 11
5643.103
 21
-2083.899
 31
0
 0
LINE
 8
TOOL_0
 5
1E
 10
5643.103
 20
-2083.899
 30
0
 11
5628.103
 21
-2083.899
 31
0
 0
LINE
 8
TOOL_0
 5
1F
 10
5628.103
 20
-2083.899
 30
0
 11
4603.103
 21
-2083.899
 31
0
 0
LINE
 8
TOOL_0
 5
20
 10
4603.103
 20
-2083.899
 30
0
 11
4603.103
 21
-468.899
 31
0
 0
LINE
 8
TOOL_0
 5
21
 10
4603.103
 20
-468.899
 30
0
 11
5628.103
 21
-468.899
 31
0
 0
LINE
 8
TOOL_0
 5
22
 10
5628.103
 20
-468.899
 30
0
 11
5628.103
 21
-2083.899
 31
0
 0
LINE
 8
TOOL_0
 5
23
 10
5628.103
 20
-2083.899
 30
0
 11
5628.103
 21
-2091.899
 31
0
 0
LINE
 8
TOOL_0
 5
24
 10
5628.103
 20
-2091.899
 30
0
 11
4892.501
 21
-380.772
 31
0
 0
LINE
 8
TOOL_0
 5
25
 10
4892.501
 20
-380.772
 30
0
 11
4942.501
 21
-380.772
 31
0
 0
ARC
 8
TOOL_0
 5
26
 10
4902.501
 20
-380.772
 30
0
 40
40.0
 50
0
 51
90.0
210
0
220
0
230
1.0
 0
LINE
 8
TOOL_0
 5
27
 10
4902.501
 20
-340.772
 30
0
 11
4832.501
 21
-340.772
 31
0
 0
ARC
 8
TOOL_0
 5
28
 10
4832.501
 20
-380.772
 30
0
 40
40.0
 50
90.0
 51
270.0
210
0
220
0
230
1.0
 0
LINE
 8
TOOL_0
 5
29
 10
4832.501
 20
-420.772
 30
0
 11
4902.501
 21
-420.772
 31
0
 0
ARC
 8
TOOL_0
 5
2A
 10
4902.501
 20
-380.772
 30
0
 40
40.0
 50
270.0
 51
0
210
0
220
0
230
1.0
 0
ARC
 8
TOOL_0
 5
2B
 10
4934.501
 20
-380.772
 30
0
 40
8.0
 50
0
 51
57.299199559757
210
0
220
0
230
1.0
 0
LINE
 8
TOOL_0
 5
2C
 10
4938.823
 20
-374.04
 30
0
 11
5127.239
 21
-463.043
 31
0
 0
ARC
 8
TOOL_0
 5
2D
 10
5117.5
 20
-460.771
 30
0
 40
10.000505237236
 50
346.868395441071
 51
90.0
210
0
220
0
230
1.0
 0
LINE
 8
TOOL_0
 5
2E
 10
5117.5
 20
-450.771
 30
0
 11
4617.5
 21
-450.771
 31
0
 0
LINE
 8
TOOL_0
 5
2F
 10
4617.5
 20
-450.771
 30
0
 11
4617.5
 21
-100.771
 31
0
 0
LINE
 8
TOOL_0
 5
30
 10
4617.5
 20
-100.771
 30
0
 11
5117.5
 21
-100.771
 31
0
 0
LINE
 8
TOOL_0
 5
31
 10
5117.5
 20
-100.771
 30
0
 11
5117.5
 21
-450.771
 31
0
 0
LINE
 8
TOOL_0
 5
32
 10
5117.5
 20
-450.771
 30
0
 11
5123.157
 21
-456.428
 31
0
 0
LINE
 8
TOOL_0
 5
33
 10
5123.157
 20
-456.428
 30
0
 11
5410.534
 21
-380.771
 31
0
 0
LINE
 8
TOOL_0
 5
34
 10
5410.534
 20
-380.771
 30
0
 11
5460.534
 21
-380.771
 31
0
 0
ARC
 8
TOOL_0
 5
35
 10
5420.534
 20
-380.771
 30
0
 40
40.0
 50
0
 51
90.0
210
0
220
0
230
1.0
 0
LINE
 8
TOOL_0
 5
36
 10
5420.534
 20
-340.771
 30
0
 11
5350.534
 21
-340.771
 31
0
 0
ARC
 8
TOOL_0
 5
37
 10
5350.534
 20
-380.771
 30
0
 40
40.0
 50
90.0
 51
270.0
210
0
220
0
230
1.0
 0
LINE
 8
TOOL_0
 5
38
 10
5350.534
 20
-420.771
 30
0
 11
5420.534
 21
-420.771
 31
0
 0
ARC
 8
TOOL_0
 5
39
 10
5420.534
 20
-380.771
 30
0
 40
40.0
 50
270.0
 51
0
210
0
220
0
230
1.0
 0
ARC
 8
TOOL_0
 5
3A
 10
5452.534
 20
-380.771
 30
0
 40
8.0
 50
0
 51
57.299199559757
210
0
220
0
230
1.0
 0
LINE
 8
TOOL_0
 5
3B
 10
5456.856
 20
-374.039
 30
0
 11
5650.533
 21
-450.77
 31
0
 0
LINE
 8
TOOL_0
 5
3C
 10
5650.533
 20
-450.77
 30
0
 11
5635.533
 21
-450.77
 31
0
 0
LINE
 8
TOOL_0
 5
3D
 10
5635.533
 20
-450.77
 30
0
 11
5135.533
 21
-450.77
 31
0
 0
LINE
 8
TOOL_0
 5
3E
 10
5135.533
 20
-450.77
 30
0
 11
5135.533
 21
-100.77
 31
0
 0
LINE
 8
TOOL_0
 5
3F
 10
5135.533
 20
-100.77
 30
0
 11
5635.533
 21
-100.77
 31
0
 0
LINE
 8
TOOL_0
 5
40
 10
5635.533
 20
-100.77
 30
0
 11
5635.533
 21
-450.77
 31
0
 0
LINE
 8
TOOL_0
 5
41
 10
5635.533
 20
-450.77
 30
0
 11
5635.533
 21
-458.77
 31
0
 0
ENDSEC
 0
EOF

