0
SECTION
2
TABLES
0
TABLE
2
LAYER
70
0
0
LAYER
2
LAYER_NAME
70
0
62
1
6
CONTINUOUS
0
ENDTAB
0
ENDSEC
 0
SECTION
 2
ENTITIES
 0
LINE
 8
TOOL_0
 5
1
 10
1245.798
 20
-1617.09
 30
0
 11
1295.315
 21
-1610.163
 31
0
 0
ARC
 8
TOOL_0
 5
2
 10
1225.0
 20
-1619.999
 30
0
 40
70.999620569409
 50
7.963136930711
 51
187.962225939239
210
0
220
0
230
1.0
 0
ARC
 8
TOOL_0
 5
3
 10
1224.999
 20
-1619.998
 30
0
 40
70.999620569409
 50
187.963136930711
 51
7.962225939239
210
0
220
0
230
1.0
 0
ARC
 8
TOOL_0
 5
4
 10
1287.392
 20
-1611.271
 30
0
 40
8.00009956188
 50
7.960957285618
 51
65.260873744908
210
0
220
0
230
1.0
 0
LINE
 8
TOOL_0
 5
5
 10
1290.74
 20
-1604.005
 30
0
 11
4597.271
 21
-1140.26
 31
0
 0
ARC
 8
TOOL_0
 5
6
 10
4594.999
 20
-1149.998
 30
0
 40
9.99953138902
 50
76.867093685726
 51
180.0
210
0
220
0
230
1.0
 0
LINE
 8
TOOL_0
 5
7
 10
4584.999
 20
-1149.998
 30
0
 11
4584.999
 21
-2089.998
 31
0
 0
LINE
 8
TOOL_0
 5
8
 10
4584.999
 20
-2089.998
 30
0
 11
9.999
 21
-2089.998
 31
0
 0
LINE
 8
TOOL_0
 5
9
 10
9.999
 20
-2089.998
 30
0
 11
9.999
 21
-1149.998
 31
0
 0
LINE
 8
TOOL_0
 5
A
 10
9.999
 20
-1149.998
 30
0
 11
4584.999
 21
-1149.998
 31
0
 0
LINE
 8
TOOL_0
 5
B
 10
4584.999
 20
-1149.998
 30
0
 11
4590.656
 21
-1144.341
 31
0
 0
LINE
 8
TOOL_0
 5
C
 10
4590.656
 20
-1144.341
 30
0
 11
1245.797
 21
-658.789
 31
0
 0
LINE
 8
TOOL_0
 5
D
 10
1245.797
 20
-658.789
 30
0
 11
1295.314
 21
-651.863
 31
0
 0
ARC
 8
TOOL_0
 5
E
 10
1224.999
 20
-661.699
 30
0
 40
70.999620569409
 50
7.963136930711
 51
187.962225939239
210
0
220
0
230
1.0
 0
ARC
 8
TOOL_0
 5
F
 10
1224.998
 20
-661.698
 30
0
 40
70.999620569409
 50
187.963136930711
 51
7.962225939239
210
0
220
0
230
1.0
 0
ARC
 8
TOOL_0
 5
10
 10
1287.391
 20
-652.971
 30
0
 40
8.00009956188
 50
7.960957285618
 51
65.260873744908
210
0
220
0
230
1.0
 0
LINE
 8
TOOL_0
 5
11
 10
1290.739
 20
-645.705
 30
0
 11
4584.998
 21
-176.698
 31
0
 0
LINE
 8
TOOL_0
 5
12
 10
4584.998
 20
-176.698
 30
0
 11
4584.998
 21
-191.698
 31
0
 0
LINE
 8
TOOL_0
 5
13
 10
4584.998
 20
-191.698
 30
0
 11
4584.998
 21
-1131.698
 31
0
 0
LINE
 8
TOOL_0
 5
14
 10
4584.998
 20
-1131.698
 30
0
 11
9.998
 21
-1131.698
 31
0
 0
LINE
 8
TOOL_0
 5
15
 10
9.998
 20
-1131.698
 30
0
 11
9.998
 21
-191.698
 31
0
 0
LINE
 8
TOOL_0
 5
16
 10
9.998
 20
-191.698
 30
0
 11
4584.998
 21
-191.698
 31
0
 0
LINE
 8
TOOL_0
 5
17
 10
4584.998
 20
-191.698
 30
0
 11
4592.998
 21
-191.698
 31
0
 0
LINE
 8
TOOL_0
 5
18
 10
4592.998
 20
-191.698
 30
0
 11
5527.323
 21
-2090.898
 31
0
 0
LINE
 8
TOOL_0
 5
19
 10
5527.323
 20
-2090.898
 30
0
 11
5512.323
 21
-2090.898
 31
0
 0
LINE
 8
TOOL_0
 5
1A
 10
5512.323
 20
-2090.898
 30
0
 11
4602.323
 21
-2090.898
 31
0
 0
LINE
 8
TOOL_0
 5
1B
 10
4602.323
 20
-2090.898
 30
0
 11
4602.323
 21
-475.898
 31
0
 0
LINE
 8
TOOL_0
 5
1C
 10
4602.323
 20
-475.898
 30
0
 11
4777.323
 21
-475.898
 31
0
 0
LINE
 8
TOOL_0
 5
1D
 10
4777.323
 20
-475.898
 30
0
 11
5512.323
 21
-743.416
 31
0
 0
LINE
 8
TOOL_0
 5
1E
 10
5512.323
 20
-743.416
 30
0
 11
5512.323
 21
-2090.898
 31
0
 0
LINE
 8
TOOL_0
 5
1F
 10
5512.323
 20
-2090.898
 30
0
 11
5512.323
 21
-2098.898
 31
0
 0
LINE
 8
TOOL_0
 5
20
 10
5512.323
 20
-2098.898
 30
0
 11
5783.784
 21
-1776.211
 31
0
 0
LINE
 8
TOOL_0
 5
21
 10
5783.784
 20
-1776.211
 30
0
 11
5819.139
 21
-1740.856
 31
0
 0
ARC
 8
TOOL_0
 5
22
 10
5804.997
 20
-1754.998
 30
0
 40
19.99980819908
 50
45.0
 51
90.0
210
0
220
0
230
1.0
 0
LINE
 8
TOOL_0
 5
23
 10
5804.997
 20
-1734.998
 30
0
 11
5674.997
 21
-1734.998
 31
0
 0
ARC
 8
TOOL_0
 5
24
 10
5674.997
 20
-1754.998
 30
0
 40
20.0
 50
90.0
 51
180.0
210
0
220
0
230
1.0
 0
LINE
 8
TOOL_0
 5
25
 10
5654.997
 20
-1754.998
 30
0
 11
5654.997
 21
-1924.998
 31
0
 0
ARC
 8
TOOL_0
 5
26
 10
5674.997
 20
-1924.998
 30
0
 40
20.0
 50
180.0
 51
270.0
210
0
220
0
230
1.0
 0
LINE
 8
TOOL_0
 5
27
 10
5674.997
 20
-1944.998
 30
0
 11
5804.997
 21
-1944.998
 31
0
 0
ARC
 8
TOOL_0
 5
28
 10
5804.997
 20
-1924.998
 30
0
 40
20.0
 50
270.0
 51
0
210
0
220
0
230
1.0
 0
LINE
 8
TOOL_0
 5
29
 10
5824.997
 20
-1924.998
 30
0
 11
5824.997
 21
-1754.998
 31
0
 0
ARC
 8
TOOL_0
 5
2A
 10
5804.997
 20
-1754.998
 30
0
 40
20.0
 50
0
 51
45.0
210
0
220
0
230
1.0
 0
ARC
 8
TOOL_0
 5
2B
 10
5813.482
 20
-1746.513
 30
0
 40
8.000206122345
 50
44.999999999999
 51
102.290332367337
210
0
220
0
230
1.0
 0
LINE
 8
TOOL_0
 5
2C
 10
5811.779
 20
-1738.696
 30
0
 11
5889.997
 21
-1582.498
 31
0
 0
LINE
 8
TOOL_0
 5
2D
 10
5889.997
 20
-1582.498
 30
0
 11
5889.997
 21
-1589.998
 31
0
 0
LINE
 8
TOOL_0
 5
2E
 10
5889.997
 20
-1589.998
 30
0
 11
5889.997
 21
-2089.998
 31
0
 0
LINE
 8
TOOL_0
 5
2F
 10
5889.997
 20
-2089.998
 30
0
 11
5539.997
 21
-2089.998
 31
0
 0
LINE
 8
TOOL_0
 5
30
 10
5539.997
 20
-2089.998
 30
0
 11
5539.997
 21
-1589.998
 31
0
 0
LINE
 8
TOOL_0
 5
31
 10
5539.997
 20
-1589.998
 30
0
 11
5889.997
 21
-1589.998
 31
0
 0
LINE
 8
TOOL_0
 5
32
 10
5889.997
 20
-1589.998
 30
0
 11
5893.997
 21
-1589.998
 31
0
 0
LINE
 8
TOOL_0
 5
33
 10
5893.997
 20
-1589.998
 30
0
 11
5783.784
 21
-1258.091
 31
0
 0
LINE
 8
TOOL_0
 5
34
 10
5783.784
 20
-1258.091
 30
0
 11
5819.139
 21
-1222.735
 31
0
 0
ARC
 8
TOOL_0
 5
35
 10
5804.997
 20
-1236.877
 30
0
 40
19.99980819908
 50
45.0
 51
90.0
210
0
220
0
230
1.0
 0
LINE
 8
TOOL_0
 5
36
 10
5804.997
 20
-1216.877
 30
0
 11
5674.997
 21
-1216.877
 31
0
 0
ARC
 8
TOOL_0
 5
37
 10
5674.997
 20
-1236.877
 30
0
 40
20.0
 50
90.0
 51
180.0
210
0
220
0
230
1.0
 0
LINE
 8
TOOL_0
 5
38
 10
5654.997
 20
-1236.877
 30
0
 11
5654.997
 21
-1406.877
 31
0
 0
ARC
 8
TOOL_0
 5
39
 10
5674.997
 20
-1406.877
 30
0
 40
20.0
 50
180.0
 51
270.0
210
0
220
0
230
1.0
 0
LINE
 8
TOOL_0
 5
3A
 10
5674.997
 20
-1426.877
 30
0
 11
5804.997
 21
-1426.877
 31
0
 0
ARC
 8
TOOL_0
 5
3B
 10
5804.997
 20
-1406.877
 30
0
 40
20.0
 50
270.0
 51
0
210
0
220
0
230
1.0
 0
LINE
 8
TOOL_0
 5
3C
 10
5824.997
 20
-1406.877
 30
0
 11
5824.997
 21
-1236.877
 31
0
 0
ARC
 8
TOOL_0
 5
3D
 10
5804.997
 20
-1236.877
 30
0
 40
20.0
 50
0
 51
45.0
210
0
220
0
230
1.0
 0
ARC
 8
TOOL_0
 5
3E
 10
5813.482
 20
-1228.392
 30
0
 40
8.000206122345
 50
44.999999999999
 51
102.290332367337
210
0
220
0
230
1.0
 0
LINE
 8
TOOL_0
 5
3F
 10
5811.779
 20
-1220.575
 30
0
 11
5889.997
 21
-1064.377
 31
0
 0
LINE
 8
TOOL_0
 5
40
 10
5889.997
 20
-1064.377
 30
0
 11
5889.997
 21
-1071.877
 31
0
 0
LINE
 8
TOOL_0
 5
41
 10
5889.997
 20
-1071.877
 30
0
 11
5889.997
 21
-1571.877
 31
0
 0
LINE
 8
TOOL_0
 5
42
 10
5889.997
 20
-1571.877
 30
0
 11
5539.997
 21
-1571.877
 31
0
 0
LINE
 8
TOOL_0
 5
43
 10
5539.997
 20
-1571.877
 30
0
 11
5539.997
 21
-1071.877
 31
0
 0
LINE
 8
TOOL_0
 5
44
 10
5539.997
 20
-1071.877
 30
0
 11
5889.997
 21
-1071.877
 31
0
 0
LINE
 8
TOOL_0
 5
45
 10
5889.997
 20
-1071.877
 30
0
 11
5893.997
 21
-1071.877
 31
0
 0
LINE
 8
TOOL_0
 5
46
 10
5893.997
 20
-1071.877
 30
0
 11
5783.784
 21
-739.79
 31
0
 0
LINE
 8
TOOL_0
 5
47
 10
5783.784
 20
-739.79
 30
0
 11
5819.139
 21
-704.434
 31
0
 0
ARC
 8
TOOL_0
 5
48
 10
5804.997
 20
-718.576
 30
0
 40
19.99980819908
 50
45.0
 51
90.0
210
0
220
0
230
1.0
 0
LINE
 8
TOOL_0
 5
49
 10
5804.997
 20
-698.576
 30
0
 11
5674.997
 21
-698.576
 31
0
 0
ARC
 8
TOOL_0
 5
4A
 10
5674.997
 20
-718.576
 30
0
 40
20.0
 50
90.0
 51
180.0
210
0
220
0
230
1.0
 0
LINE
 8
TOOL_0
 5
4B
 10
5654.997
 20
-718.576
 30
0
 11
5654.997
 21
-888.576
 31
0
 0
ARC
 8
TOOL_0
 5
4C
 10
5674.997
 20
-888.576
 30
0
 40
20.0
 50
180.0
 51
270.0
210
0
220
0
230
1.0
 0
LINE
 8
TOOL_0
 5
4D
 10
5674.997
 20
-908.576
 30
0
 11
5804.997
 21
-908.576
 31
0
 0
ARC
 8
TOOL_0
 5
4E
 10
5804.997
 20
-888.576
 30
0
 40
20.0
 50
270.0
 51
0
210
0
220
0
230
1.0
 0
LINE
 8
TOOL_0
 5
4F
 10
5824.997
 20
-888.576
 30
0
 11
5824.997
 21
-718.576
 31
0
 0
ARC
 8
TOOL_0
 5
50
 10
5804.997
 20
-718.576
 30
0
 40
20.0
 50
0
 51
45.0
210
0
220
0
230
1.0
 0
ARC
 8
TOOL_0
 5
51
 10
5813.482
 20
-710.091
 30
0
 40
8.000206122345
 50
44.999999999999
 51
102.290332367337
210
0
220
0
230
1.0
 0
LINE
 8
TOOL_0
 5
52
 10
5811.779
 20
-702.274
 30
0
 11
5889.997
 21
-546.075
 31
0
 0
LINE
 8
TOOL_0
 5
53
 10
5889.997
 20
-546.075
 30
0
 11
5889.997
 21
-553.575
 31
0
 0
LINE
 8
TOOL_0
 5
54
 10
5889.997
 20
-553.575
 30
0
 11
5889.997
 21
-1053.575
 31
0
 0
LINE
 8
TOOL_0
 5
55
 10
5889.997
 20
-1053.575
 30
0
 11
5539.997
 21
-1053.575
 31
0
 0
LINE
 8
TOOL_0
 5
56
 10
5539.997
 20
-1053.575
 30
0
 11
5539.997
 21
-553.575
 31
0
 0
LINE
 8
TOOL_0
 5
57
 10
5539.997
 20
-553.575
 30
0
 11
5889.997
 21
-553.575
 31
0
 0
LINE
 8
TOOL_0
 5
58
 10
5889.997
 20
-553.575
 30
0
 11
5893.997
 21
-553.575
 31
0
 0
LINE
 8
TOOL_0
 5
59
 10
5893.997
 20
-553.575
 30
0
 11
5458.135
 21
-528.657
 31
0
 0
ARC
 8
TOOL_0
 5
5A
 10
5448.397
 20
-526.385
 30
0
 40
9.99953138902
 50
346.867093685725
 51
90.0
210
0
220
0
230
1.0
 0
LINE
 8
TOOL_0
 5
5B
 10
5448.397
 20
-516.385
 30
0
 11
5005.897
 21
-516.385
 31
0
 0
ARC
 8
TOOL_0
 5
5C
 10
4965.897
 20
-516.385
 30
0
 40
40.0
 50
0
 51
90.0
210
0
220
0
230
1.0
 0
LINE
 8
TOOL_0
 5
5D
 10
4965.897
 20
-476.385
 30
0
 11
4965.897
 21
-106.385
 31
0
 0
ARC
 8
TOOL_0
 5
5E
 10
4965.897
 20
-66.385
 30
0
 40
40.0
 50
270.0
 51
0
210
0
220
0
230
1.0
 0
LINE
 8
TOOL_0
 5
5F
 10
5005.897
 20
-66.385
 30
0
 11
5890.897
 21
-66.385
 31
0
 0
LINE
 8
TOOL_0
 5
60
 10
5890.897
 20
-66.385
 30
0
 11
5890.897
 21
-516.385
 31
0
 0
LINE
 8
TOOL_0
 5
61
 10
5890.897
 20
-516.385
 30
0
 11
5448.397
 21
-516.385
 31
0
 0
LINE
 8
TOOL_0
 5
62
 10
5448.397
 20
-516.385
 30
0
 11
5442.74
 21
-522.042
 31
0
 0
ENDSEC
 0
EOF

