0
SECTION
2
TABLES
0
TABLE
2
LAYER
70
0
0
LAYER
2
LAYER_NAME
70
0
62
1
6
CONTINUOUS
0
ENDTAB
0
ENDSEC
 0
SECTION
 2
ENTITIES
 0
LINE
 8
TOOL_0
 5
1
 10
1274.766
 20
323.001
 30
0
 11
1305.0
 21
323.001
 31
0
 0
LINE
 8
TOOL_0
 5
2
 10
1305.0
 20
323.001
 30
0
 11
1305.0
 21
435.501
 31
0
 0
ARC
 8
TOOL_0
 5
3
 10
1270.0
 20
435.501
 30
0
 40
35.0
 50
0
 51
90.0
210
0
220
0
230
1.0
 0
LINE
 8
TOOL_0
 5
4
 10
1270.0
 20
470.501
 30
0
 11
1115.0
 21
470.501
 31
0
 0
ARC
 8
TOOL_0
 5
5
 10
1115.0
 20
435.501
 30
0
 40
35.0
 50
90.0
 51
180.0
210
0
220
0
230
1.0
 0
LINE
 8
TOOL_0
 5
6
 10
1080.0
 20
435.501
 30
0
 11
1080.0
 21
210.501
 31
0
 0
ARC
 8
TOOL_0
 5
7
 10
1115.0
 20
210.501
 30
0
 40
35.0
 50
180.0
 51
270.0
210
0
220
0
230
1.0
 0
LINE
 8
TOOL_0
 5
8
 10
1115.0
 20
175.501
 30
0
 11
1270.0
 21
175.501
 31
0
 0
ARC
 8
TOOL_0
 5
9
 10
1270.0
 20
210.501
 30
0
 40
35.0
 50
270.0
 51
0
210
0
220
0
230
1.0
 0
LINE
 8
TOOL_0
 5
A
 10
1305.0
 20
210.501
 30
0
 11
1305.0
 21
323.001
 31
0
 0
LINE
 8
TOOL_0
 5
B
 10
1305.0
 20
323.001
 30
0
 11
1301.742
 21
327.042
 31
0
 0
LINE
 8
TOOL_0
 5
C
 10
1301.742
 20
327.042
 30
0
 11
1743.981
 21
303.001
 31
0
 0
LINE
 8
TOOL_0
 5
D
 10
1743.981
 20
303.001
 30
0
 11
1775.0
 21
303.001
 31
0
 0
LINE
 8
TOOL_0
 5
E
 10
1775.0
 20
303.001
 30
0
 11
1775.0
 21
435.501
 31
0
 0
ARC
 8
TOOL_0
 5
F
 10
1740.0
 20
435.501
 30
0
 40
35.0
 50
0
 51
90.0
210
0
220
0
230
1.0
 0
LINE
 8
TOOL_0
 5
10
 10
1740.0
 20
470.501
 30
0
 11
1585.0
 21
470.501
 31
0
 0
ARC
 8
TOOL_0
 5
11
 10
1585.0
 20
435.501
 30
0
 40
35.0
 50
90.0
 51
180.0
210
0
220
0
230
1.0
 0
LINE
 8
TOOL_0
 5
12
 10
1550.0
 20
435.501
 30
0
 11
1550.0
 21
170.501
 31
0
 0
ARC
 8
TOOL_0
 5
13
 10
1585.0
 20
170.501
 30
0
 40
35.0
 50
180.0
 51
270.0
210
0
220
0
230
1.0
 0
LINE
 8
TOOL_0
 5
14
 10
1585.0
 20
135.501
 30
0
 11
1740.0
 21
135.501
 31
0
 0
ARC
 8
TOOL_0
 5
15
 10
1740.0
 20
170.501
 30
0
 40
35.0
 50
270.0
 51
0
210
0
220
0
230
1.0
 0
LINE
 8
TOOL_0
 5
16
 10
1775.0
 20
170.501
 30
0
 11
1775.0
 21
303.001
 31
0
 0
LINE
 8
TOOL_0
 5
17
 10
1775.0
 20
303.001
 30
0
 11
1771.474
 21
306.613
 31
0
 0
LINE
 8
TOOL_0
 5
18
 10
1771.474
 20
306.613
 30
0
 11
2011.5
 21
152.5
 31
0
 0
LINE
 8
TOOL_0
 5
19
 10
2011.5
 20
152.5
 30
0
 11
2011.5
 21
122.001
 31
0
 0
LINE
 8
TOOL_0
 5
1A
 10
2011.5
 20
122.001
 30
0
 11
2011.5
 21
49.88
 31
0
 0
LINE
 8
TOOL_0
 5
1B
 10
2011.5
 20
49.88
 30
0
 11
2002.121
 21
40.501
 31
0
 0
LINE
 8
TOOL_0
 5
1C
 10
2002.121
 20
40.501
 30
0
 11
1888.5
 21
40.501
 31
0
 0
ARC
 8
TOOL_0
 5
1D
 10
1888.5
 20
33.501
 30
0
 40
7.0
 50
90.0
 51
180.0
210
0
220
0
230
1.0
 0
LINE
 8
TOOL_0
 5
1E
 10
1881.5
 20
33.501
 30
0
 11
1881.5
 21
19.001
 31
0
 0
LINE
 8
TOOL_0
 5
1F
 10
1881.5
 20
19.001
 30
0
 11
1228.5
 21
19.001
 31
0
 0
LINE
 8
TOOL_0
 5
20
 10
1228.5
 20
19.001
 30
0
 11
1228.5
 21
33.501
 31
0
 0
ARC
 8
TOOL_0
 5
21
 10
1221.5
 20
33.501
 30
0
 40
7.0
 50
0
 51
90.0
210
0
220
0
230
1.0
 0
LINE
 8
TOOL_0
 5
22
 10
1221.5
 20
40.501
 30
0
 11
1068.5
 21
40.501
 31
0
 0
ARC
 8
TOOL_0
 5
23
 10
1068.5
 20
33.501
 30
0
 40
7.0
 50
90.0
 51
180.0
210
0
220
0
230
1.0
 0
LINE
 8
TOOL_0
 5
24
 10
1061.5
 20
33.501
 30
0
 11
1061.5
 21
19.001
 31
0
 0
LINE
 8
TOOL_0
 5
25
 10
1061.5
 20
19.001
 30
0
 11
824.5
 21
19.001
 31
0
 0
LINE
 8
TOOL_0
 5
26
 10
824.5
 20
19.001
 30
0
 11
824.5
 21
33.501
 31
0
 0
ARC
 8
TOOL_0
 5
27
 10
817.5
 20
33.501
 30
0
 40
7.0
 50
0
 51
90.0
210
0
220
0
230
1.0
 0
LINE
 8
TOOL_0
 5
28
 10
817.5
 20
40.501
 30
0
 11
562.5
 21
40.501
 31
0
 0
ARC
 8
TOOL_0
 5
29
 10
562.5
 20
33.501
 30
0
 40
7.0
 50
90.0
 51
180.0
210
0
220
0
230
1.0
 0
LINE
 8
TOOL_0
 5
2A
 10
555.5
 20
33.501
 30
0
 11
555.5
 21
19.001
 31
0
 0
LINE
 8
TOOL_0
 5
2B
 10
555.5
 20
19.001
 30
0
 11
253.5
 21
19.001
 31
0
 0
LINE
 8
TOOL_0
 5
2C
 10
253.5
 20
19.001
 30
0
 11
253.5
 21
33.501
 31
0
 0
ARC
 8
TOOL_0
 5
2D
 10
246.5
 20
33.501
 30
0
 40
7.0
 50
0
 51
90.0
210
0
220
0
230
1.0
 0
LINE
 8
TOOL_0
 5
2E
 10
246.5
 20
40.501
 30
0
 11
8.5
 21
40.501
 31
0
 0
LINE
 8
TOOL_0
 5
2F
 10
8.5
 20
40.501
 30
0
 11
8.5
 21
445.246
 31
0
 0
ARC
 8
TOOL_0
 5
30
 10
18.0
 20
445.246
 30
0
 40
9.5
 50
90.0
 51
180.0
210
0
220
0
230
1.0
 0
LINE
 8
TOOL_0
 5
31
 10
18.0
 20
454.746
 30
0
 11
296.778
 21
454.746
 31
0
 0
ARC
 8
TOOL_0
 5
32
 10
296.778
 20
553.246
 30
0
 40
98.5
 50
270.0
 51
285.06405950439
210
0
220
0
230
1.0
 0
LINE
 8
TOOL_0
 5
33
 10
322.378
 20
458.131
 30
0
 11
968.379
 21
632.002
 31
0
 0
LINE
 8
TOOL_0
 5
34
 10
968.379
 20
632.002
 30
0
 11
1785.078
 21
632.002
 31
0
 0
ARC
 8
TOOL_0
 5
35
 10
1785.078
 20
530.502
 30
0
 40
101.5
 50
35.651858150017
 51
90.0
210
0
220
0
230
1.0
 0
LINE
 8
TOOL_0
 5
36
 10
1867.554
 20
589.662
 30
0
 11
2011.5
 21
388.984
 31
0
 0
LINE
 8
TOOL_0
 5
37
 10
2011.5
 20
388.984
 30
0
 11
2011.5
 21
279.002
 31
0
 0
LINE
 8
TOOL_0
 5
38
 10
2011.5
 20
279.002
 30
0
 11
1990.0
 21
279.002
 31
0
 0
ARC
 8
TOOL_0
 5
39
 10
1990.0
 20
200.502
 30
0
 40
78.5
 50
90.0
 51
270.0
210
0
220
0
230
1.0
 0
LINE
 8
TOOL_0
 5
3A
 10
1990.0
 20
122.002
 30
0
 11
2011.5
 21
122.002
 31
0
 0
LINE
 8
TOOL_0
 5
3B
 10
2011.5
 20
122.002
 30
0
 11
2016.506
 21
122.002
 31
0
 0
ENDSEC
 0
EOF

