0
SECTION
2
TABLES
0
TABLE
2
LAYER
70
0
0
LAYER
2
LAYER_NAME
70
0
62
1
6
CONTINUOUS
0
ENDTAB
0
ENDSEC
 0
SECTION
 2
ENTITIES
 0
LINE
 8
TOOL_0
 5
1
 10
563.012
 20
1490.147
 30
0
 11
514.716
 21
1503.088
 31
0
 0
LINE
 8
TOOL_0
 5
2
 10
514.716
 20
1503.088
 30
0
 11
504.368
 21
1497.114
 31
0
 0
ARC
 8
TOOL_0
 5
3
 10
429.339
 20
1627.103
 30
0
 40
150.088277230435
 50
238.088860307739
 51
299.99332706678
210
0
220
0
230
1.0
 0
ARC
 8
TOOL_0
 5
4
 10
375.462
 20
1551.466
 30
0
 40
57.690011475125
 50
215.063620154999
 51
243.811597099958
210
0
220
0
230
1.0
 0
ARC
 8
TOOL_0
 5
5
 10
311.16
 20
1503.847
 30
0
 40
22.391477240236
 50
40.281285795521
 51
78.092892184963
210
0
220
0
230
1.0
 0
LINE
 8
TOOL_0
 5
6
 10
315.78
 20
1525.757
 30
0
 11
269.275
 21
1525.757
 31
0
 0
LINE
 8
TOOL_0
 5
7
 10
269.275
 20
1525.757
 30
0
 11
263.277
 21
1531.755
 31
0
 0
ARC
 8
TOOL_0
 5
8
 10
251.056
 20
1519.501
 30
0
 40
17.306454200673
 50
45.077252689608
 51
89.923852874556
210
0
220
0
230
1.0
 0
LINE
 8
TOOL_0
 5
9
 10
251.079
 20
1536.807
 30
0
 11
19.063
 21
1536.807
 31
0
 0
LINE
 8
TOOL_0
 5
A
 10
19.063
 20
1536.807
 30
0
 11
19.063
 21
1602.307
 31
0
 0
LINE
 8
TOOL_0
 5
B
 10
19.063
 20
1602.307
 30
0
 11
156.813
 21
1602.307
 31
0
 0
LINE
 8
TOOL_0
 5
C
 10
156.813
 20
1602.307
 30
0
 11
156.813
 21
1668.457
 31
0
 0
LINE
 8
TOOL_0
 5
D
 10
156.813
 20
1668.457
 30
0
 11
161.274
 21
1677.79
 31
0
 0
ARC
 8
TOOL_0
 5
E
 10
207.063
 20
1655.906
 30
0
 40
50.749797802553
 50
65.44532589619
 51
154.4554008384
210
0
220
0
230
1.0
 0
LINE
 8
TOOL_0
 5
F
 10
228.153
 20
1702.067
 30
0
 11
327.774
 21
1656.554
 31
0
 0
LINE
 8
TOOL_0
 5
10
 10
327.774
 20
1656.554
 30
0
 11
327.774
 21
1651.257
 31
0
 0
LINE
 8
TOOL_0
 5
11
 10
327.774
 20
1651.257
 30
0
 11
376.545
 21
1651.257
 31
0
 0
ARC
 8
TOOL_0
 5
12
 10
376.545
 20
1633.507
 30
0
 40
17.75
 50
19.918297310888
 51
90.0
210
0
220
0
230
1.0
 0
LINE
 8
TOOL_0
 5
13
 10
393.233
 20
1639.554
 30
0
 11
414.051
 21
1582.095
 31
0
 0
ARC
 8
TOOL_0
 5
14
 10
401.801
 20
1577.706
 30
0
 40
13.012525542722
 50
0.202535532141
 51
19.711876573971
210
0
220
0
230
1.0
 0
LINE
 8
TOOL_0
 5
15
 10
414.814
 20
1577.752
 30
0
 11
414.814
 21
1576.913
 31
0
 0
ARC
 8
TOOL_0
 5
16
 10
437.122
 20
1576.937
 30
0
 40
22.308012910163
 50
180.06164148188
 51
224.938251053973
210
0
220
0
230
1.0
 0
LINE
 8
TOOL_0
 5
17
 10
421.331
 20
1561.18
 30
0
 11
426.08
 21
1556.431
 31
0
 0
ARC
 8
TOOL_0
 5
18
 10
431.23
 20
1561.614
 30
0
 40
7.306571631073
 50
225.182982124819
 51
269.811785688188
210
0
220
0
230
1.0
 0
LINE
 8
TOOL_0
 5
19
 10
431.206
 20
1554.308
 30
0
 11
525.064
 21
1554.308
 31
0
 0
LINE
 8
TOOL_0
 5
1A
 10
525.064
 20
1554.308
 30
0
 11
525.064
 21
1509.065
 31
0
 0
LINE
 8
TOOL_0
 5
1B
 10
525.064
 20
1509.065
 30
0
 11
514.716
 21
1503.091
 31
0
 0
LINE
 8
TOOL_0
 5
1C
 10
514.716
 20
1503.091
 30
0
 11
512.128
 21
1493.432
 31
0
 0
LINE
 8
TOOL_0
 5
1D
 10
512.128
 20
1493.432
 30
0
 11
1087.084
 21
1485.312
 31
0
 0
LINE
 8
TOOL_0
 5
1E
 10
1087.084
 20
1485.312
 30
0
 11
1038.787
 21
1498.253
 31
0
 0
LINE
 8
TOOL_0
 5
1F
 10
1038.787
 20
1498.253
 30
0
 11
1028.439
 21
1492.279
 31
0
 0
ARC
 8
TOOL_0
 5
20
 10
953.41
 20
1622.268
 30
0
 40
150.088277230435
 50
238.088860307739
 51
299.99332706678
210
0
220
0
230
1.0
 0
ARC
 8
TOOL_0
 5
21
 10
899.533
 20
1546.631
 30
0
 40
57.690011475125
 50
215.063620154999
 51
243.811597099958
210
0
220
0
230
1.0
 0
ARC
 8
TOOL_0
 5
22
 10
835.231
 20
1499.012
 30
0
 40
22.391477240236
 50
40.281285795521
 51
78.092892184963
210
0
220
0
230
1.0
 0
LINE
 8
TOOL_0
 5
23
 10
839.851
 20
1520.922
 30
0
 11
793.346
 21
1520.922
 31
0
 0
LINE
 8
TOOL_0
 5
24
 10
793.346
 20
1520.922
 30
0
 11
787.348
 21
1526.92
 31
0
 0
ARC
 8
TOOL_0
 5
25
 10
775.127
 20
1514.666
 30
0
 40
17.306454200673
 50
45.077252689608
 51
89.923852874556
210
0
220
0
230
1.0
 0
LINE
 8
TOOL_0
 5
26
 10
775.15
 20
1531.972
 30
0
 11
543.134
 21
1531.972
 31
0
 0
LINE
 8
TOOL_0
 5
27
 10
543.134
 20
1531.972
 30
0
 11
543.134
 21
1597.472
 31
0
 0
LINE
 8
TOOL_0
 5
28
 10
543.134
 20
1597.472
 30
0
 11
680.884
 21
1597.472
 31
0
 0
LINE
 8
TOOL_0
 5
29
 10
680.884
 20
1597.472
 30
0
 11
680.884
 21
1663.622
 31
0
 0
LINE
 8
TOOL_0
 5
2A
 10
680.884
 20
1663.622
 30
0
 11
685.345
 21
1672.955
 31
0
 0
ARC
 8
TOOL_0
 5
2B
 10
731.134
 20
1651.071
 30
0
 40
50.749797802553
 50
65.44532589619
 51
154.4554008384
210
0
220
0
230
1.0
 0
LINE
 8
TOOL_0
 5
2C
 10
752.224
 20
1697.232
 30
0
 11
851.845
 21
1651.719
 31
0
 0
LINE
 8
TOOL_0
 5
2D
 10
851.845
 20
1651.719
 30
0
 11
851.845
 21
1646.422
 31
0
 0
LINE
 8
TOOL_0
 5
2E
 10
851.845
 20
1646.422
 30
0
 11
900.616
 21
1646.422
 31
0
 0
ARC
 8
TOOL_0
 5
2F
 10
900.616
 20
1628.672
 30
0
 40
17.75
 50
19.918297310888
 51
90.0
210
0
220
0
230
1.0
 0
LINE
 8
TOOL_0
 5
30
 10
917.304
 20
1634.719
 30
0
 11
938.122
 21
1577.26
 31
0
 0
ARC
 8
TOOL_0
 5
31
 10
925.872
 20
1572.871
 30
0
 40
13.012525542722
 50
0.202535532141
 51
19.711876573971
210
0
220
0
230
1.0
 0
LINE
 8
TOOL_0
 5
32
 10
938.885
 20
1572.917
 30
0
 11
938.885
 21
1572.078
 31
0
 0
ARC
 8
TOOL_0
 5
33
 10
961.193
 20
1572.102
 30
0
 40
22.308012910163
 50
180.06164148188
 51
224.938251053973
210
0
220
0
230
1.0
 0
LINE
 8
TOOL_0
 5
34
 10
945.402
 20
1556.345
 30
0
 11
950.151
 21
1551.596
 31
0
 0
ARC
 8
TOOL_0
 5
35
 10
955.301
 20
1556.779
 30
0
 40
7.306571631073
 50
225.182982124819
 51
269.811785688188
210
0
220
0
230
1.0
 0
LINE
 8
TOOL_0
 5
36
 10
955.277
 20
1549.473
 30
0
 11
1049.135
 21
1549.473
 31
0
 0
LINE
 8
TOOL_0
 5
37
 10
1049.135
 20
1549.473
 30
0
 11
1049.135
 21
1504.23
 31
0
 0
LINE
 8
TOOL_0
 5
38
 10
1049.135
 20
1504.23
 30
0
 11
1038.787
 21
1498.256
 31
0
 0
LINE
 8
TOOL_0
 5
39
 10
1038.787
 20
1498.256
 30
0
 11
1036.199
 21
1488.597
 31
0
 0
LINE
 8
TOOL_0
 5
3A
 10
1036.199
 20
1488.597
 30
0
 11
1611.156
 21
1485.316
 31
0
 0
LINE
 8
TOOL_0
 5
3B
 10
1611.156
 20
1485.316
 30
0
 11
1562.859
 21
1498.257
 31
0
 0
LINE
 8
TOOL_0
 5
3C
 10
1562.859
 20
1498.257
 30
0
 11
1552.511
 21
1492.283
 31
0
 0
ARC
 8
TOOL_0
 5
3D
 10
1477.482
 20
1622.272
 30
0
 40
150.088277230435
 50
238.088860307739
 51
299.99332706678
210
0
220
0
230
1.0
 0
ARC
 8
TOOL_0
 5
3E
 10
1423.605
 20
1546.635
 30
0
 40
57.690011475125
 50
215.063620154999
 51
243.811597099958
210
0
220
0
230
1.0
 0
ARC
 8
TOOL_0
 5
3F
 10
1359.303
 20
1499.016
 30
0
 40
22.391477240236
 50
40.281285795521
 51
78.092892184963
210
0
220
0
230
1.0
 0
LINE
 8
TOOL_0
 5
40
 10
1363.923
 20
1520.926
 30
0
 11
1317.418
 21
1520.926
 31
0
 0
LINE
 8
TOOL_0
 5
41
 10
1317.418
 20
1520.926
 30
0
 11
1311.42
 21
1526.924
 31
0
 0
ARC
 8
TOOL_0
 5
42
 10
1299.199
 20
1514.67
 30
0
 40
17.306454200673
 50
45.077252689608
 51
89.923852874557
210
0
220
0
230
1.0
 0
LINE
 8
TOOL_0
 5
43
 10
1299.222
 20
1531.976
 30
0
 11
1067.206
 21
1531.976
 31
0
 0
LINE
 8
TOOL_0
 5
44
 10
1067.206
 20
1531.976
 30
0
 11
1067.206
 21
1597.476
 31
0
 0
LINE
 8
TOOL_0
 5
45
 10
1067.206
 20
1597.476
 30
0
 11
1204.956
 21
1597.476
 31
0
 0
LINE
 8
TOOL_0
 5
46
 10
1204.956
 20
1597.476
 30
0
 11
1204.956
 21
1663.626
 31
0
 0
LINE
 8
TOOL_0
 5
47
 10
1204.956
 20
1663.626
 30
0
 11
1209.417
 21
1672.959
 31
0
 0
ARC
 8
TOOL_0
 5
48
 10
1255.206
 20
1651.075
 30
0
 40
50.749797802553
 50
65.445325896191
 51
154.4554008384
210
0
220
0
230
1.0
 0
LINE
 8
TOOL_0
 5
49
 10
1276.296
 20
1697.236
 30
0
 11
1375.917
 21
1651.723
 31
0
 0
LINE
 8
TOOL_0
 5
4A
 10
1375.917
 20
1651.723
 30
0
 11
1375.917
 21
1646.426
 31
0
 0
LINE
 8
TOOL_0
 5
4B
 10
1375.917
 20
1646.426
 30
0
 11
1424.688
 21
1646.426
 31
0
 0
ARC
 8
TOOL_0
 5
4C
 10
1424.688
 20
1628.676
 30
0
 40
17.75
 50
19.918297310887
 51
90.0
210
0
220
0
230
1.0
 0
LINE
 8
TOOL_0
 5
4D
 10
1441.376
 20
1634.723
 30
0
 11
1462.194
 21
1577.264
 31
0
 0
ARC
 8
TOOL_0
 5
4E
 10
1449.944
 20
1572.875
 30
0
 40
13.012525542722
 50
0.202535532141
 51
19.711876573971
210
0
220
0
230
1.0
 0
LINE
 8
TOOL_0
 5
4F
 10
1462.957
 20
1572.921
 30
0
 11
1462.957
 21
1572.082
 31
0
 0
ARC
 8
TOOL_0
 5
50
 10
1485.265
 20
1572.106
 30
0
 40
22.308012910163
 50
180.06164148188
 51
224.938251053973
210
0
220
0
230
1.0
 0
LINE
 8
TOOL_0
 5
51
 10
1469.474
 20
1556.349
 30
0
 11
1474.223
 21
1551.6
 31
0
 0
ARC
 8
TOOL_0
 5
52
 10
1479.373
 20
1556.783
 30
0
 40
7.306571631073
 50
225.182982124818
 51
269.811785688187
210
0
220
0
230
1.0
 0
LINE
 8
TOOL_0
 5
53
 10
1479.349
 20
1549.477
 30
0
 11
1573.207
 21
1549.477
 31
0
 0
LINE
 8
TOOL_0
 5
54
 10
1573.207
 20
1549.477
 30
0
 11
1573.207
 21
1504.234
 31
0
 0
LINE
 8
TOOL_0
 5
55
 10
1573.207
 20
1504.234
 30
0
 11
1562.859
 21
1498.26
 31
0
 0
LINE
 8
TOOL_0
 5
56
 10
1562.859
 20
1498.26
 30
0
 11
1560.271
 21
1488.601
 31
0
 0
LINE
 8
TOOL_0
 5
57
 10
1560.271
 20
1488.601
 30
0
 11
1560.271
 21
0.011
 31
0
 0
LINE
 8
TOOL_0
 5
58
 10
1560.271
 20
0.011
 30
0
 11
563.012
 21
2159.313
 31
0
 0
LINE
 8
TOOL_0
 5
59
 10
563.012
 20
2159.313
 30
0
 11
514.716
 21
2172.254
 31
0
 0
LINE
 8
TOOL_0
 5
5A
 10
514.716
 20
2172.254
 30
0
 11
504.368
 21
2166.28
 31
0
 0
ARC
 8
TOOL_0
 5
5B
 10
429.339
 20
2296.269
 30
0
 40
150.088277230435
 50
238.088860307739
 51
299.99332706678
210
0
220
0
230
1.0
 0
ARC
 8
TOOL_0
 5
5C
 10
375.462
 20
2220.632
 30
0
 40
57.690011475125
 50
215.063620154999
 51
243.811597099958
210
0
220
0
230
1.0
 0
ARC
 8
TOOL_0
 5
5D
 10
311.16
 20
2173.013
 30
0
 40
22.391477240236
 50
40.28128579552
 51
78.092892184963
210
0
220
0
230
1.0
 0
LINE
 8
TOOL_0
 5
5E
 10
315.78
 20
2194.923
 30
0
 11
269.275
 21
2194.923
 31
0
 0
LINE
 8
TOOL_0
 5
5F
 10
269.275
 20
2194.923
 30
0
 11
263.277
 21
2200.921
 31
0
 0
ARC
 8
TOOL_0
 5
60
 10
251.056
 20
2188.667
 30
0
 40
17.306454200673
 50
45.077252689608
 51
89.923852874556
210
0
220
0
230
1.0
 0
LINE
 8
TOOL_0
 5
61
 10
251.079
 20
2205.973
 30
0
 11
19.063
 21
2205.973
 31
0
 0
LINE
 8
TOOL_0
 5
62
 10
19.063
 20
2205.973
 30
0
 11
19.063
 21
2271.473
 31
0
 0
LINE
 8
TOOL_0
 5
63
 10
19.063
 20
2271.473
 30
0
 11
156.813
 21
2271.473
 31
0
 0
LINE
 8
TOOL_0
 5
64
 10
156.813
 20
2271.473
 30
0
 11
156.813
 21
2337.623
 31
0
 0
LINE
 8
TOOL_0
 5
65
 10
156.813
 20
2337.623
 30
0
 11
161.274
 21
2346.956
 31
0
 0
ARC
 8
TOOL_0
 5
66
 10
207.063
 20
2325.072
 30
0
 40
50.749797802553
 50
65.44532589619
 51
154.4554008384
210
0
220
0
230
1.0
 0
LINE
 8
TOOL_0
 5
67
 10
228.153
 20
2371.233
 30
0
 11
327.774
 21
2325.72
 31
0
 0
LINE
 8
TOOL_0
 5
68
 10
327.774
 20
2325.72
 30
0
 11
327.774
 21
2320.423
 31
0
 0
LINE
 8
TOOL_0
 5
69
 10
327.774
 20
2320.423
 30
0
 11
376.545
 21
2320.423
 31
0
 0
ARC
 8
TOOL_0
 5
6A
 10
376.545
 20
2302.673
 30
0
 40
17.75
 50
19.918297310888
 51
90.0
210
0
220
0
230
1.0
 0
LINE
 8
TOOL_0
 5
6B
 10
393.233
 20
2308.72
 30
0
 11
414.051
 21
2251.261
 31
0
 0
ARC
 8
TOOL_0
 5
6C
 10
401.801
 20
2246.872
 30
0
 40
13.012525542722
 50
0.202535532143
 51
19.711876573972
210
0
220
0
230
1.0
 0
LINE
 8
TOOL_0
 5
6D
 10
414.814
 20
2246.918
 30
0
 11
414.814
 21
2246.079
 31
0
 0
ARC
 8
TOOL_0
 5
6E
 10
437.122
 20
2246.103
 30
0
 40
22.308012910163
 50
180.06164148188
 51
224.938251053974
210
0
220
0
230
1.0
 0
LINE
 8
TOOL_0
 5
6F
 10
421.331
 20
2230.346
 30
0
 11
426.08
 21
2225.597
 31
0
 0
ARC
 8
TOOL_0
 5
70
 10
431.23
 20
2230.78
 30
0
 40
7.306571631073
 50
225.182982124819
 51
269.811785688188
210
0
220
0
230
1.0
 0
LINE
 8
TOOL_0
 5
71
 10
431.206
 20
2223.474
 30
0
 11
525.064
 21
2223.474
 31
0
 0
LINE
 8
TOOL_0
 5
72
 10
525.064
 20
2223.474
 30
0
 11
525.064
 21
2178.231
 31
0
 0
LINE
 8
TOOL_0
 5
73
 10
525.064
 20
2178.231
 30
0
 11
514.716
 21
2172.257
 31
0
 0
LINE
 8
TOOL_0
 5
74
 10
514.716
 20
2172.257
 30
0
 11
512.128
 21
2162.598
 31
0
 0
LINE
 8
TOOL_0
 5
75
 10
512.128
 20
2162.598
 30
0
 11
1679.493
 21
1366.885
 31
0
 0
LINE
 8
TOOL_0
 5
76
 10
1679.493
 20
1366.885
 30
0
 11
1679.493
 21
2499.015
 31
0
 0
LINE
 8
TOOL_0
 5
77
 10
1679.493
 20
2499.015
 30
0
 11
1679.493
 21
2500.015
 31
0
 0
ENDSEC
 0
EOF

