0
SECTION
2
TABLES
0
TABLE
2
LAYER
70
0
0
LAYER
2
LAYER_NAME
70
0
62
1
6
CONTINUOUS
0
ENDTAB
0
ENDSEC
 0
SECTION
 2
ENTITIES
 0
LINE
 8
TOOL_0
 5
1
 10
949.432
 20
-494.01
 30
0
 11
934.432
 21
-494.01
 31
0
 0
LINE
 8
TOOL_0
 5
2
 10
934.432
 20
-494.01
 30
0
 11
49.432
 21
-494.01
 31
0
 0
ARC
 8
TOOL_0
 5
3
 10
9.432
 20
-494.01
 30
0
 40
40.0
 50
0
 51
90.0
210
0
220
0
230
1.0
 0
LINE
 8
TOOL_0
 5
4
 10
9.432
 20
-454.01
 30
0
 11
9.432
 21
-84.01
 31
0
 0
ARC
 8
TOOL_0
 5
5
 10
9.432
 20
-44.01
 30
0
 40
40.0
 50
270.0
 51
0
210
0
220
0
230
1.0
 0
LINE
 8
TOOL_0
 5
6
 10
49.432
 20
-44.01
 30
0
 11
934.432
 21
-44.01
 31
0
 0
LINE
 8
TOOL_0
 5
7
 10
934.432
 20
-44.01
 30
0
 11
934.432
 21
-494.01
 31
0
 0
LINE
 8
TOOL_0
 5
8
 10
934.432
 20
-494.01
 30
0
 11
934.432
 21
-502.01
 31
0
 0
LINE
 8
TOOL_0
 5
9
 10
934.432
 20
-502.01
 30
0
 11
1891.097
 21
-494.01
 31
0
 0
LINE
 8
TOOL_0
 5
A
 10
1891.097
 20
-494.01
 30
0
 11
1876.097
 21
-494.01
 31
0
 0
LINE
 8
TOOL_0
 5
B
 10
1876.097
 20
-494.01
 30
0
 11
991.097
 21
-494.01
 31
0
 0
ARC
 8
TOOL_0
 5
C
 10
951.097
 20
-494.01
 30
0
 40
40.0
 50
0
 51
90.0
210
0
220
0
230
1.0
 0
LINE
 8
TOOL_0
 5
D
 10
951.097
 20
-454.01
 30
0
 11
951.097
 21
-84.01
 31
0
 0
ARC
 8
TOOL_0
 5
E
 10
951.097
 20
-44.01
 30
0
 40
40.0
 50
270.0
 51
0
210
0
220
0
230
1.0
 0
LINE
 8
TOOL_0
 5
F
 10
991.097
 20
-44.01
 30
0
 11
1876.097
 21
-44.01
 31
0
 0
LINE
 8
TOOL_0
 5
10
 10
1876.097
 20
-44.01
 30
0
 11
1876.097
 21
-494.01
 31
0
 0
LINE
 8
TOOL_0
 5
11
 10
1876.097
 20
-494.01
 30
0
 11
1876.097
 21
-502.01
 31
0
 0
LINE
 8
TOOL_0
 5
12
 10
1876.097
 20
-502.01
 30
0
 11
2832.761
 21
-494.011
 31
0
 0
LINE
 8
TOOL_0
 5
13
 10
2832.761
 20
-494.011
 30
0
 11
2817.761
 21
-494.011
 31
0
 0
LINE
 8
TOOL_0
 5
14
 10
2817.761
 20
-494.011
 30
0
 11
1932.761
 21
-494.011
 31
0
 0
ARC
 8
TOOL_0
 5
15
 10
1892.761
 20
-494.011
 30
0
 40
40.0
 50
0
 51
90.0
210
0
220
0
230
1.0
 0
LINE
 8
TOOL_0
 5
16
 10
1892.761
 20
-454.011
 30
0
 11
1892.761
 21
-84.011
 31
0
 0
ARC
 8
TOOL_0
 5
17
 10
1892.761
 20
-44.011
 30
0
 40
40.0
 50
270.0
 51
0
210
0
220
0
230
1.0
 0
LINE
 8
TOOL_0
 5
18
 10
1932.761
 20
-44.011
 30
0
 11
2817.761
 21
-44.011
 31
0
 0
LINE
 8
TOOL_0
 5
19
 10
2817.761
 20
-44.011
 30
0
 11
2817.761
 21
-494.011
 31
0
 0
LINE
 8
TOOL_0
 5
1A
 10
2817.761
 20
-494.011
 30
0
 11
2817.761
 21
-502.011
 31
0
 0
LINE
 8
TOOL_0
 5
1B
 10
2817.761
 20
-502.011
 30
0
 11
3774.745
 21
-494.01
 31
0
 0
LINE
 8
TOOL_0
 5
1C
 10
3774.745
 20
-494.01
 30
0
 11
3759.745
 21
-494.01
 31
0
 0
LINE
 8
TOOL_0
 5
1D
 10
3759.745
 20
-494.01
 30
0
 11
2874.745
 21
-494.01
 31
0
 0
ARC
 8
TOOL_0
 5
1E
 10
2834.745
 20
-494.01
 30
0
 40
40.0
 50
0
 51
90.0
210
0
220
0
230
1.0
 0
LINE
 8
TOOL_0
 5
1F
 10
2834.745
 20
-454.01
 30
0
 11
2834.745
 21
-84.01
 31
0
 0
ARC
 8
TOOL_0
 5
20
 10
2834.745
 20
-44.01
 30
0
 40
40.0
 50
270.0
 51
0
210
0
220
0
230
1.0
 0
LINE
 8
TOOL_0
 5
21
 10
2874.745
 20
-44.01
 30
0
 11
3759.745
 21
-44.01
 31
0
 0
LINE
 8
TOOL_0
 5
22
 10
3759.745
 20
-44.01
 30
0
 11
3759.745
 21
-494.01
 31
0
 0
LINE
 8
TOOL_0
 5
23
 10
3759.745
 20
-494.01
 30
0
 11
3759.745
 21
-502.01
 31
0
 0
LINE
 8
TOOL_0
 5
24
 10
3759.745
 20
-502.01
 30
0
 11
1091.149
 21
-1699.491
 31
0
 0
LINE
 8
TOOL_0
 5
25
 10
1091.149
 20
-1699.491
 30
0
 11
1141.146
 21
-1698.985
 31
0
 0
ARC
 8
TOOL_0
 5
26
 10
1070.15
 20
-1699.704
 30
0
 40
70.99964068219
 50
0.580233494495
 51
180.580225322405
210
0
220
0
230
1.0
 0
ARC
 8
TOOL_0
 5
27
 10
1070.149
 20
-1699.704
 30
0
 40
70.99964068219
 50
180.580233494495
 51
0.580225322405
210
0
220
0
230
1.0
 0
ARC
 8
TOOL_0
 5
28
 10
1133.146
 20
-1699.065
 30
0
 40
8.000399990001
 50
0.572938697683
 51
57.875424736699
210
0
220
0
230
1.0
 0
LINE
 8
TOOL_0
 5
29
 10
1137.4
 20
-1692.29
 30
0
 11
4183.895
 21
-1690.239
 31
0
 0
LINE
 8
TOOL_0
 5
2A
 10
4183.895
 20
-1690.239
 30
0
 11
4228.53
 21
-1667.705
 31
0
 0
ARC
 8
TOOL_0
 5
2B
 10
4165.149
 20
-1699.703
 30
0
 40
71.000163133616
 50
26.787000837861
 51
206.787000837861
210
0
220
0
230
1.0
 0
ARC
 8
TOOL_0
 5
2C
 10
4165.149
 20
-1699.703
 30
0
 40
71.000163133616
 50
206.78700083786
 51
26.787000837861
210
0
220
0
230
1.0
 0
ARC
 8
TOOL_0
 5
2D
 10
4221.388
 20
-1671.31
 30
0
 40
8.000261808216
 50
26.782843912376
 51
84.080593017474
210
0
220
0
230
1.0
 0
LINE
 8
TOOL_0
 5
2E
 10
4222.213
 20
-1663.353
 30
0
 11
4949.921
 21
-1299.965
 31
0
 0
ARC
 8
TOOL_0
 5
2F
 10
4947.649
 20
-1309.703
 30
0
 40
9.99953138902
 50
76.867093685726
 51
180.0
210
0
220
0
230
1.0
 0
LINE
 8
TOOL_0
 5
30
 10
4937.649
 20
-1309.703
 30
0
 11
4937.649
 21
-2089.703
 31
0
 0
LINE
 8
TOOL_0
 5
31
 10
4937.649
 20
-2089.703
 30
0
 11
297.649
 21
-2089.703
 31
0
 0
LINE
 8
TOOL_0
 5
32
 10
297.649
 20
-2089.703
 30
0
 11
297.649
 21
-1309.703
 31
0
 0
LINE
 8
TOOL_0
 5
33
 10
297.649
 20
-1309.703
 30
0
 11
4937.649
 21
-1309.703
 31
0
 0
LINE
 8
TOOL_0
 5
34
 10
4937.649
 20
-1309.703
 30
0
 11
4943.306
 21
-1304.046
 31
0
 0
LINE
 8
TOOL_0
 5
35
 10
4943.306
 20
-1304.046
 30
0
 11
1091.148
 21
-901.209
 31
0
 0
LINE
 8
TOOL_0
 5
36
 10
1091.148
 20
-901.209
 30
0
 11
1141.146
 21
-900.703
 31
0
 0
ARC
 8
TOOL_0
 5
37
 10
1070.15
 20
-901.422
 30
0
 40
70.99964068219
 50
0.580233494495
 51
180.580225322405
210
0
220
0
230
1.0
 0
ARC
 8
TOOL_0
 5
38
 10
1070.149
 20
-901.422
 30
0
 40
70.99964068219
 50
180.580233494495
 51
0.580225322405
210
0
220
0
230
1.0
 0
ARC
 8
TOOL_0
 5
39
 10
1133.146
 20
-900.783
 30
0
 40
8.000399990001
 50
0.572938697684
 51
57.8754247367
210
0
220
0
230
1.0
 0
LINE
 8
TOOL_0
 5
3A
 10
1137.4
 20
-894.008
 30
0
 11
4183.896
 21
-891.957
 31
0
 0
LINE
 8
TOOL_0
 5
3B
 10
4183.896
 20
-891.957
 30
0
 11
4228.53
 21
-869.423
 31
0
 0
ARC
 8
TOOL_0
 5
3C
 10
4165.149
 20
-901.421
 30
0
 40
71.000163133616
 50
26.787000837861
 51
206.787000837861
210
0
220
0
230
1.0
 0
ARC
 8
TOOL_0
 5
3D
 10
4165.149
 20
-901.421
 30
0
 40
71.000163133616
 50
206.78700083786
 51
26.787000837861
210
0
220
0
230
1.0
 0
ARC
 8
TOOL_0
 5
3E
 10
4221.388
 20
-873.028
 30
0
 40
8.000261808216
 50
26.782843912376
 51
84.080593017474
210
0
220
0
230
1.0
 0
LINE
 8
TOOL_0
 5
3F
 10
4222.213
 20
-865.071
 30
0
 11
4937.649
 21
-496.421
 31
0
 0
LINE
 8
TOOL_0
 5
40
 10
4937.649
 20
-496.421
 30
0
 11
4937.649
 21
-511.421
 31
0
 0
LINE
 8
TOOL_0
 5
41
 10
4937.649
 20
-511.421
 30
0
 11
4937.649
 21
-1291.421
 31
0
 0
LINE
 8
TOOL_0
 5
42
 10
4937.649
 20
-1291.421
 30
0
 11
297.649
 21
-1291.421
 31
0
 0
LINE
 8
TOOL_0
 5
43
 10
297.649
 20
-1291.421
 30
0
 11
297.649
 21
-511.421
 31
0
 0
LINE
 8
TOOL_0
 5
44
 10
297.649
 20
-511.421
 30
0
 11
4937.649
 21
-511.421
 31
0
 0
LINE
 8
TOOL_0
 5
45
 10
4937.649
 20
-511.421
 30
0
 11
4945.649
 21
-511.421
 31
0
 0
LINE
 8
TOOL_0
 5
46
 10
4945.649
 20
-511.421
 30
0
 11
4716.088
 21
-494.008
 31
0
 0
LINE
 8
TOOL_0
 5
47
 10
4716.088
 20
-494.008
 30
0
 11
4701.088
 21
-494.008
 31
0
 0
LINE
 8
TOOL_0
 5
48
 10
4701.088
 20
-494.008
 30
0
 11
3816.088
 21
-494.008
 31
0
 0
ARC
 8
TOOL_0
 5
49
 10
3776.088
 20
-494.008
 30
0
 40
40.0
 50
0
 51
90.0
210
0
220
0
230
1.0
 0
LINE
 8
TOOL_0
 5
4A
 10
3776.088
 20
-454.008
 30
0
 11
3776.088
 21
-84.008
 31
0
 0
ARC
 8
TOOL_0
 5
4B
 10
3776.088
 20
-44.008
 30
0
 40
40.0
 50
270.0
 51
0
210
0
220
0
230
1.0
 0
LINE
 8
TOOL_0
 5
4C
 10
3816.088
 20
-44.008
 30
0
 11
4701.088
 21
-44.008
 31
0
 0
LINE
 8
TOOL_0
 5
4D
 10
4701.088
 20
-44.008
 30
0
 11
4701.088
 21
-494.008
 31
0
 0
LINE
 8
TOOL_0
 5
4E
 10
4701.088
 20
-494.008
 30
0
 11
4701.088
 21
-502.008
 31
0
 0
LINE
 8
TOOL_0
 5
4F
 10
4701.088
 20
-502.008
 30
0
 11
5210.898
 21
-624.97
 31
0
 0
LINE
 8
TOOL_0
 5
50
 10
5210.898
 20
-624.97
 30
0
 11
5212.613
 21
-634.821
 31
0
 0
ARC
 8
TOOL_0
 5
51
 10
5210.898
 20
-624.969
 30
0
 40
10.000156448776
 50
279.874887642764
 51
99.874887642764
210
0
220
0
230
1.0
 0
ARC
 8
TOOL_0
 5
52
 10
5210.898
 20
-624.969
 30
0
 40
10.000156448776
 50
99.874887642764
 51
279.874887642764
210
0
220
0
230
1.0
 0
LINE
 8
TOOL_0
 5
53
 10
5212.613
 20
-634.821
 30
0
 11
5480.898
 21
-2089.97
 31
0
 0
LINE
 8
TOOL_0
 5
54
 10
5480.898
 20
-2089.97
 30
0
 11
5465.898
 21
-2089.97
 31
0
 0
LINE
 8
TOOL_0
 5
55
 10
5465.898
 20
-2089.97
 30
0
 11
4955.898
 21
-2089.97
 31
0
 0
LINE
 8
TOOL_0
 5
56
 10
4955.898
 20
-2089.97
 30
0
 11
4955.898
 21
-474.97
 31
0
 0
LINE
 8
TOOL_0
 5
57
 10
4955.898
 20
-474.97
 30
0
 11
5465.898
 21
-474.97
 31
0
 0
LINE
 8
TOOL_0
 5
58
 10
5465.898
 20
-474.97
 30
0
 11
5465.898
 21
-2089.97
 31
0
 0
LINE
 8
TOOL_0
 5
59
 10
5465.898
 20
-2089.97
 30
0
 11
5465.898
 21
-2097.97
 31
0
 0
LINE
 8
TOOL_0
 5
5A
 10
5465.898
 20
-2097.97
 30
0
 11
5032.086
 21
-350.603
 31
0
 0
LINE
 8
TOOL_0
 5
5B
 10
5032.086
 20
-350.603
 30
0
 11
5067.441
 21
-385.959
 31
0
 0
ARC
 8
TOOL_0
 5
5C
 10
5053.299
 20
-371.817
 30
0
 40
19.99980819908
 50
315.0
 51
0
210
0
220
0
230
1.0
 0
LINE
 8
TOOL_0
 5
5D
 10
5073.299
 20
-371.817
 30
0
 11
5073.299
 21
-241.817
 31
0
 0
ARC
 8
TOOL_0
 5
5E
 10
5053.299
 20
-241.817
 30
0
 40
20.0
 50
0
 51
90.0
210
0
220
0
230
1.0
 0
LINE
 8
TOOL_0
 5
5F
 10
5053.299
 20
-221.817
 30
0
 11
4883.299
 21
-221.817
 31
0
 0
ARC
 8
TOOL_0
 5
60
 10
4883.299
 20
-241.817
 30
0
 40
20.0
 50
90.0
 51
180.0
210
0
220
0
230
1.0
 0
LINE
 8
TOOL_0
 5
61
 10
4863.299
 20
-241.817
 30
0
 11
4863.299
 21
-371.817
 31
0
 0
ARC
 8
TOOL_0
 5
62
 10
4883.299
 20
-371.817
 30
0
 40
20.0
 50
180.0
 51
270.0
210
0
220
0
230
1.0
 0
LINE
 8
TOOL_0
 5
63
 10
4883.299
 20
-391.817
 30
0
 11
5053.299
 21
-391.817
 31
0
 0
ARC
 8
TOOL_0
 5
64
 10
5053.299
 20
-371.817
 30
0
 40
20.0
 50
270.0
 51
315.0
210
0
220
0
230
1.0
 0
ARC
 8
TOOL_0
 5
65
 10
5061.784
 20
-380.302
 30
0
 40
8.000206122345
 50
315.000000000001
 51
12.297329700449
210
0
220
0
230
1.0
 0
LINE
 8
TOOL_0
 5
66
 10
5069.601
 20
-378.598
 30
0
 11
5233.299
 21
-456.817
 31
0
 0
LINE
 8
TOOL_0
 5
67
 10
5233.299
 20
-456.817
 30
0
 11
5218.299
 21
-456.817
 31
0
 0
LINE
 8
TOOL_0
 5
68
 10
5218.299
 20
-456.817
 30
0
 11
4718.299
 21
-456.817
 31
0
 0
LINE
 8
TOOL_0
 5
69
 10
4718.299
 20
-456.817
 30
0
 11
4718.299
 21
-106.817
 31
0
 0
LINE
 8
TOOL_0
 5
6A
 10
4718.299
 20
-106.817
 30
0
 11
5218.299
 21
-106.817
 31
0
 0
LINE
 8
TOOL_0
 5
6B
 10
5218.299
 20
-106.817
 30
0
 11
5218.299
 21
-456.817
 31
0
 0
LINE
 8
TOOL_0
 5
6C
 10
5218.299
 20
-456.817
 30
0
 11
5218.299
 21
-464.817
 31
0
 0
ENDSEC
 0
EOF

