0
SECTION
2
TABLES
0
TABLE
2
LAYER
70
0
0
LAYER
2
LAYER_NAME
70
0
62
1
6
CONTINUOUS
0
ENDTAB
0
ENDSEC
 0
SECTION
 2
ENTITIES
 0
LINE
 8
TOOL_0
 5
1
 10
1091.5
 20
15.001
 30
0
 11
1066.5
 21
15.001
 31
0
 0
LINE
 8
TOOL_0
 5
2
 10
1066.5
 20
15.001
 30
0
 11
15.0
 21
15.001
 31
0
 0
LINE
 8
TOOL_0
 5
3
 10
15.0
 20
15.001
 30
0
 11
15.0
 21
416.501
 31
0
 0
LINE
 8
TOOL_0
 5
4
 10
15.0
 20
416.501
 30
0
 11
1066.5
 21
416.501
 31
0
 0
LINE
 8
TOOL_0
 5
5
 10
1066.5
 20
416.501
 30
0
 11
1066.5
 21
15.001
 31
0
 0
LINE
 8
TOOL_0
 5
6
 10
1066.5
 20
15.001
 30
0
 11
1066.5
 21
10.001
 31
0
 0
LINE
 8
TOOL_0
 5
7
 10
1066.5
 20
10.001
 30
0
 11
1066.5
 21
0
 31
0
 0
LINE
 8
TOOL_0
 5
8
 10
1066.5
 20
0
 30
0
 11
305.357
 21
876.588
 31
0
 0
LINE
 8
TOOL_0
 5
9
 10
305.357
 20
876.588
 30
0
 11
305.357
 21
858.415
 31
0
 0
LINE
 8
TOOL_0
 5
A
 10
305.357
 20
858.415
 30
0
 11
296.5
 21
858.652
 31
0
 0
LINE
 8
TOOL_0
 5
B
 10
296.5
 20
858.652
 30
0
 11
15.0
 21
858.652
 31
0
 0
LINE
 8
TOOL_0
 5
C
 10
15.0
 20
858.652
 30
0
 11
15.0
 21
1140.152
 31
0
 0
LINE
 8
TOOL_0
 5
D
 10
15.0
 20
1140.152
 30
0
 11
296.5
 21
1140.152
 31
0
 0
LINE
 8
TOOL_0
 5
E
 10
296.5
 20
1140.152
 30
0
 11
296.5
 21
858.652
 31
0
 0
LINE
 8
TOOL_0
 5
F
 10
296.5
 20
858.652
 30
0
 11
296.5
 21
853.748
 31
0
 0
LINE
 8
TOOL_0
 5
10
 10
296.5
 20
853.748
 30
0
 11
606.876
 21
876.588
 31
0
 0
LINE
 8
TOOL_0
 5
11
 10
606.876
 20
876.588
 30
0
 11
606.876
 21
858.415
 31
0
 0
LINE
 8
TOOL_0
 5
12
 10
606.876
 20
858.415
 30
0
 11
598.019
 21
858.652
 31
0
 0
LINE
 8
TOOL_0
 5
13
 10
598.019
 20
858.652
 30
0
 11
316.519
 21
858.652
 31
0
 0
LINE
 8
TOOL_0
 5
14
 10
316.519
 20
858.652
 30
0
 11
316.519
 21
1140.152
 31
0
 0
LINE
 8
TOOL_0
 5
15
 10
316.519
 20
1140.152
 30
0
 11
598.019
 21
1140.152
 31
0
 0
LINE
 8
TOOL_0
 5
16
 10
598.019
 20
1140.152
 30
0
 11
598.019
 21
858.652
 31
0
 0
LINE
 8
TOOL_0
 5
17
 10
598.019
 20
858.652
 30
0
 11
598.019
 21
853.748
 31
0
 0
LINE
 8
TOOL_0
 5
18
 10
598.019
 20
853.748
 30
0
 11
911.747
 21
876.588
 31
0
 0
LINE
 8
TOOL_0
 5
19
 10
911.747
 20
876.588
 30
0
 11
911.747
 21
858.415
 31
0
 0
LINE
 8
TOOL_0
 5
1A
 10
911.747
 20
858.415
 30
0
 11
902.89
 21
858.652
 31
0
 0
LINE
 8
TOOL_0
 5
1B
 10
902.89
 20
858.652
 30
0
 11
621.39
 21
858.652
 31
0
 0
LINE
 8
TOOL_0
 5
1C
 10
621.39
 20
858.652
 30
0
 11
621.39
 21
1140.152
 31
0
 0
LINE
 8
TOOL_0
 5
1D
 10
621.39
 20
1140.152
 30
0
 11
902.89
 21
1140.152
 31
0
 0
LINE
 8
TOOL_0
 5
1E
 10
902.89
 20
1140.152
 30
0
 11
902.89
 21
858.652
 31
0
 0
LINE
 8
TOOL_0
 5
1F
 10
902.89
 20
858.652
 30
0
 11
902.89
 21
853.748
 31
0
 0
LINE
 8
TOOL_0
 5
20
 10
902.89
 20
853.748
 30
0
 11
1153.869
 21
0
 31
0
 0
LINE
 8
TOOL_0
 5
21
 10
1153.869
 20
0
 30
0
 11
1153.869
 21
1.0
 31
0
 0
LINE
 8
TOOL_0
 5
22
 10
1153.869
 20
1.0
 30
0
 11
1153.869
 21
0
 31
0
 0
LINE
 8
TOOL_0
 5
23
 10
1153.869
 20
0
 30
0
 11
1153.869
 21
0
 31
0
 0
LINE
 8
TOOL_0
 5
24
 10
1153.869
 20
0
 30
0
 11
1153.869
 21
1.0
 31
0
 0
LINE
 8
TOOL_0
 5
25
 10
1153.869
 20
1.0
 30
0
 11
1153.869
 21
879.051
 31
0
 0
LINE
 8
TOOL_0
 5
26
 10
1153.869
 20
879.051
 30
0
 11
996.816
 21
879.051
 31
0
 0
LINE
 8
TOOL_0
 5
27
 10
996.816
 20
879.051
 30
0
 11
996.816
 21
2499.0
 31
0
 0
LINE
 8
TOOL_0
 5
28
 10
996.816
 20
2499.0
 30
0
 11
996.816
 21
2500.0
 31
0
 0
ENDSEC
 0
EOF

