0
SECTION
2
TABLES
0
TABLE
2
LAYER
70
0
0
LAYER
2
LAYER_NAME
70
0
62
1
6
CONTINUOUS
0
ENDTAB
0
ENDSEC
 0
SECTION
 2
ENTITIES
 0
LINE
 8
TOOL_0
 5
1
 10
458.225
 20
33.583
 30
0
 11
428.026
 21
38.789
 31
0
 0
LINE
 8
TOOL_0
 5
2
 10
428.026
 20
38.789
 30
0
 11
340.849
 21
38.789
 31
0
 0
ARC
 8
TOOL_0
 5
3
 10
340.849
 20
19.589
 30
0
 40
19.2
 50
90.0
 51
148.07970508667
210
0
220
0
230
1.0
 0
ARC
 8
TOOL_0
 5
4
 10
305.196
 20
41.813
 30
0
 40
22.812012624931
 50
239.849505978008
 51
328.048928599655
210
0
220
0
230
1.0
 0
ARC
 8
TOOL_0
 5
5
 10
258.95
 20
-37.733
 30
0
 40
69.199980809246
 50
59.820087804485
 51
90.0
210
0
220
0
230
1.0
 0
LINE
 8
TOOL_0
 5
6
 10
258.95
 20
31.467
 30
0
 11
231.45
 21
31.467
 31
0
 0
ARC
 8
TOOL_0
 5
7
 10
231.45
 20
-37.733
 30
0
 40
69.2
 50
90.0
 51
120.179912195515
210
0
220
0
230
1.0
 0
ARC
 8
TOOL_0
 5
8
 10
185.204
 20
41.813
 30
0
 40
22.812295807305
 50
211.951071400345
 51
300.150494021992
210
0
220
0
230
1.0
 0
ARC
 8
TOOL_0
 5
9
 10
149.551
 20
19.589
 30
0
 40
19.200398771901
 50
31.92029491333
 51
90.0
210
0
220
0
230
1.0
 0
LINE
 8
TOOL_0
 5
A
 10
149.551
 20
38.789
 30
0
 11
62.374
 21
38.789
 31
0
 0
ARC
 8
TOOL_0
 5
B
 10
62.39
 20
48.813
 30
0
 40
10.024012769345
 50
202.092237733081
 51
269.908546319466
210
0
220
0
230
1.0
 0
LINE
 8
TOOL_0
 5
C
 10
53.102
 20
45.043
 30
0
 11
31.859
 21
97.622
 31
0
 0
ARC
 8
TOOL_0
 5
D
 10
23.7
 20
94.325
 30
0
 40
8.79997102268
 50
22.003320384869
 51
75.523198505332
210
0
220
0
230
1.0
 0
ARC
 8
TOOL_0
 5
E
 10
28.2
 20
111.754
 30
0
 40
9.200133912069
 50
180.0
 51
255.52270314299
210
0
220
0
230
1.0
 0
LINE
 8
TOOL_0
 5
F
 10
19.0
 20
111.754
 30
0
 11
19.0
 21
191.389
 31
0
 0
ARC
 8
TOOL_0
 5
10
 10
29.0
 20
191.389
 30
0
 40
10.0
 50
90.0
 51
180.0
210
0
220
0
230
1.0
 0
LINE
 8
TOOL_0
 5
11
 10
29.0
 20
201.389
 30
0
 11
91.505
 21
201.389
 31
0
 0
ARC
 8
TOOL_0
 5
12
 10
91.505
 20
190.589
 30
0
 40
10.8
 50
48.460740534169
 51
90.0
210
0
220
0
230
1.0
 0
ARC
 8
TOOL_0
 5
13
 10
34.062
 20
129.566
 30
0
 40
94.602238208195
 50
43.466652314864
 51
46.928384843842
210
0
220
0
230
1.0
 0
LINE
 8
TOOL_0
 5
14
 10
102.722
 20
194.646
 30
0
 11
103.324
 21
194.068
 31
0
 0
ARC
 8
TOOL_0
 5
15
 10
110.551
 20
199.97
 30
0
 40
9.330762723379
 50
219.237129311716
 51
272.7397465832
210
0
220
0
230
1.0
 0
LINE
 8
TOOL_0
 5
16
 10
110.997
 20
190.65
 30
0
 11
148.294
 21
192.605
 31
0
 0
ARC
 8
TOOL_0
 5
17
 10
147.027
 20
216.772
 30
0
 40
24.200189627356
 50
273.001090424869
 51
320.000123438967
210
0
220
0
230
1.0
 0
LINE
 8
TOOL_0
 5
18
 10
165.566
 20
201.216
 30
0
 11
175.537
 21
213.099
 31
0
 0
ARC
 8
TOOL_0
 5
19
 10
229.795
 20
167.542
 30
0
 40
70.847518044036
 50
90.017791710546
 51
139.981952152145
210
0
220
0
230
1.0
 0
LINE
 8
TOOL_0
 5
1A
 10
229.773
 20
238.39
 30
0
 11
260.629
 21
238.39
 31
0
 0
ARC
 8
TOOL_0
 5
1B
 10
260.629
 20
167.59
 30
0
 40
70.8
 50
41.351276536947
 51
90.0
210
0
220
0
230
1.0
 0
ARC
 8
TOOL_0
 5
1C
 10
-238.18
 20
-261.085
 30
0
 40
728.498581501708
 50
39.389999123718
 51
40.741326157114
210
0
220
0
230
1.0
 0
ARC
 8
TOOL_0
 5
1D
 10
343.374
 20
216.772
 30
0
 40
24.199493155849
 50
219.999584725572
 51
267.001150046702
210
0
220
0
230
1.0
 0
LINE
 8
TOOL_0
 5
1E
 10
342.108
 20
192.606
 30
0
 11
379.405
 21
190.651
 31
0
 0
ARC
 8
TOOL_0
 5
1F
 10
379.886
 20
199.838
 30
0
 40
9.19958314273
 50
267.002924856545
 51
303.800613645745
210
0
220
0
230
1.0
 0
ARC
 8
TOOL_0
 5
20
 10
371.96
 20
209.129
 30
0
 40
21.376950951901
 50
307.603236713993
 51
317.477862862891
210
0
220
0
230
1.0
 0
LINE
 8
TOOL_0
 5
21
 10
387.715
 20
194.681
 30
0
 11
391.259
 21
198.227
 31
0
 0
ARC
 8
TOOL_0
 5
22
 10
398.921
 20
190.53
 30
0
 40
10.860481250847
 50
90.131896128692
 51
134.869434936404
210
0
220
0
230
1.0
 0
LINE
 8
TOOL_0
 5
23
 10
398.896
 20
201.39
 30
0
 11
461.401
 21
201.39
 31
0
 0
ARC
 8
TOOL_0
 5
24
 10
461.401
 20
191.39
 30
0
 40
10.0
 50
0
 51
90.0
210
0
220
0
230
1.0
 0
LINE
 8
TOOL_0
 5
25
 10
471.401
 20
191.39
 30
0
 11
471.401
 21
111.755
 31
0
 0
ARC
 8
TOOL_0
 5
26
 10
462.201
 20
111.755
 30
0
 40
9.2
 50
284.47729685701
 51
0
210
0
220
0
230
1.0
 0
ARC
 8
TOOL_0
 5
27
 10
466.701
 20
94.326
 30
0
 40
8.800422773935
 50
104.476801494668
 51
157.996679615131
210
0
220
0
230
1.0
 0
LINE
 8
TOOL_0
 5
28
 10
458.542
 20
97.623
 30
0
 11
437.299
 21
45.044
 31
0
 0
ARC
 8
TOOL_0
 5
29
 10
428.011
 20
48.814
 30
0
 40
10.023963487563
 50
270.091453680534
 51
337.907762266919
210
0
220
0
230
1.0
 0
LINE
 8
TOOL_0
 5
2A
 10
428.027
 20
38.79
 30
0
 11
424.288
 21
35.287
 31
0
 0
LINE
 8
TOOL_0
 5
2B
 10
424.288
 20
35.287
 30
0
 11
458.226
 21
951.553
 31
0
 0
LINE
 8
TOOL_0
 5
2C
 10
458.226
 20
951.553
 30
0
 11
428.027
 21
956.759
 31
0
 0
LINE
 8
TOOL_0
 5
2D
 10
428.027
 20
956.759
 30
0
 11
340.85
 21
956.759
 31
0
 0
ARC
 8
TOOL_0
 5
2E
 10
340.85
 20
937.559
 30
0
 40
19.2
 50
90.0
 51
148.07970508667
210
0
220
0
230
1.0
 0
ARC
 8
TOOL_0
 5
2F
 10
305.197
 20
959.783
 30
0
 40
22.812012624931
 50
239.849505978008
 51
328.048928599655
210
0
220
0
230
1.0
 0
ARC
 8
TOOL_0
 5
30
 10
258.951
 20
880.237
 30
0
 40
69.199980809246
 50
59.820087804485
 51
90.0
210
0
220
0
230
1.0
 0
LINE
 8
TOOL_0
 5
31
 10
258.951
 20
949.437
 30
0
 11
231.451
 21
949.437
 31
0
 0
ARC
 8
TOOL_0
 5
32
 10
231.451
 20
880.237
 30
0
 40
69.2
 50
90.0
 51
120.179912195515
210
0
220
0
230
1.0
 0
ARC
 8
TOOL_0
 5
33
 10
185.205
 20
959.783
 30
0
 40
22.812295807305
 50
211.951071400345
 51
300.150494021992
210
0
220
0
230
1.0
 0
ARC
 8
TOOL_0
 5
34
 10
149.552
 20
937.559
 30
0
 40
19.200398771901
 50
31.92029491333
 51
90.0
210
0
220
0
230
1.0
 0
LINE
 8
TOOL_0
 5
35
 10
149.552
 20
956.759
 30
0
 11
62.375
 21
956.759
 31
0
 0
ARC
 8
TOOL_0
 5
36
 10
62.391
 20
966.783
 30
0
 40
10.024012769345
 50
202.09223773308
 51
269.908546319466
210
0
220
0
230
1.0
 0
LINE
 8
TOOL_0
 5
37
 10
53.103
 20
963.013
 30
0
 11
31.86
 21
1015.592
 31
0
 0
ARC
 8
TOOL_0
 5
38
 10
23.701
 20
1012.295
 30
0
 40
8.79997102268
 50
22.003320384869
 51
75.523198505332
210
0
220
0
230
1.0
 0
ARC
 8
TOOL_0
 5
39
 10
28.201
 20
1029.724
 30
0
 40
9.200133912069
 50
180.0
 51
255.52270314299
210
0
220
0
230
1.0
 0
LINE
 8
TOOL_0
 5
3A
 10
19.001
 20
1029.724
 30
0
 11
19.001
 21
1109.359
 31
0
 0
ARC
 8
TOOL_0
 5
3B
 10
29.001
 20
1109.359
 30
0
 40
10.0
 50
90.0
 51
180.0
210
0
220
0
230
1.0
 0
LINE
 8
TOOL_0
 5
3C
 10
29.001
 20
1119.359
 30
0
 11
91.506
 21
1119.359
 31
0
 0
ARC
 8
TOOL_0
 5
3D
 10
91.506
 20
1108.559
 30
0
 40
10.8
 50
48.460740534169
 51
90.0
210
0
220
0
230
1.0
 0
ARC
 8
TOOL_0
 5
3E
 10
34.063
 20
1047.536
 30
0
 40
94.602238208195
 50
43.466652314864
 51
46.928384843842
210
0
220
0
230
1.0
 0
LINE
 8
TOOL_0
 5
3F
 10
102.723
 20
1112.616
 30
0
 11
103.325
 21
1112.038
 31
0
 0
ARC
 8
TOOL_0
 5
40
 10
110.552
 20
1117.94
 30
0
 40
9.330762723379
 50
219.237129311716
 51
272.7397465832
210
0
220
0
230
1.0
 0
LINE
 8
TOOL_0
 5
41
 10
110.998
 20
1108.62
 30
0
 11
148.295
 21
1110.575
 31
0
 0
ARC
 8
TOOL_0
 5
42
 10
147.028
 20
1134.742
 30
0
 40
24.200189627356
 50
273.001090424869
 51
320.000123438967
210
0
220
0
230
1.0
 0
LINE
 8
TOOL_0
 5
43
 10
165.567
 20
1119.186
 30
0
 11
175.538
 21
1131.069
 31
0
 0
ARC
 8
TOOL_0
 5
44
 10
229.796
 20
1085.512
 30
0
 40
70.847518044036
 50
90.017791710546
 51
139.981952152145
210
0
220
0
230
1.0
 0
LINE
 8
TOOL_0
 5
45
 10
229.774
 20
1156.36
 30
0
 11
260.63
 21
1156.36
 31
0
 0
ARC
 8
TOOL_0
 5
46
 10
260.63
 20
1085.56
 30
0
 40
70.8
 50
41.351276536947
 51
90.0
210
0
220
0
230
1.0
 0
ARC
 8
TOOL_0
 5
47
 10
-238.179
 20
656.885
 30
0
 40
728.498581501708
 50
39.389999123718
 51
40.741326157114
210
0
220
0
230
1.0
 0
ARC
 8
TOOL_0
 5
48
 10
343.375
 20
1134.742
 30
0
 40
24.199493155849
 50
219.999584725572
 51
267.001150046702
210
0
220
0
230
1.0
 0
LINE
 8
TOOL_0
 5
49
 10
342.109
 20
1110.576
 30
0
 11
379.406
 21
1108.621
 31
0
 0
ARC
 8
TOOL_0
 5
4A
 10
379.887
 20
1117.808
 30
0
 40
9.19958314273
 50
267.002924856545
 51
303.800613645745
210
0
220
0
230
1.0
 0
ARC
 8
TOOL_0
 5
4B
 10
371.961
 20
1127.099
 30
0
 40
21.376950951901
 50
307.603236713993
 51
317.477862862891
210
0
220
0
230
1.0
 0
LINE
 8
TOOL_0
 5
4C
 10
387.716
 20
1112.651
 30
0
 11
391.26
 21
1116.197
 31
0
 0
ARC
 8
TOOL_0
 5
4D
 10
398.922
 20
1108.5
 30
0
 40
10.860481250847
 50
90.131896128692
 51
134.869434936404
210
0
220
0
230
1.0
 0
LINE
 8
TOOL_0
 5
4E
 10
398.897
 20
1119.36
 30
0
 11
461.402
 21
1119.36
 31
0
 0
ARC
 8
TOOL_0
 5
4F
 10
461.402
 20
1109.36
 30
0
 40
10.0
 50
0
 51
90.0
210
0
220
0
230
1.0
 0
LINE
 8
TOOL_0
 5
50
 10
471.402
 20
1109.36
 30
0
 11
471.402
 21
1029.725
 31
0
 0
ARC
 8
TOOL_0
 5
51
 10
462.202
 20
1029.725
 30
0
 40
9.2
 50
284.47729685701
 51
0
210
0
220
0
230
1.0
 0
ARC
 8
TOOL_0
 5
52
 10
466.702
 20
1012.296
 30
0
 40
8.800422773935
 50
104.476801494668
 51
157.996679615132
210
0
220
0
230
1.0
 0
LINE
 8
TOOL_0
 5
53
 10
458.543
 20
1015.593
 30
0
 11
437.3
 21
963.014
 31
0
 0
ARC
 8
TOOL_0
 5
54
 10
428.012
 20
966.784
 30
0
 40
10.023963487563
 50
270.091453680534
 51
337.907762266919
210
0
220
0
230
1.0
 0
LINE
 8
TOOL_0
 5
55
 10
428.028
 20
956.76
 30
0
 11
424.289
 21
953.257
 31
0
 0
LINE
 8
TOOL_0
 5
56
 10
424.289
 20
953.257
 30
0
 11
928.867
 21
33.584
 31
0
 0
LINE
 8
TOOL_0
 5
57
 10
928.867
 20
33.584
 30
0
 11
898.668
 21
38.79
 31
0
 0
LINE
 8
TOOL_0
 5
58
 10
898.668
 20
38.79
 30
0
 11
811.491
 21
38.79
 31
0
 0
ARC
 8
TOOL_0
 5
59
 10
811.491
 20
19.59
 30
0
 40
19.2
 50
90.0
 51
148.07970508667
210
0
220
0
230
1.0
 0
ARC
 8
TOOL_0
 5
5A
 10
775.838
 20
41.814
 30
0
 40
22.812012624931
 50
239.849505978008
 51
328.048928599655
210
0
220
0
230
1.0
 0
ARC
 8
TOOL_0
 5
5B
 10
729.592
 20
-37.732
 30
0
 40
69.199980809246
 50
59.820087804485
 51
90.0
210
0
220
0
230
1.0
 0
LINE
 8
TOOL_0
 5
5C
 10
729.592
 20
31.468
 30
0
 11
702.092
 21
31.468
 31
0
 0
ARC
 8
TOOL_0
 5
5D
 10
702.092
 20
-37.732
 30
0
 40
69.2
 50
90.0
 51
120.179912195515
210
0
220
0
230
1.0
 0
ARC
 8
TOOL_0
 5
5E
 10
655.846
 20
41.814
 30
0
 40
22.812295807305
 50
211.951071400345
 51
300.150494021992
210
0
220
0
230
1.0
 0
ARC
 8
TOOL_0
 5
5F
 10
620.193
 20
19.59
 30
0
 40
19.200398771901
 50
31.92029491333
 51
90.0
210
0
220
0
230
1.0
 0
LINE
 8
TOOL_0
 5
60
 10
620.193
 20
38.79
 30
0
 11
533.016
 21
38.79
 31
0
 0
ARC
 8
TOOL_0
 5
61
 10
533.032
 20
48.814
 30
0
 40
10.024012769345
 50
202.092237733081
 51
269.908546319466
210
0
220
0
230
1.0
 0
LINE
 8
TOOL_0
 5
62
 10
523.744
 20
45.044
 30
0
 11
502.501
 21
97.623
 31
0
 0
ARC
 8
TOOL_0
 5
63
 10
494.342
 20
94.326
 30
0
 40
8.79997102268
 50
22.003320384869
 51
75.523198505332
210
0
220
0
230
1.0
 0
ARC
 8
TOOL_0
 5
64
 10
498.842
 20
111.755
 30
0
 40
9.200133912069
 50
180.0
 51
255.52270314299
210
0
220
0
230
1.0
 0
LINE
 8
TOOL_0
 5
65
 10
489.642
 20
111.755
 30
0
 11
489.642
 21
191.39
 31
0
 0
ARC
 8
TOOL_0
 5
66
 10
499.642
 20
191.39
 30
0
 40
10.0
 50
90.0
 51
180.0
210
0
220
0
230
1.0
 0
LINE
 8
TOOL_0
 5
67
 10
499.642
 20
201.39
 30
0
 11
562.147
 21
201.39
 31
0
 0
ARC
 8
TOOL_0
 5
68
 10
562.147
 20
190.59
 30
0
 40
10.8
 50
48.460740534169
 51
90.0
210
0
220
0
230
1.0
 0
ARC
 8
TOOL_0
 5
69
 10
504.704
 20
129.567
 30
0
 40
94.602238208195
 50
43.466652314864
 51
46.928384843842
210
0
220
0
230
1.0
 0
LINE
 8
TOOL_0
 5
6A
 10
573.364
 20
194.647
 30
0
 11
573.966
 21
194.069
 31
0
 0
ARC
 8
TOOL_0
 5
6B
 10
581.193
 20
199.971
 30
0
 40
9.330762723379
 50
219.237129311716
 51
272.7397465832
210
0
220
0
230
1.0
 0
LINE
 8
TOOL_0
 5
6C
 10
581.639
 20
190.651
 30
0
 11
618.936
 21
192.606
 31
0
 0
ARC
 8
TOOL_0
 5
6D
 10
617.669
 20
216.773
 30
0
 40
24.200189627356
 50
273.001090424869
 51
320.000123438967
210
0
220
0
230
1.0
 0
LINE
 8
TOOL_0
 5
6E
 10
636.208
 20
201.217
 30
0
 11
646.179
 21
213.1
 31
0
 0
ARC
 8
TOOL_0
 5
6F
 10
700.437
 20
167.543
 30
0
 40
70.847518044036
 50
90.017791710546
 51
139.981952152145
210
0
220
0
230
1.0
 0
LINE
 8
TOOL_0
 5
70
 10
700.415
 20
238.391
 30
0
 11
731.271
 21
238.391
 31
0
 0
ARC
 8
TOOL_0
 5
71
 10
731.271
 20
167.591
 30
0
 40
70.8
 50
41.351276536947
 51
90.0
210
0
220
0
230
1.0
 0
ARC
 8
TOOL_0
 5
72
 10
232.462
 20
-261.084
 30
0
 40
728.498581501708
 50
39.389999123718
 51
40.741326157114
210
0
220
0
230
1.0
 0
ARC
 8
TOOL_0
 5
73
 10
814.016
 20
216.773
 30
0
 40
24.199493155849
 50
219.999584725572
 51
267.001150046702
210
0
220
0
230
1.0
 0
LINE
 8
TOOL_0
 5
74
 10
812.75
 20
192.607
 30
0
 11
850.047
 21
190.652
 31
0
 0
ARC
 8
TOOL_0
 5
75
 10
850.528
 20
199.839
 30
0
 40
9.19958314273
 50
267.002924856545
 51
303.800613645745
210
0
220
0
230
1.0
 0
ARC
 8
TOOL_0
 5
76
 10
842.602
 20
209.13
 30
0
 40
21.376950951901
 50
307.603236713993
 51
317.477862862891
210
0
220
0
230
1.0
 0
LINE
 8
TOOL_0
 5
77
 10
858.357
 20
194.682
 30
0
 11
861.901
 21
198.228
 31
0
 0
ARC
 8
TOOL_0
 5
78
 10
869.563
 20
190.531
 30
0
 40
10.860481250847
 50
90.131896128692
 51
134.869434936404
210
0
220
0
230
1.0
 0
LINE
 8
TOOL_0
 5
79
 10
869.538
 20
201.391
 30
0
 11
932.043
 21
201.391
 31
0
 0
ARC
 8
TOOL_0
 5
7A
 10
932.043
 20
191.391
 30
0
 40
10.0
 50
0
 51
90.0
210
0
220
0
230
1.0
 0
LINE
 8
TOOL_0
 5
7B
 10
942.043
 20
191.391
 30
0
 11
942.043
 21
111.756
 31
0
 0
ARC
 8
TOOL_0
 5
7C
 10
932.843
 20
111.756
 30
0
 40
9.2
 50
284.47729685701
 51
0
210
0
220
0
230
1.0
 0
ARC
 8
TOOL_0
 5
7D
 10
937.343
 20
94.327
 30
0
 40
8.800422773935
 50
104.476801494668
 51
157.996679615131
210
0
220
0
230
1.0
 0
LINE
 8
TOOL_0
 5
7E
 10
929.184
 20
97.624
 30
0
 11
907.941
 21
45.045
 31
0
 0
ARC
 8
TOOL_0
 5
7F
 10
898.653
 20
48.815
 30
0
 40
10.023963487563
 50
270.091453680534
 51
337.907762266919
210
0
220
0
230
1.0
 0
LINE
 8
TOOL_0
 5
80
 10
898.669
 20
38.791
 30
0
 11
894.93
 21
35.288
 31
0
 0
LINE
 8
TOOL_0
 5
81
 10
894.93
 20
35.288
 30
0
 11
928.868
 21
951.554
 31
0
 0
LINE
 8
TOOL_0
 5
82
 10
928.868
 20
951.554
 30
0
 11
898.669
 21
956.76
 31
0
 0
LINE
 8
TOOL_0
 5
83
 10
898.669
 20
956.76
 30
0
 11
811.492
 21
956.76
 31
0
 0
ARC
 8
TOOL_0
 5
84
 10
811.492
 20
937.56
 30
0
 40
19.2
 50
90.0
 51
148.07970508667
210
0
220
0
230
1.0
 0
ARC
 8
TOOL_0
 5
85
 10
775.839
 20
959.784
 30
0
 40
22.812012624931
 50
239.849505978008
 51
328.048928599655
210
0
220
0
230
1.0
 0
ARC
 8
TOOL_0
 5
86
 10
729.593
 20
880.238
 30
0
 40
69.199980809246
 50
59.820087804485
 51
90.0
210
0
220
0
230
1.0
 0
LINE
 8
TOOL_0
 5
87
 10
729.593
 20
949.438
 30
0
 11
702.093
 21
949.438
 31
0
 0
ARC
 8
TOOL_0
 5
88
 10
702.093
 20
880.238
 30
0
 40
69.2
 50
90.0
 51
120.179912195515
210
0
220
0
230
1.0
 0
ARC
 8
TOOL_0
 5
89
 10
655.847
 20
959.784
 30
0
 40
22.812295807305
 50
211.951071400345
 51
300.150494021992
210
0
220
0
230
1.0
 0
ARC
 8
TOOL_0
 5
8A
 10
620.194
 20
937.56
 30
0
 40
19.200398771901
 50
31.92029491333
 51
90.0
210
0
220
0
230
1.0
 0
LINE
 8
TOOL_0
 5
8B
 10
620.194
 20
956.76
 30
0
 11
533.017
 21
956.76
 31
0
 0
ARC
 8
TOOL_0
 5
8C
 10
533.033
 20
966.784
 30
0
 40
10.024012769345
 50
202.09223773308
 51
269.908546319466
210
0
220
0
230
1.0
 0
LINE
 8
TOOL_0
 5
8D
 10
523.745
 20
963.014
 30
0
 11
502.502
 21
1015.593
 31
0
 0
ARC
 8
TOOL_0
 5
8E
 10
494.343
 20
1012.296
 30
0
 40
8.79997102268
 50
22.003320384869
 51
75.523198505332
210
0
220
0
230
1.0
 0
ARC
 8
TOOL_0
 5
8F
 10
498.843
 20
1029.725
 30
0
 40
9.200133912069
 50
180.0
 51
255.52270314299
210
0
220
0
230
1.0
 0
LINE
 8
TOOL_0
 5
90
 10
489.643
 20
1029.725
 30
0
 11
489.643
 21
1109.36
 31
0
 0
ARC
 8
TOOL_0
 5
91
 10
499.643
 20
1109.36
 30
0
 40
10.0
 50
90.0
 51
180.0
210
0
220
0
230
1.0
 0
LINE
 8
TOOL_0
 5
92
 10
499.643
 20
1119.36
 30
0
 11
562.148
 21
1119.36
 31
0
 0
ARC
 8
TOOL_0
 5
93
 10
562.148
 20
1108.56
 30
0
 40
10.8
 50
48.460740534169
 51
90.0
210
0
220
0
230
1.0
 0
ARC
 8
TOOL_0
 5
94
 10
504.705
 20
1047.537
 30
0
 40
94.602238208195
 50
43.466652314864
 51
46.928384843842
210
0
220
0
230
1.0
 0
LINE
 8
TOOL_0
 5
95
 10
573.365
 20
1112.617
 30
0
 11
573.967
 21
1112.039
 31
0
 0
ARC
 8
TOOL_0
 5
96
 10
581.194
 20
1117.941
 30
0
 40
9.330762723379
 50
219.237129311716
 51
272.7397465832
210
0
220
0
230
1.0
 0
LINE
 8
TOOL_0
 5
97
 10
581.64
 20
1108.621
 30
0
 11
618.937
 21
1110.576
 31
0
 0
ARC
 8
TOOL_0
 5
98
 10
617.67
 20
1134.743
 30
0
 40
24.200189627356
 50
273.001090424869
 51
320.000123438967
210
0
220
0
230
1.0
 0
LINE
 8
TOOL_0
 5
99
 10
636.209
 20
1119.187
 30
0
 11
646.18
 21
1131.07
 31
0
 0
ARC
 8
TOOL_0
 5
9A
 10
700.438
 20
1085.513
 30
0
 40
70.847518044036
 50
90.017791710546
 51
139.981952152145
210
0
220
0
230
1.0
 0
LINE
 8
TOOL_0
 5
9B
 10
700.416
 20
1156.361
 30
0
 11
731.272
 21
1156.361
 31
0
 0
ARC
 8
TOOL_0
 5
9C
 10
731.272
 20
1085.561
 30
0
 40
70.8
 50
41.351276536947
 51
90.0
210
0
220
0
230
1.0
 0
ARC
 8
TOOL_0
 5
9D
 10
232.463
 20
656.886
 30
0
 40
728.498581501708
 50
39.389999123718
 51
40.741326157114
210
0
220
0
230
1.0
 0
ARC
 8
TOOL_0
 5
9E
 10
814.017
 20
1134.743
 30
0
 40
24.199493155849
 50
219.999584725572
 51
267.001150046702
210
0
220
0
230
1.0
 0
LINE
 8
TOOL_0
 5
9F
 10
812.751
 20
1110.577
 30
0
 11
850.048
 21
1108.622
 31
0
 0
ARC
 8
TOOL_0
 5
A0
 10
850.529
 20
1117.809
 30
0
 40
9.19958314273
 50
267.002924856545
 51
303.800613645745
210
0
220
0
230
1.0
 0
ARC
 8
TOOL_0
 5
A1
 10
842.603
 20
1127.1
 30
0
 40
21.376950951901
 50
307.603236713993
 51
317.477862862891
210
0
220
0
230
1.0
 0
LINE
 8
TOOL_0
 5
A2
 10
858.358
 20
1112.652
 30
0
 11
861.902
 21
1116.198
 31
0
 0
ARC
 8
TOOL_0
 5
A3
 10
869.564
 20
1108.501
 30
0
 40
10.860481250847
 50
90.131896128692
 51
134.869434936404
210
0
220
0
230
1.0
 0
LINE
 8
TOOL_0
 5
A4
 10
869.539
 20
1119.361
 30
0
 11
932.044
 21
1119.361
 31
0
 0
ARC
 8
TOOL_0
 5
A5
 10
932.044
 20
1109.361
 30
0
 40
10.0
 50
0
 51
90.0
210
0
220
0
230
1.0
 0
LINE
 8
TOOL_0
 5
A6
 10
942.044
 20
1109.361
 30
0
 11
942.044
 21
1029.726
 31
0
 0
ARC
 8
TOOL_0
 5
A7
 10
932.844
 20
1029.726
 30
0
 40
9.2
 50
284.47729685701
 51
0
210
0
220
0
230
1.0
 0
ARC
 8
TOOL_0
 5
A8
 10
937.344
 20
1012.297
 30
0
 40
8.800422773935
 50
104.476801494668
 51
157.996679615132
210
0
220
0
230
1.0
 0
LINE
 8
TOOL_0
 5
A9
 10
929.185
 20
1015.594
 30
0
 11
907.942
 21
963.015
 31
0
 0
ARC
 8
TOOL_0
 5
AA
 10
898.654
 20
966.785
 30
0
 40
10.023963487563
 50
270.091453680534
 51
337.907762266919
210
0
220
0
230
1.0
 0
LINE
 8
TOOL_0
 5
AB
 10
898.67
 20
956.761
 30
0
 11
894.931
 21
953.258
 31
0
 0
LINE
 8
TOOL_0
 5
AC
 10
894.931
 20
953.258
 30
0
 11
1399.472
 21
33.585
 31
0
 0
LINE
 8
TOOL_0
 5
AD
 10
1399.472
 20
33.585
 30
0
 11
1369.273
 21
38.791
 31
0
 0
LINE
 8
TOOL_0
 5
AE
 10
1369.273
 20
38.791
 30
0
 11
1282.096
 21
38.791
 31
0
 0
ARC
 8
TOOL_0
 5
AF
 10
1282.096
 20
19.591
 30
0
 40
19.2
 50
90.0
 51
148.07970508667
210
0
220
0
230
1.0
 0
ARC
 8
TOOL_0
 5
B0
 10
1246.443
 20
41.815
 30
0
 40
22.812012624931
 50
239.849505978008
 51
328.048928599655
210
0
220
0
230
1.0
 0
ARC
 8
TOOL_0
 5
B1
 10
1200.197
 20
-37.731
 30
0
 40
69.199980809246
 50
59.820087804485
 51
90.0
210
0
220
0
230
1.0
 0
LINE
 8
TOOL_0
 5
B2
 10
1200.197
 20
31.469
 30
0
 11
1172.697
 21
31.469
 31
0
 0
ARC
 8
TOOL_0
 5
B3
 10
1172.697
 20
-37.731
 30
0
 40
69.2
 50
90.0
 51
120.179912195515
210
0
220
0
230
1.0
 0
ARC
 8
TOOL_0
 5
B4
 10
1126.451
 20
41.815
 30
0
 40
22.812295807305
 50
211.951071400345
 51
300.150494021992
210
0
220
0
230
1.0
 0
ARC
 8
TOOL_0
 5
B5
 10
1090.798
 20
19.591
 30
0
 40
19.200398771901
 50
31.92029491333
 51
90.0
210
0
220
0
230
1.0
 0
LINE
 8
TOOL_0
 5
B6
 10
1090.798
 20
38.791
 30
0
 11
1003.621
 21
38.791
 31
0
 0
ARC
 8
TOOL_0
 5
B7
 10
1003.637
 20
48.815
 30
0
 40
10.024012769345
 50
202.092237733081
 51
269.908546319466
210
0
220
0
230
1.0
 0
LINE
 8
TOOL_0
 5
B8
 10
994.349
 20
45.045
 30
0
 11
973.106
 21
97.624
 31
0
 0
ARC
 8
TOOL_0
 5
B9
 10
964.947
 20
94.327
 30
0
 40
8.79997102268
 50
22.003320384869
 51
75.523198505332
210
0
220
0
230
1.0
 0
ARC
 8
TOOL_0
 5
BA
 10
969.447
 20
111.756
 30
0
 40
9.200133912069
 50
180.0
 51
255.522703142991
210
0
220
0
230
1.0
 0
LINE
 8
TOOL_0
 5
BB
 10
960.247
 20
111.756
 30
0
 11
960.247
 21
191.391
 31
0
 0
ARC
 8
TOOL_0
 5
BC
 10
970.247
 20
191.391
 30
0
 40
10.0
 50
90.0
 51
180.0
210
0
220
0
230
1.0
 0
LINE
 8
TOOL_0
 5
BD
 10
970.247
 20
201.391
 30
0
 11
1032.752
 21
201.391
 31
0
 0
ARC
 8
TOOL_0
 5
BE
 10
1032.752
 20
190.591
 30
0
 40
10.8
 50
48.460740534169
 51
90.0
210
0
220
0
230
1.0
 0
ARC
 8
TOOL_0
 5
BF
 10
975.309
 20
129.568
 30
0
 40
94.602238208195
 50
43.466652314864
 51
46.928384843842
210
0
220
0
230
1.0
 0
LINE
 8
TOOL_0
 5
C0
 10
1043.969
 20
194.648
 30
0
 11
1044.571
 21
194.07
 31
0
 0
ARC
 8
TOOL_0
 5
C1
 10
1051.798
 20
199.972
 30
0
 40
9.330762723379
 50
219.237129311716
 51
272.739746583199
210
0
220
0
230
1.0
 0
LINE
 8
TOOL_0
 5
C2
 10
1052.244
 20
190.652
 30
0
 11
1089.541
 21
192.607
 31
0
 0
ARC
 8
TOOL_0
 5
C3
 10
1088.274
 20
216.774
 30
0
 40
24.200189627356
 50
273.001090424869
 51
320.000123438967
210
0
220
0
230
1.0
 0
LINE
 8
TOOL_0
 5
C4
 10
1106.813
 20
201.218
 30
0
 11
1116.784
 21
213.101
 31
0
 0
ARC
 8
TOOL_0
 5
C5
 10
1171.042
 20
167.544
 30
0
 40
70.847518044036
 50
90.017791710546
 51
139.981952152145
210
0
220
0
230
1.0
 0
LINE
 8
TOOL_0
 5
C6
 10
1171.02
 20
238.392
 30
0
 11
1201.876
 21
238.392
 31
0
 0
ARC
 8
TOOL_0
 5
C7
 10
1201.876
 20
167.592
 30
0
 40
70.8
 50
41.351276536947
 51
90.0
210
0
220
0
230
1.0
 0
ARC
 8
TOOL_0
 5
C8
 10
703.067
 20
-261.083
 30
0
 40
728.498581501708
 50
39.389999123718
 51
40.741326157114
210
0
220
0
230
1.0
 0
ARC
 8
TOOL_0
 5
C9
 10
1284.621
 20
216.774
 30
0
 40
24.199493155849
 50
219.999584725572
 51
267.001150046702
210
0
220
0
230
1.0
 0
LINE
 8
TOOL_0
 5
CA
 10
1283.355
 20
192.608
 30
0
 11
1320.652
 21
190.653
 31
0
 0
ARC
 8
TOOL_0
 5
CB
 10
1321.133
 20
199.84
 30
0
 40
9.19958314273
 50
267.002924856545
 51
303.800613645744
210
0
220
0
230
1.0
 0
ARC
 8
TOOL_0
 5
CC
 10
1313.207
 20
209.131
 30
0
 40
21.376950951902
 50
307.603236713993
 51
317.477862862891
210
0
220
0
230
1.0
 0
LINE
 8
TOOL_0
 5
CD
 10
1328.962
 20
194.683
 30
0
 11
1332.506
 21
198.229
 31
0
 0
ARC
 8
TOOL_0
 5
CE
 10
1340.168
 20
190.532
 30
0
 40
10.860481250847
 50
90.131896128692
 51
134.869434936404
210
0
220
0
230
1.0
 0
LINE
 8
TOOL_0
 5
CF
 10
1340.143
 20
201.392
 30
0
 11
1402.648
 21
201.392
 31
0
 0
ARC
 8
TOOL_0
 5
D0
 10
1402.648
 20
191.392
 30
0
 40
10.0
 50
0
 51
90.0
210
0
220
0
230
1.0
 0
LINE
 8
TOOL_0
 5
D1
 10
1412.648
 20
191.392
 30
0
 11
1412.648
 21
111.757
 31
0
 0
ARC
 8
TOOL_0
 5
D2
 10
1403.448
 20
111.757
 30
0
 40
9.2
 50
284.477296857009
 51
0
210
0
220
0
230
1.0
 0
ARC
 8
TOOL_0
 5
D3
 10
1407.948
 20
94.328
 30
0
 40
8.800422773935
 50
104.476801494668
 51
157.996679615131
210
0
220
0
230
1.0
 0
LINE
 8
TOOL_0
 5
D4
 10
1399.789
 20
97.625
 30
0
 11
1378.546
 21
45.046
 31
0
 0
ARC
 8
TOOL_0
 5
D5
 10
1369.258
 20
48.816
 30
0
 40
10.023963487563
 50
270.091453680535
 51
337.907762266919
210
0
220
0
230
1.0
 0
LINE
 8
TOOL_0
 5
D6
 10
1369.274
 20
38.792
 30
0
 11
1365.535
 21
35.289
 31
0
 0
LINE
 8
TOOL_0
 5
D7
 10
1365.535
 20
35.289
 30
0
 11
1399.473
 21
951.554
 31
0
 0
LINE
 8
TOOL_0
 5
D8
 10
1399.473
 20
951.554
 30
0
 11
1369.274
 21
956.761
 31
0
 0
LINE
 8
TOOL_0
 5
D9
 10
1369.274
 20
956.761
 30
0
 11
1282.097
 21
956.761
 31
0
 0
ARC
 8
TOOL_0
 5
DA
 10
1282.097
 20
937.561
 30
0
 40
19.2
 50
90.0
 51
148.07970508667
210
0
220
0
230
1.0
 0
ARC
 8
TOOL_0
 5
DB
 10
1246.444
 20
959.785
 30
0
 40
22.812012624931
 50
239.849505978008
 51
328.048928599655
210
0
220
0
230
1.0
 0
ARC
 8
TOOL_0
 5
DC
 10
1200.198
 20
880.239
 30
0
 40
69.199980809246
 50
59.820087804485
 51
90.0
210
0
220
0
230
1.0
 0
LINE
 8
TOOL_0
 5
DD
 10
1200.198
 20
949.439
 30
0
 11
1172.698
 21
949.439
 31
0
 0
ARC
 8
TOOL_0
 5
DE
 10
1172.698
 20
880.239
 30
0
 40
69.2
 50
90.0
 51
120.179912195515
210
0
220
0
230
1.0
 0
ARC
 8
TOOL_0
 5
DF
 10
1126.452
 20
959.785
 30
0
 40
22.812295807305
 50
211.951071400345
 51
300.150494021992
210
0
220
0
230
1.0
 0
ARC
 8
TOOL_0
 5
E0
 10
1090.799
 20
937.561
 30
0
 40
19.200398771901
 50
31.92029491333
 51
90.0
210
0
220
0
230
1.0
 0
LINE
 8
TOOL_0
 5
E1
 10
1090.799
 20
956.761
 30
0
 11
1003.622
 21
956.761
 31
0
 0
ARC
 8
TOOL_0
 5
E2
 10
1003.638
 20
966.785
 30
0
 40
10.024012769345
 50
202.09223773308
 51
269.908546319466
210
0
220
0
230
1.0
 0
LINE
 8
TOOL_0
 5
E3
 10
994.35
 20
963.015
 30
0
 11
973.107
 21
1015.594
 31
0
 0
ARC
 8
TOOL_0
 5
E4
 10
964.948
 20
1012.297
 30
0
 40
8.79997102268
 50
22.003320384869
 51
75.523198505332
210
0
220
0
230
1.0
 0
ARC
 8
TOOL_0
 5
E5
 10
969.448
 20
1029.726
 30
0
 40
9.200133912069
 50
180.0
 51
255.52270314299
210
0
220
0
230
1.0
 0
LINE
 8
TOOL_0
 5
E6
 10
960.248
 20
1029.726
 30
0
 11
960.248
 21
1109.361
 31
0
 0
ARC
 8
TOOL_0
 5
E7
 10
970.248
 20
1109.361
 30
0
 40
10.0
 50
90.0
 51
180.0
210
0
220
0
230
1.0
 0
LINE
 8
TOOL_0
 5
E8
 10
970.248
 20
1119.361
 30
0
 11
1032.753
 21
1119.361
 31
0
 0
ARC
 8
TOOL_0
 5
E9
 10
1032.753
 20
1108.561
 30
0
 40
10.8
 50
48.460740534169
 51
90.0
210
0
220
0
230
1.0
 0
ARC
 8
TOOL_0
 5
EA
 10
975.31
 20
1047.538
 30
0
 40
94.602238208195
 50
43.466652314864
 51
46.928384843842
210
0
220
0
230
1.0
 0
LINE
 8
TOOL_0
 5
EB
 10
1043.97
 20
1112.618
 30
0
 11
1044.572
 21
1112.04
 31
0
 0
ARC
 8
TOOL_0
 5
EC
 10
1051.799
 20
1117.942
 30
0
 40
9.330762723379
 50
219.237129311716
 51
272.739746583199
210
0
220
0
230
1.0
 0
LINE
 8
TOOL_0
 5
ED
 10
1052.245
 20
1108.622
 30
0
 11
1089.542
 21
1110.577
 31
0
 0
ARC
 8
TOOL_0
 5
EE
 10
1088.275
 20
1134.744
 30
0
 40
24.200189627356
 50
273.001090424869
 51
320.000123438967
210
0
220
0
230
1.0
 0
LINE
 8
TOOL_0
 5
EF
 10
1106.814
 20
1119.188
 30
0
 11
1116.785
 21
1131.071
 31
0
 0
ARC
 8
TOOL_0
 5
F0
 10
1171.043
 20
1085.514
 30
0
 40
70.847518044036
 50
90.017791710546
 51
139.981952152145
210
0
220
0
230
1.0
 0
LINE
 8
TOOL_0
 5
F1
 10
1171.021
 20
1156.362
 30
0
 11
1201.877
 21
1156.362
 31
0
 0
ARC
 8
TOOL_0
 5
F2
 10
1201.877
 20
1085.562
 30
0
 40
70.8
 50
41.351276536947
 51
90.0
210
0
220
0
230
1.0
 0
ARC
 8
TOOL_0
 5
F3
 10
703.068
 20
656.887
 30
0
 40
728.498581501708
 50
39.389999123718
 51
40.741326157114
210
0
220
0
230
1.0
 0
ARC
 8
TOOL_0
 5
F4
 10
1284.622
 20
1134.744
 30
0
 40
24.199493155849
 50
219.999584725572
 51
267.001150046702
210
0
220
0
230
1.0
 0
LINE
 8
TOOL_0
 5
F5
 10
1283.356
 20
1110.578
 30
0
 11
1320.653
 21
1108.623
 31
0
 0
ARC
 8
TOOL_0
 5
F6
 10
1321.134
 20
1117.81
 30
0
 40
9.19958314273
 50
267.002924856545
 51
303.800613645744
210
0
220
0
230
1.0
 0
ARC
 8
TOOL_0
 5
F7
 10
1313.208
 20
1127.101
 30
0
 40
21.376950951901
 50
307.603236713993
 51
317.477862862891
210
0
220
0
230
1.0
 0
LINE
 8
TOOL_0
 5
F8
 10
1328.963
 20
1112.653
 30
0
 11
1332.507
 21
1116.199
 31
0
 0
ARC
 8
TOOL_0
 5
F9
 10
1340.169
 20
1108.502
 30
0
 40
10.860481250847
 50
90.131896128692
 51
134.869434936404
210
0
220
0
230
1.0
 0
LINE
 8
TOOL_0
 5
FA
 10
1340.144
 20
1119.362
 30
0
 11
1402.649
 21
1119.362
 31
0
 0
ARC
 8
TOOL_0
 5
FB
 10
1402.649
 20
1109.362
 30
0
 40
10.0
 50
0
 51
90.0
210
0
220
0
230
1.0
 0
LINE
 8
TOOL_0
 5
FC
 10
1412.649
 20
1109.362
 30
0
 11
1412.649
 21
1029.727
 31
0
 0
ARC
 8
TOOL_0
 5
FD
 10
1403.449
 20
1029.727
 30
0
 40
9.2
 50
284.477296857009
 51
0
210
0
220
0
230
1.0
 0
ARC
 8
TOOL_0
 5
FE
 10
1407.949
 20
1012.298
 30
0
 40
8.800422773935
 50
104.476801494668
 51
157.996679615132
210
0
220
0
230
1.0
 0
LINE
 8
TOOL_0
 5
FF
 10
1399.79
 20
1015.595
 30
0
 11
1378.547
 21
963.016
 31
0
 0
ARC
 8
TOOL_0
 5
100
 10
1369.259
 20
966.786
 30
0
 40
10.023963487563
 50
270.091453680535
 51
337.907762266919
210
0
220
0
230
1.0
 0
LINE
 8
TOOL_0
 5
101
 10
1369.275
 20
956.762
 30
0
 11
1365.536
 21
953.259
 31
0
 0
LINE
 8
TOOL_0
 5
102
 10
1365.536
 20
953.259
 30
0
 11
1365.536
 21
0.003
 31
0
 0
LINE
 8
TOOL_0
 5
103
 10
1365.536
 20
0.003
 30
0
 11
458.231
 21
1869.396
 31
0
 0
LINE
 8
TOOL_0
 5
104
 10
458.231
 20
1869.396
 30
0
 11
428.032
 21
1874.603
 31
0
 0
LINE
 8
TOOL_0
 5
105
 10
428.032
 20
1874.603
 30
0
 11
340.855
 21
1874.603
 31
0
 0
ARC
 8
TOOL_0
 5
106
 10
340.855
 20
1855.403
 30
0
 40
19.2
 50
90.0
 51
148.07970508667
210
0
220
0
230
1.0
 0
ARC
 8
TOOL_0
 5
107
 10
305.202
 20
1877.627
 30
0
 40
22.812012624931
 50
239.849505978008
 51
328.048928599655
210
0
220
0
230
1.0
 0
ARC
 8
TOOL_0
 5
108
 10
258.956
 20
1798.081
 30
0
 40
69.199980809246
 50
59.820087804485
 51
90.0
210
0
220
0
230
1.0
 0
LINE
 8
TOOL_0
 5
109
 10
258.956
 20
1867.281
 30
0
 11
231.456
 21
1867.281
 31
0
 0
ARC
 8
TOOL_0
 5
10A
 10
231.456
 20
1798.081
 30
0
 40
69.2
 50
90.0
 51
120.179912195515
210
0
220
0
230
1.0
 0
ARC
 8
TOOL_0
 5
10B
 10
185.21
 20
1877.627
 30
0
 40
22.812295807305
 50
211.951071400345
 51
300.150494021992
210
0
220
0
230
1.0
 0
ARC
 8
TOOL_0
 5
10C
 10
149.557
 20
1855.403
 30
0
 40
19.200398771901
 50
31.92029491333
 51
90.0
210
0
220
0
230
1.0
 0
LINE
 8
TOOL_0
 5
10D
 10
149.557
 20
1874.603
 30
0
 11
62.38
 21
1874.603
 31
0
 0
ARC
 8
TOOL_0
 5
10E
 10
62.396
 20
1884.627
 30
0
 40
10.024012769345
 50
202.09223773308
 51
269.908546319466
210
0
220
0
230
1.0
 0
LINE
 8
TOOL_0
 5
10F
 10
53.108
 20
1880.857
 30
0
 11
31.865
 21
1933.436
 31
0
 0
ARC
 8
TOOL_0
 5
110
 10
23.706
 20
1930.139
 30
0
 40
8.79997102268
 50
22.003320384869
 51
75.523198505332
210
0
220
0
230
1.0
 0
ARC
 8
TOOL_0
 5
111
 10
28.206
 20
1947.568
 30
0
 40
9.200133912069
 50
180.0
 51
255.52270314299
210
0
220
0
230
1.0
 0
LINE
 8
TOOL_0
 5
112
 10
19.006
 20
1947.568
 30
0
 11
19.006
 21
2027.203
 31
0
 0
ARC
 8
TOOL_0
 5
113
 10
29.006
 20
2027.203
 30
0
 40
10.0
 50
90.0
 51
180.0
210
0
220
0
230
1.0
 0
LINE
 8
TOOL_0
 5
114
 10
29.006
 20
2037.203
 30
0
 11
91.511
 21
2037.203
 31
0
 0
ARC
 8
TOOL_0
 5
115
 10
91.511
 20
2026.403
 30
0
 40
10.8
 50
48.460740534169
 51
90.0
210
0
220
0
230
1.0
 0
ARC
 8
TOOL_0
 5
116
 10
34.068
 20
1965.38
 30
0
 40
94.602238208195
 50
43.466652314864
 51
46.928384843842
210
0
220
0
230
1.0
 0
LINE
 8
TOOL_0
 5
117
 10
102.728
 20
2030.46
 30
0
 11
103.33
 21
2029.882
 31
0
 0
ARC
 8
TOOL_0
 5
118
 10
110.557
 20
2035.784
 30
0
 40
9.330762723379
 50
219.237129311716
 51
272.7397465832
210
0
220
0
230
1.0
 0
LINE
 8
TOOL_0
 5
119
 10
111.003
 20
2026.464
 30
0
 11
148.3
 21
2028.419
 31
0
 0
ARC
 8
TOOL_0
 5
11A
 10
147.033
 20
2052.586
 30
0
 40
24.200189627356
 50
273.001090424869
 51
320.000123438967
210
0
220
0
230
1.0
 0
LINE
 8
TOOL_0
 5
11B
 10
165.572
 20
2037.03
 30
0
 11
175.543
 21
2048.913
 31
0
 0
ARC
 8
TOOL_0
 5
11C
 10
229.801
 20
2003.356
 30
0
 40
70.847518044036
 50
90.017791710546
 51
139.981952152145
210
0
220
0
230
1.0
 0
LINE
 8
TOOL_0
 5
11D
 10
229.779
 20
2074.204
 30
0
 11
260.635
 21
2074.204
 31
0
 0
ARC
 8
TOOL_0
 5
11E
 10
260.635
 20
2003.404
 30
0
 40
70.8
 50
41.351276536947
 51
90.0
210
0
220
0
230
1.0
 0
ARC
 8
TOOL_0
 5
11F
 10
-238.174
 20
1574.729
 30
0
 40
728.498581501708
 50
39.389999123718
 51
40.741326157114
210
0
220
0
230
1.0
 0
ARC
 8
TOOL_0
 5
120
 10
343.38
 20
2052.586
 30
0
 40
24.199493155849
 50
219.999584725571
 51
267.001150046702
210
0
220
0
230
1.0
 0
LINE
 8
TOOL_0
 5
121
 10
342.114
 20
2028.42
 30
0
 11
379.411
 21
2026.465
 31
0
 0
ARC
 8
TOOL_0
 5
122
 10
379.892
 20
2035.652
 30
0
 40
9.19958314273
 50
267.002924856545
 51
303.800613645745
210
0
220
0
230
1.0
 0
ARC
 8
TOOL_0
 5
123
 10
371.966
 20
2044.943
 30
0
 40
21.376950951901
 50
307.603236713993
 51
317.477862862891
210
0
220
0
230
1.0
 0
LINE
 8
TOOL_0
 5
124
 10
387.721
 20
2030.495
 30
0
 11
391.265
 21
2034.041
 31
0
 0
ARC
 8
TOOL_0
 5
125
 10
398.927
 20
2026.344
 30
0
 40
10.860481250847
 50
90.131896128692
 51
134.869434936404
210
0
220
0
230
1.0
 0
LINE
 8
TOOL_0
 5
126
 10
398.902
 20
2037.204
 30
0
 11
461.407
 21
2037.204
 31
0
 0
ARC
 8
TOOL_0
 5
127
 10
461.407
 20
2027.204
 30
0
 40
10.0
 50
0
 51
90.0
210
0
220
0
230
1.0
 0
LINE
 8
TOOL_0
 5
128
 10
471.407
 20
2027.204
 30
0
 11
471.407
 21
1947.569
 31
0
 0
ARC
 8
TOOL_0
 5
129
 10
462.207
 20
1947.569
 30
0
 40
9.2
 50
284.47729685701
 51
0
210
0
220
0
230
1.0
 0
ARC
 8
TOOL_0
 5
12A
 10
466.707
 20
1930.14
 30
0
 40
8.800422773935
 50
104.476801494668
 51
157.996679615131
210
0
220
0
230
1.0
 0
LINE
 8
TOOL_0
 5
12B
 10
458.548
 20
1933.437
 30
0
 11
437.305
 21
1880.858
 31
0
 0
ARC
 8
TOOL_0
 5
12C
 10
428.017
 20
1884.628
 30
0
 40
10.023963487563
 50
270.091453680534
 51
337.907762266919
210
0
220
0
230
1.0
 0
LINE
 8
TOOL_0
 5
12D
 10
428.033
 20
1874.604
 30
0
 11
424.294
 21
1871.101
 31
0
 0
LINE
 8
TOOL_0
 5
12E
 10
424.294
 20
1871.101
 30
0
 11
928.872
 21
1869.593
 31
0
 0
LINE
 8
TOOL_0
 5
12F
 10
928.872
 20
1869.593
 30
0
 11
898.673
 21
1874.8
 31
0
 0
LINE
 8
TOOL_0
 5
130
 10
898.673
 20
1874.8
 30
0
 11
811.496
 21
1874.8
 31
0
 0
ARC
 8
TOOL_0
 5
131
 10
811.496
 20
1855.6
 30
0
 40
19.2
 50
90.0
 51
148.07970508667
210
0
220
0
230
1.0
 0
ARC
 8
TOOL_0
 5
132
 10
775.843
 20
1877.824
 30
0
 40
22.812012624931
 50
239.849505978008
 51
328.048928599655
210
0
220
0
230
1.0
 0
ARC
 8
TOOL_0
 5
133
 10
729.597
 20
1798.278
 30
0
 40
69.199980809246
 50
59.820087804485
 51
90.0
210
0
220
0
230
1.0
 0
LINE
 8
TOOL_0
 5
134
 10
729.597
 20
1867.478
 30
0
 11
702.097
 21
1867.478
 31
0
 0
ARC
 8
TOOL_0
 5
135
 10
702.097
 20
1798.278
 30
0
 40
69.2
 50
90.0
 51
120.179912195515
210
0
220
0
230
1.0
 0
ARC
 8
TOOL_0
 5
136
 10
655.851
 20
1877.824
 30
0
 40
22.812295807305
 50
211.951071400345
 51
300.150494021991
210
0
220
0
230
1.0
 0
ARC
 8
TOOL_0
 5
137
 10
620.198
 20
1855.6
 30
0
 40
19.200398771901
 50
31.92029491333
 51
90.0
210
0
220
0
230
1.0
 0
LINE
 8
TOOL_0
 5
138
 10
620.198
 20
1874.8
 30
0
 11
533.021
 21
1874.8
 31
0
 0
ARC
 8
TOOL_0
 5
139
 10
533.037
 20
1884.824
 30
0
 40
10.024012769345
 50
202.09223773308
 51
269.908546319466
210
0
220
0
230
1.0
 0
LINE
 8
TOOL_0
 5
13A
 10
523.749
 20
1881.054
 30
0
 11
502.506
 21
1933.633
 31
0
 0
ARC
 8
TOOL_0
 5
13B
 10
494.347
 20
1930.336
 30
0
 40
8.79997102268
 50
22.003320384869
 51
75.523198505332
210
0
220
0
230
1.0
 0
ARC
 8
TOOL_0
 5
13C
 10
498.847
 20
1947.765
 30
0
 40
9.200133912069
 50
180.0
 51
255.52270314299
210
0
220
0
230
1.0
 0
LINE
 8
TOOL_0
 5
13D
 10
489.647
 20
1947.765
 30
0
 11
489.647
 21
2027.4
 31
0
 0
ARC
 8
TOOL_0
 5
13E
 10
499.647
 20
2027.4
 30
0
 40
10.0
 50
90.0
 51
180.0
210
0
220
0
230
1.0
 0
LINE
 8
TOOL_0
 5
13F
 10
499.647
 20
2037.4
 30
0
 11
562.152
 21
2037.4
 31
0
 0
ARC
 8
TOOL_0
 5
140
 10
562.152
 20
2026.6
 30
0
 40
10.8
 50
48.460740534169
 51
90.0
210
0
220
0
230
1.0
 0
ARC
 8
TOOL_0
 5
141
 10
504.709
 20
1965.577
 30
0
 40
94.602238208195
 50
43.466652314864
 51
46.928384843842
210
0
220
0
230
1.0
 0
LINE
 8
TOOL_0
 5
142
 10
573.369
 20
2030.657
 30
0
 11
573.971
 21
2030.079
 31
0
 0
ARC
 8
TOOL_0
 5
143
 10
581.198
 20
2035.981
 30
0
 40
9.330762723379
 50
219.237129311716
 51
272.7397465832
210
0
220
0
230
1.0
 0
LINE
 8
TOOL_0
 5
144
 10
581.644
 20
2026.661
 30
0
 11
618.941
 21
2028.616
 31
0
 0
ARC
 8
TOOL_0
 5
145
 10
617.674
 20
2052.783
 30
0
 40
24.200189627356
 50
273.001090424869
 51
320.000123438967
210
0
220
0
230
1.0
 0
LINE
 8
TOOL_0
 5
146
 10
636.213
 20
2037.227
 30
0
 11
646.184
 21
2049.11
 31
0
 0
ARC
 8
TOOL_0
 5
147
 10
700.442
 20
2003.553
 30
0
 40
70.847518044036
 50
90.017791710546
 51
139.981952152145
210
0
220
0
230
1.0
 0
LINE
 8
TOOL_0
 5
148
 10
700.42
 20
2074.401
 30
0
 11
731.276
 21
2074.401
 31
0
 0
ARC
 8
TOOL_0
 5
149
 10
731.276
 20
2003.601
 30
0
 40
70.8
 50
41.351276536947
 51
90.0
210
0
220
0
230
1.0
 0
ARC
 8
TOOL_0
 5
14A
 10
232.467
 20
1574.926
 30
0
 40
728.498581501708
 50
39.389999123718
 51
40.741326157114
210
0
220
0
230
1.0
 0
ARC
 8
TOOL_0
 5
14B
 10
814.021
 20
2052.783
 30
0
 40
24.199493155849
 50
219.999584725571
 51
267.001150046702
210
0
220
0
230
1.0
 0
LINE
 8
TOOL_0
 5
14C
 10
812.755
 20
2028.617
 30
0
 11
850.052
 21
2026.662
 31
0
 0
ARC
 8
TOOL_0
 5
14D
 10
850.533
 20
2035.849
 30
0
 40
9.19958314273
 50
267.002924856545
 51
303.800613645745
210
0
220
0
230
1.0
 0
ARC
 8
TOOL_0
 5
14E
 10
842.607
 20
2045.14
 30
0
 40
21.376950951901
 50
307.603236713993
 51
317.477862862891
210
0
220
0
230
1.0
 0
LINE
 8
TOOL_0
 5
14F
 10
858.362
 20
2030.692
 30
0
 11
861.906
 21
2034.238
 31
0
 0
ARC
 8
TOOL_0
 5
150
 10
869.568
 20
2026.541
 30
0
 40
10.860481250847
 50
90.131896128692
 51
134.869434936404
210
0
220
0
230
1.0
 0
LINE
 8
TOOL_0
 5
151
 10
869.543
 20
2037.401
 30
0
 11
932.048
 21
2037.401
 31
0
 0
ARC
 8
TOOL_0
 5
152
 10
932.048
 20
2027.401
 30
0
 40
10.0
 50
0
 51
90.0
210
0
220
0
230
1.0
 0
LINE
 8
TOOL_0
 5
153
 10
942.048
 20
2027.401
 30
0
 11
942.048
 21
1947.766
 31
0
 0
ARC
 8
TOOL_0
 5
154
 10
932.848
 20
1947.766
 30
0
 40
9.2
 50
284.47729685701
 51
0
210
0
220
0
230
1.0
 0
ARC
 8
TOOL_0
 5
155
 10
937.348
 20
1930.337
 30
0
 40
8.800422773935
 50
104.476801494668
 51
157.996679615131
210
0
220
0
230
1.0
 0
LINE
 8
TOOL_0
 5
156
 10
929.189
 20
1933.634
 30
0
 11
907.946
 21
1881.055
 31
0
 0
ARC
 8
TOOL_0
 5
157
 10
898.658
 20
1884.825
 30
0
 40
10.023963487563
 50
270.091453680534
 51
337.907762266919
210
0
220
0
230
1.0
 0
LINE
 8
TOOL_0
 5
158
 10
898.674
 20
1874.801
 30
0
 11
894.935
 21
1871.298
 31
0
 0
LINE
 8
TOOL_0
 5
159
 10
894.935
 20
1871.298
 30
0
 11
1399.476
 21
1869.398
 31
0
 0
LINE
 8
TOOL_0
 5
15A
 10
1399.476
 20
1869.398
 30
0
 11
1369.277
 21
1874.605
 31
0
 0
LINE
 8
TOOL_0
 5
15B
 10
1369.277
 20
1874.605
 30
0
 11
1282.1
 21
1874.605
 31
0
 0
ARC
 8
TOOL_0
 5
15C
 10
1282.1
 20
1855.405
 30
0
 40
19.2
 50
90.0
 51
148.07970508667
210
0
220
0
230
1.0
 0
ARC
 8
TOOL_0
 5
15D
 10
1246.447
 20
1877.629
 30
0
 40
22.812012624931
 50
239.849505978008
 51
328.048928599655
210
0
220
0
230
1.0
 0
ARC
 8
TOOL_0
 5
15E
 10
1200.201
 20
1798.083
 30
0
 40
69.199980809246
 50
59.820087804485
 51
90.0
210
0
220
0
230
1.0
 0
LINE
 8
TOOL_0
 5
15F
 10
1200.201
 20
1867.283
 30
0
 11
1172.701
 21
1867.283
 31
0
 0
ARC
 8
TOOL_0
 5
160
 10
1172.701
 20
1798.083
 30
0
 40
69.2
 50
90.0
 51
120.179912195515
210
0
220
0
230
1.0
 0
ARC
 8
TOOL_0
 5
161
 10
1126.455
 20
1877.629
 30
0
 40
22.812295807305
 50
211.951071400344
 51
300.150494021992
210
0
220
0
230
1.0
 0
ARC
 8
TOOL_0
 5
162
 10
1090.802
 20
1855.405
 30
0
 40
19.200398771901
 50
31.92029491333
 51
90.0
210
0
220
0
230
1.0
 0
LINE
 8
TOOL_0
 5
163
 10
1090.802
 20
1874.605
 30
0
 11
1003.625
 21
1874.605
 31
0
 0
ARC
 8
TOOL_0
 5
164
 10
1003.641
 20
1884.629
 30
0
 40
10.024012769345
 50
202.09223773308
 51
269.908546319466
210
0
220
0
230
1.0
 0
LINE
 8
TOOL_0
 5
165
 10
994.353
 20
1880.859
 30
0
 11
973.11
 21
1933.438
 31
0
 0
ARC
 8
TOOL_0
 5
166
 10
964.951
 20
1930.141
 30
0
 40
8.79997102268
 50
22.003320384869
 51
75.523198505332
210
0
220
0
230
1.0
 0
ARC
 8
TOOL_0
 5
167
 10
969.451
 20
1947.57
 30
0
 40
9.200133912069
 50
180.0
 51
255.52270314299
210
0
220
0
230
1.0
 0
LINE
 8
TOOL_0
 5
168
 10
960.251
 20
1947.57
 30
0
 11
960.251
 21
2027.205
 31
0
 0
ARC
 8
TOOL_0
 5
169
 10
970.251
 20
2027.205
 30
0
 40
10.0
 50
90.0
 51
180.0
210
0
220
0
230
1.0
 0
LINE
 8
TOOL_0
 5
16A
 10
970.251
 20
2037.205
 30
0
 11
1032.756
 21
2037.205
 31
0
 0
ARC
 8
TOOL_0
 5
16B
 10
1032.756
 20
2026.405
 30
0
 40
10.8
 50
48.460740534169
 51
90.0
210
0
220
0
230
1.0
 0
ARC
 8
TOOL_0
 5
16C
 10
975.313
 20
1965.382
 30
0
 40
94.602238208195
 50
43.466652314864
 51
46.928384843842
210
0
220
0
230
1.0
 0
LINE
 8
TOOL_0
 5
16D
 10
1043.973
 20
2030.462
 30
0
 11
1044.575
 21
2029.884
 31
0
 0
ARC
 8
TOOL_0
 5
16E
 10
1051.802
 20
2035.786
 30
0
 40
9.330762723379
 50
219.237129311716
 51
272.739746583199
210
0
220
0
230
1.0
 0
LINE
 8
TOOL_0
 5
16F
 10
1052.248
 20
2026.466
 30
0
 11
1089.545
 21
2028.421
 31
0
 0
ARC
 8
TOOL_0
 5
170
 10
1088.278
 20
2052.588
 30
0
 40
24.200189627356
 50
273.001090424869
 51
320.000123438967
210
0
220
0
230
1.0
 0
LINE
 8
TOOL_0
 5
171
 10
1106.817
 20
2037.032
 30
0
 11
1116.788
 21
2048.915
 31
0
 0
ARC
 8
TOOL_0
 5
172
 10
1171.046
 20
2003.358
 30
0
 40
70.847518044036
 50
90.017791710546
 51
139.981952152145
210
0
220
0
230
1.0
 0
LINE
 8
TOOL_0
 5
173
 10
1171.024
 20
2074.206
 30
0
 11
1201.88
 21
2074.206
 31
0
 0
ARC
 8
TOOL_0
 5
174
 10
1201.88
 20
2003.406
 30
0
 40
70.8
 50
41.351276536947
 51
90.0
210
0
220
0
230
1.0
 0
ARC
 8
TOOL_0
 5
175
 10
703.071
 20
1574.731
 30
0
 40
728.498581501708
 50
39.389999123718
 51
40.741326157114
210
0
220
0
230
1.0
 0
ARC
 8
TOOL_0
 5
176
 10
1284.625
 20
2052.588
 30
0
 40
24.199493155849
 50
219.999584725571
 51
267.001150046702
210
0
220
0
230
1.0
 0
LINE
 8
TOOL_0
 5
177
 10
1283.359
 20
2028.422
 30
0
 11
1320.656
 21
2026.467
 31
0
 0
ARC
 8
TOOL_0
 5
178
 10
1321.137
 20
2035.654
 30
0
 40
9.19958314273
 50
267.002924856545
 51
303.800613645744
210
0
220
0
230
1.0
 0
ARC
 8
TOOL_0
 5
179
 10
1313.211
 20
2044.945
 30
0
 40
21.376950951901
 50
307.603236713993
 51
317.477862862891
210
0
220
0
230
1.0
 0
LINE
 8
TOOL_0
 5
17A
 10
1328.966
 20
2030.497
 30
0
 11
1332.51
 21
2034.043
 31
0
 0
ARC
 8
TOOL_0
 5
17B
 10
1340.172
 20
2026.346
 30
0
 40
10.860481250847
 50
90.131896128692
 51
134.869434936404
210
0
220
0
230
1.0
 0
LINE
 8
TOOL_0
 5
17C
 10
1340.147
 20
2037.206
 30
0
 11
1402.652
 21
2037.206
 31
0
 0
ARC
 8
TOOL_0
 5
17D
 10
1402.652
 20
2027.206
 30
0
 40
10.0
 50
0
 51
90.0
210
0
220
0
230
1.0
 0
LINE
 8
TOOL_0
 5
17E
 10
1412.652
 20
2027.206
 30
0
 11
1412.652
 21
1947.571
 31
0
 0
ARC
 8
TOOL_0
 5
17F
 10
1403.452
 20
1947.571
 30
0
 40
9.2
 50
284.477296857009
 51
0
210
0
220
0
230
1.0
 0
ARC
 8
TOOL_0
 5
180
 10
1407.952
 20
1930.142
 30
0
 40
8.800422773935
 50
104.476801494668
 51
157.996679615131
210
0
220
0
230
1.0
 0
LINE
 8
TOOL_0
 5
181
 10
1399.793
 20
1933.439
 30
0
 11
1378.55
 21
1880.86
 31
0
 0
ARC
 8
TOOL_0
 5
182
 10
1369.262
 20
1884.63
 30
0
 40
10.023963487563
 50
270.091453680535
 51
337.907762266919
210
0
220
0
230
1.0
 0
LINE
 8
TOOL_0
 5
183
 10
1369.278
 20
1874.606
 30
0
 11
1365.539
 21
1871.103
 31
0
 0
LINE
 8
TOOL_0
 5
184
 10
1365.539
 20
1871.103
 30
0
 11
1450.759
 21
0.006
 31
0
 0
LINE
 8
TOOL_0
 5
185
 10
1450.759
 20
0.006
 30
0
 11
1450.759
 21
1.006
 31
0
 0
LINE
 8
TOOL_0
 5
186
 10
1450.759
 20
1.006
 30
0
 11
1450.759
 21
0.006
 31
0
 0
LINE
 8
TOOL_0
 5
187
 10
1450.759
 20
0.006
 30
0
 11
1450.759
 21
0.006
 31
0
 0
LINE
 8
TOOL_0
 5
188
 10
1450.759
 20
0.006
 30
0
 11
1450.759
 21
1.006
 31
0
 0
LINE
 8
TOOL_0
 5
189
 10
1450.759
 20
1.006
 30
0
 11
1450.759
 21
2349.006
 31
0
 0
LINE
 8
TOOL_0
 5
18A
 10
1450.759
 20
2349.006
 30
0
 11
1450.759
 21
2350.006
 31
0
 0
ENDSEC
 0
EOF

