0
SECTION
2
TABLES
0
TABLE
2
LAYER
70
0
0
LAYER
2
LAYER_NAME
70
0
62
1
6
CONTINUOUS
0
ENDTAB
0
ENDSEC
 0
SECTION
 2
ENTITIES
 0
LINE
 8
TOOL_0
 5
1
 10
4758.491
 20
900.87
 30
0
 11
4778.491
 21
897.49
 31
0
 0
ARC
 8
TOOL_0
 5
2
 10
4779.062
 20
900.871
 30
0
 40
3.428877658943
 50
260.414059530605
 51
0
210
0
220
0
230
1.0
 0
ARC
 8
TOOL_0
 5
3
 10
4758.491
 20
900.871
 30
0
 40
24.0
 50
0
 51
180.0
210
0
220
0
230
1.0
 0
ARC
 8
TOOL_0
 5
4
 10
4758.491
 20
900.871
 30
0
 40
24.0
 50
180.0
 51
0
210
0
220
0
230
1.0
 0
LINE
 8
TOOL_0
 5
5
 10
4782.491
 20
900.871
 30
0
 11
4775.218
 21
908.144
 31
0
 0
LINE
 8
TOOL_0
 5
6
 10
4775.218
 20
908.144
 30
0
 11
4853.491
 21
900.871
 31
0
 0
LINE
 8
TOOL_0
 5
7
 10
4853.491
 20
900.871
 30
0
 11
4873.491
 21
897.491
 31
0
 0
ARC
 8
TOOL_0
 5
8
 10
4874.062
 20
900.872
 30
0
 40
3.428877658943
 50
260.414059530605
 51
0
210
0
220
0
230
1.0
 0
ARC
 8
TOOL_0
 5
9
 10
4853.491
 20
900.872
 30
0
 40
24.0
 50
0
 51
180.0
210
0
220
0
230
1.0
 0
ARC
 8
TOOL_0
 5
A
 10
4853.491
 20
900.872
 30
0
 40
24.0
 50
180.0
 51
0
210
0
220
0
230
1.0
 0
LINE
 8
TOOL_0
 5
B
 10
4877.491
 20
900.872
 30
0
 11
4870.218
 21
908.145
 31
0
 0
LINE
 8
TOOL_0
 5
C
 10
4870.218
 20
908.145
 30
0
 11
4853.491
 21
784.872
 31
0
 0
LINE
 8
TOOL_0
 5
D
 10
4853.491
 20
784.872
 30
0
 11
4873.491
 21
781.492
 31
0
 0
ARC
 8
TOOL_0
 5
E
 10
4874.062
 20
784.873
 30
0
 40
3.428877658943
 50
260.414059530605
 51
0
210
0
220
0
230
1.0
 0
ARC
 8
TOOL_0
 5
F
 10
4853.491
 20
784.873
 30
0
 40
24.0
 50
0
 51
180.0
210
0
220
0
230
1.0
 0
ARC
 8
TOOL_0
 5
10
 10
4853.491
 20
784.873
 30
0
 40
24.0
 50
180.0
 51
0
210
0
220
0
230
1.0
 0
LINE
 8
TOOL_0
 5
11
 10
4877.491
 20
784.873
 30
0
 11
4870.218
 21
792.146
 31
0
 0
LINE
 8
TOOL_0
 5
12
 10
4870.218
 20
792.146
 30
0
 11
4758.491
 21
784.873
 31
0
 0
LINE
 8
TOOL_0
 5
13
 10
4758.491
 20
784.873
 30
0
 11
4778.491
 21
781.493
 31
0
 0
ARC
 8
TOOL_0
 5
14
 10
4779.062
 20
784.874
 30
0
 40
3.428877658943
 50
260.414059530605
 51
0
210
0
220
0
230
1.0
 0
ARC
 8
TOOL_0
 5
15
 10
4758.491
 20
784.874
 30
0
 40
24.0
 50
0
 51
180.0
210
0
220
0
230
1.0
 0
ARC
 8
TOOL_0
 5
16
 10
4758.491
 20
784.874
 30
0
 40
24.0
 50
180.0
 51
0
210
0
220
0
230
1.0
 0
LINE
 8
TOOL_0
 5
17
 10
4782.491
 20
784.874
 30
0
 11
4775.218
 21
792.147
 31
0
 0
LINE
 8
TOOL_0
 5
18
 10
4775.218
 20
792.147
 30
0
 11
4598.491
 21
482.874
 31
0
 0
LINE
 8
TOOL_0
 5
19
 10
4598.491
 20
482.874
 30
0
 11
4627.658
 21
477.944
 31
0
 0
ARC
 8
TOOL_0
 5
1A
 10
4628.491
 20
482.874
 30
0
 40
4.999878898533
 50
260.409571175911
 51
0
210
0
220
0
230
1.0
 0
LINE
 8
TOOL_0
 5
1B
 10
4633.491
 20
482.874
 30
0
 11
4633.491
 21
682.874
 31
0
 0
ARC
 8
TOOL_0
 5
1C
 10
4583.491
 20
682.874
 30
0
 40
50.0
 50
0
 51
90.0
210
0
220
0
230
1.0
 0
LINE
 8
TOOL_0
 5
1D
 10
4583.491
 20
732.874
 30
0
 11
2948.491
 21
732.874
 31
0
 0
ARC
 8
TOOL_0
 5
1E
 10
2948.491
 20
682.874
 30
0
 40
50.0
 50
90.0
 51
180.0
210
0
220
0
230
1.0
 0
LINE
 8
TOOL_0
 5
1F
 10
2898.491
 20
682.874
 30
0
 11
2898.491
 21
282.874
 31
0
 0
ARC
 8
TOOL_0
 5
20
 10
2948.491
 20
282.874
 30
0
 40
50.0
 50
180.0
 51
270.0
210
0
220
0
230
1.0
 0
LINE
 8
TOOL_0
 5
21
 10
2948.491
 20
232.874
 30
0
 11
4583.491
 21
232.874
 31
0
 0
ARC
 8
TOOL_0
 5
22
 10
4583.491
 20
282.874
 30
0
 40
50.0
 50
270.0
 51
0
210
0
220
0
230
1.0
 0
LINE
 8
TOOL_0
 5
23
 10
4633.491
 20
282.874
 30
0
 11
4633.491
 21
482.874
 31
0
 0
LINE
 8
TOOL_0
 5
24
 10
4633.491
 20
482.874
 30
0
 11
4622.884
 21
493.481
 31
0
 0
LINE
 8
TOOL_0
 5
25
 10
4622.884
 20
493.481
 30
0
 11
4853.49
 21
180.874
 31
0
 0
LINE
 8
TOOL_0
 5
26
 10
4853.49
 20
180.874
 30
0
 11
4873.49
 21
177.494
 31
0
 0
ARC
 8
TOOL_0
 5
27
 10
4874.061
 20
180.875
 30
0
 40
3.428877658943
 50
260.414059530605
 51
0
210
0
220
0
230
1.0
 0
ARC
 8
TOOL_0
 5
28
 10
4853.49
 20
180.875
 30
0
 40
24.0
 50
0
 51
180.0
210
0
220
0
230
1.0
 0
ARC
 8
TOOL_0
 5
29
 10
4853.49
 20
180.875
 30
0
 40
24.0
 50
180.0
 51
0
210
0
220
0
230
1.0
 0
LINE
 8
TOOL_0
 5
2A
 10
4877.49
 20
180.875
 30
0
 11
4870.217
 21
188.148
 31
0
 0
LINE
 8
TOOL_0
 5
2B
 10
4870.217
 20
188.148
 30
0
 11
4758.49
 21
180.875
 31
0
 0
LINE
 8
TOOL_0
 5
2C
 10
4758.49
 20
180.875
 30
0
 11
4778.49
 21
177.495
 31
0
 0
ARC
 8
TOOL_0
 5
2D
 10
4779.061
 20
180.876
 30
0
 40
3.428877658943
 50
260.414059530605
 51
0
210
0
220
0
230
1.0
 0
ARC
 8
TOOL_0
 5
2E
 10
4758.49
 20
180.876
 30
0
 40
24.0
 50
0
 51
180.0
210
0
220
0
230
1.0
 0
ARC
 8
TOOL_0
 5
2F
 10
4758.49
 20
180.876
 30
0
 40
24.0
 50
180.0
 51
0
210
0
220
0
230
1.0
 0
LINE
 8
TOOL_0
 5
30
 10
4782.49
 20
180.876
 30
0
 11
4775.217
 21
188.149
 31
0
 0
LINE
 8
TOOL_0
 5
31
 10
4775.217
 20
188.149
 30
0
 11
4758.49
 21
64.876
 31
0
 0
LINE
 8
TOOL_0
 5
32
 10
4758.49
 20
64.876
 30
0
 11
4778.49
 21
61.496
 31
0
 0
ARC
 8
TOOL_0
 5
33
 10
4779.061
 20
64.877
 30
0
 40
3.428877658943
 50
260.414059530605
 51
0
210
0
220
0
230
1.0
 0
ARC
 8
TOOL_0
 5
34
 10
4758.49
 20
64.877
 30
0
 40
24.0
 50
0
 51
180.0
210
0
220
0
230
1.0
 0
ARC
 8
TOOL_0
 5
35
 10
4758.49
 20
64.877
 30
0
 40
24.0
 50
180.0
 51
0
210
0
220
0
230
1.0
 0
LINE
 8
TOOL_0
 5
36
 10
4782.49
 20
64.877
 30
0
 11
4775.217
 21
72.15
 31
0
 0
LINE
 8
TOOL_0
 5
37
 10
4775.217
 20
72.15
 30
0
 11
4853.49
 21
64.877
 31
0
 0
LINE
 8
TOOL_0
 5
38
 10
4853.49
 20
64.877
 30
0
 11
4873.49
 21
61.497
 31
0
 0
ARC
 8
TOOL_0
 5
39
 10
4874.061
 20
64.878
 30
0
 40
3.428877658943
 50
260.414059530605
 51
0
210
0
220
0
230
1.0
 0
ARC
 8
TOOL_0
 5
3A
 10
4853.49
 20
64.878
 30
0
 40
24.0
 50
0
 51
180.0
210
0
220
0
230
1.0
 0
ARC
 8
TOOL_0
 5
3B
 10
4853.49
 20
64.878
 30
0
 40
24.0
 50
180.0
 51
0
210
0
220
0
230
1.0
 0
LINE
 8
TOOL_0
 5
3C
 10
4877.49
 20
64.878
 30
0
 11
4870.217
 21
72.151
 31
0
 0
LINE
 8
TOOL_0
 5
3D
 10
4870.217
 20
72.151
 30
0
 11
5015.597
 21
21.978
 31
0
 0
LINE
 8
TOOL_0
 5
3E
 10
5015.597
 20
21.978
 30
0
 11
4984.59
 21
21.978
 31
0
 0
LINE
 8
TOOL_0
 5
3F
 10
4984.59
 20
21.978
 30
0
 11
2357.39
 21
21.978
 31
0
 0
LINE
 8
TOOL_0
 5
40
 10
2357.39
 20
21.978
 30
0
 11
2357.39
 21
943.778
 31
0
 0
LINE
 8
TOOL_0
 5
41
 10
2357.39
 20
943.778
 30
0
 11
4984.59
 21
943.778
 31
0
 0
LINE
 8
TOOL_0
 5
42
 10
4984.59
 20
943.778
 30
0
 11
4984.59
 21
21.978
 31
0
 0
LINE
 8
TOOL_0
 5
43
 10
4984.59
 20
21.978
 30
0
 11
4984.59
 21
16.825
 31
0
 0
LINE
 8
TOOL_0
 5
44
 10
4984.59
 20
16.825
 30
0
 11
2418.715
 21
1032.303
 31
0
 0
LINE
 8
TOOL_0
 5
45
 10
2418.715
 20
1032.303
 30
0
 11
2423.645
 21
1061.47
 31
0
 0
ARC
 8
TOOL_0
 5
46
 10
2418.715
 20
1062.303
 30
0
 40
4.999878898533
 50
350.409571175906
 51
90.0
210
0
220
0
230
1.0
 0
ARC
 8
TOOL_0
 5
47
 10
2418.715
 20
1043.303
 30
0
 40
24.0
 50
90.0
 51
180.0
210
0
220
0
230
1.0
 0
LINE
 8
TOOL_0
 5
48
 10
2394.715
 20
1043.303
 30
0
 11
2394.715
 21
1026.303
 31
0
 0
ARC
 8
TOOL_0
 5
49
 10
2418.715
 20
1026.303
 30
0
 40
24.0
 50
180.0
 51
0
210
0
220
0
230
1.0
 0
LINE
 8
TOOL_0
 5
4A
 10
2442.715
 20
1026.303
 30
0
 11
2442.715
 21
1043.303
 31
0
 0
ARC
 8
TOOL_0
 5
4B
 10
2418.715
 20
1043.303
 30
0
 40
24.0
 50
0
 51
90.0
210
0
220
0
230
1.0
 0
LINE
 8
TOOL_0
 5
4C
 10
2418.715
 20
1067.303
 30
0
 11
2408.108
 21
1056.696
 31
0
 0
LINE
 8
TOOL_0
 5
4D
 10
2408.108
 20
1056.696
 30
0
 11
2558.715
 21
1034.803
 31
0
 0
LINE
 8
TOOL_0
 5
4E
 10
2558.715
 20
1034.803
 30
0
 11
2578.715
 21
1031.422
 31
0
 0
ARC
 8
TOOL_0
 5
4F
 10
2579.286
 20
1034.803
 30
0
 40
3.428877658943
 50
260.414059530605
 51
0
210
0
220
0
230
1.0
 0
ARC
 8
TOOL_0
 5
50
 10
2558.715
 20
1034.803
 30
0
 40
24.0
 50
0
 51
180.0
210
0
220
0
230
1.0
 0
ARC
 8
TOOL_0
 5
51
 10
2558.715
 20
1034.803
 30
0
 40
24.0
 50
180.0
 51
0
210
0
220
0
230
1.0
 0
LINE
 8
TOOL_0
 5
52
 10
2582.715
 20
1034.803
 30
0
 11
2575.442
 21
1042.076
 31
0
 0
LINE
 8
TOOL_0
 5
53
 10
2575.442
 20
1042.076
 30
0
 11
2518.715
 21
1139.803
 31
0
 0
LINE
 8
TOOL_0
 5
54
 10
2518.715
 20
1139.803
 30
0
 11
2538.715
 21
1136.422
 31
0
 0
ARC
 8
TOOL_0
 5
55
 10
2539.286
 20
1139.803
 30
0
 40
3.428877658943
 50
260.414059530605
 51
0
210
0
220
0
230
1.0
 0
ARC
 8
TOOL_0
 5
56
 10
2518.715
 20
1139.803
 30
0
 40
24.0
 50
0
 51
180.0
210
0
220
0
230
1.0
 0
ARC
 8
TOOL_0
 5
57
 10
2518.715
 20
1139.803
 30
0
 40
24.0
 50
180.0
 51
0
210
0
220
0
230
1.0
 0
LINE
 8
TOOL_0
 5
58
 10
2542.715
 20
1139.803
 30
0
 11
2535.442
 21
1147.076
 31
0
 0
LINE
 8
TOOL_0
 5
59
 10
2535.442
 20
1147.076
 30
0
 11
2668.715
 21
1139.803
 31
0
 0
LINE
 8
TOOL_0
 5
5A
 10
2668.715
 20
1139.803
 30
0
 11
2688.715
 21
1136.422
 31
0
 0
ARC
 8
TOOL_0
 5
5B
 10
2689.286
 20
1139.803
 30
0
 40
3.428877658943
 50
260.414059530605
 51
0
210
0
220
0
230
1.0
 0
ARC
 8
TOOL_0
 5
5C
 10
2668.715
 20
1139.803
 30
0
 40
24.0
 50
0
 51
180.0
210
0
220
0
230
1.0
 0
ARC
 8
TOOL_0
 5
5D
 10
2668.715
 20
1139.803
 30
0
 40
24.0
 50
180.0
 51
0
210
0
220
0
230
1.0
 0
LINE
 8
TOOL_0
 5
5E
 10
2692.715
 20
1139.803
 30
0
 11
2685.442
 21
1147.076
 31
0
 0
LINE
 8
TOOL_0
 5
5F
 10
2685.442
 20
1147.076
 30
0
 11
2818.715
 21
1139.803
 31
0
 0
LINE
 8
TOOL_0
 5
60
 10
2818.715
 20
1139.803
 30
0
 11
2838.715
 21
1136.422
 31
0
 0
ARC
 8
TOOL_0
 5
61
 10
2839.286
 20
1139.803
 30
0
 40
3.428877658943
 50
260.414059530605
 51
0
210
0
220
0
230
1.0
 0
ARC
 8
TOOL_0
 5
62
 10
2818.715
 20
1139.803
 30
0
 40
24.0
 50
0
 51
180.0
210
0
220
0
230
1.0
 0
ARC
 8
TOOL_0
 5
63
 10
2818.715
 20
1139.803
 30
0
 40
24.0
 50
180.0
 51
0
210
0
220
0
230
1.0
 0
LINE
 8
TOOL_0
 5
64
 10
2842.715
 20
1139.803
 30
0
 11
2835.442
 21
1147.076
 31
0
 0
LINE
 8
TOOL_0
 5
65
 10
2835.442
 20
1147.076
 30
0
 11
4098.715
 21
1032.303
 31
0
 0
LINE
 8
TOOL_0
 5
66
 10
4098.715
 20
1032.303
 30
0
 11
4103.645
 21
1061.47
 31
0
 0
ARC
 8
TOOL_0
 5
67
 10
4098.715
 20
1062.303
 30
0
 40
4.999878898534
 50
350.409571175907
 51
90.0
210
0
220
0
230
1.0
 0
ARC
 8
TOOL_0
 5
68
 10
4098.715
 20
1043.303
 30
0
 40
24.0
 50
90.0
 51
180.0
210
0
220
0
230
1.0
 0
LINE
 8
TOOL_0
 5
69
 10
4074.715
 20
1043.303
 30
0
 11
4074.715
 21
1026.303
 31
0
 0
ARC
 8
TOOL_0
 5
6A
 10
4098.715
 20
1026.303
 30
0
 40
24.0
 50
180.0
 51
0
210
0
220
0
230
1.0
 0
LINE
 8
TOOL_0
 5
6B
 10
4122.715
 20
1026.303
 30
0
 11
4122.715
 21
1043.303
 31
0
 0
ARC
 8
TOOL_0
 5
6C
 10
4098.715
 20
1043.303
 30
0
 40
24.0
 50
0
 51
90.0
210
0
220
0
230
1.0
 0
LINE
 8
TOOL_0
 5
6D
 10
4098.715
 20
1067.303
 30
0
 11
4088.108
 21
1056.696
 31
0
 0
LINE
 8
TOOL_0
 5
6E
 10
4088.108
 20
1056.696
 30
0
 11
4628.715
 21
1034.803
 31
0
 0
LINE
 8
TOOL_0
 5
6F
 10
4628.715
 20
1034.803
 30
0
 11
4648.715
 21
1031.422
 31
0
 0
ARC
 8
TOOL_0
 5
70
 10
4649.286
 20
1034.803
 30
0
 40
3.428877658943
 50
260.414059530605
 51
0
210
0
220
0
230
1.0
 0
ARC
 8
TOOL_0
 5
71
 10
4628.715
 20
1034.803
 30
0
 40
24.0
 50
0
 51
180.0
210
0
220
0
230
1.0
 0
ARC
 8
TOOL_0
 5
72
 10
4628.715
 20
1034.803
 30
0
 40
24.0
 50
180.0
 51
0
210
0
220
0
230
1.0
 0
LINE
 8
TOOL_0
 5
73
 10
4652.715
 20
1034.803
 30
0
 11
4645.442
 21
1042.076
 31
0
 0
LINE
 8
TOOL_0
 5
74
 10
4645.442
 20
1042.076
 30
0
 11
4965.345
 21
964.003
 31
0
 0
LINE
 8
TOOL_0
 5
75
 10
4965.345
 20
964.003
 30
0
 11
4934.815
 21
964.003
 31
0
 0
LINE
 8
TOOL_0
 5
76
 10
4934.815
 20
964.003
 30
0
 11
2357.615
 21
964.003
 31
0
 0
LINE
 8
TOOL_0
 5
77
 10
2357.615
 20
964.003
 30
0
 11
2357.615
 21
1250.603
 31
0
 0
LINE
 8
TOOL_0
 5
78
 10
2357.615
 20
1250.603
 30
0
 11
4934.815
 21
1250.603
 31
0
 0
LINE
 8
TOOL_0
 5
79
 10
4934.815
 20
1250.603
 30
0
 11
4934.815
 21
964.003
 31
0
 0
LINE
 8
TOOL_0
 5
7A
 10
4934.815
 20
964.003
 30
0
 11
4934.815
 21
958.698
 31
0
 0
LINE
 8
TOOL_0
 5
7B
 10
4934.815
 20
958.698
 30
0
 11
2419.059
 21
1339.166
 31
0
 0
LINE
 8
TOOL_0
 5
7C
 10
2419.059
 20
1339.166
 30
0
 11
2423.989
 21
1368.332
 31
0
 0
ARC
 8
TOOL_0
 5
7D
 10
2419.059
 20
1369.165
 30
0
 40
4.999878898533
 50
350.409571175906
 51
90.0
210
0
220
0
230
1.0
 0
ARC
 8
TOOL_0
 5
7E
 10
2419.059
 20
1350.165
 30
0
 40
24.0
 50
90.0
 51
180.0
210
0
220
0
230
1.0
 0
LINE
 8
TOOL_0
 5
7F
 10
2395.059
 20
1350.165
 30
0
 11
2395.059
 21
1333.165
 31
0
 0
ARC
 8
TOOL_0
 5
80
 10
2419.059
 20
1333.165
 30
0
 40
24.0
 50
180.0
 51
0
210
0
220
0
230
1.0
 0
LINE
 8
TOOL_0
 5
81
 10
2443.059
 20
1333.165
 30
0
 11
2443.059
 21
1350.165
 31
0
 0
ARC
 8
TOOL_0
 5
82
 10
2419.059
 20
1350.165
 30
0
 40
24.0
 50
0
 51
90.0
210
0
220
0
230
1.0
 0
LINE
 8
TOOL_0
 5
83
 10
2419.059
 20
1374.165
 30
0
 11
2408.452
 21
1363.558
 31
0
 0
LINE
 8
TOOL_0
 5
84
 10
2408.452
 20
1363.558
 30
0
 11
2559.059
 21
1341.665
 31
0
 0
LINE
 8
TOOL_0
 5
85
 10
2559.059
 20
1341.665
 30
0
 11
2579.059
 21
1338.284
 31
0
 0
ARC
 8
TOOL_0
 5
86
 10
2579.63
 20
1341.665
 30
0
 40
3.428877658943
 50
260.414059530605
 51
0
210
0
220
0
230
1.0
 0
ARC
 8
TOOL_0
 5
87
 10
2559.059
 20
1341.665
 30
0
 40
24.0
 50
0
 51
180.0
210
0
220
0
230
1.0
 0
ARC
 8
TOOL_0
 5
88
 10
2559.059
 20
1341.665
 30
0
 40
24.0
 50
180.0
 51
0
210
0
220
0
230
1.0
 0
LINE
 8
TOOL_0
 5
89
 10
2583.059
 20
1341.665
 30
0
 11
2575.786
 21
1348.938
 31
0
 0
LINE
 8
TOOL_0
 5
8A
 10
2575.786
 20
1348.938
 30
0
 11
2519.059
 21
1446.665
 31
0
 0
LINE
 8
TOOL_0
 5
8B
 10
2519.059
 20
1446.665
 30
0
 11
2539.059
 21
1443.284
 31
0
 0
ARC
 8
TOOL_0
 5
8C
 10
2539.63
 20
1446.665
 30
0
 40
3.428877658943
 50
260.414059530605
 51
0
210
0
220
0
230
1.0
 0
ARC
 8
TOOL_0
 5
8D
 10
2519.059
 20
1446.665
 30
0
 40
24.0
 50
0
 51
180.0
210
0
220
0
230
1.0
 0
ARC
 8
TOOL_0
 5
8E
 10
2519.059
 20
1446.665
 30
0
 40
24.0
 50
180.0
 51
0
210
0
220
0
230
1.0
 0
LINE
 8
TOOL_0
 5
8F
 10
2543.059
 20
1446.665
 30
0
 11
2535.786
 21
1453.938
 31
0
 0
LINE
 8
TOOL_0
 5
90
 10
2535.786
 20
1453.938
 30
0
 11
2669.059
 21
1446.665
 31
0
 0
LINE
 8
TOOL_0
 5
91
 10
2669.059
 20
1446.665
 30
0
 11
2689.059
 21
1443.284
 31
0
 0
ARC
 8
TOOL_0
 5
92
 10
2689.63
 20
1446.665
 30
0
 40
3.428877658943
 50
260.414059530605
 51
0
210
0
220
0
230
1.0
 0
ARC
 8
TOOL_0
 5
93
 10
2669.059
 20
1446.665
 30
0
 40
24.0
 50
0
 51
180.0
210
0
220
0
230
1.0
 0
ARC
 8
TOOL_0
 5
94
 10
2669.059
 20
1446.665
 30
0
 40
24.0
 50
180.0
 51
0
210
0
220
0
230
1.0
 0
LINE
 8
TOOL_0
 5
95
 10
2693.059
 20
1446.665
 30
0
 11
2685.786
 21
1453.938
 31
0
 0
LINE
 8
TOOL_0
 5
96
 10
2685.786
 20
1453.938
 30
0
 11
2819.059
 21
1446.665
 31
0
 0
LINE
 8
TOOL_0
 5
97
 10
2819.059
 20
1446.665
 30
0
 11
2839.059
 21
1443.284
 31
0
 0
ARC
 8
TOOL_0
 5
98
 10
2839.63
 20
1446.665
 30
0
 40
3.428877658943
 50
260.414059530605
 51
0
210
0
220
0
230
1.0
 0
ARC
 8
TOOL_0
 5
99
 10
2819.059
 20
1446.665
 30
0
 40
24.0
 50
0
 51
180.0
210
0
220
0
230
1.0
 0
ARC
 8
TOOL_0
 5
9A
 10
2819.059
 20
1446.665
 30
0
 40
24.0
 50
180.0
 51
0
210
0
220
0
230
1.0
 0
LINE
 8
TOOL_0
 5
9B
 10
2843.059
 20
1446.665
 30
0
 11
2835.786
 21
1453.938
 31
0
 0
LINE
 8
TOOL_0
 5
9C
 10
2835.786
 20
1453.938
 30
0
 11
4099.059
 21
1339.165
 31
0
 0
LINE
 8
TOOL_0
 5
9D
 10
4099.059
 20
1339.165
 30
0
 11
4103.989
 21
1368.331
 31
0
 0
ARC
 8
TOOL_0
 5
9E
 10
4099.059
 20
1369.164
 30
0
 40
4.999878898534
 50
350.409571175907
 51
90.0
210
0
220
0
230
1.0
 0
ARC
 8
TOOL_0
 5
9F
 10
4099.059
 20
1350.164
 30
0
 40
24.0
 50
90.0
 51
180.0
210
0
220
0
230
1.0
 0
LINE
 8
TOOL_0
 5
A0
 10
4075.059
 20
1350.164
 30
0
 11
4075.059
 21
1333.164
 31
0
 0
ARC
 8
TOOL_0
 5
A1
 10
4099.059
 20
1333.164
 30
0
 40
24.0
 50
180.0
 51
0
210
0
220
0
230
1.0
 0
LINE
 8
TOOL_0
 5
A2
 10
4123.059
 20
1333.164
 30
0
 11
4123.059
 21
1350.164
 31
0
 0
ARC
 8
TOOL_0
 5
A3
 10
4099.059
 20
1350.164
 30
0
 40
24.0
 50
0
 51
90.0
210
0
220
0
230
1.0
 0
LINE
 8
TOOL_0
 5
A4
 10
4099.059
 20
1374.164
 30
0
 11
4088.452
 21
1363.557
 31
0
 0
LINE
 8
TOOL_0
 5
A5
 10
4088.452
 20
1363.557
 30
0
 11
4629.059
 21
1341.664
 31
0
 0
LINE
 8
TOOL_0
 5
A6
 10
4629.059
 20
1341.664
 30
0
 11
4649.059
 21
1338.283
 31
0
 0
ARC
 8
TOOL_0
 5
A7
 10
4649.63
 20
1341.664
 30
0
 40
3.428877658943
 50
260.414059530605
 51
0
210
0
220
0
230
1.0
 0
ARC
 8
TOOL_0
 5
A8
 10
4629.059
 20
1341.664
 30
0
 40
24.0
 50
0
 51
180.0
210
0
220
0
230
1.0
 0
ARC
 8
TOOL_0
 5
A9
 10
4629.059
 20
1341.664
 30
0
 40
24.0
 50
180.0
 51
0
210
0
220
0
230
1.0
 0
LINE
 8
TOOL_0
 5
AA
 10
4653.059
 20
1341.664
 30
0
 11
4645.786
 21
1348.937
 31
0
 0
LINE
 8
TOOL_0
 5
AB
 10
4645.786
 20
1348.937
 30
0
 11
4965.689
 21
1270.864
 31
0
 0
LINE
 8
TOOL_0
 5
AC
 10
4965.689
 20
1270.864
 30
0
 11
4935.159
 21
1270.864
 31
0
 0
LINE
 8
TOOL_0
 5
AD
 10
4935.159
 20
1270.864
 30
0
 11
2357.959
 21
1270.864
 31
0
 0
LINE
 8
TOOL_0
 5
AE
 10
2357.959
 20
1270.864
 30
0
 11
2357.959
 21
1557.464
 31
0
 0
LINE
 8
TOOL_0
 5
AF
 10
2357.959
 20
1557.464
 30
0
 11
4935.159
 21
1557.464
 31
0
 0
LINE
 8
TOOL_0
 5
B0
 10
4935.159
 20
1557.464
 30
0
 11
4935.159
 21
1270.864
 31
0
 0
LINE
 8
TOOL_0
 5
B1
 10
4935.159
 20
1270.864
 30
0
 11
4935.159
 21
1265.559
 31
0
 0
ENDSEC
 0
EOF

