0
SECTION
2
TABLES
0
TABLE
2
LAYER
70
0
0
LAYER
2
LAYER_NAME
70
0
62
1
6
CONTINUOUS
0
ENDTAB
0
ENDSEC
 0
SECTION
 2
ENTITIES
 0
LINE
 8
TOOL_0
 5
1
 10
2200.81
 20
12.001
 30
0
 11
2169.5
 21
12.001
 31
0
 0
LINE
 8
TOOL_0
 5
2
 10
2169.5
 20
12.001
 30
0
 11
67.0
 21
12.001
 31
0
 0
LINE
 8
TOOL_0
 5
3
 10
67.0
 20
12.001
 30
0
 11
67.0
 21
74.501
 31
0
 0
ARC
 8
TOOL_0
 5
4
 10
55.75
 20
74.501
 30
0
 40
11.25
 50
0
 51
180.0
210
0
220
0
230
1.0
 0
LINE
 8
TOOL_0
 5
5
 10
44.5
 20
74.501
 30
0
 11
44.5
 21
60.751
 31
0
 0
LINE
 8
TOOL_0
 5
6
 10
44.5
 20
60.751
 30
0
 11
12.0
 21
60.751
 31
0
 0
LINE
 8
TOOL_0
 5
7
 10
12.0
 20
60.751
 30
0
 11
12.0
 21
916.001
 31
0
 0
LINE
 8
TOOL_0
 5
8
 10
12.0
 20
916.001
 30
0
 11
2224.5
 21
916.001
 31
0
 0
LINE
 8
TOOL_0
 5
9
 10
2224.5
 20
916.001
 30
0
 11
2224.5
 21
60.751
 31
0
 0
LINE
 8
TOOL_0
 5
A
 10
2224.5
 20
60.751
 30
0
 11
2192.0
 21
60.751
 31
0
 0
LINE
 8
TOOL_0
 5
B
 10
2192.0
 20
60.751
 30
0
 11
2192.0
 21
74.501
 31
0
 0
ARC
 8
TOOL_0
 5
C
 10
2180.75
 20
74.501
 30
0
 40
11.25
 50
0
 51
180.0
210
0
220
0
230
1.0
 0
LINE
 8
TOOL_0
 5
D
 10
2169.5
 20
74.501
 30
0
 11
2169.5
 21
12.001
 31
0
 0
LINE
 8
TOOL_0
 5
E
 10
2169.5
 20
12.001
 30
0
 11
2169.5
 21
6.744
 31
0
 0
LINE
 8
TOOL_0
 5
F
 10
2169.5
 20
6.744
 30
0
 11
2200.81
 21
936.16
 31
0
 0
LINE
 8
TOOL_0
 5
10
 10
2200.81
 20
936.16
 30
0
 11
2169.5
 21
936.16
 31
0
 0
LINE
 8
TOOL_0
 5
11
 10
2169.5
 20
936.16
 30
0
 11
67.0
 21
936.16
 31
0
 0
LINE
 8
TOOL_0
 5
12
 10
67.0
 20
936.16
 30
0
 11
67.0
 21
998.66
 31
0
 0
ARC
 8
TOOL_0
 5
13
 10
55.75
 20
998.66
 30
0
 40
11.25
 50
0
 51
180.0
210
0
220
0
230
1.0
 0
LINE
 8
TOOL_0
 5
14
 10
44.5
 20
998.66
 30
0
 11
44.5
 21
984.91
 31
0
 0
LINE
 8
TOOL_0
 5
15
 10
44.5
 20
984.91
 30
0
 11
12.0
 21
984.91
 31
0
 0
LINE
 8
TOOL_0
 5
16
 10
12.0
 20
984.91
 30
0
 11
12.0
 21
1840.16
 31
0
 0
LINE
 8
TOOL_0
 5
17
 10
12.0
 20
1840.16
 30
0
 11
2224.5
 21
1840.16
 31
0
 0
LINE
 8
TOOL_0
 5
18
 10
2224.5
 20
1840.16
 30
0
 11
2224.5
 21
984.91
 31
0
 0
LINE
 8
TOOL_0
 5
19
 10
2224.5
 20
984.91
 30
0
 11
2192.0
 21
984.91
 31
0
 0
LINE
 8
TOOL_0
 5
1A
 10
2192.0
 20
984.91
 30
0
 11
2192.0
 21
998.66
 31
0
 0
ARC
 8
TOOL_0
 5
1B
 10
2180.75
 20
998.66
 30
0
 40
11.25
 50
0
 51
180.0
210
0
220
0
230
1.0
 0
LINE
 8
TOOL_0
 5
1C
 10
2169.5
 20
998.66
 30
0
 11
2169.5
 21
936.16
 31
0
 0
LINE
 8
TOOL_0
 5
1D
 10
2169.5
 20
936.16
 30
0
 11
2169.5
 21
930.903
 31
0
 0
LINE
 8
TOOL_0
 5
1E
 10
2169.5
 20
930.903
 30
0
 11
4433.522
 21
12.001
 31
0
 0
LINE
 8
TOOL_0
 5
1F
 10
4433.522
 20
12.001
 30
0
 11
4402.212
 21
12.001
 31
0
 0
LINE
 8
TOOL_0
 5
20
 10
4402.212
 20
12.001
 30
0
 11
2299.712
 21
12.001
 31
0
 0
LINE
 8
TOOL_0
 5
21
 10
2299.712
 20
12.001
 30
0
 11
2299.712
 21
74.501
 31
0
 0
ARC
 8
TOOL_0
 5
22
 10
2288.462
 20
74.501
 30
0
 40
11.25
 50
0
 51
180.0
210
0
220
0
230
1.0
 0
LINE
 8
TOOL_0
 5
23
 10
2277.212
 20
74.501
 30
0
 11
2277.212
 21
60.751
 31
0
 0
LINE
 8
TOOL_0
 5
24
 10
2277.212
 20
60.751
 30
0
 11
2244.712
 21
60.751
 31
0
 0
LINE
 8
TOOL_0
 5
25
 10
2244.712
 20
60.751
 30
0
 11
2244.712
 21
916.001
 31
0
 0
LINE
 8
TOOL_0
 5
26
 10
2244.712
 20
916.001
 30
0
 11
4457.212
 21
916.001
 31
0
 0
LINE
 8
TOOL_0
 5
27
 10
4457.212
 20
916.001
 30
0
 11
4457.212
 21
60.751
 31
0
 0
LINE
 8
TOOL_0
 5
28
 10
4457.212
 20
60.751
 30
0
 11
4424.712
 21
60.751
 31
0
 0
LINE
 8
TOOL_0
 5
29
 10
4424.712
 20
60.751
 30
0
 11
4424.712
 21
74.501
 31
0
 0
ARC
 8
TOOL_0
 5
2A
 10
4413.462
 20
74.501
 30
0
 40
11.25
 50
0
 51
180.0
210
0
220
0
230
1.0
 0
LINE
 8
TOOL_0
 5
2B
 10
4402.212
 20
74.501
 30
0
 11
4402.212
 21
12.001
 31
0
 0
LINE
 8
TOOL_0
 5
2C
 10
4402.212
 20
12.001
 30
0
 11
4402.212
 21
6.744
 31
0
 0
LINE
 8
TOOL_0
 5
2D
 10
4402.212
 20
6.744
 30
0
 11
4433.522
 21
936.105
 31
0
 0
LINE
 8
TOOL_0
 5
2E
 10
4433.522
 20
936.105
 30
0
 11
4402.212
 21
936.105
 31
0
 0
LINE
 8
TOOL_0
 5
2F
 10
4402.212
 20
936.105
 30
0
 11
2299.712
 21
936.105
 31
0
 0
LINE
 8
TOOL_0
 5
30
 10
2299.712
 20
936.105
 30
0
 11
2299.712
 21
998.605
 31
0
 0
ARC
 8
TOOL_0
 5
31
 10
2288.462
 20
998.605
 30
0
 40
11.25
 50
0
 51
180.0
210
0
220
0
230
1.0
 0
LINE
 8
TOOL_0
 5
32
 10
2277.212
 20
998.605
 30
0
 11
2277.212
 21
984.855
 31
0
 0
LINE
 8
TOOL_0
 5
33
 10
2277.212
 20
984.855
 30
0
 11
2244.712
 21
984.855
 31
0
 0
LINE
 8
TOOL_0
 5
34
 10
2244.712
 20
984.855
 30
0
 11
2244.712
 21
1840.105
 31
0
 0
LINE
 8
TOOL_0
 5
35
 10
2244.712
 20
1840.105
 30
0
 11
4457.212
 21
1840.105
 31
0
 0
LINE
 8
TOOL_0
 5
36
 10
4457.212
 20
1840.105
 30
0
 11
4457.212
 21
984.855
 31
0
 0
LINE
 8
TOOL_0
 5
37
 10
4457.212
 20
984.855
 30
0
 11
4424.712
 21
984.855
 31
0
 0
LINE
 8
TOOL_0
 5
38
 10
4424.712
 20
984.855
 30
0
 11
4424.712
 21
998.605
 31
0
 0
ARC
 8
TOOL_0
 5
39
 10
4413.462
 20
998.605
 30
0
 40
11.25
 50
0
 51
180.0
210
0
220
0
230
1.0
 0
LINE
 8
TOOL_0
 5
3A
 10
4402.212
 20
998.605
 30
0
 11
4402.212
 21
936.105
 31
0
 0
LINE
 8
TOOL_0
 5
3B
 10
4402.212
 20
936.105
 30
0
 11
4402.212
 21
930.848
 31
0
 0
ENDSEC
 0
EOF

