0
SECTION
2
TABLES
0
TABLE
2
LAYER
70
0
0
LAYER
2
LAYER_NAME
70
0
62
1
6
CONTINUOUS
0
ENDTAB
0
ENDSEC
 0
SECTION
 2
ENTITIES
 0
LINE
 8
TOOL_0
 5
1
 10
1369.987
 20
99.033
 30
0
 11
1339.228
 21
99.033
 31
0
 0
LINE
 8
TOOL_0
 5
2
 10
1339.228
 20
99.033
 30
0
 11
1280.108
 21
35.189
 31
0
 0
ARC
 8
TOOL_0
 5
3
 10
1243.055
 20
69.501
 30
0
 40
50.499882702834
 50
269.998865430108
 51
317.199545644524
210
0
220
0
230
1.0
 0
LINE
 8
TOOL_0
 5
4
 10
1243.054
 20
19.001
 30
0
 11
847.427
 21
19.001
 31
0
 0
ARC
 8
TOOL_0
 5
5
 10
847.427
 20
69.501
 30
0
 40
50.5
 50
253.999746985136
 51
270.0
210
0
220
0
230
1.0
 0
LINE
 8
TOOL_0
 5
6
 10
833.507
 20
20.957
 30
0
 11
602.898
 21
87.083
 31
0
 0
ARC
 8
TOOL_0
 5
7
 10
589.254
 20
39.501
 30
0
 40
49.499550098966
 50
73.999909813426
 51
90.0
210
0
220
0
230
1.0
 0
LINE
 8
TOOL_0
 5
8
 10
589.254
 20
89.001
 30
0
 11
39.5
 21
89.001
 31
0
 0
ARC
 8
TOOL_0
 5
9
 10
39.5
 20
109.501
 30
0
 40
20.5
 50
180.0
 51
270.0
210
0
220
0
230
1.0
 0
LINE
 8
TOOL_0
 5
A
 10
19.0
 20
109.501
 30
0
 11
19.0
 21
199.501
 31
0
 0
ARC
 8
TOOL_0
 5
B
 10
39.5
 20
199.501
 30
0
 40
20.5
 50
90.0
 51
180.0
210
0
220
0
230
1.0
 0
LINE
 8
TOOL_0
 5
C
 10
39.5
 20
220.001
 30
0
 11
589.254
 21
220.001
 31
0
 0
ARC
 8
TOOL_0
 5
D
 10
589.254
 20
269.501
 30
0
 40
49.5
 50
270.0
 51
285.999771140499
210
0
220
0
230
1.0
 0
LINE
 8
TOOL_0
 5
E
 10
602.898
 20
221.918
 30
0
 11
833.508
 21
288.044
 31
0
 0
ARC
 8
TOOL_0
 5
F
 10
847.428
 20
239.5
 30
0
 40
50.500359761095
 50
90.0
 51
106.000253014863
210
0
220
0
230
1.0
 0
LINE
 8
TOOL_0
 5
10
 10
847.428
 20
290.0
 30
0
 11
1243.055
 21
290.0
 31
0
 0
ARC
 8
TOOL_0
 5
11
 10
1243.055
 20
239.5
 30
0
 40
50.5
 50
42.800454355476
 51
90.0
210
0
220
0
230
1.0
 0
LINE
 8
TOOL_0
 5
12
 10
1280.108
 20
273.812
 30
0
 11
1339.228
 21
209.968
 31
0
 0
ARC
 8
TOOL_0
 5
13
 10
1287.431
 20
162.039
 30
0
 40
70.569952883646
 50
1.359250757383
 51
42.778823555331
210
0
220
0
230
1.0
 0
ARC
 8
TOOL_0
 5
14
 10
639.194
 20
154.5
 30
0
 40
718.846041053298
 50
359.396859307213
 51
0.734344266698
210
0
220
0
230
1.0
 0
ARC
 8
TOOL_0
 5
15
 10
1287.5
 20
146.933
 30
0
 40
70.5
 50
317.1997932056
 51
0
210
0
220
0
230
1.0
 0
LINE
 8
TOOL_0
 5
16
 10
1339.228
 20
99.032
 30
0
 11
1338.915
 21
94.022
 31
0
 0
LINE
 8
TOOL_0
 5
17
 10
1338.915
 20
94.022
 30
0
 11
1422.173
 21
-0.001
 31
0
 0
LINE
 8
TOOL_0
 5
18
 10
1422.173
 20
-0.001
 30
0
 11
1422.173
 21
0.999
 31
0
 0
LINE
 8
TOOL_0
 5
19
 10
1422.173
 20
0.999
 30
0
 11
1422.173
 21
-0.001
 31
0
 0
LINE
 8
TOOL_0
 5
1A
 10
1422.173
 20
-0.001
 30
0
 11
1422.173
 21
-0.001
 31
0
 0
LINE
 8
TOOL_0
 5
1B
 10
1422.173
 20
-0.001
 30
0
 11
1422.173
 21
0.999
 31
0
 0
LINE
 8
TOOL_0
 5
1C
 10
1422.173
 20
0.999
 30
0
 11
1422.173
 21
1471.995
 31
0
 0
LINE
 8
TOOL_0
 5
1D
 10
1422.173
 20
1471.995
 30
0
 11
1.0
 21
1471.995
 31
0
 0
LINE
 8
TOOL_0
 5
1E
 10
1.0
 20
1471.995
 30
0
 11
0
 21
1471.995
 31
0
 0
ENDSEC
 0
EOF

