0
SECTION
2
TABLES
0
TABLE
2
LAYER
70
0
0
LAYER
2
LAYER_NAME
70
0
62
1
6
CONTINUOUS
0
ENDTAB
0
ENDSEC
 0
SECTION
 2
ENTITIES
 0
LINE
 8
TOOL_0
 5
1
 10
1495.852
 20
223.797
 30
0
 11
1520.85
 21
255.024
 31
0
 0
ARC
 8
TOOL_0
 5
2
 10
1456.245
 20
247.867
 30
0
 40
65.000220568857
 50
6.321502055293
 51
186.322475235821
210
0
220
0
230
1.0
 0
ARC
 8
TOOL_0
 5
3
 10
1456.246
 20
247.866
 30
0
 40
65.000220568857
 50
186.321502055293
 51
1.914056633918
210
0
220
0
230
1.0
 0
ARC
 8
TOOL_0
 5
4
 10
1456.245
 20
247.866
 30
0
 40
65.000265668688
 50
1.914027192491
 51
6.321502055293
210
0
220
0
230
1.0
 0
LINE
 8
TOOL_0
 5
5
 10
1520.85
 20
255.023
 30
0
 11
1516.947
 21
258.148
 31
0
 0
LINE
 8
TOOL_0
 5
6
 10
1516.947
 20
258.148
 30
0
 11
1622.561
 21
338.182
 31
0
 0
LINE
 8
TOOL_0
 5
7
 10
1622.561
 20
338.182
 30
0
 11
1650.845
 21
366.466
 31
0
 0
ARC
 8
TOOL_0
 5
8
 10
1578.345
 20
366.466
 30
0
 40
72.5
 50
0
 51
180.0
210
0
220
0
230
1.0
 0
ARC
 8
TOOL_0
 5
9
 10
1578.345
 20
366.466
 30
0
 40
72.5
 50
180.0
 51
356.048615235786
210
0
220
0
230
1.0
 0
ARC
 8
TOOL_0
 5
A
 10
1578.345
 20
366.466
 30
0
 40
72.500342068159
 50
356.048615235786
 51
0
210
0
220
0
230
1.0
 0
LINE
 8
TOOL_0
 5
B
 10
1650.845
 20
366.466
 30
0
 11
1647.309
 21
370.002
 31
0
 0
LINE
 8
TOOL_0
 5
C
 10
1647.309
 20
370.002
 30
0
 11
1737.16
 21
219.582
 31
0
 0
LINE
 8
TOOL_0
 5
D
 10
1737.16
 20
219.582
 30
0
 11
1765.444
 21
247.866
 31
0
 0
ARC
 8
TOOL_0
 5
E
 10
1700.444
 20
247.866
 30
0
 40
65.0
 50
0
 51
180.0
210
0
220
0
230
1.0
 0
ARC
 8
TOOL_0
 5
F
 10
1700.444
 20
247.866
 30
0
 40
65.0
 50
180.0
 51
355.592708718716
210
0
220
0
230
1.0
 0
ARC
 8
TOOL_0
 5
10
 10
1700.444
 20
247.866
 30
0
 40
65.000206838132
 50
355.592708718716
 51
0
210
0
220
0
230
1.0
 0
LINE
 8
TOOL_0
 5
11
 10
1765.444
 20
247.866
 30
0
 11
1761.908
 21
251.402
 31
0
 0
LINE
 8
TOOL_0
 5
12
 10
1761.908
 20
251.402
 30
0
 11
1906.878
 21
96.889
 31
0
 0
LINE
 8
TOOL_0
 5
13
 10
1906.878
 20
96.889
 30
0
 11
1878.593
 21
68.604
 31
0
 0
LINE
 8
TOOL_0
 5
14
 10
1878.593
 20
68.604
 30
0
 11
1878.593
 21
48.366
 31
0
 0
ARC
 8
TOOL_0
 5
15
 10
1837.343
 20
48.366
 30
0
 40
41.25
 50
270.0
 51
0
210
0
220
0
230
1.0
 0
LINE
 8
TOOL_0
 5
16
 10
1837.343
 20
7.116
 30
0
 11
1772.997
 21
7.116
 31
0
 0
ARC
 8
TOOL_0
 5
17
 10
1772.997
 20
48.366
 30
0
 40
41.25
 50
225.0
 51
270.0
210
0
220
0
230
1.0
 0
LINE
 8
TOOL_0
 5
18
 10
1743.829
 20
19.198
 30
0
 11
1644.634
 21
118.393
 31
0
 0
ARC
 8
TOOL_0
 5
19
 10
1578.343
 20
52.102
 30
0
 40
93.749631263275
 50
45.0
 51
135.000432150272
210
0
220
0
230
1.0
 0
LINE
 8
TOOL_0
 5
1A
 10
1512.051
 20
118.393
 30
0
 11
1412.856
 21
19.198
 31
0
 0
ARC
 8
TOOL_0
 5
1B
 10
1383.688
 20
48.366
 30
0
 40
41.249781187298
 50
270.0
 51
315.0
210
0
220
0
230
1.0
 0
LINE
 8
TOOL_0
 5
1C
 10
1383.688
 20
7.116
 30
0
 11
1319.343
 21
7.116
 31
0
 0
ARC
 8
TOOL_0
 5
1D
 10
1319.343
 20
48.366
 30
0
 40
41.25
 50
180.0
 51
270.0
210
0
220
0
230
1.0
 0
LINE
 8
TOOL_0
 5
1E
 10
1278.093
 20
48.366
 30
0
 11
1278.093
 21
259.766
 31
0
 0
ARC
 8
TOOL_0
 5
1F
 10
1289.343
 20
259.766
 30
0
 40
11.25
 50
90.0
 51
180.0
210
0
220
0
230
1.0
 0
LINE
 8
TOOL_0
 5
20
 10
1289.343
 20
271.016
 30
0
 11
1294.343
 21
271.016
 31
0
 0
ARC
 8
TOOL_0
 5
21
 10
1294.343
 20
279.766
 30
0
 40
8.75
 50
270.0
 51
0
210
0
220
0
230
1.0
 0
LINE
 8
TOOL_0
 5
22
 10
1303.093
 20
279.766
 30
0
 11
1303.093
 21
313.198
 31
0
 0
ARC
 8
TOOL_0
 5
23
 10
1344.343
 20
313.198
 30
0
 40
41.25
 50
135.0
 51
180.0
210
0
220
0
230
1.0
 0
LINE
 8
TOOL_0
 5
24
 10
1315.175
 20
342.366
 30
0
 11
1386.643
 21
413.834
 31
0
 0
LINE
 8
TOOL_0
 5
25
 10
1386.643
 20
413.834
 30
0
 11
1428.008
 21
437.716
 31
0
 0
LINE
 8
TOOL_0
 5
26
 10
1428.008
 20
437.716
 30
0
 11
1448.343
 21
437.716
 31
0
 0
ARC
 8
TOOL_0
 5
27
 10
1448.343
 20
489.466
 30
0
 40
51.75
 50
270.0
 51
348.264047319696
210
0
220
0
230
1.0
 0
ARC
 8
TOOL_0
 5
28
 10
1578.343
 20
136.766
 30
0
 40
351.25007117437
 50
76.946770158787
 51
103.053229841212
210
0
220
0
230
1.0
 0
ARC
 8
TOOL_0
 5
29
 10
1708.343
 20
489.466
 30
0
 40
51.749810627673
 50
191.735952680303
 51
270.0
210
0
220
0
230
1.0
 0
LINE
 8
TOOL_0
 5
2A
 10
1708.343
 20
437.716
 30
0
 11
1728.678
 21
437.716
 31
0
 0
LINE
 8
TOOL_0
 5
2B
 10
1728.678
 20
437.716
 30
0
 11
1770.043
 21
413.834
 31
0
 0
LINE
 8
TOOL_0
 5
2C
 10
1770.043
 20
413.834
 30
0
 11
1841.511
 21
342.366
 31
0
 0
ARC
 8
TOOL_0
 5
2D
 10
1812.343
 20
313.198
 30
0
 40
41.249781187298
 50
0
 51
45.0
210
0
220
0
230
1.0
 0
LINE
 8
TOOL_0
 5
2E
 10
1853.593
 20
313.198
 30
0
 11
1853.593
 21
279.767
 31
0
 0
ARC
 8
TOOL_0
 5
2F
 10
1862.343
 20
279.767
 30
0
 40
8.75
 50
180.0
 51
270.0
210
0
220
0
230
1.0
 0
LINE
 8
TOOL_0
 5
30
 10
1862.343
 20
271.017
 30
0
 11
1867.343
 21
271.017
 31
0
 0
ARC
 8
TOOL_0
 5
31
 10
1867.343
 20
259.767
 30
0
 40
11.25
 50
0
 51
90.0
210
0
220
0
230
1.0
 0
LINE
 8
TOOL_0
 5
32
 10
1878.593
 20
259.767
 30
0
 11
1878.593
 21
73.605
 31
0
 0
LINE
 8
TOOL_0
 5
33
 10
1878.593
 20
73.605
 30
0
 11
1878.593
 21
68.605
 31
0
 0
LINE
 8
TOOL_0
 5
34
 10
1878.593
 20
68.605
 30
0
 11
1885.664
 21
61.534
 31
0
 0
LINE
 8
TOOL_0
 5
35
 10
1885.664
 20
61.534
 30
0
 11
2125.885
 21
221.273
 31
0
 0
LINE
 8
TOOL_0
 5
36
 10
2125.885
 20
221.273
 30
0
 11
2154.169
 21
249.557
 31
0
 0
ARC
 8
TOOL_0
 5
37
 10
2089.169
 20
249.557
 30
0
 40
65.0
 50
0
 51
180.0
210
0
220
0
230
1.0
 0
ARC
 8
TOOL_0
 5
38
 10
2089.169
 20
249.557
 30
0
 40
65.0
 50
180.0
 51
355.592708718716
210
0
220
0
230
1.0
 0
ARC
 8
TOOL_0
 5
39
 10
2089.169
 20
249.557
 30
0
 40
65.000206838132
 50
355.592708718716
 51
0
210
0
220
0
230
1.0
 0
LINE
 8
TOOL_0
 5
3A
 10
2154.169
 20
249.557
 30
0
 11
2150.633
 21
253.093
 31
0
 0
LINE
 8
TOOL_0
 5
3B
 10
2150.633
 20
253.093
 30
0
 11
2255.485
 21
339.873
 31
0
 0
LINE
 8
TOOL_0
 5
3C
 10
2255.485
 20
339.873
 30
0
 11
2283.769
 21
368.157
 31
0
 0
ARC
 8
TOOL_0
 5
3D
 10
2211.269
 20
368.157
 30
0
 40
72.5
 50
0
 51
180.0
210
0
220
0
230
1.0
 0
ARC
 8
TOOL_0
 5
3E
 10
2211.269
 20
368.157
 30
0
 40
72.5
 50
180.0
 51
356.048615235786
210
0
220
0
230
1.0
 0
ARC
 8
TOOL_0
 5
3F
 10
2211.269
 20
368.157
 30
0
 40
72.500342068159
 50
356.048615235786
 51
0
210
0
220
0
230
1.0
 0
LINE
 8
TOOL_0
 5
40
 10
2283.769
 20
368.157
 30
0
 11
2280.233
 21
371.693
 31
0
 0
LINE
 8
TOOL_0
 5
41
 10
2280.233
 20
371.693
 30
0
 11
2363.308
 21
214.178
 31
0
 0
LINE
 8
TOOL_0
 5
42
 10
2363.308
 20
214.178
 30
0
 11
2396.912
 21
235.875
 31
0
 0
ARC
 8
TOOL_0
 5
43
 10
2333.368
 20
249.557
 30
0
 40
65.000285076298
 50
347.848849820996
 51
167.8478025459
210
0
220
0
230
1.0
 0
ARC
 8
TOOL_0
 5
44
 10
2333.369
 20
249.557
 30
0
 40
65.000495575034
 50
167.84798810282
 51
343.441078917071
210
0
220
0
230
1.0
 0
ARC
 8
TOOL_0
 5
45
 10
2333.369
 20
249.557
 30
0
 40
64.999723391719
 50
343.441078917071
 51
347.847802545901
210
0
220
0
230
1.0
 0
LINE
 8
TOOL_0
 5
46
 10
2396.912
 20
235.874
 30
0
 11
2394.2
 21
240.075
 31
0
 0
LINE
 8
TOOL_0
 5
47
 10
2394.2
 20
240.075
 30
0
 11
2539.803
 21
78.342
 31
0
 0
LINE
 8
TOOL_0
 5
48
 10
2539.803
 20
78.342
 30
0
 11
2511.519
 21
50.057
 31
0
 0
ARC
 8
TOOL_0
 5
49
 10
2470.269
 20
50.057
 30
0
 40
41.25
 50
270.0
 51
0
210
0
220
0
230
1.0
 0
LINE
 8
TOOL_0
 5
4A
 10
2470.269
 20
8.807
 30
0
 11
2405.923
 21
8.807
 31
0
 0
ARC
 8
TOOL_0
 5
4B
 10
2405.923
 20
50.057
 30
0
 40
41.25
 50
225.0
 51
270.0
210
0
220
0
230
1.0
 0
LINE
 8
TOOL_0
 5
4C
 10
2376.755
 20
20.889
 30
0
 11
2277.56
 21
120.084
 31
0
 0
ARC
 8
TOOL_0
 5
4D
 10
2211.269
 20
53.793
 30
0
 40
93.749631263275
 50
45.0
 51
135.000432150272
210
0
220
0
230
1.0
 0
LINE
 8
TOOL_0
 5
4E
 10
2144.977
 20
120.084
 30
0
 11
2045.782
 21
20.889
 31
0
 0
ARC
 8
TOOL_0
 5
4F
 10
2016.614
 20
50.057
 30
0
 40
41.249781187298
 50
270.0
 51
315.0
210
0
220
0
230
1.0
 0
LINE
 8
TOOL_0
 5
50
 10
2016.614
 20
8.807
 30
0
 11
1952.269
 21
8.807
 31
0
 0
ARC
 8
TOOL_0
 5
51
 10
1952.269
 20
50.057
 30
0
 40
41.25
 50
180.0
 51
270.0
210
0
220
0
230
1.0
 0
LINE
 8
TOOL_0
 5
52
 10
1911.019
 20
50.057
 30
0
 11
1911.019
 21
261.457
 31
0
 0
ARC
 8
TOOL_0
 5
53
 10
1922.269
 20
261.457
 30
0
 40
11.25
 50
90.0
 51
180.0
210
0
220
0
230
1.0
 0
LINE
 8
TOOL_0
 5
54
 10
1922.269
 20
272.707
 30
0
 11
1927.269
 21
272.707
 31
0
 0
ARC
 8
TOOL_0
 5
55
 10
1927.269
 20
281.457
 30
0
 40
8.75
 50
270.0
 51
0
210
0
220
0
230
1.0
 0
LINE
 8
TOOL_0
 5
56
 10
1936.019
 20
281.457
 30
0
 11
1936.019
 21
314.889
 31
0
 0
ARC
 8
TOOL_0
 5
57
 10
1977.269
 20
314.889
 30
0
 40
41.25
 50
135.0
 51
180.0
210
0
220
0
230
1.0
 0
LINE
 8
TOOL_0
 5
58
 10
1948.101
 20
344.057
 30
0
 11
2019.569
 21
415.525
 31
0
 0
LINE
 8
TOOL_0
 5
59
 10
2019.569
 20
415.525
 30
0
 11
2060.934
 21
439.407
 31
0
 0
LINE
 8
TOOL_0
 5
5A
 10
2060.934
 20
439.407
 30
0
 11
2081.269
 21
439.407
 31
0
 0
ARC
 8
TOOL_0
 5
5B
 10
2081.269
 20
491.157
 30
0
 40
51.75
 50
270.0
 51
348.264047319696
210
0
220
0
230
1.0
 0
ARC
 8
TOOL_0
 5
5C
 10
2211.269
 20
138.457
 30
0
 40
351.25007117437
 50
76.946770158787
 51
103.053229841212
210
0
220
0
230
1.0
 0
ARC
 8
TOOL_0
 5
5D
 10
2341.269
 20
491.157
 30
0
 40
51.749810627673
 50
191.735952680303
 51
270.0
210
0
220
0
230
1.0
 0
LINE
 8
TOOL_0
 5
5E
 10
2341.269
 20
439.407
 30
0
 11
2361.604
 21
439.407
 31
0
 0
LINE
 8
TOOL_0
 5
5F
 10
2361.604
 20
439.407
 30
0
 11
2402.969
 21
415.525
 31
0
 0
LINE
 8
TOOL_0
 5
60
 10
2402.969
 20
415.525
 30
0
 11
2474.437
 21
344.057
 31
0
 0
ARC
 8
TOOL_0
 5
61
 10
2445.269
 20
314.889
 30
0
 40
41.249781187299
 50
0
 51
45.0
210
0
220
0
230
1.0
 0
LINE
 8
TOOL_0
 5
62
 10
2486.519
 20
314.889
 30
0
 11
2486.519
 21
281.458
 31
0
 0
ARC
 8
TOOL_0
 5
63
 10
2495.269
 20
281.458
 30
0
 40
8.75
 50
180.0
 51
270.0
210
0
220
0
230
1.0
 0
LINE
 8
TOOL_0
 5
64
 10
2495.269
 20
272.708
 30
0
 11
2500.269
 21
272.708
 31
0
 0
ARC
 8
TOOL_0
 5
65
 10
2500.269
 20
261.458
 30
0
 40
11.25
 50
0
 51
90.0
210
0
220
0
230
1.0
 0
LINE
 8
TOOL_0
 5
66
 10
2511.519
 20
261.458
 30
0
 11
2511.519
 21
55.058
 31
0
 0
LINE
 8
TOOL_0
 5
67
 10
2511.519
 20
55.058
 30
0
 11
2511.519
 21
50.058
 31
0
 0
LINE
 8
TOOL_0
 5
68
 10
2511.519
 20
50.058
 30
0
 11
2518.59
 21
42.987
 31
0
 0
LINE
 8
TOOL_0
 5
69
 10
2518.59
 20
42.987
 30
0
 11
2583.465
 21
0.002
 31
0
 0
LINE
 8
TOOL_0
 5
6A
 10
2583.465
 20
0.002
 30
0
 11
2583.465
 21
1.002
 31
0
 0
LINE
 8
TOOL_0
 5
6B
 10
2583.465
 20
1.002
 30
0
 11
2583.465
 21
0.002
 31
0
 0
LINE
 8
TOOL_0
 5
6C
 10
2583.465
 20
0.002
 30
0
 11
2583.465
 21
0.002
 31
0
 0
LINE
 8
TOOL_0
 5
6D
 10
2583.465
 20
0.002
 30
0
 11
2583.465
 21
1.002
 31
0
 0
LINE
 8
TOOL_0
 5
6E
 10
2583.465
 20
1.002
 30
0
 11
2583.465
 21
961.522
 31
0
 0
LINE
 8
TOOL_0
 5
6F
 10
2583.465
 20
961.522
 30
0
 11
1267.534
 21
961.522
 31
0
 0
LINE
 8
TOOL_0
 5
70
 10
1267.534
 20
961.522
 30
0
 11
1263.534
 21
961.522
 31
0
 0
LINE
 8
TOOL_0
 5
71
 10
1263.534
 20
961.522
 30
0
 11
1262.534
 21
961.522
 31
0
 0
ENDSEC
 0
EOF

