0
SECTION
2
TABLES
0
TABLE
2
LAYER
70
0
0
LAYER
2
LAYER_NAME
70
0
62
1
6
CONTINUOUS
0
ENDTAB
0
ENDSEC
 0
SECTION
 2
ENTITIES
 0
LINE
 8
TOOL_0
 5
1
 10
1293.259
 20
1801.406
 30
0
 11
1303.174
 21
1840.158
 31
0
 0
ARC
 8
TOOL_0
 5
2
 10
1247.253
 20
1807.024
 30
0
 40
65.000155361353
 50
30.647353807289
 51
210.647353807288
210
0
220
0
230
1.0
 0
ARC
 8
TOOL_0
 5
3
 10
1247.253
 20
1807.024
 30
0
 40
65.000155361353
 50
210.647353807288
 51
26.239434325996
210
0
220
0
230
1.0
 0
ARC
 8
TOOL_0
 5
4
 10
1247.253
 20
1807.024
 30
0
 40
64.999968061531
 50
26.239434325996
 51
30.647353807289
210
0
220
0
230
1.0
 0
LINE
 8
TOOL_0
 5
5
 10
1303.174
 20
1840.158
 30
0
 11
1298.33
 21
1841.398
 31
0
 0
LINE
 8
TOOL_0
 5
6
 10
1298.33
 20
1841.398
 30
0
 11
1177.924
 21
1666.83
 31
0
 0
LINE
 8
TOOL_0
 5
7
 10
1177.924
 20
1666.83
 30
0
 11
1199.451
 21
1700.544
 31
0
 0
ARC
 8
TOOL_0
 5
8
 10
1128.653
 20
1684.925
 30
0
 40
72.500413550545
 50
12.440946591939
 51
192.441116847277
210
0
220
0
230
1.0
 0
ARC
 8
TOOL_0
 5
9
 10
1128.654
 20
1684.925
 30
0
 40
72.500413550545
 50
192.440946591938
 51
8.488757220991
210
0
220
0
230
1.0
 0
ARC
 8
TOOL_0
 5
A
 10
1128.653
 20
1684.925
 30
0
 40
72.500229241017
 50
8.488640562932
 51
12.440174864495
210
0
220
0
230
1.0
 0
LINE
 8
TOOL_0
 5
B
 10
1199.451
 20
1700.543
 30
0
 11
1195.237
 21
1703.234
 31
0
 0
LINE
 8
TOOL_0
 5
C
 10
1195.237
 20
1703.234
 30
0
 11
1292.985
 21
1555.297
 31
0
 0
LINE
 8
TOOL_0
 5
D
 10
1292.985
 20
1555.297
 30
0
 11
1304.504
 21
1593.602
 31
0
 0
ARC
 8
TOOL_0
 5
E
 10
1247.253
 20
1562.823
 30
0
 40
65.000183399741
 50
28.263144289373
 51
208.262367899773
210
0
220
0
230
1.0
 0
ARC
 8
TOOL_0
 5
F
 10
1247.253
 20
1562.823
 30
0
 40
64.999709883968
 50
208.262367899773
 51
23.855446880507
210
0
220
0
230
1.0
 0
ARC
 8
TOOL_0
 5
10
 10
1247.253
 20
1562.824
 30
0
 40
64.999632137421
 50
23.854640707829
 51
28.262367899774
210
0
220
0
230
1.0
 0
LINE
 8
TOOL_0
 5
11
 10
1304.504
 20
1593.602
 30
0
 11
1299.716
 21
1595.042
 31
0
 0
LINE
 8
TOOL_0
 5
12
 10
1299.716
 20
1595.042
 30
0
 11
1475.038
 21
1356.39
 31
0
 0
LINE
 8
TOOL_0
 5
13
 10
1475.038
 20
1356.39
 30
0
 11
1446.753
 21
1384.674
 31
0
 0
LINE
 8
TOOL_0
 5
14
 10
1446.753
 20
1384.674
 30
0
 11
1235.353
 21
1384.674
 31
0
 0
ARC
 8
TOOL_0
 5
15
 10
1235.353
 20
1395.924
 30
0
 40
11.25
 50
180.0
 51
270.0
210
0
220
0
230
1.0
 0
LINE
 8
TOOL_0
 5
16
 10
1224.103
 20
1395.924
 30
0
 11
1224.103
 21
1400.924
 31
0
 0
ARC
 8
TOOL_0
 5
17
 10
1215.353
 20
1400.924
 30
0
 40
8.75
 50
0
 51
90.0
210
0
220
0
230
1.0
 0
LINE
 8
TOOL_0
 5
18
 10
1215.353
 20
1409.674
 30
0
 11
1181.922
 21
1409.674
 31
0
 0
ARC
 8
TOOL_0
 5
19
 10
1181.922
 20
1450.924
 30
0
 40
41.25
 50
225.0
 51
270.0
210
0
220
0
230
1.0
 0
LINE
 8
TOOL_0
 5
1A
 10
1152.754
 20
1421.756
 30
0
 11
1081.286
 21
1493.224
 31
0
 0
LINE
 8
TOOL_0
 5
1B
 10
1081.286
 20
1493.224
 30
0
 11
1057.404
 21
1534.589
 31
0
 0
LINE
 8
TOOL_0
 5
1C
 10
1057.404
 20
1534.589
 30
0
 11
1057.404
 21
1554.924
 31
0
 0
ARC
 8
TOOL_0
 5
1D
 10
1005.654
 20
1554.924
 30
0
 40
51.75
 50
0
 51
78.264047319696
210
0
220
0
230
1.0
 0
ARC
 8
TOOL_0
 5
1E
 10
1358.354
 20
1684.924
 30
0
 40
351.25007117437
 50
166.946611254169
 51
193.053229841212
210
0
220
0
230
1.0
 0
ARC
 8
TOOL_0
 5
1F
 10
1005.654
 20
1814.923
 30
0
 40
51.747852438531
 50
281.736403097433
 51
0
210
0
220
0
230
1.0
 0
LINE
 8
TOOL_0
 5
20
 10
1057.404
 20
1814.923
 30
0
 11
1057.404
 21
1835.258
 31
0
 0
LINE
 8
TOOL_0
 5
21
 10
1057.404
 20
1835.258
 30
0
 11
1081.286
 21
1876.623
 31
0
 0
LINE
 8
TOOL_0
 5
22
 10
1081.286
 20
1876.623
 30
0
 11
1152.754
 21
1948.091
 31
0
 0
ARC
 8
TOOL_0
 5
23
 10
1181.922
 20
1918.923
 30
0
 40
41.249781187298
 50
90.0
 51
135.0
210
0
220
0
230
1.0
 0
LINE
 8
TOOL_0
 5
24
 10
1181.922
 20
1960.173
 30
0
 11
1215.353
 21
1960.173
 31
0
 0
ARC
 8
TOOL_0
 5
25
 10
1215.353
 20
1968.923
 30
0
 40
8.75
 50
270.0
 51
0
210
0
220
0
230
1.0
 0
LINE
 8
TOOL_0
 5
26
 10
1224.103
 20
1968.923
 30
0
 11
1224.103
 21
1973.923
 31
0
 0
ARC
 8
TOOL_0
 5
27
 10
1235.353
 20
1973.923
 30
0
 40
11.25
 50
90.0
 51
180.0
210
0
220
0
230
1.0
 0
LINE
 8
TOOL_0
 5
28
 10
1235.353
 20
1985.173
 30
0
 11
1446.753
 21
1985.173
 31
0
 0
ARC
 8
TOOL_0
 5
29
 10
1446.753
 20
1943.923
 30
0
 40
41.25
 50
0
 51
90.0
210
0
220
0
230
1.0
 0
LINE
 8
TOOL_0
 5
2A
 10
1488.003
 20
1943.923
 30
0
 11
1488.003
 21
1879.577
 31
0
 0
ARC
 8
TOOL_0
 5
2B
 10
1446.753
 20
1879.577
 30
0
 40
41.25
 50
315.0
 51
0
210
0
220
0
230
1.0
 0
LINE
 8
TOOL_0
 5
2C
 10
1475.921
 20
1850.409
 30
0
 11
1376.726
 21
1751.214
 31
0
 0
ARC
 8
TOOL_0
 5
2D
 10
1443.017
 20
1684.923
 30
0
 40
93.749631263275
 50
135.0
 51
225.000432150272
210
0
220
0
230
1.0
 0
LINE
 8
TOOL_0
 5
2E
 10
1376.726
 20
1618.631
 30
0
 11
1475.921
 21
1519.436
 31
0
 0
ARC
 8
TOOL_0
 5
2F
 10
1446.753
 20
1490.268
 30
0
 40
41.249781187298
 50
0
 51
45.0
210
0
220
0
230
1.0
 0
LINE
 8
TOOL_0
 5
30
 10
1488.003
 20
1490.268
 30
0
 11
1488.003
 21
1425.922
 31
0
 0
ARC
 8
TOOL_0
 5
31
 10
1446.753
 20
1425.922
 30
0
 40
41.25
 50
276.94532371199
 51
0
210
0
220
0
230
1.0
 0
ARC
 8
TOOL_0
 5
32
 10
1446.753
 20
1425.922
 30
0
 40
41.249690338232
 50
270.0
 51
276.94532371199
210
0
220
0
230
1.0
 0
LINE
 8
TOOL_0
 5
33
 10
1446.753
 20
1384.672
 30
0
 11
1439.682
 21
1377.601
 31
0
 0
LINE
 8
TOOL_0
 5
34
 10
1439.682
 20
1377.601
 30
0
 11
826.695
 21
1853.307
 31
0
 0
LINE
 8
TOOL_0
 5
35
 10
826.695
 20
1853.307
 30
0
 11
792.811
 21
1874.565
 31
0
 0
ARC
 8
TOOL_0
 5
36
 10
807.319
 20
1811.205
 30
0
 40
64.999782030404
 50
102.897098227772
 51
282.897098227773
210
0
220
0
230
1.0
 0
ARC
 8
TOOL_0
 5
37
 10
807.319
 20
1811.205
 30
0
 40
64.999782030404
 50
282.897098227773
 51
98.488748697975
210
0
220
0
230
1.0
 0
ARC
 8
TOOL_0
 5
38
 10
807.319
 20
1811.205
 30
0
 40
65.000084376868
 50
98.488748697975
 51
102.896238985784
210
0
220
0
230
1.0
 0
LINE
 8
TOOL_0
 5
39
 10
792.812
 20
1874.565
 30
0
 11
790.154
 21
1870.329
 31
0
 0
LINE
 8
TOOL_0
 5
3A
 10
790.154
 20
1870.329
 30
0
 11
703.105
 21
1739.583
 31
0
 0
LINE
 8
TOOL_0
 5
3B
 10
703.105
 20
1739.583
 30
0
 11
667.885
 21
1758.546
 31
0
 0
ARC
 8
TOOL_0
 5
3C
 10
688.719
 20
1689.104
 30
0
 40
72.499978758618
 50
106.700303974512
 51
286.700303974513
210
0
220
0
230
1.0
 0
ARC
 8
TOOL_0
 5
3D
 10
688.719
 20
1689.104
 30
0
 40
72.499978758618
 50
286.700303974513
 51
102.747904732418
210
0
220
0
230
1.0
 0
ARC
 8
TOOL_0
 5
3E
 10
688.719
 20
1689.104
 30
0
 40
72.50009912407
 50
102.747904732418
 51
106.699547018199
210
0
220
0
230
1.0
 0
LINE
 8
TOOL_0
 5
3F
 10
667.886
 20
1758.546
 30
0
 11
665.515
 21
1754.143
 31
0
 0
LINE
 8
TOOL_0
 5
40
 10
665.515
 20
1754.143
 30
0
 11
849.255
 21
1547.27
 31
0
 0
LINE
 8
TOOL_0
 5
41
 10
849.255
 20
1547.27
 30
0
 11
870.801
 21
1580.971
 31
0
 0
ARC
 8
TOOL_0
 5
42
 10
807.32
 20
1567.003
 30
0
 40
64.999556806181
 50
12.409295272215
 51
192.409105850596
210
0
220
0
230
1.0
 0
ARC
 8
TOOL_0
 5
43
 10
807.319
 20
1567.003
 30
0
 40
64.999556806181
 50
192.409295272215
 51
8.000582696713
210
0
220
0
230
1.0
 0
ARC
 8
TOOL_0
 5
44
 10
807.32
 20
1567.003
 30
0
 40
64.99968383
 50
8.000705383592
 51
12.408434383457
210
0
220
0
230
1.0
 0
LINE
 8
TOOL_0
 5
45
 10
870.801
 20
1580.97
 30
0
 11
866.588
 21
1583.664
 31
0
 0
LINE
 8
TOOL_0
 5
46
 10
866.588
 20
1583.664
 30
0
 11
1020.054
 21
1360.569
 31
0
 0
LINE
 8
TOOL_0
 5
47
 10
1020.054
 20
1360.569
 30
0
 11
991.77
 21
1388.853
 31
0
 0
LINE
 8
TOOL_0
 5
48
 10
991.77
 20
1388.853
 30
0
 11
795.419
 21
1388.853
 31
0
 0
ARC
 8
TOOL_0
 5
49
 10
795.419
 20
1400.103
 30
0
 40
11.25
 50
180.0
 51
270.0
210
0
220
0
230
1.0
 0
LINE
 8
TOOL_0
 5
4A
 10
784.169
 20
1400.103
 30
0
 11
784.169
 21
1405.103
 31
0
 0
ARC
 8
TOOL_0
 5
4B
 10
775.419
 20
1405.103
 30
0
 40
8.75
 50
0
 51
90.0
210
0
220
0
230
1.0
 0
LINE
 8
TOOL_0
 5
4C
 10
775.419
 20
1413.853
 30
0
 11
741.988
 21
1413.853
 31
0
 0
ARC
 8
TOOL_0
 5
4D
 10
741.988
 20
1455.103
 30
0
 40
41.25
 50
225.0
 51
270.0
210
0
220
0
230
1.0
 0
LINE
 8
TOOL_0
 5
4E
 10
712.82
 20
1425.935
 30
0
 11
641.352
 21
1497.403
 31
0
 0
LINE
 8
TOOL_0
 5
4F
 10
641.352
 20
1497.403
 30
0
 11
617.47
 21
1538.768
 31
0
 0
LINE
 8
TOOL_0
 5
50
 10
617.47
 20
1538.768
 30
0
 11
617.47
 21
1559.103
 31
0
 0
ARC
 8
TOOL_0
 5
51
 10
565.72
 20
1559.103
 30
0
 40
51.75
 50
0
 51
78.264047319696
210
0
220
0
230
1.0
 0
ARC
 8
TOOL_0
 5
52
 10
918.42
 20
1689.103
 30
0
 40
351.25007117437
 50
166.946611254169
 51
193.053229841212
210
0
220
0
230
1.0
 0
ARC
 8
TOOL_0
 5
53
 10
565.72
 20
1819.102
 30
0
 40
51.747852438531
 50
281.736403097433
 51
0
210
0
220
0
230
1.0
 0
LINE
 8
TOOL_0
 5
54
 10
617.47
 20
1819.102
 30
0
 11
617.47
 21
1839.437
 31
0
 0
LINE
 8
TOOL_0
 5
55
 10
617.47
 20
1839.437
 30
0
 11
641.352
 21
1880.802
 31
0
 0
LINE
 8
TOOL_0
 5
56
 10
641.352
 20
1880.802
 30
0
 11
712.82
 21
1952.27
 31
0
 0
ARC
 8
TOOL_0
 5
57
 10
741.988
 20
1923.102
 30
0
 40
41.249781187298
 50
90.0
 51
135.0
210
0
220
0
230
1.0
 0
LINE
 8
TOOL_0
 5
58
 10
741.988
 20
1964.352
 30
0
 11
775.419
 21
1964.352
 31
0
 0
ARC
 8
TOOL_0
 5
59
 10
775.419
 20
1973.102
 30
0
 40
8.75
 50
270.0
 51
0
210
0
220
0
230
1.0
 0
LINE
 8
TOOL_0
 5
5A
 10
784.169
 20
1973.102
 30
0
 11
784.169
 21
1978.102
 31
0
 0
ARC
 8
TOOL_0
 5
5B
 10
795.419
 20
1978.102
 30
0
 40
11.25
 50
90.0
 51
180.0
210
0
220
0
230
1.0
 0
LINE
 8
TOOL_0
 5
5C
 10
795.419
 20
1989.352
 30
0
 11
1006.819
 21
1989.352
 31
0
 0
ARC
 8
TOOL_0
 5
5D
 10
1006.819
 20
1948.102
 30
0
 40
41.25
 50
0
 51
90.0
210
0
220
0
230
1.0
 0
LINE
 8
TOOL_0
 5
5E
 10
1048.069
 20
1948.102
 30
0
 11
1048.069
 21
1883.756
 31
0
 0
ARC
 8
TOOL_0
 5
5F
 10
1006.819
 20
1883.756
 30
0
 40
41.25
 50
315.0
 51
0
210
0
220
0
230
1.0
 0
LINE
 8
TOOL_0
 5
60
 10
1035.987
 20
1854.588
 30
0
 11
936.792
 21
1755.393
 31
0
 0
ARC
 8
TOOL_0
 5
61
 10
1003.083
 20
1689.102
 30
0
 40
93.749631263275
 50
135.0
 51
225.000432150272
210
0
220
0
230
1.0
 0
LINE
 8
TOOL_0
 5
62
 10
936.792
 20
1622.81
 30
0
 11
1035.987
 21
1523.615
 31
0
 0
ARC
 8
TOOL_0
 5
63
 10
1006.819
 20
1494.447
 30
0
 40
41.249781187298
 50
0
 51
45.0
210
0
220
0
230
1.0
 0
LINE
 8
TOOL_0
 5
64
 10
1048.069
 20
1494.447
 30
0
 11
1048.069
 21
1430.101
 31
0
 0
ARC
 8
TOOL_0
 5
65
 10
1006.819
 20
1430.101
 30
0
 40
41.25
 50
270.0
 51
0
210
0
220
0
230
1.0
 0
LINE
 8
TOOL_0
 5
66
 10
1006.819
 20
1388.851
 30
0
 11
996.77
 21
1388.851
 31
0
 0
LINE
 8
TOOL_0
 5
67
 10
996.77
 20
1388.851
 30
0
 11
991.77
 21
1388.851
 31
0
 0
LINE
 8
TOOL_0
 5
68
 10
991.77
 20
1388.851
 30
0
 11
984.699
 21
1381.78
 31
0
 0
LINE
 8
TOOL_0
 5
69
 10
984.699
 20
1381.78
 30
0
 11
984.699
 21
-0.005
 31
0
 0
LINE
 8
TOOL_0
 5
6A
 10
984.699
 20
-0.005
 30
0
 11
1564.535
 21
442.259
 31
0
 0
LINE
 8
TOOL_0
 5
6B
 10
1564.535
 20
442.259
 30
0
 11
1577.164
 21
480.213
 31
0
 0
ARC
 8
TOOL_0
 5
6C
 10
1519.042
 20
451.113
 30
0
 40
64.999822184372
 50
26.595799404545
 51
206.594616577209
210
0
220
0
230
1.0
 0
ARC
 8
TOOL_0
 5
6D
 10
1519.041
 20
451.113
 30
0
 40
64.99937449699
 50
206.595011194733
 51
22.187539684129
210
0
220
0
230
1.0
 0
ARC
 8
TOOL_0
 5
6E
 10
1519.042
 20
451.114
 30
0
 40
64.999854499837
 50
22.187056359379
 51
26.594616577209
210
0
220
0
230
1.0
 0
LINE
 8
TOOL_0
 5
6F
 10
1577.165
 20
480.213
 30
0
 11
1572.421
 21
481.792
 31
0
 0
LINE
 8
TOOL_0
 5
70
 10
1572.421
 20
481.792
 30
0
 11
1451.318
 21
316.102
 31
0
 0
LINE
 8
TOOL_0
 5
71
 10
1451.318
 20
316.102
 30
0
 11
1469.249
 21
351.858
 31
0
 0
ARC
 8
TOOL_0
 5
72
 10
1400.442
 20
329.013
 30
0
 40
72.500326026853
 50
18.366973437493
 51
198.36622340993
210
0
220
0
230
1.0
 0
ARC
 8
TOOL_0
 5
73
 10
1400.442
 20
329.014
 30
0
 40
72.500326026853
 50
198.366973437493
 51
14.414803056306
210
0
220
0
230
1.0
 0
ARC
 8
TOOL_0
 5
74
 10
1400.441
 20
329.014
 30
0
 40
72.500329847526
 50
14.414606323153
 51
18.36622340993
210
0
220
0
230
1.0
 0
LINE
 8
TOOL_0
 5
75
 10
1469.248
 20
351.858
 30
0
 11
1464.778
 21
354.1
 31
0
 0
LINE
 8
TOOL_0
 5
76
 10
1464.778
 20
354.1
 30
0
 11
1560.378
 21
185.955
 31
0
 0
LINE
 8
TOOL_0
 5
77
 10
1560.378
 20
185.955
 30
0
 11
1582.905
 21
219.009
 31
0
 0
ARC
 8
TOOL_0
 5
78
 10
1519.04
 20
206.914
 30
0
 40
65.000209615047
 50
10.723890838005
 51
190.723890838005
210
0
220
0
230
1.0
 0
ARC
 8
TOOL_0
 5
79
 10
1519.04
 20
206.914
 30
0
 40
65.000209615047
 50
190.723890838005
 51
6.316245336251
210
0
220
0
230
1.0
 0
ARC
 8
TOOL_0
 5
7A
 10
1519.04
 20
206.914
 30
0
 40
64.999560198512
 50
6.316245336251
 51
10.724054861309
210
0
220
0
230
1.0
 0
LINE
 8
TOOL_0
 5
7B
 10
1582.904
 20
219.009
 30
0
 11
1578.772
 21
221.825
 31
0
 0
LINE
 8
TOOL_0
 5
7C
 10
1578.772
 20
221.825
 30
0
 11
1788.073
 21
152.703
 31
0
 0
LINE
 8
TOOL_0
 5
7D
 10
1788.073
 20
152.703
 30
0
 11
1759.789
 21
124.419
 31
0
 0
LINE
 8
TOOL_0
 5
7E
 10
1759.789
 20
124.419
 30
0
 11
1759.789
 21
70.014
 31
0
 0
ARC
 8
TOOL_0
 5
7F
 10
1718.539
 20
70.014
 30
0
 40
41.25
 50
270.0
 51
0
210
0
220
0
230
1.0
 0
LINE
 8
TOOL_0
 5
80
 10
1718.539
 20
28.764
 30
0
 11
1507.139
 21
28.764
 31
0
 0
ARC
 8
TOOL_0
 5
81
 10
1507.139
 20
40.014
 30
0
 40
11.25
 50
180.0
 51
270.0
210
0
220
0
230
1.0
 0
LINE
 8
TOOL_0
 5
82
 10
1495.889
 20
40.014
 30
0
 11
1495.889
 21
45.014
 31
0
 0
ARC
 8
TOOL_0
 5
83
 10
1487.139
 20
45.014
 30
0
 40
8.75
 50
0
 51
90.0
210
0
220
0
230
1.0
 0
LINE
 8
TOOL_0
 5
84
 10
1487.139
 20
53.764
 30
0
 11
1453.708
 21
53.764
 31
0
 0
ARC
 8
TOOL_0
 5
85
 10
1453.708
 20
95.014
 30
0
 40
41.25
 50
225.0
 51
270.0
210
0
220
0
230
1.0
 0
LINE
 8
TOOL_0
 5
86
 10
1424.54
 20
65.846
 30
0
 11
1353.072
 21
137.314
 31
0
 0
LINE
 8
TOOL_0
 5
87
 10
1353.072
 20
137.314
 30
0
 11
1329.19
 21
178.679
 31
0
 0
LINE
 8
TOOL_0
 5
88
 10
1329.19
 20
178.679
 30
0
 11
1329.19
 21
199.014
 31
0
 0
ARC
 8
TOOL_0
 5
89
 10
1277.44
 20
199.014
 30
0
 40
51.75
 50
0
 51
78.264047319696
210
0
220
0
230
1.0
 0
ARC
 8
TOOL_0
 5
8A
 10
1630.14
 20
329.014
 30
0
 40
351.25007117437
 50
166.946611254169
 51
193.053229841212
210
0
220
0
230
1.0
 0
ARC
 8
TOOL_0
 5
8B
 10
1277.44
 20
459.013
 30
0
 40
51.747852438531
 50
281.736403097433
 51
0
210
0
220
0
230
1.0
 0
LINE
 8
TOOL_0
 5
8C
 10
1329.19
 20
459.013
 30
0
 11
1329.19
 21
479.348
 31
0
 0
LINE
 8
TOOL_0
 5
8D
 10
1329.19
 20
479.348
 30
0
 11
1353.072
 21
520.713
 31
0
 0
LINE
 8
TOOL_0
 5
8E
 10
1353.072
 20
520.713
 30
0
 11
1424.54
 21
592.181
 31
0
 0
ARC
 8
TOOL_0
 5
8F
 10
1453.708
 20
563.013
 30
0
 40
41.249781187298
 50
90.0
 51
135.0
210
0
220
0
230
1.0
 0
LINE
 8
TOOL_0
 5
90
 10
1453.708
 20
604.263
 30
0
 11
1487.139
 21
604.263
 31
0
 0
ARC
 8
TOOL_0
 5
91
 10
1487.139
 20
613.013
 30
0
 40
8.75
 50
270.0
 51
0
210
0
220
0
230
1.0
 0
LINE
 8
TOOL_0
 5
92
 10
1495.889
 20
613.013
 30
0
 11
1495.889
 21
618.013
 31
0
 0
ARC
 8
TOOL_0
 5
93
 10
1507.139
 20
618.013
 30
0
 40
11.25
 50
90.0
 51
180.0
210
0
220
0
230
1.0
 0
LINE
 8
TOOL_0
 5
94
 10
1507.139
 20
629.263
 30
0
 11
1718.539
 21
629.263
 31
0
 0
ARC
 8
TOOL_0
 5
95
 10
1718.539
 20
588.013
 30
0
 40
41.25
 50
0
 51
90.0
210
0
220
0
230
1.0
 0
LINE
 8
TOOL_0
 5
96
 10
1759.789
 20
588.013
 30
0
 11
1759.789
 21
523.667
 31
0
 0
ARC
 8
TOOL_0
 5
97
 10
1718.539
 20
523.667
 30
0
 40
41.25
 50
315.0
 51
0
210
0
220
0
230
1.0
 0
LINE
 8
TOOL_0
 5
98
 10
1747.707
 20
494.499
 30
0
 11
1648.512
 21
395.304
 31
0
 0
ARC
 8
TOOL_0
 5
99
 10
1714.803
 20
329.013
 30
0
 40
93.749631263275
 50
135.0
 51
225.000432150272
210
0
220
0
230
1.0
 0
LINE
 8
TOOL_0
 5
9A
 10
1648.512
 20
262.721
 30
0
 11
1747.707
 21
163.526
 31
0
 0
ARC
 8
TOOL_0
 5
9B
 10
1718.539
 20
134.358
 30
0
 40
41.249781187298
 50
0
 51
45.0
210
0
220
0
230
1.0
 0
LINE
 8
TOOL_0
 5
9C
 10
1759.789
 20
134.358
 30
0
 11
1759.789
 21
129.417
 31
0
 0
LINE
 8
TOOL_0
 5
9D
 10
1759.789
 20
129.417
 30
0
 11
1759.789
 21
124.417
 31
0
 0
LINE
 8
TOOL_0
 5
9E
 10
1759.789
 20
124.417
 30
0
 11
1766.86
 21
117.346
 31
0
 0
LINE
 8
TOOL_0
 5
9F
 10
1766.86
 20
117.346
 30
0
 11
1841.162
 21
-0.007
 31
0
 0
LINE
 8
TOOL_0
 5
A0
 10
1841.162
 20
-0.007
 30
0
 11
1841.162
 21
0.993
 31
0
 0
LINE
 8
TOOL_0
 5
A1
 10
1841.162
 20
0.993
 30
0
 11
1841.162
 21
-0.007
 31
0
 0
LINE
 8
TOOL_0
 5
A2
 10
1841.162
 20
-0.007
 30
0
 11
1841.162
 21
-0.007
 31
0
 0
LINE
 8
TOOL_0
 5
A3
 10
1841.162
 20
-0.007
 30
0
 11
1841.162
 21
0.993
 31
0
 0
LINE
 8
TOOL_0
 5
A4
 10
1841.162
 20
0.993
 30
0
 11
1841.162
 21
1376.517
 31
0
 0
LINE
 8
TOOL_0
 5
A5
 10
1841.162
 20
1376.517
 30
0
 11
1510.077
 21
1376.517
 31
0
 0
LINE
 8
TOOL_0
 5
A6
 10
1510.077
 20
1376.517
 30
0
 11
1510.077
 21
1994.993
 31
0
 0
LINE
 8
TOOL_0
 5
A7
 10
1510.077
 20
1994.993
 30
0
 11
1510.077
 21
1998.993
 31
0
 0
LINE
 8
TOOL_0
 5
A8
 10
1510.077
 20
1998.993
 30
0
 11
1510.077
 21
1999.993
 31
0
 0
ENDSEC
 0
EOF

