999
NC Corrector for PPC by Strunov V.V.
0
SECTION
2
HEADER
9
$ACADVER
1
AC1006
9
$LIMMIN
10
0
20
0
9
$LIMMAX
10
6814,529
20
2166,166
0
ENDSEC
0
SECTION
2
TABLES
0
TABLE
2
LTYPE
70
2
0
LTYPE
2
CONTINUOUS
70
64
3
Solid line
72
65
73
0
40
0.0
0
LTYPE
2
Hidden
70
64
3
__ __ __ __ __ __ __ __ __ __ __ __ __ __ __ __
72
65
73
2
40
8.
49
5.0
49
-3.0
0
ENDTAB
0
TABLE
2
LAYER
70
1
0
LAYER
2
0
70
0
62
0
6
CONTINUOUS
0
ENDTAB
0
ENDSEC
0
SECTION
2
ENTITIES
0
LINE
8
0
62
1
10
0
20
0
30
0
11
6810,401
21
23,642
31
0
0
LINE
8
0
62
1
10
6810,401
20
23,642
30
0
11
6787,5
21
23,642
31
0
0
LINE
8
0
62
1
10
6787,5
20
23,642
30
0
11
12,5
21
23,642
31
0
0
LINE
8
0
62
1
10
12,5
20
23,642
30
0
11
12,5
21
469,643
31
0
0
LINE
8
0
62
1
10
12,5
20
469,643
30
0
11
6787,5
21
469,643
31
0
0
LINE
8
0
62
1
10
6787,5
20
469,643
30
0
11
6787,5
21
23,643
31
0
0
LINE
8
0
62
1
10
6787,5
20
23,643
30
0
11
6787,5
21
15,009
31
0
0
LINE
8
0
62
1
10
6787,5
20
15,009
30
0
11
6814,529
21
492,399
31
0
0
LINE
8
0
62
1
10
6814,529
20
492,399
30
0
11
6787,5
21
492,399
31
0
0
LINE
8
0
62
1
10
6787,5
20
492,399
30
0
11
12,5
21
492,399
31
0
0
LINE
8
0
62
1
10
12,5
20
492,399
30
0
11
12,5
21
938,399
31
0
0
LINE
8
0
62
1
10
12,5
20
938,399
30
0
11
6787,5
21
938,399
31
0
0
LINE
8
0
62
1
10
6787,5
20
938,399
30
0
11
6787,5
21
492,399
31
0
0
LINE
8
0
62
1
10
6787,5
20
492,399
30
0
11
6787,5
21
485,446
31
0
0
LINE
8
0
62
1
10
6787,5
20
485,446
30
0
11
6134,07
21
985,891
31
0
0
LINE
8
0
62
1
10
6134,07
20
985,891
30
0
11
6134,07
21
965,353
31
0
0
LINE
8
0
62
1
10
6134,07
20
965,353
30
0
11
6110
21
967,181
31
0
0
LINE
8
0
62
1
10
6110
20
967,181
30
0
11
20
21
967,181
31
0
0
LINE
8
0
62
1
10
20
20
967,181
30
0
11
20
21
1357,181
31
0
0
LINE
8
0
62
1
10
20
20
1357,181
30
0
11
6110
21
1357,181
31
0
0
LINE
8
0
62
1
10
6110
20
1357,181
30
0
11
6110
21
967,181
31
0
0
LINE
8
0
62
1
10
6110
20
967,181
30
0
11
6110
21
958,895
31
0
0
LINE
8
0
62
1
10
6110
20
958,895
30
0
11
6143,082
21
1416,987
31
0
0
LINE
8
0
62
1
10
6143,082
20
1416,987
30
0
11
6143,082
21
1381,608
31
0
0
LINE
8
0
62
1
10
6143,082
20
1381,608
30
0
11
6110
21
1381,005
31
0
0
LINE
8
0
62
1
10
6110
20
1381,005
30
0
11
20
21
1381,005
31
0
0
LINE
8
0
62
1
10
20
20
1381,005
30
0
11
20
21
1771,005
31
0
0
LINE
8
0
62
1
10
20
20
1771,005
30
0
11
6110
21
1771,005
31
0
0
LINE
8
0
62
1
10
6110
20
1771,005
30
0
11
6110
21
1381,005
31
0
0
LINE
8
0
62
1
10
6110
20
1381,005
30
0
11
6110
21
1373,581
31
0
0
LINE
8
0
62
1
10
6110
20
1373,581
30
0
11
782,815
21
1939,906
31
0
0
LINE
8
0
62
1
10
782,815
20
1939,906
30
0
11
812,815
21
1939,906
31
0
0
LINE
8
0
62
1
10
812,815
20
1939,906
30
0
11
812,815
21
1974,906
31
0
0
ARC
8
0
62
1
10
792,815
20
1974,906
30
0
40
20
50
0
51
90
0
LINE
8
0
62
1
10
792,815
20
1994,906
30
0
11
382,815
21
1994,906
31
0
0
ARC
8
0
62
1
10
382,815
20
1974,906
30
0
40
20
50
90
51
180
0
LINE
8
0
62
1
10
362,815
20
1974,906
30
0
11
362,815
21
1904,906
31
0
0
ARC
8
0
62
1
10
382,815
20
1904,906
30
0
40
20
50
180
51
270
0
LINE
8
0
62
1
10
382,815
20
1884,906
30
0
11
792,815
21
1884,906
31
0
0
ARC
8
0
62
1
10
792,815
20
1904,906
30
0
40
20
50
-90
51
0
0
LINE
8
0
62
1
10
812,815
20
1904,906
30
0
11
812,815
21
1939,906
31
0
0
LINE
8
0
62
1
10
812,815
20
1939,906
30
0
11
805,744
21
1946,977
31
0
0
LINE
8
0
62
1
10
805,744
20
1946,977
30
0
11
1134,066
21
1896,232
31
0
0
LINE
8
0
62
1
10
1134,066
20
1896,232
30
0
11
1134,066
21
1861,156
31
0
0
LINE
8
0
62
1
10
1134,066
20
1861,156
30
0
11
1134,066
21
1799,906
31
0
0
LINE
8
0
62
1
10
1134,066
20
1799,906
30
0
11
41,566
21
1799,906
31
0
0
LINE
8
0
62
1
10
41,566
20
1799,906
30
0
11
41,566
21
1861,156
31
0
0
LINE
8
0
62
1
10
41,566
20
1861,156
30
0
11
72,816
21
1861,156
31
0
0
ARC
8
0
62
1
10
72,816
20
1879,906
30
0
40
18,75
50
-90
51
0
0
LINE
8
0
62
1
10
91,566
20
1879,906
30
0
11
91,566
21
2019,906
31
0
0
ARC
8
0
62
1
10
72,816
20
2019,906
30
0
40
18,75
50
0
51
90
0
LINE
8
0
62
1
10
72,816
20
2038,656
30
0
11
41,566
21
2038,656
31
0
0
LINE
8
0
62
1
10
41,566
20
2038,656
30
0
11
41,566
21
2135,805
31
0
0
LINE
8
0
62
1
10
41,566
20
2135,805
30
0
11
223,057
21
2135,805
31
0
0
LINE
8
0
62
1
10
223,057
20
2135,805
30
0
11
292,339
21
2095,805
31
0
0
LINE
8
0
62
1
10
292,339
20
2095,805
30
0
11
423,189
21
2095,805
31
0
0
LINE
8
0
62
1
10
423,189
20
2095,805
30
0
11
453,189
21
2065,805
31
0
0
LINE
8
0
62
1
10
453,189
20
2065,805
30
0
11
722,443
21
2065,805
31
0
0
LINE
8
0
62
1
10
722,443
20
2065,805
30
0
11
752,443
21
2095,805
31
0
0
LINE
8
0
62
1
10
752,443
20
2095,805
30
0
11
883,293
21
2095,805
31
0
0
LINE
8
0
62
1
10
883,293
20
2095,805
30
0
11
952,575
21
2135,805
31
0
0
LINE
8
0
62
1
10
952,575
20
2135,805
30
0
11
1134,066
21
2135,805
31
0
0
LINE
8
0
62
1
10
1134,066
20
2135,805
30
0
11
1134,066
21
2038,655
31
0
0
LINE
8
0
62
1
10
1134,066
20
2038,655
30
0
11
1102,816
21
2038,655
31
0
0
ARC
8
0
62
1
10
1102,816
20
2019,905
30
0
40
18,75
50
90
51
180
0
LINE
8
0
62
1
10
1084,066
20
2019,905
30
0
11
1084,066
21
1879,905
31
0
0
ARC
8
0
62
1
10
1102,816
20
1879,905
30
0
40
18,75
50
180
51
270
0
LINE
8
0
62
1
10
1102,816
20
1861,155
30
0
11
1134,066
21
1861,155
31
0
0
LINE
8
0
62
1
10
1134,066
20
1861,155
30
0
11
1143,618
21
1861,155
31
0
0
LINE
8
0
62
1
10
1143,618
20
1861,155
30
0
11
0,001
21
2166,166
31
0
0
LINE
8
0
62
1
10
0,001
20
2166,166
30
0
11
1,001
21
2166,166
31
0
0
LINE
8
0
62
1
10
1,001
20
2166,166
30
0
11
0,001
21
2166,166
31
0
0
LINE
8
0
62
1
10
0,001
20
2166,166
30
0
11
1,001
21
2166,166
31
0
0
LINE
8
0
62
1
10
1,001
20
2166,166
30
0
11
1193,421
21
2166,166
31
0
0
LINE
8
0
62
1
10
1193,421
20
2166,166
30
0
11
1193,421
21
1819,182
31
0
0
LINE
8
0
62
1
10
1193,421
20
1819,182
30
0
11
6183,129
21
1819,182
31
0
0
LINE
8
0
62
1
10
6183,129
20
1819,182
30
0
11
6257,167
21
972,924
31
0
0
LINE
8
0
62
1
10
6257,167
20
972,924
30
0
11
6799
21
972,924
31
0
0
LINE
8
0
62
1
10
6799
20
972,924
30
0
11
6800
21
972,924
31
0
0
ENDSEC
0
EOF
