999
NC Corrector for PPC by Strunov V.V.
0
SECTION
2
HEADER
9
$ACADVER
1
AC1006
9
$LIMMIN
10
0
20
0
9
$LIMMAX
10
12958,32
20
988,502
0
ENDSEC
0
SECTION
2
TABLES
0
TABLE
2
LTYPE
70
2
0
LTYPE
2
CONTINUOUS
70
64
3
Solid line
72
65
73
0
40
0.0
0
LTYPE
2
Hidden
70
64
3
__ __ __ __ __ __ __ __ __ __ __ __ __ __ __ __
72
65
73
2
40
8.
49
5.0
49
-3.0
0
ENDTAB
0
TABLE
2
LAYER
70
1
0
LAYER
2
0
70
0
62
0
6
CONTINUOUS
0
ENDTAB
0
ENDSEC
0
SECTION
2
ENTITIES
0
LINE
8
0
62
1
10
0
20
0
30
0
11
321,458
21
273,833
31
0
0
LINE
8
0
62
1
10
321,458
20
273,833
30
0
11
355,25
21
273,833
31
0
0
LINE
8
0
62
1
10
355,25
20
273,833
30
0
11
355,25
21
321,841
31
0
0
ARC
8
0
62
1
10
347,25
20
321,841
30
0
40
8
50
0
51
180
0
LINE
8
0
62
1
10
339,25
20
321,841
30
0
11
339,25
21
308,841
31
0
0
LINE
8
0
62
1
10
339,25
20
308,841
30
0
11
285,25
21
308,841
31
0
0
LINE
8
0
62
1
10
285,25
20
308,841
30
0
11
285,25
21
321,841
31
0
0
ARC
8
0
62
1
10
277,25
20
321,841
30
0
40
8
50
0
51
180
0
LINE
8
0
62
1
10
269,25
20
321,841
30
0
11
269,25
21
256,841
31
0
0
ARC
8
0
62
1
10
284,25
20
256,841
30
0
40
15
50
180
51
270
0
LINE
8
0
62
1
10
284,25
20
241,841
30
0
11
340,25
21
241,841
31
0
0
ARC
8
0
62
1
10
340,25
20
256,841
30
0
40
15
50
-90
51
0
0
LINE
8
0
62
1
10
355,25
20
256,841
30
0
11
355,25
21
273,833
31
0
0
LINE
8
0
62
1
10
355,25
20
273,833
30
0
11
761,978
21
236,751
31
0
0
LINE
8
0
62
1
10
761,978
20
236,751
30
0
11
797,25
21
236,751
31
0
0
ARC
8
0
62
1
10
762,25
20
236,751
30
0
40
35
50
0
51
180
0
ARC
8
0
62
1
10
762,25
20
236,751
30
0
40
35
50
-180
51
0
0
LINE
8
0
62
1
10
797,25
20
236,751
30
0
11
1066,779
21
836,75
31
0
0
LINE
8
0
62
1
10
1066,779
20
836,75
30
0
11
1102,25
21
836,75
31
0
0
ARC
8
0
62
1
10
1067,25
20
836,75
30
0
40
35
50
0
51
180
0
ARC
8
0
62
1
10
1067,25
20
836,75
30
0
40
35
50
-180
51
0
0
LINE
8
0
62
1
10
1102,25
20
836,75
30
0
11
1617,418
21
236,75
31
0
0
LINE
8
0
62
1
10
1617,418
20
236,75
30
0
11
1652,25
21
236,75
31
0
0
ARC
8
0
62
1
10
1617,25
20
236,75
30
0
40
35
50
0
51
180
0
ARC
8
0
62
1
10
1617,25
20
236,75
30
0
40
35
50
-180
51
0
0
LINE
8
0
62
1
10
1652,25
20
236,75
30
0
11
2167,813
21
836,75
31
0
0
LINE
8
0
62
1
10
2167,813
20
836,75
30
0
11
2202,25
21
836,75
31
0
0
ARC
8
0
62
1
10
2167,25
20
836,75
30
0
40
35
50
0
51
180
0
ARC
8
0
62
1
10
2167,25
20
836,75
30
0
40
35
50
-180
51
0
0
LINE
8
0
62
1
10
2202,25
20
836,75
30
0
11
2472,629
21
236,75
31
0
0
LINE
8
0
62
1
10
2472,629
20
236,75
30
0
11
2507,25
21
236,75
31
0
0
ARC
8
0
62
1
10
2472,25
20
236,75
30
0
40
35
50
0
51
180
0
ARC
8
0
62
1
10
2472,25
20
236,75
30
0
40
35
50
-180
51
0
0
LINE
8
0
62
1
10
2507,25
20
236,75
30
0
11
2929,441
21
281,234
31
0
0
LINE
8
0
62
1
10
2929,441
20
281,234
30
0
11
2965,25
21
281,234
31
0
0
LINE
8
0
62
1
10
2965,25
20
281,234
30
0
11
2965,25
21
321,84
31
0
0
ARC
8
0
62
1
10
2957,25
20
321,84
30
0
40
8
50
0
51
180
0
LINE
8
0
62
1
10
2949,25
20
321,84
30
0
11
2949,25
21
308,84
31
0
0
LINE
8
0
62
1
10
2949,25
20
308,84
30
0
11
2895,25
21
308,84
31
0
0
LINE
8
0
62
1
10
2895,25
20
308,84
30
0
11
2895,25
21
321,84
31
0
0
ARC
8
0
62
1
10
2887,25
20
321,84
30
0
40
8
50
0
51
180
0
LINE
8
0
62
1
10
2879,25
20
321,84
30
0
11
2879,25
21
256,84
31
0
0
ARC
8
0
62
1
10
2894,25
20
256,84
30
0
40
15
50
180
51
270
0
LINE
8
0
62
1
10
2894,25
20
241,84
30
0
11
2950,25
21
241,84
31
0
0
ARC
8
0
62
1
10
2950,25
20
256,84
30
0
40
15
50
-90
51
0
0
LINE
8
0
62
1
10
2965,25
20
256,84
30
0
11
2965,25
21
281,234
31
0
0
LINE
8
0
62
1
10
2965,25
20
281,234
30
0
11
3186,284
21
8
31
0
0
LINE
8
0
62
1
10
3186,284
20
8
30
0
11
3155
21
8
31
0
0
LINE
8
0
62
1
10
3155
20
8
30
0
11
79,5
21
8
31
0
0
LINE
8
0
62
1
10
79,5
20
8
30
0
11
79,5
21
110,75
31
0
0
LINE
8
0
62
1
10
79,5
20
110,75
30
0
11
85,5
21
110,75
31
0
0
LINE
8
0
62
1
10
85,5
20
110,75
30
0
11
85,5
21
188,75
31
0
0
ARC
8
0
62
1
10
60,5
20
188,75
30
0
40
25
50
0
51
90
0
LINE
8
0
62
1
10
60,5
20
213,75
30
0
11
8
21
213,75
31
0
0
LINE
8
0
62
1
10
8
20
213,75
30
0
11
8
21
988,5
31
0
0
LINE
8
0
62
1
10
8
20
988,5
30
0
11
91,502
21
988,5
31
0
0
LINE
8
0
62
1
10
91,502
20
988,5
30
0
11
163,343
21
490,051
31
0
0
ARC
8
0
62
1
10
237,576
20
500,75
30
0
40
75
50
188,201
51
270
0
LINE
8
0
62
1
10
237,576
20
425,75
30
0
11
428,117
21
425,75
31
0
0
ARC
8
0
62
1
10
428,117
20
500,75
30
0
40
75
50
270
51
319,999
0
LINE
8
0
62
1
10
485,57
20
452,541
30
0
11
875,973
21
917,807
31
0
0
LINE
8
0
62
1
10
875,973
20
917,807
30
0
11
871,377
21
921,664
31
0
0
LINE
8
0
62
1
10
871,377
20
921,664
30
0
11
616,5
21
617,914
31
0
0
LINE
8
0
62
1
10
616,5
20
617,914
30
0
11
616,5
21
988,502
31
0
0
LINE
8
0
62
1
10
616,5
20
988,502
30
0
11
2618
21
988,502
31
0
0
LINE
8
0
62
1
10
2618
20
988,502
30
0
11
2618
21
617,914
31
0
0
LINE
8
0
62
1
10
2618
20
617,914
30
0
11
2363,124
21
921,664
31
0
0
LINE
8
0
62
1
10
2363,124
20
921,664
30
0
11
2358,528
21
917,807
31
0
0
LINE
8
0
62
1
10
2358,528
20
917,807
30
0
11
2748,932
21
452,541
31
0
0
ARC
8
0
62
1
10
2806,385
20
500,75
30
0
40
74,999
50
220
51
270
0
LINE
8
0
62
1
10
2806,385
20
425,75
30
0
11
2996,925
21
425,75
31
0
0
ARC
8
0
62
1
10
2996,925
20
500,75
30
0
40
75
50
270
51
351,798
0
LINE
8
0
62
1
10
3071,157
20
490,051
30
0
11
3142,999
21
988,5
31
0
0
LINE
8
0
62
1
10
3142,999
20
988,5
30
0
11
3226,501
21
988,5
31
0
0
LINE
8
0
62
1
10
3226,501
20
988,5
30
0
11
3226,501
21
213,75
31
0
0
LINE
8
0
62
1
10
3226,501
20
213,75
30
0
11
3174,001
21
213,75
31
0
0
ARC
8
0
62
1
10
3174,001
20
188,75
30
0
40
25
50
90
51
180
0
LINE
8
0
62
1
10
3149,001
20
188,75
30
0
11
3149,001
21
110,75
31
0
0
LINE
8
0
62
1
10
3149,001
20
110,75
30
0
11
3155,001
21
110,75
31
0
0
LINE
8
0
62
1
10
3155,001
20
110,75
30
0
11
3155,001
21
8
31
0
0
LINE
8
0
62
1
10
3155,001
20
8
30
0
11
3155,001
21
3,165
31
0
0
LINE
8
0
62
1
10
3155,001
20
3,165
30
0
11
3563,489
21
273,832
31
0
0
LINE
8
0
62
1
10
3563,489
20
273,832
30
0
11
3597,281
21
273,832
31
0
0
LINE
8
0
62
1
10
3597,281
20
273,832
30
0
11
3597,281
21
321,84
31
0
0
ARC
8
0
62
1
10
3589,281
20
321,84
30
0
40
8
50
0
51
180
0
LINE
8
0
62
1
10
3581,281
20
321,84
30
0
11
3581,281
21
308,84
31
0
0
LINE
8
0
62
1
10
3581,281
20
308,84
30
0
11
3527,281
21
308,84
31
0
0
LINE
8
0
62
1
10
3527,281
20
308,84
30
0
11
3527,281
21
321,84
31
0
0
ARC
8
0
62
1
10
3519,281
20
321,84
30
0
40
8
50
0
51
180
0
LINE
8
0
62
1
10
3511,281
20
321,84
30
0
11
3511,281
21
256,84
31
0
0
ARC
8
0
62
1
10
3526,281
20
256,84
30
0
40
15
50
180
51
270
0
LINE
8
0
62
1
10
3526,281
20
241,84
30
0
11
3582,281
21
241,84
31
0
0
ARC
8
0
62
1
10
3582,281
20
256,84
30
0
40
15
50
-90
51
0
0
LINE
8
0
62
1
10
3597,281
20
256,84
30
0
11
3597,281
21
273,832
31
0
0
LINE
8
0
62
1
10
3597,281
20
273,832
30
0
11
4004,009
21
236,75
31
0
0
LINE
8
0
62
1
10
4004,009
20
236,75
30
0
11
4039,281
21
236,75
31
0
0
ARC
8
0
62
1
10
4004,281
20
236,75
30
0
40
35
50
0
51
180
0
ARC
8
0
62
1
10
4004,281
20
236,75
30
0
40
35
50
-180
51
0
0
LINE
8
0
62
1
10
4039,281
20
236,75
30
0
11
4308,809
21
836,75
31
0
0
LINE
8
0
62
1
10
4308,809
20
836,75
30
0
11
4344,281
21
836,75
31
0
0
ARC
8
0
62
1
10
4309,281
20
836,75
30
0
40
35
50
0
51
180
0
ARC
8
0
62
1
10
4309,281
20
836,75
30
0
40
35
50
-180
51
0
0
LINE
8
0
62
1
10
4344,281
20
836,75
30
0
11
4859,45
21
236,75
31
0
0
LINE
8
0
62
1
10
4859,45
20
236,75
30
0
11
4894,281
21
236,75
31
0
0
ARC
8
0
62
1
10
4859,281
20
236,75
30
0
40
35
50
0
51
180
0
ARC
8
0
62
1
10
4859,281
20
236,75
30
0
40
35
50
-180
51
0
0
LINE
8
0
62
1
10
4894,281
20
236,75
30
0
11
5409,845
21
836,75
31
0
0
LINE
8
0
62
1
10
5409,845
20
836,75
30
0
11
5444,281
21
836,75
31
0
0
ARC
8
0
62
1
10
5409,281
20
836,75
30
0
40
35
50
0
51
180
0
ARC
8
0
62
1
10
5409,281
20
836,75
30
0
40
35
50
-180
51
0
0
LINE
8
0
62
1
10
5444,281
20
836,75
30
0
11
5714,66
21
236,75
31
0
0
LINE
8
0
62
1
10
5714,66
20
236,75
30
0
11
5749,281
21
236,75
31
0
0
ARC
8
0
62
1
10
5714,281
20
236,75
30
0
40
35
50
0
51
180
0
ARC
8
0
62
1
10
5714,281
20
236,75
30
0
40
35
50
-180
51
0
0
LINE
8
0
62
1
10
5749,281
20
236,75
30
0
11
6171,473
21
281,234
31
0
0
LINE
8
0
62
1
10
6171,473
20
281,234
30
0
11
6207,281
21
281,234
31
0
0
LINE
8
0
62
1
10
6207,281
20
281,234
30
0
11
6207,281
21
321,84
31
0
0
ARC
8
0
62
1
10
6199,281
20
321,84
30
0
40
8
50
0
51
180
0
LINE
8
0
62
1
10
6191,281
20
321,84
30
0
11
6191,281
21
308,84
31
0
0
LINE
8
0
62
1
10
6191,281
20
308,84
30
0
11
6137,281
21
308,84
31
0
0
LINE
8
0
62
1
10
6137,281
20
308,84
30
0
11
6137,281
21
321,84
31
0
0
ARC
8
0
62
1
10
6129,281
20
321,84
30
0
40
8
50
0
51
180
0
LINE
8
0
62
1
10
6121,281
20
321,84
30
0
11
6121,281
21
256,84
31
0
0
ARC
8
0
62
1
10
6136,281
20
256,84
30
0
40
15
50
180
51
270
0
LINE
8
0
62
1
10
6136,281
20
241,84
30
0
11
6192,281
21
241,84
31
0
0
ARC
8
0
62
1
10
6192,281
20
256,84
30
0
40
15
50
-90
51
0
0
LINE
8
0
62
1
10
6207,281
20
256,84
30
0
11
6207,281
21
281,234
31
0
0
LINE
8
0
62
1
10
6207,281
20
281,234
30
0
11
6428,316
21
8
31
0
0
LINE
8
0
62
1
10
6428,316
20
8
30
0
11
6397,031
21
8
31
0
0
LINE
8
0
62
1
10
6397,031
20
8
30
0
11
3321,531
21
8
31
0
0
LINE
8
0
62
1
10
3321,531
20
8
30
0
11
3321,531
21
110,75
31
0
0
LINE
8
0
62
1
10
3321,531
20
110,75
30
0
11
3327,531
21
110,75
31
0
0
LINE
8
0
62
1
10
3327,531
20
110,75
30
0
11
3327,531
21
188,75
31
0
0
ARC
8
0
62
1
10
3302,531
20
188,75
30
0
40
25
50
0
51
90
0
LINE
8
0
62
1
10
3302,531
20
213,75
30
0
11
3250,031
21
213,75
31
0
0
LINE
8
0
62
1
10
3250,031
20
213,75
30
0
11
3250,031
21
988,5
31
0
0
LINE
8
0
62
1
10
3250,031
20
988,5
30
0
11
3333,534
21
988,5
31
0
0
LINE
8
0
62
1
10
3333,534
20
988,5
30
0
11
3405,375
21
490,051
31
0
0
ARC
8
0
62
1
10
3479,608
20
500,75
30
0
40
75
50
188,201
51
270
0
LINE
8
0
62
1
10
3479,608
20
425,75
30
0
11
3670,148
21
425,75
31
0
0
ARC
8
0
62
1
10
3670,148
20
500,75
30
0
40
75
50
270
51
319,999
0
LINE
8
0
62
1
10
3727,601
20
452,541
30
0
11
4118,004
21
917,807
31
0
0
LINE
8
0
62
1
10
4118,004
20
917,807
30
0
11
4113,408
21
921,664
31
0
0
LINE
8
0
62
1
10
4113,408
20
921,664
30
0
11
3858,531
21
617,914
31
0
0
LINE
8
0
62
1
10
3858,531
20
617,914
30
0
11
3858,531
21
988,502
31
0
0
LINE
8
0
62
1
10
3858,531
20
988,502
30
0
11
5860,031
21
988,502
31
0
0
LINE
8
0
62
1
10
5860,031
20
988,502
30
0
11
5860,031
21
617,914
31
0
0
LINE
8
0
62
1
10
5860,031
20
617,914
30
0
11
5605,154
21
921,664
31
0
0
LINE
8
0
62
1
10
5605,154
20
921,664
30
0
11
5600,558
21
917,807
31
0
0
LINE
8
0
62
1
10
5600,558
20
917,807
30
0
11
5990,962
21
452,541
31
0
0
ARC
8
0
62
1
10
6048,415
20
500,75
30
0
40
74,999
50
220
51
270
0
LINE
8
0
62
1
10
6048,415
20
425,75
30
0
11
6238,955
21
425,75
31
0
0
ARC
8
0
62
1
10
6238,955
20
500,75
30
0
40
75
50
270
51
351,798
0
LINE
8
0
62
1
10
6313,188
20
490,051
30
0
11
6385,029
21
988,5
31
0
0
LINE
8
0
62
1
10
6385,029
20
988,5
30
0
11
6468,532
21
988,5
31
0
0
LINE
8
0
62
1
10
6468,532
20
988,5
30
0
11
6468,532
21
213,75
31
0
0
LINE
8
0
62
1
10
6468,532
20
213,75
30
0
11
6416,032
21
213,75
31
0
0
ARC
8
0
62
1
10
6416,032
20
188,75
30
0
40
25
50
90
51
180
0
LINE
8
0
62
1
10
6391,032
20
188,75
30
0
11
6391,032
21
110,75
31
0
0
LINE
8
0
62
1
10
6391,032
20
110,75
30
0
11
6397,032
21
110,75
31
0
0
LINE
8
0
62
1
10
6397,032
20
110,75
30
0
11
6397,032
21
8
31
0
0
LINE
8
0
62
1
10
6397,032
20
8
30
0
11
6397,032
21
3,165
31
0
0
LINE
8
0
62
1
10
6397,032
20
3,165
30
0
11
6806,802
21
273,832
31
0
0
LINE
8
0
62
1
10
6806,802
20
273,832
30
0
11
6840,594
21
273,832
31
0
0
LINE
8
0
62
1
10
6840,594
20
273,832
30
0
11
6840,594
21
321,84
31
0
0
ARC
8
0
62
1
10
6832,594
20
321,84
30
0
40
8
50
0
51
180
0
LINE
8
0
62
1
10
6824,594
20
321,84
30
0
11
6824,594
21
308,84
31
0
0
LINE
8
0
62
1
10
6824,594
20
308,84
30
0
11
6770,594
21
308,84
31
0
0
LINE
8
0
62
1
10
6770,594
20
308,84
30
0
11
6770,594
21
321,84
31
0
0
ARC
8
0
62
1
10
6762,594
20
321,84
30
0
40
8
50
0
51
180
0
LINE
8
0
62
1
10
6754,594
20
321,84
30
0
11
6754,594
21
256,84
31
0
0
ARC
8
0
62
1
10
6769,594
20
256,84
30
0
40
15
50
180
51
270
0
LINE
8
0
62
1
10
6769,594
20
241,84
30
0
11
6825,594
21
241,84
31
0
0
ARC
8
0
62
1
10
6825,594
20
256,84
30
0
40
15
50
-90
51
0
0
LINE
8
0
62
1
10
6840,594
20
256,84
30
0
11
6840,594
21
273,832
31
0
0
LINE
8
0
62
1
10
6840,594
20
273,832
30
0
11
7247,322
21
236,75
31
0
0
LINE
8
0
62
1
10
7247,322
20
236,75
30
0
11
7282,594
21
236,75
31
0
0
ARC
8
0
62
1
10
7247,594
20
236,75
30
0
40
35
50
0
51
180
0
ARC
8
0
62
1
10
7247,594
20
236,75
30
0
40
35
50
-180
51
0
0
LINE
8
0
62
1
10
7282,594
20
236,75
30
0
11
7552,122
21
836,75
31
0
0
LINE
8
0
62
1
10
7552,122
20
836,75
30
0
11
7587,594
21
836,75
31
0
0
ARC
8
0
62
1
10
7552,594
20
836,75
30
0
40
35
50
0
51
180
0
ARC
8
0
62
1
10
7552,594
20
836,75
30
0
40
35
50
-180
51
0
0
LINE
8
0
62
1
10
7587,594
20
836,75
30
0
11
8102,763
21
236,75
31
0
0
LINE
8
0
62
1
10
8102,763
20
236,75
30
0
11
8137,594
21
236,75
31
0
0
ARC
8
0
62
1
10
8102,594
20
236,75
30
0
40
35
50
0
51
180
0
ARC
8
0
62
1
10
8102,594
20
236,75
30
0
40
35
50
-180
51
0
0
LINE
8
0
62
1
10
8137,594
20
236,75
30
0
11
8653,158
21
836,75
31
0
0
LINE
8
0
62
1
10
8653,158
20
836,75
30
0
11
8687,593
21
836,75
31
0
0
ARC
8
0
62
1
10
8652,593
20
836,75
30
0
40
35
50
0
51
180
0
ARC
8
0
62
1
10
8652,593
20
836,75
30
0
40
35
50
-180
51
0
0
LINE
8
0
62
1
10
8687,593
20
836,75
30
0
11
8957,972
21
236,75
31
0
0
LINE
8
0
62
1
10
8957,972
20
236,75
30
0
11
8992,593
21
236,75
31
0
0
ARC
8
0
62
1
10
8957,593
20
236,75
30
0
40
35
50
0
51
180
0
ARC
8
0
62
1
10
8957,593
20
236,75
30
0
40
35
50
-180
51
0
0
LINE
8
0
62
1
10
8992,593
20
236,75
30
0
11
9414,786
21
281,234
31
0
0
LINE
8
0
62
1
10
9414,786
20
281,234
30
0
11
9450,593
21
281,234
31
0
0
LINE
8
0
62
1
10
9450,593
20
281,234
30
0
11
9450,593
21
321,84
31
0
0
ARC
8
0
62
1
10
9442,593
20
321,84
30
0
40
8
50
0
51
180
0
LINE
8
0
62
1
10
9434,593
20
321,84
30
0
11
9434,593
21
308,84
31
0
0
LINE
8
0
62
1
10
9434,593
20
308,84
30
0
11
9380,593
21
308,84
31
0
0
LINE
8
0
62
1
10
9380,593
20
308,84
30
0
11
9380,593
21
321,84
31
0
0
ARC
8
0
62
1
10
9372,593
20
321,84
30
0
40
8
50
0
51
180
0
LINE
8
0
62
1
10
9364,593
20
321,84
30
0
11
9364,593
21
256,84
31
0
0
ARC
8
0
62
1
10
9379,593
20
256,84
30
0
40
15
50
180
51
270
0
LINE
8
0
62
1
10
9379,593
20
241,84
30
0
11
9435,593
21
241,84
31
0
0
ARC
8
0
62
1
10
9435,593
20
256,84
30
0
40
15
50
-90
51
0
0
LINE
8
0
62
1
10
9450,593
20
256,84
30
0
11
9450,593
21
281,234
31
0
0
LINE
8
0
62
1
10
9450,593
20
281,234
30
0
11
9671,628
21
8
31
0
0
LINE
8
0
62
1
10
9671,628
20
8
30
0
11
9640,343
21
8
31
0
0
LINE
8
0
62
1
10
9640,343
20
8
30
0
11
6564,843
21
8
31
0
0
LINE
8
0
62
1
10
6564,843
20
8
30
0
11
6564,843
21
110,75
31
0
0
LINE
8
0
62
1
10
6564,843
20
110,75
30
0
11
6570,843
21
110,75
31
0
0
LINE
8
0
62
1
10
6570,843
20
110,75
30
0
11
6570,843
21
188,75
31
0
0
ARC
8
0
62
1
10
6545,843
20
188,75
30
0
40
25
50
0
51
90
0
LINE
8
0
62
1
10
6545,843
20
213,75
30
0
11
6493,343
21
213,75
31
0
0
LINE
8
0
62
1
10
6493,343
20
213,75
30
0
11
6493,343
21
988,5
31
0
0
LINE
8
0
62
1
10
6493,343
20
988,5
30
0
11
6576,846
21
988,5
31
0
0
LINE
8
0
62
1
10
6576,846
20
988,5
30
0
11
6648,687
21
490,051
31
0
0
ARC
8
0
62
1
10
6722,92
20
500,75
30
0
40
75
50
188,201
51
270
0
LINE
8
0
62
1
10
6722,92
20
425,75
30
0
11
6913,46
21
425,75
31
0
0
ARC
8
0
62
1
10
6913,46
20
500,75
30
0
40
75
50
270
51
319,999
0
LINE
8
0
62
1
10
6970,913
20
452,541
30
0
11
7361,317
21
917,807
31
0
0
LINE
8
0
62
1
10
7361,317
20
917,807
30
0
11
7356,721
21
921,664
31
0
0
LINE
8
0
62
1
10
7356,721
20
921,664
30
0
11
7101,844
21
617,914
31
0
0
LINE
8
0
62
1
10
7101,844
20
617,914
30
0
11
7101,844
21
988,502
31
0
0
LINE
8
0
62
1
10
7101,844
20
988,502
30
0
11
9103,343
21
988,502
31
0
0
LINE
8
0
62
1
10
9103,343
20
988,502
30
0
11
9103,343
21
617,914
31
0
0
LINE
8
0
62
1
10
9103,343
20
617,914
30
0
11
8848,466
21
921,664
31
0
0
LINE
8
0
62
1
10
8848,466
20
921,664
30
0
11
8843,871
21
917,807
31
0
0
LINE
8
0
62
1
10
8843,871
20
917,807
30
0
11
9234,275
21
452,541
31
0
0
ARC
8
0
62
1
10
9291,728
20
500,75
30
0
40
74,999
50
220
51
270
0
LINE
8
0
62
1
10
9291,728
20
425,75
30
0
11
9482,268
21
425,75
31
0
0
ARC
8
0
62
1
10
9482,268
20
500,75
30
0
40
75
50
270
51
351,798
0
LINE
8
0
62
1
10
9556,501
20
490,051
30
0
11
9628,342
21
988,5
31
0
0
LINE
8
0
62
1
10
9628,342
20
988,5
30
0
11
9711,845
21
988,5
31
0
0
LINE
8
0
62
1
10
9711,845
20
988,5
30
0
11
9711,845
21
213,75
31
0
0
LINE
8
0
62
1
10
9711,845
20
213,75
30
0
11
9659,345
21
213,75
31
0
0
ARC
8
0
62
1
10
9659,345
20
188,75
30
0
40
25
50
90
51
180
0
LINE
8
0
62
1
10
9634,345
20
188,75
30
0
11
9634,345
21
110,75
31
0
0
LINE
8
0
62
1
10
9634,345
20
110,75
30
0
11
9640,345
21
110,75
31
0
0
LINE
8
0
62
1
10
9640,345
20
110,75
30
0
11
9640,345
21
8
31
0
0
LINE
8
0
62
1
10
9640,345
20
8
30
0
11
9640,345
21
3,165
31
0
0
LINE
8
0
62
1
10
9640,345
20
3,165
30
0
11
10053,28
21
273,832
31
0
0
LINE
8
0
62
1
10
10053,28
20
273,832
30
0
11
10087,07
21
273,832
31
0
0
LINE
8
0
62
1
10
10087,07
20
273,832
30
0
11
10087,07
21
321,84
31
0
0
ARC
8
0
62
1
10
10079,07
20
321,84
30
0
40
8
50
0
51
180
0
LINE
8
0
62
1
10
10071,07
20
321,84
30
0
11
10071,07
21
308,84
31
0
0
LINE
8
0
62
1
10
10071,07
20
308,84
30
0
11
10017,07
21
308,84
31
0
0
LINE
8
0
62
1
10
10017,07
20
308,84
30
0
11
10017,07
21
321,84
31
0
0
ARC
8
0
62
1
10
10009,07
20
321,84
30
0
40
8
50
0
51
180
0
LINE
8
0
62
1
10
10001,07
20
321,84
30
0
11
10001,07
21
256,84
31
0
0
ARC
8
0
62
1
10
10016,07
20
256,84
30
0
40
15
50
180
51
270
0
LINE
8
0
62
1
10
10016,07
20
241,84
30
0
11
10072,07
21
241,84
31
0
0
ARC
8
0
62
1
10
10072,07
20
256,84
30
0
40
15
50
-90
51
0
0
LINE
8
0
62
1
10
10087,07
20
256,84
30
0
11
10087,07
21
273,832
31
0
0
LINE
8
0
62
1
10
10087,07
20
273,832
30
0
11
10493,79
21
236,75
31
0
0
LINE
8
0
62
1
10
10493,79
20
236,75
30
0
11
10529,07
21
236,75
31
0
0
ARC
8
0
62
1
10
10494,07
20
236,75
30
0
40
35
50
0
51
180
0
ARC
8
0
62
1
10
10494,07
20
236,75
30
0
40
35
50
-180
51
0
0
LINE
8
0
62
1
10
10529,07
20
236,75
30
0
11
10798,6
21
836,75
31
0
0
LINE
8
0
62
1
10
10798,6
20
836,75
30
0
11
10834,07
21
836,75
31
0
0
ARC
8
0
62
1
10
10799,07
20
836,75
30
0
40
35
50
0
51
180
0
ARC
8
0
62
1
10
10799,07
20
836,75
30
0
40
35
50
-180
51
0
0
LINE
8
0
62
1
10
10834,07
20
836,75
30
0
11
11349,24
21
236,75
31
0
0
LINE
8
0
62
1
10
11349,24
20
236,75
30
0
11
11384,07
21
236,75
31
0
0
ARC
8
0
62
1
10
11349,07
20
236,75
30
0
40
35
50
0
51
180
0
ARC
8
0
62
1
10
11349,07
20
236,75
30
0
40
35
50
-180
51
0
0
LINE
8
0
62
1
10
11384,07
20
236,75
30
0
11
11899,63
21
836,75
31
0
0
LINE
8
0
62
1
10
11899,63
20
836,75
30
0
11
11934,07
21
836,75
31
0
0
ARC
8
0
62
1
10
11899,07
20
836,75
30
0
40
35
50
0
51
180
0
ARC
8
0
62
1
10
11899,07
20
836,75
30
0
40
35
50
-180
51
0
0
LINE
8
0
62
1
10
11934,07
20
836,75
30
0
11
12204,45
21
236,75
31
0
0
LINE
8
0
62
1
10
12204,45
20
236,75
30
0
11
12239,07
21
236,75
31
0
0
ARC
8
0
62
1
10
12204,07
20
236,75
30
0
40
35
50
0
51
180
0
ARC
8
0
62
1
10
12204,07
20
236,75
30
0
40
35
50
-180
51
0
0
LINE
8
0
62
1
10
12239,07
20
236,75
30
0
11
12661,26
21
281,234
31
0
0
LINE
8
0
62
1
10
12661,26
20
281,234
30
0
11
12697,07
21
281,234
31
0
0
LINE
8
0
62
1
10
12697,07
20
281,234
30
0
11
12697,07
21
321,84
31
0
0
ARC
8
0
62
1
10
12689,07
20
321,84
30
0
40
8
50
0
51
180
0
LINE
8
0
62
1
10
12681,07
20
321,84
30
0
11
12681,07
21
308,84
31
0
0
LINE
8
0
62
1
10
12681,07
20
308,84
30
0
11
12627,07
21
308,84
31
0
0
LINE
8
0
62
1
10
12627,07
20
308,84
30
0
11
12627,07
21
321,84
31
0
0
ARC
8
0
62
1
10
12619,07
20
321,84
30
0
40
8
50
0
51
180
0
LINE
8
0
62
1
10
12611,07
20
321,84
30
0
11
12611,07
21
256,84
31
0
0
ARC
8
0
62
1
10
12626,07
20
256,84
30
0
40
15
50
180
51
270
0
LINE
8
0
62
1
10
12626,07
20
241,84
30
0
11
12682,07
21
241,84
31
0
0
ARC
8
0
62
1
10
12682,07
20
256,84
30
0
40
15
50
-90
51
0
0
LINE
8
0
62
1
10
12697,07
20
256,84
30
0
11
12697,07
21
281,234
31
0
0
LINE
8
0
62
1
10
12697,07
20
281,234
30
0
11
12918,1
21
8
31
0
0
LINE
8
0
62
1
10
12918,1
20
8
30
0
11
12886,82
21
8
31
0
0
LINE
8
0
62
1
10
12886,82
20
8
30
0
11
9811,318
21
8
31
0
0
LINE
8
0
62
1
10
9811,318
20
8
30
0
11
9811,318
21
110,75
31
0
0
LINE
8
0
62
1
10
9811,318
20
110,75
30
0
11
9817,318
21
110,75
31
0
0
LINE
8
0
62
1
10
9817,318
20
110,75
30
0
11
9817,318
21
188,75
31
0
0
ARC
8
0
62
1
10
9792,318
20
188,75
30
0
40
25
50
0
51
90
0
LINE
8
0
62
1
10
9792,318
20
213,75
30
0
11
9739,818
21
213,75
31
0
0
LINE
8
0
62
1
10
9739,818
20
213,75
30
0
11
9739,818
21
988,5
31
0
0
LINE
8
0
62
1
10
9739,818
20
988,5
30
0
11
9823,321
21
988,5
31
0
0
LINE
8
0
62
1
10
9823,321
20
988,5
30
0
11
9895,162
21
490,051
31
0
0
ARC
8
0
62
1
10
9969,395
20
500,75
30
0
40
75
50
188,201
51
270
0
LINE
8
0
62
1
10
9969,395
20
425,75
30
0
11
10159,93
21
425,75
31
0
0
ARC
8
0
62
1
10
10159,93
20
500,75
30
0
40
75
50
270
51
319,999
0
LINE
8
0
62
1
10
10217,39
20
452,541
30
0
11
10607,79
21
917,807
31
0
0
LINE
8
0
62
1
10
10607,79
20
917,807
30
0
11
10603,2
21
921,664
31
0
0
LINE
8
0
62
1
10
10603,2
20
921,664
30
0
11
10348,32
21
617,914
31
0
0
LINE
8
0
62
1
10
10348,32
20
617,914
30
0
11
10348,32
21
988,502
31
0
0
LINE
8
0
62
1
10
10348,32
20
988,502
30
0
11
12349,82
21
988,502
31
0
0
LINE
8
0
62
1
10
12349,82
20
988,502
30
0
11
12349,82
21
617,914
31
0
0
LINE
8
0
62
1
10
12349,82
20
617,914
30
0
11
12094,94
21
921,664
31
0
0
LINE
8
0
62
1
10
12094,94
20
921,664
30
0
11
12090,35
21
917,807
31
0
0
LINE
8
0
62
1
10
12090,35
20
917,807
30
0
11
12480,75
21
452,541
31
0
0
ARC
8
0
62
1
10
12538,21
20
500,75
30
0
40
74,999
50
220
51
270
0
LINE
8
0
62
1
10
12538,21
20
425,75
30
0
11
12728,75
21
425,75
31
0
0
ARC
8
0
62
1
10
12728,75
20
500,75
30
0
40
75
50
270
51
351,798
0
LINE
8
0
62
1
10
12802,98
20
490,051
30
0
11
12874,82
21
988,5
31
0
0
LINE
8
0
62
1
10
12874,82
20
988,5
30
0
11
12958,32
21
988,5
31
0
0
LINE
8
0
62
1
10
12958,32
20
988,5
30
0
11
12958,32
21
213,75
31
0
0
LINE
8
0
62
1
10
12958,32
20
213,75
30
0
11
12905,82
21
213,75
31
0
0
ARC
8
0
62
1
10
12905,82
20
188,75
30
0
40
25
50
90
51
180
0
LINE
8
0
62
1
10
12880,82
20
188,75
30
0
11
12880,82
21
110,75
31
0
0
LINE
8
0
62
1
10
12880,82
20
110,75
30
0
11
12886,82
21
110,75
31
0
0
LINE
8
0
62
1
10
12886,82
20
110,75
30
0
11
12886,82
21
8
31
0
0
LINE
8
0
62
1
10
12886,82
20
8
30
0
11
12886,82
21
3,165
31
0
0
ENDSEC
0
EOF
