999
NC Corrector for PPC by Strunov V.V.
0
SECTION
2
HEADER
9
$ACADVER
1
AC1006
9
$LIMMIN
10
0
20
-0,001
9
$LIMMAX
10
3047,146
20
1899,262
0
ENDSEC
0
SECTION
2
TABLES
0
TABLE
2
LTYPE
70
2
0
LTYPE
2
CONTINUOUS
70
64
3
Solid line
72
65
73
0
40
0.0
0
LTYPE
2
Hidden
70
64
3
__ __ __ __ __ __ __ __ __ __ __ __ __ __ __ __
72
65
73
2
40
8.
49
5.0
49
-3.0
0
ENDTAB
0
TABLE
2
LAYER
70
1
0
LAYER
2
0
70
0
62
0
6
CONTINUOUS
0
ENDTAB
0
ENDSEC
0
SECTION
2
ENTITIES
0
LINE
8
0
62
1
10
0
20
0
30
0
11
167,75
21
1205,75
31
0
0
LINE
8
0
62
1
10
167,75
20
1205,75
30
0
11
202,75
21
1205,75
31
0
0
ARC
8
0
62
1
10
162,75
20
1205,75
30
0
40
40
50
0
51
180
0
ARC
8
0
62
1
10
162,75
20
1205,75
30
0
40
40
50
-180
51
0
0
LINE
8
0
62
1
10
202,75
20
1205,75
30
0
11
197,093
21
1211,407
31
0
0
LINE
8
0
62
1
10
197,093
20
1211,407
30
0
11
463,75
21
580,75
31
0
0
LINE
8
0
62
1
10
463,75
20
580,75
30
0
11
463,75
21
545,75
31
0
0
LINE
8
0
62
1
10
463,75
20
545,75
30
0
11
478,75
21
545,75
31
0
0
ARC
8
0
62
1
10
478,75
20
555,75
30
0
40
10
50
-90
51
0
0
LINE
8
0
62
1
10
488,75
20
555,75
30
0
11
488,75
21
735,75
31
0
0
ARC
8
0
62
1
10
478,75
20
735,75
30
0
40
10
50
0
51
90
0
LINE
8
0
62
1
10
478,75
20
745,75
30
0
11
448,75
21
745,75
31
0
0
ARC
8
0
62
1
10
448,75
20
735,75
30
0
40
10
50
90
51
180
0
LINE
8
0
62
1
10
438,75
20
735,75
30
0
11
438,75
21
555,75
31
0
0
ARC
8
0
62
1
10
448,75
20
555,75
30
0
40
10
50
180
51
270
0
LINE
8
0
62
1
10
448,75
20
545,75
30
0
11
463,75
21
545,75
31
0
0
LINE
8
0
62
1
10
463,75
20
545,75
30
0
11
469,407
21
551,407
31
0
0
LINE
8
0
62
1
10
469,407
20
551,407
30
0
11
2889,75
21
437,75
31
0
0
LINE
8
0
62
1
10
2889,75
20
437,75
30
0
11
2889,75
21
402,75
31
0
0
LINE
8
0
62
1
10
2889,75
20
402,75
30
0
11
2899,75
21
402,75
31
0
0
ARC
8
0
62
1
10
2899,75
20
412,75
30
0
40
10
50
-90
51
0
0
LINE
8
0
62
1
10
2909,75
20
412,75
30
0
11
2909,75
21
492,75
31
0
0
ARC
8
0
62
1
10
2899,75
20
492,75
30
0
40
10
50
0
51
90
0
LINE
8
0
62
1
10
2899,75
20
502,75
30
0
11
2879,75
21
502,75
31
0
0
ARC
8
0
62
1
10
2879,75
20
472,75
30
0
40
30
50
90
51
180
0
LINE
8
0
62
1
10
2849,75
20
472,75
30
0
11
2849,75
21
432,75
31
0
0
ARC
8
0
62
1
10
2879,75
20
432,75
30
0
40
30
50
180
51
270
0
LINE
8
0
62
1
10
2879,75
20
402,75
30
0
11
2889,75
21
402,75
31
0
0
LINE
8
0
62
1
10
2889,75
20
402,75
30
0
11
2895,406
21
408,407
31
0
0
LINE
8
0
62
1
10
2895,406
20
408,407
30
0
11
2779,75
21
517,75
31
0
0
LINE
8
0
62
1
10
2779,75
20
517,75
30
0
11
2779,75
21
482,75
31
0
0
LINE
8
0
62
1
10
2779,75
20
482,75
30
0
11
2809,75
21
482,75
31
0
0
ARC
8
0
62
1
10
2809,75
20
502,75
30
0
40
20
50
-90
51
0
0
LINE
8
0
62
1
10
2829,75
20
502,75
30
0
11
2829,75
21
592,75
31
0
0
ARC
8
0
62
1
10
2809,75
20
592,75
30
0
40
20
50
0
51
90
0
LINE
8
0
62
1
10
2809,75
20
612,75
30
0
11
2749,75
21
612,75
31
0
0
ARC
8
0
62
1
10
2749,75
20
592,75
30
0
40
20
50
90
51
180
0
LINE
8
0
62
1
10
2729,75
20
592,75
30
0
11
2729,75
21
502,75
31
0
0
ARC
8
0
62
1
10
2749,75
20
502,75
30
0
40
20
50
180
51
270
0
LINE
8
0
62
1
10
2749,75
20
482,75
30
0
11
2779,75
21
482,75
31
0
0
LINE
8
0
62
1
10
2779,75
20
482,75
30
0
11
2785,406
21
488,407
31
0
0
LINE
8
0
62
1
10
2785,406
20
488,407
30
0
11
2796,75
21
1527,75
31
0
0
LINE
8
0
62
1
10
2796,75
20
1527,75
30
0
11
2796,75
21
1492,75
31
0
0
LINE
8
0
62
1
10
2796,75
20
1492,75
30
0
11
2836,75
21
1492,75
31
0
0
ARC
8
0
62
1
10
2836,75
20
1512,75
30
0
40
20
50
-90
51
0
0
LINE
8
0
62
1
10
2856,75
20
1512,75
30
0
11
2856,75
21
1572,75
31
0
0
ARC
8
0
62
1
10
2836,739
20
1572,739
30
0
40
20,011
50
0,031
51
89,968
0
LINE
8
0
62
1
10
2836,75
20
1592,75
30
0
11
2756,75
21
1592,75
31
0
0
ARC
8
0
62
1
10
2756,76
20
1572,739
30
0
40
20,011
50
90,031
51
179,968
0
LINE
8
0
62
1
10
2736,75
20
1572,75
30
0
11
2736,75
21
1512,75
31
0
0
ARC
8
0
62
1
10
2756,75
20
1512,75
30
0
40
20
50
180
51
270
0
LINE
8
0
62
1
10
2756,75
20
1492,75
30
0
11
2796,75
21
1492,75
31
0
0
LINE
8
0
62
1
10
2796,75
20
1492,75
30
0
11
2802,406
21
1498,407
31
0
0
LINE
8
0
62
1
10
2802,406
20
1498,407
30
0
11
2990,123
21
12,445
31
0
0
LINE
8
0
62
1
10
2990,123
20
12,445
30
0
11
2954,979
21
11,557
31
0
0
LINE
8
0
62
1
10
2954,979
20
11,557
30
0
11
2952,272
21
10,259
31
0
0
ARC
8
0
62
1
10
2947,5
20
11,75
30
0
40
4,999
50
270
51
342,648
0
LINE
8
0
62
1
10
2947,5
20
6,75
30
0
11
2859
21
6,75
31
0
0
LINE
8
0
62
1
10
2859
20
6,75
30
0
11
2859
21
61,75
31
0
0
ARC
8
0
62
1
10
2854
20
61,75
30
0
40
5
50
0
51
90
0
LINE
8
0
62
1
10
2854
20
66,75
30
0
11
2097,75
21
66,75
31
0
0
ARC
8
0
62
1
10
2097,75
20
61,75
30
0
40
5
50
90
51
180
0
LINE
8
0
62
1
10
2092,75
20
61,75
30
0
11
2092,75
21
6,75
31
0
0
LINE
8
0
62
1
10
2092,75
20
6,75
30
0
11
6,75
21
6,75
31
0
0
LINE
8
0
62
1
10
6,75
20
6,75
30
0
11
6,75
21
1768,75
31
0
0
LINE
8
0
62
1
10
6,75
20
1768,75
30
0
11
75,976
21
1768,75
31
0
0
ARC
8
0
62
1
10
75,976
20
1777,75
30
0
40
9
50
270
51
329,999
0
LINE
8
0
62
1
10
83,77
20
1773,25
30
0
11
137,752
21
1866,75
31
0
0
LINE
8
0
62
1
10
137,752
20
1866,75
30
0
11
570,5
21
1866,75
31
0
0
LINE
8
0
62
1
10
570,5
20
1866,75
30
0
11
570,5
21
1587,503
31
0
0
ARC
8
0
62
1
10
650,913
20
1565,37
30
0
40
83,403
50
164,61
51
194,484
0
ARC
8
0
62
1
10
657,545
20
1566,425
30
0
40
90,09
50
194,078
51
223,053
0
ARC
8
0
62
1
10
678,737
20
1585,115
30
0
40
118,337
50
222,661
51
248,602
0
ARC
8
0
62
1
10
687,462
20
1605,518
30
0
40
140,518
50
248,325
51
270,132
0
ARC
8
0
62
1
10
697,423
20
1564,097
30
0
40
99,564
50
264,445
51
333,813
0
ARC
8
0
62
1
10
796,629
20
1515,223
30
0
40
11,026
50
90,083
51
153,406
0
LINE
8
0
62
1
10
796,613
20
1526,25
30
0
11
858,609
21
1526,25
31
0
0
ARC
8
0
62
1
10
858,609
20
1535,25
30
0
40
9
50
270
51
315
0
LINE
8
0
62
1
10
864,973
20
1528,886
30
0
11
873,115
21
1537,028
31
0
0
ARC
8
0
62
1
10
880,893
20
1529,25
30
0
40
10,999
50
90
51
135
0
LINE
8
0
62
1
10
880,893
20
1540,25
30
0
11
1425,5
21
1540,25
31
0
0
LINE
8
0
62
1
10
1425,5
20
1540,25
30
0
11
1425,5
21
1503,5
31
0
0
LINE
8
0
62
1
10
1425,5
20
1503,5
30
0
11
1422,75
21
1503,5
31
0
0
ARC
8
0
62
1
10
1422,75
20
1500,25
30
0
40
3,25
50
90
51
180
0
LINE
8
0
62
1
10
1419,5
20
1500,25
30
0
11
1419,5
21
1492,75
31
0
0
ARC
8
0
62
1
10
1618,75
20
1492,75
30
0
40
199,25
50
180
51
270
0
LINE
8
0
62
1
10
1618,75
20
1293,5
30
0
11
1971,75
21
1293,5
31
0
0
ARC
8
0
62
1
10
1971,75
20
1492,75
30
0
40
199,25
50
270
51
359,999
0
LINE
8
0
62
1
10
2171
20
1492,748
30
0
11
2171
21
1592,414
31
0
0
LINE
8
0
62
1
10
2171
20
1592,414
30
0
11
2197,336
21
1618,75
31
0
0
LINE
8
0
62
1
10
2197,336
20
1618,75
30
0
11
2966,165
21
1618,75
31
0
0
LINE
8
0
62
1
10
2966,165
20
1618,75
30
0
11
2992,75
21
1592,164
31
0
0
LINE
8
0
62
1
10
2992,75
20
1592,164
30
0
11
2992,75
21
71,75
31
0
0
ARC
8
0
62
1
10
2987,75
20
71,75
30
0
40
5
50
-90
51
0
0
LINE
8
0
62
1
10
2987,75
20
66,75
30
0
11
2957,5
21
66,75
31
0
0
ARC
8
0
62
1
10
2957,5
20
61,75
30
0
40
5
50
90
51
180
0
LINE
8
0
62
1
10
2952,5
20
61,75
30
0
11
2952,5
21
13,25
31
0
0
LINE
8
0
62
1
10
2952,5
20
13,25
30
0
11
2954,979
21
11,557
31
0
0
LINE
8
0
62
1
10
2954,979
20
11,557
30
0
11
2955,962
21
8,003
31
0
0
LINE
8
0
62
1
10
2955,962
20
8,003
30
0
11
3047,146
21
-0,001
31
0
0
LINE
8
0
62
1
10
3047,146
20
-0,001
30
0
11
3047,146
21
0,999
31
0
0
LINE
8
0
62
1
10
3047,146
20
0,999
30
0
11
3047,146
21
-0,001
31
0
0
LINE
8
0
62
1
10
3047,146
20
-0,001
30
0
11
3047,146
21
0,999
31
0
0
LINE
8
0
62
1
10
3047,146
20
0,999
30
0
11
3047,146
21
1639,306
31
0
0
LINE
8
0
62
1
10
3047,146
20
1639,306
30
0
11
618,257
21
1639,306
31
0
0
LINE
8
0
62
1
10
618,257
20
1639,306
30
0
11
618,257
21
1899,262
31
0
0
LINE
8
0
62
1
10
618,257
20
1899,262
30
0
11
1,001
21
1899,262
31
0
0
LINE
8
0
62
1
10
1,001
20
1899,262
30
0
11
0,001
21
1899,262
31
0
0
ENDSEC
0
EOF
