999
NC Corrector for PPC by Strunov V.V.
0
SECTION
2
HEADER
9
$ACADVER
1
AC1006
9
$LIMMIN
10
0
20
-0,001
9
$LIMMAX
10
3026,298
20
1889,868
0
ENDSEC
0
SECTION
2
TABLES
0
TABLE
2
LTYPE
70
2
0
LTYPE
2
CONTINUOUS
70
64
3
Solid line
72
65
73
0
40
0.0
0
LTYPE
2
Hidden
70
64
3
__ __ __ __ __ __ __ __ __ __ __ __ __ __ __ __
72
65
73
2
40
8.
49
5.0
49
-3.0
0
ENDTAB
0
TABLE
2
LAYER
70
1
0
LAYER
2
0
70
0
62
0
6
CONTINUOUS
0
ENDTAB
0
ENDSEC
0
SECTION
2
ENTITIES
0
LINE
8
0
62
1
10
0
20
0
30
0
11
167,75
21
1205,75
31
0
0
LINE
8
0
62
1
10
167,75
20
1205,75
30
0
11
202,75
21
1205,75
31
0
0
ARC
8
0
62
1
10
0
20
0
30
0
40
0
50
80,454
51
84,187
0
ARC
8
0
62
1
10
0
20
0
30
0
40
0
50
-275,813
51
80,454
0
LINE
8
0
62
1
10
202,75
20
1205,75
30
0
11
197,093
21
1211,407
31
0
0
LINE
8
0
62
1
10
197,093
20
1211,407
30
0
11
463,75
21
580,75
31
0
0
LINE
8
0
62
1
10
463,75
20
580,75
30
0
11
463,75
21
545,75
31
0
0
LINE
8
0
62
1
10
463,75
20
545,75
30
0
11
478,75
21
545,75
31
0
0
ARC
8
0
62
1
10
0
20
0
30
0
40
0
50
-311,259
51
48,67
0
LINE
8
0
62
1
10
488,75
20
555,75
30
0
11
488,75
21
735,75
31
0
0
ARC
8
0
62
1
10
0
20
0
30
0
40
0
50
56,404
51
57,3
0
LINE
8
0
62
1
10
478,75
20
745,75
30
0
11
448,75
21
745,75
31
0
0
ARC
8
0
62
1
10
0
20
0
30
0
40
0
50
58,962
51
59,191
0
LINE
8
0
62
1
10
438,75
20
735,75
30
0
11
438,75
21
555,75
31
0
0
ARC
8
0
62
1
10
0
20
0
30
0
40
0
50
-308,291
51
50,57
0
LINE
8
0
62
1
10
448,75
20
545,75
30
0
11
463,75
21
545,75
31
0
0
LINE
8
0
62
1
10
463,75
20
545,75
30
0
11
469,407
21
551,407
31
0
0
LINE
8
0
62
1
10
469,407
20
551,407
30
0
11
2889,75
21
437,75
31
0
0
LINE
8
0
62
1
10
2889,75
20
437,75
30
0
11
2889,75
21
402,75
31
0
0
LINE
8
0
62
1
10
2889,75
20
402,75
30
0
11
2899,75
21
402,75
31
0
0
ARC
8
0
62
1
10
0
20
0
30
0
40
0
50
7,907
51
8,073
0
LINE
8
0
62
1
10
2909,75
20
412,75
30
0
11
2909,75
21
492,75
31
0
0
ARC
8
0
62
1
10
0
20
0
30
0
40
0
50
9,611
51
9,836
0
LINE
8
0
62
1
10
2899,75
20
502,75
30
0
11
2879,75
21
502,75
31
0
0
ARC
8
0
62
1
10
0
20
0
30
0
40
0
50
-350,098
51
9,419
0
LINE
8
0
62
1
10
2849,75
20
472,75
30
0
11
2849,75
21
432,75
31
0
0
ARC
8
0
62
1
10
0
20
0
30
0
40
0
50
-351,366
51
7,961
0
LINE
8
0
62
1
10
2879,75
20
402,75
30
0
11
2889,75
21
402,75
31
0
0
LINE
8
0
62
1
10
2889,75
20
402,75
30
0
11
2895,406
21
408,407
31
0
0
LINE
8
0
62
1
10
2895,406
20
408,407
30
0
11
2779,75
21
517,75
31
0
0
LINE
8
0
62
1
10
2779,75
20
517,75
30
0
11
2779,75
21
482,75
31
0
0
LINE
8
0
62
1
10
2779,75
20
482,75
30
0
11
2809,75
21
482,75
31
0
0
ARC
8
0
62
1
10
0
20
0
30
0
40
0
50
9,748
51
10,074
0
LINE
8
0
62
1
10
2829,75
20
502,75
30
0
11
2829,75
21
592,75
31
0
0
ARC
8
0
62
1
10
0
20
0
30
0
40
0
50
11,83
51
12,302
0
LINE
8
0
62
1
10
2809,75
20
612,75
30
0
11
2749,75
21
612,75
31
0
0
ARC
8
0
62
1
10
0
20
0
30
0
40
0
50
-347,438
51
12,251
0
LINE
8
0
62
1
10
2729,75
20
592,75
30
0
11
2729,75
21
502,75
31
0
0
ARC
8
0
62
1
10
0
20
0
30
0
40
0
50
-349,565
51
9,957
0
LINE
8
0
62
1
10
2749,75
20
482,75
30
0
11
2779,75
21
482,75
31
0
0
LINE
8
0
62
1
10
2779,75
20
482,75
30
0
11
2785,406
21
488,407
31
0
0
LINE
8
0
62
1
10
2785,406
20
488,407
30
0
11
2796,75
21
1527,75
31
0
0
LINE
8
0
62
1
10
2796,75
20
1527,75
30
0
11
2796,75
21
1492,75
31
0
0
LINE
8
0
62
1
10
2796,75
20
1492,75
30
0
11
2836,75
21
1492,75
31
0
0
ARC
8
0
62
1
10
0
20
0
30
0
40
0
50
27,754
51
27,902
0
LINE
8
0
62
1
10
2856,75
20
1512,75
30
0
11
2856,75
21
1572,75
31
0
0
ARC
8
0
62
1
10
0
20
0
30
0
40
0
50
28,834
51
29,312
0
LINE
8
0
62
1
10
2836,75
20
1592,75
30
0
11
2756,75
21
1592,75
31
0
0
ARC
8
0
62
1
10
0
20
0
30
0
40
0
50
-329,983
51
29,885
0
LINE
8
0
62
1
10
2736,75
20
1572,75
30
0
11
2736,75
21
1512,75
31
0
0
ARC
8
0
62
1
10
0
20
0
30
0
40
0
50
-331,069
51
28,435
0
LINE
8
0
62
1
10
2756,75
20
1492,75
30
0
11
2796,75
21
1492,75
31
0
0
LINE
8
0
62
1
10
2796,75
20
1492,75
30
0
11
2802,406
21
1498,407
31
0
0
LINE
8
0
62
1
10
2802,406
20
1498,407
30
0
11
2991,541
21
9,26
31
0
0
LINE
8
0
62
1
10
2991,541
20
9,26
30
0
11
2954,979
21
11,558
31
0
0
LINE
8
0
62
1
10
2954,979
20
11,558
30
0
11
2952,272
21
10,26
31
0
0
ARC
8
0
62
1
10
0
20
0
30
0
40
0
50
0,131
51
0,199
0
LINE
8
0
62
1
10
2947,5
20
6,751
30
0
11
2859
21
6,751
31
0
0
LINE
8
0
62
1
10
2859
20
6,751
30
0
11
2859
21
61,751
31
0
0
ARC
8
0
62
1
10
0
20
0
30
0
40
0
50
1,237
51
1,339
0
LINE
8
0
62
1
10
2854
20
66,751
30
0
11
2097,75
21
66,751
31
0
0
ARC
8
0
62
1
10
0
20
0
30
0
40
0
50
-358,178
51
1,69
0
LINE
8
0
62
1
10
2092,75
20
61,751
30
0
11
2092,75
21
6,751
31
0
0
LINE
8
0
62
1
10
2092,75
20
6,751
30
0
11
6,75
21
6,751
31
0
0
LINE
8
0
62
1
10
6,75
20
6,751
30
0
11
6,75
21
1768,75
31
0
0
LINE
8
0
62
1
10
6,75
20
1768,75
30
0
11
75,976
21
1768,75
31
0
0
ARC
8
0
62
1
10
0
20
0
30
0
40
0
50
-272,46
51
87,295
0
LINE
8
0
62
1
10
83,77
20
1773,25
30
0
11
137,752
21
1866,75
31
0
0
LINE
8
0
62
1
10
137,752
20
1866,75
30
0
11
570,5
21
1866,75
31
0
0
LINE
8
0
62
1
10
570,5
20
1866,75
30
0
11
570,5
21
1587,503
31
0
0
ARC
8
0
62
1
10
0
20
0
30
0
40
0
50
-289,767
51
69,738
0
ARC
8
0
62
1
10
0
20
0
30
0
40
0
50
-290,262
51
68,535
0
ARC
8
0
62
1
10
0
20
0
30
0
40
0
50
-291,465
51
66,688
0
ARC
8
0
62
1
10
0
20
0
30
0
40
0
50
-293,312
51
64,85
0
ARC
8
0
62
1
10
0
20
0
30
0
40
0
50
-295,15
51
62,635
0
ARC
8
0
62
1
10
0
20
0
30
0
40
0
50
62,438
51
62,635
0
LINE
8
0
62
1
10
796,613
20
1526,25
30
0
11
858,609
21
1526,25
31
0
0
ARC
8
0
62
1
10
0
20
0
30
0
40
0
50
-299,361
51
60,5
0
LINE
8
0
62
1
10
864,973
20
1528,886
30
0
11
873,115
21
1537,028
31
0
0
ARC
8
0
62
1
10
0
20
0
30
0
40
0
50
60,234
51
60,401
0
LINE
8
0
62
1
10
880,893
20
1540,25
30
0
11
1425,5
21
1540,25
31
0
0
LINE
8
0
62
1
10
1425,5
20
1540,25
30
0
11
1425,5
21
1503,5
31
0
0
LINE
8
0
62
1
10
1425,5
20
1503,5
30
0
11
1422,75
21
1503,5
31
0
0
ARC
8
0
62
1
10
0
20
0
30
0
40
0
50
46,58
51
46,584
0
LINE
8
0
62
1
10
1419,5
20
1500,25
30
0
11
1419,5
21
1492,75
31
0
0
ARC
8
0
62
1
10
0
20
0
30
0
40
0
50
-313,56
51
38,627
0
LINE
8
0
62
1
10
1618,75
20
1293,5
30
0
11
1971,75
21
1293,5
31
0
0
ARC
8
0
62
1
10
0
20
0
30
0
40
0
50
33,265
51
34,511
0
LINE
8
0
62
1
10
2171
20
1492,748
30
0
11
2171
21
1592,414
31
0
0
LINE
8
0
62
1
10
2171
20
1592,414
30
0
11
2197,336
21
1618,75
31
0
0
LINE
8
0
62
1
10
2197,336
20
1618,75
30
0
11
2966,165
21
1618,75
31
0
0
LINE
8
0
62
1
10
2966,165
20
1618,75
30
0
11
2992,75
21
1592,164
31
0
0
LINE
8
0
62
1
10
2992,75
20
1592,164
30
0
11
2992,75
21
71,75
31
0
0
ARC
8
0
62
1
10
0
20
0
30
0
40
0
50
1,279
51
1,373
0
LINE
8
0
62
1
10
2987,75
20
66,75
30
0
11
2957,5
21
66,75
31
0
0
ARC
8
0
62
1
10
0
20
0
30
0
40
0
50
-358,708
51
1,198
0
LINE
8
0
62
1
10
2952,5
20
61,75
30
0
11
2952,5
21
13,25
31
0
0
LINE
8
0
62
1
10
2952,5
20
13,25
30
0
11
2954,979
21
11,557
31
0
0
LINE
8
0
62
1
10
2954,979
20
11,557
30
0
11
2955,395
21
7,781
31
0
0
LINE
8
0
62
1
10
2955,395
20
7,781
30
0
11
3026,298
21
-0,001
31
0
0
LINE
8
0
62
1
10
3026,298
20
-0,001
30
0
11
3026,298
21
0,999
31
0
0
LINE
8
0
62
1
10
3026,298
20
0,999
30
0
11
3026,298
21
-0,001
31
0
0
LINE
8
0
62
1
10
3026,298
20
-0,001
30
0
11
3026,298
21
0,999
31
0
0
LINE
8
0
62
1
10
3026,298
20
0,999
30
0
11
3026,298
21
1646,664
31
0
0
LINE
8
0
62
1
10
3026,298
20
1646,664
30
0
11
618,457
21
1646,664
31
0
0
LINE
8
0
62
1
10
618,457
20
1646,664
30
0
11
618,457
21
1889,868
31
0
0
LINE
8
0
62
1
10
618,457
20
1889,868
30
0
11
1,001
21
1889,868
31
0
0
LINE
8
0
62
1
10
1,001
20
1889,868
30
0
11
0,001
21
1889,868
31
0
0
ENDSEC
0
EOF
