  0
SECTION
  2
HEADER
  9
$LIMMIN
 10
-150.000000
 20
-150.000000
  9
$LIMMAX
 10
150.000000
 20
150.000000
  9
$EXTMIN
 10
-150.000000
 20
-150.000000
  9
$EXTMAX
 10
150.000000
 20
150.000000
  0
ENDSEC
  0
SECTION
  2
TABLES
  0
TABLE
  2
LTYPE
 70
     1
  0
LTYPE
  2
CONTINUOUS
 70
    64
  3
Ausgezogene Linie
 72
    65
 73
     0
 40
0.0
  0
ENDTAB
  0
TABLE
  2
LAYER
 70
     1
  0
LAYER
  2
FREI
 70
    64
 62
     7
  6
CONTINUOUS
  0
ENDTAB
  0
TABLE
  2
STYLE
 70
     1
  0
STYLE
  2
TXT8
 70
    64
 40
0.0
 41
1.0
 50
0.0
 71
     0
 42
3.500000
  3
TXT8
  4

  0
ENDTAB
  0
ENDSEC
  0
SECTION
  2
BLOCKS
  0
ENDSEC
  0
SECTION
  2
ENTITIES
  0
LINE
  8
FREI
 62
     2
  6
CONTINUOUS
 10
10.000000
 20
77.459663
 11
10.000000
 21
97.979591
  0
LINE
  8
FREI
 62
     2
  6
CONTINUOUS
 10
77.459663
 20
10.000000
 11
97.979591
 21
10.000000
  0
ARC
  8
FREI
 62
     2
  6
CONTINUOUS
 10
0.000000
 20
0.000000
 40
70.000000
 50
14.477511
 51
75.522488
  0
ARC
  8
FREI
 62
     2
  6
CONTINUOUS
 10
0.000000
 20
0.000000
 40
110.000000
 50
11.536959
 51
78.463041
  0
ARC
  8
FREI
 62
     2
  6
CONTINUOUS
 10
20.000000
 20
97.979591
 40
10.000000
 50
78.463041
 51
180.000009
  0
ARC
  8
FREI
 62
     2
  6
CONTINUOUS
 10
20.000000
 20
77.459663
 40
10.000000
 50
180.000009
 51
255.522489
  0
ARC
  8
FREI
 62
     2
  6
CONTINUOUS
 10
77.459663
 20
20.000000
 40
10.000000
 50
194.477510
 51
269.999997
  0
ARC
  8
FREI
 62
     2
  6
CONTINUOUS
 10
97.979591
 20
20.000000
 40
10.000000
 50
269.999997
 51
11.536959
  0
LINE
  8
FREI
 62
     2
  6
CONTINUOUS
 10
-77.459663
 20
10.000000
 11
-97.979591
 21
10.000000
  0
LINE
  8
FREI
 62
     2
  6
CONTINUOUS
 10
-10.000000
 20
77.459663
 11
-10.000000
 21
97.979591
  0
ARC
  8
FREI
 62
     2
  6
CONTINUOUS
 10
0.000000
 20
0.000000
 40
70.000000
 50
104.477511
 51
165.522490
  0
ARC
  8
FREI
 62
     2
  6
CONTINUOUS
 10
0.000000
 20
0.000000
 40
110.000000
 50
101.536957
 51
168.463037
  0
ARC
  8
FREI
 62
     2
  6
CONTINUOUS
 10
-97.979591
 20
20.000000
 40
10.000000
 50
168.463037
 51
270.000004
  0
ARC
  8
FREI
 62
     2
  6
CONTINUOUS
 10
-77.459663
 20
20.000000
 40
10.000000
 50
270.000004
 51
345.522490
  0
ARC
  8
FREI
 62
     2
  6
CONTINUOUS
 10
-20.000000
 20
77.459663
 40
10.000000
 50
284.477512
 51
0.000000
  0
ARC
  8
FREI
 62
     2
  6
CONTINUOUS
 10
-20.000000
 20
97.979591
 40
10.000000
 50
0.000000
 51
101.536957
  0
LINE
  8
FREI
 62
     2
  6
CONTINUOUS
 10
-10.000000
 20
-77.459663
 11
-10.000000
 21
-97.979591
  0
LINE
  8
FREI
 62
     2
  6
CONTINUOUS
 10
-77.459663
 20
-10.000000
 11
-97.979591
 21
-10.000000
  0
ARC
  8
FREI
 62
     2
  6
CONTINUOUS
 10
0.000000
 20
0.000000
 40
70.000000
 50
194.477510
 51
255.522489
  0
ARC
  8
FREI
 62
     2
  6
CONTINUOUS
 10
0.000000
 20
0.000000
 40
110.000000
 50
191.536963
 51
258.463043
  0
ARC
  8
FREI
 62
     2
  6
CONTINUOUS
 10
-20.000000
 20
-97.979591
 40
10.000000
 50
258.463043
 51
0.000000
  0
ARC
  8
FREI
 62
     2
  6
CONTINUOUS
 10
-20.000000
 20
-77.459663
 40
10.000000
 50
0.000000
 51
75.522488
  0
ARC
  8
FREI
 62
     2
  6
CONTINUOUS
 10
-77.459663
 20
-20.000000
 40
10.000000
 50
14.477510
 51
89.999996
  0
ARC
  8
FREI
 62
     2
  6
CONTINUOUS
 10
-97.979591
 20
-20.000000
 40
10.000000
 50
89.999996
 51
191.536963
  0
LINE
  8
FREI
 62
     2
  6
CONTINUOUS
 10
77.459663
 20
-10.000000
 11
97.979591
 21
-10.000000
  0
LINE
  8
FREI
 62
     2
  6
CONTINUOUS
 10
10.000000
 20
-77.459663
 11
10.000000
 21
-97.979591
  0
ARC
  8
FREI
 62
     2
  6
CONTINUOUS
 10
0.000000
 20
0.000000
 40
70.000000
 50
284.477512
 51
345.522487
  0
ARC
  8
FREI
 62
     2
  6
CONTINUOUS
 10
0.000000
 20
0.000000
 40
110.000000
 50
281.536959
 51
348.463041
  0
ARC
  8
FREI
 62
     2
  6
CONTINUOUS
 10
97.979591
 20
-20.000000
 40
10.000000
 50
348.463041
 51
90.000003
  0
ARC
  8
FREI
 62
     2
  6
CONTINUOUS
 10
77.459663
 20
-20.000000
 40
10.000000
 50
90.000003
 51
165.522490
  0
ARC
  8
FREI
 62
     2
  6
CONTINUOUS
 10
20.000000
 20
-77.459663
 40
10.000000
 50
104.477511
 51
179.999991
  0
ARC
  8
FREI
 62
     2
  6
CONTINUOUS
 10
20.000000
 20
-97.979591
 40
10.000000
 50
179.999991
 51
281.536959
  0
CIRCLE
  8
FREI
 62
     2
  6
CONTINUOUS
 10
0.000000
 20
0.000000
 40
60.000000
  0
CIRCLE
  8
FREI
 62
     2
  6
CONTINUOUS
 10
0.000000
 20
0.000000
 40
150.000000
  0
TEXT
  8
FREI
 62
     4
  6
CONTINUOUS
 10
-23.795565
 20
135.211179
 40
3.500000
  7
TXT8
  1
Bauteilname:ETM
 50
0.000000
 51
-0.000003
 41
0.900000
  71
     0
  72
     5
 11
22.754437
 21
135.211179
  0
TEXT
  8
FREI
 62
     4
  6
CONTINUOUS
 10
-23.795565
 20
129.611172
 40
3.500000
  7
TXT8
  1
Material   :ST37-2
 50
0.000000
 51
-0.000003
 41
0.900000
  71
     0
  72
     5
 11
32.204436
 21
129.611172
  0
TEXT
  8
FREI
 62
     4
  6
CONTINUOUS
 10
-23.795565
 20
124.011182
 40
3.500000
  7
TXT8
  1
Dicke in mm:10
 50
0.000000
 51
-0.000003
 41
0.900000
  71
     0
  72
     5
 11
19.604437
 21
124.011182
  0
TEXT
  8
FREI
 62
     4
  6
CONTINUOUS
 10
-23.795565
 20
118.411176
 40
3.500000
  7
TXT8
  1
Gesamtstueckzahl:12
 50
0.000000
 51
-0.000003
 41
0.900000
  71
     0
  72
     5
 11
35.354436
 21
118.411176
  0
ENDSEC
  0
EOF
