  0
SECTION
  2
TABLES
  0
TABLE
  2
LTYPE
 70
     5
  0
LTYPE
  2
CONTINUOUS
 70
    64
  3
Solid line
 72
    65
 73
     0
 40
0.000000
  0
LTYPE
  2
VERDECKT
 70
    64
  3
- - - - - 
 72
    65
 73
     2
 40
0.375000
 49
0.250000
 49
-0.125000
  0
LTYPE
  2
STRICHPUNKT
 70
    64
  3
-- . -- . -- .
 72
    65
 73
     4
 40
1.000000
 49
0.500000
 49
-0.250000
 49
0.000000
 49
-0.250000
  0
LTYPE
  2
PUNKT
 70
    64
  3
. . . . .
 72
    65
 73
     2
 40
0.250000
 49
0.000000
 49
-0.250000
  0
LTYPE
  2
GESTRICHELT
 70
    64
  3
-- -- -- --
 72
    65
 73
     2
 40
0.750000
 49
0.500000
 49
-0.250000
  0
ENDTAB
  0
TABLE
  2
LAYER
 70
     6
  0
LAYER
  2
0
 70
     0
 62
     7
  6
CONTINUOUS
  0
ENDTAB
  0
ENDSEC
  0
SECTION
  2
BLOCKS
  0
BLOCK
  8
0
  2
*X1
 70
     1
 10
0.0
 20
0.0
  0
LINE
   8
0
  62
    4
  6
CONTINUOUS
  10
22.049999
  20
51.500000
  11
47.949999
  21
51.500000
  0
LINE
   8
0
  62
    4
  6
CONTINUOUS
  10
47.949999
  20
51.500000
  11
47.949999
  21
58.500000
  0
LINE
   8
0
  62
    4
  6
CONTINUOUS
  10
47.949999
  20
58.500000
  11
22.049999
  21
58.500000
  0
LINE
   8
0
  62
    4
  6
CONTINUOUS
  10
22.049999
  20
58.500000
  11
22.049999
  21
51.500000
  0
TEXT
   8
0
  62
    4
  6
CONTINUOUS
  10
22.749999
  20
53.250000
  40
3.500000
  1
D
  50
0.000000
  41
0.900000
  0
TEXT
   8
0
  62
    4
  6
CONTINUOUS
  10
25.899999
  20
53.250000
  40
3.500000
  1
r
  50
0.000000
  41
0.900000
  0
TEXT
   8
0
  62
    4
  6
CONTINUOUS
  10
29.049999
  20
53.250000
  40
3.500000
  1
e
  50
0.000000
  41
0.900000
  0
TEXT
   8
0
  62
    4
  6
CONTINUOUS
  10
32.199999
  20
53.250000
  40
3.500000
  1
h
  50
0.000000
  41
0.900000
  0
TEXT
   8
0
  62
    4
  6
CONTINUOUS
  10
35.349999
  20
53.250000
  40
3.500000
  1
e
  50
0.000000
  41
0.900000
  0
TEXT
   8
0
  62
    4
  6
CONTINUOUS
  10
38.499999
  20
53.250000
  40
3.500000
  1
r
  50
0.000000
  41
0.900000
  0
TEXT
   8
0
  62
    4
  6
CONTINUOUS
  10
41.649999
  20
53.250000
  40
3.500000
  1
e
  50
0.000000
  41
0.900000
  0
TEXT
   8
0
  62
    4
  6
CONTINUOUS
  10
44.799999
  20
53.250000
  40
3.500000
  1
i
  50
0.000000
  41
0.900000
  0
ENDBLK
  0
BLOCK
  8
0
  2
*X2
 70
     1
 10
0.0
 20
0.0
  0
LINE
   8
0
  62
    4
  6
CONTINUOUS
  10
15.200000
  20
41.500000
  11
34.800000
  21
41.500000
  0
LINE
   8
0
  62
    4
  6
CONTINUOUS
  10
34.800000
  20
41.500000
  11
34.800000
  21
48.500000
  0
LINE
   8
0
  62
    4
  6
CONTINUOUS
  10
34.800000
  20
48.500000
  11
15.200000
  21
48.500000
  0
LINE
   8
0
  62
    4
  6
CONTINUOUS
  10
15.200000
  20
48.500000
  11
15.200000
  21
41.500000
  0
TEXT
   8
0
  62
    4
  6
CONTINUOUS
  10
15.900000
  20
43.250000
  40
3.500000
  1
B
  50
0.000000
  41
0.900000
  0
TEXT
   8
0
  62
    4
  6
CONTINUOUS
  10
19.050000
  20
43.250000
  40
3.500000
  1
o
  50
0.000000
  41
0.900000
  0
TEXT
   8
0
  62
    4
  6
CONTINUOUS
  10
22.200000
  20
43.250000
  40
3.500000
  1
h
  50
0.000000
  41
0.900000
  0
TEXT
   8
0
  62
    4
  6
CONTINUOUS
  10
25.350000
  20
43.250000
  40
3.500000
  1
r
  50
0.000000
  41
0.900000
  0
TEXT
   8
0
  62
    4
  6
CONTINUOUS
  10
28.500000
  20
43.250000
  40
3.500000
  1
e
  50
0.000000
  41
0.900000
  0
TEXT
   8
0
  62
    4
  6
CONTINUOUS
  10
31.650000
  20
43.250000
  40
3.500000
  1
n
  50
0.000000
  41
0.900000
  0
ENDBLK
  0
BLOCK
  8
0
  2
*X3
 70
     1
 10
0.0
 20
0.0
  0
LINE
   8
0
  62
    3
  6
CONTINUOUS
  10
71.025002
  20
56.500000
  11
118.975002
  21
56.500000
  0
LINE
   8
0
  62
    3
  6
CONTINUOUS
  10
118.975002
  20
56.500000
  11
118.975002
  21
63.500000
  0
LINE
   8
0
  62
    3
  6
CONTINUOUS
  10
118.975002
  20
63.500000
  11
71.025002
  21
63.500000
  0
LINE
   8
0
  62
    3
  6
CONTINUOUS
  10
71.025002
  20
63.500000
  11
71.025002
  21
56.500000
  0
TEXT
   8
0
  62
    3
  6
CONTINUOUS
  10
71.725002
  20
58.250000
  40
3.500000
  1
M
  50
0.000000
  41
0.900000
  0
TEXT
   8
0
  62
    3
  6
CONTINUOUS
  10
74.875002
  20
58.250000
  40
3.500000
  1
Bauteilname:XYZ
  50
0.000000
  41
0.900000
  0
TEXT
   8
0
  62
    3
  6
CONTINUOUS
  10
78.025002
  20
58.250000
  40
3.500000
  1
t
  50
0.000000
  41
0.900000
  0
TEXT
   8
0
  62
    3
  6
CONTINUOUS
  10
81.175002
  20
58.250000
  40
3.500000
  1
e
  50
0.000000
  41
0.900000
  0
TEXT
   8
0
  62
    3
  6
CONTINUOUS
  10
84.325002
  20
58.250000
  40
3.500000
  1
r
  50
0.000000
  41
0.900000
  0
TEXT
   8
0
  62
    3
  6
CONTINUOUS
  10
87.475002
  20
58.250000
  40
3.500000
  1
i
  50
0.000000
  41
0.900000
  0
TEXT
   8
0
  62
    3
  6
CONTINUOUS
  10
90.625002
  20
58.250000
  40
3.500000
  1
a
  50
0.000000
  41
0.900000
  0
TEXT
   8
0
  62
    3
  6
CONTINUOUS
  10
93.775002
  20
58.250000
  40
3.500000
  1
l
  50
0.000000
  41
0.900000
  0
TEXT
   8
0
  62
    3
  6
CONTINUOUS
  10
96.925002
  20
58.250000
  40
3.500000
  1
:
  50
0.000000
  41
0.900000
  0
TEXT
   8
0
  62
    3
  6
CONTINUOUS
  10
100.075002
  20
58.250000
  40
3.500000
  1
s
  50
0.000000
  41
0.900000
  0
TEXT
   8
0
  62
    3
  6
CONTINUOUS
  10
103.225002
  20
58.250000
  40
3.500000
  1
t
  50
0.000000
  41
0.900000
  0
TEXT
   8
0
  62
    3
  6
CONTINUOUS
  10
106.375002
  20
58.250000
  40
3.500000
  1
3
  50
0.000000
  41
0.900000
  0
TEXT
   8
0
  62
    3
  6
CONTINUOUS
  10
109.525002
  20
58.250000
  40
3.500000
  1
7
  50
0.000000
  41
0.900000
  0
TEXT
   8
0
  62
    3
  6
CONTINUOUS
  10
112.675002
  20
58.250000
  40
3.500000
  1
-
  50
0.000000
  41
0.900000
  0
TEXT
   8
0
  62
    3
  6
CONTINUOUS
  10
115.825002
  20
58.250000
  40
3.500000
  1
2
  50
0.000000
  41
0.900000
  0
ENDBLK
  0
BLOCK
  8
0
  2
*X4
 70
     1
 10
0.0
 20
0.0
  0
LINE
   8
0
  62
    3
  6
CONTINUOUS
  10
73.500000
  20
40.000000
  11
75.000000
  21
40.000000
  0
LINE
   8
0
  62
    3
  6
CONTINUOUS
  10
70.000000
  20
40.000000
  11
73.500000
  21
40.000000
  0
LINE
   8
0
  62
    3
  6
CONTINUOUS
  10
70.000000
  20
40.000000
  11
73.500000
  21
40.700000
  0
LINE
   8
0
  62
    3
  6
CONTINUOUS
  10
73.500000
  20
40.700000
  11
73.500000
  21
39.300000
  0
LINE
   8
0
  62
    3
  6
CONTINUOUS
  10
73.500000
  20
39.300000
  11
70.000000
  21
40.000000
  0
LINE
   8
0
  62
    3
  6
CONTINUOUS
  10
75.000000
  20
36.500000
  11
107.200001
  21
36.500000
  0
LINE
   8
0
  62
    3
  6
CONTINUOUS
  10
107.200001
  20
36.500000
  11
107.200001
  21
43.500000
  0
LINE
   8
0
  62
    3
  6
CONTINUOUS
  10
107.200001
  20
43.500000
  11
75.000000
  21
43.500000
  0
LINE
   8
0
  62
    3
  6
CONTINUOUS
  10
75.000000
  20
43.500000
  11
75.000000
  21
36.500000
  0
TEXT
   8
0
  62
    3
  6
CONTINUOUS
  10
75.700000
  20
38.250000
  40
3.500000
  1
2
  50
0.000000
  41
0.900000
  0
TEXT
   8
0
  62
    3
  6
CONTINUOUS
  10
78.850000
  20
38.250000
  40
3.500000
  1
5
  50
0.000000
  41
0.900000
  0
TEXT
   8
0
  62
    3
  6
CONTINUOUS
  10
82.000000
  20
38.250000
  40
3.500000
  1
 
  50
0.000000
  41
0.900000
  0
TEXT
   8
0
  62
    3
  6
CONTINUOUS
  10
85.150000
  20
38.250000
  40
3.500000
  1
m
  50
0.000000
  41
0.900000
  0
TEXT
   8
0
  62
    3
  6
CONTINUOUS
  10
88.300000
  20
38.250000
  40
3.500000
  1
m
  50
0.000000
  41
0.900000
  0
TEXT
   8
0
  62
    3
  6
CONTINUOUS
  10
91.450000
  20
38.250000
  40
3.500000
  1
 
  50
0.000000
  41
0.900000
  0
TEXT
   8
0
  62
    3
  6
CONTINUOUS
  10
94.600000
  20
38.250000
  40
3.500000
  1
D
  50
0.000000
  41
0.900000
  0
TEXT
   8
0
  62
    3
  6
CONTINUOUS
  10
97.750000
  20
38.250000
  40
3.500000
  1
i
  50
0.000000
  41
0.900000
  0
TEXT
   8
0
  62
    3
  6
CONTINUOUS
  10
100.900000
  20
38.250000
  40
3.500000
  1
c
  50
0.000000
  41
0.900000
  0
TEXT
   8
0
  62
    3
  6
CONTINUOUS
  10
104.050000
  20
38.250000
  40
3.500000
  1
k
  50
0.000000
  41
0.900000
  0
ENDBLK
  0
BLOCK
  8
0
  2
*X5
 70
     1
 10
0.0
 20
0.0
  0
LINE
   8
0
  62
    3
  6
CONTINUOUS
  10
78.500000
  20
25.000000
  11
85.000000
  21
25.000000
  0
LINE
   8
0
  62
    3
  6
CONTINUOUS
  10
75.000000
  20
25.000000
  11
78.500000
  21
25.000000
  0
LINE
   8
0
  62
    3
  6
CONTINUOUS
  10
75.000000
  20
25.000000
  11
78.500000
  21
25.700000
  0
LINE
   8
0
  62
    3
  6
CONTINUOUS
  10
78.500000
  20
25.700000
  11
78.500000
  21
24.300000
  0
LINE
   8
0
  62
    3
  6
CONTINUOUS
  10
78.500000
  20
24.300000
  11
75.000000
  21
25.000000
  0
LINE
   8
0
  62
    3
  6
CONTINUOUS
  10
85.000000
  20
21.500000
  11
123.500000
  21
21.500000
  0
LINE
   8
0
  62
    3
  6
CONTINUOUS
  10
123.500000
  20
21.500000
  11
123.500000
  21
28.500000
  0
LINE
   8
0
  62
    3
  6
CONTINUOUS
  10
123.500000
  20
28.500000
  11
85.000000
  21
28.500000
  0
LINE
   8
0
  62
    3
  6
CONTINUOUS
  10
85.000000
  20
28.500000
  11
85.000000
  21
21.500000
  0
TEXT
   8
0
  62
    3
  6
CONTINUOUS
  10
85.700000
  20
23.250000
  40
3.500000
  1
T
  50
0.000000
  41
0.900000
  0
TEXT
   8
0
  62
    3
  6
CONTINUOUS
  10
88.850000
  20
23.250000
  40
3.500000
  1
e
  50
0.000000
  41
0.900000
  0
TEXT
   8
0
  62
    3
  6
CONTINUOUS
  10
92.000000
  20
23.250000
  40
3.500000
  1
r
  50
0.000000
  41
0.900000
  0
TEXT
   8
0
  62
    3
  6
CONTINUOUS
  10
95.150000
  20
23.250000
  40
3.500000
  1
m
  50
0.000000
  41
0.900000
  0
TEXT
   8
0
  62
    3
  6
CONTINUOUS
  10
98.300000
  20
23.250000
  40
3.500000
  1
i
  50
0.000000
  41
0.900000
  0
TEXT
   8
0
  62
    3
  6
CONTINUOUS
  10
101.450000
  20
23.250000
  40
3.500000
  1
n
  50
0.000000
  41
0.900000
  0
TEXT
   8
0
  62
    3
  6
CONTINUOUS
  10
104.600000
  20
23.250000
  40
3.500000
  1
 
  50
0.000000
  41
0.900000
  0
TEXT
   8
0
  62
    3
  6
CONTINUOUS
  10
107.750000
  20
23.250000
  40
3.500000
  1
4
  50
0.000000
  41
0.900000
  0
TEXT
   8
0
  62
    3
  6
CONTINUOUS
  10
110.900000
  20
23.250000
  40
3.500000
  1
8
  50
0.000000
  41
0.900000
  0
TEXT
   8
0
  62
    3
  6
CONTINUOUS
  10
114.050000
  20
23.250000
  40
3.500000
  1
.
  50
0.000000
  41
0.900000
  0
TEXT
   8
0
  62
    3
  6
CONTINUOUS
  10
117.200000
  20
23.250000
  40
3.500000
  1
K
  50
0.000000
  41
0.900000
  0
TEXT
   8
0
  62
    3
  6
CONTINUOUS
  10
120.350000
  20
23.250000
  40
3.500000
  1
W
  50
0.000000
  41
0.900000
  0
ENDBLK
  0
ENDSEC
  0
SECTION
  2
ENTITIES
  0
ARC
   8
0
  62
    2
  6
CONTINUOUS
  10
400.000000
  20
99.500000
  40
30.000000
  50
212.000005
  51
20.755065
  0
ARC
   8
0
  62
    2
  6
CONTINUOUS
  10
350.000000
  20
175.000000
  40
50.000000
  50
20.755065
  51
163.944539
  0
LINE
   8
0
  62
    2
  6
CONTINUOUS
  10
173.445999
  20
91.000000
  11
0.000000
  21
91.000000
  0
LINE
   8
0
  62
    2
  6
CONTINUOUS
  10
0.000000
  20
91.000000
  11
0.000000
  21
0.000000
  0
LINE
   8
0
  62
    2
  6
CONTINUOUS
  10
0.000000
  20
0.000000
  11
168.900742
  21
0.000000
  0
LINE
   8
0
  62
    2
  6
CONTINUOUS
  10
184.970428
  20
5.848889
  11
327.119202
  21
125.125870
  0
LINE
   8
0
  62
    2
  6
CONTINUOUS
  10
374.558563
  20
83.602417
  11
350.972565
  21
121.347870
  0
ARC
   8
0
  62
    2
  6
CONTINUOUS
  10
252.560165
  20
161.841721
  40
40.000000
  50
290.647598
  51
343.944536
  0
LINE
   8
0
  62
    2
  6
CONTINUOUS
  10
182.261475
  20
92.605827
  11
266.664917
  21
124.411041
  0
LINE
   8
0
  62
    2
  6
CONTINUOUS
  10
290.999939
  20
150.779022
  11
301.950287
  21
188.828369
  0
LINE
   8
0
  62
    2
  6
CONTINUOUS
  10
428.053131
  20
110.131203
  11
396.755188
  21
192.718674
  0
ARC
   8
0
  62
    2
  6
CONTINUOUS
  10
337.403809
  20
112.869164
  40
16.000000
  50
32.000010
  51
130.000001
  0
ARC
   8
0
  62
    1
  6
CONTINUOUS
  10
350.000000
  20
175.000000
  40
20.000000
  50
30.349382
  51
181.748264
  0
ARC
   8
0
  62
    1
  6
CONTINUOUS
  10
350.000000
  20
175.000000
  40
20.000000
  50
183.053527
  51
216.679777
  0
ARC
   8
0
  62
    1
  6
CONTINUOUS
  10
400.000000
  20
99.500000
  40
15.000000
  50
216.679777
  51
30.349382
  0
LINE
   8
0
  62
    1
  6
CONTINUOUS
  10
412.944397
  20
107.079079
  11
367.259216
  21
185.105438
  0
LINE
   8
0
  62
    1
  6
CONTINUOUS
  10
333.960266
  20
163.053162
  11
387.970215
  21
90.539871
  0
ARC
   8
0
  62
    2
  6
CONTINUOUS
  10
173.445999
  20
116.000000
  40
25.000000
  50
269.999997
  51
290.647598
  0
ARC
   8
0
  62
    2
  6
CONTINUOUS
  10
168.900742
  20
25.000000
  40
25.000000
  50
269.999997
  51
310.000000
  0
INSERT
  8
0
  2
*X1
 10
0.000000
 20
0.000000
  0
INSERT
  8
0
  2
*X2
 10
0.000000
 20
0.000000
  0
INSERT
  8
0
  2
*X3
 10
0.000000
 20
0.000000
  0
INSERT
  8
0
  2
*X4
 10
0.000000
 20
0.000000
  0
INSERT
  8
0
  2
*X5
 10
0.000000
 20
0.000000
  0
ENDSEC
  0
EOF
