  0
SECTION
  2
HEADER
  9
$ACADVER
  1
AC1006
  9
$DWGCODEPAGE
  3
ansi_1252
  9
$INSBASE
 10
0.0
 20
0.0
 30
0.0
  9
$EXTMIN
 10
1.0000000000E+20
 20
1.0000000000E+20
  9
$EXTMAX
 10
-1.0000000000E+20
 20
-1.0000000000E+20
  9
$LIMMIN
 10
0.0
 20
0.0
  9
$LIMMAX
 10
420.0
 20
297.0
  9
$ORTHOMODE
 70
     0
  9
$REGENMODE
 70
     1
  9
$FILLMODE
 70
     1
  9
$QTEXTMODE
 70
     0
  9
$MIRRTEXT
 70
     1
  9
$DRAGMODE
 70
     2
  9
$LTSCALE
 40
1.0
  9
$OSMODE
 70
    37
  9
$ATTMODE
 70
     1
  9
$TEXTSIZE
 40
2.5
  9
$TRACEWID
 40
1.0
  9
$TEXTSTYLE
  7
STANDARD
  9
$CLAYER
  8
0
  9
$CELTYPE
  6
BYLAYER
  9
$CECOLOR
 62
   256
  9
$DIMSCALE
 40
1.0
  9
$DIMASZ
 40
2.5
  9
$DIMEXO
 40
0.625
  9
$DIMDLI
 40
3.75
  9
$DIMRND
 40
0.0
  9
$DIMDLE
 40
0.0
  9
$DIMEXE
 40
1.25
  9
$DIMTP
 40
0.0
  9
$DIMTM
 40
0.0
  9
$DIMTXT
 40
2.5
  9
$DIMCEN
 40
2.5
  9
$DIMTSZ
 40
0.0
  9
$DIMTOL
 70
     0
  9
$DIMLIM
 70
     0
  9
$DIMTIH
 70
     0
  9
$DIMTOH
 70
     0
  9
$DIMSE1
 70
     0
  9
$DIMSE2
 70
     0
  9
$DIMTAD
 70
     1
  9
$DIMZIN
 70
     8
  9
$DIMBLK
  1

  9
$DIMASO
 70
     1
  9
$DIMSHO
 70
     1
  9
$DIMPOST
  1

  9
$DIMAPOST
  1

  9
$DIMALT
 70
     0
  9
$DIMALTD
 70
     3
  9
$DIMALTF
 40
0.0393700787
  9
$DIMLFAC
 40
1.0
  9
$DIMTOFL
 70
     1
  9
$DIMTVP
 40
0.0
  9
$DIMTIX
 70
     0
  9
$DIMSOXD
 70
     0
  9
$DIMSAH
 70
     0
  9
$DIMBLK1
  1

  9
$DIMBLK2
  1

  9
$LUNITS
 70
     2
  9
$LUPREC
 70
     4
  9
$SKETCHINC
 40
1.0
  9
$FILLETRAD
 40
10.0
  9
$AUNITS
 70
     0
  9
$AUPREC
 70
     0
  9
$MENU
  1
.
  9
$ELEVATION
 40
0.0
  9
$THICKNESS
 40
0.0
  9
$LIMCHECK
 70
     0
  9
$CHAMFERA
 40
0.0
  9
$CHAMFERB
 40
0.0
  9
$SKPOLY
 70
     0
  9
$TDCREATE
 40
2457364.076189595
  9
$TDUPDATE
 40
2457364.076189641
  9
$TDINDWG
 40
0.0000000116
  9
$TDUSRTIMER
 40
0.0000000116
  9
$USRTIMER
 70
     1
  9
$ANGBASE
 50
0.0
  9
$ANGDIR
 70
     0
  9
$PDMODE
 70
     0
  9
$PDSIZE
 40
0.0
  9
$PLINEWID
 40
0.0
  9
$COORDS
 70
     1
  9
$SPLFRAME
 70
     0
  9
$SPLINETYPE
 70
     6
  9
$SPLINESEGS
 70
     8
  9
$ATTDIA
 70
     0
  9
$ATTREQ
 70
     1
  9
$HANDLING
 70
     1
  9
$HANDSEED
  5
165
  9
$SURFTAB1
 70
     6
  9
$SURFTAB2
 70
     6
  9
$SURFTYPE
 70
     6
  9
$SURFU
 70
     6
  9
$SURFV
 70
     6
  9
$UCSNAME
  2

  9
$UCSORG
 10
0.0
 20
0.0
 30
0.0
  9
$UCSXDIR
 10
1.0
 20
0.0
 30
0.0
  9
$UCSYDIR
 10
0.0
 20
1.0
 30
0.0
  9
$USERI1
 70
     0
  9
$USERI2
 70
     0
  9
$USERI3
 70
     0
  9
$USERI4
 70
     0
  9
$USERI5
 70
     0
  9
$USERR1
 40
0.0
  9
$USERR2
 40
0.0
  9
$USERR3
 40
0.0
  9
$USERR4
 40
0.0
  9
$USERR5
 40
0.0
  9
$WORLDVIEW
 70
     1
  0
ENDSEC
  0
SECTION
  2
TABLES
  0
TABLE
  2
VPORT
 70
     1
  0
VPORT
  2
*ACTIVE
 70
     0
 10
0.0
 20
0.0
 11
1.0
 21
1.0
 12
79.4423664932
 22
33.3265492049
 13
0.0
 23
0.0
 14
10.0
 24
10.0
 15
10.0
 25
10.0
 16
0.0
 26
0.0
 36
1.0
 17
0.0
 27
0.0
 37
0.0
 40
157.109184227
 41
1.4440052701
 42
50.0
 43
0.0
 44
0.0
 50
0.0
 51
0.0
 71
     0
 72
 20000
 73
     1
 74
     3
 75
     0
 76
     0
 77
     0
 78
     0
  0
ENDTAB
  0
TABLE
  2
LTYPE
 70
     8
  0
LTYPE
  2
CONTINUOUS
 70
     0
  3
Solid line
 72
    65
 73
     0
 40
0.0
  0
LTYPE
  2
HIDDEN
 70
     0
  3
 _ _ _ _ _ _ _ _ _ _ _
 72
    65
 73
     2
 40
0.375
 49
0.25
 49
-0.125
  0
LTYPE
  2
DASHED
 70
     0
  3
 ___ ___ ___ ___ ___ ___ ___ 
 72
    65
 73
     2
 40
0.75
 49
0.5
 49
-0.25
  0
LTYPE
  2
CENTER
 70
     0
  3
___ _ ___ _ ___ _ ___
 72
    65
 73
     4
 40
2.0
 49
1.25
 49
-0.25
 49
0.25
 49
-0.25
  0
LTYPE
  2
BORDER
 70
     0
  3
___ ___ . ___ ___ . ___ ___
 72
    65
 73
     6
 40
1.75
 49
0.5
 49
-0.25
 49
0.5
 49
-0.25
 49
0.0
 49
-0.25
  0
LTYPE
  2
DOT
 70
     0
  3
.................
 72
    65
 73
     2
 40
0.25
 49
0.0
 49
-0.25
  0
LTYPE
  2
DASHDOT
 70
     0
  3
__ . __ . __ . __
 72
    65
 73
     4
 40
1.0
 49
0.5
 49
-0.25
 49
0.0
 49
-0.25
  0
LTYPE
  2
DIVIDE
 70
     0
  3
___ .. ___ .. ___ .. ___
 72
    65
 73
     6
 40
1.25
 49
0.5
 49
-0.25
 49
0.0
 49
-0.25
 49
0.0
 49
-0.25
  0
ENDTAB
  0
TABLE
  2
LAYER
 70
     9
  0
LAYER
  2
0
 70
     0
 62
     7
  6
CONTINUOUS
  0
LAYER
  2
BLACK
 70
     0
 62
     1
  6
CONTINUOUS
  0
LAYER
  2
WHITE
 70
     0
 62
     7
  6
CONTINUOUS
  0
LAYER
  2
RED
 70
     0
 62
     1
  6
CONTINUOUS
  0
LAYER
  2
YELLOW
 70
     0
 62
     2
  6
CONTINUOUS
  0
LAYER
  2
GREEN
 70
     0
 62
     3
  6
CONTINUOUS
  0
LAYER
  2
CYAN
 70
     0
 62
     4
  6
CONTINUOUS
  0
LAYER
  2
BLUE
 70
     0
 62
     5
  6
CONTINUOUS
  0
LAYER
  2
MAGENTA
 70
     0
 62
     6
  6
CONTINUOUS
  0
ENDTAB
  0
TABLE
  2
STYLE
 70
     1
  0
STYLE
  2
STANDARD
 70
     0
 40
0.0
 41
1.0
 50
0.0
 71
     0
 42
0.0
  3
txt.shx
  4

  0
ENDTAB
  0
TABLE
  2
VIEW
 70
     0
  0
ENDTAB
  0
TABLE
  2
UCS
 70
     0
  0
ENDTAB
  0
ENDSEC
  0
SECTION
  2
BLOCKS
  0
ENDSEC
  0
SECTION
  2
ENTITIES
  0
ARC
  5
7A
  8
WHITE
  6
CONTINUOUS
 10
29.017023
 20
70.530186
 30
0.0
 40
3.875199
 50
194.665707
 51
259.734329
  0
ARC
  5
7B
  8
WHITE
  6
CONTINUOUS
 10
28.238613
 20
55.127418
 30
0.0
 40
11.589936
 50
58.659514
 51
89.565948
  0
ARC
  5
7C
  8
WHITE
  6
CONTINUOUS
 10
16.115009
 20
66.193552
 30
0.0
 40
18.189286
 50
356.320608
 51
52.764835
  0
ARC
  5
7D
  8
WHITE
  6
CONTINUOUS
 10
12.557831
 20
65.365371
 30
0.0
 40
21.130018
 50
46.431366
 51
104.266647
  0
ARC
  5
7E
  8
WHITE
  6
CONTINUOUS
 10
-3.793283
 20
62.277414
 30
0.0
 40
26.068342
 50
31.038588
 51
64.691662
  0
ARC
  5
7F
  8
WHITE
  6
CONTINUOUS
 10
1.201798
 20
66.499516
 30
0.0
 40
19.63914
 50
1.313448
 51
27.997076
  0
ARC
  5
80
  8
WHITE
  6
CONTINUOUS
 10
20.615472
 20
71.604292
 30
0.0
 40
4.659819
 50
272.709816
 51
335.517323
  0
LINE
  5
81
  8
WHITE
  6
CONTINUOUS
 10
24.85631
 20
69.673179
 30
0.0
 11
25.26808
 21
69.549067
 31
0.0
  0
ARC
  5
82
  8
WHITE
  6
CONTINUOUS
 10
14.77993
 20
51.201403
 30
0.0
 40
7.532166
 50
198.969502
 51
287.578116
  0
ARC
  5
83
  8
WHITE
  6
CONTINUOUS
 10
16.603708
 20
46.777301
 30
0.0
 40
2.793008
 50
279.292086
 51
16.200002
  0
ARC
  5
84
  8
WHITE
  6
CONTINUOUS
 10
19.349195
 20
51.383172
 30
0.0
 40
3.827171
 50
269.051123
 51
351.100497
  0
ARC
  5
85
  8
WHITE
  6
CONTINUOUS
 10
21.196853
 20
72.127076
 30
0.0
 40
21.423398
 50
255.35724
 51
275.177927
  0
ARC
  5
86
  8
WHITE
  6
CONTINUOUS
 10
23.811382
 20
74.370874
 30
0.0
 40
24.334505
 50
196.973118
 51
250.731736
  0
ARC
  5
87
  8
WHITE
  6
CONTINUOUS
 10
22.517888
 20
62.379439
 30
0.0
 40
22.517888
 50
167.463848
 51
207.773356
  0
ARC
  5
88
  8
WHITE
  6
CONTINUOUS
 10
7.946427
 20
54.877269
 30
0.0
 40
6.131152
 50
209.194289
 51
267.292631
  0
ARC
  5
89
  8
WHITE
  6
CONTINUOUS
 10
15.245395
 20
61.548087
 30
0.0
 40
4.99902
 50
51.018181
 51
85.947723
  0
ARC
  5
8A
  8
WHITE
  6
CONTINUOUS
 10
14.469428
 20
73.515559
 30
0.0
 40
7.071691
 50
229.338821
 51
279.188513
  0
ARC
  5
8B
  8
WHITE
  6
CONTINUOUS
 10
17.093743
 20
73.516732
 30
0.0
 40
9.005171
 50
194.69554
 51
216.572122
  0
ARC
  5
8C
  8
WHITE
  6
CONTINUOUS
 10
4.518422
 20
75.941456
 30
0.0
 40
6.092005
 50
235.469708
 51
309.375057
  0
ARC
  5
8D
  8
WHITE
  6
CONTINUOUS
 10
-11.90693
 20
80.575756
 30
0.0
 40
16.169667
 50
323.3457
 51
346.996018
  0
ARC
  5
8E
  8
WHITE
  6
CONTINUOUS
 10
-4.530559
 20
78.751152
 30
0.0
 40
8.572709
 50
347.784624
 51
31.584697
  0
LINE
  5
8F
  8
WHITE
  6
CONTINUOUS
 10
2.772247
 20
83.24118
 30
0.0
 11
1.236677
 21
85.675824
 31
0.0
  0
ARC
  5
90
  8
WHITE
  6
CONTINUOUS
 10
-5.439474
 20
62.270714
 30
0.0
 40
24.338656
 50
12.732061
 51
74.079556
  0
ARC
  5
91
  8
WHITE
  6
CONTINUOUS
 10
11.795645
 20
66.268273
 30
0.0
 40
6.647058
 50
352.790248
 51
11.863321
  0
ARC
  5
92
  8
WHITE
  6
CONTINUOUS
 10
20.986063
 20
49.525425
 30
0.0
 40
37.127358
 50
61.542814
 51
88.683597
  0
ARC
  5
93
  8
WHITE
  6
CONTINUOUS
 10
12.97308
 20
64.244234
 30
0.0
 40
24.089598
 50
3.645061
 51
68.405224
  0
ARC
  5
94
  8
WHITE
  6
CONTINUOUS
 10
36.040053
 20
70.209351
 30
0.0
 40
4.539314
 50
282.388906
 51
19.639402
  0
ARC
  5
95
  8
WHITE
  6
CONTINUOUS
 10
39.736466
 20
76.513502
 30
0.0
 40
4.813421
 50
276.906777
 51
315.290458
  0
ARC
  5
96
  8
WHITE
  6
CONTINUOUS
 10
44.369877
 20
73.070483
 30
0.0
 40
1.213924
 50
120.605398
 51
177.322139
  0
ARC
  5
97
  8
WHITE
  6
CONTINUOUS
 10
38.354087
 20
75.424011
 30
0.0
 40
5.55414
 50
346.371357
 51
44.771705
  0
ARC
  5
98
  8
WHITE
  6
CONTINUOUS
 10
25.49222
 20
61.579231
 30
0.0
 40
24.447809
 50
46.577191
 51
57.362894
  0
LINE
  5
99
  8
WHITE
  6
CONTINUOUS
 10
14.416407
 20
18.038725
 30
0.0
 11
0.394215
 21
18.041936
 31
0.0
  0
LINE
  5
9A
  8
WHITE
  6
CONTINUOUS
 10
0.394215
 20
18.041936
 30
0.0
 11
0.390903
 21
3.579071
 31
0.0
  0
LINE
  5
9B
  8
WHITE
  6
CONTINUOUS
 10
0.390903
 20
3.579071
 30
0.0
 11
2.740565
 21
0.0
 31
0.0
  0
LINE
  5
9C
  8
WHITE
  6
CONTINUOUS
 10
2.740565
 20
0.0
 30
0.0
 11
5.453599
 21
3.577912
 31
0.0
  0
LINE
  5
9D
  8
WHITE
  6
CONTINUOUS
 10
5.453599
 20
3.577912
 30
0.0
 11
5.455856
 21
13.436463
 31
0.0
  0
LINE
  5
9E
  8
WHITE
  6
CONTINUOUS
 10
5.455856
 20
13.436463
 30
0.0
 11
14.415353
 21
13.434412
 31
0.0
  0
LINE
  5
9F
  8
WHITE
  6
CONTINUOUS
 10
14.415353
 20
13.434412
 30
0.0
 11
18.398682
 21
15.735656
 31
0.0
  0
LINE
  5
A0
  8
WHITE
  6
CONTINUOUS
 10
18.398682
 20
15.735656
 30
0.0
 11
14.416407
 21
18.038725
 31
0.0
  0
LINE
  5
A1
  8
WHITE
  6
CONTINUOUS
 10
59.107519
 20
14.549104
 30
0.0
 11
73.129712
 21
14.545894
 31
0.0
  0
LINE
  5
A2
  8
WHITE
  6
CONTINUOUS
 10
73.129712
 20
14.545894
 30
0.0
 11
73.133023
 21
29.008758
 31
0.0
  0
LINE
  5
A3
  8
WHITE
  6
CONTINUOUS
 10
73.133023
 20
29.008758
 30
0.0
 11
70.783362
 21
32.587829
 31
0.0
  0
LINE
  5
A4
  8
WHITE
  6
CONTINUOUS
 10
70.783362
 20
32.587829
 30
0.0
 11
68.070327
 21
29.009917
 31
0.0
  0
LINE
  5
A5
  8
WHITE
  6
CONTINUOUS
 10
68.070327
 20
29.009917
 30
0.0
 11
68.06807
 21
19.151366
 31
0.0
  0
LINE
  5
A6
  8
WHITE
  6
CONTINUOUS
 10
68.06807
 20
19.151366
 30
0.0
 11
59.108574
 21
19.153417
 31
0.0
  0
LINE
  5
A7
  8
WHITE
  6
CONTINUOUS
 10
59.108574
 20
19.153417
 30
0.0
 11
55.125244
 21
16.852173
 31
0.0
  0
LINE
  5
A8
  8
WHITE
  6
CONTINUOUS
 10
55.125244
 20
16.852173
 30
0.0
 11
59.107519
 21
14.549104
 31
0.0
  0
LINE
  5
A9
  8
WHITE
  6
CONTINUOUS
 10
68.081891
 20
73.631646
 30
0.0
 11
68.081891
 21
87.653839
 31
0.0
  0
LINE
  5
AA
  8
WHITE
  6
CONTINUOUS
 10
68.081891
 20
87.653839
 30
0.0
 11
82.544755
 21
87.653839
 31
0.0
  0
LINE
  5
AB
  8
WHITE
  6
CONTINUOUS
 10
82.544755
 20
87.653839
 30
0.0
 11
86.123288
 21
85.303358
 31
0.0
  0
LINE
  5
AC
  8
WHITE
  6
CONTINUOUS
 10
86.123288
 20
85.303358
 30
0.0
 11
82.544755
 21
82.591142
 31
0.0
  0
LINE
  5
AD
  8
WHITE
  6
CONTINUOUS
 10
82.544755
 20
82.591142
 30
0.0
 11
72.686204
 21
82.591142
 31
0.0
  0
LINE
  5
AE
  8
WHITE
  6
CONTINUOUS
 10
72.686204
 20
82.591142
 30
0.0
 11
72.686204
 21
73.631646
 31
0.0
  0
LINE
  5
AF
  8
WHITE
  6
CONTINUOUS
 10
72.686204
 20
73.631646
 30
0.0
 11
70.384047
 21
69.648843
 31
0.0
  0
LINE
  5
B0
  8
WHITE
  6
CONTINUOUS
 10
70.384047
 20
69.648843
 30
0.0
 11
68.081891
 21
73.631646
 31
0.0
  0
ARC
  5
B1
  8
WHITE
  6
CONTINUOUS
 10
22.847479
 20
72.690969
 30
0.0
 40
20.333391
 50
195.135581
 51
263.479304
  0
ARC
  5
B2
  8
WHITE
  6
CONTINUOUS
 10
6.068049
 20
74.203046
 30
0.0
 40
7.39212
 50
247.334062
 51
283.079195
  0
ARC
  5
B3
  8
WHITE
  6
CONTINUOUS
 10
16.507283
 20
73.998953
 30
0.0
 40
11.215958
 50
218.592516
 51
257.246101
  0
ARC
  5
B4
  8
WHITE
  6
CONTINUOUS
 10
14.873469
 20
73.273745
 30
0.0
 40
10.248691
 50
265.285969
 51
281.607961
  0
ARC
  5
B5
  8
WHITE
  6
CONTINUOUS
 10
14.787494
 20
62.889895
 30
0.0
 40
2.175647
 50
299.990852
 51
9.118035
  0
ARC
  5
B6
  8
WHITE
  6
CONTINUOUS
 10
15.286775
 20
55.594073
 30
0.0
 40
5.443361
 50
39.424312
 51
83.796165
  0
LINE
  5
B7
  8
WHITE
  6
CONTINUOUS
 10
19.491576
 20
59.050925
 30
0.0
 11
20.691749
 21
56.434423
 31
0.0
  0
ARC
  5
B8
  8
WHITE
  6
CONTINUOUS
 10
25.905534
 20
58.825953
 30
0.0
 40
5.736111
 50
204.640622
 51
245.343533
  0
LINE
  5
B9
  8
WHITE
  6
CONTINUOUS
 10
23.512562
 20
53.61283
 30
0.0
 11
23.512561
 21
53.068509
 31
0.0
  0
ARC
  5
BA
  8
WHITE
  6
CONTINUOUS
 10
20.834514
 20
58.89233
 30
0.0
 40
6.410057
 50
267.352056
 51
294.69504
  0
ARC
  5
BB
  8
WHITE
  6
CONTINUOUS
 10
24.824894
 20
40.410136
 30
0.0
 40
8.843782
 50
291.285845
 51
32.57955
  0
ARC
  5
BC
  8
WHITE
  6
CONTINUOUS
 10
27.546794
 20
42.126499
 30
0.0
 40
5.626011
 50
32.776896
 51
141.089177
  0
ARC
  5
BD
  8
WHITE
  6
CONTINUOUS
 10
22.095063
 20
39.982451
 30
0.0
 40
5.778486
 50
349.640485
 51
79.288683
  0
ARC
  5
BE
  8
WHITE
  6
CONTINUOUS
 10
20.081505
 20
42.243296
 30
0.0
 40
8.375355
 50
277.819465
 51
336.795887
  0
ARC
  5
BF
  8
WHITE
  6
CONTINUOUS
 10
18.835135
 20
46.398442
 30
0.0
 40
12.679123
 50
237.140874
 51
280.846119
  0
ARC
  5
C0
  8
WHITE
  6
CONTINUOUS
 10
22.363334
 20
44.59894
 30
0.0
 40
13.662313
 50
220.379267
 51
294.529361
  0
ARC
  5
C1
  8
WHITE
  6
CONTINUOUS
 10
42.143161
 20
68.282753
 30
0.0
 40
12.643304
 50
46.838222
 51
59.745728
  0
ARC
  5
C2
  8
WHITE
  6
CONTINUOUS
 10
33.697231
 20
66.84881
 30
0.0
 40
19.291662
 50
24.339525
 51
39.824836
  0
ARC
  5
C3
  8
WHITE
  6
CONTINUOUS
 10
44.46922
 20
70.909917
 30
0.0
 40
7.838296
 50
302.26199
 51
29.75273
  0
ARC
  5
C4
  8
WHITE
  6
CONTINUOUS
 10
48.222607
 20
60.491417
 30
0.0
 40
3.814695
 50
83.518251
 51
140.255174
  0
ARC
  5
C5
  8
WHITE
  6
CONTINUOUS
 10
48.863396
 20
60.389144
 30
0.0
 40
4.385301
 50
144.584773
 51
251.27359
  0
ARC
  5
C6
  8
WHITE
  6
CONTINUOUS
 10
48.489768
 20
63.932937
 30
0.0
 40
7.766125
 50
262.34677
 51
326.73155
  0
ARC
  5
C7
  8
WHITE
  6
CONTINUOUS
 10
45.685097
 20
64.595401
 30
0.0
 40
10.520719
 50
332.10178
 51
14.182651
  0
ARC
  5
C8
  8
WHITE
  6
CONTINUOUS
 10
34.726029
 20
63.163989
 30
0.0
 40
21.535578
 50
10.728961
 51
41.753428
  0
ARC
  5
C9
  8
WHITE
  6
CONTINUOUS
 10
-9.860502
 20
33.80625
 30
0.0
 40
18.55345
 50
320.943167
 51
3.308255
  0
ARC
  5
CA
  8
WHITE
  6
CONTINUOUS
 10
7.069964
 20
26.191602
 30
0.0
 40
4.793596
 50
238.237922
 51
338.796246
  0
LINE
  5
CB
  8
WHITE
  6
CONTINUOUS
 10
11.539034
 20
24.457827
 30
0.0
 11
12.09915
 21
24.588831
 31
0.0
  0
ARC
  5
CC
  8
WHITE
  6
CONTINUOUS
 10
16.158883
 20
27.318151
 30
0.0
 40
4.891893
 50
213.912566
 51
271.782623
  0
ARC
  5
CD
  8
WHITE
  6
CONTINUOUS
 10
15.63759
 20
33.98087
 30
0.0
 40
11.571859
 50
273.336429
 51
286.743563
  0
ARC
  5
CE
  8
WHITE
  6
CONTINUOUS
 10
19.82699
 20
18.066548
 30
0.0
 40
4.90823
 50
35.271794
 51
100.039982
  0
ARC
  5
CF
  8
WHITE
  6
CONTINUOUS
 10
13.199721
 20
18.668158
 30
0.0
 40
10.866301
 50
11.85689
 51
60.183875
  0
ARC
  5
D0
  8
WHITE
  6
CONTINUOUS
 10
31.78066
 20
58.091459
 30
0.0
 40
32.762562
 50
225.118588
 51
246.282469
  0
ARC
  5
D1
  8
WHITE
  6
CONTINUOUS
 10
53.888358
 20
97.540516
 30
0.0
 40
18.55345
 50
266.678626
 51
309.043714
  0
ARC
  5
D2
  8
WHITE
  6
CONTINUOUS
 10
61.499129
 20
80.608306
 30
0.0
 40
4.793596
 50
291.190635
 51
31.748959
  0
LINE
  5
D3
  8
WHITE
  6
CONTINUOUS
 10
63.231881
 20
76.138839
 30
0.0
 11
63.100749
 21
75.578754
 31
0.0
  0
ARC
  5
D4
  8
WHITE
  6
CONTINUOUS
 10
60.370499
 20
71.519646
 30
0.0
 40
4.891893
 50
358.204258
 51
56.074315
  0
ARC
  5
D5
  8
WHITE
  6
CONTINUOUS
 10
53.7079
 20
72.042464
 30
0.0
 40
11.571859
 50
343.243318
 51
356.650452
  0
ARC
  5
D6
  8
WHITE
  6
CONTINUOUS
 10
69.621262
 20
67.84942
 30
0.0
 40
4.90823
 50
169.946899
 51
234.715087
  0
ARC
  5
D7
  8
WHITE
  6
CONTINUOUS
 10
69.02117
 20
74.476827
 30
0.0
 40
10.866301
 50
209.803006
 51
258.129991
  0
ARC
  5
D8
  8
WHITE
  6
CONTINUOUS
 10
29.593615
 20
55.904915
 30
0.0
 40
32.762562
 50
23.704412
 51
44.868293
  0
ARC
  5
D9
  8
WHITE
  6
CONTINUOUS
 10
-21.504912
 20
35.800449
 30
0.0
 40
26.993932
 50
324.214377
 51
35.759385
  0
LINE
  5
DA
  8
WHITE
  6
CONTINUOUS
 10
0.400077
 20
51.575233
 30
0.0
 11
0.398268
 21
43.672955
 31
0.0
  0
ARC
  5
DB
  8
WHITE
  6
CONTINUOUS
 10
-2.939366
 20
38.886502
 30
0.0
 40
5.835232
 50
21.304124
 51
55.111611
  0
ARC
  5
DC
  8
WHITE
  6
CONTINUOUS
 10
7.166231
 20
36.095428
 30
0.0
 40
6.77641
 50
133.552957
 51
182.537335
  0
ARC
  5
DD
  8
WHITE
  6
CONTINUOUS
 10
7.166093
 20
35.49234
 30
0.0
 40
6.77641
 50
177.436432
 51
226.420798
  0
ARC
  5
DE
  8
WHITE
  6
CONTINUOUS
 10
-2.940781
 20
32.705894
 30
0.0
 40
5.835232
 50
304.862152
 51
338.669643
  0
LINE
  5
DF
  8
WHITE
  6
CONTINUOUS
 10
0.394661
 20
27.917912
 30
0.0
 11
0.392851
 21
20.015636
 31
0.0
  0
ARC
  5
E0
  8
WHITE
  6
CONTINUOUS
 10
49.571736
 20
109.555215
 30
0.0
 40
26.993932
 50
234.227496
 51
305.772504
  0
LINE
  5
E1
  8
WHITE
  6
CONTINUOUS
 10
65.351535
 20
87.653838
 30
0.0
 11
57.449258
 21
87.653838
 31
0.0
  0
ARC
  5
E2
  8
WHITE
  6
CONTINUOUS
 10
52.66204
 20
90.990377
 30
0.0
 40
5.835233
 50
291.317238
 51
325.124729
  0
ARC
  5
E3
  8
WHITE
  6
CONTINUOUS
 10
49.87328
 20
80.884141
 30
0.0
 40
6.77641
 50
43.566083
 51
92.550458
  0
ARC
  5
E4
  8
WHITE
  6
CONTINUOUS
 10
49.270191
 20
80.884141
 30
0.0
 40
6.77641
 50
87.449546
 51
136.433917
  0
ARC
  5
E5
  8
WHITE
  6
CONTINUOUS
 10
46.481432
 20
90.990377
 30
0.0
 40
5.835233
 50
214.875265
 51
248.682757
  0
LINE
  5
E6
  8
WHITE
  6
CONTINUOUS
 10
41.694214
 20
87.653839
 30
0.0
 11
33.791937
 21
87.653838
 31
0.0
  0
ARC
  5
E7
  8
WHITE
  6
CONTINUOUS
 10
23.947777
 20
40.647768
 30
0.0
 40
11.318507
 50
256.791752
 51
310.37659
  0
ARC
  5
E8
  8
WHITE
  6
CONTINUOUS
 10
35.6169
 20
27.937705
 30
0.0
 40
5.959619
 50
68.556024
 51
136.695059
  0
ARC
  5
E9
  8
WHITE
  6
CONTINUOUS
 10
41.191157
 20
27.488121
 30
0.0
 40
6.891231
 50
119.519754
 51
159.382529
  0
ARC
  5
EA
  8
WHITE
  6
CONTINUOUS
 10
29.9337
 20
33.541884
 30
0.0
 40
6.022405
 50
264.876905
 51
322.966634
  0
ARC
  5
EB
  8
WHITE
  6
CONTINUOUS
 10
25.351314
 20
27.072002
 30
0.0
 40
4.072004
 50
273.637938
 51
6.649728
  0
ARC
  5
EC
  8
WHITE
  6
CONTINUOUS
 10
6.154641
 20
15.197851
 30
0.0
 40
20.964266
 50
21.873308
 51
43.499932
  0
ARC
  5
ED
  8
WHITE
  6
CONTINUOUS
 10
59.74649
 20
52.061771
 30
0.0
 40
5.959619
 50
133.291822
 51
201.430858
  0
ARC
  5
EE
  8
WHITE
  6
CONTINUOUS
 10
47.039099
 20
63.733804
 30
0.0
 40
11.318507
 50
319.610291
 51
13.195129
  0
ARC
  5
EF
  8
WHITE
  6
CONTINUOUS
 10
72.49309
 20
81.521112
 30
0.0
 40
20.964266
 50
226.486949
 51
248.113573
  0
ARC
  5
F0
  8
WHITE
  6
CONTINUOUS
 10
60.614543
 20
62.327159
 30
0.0
 40
4.072004
 50
263.337153
 51
356.348943
  0
ARC
  5
F1
  8
WHITE
  6
CONTINUOUS
 10
54.143613
 20
57.746254
 30
0.0
 40
6.022405
 50
307.020247
 51
5.109976
  0
ARC
  5
F2
  8
WHITE
  6
CONTINUOUS
 10
60.194798
 20
46.487411
 30
0.0
 40
6.891231
 50
110.604352
 51
150.467127
  0
ARC
  5
F3
  8
WHITE
  6
CONTINUOUS
 10
14.592067
 20
51.929023
 30
0.0
 40
10.93277
 50
231.499893
 51
299.764446
  0
ARC
  5
F4
  8
WHITE
  6
CONTINUOUS
 10
21.672257
 20
52.537251
 30
0.0
 40
16.637477
 50
213.423432
 51
256.888309
  0
ARC
  5
F5
  8
WHITE
  6
CONTINUOUS
 10
19.436558
 20
42.722964
 30
0.0
 40
6.572064
 50
256.461483
 51
314.076006
  0
ARC
  5
F6
  8
WHITE
  6
CONTINUOUS
 10
21.997365
 20
40.562671
 30
0.0
 40
3.25623
 50
308.135548
 51
36.66156
  0
ARC
  5
F7
  8
WHITE
  6
CONTINUOUS
 10
19.03784
 20
46.909723
 30
0.0
 40
7.101219
 50
288.231643
 51
321.683426
  0
ARC
  5
F8
  8
WHITE
  6
CONTINUOUS
 10
19.137619
 20
40.482633
 30
0.0
 40
2.145549
 50
351.486181
 51
65.731122
  0
ARC
  5
F9
  8
WHITE
  6
CONTINUOUS
 10
52.826493
 20
25.95451
 30
0.0
 40
5.139223
 50
298.77402
 51
336.364023
  0
LINE
  5
FA
  8
WHITE
  6
CONTINUOUS
 10
57.534592
 20
23.89407
 30
0.0
 11
57.712338
 21
24.108615
 31
0.0
  0
ARC
  5
FB
  8
WHITE
  6
CONTINUOUS
 10
64.395049
 20
29.883371
 30
0.0
 40
8.832125
 50
220.831402
 51
278.941909
  0
LINE
  5
FC
  8
WHITE
  6
CONTINUOUS
 10
65.767852
 20
21.158588
 30
0.0
 11
55.62317
 21
31.30327
 31
0.0
  0
LINE
  5
FD
  8
WHITE
  6
CONTINUOUS
 10
55.62317
 20
31.30327
 30
0.0
 11
54.375329
 21
28.617165
 31
0.0
  0
ARC
  5
FE
  8
WHITE
  6
CONTINUOUS
 10
22.019949
 20
20.798274
 30
0.0
 40
33.286719
 50
1.121621
 51
13.585446
  0
LINE
  5
FF
  8
WHITE
  6
CONTINUOUS
 10
66.518703
 20
21.909267
 30
0.0
 11
56.376344
 21
32.056272
 31
0.0
  0
LINE
  5
100
  8
WHITE
  6
CONTINUOUS
 10
56.376344
 20
32.056272
 30
0.0
 11
59.062735
 21
33.303498
 31
0.0
  0
ARC
  5
101
  8
WHITE
  6
CONTINUOUS
 10
66.889035
 20
65.657086
 30
0.0
 40
33.286718
 50
256.401433
 51
268.865259
  0
ARC
  5
102
  8
WHITE
  6
CONTINUOUS
 10
61.725744
 20
34.851724
 30
0.0
 40
5.139224
 50
293.622858
 51
331.21286
  0
LINE
  5
103
  8
WHITE
  6
CONTINUOUS
 10
63.785105
 20
30.143153
 30
0.0
 11
63.570521
 21
29.965456
 31
0.0
  0
ARC
  5
104
  8
WHITE
  6
CONTINUOUS
 10
57.794235
 20
23.284068
 30
0.0
 40
8.832125
 50
351.044973
 51
49.155476
  0
ARC
  5
105
  8
WHITE
  6
CONTINUOUS
 10
44.953809
 20
32.739585
 30
0.0
 40
3.981749
 50
16.225755
 51
54.372983
  0
ARC
  5
106
  8
WHITE
  6
CONTINUOUS
 10
39.888647
 20
42.16097
 30
0.0
 40
9.632489
 50
279.54851
 51
320.052232
  0
ARC
  5
107
  8
WHITE
  6
CONTINUOUS
 10
44.447908
 20
33.511297
 30
0.0
 40
3.080795
 50
196.003492
 51
260.201665
  0
LINE
  5
108
  8
WHITE
  6
CONTINUOUS
 10
43.923615
 20
30.475441
 30
0.0
 11
43.843438
 21
29.863887
 31
0.0
  0
ARC
  5
109
  8
WHITE
  6
CONTINUOUS
 10
49.159192
 20
27.534835
 30
0.0
 40
5.803596
 50
156.339783
 51
229.217096
  0
ARC
  5
10A
  8
WHITE
  6
CONTINUOUS
 10
66.991531
 20
22.157804
 30
0.0
 40
21.645532
 50
147.298165
 51
177.398145
  0
ARC
  5
10B
  8
WHITE
  6
CONTINUOUS
 10
60.146259
 20
38.519386
 30
0.0
 40
5.803596
 50
40.769785
 51
113.647099
  0
LINE
  5
10C
  8
WHITE
  6
CONTINUOUS
 10
57.818424
 20
43.835673
 30
0.0
 11
57.206852
 21
43.755636
 31
0.0
  0
ARC
  5
10D
  8
WHITE
  6
CONTINUOUS
 10
54.170876
 20
43.232039
 30
0.0
 40
3.080796
 50
9.785216
 51
73.98339
  0
ARC
  5
10E
  8
WHITE
  6
CONTINUOUS
 10
45.522247
 20
47.79328
 30
0.0
 40
9.632489
 50
309.934654
 51
350.438371
  0
ARC
  5
10F
  8
WHITE
  6
CONTINUOUS
 10
54.942473
 20
42.725961
 30
0.0
 40
3.981749
 50
215.613898
 51
253.761118
  0
ARC
  5
110
  8
WHITE
  6
CONTINUOUS
 10
65.519207
 20
20.685817
 30
0.0
 40
21.645531
 50
92.588737
 51
122.688716
  0
ARC
  5
111
  8
WHITE
  6
CONTINUOUS
 10
46.040206
 20
61.171415
 30
0.0
 40
7.425242
 50
173.91529
 51
283.103676
  0
ARC
  5
112
  8
WHITE
  6
CONTINUOUS
 10
42.756505
 20
61.367364
 30
0.0
 40
4.142104
 50
77.759836
 51
171.795348
  0
ARC
  5
113
  8
WHITE
  6
CONTINUOUS
 10
48.421593
 20
60.654575
 30
0.0
 40
6.751237
 50
135.157157
 51
264.065822
  0
ARC
  5
114
  8
WHITE
  6
CONTINUOUS
 10
44.073081
 20
71.356454
 30
0.0
 40
5.811615
 50
307.229339
 51
32.833697
  0
ARC
  5
115
  8
WHITE
  6
CONTINUOUS
 10
39.188998
 20
70.152851
 30
0.0
 40
10.694062
 50
24.029373
 51
59.913587
  0
ARC
  5
116
  8
WHITE
  6
CONTINUOUS
 10
87.803215
 20
96.274814
 30
0.0
 40
46.426229
 50
201.305727
 51
203.74916
  0
ARC
  5
117
  8
WHITE
  6
CONTINUOUS
 10
39.358325
 20
73.80309
 30
0.0
 40
7.046274
 50
327.598359
 51
32.38801
  0
ARC
  5
118
  8
WHITE
  6
CONTINUOUS
 10
47.095073
 20
71.995749
 30
0.0
 40
2.658903
 50
227.757805
 51
270.194539
  0
ARC
  5
119
  8
WHITE
  6
CONTINUOUS
 10
50.311847
 20
68.584537
 30
0.0
 40
3.294788
 50
166.800778
 51
214.272849
  0
ARC
  5
11A
  8
WHITE
  6
CONTINUOUS
 10
58.164152
 20
28.188151
 30
0.0
 40
6.308424
 50
162.784326
 51
204.673369
  0
ARC
  5
11B
  8
WHITE
  6
CONTINUOUS
 10
50.295529
 20
31.819215
 30
0.0
 40
2.551
 50
316.252674
 51
69.791786
  0
ARC
  5
11C
  8
WHITE
  6
CONTINUOUS
 10
65.433123
 20
24.971773
 30
0.0
 40
16.989658
 50
147.047515
 51
186.356201
  0
ARC
  5
11D
  8
WHITE
  6
CONTINUOUS
 10
47.464514
 20
27.303471
 30
0.0
 40
4.349692
 50
284.422641
 51
335.169711
  0
LINE
  5
11E
  8
WHITE
  6
CONTINUOUS
 10
51.412101
 20
25.476897
 30
0.0
 11
52.431673
 21
25.554732
 31
0.0
  0
ARC
  5
11F
  8
WHITE
  6
CONTINUOUS
 10
62.705595
 20
22.24487
 30
0.0
 40
16.989658
 50
83.63068
 51
122.939366
  0
ARC
  5
120
  8
WHITE
  6
CONTINUOUS
 10
60.378011
 20
40.214012
 30
0.0
 40
4.349692
 50
294.81717
 51
345.56424
  0
LINE
  5
121
  8
WHITE
  6
CONTINUOUS
 10
62.203681
 20
36.266007
 30
0.0
 11
62.125613
 21
35.246453
 31
0.0
  0
ARC
  5
122
  8
WHITE
  6
CONTINUOUS
 10
59.490882
 20
29.514576
 30
0.0
 40
6.308424
 50
65.313512
 51
107.202555
  0
ARC
  5
123
  8
WHITE
  6
CONTINUOUS
 10
55.861619
 20
37.384031
 30
0.0
 40
2.551
 50
200.195095
 51
313.734207
  0
CIRCLE
  5
124
  8
WHITE
  6
CONTINUOUS
 10
32.114905
 20
59.612909
 30
0.0
 40
2.626432
  0
CIRCLE
  5
125
  8
WHITE
  6
CONTINUOUS
 10
38.935853
 20
22.784737
 30
0.0
 40
2.61875
  0
CIRCLE
  5
126
  8
WHITE
  6
CONTINUOUS
 10
64.898698
 20
48.741638
 30
0.0
 40
2.61875
  0
ARC
  5
127
  8
WHITE
  6
CONTINUOUS
 10
19.834549
 20
36.258028
 30
0.0
 40
19.222454
 50
7.41286
 51
27.941641
  0
ARC
  5
128
  8
WHITE
  6
CONTINUOUS
 10
42.674296
 20
39.836683
 30
0.0
 40
3.934444
 50
196.214172
 51
238.77644
  0
ARC
  5
129
  8
WHITE
  6
CONTINUOUS
 10
39.374323
 20
37.160369
 30
0.0
 40
1.436097
 50
266.636109
 51
331.364443
  0
ARC
  5
12A
  8
WHITE
  6
CONTINUOUS
 10
36.115843
 20
28.83897
 30
0.0
 40
7.584002
 50
65.257516
 51
93.649862
  0
ARC
  5
12B
  8
WHITE
  6
CONTINUOUS
 10
21.439983
 20
40.959779
 30
0.0
 40
14.905223
 50
342.217227
 51
9.200766
  0
ARC
  5
12C
  8
WHITE
  6
CONTINUOUS
 10
40.906667
 20
42.779476
 30
0.0
 40
4.786522
 50
148.7145
 51
173.238319
  0
ARC
  5
12D
  8
WHITE
  6
CONTINUOUS
 10
44.903508
 20
46.775402
 30
0.0
 40
4.786522
 50
96.748562
 51
121.272381
  0
ARC
  5
12E
  8
WHITE
  6
CONTINUOUS
 10
46.727662
 20
66.241669
 30
0.0
 40
14.905223
 50
260.786115
 51
287.769654
  0
ARC
  5
12F
  8
WHITE
  6
CONTINUOUS
 10
58.845111
 20
51.563034
 30
0.0
 40
7.584002
 50
176.337019
 51
204.729365
  0
ARC
  5
130
  8
WHITE
  6
CONTINUOUS
 10
50.522966
 20
48.30646
 30
0.0
 40
1.436097
 50
298.622438
 51
3.350772
  0
ARC
  5
131
  8
WHITE
  6
CONTINUOUS
 10
47.845896
 20
45.007099
 30
0.0
 40
3.934444
 50
31.210441
 51
73.772709
  0
ARC
  5
132
  8
WHITE
  6
CONTINUOUS
 10
51.429781
 20
67.846027
 30
0.0
 40
19.222454
 50
242.04524
 51
262.574021
  0
CIRCLE
  5
133
  8
WHITE
  6
CONTINUOUS
 10
10.769978
 20
7.160272
 30
0.0
 40
2.5
  0
CIRCLE
  5
134
  8
WHITE
  6
CONTINUOUS
 10
77.530069
 20
76.904851
 30
0.0
 40
2.5
  0
LINE
  5
135
  8
WHITE
  6
CONTINUOUS
 10
26.781623
 20
59.817498
 30
0.0
 11
27.319982
 21
61.936732
 31
0.0
  0
LINE
  5
136
  8
WHITE
  6
CONTINUOUS
 10
27.319982
 20
61.936732
 30
0.0
 11
24.105199
 21
64.883948
 31
0.0
  0
LINE
  5
137
  8
WHITE
  6
CONTINUOUS
 10
24.105199
 20
64.883948
 30
0.0
 11
22.166699
 21
64.236545
 31
0.0
  0
LINE
  5
138
  8
WHITE
  6
CONTINUOUS
 10
22.166699
 20
64.236545
 30
0.0
 11
26.781623
 21
59.817498
 31
0.0
  0
CIRCLE
  5
139
  8
WHITE
  6
CONTINUOUS
 10
42.352722
 20
42.166285
 30
0.0
 40
1.704531
  0
ARC
  5
13A
  8
WHITE
  6
CONTINUOUS
 10
31.376948
 20
49.278533
 30
0.0
 40
6.062941
 50
24.983856
 51
79.93245
  0
ARC
  5
13B
  8
WHITE
  6
CONTINUOUS
 10
38.406634
 20
56.306609
 30
0.0
 40
6.062941
 50
190.054431
 51
245.003025
  0
LINE
  5
13C
  8
WHITE
  6
CONTINUOUS
 10
35.844615
 20
50.811584
 30
0.0
 11
36.87256
 21
51.839294
 31
0.0
  0
CIRCLE
  5
13D
  8
WHITE
  6
CONTINUOUS
 10
49.331621
 20
43.500422
 30
0.0
 40
1.695755
  0
CIRCLE
  5
13E
  8
WHITE
  6
CONTINUOUS
 10
40.458149
 20
47.778215
 30
0.0
 40
1.692979
  0
CIRCLE
  5
13F
  8
WHITE
  6
CONTINUOUS
 10
31.15448
 20
21.782342
 30
0.0
 40
1.688134
  0
CIRCLE
  5
140
  8
WHITE
  6
CONTINUOUS
 10
65.902875
 20
56.522781
 30
0.0
 40
1.688134
  0
CIRCLE
  5
141
  8
WHITE
  6
CONTINUOUS
 10
37.804082
 20
28.654433
 30
0.0
 40
1.670929
  0
CIRCLE
  5
142
  8
WHITE
  6
CONTINUOUS
 10
59.029261
 20
49.874753
 30
0.0
 40
1.670929
  0
ARC
  5
143
  8
WHITE
  6
CONTINUOUS
 10
31.524629
 20
46.440334
 30
0.0
 40
4.317233
 50
43.291812
 51
121.771181
  0
LINE
  5
144
  8
WHITE
  6
CONTINUOUS
 10
29.251484
 20
50.110662
 30
0.0
 11
33.50034
 21
48.23458
 31
0.0
  0
LINE
  5
145
  8
WHITE
  6
CONTINUOUS
 10
33.50034
 20
48.23458
 30
0.0
 11
34.667016
 21
49.400722
 31
0.0
  0
ARC
  5
146
  8
WHITE
  6
CONTINUOUS
 10
41.244799
 20
56.158279
 30
0.0
 40
4.317233
 50
148.2157
 51
226.695069
  0
LINE
  5
147
  8
WHITE
  6
CONTINUOUS
 10
37.574991
 20
58.432264
 30
0.0
 11
39.4501
 21
54.182978
 31
0.0
  0
LINE
  5
148
  8
WHITE
  6
CONTINUOUS
 10
39.4501
 20
54.182978
 30
0.0
 11
38.283691
 21
53.016569
 31
0.0
  0
ARC
  5
149
  8
WHITE
  6
CONTINUOUS
 10
27.849376
 20
56.015807
 30
0.0
 40
1.910265
 50
166.812147
 51
334.371213
  0
ARC
  5
14A
  8
WHITE
  6
CONTINUOUS
 10
27.410654
 20
55.986082
 30
0.0
 40
1.495472
 50
94.593892
 51
161.862381
  0
ARC
  5
14B
  8
WHITE
  6
CONTINUOUS
 10
30.570042
 20
58.465929
 30
0.0
 40
3.425112
 50
196.786255
 51
253.05359
  0
LINE
  5
14C
  8
WHITE
  6
CONTINUOUS
 10
51.418094
 20
36.187083
 30
0.0
 11
49.267834
 21
36.872383
 31
0.0
  0
LINE
  5
14D
  8
WHITE
  6
CONTINUOUS
 10
49.267834
 20
36.872383
 30
0.0
 11
47.802893
 21
39.894332
 31
0.0
  0
LINE
  5
14E
  8
WHITE
  6
CONTINUOUS
 10
47.802893
 20
39.894332
 30
0.0
 11
50.576609
 21
38.505565
 31
0.0
  0
LINE
  5
14F
  8
WHITE
  6
CONTINUOUS
 10
50.576609
 20
38.505565
 30
0.0
 11
51.418094
 21
36.187083
 31
0.0
  0
ARC
  5
150
  8
WHITE
  6
CONTINUOUS
 10
46.198798
 20
45.592384
 30
0.0
 40
1.827204
 50
90.15931
 51
227.852288
  0
ARC
  5
151
  8
WHITE
  6
CONTINUOUS
 10
46.391497
 20
43.450579
 30
0.0
 40
3.973926
 50
71.34988
 51
92.852743
  0
ARC
  5
152
  8
WHITE
  6
CONTINUOUS
 10
48.777771
 20
44.100456
 30
0.0
 40
3.309049
 50
109.699894
 51
180.652014
  0
ARC
  5
153
  8
WHITE
  6
CONTINUOUS
 10
45.613239
 20
45.264
 30
0.0
 40
1.209835
 50
238.030134
 51
263.149727
  0
LINE
  5
154
  8
WHITE
  6
CONTINUOUS
 10
0.394097
 20
75.42008
 30
0.0
 11
0.394097
 21
81.868509
 31
0.0
  0
ARC
  5
155
  8
WHITE
  6
CONTINUOUS
 10
-3.933942
 20
78.644294
 30
0.0
 40
5.396988
 50
323.31538
 51
36.684629
  0
ARC
  5
156
  8
WHITE
  6
CONTINUOUS
 10
44.555073
 20
38.05545
 30
0.0
 40
1.135944
 50
182.867411
 51
221.320644
  0
ARC
  5
157
  8
WHITE
  6
CONTINUOUS
 10
42.991744
 20
41.564819
 30
0.0
 40
3.591882
 50
276.856449
 51
326.236543
  0
LINE
  5
158
  8
WHITE
  6
CONTINUOUS
 10
45.977816
 20
39.568575
 30
0.0
 11
46.186911
 21
38.416553
 31
0.0
  0
ARC
  5
159
  8
WHITE
  6
CONTINUOUS
 10
44.807927
 20
38.166263
 30
0.0
 40
1.401514
 50
217.895633
 51
10.287356
  0
ENDSEC
  0
EOF
