  0
SECTION
  2
HEADER
  9
$ACADVER
  1
AC1009
  9
$LIMMIN
 10
0.000000
 20
0.000000
  9
$LIMMAX
 10
357.000000
 20
310.000000
  0
ENDSEC
  0
SECTION
  2
TABLES
  0
TABLE
  2
LTYPE
 70
     4
  0
LTYPE
  2
CONTINUOUS
 70
     0
  3
Solid line
 72
     65
 73
     0
 40
0.000000
  0
LTYPE
  2
HIDDEN
 70
     0
  3
 _ _ _ _ _ _ _ _ _ _ _
 72
     65
 73
     2
 40
0.375000
 49
0.250000
 49
-0.125000
  0
LTYPE
  2
DASHED
 70
     0
  3
 ___ ___ ___ ___ ___ ___ ___ 
 72
     65
 73
     2
 40
0.750000
 49
0.500000
 49
-0.250000
  0
LTYPE
  2
CENTER
 70
     0
  3
___ _ ___ _ ___ _ ___
 72
     65
 73
     4
 40
2.000000
 49
1.250000
 49
-0.250000
 49
0.250000
 49
-0.250000
  0
LTYPE
  2
BORDER
 70
     0
  3
___ ___ . ___ ___ . ___ ___
 72
     65
 73
     6
 40
1.750000
 49
0.500000
 49
-0.250000
 49
0.500000
 49
-0.250000
 49
0.000000
 49
-0.250000
  0
LTYPE
  2
DOT
 70
     0
  3
.................
 72
     65
 73
     2
 40
0.250000
 49
0.000000
 49
-0.250000
  0
LTYPE
  2
DASHDOT
 70
     0
  3
__ . __ . __ . __
 72
     65
 73
     4
 40
1.000000
 49
0.500000
 49
-0.250000
 49
0.000000
 49
-0.250000
  0
LTYPE
  2
DIVIDE
 70
     0
  3
___ .. ___ .. ___ .. ___
 72
     65
 73
     6
 40
1.250000
 49
0.500000
 49
-0.250000
 49
0.000000
 49
-0.250000
 49
0.000000
 49
-0.250000
  0
ENDTAB
  0
TABLE
  2
LAYER
 70
     8
  0
LAYER
  2
BLACK
 70
     0
 62
     1
  6
CONTINUOUS
  0
LAYER
  2
WHITE
 70
     0
 62
     7
  6
CONTINUOUS
  0
LAYER
  2
RED
 70
     0
 62
     1
  6
CONTINUOUS
  0
LAYER
  2
YELLOW
 70
     0
 62
     2
  6
CONTINUOUS
  0
LAYER
  2
GREEN
 70
     0
 62
     3
  6
CONTINUOUS
  0
LAYER
  2
CYAN
 70
     0
 62
     4
  6
CONTINUOUS
  0
LAYER
  2
BLUE
 70
     0
 62
     5
  6
CONTINUOUS
  0
LAYER
  2
MAGENTA
 70
     0
 62
     6
  6
CONTINUOUS
  0
ENDTAB
  0
TABLE
  2
APPID
 70
     1
  0
APPID
  2
TC_BEND_DATA
 70
     0
  0
ENDTAB
  0
ENDSEC
  0
SECTION
  2
BLOCKS
  0
ENDSEC
  0
SECTION
  2
ENTITIES
  0
POINT
  8
WHITE
 10
20.000000
 20
58.500000
 30
0.000000
  0
POINT
  8
WHITE
 10
10.000000
 20
56.500000
 30
0.000000
  0
POINT
  8
WHITE
 10
215.000000
 20
75.000000
 30
0.000000
  0
POINT
  8
WHITE
 10
95.709377
 20
66.500000
 30
0.000000
  0
POINT
  8
WHITE
 10
102.948109
 20
61.500000
 30
0.000000
  0
POINT
  8
WHITE
 10
116.500000
 20
66.500000
 30
0.000000
  0
POINT
  8
WHITE
 10
116.500000
 20
59.500000
 30
0.000000
  0
POINT
  8
WHITE
 10
116.500000
 20
55.500000
 30
0.000000
  0
POINT
  8
WHITE
 10
116.500000
 20
43.500000
 30
0.000000
  0
POINT
  8
WHITE
 10
116.500000
 20
39.500000
 30
0.000000
  0
POINT
  8
WHITE
 10
126.000000
 20
61.500000
 30
0.000000
  0
POINT
  8
WHITE
 10
137.290623
 20
66.500000
 30
0.000000
  0
POINT
  8
WHITE
 10
162.002359
 20
53.500000
 30
0.000000
  0
POINT
  8
WHITE
 10
144.841665
 20
50.247727
 30
0.000000
  0
POINT
  8
WHITE
 10
138.500000
 20
39.500000
 30
0.000000
  0
POINT
  8
WHITE
 10
138.500000
 20
34.500000
 30
0.000000
  0
POINT
  8
WHITE
 10
129.601826
 20
16.806972
 30
0.000000
  0
POINT
  8
WHITE
 10
123.203148
 20
5.721472
 30
0.000000
  0
POINT
  8
WHITE
 10
108.159784
 20
19.054321
 30
0.000000
  0
POINT
  8
WHITE
 10
94.500000
 20
13.955599
 30
0.000000
  0
POINT
  8
WHITE
 10
94.500000
 20
25.530345
 30
0.000000
  0
POINT
  8
WHITE
 10
88.158335
 20
44.210416
 30
0.000000
  0
POINT
  8
WHITE
 10
94.500000
 20
46.625000
 30
0.000000
  0
POINT
  8
WHITE
 10
61.538476
 20
66.500000
 30
0.000000
  0
POINT
  8
WHITE
 10
42.000000
 20
66.500000
 30
0.000000
  0
POINT
  8
WHITE
 10
50.000000
 20
59.500000
 30
0.000000
  0
POINT
  8
WHITE
 10
80.000000
 20
54.500000
 30
0.000000
  0
POINT
  8
WHITE
 10
80.000000
 20
50.250000
 30
0.000000
  0
POINT
  8
WHITE
 10
55.000000
 20
52.500000
 30
0.000000
  0
POINT
  8
WHITE
 10
71.000000
 20
48.500000
 30
0.000000
  0
POINT
  8
WHITE
 10
215.000000
 20
66.500000
 30
0.000000
  0
POINT
  8
WHITE
 10
167.758599
 20
61.500000
 30
0.000000
  0
POINT
  8
WHITE
 10
200.091825
 20
61.500000
 30
0.000000
  0
POINT
  8
WHITE
 10
215.000000
 20
61.500000
 30
0.000000
  0
POINT
  8
WHITE
 10
215.000000
 20
57.500000
 30
0.000000
  0
POINT
  8
WHITE
 10
229.908175
 20
61.500000
 30
0.000000
  0
POINT
  8
WHITE
 10
262.241401
 20
61.500000
 30
0.000000
  0
POINT
  8
WHITE
 10
262.788597
 20
48.500000
 30
0.000000
  0
POINT
  8
WHITE
 10
259.291647
 20
34.500000
 30
0.000000
  0
POINT
  8
WHITE
 10
239.578838
 20
36.500000
 30
0.000000
  0
POINT
  8
WHITE
 10
225.216779
 20
6.099921
 30
0.000000
  0
POINT
  8
WHITE
 10
209.500000
 20
5.316145
 30
0.000000
  0
POINT
  8
WHITE
 10
186.957060
 20
34.500000
 30
0.000000
  0
POINT
  8
WHITE
 10
169.925062
 20
36.500000
 30
0.000000
  0
POINT
  8
WHITE
 10
167.211403
 20
48.500000
 30
0.000000
  0
POINT
  8
WHITE
 10
313.500000
 20
66.500000
 30
0.000000
  0
POINT
  8
WHITE
 10
279.000000
 20
64.500000
 30
0.000000
  0
POINT
  8
WHITE
 10
304.000000
 20
61.500000
 30
0.000000
  0
POINT
  8
WHITE
 10
313.500000
 20
61.500000
 30
0.000000
  0
POINT
  8
WHITE
 10
323.000000
 20
61.500000
 30
0.000000
  0
POINT
  8
WHITE
 10
313.500000
 20
57.500000
 30
0.000000
  0
POINT
  8
WHITE
 10
313.500000
 20
53.500000
 30
0.000000
  0
POINT
  8
WHITE
 10
313.500000
 20
43.500000
 30
0.000000
  0
POINT
  8
WHITE
 10
313.500000
 20
39.500000
 30
0.000000
  0
POINT
  8
WHITE
 10
332.457793
 20
64.500000
 30
0.000000
  0
POINT
  8
WHITE
 10
331.721086
 20
58.500000
 30
0.000000
  0
POINT
  8
WHITE
 10
331.229948
 20
54.500000
 30
0.000000
  0
POINT
  8
WHITE
 10
330.616025
 20
49.500000
 30
0.000000
  0
POINT
  8
WHITE
 10
329.388179
 20
39.500000
 30
0.000000
  0
POINT
  8
WHITE
 10
343.967195
 20
28.500000
 30
0.000000
  0
POINT
  8
WHITE
 10
335.500000
 20
13.955599
 30
0.000000
  0
POINT
  8
WHITE
 10
321.840216
 20
19.054321
 30
0.000000
  0
POINT
  8
WHITE
 10
309.000000
 20
5.323085
 30
0.000000
  0
POINT
  8
WHITE
 10
291.500000
 20
22.066243
 30
0.000000
  0
POINT
  8
WHITE
 10
283.032805
 20
28.500000
 30
0.000000
  0
POINT
  8
WHITE
 10
282.063556
 20
38.500000
 30
0.000000
  0
POINT
  8
WHITE
 10
296.752329
 20
46.500000
 30
0.000000
  0
POINT
  8
WHITE
 10
282.335116
 20
55.500000
 30
0.000000
  0
POINT
  8
WHITE
 10
215.000000
 20
80.000000
 30
0.000000
  0
POINT
  8
WHITE
 10
164.875156
 20
85.000000
 30
0.000000
  0
POINT
  8
WHITE
 10
171.500000
 20
85.000000
 30
0.000000
  0
POINT
  8
WHITE
 10
179.000000
 20
85.000000
 30
0.000000
  0
POINT
  8
WHITE
 10
186.500000
 20
85.000000
 30
0.000000
  0
POINT
  8
WHITE
 10
194.000000
 20
85.000000
 30
0.000000
  0
POINT
  8
WHITE
 10
201.500000
 20
85.000000
 30
0.000000
  0
POINT
  8
WHITE
 10
209.000000
 20
85.000000
 30
0.000000
  0
POINT
  8
WHITE
 10
216.500000
 20
85.000000
 30
0.000000
  0
POINT
  8
WHITE
 10
224.000000
 20
85.000000
 30
0.000000
  0
POINT
  8
WHITE
 10
231.500000
 20
85.000000
 30
0.000000
  0
POINT
  8
WHITE
 10
239.000000
 20
85.000000
 30
0.000000
  0
POINT
  8
WHITE
 10
246.500000
 20
85.000000
 30
0.000000
  0
POINT
  8
WHITE
 10
254.000000
 20
85.000000
 30
0.000000
  0
POINT
  8
WHITE
 10
261.500000
 20
85.000000
 30
0.000000
  0
POINT
  8
WHITE
 10
292.000000
 20
87.000000
 30
0.000000
  0
POINT
  8
WHITE
 10
300.700000
 20
87.000000
 30
0.000000
  0
POINT
  8
WHITE
 10
307.500000
 20
87.000000
 30
0.000000
  0
POINT
  8
WHITE
 10
314.300000
 20
87.000000
 30
0.000000
  0
POINT
  8
WHITE
 10
321.100000
 20
87.000000
 30
0.000000
  0
POINT
  8
WHITE
 10
327.900000
 20
87.000000
 30
0.000000
  0
POINT
  8
WHITE
 10
334.700000
 20
87.000000
 30
0.000000
  0
POINT
  8
WHITE
 10
285.000000
 20
85.000000
 30
0.000000
  0
POINT
  8
WHITE
 10
278.500000
 20
80.000000
 30
0.000000
  0
POINT
  8
WHITE
 10
272.500000
 20
85.000000
 30
0.000000
  0
POINT
  8
WHITE
 10
272.500000
 20
92.000000
 30
0.000000
  0
POINT
  8
WHITE
 10
272.500000
 20
99.000000
 30
0.000000
  0
POINT
  8
WHITE
 10
285.000000
 20
92.000000
 30
0.000000
  0
POINT
  8
WHITE
 10
285.000000
 20
99.000000
 30
0.000000
  0
POINT
  8
WHITE
 10
285.000000
 20
106.000000
 30
0.000000
  0
POINT
  8
WHITE
 10
272.500000
 20
106.000000
 30
0.000000
  0
POINT
  8
WHITE
 10
285.000000
 20
113.000000
 30
0.000000
  0
POINT
  8
WHITE
 10
285.000000
 20
118.421622
 30
0.000000
  0
POINT
  8
WHITE
 10
252.500000
 20
113.000000
 30
0.000000
  0
POINT
  8
WHITE
 10
252.500000
 20
120.000000
 30
0.000000
  0
POINT
  8
WHITE
 10
285.000000
 20
127.000000
 30
0.000000
  0
POINT
  8
WHITE
 10
285.000000
 20
134.000000
 30
0.000000
  0
POINT
  8
WHITE
 10
285.000000
 20
141.000000
 30
0.000000
  0
POINT
  8
WHITE
 10
280.000000
 20
146.000000
 30
0.000000
  0
POINT
  8
WHITE
 10
177.500000
 20
141.000000
 30
0.000000
  0
POINT
  8
WHITE
 10
174.849411
 20
163.500000
 30
0.000000
  0
POINT
  8
WHITE
 10
182.500000
 20
141.000000
 30
0.000000
  0
POINT
  8
WHITE
 10
217.500000
 20
141.000000
 30
0.000000
  0
POINT
  8
WHITE
 10
214.500000
 20
152.729869
 30
0.000000
  0
POINT
  8
WHITE
 10
244.000000
 20
154.000000
 30
0.000000
  0
POINT
  8
WHITE
 10
249.000000
 20
154.000000
 30
0.000000
  0
POINT
  8
WHITE
 10
259.000000
 20
154.000000
 30
0.000000
  0
POINT
  8
WHITE
 10
267.000000
 20
154.000000
 30
0.000000
  0
POINT
  8
WHITE
 10
273.000000
 20
154.000000
 30
0.000000
  0
POINT
  8
WHITE
 10
278.000000
 20
154.000000
 30
0.000000
  0
POINT
  8
WHITE
 10
265.000000
 20
167.000000
 30
0.000000
  0
POINT
  8
WHITE
 10
263.818049
 20
178.894257
 30
0.000000
  0
POINT
  8
WHITE
 10
296.000000
 20
165.000000
 30
0.000000
  0
POINT
  8
WHITE
 10
301.406629
 20
141.000000
 30
0.000000
  0
POINT
  8
WHITE
 10
310.500000
 20
141.000000
 30
0.000000
  0
POINT
  8
WHITE
 10
332.000000
 20
151.000000
 30
0.000000
  0
POINT
  8
WHITE
 10
328.578202
 20
171.000000
 30
0.000000
  0
POINT
  8
WHITE
 10
323.199182
 20
175.520475
 30
0.000000
  0
POINT
  8
WHITE
 10
320.133333
 20
201.709932
 30
0.000000
  0
POINT
  8
WHITE
 10
215.000000
 20
136.000000
 30
0.000000
  0
POINT
  8
WHITE
 10
215.000000
 20
127.000000
 30
0.000000
  0
POINT
  8
WHITE
 10
232.000000
 20
120.000000
 30
0.000000
  0
POINT
  8
WHITE
 10
182.000000
 20
120.000000
 30
0.000000
  0
POINT
  8
WHITE
 10
182.000000
 20
113.000000
 30
0.000000
  0
POINT
  8
WHITE
 10
143.000000
 20
80.000000
 30
0.000000
  0
POINT
  8
WHITE
 10
152.500000
 20
85.000000
 30
0.000000
  0
POINT
  8
WHITE
 10
152.500000
 20
92.000000
 30
0.000000
  0
POINT
  8
WHITE
 10
152.500000
 20
99.000000
 30
0.000000
  0
POINT
  8
WHITE
 10
152.500000
 20
106.000000
 30
0.000000
  0
POINT
  8
WHITE
 10
152.500000
 20
113.000000
 30
0.000000
  0
POINT
  8
WHITE
 10
152.500000
 20
120.000000
 30
0.000000
  0
POINT
  8
WHITE
 10
152.500000
 20
127.000000
 30
0.000000
  0
POINT
  8
WHITE
 10
122.000000
 20
85.000000
 30
0.000000
  0
POINT
  8
WHITE
 10
122.000000
 20
92.000000
 30
0.000000
  0
POINT
  8
WHITE
 10
122.000000
 20
99.000000
 30
0.000000
  0
POINT
  8
WHITE
 10
122.000000
 20
106.000000
 30
0.000000
  0
POINT
  8
WHITE
 10
122.000000
 20
113.000000
 30
0.000000
  0
POINT
  8
WHITE
 10
122.000000
 20
120.000000
 30
0.000000
  0
POINT
  8
WHITE
 10
122.000000
 20
136.000000
 30
0.000000
  0
POINT
  8
WHITE
 10
151.000000
 20
146.000000
 30
0.000000
  0
POINT
  8
WHITE
 10
131.000000
 20
151.000000
 30
0.000000
  0
POINT
  8
WHITE
 10
91.000000
 20
151.000000
 30
0.000000
  0
POINT
  8
WHITE
 10
76.000000
 20
151.000000
 30
0.000000
  0
POINT
  8
WHITE
 10
79.000000
 20
196.000000
 30
0.000000
  0
POINT
  8
WHITE
 10
89.000000
 20
196.000000
 30
0.000000
  0
POINT
  8
WHITE
 10
89.000000
 20
251.000000
 30
0.000000
  0
POINT
  8
WHITE
 10
79.000000
 20
251.000000
 30
0.000000
  0
POINT
  8
WHITE
 10
102.000000
 20
141.000000
 30
0.000000
  0
POINT
  8
WHITE
 10
102.000000
 20
134.000000
 30
0.000000
  0
POINT
  8
WHITE
 10
102.000000
 20
127.000000
 30
0.000000
  0
POINT
  8
WHITE
 10
102.000000
 20
120.000000
 30
0.000000
  0
POINT
  8
WHITE
 10
102.000000
 20
113.000000
 30
0.000000
  0
POINT
  8
WHITE
 10
102.000000
 20
106.000000
 30
0.000000
  0
POINT
  8
WHITE
 10
102.000000
 20
99.000000
 30
0.000000
  0
POINT
  8
WHITE
 10
102.000000
 20
92.000000
 30
0.000000
  0
POINT
  8
WHITE
 10
102.000000
 20
85.000000
 30
0.000000
  0
POINT
  8
WHITE
 10
102.000000
 20
78.000000
 30
0.000000
  0
POINT
  8
WHITE
 10
83.500000
 20
80.000000
 30
0.000000
  0
POINT
  8
WHITE
 10
73.500000
 20
85.000000
 30
0.000000
  0
POINT
  8
WHITE
 10
73.500000
 20
92.000000
 30
0.000000
  0
POINT
  8
WHITE
 10
73.500000
 20
99.000000
 30
0.000000
  0
POINT
  8
WHITE
 10
73.500000
 20
106.000000
 30
0.000000
  0
POINT
  8
WHITE
 10
55.000000
 20
106.000000
 30
0.000000
  0
POINT
  8
WHITE
 10
44.025709
 20
101.000000
 30
0.000000
  0
POINT
  8
WHITE
 10
20.000000
 20
80.000000
 30
0.000000
  0
LINE
  8
WHITE
 10
20.000000
 20
80.000000
 30
0.000000
 11
50.000000
 21
80.000000
 31
0.000000
  6
CONTINUOUS
  0
LINE
  8
WHITE
 10
50.000000
 20
80.000000
 30
0.000000
 11
50.000000
 21
94.000000
 31
0.000000
  6
CONTINUOUS
  0
LINE
  8
WHITE
 10
50.000000
 20
94.000000
 30
0.000000
 11
47.000000
 21
94.000000
 31
0.000000
  6
CONTINUOUS
  0
ARC
  8
WHITE
 10
48.687500
 20
101.500000
 30
0.000000
 40
7.687500
 50
102.680383
 51
257.319617
  6
CONTINUOUS
  0
LINE
  8
WHITE
 10
47.000000
 20
109.000000
 30
0.000000
 11
50.000000
 21
109.000000
 31
0.000000
  6
CONTINUOUS
  0
LINE
  8
WHITE
 10
50.000000
 20
109.000000
 30
0.000000
 11
50.000000
 21
144.000000
 31
0.000000
  6
CONTINUOUS
  0
ARC
  8
WHITE
 10
52.000000
 20
144.000000
 30
0.000000
 40
2.000000
 50
90.000000
 51
180.000000
  6
CONTINUOUS
  0
LINE
  8
WHITE
 10
52.000000
 20
146.000000
 30
0.000000
 11
71.000000
 21
146.000000
 31
0.000000
  6
CONTINUOUS
  0
LINE
  8
WHITE
 10
71.000000
 20
146.000000
 30
0.000000
 11
71.000000
 21
191.000000
 31
0.000000
  6
CONTINUOUS
  0
LINE
  8
WHITE
 10
71.000000
 20
191.000000
 30
0.000000
 11
70.500000
 21
191.000000
 31
0.000000
  6
CONTINUOUS
  0
ARC
  8
WHITE
 10
70.500000
 20
193.500000
 30
0.000000
 40
2.500000
 50
90.000000
 51
270.000000
  6
CONTINUOUS
  0
LINE
  8
WHITE
 10
70.500000
 20
196.000000
 30
0.000000
 11
71.000000
 21
196.000000
 31
0.000000
  6
CONTINUOUS
  0
LINE
  8
WHITE
 10
71.000000
 20
196.000000
 30
0.000000
 11
71.000000
 21
246.000000
 31
0.000000
  6
CONTINUOUS
  0
LINE
  8
WHITE
 10
71.000000
 20
246.000000
 30
0.000000
 11
70.500000
 21
246.000000
 31
0.000000
  6
CONTINUOUS
  0
ARC
  8
WHITE
 10
70.500000
 20
248.500000
 30
0.000000
 40
2.500000
 50
90.000000
 51
270.000000
  6
CONTINUOUS
  0
LINE
  8
WHITE
 10
70.500000
 20
251.000000
 30
0.000000
 11
71.000000
 21
251.000000
 31
0.000000
  6
CONTINUOUS
  0
LINE
  8
WHITE
 10
71.000000
 20
251.000000
 30
0.000000
 11
71.000000
 21
291.000000
 31
0.000000
  6
CONTINUOUS
  0
ARC
  8
WHITE
 10
61.000000
 20
291.000000
 30
0.000000
 40
10.000000
 50
0.000000
 51
90.000000
  6
CONTINUOUS
  0
LINE
  8
WHITE
 10
61.000000
 20
301.000000
 30
0.000000
 11
59.000000
 21
301.000000
 31
0.000000
  6
CONTINUOUS
  0
ARC
  8
WHITE
 10
59.000000
 20
299.000000
 30
0.000000
 40
2.000000
 50
90.000000
 51
360.000000
  6
CONTINUOUS
  0
LINE
  8
WHITE
 10
61.000000
 20
299.000000
 30
0.000000
 11
61.000000
 21
308.000000
 31
0.000000
  6
CONTINUOUS
  0
ARC
  8
WHITE
 10
59.000000
 20
308.000000
 30
0.000000
 40
2.000000
 50
0.000000
 51
270.000000
  6
CONTINUOUS
  0
LINE
  8
WHITE
 10
59.000000
 20
306.000000
 30
0.000000
 11
108.000000
 21
306.000000
 31
0.000000
  6
CONTINUOUS
  0
ARC
  8
WHITE
 10
108.000000
 20
308.000000
 30
0.000000
 40
2.000000
 50
-90.000000
 51
180.000000
  6
CONTINUOUS
  0
LINE
  8
WHITE
 10
106.000000
 20
308.000000
 30
0.000000
 11
106.000000
 21
299.000000
 31
0.000000
  6
CONTINUOUS
  0
ARC
  8
WHITE
 10
108.000000
 20
299.000000
 30
0.000000
 40
2.000000
 50
180.000000
 51
450.000000
  6
CONTINUOUS
  0
LINE
  8
WHITE
 10
108.000000
 20
301.000000
 30
0.000000
 11
106.000000
 21
301.000000
 31
0.000000
  6
CONTINUOUS
  0
ARC
  8
WHITE
 10
106.000000
 20
291.000000
 30
0.000000
 40
10.000000
 50
90.000000
 51
180.000000
  6
CONTINUOUS
  0
LINE
  8
WHITE
 10
96.000000
 20
291.000000
 30
0.000000
 11
96.000000
 21
251.000000
 31
0.000000
  6
CONTINUOUS
  0
LINE
  8
WHITE
 10
96.000000
 20
251.000000
 30
0.000000
 11
96.500000
 21
251.000000
 31
0.000000
  6
CONTINUOUS
  0
ARC
  8
WHITE
 10
96.500000
 20
248.500000
 30
0.000000
 40
2.500000
 50
-90.000000
 51
90.000000
  6
CONTINUOUS
  0
LINE
  8
WHITE
 10
96.500000
 20
246.000000
 30
0.000000
 11
96.000000
 21
246.000000
 31
0.000000
  6
CONTINUOUS
  0
LINE
  8
WHITE
 10
96.000000
 20
246.000000
 30
0.000000
 11
96.000000
 21
196.000000
 31
0.000000
  6
CONTINUOUS
  0
LINE
  8
WHITE
 10
96.000000
 20
196.000000
 30
0.000000
 11
96.500000
 21
196.000000
 31
0.000000
  6
CONTINUOUS
  0
ARC
  8
WHITE
 10
96.500000
 20
193.500000
 30
0.000000
 40
2.500000
 50
-90.000000
 51
90.000000
  6
CONTINUOUS
  0
LINE
  8
WHITE
 10
96.500000
 20
191.000000
 30
0.000000
 11
96.000000
 21
191.000000
 31
0.000000
  6
CONTINUOUS
  0
LINE
  8
WHITE
 10
96.000000
 20
191.000000
 30
0.000000
 11
96.000000
 21
146.000000
 31
0.000000
  6
CONTINUOUS
  0
LINE
  8
WHITE
 10
96.000000
 20
146.000000
 30
0.000000
 11
115.000000
 21
146.000000
 31
0.000000
  6
CONTINUOUS
  0
ARC
  8
WHITE
 10
115.000000
 20
144.000000
 30
0.000000
 40
2.000000
 50
0.000000
 51
90.000000
  6
CONTINUOUS
  0
LINE
  8
WHITE
 10
117.000000
 20
144.000000
 30
0.000000
 11
117.000000
 21
141.000000
 31
0.000000
  6
CONTINUOUS
  0
LINE
  8
WHITE
 10
117.000000
 20
141.000000
 30
0.000000
 11
126.000000
 21
141.000000
 31
0.000000
  6
CONTINUOUS
  0
LINE
  8
WHITE
 10
126.000000
 20
141.000000
 30
0.000000
 11
126.000000
 21
181.000000
 31
0.000000
  6
CONTINUOUS
  0
ARC
  8
WHITE
 10
141.000000
 20
181.000000
 30
0.000000
 40
15.000000
 50
0.000000
 51
180.000000
  6
CONTINUOUS
  0
LINE
  8
WHITE
 10
156.000000
 20
181.000000
 30
0.000000
 11
156.000000
 21
141.000000
 31
0.000000
  6
CONTINUOUS
  0
LINE
  8
WHITE
 10
156.000000
 20
141.000000
 30
0.000000
 11
172.500000
 21
141.000000
 31
0.000000
  6
CONTINUOUS
  0
LINE
  8
WHITE
 10
172.500000
 20
141.000000
 30
0.000000
 11
172.500000
 21
146.000000
 31
0.000000
  6
CONTINUOUS
  0
ARC
  8
WHITE
 10
174.500000
 20
146.000000
 30
0.000000
 40
2.000000
 50
149.036243
 51
180.000000
  6
CONTINUOUS
  0
LINE
  8
WHITE
 10
172.785014
 20
147.028992
 30
0.000000
 11
174.214986
 21
149.412278
 31
0.000000
  6
CONTINUOUS
  0
ARC
  8
WHITE
 10
172.500000
 20
150.441269
 30
0.000000
 40
2.000000
 50
-30.963742
 51
0.000000
  6
CONTINUOUS
  0
LINE
  8
WHITE
 10
174.500000
 20
150.441269
 30
0.000000
 11
174.500000
 21
159.959834
 31
0.000000
  6
CONTINUOUS
  0
ARC
  8
WHITE
 10
172.500000
 20
159.959834
 30
0.000000
 40
2.000000
 50
0.000000
 51
50.194429
  6
CONTINUOUS
  0
LINE
  8
WHITE
 10
173.780369
 20
161.496277
 30
0.000000
 11
173.219631
 21
161.963557
 31
0.000000
  6
CONTINUOUS
  0
ARC
  8
WHITE
 10
174.500000
 20
163.500000
 30
0.000000
 40
2.000000
 50
180.000000
 51
230.194433
  6
CONTINUOUS
  0
LINE
  8
WHITE
 10
172.500000
 20
163.500000
 30
0.000000
 11
172.500000
 21
168.500000
 31
0.000000
  6
CONTINUOUS
  0
ARC
  8
WHITE
 10
174.500000
 20
168.500000
 30
0.000000
 40
2.000000
 50
129.805571
 51
180.000000
  6
CONTINUOUS
  0
LINE
  8
WHITE
 10
173.219631
 20
170.036443
 30
0.000000
 11
173.780369
 21
170.503724
 31
0.000000
  6
CONTINUOUS
  0
ARC
  8
WHITE
 10
172.500000
 20
172.040166
 30
0.000000
 40
2.000000
 50
-50.194414
 51
0.000000
  6
CONTINUOUS
  0
LINE
  8
WHITE
 10
174.500000
 20
172.040166
 30
0.000000
 11
174.500000
 21
188.000000
 31
0.000000
  6
CONTINUOUS
  0
ARC
  8
WHITE
 10
177.500000
 20
188.000000
 30
0.000000
 40
3.000000
 50
0.000000
 51
180.000000
  6
CONTINUOUS
  0
LINE
  8
WHITE
 10
180.500000
 20
188.000000
 30
0.000000
 11
180.500000
 21
172.040166
 31
0.000000
  6
CONTINUOUS
  0
ARC
  8
WHITE
 10
182.500000
 20
172.040166
 30
0.000000
 40
2.000000
 50
180.000000
 51
230.194429
  6
CONTINUOUS
  0
LINE
  8
WHITE
 10
181.219631
 20
170.503723
 30
0.000000
 11
181.780369
 21
170.036443
 31
0.000000
  6
CONTINUOUS
  0
ARC
  8
WHITE
 10
180.500000
 20
168.500000
 30
0.000000
 40
2.000000
 50
0.000000
 51
50.194433
  6
CONTINUOUS
  0
LINE
  8
WHITE
 10
182.500000
 20
168.500000
 30
0.000000
 11
182.500000
 21
163.500000
 31
0.000000
  6
CONTINUOUS
  0
ARC
  8
WHITE
 10
180.500000
 20
163.500000
 30
0.000000
 40
2.000000
 50
-50.194429
 51
0.000000
  6
CONTINUOUS
  0
LINE
  8
WHITE
 10
181.780369
 20
161.963557
 30
0.000000
 11
181.219631
 21
161.496276
 31
0.000000
  6
CONTINUOUS
  0
ARC
  8
WHITE
 10
182.500000
 20
159.959834
 30
0.000000
 40
2.000000
 50
129.805586
 51
180.000000
  6
CONTINUOUS
  0
LINE
  8
WHITE
 10
180.500000
 20
159.959834
 30
0.000000
 11
180.500000
 21
150.441269
 31
0.000000
  6
CONTINUOUS
  0
ARC
  8
WHITE
 10
182.500000
 20
150.441269
 30
0.000000
 40
2.000000
 50
180.000000
 51
210.963757
  6
CONTINUOUS
  0
LINE
  8
WHITE
 10
180.785014
 20
149.412277
 30
0.000000
 11
182.214986
 21
147.028992
 31
0.000000
  6
CONTINUOUS
  0
ARC
  8
WHITE
 10
180.500000
 20
146.000000
 30
0.000000
 40
2.000000
 50
0.000000
 51
30.963766
  6
CONTINUOUS
  0
LINE
  8
WHITE
 10
182.500000
 20
146.000000
 30
0.000000
 11
182.500000
 21
141.000000
 31
0.000000
  6
CONTINUOUS
  0
LINE
  8
WHITE
 10
182.500000
 20
141.000000
 30
0.000000
 11
210.500000
 21
141.000000
 31
0.000000
  6
CONTINUOUS
  0
ARC
  8
WHITE
 10
217.500000
 20
143.550000
 30
0.000000
 40
7.450000
 50
159.984040
 51
200.015960
  6
CONTINUOUS
  0
LINE
  8
WHITE
 10
210.500000
 20
146.100000
 30
0.000000
 11
208.500000
 21
151.000000
 31
0.000000
  6
CONTINUOUS
  0
LINE
  8
WHITE
 10
208.500000
 20
151.000000
 30
0.000000
 11
208.500000
 21
161.000000
 31
0.000000
  6
CONTINUOUS
  0
LINE
  8
WHITE
 10
208.500000
 20
161.000000
 30
0.000000
 11
207.500000
 21
161.000000
 31
0.000000
  6
CONTINUOUS
  0
ARC
  8
WHITE
 10
207.500000
 20
162.000000
 30
0.000000
 40
1.000000
 50
90.000000
 51
270.000000
  6
CONTINUOUS
  0
LINE
  8
WHITE
 10
207.500000
 20
163.000000
 30
0.000000
 11
244.000000
 21
163.000000
 31
0.000000
  6
CONTINUOUS
  0
LINE
  8
WHITE
 10
244.000000
 20
163.000000
 30
0.000000
 11
244.000000
 21
165.000000
 31
0.000000
  6
CONTINUOUS
  0
ARC
  8
WHITE
 10
265.000000
 20
150.454545
 30
0.000000
 40
25.545455
 50
97.874904
 51
145.291950
  6
CONTINUOUS
  0
ARC
  8
WHITE
 10
261.325285
 20
177.022262
 30
0.000000
 40
1.275192
 50
-82.125097
 51
26.351973
  6
CONTINUOUS
  0
ARC
  8
WHITE
 10
270.814892
 20
181.723034
 30
0.000000
 40
9.314892
 50
128.627716
 51
206.351976
  6
CONTINUOUS
  0
ARC
  8
WHITE
 10
259.185108
 20
181.723034
 30
0.000000
 40
9.314892
 50
-26.351973
 51
51.372283
  6
CONTINUOUS
  0
ARC
  8
WHITE
 10
268.674715
 20
177.022262
 30
0.000000
 40
1.275193
 50
153.648003
 51
262.125096
  6
CONTINUOUS
  0
ARC
  8
WHITE
 10
265.000000
 20
150.454545
 30
0.000000
 40
25.545454
 50
34.708049
 51
82.125096
  6
CONTINUOUS
  0
LINE
  8
WHITE
 10
286.000000
 20
165.000000
 30
0.000000
 11
286.000000
 21
151.000000
 31
0.000000
  6
CONTINUOUS
  0
LINE
  8
WHITE
 10
286.000000
 20
151.000000
 30
0.000000
 11
290.000000
 21
151.000000
 31
0.000000
  6
CONTINUOUS
  0
ARC
  8
WHITE
 10
290.000000
 20
149.000000
 30
0.000000
 40
2.000000
 50
0.000000
 51
90.000000
  6
CONTINUOUS
  0
LINE
  8
WHITE
 10
292.000000
 20
149.000000
 30
0.000000
 11
292.000000
 21
141.000000
 31
0.000000
  6
CONTINUOUS
  0
LINE
  8
WHITE
 10
292.000000
 20
141.000000
 30
0.000000
 11
296.000000
 21
141.000000
 31
0.000000
  6
CONTINUOUS
  0
LINE
  8
WHITE
 10
296.000000
 20
141.000000
 30
0.000000
 11
291.963963
 21
163.889506
 31
0.000000
  6
CONTINUOUS
  0
ARC
  8
WHITE
 10
294.310279
 20
168.304797
 30
0.000000
 40
4.999999
 50
137.986485
 51
242.013516
  6
CONTINUOUS
  0
LINE
  8
WHITE
 10
290.595344
 20
171.651326
 30
0.000000
 11
289.414664
 21
178.347296
 31
0.000000
  6
CONTINUOUS
  0
ARC
  8
WHITE
 10
287.445048
 20
178.000000
 30
0.000000
 40
2.000000
 50
9.999988
 51
270.000000
  6
CONTINUOUS
  0
LINE
  8
WHITE
 10
287.445048
 20
176.000000
 30
0.000000
 11
293.537608
 21
176.000000
 31
0.000000
  6
CONTINUOUS
  0
ARC
  8
WHITE
 10
293.537608
 20
178.000000
 30
0.000000
 40
2.000000
 50
-90.000000
 51
190.000000
  6
CONTINUOUS
  0
LINE
  8
WHITE
 10
291.567992
 20
177.652704
 30
0.000000
 11
292.744661
 21
170.979484
 31
0.000000
  6
CONTINUOUS
  0
LINE
  8
WHITE
 10
292.744661
 20
170.979484
 30
0.000000
 11
312.012261
 21
164.956735
 31
0.000000
  6
CONTINUOUS
  0
ARC
  8
WHITE
 10
341.727299
 20
163.736707
 30
0.000000
 40
29.740073
 50
130.695522
 51
177.648894
  6
CONTINUOUS
  0
ARC
  8
WHITE
 10
321.031529
 20
187.801564
 30
0.000000
 40
2.000000
 50
-49.304481
 51
23.627060
  6
CONTINUOUS
  0
ARC
  8
WHITE
 10
319.199182
 20
187.000000
 30
0.000000
 40
4.000000
 50
23.627066
 51
90.000000
  6
CONTINUOUS
  0
ARC
  8
WHITE
 10
308.574182
 20
191.000000
 30
0.000000
 40
10.625000
 50
0.000000
 51
25.057615
  6
CONTINUOUS
  0
ARC
  8
WHITE
 10
308.574182
 20
200.000000
 30
0.000000
 40
10.625000
 50
-25.057615
 51
0.000000
  6
CONTINUOUS
  0
ARC
  8
WHITE
 10
341.367711
 20
266.396960
 30
0.000000
 40
70.000000
 50
-116.669348
 51
-108.463065
  6
CONTINUOUS
  0
ARC
  8
WHITE
 10
309.500000
 20
202.950534
 30
0.000000
 40
1.000000
 50
63.330651
 51
360.000000
  6
CONTINUOUS
  0
LINE
  8
WHITE
 10
310.500000
 20
202.950534
 30
0.000000
 11
310.500000
 21
207.022340
 31
0.000000
  6
CONTINUOUS
  0
ARC
  8
WHITE
 10
309.500000
 20
207.022340
 30
0.000000
 40
1.000000
 50
0.000000
 51
243.373338
  6
CONTINUOUS
  0
ARC
  8
WHITE
 10
340.424083
 20
268.704599
 30
0.000000
 40
70.000000
 50
-116.626661
 51
-109.290765
  6
CONTINUOUS
  0
LINE
  8
WHITE
 10
317.298725
 20
202.634804
 30
0.000000
 11
323.567059
 21
226.028548
 31
0.000000
  6
CONTINUOUS
  0
ARC
  8
WHITE
 10
321.635208
 20
226.546186
 30
0.000000
 40
1.999999
 50
-15.000002
 51
261.394932
  6
CONTINUOUS
  0
LINE
  8
WHITE
 10
321.335962
 20
224.568700
 30
0.000000
 11
340.522042
 21
221.665342
 31
0.000000
  6
CONTINUOUS
  0
ARC
  8
WHITE
 10
340.821288
 20
223.642828
 30
0.000000
 40
2.000000
 50
-98.605081
 51
165.000000
  6
CONTINUOUS
  0
LINE
  8
WHITE
 10
338.889436
 20
224.160466
 30
0.000000
 11
332.198504
 21
199.189566
 31
0.000000
  6
CONTINUOUS
  0
ARC
  8
WHITE
 10
340.424083
 20
268.704599
 30
0.000000
 40
70.000000
 50
-96.748320
 51
-88.672037
  6
CONTINUOUS
  0
ARC
  8
WHITE
 10
342.000000
 20
200.722863
 30
0.000000
 40
2.000000
 50
-88.672045
 51
180.000000
  6
CONTINUOUS
  0
LINE
  8
WHITE
 10
340.000000
 20
200.722863
 30
0.000000
 11
340.000000
 21
194.399736
 31
0.000000
  6
CONTINUOUS
  0
ARC
  8
WHITE
 10
342.000000
 20
194.399736
 30
0.000000
 40
2.000000
 50
180.000000
 51
450.503166
  6
CONTINUOUS
  0
ARC
  8
WHITE
 10
341.367711
 20
266.396960
 30
0.000000
 40
70.000000
 50
-97.526168
 51
-89.496834
  6
CONTINUOUS
  0
ARC
  8
WHITE
 10
304.000961
 20
186.759866
 30
0.000000
 40
30.000000
 50
0.458627
 51
19.958401
  6
CONTINUOUS
  0
ARC
  8
WHITE
 10
362.759363
 20
178.461905
 30
0.000000
 40
30.000001
 50
163.464871
 51
180.882209
  6
CONTINUOUS
  0
ARC
  8
WHITE
 10
285.292866
 20
162.296685
 30
0.000000
 40
50.000000
 50
-13.057790
 51
18.304456
  6
CONTINUOUS
  0
ARC
  8
WHITE
 10
353.364917
 20
146.000000
 30
0.000000
 40
20.000000
 50
165.522489
 51
194.477512
  6
CONTINUOUS
  0
LINE
  8
WHITE
 10
334.000000
 20
141.000000
 30
0.000000
 11
343.000000
 21
141.000000
 31
0.000000
  6
CONTINUOUS
  0
ARC
  8
WHITE
 10
343.000000
 20
139.000000
 30
0.000000
 40
2.000000
 50
0.000000
 51
90.000000
  6
CONTINUOUS
  0
LINE
  8
WHITE
 10
345.000000
 20
139.000000
 30
0.000000
 11
345.000000
 21
80.000000
 31
0.000000
  6
CONTINUOUS
  0
LINE
  8
WHITE
 10
345.000000
 20
80.000000
 30
0.000000
 11
350.000000
 21
80.000000
 31
0.000000
  6
CONTINUOUS
  0
LINE
  8
WHITE
 10
350.000000
 20
80.000000
 30
0.000000
 11
350.000000
 21
82.875000
 31
0.000000
  6
CONTINUOUS
  0
ARC
  8
WHITE
 10
349.000000
 20
82.875000
 30
0.000000
 40
1.000000
 50
0.000000
 51
270.000000
  6
CONTINUOUS
  0
LINE
  8
WHITE
 10
349.000000
 20
81.875000
 30
0.000000
 11
356.000000
 21
81.875000
 31
0.000000
  6
CONTINUOUS
  0
ARC
  8
WHITE
 10
356.000000
 20
82.875000
 30
0.000000
 40
1.000000
 50
-90.000000
 51
180.000000
  6
CONTINUOUS
  0
LINE
  8
WHITE
 10
355.000000
 20
82.875000
 30
0.000000
 11
355.000000
 21
63.125000
 31
0.000000
  6
CONTINUOUS
  0
ARC
  8
WHITE
 10
356.000000
 20
63.125000
 30
0.000000
 40
1.000000
 50
180.000000
 51
450.000000
  6
CONTINUOUS
  0
LINE
  8
WHITE
 10
356.000000
 20
64.125000
 30
0.000000
 11
350.000000
 21
64.125000
 31
0.000000
  6
CONTINUOUS
  0
LINE
  8
WHITE
 10
350.000000
 20
64.125000
 30
0.000000
 11
350.000000
 21
64.715035
 31
0.000000
  6
CONTINUOUS
  0
ARC
  8
WHITE
 10
349.900000
 20
64.715035
 30
0.000000
 40
0.100000
 50
0.000000
 51
138.820167
  6
CONTINUOUS
  0
LINE
  8
WHITE
 10
349.824735
 20
64.780877
 30
0.000000
 11
346.954583
 21
61.500000
 31
0.000000
  6
CONTINUOUS
  0
LINE
  8
WHITE
 10
346.954583
 20
61.500000
 30
0.000000
 11
350.000000
 21
61.500000
 31
0.000000
  6
CONTINUOUS
  0
LINE
  8
WHITE
 10
350.000000
 20
61.500000
 30
0.000000
 11
350.000000
 21
59.500000
 31
0.000000
  6
CONTINUOUS
  0
LINE
  8
WHITE
 10
350.000000
 20
59.500000
 30
0.000000
 11
345.204959
 21
59.500000
 31
0.000000
  6
CONTINUOUS
  0
LINE
  8
WHITE
 10
345.204959
 20
59.500000
 30
0.000000
 11
343.455334
 21
57.500000
 31
0.000000
  6
CONTINUOUS
  0
LINE
  8
WHITE
 10
343.455334
 20
57.500000
 30
0.000000
 11
344.664884
 21
57.500000
 31
0.000000
  6
CONTINUOUS
  0
LINE
  8
WHITE
 10
344.664884
 20
57.500000
 30
0.000000
 11
344.664888
 21
55.499993
 31
0.000000
  6
CONTINUOUS
  0
ARC
  8
WHITE
 10
313.500000
 20
36.500000
 30
0.000000
 40
36.500000
 50
175.285439
 51
391.369001
  6
CONTINUOUS
  0
LINE
  8
WHITE
 10
277.123497
 20
39.500000
 30
0.000000
 11
266.251829
 21
39.500000
 31
0.000000
  6
CONTINUOUS
  0
ARC
  8
WHITE
 10
215.000000
 20
53.000000
 30
0.000000
 40
53.000000
 50
-165.243184
 51
-14.756816
  6
CONTINUOUS
  0
LINE
  8
WHITE
 10
163.748171
 20
39.500000
 30
0.000000
 11
152.876503
 21
39.500000
 31
0.000000
  6
CONTINUOUS
  0
ARC
  8
WHITE
 10
116.500000
 20
36.500000
 30
0.000000
 40
36.500000
 50
175.285439
 51
364.714561
  6
CONTINUOUS
  0
LINE
  8
WHITE
 10
80.123497
 20
39.500000
 30
0.000000
 11
45.000000
 21
39.500000
 31
0.000000
  6
CONTINUOUS
  0
LINE
  8
WHITE
 10
45.000000
 20
39.500000
 30
0.000000
 11
45.000000
 21
48.500000
 31
0.000000
  6
CONTINUOUS
  0
LINE
  8
WHITE
 10
45.000000
 20
48.500000
 30
0.000000
 11
42.000000
 21
48.500000
 31
0.000000
  6
CONTINUOUS
  0
LINE
  8
WHITE
 10
42.000000
 20
48.500000
 30
0.000000
 11
42.000000
 21
50.500000
 31
0.000000
  6
CONTINUOUS
  0
LINE
  8
WHITE
 10
42.000000
 20
50.500000
 30
0.000000
 11
45.000000
 21
50.500000
 31
0.000000
  6
CONTINUOUS
  0
LINE
  8
WHITE
 10
45.000000
 20
50.500000
 30
0.000000
 11
45.000000
 21
52.500000
 31
0.000000
  6
CONTINUOUS
  0
LINE
  8
WHITE
 10
45.000000
 20
52.500000
 30
0.000000
 11
42.000000
 21
52.500000
 31
0.000000
  6
CONTINUOUS
  0
LINE
  8
WHITE
 10
42.000000
 20
52.500000
 30
0.000000
 11
42.000000
 21
54.500000
 31
0.000000
  6
CONTINUOUS
  0
LINE
  8
WHITE
 10
42.000000
 20
54.500000
 30
0.000000
 11
44.709044
 21
54.500000
 31
0.000000
  6
CONTINUOUS
  0
ARC
  8
WHITE
 10
44.709044
 20
54.790956
 30
0.000000
 40
0.290956
 50
-90.000000
 51
76.063757
  6
CONTINUOUS
  0
LINE
  8
WHITE
 10
44.779118
 20
55.073348
 30
0.000000
 11
35.000000
 21
57.500000
 31
0.000000
  6
CONTINUOUS
  0
LINE
  8
WHITE
 10
35.000000
 20
57.500000
 30
0.000000
 11
35.000000
 21
46.500000
 31
0.000000
  6
CONTINUOUS
  0
LINE
  8
WHITE
 10
35.000000
 20
46.500000
 30
0.000000
 11
20.000000
 21
46.500000
 31
0.000000
  6
CONTINUOUS
  0
LINE
  8
WHITE
 10
20.000000
 20
46.500000
 30
0.000000
 11
20.000000
 21
53.500000
 31
0.000000
  6
CONTINUOUS
  0
LINE
  8
WHITE
 10
20.000000
 20
53.500000
 30
0.000000
 11
12.000000
 21
53.500000
 31
0.000000
  6
CONTINUOUS
  0
LINE
  8
WHITE
 10
12.000000
 20
53.500000
 30
0.000000
 11
12.000000
 21
50.500000
 31
0.000000
  6
CONTINUOUS
  0
LINE
  8
WHITE
 10
12.000000
 20
50.500000
 30
0.000000
 11
3.000000
 21
50.500000
 31
0.000000
  6
CONTINUOUS
  0
ARC
  8
WHITE
 10
3.000000
 20
53.500000
 30
0.000000
 40
3.000000
 50
180.000000
 51
270.000000
  6
CONTINUOUS
  0
LINE
  8
WHITE
 10
0.000000
 20
53.500000
 30
0.000000
 11
0.000000
 21
66.500000
 31
0.000000
  6
CONTINUOUS
  0
ARC
  8
WHITE
 10
3.000000
 20
66.500000
 30
0.000000
 40
3.000000
 50
90.000000
 51
180.000000
  6
CONTINUOUS
  0
LINE
  8
WHITE
 10
3.000000
 20
69.500000
 30
0.000000
 11
12.000000
 21
69.500000
 31
0.000000
  6
CONTINUOUS
  0
LINE
  8
WHITE
 10
12.000000
 20
69.500000
 30
0.000000
 11
12.000000
 21
66.500000
 31
0.000000
  6
CONTINUOUS
  0
LINE
  8
WHITE
 10
12.000000
 20
66.500000
 30
0.000000
 11
20.000000
 21
66.500000
 31
0.000000
  6
CONTINUOUS
  0
LINE
  8
WHITE
 10
20.000000
 20
66.500000
 30
0.000000
 11
20.000000
 21
80.000000
 31
0.000000
  6
CONTINUOUS
  0
LINE
  8
WHITE
 10
350.000000
 20
75.000000
 30
0.000000
 11
25.000000
 21
75.000000
 31
0.000000
  6
CONTINUOUS
  0
LINE
  8
WHITE
 10
25.000000
 20
75.000000
 30
0.000000
 11
25.000000
 21
51.500000
 31
0.000000
  6
CONTINUOUS
  0
LINE
  8
WHITE
 10
25.000000
 20
51.500000
 30
0.000000
 11
30.000000
 21
51.500000
 31
0.000000
  6
CONTINUOUS
  0
LINE
  8
WHITE
 10
30.000000
 20
51.500000
 30
0.000000
 11
30.000000
 21
71.500000
 31
0.000000
  6
CONTINUOUS
  0
LINE
  8
WHITE
 10
30.000000
 20
71.500000
 30
0.000000
 11
350.000000
 21
71.500000
 31
0.000000
  6
CONTINUOUS
  0
LINE
  8
WHITE
 10
350.000000
 20
71.500000
 30
0.000000
 11
350.000000
 21
75.000000
 31
0.000000
  6
CONTINUOUS
  0
LINE
  8
WHITE
 10
131.000000
 20
181.000000
 30
0.000000
 11
131.000000
 21
141.000000
 31
0.000000
  6
CONTINUOUS
  0
ARC
  8
WHITE
 10
141.000000
 20
153.535714
 30
0.000000
 40
16.035714
 50
-128.580093
 51
-82.835321
  6
CONTINUOUS
  0
LINE
  8
WHITE
 10
143.000000
 20
137.625210
 30
0.000000
 11
143.000000
 21
190.797959
 31
0.000000
  6
CONTINUOUS
  0
ARC
  8
WHITE
 10
141.000000
 20
181.000000
 30
0.000000
 40
10.000000
 50
78.463041
 51
180.000000
  6
CONTINUOUS
  0
LINE
  8
WHITE
 10
76.000000
 20
251.000000
 30
0.000000
 11
85.000000
 21
251.000000
 31
0.000000
  6
CONTINUOUS
  0
LINE
  8
WHITE
 10
85.000000
 20
251.000000
 30
0.000000
 11
85.000000
 21
291.000000
 31
0.000000
  6
CONTINUOUS
  0
ARC
  8
WHITE
 10
95.642857
 20
291.000000
 30
0.000000
 40
10.642857
 50
115.335068
 51
180.000000
  6
CONTINUOUS
  0
ARC
  8
WHITE
 10
91.003078
 20
300.800000
 30
0.000000
 40
0.200000
 50
-64.664984
 51
90.000000
  6
CONTINUOUS
  0
LINE
  8
WHITE
 10
91.003078
 20
301.000000
 30
0.000000
 11
68.828427
 21
301.000000
 31
0.000000
  6
CONTINUOUS
  0
ARC
  8
WHITE
 10
68.828427
 20
300.800000
 30
0.000000
 40
0.200000
 50
90.000000
 51
253.901066
  6
CONTINUOUS
  0
ARC
  8
WHITE
 10
66.000000
 20
291.000000
 30
0.000000
 40
10.000000
 50
0.000000
 51
73.901067
  6
CONTINUOUS
  0
LINE
  8
WHITE
 10
76.000000
 20
291.000000
 30
0.000000
 11
76.000000
 21
251.000000
 31
0.000000
  6
CONTINUOUS
  0
LINE
  8
WHITE
 10
76.000000
 20
196.000000
 30
0.000000
 11
85.000000
 21
196.000000
 31
0.000000
  6
CONTINUOUS
  0
LINE
  8
WHITE
 10
85.000000
 20
196.000000
 30
0.000000
 11
85.000000
 21
246.000000
 31
0.000000
  6
CONTINUOUS
  0
LINE
  8
WHITE
 10
85.000000
 20
246.000000
 30
0.000000
 11
76.000000
 21
246.000000
 31
0.000000
  6
CONTINUOUS
  0
LINE
  8
WHITE
 10
76.000000
 20
246.000000
 30
0.000000
 11
76.000000
 21
196.000000
 31
0.000000
  6
CONTINUOUS
  0
LINE
  8
WHITE
 10
76.000000
 20
191.000000
 30
0.000000
 11
76.000000
 21
146.000000
 31
0.000000
  6
CONTINUOUS
  0
ARC
  8
WHITE
 10
83.500000
 20
156.000000
 30
0.000000
 40
12.500000
 50
-126.869898
 51
-83.107897
  6
CONTINUOUS
  0
LINE
  8
WHITE
 10
85.000000
 20
143.590326
 30
0.000000
 11
85.000000
 21
191.000000
 31
0.000000
  6
CONTINUOUS
  0
LINE
  8
WHITE
 10
85.000000
 20
191.000000
 30
0.000000
 11
76.000000
 21
191.000000
 31
0.000000
  6
CONTINUOUS
  0
ARC
  8
WHITE
 10
283.071703
 20
161.296685
 30
0.000000
 40
50.000000
 50
-11.884162
 51
11.884163
  6
CONTINUOUS
  0
LINE
  8
WHITE
 10
332.000000
 20
171.593370
 30
0.000000
 11
315.855777
 21
155.449148
 31
0.000000
  6
CONTINUOUS
  0
ARC
  8
WHITE
 10
314.441563
 20
156.863361
 30
0.000000
 40
2.000000
 50
-107.358423
 51
-44.999980
  6
CONTINUOUS
  0
LINE
  8
WHITE
 10
313.844866
 20
154.954447
 30
0.000000
 11
311.578675
 21
155.662823
 31
0.000000
  6
CONTINUOUS
  0
LINE
  8
WHITE
 10
311.578675
 20
155.662823
 30
0.000000
 11
315.000000
 21
141.000000
 31
0.000000
  6
CONTINUOUS
  0
LINE
  8
WHITE
 10
315.000000
 20
141.000000
 30
0.000000
 11
332.000000
 21
141.000000
 31
0.000000
  6
CONTINUOUS
  0
ARC
  8
WHITE
 10
351.364917
 20
146.000000
 30
0.000000
 40
20.000000
 50
165.522488
 51
194.477512
  6
CONTINUOUS
  0
ARC
  8
WHITE
 10
215.000000
 20
53.000000
 30
0.000000
 40
48.000000
 50
-117.611985
 51
-92.388015
  6
CONTINUOUS
  0
LINE
  8
WHITE
 10
213.000000
 20
5.041685
 30
0.000000
 11
213.000000
 21
39.500000
 31
0.000000
  6
CONTINUOUS
  0
LINE
  8
WHITE
 10
213.000000
 20
39.500000
 30
0.000000
 11
209.500000
 21
39.500000
 31
0.000000
  6
CONTINUOUS
  0
LINE
  8
WHITE
 10
209.500000
 20
39.500000
 30
0.000000
 11
209.500000
 21
34.500000
 31
0.000000
  6
CONTINUOUS
  0
LINE
  8
WHITE
 10
209.500000
 20
34.500000
 30
0.000000
 11
206.628421
 21
34.500000
 31
0.000000
  6
CONTINUOUS
  0
LINE
  8
WHITE
 10
206.628421
 20
34.500000
 30
0.000000
 11
192.752893
 21
10.466881
 31
0.000000
  6
CONTINUOUS
  0
ARC
  8
WHITE
 10
215.000000
 20
53.000000
 30
0.000000
 40
48.000000
 50
-87.611985
 51
-62.388015
  6
CONTINUOUS
  0
LINE
  8
WHITE
 10
237.247107
 20
10.466881
 30
0.000000
 11
223.371579
 21
34.500000
 31
0.000000
  6
CONTINUOUS
  0
LINE
  8
WHITE
 10
223.371579
 20
34.500000
 30
0.000000
 11
220.500000
 21
34.500000
 31
0.000000
  6
CONTINUOUS
  0
LINE
  8
WHITE
 10
220.500000
 20
34.500000
 30
0.000000
 11
220.500000
 21
39.500000
 31
0.000000
  6
CONTINUOUS
  0
LINE
  8
WHITE
 10
220.500000
 20
39.500000
 30
0.000000
 11
217.000000
 21
39.500000
 31
0.000000
  6
CONTINUOUS
  0
LINE
  8
WHITE
 10
217.000000
 20
39.500000
 30
0.000000
 11
217.000000
 21
5.041685
 31
0.000000
  6
CONTINUOUS
  0
LINE
  8
WHITE
 10
234.000000
 20
136.000000
 30
0.000000
 11
180.000000
 21
136.000000
 31
0.000000
  6
CONTINUOUS
  0
LINE
  8
WHITE
 10
180.000000
 20
136.000000
 30
0.000000
 11
180.000000
 21
129.000000
 31
0.000000
  6
CONTINUOUS
  0
LINE
  8
WHITE
 10
180.000000
 20
129.000000
 30
0.000000
 11
234.000000
 21
129.000000
 31
0.000000
  6
CONTINUOUS
  0
LINE
  8
WHITE
 10
234.000000
 20
129.000000
 30
0.000000
 11
234.000000
 21
136.000000
 31
0.000000
  6
CONTINUOUS
  0
LINE
  8
WHITE
 10
195.617314
 20
39.500000
 30
0.000000
 11
174.466881
 21
27.288792
 31
0.000000
  6
CONTINUOUS
  0
ARC
  8
WHITE
 10
215.000000
 20
53.000000
 30
0.000000
 40
48.000000
 50
-147.611985
 51
-122.388015
  6
CONTINUOUS
  0
LINE
  8
WHITE
 10
189.288792
 20
12.466881
 30
0.000000
 11
202.009619
 21
34.500000
 31
0.000000
  6
CONTINUOUS
  0
LINE
  8
WHITE
 10
202.009619
 20
34.500000
 30
0.000000
 11
199.775521
 21
34.500000
 31
0.000000
  6
CONTINUOUS
  0
LINE
  8
WHITE
 10
199.775521
 20
34.500000
 30
0.000000
 11
198.893886
 21
39.500000
 31
0.000000
  6
CONTINUOUS
  0
LINE
  8
WHITE
 10
198.893886
 20
39.500000
 30
0.000000
 11
195.617314
 21
39.500000
 31
0.000000
  6
CONTINUOUS
  0
LINE
  8
WHITE
 10
255.533119
 20
27.288792
 30
0.000000
 11
234.382686
 21
39.500000
 31
0.000000
  6
CONTINUOUS
  0
LINE
  8
WHITE
 10
234.382686
 20
39.500000
 30
0.000000
 11
231.106114
 21
39.500000
 31
0.000000
  6
CONTINUOUS
  0
LINE
  8
WHITE
 10
231.106114
 20
39.500000
 30
0.000000
 11
230.224479
 21
34.500000
 31
0.000000
  6
CONTINUOUS
  0
LINE
  8
WHITE
 10
230.224479
 20
34.500000
 30
0.000000
 11
227.990381
 21
34.500000
 31
0.000000
  6
CONTINUOUS
  0
LINE
  8
WHITE
 10
227.990381
 20
34.500000
 30
0.000000
 11
240.711208
 21
12.466881
 31
0.000000
  6
CONTINUOUS
  0
ARC
  8
WHITE
 10
215.000000
 20
53.000000
 30
0.000000
 40
48.000000
 50
-57.611985
 51
-32.388015
  6
CONTINUOUS
  0
LINE
  8
WHITE
 10
244.000000
 20
151.000000
 30
0.000000
 11
244.000000
 21
161.000000
 31
0.000000
  6
CONTINUOUS
  0
LINE
  8
WHITE
 10
244.000000
 20
161.000000
 30
0.000000
 11
218.500000
 21
161.000000
 31
0.000000
  6
CONTINUOUS
  0
LINE
  8
WHITE
 10
218.500000
 20
161.000000
 30
0.000000
 11
218.500000
 21
150.932581
 31
0.000000
  6
CONTINUOUS
  0
ARC
  8
WHITE
 10
217.500000
 20
143.550000
 30
0.000000
 40
7.450000
 50
20.015960
 51
82.286008
  6
CONTINUOUS
  0
LINE
  8
WHITE
 10
224.500000
 20
146.100000
 30
0.000000
 11
224.500000
 21
141.000000
 31
0.000000
  6
CONTINUOUS
  0
LINE
  8
WHITE
 10
224.500000
 20
141.000000
 30
0.000000
 11
234.000000
 21
141.000000
 31
0.000000
  6
CONTINUOUS
  0
LINE
  8
WHITE
 10
234.000000
 20
141.000000
 30
0.000000
 11
234.000000
 21
149.000000
 31
0.000000
  6
CONTINUOUS
  0
ARC
  8
WHITE
 10
236.000000
 20
149.000000
 30
0.000000
 40
2.000000
 50
90.000000
 51
180.000000
  6
CONTINUOUS
  0
LINE
  8
WHITE
 10
236.000000
 20
151.000000
 30
0.000000
 11
244.000000
 21
151.000000
 31
0.000000
  6
CONTINUOUS
  0
LINE
  8
WHITE
 10
127.686473
 20
136.000000
 30
0.000000
 11
117.000000
 21
136.000000
 31
0.000000
  6
CONTINUOUS
  0
LINE
  8
WHITE
 10
117.000000
 20
136.000000
 30
0.000000
 11
117.000000
 21
129.000000
 31
0.000000
  6
CONTINUOUS
  0
LINE
  8
WHITE
 10
117.000000
 20
129.000000
 30
0.000000
 11
175.000000
 21
129.000000
 31
0.000000
  6
CONTINUOUS
  0
LINE
  8
WHITE
 10
175.000000
 20
129.000000
 30
0.000000
 11
175.000000
 21
136.000000
 31
0.000000
  6
CONTINUOUS
  0
LINE
  8
WHITE
 10
175.000000
 20
136.000000
 30
0.000000
 11
154.313527
 21
136.000000
 31
0.000000
  6
CONTINUOUS
  0
ARC
  8
WHITE
 10
154.313527
 20
133.000000
 30
0.000000
 40
3.000000
 50
90.000000
 51
119.458469
  6
CONTINUOUS
  0
ARC
  8
WHITE
 10
141.000000
 20
156.571429
 30
0.000000
 40
24.071429
 50
-119.458469
 51
-60.541531
  6
CONTINUOUS
  0
ARC
  8
WHITE
 10
127.686473
 20
133.000000
 30
0.000000
 40
3.000000
 50
60.541534
 51
90.000000
  6
CONTINUOUS
  0
ARC
  8
WHITE
 10
215.000000
 20
53.000000
 30
0.000000
 40
53.000000
 50
165.243184
 51
190.325803
  6
CONTINUOUS
  0
LINE
  8
WHITE
 10
163.748171
 20
66.500000
 30
0.000000
 11
145.841665
 21
66.500000
 31
0.000000
  6
CONTINUOUS
  0
ARC
  8
WHITE
 10
145.841665
 20
66.400000
 30
0.000000
 40
0.100000
 50
90.000000
 51
247.380135
  6
CONTINUOUS
  0
ARC
  8
WHITE
 10
144.841665
 20
64.000000
 30
0.000000
 40
2.500000
 50
-67.380135
 51
67.380135
  6
CONTINUOUS
  0
ARC
  8
WHITE
 10
145.841665
 20
61.600000
 30
0.000000
 40
0.100000
 50
112.619865
 51
270.000000
  6
CONTINUOUS
  0
LINE
  8
WHITE
 10
145.841665
 20
61.500000
 30
0.000000
 11
153.000000
 21
61.500000
 31
0.000000
  6
CONTINUOUS
  0
LINE
  8
WHITE
 10
153.000000
 20
61.500000
 30
0.000000
 11
153.000000
 21
59.500000
 31
0.000000
  6
CONTINUOUS
  0
LINE
  8
WHITE
 10
153.000000
 20
59.500000
 30
0.000000
 11
134.843871
 21
59.500000
 31
0.000000
  6
CONTINUOUS
  0
LINE
  8
WHITE
 10
134.843871
 20
59.500000
 30
0.000000
 11
134.598301
 21
57.500000
 31
0.000000
  6
CONTINUOUS
  0
LINE
  8
WHITE
 10
134.598301
 20
57.500000
 30
0.000000
 11
147.341665
 21
57.500000
 31
0.000000
  6
CONTINUOUS
  0
LINE
  8
WHITE
 10
147.341665
 20
57.500000
 30
0.000000
 11
147.341665
 21
56.020289
 31
0.000000
  6
CONTINUOUS
  0
ARC
  8
WHITE
 10
116.500000
 20
36.500000
 30
0.000000
 40
36.500000
 50
11.056729
 51
32.330514
  6
CONTINUOUS
  0
LINE
  8
WHITE
 10
152.322479
 20
43.500000
 30
0.000000
 11
162.858366
 21
43.500000
 31
0.000000
  6
CONTINUOUS
  0
LINE
  8
WHITE
 10
292.000000
 20
136.000000
 30
0.000000
 11
292.000000
 21
80.000000
 31
0.000000
  6
CONTINUOUS
  0
LINE
  8
WHITE
 10
292.000000
 20
80.000000
 30
0.000000
 11
297.700000
 21
80.000000
 31
0.000000
  6
CONTINUOUS
  0
LINE
  8
WHITE
 10
297.700000
 20
80.000000
 30
0.000000
 11
297.700000
 21
136.000000
 31
0.000000
  6
CONTINUOUS
  0
LINE
  8
WHITE
 10
297.700000
 20
136.000000
 30
0.000000
 11
292.000000
 21
136.000000
 31
0.000000
  6
CONTINUOUS
  0
LINE
  8
WHITE
 10
282.335116
 20
55.500000
 30
0.000000
 11
282.335116
 21
57.500000
 31
0.000000
  6
CONTINUOUS
  0
LINE
  8
WHITE
 10
282.335116
 20
57.500000
 30
0.000000
 11
295.401699
 21
57.500000
 31
0.000000
  6
CONTINUOUS
  0
LINE
  8
WHITE
 10
295.401699
 20
57.500000
 30
0.000000
 11
295.156129
 21
59.500000
 31
0.000000
  6
CONTINUOUS
  0
LINE
  8
WHITE
 10
295.156129
 20
59.500000
 30
0.000000
 11
277.000000
 21
59.500000
 31
0.000000
  6
CONTINUOUS
  0
LINE
  8
WHITE
 10
277.000000
 20
59.500000
 30
0.000000
 11
277.000000
 21
66.500000
 31
0.000000
  6
CONTINUOUS
  0
LINE
  8
WHITE
 10
277.000000
 20
66.500000
 30
0.000000
 11
266.251829
 21
66.500000
 31
0.000000
  6
CONTINUOUS
  0
ARC
  8
WHITE
 10
215.000000
 20
53.000000
 30
0.000000
 40
53.000000
 50
-10.325803
 51
14.756816
  6
CONTINUOUS
  0
LINE
  8
WHITE
 10
267.141634
 20
43.500000
 30
0.000000
 11
277.677521
 21
43.500000
 31
0.000000
  6
CONTINUOUS
  0
ARC
  8
WHITE
 10
313.500000
 20
36.500000
 30
0.000000
 40
36.500000
 50
148.630986
 51
168.943271
  6
CONTINUOUS
  0
ARC
  8
WHITE
 10
215.000000
 20
53.000000
 30
0.000000
 40
48.000000
 50
179.403158
 51
191.415158
  6
CONTINUOUS
  0
LINE
  8
WHITE
 10
167.949495
 20
43.500000
 30
0.000000
 11
194.545517
 21
43.500000
 31
0.000000
  6
CONTINUOUS
  0
LINE
  8
WHITE
 10
194.545517
 20
43.500000
 30
0.000000
 11
197.851973
 21
45.408983
 31
0.000000
  6
CONTINUOUS
  0
LINE
  8
WHITE
 10
197.851973
 20
45.408983
 30
0.000000
 11
196.425308
 21
53.500000
 31
0.000000
  6
CONTINUOUS
  0
LINE
  8
WHITE
 10
196.425308
 20
53.500000
 30
0.000000
 11
167.002604
 21
53.500000
 31
0.000000
  6
CONTINUOUS
  0
ARC
  8
WHITE
 10
215.000000
 20
53.000000
 30
0.000000
 40
48.000000
 50
-11.415158
 51
0.596842
  6
CONTINUOUS
  0
LINE
  8
WHITE
 10
262.997396
 20
53.500000
 30
0.000000
 11
233.574692
 21
53.500000
 31
0.000000
  6
CONTINUOUS
  0
LINE
  8
WHITE
 10
233.574692
 20
53.500000
 30
0.000000
 11
232.148027
 21
45.408983
 31
0.000000
  6
CONTINUOUS
  0
LINE
  8
WHITE
 10
232.148027
 20
45.408983
 30
0.000000
 11
235.454483
 21
43.500000
 31
0.000000
  6
CONTINUOUS
  0
LINE
  8
WHITE
 10
235.454483
 20
43.500000
 30
0.000000
 11
262.050505
 21
43.500000
 31
0.000000
  6
CONTINUOUS
  0
LINE
  8
WHITE
 10
334.700000
 20
136.000000
 30
0.000000
 11
334.700000
 21
80.000000
 31
0.000000
  6
CONTINUOUS
  0
LINE
  8
WHITE
 10
334.700000
 20
80.000000
 30
0.000000
 11
340.000000
 21
80.000000
 31
0.000000
  6
CONTINUOUS
  0
LINE
  8
WHITE
 10
340.000000
 20
80.000000
 30
0.000000
 11
340.000000
 21
134.000000
 31
0.000000
  6
CONTINUOUS
  0
ARC
  8
WHITE
 10
338.000000
 20
134.000000
 30
0.000000
 40
2.000000
 50
0.000000
 51
90.000000
  6
CONTINUOUS
  0
LINE
  8
WHITE
 10
338.000000
 20
136.000000
 30
0.000000
 11
334.700000
 21
136.000000
 31
0.000000
  6
CONTINUOUS
  0
LINE
  8
WHITE
 10
175.000000
 20
120.000000
 30
0.000000
 11
117.000000
 21
120.000000
 31
0.000000
  6
CONTINUOUS
  0
LINE
  8
WHITE
 10
117.000000
 20
120.000000
 30
0.000000
 11
117.000000
 21
115.000000
 31
0.000000
  6
CONTINUOUS
  0
LINE
  8
WHITE
 10
117.000000
 20
115.000000
 30
0.000000
 11
175.000000
 21
115.000000
 31
0.000000
  6
CONTINUOUS
  0
LINE
  8
WHITE
 10
175.000000
 20
115.000000
 30
0.000000
 11
175.000000
 21
120.000000
 31
0.000000
  6
CONTINUOUS
  0
LINE
  8
WHITE
 10
175.000000
 20
127.000000
 30
0.000000
 11
117.000000
 21
127.000000
 31
0.000000
  6
CONTINUOUS
  0
LINE
  8
WHITE
 10
117.000000
 20
127.000000
 30
0.000000
 11
117.000000
 21
122.000000
 31
0.000000
  6
CONTINUOUS
  0
LINE
  8
WHITE
 10
117.000000
 20
122.000000
 30
0.000000
 11
175.000000
 21
122.000000
 31
0.000000
  6
CONTINUOUS
  0
LINE
  8
WHITE
 10
175.000000
 20
122.000000
 30
0.000000
 11
175.000000
 21
127.000000
 31
0.000000
  6
CONTINUOUS
  0
LINE
  8
WHITE
 10
151.000000
 20
141.000000
 30
0.000000
 11
151.000000
 21
181.000000
 31
0.000000
  6
CONTINUOUS
  0
ARC
  8
WHITE
 10
141.000000
 20
181.000000
 30
0.000000
 40
10.000000
 50
0.000000
 51
66.421822
  6
CONTINUOUS
  0
LINE
  8
WHITE
 10
145.000000
 20
190.165151
 30
0.000000
 11
145.000000
 21
138.006898
 31
0.000000
  6
CONTINUOUS
  0
ARC
  8
WHITE
 10
141.000000
 20
153.535714
 30
0.000000
 40
16.035714
 50
-75.555433
 51
-51.419908
  6
CONTINUOUS
  0
LINE
  8
WHITE
 10
112.000000
 20
120.000000
 30
0.000000
 11
55.000000
 21
120.000000
 31
0.000000
  6
CONTINUOUS
  0
LINE
  8
WHITE
 10
55.000000
 20
120.000000
 30
0.000000
 11
55.000000
 21
115.000000
 31
0.000000
  6
CONTINUOUS
  0
LINE
  8
WHITE
 10
55.000000
 20
115.000000
 30
0.000000
 11
112.000000
 21
115.000000
 31
0.000000
  6
CONTINUOUS
  0
LINE
  8
WHITE
 10
112.000000
 20
115.000000
 30
0.000000
 11
112.000000
 21
120.000000
 31
0.000000
  6
CONTINUOUS
  0
LINE
  8
WHITE
 10
112.000000
 20
127.000000
 30
0.000000
 11
55.000000
 21
127.000000
 31
0.000000
  6
CONTINUOUS
  0
LINE
  8
WHITE
 10
55.000000
 20
127.000000
 30
0.000000
 11
55.000000
 21
122.000000
 31
0.000000
  6
CONTINUOUS
  0
LINE
  8
WHITE
 10
55.000000
 20
122.000000
 30
0.000000
 11
112.000000
 21
122.000000
 31
0.000000
  6
CONTINUOUS
  0
LINE
  8
WHITE
 10
112.000000
 20
122.000000
 30
0.000000
 11
112.000000
 21
127.000000
 31
0.000000
  6
CONTINUOUS
  0
LINE
  8
WHITE
 10
112.000000
 20
134.000000
 30
0.000000
 11
55.000000
 21
134.000000
 31
0.000000
  6
CONTINUOUS
  0
LINE
  8
WHITE
 10
55.000000
 20
134.000000
 30
0.000000
 11
55.000000
 21
129.000000
 31
0.000000
  6
CONTINUOUS
  0
LINE
  8
WHITE
 10
55.000000
 20
129.000000
 30
0.000000
 11
112.000000
 21
129.000000
 31
0.000000
  6
CONTINUOUS
  0
LINE
  8
WHITE
 10
112.000000
 20
129.000000
 30
0.000000
 11
112.000000
 21
134.000000
 31
0.000000
  6
CONTINUOUS
  0
LINE
  8
WHITE
 10
234.000000
 20
127.000000
 30
0.000000
 11
180.000000
 21
127.000000
 31
0.000000
  6
CONTINUOUS
  0
LINE
  8
WHITE
 10
180.000000
 20
127.000000
 30
0.000000
 11
180.000000
 21
122.000000
 31
0.000000
  6
CONTINUOUS
  0
LINE
  8
WHITE
 10
180.000000
 20
122.000000
 30
0.000000
 11
234.000000
 21
122.000000
 31
0.000000
  6
CONTINUOUS
  0
LINE
  8
WHITE
 10
234.000000
 20
122.000000
 30
0.000000
 11
234.000000
 21
127.000000
 31
0.000000
  6
CONTINUOUS
  0
LINE
  8
WHITE
 10
112.000000
 20
113.000000
 30
0.000000
 11
60.000000
 21
113.000000
 31
0.000000
  6
CONTINUOUS
  0
LINE
  8
WHITE
 10
60.000000
 20
113.000000
 30
0.000000
 11
60.000000
 21
112.000000
 31
0.000000
  6
CONTINUOUS
  0
LINE
  8
WHITE
 10
60.000000
 20
112.000000
 30
0.000000
 11
58.000000
 21
112.000000
 31
0.000000
  6
CONTINUOUS
  0
LINE
  8
WHITE
 10
58.000000
 20
112.000000
 30
0.000000
 11
58.000000
 21
109.000000
 31
0.000000
  6
CONTINUOUS
  0
LINE
  8
WHITE
 10
58.000000
 20
109.000000
 30
0.000000
 11
60.000000
 21
109.000000
 31
0.000000
  6
CONTINUOUS
  0
LINE
  8
WHITE
 10
60.000000
 20
109.000000
 30
0.000000
 11
60.000000
 21
108.000000
 31
0.000000
  6
CONTINUOUS
  0
LINE
  8
WHITE
 10
60.000000
 20
108.000000
 30
0.000000
 11
112.000000
 21
108.000000
 31
0.000000
  6
CONTINUOUS
  0
LINE
  8
WHITE
 10
112.000000
 20
108.000000
 30
0.000000
 11
112.000000
 21
113.000000
 31
0.000000
  6
CONTINUOUS
  0
LINE
  8
WHITE
 10
110.000000
 20
141.000000
 30
0.000000
 11
94.106602
 21
141.000000
 31
0.000000
  6
CONTINUOUS
  0
ARC
  8
WHITE
 10
94.106602
 20
138.500000
 30
0.000000
 40
2.500000
 50
90.000000
 51
116.525352
  6
CONTINUOUS
  0
ARC
  8
WHITE
 10
83.500000
 20
159.750000
 30
0.000000
 40
21.250000
 50
-116.525352
 51
-63.474647
  6
CONTINUOUS
  0
ARC
  8
WHITE
 10
72.893398
 20
138.500000
 30
0.000000
 40
2.500000
 50
63.474642
 51
90.000000
  6
CONTINUOUS
  0
LINE
  8
WHITE
 10
72.893398
 20
141.000000
 30
0.000000
 11
57.000000
 21
141.000000
 31
0.000000
  6
CONTINUOUS
  0
ARC
  8
WHITE
 10
57.000000
 20
139.000000
 30
0.000000
 40
2.000000
 50
90.000000
 51
180.000000
  6
CONTINUOUS
  0
LINE
  8
WHITE
 10
55.000000
 20
139.000000
 30
0.000000
 11
55.000000
 21
136.000000
 31
0.000000
  6
CONTINUOUS
  0
LINE
  8
WHITE
 10
55.000000
 20
136.000000
 30
0.000000
 11
112.000000
 21
136.000000
 31
0.000000
  6
CONTINUOUS
  0
LINE
  8
WHITE
 10
112.000000
 20
136.000000
 30
0.000000
 11
112.000000
 21
139.000000
 31
0.000000
  6
CONTINUOUS
  0
ARC
  8
WHITE
 10
110.000000
 20
139.000000
 30
0.000000
 40
2.000000
 50
0.000000
 51
90.000000
  6
CONTINUOUS
  0
ARC
  8
WHITE
 10
215.000000
 20
53.000000
 30
0.000000
 40
48.000000
 50
163.665177
 51
174.620621
  6
CONTINUOUS
  0
LINE
  8
WHITE
 10
167.211403
 20
57.500000
 30
0.000000
 11
195.720000
 21
57.500000
 31
0.000000
  6
CONTINUOUS
  0
LINE
  8
WHITE
 10
195.720000
 20
57.500000
 30
0.000000
 11
194.133058
 21
66.500000
 31
0.000000
  6
CONTINUOUS
  0
LINE
  8
WHITE
 10
194.133058
 20
66.500000
 30
0.000000
 11
168.937542
 21
66.500000
 31
0.000000
  6
CONTINUOUS
  0
ARC
  8
WHITE
 10
340.424083
 20
268.704599
 30
0.000000
 40
70.000000
 50
-107.650678
 51
-98.399247
  6
CONTINUOUS
  0
LINE
  8
WHITE
 10
330.199182
 20
199.455401
 30
0.000000
 11
335.799794
 21
220.357172
 31
0.000000
  6
CONTINUOUS
  0
LINE
  8
WHITE
 10
335.799794
 20
220.357172
 30
0.000000
 11
324.573185
 21
222.056053
 31
0.000000
  6
CONTINUOUS
  0
LINE
  8
WHITE
 10
324.573185
 20
222.056053
 30
0.000000
 11
319.199182
 21
202.000000
 31
0.000000
  6
CONTINUOUS
  0
LINE
  8
WHITE
 10
287.000000
 20
134.000000
 30
0.000000
 11
239.000000
 21
134.000000
 31
0.000000
  6
CONTINUOUS
  0
LINE
  8
WHITE
 10
239.000000
 20
134.000000
 30
0.000000
 11
239.000000
 21
129.000000
 31
0.000000
  6
CONTINUOUS
  0
LINE
  8
WHITE
 10
239.000000
 20
129.000000
 30
0.000000
 11
287.000000
 21
129.000000
 31
0.000000
  6
CONTINUOUS
  0
LINE
  8
WHITE
 10
287.000000
 20
129.000000
 30
0.000000
 11
287.000000
 21
134.000000
 31
0.000000
  6
CONTINUOUS
  0
LINE
  8
WHITE
 10
287.000000
 20
141.000000
 30
0.000000
 11
239.000000
 21
141.000000
 31
0.000000
  6
CONTINUOUS
  0
LINE
  8
WHITE
 10
239.000000
 20
141.000000
 30
0.000000
 11
239.000000
 21
136.000000
 31
0.000000
  6
CONTINUOUS
  0
LINE
  8
WHITE
 10
239.000000
 20
136.000000
 30
0.000000
 11
287.000000
 21
136.000000
 31
0.000000
  6
CONTINUOUS
  0
LINE
  8
WHITE
 10
287.000000
 20
136.000000
 30
0.000000
 11
287.000000
 21
141.000000
 31
0.000000
  6
CONTINUOUS
  0
LINE
  8
WHITE
 10
314.117628
 20
166.438920
 30
0.000000
 11
326.899819
 21
179.221112
 31
0.000000
  6
CONTINUOUS
  0
ARC
  8
WHITE
 10
328.234047
 20
177.886883
 30
0.000000
 40
1.886884
 50
43.348567
 51
134.999979
  6
CONTINUOUS
  0
ARC
  8
WHITE
 10
329.897048
 20
179.456680
 30
0.000000
 40
0.400000
 50
-136.651375
 51
-5.234498
  6
CONTINUOUS
  0
ARC
  8
WHITE
 10
360.170269
 20
176.683221
 30
0.000000
 40
30.000000
 50
159.885788
 51
174.765501
  6
CONTINUOUS
  0
ARC
  8
WHITE
 10
302.000961
 20
186.759866
 30
0.000000
 40
30.000000
 50
0.458626
 51
20.594520
  6
CONTINUOUS
  0
ARC
  8
WHITE
 10
341.367711
 20
266.396960
 30
0.000000
 40
70.000000
 50
-106.768269
 51
-99.276518
  6
CONTINUOUS
  0
ARC
  8
WHITE
 10
313.800511
 20
200.000000
 30
0.000000
 40
7.398671
 50
-37.460717
 51
-4.858245
  6
CONTINUOUS
  0
ARC
  8
WHITE
 10
313.109505
 20
193.000000
 30
0.000000
 40
7.023828
 50
-0.596362
 51
20.850528
  6
CONTINUOUS
  0
ARC
  8
WHITE
 10
319.199182
 20
187.000000
 30
0.000000
 40
6.000000
 50
12.491085
 51
81.046755
  6
CONTINUOUS
  0
ARC
  8
WHITE
 10
323.104500
 20
187.865151
 30
0.000000
 40
2.000001
 50
-49.517197
 51
12.491076
  6
CONTINUOUS
  0
ARC
  8
WHITE
 10
343.659221
 20
163.784033
 30
0.000000
 40
29.660651
 50
130.482803
 51
174.864654
  6
CONTINUOUS
  0
LINE
  8
WHITE
 10
287.000000
 20
127.000000
 30
0.000000
 11
239.000000
 21
127.000000
 31
0.000000
  6
CONTINUOUS
  0
LINE
  8
WHITE
 10
239.000000
 20
127.000000
 30
0.000000
 11
239.000000
 21
122.000000
 31
0.000000
  6
CONTINUOUS
  0
LINE
  8
WHITE
 10
239.000000
 20
122.000000
 30
0.000000
 11
280.659033
 21
122.000000
 31
0.000000
  6
CONTINUOUS
  0
LINE
  8
WHITE
 10
280.659033
 20
122.000000
 30
0.000000
 11
287.000000
 21
124.720353
 31
0.000000
  6
CONTINUOUS
  0
LINE
  8
WHITE
 10
287.000000
 20
124.720353
 30
0.000000
 11
287.000000
 21
127.000000
 31
0.000000
  6
CONTINUOUS
  0
ARC
  8
WHITE
 10
215.000000
 20
53.000000
 30
0.000000
 40
48.000000
 50
5.379379
 51
16.334823
  6
CONTINUOUS
  0
LINE
  8
WHITE
 10
261.062458
 20
66.500000
 30
0.000000
 11
242.382686
 21
66.500000
 31
0.000000
  6
CONTINUOUS
  0
LINE
  8
WHITE
 10
242.382686
 20
66.500000
 30
0.000000
 11
235.128443
 21
62.311761
 31
0.000000
  6
CONTINUOUS
  0
LINE
  8
WHITE
 10
235.128443
 20
62.311761
 30
0.000000
 11
234.280000
 21
57.500000
 31
0.000000
  6
CONTINUOUS
  0
LINE
  8
WHITE
 10
234.280000
 20
57.500000
 30
0.000000
 11
262.788597
 21
57.500000
 31
0.000000
  6
CONTINUOUS
  0
LINE
  8
WHITE
 10
300.700000
 20
136.000000
 30
0.000000
 11
300.700000
 21
80.000000
 31
0.000000
  6
CONTINUOUS
  0
LINE
  8
WHITE
 10
300.700000
 20
80.000000
 30
0.000000
 11
304.500000
 21
80.000000
 31
0.000000
  6
CONTINUOUS
  0
LINE
  8
WHITE
 10
304.500000
 20
80.000000
 30
0.000000
 11
304.500000
 21
136.000000
 31
0.000000
  6
CONTINUOUS
  0
LINE
  8
WHITE
 10
304.500000
 20
136.000000
 30
0.000000
 11
300.700000
 21
136.000000
 31
0.000000
  6
CONTINUOUS
  0
LINE
  8
WHITE
 10
307.500000
 20
136.000000
 30
0.000000
 11
307.500000
 21
80.000000
 31
0.000000
  6
CONTINUOUS
  0
LINE
  8
WHITE
 10
307.500000
 20
80.000000
 30
0.000000
 11
311.300000
 21
80.000000
 31
0.000000
  6
CONTINUOUS
  0
LINE
  8
WHITE
 10
311.300000
 20
80.000000
 30
0.000000
 11
311.300000
 21
136.000000
 31
0.000000
  6
CONTINUOUS
  0
LINE
  8
WHITE
 10
311.300000
 20
136.000000
 30
0.000000
 11
307.500000
 21
136.000000
 31
0.000000
  6
CONTINUOUS
  0
LINE
  8
WHITE
 10
314.300000
 20
136.000000
 30
0.000000
 11
314.300000
 21
80.000000
 31
0.000000
  6
CONTINUOUS
  0
LINE
  8
WHITE
 10
314.300000
 20
80.000000
 30
0.000000
 11
318.100000
 21
80.000000
 31
0.000000
  6
CONTINUOUS
  0
LINE
  8
WHITE
 10
318.100000
 20
80.000000
 30
0.000000
 11
318.100000
 21
136.000000
 31
0.000000
  6
CONTINUOUS
  0
LINE
  8
WHITE
 10
318.100000
 20
136.000000
 30
0.000000
 11
314.300000
 21
136.000000
 31
0.000000
  6
CONTINUOUS
  0
LINE
  8
WHITE
 10
321.100000
 20
136.000000
 30
0.000000
 11
321.100000
 21
80.000000
 31
0.000000
  6
CONTINUOUS
  0
LINE
  8
WHITE
 10
321.100000
 20
80.000000
 30
0.000000
 11
324.900000
 21
80.000000
 31
0.000000
  6
CONTINUOUS
  0
LINE
  8
WHITE
 10
324.900000
 20
80.000000
 30
0.000000
 11
324.900000
 21
136.000000
 31
0.000000
  6
CONTINUOUS
  0
LINE
  8
WHITE
 10
324.900000
 20
136.000000
 30
0.000000
 11
321.100000
 21
136.000000
 31
0.000000
  6
CONTINUOUS
  0
LINE
  8
WHITE
 10
327.900000
 20
136.000000
 30
0.000000
 11
327.900000
 21
80.000000
 31
0.000000
  6
CONTINUOUS
  0
LINE
  8
WHITE
 10
327.900000
 20
80.000000
 30
0.000000
 11
331.700000
 21
80.000000
 31
0.000000
  6
CONTINUOUS
  0
LINE
  8
WHITE
 10
331.700000
 20
80.000000
 30
0.000000
 11
331.700000
 21
136.000000
 31
0.000000
  6
CONTINUOUS
  0
LINE
  8
WHITE
 10
331.700000
 20
136.000000
 30
0.000000
 11
327.900000
 21
136.000000
 31
0.000000
  6
CONTINUOUS
  0
LINE
  8
WHITE
 10
298.030853
 20
141.000000
 30
0.000000
 11
306.000000
 21
141.000000
 31
0.000000
  6
CONTINUOUS
  0
LINE
  8
WHITE
 10
306.000000
 20
141.000000
 30
0.000000
 11
309.567978
 21
156.291335
 31
0.000000
  6
CONTINUOUS
  0
LINE
  8
WHITE
 10
309.567978
 20
156.291335
 30
0.000000
 11
294.504314
 21
161.000000
 31
0.000000
  6
CONTINUOUS
  0
LINE
  8
WHITE
 10
294.504314
 20
161.000000
 30
0.000000
 11
298.030853
 21
141.000000
 31
0.000000
  6
CONTINUOUS
  0
LINE
  8
WHITE
 10
315.297341
 20
157.719138
 30
0.000000
 11
330.432159
 21
172.853957
 31
0.000000
  6
CONTINUOUS
  0
ARC
  8
WHITE
 10
328.664392
 20
174.621724
 30
0.000000
 40
2.500000
 50
-45.000000
 51
135.000000
  6
CONTINUOUS
  0
LINE
  8
WHITE
 10
326.896625
 20
176.389491
 30
0.000000
 11
313.045472
 21
162.538338
 31
0.000000
  6
CONTINUOUS
  0
LINE
  8
WHITE
 10
313.045472
 20
162.538338
 30
0.000000
 11
298.000000
 21
167.241316
 31
0.000000
  6
CONTINUOUS
  0
LINE
  8
WHITE
 10
298.000000
 20
167.241316
 30
0.000000
 11
298.000000
 21
162.002736
 31
0.000000
  6
CONTINUOUS
  0
LINE
  8
WHITE
 10
298.000000
 20
162.002736
 30
0.000000
 11
313.286430
 21
157.224438
 31
0.000000
  6
CONTINUOUS
  0
ARC
  8
WHITE
 10
313.883127
 20
159.133352
 30
0.000000
 40
2.000000
 50
-107.358437
 51
-45.000000
  6
CONTINUOUS
  0
LINE
  8
WHITE
 10
115.000000
 20
30.901924
 30
0.000000
 11
102.066905
 21
8.501147
 31
0.000000
  6
CONTINUOUS
  0
ARC
  8
WHITE
 10
116.500000
 20
36.500000
 30
0.000000
 40
31.500000
 50
-117.270598
 51
-92.729403
  6
CONTINUOUS
  0
LINE
  8
WHITE
 10
115.000000
 20
5.035735
 30
0.000000
 11
115.000000
 21
30.901924
 31
0.000000
  6
CONTINUOUS
  0
ARC
  8
WHITE
 10
116.500000
 20
36.500000
 30
0.000000
 40
31.500000
 50
-87.270597
 51
-62.729403
  6
CONTINUOUS
  0
LINE
  8
WHITE
 10
130.933095
 20
8.501147
 30
0.000000
 11
118.000000
 21
30.901924
 31
0.000000
  6
CONTINUOUS
  0
LINE
  8
WHITE
 10
118.000000
 20
30.901924
 30
0.000000
 11
118.000000
 21
5.035735
 31
0.000000
  6
CONTINUOUS
  0
ARC
  8
WHITE
 10
313.500000
 20
36.500000
 30
0.000000
 40
31.500000
 50
-117.270598
 51
-92.729403
  6
CONTINUOUS
  0
LINE
  8
WHITE
 10
312.000000
 20
5.035735
 30
0.000000
 11
312.000000
 21
30.901924
 31
0.000000
  6
CONTINUOUS
  0
LINE
  8
WHITE
 10
312.000000
 20
30.901924
 30
0.000000
 11
299.066905
 21
8.501147
 31
0.000000
  6
CONTINUOUS
  0
LINE
  8
WHITE
 10
327.933095
 20
8.501147
 30
0.000000
 11
315.000000
 21
30.901924
 31
0.000000
  6
CONTINUOUS
  0
LINE
  8
WHITE
 10
315.000000
 20
30.901924
 30
0.000000
 11
315.000000
 21
5.035735
 31
0.000000
  6
CONTINUOUS
  0
ARC
  8
WHITE
 10
313.500000
 20
36.500000
 30
0.000000
 40
31.500000
 50
-87.270597
 51
-62.729403
  6
CONTINUOUS
  0
ARC
  8
WHITE
 10
116.500000
 20
36.500000
 30
0.000000
 40
31.500000
 50
-147.270597
 51
-122.729403
  6
CONTINUOUS
  0
LINE
  8
WHITE
 10
99.468829
 20
10.001147
 30
0.000000
 11
110.149147
 21
28.500000
 31
0.000000
  6
CONTINUOUS
  0
LINE
  8
WHITE
 10
110.149147
 20
28.500000
 30
0.000000
 11
105.643594
 21
28.500000
 31
0.000000
  6
CONTINUOUS
  0
LINE
  8
WHITE
 10
105.643594
 20
28.500000
 30
0.000000
 11
90.001147
 21
19.468829
 31
0.000000
  6
CONTINUOUS
  0
LINE
  8
WHITE
 10
122.850853
 20
28.500000
 30
0.000000
 11
133.531171
 21
10.001147
 31
0.000000
  6
CONTINUOUS
  0
ARC
  8
WHITE
 10
116.500000
 20
36.500000
 30
0.000000
 40
31.500000
 50
-57.270597
 51
-32.729403
  6
CONTINUOUS
  0
LINE
  8
WHITE
 10
142.998853
 20
19.468829
 30
0.000000
 11
127.356406
 21
28.500000
 31
0.000000
  6
CONTINUOUS
  0
LINE
  8
WHITE
 10
127.356406
 20
28.500000
 30
0.000000
 11
122.850853
 21
28.500000
 31
0.000000
  6
CONTINUOUS
  0
LINE
  8
WHITE
 10
302.643594
 20
28.500000
 30
0.000000
 11
287.001147
 21
19.468829
 31
0.000000
  6
CONTINUOUS
  0
ARC
  8
WHITE
 10
313.500000
 20
36.500000
 30
0.000000
 40
31.500000
 50
-147.270597
 51
-122.729403
  6
CONTINUOUS
  0
LINE
  8
WHITE
 10
296.468829
 20
10.001147
 30
0.000000
 11
307.149147
 21
28.500000
 31
0.000000
  6
CONTINUOUS
  0
LINE
  8
WHITE
 10
307.149147
 20
28.500000
 30
0.000000
 11
302.643594
 21
28.500000
 31
0.000000
  6
CONTINUOUS
  0
ARC
  8
WHITE
 10
313.500000
 20
36.500000
 30
0.000000
 40
31.500000
 50
-57.270597
 51
-32.729403
  6
CONTINUOUS
  0
LINE
  8
WHITE
 10
339.998853
 20
19.468829
 30
0.000000
 11
324.356406
 21
28.500000
 31
0.000000
  6
CONTINUOUS
  0
LINE
  8
WHITE
 10
324.356406
 20
28.500000
 30
0.000000
 11
319.850853
 21
28.500000
 31
0.000000
  6
CONTINUOUS
  0
LINE
  8
WHITE
 10
319.850853
 20
28.500000
 30
0.000000
 11
330.531171
 21
10.001147
 31
0.000000
  6
CONTINUOUS
  0
LINE
  8
WHITE
 10
209.000000
 20
114.682631
 30
0.000000
 11
209.000000
 21
80.000000
 31
0.000000
  6
CONTINUOUS
  0
LINE
  8
WHITE
 10
209.000000
 20
80.000000
 30
0.000000
 11
213.500000
 21
80.000000
 31
0.000000
  6
CONTINUOUS
  0
LINE
  8
WHITE
 10
213.500000
 20
80.000000
 30
0.000000
 11
213.500000
 21
114.980216
 31
0.000000
  6
CONTINUOUS
  0
ARC
  8
WHITE
 10
215.000000
 20
58.125000
 30
0.000000
 40
56.875000
 50
91.511273
 51
96.055658
  6
CONTINUOUS
  0
LINE
  8
WHITE
 10
216.500000
 20
114.980216
 30
0.000000
 11
216.500000
 21
80.000000
 31
0.000000
  6
CONTINUOUS
  0
LINE
  8
WHITE
 10
216.500000
 20
80.000000
 30
0.000000
 11
221.000000
 21
80.000000
 31
0.000000
  6
CONTINUOUS
  0
LINE
  8
WHITE
 10
221.000000
 20
80.000000
 30
0.000000
 11
221.000000
 21
114.682631
 31
0.000000
  6
CONTINUOUS
  0
ARC
  8
WHITE
 10
215.000000
 20
58.125000
 30
0.000000
 40
56.875000
 50
83.944342
 51
88.488727
  6
CONTINUOUS
  0
LINE
  8
WHITE
 10
275.510431
 20
120.000000
 30
0.000000
 11
239.000000
 21
120.000000
 31
0.000000
  6
CONTINUOUS
  0
LINE
  8
WHITE
 10
239.000000
 20
120.000000
 30
0.000000
 11
239.000000
 21
115.108910
 31
0.000000
  6
CONTINUOUS
  0
ARC
  8
WHITE
 10
215.000000
 20
58.671875
 30
0.000000
 40
61.328125
 50
66.703615
 51
66.962247
  6
CONTINUOUS
  0
LINE
  8
WHITE
 10
239.254510
 20
115.000000
 30
0.000000
 11
264.342488
 21
115.000000
 31
0.000000
  6
CONTINUOUS
  0
LINE
  8
WHITE
 10
264.342488
 20
115.000000
 30
0.000000
 11
275.549857
 21
119.808100
 31
0.000000
  6
CONTINUOUS
  0
ARC
  8
WHITE
 10
275.510431
 20
119.900000
 30
0.000000
 40
0.100000
 50
-66.780194
 51
90.000000
  6
CONTINUOUS
  0
LINE
  8
WHITE
 10
329.662388
 20
41.733250
 30
0.000000
 11
329.142610
 21
37.500000
 31
0.000000
  6
CONTINUOUS
  0
LINE
  8
WHITE
 10
329.142610
 20
37.500000
 30
0.000000
 11
344.984123
 21
37.500000
 31
0.000000
  6
CONTINUOUS
  0
ARC
  8
WHITE
 10
313.500000
 20
36.500000
 30
0.000000
 40
31.500000
 50
1.819219
 51
28.436890
  6
CONTINUOUS
  0
LINE
  8
WHITE
 10
341.199278
 20
51.500000
 30
0.000000
 11
338.206460
 21
51.500000
 31
0.000000
  6
CONTINUOUS
  0
LINE
  8
WHITE
 10
338.206460
 20
51.500000
 30
0.000000
 11
329.662388
 21
41.733250
 31
0.000000
  6
CONTINUOUS
  0
LINE
  8
WHITE
 10
201.500000
 20
113.374576
 30
0.000000
 11
201.500000
 21
80.000000
 31
0.000000
  6
CONTINUOUS
  0
LINE
  8
WHITE
 10
201.500000
 20
80.000000
 30
0.000000
 11
206.000000
 21
80.000000
 31
0.000000
  6
CONTINUOUS
  0
LINE
  8
WHITE
 10
206.000000
 20
80.000000
 30
0.000000
 11
206.000000
 21
114.283398
 31
0.000000
  6
CONTINUOUS
  0
ARC
  8
WHITE
 10
215.000000
 20
58.125000
 30
0.000000
 40
56.875000
 50
99.104856
 51
103.730933
  6
CONTINUOUS
  0
LINE
  8
WHITE
 10
224.000000
 20
114.283398
 30
0.000000
 11
224.000000
 21
80.000000
 31
0.000000
  6
CONTINUOUS
  0
LINE
  8
WHITE
 10
224.000000
 20
80.000000
 30
0.000000
 11
228.500000
 21
80.000000
 31
0.000000
  6
CONTINUOUS
  0
LINE
  8
WHITE
 10
228.500000
 20
80.000000
 30
0.000000
 11
228.500000
 21
113.374576
 31
0.000000
  6
CONTINUOUS
  0
ARC
  8
WHITE
 10
215.000000
 20
58.125000
 30
0.000000
 40
56.875000
 50
76.269067
 51
80.895144
  6
CONTINUOUS
  0
LINE
  8
WHITE
 10
88.000000
 20
251.000000
 30
0.000000
 11
91.000000
 21
251.000000
 31
0.000000
  6
CONTINUOUS
  0
LINE
  8
WHITE
 10
91.000000
 20
251.000000
 30
0.000000
 11
91.000000
 21
291.000000
 31
0.000000
  6
CONTINUOUS
  0
ARC
  8
WHITE
 10
101.000000
 20
291.000000
 30
0.000000
 40
10.000000
 50
107.457603
 51
180.000000
  6
CONTINUOUS
  0
LINE
  8
WHITE
 10
98.000000
 20
300.539392
 30
0.000000
 11
98.000000
 21
301.000000
 31
0.000000
  6
CONTINUOUS
  0
LINE
  8
WHITE
 10
98.000000
 20
301.000000
 30
0.000000
 11
95.000000
 21
301.000000
 31
0.000000
  6
CONTINUOUS
  0
ARC
  8
WHITE
 10
98.642857
 20
291.000000
 30
0.000000
 40
10.642857
 50
110.015959
 51
180.000000
  6
CONTINUOUS
  0
LINE
  8
WHITE
 10
88.000000
 20
291.000000
 30
0.000000
 11
88.000000
 21
251.000000
 31
0.000000
  6
CONTINUOUS
  0
LINE
  8
WHITE
 10
88.000000
 20
196.000000
 30
0.000000
 11
91.000000
 21
196.000000
 31
0.000000
  6
CONTINUOUS
  0
LINE
  8
WHITE
 10
91.000000
 20
196.000000
 30
0.000000
 11
91.000000
 21
246.000000
 31
0.000000
  6
CONTINUOUS
  0
LINE
  8
WHITE
 10
91.000000
 20
246.000000
 30
0.000000
 11
88.000000
 21
246.000000
 31
0.000000
  6
CONTINUOUS
  0
LINE
  8
WHITE
 10
88.000000
 20
246.000000
 30
0.000000
 11
88.000000
 21
196.000000
 31
0.000000
  6
CONTINUOUS
  0
LINE
  8
WHITE
 10
87.158335
 20
66.500000
 30
0.000000
 11
50.000000
 21
66.500000
 31
0.000000
  6
CONTINUOUS
  0
LINE
  8
WHITE
 10
50.000000
 20
66.500000
 30
0.000000
 11
50.000000
 21
62.500000
 31
0.000000
  6
CONTINUOUS
  0
LINE
  8
WHITE
 10
50.000000
 20
62.500000
 30
0.000000
 11
85.658335
 21
62.500000
 31
0.000000
  6
CONTINUOUS
  0
LINE
  8
WHITE
 10
85.658335
 20
62.500000
 30
0.000000
 11
85.667061
 21
61.500000
 31
0.000000
  6
CONTINUOUS
  0
LINE
  8
WHITE
 10
85.667061
 20
61.500000
 30
0.000000
 11
87.158335
 21
61.500000
 31
0.000000
  6
CONTINUOUS
  0
ARC
  8
WHITE
 10
87.158335
 20
61.600000
 30
0.000000
 40
0.100000
 50
-90.000000
 51
67.380135
  6
CONTINUOUS
  0
ARC
  8
WHITE
 10
88.158335
 20
64.000000
 30
0.000000
 40
2.500000
 50
112.619865
 51
247.380135
  6
CONTINUOUS
  0
ARC
  8
WHITE
 10
87.158335
 20
66.400000
 30
0.000000
 40
0.100000
 50
-67.380135
 51
90.000000
  6
CONTINUOUS
  0
LINE
  8
WHITE
 10
194.000000
 20
110.981084
 30
0.000000
 11
194.000000
 21
80.000000
 31
0.000000
  6
CONTINUOUS
  0
LINE
  8
WHITE
 10
194.000000
 20
80.000000
 30
0.000000
 11
198.500000
 21
80.000000
 31
0.000000
  6
CONTINUOUS
  0
LINE
  8
WHITE
 10
198.500000
 20
80.000000
 30
0.000000
 11
198.500000
 21
112.553996
 31
0.000000
  6
CONTINUOUS
  0
ARC
  8
WHITE
 10
215.000000
 20
58.125000
 30
0.000000
 40
56.875000
 50
106.864535
 51
111.668185
  6
CONTINUOUS
  0
LINE
  8
WHITE
 10
231.500000
 20
112.553996
 30
0.000000
 11
231.500000
 21
80.000000
 31
0.000000
  6
CONTINUOUS
  0
LINE
  8
WHITE
 10
231.500000
 20
80.000000
 30
0.000000
 11
236.000000
 21
80.000000
 31
0.000000
  6
CONTINUOUS
  0
LINE
  8
WHITE
 10
236.000000
 20
80.000000
 30
0.000000
 11
236.000000
 21
110.981084
 31
0.000000
  6
CONTINUOUS
  0
ARC
  8
WHITE
 10
215.000000
 20
58.125000
 30
0.000000
 40
56.875000
 50
68.331815
 51
73.135465
  6
CONTINUOUS
  0
LINE
  8
WHITE
 10
285.000000
 20
146.000000
 30
0.000000
 11
241.000000
 21
146.000000
 31
0.000000
  6
CONTINUOUS
  0
ARC
  8
WHITE
 10
241.000000
 20
144.000000
 30
0.000000
 40
2.000000
 50
90.000000
 51
210.000000
  6
CONTINUOUS
  0
LINE
  8
WHITE
 10
239.267949
 20
143.000000
 30
0.000000
 11
286.732051
 21
143.000000
 31
0.000000
  6
CONTINUOUS
  0
ARC
  8
WHITE
 10
285.000000
 20
144.000000
 30
0.000000
 40
2.000000
 50
-29.999997
 51
90.000000
  6
CONTINUOUS
  0
LINE
  8
WHITE
 10
88.501147
 20
22.066905
 30
0.000000
 11
101.808949
 21
29.750169
 31
0.000000
  6
CONTINUOUS
  0
LINE
  8
WHITE
 10
101.808949
 20
29.750169
 30
0.000000
 11
101.225744
 21
34.500000
 31
0.000000
  6
CONTINUOUS
  0
LINE
  8
WHITE
 10
101.225744
 20
34.500000
 30
0.000000
 11
85.063556
 21
34.500000
 31
0.000000
  6
CONTINUOUS
  0
ARC
  8
WHITE
 10
116.500000
 20
36.500000
 30
0.000000
 40
31.500000
 50
-176.359724
 51
-152.729403
  6
CONTINUOUS
  0
LINE
  8
WHITE
 10
147.936444
 20
34.500000
 30
0.000000
 11
131.774256
 21
34.500000
 31
0.000000
  6
CONTINUOUS
  0
LINE
  8
WHITE
 10
131.774256
 20
34.500000
 30
0.000000
 11
131.191051
 21
29.750169
 31
0.000000
  6
CONTINUOUS
  0
LINE
  8
WHITE
 10
131.191051
 20
29.750169
 30
0.000000
 11
144.498853
 21
22.066905
 31
0.000000
  6
CONTINUOUS
  0
ARC
  8
WHITE
 10
116.500000
 20
36.500000
 30
0.000000
 40
31.500000
 50
-27.270598
 51
-3.640276
  6
CONTINUOUS
  0
ARC
  8
WHITE
 10
313.500000
 20
36.500000
 30
0.000000
 40
31.500000
 50
-176.359724
 51
-152.729403
  6
CONTINUOUS
  0
LINE
  8
WHITE
 10
285.501147
 20
22.066905
 30
0.000000
 11
298.808949
 21
29.750169
 31
0.000000
  6
CONTINUOUS
  0
LINE
  8
WHITE
 10
298.808949
 20
29.750169
 30
0.000000
 11
298.225744
 21
34.500000
 31
0.000000
  6
CONTINUOUS
  0
LINE
  8
WHITE
 10
298.225744
 20
34.500000
 30
0.000000
 11
282.063556
 21
34.500000
 31
0.000000
  6
CONTINUOUS
  0
ARC
  8
WHITE
 10
313.500000
 20
36.500000
 30
0.000000
 40
31.500000
 50
-27.270598
 51
-3.640276
  6
CONTINUOUS
  0
LINE
  8
WHITE
 10
344.936444
 20
34.500000
 30
0.000000
 11
328.774256
 21
34.500000
 31
0.000000
  6
CONTINUOUS
  0
LINE
  8
WHITE
 10
328.774256
 20
34.500000
 30
0.000000
 11
328.191051
 21
29.750169
 31
0.000000
  6
CONTINUOUS
  0
LINE
  8
WHITE
 10
328.191051
 20
29.750169
 30
0.000000
 11
341.498853
 21
22.066905
 31
0.000000
  6
CONTINUOUS
  0
LINE
  8
WHITE
 10
91.000000
 20
146.000000
 30
0.000000
 11
91.000000
 21
191.000000
 31
0.000000
  6
CONTINUOUS
  0
LINE
  8
WHITE
 10
91.000000
 20
191.000000
 30
0.000000
 11
88.000000
 21
191.000000
 31
0.000000
  6
CONTINUOUS
  0
LINE
  8
WHITE
 10
88.000000
 20
191.000000
 30
0.000000
 11
88.000000
 21
144.338096
 31
0.000000
  6
CONTINUOUS
  0
ARC
  8
WHITE
 10
83.500000
 20
156.000000
 30
0.000000
 40
12.500000
 50
-68.899804
 51
-53.130102
  6
CONTINUOUS
  0
LINE
  8
WHITE
 10
175.000000
 20
113.000000
 30
0.000000
 11
147.500000
 21
113.000000
 31
0.000000
  6
CONTINUOUS
  0
LINE
  8
WHITE
 10
147.500000
 20
113.000000
 30
0.000000
 11
147.500000
 21
108.000000
 31
0.000000
  6
CONTINUOUS
  0
LINE
  8
WHITE
 10
147.500000
 20
108.000000
 30
0.000000
 11
175.000000
 21
108.000000
 31
0.000000
  6
CONTINUOUS
  0
LINE
  8
WHITE
 10
175.000000
 20
108.000000
 30
0.000000
 11
175.000000
 21
113.000000
 31
0.000000
  6
CONTINUOUS
  0
LINE
  8
WHITE
 10
186.500000
 20
107.344058
 30
0.000000
 11
186.500000
 21
80.000000
 31
0.000000
  6
CONTINUOUS
  0
LINE
  8
WHITE
 10
186.500000
 20
80.000000
 30
0.000000
 11
191.000000
 21
80.000000
 31
0.000000
  6
CONTINUOUS
  0
LINE
  8
WHITE
 10
191.000000
 20
80.000000
 30
0.000000
 11
191.000000
 21
109.688220
 31
0.000000
  6
CONTINUOUS
  0
ARC
  8
WHITE
 10
215.000000
 20
58.125000
 30
0.000000
 40
56.875000
 50
114.959531
 51
120.072729
  6
CONTINUOUS
  0
LINE
  8
WHITE
 10
239.000000
 20
109.688220
 30
0.000000
 11
239.000000
 21
80.000000
 31
0.000000
  6
CONTINUOUS
  0
LINE
  8
WHITE
 10
239.000000
 20
80.000000
 30
0.000000
 11
243.500000
 21
80.000000
 31
0.000000
  6
CONTINUOUS
  0
LINE
  8
WHITE
 10
243.500000
 20
80.000000
 30
0.000000
 11
243.500000
 21
107.344058
 31
0.000000
  6
CONTINUOUS
  0
ARC
  8
WHITE
 10
215.000000
 20
58.125000
 30
0.000000
 40
56.875000
 50
59.927271
 51
65.040469
  6
CONTINUOUS
  0
LINE
  8
WHITE
 10
175.000000
 20
106.000000
 30
0.000000
 11
147.500000
 21
106.000000
 31
0.000000
  6
CONTINUOUS
  0
LINE
  8
WHITE
 10
147.500000
 20
106.000000
 30
0.000000
 11
147.500000
 21
101.000000
 31
0.000000
  6
CONTINUOUS
  0
LINE
  8
WHITE
 10
147.500000
 20
101.000000
 30
0.000000
 11
170.621303
 21
101.000000
 31
0.000000
  6
CONTINUOUS
  0
ARC
  8
WHITE
 10
215.000000
 20
58.671875
 30
0.000000
 40
61.328125
 50
130.709893
 51
136.354763
  6
CONTINUOUS
  0
LINE
  8
WHITE
 10
175.000000
 20
105.159926
 30
0.000000
 11
175.000000
 21
106.000000
 31
0.000000
  6
CONTINUOUS
  0
ARC
  8
WHITE
 10
116.500000
 20
36.500000
 30
0.000000
 40
31.500000
 50
12.839589
 51
37.097602
  6
CONTINUOUS
  0
LINE
  8
WHITE
 10
141.624689
 20
55.500000
 30
0.000000
 11
134.352732
 21
55.500000
 31
0.000000
  6
CONTINUOUS
  0
LINE
  8
WHITE
 10
134.352732
 20
55.500000
 30
0.000000
 11
134.107163
 21
53.500000
 31
0.000000
  6
CONTINUOUS
  0
LINE
  8
WHITE
 10
134.107163
 20
53.500000
 30
0.000000
 11
138.500000
 21
53.500000
 31
0.000000
  6
CONTINUOUS
  0
LINE
  8
WHITE
 10
138.500000
 20
53.500000
 30
0.000000
 11
138.500000
 21
51.500000
 31
0.000000
  6
CONTINUOUS
  0
LINE
  8
WHITE
 10
138.500000
 20
51.500000
 30
0.000000
 11
133.861594
 21
51.500000
 31
0.000000
  6
CONTINUOUS
  0
LINE
  8
WHITE
 10
133.861594
 20
51.500000
 30
0.000000
 11
132.879318
 21
43.500000
 31
0.000000
  6
CONTINUOUS
  0
LINE
  8
WHITE
 10
132.879318
 20
43.500000
 30
0.000000
 11
147.212375
 21
43.500000
 31
0.000000
  6
CONTINUOUS
  0
LINE
  8
WHITE
 10
297.120682
 20
43.500000
 30
0.000000
 11
296.138406
 21
51.500000
 31
0.000000
  6
CONTINUOUS
  0
LINE
  8
WHITE
 10
296.138406
 20
51.500000
 30
0.000000
 11
291.500000
 21
51.500000
 31
0.000000
  6
CONTINUOUS
  0
LINE
  8
WHITE
 10
291.500000
 20
51.500000
 30
0.000000
 11
291.500000
 21
53.500000
 31
0.000000
  6
CONTINUOUS
  0
LINE
  8
WHITE
 10
291.500000
 20
53.500000
 30
0.000000
 11
295.892837
 21
53.500000
 31
0.000000
  6
CONTINUOUS
  0
LINE
  8
WHITE
 10
295.892837
 20
53.500000
 30
0.000000
 11
295.647268
 21
55.500000
 31
0.000000
  6
CONTINUOUS
  0
LINE
  8
WHITE
 10
295.647268
 20
55.500000
 30
0.000000
 11
288.375311
 21
55.500000
 31
0.000000
  6
CONTINUOUS
  0
ARC
  8
WHITE
 10
313.500000
 20
36.500000
 30
0.000000
 40
31.500000
 50
142.902398
 51
167.160412
  6
CONTINUOUS
  0
LINE
  8
WHITE
 10
282.787625
 20
43.500000
 30
0.000000
 11
297.120682
 21
43.500000
 31
0.000000
  6
CONTINUOUS
  0
LINE
  8
WHITE
 10
79.000000
 20
85.000000
 30
0.000000
 11
55.000000
 21
85.000000
 31
0.000000
  6
CONTINUOUS
  0
LINE
  8
WHITE
 10
55.000000
 20
85.000000
 30
0.000000
 11
55.000000
 21
80.000000
 31
0.000000
  6
CONTINUOUS
  0
LINE
  8
WHITE
 10
55.000000
 20
80.000000
 30
0.000000
 11
79.000000
 21
80.000000
 31
0.000000
  6
CONTINUOUS
  0
LINE
  8
WHITE
 10
79.000000
 20
80.000000
 30
0.000000
 11
79.000000
 21
85.000000
 31
0.000000
  6
CONTINUOUS
  0
LINE
  8
WHITE
 10
79.000000
 20
92.000000
 30
0.000000
 11
55.000000
 21
92.000000
 31
0.000000
  6
CONTINUOUS
  0
LINE
  8
WHITE
 10
55.000000
 20
92.000000
 30
0.000000
 11
55.000000
 21
87.000000
 31
0.000000
  6
CONTINUOUS
  0
LINE
  8
WHITE
 10
55.000000
 20
87.000000
 30
0.000000
 11
79.000000
 21
87.000000
 31
0.000000
  6
CONTINUOUS
  0
LINE
  8
WHITE
 10
79.000000
 20
87.000000
 30
0.000000
 11
79.000000
 21
92.000000
 31
0.000000
  6
CONTINUOUS
  0
LINE
  8
WHITE
 10
112.000000
 20
85.000000
 30
0.000000
 11
88.000000
 21
85.000000
 31
0.000000
  6
CONTINUOUS
  0
LINE
  8
WHITE
 10
88.000000
 20
85.000000
 30
0.000000
 11
88.000000
 21
80.000000
 31
0.000000
  6
CONTINUOUS
  0
LINE
  8
WHITE
 10
88.000000
 20
80.000000
 30
0.000000
 11
112.000000
 21
80.000000
 31
0.000000
  6
CONTINUOUS
  0
LINE
  8
WHITE
 10
112.000000
 20
80.000000
 30
0.000000
 11
112.000000
 21
85.000000
 31
0.000000
  6
CONTINUOUS
  0
LINE
  8
WHITE
 10
112.000000
 20
92.000000
 30
0.000000
 11
88.000000
 21
92.000000
 31
0.000000
  6
CONTINUOUS
  0
LINE
  8
WHITE
 10
88.000000
 20
92.000000
 30
0.000000
 11
88.000000
 21
87.000000
 31
0.000000
  6
CONTINUOUS
  0
LINE
  8
WHITE
 10
88.000000
 20
87.000000
 30
0.000000
 11
112.000000
 21
87.000000
 31
0.000000
  6
CONTINUOUS
  0
LINE
  8
WHITE
 10
112.000000
 20
87.000000
 30
0.000000
 11
112.000000
 21
92.000000
 31
0.000000
  6
CONTINUOUS
  0
LINE
  8
WHITE
 10
112.000000
 20
99.000000
 30
0.000000
 11
88.000000
 21
99.000000
 31
0.000000
  6
CONTINUOUS
  0
LINE
  8
WHITE
 10
88.000000
 20
99.000000
 30
0.000000
 11
88.000000
 21
94.000000
 31
0.000000
  6
CONTINUOUS
  0
LINE
  8
WHITE
 10
88.000000
 20
94.000000
 30
0.000000
 11
112.000000
 21
94.000000
 31
0.000000
  6
CONTINUOUS
  0
LINE
  8
WHITE
 10
112.000000
 20
94.000000
 30
0.000000
 11
112.000000
 21
99.000000
 31
0.000000
  6
CONTINUOUS
  0
LINE
  8
WHITE
 10
112.000000
 20
106.000000
 30
0.000000
 11
88.000000
 21
106.000000
 31
0.000000
  6
CONTINUOUS
  0
LINE
  8
WHITE
 10
88.000000
 20
106.000000
 30
0.000000
 11
88.000000
 21
101.000000
 31
0.000000
  6
CONTINUOUS
  0
LINE
  8
WHITE
 10
88.000000
 20
101.000000
 30
0.000000
 11
112.000000
 21
101.000000
 31
0.000000
  6
CONTINUOUS
  0
LINE
  8
WHITE
 10
112.000000
 20
101.000000
 30
0.000000
 11
112.000000
 21
106.000000
 31
0.000000
  6
CONTINUOUS
  0
LINE
  8
WHITE
 10
10.000000
 20
52.500000
 30
0.000000
 11
10.000000
 21
67.500000
 31
0.000000
  6
CONTINUOUS
  0
LINE
  8
WHITE
 10
10.000000
 20
67.500000
 30
0.000000
 11
5.000000
 21
67.500000
 31
0.000000
  6
CONTINUOUS
  0
ARC
  8
WHITE
 10
5.000000
 20
64.500000
 30
0.000000
 40
3.000000
 50
90.000000
 51
180.000000
  6
CONTINUOUS
  0
LINE
  8
WHITE
 10
2.000000
 20
64.500000
 30
0.000000
 11
2.000000
 21
55.500000
 31
0.000000
  6
CONTINUOUS
  0
ARC
  8
WHITE
 10
5.000000
 20
55.500000
 30
0.000000
 40
3.000000
 50
180.000000
 51
270.000000
  6
CONTINUOUS
  0
LINE
  8
WHITE
 10
5.000000
 20
52.500000
 30
0.000000
 11
10.000000
 21
52.500000
 31
0.000000
  6
CONTINUOUS
  0
LINE
  8
WHITE
 10
71.000000
 20
48.500000
 30
0.000000
 11
50.000000
 21
48.500000
 31
0.000000
  6
CONTINUOUS
  0
LINE
  8
WHITE
 10
50.000000
 20
48.500000
 30
0.000000
 11
50.000000
 21
44.500000
 31
0.000000
  6
CONTINUOUS
  0
LINE
  8
WHITE
 10
50.000000
 20
44.500000
 30
0.000000
 11
80.887502
 21
44.500000
 31
0.000000
  6
CONTINUOUS
  0
ARC
  8
WHITE
 10
116.500000
 20
36.500000
 30
0.000000
 40
36.500000
 50
165.011914
 51
167.339238
  6
CONTINUOUS
  0
LINE
  8
WHITE
 10
81.241744
 20
45.939564
 30
0.000000
 11
71.000000
 21
48.500000
 31
0.000000
  6
CONTINUOUS
  0
LINE
  8
WHITE
 10
138.500000
 20
85.000000
 30
0.000000
 11
117.000000
 21
85.000000
 31
0.000000
  6
CONTINUOUS
  0
LINE
  8
WHITE
 10
117.000000
 20
85.000000
 30
0.000000
 11
117.000000
 21
80.000000
 31
0.000000
  6
CONTINUOUS
  0
LINE
  8
WHITE
 10
117.000000
 20
80.000000
 30
0.000000
 11
138.500000
 21
80.000000
 31
0.000000
  6
CONTINUOUS
  0
LINE
  8
WHITE
 10
138.500000
 20
80.000000
 30
0.000000
 11
138.500000
 21
85.000000
 31
0.000000
  6
CONTINUOUS
  0
LINE
  8
WHITE
 10
138.500000
 20
92.000000
 30
0.000000
 11
117.000000
 21
92.000000
 31
0.000000
  6
CONTINUOUS
  0
LINE
  8
WHITE
 10
117.000000
 20
92.000000
 30
0.000000
 11
117.000000
 21
87.000000
 31
0.000000
  6
CONTINUOUS
  0
LINE
  8
WHITE
 10
117.000000
 20
87.000000
 30
0.000000
 11
138.500000
 21
87.000000
 31
0.000000
  6
CONTINUOUS
  0
LINE
  8
WHITE
 10
138.500000
 20
87.000000
 30
0.000000
 11
138.500000
 21
92.000000
 31
0.000000
  6
CONTINUOUS
  0
LINE
  8
WHITE
 10
138.500000
 20
99.000000
 30
0.000000
 11
117.000000
 21
99.000000
 31
0.000000
  6
CONTINUOUS
  0
LINE
  8
WHITE
 10
117.000000
 20
99.000000
 30
0.000000
 11
117.000000
 21
94.000000
 31
0.000000
  6
CONTINUOUS
  0
LINE
  8
WHITE
 10
117.000000
 20
94.000000
 30
0.000000
 11
138.500000
 21
94.000000
 31
0.000000
  6
CONTINUOUS
  0
LINE
  8
WHITE
 10
138.500000
 20
94.000000
 30
0.000000
 11
138.500000
 21
99.000000
 31
0.000000
  6
CONTINUOUS
  0
LINE
  8
WHITE
 10
138.500000
 20
106.000000
 30
0.000000
 11
117.000000
 21
106.000000
 31
0.000000
  6
CONTINUOUS
  0
LINE
  8
WHITE
 10
117.000000
 20
106.000000
 30
0.000000
 11
117.000000
 21
101.000000
 31
0.000000
  6
CONTINUOUS
  0
LINE
  8
WHITE
 10
117.000000
 20
101.000000
 30
0.000000
 11
138.500000
 21
101.000000
 31
0.000000
  6
CONTINUOUS
  0
LINE
  8
WHITE
 10
138.500000
 20
101.000000
 30
0.000000
 11
138.500000
 21
106.000000
 31
0.000000
  6
CONTINUOUS
  0
LINE
  8
WHITE
 10
138.500000
 20
113.000000
 30
0.000000
 11
117.000000
 21
113.000000
 31
0.000000
  6
CONTINUOUS
  0
LINE
  8
WHITE
 10
117.000000
 20
113.000000
 30
0.000000
 11
117.000000
 21
108.000000
 31
0.000000
  6
CONTINUOUS
  0
LINE
  8
WHITE
 10
117.000000
 20
108.000000
 30
0.000000
 11
138.500000
 21
108.000000
 31
0.000000
  6
CONTINUOUS
  0
LINE
  8
WHITE
 10
138.500000
 20
108.000000
 30
0.000000
 11
138.500000
 21
113.000000
 31
0.000000
  6
CONTINUOUS
  0
LINE
  8
WHITE
 10
179.000000
 20
102.156416
 30
0.000000
 11
179.000000
 21
80.000000
 31
0.000000
  6
CONTINUOUS
  0
LINE
  8
WHITE
 10
179.000000
 20
80.000000
 30
0.000000
 11
183.500000
 21
80.000000
 31
0.000000
  6
CONTINUOUS
  0
LINE
  8
WHITE
 10
183.500000
 20
80.000000
 30
0.000000
 11
183.500000
 21
105.480207
 31
0.000000
  6
CONTINUOUS
  0
ARC
  8
WHITE
 10
215.000000
 20
58.125000
 30
0.000000
 40
56.875000
 50
123.631277
 51
129.269366
  6
CONTINUOUS
  0
LINE
  8
WHITE
 10
246.500000
 20
105.480207
 30
0.000000
 11
246.500000
 21
80.000000
 31
0.000000
  6
CONTINUOUS
  0
LINE
  8
WHITE
 10
246.500000
 20
80.000000
 30
0.000000
 11
251.000000
 21
80.000000
 31
0.000000
  6
CONTINUOUS
  0
LINE
  8
WHITE
 10
251.000000
 20
80.000000
 30
0.000000
 11
251.000000
 21
102.156416
 31
0.000000
  6
CONTINUOUS
  0
ARC
  8
WHITE
 10
215.000000
 20
58.125000
 30
0.000000
 40
56.875000
 50
50.730634
 51
56.368723
  6
CONTINUOUS
  0
LINE
  8
WHITE
 10
287.000000
 20
113.000000
 30
0.000000
 11
272.362552
 21
113.000000
 31
0.000000
  6
CONTINUOUS
  0
LINE
  8
WHITE
 10
272.362552
 20
113.000000
 30
0.000000
 11
261.155183
 21
108.191900
 31
0.000000
  6
CONTINUOUS
  0
ARC
  8
WHITE
 10
261.194609
 20
108.100000
 30
0.000000
 40
0.100000
 50
113.219806
 51
270.000000
  6
CONTINUOUS
  0
LINE
  8
WHITE
 10
261.194609
 20
108.000000
 30
0.000000
 11
287.000000
 21
108.000000
 31
0.000000
  6
CONTINUOUS
  0
LINE
  8
WHITE
 10
287.000000
 20
108.000000
 30
0.000000
 11
287.000000
 21
113.000000
 31
0.000000
  6
CONTINUOUS
  0
LINE
  8
WHITE
 10
141.500000
 20
80.000000
 30
0.000000
 11
144.500000
 21
80.000000
 31
0.000000
  6
CONTINUOUS
  0
LINE
  8
WHITE
 10
144.500000
 20
80.000000
 30
0.000000
 11
144.500000
 21
113.000000
 31
0.000000
  6
CONTINUOUS
  0
LINE
  8
WHITE
 10
144.500000
 20
113.000000
 30
0.000000
 11
141.500000
 21
113.000000
 31
0.000000
  6
CONTINUOUS
  0
LINE
  8
WHITE
 10
141.500000
 20
113.000000
 30
0.000000
 11
141.500000
 21
80.000000
 31
0.000000
  6
CONTINUOUS
  0
LINE
  8
WHITE
 10
168.796307
 20
99.000000
 30
0.000000
 11
147.500000
 21
99.000000
 31
0.000000
  6
CONTINUOUS
  0
LINE
  8
WHITE
 10
147.500000
 20
99.000000
 30
0.000000
 11
147.500000
 21
94.000000
 31
0.000000
  6
CONTINUOUS
  0
LINE
  8
WHITE
 10
147.500000
 20
94.000000
 30
0.000000
 11
164.869545
 21
94.000000
 31
0.000000
  6
CONTINUOUS
  0
ARC
  8
WHITE
 10
215.000000
 20
58.671875
 30
0.000000
 40
61.328125
 50
138.884459
 51
144.826736
  6
CONTINUOUS
  0
LINE
  8
WHITE
 10
249.000000
 20
163.000000
 30
0.000000
 11
249.000000
 21
151.000000
 31
0.000000
  6
CONTINUOUS
  0
LINE
  8
WHITE
 10
249.000000
 20
151.000000
 30
0.000000
 11
257.000000
 21
151.000000
 31
0.000000
  6
CONTINUOUS
  0
LINE
  8
WHITE
 10
257.000000
 20
151.000000
 30
0.000000
 11
257.000000
 21
163.000000
 31
0.000000
  6
CONTINUOUS
  0
LINE
  8
WHITE
 10
257.000000
 20
163.000000
 30
0.000000
 11
249.000000
 21
163.000000
 31
0.000000
  6
CONTINUOUS
  0
LINE
  8
WHITE
 10
79.000000
 20
99.000000
 30
0.000000
 11
60.000000
 21
99.000000
 31
0.000000
  6
CONTINUOUS
  0
LINE
  8
WHITE
 10
60.000000
 20
99.000000
 30
0.000000
 11
60.000000
 21
94.000000
 31
0.000000
  6
CONTINUOUS
  0
LINE
  8
WHITE
 10
60.000000
 20
94.000000
 30
0.000000
 11
79.000000
 21
94.000000
 31
0.000000
  6
CONTINUOUS
  0
LINE
  8
WHITE
 10
79.000000
 20
94.000000
 30
0.000000
 11
79.000000
 21
99.000000
 31
0.000000
  6
CONTINUOUS
  0
LINE
  8
WHITE
 10
79.000000
 20
106.000000
 30
0.000000
 11
60.000000
 21
106.000000
 31
0.000000
  6
CONTINUOUS
  0
LINE
  8
WHITE
 10
60.000000
 20
106.000000
 30
0.000000
 11
60.000000
 21
101.000000
 31
0.000000
  6
CONTINUOUS
  0
LINE
  8
WHITE
 10
60.000000
 20
101.000000
 30
0.000000
 11
79.000000
 21
101.000000
 31
0.000000
  6
CONTINUOUS
  0
LINE
  8
WHITE
 10
79.000000
 20
101.000000
 30
0.000000
 11
79.000000
 21
106.000000
 31
0.000000
  6
CONTINUOUS
  0
LINE
  8
WHITE
 10
210.047097
 20
120.000000
 30
0.000000
 11
180.000000
 21
120.000000
 31
0.000000
  6
CONTINUOUS
  0
LINE
  8
WHITE
 10
180.000000
 20
120.000000
 30
0.000000
 11
180.000000
 21
115.000000
 31
0.000000
  6
CONTINUOUS
  0
LINE
  8
WHITE
 10
180.000000
 20
115.000000
 30
0.000000
 11
190.745490
 21
115.000000
 31
0.000000
  6
CONTINUOUS
  0
ARC
  8
WHITE
 10
215.000000
 20
58.671875
 30
0.000000
 40
61.328125
 50
94.624736
 51
113.296385
  6
CONTINUOUS
  0
ARC
  8
WHITE
 10
210.047097
 20
119.900000
 30
0.000000
 40
0.100000
 50
-85.375373
 51
90.000000
  6
CONTINUOUS
  0
LINE
  8
WHITE
 10
50.000000
 20
60.500000
 30
0.000000
 11
50.000000
 21
58.500000
 31
0.000000
  6
CONTINUOUS
  0
LINE
  8
WHITE
 10
50.000000
 20
58.500000
 30
0.000000
 11
85.693242
 21
58.500000
 31
0.000000
  6
CONTINUOUS
  0
LINE
  8
WHITE
 10
85.693242
 20
58.500000
 30
0.000000
 11
85.701969
 21
57.500000
 31
0.000000
  6
CONTINUOUS
  0
LINE
  8
WHITE
 10
85.701969
 20
57.500000
 30
0.000000
 11
98.401699
 21
57.500000
 31
0.000000
  6
CONTINUOUS
  0
LINE
  8
WHITE
 10
98.401699
 20
57.500000
 30
0.000000
 11
98.156129
 21
59.500000
 31
0.000000
  6
CONTINUOUS
  0
LINE
  8
WHITE
 10
98.156129
 20
59.500000
 30
0.000000
 11
80.000000
 21
59.500000
 31
0.000000
  6
CONTINUOUS
  0
LINE
  8
WHITE
 10
80.000000
 20
59.500000
 30
0.000000
 11
79.991273
 21
60.500000
 31
0.000000
  6
CONTINUOUS
  0
LINE
  8
WHITE
 10
79.991273
 20
60.500000
 30
0.000000
 11
50.000000
 21
60.500000
 31
0.000000
  6
CONTINUOUS
  0
LINE
  8
WHITE
 10
107.000000
 20
28.500000
 30
0.000000
 11
107.000000
 21
66.500000
 31
0.000000
  6
CONTINUOUS
  0
LINE
  8
WHITE
 10
107.000000
 20
66.500000
 30
0.000000
 11
102.334187
 21
66.500000
 31
0.000000
  6
CONTINUOUS
  0
LINE
  8
WHITE
 10
102.334187
 20
66.500000
 30
0.000000
 11
107.000000
 21
28.500000
 31
0.000000
  6
CONTINUOUS
  0
LINE
  8
WHITE
 10
126.000000
 20
66.500000
 30
0.000000
 11
126.000000
 21
28.500000
 31
0.000000
  6
CONTINUOUS
  0
LINE
  8
WHITE
 10
126.000000
 20
28.500000
 30
0.000000
 11
130.665813
 21
66.500000
 31
0.000000
  6
CONTINUOUS
  0
LINE
  8
WHITE
 10
130.665813
 20
66.500000
 30
0.000000
 11
126.000000
 21
66.500000
 31
0.000000
  6
CONTINUOUS
  0
LINE
  8
WHITE
 10
299.334187
 20
66.500000
 30
0.000000
 11
304.000000
 21
28.500000
 31
0.000000
  6
CONTINUOUS
  0
LINE
  8
WHITE
 10
304.000000
 20
28.500000
 30
0.000000
 11
304.000000
 21
66.500000
 31
0.000000
  6
CONTINUOUS
  0
LINE
  8
WHITE
 10
304.000000
 20
66.500000
 30
0.000000
 11
299.334187
 21
66.500000
 31
0.000000
  6
CONTINUOUS
  0
LINE
  8
WHITE
 10
323.000000
 20
66.500000
 30
0.000000
 11
323.000000
 21
28.500000
 31
0.000000
  6
CONTINUOUS
  0
LINE
  8
WHITE
 10
323.000000
 20
28.500000
 30
0.000000
 11
327.665813
 21
66.500000
 31
0.000000
  6
CONTINUOUS
  0
LINE
  8
WHITE
 10
327.665813
 20
66.500000
 30
0.000000
 11
323.000000
 21
66.500000
 31
0.000000
  6
CONTINUOUS
  0
LINE
  8
WHITE
 10
274.000000
 20
106.000000
 30
0.000000
 11
256.046007
 21
106.000000
 31
0.000000
  6
CONTINUOUS
  0
LINE
  8
WHITE
 10
256.046007
 20
106.000000
 30
0.000000
 11
254.695177
 21
105.420477
 31
0.000000
  6
CONTINUOUS
  0
ARC
  8
WHITE
 10
215.000000
 20
58.671875
 30
0.000000
 40
61.328125
 50
43.645237
 51
49.664745
  6
CONTINUOUS
  0
LINE
  8
WHITE
 10
259.378697
 20
101.000000
 30
0.000000
 11
274.000000
 21
101.000000
 31
0.000000
  6
CONTINUOUS
  0
LINE
  8
WHITE
 10
274.000000
 20
101.000000
 30
0.000000
 11
274.000000
 21
106.000000
 31
0.000000
  6
CONTINUOUS
  0
LINE
  8
WHITE
 10
100.409518
 20
41.147620
 30
0.000000
 11
86.093232
 21
44.726692
 31
0.000000
  6
CONTINUOUS
  0
ARC
  8
WHITE
 10
116.500000
 20
36.500000
 30
0.000000
 40
31.500000
 50
164.860810
 51
178.180781
  6
CONTINUOUS
  0
LINE
  8
WHITE
 10
85.015877
 20
37.500000
 30
0.000000
 11
100.857390
 21
37.500000
 31
0.000000
  6
CONTINUOUS
  0
LINE
  8
WHITE
 10
100.857390
 20
37.500000
 30
0.000000
 11
100.409518
 21
41.147620
 31
0.000000
  6
CONTINUOUS
  0
ARC
  8
WHITE
 10
215.000000
 20
53.000000
 30
0.000000
 40
48.000000
 50
-163.665177
 51
-152.388015
  6
CONTINUOUS
  0
LINE
  8
WHITE
 10
172.466881
 20
30.752893
 30
0.000000
 11
187.617314
 21
39.500000
 31
0.000000
  6
CONTINUOUS
  0
LINE
  8
WHITE
 10
187.617314
 20
39.500000
 30
0.000000
 11
168.937542
 21
39.500000
 31
0.000000
  6
CONTINUOUS
  0
ARC
  8
WHITE
 10
215.000000
 20
53.000000
 30
0.000000
 40
48.000000
 50
-27.611985
 51
-16.334823
  6
CONTINUOUS
  0
LINE
  8
WHITE
 10
261.062458
 20
39.500000
 30
0.000000
 11
242.382686
 21
39.500000
 31
0.000000
  6
CONTINUOUS
  0
LINE
  8
WHITE
 10
242.382686
 20
39.500000
 30
0.000000
 11
257.533119
 21
30.752893
 31
0.000000
  6
CONTINUOUS
  0
LINE
  8
WHITE
 10
87.340355
 20
48.414911
 30
0.000000
 11
99.902827
 21
45.274293
 31
0.000000
  6
CONTINUOUS
  0
LINE
  8
WHITE
 10
99.902827
 20
45.274293
 30
0.000000
 11
99.138406
 21
51.500000
 31
0.000000
  6
CONTINUOUS
  0
LINE
  8
WHITE
 10
99.138406
 20
51.500000
 30
0.000000
 11
94.500000
 21
51.500000
 31
0.000000
  6
CONTINUOUS
  0
LINE
  8
WHITE
 10
94.500000
 20
51.500000
 30
0.000000
 11
94.500000
 21
53.500000
 31
0.000000
  6
CONTINUOUS
  0
LINE
  8
WHITE
 10
94.500000
 20
53.500000
 30
0.000000
 11
98.892837
 21
53.500000
 31
0.000000
  6
CONTINUOUS
  0
LINE
  8
WHITE
 10
98.892837
 20
53.500000
 30
0.000000
 11
98.647268
 21
55.500000
 31
0.000000
  6
CONTINUOUS
  0
LINE
  8
WHITE
 10
98.647268
 20
55.500000
 30
0.000000
 11
91.375311
 21
55.500000
 31
0.000000
  6
CONTINUOUS
  0
ARC
  8
WHITE
 10
116.500000
 20
36.500000
 30
0.000000
 40
31.500000
 50
142.902398
 51
157.774603
  6
CONTINUOUS
  0
LINE
  8
WHITE
 10
199.210191
 20
66.500000
 30
0.000000
 11
204.500000
 21
36.499998
 31
0.000000
  6
CONTINUOUS
  0
LINE
  8
WHITE
 10
204.500000
 20
36.499998
 30
0.000000
 11
204.500000
 21
66.500000
 31
0.000000
  6
CONTINUOUS
  0
LINE
  8
WHITE
 10
204.500000
 20
66.500000
 30
0.000000
 11
199.210191
 21
66.500000
 31
0.000000
  6
CONTINUOUS
  0
LINE
  8
WHITE
 10
225.500000
 20
66.500000
 30
0.000000
 11
225.500000
 21
36.500000
 31
0.000000
  6
CONTINUOUS
  0
LINE
  8
WHITE
 10
225.500000
 20
36.500000
 30
0.000000
 11
230.789809
 21
66.500000
 31
0.000000
  6
CONTINUOUS
  0
LINE
  8
WHITE
 10
230.789809
 20
66.500000
 30
0.000000
 11
225.500000
 21
66.500000
 31
0.000000
  6
CONTINUOUS
  0
LINE
  8
WHITE
 10
279.000000
 20
66.500000
 30
0.000000
 11
279.000000
 21
61.500000
 31
0.000000
  6
CONTINUOUS
  0
LINE
  8
WHITE
 10
279.000000
 20
61.500000
 30
0.000000
 11
294.910560
 21
61.500000
 31
0.000000
  6
CONTINUOUS
  0
LINE
  8
WHITE
 10
294.910560
 20
61.500000
 30
0.000000
 11
294.296638
 21
66.500000
 31
0.000000
  6
CONTINUOUS
  0
LINE
  8
WHITE
 10
294.296638
 20
66.500000
 30
0.000000
 11
279.000000
 21
66.500000
 31
0.000000
  6
CONTINUOUS
  0
LINE
  8
WHITE
 10
82.000000
 20
80.000000
 30
0.000000
 11
85.000000
 21
80.000000
 31
0.000000
  6
CONTINUOUS
  0
LINE
  8
WHITE
 10
85.000000
 20
80.000000
 30
0.000000
 11
85.000000
 21
106.000000
 31
0.000000
  6
CONTINUOUS
  0
LINE
  8
WHITE
 10
85.000000
 20
106.000000
 30
0.000000
 11
82.000000
 21
106.000000
 31
0.000000
  6
CONTINUOUS
  0
LINE
  8
WHITE
 10
82.000000
 20
106.000000
 30
0.000000
 11
82.000000
 21
80.000000
 31
0.000000
  6
CONTINUOUS
  0
LINE
  8
WHITE
 10
277.000000
 20
80.000000
 30
0.000000
 11
280.000000
 21
80.000000
 31
0.000000
  6
CONTINUOUS
  0
LINE
  8
WHITE
 10
280.000000
 20
80.000000
 30
0.000000
 11
280.000000
 21
106.000000
 31
0.000000
  6
CONTINUOUS
  0
LINE
  8
WHITE
 10
280.000000
 20
106.000000
 30
0.000000
 11
277.000000
 21
106.000000
 31
0.000000
  6
CONTINUOUS
  0
LINE
  8
WHITE
 10
277.000000
 20
106.000000
 30
0.000000
 11
277.000000
 21
80.000000
 31
0.000000
  6
CONTINUOUS
  0
LINE
  8
WHITE
 10
171.500000
 20
94.765355
 30
0.000000
 11
171.500000
 21
80.000000
 31
0.000000
  6
CONTINUOUS
  0
LINE
  8
WHITE
 10
171.500000
 20
80.000000
 30
0.000000
 11
176.000000
 21
80.000000
 31
0.000000
  6
CONTINUOUS
  0
LINE
  8
WHITE
 10
176.000000
 20
80.000000
 30
0.000000
 11
176.000000
 21
99.522652
 31
0.000000
  6
CONTINUOUS
  0
ARC
  8
WHITE
 10
215.000000
 20
58.125000
 30
0.000000
 40
56.875000
 50
133.291808
 51
139.892330
  6
CONTINUOUS
  0
LINE
  8
WHITE
 10
254.000000
 20
99.522652
 30
0.000000
 11
254.000000
 21
80.000000
 31
0.000000
  6
CONTINUOUS
  0
LINE
  8
WHITE
 10
254.000000
 20
80.000000
 30
0.000000
 11
258.500000
 21
80.000000
 31
0.000000
  6
CONTINUOUS
  0
LINE
  8
WHITE
 10
258.500000
 20
80.000000
 30
0.000000
 11
258.500000
 21
94.765355
 31
0.000000
  6
CONTINUOUS
  0
ARC
  8
WHITE
 10
215.000000
 20
58.125000
 30
0.000000
 40
56.875000
 50
40.107670
 51
46.708192
  6
CONTINUOUS
  0
LINE
  8
WHITE
 10
163.518207
 20
92.000000
 30
0.000000
 11
147.500000
 21
92.000000
 31
0.000000
  6
CONTINUOUS
  0
LINE
  8
WHITE
 10
147.500000
 20
92.000000
 30
0.000000
 11
147.500000
 21
87.000000
 31
0.000000
  6
CONTINUOUS
  0
LINE
  8
WHITE
 10
147.500000
 20
87.000000
 30
0.000000
 11
160.606469
 21
87.000000
 31
0.000000
  6
CONTINUOUS
  0
ARC
  8
WHITE
 10
215.000000
 20
58.671875
 30
0.000000
 40
61.328125
 50
147.081912
 51
152.489521
  6
CONTINUOUS
  0
LINE
  8
WHITE
 10
20.000000
 20
55.500000
 30
0.000000
 11
20.000000
 21
64.500000
 31
0.000000
  6
CONTINUOUS
  0
LINE
  8
WHITE
 10
20.000000
 20
64.500000
 30
0.000000
 11
12.000000
 21
64.500000
 31
0.000000
  6
CONTINUOUS
  0
LINE
  8
WHITE
 10
12.000000
 20
64.500000
 30
0.000000
 11
12.000000
 21
55.500000
 31
0.000000
  6
CONTINUOUS
  0
LINE
  8
WHITE
 10
12.000000
 20
55.500000
 30
0.000000
 11
20.000000
 21
55.500000
 31
0.000000
  6
CONTINUOUS
  0
LINE
  8
WHITE
 10
57.000000
 20
106.000000
 30
0.000000
 11
49.000000
 21
106.000000
 31
0.000000
  6
CONTINUOUS
  0
LINE
  8
WHITE
 10
49.000000
 20
106.000000
 30
0.000000
 11
49.000000
 21
97.000000
 31
0.000000
  6
CONTINUOUS
  0
LINE
  8
WHITE
 10
49.000000
 20
97.000000
 30
0.000000
 11
57.000000
 21
97.000000
 31
0.000000
  6
CONTINUOUS
  0
LINE
  8
WHITE
 10
57.000000
 20
97.000000
 30
0.000000
 11
57.000000
 21
106.000000
 31
0.000000
  6
CONTINUOUS
  0
LINE
  8
WHITE
 10
112.000000
 20
43.500000
 30
0.000000
 11
121.000000
 21
43.500000
 31
0.000000
  6
CONTINUOUS
  0
LINE
  8
WHITE
 10
121.000000
 20
43.500000
 30
0.000000
 11
121.000000
 21
51.500000
 31
0.000000
  6
CONTINUOUS
  0
LINE
  8
WHITE
 10
121.000000
 20
51.500000
 30
0.000000
 11
112.000000
 21
51.500000
 31
0.000000
  6
CONTINUOUS
  0
LINE
  8
WHITE
 10
112.000000
 20
51.500000
 30
0.000000
 11
112.000000
 21
43.500000
 31
0.000000
  6
CONTINUOUS
  0
LINE
  8
WHITE
 10
259.000000
 20
163.000000
 30
0.000000
 11
259.000000
 21
151.000000
 31
0.000000
  6
CONTINUOUS
  0
LINE
  8
WHITE
 10
259.000000
 20
151.000000
 30
0.000000
 11
265.000000
 21
151.000000
 31
0.000000
  6
CONTINUOUS
  0
LINE
  8
WHITE
 10
265.000000
 20
151.000000
 30
0.000000
 11
265.000000
 21
163.000000
 31
0.000000
  6
CONTINUOUS
  0
LINE
  8
WHITE
 10
265.000000
 20
163.000000
 30
0.000000
 11
259.000000
 21
163.000000
 31
0.000000
  6
CONTINUOUS
  0
LINE
  8
WHITE
 10
309.000000
 20
43.500000
 30
0.000000
 11
318.000000
 21
43.500000
 31
0.000000
  6
CONTINUOUS
  0
LINE
  8
WHITE
 10
318.000000
 20
43.500000
 30
0.000000
 11
318.000000
 21
51.500000
 31
0.000000
  6
CONTINUOUS
  0
LINE
  8
WHITE
 10
318.000000
 20
51.500000
 30
0.000000
 11
309.000000
 21
51.500000
 31
0.000000
  6
CONTINUOUS
  0
LINE
  8
WHITE
 10
309.000000
 20
51.500000
 30
0.000000
 11
309.000000
 21
43.500000
 31
0.000000
  6
CONTINUOUS
  0
LINE
  8
WHITE
 10
252.319306
 20
167.000000
 30
0.000000
 11
277.680694
 21
167.000000
 31
0.000000
  6
CONTINUOUS
  0
ARC
  8
WHITE
 10
277.680694
 20
167.200000
 30
0.000000
 40
0.200000
 50
-90.000000
 51
58.301921
  6
CONTINUOUS
  0
ARC
  8
WHITE
 10
265.000000
 20
146.666667
 30
0.000000
 40
24.333333
 50
58.301921
 51
121.698079
  6
CONTINUOUS
  0
ARC
  8
WHITE
 10
252.319306
 20
167.200000
 30
0.000000
 40
0.200000
 50
121.698025
 51
270.000000
  6
CONTINUOUS
  0
LINE
  8
WHITE
 10
332.703362
 20
66.500000
 30
0.000000
 11
332.089440
 21
61.500000
 31
0.000000
  6
CONTINUOUS
  0
LINE
  8
WHITE
 10
332.089440
 20
61.500000
 30
0.000000
 11
344.297294
 21
61.500000
 31
0.000000
  6
CONTINUOUS
  0
LINE
  8
WHITE
 10
344.297294
 20
61.500000
 30
0.000000
 11
348.671355
 21
66.500000
 31
0.000000
  6
CONTINUOUS
  0
LINE
  8
WHITE
 10
348.671355
 20
66.500000
 30
0.000000
 11
332.703362
 21
66.500000
 31
0.000000
  6
CONTINUOUS
  0
LINE
  8
WHITE
 10
212.500000
 20
141.000000
 30
0.000000
 11
222.500000
 21
141.000000
 31
0.000000
  6
CONTINUOUS
  0
LINE
  8
WHITE
 10
222.500000
 20
141.000000
 30
0.000000
 11
222.500000
 21
145.875000
 31
0.000000
  6
CONTINUOUS
  0
ARC
  8
WHITE
 10
217.500000
 20
143.437500
 30
0.000000
 40
5.562500
 50
25.989234
 51
154.010766
  6
CONTINUOUS
  0
LINE
  8
WHITE
 10
212.500000
 20
145.875000
 30
0.000000
 11
212.500000
 21
141.000000
 31
0.000000
  6
CONTINUOUS
  0
LINE
  8
WHITE
 10
45.000000
 20
66.500000
 30
0.000000
 11
35.000000
 21
66.500000
 31
0.000000
  6
CONTINUOUS
  0
LINE
  8
WHITE
 10
35.000000
 20
66.500000
 30
0.000000
 11
35.000000
 21
61.500000
 31
0.000000
  6
CONTINUOUS
  0
LINE
  8
WHITE
 10
35.000000
 20
61.500000
 30
0.000000
 11
45.000000
 21
59.000000
 31
0.000000
  6
CONTINUOUS
  0
LINE
  8
WHITE
 10
45.000000
 20
59.000000
 30
0.000000
 11
45.000000
 21
60.500000
 31
0.000000
  6
CONTINUOUS
  0
LINE
  8
WHITE
 10
45.000000
 20
60.500000
 30
0.000000
 11
42.000000
 21
60.500000
 31
0.000000
  6
CONTINUOUS
  0
LINE
  8
WHITE
 10
42.000000
 20
60.500000
 30
0.000000
 11
42.000000
 21
62.500000
 31
0.000000
  6
CONTINUOUS
  0
LINE
  8
WHITE
 10
42.000000
 20
62.500000
 30
0.000000
 11
45.000000
 21
62.500000
 31
0.000000
  6
CONTINUOUS
  0
LINE
  8
WHITE
 10
45.000000
 20
62.500000
 30
0.000000
 11
45.000000
 21
66.500000
 31
0.000000
  6
CONTINUOUS
  0
LINE
  8
WHITE
 10
159.610752
 20
85.000000
 30
0.000000
 11
147.500000
 21
85.000000
 31
0.000000
  6
CONTINUOUS
  0
LINE
  8
WHITE
 10
147.500000
 20
85.000000
 30
0.000000
 11
147.500000
 21
80.000000
 31
0.000000
  6
CONTINUOUS
  0
LINE
  8
WHITE
 10
147.500000
 20
80.000000
 30
0.000000
 11
157.500000
 21
80.000000
 31
0.000000
  6
CONTINUOUS
  0
ARC
  8
WHITE
 10
215.000000
 20
58.671875
 30
0.000000
 40
61.328125
 50
154.576896
 51
159.648978
  6
CONTINUOUS
  0
LINE
  8
WHITE
 10
209.500000
 20
61.500000
 30
0.000000
 11
220.500000
 21
61.500000
 31
0.000000
  6
CONTINUOUS
  0
LINE
  8
WHITE
 10
220.500000
 20
61.500000
 30
0.000000
 11
220.500000
 21
66.500000
 31
0.000000
  6
CONTINUOUS
  0
LINE
  8
WHITE
 10
220.500000
 20
66.500000
 30
0.000000
 11
209.500000
 21
66.500000
 31
0.000000
  6
CONTINUOUS
  0
LINE
  8
WHITE
 10
209.500000
 20
66.500000
 30
0.000000
 11
209.500000
 21
61.500000
 31
0.000000
  6
CONTINUOUS
  0
LINE
  8
WHITE
 10
274.000000
 20
99.000000
 30
0.000000
 11
261.203693
 21
99.000000
 31
0.000000
  6
CONTINUOUS
  0
ARC
  8
WHITE
 10
215.000000
 20
58.671875
 30
0.000000
 40
61.328125
 50
35.173265
 51
41.115541
  6
CONTINUOUS
  0
LINE
  8
WHITE
 10
265.130455
 20
94.000000
 30
0.000000
 11
274.000000
 21
94.000000
 31
0.000000
  6
CONTINUOUS
  0
LINE
  8
WHITE
 10
274.000000
 20
94.000000
 30
0.000000
 11
274.000000
 21
99.000000
 31
0.000000
  6
CONTINUOUS
  0
LINE
  8
WHITE
 10
210.500000
 20
150.420468
 30
0.000000
 11
216.500000
 21
153.884570
 31
0.000000
  6
CONTINUOUS
  0
LINE
  8
WHITE
 10
216.500000
 20
153.884570
 30
0.000000
 11
216.500000
 21
161.000000
 31
0.000000
  6
CONTINUOUS
  0
LINE
  8
WHITE
 10
216.500000
 20
161.000000
 30
0.000000
 11
210.500000
 21
161.000000
 31
0.000000
  6
CONTINUOUS
  0
LINE
  8
WHITE
 10
210.500000
 20
161.000000
 30
0.000000
 11
210.500000
 21
150.420468
 31
0.000000
  6
CONTINUOUS
  0
LINE
  8
WHITE
 10
63.000000
 20
54.500000
 30
0.000000
 11
84.747047
 21
54.500000
 31
0.000000
  6
CONTINUOUS
  0
ARC
  8
WHITE
 10
116.500000
 20
36.500000
 30
0.000000
 40
36.500000
 50
146.773841
 51
150.452122
  6
CONTINUOUS
  0
LINE
  8
WHITE
 10
85.967231
 20
56.500000
 30
0.000000
 11
55.812311
 21
56.500000
 31
0.000000
  6
CONTINUOUS
  0
ARC
  8
WHITE
 10
55.812311
 20
56.400000
 30
0.000000
 40
0.100000
 50
90.000000
 51
255.963756
  6
CONTINUOUS
  0
LINE
  8
WHITE
 10
55.788057
 20
56.302986
 30
0.000000
 11
63.000000
 21
54.500000
 31
0.000000
  6
CONTINUOUS
  0
LINE
  8
WHITE
 10
267.000000
 20
163.000000
 30
0.000000
 11
267.000000
 21
151.000000
 31
0.000000
  6
CONTINUOUS
  0
LINE
  8
WHITE
 10
267.000000
 20
151.000000
 30
0.000000
 11
271.000000
 21
151.000000
 31
0.000000
  6
CONTINUOUS
  0
LINE
  8
WHITE
 10
271.000000
 20
151.000000
 30
0.000000
 11
271.000000
 21
163.000000
 31
0.000000
  6
CONTINUOUS
  0
LINE
  8
WHITE
 10
271.000000
 20
163.000000
 30
0.000000
 11
267.000000
 21
163.000000
 31
0.000000
  6
CONTINUOUS
  0
LINE
  8
WHITE
 10
121.000000
 20
66.500000
 30
0.000000
 11
112.000000
 21
66.500000
 31
0.000000
  6
CONTINUOUS
  0
LINE
  8
WHITE
 10
112.000000
 20
66.500000
 30
0.000000
 11
112.000000
 21
61.500000
 31
0.000000
  6
CONTINUOUS
  0
LINE
  8
WHITE
 10
112.000000
 20
61.500000
 30
0.000000
 11
121.000000
 21
61.500000
 31
0.000000
  6
CONTINUOUS
  0
LINE
  8
WHITE
 10
121.000000
 20
61.500000
 30
0.000000
 11
121.000000
 21
66.500000
 31
0.000000
  6
CONTINUOUS
  0
LINE
  8
WHITE
 10
309.000000
 20
61.500000
 30
0.000000
 11
318.000000
 21
61.500000
 31
0.000000
  6
CONTINUOUS
  0
LINE
  8
WHITE
 10
318.000000
 20
61.500000
 30
0.000000
 11
318.000000
 21
66.500000
 31
0.000000
  6
CONTINUOUS
  0
LINE
  8
WHITE
 10
318.000000
 20
66.500000
 30
0.000000
 11
309.000000
 21
66.500000
 31
0.000000
  6
CONTINUOUS
  0
LINE
  8
WHITE
 10
309.000000
 20
66.500000
 30
0.000000
 11
309.000000
 21
61.500000
 31
0.000000
  6
CONTINUOUS
  0
LINE
  8
WHITE
 10
174.500000
 20
141.000000
 30
0.000000
 11
180.500000
 21
141.000000
 31
0.000000
  6
CONTINUOUS
  0
LINE
  8
WHITE
 10
180.500000
 20
141.000000
 30
0.000000
 11
180.500000
 21
145.169048
 31
0.000000
  6
CONTINUOUS
  0
ARC
  8
WHITE
 10
177.500000
 20
145.169048
 30
0.000000
 40
3.000000
 50
0.000000
 51
30.963757
  6
CONTINUOUS
  0
LINE
  8
WHITE
 10
180.072479
 20
146.712535
 30
0.000000
 11
177.928746
 21
150.285423
 31
0.000000
  6
CONTINUOUS
  0
ARC
  8
WHITE
 10
177.500000
 20
150.028175
 30
0.000000
 40
0.500000
 50
30.963796
 51
149.036243
  6
CONTINUOUS
  0
LINE
  8
WHITE
 10
177.071254
 20
150.285423
 30
0.000000
 11
174.927521
 21
146.712535
 31
0.000000
  6
CONTINUOUS
  0
ARC
  8
WHITE
 10
177.500000
 20
145.169048
 30
0.000000
 40
3.000000
 50
149.036250
 51
180.000000
  6
CONTINUOUS
  0
LINE
  8
WHITE
 10
174.500000
 20
145.169048
 30
0.000000
 11
174.500000
 21
141.000000
 31
0.000000
  6
CONTINUOUS
  0
LINE
  8
WHITE
 10
220.500000
 20
57.500000
 30
0.000000
 11
209.500000
 21
57.500000
 31
0.000000
  6
CONTINUOUS
  0
LINE
  8
WHITE
 10
209.500000
 20
57.500000
 30
0.000000
 11
209.500000
 21
53.500000
 31
0.000000
  6
CONTINUOUS
  0
LINE
  8
WHITE
 10
209.500000
 20
53.500000
 30
0.000000
 11
220.500000
 21
53.500000
 31
0.000000
  6
CONTINUOUS
  0
LINE
  8
WHITE
 10
220.500000
 20
53.500000
 30
0.000000
 11
220.500000
 21
57.500000
 31
0.000000
  6
CONTINUOUS
  0
ARC
  8
WHITE
 10
177.500000
 20
164.905125
 30
0.000000
 40
3.000000
 50
180.000000
 51
230.194429
  6
CONTINUOUS
  0
LINE
  8
WHITE
 10
175.579447
 20
162.600461
 30
0.000000
 11
177.179908
 21
161.266743
 31
0.000000
  6
CONTINUOUS
  0
ARC
  8
WHITE
 10
177.500000
 20
161.650854
 30
0.000000
 40
0.500000
 50
-129.805527
 51
-50.194429
  6
CONTINUOUS
  0
LINE
  8
WHITE
 10
177.820092
 20
161.266743
 30
0.000000
 11
179.420553
 21
162.600461
 31
0.000000
  6
CONTINUOUS
  0
ARC
  8
WHITE
 10
177.500000
 20
164.905125
 30
0.000000
 40
3.000000
 50
-50.194434
 51
0.000000
  6
CONTINUOUS
  0
LINE
  8
WHITE
 10
180.500000
 20
164.905125
 30
0.000000
 11
180.500000
 21
167.094875
 31
0.000000
  6
CONTINUOUS
  0
ARC
  8
WHITE
 10
177.500000
 20
167.094875
 30
0.000000
 40
3.000000
 50
0.000000
 51
50.194429
  6
CONTINUOUS
  0
LINE
  8
WHITE
 10
179.420553
 20
169.399539
 30
0.000000
 11
177.820092
 21
170.733257
 31
0.000000
  6
CONTINUOUS
  0
ARC
  8
WHITE
 10
177.500000
 20
170.349146
 30
0.000000
 40
0.500000
 50
50.194473
 51
129.805571
  6
CONTINUOUS
  0
LINE
  8
WHITE
 10
177.179908
 20
170.733257
 30
0.000000
 11
175.579447
 21
169.399539
 31
0.000000
  6
CONTINUOUS
  0
ARC
  8
WHITE
 10
177.500000
 20
167.094875
 30
0.000000
 40
3.000000
 50
129.805566
 51
180.000000
  6
CONTINUOUS
  0
LINE
  8
WHITE
 10
174.500000
 20
167.094875
 30
0.000000
 11
174.500000
 21
164.905125
 31
0.000000
  6
CONTINUOUS
  0
LINE
  8
WHITE
 10
97.296638
 20
66.500000
 30
0.000000
 11
89.158335
 21
66.500000
 31
0.000000
  6
CONTINUOUS
  0
ARC
  8
WHITE
 10
89.158335
 20
66.400000
 30
0.000000
 40
0.100000
 50
90.000000
 51
247.380135
  6
CONTINUOUS
  0
ARC
  8
WHITE
 10
88.158335
 20
64.000000
 30
0.000000
 40
2.500000
 50
-67.380135
 51
67.380135
  6
CONTINUOUS
  0
ARC
  8
WHITE
 10
89.158335
 20
61.600000
 30
0.000000
 40
0.100000
 50
112.619865
 51
270.000000
  6
CONTINUOUS
  0
LINE
  8
WHITE
 10
89.158335
 20
61.500000
 30
0.000000
 11
97.910560
 21
61.500000
 31
0.000000
  6
CONTINUOUS
  0
LINE
  8
WHITE
 10
97.910560
 20
61.500000
 30
0.000000
 11
97.296638
 21
66.500000
 31
0.000000
  6
CONTINUOUS
  0
LINE
  8
WHITE
 10
143.841665
 20
66.500000
 30
0.000000
 11
135.703362
 21
66.500000
 31
0.000000
  6
CONTINUOUS
  0
LINE
  8
WHITE
 10
135.703362
 20
66.500000
 30
0.000000
 11
135.089440
 21
61.500000
 31
0.000000
  6
CONTINUOUS
  0
LINE
  8
WHITE
 10
135.089440
 20
61.500000
 30
0.000000
 11
143.841665
 21
61.500000
 31
0.000000
  6
CONTINUOUS
  0
ARC
  8
WHITE
 10
143.841665
 20
61.600000
 30
0.000000
 40
0.100000
 50
-90.000000
 51
67.380135
  6
CONTINUOUS
  0
ARC
  8
WHITE
 10
144.841665
 20
64.000000
 30
0.000000
 40
2.500000
 50
112.619865
 51
247.380135
  6
CONTINUOUS
  0
ARC
  8
WHITE
 10
143.841665
 20
66.400000
 30
0.000000
 40
0.100000
 50
-67.380135
 51
90.000000
  6
CONTINUOUS
  0
LINE
  8
WHITE
 10
273.000000
 20
163.000000
 30
0.000000
 11
273.000000
 21
151.000000
 31
0.000000
  6
CONTINUOUS
  0
LINE
  8
WHITE
 10
273.000000
 20
151.000000
 30
0.000000
 11
276.000000
 21
151.000000
 31
0.000000
  6
CONTINUOUS
  0
LINE
  8
WHITE
 10
276.000000
 20
151.000000
 30
0.000000
 11
276.000000
 21
163.000000
 31
0.000000
  6
CONTINUOUS
  0
LINE
  8
WHITE
 10
276.000000
 20
163.000000
 30
0.000000
 11
273.000000
 21
163.000000
 31
0.000000
  6
CONTINUOUS
  0
LINE
  8
WHITE
 10
278.000000
 20
163.000000
 30
0.000000
 11
278.000000
 21
151.000000
 31
0.000000
  6
CONTINUOUS
  0
LINE
  8
WHITE
 10
278.000000
 20
151.000000
 30
0.000000
 11
281.000000
 21
151.000000
 31
0.000000
  6
CONTINUOUS
  0
LINE
  8
WHITE
 10
281.000000
 20
151.000000
 30
0.000000
 11
281.000000
 21
163.000000
 31
0.000000
  6
CONTINUOUS
  0
LINE
  8
WHITE
 10
281.000000
 20
163.000000
 30
0.000000
 11
278.000000
 21
163.000000
 31
0.000000
  6
CONTINUOUS
  0
ARC
  8
WHITE
 10
215.000000
 20
58.125000
 30
0.000000
 40
56.875000
 50
144.843512
 51
157.380135
  6
CONTINUOUS
  0
LINE
  8
WHITE
 10
162.500000
 20
80.000000
 30
0.000000
 11
168.500000
 21
80.000000
 31
0.000000
  6
CONTINUOUS
  0
LINE
  8
WHITE
 10
168.500000
 20
80.000000
 30
0.000000
 11
168.500000
 21
90.874284
 31
0.000000
  6
CONTINUOUS
  0
LINE
  8
WHITE
 10
261.500000
 20
90.874284
 30
0.000000
 11
261.500000
 21
80.000000
 31
0.000000
  6
CONTINUOUS
  0
LINE
  8
WHITE
 10
261.500000
 20
80.000000
 30
0.000000
 11
267.500000
 21
80.000000
 31
0.000000
  6
CONTINUOUS
  0
ARC
  8
WHITE
 10
215.000000
 20
58.125000
 30
0.000000
 40
56.875000
 50
22.619865
 51
35.156488
  6
CONTINUOUS
  0
LINE
  8
WHITE
 10
259.193885
 20
113.000000
 30
0.000000
 11
243.856975
 21
113.000000
 31
0.000000
  6
CONTINUOUS
  0
ARC
  8
WHITE
 10
243.856975
 20
112.900000
 30
0.000000
 40
0.100000
 50
90.000000
 51
241.980754
  6
CONTINUOUS
  0
ARC
  8
WHITE
 10
215.000000
 20
58.671875
 30
0.000000
 40
61.328125
 50
55.013762
 51
61.980754
  6
CONTINUOUS
  0
LINE
  8
WHITE
 10
250.164300
 20
108.917382
 30
0.000000
 11
259.233312
 21
112.808100
 31
0.000000
  6
CONTINUOUS
  0
ARC
  8
WHITE
 10
259.193885
 20
112.900000
 30
0.000000
 40
0.100000
 50
-66.779667
 51
90.000000
  6
CONTINUOUS
  0
LINE
  8
WHITE
 10
147.856817
 20
39.500000
 30
0.000000
 11
132.388179
 21
39.500000
 31
0.000000
  6
CONTINUOUS
  0
LINE
  8
WHITE
 10
132.388179
 20
39.500000
 30
0.000000
 11
132.142610
 21
37.500000
 31
0.000000
  6
CONTINUOUS
  0
LINE
  8
WHITE
 10
132.142610
 20
37.500000
 30
0.000000
 11
147.984123
 21
37.500000
 31
0.000000
  6
CONTINUOUS
  0
ARC
  8
WHITE
 10
116.500000
 20
36.500000
 30
0.000000
 40
31.500000
 50
1.819219
 51
5.465024
  6
CONTINUOUS
  0
ARC
  8
WHITE
 10
313.500000
 20
36.500000
 30
0.000000
 40
31.500000
 50
174.534976
 51
178.180781
  6
CONTINUOUS
  0
LINE
  8
WHITE
 10
282.015877
 20
37.500000
 30
0.000000
 11
297.857390
 21
37.500000
 31
0.000000
  6
CONTINUOUS
  0
LINE
  8
WHITE
 10
297.857390
 20
37.500000
 30
0.000000
 11
297.611821
 21
39.500000
 31
0.000000
  6
CONTINUOUS
  0
LINE
  8
WHITE
 10
297.611821
 20
39.500000
 30
0.000000
 11
282.143183
 21
39.500000
 31
0.000000
  6
CONTINUOUS
  0
LINE
  8
WHITE
 10
274.000000
 20
92.000000
 30
0.000000
 11
266.481793
 21
92.000000
 31
0.000000
  6
CONTINUOUS
  0
ARC
  8
WHITE
 10
215.000000
 20
58.671875
 30
0.000000
 40
61.328125
 50
27.510479
 51
32.918088
  6
CONTINUOUS
  0
LINE
  8
WHITE
 10
269.393531
 20
87.000000
 30
0.000000
 11
274.000000
 21
87.000000
 31
0.000000
  6
CONTINUOUS
  0
LINE
  8
WHITE
 10
274.000000
 20
87.000000
 30
0.000000
 11
274.000000
 21
92.000000
 31
0.000000
  6
CONTINUOUS
  0
LINE
  8
WHITE
 10
308.000000
 20
141.000000
 30
0.000000
 11
313.000000
 21
141.000000
 31
0.000000
  6
CONTINUOUS
  0
LINE
  8
WHITE
 10
313.000000
 20
141.000000
 30
0.000000
 11
310.500000
 21
151.714286
 31
0.000000
  6
CONTINUOUS
  0
LINE
  8
WHITE
 10
310.500000
 20
151.714286
 30
0.000000
 11
308.000000
 21
141.000000
 31
0.000000
  6
CONTINUOUS
  0
ARC
  8
WHITE
 10
274.333333
 20
181.500000
 30
0.000000
 40
10.833333
 50
154.585376
 51
205.414621
  6
CONTINUOUS
  0
ARC
  8
WHITE
 10
265.000000
 20
177.065288
 30
0.000000
 40
0.500000
 50
-154.585440
 51
-25.414621
  6
CONTINUOUS
  0
ARC
  8
WHITE
 10
255.666667
 20
181.500000
 30
0.000000
 40
10.833333
 50
-25.414624
 51
25.414621
  6
CONTINUOUS
  0
ARC
  8
WHITE
 10
265.000000
 20
185.934712
 30
0.000000
 40
0.500000
 50
25.414560
 51
154.585379
  6
CONTINUOUS
  0
LINE
  8
WHITE
 10
287.000000
 20
119.279647
 30
0.000000
 11
277.471728
 21
115.191900
 31
0.000000
  6
CONTINUOUS
  0
ARC
  8
WHITE
 10
277.511154
 20
115.100000
 30
0.000000
 40
0.100000
 50
113.219806
 51
270.000000
  6
CONTINUOUS
  0
LINE
  8
WHITE
 10
277.511154
 20
115.000000
 30
0.000000
 11
287.000000
 21
115.000000
 31
0.000000
  6
CONTINUOUS
  0
LINE
  8
WHITE
 10
287.000000
 20
115.000000
 30
0.000000
 11
287.000000
 21
119.279647
 31
0.000000
  6
CONTINUOUS
  0
LINE
  8
WHITE
 10
287.000000
 20
85.000000
 30
0.000000
 11
283.000000
 21
85.000000
 31
0.000000
  6
CONTINUOUS
  0
LINE
  8
WHITE
 10
283.000000
 20
85.000000
 30
0.000000
 11
283.000000
 21
80.000000
 31
0.000000
  6
CONTINUOUS
  0
LINE
  8
WHITE
 10
283.000000
 20
80.000000
 30
0.000000
 11
287.000000
 21
80.000000
 31
0.000000
  6
CONTINUOUS
  0
LINE
  8
WHITE
 10
287.000000
 20
80.000000
 30
0.000000
 11
287.000000
 21
85.000000
 31
0.000000
  6
CONTINUOUS
  0
LINE
  8
WHITE
 10
287.000000
 20
92.000000
 30
0.000000
 11
283.000000
 21
92.000000
 31
0.000000
  6
CONTINUOUS
  0
LINE
  8
WHITE
 10
283.000000
 20
92.000000
 30
0.000000
 11
283.000000
 21
87.000000
 31
0.000000
  6
CONTINUOUS
  0
LINE
  8
WHITE
 10
283.000000
 20
87.000000
 30
0.000000
 11
287.000000
 21
87.000000
 31
0.000000
  6
CONTINUOUS
  0
LINE
  8
WHITE
 10
287.000000
 20
87.000000
 30
0.000000
 11
287.000000
 21
92.000000
 31
0.000000
  6
CONTINUOUS
  0
LINE
  8
WHITE
 10
287.000000
 20
99.000000
 30
0.000000
 11
283.000000
 21
99.000000
 31
0.000000
  6
CONTINUOUS
  0
LINE
  8
WHITE
 10
283.000000
 20
99.000000
 30
0.000000
 11
283.000000
 21
94.000000
 31
0.000000
  6
CONTINUOUS
  0
LINE
  8
WHITE
 10
283.000000
 20
94.000000
 30
0.000000
 11
287.000000
 21
94.000000
 31
0.000000
  6
CONTINUOUS
  0
LINE
  8
WHITE
 10
287.000000
 20
94.000000
 30
0.000000
 11
287.000000
 21
99.000000
 31
0.000000
  6
CONTINUOUS
  0
LINE
  8
WHITE
 10
287.000000
 20
106.000000
 30
0.000000
 11
283.000000
 21
106.000000
 31
0.000000
  6
CONTINUOUS
  0
LINE
  8
WHITE
 10
283.000000
 20
106.000000
 30
0.000000
 11
283.000000
 21
101.000000
 31
0.000000
  6
CONTINUOUS
  0
LINE
  8
WHITE
 10
283.000000
 20
101.000000
 30
0.000000
 11
287.000000
 21
101.000000
 31
0.000000
  6
CONTINUOUS
  0
LINE
  8
WHITE
 10
287.000000
 20
101.000000
 30
0.000000
 11
287.000000
 21
106.000000
 31
0.000000
  6
CONTINUOUS
  0
LINE
  8
WHITE
 10
331.843871
 20
59.500000
 30
0.000000
 11
331.598301
 21
57.500000
 31
0.000000
  6
CONTINUOUS
  0
LINE
  8
WHITE
 10
331.598301
 20
57.500000
 30
0.000000
 11
340.798045
 21
57.500000
 31
0.000000
  6
CONTINUOUS
  0
LINE
  8
WHITE
 10
340.798045
 20
57.500000
 30
0.000000
 11
342.547669
 21
59.500000
 31
0.000000
  6
CONTINUOUS
  0
LINE
  8
WHITE
 10
342.547669
 20
59.500000
 30
0.000000
 11
331.843871
 21
59.500000
 31
0.000000
  6
CONTINUOUS
  0
LINE
  8
WHITE
 10
234.000000
 20
120.000000
 30
0.000000
 11
219.952903
 21
120.000000
 31
0.000000
  6
CONTINUOUS
  0
ARC
  8
WHITE
 10
219.952903
 20
119.900000
 30
0.000000
 40
0.100000
 50
90.000000
 51
265.375265
  6
CONTINUOUS
  0
ARC
  8
WHITE
 10
215.000000
 20
58.671875
 30
0.000000
 40
61.328125
 50
71.952285
 51
85.375265
  6
CONTINUOUS
  0
LINE
  8
WHITE
 10
234.000000
 20
116.982585
 30
0.000000
 11
234.000000
 21
120.000000
 31
0.000000
  6
CONTINUOUS
  0
ARC
  8
WHITE
 10
48.875000
 20
101.500000
 30
0.000000
 40
4.875000
 50
112.619865
 51
247.380135
  6
CONTINUOUS
  0
LINE
  8
WHITE
 10
47.000000
 20
97.000000
 30
0.000000
 11
47.000000
 21
106.000000
 31
0.000000
  6
CONTINUOUS
  0
LINE
  8
WHITE
 10
121.000000
 20
39.500000
 30
0.000000
 11
112.000000
 21
39.500000
 31
0.000000
  6
CONTINUOUS
  0
LINE
  8
WHITE
 10
112.000000
 20
39.500000
 30
0.000000
 11
112.000000
 21
37.500000
 31
0.000000
  6
CONTINUOUS
  0
LINE
  8
WHITE
 10
112.000000
 20
37.500000
 30
0.000000
 11
121.000000
 21
37.500000
 31
0.000000
  6
CONTINUOUS
  0
LINE
  8
WHITE
 10
121.000000
 20
37.500000
 30
0.000000
 11
121.000000
 21
39.500000
 31
0.000000
  6
CONTINUOUS
  0
LINE
  8
WHITE
 10
121.000000
 20
55.500000
 30
0.000000
 11
112.000000
 21
55.500000
 31
0.000000
  6
CONTINUOUS
  0
LINE
  8
WHITE
 10
112.000000
 20
55.500000
 30
0.000000
 11
112.000000
 21
53.500000
 31
0.000000
  6
CONTINUOUS
  0
LINE
  8
WHITE
 10
112.000000
 20
53.500000
 30
0.000000
 11
121.000000
 21
53.500000
 31
0.000000
  6
CONTINUOUS
  0
LINE
  8
WHITE
 10
121.000000
 20
53.500000
 30
0.000000
 11
121.000000
 21
55.500000
 31
0.000000
  6
CONTINUOUS
  0
LINE
  8
WHITE
 10
121.000000
 20
59.500000
 30
0.000000
 11
112.000000
 21
59.500000
 31
0.000000
  6
CONTINUOUS
  0
LINE
  8
WHITE
 10
112.000000
 20
59.500000
 30
0.000000
 11
112.000000
 21
57.500000
 31
0.000000
  6
CONTINUOUS
  0
LINE
  8
WHITE
 10
112.000000
 20
57.500000
 30
0.000000
 11
121.000000
 21
57.500000
 31
0.000000
  6
CONTINUOUS
  0
LINE
  8
WHITE
 10
121.000000
 20
57.500000
 30
0.000000
 11
121.000000
 21
59.500000
 31
0.000000
  6
CONTINUOUS
  0
LINE
  8
WHITE
 10
318.000000
 20
39.500000
 30
0.000000
 11
309.000000
 21
39.500000
 31
0.000000
  6
CONTINUOUS
  0
LINE
  8
WHITE
 10
309.000000
 20
39.500000
 30
0.000000
 11
309.000000
 21
37.500000
 31
0.000000
  6
CONTINUOUS
  0
LINE
  8
WHITE
 10
309.000000
 20
37.500000
 30
0.000000
 11
318.000000
 21
37.500000
 31
0.000000
  6
CONTINUOUS
  0
LINE
  8
WHITE
 10
318.000000
 20
37.500000
 30
0.000000
 11
318.000000
 21
39.500000
 31
0.000000
  6
CONTINUOUS
  0
LINE
  8
WHITE
 10
309.000000
 20
53.500000
 30
0.000000
 11
318.000000
 21
53.500000
 31
0.000000
  6
CONTINUOUS
  0
LINE
  8
WHITE
 10
318.000000
 20
53.500000
 30
0.000000
 11
318.000000
 21
55.500000
 31
0.000000
  6
CONTINUOUS
  0
LINE
  8
WHITE
 10
318.000000
 20
55.500000
 30
0.000000
 11
309.000000
 21
55.500000
 31
0.000000
  6
CONTINUOUS
  0
LINE
  8
WHITE
 10
309.000000
 20
55.500000
 30
0.000000
 11
309.000000
 21
53.500000
 31
0.000000
  6
CONTINUOUS
  0
LINE
  8
WHITE
 10
309.000000
 20
57.500000
 30
0.000000
 11
318.000000
 21
57.500000
 31
0.000000
  6
CONTINUOUS
  0
LINE
  8
WHITE
 10
318.000000
 20
57.500000
 30
0.000000
 11
318.000000
 21
59.500000
 31
0.000000
  6
CONTINUOUS
  0
LINE
  8
WHITE
 10
318.000000
 20
59.500000
 30
0.000000
 11
309.000000
 21
59.500000
 31
0.000000
  6
CONTINUOUS
  0
LINE
  8
WHITE
 10
309.000000
 20
59.500000
 30
0.000000
 11
309.000000
 21
57.500000
 31
0.000000
  6
CONTINUOUS
  0
LINE
  8
WHITE
 10
55.000000
 20
52.500000
 30
0.000000
 11
50.000000
 21
52.500000
 31
0.000000
  6
CONTINUOUS
  0
LINE
  8
WHITE
 10
50.000000
 20
52.500000
 30
0.000000
 11
50.000000
 21
50.500000
 31
0.000000
  6
CONTINUOUS
  0
LINE
  8
WHITE
 10
50.000000
 20
50.500000
 30
0.000000
 11
62.187689
 21
50.500000
 31
0.000000
  6
CONTINUOUS
  0
ARC
  8
WHITE
 10
62.187689
 20
50.600000
 30
0.000000
 40
0.100000
 50
-90.000000
 51
75.963756
  6
CONTINUOUS
  0
LINE
  8
WHITE
 10
62.211943
 20
50.697014
 30
0.000000
 11
55.000000
 21
52.500000
 31
0.000000
  6
CONTINUOUS
  0
LINE
  8
WHITE
 10
73.880842
 20
52.500000
 30
0.000000
 11
73.842823
 21
51.789294
 31
0.000000
  6
CONTINUOUS
  0
LINE
  8
WHITE
 10
73.842823
 20
51.789294
 30
0.000000
 11
82.446604
 21
49.638349
 31
0.000000
  6
CONTINUOUS
  0
ARC
  8
WHITE
 10
116.500000
 20
36.500000
 30
0.000000
 40
36.500000
 50
154.000955
 51
158.902582
  6
CONTINUOUS
  0
LINE
  8
WHITE
 10
83.693751
 20
52.500000
 30
0.000000
 11
73.880842
 21
52.500000
 31
0.000000
  6
CONTINUOUS
  0
LINE
  8
WHITE
 10
330.861594
 20
51.500000
 30
0.000000
 11
330.096247
 21
45.266750
 31
0.000000
  6
CONTINUOUS
  0
LINE
  8
WHITE
 10
330.096247
 20
45.266750
 30
0.000000
 11
335.549171
 21
51.500000
 31
0.000000
  6
CONTINUOUS
  0
LINE
  8
WHITE
 10
335.549171
 20
51.500000
 30
0.000000
 11
330.861594
 21
51.500000
 31
0.000000
  6
CONTINUOUS
  0
LINE
  8
WHITE
 10
331.352732
 20
55.500000
 30
0.000000
 11
331.107163
 21
53.500000
 31
0.000000
  6
CONTINUOUS
  0
LINE
  8
WHITE
 10
331.107163
 20
53.500000
 30
0.000000
 11
337.298796
 21
53.500000
 31
0.000000
  6
CONTINUOUS
  0
LINE
  8
WHITE
 10
337.298796
 20
53.500000
 30
0.000000
 11
339.048420
 21
55.500000
 31
0.000000
  6
CONTINUOUS
  0
LINE
  8
WHITE
 10
339.048420
 20
55.500000
 30
0.000000
 11
331.352732
 21
55.500000
 31
0.000000
  6
CONTINUOUS
  0
LINE
  8
WHITE
 10
274.000000
 20
85.000000
 30
0.000000
 11
270.389248
 21
85.000000
 31
0.000000
  6
CONTINUOUS
  0
ARC
  8
WHITE
 10
215.000000
 20
58.671875
 30
0.000000
 40
61.328125
 50
20.351022
 51
25.423104
  6
CONTINUOUS
  0
LINE
  8
WHITE
 10
272.500000
 20
80.000000
 30
0.000000
 11
274.000000
 21
80.000000
 31
0.000000
  6
CONTINUOUS
  0
LINE
  8
WHITE
 10
274.000000
 20
80.000000
 30
0.000000
 11
274.000000
 21
85.000000
 31
0.000000
  6
CONTINUOUS
  0
LINE
  8
WHITE
 10
186.143025
 20
113.000000
 30
0.000000
 11
180.000000
 21
113.000000
 31
0.000000
  6
CONTINUOUS
  0
LINE
  8
WHITE
 10
180.000000
 20
113.000000
 30
0.000000
 11
180.000000
 21
109.031967
 31
0.000000
  6
CONTINUOUS
  0
ARC
  8
WHITE
 10
215.000000
 20
58.671875
 30
0.000000
 40
61.328125
 50
118.019246
 51
124.799098
  6
CONTINUOUS
  0
ARC
  8
WHITE
 10
186.143025
 20
112.900000
 30
0.000000
 40
0.100000
 50
-61.980700
 51
90.000000
  6
CONTINUOUS
  0
LINE
  8
WHITE
 10
296.000000
 20
162.627904
 30
0.000000
 11
296.000000
 21
167.866484
 31
0.000000
  6
CONTINUOUS
  0
LINE
  8
WHITE
 10
296.000000
 20
167.866484
 30
0.000000
 11
293.135695
 21
168.761821
 31
0.000000
  6
CONTINUOUS
  0
LINE
  8
WHITE
 10
293.135695
 20
168.761821
 30
0.000000
 11
294.113280
 21
163.217663
 31
0.000000
  6
CONTINUOUS
  0
LINE
  8
WHITE
 10
294.113280
 20
163.217663
 30
0.000000
 11
296.000000
 21
162.627904
 31
0.000000
  6
CONTINUOUS
  0
ENDSEC
  0
EOF
