  0
SECTION
  2
HEADER
  9
$ANGDIR
 70
     0
  9
$EXTMAX
 10
168.796051
 20
51.060036
 30
0.000000
  9
$EXTMIN
 10
1.541047
 20
-0.873260
 30
0.000000
  9
$CECOLOR
 62
   256
  9
$CELTYPE
  6
BYLAYER
  0
ENDSEC
  0
SECTION
  2
TABLES
  0
TABLE
  2
LTYPE
 70
     1
  0
LTYPE
  2
CONTINUOUS
 70
    64
  3
Solid line
 72
    65
 73
     0
 40
0.000000
  0
ENDTAB
  0
TABLE
  2
LAYER
 70
   257
  0
LAYER
  2
0
 70
    64
 62
     7
  6
CONTINUOUS
  0
ENDTAB
  0
ENDSEC
  0
SECTION
  2
BLOCKS
  0
ENDSEC
  0
SECTION
  2
ENTITIES
  0
POLYLINE
  8
Layer 0
 66
     1
 10
0.000000
 20
0.000000
 30
0.000000
  0
VERTEX
  8
Layer 0
 10
41.300068
 20
44.228058
 30
0.000000
  0
VERTEX
  8
Layer 0
 10
41.300068
 20
44.228058
 30
0.000000
  0
VERTEX
  8
Layer 0
 10
24.708126
 20
44.228058
 30
0.000000
  0
VERTEX
  8
Layer 0
 10
24.708126
 20
0.000000
 30
0.000000
  0
VERTEX
  8
Layer 0
 10
18.030254
 20
0.000000
 30
0.000000
  0
VERTEX
  8
Layer 0
 10
18.030254
 20
44.228058
 30
0.000000
  0
VERTEX
  8
Layer 0
 10
1.541047
 20
44.228058
 30
0.000000
  0
VERTEX
  8
Layer 0
 10
1.541047
 20
50.186775
 30
0.000000
  0
VERTEX
  8
Layer 0
 10
41.300068
 20
50.186775
 30
0.000000
  0
VERTEX
  8
Layer 0
 10
41.300068
 20
44.228058
 30
0.000000
  0
SEQEND
  0
POLYLINE
  8
Layer 0
 66
     1
 10
0.000000
 20
0.000000
 30
0.000000
  0
VERTEX
  8
Layer 0
 10
84.346657
 20
0.000000
 30
0.000000
  0
VERTEX
  8
Layer 0
 10
84.346657
 20
0.000000
 30
0.000000
  0
VERTEX
  8
Layer 0
 10
46.847839
 20
0.000000
 30
0.000000
  0
VERTEX
  8
Layer 0
 10
46.847839
 20
50.186775
 30
0.000000
  0
VERTEX
  8
Layer 0
 10
83.165184
 20
50.186775
 30
0.000000
  0
VERTEX
  8
Layer 0
 10
83.165184
 20
44.228058
 30
0.000000
  0
VERTEX
  8
Layer 0
 10
53.474342
 20
44.228058
 30
0.000000
  0
VERTEX
  8
Layer 0
 10
53.474342
 20
28.920321
 30
0.000000
  0
VERTEX
  8
Layer 0
 10
81.264565
 20
28.920321
 30
0.000000
  0
VERTEX
  8
Layer 0
 10
81.264565
 20
22.961605
 30
0.000000
  0
VERTEX
  8
Layer 0
 10
53.474342
 20
22.961605
 30
0.000000
  0
VERTEX
  8
Layer 0
 10
53.474342
 20
5.958716
 30
0.000000
  0
VERTEX
  8
Layer 0
 10
84.346657
 20
5.958716
 30
0.000000
  0
VERTEX
  8
Layer 0
 10
84.346657
 20
0.000000
 30
0.000000
  0
SEQEND
  0
POLYLINE
  8
Layer 0
 66
     1
 10
0.000000
 20
0.000000
 30
0.000000
  0
VERTEX
  8
Layer 0
 10
119.533905
 20
35.444088
 30
0.000000
  0
VERTEX
  8
Layer 0
 10
119.533905
 20
35.444088
 30
0.000000
  0
VERTEX
  8
Layer 0
 10
119.379799
 20
36.625557
 30
0.000000
  0
VERTEX
  8
Layer 0
 10
119.174324
 20
37.704292
 30
0.000000
  0
VERTEX
  8
Layer 0
 10
118.866119
 20
38.731655
 30
0.000000
  0
VERTEX
  8
Layer 0
 10
118.455170
 20
39.656284
 30
0.000000
  0
VERTEX
  8
Layer 0
 10
117.992859
 20
40.529545
 30
0.000000
  0
VERTEX
  8
Layer 0
 10
117.427803
 20
41.300068
 30
0.000000
  0
VERTEX
  8
Layer 0
 10
116.811386
 20
42.019222
 30
0.000000
  0
VERTEX
  8
Layer 0
 10
116.092232
 20
42.687012
 30
0.000000
  0
VERTEX
  8
Layer 0
 10
115.270340
 20
43.252060
 30
0.000000
  0
VERTEX
  8
Layer 0
 10
114.397079
 20
43.714375
 30
0.000000
  0
VERTEX
  8
Layer 0
 10
113.421082
 20
44.125320
 30
0.000000
  0
VERTEX
  8
Layer 0
 10
112.393715
 20
44.484898
 30
0.000000
  0
VERTEX
  8
Layer 0
 10
111.263618
 20
44.741741
 30
0.000000
  0
VERTEX
  8
Layer 0
 10
110.030777
 20
44.947212
 30
0.000000
  0
VERTEX
  8
Layer 0
 10
108.746574
 20
45.049950
 30
0.000000
  0
VERTEX
  8
Layer 0
 10
107.359627
 20
45.101318
 30
0.000000
  0
VERTEX
  8
Layer 0
 10
106.075424
 20
45.049950
 30
0.000000
  0
VERTEX
  8
Layer 0
 10
104.893951
 20
44.947212
 30
0.000000
  0
VERTEX
  8
Layer 0
 10
103.763855
 20
44.844479
 30
0.000000
  0
VERTEX
  8
Layer 0
 10
102.685120
 20
44.587635
 30
0.000000
  0
VERTEX
  8
Layer 0
 10
101.709122
 20
44.330795
 30
0.000000
  0
VERTEX
  8
Layer 0
 10
100.733124
 20
44.022587
 30
0.000000
  0
VERTEX
  8
Layer 0
 10
99.859863
 20
43.611641
 30
0.000000
  0
VERTEX
  8
Layer 0
 10
98.986603
 20
43.149326
 30
0.000000
  0
VERTEX
  8
Layer 0
 10
98.267448
 20
42.687012
 30
0.000000
  0
VERTEX
  8
Layer 0
 10
97.599663
 20
42.121960
 30
0.000000
  0
VERTEX
  8
Layer 0
 10
97.034615
 20
41.505543
 30
0.000000
  0
VERTEX
  8
Layer 0
 10
96.572296
 20
40.837753
 30
0.000000
  0
VERTEX
  8
Layer 0
 10
96.212723
 20
40.118599
 30
0.000000
  0
VERTEX
  8
Layer 0
 10
96.007248
 20
39.296707
 30
0.000000
  0
VERTEX
  8
Layer 0
 10
95.853142
 20
38.474815
 30
0.000000
  0
VERTEX
  8
Layer 0
 10
95.801773
 20
37.601555
 30
0.000000
  0
VERTEX
  8
Layer 0
 10
95.801773
 20
36.831032
 30
0.000000
  0
VERTEX
  8
Layer 0
 10
95.955879
 20
36.060509
 30
0.000000
  0
VERTEX
  8
Layer 0
 10
96.109985
 20
35.392719
 30
0.000000
  0
VERTEX
  8
Layer 0
 10
96.418198
 20
34.776302
 30
0.000000
  0
VERTEX
  8
Layer 0
 10
96.726402
 20
34.159882
 30
0.000000
  0
VERTEX
  8
Layer 0
 10
97.188721
 20
33.646198
 30
0.000000
  0
VERTEX
  8
Layer 0
 10
97.702400
 20
33.183887
 30
0.000000
  0
VERTEX
  8
Layer 0
 10
98.267448
 20
32.772938
 30
0.000000
  0
VERTEX
  8
Layer 0
 10
98.935242
 20
32.361992
 30
0.000000
  0
VERTEX
  8
Layer 0
 10
99.808495
 20
31.951048
 30
0.000000
  0
VERTEX
  8
Layer 0
 10
100.784492
 20
31.540102
 30
0.000000
  0
VERTEX
  8
Layer 0
 10
101.863228
 20
31.180525
 30
0.000000
  0
VERTEX
  8
Layer 0
 10
103.147430
 20
30.769579
 30
0.000000
  0
VERTEX
  8
Layer 0
 10
104.534378
 20
30.358633
 30
0.000000
  0
VERTEX
  8
Layer 0
 10
106.075424
 20
29.999054
 30
0.000000
  0
VERTEX
  8
Layer 0
 10
107.770576
 20
29.588108
 30
0.000000
  0
VERTEX
  8
Layer 0
 10
109.311623
 20
29.228531
 30
0.000000
  0
VERTEX
  8
Layer 0
 10
110.749931
 20
28.868954
 30
0.000000
  0
VERTEX
  8
Layer 0
 10
112.136879
 20
28.560743
 30
0.000000
  0
VERTEX
  8
Layer 0
 10
113.421082
 20
28.201166
 30
0.000000
  0
VERTEX
  8
Layer 0
 10
114.653923
 20
27.841589
 30
0.000000
  0
VERTEX
  8
Layer 0
 10
115.835388
 20
27.482010
 30
0.000000
  0
VERTEX
  8
Layer 0
 10
116.914124
 20
27.122433
 30
0.000000
  0
VERTEX
  8
Layer 0
 10
117.941490
 20
26.762856
 30
0.000000
  0
VERTEX
  8
Layer 0
 10
118.917488
 20
26.403278
 30
0.000000
  0
VERTEX
  8
Layer 0
 10
119.842110
 20
25.940964
 30
0.000000
  0
VERTEX
  8
Layer 0
 10
120.715370
 20
25.478649
 30
0.000000
  0
VERTEX
  8
Layer 0
 10
121.588631
 20
24.913599
 30
0.000000
  0
VERTEX
  8
Layer 0
 10
122.410522
 20
24.348547
 30
0.000000
  0
VERTEX
  8
Layer 0
 10
123.181046
 20
23.732128
 30
0.000000
  0
VERTEX
  8
Layer 0
 10
123.951576
 20
23.012974
 30
0.000000
  0
VERTEX
  8
Layer 0
 10
124.670731
 20
22.293818
 30
0.000000
  0
VERTEX
  8
Layer 0
 10
125.338516
 20
21.523294
 30
0.000000
  0
VERTEX
  8
Layer 0
 10
125.903564
 20
20.650034
 30
0.000000
  0
VERTEX
  8
Layer 0
 10
126.365883
 20
19.725407
 30
0.000000
  0
VERTEX
  8
Layer 0
 10
126.776825
 20
18.749409
 30
0.000000
  0
VERTEX
  8
Layer 0
 10
127.085037
 20
17.722044
 30
0.000000
  0
VERTEX
  8
Layer 0
 10
127.290512
 20
16.591944
 30
0.000000
  0
VERTEX
  8
Layer 0
 10
127.444611
 20
15.410473
 30
0.000000
  0
VERTEX
  8
Layer 0
 10
127.495979
 20
14.177635
 30
0.000000
  0
VERTEX
  8
Layer 0
 10
127.393242
 20
12.585219
 30
0.000000
  0
VERTEX
  8
Layer 0
 10
127.187775
 20
11.095541
 30
0.000000
  0
VERTEX
  8
Layer 0
 10
126.776825
 20
9.605862
 30
0.000000
  0
VERTEX
  8
Layer 0
 10
126.211777
 20
8.270288
 30
0.000000
  0
VERTEX
  8
Layer 0
 10
125.492622
 20
6.934713
 30
0.000000
  0
VERTEX
  8
Layer 0
 10
124.567993
 20
5.701875
 30
0.000000
  0
VERTEX
  8
Layer 0
 10
123.540627
 20
4.520405
 30
0.000000
  0
VERTEX
  8
Layer 0
 10
122.307793
 20
3.441672
 30
0.000000
  0
VERTEX
  8
Layer 0
 10
120.972214
 20
2.414307
 30
0.000000
  0
VERTEX
  8
Layer 0
 10
119.585274
 20
1.541047
 30
0.000000
  0
VERTEX
  8
Layer 0
 10
118.044228
 20
0.821892
 30
0.000000
  0
VERTEX
  8
Layer 0
 10
116.400444
 20
0.205473
 30
0.000000
  0
VERTEX
  8
Layer 0
 10
114.653923
 20
-0.256841
 30
0.000000
  0
VERTEX
  8
Layer 0
 10
112.856033
 20
-0.565051
 30
0.000000
  0
VERTEX
  8
Layer 0
 10
110.904037
 20
-0.770524
 30
0.000000
  0
VERTEX
  8
Layer 0
 10
108.900681
 20
-0.873260
 30
0.000000
  0
VERTEX
  8
Layer 0
 10
106.332268
 20
-0.770524
 30
0.000000
  0
VERTEX
  8
Layer 0
 10
103.917961
 20
-0.565051
 30
0.000000
  0
VERTEX
  8
Layer 0
 10
101.709122
 20
-0.205473
 30
0.000000
  0
VERTEX
  8
Layer 0
 10
99.654396
 20
0.308209
 30
0.000000
  0
VERTEX
  8
Layer 0
 10
97.753769
 20
0.975997
 30
0.000000
  0
VERTEX
  8
Layer 0
 10
96.007248
 20
1.797889
 30
0.000000
  0
VERTEX
  8
Layer 0
 10
94.466202
 20
2.773885
 30
0.000000
  0
VERTEX
  8
Layer 0
 10
93.079262
 20
3.852618
 30
0.000000
  0
VERTEX
  8
Layer 0
 10
91.846420
 20
5.085456
 30
0.000000
  0
VERTEX
  8
Layer 0
 10
90.716316
 20
6.421031
 30
0.000000
  0
VERTEX
  8
Layer 0
 10
89.791687
 20
7.807973
 30
0.000000
  0
VERTEX
  8
Layer 0
 10
89.021164
 20
9.297652
 30
0.000000
  0
VERTEX
  8
Layer 0
 10
88.404747
 20
10.890068
 30
0.000000
  0
VERTEX
  8
Layer 0
 10
87.942436
 20
12.533852
 30
0.000000
  0
VERTEX
  8
Layer 0
 10
87.634224
 20
14.280372
 30
0.000000
  0
VERTEX
  8
Layer 0
 10
87.480118
 20
16.129629
 30
0.000000
  0
VERTEX
  8
Layer 0
 10
93.798416
 20
16.694679
 30
0.000000
  0
VERTEX
  8
Layer 0
 10
93.952515
 20
15.205000
 30
0.000000
  0
VERTEX
  8
Layer 0
 10
94.260727
 20
13.869426
 30
0.000000
  0
VERTEX
  8
Layer 0
 10
94.671677
 20
12.636588
 30
0.000000
  0
VERTEX
  8
Layer 0
 10
95.185356
 20
11.455118
 30
0.000000
  0
VERTEX
  8
Layer 0
 10
95.801773
 20
10.427753
 30
0.000000
  0
VERTEX
  8
Layer 0
 10
96.572296
 20
9.451756
 30
0.000000
  0
VERTEX
  8
Layer 0
 10
97.445557
 20
8.629865
 30
0.000000
  0
VERTEX
  8
Layer 0
 10
98.472923
 20
7.910709
 30
0.000000
  0
VERTEX
  8
Layer 0
 10
99.551659
 20
7.242922
 30
0.000000
  0
VERTEX
  8
Layer 0
 10
100.681755
 20
6.677872
 30
0.000000
  0
VERTEX
  8
Layer 0
 10
101.863228
 20
6.215558
 30
0.000000
  0
VERTEX
  8
Layer 0
 10
103.096069
 20
5.804612
 30
0.000000
  0
VERTEX
  8
Layer 0
 10
104.380272
 20
5.547771
 30
0.000000
  0
VERTEX
  8
Layer 0
 10
105.767212
 20
5.290929
 30
0.000000
  0
VERTEX
  8
Layer 0
 10
107.154160
 20
5.188193
 30
0.000000
  0
VERTEX
  8
Layer 0
 10
108.643837
 20
5.136825
 30
0.000000
  0
VERTEX
  8
Layer 0
 10
109.979408
 20
5.188193
 30
0.000000
  0
VERTEX
  8
Layer 0
 10
111.263618
 20
5.290929
 30
0.000000
  0
VERTEX
  8
Layer 0
 10
112.496452
 20
5.445034
 30
0.000000
  0
VERTEX
  8
Layer 0
 10
113.677925
 20
5.701875
 30
0.000000
  0
VERTEX
  8
Layer 0
 10
114.756660
 20
6.010085
 30
0.000000
  0
VERTEX
  8
Layer 0
 10
115.784019
 20
6.421031
 30
0.000000
  0
VERTEX
  8
Layer 0
 10
116.760017
 20
6.883345
 30
0.000000
  0
VERTEX
  8
Layer 0
 10
117.633278
 20
7.448395
 30
0.000000
  0
VERTEX
  8
Layer 0
 10
118.455170
 20
8.013446
 30
0.000000
  0
VERTEX
  8
Layer 0
 10
119.122955
 20
8.681233
 30
0.000000
  0
VERTEX
  8
Layer 0
 10
119.739380
 20
9.400389
 30
0.000000
  0
VERTEX
  8
Layer 0
 10
120.201691
 20
10.119544
 30
0.000000
  0
VERTEX
  8
Layer 0
 10
120.612640
 20
10.941436
 30
0.000000
  0
VERTEX
  8
Layer 0
 10
120.869476
 20
11.814696
 30
0.000000
  0
VERTEX
  8
Layer 0
 10
121.023582
 20
12.687956
 30
0.000000
  0
VERTEX
  8
Layer 0
 10
121.074951
 20
13.663953
 30
0.000000
  0
VERTEX
  8
Layer 0
 10
121.023582
 20
14.639950
 30
0.000000
  0
VERTEX
  8
Layer 0
 10
120.869476
 20
15.564578
 30
0.000000
  0
VERTEX
  8
Layer 0
 10
120.561272
 20
16.437838
 30
0.000000
  0
VERTEX
  8
Layer 0
 10
120.201691
 20
17.208363
 30
0.000000
  0
VERTEX
  8
Layer 0
 10
119.688011
 20
17.927517
 30
0.000000
  0
VERTEX
  8
Layer 0
 10
119.071587
 20
18.595304
 30
0.000000
  0
VERTEX
  8
Layer 0
 10
118.352432
 20
19.160355
 30
0.000000
  0
VERTEX
  8
Layer 0
 10
117.479172
 20
19.674038
 30
0.000000
  0
VERTEX
  8
Layer 0
 10
116.503174
 20
20.136353
 30
0.000000
  0
VERTEX
  8
Layer 0
 10
115.373077
 20
20.598665
 30
0.000000
  0
VERTEX
  8
Layer 0
 10
114.088867
 20
21.060980
 30
0.000000
  0
VERTEX
  8
Layer 0
 10
112.650558
 20
21.523294
 30
0.000000
  0
VERTEX
  8
Layer 0
 10
111.109512
 20
21.985609
 30
0.000000
  0
VERTEX
  8
Layer 0
 10
109.362991
 20
22.447922
 30
0.000000
  0
VERTEX
  8
Layer 0
 10
107.462364
 20
22.910236
 30
0.000000
  0
VERTEX
  8
Layer 0
 10
105.407639
 20
23.372551
 30
0.000000
  0
VERTEX
  8
Layer 0
 10
103.352905
 20
23.834866
 30
0.000000
  0
VERTEX
  8
Layer 0
 10
101.503647
 20
24.399916
 30
0.000000
  0
VERTEX
  8
Layer 0
 10
99.705765
 20
24.964966
 30
0.000000
  0
VERTEX
  8
Layer 0
 10
98.113342
 20
25.581385
 30
0.000000
  0
VERTEX
  8
Layer 0
 10
96.675034
 20
26.249172
 30
0.000000
  0
VERTEX
  8
Layer 0
 10
95.390831
 20
26.968328
 30
0.000000
  0
VERTEX
  8
Layer 0
 10
94.209358
 20
27.687483
 30
0.000000
  0
VERTEX
  8
Layer 0
 10
93.233360
 20
28.509375
 30
0.000000
  0
VERTEX
  8
Layer 0
 10
92.360100
 20
29.382635
 30
0.000000
  0
VERTEX
  8
Layer 0
 10
91.589577
 20
30.307264
 30
0.000000
  0
VERTEX
  8
Layer 0
 10
90.921791
 20
31.283260
 30
0.000000
  0
VERTEX
  8
Layer 0
 10
90.408112
 20
32.361992
 30
0.000000
  0
VERTEX
  8
Layer 0
 10
89.997162
 20
33.440727
 30
0.000000
  0
VERTEX
  8
Layer 0
 10
89.740326
 20
34.622196
 30
0.000000
  0
VERTEX
  8
Layer 0
 10
89.534851
 20
35.855034
 30
0.000000
  0
VERTEX
  8
Layer 0
 10
89.483482
 20
37.139240
 30
0.000000
  0
VERTEX
  8
Layer 0
 10
89.534851
 20
38.628918
 30
0.000000
  0
VERTEX
  8
Layer 0
 10
89.791687
 20
40.015862
 30
0.000000
  0
VERTEX
  8
Layer 0
 10
90.151268
 20
41.351437
 30
0.000000
  0
VERTEX
  8
Layer 0
 10
90.664948
 20
42.635643
 30
0.000000
  0
VERTEX
  8
Layer 0
 10
91.332741
 20
43.868481
 30
0.000000
  0
VERTEX
  8
Layer 0
 10
92.154633
 20
44.998581
 30
0.000000
  0
VERTEX
  8
Layer 0
 10
93.079262
 20
46.077316
 30
0.000000
  0
VERTEX
  8
Layer 0
 10
94.209358
 20
47.104679
 30
0.000000
  0
VERTEX
  8
Layer 0
 10
95.442200
 20
48.029308
 30
0.000000
  0
VERTEX
  8
Layer 0
 10
96.777771
 20
48.851200
 30
0.000000
  0
VERTEX
  8
Layer 0
 10
98.216080
 20
49.518986
 30
0.000000
  0
VERTEX
  8
Layer 0
 10
99.808495
 20
50.084038
 30
0.000000
  0
VERTEX
  8
Layer 0
 10
101.452278
 20
50.494984
 30
0.000000
  0
VERTEX
  8
Layer 0
 10
103.198799
 20
50.803192
 30
0.000000
  0
VERTEX
  8
Layer 0
 10
105.099426
 20
51.008667
 30
0.000000
  0
VERTEX
  8
Layer 0
 10
107.102791
 20
51.060036
 30
0.000000
  0
VERTEX
  8
Layer 0
 10
109.106148
 20
51.008667
 30
0.000000
  0
VERTEX
  8
Layer 0
 10
111.058144
 20
50.803192
 30
0.000000
  0
VERTEX
  8
Layer 0
 10
112.907402
 20
50.494984
 30
0.000000
  0
VERTEX
  8
Layer 0
 10
114.602554
 20
50.084038
 30
0.000000
  0
VERTEX
  8
Layer 0
 10
116.246338
 20
49.518986
 30
0.000000
  0
VERTEX
  8
Layer 0
 10
117.787384
 20
48.851200
 30
0.000000
  0
VERTEX
  8
Layer 0
 10
119.174324
 20
48.029308
 30
0.000000
  0
VERTEX
  8
Layer 0
 10
120.509903
 20
47.104679
 30
0.000000
  0
VERTEX
  8
Layer 0
 10
121.691368
 20
46.077316
 30
0.000000
  0
VERTEX
  8
Layer 0
 10
122.770103
 20
44.947212
 30
0.000000
  0
VERTEX
  8
Layer 0
 10
123.643364
 20
43.714375
 30
0.000000
  0
VERTEX
  8
Layer 0
 10
124.413887
 20
42.378799
 30
0.000000
  0
VERTEX
  8
Layer 0
 10
125.030304
 20
40.940491
 30
0.000000
  0
VERTEX
  8
Layer 0
 10
125.441254
 20
39.399445
 30
0.000000
  0
VERTEX
  8
Layer 0
 10
125.749458
 20
37.755661
 30
0.000000
  0
VERTEX
  8
Layer 0
 10
125.903564
 20
35.957771
 30
0.000000
  0
VERTEX
  8
Layer 0
 10
119.533905
 20
35.444088
 30
0.000000
  0
SEQEND
  0
POLYLINE
  8
Layer 0
 66
     1
 10
0.000000
 20
0.000000
 30
0.000000
  0
VERTEX
  8
Layer 0
 10
168.796051
 20
44.228058
 30
0.000000
  0
VERTEX
  8
Layer 0
 10
168.796051
 20
44.228058
 30
0.000000
  0
VERTEX
  8
Layer 0
 10
152.204102
 20
44.228058
 30
0.000000
  0
VERTEX
  8
Layer 0
 10
152.204102
 20
0.000000
 30
0.000000
  0
VERTEX
  8
Layer 0
 10
145.526230
 20
0.000000
 30
0.000000
  0
VERTEX
  8
Layer 0
 10
145.526230
 20
44.228058
 30
0.000000
  0
VERTEX
  8
Layer 0
 10
129.037033
 20
44.228058
 30
0.000000
  0
VERTEX
  8
Layer 0
 10
129.037033
 20
50.186775
 30
0.000000
  0
VERTEX
  8
Layer 0
 10
168.796051
 20
50.186775
 30
0.000000
  0
VERTEX
  8
Layer 0
 10
168.796051
 20
44.228058
 30
0.000000
  0
SEQEND
  0
ENDSEC
  0
EOF
