  0
SECTION
  2
HEADER
  9
$ACADVER
  1
AC1009
  9
$DWGCODEPAGE
  3
ansi_1252
  9
$INSBASE
 10
0.0
 20
0.0
 30
0.0
  9
$EXTMIN
 10
1.0000000000E+20
 20
1.0000000000E+20
 30
1.0000000000E+20
  9
$EXTMAX
 10
-1.0000000000E+20
 20
-1.0000000000E+20
 30
-1.0000000000E+20
  9
$LIMMIN
 10
0.0
 20
0.0
  9
$LIMMAX
 10
420.0
 20
297.0
  9
$ORTHOMODE
 70
     0
  9
$REGENMODE
 70
     1
  9
$FILLMODE
 70
     1
  9
$QTEXTMODE
 70
     0
  9
$MIRRTEXT
 70
     1
  9
$DRAGMODE
 70
     2
  9
$LTSCALE
 40
1.0
  9
$OSMODE
 70
    37
  9
$ATTMODE
 70
     1
  9
$TEXTSIZE
 40
2.5
  9
$TRACEWID
 40
1.0
  9
$TEXTSTYLE
  7
STANDARD
  9
$CLAYER
  8
0
  9
$CELTYPE
  6
BYLAYER
  9
$CECOLOR
 62
   256
  9
$DIMSCALE
 40
1.0
  9
$DIMASZ
 40
2.5
  9
$DIMEXO
 40
0.625
  9
$DIMDLI
 40
3.75
  9
$DIMRND
 40
0.0
  9
$DIMDLE
 40
0.0
  9
$DIMEXE
 40
1.25
  9
$DIMTP
 40
0.0
  9
$DIMTM
 40
0.0
  9
$DIMTXT
 40
2.5
  9
$DIMCEN
 40
2.5
  9
$DIMTSZ
 40
0.0
  9
$DIMTOL
 70
     0
  9
$DIMLIM
 70
     0
  9
$DIMTIH
 70
     0
  9
$DIMTOH
 70
     0
  9
$DIMSE1
 70
     0
  9
$DIMSE2
 70
     0
  9
$DIMTAD
 70
     1
  9
$DIMZIN
 70
     8
  9
$DIMBLK
  1

  9
$DIMASO
 70
     1
  9
$DIMSHO
 70
     1
  9
$DIMPOST
  1

  9
$DIMAPOST
  1

  9
$DIMALT
 70
     0
  9
$DIMALTD
 70
     3
  9
$DIMALTF
 40
0.0393700787
  9
$DIMLFAC
 40
1.0
  9
$DIMTOFL
 70
     1
  9
$DIMTVP
 40
0.0
  9
$DIMTIX
 70
     0
  9
$DIMSOXD
 70
     0
  9
$DIMSAH
 70
     0
  9
$DIMBLK1
  1

  9
$DIMBLK2
  1

  9
$DIMSTYLE
  2
ISO-25
  9
$DIMCLRD
 70
     0
  9
$DIMCLRE
 70
     0
  9
$DIMCLRT
 70
     0
  9
$DIMTFAC
 40
1.0
  9
$DIMGAP
 40
0.625
  9
$LUNITS
 70
     2
  9
$LUPREC
 70
     4
  9
$SKETCHINC
 40
1.0
  9
$FILLETRAD
 40
10.0
  9
$AUNITS
 70
     0
  9
$AUPREC
 70
     0
  9
$MENU
  1
.
  9
$ELEVATION
 40
0.0
  9
$PELEVATION
 40
0.0
  9
$THICKNESS
 40
0.0
  9
$LIMCHECK
 70
     0
  9
$CHAMFERA
 40
0.0
  9
$CHAMFERB
 40
0.0
  9
$SKPOLY
 70
     0
  9
$TDCREATE
 40
2457272.513435498
  9
$TDUPDATE
 40
2457272.513435521
  9
$TDINDWG
 40
0.0000000116
  9
$TDUSRTIMER
 40
0.0000000116
  9
$USRTIMER
 70
     1
  9
$ANGBASE
 50
0.0
  9
$ANGDIR
 70
     0
  9
$PDMODE
 70
     0
  9
$PDSIZE
 40
0.0
  9
$PLINEWID
 40
0.0
  9
$COORDS
 70
     1
  9
$SPLFRAME
 70
     0
  9
$SPLINETYPE
 70
     6
  9
$SPLINESEGS
 70
     8
  9
$ATTDIA
 70
     0
  9
$ATTREQ
 70
     1
  9
$HANDLING
 70
     1
  9
$HANDSEED
  5
B6
  9
$SURFTAB1
 70
     6
  9
$SURFTAB2
 70
     6
  9
$SURFTYPE
 70
     6
  9
$SURFU
 70
     6
  9
$SURFV
 70
     6
  9
$UCSNAME
  2

  9
$UCSORG
 10
0.0
 20
0.0
 30
0.0
  9
$UCSXDIR
 10
1.0
 20
0.0
 30
0.0
  9
$UCSYDIR
 10
0.0
 20
1.0
 30
0.0
  9
$PUCSNAME
  2

  9
$PUCSORG
 10
0.0
 20
0.0
 30
0.0
  9
$PUCSXDIR
 10
1.0
 20
0.0
 30
0.0
  9
$PUCSYDIR
 10
0.0
 20
1.0
 30
0.0
  9
$USERI1
 70
     0
  9
$USERI2
 70
     0
  9
$USERI3
 70
     0
  9
$USERI4
 70
     0
  9
$USERI5
 70
     0
  9
$USERR1
 40
0.0
  9
$USERR2
 40
0.0
  9
$USERR3
 40
0.0
  9
$USERR4
 40
0.0
  9
$USERR5
 40
0.0
  9
$WORLDVIEW
 70
     1
  9
$SHADEDGE
 70
     3
  9
$SHADEDIF
 70
    70
  9
$TILEMODE
 70
     1
  9
$MAXACTVP
 70
    64
  9
$PLIMCHECK
 70
     0
  9
$PEXTMIN
 10
1.0000000000E+20
 20
1.0000000000E+20
 30
1.0000000000E+20
  9
$PEXTMAX
 10
-1.0000000000E+20
 20
-1.0000000000E+20
 30
-1.0000000000E+20
  9
$PLIMMIN
 10
0.0
 20
0.0
  9
$PLIMMAX
 10
420.0
 20
297.0
  9
$UNITMODE
 70
     0
  9
$VISRETAIN
 70
     1
  9
$PLINEGEN
 70
     0
  9
$PSLTSCALE
 70
     1
  0
ENDSEC
  0
SECTION
  2
TABLES
  0
TABLE
  2
VPORT
 70
     1
  0
VPORT
  2
*ACTIVE
 70
     0
 10
0.0
 20
0.0
 11
1.0
 21
1.0
 12
202.6221164471
 22
-41.7021764543
 13
0.0
 23
0.0
 14
10.0
 24
10.0
 15
10.0
 25
10.0
 16
0.0
 26
0.0
 36
1.0
 17
0.0
 27
0.0
 37
0.0
 40
1223.1444016806
 41
1.4440052701
 42
50.0
 43
0.0
 44
0.0
 50
0.0
 51
0.0
 71
     0
 72
 20000
 73
     1
 74
     3
 75
     0
 76
     0
 77
     0
 78
     0
  0
ENDTAB
  0
TABLE
  2
LTYPE
 70
     1
  0
LTYPE
  2
CONTINUOUS
 70
     0
  3
Solid line
 72
    65
 73
     0
 40
0.0
  0
ENDTAB
  0
TABLE
  2
LAYER
 70
     2
  0
LAYER
  2
0
 70
     0
 62
     7
  6
CONTINUOUS
  0
LAYER
  2
LAYER_0
 70
     0
 62
     7
  6
CONTINUOUS
  0
ENDTAB
  0
TABLE
  2
STYLE
 70
     1
  0
STYLE
  2
STANDARD
 70
     0
 40
0.0
 41
1.0
 50
0.0
 71
     0
 42
0.0
  3
txt.shx
  4

  0
ENDTAB
  0
TABLE
  2
VIEW
 70
     0
  0
ENDTAB
  0
TABLE
  2
UCS
 70
     0
  0
ENDTAB
  0
TABLE
  2
APPID
 70
     1
  0
APPID
  2
ACAD
 70
     0
  0
ENDTAB
  0
TABLE
  2
DIMSTYLE
 70
     2
  0
DIMSTYLE
  2
ISO-25
 70
     0
  3

  4

  5

  6

  7

 40
1.0
 41
2.5
 42
0.625
 43
3.75
 44
1.25
 45
0.0
 46
0.0
 47
0.0
 48
0.0
140
2.5
141
2.5
142
0.0
143
0.0393700787
144
1.0
145
0.0
146
1.0
147
0.625
 71
     0
 72
     0
 73
     0
 74
     0
 75
     0
 76
     0
 77
     1
 78
     8
170
     0
171
     3
172
     1
173
     0
174
     0
175
     0
176
     0
177
     0
178
     0
  0
DIMSTYLE
  2
STANDARD
 70
     0
  3

  4

  5

  6

  7

 40
1.0
 41
0.18
 42
0.0625
 43
0.38
 44
0.18
 45
0.0
 46
0.0
 47
0.0
 48
0.0
140
0.18
141
0.09
142
0.0
143
25.4
144
1.0
145
0.0
146
1.0
147
0.09
 71
     0
 72
     0
 73
     1
 74
     1
 75
     0
 76
     0
 77
     0
 78
     0
170
     0
171
     2
172
     0
173
     0
174
     0
175
     0
176
     0
177
     0
178
     0
  0
ENDTAB
  0
ENDSEC
  0
SECTION
  2
BLOCKS
  0
BLOCK
  8
0
  2
$MODEL_SPACE
 70
     0
 10
0.0
 20
0.0
 30
0.0
  3
$MODEL_SPACE
  1

  0
ENDBLK
  5
21
  8
0
  0
BLOCK
 67
     1
  8
0
  2
$PAPER_SPACE
 70
     0
 10
0.0
 20
0.0
 30
0.0
  3
$PAPER_SPACE
  1

  0
ENDBLK
  5
1D
 67
     1
  8
0
  0
ENDSEC
  0
SECTION
  2
ENTITIES
  0
POLYLINE
  5
6C
  8
LAYER_0
 62
     5
 66
     1
 10
0.0
 20
0.0
 30
0.0
 70
   128
  0
VERTEX
  5
A4
  8
LAYER_0
 62
     5
 10
0.0
 20
0.0
 30
0.0
  0
VERTEX
  5
A5
  8
LAYER_0
 62
     5
 10
700.0
 20
0.0
 30
0.0
  0
VERTEX
  5
A6
  8
LAYER_0
 62
     5
 10
700.0
 20
200.0
 30
0.0
  0
VERTEX
  5
A7
  8
LAYER_0
 62
     5
 10
380.0
 20
200.0
 30
0.0
  0
VERTEX
  5
A8
  8
LAYER_0
 62
     5
 10
380.0
 20
350.0
 30
0.0
  0
VERTEX
  5
A9
  8
LAYER_0
 62
     5
 10
0.0
 20
350.0
 30
0.0
  0
VERTEX
  5
AA
  8
LAYER_0
 62
     5
 10
0.0
 20
0.0
 30
0.0
  0
SEQEND
  5
B4
  8
LAYER_0
 62
     5
  0
LINE
  5
6D
  8
LAYER_0
 62
     1
 10
260.0
 20
-20.0
 30
0.0
 11
0.0
 21
-20.0
 31
0.0
  0
LINE
  5
6E
  8
LAYER_0
 62
     1
 10
310.0
 20
-20.0
 30
0.0
 11
700.0
 21
-20.0
 31
0.0
  0
LINE
  5
6F
  8
LAYER_0
 62
     1
 10
720.0
 20
130.0
 30
0.0
 11
720.0
 21
200.0
 31
0.0
  0
LINE
  5
70
  8
LAYER_0
 62
     1
 10
720.0
 20
100.0
 30
0.0
 11
720.0
 21
0.0
 31
0.0
  0
LINE
  5
71
  8
LAYER_0
 62
     1
 10
160.0
 20
370.0
 30
0.0
 11
0.0
 21
370.0
 31
0.0
  0
LINE
  5
72
  8
LAYER_0
 62
     1
 10
210.0
 20
370.0
 30
0.0
 11
380.0
 21
370.0
 31
0.0
  0
LINE
  5
73
  8
LAYER_0
 62
     1
 10
-20.0
 20
210.0
 30
0.0
 11
-20.0
 21
350.0
 31
0.0
  0
LINE
  5
74
  8
LAYER_0
 62
     1
 10
-20.0
 20
180.0
 30
0.0
 11
-20.0
 21
0.0
 31
0.0
  0
TEXT
  5
75
  8
0
 10
-38.1924789766
 20
191.2022414564
 30
0.0
 40
13.4882523021
  1
350
  0
TEXT
  5
76
  8
0
 10
269.2301489141
 20
-32.7533798549
 30
0.0
 40
13.4265434587
  1
700
  0
TEXT
  5
77
  8
0
 10
708.0519171848
 20
108.8020292647
 30
0.0
 40
15.0113319382
  1
200
  0
TEXT
  5
78
  8
0
 10
169.3086836532
 20
360.2710501712
 30
0.0
 40
14.1800103181
  1
380
  0
POLYLINE
  5
79
  8
LAYER_0
 62
     5
 66
     1
 10
0.0
 20
0.0
 30
0.0
 70
   128
  0
VERTEX
  5
AB
  8
LAYER_0
 62
     5
 10
0.0
 20
0.0
 30
0.0
  0
VERTEX
  5
AC
  8
LAYER_0
 62
     5
 10
700.0
 20
0.0
 30
0.0
  0
VERTEX
  5
AD
  8
LAYER_0
 62
     5
 10
700.0
 20
200.0
 30
0.0
  0
VERTEX
  5
AE
  8
LAYER_0
 62
     5
 10
380.0
 20
200.0
 30
0.0
  0
VERTEX
  5
AF
  8
LAYER_0
 62
     5
 10
380.0
 20
350.0
 30
0.0
  0
VERTEX
  5
B0
  8
LAYER_0
 62
     5
 10
0.0
 20
350.0
 30
0.0
  0
VERTEX
  5
B1
  8
LAYER_0
 62
     5
 10
0.0
 20
0.0
 30
0.0
  0
SEQEND
  5
B5
  8
LAYER_0
 62
     5
  0
LINE
  5
7A
  8
LAYER_0
 62
     1
 10
260.0
 20
-20.0
 30
0.0
 11
0.0
 21
-20.0
 31
0.0
  0
LINE
  5
7B
  8
LAYER_0
 62
     1
 10
310.0
 20
-20.0
 30
0.0
 11
700.0
 21
-20.0
 31
0.0
  0
LINE
  5
7C
  8
LAYER_0
 62
     1
 10
720.0
 20
130.0
 30
0.0
 11
720.0
 21
200.0
 31
0.0
  0
LINE
  5
7D
  8
LAYER_0
 62
     1
 10
720.0
 20
100.0
 30
0.0
 11
720.0
 21
0.0
 31
0.0
  0
LINE
  5
7E
  8
LAYER_0
 62
     1
 10
160.0
 20
370.0
 30
0.0
 11
0.0
 21
370.0
 31
0.0
  0
LINE
  5
7F
  8
LAYER_0
 62
     1
 10
210.0
 20
370.0
 30
0.0
 11
380.0
 21
370.0
 31
0.0
  0
LINE
  5
80
  8
LAYER_0
 62
     1
 10
-20.0
 20
210.0
 30
0.0
 11
-20.0
 21
350.0
 31
0.0
  0
LINE
  5
81
  8
LAYER_0
 62
     1
 10
-20.0
 20
180.0
 30
0.0
 11
-20.0
 21
0.0
 31
0.0
  0
TEXT
  5
82
  8
0
 10
-38.1924789766
 20
191.2022414564
 30
0.0
 40
13.4882523021
  1
350
  0
TEXT
  5
83
  8
0
 10
269.2301489141
 20
-32.7533798549
 30
0.0
 40
13.4265434587
  1
700
  0
TEXT
  5
84
  8
0
 10
708.0519171848
 20
108.8020292647
 30
0.0
 40
15.0113319382
  1
200
  0
TEXT
  5
85
  8
0
 10
169.3086836532
 20
360.2710501712
 30
0.0
 40
14.1800103181
  1
380
  0
LINE
  5
86
  8
LAYER_0
 62
     1
 10
260.0
 20
-500.0
 30
0.0
 11
0.0
 21
-500.0
 31
0.0
  0
LINE
  5
87
  8
LAYER_0
 62
     1
 10
310.0
 20
-500.0
 30
0.0
 11
700.0
 21
-500.0
 31
0.0
  0
LINE
  5
88
  8
LAYER_0
 62
     1
 10
720.0
 20
-350.0
 30
0.0
 11
720.0
 21
-280.0
 31
0.0
  0
LINE
  5
89
  8
LAYER_0
 62
     1
 10
720.0
 20
-380.0
 30
0.0
 11
720.0
 21
-480.0
 31
0.0
  0
LINE
  5
8A
  8
LAYER_0
 62
     1
 10
160.0
 20
-110.0
 30
0.0
 11
50.0
 21
-110.0
 31
0.0
  0
LINE
  5
8B
  8
LAYER_0
 62
     1
 10
210.0
 20
-110.0
 30
0.0
 11
380.0
 21
-110.0
 31
0.0
  0
LINE
  5
8C
  8
LAYER_0
 62
     1
 10
-20.0
 20
-270.0
 30
0.0
 11
-20.0
 21
-200.0
 31
0.0
  0
LINE
  5
8D
  8
LAYER_0
 62
     1
 10
-20.0
 20
-300.0
 30
0.0
 11
-20.0
 21
-480.0
 31
0.0
  0
TEXT
  5
8E
  8
0
 10
269.2301489141
 20
-512.7533798549
 30
0.0
 40
13.4265434587
  1
700
  0
TEXT
  5
8F
  8
0
 10
708.0519171848
 20
-371.1979707353
 30
0.0
 40
15.0113319382
  1
200
  0
TEXT
  5
90
  8
0
 10
210.6156216832
 20
116.1173314735
 30
0.0
 40
23.2097676368
  1
700x350x380x200
  0
LINE
  5
91
  8
LAYER_0
 62
     5
 10
0.0
 20
-480.0
 30
0.0
 11
700.0
 21
-480.0
 31
0.0
  0
LINE
  5
92
  8
LAYER_0
 62
     5
 10
700.0
 20
-480.0
 30
0.0
 11
700.0
 21
-280.0
 31
0.0
  0
LINE
  5
93
  8
LAYER_0
 62
     5
 10
700.0
 20
-280.0
 30
0.0
 11
380.0
 21
-280.0
 31
0.0
  0
LINE
  5
94
  8
LAYER_0
 62
     5
 10
380.0
 20
-280.0
 30
0.0
 11
380.0
 21
-130.0
 31
0.0
  0
LINE
  5
95
  8
0
 62
     5
 10
380.0
 20
-130.0
 30
0.0
 11
50.0
 21
-130.0
 31
0.0
  0
LINE
  5
96
  8
0
 62
     5
 10
50.0
 20
-130.0
 30
0.0
 11
50.0
 21
-200.0
 31
0.0
  0
LINE
  5
97
  8
0
 62
     5
 10
50.0
 20
-200.0
 30
0.0
 11
0.0
 21
-200.0
 31
0.0
  0
LINE
  5
98
  8
0
 62
     5
 10
0.0
 20
-200.0
 30
0.0
 11
0.0
 21
-480.0
 31
0.0
  0
TEXT
  5
99
  8
0
 10
-41.0
 20
-291.0
 30
0.0
 40
14.3178210633
  1
280
  0
TEXT
  5
9A
  8
0
 10
167.0
 20
-114.0
 30
0.0
 40
13.6014705087
  1
330
  0
ENDSEC
  0
EOF
