999
NC Corrector for PPC by Strunov V.V.
0
SECTION
2
HEADER
9
$ACADVER
1
AC1006
9
$LIMMIN
10
0
20
-2098,5
9
$LIMMAX
10
5789,5
20
0
0
ENDSEC
0
SECTION
2
TABLES
0
TABLE
2
LTYPE
70
2
0
LTYPE
2
CONTINUOUS
70
64
3
Solid line
72
65
73
0
40
0.0
0
LTYPE
2
Hidden
70
64
3
__ __ __ __ __ __ __ __ __ __ __ __ __ __ __ __
72
65
73
2
40
8.
49
5.0
49
-3.0
0
ENDTAB
0
TABLE
2
LAYER
70
1
0
LAYER
2
0
70
0
62
0
6
CONTINUOUS
0
ENDTAB
0
ENDSEC
0
SECTION
2
ENTITIES
0
LINE
8
0
6
HIDDEN
62
1
10
0
20
0
30
0
11
642,159
21
-1591,161
31
0
0
LINE
8
0
62
1
10
642,159
20
-1591,161
30
0
11
647,559
21
-1599,33
31
0
0
ARC
8
0
62
1
10
649,229
20
-1598,23
30
0
40
1,999
50
213,371
51
315
0
ARC
8
0
62
1
10
636,5
20
-1585,5
30
0
40
19,996
50
-45,001
51
0
0
LINE
8
0
62
1
10
656,5
20
-1585,5
30
0
11
656,5
21
-975,5
31
0
0
ARC
8
0
62
1
10
636,5
20
-975,5
30
0
40
20
50
0
51
90
0
LINE
8
0
62
1
10
636,5
20
-955,5
30
0
11
346,5
21
-955,5
31
0
0
ARC
8
0
62
1
10
346,5
20
-975,5
30
0
40
20
50
90
51
180
0
LINE
8
0
62
1
10
326,5
20
-975,5
30
0
11
326,5
21
-1585,5
31
0
0
ARC
8
0
62
1
10
346,5
20
-1585,5
30
0
40
20
50
180
51
270
0
LINE
8
0
62
1
10
346,5
20
-1605,5
30
0
11
636,5
21
-1605,5
31
0
0
ARC
8
0
62
1
10
636,5
20
-1585,5
30
0
40
20
50
270
51
315
0
LINE
8
0
6
HIDDEN
62
1
10
650,64
20
-1599,641
30
0
11
793,5
21
-2090,5
31
0
0
LINE
8
0
62
1
10
793,5
20
-2090,5
30
0
11
778,5
21
-2090,5
31
0
0
LINE
8
0
62
1
10
778,5
20
-2090,5
30
0
11
9,5
21
-2090,5
31
0
0
LINE
8
0
62
1
10
9,5
20
-2090,5
30
0
11
9,5
21
-830,5
31
0
0
LINE
8
0
62
1
10
9,5
20
-830,5
30
0
11
778,5
21
-830,5
31
0
0
LINE
8
0
62
1
10
778,5
20
-830,5
30
0
11
778,5
21
-1285,5
31
0
0
LINE
8
0
62
1
10
778,5
20
-1285,5
30
0
11
753,5
21
-1285,5
31
0
0
LINE
8
0
62
1
10
753,5
20
-1285,5
30
0
11
753,5
21
-1525,5
31
0
0
LINE
8
0
62
1
10
753,5
20
-1525,5
30
0
11
778,5
21
-1525,5
31
0
0
LINE
8
0
62
1
10
778,5
20
-1525,5
30
0
11
778,5
21
-2090,5
31
0
0
LINE
8
0
62
1
10
778,5
20
-2090,5
30
0
11
778,5
21
-2098,5
31
0
0
LINE
8
0
6
HIDDEN
62
1
10
778,5
20
-2098,5
30
0
11
454,5
21
-813,5
31
0
0
LINE
8
0
62
1
10
454,5
20
-813,5
30
0
11
439,5
21
-813,5
31
0
0
LINE
8
0
62
1
10
439,5
20
-813,5
30
0
11
9,5
21
-813,5
31
0
0
LINE
8
0
62
1
10
9,5
20
-813,5
30
0
11
9,5
21
-44,5
31
0
0
LINE
8
0
62
1
10
9,5
20
-44,5
30
0
11
89,5
21
-44,5
31
0
0
LINE
8
0
62
1
10
89,5
20
-44,5
30
0
11
89,5
21
-74,5
31
0
0
LINE
8
0
62
1
10
89,5
20
-74,5
30
0
11
329,5
21
-74,5
31
0
0
LINE
8
0
62
1
10
329,5
20
-74,5
30
0
11
329,5
21
-44,5
31
0
0
LINE
8
0
62
1
10
329,5
20
-44,5
30
0
11
439,5
21
-44,5
31
0
0
LINE
8
0
62
1
10
439,5
20
-44,5
30
0
11
439,5
21
-166,5
31
0
0
LINE
8
0
62
1
10
439,5
20
-166,5
30
0
11
284,5
21
-166,5
31
0
0
ARC
8
0
62
1
10
284,5
20
-226,5
30
0
40
60
50
90
51
180
0
LINE
8
0
62
1
10
224,5
20
-226,5
30
0
11
224,5
21
-544,5
31
0
0
ARC
8
0
62
1
10
284,5
20
-544,5
30
0
40
60
50
180
51
270
0
LINE
8
0
62
1
10
284,5
20
-604,5
30
0
11
439,5
21
-604,5
31
0
0
LINE
8
0
62
1
10
439,5
20
-604,5
30
0
11
439,5
21
-813,5
31
0
0
LINE
8
0
62
1
10
439,5
20
-813,5
30
0
11
439,5
21
-821,5
31
0
0
LINE
8
0
6
HIDDEN
62
1
10
439,5
20
-821,5
30
0
11
723,9
21
-783,36
31
0
0
LINE
8
0
62
1
10
723,9
20
-783,36
30
0
11
713,289
21
-793,97
31
0
0
LINE
8
0
62
1
10
713,289
20
-793,97
30
0
11
693,289
21
-813,97
31
0
0
LINE
8
0
62
1
10
693,289
20
-813,97
30
0
11
489,29
21
-813,97
31
0
0
LINE
8
0
62
1
10
489,29
20
-813,97
30
0
11
469,29
21
-793,97
31
0
0
LINE
8
0
62
1
10
469,29
20
-793,97
30
0
11
469,29
21
-661,97
31
0
0
LINE
8
0
62
1
10
469,29
20
-661,97
30
0
11
456,29
21
-661,97
31
0
0
LINE
8
0
62
1
10
456,29
20
-661,97
30
0
11
456,29
21
-625,97
31
0
0
LINE
8
0
62
1
10
456,29
20
-625,97
30
0
11
469,29
21
-625,97
31
0
0
LINE
8
0
62
1
10
469,29
20
-625,97
30
0
11
469,29
21
-301,971
31
0
0
LINE
8
0
62
1
10
469,29
20
-301,971
30
0
11
456,29
21
-301,971
31
0
0
LINE
8
0
62
1
10
456,29
20
-301,971
30
0
11
456,29
21
-265,971
31
0
0
LINE
8
0
62
1
10
456,29
20
-265,971
30
0
11
469,29
21
-265,971
31
0
0
LINE
8
0
62
1
10
469,29
20
-265,971
30
0
11
469,29
21
-133,971
31
0
0
LINE
8
0
62
1
10
469,29
20
-133,971
30
0
11
489,29
21
-113,971
31
0
0
LINE
8
0
62
1
10
489,29
20
-113,971
30
0
11
693,289
21
-113,971
31
0
0
LINE
8
0
62
1
10
693,289
20
-113,971
30
0
11
713,289
21
-133,971
31
0
0
LINE
8
0
62
1
10
713,289
20
-133,971
30
0
11
713,289
21
-265,971
31
0
0
LINE
8
0
62
1
10
713,289
20
-265,971
30
0
11
726,289
21
-265,971
31
0
0
LINE
8
0
62
1
10
726,289
20
-265,971
30
0
11
726,289
21
-301,971
31
0
0
LINE
8
0
62
1
10
726,289
20
-301,971
30
0
11
713,289
21
-301,971
31
0
0
LINE
8
0
62
1
10
713,289
20
-301,971
30
0
11
713,289
21
-625,97
31
0
0
LINE
8
0
62
1
10
713,289
20
-625,97
30
0
11
726,289
21
-625,97
31
0
0
LINE
8
0
62
1
10
726,289
20
-625,97
30
0
11
726,289
21
-661,97
31
0
0
LINE
8
0
62
1
10
726,289
20
-661,97
30
0
11
713,289
21
-661,97
31
0
0
LINE
8
0
62
1
10
713,289
20
-661,97
30
0
11
713,289
21
-793,97
31
0
0
LINE
8
0
62
1
10
713,289
20
-793,97
30
0
11
713,289
21
-801,97
31
0
0
LINE
8
0
6
HIDDEN
62
1
10
713,289
20
-801,97
30
0
11
1595,859
21
-1203,85
31
0
0
LINE
8
0
62
1
10
1595,859
20
-1203,85
30
0
11
1593,9
21
-1213,45
31
0
0
ARC
8
0
62
1
10
1595,859
20
-1213,85
30
0
40
2
50
168,464
51
270
0
LINE
8
0
62
1
10
1595,859
20
-1215,85
30
0
11
1599,859
21
-1215,85
31
0
0
LINE
8
0
62
1
10
1599,859
20
-1215,85
30
0
11
1599,859
21
-1173,85
31
0
0
LINE
8
0
62
1
10
1599,859
20
-1173,85
30
0
11
1591,859
21
-1173,85
31
0
0
LINE
8
0
62
1
10
1591,859
20
-1173,85
30
0
11
1591,859
21
-1215,85
31
0
0
LINE
8
0
62
1
10
1591,859
20
-1215,85
30
0
11
1595,859
21
-1215,85
31
0
0
LINE
8
0
6
HIDDEN
62
1
10
1595,859
20
-1215,85
30
0
11
1595,859
21
-1843,85
31
0
0
LINE
8
0
62
1
10
1595,859
20
-1843,85
30
0
11
1593,9
21
-1853,45
31
0
0
ARC
8
0
62
1
10
1595,859
20
-1853,85
30
0
40
2
50
168,464
51
270
0
LINE
8
0
62
1
10
1595,859
20
-1855,85
30
0
11
1599,859
21
-1855,85
31
0
0
LINE
8
0
62
1
10
1599,859
20
-1855,85
30
0
11
1599,859
21
-1813,85
31
0
0
LINE
8
0
62
1
10
1599,859
20
-1813,85
30
0
11
1591,859
21
-1813,85
31
0
0
LINE
8
0
62
1
10
1591,859
20
-1813,85
30
0
11
1591,859
21
-1855,85
31
0
0
LINE
8
0
62
1
10
1591,859
20
-1855,85
30
0
11
1595,859
21
-1855,85
31
0
0
LINE
8
0
6
HIDDEN
62
1
10
1595,859
20
-1855,85
30
0
11
1624,599
21
-2090,121
31
0
0
ARC
8
0
62
1
10
1614,859
20
-2087,851
30
0
40
10,001
50
-13,12
51
90
0
LINE
8
0
62
1
10
1614,859
20
-2077,851
30
0
11
1496,359
21
-2077,851
31
0
0
LINE
8
0
62
1
10
1496,359
20
-2077,851
30
0
11
1496,359
21
-2090,851
31
0
0
LINE
8
0
62
1
10
1496,359
20
-2090,851
30
0
11
1460,359
21
-2090,851
31
0
0
LINE
8
0
62
1
10
1460,359
20
-2090,851
30
0
11
1460,359
21
-2077,851
31
0
0
LINE
8
0
62
1
10
1460,359
20
-2077,851
30
0
11
927,359
21
-2077,851
31
0
0
LINE
8
0
62
1
10
927,359
20
-2077,851
30
0
11
927,359
21
-2090,851
31
0
0
LINE
8
0
62
1
10
927,359
20
-2090,851
30
0
11
891,359
21
-2090,851
31
0
0
LINE
8
0
62
1
10
891,359
20
-2090,851
30
0
11
891,359
21
-2077,851
31
0
0
LINE
8
0
62
1
10
891,359
20
-2077,851
30
0
11
793,859
21
-2077,851
31
0
0
LINE
8
0
62
1
10
793,859
20
-2077,851
30
0
11
793,859
21
-951,85
31
0
0
LINE
8
0
62
1
10
793,859
20
-951,85
30
0
11
891,359
21
-951,85
31
0
0
LINE
8
0
62
1
10
891,359
20
-951,85
30
0
11
891,359
21
-938,85
31
0
0
LINE
8
0
62
1
10
891,359
20
-938,85
30
0
11
927,359
21
-938,85
31
0
0
LINE
8
0
62
1
10
927,359
20
-938,85
30
0
11
927,359
21
-951,85
31
0
0
LINE
8
0
62
1
10
927,359
20
-951,85
30
0
11
1460,359
21
-951,85
31
0
0
LINE
8
0
62
1
10
1460,359
20
-951,85
30
0
11
1460,359
21
-938,85
31
0
0
LINE
8
0
62
1
10
1460,359
20
-938,85
30
0
11
1496,359
21
-938,85
31
0
0
LINE
8
0
62
1
10
1496,359
20
-938,85
30
0
11
1496,359
21
-951,85
31
0
0
LINE
8
0
62
1
10
1496,359
20
-951,85
30
0
11
1614,859
21
-951,85
31
0
0
LINE
8
0
62
1
10
1614,859
20
-951,85
30
0
11
1614,859
21
-2077,851
31
0
0
LINE
8
0
62
1
10
1614,859
20
-2077,851
30
0
11
1620,52
21
-2083,511
31
0
0
LINE
8
0
6
HIDDEN
62
1
10
1620,52
20
-2083,511
30
0
11
1545,209
21
-895,54
31
0
0
LINE
8
0
62
1
10
1545,209
20
-895,54
30
0
11
1554,81
21
-897,5
31
0
0
ARC
8
0
62
1
10
1555,209
20
-895,54
30
0
40
2
50
-101,532
51
0
0
LINE
8
0
62
1
10
1557,209
20
-895,54
30
0
11
1557,209
21
-891,54
31
0
0
LINE
8
0
62
1
10
1557,209
20
-891,54
30
0
11
1520,209
21
-891,54
31
0
0
LINE
8
0
62
1
10
1520,209
20
-891,54
30
0
11
1520,209
21
-899,54
31
0
0
LINE
8
0
62
1
10
1520,209
20
-899,54
30
0
11
1557,209
21
-899,54
31
0
0
LINE
8
0
62
1
10
1557,209
20
-899,54
30
0
11
1557,209
21
-895,54
31
0
0
LINE
8
0
6
HIDDEN
62
1
10
1557,209
20
-895,54
30
0
11
1600,209
21
-895,54
31
0
0
LINE
8
0
62
1
10
1600,209
20
-895,54
30
0
11
1609,81
21
-897,5
31
0
0
ARC
8
0
62
1
10
1610,209
20
-895,54
30
0
40
2
50
-101,532
51
0
0
LINE
8
0
62
1
10
1612,209
20
-895,54
30
0
11
1612,209
21
-891,54
31
0
0
LINE
8
0
62
1
10
1612,209
20
-891,54
30
0
11
1575,209
21
-891,54
31
0
0
LINE
8
0
62
1
10
1575,209
20
-891,54
30
0
11
1575,209
21
-899,54
31
0
0
LINE
8
0
62
1
10
1575,209
20
-899,54
30
0
11
1612,209
21
-899,54
31
0
0
LINE
8
0
62
1
10
1612,209
20
-899,54
30
0
11
1612,209
21
-895,54
31
0
0
LINE
8
0
6
HIDDEN
62
1
10
1612,209
20
-895,54
30
0
11
1645,209
21
-785,04
31
0
0
LINE
8
0
62
1
10
1645,209
20
-785,04
30
0
11
1643,25
21
-794,641
31
0
0
ARC
8
0
62
1
10
1645,209
20
-795,04
30
0
40
2
50
168,466
51
270
0
LINE
8
0
62
1
10
1645,209
20
-797,04
30
0
11
1653,709
21
-797,04
31
0
0
LINE
8
0
62
1
10
1653,709
20
-797,04
30
0
11
1653,709
21
-759,04
31
0
0
LINE
8
0
62
1
10
1653,709
20
-759,04
30
0
11
1636,709
21
-759,04
31
0
0
LINE
8
0
62
1
10
1636,709
20
-759,04
30
0
11
1636,709
21
-797,04
31
0
0
LINE
8
0
62
1
10
1636,709
20
-797,04
30
0
11
1645,209
21
-797,04
31
0
0
LINE
8
0
6
HIDDEN
62
1
10
1645,209
20
-797,04
30
0
11
1660,209
21
-730,54
31
0
0
LINE
8
0
62
1
10
1660,209
20
-730,54
30
0
11
1658,25
21
-740,141
31
0
0
ARC
8
0
62
1
10
1660,209
20
-740,54
30
0
40
2
50
168,466
51
270
0
LINE
8
0
62
1
10
1660,209
20
-742,54
30
0
11
1668,709
21
-742,54
31
0
0
LINE
8
0
62
1
10
1668,709
20
-742,54
30
0
11
1668,709
21
-704,54
31
0
0
LINE
8
0
62
1
10
1668,709
20
-704,54
30
0
11
1651,709
21
-704,54
31
0
0
LINE
8
0
62
1
10
1651,709
20
-704,54
30
0
11
1651,709
21
-742,54
31
0
0
LINE
8
0
62
1
10
1651,709
20
-742,54
30
0
11
1660,209
21
-742,54
31
0
0
LINE
8
0
6
HIDDEN
62
1
10
1660,209
20
-742,54
30
0
11
1645,209
21
-216,04
31
0
0
LINE
8
0
62
1
10
1645,209
20
-216,04
30
0
11
1643,25
21
-225,64
31
0
0
ARC
8
0
62
1
10
1645,209
20
-226,04
30
0
40
2
50
168,465
51
270
0
LINE
8
0
62
1
10
1645,209
20
-228,04
30
0
11
1653,709
21
-228,04
31
0
0
LINE
8
0
62
1
10
1653,709
20
-228,04
30
0
11
1653,709
21
-190,04
31
0
0
LINE
8
0
62
1
10
1653,709
20
-190,04
30
0
11
1636,709
21
-190,04
31
0
0
LINE
8
0
62
1
10
1636,709
20
-190,04
30
0
11
1636,709
21
-228,04
31
0
0
LINE
8
0
62
1
10
1636,709
20
-228,04
30
0
11
1645,209
21
-228,04
31
0
0
LINE
8
0
6
HIDDEN
62
1
10
1645,209
20
-228,04
30
0
11
1660,209
21
-270,541
31
0
0
LINE
8
0
62
1
10
1660,209
20
-270,541
30
0
11
1658,25
21
-280,141
31
0
0
ARC
8
0
62
1
10
1660,209
20
-280,541
30
0
40
2
50
168,465
51
270
0
LINE
8
0
62
1
10
1660,209
20
-282,541
30
0
11
1668,709
21
-282,541
31
0
0
LINE
8
0
62
1
10
1668,709
20
-282,541
30
0
11
1668,709
21
-244,54
31
0
0
LINE
8
0
62
1
10
1668,709
20
-244,54
30
0
11
1651,709
21
-244,54
31
0
0
LINE
8
0
62
1
10
1651,709
20
-244,54
30
0
11
1651,709
21
-282,541
31
0
0
LINE
8
0
62
1
10
1651,709
20
-282,541
30
0
11
1660,209
21
-282,541
31
0
0
LINE
8
0
6
HIDDEN
62
1
10
1660,209
20
-282,541
30
0
11
2295,209
21
-178,04
31
0
0
LINE
8
0
62
1
10
2295,209
20
-178,04
30
0
11
2293,25
21
-187,64
31
0
0
ARC
8
0
62
1
10
2295,209
20
-188,04
30
0
40
2
50
168,465
51
270
0
LINE
8
0
62
1
10
2295,209
20
-190,04
30
0
11
2303,709
21
-190,04
31
0
0
LINE
8
0
62
1
10
2303,709
20
-190,04
30
0
11
2303,709
21
-152,04
31
0
0
LINE
8
0
62
1
10
2303,709
20
-152,04
30
0
11
2286,709
21
-152,04
31
0
0
LINE
8
0
62
1
10
2286,709
20
-152,04
30
0
11
2286,709
21
-190,04
31
0
0
LINE
8
0
62
1
10
2286,709
20
-190,04
30
0
11
2295,209
21
-190,04
31
0
0
LINE
8
0
6
HIDDEN
62
1
10
2295,209
20
-190,04
30
0
11
2202,33
21
-220,661
31
0
0
LINE
8
0
62
1
10
2202,33
20
-220,661
30
0
11
2207,729
21
-228,84
31
0
0
ARC
8
0
62
1
10
2209,399
20
-227,73
30
0
40
2,005
50
213,612
51
314,8
0
ARC
8
0
62
1
10
2200,209
20
-218,54
30
0
40
14,997
50
-45,027
51
0
0
LINE
8
0
62
1
10
2215,209
20
-218,54
30
0
11
2215,209
21
-188,54
31
0
0
ARC
8
0
62
1
10
2200,209
20
-188,54
30
0
40
15
50
0
51
90
0
LINE
8
0
62
1
10
2200,209
20
-173,54
30
0
11
2150,209
21
-173,54
31
0
0
ARC
8
0
62
1
10
2150,209
20
-188,54
30
0
40
15
50
90
51
180
0
LINE
8
0
62
1
10
2135,209
20
-188,54
30
0
11
2135,209
21
-218,54
31
0
0
ARC
8
0
62
1
10
2150,209
20
-218,54
30
0
40
15
50
180
51
270
0
LINE
8
0
62
1
10
2150,209
20
-233,54
30
0
11
2200,209
21
-233,54
31
0
0
ARC
8
0
62
1
10
2200,209
20
-218,54
30
0
40
15
50
270
51
314,973
0
LINE
8
0
6
HIDDEN
62
1
10
2210,81
20
-229,15
30
0
11
2295,209
21
-823,04
31
0
0
LINE
8
0
62
1
10
2295,209
20
-823,04
30
0
11
2293,25
21
-832,641
31
0
0
ARC
8
0
62
1
10
2295,209
20
-833,04
30
0
40
2
50
168,466
51
270
0
LINE
8
0
62
1
10
2295,209
20
-835,04
30
0
11
2303,709
21
-835,04
31
0
0
LINE
8
0
62
1
10
2303,709
20
-835,04
30
0
11
2303,709
21
-797,04
31
0
0
LINE
8
0
62
1
10
2303,709
20
-797,04
30
0
11
2286,709
21
-797,04
31
0
0
LINE
8
0
62
1
10
2286,709
20
-797,04
30
0
11
2286,709
21
-835,04
31
0
0
LINE
8
0
62
1
10
2286,709
20
-835,04
30
0
11
2295,209
21
-835,04
31
0
0
LINE
8
0
6
HIDDEN
62
1
10
2295,209
20
-835,04
30
0
11
2377,959
21
-895,54
31
0
0
LINE
8
0
62
1
10
2377,959
20
-895,54
30
0
11
2387,56
21
-897,5
31
0
0
ARC
8
0
62
1
10
2387,959
20
-895,54
30
0
40
2
50
-101,532
51
0
0
LINE
8
0
62
1
10
2389,959
20
-895,54
30
0
11
2389,959
21
-891,54
31
0
0
LINE
8
0
62
1
10
2389,959
20
-891,54
30
0
11
2347,959
21
-891,54
31
0
0
LINE
8
0
62
1
10
2347,959
20
-891,54
30
0
11
2347,959
21
-899,54
31
0
0
LINE
8
0
62
1
10
2347,959
20
-899,54
30
0
11
2389,959
21
-899,54
31
0
0
LINE
8
0
62
1
10
2389,959
20
-899,54
30
0
11
2389,959
21
-895,54
31
0
0
LINE
8
0
6
HIDDEN
62
1
10
2389,959
20
-895,54
30
0
11
2450,209
21
-923,54
31
0
0
LINE
8
0
62
1
10
2450,209
20
-923,54
30
0
11
2435,209
21
-923,54
31
0
0
LINE
8
0
62
1
10
2435,209
20
-923,54
30
0
11
2247,53
21
-923,54
31
0
0
ARC
8
0
62
1
10
2247,56
20
-943,6
30
0
40
20,06
50
90,085
51
149,893
0
LINE
8
0
62
1
10
2230,209
20
-933,54
30
0
11
1710,209
21
-933,54
31
0
0
ARC
8
0
62
1
10
1692,849
20
-943,6
30
0
40
20,064
50
30,092
51
89,885
0
LINE
8
0
62
1
10
1692,89
20
-923,54
30
0
11
1485,209
21
-923,54
31
0
0
LINE
8
0
62
1
10
1485,209
20
-923,54
30
0
11
1485,209
21
-888,54
31
0
0
ARC
8
0
62
1
10
1505,209
20
-888,54
30
0
40
20
50
90
51
180
0
LINE
8
0
62
1
10
1505,209
20
-868,54
30
0
11
1536,92
21
-868,54
31
0
0
ARC
8
0
62
1
10
1536,88
20
-848,43
30
0
40
20,11
50
270,114
51
314,879
0
LINE
8
0
62
1
10
1551,069
20
-862,68
30
0
11
1604,349
21
-809,401
31
0
0
ARC
8
0
62
1
10
1590,099
20
-795,211
30
0
40
20,11
50
315,12
51
359,857
0
LINE
8
0
62
1
10
1610,209
20
-795,261
30
0
11
1610,209
21
-93,541
31
0
0
LINE
8
0
62
1
10
1610,209
20
-93,541
30
0
11
1690,209
21
-93,541
31
0
0
LINE
8
0
62
1
10
1690,209
20
-93,541
30
0
11
1690,209
21
-73,541
31
0
0
LINE
8
0
62
1
10
1690,209
20
-73,541
30
0
11
2250,209
21
-73,541
31
0
0
LINE
8
0
62
1
10
2250,209
20
-73,541
30
0
11
2250,209
21
-93,541
31
0
0
LINE
8
0
62
1
10
2250,209
20
-93,541
30
0
11
2330,209
21
-93,541
31
0
0
LINE
8
0
62
1
10
2330,209
20
-93,541
30
0
11
2330,209
21
-795,261
31
0
0
ARC
8
0
62
1
10
2350,32
20
-795,211
30
0
40
20,11
50
180,142
51
224,879
0
LINE
8
0
62
1
10
2336,07
20
-809,401
30
0
11
2389,35
21
-862,68
31
0
0
ARC
8
0
62
1
10
2403,54
20
-848,43
30
0
40
20,11
50
225,121
51
269,857
0
LINE
8
0
62
1
10
2403,489
20
-868,54
30
0
11
2415,209
21
-868,54
31
0
0
ARC
8
0
62
1
10
2415,209
20
-888,54
30
0
40
20
50
0
51
90
0
LINE
8
0
62
1
10
2435,209
20
-888,54
30
0
11
2435,209
21
-923,54
31
0
0
LINE
8
0
62
1
10
2435,209
20
-923,54
30
0
11
2435,209
21
-931,54
31
0
0
LINE
8
0
6
HIDDEN
62
1
10
2435,209
20
-931,54
30
0
11
1444,969
21
-135,361
31
0
0
LINE
8
0
62
1
10
1444,969
20
-135,361
30
0
11
1443,01
21
-144,961
31
0
0
ARC
8
0
62
1
10
1444,969
20
-145,361
30
0
40
2
50
168,465
51
270
0
LINE
8
0
62
1
10
1444,969
20
-147,361
30
0
11
1453,469
21
-147,361
31
0
0
LINE
8
0
62
1
10
1453,469
20
-147,361
30
0
11
1453,469
21
-109,361
31
0
0
LINE
8
0
62
1
10
1453,469
20
-109,361
30
0
11
1436,469
21
-109,361
31
0
0
LINE
8
0
62
1
10
1436,469
20
-109,361
30
0
11
1436,469
21
-147,361
31
0
0
LINE
8
0
62
1
10
1436,469
20
-147,361
30
0
11
1444,969
21
-147,361
31
0
0
LINE
8
0
6
HIDDEN
62
1
10
1444,969
20
-147,361
30
0
11
862,969
21
-135,361
31
0
0
LINE
8
0
62
1
10
862,969
20
-135,361
30
0
11
861,01
21
-144,961
31
0
0
ARC
8
0
62
1
10
862,969
20
-145,361
30
0
40
2
50
168,465
51
270
0
LINE
8
0
62
1
10
862,969
20
-147,361
30
0
11
871,469
21
-147,361
31
0
0
LINE
8
0
62
1
10
871,469
20
-147,361
30
0
11
871,469
21
-109,361
31
0
0
LINE
8
0
62
1
10
871,469
20
-109,361
30
0
11
854,469
21
-109,361
31
0
0
LINE
8
0
62
1
10
854,469
20
-109,361
30
0
11
854,469
21
-147,361
31
0
0
LINE
8
0
62
1
10
854,469
20
-147,361
30
0
11
862,969
21
-147,361
31
0
0
LINE
8
0
6
HIDDEN
62
1
10
862,969
20
-147,361
30
0
11
862,969
21
-780,36
31
0
0
LINE
8
0
62
1
10
862,969
20
-780,36
30
0
11
861,01
21
-789,961
31
0
0
ARC
8
0
62
1
10
862,969
20
-790,36
30
0
40
2
50
168,466
51
270
0
LINE
8
0
62
1
10
862,969
20
-792,36
30
0
11
871,469
21
-792,36
31
0
0
LINE
8
0
62
1
10
871,469
20
-792,36
30
0
11
871,469
21
-754,36
31
0
0
LINE
8
0
62
1
10
871,469
20
-754,36
30
0
11
854,469
21
-754,36
31
0
0
LINE
8
0
62
1
10
854,469
20
-754,36
30
0
11
854,469
21
-792,36
31
0
0
LINE
8
0
62
1
10
854,469
20
-792,36
30
0
11
862,969
21
-792,36
31
0
0
LINE
8
0
6
HIDDEN
62
1
10
862,969
20
-792,36
30
0
11
929,159
21
-825,86
31
0
0
LINE
8
0
62
1
10
929,159
20
-825,86
30
0
11
938,369
21
-825,86
31
0
0
LINE
8
0
6
HIDDEN
62
1
10
938,369
20
-825,86
30
0
11
1378,78
21
-825,86
31
0
0
LINE
8
0
62
1
10
1378,78
20
-825,86
30
0
11
1388,369
21
-825,86
31
0
0
LINE
8
0
6
HIDDEN
62
1
10
1388,369
20
-825,86
30
0
11
1386,089
21
-757,98
31
0
0
LINE
8
0
62
1
10
1386,089
20
-757,98
30
0
11
1391,489
21
-766,16
31
0
0
ARC
8
0
62
1
10
1393,16
20
-765,05
30
0
40
2,005
50
213,609
51
314,998
0
ARC
8
0
62
1
10
1383,969
20
-755,86
30
0
40
15,004
50
-45,001
51
0
0
LINE
8
0
62
1
10
1398,969
20
-755,86
30
0
11
1398,969
21
-725,86
31
0
0
ARC
8
0
62
1
10
1383,969
20
-725,86
30
0
40
15
50
0
51
90
0
LINE
8
0
62
1
10
1383,969
20
-710,86
30
0
11
1333,969
21
-710,86
31
0
0
ARC
8
0
62
1
10
1333,969
20
-725,86
30
0
40
15
50
90
51
180
0
LINE
8
0
62
1
10
1318,969
20
-725,86
30
0
11
1318,969
21
-755,86
31
0
0
ARC
8
0
62
1
10
1333,969
20
-755,86
30
0
40
15
50
180
51
270
0
LINE
8
0
62
1
10
1333,969
20
-770,86
30
0
11
1383,969
21
-770,86
31
0
0
ARC
8
0
62
1
10
1383,969
20
-755,86
30
0
40
15
50
270
51
315
0
LINE
8
0
6
HIDDEN
62
1
10
1394,579
20
-766,47
30
0
11
1444,969
21
-780,36
31
0
0
LINE
8
0
62
1
10
1444,969
20
-780,36
30
0
11
1443,01
21
-789,961
31
0
0
ARC
8
0
62
1
10
1444,969
20
-790,36
30
0
40
2
50
168,466
51
270
0
LINE
8
0
62
1
10
1444,969
20
-792,36
30
0
11
1453,469
21
-792,36
31
0
0
LINE
8
0
62
1
10
1453,469
20
-792,36
30
0
11
1453,469
21
-754,36
31
0
0
LINE
8
0
62
1
10
1453,469
20
-754,36
30
0
11
1436,469
21
-754,36
31
0
0
LINE
8
0
62
1
10
1436,469
20
-754,36
30
0
11
1436,469
21
-792,36
31
0
0
LINE
8
0
62
1
10
1436,469
20
-792,36
30
0
11
1444,969
21
-792,36
31
0
0
LINE
8
0
6
HIDDEN
62
1
10
1444,969
20
-792,36
30
0
11
1528,969
21
-850,86
31
0
0
LINE
8
0
62
1
10
1528,969
20
-850,86
30
0
11
1513,969
21
-850,86
31
0
0
LINE
8
0
62
1
10
1513,969
20
-850,86
30
0
11
1433,969
21
-850,86
31
0
0
LINE
8
0
62
1
10
1433,969
20
-850,86
30
0
11
1433,969
21
-872,86
31
0
0
LINE
8
0
62
1
10
1433,969
20
-872,86
30
0
11
873,969
21
-872,86
31
0
0
LINE
8
0
62
1
10
873,969
20
-872,86
30
0
11
873,969
21
-850,86
31
0
0
LINE
8
0
62
1
10
873,969
20
-850,86
30
0
11
793,969
21
-850,86
31
0
0
LINE
8
0
62
1
10
793,969
20
-850,86
30
0
11
793,969
21
-149,15
31
0
0
ARC
8
0
62
1
10
773,859
20
-149,191
30
0
40
20,11
50
0,113
51
44,879
0
LINE
8
0
62
1
10
788,109
20
-135
30
0
11
734,83
21
-81,721
31
0
0
ARC
8
0
62
1
10
720,64
20
-95,971
30
0
40
20,11
50
45,12
51
89,857
0
LINE
8
0
62
1
10
720,69
20
-75,861
30
0
11
688,969
21
-75,861
31
0
0
ARC
8
0
62
1
10
688,969
20
-55,861
30
0
40
20
50
180
51
270
0
LINE
8
0
62
1
10
668,969
20
-55,861
30
0
11
668,969
21
-20,861
31
0
0
LINE
8
0
62
1
10
668,969
20
-20,861
30
0
11
876,65
21
-20,861
31
0
0
ARC
8
0
62
1
10
876,609
20
-0,801
30
0
40
20,06
50
270,114
51
329,907
0
LINE
8
0
62
1
10
893,969
20
-10,86
30
0
11
1413,969
21
-10,86
31
0
0
ARC
8
0
62
1
10
1431,329
20
-0,801
30
0
40
20,064
50
210,092
51
269,885
0
LINE
8
0
62
1
10
1431,29
20
-20,861
30
0
11
1618,969
21
-20,861
31
0
0
LINE
8
0
62
1
10
1618,969
20
-20,861
30
0
11
1618,969
21
-55,861
31
0
0
ARC
8
0
62
1
10
1598,969
20
-55,861
30
0
40
20
50
-90
51
0
0
LINE
8
0
62
1
10
1598,969
20
-75,861
30
0
11
1587,25
21
-75,861
31
0
0
ARC
8
0
62
1
10
1587,3
20
-95,971
30
0
40
20,11
50
90,142
51
134,879
0
LINE
8
0
62
1
10
1573,109
20
-81,721
30
0
11
1519,829
21
-135
31
0
0
ARC
8
0
62
1
10
1534,079
20
-149,191
30
0
40
20,11
50
135,12
51
179,886
0
LINE
8
0
62
1
10
1513,969
20
-149,15
30
0
11
1513,969
21
-850,86
31
0
0
LINE
8
0
62
1
10
1513,969
20
-850,86
30
0
11
1513,969
21
-858,86
31
0
0
LINE
8
0
6
HIDDEN
62
1
10
1513,969
20
-858,86
30
0
11
2436,729
21
-1210,5
31
0
0
LINE
8
0
62
1
10
2436,729
20
-1210,5
30
0
11
2434,77
21
-1220,1
31
0
0
ARC
8
0
62
1
10
2436,729
20
-1220,5
30
0
40
2
50
168,464
51
270
0
LINE
8
0
62
1
10
2436,729
20
-1222,5
30
0
11
2440,729
21
-1222,5
31
0
0
LINE
8
0
62
1
10
2440,729
20
-1222,5
30
0
11
2440,729
21
-1180,5
31
0
0
LINE
8
0
62
1
10
2440,729
20
-1180,5
30
0
11
2432,729
21
-1180,5
31
0
0
LINE
8
0
62
1
10
2432,729
20
-1180,5
30
0
11
2432,729
21
-1222,5
31
0
0
LINE
8
0
62
1
10
2432,729
20
-1222,5
30
0
11
2436,729
21
-1222,5
31
0
0
LINE
8
0
6
HIDDEN
62
1
10
2436,729
20
-1222,5
30
0
11
2436,729
21
-1850,5
31
0
0
LINE
8
0
62
1
10
2436,729
20
-1850,5
30
0
11
2434,77
21
-1860,1
31
0
0
ARC
8
0
62
1
10
2436,729
20
-1860,5
30
0
40
2
50
168,464
51
270
0
LINE
8
0
62
1
10
2436,729
20
-1862,5
30
0
11
2440,729
21
-1862,5
31
0
0
LINE
8
0
62
1
10
2440,729
20
-1862,5
30
0
11
2440,729
21
-1820,5
31
0
0
LINE
8
0
62
1
10
2440,729
20
-1820,5
30
0
11
2432,729
21
-1820,5
31
0
0
LINE
8
0
62
1
10
2432,729
20
-1820,5
30
0
11
2432,729
21
-1862,5
31
0
0
LINE
8
0
62
1
10
2432,729
20
-1862,5
30
0
11
2436,729
21
-1862,5
31
0
0
LINE
8
0
6
HIDDEN
62
1
10
2436,729
20
-1862,5
30
0
11
2470,729
21
-2084,5
31
0
0
LINE
8
0
62
1
10
2470,729
20
-2084,5
30
0
11
2455,729
21
-2084,5
31
0
0
LINE
8
0
62
1
10
2455,729
20
-2084,5
30
0
11
2375,229
21
-2084,5
31
0
0
LINE
8
0
62
1
10
2375,229
20
-2084,5
30
0
11
2375,229
21
-2090,5
31
0
0
LINE
8
0
62
1
10
2375,229
20
-2090,5
30
0
11
2339,229
21
-2090,5
31
0
0
LINE
8
0
62
1
10
2339,229
20
-2090,5
30
0
11
2339,229
21
-2084,5
31
0
0
LINE
8
0
62
1
10
2339,229
20
-2084,5
30
0
11
1730,229
21
-2084,5
31
0
0
LINE
8
0
62
1
10
1730,229
20
-2084,5
30
0
11
1730,229
21
-2090,5
31
0
0
LINE
8
0
62
1
10
1730,229
20
-2090,5
30
0
11
1694,229
21
-2090,5
31
0
0
LINE
8
0
62
1
10
1694,229
20
-2090,5
30
0
11
1694,229
21
-2084,5
31
0
0
LINE
8
0
62
1
10
1694,229
20
-2084,5
30
0
11
1634,729
21
-2084,5
31
0
0
LINE
8
0
62
1
10
1634,729
20
-2084,5
30
0
11
1634,729
21
-958,5
31
0
0
LINE
8
0
62
1
10
1634,729
20
-958,5
30
0
11
1694,229
21
-958,5
31
0
0
LINE
8
0
62
1
10
1694,229
20
-958,5
30
0
11
1694,229
21
-952,5
31
0
0
LINE
8
0
62
1
10
1694,229
20
-952,5
30
0
11
1730,229
21
-952,5
31
0
0
LINE
8
0
62
1
10
1730,229
20
-952,5
30
0
11
1730,229
21
-958,5
31
0
0
LINE
8
0
62
1
10
1730,229
20
-958,5
30
0
11
2339,229
21
-958,5
31
0
0
LINE
8
0
62
1
10
2339,229
20
-958,5
30
0
11
2339,229
21
-952,5
31
0
0
LINE
8
0
62
1
10
2339,229
20
-952,5
30
0
11
2375,229
21
-952,5
31
0
0
LINE
8
0
62
1
10
2375,229
20
-952,5
30
0
11
2375,229
21
-958,5
31
0
0
LINE
8
0
62
1
10
2375,229
20
-958,5
30
0
11
2455,729
21
-958,5
31
0
0
LINE
8
0
62
1
10
2455,729
20
-958,5
30
0
11
2455,729
21
-2084,5
31
0
0
LINE
8
0
62
1
10
2455,729
20
-2084,5
30
0
11
2455,729
21
-2092,5
31
0
0
LINE
8
0
6
HIDDEN
62
1
10
2455,729
20
-2092,5
30
0
11
3175,55
21
-1203,5
31
0
0
LINE
8
0
62
1
10
3175,55
20
-1203,5
30
0
11
3173,59
21
-1213,1
31
0
0
ARC
8
0
62
1
10
3175,55
20
-1213,5
30
0
40
2
50
168,464
51
270
0
LINE
8
0
62
1
10
3175,55
20
-1215,5
30
0
11
3179,55
21
-1215,5
31
0
0
LINE
8
0
62
1
10
3179,55
20
-1215,5
30
0
11
3179,55
21
-1173,5
31
0
0
LINE
8
0
62
1
10
3179,55
20
-1173,5
30
0
11
3171,55
21
-1173,5
31
0
0
LINE
8
0
62
1
10
3171,55
20
-1173,5
30
0
11
3171,55
21
-1215,5
31
0
0
LINE
8
0
62
1
10
3171,55
20
-1215,5
30
0
11
3175,55
21
-1215,5
31
0
0
LINE
8
0
6
HIDDEN
62
1
10
3175,55
20
-1215,5
30
0
11
3175,55
21
-1843,5
31
0
0
LINE
8
0
62
1
10
3175,55
20
-1843,5
30
0
11
3173,59
21
-1853,1
31
0
0
ARC
8
0
62
1
10
3175,55
20
-1853,5
30
0
40
2
50
168,464
51
270
0
LINE
8
0
62
1
10
3175,55
20
-1855,5
30
0
11
3179,55
21
-1855,5
31
0
0
LINE
8
0
62
1
10
3179,55
20
-1855,5
30
0
11
3179,55
21
-1813,5
31
0
0
LINE
8
0
62
1
10
3179,55
20
-1813,5
30
0
11
3171,55
21
-1813,5
31
0
0
LINE
8
0
62
1
10
3171,55
20
-1813,5
30
0
11
3171,55
21
-1855,5
31
0
0
LINE
8
0
62
1
10
3171,55
20
-1855,5
30
0
11
3175,55
21
-1855,5
31
0
0
LINE
8
0
6
HIDDEN
62
1
10
3175,55
20
-1855,5
30
0
11
3204,29
21
-2089,771
31
0
0
ARC
8
0
62
1
10
3194,55
20
-2087,5
30
0
40
10,001
50
-13,12
51
90
0
LINE
8
0
62
1
10
3194,55
20
-2077,5
30
0
11
3076,05
21
-2077,5
31
0
0
LINE
8
0
62
1
10
3076,05
20
-2077,5
30
0
11
3076,05
21
-2090,5
31
0
0
LINE
8
0
62
1
10
3076,05
20
-2090,5
30
0
11
3040,05
21
-2090,5
31
0
0
LINE
8
0
62
1
10
3040,05
20
-2090,5
30
0
11
3040,05
21
-2077,5
31
0
0
LINE
8
0
62
1
10
3040,05
20
-2077,5
30
0
11
2607,05
21
-2077,5
31
0
0
LINE
8
0
62
1
10
2607,05
20
-2077,5
30
0
11
2607,05
21
-2090,5
31
0
0
LINE
8
0
62
1
10
2607,05
20
-2090,5
30
0
11
2571,05
21
-2090,5
31
0
0
LINE
8
0
62
1
10
2571,05
20
-2090,5
30
0
11
2571,05
21
-2077,5
31
0
0
LINE
8
0
62
1
10
2571,05
20
-2077,5
30
0
11
2473,55
21
-2077,5
31
0
0
LINE
8
0
62
1
10
2473,55
20
-2077,5
30
0
11
2473,55
21
-951,5
31
0
0
LINE
8
0
62
1
10
2473,55
20
-951,5
30
0
11
2571,05
21
-951,5
31
0
0
LINE
8
0
62
1
10
2571,05
20
-951,5
30
0
11
2571,05
21
-938,5
31
0
0
LINE
8
0
62
1
10
2571,05
20
-938,5
30
0
11
2607,05
21
-938,5
31
0
0
LINE
8
0
62
1
10
2607,05
20
-938,5
30
0
11
2607,05
21
-951,5
31
0
0
LINE
8
0
62
1
10
2607,05
20
-951,5
30
0
11
3040,05
21
-951,5
31
0
0
LINE
8
0
62
1
10
3040,05
20
-951,5
30
0
11
3040,05
21
-938,5
31
0
0
LINE
8
0
62
1
10
3040,05
20
-938,5
30
0
11
3076,05
21
-938,5
31
0
0
LINE
8
0
62
1
10
3076,05
20
-938,5
30
0
11
3076,05
21
-951,5
31
0
0
LINE
8
0
62
1
10
3076,05
20
-951,5
30
0
11
3194,55
21
-951,5
31
0
0
LINE
8
0
62
1
10
3194,55
20
-951,5
30
0
11
3194,55
21
-2077,5
31
0
0
LINE
8
0
62
1
10
3194,55
20
-2077,5
30
0
11
3200,209
21
-2083,16
31
0
0
LINE
8
0
6
HIDDEN
62
1
10
3200,209
20
-2083,16
30
0
11
3199,719
21
-50,561
31
0
0
LINE
8
0
62
1
10
3199,719
20
-50,561
30
0
11
3190,12
21
-48,6
31
0
0
ARC
8
0
62
1
10
3189,719
20
-50,561
30
0
40
2
50
78,461
51
180
0
LINE
8
0
62
1
10
3187,719
20
-50,561
30
0
11
3187,719
21
-54,561
31
0
0
LINE
8
0
62
1
10
3187,719
20
-54,561
30
0
11
3224,719
21
-54,561
31
0
0
LINE
8
0
62
1
10
3224,719
20
-54,561
30
0
11
3224,719
21
-46,561
31
0
0
LINE
8
0
62
1
10
3224,719
20
-46,561
30
0
11
3187,719
21
-46,561
31
0
0
LINE
8
0
62
1
10
3187,719
20
-46,561
30
0
11
3187,719
21
-50,561
31
0
0
LINE
8
0
6
HIDDEN
62
1
10
3187,719
20
-50,561
30
0
11
3144,719
21
-50,561
31
0
0
LINE
8
0
62
1
10
3144,719
20
-50,561
30
0
11
3135,12
21
-48,6
31
0
0
ARC
8
0
62
1
10
3134,719
20
-50,561
30
0
40
2
50
78,461
51
180
0
LINE
8
0
62
1
10
3132,719
20
-50,561
30
0
11
3132,719
21
-54,561
31
0
0
LINE
8
0
62
1
10
3132,719
20
-54,561
30
0
11
3169,719
21
-54,561
31
0
0
LINE
8
0
62
1
10
3169,719
20
-54,561
30
0
11
3169,719
21
-46,561
31
0
0
LINE
8
0
62
1
10
3169,719
20
-46,561
30
0
11
3132,719
21
-46,561
31
0
0
LINE
8
0
62
1
10
3132,719
20
-46,561
30
0
11
3132,719
21
-50,561
31
0
0
LINE
8
0
6
HIDDEN
62
1
10
3132,719
20
-50,561
30
0
11
3101,06
21
-175,06
31
0
0
LINE
8
0
62
1
10
3101,06
20
-175,06
30
0
11
3099,1
21
-184,661
31
0
0
ARC
8
0
62
1
10
3101,06
20
-185,06
30
0
40
2
50
168,465
51
270
0
LINE
8
0
62
1
10
3101,06
20
-187,06
30
0
11
3108,219
21
-187,06
31
0
0
LINE
8
0
62
1
10
3108,219
20
-187,06
30
0
11
3108,219
21
-149,06
31
0
0
LINE
8
0
62
1
10
3108,219
20
-149,06
30
0
11
3091,219
21
-149,06
31
0
0
LINE
8
0
62
1
10
3091,219
20
-149,06
30
0
11
3091,219
21
-187,06
31
0
0
LINE
8
0
62
1
10
3091,219
20
-187,06
30
0
11
3101,06
21
-187,06
31
0
0
LINE
8
0
6
HIDDEN
62
1
10
3101,06
20
-187,06
30
0
11
3065,719
21
-137,06
31
0
0
LINE
8
0
62
1
10
3065,719
20
-137,06
30
0
11
3063,76
21
-146,661
31
0
0
ARC
8
0
62
1
10
3065,719
20
-147,06
30
0
40
2
50
168,465
51
270
0
LINE
8
0
62
1
10
3065,719
20
-149,06
30
0
11
3074,219
21
-149,06
31
0
0
LINE
8
0
62
1
10
3074,219
20
-149,06
30
0
11
3074,219
21
-111,06
31
0
0
LINE
8
0
62
1
10
3074,219
20
-111,06
30
0
11
3057,219
21
-111,06
31
0
0
LINE
8
0
62
1
10
3057,219
20
-111,06
30
0
11
3057,219
21
-149,06
31
0
0
LINE
8
0
62
1
10
3057,219
20
-149,06
30
0
11
3065,719
21
-149,06
31
0
0
LINE
8
0
6
HIDDEN
62
1
10
3065,719
20
-149,06
30
0
11
2384,969
21
-50,561
31
0
0
LINE
8
0
62
1
10
2384,969
20
-50,561
30
0
11
2394,57
21
-52,521
31
0
0
ARC
8
0
62
1
10
2394,969
20
-50,561
30
0
40
2
50
-101,532
51
0
0
LINE
8
0
62
1
10
2396,969
20
-50,561
30
0
11
2396,969
21
-46,561
31
0
0
LINE
8
0
62
1
10
2396,969
20
-46,561
30
0
11
2354,969
21
-46,561
31
0
0
LINE
8
0
62
1
10
2354,969
20
-46,561
30
0
11
2354,969
21
-54,561
31
0
0
LINE
8
0
62
1
10
2354,969
20
-54,561
30
0
11
2396,969
21
-54,561
31
0
0
LINE
8
0
62
1
10
2396,969
20
-54,561
30
0
11
2396,969
21
-50,561
31
0
0
LINE
8
0
6
HIDDEN
62
1
10
2396,969
20
-50,561
30
0
11
2483,719
21
-137,06
31
0
0
LINE
8
0
62
1
10
2483,719
20
-137,06
30
0
11
2481,76
21
-146,661
31
0
0
ARC
8
0
62
1
10
2483,719
20
-147,06
30
0
40
2
50
168,465
51
270
0
LINE
8
0
62
1
10
2483,719
20
-149,06
30
0
11
2492,219
21
-149,06
31
0
0
LINE
8
0
62
1
10
2492,219
20
-149,06
30
0
11
2492,219
21
-111,06
31
0
0
LINE
8
0
62
1
10
2492,219
20
-111,06
30
0
11
2475,219
21
-111,06
31
0
0
LINE
8
0
62
1
10
2475,219
20
-111,06
30
0
11
2475,219
21
-149,06
31
0
0
LINE
8
0
62
1
10
2475,219
20
-149,06
30
0
11
2483,719
21
-149,06
31
0
0
LINE
8
0
6
HIDDEN
62
1
10
2483,719
20
-149,06
30
0
11
2449,699
21
-137,06
31
0
0
LINE
8
0
62
1
10
2449,699
20
-137,06
30
0
11
2447,739
21
-146,661
31
0
0
ARC
8
0
62
1
10
2449,699
20
-147,06
30
0
40
2
50
168,465
51
270
0
LINE
8
0
62
1
10
2449,699
20
-149,06
30
0
11
2458,199
21
-149,06
31
0
0
LINE
8
0
62
1
10
2458,199
20
-149,06
30
0
11
2458,199
21
-111,06
31
0
0
LINE
8
0
62
1
10
2458,199
20
-111,06
30
0
11
2441,199
21
-111,06
31
0
0
LINE
8
0
62
1
10
2441,199
20
-111,06
30
0
11
2441,199
21
-149,06
31
0
0
LINE
8
0
62
1
10
2441,199
20
-149,06
30
0
11
2449,699
21
-149,06
31
0
0
LINE
8
0
6
HIDDEN
62
1
10
2449,699
20
-149,06
30
0
11
2449,699
21
-782,06
31
0
0
LINE
8
0
62
1
10
2449,699
20
-782,06
30
0
11
2447,739
21
-791,66
31
0
0
ARC
8
0
62
1
10
2449,699
20
-792,06
30
0
40
2
50
168,464
51
270
0
LINE
8
0
62
1
10
2449,699
20
-794,06
30
0
11
2458,199
21
-794,06
31
0
0
LINE
8
0
62
1
10
2458,199
20
-794,06
30
0
11
2458,199
21
-756,06
31
0
0
LINE
8
0
62
1
10
2458,199
20
-756,06
30
0
11
2441,199
21
-756,06
31
0
0
LINE
8
0
62
1
10
2441,199
20
-756,06
30
0
11
2441,199
21
-794,06
31
0
0
LINE
8
0
62
1
10
2441,199
20
-794,06
30
0
11
2449,699
21
-794,06
31
0
0
LINE
8
0
6
HIDDEN
62
1
10
2449,699
20
-794,06
30
0
11
2483,719
21
-782,06
31
0
0
LINE
8
0
62
1
10
2483,719
20
-782,06
30
0
11
2481,76
21
-791,66
31
0
0
ARC
8
0
62
1
10
2483,719
20
-792,06
30
0
40
2
50
168,464
51
270
0
LINE
8
0
62
1
10
2483,719
20
-794,06
30
0
11
2492,219
21
-794,06
31
0
0
LINE
8
0
62
1
10
2492,219
20
-794,06
30
0
11
2492,219
21
-756,06
31
0
0
LINE
8
0
62
1
10
2492,219
20
-756,06
30
0
11
2475,219
21
-756,06
31
0
0
LINE
8
0
62
1
10
2475,219
20
-756,06
30
0
11
2475,219
21
-794,06
31
0
0
LINE
8
0
62
1
10
2475,219
20
-794,06
30
0
11
2483,719
21
-794,06
31
0
0
LINE
8
0
6
HIDDEN
62
1
10
2483,719
20
-794,06
30
0
11
2597,719
21
-742,56
31
0
0
LINE
8
0
62
1
10
2597,719
20
-742,56
30
0
11
2607,32
21
-744,521
31
0
0
ARC
8
0
62
1
10
2607,719
20
-742,56
30
0
40
2
50
-101,532
51
0
0
LINE
8
0
62
1
10
2609,719
20
-742,56
30
0
11
2609,719
21
-727,56
31
0
0
ARC
8
0
62
1
10
2594,719
20
-727,56
30
0
40
15
50
0
51
90
0
LINE
8
0
62
1
10
2594,719
20
-712,56
30
0
11
2544,719
21
-712,56
31
0
0
ARC
8
0
62
1
10
2544,719
20
-727,56
30
0
40
15
50
90
51
180
0
LINE
8
0
62
1
10
2529,719
20
-727,56
30
0
11
2529,719
21
-757,56
31
0
0
ARC
8
0
62
1
10
2544,719
20
-757,56
30
0
40
15
50
180
51
270
0
LINE
8
0
62
1
10
2544,719
20
-772,56
30
0
11
2594,719
21
-772,56
31
0
0
ARC
8
0
62
1
10
2594,719
20
-757,56
30
0
40
15
50
-90
51
0
0
LINE
8
0
62
1
10
2609,719
20
-757,56
30
0
11
2609,719
21
-742,56
31
0
0
LINE
8
0
6
HIDDEN
62
1
10
2609,719
20
-742,56
30
0
11
3099,719
21
-744,06
31
0
0
LINE
8
0
62
1
10
3099,719
20
-744,06
30
0
11
3097,76
21
-753,66
31
0
0
ARC
8
0
62
1
10
3099,719
20
-754,06
30
0
40
2
50
168,464
51
270
0
LINE
8
0
62
1
10
3099,719
20
-756,06
30
0
11
3108,219
21
-756,06
31
0
0
LINE
8
0
62
1
10
3108,219
20
-756,06
30
0
11
3108,219
21
-718,06
31
0
0
LINE
8
0
62
1
10
3108,219
20
-718,06
30
0
11
3091,219
21
-718,06
31
0
0
LINE
8
0
62
1
10
3091,219
20
-718,06
30
0
11
3091,219
21
-756,06
31
0
0
LINE
8
0
62
1
10
3091,219
20
-756,06
30
0
11
3099,719
21
-756,06
31
0
0
LINE
8
0
6
HIDDEN
62
1
10
3099,719
20
-756,06
30
0
11
3065,719
21
-782,06
31
0
0
LINE
8
0
62
1
10
3065,719
20
-782,06
30
0
11
3063,76
21
-791,66
31
0
0
ARC
8
0
62
1
10
3065,719
20
-792,06
30
0
40
2
50
168,464
51
270
0
LINE
8
0
62
1
10
3065,719
20
-794,06
30
0
11
3074,219
21
-794,06
31
0
0
LINE
8
0
62
1
10
3074,219
20
-794,06
30
0
11
3074,219
21
-756,06
31
0
0
LINE
8
0
62
1
10
3074,219
20
-756,06
30
0
11
3057,219
21
-756,06
31
0
0
LINE
8
0
62
1
10
3057,219
20
-756,06
30
0
11
3057,219
21
-794,06
31
0
0
LINE
8
0
62
1
10
3057,219
20
-794,06
30
0
11
3065,719
21
-794,06
31
0
0
LINE
8
0
6
HIDDEN
62
1
10
3065,719
20
-794,06
30
0
11
3149,719
21
-852,56
31
0
0
LINE
8
0
62
1
10
3149,719
20
-852,56
30
0
11
3134,719
21
-852,56
31
0
0
LINE
8
0
62
1
10
3134,719
20
-852,56
30
0
11
3054,719
21
-852,56
31
0
0
LINE
8
0
62
1
10
3054,719
20
-852,56
30
0
11
3054,719
21
-872,56
31
0
0
LINE
8
0
62
1
10
3054,719
20
-872,56
30
0
11
2494,719
21
-872,56
31
0
0
LINE
8
0
62
1
10
2494,719
20
-872,56
30
0
11
2494,719
21
-852,56
31
0
0
LINE
8
0
62
1
10
2494,719
20
-852,56
30
0
11
2414,719
21
-852,56
31
0
0
LINE
8
0
62
1
10
2414,719
20
-852,56
30
0
11
2414,719
21
-150,851
31
0
0
ARC
8
0
62
1
10
2394,61
20
-150,89
30
0
40
20,109
50
0,113
51
44,858
0
LINE
8
0
62
1
10
2408,86
20
-136,711
30
0
11
2355,58
21
-83,42
31
0
0
ARC
8
0
62
1
10
2341,389
20
-97,67
30
0
40
20,11
50
45,12
51
89,857
0
LINE
8
0
62
1
10
2341,439
20
-77,56
30
0
11
2329,719
21
-77,56
31
0
0
ARC
8
0
62
1
10
2329,719
20
-57,561
30
0
40
19,999
50
180
51
270
0
LINE
8
0
62
1
10
2309,719
20
-57,561
30
0
11
2309,719
21
-22,56
31
0
0
LINE
8
0
62
1
10
2309,719
20
-22,56
30
0
11
2497,399
21
-22,56
31
0
0
ARC
8
0
62
1
10
2497,36
20
-2,5
30
0
40
20,06
50
270,113
51
329,907
0
LINE
8
0
62
1
10
2514,719
20
-12,561
30
0
11
3034,719
21
-12,561
31
0
0
ARC
8
0
62
1
10
3052,08
20
-2,5
30
0
40
20,064
50
210,091
51
269,885
0
LINE
8
0
62
1
10
3052,04
20
-22,56
30
0
11
3259,719
21
-22,56
31
0
0
LINE
8
0
62
1
10
3259,719
20
-22,56
30
0
11
3259,719
21
-57,561
31
0
0
ARC
8
0
62
1
10
3239,719
20
-57,561
30
0
40
20
50
-90
51
0
0
LINE
8
0
62
1
10
3239,719
20
-77,56
30
0
11
3208
21
-77,56
31
0
0
ARC
8
0
62
1
10
3208,05
20
-97,67
30
0
40
20,11
50
90,142
51
134,878
0
LINE
8
0
62
1
10
3193,86
20
-83,42
30
0
11
3140,58
21
-136,711
31
0
0
ARC
8
0
62
1
10
3154,83
20
-150,89
30
0
40
20,103
50
135,141
51
179,886
0
LINE
8
0
62
1
10
3134,719
20
-150,851
30
0
11
3134,719
21
-852,56
31
0
0
LINE
8
0
62
1
10
3134,719
20
-852,56
30
0
11
3134,719
21
-860,56
31
0
0
LINE
8
0
6
HIDDEN
62
1
10
3134,719
20
-860,56
30
0
11
3913,889
21
-1210,5
31
0
0
LINE
8
0
62
1
10
3913,889
20
-1210,5
30
0
11
3911,939
21
-1220,1
31
0
0
ARC
8
0
62
1
10
3913,889
20
-1220,5
30
0
40
1,99
50
168,406
51
270
0
LINE
8
0
62
1
10
3913,889
20
-1222,5
30
0
11
3917,889
21
-1222,5
31
0
0
LINE
8
0
62
1
10
3917,889
20
-1222,5
30
0
11
3917,889
21
-1180,5
31
0
0
LINE
8
0
62
1
10
3917,889
20
-1180,5
30
0
11
3909,889
21
-1180,5
31
0
0
LINE
8
0
62
1
10
3909,889
20
-1180,5
30
0
11
3909,889
21
-1222,5
31
0
0
LINE
8
0
62
1
10
3909,889
20
-1222,5
30
0
11
3913,889
21
-1222,5
31
0
0
LINE
8
0
6
HIDDEN
62
1
10
3913,889
20
-1222,5
30
0
11
3913,889
21
-1850,5
31
0
0
LINE
8
0
62
1
10
3913,889
20
-1850,5
30
0
11
3911,939
21
-1860,1
31
0
0
ARC
8
0
62
1
10
3913,889
20
-1860,5
30
0
40
1,99
50
168,406
51
270
0
LINE
8
0
62
1
10
3913,889
20
-1862,5
30
0
11
3917,889
21
-1862,5
31
0
0
LINE
8
0
62
1
10
3917,889
20
-1862,5
30
0
11
3917,889
21
-1820,5
31
0
0
LINE
8
0
62
1
10
3917,889
20
-1820,5
30
0
11
3909,889
21
-1820,5
31
0
0
LINE
8
0
62
1
10
3909,889
20
-1820,5
30
0
11
3909,889
21
-1862,5
31
0
0
LINE
8
0
62
1
10
3909,889
20
-1862,5
30
0
11
3913,889
21
-1862,5
31
0
0
LINE
8
0
6
HIDDEN
62
1
10
3913,889
20
-1862,5
30
0
11
3940,389
21
-2084,5
31
0
0
LINE
8
0
62
1
10
3940,389
20
-2084,5
30
0
11
3932,889
21
-2084,5
31
0
0
LINE
8
0
62
1
10
3932,889
20
-2084,5
30
0
11
3852,389
21
-2084,5
31
0
0
LINE
8
0
62
1
10
3852,389
20
-2084,5
30
0
11
3852,389
21
-2090,5
31
0
0
LINE
8
0
62
1
10
3852,389
20
-2090,5
30
0
11
3816,389
21
-2090,5
31
0
0
LINE
8
0
62
1
10
3816,389
20
-2090,5
30
0
11
3816,389
21
-2084,5
31
0
0
LINE
8
0
62
1
10
3816,389
20
-2084,5
30
0
11
3307,389
21
-2084,5
31
0
0
LINE
8
0
62
1
10
3307,389
20
-2084,5
30
0
11
3307,389
21
-2090,5
31
0
0
LINE
8
0
62
1
10
3307,389
20
-2090,5
30
0
11
3271,389
21
-2090,5
31
0
0
LINE
8
0
62
1
10
3271,389
20
-2090,5
30
0
11
3271,389
21
-2084,5
31
0
0
LINE
8
0
62
1
10
3271,389
20
-2084,5
30
0
11
3211,889
21
-2084,5
31
0
0
LINE
8
0
62
1
10
3211,889
20
-2084,5
30
0
11
3211,889
21
-958,5
31
0
0
LINE
8
0
62
1
10
3211,889
20
-958,5
30
0
11
3271,389
21
-958,5
31
0
0
LINE
8
0
62
1
10
3271,389
20
-958,5
30
0
11
3271,389
21
-952,5
31
0
0
LINE
8
0
62
1
10
3271,389
20
-952,5
30
0
11
3307,389
21
-952,5
31
0
0
LINE
8
0
62
1
10
3307,389
20
-952,5
30
0
11
3307,389
21
-958,5
31
0
0
LINE
8
0
62
1
10
3307,389
20
-958,5
30
0
11
3816,389
21
-958,5
31
0
0
LINE
8
0
62
1
10
3816,389
20
-958,5
30
0
11
3816,389
21
-952,5
31
0
0
LINE
8
0
62
1
10
3816,389
20
-952,5
30
0
11
3852,389
21
-952,5
31
0
0
LINE
8
0
62
1
10
3852,389
20
-952,5
30
0
11
3852,389
21
-958,5
31
0
0
LINE
8
0
62
1
10
3852,389
20
-958,5
30
0
11
3932,889
21
-958,5
31
0
0
LINE
8
0
62
1
10
3932,889
20
-958,5
30
0
11
3932,889
21
-2084,5
31
0
0
LINE
8
0
62
1
10
3932,889
20
-2084,5
30
0
11
3932,889
21
-2088,5
31
0
0
LINE
8
0
6
HIDDEN
62
1
10
3932,889
20
-2088,5
30
0
11
3241,8
21
-810,04
31
0
0
LINE
8
0
62
1
10
3241,8
20
-810,04
30
0
11
3243,76
21
-800,441
31
0
0
ARC
8
0
62
1
10
3241,8
20
-800,04
30
0
40
2
50
-11,536
51
90
0
LINE
8
0
62
1
10
3241,8
20
-798,04
30
0
11
3233,3
21
-798,04
31
0
0
LINE
8
0
62
1
10
3233,3
20
-798,04
30
0
11
3233,3
21
-836,04
31
0
0
LINE
8
0
62
1
10
3233,3
20
-836,04
30
0
11
3250,3
21
-836,04
31
0
0
LINE
8
0
62
1
10
3250,3
20
-836,04
30
0
11
3250,3
21
-798,04
31
0
0
LINE
8
0
62
1
10
3250,3
20
-798,04
30
0
11
3241,8
21
-798,04
31
0
0
LINE
8
0
6
HIDDEN
62
1
10
3241,8
20
-798,04
30
0
11
3256,8
21
-731,54
31
0
0
LINE
8
0
62
1
10
3256,8
20
-731,54
30
0
11
3254,84
21
-741,141
31
0
0
ARC
8
0
62
1
10
3256,8
20
-741,54
30
0
40
2
50
168,466
51
270
0
LINE
8
0
62
1
10
3256,8
20
-743,54
30
0
11
3265,3
21
-743,54
31
0
0
LINE
8
0
62
1
10
3265,3
20
-743,54
30
0
11
3265,3
21
-705,54
31
0
0
LINE
8
0
62
1
10
3265,3
20
-705,54
30
0
11
3248,3
21
-705,54
31
0
0
LINE
8
0
62
1
10
3248,3
20
-705,54
30
0
11
3248,3
21
-743,54
31
0
0
LINE
8
0
62
1
10
3248,3
20
-743,54
30
0
11
3256,8
21
-743,54
31
0
0
LINE
8
0
6
HIDDEN
62
1
10
3256,8
20
-743,54
30
0
11
3891,8
21
-179,04
31
0
0
LINE
8
0
62
1
10
3891,8
20
-179,04
30
0
11
3889,84
21
-188,64
31
0
0
ARC
8
0
62
1
10
3891,8
20
-189,04
30
0
40
2
50
168,465
51
270
0
LINE
8
0
62
1
10
3891,8
20
-191,04
30
0
11
3900,3
21
-191,04
31
0
0
LINE
8
0
62
1
10
3900,3
20
-191,04
30
0
11
3900,3
21
-153,04
31
0
0
LINE
8
0
62
1
10
3900,3
20
-153,04
30
0
11
3883,3
21
-153,04
31
0
0
LINE
8
0
62
1
10
3883,3
20
-153,04
30
0
11
3883,3
21
-191,04
31
0
0
LINE
8
0
62
1
10
3883,3
20
-191,04
30
0
11
3891,8
21
-191,04
31
0
0
LINE
8
0
6
HIDDEN
62
1
10
3891,8
20
-191,04
30
0
11
3743,8
21
-204,54
31
0
0
LINE
8
0
62
1
10
3743,8
20
-204,54
30
0
11
3734,199
21
-202,581
31
0
0
ARC
8
0
62
1
10
3733,8
20
-204,54
30
0
40
2
50
78,468
51
180
0
LINE
8
0
62
1
10
3731,8
20
-204,54
30
0
11
3731,8
21
-219,54
31
0
0
ARC
8
0
62
1
10
3746,8
20
-219,54
30
0
40
15
50
180
51
270
0
LINE
8
0
62
1
10
3746,8
20
-234,54
30
0
11
3796,8
21
-234,54
31
0
0
ARC
8
0
62
1
10
3796,8
20
-219,54
30
0
40
15
50
-90
51
0
0
LINE
8
0
62
1
10
3811,8
20
-219,54
30
0
11
3811,8
21
-189,54
31
0
0
ARC
8
0
62
1
10
3796,8
20
-189,54
30
0
40
15
50
0
51
90
0
LINE
8
0
62
1
10
3796,8
20
-174,54
30
0
11
3746,8
21
-174,54
31
0
0
ARC
8
0
62
1
10
3746,8
20
-189,54
30
0
40
15
50
90
51
180
0
LINE
8
0
62
1
10
3731,8
20
-189,54
30
0
11
3731,8
21
-204,54
31
0
0
LINE
8
0
6
HIDDEN
62
1
10
3731,8
20
-204,54
30
0
11
3241,8
21
-179,04
31
0
0
LINE
8
0
62
1
10
3241,8
20
-179,04
30
0
11
3239,84
21
-188,64
31
0
0
ARC
8
0
62
1
10
3241,8
20
-189,04
30
0
40
2
50
168,465
51
270
0
LINE
8
0
62
1
10
3241,8
20
-191,04
30
0
11
3250,3
21
-191,04
31
0
0
LINE
8
0
62
1
10
3250,3
20
-191,04
30
0
11
3250,3
21
-153,04
31
0
0
LINE
8
0
62
1
10
3250,3
20
-153,04
30
0
11
3233,3
21
-153,04
31
0
0
LINE
8
0
62
1
10
3233,3
20
-153,04
30
0
11
3233,3
21
-191,04
31
0
0
LINE
8
0
62
1
10
3233,3
20
-191,04
30
0
11
3241,8
21
-191,04
31
0
0
LINE
8
0
6
HIDDEN
62
1
10
3241,8
20
-191,04
30
0
11
3256,8
21
-271,541
31
0
0
LINE
8
0
62
1
10
3256,8
20
-271,541
30
0
11
3254,84
21
-281,141
31
0
0
ARC
8
0
62
1
10
3256,8
20
-281,541
30
0
40
2
50
168,465
51
270
0
LINE
8
0
62
1
10
3256,8
20
-283,541
30
0
11
3265,3
21
-283,541
31
0
0
LINE
8
0
62
1
10
3265,3
20
-283,541
30
0
11
3265,3
21
-245,54
31
0
0
LINE
8
0
62
1
10
3265,3
20
-245,54
30
0
11
3248,3
21
-245,54
31
0
0
LINE
8
0
62
1
10
3248,3
20
-245,54
30
0
11
3248,3
21
-283,541
31
0
0
LINE
8
0
62
1
10
3248,3
20
-283,541
30
0
11
3256,8
21
-283,541
31
0
0
LINE
8
0
6
HIDDEN
62
1
10
3256,8
20
-283,541
30
0
11
3456,8
21
-483,541
31
0
0
LINE
8
0
62
1
10
3456,8
20
-483,541
30
0
11
3464,26
21
-485,34
31
0
0
ARC
8
0
62
1
10
3464,629
20
-483,81
30
0
40
1,574
50
256,409
51
357,811
0
LINE
8
0
6
HIDDEN
62
1
10
3466,199
20
-483,87
30
0
11
3676,8
21
-483,541
31
0
0
LINE
8
0
62
1
10
3676,8
20
-483,541
30
0
11
3679,409
21
-490,75
31
0
0
ARC
8
0
62
1
10
3680,879
20
-490,221
30
0
40
1,562
50
199,826
51
301,466
0
LINE
8
0
6
HIDDEN
62
1
10
3681,699
20
-491,56
30
0
11
3891,8
21
-824,04
31
0
0
LINE
8
0
62
1
10
3891,8
20
-824,04
30
0
11
3889,84
21
-833,641
31
0
0
ARC
8
0
62
1
10
3891,8
20
-834,04
30
0
40
2
50
168,466
51
270
0
LINE
8
0
62
1
10
3891,8
20
-836,04
30
0
11
3900,3
21
-836,04
31
0
0
LINE
8
0
62
1
10
3900,3
20
-836,04
30
0
11
3900,3
21
-798,04
31
0
0
LINE
8
0
62
1
10
3900,3
20
-798,04
30
0
11
3883,3
21
-798,04
31
0
0
LINE
8
0
62
1
10
3883,3
20
-798,04
30
0
11
3883,3
21
-836,04
31
0
0
LINE
8
0
62
1
10
3883,3
20
-836,04
30
0
11
3891,8
21
-836,04
31
0
0
LINE
8
0
6
HIDDEN
62
1
10
3891,8
20
-836,04
30
0
11
4041,54
21
-936,81
31
0
0
ARC
8
0
62
1
10
4031,8
20
-934,54
30
0
40
10,001
50
-13,12
51
90
0
LINE
8
0
62
1
10
4031,8
20
-924,54
30
0
11
3844,12
21
-924,54
31
0
0
ARC
8
0
62
1
10
3844,159
20
-944,6
30
0
40
20,06
50
90,113
51
149,907
0
LINE
8
0
62
1
10
3826,8
20
-934,54
30
0
11
3306,8
21
-934,54
31
0
0
ARC
8
0
62
1
10
3289,449
20
-944,6
30
0
40
20,055
50
30,106
51
89,914
0
LINE
8
0
62
1
10
3289,479
20
-924,54
30
0
11
3081,8
21
-924,54
31
0
0
LINE
8
0
62
1
10
3081,8
20
-924,54
30
0
11
3081,8
21
-889,54
31
0
0
ARC
8
0
62
1
10
3101,8
20
-889,54
30
0
40
20
50
90
51
180
0
LINE
8
0
62
1
10
3101,8
20
-869,54
30
0
11
3133,52
21
-869,54
31
0
0
ARC
8
0
62
1
10
3133,469
20
-849,42
30
0
40
20,12
50
270,142
51
314,858
0
LINE
8
0
62
1
10
3147,659
20
-863,68
30
0
11
3200,949
21
-810,391
31
0
0
ARC
8
0
62
1
10
3186,689
20
-796,201
30
0
40
20,117
50
315,14
51
359,857
0
LINE
8
0
62
1
10
3206,8
20
-796,25
30
0
11
3206,8
21
-94,541
31
0
0
LINE
8
0
62
1
10
3206,8
20
-94,541
30
0
11
3286,8
21
-94,541
31
0
0
LINE
8
0
62
1
10
3286,8
20
-94,541
30
0
11
3286,8
21
-74,541
31
0
0
LINE
8
0
62
1
10
3286,8
20
-74,541
30
0
11
3846,8
21
-74,541
31
0
0
LINE
8
0
62
1
10
3846,8
20
-74,541
30
0
11
3846,8
21
-94,541
31
0
0
LINE
8
0
62
1
10
3846,8
20
-94,541
30
0
11
3926,8
21
-94,541
31
0
0
LINE
8
0
62
1
10
3926,8
20
-94,541
30
0
11
3926,8
21
-796,25
31
0
0
ARC
8
0
62
1
10
3946,919
20
-796,201
30
0
40
20,119
50
180,142
51
224,859
0
LINE
8
0
62
1
10
3932,659
20
-810,391
30
0
11
3985,949
21
-863,68
31
0
0
ARC
8
0
62
1
10
4000,129
20
-849,42
30
0
40
20,11
50
225,161
51
269,886
0
LINE
8
0
62
1
10
4000,09
20
-869,54
30
0
11
4011,8
21
-869,54
31
0
0
ARC
8
0
62
1
10
4011,8
20
-889,54
30
0
40
20
50
0
51
90
0
LINE
8
0
62
1
10
4031,8
20
-889,54
30
0
11
4031,8
21
-924,54
31
0
0
LINE
8
0
62
1
10
4031,8
20
-924,54
30
0
11
4037,459
21
-930,191
31
0
0
LINE
8
0
6
HIDDEN
62
1
10
4037,459
20
-930,191
30
0
11
4025,489
21
-2052,5
31
0
0
LINE
8
0
62
1
10
4025,489
20
-2052,5
30
0
11
4035,09
21
-2054,46
31
0
0
ARC
8
0
62
1
10
4035,489
20
-2052,5
30
0
40
2
50
-101,533
51
0
0
LINE
8
0
62
1
10
4037,489
20
-2052,5
30
0
11
4037,489
21
-2048,5
31
0
0
LINE
8
0
62
1
10
4037,489
20
-2048,5
30
0
11
3995,489
21
-2048,5
31
0
0
LINE
8
0
62
1
10
3995,489
20
-2048,5
30
0
11
3995,489
21
-2056,5
31
0
0
LINE
8
0
62
1
10
3995,489
20
-2056,5
30
0
11
4037,489
21
-2056,5
31
0
0
LINE
8
0
62
1
10
4037,489
20
-2056,5
30
0
11
4037,489
21
-2052,5
31
0
0
LINE
8
0
6
HIDDEN
62
1
10
4037,489
20
-2052,5
30
0
11
4124,24
21
-1980
31
0
0
LINE
8
0
62
1
10
4124,24
20
-1980
30
0
11
4122,279
21
-1989,6
31
0
0
ARC
8
0
62
1
10
4124,24
20
-1990
30
0
40
2
50
168,467
51
270
0
LINE
8
0
62
1
10
4124,24
20
-1992
30
0
11
4132,74
21
-1992
31
0
0
LINE
8
0
62
1
10
4132,74
20
-1992
30
0
11
4132,74
21
-1954
31
0
0
LINE
8
0
62
1
10
4132,74
20
-1954
30
0
11
4115,74
21
-1954
31
0
0
LINE
8
0
62
1
10
4115,74
20
-1954
30
0
11
4115,74
21
-1992
31
0
0
LINE
8
0
62
1
10
4115,74
20
-1992
30
0
11
4124,24
21
-1992
31
0
0
LINE
8
0
6
HIDDEN
62
1
10
4124,24
20
-1992
30
0
11
4090,219
21
-1980
31
0
0
LINE
8
0
62
1
10
4090,219
20
-1980
30
0
11
4088,26
21
-1989,6
31
0
0
ARC
8
0
62
1
10
4090,219
20
-1990
30
0
40
2
50
168,464
51
270
0
LINE
8
0
62
1
10
4090,219
20
-1992
30
0
11
4098,72
21
-1992
31
0
0
LINE
8
0
62
1
10
4098,72
20
-1992
30
0
11
4098,72
21
-1954
31
0
0
LINE
8
0
62
1
10
4098,72
20
-1954
30
0
11
4081,719
21
-1954
31
0
0
LINE
8
0
62
1
10
4081,719
20
-1954
30
0
11
4081,719
21
-1992
31
0
0
LINE
8
0
62
1
10
4081,719
20
-1992
30
0
11
4090,219
21
-1992
31
0
0
LINE
8
0
6
HIDDEN
62
1
10
4090,219
20
-1992
30
0
11
4090,219
21
-1435
31
0
0
LINE
8
0
62
1
10
4090,219
20
-1435
30
0
11
4088,26
21
-1444,6
31
0
0
ARC
8
0
62
1
10
4090,219
20
-1445
30
0
40
2
50
168,464
51
270
0
LINE
8
0
62
1
10
4090,219
20
-1447
30
0
11
4098,72
21
-1447
31
0
0
LINE
8
0
62
1
10
4098,72
20
-1447
30
0
11
4098,72
21
-1409
31
0
0
LINE
8
0
62
1
10
4098,72
20
-1409
30
0
11
4081,719
21
-1409
31
0
0
LINE
8
0
62
1
10
4081,719
20
-1409
30
0
11
4081,719
21
-1447
31
0
0
LINE
8
0
62
1
10
4081,719
20
-1447
30
0
11
4090,219
21
-1447
31
0
0
LINE
8
0
6
HIDDEN
62
1
10
4090,219
20
-1447
30
0
11
4124,24
21
-1435
31
0
0
LINE
8
0
62
1
10
4124,24
20
-1435
30
0
11
4122,279
21
-1444,6
31
0
0
ARC
8
0
62
1
10
4124,24
20
-1445
30
0
40
2
50
168,467
51
270
0
LINE
8
0
62
1
10
4124,24
20
-1447
30
0
11
4132,74
21
-1447
31
0
0
LINE
8
0
62
1
10
4132,74
20
-1447
30
0
11
4132,74
21
-1409
31
0
0
LINE
8
0
62
1
10
4132,74
20
-1409
30
0
11
4115,74
21
-1409
31
0
0
LINE
8
0
62
1
10
4115,74
20
-1409
30
0
11
4115,74
21
-1447
31
0
0
LINE
8
0
62
1
10
4115,74
20
-1447
30
0
11
4124,24
21
-1447
31
0
0
LINE
8
0
6
HIDDEN
62
1
10
4124,24
20
-1447
30
0
11
4237,359
21
-1443,381
31
0
0
LINE
8
0
62
1
10
4237,359
20
-1443,381
30
0
11
4245,529
21
-1437,98
31
0
0
ARC
8
0
62
1
10
4244,43
20
-1436,311
30
0
40
1,999
50
-56,636
51
45,21
0
ARC
8
0
62
1
10
4235,24
20
-1445,5
30
0
40
14,997
50
45,028
51
90
0
LINE
8
0
62
1
10
4235,24
20
-1430,5
30
0
11
4185,24
21
-1430,5
31
0
0
ARC
8
0
62
1
10
4185,24
20
-1445,5
30
0
40
15
50
90
51
180
0
LINE
8
0
62
1
10
4170,24
20
-1445,5
30
0
11
4170,24
21
-1475,5
31
0
0
ARC
8
0
62
1
10
4185,24
20
-1475,5
30
0
40
15
50
180
51
270
0
LINE
8
0
62
1
10
4185,24
20
-1490,5
30
0
11
4235,24
21
-1490,5
31
0
0
ARC
8
0
62
1
10
4235,24
20
-1475,5
30
0
40
15
50
-90
51
0
0
LINE
8
0
62
1
10
4250,24
20
-1475,5
30
0
11
4250,24
21
-1445,5
31
0
0
ARC
8
0
62
1
10
4235,24
20
-1445,5
30
0
40
15
50
0
51
45,028
0
LINE
8
0
6
HIDDEN
62
1
10
4245,839
20
-1434,891
30
0
11
4702,74
21
-1428
31
0
0
LINE
8
0
62
1
10
4702,74
20
-1428
30
0
11
4712,339
21
-1429,96
31
0
0
ARC
8
0
62
1
10
4712,74
20
-1428
30
0
40
2
50
-101,546
51
0
0
LINE
8
0
62
1
10
4714,74
20
-1428
30
0
11
4714,74
21
-1409
31
0
0
LINE
8
0
62
1
10
4714,74
20
-1409
30
0
11
4697,74
21
-1409
31
0
0
LINE
8
0
62
1
10
4697,74
20
-1409
30
0
11
4697,74
21
-1447
31
0
0
LINE
8
0
62
1
10
4697,74
20
-1447
30
0
11
4714,74
21
-1447
31
0
0
LINE
8
0
62
1
10
4714,74
20
-1447
30
0
11
4714,74
21
-1428
31
0
0
LINE
8
0
6
HIDDEN
62
1
10
4714,74
20
-1428
30
0
11
4740,24
21
-1473
31
0
0
LINE
8
0
62
1
10
4740,24
20
-1473
30
0
11
4738,279
21
-1482,6
31
0
0
ARC
8
0
62
1
10
4740,24
20
-1483
30
0
40
2
50
168,467
51
270
0
LINE
8
0
62
1
10
4740,24
20
-1485
30
0
11
4748,74
21
-1485
31
0
0
LINE
8
0
62
1
10
4748,74
20
-1485
30
0
11
4748,74
21
-1447
31
0
0
LINE
8
0
62
1
10
4748,74
20
-1447
30
0
11
4731,74
21
-1447
31
0
0
LINE
8
0
62
1
10
4731,74
20
-1447
30
0
11
4731,74
21
-1485
31
0
0
LINE
8
0
62
1
10
4731,74
20
-1485
30
0
11
4740,24
21
-1485
31
0
0
LINE
8
0
6
HIDDEN
62
1
10
4740,24
20
-1485
30
0
11
4740,24
21
-1942
31
0
0
LINE
8
0
62
1
10
4740,24
20
-1942
30
0
11
4738,279
21
-1951,6
31
0
0
ARC
8
0
62
1
10
4740,24
20
-1952
30
0
40
2
50
168,467
51
270
0
LINE
8
0
62
1
10
4740,24
20
-1954
30
0
11
4748,74
21
-1954
31
0
0
LINE
8
0
62
1
10
4748,74
20
-1954
30
0
11
4748,74
21
-1916
31
0
0
LINE
8
0
62
1
10
4748,74
20
-1916
30
0
11
4731,74
21
-1916
31
0
0
LINE
8
0
62
1
10
4731,74
20
-1916
30
0
11
4731,74
21
-1954
31
0
0
LINE
8
0
62
1
10
4731,74
20
-1954
30
0
11
4740,24
21
-1954
31
0
0
LINE
8
0
6
HIDDEN
62
1
10
4740,24
20
-1954
30
0
11
4706,24
21
-1980
31
0
0
LINE
8
0
62
1
10
4706,24
20
-1980
30
0
11
4704,279
21
-1989,6
31
0
0
ARC
8
0
62
1
10
4706,24
20
-1990
30
0
40
2
50
168,467
51
270
0
LINE
8
0
62
1
10
4706,24
20
-1992
30
0
11
4714,74
21
-1992
31
0
0
LINE
8
0
62
1
10
4714,74
20
-1992
30
0
11
4714,74
21
-1954
31
0
0
LINE
8
0
62
1
10
4714,74
20
-1954
30
0
11
4697,74
21
-1954
31
0
0
LINE
8
0
62
1
10
4697,74
20
-1954
30
0
11
4697,74
21
-1992
31
0
0
LINE
8
0
62
1
10
4697,74
20
-1992
30
0
11
4706,24
21
-1992
31
0
0
LINE
8
0
6
HIDDEN
62
1
10
4706,24
20
-1992
30
0
11
4798,24
21
-2052,5
31
0
0
LINE
8
0
62
1
10
4798,24
20
-2052,5
30
0
11
4807,839
21
-2054,46
31
0
0
ARC
8
0
62
1
10
4808,24
20
-2052,5
30
0
40
2
50
-101,546
51
0
0
LINE
8
0
62
1
10
4810,24
20
-2052,5
30
0
11
4810,24
21
-2048,5
31
0
0
LINE
8
0
62
1
10
4810,24
20
-2048,5
30
0
11
4773,24
21
-2048,5
31
0
0
LINE
8
0
62
1
10
4773,24
20
-2048,5
30
0
11
4773,24
21
-2056,5
31
0
0
LINE
8
0
62
1
10
4773,24
20
-2056,5
30
0
11
4810,24
21
-2056,5
31
0
0
LINE
8
0
62
1
10
4810,24
20
-2056,5
30
0
11
4810,24
21
-2052,5
31
0
0
LINE
8
0
6
HIDDEN
62
1
10
4810,24
20
-2052,5
30
0
11
4853,24
21
-2052,5
31
0
0
LINE
8
0
62
1
10
4853,24
20
-2052,5
30
0
11
4862,839
21
-2054,46
31
0
0
ARC
8
0
62
1
10
4863,24
20
-2052,5
30
0
40
2
50
-101,546
51
0
0
LINE
8
0
62
1
10
4865,24
20
-2052,5
30
0
11
4865,24
21
-2048,5
31
0
0
LINE
8
0
62
1
10
4865,24
20
-2048,5
30
0
11
4828,24
21
-2048,5
31
0
0
LINE
8
0
62
1
10
4828,24
20
-2048,5
30
0
11
4828,24
21
-2056,5
31
0
0
LINE
8
0
62
1
10
4828,24
20
-2056,5
30
0
11
4865,24
21
-2056,5
31
0
0
LINE
8
0
62
1
10
4865,24
20
-2056,5
30
0
11
4865,24
21
-2052,5
31
0
0
LINE
8
0
6
HIDDEN
62
1
10
4865,24
20
-2052,5
30
0
11
4915,24
21
-2080,5
31
0
0
LINE
8
0
62
1
10
4915,24
20
-2080,5
30
0
11
4900,24
21
-2080,5
31
0
0
LINE
8
0
62
1
10
4900,24
20
-2080,5
30
0
11
4692,56
21
-2080,5
31
0
0
ARC
8
0
62
1
10
4692,589
20
-2100,561
30
0
40
20,06
50
90,085
51
149,892
0
LINE
8
0
62
1
10
4675,24
20
-2090,5
30
0
11
4155,24
21
-2090,5
31
0
0
ARC
8
0
62
1
10
4137,879
20
-2100,561
30
0
40
20,064
50
30,091
51
89,885
0
LINE
8
0
62
1
10
4137,919
20
-2080,5
30
0
11
3950,239
21
-2080,5
31
0
0
LINE
8
0
62
1
10
3950,239
20
-2080,5
30
0
11
3950,239
21
-2045,5
31
0
0
ARC
8
0
62
1
10
3970,239
20
-2045,5
30
0
40
20
50
90
51
180
0
LINE
8
0
62
1
10
3970,239
20
-2025,5
30
0
11
3981,949
21
-2025,5
31
0
0
ARC
8
0
62
1
10
3981,909
20
-2005,391
30
0
40
20,11
50
270,114
51
314,859
0
LINE
8
0
62
1
10
3996,09
20
-2019,641
30
0
11
4049,379
21
-1966,36
31
0
0
ARC
8
0
62
1
10
4035,129
20
-1952,171
30
0
40
20,11
50
315,121
51
359,857
0
LINE
8
0
62
1
10
4055,239
20
-1952,22
30
0
11
4055,239
21
-1350,5
31
0
0
LINE
8
0
62
1
10
4055,239
20
-1350,5
30
0
11
4135,24
21
-1350,5
31
0
0
LINE
8
0
62
1
10
4135,24
20
-1350,5
30
0
11
4135,24
21
-1330,5
31
0
0
LINE
8
0
62
1
10
4135,24
20
-1330,5
30
0
11
4695,24
21
-1330,5
31
0
0
LINE
8
0
62
1
10
4695,24
20
-1330,5
30
0
11
4695,24
21
-1350,5
31
0
0
LINE
8
0
62
1
10
4695,24
20
-1350,5
30
0
11
4775,24
21
-1350,5
31
0
0
LINE
8
0
62
1
10
4775,24
20
-1350,5
30
0
11
4775,24
21
-1952,22
31
0
0
ARC
8
0
62
1
10
4795,35
20
-1952,171
30
0
40
20,109
50
180,142
51
224,858
0
LINE
8
0
62
1
10
4781,089
20
-1966,36
30
0
11
4834,379
21
-2019,641
31
0
0
ARC
8
0
62
1
10
4848,569
20
-2005,391
30
0
40
20,11
50
225,121
51
269,858
0
LINE
8
0
62
1
10
4848,52
20
-2025,5
30
0
11
4880,24
21
-2025,5
31
0
0
ARC
8
0
62
1
10
4880,24
20
-2045,5
30
0
40
20
50
0
51
90
0
LINE
8
0
62
1
10
4900,24
20
-2045,5
30
0
11
4900,24
21
-2080,5
31
0
0
LINE
8
0
62
1
10
4900,24
20
-2080,5
30
0
11
4900,24
21
-2088,5
31
0
0
LINE
8
0
6
HIDDEN
62
1
10
4900,24
20
-2088,5
30
0
11
4868,339
21
-1559,901
31
0
0
LINE
8
0
62
1
10
4868,339
20
-1559,901
30
0
11
4877,939
21
-1561,86
31
0
0
ARC
8
0
62
1
10
4878,339
20
-1559,901
30
0
40
2
50
-101,533
51
0
0
LINE
8
0
62
1
10
4880,339
20
-1559,901
30
0
11
4880,339
21
-1555,901
31
0
0
LINE
8
0
62
1
10
4880,339
20
-1555,901
30
0
11
4838,339
21
-1555,901
31
0
0
LINE
8
0
62
1
10
4838,339
20
-1555,901
30
0
11
4838,339
21
-1563,901
31
0
0
LINE
8
0
62
1
10
4838,339
20
-1563,901
30
0
11
4880,339
21
-1563,901
31
0
0
LINE
8
0
62
1
10
4880,339
20
-1563,901
30
0
11
4880,339
21
-1559,901
31
0
0
LINE
8
0
6
HIDDEN
62
1
10
4880,339
20
-1559,901
30
0
11
4933,089
21
-1473,401
31
0
0
LINE
8
0
62
1
10
4933,089
20
-1473,401
30
0
11
4935,049
21
-1463,801
31
0
0
ARC
8
0
62
1
10
4933,089
20
-1463,401
30
0
40
2
50
-11,536
51
90
0
LINE
8
0
62
1
10
4933,089
20
-1461,401
30
0
11
4924,589
21
-1461,401
31
0
0
LINE
8
0
62
1
10
4924,589
20
-1461,401
30
0
11
4924,589
21
-1499,401
31
0
0
LINE
8
0
62
1
10
4924,589
20
-1499,401
30
0
11
4941,589
21
-1499,401
31
0
0
LINE
8
0
62
1
10
4941,589
20
-1499,401
30
0
11
4941,589
21
-1461,401
31
0
0
LINE
8
0
62
1
10
4941,589
20
-1461,401
30
0
11
4933,089
21
-1461,401
31
0
0
LINE
8
0
6
HIDDEN
62
1
10
4933,089
20
-1461,401
30
0
11
4933,089
21
-942,401
31
0
0
LINE
8
0
62
1
10
4933,089
20
-942,401
30
0
11
4931,129
21
-952
31
0
0
ARC
8
0
62
1
10
4933,089
20
-952,401
30
0
40
2
50
168,464
51
270
0
LINE
8
0
62
1
10
4933,089
20
-954,401
30
0
11
4941,589
21
-954,401
31
0
0
LINE
8
0
62
1
10
4941,589
20
-954,401
30
0
11
4941,589
21
-916,401
31
0
0
LINE
8
0
62
1
10
4941,589
20
-916,401
30
0
11
4924,589
21
-916,401
31
0
0
LINE
8
0
62
1
10
4924,589
20
-916,401
30
0
11
4924,589
21
-954,401
31
0
0
LINE
8
0
62
1
10
4924,589
20
-954,401
30
0
11
4933,089
21
-954,401
31
0
0
LINE
8
0
6
HIDDEN
62
1
10
4933,089
20
-954,401
30
0
11
5080,209
21
-985,021
31
0
0
LINE
8
0
62
1
10
5080,209
20
-985,021
30
0
11
5085,62
21
-993,191
31
0
0
ARC
8
0
62
1
10
5087,29
20
-992,091
30
0
40
1,999
50
213,372
51
315,003
0
ARC
8
0
62
1
10
5078,089
20
-982,901
30
0
40
14,997
50
-44,972
51
0
0
LINE
8
0
62
1
10
5093,089
20
-982,901
30
0
11
5093,089
21
-952,901
31
0
0
ARC
8
0
62
1
10
5078,089
20
-952,901
30
0
40
15
50
0
51
90
0
LINE
8
0
62
1
10
5078,089
20
-937,901
30
0
11
5028,089
21
-937,901
31
0
0
ARC
8
0
62
1
10
5028,089
20
-952,901
30
0
40
15
50
90
51
180
0
LINE
8
0
62
1
10
5013,089
20
-952,901
30
0
11
5013,089
21
-982,901
31
0
0
ARC
8
0
62
1
10
5028,089
20
-982,901
30
0
40
15
50
180
51
270
0
LINE
8
0
62
1
10
5028,089
20
-997,901
30
0
11
5078,089
21
-997,901
31
0
0
ARC
8
0
62
1
10
5078,089
20
-982,901
30
0
40
15
50
270
51
315,028
0
LINE
8
0
6
HIDDEN
62
1
10
5088,7
20
-993,5
30
0
11
5583,089
21
-980,401
31
0
0
LINE
8
0
62
1
10
5583,089
20
-980,401
30
0
11
5581,129
21
-990
31
0
0
ARC
8
0
62
1
10
5583,089
20
-990,401
30
0
40
2
50
168,464
51
270
0
LINE
8
0
62
1
10
5583,089
20
-992,401
30
0
11
5591,589
21
-992,401
31
0
0
LINE
8
0
62
1
10
5591,589
20
-992,401
30
0
11
5591,589
21
-954,401
31
0
0
LINE
8
0
62
1
10
5591,589
20
-954,401
30
0
11
5574,589
21
-954,401
31
0
0
LINE
8
0
62
1
10
5574,589
20
-954,401
30
0
11
5574,589
21
-992,401
31
0
0
LINE
8
0
62
1
10
5574,589
20
-992,401
30
0
11
5583,089
21
-992,401
31
0
0
LINE
8
0
6
HIDDEN
62
1
10
5583,089
20
-992,401
30
0
11
5568,089
21
-1034,901
31
0
0
LINE
8
0
62
1
10
5568,089
20
-1034,901
30
0
11
5566,129
21
-1044,5
31
0
0
ARC
8
0
62
1
10
5568,089
20
-1044,901
30
0
40
2
50
168,464
51
270
0
LINE
8
0
62
1
10
5568,089
20
-1046,901
30
0
11
5576,589
21
-1046,901
31
0
0
LINE
8
0
62
1
10
5576,589
20
-1046,901
30
0
11
5576,589
21
-1008,901
31
0
0
LINE
8
0
62
1
10
5576,589
20
-1008,901
30
0
11
5559,589
21
-1008,901
31
0
0
LINE
8
0
62
1
10
5559,589
20
-1008,901
30
0
11
5559,589
21
-1046,901
31
0
0
LINE
8
0
62
1
10
5559,589
20
-1046,901
30
0
11
5568,089
21
-1046,901
31
0
0
LINE
8
0
6
HIDDEN
62
1
10
5568,089
20
-1046,901
30
0
11
5568,089
21
-1394,901
31
0
0
LINE
8
0
62
1
10
5568,089
20
-1394,901
30
0
11
5566,129
21
-1404,5
31
0
0
ARC
8
0
62
1
10
5568,089
20
-1404,901
30
0
40
2
50
168,464
51
270
0
LINE
8
0
62
1
10
5568,089
20
-1406,901
30
0
11
5576,589
21
-1406,901
31
0
0
LINE
8
0
62
1
10
5576,589
20
-1406,901
30
0
11
5576,589
21
-1368,901
31
0
0
LINE
8
0
62
1
10
5576,589
20
-1368,901
30
0
11
5559,589
21
-1368,901
31
0
0
LINE
8
0
62
1
10
5559,589
20
-1368,901
30
0
11
5559,589
21
-1406,901
31
0
0
LINE
8
0
62
1
10
5559,589
20
-1406,901
30
0
11
5568,089
21
-1406,901
31
0
0
LINE
8
0
6
HIDDEN
62
1
10
5568,089
20
-1406,901
30
0
11
5583,089
21
-1449,401
31
0
0
LINE
8
0
62
1
10
5583,089
20
-1449,401
30
0
11
5581,129
21
-1459
31
0
0
ARC
8
0
62
1
10
5583,089
20
-1459,401
30
0
40
2
50
168,464
51
270
0
LINE
8
0
62
1
10
5583,089
20
-1461,401
30
0
11
5591,589
21
-1461,401
31
0
0
LINE
8
0
62
1
10
5591,589
20
-1461,401
30
0
11
5591,589
21
-1423,401
31
0
0
LINE
8
0
62
1
10
5591,589
20
-1423,401
30
0
11
5574,589
21
-1423,401
31
0
0
LINE
8
0
62
1
10
5574,589
20
-1423,401
30
0
11
5574,589
21
-1461,401
31
0
0
LINE
8
0
62
1
10
5574,589
20
-1461,401
30
0
11
5583,089
21
-1461,401
31
0
0
LINE
8
0
6
HIDDEN
62
1
10
5583,089
20
-1461,401
30
0
11
5641,089
21
-1559,901
31
0
0
LINE
8
0
62
1
10
5641,089
20
-1559,901
30
0
11
5650,689
21
-1561,86
31
0
0
ARC
8
0
62
1
10
5651,089
20
-1559,901
30
0
40
2
50
-101,533
51
0
0
LINE
8
0
62
1
10
5653,089
20
-1559,901
30
0
11
5653,089
21
-1555,901
31
0
0
LINE
8
0
62
1
10
5653,089
20
-1555,901
30
0
11
5616,089
21
-1555,901
31
0
0
LINE
8
0
62
1
10
5616,089
20
-1555,901
30
0
11
5616,089
21
-1563,901
31
0
0
LINE
8
0
62
1
10
5616,089
20
-1563,901
30
0
11
5653,089
21
-1563,901
31
0
0
LINE
8
0
62
1
10
5653,089
20
-1563,901
30
0
11
5653,089
21
-1559,901
31
0
0
LINE
8
0
6
HIDDEN
62
1
10
5653,089
20
-1559,901
30
0
11
5696,089
21
-1559,901
31
0
0
LINE
8
0
62
1
10
5696,089
20
-1559,901
30
0
11
5705,689
21
-1561,86
31
0
0
ARC
8
0
62
1
10
5706,089
20
-1559,901
30
0
40
2
50
-101,533
51
0
0
LINE
8
0
62
1
10
5708,089
20
-1559,901
30
0
11
5708,089
21
-1555,901
31
0
0
LINE
8
0
62
1
10
5708,089
20
-1555,901
30
0
11
5671,089
21
-1555,901
31
0
0
LINE
8
0
62
1
10
5671,089
20
-1555,901
30
0
11
5671,089
21
-1563,901
31
0
0
LINE
8
0
62
1
10
5671,089
20
-1563,901
30
0
11
5708,089
21
-1563,901
31
0
0
LINE
8
0
62
1
10
5708,089
20
-1563,901
30
0
11
5708,089
21
-1559,901
31
0
0
LINE
8
0
6
HIDDEN
62
1
10
5708,089
20
-1559,901
30
0
11
5758,089
21
-1587,901
31
0
0
LINE
8
0
62
1
10
5758,089
20
-1587,901
30
0
11
5743,089
21
-1587,901
31
0
0
LINE
8
0
62
1
10
5743,089
20
-1587,901
30
0
11
5535,41
21
-1587,901
31
0
0
ARC
8
0
62
1
10
5535,45
20
-1607,96
30
0
40
20,059
50
90,114
51
149,908
0
LINE
8
0
62
1
10
5518,089
20
-1597,901
30
0
11
4998,089
21
-1597,901
31
0
0
ARC
8
0
62
1
10
4980,74
20
-1607,96
30
0
40
20,055
50
30,106
51
89,914
0
LINE
8
0
62
1
10
4980,77
20
-1587,901
30
0
11
4793,089
21
-1587,901
31
0
0
LINE
8
0
62
1
10
4793,089
20
-1587,901
30
0
11
4793,089
21
-1552,901
31
0
0
ARC
8
0
62
1
10
4813,089
20
-1552,901
30
0
40
20
50
90
51
180
0
LINE
8
0
62
1
10
4813,089
20
-1532,901
30
0
11
4824,81
21
-1532,901
31
0
0
ARC
8
0
62
1
10
4824,759
20
-1512,791
30
0
40
20,11
50
270,143
51
314,88
0
LINE
8
0
62
1
10
4838,95
20
-1527,041
30
0
11
4892,24
21
-1473,761
31
0
0
ARC
8
0
62
1
10
4877,979
20
-1459,57
30
0
40
20,117
50
315,141
51
359,885
0
LINE
8
0
62
1
10
4898,089
20
-1459,61
30
0
11
4898,089
21
-857,901
31
0
0
LINE
8
0
62
1
10
4898,089
20
-857,901
30
0
11
4978,089
21
-857,901
31
0
0
LINE
8
0
62
1
10
4978,089
20
-857,901
30
0
11
4978,089
21
-837,901
31
0
0
LINE
8
0
62
1
10
4978,089
20
-837,901
30
0
11
5538,089
21
-837,901
31
0
0
LINE
8
0
62
1
10
5538,089
20
-837,901
30
0
11
5538,089
21
-857,901
31
0
0
LINE
8
0
62
1
10
5538,089
20
-857,901
30
0
11
5618,089
21
-857,901
31
0
0
LINE
8
0
62
1
10
5618,089
20
-857,901
30
0
11
5618,089
21
-1459,61
31
0
0
ARC
8
0
62
1
10
5638,2
20
-1459,57
30
0
40
20,11
50
180,114
51
224,879
0
LINE
8
0
62
1
10
5623,95
20
-1473,761
30
0
11
5677,24
21
-1527,041
31
0
0
ARC
8
0
62
1
10
5691,419
20
-1512,791
30
0
40
20,102
50
225,141
51
269,885
0
LINE
8
0
62
1
10
5691,379
20
-1532,901
30
0
11
5723,089
21
-1532,901
31
0
0
ARC
8
0
62
1
10
5723,089
20
-1552,901
30
0
40
20
50
0
51
90
0
LINE
8
0
62
1
10
5743,089
20
-1552,901
30
0
11
5743,089
21
-1587,901
31
0
0
LINE
8
0
62
1
10
5743,089
20
-1587,901
30
0
11
5743,089
21
-1595,901
31
0
0
LINE
8
0
6
HIDDEN
62
1
10
5743,089
20
-1595,901
30
0
11
4668,129
21
-1173,82
31
0
0
LINE
8
0
62
1
10
4668,129
20
-1173,82
30
0
11
4673,54
21
-1181,99
31
0
0
ARC
8
0
62
1
10
4675,2
20
-1180,891
30
0
40
1,991
50
213,527
51
314,997
0
ARC
8
0
62
1
10
4648,33
20
-1154,021
30
0
40
40,008
50
-45,001
51
0
0
LINE
8
0
62
1
10
4688,33
20
-1154,021
30
0
11
4688,33
21
-974,021
31
0
0
ARC
8
0
62
1
10
4648,33
20
-974,021
30
0
40
40
50
0
51
90
0
LINE
8
0
62
1
10
4648,33
20
-934,021
30
0
11
4298,33
21
-934,021
31
0
0
ARC
8
0
62
1
10
4298,33
20
-974,021
30
0
40
40
50
90
51
180
0
LINE
8
0
62
1
10
4258,33
20
-974,021
30
0
11
4258,33
21
-1154,021
31
0
0
ARC
8
0
62
1
10
4298,33
20
-1154,021
30
0
40
40
50
180
51
270
0
LINE
8
0
62
1
10
4298,33
20
-1194,021
30
0
11
4648,33
21
-1194,021
31
0
0
ARC
8
0
62
1
10
4648,33
20
-1154,021
30
0
40
40
50
270
51
315
0
LINE
8
0
6
HIDDEN
62
1
10
4676,62
20
-1182,311
30
0
11
4833,33
21
-1314,021
31
0
0
LINE
8
0
62
1
10
4833,33
20
-1314,021
30
0
11
4818,33
21
-1314,021
31
0
0
LINE
8
0
62
1
10
4818,33
20
-1314,021
30
0
11
4049,33
21
-1314,021
31
0
0
LINE
8
0
62
1
10
4049,33
20
-1314,021
30
0
11
4049,33
21
-814,021
31
0
0
LINE
8
0
62
1
10
4049,33
20
-814,021
30
0
11
4818,33
21
-814,021
31
0
0
LINE
8
0
62
1
10
4818,33
20
-814,021
30
0
11
4818,33
21
-1314,021
31
0
0
LINE
8
0
62
1
10
4818,33
20
-1314,021
30
0
11
4818,33
21
-1322,021
31
0
0
LINE
8
0
6
HIDDEN
62
1
10
4818,33
20
-1322,021
30
0
11
5531,009
21
-152,12
31
0
0
LINE
8
0
62
1
10
5531,009
20
-152,12
30
0
11
5529,049
21
-161,721
31
0
0
ARC
8
0
62
1
10
5531,009
20
-162,12
30
0
40
2
50
168,465
51
270
0
LINE
8
0
62
1
10
5531,009
20
-164,12
30
0
11
5539,509
21
-164,12
31
0
0
LINE
8
0
62
1
10
5539,509
20
-164,12
30
0
11
5539,509
21
-126,121
31
0
0
LINE
8
0
62
1
10
5539,509
20
-126,121
30
0
11
5522,509
21
-126,121
31
0
0
LINE
8
0
62
1
10
5522,509
20
-126,121
30
0
11
5522,509
21
-164,12
31
0
0
LINE
8
0
62
1
10
5522,509
20
-164,12
30
0
11
5531,009
21
-164,12
31
0
0
LINE
8
0
6
HIDDEN
62
1
10
5531,009
20
-164,12
30
0
11
5516,009
21
-244,62
31
0
0
LINE
8
0
62
1
10
5516,009
20
-244,62
30
0
11
5514,049
21
-254,221
31
0
0
ARC
8
0
62
1
10
5516,009
20
-254,62
30
0
40
2
50
168,465
51
270
0
LINE
8
0
62
1
10
5516,009
20
-256,62
30
0
11
5524,509
21
-256,62
31
0
0
LINE
8
0
62
1
10
5524,509
20
-256,62
30
0
11
5524,509
21
-218,62
31
0
0
LINE
8
0
62
1
10
5524,509
20
-218,62
30
0
11
5507,509
21
-218,62
31
0
0
LINE
8
0
62
1
10
5507,509
20
-218,62
30
0
11
5507,509
21
-256,62
31
0
0
LINE
8
0
62
1
10
5507,509
20
-256,62
30
0
11
5516,009
21
-256,62
31
0
0
LINE
8
0
6
HIDDEN
62
1
10
5516,009
20
-256,62
30
0
11
4881,009
21
-683,12
31
0
0
LINE
8
0
62
1
10
4881,009
20
-683,12
30
0
11
4882,97
21
-673,521
31
0
0
ARC
8
0
62
1
10
4881,009
20
-673,12
30
0
40
2
50
-11,533
51
90
0
LINE
8
0
62
1
10
4881,009
20
-671,12
30
0
11
4872,509
21
-671,12
31
0
0
LINE
8
0
62
1
10
4872,509
20
-671,12
30
0
11
4872,509
21
-709,12
31
0
0
LINE
8
0
62
1
10
4872,509
20
-709,12
30
0
11
4889,509
21
-709,12
31
0
0
LINE
8
0
62
1
10
4889,509
20
-709,12
30
0
11
4889,509
21
-671,12
31
0
0
LINE
8
0
62
1
10
4889,509
20
-671,12
30
0
11
4881,009
21
-671,12
31
0
0
LINE
8
0
6
HIDDEN
62
1
10
4881,009
20
-671,12
30
0
11
4881,009
21
-152,12
31
0
0
LINE
8
0
62
1
10
4881,009
20
-152,12
30
0
11
4879,049
21
-161,721
31
0
0
ARC
8
0
62
1
10
4881,009
20
-162,12
30
0
40
2
50
168,465
51
270
0
LINE
8
0
62
1
10
4881,009
20
-164,12
30
0
11
4889,509
21
-164,12
31
0
0
LINE
8
0
62
1
10
4889,509
20
-164,12
30
0
11
4889,509
21
-126,121
31
0
0
LINE
8
0
62
1
10
4889,509
20
-126,121
30
0
11
4872,509
21
-126,121
31
0
0
LINE
8
0
62
1
10
4872,509
20
-126,121
30
0
11
4872,509
21
-164,12
31
0
0
LINE
8
0
62
1
10
4872,509
20
-164,12
30
0
11
4881,009
21
-164,12
31
0
0
LINE
8
0
6
HIDDEN
62
1
10
4881,009
20
-164,12
30
0
11
5028,129
21
-194,741
31
0
0
LINE
8
0
62
1
10
5028,129
20
-194,741
30
0
11
5033,529
21
-202,92
31
0
0
ARC
8
0
62
1
10
5035,2
20
-201,81
30
0
40
2,005
50
213,604
51
314,79
0
ARC
8
0
62
1
10
5026,009
20
-192,62
30
0
40
14,997
50
-45,027
51
0
0
LINE
8
0
62
1
10
5041,009
20
-192,62
30
0
11
5041,009
21
-162,62
31
0
0
ARC
8
0
62
1
10
5026,009
20
-162,62
30
0
40
15
50
0
51
90
0
LINE
8
0
62
1
10
5026,009
20
-147,62
30
0
11
4976,009
21
-147,62
31
0
0
ARC
8
0
62
1
10
4976,009
20
-162,62
30
0
40
15
50
90
51
180
0
LINE
8
0
62
1
10
4961,009
20
-162,62
30
0
11
4961,009
21
-192,62
31
0
0
ARC
8
0
62
1
10
4976,009
20
-192,62
30
0
40
15
50
180
51
270
0
LINE
8
0
62
1
10
4976,009
20
-207,62
30
0
11
5026,009
21
-207,62
31
0
0
ARC
8
0
62
1
10
5026,009
20
-192,62
30
0
40
15
50
270
51
314,973
0
LINE
8
0
6
HIDDEN
62
1
10
5036,609
20
-203,23
30
0
11
5096,029
21
-407,62
31
0
0
LINE
8
0
62
1
10
5096,029
20
-407,62
30
0
11
5105,41
21
-407,62
31
0
0
LINE
8
0
6
HIDDEN
62
1
10
5105,41
20
-407,62
30
0
11
5315,95
21
-407,62
31
0
0
LINE
8
0
62
1
10
5315,95
20
-407,62
30
0
11
5325,41
21
-407,62
31
0
0
LINE
8
0
6
HIDDEN
62
1
10
5325,41
20
-407,62
30
0
11
5516,009
21
-604,62
31
0
0
LINE
8
0
62
1
10
5516,009
20
-604,62
30
0
11
5514,049
21
-614,22
31
0
0
ARC
8
0
62
1
10
5516,009
20
-614,62
30
0
40
2
50
168,464
51
270
0
LINE
8
0
62
1
10
5516,009
20
-616,62
30
0
11
5524,509
21
-616,62
31
0
0
LINE
8
0
62
1
10
5524,509
20
-616,62
30
0
11
5524,509
21
-578,62
31
0
0
LINE
8
0
62
1
10
5524,509
20
-578,62
30
0
11
5507,509
21
-578,62
31
0
0
LINE
8
0
62
1
10
5507,509
20
-578,62
30
0
11
5507,509
21
-616,62
31
0
0
LINE
8
0
62
1
10
5507,509
20
-616,62
30
0
11
5516,009
21
-616,62
31
0
0
LINE
8
0
6
HIDDEN
62
1
10
5516,009
20
-616,62
30
0
11
5531,009
21
-697,12
31
0
0
LINE
8
0
62
1
10
5531,009
20
-697,12
30
0
11
5529,049
21
-706,72
31
0
0
ARC
8
0
62
1
10
5531,009
20
-707,12
30
0
40
2
50
168,464
51
270
0
LINE
8
0
62
1
10
5531,009
20
-709,12
30
0
11
5539,509
21
-709,12
31
0
0
LINE
8
0
62
1
10
5539,509
20
-709,12
30
0
11
5539,509
21
-671,12
31
0
0
LINE
8
0
62
1
10
5539,509
20
-671,12
30
0
11
5522,509
21
-671,12
31
0
0
LINE
8
0
62
1
10
5522,509
20
-671,12
30
0
11
5522,509
21
-709,12
31
0
0
LINE
8
0
62
1
10
5522,509
20
-709,12
30
0
11
5531,009
21
-709,12
31
0
0
LINE
8
0
6
HIDDEN
62
1
10
5531,009
20
-709,12
30
0
11
5706,009
21
-797,62
31
0
0
LINE
8
0
62
1
10
5706,009
20
-797,62
30
0
11
5691,009
21
-797,62
31
0
0
LINE
8
0
62
1
10
5691,009
20
-797,62
30
0
11
5483,33
21
-797,62
31
0
0
ARC
8
0
62
1
10
5483,359
20
-817,68
30
0
40
20,06
50
90,085
51
149,893
0
LINE
8
0
62
1
10
5466,009
20
-807,62
30
0
11
4946,009
21
-807,62
31
0
0
ARC
8
0
62
1
10
4928,649
20
-817,68
30
0
40
20,064
50
30,092
51
89,885
0
LINE
8
0
62
1
10
4928,689
20
-797,62
30
0
11
4741,009
21
-797,62
31
0
0
LINE
8
0
62
1
10
4741,009
20
-797,62
30
0
11
4741,009
21
-762,62
31
0
0
ARC
8
0
62
1
10
4761,009
20
-762,62
30
0
40
20
50
90
51
180
0
LINE
8
0
62
1
10
4761,009
20
-742,62
30
0
11
4772,72
21
-742,62
31
0
0
ARC
8
0
62
1
10
4772,68
20
-722,511
30
0
40
20,11
50
270,114
51
314,858
0
LINE
8
0
62
1
10
4786,859
20
-736,761
30
0
11
4840,149
21
-683,48
31
0
0
ARC
8
0
62
1
10
4825,89
20
-669,29
30
0
40
20,117
50
315,14
51
359,857
0
LINE
8
0
62
1
10
4846,009
20
-669,341
30
0
11
4846,009
21
-67,621
31
0
0
LINE
8
0
62
1
10
4846,009
20
-67,621
30
0
11
4926,009
21
-67,621
31
0
0
LINE
8
0
62
1
10
4926,009
20
-67,621
30
0
11
4926,009
21
-47,62
31
0
0
LINE
8
0
62
1
10
4926,009
20
-47,62
30
0
11
5486,009
21
-47,62
31
0
0
LINE
8
0
62
1
10
5486,009
20
-47,62
30
0
11
5486,009
21
-67,621
31
0
0
LINE
8
0
62
1
10
5486,009
20
-67,621
30
0
11
5566,009
21
-67,621
31
0
0
LINE
8
0
62
1
10
5566,009
20
-67,621
30
0
11
5566,009
21
-669,341
31
0
0
ARC
8
0
62
1
10
5586,12
20
-669,29
30
0
40
20,11
50
180,142
51
224,858
0
LINE
8
0
62
1
10
5571,859
20
-683,48
30
0
11
5625,149
21
-736,761
31
0
0
ARC
8
0
62
1
10
5639,339
20
-722,511
30
0
40
20,11
50
225,121
51
269,858
0
LINE
8
0
62
1
10
5639,29
20
-742,62
30
0
11
5671,009
21
-742,62
31
0
0
ARC
8
0
62
1
10
5671,009
20
-762,62
30
0
40
20
50
0
51
90
0
LINE
8
0
62
1
10
5691,009
20
-762,62
30
0
11
5691,009
21
-797,62
31
0
0
LINE
8
0
62
1
10
5691,009
20
-797,62
30
0
11
5691,009
21
-805,62
31
0
0
LINE
8
0
6
HIDDEN
62
1
10
5691,009
20
-805,62
30
0
11
4654,149
21
-138,42
31
0
0
LINE
8
0
62
1
10
4654,149
20
-138,42
30
0
11
4652,189
21
-148,021
31
0
0
ARC
8
0
62
1
10
4654,149
20
-148,42
30
0
40
2
50
168,465
51
270
0
LINE
8
0
62
1
10
4654,149
20
-150,42
30
0
11
4662,649
21
-150,42
31
0
0
LINE
8
0
62
1
10
4662,649
20
-150,42
30
0
11
4662,649
21
-112,42
31
0
0
LINE
8
0
62
1
10
4662,649
20
-112,42
30
0
11
4645,649
21
-112,42
31
0
0
LINE
8
0
62
1
10
4645,649
20
-112,42
30
0
11
4645,649
21
-150,42
31
0
0
LINE
8
0
62
1
10
4645,649
20
-150,42
30
0
11
4654,149
21
-150,42
31
0
0
LINE
8
0
6
HIDDEN
62
1
10
4654,149
20
-150,42
30
0
11
4072,149
21
-138,42
31
0
0
LINE
8
0
62
1
10
4072,149
20
-138,42
30
0
11
4070,189
21
-148,021
31
0
0
ARC
8
0
62
1
10
4072,149
20
-148,42
30
0
40
2
50
168,465
51
270
0
LINE
8
0
62
1
10
4072,149
20
-150,42
30
0
11
4080,649
21
-150,42
31
0
0
LINE
8
0
62
1
10
4080,649
20
-150,42
30
0
11
4080,649
21
-112,42
31
0
0
LINE
8
0
62
1
10
4080,649
20
-112,42
30
0
11
4063,649
21
-112,42
31
0
0
LINE
8
0
62
1
10
4063,649
20
-112,42
30
0
11
4063,649
21
-150,42
31
0
0
LINE
8
0
62
1
10
4063,649
20
-150,42
30
0
11
4072,149
21
-150,42
31
0
0
LINE
8
0
6
HIDDEN
62
1
10
4072,149
20
-150,42
30
0
11
4072,149
21
-683,42
31
0
0
LINE
8
0
62
1
10
4072,149
20
-683,42
30
0
11
4070,189
21
-693,021
31
0
0
ARC
8
0
62
1
10
4072,149
20
-693,42
30
0
40
2
50
168,466
51
270
0
LINE
8
0
62
1
10
4072,149
20
-695,42
30
0
11
4080,649
21
-695,42
31
0
0
LINE
8
0
62
1
10
4080,649
20
-695,42
30
0
11
4080,649
21
-657,42
31
0
0
LINE
8
0
62
1
10
4080,649
20
-657,42
30
0
11
4063,649
21
-657,42
31
0
0
LINE
8
0
62
1
10
4063,649
20
-657,42
30
0
11
4063,649
21
-695,42
31
0
0
LINE
8
0
62
1
10
4063,649
20
-695,42
30
0
11
4072,149
21
-695,42
31
0
0
LINE
8
0
6
HIDDEN
62
1
10
4072,149
20
-695,42
30
0
11
4138,149
21
-728,92
31
0
0
LINE
8
0
62
1
10
4138,149
20
-728,92
30
0
11
4128,75
21
-728,92
31
0
0
LINE
8
0
6
HIDDEN
62
1
10
4128,75
20
-728,92
30
0
11
4588,149
21
-728,92
31
0
0
LINE
8
0
62
1
10
4588,149
20
-728,92
30
0
11
4578,75
21
-728,92
31
0
0
LINE
8
0
6
HIDDEN
62
1
10
4578,75
20
-728,92
30
0
11
4595,27
21
-661,05
31
0
0
LINE
8
0
62
1
10
4595,27
20
-661,05
30
0
11
4600,669
21
-669,22
31
0
0
ARC
8
0
62
1
10
4602,339
20
-668,12
30
0
40
1,999
50
213,372
51
315,2
0
ARC
8
0
62
1
10
4593,149
20
-658,92
30
0
40
15,004
50
-45,001
51
0
0
LINE
8
0
62
1
10
4608,149
20
-658,92
30
0
11
4608,149
21
-628,92
31
0
0
ARC
8
0
62
1
10
4593,149
20
-628,92
30
0
40
15
50
0
51
90
0
LINE
8
0
62
1
10
4593,149
20
-613,92
30
0
11
4543,149
21
-613,92
31
0
0
ARC
8
0
62
1
10
4543,149
20
-628,92
30
0
40
15
50
90
51
180
0
LINE
8
0
62
1
10
4528,149
20
-628,92
30
0
11
4528,149
21
-658,92
31
0
0
ARC
8
0
62
1
10
4543,149
20
-658,92
30
0
40
15
50
180
51
270
0
LINE
8
0
62
1
10
4543,149
20
-673,92
30
0
11
4593,149
21
-673,92
31
0
0
ARC
8
0
62
1
10
4593,149
20
-658,92
30
0
40
15
50
270
51
314,999
0
LINE
8
0
6
HIDDEN
62
1
10
4603,759
20
-669,531
30
0
11
4654,149
21
-683,42
31
0
0
LINE
8
0
62
1
10
4654,149
20
-683,42
30
0
11
4652,189
21
-693,021
31
0
0
ARC
8
0
62
1
10
4654,149
20
-693,42
30
0
40
2
50
168,466
51
270
0
LINE
8
0
62
1
10
4654,149
20
-695,42
30
0
11
4662,649
21
-695,42
31
0
0
LINE
8
0
62
1
10
4662,649
20
-695,42
30
0
11
4662,649
21
-657,42
31
0
0
LINE
8
0
62
1
10
4662,649
20
-657,42
30
0
11
4645,649
21
-657,42
31
0
0
LINE
8
0
62
1
10
4645,649
20
-657,42
30
0
11
4645,649
21
-695,42
31
0
0
LINE
8
0
62
1
10
4645,649
20
-695,42
30
0
11
4654,149
21
-695,42
31
0
0
LINE
8
0
6
HIDDEN
62
1
10
4654,149
20
-695,42
30
0
11
4732,89
21
-766,201
31
0
0
ARC
8
0
62
1
10
4723,149
20
-763,92
30
0
40
10,003
50
-13,175
51
90
0
LINE
8
0
62
1
10
4723,149
20
-753,92
30
0
11
4643,149
21
-753,92
31
0
0
LINE
8
0
62
1
10
4643,149
20
-753,92
30
0
11
4643,149
21
-775,92
31
0
0
LINE
8
0
62
1
10
4643,149
20
-775,92
30
0
11
4083,149
21
-775,92
31
0
0
LINE
8
0
62
1
10
4083,149
20
-775,92
30
0
11
4083,149
21
-753,92
31
0
0
LINE
8
0
62
1
10
4083,149
20
-753,92
30
0
11
4003,149
21
-753,92
31
0
0
LINE
8
0
62
1
10
4003,149
20
-753,92
30
0
11
4003,149
21
-152,211
31
0
0
ARC
8
0
62
1
10
3983,04
20
-152,26
30
0
40
20,109
50
0,142
51
44,879
0
LINE
8
0
62
1
10
3997,29
20
-138,071
30
0
11
3944,01
21
-84,78
31
0
0
ARC
8
0
62
1
10
3929,82
20
-99,041
30
0
40
20,117
50
45,141
51
89,857
0
LINE
8
0
62
1
10
3929,87
20
-78,92
30
0
11
3898,149
21
-78,92
31
0
0
ARC
8
0
62
1
10
3898,149
20
-58,92
30
0
40
20
50
180
51
270
0
LINE
8
0
62
1
10
3878,149
20
-58,92
30
0
11
3878,149
21
-23,921
31
0
0
LINE
8
0
62
1
10
3878,149
20
-23,921
30
0
11
4085,83
21
-23,921
31
0
0
ARC
8
0
62
1
10
4085,79
20
-3,86
30
0
40
20,06
50
270,114
51
329,907
0
LINE
8
0
62
1
10
4103,149
20
-13,921
30
0
11
4623,149
21
-13,921
31
0
0
ARC
8
0
62
1
10
4640,509
20
-3,86
30
0
40
20,064
50
210,092
51
269,887
0
LINE
8
0
62
1
10
4640,47
20
-23,921
30
0
11
4828,149
21
-23,921
31
0
0
LINE
8
0
62
1
10
4828,149
20
-23,921
30
0
11
4828,149
21
-58,92
31
0
0
ARC
8
0
62
1
10
4808,149
20
-58,92
30
0
40
20
50
-90
51
0
0
LINE
8
0
62
1
10
4808,149
20
-78,92
30
0
11
4796,43
21
-78,92
31
0
0
ARC
8
0
62
1
10
4796,479
20
-99,041
30
0
40
20,12
50
90,141
51
134,858
0
LINE
8
0
62
1
10
4782,29
20
-84,78
30
0
11
4729,009
21
-138,071
31
0
0
ARC
8
0
62
1
10
4743,259
20
-152,26
30
0
40
20,11
50
135,12
51
179,857
0
LINE
8
0
62
1
10
4723,149
20
-152,211
30
0
11
4723,149
21
-753,92
31
0
0
LINE
8
0
62
1
10
4723,149
20
-753,92
30
0
11
4728,81
21
-759,581
31
0
0
LINE
8
0
6
HIDDEN
62
1
10
4728,81
20
-759,581
30
0
11
5269,37
21
-1987,37
31
0
0
LINE
8
0
62
1
10
5269,37
20
-1987,37
30
0
11
5274,77
21
-1995,541
31
0
0
ARC
8
0
62
1
10
5276,439
20
-1994,44
30
0
40
1,999
50
213,375
51
314,799
0
ARC
8
0
62
1
10
5242,5
20
-1960,5
30
0
40
49,999
50
-45,009
51
0
0
LINE
8
0
62
1
10
5292,5
20
-1960,5
30
0
11
5292,5
21
-1760,5
31
0
0
ARC
8
0
62
1
10
5242,5
20
-1760,5
30
0
40
50
50
0
51
90
0
LINE
8
0
62
1
10
5242,5
20
-1710,5
30
0
11
5097,5
21
-1710,5
31
0
0
ARC
8
0
62
1
10
5097,5
20
-1760,5
30
0
40
50
50
90
51
180
0
LINE
8
0
62
1
10
5047,5
20
-1760,5
30
0
11
5047,5
21
-1960,5
31
0
0
ARC
8
0
62
1
10
5097,5
20
-1960,5
30
0
40
50
50
180
51
270
0
LINE
8
0
62
1
10
5097,5
20
-2010,5
30
0
11
5242,5
21
-2010,5
31
0
0
ARC
8
0
62
1
10
5242,5
20
-1960,5
30
0
40
50
50
270
51
314,991
0
LINE
8
0
6
HIDDEN
62
1
10
5277,85
20
-1995,86
30
0
11
5789,5
21
-2080,5
31
0
0
LINE
8
0
62
1
10
5789,5
20
-2080,5
30
0
11
5774,5
21
-2080,5
31
0
0
LINE
8
0
62
1
10
5774,5
20
-2080,5
30
0
11
5722,5
21
-2080,5
31
0
0
ARC
8
0
62
1
10
5722,5
20
-2088,5
30
0
40
8
50
90
51
180
0
LINE
8
0
62
1
10
5714,5
20
-2088,5
30
0
11
5714,5
21
-2090,5
31
0
0
LINE
8
0
62
1
10
5714,5
20
-2090,5
30
0
11
4949,5
21
-2090,5
31
0
0
LINE
8
0
62
1
10
4949,5
20
-2090,5
30
0
11
4949,5
21
-2088,5
31
0
0
ARC
8
0
62
1
10
4941,5
20
-2088,5
30
0
40
8
50
0
51
90
0
LINE
8
0
62
1
10
4941,5
20
-2080,5
30
0
11
4924,5
21
-2080,5
31
0
0
LINE
8
0
62
1
10
4924,5
20
-2080,5
30
0
11
4924,5
21
-1613,5
31
0
0
LINE
8
0
62
1
10
4924,5
20
-1613,5
30
0
11
5774,5
21
-1613,5
31
0
0
LINE
8
0
62
1
10
5774,5
20
-1613,5
30
0
11
5774,5
21
-2080,5
31
0
0
LINE
8
0
62
1
10
5774,5
20
-2080,5
30
0
11
5774,5
21
-2088,5
31
0
0
ENDSEC
0
EOF
