999
NC Corrector for PPC by Strunov V.V.
0
SECTION
2
HEADER
9
$ACADVER
1
AC1006
9
$LIMMIN
10
0
20
-1999
9
$LIMMAX
10
5981,87
20
0
0
ENDSEC
0
SECTION
2
TABLES
0
TABLE
2
LTYPE
70
2
0
LTYPE
2
CONTINUOUS
70
64
3
Solid line
72
65
73
0
40
0.0
0
LTYPE
2
Hidden
70
64
3
__ __ __ __ __ __ __ __ __ __ __ __ __ __ __ __
72
65
73
2
40
8.
49
5.0
49
-3.0
0
ENDTAB
0
TABLE
2
LAYER
70
1
0
LAYER
2
0
70
0
62
0
6
CONTINUOUS
0
ENDTAB
0
ENDSEC
0
SECTION
2
ENTITIES
0
LINE
8
0
6
HIDDEN
62
1
10
0
20
0
30
0
11
133,5
21
-1991
31
0
0
LINE
8
0
62
1
10
133,5
20
-1991
30
0
11
121
21
-1991
31
0
0
LINE
8
0
62
1
10
121
20
-1991
30
0
11
9
21
-1991
31
0
0
LINE
8
0
62
1
10
9
20
-1991
30
0
11
9
21
-1191
31
0
0
LINE
8
0
62
1
10
9
20
-1191
30
0
11
121
21
-1191
31
0
0
LINE
8
0
62
1
10
121
20
-1191
30
0
11
121
21
-1228,5
31
0
0
LINE
8
0
62
1
10
121
20
-1228,5
30
0
11
106
21
-1228,5
31
0
0
LINE
8
0
62
1
10
106
20
-1228,5
30
0
11
106
21
-1278,5
31
0
0
LINE
8
0
62
1
10
106
20
-1278,5
30
0
11
121
21
-1278,5
31
0
0
LINE
8
0
62
1
10
121
20
-1278,5
30
0
11
121
21
-1903,5
31
0
0
LINE
8
0
62
1
10
121
20
-1903,5
30
0
11
106
21
-1903,5
31
0
0
LINE
8
0
62
1
10
106
20
-1903,5
30
0
11
106
21
-1953,5
31
0
0
LINE
8
0
62
1
10
106
20
-1953,5
30
0
11
121
21
-1953,5
31
0
0
LINE
8
0
62
1
10
121
20
-1953,5
30
0
11
121
21
-1991
31
0
0
LINE
8
0
62
1
10
121
20
-1991
30
0
11
121
21
-1995
31
0
0
LINE
8
0
6
HIDDEN
62
1
10
121
20
-1995
30
0
11
133,5
21
-972
31
0
0
LINE
8
0
62
1
10
133,5
20
-972
30
0
11
121
21
-972
31
0
0
LINE
8
0
62
1
10
121
20
-972
30
0
11
9
21
-972
31
0
0
LINE
8
0
62
1
10
9
20
-972
30
0
11
9
21
-172
31
0
0
LINE
8
0
62
1
10
9
20
-172
30
0
11
121
21
-172
31
0
0
LINE
8
0
62
1
10
121
20
-172
30
0
11
121
21
-209,5
31
0
0
LINE
8
0
62
1
10
121
20
-209,5
30
0
11
106
21
-209,5
31
0
0
LINE
8
0
62
1
10
106
20
-209,5
30
0
11
106
21
-259,5
31
0
0
LINE
8
0
62
1
10
106
20
-259,5
30
0
11
121
21
-259,5
31
0
0
LINE
8
0
62
1
10
121
20
-259,5
30
0
11
121
21
-884,5
31
0
0
LINE
8
0
62
1
10
121
20
-884,5
30
0
11
106
21
-884,5
31
0
0
LINE
8
0
62
1
10
106
20
-884,5
30
0
11
106
21
-934,5
31
0
0
LINE
8
0
62
1
10
106
20
-934,5
30
0
11
121
21
-934,5
31
0
0
LINE
8
0
62
1
10
121
20
-934,5
30
0
11
121
21
-972
31
0
0
LINE
8
0
62
1
10
121
20
-972
30
0
11
121
21
-976
31
0
0
LINE
8
0
6
HIDDEN
62
1
10
121
20
-976
30
0
11
263,5
21
-1991
31
0
0
LINE
8
0
62
1
10
263,5
20
-1991
30
0
11
251
21
-1991
31
0
0
LINE
8
0
62
1
10
251
20
-1991
30
0
11
139
21
-1991
31
0
0
LINE
8
0
62
1
10
139
20
-1991
30
0
11
139
21
-1191
31
0
0
LINE
8
0
62
1
10
139
20
-1191
30
0
11
251
21
-1191
31
0
0
LINE
8
0
62
1
10
251
20
-1191
30
0
11
251
21
-1228,5
31
0
0
LINE
8
0
62
1
10
251
20
-1228,5
30
0
11
236
21
-1228,5
31
0
0
LINE
8
0
62
1
10
236
20
-1228,5
30
0
11
236
21
-1278,5
31
0
0
LINE
8
0
62
1
10
236
20
-1278,5
30
0
11
251
21
-1278,5
31
0
0
LINE
8
0
62
1
10
251
20
-1278,5
30
0
11
251
21
-1903,5
31
0
0
LINE
8
0
62
1
10
251
20
-1903,5
30
0
11
236
21
-1903,5
31
0
0
LINE
8
0
62
1
10
236
20
-1903,5
30
0
11
236
21
-1953,5
31
0
0
LINE
8
0
62
1
10
236
20
-1953,5
30
0
11
251
21
-1953,5
31
0
0
LINE
8
0
62
1
10
251
20
-1953,5
30
0
11
251
21
-1991
31
0
0
LINE
8
0
62
1
10
251
20
-1991
30
0
11
251
21
-1995
31
0
0
LINE
8
0
6
HIDDEN
62
1
10
251
20
-1995
30
0
11
263,5
21
-972
31
0
0
LINE
8
0
62
1
10
263,5
20
-972
30
0
11
251
21
-972
31
0
0
LINE
8
0
62
1
10
251
20
-972
30
0
11
139
21
-972
31
0
0
LINE
8
0
62
1
10
139
20
-972
30
0
11
139
21
-172
31
0
0
LINE
8
0
62
1
10
139
20
-172
30
0
11
251
21
-172
31
0
0
LINE
8
0
62
1
10
251
20
-172
30
0
11
251
21
-209,5
31
0
0
LINE
8
0
62
1
10
251
20
-209,5
30
0
11
236
21
-209,5
31
0
0
LINE
8
0
62
1
10
236
20
-209,5
30
0
11
236
21
-259,5
31
0
0
LINE
8
0
62
1
10
236
20
-259,5
30
0
11
251
21
-259,5
31
0
0
LINE
8
0
62
1
10
251
20
-259,5
30
0
11
251
21
-884,5
31
0
0
LINE
8
0
62
1
10
251
20
-884,5
30
0
11
236
21
-884,5
31
0
0
LINE
8
0
62
1
10
236
20
-884,5
30
0
11
236
21
-934,5
31
0
0
LINE
8
0
62
1
10
236
20
-934,5
30
0
11
251
21
-934,5
31
0
0
LINE
8
0
62
1
10
251
20
-934,5
30
0
11
251
21
-972
31
0
0
LINE
8
0
62
1
10
251
20
-972
30
0
11
251
21
-976
31
0
0
LINE
8
0
6
HIDDEN
62
1
10
251
20
-976
30
0
11
393,5
21
-1991
31
0
0
LINE
8
0
62
1
10
393,5
20
-1991
30
0
11
381
21
-1991
31
0
0
LINE
8
0
62
1
10
381
20
-1991
30
0
11
269
21
-1991
31
0
0
LINE
8
0
62
1
10
269
20
-1991
30
0
11
269
21
-1191
31
0
0
LINE
8
0
62
1
10
269
20
-1191
30
0
11
381
21
-1191
31
0
0
LINE
8
0
62
1
10
381
20
-1191
30
0
11
381
21
-1228,5
31
0
0
LINE
8
0
62
1
10
381
20
-1228,5
30
0
11
366
21
-1228,5
31
0
0
LINE
8
0
62
1
10
366
20
-1228,5
30
0
11
366
21
-1278,5
31
0
0
LINE
8
0
62
1
10
366
20
-1278,5
30
0
11
381
21
-1278,5
31
0
0
LINE
8
0
62
1
10
381
20
-1278,5
30
0
11
381
21
-1903,5
31
0
0
LINE
8
0
62
1
10
381
20
-1903,5
30
0
11
366
21
-1903,5
31
0
0
LINE
8
0
62
1
10
366
20
-1903,5
30
0
11
366
21
-1953,5
31
0
0
LINE
8
0
62
1
10
366
20
-1953,5
30
0
11
381
21
-1953,5
31
0
0
LINE
8
0
62
1
10
381
20
-1953,5
30
0
11
381
21
-1991
31
0
0
LINE
8
0
62
1
10
381
20
-1991
30
0
11
381
21
-1995
31
0
0
LINE
8
0
6
HIDDEN
62
1
10
381
20
-1995
30
0
11
393,5
21
-972
31
0
0
LINE
8
0
62
1
10
393,5
20
-972
30
0
11
381
21
-972
31
0
0
LINE
8
0
62
1
10
381
20
-972
30
0
11
269
21
-972
31
0
0
LINE
8
0
62
1
10
269
20
-972
30
0
11
269
21
-172
31
0
0
LINE
8
0
62
1
10
269
20
-172
30
0
11
381
21
-172
31
0
0
LINE
8
0
62
1
10
381
20
-172
30
0
11
381
21
-209,5
31
0
0
LINE
8
0
62
1
10
381
20
-209,5
30
0
11
366
21
-209,5
31
0
0
LINE
8
0
62
1
10
366
20
-209,5
30
0
11
366
21
-259,5
31
0
0
LINE
8
0
62
1
10
366
20
-259,5
30
0
11
381
21
-259,5
31
0
0
LINE
8
0
62
1
10
381
20
-259,5
30
0
11
381
21
-884,5
31
0
0
LINE
8
0
62
1
10
381
20
-884,5
30
0
11
366
21
-884,5
31
0
0
LINE
8
0
62
1
10
366
20
-884,5
30
0
11
366
21
-934,5
31
0
0
LINE
8
0
62
1
10
366
20
-934,5
30
0
11
381
21
-934,5
31
0
0
LINE
8
0
62
1
10
381
20
-934,5
30
0
11
381
21
-972
31
0
0
LINE
8
0
62
1
10
381
20
-972
30
0
11
381
21
-976
31
0
0
LINE
8
0
6
HIDDEN
62
1
10
381
20
-976
30
0
11
523,5
21
-1991
31
0
0
LINE
8
0
62
1
10
523,5
20
-1991
30
0
11
511
21
-1991
31
0
0
LINE
8
0
62
1
10
511
20
-1991
30
0
11
399
21
-1991
31
0
0
LINE
8
0
62
1
10
399
20
-1991
30
0
11
399
21
-1191
31
0
0
LINE
8
0
62
1
10
399
20
-1191
30
0
11
511
21
-1191
31
0
0
LINE
8
0
62
1
10
511
20
-1191
30
0
11
511
21
-1228,5
31
0
0
LINE
8
0
62
1
10
511
20
-1228,5
30
0
11
496
21
-1228,5
31
0
0
LINE
8
0
62
1
10
496
20
-1228,5
30
0
11
496
21
-1278,5
31
0
0
LINE
8
0
62
1
10
496
20
-1278,5
30
0
11
511
21
-1278,5
31
0
0
LINE
8
0
62
1
10
511
20
-1278,5
30
0
11
511
21
-1903,5
31
0
0
LINE
8
0
62
1
10
511
20
-1903,5
30
0
11
496
21
-1903,5
31
0
0
LINE
8
0
62
1
10
496
20
-1903,5
30
0
11
496
21
-1953,5
31
0
0
LINE
8
0
62
1
10
496
20
-1953,5
30
0
11
511
21
-1953,5
31
0
0
LINE
8
0
62
1
10
511
20
-1953,5
30
0
11
511
21
-1991
31
0
0
LINE
8
0
62
1
10
511
20
-1991
30
0
11
511
21
-1995
31
0
0
LINE
8
0
6
HIDDEN
62
1
10
511
20
-1995
30
0
11
523,5
21
-972
31
0
0
LINE
8
0
62
1
10
523,5
20
-972
30
0
11
511
21
-972
31
0
0
LINE
8
0
62
1
10
511
20
-972
30
0
11
399
21
-972
31
0
0
LINE
8
0
62
1
10
399
20
-972
30
0
11
399
21
-172
31
0
0
LINE
8
0
62
1
10
399
20
-172
30
0
11
511
21
-172
31
0
0
LINE
8
0
62
1
10
511
20
-172
30
0
11
511
21
-209,5
31
0
0
LINE
8
0
62
1
10
511
20
-209,5
30
0
11
496
21
-209,5
31
0
0
LINE
8
0
62
1
10
496
20
-209,5
30
0
11
496
21
-259,5
31
0
0
LINE
8
0
62
1
10
496
20
-259,5
30
0
11
511
21
-259,5
31
0
0
LINE
8
0
62
1
10
511
20
-259,5
30
0
11
511
21
-884,5
31
0
0
LINE
8
0
62
1
10
511
20
-884,5
30
0
11
496
21
-884,5
31
0
0
LINE
8
0
62
1
10
496
20
-884,5
30
0
11
496
21
-934,5
31
0
0
LINE
8
0
62
1
10
496
20
-934,5
30
0
11
511
21
-934,5
31
0
0
LINE
8
0
62
1
10
511
20
-934,5
30
0
11
511
21
-972
31
0
0
LINE
8
0
62
1
10
511
20
-972
30
0
11
511
21
-976
31
0
0
LINE
8
0
6
HIDDEN
62
1
10
511
20
-976
30
0
11
526,76
21
-15,9
31
0
0
ARC
8
0
62
1
10
527,109
20
-30,89
30
0
40
14,994
50
91,337
51
225
0
LINE
8
0
62
1
10
516,5
20
-41,5
30
0
11
549
21
-74
31
0
0
LINE
8
0
62
1
10
549
20
-74
30
0
11
549
21
-154
31
0
0
LINE
8
0
62
1
10
549
20
-154
30
0
11
9
21
-154
31
0
0
LINE
8
0
62
1
10
9
20
-154
30
0
11
9
21
-74
31
0
0
LINE
8
0
62
1
10
9
20
-74
30
0
11
74
21
-9
31
0
0
LINE
8
0
62
1
10
74
20
-9
30
0
11
484
21
-9
31
0
0
LINE
8
0
62
1
10
484
20
-9
30
0
11
516,5
21
-41,5
31
0
0
LINE
8
0
62
1
10
516,5
20
-41,5
30
0
11
524,5
21
-41,5
31
0
0
LINE
8
0
6
HIDDEN
62
1
10
524,5
20
-41,5
30
0
11
653,5
21
-1991
31
0
0
LINE
8
0
62
1
10
653,5
20
-1991
30
0
11
641
21
-1991
31
0
0
LINE
8
0
62
1
10
641
20
-1991
30
0
11
529
21
-1991
31
0
0
LINE
8
0
62
1
10
529
20
-1991
30
0
11
529
21
-1191
31
0
0
LINE
8
0
62
1
10
529
20
-1191
30
0
11
641
21
-1191
31
0
0
LINE
8
0
62
1
10
641
20
-1191
30
0
11
641
21
-1228,5
31
0
0
LINE
8
0
62
1
10
641
20
-1228,5
30
0
11
626
21
-1228,5
31
0
0
LINE
8
0
62
1
10
626
20
-1228,5
30
0
11
626
21
-1278,5
31
0
0
LINE
8
0
62
1
10
626
20
-1278,5
30
0
11
641
21
-1278,5
31
0
0
LINE
8
0
62
1
10
641
20
-1278,5
30
0
11
641
21
-1903,5
31
0
0
LINE
8
0
62
1
10
641
20
-1903,5
30
0
11
626
21
-1903,5
31
0
0
LINE
8
0
62
1
10
626
20
-1903,5
30
0
11
626
21
-1953,5
31
0
0
LINE
8
0
62
1
10
626
20
-1953,5
30
0
11
641
21
-1953,5
31
0
0
LINE
8
0
62
1
10
641
20
-1953,5
30
0
11
641
21
-1991
31
0
0
LINE
8
0
62
1
10
641
20
-1991
30
0
11
641
21
-1995
31
0
0
LINE
8
0
6
HIDDEN
62
1
10
641
20
-1995
30
0
11
653,5
21
-972
31
0
0
LINE
8
0
62
1
10
653,5
20
-972
30
0
11
641
21
-972
31
0
0
LINE
8
0
62
1
10
641
20
-972
30
0
11
529
21
-972
31
0
0
LINE
8
0
62
1
10
529
20
-972
30
0
11
529
21
-172
31
0
0
LINE
8
0
62
1
10
529
20
-172
30
0
11
641
21
-172
31
0
0
LINE
8
0
62
1
10
641
20
-172
30
0
11
641
21
-209,5
31
0
0
LINE
8
0
62
1
10
641
20
-209,5
30
0
11
626
21
-209,5
31
0
0
LINE
8
0
62
1
10
626
20
-209,5
30
0
11
626
21
-259,5
31
0
0
LINE
8
0
62
1
10
626
20
-259,5
30
0
11
641
21
-259,5
31
0
0
LINE
8
0
62
1
10
641
20
-259,5
30
0
11
641
21
-884,5
31
0
0
LINE
8
0
62
1
10
641
20
-884,5
30
0
11
626
21
-884,5
31
0
0
LINE
8
0
62
1
10
626
20
-884,5
30
0
11
626
21
-934,5
31
0
0
LINE
8
0
62
1
10
626
20
-934,5
30
0
11
641
21
-934,5
31
0
0
LINE
8
0
62
1
10
641
20
-934,5
30
0
11
641
21
-972
31
0
0
LINE
8
0
62
1
10
641
20
-972
30
0
11
641
21
-976
31
0
0
LINE
8
0
6
HIDDEN
62
1
10
641
20
-976
30
0
11
783,5
21
-1991
31
0
0
LINE
8
0
62
1
10
783,5
20
-1991
30
0
11
771
21
-1991
31
0
0
LINE
8
0
62
1
10
771
20
-1991
30
0
11
659
21
-1991
31
0
0
LINE
8
0
62
1
10
659
20
-1991
30
0
11
659
21
-1191
31
0
0
LINE
8
0
62
1
10
659
20
-1191
30
0
11
771
21
-1191
31
0
0
LINE
8
0
62
1
10
771
20
-1191
30
0
11
771
21
-1228,5
31
0
0
LINE
8
0
62
1
10
771
20
-1228,5
30
0
11
756
21
-1228,5
31
0
0
LINE
8
0
62
1
10
756
20
-1228,5
30
0
11
756
21
-1278,5
31
0
0
LINE
8
0
62
1
10
756
20
-1278,5
30
0
11
771
21
-1278,5
31
0
0
LINE
8
0
62
1
10
771
20
-1278,5
30
0
11
771
21
-1903,5
31
0
0
LINE
8
0
62
1
10
771
20
-1903,5
30
0
11
756
21
-1903,5
31
0
0
LINE
8
0
62
1
10
756
20
-1903,5
30
0
11
756
21
-1953,5
31
0
0
LINE
8
0
62
1
10
756
20
-1953,5
30
0
11
771
21
-1953,5
31
0
0
LINE
8
0
62
1
10
771
20
-1953,5
30
0
11
771
21
-1991
31
0
0
LINE
8
0
62
1
10
771
20
-1991
30
0
11
771
21
-1995
31
0
0
LINE
8
0
6
HIDDEN
62
1
10
771
20
-1995
30
0
11
834,359
21
-979,151
31
0
0
ARC
8
0
62
1
10
824
20
-990
30
0
40
15,001
50
46,323
51
180
0
LINE
8
0
62
1
10
809
20
-990
30
0
11
809
21
-1102
31
0
0
LINE
8
0
62
1
10
809
20
-1102
30
0
11
771,5
21
-1102
31
0
0
LINE
8
0
62
1
10
771,5
20
-1102
30
0
11
771,5
21
-1087
31
0
0
LINE
8
0
62
1
10
771,5
20
-1087
30
0
11
721,5
21
-1087
31
0
0
LINE
8
0
62
1
10
721,5
20
-1087
30
0
11
721,5
21
-1102
31
0
0
LINE
8
0
62
1
10
721,5
20
-1102
30
0
11
96,5
21
-1102
31
0
0
LINE
8
0
62
1
10
96,5
20
-1102
30
0
11
96,5
21
-1087
31
0
0
LINE
8
0
62
1
10
96,5
20
-1087
30
0
11
46,5
21
-1087
31
0
0
LINE
8
0
62
1
10
46,5
20
-1087
30
0
11
46,5
21
-1102
31
0
0
LINE
8
0
62
1
10
46,5
20
-1102
30
0
11
9
21
-1102
31
0
0
LINE
8
0
62
1
10
9
20
-1102
30
0
11
9
21
-990
31
0
0
LINE
8
0
62
1
10
9
20
-990
30
0
11
809
21
-990
31
0
0
LINE
8
0
62
1
10
809
20
-990
30
0
11
814,659
21
-984,341
31
0
0
LINE
8
0
6
HIDDEN
62
1
10
814,659
20
-984,341
30
0
11
783,5
21
-972
31
0
0
LINE
8
0
62
1
10
783,5
20
-972
30
0
11
771
21
-972
31
0
0
LINE
8
0
62
1
10
771
20
-972
30
0
11
659
21
-972
31
0
0
LINE
8
0
62
1
10
659
20
-972
30
0
11
659
21
-172
31
0
0
LINE
8
0
62
1
10
659
20
-172
30
0
11
771
21
-172
31
0
0
LINE
8
0
62
1
10
771
20
-172
30
0
11
771
21
-209,5
31
0
0
LINE
8
0
62
1
10
771
20
-209,5
30
0
11
756
21
-209,5
31
0
0
LINE
8
0
62
1
10
756
20
-209,5
30
0
11
756
21
-259,5
31
0
0
LINE
8
0
62
1
10
756
20
-259,5
30
0
11
771
21
-259,5
31
0
0
LINE
8
0
62
1
10
771
20
-259,5
30
0
11
771
21
-884,5
31
0
0
LINE
8
0
62
1
10
771
20
-884,5
30
0
11
756
21
-884,5
31
0
0
LINE
8
0
62
1
10
756
20
-884,5
30
0
11
756
21
-934,5
31
0
0
LINE
8
0
62
1
10
756
20
-934,5
30
0
11
771
21
-934,5
31
0
0
LINE
8
0
62
1
10
771
20
-934,5
30
0
11
771
21
-972
31
0
0
LINE
8
0
62
1
10
771
20
-972
30
0
11
771
21
-976
31
0
0
LINE
8
0
6
HIDDEN
62
1
10
771
20
-976
30
0
11
926
21
-1991
31
0
0
LINE
8
0
62
1
10
926
20
-1991
30
0
11
901
21
-1991
31
0
0
LINE
8
0
62
1
10
901
20
-1991
30
0
11
789
21
-1991
31
0
0
LINE
8
0
62
1
10
789
20
-1991
30
0
11
789
21
-1191
31
0
0
LINE
8
0
62
1
10
789
20
-1191
30
0
11
901
21
-1191
31
0
0
LINE
8
0
62
1
10
901
20
-1191
30
0
11
901
21
-1228,5
31
0
0
LINE
8
0
62
1
10
901
20
-1228,5
30
0
11
886
21
-1228,5
31
0
0
LINE
8
0
62
1
10
886
20
-1228,5
30
0
11
886
21
-1278,5
31
0
0
LINE
8
0
62
1
10
886
20
-1278,5
30
0
11
901
21
-1278,5
31
0
0
LINE
8
0
62
1
10
901
20
-1278,5
30
0
11
901
21
-1903,5
31
0
0
LINE
8
0
62
1
10
901
20
-1903,5
30
0
11
886
21
-1903,5
31
0
0
LINE
8
0
62
1
10
886
20
-1903,5
30
0
11
886
21
-1953,5
31
0
0
LINE
8
0
62
1
10
886
20
-1953,5
30
0
11
901
21
-1953,5
31
0
0
LINE
8
0
62
1
10
901
20
-1953,5
30
0
11
901
21
-1991
31
0
0
LINE
8
0
62
1
10
901
20
-1991
30
0
11
901
21
-1999
31
0
0
LINE
8
0
6
HIDDEN
62
1
10
901
20
-1999
30
0
11
913,5
21
-972
31
0
0
LINE
8
0
62
1
10
913,5
20
-972
30
0
11
901
21
-972
31
0
0
LINE
8
0
62
1
10
901
20
-972
30
0
11
789
21
-972
31
0
0
LINE
8
0
62
1
10
789
20
-972
30
0
11
789
21
-172
31
0
0
LINE
8
0
62
1
10
789
20
-172
30
0
11
901
21
-172
31
0
0
LINE
8
0
62
1
10
901
20
-172
30
0
11
901
21
-209,5
31
0
0
LINE
8
0
62
1
10
901
20
-209,5
30
0
11
886
21
-209,5
31
0
0
LINE
8
0
62
1
10
886
20
-209,5
30
0
11
886
21
-259,5
31
0
0
LINE
8
0
62
1
10
886
20
-259,5
30
0
11
901
21
-259,5
31
0
0
LINE
8
0
62
1
10
901
20
-259,5
30
0
11
901
21
-884,5
31
0
0
LINE
8
0
62
1
10
901
20
-884,5
30
0
11
886
21
-884,5
31
0
0
LINE
8
0
62
1
10
886
20
-884,5
30
0
11
886
21
-934,5
31
0
0
LINE
8
0
62
1
10
886
20
-934,5
30
0
11
901
21
-934,5
31
0
0
LINE
8
0
62
1
10
901
20
-934,5
30
0
11
901
21
-972
31
0
0
LINE
8
0
62
1
10
901
20
-972
30
0
11
901
21
-976
31
0
0
LINE
8
0
6
HIDDEN
62
1
10
901
20
-976
30
0
11
1089
21
-1660
31
0
0
LINE
8
0
62
1
10
1089
20
-1660
30
0
11
1064
21
-1660
31
0
0
LINE
8
0
62
1
10
1064
20
-1660
30
0
11
984
21
-1660
31
0
0
LINE
8
0
62
1
10
984
20
-1660
30
0
11
919
21
-1595
31
0
0
LINE
8
0
62
1
10
919
20
-1595
30
0
11
919
21
-1185
31
0
0
LINE
8
0
62
1
10
919
20
-1185
30
0
11
984
21
-1120
31
0
0
LINE
8
0
62
1
10
984
20
-1120
30
0
11
1064
21
-1120
31
0
0
LINE
8
0
62
1
10
1064
20
-1120
30
0
11
1064
21
-1660
31
0
0
LINE
8
0
62
1
10
1064
20
-1660
30
0
11
1064
21
-1668
31
0
0
LINE
8
0
6
HIDDEN
62
1
10
1064
20
-1668
30
0
11
1043,5
21
-972
31
0
0
LINE
8
0
62
1
10
1043,5
20
-972
30
0
11
1031
21
-972
31
0
0
LINE
8
0
62
1
10
1031
20
-972
30
0
11
919
21
-972
31
0
0
LINE
8
0
62
1
10
919
20
-972
30
0
11
919
21
-172
31
0
0
LINE
8
0
62
1
10
919
20
-172
30
0
11
1031
21
-172
31
0
0
LINE
8
0
62
1
10
1031
20
-172
30
0
11
1031
21
-209,5
31
0
0
LINE
8
0
62
1
10
1031
20
-209,5
30
0
11
1016
21
-209,5
31
0
0
LINE
8
0
62
1
10
1016
20
-209,5
30
0
11
1016
21
-259,5
31
0
0
LINE
8
0
62
1
10
1016
20
-259,5
30
0
11
1031
21
-259,5
31
0
0
LINE
8
0
62
1
10
1031
20
-259,5
30
0
11
1031
21
-884,5
31
0
0
LINE
8
0
62
1
10
1031
20
-884,5
30
0
11
1016
21
-884,5
31
0
0
LINE
8
0
62
1
10
1016
20
-884,5
30
0
11
1016
21
-934,5
31
0
0
LINE
8
0
62
1
10
1016
20
-934,5
30
0
11
1031
21
-934,5
31
0
0
LINE
8
0
62
1
10
1031
20
-934,5
30
0
11
1031
21
-972
31
0
0
LINE
8
0
62
1
10
1031
20
-972
30
0
11
1031
21
-976
31
0
0
LINE
8
0
6
HIDDEN
62
1
10
1031
20
-976
30
0
11
1084,76
21
-15,9
31
0
0
ARC
8
0
62
1
10
1085,109
20
-30,89
30
0
40
14,994
50
91,337
51
225
0
LINE
8
0
62
1
10
1074,5
20
-41,5
30
0
11
1107
21
-74
31
0
0
LINE
8
0
62
1
10
1107
20
-74
30
0
11
1107
21
-154
31
0
0
LINE
8
0
62
1
10
1107
20
-154
30
0
11
567
21
-154
31
0
0
LINE
8
0
62
1
10
567
20
-154
30
0
11
567
21
-74
31
0
0
LINE
8
0
62
1
10
567
20
-74
30
0
11
632
21
-9
31
0
0
LINE
8
0
62
1
10
632
20
-9
30
0
11
1042
21
-9
31
0
0
LINE
8
0
62
1
10
1042
20
-9
30
0
11
1074,5
21
-41,5
31
0
0
LINE
8
0
62
1
10
1074,5
20
-41,5
30
0
11
1082,5
21
-41,5
31
0
0
LINE
8
0
6
HIDDEN
62
1
10
1082,5
20
-41,5
30
0
11
1252
21
-1660
31
0
0
LINE
8
0
62
1
10
1252
20
-1660
30
0
11
1227
21
-1660
31
0
0
LINE
8
0
62
1
10
1227
20
-1660
30
0
11
1147
21
-1660
31
0
0
LINE
8
0
62
1
10
1147
20
-1660
30
0
11
1082
21
-1595
31
0
0
LINE
8
0
62
1
10
1082
20
-1595
30
0
11
1082
21
-1185
31
0
0
LINE
8
0
62
1
10
1082
20
-1185
30
0
11
1147
21
-1120
31
0
0
LINE
8
0
62
1
10
1147
20
-1120
30
0
11
1227
21
-1120
31
0
0
LINE
8
0
62
1
10
1227
20
-1120
30
0
11
1227
21
-1660
31
0
0
LINE
8
0
62
1
10
1227
20
-1660
30
0
11
1227
21
-1668
31
0
0
LINE
8
0
6
HIDDEN
62
1
10
1227
20
-1668
30
0
11
1173,51
21
-972
31
0
0
LINE
8
0
62
1
10
1173,51
20
-972
30
0
11
1161,01
21
-972
31
0
0
LINE
8
0
62
1
10
1161,01
20
-972
30
0
11
1049,01
21
-972
31
0
0
LINE
8
0
62
1
10
1049,01
20
-972
30
0
11
1049,01
21
-172
31
0
0
LINE
8
0
62
1
10
1049,01
20
-172
30
0
11
1161,01
21
-172
31
0
0
LINE
8
0
62
1
10
1161,01
20
-172
30
0
11
1161,01
21
-209,5
31
0
0
LINE
8
0
62
1
10
1161,01
20
-209,5
30
0
11
1146,01
21
-209,5
31
0
0
LINE
8
0
62
1
10
1146,01
20
-209,5
30
0
11
1146,01
21
-259,5
31
0
0
LINE
8
0
62
1
10
1146,01
20
-259,5
30
0
11
1161,01
21
-259,5
31
0
0
LINE
8
0
62
1
10
1161,01
20
-259,5
30
0
11
1161,01
21
-884,5
31
0
0
LINE
8
0
62
1
10
1161,01
20
-884,5
30
0
11
1146,01
21
-884,5
31
0
0
LINE
8
0
62
1
10
1146,01
20
-884,5
30
0
11
1146,01
21
-934,5
31
0
0
LINE
8
0
62
1
10
1146,01
20
-934,5
30
0
11
1161,01
21
-934,5
31
0
0
LINE
8
0
62
1
10
1161,01
20
-934,5
30
0
11
1161,01
21
-972
31
0
0
LINE
8
0
62
1
10
1161,01
20
-972
30
0
11
1161,01
21
-976
31
0
0
LINE
8
0
6
HIDDEN
62
1
10
1161,01
20
-976
30
0
11
1415
21
-1660
31
0
0
LINE
8
0
62
1
10
1415
20
-1660
30
0
11
1390
21
-1660
31
0
0
LINE
8
0
62
1
10
1390
20
-1660
30
0
11
1310
21
-1660
31
0
0
LINE
8
0
62
1
10
1310
20
-1660
30
0
11
1245
21
-1595
31
0
0
LINE
8
0
62
1
10
1245
20
-1595
30
0
11
1245
21
-1185
31
0
0
LINE
8
0
62
1
10
1245
20
-1185
30
0
11
1310
21
-1120
31
0
0
LINE
8
0
62
1
10
1310
20
-1120
30
0
11
1390
21
-1120
31
0
0
LINE
8
0
62
1
10
1390
20
-1120
30
0
11
1390
21
-1660
31
0
0
LINE
8
0
62
1
10
1390
20
-1660
30
0
11
1390
21
-1668
31
0
0
LINE
8
0
6
HIDDEN
62
1
10
1390
20
-1668
30
0
11
1303,51
21
-972
31
0
0
LINE
8
0
62
1
10
1303,51
20
-972
30
0
11
1291,01
21
-972
31
0
0
LINE
8
0
62
1
10
1291,01
20
-972
30
0
11
1179,01
21
-972
31
0
0
LINE
8
0
62
1
10
1179,01
20
-972
30
0
11
1179,01
21
-172
31
0
0
LINE
8
0
62
1
10
1179,01
20
-172
30
0
11
1291,01
21
-172
31
0
0
LINE
8
0
62
1
10
1291,01
20
-172
30
0
11
1291,01
21
-209,5
31
0
0
LINE
8
0
62
1
10
1291,01
20
-209,5
30
0
11
1276,01
21
-209,5
31
0
0
LINE
8
0
62
1
10
1276,01
20
-209,5
30
0
11
1276,01
21
-259,5
31
0
0
LINE
8
0
62
1
10
1276,01
20
-259,5
30
0
11
1291,01
21
-259,5
31
0
0
LINE
8
0
62
1
10
1291,01
20
-259,5
30
0
11
1291,01
21
-884,5
31
0
0
LINE
8
0
62
1
10
1291,01
20
-884,5
30
0
11
1276,01
21
-884,5
31
0
0
LINE
8
0
62
1
10
1276,01
20
-884,5
30
0
11
1276,01
21
-934,5
31
0
0
LINE
8
0
62
1
10
1276,01
20
-934,5
30
0
11
1291,01
21
-934,5
31
0
0
LINE
8
0
62
1
10
1291,01
20
-934,5
30
0
11
1291,01
21
-972
31
0
0
LINE
8
0
62
1
10
1291,01
20
-972
30
0
11
1291,01
21
-976
31
0
0
LINE
8
0
6
HIDDEN
62
1
10
1291,01
20
-976
30
0
11
1459
21
-1816
31
0
0
LINE
8
0
62
1
10
1459
20
-1816
30
0
11
1459
21
-1841
31
0
0
LINE
8
0
62
1
10
1459
20
-1841
30
0
11
1459
21
-1921
31
0
0
LINE
8
0
62
1
10
1459
20
-1921
30
0
11
1394
21
-1986
31
0
0
LINE
8
0
62
1
10
1394
20
-1986
30
0
11
984
21
-1986
31
0
0
LINE
8
0
62
1
10
984
20
-1986
30
0
11
919
21
-1921
31
0
0
LINE
8
0
62
1
10
919
20
-1921
30
0
11
919
21
-1841
31
0
0
LINE
8
0
62
1
10
919
20
-1841
30
0
11
1459
21
-1841
31
0
0
LINE
8
0
62
1
10
1459
20
-1841
30
0
11
1467
21
-1841
31
0
0
LINE
8
0
6
HIDDEN
62
1
10
1467
20
-1841
30
0
11
1459
21
-1653
31
0
0
LINE
8
0
62
1
10
1459
20
-1653
30
0
11
1459
21
-1678
31
0
0
LINE
8
0
62
1
10
1459
20
-1678
30
0
11
1459
21
-1758
31
0
0
LINE
8
0
62
1
10
1459
20
-1758
30
0
11
1394
21
-1823
31
0
0
LINE
8
0
62
1
10
1394
20
-1823
30
0
11
984
21
-1823
31
0
0
LINE
8
0
62
1
10
984
20
-1823
30
0
11
919
21
-1758
31
0
0
LINE
8
0
62
1
10
919
20
-1758
30
0
11
919
21
-1678
31
0
0
LINE
8
0
62
1
10
919
20
-1678
30
0
11
1459
21
-1678
31
0
0
LINE
8
0
62
1
10
1459
20
-1678
30
0
11
1467
21
-1678
31
0
0
LINE
8
0
6
HIDDEN
62
1
10
1467
20
-1678
30
0
11
1433,51
21
-972
31
0
0
LINE
8
0
62
1
10
1433,51
20
-972
30
0
11
1421,01
21
-972
31
0
0
LINE
8
0
62
1
10
1421,01
20
-972
30
0
11
1309,01
21
-972
31
0
0
LINE
8
0
62
1
10
1309,01
20
-972
30
0
11
1309,01
21
-172
31
0
0
LINE
8
0
62
1
10
1309,01
20
-172
30
0
11
1421,01
21
-172
31
0
0
LINE
8
0
62
1
10
1421,01
20
-172
30
0
11
1421,01
21
-209,5
31
0
0
LINE
8
0
62
1
10
1421,01
20
-209,5
30
0
11
1406,01
21
-209,5
31
0
0
LINE
8
0
62
1
10
1406,01
20
-209,5
30
0
11
1406,01
21
-259,5
31
0
0
LINE
8
0
62
1
10
1406,01
20
-259,5
30
0
11
1421,01
21
-259,5
31
0
0
LINE
8
0
62
1
10
1421,01
20
-259,5
30
0
11
1421,01
21
-884,5
31
0
0
LINE
8
0
62
1
10
1421,01
20
-884,5
30
0
11
1406,01
21
-884,5
31
0
0
LINE
8
0
62
1
10
1406,01
20
-884,5
30
0
11
1406,01
21
-934,5
31
0
0
LINE
8
0
62
1
10
1406,01
20
-934,5
30
0
11
1421,01
21
-934,5
31
0
0
LINE
8
0
62
1
10
1421,01
20
-934,5
30
0
11
1421,01
21
-972
31
0
0
LINE
8
0
62
1
10
1421,01
20
-972
30
0
11
1421,01
21
-976
31
0
0
LINE
8
0
6
HIDDEN
62
1
10
1421,01
20
-976
30
0
11
1578
21
-1660
31
0
0
LINE
8
0
62
1
10
1578
20
-1660
30
0
11
1553
21
-1660
31
0
0
LINE
8
0
62
1
10
1553
20
-1660
30
0
11
1473
21
-1660
31
0
0
LINE
8
0
62
1
10
1473
20
-1660
30
0
11
1408
21
-1595
31
0
0
LINE
8
0
62
1
10
1408
20
-1595
30
0
11
1408
21
-1185
31
0
0
LINE
8
0
62
1
10
1408
20
-1185
30
0
11
1473
21
-1120
31
0
0
LINE
8
0
62
1
10
1473
20
-1120
30
0
11
1553
21
-1120
31
0
0
LINE
8
0
62
1
10
1553
20
-1120
30
0
11
1553
21
-1660
31
0
0
LINE
8
0
62
1
10
1553
20
-1660
30
0
11
1553
21
-1668
31
0
0
LINE
8
0
6
HIDDEN
62
1
10
1553
20
-1668
30
0
11
1652,359
21
-979,151
31
0
0
ARC
8
0
62
1
10
1642
20
-990
30
0
40
15,001
50
46,323
51
180
0
LINE
8
0
62
1
10
1627
20
-990
30
0
11
1627
21
-1102
31
0
0
LINE
8
0
62
1
10
1627
20
-1102
30
0
11
1589,5
21
-1102
31
0
0
LINE
8
0
62
1
10
1589,5
20
-1102
30
0
11
1589,5
21
-1087
31
0
0
LINE
8
0
62
1
10
1589,5
20
-1087
30
0
11
1539,5
21
-1087
31
0
0
LINE
8
0
62
1
10
1539,5
20
-1087
30
0
11
1539,5
21
-1102
31
0
0
LINE
8
0
62
1
10
1539,5
20
-1102
30
0
11
914,5
21
-1102
31
0
0
LINE
8
0
62
1
10
914,5
20
-1102
30
0
11
914,5
21
-1087
31
0
0
LINE
8
0
62
1
10
914,5
20
-1087
30
0
11
864,5
21
-1087
31
0
0
LINE
8
0
62
1
10
864,5
20
-1087
30
0
11
864,5
21
-1102
31
0
0
LINE
8
0
62
1
10
864,5
20
-1102
30
0
11
827
21
-1102
31
0
0
LINE
8
0
62
1
10
827
20
-1102
30
0
11
827
21
-990
31
0
0
LINE
8
0
62
1
10
827
20
-990
30
0
11
1627
21
-990
31
0
0
LINE
8
0
62
1
10
1627
20
-990
30
0
11
1632,66
21
-984,341
31
0
0
LINE
8
0
6
HIDDEN
62
1
10
1632,66
20
-984,341
30
0
11
1563,51
21
-972
31
0
0
LINE
8
0
62
1
10
1563,51
20
-972
30
0
11
1551,01
21
-972
31
0
0
LINE
8
0
62
1
10
1551,01
20
-972
30
0
11
1439,01
21
-972
31
0
0
LINE
8
0
62
1
10
1439,01
20
-972
30
0
11
1439,01
21
-172
31
0
0
LINE
8
0
62
1
10
1439,01
20
-172
30
0
11
1551,01
21
-172
31
0
0
LINE
8
0
62
1
10
1551,01
20
-172
30
0
11
1551,01
21
-209,5
31
0
0
LINE
8
0
62
1
10
1551,01
20
-209,5
30
0
11
1536,01
21
-209,5
31
0
0
LINE
8
0
62
1
10
1536,01
20
-209,5
30
0
11
1536,01
21
-259,5
31
0
0
LINE
8
0
62
1
10
1536,01
20
-259,5
30
0
11
1551,01
21
-259,5
31
0
0
LINE
8
0
62
1
10
1551,01
20
-259,5
30
0
11
1551,01
21
-884,5
31
0
0
LINE
8
0
62
1
10
1551,01
20
-884,5
30
0
11
1536,01
21
-884,5
31
0
0
LINE
8
0
62
1
10
1536,01
20
-884,5
30
0
11
1536,01
21
-934,5
31
0
0
LINE
8
0
62
1
10
1536,01
20
-934,5
30
0
11
1551,01
21
-934,5
31
0
0
LINE
8
0
62
1
10
1551,01
20
-934,5
30
0
11
1551,01
21
-972
31
0
0
LINE
8
0
62
1
10
1551,01
20
-972
30
0
11
1551,01
21
-976
31
0
0
LINE
8
0
6
HIDDEN
62
1
10
1551,01
20
-976
30
0
11
1642,76
21
-15,9
31
0
0
ARC
8
0
62
1
10
1643,109
20
-30,89
30
0
40
14,994
50
91,337
51
225
0
LINE
8
0
62
1
10
1632,5
20
-41,5
30
0
11
1665
21
-74
31
0
0
LINE
8
0
62
1
10
1665
20
-74
30
0
11
1665
21
-154
31
0
0
LINE
8
0
62
1
10
1665
20
-154
30
0
11
1125
21
-154
31
0
0
LINE
8
0
62
1
10
1125
20
-154
30
0
11
1125
21
-74
31
0
0
LINE
8
0
62
1
10
1125
20
-74
30
0
11
1190
21
-9
31
0
0
LINE
8
0
62
1
10
1190
20
-9
30
0
11
1600
21
-9
31
0
0
LINE
8
0
62
1
10
1600
20
-9
30
0
11
1632,5
21
-41,5
31
0
0
LINE
8
0
62
1
10
1632,5
20
-41,5
30
0
11
1640,5
21
-41,5
31
0
0
LINE
8
0
6
HIDDEN
62
1
10
1640,5
20
-41,5
30
0
11
1741
21
-1660
31
0
0
LINE
8
0
62
1
10
1741
20
-1660
30
0
11
1716
21
-1660
31
0
0
LINE
8
0
62
1
10
1716
20
-1660
30
0
11
1636
21
-1660
31
0
0
LINE
8
0
62
1
10
1636
20
-1660
30
0
11
1571
21
-1595
31
0
0
LINE
8
0
62
1
10
1571
20
-1595
30
0
11
1571
21
-1185
31
0
0
LINE
8
0
62
1
10
1571
20
-1185
30
0
11
1636
21
-1120
31
0
0
LINE
8
0
62
1
10
1636
20
-1120
30
0
11
1716
21
-1120
31
0
0
LINE
8
0
62
1
10
1716
20
-1120
30
0
11
1716
21
-1660
31
0
0
LINE
8
0
62
1
10
1716
20
-1660
30
0
11
1716
21
-1668
31
0
0
LINE
8
0
6
HIDDEN
62
1
10
1716
20
-1668
30
0
11
1693,51
21
-972
31
0
0
LINE
8
0
62
1
10
1693,51
20
-972
30
0
11
1681,01
21
-972
31
0
0
LINE
8
0
62
1
10
1681,01
20
-972
30
0
11
1569,01
21
-972
31
0
0
LINE
8
0
62
1
10
1569,01
20
-972
30
0
11
1569,01
21
-172
31
0
0
LINE
8
0
62
1
10
1569,01
20
-172
30
0
11
1681,01
21
-172
31
0
0
LINE
8
0
62
1
10
1681,01
20
-172
30
0
11
1681,01
21
-209,5
31
0
0
LINE
8
0
62
1
10
1681,01
20
-209,5
30
0
11
1666,01
21
-209,5
31
0
0
LINE
8
0
62
1
10
1666,01
20
-209,5
30
0
11
1666,01
21
-259,5
31
0
0
LINE
8
0
62
1
10
1666,01
20
-259,5
30
0
11
1681,01
21
-259,5
31
0
0
LINE
8
0
62
1
10
1681,01
20
-259,5
30
0
11
1681,01
21
-884,5
31
0
0
LINE
8
0
62
1
10
1681,01
20
-884,5
30
0
11
1666,01
21
-884,5
31
0
0
LINE
8
0
62
1
10
1666,01
20
-884,5
30
0
11
1666,01
21
-934,5
31
0
0
LINE
8
0
62
1
10
1666,01
20
-934,5
30
0
11
1681,01
21
-934,5
31
0
0
LINE
8
0
62
1
10
1681,01
20
-934,5
30
0
11
1681,01
21
-972
31
0
0
LINE
8
0
62
1
10
1681,01
20
-972
30
0
11
1681,01
21
-976
31
0
0
LINE
8
0
6
HIDDEN
62
1
10
1681,01
20
-976
30
0
11
1904
21
-1660
31
0
0
LINE
8
0
62
1
10
1904
20
-1660
30
0
11
1879
21
-1660
31
0
0
LINE
8
0
62
1
10
1879
20
-1660
30
0
11
1799
21
-1660
31
0
0
LINE
8
0
62
1
10
1799
20
-1660
30
0
11
1734
21
-1595
31
0
0
LINE
8
0
62
1
10
1734
20
-1595
30
0
11
1734
21
-1185
31
0
0
LINE
8
0
62
1
10
1734
20
-1185
30
0
11
1799
21
-1120
31
0
0
LINE
8
0
62
1
10
1799
20
-1120
30
0
11
1879
21
-1120
31
0
0
LINE
8
0
62
1
10
1879
20
-1120
30
0
11
1879
21
-1660
31
0
0
LINE
8
0
62
1
10
1879
20
-1660
30
0
11
1879
21
-1668
31
0
0
LINE
8
0
6
HIDDEN
62
1
10
1879
20
-1668
30
0
11
1823,51
21
-972
31
0
0
LINE
8
0
62
1
10
1823,51
20
-972
30
0
11
1811,01
21
-972
31
0
0
LINE
8
0
62
1
10
1811,01
20
-972
30
0
11
1699,01
21
-972
31
0
0
LINE
8
0
62
1
10
1699,01
20
-972
30
0
11
1699,01
21
-172
31
0
0
LINE
8
0
62
1
10
1699,01
20
-172
30
0
11
1811,01
21
-172
31
0
0
LINE
8
0
62
1
10
1811,01
20
-172
30
0
11
1811,01
21
-209,5
31
0
0
LINE
8
0
62
1
10
1811,01
20
-209,5
30
0
11
1796,01
21
-209,5
31
0
0
LINE
8
0
62
1
10
1796,01
20
-209,5
30
0
11
1796,01
21
-259,5
31
0
0
LINE
8
0
62
1
10
1796,01
20
-259,5
30
0
11
1811,01
21
-259,5
31
0
0
LINE
8
0
62
1
10
1811,01
20
-259,5
30
0
11
1811,01
21
-884,5
31
0
0
LINE
8
0
62
1
10
1811,01
20
-884,5
30
0
11
1796,01
21
-884,5
31
0
0
LINE
8
0
62
1
10
1796,01
20
-884,5
30
0
11
1796,01
21
-934,5
31
0
0
LINE
8
0
62
1
10
1796,01
20
-934,5
30
0
11
1811,01
21
-934,5
31
0
0
LINE
8
0
62
1
10
1811,01
20
-934,5
30
0
11
1811,01
21
-972
31
0
0
LINE
8
0
62
1
10
1811,01
20
-972
30
0
11
1811,01
21
-976
31
0
0
LINE
8
0
6
HIDDEN
62
1
10
1811,01
20
-976
30
0
11
2017
21
-1816
31
0
0
LINE
8
0
62
1
10
2017
20
-1816
30
0
11
2017
21
-1841
31
0
0
LINE
8
0
62
1
10
2017
20
-1841
30
0
11
2017
21
-1921
31
0
0
LINE
8
0
62
1
10
2017
20
-1921
30
0
11
1952
21
-1986
31
0
0
LINE
8
0
62
1
10
1952
20
-1986
30
0
11
1542
21
-1986
31
0
0
LINE
8
0
62
1
10
1542
20
-1986
30
0
11
1477
21
-1921
31
0
0
LINE
8
0
62
1
10
1477
20
-1921
30
0
11
1477
21
-1841
31
0
0
LINE
8
0
62
1
10
1477
20
-1841
30
0
11
2017
21
-1841
31
0
0
LINE
8
0
62
1
10
2017
20
-1841
30
0
11
2025
21
-1841
31
0
0
LINE
8
0
6
HIDDEN
62
1
10
2025
20
-1841
30
0
11
1977
21
-1823
31
0
0
LINE
8
0
62
1
10
1977
20
-1823
30
0
11
1952
21
-1823
31
0
0
LINE
8
0
62
1
10
1952
20
-1823
30
0
11
1542
21
-1823
31
0
0
LINE
8
0
62
1
10
1542
20
-1823
30
0
11
1477
21
-1758
31
0
0
LINE
8
0
62
1
10
1477
20
-1758
30
0
11
1477
21
-1678
31
0
0
LINE
8
0
62
1
10
1477
20
-1678
30
0
11
2017
21
-1678
31
0
0
LINE
8
0
62
1
10
2017
20
-1678
30
0
11
2017
21
-1758
31
0
0
LINE
8
0
62
1
10
2017
20
-1758
30
0
11
1952
21
-1823
31
0
0
LINE
8
0
62
1
10
1952
20
-1823
30
0
11
1946,349
21
-1828,661
31
0
0
LINE
8
0
6
HIDDEN
62
1
10
1946,349
20
-1828,661
30
0
11
2067
21
-1660
31
0
0
LINE
8
0
62
1
10
2067
20
-1660
30
0
11
2042
21
-1660
31
0
0
LINE
8
0
62
1
10
2042
20
-1660
30
0
11
1962
21
-1660
31
0
0
LINE
8
0
62
1
10
1962
20
-1660
30
0
11
1897
21
-1595
31
0
0
LINE
8
0
62
1
10
1897
20
-1595
30
0
11
1897
21
-1185
31
0
0
LINE
8
0
62
1
10
1897
20
-1185
30
0
11
1962
21
-1120
31
0
0
LINE
8
0
62
1
10
1962
20
-1120
30
0
11
2042
21
-1120
31
0
0
LINE
8
0
62
1
10
2042
20
-1120
30
0
11
2042
21
-1660
31
0
0
LINE
8
0
62
1
10
2042
20
-1660
30
0
11
2042
21
-1668
31
0
0
LINE
8
0
6
HIDDEN
62
1
10
2042
20
-1668
30
0
11
1953,51
21
-972
31
0
0
LINE
8
0
62
1
10
1953,51
20
-972
30
0
11
1941,01
21
-972
31
0
0
LINE
8
0
62
1
10
1941,01
20
-972
30
0
11
1829,01
21
-972
31
0
0
LINE
8
0
62
1
10
1829,01
20
-972
30
0
11
1829,01
21
-172
31
0
0
LINE
8
0
62
1
10
1829,01
20
-172
30
0
11
1941,01
21
-172
31
0
0
LINE
8
0
62
1
10
1941,01
20
-172
30
0
11
1941,01
21
-209,5
31
0
0
LINE
8
0
62
1
10
1941,01
20
-209,5
30
0
11
1926,01
21
-209,5
31
0
0
LINE
8
0
62
1
10
1926,01
20
-209,5
30
0
11
1926,01
21
-259,5
31
0
0
LINE
8
0
62
1
10
1926,01
20
-259,5
30
0
11
1941,01
21
-259,5
31
0
0
LINE
8
0
62
1
10
1941,01
20
-259,5
30
0
11
1941,01
21
-884,5
31
0
0
LINE
8
0
62
1
10
1941,01
20
-884,5
30
0
11
1926,01
21
-884,5
31
0
0
LINE
8
0
62
1
10
1926,01
20
-884,5
30
0
11
1926,01
21
-934,5
31
0
0
LINE
8
0
62
1
10
1926,01
20
-934,5
30
0
11
1941,01
21
-934,5
31
0
0
LINE
8
0
62
1
10
1941,01
20
-934,5
30
0
11
1941,01
21
-972
31
0
0
LINE
8
0
62
1
10
1941,01
20
-972
30
0
11
1941,01
21
-976
31
0
0
LINE
8
0
6
HIDDEN
62
1
10
1941,01
20
-976
30
0
11
2083,51
21
-972
31
0
0
LINE
8
0
62
1
10
2083,51
20
-972
30
0
11
2071,01
21
-972
31
0
0
LINE
8
0
62
1
10
2071,01
20
-972
30
0
11
1959,01
21
-972
31
0
0
LINE
8
0
62
1
10
1959,01
20
-972
30
0
11
1959,01
21
-172
31
0
0
LINE
8
0
62
1
10
1959,01
20
-172
30
0
11
2071,01
21
-172
31
0
0
LINE
8
0
62
1
10
2071,01
20
-172
30
0
11
2071,01
21
-209,5
31
0
0
LINE
8
0
62
1
10
2071,01
20
-209,5
30
0
11
2056,01
21
-209,5
31
0
0
LINE
8
0
62
1
10
2056,01
20
-209,5
30
0
11
2056,01
21
-259,5
31
0
0
LINE
8
0
62
1
10
2056,01
20
-259,5
30
0
11
2071,01
21
-259,5
31
0
0
LINE
8
0
62
1
10
2071,01
20
-259,5
30
0
11
2071,01
21
-884,5
31
0
0
LINE
8
0
62
1
10
2071,01
20
-884,5
30
0
11
2056,01
21
-884,5
31
0
0
LINE
8
0
62
1
10
2056,01
20
-884,5
30
0
11
2056,01
21
-934,5
31
0
0
LINE
8
0
62
1
10
2056,01
20
-934,5
30
0
11
2071,01
21
-934,5
31
0
0
LINE
8
0
62
1
10
2071,01
20
-934,5
30
0
11
2071,01
21
-972
31
0
0
LINE
8
0
62
1
10
2071,01
20
-972
30
0
11
2071,01
21
-976
31
0
0
LINE
8
0
6
HIDDEN
62
1
10
2071,01
20
-976
30
0
11
2230
21
-1660
31
0
0
LINE
8
0
62
1
10
2230
20
-1660
30
0
11
2205
21
-1660
31
0
0
LINE
8
0
62
1
10
2205
20
-1660
30
0
11
2125
21
-1660
31
0
0
LINE
8
0
62
1
10
2125
20
-1660
30
0
11
2060
21
-1595
31
0
0
LINE
8
0
62
1
10
2060
20
-1595
30
0
11
2060
21
-1185
31
0
0
LINE
8
0
62
1
10
2060
20
-1185
30
0
11
2125
21
-1120
31
0
0
LINE
8
0
62
1
10
2125
20
-1120
30
0
11
2205
21
-1120
31
0
0
LINE
8
0
62
1
10
2205
20
-1120
30
0
11
2205
21
-1660
31
0
0
LINE
8
0
62
1
10
2205
20
-1660
30
0
11
2205
21
-1668
31
0
0
LINE
8
0
6
HIDDEN
62
1
10
2205
20
-1668
30
0
11
2213,51
21
-972
31
0
0
LINE
8
0
62
1
10
2213,51
20
-972
30
0
11
2201,01
21
-972
31
0
0
LINE
8
0
62
1
10
2201,01
20
-972
30
0
11
2089,01
21
-972
31
0
0
LINE
8
0
62
1
10
2089,01
20
-972
30
0
11
2089,01
21
-172
31
0
0
LINE
8
0
62
1
10
2089,01
20
-172
30
0
11
2201,01
21
-172
31
0
0
LINE
8
0
62
1
10
2201,01
20
-172
30
0
11
2201,01
21
-209,5
31
0
0
LINE
8
0
62
1
10
2201,01
20
-209,5
30
0
11
2186,01
21
-209,5
31
0
0
LINE
8
0
62
1
10
2186,01
20
-209,5
30
0
11
2186,01
21
-259,5
31
0
0
LINE
8
0
62
1
10
2186,01
20
-259,5
30
0
11
2201,01
21
-259,5
31
0
0
LINE
8
0
62
1
10
2201,01
20
-259,5
30
0
11
2201,01
21
-884,5
31
0
0
LINE
8
0
62
1
10
2201,01
20
-884,5
30
0
11
2186,01
21
-884,5
31
0
0
LINE
8
0
62
1
10
2186,01
20
-884,5
30
0
11
2186,01
21
-934,5
31
0
0
LINE
8
0
62
1
10
2186,01
20
-934,5
30
0
11
2201,01
21
-934,5
31
0
0
LINE
8
0
62
1
10
2201,01
20
-934,5
30
0
11
2201,01
21
-972
31
0
0
LINE
8
0
62
1
10
2201,01
20
-972
30
0
11
2201,01
21
-976
31
0
0
LINE
8
0
6
HIDDEN
62
1
10
2201,01
20
-976
30
0
11
2200,76
21
-15,9
31
0
0
ARC
8
0
62
1
10
2201,11
20
-30,89
30
0
40
14,994
50
91,337
51
224,999
0
LINE
8
0
62
1
10
2190,5
20
-41,5
30
0
11
2223
21
-74
31
0
0
LINE
8
0
62
1
10
2223
20
-74
30
0
11
2223
21
-154
31
0
0
LINE
8
0
62
1
10
2223
20
-154
30
0
11
1683
21
-154
31
0
0
LINE
8
0
62
1
10
1683
20
-154
30
0
11
1683
21
-74
31
0
0
LINE
8
0
62
1
10
1683
20
-74
30
0
11
1748
21
-9
31
0
0
LINE
8
0
62
1
10
1748
20
-9
30
0
11
2158
21
-9
31
0
0
LINE
8
0
62
1
10
2158
20
-9
30
0
11
2190,5
21
-41,5
31
0
0
LINE
8
0
62
1
10
2190,5
20
-41,5
30
0
11
2198,5
21
-41,5
31
0
0
LINE
8
0
6
HIDDEN
62
1
10
2198,5
20
-41,5
30
0
11
2393
21
-1660
31
0
0
LINE
8
0
62
1
10
2393
20
-1660
30
0
11
2368
21
-1660
31
0
0
LINE
8
0
62
1
10
2368
20
-1660
30
0
11
2288
21
-1660
31
0
0
LINE
8
0
62
1
10
2288
20
-1660
30
0
11
2223
21
-1595
31
0
0
LINE
8
0
62
1
10
2223
20
-1595
30
0
11
2223
21
-1185
31
0
0
LINE
8
0
62
1
10
2223
20
-1185
30
0
11
2288
21
-1120
31
0
0
LINE
8
0
62
1
10
2288
20
-1120
30
0
11
2368
21
-1120
31
0
0
LINE
8
0
62
1
10
2368
20
-1120
30
0
11
2368
21
-1660
31
0
0
LINE
8
0
62
1
10
2368
20
-1660
30
0
11
2368
21
-1668
31
0
0
LINE
8
0
6
HIDDEN
62
1
10
2368
20
-1668
30
0
11
2470,36
21
-979,151
31
0
0
ARC
8
0
62
1
10
2460
20
-990
30
0
40
15,001
50
46,323
51
180
0
LINE
8
0
62
1
10
2445
20
-990
30
0
11
2445
21
-1102
31
0
0
LINE
8
0
62
1
10
2445
20
-1102
30
0
11
2407,5
21
-1102
31
0
0
LINE
8
0
62
1
10
2407,5
20
-1102
30
0
11
2407,5
21
-1087
31
0
0
LINE
8
0
62
1
10
2407,5
20
-1087
30
0
11
2357,5
21
-1087
31
0
0
LINE
8
0
62
1
10
2357,5
20
-1087
30
0
11
2357,5
21
-1102
31
0
0
LINE
8
0
62
1
10
2357,5
20
-1102
30
0
11
1732,5
21
-1102
31
0
0
LINE
8
0
62
1
10
1732,5
20
-1102
30
0
11
1732,5
21
-1087
31
0
0
LINE
8
0
62
1
10
1732,5
20
-1087
30
0
11
1682,5
21
-1087
31
0
0
LINE
8
0
62
1
10
1682,5
20
-1087
30
0
11
1682,5
21
-1102
31
0
0
LINE
8
0
62
1
10
1682,5
20
-1102
30
0
11
1645
21
-1102
31
0
0
LINE
8
0
62
1
10
1645
20
-1102
30
0
11
1645
21
-990
31
0
0
LINE
8
0
62
1
10
1645
20
-990
30
0
11
2445
21
-990
31
0
0
LINE
8
0
62
1
10
2445
20
-990
30
0
11
2450,659
21
-984,341
31
0
0
LINE
8
0
6
HIDDEN
62
1
10
2450,659
20
-984,341
30
0
11
2343,51
21
-972
31
0
0
LINE
8
0
62
1
10
2343,51
20
-972
30
0
11
2331,01
21
-972
31
0
0
LINE
8
0
62
1
10
2331,01
20
-972
30
0
11
2219,01
21
-972
31
0
0
LINE
8
0
62
1
10
2219,01
20
-972
30
0
11
2219,01
21
-172
31
0
0
LINE
8
0
62
1
10
2219,01
20
-172
30
0
11
2331,01
21
-172
31
0
0
LINE
8
0
62
1
10
2331,01
20
-172
30
0
11
2331,01
21
-209,5
31
0
0
LINE
8
0
62
1
10
2331,01
20
-209,5
30
0
11
2316,01
21
-209,5
31
0
0
LINE
8
0
62
1
10
2316,01
20
-209,5
30
0
11
2316,01
21
-259,5
31
0
0
LINE
8
0
62
1
10
2316,01
20
-259,5
30
0
11
2331,01
21
-259,5
31
0
0
LINE
8
0
62
1
10
2331,01
20
-259,5
30
0
11
2331,01
21
-884,5
31
0
0
LINE
8
0
62
1
10
2331,01
20
-884,5
30
0
11
2316,01
21
-884,5
31
0
0
LINE
8
0
62
1
10
2316,01
20
-884,5
30
0
11
2316,01
21
-934,5
31
0
0
LINE
8
0
62
1
10
2316,01
20
-934,5
30
0
11
2331,01
21
-934,5
31
0
0
LINE
8
0
62
1
10
2331,01
20
-934,5
30
0
11
2331,01
21
-972
31
0
0
LINE
8
0
62
1
10
2331,01
20
-972
30
0
11
2331,01
21
-976
31
0
0
LINE
8
0
6
HIDDEN
62
1
10
2331,01
20
-976
30
0
11
2575
21
-1816
31
0
0
LINE
8
0
62
1
10
2575
20
-1816
30
0
11
2575
21
-1841
31
0
0
LINE
8
0
62
1
10
2575
20
-1841
30
0
11
2575
21
-1921
31
0
0
LINE
8
0
62
1
10
2575
20
-1921
30
0
11
2510
21
-1986
31
0
0
LINE
8
0
62
1
10
2510
20
-1986
30
0
11
2100
21
-1986
31
0
0
LINE
8
0
62
1
10
2100
20
-1986
30
0
11
2035
21
-1921
31
0
0
LINE
8
0
62
1
10
2035
20
-1921
30
0
11
2035
21
-1841
31
0
0
LINE
8
0
62
1
10
2035
20
-1841
30
0
11
2575
21
-1841
31
0
0
LINE
8
0
62
1
10
2575
20
-1841
30
0
11
2583
21
-1841
31
0
0
LINE
8
0
6
HIDDEN
62
1
10
2583
20
-1841
30
0
11
2575
21
-1653
31
0
0
LINE
8
0
62
1
10
2575
20
-1653
30
0
11
2575
21
-1678
31
0
0
LINE
8
0
62
1
10
2575
20
-1678
30
0
11
2575
21
-1758
31
0
0
LINE
8
0
62
1
10
2575
20
-1758
30
0
11
2510
21
-1823
31
0
0
LINE
8
0
62
1
10
2510
20
-1823
30
0
11
2100
21
-1823
31
0
0
LINE
8
0
62
1
10
2100
20
-1823
30
0
11
2035
21
-1758
31
0
0
LINE
8
0
62
1
10
2035
20
-1758
30
0
11
2035
21
-1678
31
0
0
LINE
8
0
62
1
10
2035
20
-1678
30
0
11
2575
21
-1678
31
0
0
LINE
8
0
62
1
10
2575
20
-1678
30
0
11
2583
21
-1678
31
0
0
LINE
8
0
6
HIDDEN
62
1
10
2583
20
-1678
30
0
11
2556
21
-1660
31
0
0
LINE
8
0
62
1
10
2556
20
-1660
30
0
11
2531
21
-1660
31
0
0
LINE
8
0
62
1
10
2531
20
-1660
30
0
11
2451
21
-1660
31
0
0
LINE
8
0
62
1
10
2451
20
-1660
30
0
11
2386
21
-1595
31
0
0
LINE
8
0
62
1
10
2386
20
-1595
30
0
11
2386
21
-1185
31
0
0
LINE
8
0
62
1
10
2386
20
-1185
30
0
11
2451
21
-1120
31
0
0
LINE
8
0
62
1
10
2451
20
-1120
30
0
11
2531
21
-1120
31
0
0
LINE
8
0
62
1
10
2531
20
-1120
30
0
11
2531
21
-1660
31
0
0
LINE
8
0
62
1
10
2531
20
-1660
30
0
11
2531
21
-1668
31
0
0
LINE
8
0
6
HIDDEN
62
1
10
2531
20
-1668
30
0
11
2473,51
21
-972
31
0
0
LINE
8
0
62
1
10
2473,51
20
-972
30
0
11
2461,01
21
-972
31
0
0
LINE
8
0
62
1
10
2461,01
20
-972
30
0
11
2349,01
21
-972
31
0
0
LINE
8
0
62
1
10
2349,01
20
-972
30
0
11
2349,01
21
-172
31
0
0
LINE
8
0
62
1
10
2349,01
20
-172
30
0
11
2461,01
21
-172
31
0
0
LINE
8
0
62
1
10
2461,01
20
-172
30
0
11
2461,01
21
-209,5
31
0
0
LINE
8
0
62
1
10
2461,01
20
-209,5
30
0
11
2446,01
21
-209,5
31
0
0
LINE
8
0
62
1
10
2446,01
20
-209,5
30
0
11
2446,01
21
-259,5
31
0
0
LINE
8
0
62
1
10
2446,01
20
-259,5
30
0
11
2461,01
21
-259,5
31
0
0
LINE
8
0
62
1
10
2461,01
20
-259,5
30
0
11
2461,01
21
-884,5
31
0
0
LINE
8
0
62
1
10
2461,01
20
-884,5
30
0
11
2446,01
21
-884,5
31
0
0
LINE
8
0
62
1
10
2446,01
20
-884,5
30
0
11
2446,01
21
-934,5
31
0
0
LINE
8
0
62
1
10
2446,01
20
-934,5
30
0
11
2461,01
21
-934,5
31
0
0
LINE
8
0
62
1
10
2461,01
20
-934,5
30
0
11
2461,01
21
-972
31
0
0
LINE
8
0
62
1
10
2461,01
20
-972
30
0
11
2461,01
21
-976
31
0
0
LINE
8
0
6
HIDDEN
62
1
10
2461,01
20
-976
30
0
11
2719
21
-1660
31
0
0
LINE
8
0
62
1
10
2719
20
-1660
30
0
11
2694
21
-1660
31
0
0
LINE
8
0
62
1
10
2694
20
-1660
30
0
11
2614
21
-1660
31
0
0
LINE
8
0
62
1
10
2614
20
-1660
30
0
11
2549
21
-1595
31
0
0
LINE
8
0
62
1
10
2549
20
-1595
30
0
11
2549
21
-1185
31
0
0
LINE
8
0
62
1
10
2549
20
-1185
30
0
11
2614
21
-1120
31
0
0
LINE
8
0
62
1
10
2614
20
-1120
30
0
11
2694
21
-1120
31
0
0
LINE
8
0
62
1
10
2694
20
-1120
30
0
11
2694
21
-1660
31
0
0
LINE
8
0
62
1
10
2694
20
-1660
30
0
11
2694
21
-1668
31
0
0
LINE
8
0
6
HIDDEN
62
1
10
2694
20
-1668
30
0
11
2603,51
21
-972
31
0
0
LINE
8
0
62
1
10
2603,51
20
-972
30
0
11
2591,01
21
-972
31
0
0
LINE
8
0
62
1
10
2591,01
20
-972
30
0
11
2479,01
21
-972
31
0
0
LINE
8
0
62
1
10
2479,01
20
-972
30
0
11
2479,01
21
-172
31
0
0
LINE
8
0
62
1
10
2479,01
20
-172
30
0
11
2591,01
21
-172
31
0
0
LINE
8
0
62
1
10
2591,01
20
-172
30
0
11
2591,01
21
-209,5
31
0
0
LINE
8
0
62
1
10
2591,01
20
-209,5
30
0
11
2576,01
21
-209,5
31
0
0
LINE
8
0
62
1
10
2576,01
20
-209,5
30
0
11
2576,01
21
-259,5
31
0
0
LINE
8
0
62
1
10
2576,01
20
-259,5
30
0
11
2591,01
21
-259,5
31
0
0
LINE
8
0
62
1
10
2591,01
20
-259,5
30
0
11
2591,01
21
-884,5
31
0
0
LINE
8
0
62
1
10
2591,01
20
-884,5
30
0
11
2576,01
21
-884,5
31
0
0
LINE
8
0
62
1
10
2576,01
20
-884,5
30
0
11
2576,01
21
-934,5
31
0
0
LINE
8
0
62
1
10
2576,01
20
-934,5
30
0
11
2591,01
21
-934,5
31
0
0
LINE
8
0
62
1
10
2591,01
20
-934,5
30
0
11
2591,01
21
-972
31
0
0
LINE
8
0
62
1
10
2591,01
20
-972
30
0
11
2591,01
21
-976
31
0
0
LINE
8
0
6
HIDDEN
62
1
10
2591,01
20
-976
30
0
11
2733,51
21
-972
31
0
0
LINE
8
0
62
1
10
2733,51
20
-972
30
0
11
2721,01
21
-972
31
0
0
LINE
8
0
62
1
10
2721,01
20
-972
30
0
11
2609,01
21
-972
31
0
0
LINE
8
0
62
1
10
2609,01
20
-972
30
0
11
2609,01
21
-172
31
0
0
LINE
8
0
62
1
10
2609,01
20
-172
30
0
11
2721,01
21
-172
31
0
0
LINE
8
0
62
1
10
2721,01
20
-172
30
0
11
2721,01
21
-209,5
31
0
0
LINE
8
0
62
1
10
2721,01
20
-209,5
30
0
11
2706,01
21
-209,5
31
0
0
LINE
8
0
62
1
10
2706,01
20
-209,5
30
0
11
2706,01
21
-259,5
31
0
0
LINE
8
0
62
1
10
2706,01
20
-259,5
30
0
11
2721,01
21
-259,5
31
0
0
LINE
8
0
62
1
10
2721,01
20
-259,5
30
0
11
2721,01
21
-884,5
31
0
0
LINE
8
0
62
1
10
2721,01
20
-884,5
30
0
11
2706,01
21
-884,5
31
0
0
LINE
8
0
62
1
10
2706,01
20
-884,5
30
0
11
2706,01
21
-934,5
31
0
0
LINE
8
0
62
1
10
2706,01
20
-934,5
30
0
11
2721,01
21
-934,5
31
0
0
LINE
8
0
62
1
10
2721,01
20
-934,5
30
0
11
2721,01
21
-972
31
0
0
LINE
8
0
62
1
10
2721,01
20
-972
30
0
11
2721,01
21
-976
31
0
0
LINE
8
0
6
HIDDEN
62
1
10
2721,01
20
-976
30
0
11
2758,76
21
-15,9
31
0
0
ARC
8
0
62
1
10
2759,11
20
-30,89
30
0
40
14,994
50
91,337
51
224,999
0
LINE
8
0
62
1
10
2748,5
20
-41,5
30
0
11
2781
21
-74
31
0
0
LINE
8
0
62
1
10
2781
20
-74
30
0
11
2781
21
-154
31
0
0
LINE
8
0
62
1
10
2781
20
-154
30
0
11
2241
21
-154
31
0
0
LINE
8
0
62
1
10
2241
20
-154
30
0
11
2241
21
-74
31
0
0
LINE
8
0
62
1
10
2241
20
-74
30
0
11
2306
21
-9
31
0
0
LINE
8
0
62
1
10
2306
20
-9
30
0
11
2716
21
-9
31
0
0
LINE
8
0
62
1
10
2716
20
-9
30
0
11
2748,5
21
-41,5
31
0
0
LINE
8
0
62
1
10
2748,5
20
-41,5
30
0
11
2756,5
21
-41,5
31
0
0
LINE
8
0
6
HIDDEN
62
1
10
2756,5
20
-41,5
30
0
11
2882
21
-1660
31
0
0
LINE
8
0
62
1
10
2882
20
-1660
30
0
11
2857
21
-1660
31
0
0
LINE
8
0
62
1
10
2857
20
-1660
30
0
11
2777
21
-1660
31
0
0
LINE
8
0
62
1
10
2777
20
-1660
30
0
11
2712
21
-1595
31
0
0
LINE
8
0
62
1
10
2712
20
-1595
30
0
11
2712
21
-1185
31
0
0
LINE
8
0
62
1
10
2712
20
-1185
30
0
11
2777
21
-1120
31
0
0
LINE
8
0
62
1
10
2777
20
-1120
30
0
11
2857
21
-1120
31
0
0
LINE
8
0
62
1
10
2857
20
-1120
30
0
11
2857
21
-1660
31
0
0
LINE
8
0
62
1
10
2857
20
-1660
30
0
11
2857
21
-1668
31
0
0
LINE
8
0
6
HIDDEN
62
1
10
2857
20
-1668
30
0
11
2863,51
21
-972
31
0
0
LINE
8
0
62
1
10
2863,51
20
-972
30
0
11
2851,01
21
-972
31
0
0
LINE
8
0
62
1
10
2851,01
20
-972
30
0
11
2739,01
21
-972
31
0
0
LINE
8
0
62
1
10
2739,01
20
-972
30
0
11
2739,01
21
-172
31
0
0
LINE
8
0
62
1
10
2739,01
20
-172
30
0
11
2851,01
21
-172
31
0
0
LINE
8
0
62
1
10
2851,01
20
-172
30
0
11
2851,01
21
-209,5
31
0
0
LINE
8
0
62
1
10
2851,01
20
-209,5
30
0
11
2836,01
21
-209,5
31
0
0
LINE
8
0
62
1
10
2836,01
20
-209,5
30
0
11
2836,01
21
-259,5
31
0
0
LINE
8
0
62
1
10
2836,01
20
-259,5
30
0
11
2851,01
21
-259,5
31
0
0
LINE
8
0
62
1
10
2851,01
20
-259,5
30
0
11
2851,01
21
-884,5
31
0
0
LINE
8
0
62
1
10
2851,01
20
-884,5
30
0
11
2836,01
21
-884,5
31
0
0
LINE
8
0
62
1
10
2836,01
20
-884,5
30
0
11
2836,01
21
-934,5
31
0
0
LINE
8
0
62
1
10
2836,01
20
-934,5
30
0
11
2851,01
21
-934,5
31
0
0
LINE
8
0
62
1
10
2851,01
20
-934,5
30
0
11
2851,01
21
-972
31
0
0
LINE
8
0
62
1
10
2851,01
20
-972
30
0
11
2851,01
21
-976
31
0
0
LINE
8
0
6
HIDDEN
62
1
10
2851,01
20
-976
30
0
11
3045
21
-1660
31
0
0
LINE
8
0
62
1
10
3045
20
-1660
30
0
11
3020
21
-1660
31
0
0
LINE
8
0
62
1
10
3020
20
-1660
30
0
11
2940
21
-1660
31
0
0
LINE
8
0
62
1
10
2940
20
-1660
30
0
11
2875
21
-1595
31
0
0
LINE
8
0
62
1
10
2875
20
-1595
30
0
11
2875
21
-1185
31
0
0
LINE
8
0
62
1
10
2875
20
-1185
30
0
11
2940
21
-1120
31
0
0
LINE
8
0
62
1
10
2940
20
-1120
30
0
11
3020
21
-1120
31
0
0
LINE
8
0
62
1
10
3020
20
-1120
30
0
11
3020
21
-1660
31
0
0
LINE
8
0
62
1
10
3020
20
-1660
30
0
11
3020
21
-1668
31
0
0
LINE
8
0
6
HIDDEN
62
1
10
3020
20
-1668
30
0
11
2993,51
21
-972
31
0
0
LINE
8
0
62
1
10
2993,51
20
-972
30
0
11
2981,01
21
-972
31
0
0
LINE
8
0
62
1
10
2981,01
20
-972
30
0
11
2869,01
21
-972
31
0
0
LINE
8
0
62
1
10
2869,01
20
-972
30
0
11
2869,01
21
-172
31
0
0
LINE
8
0
62
1
10
2869,01
20
-172
30
0
11
2981,01
21
-172
31
0
0
LINE
8
0
62
1
10
2981,01
20
-172
30
0
11
2981,01
21
-209,5
31
0
0
LINE
8
0
62
1
10
2981,01
20
-209,5
30
0
11
2966,01
21
-209,5
31
0
0
LINE
8
0
62
1
10
2966,01
20
-209,5
30
0
11
2966,01
21
-259,5
31
0
0
LINE
8
0
62
1
10
2966,01
20
-259,5
30
0
11
2981,01
21
-259,5
31
0
0
LINE
8
0
62
1
10
2981,01
20
-259,5
30
0
11
2981,01
21
-884,5
31
0
0
LINE
8
0
62
1
10
2981,01
20
-884,5
30
0
11
2966,01
21
-884,5
31
0
0
LINE
8
0
62
1
10
2966,01
20
-884,5
30
0
11
2966,01
21
-934,5
31
0
0
LINE
8
0
62
1
10
2966,01
20
-934,5
30
0
11
2981,01
21
-934,5
31
0
0
LINE
8
0
62
1
10
2981,01
20
-934,5
30
0
11
2981,01
21
-972
31
0
0
LINE
8
0
62
1
10
2981,01
20
-972
30
0
11
2981,01
21
-976
31
0
0
LINE
8
0
6
HIDDEN
62
1
10
2981,01
20
-976
30
0
11
3133
21
-1816
31
0
0
LINE
8
0
62
1
10
3133
20
-1816
30
0
11
3133
21
-1841
31
0
0
LINE
8
0
62
1
10
3133
20
-1841
30
0
11
3133
21
-1921
31
0
0
LINE
8
0
62
1
10
3133
20
-1921
30
0
11
3068
21
-1986
31
0
0
LINE
8
0
62
1
10
3068
20
-1986
30
0
11
2658
21
-1986
31
0
0
LINE
8
0
62
1
10
2658
20
-1986
30
0
11
2593
21
-1921
31
0
0
LINE
8
0
62
1
10
2593
20
-1921
30
0
11
2593
21
-1841
31
0
0
LINE
8
0
62
1
10
2593
20
-1841
30
0
11
3133
21
-1841
31
0
0
LINE
8
0
62
1
10
3133
20
-1841
30
0
11
3141
21
-1841
31
0
0
LINE
8
0
6
HIDDEN
62
1
10
3141
20
-1841
30
0
11
3158,36
21
-1667,151
31
0
0
ARC
8
0
62
1
10
3148
20
-1678
30
0
40
15,001
50
46,323
51
180
0
LINE
8
0
62
1
10
3133
20
-1678
30
0
11
3133
21
-1758
31
0
0
LINE
8
0
62
1
10
3133
20
-1758
30
0
11
3068
21
-1823
31
0
0
LINE
8
0
62
1
10
3068
20
-1823
30
0
11
2658
21
-1823
31
0
0
LINE
8
0
62
1
10
2658
20
-1823
30
0
11
2593
21
-1758
31
0
0
LINE
8
0
62
1
10
2593
20
-1758
30
0
11
2593
21
-1678
31
0
0
LINE
8
0
62
1
10
2593
20
-1678
30
0
11
3133
21
-1678
31
0
0
LINE
8
0
62
1
10
3133
20
-1678
30
0
11
3138,659
21
-1672,34
31
0
0
LINE
8
0
6
HIDDEN
62
1
10
3138,659
20
-1672,34
30
0
11
3208
21
-1660
31
0
0
LINE
8
0
62
1
10
3208
20
-1660
30
0
11
3183
21
-1660
31
0
0
LINE
8
0
62
1
10
3183
20
-1660
30
0
11
3103
21
-1660
31
0
0
LINE
8
0
62
1
10
3103
20
-1660
30
0
11
3038
21
-1595
31
0
0
LINE
8
0
62
1
10
3038
20
-1595
30
0
11
3038
21
-1185
31
0
0
LINE
8
0
62
1
10
3038
20
-1185
30
0
11
3103
21
-1120
31
0
0
LINE
8
0
62
1
10
3103
20
-1120
30
0
11
3183
21
-1120
31
0
0
LINE
8
0
62
1
10
3183
20
-1120
30
0
11
3183
21
-1660
31
0
0
LINE
8
0
62
1
10
3183
20
-1660
30
0
11
3183
21
-1668
31
0
0
LINE
8
0
6
HIDDEN
62
1
10
3183
20
-1668
30
0
11
3123,51
21
-972
31
0
0
LINE
8
0
62
1
10
3123,51
20
-972
30
0
11
3111,01
21
-972
31
0
0
LINE
8
0
62
1
10
3111,01
20
-972
30
0
11
2999,01
21
-972
31
0
0
LINE
8
0
62
1
10
2999,01
20
-972
30
0
11
2999,01
21
-172
31
0
0
LINE
8
0
62
1
10
2999,01
20
-172
30
0
11
3111,01
21
-172
31
0
0
LINE
8
0
62
1
10
3111,01
20
-172
30
0
11
3111,01
21
-209,5
31
0
0
LINE
8
0
62
1
10
3111,01
20
-209,5
30
0
11
3096,01
21
-209,5
31
0
0
LINE
8
0
62
1
10
3096,01
20
-209,5
30
0
11
3096,01
21
-259,5
31
0
0
LINE
8
0
62
1
10
3096,01
20
-259,5
30
0
11
3111,01
21
-259,5
31
0
0
LINE
8
0
62
1
10
3111,01
20
-259,5
30
0
11
3111,01
21
-884,5
31
0
0
LINE
8
0
62
1
10
3111,01
20
-884,5
30
0
11
3096,01
21
-884,5
31
0
0
LINE
8
0
62
1
10
3096,01
20
-884,5
30
0
11
3096,01
21
-934,5
31
0
0
LINE
8
0
62
1
10
3096,01
20
-934,5
30
0
11
3111,01
21
-934,5
31
0
0
LINE
8
0
62
1
10
3111,01
20
-934,5
30
0
11
3111,01
21
-972
31
0
0
LINE
8
0
62
1
10
3111,01
20
-972
30
0
11
3111,01
21
-976
31
0
0
LINE
8
0
6
HIDDEN
62
1
10
3111,01
20
-976
30
0
11
3371
21
-1660
31
0
0
LINE
8
0
62
1
10
3371
20
-1660
30
0
11
3346
21
-1660
31
0
0
LINE
8
0
62
1
10
3346
20
-1660
30
0
11
3266
21
-1660
31
0
0
LINE
8
0
62
1
10
3266
20
-1660
30
0
11
3201
21
-1595
31
0
0
LINE
8
0
62
1
10
3201
20
-1595
30
0
11
3201
21
-1185
31
0
0
LINE
8
0
62
1
10
3201
20
-1185
30
0
11
3266
21
-1120
31
0
0
LINE
8
0
62
1
10
3266
20
-1120
30
0
11
3346
21
-1120
31
0
0
LINE
8
0
62
1
10
3346
20
-1120
30
0
11
3346
21
-1660
31
0
0
LINE
8
0
62
1
10
3346
20
-1660
30
0
11
3346
21
-1668
31
0
0
LINE
8
0
6
HIDDEN
62
1
10
3346
20
-1668
30
0
11
3288,36
21
-979,151
31
0
0
ARC
8
0
62
1
10
3278
20
-990
30
0
40
15,001
50
46,323
51
180
0
LINE
8
0
62
1
10
3263
20
-990
30
0
11
3263
21
-1102
31
0
0
LINE
8
0
62
1
10
3263
20
-1102
30
0
11
3225,5
21
-1102
31
0
0
LINE
8
0
62
1
10
3225,5
20
-1102
30
0
11
3225,5
21
-1087
31
0
0
LINE
8
0
62
1
10
3225,5
20
-1087
30
0
11
3175,5
21
-1087
31
0
0
LINE
8
0
62
1
10
3175,5
20
-1087
30
0
11
3175,5
21
-1102
31
0
0
LINE
8
0
62
1
10
3175,5
20
-1102
30
0
11
2550,5
21
-1102
31
0
0
LINE
8
0
62
1
10
2550,5
20
-1102
30
0
11
2550,5
21
-1087
31
0
0
LINE
8
0
62
1
10
2550,5
20
-1087
30
0
11
2500,5
21
-1087
31
0
0
LINE
8
0
62
1
10
2500,5
20
-1087
30
0
11
2500,5
21
-1102
31
0
0
LINE
8
0
62
1
10
2500,5
20
-1102
30
0
11
2463
21
-1102
31
0
0
LINE
8
0
62
1
10
2463
20
-1102
30
0
11
2463
21
-990
31
0
0
LINE
8
0
62
1
10
2463
20
-990
30
0
11
3263
21
-990
31
0
0
LINE
8
0
62
1
10
3263
20
-990
30
0
11
3268,659
21
-984,341
31
0
0
LINE
8
0
6
HIDDEN
62
1
10
3268,659
20
-984,341
30
0
11
3253,52
21
-972
31
0
0
LINE
8
0
62
1
10
3253,52
20
-972
30
0
11
3241,02
21
-972
31
0
0
LINE
8
0
62
1
10
3241,02
20
-972
30
0
11
3129,02
21
-972
31
0
0
LINE
8
0
62
1
10
3129,02
20
-972
30
0
11
3129,02
21
-172
31
0
0
LINE
8
0
62
1
10
3129,02
20
-172
30
0
11
3241,02
21
-172
31
0
0
LINE
8
0
62
1
10
3241,02
20
-172
30
0
11
3241,02
21
-209,5
31
0
0
LINE
8
0
62
1
10
3241,02
20
-209,5
30
0
11
3226,02
21
-209,5
31
0
0
LINE
8
0
62
1
10
3226,02
20
-209,5
30
0
11
3226,02
21
-259,5
31
0
0
LINE
8
0
62
1
10
3226,02
20
-259,5
30
0
11
3241,02
21
-259,5
31
0
0
LINE
8
0
62
1
10
3241,02
20
-259,5
30
0
11
3241,02
21
-884,5
31
0
0
LINE
8
0
62
1
10
3241,02
20
-884,5
30
0
11
3226,02
21
-884,5
31
0
0
LINE
8
0
62
1
10
3226,02
20
-884,5
30
0
11
3226,02
21
-934,5
31
0
0
LINE
8
0
62
1
10
3226,02
20
-934,5
30
0
11
3241,02
21
-934,5
31
0
0
LINE
8
0
62
1
10
3241,02
20
-934,5
30
0
11
3241,02
21
-972
31
0
0
LINE
8
0
62
1
10
3241,02
20
-972
30
0
11
3241,02
21
-976
31
0
0
LINE
8
0
6
HIDDEN
62
1
10
3241,02
20
-976
30
0
11
3316,76
21
-15,9
31
0
0
ARC
8
0
62
1
10
3317,11
20
-30,89
30
0
40
14,994
50
91,337
51
224,999
0
LINE
8
0
62
1
10
3306,5
20
-41,5
30
0
11
3339
21
-74
31
0
0
LINE
8
0
62
1
10
3339
20
-74
30
0
11
3339
21
-154
31
0
0
LINE
8
0
62
1
10
3339
20
-154
30
0
11
2799
21
-154
31
0
0
LINE
8
0
62
1
10
2799
20
-154
30
0
11
2799
21
-74
31
0
0
LINE
8
0
62
1
10
2799
20
-74
30
0
11
2864
21
-9
31
0
0
LINE
8
0
62
1
10
2864
20
-9
30
0
11
3274
21
-9
31
0
0
LINE
8
0
62
1
10
3274
20
-9
30
0
11
3306,5
21
-41,5
31
0
0
LINE
8
0
62
1
10
3306,5
20
-41,5
30
0
11
3314,5
21
-41,5
31
0
0
LINE
8
0
6
HIDDEN
62
1
10
3314,5
20
-41,5
30
0
11
3383,52
21
-972
31
0
0
LINE
8
0
62
1
10
3383,52
20
-972
30
0
11
3371,02
21
-972
31
0
0
LINE
8
0
62
1
10
3371,02
20
-972
30
0
11
3259,02
21
-972
31
0
0
LINE
8
0
62
1
10
3259,02
20
-972
30
0
11
3259,02
21
-172
31
0
0
LINE
8
0
62
1
10
3259,02
20
-172
30
0
11
3371,02
21
-172
31
0
0
LINE
8
0
62
1
10
3371,02
20
-172
30
0
11
3371,02
21
-209,5
31
0
0
LINE
8
0
62
1
10
3371,02
20
-209,5
30
0
11
3356,02
21
-209,5
31
0
0
LINE
8
0
62
1
10
3356,02
20
-209,5
30
0
11
3356,02
21
-259,5
31
0
0
LINE
8
0
62
1
10
3356,02
20
-259,5
30
0
11
3371,02
21
-259,5
31
0
0
LINE
8
0
62
1
10
3371,02
20
-259,5
30
0
11
3371,02
21
-884,5
31
0
0
LINE
8
0
62
1
10
3371,02
20
-884,5
30
0
11
3356,02
21
-884,5
31
0
0
LINE
8
0
62
1
10
3356,02
20
-884,5
30
0
11
3356,02
21
-934,5
31
0
0
LINE
8
0
62
1
10
3356,02
20
-934,5
30
0
11
3371,02
21
-934,5
31
0
0
LINE
8
0
62
1
10
3371,02
20
-934,5
30
0
11
3371,02
21
-972
31
0
0
LINE
8
0
62
1
10
3371,02
20
-972
30
0
11
3371,02
21
-976
31
0
0
LINE
8
0
6
HIDDEN
62
1
10
3371,02
20
-976
30
0
11
3534
21
-1660
31
0
0
LINE
8
0
62
1
10
3534
20
-1660
30
0
11
3509
21
-1660
31
0
0
LINE
8
0
62
1
10
3509
20
-1660
30
0
11
3429
21
-1660
31
0
0
LINE
8
0
62
1
10
3429
20
-1660
30
0
11
3364
21
-1595
31
0
0
LINE
8
0
62
1
10
3364
20
-1595
30
0
11
3364
21
-1185
31
0
0
LINE
8
0
62
1
10
3364
20
-1185
30
0
11
3429
21
-1120
31
0
0
LINE
8
0
62
1
10
3429
20
-1120
30
0
11
3509
21
-1120
31
0
0
LINE
8
0
62
1
10
3509
20
-1120
30
0
11
3509
21
-1660
31
0
0
LINE
8
0
62
1
10
3509
20
-1660
30
0
11
3509
21
-1668
31
0
0
LINE
8
0
6
HIDDEN
62
1
10
3509
20
-1668
30
0
11
3513,52
21
-972
31
0
0
LINE
8
0
62
1
10
3513,52
20
-972
30
0
11
3501,02
21
-972
31
0
0
LINE
8
0
62
1
10
3501,02
20
-972
30
0
11
3389,02
21
-972
31
0
0
LINE
8
0
62
1
10
3389,02
20
-972
30
0
11
3389,02
21
-172
31
0
0
LINE
8
0
62
1
10
3389,02
20
-172
30
0
11
3501,02
21
-172
31
0
0
LINE
8
0
62
1
10
3501,02
20
-172
30
0
11
3501,02
21
-209,5
31
0
0
LINE
8
0
62
1
10
3501,02
20
-209,5
30
0
11
3486,02
21
-209,5
31
0
0
LINE
8
0
62
1
10
3486,02
20
-209,5
30
0
11
3486,02
21
-259,5
31
0
0
LINE
8
0
62
1
10
3486,02
20
-259,5
30
0
11
3501,02
21
-259,5
31
0
0
LINE
8
0
62
1
10
3501,02
20
-259,5
30
0
11
3501,02
21
-884,5
31
0
0
LINE
8
0
62
1
10
3501,02
20
-884,5
30
0
11
3486,02
21
-884,5
31
0
0
LINE
8
0
62
1
10
3486,02
20
-884,5
30
0
11
3486,02
21
-934,5
31
0
0
LINE
8
0
62
1
10
3486,02
20
-934,5
30
0
11
3501,02
21
-934,5
31
0
0
LINE
8
0
62
1
10
3501,02
20
-934,5
30
0
11
3501,02
21
-972
31
0
0
LINE
8
0
62
1
10
3501,02
20
-972
30
0
11
3501,02
21
-976
31
0
0
LINE
8
0
6
HIDDEN
62
1
10
3501,02
20
-976
30
0
11
3691
21
-1816
31
0
0
LINE
8
0
62
1
10
3691
20
-1816
30
0
11
3691
21
-1841
31
0
0
LINE
8
0
62
1
10
3691
20
-1841
30
0
11
3691
21
-1921
31
0
0
LINE
8
0
62
1
10
3691
20
-1921
30
0
11
3626
21
-1986
31
0
0
LINE
8
0
62
1
10
3626
20
-1986
30
0
11
3216
21
-1986
31
0
0
LINE
8
0
62
1
10
3216
20
-1986
30
0
11
3151
21
-1921
31
0
0
LINE
8
0
62
1
10
3151
20
-1921
30
0
11
3151
21
-1841
31
0
0
LINE
8
0
62
1
10
3151
20
-1841
30
0
11
3691
21
-1841
31
0
0
LINE
8
0
62
1
10
3691
20
-1841
30
0
11
3699
21
-1841
31
0
0
LINE
8
0
6
HIDDEN
62
1
10
3699
20
-1841
30
0
11
3651
21
-1823
31
0
0
LINE
8
0
62
1
10
3651
20
-1823
30
0
11
3626
21
-1823
31
0
0
LINE
8
0
62
1
10
3626
20
-1823
30
0
11
3216
21
-1823
31
0
0
LINE
8
0
62
1
10
3216
20
-1823
30
0
11
3151
21
-1758
31
0
0
LINE
8
0
62
1
10
3151
20
-1758
30
0
11
3151
21
-1678
31
0
0
LINE
8
0
62
1
10
3151
20
-1678
30
0
11
3691
21
-1678
31
0
0
LINE
8
0
62
1
10
3691
20
-1678
30
0
11
3691
21
-1758
31
0
0
LINE
8
0
62
1
10
3691
20
-1758
30
0
11
3626
21
-1823
31
0
0
LINE
8
0
62
1
10
3626
20
-1823
30
0
11
3620,35
21
-1828,661
31
0
0
LINE
8
0
6
HIDDEN
62
1
10
3620,35
20
-1828,661
30
0
11
3697
21
-1660
31
0
0
LINE
8
0
62
1
10
3697
20
-1660
30
0
11
3672
21
-1660
31
0
0
LINE
8
0
62
1
10
3672
20
-1660
30
0
11
3592
21
-1660
31
0
0
LINE
8
0
62
1
10
3592
20
-1660
30
0
11
3527
21
-1595
31
0
0
LINE
8
0
62
1
10
3527
20
-1595
30
0
11
3527
21
-1185
31
0
0
LINE
8
0
62
1
10
3527
20
-1185
30
0
11
3592
21
-1120
31
0
0
LINE
8
0
62
1
10
3592
20
-1120
30
0
11
3672
21
-1120
31
0
0
LINE
8
0
62
1
10
3672
20
-1120
30
0
11
3672
21
-1660
31
0
0
LINE
8
0
62
1
10
3672
20
-1660
30
0
11
3672
21
-1668
31
0
0
LINE
8
0
6
HIDDEN
62
1
10
3672
20
-1668
30
0
11
3643,52
21
-972
31
0
0
LINE
8
0
62
1
10
3643,52
20
-972
30
0
11
3631,02
21
-972
31
0
0
LINE
8
0
62
1
10
3631,02
20
-972
30
0
11
3519,02
21
-972
31
0
0
LINE
8
0
62
1
10
3519,02
20
-972
30
0
11
3519,02
21
-172
31
0
0
LINE
8
0
62
1
10
3519,02
20
-172
30
0
11
3631,02
21
-172
31
0
0
LINE
8
0
62
1
10
3631,02
20
-172
30
0
11
3631,02
21
-209,5
31
0
0
LINE
8
0
62
1
10
3631,02
20
-209,5
30
0
11
3616,02
21
-209,5
31
0
0
LINE
8
0
62
1
10
3616,02
20
-209,5
30
0
11
3616,02
21
-259,5
31
0
0
LINE
8
0
62
1
10
3616,02
20
-259,5
30
0
11
3631,02
21
-259,5
31
0
0
LINE
8
0
62
1
10
3631,02
20
-259,5
30
0
11
3631,02
21
-884,5
31
0
0
LINE
8
0
62
1
10
3631,02
20
-884,5
30
0
11
3616,02
21
-884,5
31
0
0
LINE
8
0
62
1
10
3616,02
20
-884,5
30
0
11
3616,02
21
-934,5
31
0
0
LINE
8
0
62
1
10
3616,02
20
-934,5
30
0
11
3631,02
21
-934,5
31
0
0
LINE
8
0
62
1
10
3631,02
20
-934,5
30
0
11
3631,02
21
-972
31
0
0
LINE
8
0
62
1
10
3631,02
20
-972
30
0
11
3631,02
21
-976
31
0
0
LINE
8
0
6
HIDDEN
62
1
10
3631,02
20
-976
30
0
11
3860
21
-1660
31
0
0
LINE
8
0
62
1
10
3860
20
-1660
30
0
11
3835
21
-1660
31
0
0
LINE
8
0
62
1
10
3835
20
-1660
30
0
11
3755
21
-1660
31
0
0
LINE
8
0
62
1
10
3755
20
-1660
30
0
11
3690
21
-1595
31
0
0
LINE
8
0
62
1
10
3690
20
-1595
30
0
11
3690
21
-1185
31
0
0
LINE
8
0
62
1
10
3690
20
-1185
30
0
11
3755
21
-1120
31
0
0
LINE
8
0
62
1
10
3755
20
-1120
30
0
11
3835
21
-1120
31
0
0
LINE
8
0
62
1
10
3835
20
-1120
30
0
11
3835
21
-1660
31
0
0
LINE
8
0
62
1
10
3835
20
-1660
30
0
11
3835
21
-1668
31
0
0
LINE
8
0
6
HIDDEN
62
1
10
3835
20
-1668
30
0
11
3773,52
21
-972
31
0
0
LINE
8
0
62
1
10
3773,52
20
-972
30
0
11
3761,02
21
-972
31
0
0
LINE
8
0
62
1
10
3761,02
20
-972
30
0
11
3649,02
21
-972
31
0
0
LINE
8
0
62
1
10
3649,02
20
-972
30
0
11
3649,02
21
-172
31
0
0
LINE
8
0
62
1
10
3649,02
20
-172
30
0
11
3761,02
21
-172
31
0
0
LINE
8
0
62
1
10
3761,02
20
-172
30
0
11
3761,02
21
-209,5
31
0
0
LINE
8
0
62
1
10
3761,02
20
-209,5
30
0
11
3746,02
21
-209,5
31
0
0
LINE
8
0
62
1
10
3746,02
20
-209,5
30
0
11
3746,02
21
-259,5
31
0
0
LINE
8
0
62
1
10
3746,02
20
-259,5
30
0
11
3761,02
21
-259,5
31
0
0
LINE
8
0
62
1
10
3761,02
20
-259,5
30
0
11
3761,02
21
-884,5
31
0
0
LINE
8
0
62
1
10
3761,02
20
-884,5
30
0
11
3746,02
21
-884,5
31
0
0
LINE
8
0
62
1
10
3746,02
20
-884,5
30
0
11
3746,02
21
-934,5
31
0
0
LINE
8
0
62
1
10
3746,02
20
-934,5
30
0
11
3761,02
21
-934,5
31
0
0
LINE
8
0
62
1
10
3761,02
20
-934,5
30
0
11
3761,02
21
-972
31
0
0
LINE
8
0
62
1
10
3761,02
20
-972
30
0
11
3761,02
21
-976
31
0
0
LINE
8
0
6
HIDDEN
62
1
10
3761,02
20
-976
30
0
11
4023
21
-1660
31
0
0
LINE
8
0
62
1
10
4023
20
-1660
30
0
11
3998
21
-1660
31
0
0
LINE
8
0
62
1
10
3998
20
-1660
30
0
11
3918
21
-1660
31
0
0
LINE
8
0
62
1
10
3918
20
-1660
30
0
11
3853
21
-1595
31
0
0
LINE
8
0
62
1
10
3853
20
-1595
30
0
11
3853
21
-1185
31
0
0
LINE
8
0
62
1
10
3853
20
-1185
30
0
11
3918
21
-1120
31
0
0
LINE
8
0
62
1
10
3918
20
-1120
30
0
11
3998
21
-1120
31
0
0
LINE
8
0
62
1
10
3998
20
-1120
30
0
11
3998
21
-1660
31
0
0
LINE
8
0
62
1
10
3998
20
-1660
30
0
11
3998
21
-1668
31
0
0
LINE
8
0
6
HIDDEN
62
1
10
3998
20
-1668
30
0
11
3903,52
21
-972
31
0
0
LINE
8
0
62
1
10
3903,52
20
-972
30
0
11
3891,02
21
-972
31
0
0
LINE
8
0
62
1
10
3891,02
20
-972
30
0
11
3779,02
21
-972
31
0
0
LINE
8
0
62
1
10
3779,02
20
-972
30
0
11
3779,02
21
-172
31
0
0
LINE
8
0
62
1
10
3779,02
20
-172
30
0
11
3891,02
21
-172
31
0
0
LINE
8
0
62
1
10
3891,02
20
-172
30
0
11
3891,02
21
-209,5
31
0
0
LINE
8
0
62
1
10
3891,02
20
-209,5
30
0
11
3876,02
21
-209,5
31
0
0
LINE
8
0
62
1
10
3876,02
20
-209,5
30
0
11
3876,02
21
-259,5
31
0
0
LINE
8
0
62
1
10
3876,02
20
-259,5
30
0
11
3891,02
21
-259,5
31
0
0
LINE
8
0
62
1
10
3891,02
20
-259,5
30
0
11
3891,02
21
-884,5
31
0
0
LINE
8
0
62
1
10
3891,02
20
-884,5
30
0
11
3876,02
21
-884,5
31
0
0
LINE
8
0
62
1
10
3876,02
20
-884,5
30
0
11
3876,02
21
-934,5
31
0
0
LINE
8
0
62
1
10
3876,02
20
-934,5
30
0
11
3891,02
21
-934,5
31
0
0
LINE
8
0
62
1
10
3891,02
20
-934,5
30
0
11
3891,02
21
-972
31
0
0
LINE
8
0
62
1
10
3891,02
20
-972
30
0
11
3891,02
21
-976
31
0
0
LINE
8
0
6
HIDDEN
62
1
10
3891,02
20
-976
30
0
11
3874,76
21
-15,9
31
0
0
ARC
8
0
62
1
10
3875,1
20
-30,89
30
0
40
14,993
50
91,299
51
225,026
0
LINE
8
0
62
1
10
3864,5
20
-41,5
30
0
11
3897
21
-74
31
0
0
LINE
8
0
62
1
10
3897
20
-74
30
0
11
3897
21
-154
31
0
0
LINE
8
0
62
1
10
3897
20
-154
30
0
11
3357
21
-154
31
0
0
LINE
8
0
62
1
10
3357
20
-154
30
0
11
3357
21
-74
31
0
0
LINE
8
0
62
1
10
3357
20
-74
30
0
11
3422
21
-9
31
0
0
LINE
8
0
62
1
10
3422
20
-9
30
0
11
3832
21
-9
31
0
0
LINE
8
0
62
1
10
3832
20
-9
30
0
11
3864,5
21
-41,5
31
0
0
LINE
8
0
62
1
10
3864,5
20
-41,5
30
0
11
3872,5
21
-41,5
31
0
0
LINE
8
0
6
HIDDEN
62
1
10
3872,5
20
-41,5
30
0
11
4106,359
21
-979,151
31
0
0
ARC
8
0
62
1
10
4096
20
-990
30
0
40
15,001
50
46,323
51
180
0
LINE
8
0
62
1
10
4081
20
-990
30
0
11
4081
21
-1102
31
0
0
LINE
8
0
62
1
10
4081
20
-1102
30
0
11
4043,5
21
-1102
31
0
0
LINE
8
0
62
1
10
4043,5
20
-1102
30
0
11
4043,5
21
-1087
31
0
0
LINE
8
0
62
1
10
4043,5
20
-1087
30
0
11
3993,5
21
-1087
31
0
0
LINE
8
0
62
1
10
3993,5
20
-1087
30
0
11
3993,5
21
-1102
31
0
0
LINE
8
0
62
1
10
3993,5
20
-1102
30
0
11
3368,5
21
-1102
31
0
0
LINE
8
0
62
1
10
3368,5
20
-1102
30
0
11
3368,5
21
-1087
31
0
0
LINE
8
0
62
1
10
3368,5
20
-1087
30
0
11
3318,5
21
-1087
31
0
0
LINE
8
0
62
1
10
3318,5
20
-1087
30
0
11
3318,5
21
-1102
31
0
0
LINE
8
0
62
1
10
3318,5
20
-1102
30
0
11
3281
21
-1102
31
0
0
LINE
8
0
62
1
10
3281
20
-1102
30
0
11
3281
21
-990
31
0
0
LINE
8
0
62
1
10
3281
20
-990
30
0
11
4081
21
-990
31
0
0
LINE
8
0
62
1
10
4081
20
-990
30
0
11
4086,659
21
-984,341
31
0
0
LINE
8
0
6
HIDDEN
62
1
10
4086,659
20
-984,341
30
0
11
4033,52
21
-972
31
0
0
LINE
8
0
62
1
10
4033,52
20
-972
30
0
11
4021,02
21
-972
31
0
0
LINE
8
0
62
1
10
4021,02
20
-972
30
0
11
3909,02
21
-972
31
0
0
LINE
8
0
62
1
10
3909,02
20
-972
30
0
11
3909,02
21
-172
31
0
0
LINE
8
0
62
1
10
3909,02
20
-172
30
0
11
4021,02
21
-172
31
0
0
LINE
8
0
62
1
10
4021,02
20
-172
30
0
11
4021,02
21
-209,5
31
0
0
LINE
8
0
62
1
10
4021,02
20
-209,5
30
0
11
4006,02
21
-209,5
31
0
0
LINE
8
0
62
1
10
4006,02
20
-209,5
30
0
11
4006,02
21
-259,5
31
0
0
LINE
8
0
62
1
10
4006,02
20
-259,5
30
0
11
4021,02
21
-259,5
31
0
0
LINE
8
0
62
1
10
4021,02
20
-259,5
30
0
11
4021,02
21
-884,5
31
0
0
LINE
8
0
62
1
10
4021,02
20
-884,5
30
0
11
4006,02
21
-884,5
31
0
0
LINE
8
0
62
1
10
4006,02
20
-884,5
30
0
11
4006,02
21
-934,5
31
0
0
LINE
8
0
62
1
10
4006,02
20
-934,5
30
0
11
4021,02
21
-934,5
31
0
0
LINE
8
0
62
1
10
4021,02
20
-934,5
30
0
11
4021,02
21
-972
31
0
0
LINE
8
0
62
1
10
4021,02
20
-972
30
0
11
4021,02
21
-976
31
0
0
LINE
8
0
6
HIDDEN
62
1
10
4021,02
20
-976
30
0
11
4249
21
-1816
31
0
0
LINE
8
0
62
1
10
4249
20
-1816
30
0
11
4249
21
-1841
31
0
0
LINE
8
0
62
1
10
4249
20
-1841
30
0
11
4249
21
-1921
31
0
0
LINE
8
0
62
1
10
4249
20
-1921
30
0
11
4184
21
-1986
31
0
0
LINE
8
0
62
1
10
4184
20
-1986
30
0
11
3774
21
-1986
31
0
0
LINE
8
0
62
1
10
3774
20
-1986
30
0
11
3709
21
-1921
31
0
0
LINE
8
0
62
1
10
3709
20
-1921
30
0
11
3709
21
-1841
31
0
0
LINE
8
0
62
1
10
3709
20
-1841
30
0
11
4249
21
-1841
31
0
0
LINE
8
0
62
1
10
4249
20
-1841
30
0
11
4257
21
-1841
31
0
0
LINE
8
0
6
HIDDEN
62
1
10
4257
20
-1841
30
0
11
4274,359
21
-1667,151
31
0
0
ARC
8
0
62
1
10
4264
20
-1678
30
0
40
15,001
50
46,323
51
180
0
LINE
8
0
62
1
10
4249
20
-1678
30
0
11
4249
21
-1758
31
0
0
LINE
8
0
62
1
10
4249
20
-1758
30
0
11
4184
21
-1823
31
0
0
LINE
8
0
62
1
10
4184
20
-1823
30
0
11
3774
21
-1823
31
0
0
LINE
8
0
62
1
10
3774
20
-1823
30
0
11
3709
21
-1758
31
0
0
LINE
8
0
62
1
10
3709
20
-1758
30
0
11
3709
21
-1678
31
0
0
LINE
8
0
62
1
10
3709
20
-1678
30
0
11
4249
21
-1678
31
0
0
LINE
8
0
62
1
10
4249
20
-1678
30
0
11
4254,66
21
-1672,34
31
0
0
LINE
8
0
6
HIDDEN
62
1
10
4254,66
20
-1672,34
30
0
11
4186
21
-1660
31
0
0
LINE
8
0
62
1
10
4186
20
-1660
30
0
11
4161
21
-1660
31
0
0
LINE
8
0
62
1
10
4161
20
-1660
30
0
11
4081
21
-1660
31
0
0
LINE
8
0
62
1
10
4081
20
-1660
30
0
11
4016
21
-1595
31
0
0
LINE
8
0
62
1
10
4016
20
-1595
30
0
11
4016
21
-1185
31
0
0
LINE
8
0
62
1
10
4016
20
-1185
30
0
11
4081
21
-1120
31
0
0
LINE
8
0
62
1
10
4081
20
-1120
30
0
11
4161
21
-1120
31
0
0
LINE
8
0
62
1
10
4161
20
-1120
30
0
11
4161
21
-1660
31
0
0
LINE
8
0
62
1
10
4161
20
-1660
30
0
11
4161
21
-1668
31
0
0
LINE
8
0
6
HIDDEN
62
1
10
4161
20
-1668
30
0
11
4163,52
21
-972
31
0
0
LINE
8
0
62
1
10
4163,52
20
-972
30
0
11
4151,02
21
-972
31
0
0
LINE
8
0
62
1
10
4151,02
20
-972
30
0
11
4039,02
21
-972
31
0
0
LINE
8
0
62
1
10
4039,02
20
-972
30
0
11
4039,02
21
-172
31
0
0
LINE
8
0
62
1
10
4039,02
20
-172
30
0
11
4151,02
21
-172
31
0
0
LINE
8
0
62
1
10
4151,02
20
-172
30
0
11
4151,02
21
-209,5
31
0
0
LINE
8
0
62
1
10
4151,02
20
-209,5
30
0
11
4136,02
21
-209,5
31
0
0
LINE
8
0
62
1
10
4136,02
20
-209,5
30
0
11
4136,02
21
-259,5
31
0
0
LINE
8
0
62
1
10
4136,02
20
-259,5
30
0
11
4151,02
21
-259,5
31
0
0
LINE
8
0
62
1
10
4151,02
20
-259,5
30
0
11
4151,02
21
-884,5
31
0
0
LINE
8
0
62
1
10
4151,02
20
-884,5
30
0
11
4136,02
21
-884,5
31
0
0
LINE
8
0
62
1
10
4136,02
20
-884,5
30
0
11
4136,02
21
-934,5
31
0
0
LINE
8
0
62
1
10
4136,02
20
-934,5
30
0
11
4151,02
21
-934,5
31
0
0
LINE
8
0
62
1
10
4151,02
20
-934,5
30
0
11
4151,02
21
-972
31
0
0
LINE
8
0
62
1
10
4151,02
20
-972
30
0
11
4151,02
21
-976
31
0
0
LINE
8
0
6
HIDDEN
62
1
10
4151,02
20
-976
30
0
11
4349
21
-1660
31
0
0
LINE
8
0
62
1
10
4349
20
-1660
30
0
11
4324
21
-1660
31
0
0
LINE
8
0
62
1
10
4324
20
-1660
30
0
11
4244
21
-1660
31
0
0
LINE
8
0
62
1
10
4244
20
-1660
30
0
11
4179
21
-1595
31
0
0
LINE
8
0
62
1
10
4179
20
-1595
30
0
11
4179
21
-1185
31
0
0
LINE
8
0
62
1
10
4179
20
-1185
30
0
11
4244
21
-1120
31
0
0
LINE
8
0
62
1
10
4244
20
-1120
30
0
11
4324
21
-1120
31
0
0
LINE
8
0
62
1
10
4324
20
-1120
30
0
11
4324
21
-1660
31
0
0
LINE
8
0
62
1
10
4324
20
-1660
30
0
11
4324
21
-1668
31
0
0
LINE
8
0
6
HIDDEN
62
1
10
4324
20
-1668
30
0
11
4293,52
21
-972
31
0
0
LINE
8
0
62
1
10
4293,52
20
-972
30
0
11
4281,02
21
-972
31
0
0
LINE
8
0
62
1
10
4281,02
20
-972
30
0
11
4169,02
21
-972
31
0
0
LINE
8
0
62
1
10
4169,02
20
-972
30
0
11
4169,02
21
-172
31
0
0
LINE
8
0
62
1
10
4169,02
20
-172
30
0
11
4281,02
21
-172
31
0
0
LINE
8
0
62
1
10
4281,02
20
-172
30
0
11
4281,02
21
-209,5
31
0
0
LINE
8
0
62
1
10
4281,02
20
-209,5
30
0
11
4266,02
21
-209,5
31
0
0
LINE
8
0
62
1
10
4266,02
20
-209,5
30
0
11
4266,02
21
-259,5
31
0
0
LINE
8
0
62
1
10
4266,02
20
-259,5
30
0
11
4281,02
21
-259,5
31
0
0
LINE
8
0
62
1
10
4281,02
20
-259,5
30
0
11
4281,02
21
-884,5
31
0
0
LINE
8
0
62
1
10
4281,02
20
-884,5
30
0
11
4266,02
21
-884,5
31
0
0
LINE
8
0
62
1
10
4266,02
20
-884,5
30
0
11
4266,02
21
-934,5
31
0
0
LINE
8
0
62
1
10
4266,02
20
-934,5
30
0
11
4281,02
21
-934,5
31
0
0
LINE
8
0
62
1
10
4281,02
20
-934,5
30
0
11
4281,02
21
-972
31
0
0
LINE
8
0
62
1
10
4281,02
20
-972
30
0
11
4281,02
21
-976
31
0
0
LINE
8
0
6
HIDDEN
62
1
10
4281,02
20
-976
30
0
11
4512
21
-1660
31
0
0
LINE
8
0
62
1
10
4512
20
-1660
30
0
11
4487
21
-1660
31
0
0
LINE
8
0
62
1
10
4487
20
-1660
30
0
11
4407
21
-1660
31
0
0
LINE
8
0
62
1
10
4407
20
-1660
30
0
11
4342
21
-1595
31
0
0
LINE
8
0
62
1
10
4342
20
-1595
30
0
11
4342
21
-1185
31
0
0
LINE
8
0
62
1
10
4342
20
-1185
30
0
11
4407
21
-1120
31
0
0
LINE
8
0
62
1
10
4407
20
-1120
30
0
11
4487
21
-1120
31
0
0
LINE
8
0
62
1
10
4487
20
-1120
30
0
11
4487
21
-1660
31
0
0
LINE
8
0
62
1
10
4487
20
-1660
30
0
11
4487
21
-1668
31
0
0
LINE
8
0
6
HIDDEN
62
1
10
4487
20
-1668
30
0
11
4423,52
21
-972
31
0
0
LINE
8
0
62
1
10
4423,52
20
-972
30
0
11
4411,02
21
-972
31
0
0
LINE
8
0
62
1
10
4411,02
20
-972
30
0
11
4299,02
21
-972
31
0
0
LINE
8
0
62
1
10
4299,02
20
-972
30
0
11
4299,02
21
-172
31
0
0
LINE
8
0
62
1
10
4299,02
20
-172
30
0
11
4411,02
21
-172
31
0
0
LINE
8
0
62
1
10
4411,02
20
-172
30
0
11
4411,02
21
-209,5
31
0
0
LINE
8
0
62
1
10
4411,02
20
-209,5
30
0
11
4396,02
21
-209,5
31
0
0
LINE
8
0
62
1
10
4396,02
20
-209,5
30
0
11
4396,02
21
-259,5
31
0
0
LINE
8
0
62
1
10
4396,02
20
-259,5
30
0
11
4411,02
21
-259,5
31
0
0
LINE
8
0
62
1
10
4411,02
20
-259,5
30
0
11
4411,02
21
-884,5
31
0
0
LINE
8
0
62
1
10
4411,02
20
-884,5
30
0
11
4396,02
21
-884,5
31
0
0
LINE
8
0
62
1
10
4396,02
20
-884,5
30
0
11
4396,02
21
-934,5
31
0
0
LINE
8
0
62
1
10
4396,02
20
-934,5
30
0
11
4411,02
21
-934,5
31
0
0
LINE
8
0
62
1
10
4411,02
20
-934,5
30
0
11
4411,02
21
-972
31
0
0
LINE
8
0
62
1
10
4411,02
20
-972
30
0
11
4411,02
21
-976
31
0
0
LINE
8
0
6
HIDDEN
62
1
10
4411,02
20
-976
30
0
11
4432,759
21
-15,9
31
0
0
ARC
8
0
62
1
10
4433,1
20
-30,89
30
0
40
14,993
50
91,3
51
225,026
0
LINE
8
0
62
1
10
4422,5
20
-41,5
30
0
11
4455
21
-74
31
0
0
LINE
8
0
62
1
10
4455
20
-74
30
0
11
4455
21
-154
31
0
0
LINE
8
0
62
1
10
4455
20
-154
30
0
11
3915
21
-154
31
0
0
LINE
8
0
62
1
10
3915
20
-154
30
0
11
3915
21
-74
31
0
0
LINE
8
0
62
1
10
3915
20
-74
30
0
11
3980
21
-9
31
0
0
LINE
8
0
62
1
10
3980
20
-9
30
0
11
4390
21
-9
31
0
0
LINE
8
0
62
1
10
4390
20
-9
30
0
11
4422,5
21
-41,5
31
0
0
LINE
8
0
62
1
10
4422,5
20
-41,5
30
0
11
4430,5
21
-41,5
31
0
0
LINE
8
0
6
HIDDEN
62
1
10
4430,5
20
-41,5
30
0
11
4675
21
-1660
31
0
0
LINE
8
0
62
1
10
4675
20
-1660
30
0
11
4650
21
-1660
31
0
0
LINE
8
0
62
1
10
4650
20
-1660
30
0
11
4570
21
-1660
31
0
0
LINE
8
0
62
1
10
4570
20
-1660
30
0
11
4505
21
-1595
31
0
0
LINE
8
0
62
1
10
4505
20
-1595
30
0
11
4505
21
-1185
31
0
0
LINE
8
0
62
1
10
4505
20
-1185
30
0
11
4570
21
-1120
31
0
0
LINE
8
0
62
1
10
4570
20
-1120
30
0
11
4650
21
-1120
31
0
0
LINE
8
0
62
1
10
4650
20
-1120
30
0
11
4650
21
-1660
31
0
0
LINE
8
0
62
1
10
4650
20
-1660
30
0
11
4650
21
-1668
31
0
0
LINE
8
0
6
HIDDEN
62
1
10
4650
20
-1668
30
0
11
4553,52
21
-972
31
0
0
LINE
8
0
62
1
10
4553,52
20
-972
30
0
11
4541,02
21
-972
31
0
0
LINE
8
0
62
1
10
4541,02
20
-972
30
0
11
4429,02
21
-972
31
0
0
LINE
8
0
62
1
10
4429,02
20
-972
30
0
11
4429,02
21
-172
31
0
0
LINE
8
0
62
1
10
4429,02
20
-172
30
0
11
4541,02
21
-172
31
0
0
LINE
8
0
62
1
10
4541,02
20
-172
30
0
11
4541,02
21
-209,5
31
0
0
LINE
8
0
62
1
10
4541,02
20
-209,5
30
0
11
4526,02
21
-209,5
31
0
0
LINE
8
0
62
1
10
4526,02
20
-209,5
30
0
11
4526,02
21
-259,5
31
0
0
LINE
8
0
62
1
10
4526,02
20
-259,5
30
0
11
4541,02
21
-259,5
31
0
0
LINE
8
0
62
1
10
4541,02
20
-259,5
30
0
11
4541,02
21
-884,5
31
0
0
LINE
8
0
62
1
10
4541,02
20
-884,5
30
0
11
4526,02
21
-884,5
31
0
0
LINE
8
0
62
1
10
4526,02
20
-884,5
30
0
11
4526,02
21
-934,5
31
0
0
LINE
8
0
62
1
10
4526,02
20
-934,5
30
0
11
4541,02
21
-934,5
31
0
0
LINE
8
0
62
1
10
4541,02
20
-934,5
30
0
11
4541,02
21
-972
31
0
0
LINE
8
0
62
1
10
4541,02
20
-972
30
0
11
4541,02
21
-976
31
0
0
LINE
8
0
6
HIDDEN
62
1
10
4541,02
20
-976
30
0
11
4683,52
21
-972
31
0
0
LINE
8
0
62
1
10
4683,52
20
-972
30
0
11
4671,02
21
-972
31
0
0
LINE
8
0
62
1
10
4671,02
20
-972
30
0
11
4559,02
21
-972
31
0
0
LINE
8
0
62
1
10
4559,02
20
-972
30
0
11
4559,02
21
-172
31
0
0
LINE
8
0
62
1
10
4559,02
20
-172
30
0
11
4671,02
21
-172
31
0
0
LINE
8
0
62
1
10
4671,02
20
-172
30
0
11
4671,02
21
-209,5
31
0
0
LINE
8
0
62
1
10
4671,02
20
-209,5
30
0
11
4656,02
21
-209,5
31
0
0
LINE
8
0
62
1
10
4656,02
20
-209,5
30
0
11
4656,02
21
-259,5
31
0
0
LINE
8
0
62
1
10
4656,02
20
-259,5
30
0
11
4671,02
21
-259,5
31
0
0
LINE
8
0
62
1
10
4671,02
20
-259,5
30
0
11
4671,02
21
-884,5
31
0
0
LINE
8
0
62
1
10
4671,02
20
-884,5
30
0
11
4656,02
21
-884,5
31
0
0
LINE
8
0
62
1
10
4656,02
20
-884,5
30
0
11
4656,02
21
-934,5
31
0
0
LINE
8
0
62
1
10
4656,02
20
-934,5
30
0
11
4671,02
21
-934,5
31
0
0
LINE
8
0
62
1
10
4671,02
20
-934,5
30
0
11
4671,02
21
-972
31
0
0
LINE
8
0
62
1
10
4671,02
20
-972
30
0
11
4671,02
21
-976
31
0
0
LINE
8
0
6
HIDDEN
62
1
10
4671,02
20
-976
30
0
11
4807
21
-1816
31
0
0
LINE
8
0
62
1
10
4807
20
-1816
30
0
11
4807
21
-1841
31
0
0
LINE
8
0
62
1
10
4807
20
-1841
30
0
11
4807
21
-1921
31
0
0
LINE
8
0
62
1
10
4807
20
-1921
30
0
11
4742
21
-1986
31
0
0
LINE
8
0
62
1
10
4742
20
-1986
30
0
11
4332
21
-1986
31
0
0
LINE
8
0
62
1
10
4332
20
-1986
30
0
11
4267
21
-1921
31
0
0
LINE
8
0
62
1
10
4267
20
-1921
30
0
11
4267
21
-1841
31
0
0
LINE
8
0
62
1
10
4267
20
-1841
30
0
11
4807
21
-1841
31
0
0
LINE
8
0
62
1
10
4807
20
-1841
30
0
11
4815
21
-1841
31
0
0
LINE
8
0
6
HIDDEN
62
1
10
4815
20
-1841
30
0
11
4767
21
-1823
31
0
0
LINE
8
0
62
1
10
4767
20
-1823
30
0
11
4742
21
-1823
31
0
0
LINE
8
0
62
1
10
4742
20
-1823
30
0
11
4332
21
-1823
31
0
0
LINE
8
0
62
1
10
4332
20
-1823
30
0
11
4267
21
-1758
31
0
0
LINE
8
0
62
1
10
4267
20
-1758
30
0
11
4267
21
-1678
31
0
0
LINE
8
0
62
1
10
4267
20
-1678
30
0
11
4807
21
-1678
31
0
0
LINE
8
0
62
1
10
4807
20
-1678
30
0
11
4807
21
-1758
31
0
0
LINE
8
0
62
1
10
4807
20
-1758
30
0
11
4742
21
-1823
31
0
0
LINE
8
0
62
1
10
4742
20
-1823
30
0
11
4736,35
21
-1828,661
31
0
0
LINE
8
0
6
HIDDEN
62
1
10
4736,35
20
-1828,661
30
0
11
4838
21
-1660
31
0
0
LINE
8
0
62
1
10
4838
20
-1660
30
0
11
4813
21
-1660
31
0
0
LINE
8
0
62
1
10
4813
20
-1660
30
0
11
4733
21
-1660
31
0
0
LINE
8
0
62
1
10
4733
20
-1660
30
0
11
4668
21
-1595
31
0
0
LINE
8
0
62
1
10
4668
20
-1595
30
0
11
4668
21
-1185
31
0
0
LINE
8
0
62
1
10
4668
20
-1185
30
0
11
4733
21
-1120
31
0
0
LINE
8
0
62
1
10
4733
20
-1120
30
0
11
4813
21
-1120
31
0
0
LINE
8
0
62
1
10
4813
20
-1120
30
0
11
4813
21
-1660
31
0
0
LINE
8
0
62
1
10
4813
20
-1660
30
0
11
4813
21
-1668
31
0
0
LINE
8
0
6
HIDDEN
62
1
10
4813
20
-1668
30
0
11
4924,37
21
-979,151
31
0
0
ARC
8
0
62
1
10
4914
20
-990
30
0
40
15,008
50
46,295
51
180
0
LINE
8
0
62
1
10
4899
20
-990
30
0
11
4899
21
-1102
31
0
0
LINE
8
0
62
1
10
4899
20
-1102
30
0
11
4861,5
21
-1102
31
0
0
LINE
8
0
62
1
10
4861,5
20
-1102
30
0
11
4861,5
21
-1087
31
0
0
LINE
8
0
62
1
10
4861,5
20
-1087
30
0
11
4811,5
21
-1087
31
0
0
LINE
8
0
62
1
10
4811,5
20
-1087
30
0
11
4811,5
21
-1102
31
0
0
LINE
8
0
62
1
10
4811,5
20
-1102
30
0
11
4186,5
21
-1102
31
0
0
LINE
8
0
62
1
10
4186,5
20
-1102
30
0
11
4186,5
21
-1087
31
0
0
LINE
8
0
62
1
10
4186,5
20
-1087
30
0
11
4136,5
21
-1087
31
0
0
LINE
8
0
62
1
10
4136,5
20
-1087
30
0
11
4136,5
21
-1102
31
0
0
LINE
8
0
62
1
10
4136,5
20
-1102
30
0
11
4099
21
-1102
31
0
0
LINE
8
0
62
1
10
4099
20
-1102
30
0
11
4099
21
-990
31
0
0
LINE
8
0
62
1
10
4099
20
-990
30
0
11
4899
21
-990
31
0
0
LINE
8
0
62
1
10
4899
20
-990
30
0
11
4904,66
21
-984,341
31
0
0
LINE
8
0
6
HIDDEN
62
1
10
4904,66
20
-984,341
30
0
11
4813,52
21
-972
31
0
0
LINE
8
0
62
1
10
4813,52
20
-972
30
0
11
4801,02
21
-972
31
0
0
LINE
8
0
62
1
10
4801,02
20
-972
30
0
11
4689,02
21
-972
31
0
0
LINE
8
0
62
1
10
4689,02
20
-972
30
0
11
4689,02
21
-172
31
0
0
LINE
8
0
62
1
10
4689,02
20
-172
30
0
11
4801,02
21
-172
31
0
0
LINE
8
0
62
1
10
4801,02
20
-172
30
0
11
4801,02
21
-209,5
31
0
0
LINE
8
0
62
1
10
4801,02
20
-209,5
30
0
11
4786,02
21
-209,5
31
0
0
LINE
8
0
62
1
10
4786,02
20
-209,5
30
0
11
4786,02
21
-259,5
31
0
0
LINE
8
0
62
1
10
4786,02
20
-259,5
30
0
11
4801,02
21
-259,5
31
0
0
LINE
8
0
62
1
10
4801,02
20
-259,5
30
0
11
4801,02
21
-884,5
31
0
0
LINE
8
0
62
1
10
4801,02
20
-884,5
30
0
11
4786,02
21
-884,5
31
0
0
LINE
8
0
62
1
10
4786,02
20
-884,5
30
0
11
4786,02
21
-934,5
31
0
0
LINE
8
0
62
1
10
4786,02
20
-934,5
30
0
11
4801,02
21
-934,5
31
0
0
LINE
8
0
62
1
10
4801,02
20
-934,5
30
0
11
4801,02
21
-972
31
0
0
LINE
8
0
62
1
10
4801,02
20
-972
30
0
11
4801,02
21
-976
31
0
0
LINE
8
0
6
HIDDEN
62
1
10
4801,02
20
-976
30
0
11
5000,99
21
-1660
31
0
0
LINE
8
0
62
1
10
5000,99
20
-1660
30
0
11
4975,99
21
-1660
31
0
0
LINE
8
0
62
1
10
4975,99
20
-1660
30
0
11
4895,99
21
-1660
31
0
0
LINE
8
0
62
1
10
4895,99
20
-1660
30
0
11
4830,99
21
-1595
31
0
0
LINE
8
0
62
1
10
4830,99
20
-1595
30
0
11
4830,99
21
-1185
31
0
0
LINE
8
0
62
1
10
4830,99
20
-1185
30
0
11
4895,99
21
-1120
31
0
0
LINE
8
0
62
1
10
4895,99
20
-1120
30
0
11
4975,99
21
-1120
31
0
0
LINE
8
0
62
1
10
4975,99
20
-1120
30
0
11
4975,99
21
-1660
31
0
0
LINE
8
0
62
1
10
4975,99
20
-1660
30
0
11
4975,99
21
-1668
31
0
0
LINE
8
0
6
HIDDEN
62
1
10
4975,99
20
-1668
30
0
11
4943,52
21
-972
31
0
0
LINE
8
0
62
1
10
4943,52
20
-972
30
0
11
4931,02
21
-972
31
0
0
LINE
8
0
62
1
10
4931,02
20
-972
30
0
11
4819,02
21
-972
31
0
0
LINE
8
0
62
1
10
4819,02
20
-972
30
0
11
4819,02
21
-172
31
0
0
LINE
8
0
62
1
10
4819,02
20
-172
30
0
11
4931,02
21
-172
31
0
0
LINE
8
0
62
1
10
4931,02
20
-172
30
0
11
4931,02
21
-209,5
31
0
0
LINE
8
0
62
1
10
4931,02
20
-209,5
30
0
11
4916,02
21
-209,5
31
0
0
LINE
8
0
62
1
10
4916,02
20
-209,5
30
0
11
4916,02
21
-259,5
31
0
0
LINE
8
0
62
1
10
4916,02
20
-259,5
30
0
11
4931,02
21
-259,5
31
0
0
LINE
8
0
62
1
10
4931,02
20
-259,5
30
0
11
4931,02
21
-884,5
31
0
0
LINE
8
0
62
1
10
4931,02
20
-884,5
30
0
11
4916,02
21
-884,5
31
0
0
LINE
8
0
62
1
10
4916,02
20
-884,5
30
0
11
4916,02
21
-934,5
31
0
0
LINE
8
0
62
1
10
4916,02
20
-934,5
30
0
11
4931,02
21
-934,5
31
0
0
LINE
8
0
62
1
10
4931,02
20
-934,5
30
0
11
4931,02
21
-972
31
0
0
LINE
8
0
62
1
10
4931,02
20
-972
30
0
11
4931,02
21
-976
31
0
0
LINE
8
0
6
HIDDEN
62
1
10
4931,02
20
-976
30
0
11
4990,759
21
-15,9
31
0
0
ARC
8
0
62
1
10
4991,1
20
-30,89
30
0
40
14,993
50
91,3
51
225,026
0
LINE
8
0
62
1
10
4980,5
20
-41,5
30
0
11
5013
21
-74
31
0
0
LINE
8
0
62
1
10
5013
20
-74
30
0
11
5013
21
-154
31
0
0
LINE
8
0
62
1
10
5013
20
-154
30
0
11
4473
21
-154
31
0
0
LINE
8
0
62
1
10
4473
20
-154
30
0
11
4473
21
-74
31
0
0
LINE
8
0
62
1
10
4473
20
-74
30
0
11
4538
21
-9
31
0
0
LINE
8
0
62
1
10
4538
20
-9
30
0
11
4948
21
-9
31
0
0
LINE
8
0
62
1
10
4948
20
-9
30
0
11
4980,5
21
-41,5
31
0
0
LINE
8
0
62
1
10
4980,5
20
-41,5
30
0
11
4988,5
21
-41,5
31
0
0
LINE
8
0
6
HIDDEN
62
1
10
4988,5
20
-41,5
30
0
11
5163,99
21
-1660
31
0
0
LINE
8
0
62
1
10
5163,99
20
-1660
30
0
11
5138,99
21
-1660
31
0
0
LINE
8
0
62
1
10
5138,99
20
-1660
30
0
11
5058,99
21
-1660
31
0
0
LINE
8
0
62
1
10
5058,99
20
-1660
30
0
11
4993,99
21
-1595
31
0
0
LINE
8
0
62
1
10
4993,99
20
-1595
30
0
11
4993,99
21
-1185
31
0
0
LINE
8
0
62
1
10
4993,99
20
-1185
30
0
11
5058,99
21
-1120
31
0
0
LINE
8
0
62
1
10
5058,99
20
-1120
30
0
11
5138,99
21
-1120
31
0
0
LINE
8
0
62
1
10
5138,99
20
-1120
30
0
11
5138,99
21
-1660
31
0
0
LINE
8
0
62
1
10
5138,99
20
-1660
30
0
11
5138,99
21
-1668
31
0
0
LINE
8
0
6
HIDDEN
62
1
10
5138,99
20
-1668
30
0
11
5073,52
21
-972
31
0
0
LINE
8
0
62
1
10
5073,52
20
-972
30
0
11
5061,02
21
-972
31
0
0
LINE
8
0
62
1
10
5061,02
20
-972
30
0
11
4949,02
21
-972
31
0
0
LINE
8
0
62
1
10
4949,02
20
-972
30
0
11
4949,02
21
-172
31
0
0
LINE
8
0
62
1
10
4949,02
20
-172
30
0
11
5061,02
21
-172
31
0
0
LINE
8
0
62
1
10
5061,02
20
-172
30
0
11
5061,02
21
-209,5
31
0
0
LINE
8
0
62
1
10
5061,02
20
-209,5
30
0
11
5046,02
21
-209,5
31
0
0
LINE
8
0
62
1
10
5046,02
20
-209,5
30
0
11
5046,02
21
-259,5
31
0
0
LINE
8
0
62
1
10
5046,02
20
-259,5
30
0
11
5061,02
21
-259,5
31
0
0
LINE
8
0
62
1
10
5061,02
20
-259,5
30
0
11
5061,02
21
-884,5
31
0
0
LINE
8
0
62
1
10
5061,02
20
-884,5
30
0
11
5046,02
21
-884,5
31
0
0
LINE
8
0
62
1
10
5046,02
20
-884,5
30
0
11
5046,02
21
-934,5
31
0
0
LINE
8
0
62
1
10
5046,02
20
-934,5
30
0
11
5061,02
21
-934,5
31
0
0
LINE
8
0
62
1
10
5061,02
20
-934,5
30
0
11
5061,02
21
-972
31
0
0
LINE
8
0
62
1
10
5061,02
20
-972
30
0
11
5061,02
21
-976
31
0
0
LINE
8
0
6
HIDDEN
62
1
10
5061,02
20
-976
30
0
11
5326,99
21
-1660
31
0
0
LINE
8
0
62
1
10
5326,99
20
-1660
30
0
11
5301,99
21
-1660
31
0
0
LINE
8
0
62
1
10
5301,99
20
-1660
30
0
11
5221,99
21
-1660
31
0
0
LINE
8
0
62
1
10
5221,99
20
-1660
30
0
11
5156,99
21
-1595
31
0
0
LINE
8
0
62
1
10
5156,99
20
-1595
30
0
11
5156,99
21
-1185
31
0
0
LINE
8
0
62
1
10
5156,99
20
-1185
30
0
11
5221,99
21
-1120
31
0
0
LINE
8
0
62
1
10
5221,99
20
-1120
30
0
11
5301,99
21
-1120
31
0
0
LINE
8
0
62
1
10
5301,99
20
-1120
30
0
11
5301,99
21
-1660
31
0
0
LINE
8
0
62
1
10
5301,99
20
-1660
30
0
11
5301,99
21
-1668
31
0
0
LINE
8
0
6
HIDDEN
62
1
10
5301,99
20
-1668
30
0
11
5203,52
21
-972
31
0
0
LINE
8
0
62
1
10
5203,52
20
-972
30
0
11
5191,02
21
-972
31
0
0
LINE
8
0
62
1
10
5191,02
20
-972
30
0
11
5079,02
21
-972
31
0
0
LINE
8
0
62
1
10
5079,02
20
-972
30
0
11
5079,02
21
-172
31
0
0
LINE
8
0
62
1
10
5079,02
20
-172
30
0
11
5191,02
21
-172
31
0
0
LINE
8
0
62
1
10
5191,02
20
-172
30
0
11
5191,02
21
-209,5
31
0
0
LINE
8
0
62
1
10
5191,02
20
-209,5
30
0
11
5176,02
21
-209,5
31
0
0
LINE
8
0
62
1
10
5176,02
20
-209,5
30
0
11
5176,02
21
-259,5
31
0
0
LINE
8
0
62
1
10
5176,02
20
-259,5
30
0
11
5191,02
21
-259,5
31
0
0
LINE
8
0
62
1
10
5191,02
20
-259,5
30
0
11
5191,02
21
-884,5
31
0
0
LINE
8
0
62
1
10
5191,02
20
-884,5
30
0
11
5176,02
21
-884,5
31
0
0
LINE
8
0
62
1
10
5176,02
20
-884,5
30
0
11
5176,02
21
-934,5
31
0
0
LINE
8
0
62
1
10
5176,02
20
-934,5
30
0
11
5191,02
21
-934,5
31
0
0
LINE
8
0
62
1
10
5191,02
20
-934,5
30
0
11
5191,02
21
-972
31
0
0
LINE
8
0
62
1
10
5191,02
20
-972
30
0
11
5191,02
21
-976
31
0
0
LINE
8
0
6
HIDDEN
62
1
10
5191,02
20
-976
30
0
11
5365
21
-1816
31
0
0
LINE
8
0
62
1
10
5365
20
-1816
30
0
11
5365
21
-1841
31
0
0
LINE
8
0
62
1
10
5365
20
-1841
30
0
11
5365
21
-1921
31
0
0
LINE
8
0
62
1
10
5365
20
-1921
30
0
11
5300
21
-1986
31
0
0
LINE
8
0
62
1
10
5300
20
-1986
30
0
11
4890
21
-1986
31
0
0
LINE
8
0
62
1
10
4890
20
-1986
30
0
11
4825
21
-1921
31
0
0
LINE
8
0
62
1
10
4825
20
-1921
30
0
11
4825
21
-1841
31
0
0
LINE
8
0
62
1
10
4825
20
-1841
30
0
11
5365
21
-1841
31
0
0
LINE
8
0
62
1
10
5365
20
-1841
30
0
11
5373
21
-1841
31
0
0
LINE
8
0
6
HIDDEN
62
1
10
5373
20
-1841
30
0
11
5365
21
-1653
31
0
0
LINE
8
0
62
1
10
5365
20
-1653
30
0
11
5365
21
-1678
31
0
0
LINE
8
0
62
1
10
5365
20
-1678
30
0
11
5365
21
-1758
31
0
0
LINE
8
0
62
1
10
5365
20
-1758
30
0
11
5300
21
-1823
31
0
0
LINE
8
0
62
1
10
5300
20
-1823
30
0
11
4890
21
-1823
31
0
0
LINE
8
0
62
1
10
4890
20
-1823
30
0
11
4825
21
-1758
31
0
0
LINE
8
0
62
1
10
4825
20
-1758
30
0
11
4825
21
-1678
31
0
0
LINE
8
0
62
1
10
4825
20
-1678
30
0
11
5365
21
-1678
31
0
0
LINE
8
0
62
1
10
5365
20
-1678
30
0
11
5373
21
-1678
31
0
0
LINE
8
0
6
HIDDEN
62
1
10
5373
20
-1678
30
0
11
5333,529
21
-972
31
0
0
LINE
8
0
62
1
10
5333,529
20
-972
30
0
11
5321,029
21
-972
31
0
0
LINE
8
0
62
1
10
5321,029
20
-972
30
0
11
5209,029
21
-972
31
0
0
LINE
8
0
62
1
10
5209,029
20
-972
30
0
11
5209,029
21
-172
31
0
0
LINE
8
0
62
1
10
5209,029
20
-172
30
0
11
5321,029
21
-172
31
0
0
LINE
8
0
62
1
10
5321,029
20
-172
30
0
11
5321,029
21
-209,5
31
0
0
LINE
8
0
62
1
10
5321,029
20
-209,5
30
0
11
5306,029
21
-209,5
31
0
0
LINE
8
0
62
1
10
5306,029
20
-209,5
30
0
11
5306,029
21
-259,5
31
0
0
LINE
8
0
62
1
10
5306,029
20
-259,5
30
0
11
5321,029
21
-259,5
31
0
0
LINE
8
0
62
1
10
5321,029
20
-259,5
30
0
11
5321,029
21
-884,5
31
0
0
LINE
8
0
62
1
10
5321,029
20
-884,5
30
0
11
5306,029
21
-884,5
31
0
0
LINE
8
0
62
1
10
5306,029
20
-884,5
30
0
11
5306,029
21
-934,5
31
0
0
LINE
8
0
62
1
10
5306,029
20
-934,5
30
0
11
5321,029
21
-934,5
31
0
0
LINE
8
0
62
1
10
5321,029
20
-934,5
30
0
11
5321,029
21
-972
31
0
0
LINE
8
0
62
1
10
5321,029
20
-972
30
0
11
5321,029
21
-976
31
0
0
LINE
8
0
6
HIDDEN
62
1
10
5321,029
20
-976
30
0
11
5489,99
21
-1660
31
0
0
LINE
8
0
62
1
10
5489,99
20
-1660
30
0
11
5464,99
21
-1660
31
0
0
LINE
8
0
62
1
10
5464,99
20
-1660
30
0
11
5384,99
21
-1660
31
0
0
LINE
8
0
62
1
10
5384,99
20
-1660
30
0
11
5319,99
21
-1595
31
0
0
LINE
8
0
62
1
10
5319,99
20
-1595
30
0
11
5319,99
21
-1185
31
0
0
LINE
8
0
62
1
10
5319,99
20
-1185
30
0
11
5384,99
21
-1120
31
0
0
LINE
8
0
62
1
10
5384,99
20
-1120
30
0
11
5464,99
21
-1120
31
0
0
LINE
8
0
62
1
10
5464,99
20
-1120
30
0
11
5464,99
21
-1660
31
0
0
LINE
8
0
62
1
10
5464,99
20
-1660
30
0
11
5464,99
21
-1668
31
0
0
LINE
8
0
6
HIDDEN
62
1
10
5464,99
20
-1668
30
0
11
5463,529
21
-972
31
0
0
LINE
8
0
62
1
10
5463,529
20
-972
30
0
11
5451,029
21
-972
31
0
0
LINE
8
0
62
1
10
5451,029
20
-972
30
0
11
5339,029
21
-972
31
0
0
LINE
8
0
62
1
10
5339,029
20
-972
30
0
11
5339,029
21
-172
31
0
0
LINE
8
0
62
1
10
5339,029
20
-172
30
0
11
5451,029
21
-172
31
0
0
LINE
8
0
62
1
10
5451,029
20
-172
30
0
11
5451,029
21
-209,5
31
0
0
LINE
8
0
62
1
10
5451,029
20
-209,5
30
0
11
5436,029
21
-209,5
31
0
0
LINE
8
0
62
1
10
5436,029
20
-209,5
30
0
11
5436,029
21
-259,5
31
0
0
LINE
8
0
62
1
10
5436,029
20
-259,5
30
0
11
5451,029
21
-259,5
31
0
0
LINE
8
0
62
1
10
5451,029
20
-259,5
30
0
11
5451,029
21
-884,5
31
0
0
LINE
8
0
62
1
10
5451,029
20
-884,5
30
0
11
5436,029
21
-884,5
31
0
0
LINE
8
0
62
1
10
5436,029
20
-884,5
30
0
11
5436,029
21
-934,5
31
0
0
LINE
8
0
62
1
10
5436,029
20
-934,5
30
0
11
5451,029
21
-934,5
31
0
0
LINE
8
0
62
1
10
5451,029
20
-934,5
30
0
11
5451,029
21
-972
31
0
0
LINE
8
0
62
1
10
5451,029
20
-972
30
0
11
5451,029
21
-976
31
0
0
LINE
8
0
6
HIDDEN
62
1
10
5451,029
20
-976
30
0
11
5548,759
21
-15,9
31
0
0
ARC
8
0
62
1
10
5549,1
20
-30,89
30
0
40
14,993
50
91,3
51
225,026
0
LINE
8
0
62
1
10
5538,5
20
-41,5
30
0
11
5571
21
-74
31
0
0
LINE
8
0
62
1
10
5571
20
-74
30
0
11
5571
21
-154
31
0
0
LINE
8
0
62
1
10
5571
20
-154
30
0
11
5031
21
-154
31
0
0
LINE
8
0
62
1
10
5031
20
-154
30
0
11
5031
21
-74
31
0
0
LINE
8
0
62
1
10
5031
20
-74
30
0
11
5096
21
-9
31
0
0
LINE
8
0
62
1
10
5096
20
-9
30
0
11
5506
21
-9
31
0
0
LINE
8
0
62
1
10
5506
20
-9
30
0
11
5538,5
21
-41,5
31
0
0
LINE
8
0
62
1
10
5538,5
20
-41,5
30
0
11
5546,5
21
-41,5
31
0
0
LINE
8
0
6
HIDDEN
62
1
10
5546,5
20
-41,5
30
0
11
5652,99
21
-1660
31
0
0
LINE
8
0
62
1
10
5652,99
20
-1660
30
0
11
5627,99
21
-1660
31
0
0
LINE
8
0
62
1
10
5627,99
20
-1660
30
0
11
5547,99
21
-1660
31
0
0
LINE
8
0
62
1
10
5547,99
20
-1660
30
0
11
5482,99
21
-1595
31
0
0
LINE
8
0
62
1
10
5482,99
20
-1595
30
0
11
5482,99
21
-1185
31
0
0
LINE
8
0
62
1
10
5482,99
20
-1185
30
0
11
5547,99
21
-1120
31
0
0
LINE
8
0
62
1
10
5547,99
20
-1120
30
0
11
5627,99
21
-1120
31
0
0
LINE
8
0
62
1
10
5627,99
20
-1120
30
0
11
5627,99
21
-1660
31
0
0
LINE
8
0
62
1
10
5627,99
20
-1660
30
0
11
5627,99
21
-1668
31
0
0
LINE
8
0
6
HIDDEN
62
1
10
5627,99
20
-1668
30
0
11
5606,029
21
-972
31
0
0
LINE
8
0
62
1
10
5606,029
20
-972
30
0
11
5581,029
21
-972
31
0
0
LINE
8
0
62
1
10
5581,029
20
-972
30
0
11
5469,029
21
-972
31
0
0
LINE
8
0
62
1
10
5469,029
20
-972
30
0
11
5469,029
21
-172
31
0
0
LINE
8
0
62
1
10
5469,029
20
-172
30
0
11
5581,029
21
-172
31
0
0
LINE
8
0
62
1
10
5581,029
20
-172
30
0
11
5581,029
21
-209,5
31
0
0
LINE
8
0
62
1
10
5581,029
20
-209,5
30
0
11
5566,029
21
-209,5
31
0
0
LINE
8
0
62
1
10
5566,029
20
-209,5
30
0
11
5566,029
21
-259,5
31
0
0
LINE
8
0
62
1
10
5566,029
20
-259,5
30
0
11
5581,029
21
-259,5
31
0
0
LINE
8
0
62
1
10
5581,029
20
-259,5
30
0
11
5581,029
21
-884,5
31
0
0
LINE
8
0
62
1
10
5581,029
20
-884,5
30
0
11
5566,029
21
-884,5
31
0
0
LINE
8
0
62
1
10
5566,029
20
-884,5
30
0
11
5566,029
21
-934,5
31
0
0
LINE
8
0
62
1
10
5566,029
20
-934,5
30
0
11
5581,029
21
-934,5
31
0
0
LINE
8
0
62
1
10
5581,029
20
-934,5
30
0
11
5581,029
21
-972
31
0
0
LINE
8
0
62
1
10
5581,029
20
-972
30
0
11
5581,029
21
-980
31
0
0
LINE
8
0
6
HIDDEN
62
1
10
5581,029
20
-980
30
0
11
5815,99
21
-1660
31
0
0
LINE
8
0
62
1
10
5815,99
20
-1660
30
0
11
5790,99
21
-1660
31
0
0
LINE
8
0
62
1
10
5790,99
20
-1660
30
0
11
5710,99
21
-1660
31
0
0
LINE
8
0
62
1
10
5710,99
20
-1660
30
0
11
5645,99
21
-1595
31
0
0
LINE
8
0
62
1
10
5645,99
20
-1595
30
0
11
5645,99
21
-1185
31
0
0
LINE
8
0
62
1
10
5645,99
20
-1185
30
0
11
5710,99
21
-1120
31
0
0
LINE
8
0
62
1
10
5710,99
20
-1120
30
0
11
5790,99
21
-1120
31
0
0
LINE
8
0
62
1
10
5790,99
20
-1120
30
0
11
5790,99
21
-1660
31
0
0
LINE
8
0
62
1
10
5790,99
20
-1660
30
0
11
5790,99
21
-1668
31
0
0
LINE
8
0
6
HIDDEN
62
1
10
5790,99
20
-1668
30
0
11
5731,02
21
-965
31
0
0
LINE
8
0
62
1
10
5731,02
20
-965
30
0
11
5731,02
21
-990
31
0
0
LINE
8
0
62
1
10
5731,02
20
-990
30
0
11
5731,02
21
-1102
31
0
0
LINE
8
0
62
1
10
5731,02
20
-1102
30
0
11
5693,52
21
-1102
31
0
0
LINE
8
0
62
1
10
5693,52
20
-1102
30
0
11
5693,52
21
-1087
31
0
0
LINE
8
0
62
1
10
5693,52
20
-1087
30
0
11
5643,52
21
-1087
31
0
0
LINE
8
0
62
1
10
5643,52
20
-1087
30
0
11
5643,52
21
-1102
31
0
0
LINE
8
0
62
1
10
5643,52
20
-1102
30
0
11
5018,52
21
-1102
31
0
0
LINE
8
0
62
1
10
5018,52
20
-1102
30
0
11
5018,52
21
-1087
31
0
0
LINE
8
0
62
1
10
5018,52
20
-1087
30
0
11
4968,52
21
-1087
31
0
0
LINE
8
0
62
1
10
4968,52
20
-1087
30
0
11
4968,52
21
-1102
31
0
0
LINE
8
0
62
1
10
4968,52
20
-1102
30
0
11
4931,02
21
-1102
31
0
0
LINE
8
0
62
1
10
4931,02
20
-1102
30
0
11
4931,02
21
-990
31
0
0
LINE
8
0
62
1
10
4931,02
20
-990
30
0
11
5731,02
21
-990
31
0
0
LINE
8
0
62
1
10
5731,02
20
-990
30
0
11
5739,02
21
-990
31
0
0
LINE
8
0
6
HIDDEN
62
1
10
5739,02
20
-990
30
0
11
5721,87
21
-834,36
31
0
0
ARC
8
0
62
1
10
5711,029
20
-824
30
0
40
14,994
50
-43,703
51
90
0
LINE
8
0
62
1
10
5711,029
20
-809
30
0
11
5599,029
21
-809
31
0
0
LINE
8
0
62
1
10
5599,029
20
-809
30
0
11
5599,029
21
-9
31
0
0
LINE
8
0
62
1
10
5599,029
20
-9
30
0
11
5711,029
21
-9
31
0
0
LINE
8
0
62
1
10
5711,029
20
-9
30
0
11
5711,029
21
-46,5
31
0
0
LINE
8
0
62
1
10
5711,029
20
-46,5
30
0
11
5696,029
21
-46,5
31
0
0
LINE
8
0
62
1
10
5696,029
20
-46,5
30
0
11
5696,029
21
-96,5
31
0
0
LINE
8
0
62
1
10
5696,029
20
-96,5
30
0
11
5711,029
21
-96,5
31
0
0
LINE
8
0
62
1
10
5711,029
20
-96,5
30
0
11
5711,029
21
-721,5
31
0
0
LINE
8
0
62
1
10
5711,029
20
-721,5
30
0
11
5696,029
21
-721,5
31
0
0
LINE
8
0
62
1
10
5696,029
20
-721,5
30
0
11
5696,029
21
-771,5
31
0
0
LINE
8
0
62
1
10
5696,029
20
-771,5
30
0
11
5711,029
21
-771,5
31
0
0
LINE
8
0
62
1
10
5711,029
20
-771,5
30
0
11
5711,029
21
-809
31
0
0
LINE
8
0
62
1
10
5711,029
20
-809
30
0
11
5716,68
21
-814,66
31
0
0
LINE
8
0
6
HIDDEN
62
1
10
5716,68
20
-814,66
30
0
11
5923
21
-1816
31
0
0
LINE
8
0
62
1
10
5923
20
-1816
30
0
11
5923
21
-1841
31
0
0
LINE
8
0
62
1
10
5923
20
-1841
30
0
11
5923
21
-1921
31
0
0
LINE
8
0
62
1
10
5923
20
-1921
30
0
11
5858
21
-1986
31
0
0
LINE
8
0
62
1
10
5858
20
-1986
30
0
11
5448
21
-1986
31
0
0
LINE
8
0
62
1
10
5448
20
-1986
30
0
11
5383
21
-1921
31
0
0
LINE
8
0
62
1
10
5383
20
-1921
30
0
11
5383
21
-1841
31
0
0
LINE
8
0
62
1
10
5383
20
-1841
30
0
11
5923
21
-1841
31
0
0
LINE
8
0
62
1
10
5923
20
-1841
30
0
11
5931
21
-1841
31
0
0
LINE
8
0
6
HIDDEN
62
1
10
5931
20
-1841
30
0
11
5923
21
-1653
31
0
0
LINE
8
0
62
1
10
5923
20
-1653
30
0
11
5923
21
-1678
31
0
0
LINE
8
0
62
1
10
5923
20
-1678
30
0
11
5923
21
-1758
31
0
0
LINE
8
0
62
1
10
5923
20
-1758
30
0
11
5858
21
-1823
31
0
0
LINE
8
0
62
1
10
5858
20
-1823
30
0
11
5448
21
-1823
31
0
0
LINE
8
0
62
1
10
5448
20
-1823
30
0
11
5383
21
-1758
31
0
0
LINE
8
0
62
1
10
5383
20
-1758
30
0
11
5383
21
-1678
31
0
0
LINE
8
0
62
1
10
5383
20
-1678
30
0
11
5923
21
-1678
31
0
0
LINE
8
0
62
1
10
5923
20
-1678
30
0
11
5931
21
-1678
31
0
0
LINE
8
0
6
HIDDEN
62
1
10
5931
20
-1678
30
0
11
5978,99
21
-1367
31
0
0
LINE
8
0
62
1
10
5978,99
20
-1367
30
0
11
5953,99
21
-1367
31
0
0
LINE
8
0
62
1
10
5953,99
20
-1367
30
0
11
5873,99
21
-1367
31
0
0
LINE
8
0
62
1
10
5873,99
20
-1367
30
0
11
5808,99
21
-1302
31
0
0
LINE
8
0
62
1
10
5808,99
20
-1302
30
0
11
5808,99
21
-892
31
0
0
LINE
8
0
62
1
10
5808,99
20
-892
30
0
11
5873,99
21
-827
31
0
0
LINE
8
0
62
1
10
5873,99
20
-827
30
0
11
5953,99
21
-827
31
0
0
LINE
8
0
62
1
10
5953,99
20
-827
30
0
11
5953,99
21
-1367
31
0
0
LINE
8
0
62
1
10
5953,99
20
-1367
30
0
11
5953,99
21
-1375
31
0
0
LINE
8
0
6
HIDDEN
62
1
10
5953,99
20
-1375
30
0
11
5851,87
21
-834,36
31
0
0
ARC
8
0
62
1
10
5841,029
20
-824
30
0
40
14,994
50
-43,703
51
90
0
LINE
8
0
62
1
10
5841,029
20
-809
30
0
11
5729,029
21
-809
31
0
0
LINE
8
0
62
1
10
5729,029
20
-809
30
0
11
5729,029
21
-9
31
0
0
LINE
8
0
62
1
10
5729,029
20
-9
30
0
11
5841,029
21
-9
31
0
0
LINE
8
0
62
1
10
5841,029
20
-9
30
0
11
5841,029
21
-46,5
31
0
0
LINE
8
0
62
1
10
5841,029
20
-46,5
30
0
11
5826,029
21
-46,5
31
0
0
LINE
8
0
62
1
10
5826,029
20
-46,5
30
0
11
5826,029
21
-96,5
31
0
0
LINE
8
0
62
1
10
5826,029
20
-96,5
30
0
11
5841,029
21
-96,5
31
0
0
LINE
8
0
62
1
10
5841,029
20
-96,5
30
0
11
5841,029
21
-721,5
31
0
0
LINE
8
0
62
1
10
5841,029
20
-721,5
30
0
11
5826,029
21
-721,5
31
0
0
LINE
8
0
62
1
10
5826,029
20
-721,5
30
0
11
5826,029
21
-771,5
31
0
0
LINE
8
0
62
1
10
5826,029
20
-771,5
30
0
11
5841,029
21
-771,5
31
0
0
LINE
8
0
62
1
10
5841,029
20
-771,5
30
0
11
5841,029
21
-809
31
0
0
LINE
8
0
62
1
10
5841,029
20
-809
30
0
11
5846,68
21
-814,66
31
0
0
LINE
8
0
6
HIDDEN
62
1
10
5846,68
20
-814,66
30
0
11
5981,87
21
-834,36
31
0
0
ARC
8
0
62
1
10
5971,029
20
-824
30
0
40
14,994
50
-43,703
51
90
0
LINE
8
0
62
1
10
5971,029
20
-809
30
0
11
5859,029
21
-809
31
0
0
LINE
8
0
62
1
10
5859,029
20
-809
30
0
11
5859,029
21
-9
31
0
0
LINE
8
0
62
1
10
5859,029
20
-9
30
0
11
5971,029
21
-9
31
0
0
LINE
8
0
62
1
10
5971,029
20
-9
30
0
11
5971,029
21
-46,5
31
0
0
LINE
8
0
62
1
10
5971,029
20
-46,5
30
0
11
5956,029
21
-46,5
31
0
0
LINE
8
0
62
1
10
5956,029
20
-46,5
30
0
11
5956,029
21
-96,5
31
0
0
LINE
8
0
62
1
10
5956,029
20
-96,5
30
0
11
5971,029
21
-96,5
31
0
0
LINE
8
0
62
1
10
5971,029
20
-96,5
30
0
11
5971,029
21
-721,5
31
0
0
LINE
8
0
62
1
10
5971,029
20
-721,5
30
0
11
5956,029
21
-721,5
31
0
0
LINE
8
0
62
1
10
5956,029
20
-721,5
30
0
11
5956,029
21
-771,5
31
0
0
LINE
8
0
62
1
10
5956,029
20
-771,5
30
0
11
5971,029
21
-771,5
31
0
0
LINE
8
0
62
1
10
5971,029
20
-771,5
30
0
11
5971,029
21
-809
31
0
0
LINE
8
0
62
1
10
5971,029
20
-809
30
0
11
5976,689
21
-814,66
31
0
0
ENDSEC
0
EOF
