999
NC Corrector for PPC by Strunov V.V.
0
SECTION
2
HEADER
9
$ACADVER
1
AC1006
9
$LIMMIN
10
0
20
-2097,72
9
$LIMMAX
10
6093,379
20
0
0
ENDSEC
0
SECTION
2
TABLES
0
TABLE
2
LTYPE
70
2
0
LTYPE
2
CONTINUOUS
70
64
3
Solid line
72
65
73
0
40
0.0
0
LTYPE
2
Hidden
70
64
3
__ __ __ __ __ __ __ __ __ __ __ __ __ __ __ __
72
65
73
2
40
8.
49
5.0
49
-3.0
0
ENDTAB
0
TABLE
2
LAYER
70
1
0
LAYER
2
0
70
0
62
0
6
CONTINUOUS
0
ENDTAB
0
ENDSEC
0
SECTION
2
ENTITIES
0
LINE
8
0
6
HIDDEN
62
1
10
0
20
0
30
0
11
202,619
21
-2097,72
31
0
0
ARC
8
0
62
1
10
195,13
20
-2097,5
30
0
40
7,493
50
-1,683
51
90
0
LINE
8
0
62
1
10
195,13
20
-2090
30
0
11
10
21
-2090
31
0
0
LINE
8
0
62
1
10
10
20
-2090
30
0
11
10
21
-798
31
0
0
LINE
8
0
62
1
10
10
20
-798
30
0
11
195,13
21
-798
31
0
0
LINE
8
0
62
1
10
195,13
20
-798
30
0
11
195,13
21
-2090
31
0
0
LINE
8
0
62
1
10
195,13
20
-2090
30
0
11
198,66
21
-2093,531
31
0
0
LINE
8
0
6
HIDDEN
62
1
10
198,66
20
-2093,531
30
0
11
444,899
21
-1835,5
31
0
0
LINE
8
0
62
1
10
444,899
20
-1835,5
30
0
11
437,92
21
-1836,11
31
0
0
LINE
8
0
6
HIDDEN
62
1
10
437,92
20
-1836,11
30
0
11
364,899
21
-1835,5
31
0
0
LINE
8
0
62
1
10
364,899
20
-1835,5
30
0
11
365,309
21
-1842,49
31
0
0
LINE
8
0
6
HIDDEN
62
1
10
365,309
20
-1842,49
30
0
11
364,899
21
-1953
31
0
0
LINE
8
0
62
1
10
364,899
20
-1953
30
0
11
371,89
21
-1953,37
31
0
0
LINE
8
0
6
HIDDEN
62
1
10
371,89
20
-1953,37
30
0
11
444,899
21
-1953
31
0
0
LINE
8
0
62
1
10
444,899
20
-1953
30
0
11
450,209
21
-1957,561
31
0
0
LINE
8
0
6
HIDDEN
62
1
10
450,209
20
-1957,561
30
0
11
614,469
21
-2090
31
0
0
LINE
8
0
62
1
10
614,469
20
-2090
30
0
11
604,469
21
-2090
31
0
0
LINE
8
0
62
1
10
604,469
20
-2090
30
0
11
508,13
21
-2090
31
0
0
ARC
8
0
62
1
10
494,679
20
-2110,64
30
0
40
24,635
50
56,909
51
123,09
0
LINE
8
0
62
1
10
481,23
20
-2090
30
0
11
328,559
21
-2090
31
0
0
LINE
8
0
62
1
10
328,559
20
-2090
30
0
11
327,899
21
-2089,771
31
0
0
ARC
8
0
62
1
10
314,95
20
-2110,121
30
0
40
24,121
50
57,528
51
123,446
0
LINE
8
0
62
1
10
301,66
20
-2090
30
0
11
205,32
21
-2090
31
0
0
LINE
8
0
62
1
10
205,32
20
-2090
30
0
11
205,32
21
-2023
31
0
0
ARC
8
0
62
1
10
215,32
20
-2023
30
0
40
10
50
90
51
180
0
LINE
8
0
62
1
10
215,32
20
-2013
30
0
11
220,32
21
-2013
31
0
0
ARC
8
0
62
1
10
220,32
20
-1983
30
0
40
30
50
-90
51
0
0
LINE
8
0
62
1
10
250,32
20
-1983
30
0
11
250,32
21
-1823
31
0
0
ARC
8
0
62
1
10
260,32
20
-1823
30
0
40
10
50
90
51
180
0
LINE
8
0
62
1
10
260,32
20
-1813
30
0
11
301,66
21
-1813
31
0
0
LINE
8
0
62
1
10
301,66
20
-1813
30
0
11
302,32
21
-1813,23
31
0
0
ARC
8
0
62
1
10
315,269
20
-1792,881
30
0
40
24,121
50
237,528
51
303,446
0
LINE
8
0
62
1
10
328,559
20
-1813
30
0
11
481,23
21
-1813
31
0
0
ARC
8
0
62
1
10
494,529
20
-1792,881
30
0
40
24,118
50
236,533
51
302,451
0
LINE
8
0
62
1
10
507,47
20
-1813,23
30
0
11
508,13
21
-1813
31
0
0
LINE
8
0
62
1
10
508,13
20
-1813
30
0
11
549,469
21
-1813
31
0
0
ARC
8
0
62
1
10
549,469
20
-1823
30
0
40
10
50
0
51
90
0
LINE
8
0
62
1
10
559,469
20
-1823
30
0
11
559,469
21
-1983
31
0
0
ARC
8
0
62
1
10
589,469
20
-1983
30
0
40
30
50
180
51
270
0
LINE
8
0
62
1
10
589,469
20
-2013
30
0
11
594,469
21
-2013
31
0
0
ARC
8
0
62
1
10
594,469
20
-2023
30
0
40
10
50
0
51
90
0
LINE
8
0
62
1
10
604,469
20
-2023
30
0
11
604,469
21
-2090
31
0
0
LINE
8
0
62
1
10
604,469
20
-2090
30
0
11
604,469
21
-2095
31
0
0
LINE
8
0
6
HIDDEN
62
1
10
604,469
20
-2095
30
0
11
444,899
21
-1548,45
31
0
0
LINE
8
0
62
1
10
444,899
20
-1548,45
30
0
11
437,92
21
-1549,061
31
0
0
LINE
8
0
6
HIDDEN
62
1
10
437,92
20
-1549,061
30
0
11
364,899
21
-1548,45
31
0
0
LINE
8
0
62
1
10
364,899
20
-1548,45
30
0
11
365,309
21
-1555,44
31
0
0
LINE
8
0
6
HIDDEN
62
1
10
365,309
20
-1555,44
30
0
11
364,899
21
-1665,95
31
0
0
LINE
8
0
62
1
10
364,899
20
-1665,95
30
0
11
371,89
21
-1666,32
31
0
0
LINE
8
0
6
HIDDEN
62
1
10
371,89
20
-1666,32
30
0
11
444,899
21
-1665,95
31
0
0
LINE
8
0
62
1
10
444,899
20
-1665,95
30
0
11
450,209
21
-1670,511
31
0
0
LINE
8
0
6
HIDDEN
62
1
10
450,209
20
-1670,511
30
0
11
614,469
21
-1802,95
31
0
0
LINE
8
0
62
1
10
614,469
20
-1802,95
30
0
11
604,469
21
-1802,95
31
0
0
LINE
8
0
62
1
10
604,469
20
-1802,95
30
0
11
508,13
21
-1802,95
31
0
0
ARC
8
0
62
1
10
494,679
20
-1823,59
30
0
40
24,635
50
56,909
51
123,09
0
LINE
8
0
62
1
10
481,23
20
-1802,95
30
0
11
328,559
21
-1802,95
31
0
0
LINE
8
0
62
1
10
328,559
20
-1802,95
30
0
11
327,899
21
-1802,72
31
0
0
ARC
8
0
62
1
10
314,95
20
-1823,061
30
0
40
24,112
50
57,516
51
123,459
0
LINE
8
0
62
1
10
301,66
20
-1802,95
30
0
11
205,32
21
-1802,95
31
0
0
LINE
8
0
62
1
10
205,32
20
-1802,95
30
0
11
205,32
21
-1735,95
31
0
0
ARC
8
0
62
1
10
215,32
20
-1735,95
30
0
40
10
50
90
51
180
0
LINE
8
0
62
1
10
215,32
20
-1725,95
30
0
11
220,32
21
-1725,95
31
0
0
ARC
8
0
62
1
10
220,32
20
-1695,95
30
0
40
30
50
-90
51
0
0
LINE
8
0
62
1
10
250,32
20
-1695,95
30
0
11
250,32
21
-1535,95
31
0
0
ARC
8
0
62
1
10
260,32
20
-1535,95
30
0
40
10
50
90
51
180
0
LINE
8
0
62
1
10
260,32
20
-1525,95
30
0
11
301,66
21
-1525,95
31
0
0
LINE
8
0
62
1
10
301,66
20
-1525,95
30
0
11
302,32
21
-1526,181
31
0
0
ARC
8
0
62
1
10
315,269
20
-1505,83
30
0
40
24,121
50
237,528
51
303,446
0
LINE
8
0
62
1
10
328,559
20
-1525,95
30
0
11
481,23
21
-1525,95
31
0
0
ARC
8
0
62
1
10
494,529
20
-1505,83
30
0
40
24,118
50
236,533
51
302,451
0
LINE
8
0
62
1
10
507,47
20
-1526,181
30
0
11
508,13
21
-1525,95
31
0
0
LINE
8
0
62
1
10
508,13
20
-1525,95
30
0
11
549,469
21
-1525,95
31
0
0
ARC
8
0
62
1
10
549,469
20
-1535,95
30
0
40
10
50
0
51
90
0
LINE
8
0
62
1
10
559,469
20
-1535,95
30
0
11
559,469
21
-1695,95
31
0
0
ARC
8
0
62
1
10
589,469
20
-1695,95
30
0
40
30
50
180
51
270
0
LINE
8
0
62
1
10
589,469
20
-1725,95
30
0
11
594,469
21
-1725,95
31
0
0
ARC
8
0
62
1
10
594,469
20
-1735,95
30
0
40
10
50
0
51
90
0
LINE
8
0
62
1
10
604,469
20
-1735,95
30
0
11
604,469
21
-1802,95
31
0
0
LINE
8
0
62
1
10
604,469
20
-1802,95
30
0
11
604,469
21
-1807,95
31
0
0
LINE
8
0
6
HIDDEN
62
1
10
604,469
20
-1807,95
30
0
11
544,169
21
-204,95
31
0
0
LINE
8
0
62
1
10
544,169
20
-204,95
30
0
11
537,2
21
-205,571
31
0
0
LINE
8
0
6
HIDDEN
62
1
10
537,2
20
-205,571
30
0
11
464,17
21
-204,95
31
0
0
LINE
8
0
62
1
10
464,17
20
-204,95
30
0
11
464,589
21
-211,941
31
0
0
LINE
8
0
6
HIDDEN
62
1
10
464,589
20
-211,941
30
0
11
464,17
21
-322,451
31
0
0
LINE
8
0
62
1
10
464,17
20
-322,451
30
0
11
471,17
21
-322,52
31
0
0
LINE
8
0
6
HIDDEN
62
1
10
471,17
20
-322,52
30
0
11
544,169
21
-322,451
31
0
0
LINE
8
0
62
1
10
544,169
20
-322,451
30
0
11
551,13
21
-323,21
31
0
0
LINE
8
0
6
HIDDEN
62
1
10
551,13
20
-323,21
30
0
11
666,469
21
-327,46
31
0
0
ARC
8
0
62
1
10
666,25
20
-334,951
30
0
40
7,493
50
88,317
51
180
0
ARC
8
0
62
1
10
648,75
20
-334,951
30
0
40
10
50
-90
51
0
0
LINE
8
0
62
1
10
648,75
20
-344,951
30
0
11
607,409
21
-344,951
31
0
0
LINE
8
0
62
1
10
607,409
20
-344,951
30
0
11
606,75
21
-344,731
31
0
0
ARC
8
0
62
1
10
593,799
20
-365,071
30
0
40
24,112
50
57,516
51
123,446
0
LINE
8
0
62
1
10
580,51
20
-344,951
30
0
11
427,839
21
-344,951
31
0
0
ARC
8
0
62
1
10
414,549
20
-365,071
30
0
40
24,113
50
56,553
51
122,483
0
LINE
8
0
62
1
10
401,6
20
-344,731
30
0
11
400,94
21
-344,951
31
0
0
LINE
8
0
62
1
10
400,94
20
-344,951
30
0
11
359,6
21
-344,951
31
0
0
ARC
8
0
62
1
10
359,6
20
-334,951
30
0
40
10
50
180
51
270
0
LINE
8
0
62
1
10
349,6
20
-334,951
30
0
11
349,6
21
-174,95
31
0
0
ARC
8
0
62
1
10
319,6
20
-174,95
30
0
40
30
50
0
51
90
0
LINE
8
0
62
1
10
319,6
20
-144,95
30
0
11
314,6
21
-144,95
31
0
0
ARC
8
0
62
1
10
314,6
20
-134,95
30
0
40
10
50
180
51
270
0
LINE
8
0
62
1
10
304,6
20
-134,95
30
0
11
304,6
21
-67,95
31
0
0
LINE
8
0
62
1
10
304,6
20
-67,95
30
0
11
400,94
21
-67,95
31
0
0
ARC
8
0
62
1
10
414,39
20
-47,311
30
0
40
24,635
50
236,909
51
303,09
0
LINE
8
0
62
1
10
427,839
20
-67,95
30
0
11
580,51
21
-67,95
31
0
0
LINE
8
0
62
1
10
580,51
20
-67,95
30
0
11
581,169
21
-68,181
31
0
0
ARC
8
0
62
1
10
594,119
20
-47,841
30
0
40
24,112
50
237,516
51
303,459
0
LINE
8
0
62
1
10
607,409
20
-67,95
30
0
11
703,75
21
-67,95
31
0
0
LINE
8
0
62
1
10
703,75
20
-67,95
30
0
11
703,75
21
-134,95
31
0
0
ARC
8
0
62
1
10
693,75
20
-134,95
30
0
40
10
50
-90
51
0
0
LINE
8
0
62
1
10
693,75
20
-144,95
30
0
11
688,75
21
-144,95
31
0
0
ARC
8
0
62
1
10
688,75
20
-174,95
30
0
40
30
50
90
51
180
0
LINE
8
0
62
1
10
658,75
20
-174,95
30
0
11
658,75
21
-334,951
31
0
0
LINE
8
0
62
1
10
658,75
20
-334,951
30
0
11
662,28
21
-338,49
31
0
0
LINE
8
0
6
HIDDEN
62
1
10
662,28
20
-338,49
30
0
11
3093,989
21
-1272,391
31
0
0
LINE
8
0
62
1
10
3093,989
20
-1272,391
30
0
11
3093,989
21
-1277,391
31
0
0
LINE
8
0
62
1
10
3093,989
20
-1277,391
30
0
11
3093,989
21
-1469,391
31
0
0
LINE
8
0
62
1
10
3093,989
20
-1469,391
30
0
11
1016,109
21
-1469,391
31
0
0
LINE
8
0
62
1
10
1016,109
20
-1469,391
30
0
11
1016,109
21
-1449,391
31
0
0
LINE
8
0
62
1
10
1016,109
20
-1449,391
30
0
11
1076,699
21
-1427,34
31
0
0
ARC
8
0
62
1
10
1056,18
20
-1370,95
30
0
40
60,007
50
289,996
51
359,99
0
LINE
8
0
62
1
10
1116,18
20
-1370,96
30
0
11
1116,18
21
-1277,391
31
0
0
LINE
8
0
62
1
10
1116,18
20
-1277,391
30
0
11
3093,989
21
-1277,391
31
0
0
LINE
8
0
62
1
10
3093,989
20
-1277,391
30
0
11
3096,489
21
-1277,391
31
0
0
LINE
8
0
6
HIDDEN
62
1
10
3096,489
20
-1277,391
30
0
11
2868,1
21
-1058,401
31
0
0
LINE
8
0
62
1
10
2868,1
20
-1058,401
30
0
11
2868,1
21
-1063,401
31
0
0
LINE
8
0
62
1
10
2868,1
20
-1063,401
30
0
11
2868,1
21
-1156,96
31
0
0
ARC
8
0
62
1
10
2928,1
20
-1156,96
30
0
40
60
50
180
51
249,991
0
LINE
8
0
62
1
10
2907,57
20
-1213,34
30
0
11
2968,169
21
-1235,401
31
0
0
LINE
8
0
62
1
10
2968,169
20
-1235,401
30
0
11
2968,169
21
-1255,401
31
0
0
LINE
8
0
62
1
10
2968,169
20
-1255,401
30
0
11
890,289
21
-1255,401
31
0
0
LINE
8
0
62
1
10
890,289
20
-1255,401
30
0
11
890,289
21
-1063,401
31
0
0
LINE
8
0
62
1
10
890,289
20
-1063,401
30
0
11
2868,1
21
-1063,401
31
0
0
LINE
8
0
62
1
10
2868,1
20
-1063,401
30
0
11
2870,6
21
-1063,401
31
0
0
LINE
8
0
6
HIDDEN
62
1
10
2870,6
20
-1063,401
30
0
11
2742,27
21
-844,401
31
0
0
LINE
8
0
62
1
10
2742,27
20
-844,401
30
0
11
2742,27
21
-849,401
31
0
0
LINE
8
0
62
1
10
2742,27
20
-849,401
30
0
11
2742,27
21
-942,97
31
0
0
ARC
8
0
62
1
10
2802,27
20
-942,97
30
0
40
60
50
180
51
250
0
LINE
8
0
62
1
10
2781,75
20
-999,35
30
0
11
2842,34
21
-1021,401
31
0
0
LINE
8
0
62
1
10
2842,34
20
-1021,401
30
0
11
2842,34
21
-1041,401
31
0
0
LINE
8
0
62
1
10
2842,34
20
-1041,401
30
0
11
764,46
21
-1041,401
31
0
0
LINE
8
0
62
1
10
764,46
20
-1041,401
30
0
11
764,46
21
-849,401
31
0
0
LINE
8
0
62
1
10
764,46
20
-849,401
30
0
11
2742,27
21
-849,401
31
0
0
LINE
8
0
62
1
10
2742,27
20
-849,401
30
0
11
2744,77
21
-849,401
31
0
0
LINE
8
0
6
HIDDEN
62
1
10
2744,77
20
-849,401
30
0
11
4452,919
21
-643,401
31
0
0
LINE
8
0
62
1
10
4452,919
20
-643,401
30
0
11
4452,919
21
-648,401
31
0
0
LINE
8
0
62
1
10
4452,919
20
-648,401
30
0
11
4452,919
21
-840,401
31
0
0
LINE
8
0
62
1
10
4452,919
20
-840,401
30
0
11
2375,04
21
-840,401
31
0
0
LINE
8
0
62
1
10
2375,04
20
-840,401
30
0
11
2375,04
21
-820,401
31
0
0
LINE
8
0
62
1
10
2375,04
20
-820,401
30
0
11
2435,629
21
-798,35
31
0
0
ARC
8
0
62
1
10
2415,11
20
-741,97
30
0
40
59,998
50
-70,001
51
0
0
LINE
8
0
62
1
10
2475,11
20
-741,97
30
0
11
2475,11
21
-648,401
31
0
0
LINE
8
0
62
1
10
2475,11
20
-648,401
30
0
11
4452,919
21
-648,401
31
0
0
LINE
8
0
62
1
10
4452,919
20
-648,401
30
0
11
4455,419
21
-648,401
31
0
0
LINE
8
0
6
HIDDEN
62
1
10
4455,419
20
-648,401
30
0
11
5056,89
21
-1066,391
31
0
0
LINE
8
0
62
1
10
5056,89
20
-1066,391
30
0
11
5056,89
21
-1076,391
31
0
0
LINE
8
0
62
1
10
5056,89
20
-1076,391
30
0
11
5056,89
21
-1268,391
31
0
0
LINE
8
0
62
1
10
5056,89
20
-1268,391
30
0
11
2979
21
-1268,391
31
0
0
LINE
8
0
62
1
10
2979
20
-1268,391
30
0
11
2979
21
-1248,391
31
0
0
LINE
8
0
62
1
10
2979
20
-1248,391
30
0
11
3039,6
21
-1226,34
31
0
0
ARC
8
0
62
1
10
3019,08
20
-1169,95
30
0
40
60,007
50
-70,004
51
0
0
LINE
8
0
62
1
10
3079,08
20
-1169,95
30
0
11
3079,08
21
-1076,391
31
0
0
LINE
8
0
62
1
10
3079,08
20
-1076,391
30
0
11
5056,89
21
-1076,391
31
0
0
LINE
8
0
62
1
10
5056,89
20
-1076,391
30
0
11
5061,89
21
-1076,391
31
0
0
LINE
8
0
6
HIDDEN
62
1
10
5061,89
20
-1076,391
30
0
11
4931,06
21
-852,401
31
0
0
LINE
8
0
62
1
10
4931,06
20
-852,401
30
0
11
4931,06
21
-862,401
31
0
0
LINE
8
0
62
1
10
4931,06
20
-862,401
30
0
11
4931,06
21
-1054,401
31
0
0
LINE
8
0
62
1
10
4931,06
20
-1054,401
30
0
11
2853,179
21
-1054,401
31
0
0
LINE
8
0
62
1
10
2853,179
20
-1054,401
30
0
11
2853,179
21
-1034,401
31
0
0
LINE
8
0
62
1
10
2853,179
20
-1034,401
30
0
11
2913,77
21
-1012,341
31
0
0
ARC
8
0
62
1
10
2893,25
20
-955,961
30
0
40
59,998
50
-70,001
51
0
0
LINE
8
0
62
1
10
2953,25
20
-955,961
30
0
11
2953,25
21
-862,401
31
0
0
LINE
8
0
62
1
10
2953,25
20
-862,401
30
0
11
4931,06
21
-862,401
31
0
0
LINE
8
0
62
1
10
4931,06
20
-862,401
30
0
11
4936,06
21
-862,401
31
0
0
LINE
8
0
6
HIDDEN
62
1
10
4936,06
20
-862,401
30
0
11
4687,939
21
-698,691
31
0
0
LINE
8
0
62
1
10
4687,939
20
-698,691
30
0
11
4680,959
21
-699,31
31
0
0
LINE
8
0
6
HIDDEN
62
1
10
4680,959
20
-699,31
30
0
11
4607,939
21
-698,691
31
0
0
LINE
8
0
62
1
10
4607,939
20
-698,691
30
0
11
4608,35
21
-705,68
31
0
0
LINE
8
0
6
HIDDEN
62
1
10
4608,35
20
-705,68
30
0
11
4607,939
21
-816,191
31
0
0
LINE
8
0
62
1
10
4607,939
20
-816,191
30
0
11
4614,939
21
-816,261
31
0
0
LINE
8
0
6
HIDDEN
62
1
10
4614,939
20
-816,261
30
0
11
4687,939
21
-816,191
31
0
0
LINE
8
0
62
1
10
4687,939
20
-816,191
30
0
11
4694,899
21
-816,951
31
0
0
LINE
8
0
6
HIDDEN
62
1
10
4694,899
20
-816,951
30
0
11
4810,229
21
-821,201
31
0
0
ARC
8
0
62
1
10
4810,009
20
-828,691
30
0
40
7,493
50
88,315
51
180
0
ARC
8
0
62
1
10
4792,509
20
-828,691
30
0
40
10
50
-90
51
0
0
LINE
8
0
62
1
10
4792,509
20
-838,691
30
0
11
4751,169
21
-838,691
31
0
0
LINE
8
0
62
1
10
4751,169
20
-838,691
30
0
11
4750,509
21
-838,47
31
0
0
ARC
8
0
62
1
10
4737,569
20
-858,81
30
0
40
24,107
50
57,536
51
123,465
0
LINE
8
0
62
1
10
4724,27
20
-838,691
30
0
11
4571,6
21
-838,691
31
0
0
ARC
8
0
62
1
10
4558,31
20
-858,81
30
0
40
24,113
50
56,553
51
122,463
0
LINE
8
0
62
1
10
4545,37
20
-838,47
30
0
11
4544,7
21
-838,691
31
0
0
LINE
8
0
62
1
10
4544,7
20
-838,691
30
0
11
4503,37
21
-838,691
31
0
0
ARC
8
0
62
1
10
4503,37
20
-828,691
30
0
40
10
50
180
51
270
0
LINE
8
0
62
1
10
4493,37
20
-828,691
30
0
11
4493,37
21
-668,691
31
0
0
ARC
8
0
62
1
10
4463,37
20
-668,691
30
0
40
30
50
0
51
90
0
LINE
8
0
62
1
10
4463,37
20
-638,691
30
0
11
4458,37
21
-638,691
31
0
0
ARC
8
0
62
1
10
4458,37
20
-628,691
30
0
40
10
50
180
51
270
0
LINE
8
0
62
1
10
4448,37
20
-628,691
30
0
11
4448,37
21
-561,691
31
0
0
LINE
8
0
62
1
10
4448,37
20
-561,691
30
0
11
4544,7
21
-561,691
31
0
0
ARC
8
0
62
1
10
4558,149
20
-541,05
30
0
40
24,635
50
236,91
51
303,09
0
LINE
8
0
62
1
10
4571,6
20
-561,691
30
0
11
4724,27
21
-561,691
31
0
0
LINE
8
0
62
1
10
4724,27
20
-561,691
30
0
11
4724,939
21
-561,92
31
0
0
ARC
8
0
62
1
10
4737,879
20
-541,581
30
0
40
24,107
50
237,536
51
303,459
0
LINE
8
0
62
1
10
4751,169
20
-561,691
30
0
11
4847,509
21
-561,691
31
0
0
LINE
8
0
62
1
10
4847,509
20
-561,691
30
0
11
4847,509
21
-628,691
31
0
0
ARC
8
0
62
1
10
4837,509
20
-628,691
30
0
40
10
50
-90
51
0
0
LINE
8
0
62
1
10
4837,509
20
-638,691
30
0
11
4832,509
21
-638,691
31
0
0
ARC
8
0
62
1
10
4832,509
20
-668,691
30
0
40
30
50
90
51
180
0
LINE
8
0
62
1
10
4802,509
20
-668,691
30
0
11
4802,509
21
-828,691
31
0
0
LINE
8
0
62
1
10
4802,509
20
-828,691
30
0
11
4806,049
21
-832,23
31
0
0
LINE
8
0
6
HIDDEN
62
1
10
4806,049
20
-832,23
30
0
11
116,949
21
-137,4
31
0
0
LINE
8
0
62
1
10
116,949
20
-137,4
30
0
11
123,279
21
-147,59
31
0
0
ARC
8
0
62
1
10
120,639
20
-143,34
30
0
40
5,003
50
301,847
51
359,083
0
LINE
8
0
6
HIDDEN
62
1
10
125,639
20
-143,42
30
0
11
1160,989
21
-1838,661
31
0
0
LINE
8
0
62
1
10
1160,989
20
-1838,661
30
0
11
1172,839
21
-1836,791
31
0
0
ARC
8
0
62
1
10
1167,9
20
-1837,57
30
0
40
5,001
50
8,971
51
66,304
0
LINE
8
0
6
HIDDEN
62
1
10
1169,91
20
-1832,99
30
0
11
3866,02
21
-1399,21
31
0
0
LINE
8
0
62
1
10
3866,02
20
-1399,21
30
0
11
3869,929
21
-1410,561
31
0
0
ARC
8
0
62
1
10
3868,3
20
-1405,83
30
0
40
5,003
50
289,012
51
346,24
0
LINE
8
0
6
HIDDEN
62
1
10
3873,159
20
-1407,021
30
0
11
3983,889
21
-1777,561
31
0
0
LINE
8
0
62
1
10
3983,889
20
-1777,561
30
0
11
3995,87
21
-1776,801
31
0
0
ARC
8
0
62
1
10
3990,879
20
-1777,12
30
0
40
5
50
3,668
51
60,921
0
LINE
8
0
6
HIDDEN
62
1
10
3993,31
20
-1772,75
30
0
11
5475,7
21
-1680,171
31
0
0
LINE
8
0
62
1
10
5475,7
20
-1680,171
30
0
11
5466,299
21
-1683,6
31
0
0
LINE
8
0
62
1
10
5466,299
20
-1683,6
30
0
11
4616,509
21
-1993,49
31
0
0
ARC
8
0
62
1
10
4479,37
20
-1617,23
30
0
40
400,473
50
273,464
51
290,025
0
LINE
8
0
62
1
10
4503,569
20
-2016,97
30
0
11
3299,149
21
-2089,69
31
0
0
ARC
8
0
62
1
10
3274,79
20
-1682,09
30
0
40
408,327
50
270,035
51
273,42
0
LINE
8
0
62
1
10
3275,04
20
-2090,42
30
0
11
1040,739
21
-2090,42
31
0
0
ARC
8
0
62
1
10
1040,76
20
-1880,391
30
0
40
210,029
50
204,563
51
269,994
0
LINE
8
0
62
1
10
849,739
20
-1967,7
30
0
11
17,409
21
-146,351
31
0
0
ARC
8
0
62
1
10
99,269
20
-108,941
30
0
40
90,003
50
30,457
51
204,56
0
LINE
8
0
62
1
10
176,85
20
-63,32
30
0
11
1049,689
21
-1547,771
31
0
0
ARC
8
0
62
1
10
1265,219
20
-1421,031
30
0
40
250,032
50
210,457
51
273,45
0
LINE
8
0
62
1
10
1280,27
20
-1670,6
30
0
11
3266,6
21
-1550,681
31
0
0
ARC
8
0
62
1
10
3230,37
20
-951,451
30
0
40
600,324
50
273,459
51
293,449
0
LINE
8
0
62
1
10
3469,26
20
-1502,19
30
0
11
3734,11
21
-1387,281
31
0
0
ARC
8
0
62
1
10
3686,34
20
-1277,19
30
0
40
120,007
50
293,456
51
328,417
0
ARC
8
0
62
1
10
3860,979
20
-1384,551
30
0
40
84,996
50
38,489
51
148,421
0
ARC
8
0
62
1
10
4021,439
20
-1256,96
30
0
40
120,005
50
218,49
51
253,451
0
LINE
8
0
62
1
10
3987,26
20
-1371,99
30
0
11
4264,009
21
-1454,2
31
0
0
ARC
8
0
62
1
10
4434,91
20
-878,72
30
0
40
600,32
50
253,46
51
273,449
0
LINE
8
0
62
1
10
4471,029
20
-1477,96
30
0
11
5419,52
21
-1420,69
31
0
0
LINE
8
0
62
1
10
5419,52
20
-1420,69
30
0
11
5466,299
21
-1683,6
31
0
0
LINE
8
0
62
1
10
5466,299
20
-1683,6
30
0
11
5467,18
21
-1688,521
31
0
0
LINE
8
0
6
HIDDEN
62
1
10
5467,18
20
-1688,521
30
0
11
5414,109
21
-1943,431
31
0
0
LINE
8
0
62
1
10
5414,109
20
-1943,431
30
0
11
5407,14
21
-1944,041
31
0
0
LINE
8
0
6
HIDDEN
62
1
10
5407,14
20
-1944,041
30
0
11
5334,109
21
-1943,431
31
0
0
LINE
8
0
62
1
10
5334,109
20
-1943,431
30
0
11
5334,529
21
-1950,411
31
0
0
LINE
8
0
6
HIDDEN
62
1
10
5334,529
20
-1950,411
30
0
11
5334,109
21
-2060,93
31
0
0
LINE
8
0
62
1
10
5334,109
20
-2060,93
30
0
11
5341,109
21
-2060,99
31
0
0
LINE
8
0
6
HIDDEN
62
1
10
5341,109
20
-2060,99
30
0
11
5414,109
21
-2060,93
31
0
0
LINE
8
0
62
1
10
5414,109
20
-2060,93
30
0
11
5421,069
21
-2061,69
31
0
0
LINE
8
0
6
HIDDEN
62
1
10
5421,069
20
-2061,69
30
0
11
5536,41
21
-2065,93
31
0
0
ARC
8
0
62
1
10
5536,189
20
-2073,43
30
0
40
7,503
50
88,318
51
180
0
ARC
8
0
62
1
10
5518,689
20
-2073,43
30
0
40
10
50
-90
51
0
0
LINE
8
0
62
1
10
5518,689
20
-2083,43
30
0
11
5477,35
21
-2083,43
31
0
0
LINE
8
0
62
1
10
5477,35
20
-2083,43
30
0
11
5476,689
21
-2083,2
31
0
0
ARC
8
0
62
1
10
5463,74
20
-2103,541
30
0
40
24,112
50
57,516
51
123,459
0
LINE
8
0
62
1
10
5450,45
20
-2083,43
30
0
11
5297,779
21
-2083,43
31
0
0
ARC
8
0
62
1
10
5284,479
20
-2103,541
30
0
40
24,11
50
56,521
51
122,463
0
LINE
8
0
62
1
10
5271,54
20
-2083,2
30
0
11
5270,879
21
-2083,43
31
0
0
LINE
8
0
62
1
10
5270,879
20
-2083,43
30
0
11
5229,54
21
-2083,43
31
0
0
ARC
8
0
62
1
10
5229,54
20
-2073,43
30
0
40
10
50
180
51
270
0
LINE
8
0
62
1
10
5219,54
20
-2073,43
30
0
11
5219,54
21
-1913,431
31
0
0
ARC
8
0
62
1
10
5189,54
20
-1913,431
30
0
40
30
50
0
51
90
0
LINE
8
0
62
1
10
5189,54
20
-1883,431
30
0
11
5184,54
21
-1883,431
31
0
0
ARC
8
0
62
1
10
5184,54
20
-1873,431
30
0
40
10
50
180
51
270
0
LINE
8
0
62
1
10
5174,54
20
-1873,431
30
0
11
5174,54
21
-1806,431
31
0
0
LINE
8
0
62
1
10
5174,54
20
-1806,431
30
0
11
5270,879
21
-1806,431
31
0
0
ARC
8
0
62
1
10
5284,33
20
-1785,781
30
0
40
24,644
50
236,922
51
303,076
0
LINE
8
0
62
1
10
5297,779
20
-1806,431
30
0
11
5450,45
21
-1806,431
31
0
0
LINE
8
0
62
1
10
5450,45
20
-1806,431
30
0
11
5451,109
21
-1806,651
31
0
0
ARC
8
0
62
1
10
5464,06
20
-1786,311
30
0
40
24,112
50
237,515
51
303,446
0
LINE
8
0
62
1
10
5477,35
20
-1806,431
30
0
11
5573,689
21
-1806,431
31
0
0
LINE
8
0
62
1
10
5573,689
20
-1806,431
30
0
11
5573,689
21
-1873,431
31
0
0
ARC
8
0
62
1
10
5563,689
20
-1873,431
30
0
40
10
50
-90
51
0
0
LINE
8
0
62
1
10
5563,689
20
-1883,431
30
0
11
5558,689
21
-1883,431
31
0
0
ARC
8
0
62
1
10
5558,689
20
-1913,431
30
0
40
30
50
90
51
180
0
LINE
8
0
62
1
10
5528,689
20
-1913,431
30
0
11
5528,689
21
-2073,43
31
0
0
LINE
8
0
62
1
10
5528,689
20
-2073,43
30
0
11
5532,22
21
-2076,96
31
0
0
LINE
8
0
6
HIDDEN
62
1
10
5532,22
20
-2076,96
30
0
11
5714,06
21
-774,36
31
0
0
LINE
8
0
62
1
10
5714,06
20
-774,36
30
0
11
5707,08
21
-774,97
31
0
0
LINE
8
0
6
HIDDEN
62
1
10
5707,08
20
-774,97
30
0
11
5634,06
21
-774,36
31
0
0
LINE
8
0
62
1
10
5634,06
20
-774,36
30
0
11
5634,47
21
-781,341
31
0
0
LINE
8
0
6
HIDDEN
62
1
10
5634,47
20
-781,341
30
0
11
5634,06
21
-891,86
31
0
0
LINE
8
0
62
1
10
5634,06
20
-891,86
30
0
11
5641,06
21
-891,92
31
0
0
LINE
8
0
6
HIDDEN
62
1
10
5641,06
20
-891,92
30
0
11
5714,06
21
-891,86
31
0
0
LINE
8
0
62
1
10
5714,06
20
-891,86
30
0
11
5721,009
21
-892,62
31
0
0
LINE
8
0
6
HIDDEN
62
1
10
5721,009
20
-892,62
30
0
11
5836,35
21
-896,86
31
0
0
ARC
8
0
62
1
10
5836,129
20
-904,36
30
0
40
7,503
50
88,318
51
180
0
ARC
8
0
62
1
10
5818,629
20
-904,36
30
0
40
10
50
-90
51
0
0
LINE
8
0
62
1
10
5818,629
20
-914,36
30
0
11
5777,29
21
-914,36
31
0
0
LINE
8
0
62
1
10
5777,29
20
-914,36
30
0
11
5776,629
21
-914,131
31
0
0
ARC
8
0
62
1
10
5763,689
20
-934,47
30
0
40
24,107
50
57,536
51
123,478
0
LINE
8
0
62
1
10
5750,39
20
-914,36
30
0
11
5597,72
21
-914,36
31
0
0
ARC
8
0
62
1
10
5584,43
20
-934,47
30
0
40
24,104
50
56,54
51
122,484
0
LINE
8
0
62
1
10
5571,479
20
-914,131
30
0
11
5570,819
21
-914,36
31
0
0
LINE
8
0
62
1
10
5570,819
20
-914,36
30
0
11
5529,479
21
-914,36
31
0
0
ARC
8
0
62
1
10
5529,479
20
-904,36
30
0
40
10
50
180
51
270
0
LINE
8
0
62
1
10
5519,479
20
-904,36
30
0
11
5519,479
21
-744,36
31
0
0
ARC
8
0
62
1
10
5489,479
20
-744,36
30
0
40
30
50
0
51
90
0
LINE
8
0
62
1
10
5489,479
20
-714,36
30
0
11
5484,479
21
-714,36
31
0
0
ARC
8
0
62
1
10
5484,479
20
-704,36
30
0
40
10
50
180
51
270
0
LINE
8
0
62
1
10
5474,479
20
-704,36
30
0
11
5474,479
21
-637,36
31
0
0
LINE
8
0
62
1
10
5474,479
20
-637,36
30
0
11
5570,819
21
-637,36
31
0
0
ARC
8
0
62
1
10
5584,27
20
-616,711
30
0
40
24,644
50
236,922
51
303,077
0
LINE
8
0
62
1
10
5597,72
20
-637,36
30
0
11
5750,39
21
-637,36
31
0
0
LINE
8
0
62
1
10
5750,39
20
-637,36
30
0
11
5751,06
21
-637,581
31
0
0
ARC
8
0
62
1
10
5764
20
-617,24
30
0
40
24,107
50
237,536
51
303,446
0
LINE
8
0
62
1
10
5777,29
20
-637,36
30
0
11
5873,629
21
-637,36
31
0
0
LINE
8
0
62
1
10
5873,629
20
-637,36
30
0
11
5873,629
21
-704,36
31
0
0
ARC
8
0
62
1
10
5863,629
20
-704,36
30
0
40
10
50
-90
51
0
0
LINE
8
0
62
1
10
5863,629
20
-714,36
30
0
11
5858,629
21
-714,36
31
0
0
ARC
8
0
62
1
10
5858,629
20
-744,36
30
0
40
30
50
90
51
180
0
LINE
8
0
62
1
10
5828,629
20
-744,36
30
0
11
5828,629
21
-904,36
31
0
0
LINE
8
0
62
1
10
5828,629
20
-904,36
30
0
11
5832,16
21
-907,891
31
0
0
LINE
8
0
6
HIDDEN
62
1
10
5832,16
20
-907,891
30
0
11
5585,66
21
-487,191
31
0
0
LINE
8
0
62
1
10
5585,66
20
-487,191
30
0
11
5578,689
21
-487,8
31
0
0
LINE
8
0
6
HIDDEN
62
1
10
5578,689
20
-487,8
30
0
11
5505,66
21
-487,191
31
0
0
LINE
8
0
62
1
10
5505,66
20
-487,191
30
0
11
5506,08
21
-494,18
31
0
0
LINE
8
0
6
HIDDEN
62
1
10
5506,08
20
-494,18
30
0
11
5505,66
21
-604,691
31
0
0
LINE
8
0
62
1
10
5505,66
20
-604,691
30
0
11
5512,66
21
-604,75
31
0
0
LINE
8
0
6
HIDDEN
62
1
10
5512,66
20
-604,75
30
0
11
5585,66
21
-604,691
31
0
0
LINE
8
0
62
1
10
5585,66
20
-604,691
30
0
11
5592,62
21
-605,451
31
0
0
LINE
8
0
6
HIDDEN
62
1
10
5592,62
20
-605,451
30
0
11
5707,95
21
-609,701
31
0
0
ARC
8
0
62
1
10
5707,729
20
-617,191
30
0
40
7,493
50
88,315
51
180
0
ARC
8
0
62
1
10
5690,229
20
-617,191
30
0
40
10
50
-90
51
0
0
LINE
8
0
62
1
10
5690,229
20
-627,191
30
0
11
5648,899
21
-627,191
31
0
0
LINE
8
0
62
1
10
5648,899
20
-627,191
30
0
11
5648,229
21
-626,961
31
0
0
ARC
8
0
62
1
10
5635,29
20
-647,31
30
0
40
24,115
50
57,548
51
123,465
0
LINE
8
0
62
1
10
5621,99
20
-627,191
30
0
11
5469,319
21
-627,191
31
0
0
ARC
8
0
62
1
10
5456,029
20
-647,31
30
0
40
24,113
50
56,553
51
122,451
0
LINE
8
0
62
1
10
5443,089
20
-626,961
30
0
11
5442,419
21
-627,191
31
0
0
LINE
8
0
62
1
10
5442,419
20
-627,191
30
0
11
5401,089
21
-627,191
31
0
0
ARC
8
0
62
1
10
5401,089
20
-617,191
30
0
40
10
50
180
51
270
0
LINE
8
0
62
1
10
5391,089
20
-617,191
30
0
11
5391,089
21
-457,191
31
0
0
ARC
8
0
62
1
10
5361,089
20
-457,191
30
0
40
30
50
0
51
90
0
LINE
8
0
62
1
10
5361,089
20
-427,191
30
0
11
5356,089
21
-427,191
31
0
0
ARC
8
0
62
1
10
5356,089
20
-417,191
30
0
40
10
50
180
51
270
0
LINE
8
0
62
1
10
5346,089
20
-417,191
30
0
11
5346,089
21
-350,191
31
0
0
LINE
8
0
62
1
10
5346,089
20
-350,191
30
0
11
5442,419
21
-350,191
31
0
0
ARC
8
0
62
1
10
5455,87
20
-329,55
30
0
40
24,635
50
236,909
51
303,089
0
LINE
8
0
62
1
10
5469,319
20
-350,191
30
0
11
5621,99
21
-350,191
31
0
0
LINE
8
0
62
1
10
5621,99
20
-350,191
30
0
11
5622,66
21
-350,421
31
0
0
ARC
8
0
62
1
10
5635,6
20
-330,08
30
0
40
24,107
50
237,536
51
303,478
0
LINE
8
0
62
1
10
5648,899
20
-350,191
30
0
11
5745,229
21
-350,191
31
0
0
LINE
8
0
62
1
10
5745,229
20
-350,191
30
0
11
5745,229
21
-417,191
31
0
0
ARC
8
0
62
1
10
5735,229
20
-417,191
30
0
40
10
50
-90
51
0
0
LINE
8
0
62
1
10
5735,229
20
-427,191
30
0
11
5730,229
21
-427,191
31
0
0
ARC
8
0
62
1
10
5730,229
20
-457,191
30
0
40
30
50
90
51
180
0
LINE
8
0
62
1
10
5700,229
20
-457,191
30
0
11
5700,229
21
-617,191
31
0
0
LINE
8
0
62
1
10
5700,229
20
-617,191
30
0
11
5703,77
21
-620,73
31
0
0
LINE
8
0
6
HIDDEN
62
1
10
5703,77
20
-620,73
30
0
11
5467,439
21
-200,03
31
0
0
LINE
8
0
62
1
10
5467,439
20
-200,03
30
0
11
5460,459
21
-200,64
31
0
0
LINE
8
0
6
HIDDEN
62
1
10
5460,459
20
-200,64
30
0
11
5387,439
21
-200,03
31
0
0
LINE
8
0
62
1
10
5387,439
20
-200,03
30
0
11
5387,85
21
-207,01
31
0
0
LINE
8
0
6
HIDDEN
62
1
10
5387,85
20
-207,01
30
0
11
5387,439
21
-317,53
31
0
0
LINE
8
0
62
1
10
5387,439
20
-317,53
30
0
11
5394,439
21
-317,59
31
0
0
LINE
8
0
6
HIDDEN
62
1
10
5394,439
20
-317,59
30
0
11
5467,439
21
-317,53
31
0
0
LINE
8
0
62
1
10
5467,439
20
-317,53
30
0
11
5474,399
21
-318,291
31
0
0
LINE
8
0
6
HIDDEN
62
1
10
5474,399
20
-318,291
30
0
11
5589,729
21
-322,53
31
0
0
ARC
8
0
62
1
10
5589,509
20
-330,03
30
0
40
7,503
50
88,318
51
180
0
ARC
8
0
62
1
10
5572,009
20
-330,03
30
0
40
10
50
-90
51
0
0
LINE
8
0
62
1
10
5572,009
20
-340,03
30
0
11
5530,669
21
-340,03
31
0
0
LINE
8
0
62
1
10
5530,669
20
-340,03
30
0
11
5530,009
21
-339,8
31
0
0
ARC
8
0
62
1
10
5517,069
20
-360,141
30
0
40
24,107
50
57,536
51
123,478
0
LINE
8
0
62
1
10
5503,77
20
-340,03
30
0
11
5351,1
21
-340,03
31
0
0
ARC
8
0
62
1
10
5337,81
20
-360,141
30
0
40
24,104
50
56,54
51
122,484
0
LINE
8
0
62
1
10
5324,859
20
-339,8
30
0
11
5324,2
21
-340,03
31
0
0
LINE
8
0
62
1
10
5324,2
20
-340,03
30
0
11
5282,859
21
-340,03
31
0
0
ARC
8
0
62
1
10
5282,859
20
-330,03
30
0
40
10
50
180
51
270
0
LINE
8
0
62
1
10
5272,859
20
-330,03
30
0
11
5272,859
21
-170,03
31
0
0
ARC
8
0
62
1
10
5242,859
20
-170,03
30
0
40
30
50
0
51
90
0
LINE
8
0
62
1
10
5242,859
20
-140,03
30
0
11
5237,859
21
-140,03
31
0
0
ARC
8
0
62
1
10
5237,859
20
-130,03
30
0
40
10
50
180
51
270
0
LINE
8
0
62
1
10
5227,859
20
-130,03
30
0
11
5227,859
21
-63,03
31
0
0
LINE
8
0
62
1
10
5227,859
20
-63,03
30
0
11
5324,2
21
-63,03
31
0
0
ARC
8
0
62
1
10
5337,649
20
-42,381
30
0
40
24,643
50
236,923
51
303,077
0
LINE
8
0
62
1
10
5351,1
20
-63,03
30
0
11
5503,77
21
-63,03
31
0
0
LINE
8
0
62
1
10
5503,77
20
-63,03
30
0
11
5504,439
21
-63,25
31
0
0
ARC
8
0
62
1
10
5517,379
20
-42,91
30
0
40
24,107
50
237,536
51
303,446
0
LINE
8
0
62
1
10
5530,669
20
-63,03
30
0
11
5627,009
21
-63,03
31
0
0
LINE
8
0
62
1
10
5627,009
20
-63,03
30
0
11
5627,009
21
-130,03
31
0
0
ARC
8
0
62
1
10
5617,009
20
-130,03
30
0
40
10
50
-90
51
0
0
LINE
8
0
62
1
10
5617,009
20
-140,03
30
0
11
5612,009
21
-140,03
31
0
0
ARC
8
0
62
1
10
5612,009
20
-170,03
30
0
40
30
50
90
51
180
0
LINE
8
0
62
1
10
5582,009
20
-170,03
30
0
11
5582,009
21
-330,03
31
0
0
LINE
8
0
62
1
10
5582,009
20
-330,03
30
0
11
5585,549
21
-333,56
31
0
0
LINE
8
0
6
HIDDEN
62
1
10
5585,549
20
-333,56
30
0
11
5828,879
21
-1410,24
31
0
0
LINE
8
0
62
1
10
5828,879
20
-1410,24
30
0
11
5829,49
21
-1403,271
31
0
0
LINE
8
0
6
HIDDEN
62
1
10
5829,49
20
-1403,271
30
0
11
5828,879
21
-1330,24
31
0
0
LINE
8
0
62
1
10
5828,879
20
-1330,24
30
0
11
5835,87
21
-1330,661
31
0
0
LINE
8
0
6
HIDDEN
62
1
10
5835,87
20
-1330,661
30
0
11
5946,379
21
-1330,24
31
0
0
LINE
8
0
62
1
10
5946,379
20
-1330,24
30
0
11
5946,759
21
-1337,23
31
0
0
LINE
8
0
6
HIDDEN
62
1
10
5946,759
20
-1337,23
30
0
11
5946,379
21
-1410,24
31
0
0
LINE
8
0
62
1
10
5946,379
20
-1410,24
30
0
11
5950,939
21
-1415,561
31
0
0
LINE
8
0
6
HIDDEN
62
1
10
5950,939
20
-1415,561
30
0
11
6093,379
21
-1569,82
31
0
0
LINE
8
0
62
1
10
6093,379
20
-1569,82
30
0
11
6083,379
21
-1569,82
31
0
0
LINE
8
0
62
1
10
6083,379
20
-1569,82
30
0
11
6016,379
21
-1569,82
31
0
0
ARC
8
0
62
1
10
6016,379
20
-1559,82
30
0
40
10
50
180
51
270
0
LINE
8
0
62
1
10
6006,379
20
-1559,82
30
0
11
6006,379
21
-1554,82
31
0
0
ARC
8
0
62
1
10
5976,379
20
-1554,82
30
0
40
30
50
0
51
90
0
LINE
8
0
62
1
10
5976,379
20
-1524,82
30
0
11
5816,379
21
-1524,82
31
0
0
ARC
8
0
62
1
10
5816,379
20
-1514,82
30
0
40
10
50
180
51
270
0
LINE
8
0
62
1
10
5806,379
20
-1514,82
30
0
11
5806,379
21
-1473,48
31
0
0
LINE
8
0
62
1
10
5806,379
20
-1473,48
30
0
11
5806,609
21
-1472,82
31
0
0
ARC
8
0
62
1
10
5786,27
20
-1459,87
30
0
40
24,112
50
-32,485
51
33,459
0
LINE
8
0
62
1
10
5806,379
20
-1446,58
30
0
11
5806,379
21
-1293,911
31
0
0
ARC
8
0
62
1
10
5786,27
20
-1280,62
30
0
40
24,104
50
-33,46
51
32,484
0
LINE
8
0
62
1
10
5806,609
20
-1267,671
30
0
11
5806,379
21
-1267,011
31
0
0
LINE
8
0
62
1
10
5806,379
20
-1267,011
30
0
11
5806,379
21
-1225,671
31
0
0
ARC
8
0
62
1
10
5816,379
20
-1225,671
30
0
40
10
50
90
51
180
0
LINE
8
0
62
1
10
5816,379
20
-1215,671
30
0
11
5976,379
21
-1215,671
31
0
0
ARC
8
0
62
1
10
5976,379
20
-1185,671
30
0
40
30
50
-90
51
0
0
LINE
8
0
62
1
10
6006,379
20
-1185,671
30
0
11
6006,379
21
-1180,671
31
0
0
ARC
8
0
62
1
10
6016,379
20
-1180,671
30
0
40
10
50
90
51
180
0
LINE
8
0
62
1
10
6016,379
20
-1170,671
30
0
11
6083,379
21
-1170,671
31
0
0
LINE
8
0
62
1
10
6083,379
20
-1170,671
30
0
11
6083,379
21
-1267,011
31
0
0
ARC
8
0
62
1
10
6104,029
20
-1280,46
30
0
40
24,643
50
146,922
51
213,077
0
LINE
8
0
62
1
10
6083,379
20
-1293,911
30
0
11
6083,379
21
-1446,58
31
0
0
LINE
8
0
62
1
10
6083,379
20
-1446,58
30
0
11
6083,149
21
-1447,24
31
0
0
ARC
8
0
62
1
10
6103,5
20
-1460,19
30
0
40
24,121
50
147,529
51
213,446
0
LINE
8
0
62
1
10
6083,379
20
-1473,48
30
0
11
6083,379
21
-1569,82
31
0
0
LINE
8
0
62
1
10
6083,379
20
-1569,82
30
0
11
6083,379
21
-1574,82
31
0
0
LINE
8
0
6
HIDDEN
62
1
10
6083,379
20
-1574,82
30
0
11
5845,959
21
-1062,931
31
0
0
LINE
8
0
62
1
10
5845,959
20
-1062,931
30
0
11
5838,99
21
-1063,541
31
0
0
LINE
8
0
6
HIDDEN
62
1
10
5838,99
20
-1063,541
30
0
11
5765,959
21
-1062,931
31
0
0
LINE
8
0
62
1
10
5765,959
20
-1062,931
30
0
11
5766,379
21
-1069,921
31
0
0
LINE
8
0
6
HIDDEN
62
1
10
5766,379
20
-1069,921
30
0
11
5765,959
21
-1180,431
31
0
0
LINE
8
0
62
1
10
5765,959
20
-1180,431
30
0
11
5772,959
21
-1180,49
31
0
0
LINE
8
0
6
HIDDEN
62
1
10
5772,959
20
-1180,49
30
0
11
5845,959
21
-1180,431
31
0
0
LINE
8
0
62
1
10
5845,959
20
-1180,431
30
0
11
5852,919
21
-1181,19
31
0
0
LINE
8
0
6
HIDDEN
62
1
10
5852,919
20
-1181,19
30
0
11
5968,25
21
-1185,431
31
0
0
ARC
8
0
62
1
10
5968,029
20
-1192,931
30
0
40
7,503
50
88,318
51
180
0
ARC
8
0
62
1
10
5950,529
20
-1192,931
30
0
40
10
50
-90
51
0
0
LINE
8
0
62
1
10
5950,529
20
-1202,931
30
0
11
5909,2
21
-1202,931
31
0
0
LINE
8
0
62
1
10
5909,2
20
-1202,931
30
0
11
5908,529
21
-1202,7
31
0
0
ARC
8
0
62
1
10
5895,589
20
-1223,051
30
0
40
24,115
50
57,549
51
123,446
0
LINE
8
0
62
1
10
5882,299
20
-1202,931
30
0
11
5729,629
21
-1202,931
31
0
0
ARC
8
0
62
1
10
5716,33
20
-1223,051
30
0
40
24,118
50
56,534
51
122,45
0
LINE
8
0
62
1
10
5703,39
20
-1202,7
30
0
11
5702,72
21
-1202,931
31
0
0
LINE
8
0
62
1
10
5702,72
20
-1202,931
30
0
11
5661,39
21
-1202,931
31
0
0
ARC
8
0
62
1
10
5661,39
20
-1192,931
30
0
40
10
50
180
51
270
0
LINE
8
0
62
1
10
5651,39
20
-1192,931
30
0
11
5651,39
21
-1032,931
31
0
0
ARC
8
0
62
1
10
5621,39
20
-1032,931
30
0
40
30
50
0
51
90
0
LINE
8
0
62
1
10
5621,39
20
-1002,93
30
0
11
5616,39
21
-1002,93
31
0
0
ARC
8
0
62
1
10
5616,39
20
-992,93
30
0
40
10
50
180
51
270
0
LINE
8
0
62
1
10
5606,39
20
-992,93
30
0
11
5606,39
21
-925,93
31
0
0
LINE
8
0
62
1
10
5606,39
20
-925,93
30
0
11
5702,72
21
-925,93
31
0
0
ARC
8
0
62
1
10
5716,169
20
-905,281
30
0
40
24,643
50
236,923
51
303,077
0
LINE
8
0
62
1
10
5729,62
20
-925,93
30
0
11
5882,299
21
-925,93
31
0
0
LINE
8
0
62
1
10
5882,299
20
-925,93
30
0
11
5882,959
21
-926,16
31
0
0
ARC
8
0
62
1
10
5895,899
20
-905,81
30
0
40
24,115
50
237,548
51
303,466
0
LINE
8
0
62
1
10
5909,2
20
-925,93
30
0
11
6005,529
21
-925,93
31
0
0
LINE
8
0
62
1
10
6005,529
20
-925,93
30
0
11
6005,529
21
-992,93
31
0
0
ARC
8
0
62
1
10
5995,529
20
-992,93
30
0
40
10
50
-90
51
0
0
LINE
8
0
62
1
10
5995,529
20
-1002,93
30
0
11
5990,529
21
-1002,93
31
0
0
ARC
8
0
62
1
10
5990,529
20
-1032,931
30
0
40
30
50
90
51
180
0
LINE
8
0
62
1
10
5960,529
20
-1032,931
30
0
11
5960,529
21
-1192,931
31
0
0
LINE
8
0
62
1
10
5960,529
20
-1192,931
30
0
11
5964,069
21
-1196,46
31
0
0
LINE
8
0
6
HIDDEN
62
1
10
5964,069
20
-1196,46
30
0
11
5834,729
21
-84,82
31
0
0
LINE
8
0
62
1
10
5834,729
20
-84,82
30
0
11
5827,759
21
-85,441
31
0
0
LINE
8
0
6
HIDDEN
62
1
10
5827,759
20
-85,441
30
0
11
5754,729
21
-84,82
31
0
0
LINE
8
0
62
1
10
5754,729
20
-84,82
30
0
11
5755,149
21
-91,81
31
0
0
LINE
8
0
6
HIDDEN
62
1
10
5755,149
20
-91,81
30
0
11
5754,729
21
-202,321
31
0
0
LINE
8
0
62
1
10
5754,729
20
-202,321
30
0
11
5761,72
21
-202,7
31
0
0
LINE
8
0
6
HIDDEN
62
1
10
5761,72
20
-202,7
30
0
11
5834,729
21
-202,321
31
0
0
LINE
8
0
62
1
10
5834,729
20
-202,321
30
0
11
5840,049
21
-206,881
31
0
0
LINE
8
0
6
HIDDEN
62
1
10
5840,049
20
-206,881
30
0
11
6004,31
21
-339,321
31
0
0
LINE
8
0
62
1
10
6004,31
20
-339,321
30
0
11
5994,31
21
-339,321
31
0
0
LINE
8
0
62
1
10
5994,31
20
-339,321
30
0
11
5897,97
21
-339,321
31
0
0
ARC
8
0
62
1
10
5884,52
20
-359,971
30
0
40
24,644
50
56,922
51
123,077
0
LINE
8
0
62
1
10
5871,069
20
-339,321
30
0
11
5718,399
21
-339,321
31
0
0
LINE
8
0
62
1
10
5718,399
20
-339,321
30
0
11
5717,729
21
-339,101
31
0
0
ARC
8
0
62
1
10
5704,79
20
-359,441
30
0
40
24,107
50
57,536
51
123,446
0
LINE
8
0
62
1
10
5691,5
20
-339,321
30
0
11
5595,16
21
-339,321
31
0
0
LINE
8
0
62
1
10
5595,16
20
-339,321
30
0
11
5595,16
21
-272,321
31
0
0
ARC
8
0
62
1
10
5605,16
20
-272,321
30
0
40
10
50
90
51
180
0
LINE
8
0
62
1
10
5605,16
20
-262,321
30
0
11
5610,16
21
-262,321
31
0
0
ARC
8
0
62
1
10
5610,16
20
-232,321
30
0
40
30
50
-90
51
0
0
LINE
8
0
62
1
10
5640,16
20
-232,321
30
0
11
5640,16
21
-72,32
31
0
0
ARC
8
0
62
1
10
5650,16
20
-72,32
30
0
40
10
50
90
51
180
0
LINE
8
0
62
1
10
5650,16
20
-62,32
30
0
11
5691,5
21
-62,32
31
0
0
LINE
8
0
62
1
10
5691,5
20
-62,32
30
0
11
5692,16
21
-62,55
31
0
0
ARC
8
0
62
1
10
5705,109
20
-42,21
30
0
40
24,112
50
237,516
51
303,459
0
LINE
8
0
62
1
10
5718,399
20
-62,32
30
0
11
5871,069
21
-62,32
31
0
0
ARC
8
0
62
1
10
5884,359
20
-42,21
30
0
40
24,104
50
236,54
51
302,484
0
LINE
8
0
62
1
10
5897,31
20
-62,55
30
0
11
5897,97
21
-62,32
31
0
0
LINE
8
0
62
1
10
5897,97
20
-62,32
30
0
11
5939,31
21
-62,32
31
0
0
ARC
8
0
62
1
10
5939,31
20
-72,32
30
0
40
10
50
0
51
90
0
LINE
8
0
62
1
10
5949,31
20
-72,32
30
0
11
5949,31
21
-232,321
31
0
0
ARC
8
0
62
1
10
5979,31
20
-232,321
30
0
40
30
50
180
51
270
0
LINE
8
0
62
1
10
5979,31
20
-262,321
30
0
11
5984,31
21
-262,321
31
0
0
ARC
8
0
62
1
10
5984,31
20
-272,321
30
0
40
10
50
0
51
90
0
LINE
8
0
62
1
10
5994,31
20
-272,321
30
0
11
5994,31
21
-339,321
31
0
0
LINE
8
0
62
1
10
5994,31
20
-339,321
30
0
11
5994,31
21
-344,321
31
0
0
LINE
8
0
6
HIDDEN
62
1
10
5994,31
20
-344,321
30
0
11
2146,709
21
-700,3
31
0
0
LINE
8
0
62
1
10
2146,709
20
-700,3
30
0
11
2149,27
21
-688,581
31
0
0
ARC
8
0
62
1
10
2148,199
20
-693,47
30
0
40
5,005
50
77,656
51
134,919
0
LINE
8
0
6
HIDDEN
62
1
10
2144,669
20
-689,93
30
0
11
2218,29
21
-317,08
31
0
0
LINE
8
0
62
1
10
2218,29
20
-317,08
30
0
11
2230,29
21
-317,191
31
0
0
ARC
8
0
62
1
10
2225,29
20
-317,141
30
0
40
5
50
-0,573
51
56,755
0
LINE
8
0
6
HIDDEN
62
1
10
2228,03
20
-312,96
30
0
11
4987,569
21
-331,83
31
0
0
LINE
8
0
62
1
10
4987,569
20
-331,83
30
0
11
4993,379
21
-342,33
31
0
0
ARC
8
0
62
1
10
4990,959
20
-337,96
30
0
40
4,995
50
298,975
51
356,216
0
LINE
8
0
6
HIDDEN
62
1
10
4995,95
20
-338,291
30
0
11
5920,589
21
-2020,771
31
0
0
LINE
8
0
62
1
10
5920,589
20
-2020,771
30
0
11
5926,14
21
-2031,421
31
0
0
ARC
8
0
62
1
10
5923,83
20
-2026,98
30
0
40
5,005
50
297,486
51
354,835
0
LINE
8
0
6
HIDDEN
62
1
10
5928,81
20
-2027,431
30
0
11
5956,899
21
-2074,271
31
0
0
ARC
8
0
62
1
10
5950,149
20
-2077,541
30
0
40
7,5
50
25,847
51
117,451
0
ARC
8
0
62
1
10
5905,12
20
-1991,061
30
0
40
89,995
50
210,457
51
297,51
0
LINE
8
0
62
1
10
5827,54
20
-2036,681
30
0
11
4954,689
21
-552,23
31
0
0
ARC
8
0
62
1
10
4739,169
20
-678,97
30
0
40
250,023
50
30,458
51
93,45
0
LINE
8
0
62
1
10
4724,12
20
-429,4
30
0
11
2737,79
21
-549,321
31
0
0
ARC
8
0
62
1
10
2774,02
20
-1148,551
30
0
40
600,324
50
93,459
51
113,449
0
LINE
8
0
62
1
10
2535,129
20
-597,81
30
0
11
2270,28
21
-712,72
31
0
0
ARC
8
0
62
1
10
2318,05
20
-822,81
30
0
40
120,007
50
113,456
51
148,417
0
ARC
8
0
62
1
10
2143,409
20
-715,451
30
0
40
84,996
50
218,489
51
328,421
0
ARC
8
0
62
1
10
1982,949
20
-843,04
30
0
40
120,005
50
38,49
51
73,455
0
LINE
8
0
62
1
10
2017,119
20
-728,011
30
0
11
1740,38
21
-645,8
31
0
0
ARC
8
0
62
1
10
1569,479
20
-1221,281
30
0
40
600,32
50
73,46
51
93,449
0
LINE
8
0
62
1
10
1533,359
20
-622,04
30
0
11
584,869
21
-679,31
31
0
0
LINE
8
0
62
1
10
584,869
20
-679,31
30
0
11
538,08
21
-416,411
31
0
0
LINE
8
0
62
1
10
538,08
20
-416,411
30
0
11
1387,88
21
-106,511
31
0
0
ARC
8
0
62
1
10
1525,02
20
-482,77
30
0
40
400,473
50
93,465
51
110,025
0
LINE
8
0
62
1
10
1500,81
20
-83,03
30
0
11
2705,239
21
-10,311
31
0
0
ARC
8
0
62
1
10
2729,6
20
-417,911
30
0
40
408,327
50
90,035
51
93,42
0
LINE
8
0
62
1
10
2729,35
20
-9,58
30
0
11
4963,649
21
-9,58
31
0
0
ARC
8
0
62
1
10
4963,629
20
-219,611
30
0
40
210,029
50
24,566
51
89,994
0
LINE
8
0
62
1
10
5154,649
20
-132,29
30
0
11
5986,979
21
-1953,651
31
0
0
ARC
8
0
62
1
10
5905,12
20
-1991,061
30
0
40
90,003
50
-62,49
51
24,56
0
LINE
8
0
62
1
10
5946,689
20
-2070,88
30
0
11
5945,189
21
-2075,65
31
0
0
ENDSEC
0
EOF
